<?xml version="1.0" encoding="iso-8859-1"?>
<svg height="128" version="1.1" width="128" xmlns="http://www.w3.org/2000/svg">
	

	<path d="M0 0 C42.24 0 84.48 0 128 0 C128 42.24 128 84.48 128 128 C85.76 128 43.52 128 0 128 C0 85.76 0 43.52 0 0 Z " fill="#0570D2" transform="translate(0,0)"/>
	

	<path d="M0 0 C18.48 0 36.96 0 56 0 C53 4 53 4 50.43359375 4.65234375 C48.95052734 4.79349609 48.95052734 4.79349609 47.4375 4.9375 C34.74109911 6.76651333 25.14463117 14.27413192 17.26953125 24.17578125 C16.03278545 26.07466172 14.9868347 27.96108532 14 30 C13.64679687 30.70640625 13.29359375 31.4128125 12.9296875 32.140625 C9.55553287 39.28883406 6.36663297 46.97735093 7 55 C8.65 55.33 10.3 55.66 12 56 C12.226875 57.03125 12.45375 58.0625 12.6875 59.125 C14.29923559 64.65414848 17.36342935 67.9928796 22.25 71 C27.17166285 72.31244343 30.34544744 72.05103048 35 70 C38.62801563 67.62638024 41.8204302 64.94054619 45 62 C45.55171875 61.51402344 46.1034375 61.02804688 46.671875 60.52734375 C50.45867877 56.707127 50.68029817 52.61916898 51.421875 47.55859375 C52.26788997 43.81440588 53.94010222 42.22538021 57 40 C57.94875 39.62875 58.8975 39.2575 59.875 38.875 C64.1621509 36.30270946 65.8968012 32.8523676 68.38671875 28.59375 C71.00638021 24.38199405 71.00638021 24.38199405 73 23 C76.1875 22.8125 76.1875 22.8125 79 23 C79.34611328 24.23363281 79.34611328 24.23363281 79.69921875 25.4921875 C84.27860574 41.16708526 90.21272438 50.06793744 103 60 C105.01522918 61.64954657 107.00793811 63.3224742 109 65 C107.96482881 67.93914678 107.32397568 68.84251182 104.46875 70.23046875 C103.4890625 70.54628906 102.509375 70.86210938 101.5 71.1875 C100.5203125 71.51105469 99.540625 71.83460937 98.53125 72.16796875 C97.6959375 72.44253906 96.860625 72.71710938 96 73 C93.86256408 73.79897553 93.86256408 73.79897553 93.25390625 75.75 C93.02574219 76.4925 92.79757813 77.235 92.5625 78 C92.18351562 79.20462891 92.18351562 79.20462891 91.796875 80.43359375 C91.53390625 81.28050781 91.2709375 82.12742187 91 83 C90.44131068 84.68876545 89.87900672 86.37634086 89.3125 88.0625 C89.06113281 88.81660156 88.80976562 89.57070312 88.55078125 90.34765625 C88.36902344 90.89292969 88.18726562 91.43820313 88 92 C82.43769751 91.36485819 80.55207537 88.79664008 77.05078125 84.6953125 C74.27564071 81.04798494 71.97502188 77.18366192 69.73828125 73.1875 C68.15726763 70.83629923 68.15726763 70.83629923 65.57421875 69.98828125 C62.19076333 70.00368393 61.05004327 71.01008629 58.5 73.1875 C57.71625 73.8371875 56.9325 74.486875 56.125 75.15625 C54.58029627 76.49650765 53.03908837 77.84079767 51.5 79.1875 C43.20975983 85.19792413 35.16000452 86.24655864 25 85 C16.49924644 82.383456 12.15913584 76.0303869 8.125 68.5 C7.568125 67.2625 7.568125 67.2625 7 66 C6.625146 71.83701235 7.7628215 75.97273221 10.0625 81.3125 C10.38049561 82.06088135 10.69849121 82.8092627 11.02612305 83.58032227 C16.96775025 97.12453487 26.48107624 108.60923604 40 115 C40.66773438 115.35578125 41.33546875 115.7115625 42.0234375 116.078125 C55.44906898 123.18893377 71.29650318 125.50591032 86 121 C95.48543021 117.23697981 95.48543021 117.23697981 103.58789062 111.37670898 C105 110 105 110 107 110 C107.495 108.515 107.495 108.515 108 107 C109.66666667 105.33333333 111.33333333 103.66666667 113 102 C118.91911411 95.04992908 122.00905183 86.88765551 123.3125 77.91015625 C124 76 124 76 128 73 C128 91.15 128 109.3 128 128 C85.76 128 43.52 128 0 128 C0 85.76 0 43.52 0 0 Z " fill="#5296CC" transform="translate(0,0)"/>
	

	<path d="M0 0 C0.66 0 1.32 0 2 0 C2.37511719 0.99 2.75023437 1.98 3.13671875 3 C7.05318672 13.17920708 10.5068912 21.39183112 19.1328125 28.45703125 C20.8669214 29.89002919 22.41321081 31.40895668 24 33 C25.05419846 33.86439144 26.11654538 34.71895797 27.1875 35.5625 C28.115625 36.366875 29.04375 37.17125 30 38 C30 38.66 30 39.32 30 40 C29.39671875 40.08636719 28.7934375 40.17273438 28.171875 40.26171875 C27.37265625 40.40222656 26.5734375 40.54273438 25.75 40.6875 C24.96109375 40.81511719 24.1721875 40.94273438 23.359375 41.07421875 C18.98592897 42.79028946 17.36245954 46.18637372 15.515625 50.33203125 C15.09796875 51.48058594 14.6803125 52.62914062 14.25 53.8125 C13.82203125 54.97394531 13.3940625 56.13539062 12.953125 57.33203125 C12.63859375 58.21246094 12.3240625 59.09289062 12 60 C8.65482821 59.40885738 8.17409951 59.24149287 6.0625 56.3125 C5.381875 55.219375 4.70125 54.12625 4 53 C3.154375 51.989375 2.30875 50.97875 1.4375 49.9375 C-0.69047439 47.37301804 -2.32807887 44.86615051 -4 42 C-5.87552269 39.67354064 -5.87552269 39.67354064 -8.9375 39.875 C-13.89805426 40.71384112 -17.45551481 44.01377603 -21.35546875 46.99609375 C-28.41110491 52.34253592 -35.36388841 55.56309675 -44.33203125 55.38671875 C-49.84418784 54.58773851 -54.98189539 52.09917012 -58.84765625 48.078125 C-60 46 -60 46 -59.6875 43.75 C-59.460625 43.1725 -59.23375 42.595 -59 42 C-58.40832031 42.42152344 -57.81664062 42.84304687 -57.20703125 43.27734375 C-56.02173828 44.09912109 -56.02173828 44.09912109 -54.8125 44.9375 C-53.64654297 45.75541016 -53.64654297 45.75541016 -52.45703125 46.58984375 C-49.81315121 48.10723754 -48.0413523 48.806973 -45 49 C-35.53575348 45.65625699 -25.57460753 38.02253362 -21 29 C-20.44868822 26.74164877 -20.44868822 26.74164877 -20.1875 24.5 C-19.51256677 21.09697531 -18.76960207 19.28005793 -16.125 17 C-13 15 -13 15 -10.75 14.5 C-10.1725 14.335 -9.595 14.17 -9 14 C-8.29894157 12.34750513 -7.64199649 10.67632417 -7 9 C-4.87343366 5.88923767 -2.67136589 2.67136589 0 0 Z " fill="#F9FBFA" transform="translate(74,27)"/>
	

	<path d="M0 0 C0.99 0.495 0.99 0.495 2 1 C2.70234105 3.1217782 3.31159524 5.27467759 3.875 7.4375 C8.88407808 25.61382378 17.69043432 41.60444245 34 52 C39.17074962 54.65958744 44.52331596 56.9156471 49.89599609 59.13134766 C52.94418113 60.38981161 55.97100314 61.69612718 59 63 C59 63.33 59 63.66 59 64 C39.53 64 20.06 64 0 64 C0 42.88 0 21.76 0 0 Z " fill="#F9FBFA" transform="translate(0,64)"/>
	

	<path d="M0 0 C14.85 0 29.7 0 45 0 C42.26996141 2.73003859 41.56284335 3.3656454 38.1875 4.4375 C25.17486094 9.08993175 14.97495215 20.63592661 8.99462891 32.79516602 C7.02580147 37.15954515 5.60386253 41.71540373 4.11328125 46.25976562 C2.20589019 51.8970549 2.20589019 51.8970549 0 53 C0 35.51 0 18.02 0 0 Z " fill="#F9FBFA" transform="translate(0,0)"/>
	

	<path d="M0 0 C0.33 0 0.66 0 1 0 C1 14.85 1 29.7 1 45 C-14.84 45 -30.68 45 -47 45 C-44.04149606 42.04149606 -42.01330553 41.16860525 -38.1640625 39.796875 C-23.30910158 34.32681719 -11.30125858 23.6142456 -4.234375 9.46484375 C-3.07307566 6.66504448 -2.02818349 3.84996492 -1 1 C-0.67 0.67 -0.34 0.34 0 0 Z " fill="#F9FBFA" transform="translate(127,83)"/>
	

	<path d="M0 0 C15.18 0 30.36 0 46 0 C46 15.51 46 31.02 46 47 C43.13479388 44.13479388 42.55362089 43.31872913 41.5 39.6875 C36.99262951 25.35637331 26.48232157 14.18322672 13.79296875 6.43359375 C10.25932412 4.61982091 6.75616877 3.51209645 2.8984375 2.60546875 C2.27195312 2.40566406 1.64546875 2.20585938 1 2 C0.67 1.34 0.34 0.68 0 0 Z " fill="#F9FBFA" transform="translate(82,0)"/>
	

	

	

	<path d="M0 0 C-2.5134685 3.77020275 -3.95404009 3.79485313 -8.25 4.9375 C-13.20191281 6.39107353 -16.96803438 7.68482826 -21 11 C-21.77988281 11.639375 -22.55976563 12.27875 -23.36328125 12.9375 C-29.0059727 17.75259671 -33.32676511 22.56021478 -37 29 C-37.36609375 29.61101563 -37.7321875 30.22203125 -38.109375 30.8515625 C-41.58169879 37.1284555 -43.1908496 44.10314494 -45 51 C-45.19722656 51.72960938 -45.39445312 52.45921875 -45.59765625 53.2109375 C-48.46434741 65.957972 -42.60018632 81.24029046 -36.19140625 92.05078125 C-34.99897723 93.92247337 -33.78749503 95.78226905 -32.55078125 97.625 C-31 100 -31 100 -29.98046875 102.25 C-29.05955756 104.3540759 -29.05955756 104.3540759 -26 105 C-24.85535363 106.17831244 -23.71123739 107.35714629 -22.5703125 108.5390625 C-13.06144482 117.38562098 0.02962096 121.55444753 12.21484375 125.25390625 C14 126 14 126 15 128 C9.93886429 128.370327 6.51031321 127.02638958 2 125 C0.83339844 124.51660156 -0.33320312 124.03320312 -1.53515625 123.53515625 C-2.69917969 123.04917969 -3.86320312 122.56320313 -5.0625 122.0625 C-6.22910156 121.57910156 -7.39570312 121.09570312 -8.59765625 120.59765625 C-26.08005616 112.3883548 -38.38760563 97.53018716 -44.85546875 79.6328125 C-45.35998833 78.15254692 -45.84514372 76.66550824 -46.30859375 75.171875 C-46.77456713 73.70813942 -47.28915826 72.25911523 -47.84765625 70.828125 C-50.08200908 64.96684595 -50.93067088 59.25009368 -50 53 C-49.0437042 50.97873843 -48.03979206 48.97960412 -47 47 C-46.17857643 44.73976031 -45.38779135 42.46819496 -44.625 40.1875 C-39.12003911 24.66611618 -29.30828286 12.43020006 -14.8125 4.1875 C-13.4203125 3.5996875 -13.4203125 3.5996875 -12 3 C-10.824375 2.443125 -9.64875 1.88625 -8.4375 1.3125 C-5.27307441 0.10426477 -3.32509137 -0.30228103 0 0 Z " fill="#A6C9DE" transform="translate(50,0)"/>
	

	

	

	

	

</svg>
