<?xml version="1.0" encoding="iso-8859-1"?>
<svg height="128" version="1.1" width="128" xmlns="http://www.w3.org/2000/svg">
	

	<path d="M0 0 C42.24 0 84.48 0 128 0 C128 42.24 128 84.48 128 128 C85.76 128 43.52 128 0 128 C0 85.76 0 43.52 0 0 Z " fill="#FAFAFA" transform="translate(0,0)"/>
	

	<path d="M0 0 C1.98364258 -0.26464844 1.98364258 -0.26464844 4.39453125 -0.109375 C5.70454102 -0.03396484 5.70454102 -0.03396484 7.04101562 0.04296875 C7.95560547 0.11128906 8.87019531 0.17960938 9.8125 0.25 C10.71548828 0.30285156 11.61847656 0.35570312 12.54882812 0.41015625 C16.79201131 0.67827804 20.83741452 1.10402576 25 2 C23.125 7.75 23.125 7.75 22 10 C20.62974361 24.7855389 22.67708699 39.35139485 25.05078125 53.90625 C25.98605137 59.6747775 26.48420472 65.33244527 26.78515625 71.16796875 C27.11610866 75.53052331 27.99108024 79.74882354 29 84 C29.99 84 30.98 84 32 84 C32.14695313 84.59167969 32.29390625 85.18335937 32.4453125 85.79296875 C34.13364498 91.74094466 35.83669503 94.55779669 41 98 C44.25042336 99.08347445 46.53542687 99.09762861 49.95263672 99.0534668 C51.17755829 99.0398259 52.40247986 99.026185 53.66452026 99.01213074 C55.00291551 98.99155766 56.34130455 98.97057698 57.6796875 98.94921875 C59.05347445 98.92997971 60.42726398 98.91092412 61.80105591 98.89204407 C64.68107897 98.85106849 67.56100039 98.80585177 70.44091797 98.75805664 C74.12498568 98.69753891 77.80908665 98.65058143 81.49339104 98.60722637 C84.33142613 98.57179527 87.16927479 98.52756632 90.00714493 98.48087502 C91.36501821 98.45988146 92.72294275 98.44196387 94.08089828 98.4272213 C95.98358339 98.40555168 97.88610045 98.37040656 99.78857422 98.3347168 C100.86984589 98.31837692 101.95111755 98.30203705 103.06515503 98.28520203 C106.43702409 98.09570721 106.43702409 98.09570721 111 96 C111.66 91.05 112.32 86.1 113 81 C108.70924236 77.78193177 108.02749582 77.6416802 102.9921875 77.77734375 C101.84105469 77.79603516 100.68992187 77.81472656 99.50390625 77.83398438 C97.70759766 77.88522461 97.70759766 77.88522461 95.875 77.9375 C93.49760438 77.99725272 91.11997414 78.04847934 88.7421875 78.08984375 C87.16219971 78.13419556 87.16219971 78.13419556 85.55029297 78.17944336 C83 78 83 78 81 76 C80.73257446 73.3187561 80.73257446 73.3187561 80.70947266 69.86962891 C80.69671295 68.58134186 80.68395325 67.29305481 80.67080688 65.96572876 C80.66774936 64.55267486 80.66552153 63.13961896 80.6640625 61.7265625 C80.65763755 60.28168606 80.65090942 58.83681093 80.64389038 57.39193726 C80.63190402 54.36054468 80.62821087 51.32926617 80.62939453 48.29785156 C80.62959765 44.41484705 80.6023096 40.532575 80.56785011 36.64974403 C80.54560111 33.66428271 80.54155638 30.67899811 80.54261398 27.69346237 C80.54025445 26.26212416 80.531411 24.83078133 80.51594925 23.39952469 C80.49633629 21.39616576 80.50463774 19.39259246 80.51416016 17.38916016 C80.51131012 16.24935699 80.50846008 15.10955383 80.50552368 13.93521118 C81.11195214 10.33545217 82.10496983 9.16503343 85 7 C87.70759175 6.53481904 90.03423531 6.30329834 92.75 6.25 C93.49137207 6.22180176 94.23274414 6.19360352 94.99658203 6.16455078 C97.33116318 6.08503575 99.66439537 6.03787467 102 6 C102.7621582 5.98485352 103.52431641 5.96970703 104.30957031 5.95410156 C117.17855312 5.72618437 117.17855312 5.72618437 121 7 C121 42.97 121 78.94 121 116 C101.07625 116.2475 101.07625 116.2475 80.75 116.5 C74.58521973 116.57831055 74.58521973 116.57831055 68.29589844 116.65820312 C51.4370939 116.8662653 34.57808416 117.05203942 17.71790314 117.08811951 C16.13661494 117.09184514 14.55532961 117.09716124 12.97405243 117.10414124 C10.81502997 117.11293155 8.6561083 117.11515369 6.49707031 117.11523438 C5.28416321 117.11728882 4.0712561 117.11934326 2.82159424 117.12145996 C0 117 0 117 -2 116 C-2.04669839 101.31845815 -2.08197823 86.63692612 -2.10362434 71.95532513 C-2.11394167 65.13856716 -2.12801068 58.32185532 -2.15087891 51.50512695 C-2.1729245 44.93048516 -2.18455858 38.3558788 -2.18975449 31.7811985 C-2.19345881 29.26890113 -2.20069211 26.75660648 -2.21146011 24.24432945 C-2.22591164 20.73403559 -2.22798059 17.22394172 -2.22705078 13.71362305 C-2.23424133 12.66777542 -2.24143188 11.6219278 -2.24884033 10.54438782 C-2.246091 9.58946442 -2.24334167 8.63454102 -2.24050903 7.65068054 C-2.24235262 6.82014506 -2.24419621 5.98960958 -2.24609566 5.13390636 C-2 3 -2 3 0 0 Z " fill="#E74A2C" transform="translate(7,8)"/>
	

	

	<path d="M0 0 C3.625 1.5625 3.625 1.5625 4.625 3.5625 C4.74976864 5.40488608 4.81269053 7.25159831 4.84619141 9.09790039 C4.86936432 10.25572525 4.89253723 11.41355011 4.91641235 12.60646057 C4.9362619 13.86168015 4.95611145 15.11689972 4.9765625 16.41015625 C4.99971527 17.69232529 5.02286804 18.97449432 5.04672241 20.29551697 C5.09517936 23.009875 5.14011325 25.72426313 5.18261719 28.4387207 C5.23750925 31.92502856 5.30132745 35.41110599 5.36779213 38.89721012 C5.42977601 42.21394698 5.48407719 45.5307959 5.5390625 48.84765625 C5.56296051 50.10490005 5.58685852 51.36214386 5.61148071 52.65748596 C5.6283493 53.81215866 5.6452179 54.96683136 5.66259766 56.15649414 C5.67956696 57.17860489 5.69653625 58.20071564 5.71401978 59.25379944 C5.625 61.5625 5.625 61.5625 4.625 62.5625 C2.17215055 62.71635787 -0.23320214 62.79413294 -2.6875 62.8125 C-3.36490234 62.833125 -4.04230469 62.85375 -4.74023438 62.875 C-7.70440557 62.89818022 -10.01878991 62.72932506 -12.71875 61.46484375 C-15.0373991 58.80167839 -15.66155312 56.27653414 -16.5625 52.875 C-16.8925 51.62976563 -17.2225 50.38453125 -17.5625 49.1015625 C-18.44946466 45.23814914 -18.98882835 41.50145088 -19.375 37.5625 C-19.705 37.2325 -20.035 36.9025 -20.375 36.5625 C-20.98564296 32.42832196 -21.37175847 28.26700691 -21.78710938 24.10913086 C-21.99678064 22.0318946 -22.2205963 19.95651442 -22.4453125 17.88085938 C-23.8056507 4.79604949 -23.8056507 4.79604949 -22.375 -1.4375 C-16.67993502 -4.28503249 -5.86539664 -1.86669327 0 0 Z " fill="#E84829" transform="translate(66.375,30.4375)"/>
	

	<path d="M0 0 C2.7964417 -0.28052803 5.36794397 -0.37168389 8.1640625 -0.328125 C9.40136612 -0.32531525 9.40136612 -0.32531525 10.66366577 -0.32244873 C12.4206747 -0.31571048 14.17766819 -0.30176108 15.93457031 -0.28125 C18.56590433 -0.25068641 21.19663277 -0.2403331 23.828125 -0.234375 C52.79700065 -0.10149967 52.79700065 -0.10149967 57 2 C56.67 2.99 56.34 3.98 56 5 C53.76685158 6.11657421 52.44316547 6.164662 49.96484375 6.24609375 C49.15466797 6.27896484 48.34449219 6.31183594 47.50976562 6.34570312 C45.82236753 6.40592158 44.13486557 6.46331021 42.44726562 6.51757812 C36.74267813 6.75545628 31.54358624 7.62108177 26 9 C25.31300808 23.26617994 26.24203042 37.02734168 28.3125 51.125 C28.4192807 51.85981598 28.5260614 52.59463196 28.63607788 53.35171509 C31.38741497 74.14811187 31.38741497 74.14811187 40 93 C40.56620056 93.86094772 41.13240112 94.72189545 41.71575928 95.6089325 C43.79692341 98.22896867 43.79692341 98.22896867 46.83477783 98.63923645 C47.92731873 98.64589828 49.01985962 98.65256012 50.14550781 98.65942383 C52.00698456 98.68888847 52.00698456 98.68888847 53.90606689 98.71894836 C55.25508772 98.71550519 56.60410725 98.71152014 57.953125 98.70703125 C59.33748548 98.72014985 60.72182683 98.7354546 62.10614014 98.75285339 C65.74269713 98.79269896 69.37875339 98.80289338 73.01550293 98.80688477 C76.72923976 98.81621729 80.44268249 98.85363139 84.15625 98.88867188 C91.43750249 98.9532428 98.71845475 98.98648665 106 99 C106 99.33 106 99.66 106 100 C98.26368616 100.20046297 90.52717055 100.38415062 82.78997517 100.54658794 C79.19704865 100.62254295 75.60444396 100.70421318 72.01196289 100.79907227 C68.54328132 100.89045 65.07456431 100.96664801 61.60530663 101.03244972 C59.64143397 101.07362844 57.67790861 101.13041322 55.71443176 101.18742371 C54.5135643 101.20767105 53.31269684 101.2279184 52.07543945 101.2487793 C51.02064896 101.27320602 49.96585846 101.29763275 48.87910461 101.32279968 C45.53567549 100.94794083 43.74286006 99.90110639 41 98 C40.113125 97.46375 39.22625 96.9275 38.3125 96.375 C35.04081208 93.01488808 34.64980429 89.53893143 34 85 C33.01 85 32.02 85 31 85 C28.75348779 78.3434713 27.48682152 72.1215506 27 65.125 C26.49917887 58.87861672 25.85243622 52.73405248 24.79125977 46.55712891 C23.37412755 38.27708722 22.66058139 30.15409718 22.5625 21.75 C22.52938721 20.32131592 22.52938721 20.32131592 22.49560547 18.86376953 C22.49834473 17.95481934 22.50108398 17.04586914 22.50390625 16.109375 C22.50112671 14.91779785 22.50112671 14.91779785 22.49829102 13.70214844 C23 11 23 11 27 3 C18.75 2.67 10.5 2.34 2 2 C0.80772683 4.38454635 0.86244249 5.86812491 0.84178162 8.53042603 C0.83200759 9.48198893 0.82223356 10.43355183 0.81216335 11.41394997 C0.8063931 12.4653787 0.80062284 13.51680744 0.79467773 14.60009766 C0.78464501 15.72041571 0.77461229 16.84073376 0.76427555 17.99500084 C0.73280144 21.63466677 0.70808268 25.27434355 0.68359375 28.9140625 C0.66519853 31.15584679 0.6463623 33.3976275 0.6270752 35.6394043 C0.55852971 43.96789386 0.49853966 52.29645205 0.4375 60.625 C0.293125 79.22875 0.14875 97.8325 0 117 C40.59 117 81.18 117 123 117 C123 118.32 123 119.64 123 121 C106.8496808 121.02332909 90.69936704 121.04097922 74.54903507 121.05181217 C67.05066936 121.05697511 59.55231409 121.06401776 52.05395508 121.07543945 C45.52069496 121.08538637 38.98744241 121.09185344 32.45417494 121.09408849 C28.99278193 121.09539559 25.53141058 121.09848136 22.07002449 121.10573006 C18.21212473 121.11374407 14.35424643 121.11399113 10.49633789 121.11352539 C9.34044159 121.11712067 8.18454529 121.12071594 6.99362183 121.12442017 C5.94889206 121.1230455 4.90416229 121.12167084 3.82777405 121.12025452 C2.45752878 121.12163721 2.45752878 121.12163721 1.05960178 121.12304783 C-1 121 -1 121 -2 120 C-2.10011019 118.48870962 -2.13075439 116.97275999 -2.13371277 115.4581604 C-2.13797775 114.47666519 -2.14224274 113.49516998 -2.14663696 112.4839325 C-2.14618378 111.3982045 -2.14573059 110.3124765 -2.14526367 109.19384766 C-2.14862228 108.05735275 -2.1519809 106.92085785 -2.15544128 105.74992371 C-2.16498517 101.97129236 -2.16689616 98.19270517 -2.16796875 94.4140625 C-2.17117909 91.79950949 -2.17454299 89.18495667 -2.17805481 86.57040405 C-2.18445788 81.08078726 -2.1859365 75.59118253 -2.18530273 70.1015625 C-2.18470208 63.75261368 -2.19524963 57.40374987 -2.2110464 51.05482256 C-2.22568742 44.95353632 -2.22929107 38.85229091 -2.22869301 32.75098801 C-2.22987647 30.1521711 -2.2343186 27.55335363 -2.24202538 24.95454788 C-2.25178114 21.32460659 -2.24896457 17.69488597 -2.24291992 14.06494141 C-2.24853943 12.98326187 -2.25415894 11.90158234 -2.25994873 10.78712463 C-2.25575424 9.79998978 -2.25155975 8.81285492 -2.24723816 7.79580688 C-2.24778293 6.93707285 -2.24832769 6.07833881 -2.24888897 5.19358253 C-2 3 -2 3 0 0 Z " fill="#ECDDCE" transform="translate(5,7)"/>
	

	

	<path d="M0 0 C5.4627881 0.11848296 10.92540299 0.24274719 16.38793945 0.37231445 C18.24532519 0.41556221 20.10274808 0.45724428 21.96020508 0.49731445 C24.63374008 0.5552637 27.30708981 0.61888652 29.98046875 0.68359375 C30.80773972 0.70030624 31.63501068 0.71701874 32.48735046 0.73423767 C36.46386588 0.83586409 40.10195043 1.16560711 44 2 C59.39289853 3.41977059 74.87339722 3.08486909 90.3125 3 C95.24609138 2.97337819 100.1796452 2.95345348 105.11328125 2.9375 C106.2340657 2.92920166 107.35485016 2.92090332 108.50959778 2.91235352 C109.55226303 2.90905029 110.59492828 2.90574707 111.66918945 2.90234375 C113.03670097 2.89448853 113.03670097 2.89448853 114.43183899 2.88647461 C117.04793858 3.00211912 119.45019855 3.41880939 122 4 C122 5.32 122 6.64 122 8 C111.53915461 8.13305752 101.07828039 8.26356284 90.61736679 8.39115143 C85.75547519 8.45052337 80.8935958 8.51064855 76.03173828 8.57275391 C56.92779466 8.81618118 37.82354312 9.04723423 18.71790314 9.08811951 C17.13661494 9.09184514 15.55532961 9.09716124 13.97405243 9.10414124 C11.81502997 9.11293155 9.6561083 9.11515369 7.49707031 9.11523438 C6.28416321 9.11728882 5.0712561 9.11934326 3.82159424 9.12145996 C1 9 1 9 -1 8 C-1.125 2.25 -1.125 2.25 0 0 Z " fill="#94B547" transform="translate(6,116)"/>
	

	<path d="M0 0 C0 2.64 0 5.28 0 8 C-7.51214733 8.02343859 -15.02429074 8.04107234 -22.5364666 8.05181217 C-26.02676585 8.05697346 -29.51703962 8.06394395 -33.00732422 8.07543945 C-72.05407801 8.20048599 -72.05407801 8.20048599 -83 6 C-84.98338061 5.8577379 -86.96983513 5.754929 -88.95703125 5.68359375 C-90.06884766 5.64169922 -91.18066406 5.59980469 -92.32617188 5.55664062 C-93.47666016 5.51732422 -94.62714844 5.47800781 -95.8125 5.4375 C-96.98232422 5.39431641 -98.15214844 5.35113281 -99.35742188 5.30664062 C-102.23817031 5.20081721 -105.11900123 5.09873175 -108 5 C-108 4.67 -108 4.34 -108 4 C-84.88398619 1.87236046 -61.82296711 1.01141003 -38.625 0.4375 C-37.29399261 0.40400955 -37.29399261 0.40400955 -35.93609619 0.36984253 C-23.95496698 0.07289853 -11.98473264 -0.05738244 0 0 Z " fill="#E0BF95" transform="translate(128,112)"/>
	

	<path d="M0 0 C1.98364258 -0.26464844 1.98364258 -0.26464844 4.39453125 -0.109375 C5.70454102 -0.03396484 5.70454102 -0.03396484 7.04101562 0.04296875 C7.95560547 0.11128906 8.87019531 0.17960938 9.8125 0.25 C10.71548828 0.30285156 11.61847656 0.35570312 12.54882812 0.41015625 C16.79201131 0.67827804 20.83741452 1.10402576 25 2 C23.125 7.75 23.125 7.75 22 10 C20.62974361 24.7855389 22.67708699 39.35139485 25.05078125 53.90625 C25.98605137 59.6747775 26.48420472 65.33244527 26.78515625 71.16796875 C27.11610866 75.53052331 27.99108024 79.74882354 29 84 C29.99 84 30.98 84 32 84 C32.33 85.65 32.66 87.3 33 89 C30.57127041 88.64415845 29.34913125 88.45664565 27.82666016 86.46533203 C24.63732741 79.18737369 23.52075821 71.6917846 22.375 63.875 C22.17039736 62.54930481 21.96467329 61.2237822 21.7578125 59.8984375 C21.14496456 55.93604859 20.56909085 51.9688734 20 48 C19.90290741 47.33551849 19.80581482 46.67103699 19.70578003 45.98641968 C18.64022729 38.66098124 17.67269155 31.47234796 17.8125 24.0625 C17.81314453 23.38638672 17.81378906 22.71027344 17.81445312 22.01367188 C17.85533507 17.26682355 18.34475868 12.69152785 19 8 C19.66 8 20.32 8 21 8 C20.67 7.01 20.34 6.02 20 5 C17.8216544 3.9108272 16.2796036 3.71967644 13.8671875 3.46484375 C13.06152344 3.37783203 12.25585938 3.29082031 11.42578125 3.20117188 C10.58402344 3.11416016 9.74226563 3.02714844 8.875 2.9375 C7.60076172 2.80118164 7.60076172 2.80118164 6.30078125 2.66210938 C4.2008855 2.4379632 2.10048707 2.21853552 0 2 C0.00222061 3.10230453 0.00444122 4.20460907 0.00672913 5.34031677 C0.02712165 15.79819841 0.04204903 26.25607594 0.05181217 36.71397305 C0.05700043 42.08870214 0.06402314 47.46341501 0.07543945 52.83813477 C0.08641408 58.03826618 0.09230727 63.23838213 0.09487724 68.43852425 C0.09670551 70.40893866 0.10027471 72.37935235 0.10573006 74.34976006 C0.13739027 86.27418536 -0.13491109 98.10522672 -1 110 C-1.33 110 -1.66 110 -2 110 C-2.04670164 96.10076129 -2.0818469 82.20153473 -2.10362434 68.3022337 C-2.11407483 61.8486783 -2.12825713 55.39517551 -2.15087891 48.94165039 C-2.17256214 42.71713047 -2.18455909 36.49266123 -2.18975449 30.26810646 C-2.19345838 27.88978082 -2.20069084 25.51145805 -2.21146011 23.13315392 C-2.22591487 19.80965489 -2.22798046 16.48636705 -2.22705078 13.1628418 C-2.23424133 12.1730986 -2.24143188 11.18335541 -2.24884033 10.16362 C-2.246091 9.25918152 -2.24334167 8.35474304 -2.24050903 7.42289734 C-2.24235262 6.63660792 -2.24419621 5.85031851 -2.24609566 5.04020214 C-2 3 -2 3 0 0 Z " fill="#E09383" transform="translate(7,8)"/>
	

	<path d="M0 0 C0.33 0 0.66 0 1 0 C1 1.65 1 3.3 1 5 C41.59 5 82.18 5 124 5 C124 6.32 124 7.64 124 9 C108.12774152 9.07001433 92.25552458 9.1229509 76.3831501 9.15543652 C69.01368174 9.17091963 61.64430921 9.19203655 54.27490234 9.22631836 C47.85333344 9.25617673 41.43183391 9.27556449 35.01019752 9.28226548 C31.60849857 9.28618385 28.20699815 9.29542205 24.8053627 9.31719017 C21.0122098 9.33883508 17.21947383 9.34197231 13.42626953 9.34057617 C11.72587021 9.35675491 11.72587021 9.35675491 9.99111938 9.3732605 C8.4472052 9.36707451 8.4472052 9.36707451 6.87210083 9.36076355 C5.97427446 9.36352893 5.0764481 9.36629431 4.15141487 9.36914349 C3.44144796 9.24732614 2.73148106 9.12550879 2 9 C-0.29013653 5.5647952 -0.17842973 4.014669 0 0 Z " fill="#DAE786" transform="translate(4,119)"/>
	

	<path d="M0 0 C3.625 1.5625 3.625 1.5625 4.625 3.5625 C4.74976864 5.40488608 4.81269053 7.25159831 4.84619141 9.09790039 C4.86936432 10.25572525 4.89253723 11.41355011 4.91641235 12.60646057 C4.9362619 13.86168015 4.95611145 15.11689972 4.9765625 16.41015625 C4.99971527 17.69232529 5.02286804 18.97449432 5.04672241 20.29551697 C5.09517936 23.009875 5.14011325 25.72426313 5.18261719 28.4387207 C5.23750925 31.92502856 5.30132745 35.41110599 5.36779213 38.89721012 C5.42977601 42.21394698 5.48407719 45.5307959 5.5390625 48.84765625 C5.56296051 50.10490005 5.58685852 51.36214386 5.61148071 52.65748596 C5.6283493 53.81215866 5.6452179 54.96683136 5.66259766 56.15649414 C5.67956696 57.17860489 5.69653625 58.20071564 5.71401978 59.25379944 C5.625 61.5625 5.625 61.5625 4.625 62.5625 C2.17215055 62.71635787 -0.23320214 62.79413294 -2.6875 62.8125 C-3.36490234 62.833125 -4.04230469 62.85375 -4.74023438 62.875 C-7.70440557 62.89818022 -10.01878991 62.72932506 -12.71875 61.46484375 C-15.0373991 58.80167839 -15.66155312 56.27653414 -16.5625 52.875 C-16.8925 51.62976563 -17.2225 50.38453125 -17.5625 49.1015625 C-18.44946466 45.23814914 -18.98882835 41.50145088 -19.375 37.5625 C-19.705 37.2325 -20.035 36.9025 -20.375 36.5625 C-20.98564296 32.42832196 -21.37175847 28.26700691 -21.78710938 24.10913086 C-21.99678064 22.0318946 -22.2205963 19.95651442 -22.4453125 17.88085938 C-23.8056507 4.79604949 -23.8056507 4.79604949 -22.375 -1.4375 C-16.67993502 -4.28503249 -5.86539664 -1.86669327 0 0 Z M-19.375 0.5625 C-19.705 0.8925 -20.035 1.2225 -20.375 1.5625 C-20.31041607 3.5029536 -20.17303668 5.44119816 -20 7.375 C-19.90976562 8.43332031 -19.81953125 9.49164063 -19.7265625 10.58203125 C-19.46902203 13.39750058 -19.46902203 13.39750058 -18.87060547 15.41381836 C-18.28618357 17.9475608 -18.17808048 20.32288145 -18.09375 22.921875 C-18.05636719 23.95570312 -18.01898438 24.98953125 -17.98046875 26.0546875 C-17.94566406 27.12976563 -17.91085938 28.20484375 -17.875 29.3125 C-17.65130278 36.12283771 -17.35291107 42.81491362 -16.375 49.5625 C-15.385 49.5625 -14.395 49.5625 -13.375 49.5625 C-13.21223958 51.54817708 -13.04947917 53.53385417 -12.88671875 55.51953125 C-12.2360333 58.11730599 -11.58246702 59.04010895 -9.375 60.5625 C-6.63256437 60.92520484 -6.63256437 60.92520484 -3.6875 60.75 C-2.19669922 60.70939453 -2.19669922 60.70939453 -0.67578125 60.66796875 C0.08347656 60.63316406 0.84273437 60.59835938 1.625 60.5625 C2.57968515 57.36987441 2.71797102 54.56781429 2.64672852 51.24316406 C2.62663223 50.18236633 2.60653595 49.1215686 2.58583069 48.02862549 C2.55879562 46.88996033 2.53176056 45.75129517 2.50390625 44.578125 C2.48029526 43.40739441 2.45668427 42.23666382 2.43235779 41.03045654 C2.35578198 37.29101249 2.27173096 33.55177869 2.1875 29.8125 C2.13427326 27.27735404 2.0815329 24.74219782 2.02929688 22.20703125 C1.90017498 15.9920574 1.76491524 9.77723972 1.625 3.5625 C0.19770721 3.23658544 -1.2301356 2.9130791 -2.65820312 2.59057617 C-3.45327271 2.41016281 -4.24834229 2.22974945 -5.06750488 2.04386902 C-7.99553249 1.43305005 -10.8944808 1.10929339 -13.875 0.875 C-14.8959375 0.78863281 -15.916875 0.70226562 -16.96875 0.61328125 C-17.7628125 0.59652344 -18.556875 0.57976563 -19.375 0.5625 Z " fill="#E08775" transform="translate(66.375,30.4375)"/>
	

	

	

	<path d="M0 0 C0.87398437 -0.020625 1.74796875 -0.04125 2.6484375 -0.0625 C8.62375776 -0.09796184 14.08240813 0.55990691 19.5 3.25 C20.84957589 5.94915178 20.67729463 8.11486458 20.73706055 11.13671875 C20.77666145 12.98873901 20.77666145 12.98873901 20.81706238 14.87817383 C20.84068686 16.23127553 20.86389564 17.58438454 20.88671875 18.9375 C20.91236968 20.31990804 20.9381537 21.70231362 20.96406555 23.0847168 C21.01705007 25.98318653 21.06597591 28.88169396 21.11254883 31.78027344 C21.17298351 35.49975363 21.24719704 39.21881939 21.32492352 42.93797302 C21.38243718 45.79282408 21.4307744 48.64777634 21.476511 51.50283813 C21.49995744 52.87446072 21.52672323 54.24603063 21.55682945 55.61752319 C21.59786518 57.53259417 21.62483803 59.44795103 21.65112305 61.36328125 C21.67990791 62.99970581 21.67990791 62.99970581 21.70927429 64.66918945 C21.5 67.25 21.5 67.25 19.5 69.25 C12.61069994 69.99192462 5.23613884 70.43260124 -0.5 66.25 C-6.01511636 58.46395338 -6.1066999 50.48532065 -5.5 41.25 C-5.17 41.25 -4.84 41.25 -4.5 41.25 C-4.31824219 42.32378906 -4.13648438 43.39757812 -3.94921875 44.50390625 C-3.69575817 45.94018289 -3.44182672 47.37637648 -3.1875 48.8125 C-3.06955078 49.51697266 -2.95160156 50.22144531 -2.83007812 50.94726562 C-1.96648878 55.7523653 -0.69093871 59.87375481 1.5 64.25 C6.57718207 66.78859104 12.82353788 65.25 18.5 65.25 C18.005 35.55 18.005 35.55 17.5 5.25 C10.6471436 3.61202824 10.6471436 3.61202824 3.90234375 2.8359375 C2.79536133 2.77792969 2.79536133 2.77792969 1.66601562 2.71875 C0.93060547 2.6878125 0.19519531 2.656875 -0.5625 2.625 C-1.33271484 2.58632813 -2.10292969 2.54765625 -2.89648438 2.5078125 C-4.76399477 2.41501695 -6.63196252 2.33149876 -8.5 2.25 C-8.43941406 3.23355469 -8.37882812 4.21710937 -8.31640625 5.23046875 C-7.60856898 16.89910197 -7.03479278 28.57225801 -6.5 40.25 C-6.83 40.25 -7.16 40.25 -7.5 40.25 C-11.41651013 13.83438911 -11.41651013 13.83438911 -10.5 1.25 C-8.24166036 -1.00833964 -3.02808796 0.01725406 0 0 Z " fill="#ECDCCE" transform="translate(52.5,26.75)"/>
	

	<path d="M0 0 C0 1.65 0 3.3 0 5 C-14.08934015 6.02192818 -28.14177637 6.15504275 -42.2644043 6.13037109 C-45.98295017 6.12493354 -49.70137929 6.13038849 -53.41992188 6.13671875 C-55.78906277 6.13605921 -58.15820358 6.13478065 -60.52734375 6.1328125 C-61.636577 6.13483673 -62.74581024 6.13686096 -63.88865662 6.13894653 C-64.91145218 6.13579437 -65.93424774 6.13264221 -66.98803711 6.12939453 C-67.88638779 6.12859894 -68.78473846 6.12780334 -69.71031189 6.12698364 C-72 6 -72 6 -75 5 C-75 4.34 -75 3.68 -75 3 C-71.28808947 2.15662405 -67.77454919 1.82889708 -63.97216797 1.71875 C-62.18539139 1.66364258 -62.18539139 1.66364258 -60.36251831 1.60742188 C-58.44670456 1.55424805 -58.44670456 1.55424805 -56.4921875 1.5 C-54.47939302 1.43796893 -52.46659867 1.37593289 -50.45381355 1.31359863 C-46.21210446 1.18358468 -41.97017436 1.06099905 -37.72827148 0.9375 C-34.22843808 0.83537332 -30.72867668 0.73154256 -27.22903442 0.62304688 C-24.60601009 0.54209194 -21.98285807 0.46515748 -19.35958862 0.39257812 C-18.17470856 0.35583984 -16.98982849 0.31910156 -15.76904297 0.28125 C-14.20281693 0.23581055 -14.20281693 0.23581055 -12.60494995 0.18945312 C-2.99861017 -0.50919795 -2.99861017 -0.50919795 0 0 Z " fill="#AE3E3D" transform="translate(128,107)"/>
	

	<path d="M0 0 C22.69851778 -0.35965961 45.37340304 1.40077447 68 3 C68 3.33 68 3.66 68 4 C60.02492859 5.0104354 52.14833814 5.13111312 44.1171875 5.09765625 C42.82177032 5.0962413 41.52635315 5.09482635 40.19168091 5.09336853 C36.78216549 5.08958811 33.37269408 5.0797972 29.9631958 5.06866455 C26.47026159 5.05835308 22.97732012 5.05385025 19.484375 5.04882812 C12.65623216 5.03816995 5.8281182 5.02114874 -1 5 C-0.67 3.35 -0.34 1.7 0 0 Z " fill="#599A1E" transform="translate(7,118)"/>
	

	<path d="M0 0 C0 0.99 0 1.98 0 3 C-26.4 3 -52.8 3 -80 3 C-80 2.67 -80 2.34 -80 2 C-53.32449032 -0.1447646 -26.74849146 -0.22395208 0 0 Z " fill="#F3EEE5" transform="translate(128,125)"/>
	

	<path d="M0 0 C1.60278914 -0.01254562 3.20554715 -0.03005715 4.80822754 -0.05255127 C7.08956744 -0.08247502 9.37015798 -0.09234164 11.65167236 -0.09695435 C12.69125847 -0.11540657 12.69125847 -0.11540657 13.75184631 -0.13423157 C18.05369036 -0.11445584 18.752242 0.01533404 21.96807861 3.23117065 C18.99807861 3.23117065 16.02807861 3.23117065 12.96807861 3.23117065 C12.63807861 3.89117065 12.30807861 4.55117065 11.96807861 5.23117065 C6.15130763 5.11221124 0.33468299 4.98792107 -5.48187256 4.8588562 C-7.45742764 4.81575142 -9.43301414 4.77406103 -11.40863037 4.7338562 C-14.2610213 4.67555601 -17.11325759 4.6120392 -19.96551514 4.5475769 C-20.8377623 4.53086441 -21.71000946 4.51415192 -22.60868835 4.49693298 C-28.13810365 4.3656708 -33.54232524 3.91221989 -39.03192139 3.23117065 C-39.03192139 2.90117065 -39.03192139 2.57117065 -39.03192139 2.23117065 C-26.45892736 -0.61328997 -12.84317151 0.08847583 0 0 Z " fill="#F0EADD" transform="translate(104.03192138671875,114.76882934570313)"/>
	

	

	

	

	

	

	

	

	

	

	

	

	

	

	

	

	

	

	

	

	

	

	

	

	

	

	

	

	

</svg>
