<?xml version="1.0" encoding="iso-8859-1"?>
<svg height="128" version="1.1" width="128" xmlns="http://www.w3.org/2000/svg">
	

	<path d="M0 0 C42.24 0 84.48 0 128 0 C128 42.24 128 84.48 128 128 C85.76 128 43.52 128 0 128 C0 85.76 0 43.52 0 0 Z " fill="#FCFBFB" transform="translate(0,0)"/>
	

	<path d="M0 0 C1.61600098 0.02682861 1.61600098 0.02682861 3.26464844 0.05419922 C6.48992451 0.11915994 9.71321748 0.2099815 12.9375 0.3125 C13.91017822 0.33489746 14.88285645 0.35729492 15.88500977 0.38037109 C16.77760498 0.41598145 17.6702002 0.4515918 18.58984375 0.48828125 C19.76341431 0.52755737 19.76341431 0.52755737 20.96069336 0.56762695 C23.50002367 1.10601483 24.42896029 1.96466996 26 4 C27.39163675 16.32903184 21.4670459 30.85216292 18.1484375 42.56640625 C17.83406738 43.67669189 17.51969727 44.78697754 17.19580078 45.9309082 C16.57862177 48.09677002 15.95489436 50.26077961 15.32373047 52.42260742 C12.91486648 60.58920048 12.91486648 60.58920048 12 69 C13.46924805 71.69345904 13.46924805 71.69345904 15.875 73.8125 C16.70902344 74.65941406 17.54304688 75.50632812 18.40234375 76.37890625 C19.25957031 77.24386719 20.11679688 78.10882813 21 79 C26.10564177 84.86662131 30.82808632 91.00766864 35.375 97.3125 C35.79193115 97.88709961 36.2088623 98.46169922 36.63842773 99.05371094 C39.1289057 102.5571356 41.35088514 106.02305293 43 110 C42.505 111.485 42.505 111.485 42 113 C37.70961269 112.82324247 34.94972757 112.37921023 31.91015625 109.34765625 C30.94353547 108.26793426 29.99442696 107.17230514 29.0625 106.0625 C28.56943359 105.51142578 28.07636719 104.96035156 27.56835938 104.39257812 C24 100.31940231 24 100.31940231 24 98 C22.515 97.505 22.515 97.505 21 97 C19.52734375 95.50390625 19.52734375 95.50390625 17.9375 93.5625 C14.19931783 89.12641687 10.11823505 85.12277175 5.94140625 81.1015625 C4 79 4 79 4 77 C1.14351972 76.17775578 -1.31640605 75.89739941 -4.28344727 75.97827148 C-5.12275284 75.99836777 -5.96205841 76.01846405 -6.82679749 76.03916931 C-7.73086838 76.06620438 -8.63493927 76.09323944 -9.56640625 76.12109375 C-10.51450668 76.14470474 -11.46260712 76.16831573 -12.43943787 76.19264221 C-15.48061756 76.26910415 -18.52153816 76.35284796 -21.5625 76.4375 C-28.42814979 76.62145625 -35.29384853 76.79457423 -42.16046143 76.93865967 C-44.05097268 76.9794989 -45.9414028 77.02428837 -47.83172607 77.07305908 C-50.48024021 77.13823583 -53.12833694 77.18326873 -55.77734375 77.22265625 C-56.56798721 77.24565292 -57.35863068 77.2686496 -58.17323303 77.29234314 C-63.49671338 77.3416746 -63.49671338 77.3416746 -65.99121094 75.64819336 C-67.46809505 73.23521062 -67.36149906 71.30425378 -67.3125 68.5 C-67.30669922 67.06140625 -67.30669922 67.06140625 -67.30078125 65.59375 C-67 63 -67 63 -65 60 C-58.15733979 58.80699111 -51.30587873 58.84792625 -44.375 58.875 C-42.87839844 58.86919922 -42.87839844 58.86919922 -41.3515625 58.86328125 C-36.12585546 58.87019356 -31.14827342 59.09148116 -26 60 C-28.18330597 56.27018563 -30.3622402 53.54095186 -33.67211914 50.75 C-40.13912338 45.19049278 -46.15911154 39.17905721 -52.22045898 33.18457031 C-53.70485828 31.72191148 -55.19549716 30.26555944 -56.69213867 28.81542969 C-58.87060502 26.70381373 -61.02877473 24.57320974 -63.18359375 22.4375 C-64.18814857 21.47469116 -64.18814857 21.47469116 -65.21299744 20.49243164 C-68.31352677 17.37790931 -69.84483933 15.57780346 -71.00805664 11.24609375 C-70.99843369 7.36891875 -70.08350401 5.24100623 -68 2 C-64.84490452 0.42245226 -61.43784217 0.75776823 -57.96875 0.68359375 C-56.7467112 0.65228615 -56.7467112 0.65228615 -55.49998474 0.62034607 C-52.83342182 0.55395619 -50.16676462 0.49518193 -47.5 0.4375 C-46.59218781 0.41665344 -45.68437561 0.39580688 -44.74905396 0.37432861 C-29.83259575 0.03256555 -14.9202637 -0.25151999 0 0 Z " fill="#B60C3E" transform="translate(83,11)"/>
	

	<path d="M0 0 C1.56139206 0.0001133 1.56139206 0.0001133 3.15432739 0.00022888 C4.28144135 0.00539017 5.4085553 0.01055145 6.56982422 0.01586914 C7.72118866 0.01728409 8.8725531 0.01869904 10.05880737 0.02015686 C13.74740158 0.02576823 17.43593576 0.03832269 21.12451172 0.05102539 C23.62060459 0.05603892 26.11669842 0.06060208 28.61279297 0.06469727 C34.7417198 0.07574136 40.87061147 0.0924906 46.99951172 0.11352539 C47.8265329 4.62543157 48.16382424 7.86952728 46.67138672 12.22290039 C46.36587891 13.14329102 46.06037109 14.06368164 45.74560547 15.01196289 C45.41689453 15.95297852 45.08818359 16.89399414 44.74951172 17.86352539 C44.11696636 19.73252774 43.48675506 21.60232167 42.85888672 23.47290039 C42.54628906 24.39393555 42.23369141 25.3149707 41.91162109 26.26391602 C40.68230071 30.10455507 39.68613341 33.99344543 38.71923828 37.9074707 C37.99951172 40.11352539 37.99951172 40.11352539 35.99951172 42.11352539 C32.6647373 41.78478401 31.01357737 40.49052186 28.71899414 38.1418457 C28.10122604 37.51739563 27.48345795 36.89294556 26.8469696 36.24957275 C26.18961319 35.57045837 25.53225677 34.89134399 24.85498047 34.19165039 C24.16696854 33.49465027 23.4789566 32.79765015 22.77009583 32.07952881 C20.56847177 29.84786978 18.37697082 27.60662833 16.18701172 25.36352539 C14.00698702 23.13551652 11.82473795 20.90988173 9.63606262 18.69036865 C8.2750986 17.3098142 6.91907988 15.92436092 5.56889343 14.53326416 C2.5451398 11.46210166 -0.39087064 8.74612666 -3.97192383 6.33520508 C-4.9713501 5.60205078 -5.97077637 4.86889648 -7.00048828 4.11352539 C-7.00048828 3.12352539 -7.00048828 2.13352539 -7.00048828 1.11352539 C-4.49499383 -0.13922184 -2.80313196 -0.00677085 0 0 Z " fill="#FCFBFB" transform="translate(44.00048828125,25.886474609375)"/>
	

	<path d="M0 0 C1.5774792 -0.00067584 3.15495829 -0.00164818 4.73243713 -0.00289917 C8.00905364 -0.00435995 11.28564259 -0.00227233 14.56225586 0.00244141 C18.7470106 0.008171 22.93170164 0.00482911 27.11645412 -0.00113106 C30.36190772 -0.0047525 33.60734631 -0.00359137 36.85280037 -0.00100327 C38.39606802 -0.00034009 39.93933706 -0.00114091 41.48260307 -0.00348282 C43.63744583 -0.00603919 45.7921863 -0.00212846 47.94702148 0.00341797 C49.1683226 0.00421356 50.38962372 0.00500916 51.64793396 0.00582886 C61.17764225 0.35346652 61.17764225 0.35346652 64.09985352 2.74755859 C68.19368565 12.23670211 61.34809615 28.90606658 58.69140625 38.5078125 C58.29136243 39.98802341 57.89227128 41.46849212 57.49414062 42.94921875 C55.66405991 49.71989845 53.79037933 56.46588527 51.60644531 63.13305664 C50.81684245 66.43961954 51.22740579 68.8735416 52.12890625 72.1328125 C52.78890625 72.4628125 53.44890625 72.7928125 54.12890625 73.1328125 C54.12890625 73.7928125 54.12890625 74.4528125 54.12890625 75.1328125 C50.96774849 73.76297747 50.13619705 73.1437487 48.12890625 70.1328125 C48.4903915 64.54460612 49.74040471 59.42318789 51.31640625 54.0703125 C51.76593236 52.49655258 52.21376227 50.92230746 52.66015625 49.34765625 C52.89734375 48.51218262 53.13453125 47.67670898 53.37890625 46.81591797 C54.74318902 41.93523187 56.03179934 37.03496776 57.31640625 32.1328125 C57.56608154 31.19042725 57.81575684 30.24804199 58.07299805 29.27709961 C60.36298876 20.51643701 62.46601016 12.23461817 62.12890625 3.1328125 C45.82379916 2.33764774 29.56051921 1.9010515 13.23620605 2.10675049 C11.72979203 2.12538105 10.22336024 2.14259711 8.71691895 2.15887451 C3.28975889 2.21790157 -2.13664761 2.29678942 -7.5632019 2.39727783 C-9.38744505 2.42919565 -11.21177765 2.45636773 -13.03616333 2.47869873 C-15.6053323 2.51189175 -18.17345052 2.56410225 -20.7421875 2.62109375 C-21.9075856 2.63069374 -21.9075856 2.63069374 -23.0965271 2.64048767 C-27.194746 2.73603371 -27.194746 2.73603371 -30.82446289 4.45385742 C-32.60015289 7.30233424 -32.75683945 9.81943792 -32.87109375 13.1328125 C-30.50053573 18.37714016 -26.12677531 22.14702069 -22.09765625 26.13671875 C-21.33689789 26.89701889 -20.57613953 27.65731903 -19.79232788 28.44065857 C-18.18585882 30.04411263 -16.5769661 31.64514165 -14.96582031 33.24389648 C-12.50660423 35.68487994 -10.05546071 38.13374643 -7.60546875 40.58398438 C-6.04083511 42.14370131 -4.47574596 43.70296148 -2.91015625 45.26171875 C-2.17979156 45.99097061 -1.44942688 46.72022247 -0.69692993 47.47157288 C2.1432822 50.28554925 4.8850342 52.94684032 8.06884766 55.37475586 C10.30268276 57.2811136 10.82052702 58.25460633 11.12890625 61.1328125 C9.51665161 61.12495728 9.51665161 61.12495728 7.87182617 61.11694336 C3.88550651 61.09884849 -0.10080951 61.08736404 -4.0871582 61.07788086 C-5.81275035 61.07285092 -7.53833823 61.06602624 -9.26391602 61.05737305 C-11.74366305 61.04524889 -14.22335375 61.03957081 -16.703125 61.03515625 C-17.4750972 61.02999496 -18.2470694 61.02483368 -19.04243469 61.01951599 C-22.25411655 61.01917932 -24.80129641 61.10954672 -27.87109375 62.1328125 C-29.31317316 65.01697133 -28.96504262 67.55002778 -28.93359375 70.7578125 C-28.91276042 72.8828125 -28.89192708 75.0078125 -28.87109375 77.1328125 C-17.94731282 77.19655757 -7.03726413 77.15613842 3.8828125 76.84375 C4.85407074 76.81686096 5.82532898 76.78997192 6.82601929 76.76226807 C10.80244811 76.65093053 14.77870799 76.53720041 18.75463867 76.40917969 C21.71384399 76.31543956 24.6731695 76.23476518 27.6328125 76.15625 C28.53060928 76.12405365 29.42840607 76.0918573 30.35340881 76.0586853 C31.186259 76.03851349 32.01910919 76.01834167 32.87719727 75.99755859 C33.60439468 75.97535248 34.3315921 75.95314636 35.08082581 75.93026733 C38.2998072 76.24860889 40.44751944 77.44125574 42.69921875 79.7265625 C43.46878906 80.67015625 43.46878906 80.67015625 44.25390625 81.6328125 C47.06953785 84.9680671 50.01868676 88.06986078 53.12890625 91.1328125 C58.01130019 95.96350182 62.65174325 100.94311722 66.8671875 106.37109375 C70.57239573 111.15887362 70.57239573 111.15887362 76.06640625 113.1328125 C77.07703125 113.1328125 78.08765625 113.1328125 79.12890625 113.1328125 C76.11876387 103.1717133 69.73270824 95.3565329 63.046875 87.54296875 C61.37883427 85.44687684 60.19901821 83.57312073 59.12890625 81.1328125 C63.03539633 82.43497586 64.51800308 84.88477477 66.87890625 88.0703125 C67.31920166 88.65425781 67.75949707 89.23820312 68.21313477 89.83984375 C71.97080254 94.85097923 75.66468205 99.91350389 79.12890625 105.1328125 C79.68320313 105.96167969 80.2375 106.79054688 80.80859375 107.64453125 C82.77183702 111.34448972 82.33896758 114.00160638 82.12890625 118.1328125 C80.80890625 118.1328125 79.48890625 118.1328125 78.12890625 118.1328125 C78.12890625 117.4728125 78.12890625 116.8128125 78.12890625 116.1328125 C77.15953125 115.9884375 76.19015625 115.8440625 75.19140625 115.6953125 C67.6357443 113.50614686 62.63614006 105.83332745 57.94140625 99.9453125 C54.12602983 95.17609197 50.01160769 90.82360726 45.69140625 86.5078125 C45.07563721 85.89139893 44.45986816 85.27498535 43.82543945 84.63989258 C39.27188415 80.142077 37.37419454 79.00590431 30.76733398 79.03515625 C30.115159 79.03661652 29.46298401 79.03807678 28.79104614 79.0395813 C27.3739846 79.04338918 25.95692784 79.04950773 24.53988457 79.05764771 C22.30051091 79.07038067 20.06119626 79.07691878 17.8217926 79.08178711 C13.0699707 79.09322981 8.31819733 79.11247912 3.56640625 79.1328125 C-1.94169195 79.15636322 -7.44976254 79.17676681 -12.95789909 79.18875122 C-15.16993252 79.1952608 -17.38188195 79.20776797 -19.59388733 79.22045898 C-20.94222946 79.22408961 -22.29057239 79.22744158 -23.63891602 79.23046875 C-24.8209108 79.23570557 -26.00290558 79.24094238 -27.22071838 79.24633789 C-29.87109375 79.1328125 -29.87109375 79.1328125 -30.87109375 78.1328125 C-31.02460956 75.49352153 -31.10272436 72.89841291 -31.12109375 70.2578125 C-31.14171875 69.52433594 -31.16234375 68.79085937 -31.18359375 68.03515625 C-31.22301127 62.62510162 -31.22301127 62.62510162 -29.48046875 60.1875 C-25.84109855 57.80247584 -22.68254276 58.00450453 -18.45703125 58.03515625 C-17.72739166 58.0365712 -16.99775208 58.03798615 -16.2460022 58.03944397 C-13.9126579 58.04504719 -11.57940911 58.05760015 -9.24609375 58.0703125 C-7.66536597 58.07532709 -6.08463668 58.07989007 -4.50390625 58.08398438 C-0.62626521 58.09501766 3.25130432 58.11228439 7.12890625 58.1328125 C6.42693115 57.4315625 5.72495605 56.7303125 5.00170898 56.0078125 C2.58051897 53.58667562 0.16558461 51.15939532 -2.24778748 48.73046875 C-4.50567785 46.45906327 -6.76634894 44.1904332 -9.02709961 41.921875 C-10.21387132 40.7300615 -11.39974574 39.53735383 -12.5847168 38.34375 C-14.31189089 36.60436381 -16.04234825 34.86830122 -17.7734375 33.1328125 C-18.29550278 32.60558594 -18.81756805 32.07835938 -19.35545349 31.53515625 C-22.70824364 28.18186359 -26.20311172 25.13810668 -29.87109375 22.1328125 C-32.72310939 19.46679788 -34.64534903 17.60131681 -35.25 13.66796875 C-35.3462857 9.2965981 -35.23498808 5.9184084 -32.87109375 2.1328125 C-24.17272325 -2.21637275 -9.69287631 -0.01486686 0 0 Z " fill="#DFB3C2" transform="translate(45.87109375,9.8671875)"/>
	

	<path d="M0 0 C1.61600098 0.02682861 1.61600098 0.02682861 3.26464844 0.05419922 C6.48992451 0.11915994 9.71321748 0.2099815 12.9375 0.3125 C13.91017822 0.33489746 14.88285645 0.35729492 15.88500977 0.38037109 C16.77760498 0.41598145 17.6702002 0.4515918 18.58984375 0.48828125 C19.76341431 0.52755737 19.76341431 0.52755737 20.96069336 0.56762695 C23.50002367 1.10601483 24.42896029 1.96466996 26 4 C27.39163675 16.32903184 21.4670459 30.85216292 18.1484375 42.56640625 C17.83406738 43.67669189 17.51969727 44.78697754 17.19580078 45.9309082 C16.57862177 48.09677002 15.95489436 50.26077961 15.32373047 52.42260742 C12.01897734 62.26196418 12.01897734 62.26196418 13.4375 72 C13.953125 72.66 14.46875 73.32 15 74 C11.83884224 72.63016497 11.0072908 72.0109362 9 69 C9.3931708 63.25533775 11.05936492 57.82599533 12.625 52.3125 C15.13064305 43.27256344 17.54974213 34.21307173 19.875 25.125 C20.18518066 23.94333252 20.49536133 22.76166504 20.81494141 21.54418945 C22.34014502 15.52734302 23.38140679 10.20930256 23 4 C13.50406842 2.78030034 4.07829708 2.87271384 -5.4765625 2.90234375 C-7.25588949 2.90421197 -9.03521699 2.90563397 -10.81454468 2.90663147 C-15.46691339 2.91042481 -20.11925021 2.92022744 -24.77160645 2.93133545 C-29.53132699 2.94161848 -34.29105276 2.94614377 -39.05078125 2.95117188 C-48.36720141 2.96185297 -57.68359804 2.97889054 -67 3 C-67.23662384 4.58737464 -67.45122112 6.17804298 -67.65649414 7.76977539 C-67.77835587 8.65516495 -67.90021759 9.5405545 -68.02577209 10.45277405 C-67.98622339 14.36163307 -66.21517899 15.97342353 -63.52685547 18.62841797 C-62.69299316 19.41104004 -61.85913086 20.19366211 -61 21 C-59.90697799 22.10234909 -58.81901594 23.20972759 -57.73486328 24.32080078 C-54.54541797 27.58397245 -51.32557174 30.81496769 -48.09399414 34.03637695 C-46.0673702 36.05764268 -44.04614453 38.08419574 -42.02539062 40.11132812 C-35.85288037 46.28668877 -29.69415959 52.3830615 -23 58 C-23.66 59.32 -24.32 60.64 -25 62 C-26.145896 61.99476318 -27.29179199 61.98952637 -28.47241211 61.98413086 C-32.70840682 61.96608283 -36.94439812 61.95456872 -41.18041992 61.94506836 C-43.01668875 61.94002769 -44.85295354 61.93319523 -46.68920898 61.92456055 C-49.32276401 61.91248328 -51.95626616 61.90676919 -54.58984375 61.90234375 C-55.41588608 61.89718246 -56.24192841 61.89202118 -57.09300232 61.88670349 C-59.06236368 61.88650795 -61.03161614 61.93795848 -63 62 C-64.28612676 63.05978933 -64.28612676 63.05978933 -64.09765625 65.50390625 C-64.08605469 66.51324219 -64.07445312 67.52257812 -64.0625 68.5625 C-64.05347656 69.57441406 -64.04445313 70.58632812 -64.03515625 71.62890625 C-64.02355469 72.41136719 -64.01195312 73.19382812 -64 74 C-59.72918265 74.03082767 -55.4584041 74.0484011 -51.1875 74.0625 C-50.53194122 74.06577301 -49.87638245 74.06904602 -49.20095825 74.07241821 C-40.91802929 74.10881432 -32.66542453 73.98297802 -24.390625 73.6015625 C-22.79923932 73.53367216 -21.20784937 73.46588162 -19.61645508 73.39819336 C-17.28508191 73.29798137 -14.95599976 73.18859814 -12.6265564 73.05032349 C-10.44810341 72.92113086 -8.27010855 72.82318973 -6.08984375 72.73046875 C-4.84066162 72.66239014 -3.59147949 72.59431152 -2.30444336 72.52416992 C1.9668021 73.13921664 3.27748992 74.74920556 6 78 C6.73863281 78.73863281 7.47726563 79.47726563 8.23828125 80.23828125 C10.15885417 82.15885417 12.07942708 84.07942708 14 86 C13.67 86.66 13.34 87.32 13 88 C11.49403892 86.54782324 9.99537896 85.08807139 8.5 83.625 C7.6646875 82.81289062 6.829375 82.00078125 5.96875 81.1640625 C4 79 4 79 4 77 C1.14351972 76.17775578 -1.31640605 75.89739941 -4.28344727 75.97827148 C-5.12275284 75.99836777 -5.96205841 76.01846405 -6.82679749 76.03916931 C-7.73086838 76.06620438 -8.63493927 76.09323944 -9.56640625 76.12109375 C-10.51450668 76.14470474 -11.46260712 76.16831573 -12.43943787 76.19264221 C-15.48061756 76.26910415 -18.52153816 76.35284796 -21.5625 76.4375 C-28.42814979 76.62145625 -35.29384853 76.79457423 -42.16046143 76.93865967 C-44.05097268 76.9794989 -45.9414028 77.02428837 -47.83172607 77.07305908 C-50.48024021 77.13823583 -53.12833694 77.18326873 -55.77734375 77.22265625 C-56.56798721 77.24565292 -57.35863068 77.2686496 -58.17323303 77.29234314 C-63.49671338 77.3416746 -63.49671338 77.3416746 -65.99121094 75.64819336 C-67.46809505 73.23521062 -67.36149906 71.30425378 -67.3125 68.5 C-67.30669922 67.06140625 -67.30669922 67.06140625 -67.30078125 65.59375 C-67 63 -67 63 -65 60 C-58.15733979 58.80699111 -51.30587873 58.84792625 -44.375 58.875 C-42.87839844 58.86919922 -42.87839844 58.86919922 -41.3515625 58.86328125 C-36.12585546 58.87019356 -31.14827342 59.09148116 -26 60 C-28.18330597 56.27018563 -30.3622402 53.54095186 -33.67211914 50.75 C-40.13912338 45.19049278 -46.15911154 39.17905721 -52.22045898 33.18457031 C-53.70485828 31.72191148 -55.19549716 30.26555944 -56.69213867 28.81542969 C-58.87060502 26.70381373 -61.02877473 24.57320974 -63.18359375 22.4375 C-64.18814857 21.47469116 -64.18814857 21.47469116 -65.21299744 20.49243164 C-68.31352677 17.37790931 -69.84483933 15.57780346 -71.00805664 11.24609375 C-70.99843369 7.36891875 -70.08350401 5.24100623 -68 2 C-64.84490452 0.42245226 -61.43784217 0.75776823 -57.96875 0.68359375 C-56.7467112 0.65228615 -56.7467112 0.65228615 -55.49998474 0.62034607 C-52.83342182 0.55395619 -50.16676462 0.49518193 -47.5 0.4375 C-46.59218781 0.41665344 -45.68437561 0.39580688 -44.74905396 0.37432861 C-29.83259575 0.03256555 -14.9202637 -0.25151999 0 0 Z " fill="#C35F80" transform="translate(83,11)"/>
	

	

	

	

</svg>
