<?xml version="1.0" encoding="iso-8859-1"?>
<svg height="128" version="1.1" width="128" xmlns="http://www.w3.org/2000/svg">
	

	<path d="M0 0 C42.24 0 84.48 0 128 0 C128 42.24 128 84.48 128 128 C85.76 128 43.52 128 0 128 C0 85.76 0 43.52 0 0 Z " fill="#FBFCFB" transform="translate(0,0)"/>
	

	<path d="M0 0 C2.37753738 0.06049713 4.74919061 0.14767113 7.125 0.25 C7.79015625 0.26417969 8.4553125 0.27835937 9.140625 0.29296875 C14.17290715 0.53964925 17.09989312 1.86598554 21 5 C21.928125 6.2375 21.928125 6.2375 22.875 7.5 C25.72727061 10.85561248 29.01306056 12.26781029 33 14 C32.74863281 12.98679687 32.74863281 12.98679687 32.4921875 11.953125 C32.28851563 11.06109375 32.08484375 10.1690625 31.875 9.25 C31.66617188 8.36828125 31.45734375 7.4865625 31.2421875 6.578125 C30.96911696 3.67124507 31.46491972 2.43338652 33 0 C36.67837373 0.2884999 39.51166205 0.75040505 42.8125 2.4375 C46.07090002 6.25448288 46.4594084 10.10505416 47 15 C47.08378906 15.69738281 47.16757813 16.39476563 47.25390625 17.11328125 C47.59775896 22.64820073 46.0062357 27.417768 43 32 C41.00591923 33.34216975 39.00698975 34.6772113 37 36 C36.49830585 39.16926564 36.49830585 39.16926564 37 42 C36.01 42.33 35.02 42.66 34 43 C34 44.65 34 46.3 34 48 C35.134375 48.144375 36.26875 48.28875 37.4375 48.4375 C41 49 41 49 42 50 C42.20417319 52.74499515 42.31928899 55.48784332 42.42578125 58.23828125 C43.15785845 61.75922396 44.11552959 62.87460075 47 65 C50.21482525 66.08391502 50.21482525 66.08391502 53.6875 66.6875 C59.93055556 67.93055556 59.93055556 67.93055556 61 69 C61.12535652 70.60048202 61.17574787 72.20715928 61.1875 73.8125 C61.20167969 74.68519531 61.21585937 75.55789062 61.23046875 76.45703125 C60.99010406 79.10919085 60.34187309 80.72464999 59 83 C59.37253906 83.47050781 59.74507813 83.94101563 60.12890625 84.42578125 C60.60199219 85.04839844 61.07507813 85.67101562 61.5625 86.3125 C62.03816406 86.92738281 62.51382813 87.54226562 63.00390625 88.17578125 C63.33261719 88.77777344 63.66132812 89.37976563 64 90 C63.505 91.485 63.505 91.485 63 93 C59.12103838 93.36083364 57.54063103 93.43514205 54.4375 90.9375 C52.1754943 88.70277555 52.1754943 88.70277555 49.375 89.125 C46.78712043 89.97374676 46.78712043 89.97374676 44 92 C41.625 92.5625 41.625 92.5625 39 92 C36.72589878 89.95572816 35.20853977 87.80728072 34 85 C34.1875 81.0625 34.1875 81.0625 35 78 C33.68 77.67 32.36 77.34 31 77 C31.45822468 73.53058454 31.89131683 70.32604951 33 67 C31.62831762 64.80961577 31.62831762 64.80961577 30 63 C29.01 63.33 28.02 63.66 27 64 C26.505 65.485 26.505 65.485 26 67 C27.65 67 29.3 67 31 67 C30.01 69.97 29.02 72.94 28 76 C24.04 75.67 20.08 75.34 16 75 C16 75.66 16 76.32 16 77 C17.47508872 78.40385707 19.00710317 79.74817809 20.5625 81.0625 C26.35672911 86.17553787 31.83268939 91.5316859 34.625 98.875 C36.19885077 102.45193358 37.50711072 103.39515898 41 105 C41.05677575 107.83878734 41.07378738 109.42910522 40 112 C37.82674873 113.84217002 35.6004833 115.22829526 33.12890625 116.640625 C30.72703962 117.97312484 30.72703962 117.97312484 29 121 C26.42923207 121.38832443 24.19860892 121.55518861 21.625 121.5625 C20.95210937 121.59923828 20.27921875 121.63597656 19.5859375 121.67382812 C17.6015625 121.69140625 17.6015625 121.69140625 14 121 C11.72265625 118.12890625 11.72265625 118.12890625 10 115 C8.41100762 113.46977928 8.41100762 113.46977928 6.8125 112.375 C4 110 4 110 3.125 107.6875 C3.08375 107.130625 3.0425 106.57375 3 106 C4.9375 104.3125 4.9375 104.3125 8 103 C13.00473327 103.81513169 16.45365936 105.45365936 20 109 C23.10839021 109.7269226 23.10839021 109.7269226 26 110 C24.51519828 104.57678804 23.11268147 99.74313366 20 95 C20 94.34 20 93.68 20 93 C18.68 92.34 17.36 91.68 16 91 C16 90.34 16 89.68 16 89 C15.278125 88.773125 14.55625 88.54625 13.8125 88.3125 C7.58027509 85.40412837 5.43665678 81.03362632 3 75 C-0.38270494 73.30864753 -4.22006273 73.65296598 -7.95703125 73.4765625 C-11.3381187 72.94704688 -13.25733773 72.01990136 -16 70 C-18.12317925 66.81523112 -18.52737469 64.78877311 -18.46484375 60.98828125 C-17.65697165 57.53276109 -14.72105141 56.05467147 -12 54 C-11.04452419 51.32891902 -11.04452419 51.32891902 -11 49 C-10.01 49.33 -9.02 49.66 -8 50 C-7.9175 50.78375 -7.835 51.5675 -7.75 52.375 C-7.28360888 55.05773531 -7.28360888 55.05773531 -5.375 56.125 C-2.30895521 57.25459545 0.49255486 57.42955329 3.75 57.625 C4.92046875 57.69976562 6.0909375 57.77453125 7.296875 57.8515625 C8.18890625 57.90054688 9.0809375 57.94953125 10 58 C9.91878906 57.443125 9.83757813 56.88625 9.75390625 56.3125 C9.43370928 52.44399784 9.38194214 49.94335147 11.55859375 46.62109375 C13.30416285 44.65776754 15.08262775 42.79509085 17 41 C14.60458732 40.80414865 12.20907226 40.61807893 9.8125 40.4375 C8.80219727 40.35338867 8.80219727 40.35338867 7.77148438 40.26757812 C4.74788181 40.04633891 2.11465366 39.9760682 -0.86328125 40.59765625 C-1.92095703 40.79681641 -1.92095703 40.79681641 -3 41 C-5 39 -5 39 -5.25 36.125 C-5.01152253 33.14403168 -4.54507335 31.5107442 -3 29 C-5.31 29.99 -7.62 30.98 -10 32 C-9.67 33.65 -9.34 35.3 -9 37 C-9.99 37 -10.98 37 -12 37 C-12.33 36.34 -12.66 35.68 -13 35 C-14.89533342 34.53476937 -14.89533342 34.53476937 -17.0625 34.375 C-19.0115625 34.189375 -19.0115625 34.189375 -21 34 C-21.625 32.25 -21.625 32.25 -22 30 C-21.67128906 29.39542969 -21.34257812 28.79085937 -21.00390625 28.16796875 C-19.76966324 25.50258015 -19.94262118 23.95468497 -20.3125 21.0625 C-20.42335938 20.18722656 -20.53421875 19.31195312 -20.6484375 18.41015625 C-20.76445312 17.61480469 -20.88046875 16.81945312 -21 16 C-21.144375 15.01 -21.28875 14.02 -21.4375 13 C-21.88278362 10.79104906 -21.88278362 10.79104906 -24 9 C-24.125 6.375 -24.125 6.375 -24 4 C-20.22292403 2.11146201 -16.09140856 2.22244724 -12 3 C-9.93678682 4.59221704 -8.41915392 6.32283725 -6.73828125 8.30859375 C-3.85475101 11.11436587 -0.89786427 11.38454775 3 12 C3.31234752 8.99023914 3.31234752 8.99023914 1.5 7.125 C-0.33389649 4.52697997 -0.1230532 3.10709333 0 0 Z " fill="#C4DDE5" transform="translate(48,7)"/>
	

	<path d="M0 0 C-0.185625 1.4540625 -0.185625 1.4540625 -0.375 2.9375 C-0.32053873 7.38517054 1.34107057 10.52247726 3.87109375 14.11328125 C7.89497101 17.67939633 12.84821177 17.55132171 18 18 C18.33 18.33 18.66 18.66 19 19 C18.4 25.6 18.4 25.6 16 28 C15.071875 27.896875 14.14375 27.79375 13.1875 27.6875 C10.0132928 27.65193123 10.0132928 27.65193123 8.49609375 29.55078125 C7.24555193 31.32861706 6.08541552 33.11733237 5 35 C3.35 34.67 1.7 34.34 0 34 C-0.495 30.535 -0.495 30.535 -1 27 C2.75 24 2.75 24 5 24 C5 22.35 5 20.7 5 19 C4.0925 19.495 3.185 19.99 2.25 20.5 C-1 22 -1 22 -5 22 C-5.22036864 18.14354879 -4.60355101 15.50776784 -3 12 C-3.99 11.67 -4.98 11.34 -6 11 C-6.495 10.01 -6.495 10.01 -7 9 C-8.99954746 8.95745644 -11.00041636 8.95919217 -13 9 C-14.27003323 10.05310277 -14.27003323 10.05310277 -14.1875 12.4375 C-14.26839983 15.16734675 -14.26839983 15.16734675 -12 17 C-12.375 19.125 -12.375 19.125 -13 21 C-13.66386719 20.91621094 -14.32773438 20.83242187 -15.01171875 20.74609375 C-21.54720848 19.94574958 -21.54720848 19.94574958 -28 21 C-28.3409382 24.00185643 -28.3409382 24.00185643 -26.49609375 25.61328125 C-25.47708984 26.45439453 -25.47708984 26.45439453 -24.4375 27.3125 C-23.7053125 27.93640625 -22.973125 28.5603125 -22.21875 29.203125 C-20.89599574 30.27436965 -19.54846784 31.31760313 -18.15625 32.296875 C-13.22102586 35.93099459 -10.91459609 40.56070953 -8.48413086 46.06274414 C-6.84733901 49.69275396 -5.44692648 51.93484797 -2 54 C-2.33 55.32 -2.66 56.64 -3 58 C-6.465 58.495 -6.465 58.495 -10 59 C-10.103125 59.598125 -10.20625 60.19625 -10.3125 60.8125 C-11.09701691 63.30869017 -12.09889308 64.25731865 -14 66 C-14.33 66.66 -14.66 67.32 -15 68 C-18.39858079 68.35023542 -21.61353436 68.51975818 -25 68 C-27.25 65.3125 -27.25 65.3125 -29 62 C-30.51240484 60.603445 -30.51240484 60.603445 -32.1875 59.375 C-35 57 -35 57 -35.875 54.6875 C-35.91625 54.130625 -35.9575 53.57375 -36 53 C-34.0625 51.3125 -34.0625 51.3125 -31 50 C-25.99526673 50.81513169 -22.54634064 52.45365936 -19 56 C-15.89160979 56.7269226 -15.89160979 56.7269226 -13 57 C-14.48480172 51.57678804 -15.88731853 46.74313366 -19 42 C-19 41.34 -19 40.68 -19 40 C-20.32 39.34 -21.64 38.68 -23 38 C-23 37.34 -23 36.68 -23 36 C-23.721875 35.773125 -24.44375 35.54625 -25.1875 35.3125 C-31.41972491 32.40412837 -33.56334322 28.03362632 -36 22 C-38.65790544 20.67104728 -40.84560943 20.88932454 -43.8125 20.8125 C-50.5720654 20.29315764 -50.5720654 20.29315764 -53.25 17.3125 C-55.13359896 13.74711626 -55.70312476 11.95507679 -55 8 C-53.875 6.125 -53.875 6.125 -52 5 C-48.58920729 4.61240992 -46.18634953 4.94032097 -42.9140625 5.98828125 C-34.92324367 8.32595362 -23.67524659 8.94652668 -15.94140625 5.7265625 C-13.69228573 4.17883986 -13.69228573 4.17883986 -11.75390625 2.47265625 C-8.22467497 -0.49064039 -4.40322076 -1.46774025 0 0 Z " fill="#748CA4" transform="translate(87,60)"/>
	

	

	

	<path d="M0 0 C3.16244065 0 5.28123913 0.40049542 7.7421875 2.453125 C8.88232956 3.61860355 10.00128355 4.80534354 11.09375 6.015625 C13.07074035 8.17416018 13.07074035 8.17416018 15.9921875 10.2890625 C19.30032001 12.99740276 20.94588613 16.25325684 22.625 20.125 C24.4691554 24.30914503 25.93477148 27.56796372 30 30 C29.67 31.32 29.34 32.64 29 34 C25.535 34.495 25.535 34.495 22 35 C21.896875 35.598125 21.79375 36.19625 21.6875 36.8125 C20.90298309 39.30869017 19.90110692 40.25731865 18 42 C17.67 42.66 17.34 43.32 17 44 C13.60141921 44.35023542 10.38646564 44.51975818 7 44 C4.75 41.3125 4.75 41.3125 3 38 C1.48759516 36.603445 1.48759516 36.603445 -0.1875 35.375 C-3 33 -3 33 -3.875 30.6875 C-3.91625 30.130625 -3.9575 29.57375 -4 29 C-2.0625 27.3125 -2.0625 27.3125 1 26 C6.00473327 26.81513169 9.45365936 28.45365936 13 32 C16.10839021 32.7269226 16.10839021 32.7269226 19 33 C17.51519828 27.57678804 16.11268147 22.74313366 13 18 C13 17.34 13 16.68 13 16 C11.68 15.34 10.36 14.68 9 14 C9 13.34 9 12.68 9 12 C8.278125 11.773125 7.55625 11.54625 6.8125 11.3125 C3.39243532 9.71646982 1.41008071 7.89209685 -1 5 C-1 1 -1 1 0 0 Z " fill="#4EAED7" transform="translate(55,84)"/>
	

	<path d="M0 0 C5.66474896 0.14524997 8.52470016 2.77787631 12.6875 6.23046875 C14.86944921 7.90010218 16.87720532 9.00925716 19.375 10.125 C22.8916349 11.77123347 24.54398553 13.26896292 26 17 C26.1875 19.8125 26.1875 19.8125 26 22 C28.31 22.33 30.62 22.66 33 23 C32.6875 24.875 32.6875 24.875 32 27 C28.00957993 29.66028005 24.70495153 29.5018953 20 28.62890625 C12.31294732 27.25823693 4.92298957 29.53850521 -2 33 C-4.3329866 33.04022391 -6.66706666 33.04320247 -9 33 C-8.68369537 30.1532583 -8.21061214 28.30218264 -6.5625 25.9375 C-2.61499789 22.95280328 2.94184193 20 8 20 C8.78233842 14.38617914 8.78233842 14.38617914 6.76953125 9.359375 C4.98438979 7.84656686 4.98438979 7.84656686 2 6 C1.01 5.34 0.02 4.68 -1 4 C-0.67 2.68 -0.34 1.36 0 0 Z " fill="#4EAED7" transform="translate(55,11)"/>
	

	<path d="M0 0 C2.1110162 0.20084567 4.22151445 0.41177395 6.32617188 0.67089844 C10.95882006 1.24109655 15.6041208 1.67803872 20.25 2.125 C21.21679688 2.22425781 22.18359375 2.32351562 23.1796875 2.42578125 C24.58347656 2.55919922 24.58347656 2.55919922 26.015625 2.6953125 C26.85383789 2.77797363 27.69205078 2.86063477 28.55566406 2.94580078 C31.18145404 3.00402345 33.4509813 2.60455307 36 2 C36.144375 3.093125 36.28875 4.18625 36.4375 5.3125 C36.88288104 8.93122987 36.88288104 8.93122987 38 12 C33.1071496 12.14867251 28.21562188 12.25736293 23.32104492 12.32958984 C21.65740043 12.35970545 19.99391398 12.4006085 18.33081055 12.45263672 C15.93498746 12.52569321 13.54126747 12.55950481 11.14453125 12.5859375 C10.4047554 12.61690521 9.66497955 12.64787292 8.90278625 12.67977905 C6.00978731 12.68165107 3.70118221 12.55237457 1.37924194 10.72320557 C-0.88565753 8.15337864 -2.02979511 6.67039 -1.875 3.1875 C-1 1 -1 1 0 0 Z " fill="#305B8C" transform="translate(35,67)"/>
	

	

	

	

	

	

	

	

	

	

	

	

	

	

	

	

	

	

	

	

	

	

	

	

</svg>
