<?xml version="1.0" encoding="iso-8859-1"?>
<svg height="128" version="1.1" width="128" xmlns="http://www.w3.org/2000/svg">
	

	<path d="M0 0 C42.24 0 84.48 0 128 0 C128 42.24 128 84.48 128 128 C85.76 128 43.52 128 0 128 C0 85.76 0 43.52 0 0 Z " fill="#EA610F" transform="translate(0,0)"/>
	

	<path d="M0 0 C0.6909375 0.61746094 1.381875 1.23492187 2.09375 1.87109375 C2.09375 2.53109375 2.09375 3.19109375 2.09375 3.87109375 C3.57875 4.36609375 3.57875 4.36609375 5.09375 4.87109375 C11.67800939 13.08308764 14.87356816 21.3435486 14.09375 31.87109375 C12.23937402 42.58526606 4.53679396 52.29575893 -4.18359375 58.48828125 C-16.81076163 66.50743052 -29.90607503 69.73248931 -44.73828125 67.22265625 C-60.31183479 63.46960627 -72.18822182 55.62274468 -80.71875 42.015625 C-85.22681329 33.87441859 -84.94352066 23.83459293 -82.6484375 14.984375 C-78.57619608 3.38920339 -68.67161785 -4.44629216 -58.01953125 -9.75390625 C-38.31282441 -18.45749572 -16.59622273 -12.15717928 0 0 Z " fill="#FBF8F4" transform="translate(94.90625,35.12890625)"/>
	

	

	<path d="M0 0 C6.01993224 4.40121584 10.2931769 10.38057448 12.22265625 17.625 C12.72666456 23.12637889 11.80045149 27.35492607 8.59765625 31.875 C2.30195952 39.2922579 -5.0249177 44.77900507 -14.77734375 46.625 C-28.08929074 47.56812284 -41.85704457 46.5453702 -52.9140625 38.2578125 C-59.14145133 32.8006877 -63.17166696 27.24328556 -64.27734375 18.8125 C-63.95024613 11.77990111 -60.20038893 5.60028869 -55.21484375 0.8125 C-38.60304666 -12.57186223 -17.1235707 -10.85487842 0 0 Z M-53.77734375 7.625 C-56.46812914 11.29003528 -57.62094049 14.65182415 -58.33984375 19.125 C-57.36555016 25.18727124 -54.12988576 29.04153618 -50.21484375 33.625 C-45.8040384 36.19128675 -42.79701544 35.77582472 -37.8046875 35.53515625 C-33.86858915 35.65196949 -31.3138485 36.97711991 -27.85546875 38.71875 C-23.57934836 40.5835243 -19.82149472 40.29836738 -15.453125 38.859375 C-8.60328662 36.00621918 -3.57746892 32.74238716 -0.44921875 25.83203125 C0.75862403 21.86440818 0.51096412 18.54474523 -0.77734375 14.625 C-4.36915864 7.96816974 -9.54029831 3.00579799 -16.75 0.65625 C-28.16882206 -2.34067049 -44.74382513 -1.36097379 -53.77734375 7.625 Z " fill="#EA610F" transform="translate(83.77734375,42.375)"/>
	

	<path d="M0 0 C6.01993224 4.40121584 10.2931769 10.38057448 12.22265625 17.625 C12.72666456 23.12637889 11.80045149 27.35492607 8.59765625 31.875 C2.30195952 39.2922579 -5.0249177 44.77900507 -14.77734375 46.625 C-28.08929074 47.56812284 -41.85704457 46.5453702 -52.9140625 38.2578125 C-59.14145133 32.8006877 -63.17166696 27.24328556 -64.27734375 18.8125 C-63.95024613 11.77990111 -60.20038893 5.60028869 -55.21484375 0.8125 C-38.60304666 -12.57186223 -17.1235707 -10.85487842 0 0 Z M-39.71484375 -5.3125 C-40.75753418 -4.97968018 -40.75753418 -4.97968018 -41.82128906 -4.64013672 C-49.05440718 -2.17115589 -55.00790526 1.50564287 -59.27734375 8 C-61.03862044 12.25641866 -61.57010432 16.05537061 -61.77734375 20.625 C-59.35773141 18.20538766 -58.48332873 15.87293346 -57.08984375 12.75 C-54.31047554 7.10356507 -52.57029425 4.96250634 -46.77734375 2.625 C-45.60171875 2.068125 -44.42609375 1.51125 -43.21484375 0.9375 C-33.4215135 -2.80177155 -22.90931369 -2.54934208 -13.25390625 1.4296875 C-7.82829169 4.04835951 -3.24025702 6.88667347 -0.4453125 12.4765625 C1.24594036 17.91626469 1.45176172 23.70587451 -0.77734375 29 C-5.0606845 35.42501112 -11.6514503 38.24970218 -18.77734375 40.625 C-22.96867607 40.96030659 -26.14380921 40.60046473 -30.02734375 39.125 C-34.54158614 37.4553487 -38.43249115 37.4779928 -43.19921875 37.8125 C-46.54129464 37.56943993 -48.11295683 36.64993406 -50.77734375 34.625 C-53.015625 31.92578125 -53.015625 31.92578125 -55.08984375 28.9375 C-55.78722656 27.94363281 -56.48460937 26.94976562 -57.203125 25.92578125 C-57.72261719 25.16652344 -58.24210937 24.40726563 -58.77734375 23.625 C-59.46267738 25.45679225 -59.46267738 25.45679225 -59.77734375 27.625 C-55.90968626 34.58678348 -50.41635386 39.11121775 -42.80859375 41.59375 C-39.81062511 42.35081279 -36.80336501 42.99145285 -33.77734375 43.625 C-32.46376715 44.03826005 -31.15112244 44.45450557 -29.83984375 44.875 C-20.05363032 47.25049164 -10.22069858 44.70153421 -1.77734375 39.625 C4.39837959 35.44547006 8.16281971 30.84730185 10.22265625 23.625 C11.1624022 16.9293101 8.75598797 12.31061639 5.0546875 6.92578125 C-1.3587704 -1.31416304 -11.17764476 -5.10565798 -21.125 -7.078125 C-27.82091586 -7.82759423 -33.34573281 -7.35316439 -39.71484375 -5.3125 Z M-53.77734375 7.625 C-56.46812914 11.29003528 -57.62094049 14.65182415 -58.33984375 19.125 C-57.36555016 25.18727124 -54.12988576 29.04153618 -50.21484375 33.625 C-45.8040384 36.19128675 -42.79701544 35.77582472 -37.8046875 35.53515625 C-33.86858915 35.65196949 -31.3138485 36.97711991 -27.85546875 38.71875 C-23.57934836 40.5835243 -19.82149472 40.29836738 -15.453125 38.859375 C-8.60328662 36.00621918 -3.57746892 32.74238716 -0.44921875 25.83203125 C0.75862403 21.86440818 0.51096412 18.54474523 -0.77734375 14.625 C-4.36915864 7.96816974 -9.54029831 3.00579799 -16.75 0.65625 C-28.16882206 -2.34067049 -44.74382513 -1.36097379 -53.77734375 7.625 Z " fill="#E59058" transform="translate(83.77734375,42.375)"/>
	

	<path d="M0 0 C9.38618855 6.75329572 16.44608794 16.13092963 18.6875 27.625 C19.69051153 37.92753819 16.59456989 45.30516651 10.30078125 53.359375 C3.82127178 60.79595972 -2.88035821 66.20264096 -12 70 C-12.72445312 70.30679688 -13.44890625 70.61359375 -14.1953125 70.9296875 C-26.23643849 75.73698115 -39.04955576 74.76897589 -51.0625 70.25 C-65.5759689 63.96770856 -76.0804446 54.92136206 -82 40 C-82.31195313 39.27425781 -82.62390625 38.54851562 -82.9453125 37.80078125 C-85.43765711 30.28077595 -82.54505064 22.17853989 -80 15 C-78.35891976 11.87712084 -76.46046107 9.51136716 -74 7 C-73.36707031 6.30390625 -72.73414063 5.6078125 -72.08203125 4.890625 C-68.04435718 0.61084668 -64.23034049 -2.33548692 -59 -5 C-58.2575 -5.515625 -57.515 -6.03125 -56.75 -6.5625 C-38.44862186 -16.12912948 -16.25004159 -11.23402591 0 0 Z M-73.67578125 8.1875 C-80.63007596 16.60278099 -81.82100478 26.35734541 -81 37 C-78.78016055 47.4595825 -70.91714048 56.77219419 -62.4140625 62.84765625 C-49.87043934 70.76728964 -35.21689976 74.37549293 -20.55078125 71.26953125 C-4.70185177 66.75967327 6.0877909 58.03683931 14.50390625 44.015625 C17.86863046 37.23346549 17.37378864 30.31854677 16 23 C13.76933357 17.59415072 10.78356897 12.47618952 7 8 C6.34 8 5.68 8 5 8 C4.505 6.515 4.505 6.515 4 5 C-19.20917922 -15.1528264 -52.61095816 -13.92906177 -73.67578125 8.1875 Z " fill="#E59058" transform="translate(92,31)"/>
	

	<path d="M0 0 C0.6909375 0.61746094 1.381875 1.23492187 2.09375 1.87109375 C2.09375 2.53109375 2.09375 3.19109375 2.09375 3.87109375 C3.57875 4.36609375 3.57875 4.36609375 5.09375 4.87109375 C11.67800939 13.08308764 14.87356816 21.3435486 14.09375 31.87109375 C12.23937402 42.58526606 4.53679396 52.29575893 -4.18359375 58.48828125 C-16.81076163 66.50743052 -29.90607503 69.73248931 -44.73828125 67.22265625 C-60.31183479 63.46960627 -72.18822182 55.62274468 -80.71875 42.015625 C-85.23561962 33.85851505 -84.90570138 23.88320067 -82.671875 15.01171875 C-80.86131696 9.94954627 -78.38823918 5.85908654 -73.90625 2.87109375 C-74.89906767 4.87008538 -75.9010369 6.8611987 -76.94140625 8.8359375 C-77.28042969 9.48691406 -77.61945313 10.13789062 -77.96875 10.80859375 C-78.48115234 11.78119141 -78.48115234 11.78119141 -79.00390625 12.7734375 C-82.18569374 20.17006037 -82.43017315 30.39492097 -79.84765625 37.98046875 C-78.3816664 40.79326229 -76.76780696 43.30440158 -74.90625 45.87109375 C-74.37257813 46.66128906 -73.83890625 47.45148438 -73.2890625 48.265625 C-66.56337743 57.03890752 -55.32739182 62.36990629 -44.59375 64.37109375 C-42.70243241 64.58294174 -40.80563715 64.7515519 -38.90625 64.87109375 C-37.99488281 64.93941406 -37.08351562 65.00773437 -36.14453125 65.078125 C-22.64676369 65.59801048 -9.9041532 60.90727479 0.09375 51.87109375 C2.68472733 49.02682332 4.93184114 46.05101539 7.09375 42.87109375 C7.53074219 42.25621094 7.96773438 41.64132813 8.41796875 41.0078125 C12.19162744 34.82430862 12.10182798 27.8745829 11.09375 20.87109375 C6.94233161 9.00989835 -0.13074882 1.23035245 -11.3125 -4.32421875 C-13.49409844 -5.30593805 -15.6897777 -6.22927926 -17.90625 -7.12890625 C-18.7725 -7.52078125 -19.63875 -7.91265625 -20.53125 -8.31640625 C-32.74900295 -12.49616384 -48.54746559 -11.25598913 -60.09375 -5.81640625 C-64.18618042 -3.67123211 -67.51352757 -1.25378217 -70.90625 1.87109375 C-71.56625 1.54109375 -72.22625 1.21109375 -72.90625 0.87109375 C-51.80869277 -19.57821451 -22.50204596 -16.48335356 0 0 Z " fill="#F0C7A9" transform="translate(94.90625,35.12890625)"/>
	

	

	

</svg>
