<?xml version="1.0" encoding="iso-8859-1"?>
<svg height="128" version="1.1" width="128" xmlns="http://www.w3.org/2000/svg">
	

	<path d="M0 0 C42.24 0 84.48 0 128 0 C128 42.24 128 84.48 128 128 C85.76 128 43.52 128 0 128 C0 85.76 0 43.52 0 0 Z " fill="#FCFCFB" transform="translate(0,0)"/>
	

	<path d="M0 0 C0.62519531 0.32613281 1.25039062 0.65226562 1.89453125 0.98828125 C4.69103054 2.33205364 7.44667973 2.72888311 10.48828125 3.2421875 C18.37818746 5.62265687 21.52735682 9.42622818 25.3125 16.4375 C25.77325928 17.25992188 26.23401855 18.08234375 26.70874023 18.9296875 C31.57267391 27.75360129 35.85495608 36.86720183 40.02954102 46.03320312 C41.06314145 48.23475384 41.06314145 48.23475384 43 51 C43.0625 53.5 43.0625 53.5 42 56 C35.86790398 59.41339051 29.51963932 59.90184355 22.625 60.625 C20.45011897 60.86355171 18.27561164 61.10554464 16.1015625 61.3515625 C15.14588379 61.45291504 14.19020508 61.55426758 13.20556641 61.65869141 C11.0300926 61.77302323 11.0300926 61.77302323 10 63 C10.99 63.99 11.98 64.98 13 66 C-2.53150095 73.41409385 -19.6208792 74.07769366 -36.5625 74.875 C-37.72217285 74.93655273 -38.8818457 74.99810547 -40.07666016 75.06152344 C-41.16640137 75.10051758 -42.25614258 75.13951172 -43.37890625 75.1796875 C-44.82632202 75.23745361 -44.82632202 75.23745361 -46.30297852 75.29638672 C-49.60389931 74.93363504 -51.3708905 74.01057853 -54 72 C-55.94016223 68.91439296 -56.25231719 66.5239697 -56.25878906 62.91186523 C-56.26824554 61.39525551 -56.26824554 61.39525551 -56.27789307 59.8480072 C-56.2738446 58.76250076 -56.26979614 57.67699432 -56.265625 56.55859375 C-56.26753845 55.43937027 -56.2694519 54.32014679 -56.27142334 53.16700745 C-56.27278367 50.80249812 -56.26909786 48.43798128 -56.26074219 46.07348633 C-56.25003075 42.44790952 -56.26064806 38.82282711 -56.2734375 35.19726562 C-56.27211608 32.90104057 -56.26955404 30.60481582 -56.265625 28.30859375 C-56.26967346 27.22106308 -56.27372192 26.13353241 -56.27789307 25.01304626 C-56.27158875 24.00512527 -56.26528442 22.99720428 -56.25878906 21.95874023 C-56.25719788 21.07145737 -56.25560669 20.1841745 -56.25396729 19.27000427 C-56 17 -56 17 -54 14 C-51.13774558 13.91483196 -48.52468835 14.00361487 -45.6875 14.25 C-44.88094971 14.30575195 -44.07439941 14.36150391 -43.2434082 14.41894531 C-39.5181399 14.68342643 -35.8085749 15.01990821 -32.09375 15.40625 C-30.9696875 15.5196875 -29.845625 15.633125 -28.6875 15.75 C-27.70136719 15.86859375 -26.71523438 15.9871875 -25.69921875 16.109375 C-21.66110104 15.9457465 -19.3868373 14.44849076 -16.6105957 11.54882812 C-15.13713451 9.85398421 -13.71796677 8.12657492 -12.3125 6.375 C-5.88832286 -1.5421798 -5.88832286 -1.5421798 0 0 Z " fill="#EB1F18" transform="translate(66,37)"/>
	

	<path d="M0 0 C0.62519531 0.32613281 1.25039062 0.65226562 1.89453125 0.98828125 C4.69103054 2.33205364 7.44667973 2.72888311 10.48828125 3.2421875 C18.37818746 5.62265687 21.52735682 9.42622818 25.3125 16.4375 C25.77325928 17.25992188 26.23401855 18.08234375 26.70874023 18.9296875 C31.57267391 27.75360129 35.85495608 36.86720183 40.02954102 46.03320312 C41.06314145 48.23475384 41.06314145 48.23475384 43 51 C43.0625 53.5 43.0625 53.5 42 56 C35.86790398 59.41339051 29.51963932 59.90184355 22.625 60.625 C20.45011897 60.86355171 18.27561164 61.10554464 16.1015625 61.3515625 C15.14588379 61.45291504 14.19020508 61.55426758 13.20556641 61.65869141 C11.0300926 61.77302323 11.0300926 61.77302323 10 63 C10.99 63.99 11.98 64.98 13 66 C-2.53150095 73.41409385 -19.6208792 74.07769366 -36.5625 74.875 C-37.72217285 74.93655273 -38.8818457 74.99810547 -40.07666016 75.06152344 C-41.16640137 75.10051758 -42.25614258 75.13951172 -43.37890625 75.1796875 C-44.82632202 75.23745361 -44.82632202 75.23745361 -46.30297852 75.29638672 C-49.60389931 74.93363504 -51.3708905 74.01057853 -54 72 C-55.94016223 68.91439296 -56.25231719 66.5239697 -56.25878906 62.91186523 C-56.26824554 61.39525551 -56.26824554 61.39525551 -56.27789307 59.8480072 C-56.2738446 58.76250076 -56.26979614 57.67699432 -56.265625 56.55859375 C-56.26753845 55.43937027 -56.2694519 54.32014679 -56.27142334 53.16700745 C-56.27278367 50.80249812 -56.26909786 48.43798128 -56.26074219 46.07348633 C-56.25003075 42.44790952 -56.26064806 38.82282711 -56.2734375 35.19726562 C-56.27211608 32.90104057 -56.26955404 30.60481582 -56.265625 28.30859375 C-56.26967346 27.22106308 -56.27372192 26.13353241 -56.27789307 25.01304626 C-56.27158875 24.00512527 -56.26528442 22.99720428 -56.25878906 21.95874023 C-56.25719788 21.07145737 -56.25560669 20.1841745 -56.25396729 19.27000427 C-56 17 -56 17 -54 14 C-51.13774558 13.91483196 -48.52468835 14.00361487 -45.6875 14.25 C-44.88094971 14.30575195 -44.07439941 14.36150391 -43.2434082 14.41894531 C-39.5181399 14.68342643 -35.8085749 15.01990821 -32.09375 15.40625 C-30.9696875 15.5196875 -29.845625 15.633125 -28.6875 15.75 C-27.70136719 15.86859375 -26.71523438 15.9871875 -25.69921875 16.109375 C-21.66110104 15.9457465 -19.3868373 14.44849076 -16.6105957 11.54882812 C-15.13713451 9.85398421 -13.71796677 8.12657492 -12.3125 6.375 C-5.88832286 -1.5421798 -5.88832286 -1.5421798 0 0 Z M-11 9 C-11.92539002 10.36914429 -12.84145781 11.74461822 -13.75 13.125 C-15.98807822 16.19093879 -17.54748919 17.61731678 -21.25 18.5625 C-25.25889731 19.13330326 -28.96527035 18.88937411 -32.96484375 18.36328125 C-36.99016781 17.88148571 -41.01692847 17.62279967 -45.0625 17.375 C-45.825625 17.32303467 -46.58875 17.27106934 -47.375 17.2175293 C-49.24792955 17.1034347 -51.12417537 17.04652553 -53 17 C-54.58937556 18.58937556 -54.12981143 20.23899846 -54.1328125 22.4375 C-54.13410156 23.33210938 -54.13539062 24.22671875 -54.13671875 25.1484375 C-54.13285156 26.08945312 -54.12898438 27.03046875 -54.125 28 C-54.12886719 28.94101563 -54.13273437 29.88203125 -54.13671875 30.8515625 C-54.13542969 31.74617188 -54.13414063 32.64078125 -54.1328125 33.5625 C-54.13168457 34.38878906 -54.13055664 35.21507813 -54.12939453 36.06640625 C-54.21264807 38.00679039 -54.21264807 38.00679039 -53 39 C-51.26494115 39.13387161 -49.52485188 39.20355035 -47.78515625 39.24609375 C-46.70556641 39.27896484 -45.62597656 39.31183594 -44.51367188 39.34570312 C-42.2481239 39.40596388 -39.98249726 39.46334945 -37.71679688 39.51757812 C-29.87417069 39.76309448 -22.47029218 40.50990261 -15 43 C-14.9175 43.78375 -14.835 44.5675 -14.75 45.375 C-13.81249536 49.90627245 -12.37929107 56.62070893 -9 60 C0.56322057 59.81113275 10.1379711 58.4769183 19.61816406 57.27050781 C21.78905024 56.99504493 23.96084233 56.72770472 26.1328125 56.4609375 C27.52089293 56.28693312 28.9089162 56.11247195 30.296875 55.9375 C31.53791992 55.78152344 32.77896484 55.62554687 34.05761719 55.46484375 C36.9240481 55.16387705 36.9240481 55.16387705 39 54 C38.41077819 50.53717699 37.52432517 47.62113468 36.03125 44.4453125 C35.62914307 43.58993896 35.22703613 42.73456543 34.81274414 41.85327148 C34.37953857 40.95294189 33.94633301 40.0526123 33.5 39.125 C33.0558374 38.19695557 32.6116748 37.26891113 32.15405273 36.31274414 C28.2336178 28.24731309 23.89272359 20.51418286 19 13 C18.40832031 11.88044922 18.40832031 11.88044922 17.8046875 10.73828125 C14.80870552 7.85254103 11.0553486 7.5201621 7.0625 6.75 C6.25103516 6.57726563 5.43957031 6.40453125 4.60351562 6.2265625 C-3.88299757 4.4637338 -3.88299757 4.4637338 -11 9 Z " fill="#F1A84F" transform="translate(66,37)"/>
	

	<path d="M0 0 C39.6 0 79.2 0 120 0 C120 1.65 120 3.3 120 5 C119.22527344 4.84660156 118.45054688 4.69320313 117.65234375 4.53515625 C112.958245 3.84735782 108.29916553 3.63745612 103.5625 3.4375 C102.66595703 3.39431641 101.76941406 3.35113281 100.84570312 3.30664062 C87.65351227 2.7225872 74.69974849 2.97476624 61.56176758 4.171875 C59.27702432 4.37820371 56.9912835 4.56844856 54.70507812 4.7578125 C53.23689518 4.88707038 51.76879246 5.01724351 50.30078125 5.1484375 C48.99278564 5.26364746 47.68479004 5.37885742 46.3371582 5.49755859 C43.39416559 5.94065456 41.50708692 6.46236232 39 8 C39 9.32 39 10.64 39 12 C38.34 12 37.68 12 37 12 C37 13.32 37 14.64 37 16 C37.66 16.33 38.32 16.66 39 17 C38.34 17 37.68 17 37 17 C36.95512451 17.62567871 36.91024902 18.25135742 36.86401367 18.89599609 C36.65303121 21.72363404 36.42054512 24.54909855 36.1875 27.375 C36.11724609 28.35984375 36.04699219 29.3446875 35.97460938 30.359375 C35.89404297 31.30039062 35.81347656 32.24140625 35.73046875 33.2109375 C35.62835083 34.51490479 35.62835083 34.51490479 35.52416992 35.84521484 C35 38 35 38 32 40 C31.01 40 30.02 40 29 40 C29 40.99 29 41.98 29 43 C31.64 43.33 34.28 43.66 37 44 C37 44.66 37 45.32 37 46 C35.41058594 46.19916016 35.41058594 46.19916016 33.7890625 46.40234375 C32.40101721 46.58053875 31.01299769 46.7589346 29.625 46.9375 C28.57699219 47.06801758 28.57699219 47.06801758 27.5078125 47.20117188 C23.63216425 47.66318128 23.63216425 47.66318128 20 49 C21.20398438 49.13277344 22.40796875 49.26554687 23.6484375 49.40234375 C25.22398085 49.5805302 26.79950047 49.7589265 28.375 49.9375 C29.1690625 50.02451172 29.963125 50.11152344 30.78125 50.20117188 C36.7734375 50.88671875 36.7734375 50.88671875 39 52 C33.10486029 54.72549267 27.75032869 53.81245714 21.5 53.125 C19.46897929 52.91701937 17.4377333 52.711225 15.40625 52.5078125 C14.46523438 52.41274414 13.52421875 52.31767578 12.5546875 52.21972656 C9.69397622 51.97367915 6.86988107 51.91154476 4 52 C3.34 54.64 2.68 57.28 2 60 C1.67 60 1.34 60 1 60 C1.01740234 58.84371094 1.01740234 58.84371094 1.03515625 57.6640625 C1.04417969 56.66117188 1.05320312 55.65828125 1.0625 54.625 C1.07410156 53.62726562 1.08570313 52.62953125 1.09765625 51.6015625 C1.18006602 49.01567547 1.18006602 49.01567547 0 47 C-0.12186546 45.66914123 -0.18706461 44.33281705 -0.22119141 42.99682617 C-0.24436432 42.17224411 -0.26753723 41.34766205 -0.29141235 40.49809265 C-0.3112619 39.60540176 -0.33111145 38.71271088 -0.3515625 37.79296875 C-0.37471527 36.87542313 -0.39786804 35.9578775 -0.42172241 35.01252747 C-0.46939551 33.06822288 -0.51462545 31.12385709 -0.55761719 29.17944336 C-0.62449594 26.20988158 -0.70235235 23.24074823 -0.78125 20.27148438 C-0.82618771 18.38282825 -0.87047954 16.49415662 -0.9140625 14.60546875 C-0.93796051 13.71885056 -0.96185852 12.83223236 -0.98648071 11.91874695 C-1.0033493 11.0847084 -1.0202179 10.25066986 -1.03759766 9.39135742 C-1.05456696 8.6623674 -1.07153625 7.93337738 -1.08901978 7.18229675 C-1 5 -1 5 0 0 Z " fill="#F3ECE1" transform="translate(8,0)"/>
	

	<path d="M0 0 C2.66003421 0.06597605 5.28476009 0.19406135 7.9375 0.375 C8.71150146 0.42317871 9.48550293 0.47135742 10.28295898 0.52099609 C14.3922481 0.78661064 18.47266702 1.13780986 22.5625 1.625 C26.88538928 2.10696879 30.71515533 1.71414078 35 1 C36.45032586 6.22117309 37.31418948 11.19362672 37.78125 16.58984375 C38.06797514 19.74894036 38.52287669 22.86461827 39 26 C38.14716431 25.78428345 38.14716431 25.78428345 37.27709961 25.56420898 C28.7819673 23.45932523 20.6897609 22.64698202 11.9375 22.4375 C9.69649909 22.37789217 7.45559884 22.31431973 5.21484375 22.24609375 C4.23636475 22.22216553 3.25788574 22.1982373 2.24975586 22.17358398 C-0 22 -0 22 -1 21 C-1.09880797 19.52347336 -1.13079245 18.04232764 -1.1328125 16.5625 C-1.13410156 15.66789062 -1.13539062 14.77328125 -1.13671875 13.8515625 C-1.13091797 12.44003906 -1.13091797 12.44003906 -1.125 11 C-1.12886719 10.05898437 -1.13273438 9.11796875 -1.13671875 8.1484375 C-1.13542969 7.25382812 -1.13414063 6.35921875 -1.1328125 5.4375 C-1.13112061 4.19806641 -1.13112061 4.19806641 -1.12939453 2.93359375 C-1 1 -1 1 0 0 Z " fill="#813027" transform="translate(13,54)"/>
	

	

	

	<path d="M0 0 C0.804375 0.13535156 1.60875 0.27070312 2.4375 0.41015625 C3.7059375 0.64025391 3.7059375 0.64025391 5 0.875 C5.78375 1.01679687 6.5675 1.15859375 7.375 1.3046875 C12.16997442 2.57478489 15.92930191 3.7019486 19.15234375 7.609375 C19.74144531 8.64578125 20.33054687 9.6821875 20.9375 10.75 C21.26540527 11.31783203 21.59331055 11.88566406 21.93115234 12.47070312 C22.97763183 14.30166866 23.99092749 16.1481909 25 18 C25.51312744 18.92329102 25.51312744 18.92329102 26.03662109 19.86523438 C30.34060243 27.618477 34.25526787 35.48727572 37.87109375 43.5859375 C38.78577415 45.89943881 38.78577415 45.89943881 40 47 C40.04063832 48.66617115 40.042721 50.33388095 40 52 C31.12027536 54.53485881 22.43542814 55.75984366 13.25 56.5625 C3.67012912 57.29616071 3.67012912 57.29616071 -5.71875 59.19140625 C-9 60 -9 60 -11.75 58.375 C-14.7317972 54.77282889 -15.76107427 50.16645325 -17.0078125 45.7421875 C-18.25062461 42.25977524 -18.25062461 42.25977524 -21 40 C-23.59378635 39.47174603 -26.00364972 39.11659098 -28.625 38.875 C-29.36613037 38.79717285 -30.10726074 38.7193457 -30.87084961 38.63916016 C-38.89577041 37.83371308 -46.9454448 37.38307021 -55 37 C-54.67 36.34 -54.34 35.68 -54 35 C-50.04115961 35.11129997 -46.08315174 35.24157915 -42.125 35.375 C-41.01640625 35.4059375 -39.9078125 35.436875 -38.765625 35.46875 C-21.90421196 36.0638587 -21.90421196 36.0638587 -16 40 C-15.10864258 41.69580078 -15.10864258 41.69580078 -14.39453125 43.6953125 C-14.13349609 44.41074219 -13.87246094 45.12617187 -13.60351562 45.86328125 C-13.34248047 46.60964844 -13.08144531 47.35601562 -12.8125 48.125 C-12.53986328 48.87910156 -12.26722656 49.63320312 -11.98632812 50.41015625 C-11.31528562 52.27023899 -10.65645935 54.13472068 -10 56 C0.68131509 55.35826402 11.25641449 54.22552651 21.875 52.9375 C23.44918252 52.7490461 25.02340113 52.56089341 26.59765625 52.37304688 C30.39886085 51.91882211 34.19955948 51.46057217 38 51 C29.01986023 25.5541098 29.01986023 25.5541098 13.21582031 6.27636719 C12.51038086 6.11813477 11.80494141 5.95990234 11.078125 5.796875 C10.29953125 5.6215625 9.5209375 5.44625 8.71875 5.265625 C7.49671875 5.01039062 7.49671875 5.01039062 6.25 4.75 C5.45078125 4.564375 4.6515625 4.37875 3.828125 4.1875 C-0.67078587 3.21076277 -4.53407759 2.46137564 -9 4 C-11.25038015 6.22449696 -11.25038015 6.22449696 -13.0625 9 C-16.4153586 13.82701933 -16.4153586 13.82701933 -19.74609375 14.8125 C-20.48988281 14.874375 -21.23367187 14.93625 -22 15 C-21.34 14.38125 -20.68 13.7625 -20 13.125 C-16.58050824 9.73490216 -13.71151941 5.91202126 -10.76953125 2.109375 C-7.44161486 -1.85767765 -4.66375859 -0.83158931 0 0 Z " fill="#D56D58" transform="translate(67,40)"/>
	

	

	<path d="M0 0 C2.49572728 0.06482409 4.95022861 0.19126804 7.4375 0.375 C8.13166016 0.41882812 8.82582031 0.46265625 9.54101562 0.5078125 C14.74042112 0.87021056 14.74042112 0.87021056 17 2 C17.02684312 4.81256281 17.04676188 7.62487241 17.0625 10.4375 C17.07087891 11.23994141 17.07925781 12.04238281 17.08789062 12.86914062 C17.0965143 14.91295221 17.0522815 16.95683902 17 19 C15.17883997 20.82116003 12.69328236 20.1323508 10.2734375 20.13671875 C9.52320313 20.13285156 8.77296875 20.12898438 8 20.125 C6.87464844 20.13080078 6.87464844 20.13080078 5.7265625 20.13671875 C0.12661053 20.12661053 0.12661053 20.12661053 -1 19 C-1.0983721 17.66956375 -1.13078592 16.33406656 -1.1328125 15 C-1.13410156 14.195625 -1.13539062 13.39125 -1.13671875 12.5625 C-1.13285156 11.716875 -1.12898437 10.87125 -1.125 10 C-1.12886719 9.154375 -1.13273438 8.30875 -1.13671875 7.4375 C-1.13478516 6.2309375 -1.13478516 6.2309375 -1.1328125 5 C-1.13168457 4.2575 -1.13055664 3.515 -1.12939453 2.75 C-1 1 -1 1 0 0 Z " fill="#341F18" transform="translate(14,55)"/>
	

	

	

	

	

	

</svg>
