<?xml version="1.0" encoding="iso-8859-1"?>
<svg height="128" version="1.1" width="128" xmlns="http://www.w3.org/2000/svg">
	

	<path d="M0 0 C42.24 0 84.48 0 128 0 C128 42.24 128 84.48 128 128 C85.76 128 43.52 128 0 128 C0 85.76 0 43.52 0 0 Z " fill="#3B3D40" transform="translate(0,0)"/>
	

	<path d="M0 0 C7.91971257 7.46492701 7.91971257 7.46492701 8.37109375 12.33984375 C8.26796875 13.20609375 8.16484375 14.07234375 8.05859375 14.96484375 C4.75859375 14.96484375 1.45859375 14.96484375 -1.94140625 14.96484375 C-2.16699219 15.80789062 -2.39257812 16.6509375 -2.625 17.51953125 C-4.18856199 21.6117024 -6.37141176 24.62701508 -9.00390625 28.08984375 C-11.72819173 31.68911011 -13.82190679 34.48684589 -14.94140625 38.96484375 C-4.05140625 39.45984375 -4.05140625 39.45984375 7.05859375 39.96484375 C5.43063516 46.47667812 2.57023927 51.10614857 -1.94140625 55.96484375 C-2.60140625 55.96484375 -3.26140625 55.96484375 -3.94140625 55.96484375 C-3.94140625 56.62484375 -3.94140625 57.28484375 -3.94140625 57.96484375 C-12.62047401 61.13896975 -20.60676023 63.76440657 -29.94140625 63.96484375 C-30.781875 64.00351563 -31.62234375 64.0421875 -32.48828125 64.08203125 C-46.80605216 64.48221739 -58.33877224 59.5012911 -68.94140625 49.96484375 C-76.96853392 41.77620445 -84.11102274 32.79780873 -84.94140625 20.96484375 C-84.57980154 13.53025088 -82.87519944 7.62752961 -78.06640625 1.90234375 C-77.38835937 1.08636719 -76.7103125 0.27039063 -76.01171875 -0.5703125 C-75.32851562 -1.38371094 -74.6453125 -2.19710937 -73.94140625 -3.03515625 C-73.2865625 -3.89753906 -72.63171875 -4.75992188 -71.95703125 -5.6484375 C-66.54234357 -12.06001535 -57.61454294 -17.1457277 -49.26953125 -17.91015625 C-29.08188521 -18.99405671 -14.92777023 -13.36597328 0 0 Z " fill="#C48D3A" transform="translate(91.94140625,41.03515625)"/>
	

	<path d="M0 0 C2.4375 2 2.4375 2 3.4375 5 C4.015 5.268125 4.5925 5.53625 5.1875 5.8125 C7.4375 7 7.4375 7 9.375 9.75 C13.8229064 15.4427607 22.5128359 18.56088888 29.4375 20 C28.9425 18.8553125 28.9425 18.8553125 28.4375 17.6875 C27.4375 15 27.4375 15 27.4375 12 C28.9375 13.125 28.9375 13.125 30.4375 15 C30.625 18.1875 30.625 18.1875 30.4375 21 C27.1375 21 23.8375 21 20.4375 21 C20.2209375 21.82371094 20.004375 22.64742187 19.78125 23.49609375 C18.10183905 27.87525545 15.67091002 31.28022335 12.9375 35.0625 C9.90098657 39.28772605 7.25531354 43.09351212 5.4375 48 C-1.73419846 60.81141439 -1.73419846 60.81141439 -8.54296875 63.45703125 C-11.97420938 64.37955049 -14.9897881 64.87889112 -18.5625 65 C-19.5525 64.34 -20.5425 63.68 -21.5625 63 C-20.67076128 55.7174671 -19.83071365 49.43284533 -14.5625 44 C-13.9025 44 -13.2425 44 -12.5625 44 C-12.8925 43.01 -13.2225 42.02 -13.5625 41 C-19.07058397 41.59015185 -24.21128069 42.56663769 -29.5625 44 C-29.2325 46.64 -28.9025 49.28 -28.5625 52 C-30.97290161 53.53690745 -32.06332285 54.09752136 -34.921875 53.5390625 C-35.71078125 53.23742187 -36.4996875 52.93578125 -37.3125 52.625 C-38.11171875 52.32851562 -38.9109375 52.03203125 -39.734375 51.7265625 C-40.33765625 51.48679688 -40.9409375 51.24703125 -41.5625 51 C-41.2325 49.35 -40.9025 47.7 -40.5625 46 C-38.2525 45.34 -35.9425 44.68 -33.5625 44 C-33.8925 42.68 -34.2225 41.36 -34.5625 40 C-42.4825 40.495 -42.4825 40.495 -50.5625 41 C-50.8925 39.68 -51.2225 38.36 -51.5625 37 C-50.4178125 36.4121875 -50.4178125 36.4121875 -49.25 35.8125 C-46.29388621 33.81884186 -45.27476791 32.06802256 -43.5625 29 C-32.4259976 29.19537724 -32.4259976 29.19537724 -28.8125 32.5625 C-27.69875 33.7690625 -27.69875 33.7690625 -26.5625 35 C-22.98470578 35.74023329 -19.67450683 35.35116005 -16.1875 34.25 C-14.16686571 32.69566593 -13.43018271 31.38612746 -12.5625 29 C-12.5625 28.01 -12.5625 27.02 -12.5625 26 C-14.62492617 25.97282308 -16.68745703 25.9535242 -18.75 25.9375 C-20.47283203 25.92009766 -20.47283203 25.92009766 -22.23046875 25.90234375 C-25.49398912 25.90382619 -25.49398912 25.90382619 -28.36328125 26.56640625 C-30.5625 27 -30.5625 27 -32.5625 26 C-34.15512066 25.84824451 -35.75314856 25.75099675 -37.3515625 25.68359375 C-38.76308594 25.62075195 -38.76308594 25.62075195 -40.203125 25.55664062 C-41.18796875 25.51732422 -42.1728125 25.47800781 -43.1875 25.4375 C-44.67636719 25.37272461 -44.67636719 25.37272461 -46.1953125 25.30664062 C-48.65089838 25.20038931 -51.10658703 25.09835036 -53.5625 25 C-53.5625 23.68 -53.5625 22.36 -53.5625 21 C-50.16347473 19.95414607 -47.10105521 20 -43.5625 20 C-42.1703125 19.7525 -42.1703125 19.7525 -40.75 19.5 C-35.25798221 18.63850701 -30.29859504 18.49114456 -24.9375 20.0625 C-21.08907539 21.13150684 -18.44104358 20.79153951 -14.5625 20 C-14.14469121 17.62694422 -14.14469121 17.62694422 -14.5625 15 C-17.69229109 12.49616713 -20.62866447 11.5619765 -24.5625 11 C-24.2325 8.36 -23.9025 5.72 -23.5625 3 C-26.5325 3 -29.5025 3 -32.5625 3 C-32.8925 1.68 -33.2225 0.36 -33.5625 -1 C-24.42721448 -8.50398454 -9.4986143 -5.8661276 0 0 Z " fill="#DA424C" transform="translate(69.5625,35)"/>
	

	<path d="M0 0 C0.7265625 2.109375 0.7265625 2.109375 1 4 C-0.32 4.33 -1.64 4.66 -3 5 C-2.05576649 8.77693404 -1.06080636 9.9550033 2.125 12.3125 C4.93031397 13.78806015 6.91091665 14.16332582 10.0625 14 C14.74893134 14 16.35812471 15.18582364 20 18 C21.3191582 18.69429379 22.64649406 19.37530495 24 20 C23.49046204 24.45845711 21.87043538 26.6230172 19 30 C15.7560379 35.00110823 12.81042113 40.35262432 11.0625 46.0625 C9.87560044 49.3439282 8.25125946 51.64424918 6.14453125 54.39453125 C4.87179256 56.02260813 4.87179256 56.02260813 4.1875 58.3125 C2.41478348 60.83162348 0.07898894 61.15135516 -2.82421875 61.76171875 C-6.07476044 62.11770267 -8.80615146 61.66538511 -12 61 C-11.96456854 53.1873629 -11.96456854 53.1873629 -9.5625 50.23046875 C-9.005625 49.70066406 -8.44875 49.17085937 -7.875 48.625 C-5.62107842 46.34976474 -5.01263917 45.52117999 -4.93359375 42.26171875 C-5.17936753 40.34873727 -5.48606011 38.44223759 -5.86328125 36.55078125 C-6.03701191 33.30946355 -5.02261557 32.43225923 -3 30 C-2.6626154 26.87501834 -2.6626154 26.87501834 -5 24.8125 C-5.66 24.214375 -6.32 23.61625 -7 23 C-6.50628906 22.67386719 -6.01257813 22.34773438 -5.50390625 22.01171875 C-4.54291016 21.35623047 -4.54291016 21.35623047 -3.5625 20.6875 C-2.92441406 20.25824219 -2.28632812 19.82898438 -1.62890625 19.38671875 C0.2885684 17.9965948 0.2885684 17.9965948 1 15 C-1.31 15.33 -3.62 15.66 -6 16 C-6.99 14.68 -7.98 13.36 -9 12 C-8.484375 11.401875 -7.96875 10.80375 -7.4375 10.1875 C-6.963125 9.465625 -6.48875 8.74375 -6 8 C-6.33 7.01 -6.66 6.02 -7 5 C-8.3921875 5.12375 -8.3921875 5.12375 -9.8125 5.25 C-11.3903125 5.12625 -11.3903125 5.12625 -13 5 C-14.5 3 -14.5 3 -16 1 C-19.12586875 0.66602213 -19.12586875 0.66602213 -22 1 C-22 0.01 -22 -0.98 -22 -2 C-14.5400796 -3.21794619 -6.67764963 -4.36490268 0 0 Z " fill="#E62B32" transform="translate(63,34)"/>
	

	<path d="M0 0 C2.58340384 -0.02703562 5.16652308 -0.04685611 7.75 -0.0625 C8.47960937 -0.07087891 9.20921875 -0.07925781 9.9609375 -0.08789062 C15.58975134 -0.11347614 15.58975134 -0.11347614 18.05566406 0.56860352 C20.19963116 1.21912889 20.19963116 1.21912889 23 0 C25.22818441 -0.06937062 27.45834524 -0.08457084 29.6875 -0.0625 C31.45673828 -0.04896484 31.45673828 -0.04896484 33.26171875 -0.03515625 C34.16535156 -0.02355469 35.06898437 -0.01195312 36 0 C36.609375 1.80078125 36.609375 1.80078125 37 4 C33.864 9.712 33.864 9.712 30 11 C24.74504443 11.50854409 24.74504443 11.50854409 22 11 C20.88625 9.7934375 20.88625 9.7934375 19.75 8.5625 C15.48332019 4.58673018 10.63913929 5.09893227 5 5 C4.4225 5.969375 3.845 6.93875 3.25 7.9375 C1 11 1 11 -1.25 11.875 C-1.8275 11.91625 -2.405 11.9575 -3 12 C-2.67 12.99 -2.34 13.98 -2 15 C-0.86820313 14.90460938 0.26359375 14.80921875 1.4296875 14.7109375 C2.91141612 14.59840115 4.39318945 14.48645242 5.875 14.375 C6.62136719 14.31054688 7.36773438 14.24609375 8.13671875 14.1796875 C10.0870047 14.03912635 12.04469467 14.01240151 14 14 C14.66 14.66 15.32 15.32 16 16 C15.625 18.125 15.625 18.125 15 20 C12.69 20.66 10.38 21.32 8 22 C8 23.32 8 24.64 8 26 C8.928125 26.04125 9.85625 26.0825 10.8125 26.125 C14 27 14 27 15.875 30.0625 C16.24625 31.031875 16.6175 32.00125 17 33 C18.90765822 30.13851267 19.4283509 28.64699621 20.0625 25.375 C20.89939638 21.10060362 20.89939638 21.10060362 22 20 C24.67058851 19.85884839 27.32432238 19.95752893 30 20 C29.525625 20.845625 29.05125 21.69125 28.5625 22.5625 C26.83936546 25.92261085 26.83936546 25.92261085 26.5 29.5625 C25.95882149 33.28310225 25.53812433 35.21625074 23 38 C20.17879842 38.88451607 18.02594644 38.9519691 15 39 C14.34 38.34 13.68 37.68 13 37 C12.071875 36.71125 11.14375 36.4225 10.1875 36.125 C2.88789884 33.54867018 -2.86236946 26.95545809 -6.48828125 20.24609375 C-9.45145409 13.82151546 -12 8.15139049 -12 1 C-8.04 1 -4.08 1 0 1 C0 0.67 0 0.34 0 0 Z " fill="#DA943F" transform="translate(21,60)"/>
	

	<path d="M0 0 C3.23087421 0.55704728 5.02361137 1.33187535 7 4 C7 5.32 7 6.64 7 8 C6.34 8 5.68 8 5 8 C5 9.32 5 10.64 5 12 C5.61875 12.103125 6.2375 12.20625 6.875 12.3125 C9 13 9 13 11 16 C12.01704055 25.06090675 11.45713436 36.46311198 6.51953125 44.37109375 C6.01808594 44.90863281 5.51664063 45.44617188 5 46 C4.34 46 3.68 46 3 46 C3.875 41.25 3.875 41.25 5 39 C4.34 39 3.68 39 3 39 C3 38.34 3 37.68 3 37 C2.01 37.495 2.01 37.495 1 38 C-1.61518725 38.09868631 -4.19784734 38.13896965 -6.8125 38.125 C-7.52470703 38.12886719 -8.23691406 38.13273437 -8.97070312 38.13671875 C-12.77280929 38.12968433 -16.30487007 37.914708 -20 37 C-19.51720006 31.88626188 -16.92581315 28.52163671 -14.0625 24.4375 C-13.1555026 23.12511196 -12.2504901 21.8113495 -11.34765625 20.49609375 C-10.94554932 19.92044678 -10.54344238 19.3447998 -10.12915039 18.75170898 C-8.93293654 16.97667535 -8.93293654 16.97667535 -7.96264648 14.83227539 C-7 13 -7 13 -5.25 12.1875 C-2.36824559 11.9473538 0.17747815 12.42266598 3 13 C2.5359375 11.453125 2.5359375 11.453125 2.0625 9.875 C1.12497188 6.61027443 0.49227298 3.36386538 0 0 Z " fill="#304361" transform="translate(97,43)"/>
	

	<path d="M0 0 C4.17489665 4.17489665 7.00270604 8.112265 9.75 13.3125 C13.45143474 19.8814494 18.45222717 25.29410631 25 29 C26.13483918 29.81988382 27.26087703 30.65217959 28.375 31.5 C31.7491961 33.95463497 35.11610764 35.49400092 39 37 C39 37.66 39 38.32 39 39 C26.13 39 13.26 39 0 39 C0 26.13 0 13.26 0 0 Z " fill="#6F7273" transform="translate(0,89)"/>
	

	<path d="M0 0 C12.54 0 25.08 0 38 0 C38 10.89 38 21.78 38 33 C34.2606985 31.75356617 33.85904685 30.53614173 31.8125 27.25 C28.92983929 22.97466144 26.39106459 20.5421708 21.9140625 18.0703125 C17.74454266 15.73878508 14.5560762 12.71704562 11.625 8.9375 C8.80289004 5.77942457 6.49340719 4.49717451 2.671875 2.859375 C1 2 1 2 0 0 Z " fill="#F9F9F9" transform="translate(90,0)"/>
	

	<path d="M0 0 C1.0206958 0.00209473 2.0413916 0.00418945 3.09301758 0.00634766 C11.03096639 0.17210382 16.89513501 1.45976912 23.8125 5.5 C25.14265668 6.17298249 26.47488951 6.84195714 27.8125 7.5 C27.8125 8.16 27.8125 8.82 27.8125 9.5 C28.369375 9.7475 28.92625 9.995 29.5 10.25 C32.215352 11.71775784 34.40971259 13.56604916 36.8125 15.5 C37.988125 16.11875 37.988125 16.11875 39.1875 16.75 C43.04918648 19.32445765 46.23638017 22.63210826 48.8125 26.5 C48.8125 27.82 48.8125 29.14 48.8125 30.5 C40.84195828 29.47996044 32.65350703 26.20315639 27.375 19.9375 C26.50908644 18.80051784 25.65390308 17.65523832 24.8125 16.5 C20.85328852 11.91564986 17.4168868 10.28982413 11.8125 8.5 C10.905 8.108125 9.9975 7.71625 9.0625 7.3125 C0.66954889 5.21426222 -7.28930869 6.14925217 -15.1875 9.5 C-15.5175 11.48 -15.8475 13.46 -16.1875 15.5 C-16.55875 15.025625 -16.93 14.55125 -17.3125 14.0625 C-19.81396962 11.97794198 -22.00343418 11.85378509 -25.1875 11.5 C-25.27 12.428125 -25.3525 13.35625 -25.4375 14.3125 C-26.1875 17.5 -26.1875 17.5 -28.125 19.375 C-30.1875 20.5 -30.1875 20.5 -32.1875 20.5 C-32.484375 18.25390625 -32.484375 18.25390625 -32.1875 15.5 C-30.140625 13.40234375 -30.140625 13.40234375 -27.4375 11.4375 C-23.66298973 8.66922188 -23.66298973 8.66922188 -20.296875 5.44140625 C-14.34284688 -0.03850482 -7.70639139 -0.04639006 0 0 Z " fill="#EDC62F" transform="translate(50.1875,24.5)"/>
	

	<path d="M0 0 C0.61327148 0.51933105 1.22654297 1.03866211 1.85839844 1.57373047 C3.34731973 2.89421593 4.74529688 4.31577974 6.125 5.75 C6.125 6.74 6.125 7.73 6.125 8.75 C5.0421875 7.6053125 5.0421875 7.6053125 3.9375 6.4375 C1.37526947 3.98914638 -0.82667688 2.49189892 -3.875 0.75 C-5.15681573 -0.08759566 -6.42727071 -0.94276429 -7.6875 -1.8125 C-8.29207031 -2.22628906 -8.89664063 -2.64007813 -9.51953125 -3.06640625 C-9.96683594 -3.45699219 -10.41414063 -3.84757812 -10.875 -4.25 C-10.875 -4.91 -10.875 -5.57 -10.875 -6.25 C-11.60976562 -6.53617188 -12.34453125 -6.82234375 -13.1015625 -7.1171875 C-15.875 -8.25 -15.875 -8.25 -17.9609375 -9.3203125 C-24.81479684 -12.47823404 -31.39447297 -12.62384795 -38.8125 -12.625 C-39.8319873 -12.6264502 -40.85147461 -12.62790039 -41.90185547 -12.62939453 C-46.57017666 -12.56034341 -49.71410178 -12.42510127 -53.875 -10.25 C-54.865 -10.25 -55.855 -10.25 -56.875 -10.25 C-57.12378906 -9.65445312 -57.37257813 -9.05890625 -57.62890625 -8.4453125 C-59.05680495 -5.92970414 -60.46707398 -4.79344086 -62.8125 -3.125 C-63.84697266 -2.37863281 -63.84697266 -2.37863281 -64.90234375 -1.6171875 C-66.5476313 -0.4768892 -68.20939173 0.63959449 -69.875 1.75 C-70.60465366 4.31282742 -70.60465366 4.31282742 -70.875 6.75 C-70.25625 6.255 -69.6375 5.76 -69 5.25 C-66.875 3.75 -66.875 3.75 -64.875 3.75 C-64.545 2.76 -64.215 1.77 -63.875 0.75 C-63.215 1.74 -62.555 2.73 -61.875 3.75 C-62.535 4.41 -63.195 5.07 -63.875 5.75 C-64.27547444 8.07275177 -64.6147104 10.40739357 -64.875 12.75 C-66.23625 11.7290625 -66.23625 11.7290625 -67.625 10.6875 C-70.58972615 8.48017191 -70.58972615 8.48017191 -73.25 9 C-73.78625 9.2475 -74.3225 9.495 -74.875 9.75 C-75.205 11.4 -75.535 13.05 -75.875 14.75 C-72.575 14.75 -69.275 14.75 -65.875 14.75 C-66.205 15.74 -66.535 16.73 -66.875 17.75 C-69.845 18.245 -69.845 18.245 -72.875 18.75 C-72.875 19.41 -72.875 20.07 -72.875 20.75 C-70.565 21.41 -68.255 22.07 -65.875 22.75 C-65.875 23.08 -65.875 23.41 -65.875 23.75 C-72.805 23.255 -72.805 23.255 -79.875 22.75 C-79.25625 24.77125 -78.6375 26.7925 -78 28.875 C-77.65195313 30.01195312 -77.30390625 31.14890625 -76.9453125 32.3203125 C-75.96003467 35.47751664 -74.93227464 38.61627606 -73.875 41.75 C-78.52293272 37.74316145 -80.33207946 33.2383858 -81.625 27.3125 C-82.22470795 18.76666176 -80.57666386 11.32688659 -75 4.6875 C-74.32195312 3.87152344 -73.64390625 3.05554688 -72.9453125 2.21484375 C-72.26210937 1.40144531 -71.57890625 0.58804688 -70.875 -0.25 C-70.22015625 -1.11238281 -69.5653125 -1.97476563 -68.890625 -2.86328125 C-63.47593732 -9.2748591 -54.54813669 -14.36057145 -46.203125 -15.125 C-27.87329634 -16.10915187 -14.04034063 -11.91377956 0 0 Z " fill="#DA9F3A" transform="translate(88.875,38.25)"/>
	

	<path d="M0 0 C3.94876098 0.56410871 6.75634176 1.65735794 10 4 C11.07465731 7.22397192 11.16691803 9.67470786 11.1875 13.0625 C11.20167969 14.12597656 11.21585938 15.18945312 11.23046875 16.28515625 C11 19 11 19 9 21 C7.12060547 21.22705078 7.12060547 21.22705078 4.8671875 21.1953125 C4.06152344 21.18886719 3.25585938 21.18242188 2.42578125 21.17578125 C1.58402344 21.15902344 0.74226563 21.14226562 -0.125 21.125 C-1.39923828 21.11146484 -1.39923828 21.11146484 -2.69921875 21.09765625 C-4.79959884 21.07405647 -6.89983444 21.03818483 -9 21 C-9.66 19.68 -10.32 18.36 -11 17 C-10.62488281 16.443125 -10.24976562 15.88625 -9.86328125 15.3125 C-6.47873126 10.26551362 -3.18638454 5.17435011 0 0 Z " fill="#1B7EC0" transform="translate(92,58)"/>
	

	<path d="M0 0 C0.66 0.66 1.32 1.32 2 2 C1.525625 2.99 1.05125 3.98 0.5625 5 C-2.67343653 13.62916408 -3.40997582 25.40093053 0 34 C1.50939705 36.69049023 3.08187643 39.30835448 4.7578125 41.8984375 C6 44 6 44 6 46 C4 46.875 4 46.875 1 47 C-3.14673877 44.63723106 -6.35246401 41.97130398 -9 38 C-9.25878906 35.27612305 -9.25878906 35.27612305 -9.265625 32.01171875 C-9.26820312 30.83029297 -9.27078125 29.64886719 -9.2734375 28.43164062 C-9.26570312 27.19607422 -9.25796875 25.96050781 -9.25 24.6875 C-9.25773438 23.46353516 -9.26546875 22.23957031 -9.2734375 20.97851562 C-9.27085938 19.79322266 -9.26828125 18.60792969 -9.265625 17.38671875 C-9.26336914 16.30608154 -9.26111328 15.22544434 -9.25878906 14.11206055 C-8.98108033 10.77248206 -8.27728866 8.09355701 -7 5 C-5.0625 3.8125 -5.0625 3.8125 -3 3 C-1.29078411 1.4587688 -1.29078411 1.4587688 0 0 Z " fill="#304260" transform="translate(9,39)"/>
	

	<path d="M0 0 C2.97 0 5.94 0 9 0 C8.67 2.64 8.34 5.28 8 8 C10.61779964 9.61095362 11.86638683 10.00835082 15 9.8125 C18 10 18 10 20.375 12.5 C20.91125 13.325 21.4475 14.15 22 15 C23.80663373 11.0254058 24.41983075 7.30982872 25 3 C26 2 26 2 27.84765625 1.90234375 C29.8984375 1.93489583 31.94921875 1.96744792 34 2 C33.525625 2.845625 33.05125 3.69125 32.5625 4.5625 C30.83936546 7.92261085 30.83936546 7.92261085 30.5 11.5625 C29.95882149 15.28310225 29.53812433 17.21625074 27 20 C24.17879842 20.88451607 22.02594644 20.9519691 19 21 C18.34 20.34 17.68 19.68 17 19 C16.071875 18.71125 15.14375 18.4225 14.1875 18.125 C7.75211517 15.85368771 2.91117415 10.48916949 -1 5 C-1 2 -1 2 0 0 Z " fill="#D1A534" transform="translate(17,78)"/>
	

	<path d="M0 0 C1.48831242 0.00667405 2.97660807 0.01863442 4.46484375 0.03515625 C5.22345703 0.03966797 5.98207031 0.04417969 6.76367188 0.04882812 C8.64326246 0.06064945 10.52281274 0.07858547 12.40234375 0.09765625 C11.66511926 5.2582277 9.80800895 8.20283416 6.3046875 12.00390625 C-2.01859652 18.0083211 -14.65822831 18.73890967 -24.59765625 18.09765625 C-21.59765625 16.09765625 -21.59765625 16.09765625 -19.6171875 15.16015625 C-12.76920102 11.86342648 -9.00646634 7.17101709 -4.59765625 1.09765625 C-3.59765625 0.09765625 -3.59765625 0.09765625 0 0 Z " fill="#F0CB2F" transform="translate(81.59765625,83.90234375)"/>
	

	<path d="M0 0 C8.30286555 -0.40538403 14.4911785 0.04046476 21.1875 5.4375 C26.25941423 10.05857741 26.25941423 10.05857741 28 12 C28 12.66 28 13.32 28 14 C28.7425 14.268125 29.485 14.53625 30.25 14.8125 C32.89061949 15.95276751 34.85552844 17.09380306 37 19 C37 19.66 37 20.32 37 21 C37.66 21 38.32 21 39 21 C41.32637691 26.79622721 42.43680971 30.86090397 41 37 C40.34 37 39.68 37 39 37 C38.82984375 36.41992188 38.6596875 35.83984375 38.484375 35.2421875 C35.86402077 26.79572653 32.72289229 22.04790877 25.12109375 17.39453125 C23.1220588 16.0802486 21.65950052 14.70547007 20 13 C19.01 12.34 18.02 11.68 17 11 C17 10.34 17 9.68 17 9 C15.35 8.67 13.7 8.34 12 8 C12 7.34 12 6.68 12 6 C11.38511719 5.95101563 10.77023438 5.90203125 10.13671875 5.8515625 C8.92435547 5.73941406 8.92435547 5.73941406 7.6875 5.625 C6.88699219 5.55539063 6.08648437 5.48578125 5.26171875 5.4140625 C3 5 3 5 0 3 C0 2.01 0 1.02 0 0 Z " fill="#2E3035" transform="translate(81,5)"/>
	

	<path d="M0 0 C3.31254078 3.31254078 5.53187542 6.09877083 8 10 C8.5775 10.845625 9.155 11.69125 9.75 12.5625 C11.14340885 15.27964727 11.25804683 16.98945361 11 20 C9.68 20 8.36 20 7 20 C7.2475 21.051875 7.495 22.10375 7.75 23.1875 C8 27 8 27 6.0625 29.9375 C5.0415625 30.9584375 5.0415625 30.9584375 4 32 C4.66 32.99 5.32 33.98 6 35 C9.56769552 35.73606499 9.56769552 35.73606499 13 36 C13.33 36.99 13.66 37.98 14 39 C9.38 39 4.76 39 0 39 C0 26.13 0 13.26 0 0 Z " fill="#858587" transform="translate(0,89)"/>
	

	<path d="M0 0 C8.91 0 17.82 0 27 0 C25.64783271 4.05650187 23.52453181 4.63351518 19.91015625 6.62109375 C17.87482482 7.86390021 17.87482482 7.86390021 17.01953125 9.984375 C15.68372116 12.6252869 14.19672313 13.39847947 11.625 14.8125 C10.85414062 15.25207031 10.08328125 15.69164062 9.2890625 16.14453125 C6.68898395 17.11623296 5.56007809 16.95272312 3 16 C2.86722656 15.26394531 2.73445312 14.52789062 2.59765625 13.76953125 C2.42105469 12.79371094 2.24445313 11.81789063 2.0625 10.8125 C1.88847656 9.84957031 1.71445312 8.88664063 1.53515625 7.89453125 C1.04777524 5.25840475 0.52574867 2.62874333 0 0 Z " fill="#AEADAD" transform="translate(0,0)"/>
	

	<path d="M0 0 C1.01779541 0.00064453 2.03559082 0.00128906 3.08422852 0.00195312 C10.93887389 0.15755278 16.9945725 1.39458129 23.8125 5.5 C21.8125 6.5 21.8125 6.5 20.04296875 5.94140625 C19.36878906 5.65136719 18.69460937 5.36132812 18 5.0625 C14.78984752 3.7761001 12.31498786 3.17164176 8.8125 3.5 C9.451875 3.768125 10.09125 4.03625 10.75 4.3125 C12.8125 5.5 12.8125 5.5 13.8125 8.5 C12.20375 8.005 12.20375 8.005 10.5625 7.5 C1.65382089 5.30830726 -6.76891929 5.92848091 -15.1875 9.5 C-15.5175 11.48 -15.8475 13.46 -16.1875 15.5 C-16.55875 15.025625 -16.93 14.55125 -17.3125 14.0625 C-19.81396962 11.97794198 -22.00343418 11.85378509 -25.1875 11.5 C-25.27 12.428125 -25.3525 13.35625 -25.4375 14.3125 C-26.1875 17.5 -26.1875 17.5 -28.125 19.375 C-30.1875 20.5 -30.1875 20.5 -32.1875 20.5 C-32.484375 18.25390625 -32.484375 18.25390625 -32.1875 15.5 C-30.140625 13.40234375 -30.140625 13.40234375 -27.4375 11.4375 C-23.66298973 8.66922188 -23.66298973 8.66922188 -20.296875 5.44140625 C-14.34219494 -0.03910484 -7.70689495 -0.04515391 0 0 Z " fill="#D9933A" transform="translate(50.1875,24.5)"/>
	

	<path d="M0 0 C3.96 0.33 7.92 0.66 12 1 C7.64467851 3.17766075 6.53374042 3.03039555 2 2 C3.81215318 4.19365912 4.62550957 4.94382644 7.5 5.375 C10 6 10 6 11.625 8.375 C12.07875 9.24125 12.5325 10.1075 13 11 C14.58245275 12.75149165 14.58245275 12.75149165 16 14 C15.01 14.495 15.01 14.495 14 15 C14.33 17.64 14.66 20.28 15 23 C12.58959839 24.53690745 11.49917715 25.09752136 8.640625 24.5390625 C7.85171875 24.23742187 7.0628125 23.93578125 6.25 23.625 C5.45078125 23.32851562 4.6515625 23.03203125 3.828125 22.7265625 C2.92320313 22.36691406 2.92320313 22.36691406 2 22 C2.33 20.35 2.66 18.7 3 17 C5.31 16.34 7.62 15.68 10 15 C9.67 13.68 9.34 12.36 9 11 C1.08 11.495 1.08 11.495 -7 12 C-7.33 10.68 -7.66 9.36 -8 8 C-6.8553125 7.4121875 -6.8553125 7.4121875 -5.6875 6.8125 C-2.47224953 4.91988333 -2.47224953 4.91988333 0 0 Z " fill="#DD5F62" transform="translate(26,64)"/>
	

	<path d="M0 0 C0.99 0 1.98 0 3 0 C3 6.6 3 13.2 3 20 C-4.92 20 -12.84 20 -21 20 C-21 19.34 -21 18.68 -21 18 C-20.10796875 17.69707031 -19.2159375 17.39414063 -18.296875 17.08203125 C-17.12640625 16.66308594 -15.9559375 16.24414062 -14.75 15.8125 C-13.58984375 15.40644531 -12.4296875 15.00039062 -11.234375 14.58203125 C-6.29324035 12.16517191 -4.05558273 8.54569218 -1.75 3.6875 C-1.24726562 2.64142578 -1.24726562 2.64142578 -0.734375 1.57421875 C-0.49203125 1.05472656 -0.2496875 0.53523438 0 0 Z " fill="#FBFBFB" transform="translate(125,108)"/>
	

	<path d="M0 0 C2.61580453 0.46710795 3.8992964 0.91229041 5.9375 2.6875 C6.618125 3.120625 7.29875 3.55375 8 4 C10.52869082 3.15521502 10.52869082 3.15521502 13 2 C15.17621767 2.32972995 16.9972286 2.99899222 19.0625 3.75 C19.701875 3.8325 20.34125 3.915 21 4 C21.40992187 3.48695312 21.81984375 2.97390625 22.2421875 2.4453125 C24 1 24 1 26.84765625 1.2578125 C27.90855469 1.54398438 28.96945313 1.83015625 30.0625 2.125 C31.12597656 2.39570312 32.18945312 2.66640625 33.28515625 2.9453125 C36 4 36 4 38 7 C37 8 37 8 33.6875 8.125 C30 8 30 8 27.875 7.375 C25.8958133 6.79775524 25.8958133 6.79775524 23.75 7.9375 C20.71602999 9.10971569 18.22886648 9.09569829 15.00390625 9.00390625 C12.26854901 8.99857417 9.67574584 9.46485083 7 10 C6.67 9.34 6.34 8.68 6 8 C3.36 8 0.72 8 -2 8 C-2.6875 6.25 -2.6875 6.25 -3 4 C-1.5625 1.75 -1.5625 1.75 0 0 Z " fill="#E5A261" transform="translate(15,46)"/>
	

	<path d="M0 0 C2.66313628 2.05787803 3.07337849 3.26599702 4 6.625 C4.33 7.73875 4.66 8.8525 5 10 C5.99 10.33 6.98 10.66 8 11 C8.69658363 12.65438613 9.36096883 14.32254318 10 16 C10.98095748 17.01868662 11.97702078 18.02351983 13 19 C13 19.66 13 20.32 13 21 C14.32 21.66 15.64 22.32 17 23 C17 23.66 17 24.32 17 25 C18.65 25.66 20.3 26.32 22 27 C22 27.66 22 28.32 22 29 C22.78375 29.28875 23.5675 29.5775 24.375 29.875 C27 31 27 31 29 33 C30.98356483 33.71408334 32.98315437 34.38617742 35 35 C35 35.66 35 36.32 35 37 C33 37.8125 33 37.8125 30 38 C27.13086863 36.63578615 24.61068721 34.7993219 22 33 C19.82875225 31.69429224 17.65049581 30.40135041 15.46875 29.11328125 C14.74171875 28.56220703 14.74171875 28.56220703 14 28 C14 27.34 14 26.68 14 26 C13.34 26 12.68 26 12 26 C-0.18074153 11.65730867 -0.18074153 11.65730867 -0.25 3 C-0.1675 2.01 -0.085 1.02 0 0 Z " fill="#292C32" transform="translate(5,85)"/>
	

	<path d="M0 0 C0.61327148 0.51933105 1.22654297 1.03866211 1.85839844 1.57373047 C3.34731973 2.89421593 4.74529688 4.31577974 6.125 5.75 C6.125 6.74 6.125 7.73 6.125 8.75 C5.0421875 7.6053125 5.0421875 7.6053125 3.9375 6.4375 C1.37526947 3.98914638 -0.82667688 2.49189892 -3.875 0.75 C-5.15681573 -0.08759566 -6.42727071 -0.94276429 -7.6875 -1.8125 C-8.29207031 -2.22628906 -8.89664063 -2.64007813 -9.51953125 -3.06640625 C-9.96683594 -3.45699219 -10.41414063 -3.84757812 -10.875 -4.25 C-10.875 -4.91 -10.875 -5.57 -10.875 -6.25 C-11.60976562 -6.53617188 -12.34453125 -6.82234375 -13.1015625 -7.1171875 C-15.875 -8.25 -15.875 -8.25 -17.9609375 -9.3203125 C-24.81479684 -12.47823404 -31.39447297 -12.62384795 -38.8125 -12.625 C-39.8319873 -12.6264502 -40.85147461 -12.62790039 -41.90185547 -12.62939453 C-46.57017666 -12.56034341 -49.71410178 -12.42510127 -53.875 -10.25 C-54.865 -10.25 -55.855 -10.25 -56.875 -10.25 C-57.12636719 -9.651875 -57.37773438 -9.05375 -57.63671875 -8.4375 C-59.03967147 -5.95909773 -60.37131138 -4.87974649 -62.6875 -3.25 C-63.40164062 -2.73566406 -64.11578125 -2.22132812 -64.8515625 -1.69140625 C-65.51929688 -1.21574219 -66.18703125 -0.74007812 -66.875 -0.25 C-70.48816566 2.52289458 -73.69927695 5.483542 -76.875 8.75 C-72.81801278 -0.09790178 -66.25269401 -6.52090918 -57.875 -11.25 C-56.864375 -11.848125 -55.85375 -12.44625 -54.8125 -13.0625 C-35.69042427 -20.79270083 -14.72552401 -12.49518452 0 0 Z " fill="#998138" transform="translate(88.875,38.25)"/>
	

	<path d="M0 0 C0.90492187 0.02320313 1.80984375 0.04640625 2.7421875 0.0703125 C3.65226562 0.08835937 4.56234375 0.10640625 5.5 0.125 C6.19867187 0.14820313 6.89734375 0.17140625 7.6171875 0.1953125 C7.2871875 1.5153125 6.9571875 2.8353125 6.6171875 4.1953125 C5.6684375 4.2778125 4.7196875 4.3603125 3.7421875 4.4453125 C2.7109375 4.6928125 1.6796875 4.9403125 0.6171875 5.1953125 C-0.44997954 6.99463829 -0.44997954 6.99463829 -1.3828125 9.1953125 C-2.83594188 10.4546913 -4.29285316 11.71103582 -5.79296875 12.9140625 C-10.35025197 16.58676249 -12.91543809 19.45921255 -14.3828125 25.1953125 C-15.3728125 25.1953125 -16.3628125 25.1953125 -17.3828125 25.1953125 C-17.76746655 20.20220703 -16.85145784 17.55787498 -14.1328125 13.3828125 C-13.52953125 12.42761719 -12.92625 11.47242188 -12.3046875 10.48828125 C-10.22053267 8.00169815 -9.44600676 7.74277701 -6.3828125 7.1953125 C-5.21327834 4.77148173 -5.21327834 4.77148173 -4.3828125 2.1953125 C-2.3828125 0.1953125 -2.3828125 0.1953125 0 0 Z " fill="#2E3035" transform="translate(22.3828125,4.8046875)"/>
	

	

	

	<path d="M0 0 C4 7.71428571 4 7.71428571 4 12 C4.928125 11.484375 5.85625 10.96875 6.8125 10.4375 C10 9 10 9 13 10 C11.68 10.33 10.36 10.66 9 11 C9.33 11.99 9.66 12.98 10 14 C11.13179687 13.90460938 12.26359375 13.80921875 13.4296875 13.7109375 C14.91141612 13.59840115 16.39318945 13.48645242 17.875 13.375 C18.62136719 13.31054688 19.36773438 13.24609375 20.13671875 13.1796875 C22.0870047 13.03912635 24.04469467 13.01240151 26 13 C26.66 13.66 27.32 14.32 28 15 C27.625 17.125 27.625 17.125 27 19 C24.69 19.66 22.38 20.32 20 21 C20 22.32 20 23.64 20 25 C21.98 25.33 23.96 25.66 26 26 C23 28 23 28 21 27.75 C19 27 19 27 16 25 C16.33 22.36 16.66 19.72 17 17 C14.03 17 11.06 17 8 17 C7.67 17.99 7.34 18.98 7 20 C-0.68283582 7.28358209 -0.68283582 7.28358209 0 0 Z " fill="#D9923D" transform="translate(9,61)"/>
	

	

	<path d="M0 0 C0.33 1.32 0.66 2.64 1 4 C0.34 4 -0.32 4 -1 4 C-1.28875 4.598125 -1.5775 5.19625 -1.875 5.8125 C-3 8 -3 8 -5 11 C-7.01578108 16.88807133 -7.01578108 16.88807133 -7 23 C-5.0995533 24.84315671 -5.0995533 24.84315671 -3 26 C-4.98 25.67 -6.96 25.34 -9 25 C-10.74643954 19.27114908 -10.09705091 13.19410181 -7.4375 7.875 C-6.963125 7.25625 -6.48875 6.6375 -6 6 C-8.31 6 -10.62 6 -13 6 C-13.12117188 6.60328125 -13.24234375 7.2065625 -13.3671875 7.828125 C-13.61855469 9.02695313 -13.61855469 9.02695313 -13.875 10.25 C-14.03742187 11.03890625 -14.19984375 11.8278125 -14.3671875 12.640625 C-14.99150075 14.96831144 -15.84838542 16.89031952 -17 19 C-19.7839183 17.60804085 -19.97898997 15.84424221 -21 13 C-19.35 12.67 -17.7 12.34 -16 12 C-16.33 9.36 -16.66 6.72 -17 4 C-12.0251208 0.68341387 -5.96431647 -0.38479461 0 0 Z " fill="#DA9641" transform="translate(56,75)"/>
	

	<path d="M0 0 C16.17 0 32.34 0 49 0 C49 1.32 49 2.64 49 4 C46.62468606 4.0543965 44.25064117 4.09385864 41.875 4.125 C41.20984375 4.14175781 40.5446875 4.15851562 39.859375 4.17578125 C35.46087621 4.21890379 32.11525655 3.45244349 28 2 C25.19940261 1.68871676 25.19940261 1.68871676 22.4375 1.75 C21.07431641 1.74226562 21.07431641 1.74226562 19.68359375 1.734375 C16.97284 1.87448459 16.97284 1.87448459 14.5234375 3.0078125 C11.57580228 4.16678981 9.34082567 4.20098375 6.1875 4.125 C4.72376953 4.09792969 4.72376953 4.09792969 3.23046875 4.0703125 C2.49441406 4.04710937 1.75835937 4.02390625 1 4 C0.67 2.68 0.34 1.36 0 0 Z " fill="#292C32" transform="translate(31,0)"/>
	

	

	<path d="M0 0 C1.18851563 0.00902344 2.37703125 0.01804688 3.6015625 0.02734375 C4.51679687 0.03894531 5.43203125 0.05054688 6.375 0.0625 C5.055 1.0525 3.735 2.0425 2.375 3.0625 C3.695 4.7125 5.015 6.3625 6.375 8.0625 C5.5392041 7.82478882 5.5392041 7.82478882 4.68652344 7.58227539 C2.21622989 7.02679853 -0.08053604 6.854032 -2.609375 6.74609375 C-3.54394531 6.70419922 -4.47851562 6.66230469 -5.44140625 6.61914062 C-6.40949219 6.57982422 -7.37757812 6.54050781 -8.375 6.5 C-9.35855469 6.45681641 -10.34210937 6.41363281 -11.35546875 6.36914062 C-13.77851275 6.26327948 -16.2016554 6.16119829 -18.625 6.0625 C-18.625 4.7425 -18.625 3.4225 -18.625 2.0625 C-15.23582427 1.0196767 -12.15096847 1.0625 -8.625 1.0625 C-5.74084117 -0.37957941 -3.20778472 -0.03144887 0 0 Z " fill="#DD5E61" transform="translate(34.625,53.9375)"/>
	

	<path d="M0 0 C6.93 0.495 6.93 0.495 14 1 C13 7 13 7 11.22265625 8.6796875 C10.50980469 9.07414062 9.79695313 9.46859375 9.0625 9.875 C8.35222656 10.28492187 7.64195313 10.69484375 6.91015625 11.1171875 C5 12 5 12 3 12 C2.49166409 10.75336669 1.99368855 9.50250613 1.5 8.25 C1.2215625 7.55390625 0.943125 6.8578125 0.65625 6.140625 C0 4 0 4 0 0 Z " fill="#EEC82F" transform="translate(10,61)"/>
	

	<path d="M0 0 C0.99 0 1.98 0 3 0 C1.54068806 4.13471717 -0.52420864 7.3924183 -3 11 C-3.94967402 12.38757926 -4.886934 13.7837249 -5.8125 15.1875 C-6.47185547 16.16783203 -6.47185547 16.16783203 -7.14453125 17.16796875 C-8.32955629 19.1578546 -8.32955629 19.1578546 -7 22 C-2.05 22.33 2.9 22.66 8 23 C8 23.66 8 24.32 8 25 C5.4374282 25.02710123 2.87514635 25.04688771 0.3125 25.0625 C-0.40873047 25.07087891 -1.12996094 25.07925781 -1.87304688 25.08789062 C-5.71555382 25.10543632 -9.26639526 24.93524221 -13 24 C-12.51720006 18.88626188 -9.92581315 15.52163671 -7.0625 11.4375 C-6.1555026 10.12511196 -5.2504901 8.8113495 -4.34765625 7.49609375 C-3.74449585 6.63262329 -3.74449585 6.63262329 -3.12915039 5.75170898 C-1.93184322 3.89426489 -0.95399083 1.99178 0 0 Z " fill="#6F7273" transform="translate(90,56)"/>
	

	

	<path d="M0 0 C2.05078125 0.03255208 4.1015625 0.06510417 6.15234375 0.09765625 C5.67796875 0.94328125 5.20359375 1.78890625 4.71484375 2.66015625 C2.99170921 6.0202671 2.99170921 6.0202671 2.65234375 9.66015625 C2.12179105 13.30770608 1.58786345 15.32620279 -0.84765625 18.09765625 C-4.03515625 18.41015625 -4.03515625 18.41015625 -6.84765625 18.09765625 C-6.84765625 17.43765625 -6.84765625 16.77765625 -6.84765625 16.09765625 C-5.52765625 15.76765625 -4.20765625 15.43765625 -2.84765625 15.09765625 C-2.65138234 13.5153866 -2.46600087 11.93176354 -2.28515625 10.34765625 C-2.18074219 9.4659375 -2.07632813 8.58421875 -1.96875 7.67578125 C-1.85280097 5.20718906 -2.21536277 3.45680168 -2.84765625 1.09765625 C-1.84765625 0.09765625 -1.84765625 0.09765625 0 0 Z " fill="#F0CB2F" transform="translate(44.84765625,79.90234375)"/>
	

	<path d="M0 0 C6.27 0 12.54 0 19 0 C17.64783271 4.05650187 15.52453181 4.63351518 11.91015625 6.62109375 C9.71725055 8.20411157 9.12385047 9.58746765 8 12 C5.875 12.75 5.875 12.75 4 13 C4.515625 12.236875 5.03125 11.47375 5.5625 10.6875 C6.036875 9.800625 6.51125 8.91375 7 8 C6.27731765 4.7014861 6.27731765 4.7014861 2.9375 3.3125 C1.968125 2.879375 0.99875 2.44625 0 2 C0 1.34 0 0.68 0 0 Z " fill="#A6A5A5" transform="translate(8,0)"/>
	

	<path d="M0 0 C1.98 0.99 1.98 0.99 4 2 C4 2.99 4 3.98 4 5 C4.66 5 5.32 5 6 5 C6.43699219 5.8353125 6.43699219 5.8353125 6.8828125 6.6875 C9.52001155 11.59700264 12.37539294 16.02221538 15.86328125 20.37109375 C17 22 17 22 17 24 C17.66 24 18.32 24 19 24 C19.66 24.99 20.32 25.98 21 27 C22.98077953 28.03755118 24.98529902 29.02995879 27 30 C28.47047407 30.83309232 29.92872659 31.68806874 31.375 32.5625 C32.06335937 32.97628906 32.75171875 33.39007813 33.4609375 33.81640625 C33.96882813 34.20699219 34.47671875 34.59757812 35 35 C35 35.66 35 36.32 35 37 C30.96443357 36.37914363 28.28828431 34.33974076 25 32 C24.08541016 31.40058594 24.08541016 31.40058594 23.15234375 30.7890625 C15.09458596 25.24635038 9.25176553 17.73974026 5 9 C4.13743962 7.72681229 3.24594552 6.4721689 2.3125 5.25 C0 2 0 2 0 0 Z " fill="#4F4D47" transform="translate(0,87)"/>
	

	<path d="M0 0 C3 0 3 0 5.5625 2.4375 C6.366875 3.283125 7.17125 4.12875 8 5 C8.66 5.33 9.32 5.66 10 6 C9.6875 7.9375 9.6875 7.9375 9 10 C6.24921116 10.91692961 4.64051087 11.10886083 1.8125 11.0625 C-0.0746875 11.0315625 -0.0746875 11.0315625 -2 11 C-2.625 8.6875 -2.625 8.6875 -3 6 C-2.34 5.01 -1.68 4.02 -1 3 C-0.67 2.01 -0.34 1.02 0 0 Z " fill="#DD5D63" transform="translate(27,38)"/>
	

	<path d="M0 0 C1.39456452 0.00667256 2.78911118 0.01863093 4.18359375 0.03515625 C4.89451172 0.03966797 5.60542969 0.04417969 6.33789062 0.04882812 C8.09899388 0.06064761 9.86005411 0.07858362 11.62109375 0.09765625 C11.62109375 2.07765625 11.62109375 4.05765625 11.62109375 6.09765625 C6.67109375 5.76765625 1.72109375 5.43765625 -3.37890625 5.09765625 C-3.70890625 3.77765625 -4.03890625 2.45765625 -4.37890625 1.09765625 C-3.37890625 0.09765625 -3.37890625 0.09765625 0 0 Z " fill="#5B574C" transform="translate(116.37890625,62.90234375)"/>
	

	<path d="M0 0 C0.80566406 0.00322266 1.61132812 0.00644531 2.44140625 0.00976562 C3.70404297 0.02233398 3.70404297 0.02233398 4.9921875 0.03515625 C6.26642578 0.04192383 6.26642578 0.04192383 7.56640625 0.04882812 C9.66669659 0.06062751 11.7669508 0.07856319 13.8671875 0.09765625 C13.45394751 5.45665739 12.54773487 8.17328198 8.8046875 12.03515625 C8.07121094 12.80730469 7.33773437 13.57945313 6.58203125 14.375 C6.01613281 14.94347656 5.45023438 15.51195313 4.8671875 16.09765625 C4.2071875 15.76765625 3.5471875 15.43765625 2.8671875 15.09765625 C3.43308594 14.494375 3.99898437 13.89109375 4.58203125 13.26953125 C5.31550781 12.4703125 6.04898438 11.67109375 6.8046875 10.84765625 C7.53558594 10.05875 8.26648438 9.26984375 9.01953125 8.45703125 C10.78139293 6.20721211 11.46495353 4.88137071 11.8671875 2.09765625 C1.81571379 1.42580124 1.81571379 1.42580124 -6.9765625 5.390625 C-8.91611335 7.88182347 -10.60859734 10.33501627 -12.1328125 13.09765625 C-12.1328125 9.50980664 -11.24895428 8.39744346 -9.2578125 5.47265625 C-8.72414063 4.67601563 -8.19046875 3.879375 -7.640625 3.05859375 C-5.31526522 0.03442118 -3.63577157 -0.02560403 0 0 Z " fill="#D9A833" transform="translate(82.1328125,81.90234375)"/>
	

	<path d="M0 0 C6.70212766 1.93617021 6.70212766 1.93617021 9 5 C9 5.66 9 6.32 9 7 C9.556875 7.20625 10.11375 7.4125 10.6875 7.625 C13 9 13 9 14.9375 11.75 C19.3854064 17.4427607 28.0753359 20.56088888 35 22 C34.505 20.8553125 34.505 20.8553125 34 19.6875 C33 17 33 17 33 14 C34.5 15.125 34.5 15.125 36 17 C36.1875 20.1875 36.1875 20.1875 36 23 C34.56344146 23.08131463 33.1255517 23.13933559 31.6875 23.1875 C30.48673828 23.23970703 30.48673828 23.23970703 29.26171875 23.29296875 C26.46989982 22.93133417 25.84058015 22.04565872 24 20 C22.96875 19.62875 21.9375 19.2575 20.875 18.875 C15.46251785 16.7260952 11.90127436 12.16087857 8 8 C6.67155062 6.66180054 5.33891206 5.32773117 4 4 C2.66666667 2.66666667 1.33333333 1.33333333 0 0 Z " fill="#C57D40" transform="translate(64,33)"/>
	

	<path d="M0 0 C0.99 0 1.98 0 3 0 C2.71769531 0.55558594 2.43539062 1.11117187 2.14453125 1.68359375 C1.36273811 3.26585768 0.61127542 4.86337775 -0.11328125 6.47265625 C-4.06253591 15.00150263 -4.06253591 15.00150263 -9 17 C-10.155 17.556875 -11.31 18.11375 -12.5 18.6875 C-15.69030398 19.88386399 -17.65720611 20.30389035 -21 20 C-21 19.34 -21 18.68 -21 18 C-20.10796875 17.69707031 -19.2159375 17.39414063 -18.296875 17.08203125 C-17.12640625 16.66308594 -15.9559375 16.24414062 -14.75 15.8125 C-13.58984375 15.40644531 -12.4296875 15.00039062 -11.234375 14.58203125 C-6.29324035 12.16517191 -4.05558273 8.54569218 -1.75 3.6875 C-1.24726562 2.64142578 -1.24726562 2.64142578 -0.734375 1.57421875 C-0.49203125 1.05472656 -0.2496875 0.53523438 0 0 Z " fill="#C4C4C1" transform="translate(125,108)"/>
	

	<path d="M0 0 C1.05445313 -0.01417969 2.10890625 -0.02835938 3.1953125 -0.04296875 C5.875 0.1875 5.875 0.1875 7.875 2.1875 C7.23433594 2.17589844 6.59367187 2.16429688 5.93359375 2.15234375 C0.78846778 2.09866881 -4.05524924 2.30580422 -9.125 3.1875 C-8.795 3.5175 -8.465 3.8475 -8.125 4.1875 C-7.34125 4.125625 -6.5575 4.06375 -5.75 4 C-4.450625 4.0928125 -4.450625 4.0928125 -3.125 4.1875 C-2.650625 4.8475 -2.17625 5.5075 -1.6875 6.1875 C-0.9140625 7.1775 -0.9140625 7.1775 -0.125 8.1875 C3.00086875 8.52147787 3.00086875 8.52147787 5.875 8.1875 C6.535 9.5075 7.195 10.8275 7.875 12.1875 C0.49038462 11.81826923 0.49038462 11.81826923 -2.625 8.625 C-3.3675 7.4184375 -3.3675 7.4184375 -4.125 6.1875 C-7.095 6.8475 -10.065 7.5075 -13.125 8.1875 C-13.455 6.8675 -13.785 5.5475 -14.125 4.1875 C-9.50699636 0.39413987 -5.90830682 0.03629181 0 0 Z " fill="#DA404B" transform="translate(50.125,29.8125)"/>
	

	<path d="M0 0 C2.40757998 1.03181999 3.97782494 1.97706028 5.8125 3.875 C8.00324982 6.20752517 8.00324982 6.20752517 11.375 7.75 C15.75114972 10.11293181 18.49560639 13.76179543 21 18 C21 18.66 21 19.32 21 20 C21.99 20.33 22.98 20.66 24 21 C24 23.31 24 25.62 24 28 C19.67385754 24.12138952 17.10209571 19.7308977 16 14 C15.34 14 14.68 14 14 14 C12.33333333 12.33333333 10.66666667 10.66666667 9 9 C8.34 8.690625 7.68 8.38125 7 8.0625 C3.84402477 6.38588816 2.16277017 3.82361661 0 1 C0 0.67 0 0.34 0 0 Z " fill="#929293" transform="translate(104,12)"/>
	

	<path d="M0 0 C5.28 0 10.56 0 16 0 C16.33 1.32 16.66 2.64 17 4 C13.7961883 4.61024985 11.07906546 5.00620121 7.8125 4.75 C6.884375 4.8325 5.95625 4.915 5 5 C3.0645852 7.39056942 3.0645852 7.39056942 2 10 C1.34 9.67 0.68 9.34 0 9 C0.33 8.401875 0.66 7.80375 1 7.1875 C2.20787988 4.94613529 2.20787988 4.94613529 2 2 C1.34 1.34 0.68 0.68 0 0 Z " fill="#E5A261" transform="translate(21,60)"/>
	

	<path d="M0 0 C0.99 0.495 0.99 0.495 2 1 C2.6328125 3.50390625 2.6328125 3.50390625 3.125 6.5625 C3.29257812 7.57441406 3.46015625 8.58632812 3.6328125 9.62890625 C3.75398437 10.41136719 3.87515625 11.19382812 4 12 C7.465 11.505 7.465 11.505 11 11 C9.33333333 12.66666667 7.66666667 14.33333333 6 16 C5.278125 16.763125 4.55625 17.52625 3.8125 18.3125 C2 20 2 20 0 20 C0 13.4 0 6.8 0 0 Z " fill="#868588" transform="translate(0,4)"/>
	

	

	<path d="M0 0 C0.74507812 0.00902344 1.49015625 0.01804687 2.2578125 0.02734375 C4.08868059 0.05081642 5.91938238 0.08668475 7.75 0.125 C7.42 1.115 7.09 2.105 6.75 3.125 C2.13 3.785 -2.49 4.445 -7.25 5.125 C-7.25 5.785 -7.25 6.445 -7.25 7.125 C-8.57 6.795 -9.89 6.465 -11.25 6.125 C-9.6 5.135 -7.95 4.145 -6.25 3.125 C-10.705 3.62 -10.705 3.62 -15.25 4.125 C-14.26 3.465 -13.27 2.805 -12.25 2.125 C-11.69828125 1.75632812 -11.1465625 1.38765625 -10.578125 1.0078125 C-7.10321788 -0.30985362 -3.6592639 -0.0840467 0 0 Z " fill="#DBA933" transform="translate(47.25,24.875)"/>
	

	<path d="M0 0 C0.99 1.485 0.99 1.485 2 3 C4.58380177 3.25030977 4.58380177 3.25030977 7 3 C7 4.32 7 5.64 7 7 C4.35901246 8.76065836 3.0257345 9.52722899 0 10 C-0.99 9.67 -1.98 9.34 -3 9 C-2.67 6.36 -2.34 3.72 -2 1 C-4.31 1 -6.62 1 -9 1 C-8 -1 -8 -1 -6.1875 -1.75 C-3.42893541 -2.06526452 -2.29167839 -1.5277856 0 0 Z " fill="#DD5A60" transform="translate(48,37)"/>
	

	<path d="M0 0 C0 1.32 0 2.64 0 4 C-2 6 -2 6 -4.3828125 6.1953125 C-5.28773437 6.17210938 -6.19265625 6.14890625 -7.125 6.125 C-8.49011719 6.09792969 -8.49011719 6.09792969 -9.8828125 6.0703125 C-10.58148438 6.04710938 -11.28015625 6.02390625 -12 6 C-12.33 5.34 -12.66 4.68 -13 4 C-8.74504132 -0.44836589 -5.9812469 -0.09647172 0 0 Z " fill="#F0CB2F" transform="translate(54,62)"/>
	

	<path d="M0 0 C5.625 -0.25 5.625 -0.25 9 2 C8.8125 3.8125 8.8125 3.8125 8 6 C5.625 7.8125 5.625 7.8125 3 9 C2.01 8.67 1.02 8.34 0 8 C-1.125 2.25 -1.125 2.25 0 0 Z " fill="#F9F9F9" transform="translate(6,5)"/>
	

	<path d="M0 0 C4.71590568 0.41610932 8.03624022 2.59065582 12 5 C12 5.33 12 5.66 12 6 C6.06 6 0.12 6 -6 6 C-4 4 -2 2 0 0 Z " fill="#88878A" transform="translate(25,122)"/>
	

	<path d="M0 0 C0 0.99 0 1.98 0 3 C-0.99 3.33 -1.98 3.66 -3 4 C-4.35746273 6.22074088 -4.35746273 6.22074088 -5.5 8.875 C-7.57079195 13.42808743 -8.97015329 16.09818103 -13.62890625 18.16796875 C-14.59699219 18.50441406 -15.56507812 18.84085938 -16.5625 19.1875 C-17.53316406 19.53167969 -18.50382812 19.87585938 -19.50390625 20.23046875 C-22 21 -22 21 -24 21 C-24 21.66 -24 22.32 -24 23 C-25.32 23 -26.64 23 -28 23 C-27 20 -27 20 -24.92578125 18.90234375 C-24.06339844 18.58394531 -23.20101562 18.26554687 -22.3125 17.9375 C-21.40757813 17.59074219 -20.50265625 17.24398437 -19.5703125 16.88671875 C-17 16 -17 16 -13.6875 15.25 C-8.13706064 12.6684003 -6.13610778 6.42242743 -4 1 C-2 0 -2 0 0 0 Z " fill="#838385" transform="translate(128,105)"/>
	

	<path d="M0 0 C1 2 1 2 0.4375 3.8125 C-0.14549374 6.72746869 0.75461367 8.3627113 2 11 C1.484375 11.33 0.96875 11.66 0.4375 12 C-1.47407671 14.65958498 -1.10432514 16.58953361 -0.59765625 19.734375 C0.28066575 23.06396165 1.70860062 26.0508164 3.2578125 29.1171875 C3.50273437 29.73851563 3.74765625 30.35984375 4 31 C3.67 31.66 3.34 32.32 3 33 C-1.79272675 27.29437291 -4.26568015 20.46238397 -3.90234375 12.9921875 C-2.84089703 2.84089703 -2.84089703 2.84089703 0 0 Z " fill="#998138" transform="translate(11,47)"/>
	

	<path d="M0 0 C3.86933162 0.57323431 6.15222057 2.38953552 9 5 C9 5.66 9 6.32 9 7 C5.37 7.33 1.74 7.66 -2 8 C-2.33 6.68 -2.66 5.36 -3 4 C-1.5625 1.75 -1.5625 1.75 0 0 Z " fill="#F0CB2F" transform="translate(15,46)"/>
	

	<path d="M0 0 C0.33 0.66 0.66 1.32 1 2 C8.26 2.33 15.52 2.66 23 3 C21.35613101 9.57547594 18.40272631 14.00231067 14 19 C13.34 18.67 12.68 18.34 12 18 C12.40992187 17.57589844 12.81984375 17.15179688 13.2421875 16.71484375 C13.78101562 16.12832031 14.31984375 15.54179688 14.875 14.9375 C15.40867187 14.36902344 15.94234375 13.80054687 16.4921875 13.21484375 C18.56013194 10.42638939 18.56013194 10.42638939 20 4 C9.605 4.495 9.605 4.495 -1 5 C-0.67 3.35 -0.34 1.7 0 0 Z " fill="#998138" transform="translate(76,78)"/>
	

	

	<path d="M0 0 C2.97 0 5.94 0 9 0 C9 4 9 8 9 12 C7.49105554 10.57189185 5.99307655 9.13218981 4.5 7.6875 C3.6646875 6.88699219 2.829375 6.08648437 1.96875 5.26171875 C0 3 0 3 0 0 Z " fill="#F0CB2F" transform="translate(17,78)"/>
	

	<path d="M0 0 C3.23087421 0.55704728 5.02361137 1.33187535 7 4 C7 5.32 7 6.64 7 8 C6.34 8 5.68 8 5 8 C5.020625 8.804375 5.04125 9.60875 5.0625 10.4375 C5 13 5 13 4 14 C1.32941149 14.14115161 -1.32432238 14.04247107 -4 14 C-4.33 13.34 -4.66 12.68 -5 12 C-2.36 12.33 0.28 12.66 3 13 C2.5359375 11.453125 2.5359375 11.453125 2.0625 9.875 C1.12497188 6.61027443 0.49227298 3.36386538 0 0 Z " fill="#404955" transform="translate(97,43)"/>
	

	<path d="M0 0 C3.91211733 1.15585285 6.8745041 2.35534962 10 5 C9.67 5.66 9.34 6.32 9 7 C8.01 6.34 7.02 5.68 6 5 C4.0103005 4.60986284 2.00980131 4.26797351 0 4 C-0.20970559 8.14093698 -0.20970559 8.14093698 1 12 C2.98 11.34 4.96 10.68 7 10 C6.34 11.32 5.68 12.64 5 14 C3.02 14 1.04 14 -1 14 C-2.58493084 10.83013832 -2.2940042 7.45967739 -2 4 C-1 1.5 -1 1.5 0 0 Z " fill="#D5D6D2" transform="translate(6,1)"/>
	

	<path d="M0 0 C2.64 0 5.28 0 8 0 C8.66 1.98 9.32 3.96 10 6 C8.02 6.99 8.02 6.99 6 8 C5.5875 7.525625 5.175 7.05125 4.75 6.5625 C2.817815 4.83733482 1.51807725 4.43415125 -1 4 C-0.67 2.68 -0.34 1.36 0 0 Z " fill="#DB3D48" transform="translate(31,81)"/>
	

	<path d="M0 0 C1.79398884 0.25499841 3.58520875 0.52953814 5.375 0.8125 C6.87160156 1.03873047 6.87160156 1.03873047 8.3984375 1.26953125 C11 2 11 2 13 5 C12 6 12 6 8.8125 6.25 C4.77412943 5.98518881 2.45843529 5.02444992 -1 3 C-0.67 2.01 -0.34 1.02 0 0 Z " fill="#F0CB2F" transform="translate(40,48)"/>
	

	<path d="M0 0 C0.78375 0.04125 1.5675 0.0825 2.375 0.125 C2.705 1.775 3.035 3.425 3.375 5.125 C0.31382432 7.74886487 -0.35673127 8.125 -4.625 8.125 C-4.75 5.25 -4.75 5.25 -4.625 2.125 C-2.625 0.125 -2.625 0.125 0 0 Z " fill="#DCA976" transform="translate(43.625,36.875)"/>
	

	

	<path d="M0 0 C7.09546722 1.98013039 10.92694998 5.74347096 15.5078125 11.25 C17.54674976 13.64121437 19.74586893 15.8121669 22 18 C15.56524172 16.74443741 12.93583126 12.81354011 9 8 C6.167945 4.97035977 3.8652758 2.57474199 0 1 C0 0.67 0 0.34 0 0 Z " fill="#D9A734" transform="translate(66,33)"/>
	

	<path d="M0 0 C0.99 0 1.98 0 3 0 C1.54301636 4.1281203 -0.50926236 7.41040752 -3 11 C-3.680625 12.093125 -4.36125 13.18625 -5.0625 14.3125 C-7 17 -7 17 -10 18 C-8.57989987 14.08223634 -6.7145562 10.79701397 -4.4375 7.3125 C-2.07724372 3.73715059 -2.07724372 3.73715059 0 0 Z " fill="#878689" transform="translate(90,56)"/>
	

	<path d="M0 0 C0.66 0 1.32 0 2 0 C2.33 0.66 2.66 1.32 3 2 C4.3921875 2.2165625 4.3921875 2.2165625 5.8125 2.4375 C9.16531214 3.02917273 10.69396605 3.51657882 13 6 C13.4375 8.5625 13.4375 8.5625 13 11 C9.64672361 13.23551759 9.09256343 13.17283528 5.3125 12.625 C4.50425781 12.51414062 3.69601563 12.40328125 2.86328125 12.2890625 C2.24839844 12.19367187 1.63351563 12.09828125 1 12 C1 11.67 1 11.34 1 11 C4.3 10.67 7.6 10.34 11 10 C10.67 8.68 10.34 7.36 10 6 C6.37 5.01 2.74 4.02 -1 3 C-0.67 2.01 -0.34 1.02 0 0 Z " fill="#D97C44" transform="translate(43,44)"/>
	

	<path d="M0 0 C7.25794465 0.90724308 13.31583834 4.43755803 18 10 C18 10.66 18 11.32 18 12 C15.29551612 10.81002709 13.04071814 9.32211356 10.6875 7.5625 C7.28818213 5.07555316 3.92025966 3.52010068 0 2 C0 1.34 0 0.68 0 0 Z " fill="#919192" transform="translate(86,0)"/>
	

	

	

	<path d="M0 0 C-1.90726751 1.20253816 -3.8262012 2.38658949 -5.75 3.5625 C-6.81734375 4.22378906 -7.8846875 4.88507812 -8.984375 5.56640625 C-12 7 -12 7 -14.390625 6.71484375 C-14.92171875 6.47894531 -15.4528125 6.24304687 -16 6 C-11.11274903 1.57820151 -6.85777767 -2.03084403 0 0 Z " fill="#F0CB2F" transform="translate(42,28)"/>
	

	

	

	<path d="M0 0 C0.66 0.33 1.32 0.66 2 1 C1.59007813 1.60328125 1.18015625 2.2065625 0.7578125 2.828125 C-0.05042969 4.02695313 -0.05042969 4.02695313 -0.875 5.25 C-1.40867187 6.03890625 -1.94234375 6.8278125 -2.4921875 7.640625 C-4.01699436 9.9272241 -4.01699436 9.9272241 -5.08203125 12.21875 C-6.3256814 14.6319605 -7.4561865 15.12783537 -10 16 C-12.75 16.125 -12.75 16.125 -15 16 C-13.26592746 13.99212653 -12.19103533 13.06032695 -9.625 12.25 C-6.16815857 10.60388503 -5.12375323 8.64005446 -3.1875 5.375 C-2.58292969 4.37210937 -1.97835937 3.36921875 -1.35546875 2.3359375 C-0.90816406 1.56507812 -0.46085937 0.79421875 0 0 Z " fill="#D97C44" transform="translate(74,83)"/>
	

	

	<path d="M0 0 C-0.33 1.32 -0.66 2.64 -1 4 C-4.78706732 4 -8.26513121 3.5745952 -12 3 C-12 2.34 -12 1.68 -12 1 C-7.53763531 -0.80619523 -4.68965706 -1.11658501 0 0 Z " fill="#DB3D48" transform="translate(37,44)"/>
	

	

	<path d="M0 0 C2.1875 0.3125 2.1875 0.3125 4 1 C4.33 2.32 4.66 3.64 5 5 C2.6875 5.6875 2.6875 5.6875 0 6 C-1.8125 4.5625 -1.8125 4.5625 -3 3 C-1.75 1.4375 -1.75 1.4375 0 0 Z " fill="#E5A261" transform="translate(32,74)"/>
	

	<path d="M0 0 C0.66 0.66 1.32 1.32 2 2 C6.08430208 4.72286806 8.14590877 4.38524534 13 4 C15.35529281 3.58268982 15.35529281 3.58268982 17 3 C16.67 3.99 16.34 4.98 16 6 C14.08700862 6.27672202 12.16922064 6.52042815 10.25 6.75 C9.18265625 6.88921875 8.1153125 7.0284375 7.015625 7.171875 C4 7 4 7 1.609375 5.203125 C0 3 0 3 0 0 Z " fill="#DE5F64" transform="translate(38,66)"/>
	

	

	

	<path d="M0 0 C0.66 0.33 1.32 0.66 2 1 C2 2.32 2 3.64 2 5 C-1.21428571 8 -1.21428571 8 -4 8 C-4.25 5.6875 -4.25 5.6875 -4 3 C-2 1.1875 -2 1.1875 0 0 Z " fill="#EEC82F" transform="translate(22,37)"/>
	

	<path d="M0 0 C-1.23263349 3.69790046 -2.20052451 3.9354846 -5.5625 5.6875 C-6.80193359 6.34298828 -6.80193359 6.34298828 -8.06640625 7.01171875 C-8.70449219 7.33785156 -9.34257812 7.66398438 -10 8 C-8.14082741 2.26755117 -6.18031831 0 0 0 Z " fill="#7E7E80" transform="translate(27,0)"/>
	

	

	<path d="M0 0 C3.13837611 -0.3077917 4.59343628 -0.27813784 7.23828125 1.53125 C7.92277344 2.1809375 8.60726562 2.830625 9.3125 3.5 C10.00988281 4.1496875 10.70726563 4.799375 11.42578125 5.46875 C11.94527344 5.9740625 12.46476562 6.479375 13 7 C12.67 7.66 12.34 8.32 12 9 C11.113125 8.21625 10.22625 7.4325 9.3125 6.625 C6.67944021 4.40998525 4.23616597 3.2020045 1 2 C0.67 1.34 0.34 0.68 0 0 Z " fill="#CCCDCA" transform="translate(90,0)"/>
	

	<path d="M0 0 C0.33 0.66 0.66 1.32 1 2 C0.23587913 3.12956998 -0.53659803 4.25348978 -1.3125 5.375 C-1.74175781 6.00148438 -2.17101562 6.62796875 -2.61328125 7.2734375 C-4 9 -4 9 -7 11 C-9.6875 11.125 -9.6875 11.125 -12 11 C-9 9 -9 9 -7 9 C-7 8.34 -7 7.68 -7 7 C-5.37660195 5.29115995 -3.70680947 3.62553283 -2 2 C-1.34 1.34 -0.68 0.68 0 0 Z " fill="#4E4C47" transform="translate(95,90)"/>
	

	

	<path d="M0 0 C0 1.32 0 2.64 0 4 C-6.15234375 3.4140625 -6.15234375 3.4140625 -8 3 C-8.33 2.34 -8.66 1.68 -9 1 C-5.8035914 -0.06546953 -3.34252724 -0.07427838 0 0 Z " fill="#727576" transform="translate(128,64)"/>
	

	

	

	

	

	

	<path d="M0 0 C3.39192363 0.59283621 5.2107757 1.76743189 7.75 4.0625 C8.67039062 4.88427734 8.67039062 4.88427734 9.609375 5.72265625 C10.29773438 6.35494141 10.29773438 6.35494141 11 7 C10.01 7.33 9.02 7.66 8 8 C5.95703125 6.6015625 5.95703125 6.6015625 3.8125 4.625 C3.09707031 3.97789063 2.38164063 3.33078125 1.64453125 2.6640625 C0 1 0 1 0 0 Z " fill="#C6C6C3" transform="translate(104,11)"/>
	

	

	

	

	

	<path d="M0 0 C0.763125 0.309375 1.52625 0.61875 2.3125 0.9375 C4.18789677 1.67893593 6.08684652 2.36228217 8 3 C7.67 4.32 7.34 5.64 7 7 C5.83040013 6.02433888 4.66438823 5.044375 3.5 4.0625 C2.8503125 3.51722656 2.200625 2.97195312 1.53125 2.41015625 C1.0259375 1.94480469 0.520625 1.47945312 0 1 C0 0.67 0 0.34 0 0 Z " fill="#494845" transform="translate(86,36)"/>
	

	

	

	

	<path d="M0 0 C3.36591866 1.44253657 5.51047079 3.33264727 8 6 C7.67 6.66 7.34 7.32 7 8 C1.125 3.375 1.125 3.375 0 0 Z " fill="#6D6D6B" transform="translate(104,12)"/>
	

	

</svg>
