<?xml version="1.0" encoding="iso-8859-1"?>
<svg height="128" version="1.1" width="128" xmlns="http://www.w3.org/2000/svg">
	

	<path d="M0 0 C42.24 0 84.48 0 128 0 C128 42.24 128 84.48 128 128 C85.76 128 43.52 128 0 128 C0 85.76 0 43.52 0 0 Z " fill="#A2D5DC" transform="translate(0,0)"/>
	

	<path d="M0 0 C3.3 0 6.6 0 10 0 C11.43450027 2.86900055 11.37911083 5.73472913 11.62109375 8.90625 C11.83318777 11.21311098 11.83318777 11.21311098 14 13 C16.2142646 13.24475811 16.2142646 13.24475811 18.76171875 13.125 C19.71626953 13.10953125 20.67082031 13.0940625 21.65429688 13.078125 C23.65691405 13.02654439 25.65951861 12.97447095 27.66210938 12.921875 C33.23605562 12.83215353 37.73869897 13.12792331 43 15 C46.53873938 16.12203932 47.48251769 16.25874115 50.875 14.5625 C54.5060527 12.74697365 56.99436968 12.75966218 61 13 C59.42038699 16.15922602 56.39906086 16.6261107 53.2265625 17.90234375 C50.9542531 19.02255242 49.61183901 20.06177614 48 22 C47.28552357 24.10332891 47.28552357 24.10332891 47 26 C46.34 26 45.68 26 45 26 C44.54625 25.030625 44.0925 24.06125 43.625 23.0625 C42.34213779 19.92920418 42.34213779 19.92920418 40 19 C38.35643193 18.90414869 36.70885358 18.87016489 35.0625 18.875 C34.18722656 18.87242188 33.31195313 18.86984375 32.41015625 18.8671875 C29.43732318 19.0310065 27.55910001 19.50302221 25.3125 21.5 C23.37209593 25.19600775 23.41853871 28.89956517 24 33 C25.61732338 36.06551432 25.61732338 36.06551432 27.84375 36.67578125 C30.08900755 37.01338338 32.22939192 37.16805986 34.5 37.1875 C35.2528125 37.20167969 36.005625 37.21585938 36.78125 37.23046875 C40.42088883 36.85240767 42.4380649 35.68234976 44.75 32.875 C45.1625 32.25625 45.575 31.6375 46 31 C46.2475 31.78375 46.495 32.5675 46.75 33.375 C48.23089466 36.48487879 48.8518793 36.8088192 52 38 C53.11375 38.495 54.2275 38.99 55.375 39.5 C58.55424324 40.81554893 61.72200918 41.96063706 65 43 C64.66226563 43.54527344 64.32453125 44.09054688 63.9765625 44.65234375 C56.61067371 57.10623086 56.89907003 70.9903636 56.4375 85.125 C56.39431641 86.36765625 56.35113281 87.6103125 56.30664062 88.890625 C56.20153545 91.92699671 56.09938657 94.96343665 56 98 C57.32 98.66 58.64 99.32 60 100 C60 100.66 60 101.32 60 102 C58.35 102 56.7 102 55 102 C54.9175 101.21625 54.835 100.4325 54.75 99.625 C54.28389075 96.87359896 54.28389075 96.87359896 52.0625 95.8125 C51.381875 95.544375 50.70125 95.27625 50 95 C49.01 94.01 49.01 94.01 48 93 C41.27954125 95.19037174 34.63275997 97.55765661 28 100 C28.33 100.99 28.66 101.98 29 103 C31.57888094 104.22385081 31.57888094 104.22385081 34.6875 105.125 C35.72261719 105.45757812 36.75773437 105.79015625 37.82421875 106.1328125 C43.91295391 107.89912482 43.91295391 107.89912482 50 107 C48.98473533 109.03052933 47.96917555 111.05984892 46.9296875 113.078125 C46.40761719 114.15320313 46.40761719 114.15320313 45.875 115.25 C45.52179687 115.95640625 45.16859375 116.6628125 44.8046875 117.390625 C43.60708142 120.81901871 43.60708142 120.81901871 44 128 C29.48 128 14.96 128 0 128 C0 85.76 0 43.52 0 0 Z " fill="#FDFDFD" transform="translate(0,0)"/>
	

	<path d="M0 0 C0 37.95 0 75.9 0 115 C-16.17 115 -32.34 115 -49 115 C-48.67 112.69 -48.34 110.38 -48 108 C-48.95178997 104.53413008 -48.95178997 104.53413008 -50.4375 101.0625 C-52.84242755 94.70765142 -53.31992406 89.33247236 -53.04052734 82.58496094 C-52.87455427 77.7633835 -53.58428703 74.19860828 -55.3984375 69.7734375 C-56.23991252 67.29272542 -55.86266996 65.43116081 -55 63 C-53.35 63 -51.7 63 -50 63 C-48.65182244 66.50526166 -47.88942257 69.65373604 -47.625 73.375 C-47.14874745 78.05815004 -46.136826 82.36202428 -43 86 C-39.37346335 87.13956727 -39.37346335 87.13956727 -36 87 C-35.773125 86.4225 -35.54625 85.845 -35.3125 85.25 C-34 83 -34 83 -31.5 81.0625 C-28.63189857 78.69631632 -27.80278023 77.61251105 -27 74 C-27.34089019 65.8602074 -29.92574913 58.94084779 -32.8125 51.375 C-33.47088867 49.59222656 -33.47088867 49.59222656 -34.14257812 47.7734375 C-36.36737171 41.84947004 -38.74448299 36.41827307 -42 31 C-42 30.34 -42 29.68 -42 29 C-41.32453125 28.73445313 -40.6490625 28.46890625 -39.953125 28.1953125 C-39.06109375 27.84210937 -38.1690625 27.48890625 -37.25 27.125 C-36.36828125 26.77695312 -35.4865625 26.42890625 -34.578125 26.0703125 C-29.75579097 24.3456844 -29.75579097 24.3456844 -26.8125 20.5 C-26.544375 19.675 -26.27625 18.85 -26 18 C-25.67 17.34 -25.34 16.68 -25 16 C-24.52733715 11.82481154 -24.58392747 9.67432444 -26.8125 6.0625 C-31.46689675 3.05083151 -35.6015711 3.11878587 -41 4 C-44.42223531 5.72410116 -44.42223531 5.72410116 -47 8 C-48.3191582 8.69429379 -49.64649406 9.37530495 -51 10 C-51.680625 9.05125 -52.36125 8.1025 -53.0625 7.125 C-55.98667981 3.5622062 -58.5495299 2.8726412 -63 2 C-63 1.34 -63 0.68 -63 0 C-56.375 0.75 -56.375 0.75 -53 3 C-31.00821733 1.7782343 -38.44155248 -0.93759884 0 0 Z " fill="#FCFCFC" transform="translate(128,13)"/>
	

	<path d="M0 0 C8.21341048 6.00981255 10.79232401 17.907122 13.94506836 27.16113281 C15.34854152 31.28350311 15.34854152 31.28350311 17.1796875 35.2265625 C18.79102696 38.71012495 18.01030766 42.40637401 17 46 C14.5625 49.0625 14.5625 49.0625 12 51 C11.34 51 10.68 51 10 51 C9.34 52.32 8.68 53.64 8 55 C4.75110346 54.76793596 3.94435756 53.93662944 1.75 51.4375 C-0.69052466 46.64361227 -0.75389362 42.83048681 0.65234375 37.55078125 C1.08590888 34.36967976 0.43034807 33.02541152 -1.125 30.25 C-1.54007813 29.47140625 -1.95515625 28.6928125 -2.3828125 27.890625 C-4.43742435 25.48861501 -5.9179181 25.3113214 -9 25 C-11.66883053 31.83887824 -11.59322016 36.64179186 -9 43.4375 C-7.10313529 48.64895529 -6.83186722 52.87032043 -7.0625 58.3125 C-7.3282215 64.94701589 -6.49856762 68.06254773 -2 73 C-0.28400575 77.69038427 -1.24635342 78.73906025 -3 84 C-13.23 84 -23.46 84 -34 84 C-36 75 -36 75 -34.9375 71.75 C-32.86351963 68.80628593 -30.64128675 66.44319024 -28 64 C-27.46375 63.401875 -26.9275 62.80375 -26.375 62.1875 C-25 61 -25 61 -22 61 C-20.64613064 62.65002828 -19.31321858 64.3174387 -18 66 C-16.515 66.495 -16.515 66.495 -15 67 C-15.20373453 65.43398089 -15.43933091 63.87209473 -15.6875 62.3125 C-15.81511719 61.44238281 -15.94273438 60.57226562 -16.07421875 59.67578125 C-16.84967959 56.76935401 -16.84967959 56.76935401 -19.55859375 54.57421875 C-22 52 -22 52 -22.5234375 48.96875 C-22.47445312 47.8240625 -22.42546875 46.679375 -22.375 45.5 C-22.32601562 44.18515625 -22.27703125 42.8703125 -22.2265625 41.515625 C-22.18821289 40.79697266 -22.14986328 40.07832031 -22.11035156 39.33789062 C-21.99069684 36.80290483 -21.94167814 34.27177226 -21.8984375 31.734375 C-21.39613902 10.01142014 -21.39613902 10.01142014 -15.07421875 2.8046875 C-10.69914971 -1.00186974 -5.42943824 -1.77046899 0 0 Z " fill="#5BD1ED" transform="translate(82,44)"/>
	

	<path d="M0 0 C36.96 0 73.92 0 112 0 C112 2.64 112 5.28 112 8 C107.98871782 9.35775604 103.93302209 9.05337828 99.76171875 8.95703125 C98.12045486 8.93463745 96.47917795 8.91318265 94.83789062 8.89257812 C92.26371751 8.85555554 89.69021536 8.81256266 87.11645508 8.75317383 C84.62311322 8.69838299 82.13051487 8.66950914 79.63671875 8.64453125 C78.49573982 8.60885796 78.49573982 8.60885796 77.33171082 8.57246399 C71.72086383 8.54523384 68.73256498 10.03447489 64 13 C61.0625 12.875 61.0625 12.875 58 12 C51.47844465 10.18251736 44.88684674 8.47507193 38.3515625 11.0390625 C33.77781201 12.35041754 29.70785889 11.96342368 25 11.625 C23.13166861 11.5116838 21.26317477 11.4010157 19.39453125 11.29296875 C18.4813916 11.23931152 17.56825195 11.1856543 16.62744141 11.13037109 C11.08656755 10.85543831 5.54589944 10.91611245 0 11 C-1.49297212 8.01405576 -1.11755228 5.29146376 -1 2 C-0.67 1.34 -0.34 0.68 0 0 Z " fill="#494A48" transform="translate(16,0)"/>
	

	<path d="M0 0 C1.485 0.495 1.485 0.495 3 1 C2.05125 1.61875 1.1025 2.2375 0.125 2.875 C-4.14105632 5.68289245 -4.14105632 5.68289245 -5.8125 10.3125 C-6.02658367 14.52281209 -5.67514016 15.80709078 -3 19 C1.65983112 22.99414096 5.98760871 24.11113477 12 24 C15.01437464 23.2136414 16.45847023 22.58485215 18.5625 20.3125 C19.036875 19.879375 19.51125 19.44625 20 19 C22.1875 19.3125 22.1875 19.3125 24 20 C23.86328125 22.32421875 23.86328125 22.32421875 23 25 C20.41796875 26.51953125 20.41796875 26.51953125 17.1875 27.8125 C12.18758707 30.12243602 9.63036462 31.75602554 7.55078125 36.875 C5.31204758 45.51238381 5.43656843 54.5364797 5.10839844 63.40332031 C5.01308575 65.68653153 4.87811915 67.96220018 4.7265625 70.2421875 C4.27991719 77.80205896 4.27991719 77.80205896 8 84.0625 C8.82371094 84.82433594 8.82371094 84.82433594 9.6640625 85.6015625 C11 87 11 87 11.375 89.9375 C11.25125 90.618125 11.1275 91.29875 11 92 C10.01 91.34 9.02 90.68 8 90 C5.5 89.58333333 5.5 89.58333333 3 90 C1.31201173 91.43750191 1.31201173 91.43750191 0 93 C-0.66 93 -1.32 93 -2 93 C-2.268125 93.53625 -2.53625 94.0725 -2.8125 94.625 C-4 97 -4 97 -5.6875 99.6875 C-7.4280704 104.08036814 -6.84125234 107.43899336 -6 112 C-7.32 112 -8.64 112 -10 112 C-11.785269 104.58426724 -9.86414289 100.41744085 -6 94 C-5.34 93.01 -4.68 92.02 -4 91 C-5.485 91.99 -5.485 91.99 -7 93 C-11.26895576 92.60594255 -15.24064672 91.43326668 -19.3125 90.125 C-20.36050781 89.79757813 -21.40851562 89.47015625 -22.48828125 89.1328125 C-23.73158203 88.57207031 -23.73158203 88.57207031 -25 88 C-25.33 87.01 -25.66 86.02 -26 85 C-28.01508358 84.26676204 -28.01508358 84.26676204 -30 84 C-28.66195313 83.60167969 -28.66195313 83.60167969 -27.296875 83.1953125 C-26.12640625 82.84210938 -24.9559375 82.48890625 -23.75 82.125 C-22.58984375 81.77695313 -21.4296875 81.42890625 -20.234375 81.0703125 C-17.63210498 80.20917484 -15.41098382 79.26486303 -13 78 C-10.33992923 76.90529891 -7.89036879 76.09175774 -5 76 C-1.68882967 78.32486427 -0.31138135 79.92214148 0.8125 83.8125 C0.874375 84.534375 0.93625 85.25625 1 86 C2.65 86 4.3 86 6 86 C5.34950684 85.45899658 4.69901367 84.91799316 4.02880859 84.3605957 C1.50362554 81.42244951 1.5080833 80.05579256 1.5390625 76.23046875 C1.54256714 74.53615723 1.54256714 74.53615723 1.54614258 72.80761719 C1.57216553 71.61297852 1.59818848 70.41833984 1.625 69.1875 C1.64006592 67.97094727 1.65513184 66.75439453 1.6706543 65.50097656 C1.92286701 51.84689026 2.51485487 39.76237092 10 28 C9.43152344 27.84144531 8.86304688 27.68289062 8.27734375 27.51953125 C2.07805155 25.64628937 -3.86150327 23.44019039 -7.4375 17.6875 C-7.623125 17.130625 -7.80875 16.57375 -8 16 C-8.598125 16.804375 -9.19625 17.60875 -9.8125 18.4375 C-12.18948624 21.22196959 -13.47258968 21.87700628 -17.0859375 22.16796875 C-25.11558545 22.2364811 -25.11558545 22.2364811 -29 20 C-31.68209911 15.97685134 -31.68843415 12.72780081 -31 8 C-28.88608123 4.50109996 -27.88263941 3.29421314 -24 2 C-18.78526691 1.38130285 -15.1969463 1.11425974 -10.875 4.3125 C-9 7 -9 7 -9 10 C-8.34 10 -7.68 10 -7 10 C-6.95875 9.278125 -6.9175 8.55625 -6.875 7.8125 C-5.58850016 3.67732193 -3.56253346 2.42252275 0 0 Z " fill="#DDE8E8" transform="translate(54,16)"/>
	

	<path d="M0 0 C0.8971875 1.2375 0.8971875 1.2375 1.8125 2.5 C3.78907328 5.31970503 3.78907328 5.31970503 7.0625 5.375 C10.05457456 5.08933543 10.05457456 5.08933543 13 4 C17.06386876 7.6245316 19.45738162 10.73694906 21 16 C20.34 18.31 19.68 20.62 19 23 C8.77 23 -1.46 23 -12 23 C-14 14 -14 14 -12.9375 10.75 C-10.86351963 7.80628593 -8.64128675 5.44319024 -6 3 C-5.46375 2.401875 -4.9275 1.80375 -4.375 1.1875 C-3 0 -3 0 0 0 Z " fill="#56B15B" transform="translate(60,105)"/>
	

	<path d="M0 0 C1.98 0 3.96 0 6 0 C6 3.63 6 7.26 6 11 C7.4025 10.835 8.805 10.67 10.25 10.5 C19.58325087 9.58111454 28.68325321 9.92668269 37.9921875 10.9765625 C41.40062958 11.00312179 43.81265166 10.15314635 47 9 C52.03789488 8.3122023 56.37965225 8.98639352 61.1875 10.5625 C65.20683762 11.8753177 67.86494057 12.34629842 72 11 C72.68537842 10.49299561 73.37075684 9.98599121 74.0769043 9.46362305 C78.23042562 7.38391367 81.87721905 7.62561719 86.45703125 7.70703125 C87.35999435 7.71127609 88.26295746 7.71552094 89.19328308 7.71989441 C92.0666635 7.73663689 94.93933291 7.77428084 97.8125 7.8125 C99.7649638 7.82755257 101.71743864 7.84123997 103.66992188 7.85351562 C108.44688697 7.88652592 113.22332309 7.93827765 118 8 C118 9.65 118 11.3 118 13 C116.794646 12.97905273 115.58929199 12.95810547 114.34741211 12.93652344 C109.85420723 12.8638517 105.3610538 12.81810172 100.86743164 12.78027344 C98.92658742 12.76021972 96.98580315 12.73296955 95.04516602 12.69824219 C92.24740768 12.64944825 89.45045155 12.62696873 86.65234375 12.609375 C85.7916478 12.58872986 84.93095184 12.56808472 84.04417419 12.54681396 C78.10456353 12.54462641 75.00318237 13.85569981 70 17 C65.68521203 16.85617373 63.59754004 16.39836003 60 14 C58.34450469 13.61500109 56.6777567 13.27206865 55 13 C55 13.66 55 14.32 55 15 C56.11375 15.103125 57.2275 15.20625 58.375 15.3125 C60.169375 15.6528125 60.169375 15.6528125 62 16 C62.66 16.99 63.32 17.98 64 19 C63.236875 18.690625 62.47375 18.38125 61.6875 18.0625 C56.82685159 16.66197419 52.03141827 16.34020266 47 16 C47.99 15.34 48.98 14.68 50 14 C46.30567704 13.73611979 44.28128855 13.85648543 40.9375 15.5625 C37.50312013 17.24315398 36.56380699 17.12998758 33 16 C32.02417969 15.65195313 31.04835938 15.30390625 30.04296875 14.9453125 C24.10128983 13.25134814 17.85019012 13.95580515 11.7421875 14.16601562 C10.31519531 14.19405273 10.31519531 14.19405273 8.859375 14.22265625 C7.99795898 14.25109619 7.13654297 14.27953613 6.24902344 14.30883789 C4 14 4 14 2.22827148 12.65478516 C0.4599883 10.27247082 0.4848966 8.24324221 0.3125 5.3125 C0.24675781 4.31863281 0.18101563 3.32476562 0.11328125 2.30078125 C0.07589844 1.54152344 0.03851563 0.78226562 0 0 Z " fill="#C3E0E2" transform="translate(10,0)"/>
	

	<path d="M0 0 C4.18501606 1.76249377 7.1920531 4.04947423 10.125 7.5 C11 10 11 10 10.375 12.625 C9.08663094 14.85036474 8.0102606 16.40854369 6 18 C5.34 18 4.68 18 4 18 C4 18.66 4 19.32 4 20 C0.93060497 22.04626335 -2.09778983 22.52988177 -5.765625 22.4609375 C-10.12042137 21.56257042 -13.64911833 18.83028517 -17 16 C-18.42662219 13.14675563 -18.31033868 11.16545451 -18 8 C-13.62298424 1.02919712 -8.00659805 -1.42546754 0 0 Z " fill="#5BD1ED" transform="translate(67,17)"/>
	

	<path d="M0 0 C3.0625 2.0625 3.0625 2.0625 5 5 C5.68831917 9.20639491 5.31255888 11.36237988 3.4375 15.1875 C-0.97941616 20.28394173 -4.88037421 22.07295589 -11.4375 22.75 C-12.95735061 22.84966234 -14.47811702 22.93875722 -16 23 C-17.86061408 17.30186938 -19.29910324 12.10341329 -16.875 6.3125 C-12.26081683 0.62167409 -7.15753142 -1.49992386 0 0 Z " fill="#5BD1ED" transform="translate(97,17)"/>
	

	<path d="M0 0 C3.019527 3.166821 3.05830481 4.24010681 3.25 8.5 C2.98127355 13.20557171 2.39158984 16.53241037 -0.66015625 20.16796875 C-3.6191366 22.69773437 -6.96369477 24.47668187 -10.42578125 26.23046875 C-11.08964844 26.71128906 -11.75351563 27.19210938 -12.4375 27.6875 C-12.4375 29.0075 -12.4375 30.3275 -12.4375 31.6875 C-11.7775 31.6875 -11.1175 31.6875 -10.4375 31.6875 C-8.70981204 35.95158092 -7.00301284 40.22328698 -5.31054688 44.50146484 C-4.45682107 46.63912167 -3.58111547 48.76674822 -2.703125 50.89453125 C3.3934324 65.94195956 3.3934324 65.94195956 1.5625 72.6875 C-0.94239926 77.44038577 -3.58962698 80.40039862 -8.4375 82.6875 C-9.80836915 83.98220975 -11.15090837 85.30900897 -12.4375 86.6875 C-15.61490819 86.1702475 -17.7690897 85.48270901 -19.87890625 82.97265625 C-23.16329162 77.55096936 -24.26150191 72.35113172 -24.98046875 66.09375 C-25.13128906 65.2996875 -25.28210938 64.505625 -25.4375 63.6875 C-26.0975 63.3575 -26.7575 63.0275 -27.4375 62.6875 C-27.29675049 63.22914795 -27.15600098 63.7707959 -27.01098633 64.32885742 C-25.63954261 69.9651345 -25.20940055 75.21915658 -25.125 81 C-24.91251917 88.22575544 -23.67038607 93.53284638 -20.44921875 100.0859375 C-18.82647594 104.25870473 -19.50402518 107.37915466 -20.4375 111.6875 C-21.4275 111.6875 -22.4175 111.6875 -23.4375 111.6875 C-23.22222656 110.67558594 -23.00695312 109.66367188 -22.78515625 108.62109375 C-22.39059034 104.1567357 -23.19641237 101.86686127 -24.875 97.75 C-27.27992755 91.39515142 -27.75742406 86.01997236 -27.47802734 79.27246094 C-27.31205427 74.4508835 -28.02178703 70.88610828 -29.8359375 66.4609375 C-30.67741252 63.98022542 -30.30016996 62.11866081 -29.4375 59.6875 C-27.7875 59.6875 -26.1375 59.6875 -24.4375 59.6875 C-23.08932244 63.19276166 -22.32692257 66.34123604 -22.0625 70.0625 C-21.58624745 74.74565004 -20.574326 79.04952428 -17.4375 82.6875 C-13.81096335 83.82706727 -13.81096335 83.82706727 -10.4375 83.6875 C-10.210625 83.11 -9.98375 82.5325 -9.75 81.9375 C-8.4375 79.6875 -8.4375 79.6875 -5.9375 77.75 C-3.06939857 75.38381632 -2.24028023 74.30001105 -1.4375 70.6875 C-1.77839019 62.5477074 -4.36324913 55.62834779 -7.25 48.0625 C-7.90838867 46.27972656 -7.90838867 46.27972656 -8.58007812 44.4609375 C-10.80487171 38.53697004 -13.18198299 33.10577307 -16.4375 27.6875 C-16.4375 27.0275 -16.4375 26.3675 -16.4375 25.6875 C-15.76203125 25.42195313 -15.0865625 25.15640625 -14.390625 24.8828125 C-13.49859375 24.52960937 -12.6065625 24.17640625 -11.6875 23.8125 C-10.80578125 23.46445312 -9.9240625 23.11640625 -9.015625 22.7578125 C-4.19329097 21.0331844 -4.19329097 21.0331844 -1.25 17.1875 C-0.981875 16.3625 -0.71375 15.5375 -0.4375 14.6875 C-0.1075 14.0275 0.2225 13.3675 0.5625 12.6875 C1.03516285 8.51231154 0.97857253 6.36182444 -1.25 2.75 C-5.90439675 -0.26166849 -10.0390711 -0.19371413 -15.4375 0.6875 C-18.85973531 2.41160116 -18.85973531 2.41160116 -21.4375 4.6875 C-22.7566582 5.38179379 -24.08399406 6.06280495 -25.4375 6.6875 C-26.0975 5.6975 -26.7575 4.7075 -27.4375 3.6875 C-26.73625 3.605 -26.035 3.5225 -25.3125 3.4375 C-22.2737278 2.81668959 -22.2737278 2.81668959 -19.5 0.6875 C-13.10651194 -3.48783914 -6.92055942 -2.64239541 0 0 Z " fill="#DDE8E7" transform="translate(102.4375,16.3125)"/>
	

	<path d="M0 0 C3 2.0625 3 2.0625 5 5 C5.50951861 9.14893725 5.54666957 12.56199608 3 16 C-0.43879096 18.54725256 -3.84919103 18.29128484 -8 18 C-11.86165366 16.88441117 -12.71497149 16.42754276 -15 13 C-15.53155206 9.01335957 -15.13917086 7.25434675 -13.1875 3.6875 C-9.72855226 -0.56206436 -5.24325234 -0.88747656 0 0 Z " fill="#6FD2E8" transform="translate(39,19)"/>
	

	<path d="M0 0 C0.99 0 1.98 0 3 0 C3 3.63 3 7.26 3 11 C4.4025 10.835 5.805 10.67 7.25 10.5 C16.58325087 9.58111454 25.68325321 9.92668269 34.9921875 10.9765625 C38.40062958 11.00312179 40.81265166 10.15314635 44 9 C49.03789488 8.3122023 53.37965225 8.98639352 58.1875 10.5625 C62.20683762 11.8753177 64.86494057 12.34629842 69 11 C69.68537842 10.49299561 70.37075684 9.98599121 71.0769043 9.46362305 C75.23042562 7.38391367 78.87721905 7.62561719 83.45703125 7.70703125 C84.35999435 7.71127609 85.26295746 7.71552094 86.19328308 7.71989441 C89.0666635 7.73663689 91.93933291 7.77428084 94.8125 7.8125 C96.7649638 7.82755257 98.71743864 7.84123997 100.66992188 7.85351562 C105.44688697 7.88652592 110.22332309 7.93827765 115 8 C115 8.99 115 9.98 115 11 C92.58187437 12.45374491 92.58187437 12.45374491 81.671875 10.2890625 C76.04450517 9.68025348 71.57242398 11.95171735 67 15 C63.74006787 14.70364253 60.91777772 13.97259257 57.8125 12.9375 C51.85156426 11.47169613 45.74127291 11.06796721 39.875 13.0625 C36.53716422 14.15092471 34.10355786 13.67466529 30.67480469 13.24243164 C27.76274804 12.97849661 24.93473037 12.98139498 22.01171875 13.04296875 C20.45807617 13.07487305 20.45807617 13.07487305 18.87304688 13.10742188 C16.72950627 13.1613061 14.58622571 13.22661811 12.44335938 13.30273438 C10.89938477 13.32883789 10.89938477 13.32883789 9.32421875 13.35546875 C8.39697998 13.38278076 7.46974121 13.41009277 6.5144043 13.43823242 C3.21648337 12.86344185 2.05513632 11.58189662 0 9 C-0.390625 6.640625 -0.390625 6.640625 -0.25 4.25 C-0.21390625 3.45078125 -0.1778125 2.6515625 -0.140625 1.828125 C-0.09421875 1.22484375 -0.0478125 0.6215625 0 0 Z " fill="#899C92" transform="translate(13,0)"/>
	

	<path d="M0 0 C2.70626673 1.04201146 4.58225443 2.32238063 7 4 C8.32646156 4.6802367 9.65608877 5.35492261 11 6 C11.94875 5.195625 12.8975 4.39125 13.875 3.5625 C18.30630719 -0.19447783 21.52976212 -0.3307355 27.29296875 -0.29296875 C30.88443175 0.09571772 32.63040824 1.31446267 35 4 C36.4783226 6.95664519 36.06032783 9.74229737 36 13 C35.34 13 34.68 13 34 13 C33.89042969 12.37351562 33.78085938 11.74703125 33.66796875 11.1015625 C33.50941406 10.28429688 33.35085937 9.46703125 33.1875 8.625 C33.03667969 7.81289063 32.88585937 7.00078125 32.73046875 6.1640625 C32.12455058 3.64179359 32.12455058 3.64179359 29 2 C24.23651641 1.12300205 20.15742229 1.455145 16.0625 4.125 C12.95861718 6.63253496 11.82497417 9.05845673 11 13 C10.4225 12.2575 9.845 11.515 9.25 10.75 C4.16251773 4.52491767 4.16251773 4.52491767 -3.11328125 1.62890625 C-9.36641441 1.44009051 -12.29418979 2.88241607 -17 7 C-18.44430855 9.88861709 -18.37688506 11.79647701 -18 15 C-14.8894698 18.93390584 -11.55369309 20.98790305 -7 23 C-8.7421875 23.66796875 -8.7421875 23.66796875 -11 24 C-13.0703125 22.92578125 -13.0703125 22.92578125 -15.125 21.3125 C-15.80820312 20.79300781 -16.49140625 20.27351563 -17.1953125 19.73828125 C-19.10775285 17.89621208 -20.06009706 16.47266774 -21 14 C-21.06692011 10.38631417 -20.90183664 8.01005703 -18.4375 5.25 C-12.42125708 0.0359228 -7.97080846 -0.8257053 0 0 Z " fill="#A2D5DC" transform="translate(68,16)"/>
	

	<path d="M0 0 C1.32 0.66 2.64 1.32 4 2 C3.01 2.33 2.02 2.66 1 3 C1.12375 4.19625 1.2475 5.3925 1.375 6.625 C1.44460937 7.29789062 1.51421875 7.97078125 1.5859375 8.6640625 C1.94799161 11.11685138 1.94799161 11.11685138 3.0390625 13.78125 C4.16764989 17.56155899 4.14006551 20.98265313 4 24.875 C3.88481201 30.59251298 4.18427961 35.55283883 6 41 C4 39.46875 4 39.46875 2 37 C1.81020176 34.36654945 1.81309773 32.1040281 2 29.5 C2.26619105 22.85807953 1.30124271 17.82903686 -1.1015625 11.56640625 C-2.31243166 8.10753216 -2.47198208 5.61852929 -2 2 C-1.34 1.34 -0.68 0.68 0 0 Z " fill="#A2D5DC" transform="translate(72,73)"/>
	

	<path d="M0 0 C2.77547542 0.0792993 4.46739213 0.43936014 6.41015625 2.484375 C8.67381262 5.57297902 10.335622 8.17787247 11 12 C10.5625 14.25 10.5625 14.25 10 16 C9.34 16 8.68 16 8 16 C7.443125 14.3603125 7.443125 14.3603125 6.875 12.6875 C5.19563471 8.68285969 3.00309019 7.65345029 -1 6 C-1.33 5.34 -1.66 4.68 -2 4 C-1.0625 1.875 -1.0625 1.875 0 0 Z " fill="#899C92" transform="translate(73,68)"/>
	

	

	

	

	

	

	

</svg>
