<?xml version="1.0" encoding="iso-8859-1"?>
<svg height="128" version="1.1" width="128" xmlns="http://www.w3.org/2000/svg">
	

	<path d="M0 0 C42.24 0 84.48 0 128 0 C128 42.24 128 84.48 128 128 C85.76 128 43.52 128 0 128 C0 85.76 0 43.52 0 0 Z " fill="#050405" transform="translate(0,0)"/>
	

	<path d="M0 0 C0.90169922 0.02707031 1.80339844 0.05414062 2.73242188 0.08203125 C3.59802734 0.12199219 4.46363281 0.16195313 5.35546875 0.203125 C6.13946045 0.23567383 6.92345215 0.26822266 7.73120117 0.30175781 C10.27007104 0.8485455 11.0571112 1.90744664 12.8125 3.75 C15.48729327 3.48904456 17.41345141 2.9495243 19.8125 1.75 C25.28088579 1.321107 29.03971056 2.01006532 33.8125 4.75 C43.09108812 14.24436924 43.32975598 29.56147874 44.625 42.0625 C44.76115723 43.34970947 44.89731445 44.63691895 45.03759766 45.96313477 C45.70805846 53.05433544 45.91152501 59.69955368 44.8125 66.75 C45.55072998 66.79793701 46.28895996 66.84587402 47.04956055 66.89526367 C48.32440308 66.97804565 48.32440308 66.97804565 49.625 67.0625 C50.51832031 67.12050781 51.41164063 67.17851563 52.33203125 67.23828125 C54.8125 67.75 54.8125 67.75 56.6796875 68.8515625 C58.49863634 71.89986986 57.68119125 74.38678704 57.125 77.8125 C56.93550781 79.06160156 56.74601562 80.31070313 56.55078125 81.59765625 C55.8125 84.75 55.8125 84.75 53.8125 86.75 C51.02257185 86.61926854 48.38344742 86.37307826 45.625 86 C44.88185547 85.91234375 44.13871094 85.8246875 43.37304688 85.734375 C38.68969054 85.14331162 34.26076753 84.35521979 29.8125 82.75 C27.27161259 78.93866889 27.88402478 77.78915396 28.6875 73.375 C30.52026211 61.79527577 29.92833282 51.23427038 27.8125 39.75 C27.58723633 38.48518799 27.58723633 38.48518799 27.35742188 37.19482422 C26.85135097 34.35735411 26.3339649 31.5221793 25.8125 28.6875 C25.5635498 27.31174805 25.5635498 27.31174805 25.30957031 25.90820312 C25.14553711 25.04001953 24.98150391 24.17183594 24.8125 23.27734375 C24.668125 22.50124756 24.52375 21.72515137 24.375 20.92553711 C23.40486457 17.17342044 22.48834279 15.21677657 19.26171875 12.98828125 C14.82547895 11.39565609 11.26769919 11.56472853 6.625 11.9375 C5.81869141 11.98197266 5.01238281 12.02644531 4.18164062 12.07226562 C-0.78427598 12.39629349 -0.78427598 12.39629349 -5.1875 14.75 C-4.9709375 15.92175781 -4.754375 17.09351563 -4.53125 18.30078125 C-0.74414833 39.419945 -0.74414833 39.419945 -3.1875 46.75 C-7.68465599 45.28440899 -9.13116242 41.81899122 -11.1875 37.875 C-13.42349396 33.63883958 -15.56159288 29.97122998 -19.1875 26.75 C-22.09041297 29.65291297 -21.17103118 38.80983407 -21.1875 42.75 C-20.2132121 48.90283989 -15.32439588 53.3864249 -11.1875 57.75 C-8.8775 57.09 -6.5675 56.43 -4.1875 55.75 C-1.51615537 59.75701694 -1.36096719 63.03876296 -2.1875 67.75 C-4.71718474 71.03175318 -6.26481331 72.44243777 -10.1875 73.75 C-10.1875 74.41 -10.1875 75.07 -10.1875 75.75 C-17.44575418 76.36510629 -17.44575418 76.36510629 -20.75 73.625 C-21.554375 72.67625 -22.35875 71.7275 -23.1875 70.75 C-24.42817967 69.75905029 -25.67864735 68.78025894 -26.9375 67.8125 C-30.28448071 65.02694831 -30.69412447 63.09170465 -31.1875 58.75 C-32.5169414 58.07560561 -33.85073795 57.40976469 -35.1875 56.75 C-38.74025772 52.27615694 -39.93693403 47.09649299 -39.7109375 41.47265625 C-38.32116678 34.24377424 -34.20046148 27.09073204 -29.1875 21.75 C-25.4375 21.4375 -25.4375 21.4375 -22.1875 21.75 C-22.249375 20.47125 -22.31125 19.1925 -22.375 17.875 C-22.375 12.589064 -21.40204229 7.57095831 -19.1875 2.75 C-13.32194781 -1.16036812 -6.77630488 -0.32384947 0 0 Z " fill="#565455" transform="translate(50.1875,18.25)"/>
	

	<path d="M0 0 C4.63461647 1.89597946 6.52979206 4.72799333 9 9 C9.97733579 11.95572213 10.56688517 14.94031322 11.125 18 C11.28967773 18.8650415 11.45435547 19.73008301 11.62402344 20.62133789 C14.20563596 34.89305424 15.49257864 49.49629574 15 64 C16.04800781 64.07347656 16.04800781 64.07347656 17.1171875 64.1484375 C18.02726562 64.22320312 18.93734375 64.29796875 19.875 64.375 C20.77992187 64.44460937 21.68484375 64.51421875 22.6171875 64.5859375 C25 65 25 65 27 67 C27.046875 69.53125 27.046875 69.53125 26.75 72.5 C26.66234375 73.4796875 26.5746875 74.459375 26.484375 75.46875 C26 78 26 78 24 80 C16.591021 80.12755774 9.12318937 78.98515114 2 77 C1.34 76.34 0.68 75.68 0 75 C0.2421875 72.19921875 0.2421875 72.19921875 0.875 68.6875 C2.69982915 57.07495086 2.10239363 46.51592017 0 35 C-0.29481598 33.2409767 -0.58904108 31.4818543 -0.8828125 29.72265625 C-1.21208735 27.83568315 -1.54282111 25.94896405 -1.875 24.0625 C-2.02420898 23.16208984 -2.17341797 22.26167969 -2.32714844 21.33398438 C-3.4614506 15.13127685 -4.99399744 10.69503677 -9.8125 6.375 C-10.4003125 5.694375 -10.4003125 5.694375 -11 5 C-10.8125 2.875 -10.8125 2.875 -10 1 C-6.8017988 -0.5991006 -3.4787562 -0.36195151 0 0 Z " fill="#EDEEEE" transform="translate(78,23)"/>
	

	<path d="M0 0 C4.83295024 4.57748434 5.44165827 14.16454293 6.64916992 20.44360352 C6.9024707 21.70043945 6.9024707 21.70043945 7.16088867 22.98266602 C9.86164017 36.72034689 10.24570428 49.69088734 7.86401367 63.54516602 C7.3089863 66.50564125 7.3089863 66.50564125 8.52416992 69.44360352 C9.52577148 69.58668945 10.52737305 69.72977539 11.55932617 69.87719727 C17.54760742 70.73266602 23.53588867 71.58813477 29.52416992 72.44360352 C29.52416992 72.77360352 29.52416992 73.10360352 29.52416992 73.44360352 C19.26847326 74.21022536 11.85808869 72.36189026 2.52416992 68.44360352 C2.96807776 65.33624862 3.4930118 62.52937586 4.56713867 59.57250977 C5.72074015 55.80093922 5.86527422 52.28689059 5.83666992 48.38110352 C5.83393066 47.6125 5.83119141 46.84389648 5.82836914 46.05200195 C5.62716618 34.49323888 4.37119074 22.38058833 0.52416992 11.44360352 C0.1258386 9.09787461 -0.21772963 6.75627542 -0.52270508 4.39672852 C-1.36179744 2.16327505 -1.36179744 2.16327505 -4.10473633 1.18969727 C-7.73205173 0.38689629 -10.95096824 0.21233505 -14.66333008 0.25610352 C-15.87375977 0.26254883 -17.08418945 0.26899414 -18.33129883 0.27563477 C-21.50422319 0.3057486 -21.50422319 0.3057486 -24.47583008 1.44360352 C-24.26144287 2.62237061 -24.26144287 2.62237061 -24.04272461 3.82495117 C-22.33818634 14.21444685 -22.24260316 24.31855015 -22.35083008 34.81860352 C-22.36089071 36.53734824 -22.37001105 38.25609873 -22.37817383 39.97485352 C-22.39991846 44.13124954 -22.43427404 48.28736031 -22.47583008 52.44360352 C-23.13583008 52.11360352 -23.79583008 51.78360352 -24.47583008 51.44360352 C-24.43458008 50.49485352 -24.39333008 49.54610352 -24.35083008 48.56860352 C-24.1260919 45.34115496 -24.1260919 45.34115496 -26.47583008 43.44360352 C-28.45583008 44.10360352 -30.43583008 44.76360352 -32.47583008 45.44360352 C-38.63914053 39.58423714 -42.91291889 35.30945476 -43.47583008 26.44360352 C-43.11159167 15.07936511 -43.11159167 15.07936511 -40.47583008 12.44360352 C-35.51651894 17.56431236 -32.0031419 22.73402518 -28.83520508 29.12329102 C-27.54498865 31.71348342 -27.54498865 31.71348342 -24.47583008 33.44360352 C-24.17959492 22.61456264 -24.62687723 11.96676269 -27.47583008 1.44360352 C-24.23037535 -1.45246015 -21.90509129 -1.99746932 -17.60083008 -2.24389648 C-16.5927832 -2.30963867 -15.58473633 -2.37538086 -14.54614258 -2.44311523 C-4.49740335 -2.81387024 -4.49740335 -2.81387024 0 0 Z " fill="#4C4B4C" transform="translate(71.475830078125,31.556396484375)"/>
	

	<path d="M0 0 C4.875 0.875 4.875 0.875 6 2 C5.9140625 3.78515625 5.9140625 3.78515625 5.625 6.0625 C5.5321875 6.87847656 5.439375 7.69445313 5.34375 8.53515625 C5 11 5 11 4.53125 13.05859375 C3.22966863 19.27865089 5.70621987 22.83099991 9 28 C9.68306431 29.32500769 10.35521786 30.65594709 11 32 C11.66 32 12.32 32 13 32 C13.66 32.99 14.32 33.98 15 35 C17.41417872 35.58402133 17.41417872 35.58402133 20 35 C22.31377147 33.10415891 22.31377147 33.10415891 24 31 C25.5257079 33.93567244 26.19662801 35.33308644 25.2421875 38.5703125 C24.56542969 39.83488281 24.56542969 39.83488281 23.875 41.125 C23.43929687 41.97320312 23.00359375 42.82140625 22.5546875 43.6953125 C20.27632788 47.07278028 18.2275193 48.72101834 14.25 49.625 C7.68371047 48.36225201 3.48658229 42.99555719 -0.1875 37.6875 C-1.14851163 36.13934976 -2.08570602 34.5761913 -3 33 C-3.48855469 32.16984375 -3.97710938 31.3396875 -4.48046875 30.484375 C-8.41283263 23.30257879 -9.11389777 18.34342348 -6.8125 10.375 C-5.27252099 6.103039 -3.11013786 3.27825342 0 0 Z " fill="#E4E5E5" transform="translate(22,43)"/>
	

	<path d="M0 0 C1.43182617 -0.02416992 1.43182617 -0.02416992 2.89257812 -0.04882812 C3.81361328 -0.04947266 4.73464844 -0.05011719 5.68359375 -0.05078125 C6.5233374 -0.05376221 7.36308105 -0.05674316 8.22827148 -0.05981445 C11.04287389 0.38912067 12.43799132 1.46093699 14.5625 3.3125 C14.2325 4.6325 13.9025 5.9525 13.5625 7.3125 C12.65886719 7.43367188 11.75523438 7.55484375 10.82421875 7.6796875 C9.64472656 7.84726562 8.46523438 8.01484375 7.25 8.1875 C6.07824219 8.34992187 4.90648437 8.51234375 3.69921875 8.6796875 C0.41719105 9.13550621 0.41719105 9.13550621 -2.4375 11.3125 C-2.12823032 14.06289833 -1.8152116 16.81278178 -1.5 19.5625 C-1.41298828 20.33980469 -1.32597656 21.11710937 -1.23632812 21.91796875 C-1.14931641 22.67207031 -1.06230469 23.42617188 -0.97265625 24.203125 C-0.894104 24.89438477 -0.81555176 25.58564453 -0.73461914 26.29785156 C-0.47263116 28.32887226 -0.47263116 28.32887226 0.09204102 30.33496094 C0.80255876 33.32156898 0.62124319 36.2578543 0.5625 39.3125 C-0.7575 39.3125 -2.0775 39.3125 -3.4375 39.3125 C-4.99791804 37.212974 -6.24716386 35.27151986 -7.5 33 C-9.89744954 28.56013466 -9.89744954 28.56013466 -13.1328125 24.74609375 C-16.1606082 21.41914459 -15.44277977 15.5785558 -15.4375 11.3125 C-15.10995348 8.1895907 -14.70612501 5.19926915 -13.4375 2.3125 C-9.07711205 -0.5944253 -5.12801224 -0.01724281 0 0 Z " fill="#EDEEEE" transform="translate(46.4375,20.6875)"/>
	

	<path d="M0 0 C4.63461647 1.89597946 6.52979206 4.72799333 9 9 C9.97733579 11.95572213 10.56688517 14.94031322 11.125 18 C11.28967773 18.8650415 11.45435547 19.73008301 11.62402344 20.62133789 C14.20563596 34.89305424 15.49257864 49.49629574 15 64 C16.04800781 64.07347656 16.04800781 64.07347656 17.1171875 64.1484375 C18.02726562 64.22320312 18.93734375 64.29796875 19.875 64.375 C20.77992187 64.44460937 21.68484375 64.51421875 22.6171875 64.5859375 C25 65 25 65 27 67 C27.046875 69.53125 27.046875 69.53125 26.75 72.5 C26.66234375 73.4796875 26.5746875 74.459375 26.484375 75.46875 C26 78 26 78 24 80 C16.591021 80.12755774 9.12318937 78.98515114 2 77 C1.34 76.34 0.68 75.68 0 75 C0.2421875 72.19921875 0.2421875 72.19921875 0.875 68.6875 C2.69982915 57.07495086 2.10239363 46.51592017 0 35 C-0.29481598 33.2409767 -0.58904108 31.4818543 -0.8828125 29.72265625 C-1.21208735 27.83568315 -1.54282111 25.94896405 -1.875 24.0625 C-2.02420898 23.16208984 -2.17341797 22.26167969 -2.32714844 21.33398438 C-3.4614506 15.13127685 -4.99399744 10.69503677 -9.8125 6.375 C-10.4003125 5.694375 -10.4003125 5.694375 -11 5 C-10.8125 2.875 -10.8125 2.875 -10 1 C-6.8017988 -0.5991006 -3.4787562 -0.36195151 0 0 Z M-8 2 C-8.4702035 6.07015896 -8.4702035 6.07015896 -5.703125 8.30859375 C-1.6140255 12.90955162 -1.1407582 19.11536267 -0.11425781 24.9831543 C0.24544964 27.0365245 0.63174924 29.08337558 1.0234375 31.13085938 C3.22977563 42.92232379 4.61856822 54.35687023 3.0625 66.3125 C2.96259766 67.16005859 2.86269531 68.00761719 2.75976562 68.88085938 C2.5176059 70.92191993 2.26050147 72.96119925 2 75 C6.13546295 76.52684506 9.79228821 77.3006813 14.1875 77.5625 C17.41882191 77.76166324 19.91888012 77.97296004 23 79 C25.23194769 77.19114534 25.23194769 77.19114534 25.23046875 74.65234375 C25.21628906 73.75644531 25.20210937 72.86054687 25.1875 71.9375 C25.17783203 70.58978516 25.17783203 70.58978516 25.16796875 69.21484375 C25.24394743 67.02674401 25.24394743 67.02674401 24 66 C22.31816052 65.76712992 20.6287584 65.58735834 18.9375 65.4375 C18.01839844 65.35371094 17.09929687 65.26992187 16.15234375 65.18359375 C15.08693359 65.09271484 15.08693359 65.09271484 14 65 C14.02320312 64.37738281 14.04640625 63.75476563 14.0703125 63.11328125 C14.34831858 48.87539826 12.67105054 34.67707611 10.125 20.6875 C9.97579102 19.83486572 9.82658203 18.98223145 9.67285156 18.10375977 C8.58657551 12.49188885 6.8603806 7.96360163 4 3 C1.47524538 1.73762269 -0.31200466 1.90143596 -3.125 1.9375 C-4.03507812 1.94652344 -4.94515625 1.95554687 -5.8828125 1.96484375 C-6.93082031 1.98224609 -6.93082031 1.98224609 -8 2 Z " fill="#B4B4B5" transform="translate(78,23)"/>
	

	<path d="M0 0 C6.33813459 4.92966024 8.96030084 9.36225267 11.3515625 17.01171875 C11.95967171 19.04255198 11.95967171 19.04255198 13 21 C13.07033769 22.87379605 13.0843022 24.75001102 13.0625 26.625 C13.05347656 27.62789062 13.04445313 28.63078125 13.03515625 29.6640625 C13.02355469 30.43492188 13.01195312 31.20578125 13 32 C11.22265625 32.6953125 11.22265625 32.6953125 9 33 C3.81833354 29.41183527 -0.25620312 24.03717059 -1.75 17.9375 C-2.56338028 5.12676056 -2.56338028 5.12676056 0 0 Z " fill="#050405" transform="translate(30,44)"/>
	

	<path d="M0 0 C1.56911133 -0.04350586 1.56911133 -0.04350586 3.16992188 -0.08789062 C10.9792499 -0.15251269 10.9792499 -0.15251269 14.78125 2.34375 C15.4103125 2.9934375 16.039375 3.643125 16.6875 4.3125 C19.11888705 4.1040954 20.51600911 3.39824545 22.6875 2.3125 C27.36260142 1.88222518 31.45168873 1.79345926 35.8125 3.625 C36.740625 4.4603125 36.740625 4.4603125 37.6875 5.3125 C37.6875 6.3025 37.6875 7.2925 37.6875 8.3125 C37.254375 7.838125 36.82125 7.36375 36.375 6.875 C32.69330551 3.46602362 28.38376341 4.16341227 23.6875 4.3125 C23.0275 4.6425 22.3675 4.9725 21.6875 5.3125 C21.6875 6.9625 21.6875 8.6125 21.6875 10.3125 C22.6775 10.6425 23.6675 10.9725 24.6875 11.3125 C24.0275 11.6425 23.3675 11.9725 22.6875 12.3125 C21.6975 11.6525 20.7075 10.9925 19.6875 10.3125 C17.70460641 10.09648422 17.70460641 10.09648422 15.5625 10.265625 C14.37914062 10.32943359 14.37914062 10.32943359 13.171875 10.39453125 C12.35203125 10.44996094 11.5321875 10.50539063 10.6875 10.5625 C9.45773438 10.62244141 9.45773438 10.62244141 8.203125 10.68359375 C3.15863552 10.9565269 3.15863552 10.9565269 -1.3125 13.3125 C-1.0959375 14.48425781 -0.879375 15.65601563 -0.65625 16.86328125 C3.13085167 37.982445 3.13085167 37.982445 0.6875 45.3125 C-3.78920722 43.84685198 -5.21217222 40.43441996 -7.25 36.5 C-9.23026482 32.70217749 -10.85859219 29.73384627 -14.03515625 26.78515625 C-17.71495391 22.78976703 -16.86515923 19.03540952 -16.6796875 13.84765625 C-16.22083307 9.42996204 -15.44281344 5.25064824 -13.3125 1.3125 C-9.33883205 -0.67433397 -4.36929562 0.03993872 0 0 Z M-12.91796875 3.046875 C-15.33528766 6.97417182 -15.24602184 10.79198537 -15.3125 15.3125 C-15.32539063 16.1065625 -15.33828125 16.900625 -15.3515625 17.71875 C-15.11362135 23.06327435 -13.63722601 25.68264842 -9.9453125 29.47265625 C-7.09475488 32.6846482 -5.26154702 36.50927108 -3.3125 40.3125 C-1.9925 40.3125 -0.6725 40.3125 0.6875 40.3125 C0.78342533 35.35635787 0.43949684 30.65700307 -0.25 25.75 C-0.42402344 24.49058594 -0.59804688 23.23117188 -0.77734375 21.93359375 C-1.25239086 18.71922387 -1.76473768 15.51518239 -2.3125 12.3125 C3.05930176 9.68374595 7.73242601 8.7041035 13.6875 8.3125 C14.0175 6.9925 14.3475 5.6725 14.6875 4.3125 C10.10385852 0.33478006 6.01443487 0.83151541 0.1875 0.875 C-0.76253906 0.85501953 -1.71257813 0.83503906 -2.69140625 0.81445312 C-8.12210884 0.77722586 -8.12210884 0.77722586 -12.91796875 3.046875 Z " fill="#737273" transform="translate(46.3125,19.6875)"/>
	

	<path d="M0 0 C1.43182617 -0.02416992 1.43182617 -0.02416992 2.89257812 -0.04882812 C3.81361328 -0.04947266 4.73464844 -0.05011719 5.68359375 -0.05078125 C6.5233374 -0.05376221 7.36308105 -0.05674316 8.22827148 -0.05981445 C11.04287389 0.38912067 12.43799132 1.46093699 14.5625 3.3125 C14.2325 4.6325 13.9025 5.9525 13.5625 7.3125 C12.65886719 7.43367188 11.75523438 7.55484375 10.82421875 7.6796875 C9.64472656 7.84726562 8.46523438 8.01484375 7.25 8.1875 C6.07824219 8.34992187 4.90648437 8.51234375 3.69921875 8.6796875 C0.41719105 9.13550621 0.41719105 9.13550621 -2.4375 11.3125 C-2.12823032 14.06289833 -1.8152116 16.81278178 -1.5 19.5625 C-1.41298828 20.33980469 -1.32597656 21.11710937 -1.23632812 21.91796875 C-1.14931641 22.67207031 -1.06230469 23.42617188 -0.97265625 24.203125 C-0.894104 24.89438477 -0.81555176 25.58564453 -0.73461914 26.29785156 C-0.47263116 28.32887226 -0.47263116 28.32887226 0.09204102 30.33496094 C0.80255876 33.32156898 0.62124319 36.2578543 0.5625 39.3125 C-0.7575 39.3125 -2.0775 39.3125 -3.4375 39.3125 C-4.99791804 37.212974 -6.24716386 35.27151986 -7.5 33 C-9.89744954 28.56013466 -9.89744954 28.56013466 -13.1328125 24.74609375 C-16.1606082 21.41914459 -15.44277977 15.5785558 -15.4375 11.3125 C-15.10995348 8.1895907 -14.70612501 5.19926915 -13.4375 2.3125 C-9.07711205 -0.5944253 -5.12801224 -0.01724281 0 0 Z M-11.875 2.6875 C-15.41178632 8.62930102 -13.4104677 16.74496801 -12.4375 23.3125 C-11.4475 23.6425 -10.4575 23.9725 -9.4375 24.3125 C-7.83203125 27.03515625 -7.83203125 27.03515625 -6.25 30.375 C-5.72019531 31.47972656 -5.19039062 32.58445312 -4.64453125 33.72265625 C-4.24621094 34.57730469 -3.84789062 35.43195312 -3.4375 36.3125 C-2.7775 36.3125 -2.1175 36.3125 -1.4375 36.3125 C-2.08553679 31.50105057 -2.08553679 31.50105057 -3.0625 26.75 C-3.4375 24.3125 -3.4375 24.3125 -2.875 21.3125 C-2.37371454 17.87511402 -3.11850557 16.44511177 -4.4375 13.3125 C-4.375 11.125 -4.375 11.125 -3.4375 9.3125 C0.16744909 7.54851246 3.3937936 6.97529805 7.375 6.6875 C8.35082031 6.61273437 9.32664062 6.53796875 10.33203125 6.4609375 C11.06808594 6.41195313 11.80414063 6.36296875 12.5625 6.3125 C12.2325 4.9925 11.9025 3.6725 11.5625 2.3125 C9.37524749 2.14261631 7.18768299 1.97674731 5 1.8125 C3.78183594 1.7196875 2.56367187 1.626875 1.30859375 1.53125 C-5.53244155 0.8165395 -5.53244155 0.8165395 -11.875 2.6875 Z " fill="#B4B4B5" transform="translate(46.4375,20.6875)"/>
	

	<path d="M0 0 C1.33901367 0.04737305 1.33901367 0.04737305 2.70507812 0.09570312 C3.56166016 0.14017578 4.41824219 0.18464844 5.30078125 0.23046875 C6.07204346 0.26938232 6.84330566 0.3082959 7.63793945 0.34838867 C10.14097428 0.91518667 10.94709684 1.99422782 12.6875 3.8125 C15.36229327 3.55154456 17.28845141 3.0120243 19.6875 1.8125 C25.15588579 1.383607 28.91471056 2.07256532 33.6875 4.8125 C38.9050716 9.88905615 41.57132537 17.42232204 41.76171875 24.6171875 C41.72498047 25.70386719 41.72498047 25.70386719 41.6875 26.8125 C39.02055773 22.8120866 38.14414985 18.64983347 36.8828125 14.0390625 C35.61162354 10.60768316 34.20854861 8.44857745 31.6875 5.8125 C28.76095473 4.83698491 26.74095004 4.64771912 23.6875 4.625 C22.82125 4.61082031 21.955 4.59664062 21.0625 4.58203125 C18.42028463 4.64994062 18.42028463 4.64994062 15.6875 6.8125 C13.0963138 6.56174005 11.88097612 5.97749433 9.89306641 4.28222656 C7.16389845 2.46358685 5.59139087 2.45165688 2.3359375 2.484375 C1.32015625 2.48953125 0.304375 2.4946875 -0.7421875 2.5 C-1.79664062 2.520625 -2.85109375 2.54125 -3.9375 2.5625 C-5.53078125 2.57023437 -5.53078125 2.57023437 -7.15625 2.578125 C-12.40208684 2.40776253 -12.40208684 2.40776253 -17.3125 3.8125 C-19.20408457 9.4872537 -19.45639544 14.43681665 -19.1875 20.39453125 C-19.3125 22.8125 -19.3125 22.8125 -21.3125 25.8125 C-21.9725 25.4825 -22.6325 25.1525 -23.3125 24.8125 C-23.07227861 23.16526761 -22.83175504 21.51807881 -22.58984375 19.87109375 C-22.32140576 17.87860335 -22.1281129 15.87643541 -21.9375 13.875 C-21.3587276 9.57195299 -20.72293938 5.49814949 -18.3125 1.8125 C-12.13051481 -0.38939809 -6.49247351 -0.37852798 0 0 Z " fill="#393738" transform="translate(50.3125,18.1875)"/>
	

	<path d="M0 0 C3.71462161 0.10039518 4.96456301 0.96778455 7.75 3.5 C8.86375 4.7375 8.86375 4.7375 10 6 C10.33 6.33 10.66 6.66 11 7 C11.04063832 8.66617115 11.042721 10.33388095 11 12 C8.8535247 11.88655624 6.70779408 11.75893655 4.5625 11.625 C3.36753906 11.55539062 2.17257813 11.48578125 0.94140625 11.4140625 C-0.02925781 11.27742187 -0.99992187 11.14078125 -2 11 C-3.55932272 7.88135455 -2.65549131 5.33704665 -2 2 C-1.34 1.34 -0.68 0.68 0 0 Z " fill="#595758" transform="translate(117,2)"/>
	

	<path d="M0 0 C5.625 -0.25 5.625 -0.25 9 2 C8.9698293 5.54128539 8.6463524 8.92821405 8.23828125 12.43945312 C7.6448485 18.82725287 8.89327391 23.18952814 12.82421875 28.43359375 C13.43910156 29.09488281 14.05398437 29.75617188 14.6875 30.4375 C15.31011719 31.11683594 15.93273437 31.79617187 16.57421875 32.49609375 C17.04472656 32.99238281 17.51523437 33.48867187 18 34 C20.475 33.505 20.475 33.505 23 33 C22.34 34.32 21.68 35.64 21 37 C19.35 37 17.7 37 16 37 C15.34 35.68 14.68 34.36 14 33 C13.34 33 12.68 33 12 33 C10.5625 31.171875 10.5625 31.171875 9 28.75 C8.484375 27.96109375 7.96875 27.1721875 7.4375 26.359375 C4.18671818 21.02385267 4.01022164 18.16459786 5 12 C5.19626351 10.33434257 5.38391746 8.66764574 5.5625 7 C5.64628906 6.236875 5.73007812 5.47375 5.81640625 4.6875 C5.87699219 4.130625 5.93757813 3.57375 6 3 C2.41672247 1.99782936 2.41672247 1.99782936 -1 3 C-0.67 2.01 -0.34 1.02 0 0 Z " fill="#4F4D4E" transform="translate(21,42)"/>
	

	<path d="M0 0 C0.86625 1.11375 0.86625 1.11375 1.75 2.25 C3.72253526 4.66087643 5.76044282 6.84042701 8 9 C8.33 8.01 8.66 7.02 9 6 C9.33 6 9.66 6 10 6 C10 13.26 10 20.52 10 28 C9.34 27.67 8.68 27.34 8 27 C8.04125 26.05125 8.0825 25.1025 8.125 24.125 C8.34973818 20.89755144 8.34973818 20.89755144 6 19 C5.34 19 4.68 19 4 19 C3.96261719 18.34773438 3.92523438 17.69546875 3.88671875 17.0234375 C3.48041537 11.62199257 2.68940778 7.79416169 0 3 C0 2.01 0 1.02 0 0 Z " fill="#413F40" transform="translate(39,56)"/>
	

	<path d="M0 0 C2.53092747 3.01764429 4.71737527 6.11226182 6.8125 9.4375 C10.27587045 14.65436531 13.79734625 19.29541618 20.125 20.6875 C24.08693905 19.74007979 25.49249327 18.18521125 28 15 C29.18968799 12.69676405 30.09168763 10.43810163 31 8 C31.98401634 11.06138418 32.26948477 13.00764305 31 16 C28.5625 18.75 28.5625 18.75 26 21 C25.34 21 24.68 21 24 21 C24 21.66 24 22.32 24 23 C16.74174582 23.61510629 16.74174582 23.61510629 13.4375 20.875 C12.633125 19.92625 11.82875 18.9775 11 18 C9.82078082 17.07270492 8.63273625 16.15655631 7.4375 15.25 C3.46295159 11.90894948 1.50963789 7.92273225 0 3 C0 2.01 0 1.02 0 0 Z " fill="#5A595A" transform="translate(16,71)"/>
	

	<path d="M0 0 C1.65 0.33 3.3 0.66 5 1 C5 1.33 5 1.66 5 2 C4.236875 2.0825 3.47375 2.165 2.6875 2.25 C-0.67766484 3.18911577 -1.22566851 4.03300492 -3 7 C-5.2378417 15.39713499 -5.45897642 22.0745783 -2 30 C-1.62770641 31.65839874 -1.2706431 33.32201275 -1 35 C-5.67945451 29.67510349 -8.60923122 24.37992646 -8.28515625 17.109375 C-7.33578195 10.08660621 -4.84337833 5.10518256 0 0 Z " fill="#B4B4B5" transform="translate(22,43)"/>
	

	<path d="M0 0 C4.29 0 8.58 0 13 0 C13 2.97 13 5.94 13 9 C11 7.625 11 7.625 9 6 C9 5.34 9 4.68 9 4 C6.6739143 3.61936779 4.33944736 3.28730055 2 3 C0.03177114 4.96822886 0.33751619 8.34808709 0 11 C-0.66 10.67 -1.32 10.34 -2 10 C-1.125 2.25 -1.125 2.25 0 0 Z " fill="#393738" transform="translate(115,0)"/>
	

	<path d="M0 0 C2.9375 0.125 2.9375 0.125 6 1 C7.375 3.5625 7.375 3.5625 8 6 C5.75 7.125 5.75 7.125 3 8 C0.6875 7.125 0.6875 7.125 -1 6 C-1.042721 4.33388095 -1.04063832 2.66617115 -1 1 C-0.67 0.67 -0.34 0.34 0 0 Z " fill="#CFCFD0" transform="translate(117,4)"/>
	

	<path d="M0 0 C0.99 0 1.98 0 3 0 C3 2.97 3 5.94 3 9 C0.36 9 -2.28 9 -5 9 C-3.76067171 5.56801397 -2.49698489 2.69674368 0 0 Z " fill="#A9A9AA" transform="translate(125,119)"/>
	

	<path d="M0 0 C5.625 -0.25 5.625 -0.25 9 2 C8.855625 2.75023437 8.71125 3.50046875 8.5625 4.2734375 C7.35438207 10.93486552 6.73054632 17.23371881 7 24 C4.43691606 21.00753344 3.96930122 20.45280698 4.25 16.3125 C4.49645608 14.87438816 4.7467199 13.43692569 5 12 C5.19880987 10.33464458 5.38651455 8.66792181 5.5625 7 C5.64628906 6.236875 5.73007812 5.47375 5.81640625 4.6875 C5.87699219 4.130625 5.93757813 3.57375 6 3 C2.41672247 1.99782936 2.41672247 1.99782936 -1 3 C-0.67 2.01 -0.34 1.02 0 0 Z " fill="#737273" transform="translate(21,42)"/>
	

	

	<path d="M0 0 C0.99 0.99 1.98 1.98 3 3 C2.01 5.97 1.02 8.94 0 12 C-1.09658936 8.71023192 -0.79953138 7.28696233 0 4 C-0.556875 4.515625 -1.11375 5.03125 -1.6875 5.5625 C-4 7 -4 7 -6.75 6.6875 C-7.4925 6.460625 -8.235 6.23375 -9 6 C-8.67 5.34 -8.34 4.68 -8 4 C-7.236875 4.0825 -6.47375 4.165 -5.6875 4.25 C-2.85416667 4.29166667 -2.85416667 4.29166667 -1.1875 2 C-0.795625 1.34 -0.40375 0.68 0 0 Z " fill="#B4B4B5" transform="translate(45,74)"/>
	

	

	

	

	

</svg>
