<?xml version="1.0" encoding="iso-8859-1"?>
<svg height="128" version="1.1" width="128" xmlns="http://www.w3.org/2000/svg">
	

	<path d="M0 0 C42.24 0 84.48 0 128 0 C128 42.24 128 84.48 128 128 C85.76 128 43.52 128 0 128 C0 85.76 0 43.52 0 0 Z " fill="#FCFCFC" transform="translate(0,0)"/>
	

	<path d="M0 0 C1.33732178 0.00616333 1.33732178 0.00616333 2.70166016 0.01245117 C4.24237183 0.01426392 4.24237183 0.01426392 5.81420898 0.01611328 C6.9449585 0.02908447 8.07570801 0.04205566 9.24072266 0.05541992 C11.0054895 0.06617554 11.0054895 0.06617554 12.8059082 0.07714844 C23.09870216 0.16683586 33.38883786 0.40790039 43.67822266 0.68041992 C44.43182068 0.69988678 45.1854187 0.71935364 45.96185303 0.7394104 C50.9314818 0.87127373 55.89847001 1.04093578 60.86572266 1.24291992 C61.53392029 1.26751282 62.20211792 1.29210571 62.89056396 1.31744385 C64.80353368 1.39293181 66.71555797 1.49131248 68.62744141 1.59057617 C69.71371826 1.6435083 70.79999512 1.69644043 71.91918945 1.75097656 C75.21206912 2.30074477 77.19048526 3.26835426 79.86572266 5.24291992 C80.86962891 7.55541992 80.86962891 7.55541992 81.42822266 10.24291992 C82.25814689 14.08918948 83.36849534 17.65999376 84.76025391 21.33276367 C87.00356009 27.38902438 88.53915442 33.51913102 89.99072266 39.80541992 C90.24208984 40.86438477 90.49345703 41.92334961 90.75244141 43.0144043 C91.47554546 46.08665004 92.17462462 49.16333445 92.86572266 52.24291992 C93.08325195 53.17604004 93.30078125 54.10916016 93.52490234 55.07055664 C93.71729492 55.94083496 93.9096875 56.81111328 94.10791016 57.70776367 C94.27919434 58.46565186 94.45047852 59.22354004 94.62695312 60.00439453 C94.9073839 62.63350474 94.54686464 64.69749941 93.86572266 67.24291992 C93.53572266 67.57291992 93.20572266 67.90291992 92.86572266 68.24291992 C92.6870926 69.75502245 92.56621453 71.27405208 92.47119141 72.79370117 C92.40222656 73.71989258 92.33326172 74.64608398 92.26220703 75.6003418 C92.12376494 77.55793881 91.99601834 79.51632389 91.87939453 81.4753418 C91.32107312 88.6050568 91.32107312 88.6050568 88.95556641 91.91870117 C86.86572266 93.24291992 86.86572266 93.24291992 84.24072266 93.11791992 C81.86572266 92.24291992 81.86572266 92.24291992 79.86572266 90.24291992 C79.64916016 89.00541992 79.64916016 89.00541992 79.42822266 87.74291992 C79.08916706 84.89355463 79.08916706 84.89355463 75.86572266 83.24291992 C74.58254373 79.39338316 74.79928628 76.29553857 74.86572266 72.24291992 C70.75399706 72.21826247 66.64229988 72.20008034 62.53051758 72.18798828 C61.13077037 72.18294913 59.73102846 72.17611776 58.33129883 72.16748047 C56.32326489 72.15539672 54.31519308 72.15022186 52.30712891 72.14526367 C51.09742432 72.14002686 49.88771973 72.13479004 48.64135742 72.12939453 C45.95760249 71.92516707 45.95760249 71.92516707 44.86572266 73.24291992 C44.42925206 80.08523836 45.04615889 86.83390587 45.93994141 93.61401367 C45.84934232 96.82312869 45.07199847 97.96413739 42.86572266 100.24291992 C40.55322266 101.30541992 40.55322266 101.30541992 37.86572266 101.24291992 C32.2973492 97.49497625 32.2973492 97.49497625 31.21362305 94.35131836 C30.84549229 92.12031682 30.65615035 89.95481969 30.54931641 87.69604492 C30.48647461 86.42954102 30.48647461 86.42954102 30.42236328 85.13745117 C30.38304687 84.26475586 30.34373047 83.39206055 30.30322266 82.49291992 C30.26003906 81.60475586 30.21685547 80.7165918 30.17236328 79.80151367 C30.0665865 77.61546029 29.96449719 75.42929903 29.86572266 73.24291992 C26.92858797 71.77435258 23.92928638 72.0254184 20.70556641 71.96166992 C20.00049454 71.9432605 19.29542267 71.92485107 18.56898499 71.90588379 C15.54720413 71.8270989 12.52519935 71.75931977 9.50317383 71.69067383 C7.29968858 71.63906109 5.09640174 71.58177717 2.89306641 71.52416992 C2.20454086 71.51059448 1.51601532 71.49701904 0.80662537 71.48303223 C-4.02144656 71.3557507 -4.02144656 71.3557507 -5.13427734 70.24291992 C-5.23455156 67.44114026 -5.27301023 64.6694288 -5.25927734 61.86791992 C-5.26314453 61.08674805 -5.26701172 60.30557617 -5.27099609 59.50073242 C-5.26528649 56.16632533 -5.19558739 53.42685006 -4.13427734 50.24291992 C0.14353825 49.18175636 4.24193829 49.17062201 8.61572266 49.24291992 C17.32388964 49.31289705 26.02043202 49.12824063 34.72399902 48.87060547 C36.17928141 48.82756838 37.63460422 48.78587466 39.08996582 48.74560547 C45.62146286 48.56320545 52.15643725 48.36630765 58.67431641 47.89526367 C59.42382568 47.84233154 60.17333496 47.78939941 60.94555664 47.73486328 C63.3820916 47.11062705 64.34658508 46.22685947 65.86572266 44.24291992 C66.30547331 41.18031835 66.30547331 41.18031835 66.17822266 37.80541992 C66.17435547 36.67233398 66.17048828 35.53924805 66.16650391 34.37182617 C65.88028088 31.39436323 65.58043959 29.66875692 63.86572266 27.24291992 C60.21803764 26.02702492 56.73417926 25.92135582 52.92822266 25.74291992 C52.13407959 25.70231445 51.33993652 25.66170898 50.52172852 25.61987305 C47.96990721 25.49027572 45.41784311 25.3664719 42.86572266 25.24291992 C41.20945307 25.15997684 39.55320279 25.0766472 37.89697266 24.99291992 C36.66841553 24.93116577 36.66841553 24.93116577 35.41503906 24.86816406 C33.75323232 24.78447008 32.09144845 24.70032081 30.4296875 24.61572266 C26.16155774 24.4001983 21.8936318 24.20062943 17.62353516 24.02807617 C16.34724243 23.97200195 16.34724243 23.97200195 15.04516602 23.91479492 C13.43688839 23.84420529 11.82831487 23.77993933 10.21948242 23.72338867 C5.47274835 23.5059411 1.33441602 22.91372416 -3.13427734 21.24291992 C-5.68555259 17.41600705 -5.21764495 14.56459157 -4.88427734 10.18041992 C-4.82433594 9.08117187 -4.82433594 9.08117187 -4.76318359 7.9597168 C-4.25521366 0.48432139 -4.25521366 0.48432139 0 0 Z " fill="#776F81" transform="translate(24.13427734375,16.757080078125)"/>
	

	<path d="M0 0 C0.99676758 0.00467285 1.99353516 0.0093457 3.02050781 0.01416016 C4.59493652 0.01923584 4.59493652 0.01923584 6.20117188 0.02441406 C10.2870209 0.04852764 14.37238732 0.09044328 18.45800781 0.13916016 C19.38224548 0.15011719 20.30648315 0.16107422 21.25872803 0.17236328 C27.64715802 0.25114161 34.03511755 0.34736745 40.42306519 0.45855713 C42.61143097 0.4955988 44.79985073 0.52957957 46.98831177 0.56048584 C50.10866769 0.60588765 53.22855145 0.6639081 56.34863281 0.72509766 C57.29357101 0.73665894 58.23850922 0.74822021 59.21208191 0.76013184 C67.85182852 0.95495725 67.85182852 0.95495725 71.45800781 3.13916016 C72.63378906 6.36962891 72.63378906 6.36962891 73.45800781 10.13916016 C74.17839151 12.24634992 74.90816052 14.3503462 75.64550781 16.45166016 C78.09372828 23.668613 80.18081972 30.98169254 82.20800781 38.32666016 C82.51375732 39.40665283 82.81950684 40.48664551 83.13452148 41.59936523 C88.23076001 60.38182751 88.23076001 60.38182751 84.45800781 67.13916016 C84.54058728 69.34662636 84.54058728 69.34662636 85.02050781 71.57666016 C85.64344566 75.85323349 84.87065255 77.52019305 82.45800781 81.13916016 C82.85198117 83.77720605 82.85198117 83.77720605 83.45800781 86.13916016 C81.45800781 88.13916016 81.45800781 88.13916016 79.02050781 88.26416016 C76.45800781 87.13916016 76.45800781 87.13916016 75.53613281 85.49462891 C74.74948816 83.395572 74.0831542 81.2915629 73.45800781 79.13916016 C73.10738281 78.08728516 72.75675781 77.03541016 72.39550781 75.95166016 C71.79134115 74.13916016 71.18717448 72.32666016 70.58300781 70.51416016 C69.5870993 68.03402298 69.5870993 68.03402298 67.49707031 66.31103516 C60.18175223 58.51924042 62.24216431 43.89106372 62.48046875 34.078125 C62.50270508 32.98322754 62.52494141 31.88833008 62.54785156 30.76025391 C62.57741943 29.77468506 62.6069873 28.78911621 62.63745117 27.77368164 C62.44610048 24.96434108 62.14361588 23.39771852 60.45800781 21.13916016 C58.53983524 20.45695762 58.53983524 20.45695762 56.16503906 20.44775391 C54.68124756 20.36436768 54.68124756 20.36436768 53.16748047 20.27929688 C51.3312915 20.2099292 51.3312915 20.2099292 49.45800781 20.13916016 C47.88942826 20.06633037 46.32090989 19.99217588 44.75244141 19.91699219 C38.26324385 19.61481474 31.77275199 19.3435837 25.28149414 19.08959961 C14.21760085 18.65190504 3.38501988 18.04016565 -7.54199219 16.13916016 C-7.56884314 13.65992215 -7.58875766 11.18097176 -7.60449219 8.70166016 C-7.61706055 7.64108398 -7.61706055 7.64108398 -7.62988281 6.55908203 C-7.63852806 4.75222456 -7.5941923 2.94528413 -7.54199219 1.13916016 C-5.59440736 -0.80842467 -2.59445161 0.00618406 0 0 Z " fill="#F41208" transform="translate(29.5419921875,19.86083984375)"/>
	

	<path d="M0 0 C0.17390259 0.83978394 0.17390259 0.83978394 0.35131836 1.6965332 C0.87819053 4.23557785 1.40781431 6.77404088 1.9375 9.3125 C2.21110352 10.63411133 2.21110352 10.63411133 2.49023438 11.98242188 C2.66748047 12.82998047 2.84472656 13.67753906 3.02734375 14.55078125 C3.18968506 15.33106689 3.35202637 16.11135254 3.51928711 16.9152832 C4.00566604 19.1752971 4.00566604 19.1752971 5 22 C4.00742188 21.98839844 3.01484375 21.97679688 1.9921875 21.96484375 C0.61979803 21.95481638 -0.75259885 21.94577594 -2.125 21.9375 C-2.84405518 21.93129639 -3.56311035 21.92509277 -4.30395508 21.91870117 C-7.90158936 21.9111954 -11.42700363 21.99593533 -15.00390625 22.3984375 C-18.38385578 22.7783682 -21.60050273 23.13431256 -25 23 C-28.0625 20.5 -28.0625 20.5 -30 18 C-32.70441532 17.74058283 -32.70441532 17.74058283 -35 19 C-36.15598532 21.01463935 -36.15598532 21.01463935 -37 23 C-41.82398914 22.88204571 -46.64775958 22.75781982 -51.47143555 22.62768555 C-53.11364303 22.58427703 -54.75589739 22.54260642 -56.39819336 22.50268555 C-58.75388745 22.4451256 -61.10934428 22.38139108 -63.46484375 22.31640625 C-64.20339096 22.29969376 -64.94193817 22.28298126 -65.7028656 22.26576233 C-70.88612829 22.11387171 -70.88612829 22.11387171 -72 21 C-72.12682623 18.52836314 -72.18520251 16.09709389 -72.1875 13.625 C-72.20586914 12.59632812 -72.20586914 12.59632812 -72.22460938 11.546875 C-72.23552331 7.80703203 -72.1266842 6.1900263 -70 3 C-67.531519 2.74330886 -65.316434 2.67566487 -62.8515625 2.7421875 C-62.13117294 2.7492572 -61.41078339 2.7563269 -60.66856384 2.76361084 C-59.12288638 2.77990262 -57.57726667 2.80271401 -56.0317688 2.83135986 C-52.02276395 2.90405215 -48.01343156 2.92564304 -44.00390625 2.953125 C-42.82359077 2.96304977 -42.82359077 2.96304977 -41.61943054 2.97317505 C-29.405684 3.0629047 -17.23050402 2.76410194 -5.21484375 0.40234375 C-3 0 -3 0 0 0 Z " fill="#17498B" transform="translate(92,65)"/>
	

	<path d="M0 0 C2.57598877 -0.36749268 2.57598877 -0.36749268 5.87988281 -0.35644531 C7.11587219 -0.35944641 8.35186157 -0.36244751 9.62530518 -0.36553955 C10.9845825 -0.35351758 12.34385581 -0.34103382 13.703125 -0.328125 C15.10162147 -0.32506427 16.50012099 -0.32319054 17.89862061 -0.32244873 C20.84105995 -0.31783654 23.78322704 -0.3033945 26.72558594 -0.28125 C30.45712917 -0.25327952 34.18845547 -0.24207004 37.92009354 -0.2375679 C41.51446416 -0.23234442 45.10878301 -0.21783739 48.703125 -0.203125 C49.7056216 -0.20030392 49.7056216 -0.20030392 50.72837067 -0.19742584 C57.68540116 -0.17218724 64.63294693 -0.03776384 71.58105469 0.32519531 C72.67278992 0.38137024 73.76452515 0.43754517 74.88934326 0.49542236 C79.60351468 1.26010509 82.95123516 2.86134103 86.1875 6.375 C88.64799493 10.4521011 89.31825934 15.14439251 90.28125 19.75 C91.04005362 23.18111202 92.05093735 26.41076053 93.25390625 29.70703125 C94.35492709 33.09079688 95.15563693 36.5455866 96 40 C96.42945918 41.69797443 96.85915776 43.39588832 97.2890625 45.09375 C97.73495725 46.89568935 98.18026153 48.69777492 98.625 50.5 C98.85445313 51.39847656 99.08390625 52.29695313 99.3203125 53.22265625 C100.63937254 58.61666962 101.52848877 63.44472265 101 69 C100.5042749 69.46994385 100.0085498 69.9398877 99.49780273 70.42407227 C97.46450233 72.56342909 97.6575523 73.83531481 97.69921875 76.74609375 C97.68665039 78.12571289 97.68665039 78.12571289 97.67382812 79.53320312 C97.68292475 81.46558569 97.70371285 83.39794941 97.73632812 85.33007812 C97.70076818 88.00456059 97.614564 90.39544613 97 93 C94.10546875 95.67578125 94.10546875 95.67578125 91 97 C88.625 96.75 88.625 96.75 87 96 C87.8971875 95.5978125 87.8971875 95.5978125 88.8125 95.1875 C91.07693525 93.95823515 92.37882553 92.99314566 94 91 C94.56031771 88.72351233 94.56031771 88.72351233 94.66015625 86.18359375 C94.73169922 85.25482422 94.80324219 84.32605469 94.87695312 83.36914062 C94.93818359 82.40169922 94.99941406 81.43425781 95.0625 80.4375 C95.19108107 78.51896852 95.32742319 76.60093657 95.47265625 74.68359375 C95.52687744 73.83337646 95.58109863 72.98315918 95.63696289 72.10717773 C96 70 96 70 98 68 C97.73824689 64.70713014 97.73824689 64.70713014 97 61 C96.80921875 59.82824219 96.6184375 58.65648437 96.421875 57.44921875 C94.03818247 44.10331233 90.73481577 31.06363792 85.83203125 18.40625 C84.74064942 15.24995326 84.16494989 12.07771615 83.6875 8.77734375 C83.14777265 6.86581959 83.14777265 6.86581959 81.34301758 5.92578125 C71.77829517 2.14653488 58.1054225 3.70465568 47.8125 3.4375 C46.65118057 3.40623016 46.65118057 3.40623016 45.46640015 3.37432861 C34.74865289 3.08903557 24.03420261 2.89913645 13.3125 2.875 C11.60380737 2.86811157 11.60380737 2.86811157 9.8605957 2.86108398 C8.83023193 2.86309814 7.79986816 2.8651123 6.73828125 2.8671875 C5.84149658 2.86831543 4.94471191 2.86944336 4.02075195 2.87060547 C2.0034151 2.77642621 2.0034151 2.77642621 1 4 C0.70847661 6.63254459 0.48471306 9.23439972 0.3125 11.875 C0.25255859 12.60847656 0.19261719 13.34195312 0.13085938 14.09765625 C-0.12972055 18.01706396 -0.23771586 19.6434262 2 23 C6.72251115 24.19339193 11.5987045 24.27449749 16.44921875 24.5 C17.26131302 24.54060547 18.07340729 24.58121094 18.91011047 24.62304688 C21.50242472 24.75196608 24.09494062 24.87611849 26.6875 25 C28.37827128 25.08300651 30.06902668 25.16633726 31.75976562 25.25 C32.59557159 25.29108887 33.43137756 25.33217773 34.29251099 25.37451172 C35.97948809 25.45812953 37.66639922 25.5430892 39.35324097 25.62939453 C43.69023794 25.84910299 48.02538564 26.03921522 52.36572266 26.1796875 C53.66350395 26.22899414 53.66350395 26.22899414 54.98750305 26.27929688 C56.63325965 26.34150157 58.27947335 26.392887 59.9259491 26.43164062 C64.14984033 26.60463943 67.04235623 26.81854218 70 30 C71.1568007 33.4704021 71.24013264 36.34354382 71.3125 40 C71.36857422 41.85625 71.36857422 41.85625 71.42578125 43.75 C71 47 71 47 69.24047852 48.66235352 C66.8555845 50.08622126 65.47111544 50.45621896 62.7265625 50.65234375 C61.84516602 50.71663574 60.96376953 50.78092773 60.05566406 50.84716797 C53.83011366 51.15854497 47.60557366 51.38862394 41.375 51.5625 C40.29848679 51.59426834 40.29848679 51.59426834 39.20022583 51.62667847 C26.12929421 52.01014086 13.07735125 52.08224749 0 52 C0 58.6 0 65.2 0 72 C3.41279297 72.07347656 3.41279297 72.07347656 6.89453125 72.1484375 C9.09878092 72.20245239 11.30292218 72.25975777 13.50708008 72.31738281 C15.03857339 72.35565798 16.57015615 72.39051349 18.10180664 72.421875 C20.3038733 72.46755807 22.50532496 72.52554537 24.70703125 72.5859375 C25.39150833 72.59748871 26.07598541 72.60903992 26.78120422 72.62094116 C30.38460837 72.73273744 31.9159183 72.94394553 35 75 C35.40063477 76.8918457 35.40063477 76.8918457 35.44140625 79.17578125 C35.46783203 80.00400391 35.49425781 80.83222656 35.52148438 81.68554688 C35.53501953 82.55244141 35.54855469 83.41933594 35.5625 84.3125 C35.45351251 93.30850218 35.45351251 93.30850218 39.8125 100.8125 C42.39996882 102.21712593 44.09806958 102.24182753 47 102 C46.67 102.66 46.34 103.32 46 104 C37.76765376 103.0501139 37.76765376 103.0501139 35 101 C32.44207157 96.22198275 32.33185969 90.98632351 31.875 85.6875 C31.78863281 84.75615234 31.70226563 83.82480469 31.61328125 82.86523438 C31.40209195 80.57735027 31.19788734 78.28906654 31 76 C29.9805127 75.98541748 28.96102539 75.97083496 27.91064453 75.95581055 C24.13456834 75.89791534 20.35909404 75.82068335 16.58349609 75.73754883 C14.94817866 75.70425786 13.31274518 75.67623894 11.67724609 75.65356445 C9.32859757 75.62009372 6.98101663 75.56778564 4.6328125 75.51171875 C3.89942657 75.50532883 3.16604065 75.4989389 2.41043091 75.49235535 C0.34814453 75.43237305 0.34814453 75.43237305 -3 75 C-5.73185945 70.90221083 -5.15016684 67.96852393 -4.875 63.1875 C-4.85179687 62.39279297 -4.82859375 61.59808594 -4.8046875 60.77929688 C-4.7634375 60.00005859 -4.7221875 59.22082031 -4.6796875 58.41796875 C-4.64601074 57.71438232 -4.61233398 57.0107959 -4.57763672 56.28588867 C-3.62941766 52.53349008 -2.78234566 50.79539444 0 48 C4.26056259 47.08320318 8.48074541 47.18703133 12.82421875 47.23046875 C14.08136185 47.21913406 15.33850494 47.20779938 16.63374329 47.19612122 C19.96964525 47.1705713 23.30356462 47.17016098 26.6394043 47.18273926 C31.35079476 47.19369076 36.06212197 47.15539217 40.77339172 47.12532043 C43.28181489 47.11221896 45.79029815 47.10755624 48.29875183 47.11186218 C49.42694839 47.11128311 50.55514496 47.11070404 51.7175293 47.11010742 C52.71584274 47.11266037 53.71415619 47.11521332 54.74272156 47.11784363 C56.96899663 47.25409673 56.96899663 47.25409673 58 46 C48.7515779 44.06388173 40.69941123 43.79058393 31.3125 44.5 C21.21681841 45.23142183 11.11630492 45.09011372 1 45 C0.4375 43.0625 0.4375 43.0625 0 41 C1 40 1 40 2.75460815 39.92443848 C3.51862946 39.94744019 4.28265076 39.97044189 5.06982422 39.99414062 C5.93517792 40.0174646 6.80053162 40.04078857 7.69210815 40.06481934 C8.63675934 40.09499146 9.58141052 40.12516357 10.5546875 40.15625 C12.55208214 40.20968008 14.54947801 40.26306396 16.546875 40.31640625 C19.69765202 40.40674936 22.84835515 40.49920457 25.99902344 40.59326172 C29.03828646 40.68219934 32.07769129 40.76323685 35.1171875 40.84375 C36.04159637 40.87392212 36.96600525 40.90409424 37.91842651 40.93518066 C43.55419861 41.08174352 49.02905122 40.82536561 54.63645935 40.23377991 C57.49507176 39.95103201 60.31626735 39.90021126 63.1875 39.9375 C64.775625 39.958125 66.36375 39.97875 68 40 C67.505 34.555 67.505 34.555 67 29 C65.31261719 29.01933594 63.62523438 29.03867187 61.88671875 29.05859375 C54.83197855 29.05756069 47.84488773 28.58607587 40.8125 28.0625 C33.07328916 27.49815742 25.35259718 26.96974173 17.59375 26.78515625 C16.44801514 26.75607178 15.30228027 26.7269873 14.12182617 26.69702148 C11.95822471 26.64993462 9.79420099 26.61882849 7.63012695 26.60571289 C6.18319458 26.57272095 6.18319458 26.57272095 4.70703125 26.5390625 C3.8663208 26.53084473 3.02561035 26.52262695 2.15942383 26.51416016 C0 26 0 26 -1.77368164 24.09179688 C-3.14581771 21.75127093 -3.34903185 20.55876322 -3.25 17.875 C-3.22164062 17.09640625 -3.19328125 16.3178125 -3.1640625 15.515625 C-3.10992188 14.68546875 -3.05578125 13.8553125 -3 13 C-2.94585938 12.10796875 -2.89171875 11.2159375 -2.8359375 10.296875 C-2.29477612 3.44216418 -2.29477612 3.44216418 0 0 Z " fill="#E9C9C5" transform="translate(20,15)"/>
	

	<path d="M0 0 C1.33732178 0.00616333 1.33732178 0.00616333 2.70166016 0.01245117 C4.24237183 0.01426392 4.24237183 0.01426392 5.81420898 0.01611328 C6.9449585 0.02908447 8.07570801 0.04205566 9.24072266 0.05541992 C11.0054895 0.06617554 11.0054895 0.06617554 12.8059082 0.07714844 C23.09870216 0.16683586 33.38883786 0.40790039 43.67822266 0.68041992 C44.43182068 0.69988678 45.1854187 0.71935364 45.96185303 0.7394104 C50.9314818 0.87127373 55.89847001 1.04093578 60.86572266 1.24291992 C61.53392029 1.26751282 62.20211792 1.29210571 62.89056396 1.31744385 C64.80353368 1.39293181 66.71555797 1.49131248 68.62744141 1.59057617 C69.71371826 1.6435083 70.79999512 1.69644043 71.91918945 1.75097656 C75.21206912 2.30074477 77.19048526 3.26835426 79.86572266 5.24291992 C80.86962891 7.55541992 80.86962891 7.55541992 81.42822266 10.24291992 C82.25814689 14.08918948 83.36849534 17.65999376 84.76025391 21.33276367 C87.00356009 27.38902438 88.53915442 33.51913102 89.99072266 39.80541992 C90.24208984 40.86438477 90.49345703 41.92334961 90.75244141 43.0144043 C91.47554546 46.08665004 92.17462462 49.16333445 92.86572266 52.24291992 C93.08325195 53.17604004 93.30078125 54.10916016 93.52490234 55.07055664 C93.71729492 55.94083496 93.9096875 56.81111328 94.10791016 57.70776367 C94.27919434 58.46565186 94.45047852 59.22354004 94.62695312 60.00439453 C94.9073839 62.63350474 94.54686464 64.69749941 93.86572266 67.24291992 C93.53572266 67.57291992 93.20572266 67.90291992 92.86572266 68.24291992 C92.66446791 69.57005336 92.51940976 70.90585707 92.40087891 72.24291992 C92.32289062 73.04729492 92.24490234 73.85166992 92.16455078 74.68041992 C92.00703124 76.38840043 91.85338303 78.09674241 91.70361328 79.80541992 C91.62433594 80.60979492 91.54505859 81.41416992 91.46337891 82.24291992 C91.39642822 82.98541992 91.32947754 83.72791992 91.26049805 84.49291992 C91.13022217 85.07041992 90.99994629 85.64791992 90.86572266 86.24291992 C89.87572266 86.73791992 89.87572266 86.73791992 88.86572266 87.24291992 C88.20572266 85.92291992 87.54572266 84.60291992 86.86572266 83.24291992 C87.38134766 82.76854492 87.89697266 82.29416992 88.42822266 81.80541992 C90.34801923 78.38317386 89.70901352 76.22023404 88.99462891 72.46166992 C88.86572266 70.24291992 88.86572266 70.24291992 89.8684082 68.44482422 C93.36325985 60.72877354 88.79232467 49.11878618 86.61572266 41.43041992 C86.3028833 40.29693115 85.99004395 39.16344238 85.66772461 37.99560547 C83.62575632 30.68495155 81.42179613 23.45562077 78.90869141 16.29370117 C77.77173482 12.9679967 76.80692539 9.62869446 75.86572266 6.24291992 C72.43637106 5.20739735 69.25267921 5.08804922 65.67944336 5.03759766 C64.42746658 5.01765244 63.17548981 4.99770721 61.88557434 4.97715759 C60.52088565 4.9601592 59.15619546 4.94328092 57.79150391 4.92651367 C56.38387993 4.90591302 54.97626172 4.8849158 53.56864929 4.86354065 C49.86171392 4.80839918 46.15472272 4.75900123 42.44769287 4.71069336 C39.44220324 4.67060184 36.43677803 4.62655466 33.43134785 4.58225918 C16.14932004 4.30926438 16.14932004 4.30926438 -1.13427734 4.24291992 C-1.46427734 9.19291992 -1.79427734 14.14291992 -2.13427734 19.24291992 C10.71123871 20.23855854 23.5627969 20.80932681 36.43334961 21.36791992 C41.82864042 21.60339762 47.22245559 21.85621733 52.61566162 22.13549805 C54.58952769 22.22973389 56.56479972 22.2934971 58.54003906 22.35229492 C65.23552516 22.66929311 65.23552516 22.66929311 68.04150391 25.22338867 C69.18075758 29.39705259 69.18569079 33.25190388 69.05322266 37.55541992 C69.03291992 38.80935547 69.03291992 38.80935547 69.01220703 40.08862305 C68.97703483 42.14033491 68.92323314 44.19171267 68.86572266 46.24291992 C67.38072266 45.25291992 67.38072266 45.25291992 65.86572266 44.24291992 C65.64306641 41.34448242 65.64306641 41.34448242 65.80322266 37.86791992 C66.15616704 32.21971143 66.15616704 32.21971143 63.86572266 27.24291992 C60.21803764 26.02702492 56.73417926 25.92135582 52.92822266 25.74291992 C52.13407959 25.70231445 51.33993652 25.66170898 50.52172852 25.61987305 C47.96990721 25.49027572 45.41784311 25.3664719 42.86572266 25.24291992 C41.20945307 25.15997684 39.55320279 25.0766472 37.89697266 24.99291992 C36.66841553 24.93116577 36.66841553 24.93116577 35.41503906 24.86816406 C33.75323232 24.78447008 32.09144845 24.70032081 30.4296875 24.61572266 C26.16155774 24.4001983 21.8936318 24.20062943 17.62353516 24.02807617 C16.34724243 23.97200195 16.34724243 23.97200195 15.04516602 23.91479492 C13.43688839 23.84420529 11.82831487 23.77993933 10.21948242 23.72338867 C5.47274835 23.5059411 1.33441602 22.91372416 -3.13427734 21.24291992 C-5.68555259 17.41600705 -5.21764495 14.56459157 -4.88427734 10.18041992 C-4.82433594 9.08117187 -4.82433594 9.08117187 -4.76318359 7.9597168 C-4.25521366 0.48432139 -4.25521366 0.48432139 0 0 Z " fill="#DF5D51" transform="translate(24.13427734375,16.757080078125)"/>
	

	

	

	<path d="M0 0 C4.3401075 0.48223417 6.26340225 1.60056838 9 5 C9.59350586 7.79321289 9.59350586 7.79321289 9.71484375 10.97265625 C9.76060547 12.11927734 9.80636719 13.26589844 9.85351562 14.44726562 C9.88123047 15.64029297 9.90894531 16.83332031 9.9375 18.0625 C9.99228516 19.25939453 10.04707031 20.45628906 10.10351562 21.68945312 C10.38511909 30.46856475 10.38511909 30.46856475 8.64282227 32.87280273 C7 34 7 34 4.5 33.875 C1.77939087 32.9227868 0.76733028 32.23853458 -1 30 C-1.41650391 27.81103516 -1.41650391 27.81103516 -1.4765625 25.2890625 C-1.5075 24.37382813 -1.5384375 23.45859375 -1.5703125 22.515625 C-1.58835938 21.56171875 -1.60640625 20.6078125 -1.625 19.625 C-1.67630539 17.7420923 -1.73088894 15.85927051 -1.7890625 13.9765625 C-1.80662598 13.14205566 -1.82418945 12.30754883 -1.84228516 11.44775391 C-1.93912356 8.94403848 -1.93912356 8.94403848 -2.60302734 6.33349609 C-3 4 -3 4 -1.5625 1.6875 C-1.046875 1.130625 -0.53125 0.57375 0 0 Z " fill="#B41110" transform="translate(58,82)"/>
	

	

	

	

	<path d="M0 0 C0.99 0.33 1.98 0.66 3 1 C1.35575113 3.31689613 -0.05125636 4.79949232 -2.89453125 5.40039062 C-10.79467794 6.06658698 -18.70213873 6.34139742 -26.625 6.5625 C-27.70151321 6.59426834 -27.70151321 6.59426834 -28.79977417 6.62667847 C-41.87070579 7.01014086 -54.92264875 7.08224749 -68 7 C-68 13.6 -68 20.2 -68 27 C-52.16 27.495 -52.16 27.495 -36 28 C-36 28.33 -36 28.66 -36 29 C-40.66308199 29.02468646 -45.32612608 29.04285349 -49.98925781 29.05493164 C-51.57617861 29.05996588 -53.16309477 29.06679369 -54.75 29.07543945 C-57.02865749 29.08754482 -59.30725376 29.09323733 -61.5859375 29.09765625 C-62.65320572 29.10539818 -62.65320572 29.10539818 -63.74203491 29.11329651 C-68.77225659 29.11387171 -68.77225659 29.11387171 -71 28 C-70.94805091 24.74870364 -70.852963 21.50004935 -70.75 18.25 C-70.73582031 17.32960938 -70.72164062 16.40921875 -70.70703125 15.4609375 C-70.56823828 11.63025163 -70.41719966 8.77777111 -68.58984375 5.37109375 C-64.42985028 3.16874426 -60.43591915 3.63692232 -55.8125 3.8125 C-53.66285248 3.8540334 -51.51309629 3.89017658 -49.36328125 3.921875 C-48.19361816 3.94056641 -47.02395508 3.95925781 -45.81884766 3.97851562 C-39.43997324 4.0144024 -33.06922363 3.83000854 -26.69393921 3.63070679 C-24.53670541 3.56364112 -22.37935445 3.50297618 -20.22192383 3.44262695 C-10.5619559 3.22954604 -10.5619559 3.22954604 -1 2 C-0.67 1.34 -0.34 0.68 0 0 Z " fill="#B1B0B9" transform="translate(88,60)"/>
	

	

	

	

	<path d="M0 0 C0.33 0 0.66 0 1 0 C1.24867947 2.60364409 1.47457902 5.20589894 1.6875 7.8125 C1.76033203 8.55048828 1.83316406 9.28847656 1.90820312 10.04882812 C2.32755858 15.50044901 2.32755858 15.50044901 0.67578125 18.01953125 C-1 19 -1 19 -3.5 18.875 C-6.27965904 17.90211933 -7.27780925 17.3673919 -9 15 C-9.29296875 11.86328125 -9.29296875 11.86328125 -9.1875 8.3125 C-9.16042969 7.13300781 -9.13335937 5.95351562 -9.10546875 4.73828125 C-9.07066406 3.83464844 -9.03585938 2.93101563 -9 2 C-6.3534665 4.6465335 -5.40058003 7.56221264 -4 11 C-1.6870518 8.6870518 -1.50419025 7.52095125 -0.875 4.375 C-0.70742187 3.55773437 -0.53984375 2.74046875 -0.3671875 1.8984375 C-0.24601562 1.27195312 -0.12484375 0.64546875 0 0 Z " fill="#551721" transform="translate(66,97)"/>
	

	

	

	<path d="M0 0 C1.10794922 0.00410889 2.21589844 0.00821777 3.35742188 0.01245117 C5.16146484 0.01535156 5.16146484 0.01535156 7.00195312 0.01831055 C8.26394531 0.03055664 9.5259375 0.04280273 10.82617188 0.05541992 C12.08816406 0.05606445 13.35015625 0.05670898 14.65039062 0.05737305 C24.0457082 0.10268808 24.0457082 0.10268808 26.32617188 1.24291992 C25.99617188 1.90291992 25.66617188 2.56291992 25.32617188 3.24291992 C24.66617188 2.91291992 24.00617188 2.58291992 23.32617188 2.24291992 C21.43978068 2.15800493 19.55038673 2.13572692 17.66210938 2.14526367 C15.97988281 2.15009766 15.97988281 2.15009766 14.26367188 2.1550293 C12.50023437 2.16759766 12.50023437 2.16759766 10.70117188 2.18041992 C9.5178125 2.18493164 8.33445312 2.18944336 7.11523438 2.1940918 C4.18549681 2.20590525 1.25585915 2.22237735 -1.67382812 2.24291992 C-1.53169515 4.13903427 -1.38495906 6.03480387 -1.23632812 7.93041992 C-1.15511719 8.98616211 -1.07390625 10.0419043 -0.99023438 11.12963867 C-0.70902628 13.89658745 -0.22983032 16.5221551 0.32617188 19.24291992 C0.66217187 25.73891992 0.66217187 25.73891992 -1.67382812 29.24291992 C-2.99382812 28.91291992 -4.31382813 28.58291992 -5.67382812 28.24291992 C-4.68382813 26.75791992 -4.68382813 26.75791992 -3.67382812 25.24291992 C-3.65226449 22.63240794 -3.65226449 22.63240794 -4.04882812 19.74291992 C-4.47478403 15.52441687 -4.79978599 11.35873233 -4.86132812 7.11791992 C-4.88259766 5.78374023 -4.88259766 5.78374023 -4.90429688 4.42260742 C-4.5401926 0.97904496 -3.35168552 0.30450393 0 0 Z " fill="#C5C0C6" transform="translate(72.673828125,87.757080078125)"/>
	

	

	

	

	

	

	

	

	

	

	

	

	

	

</svg>
