<?xml version="1.0" encoding="iso-8859-1"?>
<svg height="128" version="1.1" width="128" xmlns="http://www.w3.org/2000/svg">
	

	<path d="M0 0 C42.24 0 84.48 0 128 0 C128 42.24 128 84.48 128 128 C85.76 128 43.52 128 0 128 C0 85.76 0 43.52 0 0 Z " fill="#060506" transform="translate(0,0)"/>
	

	<path d="M0 0 C1.6691748 0.029729 1.6691748 0.029729 3.37207031 0.06005859 C5.20511719 0.07746094 5.20511719 0.07746094 7.07519531 0.09521484 C8.99332031 0.15128906 8.99332031 0.15128906 10.95019531 0.20849609 C12.84511719 0.22976562 12.84511719 0.22976562 14.77832031 0.25146484 C20.68944175 0.34460226 26.34917382 0.71849396 32.20019531 1.58349609 C34.07565148 1.57846806 35.95148223 1.53949234 37.82519531 1.45849609 C42.1386883 1.44076941 44.96290908 1.44737505 48.20019531 4.58349609 C51.04749878 10.1144032 51.84197414 15.05889428 52.33300781 21.21630859 C52.41517548 22.13000214 52.49734314 23.04369568 52.58200073 23.9850769 C52.84073412 26.89204082 53.08315106 29.80010011 53.32519531 32.70849609 C53.49470748 34.63827706 53.66527121 36.56796597 53.83691406 38.49755859 C54.69167355 48.18753047 55.48555137 57.88214753 56.20019531 67.58349609 C57.45135132 67.68416382 57.45135132 67.68416382 58.7277832 67.78686523 C59.6880542 67.86412842 60.6483252 67.9413916 61.63769531 68.02099609 C63.15169922 68.1428125 63.15169922 68.1428125 64.69628906 68.26708984 C67.20019531 68.58349609 67.20019531 68.58349609 68.20019531 69.58349609 C68.32555183 71.18397811 68.37594318 72.79065537 68.38769531 74.39599609 C68.401875 75.26869141 68.41605469 76.14138672 68.43066406 77.04052734 C68.1881985 79.71586769 67.45245676 81.2443077 66.20019531 83.58349609 C62.72088847 83.27254464 59.2417778 82.95944698 55.76269531 82.64599609 C54.78880859 82.55898437 53.81492187 82.47197266 52.81152344 82.38232422 C50.87177373 82.20716287 48.932467 82.02702146 46.99365234 81.84179688 C45.18902653 81.67492971 43.38259298 81.52617118 41.57470703 81.39941406 C40.7795166 81.33512207 39.98432617 81.27083008 39.16503906 81.20458984 C38.46886475 81.15616943 37.77269043 81.10774902 37.05541992 81.05786133 C34.72077259 80.46091176 33.74617938 79.38749583 32.20019531 77.58349609 C32.70019531 75.77099609 32.70019531 75.77099609 34.20019531 73.58349609 C36.25440138 72.79341684 38.28399657 72.20333449 40.42285156 71.68505859 C42.50623138 70.68341835 42.50623138 70.68341835 42.82592773 67.93115234 C43.20945512 64.50067125 43.17707161 61.36321908 42.96582031 57.91943359 C42.84895874 56.00179199 42.84895874 56.00179199 42.72973633 54.04541016 C42.6375791 52.68303588 42.54437959 51.32073174 42.45019531 49.95849609 C42.38117508 48.9268634 42.38117508 48.9268634 42.3107605 47.87438965 C41.72049396 39.16304467 40.99824435 30.48070073 39.76269531 21.83349609 C39.59785645 20.62185791 39.59785645 20.62185791 39.4296875 19.38574219 C38.81002794 15.43275342 38.81002794 15.43275342 37.07373047 11.87817383 C34.21253623 9.90098943 31.78453045 10.24698552 28.34472656 10.29052734 C27.3522718 10.29689461 27.3522718 10.29689461 26.33976746 10.3033905 C24.23032621 10.32015916 22.12184685 10.3578051 20.01269531 10.39599609 C18.5810685 10.41104541 17.14942669 10.42473339 15.71777344 10.43701172 C12.21160244 10.4700558 8.70599278 10.52182442 5.20019531 10.58349609 C4.99048972 14.72443308 4.99048972 14.72443308 6.20019531 18.58349609 C6.27135913 20.9575211 6.28428616 23.33350286 6.26269531 25.70849609 C6.25367187 26.98982422 6.24464844 28.27115234 6.23535156 29.59130859 C6.22375 30.57873047 6.21214844 31.56615234 6.20019531 32.58349609 C3.20019531 32.58349609 3.20019531 32.58349609 0.82519531 30.64599609 C-1.87403367 28.52517332 -3.4466067 27.96671872 -6.79980469 27.58349609 C-10.4884118 36.98705434 -10.4884118 36.98705434 -8.88574219 46.68505859 C-6.22388993 51.27031378 -3.26831149 54.72365174 1.20019531 57.58349609 C4.90960306 57.91815498 4.90960306 57.91815498 8.20019531 57.58349609 C9.20019531 58.58349609 9.20019531 58.58349609 9.25488281 60.47412109 C8.9334982 64.69404085 8.53644765 67.09889714 6.07519531 70.64599609 C3.20019531 72.58349609 3.20019531 72.58349609 -0.11230469 73.33349609 C-8.17273139 71.69408727 -12.91023946 64.68898462 -17.25683594 58.13427734 C-21.42367978 51.24579879 -24.16309174 45.55049866 -22.29199219 37.36083984 C-20.74705822 32.04236026 -18.81498112 28.41616451 -14.79980469 24.58349609 C-12.95605469 23.72802734 -12.95605469 23.72802734 -11.04980469 23.02099609 C-9.97730469 22.54662109 -8.90480469 22.07224609 -7.79980469 21.58349609 C-6.50034945 17.2893193 -6.51429559 12.76027293 -6.27636719 8.30224609 C-5.51941911 3.98391934 -4.55317477 0.94890894 0 0 Z " fill="#A4A3A4" transform="translate(36.7998046875,19.41650390625)"/>
	

	<path d="M0 0 C1.08990234 -0.01224609 2.17980469 -0.02449219 3.30273438 -0.03710938 C8.80642692 -0.04715872 13.11303782 0.26430712 18.3125 2.1875 C20.66514303 2.27218456 23.02225921 2.26942351 25.375 2.1875 C33.86409515 1.89254773 33.86409515 1.89254773 37.3125 4.1875 C40.88465809 10.7324608 40.93714249 17.6199543 41.27932739 24.95733643 C41.44124724 28.41441559 41.64499296 31.8690958 41.84375 35.32421875 C41.88178238 36.00363525 41.91981476 36.68305176 41.95899963 37.38305664 C42.28302708 43.04398901 42.76267758 48.67605213 43.375 54.3125 C43.45435791 55.05604736 43.53371582 55.79959473 43.61547852 56.56567383 C44.02004192 60.16760686 44.5998774 63.624387 45.3125 67.1875 C50.7575 67.6825 50.7575 67.6825 56.3125 68.1875 C57.36223814 72.38645255 57.04045155 74.98155774 56.3125 79.1875 C52.98432707 80.23188312 50.23945237 80.17924273 46.77734375 79.8828125 C45.19276367 79.74939453 45.19276367 79.74939453 43.57617188 79.61328125 C41.9297168 79.46439453 41.9297168 79.46439453 40.25 79.3125 C39.14849609 79.22097656 38.04699219 79.12945312 36.91210938 79.03515625 C28.72489162 78.32496387 28.72489162 78.32496387 25.3125 77.1875 C25.3125 76.1975 25.3125 75.2075 25.3125 74.1875 C28.2825 72.8675 31.2525 71.5475 34.3125 70.1875 C35.57368225 39.21020781 35.57368225 39.21020781 29.3125 9.1875 C25.95593235 6.89310611 22.92478889 6.9298587 18.9375 6.921875 C17.70515625 6.91929688 16.4728125 6.91671875 15.203125 6.9140625 C13.27726562 6.92566406 13.27726562 6.92566406 11.3125 6.9375 C10.02859375 6.92976563 8.7446875 6.92203125 7.421875 6.9140625 C5.57335938 6.91792969 5.57335938 6.91792969 3.6875 6.921875 C2.56085937 6.92413086 1.43421875 6.92638672 0.2734375 6.92871094 C-2.59693418 7.17958445 -4.25801496 7.69573693 -6.6875 9.1875 C-6.60371094 10.24710938 -6.51992188 11.30671875 -6.43359375 12.3984375 C-6.33043168 13.78643625 -6.22758337 15.17445835 -6.125 16.5625 C-6.06892578 17.26117188 -6.01285156 17.95984375 -5.95507812 18.6796875 C-5.57421875 23.9609375 -5.57421875 23.9609375 -6.6875 26.1875 C-9.83487182 25.48808404 -12.71338876 24.42671302 -15.6875 23.1875 C-15.5225 22.0325 -15.3575 20.8775 -15.1875 19.6875 C-14.81160984 16.77306393 -14.66498781 13.99825428 -14.75 11.0625 C-14.55796716 -0.84353637 -10.15919666 0.00590308 0 0 Z " fill="#F2F2F2" transform="translate(46.6875,20.8125)"/>
	

	<path d="M0 0 C0.98613281 0.00064453 1.97226562 0.00128906 2.98828125 0.00195312 C8.53287442 0.03482621 13.96353848 0.34106319 19.47265625 0.95776367 C23.84601719 1.39894427 28.255696 1.41822497 32.6484375 1.515625 C35.75 2.1875 35.75 2.1875 38.0390625 4.171875 C42.47295023 11.9868552 42.46743638 21.60795236 43.3125 30.375 C43.44180908 31.68678223 43.57111816 32.99856445 43.7043457 34.35009766 C44.78894789 45.61618115 45.40902576 56.87656134 45.75 68.1875 C46.35328125 68.16429688 46.9565625 68.14109375 47.578125 68.1171875 C48.37734375 68.09914063 49.1765625 68.08109375 50 68.0625 C51.18335937 68.02769531 51.18335937 68.02769531 52.390625 67.9921875 C54.95731941 68.2046622 56.5416067 68.90095895 58.75 70.1875 C58.66320858 72.64758778 58.55639045 75.10393517 58.4375 77.5625 C58.41494141 78.26117188 58.39238281 78.95984375 58.36914062 79.6796875 C58.26171875 81.7109375 58.26171875 81.7109375 57.75 85.1875 C49.41466962 90.74438692 31.17930618 85.06723168 21.75 83.1875 C20.76 82.6925 20.76 82.6925 19.75 82.1875 C19.75 79.5475 19.75 76.9075 19.75 74.1875 C20.38808594 74.05472656 21.02617188 73.92195313 21.68359375 73.78515625 C22.50988281 73.60855469 23.33617187 73.43195313 24.1875 73.25 C25.01121094 73.07597656 25.83492187 72.90195313 26.68359375 72.72265625 C28.72661204 72.37997006 28.72661204 72.37997006 29.75 71.1875 C30.17651273 63.97352346 29.59397551 56.74154122 28.9453125 49.55859375 C28.86127167 48.60227554 28.77723083 47.64595734 28.69064331 46.66065979 C28.5132756 44.66311185 28.3333311 42.66579112 28.15087891 40.66870117 C27.87293445 37.60221131 27.61000836 34.53465547 27.34765625 31.46679688 C27.17278322 29.51814745 26.99703412 27.5695764 26.8203125 25.62109375 C26.74313995 24.70347763 26.66596741 23.78586151 26.5864563 22.84043884 C26.46655838 21.57255272 26.46655838 21.57255272 26.34423828 20.27905273 C26.24431076 19.16299904 26.24431076 19.16299904 26.1423645 18.0243988 C25.87289265 15.94785906 25.87289265 15.94785906 23.75 14.1875 C20.83811755 13.81481113 20.83811755 13.81481113 17.4296875 13.7734375 C16.17285156 13.73476563 14.91601562 13.69609375 13.62109375 13.65625 C12.30238281 13.6253125 10.98367187 13.594375 9.625 13.5625 C8.28513082 13.52431971 6.94528617 13.48526794 5.60546875 13.4453125 C2.32045381 13.3507797 -0.96455138 13.26522844 -4.25 13.1875 C-4.17998779 14.06067871 -4.10997559 14.93385742 -4.0378418 15.83349609 C-3.94672119 16.98930176 -3.85560059 18.14510742 -3.76171875 19.3359375 C-3.67108154 20.47724121 -3.58044434 21.61854492 -3.48706055 22.79443359 C-2.6176121 35.23891815 -2.6176121 35.23891815 -5.25 39.1875 C-8.16785009 38.04120175 -9.30695061 37.11275232 -11.25 34.5625 C-11.91 33.77875 -12.57 32.995 -13.25 32.1875 C-14.57 32.1875 -15.89 32.1875 -17.25 32.1875 C-19.62340997 36.78598181 -19.81385953 41.13066452 -19.25 46.1875 C-17.7939587 50.39384153 -15.67011709 53.49146418 -12.14453125 56.28515625 C-8.39582936 58.07062045 -4.29406713 57.54715024 -0.25 57.1875 C0.37945385 63.23025701 -0.12882848 67.54940631 -3.69921875 72.578125 C-6.33779451 75.31639506 -8.51809353 75.86578393 -12.25 76.1875 C-20.92436995 74.25986223 -26.53890041 66.106734 -31.125 58.9375 C-31.84290204 57.69297086 -32.55225496 56.44344107 -33.25 55.1875 C-33.848125 54.218125 -34.44625 53.24875 -35.0625 52.25 C-37.04979582 47.12486869 -37.20985892 42.74712378 -35.265625 37.5625 C-32.11456203 31.026962 -28.92467065 25.52483533 -22.25 22.1875 C-21.59 22.1875 -20.93 22.1875 -20.25 22.1875 C-20.311875 20.929375 -20.37375 19.67125 -20.4375 18.375 C-20.41145347 12.9052284 -19.89106774 7.04606801 -17.25 2.1875 C-11.95915881 -0.67195139 -5.85533613 -0.07159034 0 0 Z M-16.11474609 4.55029297 C-17.34083616 7.39851337 -17.71020974 9.59985085 -17.875 12.6875 C-18.31870839 20.20941364 -18.31870839 20.20941364 -19.25 23.1875 C-20.921875 24.3046875 -20.921875 24.3046875 -23 25.0625 C-27.62915601 27.12819865 -29.92724715 29.72066759 -32.25 34.1875 C-34.50146922 40.19141792 -35.22613292 45.5092353 -33 51.6171875 C-28.54548882 60.38700638 -23.70292074 68.65802023 -15.25 74.1875 C-10.95128597 74.8127675 -9.00420667 74.69576971 -5.375 72.25 C-2.61025692 68.26551733 -2.36405124 64.94654718 -2.25 60.1875 C-5.23701628 59.02631192 -5.23701628 59.02631192 -8.5 59.125 C-13.82538863 57.79365284 -16.16335332 54.57721652 -19.25 50.1875 C-21.54245799 46.24022133 -21.79025716 42.67398337 -21.25 38.1875 C-20.42563809 35.11401195 -19.40293081 32.15217922 -18.25 29.1875 C-13.22734643 30.36930084 -10.1550849 31.63742282 -6.25 35.1875 C-4.26534584 28.47747881 -4.85938659 20.96674037 -6.25 14.1875 C-6.25 13.5275 -6.25 12.8675 -6.25 12.1875 C-2.03250781 12.11330866 2.18463811 12.0588796 6.40258789 12.02270508 C7.83722552 12.00762411 9.27181708 11.9871562 10.70629883 11.96118164 C12.76915859 11.92476563 14.83140858 11.90776757 16.89453125 11.89453125 C18.75621948 11.87096558 18.75621948 11.87096558 20.65551758 11.84692383 C23.75 12.1875 23.75 12.1875 25.62353516 13.48217773 C27.60275252 16.47845716 27.8379695 19.9494921 28.3125 23.4375 C28.43399414 24.28779785 28.55548828 25.1380957 28.68066406 26.01416016 C29.80616874 34.49999026 30.42881416 43.0250906 31 51.5625 C31.04706085 52.24316528 31.0941217 52.92383057 31.14260864 53.62512207 C31.27556683 55.59066314 31.39579299 57.55705253 31.515625 59.5234375 C31.58555664 60.66345215 31.65548828 61.8034668 31.72753906 62.97802734 C31.75012635 66.20555453 31.50455898 69.04953381 30.75 72.1875 C28.71875 73.54296875 28.71875 73.54296875 26.25 74.375 C23.82156997 75.16740001 23.82156997 75.16740001 21.75 76.1875 C21.255 77.6725 21.255 77.6725 20.75 79.1875 C22.5552578 81.49879486 23.5874252 82.15000725 26.48974609 82.81933594 C27.57336426 82.93567383 28.65698242 83.05201172 29.7734375 83.171875 C30.959375 83.30207031 32.1453125 83.43226562 33.3671875 83.56640625 C34.60726562 83.68886719 35.84734375 83.81132813 37.125 83.9375 C38.35734375 84.07542969 39.5896875 84.21335937 40.859375 84.35546875 C48.34475847 85.18982611 48.34475847 85.18982611 55.75 84.1875 C56.74293628 81.20869115 56.88406411 79.17148802 56.875 76.0625 C56.87757812 75.17304687 56.88015625 74.28359375 56.8828125 73.3671875 C56.99301985 71.20958912 56.99301985 71.20958912 55.75 70.1875 C53.90108054 69.95386119 52.04511969 69.77446365 50.1875 69.625 C48.66962891 69.49931641 48.66962891 69.49931641 47.12109375 69.37109375 C46.33863281 69.31050781 45.55617188 69.24992187 44.75 69.1875 C44.70432892 68.61279968 44.65865784 68.03809937 44.61160278 67.44598389 C44.1308825 61.40976903 43.6428969 55.37417143 43.15087891 49.33886719 C42.96871415 47.09292081 42.78833996 44.8468284 42.60986328 42.60058594 C42.35150815 39.35310522 42.08650118 36.10622192 41.8203125 32.859375 C41.74313995 31.87136902 41.66596741 30.88336304 41.5864563 29.86541748 C41.17439651 15.79870623 41.17439651 15.79870623 34.75 4.1875 C31.17763478 2.99671159 27.960808 3.11681794 24.25 3.1875 C17.15540541 3.32263514 17.15540541 3.32263514 13.75 2.1875 C9.08822179 1.87348186 4.42108098 1.86357544 -0.25 1.8125 C-1.54679687 1.77511719 -2.84359375 1.73773437 -4.1796875 1.69921875 C-6.03980469 1.68181641 -6.03980469 1.68181641 -7.9375 1.6640625 C-9.64486328 1.6343335 -9.64486328 1.6343335 -11.38671875 1.60400391 C-14.43984388 1.90536997 -14.43984388 1.90536997 -16.11474609 4.55029297 Z " fill="#504E4F" transform="translate(48.25,17.8125)"/>
	

	<path d="M0 0 C-0.47730838 1.4589426 -0.95691042 2.91713496 -1.4375 4.375 C-1.70433594 5.18710937 -1.97117187 5.99921875 -2.24609375 6.8359375 C-3 9 -3 9 -4 11 C-4.7829633 17.37555831 -3.56906617 20.72607001 0.22265625 25.8828125 C3.82596208 30.17510208 6.91305679 33.46877809 12.4375 34.875 C13.283125 34.91625 14.12875 34.9575 15 35 C15.47183746 39.05780213 15.33329645 40.56195324 12.8125 43.875 C10 46 10 46 7.72265625 46.421875 C3.88505923 45.82724017 1.49632304 43.82952487 -1.375 41.375 C-1.94500732 40.8893457 -2.51501465 40.40369141 -3.10229492 39.90332031 C-9.58679367 34.03300639 -14.64290121 26.27145837 -15.24609375 17.3671875 C-14.827198 11.63562975 -13.07407942 6.94925524 -10.3125 1.9375 C-6.86394281 -0.9518317 -4.40600783 -0.36716732 0 0 Z " fill="#E8E8E8" transform="translate(29,45)"/>
	

</svg>
