<?xml version="1.0" encoding="iso-8859-1"?>
<svg height="128" version="1.1" width="128" xmlns="http://www.w3.org/2000/svg">
	

	<path d="M0 0 C42.24 0 84.48 0 128 0 C128 42.24 128 84.48 128 128 C85.76 128 43.52 128 0 128 C0 85.76 0 43.52 0 0 Z " fill="#FDFDFD" transform="translate(0,0)"/>
	

	

	<path d="M0 0 C1.2065625 0.0309375 1.2065625 0.0309375 2.4375 0.0625 C2.1075 2.0425 1.7775 4.0225 1.4375 6.0625 C2.860625 6.7121875 2.860625 6.7121875 4.3125 7.375 C7.4375 9.0625 7.4375 9.0625 9.4375 12.0625 C8.5625 15.25 8.5625 15.25 7.4375 18.0625 C8.035625 18.330625 8.63375 18.59875 9.25 18.875 C11.51764342 20.10600643 12.81428104 21.06607557 14.4375 23.0625 C14.984375 25.40234375 14.984375 25.40234375 15.1875 28 C15.26484375 28.85464844 15.3421875 29.70929688 15.421875 30.58984375 C15.4368259 32.95582353 15.12710644 34.81083048 14.4375 37.0625 C15.4275 37.3925 16.4175 37.7225 17.4375 38.0625 C18.0975 35.7525 18.7575 33.4425 19.4375 31.0625 C20.4275 31.0625 21.4175 31.0625 22.4375 31.0625 C24.86353384 34.04305586 26.35082443 36.06573092 26.6875 39.9375 C26.605 40.63875 26.5225 41.34 26.4375 42.0625 C25.4475 42.3925 24.4575 42.7225 23.4375 43.0625 C22.76308869 44.7260479 22.0974679 46.39316942 21.4375 48.0625 C19.3125 50.375 19.3125 50.375 17.4375 52.0625 C16.880625 51.77375 16.32375 51.485 15.75 51.1875 C13.35255355 50.0211747 10.92153061 49.0285119 8.4375 48.0625 C7.75510646 50.05718882 7.09379516 52.05907266 6.4375 54.0625 C6.18484375 54.81273437 5.9321875 55.56296875 5.671875 56.3359375 C3.98054254 61.59233349 3.05657548 66.40899905 2.84375 71.93359375 C2.33673419 74.59055163 1.59040534 75.45769671 -0.5625 77.0625 C-6.6947184 78.49335096 -10.0731859 78.1365159 -15.5625 75.0625 C-17.5625 72.0625 -17.5625 72.0625 -17.375 69.6875 C-16.48486094 66.81166613 -15.21111989 64.57126939 -13.5625 62.0625 C-10.5925 62.3925 -7.6225 62.7225 -4.5625 63.0625 C-3.61978998 59.80610341 -3.61978998 59.80610341 -3.5625 56.0625 C-5.71252764 53.35960811 -7.72922608 51.56523168 -10.6796875 49.78515625 C-13.92509998 46.81580583 -13.44621002 43.19876374 -13.68359375 39.01171875 C-13.53598327 35.41668942 -12.39799006 33.1216501 -10.5625 30.0625 C-10.77841608 27.61545111 -11.42872642 26.28545597 -12.6875 24.1875 C-14.8033946 19.04889884 -11.73746338 13.24972778 -9.74609375 8.40625 C-8.12860464 5.20330126 -6.29947823 3.35564392 -3.5625 1.0625 C-2.5625 0.0625 -2.5625 0.0625 0 0 Z " fill="#77D9EA" transform="translate(70.5625,45.9375)"/>
	

	

	

	

	

	<path d="M0 0 C2.631752 0.43862533 4.68986622 0.81585807 7 2.1875 C9.10275403 3.29011751 9.10275403 3.29011751 11.75 2.125 C12.4925 1.75375 13.235 1.3825 14 1 C16.54725476 4.82088214 16.56981066 7.52558517 16 12 C15 13.9375 15 13.9375 13 15 C6.8677816 16.43085096 3.4893141 16.0740159 -2 13 C-4 10 -4 10 -3.8125 7.625 C-2.92236094 4.74916613 -1.64861989 2.50876939 0 0 Z " fill="#66AB77" transform="translate(57,108)"/>
	

	<path d="M0 0 C3.04575642 2.56120426 4.73506553 4.20519658 6 8 C6.1875 11.5625 6.1875 11.5625 6 15 C5.34 15.66 4.68 16.32 4 17 C1.06546739 16.63318342 0.13562754 16.13562754 -2 14 C-3.94884558 13.79536062 -3.94884558 13.79536062 -6.0625 13.9375 C-7.361875 13.958125 -8.66125 13.97875 -10 14 C-11 13 -11 13 -11.3125 10.3125 C-10.92570012 6.21242128 -9.52905619 4.19851225 -7 1 C-4.35955695 -0.32022153 -2.93650531 -0.40974493 0 0 Z " fill="#1C1C1C" transform="translate(78,65)"/>
	

	

	

	

	

	

	

	

	

	

</svg>
