<?xml version="1.0" encoding="iso-8859-1"?>
<svg height="128" version="1.1" width="128" xmlns="http://www.w3.org/2000/svg">
	

	<path d="M0 0 C42.24 0 84.48 0 128 0 C128 42.24 128 84.48 128 128 C85.76 128 43.52 128 0 128 C0 85.76 0 43.52 0 0 Z " fill="#0648BF" transform="translate(0,0)"/>
	

	<path d="M0 0 C2.75 0.125 2.75 0.125 6 1 C9.73579321 5.64449967 11.52898879 9.80978267 11.38671875 15.83984375 C10.61635714 20.14297478 7.88834114 22.85839014 5 26 C4.57074219 26.47550293 4.14148437 26.95100586 3.69921875 27.44091797 C-3.20480745 35.01299904 -9.81649823 42.11425148 -20.453125 43.42578125 C-27.37398663 43.68347291 -33.42171433 43.40034671 -39 39 C-44.01563722 34.18234846 -47.7607119 28.51832235 -48.1328125 21.4921875 C-48.13023438 20.62851562 -48.12765625 19.76484375 -48.125 18.875 C-48.12757812 18.00617187 -48.13015625 17.13734375 -48.1328125 16.2421875 C-48 14 -48 14 -47 12 C-46.01 12.33 -45.02 12.66 -44 13 C-43.56483301 14.9080399 -43.1329475 16.81692553 -42.72265625 18.73046875 C-41.25752597 23.3317698 -38.1589668 27.69192012 -34.0078125 30.20703125 C-28.91306183 32.21916041 -23.92117884 31.05732737 -19.05078125 29.04296875 C-13.11803054 26.02574125 -7.8792967 22.10410899 -5 16 C-4.66422557 13.1894437 -4.49781853 10.39644363 -4.34765625 7.5703125 C-3.88542986 4.15295336 -2.48838274 2.32784192 0 0 Z " fill="#F5F7F8" transform="translate(56,41)"/>
	

	<path d="M0 0 C3.1299061 3.1299061 3.59614378 4.33913332 4.75 8.4375 C10.40508225 26.17389432 22.28005542 38.29624542 38.46875 46.828125 C40.54522801 47.84658802 42.63276213 48.84306218 44.734375 49.80859375 C47 51 47 51 48 53 C32.16 53 16.32 53 0 53 C0 35.51 0 18.02 0 0 Z " fill="#B8C9E0" transform="translate(0,75)"/>
	

	<path d="M0 0 C1.32 0 2.64 0 4 0 C4.20753906 0.84820313 4.41507813 1.69640625 4.62890625 2.5703125 C7.58053383 13.80872713 11.26191012 24.91796479 20 33 C22.67179526 35.60966048 24.92570221 37.88855331 27 41 C27 41.99 27 42.98 27 44 C26.20335937 44.29390625 26.20335937 44.29390625 25.390625 44.59375 C20.2790838 46.75776014 17.91466711 48.77093997 15.7421875 53.89453125 C14.67995609 56.90791404 13.77522184 59.89911264 13 63 C9 63 9 63 7.5 61.5625 C2.97893331 53.83901106 0.54652944 46.69145581 1.16015625 37.63671875 C1.52797579 31.87421259 0.39298162 28.29830304 -2.125 23.0625 C-5.23623182 16.34223926 -5.54353208 11.93260373 -3 5 C-1.625 1.8125 -1.625 1.8125 0 0 Z " fill="#F5F7F8" transform="translate(74,23)"/>
	

	<path d="M0 0 C11.22 0 22.44 0 34 0 C34 10.56 34 21.12 34 32 C30.24285933 30.74761978 29.37252712 28.75889657 27.12109375 25.6484375 C20.23922947 17.05561249 12.10297145 9.12716627 2.79296875 3.234375 C1 2 1 2 0 0 Z " fill="#F5F7F8" transform="translate(94,0)"/>
	

	<path d="M0 0 C0.33 0 0.66 0 1 0 C1 11.22 1 22.44 1 34 C-10.88 34 -22.76 34 -35 34 C-31.66157559 30.66157559 -30.31514297 29.46000695 -26.3125 27.6875 C-14.70650584 22.05517931 -8.78129164 14.1201565 -2.125 3.375 C-1.073125 1.704375 -1.073125 1.704375 0 0 Z " fill="#F5F7F8" transform="translate(127,94)"/>
	

	<path d="M0 0 C11.22 0 22.44 0 34 0 C34 0.66 34 1.32 34 2 C32.906875 2.45375 31.81375 2.9075 30.6875 3.375 C25.41956348 5.95713704 21.49772666 9.92698211 17.3203125 13.953125 C15 16 15 16 13 16 C12.773125 16.5775 12.54625 17.155 12.3125 17.75 C11 20 11 20 8.625 21.6875 C5.43067934 24.5015444 4.40030121 27.15921685 2.89453125 31.07421875 C2 33 2 33 0 34 C0 22.78 0 11.56 0 0 Z " fill="#F3F5F7" transform="translate(0,0)"/>
	

	<path d="M0 0 C3.1299061 3.1299061 3.59614378 4.33913332 4.75 8.4375 C10.40508225 26.17389432 22.28005542 38.29624542 38.46875 46.828125 C40.54522801 47.84658802 42.63276213 48.84306218 44.734375 49.80859375 C47 51 47 51 48 53 C43.71 53 39.42 53 35 53 C34.67 52.34 34.34 51.68 34 51 C31.00468801 49.64540368 27.95098876 48.49562098 24.8828125 47.31640625 C22.23802272 46.10869059 20.74367294 45.28522324 19 43 C18.855625 42.154375 18.71125 41.30875 18.5625 40.4375 C18.376875 39.633125 18.19125 38.82875 18 38 C16.20067421 36.93283296 16.20067421 36.93283296 14 36 C8.07593422 30.83542983 4.08373543 24.57721976 2 17 C1.34 17 0.68 17 0 17 C0 11.39 0 5.78 0 0 Z " fill="#F5F7F8" transform="translate(0,75)"/>
	

	<path d="M0 0 C4.3287971 4.3287971 6.56203327 9.37219964 7.5625 15.375 C6.3509598 23.18270353 1.04664362 28.36852829 -5 33 C-5.845625 33.845625 -6.69125 34.69125 -7.5625 35.5625 C-14.34030147 42.34030147 -20.16158579 45.90914447 -29.75 46.25 C-36.95834849 46.13218153 -42.597001 44.70382923 -47.875 39.625 C-53.80958824 33.09970043 -55.14481658 28.17052691 -55.1875 19.4375 C-55.19974609 18.76525391 -55.21199219 18.09300781 -55.22460938 17.40039062 C-55.23562975 13.70121763 -55.10685378 12.16028067 -53 9 C-51.68 9.33 -50.36 9.66 -49 10 C-48.92523438 10.70125 -48.85046875 11.4025 -48.7734375 12.125 C-47.72182608 19.71309806 -45.41753914 24.58246086 -40 30 C-32.10325926 30.98709259 -26.31931952 29.85552235 -20 25 C-14.69255491 20.69721469 -12.68711393 17.04598068 -11.75 10.25 C-11.66234375 9.16203125 -11.5746875 8.0740625 -11.484375 6.953125 C-10.95668971 3.73594691 -10.26591583 2.30907613 -8 0 C-4.60398243 -1.13200586 -3.35097244 -1.14423449 0 0 Z M-8.1875 2.8125 C-10.07519885 6.13224625 -10.28192876 7.71507466 -10.5 11.4375 C-10.83001109 16.46848546 -11.45475889 19.19535101 -15 23 C-22.15172608 28.79007669 -28.50364589 32.86330492 -38 32 C-43.51261951 29.98318798 -46.29134238 24.95086966 -49 20 C-49.90444963 17.64671637 -50.47339233 15.47505604 -51 13 C-51.66 13 -52.32 13 -53 13 C-54.84879146 16.69758292 -54.34052316 20.95628745 -54 25 C-51.33452007 32.9964398 -47.26816698 38.76726238 -40 43 C-32.81179508 45.39606831 -24.33910075 45.20295528 -17.5 41.875 C-9.1230808 36.67682246 0.63060282 27.98238444 5 19 C5.7145926 12.77283588 4.63162001 8.17414758 1 3 C-2.64527295 0.56981803 -4.66385542 -0.10709123 -8.1875 2.8125 Z " fill="#5B83C1" transform="translate(62,40)"/>
	

	<path d="M0 0 C1.11375 0.185625 1.11375 0.185625 2.25 0.375 C3.59100848 3.34437593 4.35580241 5.96172244 4.9375 9.1875 C7.53066932 20.8860082 12.12334865 30.56373196 21.24951172 38.39379883 C23.99146033 40.79179586 25.18606059 42.12452177 26.1015625 45.7109375 C26.15054688 46.59007812 26.19953125 47.46921875 26.25 48.375 C24.96086513 49.04654933 23.66859796 49.71208859 22.375 50.375 C21.65570313 50.74625 20.93640625 51.1175 20.1953125 51.5 C18.25 52.375 18.25 52.375 16.25 52.375 C15.79105193 53.89564794 15.33287786 55.41652948 14.875 56.9375 C14.59914063 57.845 14.32328125 58.7525 14.0390625 59.6875 C13.38093008 61.92905993 12.80743408 64.16997153 12.25 66.4375 C11.92 67.406875 11.59 68.37625 11.25 69.375 C9.765 69.87 9.765 69.87 8.25 70.375 C2.44297499 67.31867105 0.41308567 61.24029 -1.75 55.375 C-2.87609763 51.26374415 -2.66652791 47.6142617 -2.4375 43.375 C-2.35426429 36.27915536 -3.9090805 31.5792422 -7.33984375 25.27734375 C-10.28665042 19.21230951 -9.76283823 14.9705833 -7.69921875 8.7890625 C-4.48373747 0.61141875 -4.48373747 0.61141875 0 0 Z M-2.75 3.375 C-6.56846419 7.63405621 -7.85365636 13.78446672 -7.75 19.375 C-6.45335399 23.04813547 -4.83759936 26.45267826 -3.1484375 29.9609375 C-1.43955524 34.13290144 -1.39828181 37.22645215 -1.65234375 41.65625 C-1.95368707 50.04564808 -0.12863717 58.74828128 5.25 65.375 C7.31674637 66.62331049 7.31674637 66.62331049 9.25 67.375 C11.15643763 64.51534355 11.7547285 62.7608199 12.5625 59.5 C13.88926522 54.92632692 15.37354013 52.32849323 19.25 49.375 C22.0625 48.0625 22.0625 48.0625 24.25 47.375 C23.83071383 42.48332797 21.80713565 40.60875968 18.25 37.375 C8.27590449 28.14896165 4.1489289 16.35429531 1.25 3.375 C-0.07 3.375 -1.39 3.375 -2.75 3.375 Z " fill="#5B83C1" transform="translate(76.75,19.625)"/>
	

	<path d="M0 0 C1.32 0 2.64 0 4 0 C4.20753906 0.84820313 4.41507813 1.69640625 4.62890625 2.5703125 C7.58053383 13.80872713 11.26191012 24.91796479 20 33 C22.67179526 35.60966048 24.92570221 37.88855331 27 41 C27 41.99 27 42.98 27 44 C26.20335937 44.29390625 26.20335937 44.29390625 25.390625 44.59375 C20.2790838 46.75776014 17.91466711 48.77093997 15.7421875 53.89453125 C14.67995609 56.90791404 13.77522184 59.89911264 13 63 C9 63 9 63 7.5 61.5625 C2.97893331 53.83901106 0.54652944 46.69145581 1.16015625 37.63671875 C1.52797579 31.87421259 0.39298162 28.29830304 -2.125 23.0625 C-5.23623182 16.34223926 -5.54353208 11.93260373 -3 5 C-1.625 1.8125 -1.625 1.8125 0 0 Z M0 2 C-2.89265296 10.31637726 -3.06239595 16.97084722 0.5 25.125 C2.6874654 30.28377256 3.26074224 34.52436121 3 40.0625 C2.68061844 47.36528221 3.77990188 53.85864668 8 60 C10.02075583 60.97600449 10.02075583 60.97600449 12 61 C13.59353242 59.40646758 13.42554028 57.4433477 13.75 55.25 C14.67967211 50.42947794 15.9573782 48.00846273 20 45 C22.8125 43.6875 22.8125 43.6875 25 43 C24.44942253 39.32150418 23.21535252 38.05184337 20.3125 35.8125 C11.10879649 28.03865757 6.76503558 17.26276469 3.875 5.75 C3.58625 4.8425 3.2975 3.935 3 3 C2.01 2.67 1.02 2.34 0 2 Z " fill="#B8C9E0" transform="translate(74,23)"/>
	

	<path d="M0 0 C3.28691326 3.00109472 3.90662405 5.21297415 4.4375 9.6875 C4.30826302 15.1651597 1.59312198 18.09180948 -2 22 C-2.42925781 22.47550293 -2.85851563 22.95100586 -3.30078125 23.44091797 C-10.20480745 31.01299904 -16.81649823 38.11425148 -27.453125 39.42578125 C-34.37398663 39.68347291 -40.42171433 39.40034671 -46 35 C-51.01563722 30.18234846 -54.7607119 24.51832235 -55.1328125 17.4921875 C-55.13023438 16.62851562 -55.12765625 15.76484375 -55.125 14.875 C-55.12757812 14.00617187 -55.13015625 13.13734375 -55.1328125 12.2421875 C-55 10 -55 10 -54 8 C-53.01 8.33 -52.02 8.66 -51 9 C-50.56483301 10.9080399 -50.1329475 12.81692553 -49.72265625 14.73046875 C-48.25752597 19.3317698 -45.1589668 23.69192012 -41.0078125 26.20703125 C-35.85076383 28.24376448 -30.86427758 26.99918565 -25.93359375 25 C-22.86203404 23.41147619 -20.53340834 21.34340271 -18 19 C-17.34 19.33 -16.68 19.66 -16 20 C-21.7719526 26.19636088 -27.48629809 29.25318404 -36 30 C-41.40266939 29.49550625 -44.38772549 26.87530654 -47.9375 22.9375 C-49.5351073 20.98325143 -50.87201358 19.25597284 -52 17 C-51.71956909 23.59012628 -49.17415658 27.94654167 -45 33 C-39.75150486 37.09638645 -33.51763187 37.75599948 -27 37 C-15.53310031 34.48617713 -6.97870144 24.91858523 0 16 C2.54819239 10.12807841 1.74325497 5.91365724 0 0 Z " fill="#B8C9E0" transform="translate(63,45)"/>
	

	<path d="M0 0 C0.66 0 1.32 0 2 0 C4.37544579 4.36279058 5.70546374 8.41745814 6.8125 13.25 C10.69166054 28.70428838 21.1494524 40.43807894 34.62890625 48.58984375 C40.27787458 51.80323463 45.77012288 54.1616756 52 56 C52 56.99 52 57.98 52 59 C38.05462067 57.24999161 23.51942773 45.53514719 14.75 35.3125 C8.3198859 26.83584034 4.08989479 17.12798848 1 7 C0.67 6.67 0.34 6.34 0 6 C-0.04080783 4.00041636 -0.04254356 1.99954746 0 0 Z " fill="#5B83C1" transform="translate(0,69)"/>
	

	<path d="M0 0 C2.96960485 2.47745124 3.71464543 4.76003776 4.75 8.4375 C10.40508225 26.17389432 22.28005542 38.29624542 38.46875 46.828125 C40.54522801 47.84658802 42.63276213 48.84306218 44.734375 49.80859375 C47 51 47 51 48 53 C37.51677235 53.7356651 28.54587985 44.49568008 21 38 C12.00484496 30.05983228 1.40002892 17.66615713 -0.3671875 5.46484375 C-0.375 3.25 -0.375 3.25 0 0 Z " fill="#B8C9E0" transform="translate(0,75)"/>
	

	<path d="M0 0 C1.65 0 3.3 0 5 0 C4.265625 1.94140625 4.265625 1.94140625 3 4 C1.109375 4.58984375 1.109375 4.58984375 -1.25 4.9375 C-9.49814734 7.08345694 -15.29341091 13.9969537 -21 20 C-21.56058105 20.58676514 -22.12116211 21.17353027 -22.69873047 21.77807617 C-25.92675845 25.32249172 -27.72120291 27.99000058 -28.625 32.8125 C-29.1640625 35.64453125 -29.1640625 35.64453125 -30 38 C-32.0859375 39.32421875 -32.0859375 39.32421875 -34 40 C-34.33224865 35.23776938 -33.65002586 32.92596423 -31 29 C-30.3503125 27.515 -30.3503125 27.515 -29.6875 26 C-27.65131089 22.38010826 -25.26103951 20.54361082 -22 18 C-21.2575 17.2575 -20.515 16.515 -19.75 15.75 C-7.07692308 3.07692308 -7.07692308 3.07692308 0 2 C0 1.34 0 0.68 0 0 Z " fill="#5B83C1" transform="translate(34,0)"/>
	

	

	

	<path d="M0 0 C3.15219248 -0.36025057 4.60711926 -0.27283385 7.25 1.5625 C8.1575 2.366875 9.065 3.17125 10 4 C10.88558594 4.64195312 10.88558594 4.64195312 11.7890625 5.296875 C17.27478909 9.28275874 22.07432459 13.85715858 26.875 18.625 C27.52968262 19.27057861 28.18436523 19.91615723 28.85888672 20.58129883 C32.12863792 23.87181977 34.71479339 26.9290028 37 31 C37.66 31.33 38.32 31.66 39 32 C39 33.98 39 35.96 39 38 C38.01 37.67 37.02 37.34 36 37 C35.10668945 35.00708008 35.10668945 35.00708008 34.30078125 32.45703125 C32.08603122 26.55068078 28.72714797 22.95887699 24.1875 18.6875 C23.50107422 18.01138672 22.81464844 17.33527344 22.10742188 16.63867188 C17.0120502 11.69755933 11.8458105 7.0535227 5.1875 4.375 C2 3 2 3 0 0 Z " fill="#5B83C1" transform="translate(89,0)"/>
	

	

	

	

</svg>
