<?xml version="1.0" encoding="iso-8859-1"?>
<svg height="128" version="1.1" width="128" xmlns="http://www.w3.org/2000/svg">
	

	<path d="M0 0 C42.24 0 84.48 0 128 0 C128 42.24 128 84.48 128 128 C85.76 128 43.52 128 0 128 C0 85.76 0 43.52 0 0 Z " fill="#FBFCFB" transform="translate(0,0)"/>
	

	<path d="M0 0 C4.35712777 1.14661257 5.24169339 2.13339525 7.5625 5.9375 C7.87695191 8.77910669 7.99117584 11.18338141 7.875 14 C7.86533203 14.70705078 7.85566406 15.41410156 7.84570312 16.14257812 C7.77209828 19.55080245 7.48586077 22.66032613 6.5625 25.9375 C6.583125 26.9275 6.60375 27.9175 6.625 28.9375 C6.56234993 31.94470349 6.1145171 33.41547221 4.5625 35.9375 C4.995625 36.411875 5.42875 36.88625 5.875 37.375 C7.88808299 40.43190381 8.78950981 43.42145426 9.81640625 46.9140625 C10.47142716 49.12563683 10.47142716 49.12563683 12.5625 50.9375 C12.29995229 53.56297708 11.600066 54.88791288 10 57 C8.26457654 58.93696028 8.26457654 58.93696028 8.5625 61.9375 C11.00919495 64.38419495 12.86834027 65.02043973 16.25 65.9375 C17.343125 66.2675 18.43625 66.5975 19.5625 66.9375 C20.56572648 69.94717944 20.59348357 71.3615277 20.25 74.4375 C20.17136719 75.2109375 20.09273438 75.984375 20.01171875 76.78125 C19.5625 78.9375 19.5625 78.9375 17.5625 81.9375 C17.5625 82.9275 17.5625 83.9175 17.5625 84.9375 C18.366875 85.39125 19.17125 85.845 20 86.3125 C22.5625 87.9375 22.5625 87.9375 23.375 90.625 C23.436875 91.388125 23.49875 92.15125 23.5625 92.9375 C21.75 93.625 21.75 93.625 19.5625 93.9375 C19.17578125 93.44765625 18.7890625 92.9578125 18.390625 92.453125 C15.22499296 89.82862664 11.01221187 90.86714902 7.09960938 91.14257812 C3.68768955 91.28121907 1.91571241 91.19188032 -0.89453125 89.16796875 C-3.0485532 86.05418006 -2.72154622 83.63010092 -2.4375 79.9375 C-7.38011817 78.78422243 -12.39411339 78.39777023 -17.4375 77.9375 C-17.24278889 79.88749129 -17.24278889 79.88749129 -16.4375 81.9375 C-15.10642078 82.60865598 -13.77276989 83.27472058 -12.4375 83.9375 C-10.7265625 86.22265625 -10.7265625 86.22265625 -9.0625 89 C-8.16144531 90.47146484 -8.16144531 90.47146484 -7.2421875 91.97265625 C-6.64664063 92.95105469 -6.05109375 93.92945312 -5.4375 94.9375 C-4.36497291 96.6111411 -3.28258354 98.27853016 -2.1875 99.9375 C-1.49914062 100.989375 -1.49914062 100.989375 -0.796875 102.0625 C0.48569118 103.99514976 0.48569118 103.99514976 2.296875 105.375 C3.5625 106.9375 3.5625 106.9375 3.55078125 109.43359375 C2.25465123 112.71746468 0.84219821 113.37467181 -2.25 115 C-5.10288012 116.52125513 -7.16797658 117.62476185 -9.2890625 120.0859375 C-12.43252654 122.79503196 -14.91725137 122.50399096 -19 122.5 C-20.00836914 122.53577148 -20.00836914 122.53577148 -21.03710938 122.57226562 C-23.00390625 122.56640625 -23.00390625 122.56640625 -26.4375 121.9375 C-28.14453125 119.5546875 -28.14453125 119.5546875 -29.4375 116.9375 C-31.40969181 115.52588213 -31.40969181 115.52588213 -33.5625 114.5 C-36.57386671 112.72435124 -37.29554412 112.26197058 -38.75 108.9375 C-38.4375 105.9375 -38.4375 105.9375 -36.75 103.0625 C-31.81165072 99.89450235 -27.14979739 100.5275265 -21.4375 100.9375 C-22.6986466 97.229729 -23.95017689 95.19381345 -26.9375 92.6875 C-30.5129854 89.32669178 -31.42403155 86.56018032 -32.05078125 81.7578125 C-32.17839844 81.15710938 -32.30601563 80.55640625 -32.4375 79.9375 C-36.27842673 78.01703664 -41.48635911 78.5723123 -45.73828125 78.4140625 C-49.57386881 77.9199319 -51.5079257 77.43484203 -54.4375 74.9375 C-55.6875 72.1953125 -55.6875 72.1953125 -56.4375 69.0625 C-56.8396875 67.51949219 -56.8396875 67.51949219 -57.25 65.9453125 C-57.47676933 62.30755452 -56.56734787 60.82344386 -54.4375 57.9375 C-38.93006238 58.84177986 -38.93006238 58.84177986 -33.0625 59.5 C-23.24229718 60.49672608 -15.00921287 59.44067152 -5.4375 56.9375 C-4.10442417 56.60313836 -2.77121147 56.26931711 -1.4375 55.9375 C-2.96230304 49.98845785 -4.37569585 45.65443386 -8.4375 40.9375 C-10.00181627 37.18314096 -10.87739025 34.00648479 -10.4375 29.9375 C-9.7775 28.9475 -9.1175 27.9575 -8.4375 26.9375 C-17.18486684 25.09825391 -25.79192112 23.62541114 -34.75 23.5 C-35.46019287 23.47808594 -36.17038574 23.45617187 -36.90209961 23.43359375 C-40.19557298 23.44630833 -42.1153409 23.70723546 -44.8203125 25.640625 C-46.58919517 28.15295111 -47.30005059 30.14471227 -48 33.125 C-48.62890625 35.79296875 -48.62890625 35.79296875 -49.4375 37.9375 C-50.9225 38.4325 -50.9225 38.4325 -52.4375 38.9375 C-58.17520492 35.72438525 -58.17520492 35.72438525 -59.4375 31.9375 C-59.09765625 30.02734375 -59.09765625 30.02734375 -58.5 27.875 C-57.23536326 22.66264588 -55.95237769 15.90774461 -58.4375 10.9375 C-58.8125 8 -58.8125 8 -58.4375 4.9375 C-56.25 2.9375 -56.25 2.9375 -53.4375 1.9375 C-50.8125 2.4375 -50.8125 2.4375 -48.4375 3.9375 C-47.9425 4.783125 -47.4475 5.62875 -46.9375 6.5 C-45.68082983 9.10263821 -45.68082983 9.10263821 -43.25 9.75 C-39.63073289 9.99128447 -36.06501461 9.9989833 -32.4375 9.9375 C-32.210625 9.133125 -31.98375 8.32875 -31.75 7.5 C-30.4375 4.9375 -30.4375 4.9375 -28.125 3.9375 C-24.71352025 3.9375 -23.16459487 4.9474578 -20.4375 6.9375 C-19.7775 7.5975 -19.1175 8.2575 -18.4375 8.9375 C-16.58266546 9.54463803 -14.70328615 10.07881052 -12.8125 10.5625 C-11.80960938 10.82289062 -10.80671875 11.08328125 -9.7734375 11.3515625 C-8.61714844 11.64160156 -8.61714844 11.64160156 -7.4375 11.9375 C-7.40011719 11.23882812 -7.36273438 10.54015625 -7.32421875 9.8203125 C-7.25847656 8.91023437 -7.19273438 8.00015625 -7.125 7.0625 C-7.03798828 5.70511719 -7.03798828 5.70511719 -6.94921875 4.3203125 C-6.06255876 0.19159039 -3.91415479 -0.07116645 0 0 Z " fill="#BBDEE6" transform="translate(85.4375,6.0625)"/>
	

	<path d="M0 0 C1.0209375 0.20882812 2.041875 0.41765625 3.09375 0.6328125 C11.92190756 2.09640356 20.68512971 1.88977156 29.61328125 1.77099609 C31.3303125 1.75093506 31.3303125 1.75093506 33.08203125 1.73046875 C34.11884033 1.71250244 35.15564941 1.69453613 36.22387695 1.67602539 C38.59375 1.7578125 38.59375 1.7578125 39.59375 2.7578125 C39.82902773 5.10768512 40.00761417 7.46337289 40.15625 9.8203125 C40.24003906 11.11066406 40.32382813 12.40101562 40.41015625 13.73046875 C40.47074219 14.72949219 40.53132813 15.72851562 40.59375 16.7578125 C37.17468768 17.48759555 34.09504871 17.85784961 30.59375 17.7578125 C31.2042549 21.52549988 32.91141751 23.7645163 35.21875 26.7578125 C38.90451423 31.67877012 41.99802029 36.74229547 44.953125 42.12890625 C46.58571288 44.74493397 48.33123074 46.67727848 50.59375 48.7578125 C49.09107446 53.26583911 45.20395581 54.56606145 41.25390625 56.796875 C37.45073038 58.91527272 37.45073038 58.91527272 35.59375 62.7578125 C31.86808959 63.10468433 28.30834251 63.2768822 24.59375 62.7578125 C22.40625 60.1328125 22.40625 60.1328125 20.59375 56.7578125 C18.0594217 54.56435877 15.35816741 52.64996228 12.59375 50.7578125 C12.71875 48.4453125 12.71875 48.4453125 13.59375 45.7578125 C18.39166727 42.27932248 22.92398402 42.41762654 28.59375 42.7578125 C28.34196616 38.47748726 28.06515149 36.3036458 25.21875 33.0078125 C23.81628071 31.80569597 22.41295263 30.60455675 21.00390625 29.41015625 C19.2397345 27.34299656 18.90636726 25.72478105 18.40625 23.0703125 C18.24769531 22.26207031 18.08914062 21.45382813 17.92578125 20.62109375 C17.81621094 20.00621094 17.70664062 19.39132813 17.59375 18.7578125 C12.81715137 17.30094992 7.86026616 17.43379514 2.90625 17.234375 C-0.53022872 16.73997594 -1.97429581 16.17796109 -4.40625 13.7578125 C-5.708187 9.8520015 -5.71448058 5.84186775 -5.40625 1.7578125 C-2.40625 -0.2421875 -2.40625 -0.2421875 0 0 Z " fill="#329AC7" transform="translate(36.40625,65.2421875)"/>
	

	

	

	<path d="M0 0 C7.59733155 0 11.45431175 3.0658135 17 8 C18.010625 8.825 19.02125 9.65 20.0625 10.5 C22 13 22 13 22.625 16.3125 C21.81741565 21.07724765 20.14053294 24.34152577 17 28 C13.85586634 30.16159189 12.11675354 31.02597101 8.3125 30.9375 C5.34140139 29.73300056 4.31758384 28.94518742 3 26 C3.8125 22.25 3.8125 22.25 5 19 C2.69 18.34 0.38 17.68 -2 17 C-1.84402344 16.43152344 -1.68804687 15.86304687 -1.52734375 15.27734375 C-0.20826967 10.04472539 -0.00928506 6.28381299 -1 1 C-0.67 0.67 -0.34 0.34 0 0 Z " fill="#329AC7" transform="translate(81,65)"/>
	

	

	

	

	

	

	

	

	

	

</svg>
