<?xml version="1.0" encoding="iso-8859-1"?>
<svg height="128" version="1.1" width="128" xmlns="http://www.w3.org/2000/svg">
	

	<path d="M0 0 C42.24 0 84.48 0 128 0 C128 42.24 128 84.48 128 128 C85.76 128 43.52 128 0 128 C0 85.76 0 43.52 0 0 Z " fill="#FCFBFB" transform="translate(0,0)"/>
	

	<path d="M0 0 C0.84203979 -0.00267883 1.68407959 -0.00535767 2.55163574 -0.00811768 C28.76654782 -0.07162466 28.76654782 -0.07162466 32.31713867 2.37939453 C34.84620716 6.11166279 33.23114159 10.93096585 32.5 15.125 C31.26338149 20.92484988 29.71686021 26.64707288 28.1875 32.375 C27.79152178 33.88390593 27.39633537 35.39301989 27.00195312 36.90234375 C25.84653872 41.31308908 24.67564359 45.71960879 23.5 50.125 C23.30875549 50.84196045 23.11751099 51.5589209 22.92047119 52.29760742 C22.73224792 53.00312744 22.54402466 53.70864746 22.35009766 54.43554688 C22.16792191 55.11840759 21.98574615 55.80126831 21.79804993 56.50482178 C21.30207938 58.3624668 20.80500894 60.21981807 20.30786133 62.07714844 C20.04126709 63.08293945 19.77467285 64.08873047 19.5 65.125 C19.28432373 65.86782227 19.06864746 66.61064453 18.84643555 67.37597656 C18.30272315 70.12097699 19.17398654 71.72554706 20.5 74.125 C21.10070312 74.40214844 21.70140625 74.67929688 22.3203125 74.96484375 C25.21477392 76.50544418 26.66219534 78.49121157 28.6875 81.0625 C29.46996094 82.04605469 30.25242187 83.02960938 31.05859375 84.04296875 C31.86425781 85.06003906 32.66992188 86.07710938 33.5 87.125 C35.08068358 89.04385251 36.66393117 90.96059638 38.25 92.875 C39.66980621 94.6224538 41.0868027 96.37219715 42.5 98.125 C43.04140625 98.785 43.5828125 99.445 44.140625 100.125 C47.29638565 104.18758843 48.1936579 107.12141244 48.5 112.125 C47.015 112.62 47.015 112.62 45.5 113.125 C43.7734375 112.0078125 43.7734375 112.0078125 41.875 110.25 C41.17246094 109.60160156 40.46992187 108.95320313 39.74609375 108.28515625 C34.016986 102.77524914 28.49835578 97.20099127 23.3203125 91.16796875 C20.53330766 88.04006418 17.5632393 85.10943583 14.56640625 82.18359375 C12.5 80.125 12.5 80.125 11.02734375 78.41015625 C9.72960377 76.81944955 9.72960377 76.81944955 7.5 75.125 C4.26841231 75.125 2.41626999 75.41065681 -0.1484375 77.41015625 C-1.84134218 79.55809022 -1.89043681 80.85537623 -2 83.5625 C-2.24208832 86.26948762 -2.49093568 88.1036722 -3.5625 90.625 C-6.64288877 93.00981711 -9.65474599 92.8728522 -13.5 93.125 C-14.625 91.4375 -14.625 91.4375 -15.5 89.125 C-14.2 84.825 -14.2 84.825 -12.5 83.125 C-12.45936168 81.45882885 -12.457279 79.79111905 -12.5 78.125 C-13.0593222 78.12944122 -13.61864441 78.13388245 -14.19491577 78.13845825 C-20.00198824 78.18261149 -25.80901325 78.21283294 -31.61621094 78.23486328 C-33.78517594 78.24493789 -35.95412731 78.25859798 -38.12304688 78.27587891 C-41.23571126 78.30006323 -44.34819651 78.31146832 -47.4609375 78.3203125 C-48.434935 78.33063507 -49.4089325 78.34095764 -50.41244507 78.35159302 C-51.31322784 78.35174408 -52.21401062 78.35189514 -53.14208984 78.35205078 C-54.33455826 78.35871262 -54.33455826 78.35871262 -55.55111694 78.36550903 C-57.5 78.125 -57.5 78.125 -59.5 76.125 C-59.73046875 73.15625 -59.73046875 73.15625 -59.6875 69.625 C-59.67783203 67.87703125 -59.67783203 67.87703125 -59.66796875 66.09375 C-59.5 63.125 -59.5 63.125 -58.5 61.125 C-54.0711372 60.95629235 -49.642072 60.79585885 -45.21264648 60.64282227 C-43.70833433 60.5897137 -42.20409783 60.53441226 -40.69995117 60.47680664 C-38.52799795 60.39401757 -36.35588773 60.31932662 -34.18359375 60.24609375 C-32.87962646 60.1989624 -31.57565918 60.15183105 -30.23217773 60.10327148 C-26.50848341 60.12495061 -23.16165946 60.50954281 -19.5 61.125 C-20.97321974 57.34987441 -22.5993729 54.85624139 -25.69921875 52.3359375 C-29.84039215 48.80139409 -33.68351246 45.02586266 -37.51953125 41.16796875 C-38.14890594 40.53533615 -38.77828064 39.90270355 -39.42672729 39.25090027 C-41.3905651 37.27332014 -43.35193984 35.29332934 -45.3125 33.3125 C-47.92029246 30.6781071 -50.5313914 28.04705622 -53.14453125 25.41796875 C-53.73829056 24.8159111 -54.33204987 24.21385345 -54.94380188 23.59355164 C-57.3661854 21.15673908 -59.63159406 19.03727062 -62.5 17.125 C-63.66838281 13.13367884 -63.7557643 9.2178111 -62.8125 5.1875 C-61.20753742 2.66541594 -60.28221513 2.18844761 -57.5 1.125 C-54.37597656 0.80615234 -54.37597656 0.80615234 -50.640625 0.7109375 C-49.95550842 0.69148071 -49.27039185 0.67202393 -48.56451416 0.65197754 C-46.29313565 0.59101199 -44.02174989 0.5448605 -41.75 0.5 C-40.15559469 0.46258364 -38.56119371 0.42498264 -36.96679688 0.38720703 C-24.64589356 0.11421196 -12.32365139 0.02221361 0 0 Z " fill="#CD0F2A" transform="translate(75.5,9.875)"/>
	

	<path d="M0 0 C1.12101105 0.00007553 2.24202209 0.00015106 3.39700317 0.00022888 C4.61161224 0.00539017 5.82622131 0.01055145 7.07763672 0.01586914 C8.31778534 0.01728409 9.55793396 0.01869904 10.83566284 0.02015686 C14.13350555 0.02481443 17.43129968 0.033801 20.72912598 0.04486084 C24.09398808 0.05508808 27.4588573 0.0596573 30.82373047 0.06469727 C37.42661415 0.0757427 44.02946521 0.09249292 50.63232422 0.11352539 C51.40158121 3.63182303 51.68801394 6.01817633 50.81201172 9.52758789 C50.50686646 10.78019409 50.50686646 10.78019409 50.19555664 12.05810547 C49.96843994 12.94264404 49.74132324 13.82718262 49.50732422 14.73852539 C49.16761597 16.11077271 49.16761597 16.11077271 48.82104492 17.51074219 C48.10525614 20.38203969 47.37206356 23.24831043 46.63232422 26.11352539 C46.39078613 27.04986816 46.14924805 27.98621094 45.90039062 28.95092773 C44.50257532 34.34521976 43.07770354 39.73179386 41.63232422 45.11352539 C36.29811241 44.45598405 34.11406304 43.3120928 30.63232422 39.11352539 C30.63232422 38.45352539 30.63232422 37.79352539 30.63232422 37.11352539 C30.09188477 36.90050781 29.55144531 36.68749023 28.99462891 36.46801758 C25.77354466 34.62112057 23.39751597 32.0850244 20.83544922 29.44165039 C20.28298523 28.88161316 19.73052124 28.32157593 19.16131592 27.74456787 C16.80802931 25.35877524 14.46662096 22.96145573 12.12451172 20.56469727 C10.40744407 18.8110553 8.68594843 17.06199576 6.96044922 15.31665039 C6.40877075 14.75852661 5.85709229 14.20040283 5.28869629 13.62536621 C1.33668088 9.68286156 -2.844481 6.3889423 -7.36767578 3.11352539 C-7.36767578 2.45352539 -7.36767578 1.79352539 -7.36767578 1.11352539 C-4.77439735 -0.18311382 -2.9035951 -0.0065103 0 0 Z " fill="#FCFBFB" transform="translate(41.36767578125,23.886474609375)"/>
	

	<path d="M0 0 C3.55577925 -0.00222545 7.11126583 -0.02058461 10.66699219 -0.03930664 C12.95605365 -0.04223501 15.24511655 -0.04422352 17.53417969 -0.04516602 C19.10768692 -0.05594429 19.10768692 -0.05594429 20.71298218 -0.06694031 C34.51959009 -0.02401115 34.51959009 -0.02401115 39.16723633 3.90087891 C43.2404285 13.50835538 35.82848013 30.7664285 33.19824219 40.37280273 C32.75008562 42.03336983 32.30281628 43.69417664 31.85644531 45.35522461 C31.63838226 46.16589386 31.42031921 46.97656311 31.19564819 47.8117981 C30.76692598 49.40625167 30.33823472 51.00071357 29.90957642 52.59518433 C29.70593475 53.35243805 29.50229309 54.10969177 29.29248047 54.88989258 C29.09680481 55.61835388 28.90112915 56.34681519 28.69952393 57.09735107 C28.17763189 59.03016527 27.6470539 60.96062845 27.11572266 62.89086914 C26.83229004 63.95354004 26.54885742 65.01621094 26.25683594 66.11108398 C25.89029907 67.45746948 25.89029907 67.45746948 25.51635742 68.83105469 C25.1110924 71.33777094 25.21037713 72.83045583 26.13574219 75.18530273 C28.01995275 76.27597732 28.01995275 76.27597732 30.13574219 77.18530273 C32.7150255 79.62676175 34.89150398 82.43683421 37.13574219 85.18530273 C37.76971924 85.96091553 37.76971924 85.96091553 38.41650391 86.75219727 C44.52631261 94.26710971 50.10255222 101.89447961 55.13574219 110.18530273 C56.12574219 111.67030273 56.12574219 111.67030273 57.13574219 113.18530273 C57.21479283 115.51729661 57.22372988 117.85362896 57.13574219 120.18530273 C56.14574219 120.18530273 55.15574219 120.18530273 54.13574219 120.18530273 C53.13574219 119.18530273 52.13574219 118.18530273 51.13574219 117.18530273 C50.07097656 116.62069336 49.00621094 116.05608398 47.90917969 115.47436523 C43.85634025 113.19908695 41.05526296 110.27833952 38.01074219 106.81030273 C37.511875 106.25858398 37.01300781 105.70686523 36.49902344 105.13842773 C34.07964013 102.44741654 31.72570732 99.70997902 29.41699219 96.92358398 C26.5755777 93.51291351 23.46420901 90.46107463 20.26464844 87.38842773 C19.62398438 86.76452148 18.98332031 86.14061523 18.32324219 85.49780273 C17.71867187 84.91643555 17.11410156 84.33506836 16.49121094 83.73608398 C15.13574219 82.18530273 15.13574219 82.18530273 15.13574219 80.18530273 C12.49574219 79.85530273 9.85574219 79.52530273 7.13574219 79.18530273 C5.11695292 82.21348663 4.77529623 83.63118604 4.26074219 87.12280273 C3.66547679 90.21637897 3.21379496 92.06221951 1.51074219 94.74780273 C-2.02665857 96.88886109 -4.72003466 97.05374009 -8.86425781 97.18530273 C-9.85425781 96.52530273 -10.84425781 95.86530273 -11.86425781 95.18530273 C-12.42761412 89.45784691 -11.9212511 87.08549804 -8.86425781 82.18530273 C-9.43610809 82.17721588 -10.00795837 82.16912903 -10.59713745 82.16079712 C-16.53422781 82.07492326 -22.47097763 81.975428 -28.40771484 81.86791992 C-30.62510471 81.82957139 -32.84255805 81.79472902 -35.06005859 81.76342773 C-38.2424187 81.71790448 -41.42433963 81.65988954 -44.60644531 81.59936523 C-45.60231659 81.58781403 -46.59818787 81.57626282 -47.62423706 81.56436157 C-48.54504059 81.54449188 -49.46584412 81.52462219 -50.41455078 81.50415039 C-51.22729462 81.49082672 -52.04003845 81.47750305 -52.87741089 81.46377563 C-54.86425781 81.18530273 -54.86425781 81.18530273 -56.86425781 79.18530273 C-57.12988281 76.32202148 -57.12988281 76.32202148 -57.11425781 72.87280273 C-57.11941406 71.74229492 -57.12457031 70.61178711 -57.12988281 69.44702148 C-56.86744755 66.22447079 -56.41119706 64.01620156 -54.86425781 61.18530273 C-51.43253407 60.04139482 -48.76745081 60.05584715 -45.14941406 60.05249023 C-44.49726425 60.05153351 -43.84511444 60.05057678 -43.17320251 60.04959106 C-41.79556176 60.04891142 -40.41791778 60.05075066 -39.0402832 60.05493164 C-36.93791456 60.06027438 -34.83576038 60.05498387 -32.73339844 60.04858398 C-31.39290318 60.04924497 -30.05240805 60.05052656 -28.71191406 60.05249023 C-26.88672241 60.05418213 -26.88672241 60.05418213 -25.0246582 60.0559082 C-22.43009673 60.1621359 -20.3253077 60.41553189 -17.86425781 61.18530273 C-23.30737186 54.6925392 -29.20924014 48.68595543 -35.20678711 42.71240234 C-36.79884748 41.12570327 -38.38548771 39.53372532 -39.97167969 37.94116211 C-44.92084854 32.9890968 -49.89863756 28.11797857 -55.24536133 23.58984375 C-59.80532453 19.63365791 -59.80532453 19.63365791 -60.26269531 16.15405273 C-60.25496094 15.00936523 -60.24722656 13.86467773 -60.23925781 12.68530273 C-60.25085937 10.96827148 -60.25085937 10.96827148 -60.26269531 9.21655273 C-59.86425781 6.18530273 -59.86425781 6.18530273 -58.46582031 4.34155273 C-52.49319943 0.0296118 -43.12052645 0.94963827 -36.01269531 0.63452148 C-35.0719516 0.59268234 -34.13120789 0.5508432 -33.16195679 0.50773621 C-22.11063053 0.05892197 -11.05918948 -0.00077554 0 0 Z M-34.68994141 2.44976807 C-36.25479453 2.48159408 -37.81974913 2.50879298 -39.38476562 2.53118896 C-41.55951648 2.56424789 -43.73299887 2.61620944 -45.90722656 2.67358398 C-47.13465576 2.69976807 -48.36208496 2.72595215 -49.62670898 2.75292969 C-53.12773043 3.22048937 -55.07108897 4.05219666 -57.86425781 6.18530273 C-58.75307002 8.52663633 -58.75307002 8.52663633 -58.80175781 11.12280273 C-58.87265625 11.97745117 -58.94355469 12.83209961 -59.01660156 13.71264648 C-58.81133286 17.04431542 -57.82872436 19.23519426 -55.4375 21.59082031 C-54.55819824 22.29694458 -54.55819824 22.29694458 -53.66113281 23.01733398 C-46.74471887 28.87316864 -40.49631076 35.44895972 -34.11425781 41.87280273 C-32.78766976 43.20441697 -31.46084862 44.53579903 -30.13378906 45.86694336 C-24.01896744 52.00220029 -24.01896744 52.00220029 -21.28869629 54.7618103 C-20.05365248 55.99603385 -18.79086918 57.20237988 -17.5234375 58.40332031 C-15.86425781 60.18530273 -15.86425781 60.18530273 -14.86425781 63.18530273 C-15.79975464 63.06940796 -15.79975464 63.06940796 -16.75415039 62.95117188 C-24.740657 62.08132564 -32.53685885 62.26132207 -40.55175781 62.62280273 C-42.48051758 62.70111328 -42.48051758 62.70111328 -44.44824219 62.78100586 C-47.58724016 62.90936637 -50.72580851 63.04425961 -53.86425781 63.18530273 C-55.28844842 66.03368394 -55.0342129 68.51318181 -55.05175781 71.68530273 C-55.0659375 72.85061523 -55.08011719 74.01592773 -55.09472656 75.21655273 C-55.17869495 78.30436991 -55.17869495 78.30436991 -52.86425781 80.18530273 C-50.84415973 80.47681695 -50.84415973 80.47681695 -48.50634766 80.41235352 C-47.60556488 80.41220245 -46.7047821 80.41205139 -45.77670288 80.41189575 C-44.80270538 80.40157318 -43.82870789 80.39125061 -42.82519531 80.38061523 C-41.33120712 80.37637039 -41.33120712 80.37637039 -39.80703735 80.37203979 C-36.61765663 80.36082113 -33.42855404 80.33571354 -30.23925781 80.31030273 C-28.08040769 80.30027511 -25.92155319 80.29114889 -23.76269531 80.28295898 C-18.46312083 80.26087634 -13.16370919 80.22738232 -7.86425781 80.18530273 C-7.73925781 82.56030273 -7.73925781 82.56030273 -7.86425781 85.18530273 C-8.52425781 85.84530273 -9.18425781 86.50530273 -9.86425781 87.18530273 C-10.69918135 89.6099006 -10.69918135 89.6099006 -10.86425781 92.18530273 C-9.87425781 93.67030273 -9.87425781 93.67030273 -8.86425781 95.18530273 C-3.51307519 95.00163739 -3.51307519 95.00163739 1.07324219 92.68530273 C2.15358131 90.14332832 2.32680007 88.41302981 2.51074219 85.68530273 C2.80544995 82.18348105 2.97060508 81.38346726 5.32324219 78.56030273 C8.92444535 76.79971452 10.31383766 77.050969 14.13574219 78.18530273 C16.22403057 80.04767365 17.9179186 81.75723989 19.69824219 83.87280273 C20.15392578 84.39036133 20.60960938 84.90791992 21.07910156 85.44116211 C23.32668422 88.00845781 25.49932124 90.62867812 27.66308594 93.26733398 C30.03596292 96.06755374 32.51600976 98.61678312 35.13574219 101.18530273 C36.20184992 102.28202448 37.26551158 103.38112757 38.32714844 104.48217773 C39.45075067 105.63331281 40.5744499 106.78435321 41.69824219 107.93530273 C42.26220703 108.5244043 42.82617188 109.11350586 43.40722656 109.72045898 C43.95830078 110.28120117 44.509375 110.84194336 45.07714844 111.41967773 C45.56900635 111.92724609 46.06086426 112.43481445 46.56762695 112.95776367 C48.38708657 114.38205808 49.88128294 114.77755872 52.13574219 115.18530273 C52.87431161 112.50681996 53.3211417 110.75961502 52.45605469 108.07983398 C49.32915481 102.63330577 45.62389055 98.1823538 41.33886719 93.59936523 C38.86421918 90.88778284 36.7097392 88.03929307 34.54589844 85.07983398 C33.04635108 83.06520665 31.49160782 81.11621105 29.88574219 79.18530273 C29.40621094 78.60780273 28.92667969 78.03030273 28.43261719 77.43530273 C27.19594542 75.95397773 27.19594542 75.95397773 25.13574219 76.18530273 C23.43253568 72.57851248 23.0138637 70.95636354 24.13574219 67.18530273 C24.42489502 66.08927734 24.71404785 64.99325195 25.01196289 63.86401367 C25.36160486 62.54917875 25.71147227 61.23440377 26.06152344 59.91967773 C26.45024773 58.45614999 26.83891771 56.99260782 27.22753906 55.52905273 C27.83238464 53.25221519 28.43754845 50.97546453 29.04370117 48.69897461 C31.19085852 40.63269878 33.31880448 32.56171186 35.37011719 24.47045898 C35.68819336 23.21885986 36.00626953 21.96726074 36.33398438 20.67773438 C38.01442958 13.50083509 38.01442958 13.50083509 38.13574219 6.18530273 C36.50849754 4.02591495 35.52850114 3.27317452 32.86816406 2.67797852 C23.45543163 2.09093001 14.0633116 2.02929878 4.63574219 2.06030273 C3.34463028 2.06312759 3.34463028 2.06312759 2.0274353 2.06600952 C-10.21216825 2.0971514 -22.45289498 2.19012479 -34.68994141 2.44976807 Z " fill="#E1AEB7" transform="translate(70.8642578125,7.814697265625)"/>
	

	<path d="M0 0 C0.84203979 -0.00267883 1.68407959 -0.00535767 2.55163574 -0.00811768 C28.76654782 -0.07162466 28.76654782 -0.07162466 32.31713867 2.37939453 C34.84620716 6.11166279 33.23114159 10.93096585 32.5 15.125 C31.26338149 20.92484988 29.71686021 26.64707288 28.1875 32.375 C27.79152178 33.88390593 27.39633537 35.39301989 27.00195312 36.90234375 C25.84653872 41.31308908 24.67564359 45.71960879 23.5 50.125 C23.30875549 50.84196045 23.11751099 51.5589209 22.92047119 52.29760742 C22.73224792 53.00312744 22.54402466 53.70864746 22.35009766 54.43554688 C22.16792191 55.11840759 21.98574615 55.80126831 21.79804993 56.50482178 C21.30207938 58.3624668 20.80500894 60.21981807 20.30786133 62.07714844 C20.04126709 63.08293945 19.77467285 64.08873047 19.5 65.125 C19.28432373 65.86782227 19.06864746 66.61064453 18.84643555 67.37597656 C18.30272315 70.12097699 19.17398654 71.72554706 20.5 74.125 C21.10070312 74.40214844 21.70140625 74.67929688 22.3203125 74.96484375 C25.21477392 76.50544418 26.66219534 78.49121157 28.6875 81.0625 C29.46996094 82.04605469 30.25242187 83.02960938 31.05859375 84.04296875 C31.86425781 85.06003906 32.66992188 86.07710938 33.5 87.125 C35.08068358 89.04385251 36.66393117 90.96059638 38.25 92.875 C39.66980621 94.6224538 41.0868027 96.37219715 42.5 98.125 C43.04140625 98.785 43.5828125 99.445 44.140625 100.125 C47.29638565 104.18758843 48.1936579 107.12141244 48.5 112.125 C47.015 112.62 47.015 112.62 45.5 113.125 C43.7734375 112.0078125 43.7734375 112.0078125 41.875 110.25 C41.17375 109.60289063 40.4725 108.95578125 39.75 108.2890625 C33.69495085 102.46528258 27.86792909 96.59404275 22.5 90.125 C25.5 90.125 25.5 90.125 26.9296875 91.48046875 C27.40664062 92.08503906 27.88359375 92.68960938 28.375 93.3125 C30.93139993 96.44534305 33.60253404 99.29652133 36.5 102.125 C37.16644531 102.80175781 37.83289063 103.47851562 38.51953125 104.17578125 C39.23496094 104.90152344 39.95039062 105.62726563 40.6875 106.375 C41.36167969 107.06078125 42.03585938 107.7465625 42.73046875 108.453125 C44.40798995 110.19949111 44.40798995 110.19949111 46.5 111.125 C45.08777025 105.36882303 42.12106836 101.78710644 38.375 97.375 C37.19238655 95.95339263 36.01009411 94.53151815 34.828125 93.109375 C34.25513672 92.42552734 33.68214844 91.74167969 33.09179688 91.03710938 C31.06168641 88.59848589 29.09009378 86.11618188 27.125 83.625 C24.17940783 79.91017676 21.08360922 76.3785224 17.84765625 72.9140625 C16.25611911 70.80123928 15.64551218 69.78177079 15.5 67.125 C16.18294231 65.50116193 16.87600128 63.88074782 17.62255859 62.28515625 C19.4620793 57.75647532 20.27626427 52.8879559 21.3125 48.125 C23.52022899 38.20991883 25.92714672 28.38072186 28.67114258 18.59960938 C30.03054646 13.60189495 30.79768626 9.30615846 30.5 4.125 C19.43324407 2.86178995 8.37006245 2.96820296 -2.75 3 C-4.22685776 3.00282486 -4.22685776 3.00282486 -5.73355103 3.00570679 C-18.19403905 3.03360971 -30.65702828 3.09054889 -43.11437988 3.38946533 C-44.49033615 3.42134655 -45.86640974 3.44852951 -47.24255371 3.47088623 C-49.12425732 3.50354466 -51.00555046 3.55777548 -52.88671875 3.61328125 C-54.45232544 3.65255737 -54.45232544 3.65255737 -56.04956055 3.69262695 C-56.85820557 3.83531006 -57.66685059 3.97799316 -58.5 4.125 C-60.56572098 7.22358147 -61.16679734 9.19536654 -61.05599976 12.91055298 C-59.87793927 17.602556 -55.98612754 20.59722454 -52.58203125 23.82421875 C-51.77263596 24.62229446 -50.96324066 25.42037018 -50.12931824 26.24263 C-47.54191604 28.78534751 -44.92814298 31.29887455 -42.3125 33.8125 C-40.57044141 35.51441079 -38.8301852 37.21816857 -37.09179688 38.92382812 C-33.89359385 42.05677306 -30.68552793 45.17877395 -27.46411133 48.2878418 C-26.1423265 49.5664663 -24.82091032 50.84547209 -23.5 52.125 C-22.97296478 52.63455231 -22.44592957 53.14410461 -21.90292358 53.6690979 C-19.51798211 56.00642098 -17.77080384 58.00575422 -16.5 61.125 C-18.5 63.125 -18.5 63.125 -22.21533203 63.35205078 C-23.81286052 63.35173351 -25.41041027 63.34039982 -27.0078125 63.3203125 C-28.26874222 63.31606766 -28.26874222 63.31606766 -29.55514526 63.31173706 C-32.24524046 63.3005243 -34.9350051 63.27541803 -37.625 63.25 C-39.44660978 63.2399716 -41.26822477 63.23084551 -43.08984375 63.22265625 C-47.56002358 63.20058142 -52.02995571 63.16604434 -56.5 63.125 C-57.48248524 67.1777516 -57.58159574 70.96361737 -57.5 75.125 C-56.94289841 75.12055878 -56.38579681 75.11611755 -55.81181335 75.11154175 C-50.02080853 75.06734265 -44.22985151 75.03714786 -38.4387207 75.01513672 C-36.27659153 75.00507049 -34.114476 74.99141646 -31.95239258 74.97412109 C-28.84713375 74.94990022 -25.7420547 74.93852319 -22.63671875 74.9296875 C-21.66788254 74.91936493 -20.69904633 74.90904236 -19.70085144 74.89840698 C-18.8001442 74.89825592 -17.89943695 74.89810486 -16.97143555 74.89794922 C-15.78229805 74.89128738 -15.78229805 74.89128738 -14.56913757 74.88449097 C-12.5 75.125 -12.5 75.125 -9.5 77.125 C-10.25 83.75 -10.25 83.75 -12.5 87.125 C-12.5 88.115 -12.5 89.105 -12.5 90.125 C-10.19 89.795 -7.88 89.465 -5.5 89.125 C-5.46132812 88.25488281 -5.46132812 88.25488281 -5.421875 87.3671875 C-5.01499297 81.76331229 -4.09135557 78.47815826 -0.5 74.125 C2.70500858 72.52249571 6.02187438 72.64405678 9.5 73.125 C11.5625 74.625 11.5625 74.625 13.5 77.125 C14.09167969 77.76566406 14.68335937 78.40632813 15.29296875 79.06640625 C20.5 84.70995509 20.5 84.70995509 20.5 88.125 C19.27083333 86.89583333 18.04166667 85.66666667 16.8125 84.4375 C16.07902344 83.71304688 15.34554687 82.98859375 14.58984375 82.2421875 C13.37690174 81.01337522 12.18730475 79.75862682 11.06640625 78.4453125 C9.77728267 76.86779081 9.77728267 76.86779081 7.5 75.125 C4.26841231 75.125 2.41626999 75.41065681 -0.1484375 77.41015625 C-1.84134218 79.55809022 -1.89043681 80.85537623 -2 83.5625 C-2.24208832 86.26948762 -2.49093568 88.1036722 -3.5625 90.625 C-6.64288877 93.00981711 -9.65474599 92.8728522 -13.5 93.125 C-14.625 91.4375 -14.625 91.4375 -15.5 89.125 C-14.2 84.825 -14.2 84.825 -12.5 83.125 C-12.45936168 81.45882885 -12.457279 79.79111905 -12.5 78.125 C-13.0593222 78.12944122 -13.61864441 78.13388245 -14.19491577 78.13845825 C-20.00198824 78.18261149 -25.80901325 78.21283294 -31.61621094 78.23486328 C-33.78517594 78.24493789 -35.95412731 78.25859798 -38.12304688 78.27587891 C-41.23571126 78.30006323 -44.34819651 78.31146832 -47.4609375 78.3203125 C-48.434935 78.33063507 -49.4089325 78.34095764 -50.41244507 78.35159302 C-51.31322784 78.35174408 -52.21401062 78.35189514 -53.14208984 78.35205078 C-54.33455826 78.35871262 -54.33455826 78.35871262 -55.55111694 78.36550903 C-57.5 78.125 -57.5 78.125 -59.5 76.125 C-59.73046875 73.15625 -59.73046875 73.15625 -59.6875 69.625 C-59.67783203 67.87703125 -59.67783203 67.87703125 -59.66796875 66.09375 C-59.5 63.125 -59.5 63.125 -58.5 61.125 C-54.0711372 60.95629235 -49.642072 60.79585885 -45.21264648 60.64282227 C-43.70833433 60.5897137 -42.20409783 60.53441226 -40.69995117 60.47680664 C-38.52799795 60.39401757 -36.35588773 60.31932662 -34.18359375 60.24609375 C-32.87962646 60.1989624 -31.57565918 60.15183105 -30.23217773 60.10327148 C-26.50848341 60.12495061 -23.16165946 60.50954281 -19.5 61.125 C-20.97321974 57.34987441 -22.5993729 54.85624139 -25.69921875 52.3359375 C-29.84039215 48.80139409 -33.68351246 45.02586266 -37.51953125 41.16796875 C-38.14890594 40.53533615 -38.77828064 39.90270355 -39.42672729 39.25090027 C-41.3905651 37.27332014 -43.35193984 35.29332934 -45.3125 33.3125 C-47.92029246 30.6781071 -50.5313914 28.04705622 -53.14453125 25.41796875 C-53.73829056 24.8159111 -54.33204987 24.21385345 -54.94380188 23.59355164 C-57.3661854 21.15673908 -59.63159406 19.03727062 -62.5 17.125 C-63.66838281 13.13367884 -63.7557643 9.2178111 -62.8125 5.1875 C-61.20753742 2.66541594 -60.28221513 2.18844761 -57.5 1.125 C-54.37597656 0.80615234 -54.37597656 0.80615234 -50.640625 0.7109375 C-49.95550842 0.69148071 -49.27039185 0.67202393 -48.56451416 0.65197754 C-46.29313565 0.59101199 -44.02174989 0.5448605 -41.75 0.5 C-40.15559469 0.46258364 -38.56119371 0.42498264 -36.96679688 0.38720703 C-24.64589356 0.11421196 -12.32365139 0.02221361 0 0 Z " fill="#CD5A6C" transform="translate(75.5,9.875)"/>
	

	

	

</svg>
