<?xml version="1.0" encoding="iso-8859-1"?>
<svg height="128" version="1.1" width="128" xmlns="http://www.w3.org/2000/svg">
	

	<path d="M0 0 C42.24 0 84.48 0 128 0 C128 42.24 128 84.48 128 128 C85.76 128 43.52 128 0 128 C0 85.76 0 43.52 0 0 Z " fill="#FDFDFD" transform="translate(0,0)"/>
	

	<path d="M0 0 C7.27175135 3.18480839 12.66554619 12.8384356 17.11328125 19.14453125 C18.39742318 20.95203123 19.71684085 22.73511215 21.07421875 24.48828125 C26.4976902 31.55042341 30.40673387 38.9969921 34.18066406 47.01806641 C35.00583246 48.75774407 35.86465547 50.48135337 36.7265625 52.203125 C37.19320312 53.15832031 37.65984375 54.11351562 38.140625 55.09765625 C38.54410156 55.91621094 38.94757813 56.73476562 39.36328125 57.578125 C40.24869844 60.46661716 40.05773102 62.06553107 39.078125 64.91015625 C28.76288163 73.54127825 12.42473573 75.06848409 -0.546875 75.16015625 C-1.28421875 75.18078125 -2.0215625 75.20140625 -2.78125 75.22265625 C-9.22260827 75.26883086 -12.62770787 73.23157739 -17.296875 69.09765625 C-19.06924258 67.53244851 -20.83309646 65.98117908 -22.6796875 64.50390625 C-28.07792165 60.1465872 -33.8588502 55.23269684 -35.5703125 48.2734375 C-36.03064752 40.59022685 -33.07230989 35.17143464 -28.921875 28.91015625 C-28.34179688 28.01425781 -27.76171875 27.11835937 -27.1640625 26.1953125 C-21.92485697 18.55571782 -15.61944688 12.2484361 -8.921875 5.91015625 C-8.20128906 5.20890625 -7.48070313 4.50765625 -6.73828125 3.78515625 C-2.53635432 -0.11856941 -2.53635432 -0.11856941 0 0 Z " fill="#E21013" transform="translate(62.921875,22.08984375)"/>
	

	<path d="M0 0 C2.6953125 2.125 2.6953125 2.125 5.125 5 C6.3934375 6.49853516 6.3934375 6.49853516 7.6875 8.02734375 C15 17.42736486 15 17.42736486 15 21 C15.66 21 16.32 21 17 21 C18.65804358 23.049063 20.18366945 25.09127098 21.6875 27.25 C22.13375732 27.88534668 22.58001465 28.52069336 23.03979492 29.17529297 C41.18428684 55.31770738 41.18428684 55.31770738 40 69 C37.40818929 74.41924057 32.30202144 75.91194522 27 78 C26.01 78.495 26.01 78.495 25 79 C21.43321089 79.45543072 17.86139829 79.83350442 14.28515625 80.20703125 C10.9556992 80.67663523 8.27916925 81.70820678 5.203125 83.046875 C-2.26909771 85.88339087 -9.85287208 85.56375868 -17.7355957 85.46655273 C-20.32502403 85.4373588 -22.91242739 85.44602574 -25.50195312 85.45898438 C-27.16407236 85.45275194 -28.82618523 85.44436488 -30.48828125 85.43359375 C-31.25400955 85.43652939 -32.01973785 85.43946503 -32.80867004 85.44248962 C-37.57563625 85.35907012 -40.85665618 84.59779825 -45 82 C-46.42578125 79.9140625 -46.42578125 79.9140625 -47.3125 77.625 C-47.61800781 76.87476562 -47.92351563 76.12453125 -48.23828125 75.3515625 C-50.10654256 69.58390451 -50.1207717 64.19845028 -50.0625 58.1875 C-50.05573242 56.86202148 -50.05573242 56.86202148 -50.04882812 55.50976562 C-50.03709866 53.33981441 -50.01916495 51.16989828 -50 49 C-46.89448334 49 -45.64738916 49.5393715 -43 51 C-42.9175 50.175 -42.835 49.35 -42.75 48.5 C-39.75914589 34.5426808 -28.55950511 22.04973614 -19 12 C-17.90669299 10.71676438 -16.82179077 9.42626033 -15.75 8.125 C-11.05365381 2.66566199 -7.74891453 -0.94254827 0 0 Z M-8.51171875 5.96484375 C-9.18332031 6.59535645 -9.85492188 7.22586914 -10.546875 7.87548828 C-11.60648438 8.89618408 -11.60648438 8.89618408 -12.6875 9.9375 C-13.77224609 10.97366455 -13.77224609 10.97366455 -14.87890625 12.03076172 C-31.05743048 27.48327224 -31.05743048 27.48327224 -38.75 47.875 C-38.69895511 55.57256873 -33.63801688 60.43278035 -28.49267578 65.58300781 C-25.77892322 68.15916416 -22.92463808 70.46891489 -19.875 72.6328125 C-18 74 -18 74 -16.4375 75.6171875 C-12.36047975 79.53910371 -4.95290418 78.29229087 0.36328125 78.22265625 C7.09467077 78.00028124 13.47298993 76.64305796 20 75 C20.97195312 74.76023437 21.94390625 74.52046875 22.9453125 74.2734375 C27.9480054 72.91449704 32.06396232 71.43141746 36 68 C37.12007233 65.42088608 37.20216876 63.67038741 36.39038086 60.97851562 C35.40273488 58.50449823 34.3199117 56.09873622 33.1875 53.6875 C32.78096191 52.80610352 32.37442383 51.92470703 31.95556641 51.01660156 C26.85430098 40.222394 20.94816111 29.66373231 12.71875 20.9296875 C10.57151863 18.51893228 8.74510414 15.94320619 6.875 13.3125 C4.14732811 9.51380801 1.6086402 5.99001617 -2 3 C-5.60231092 3 -5.9790316 3.56871147 -8.51171875 5.96484375 Z " fill="#E5C6B3" transform="translate(66,19)"/>
	

	

	<path d="M0 0 C5.09353382 0.46506178 7.48911733 4.49954907 10.63671875 8.12109375 C14.31141714 12.59754451 17.65596068 17.27472705 21 22 C22.3954439 23.87528985 23.79127416 25.75029227 25.1875 27.625 C32.21582708 37.32020218 32.21582708 37.32020218 34 42 C33.67 42.99 33.34 43.98 33 45 C32.01 44.505 32.01 44.505 31 44 C30.37996094 44.17660156 29.75992188 44.35320312 29.12109375 44.53515625 C25.78347486 45.26660496 23.83902107 43.85562673 20.9296875 42.2890625 C18.6658194 40.77676194 17.15839022 38.9494919 15.546875 36.76953125 C13.42472146 34.34191621 10.96923362 32.49256813 8.4375 30.5 C4.40155748 27.27450955 1.35739389 24.60253093 -1 20 C-1 19.34 -1 18.68 -1 18 C-1.804375 17.7525 -2.60875 17.505 -3.4375 17.25 C-6 16 -6 16 -6.83984375 14.27734375 C-7.0722097 10.9732133 -5.76859529 9.14902736 -4.125 6.3125 C-3.57070313 5.33925781 -3.01640625 4.36601562 -2.4453125 3.36328125 C-1 1 -1 1 0 0 Z " fill="#F89D1C" transform="translate(61,22)"/>
	

	

	

	

	

	

	

</svg>
