<?xml version="1.0" encoding="iso-8859-1"?>
<svg height="128" version="1.1" width="128" xmlns="http://www.w3.org/2000/svg">
	

	<path d="M0 0 C42.24 0 84.48 0 128 0 C128 42.24 128 84.48 128 128 C85.76 128 43.52 128 0 128 C0 85.76 0 43.52 0 0 Z " fill="#EA5810" transform="translate(0,0)"/>
	

	

	<path d="M0 0 C9.18840657 7.79496953 14.46942252 16.89909468 16.1015625 28.89453125 C16.31747524 38.98485308 12.0059575 47.8682443 6.1015625 55.89453125 C4.6165625 56.38953125 4.6165625 56.38953125 3.1015625 56.89453125 C2.6065625 58.37953125 2.6065625 58.37953125 2.1015625 59.89453125 C-10.83273658 70.42798217 -24.28514744 73.90580423 -40.6328125 72.69140625 C-55.19369275 70.70974799 -67.43911458 62.10540585 -76.3359375 50.70703125 C-81.59253215 43.15530373 -84.50318267 35.66825614 -83.52734375 26.3515625 C-82.19022611 19.30336612 -80.4144552 13.50313388 -75.8984375 7.89453125 C-75.33640625 7.19585937 -74.774375 6.4971875 -74.1953125 5.77734375 C-54.89102061 -17.1360114 -23.29199736 -16.91965846 0 0 Z M-62.8984375 9.89453125 C-63.53652344 10.44238281 -64.17460938 10.99023438 -64.83203125 11.5546875 C-70.3988452 16.6354179 -72.85273511 21.7595539 -73.4609375 29.26953125 C-73.12884996 37.65835139 -66.94694102 44.61188929 -61.10546875 50.140625 C-50.50548429 58.56432946 -37.96187696 60.1188373 -24.8984375 58.89453125 C-16.13275913 57.12657438 -8.35854872 52.62213585 -3.04296875 45.359375 C0.81228035 39.1415267 3.37404379 33.36724 2.1015625 25.89453125 C-1.83152188 15.58144359 -9.09181192 8.13386723 -19.125 3.6328125 C-20.00285156 3.26736328 -20.00285156 3.26736328 -20.8984375 2.89453125 C-21.7646875 2.50265625 -22.6309375 2.11078125 -23.5234375 1.70703125 C-37.14300112 -2.95229315 -52.33354131 0.21197804 -62.8984375 9.89453125 Z " fill="#FBF8F5" transform="translate(93.8984375,32.10546875)"/>
	

	<path d="M0 0 C1.73828125 1.66796875 1.73828125 1.66796875 3.1875 3.375 C4.0125 4.344375 4.8375 5.31375 5.6875 6.3125 C7.52544009 10.06496103 7.77802565 12.24132046 7.1875 16.375 C4.55563741 21.4437724 1.68115555 24.04982031 -3.625 26.0625 C-10.18733095 26.99997585 -15.02185756 26.16126063 -21.2265625 24.08984375 C-23.89977617 23.35087381 -26.29831815 23.13696397 -29.0625 23 C-34.19397204 22.60465074 -36.32200587 21.12728119 -39.8125 17.375 C-41.89023602 14.66490954 -41.81337055 13.42288009 -41.75 9.9375 C-40.61339846 5.61841414 -39.17928049 4.2541778 -35.8125 1.375 C-26.22191219 -3.05240099 -9.27701697 -6.56474199 0 0 Z " fill="#FBF8F5" transform="translate(71.8125,50.625)"/>
	

	<path d="M0 0 C11.01586019 7.52184286 18.2656106 17.2117203 21.71875 30.22265625 C23.24204205 39.46493785 19.8906317 47.91916949 15.3125 55.8125 C14.590625 56.76125 13.86875 57.71 13.125 58.6875 C12.67898437 59.30109375 12.23296875 59.9146875 11.7734375 60.546875 C3.27067423 71.3533426 -10.45500971 77.81494322 -23.875 79.6875 C-36.25139596 81.01435946 -48.59313455 77.43704716 -58.875 70.6875 C-59.59171875 70.23503906 -60.3084375 69.78257813 -61.046875 69.31640625 C-69.92203724 63.24483208 -75.66082263 54.42428884 -79.875 44.6875 C-80.32875 43.676875 -80.7825 42.66625 -81.25 41.625 C-82.14351429 37.42548284 -81.65402381 33.87970438 -80.875 29.6875 C-80.64683594 28.38232422 -80.64683594 28.38232422 -80.4140625 27.05078125 C-77.91407452 15.67096584 -70.31228019 6.32854903 -60.875 -0.3125 C-41.27581526 -11.85367942 -19.60081945 -11.64299357 0 0 Z M-69.875 9.6875 C-76.77240165 18.53867208 -80.64833397 28.44538795 -79.578125 39.8515625 C-77.04967663 51.7846054 -69.00567472 61.83630326 -59.015625 68.6328125 C-46.62670466 76.147919 -33.1142226 80.03179554 -18.59765625 77.00390625 C-9.43287137 74.37761237 0.16486579 70.40762959 7.125 63.6875 C7.125 63.0275 7.125 62.3675 7.125 61.6875 C8.115 61.3575 9.105 61.0275 10.125 60.6875 C16.68029175 51.77640028 21.24585054 41.92520739 19.72265625 30.73046875 C17.1458025 18.85254526 11.10712879 9.21326541 0.8828125 2.5859375 C-22.57330592 -11.56519508 -50.2841519 -11.27546975 -69.875 9.6875 Z " fill="#E5895B" transform="translate(89.875,27.3125)"/>
	

	<path d="M0 0 C9.18840657 7.79496953 14.46942252 16.89909468 16.1015625 28.89453125 C16.31747524 38.98485308 12.0059575 47.8682443 6.1015625 55.89453125 C4.6165625 56.38953125 4.6165625 56.38953125 3.1015625 56.89453125 C2.6065625 58.37953125 2.6065625 58.37953125 2.1015625 59.89453125 C-10.83273658 70.42798217 -24.28514744 73.90580423 -40.6328125 72.69140625 C-55.19369275 70.70974799 -67.43911458 62.10540585 -76.3359375 50.70703125 C-81.59253215 43.15530373 -84.50318267 35.66825614 -83.52734375 26.3515625 C-82.19022611 19.30336612 -80.4144552 13.50313388 -75.8984375 7.89453125 C-75.33640625 7.19585937 -74.774375 6.4971875 -74.1953125 5.77734375 C-54.89102061 -17.1360114 -23.29199736 -16.91965846 0 0 Z M-73.8984375 6.89453125 C-75.66975843 9.21877833 -76.66622263 11.18365854 -77.8984375 13.89453125 C-78.18203125 14.49652344 -78.465625 15.09851563 -78.7578125 15.71875 C-82.31354929 23.98751526 -83.09497553 33.4097114 -79.8984375 41.89453125 C-74.0488402 54.16909607 -64.23703857 63.01013154 -51.71484375 68.21875 C-38.96509429 72.4195345 -25.2792086 72.98795648 -12.88671875 67.4609375 C-3.70217135 63.29773268 -3.70217135 63.29773268 2.1015625 55.89453125 C3.0915625 55.56453125 4.0815625 55.23453125 5.1015625 54.89453125 C11.66436011 46.51095747 14.88636675 37.55981977 14.1015625 26.89453125 C12.5623231 16.87973311 7.64386467 8.60530631 0.1015625 1.89453125 C-23.83924444 -14.92954328 -53.21051476 -14.72696201 -73.8984375 6.89453125 Z " fill="#EFC4AB" transform="translate(93.8984375,32.10546875)"/>
	

	

	<path d="M0 0 C6.73123343 4.83332927 12.03195856 10.72212932 14.828125 18.6171875 C15.78658048 26.04521751 13.59649406 32.39091995 9.5078125 38.6328125 C5.97784373 43.06938527 1.86254003 46.06254939 -3.171875 48.6171875 C-3.80351563 48.93816406 -4.43515625 49.25914063 -5.0859375 49.58984375 C-15.25418852 53.81025682 -28.52325606 52.81564062 -38.59765625 48.87109375 C-47.31217534 44.62623696 -53.83590128 37.62114808 -59.171875 29.6171875 C-61.37350784 23.01228897 -60.70856577 17.10044874 -57.62890625 10.88671875 C-53.11927938 3.86234016 -46.99534528 -1.48739733 -39.171875 -4.3828125 C-38.38941406 -4.67929687 -37.60695313 -4.97578125 -36.80078125 -5.28125 C-23.95081982 -9.65143969 -11.33755242 -7.21851359 0 0 Z M-52.171875 6.6171875 C-52.935 7.4009375 -53.698125 8.1846875 -54.484375 8.9921875 C-57.5612649 13.77846067 -59.87376224 18.85119754 -58.734375 24.6171875 C-55.61225846 34.13491247 -48.606054 41.26418344 -40.234375 46.4296875 C-28.78373136 50.86973299 -15.01255977 51.76775814 -3.57421875 46.8828125 C3.8192557 42.98771376 8.57338159 38.57762301 12.078125 30.8671875 C13.54925338 24.49229785 13.84568592 18.88352824 10.828125 12.9296875 C5.03189514 3.72391066 -3.60500374 -0.7308068 -13.421875 -4.6953125 C-28.23396824 -7.41086293 -41.67699598 -4.55310453 -52.171875 6.6171875 Z " fill="#E5895B" transform="translate(81.171875,39.3828125)"/>
	

	

	

</svg>
