<?xml version="1.0" encoding="iso-8859-1"?>
<svg height="128" version="1.1" width="128" xmlns="http://www.w3.org/2000/svg">
	

	<path d="M0 0 C42.24 0 84.48 0 128 0 C128 42.24 128 84.48 128 128 C85.76 128 43.52 128 0 128 C0 85.76 0 43.52 0 0 Z " fill="#FCFAFA" transform="translate(0,0)"/>
	

	<path d="M0 0 C2.87538147 -0.32952881 2.87538147 -0.32952881 6.60180664 -0.26464844 C7.61931503 -0.25308464 7.61931503 -0.25308464 8.65737915 -0.24128723 C10.90878921 -0.21192647 13.15915207 -0.16086966 15.41015625 -0.109375 C16.97755564 -0.08386578 18.54497523 -0.05957063 20.1124115 -0.03643799 C23.40550029 0.01521255 26.69820244 0.07671158 29.9909668 0.14599609 C34.19138437 0.23429711 38.39185738 0.30605132 42.59269047 0.37128067 C46.6152836 0.4344477 50.63771612 0.5059615 54.66015625 0.578125 C55.41931902 0.59107857 56.17848179 0.60403214 56.96064949 0.61737823 C78.6173265 1.00221319 78.6173265 1.00221319 82.9609375 4.13671875 C85.32404974 7.45503536 85.97337637 9.8028426 86.625 13.8125 C86.73851807 14.46992188 86.85203613 15.12734375 86.96899414 15.8046875 C87.2073059 17.18574916 87.43809516 18.56812845 87.66162109 19.95166016 C88.1894259 23.14666903 88.82146382 26.32098976 89.4375 29.5 C89.96723904 32.33172203 90.48476081 35.16560681 91 38 C91.17208984 38.94665527 91.34417969 39.89331055 91.52148438 40.86865234 C92.08259072 43.97393299 92.63612064 47.08047851 93.1875 50.1875 C93.36659912 51.18007812 93.54569824 52.17265625 93.73022461 53.1953125 C93.89530518 54.13503906 94.06038574 55.07476562 94.23046875 56.04296875 C94.37895264 56.87852295 94.52743652 57.71407715 94.68041992 58.57495117 C95.01797827 61.13642334 95.26212216 63.42414043 95 66 C94.01 66.66 93.02 67.32 92 68 C91.74984127 71.58357241 91.74984127 71.58357241 92 75 C93.485 75.495 93.485 75.495 95 76 C95 80.95 95 85.9 95 91 C92.23749964 92.38125018 90.05268901 92.19079306 87 92 C85 90 85 90 83.5625 86.625 C82.2265754 83.12837613 82.2265754 83.12837613 80.4375 80.9375 C78.60915671 78.47321121 77.96458557 75.89375671 77 73 C73.87508213 71.43754107 70.50040382 71.61731518 67.0625 71.4375 C66.30138916 71.3950415 65.54027832 71.35258301 64.75610352 71.30883789 C58.83457319 70.99790281 52.92959773 70.88473784 47 71 C45.89163577 72.88316159 45.89163577 72.88316159 45 75 C45.33 75.66 45.66 76.32 46 77 C46.0980731 79.86431142 46.13902649 82.69875884 46.125 85.5625 C46.13080078 86.75262695 46.13080078 86.75262695 46.13671875 87.96679688 C46.12663067 93.87336933 46.12663067 93.87336933 45 95 C43.33382885 95.04063832 41.66611905 95.042721 40 95 C37.81611095 91.42555302 37.58191788 88.20093529 37.3125 84.0625 C37.22613281 82.85722656 37.13976563 81.65195313 37.05078125 80.41015625 C37 77 37 77 38 72 C24.47 72 10.94 72 -3 72 C-4.18317116 67.26731537 -3.95201359 63.26759061 -3.6875 58.4375 C-3.65205078 57.57447266 -3.61660156 56.71144531 -3.58007812 55.82226562 C-3.53689453 54.99275391 -3.49371094 54.16324219 -3.44921875 53.30859375 C-3.41143311 52.55376709 -3.37364746 51.79894043 -3.3347168 51.02124023 C-3 49 -3 49 -1 46 C1.74612427 45.60127258 1.74612427 45.60127258 5.28564453 45.56762695 C6.2516861 45.55233948 6.2516861 45.55233948 7.23724365 45.53674316 C9.36918725 45.50651239 11.50068236 45.49733249 13.6328125 45.48828125 C15.10970566 45.47144191 16.58658442 45.45329268 18.06344604 45.43388367 C21.95305889 45.38629601 25.84261339 45.35654375 29.73242188 45.33044434 C33.70063811 45.30068271 37.66865308 45.25413743 41.63671875 45.20898438 C49.42439683 45.12285154 57.21204503 45.057102 65 45 C65 39.39 65 33.78 65 28 C60.68759372 27.70689357 56.37509673 27.41528377 52.0625 27.125 C51.40438324 27.08053741 50.74626648 27.03607483 50.06820679 26.99026489 C41.96924987 26.44418138 33.86946026 25.92558809 25.765625 25.45703125 C25.01377426 25.41318298 24.26192352 25.36933472 23.48728943 25.32415771 C19.81803679 25.11035839 16.14862657 24.90073778 12.47875977 24.69775391 C11.13817341 24.62029317 9.79759672 24.54266508 8.45703125 24.46484375 C7.28116455 24.399021 6.10529785 24.33319824 4.89379883 24.26538086 C2 24 2 24 -1 23 C-2.70188447 19.59623106 -2.18458114 15.81324101 -2.1875 12.0625 C-2.19974609 11.23814453 -2.21199219 10.41378906 -2.22460938 9.56445312 C-2.22654297 8.77103516 -2.22847656 7.97761719 -2.23046875 7.16015625 C-2.23457764 6.43449463 -2.23868652 5.70883301 -2.24291992 4.96118164 C-2 3 -2 3 0 0 Z " fill="#F42A0B" transform="translate(21,17)"/>
	

	<path d="M0 0 C2.33333333 7 4.66666667 14 7 21 C6.16863525 20.99476318 5.33727051 20.98952637 4.48071289 20.98413086 C1.35522728 20.96694711 -1.77023401 20.95448144 -4.89575195 20.94506836 C-6.89731458 20.93764896 -8.89885533 20.92493341 -10.90039062 20.91210938 C-12.81948242 20.90727539 -12.81948242 20.90727539 -14.77734375 20.90234375 C-15.94515381 20.89710693 -17.11296387 20.89187012 -18.31616211 20.88647461 C-21.06852281 20.97129453 -23.64328249 21.17368823 -26.36328125 21.51367188 C-31.07777343 22.07428667 -35.67160954 22.03772452 -40.41015625 21.87890625 C-41.26306747 21.85529526 -42.1159787 21.83168427 -42.99473572 21.80735779 C-45.68419726 21.7315794 -48.37330597 21.64719332 -51.0625 21.5625 C-52.90037411 21.50919306 -54.73826476 21.45645348 -56.57617188 21.40429688 C-61.05106646 21.27713478 -65.52538082 21.13830254 -70 21 C-70 15.06 -70 9.12 -70 3 C-66.90386412 2.22596603 -64.97860493 1.88182855 -61.91601562 1.91821289 C-61.11997925 1.9247438 -60.32394287 1.93127472 -59.50378418 1.93800354 C-58.6465979 1.94943893 -57.78941162 1.96087433 -56.90625 1.97265625 C-55.05078333 1.98533354 -53.19531445 1.99769208 -51.33984375 2.00976562 C-48.44670544 2.03424267 -45.55368618 2.06186758 -42.66064453 2.09594727 C-30.61458045 2.22872371 -18.84932936 1.82394996 -6.87695312 0.43530273 C-3 0 -3 0 0 0 Z " fill="#8A1531" transform="translate(91,65)"/>
	

	<path d="M0 0 C2.87538147 -0.32952881 2.87538147 -0.32952881 6.60180664 -0.26464844 C7.61931503 -0.25308464 7.61931503 -0.25308464 8.65737915 -0.24128723 C10.90878921 -0.21192647 13.15915207 -0.16086966 15.41015625 -0.109375 C16.97755564 -0.08386578 18.54497523 -0.05957063 20.1124115 -0.03643799 C23.40550029 0.01521255 26.69820244 0.07671158 29.9909668 0.14599609 C34.19138437 0.23429711 38.39185738 0.30605132 42.59269047 0.37128067 C46.6152836 0.4344477 50.63771612 0.5059615 54.66015625 0.578125 C55.41931902 0.59107857 56.17848179 0.60403214 56.96064949 0.61737823 C78.6173265 1.00221319 78.6173265 1.00221319 82.9609375 4.13671875 C85.32404974 7.45503536 85.97337637 9.8028426 86.625 13.8125 C86.73851807 14.46992188 86.85203613 15.12734375 86.96899414 15.8046875 C87.2073059 17.18574916 87.43809516 18.56812845 87.66162109 19.95166016 C88.1894259 23.14666903 88.82146382 26.32098976 89.4375 29.5 C89.96723904 32.33172203 90.48476081 35.16560681 91 38 C91.17208984 38.94665527 91.34417969 39.89331055 91.52148438 40.86865234 C92.08259072 43.97393299 92.63612064 47.08047851 93.1875 50.1875 C93.36659912 51.18007812 93.54569824 52.17265625 93.73022461 53.1953125 C93.89530518 54.13503906 94.06038574 55.07476562 94.23046875 56.04296875 C94.37895264 56.87852295 94.52743652 57.71407715 94.68041992 58.57495117 C95.01029351 61.07810956 95.0553777 63.47820627 95 66 C94.67 64.68 94.34 63.36 94 62 C93.34 62 92.68 62 92 62 C91.80664062 60.69804688 91.61328125 59.39609375 91.4140625 58.0546875 C91.15131832 56.32808288 90.88828205 54.60152269 90.625 52.875 C90.43550781 51.59109375 90.43550781 51.59109375 90.2421875 50.28125 C89.52896811 45.64532397 88.51777667 41.44844301 87 37 C86.61890259 34.69489 86.28695657 32.38121156 86 30.0625 C85.34777821 25.19631399 84.44567835 20.69845463 83 16 C82.49081995 13.35067256 82.01253173 10.69907147 81.5625 8.0390625 C81.376875 7.36617187 81.19125 6.69328125 81 6 C78.61649682 4.80824841 77.00249245 4.80635845 74.34008789 4.70336914 C73.36591415 4.66432968 72.39174042 4.62529022 71.38804626 4.58506775 C70.32284256 4.54797195 69.25763885 4.51087616 68.16015625 4.47265625 C67.05011734 4.43133072 65.94007843 4.39000519 64.79640198 4.34742737 C51.68019156 3.8820704 38.55970212 3.65521108 25.4375 3.4375 C22.94986531 3.39413652 20.46223506 3.35051783 17.97460938 3.30664062 C11.98312055 3.20150176 5.99158583 3.09944924 0 3 C0.14019692 5.81288705 0.28687955 8.62516885 0.4375 11.4375 C0.47681641 12.23994141 0.51613281 13.04238281 0.55664062 13.86914062 C0.4054296 17.75239561 0.4054296 17.75239561 2 21 C3.94586343 21.16708244 5.89750105 21.26727998 7.84912109 21.34130859 C9.10066986 21.39161224 10.35221863 21.44191589 11.64169312 21.4937439 C12.65133684 21.53130358 12.65133684 21.53130358 13.68137741 21.56962204 C15.78286632 21.64879272 17.883921 21.73538666 19.98501587 21.82437134 C25.96027251 22.07684251 31.93575257 22.32181717 37.91210938 22.546875 C41.56426521 22.68494219 45.21562142 22.83688161 48.86684036 22.99776077 C50.25969089 23.05640992 51.65277413 23.10977735 53.04603195 23.15778732 C54.99521584 23.22540739 56.94370545 23.31221795 58.89208984 23.39990234 C60.55635513 23.4653273 60.55635513 23.4653273 62.25424194 23.53207397 C65.26446514 24.04506956 66.24009034 24.54955685 68 27 C68.38818359 29.05297852 68.38818359 29.05297852 68.3984375 31.37890625 C68.40230469 32.21744141 68.40617187 33.05597656 68.41015625 33.91992188 C68.39855469 34.79197266 68.38695313 35.66402344 68.375 36.5625 C68.38660156 37.43841797 68.39820312 38.31433594 68.41015625 39.21679688 C68.40628906 40.05404297 68.40242188 40.89128906 68.3984375 41.75390625 C68.39505371 42.52033447 68.39166992 43.2867627 68.38818359 44.07641602 C68 46 68 46 65 48 C62.23481886 48.32835709 59.56841124 48.53810215 56.79296875 48.65234375 C55.95968552 48.69101059 55.12640228 48.72967743 54.26786804 48.76951599 C43.61223222 49.19120646 32.96716265 48.86402274 22.3125 48.5625 C20.23113702 48.50909009 18.14975668 48.45635221 16.06835938 48.40429688 C11.04533994 48.27724396 6.02264036 48.14121673 1 48 C1.01160156 48.67804688 1.02320313 49.35609375 1.03515625 50.0546875 C1.04417969 50.98539063 1.05320312 51.91609375 1.0625 52.875 C1.07410156 53.77992187 1.08570313 54.68484375 1.09765625 55.6171875 C0.96808581 60.10550743 0.48988945 64.53852648 0 69 C6.31712993 69.02538248 12.63424668 69.04288057 18.95141602 69.05493164 C21.09985852 69.05995629 23.2482976 69.06677708 25.39672852 69.07543945 C28.4871505 69.08758678 31.57752722 69.09324705 34.66796875 69.09765625 C36.10573921 69.10539818 36.10573921 69.10539818 37.57255554 69.11329651 C38.92338982 69.11340981 38.92338982 69.11340981 40.30151367 69.11352539 C41.08983078 69.115746 41.87814789 69.11796661 42.69035339 69.12025452 C45.20572511 68.98928868 47.53770694 68.51674881 50 68 C73.27011675 66.93800809 73.27011675 66.93800809 80 72 C81.00390625 73.83203125 81.00390625 73.83203125 81.5625 75.8125 C82.80914909 79.69492145 84.69747826 82.62296811 87 86 C87.75 88.375 87.75 88.375 88 90 C89.32 90 90.64 90 92 90 C93.14871801 86.55384597 92.80416945 84.90109891 92.125 81.375 C91.94195312 80.39273438 91.75890625 79.41046875 91.5703125 78.3984375 C91.23601354 76.06123106 91.23601354 76.06123106 90 75 C89.95919217 73.00041636 89.95745644 70.99954746 90 69 C92 72.75 92 72.75 92 75 C93.485 75.495 93.485 75.495 95 76 C95 80.95 95 85.9 95 91 C92.23749964 92.38125018 90.05268901 92.19079306 87 92 C85 90 85 90 83.5625 86.625 C82.2265754 83.12837613 82.2265754 83.12837613 80.4375 80.9375 C78.60915671 78.47321121 77.96458557 75.89375671 77 73 C73.87508213 71.43754107 70.50040382 71.61731518 67.0625 71.4375 C66.30138916 71.3950415 65.54027832 71.35258301 64.75610352 71.30883789 C58.83457319 70.99790281 52.92959773 70.88473784 47 71 C45.89163577 72.88316159 45.89163577 72.88316159 45 75 C45.33 75.66 45.66 76.32 46 77 C46.0980731 79.86431142 46.13902649 82.69875884 46.125 85.5625 C46.13080078 86.75262695 46.13080078 86.75262695 46.13671875 87.96679688 C46.12663067 93.87336933 46.12663067 93.87336933 45 95 C43.33382885 95.04063832 41.66611905 95.042721 40 95 C37.81611095 91.42555302 37.58191788 88.20093529 37.3125 84.0625 C37.22613281 82.85722656 37.13976563 81.65195313 37.05078125 80.41015625 C37 77 37 77 38 72 C24.47 72 10.94 72 -3 72 C-4.18317116 67.26731537 -3.95201359 63.26759061 -3.6875 58.4375 C-3.65205078 57.57447266 -3.61660156 56.71144531 -3.58007812 55.82226562 C-3.53689453 54.99275391 -3.49371094 54.16324219 -3.44921875 53.30859375 C-3.41143311 52.55376709 -3.37364746 51.79894043 -3.3347168 51.02124023 C-3 49 -3 49 -1 46 C1.74612427 45.60127258 1.74612427 45.60127258 5.28564453 45.56762695 C6.2516861 45.55233948 6.2516861 45.55233948 7.23724365 45.53674316 C9.36918725 45.50651239 11.50068236 45.49733249 13.6328125 45.48828125 C15.10970566 45.47144191 16.58658442 45.45329268 18.06344604 45.43388367 C21.95305889 45.38629601 25.84261339 45.35654375 29.73242188 45.33044434 C33.70063811 45.30068271 37.66865308 45.25413743 41.63671875 45.20898438 C49.42439683 45.12285154 57.21204503 45.057102 65 45 C65 39.39 65 33.78 65 28 C60.68759372 27.70689357 56.37509673 27.41528377 52.0625 27.125 C51.40438324 27.08053741 50.74626648 27.03607483 50.06820679 26.99026489 C41.96924987 26.44418138 33.86946026 25.92558809 25.765625 25.45703125 C25.01377426 25.41318298 24.26192352 25.36933472 23.48728943 25.32415771 C19.81803679 25.11035839 16.14862657 24.90073778 12.47875977 24.69775391 C11.13817341 24.62029317 9.79759672 24.54266508 8.45703125 24.46484375 C7.28116455 24.399021 6.10529785 24.33319824 4.89379883 24.26538086 C2 24 2 24 -1 23 C-2.70188447 19.59623106 -2.18458114 15.81324101 -2.1875 12.0625 C-2.19974609 11.23814453 -2.21199219 10.41378906 -2.22460938 9.56445312 C-2.22654297 8.77103516 -2.22847656 7.97761719 -2.23046875 7.16015625 C-2.23457764 6.43449463 -2.23868652 5.70883301 -2.24291992 4.96118164 C-2 3 -2 3 0 0 Z " fill="#E39B8D" transform="translate(21,17)"/>
	

	<path d="M0 0 C2.33333333 7 4.66666667 14 7 21 C-3.23 21 -13.46 21 -24 21 C-24 19.02 -24 17.04 -24 15 C-25.37506099 13.12109566 -25.37506099 13.12109566 -27 12 C-25.11515709 6.81668201 -20.97327238 5.57706482 -16.25390625 3.328125 C-10.94729733 1.16216218 -5.73017978 0 0 0 Z " fill="#462855" transform="translate(91,65)"/>
	

	

	

	

	

	

	

	

	

	

	

	

	

	

	

	

	

	

	

</svg>
