<?xml version="1.0" encoding="iso-8859-1"?>
<svg height="128" version="1.1" width="128" xmlns="http://www.w3.org/2000/svg">
	

	<path d="M0 0 C42.24 0 84.48 0 128 0 C128 42.24 128 84.48 128 128 C85.76 128 43.52 128 0 128 C0 85.76 0 43.52 0 0 Z " fill="#353740" transform="translate(0,0)"/>
	

	<path d="M0 0 C1.02931641 0.00386719 2.05863281 0.00773437 3.11914062 0.01171875 C4.72499023 0.04845703 4.72499023 0.04845703 6.36328125 0.0859375 C7.94012695 0.08787109 7.94012695 0.08787109 9.54882812 0.08984375 C17.66821135 0.18078893 25.21053285 1.00278139 32.61328125 4.5234375 C33.34417969 4.86503906 34.07507813 5.20664062 34.828125 5.55859375 C36.11374909 6.18645668 37.39608093 6.82108734 38.67578125 7.4609375 C38.67578125 8.1209375 38.67578125 8.7809375 38.67578125 9.4609375 C39.37058594 9.6775 40.06539063 9.8940625 40.78125 10.1171875 C44.48264297 11.83551298 47.03697621 14.18534807 49.98828125 16.9609375 C50.53806641 17.45980469 51.08785156 17.95867188 51.65429688 18.47265625 C53.03905006 19.75591821 54.36297468 21.10416133 55.67578125 22.4609375 C55.67578125 23.1209375 55.67578125 23.7809375 55.67578125 24.4609375 C56.66578125 24.4609375 57.65578125 24.4609375 58.67578125 24.4609375 C64.50415848 35.97198253 64.50415848 35.97198253 63.67578125 42.4609375 C63.18078125 43.4509375 63.18078125 43.4509375 62.67578125 44.4609375 C62.09828125 44.1515625 61.52078125 43.8421875 60.92578125 43.5234375 C58.82674018 42.53222366 56.92503987 41.98544949 54.67578125 41.4609375 C53.71155099 42.85270382 52.75466523 44.2495598 51.80078125 45.6484375 C51.26710938 46.42574219 50.7334375 47.20304687 50.18359375 48.00390625 C48.38478021 50.77980707 48.38478021 50.77980707 46.67578125 55.4609375 C50.63578125 55.4609375 54.59578125 55.4609375 58.67578125 55.4609375 C59.67578125 59.4609375 59.67578125 59.4609375 58.75 61.3828125 C58.29238281 61.98609375 57.83476563 62.589375 57.36328125 63.2109375 C56.91339844 63.82453125 56.46351562 64.438125 56 65.0703125 C55.56300781 65.52921875 55.12601562 65.988125 54.67578125 66.4609375 C54.01578125 66.4609375 53.35578125 66.4609375 52.67578125 66.4609375 C52.57265625 67.0590625 52.46953125 67.6571875 52.36328125 68.2734375 C51.55199802 70.85479323 50.79465422 71.79610873 48.67578125 73.4609375 C47.80953125 73.7909375 46.94328125 74.1209375 46.05078125 74.4609375 C44.87515625 74.9559375 44.87515625 74.9559375 43.67578125 75.4609375 C43.18078125 76.9459375 43.18078125 76.9459375 42.67578125 78.4609375 C34.92745661 82.77518158 26.05896758 82.87976007 17.42578125 82.9609375 C16.40863037 82.97922607 15.39147949 82.99751465 14.34350586 83.01635742 C6.74021057 82.95501554 0.30023349 81.5819936 -5.57421875 76.5234375 C-6.15171875 75.8428125 -6.72921875 75.1621875 -7.32421875 74.4609375 C-10.47824857 71.14516256 -13.37511505 68.74726069 -17.32421875 66.4609375 C-20.81549378 63.87480785 -21.31812745 60.56269435 -22.32421875 56.4609375 C-22.92234375 56.3578125 -23.52046875 56.2546875 -24.13671875 56.1484375 C-26.71086862 55.33941897 -27.61032959 54.52412472 -29.32421875 52.4609375 C-30.84832161 48.10868656 -31.8817212 43.06033269 -31.32421875 38.4609375 C-30.66421875 37.8009375 -30.00421875 37.1409375 -29.32421875 36.4609375 C-29.35692213 34.46603145 -29.39118397 32.4711044 -29.44140625 30.4765625 C-29.27104111 27.54628216 -27.97542311 25.84601046 -26.32421875 23.4609375 C-25.78214031 22.22000304 -25.26200203 20.96930311 -24.76171875 19.7109375 C-23.32421875 16.4609375 -23.32421875 16.4609375 -21.32421875 15.4609375 C-20.91171875 14.7184375 -20.49921875 13.9759375 -20.07421875 13.2109375 C-17.39392424 8.99904613 -14.13924825 6.06594733 -9.32421875 4.4609375 C-8.71215576 3.78981934 -8.10009277 3.11870117 -7.46948242 2.42724609 C-4.79705206 -0.02225364 -3.57266931 -0.03166324 0 0 Z " fill="#E7253A" transform="translate(40.32421875,22.5390625)"/>
	

	<path d="M0 0 C1.02931641 0.00386719 2.05863281 0.00773437 3.11914062 0.01171875 C4.72499023 0.04845703 4.72499023 0.04845703 6.36328125 0.0859375 C7.94012695 0.08787109 7.94012695 0.08787109 9.54882812 0.08984375 C17.66821135 0.18078893 25.21053285 1.00278139 32.61328125 4.5234375 C33.34417969 4.86503906 34.07507813 5.20664062 34.828125 5.55859375 C36.11374909 6.18645668 37.39608093 6.82108734 38.67578125 7.4609375 C38.67578125 8.1209375 38.67578125 8.7809375 38.67578125 9.4609375 C39.37058594 9.6775 40.06539063 9.8940625 40.78125 10.1171875 C44.48264297 11.83551298 47.03697621 14.18534807 49.98828125 16.9609375 C50.53806641 17.45980469 51.08785156 17.95867188 51.65429688 18.47265625 C53.03905006 19.75591821 54.36297468 21.10416133 55.67578125 22.4609375 C55.67578125 23.1209375 55.67578125 23.7809375 55.67578125 24.4609375 C56.66578125 24.4609375 57.65578125 24.4609375 58.67578125 24.4609375 C64.50415848 35.97198253 64.50415848 35.97198253 63.67578125 42.4609375 C63.18078125 43.4509375 63.18078125 43.4509375 62.67578125 44.4609375 C62.09828125 44.1515625 61.52078125 43.8421875 60.92578125 43.5234375 C58.82674018 42.53222366 56.92503987 41.98544949 54.67578125 41.4609375 C53.71155099 42.85270382 52.75466523 44.2495598 51.80078125 45.6484375 C51.26710938 46.42574219 50.7334375 47.20304687 50.18359375 48.00390625 C48.38478021 50.77980707 48.38478021 50.77980707 46.67578125 55.4609375 C50.63578125 55.4609375 54.59578125 55.4609375 58.67578125 55.4609375 C59.67578125 59.4609375 59.67578125 59.4609375 58.75 61.3828125 C58.29238281 61.98609375 57.83476563 62.589375 57.36328125 63.2109375 C56.91339844 63.82453125 56.46351562 64.438125 56 65.0703125 C55.56300781 65.52921875 55.12601562 65.988125 54.67578125 66.4609375 C54.01578125 66.4609375 53.35578125 66.4609375 52.67578125 66.4609375 C52.57265625 67.0590625 52.46953125 67.6571875 52.36328125 68.2734375 C51.55199802 70.85479323 50.79465422 71.79610873 48.67578125 73.4609375 C47.80953125 73.7909375 46.94328125 74.1209375 46.05078125 74.4609375 C44.87515625 74.9559375 44.87515625 74.9559375 43.67578125 75.4609375 C43.18078125 76.9459375 43.18078125 76.9459375 42.67578125 78.4609375 C34.92745661 82.77518158 26.05896758 82.87976007 17.42578125 82.9609375 C16.40863037 82.97922607 15.39147949 82.99751465 14.34350586 83.01635742 C6.74021057 82.95501554 0.30023349 81.5819936 -5.57421875 76.5234375 C-6.15171875 75.8428125 -6.72921875 75.1621875 -7.32421875 74.4609375 C-10.47824857 71.14516256 -13.37511505 68.74726069 -17.32421875 66.4609375 C-20.81549378 63.87480785 -21.31812745 60.56269435 -22.32421875 56.4609375 C-22.92234375 56.3578125 -23.52046875 56.2546875 -24.13671875 56.1484375 C-26.71086862 55.33941897 -27.61032959 54.52412472 -29.32421875 52.4609375 C-30.84832161 48.10868656 -31.8817212 43.06033269 -31.32421875 38.4609375 C-30.66421875 37.8009375 -30.00421875 37.1409375 -29.32421875 36.4609375 C-29.35692213 34.46603145 -29.39118397 32.4711044 -29.44140625 30.4765625 C-29.27104111 27.54628216 -27.97542311 25.84601046 -26.32421875 23.4609375 C-25.78214031 22.22000304 -25.26200203 20.96930311 -24.76171875 19.7109375 C-23.32421875 16.4609375 -23.32421875 16.4609375 -21.32421875 15.4609375 C-20.91171875 14.7184375 -20.49921875 13.9759375 -20.07421875 13.2109375 C-17.39392424 8.99904613 -14.13924825 6.06594733 -9.32421875 4.4609375 C-8.71215576 3.78981934 -8.10009277 3.11870117 -7.46948242 2.42724609 C-4.79705206 -0.02225364 -3.57266931 -0.03166324 0 0 Z M-6.32421875 9.4609375 C-7.15179688 9.84636719 -7.979375 10.23179688 -8.83203125 10.62890625 C-12.67061584 12.53585583 -14.93924093 13.91743941 -17.44921875 17.4609375 C-18.40534077 20.73907013 -18.71513761 22.33137006 -17.32421875 25.4609375 C-14.26361498 27.50134001 -11.69334 27.57736695 -8.13671875 27.2734375 C-4.096873 26.87625576 -4.096873 26.87625576 -2.32421875 23.4609375 C-3.12826338 20.298089 -3.12826338 20.298089 -4.32421875 17.4609375 C-2.01421875 17.4609375 0.29578125 17.4609375 2.67578125 17.4609375 C2.63453125 18.2446875 2.59328125 19.0284375 2.55078125 19.8359375 C2.38849391 22.62209869 2.38849391 22.62209869 4.67578125 24.4609375 C6.98961134 25.23362938 9.32228757 25.85824958 11.6796875 26.484375 C13.67578125 27.4609375 13.67578125 27.4609375 14.453125 29.5625 C14.52660156 30.18898438 14.60007813 30.81546875 14.67578125 31.4609375 C10.89401295 31.54140066 7.5002074 31.43585552 3.73828125 30.8984375 C-0.69974365 30.36281381 -5.06037967 30.51804528 -9.51171875 30.7734375 C-10.52770142 30.82552368 -10.52770142 30.82552368 -11.56420898 30.87866211 C-15.76969692 31.15978451 -19.38977114 31.96180894 -23.32421875 33.4609375 C-22.99421875 34.7809375 -22.66421875 36.1009375 -22.32421875 37.4609375 C-16.87287102 38.90432035 -11.91533658 39.66630616 -6.26953125 39.43359375 C-4.32421875 39.4609375 -4.32421875 39.4609375 -1.32421875 40.4609375 C-0.47859375 40.3165625 0.36703125 40.1721875 1.23828125 40.0234375 C5.68754112 39.29537679 10.1802316 38.98389176 14.67578125 39.4609375 C15.33578125 40.1209375 15.99578125 40.7809375 16.67578125 41.4609375 C16.01578125 43.1109375 15.35578125 44.7609375 14.67578125 46.4609375 C6.87351146 47.44811493 0.75927896 48.19587266 -6.32421875 44.4609375 C-7.04609375 43.7184375 -7.76796875 42.9759375 -8.51171875 42.2109375 C-10.20029082 40.22012105 -10.20029082 40.22012105 -12.76171875 40.2109375 C-16.66216579 42.11359459 -18.6990108 45.48304757 -20.32421875 49.4609375 C-19.99421875 50.4509375 -19.66421875 51.4409375 -19.32421875 52.4609375 C-18.48117188 52.57050781 -17.638125 52.68007812 -16.76953125 52.79296875 C-15.12597656 53.03080078 -15.12597656 53.03080078 -13.44921875 53.2734375 C-12.35867187 53.42425781 -11.268125 53.57507813 -10.14453125 53.73046875 C-7.32421875 54.4609375 -7.32421875 54.4609375 -5.32421875 57.4609375 C-6.97421875 57.4609375 -8.62421875 57.4609375 -10.32421875 57.4609375 C-10.65421875 58.7809375 -10.98421875 60.1009375 -11.32421875 61.4609375 C-8.99207727 62.66721758 -6.82779736 63.6264113 -4.32421875 64.4609375 C-3.13671875 66.5234375 -3.13671875 66.5234375 -2.32421875 68.4609375 C-0.15547623 67.95489758 1.67545752 67.46109937 3.67578125 66.4609375 C3.67578125 63.4909375 3.67578125 60.5209375 3.67578125 57.4609375 C7.30578125 56.4709375 10.93578125 55.4809375 14.67578125 54.4609375 C13.72703125 55.8015625 12.77828125 57.1421875 11.80078125 58.5234375 C8.31185012 63.76506281 5.94028165 69.02531596 6.67578125 75.4609375 C9.17076879 77.95592504 10.08998507 77.81317151 13.55078125 77.8984375 C23.68498339 77.67293824 31.52140888 73.27950118 38.8359375 66.5234375 C41.81268476 63.18644694 43.48644925 60.34448684 44.42578125 55.9609375 C45.97915484 49.03050149 49.71136109 40.43721761 55.67578125 36.4609375 C54.62851879 27.38466281 42.21838034 18.89107445 35.67578125 13.4609375 C23.30621771 4.0995363 7.55095819 2.28976019 -6.32421875 9.4609375 Z " fill="#E9C43A" transform="translate(40.32421875,22.5390625)"/>
	

	<path d="M0 0 C1.31871094 0.01546875 2.63742188 0.0309375 3.99609375 0.046875 C6.79653041 0.20637413 8.89697786 0.58096456 11.5625 1.25 C13.87347854 1.3436511 16.18712992 1.37993676 18.5 1.375 C19.70527344 1.37757812 20.91054688 1.38015625 22.15234375 1.3828125 C25.10355487 1.26787415 27.68431552 0.83354943 30.5625 0.25 C32.2640625 0.4975 32.2640625 0.4975 34 0.75 C37.51995695 1.43989211 37.51995695 1.43989211 40.8125 0.625 C42.17375 0.439375 42.17375 0.439375 43.5625 0.25 C45.0625 1.5625 45.0625 1.5625 46.5625 3.25 C48.5584722 3.92863055 50.55818551 4.59641919 52.5625 5.25 C53.0575 6.24 53.0575 6.24 53.5625 7.25 C54.305 7.683125 55.0475 8.11625 55.8125 8.5625 C58.89748138 10.45555675 61.07257915 12.6323909 63.5625 15.25 C64.325625 15.971875 65.08875 16.69375 65.875 17.4375 C67.5625 19.25 67.5625 19.25 67.5625 21.25 C68.14 21.435625 68.7175 21.62125 69.3125 21.8125 C72.55903501 23.88667515 74.16868772 26.74369097 75.5625 30.25 C75.8125 33.6875 75.8125 33.6875 75.5625 36.25 C76.2225 36.25 76.8825 36.25 77.5625 36.25 C79.55027489 41.04404531 79.71526392 44.19557356 78.5625 49.25 C78.02625 50.44625 77.49 51.6425 76.9375 52.875 C75.45832249 56.50570843 75.57743827 57.6052716 76.5625 61.25 C76.3125 63.4375 76.3125 63.4375 75.5625 65.25 C74.5725 65.91 73.5825 66.57 72.5625 67.25 C71.37017387 69.30003955 71.37017387 69.30003955 70.5625 71.25 C69.9025 71.25 69.2425 71.25 68.5625 71.25 C68.376875 72.11625 68.19125 72.9825 68 73.875 C66.34092886 77.7702105 64.50559087 79.32766528 61.21875 81.85546875 C59.3029858 83.33679152 59.3029858 83.33679152 57.5625 86.25 C56.2425 86.25 54.9225 86.25 53.5625 86.25 C52.5725 88.23 52.5725 88.23 51.5625 90.25 C49.5825 90.25 47.6025 90.25 45.5625 90.25 C45.5625 89.26 45.5625 88.27 45.5625 87.25 C46.9546875 86.8478125 46.9546875 86.8478125 48.375 86.4375 C51.3936641 85.31289965 52.4780143 84.54293427 54.5625 82.25 C55.2225 82.25 55.8825 82.25 56.5625 82.25 C57.0575 80.765 57.0575 80.765 57.5625 79.25 C58.2225 79.25 58.8825 79.25 59.5625 79.25 C60.0575 77.27 60.0575 77.27 60.5625 75.25 C61.2225 75.25 61.8825 75.25 62.5625 75.25 C62.500625 74.0125 62.43875 72.775 62.375 71.5 C62.35510609 67.74005024 63.02850352 66.10074604 65.5625 63.25 C65.5625 62.26 65.5625 61.27 65.5625 60.25 C64.86382812 60.26160156 64.16515625 60.27320313 63.4453125 60.28515625 C62.53523438 60.29417969 61.62515625 60.30320313 60.6875 60.3125 C59.78257813 60.32410156 58.87765625 60.33570313 57.9453125 60.34765625 C55.5625 60.25 55.5625 60.25 53.5625 59.25 C54.12851005 55.35695527 55.2423 52.75457513 57.4375 49.5 C58.20707031 48.33210938 58.20707031 48.33210938 58.9921875 47.140625 C60.5625 45.25 60.5625 45.25 63.5625 44.25 C66.75 46.1875 66.75 46.1875 69.5625 48.25 C69.96736341 41.87340131 69.33455346 37.80123024 66.4375 32.09765625 C65.5625 30.25 65.5625 30.25 65.5625 28.25 C64.5725 28.25 63.5825 28.25 62.5625 28.25 C61.43520725 26.88358455 60.31433173 25.51136502 59.2265625 24.11328125 C55.48754859 19.92663892 50.60043923 15.76896961 45.5625 13.25 C45.5625 12.59 45.5625 11.93 45.5625 11.25 C44.95921875 11.05664062 44.3559375 10.86328125 43.734375 10.6640625 C42.93515625 10.40367188 42.1359375 10.14328125 41.3125 9.875 C40.52359375 9.61976562 39.7346875 9.36453125 38.921875 9.1015625 C36.5625 8.25 36.5625 8.25 34.703125 7.2109375 C28.23911809 4.30921177 20.30719407 5.00025372 13.375 4.9375 C12.29541016 4.90849609 11.21582031 4.87949219 10.10351562 4.84960938 C8.54600586 4.83704102 8.54600586 4.83704102 6.95703125 4.82421875 C6.01706299 4.80963623 5.07709473 4.79505371 4.10864258 4.7800293 C0.8190797 5.3872216 -0.24333601 6.79875491 -2.4375 9.25 C-4.4375 10.25 -6.4375 11.25 -8.4375 12.25 C-11.2905933 14.70683034 -12.81680862 16.90057116 -14.4375 20.25 C-14.9325 20.724375 -15.4275 21.19875 -15.9375 21.6875 C-17.85334818 23.68317519 -18.49188329 25.66531433 -19.4375 28.25 C-19.80875 28.848125 -20.18 29.44625 -20.5625 30.0625 C-21.50605593 32.42138984 -21.50093307 33.86033206 -21.4375 36.375 C-21.4375 37.65375 -21.4375 38.9325 -21.4375 40.25 C-22.0975 40.91 -22.7575 41.57 -23.4375 42.25 C-23.46003443 44.69963177 -23.46003443 44.69963177 -23.0625 47.375 C-22.95164062 48.28507812 -22.84078125 49.19515625 -22.7265625 50.1328125 C-22.63117187 50.83148438 -22.53578125 51.53015625 -22.4375 52.25 C-24.41796875 51.03125 -24.41796875 51.03125 -26.4375 49.25 C-26.86328125 47.09375 -26.86328125 47.09375 -26.75 44.75 C-26.72550781 43.9765625 -26.70101563 43.203125 -26.67578125 42.40625 C-26.4375 40.25 -26.4375 40.25 -25.4375 37.25 C-25.71519908 34.9093935 -26.04289977 32.57375692 -26.4375 30.25 C-25.81875 30.064375 -25.2 29.87875 -24.5625 29.6875 C-21.38147134 27.53562767 -21.24298053 24.87466237 -20.4375 21.25 C-19.7775 21.25 -19.1175 21.25 -18.4375 21.25 C-18.06625 19.950625 -18.06625 19.950625 -17.6875 18.625 C-16.36971387 15.06697746 -14.63563178 12.3273845 -12.4375 9.25 C-13.0975 9.25 -13.7575 9.25 -14.4375 9.25 C-14.7675 10.24 -15.0975 11.23 -15.4375 12.25 C-16.8125 13.75 -16.8125 13.75 -18.4375 15.25 C-18.994375 15.806875 -19.55125 16.36375 -20.125 16.9375 C-20.7746875 17.5871875 -20.7746875 17.5871875 -21.4375 18.25 C-21.7675 16.93 -22.0975 15.61 -22.4375 14.25 C-21.798125 14.0025 -21.15875 13.755 -20.5 13.5 C-18.26448013 12.47075249 -18.26448013 12.47075249 -17.9375 10.375 C-17.7725 9.67375 -17.6075 8.9725 -17.4375 8.25 C-15.12579699 5.55301316 -13.84069453 4.38439818 -10.4375 3.25 C-10.03402344 2.73953125 -9.63054688 2.2290625 -9.21484375 1.703125 C-6.43740827 -0.56765741 -3.41872985 -0.10488912 0 0 Z " fill="#404348" transform="translate(33.4375,18.75)"/>
	

	<path d="M0 0 C1.76695937 1.37430174 3.5179763 2.76942222 5.25 4.1875 C6.01699219 4.80238281 6.78398438 5.41726562 7.57421875 6.05078125 C11.60337384 9.40965176 14.48410594 12.68011708 17.25 17.1875 C18.87351109 18.98144446 18.87351109 18.98144446 20.25 20.1875 C19.755 21.6725 19.755 21.6725 19.25 23.1875 C16.00832391 20.0503941 13.02230768 16.78087799 10.0625 13.375 C1.37303071 3.67175929 -8.25749391 -3.98226077 -21.61328125 -5.0390625 C-28.23202567 -5.22408458 -33.65072888 -4.40006956 -39.75 -1.8125 C-39.75 -0.8225 -39.75 0.1675 -39.75 1.1875 C-38.821875 1.001875 -37.89375 0.81625 -36.9375 0.625 C-33.75 0.1875 -33.75 0.1875 -30.75 1.1875 C-30.04508733 3.50956525 -29.37787571 5.84343068 -28.75 8.1875 C-28.09 8.5175 -27.43 8.8475 -26.75 9.1875 C-26.75 8.5275 -26.75 7.8675 -26.75 7.1875 C-25.43 6.8575 -24.11 6.5275 -22.75 6.1875 C-22.646875 5.548125 -22.54375 4.90875 -22.4375 4.25 C-22.0971875 3.2290625 -22.0971875 3.2290625 -21.75 2.1875 C-20.76 1.8575 -19.77 1.5275 -18.75 1.1875 C-18.75 4.79779169 -19.71092582 7.74556676 -20.75 11.1875 C-19.4815625 12.30125 -19.4815625 12.30125 -18.1875 13.4375 C-15.75 16.1875 -15.75 16.1875 -15.75 18.4375 C-16.75 20.1875 -16.75 20.1875 -19.75 21.1875 C-21.26946802 21.25521248 -22.79169114 21.27254906 -24.3125 21.25 C-25.09753906 21.24097656 -25.88257813 21.23195313 -26.69140625 21.22265625 C-27.37074219 21.21105469 -28.05007812 21.19945313 -28.75 21.1875 C-29.41 21.1875 -30.07 21.1875 -30.75 21.1875 C-30.75 21.8475 -30.75 22.5075 -30.75 23.1875 C-29.77160156 23.15269531 -29.77160156 23.15269531 -28.7734375 23.1171875 C-23.71462193 23.01272818 -19.44211115 23.02191024 -14.75 25.1875 C-14.42 25.8475 -14.09 26.5075 -13.75 27.1875 C-14.7293937 28.95040867 -15.71400639 30.71115303 -16.75 32.44140625 C-17.85128404 34.36435142 -18.58521135 35.96285326 -18.75 38.1875 C-18.09 38.8475 -17.43 39.5075 -16.75 40.1875 C-16.8125 42.125 -16.8125 42.125 -17.75 44.1875 C-18.55695312 44.58839844 -19.36390625 44.98929688 -20.1953125 45.40234375 C-23.6557778 47.82043648 -23.78880052 49.73134838 -24.5625 53.8125 C-24.79582031 54.98039062 -25.02914062 56.14828125 -25.26953125 57.3515625 C-25.77784018 59.87243325 -25.77784018 59.87243325 -25.75 61.1875 C-24.16705218 61.24187607 -22.58355744 61.28046271 -21 61.3125 C-20.11828125 61.33570312 -19.2365625 61.35890625 -18.328125 61.3828125 C-15.58854779 61.17526877 -14.11915338 60.51617983 -11.75 59.1875 C-8.27792083 58.09105395 -5.39747073 57.1875 -1.75 57.1875 C-5.99386502 62.05956872 -12.58555961 63.85629123 -18.84765625 64.51171875 C-21.54392839 64.55789996 -24.08327008 64.59197755 -26.75 64.1875 C-28.75 62.1875 -28.75 62.1875 -29.0625 60.125 C-28.26662156 52.64374265 -25.35178466 47.03301025 -20.75 41.1875 C-24.38 42.1775 -28.01 43.1675 -31.75 44.1875 C-31.688125 45.63125 -31.62625 47.075 -31.5625 48.5625 C-31.45703125 51.0234375 -31.45703125 51.0234375 -31.75 53.1875 C-34.75 55.1875 -34.75 55.1875 -36.875 55 C-37.49375 54.731875 -38.1125 54.46375 -38.75 54.1875 C-39.08 53.1975 -39.41 52.2075 -39.75 51.1875 C-41.235 50.6925 -41.235 50.6925 -42.75 50.1875 C-43.74 49.8575 -44.73 49.5275 -45.75 49.1875 C-46.245 47.7025 -46.245 47.7025 -46.75 46.1875 C-46.42 45.5275 -46.09 44.8675 -45.75 44.1875 C-44.1 44.1875 -42.45 44.1875 -40.75 44.1875 C-42.43761154 40.93415741 -42.43761154 40.93415741 -45.5703125 40.45703125 C-46.66085938 40.30621094 -47.75140625 40.15539062 -48.875 40 C-50.51855469 39.76216797 -50.51855469 39.76216797 -52.1953125 39.51953125 C-53.03835937 39.40996094 -53.88140625 39.30039063 -54.75 39.1875 C-54.75 34.45523099 -53.67086045 31.85046831 -50.75 28.1875 C-48.375 26.9375 -48.375 26.9375 -45.75 27.1875 C-44.3039097 28.40353048 -42.86213369 29.62626022 -41.46875 30.90234375 C-36.00288867 34.98931733 -29.02578701 34.31492417 -22.62109375 33.4765625 C-22.00363281 33.38117188 -21.38617188 33.28578125 -20.75 33.1875 C-20.09 31.2075 -19.43 29.2275 -18.75 27.1875 C-23.27554224 24.92472888 -29.58234506 26.00938315 -34.4375 26.75 C-38.14931687 27.24023996 -41.06992791 26.83312668 -44.75 26.1875 C-46.10369835 26.0373817 -47.45788851 25.89164189 -48.8125 25.75 C-52.36263602 25.24283771 -55.40315781 24.44256582 -58.75 23.1875 C-58.75 22.1975 -58.75 21.2075 -58.75 20.1875 C-53.39270794 18.0251663 -48.3829751 17.72915225 -42.6875 17.5 C-41.80255859 17.45294922 -40.91761719 17.40589844 -40.00585938 17.35742188 C-35.72296762 17.16143058 -31.94091689 17.15136926 -27.75 18.1875 C-25.41698014 18.22574623 -23.08288492 18.23324284 -20.75 18.1875 C-20.86471258 16.2368713 -20.86471258 16.2368713 -21.75 14.1875 C-24.02211676 12.86466143 -24.02211676 12.86466143 -26.75 12 C-31.70364238 10.23385762 -31.70364238 10.23385762 -32.75 9.1875 C-32.79063832 7.52132885 -32.792721 5.85361905 -32.75 4.1875 C-35.06 4.1875 -37.37 4.1875 -39.75 4.1875 C-39.09 6.4975 -38.43 8.8075 -37.75 11.1875 C-40.17381048 13.61131048 -41.27894921 13.62766497 -44.625 14 C-45.48867188 14.10957031 -46.35234375 14.21914063 -47.2421875 14.33203125 C-50.29628953 14.15601602 -51.51140097 13.20223912 -53.75 11.1875 C-53.23508365 6.75921939 -52.43033446 3.77050908 -49.75 0.1875 C-47.41993675 -1.25074074 -45.27644868 -2.42842249 -42.8125 -3.5625 C-42.19181641 -3.86542969 -41.57113281 -4.16835938 -40.93164062 -4.48046875 C-27.25908902 -11.03280978 -12.17950779 -8.6278494 0 0 Z " fill="#D85753" transform="translate(75.75,35.8125)"/>
	

	<path d="M0 0 C2.53752812 2.64325846 2.99195908 3.88340672 3.25 7.625 C3 11 3 11 2 13 C1.4225 12.690625 0.845 12.38125 0.25 12.0625 C-1.84904107 11.07128616 -3.75074138 10.52451199 -6 10 C-6.96423026 11.39176632 -7.92111602 12.7886223 -8.875 14.1875 C-9.40867188 14.96480469 -9.94234375 15.74210937 -10.4921875 16.54296875 C-12.29100104 19.31886957 -12.29100104 19.31886957 -14 24 C-10.04 24 -6.08 24 -2 24 C-1 28 -1 28 -1.92578125 29.921875 C-2.61220703 30.82679687 -2.61220703 30.82679687 -3.3125 31.75 C-3.98732422 32.67039062 -3.98732422 32.67039062 -4.67578125 33.609375 C-5.11277344 34.06828125 -5.54976562 34.5271875 -6 35 C-6.66 35 -7.32 35 -8 35 C-8.103125 35.598125 -8.20625 36.19625 -8.3125 36.8125 C-9.12378323 39.39385573 -9.88112703 40.33517123 -12 42 C-13.299375 42.495 -13.299375 42.495 -14.625 43 C-15.800625 43.495 -15.800625 43.495 -17 44 C-17.33 44.99 -17.66 45.98 -18 47 C-25.74832464 51.31424408 -34.61681367 51.41882257 -43.25 51.5 C-44.77572632 51.52743286 -44.77572632 51.52743286 -46.33227539 51.55541992 C-53.07238295 51.50104207 -58.09109649 50.25675912 -64 47 C-64 46.67 -64 46.34 -64 46 C-61.36 46 -58.72 46 -56 46 C-56.495 44.515 -56.495 44.515 -57 43 C-59.01508358 42.26676204 -59.01508358 42.26676204 -61 42 C-61 41.34 -61 40.68 -61 40 C-60.01 39.505 -60.01 39.505 -59 39 C-58.71121967 36.88227757 -58.49349622 34.7546438 -58.3125 32.625 C-57.46902766 26.46427801 -57.46902766 26.46427801 -55.45703125 24.47265625 C-52.25902873 23.10208374 -49.459199 23 -46 23 C-47.06134663 25.2043353 -48.16655426 27.25677115 -49.5 29.3125 C-52.07709759 33.92979984 -53.46809149 38.69496312 -53 44 C-51.34405198 45.65594802 -49.46907488 45.29013455 -47.1875 45.375 C-37.59354377 45.26286285 -29.40663864 41.28395335 -22.55078125 34.68359375 C-19.52511251 31.39879973 -18.18921734 28.88301427 -17.25 24.5 C-15.7730242 17.85360888 -11.80912271 9.80912271 -7 5 C-4.38419521 5.3269756 -2.35921863 5.82039068 0 7 C0 4.69 0 2.38 0 0 Z " fill="#DCAA3E" transform="translate(101,54)"/>
	

	<path d="M0 0 C2.31 0 4.62 0 7 0 C7.144375 0.928125 7.28875 1.85625 7.4375 2.8125 C8.63532751 6.08639155 8.63532751 6.08639155 11.06640625 6.99609375 C12.66740262 7.49206855 14.28148083 7.94790748 15.90625 8.359375 C18 9 18 9 20 11 C19.625 13.125 19.625 13.125 19 15 C15.2182317 15.08046316 11.82442615 14.97491802 8.0625 14.4375 C3.61910241 13.89356685 -0.73325709 14.0909893 -5.1875 14.375 C-5.86482178 14.41810303 -6.54214355 14.46120605 -7.23999023 14.50561523 C-11.20862361 14.79037551 -15.08725988 15.28195438 -19 16 C-18.67 16.99 -18.34 17.98 -18 19 C-12.94469116 21.11014007 -7.34165128 21.19508598 -1.9453125 20.97265625 C0 21 0 21 3 22 C4.2684375 21.7834375 4.2684375 21.7834375 5.5625 21.5625 C8.50026208 21.0817753 11.22012912 20.83218666 14.1875 20.75 C15.02667969 20.72421875 15.86585937 20.6984375 16.73046875 20.671875 C19.45741716 21.0661326 20.29846796 21.89386913 22 24 C20.125 28.875 20.125 28.875 19 30 C10.87131441 31.41526222 4.03936685 31.69291124 -3 27 C-3.52464844 26.46117188 -4.04929687 25.92234375 -4.58984375 25.3671875 C-5.96513211 23.73360966 -5.96513211 23.73360966 -8.4375 23.875 C-12.37903203 25.6054287 -13.17664801 28.15070136 -15 32 C-15 32.66 -15 33.32 -15 34 C-14.15695313 34.13277344 -13.31390625 34.26554687 -12.4453125 34.40234375 C-11.34960938 34.57894531 -10.25390625 34.75554687 -9.125 34.9375 C-8.03445312 35.11152344 -6.94390625 35.28554687 -5.8203125 35.46484375 C-3 36 -3 36 -1 37 C-1 37.99 -1 38.98 -1 40 C-2.65 40 -4.3 40 -6 40 C-5.67 41.65 -5.34 43.3 -5 45 C-4.21625 45.0825 -3.4325 45.165 -2.625 45.25 C0 46 0 46 1.3125 48.0625 C1.6528125 49.0215625 1.6528125 49.0215625 2 50 C4.475 49.505 4.475 49.505 7 49 C6.67 50.65 6.34 52.3 6 54 C2.592308 53.39148357 0.7284449 52.06700371 -2 50 C-2.845625 49.690625 -3.69125 49.38125 -4.5625 49.0625 C-7.49330126 47.78497125 -8.57012147 46.85975707 -10 44 C-9.6875 40.75 -9.6875 40.75 -9 38 C-11.97 37.01 -14.94 36.02 -18 35 C-17.27991594 30.39146203 -15.68704061 26.32762591 -14 22 C-14.94875 21.87625 -15.8975 21.7525 -16.875 21.625 C-20 21 -20 21 -22 19 C-22 18.01 -22 17.02 -22 16 C-19.36 14.68 -16.72 13.36 -14 12 C-14.33 10.68 -14.66 9.36 -15 8 C-15 6.68 -15 5.36 -15 4 C-14.38125 4.845625 -13.7625 5.69125 -13.125 6.5625 C-9.62232526 9.2945863 -8.96375358 9.31178757 -4.75 8.9375 C-2.17495239 8.66173626 -2.17495239 8.66173626 0 8 C1.43088528 5.13822943 0.59991697 3.06624227 0 0 Z " fill="#DF755A" transform="translate(36,40)"/>
	

	<path d="M0 0 C5.35678854 4.26597687 10.15176532 8.93006247 14.875 13.875 C15.89371548 14.8148009 16.91414187 15.75275668 17.9375 16.6875 C19.875 18.875 19.875 18.875 19.875 22.875 C18.921875 24.734375 18.921875 24.734375 17.625 26.625 C14.24482446 31.79580677 11.18886732 36.73989292 10.0625 42.875 C8.92762112 48.00222064 5.68730029 51.41306428 1.875 54.875 C-0.5 56.1875 -0.5 56.1875 -3.125 56.875 C-4.68994062 57.38845347 -6.25225403 57.90995272 -7.8125 58.4375 C-8.57949219 58.68628906 -9.34648438 58.93507813 -10.13671875 59.19140625 C-12.16400574 59.83945733 -12.16400574 59.83945733 -14.125 60.875 C-15.83202735 60.94496014 -17.54168003 60.95940154 -19.25 60.9375 C-20.61511719 60.92396484 -20.61511719 60.92396484 -22.0078125 60.91015625 C-23.05582031 60.89275391 -23.05582031 60.89275391 -24.125 60.875 C-25.64155919 57.84188163 -24.64890127 55.63950125 -23.9375 52.375 C-23.57591797 50.62703125 -23.57591797 50.62703125 -23.20703125 48.84375 C-22.125 45.875 -22.125 45.875 -18.125 43.875 C-19.445 46.845 -20.765 49.815 -22.125 52.875 C-21.465 52.875 -20.805 52.875 -20.125 52.875 C-19.795 53.535 -19.465 54.195 -19.125 54.875 C-15.55465703 55.99073218 -13.43180907 56.37195556 -9.90625 55.03125 C-4.61791064 52.20597281 2.10960583 48.40578833 4.875 42.875 C5.535 42.875 6.195 42.875 6.875 42.875 C7.101875 41.76125 7.32875 40.6475 7.5625 39.5 C8.65075133 35.02784308 10.61471955 31.27128208 12.8515625 27.26953125 C14.48474951 23.44837234 14.17135935 20.76407804 12.875 16.875 C10.94169397 15.78333725 10.94169397 15.78333725 8.875 14.875 C7.54166667 13.54166667 6.20833333 12.20833333 4.875 10.875 C4.00875 10.42125 3.1425 9.9675 2.25 9.5 C1.46625 8.96375 0.6825 8.4275 -0.125 7.875 C-0.125 6.555 -0.125 5.235 -0.125 3.875 C-1.23875 3.99875 -1.23875 3.99875 -2.375 4.125 C-5.97865737 3.79739478 -6.68473236 2.46316265 -9.125 -0.125 C-14.7417595 -4.05673165 -20.55277493 -3.41213605 -27.125 -3.125 C-26.795 -0.485 -26.465 2.155 -26.125 4.875 C-26.785 4.875 -27.445 4.875 -28.125 4.875 C-28.62 2.4 -28.62 2.4 -29.125 -0.125 C-32.095 -0.125 -35.065 -0.125 -38.125 -0.125 C-38.455 -1.115 -38.785 -2.105 -39.125 -3.125 C-27.23905059 -10.93576675 -10.9815797 -7.96512047 0 0 Z " fill="#D42053" transform="translate(74.125,37.125)"/>
	

	<path d="M0 0 C12.16461666 4.46623607 20.45431084 12.66181171 28 23 C28.55171875 23.7528125 29.1034375 24.505625 29.671875 25.28125 C33.54895593 31.29290358 33.91090274 36.98125465 33 44 C32.38689487 46.15871745 31.64477584 48.12737935 30.734375 50.17578125 C29.57118751 53.06518847 29.32143032 55.91426893 29 59 C27.515 59.495 27.515 59.495 26 60 C25.9071875 61.11375 25.9071875 61.11375 25.8125 62.25 C24.75814862 65.8185739 23.00090227 66.92245228 20 69 C19.71810903 64.11388989 19.80697853 61.72519171 23 58 C23 57.01 23 56.02 23 55 C22.30132812 55.01160156 21.60265625 55.02320313 20.8828125 55.03515625 C19.97273438 55.04417969 19.06265625 55.05320313 18.125 55.0625 C17.22007813 55.07410156 16.31515625 55.08570313 15.3828125 55.09765625 C13 55 13 55 11 54 C11.56601005 50.10695527 12.6798 47.50457513 14.875 44.25 C15.38804688 43.47140625 15.90109375 42.6928125 16.4296875 41.890625 C18 40 18 40 21 39 C24.1875 40.9375 24.1875 40.9375 27 43 C27.40486341 36.62340131 26.77205346 32.55123024 23.875 26.84765625 C23 25 23 25 23 23 C22.34 23 21.68 23 21 23 C20.608125 22.0925 20.21625 21.185 19.8125 20.25 C17.91456265 16.84680199 16.06322467 15.31811597 13 13 C13 12.34 13 11.68 13 11 C12.360625 10.87625 11.72125 10.7525 11.0625 10.625 C10.381875 10.41875 9.70125 10.2125 9 10 C8.67 9.34 8.34 8.68 8 8 C6.33720673 6.9935725 4.67016516 5.99414593 3 5 C1.1875 3.4375 1.1875 3.4375 0 2 C0 1.34 0 0.68 0 0 Z " fill="#313B59" transform="translate(76,24)"/>
	

	<path d="M0 0 C0 3.94991499 -1.55508641 4.97981263 -4 8 C-4.67966676 9.66140763 -5.34938905 11.32700041 -6 13 C-6.99 13.495 -6.99 13.495 -8 14 C-8.309375 14.969375 -8.61875 15.93875 -8.9375 16.9375 C-10 20 -10 20 -13 22 C-12.91621094 22.63808594 -12.83242187 23.27617188 -12.74609375 23.93359375 C-12.64425781 24.75988281 -12.54242188 25.58617188 -12.4375 26.4375 C-12.33308594 27.26121094 -12.22867187 28.08492187 -12.12109375 28.93359375 C-12.08113281 29.61550781 -12.04117187 30.29742187 -12 31 C-12.33 31.33 -12.66 31.66 -13 32 C-13.23192865 33.51469448 -13.41215238 35.03754562 -13.5625 36.5625 C-13.64628906 37.38878906 -13.73007813 38.21507812 -13.81640625 39.06640625 C-13.87699219 39.70449219 -13.93757812 40.34257813 -14 41 C-13.01 41.33 -12.02 41.66 -11 42 C-10.67 43.98 -10.34 45.96 -10 48 C-9.01 48.33 -8.02 48.66 -7 49 C-5.8671875 50.8125 -5.8671875 50.8125 -4.875 53 C-3.7328129 55.70303178 -3.7328129 55.70303178 -2 58 C-1.95936168 59.66617115 -1.957279 61.33388095 -2 63 C-3.32 63 -4.64 63 -6 63 C-6.3403125 62.13375 -6.3403125 62.13375 -6.6875 61.25 C-8.33038023 58.4336339 -10.39533227 56.91922886 -13 55 C-13.763125 55.474375 -14.52625 55.94875 -15.3125 56.4375 C-18 58 -18 58 -21 59 C-21 43.82 -21 28.64 -21 13 C-18.00667261 13.9977758 -17.05233685 14.7522025 -15 17 C-12.33264727 14.51047079 -10.44253657 12.36591866 -9 9 C-8.34 9 -7.68 9 -7 9 C-6.773125 8.2575 -6.54625 7.515 -6.3125 6.75 C-4.75592468 3.48860409 -2.91481146 2.07105025 0 0 Z " fill="#303C5A" transform="translate(21,27)"/>
	

	

	<path d="M0 0 C6.9364214 -0.77071349 11.89512452 1.91212766 18 5 C18.66 5.33 19.32 5.66 20 6 C20 6.66 20 7.32 20 8 C21.04220703 8.32484375 21.04220703 8.32484375 22.10546875 8.65625 C25.80686172 10.37457548 28.36119496 12.72441057 31.3125 15.5 C32.13717773 16.24830078 32.13717773 16.24830078 32.97851562 17.01171875 C34.36326881 18.29498071 35.68719343 19.64322383 37 21 C37 21.66 37 22.32 37 23 C37.99 23 38.98 23 40 23 C41.90608098 26.21182149 42.22266247 28.53882603 42.125 32.25 C42.10695312 33.14203125 42.08890625 34.0340625 42.0703125 34.953125 C42.04710937 35.62859375 42.02390625 36.3040625 42 37 C38.83189603 36.05813125 37.31818 35.4709064 35.4375 32.6875 C34.963125 31.800625 34.48875 30.91375 34 30 C27.76593123 21.68790831 19.8057001 14.50356256 11 9 C11.66 8.67 12.32 8.34 13 8 C15.1640625 8.99609375 15.1640625 8.99609375 17.625 10.4375 C18.85089844 11.14712891 18.85089844 11.14712891 20.1015625 11.87109375 C20.72804688 12.24363281 21.35453125 12.61617187 22 13 C22 12.34 22 11.68 22 11 C21.21625 10.731875 20.4325 10.46375 19.625 10.1875 C17 9 17 9 15 6 C10.31137771 3.28059907 5.40137266 1.55398694 0 1 C0 0.67 0 0.34 0 0 Z " fill="#D3A53D" transform="translate(59,24)"/>
	

	<path d="M0 0 C1.37562854 1.28965176 2.70766393 2.62689293 4 4 C5.63978318 5.04349839 7.30094366 6.05607981 9 7 C7.68 7.33 6.36 7.66 5 8 C6.65 9.98 8.3 11.96 10 14 C8 17 8 17 5 19 C5.66 19.66 6.32 20.32 7 21 C7 21.99 7 22.98 7 24 C3.51329166 22.8905928 0.22515763 21.73662334 -3 20 C-2.67 18.68 -2.34 17.36 -2 16 C-0.35 16 1.3 16 3 16 C1.31238846 12.74665741 1.31238846 12.74665741 -1.8203125 12.26953125 C-2.91085938 12.11871094 -4.00140625 11.96789062 -5.125 11.8125 C-6.22070312 11.65394531 -7.31640625 11.49539062 -8.4453125 11.33203125 C-9.28835937 11.22246094 -10.13140625 11.11289063 -11 11 C-11 5.9138889 -9.71012641 4.22460882 -7 0 C-4.23382717 -1.38308641 -2.92591209 -0.90563946 0 0 Z " fill="#E23680" transform="translate(32,64)"/>
	

	<path d="M0 0 C0.495 0.99 0.495 0.99 1 2 C-6.88630644 12.78674133 -13.59045179 18.87110542 -27 22 C-32.00672285 22.50067228 -36.9832093 22.31618429 -42 22 C-42 21.34 -42 20.68 -42 20 C-40.83984375 19.85304688 -40.83984375 19.85304688 -39.65625 19.703125 C-32.95042601 18.74040769 -27.90926126 17.28292292 -22 14 C-21.34 14 -20.68 14 -20 14 C-20 13.34 -20 12.68 -20 12 C-17.52767708 9.45061767 -14.74738435 7.24610721 -12 5 C-11.36835937 4.48179688 -10.73671875 3.96359375 -10.0859375 3.4296875 C-6.66880979 0.79533794 -4.36617645 -0.66154189 0 0 Z " fill="#ECCA39" transform="translate(95,81)"/>
	

	<path d="M0 0 C2.53752812 2.64325846 2.99195908 3.88340672 3.25 7.625 C3 11 3 11 2 13 C1.4225 12.690625 0.845 12.38125 0.25 12.0625 C-1.84904107 11.07128616 -3.75074138 10.52451199 -6 10 C-6.96423026 11.39176632 -7.92111602 12.7886223 -8.875 14.1875 C-9.40867187 14.96480469 -9.94234375 15.74210937 -10.4921875 16.54296875 C-12.29100104 19.31886957 -12.29100104 19.31886957 -14 24 C-10.04 24 -6.08 24 -2 24 C-1 28 -1 28 -1.92578125 29.921875 C-2.38339844 30.52515625 -2.84101562 31.1284375 -3.3125 31.75 C-3.98732422 32.67039062 -3.98732422 32.67039062 -4.67578125 33.609375 C-5.33126953 34.29773438 -5.33126953 34.29773438 -6 35 C-6.66 35 -7.32 35 -8 35 C-8.103125 35.598125 -8.20625 36.19625 -8.3125 36.8125 C-9.11209475 39.35666511 -9.81974318 40.4657452 -12 42 C-14.10546875 41.57421875 -14.10546875 41.57421875 -16 41 C-15.36191406 40.31292969 -14.72382812 39.62585938 -14.06640625 38.91796875 C-13.24011719 38.01691406 -12.41382812 37.11585937 -11.5625 36.1875 C-10.73878906 35.29417969 -9.91507813 34.40085938 -9.06640625 33.48046875 C-6.83280912 31.10551917 -6.83280912 31.10551917 -6 28 C-9.94328772 27.71346352 -11.80517748 28.14111871 -14.875 30.625 C-15.55304688 31.16640625 -16.23109375 31.7078125 -16.9296875 32.265625 C-17.61289063 32.83796875 -18.29609375 33.4103125 -19 34 C-19.68320313 34.57234375 -20.36640625 35.1446875 -21.0703125 35.734375 C-22.72584153 37.14190981 -24.36465056 38.56906924 -26 40 C-26.66 39.67 -27.32 39.34 -28 39 C-27.52949219 38.62488281 -27.05898437 38.24976563 -26.57421875 37.86328125 C-21.7240182 33.87667748 -18.60751601 30.83507471 -17.25 24.5 C-15.7730242 17.85360888 -11.80912271 9.80912271 -7 5 C-4.38419521 5.3269756 -2.35921863 5.82039068 0 7 C0 4.69 0 2.38 0 0 Z " fill="#7B6A87" transform="translate(101,54)"/>
	

	<path d="M0 0 C4.95 0 9.9 0 15 0 C15.48828125 10.64453125 15.48828125 10.64453125 15 14 C12.66796875 15.984375 12.66796875 15.984375 10 17 C5.45507615 16.14782678 2.25893857 14.25893857 -1 11 C-2.79467305 6.45349494 -1.68285266 5.04855797 0 0 Z " fill="#B9B9BA" transform="translate(113,0)"/>
	

	<path d="M0 0 C3.22429352 0.95857375 4.72562304 1.62763128 6.75 4.375 C8.93425606 8.96193772 8.93425606 8.96193772 9 11 C7.75 13.1875 7.75 13.1875 5 15 C-4.39658849 16.80170576 -4.39658849 16.80170576 -8 15 C-7.43928208 11.04693863 -6.27794197 8.51358993 -4 5.25 C-3.46375 4.47140625 -2.9275 3.6928125 -2.375 2.890625 C-1 1 -1 1 0 0 Z " fill="#2379BB" transform="translate(95,63)"/>
	

	<path d="M0 0 C1.1127832 -0.02416992 1.1127832 -0.02416992 2.24804688 -0.04882812 C6.76756601 -0.05285263 9.79028723 0.34417436 13.4375 3.3125 C13.4375 3.9725 13.4375 4.6325 13.4375 5.3125 C8.6875 6.3125 8.6875 6.3125 6.4375 6.3125 C6.4375 6.6425 6.4375 6.9725 6.4375 7.3125 C-0.78783204 8.31189172 -6.51914616 8.27540189 -13.5625 6.3125 C-13.8925 4.9925 -14.2225 3.6725 -14.5625 2.3125 C-9.57288875 0.32772595 -5.28268525 -0.02306849 0 0 Z " fill="#E23680" transform="translate(31.5625,53.6875)"/>
	

	

	<path d="M0 0 C2.31 0 4.62 0 7 0 C7.144375 0.928125 7.28875 1.85625 7.4375 2.8125 C8.63532751 6.08639155 8.63532751 6.08639155 11.06640625 6.99609375 C12.66740262 7.49206855 14.28148083 7.94790748 15.90625 8.359375 C18 9 18 9 20 11 C19.625 13.125 19.625 13.125 19 15 C12.24520726 15.7342166 7.81475715 13.27591952 2 10 C2.04125 9.21625 2.0825 8.4325 2.125 7.625 C2.28728734 4.83883881 2.28728734 4.83883881 0 3 C0 2.01 0 1.02 0 0 Z " fill="#E0AE3E" transform="translate(36,40)"/>
	

	

	<path d="M0 0 C0.28875 1.134375 0.5775 2.26875 0.875 3.4375 C1.24625 4.613125 1.6175 5.78875 2 7 C2.66 7.33 3.32 7.66 4 8 C4 7.34 4 6.68 4 6 C5.32 5.67 6.64 5.34 8 5 C8.103125 4.360625 8.20625 3.72125 8.3125 3.0625 C8.539375 2.381875 8.76625 1.70125 9 1 C9.99 0.67 10.98 0.34 12 0 C12 3.61029169 11.03907418 6.55806676 10 10 C10.845625 10.7425 11.69125 11.485 12.5625 12.25 C15 15 15 15 15 17.25 C14 19 14 19 11 20 C4.61671215 20.65469619 -0.15682467 19.54974923 -6 17 C-2.53873095 16.0162709 -0.5239881 16.26242109 3 17 C5.33301986 17.03824623 7.66711508 17.04574284 10 17 C9.43447641 13.71996319 8.67167078 12.02678473 6 10 C4.989375 9.731875 3.97875 9.46375 2.9375 9.1875 C0 8 0 8 -1.375 4.875 C-1.58125 3.92625 -1.7875 2.9775 -2 2 C-4.31 1.67 -6.62 1.34 -9 1 C-5.64919071 -1.10976881 -3.77897651 -1.0497157 0 0 Z " fill="#D53853" transform="translate(45,37)"/>
	

	<path d="M0 0 C1.8046875 1.51953125 1.8046875 1.51953125 3 3 C1.4140625 5.47265625 1.4140625 5.47265625 -1 8 C-4.1640625 8.55859375 -4.1640625 8.55859375 -7.625 8.4375 C-9.34589844 8.40462891 -9.34589844 8.40462891 -11.1015625 8.37109375 C-14 8 -14 8 -16 6 C-15.9375 4 -15.9375 4 -15 2 C-10.73687304 -0.75040449 -4.90906464 -0.77380171 0 0 Z " fill="#EFD138" transform="translate(55,61)"/>
	

	<path d="M0 0 C3.82017001 1.50078107 5.75370799 3.59183281 8 7 C8.875 10.1875 8.875 10.1875 9 13 C8.34 13.66 7.68 14.32 7 15 C2.64435465 14.76455971 0.00875397 13.09471837 -3 10 C-3.69317418 6.62077589 -3.12724578 5.23858583 -1.5 2.1875 C-1.005 1.465625 -0.51 0.74375 0 0 Z " fill="#F2F2F3" transform="translate(116,0)"/>
	

	<path d="M0 0 C-0.61488281 0.29132812 -1.22976562 0.58265625 -1.86328125 0.8828125 C-5.86842425 2.91412904 -8.51397713 4.27832968 -11.0625 8.0625 C-12.31871486 11.99863989 -12.11459912 15.09890306 -11 19 C-17.625 23 -17.625 23 -21 23 C-21.125 17.25 -21.125 17.25 -20 15 C-19.34 15 -18.68 15 -18 15 C-17.896875 14.05125 -17.79375 13.1025 -17.6875 12.125 C-17 9 -17 9 -14 7 C-14 7.66 -14 8.32 -14 9 C-13.34 9 -12.68 9 -12 9 C-11.835 8.0925 -11.67 7.185 -11.5 6.25 C-9.62285029 2.18284231 -7.79998429 1.40624264 -3.875 -0.43359375 C-2 -1 -2 -1 0 0 Z " fill="#DFAB3E" transform="translate(34,33)"/>
	

	<path d="M0 0 C0.66 0.33 1.32 0.66 2 1 C1.01368787 3.69818719 0.32709734 4.81142431 -2.1953125 6.265625 C-9.91710582 8.86014756 -17.13841915 9.41820255 -25.25 9.5 C-26.77584717 9.52755371 -26.77584717 9.52755371 -28.33251953 9.55566406 C-35.07250802 9.50073343 -40.09113665 8.25673699 -46 5 C-46 4.67 -46 4.34 -46 4 C-40.48906832 3.74950311 -40.48906832 3.74950311 -38.07763672 4.98461914 C-34.31946359 6.82131033 -30.24064306 6.42623323 -26.125 6.4375 C-24.72556152 6.44221313 -24.72556152 6.44221313 -23.29785156 6.44702148 C-16.05827964 6.32303914 -5.47418458 5.47418458 0 0 Z " fill="#7E793F" transform="translate(83,96)"/>
	

	<path d="M0 0 C1.98 0 3.96 0 6 0 C6 1.65 6 3.3 6 5 C5.37609375 5.19464844 4.7521875 5.38929687 4.109375 5.58984375 C1.6984066 6.89532638 1.6984066 6.89532638 0.953125 10.00390625 C0.60507812 11.76541016 0.60507812 11.76541016 0.25 13.5625 C0.00765625 14.73941406 -0.2346875 15.91632813 -0.484375 17.12890625 C-1.02946064 19.67787099 -1.02946064 19.67787099 -1 21 C0.58294782 21.05437607 2.16644256 21.09296271 3.75 21.125 C4.63171875 21.14820312 5.5134375 21.17140625 6.421875 21.1953125 C9.16145221 20.98776877 10.63084662 20.32867983 13 19 C16.47207917 17.90355395 19.35252927 17 23 17 C18.75613498 21.87206872 12.16444039 23.66879123 5.90234375 24.32421875 C3.20607161 24.37039996 0.66672992 24.40447755 -2 24 C-4 22 -4 22 -4.3125 19.9375 C-3.51662156 12.45624265 -0.60178466 6.84551025 4 1 C2.68 0.67 1.36 0.34 0 0 Z " fill="#D85853" transform="translate(51,76)"/>
	

	<path d="M0 0 C0.33 0.66 0.66 1.32 1 2 C0.06421005 4.35981813 -0.93347808 6.69631264 -2 9 C-2.66 9 -3.32 9 -4 9 C-4.103125 9.598125 -4.20625 10.19625 -4.3125 10.8125 C-5.11209475 13.35666511 -5.81974318 14.4657452 -8 16 C-10.10546875 15.57421875 -10.10546875 15.57421875 -12 15 C-11.04287109 13.96939453 -11.04287109 13.96939453 -10.06640625 12.91796875 C-9.24011719 12.01691406 -8.41382812 11.11585937 -7.5625 10.1875 C-6.73878906 9.29417969 -5.91507813 8.40085937 -5.06640625 7.48046875 C-2.83280912 5.10551917 -2.83280912 5.10551917 -2 2 C-5.94328772 1.71346352 -7.80517748 2.14111871 -10.875 4.625 C-11.89207031 5.43710938 -11.89207031 5.43710938 -12.9296875 6.265625 C-13.61289063 6.83796875 -14.29609375 7.4103125 -15 8 C-15.68320313 8.57234375 -16.36640625 9.1446875 -17.0703125 9.734375 C-18.72584153 11.14190981 -20.36465056 12.56906924 -22 14 C-22.66 13.67 -23.32 13.34 -24 13 C-23.55269531 12.62488281 -23.10539062 12.24976562 -22.64453125 11.86328125 C-19.74641415 9.41007765 -16.96967071 6.96896538 -14.3125 4.25 C-9.63144752 -0.30453755 -6.32655098 -0.21088503 0 0 Z " fill="#A89339" transform="translate(97,80)"/>
	

	

	<path d="M0 0 C3.33537489 1.11179163 4.63707344 2.47411298 7 5 C5.94124926 8.40312738 4.99097846 11.01353231 3 14 C0.39667275 13.01510114 -0.76027247 12.52860421 -1.93359375 9.94140625 C-2.09988281 9.15636719 -2.26617187 8.37132813 -2.4375 7.5625 C-2.62183594 6.78003906 -2.80617188 5.99757813 -2.99609375 5.19140625 C-3 3 -3 3 -1.53515625 1.21484375 C-1.02855469 0.81394531 -0.52195312 0.41304687 0 0 Z " fill="#EBC939" transform="translate(13,59)"/>
	

	<path d="M0 0 C1.9375 0.375 1.9375 0.375 4 1 C4.33 1.66 4.66 2.32 5 3 C5.721875 3.391875 6.44375 3.78375 7.1875 4.1875 C11.97790168 7.27464775 15.45329535 10.85223173 16.875 16.4375 C16.91625 17.283125 16.9575 18.12875 17 19 C12.82946206 17.45535632 10.65084352 14.38763387 8 11 C4.74516715 6.98873588 4.74516715 6.98873588 1.1875 3.25 C0 2 0 2 0 0 Z " fill="#EDCC38" transform="translate(82,37)"/>
	

	

	<path d="M0 0 C-0.97721338 2.51580465 -1.53343165 3.74991936 -3.953125 5.046875 C-12.42066028 7.63897764 -12.42066028 7.63897764 -17 7 C-19.375 5.625 -19.375 5.625 -21 4 C-21 3.34 -21 2.68 -21 2 C-19.19402344 1.90912109 -19.19402344 1.90912109 -17.3515625 1.81640625 C-15.77602923 1.73200268 -14.20050904 1.64735459 -12.625 1.5625 C-11.8309375 1.52318359 -11.036875 1.48386719 -10.21875 1.44335938 C-6.68012647 1.2484352 -3.35189233 0 0 0 Z " fill="#D41F53" transform="translate(58,70)"/>
	

	<path d="M0 0 C0 3.86695678 -1.41909971 6.5088452 -3 10 C-3.66 10 -4.32 10 -5 10 C-4.96519531 10.75925781 -4.93039063 11.51851562 -4.89453125 12.30078125 C-4.86746094 13.29464844 -4.84039063 14.28851563 -4.8125 15.3125 C-4.77769531 16.29863281 -4.74289063 17.28476562 -4.70703125 18.30078125 C-5.05207467 21.4797813 -5.81377179 21.86091417 -8 24 C-7.90122638 29.27451122 -5.71720807 33.60071074 -3 38 C-3.33 38.99 -3.66 39.98 -4 41 C-8.59264599 37.47897141 -9.22134734 33.4505686 -10 28 C-10.25 25.0625 -10.25 25.0625 -10 23 C-9.34 22.34 -8.68 21.68 -8 21 C-8.03270338 19.00509395 -8.06696522 17.0101669 -8.1171875 15.015625 C-7.94682236 12.08534466 -6.65120436 10.38507296 -5 8 C-4.45792156 6.75906554 -3.93778328 5.50836561 -3.4375 4.25 C-2 1 -2 1 0 0 Z " fill="#AA933A" transform="translate(19,38)"/>
	

	

	<path d="M0 0 C0.391875 0.474375 0.78375 0.94875 1.1875 1.4375 C3.04512442 3.35343587 3.04512442 3.35343587 6.5 3.25 C8.2325 3.62125 8.2325 3.62125 10 4 C11.01529541 6.32671865 12.01488198 8.6603447 13 11 C16.53514293 12.37967524 16.53514293 12.37967524 20 13 C20.33 13.66 20.66 14.32 21 15 C19.53984709 14.71758359 18.08190207 14.42373386 16.625 14.125 C15.81289063 13.96257813 15.00078125 13.80015625 14.1640625 13.6328125 C12 13 12 13 10 11 C9.875 8.375 9.875 8.375 10 6 C7.69 6 5.38 6 3 6 C2.67 6.99 2.34 7.98 2 9 C-1 5.25 -1 5.25 -1 3 C-2.98 3 -4.96 3 -7 3 C-4.74624683 0.74624683 -3.20799182 0 0 0 Z " fill="#E0795B" transform="translate(33,34)"/>
	

	<path d="M0 0 C1.06992187 0.01289063 2.13984375 0.02578125 3.2421875 0.0390625 C4.35335937 0.07257812 5.46453125 0.10609375 6.609375 0.140625 C7.73601563 0.15867187 8.86265625 0.17671875 10.0234375 0.1953125 C12.80294396 0.24242278 15.5807284 0.30819139 18.359375 0.390625 C18.359375 0.720625 18.359375 1.050625 18.359375 1.390625 C17.06902344 1.42800781 15.77867188 1.46539063 14.44921875 1.50390625 C12.73174351 1.56960202 11.01429685 1.6360481 9.296875 1.703125 C8.02553711 1.73696289 8.02553711 1.73696289 6.72851562 1.77148438 C1.21512709 2.00564373 -2.71345789 2.89303966 -7.640625 5.390625 C-8.33671875 5.72964844 -9.0328125 6.06867187 -9.75 6.41796875 C-13.23382595 8.35066267 -15.41643619 10.11287306 -17.640625 13.390625 C-18.300625 13.390625 -18.960625 13.390625 -19.640625 13.390625 C-19.970625 14.050625 -20.300625 14.710625 -20.640625 15.390625 C-20.07798542 11.88553249 -18.98877318 10.43794492 -16.265625 8.203125 C-15.65976562 7.69394531 -15.05390625 7.18476563 -14.4296875 6.66015625 C-12.640625 5.390625 -12.640625 5.390625 -9.640625 4.390625 C-9.03508789 3.71805664 -8.42955078 3.04548828 -7.80566406 2.35253906 C-5.03928581 -0.15429626 -3.68168317 -0.07833368 0 0 Z " fill="#998A3B" transform="translate(40.640625,22.609375)"/>
	

	

	<path d="M0 0 C1.8046875 1.51953125 1.8046875 1.51953125 3 3 C1.4140625 5.47265625 1.4140625 5.47265625 -1 8 C-4.1640625 8.55859375 -4.1640625 8.55859375 -7.625 8.4375 C-9.34589844 8.40462891 -9.34589844 8.40462891 -11.1015625 8.37109375 C-14 8 -14 8 -16 6 C-15.9375 4 -15.9375 4 -15 2 C-10.73687304 -0.75040449 -4.90906464 -0.77380171 0 0 Z M-14 4 C-13.67 4.99 -13.34 5.98 -13 7 C-7.06 6.505 -7.06 6.505 -1 6 C-0.67 4.68 -0.34 3.36 0 2 C-1.14182348 0.64162574 -1.14182348 0.64162574 -4.1875 0.75 C-8.22587057 1.01481119 -10.54156471 1.97555008 -14 4 Z " fill="#DFAB3F" transform="translate(55,61)"/>
	

	<path d="M0 0 C2.64 0.33 5.28 0.66 8 1 C8.12375 2.051875 8.2475 3.10375 8.375 4.1875 C8.91140782 7.45958771 9.63880035 10.00536076 11 13 C7.38502261 11.52841629 5.59408489 9.58537669 3.25 6.5 C2.63640625 5.7059375 2.0228125 4.911875 1.390625 4.09375 C0 2 0 2 0 0 Z " fill="#EFD138" transform="translate(17,77)"/>
	

	<path d="M0 0 C1.32 0.33 2.64 0.66 4 1 C3.45276317 4.37462715 2.9451 6.08235 1 9 C-2.04988123 10.17911175 -4.83395108 10.07058913 -8.0625 9.8125 C-8.91972656 9.75707031 -9.77695312 9.70164062 -10.66015625 9.64453125 C-13.63223412 8.82584536 -14.42398837 7.57845837 -16 5 C-15.360625 5.165 -14.72125 5.33 -14.0625 5.5 C-8.98086997 6.32965388 -3.91519022 6.63839674 1 5 C0.67 3.35 0.34 1.7 0 0 Z " fill="#D41F54" transform="translate(58,50)"/>
	

	<path d="M0 0 C0.99 0 1.98 0 3 0 C3.28875 1.134375 3.5775 2.26875 3.875 3.4375 C4.24625 4.613125 4.6175 5.78875 5 7 C5.66 7.33 6.32 7.66 7 8 C4.69 8.66 2.38 9.32 0 10 C-2 7 -2 7 -1.6875 3.875 C-1 1 -1 1 0 0 Z " fill="#E23680" transform="translate(26,40)"/>
	

	<path d="M0 0 C0 0.66 0 1.32 0 2 C-1.2065625 1.566875 -1.2065625 1.566875 -2.4375 1.125 C-12.60976019 -2.08729269 -22.41697141 -2.56617574 -33 -3 C-33 -3.33 -33 -3.66 -33 -4 C-6.78472689 -6.13413664 -6.78472689 -6.13413664 0 0 Z " fill="#606143" transform="translate(74,26)"/>
	

	<path d="M0 0 C0.66 0 1.32 0 2 0 C2.25394531 0.54269531 2.50789063 1.08539063 2.76953125 1.64453125 C3.11371094 2.35996094 3.45789063 3.07539062 3.8125 3.8125 C4.14894531 4.52019531 4.48539063 5.22789063 4.83203125 5.95703125 C6.62919104 9.10055825 8.48957784 10.70833019 11.625 12.5 C14 14 14 14 15 17 C15.99 17.33 16.98 17.66 18 18 C17.34 18.33 16.68 18.66 16 19 C10.41505467 16.52191167 6.59457806 12.82700483 3 8 C2.401875 7.29875 1.80375 6.5975 1.1875 5.875 C0 4 0 4 0 0 Z " fill="#807840" transform="translate(16,79)"/>
	

	<path d="M0 0 C0.33 0.66 0.66 1.32 1 2 C1.99 2.33 2.98 2.66 4 3 C1.36 7.95 -1.28 12.9 -4 18 C-4.33 18 -4.66 18 -5 18 C-5.49456314 13.05436862 -4.3260355 10.13034294 -1.97265625 5.9296875 C-0.98177096 3.96383475 -0.45337523 2.1475669 0 0 Z " fill="#D93A61" transform="translate(89,58)"/>
	

	<path d="M0 0 C5.53574661 -0.25162485 5.53574661 -0.25162485 7.83691406 0.99560547 C10.63365075 2.29422564 12.78312892 2.22670277 15.859375 2.1953125 C16.97441406 2.18886719 18.08945312 2.18242188 19.23828125 2.17578125 C20.97658203 2.15064453 20.97658203 2.15064453 22.75 2.125 C23.92433594 2.11597656 25.09867188 2.10695313 26.30859375 2.09765625 C29.20593536 2.07410063 32.10286441 2.04120652 35 2 C30.16485981 5.22342679 24.87043783 4.32791763 19.1875 4.3125 C18.01123047 4.32861328 16.83496094 4.34472656 15.62304688 4.36132812 C4.94886732 4.36736214 4.94886732 4.36736214 0 1 C0 0.67 0 0.34 0 0 Z " fill="#9A8B3B" transform="translate(37,100)"/>
	

	<path d="M0 0 C0.598125 0.226875 1.19625 0.45375 1.8125 0.6875 C1.8125 4.6875 1.8125 4.6875 0 6.9375 C-2.1875 8.6875 -2.1875 8.6875 -5.1875 8.6875 C-5.55003776 3.24943353 -5.55003776 3.24943353 -3.9375 0.75 C-2.1875 -0.3125 -2.1875 -0.3125 0 0 Z " fill="#ECCB39" transform="translate(18.1875,47.3125)"/>
	

	

	<path d="M0 0 C1.43836751 0.11458693 2.87570966 0.24209116 4.3125 0.375 C5.51326172 0.47941406 5.51326172 0.47941406 6.73828125 0.5859375 C9 1 9 1 12 3 C12 3.99 12 4.98 12 6 C7.27536912 5.53680089 3.82942948 4.90108294 0 2 C0 1.34 0 0.68 0 0 Z " fill="#EFD138" transform="translate(42,48)"/>
	

	<path d="M0 0 C1.65 0 3.3 0 5 0 C5.33 0.99 5.66 1.98 6 3 C6.86625 3.185625 6.86625 3.185625 7.75 3.375 C12.18306302 4.60640639 15.67689437 9.12815728 18 13 C17.67 13.99 17.34 14.98 17 16 C16.071875 14.7625 16.071875 14.7625 15.125 13.5 C11.95674144 9.66522019 8.1261649 6.7662685 4.20703125 3.734375 C2 2 2 2 0 0 Z " fill="#575944" transform="translate(79,31)"/>
	

	<path d="M0 0 C1.79244141 0.01740234 1.79244141 0.01740234 3.62109375 0.03515625 C5.41740234 0.04869141 5.41740234 0.04869141 7.25 0.0625 C8.17683594 0.07410156 9.10367188 0.08570312 10.05859375 0.09765625 C10.38859375 1.41765625 10.71859375 2.73765625 11.05859375 4.09765625 C10.06859375 4.75765625 9.07859375 5.41765625 8.05859375 6.09765625 C8.05859375 5.10765625 8.05859375 4.11765625 8.05859375 3.09765625 C2.38582864 2.80423737 -0.93207871 3.09205973 -5.94140625 6.09765625 C-3.64266867 0.12093853 -3.64266867 0.12093853 0 0 Z " fill="#6B6D43" transform="translate(88.94140625,77.90234375)"/>
	

	<path d="M0 0 C2.53752812 2.64325846 2.99195908 3.88340672 3.25 7.625 C3 11 3 11 2 13 C-0.99324263 11.9024777 -1.84610901 11.32317108 -3.25 8.375 C-3.4975 7.59125 -3.745 6.8075 -4 6 C-2.68 6.33 -1.36 6.66 0 7 C0 4.69 0 2.38 0 0 Z " fill="#707142" transform="translate(101,54)"/>
	

	

	

	

	

	<path d="M0 0 C0.33 0.66 0.66 1.32 1 2 C0.01 3.485 0.01 3.485 -1 5 C-1.66 5 -2.32 5 -3 5 C-3.103125 5.598125 -3.20625 6.19625 -3.3125 6.8125 C-4.11209475 9.35666511 -4.81974318 10.4657452 -7 12 C-9.10546875 11.57421875 -9.10546875 11.57421875 -11 11 C-9.54540569 9.35086118 -8.08620743 7.70578218 -6.625 6.0625 C-5.81289062 5.14597656 -5.00078125 4.22945313 -4.1640625 3.28515625 C-2 1 -2 1 0 0 Z " fill="#83793E" transform="translate(96,84)"/>
	

	<path d="M0 0 C0.99 0 1.98 0 3 0 C4.90608098 3.21182149 5.22266247 5.53882603 5.125 9.25 C5.10695313 10.14203125 5.08890625 11.0340625 5.0703125 11.953125 C5.04710938 12.62859375 5.02390625 13.3040625 5 14 C2.525 13.01 2.525 13.01 0 12 C0.33 11.34 0.66 10.68 1 10 C1.66 10.33 2.32 10.66 3 11 C1.515 5.555 1.515 5.555 0 0 Z " fill="#9C8B3B" transform="translate(96,47)"/>
	

	<path d="M0 0 C6.9364214 -0.77071349 11.89512452 1.91212766 18 5 C18.66 5.33 19.32 5.66 20 6 C20 6.66 20 7.32 20 8 C20.66 8.33 21.32 8.66 22 9 C17.99577204 8.42796743 15.39708531 7.15424922 12 5 C7.96189204 2.76615304 4.59004738 1.54643421 0 1 C0 0.67 0 0.34 0 0 Z " fill="#9F8E3A" transform="translate(59,24)"/>
	

	<path d="M0 0 C0.99 0 1.98 0 3 0 C3 1.98 3 3.96 3 6 C0.69 6 -1.62 6 -4 6 C-2.84826645 3.53199953 -1.95216435 1.95216435 0 0 Z " fill="#978F9B" transform="translate(125,122)"/>
	

	<path d="M0 0 C1.6254308 0.14095064 3.25034051 0.28792087 4.875 0.4375 C5.77992187 0.51871094 6.68484375 0.59992187 7.6171875 0.68359375 C10 1 10 1 12 2 C12 2.66 12 3.32 12 4 C8.04 3.67 4.08 3.34 0 3 C0 2.01 0 1.02 0 0 Z " fill="#2F3B5C" transform="translate(60,19)"/>
	

	

	

	<path d="M0 0 C1.17825358 0.90172468 2.34231577 1.82201502 3.5 2.75 C4.1496875 3.26046875 4.799375 3.7709375 5.46875 4.296875 C7 6 7 6 7 10 C5.68 9.67 4.36 9.34 3 9 C2.566875 7.2984375 2.566875 7.2984375 2.125 5.5625 C1.75375 4.386875 1.3825 3.21125 1 2 C0.34 1.67 -0.32 1.34 -1 1 C-0.67 0.67 -0.34 0.34 0 0 Z " fill="#D41F54" transform="translate(28,38)"/>
	

	<path d="M0 0 C1.98 0 3.96 0 6 0 C6 2.64 6 5.28 6 8 C1.125 3.375 1.125 3.375 0 0 Z " fill="#7C6A89" transform="translate(122,0)"/>
	

	

	

	

	

	<path d="M0 0 C0.87591797 0.33064453 0.87591797 0.33064453 1.76953125 0.66796875 C0.84140625 1.08046875 -0.08671875 1.49296875 -1.04296875 1.91796875 C-4.15734061 3.62781996 -5.2726651 4.82915345 -7.23046875 7.66796875 C-7.89046875 7.66796875 -8.55046875 7.66796875 -9.23046875 7.66796875 C-9.56046875 8.32796875 -9.89046875 8.98796875 -10.23046875 9.66796875 C-9.66253553 6.19221747 -8.5687863 4.64300509 -5.91796875 2.35546875 C-5.32371094 1.82308594 -4.72945312 1.29070313 -4.1171875 0.7421875 C-2.23046875 -0.33203125 -2.23046875 -0.33203125 0 0 Z " fill="#BB9B3B" transform="translate(30.23046875,28.33203125)"/>
	

	

	

	<path d="M0 0 C0.99 0 1.98 0 3 0 C3.66 1.98 4.32 3.96 5 6 C4.01 6.33 3.02 6.66 2 7 C1.01 5.02 0.02 3.04 -1 1 C-0.67 0.67 -0.34 0.34 0 0 Z " fill="#D41F54" transform="translate(37,81)"/>
	

	

	

	

	<path d="M0 0 C0.66 0 1.32 0 2 0 C2 0.99 2 1.98 2 3 C-0.76250036 4.38125018 -2.94731099 4.19079306 -6 4 C-6.66 3.34 -7.32 2.68 -8 2 C-6.865625 1.855625 -5.73125 1.71125 -4.5625 1.5625 C-1.19222799 1.38828522 -1.19222799 1.38828522 0 0 Z " fill="#7A6A81" transform="translate(126,14)"/>
	

	

	

	

</svg>
