<?xml version="1.0" encoding="iso-8859-1"?>
<svg height="128" version="1.1" width="128" xmlns="http://www.w3.org/2000/svg">
	

	<path d="M0 0 C42.24 0 84.48 0 128 0 C128 42.24 128 84.48 128 128 C85.76 128 43.52 128 0 128 C0 85.76 0 43.52 0 0 Z " fill="#EE5C28" transform="translate(0,0)"/>
	

	<path d="M0 0 C40.59 0 81.18 0 123 0 C122 5 122 5 118 8 C105.13 8.99 105.13 8.99 92 10 C91.34 34.75 90.68 59.5 90 85 C98.25 85.33 106.5 85.66 115 86 C117.8199387 88.8199387 117.28962838 90.92904159 117.32226562 94.78320312 C117.31743164 96.09708008 117.31743164 96.09708008 117.3125 97.4375 C117.32861328 98.30955078 117.34472656 99.18160156 117.36132812 100.08007812 C117.36197266 100.91861328 117.36261719 101.75714844 117.36328125 102.62109375 C117.36626221 103.3886499 117.36924316 104.15620605 117.37231445 104.94702148 C116.90201181 107.54031652 116.0834635 108.42712569 114 110 C111.3046875 110.2578125 111.3046875 110.2578125 107.875 110.125 C100.91462399 109.95083821 94.01651177 110.17624544 87.0625 110.5 C83.81449389 110.63137502 80.56631185 110.75535435 77.31787109 110.87548828 C75.09140229 110.9590423 72.86515266 111.04863867 70.63916016 111.14404297 C67.38451868 111.27400013 64.13128607 111.36097035 60.875 111.4375 C59.88636963 111.48390625 58.89773926 111.5303125 57.87915039 111.578125 C52.90660889 111.65377262 49.81474998 111.38372757 45.91015625 108.140625 C43.3852886 105.67774762 41.84830205 103.48746399 41 100 C41 99.01 41 98.02 41 97 C40.34 97 39.68 97 39 97 C34.93063755 89.75897302 32.6590058 82.78841793 30.9375 74.6875 C30.6885498 73.55248047 30.43959961 72.41746094 30.18310547 71.24804688 C29.68078733 68.93563454 29.18559143 66.62166284 28.69775391 64.30615234 C28.06106891 61.28936151 27.39801821 58.27960135 26.73046875 55.26953125 C24.32934113 44.04858209 23.4961584 33.46239646 24 22 C23.34 22 22.68 22 22 22 C21.67 19.03 21.34 16.06 21 13 C30.4207457 8.57801733 39.71871983 8.735442 49.99023438 8.39453125 C50.98990234 8.35714844 51.98957031 8.31976563 53.01953125 8.28125 C53.92807861 8.25095703 54.83662598 8.22066406 55.77270508 8.18945312 C58.03811259 8.13502641 58.03811259 8.13502641 60 7 C52.97240323 5.32531592 46.39102844 4.72487727 39.1796875 4.8046875 C38.19501495 4.8075174 37.21034241 4.81034729 36.1958313 4.81326294 C33.08875739 4.82434805 29.98198496 4.84943009 26.875 4.875 C24.75260837 4.88504491 22.63021216 4.8941681 20.5078125 4.90234375 C15.33842769 4.92424901 10.16926474 4.95869672 5 5 C4.81895056 11.62467606 4.65421643 18.24964496 4.5 24.875 C4.47599121 25.90645142 4.45198242 26.93790283 4.42724609 28.00061035 C4.10760548 42.24908017 3.9583376 56.49069849 3.96875 70.7421875 C3.96925858 71.48991802 3.96976715 72.23764854 3.97029114 73.00803757 C3.97689781 80.4829249 3.99507796 87.95771777 4.02805328 95.43253517 C4.03975022 98.24353187 4.04784333 101.05453293 4.05543518 103.86554337 C4.0623387 105.81385272 4.07498495 107.76213905 4.08776855 109.7104187 C4.09103149 110.87815826 4.09429443 112.04589783 4.09765625 113.24902344 C4.10289307 114.26784607 4.10812988 115.2866687 4.11352539 116.33636475 C4.01128557 118.73520783 3.59404961 120.69226805 3 123 C3.38567131 125.68149993 3.38567131 125.68149993 4 128 C2.68 128 1.36 128 0 128 C0 85.76 0 43.52 0 0 Z " fill="#FAF9F7" transform="translate(0,0)"/>
	

	

	<path d="M0 0 C1.55484611 0.0416075 3.10784976 0.15726186 4.65625 0.3046875 C6.06583984 0.43810547 6.06583984 0.43810547 7.50390625 0.57421875 C8.98697266 0.72310547 8.98697266 0.72310547 10.5 0.875 C11.98306641 1.01228516 11.98306641 1.01228516 13.49609375 1.15234375 C20.87057133 1.87057133 20.87057133 1.87057133 22 3 C22.07258946 5.18639453 22.08373783 7.37500389 22.0625 9.5625 C22.05347656 10.76003906 22.04445313 11.95757812 22.03515625 13.19140625 C22.02355469 14.11824219 22.01195313 15.04507813 22 16 C22.66 16 23.32 16 24 16 C24 30.85 24 45.7 24 61 C21.31432703 62.34283649 19.12253147 62.24287519 16.125 62.3125 C14.55105469 62.36857422 14.55105469 62.36857422 12.9453125 62.42578125 C10 62 10 62 7.71875 60.4140625 C5.50785811 57.30876435 5.01872121 54.82012561 4.375 51.0625 C4.25511719 50.3722876 4.13523437 49.6820752 4.01171875 48.97094727 C2.91109247 42.26585502 2.33985663 35.51393053 1.77563477 28.74633789 C1.18655695 22.02046619 0.04799709 15.59536214 -1.51171875 9.03125 C-2.00587909 5.96350259 -1.88434134 3.95852374 -1 1 C-0.67 0.67 -0.34 0.34 0 0 Z " fill="#EE5C27" transform="translate(46,30)"/>
	

	<path d="M0 0 C64 0 64 0 69 4 C68.67 5.98 68.34 7.96 68 10 C62.86086549 12.09341741 58.55970614 12.20278611 53.125 12.0625 C46.73479169 11.98399315 40.38168589 12.01238736 34 12.375 C32.72125 12.44460938 31.4425 12.51421875 30.125 12.5859375 C26.84142839 12.78750135 26.84142839 12.78750135 24 15 C23.74984127 18.58357241 23.74984127 18.58357241 24 22 C23.34 22 22.68 22 22 22 C21.67 19.03 21.34 16.06 21 13 C30.4207457 8.57801733 39.71871983 8.735442 49.99023438 8.39453125 C50.98990234 8.35714844 51.98957031 8.31976563 53.01953125 8.28125 C53.92807861 8.25095703 54.83662598 8.22066406 55.77270508 8.18945312 C58.03811259 8.13502641 58.03811259 8.13502641 60 7 C52.97240323 5.32531592 46.39102844 4.72487727 39.1796875 4.8046875 C38.19501495 4.8075174 37.21034241 4.81034729 36.1958313 4.81326294 C33.08875739 4.82434805 29.98198496 4.84943009 26.875 4.875 C24.75260837 4.88504491 22.63021216 4.8941681 20.5078125 4.90234375 C15.33842769 4.92424901 10.16926474 4.95869672 5 5 C4.81895056 11.62467606 4.65421643 18.24964496 4.5 24.875 C4.47599121 25.90645142 4.45198242 26.93790283 4.42724609 28.00061035 C4.10760548 42.24908017 3.9583376 56.49069849 3.96875 70.7421875 C3.96925858 71.48991802 3.96976715 72.23764854 3.97029114 73.00803757 C3.97689781 80.4829249 3.99507796 87.95771777 4.02805328 95.43253517 C4.03975022 98.24353187 4.04784333 101.05453293 4.05543518 103.86554337 C4.0623387 105.81385272 4.07498495 107.76213905 4.08776855 109.7104187 C4.09103149 110.87815826 4.09429443 112.04589783 4.09765625 113.24902344 C4.10289307 114.26784607 4.10812988 115.2866687 4.11352539 116.33636475 C4.01128557 118.73520783 3.59404961 120.69226805 3 123 C3.38567131 125.68149993 3.38567131 125.68149993 4 128 C2.68 128 1.36 128 0 128 C0 85.76 0 43.52 0 0 Z " fill="#EABEA6" transform="translate(0,0)"/>
	

	<path d="M0 0 C0.66 0 1.32 0 2 0 C1.75 2.3125 1.75 2.3125 1 5 C-3 8 -3 8 -29 10 C-29.66 34.75 -30.32 59.5 -31 85 C-22.75 85.33 -14.5 85.66 -6 86 C-3.1800613 88.8199387 -3.71037162 90.92904159 -3.67773438 94.78320312 C-3.68256836 96.09708008 -3.68256836 96.09708008 -3.6875 97.4375 C-3.67138672 98.30955078 -3.65527344 99.18160156 -3.63867188 100.08007812 C-3.63802734 100.91861328 -3.63738281 101.75714844 -3.63671875 102.62109375 C-3.63373779 103.3886499 -3.63075684 104.15620605 -3.62768555 104.94702148 C-4.09798819 107.54031652 -4.9165365 108.42712569 -7 110 C-9.6953125 110.2578125 -9.6953125 110.2578125 -13.125 110.125 C-20.08537601 109.95083821 -26.98348823 110.17624544 -33.9375 110.5 C-37.18550611 110.63137502 -40.43368815 110.75535435 -43.68212891 110.87548828 C-45.90859771 110.9590423 -48.13484734 111.04863867 -50.36083984 111.14404297 C-53.61548132 111.27400013 -56.86871393 111.36097035 -60.125 111.4375 C-61.11363037 111.48390625 -62.10226074 111.5303125 -63.12084961 111.578125 C-68.09339111 111.65377262 -71.18525002 111.38372757 -75.08984375 108.140625 C-77.6147114 105.67774762 -79.15169795 103.48746399 -80 100 C-80 99.01 -80 98.02 -80 97 C-80.66 97 -81.32 97 -82 97 C-86.06938342 89.75893571 -88.34086535 82.78841673 -90.0625 74.6875 C-90.3114502 73.55320557 -90.56040039 72.41891113 -90.81689453 71.25024414 C-91.31929581 68.93858279 -91.81449023 66.62534265 -92.30224609 64.31054688 C-92.9407588 61.28107439 -93.60357312 58.25789897 -94.26953125 55.234375 C-96.58369123 44.3567385 -97.52427894 34.11180083 -97 23 C-96.67 23 -96.34 23 -96 23 C-95.90058105 23.91426758 -95.80116211 24.82853516 -95.69873047 25.77050781 C-94.47614775 36.30171766 -92.69534326 46.66384787 -90.65087891 57.06494141 C-90.12325053 59.75893251 -89.61007597 62.45542357 -89.09765625 65.15234375 C-86.89982793 81.47029854 -86.89982793 81.47029854 -79 95 C-75.92222876 98.69332548 -74.50736987 102.47789038 -73 107 C-65.22081888 108.00714643 -57.6064347 108.05939052 -49.7734375 107.87890625 C-48.54460846 107.85529526 -47.31577942 107.83168427 -46.04971313 107.80735779 C-42.15800694 107.73131125 -38.26653011 107.64703565 -34.375 107.5625 C-31.72266715 107.50922014 -29.0703234 107.45648024 -26.41796875 107.40429688 C-19.94516963 107.27577671 -13.47256318 107.13988045 -7 107 C-7 101.06 -7 95.12 -7 89 C-8.70929688 88.95101562 -10.41859375 88.90203125 -12.1796875 88.8515625 C-14.41147529 88.77654442 -16.6432453 88.70099619 -18.875 88.625 C-20.00292969 88.5940625 -21.13085938 88.563125 -22.29296875 88.53125 C-23.36933594 88.49257812 -24.44570312 88.45390625 -25.5546875 88.4140625 C-27.04718018 88.36693115 -27.04718018 88.36693115 -28.56982422 88.31884766 C-31 88 -31 88 -33 86 C-33.18943158 83.1531956 -33.25503939 80.4056455 -33.23046875 77.55859375 C-33.23055435 76.69541031 -33.23063995 75.83222687 -33.23072815 74.94288635 C-33.22742552 72.10760143 -33.20852 69.27270546 -33.1875 66.4375 C-33.17794898 64.49023492 -33.16850956 62.54296928 -33.15917969 60.59570312 C-33.13059723 55.6714198 -33.08410831 50.74748854 -33.02996826 45.82342529 C-33.00151656 43.14288076 -32.97884351 40.46234756 -32.95751953 37.78173828 C-32.923753 33.89959235 -32.86716634 30.01850422 -32.78945923 26.13699341 C-32.76324363 24.71723545 -32.7433223 23.29734673 -32.72982788 21.87741089 C-32.70883361 19.91797501 -32.65985367 17.95889807 -32.609375 16 C-32.58842773 14.906875 -32.56748047 13.81375 -32.54589844 12.6875 C-32 10 -32 10 -30.28979492 8.15966797 C-27.6222161 6.80867113 -25.7359651 6.56401453 -22.75390625 6.4453125 C-21.75166016 6.38730469 -20.74941406 6.32929687 -19.71679688 6.26953125 C-17.61817375 6.17337143 -15.51918895 6.08479783 -13.41992188 6.00390625 C-7.03185035 5.7964222 -7.03185035 5.7964222 -1.90234375 2.4296875 C-1.27457031 1.62789063 -0.64679688 0.82609375 0 0 Z " fill="#E8AE91" transform="translate(121,0)"/>
	

	<path d="M0 0 C15.44658636 -0.02335694 30.89317141 -0.04099293 46.33977127 -0.05181217 C53.51183919 -0.05696918 60.68389615 -0.06400056 67.85595703 -0.07543945 C74.10687955 -0.08540445 80.35779412 -0.09185776 86.60872436 -0.09408849 C89.91874922 -0.09539251 93.22874605 -0.09898255 96.53876495 -0.10573006 C100.23321392 -0.11296334 103.92761543 -0.11398996 107.62207031 -0.11352539 C108.72042709 -0.11712067 109.81878387 -0.12071594 110.95042419 -0.12442017 C112.46059868 -0.12235817 112.46059868 -0.12235817 114.00128174 -0.12025452 C114.87514149 -0.12117631 115.74900124 -0.1220981 116.64934158 -0.12304783 C118.90046539 -0.00521025 120.84152149 0.3700943 123 1 C122.67 2.32 122.34 3.64 122 5 C110.83342652 5.17314675 99.66676169 5.33947464 88.5 5.5 C87.67404957 5.51187725 86.84809914 5.5237545 85.9971199 5.53599167 C57.66305546 5.94118458 29.33730837 6.13845937 1 6 C-0.0625 4.125 -0.0625 4.125 -1 2 C-0.67 1.34 -0.34 0.68 0 0 Z " fill="#445A2D" transform="translate(5,119)"/>
	

	

	<path d="M0 0 C0 1.65 0 3.3 0 5 C-40.92 5 -81.84 5 -124 5 C-124 4.01 -124 3.02 -124 2 C-94.14741184 1.33944113 -64.29455842 0.83740537 -34.4375 0.4375 C-33.60941456 0.4263982 -32.78132912 0.4152964 -31.92815018 0.40385818 C-1.75746253 0 -1.75746253 0 0 0 Z " fill="#B0A139" transform="translate(128,123)"/>
	

	<path d="M0 0 C0 0.99 0 1.98 0 3 C-11.12498969 3.03074511 -22.24997459 3.05102789 -33.375 3.0625 C-34.61135759 3.06378403 -34.61135759 3.06378403 -35.87269211 3.06509399 C-64.92707341 3.09174006 -93.95462613 2.77702316 -123 2 C-122.67 3.98 -122.34 5.96 -122 8 C-122.99 8 -123.98 8 -125 8 C-125.625 5.625 -125.625 5.625 -126 3 C-122.03146283 -0.96853717 -114.75402944 -0.03788245 -109.3629303 -0.11352539 C-107.76155743 -0.11337975 -106.16017821 -0.10786671 -104.55883789 -0.09765625 C-103.67462158 -0.09619598 -102.79040527 -0.09473572 -101.87939453 -0.0932312 C-99.98011264 -0.08945622 -98.08083415 -0.08337319 -96.18156624 -0.07516479 C-93.1764925 -0.06230241 -90.17146331 -0.05586145 -87.16636658 -0.05102539 C-80.79839085 -0.0396563 -74.43045241 -0.0203832 -68.0625 0 C-60.65627246 0.02360706 -53.25006538 0.04396791 -45.84380913 0.05593872 C-42.88177073 0.06242529 -39.91979618 0.07492676 -36.95777893 0.08764648 C-35.15031998 0.09127733 -33.34286045 0.09462927 -31.53540039 0.09765625 C-30.71097946 0.10282257 -29.88655853 0.10798889 -29.03715515 0.11331177 C-19.15813649 0.11423375 -10.03486804 -1.86695219 0 0 Z " fill="#8F6E63" transform="translate(128,117)"/>
	

	<path d="M0 0 C0.33 0 0.66 0 1 0 C1.02335856 14.79466729 1.04099373 29.58933215 1.05181217 44.38401413 C1.05696884 51.25341152 1.06399957 58.12279746 1.07543945 64.9921875 C1.08646962 71.61870549 1.09228078 78.24521469 1.09487724 84.87174225 C1.09672815 87.40274493 1.10034237 89.93374694 1.10573006 92.46474457 C1.11296494 96.00352906 1.1139899 99.54226401 1.11352539 103.08105469 C1.11712067 104.13265778 1.12071594 105.18426086 1.12442017 106.26773071 C1.1230455 107.23244293 1.12167084 108.19715515 1.12025452 109.19110107 C1.12117631 110.0280891 1.1220981 110.86507713 1.12304783 111.72742844 C1 114 1 114 0.46514034 116.12868118 C-0.15659293 118.62999331 0.38275701 120.53102802 1 123 C-0.32 123 -1.64 123 -3 123 C-3.04682269 113.45353229 -3.08211809 103.90710552 -3.10362434 94.36054707 C-3.11395835 89.92529998 -3.12792163 85.49013277 -3.15087891 81.05493164 C-3.3300064 45.52369888 -3.3300064 45.52369888 -1.222229 28.05410767 C-0.63428076 22.61958305 -0.53375786 17.14810879 -0.375 11.6875 C-0.31699219 9.96950195 -0.31699219 9.96950195 -0.2578125 8.21679688 C-0.1661371 5.47799434 -0.08011336 2.73916054 0 0 Z " fill="#E7A07E" transform="translate(3,5)"/>
	

	<path d="M0 0 C1.55484611 0.0416075 3.10784976 0.15726186 4.65625 0.3046875 C6.06583984 0.43810547 6.06583984 0.43810547 7.50390625 0.57421875 C8.98697266 0.72310547 8.98697266 0.72310547 10.5 0.875 C11.98306641 1.01228516 11.98306641 1.01228516 13.49609375 1.15234375 C20.87057133 1.87057133 20.87057133 1.87057133 22 3 C22.07258946 5.18639453 22.08373783 7.37500389 22.0625 9.5625 C22.05347656 10.76003906 22.04445313 11.95757812 22.03515625 13.19140625 C22.02355469 14.11824219 22.01195313 15.04507813 22 16 C22.66 16 23.32 16 24 16 C24 30.85 24 45.7 24 61 C21.31432703 62.34283649 19.12253147 62.24287519 16.125 62.3125 C14.55105469 62.36857422 14.55105469 62.36857422 12.9453125 62.42578125 C10 62 10 62 7.71875 60.4140625 C5.50785811 57.30876435 5.01872121 54.82012561 4.375 51.0625 C4.25511719 50.3722876 4.13523437 49.6820752 4.01171875 48.97094727 C2.91109247 42.26585502 2.33985663 35.51393053 1.77563477 28.74633789 C1.18655695 22.02046619 0.04799709 15.59536214 -1.51171875 9.03125 C-2.00587909 5.96350259 -1.88434134 3.95852374 -1 1 C-0.67 0.67 -0.34 0.34 0 0 Z M-1 3 C-0.83511735 5.55224293 -0.83511735 5.55224293 -0.1875 8.375 C0.00457031 9.33148438 0.19664063 10.28796875 0.39453125 11.2734375 C0.73833695 12.82167218 1.09878064 14.36699391 1.51098633 15.8984375 C2.01580521 18.06792372 2.25237772 20.13206686 2.4296875 22.3515625 C2.5011499 23.19477051 2.5726123 24.03797852 2.64624023 24.90673828 C2.72173096 25.80376465 2.79722168 26.70079102 2.875 27.625 C3.52848773 34.8252923 4.31262057 41.98208935 5.4375 49.125 C5.54755371 49.87604004 5.65760742 50.62708008 5.77099609 51.40087891 C6.23935461 54.21952189 6.71253187 56.55740425 8.28125 58.97265625 C10.62827173 60.37553515 12.3431701 60.36456375 15.0625 60.3125 C15.94035156 60.30863281 16.81820312 60.30476563 17.72265625 60.30078125 C20.19662769 60.20899334 20.19662769 60.20899334 22 58 C22.18833216 55.39988051 22.25552318 52.90861901 22.23046875 50.30859375 C22.23001053 49.53048843 22.22955231 48.75238312 22.2290802 47.95069885 C22.22605194 46.29206837 22.2181486 44.63344087 22.20581055 42.97485352 C22.18794671 40.49940269 22.18529836 38.02433563 22.18554688 35.54882812 C22.16136121 25.0018965 21.73532421 14.52046702 21 4 C16.34253599 2.62467868 12.03507192 1.6337426 7.1875 1.25 C5.50720703 1.10304688 5.50720703 1.10304688 3.79296875 0.953125 C0.85786273 0.67870969 0.85786273 0.67870969 -1 3 Z " fill="#E38761" transform="translate(46,30)"/>
	

	<path d="M0 0 C0.74314453 0.03544922 1.48628906 0.07089844 2.25195312 0.10742188 C7.04127686 0.38865298 11.28579147 1.06117281 15.8125 2.6875 C19.16044505 9.3833901 17.94712124 19.07614987 17.91015625 26.3828125 C17.9087413 27.45626923 17.90732635 28.52972595 17.90586853 29.63571167 C17.90031925 33.0280041 17.88777647 36.42022788 17.875 39.8125 C17.86997844 42.12760321 17.86541668 44.44270746 17.86132812 46.7578125 C17.8503665 52.40106466 17.83367973 58.04427742 17.8125 63.6875 C16.3275 63.1925 16.3275 63.1925 14.8125 62.6875 C15.4725 62.6875 16.1325 62.6875 16.8125 62.6875 C16.8125 47.8375 16.8125 32.9875 16.8125 17.6875 C16.1525 17.6875 15.4925 17.6875 14.8125 17.6875 C14.3175 11.2525 14.3175 11.2525 13.8125 4.6875 C6.8825 4.0275 -0.0475 3.3675 -7.1875 2.6875 C-8.17287425 7.61437125 -7.99458843 9.4756776 -6.875 14.1875 C-4.88201109 23.14456157 -4.18084254 32.17257201 -3.40917969 41.30029297 C-3.08649994 44.77514163 -2.64449937 48.22793462 -2.1875 51.6875 C-2.6825 50.2025 -2.6825 50.2025 -3.1875 48.6875 C-3.8475 48.6875 -4.5075 48.6875 -5.1875 48.6875 C-5.90927557 43.62086583 -6.62092266 38.55294269 -7.32373047 33.48364258 C-7.56354988 31.76386377 -7.80600233 30.04444978 -8.05126953 28.32543945 C-10.66072408 10.01132886 -10.66072408 10.01132886 -10.1875 0.6875 C-6.96022619 -0.92613691 -3.51720461 -0.21703799 0 0 Z " fill="#E9B59A" transform="translate(53.1875,28.3125)"/>
	

	<path d="M0 0 C0.99 0 1.98 0 3 0 C2.75837994 3.26187086 1.79711127 4.20227204 -0.5703125 6.5625 C-4.01151498 9.33091311 -7.42283978 9.96582597 -11.75 10.3125 C-12.72839844 10.42174805 -12.72839844 10.42174805 -13.7265625 10.53320312 C-17.57956528 10.92674913 -21.39425574 11.02973926 -25.26660156 11.01635742 C-26.15623596 11.01399582 -27.04587036 11.01163422 -27.96246338 11.00920105 C-28.97104401 11.00464653 -28.97104401 11.00464653 -30 11 C-30.14487046 18.36079352 -30.28695701 25.72163728 -30.42724609 33.08251953 C-30.4751307 35.57862521 -30.52361715 38.07471943 -30.57275391 40.57080078 C-30.85076732 54.71544243 -31.08433751 68.85238326 -31 83 C-21.41785361 83.80406036 -21.41785361 83.80406036 -11.8125 83.875 C-8 84 -8 84 -6.32421875 85.2578125 C-3.15233925 89.4308457 -4.05656622 94.29348228 -4.4375 99.25 C-4.48970703 99.99507813 -4.54191406 100.74015625 -4.59570312 101.5078125 C-4.7248217 103.33894861 -4.86165114 105.16953813 -5 107 C-5.33 107 -5.66 107 -6 107 C-6.02505615 106.42967041 -6.0501123 105.85934082 -6.07592773 105.27172852 C-6.19156549 102.70173843 -6.31443624 100.13214473 -6.4375 97.5625 C-6.47681641 96.66466797 -6.51613281 95.76683594 -6.55664062 94.84179688 C-6.59853516 93.98779297 -6.64042969 93.13378906 -6.68359375 92.25390625 C-6.72025146 91.46314697 -6.75690918 90.6723877 -6.79467773 89.85766602 C-6.80563257 87.98598559 -6.80563257 87.98598559 -8 87 C-9.68253584 86.85465348 -11.37065758 86.77282378 -13.05859375 86.71875 C-14.08404297 86.68136719 -15.10949219 86.64398438 -16.16601562 86.60546875 C-17.24560547 86.57066406 -18.32519531 86.53585938 -19.4375 86.5 C-21.56133798 86.43128385 -23.68505147 86.35856667 -25.80859375 86.28125 C-26.75532959 86.25095703 -27.70206543 86.22066406 -28.67749023 86.18945312 C-31 86 -31 86 -33 85 C-33.11026022 66.11836185 -33.05422141 47.25144387 -32.5625 28.375 C-32.5330278 27.15606552 -32.5330278 27.15606552 -32.50296021 25.9125061 C-32.44624423 23.61596113 -32.38267411 21.31972447 -32.31640625 19.0234375 C-32.27974854 17.71294434 -32.24309082 16.40245117 -32.20532227 15.05224609 C-32 12 -32 12 -31 10 C-28.09581391 9.03193797 -25.8525655 8.76602265 -22.81640625 8.5703125 C-21.30143555 8.46009766 -21.30143555 8.46009766 -19.75585938 8.34765625 C-17.63136931 8.19952667 -15.50634476 8.05886873 -13.38085938 7.92578125 C-12.36958984 7.84972656 -11.35832031 7.77367187 -10.31640625 7.6953125 C-9.39287354 7.63359863 -8.46934082 7.57188477 -7.51782227 7.50830078 C-4.61719371 6.92271864 -3.15495053 6.00245011 -1 4 C-0.20376178 1.90584196 -0.20376178 1.90584196 0 0 Z " fill="#E27B53" transform="translate(123,0)"/>
	

	

	

	

	<path d="M0 0 C0.95455078 -0.00386719 1.90910156 -0.00773437 2.89257812 -0.01171875 C9.0897334 -0.00328151 15.15971274 0.3881091 21.3125 1.125 C21.3125 1.785 21.3125 2.445 21.3125 3.125 C20.72235107 3.11976318 20.13220215 3.11452637 19.52416992 3.10913086 C16.84945745 3.08833953 14.17476199 3.07533299 11.5 3.0625 C10.1068457 3.04993164 10.1068457 3.04993164 8.68554688 3.03710938 C7.79287109 3.03388672 6.90019531 3.03066406 5.98046875 3.02734375 C5.15828857 3.02210693 4.3361084 3.01687012 3.48901367 3.01147461 C1.13077404 3.03758476 1.13077404 3.03758476 -1.6875 4.125 C-3.72786096 4.18600033 -5.77033597 4.18339217 -7.8112793 4.14672852 C-9.07236008 4.12663223 -10.33344086 4.10653595 -11.63273621 4.08583069 C-13.00906594 4.05863438 -14.38539341 4.03132354 -15.76171875 4.00390625 C-17.16989881 3.97959998 -18.57808692 3.95575667 -19.98628235 3.93235779 C-23.69024853 3.86956724 -27.39407176 3.80048645 -31.09790039 3.73010254 C-34.87835182 3.6593736 -38.6589045 3.59458394 -42.43945312 3.52929688 C-49.85558074 3.40034939 -57.27156739 3.2647576 -64.6875 3.125 C-64.6875 2.795 -64.6875 2.465 -64.6875 2.125 C-63.54385986 2.09994385 -62.40021973 2.0748877 -61.22192383 2.04907227 C-56.91845304 1.95384062 -52.61510103 1.85391831 -48.31176758 1.75268555 C-46.46055916 1.70976876 -44.60932203 1.6680702 -42.75805664 1.62768555 C-33.33761598 1.42139853 -23.97395035 1.14430411 -14.58227539 0.33666992 C-9.72188 -0.01872881 -4.87111794 -0.01997724 0 0 Z " fill="#E27F58" transform="translate(106.6875,113.875)"/>
	

	

	

	

	

	

	

	

	

	

	

	

	

	

	

</svg>
