<?xml version="1.0" encoding="iso-8859-1"?>
<svg height="128" version="1.1" width="128" xmlns="http://www.w3.org/2000/svg">
	

	

	<path d="M0 0 C0.82290527 0.00789551 1.64581055 0.01579102 2.49365234 0.02392578 C8.4780634 0.10456598 14.45877105 0.29217719 20.4375 0.5625 C21.19377686 0.5931958 21.95005371 0.6238916 22.72924805 0.65551758 C27.96233016 0.93397727 33.35723291 1.39268894 38.3125 3.1875 C43.31775083 8.98305359 43.96999845 16.8406234 45.3125 24.1875 C45.48604004 24.92331299 45.65958008 25.65912598 45.83837891 26.41723633 C47.86456388 35.67838858 47.53316287 44.95040197 47.4375 54.375 C47.42744761 56.10741669 47.41832576 57.83983904 47.41015625 59.57226562 C47.38832749 63.77748586 47.35392299 67.982429 47.3125 72.1875 C50.6125 72.8475 53.9125 73.5075 57.3125 74.1875 C57.6425 75.5075 57.9725 76.8275 58.3125 78.1875 C56.6247094 79.8752906 54.55963215 79.39937677 52.25 79.4375 C46.92291493 79.40968232 43.13986925 78.37347853 38.3125 76.1875 C39.3125 68.1875 39.3125 68.1875 39.83203125 64.53515625 C41.3606186 52.1945046 40.9452244 39.66251964 38.1015625 27.5703125 C37.10643996 23.30409409 36.51375808 19.01572492 35.9375 14.67578125 C35.19650484 11.72569427 34.45799804 10.35293657 32.3125 8.1875 C29.30609359 7.54174204 29.30609359 7.54174204 25.84375 7.578125 C23.90242188 7.52978516 23.90242188 7.52978516 21.921875 7.48046875 C20.55208722 7.46577846 19.18229544 7.45145763 17.8125 7.4375 C16.47392003 7.40931596 15.13537563 7.37938513 13.796875 7.34765625 C6.30243091 7.19213913 -1.19164108 7.15210507 -8.6875 7.1875 C-5.83474464 13.14001572 -3.23652851 16.98674479 2.2578125 20.71875 C5.66017327 23.1508558 8.42412763 26.18153486 11.3125 29.1875 C12.075625 29.909375 12.83875 30.63125 13.625 31.375 C16.40040749 34.35599323 17.25887032 36.27579549 17.5 40.375 C17.3125 43.1875 17.3125 43.1875 16.3125 44.1875 C16.1475 45.445625 15.9825 46.70375 15.8125 48 C14.14784006 55.86930153 8.49889217 62.7937427 2.171875 67.546875 C-0.6875 69.1875 -0.6875 69.1875 -3.1875 69.125 C-12.40570646 65.66817258 -18.11492197 61.04832205 -22.55859375 52.29296875 C-23.7151985 49.97376 -23.7151985 49.97376 -25.9375 47.4375 C-27.96677142 44.82843674 -28.3139813 43.45233009 -28.6875 40.1875 C-28.26953125 37.03125 -28.26953125 37.03125 -27.5 33.6875 C-27.25894531 32.5840625 -27.01789062 31.480625 -26.76953125 30.34375 C-25.30518494 26.07229939 -23.33301316 23.1214399 -19.375 20.875 C-16.07786267 20.03154627 -13.07642043 20.05460116 -9.6875 20.1875 C-10.66820608 16.10122469 -11.43457283 13.54882453 -13.875 10.0625 C-15.6875 7.1875 -15.6875 7.1875 -15.4375 4.3125 C-15.19 3.61125 -14.9425 2.91 -14.6875 2.1875 C-9.62927037 0.15294977 -5.35289599 -0.08938045 0 0 Z " fill="#6FA5C0" transform="translate(41.6875,21.8125)"/>
	

	<path d="M0 0 C6.98028057 1.18813286 11.13794874 4.99187853 16 10 C17.4783226 12.95664519 17.06032783 15.74229737 17 19 C15.35 19.66 13.7 20.32 12 21 C12 22.32 12 23.64 12 25 C12.94875 25.268125 13.8975 25.53625 14.875 25.8125 C18 27 18 27 20 30 C20 30.99 20 31.98 20 33 C19.38511719 33.31453125 18.77023438 33.6290625 18.13671875 33.953125 C17.32847656 34.38109375 16.52023438 34.8090625 15.6875 35.25 C14.88699219 35.66765625 14.08648437 36.0853125 13.26171875 36.515625 C10.86809796 38.08656783 9.56698409 39.6267037 8 42 C4.59742084 40.54175179 2.52861132 38.68186049 0 36 C-0.78375 35.29875 -1.5675 34.5975 -2.375 33.875 C-10.91776869 24.51863429 -10.91776869 24.51863429 -11.07421875 17.82421875 C-10.28512006 12.20446374 -9.48195791 8.7263788 -5 5 C-2.75 4.25 -2.75 4.25 -1 4 C-0.67 2.68 -0.34 1.36 0 0 Z " fill="#060506" transform="translate(32,43)"/>
	

	

	<path d="M0 0 C1.93480225 0.15130371 1.93480225 0.15130371 3.90869141 0.30566406 C5.12862793 0.42522461 6.34856445 0.54478516 7.60546875 0.66796875 C8.7039917 0.76746826 9.80251465 0.86696777 10.93432617 0.96948242 C14.6597509 2.06065992 15.75245275 3.58060677 17.8125 6.8125 C18.69384766 8.76269531 18.69384766 8.76269531 19.2265625 10.640625 C19.53074097 11.70313477 19.53074097 11.70313477 19.84106445 12.78710938 C20.03788818 13.53798828 20.23471191 14.28886719 20.4375 15.0625 C20.64914795 15.85462891 20.8607959 16.64675781 21.07885742 17.46289062 C25.13732041 33.34973059 26.47480114 50.58311226 23.8125 66.8125 C23.4825 66.8125 23.1525 66.8125 22.8125 66.8125 C22.782771 65.49028442 22.782771 65.49028442 22.75244141 64.14135742 C22.67355858 60.81803707 22.58684786 57.49510052 22.49511719 54.17211914 C22.45723019 52.74381152 22.42231351 51.31542147 22.390625 49.88696289 C22.19947479 41.37181857 21.7122459 33.14989775 19.8125 24.8125 C19.64572754 24.06540771 19.47895508 23.31831543 19.30712891 22.54858398 C18.8334609 20.50451718 18.32994007 18.47087777 17.8125 16.4375 C17.6475 15.76589844 17.4825 15.09429687 17.3125 14.40234375 C16.3909105 10.73758552 15.25051703 7.3019382 13.8125 3.8125 C-5.60023466 2.19571535 -5.60023466 2.19571535 -25.0625 1.5625 C-25.80862549 1.55347656 -26.55475098 1.54445313 -27.32348633 1.53515625 C-31.64517845 1.55920183 -35.17020261 2.2257305 -39.1875 3.8125 C-38.84577109 7.48608582 -38.50761951 9.42447635 -36.125 12.3125 C-33.75586786 15.36944469 -33.83652733 17.03954375 -34.1875 20.8125 C-34.85136719 20.89886719 -35.51523437 20.98523438 -36.19921875 21.07421875 C-40.32587934 21.73086985 -43.54261958 22.41459506 -47.125 24.625 C-50.31406233 29.55355087 -51.67634101 34.97968582 -52.1875 40.8125 C-51.21552021 44.84646795 -49.67886652 47.92847326 -47.3125 51.3125 C-45.53208944 53.86942697 -43.84767292 56.38253253 -42.25 59.0625 C-38.7756894 63.69491413 -33.84599609 67.32342208 -28.1875 68.8125 C-24.85534628 68.72919616 -23.4700454 68.04159086 -20.875 65.9375 C-12.30829717 56.61288181 -12.30829717 56.61288181 -9.1875 44.8125 C-8.8575 44.4825 -8.5275 44.1525 -8.1875 43.8125 C-7.7313285 38.90865638 -8.49800926 35.9307827 -11.1875 31.8125 C-13.7145431 29.30253152 -16.42991497 27.06317602 -19.1875 24.8125 C-20.43982971 23.73186065 -21.68998717 22.64869651 -22.9375 21.5625 C-24.73596994 20.01336339 -26.48455189 18.60621397 -28.4375 17.25 C-30.7106977 15.38273046 -31.87790439 13.43169122 -33.1875 10.8125 C-33.1875 9.8225 -33.1875 8.8325 -33.1875 7.8125 C-23.62099441 6.78638966 -14.11315206 6.71469621 -4.5 6.9375 C-2.78031006 6.9518811 -2.78031006 6.9518811 -1.02587891 6.96655273 C7.09409556 7.22282699 7.09409556 7.22282699 10.515625 10.03125 C11.83771543 12.86657647 12.49735249 15.08818593 12.875 18.1875 C13.49660351 22.796326 14.36943016 27.22436454 15.4375 31.75 C17.91558263 43.96430574 18.16818604 57.49714151 15.25 69.65625 C14.75717443 72.08517604 14.74286869 74.34058848 14.8125 76.8125 C17.1225 77.4725 19.4325 78.1325 21.8125 78.8125 C21.8125 79.1425 21.8125 79.4725 21.8125 79.8125 C17.26444365 79.99085515 13.9330746 79.81035435 9.8125 77.8125 C10.01746094 77.23242188 10.22242187 76.65234375 10.43359375 76.0546875 C10.70300781 75.27351563 10.97242187 74.49234375 11.25 73.6875 C11.51683594 72.92179687 11.78367187 72.15609375 12.05859375 71.3671875 C16.57441395 56.06487449 14.4080331 38.09794368 10.8125 22.8125 C10.45262902 20.87605141 10.09768188 18.93867418 9.75 17 C9.1740867 13.81327975 8.6911938 12.6305407 6.8125 9.8125 C3.91093676 9.47482958 1.2125311 9.32341656 -1.6953125 9.30078125 C-2.53593231 9.28283005 -3.37655212 9.26487885 -4.24264526 9.24638367 C-6.93254551 9.19211969 -9.62226676 9.15833414 -12.3125 9.125 C-14.13413959 9.09184105 -15.9557555 9.05735273 -17.77734375 9.02148438 C-22.24726695 8.93638428 -26.71713559 8.86965044 -31.1875 8.8125 C-30.58550781 9.92496094 -29.98351562 11.03742187 -29.36328125 12.18359375 C-29.02466064 12.80935303 -28.68604004 13.4351123 -28.3371582 14.07983398 C-26.51803303 16.82146307 -23.96904145 18.12175912 -21.1875 19.8125 C-16.22718218 23.61951593 -12.04202602 27.89827045 -8.1875 32.8125 C-7.548125 33.616875 -6.90875 34.42125 -6.25 35.25 C-4.70906245 38.96637881 -5.3392148 42.01509829 -6.1875 45.8125 C-6.3525 46.62332031 -6.5175 47.43414062 -6.6875 48.26953125 C-8.33292108 54.96433826 -11.33597366 59.01452252 -16.1875 63.8125 C-17.074375 64.740625 -17.96125 65.66875 -18.875 66.625 C-23.14344714 70.66272026 -23.14344714 70.66272026 -25.1875 71.8125 C-32.34147368 70.99214551 -38.90400006 66.62362493 -43.625 61.3125 C-45.96007115 58.33999996 -47.52475737 55.20726621 -49.1875 51.8125 C-50.25628914 50.44682499 -51.34072244 49.09330096 -52.4375 47.75 C-55.19575971 44.16766763 -55.19575971 44.16766763 -55.125 41.125 C-54.815625 40.361875 -54.50625 39.59875 -54.1875 38.8125 C-53.63930309 36.14004008 -53.15112469 33.5214975 -52.8125 30.8125 C-52.08970048 27.34306231 -51.4817735 25.53694978 -49.1875 22.8125 C-45.06547836 20.48164146 -40.79970816 18.86311689 -36.1875 17.8125 C-37.36725733 15.25635911 -38.64966013 13.17363159 -40.3125 10.875 C-42.1875 7.8125 -42.1875 7.8125 -42.75 5.125 C-42.1875 2.8125 -42.1875 2.8125 -40.125 1.0625 C-28.21200895 -4.00685789 -12.50418733 -1.12234806 0 0 Z " fill="#1A3444" transform="translate(66.1875,21.1875)"/>
	

	

	

	

	

	

	

	

	

	

</svg>
