<?xml version="1.0" encoding="iso-8859-1"?>
<svg height="128" version="1.1" width="128" xmlns="http://www.w3.org/2000/svg">
	

	<path d="M0 0 C42.24 0 84.48 0 128 0 C128 42.24 128 84.48 128 128 C85.76 128 43.52 128 0 128 C0 85.76 0 43.52 0 0 Z " fill="#A45042" transform="translate(0,0)"/>
	

	<path d="M0 0 C40.26 0 80.52 0 122 0 C122 1.65 122 3.3 122 5 C119.17290056 7.82709944 116.29397824 7.41712326 112.5 7.5625 C107.60045716 7.60173595 107.60045716 7.60173595 103 9 C99.88730709 9.31432523 96.77382422 9.51089874 93.65234375 9.71875 C91.07994595 9.71051998 91.07994595 9.71051998 90 11 C89.87083447 13.07354287 89.81143704 15.15145402 89.77880859 17.22875977 C89.7673027 17.87929825 89.75579681 18.52983673 89.74394226 19.2000885 C89.70708808 21.36381225 89.67752693 23.52756512 89.6484375 25.69140625 C89.62532038 27.19539296 89.60193003 28.69937549 89.57827759 30.20335388 C89.52972639 33.36510479 89.4848256 36.52688209 89.44238281 39.6887207 C89.38787305 43.7247688 89.32397417 47.7606023 89.25720787 51.79646397 C89.20687187 54.90810306 89.16185506 58.01980246 89.11836624 61.13154411 C89.09691442 62.61818898 89.07378595 64.1048107 89.0489006 65.59140205 C88.86942297 76.33326791 88.86942297 76.33326791 90 87 C91.1281311 87.03758423 91.1281311 87.03758423 92.27905273 87.07592773 C95.66539196 87.19150514 99.05142613 87.31440345 102.4375 87.4375 C103.62150391 87.47681641 104.80550781 87.51613281 106.02539062 87.55664062 C107.15009766 87.59853516 108.27480469 87.64042969 109.43359375 87.68359375 C110.47572021 87.72025146 111.51784668 87.75690918 112.59155273 87.79467773 C115 88 115 88 116 89 C116.15354338 91.80511953 116.23165776 94.56863671 116.25 97.375 C116.270625 98.15617187 116.29125 98.93734375 116.3125 99.7421875 C116.35171981 105.46827928 116.35171981 105.46827928 114.86987305 107.70849609 C112.16996897 109.5732947 110.02314981 109.49486693 106.75390625 109.640625 C106.10643936 109.67230774 105.45897247 109.70399048 104.79188538 109.7366333 C102.52831946 109.84098504 100.26459355 109.92117192 98 110 C96.21728447 110.07094638 94.43456966 110.14191076 92.65185547 110.21289062 C87.75925352 110.39782079 82.86636211 110.54109546 77.97192383 110.66748047 C75.93266756 110.72293695 73.89358653 110.78521875 71.85473633 110.85400391 C68.87082389 110.95434744 65.88698203 111.03413294 62.90234375 111.109375 C61.99604721 111.14359558 61.08975067 111.17781616 60.1559906 111.21307373 C54.98342884 111.31639352 51.46455031 110.93581573 47 108 C45.1015625 105.58984375 45.1015625 105.58984375 43.625 102.9375 C43.12226562 102.05964844 42.61953125 101.18179688 42.1015625 100.27734375 C41 98 41 98 41 96 C40.34 96 39.68 96 39 96 C36.26851678 90.51051431 34.487379 85.37200638 33.4296875 79.33203125 C33.00227645 76.7926938 33.00227645 76.7926938 32 73.5625 C30.88386269 69.58626084 30.20812898 65.62631417 29.5625 61.55078125 C29.01237781 59.05612994 28.14506291 57.26328841 27 55 C26.61716427 53.36497239 26.28557223 51.7172891 26 50.0625 C25.32902358 46.46648575 24.38905735 43.38582729 23 40 C22.44020499 37.67092588 21.94219095 35.33556708 21.46484375 32.98828125 C21.06735276 30.94149564 21.06735276 30.94149564 20 29 C19.76970044 26.62876754 19.58880058 24.25258057 19.4375 21.875 C19.31181641 19.95300781 19.31181641 19.95300781 19.18359375 17.9921875 C19.12300781 17.00476563 19.06242187 16.01734375 19 15 C25.24830159 10.64512313 32.21133247 10.84702598 39.55859375 10.68359375 C40.34774673 10.66281265 41.13689972 10.64203156 41.94996643 10.62062073 C44.44573109 10.55576695 46.94159178 10.49654195 49.4375 10.4375 C51.13998348 10.39425358 52.84245762 10.35063744 54.54492188 10.30664062 C58.69651873 10.20015237 62.84821118 10.09870853 67 10 C67 9.01 67 8.02 67 7 C63.87619227 5.95873076 61.61482146 5.84447668 58.33520508 5.79467773 C57.17422806 5.77473251 56.01325104 5.75478729 54.8170929 5.73423767 C52.93729988 5.70916893 52.93729988 5.70916893 51.01953125 5.68359375 C49.73640549 5.66281265 48.45327972 5.64203156 47.13127136 5.62062073 C43.72337185 5.56548094 40.31541259 5.51603611 36.90740967 5.46777344 C33.42845352 5.41749921 29.94958393 5.36184409 26.47070312 5.30664062 C19.64721049 5.19915811 12.82363964 5.09769123 6 5 C5.15389821 7.93999122 4.87794945 10.54131728 4.88647461 13.59648132 C4.8865451 14.51453049 4.8866156 15.43257965 4.88668823 16.37844849 C4.89185455 17.37850922 4.89702087 18.37856995 4.90234375 19.40893555 C4.90380402 20.46795578 4.90526428 21.52697601 4.9067688 22.61808777 C4.91057485 24.91852471 4.91669148 27.21895871 4.92483521 29.51938438 C4.93759593 33.16411804 4.94411426 36.8088153 4.94897461 40.4535675 C4.96235015 49.51018138 4.98650034 58.56676086 5.01037598 67.62335205 C5.03013688 75.26951212 5.04576856 82.91565913 5.05593872 90.56183815 C5.06240246 94.14514632 5.07491343 97.72840072 5.08764648 101.31169128 C5.09128139 103.52249098 5.09463283 105.73329118 5.09765625 107.9440918 C5.10282257 108.93403137 5.10798889 109.92397095 5.11331177 110.94390869 C5.11374795 116.71143815 4.74181112 122.27903839 4 128 C2.68 128 1.36 128 0 128 C0 85.76 0 43.52 0 0 Z " fill="#F9F7F6" transform="translate(0,0)"/>
	

	<path d="M0 0 C0 6.93 0 13.86 0 21 C-40.92 21 -81.84 21 -124 21 C-124 5 -124 5 -123 3 C-120.23572755 2.07857585 -118.59363983 1.87362364 -115.74389648 1.87060547 C-114.88968613 1.86745331 -114.03547577 1.86430115 -113.15538025 1.86105347 C-112.2365657 1.8630777 -111.31775116 1.86510193 -110.37109375 1.8671875 C-109.42565201 1.86623077 -108.48021027 1.86527405 -107.50611877 1.86428833 C-105.50806614 1.86360791 -103.51001128 1.86545259 -101.51196289 1.86962891 C-98.44607609 1.87498502 -95.3803354 1.86967619 -92.31445312 1.86328125 C-90.37499968 1.86394194 -88.43554632 1.86522291 -86.49609375 1.8671875 C-85.57525497 1.86516327 -84.6544162 1.86313904 -83.70567322 1.86105347 C-82.42908592 1.86578171 -82.42908592 1.86578171 -81.12670898 1.87060547 C-80.37630844 1.87140106 -79.6259079 1.87219666 -78.85276794 1.87301636 C-77 2 -77 2 -75 3 C-73.13838729 3.11147278 -71.27282172 3.15925277 -69.40795898 3.17700195 C-67.64989174 3.19625481 -67.64989174 3.19625481 -65.85630798 3.21589661 C-64.58243729 3.22328354 -63.30856659 3.23067047 -61.99609375 3.23828125 C-60.03471214 3.25038887 -60.03471214 3.25038887 -58.03370667 3.26274109 C-55.25871917 3.27777556 -52.48375731 3.28760744 -49.70874023 3.29516602 C-46.17375394 3.30618032 -42.63940589 3.34051758 -39.10464382 3.38033772 C-35.71432094 3.41297364 -32.32406148 3.41729888 -28.93359375 3.42578125 C-27.67389267 3.44328934 -26.41419159 3.46079742 -25.11631775 3.47883606 C-18.62000239 3.4629201 -13.72319187 3.1134028 -8.06483459 -0.23762512 C-6 -1 -6 -1 0 0 Z " fill="#D34E41" transform="translate(128,107)"/>
	

	<path d="M0 0 C25.74 0 51.48 0 78 0 C77.03796142 3.84815433 76.33913336 5.03109996 74 8 C73.5875 8.886875 73.175 9.77375 72.75 10.6875 C71 13 71 13 68.15234375 13.61328125 C62.72931178 14.22569421 57.26321097 14.32427559 51.8125 14.5 C37.26214958 14.61372106 37.26214958 14.61372106 23 17 C25.24551234 26.35862597 27.7280897 35.62237883 30.375 44.875 C33.22732673 54.86426771 35.69079691 64.90072733 37.87060547 75.05810547 C39.8339746 83.99093596 42.2537604 92.79531122 47.125 100.625 C47.62257812 101.44226563 48.12015625 102.25953125 48.6328125 103.1015625 C49.86903803 105.12804125 49.86903803 105.12804125 52 106 C53.97106545 106.0913666 55.94527916 106.11751968 57.91845703 106.11352539 C59.15959259 106.11344986 60.40072815 106.11337433 61.67947388 106.11329651 C63.03892049 106.1081895 64.39836669 106.1029735 65.7578125 106.09765625 C67.14500884 106.09579142 68.53220584 106.09436782 69.91940308 106.09336853 C73.57234512 106.08954848 77.22524748 106.07972255 80.87817383 106.06866455 C84.60497501 106.05843944 88.33178259 106.05386855 92.05859375 106.04882812 C99.37241394 106.03809983 106.68620141 106.02102954 114 106 C113.83701416 105.39768555 113.67402832 104.79537109 113.50610352 104.17480469 C112.87981852 101.48356169 112.9046408 99.01017307 112.9375 96.25 C112.94652344 95.26515625 112.95554687 94.2803125 112.96484375 93.265625 C112.97644531 92.51796875 112.98804687 91.7703125 113 91 C111.2984375 91.2784375 111.2984375 91.2784375 109.5625 91.5625 C104.66978498 92.12009674 99.90110367 91.91137158 95 91.625 C94.23373291 91.58189697 93.46746582 91.53879395 92.67797852 91.49438477 C87.13061289 91.13061289 87.13061289 91.13061289 86 90 C85.89965754 87.52100355 85.86382059 85.06985058 85.87060547 82.59033203 C85.86797699 81.42691284 85.86797699 81.42691284 85.86529541 80.23999023 C85.86087544 77.66257524 85.86381595 75.08522826 85.8671875 72.5078125 C85.86651436 70.7228087 85.86554426 68.937805 85.86428833 67.15280151 C85.86281105 63.40508149 85.86496637 59.65738524 85.86962891 55.90966797 C85.87531798 51.1019914 85.87205259 46.29437075 85.86605644 41.48669624 C85.86244462 37.79787779 85.86359243 34.10907261 85.86618423 30.42025375 C85.86685221 28.64760201 85.86602959 26.87494908 85.86370468 25.10229874 C85.86116891 22.62431901 85.86503224 20.14643 85.87060547 17.66845703 C85.86858124 16.93275482 85.86655701 16.19705261 85.86447144 15.4390564 C85.87736472 12.3489976 86.01477183 9.9556845 87 7 C90.59946651 5.10636588 93.86260629 4.68902021 97.88671875 4.47265625 C98.98951172 4.40240234 100.09230469 4.33214844 101.22851562 4.25976562 C103.5459684 4.12760146 105.86368809 4.00004172 108.18164062 3.87695312 C109.28056641 3.80541016 110.37949219 3.73386719 111.51171875 3.66015625 C112.51678467 3.60480713 113.52185059 3.54945801 114.55737305 3.49243164 C117.35870962 3.22678946 117.35870962 3.22678946 119 0 C119.99 0 120.98 0 122 0 C122.125 2.375 122.125 2.375 122 5 C119.17290056 7.82709944 116.29397824 7.41712326 112.5 7.5625 C107.60045716 7.60173595 107.60045716 7.60173595 103 9 C99.88730709 9.31432523 96.77382422 9.51089874 93.65234375 9.71875 C91.07994595 9.71051998 91.07994595 9.71051998 90 11 C89.87083447 13.07354287 89.81143704 15.15145402 89.77880859 17.22875977 C89.7673027 17.87929825 89.75579681 18.52983673 89.74394226 19.2000885 C89.70708808 21.36381225 89.67752693 23.52756512 89.6484375 25.69140625 C89.62532038 27.19539296 89.60193003 28.69937549 89.57827759 30.20335388 C89.52972639 33.36510479 89.4848256 36.52688209 89.44238281 39.6887207 C89.38787305 43.7247688 89.32397417 47.7606023 89.25720787 51.79646397 C89.20687187 54.90810306 89.16185506 58.01980246 89.11836624 61.13154411 C89.09691442 62.61818898 89.07378595 64.1048107 89.0489006 65.59140205 C88.86942297 76.33326791 88.86942297 76.33326791 90 87 C91.1281311 87.03758423 91.1281311 87.03758423 92.27905273 87.07592773 C95.66539196 87.19150514 99.05142613 87.31440345 102.4375 87.4375 C103.62150391 87.47681641 104.80550781 87.51613281 106.02539062 87.55664062 C107.15009766 87.59853516 108.27480469 87.64042969 109.43359375 87.68359375 C110.47572021 87.72025146 111.51784668 87.75690918 112.59155273 87.79467773 C115 88 115 88 116 89 C116.15354338 91.80511953 116.23165776 94.56863671 116.25 97.375 C116.270625 98.15617187 116.29125 98.93734375 116.3125 99.7421875 C116.35171981 105.46827928 116.35171981 105.46827928 114.86987305 107.70849609 C112.16996897 109.5732947 110.02314981 109.49486693 106.75390625 109.640625 C106.10643936 109.67230774 105.45897247 109.70399048 104.79188538 109.7366333 C102.52831946 109.84098504 100.26459355 109.92117192 98 110 C96.21728447 110.07094638 94.43456966 110.14191076 92.65185547 110.21289062 C87.75925352 110.39782079 82.86636211 110.54109546 77.97192383 110.66748047 C75.93266756 110.72293695 73.89358653 110.78521875 71.85473633 110.85400391 C68.87082389 110.95434744 65.88698203 111.03413294 62.90234375 111.109375 C61.99604721 111.14359558 61.08975067 111.17781616 60.1559906 111.21307373 C54.98342884 111.31639352 51.46455031 110.93581573 47 108 C45.1015625 105.58984375 45.1015625 105.58984375 43.625 102.9375 C43.12226562 102.05964844 42.61953125 101.18179688 42.1015625 100.27734375 C41 98 41 98 41 96 C40.34 96 39.68 96 39 96 C36.26851678 90.51051431 34.487379 85.37200638 33.4296875 79.33203125 C33.00227645 76.7926938 33.00227645 76.7926938 32 73.5625 C30.88386269 69.58626084 30.20812898 65.62631417 29.5625 61.55078125 C29.01237781 59.05612994 28.14506291 57.26328841 27 55 C26.61716427 53.36497239 26.28557223 51.7172891 26 50.0625 C25.32902358 46.46648575 24.38905735 43.38582729 23 40 C22.44020499 37.67092588 21.94219095 35.33556708 21.46484375 32.98828125 C21.06735276 30.94149564 21.06735276 30.94149564 20 29 C19.76970044 26.62876754 19.58880058 24.25258057 19.4375 21.875 C19.31181641 19.95300781 19.31181641 19.95300781 19.18359375 17.9921875 C19.12300781 17.00476563 19.06242187 16.01734375 19 15 C25.24830159 10.64512313 32.21133247 10.84702598 39.55859375 10.68359375 C40.34774673 10.66281265 41.13689972 10.64203156 41.94996643 10.62062073 C44.44573109 10.55576695 46.94159178 10.49654195 49.4375 10.4375 C51.13998348 10.39425358 52.84245762 10.35063744 54.54492188 10.30664062 C58.69651873 10.20015237 62.84821118 10.09870853 67 10 C67 9.01 67 8.02 67 7 C63.87619227 5.95873076 61.61482146 5.84447668 58.33520508 5.79467773 C57.17422806 5.77473251 56.01325104 5.75478729 54.8170929 5.73423767 C52.93729988 5.70916893 52.93729988 5.70916893 51.01953125 5.68359375 C49.73640549 5.66281265 48.45327972 5.64203156 47.13127136 5.62062073 C43.72337185 5.56548094 40.31541259 5.51603611 36.90740967 5.46777344 C33.42845352 5.41749921 29.94958393 5.36184409 26.47070312 5.30664062 C19.64721049 5.19915811 12.82363964 5.09769123 6 5 C5.15389821 7.93999122 4.87794945 10.54131728 4.88647461 13.59648132 C4.8865451 14.51453049 4.8866156 15.43257965 4.88668823 16.37844849 C4.89185455 17.37850922 4.89702087 18.37856995 4.90234375 19.40893555 C4.90380402 20.46795578 4.90526428 21.52697601 4.9067688 22.61808777 C4.91057485 24.91852471 4.91669148 27.21895871 4.92483521 29.51938438 C4.93759593 33.16411804 4.94411426 36.8088153 4.94897461 40.4535675 C4.96235015 49.51018138 4.98650034 58.56676086 5.01037598 67.62335205 C5.03013688 75.26951212 5.04576856 82.91565913 5.05593872 90.56183815 C5.06240246 94.14514632 5.07491343 97.72840072 5.08764648 101.31169128 C5.09128139 103.52249098 5.09463283 105.73329118 5.09765625 107.9440918 C5.10282257 108.93403137 5.10798889 109.92397095 5.11331177 110.94390869 C5.11374795 116.71143815 4.74181112 122.27903839 4 128 C2.68 128 1.36 128 0 128 C0 85.76 0 43.52 0 0 Z " fill="#CEAEA3" transform="translate(0,0)"/>
	

	<path d="M0 0 C2.58084942 0.09256267 5.16029081 0.19866963 7.73999023 0.31933594 C8.62235352 0.34640625 9.5047168 0.37347656 10.41381836 0.40136719 C11.28586914 0.44132812 12.15791992 0.48128906 13.05639648 0.52246094 C13.84602783 0.55500977 14.63565918 0.58755859 15.44921875 0.62109375 C19.26809598 1.24851734 22.58312646 2.63759972 26.17749023 4.06933594 C26.33121691 11.727328 26.47939849 19.38541019 26.62045383 27.04364586 C26.68612308 30.5994696 26.75371943 34.15523515 26.82568359 37.7109375 C26.90828699 41.79645541 26.98257358 45.88208737 27.05639648 49.96777344 C27.08343155 51.24800385 27.11046661 52.52823425 27.13832092 53.84725952 C27.15841721 55.02833282 27.17851349 56.20940613 27.19921875 57.42626953 C27.21920425 58.46995697 27.23918976 59.51364441 27.25978088 60.58895874 C27.17749023 63.06933594 27.17749023 63.06933594 26.17749023 65.06933594 C24.09530661 65.17765763 22.01149894 65.25507135 19.92749023 65.31933594 C18.76733398 65.36574219 17.60717773 65.41214844 16.41186523 65.45996094 C13.17749023 65.06933594 13.17749023 65.06933594 10.94311523 63.67871094 C5.55875734 55.72129706 4.8817654 44.91547548 3.17749023 35.63183594 C1.67250757 27.45535132 0.14877844 19.35389522 -2.24731445 11.38012695 C-3.12976797 7.83495611 -3.09174991 4.70407786 -2.82250977 1.06933594 C-1.82250977 0.06933594 -1.82250977 0.06933594 0 0 Z " fill="#A55345" transform="translate(44.822509765625,27.9306640625)"/>
	

	<path d="M0 0 C1.76144891 0.01804807 3.52284438 0.04177882 5.28416443 0.06970215 C6.2437204 0.08091599 7.20327637 0.09212982 8.19190979 0.10368347 C10.28614587 0.12877345 12.3803551 0.15618413 14.47453499 0.18559265 C17.80165652 0.23208667 21.12879952 0.27219094 24.45602417 0.31054688 C32.73509489 0.40723239 41.01402797 0.51403699 49.29295349 0.62237549 C56.26310744 0.71341433 63.23328743 0.79963958 70.20358086 0.87931824 C73.45810755 0.91842404 76.71248752 0.9644687 79.96691895 1.01074219 C90.01017825 1.13451122 99.89493299 1.08146515 109.89755249 0.10449219 C113.40773633 0.0732983 115.91044354 0.7829138 119.15306091 2.07556152 C119.15306091 4.71556152 119.15306091 7.35556152 119.15306091 10.07556152 C78.23306091 10.07556152 37.31306091 10.07556152 -4.84693909 10.07556152 C-4.84693909 0.09520351 -4.84693909 0.09520351 0 0 Z " fill="#576B27" transform="translate(8.846939086914063,117.9244384765625)"/>
	

	

	<path d="M0 0 C0 1.32 0 2.64 0 4 C-40.92 4 -81.84 4 -124 4 C-124 2.68 -124 1.36 -124 0 C-110.34260473 -0.1546176 -96.68515565 -0.30278621 -83.0276041 -0.4429636 C-76.6842983 -0.50826705 -70.3410308 -0.57570284 -63.99780273 -0.64819336 C-57.86404439 -0.71820857 -51.73024904 -0.78238544 -45.59638786 -0.84269524 C-43.26869467 -0.86657302 -40.94102123 -0.89247328 -38.61337471 -0.92053413 C-25.69314098 -1.0748671 -12.88612943 -1.01275433 0 0 Z " fill="#B7A427" transform="translate(128,124)"/>
	

	

	<path d="M0 0 C2.58084942 0.09256267 5.16029081 0.19866963 7.73999023 0.31933594 C8.62235352 0.34640625 9.5047168 0.37347656 10.41381836 0.40136719 C11.28586914 0.44132812 12.15791992 0.48128906 13.05639648 0.52246094 C13.84602783 0.55500977 14.63565918 0.58755859 15.44921875 0.62109375 C19.26809598 1.24851734 22.58312646 2.63759972 26.17749023 4.06933594 C26.33121691 11.727328 26.47939849 19.38541019 26.62045383 27.04364586 C26.68612308 30.5994696 26.75371943 34.15523515 26.82568359 37.7109375 C26.90828699 41.79645541 26.98257358 45.88208737 27.05639648 49.96777344 C27.08343155 51.24800385 27.11046661 52.52823425 27.13832092 53.84725952 C27.15841721 55.02833282 27.17851349 56.20940613 27.19921875 57.42626953 C27.21920425 58.46995697 27.23918976 59.51364441 27.25978088 60.58895874 C27.17749023 63.06933594 27.17749023 63.06933594 26.17749023 65.06933594 C24.09530661 65.17765763 22.01149894 65.25507135 19.92749023 65.31933594 C18.76733398 65.36574219 17.60717773 65.41214844 16.41186523 65.45996094 C13.17749023 65.06933594 13.17749023 65.06933594 10.94311523 63.67871094 C5.55875734 55.72129706 4.8817654 44.91547548 3.17749023 35.63183594 C1.67250757 27.45535132 0.14877844 19.35389522 -2.24731445 11.38012695 C-3.12976797 7.83495611 -3.09174991 4.70407786 -2.82250977 1.06933594 C-1.82250977 0.06933594 -1.82250977 0.06933594 0 0 Z M0.17749023 3.06933594 C-0.10558902 10.31931016 0.66774988 16.97894822 2.17749023 24.06933594 C3.16749023 24.39933594 4.15749023 24.72933594 5.17749023 25.06933594 C5.40535482 27.02246094 5.6332194 28.97558594 5.86108398 30.92871094 C6.12530675 33.03427408 6.12530675 33.03427408 6.69311523 34.88964844 C7.38025092 37.98175902 7.37633003 41.0313349 7.48999023 44.19433594 C7.79963897 50.42525785 8.49415642 58.38600212 13.17749023 63.06933594 C15.03036525 63.14160095 16.88582901 63.15314814 18.73999023 63.13183594 C19.7519043 63.1228125 20.76381836 63.11378906 21.80639648 63.10449219 C22.58885742 63.09289062 23.37131836 63.08128906 24.17749023 63.06933594 C24.20061906 55.65473652 24.21840808 48.24014483 24.22930241 40.8255167 C24.23453005 37.38293246 24.24162554 33.94037282 24.25292969 30.49780273 C24.26583258 26.54378551 24.27071941 22.58977838 24.27514648 18.63574219 C24.28030777 17.39409805 24.28546906 16.15245392 24.29078674 14.8731842 C24.29086227 13.73207687 24.29093781 12.59096954 24.29101562 11.4152832 C24.29323624 10.40490494 24.29545685 9.39452667 24.29774475 8.35353088 C24.43466629 6.10352739 24.43466629 6.10352739 23.17749023 5.06933594 C20.82709923 4.85593348 18.47146541 4.69934836 16.11499023 4.56933594 C10.76696913 4.25541794 5.48196521 3.82711808 0.17749023 3.06933594 Z " fill="#C1968A" transform="translate(44.822509765625,27.9306640625)"/>
	

	<path d="M0 0 C1.54369052 0.00187315 3.08738166 0.00329279 4.631073 0.00428772 C8.62572982 0.00804245 12.62034823 0.01780928 16.61499023 0.0289917 C20.71858196 0.03936053 24.8221801 0.04381791 28.92578125 0.04882812 C36.92710064 0.05944058 44.92838925 0.07642818 52.9296875 0.09765625 C52.9296875 1.74765625 52.9296875 3.39765625 52.9296875 5.09765625 C51.8984375 4.91203125 50.8671875 4.72640625 49.8046875 4.53515625 C44.7955277 3.90352839 39.98421015 4.41017439 34.97143555 4.83007812 C21.46271622 5.82250613 7.70776439 5.03069564 -5.82202148 4.7253418 C-8.7920772 4.65939545 -11.76222366 4.60015189 -14.73242188 4.54101562 C-16.64063398 4.49910491 -18.54883752 4.45680188 -20.45703125 4.4140625 C-21.77425423 4.38899376 -21.77425423 4.38899376 -23.11808777 4.36341858 C-27.53019962 4.25682737 -31.72628816 3.9671684 -36.0703125 3.09765625 C-35.7403125 2.43765625 -35.4103125 1.77765625 -35.0703125 1.09765625 C-23.3649434 0.34246251 -11.72830807 -0.04297433 0 0 Z " fill="#AE6F62" transform="translate(75.0703125,114.90234375)"/>
	

	

	<path d="M0 0 C0.33 0 0.66 0 1 0 C1.125 2.375 1.125 2.375 1 5 C-1.82709944 7.82709944 -4.70602176 7.41712326 -8.5 7.5625 C-13.39954284 7.60173595 -13.39954284 7.60173595 -18 9 C-21.11269291 9.31432523 -24.22617578 9.51089874 -27.34765625 9.71875 C-29.92005405 9.71051998 -29.92005405 9.71051998 -31 11 C-31.12916553 13.07354287 -31.18856296 15.15145402 -31.22119141 17.22875977 C-31.2326973 17.87929825 -31.24420319 18.52983673 -31.25605774 19.2000885 C-31.29291192 21.36381225 -31.32247307 23.52756512 -31.3515625 25.69140625 C-31.37467962 27.19539296 -31.39806997 28.69937549 -31.42172241 30.20335388 C-31.47027361 33.36510479 -31.5151744 36.52688209 -31.55761719 39.6887207 C-31.61212695 43.7247688 -31.67602583 47.7606023 -31.74279213 51.79646397 C-31.79312813 54.90810306 -31.83814494 58.01980246 -31.88163376 61.13154411 C-31.90308558 62.61818898 -31.92621405 64.1048107 -31.9510994 65.59140205 C-32.13057703 76.33326791 -32.13057703 76.33326791 -31 87 C-29.8718689 87.03758423 -29.8718689 87.03758423 -28.72094727 87.07592773 C-25.33460804 87.19150514 -21.94857387 87.31440345 -18.5625 87.4375 C-17.37849609 87.47681641 -16.19449219 87.51613281 -14.97460938 87.55664062 C-13.84990234 87.59853516 -12.72519531 87.64042969 -11.56640625 87.68359375 C-10.52427979 87.72025146 -9.48215332 87.75690918 -8.40844727 87.79467773 C-6 88 -6 88 -5 89 C-4.92674832 91.86267567 -4.90761795 94.700719 -4.9375 97.5625 C-4.94201172 98.36880859 -4.94652344 99.17511719 -4.95117188 100.00585938 C-4.96299482 102.00393756 -4.98093086 104.00197783 -5 106 C-5.33 106 -5.66 106 -6 106 C-6.17187498 104.64648453 -6.33717258 103.29213367 -6.5 101.9375 C-6.5928125 101.18339844 -6.685625 100.42929688 -6.78125 99.65234375 C-7.04719517 96.42775855 -7.03166717 93.23400977 -7 90 C-8.12277344 90.01160156 -9.24554688 90.02320312 -10.40234375 90.03515625 C-25.86123079 90.14730219 -25.86123079 90.14730219 -33 89 C-34.92116822 87.07883178 -34.15701153 83.49966375 -34.16113281 80.8815918 C-34.16609772 80.13684601 -34.17106262 79.39210022 -34.17617798 78.62478638 C-34.19083795 76.14958792 -34.19760857 73.67445358 -34.203125 71.19921875 C-34.20887411 69.48387143 -34.21463187 67.76852414 -34.22039795 66.05317688 C-34.23091941 62.45089416 -34.2367543 58.84863383 -34.24023438 55.24633789 C-34.24571596 50.62922038 -34.26973185 46.01239826 -34.29820633 41.39537334 C-34.316828 37.84976844 -34.32203809 34.30423466 -34.32357025 30.75858498 C-34.32659931 29.0565206 -34.33463638 27.35445754 -34.34775543 25.65244102 C-34.36480344 23.27026297 -34.3629388 20.88880605 -34.35644531 18.5065918 C-34.3656601 17.80253708 -34.37487488 17.09848236 -34.3843689 16.37309265 C-34.35831746 13.32342569 -34.14354528 11.25878348 -32.65193176 8.56970215 C-30.20399162 6.24361521 -28.19998475 6.37752534 -24.87109375 6.20703125 C-23.67162109 6.13419922 -22.47214844 6.06136719 -21.23632812 5.98632812 C-19.3559082 5.9002832 -19.3559082 5.9002832 -17.4375 5.8125 C-14.95684947 5.67645202 -12.47636711 5.53729039 -9.99609375 5.39453125 C-8.89450928 5.34143799 -7.7929248 5.28834473 -6.65795898 5.23364258 C-4.02650653 5.16624282 -4.02650653 5.16624282 -2 4 C-0.86649466 1.98330173 -0.86649466 1.98330173 0 0 Z " fill="#BF9487" transform="translate(121,0)"/>
	

	

	

	

	

	

	

	

	

	

	

	

	

	

	

	

	

	

	

	

	

	

	

	

	

	

	

	

</svg>
