<?xml version="1.0" encoding="iso-8859-1"?>
<svg height="128" version="1.1" width="128" xmlns="http://www.w3.org/2000/svg">
	

	<path d="M0 0 C42.24 0 84.48 0 128 0 C128 42.24 128 84.48 128 128 C85.76 128 43.52 128 0 128 C0 85.76 0 43.52 0 0 Z " fill="#FCFCFA" transform="translate(0,0)"/>
	

	<path d="M0 0 C2.84954501 1.14429233 3.72992926 2.67761168 5.41943359 5.22338867 C6.02368164 6.12879395 6.62792969 7.03419922 7.25048828 7.96704102 C10.71750315 13.39475716 14.06100863 18.89234832 17.36474609 24.4206543 C20.24003004 29.14973974 23.02398904 33.02278011 27.08349609 36.83666992 C29.48790073 40.07356734 31.63967908 43.46707259 33.81494141 46.86157227 C34.73886483 48.30009045 35.66870866 49.73481127 36.60205078 51.16723633 C38.25054786 53.69726944 39.88703959 56.23472616 41.52099609 58.77416992 C42.05345947 59.59095215 42.58592285 60.40773437 43.13452148 61.24926758 C43.88076782 62.41981689 43.88076782 62.41981689 44.64208984 63.61401367 C45.08866943 64.30744873 45.53524902 65.00088379 45.99536133 65.71533203 C47.207696 68.07879983 47.67730262 70.22224547 48.08349609 72.83666992 C46.65055111 73.67781163 45.21195204 74.50932679 43.77099609 75.33666992 C42.57023437 76.03276367 42.57023437 76.03276367 41.34521484 76.74291992 C39.08349609 77.83666992 39.08349609 77.83666992 36.08349609 77.83666992 C36.41349609 79.48666992 36.74349609 81.13666992 37.08349609 82.83666992 C31.04141262 84.6137533 25.32604006 85.19484319 19.03662109 85.49291992 C16.13062298 85.83118425 14.62909281 86.51376139 12.08349609 87.83666992 C8.15699617 88.62142462 4.4004086 88.97243386 0.40112305 89.01367188 C-0.68988205 89.02650711 -1.78088715 89.03934235 -2.904953 89.05256653 C-4.06763199 89.05995346 -5.23031097 89.06734039 -6.42822266 89.07495117 C-8.2359893 89.08705879 -8.2359893 89.08705879 -10.08027649 89.09941101 C-12.62113013 89.11320954 -15.16200198 89.12395051 -17.70288086 89.13183594 C-21.60060956 89.14915484 -25.49751266 89.1930917 -29.39501953 89.23706055 C-31.86441435 89.24717901 -34.33381635 89.25569775 -36.80322266 89.26245117 C-37.97197433 89.27995926 -39.14072601 89.29746735 -40.34489441 89.31550598 C-41.42644302 89.31258041 -42.50799164 89.30965485 -43.62231445 89.30664062 C-45.0507795 89.31543999 -45.0507795 89.31543999 -46.50810242 89.32441711 C-48.91650391 88.83666992 -48.91650391 88.83666992 -50.72412109 87.09442139 C-52.05655005 84.57149553 -52.29107007 83.07916268 -52.28881836 80.24267578 C-52.29504715 79.33750717 -52.30127594 78.43233856 -52.30769348 77.4997406 C-52.29848373 76.52682571 -52.28927399 75.55391083 -52.27978516 74.55151367 C-52.28028366 73.54004776 -52.28078217 72.52858185 -52.28129578 71.48646545 C-52.27895553 69.34382161 -52.26922996 67.201175 -52.25268555 65.05859375 C-52.22926611 61.8105346 -52.23210393 58.56330674 -52.23876953 55.31518555 C-52.23318631 53.22729011 -52.2260724 51.13939809 -52.21728516 49.05151367 C-52.21819656 48.0927684 -52.21910797 47.13402313 -52.220047 46.14622498 C-52.15204857 39.5316268 -51.28895644 33.30464499 -49.91650391 26.83666992 C-47.18867279 29.56450104 -46.71404111 32.6421068 -45.79150391 36.27416992 C-45.60974609 36.95543945 -45.42798828 37.63670898 -45.24072266 38.33862305 C-44.48138411 41.253227 -43.91650391 43.81228197 -43.91650391 46.83666992 C-42.92650391 46.83666992 -41.93650391 46.83666992 -40.91650391 46.83666992 C-40.64837891 46.26045898 -40.38025391 45.68424805 -40.10400391 45.09057617 C-38.8878795 42.78234004 -37.50772086 40.83877392 -35.91650391 38.77416992 C-34.16529113 36.49321528 -32.51392539 34.23280215 -30.91650391 31.83666992 C-30.25650391 31.83666992 -29.59650391 31.83666992 -28.91650391 31.83666992 C-28.68962891 31.25916992 -28.46275391 30.68166992 -28.22900391 30.08666992 C-26.91650391 27.83666992 -26.91650391 27.83666992 -24.60009766 26.04370117 C-21.728008 23.68164781 -19.8339862 21.28857585 -17.66650391 18.27416992 C-4.01311443 -0.34200937 -4.01311443 -0.34200937 0 0 Z " fill="#EA241D" transform="translate(63.91650390625,19.163330078125)"/>
	

	<path d="M0 0 C2.72783111 2.72783111 3.2024628 5.80543688 4.125 9.4375 C4.39763672 10.4594043 4.39763672 10.4594043 4.67578125 11.50195312 C5.43511979 14.41655708 6 16.97561204 6 20 C6.99 20 7.98 20 9 20 C9.268125 19.42378906 9.53625 18.84757812 9.8125 18.25390625 C11.02862441 15.94567012 12.40878304 14.002104 14 11.9375 C15.75121278 9.65654536 17.40257851 7.39613223 19 5 C19.66 5 20.32 5 21 5 C21.28875 4.360625 21.5775 3.72125 21.875 3.0625 C23 1 23 1 25 0 C22.82914545 4.90801899 19.34686478 8.90017561 16.09375 13.125 C12.86735324 17.35089833 12.86735324 17.35089833 12.125 22.375 C14.88424342 30.65273026 21.74586261 35.44865508 28.22265625 40.85546875 C31.34996057 43.50344792 34.11957627 45.8862577 36.3125 49.375 C37.79159062 52.27886877 37.79159062 52.27886877 41 53 C51.03104962 53.06253772 60.92662693 51.69288499 70.8125 50.125 C71.83682129 49.96362549 72.86114258 49.80225098 73.91650391 49.63598633 C81.04776139 48.45584166 88.01373162 46.84964891 95 45 C94.12064332 40.99290079 92.31041203 37.84606871 90.1875 34.375 C89.60657593 33.41484985 89.60657593 33.41484985 89.01391602 32.43530273 C83.93104863 24.12556511 78.46478119 16.06149158 73 8 C73.33 7.34 73.66 6.68 74 6 C80.04113635 14.6217005 85.94628075 23.32204349 91.625 32.1875 C92.40568848 33.38886597 92.40568848 33.38886597 93.20214844 34.61450195 C93.68458008 35.374646 94.16701172 36.13479004 94.6640625 36.91796875 C95.09154785 37.58594482 95.5190332 38.2539209 95.95947266 38.94213867 C97.13975564 41.27639612 97.59411224 43.42611176 98 46 C96.56705502 46.84114171 95.12845595 47.67265687 93.6875 48.5 C92.88699219 48.9640625 92.08648437 49.428125 91.26171875 49.90625 C89 51 89 51 86 51 C86.495 53.475 86.495 53.475 87 56 C80.95791653 57.77708337 75.24254397 58.35817327 68.953125 58.65625 C66.04712689 58.99451433 64.54559672 59.67709147 62 61 C58.07350007 61.7847547 54.31691251 62.13576394 50.31762695 62.17700195 C49.22662186 62.18983719 48.13561676 62.20267242 47.0115509 62.21589661 C45.84887192 62.22328354 44.68619293 62.23067047 43.48828125 62.23828125 C41.6805146 62.25038887 41.6805146 62.25038887 39.83622742 62.26274109 C37.29537377 62.27653962 34.75450192 62.28728058 32.21362305 62.29516602 C28.31589434 62.31248492 24.41899125 62.35642178 20.52148438 62.40039062 C18.05208956 62.41050909 15.58268756 62.41902782 13.11328125 62.42578125 C11.94452957 62.44328934 10.77577789 62.46079742 9.5716095 62.47883606 C8.49006088 62.47591049 7.40851227 62.47298492 6.29418945 62.4699707 C4.86572441 62.47877007 4.86572441 62.47877007 3.40840149 62.48774719 C1 62 1 62 -0.80761719 60.25775146 C-2.14004614 57.73482561 -2.37456616 56.24249276 -2.37231445 53.40600586 C-2.37854324 52.50083725 -2.38477203 51.59566864 -2.39118958 50.66307068 C-2.38197983 49.69015579 -2.37277008 48.71724091 -2.36328125 47.71484375 C-2.36377975 46.70337784 -2.36427826 45.69191193 -2.36479187 44.64979553 C-2.36245163 42.50715169 -2.35272605 40.36450508 -2.33618164 38.22192383 C-2.3127622 34.97386468 -2.31560003 31.72663681 -2.32226562 28.47851562 C-2.3166824 26.39062018 -2.30956849 24.30272817 -2.30078125 22.21484375 C-2.30169266 21.25609848 -2.30260406 20.29735321 -2.30354309 19.30955505 C-2.23554466 12.69495688 -1.37245254 6.46797506 0 0 Z " fill="#F0A543" transform="translate(14,46)"/>
	

	<path d="M0 0 C1.93559313 -0.13504138 3.873872 -0.23201129 5.8125 -0.3125 C6.89144531 -0.37050781 7.97039063 -0.42851563 9.08203125 -0.48828125 C12 0 12 0 13.97265625 2.1171875 C15.29709826 5.83368257 14.71373743 7.67046848 13.625 11.4375 C11.77591366 18.95974059 12.22137012 25.36761642 13 33 C13.49049704 42.12582658 12.26672082 50.98592419 11 60 C12.98 59.505 12.98 59.505 15 59 C13.79618552 61.49361571 12.54571278 63.68143083 11 66 C10.01 66 9.02 66 8 66 C7.35105763 63.93847611 6.7059736 61.87573742 6.0625 59.8125 C5.70285156 58.66394531 5.34320312 57.51539063 4.97265625 56.33203125 C4.16243964 53.55646994 3.50865693 50.84312452 3 48 C-0.69089659 51.69089659 0.83762379 63.04523779 0.83203125 67.95703125 C0.82870285 68.98181076 0.82537445 70.00659027 0.82194519 71.06242371 C0.81690808 73.21470697 0.81453586 75.36699796 0.81469727 77.51928711 C0.81249524 80.81962693 0.79426338 84.11964039 0.77539062 87.41992188 C0.77245918 89.51562386 0.77047272 91.61132743 0.76953125 93.70703125 C0.76234573 94.69451859 0.75516022 95.68200592 0.74775696 96.69941711 C0.75083359 97.61434433 0.75391022 98.52927155 0.75708008 99.47192383 C0.75565506 100.27608231 0.75423004 101.08024078 0.75276184 101.9087677 C0.87587269 104.3047476 0.87587269 104.3047476 3 107 C5.36316344 107.45224093 5.36316344 107.45224093 8.14892578 107.37231445 C9.22409454 107.37854324 10.29926331 107.38477203 11.40701294 107.39118958 C12.57465179 107.38197983 13.74229065 107.37277008 14.9453125 107.36328125 C16.14429169 107.36377975 17.34327087 107.36427826 18.57858276 107.36479187 C21.12239228 107.36244684 23.66620392 107.3526933 26.20996094 107.33618164 C30.08810435 107.31272318 33.96555432 107.31560121 37.84375 107.32226562 C40.31510824 107.31668438 42.78646359 107.30957171 45.2578125 107.30078125 C46.41330597 107.30169266 47.56879944 107.30260406 48.75930786 107.30354309 C55.48742954 107.2449254 61.86031161 107.0698442 68 104 C69.5912342 103.78058781 71.18929031 103.60940148 72.7890625 103.46484375 C73.73007813 103.37783203 74.67109375 103.29082031 75.640625 103.20117188 C76.62546875 103.11416016 77.6103125 103.02714844 78.625 102.9375 C80.11386719 102.80118164 80.11386719 102.80118164 81.6328125 102.66210938 C84.08823868 102.43781564 86.54394389 102.21726893 89 102 C88.67 100.35 88.34 98.7 88 97 C91.63 95.35 95.26 93.7 99 92 C98.1660456 87.83022802 97.76914596 86.20942464 95.62890625 82.8828125 C95.14172119 82.11791504 94.65453613 81.35301758 94.15258789 80.56494141 C93.62785889 79.75976074 93.10312988 78.95458008 92.5625 78.125 C91.75703735 76.87275635 91.75703735 76.87275635 90.93530273 75.59521484 C89.29849913 73.05798806 87.64987366 70.52874099 86 68 C85.05203271 66.53128267 84.10411289 65.06253471 83.15625 63.59375 C82.2928551 62.2700574 81.42833748 60.94709618 80.5625 59.625 C79.98060913 58.72612061 79.98060913 58.72612061 79.38696289 57.80908203 C77.64130579 55.17837189 75.91752373 52.92159328 73.625 50.7421875 C69.82744243 46.77509611 67.24565598 42.19857169 64.4375 37.5 C61.17977042 32.08658422 57.98692269 26.91298052 54 22 C54 21.34 54 20.68 54 20 C50.91280554 20.03713918 48.74424574 20.33179034 46.39892578 22.4375 C44.70835381 24.40713893 43.12481001 26.42714483 41.5625 28.5 C40.99700439 29.22380859 40.43150879 29.94761719 39.84887695 30.69335938 C38.21848633 32.78512831 36.60849709 34.89138196 35 37 C33.5635539 38.83415919 32.12632211 40.66770409 30.6875 42.5 C29.78971432 43.66516495 28.89291251 44.83109636 28 46 C28 42.87099787 28.42451317 41.62581138 30 39 C30.66 38.67 31.32 38.34 32 38 C32.33 37.01 32.66 36.02 33 35 C34.65360675 33.32037496 36.32270667 31.65597181 38 30 C39.82244639 27.82497313 41.53824753 25.57519076 43.25 23.3125 C43.91902344 22.44141602 43.91902344 22.44141602 44.6015625 21.55273438 C47.01254235 18.41258086 47.01254235 18.41258086 49 15 C51.6875 15.09765625 51.6875 15.09765625 55 16 C56.95769903 18.14570976 58.43874503 20.03525734 60 22.4375 C60.43223877 23.07276611 60.86447754 23.70803223 61.30981445 24.36254883 C64.21492167 28.67368658 66.95935171 33.07716068 69.57421875 37.5703125 C74.81548099 46.50199775 80.524286 55.25511798 86.625 63.625 C88.25032653 65.87345491 89.70256855 68.14425613 91.0625 70.5625 C92.90216411 73.8264202 94.90728676 76.89468357 97 80 C98.00568242 81.66324401 99.00664799 83.32936253 100 85 C100.99 86.485 100.99 86.485 102 88 C102.68991883 92.28545734 103.33757742 97.11262082 100.7265625 100.796875 C95.26871233 105.32289709 90.36781865 105.26142126 83.61914062 105.4296875 C78.60613603 105.6351736 73.96205744 106.4025922 69.0625 107.49609375 C60.10803752 109.36705813 51.30918859 109.56033976 42.1875 109.6875 C40.57744905 109.72082261 38.96742207 109.75532476 37.35742188 109.79101562 C33.37523995 109.87491097 29.39341441 109.92640238 25.4105835 109.96722412 C22.92879641 110.00096813 20.4485028 110.06110967 17.96728516 110.12353516 C16.34929459 110.15198446 14.73129342 110.1798382 13.11328125 110.20703125 C12.37079636 110.23101486 11.62831146 110.25499847 10.86332703 110.27970886 C6.38544008 110.33111338 3.45533092 109.93593593 0 107 C-2.11834536 103.25574389 -2.24624564 99.95956018 -2.23046875 95.7109375 C-2.22926025 94.40471436 -2.22805176 93.09849121 -2.22680664 91.75268555 C-2.21422293 90.29345247 -2.20110177 88.83422394 -2.1875 87.375 C-2.17985658 85.83829947 -2.17262776 84.30159683 -2.16577148 82.76489258 C-2.13343867 77.1763057 -2.06877512 71.58824289 -2 66 C-1.9856189 64.82020569 -1.97123779 63.64041138 -1.9564209 62.42486572 C-1.84937247 53.84646954 -1.72710156 45.26838989 -1.5933876 36.69037628 C-1.56256209 34.69152623 -1.53303449 32.6926563 -1.50350952 30.69378662 C-1.44607522 26.90383052 -1.38226429 23.1140368 -1.31640625 19.32421875 C-1.29967865 18.18390701 -1.28295105 17.04359528 -1.26571655 15.86872864 C-1.16510265 10.48883349 -0.93284898 5.3025849 0 0 Z " fill="#F9DFAE" transform="translate(12,0)"/>
	

	<path d="M0 0 C2.8629495 1.15309054 3.75300868 2.71828286 5.44848633 5.27734375 C6.35655029 6.63859375 6.35655029 6.63859375 7.28295898 8.02734375 C9.99974566 12.26703252 12.65954121 16.5355685 15.27270508 20.83984375 C19.95600888 28.48797003 24.80440877 35.99093057 29.82592773 43.42041016 C33.48513884 48.86328761 36.92418267 54.40923812 40.23266602 60.07177734 C41.67001903 62.52581159 43.06651005 64.81747432 44.89379883 67.00390625 C46.08520508 68.83984375 46.08520508 68.83984375 45.77270508 71.08984375 C45.54583008 71.66734375 45.31895508 72.24484375 45.08520508 72.83984375 C34.50453377 75.71852133 23.88372852 77.58574726 13.02270508 79.08984375 C11.77465088 79.26483398 10.52659668 79.43982422 9.24072266 79.62011719 C-6.56598729 81.73462761 -6.56598729 81.73462761 -11.53979492 79.83984375 C-13.71947258 78.00432572 -14.97942131 76.45329826 -16.60229492 74.15234375 C-19.64566015 69.86182628 -23.28860203 67.0356089 -27.44213867 63.859375 C-32.00721738 60.1308668 -35.65509332 55.72939615 -38.91479492 50.83984375 C-38.69252096 45.83867959 -36.84914548 42.81541548 -33.91479492 38.83984375 C-33.91479492 41.83984375 -33.91479492 41.83984375 -34.97729492 44.15234375 C-36.21590693 47.70303151 -36.11133115 49.25023506 -34.91479492 52.83984375 C-30.73523485 59.20356102 -24.75436899 63.2641447 -18.66479492 67.65625 C-15.21436609 70.39600812 -13.23350456 73.12990834 -10.91479492 76.83984375 C-3.70644462 80.4440189 7.77184616 77.11176695 15.33520508 76.02734375 C16.55594727 75.86169922 17.77668945 75.69605469 19.03442383 75.52539062 C27.48833309 74.34005414 35.76329976 72.7350339 44.08520508 70.83984375 C42.42117488 68.22440422 40.75621618 65.6095753 39.08911133 62.99609375 C37.79640596 60.9600198 36.51191272 58.91869746 35.23754883 56.87109375 C31.48723633 50.86176862 31.48723633 50.86176862 27.14770508 45.27734375 C25.08520508 42.83984375 25.08520508 42.83984375 25.08520508 40.83984375 C24.09520508 41.33484375 24.09520508 41.33484375 23.08520508 41.83984375 C22.75520508 42.82984375 22.42520508 43.81984375 22.08520508 44.83984375 C15.30974712 43.39265856 9.67217363 42.12751729 4.08520508 37.83984375 C2.93020508 37.22109375 1.77520508 36.60234375 0.58520508 35.96484375 C-2.07728504 34.49285031 -3.96879284 32.87734342 -6.03979492 30.65234375 C-8.49049904 28.03694178 -10.22480478 27.05690199 -13.91479492 26.83984375 C-14.11101734 22.62106183 -13.7170966 19.66973481 -11.91479492 15.83984375 C-12.57479492 15.83984375 -13.23479492 15.83984375 -13.91479492 15.83984375 C-14.14166992 16.41734375 -14.36854492 16.99484375 -14.60229492 17.58984375 C-16.24517515 20.40620985 -18.31012719 21.92061489 -20.91479492 23.83984375 C-19.22100812 19.96022034 -16.6919439 16.77532286 -14.10229492 13.46484375 C-13.67625977 12.913125 -13.25022461 12.36140625 -12.8112793 11.79296875 C-3.43888713 -0.28763355 -3.43888713 -0.28763355 0 0 Z " fill="#F15C2E" transform="translate(63.914794921875,19.16015625)"/>
	

	

	<path d="M0 0 C4.52065428 -0.049377 9.04115217 -0.08570823 13.56201172 -0.10986328 C15.10045098 -0.11993118 16.63887107 -0.13358646 18.17724609 -0.15087891 C20.38644133 -0.17509317 22.59538395 -0.18647491 24.8046875 -0.1953125 C25.49432587 -0.20563507 26.18396423 -0.21595764 26.89450073 -0.22659302 C28.59800906 -0.22699478 30.30085943 -0.12191026 32 0 C34 2 34 2 34.16699219 4.15136719 C34.12735352 5.02438477 34.08771484 5.89740234 34.046875 6.796875 C34.00433594 7.7559375 33.96179688 8.715 33.91796875 9.703125 C33.86253906 10.70859375 33.80710938 11.7140625 33.75 12.75 C33.71003906 13.74 33.67007813 14.73 33.62890625 15.75 C33.37787454 20.82491134 32.97224297 25.24721777 31 30 C29.68 29.34 28.36 28.68 27 28 C27.33 30.64 27.66 33.28 28 36 C25.6875 36.625 25.6875 36.625 23 37 C20 35 20 35 19.26953125 32.6171875 C19.11871094 31.71226563 18.96789062 30.80734375 18.8125 29.875 C18.65394531 28.96492188 18.49539062 28.05484375 18.33203125 27.1171875 C18.22246094 26.41851562 18.11289063 25.71984375 18 25 C16.02 24.34 14.04 23.68 12 23 C11.67 19.7 11.34 16.4 11 13 C8.69 12.67 6.38 12.34 4 12 C3.87625 10.329375 3.87625 10.329375 3.75 8.625 C3.42126213 4.94246056 3.42126213 4.94246056 0.9375 3.5625 C0.298125 3.376875 -0.34125 3.19125 -1 3 C-0.67 2.01 -0.34 1.02 0 0 Z " fill="#D1CECD" transform="translate(84,12)"/>
	

	

	

	

	

	

	

	

	

	

	

	

	

	

</svg>
