<?xml version="1.0" encoding="iso-8859-1"?>
<svg height="128" version="1.1" width="128" xmlns="http://www.w3.org/2000/svg">
	

	<path d="M0 0 C42.24 0 84.48 0 128 0 C128 42.24 128 84.48 128 128 C85.76 128 43.52 128 0 128 C0 85.76 0 43.52 0 0 Z " fill="#FCFCFC" transform="translate(0,0)"/>
	

	<path d="M0 0 C3.44448566 0.00010274 6.88877038 -0.01371278 10.33320808 -0.03077221 C13.67591744 -0.04462505 17.01859052 -0.04398082 20.36132812 -0.04516602 C22.19124802 -0.05594429 22.19124802 -0.05594429 24.05813599 -0.06694031 C30.94054255 -0.04862248 37.29547385 0.50591889 43.97851562 2.18530273 C44.53084558 13.92830398 42.807113 25.23309825 41.09765625 36.82641602 C40.60082862 40.20356749 40.12073292 43.58280591 39.64257812 46.96264648 C39.33105838 49.12034032 39.01859233 51.27789779 38.70507812 53.43530273 C38.56228424 54.44052979 38.41949036 55.44575684 38.27236938 56.48144531 C38.13237518 57.42012451 37.99238098 58.35880371 37.84814453 59.32592773 C37.66827499 60.55617676 37.66827499 60.55617676 37.48477173 61.8112793 C36.72323843 65.38239261 35.83624803 68.32757033 33.22851562 70.93530273 C30.34743331 72.53590402 28.28165571 73.05317713 24.97851562 73.18530273 C21.60351563 71.74780273 21.60351563 71.74780273 18.97851562 70.18530273 C14.83181524 72.56159363 14.83181524 72.56159363 11.97851562 76.18530273 C11.81872675 77.59671141 11.70558228 79.01360426 11.61914062 80.43139648 C11.5546875 81.26864258 11.49023438 82.10588867 11.42382812 82.96850586 C11.29398497 84.73307429 11.17930808 86.49882647 11.08007812 88.26538086 C10.55404527 94.60212848 10.55404527 94.60212848 7.91992188 97.27124023 C4.12635305 98.4501182 0.59126614 98.50960771 -3.33398438 98.37280273 C-4.44483398 98.3525 -4.44483398 98.3525 -5.578125 98.33178711 C-7.39289512 98.29666253 -9.20728725 98.24286246 -11.02148438 98.18530273 C-13.25916558 94.65436091 -13.07500111 92.20785951 -12.58398438 88.12280273 C-12.02631973 83.58692801 -12.02631973 83.58692801 -13.02148438 79.18530273 C-13.93961914 79.20625 -14.85775391 79.22719727 -15.80371094 79.2487793 C-19.21803866 79.31704857 -22.6316388 79.36714658 -26.04638672 79.4050293 C-27.52274028 79.42511574 -28.99901456 79.45239075 -30.47509766 79.48706055 C-32.600134 79.53571458 -34.72411672 79.55829946 -36.84960938 79.57592773 C-38.76628418 79.60734863 -38.76628418 79.60734863 -40.72167969 79.6394043 C-44.02148438 79.18530273 -44.02148438 79.18530273 -46.45239258 77.33837891 C-48.57021584 74.43234447 -48.3467755 72.78249651 -47.95898438 69.24780273 C-47.86488281 68.2281543 -47.77078125 67.20850586 -47.67382812 66.15795898 C-46.93596208 62.79558738 -46.17732989 60.87871553 -44.02148438 58.18530273 C-40.92700195 57.52587891 -40.92700195 57.52587891 -37.16601562 57.47827148 C-36.50437912 57.46315018 -35.84274261 57.44802887 -35.16105652 57.43244934 C-33.05168714 57.3895249 -30.94374719 57.38073146 -28.83398438 57.37280273 C-27.40230562 57.34966155 -25.97066096 57.32429697 -24.5390625 57.29663086 C-21.03323115 57.23373658 -17.52787785 57.20143499 -14.02148438 57.18530273 C-14.8763504 52.8597148 -16.78246176 51.20338247 -20.02148438 48.18530273 C-21.13544221 47.10142477 -22.24596218 46.0140054 -23.35351562 44.92358398 C-23.92392578 44.36219727 -24.49433594 43.80081055 -25.08203125 43.22241211 C-25.66017578 42.65329102 -26.23832031 42.08416992 -26.83398438 41.49780273 C-27.43146484 40.91708008 -28.02894531 40.33635742 -28.64453125 39.73803711 C-30.1416311 38.25804697 -31.58637169 36.72547492 -33.02148438 35.18530273 C-33.02148438 34.52530273 -33.02148438 33.86530273 -33.02148438 33.18530273 C-33.83746094 32.8565918 -33.83746094 32.8565918 -34.66992188 32.52124023 C-37.7961403 30.74521581 -40.14564559 28.35126193 -42.64648438 25.81030273 C-43.13632812 25.32819336 -43.62617187 24.84608398 -44.13085938 24.34936523 C-48.1243823 20.33401978 -49.90625155 17.97141145 -50.27148438 12.31030273 C-50.1790855 8.50773354 -49.83851113 4.00232948 -47.02148438 1.18530273 C-44.30883493 0.93654192 -41.62387366 0.76127369 -38.90429688 0.63452148 C-38.02798615 0.59268234 -37.15167542 0.5508432 -36.24880981 0.50773621 C-24.17208701 -0.00651932 -12.08559227 -0.00188824 0 0 Z " fill="#B40A4B" transform="translate(65.021484375,10.814697265625)"/>
	

	<path d="M0 0 C0.96702868 3.86456923 0.95721802 6.99276698 0.4765625 10.9375 C0.3425 12.08089844 0.2084375 13.22429688 0.0703125 14.40234375 C-0.07664063 15.58957031 -0.22359375 16.77679688 -0.375 18 C-0.65590385 20.33306257 -0.93455552 22.66639743 -1.2109375 25 C-1.35112305 26.15242188 -1.49130859 27.30484375 -1.63574219 28.4921875 C-2.11139177 33.07270571 -2.30644421 37.6555637 -2.44775391 42.2578125 C-3.12510171 45.62119468 -4.40492343 46.83754397 -7 49 C-10.96690692 45.62812912 -13.3739564 40.87813081 -15 36 C-15.99 35.67 -16.98 35.34 -18 35 C-19.20208855 33.564172 -20.39946449 32.12389005 -21.5625 30.65625 C-23.01489039 28.98284368 -24.51893917 27.69093733 -26.25 26.3125 C-30.31038903 22.95520863 -33.38006968 18.94100945 -36.64453125 14.828125 C-39.64887727 11.22091685 -42.93913355 7.99941734 -46.34765625 4.77734375 C-48 3 -48 3 -48 1 C-31.99105928 0.31496965 -16.02406534 -0.15457298 0 0 Z " fill="#FCFCFC" transform="translate(90,28)"/>
	

	

	<path d="M0 0 C3.44448566 0.00010274 6.88877038 -0.01371278 10.33320808 -0.03077221 C13.67591744 -0.04462505 17.01859052 -0.04398082 20.36132812 -0.04516602 C22.19124802 -0.05594429 22.19124802 -0.05594429 24.05813599 -0.06694031 C30.94054255 -0.04862248 37.29547385 0.50591889 43.97851562 2.18530273 C44.53084558 13.92830398 42.807113 25.23309825 41.09765625 36.82641602 C40.60082862 40.20356749 40.12073292 43.58280591 39.64257812 46.96264648 C39.33105838 49.12034032 39.01859233 51.27789779 38.70507812 53.43530273 C38.56228424 54.44052979 38.41949036 55.44575684 38.27236938 56.48144531 C38.13237518 57.42012451 37.99238098 58.35880371 37.84814453 59.32592773 C37.66827499 60.55617676 37.66827499 60.55617676 37.48477173 61.8112793 C36.72323843 65.38239261 35.83624803 68.32757033 33.22851562 70.93530273 C30.34743331 72.53590402 28.28165571 73.05317713 24.97851562 73.18530273 C21.60351563 71.74780273 21.60351563 71.74780273 18.97851562 70.18530273 C16.99851563 71.67030273 16.99851563 71.67030273 14.97851562 73.18530273 C13.98851563 72.69030273 13.98851563 72.69030273 12.97851562 72.18530273 C13.63851562 71.52530273 14.29851562 70.86530273 14.97851562 70.18530273 C15.14738981 62.34954078 10.10985747 56.56051033 4.97851562 51.18530273 C3.98851562 50.52530273 2.99851563 49.86530273 1.97851562 49.18530273 C1.97851562 48.52530273 1.97851562 47.86530273 1.97851562 47.18530273 C1.37910156 46.92233398 0.7796875 46.65936523 0.16210938 46.38842773 C-2.15165139 45.11358281 -3.29452509 43.96620796 -4.95898438 41.93530273 C-8.44509487 37.82017665 -12.04935647 33.833187 -15.70898438 29.87280273 C-16.2677124 29.26210938 -16.82644043 28.65141602 -17.40209961 28.0222168 C-19.65238109 25.59039038 -21.72265675 23.4012581 -24.41601562 21.45483398 C-24.94582031 21.03588867 -25.475625 20.61694336 -26.02148438 20.18530273 C-26.02148438 19.19530273 -26.02148438 18.20530273 -26.02148438 17.18530273 C-23.64032004 15.99472057 -22.09455539 16.02291315 -19.43579102 15.96411133 C-18.48462906 15.94093842 -17.5334671 15.9177655 -16.55348206 15.89389038 C-15.00817055 15.86411606 -15.00817055 15.86411606 -13.43164062 15.83374023 C-12.37617538 15.81058746 -11.32071014 15.78743469 -10.23326111 15.76358032 C-7.99808616 15.71590413 -5.7628579 15.67067459 -3.52758789 15.62768555 C-0.10152104 15.56064588 3.32418621 15.48286936 6.75 15.40405273 C8.91860643 15.35913232 11.087226 15.31484052 13.25585938 15.27124023 C14.28404282 15.24734222 15.31222626 15.22344421 16.37156677 15.19882202 C17.32588089 15.18195343 18.28019501 15.16508484 19.26342773 15.14770508 C20.10344833 15.13073578 20.94346893 15.11376648 21.8089447 15.09628296 C23.97851562 15.18530273 23.97851562 15.18530273 26.97851562 16.18530273 C28.53279084 21.23408933 27.46947792 25.84189343 26.66601562 30.93530273 C25.39262622 39.58435179 24.43363806 48.22132774 23.72851562 56.93530273 C23.63658936 58.02423828 23.54466309 59.11317383 23.44995117 60.23510742 C23.37172119 61.24476562 23.29349121 62.25442383 23.21289062 63.29467773 C23.10799316 64.63997559 23.10799316 64.63997559 23.00097656 66.01245117 C22.81269998 68.23403393 22.81269998 68.23403393 23.97851562 70.18530273 C28.51346401 69.86607484 28.51346401 69.86607484 32.62670898 68.14453125 C34.72950038 65.09686988 34.88210897 61.74284542 35.29492188 58.15014648 C35.39691391 57.3568544 35.49890594 56.56356232 35.60398865 55.74623108 C35.92840599 53.20643867 36.23544085 50.66492482 36.54101562 48.12280273 C36.95363213 44.79789993 37.3733083 41.47391914 37.79492188 38.15014648 C37.94487358 36.9525042 37.94487358 36.9525042 38.09785461 35.73066711 C38.72130756 30.85171588 39.53498158 26.06375588 40.57446289 21.25439453 C41.23302096 17.88202014 41.45317491 14.55267851 41.66601562 11.12280273 C41.79556641 9.18727539 41.79556641 9.18727539 41.92773438 7.21264648 C41.95287109 5.71411133 41.95287109 5.71411133 41.97851562 4.18530273 C40.16735939 2.3741465 37.67974062 3.06534897 35.26950073 3.06088257 C34.04059616 3.06627548 34.04059616 3.06627548 32.78686523 3.07177734 C31.928405 3.07163132 31.06994476 3.07148529 30.18547058 3.07133484 C27.33390824 3.07203427 24.48241037 3.07982803 21.63085938 3.08764648 C19.65930721 3.08951056 17.68775458 3.09093451 15.71620178 3.0919342 C10.51625296 3.09576022 5.31633187 3.10559121 0.11639404 3.11663818 C-5.18542099 3.12685051 -10.48724048 3.13143144 -15.7890625 3.13647461 C-26.19988201 3.14721341 -36.61068089 3.16429083 -47.02148438 3.18530273 C-47.1044708 5.42555973 -47.1637095 7.66670501 -47.21289062 9.90795898 C-47.2661853 11.77979858 -47.2661853 11.77979858 -47.32055664 13.68945312 C-46.84578641 19.23903263 -44.06497849 21.68042077 -40.02148438 25.18530273 C-38.70235209 26.51207478 -37.38951049 27.84514021 -36.08398438 29.18530273 C-35.06571151 30.18790987 -34.04586893 31.18894086 -33.02148438 32.18530273 C-36.02148438 32.18530273 -36.02148438 32.18530273 -38.86914062 29.70092773 C-39.9485862 28.62015115 -41.01991967 27.53122567 -42.08398438 26.43530273 C-42.62603516 25.89647461 -43.16808594 25.35764648 -43.7265625 24.80249023 C-47.71414069 20.76069281 -49.89429835 18.15668613 -50.27148438 12.31030273 C-50.1790855 8.50773354 -49.83851113 4.00232948 -47.02148438 1.18530273 C-44.30883493 0.93654192 -41.62387366 0.76127369 -38.90429688 0.63452148 C-38.02798615 0.59268234 -37.15167542 0.5508432 -36.24880981 0.50773621 C-24.17208701 -0.00651932 -12.08559227 -0.00188824 0 0 Z M-23.02148438 18.18530273 C-21.51994753 21.34550925 -20.02254978 23.34996277 -17.45898438 25.74780273 C-14.16220704 28.94286462 -11.25674639 32.28174619 -8.39648438 35.87280273 C-6.02913342 38.82488532 -3.80585459 41.5841887 -0.83398438 43.93530273 C2.13805298 46.31293262 4.32737135 48.86168267 6.68164062 51.82983398 C7.10960938 52.27713867 7.53757812 52.72444336 7.97851562 53.18530273 C8.63851562 53.18530273 9.29851562 53.18530273 9.97851562 53.18530273 C11.0007039 55.20696399 11.99952614 57.2311516 12.94335938 59.29077148 C13.26433594 59.9778418 13.5853125 60.66491211 13.91601562 61.37280273 C14.23441406 62.06760742 14.5528125 62.76241211 14.88085938 63.47827148 C15.94268159 65.52164656 15.94268159 65.52164656 18.97851562 66.18530273 C22.26121414 62.69819931 22.58088993 59.29577269 22.89257812 54.70874023 C22.95254974 53.98345123 23.01252136 53.25816223 23.0743103 52.51089478 C23.26312932 50.19482456 23.43373981 47.87783904 23.60351562 45.56030273 C23.72467727 44.02504858 23.84706125 42.48989038 23.97070312 40.95483398 C24.15004875 38.72338487 24.32755765 36.49191894 24.49713135 34.25970459 C24.80465832 30.21737554 25.17802098 26.19078024 25.62695312 22.16186523 C25.74296875 20.84959961 25.85898438 19.53733398 25.97851562 18.18530273 C24.08371111 16.29049822 21.31254604 17.05267292 18.79174805 17.04663086 C17.90463135 17.05114258 17.01751465 17.0556543 16.10351562 17.06030273 C15.19126221 17.06223633 14.27900879 17.06416992 13.33911133 17.06616211 C1.21128896 17.13899581 -10.90598492 17.66687463 -23.02148438 18.18530273 Z " fill="#C15A84" transform="translate(65.021484375,10.814697265625)"/>
	

	

	

</svg>
