<?xml version="1.0" encoding="iso-8859-1"?>
<svg height="128" version="1.1" width="128" xmlns="http://www.w3.org/2000/svg">
	

	<path d="M0 0 C42.24 0 84.48 0 128 0 C128 42.24 128 84.48 128 128 C85.76 128 43.52 128 0 128 C0 85.76 0 43.52 0 0 Z " fill="#046FC9" transform="translate(0,0)"/>
	

	<path d="M0 0 C1.32 0 2.64 0 4 0 C4.32613281 1.08539062 4.65226562 2.17078125 4.98828125 3.2890625 C5.42940906 4.73446001 5.87083096 6.17976778 6.3125 7.625 C6.52583984 8.33785156 6.73917969 9.05070312 6.95898438 9.78515625 C10.1673452 20.22430041 15.58552757 25.94293216 23.8125 32.8125 C24.40998047 33.31458984 25.00746094 33.81667969 25.62304688 34.33398438 C27.08028848 35.55806732 28.53989865 36.77932962 30 38 C29.7734375 39.90234375 29.7734375 39.90234375 29 42 C27.0390625 42.94140625 27.0390625 42.94140625 24.625 43.5625 C21.21860491 44.45570783 19.15781099 45.14612095 17 48 C15.90735377 50.83340202 15.04097118 53.69601714 14.16015625 56.6015625 C13 59 13 59 11.12109375 60.0859375 C9 60 9 60 6.98046875 58.37890625 C4.96968086 55.96358115 3.10672146 53.51790961 1.3125 50.9375 C0.40951172 49.65166016 0.40951172 49.65166016 -0.51171875 48.33984375 C-2 46 -2 46 -3 43 C-7.78863654 41.85865171 -7.78863654 41.85865171 -12.33984375 43.19921875 C-15.93832294 45.63519365 -19.48966391 48.13335685 -23.0078125 50.68359375 C-31.20070978 56.47714254 -38.11776692 58.07628281 -48 57 C-54.29210668 55.2839709 -58.36941551 51.28517873 -62 46 C-63.91904851 42.41221365 -64.10377765 40.8269663 -63 37 C-62.5875 37.53109375 -62.175 38.0621875 -61.75 38.609375 C-57.80260221 43.43788837 -54.11584344 47.2240291 -48 49 C-43.3567703 48.90713541 -40.0673341 47.12610646 -36 45 C-35.34 45 -34.68 45 -34 45 C-34 44.34 -34 43.68 -34 43 C-32.23947136 41.41929472 -30.41580202 39.90833714 -28.5625 38.4375 C-27.55316406 37.63183594 -26.54382812 36.82617188 -25.50390625 35.99609375 C-24.67761719 35.33738281 -23.85132813 34.67867187 -23 34 C-21.56566519 32.79338423 -21.56566519 32.79338423 -21.875 29.25 C-21.88853171 26.71957026 -22.0551912 24.78425258 -22.6875 22.3125 C-23 20 -23 20 -21.8125 17.25 C-20 15 -20 15 -18.1875 14 C-14.9707593 14 -12.78622313 15.4857483 -10 17 C-9.34 17 -8.68 17 -8 17 C-7.82984375 16.34773438 -7.6596875 15.69546875 -7.484375 15.0234375 C-5.89604042 9.2952947 -4.30139905 4.30139905 0 0 Z " fill="#F9FBFA" transform="translate(74,26)"/>
	

	<path d="M0 0 C3.32074848 2.21383232 3.45546649 2.5866268 4.39453125 6.21875 C4.62462891 7.06405273 4.85472656 7.90935547 5.09179688 8.78027344 C5.32962891 9.6777832 5.56746094 10.57529297 5.8125 11.5 C7.95869149 19.09773304 10.28800198 25.5768027 15 32 C15.44859375 32.68835938 15.8971875 33.37671875 16.359375 34.0859375 C24.61920707 46.19726429 37.62004713 51.5991317 50.421875 57.60546875 C53 59 53 59 54 61 C36.18 61 18.36 61 0 61 C0 40.87 0 20.74 0 0 Z " fill="#F9FBFA" transform="translate(0,67)"/>
	

	<path d="M0 0 C14.19 0 28.38 0 43 0 C43 14.52 43 29.04 43 44 C39.9483402 40.9483402 39.23660463 39.38077888 37.8125 35.4375 C35.20612176 28.95677573 31.66555846 24.14912882 27 19 C26.42121094 18.35160156 25.84242187 17.70320313 25.24609375 17.03515625 C18.87772299 10.28261463 11.69635425 5.93019872 2.96875 2.859375 C1 2 1 2 0 0 Z " fill="#F9FBFA" transform="translate(85,0)"/>
	

	<path d="M0 0 C13.53 0 27.06 0 41 0 C41 0.66 41 1.32 41 2 C39.89205078 2.38478516 39.89205078 2.38478516 38.76171875 2.77734375 C24.20356023 8.2713375 12.68133407 18.90158972 6 33 C5.08376235 36.16483754 4.35138663 39.29472094 3.73828125 42.53125 C3 45 3 45 0 47 C0 31.49 0 15.98 0 0 Z " fill="#F9FBFA" transform="translate(0,0)"/>
	

	<path d="M0 0 C0.66 0 1.32 0 2 0 C2 13.86 2 27.72 2 42 C-12.19 42 -26.38 42 -41 42 C-41 41.34 -41 40.68 -41 40 C-40.29875 39.68546875 -39.5975 39.3709375 -38.875 39.046875 C-36.89380358 38.15318314 -34.91612449 37.25166643 -32.94140625 36.34375 C-31.25089307 35.57145713 -29.55369677 34.81276248 -27.83984375 34.09375 C-14.25177188 28.06700765 -6.08121692 15.63500398 -0.84765625 2.2734375 C-0.56792969 1.52320312 -0.28820312 0.77296875 0 0 Z " fill="#F9FBFA" transform="translate(126,86)"/>
	

	<path d="M0 0 C0.17015625 0.82242187 0.3403125 1.64484375 0.515625 2.4921875 C2.06985061 9.65154589 3.96437444 16.32653976 7 23 C7.28746094 23.71027344 7.57492188 24.42054687 7.87109375 25.15234375 C9.28644438 27.46881727 10.53893155 27.925832 13 29 C17.70424413 32.18915954 22.32983461 35.64167859 26 40 C26 41.32 26 42.64 26 44 C22.73142011 46.17905326 19.78213852 47.09373811 16.05859375 48.21875 C13.81875758 48.90777029 13.81875758 48.90777029 12 51 C10.9622815 54.35296439 10.08062227 57.73273893 9.1953125 61.12890625 C8 64 8 64 6.1796875 65.15234375 C2.75267116 64.9128211 1.4268109 63.38593047 -1 61 C-2.75711902 58.7138782 -4.29465475 56.32476688 -5.8125 53.875 C-6.21919922 53.24207031 -6.62589844 52.60914063 -7.04492188 51.95703125 C-10 47.27857143 -10 47.27857143 -10 45 C-17.25558489 45.9362045 -20.99163532 48.23524054 -26.5078125 52.9609375 C-33.70630089 58.85060982 -40.65242299 61.52247426 -49.91796875 61.3984375 C-56.484596 60.54951991 -62.40349402 57.68188432 -67.01953125 52.9140625 C-70.78075046 47.69777308 -73.70167678 41.43035455 -72.6640625 34.87890625 C-72.125 32.9375 -72.125 32.9375 -71 30 C-70.01 30.33 -69.02 30.66 -68 31 C-67.4453125 32.85546875 -67.4453125 32.85546875 -67.125 35.1875 C-65.97382862 41.17168841 -63.42526649 44.08531593 -58.625 47.875 C-54.98689885 49.43418621 -52.95368115 49.58333001 -49 49 C-42.27525852 45.9554653 -32.241637 40.20459283 -29.2109375 33.16796875 C-28.81397309 29.08805675 -29.60854495 25.04236437 -30.13671875 20.99609375 C-30 18 -30 18 -28.3046875 16.08203125 C-25.64127482 14.83158157 -24.31966444 14.80133819 -21.4375 15.25 C-20.29087891 15.41242187 -20.29087891 15.41242187 -19.12109375 15.578125 C-17 16 -17 16 -14 17 C-13.938125 16.030625 -13.87625 15.06125 -13.8125 14.0625 C-13.11904571 9.20831994 -10.94294406 4.89483971 -8 1 C-5.02419182 -1.0545804 -3.38930198 -1.21046499 0 0 Z M-6 2 C-10.89722979 7.18530213 -12.4183489 12.22149529 -14 19 C-14.7425 18.690625 -15.485 18.38125 -16.25 18.0625 C-17.1575 17.711875 -18.065 17.36125 -19 17 C-19.66 16.731875 -20.32 16.46375 -21 16.1875 C-24.09845762 15.8970196 -25.60885724 17.12586108 -28 19 C-29.00094295 21.21637367 -29.15074786 22.39700856 -28.5625 24.75 C-26.89375 31.425 -26.89375 31.425 -28 35 C-31.3986279 38.90872938 -35.3329203 42.66646015 -40 45 C-40 45.66 -40 46.32 -40 47 C-40.886875 47.28875 -41.77375 47.5775 -42.6875 47.875 C-45.91012071 48.89817715 -45.91012071 48.89817715 -48.5 50.1875 C-51.89634675 51.29131269 -53.57488535 51.07454577 -57 50 C-61.8945736 46.95534398 -66.06253058 43.18356126 -70 39 C-69.73015349 45.47631613 -67.41329746 49.30065549 -63 54 C-57.27345497 58.79047517 -51.82820659 59.47515707 -44.546875 59.40234375 C-36.28452341 58.46509462 -29.95490609 53.94509218 -23.75 48.6875 C-19.39460957 45.0064926 -16.69731497 43.89826223 -11 44 C-8.41326333 45.29336834 -8.01352245 46.57661809 -6.6875 49.125 C-2.87118361 57.03950345 -2.87118361 57.03950345 3.8125 61.9375 C4.534375 61.958125 5.25625 61.97875 6 62 C6.433125 60.989375 6.86625 59.97875 7.3125 58.9375 C7.73208984 57.98423828 7.73208984 57.98423828 8.16015625 57.01171875 C8.94722717 55.12640934 9.60394488 53.18816537 10.25 51.25 C12.52220534 47.03019008 14.52410633 46.46624103 19 45 C20.4540625 44.4121875 20.4540625 44.4121875 21.9375 43.8125 C22.618125 43.544375 23.29875 43.27625 24 43 C23.16817009 38.33119943 20.31023964 36.39433175 16.75 33.5625 C4.89129043 23.95561281 4.89129043 23.95561281 2.3125 16.125 C1.91675781 14.95195313 1.52101563 13.77890625 1.11328125 12.5703125 C0.01856134 9.05952656 -1.00834675 5.54097189 -2 2 C-3.32 2 -4.64 2 -6 2 Z " fill="#5496C8" transform="translate(80,24)"/>
	

	<path d="M0 0 C1.32 0 2.64 0 4 0 C4.32613281 1.08539062 4.65226562 2.17078125 4.98828125 3.2890625 C5.42940906 4.73446001 5.87083096 6.17976778 6.3125 7.625 C6.52583984 8.33785156 6.73917969 9.05070312 6.95898438 9.78515625 C10.1673452 20.22430041 15.58552757 25.94293216 23.8125 32.8125 C24.40998047 33.31458984 25.00746094 33.81667969 25.62304688 34.33398438 C27.08028848 35.55806732 28.53989865 36.77932962 30 38 C29.7734375 39.90234375 29.7734375 39.90234375 29 42 C27.0390625 42.94140625 27.0390625 42.94140625 24.625 43.5625 C21.21860491 44.45570783 19.15781099 45.14612095 17 48 C15.90735377 50.83340202 15.04097118 53.69601714 14.16015625 56.6015625 C13 59 13 59 11.12109375 60.0859375 C9 60 9 60 6.98046875 58.37890625 C4.96968086 55.96358115 3.10672146 53.51790961 1.3125 50.9375 C0.40951172 49.65166016 0.40951172 49.65166016 -0.51171875 48.33984375 C-2 46 -2 46 -3 43 C-7.78863654 41.85865171 -7.78863654 41.85865171 -12.33984375 43.19921875 C-15.93832294 45.63519365 -19.48966391 48.13335685 -23.0078125 50.68359375 C-31.20070978 56.47714254 -38.11776692 58.07628281 -48 57 C-54.29210668 55.2839709 -58.36941551 51.28517873 -62 46 C-63.91904851 42.41221365 -64.10377765 40.8269663 -63 37 C-62.5875 37.53109375 -62.175 38.0621875 -61.75 38.609375 C-57.80260221 43.43788837 -54.11584344 47.2240291 -48 49 C-43.3567703 48.90713541 -40.0673341 47.12610646 -36 45 C-35.34 45 -34.68 45 -34 45 C-34 44.34 -34 43.68 -34 43 C-32.23947136 41.41929472 -30.41580202 39.90833714 -28.5625 38.4375 C-27.55316406 37.63183594 -26.54382812 36.82617188 -25.50390625 35.99609375 C-24.67761719 35.33738281 -23.85132813 34.67867187 -23 34 C-21.56566519 32.79338423 -21.56566519 32.79338423 -21.875 29.25 C-21.88853171 26.71957026 -22.0551912 24.78425258 -22.6875 22.3125 C-23 20 -23 20 -21.8125 17.25 C-20 15 -20 15 -18.1875 14 C-14.9707593 14 -12.78622313 15.4857483 -10 17 C-9.34 17 -8.68 17 -8 17 C-7.82984375 16.34773438 -7.6596875 15.69546875 -7.484375 15.0234375 C-5.89604042 9.2952947 -4.30139905 4.30139905 0 0 Z M0 2 C-3.8741903 8.6276327 -5.6212008 13.29711007 -5 21 C-6.03125 20.54625 -7.0625 20.0925 -8.125 19.625 C-11.36437508 18.23292639 -14.63739693 17.06619122 -18 16 C-19.7061252 17.07237524 -19.7061252 17.07237524 -21 19 C-20.6028091 22.00927808 -20.6028091 22.00927808 -19.8125 25.375 C-19.44341753 29.00556633 -19.17383031 31.70183064 -21.18457031 34.86132812 C-26.89067982 41.42813571 -35.22991669 48.86796623 -44.09228516 50.34985352 C-48.63337297 50.53981512 -51.3191004 49.52404544 -55 47 C-55.99 47 -56.98 47 -58 47 C-56.59335278 50.39939744 -55.16905621 52.11569631 -52 54 C-44.25919101 57.03561137 -37.60956714 55.87177923 -30.0715332 52.95629883 C-26.66245746 51.38253929 -23.78270458 49.21233896 -20.8125 46.9375 C-11.59625923 39.95733076 -11.59625923 39.95733076 -5.91015625 40.05078125 C-2.1110745 41.28994483 -1.36702428 42.74225303 0.5625 46.1875 C3.09883982 50.51618662 5.66612514 54.2620191 9 58 C9.99 57.67 10.98 57.34 12 57 C12.80792081 54.82948876 12.80792081 54.82948876 13.3125 52.25 C14.79000842 46.89881664 16.22046167 44.84934016 21 42 C24.875 41.1875 24.875 41.1875 28 41 C27.61402985 38.20171644 27.19863427 37.1794116 25.0625 35.25 C23.11688783 33.82723276 23.11688783 33.82723276 21 34 C20.505 32.515 20.505 32.515 20 31 C18.62243806 29.92698171 17.19807314 28.91327114 15.75 27.9375 C8.06715598 22.12048953 5.74933362 14.30048616 3.7734375 5.15234375 C3.51820312 4.44207031 3.26296875 3.73179688 3 3 C2.01 2.67 1.02 2.34 0 2 Z " fill="#AACADE" transform="translate(74,26)"/>
	

	<path d="M0 0 C3.95865452 2.63910301 4.28534831 5.56794831 5.4375 9.9375 C5.87410582 11.49150415 6.31290961 13.04489243 6.75390625 14.59765625 C6.9667627 15.35449707 7.17961914 16.11133789 7.39892578 16.89111328 C12.49990343 34.78804461 22.2596979 47.26146186 38.44140625 56.375 C43.50491147 59.0375004 48.38996912 60.84896443 53.96875 62.12890625 C56 63 56 63 57.28125 65.08984375 C57.5184375 65.72019531 57.755625 66.35054688 58 67 C43.9809548 65.19109094 26.73416024 54.20527622 17.92578125 43.47265625 C10.83698486 34.13012053 6.71698956 24.95827722 3.69848633 13.71240234 C2.60356983 9.45227663 2.60356983 9.45227663 0 6 C-0.125 2.875 -0.125 2.875 0 0 Z " fill="#5496C8" transform="translate(0,61)"/>
	

	<path d="M0 0 C3.32074848 2.21383232 3.45546649 2.5866268 4.39453125 6.21875 C4.62462891 7.06405273 4.85472656 7.90935547 5.09179688 8.78027344 C5.32962891 9.6777832 5.56746094 10.57529297 5.8125 11.5 C7.95869149 19.09773304 10.28800198 25.5768027 15 32 C15.44859375 32.68835938 15.8971875 33.37671875 16.359375 34.0859375 C24.61920707 46.19726429 37.62004713 51.5991317 50.421875 57.60546875 C53 59 53 59 54 61 C39.33546875 58.98999668 23.75760114 47.38700197 15 36 C14.41605469 35.29746094 13.83210937 34.59492187 13.23046875 33.87109375 C8.19734716 27.39053849 5.76231937 20.46807134 3.26171875 12.7578125 C2.32435931 9.96604847 1.3125467 7.60067393 0 5 C-0.125 2.25 -0.125 2.25 0 0 Z " fill="#AACADE" transform="translate(0,67)"/>
	

	

	

	

	

	

	

</svg>
