<?xml version="1.0" encoding="iso-8859-1"?>
<svg height="128" version="1.1" width="128" xmlns="http://www.w3.org/2000/svg">
	

	<path d="M0 0 C42.24 0 84.48 0 128 0 C128 42.24 128 84.48 128 128 C85.76 128 43.52 128 0 128 C0 85.76 0 43.52 0 0 Z " fill="#FCFCFC" transform="translate(0,0)"/>
	

	<path d="M0 0 C2.97398572 1.734825 3.9967047 2.51715959 5 5.75 C5.66 5.75 6.32 5.75 7 5.75 C7.66 4.76 8.32 3.77 9 2.75 C11.86328125 2.1328125 11.86328125 2.1328125 15.3125 1.875 C16.44300781 1.77445313 17.57351562 1.67390625 18.73828125 1.5703125 C23.18596276 1.81533448 25.61361813 3.45923067 28.8125 6.4375 C30.57419001 9.8681595 30.62166429 13.02699928 30 16.75 C28.07151215 21.05201137 26.1397023 23.72054009 22.6875 26.875 C21.3571875 28.298125 21.3571875 28.298125 20 29.75 C20.62304194 37.31550931 25.00701322 44.97989599 28.5625 51.5625 C31.9185269 58.12539706 35.46540703 67.08281968 34.72265625 74.53125 C33.47515381 78.36141965 30.80129028 80.94870972 28 83.75 C28.66 84.08 29.32 84.41 30 84.75 C28.74297559 92.04404955 22.12453701 97.77187834 17 102.75 C16.34 103.74 15.68 104.73 15 105.75 C14.34 105.75 13.68 105.75 13 105.75 C12.34 109.05 11.68 112.35 11 115.75 C-0.22 115.75 -11.44 115.75 -23 115.75 C-25.38596543 110.97806914 -25.33179274 108.97573558 -25 103.75 C-24.34 102.76 -23.68 101.77 -23 100.75 C-22.75944532 98.69290404 -22.75944532 98.69290404 -22.875 96.5625 C-22.91625 95.304375 -22.9575 94.04625 -23 92.75 C-23.99 94.4 -24.98 96.05 -26 97.75 C-29.79588866 97.20773019 -31.47211993 95.54872437 -34 92.75 C-33.34 91.1 -32.68 89.45 -32 87.75 C-30.88625 87.95625 -29.7725 88.1625 -28.625 88.375 C-26.830625 88.560625 -26.830625 88.560625 -25 88.75 C-24.01 87.76 -24.01 87.76 -23 86.75 C-21.68 86.75 -20.36 86.75 -19 86.75 C-18.85304688 85.84121094 -18.70609375 84.93242188 -18.5546875 83.99609375 C-17.1664194 76.21700525 -15.22810094 69.26112072 -12.13574219 61.98974609 C-10.1419237 57.26734542 -8.88393961 52.78845577 -8 47.75 C-6.35 48.08 -4.7 48.41 -3 48.75 C-1.98517826 51.79446523 -1.83306466 54.12255438 -1.6875 57.3125 C-1.23185337 63.17183085 -0.16351292 68.70846512 3 73.75 C4.33282326 74.41768584 5.66613461 75.08439851 7 75.75 C7.97124567 77.7594738 8.49409006 79.72884865 9.09375 81.875 C10.26636419 84.30109833 11.54450522 84.78390369 14 85.75 C13.61576158 73.4927943 10.80928227 65.114314 4.171875 54.87890625 C3 52.75 3 52.75 3 49.75 C2.236875 49.523125 1.47375 49.29625 0.6875 49.0625 C-2.77448129 47.37176495 -3.57905405 46.33975819 -5 42.75 C-5.23597122 39.40023458 -5.17571279 36.10155877 -5 32.75 C-6.546875 32.8428125 -6.546875 32.8428125 -8.125 32.9375 C-12.23468973 32.73864405 -14.48882496 31.80532197 -18 29.75 C-18 29.09 -18 28.43 -18 27.75 C-18.763125 27.46125 -19.52625 27.1725 -20.3125 26.875 C-23 25.75 -23 25.75 -26 23.75 C-28.70716676 23.65890652 -28.70716676 23.65890652 -31.6875 23.875 C-37.63782992 24.00514087 -40.96986395 22.84546834 -46 19.75 C-46 12.75477327 -46 12.75477327 -43.36328125 10.10546875 C-39.31404549 7.42911673 -35.93799402 5.85218291 -31 6.75 C-28.625 8.25 -28.625 8.25 -27 9.75 C-26.47212891 9.06164062 -26.47212891 9.06164062 -25.93359375 8.359375 C-18.96868194 -0.2967556 -11.05038164 -4.16691474 0 0 Z " fill="#D4E0E1" transform="translate(72,12.25)"/>
	

	<path d="M0 0 C3.0625 1.8125 3.0625 1.8125 4.5 4.5 C4.7784375 5.6446875 4.7784375 5.6446875 5.0625 6.8125 C7.23838537 5.83710311 8.80336032 5.12825174 10.33203125 3.265625 C13.47558997 0.62588721 17.24285771 1.35568105 21.16796875 1.46484375 C24.0625 1.8125 24.0625 1.8125 27.25 3.4375 C29.53032405 6.42551082 30.0625 8.04506827 30.0625 11.8125 C28.23677973 17.2896608 25.90874311 22.19706472 20.75 25.125 C17.45286267 25.96845373 14.45142043 25.94539884 11.0625 25.8125 C10.375 24 10.375 24 10.0625 21.8125 C12.2939642 18.18637068 16.15062085 17.77201753 20.0625 16.8125 C20.0625 15.1625 20.0625 13.5125 20.0625 11.8125 C13.81963601 12.51008037 13.81963601 12.51008037 8.0625 14.8125 C6.76512723 17.44439171 6.76512723 17.44439171 6.1875 20.5625 C5.94257812 21.58859375 5.69765625 22.6146875 5.4453125 23.671875 C5.04256344 26.97606114 5.35491451 29.57505408 6.0625 32.8125 C6.7225 32.8125 7.3825 32.8125 8.0625 32.8125 C8.18625 33.92625 8.31 35.04 8.4375 36.1875 C8.7090813 39.84353677 8.7090813 39.84353677 11.0625 41.8125 C11.46297444 44.13525177 11.8022104 46.46989357 12.0625 48.8125 C13.0525 49.1425 14.0425 49.4725 15.0625 49.8125 C15.75508229 51.80367408 16.41997635 53.8046136 17.0625 55.8125 C18.05970281 56.81528938 19.06006396 57.81494199 20.0625 58.8125 C21.0039298 60.34795874 21.89884864 61.91271774 22.75 63.5 C23.18699219 64.30824219 23.62398438 65.11648437 24.07421875 65.94921875 C24.40035156 66.56410156 24.72648437 67.17898437 25.0625 67.8125 C26.031875 67.626875 27.00125 67.44125 28 67.25 C29.010625 67.105625 30.02125 66.96125 31.0625 66.8125 C32.0625 67.8125 32.0625 67.8125 32.375 70.0625 C31.9534323 73.77229578 30.65308632 75.15374036 28.0625 77.8125 C22.87331081 81.8125 22.87331081 81.8125 18.0625 81.8125 C18.145 80.678125 18.2275 79.54375 18.3125 78.375 C18.25592174 67.60627053 9.93940479 57.30411124 4.375 48.5625 C3.59898843 47.31570809 2.82807127 46.06572969 2.0625 44.8125 C1.64484375 44.13445313 1.2271875 43.45640625 0.796875 42.7578125 C-2.12021858 37.60428051 -2.12021858 37.60428051 -1.1875 33.5625 C-0.56875 32.20125 -0.56875 32.20125 0.0625 30.8125 C0.0625 29.4925 0.0625 28.1725 0.0625 26.8125 C-0.64777344 26.82410156 -1.35804687 26.83570312 -2.08984375 26.84765625 C-3.00894531 26.85667969 -3.92804688 26.86570312 -4.875 26.875 C-5.79152344 26.88660156 -6.70804688 26.89820312 -7.65234375 26.91015625 C-9.9375 26.8125 -9.9375 26.8125 -10.9375 25.8125 C-11.989375 25.73 -13.04125 25.6475 -14.125 25.5625 C-18.93921763 24.61544079 -20.46765565 23.2016503 -23.9375 19.8125 C-24.5975 18.8225 -25.2575 17.8325 -25.9375 16.8125 C-27.2678125 17.8334375 -27.2678125 17.8334375 -28.625 18.875 C-31.9375 20.8125 -31.9375 20.8125 -34.5 20.75 C-37.34487684 19.6558166 -39.54949745 18.73616872 -41.9375 16.8125 C-42.75 13.625 -42.75 13.625 -42.9375 10.8125 C-39.8255421 8.44148446 -37.66568857 6.91244745 -33.75 6.375 C-30.59990594 6.86501463 -29.9651452 7.4951912 -27.9375 9.8125 C-26.9475 9.8125 -25.9575 9.8125 -24.9375 9.8125 C-23.92398336 8.15401823 -22.92629205 6.48584039 -21.9375 4.8125 C-15.27890172 -1.16316512 -8.62241811 -3.17478156 0 0 Z " fill="#7DCFE3" transform="translate(70.9375,14.1875)"/>
	

	<path d="M0 0 C0.99 0 1.98 0 3 0 C3.43441406 1.16402344 3.86882812 2.32804687 4.31640625 3.52734375 C5.34669806 6.27740711 6.39339349 9.01963501 7.46484375 11.75390625 C10.08280873 18.48344123 12.52654018 25.23839292 14.5 32.1875 C15.01046875 33.97220703 15.01046875 33.97220703 15.53125 35.79296875 C16.05153833 39.35260807 15.61176204 40.84726278 14 44 C13.67 44.99 13.34 45.98 13 47 C5.74 47 -1.52 47 -9 47 C-9.495 45.515 -9.495 45.515 -10 44 C-11.29355827 42.62804426 -12.62298702 41.28817344 -14 40 C-13.07248802 38.0369164 -12.13263547 36.07965973 -11.1875 34.125 C-10.66542969 33.03445312 -10.14335938 31.94390625 -9.60546875 30.8203125 C-8 28 -8 28 -5 26 C-4.67 26.99 -4.34 27.98 -4 29 C-2.35 29 -0.7 29 1 29 C1.41831404 25.71000718 1.41831404 25.71000718 1 22 C0.154375 21.21625 -0.69125 20.4325 -1.5625 19.625 C-4 17 -4 17 -4.21484375 14.97265625 C-3.71235643 9.62801844 -2.06132355 4.92925197 0 0 Z " fill="#26C1E2" transform="translate(63,81)"/>
	

	

	

	

	<path d="M0 0 C36.3 0 72.6 0 110 0 C110 1.32 110 2.64 110 4 C109.41992188 3.91621094 108.83984375 3.83242188 108.2421875 3.74609375 C107.46101563 3.64425781 106.67984375 3.54242188 105.875 3.4375 C105.10929687 3.33308594 104.34359375 3.22867187 103.5546875 3.12109375 C100.94724457 2.9060789 100.94724457 2.9060789 98.19921875 3.4765625 C94.4148105 4.09574529 90.75379604 4.02379053 86.9375 3.9375 C74.62359044 3.65973914 74.62359044 3.65973914 63 7 C61.17651367 6.88330078 61.17651367 6.88330078 58.98046875 6.5703125 C54.07135822 5.95925251 49.25470552 5.85122034 44.3125 5.875 C43.49716797 5.87113281 42.68183594 5.86726562 41.84179688 5.86328125 C38.37884523 5.8688802 35.21194782 5.96071211 31.796875 6.59375 C28.44955644 7.0799527 26.18809648 6.52086603 22.9375 5.625 C15.3494711 3.71710295 7.81727522 3 0 3 C0 2.01 0 1.02 0 0 Z " fill="#BBD0D3" transform="translate(18,0)"/>
	

	

	

	

	

	

	<path d="M0 0 C0.56460938 0.32524658 1.12921875 0.65049316 1.7109375 0.9855957 C4.23072997 2.10224862 5.88474874 2.2446944 8.625 2.23046875 C9.49640625 2.22853516 10.3678125 2.22660156 11.265625 2.22460938 C12.16796875 2.21236328 13.0703125 2.20011719 14 2.1875 C14.90234375 2.18685547 15.8046875 2.18621094 16.734375 2.18554688 C20.67209997 2.15933421 24.19377322 2.08896757 28 1 C28.33 1.99 28.66 2.98 29 4 C28.01 5.98 27.02 7.96 26 10 C18.74 10 11.48 10 4 10 C3.67 9.01 3.34 8.02 3 7 C1.70644173 5.62804426 0.37701298 4.28817344 -1 3 C-0.67 2.01 -0.34 1.02 0 0 Z " fill="#2A6069" transform="translate(50,118)"/>
	

	

	

	

	

	

	

	

	

	

	

	

	

	

	

	

	

	

	

	

	

	

	

</svg>
