<?xml version="1.0" encoding="iso-8859-1"?>
<svg height="128" version="1.1" width="128" xmlns="http://www.w3.org/2000/svg">
	

	<path d="M0 0 C42.24 0 84.48 0 128 0 C128 42.24 128 84.48 128 128 C85.76 128 43.52 128 0 128 C0 85.76 0 43.52 0 0 Z " fill="#414651" transform="translate(0,0)"/>
	

	<path d="M0 0 C1.66603271 0.0153479 1.66603271 0.0153479 3.36572266 0.03100586 C11.5710834 0.24413995 17.62271702 1.18588916 24.6875 5.5625 C25.61046875 6.07039063 26.5334375 6.57828125 27.484375 7.1015625 C36.1227969 12.13666477 45.13663847 19.46077695 49.6875 28.5625 C49.9375 31.9375 49.9375 31.9375 49.6875 34.5625 C47.3775 34.2325 45.0675 33.9025 42.6875 33.5625 C42.42066406 34.27535156 42.15382813 34.98820312 41.87890625 35.72265625 C40.2550113 39.5933829 38.1357441 43.12211956 36.02734375 46.74609375 C34.33743747 49.96524016 34.33743747 49.96524016 33.6875 55.5625 C37.9775 55.8925 42.2675 56.2225 46.6875 56.5625 C46.6875 62.76835624 42.62832589 66.02613885 38.6875 70.5625 C38.2028125 71.12066406 37.718125 71.67882812 37.21875 72.25390625 C30.28749452 79.69611967 15.35768833 81.68658529 5.5 82.125 C-4.63366495 81.72132379 -15.73549092 77.39784417 -23.3125 70.5625 C-23.3125 69.9025 -23.3125 69.2425 -23.3125 68.5625 C-24.7975 68.0675 -24.7975 68.0675 -26.3125 67.5625 C-28.86197028 65.0855265 -31.06875073 62.31641743 -33.3125 59.5625 C-33.78300781 58.99015625 -34.25351562 58.4178125 -34.73828125 57.828125 C-39.12125272 52.12890513 -43.04357244 44.92278862 -42.3125 37.5625 C-41.6525 36.9025 -40.9925 36.2425 -40.3125 35.5625 C-40.415625 34.428125 -40.51875 33.29375 -40.625 32.125 C-40.79521182 25.87255249 -36.81952062 21.42981952 -33.3125 16.5625 C-32.78785156 15.79035156 -32.26320313 15.01820312 -31.72265625 14.22265625 C-28.73133848 9.9618137 -25.94926985 7.10817757 -21.3125 4.5625 C-20.70293457 4.22387939 -20.09336914 3.88525879 -19.46533203 3.53637695 C-12.9818544 0.27335592 -7.18349109 -0.09903412 0 0 Z " fill="#DF9B40" transform="translate(50.3125,23.4375)"/>
	

	<path d="M0 0 C2.86460446 2.47528741 4.98736701 5.03832347 7.328125 8.01171875 C9.36244629 9.86326899 11.44387553 11.63954185 13.55859375 13.3984375 C15.328125 15.01171875 15.328125 15.01171875 17.328125 18.01171875 C16.14184422 22.24011835 13.73242293 25.93546904 11.515625 29.69921875 C9.07889591 33.85794665 6.84706341 37.9744713 4.890625 42.38671875 C-0.08488144 52.32141849 -8.09358381 56.04161516 -18.12109375 59.39453125 C-22.09894422 60.0859508 -24.10651078 59.88259952 -27.671875 58.01171875 C-28.6875 56.26953125 -28.6875 56.26953125 -28.671875 54.01171875 C-27.78125 51.06640625 -27.78125 51.06640625 -26.421875 47.88671875 C-25.98359375 46.83226562 -25.5453125 45.7778125 -25.09375 44.69140625 C-23.671875 42.01171875 -23.671875 42.01171875 -20.671875 40.01171875 C-20.671875 39.35171875 -20.671875 38.69171875 -20.671875 38.01171875 C-25.06076825 38.67670258 -28.6530235 40.19929552 -32.671875 42.01171875 C-32.630625 43.24921875 -32.589375 44.48671875 -32.546875 45.76171875 C-32.53529209 49.02809837 -32.8150048 51.22641345 -34.671875 54.01171875 C-39.64804244 52.07654252 -44.11587348 49.7959419 -48.671875 47.01171875 C-48.341875 44.04171875 -48.011875 41.07171875 -47.671875 38.01171875 C-49.3115625 38.07359375 -49.3115625 38.07359375 -50.984375 38.13671875 C-54.671875 38.01171875 -54.671875 38.01171875 -57.671875 36.01171875 C-56.72372071 34.3150216 -55.70842568 32.65590258 -54.671875 31.01171875 C-53.99125 29.89796875 -53.310625 28.78421875 -52.609375 27.63671875 C-49.35827124 24.7314771 -48.85807504 24.5951243 -44.734375 24.82421875 C-40.4317349 25.50557525 -38.6157396 26.83810042 -35.50390625 29.9140625 C-31.26380746 32.45450548 -25.35338518 32.03995742 -20.671875 31.01171875 C-17.92229162 28.21189381 -16.25169123 25.92547829 -15.671875 22.01171875 C-22.85983894 20.21472776 -29.20299456 20.92328788 -36.27734375 22.671875 C-39.04474773 23.0646387 -40.94620015 22.61390273 -43.671875 22.01171875 C-46.2786877 21.79290856 -48.87407689 21.60159022 -51.484375 21.44921875 C-52.17724609 21.40603516 -52.87011719 21.36285156 -53.58398438 21.31835938 C-55.27976186 21.21310422 -56.97579552 21.11199012 -58.671875 21.01171875 C-58.671875 19.69171875 -58.671875 18.37171875 -58.671875 17.01171875 C-51.70023534 13.52589892 -37.95290912 13.66864922 -30.484375 16.01171875 C-29.55625 16.34171875 -28.628125 16.67171875 -27.671875 17.01171875 C-23.00971584 17.3548789 -23.00971584 17.3548789 -18.671875 16.01171875 C-19.2418253 12.70600701 -19.99516546 11.06386273 -22.671875 9.01171875 C-23.8475 8.57859375 -25.023125 8.14546875 -26.234375 7.69921875 C-29.671875 6.01171875 -29.671875 6.01171875 -31.109375 2.82421875 C-31.295 1.89609375 -31.480625 0.96796875 -31.671875 0.01171875 C-33.3425 0.07359375 -33.3425 0.07359375 -35.046875 0.13671875 C-38.671875 0.01171875 -38.671875 0.01171875 -40.671875 -1.98828125 C-40.671875 -3.92578125 -40.671875 -3.92578125 -39.671875 -5.98828125 C-26.29970637 -14.38475923 -11.47337855 -8.86728256 0 0 Z " fill="#D5374A" transform="translate(75.671875,38.98828125)"/>
	

	

	

	

	

	

	

	

	

	

	

	

	

	

	

	

	

	

	

	

	

	

	<path d="M0 0 C2.625 -0.1875 2.625 -0.1875 5 0 C5.87191947 1.38481328 6.72190384 2.78345246 7.5625 4.1875 C8.03816406 4.96480469 8.51382813 5.74210938 9.00390625 6.54296875 C10.20411947 9.50349469 9.95053848 10.99255858 9 14 C8 15 8 15 5.8125 15.4375 C2.13737261 14.86581352 0.58155936 13.412499 -1.8984375 10.72265625 C-3 9 -3 9 -3 5.8125 C-2 3 -2 3 0 0 Z " fill="#DFDFDF" transform="translate(116,0)"/>
	

	

	

	

	

	

	

	

	

	

	

	

	

	

	

	

	

	

	

	

	

	

	

	

	

	

	

	

	

	

	

	

	

	

	

	

	

	

	

	

	

	

	

	

	

	

	

	

	

	

</svg>
