<?xml version="1.0" encoding="iso-8859-1"?>
<svg height="128" version="1.1" width="128" xmlns="http://www.w3.org/2000/svg">
	

	<path d="M0 0 C42.24 0 84.48 0 128 0 C128 42.24 128 84.48 128 128 C85.76 128 43.52 128 0 128 C0 85.76 0 43.52 0 0 Z " fill="#FCFCFC" transform="translate(0,0)"/>
	

	<path d="M0 0 C0.66368088 0.00931549 1.32736176 0.01863098 2.01115417 0.02822876 C4.20302555 0.06258158 6.393791 0.11847527 8.58520508 0.17456055 C10.10547029 0.20259538 11.62576085 0.22928561 13.14607239 0.25468445 C17.14621811 0.32512944 21.14575837 0.41384857 25.14544678 0.50634766 C29.22737142 0.5975231 33.30960409 0.67145394 37.3918457 0.74682617 C45.40071223 0.89724513 53.40902129 1.06696632 61.41723633 1.2487793 C61.41723633 1.9087793 61.41723633 2.5687793 61.41723633 3.2487793 C62.01536133 3.5375293 62.61348633 3.8262793 63.22973633 4.1237793 C67.71755657 6.43180114 69.0572494 8.20549149 70.73754883 12.9519043 C71.43520467 15.30949991 71.90469814 17.64528483 72.35473633 20.0612793 C73.15046128 24.02641721 74.19025866 24.85457006 77.41723633 27.2487793 C77.64312077 29.24947004 77.86363942 31.25193702 78.00317383 33.26049805 C78.67048031 36.46482825 81.1074085 38.05740417 83.41723633 40.2487793 C83.72973633 42.8112793 83.72973633 42.8112793 83.41723633 45.2487793 C83.41723633 46.5687793 83.41723633 47.8887793 83.41723633 49.2487793 C85.07108866 50.59797462 86.73893832 51.93011658 88.41723633 53.2487793 C90.45109813 56.92910065 90.9384989 60.07867874 90.41723633 64.2487793 C89.77786133 65.0119043 89.13848633 65.7750293 88.47973633 66.5612793 C85.63182701 70.27219144 85.61630217 73.68021816 85.41723633 78.2487793 C84.75723633 78.2487793 84.09723633 78.2487793 83.41723633 78.2487793 C83.46364258 78.93584961 83.51004883 79.62291992 83.55786133 80.33081055 C83.59395508 81.23186523 83.63004883 82.13291992 83.66723633 83.0612793 C83.71364258 83.95459961 83.76004883 84.84791992 83.80786133 85.76831055 C83.41723633 88.2487793 83.41723633 88.2487793 81.60083008 90.05737305 C78.73621886 91.62035412 76.6305816 91.53440999 73.41723633 91.2487793 C72.41723633 90.2487793 72.41723633 90.2487793 72.35473633 86.6862793 C72.37536133 85.5519043 72.39598633 84.4175293 72.41723633 83.2487793 C71.77012695 83.02061523 71.12301758 82.79245117 70.45629883 82.55737305 C68.41723633 81.2487793 68.41723633 81.2487793 67.87817383 78.97143555 C67.84981445 78.09358398 67.82145508 77.21573242 67.79223633 76.3112793 C67.64942722 72.58176463 67.56494364 71.47034026 65.41723633 68.2487793 C63.07851595 67.95998439 63.07851595 67.95998439 60.47973633 68.1862793 C55.73249057 68.45894879 55.73249057 68.45894879 52.41723633 66.2487793 C52.15942383 64.3737793 52.15942383 64.3737793 52.29223633 62.2487793 C52.50287363 59.13142309 52.50287363 59.13142309 51.41723633 56.2487793 C50.75723633 56.2487793 50.09723633 56.2487793 49.41723633 56.2487793 C49.08723633 59.8787793 48.75723633 63.5087793 48.41723633 67.2487793 C44.93900517 68.40818968 42.95828054 67.95698814 39.41723633 67.2487793 C39.11976553 74.68554931 40.05811215 81.93728647 41.41723633 89.2487793 C42.47673685 90.53304827 42.47673685 90.53304827 44.91748047 90.36230469 C46.54351196 90.35444946 46.54351196 90.35444946 48.20239258 90.34643555 C49.3722168 90.34321289 50.54204102 90.33999023 51.74731445 90.33666992 C52.97901367 90.32829102 54.21071289 90.31991211 55.47973633 90.3112793 C56.71530273 90.30676758 57.95086914 90.30225586 59.22387695 90.29760742 C62.2883775 90.28577537 65.35278354 90.26929103 68.41723633 90.2487793 C68.74723633 91.2387793 69.07723633 92.2287793 69.41723633 93.2487793 C66.95752475 95.70849088 66.01781194 95.56889195 62.62036133 95.8190918 C61.66129883 95.9119043 60.70223633 96.0047168 59.71411133 96.1003418 C57.70032941 96.28106582 55.68449271 96.44031923 53.66723633 96.5769043 C48.06668474 97.08391497 48.06668474 97.08391497 43.5168457 100.09082031 C41.94718489 102.21081296 41.94718489 102.21081296 40.72485352 104.39990234 C39.16049181 106.61179764 37.97144095 107.13862492 35.41723633 107.9362793 C32.4121368 108.41318802 31.1420107 108.16569232 28.10473633 107.2487793 C24.95837744 104.90730292 23.96298942 102.80401141 22.41723633 99.2487793 C21.42723633 98.7537793 21.42723633 98.7537793 20.41723633 98.2487793 C20.38750732 97.09091919 20.38750732 97.09091919 20.35717773 95.90966797 C20.2620249 92.41818971 20.15230585 88.92731778 20.04223633 85.4362793 C20.01129883 84.22133789 19.98036133 83.00639648 19.94848633 81.75463867 C19.89047852 80.00957031 19.89047852 80.00957031 19.83129883 78.22924805 C19.79987793 77.15570068 19.76845703 76.08215332 19.73608398 74.97607422 C19.60131326 72.0327028 19.60131326 72.0327028 17.41723633 69.2487793 C14.84681321 68.65420916 14.84681321 68.65420916 11.79223633 68.5612793 C10.63852539 68.49424805 9.48481445 68.4272168 8.29614258 68.3581543 C3.40376904 68.22020217 -1.48374755 68.22955097 -6.3762207 68.37304688 C-8.11194077 68.40469545 -9.84887435 68.33453257 -11.58276367 68.2487793 C-13.58276367 66.2487793 -13.58276367 66.2487793 -13.66479492 63.31518555 C-13.57584961 62.15889648 -13.4869043 61.00260742 -13.39526367 59.8112793 C-13.31920898 58.65756836 -13.2431543 57.50385742 -13.16479492 56.31518555 C-12.53436511 52.9937936 -12.21996316 52.21465762 -9.58276367 50.2487793 C-7.23683167 49.88128662 -7.23683167 49.88128662 -4.44042969 49.89233398 C-3.39246719 49.88933289 -2.3445047 49.88633179 -1.26478577 49.88323975 C-0.13350754 49.89558655 0.99777069 49.90793335 2.16333008 49.9206543 C3.32598892 49.92252747 4.48864777 49.92440063 5.6865387 49.92633057 C8.14701196 49.93305748 10.60747441 49.94698453 13.06787109 49.9675293 C16.83611991 49.99862567 20.60395017 50.0084943 24.37231445 50.0144043 C26.76099143 50.02357669 29.14966415 50.03395321 31.53833008 50.0456543 C32.66758408 50.04990417 33.79683807 50.05415405 34.96031189 50.05853271 C36.53698387 50.07294403 36.53698387 50.07294403 38.14550781 50.08764648 C39.53092018 50.09788849 39.53092018 50.09788849 40.94432068 50.1083374 C43.41723633 50.2487793 43.41723633 50.2487793 45.62171936 50.8213501 C47.50464377 51.47265459 47.50464377 51.47265459 49.41723633 50.2487793 C51.62160033 50.0192761 53.83115805 49.83801996 56.04223633 49.6862793 C57.23075195 49.60249023 58.41926758 49.51870117 59.64379883 49.43237305 C60.5590332 49.37178711 61.47426758 49.31120117 62.41723633 49.2487793 C61.92223633 46.7737793 61.92223633 46.7737793 61.41723633 44.2487793 C58.37983781 43.23631312 55.94590348 42.99097543 52.76098633 42.78393555 C51.65625977 42.70594727 50.5515332 42.62795898 49.41333008 42.54760742 C47.08286052 42.39007289 44.75212492 42.23642577 42.42114258 42.08666992 C40.76405273 41.96775391 40.76405273 41.96775391 39.07348633 41.84643555 C37.55464844 41.74600952 37.55464844 41.74600952 36.00512695 41.64355469 C33.41723633 41.2487793 33.41723633 41.2487793 30.41723633 39.2487793 C32.17917447 37.48684115 34.73433976 37.91034772 37.13208008 37.7487793 C38.29288086 37.6662793 39.45368164 37.5837793 40.6496582 37.4987793 C41.87233398 37.4162793 43.09500977 37.3337793 44.35473633 37.2487793 C46.75994864 37.08597275 49.16491606 36.9194931 51.56958008 36.7487793 C53.17820923 36.64049805 53.17820923 36.64049805 54.81933594 36.5300293 C57.39821439 36.40343486 57.39821439 36.40343486 59.41723633 35.2487793 C59.4991975 31.06875934 59.31169337 27.32665825 58.41723633 23.2487793 C57.35214844 23.23419678 56.28706055 23.21961426 55.18969727 23.20458984 C19.41245847 22.67835715 19.41245847 22.67835715 2.04223633 20.8112793 C0.88046875 20.68906006 -0.28129883 20.56684082 -1.47827148 20.44091797 C-9.31335135 19.51819162 -9.31335135 19.51819162 -11.58276367 17.2487793 C-12.01248796 11.7697946 -11.62361131 6.21067977 -8.41996765 1.561203 C-5.64080821 -0.42411533 -3.38164979 -0.06875813 0 0 Z " fill="#D55A30" transform="translate(31.582763671875,17.751220703125)"/>
	

	<path d="M0 0 C0.99 0.495 0.99 0.495 2 1 C2.08090971 2.62418745 2.13914995 4.24951745 2.1875 5.875 C2.23970703 7.23238281 2.23970703 7.23238281 2.29296875 8.6171875 C2.19628906 9.40351562 2.09960938 10.18984375 2 11 C-1.03525486 13.02350324 -2.19426202 13.32124018 -5.6875 13.625 C-6.49574219 13.69976562 -7.30398437 13.77453125 -8.13671875 13.8515625 C-9.05904297 13.92503906 -9.05904297 13.92503906 -10 14 C-8.62714844 14.29003906 -8.62714844 14.29003906 -7.2265625 14.5859375 C-6.03804688 14.84632812 -4.84953125 15.10671875 -3.625 15.375 C-2.44164063 15.63023438 -1.25828125 15.88546875 -0.0390625 16.1484375 C3 17 3 17 5 19 C4.814375 20.051875 4.62875 21.10375 4.4375 22.1875 C3.91069823 26.77820111 5.16879063 28.82484263 7 33 C7.2496468 35.72691118 7.14452725 38.25398234 7 41 C5.02090602 41.02686553 3.04171029 41.04633375 1.0625 41.0625 C-0.03964844 41.07410156 -1.14179687 41.08570313 -2.27734375 41.09765625 C-5 41 -5 41 -6 40 C-6.39148761 38.48834346 -6.73972457 36.96530368 -7.0625 35.4375 C-7.23910156 34.61121094 -7.41570312 33.78492188 -7.59765625 32.93359375 C-7.73042969 32.29550781 -7.86320312 31.65742187 -8 31 C-8.66 31 -9.32 31 -10 31 C-10.33 34.63 -10.66 38.26 -11 42 C-14.47823115 43.15941038 -16.45895578 42.70820884 -20 42 C-20.2974708 49.43677001 -19.35912418 56.68850717 -18 64 C-16.94049948 65.28426897 -16.94049948 65.28426897 -14.49975586 65.11352539 C-12.87372437 65.10567017 -12.87372437 65.10567017 -11.21484375 65.09765625 C-10.04501953 65.09443359 -8.87519531 65.09121094 -7.66992188 65.08789062 C-6.43822266 65.07951172 -5.20652344 65.07113281 -3.9375 65.0625 C-2.70193359 65.05798828 -1.46636719 65.05347656 -0.19335938 65.04882812 C2.87114117 65.03699608 5.93554721 65.02051173 9 65 C9.33 65.99 9.66 66.98 10 68 C7.54028842 70.45971158 6.60057562 70.32011265 3.203125 70.5703125 C2.2440625 70.663125 1.285 70.7559375 0.296875 70.8515625 C-1.71690692 71.03228652 -3.73274362 71.19153993 -5.75 71.328125 C-11.35055159 71.83513568 -11.35055159 71.83513568 -15.90039062 74.84204102 C-17.47005144 76.96203366 -17.47005144 76.96203366 -18.69238281 79.15112305 C-20.25674452 81.36301834 -21.44579537 81.88984562 -24 82.6875 C-27.00509953 83.16440872 -28.27522562 82.91691302 -31.3125 82 C-34.45885889 79.65852362 -35.45424691 77.55523211 -37 74 C-37.99 73.505 -37.99 73.505 -39 73 C-39.029729 71.84213989 -39.029729 71.84213989 -39.06005859 70.66088867 C-39.15521143 67.16941042 -39.26493047 63.67853848 -39.375 60.1875 C-39.4059375 58.97255859 -39.436875 57.75761719 -39.46875 56.50585938 C-39.52675781 54.76079102 -39.52675781 54.76079102 -39.5859375 52.98046875 C-39.6173584 51.90692139 -39.6487793 50.83337402 -39.68115234 49.72729492 C-39.81592307 46.7839235 -39.81592307 46.7839235 -42 44 C-44.57042312 43.40542987 -44.57042312 43.40542987 -47.625 43.3125 C-48.77871094 43.24546875 -49.93242188 43.1784375 -51.12109375 43.109375 C-56.01346729 42.97142288 -60.90098388 42.98077167 -65.79345703 43.12426758 C-67.5291771 43.15591616 -69.26611068 43.08575327 -71 43 C-73 41 -73 41 -73.08203125 38.06640625 C-72.99308594 36.91011719 -72.90414062 35.75382812 -72.8125 34.5625 C-72.73644531 33.40878906 -72.66039063 32.25507812 -72.58203125 31.06640625 C-71.95160144 27.74501431 -71.63719949 26.96587833 -69 25 C-66.65406799 24.63250732 -66.65406799 24.63250732 -63.85766602 24.64355469 C-62.80970352 24.64055359 -61.76174103 24.63755249 -60.68202209 24.63446045 C-59.55074387 24.64680725 -58.41946564 24.65915405 -57.25390625 24.671875 C-56.09124741 24.67374817 -54.92858856 24.67562134 -53.73069763 24.67755127 C-51.27022437 24.68427819 -48.80976192 24.69820523 -46.34936523 24.71875 C-42.58111642 24.74984637 -38.81328616 24.759715 -35.04492188 24.765625 C-32.6562449 24.77479739 -30.26757218 24.78517391 -27.87890625 24.796875 C-26.74965225 24.80112488 -25.62039825 24.80537476 -24.45692444 24.80975342 C-22.88025246 24.82416473 -22.88025246 24.82416473 -21.27172852 24.83886719 C-19.88631615 24.84910919 -19.88631615 24.84910919 -18.47291565 24.85955811 C-16 25 -16 25 -13.79551697 25.5725708 C-11.91259256 26.22387529 -11.91259256 26.22387529 -10 25 C-7.795636 24.77049681 -5.58607827 24.58924067 -3.375 24.4375 C-1.59222656 24.31181641 -1.59222656 24.31181641 0.2265625 24.18359375 C1.14179687 24.12300781 2.05703125 24.06242187 3 24 C2.505 21.525 2.505 21.525 2 19 C-1.03739852 17.98753383 -3.47133285 17.74219614 -6.65625 17.53515625 C-7.76097656 17.45716797 -8.86570312 17.37917969 -10.00390625 17.29882812 C-12.33437581 17.14129359 -14.66511141 16.98764647 -16.99609375 16.83789062 C-18.65318359 16.71897461 -18.65318359 16.71897461 -20.34375 16.59765625 C-21.35630859 16.53070557 -22.36886719 16.46375488 -23.41210938 16.39477539 C-26 16 -26 16 -29 14 C-27.23806186 12.23806186 -24.68289657 12.66156842 -22.28515625 12.5 C-21.12435547 12.4175 -19.96355469 12.335 -18.76757812 12.25 C-16.93356445 12.12625 -16.93356445 12.12625 -15.0625 12 C-12.65728768 11.83719346 -10.25232027 11.67071381 -7.84765625 11.5 C-6.2390271 11.39171875 -6.2390271 11.39171875 -4.59790039 11.28125 C-2.01902194 11.15465557 -2.01902194 11.15465557 0 10 C0 6.7 0 3.4 0 0 Z " fill="#0F66AA" transform="translate(91,43)"/>
	

	<path d="M0 0 C1.18166245 0.00792068 2.36332489 0.01584137 3.58079529 0.02400208 C4.55660301 0.02877563 4.55660301 0.02877563 5.55212402 0.03364563 C7.7159882 0.04629171 9.87965872 0.06717215 12.04344177 0.0896759 C12.78275373 0.09663294 13.5220657 0.10358997 14.28378105 0.11075783 C18.20285994 0.14822837 22.12180561 0.19226176 26.04075623 0.24128723 C30.07665911 0.29043526 34.11236599 0.31676726 38.14849949 0.33771801 C41.26039665 0.3581769 44.37191254 0.39608992 47.48357964 0.43857765 C48.97013686 0.4558408 50.45678532 0.46659503 51.94343758 0.47052574 C66.62340493 0.52067447 66.62340493 0.52067447 73.35203552 5.10920715 C75.64217206 8.54441195 75.53046526 10.09453815 75.35203552 14.10920715 C76.01203552 14.10920715 76.67203552 14.10920715 77.35203552 14.10920715 C78.78648667 16.97810944 78.7827667 19.84725009 79.07078552 23.01545715 C79.24419052 25.16364648 79.24419052 25.16364648 80.35203552 27.10920715 C78.86703552 26.61420715 78.86703552 26.61420715 77.35203552 26.10920715 C76.69187927 24.1834259 76.69187927 24.1834259 76.28953552 21.79670715 C75.85513433 19.29372886 75.46598761 17.32912207 74.29344177 15.0662384 C73.35203552 13.10920715 73.35203552 13.10920715 73.35203552 9.10920715 C72.75391052 8.82045715 72.15578552 8.53170715 71.53953552 8.23420715 C69.35203552 7.10920715 69.35203552 7.10920715 66.35203552 5.10920715 C66.35203552 4.44920715 66.35203552 3.78920715 66.35203552 3.10920715 C57.53781968 3.01658125 48.72377102 2.94548028 39.90917492 2.90195847 C35.81630467 2.88107148 31.72376705 2.8527343 27.63108826 2.80744934 C23.68237343 2.7640301 19.73397881 2.74007842 15.78504372 2.72969818 C14.277494 2.72229965 12.76996207 2.70785203 11.26254845 2.68628693 C9.15291166 2.65730309 7.04460262 2.65324875 4.93479919 2.65510559 C3.73344833 2.64622314 2.53209747 2.6373407 1.29434204 2.62818909 C-1.73447503 2.827759 -1.73447503 2.827759 -3.51641846 4.99305725 C-5.93445545 9.51512586 -5.84215631 14.06021962 -5.64796448 19.10920715 C4.51377188 29.27094351 49.22595576 23.91580167 63.35203552 24.10920715 C64.965653 28.66076561 65.81982254 32.24422216 65.35203552 37.10920715 C61.97135973 39.36299101 60.36339076 39.46940728 56.37156677 39.74201965 C55.20818787 39.82580872 54.04480896 39.90959778 52.84617615 39.9959259 C51.63123474 40.07455872 50.41629333 40.15319153 49.16453552 40.23420715 C47.93799255 40.32057434 46.71144958 40.40694153 45.44773865 40.4959259 C42.41629267 40.70824508 39.38451767 40.91233794 36.35203552 41.10920715 C38.92015103 42.39326491 41.00661266 42.38734874 43.87547302 42.5740509 C45.53062927 42.69103333 45.53062927 42.69103333 47.21922302 42.81037903 C49.54972794 42.96738966 51.88046046 43.1210591 54.21141052 43.27131653 C55.31742615 43.35059387 56.42344177 43.42987122 57.56297302 43.5115509 C58.57665955 43.57850159 59.59034607 43.64545227 60.63475037 43.71443176 C63.29152853 44.10041651 65.05383937 44.75871722 67.35203552 46.10920715 C67.35203552 47.75920715 67.35203552 49.40920715 67.35203552 51.10920715 C64.82325263 52.3735986 62.73191425 52.39968098 59.91453552 52.60920715 C56.78894834 52.84227357 54.33778724 53.11395658 51.35203552 54.10920715 C50.53638123 53.96829651 49.72072693 53.82738586 48.88035583 53.6822052 C43.88383114 52.87077125 38.9530038 52.9465622 33.89891052 52.9412384 C32.80234131 52.93791 31.70577209 52.9345816 30.57597351 52.93115234 C28.26630573 52.92610307 25.95663069 52.9237434 23.6469574 52.92390442 C20.10061346 52.92170627 16.55457495 52.90349758 13.00828552 52.88459778 C10.76349492 52.88166586 8.51870284 52.87967972 6.27391052 52.8787384 C5.20936646 52.87155289 4.14482239 52.86436737 3.04801941 52.85696411 C2.06649902 52.86004074 1.08497864 52.86311737 0.07371521 52.86628723 C-0.79199097 52.86486221 -1.65769714 52.86343719 -2.54963684 52.86196899 C-4.86712948 52.91536847 -4.86712948 52.91536847 -6.64796448 55.10920715 C-7.15127878 58.19591588 -7.15127878 58.19591588 -7.33546448 61.67170715 C-7.42183167 62.84862122 -7.50819885 64.02553528 -7.59718323 65.2381134 C-7.61394104 66.18557434 -7.63069885 67.13303528 -7.64796448 68.10920715 C-6.51342059 69.47471698 -6.51342059 69.47471698 -3.50733948 69.17170715 C-2.13751112 69.15344503 -0.76771779 69.13242597 0.60203552 69.10920715 C5.96200618 69.07783054 11.30943998 69.09356544 16.66453552 69.35920715 C17.69191833 69.4056134 18.71930115 69.45201965 19.77781677 69.49983215 C22.35203552 70.10920715 22.35203552 70.10920715 23.99461365 71.76741028 C25.72969146 74.76073157 25.69569618 76.7402823 25.64500427 80.18733215 C25.63050232 81.92756653 25.63050232 81.92756653 25.6157074 83.70295715 C25.59057068 84.90951965 25.56543396 86.11608215 25.53953552 87.35920715 C25.51923279 89.19225403 25.51923279 89.19225403 25.4985199 91.06233215 C25.46317533 94.07840213 25.41383112 97.09358203 25.35203552 100.10920715 C26.34203552 100.43920715 27.33203552 100.76920715 28.35203552 101.10920715 C30.03953552 104.67170715 30.03953552 104.67170715 31.35203552 108.10920715 C30.03203552 107.77920715 28.71203552 107.44920715 27.35203552 107.10920715 C27.35203552 105.78920715 27.35203552 104.46920715 27.35203552 103.10920715 C26.69203552 103.10920715 26.03203552 103.10920715 25.35203552 103.10920715 C24.69203552 101.12920715 24.03203552 99.14920715 23.35203552 97.10920715 C22.33496521 97.1266095 22.33496521 97.1266095 21.29734802 97.1443634 C4.74333987 97.30485933 4.74333987 97.30485933 0.35203552 95.10920715 C0.35203552 94.44920715 0.35203552 93.78920715 0.35203552 93.10920715 C3.77436524 91.96843058 6.4387677 92.01105599 10.03953552 92.04670715 C11.21902771 92.05573059 12.3985199 92.06475403 13.61375427 92.0740509 C14.96920349 92.09145325 14.96920349 92.09145325 16.35203552 92.10920715 C16.35203552 91.44920715 16.35203552 90.78920715 16.35203552 90.10920715 C18.66203552 90.43920715 20.97203552 90.76920715 23.35203552 91.10920715 C23.37888231 88.46330701 23.39879909 85.8176762 23.41453552 83.17170715 C23.42710388 82.03958801 23.42710388 82.03958801 23.43992615 80.88459778 C23.44855993 78.95926402 23.40427885 77.03385134 23.35203552 75.10920715 C21.45566565 73.21283728 18.0985252 73.95556966 15.57859802 73.9334259 C14.18274963 73.91022624 12.78691625 73.88610884 11.39109802 73.86116028 C9.18331394 73.82603421 6.97608069 73.79670135 4.76805115 73.78327942 C2.64171598 73.76781257 0.51700479 73.72761418 -1.60890198 73.6834259 C-2.88555725 73.66884338 -4.16221252 73.65426086 -5.47755432 73.63923645 C-8.64796448 73.10920715 -8.64796448 73.10920715 -10.56080627 71.26228333 C-12.04068077 68.33144721 -12.0816497 66.00728743 -12.08546448 62.73420715 C-12.10480042 61.63334778 -12.12413635 60.5324884 -12.14405823 59.39826965 C-11.51856884 55.25132427 -10.39231563 53.28287427 -7.64796448 50.10920715 C-4.76927002 49.49453859 -2.7026194 49.29140591 0.17625427 49.3396759 C0.94700287 49.32861313 1.71775146 49.31755035 2.51185608 49.30615234 C5.02168087 49.27580841 7.52957976 49.28615899 10.03953552 49.29670715 C11.76571845 49.28304338 13.49187945 49.26626424 15.21800232 49.24641418 C17.81146342 49.21752328 20.40470653 49.19124971 22.99829102 49.17671204 C31.2127059 49.13059879 39.39634513 48.77043133 47.59886169 48.32478333 C53.32123035 48.0541824 58.67230438 48.33338251 64.35203552 49.10920715 C64.35203552 48.44920715 64.35203552 47.78920715 64.35203552 47.10920715 C45.29925459 46.28387932 26.30171318 46.01139978 7.2328949 46.14631653 C5.96992584 46.15266113 5.96992584 46.15266113 4.68144226 46.15913391 C3.09120341 46.16733245 1.50097901 46.17974422 -0.08918762 46.19697571 C-5.42304404 46.22166737 -5.42304404 46.22166737 -7.64796448 45.10920715 C-7.67485664 43.63013823 -7.69431069 42.15093233 -7.71046448 40.67170715 C-7.72206604 39.84799622 -7.7336676 39.02428528 -7.74562073 38.1756134 C-7.64796448 36.10920715 -7.64796448 36.10920715 -6.64796448 35.10920715 C-4.50052899 35.0149512 -2.34995422 34.99178067 -0.20045471 34.99568176 C0.80925888 34.99546272 0.80925888 34.99546272 1.83937073 34.99523926 C4.07409337 34.99593837 6.30873362 35.00373063 8.54344177 35.0115509 C10.08900914 35.01341509 11.6345771 35.01483899 13.18014526 35.01583862 C17.25560629 35.01966375 21.33103189 35.02949398 25.40647888 35.0405426 C29.56215434 35.05075683 33.71783551 35.05533627 37.8735199 35.06037903 C46.03304139 35.07111626 54.19253406 35.08819262 62.35203552 35.10920715 C62.35203552 34.44920715 62.35203552 33.78920715 62.35203552 33.10920715 C60.92939392 33.07947815 60.92939392 33.07947815 59.47801208 33.04914856 C55.95171188 32.97094955 52.42583191 32.88425349 48.89988708 32.79182434 C47.37522894 32.75359449 45.85048245 32.71873116 44.32566833 32.68733215 C42.13101171 32.64155053 39.93696012 32.58357949 37.74266052 32.52326965 C37.06334473 32.51171844 36.38402893 32.50016724 35.68412781 32.48826599 C32.09366192 32.37685799 29.41585064 32.0496234 26.35203552 30.10920715 C30.97572575 28.30241128 34.77732206 27.89081633 39.72703552 27.98420715 C40.9722699 28.00225403 42.21750427 28.0203009 43.50047302 28.03889465 C44.44148865 28.06209778 45.38250427 28.0853009 46.35203552 28.10920715 C46.35203552 27.44920715 46.35203552 26.78920715 46.35203552 26.10920715 C40.85279803 26.03509344 35.35385074 25.98062252 29.85423279 25.94441223 C27.98308753 25.92931842 26.11197769 25.90884126 24.24095154 25.88288879 C21.55263026 25.84653123 18.86477639 25.829487 16.17625427 25.8162384 C15.33866074 25.80075455 14.5010672 25.78527069 13.63809204 25.76931763 C9.32404703 25.57166758 9.32404703 25.57166758 5.76202393 27.61218262 C5.29672775 28.10620071 4.83143158 28.60021881 4.35203552 29.10920715 C1.87156677 29.4021759 1.87156677 29.4021759 -0.83546448 29.29670715 C-2.18704651 29.25610168 -2.18704651 29.25610168 -3.56593323 29.2146759 C-4.25300354 29.17987122 -4.94007385 29.14506653 -5.64796448 29.10920715 C-9.00719606 21.76444657 -9.21457768 15.0045227 -7.64796448 7.10920715 C-6.01420185 3.3836815 -4.23823367 0.17479292 0 0 Z " fill="#E7E5E5" transform="translate(26.647964477539063,15.890792846679688)"/>
	

	<path d="M0 0 C8.38895585 0.01488308 16.77717445 0.05651171 25.16578197 0.13209057 C29.06120152 0.16635092 32.95622931 0.19146894 36.85180664 0.19555664 C40.61285202 0.19984184 44.37301383 0.22832094 48.13378334 0.27343178 C49.56700807 0.28640004 51.00033859 0.29071677 52.43361473 0.28615379 C54.44434439 0.28124427 56.45506968 0.31021995 58.46557617 0.34057617 C59.60919113 0.34723801 60.75280609 0.35389984 61.93107605 0.36076355 C65.9384316 1.19546906 67.42755374 2.88935519 70 6 C71.1875 8.5625 71.1875 8.5625 72 11 C72.65213539 12.34050052 73.31379969 13.67661368 74 15 C65.78893879 20.4740408 48.18528961 16.66005373 38.375 16.125 C37.54215485 16.08053741 36.70930969 16.03607483 35.85122681 15.99026489 C26.11594771 15.4669584 16.39088271 14.9028546 6.6875 13.9375 C5.88940918 13.85838379 5.09131836 13.77926758 4.26904297 13.69775391 C-0.86278719 13.13721281 -0.86278719 13.13721281 -2 12 C-2.24010003 7.11796602 -2.28385682 4.32954082 0 0 Z " fill="#F54209" transform="translate(26,21)"/>
	

	<path d="M0 0 C2.475 0.99 2.475 0.99 5 2 C5.495 6.455 5.495 6.455 6 11 C7.32 11.33 8.64 11.66 10 12 C10 15.3 10 18.6 10 22 C11.32 22.66 12.64 23.32 14 24 C15.91830324 29.46716423 16.81693082 35.20940211 16 41 C15.34 41.66 14.68 42.32 14 43 C13.75684344 45.66949409 13.75684344 45.66949409 13.875 48.625 C13.89304688 49.62789062 13.91109375 50.63078125 13.9296875 51.6640625 C13.95289063 52.43492188 13.97609375 53.20578125 14 54 C13.01 54.33 12.02 54.66 11 55 C10.34 58.3 9.68 61.6 9 65 C8.34 65 7.68 65 7 65 C7 65.66 7 66.32 7 67 C4.17906857 68.41046571 1.41019566 68.32510462 -1.7109375 68.5234375 C-4.08394072 68.83656432 -4.08394072 68.83656432 -5.85180664 70.48852539 C-8.30518913 72.21473189 -9.69796987 72.45466074 -12.66015625 72.66015625 C-13.53607422 72.73169922 -14.41199219 72.80324219 -15.31445312 72.87695312 C-16.67473633 72.96879883 -16.67473633 72.96879883 -18.0625 73.0625 C-19.86645789 73.19144533 -21.6699021 73.32785138 -23.47265625 73.47265625 C-24.26937744 73.52687744 -25.06609863 73.58109863 -25.88696289 73.63696289 C-28.29492893 73.90354046 -28.29492893 73.90354046 -31 76 C-32.03013277 77.64821244 -33.03114628 79.31503702 -34 81 C-36.34240025 83.34240025 -37.17088283 83.36283032 -40.375 83.6875 C-41.14585938 83.77386719 -41.91671875 83.86023438 -42.7109375 83.94921875 C-45.01248374 84.00027694 -46.80691012 83.66593825 -49 83 C-49 82.34 -49 81.68 -49 81 C-47.989375 81.226875 -46.97875 81.45375 -45.9375 81.6875 C-41.24697417 82.05976395 -39.04400563 81.36536178 -35 79 C-34.34 77.989375 -33.68 76.97875 -33 75.9375 C-30.49065965 72.25190636 -28.15105684 71.84978709 -24 71 C-21.19547143 70.53787138 -18.38694037 70.19026233 -15.5625 69.875 C-14.83095703 69.78863281 -14.09941406 69.70226562 -13.34570312 69.61328125 C-11.56439906 69.40371607 -9.78227719 69.20112132 -8 69 C-7.505 67.02 -7.505 67.02 -7 65 C-7.77714355 65.0407666 -8.55428711 65.0815332 -9.35498047 65.12353516 C-12.86120491 65.30144416 -16.36798675 65.46342033 -19.875 65.625 C-21.09832031 65.68945312 -22.32164063 65.75390625 -23.58203125 65.8203125 C-24.74863281 65.871875 -25.91523437 65.9234375 -27.1171875 65.9765625 C-28.19597168 66.02893066 -29.27475586 66.08129883 -30.38623047 66.13525391 C-33 66 -33 66 -35 64 C-35.4638548 61.76662504 -35.82446724 59.51115127 -36.125 57.25 C-36.37636719 55.43242188 -36.37636719 55.43242188 -36.6328125 53.578125 C-37.51086957 45.02173913 -37.51086957 45.02173913 -36 42 C-33.03 42 -30.06 42 -27 42 C-27 38.37 -27 34.74 -27 31 C-25.68 31 -24.36 31 -23 31 C-22.37542727 34.43515002 -22 37.49064814 -22 41 C-18.48240437 42.17253188 -15.81016005 41.9063948 -12.15625 41.64453125 C-10 42 -10 42 -8.25 43.69140625 C-6.44027594 47.03374038 -6.53927165 50.02212118 -6.40625 53.7578125 C-6.20515625 54.86769531 -6.20515625 54.86769531 -6 56 C-5.01 56.66 -4.02 57.32 -3 58 C-2.3125 61.625 -2.3125 61.625 -2 65 C2.7897321 65.23428313 2.7897321 65.23428313 7 63 C7.58189266 60.57478506 7.58189266 60.57478506 7.6875 57.875 C7.75324219 56.96492188 7.81898437 56.05484375 7.88671875 55.1171875 C7.92410156 54.41851562 7.96148437 53.71984375 8 53 C8.66 53 9.32 53 10 53 C9.95359375 52.40832031 9.9071875 51.81664062 9.859375 51.20703125 C9.55482692 44.53960373 9.55482692 44.53960373 12.0625 41.5 C14.26410458 38.65921989 14.28997799 37.95766551 14.0625 34.5 C13.34143893 29.97083518 11.49582351 27.98423958 8 25 C6.6875 22.6875 6.6875 22.6875 6 21 C6.495 20.505 6.495 20.505 7 20 C7.50241322 17.6704053 7.50241322 17.6704053 7 15 C6.195625 14.236875 5.39125 13.47375 4.5625 12.6875 C1.09687839 9.05282367 1.32291855 6.92450792 1 2 C0.505 1.01 0.505 1.01 0 0 Z " fill="#C0BEC1" transform="translate(107,43)"/>
	

	<path d="M0 0 C4.92417923 0.45806318 7.28732902 1.80297777 11 5 C11.66 5 12.32 5 13 5 C12.95875 6.19625 12.9175 7.3925 12.875 8.625 C12.86458798 15.14292661 13.79608548 21.60255643 15 28 C16.05950052 29.28426897 16.05950052 29.28426897 18.50024414 29.11352539 C20.12627563 29.10567017 20.12627563 29.10567017 21.78515625 29.09765625 C22.95498047 29.09443359 24.12480469 29.09121094 25.33007812 29.08789062 C26.56177734 29.07951172 27.79347656 29.07113281 29.0625 29.0625 C30.29806641 29.05798828 31.53363281 29.05347656 32.80664062 29.04882812 C35.87114117 29.03699608 38.93554721 29.02051173 42 29 C42.495 30.485 42.495 30.485 43 32 C40.54028842 34.45971158 39.60057562 34.32011265 36.203125 34.5703125 C35.2440625 34.663125 34.285 34.7559375 33.296875 34.8515625 C31.28309308 35.03228652 29.26725638 35.19153993 27.25 35.328125 C21.64944841 35.83513568 21.64944841 35.83513568 17.09960938 38.84204102 C15.52994856 40.96203366 15.52994856 40.96203366 14.30761719 43.15112305 C12.74325548 45.36301834 11.55420463 45.88984562 9 46.6875 C5.99490047 47.16440872 4.72477438 46.91691302 1.6875 46 C-1.45885889 43.65852362 -2.45424691 41.55523211 -4 38 C-4.66 37.67 -5.32 37.34 -6 37 C-6.14960034 33.01679492 -6.25778972 29.03470197 -6.32958984 25.04931641 C-6.37419788 23.03619878 -6.45048417 21.02386314 -6.52734375 19.01171875 C-6.63897051 11.60714385 -6.40578945 6.8241673 -1.29931641 1.22265625 C-0.87054199 0.81917969 -0.44176758 0.41570312 0 0 Z " fill="#902518" transform="translate(58,79)"/>
	

	<path d="M0 0 C2.49108109 0.76613359 3.56247392 1.57584385 5.12109375 3.65234375 C5.12109375 4.64234375 5.12109375 5.63234375 5.12109375 6.65234375 C3.14109375 7.64234375 1.16109375 8.63234375 -0.87890625 9.65234375 C-0.87890625 10.31234375 -0.87890625 10.97234375 -0.87890625 11.65234375 C-0.18023437 11.84570312 0.5184375 12.0390625 1.23828125 12.23828125 C2.14835937 12.49867187 3.0584375 12.7590625 3.99609375 13.02734375 C4.90101562 13.28257813 5.8059375 13.5378125 6.73828125 13.80078125 C9.12109375 14.65234375 9.12109375 14.65234375 11.12109375 16.65234375 C10.74609375 18.77734375 10.74609375 18.77734375 10.12109375 20.65234375 C9.48171875 20.77609375 8.84234375 20.89984375 8.18359375 21.02734375 C7.50296875 21.23359375 6.82234375 21.43984375 6.12109375 21.65234375 C5.79109375 22.31234375 5.46109375 22.97234375 5.12109375 23.65234375 C7.10109375 23.98234375 9.08109375 24.31234375 11.12109375 24.65234375 C10.80859375 26.52734375 10.80859375 26.52734375 10.12109375 28.65234375 C9.13109375 29.31234375 8.14109375 29.97234375 7.12109375 30.65234375 C6.87087805 33.73600246 6.87087805 33.73600246 7.12109375 36.65234375 C7.78109375 36.65234375 8.44109375 36.65234375 9.12109375 36.65234375 C9.12109375 37.97234375 9.12109375 39.29234375 9.12109375 40.65234375 C8.46109375 40.65234375 7.80109375 40.65234375 7.12109375 40.65234375 C7.12109375 41.64234375 7.12109375 42.63234375 7.12109375 43.65234375 C6.58484375 43.50796875 6.04859375 43.36359375 5.49609375 43.21484375 C3.00230365 42.58407507 3.00230365 42.58407507 -0.06640625 42.21484375 C-1.45859375 41.93640625 -1.45859375 41.93640625 -2.87890625 41.65234375 C-4.42656175 38.55703276 -4.32300076 35.28566745 -4.59765625 31.8671875 C-4.64548035 29.68163707 -4.64548035 29.68163707 -5.87890625 28.65234375 C-6.15098496 27.22778948 -6.36916498 25.79282857 -6.5625 24.35546875 C-6.68560547 23.47890625 -6.80871094 22.60234375 -6.93554688 21.69921875 C-7.18729315 19.85049737 -7.4373236 18.00154145 -7.68554688 16.15234375 C-8.31016377 11.72500741 -8.90445347 7.72091312 -10.87890625 3.65234375 C-7.69801751 -0.91154009 -5.07615779 -0.62488958 0 0 Z " fill="#D02C0C" transform="translate(107.87890625,55.34765625)"/>
	

	<path d="M0 0 C0.99 0.495 0.99 0.495 2 1 C2.08090971 2.62418745 2.13914995 4.24951745 2.1875 5.875 C2.23970703 7.23238281 2.23970703 7.23238281 2.29296875 8.6171875 C2.19628906 9.40351562 2.09960938 10.18984375 2 11 C-1.03525486 13.02350324 -2.19426202 13.32124018 -5.6875 13.625 C-6.49574219 13.69976562 -7.30398437 13.77453125 -8.13671875 13.8515625 C-9.05904297 13.92503906 -9.05904297 13.92503906 -10 14 C-8.62714844 14.29003906 -8.62714844 14.29003906 -7.2265625 14.5859375 C-6.03804688 14.84632812 -4.84953125 15.10671875 -3.625 15.375 C-2.44164063 15.63023438 -1.25828125 15.88546875 -0.0390625 16.1484375 C3 17 3 17 5 19 C4.814375 20.051875 4.62875 21.10375 4.4375 22.1875 C3.91069823 26.77820111 5.16879063 28.82484263 7 33 C7.2496468 35.72691118 7.14452725 38.25398234 7 41 C5.02090602 41.02686553 3.04171029 41.04633375 1.0625 41.0625 C-0.03964844 41.07410156 -1.14179687 41.08570313 -2.27734375 41.09765625 C-5 41 -5 41 -6 40 C-6.39148761 38.48834346 -6.73972457 36.96530368 -7.0625 35.4375 C-7.23910156 34.61121094 -7.41570312 33.78492188 -7.59765625 32.93359375 C-7.73042969 32.29550781 -7.86320312 31.65742187 -8 31 C-8.66 31 -9.32 31 -10 31 C-10.33 34.63 -10.66 38.26 -11 42 C-14.47823115 43.15941038 -16.45895578 42.70820884 -20 42 C-20 41.67 -20 41.34 -20 41 C-17.69 40.67 -15.38 40.34 -13 40 C-13 36.37 -13 32.74 -13 29 C-19.14158949 27.91745482 -25.14058299 27.85498073 -31.3671875 27.8671875 C-32.4425174 27.86623077 -33.51784729 27.86527405 -34.62576294 27.86428833 C-36.88657693 27.86361042 -39.14739291 27.86543744 -41.40820312 27.86962891 C-44.88415832 27.87501419 -48.35998614 27.86965464 -51.8359375 27.86328125 C-54.03385445 27.86394148 -56.23177133 27.86522151 -58.4296875 27.8671875 C-59.47438202 27.86516327 -60.51907654 27.86313904 -61.59542847 27.86105347 C-63.03294968 27.86578171 -63.03294968 27.86578171 -64.49951172 27.87060547 C-65.34665741 27.87140106 -66.1938031 27.87219666 -67.06661987 27.87301636 C-69.00685355 27.78710559 -69.00685355 27.78710559 -70 29 C-70.07244053 31.01964199 -70.08377188 33.04167124 -70.0625 35.0625 C-70.04896484 36.71958984 -70.04896484 36.71958984 -70.03515625 38.41015625 C-70.02355469 39.26480469 -70.01195312 40.11945313 -70 41 C-69.20303711 40.98428955 -68.40607422 40.9685791 -67.58496094 40.95239258 C-63.9733795 40.89002411 -60.36191139 40.85100261 -56.75 40.8125 C-54.86861328 40.77479492 -54.86861328 40.77479492 -52.94921875 40.73632812 C-51.14130859 40.72182617 -51.14130859 40.72182617 -49.296875 40.70703125 C-47.63156738 40.68346558 -47.63156738 40.68346558 -45.93261719 40.65942383 C-42.70035957 41.0347984 -41.36092968 41.82241911 -39 44 C-39.33 44.99 -39.66 45.98 -40 47 C-40.66 46.01 -41.32 45.02 -42 44 C-44.57042312 43.40542987 -44.57042312 43.40542987 -47.625 43.3125 C-48.77871094 43.24546875 -49.93242188 43.1784375 -51.12109375 43.109375 C-56.01346729 42.97142288 -60.90098388 42.98077167 -65.79345703 43.12426758 C-67.5291771 43.15591616 -69.26611068 43.08575327 -71 43 C-73 41 -73 41 -73.08203125 38.06640625 C-72.99308594 36.91011719 -72.90414062 35.75382812 -72.8125 34.5625 C-72.73644531 33.40878906 -72.66039063 32.25507812 -72.58203125 31.06640625 C-71.95160144 27.74501431 -71.63719949 26.96587833 -69 25 C-66.65406799 24.63250732 -66.65406799 24.63250732 -63.85766602 24.64355469 C-62.80970352 24.64055359 -61.76174103 24.63755249 -60.68202209 24.63446045 C-59.55074387 24.64680725 -58.41946564 24.65915405 -57.25390625 24.671875 C-56.09124741 24.67374817 -54.92858856 24.67562134 -53.73069763 24.67755127 C-51.27022437 24.68427819 -48.80976192 24.69820523 -46.34936523 24.71875 C-42.58111642 24.74984637 -38.81328616 24.759715 -35.04492188 24.765625 C-32.6562449 24.77479739 -30.26757218 24.78517391 -27.87890625 24.796875 C-26.74965225 24.80112488 -25.62039825 24.80537476 -24.45692444 24.80975342 C-22.88025246 24.82416473 -22.88025246 24.82416473 -21.27172852 24.83886719 C-19.88631615 24.84910919 -19.88631615 24.84910919 -18.47291565 24.85955811 C-16 25 -16 25 -13.79551697 25.5725708 C-11.91259256 26.22387529 -11.91259256 26.22387529 -10 25 C-7.795636 24.77049681 -5.58607827 24.58924067 -3.375 24.4375 C-1.59222656 24.31181641 -1.59222656 24.31181641 0.2265625 24.18359375 C1.14179687 24.12300781 2.05703125 24.06242187 3 24 C2.505 21.525 2.505 21.525 2 19 C-1.03739852 17.98753383 -3.47133285 17.74219614 -6.65625 17.53515625 C-7.76097656 17.45716797 -8.86570312 17.37917969 -10.00390625 17.29882812 C-12.33437581 17.14129359 -14.66511141 16.98764647 -16.99609375 16.83789062 C-18.65318359 16.71897461 -18.65318359 16.71897461 -20.34375 16.59765625 C-21.35630859 16.53070557 -22.36886719 16.46375488 -23.41210938 16.39477539 C-26 16 -26 16 -29 14 C-27.23806186 12.23806186 -24.68289657 12.66156842 -22.28515625 12.5 C-21.12435547 12.4175 -19.96355469 12.335 -18.76757812 12.25 C-16.93356445 12.12625 -16.93356445 12.12625 -15.0625 12 C-12.65728768 11.83719346 -10.25232027 11.67071381 -7.84765625 11.5 C-6.2390271 11.39171875 -6.2390271 11.39171875 -4.59790039 11.28125 C-2.01902194 11.15465557 -2.01902194 11.15465557 0 10 C0 6.7 0 3.4 0 0 Z " fill="#5989AD" transform="translate(91,43)"/>
	

	

	<path d="M0 0 C1.52947266 -0.0309375 1.52947266 -0.0309375 3.08984375 -0.0625 C4.06824219 -0.06765625 5.04664062 -0.0728125 6.0546875 -0.078125 C6.95429199 -0.0874707 7.85389648 -0.09681641 8.78076172 -0.10644531 C11.57980018 0.31915312 12.44730314 1.01002604 14.125 3.25 C14.56640625 5.44140625 14.56640625 5.44140625 14.6875 7.8125 C14.79468944 11.47201338 14.79468944 11.47201338 17.125 14.25 C16.795 15.9 16.465 17.55 16.125 19.25 C7.215 19.25 -1.695 19.25 -10.875 19.25 C-12.46196844 16.07606311 -12.0181447 12.66825795 -12 9.1875 C-12.00386719 8.44177734 -12.00773437 7.69605469 -12.01171875 6.92773438 C-11.99550222 -1.99946766 -7.77903992 0.03904161 0 0 Z " fill="#FBFAFA" transform="translate(84.875,87.75)"/>
	

	<path d="M0 0 C1.49720581 0.00616333 1.49720581 0.00616333 3.0246582 0.01245117 C4.17305176 0.01374023 5.32144531 0.0150293 6.50463867 0.01635742 C8.39593506 0.03569336 8.39593506 0.03569336 10.32543945 0.05541992 C11.62497559 0.06186523 12.92451172 0.06831055 14.26342773 0.07495117 C31.72529147 0.1876836 49.18425848 0.72675003 66.63793945 1.24291992 C63.98569541 3.89516397 62.46154182 3.62384015 58.75512695 3.87573242 C57.00522461 4.00141602 57.00522461 4.00141602 55.2199707 4.12963867 C53.38499023 4.24758789 53.38499023 4.24758789 51.51293945 4.36791992 C50.28188477 4.45428711 49.05083008 4.5406543 47.7824707 4.62963867 C44.73476145 4.84226955 41.68671842 5.04632646 38.63793945 5.24291992 C41.23265745 6.54027892 43.40579385 6.55866647 46.30200195 6.77807617 C47.42348633 6.86508789 48.5449707 6.95209961 49.70043945 7.04174805 C51.46387695 7.17226563 51.46387695 7.17226563 53.26293945 7.30541992 C54.44629883 7.39629883 55.6296582 7.48717773 56.84887695 7.58081055 C59.7783013 7.80524225 62.70796708 8.02577957 65.63793945 8.24291992 C65.63793945 8.57291992 65.63793945 8.90291992 65.63793945 9.24291992 C49.83485529 9.37355714 34.04663339 9.23267407 18.24777222 8.86959839 C16.37925827 8.82672957 14.5107061 8.78549643 12.64212036 8.74588013 C10.00124795 8.68896036 7.36063128 8.62527412 4.7199707 8.55932617 C3.91706604 8.54260864 3.11416138 8.52589111 2.28692627 8.50866699 C-3.24720697 8.3577735 -3.24720697 8.3577735 -4.36206055 7.24291992 C-4.54956055 4.80541992 -4.54956055 4.80541992 -4.36206055 2.24291992 C-2.36206055 0.24291992 -2.36206055 0.24291992 0 0 Z " fill="#C7C3C5" transform="translate(24.362060546875,51.757080078125)"/>
	

	<path d="M0 0 C0.66368088 0.00931549 1.32736176 0.01863098 2.01115417 0.02822876 C4.20302555 0.06258158 6.393791 0.11847527 8.58520508 0.17456055 C10.10547029 0.20259538 11.62576085 0.22928561 13.14607239 0.25468445 C17.14621811 0.32512944 21.14575837 0.41384857 25.14544678 0.50634766 C29.22737142 0.5975231 33.30960409 0.67145394 37.3918457 0.74682617 C45.40071223 0.89724513 53.40902129 1.06696632 61.41723633 1.2487793 C61.41723633 1.9087793 61.41723633 2.5687793 61.41723633 3.2487793 C62.01536133 3.5375293 62.61348633 3.8262793 63.22973633 4.1237793 C67.67311561 6.40894579 69.07485081 8.15794919 70.72192383 12.8737793 C71.91257102 16.94070905 72.69063665 21.07724234 73.41723633 25.2487793 C72.09723633 24.5887793 70.77723633 23.9287793 69.41723633 23.2487793 C69.47911133 22.1556543 69.54098633 21.0625293 69.60473633 19.9362793 C69.8055958 16.38013447 69.8055958 16.38013447 68.10473633 14.7487793 C67.54786133 14.2537793 66.99098633 13.7587793 66.41723633 13.2487793 C65.92223633 12.0731543 65.42723633 10.8975293 64.91723633 9.6862793 C63.69700328 6.04474345 63.69700328 6.04474345 60.41723633 4.2487793 C57.44352163 3.95721233 57.44352163 3.95721233 54.01806641 4.02172852 C53.37389267 4.02143646 52.72971893 4.02114441 52.06602478 4.02084351 C49.93946809 4.02223546 47.81326296 4.03778991 45.68676758 4.0534668 C44.21132092 4.05719741 42.73587178 4.06004416 41.26042175 4.06204224 C37.3789281 4.06967488 33.49758436 4.08932013 29.6161499 4.1114502 C25.65468371 4.13191661 21.69319328 4.14104565 17.73168945 4.15112305 C9.96013677 4.17256643 2.18870756 4.20669784 -5.58276367 4.2487793 C-7.00440069 7.98664408 -7.00440069 7.98664408 -6.58276367 15.2487793 C0.01723633 15.9087793 6.61723633 16.5687793 13.41723633 17.2487793 C13.41723633 17.9087793 13.41723633 18.5687793 13.41723633 19.2487793 C14.29400024 19.23355225 14.29400024 19.23355225 15.18847656 19.21801758 C23.50856862 19.14144992 31.78668912 19.53182926 40.09082031 19.9934082 C42.50588663 20.12520641 44.92140421 20.24362451 47.3371582 20.36206055 C48.87561454 20.44587622 50.41402809 20.53048196 51.95239258 20.6159668 C52.67314468 20.64939178 53.39389679 20.68281677 54.13648987 20.71725464 C59.18874199 21.02028496 59.18874199 21.02028496 61.41723633 23.2487793 C60.92223633 24.7337793 60.92223633 24.7337793 60.41723633 26.2487793 C59.42723633 24.7637793 59.42723633 24.7637793 58.41723633 23.2487793 C55.6926168 22.94531637 53.18423266 22.83146389 50.45629883 22.8425293 C48.78263279 22.82248433 47.10896746 22.80238101 45.43530273 22.78222656 C44.11384247 22.77462814 44.11384247 22.77462814 42.76568604 22.76687622 C29.13334437 22.67629131 15.60001407 22.29129891 2.04223633 20.8112793 C0.88030762 20.68881836 -0.28162109 20.56635742 -1.47875977 20.44018555 C-9.31223773 19.51930523 -9.31223773 19.51930523 -11.58276367 17.2487793 C-12.01248796 11.7697946 -11.62361131 6.21067977 -8.41996765 1.561203 C-5.64080821 -0.42411533 -3.38164979 -0.06875813 0 0 Z " fill="#DB947F" transform="translate(31.582763671875,17.751220703125)"/>
	

	

	<path d="M0 0 C2.53650162 2.64218919 3.00571957 3.6854239 2.9375 7.4375 C2.60812122 11.03071871 2.60812122 11.03071871 4.8984375 13.08203125 C7.88945661 17.23498901 8.10855725 21.24907121 8.6875 26.25 C8.91730483 28.06812439 9.15020717 29.88586089 9.38671875 31.703125 C9.48170654 32.50395508 9.57669434 33.30478516 9.67456055 34.12988281 C9.81670213 36.00850473 9.81670213 36.00850473 11 37 C11.23427778 39.01594582 11.41336124 41.038474 11.5625 43.0625 C11.68818359 44.71958984 11.68818359 44.71958984 11.81640625 46.41015625 C11.90728516 47.69212891 11.90728516 47.69212891 12 49 C13.485 48.505 13.485 48.505 15 48 C17.36522558 48.92203709 19.70401807 49.91698965 22 51 C22.48468708 57.42210386 22.48468708 57.42210386 20.375 59.9375 C17.4123913 61.26287757 15.2119911 61.28551032 12 61 C11 60 11 60 10.9375 56.4375 C10.958125 55.303125 10.97875 54.16875 11 53 C10.35289063 52.77183594 9.70578125 52.54367188 9.0390625 52.30859375 C7 51 7 51 6.4609375 48.72265625 C6.43257812 47.84480469 6.40421875 46.96695313 6.375 46.0625 C6.2321909 42.33298533 6.14770731 41.22156096 4 38 C1.66127962 37.7112051 1.66127962 37.7112051 -0.9375 37.9375 C-5.68474576 38.21016949 -5.68474576 38.21016949 -9 36 C-8.67 34.68 -8.34 33.36 -8 32 C-7.67 32.99 -7.34 33.98 -7 35 C-5.7625 34.979375 -4.525 34.95875 -3.25 34.9375 C-0.3359175 34.93233319 2.20953327 35.06984442 5 36 C4.37332965 32.76220318 3.69666072 29.53585555 3 26.3125 C2.835 25.54550781 2.67 24.77851562 2.5 23.98828125 C2.06192301 21.94419856 2.06192301 21.94419856 1 20 C1.28112064 17.99199544 1.61067967 15.98985949 2 14 C-1.48216283 11.94862685 -4.77275657 11.43181408 -8.75 10.875 C-9.92046875 10.70742188 -11.0909375 10.53984375 -12.296875 10.3671875 C-13.63492188 10.18542969 -13.63492188 10.18542969 -15 10 C-11.96739103 7.97826068 -10.91309963 7.70661562 -7.4375 7.4375 C-4.09342768 7.18539562 -4.09342768 7.18539562 -1 6 C-0.34227572 2.97065509 -0.34227572 2.97065509 0 0 Z " fill="#8E2418" transform="translate(93,48)"/>
	

	<path d="M0 0 C1 1 1 1 1.1328125 3.46875 C1.13023438 4.4690625 1.12765625 5.469375 1.125 6.5 C1.12886719 8.00046875 1.12886719 8.00046875 1.1328125 9.53125 C1 12 1 12 0 13 C-8.35357236 14.98220361 -8.35357236 14.98220361 -11.8203125 12.9140625 C-12.31273438 12.44742188 -12.80515625 11.98078125 -13.3125 11.5 C-15.71095052 8.74484335 -15.71095052 8.74484335 -18.625 8.8125 C-21.95015472 10.47507736 -23.17924643 12.83054008 -25 16 C-27.475 15.01 -27.475 15.01 -30 14 C-30 13.34 -30 12.68 -30 12 C-32.31 12 -34.62 12 -37 12 C-37 11.34 -37 10.68 -37 10 C-32.71 9.34 -28.42 8.68 -24 8 C-23.07461831 4.29847322 -22.91825838 3.36541838 -24 0 C-21.31288976 -0.19647038 -18.62571669 -0.38239615 -15.9375 -0.5625 C-15.18533203 -0.61857422 -14.43316406 -0.67464844 -13.65820312 -0.73242188 C-8.92522736 -1.03975796 -4.66225446 -0.91547519 0 0 Z " fill="#0C4A84" transform="translate(78,71)"/>
	

	<path d="M0 0 C4.34301439 1.79365584 5.4301707 3.86813469 7.1875 8.08984375 C8.51890221 12.858568 8.64708625 17.62765234 8.82421875 22.546875 C8.97423704 25.49390096 9.41927163 28.12205408 10 31 C9.375 33.25 9.375 33.25 8 35 C5.375 35.75 5.375 35.75 3 36 C-0.62316748 31.29947518 -1.77708269 27.67901203 -2.3125 21.8125 C-2.38952148 21.06798584 -2.46654297 20.32347168 -2.54589844 19.55639648 C-3.08389714 13.71229091 -3.38977309 7.74962576 -2 2 C-1.34 1.34 -0.68 0.68 0 0 Z " fill="#F64309" transform="translate(59,83)"/>
	

	<path d="M0 0 C1.29196287 2.58392574 1.29567963 4.74262337 1.5 7.625 C1.46427302 15.82637999 1.46427302 15.82637999 4 23 C5.92667507 23.08748207 7.85651861 23.10697334 9.78515625 23.09765625 C10.95498047 23.09443359 12.12480469 23.09121094 13.33007812 23.08789062 C14.56177734 23.07951172 15.79347656 23.07113281 17.0625 23.0625 C18.29806641 23.05798828 19.53363281 23.05347656 20.80664062 23.04882812 C23.87114117 23.03699608 26.93554721 23.02051173 30 23 C30.495 24.485 30.495 24.485 31 26 C28.54028842 28.45971158 27.60057562 28.32011265 24.203125 28.5703125 C23.2440625 28.663125 22.285 28.7559375 21.296875 28.8515625 C19.28309308 29.03228652 17.26725638 29.19153993 15.25 29.328125 C9.64944841 29.83513568 9.64944841 29.83513568 5.09960938 32.84204102 C3.52994856 34.96203366 3.52994856 34.96203366 2.30761719 37.15112305 C0.74325548 39.36301834 -0.44579537 39.88984562 -3 40.6875 C-6.00509953 41.16440872 -7.27522562 40.91691302 -10.3125 40 C-13.45885889 37.65852362 -14.45424691 35.55523211 -16 32 C-16.66 31.67 -17.32 31.34 -18 31 C-18 22.42 -18 13.84 -18 5 C-17.67 5 -17.34 5 -17 5 C-16.98541748 5.71655762 -16.97083496 6.43311523 -16.95581055 7.17138672 C-16.88151 10.40647983 -16.78479139 13.64052019 -16.6875 16.875 C-16.66494141 18.00292969 -16.64238281 19.13085938 -16.61914062 20.29296875 C-16.58369141 21.36933594 -16.54824219 22.44570312 -16.51171875 23.5546875 C-16.48553467 24.54968262 -16.45935059 25.54467773 -16.43237305 26.56982422 C-16.28968994 27.37178223 -16.14700684 28.17374023 -16 29 C-15.01 29.66 -14.02 30.32 -13 31 C-12.3125 34.125 -12.3125 34.125 -12 37 C-8.04 37 -4.08 37 0 37 C2.36019519 32.49851691 2.36019519 32.49851691 2.75 27.625 C2.11214846 25.99691335 2.11214846 25.99691335 1 25 C-0.38840607 17.05466893 -1.4174716 9.07111766 -1 1 C-0.67 0.67 -0.34 0.34 0 0 Z " fill="#736C6E" transform="translate(70,85)"/>
	

	

	

	<path d="M0 0 C3.63 0 7.26 0 11 0 C13.68219822 5.36439644 14.3152595 9.01006953 14 15 C10.04 15 6.08 15 2 15 C0.73899744 9.95598976 0 5.20333811 0 0 Z " fill="#0C4A84" transform="translate(84,69)"/>
	

	

	<path d="M0 0 C1.08429291 0.00303635 1.08429291 0.00303635 2.19049072 0.00613403 C2.93188293 0.00517731 3.67327515 0.00422058 4.43713379 0.00323486 C6.01084477 0.00255282 7.58455855 0.00440881 9.15826416 0.00857544 C11.55709249 0.01389328 13.95573099 0.00864703 16.35455322 0.00222778 C17.88319947 0.00288915 19.41184559 0.00417153 20.94049072 0.00613403 C22.01263824 0.00309769 22.01263824 0.00309769 23.10644531 0 C26.80675435 0.01722635 30.23283166 0.25732316 33.83111572 1.13894653 C33.83111572 2.45894653 33.83111572 3.77894653 33.83111572 5.13894653 C14.01023695 5.31366535 14.01023695 5.31366535 5.04205322 4.29519653 C1.8293688 4.0681517 -1.01952593 4.50907486 -4.16888428 5.13894653 C-4.82888428 3.81894653 -5.48888428 2.49894653 -6.16888428 1.13894653 C-4.45485663 -0.57508112 -2.28530449 0.01084084 0 0 Z " fill="#DCA79C" transform="translate(27.16888427734375,53.861053466796875)"/>
	

	

	

	

	

	

	<path d="M0 0 C0.66 0.33 1.32 0.66 2 1 C2.08090971 2.62418745 2.13914995 4.24951745 2.1875 5.875 C2.23970703 7.23238281 2.23970703 7.23238281 2.29296875 8.6171875 C2.19628906 9.40351562 2.09960938 10.18984375 2 11 C-1.03525486 13.02350324 -2.19426202 13.32124018 -5.6875 13.625 C-6.49574219 13.69976562 -7.30398437 13.77453125 -8.13671875 13.8515625 C-9.05904297 13.92503906 -9.05904297 13.92503906 -10 14 C-9.08476563 14.19335938 -8.16953125 14.38671875 -7.2265625 14.5859375 C-6.03804687 14.84632812 -4.84953125 15.10671875 -3.625 15.375 C-2.44164063 15.63023438 -1.25828125 15.88546875 -0.0390625 16.1484375 C3 17 3 17 5 19 C4.625 21.625 4.625 21.625 4 24 C3.67 24 3.34 24 3 24 C2.67 22.35 2.34 20.7 2 19 C-1.03739852 17.98753383 -3.47133285 17.74219614 -6.65625 17.53515625 C-7.76097656 17.45716797 -8.86570312 17.37917969 -10.00390625 17.29882812 C-12.33437581 17.14129359 -14.66511141 16.98764647 -16.99609375 16.83789062 C-18.65318359 16.71897461 -18.65318359 16.71897461 -20.34375 16.59765625 C-21.35630859 16.53070557 -22.36886719 16.46375488 -23.41210938 16.39477539 C-26 16 -26 16 -29 14 C-27.23806186 12.23806186 -24.68289657 12.66156842 -22.28515625 12.5 C-21.12435547 12.4175 -19.96355469 12.335 -18.76757812 12.25 C-16.93356445 12.12625 -16.93356445 12.12625 -15.0625 12 C-12.65728768 11.83719346 -10.25232027 11.67071381 -7.84765625 11.5 C-6.2390271 11.39171875 -6.2390271 11.39171875 -4.59790039 11.28125 C-2.01902194 11.15465557 -2.01902194 11.15465557 0 10 C0 6.7 0 3.4 0 0 Z " fill="#868182" transform="translate(91,43)"/>
	

	

	

	<path d="M0 0 C0.99 1.485 0.99 1.485 2 3 C5.05919643 3.32743332 5.05919643 3.32743332 8.5 3.125 C14.82987552 2.91493776 14.82987552 2.91493776 17 4 C17.57222507 7.25623311 17.89614156 10.51334483 18.2421875 13.80078125 C19.10567674 17.44613015 20.32590311 18.50599535 23 21 C22.75 24.25 22.75 24.25 22 27 C23.98 26.67 25.96 26.34 28 26 C28.66 23.69 29.32 21.38 30 19 C30.33 19 30.66 19 31 19 C31.48468708 25.42210386 31.48468708 25.42210386 29.375 27.9375 C26.4123913 29.26287757 24.2119911 29.28551032 21 29 C20 28 20 28 19.9375 24.4375 C19.958125 23.303125 19.97875 22.16875 20 21 C19.35289063 20.77183594 18.70578125 20.54367188 18.0390625 20.30859375 C16 19 16 19 15.4609375 16.72265625 C15.43257812 15.84480469 15.40421875 14.96695313 15.375 14.0625 C15.2321909 10.33298533 15.14770731 9.22156096 13 6 C10.66127962 5.7112051 10.66127962 5.7112051 8.0625 5.9375 C3.31525424 6.21016949 3.31525424 6.21016949 0 4 C0 2.68 0 1.36 0 0 Z " fill="#6A727E" transform="translate(84,80)"/>
	

	<path d="M0 0 C0.33 0 0.66 0 1 0 C1.12117188 1.05960937 1.24234375 2.11921875 1.3671875 3.2109375 C1.53600752 4.59901324 1.70530308 5.98703119 1.875 7.375 C1.95363281 8.07367188 2.03226563 8.77234375 2.11328125 9.4921875 C2.55220445 13.69072159 2.55220445 13.69072159 5 17 C4.828125 19.09375 4.828125 19.09375 4.25 21.5 C4.06953125 22.2940625 3.8890625 23.088125 3.703125 23.90625 C3 26 3 26 1 28 C-1.27734375 28.30078125 -1.27734375 28.30078125 -3.9375 28.3125 C-5.25041016 28.33763672 -5.25041016 28.33763672 -6.58984375 28.36328125 C-9 28 -9 28 -10.8359375 26.6171875 C-12 25 -12 25 -11.6875 22.8125 C-11.3471875 21.9153125 -11.3471875 21.9153125 -11 21 C-10.62875 21.495 -10.2575 21.99 -9.875 22.5 C-7.21584514 24.62732389 -5.32122475 24.27676873 -2 24 C-1.01 23.67 -0.02 23.34 1 23 C1.11320856 17.91696314 1.11320856 17.91696314 0 13 C-0.06937062 10.77181559 -0.08457084 8.54165476 -0.0625 6.3125 C-0.05347656 5.13300781 -0.04445313 3.95351562 -0.03515625 2.73828125 C-0.02355469 1.83464844 -0.01195313 0.93101563 0 0 Z " fill="#4A2B30" transform="translate(69,95)"/>
	

	

	

	

	

	

	

	

	

	

	

	

	

	

	

	

	

	

	

	

	

	

	

	

	

	

	

	

	

	

	

	

	

	

</svg>
