<?xml version="1.0" encoding="iso-8859-1"?>
<svg height="128" version="1.1" width="128" xmlns="http://www.w3.org/2000/svg">
	

	<path d="M0 0 C42.24 0 84.48 0 128 0 C128 42.24 128 84.48 128 128 C85.76 128 43.52 128 0 128 C0 85.76 0 43.52 0 0 Z " fill="#719A10" transform="translate(0,0)"/>
	

	<path d="M0 0 C0.85142578 -0.01224609 1.70285156 -0.02449219 2.58007812 -0.03710938 C16.86694066 -0.06975263 29.56786998 4.9376034 39.75 15 C46.85479409 22.34085289 51.21382772 30.23629655 51.4375 40.5625 C51.35771366 44.97250882 50.35177904 48.35957586 48.1875 52.1875 C47.71183594 53.04472656 47.23617187 53.90195313 46.74609375 54.78515625 C39.62316571 66.79993278 30.27220178 73.72859942 17.0625 78 C2.01916164 81.66033409 -12.78327448 78.93548865 -26.1875 71.4375 C-36.78457618 64.46809071 -45.06006162 56.26850216 -48.44140625 43.83203125 C-49.6603429 35.14550374 -45.97917831 24.13579151 -40.8125 17.1875 C-29.09620633 5.49832738 -16.44625768 0.01228249 0 0 Z " fill="#FAFBF4" transform="translate(57.8125,22.8125)"/>
	

	

	<path d="M0 0 C6.12423839 4.69346654 9.26021523 11.08998636 10.46484375 18.62109375 C10.63044569 20.05685285 10.78021852 21.4945267 10.9140625 22.93359375 C11.03273682 23.9687915 11.03273682 23.9687915 11.15380859 25.02490234 C11.26953125 27.01953125 11.26953125 27.01953125 10.7265625 30.55859375 C7.95703125 32.84765625 7.95703125 32.84765625 4.7265625 34.55859375 C3.42629779 35.5473882 2.13354699 36.54621115 0.8515625 37.55859375 C-8.48410632 44.54710954 -18.53059171 47.43091944 -30.2734375 46.55859375 C-33.69691402 45.98178983 -37.03673589 45.17043929 -40.3984375 44.30859375 C-41.26597656 44.10363281 -42.13351563 43.89867187 -43.02734375 43.6875 C-52.58384739 41.28746484 -59.5298839 35.92435391 -65.1484375 27.87109375 C-67.78078122 22.46016499 -68.34764373 16.85981291 -66.47265625 11.09765625 C-62.74998078 2.78240175 -57.50251581 -2.84419395 -49.00390625 -6.26953125 C-47.43295289 -6.84316008 -45.85593285 -7.40043215 -44.2734375 -7.94140625 C-43.52618408 -8.19696289 -42.77893066 -8.45251953 -42.0090332 -8.71582031 C-26.78939149 -13.44276812 -12.94496122 -8.20737232 0 0 Z M-57.2734375 6.55859375 C-60.33493311 10.88286453 -62.1510671 14.81481549 -62.5234375 20.12109375 C-60.36365 26.06050938 -56.05171421 31.4097137 -51.2734375 35.55859375 C-48.358512 36.14241335 -48.358512 36.14241335 -45.2734375 35.55859375 C-44.4278125 34.87796875 -43.5821875 34.19734375 -42.7109375 33.49609375 C-40.2734375 31.55859375 -40.2734375 31.55859375 -37.8984375 31.49609375 C-35.43050702 32.49501799 -34.06261965 33.47659201 -32.0234375 35.12109375 C-28.55908713 37.68755634 -25.96104958 38.31329385 -21.671875 38.03515625 C-13.94111316 36.49907654 -8.69760564 32.79610066 -4.33203125 26.328125 C-2.15053279 22.68156115 -1.38651966 19.75468403 -2.2734375 15.55859375 C-5.82534131 7.77558195 -10.2078329 2.59066363 -18.2734375 -0.44140625 C-21.11012285 -1.37295251 -21.11012285 -1.37295251 -24.2734375 -1.44140625 C-25.12421875 -1.49167969 -25.975 -1.54195312 -26.8515625 -1.59375 C-36.99587212 -1.9256973 -49.65991913 -0.98326798 -57.2734375 6.55859375 Z " fill="#719A10" transform="translate(86.2734375,43.44140625)"/>
	

	<path d="M0 0 C6.12423839 4.69346654 9.26021523 11.08998636 10.46484375 18.62109375 C10.63044569 20.05685285 10.78021852 21.4945267 10.9140625 22.93359375 C11.03273682 23.9687915 11.03273682 23.9687915 11.15380859 25.02490234 C11.26953125 27.01953125 11.26953125 27.01953125 10.7265625 30.55859375 C7.95703125 32.84765625 7.95703125 32.84765625 4.7265625 34.55859375 C3.42629779 35.5473882 2.13354699 36.54621115 0.8515625 37.55859375 C-8.48410632 44.54710954 -18.53059171 47.43091944 -30.2734375 46.55859375 C-33.69691402 45.98178983 -37.03673589 45.17043929 -40.3984375 44.30859375 C-41.26597656 44.10363281 -42.13351563 43.89867187 -43.02734375 43.6875 C-52.58384739 41.28746484 -59.5298839 35.92435391 -65.1484375 27.87109375 C-67.78078122 22.46016499 -68.34764373 16.85981291 -66.47265625 11.09765625 C-62.74998078 2.78240175 -57.50251581 -2.84419395 -49.00390625 -6.26953125 C-47.43295289 -6.84316008 -45.85593285 -7.40043215 -44.2734375 -7.94140625 C-43.52618408 -8.19696289 -42.77893066 -8.45251953 -42.0090332 -8.71582031 C-26.78939149 -13.44276812 -12.94496122 -8.20737232 0 0 Z M-44.2734375 -5.44140625 C-45.45679688 -5.00248047 -45.45679688 -5.00248047 -46.6640625 -4.5546875 C-53.45341531 -1.81816264 -60.03273866 1.79846525 -63.7734375 8.30859375 C-66.12611489 13.84740824 -66.51658105 19.41879639 -64.28515625 25.0546875 C-62.16391215 29.05418488 -59.8593386 32.71460323 -56.2734375 35.55859375 C-55.6134375 35.55859375 -54.9534375 35.55859375 -54.2734375 35.55859375 C-55.63134393 32.56592619 -57.23468809 30.39002424 -59.3984375 27.93359375 C-62.43636661 23.93514293 -63.06920048 20.92018563 -62.71875 15.9453125 C-61.48334019 9.32394937 -57.8395149 5.59449269 -52.3984375 1.84375 C-41.89638167 -4.50767715 -30.4755273 -4.15729739 -18.7734375 -1.51953125 C-12.49691538 0.41386172 -8.35054121 3.5321511 -3.7109375 8.05859375 C-1.34157651 13.82747267 -1.36402683 19.4305649 -2.2734375 25.55859375 C-4.70272551 31.33923529 -8.81809729 34.39381886 -14.44140625 36.8671875 C-21.6979038 39.60578039 -28.66546524 39.23041934 -36.0234375 36.93359375 C-41.01442762 35.4099534 -43.47584917 35.60039443 -48.2734375 37.55859375 C-49.60473865 37.89995302 -50.93701898 38.23785331 -52.2734375 38.55859375 C-47.5763206 40.33588123 -42.91591145 41.22324955 -37.984375 42.04296875 C-35.2734375 42.55859375 -35.2734375 42.55859375 -31.5234375 43.80859375 C-22.00333688 46.22763571 -11.31006682 42.99553327 -3.01953125 38.3046875 C-2.11332031 37.72847656 -1.20710938 37.15226562 -0.2734375 36.55859375 C1.10134766 35.70974609 1.10134766 35.70974609 2.50390625 34.84375 C5.16680814 32.902991 6.95142921 31.33903212 8.7265625 28.55859375 C9.86605163 21.05695701 8.01578221 12.83753482 3.7265625 6.55859375 C-4.87105822 -3.47803552 -16.6337664 -7.27285664 -29.4375 -8.35546875 C-34.88369813 -8.47748134 -39.24761751 -7.45013366 -44.2734375 -5.44140625 Z M-57.2734375 6.55859375 C-60.33493311 10.88286453 -62.1510671 14.81481549 -62.5234375 20.12109375 C-60.36365 26.06050938 -56.05171421 31.4097137 -51.2734375 35.55859375 C-48.358512 36.14241335 -48.358512 36.14241335 -45.2734375 35.55859375 C-44.4278125 34.87796875 -43.5821875 34.19734375 -42.7109375 33.49609375 C-40.2734375 31.55859375 -40.2734375 31.55859375 -37.8984375 31.49609375 C-35.43050702 32.49501799 -34.06261965 33.47659201 -32.0234375 35.12109375 C-28.55908713 37.68755634 -25.96104958 38.31329385 -21.671875 38.03515625 C-13.94111316 36.49907654 -8.69760564 32.79610066 -4.33203125 26.328125 C-2.15053279 22.68156115 -1.38651966 19.75468403 -2.2734375 15.55859375 C-5.82534131 7.77558195 -10.2078329 2.59066363 -18.2734375 -0.44140625 C-21.11012285 -1.37295251 -21.11012285 -1.37295251 -24.2734375 -1.44140625 C-25.12421875 -1.49167969 -25.975 -1.54195312 -26.8515625 -1.59375 C-36.99587212 -1.9256973 -49.65991913 -0.98326798 -57.2734375 6.55859375 Z " fill="#A3B851" transform="translate(86.2734375,43.44140625)"/>
	

	<path d="M0 0 C5.86060362 5.42594461 10.11452999 10.96875731 12.96484375 18.44921875 C13.64546875 20.18171875 13.64546875 20.18171875 14.33984375 21.94921875 C15.59810408 28.9954766 14.72121064 35.3138195 10.96484375 41.44921875 C10.50207031 42.27164063 10.03929688 43.0940625 9.5625 43.94140625 C3.08948111 54.93792305 -5.00110498 62.12712991 -17.03515625 66.44921875 C-17.90914063 66.76761719 -18.783125 67.08601563 -19.68359375 67.4140625 C-35.08154625 72.31341102 -49.71684341 68.78752755 -63.78515625 61.82421875 C-73.64143881 56.0685076 -83.21725978 47.29324026 -87.4921875 36.546875 C-90.14897505 26.28288279 -87.09355986 16.23833987 -82.28515625 7.13671875 C-79.20470388 3.45728953 -75.76083225 0.45950829 -72.03515625 -2.55078125 C-71.50148438 -3.00582031 -70.9678125 -3.46085937 -70.41796875 -3.9296875 C-49.69102711 -20.37718597 -19.30014765 -16.22007261 0 0 Z M-79.66015625 6.32421875 C-84.52781007 12.81803754 -87.15454598 21.22416252 -86.96875 29.35546875 C-86.54013909 31.85762971 -85.92059358 34.07251855 -85.03515625 36.44921875 C-84.79667969 37.12082031 -84.55820313 37.79242188 -84.3125 38.484375 C-78.99969563 50.91386616 -67.38932336 59.15662091 -55.20703125 64.0546875 C-41.24976456 69.17706298 -27.96580711 68.97908984 -14.03515625 63.44921875 C-13.29910156 63.17207031 -12.56304687 62.89492187 -11.8046875 62.609375 C-0.61117055 57.76108523 6.56642267 47.97825413 11.96484375 37.44921875 C14.69739869 29.14469425 12.68683466 21.09237063 9.00390625 13.45703125 C2.39568717 1.78719756 -8.33833394 -6.37003568 -21.12060547 -10.17089844 C-26.78203164 -11.57599652 -32.22059935 -11.85445408 -38.03515625 -11.80078125 C-38.87304688 -11.80851562 -39.7109375 -11.81625 -40.57421875 -11.82421875 C-56.08343107 -11.77620261 -69.37444211 -5.25801397 -79.66015625 6.32421875 Z " fill="#A3B851" transform="translate(96.03515625,34.55078125)"/>
	

	<path d="M0 0 C0.85142578 -0.01224609 1.70285156 -0.02449219 2.58007812 -0.03710938 C16.86694066 -0.06975263 29.56786998 4.9376034 39.75 15 C46.85479409 22.34085289 51.21382772 30.23629655 51.4375 40.5625 C51.35771366 44.97250882 50.35177904 48.35957586 48.1875 52.1875 C47.71183594 53.04472656 47.23617187 53.90195313 46.74609375 54.78515625 C39.62316571 66.79993278 30.27220178 73.72859942 17.0625 78 C2.01916164 81.66033409 -12.78327448 78.93548865 -26.1875 71.4375 C-36.78457618 64.46809071 -45.06006162 56.26850216 -48.44140625 43.83203125 C-49.6603429 35.14550374 -45.97917831 24.13579151 -40.8125 17.1875 C-29.09620633 5.49832738 -16.44625768 0.01228249 0 0 Z M-36.8125 15.1875 C-42.79602201 22.10561163 -46.8125 30.20925563 -46.8125 39.51171875 C-45.95482199 50.03614267 -40.5455258 58.15002512 -32.6875 65.0546875 C-27.57506468 68.94710985 -22.384226 72.14646292 -16.3125 74.3125 C-15.3946875 74.64507812 -14.476875 74.97765625 -13.53125 75.3203125 C-0.63302008 79.43440308 14.11562429 78.15969016 26.25 72.5 C34.88870978 67.96083061 40.49189743 62.70385904 45.1875 54.1875 C48.13486842 49.24013158 48.13486842 49.24013158 49.1875 48.1875 C50.28028646 37.71611584 49.1540281 30.10888011 43.1875 21.1875 C40.87476558 18.2903059 40.87476558 18.2903059 38.1875 16.1875 C37.73375 15.73375 37.28 15.28 36.8125 14.8125 C24.40066546 2.89713884 9.99919749 1.6342451 -6.34375 1.8515625 C-18.47313291 2.27137238 -27.72101188 7.17363401 -36.8125 15.1875 Z " fill="#D0DDA5" transform="translate(57.8125,22.8125)"/>
	

	<path d="M0 0 C6.64876771 5.25891231 10.92072205 11.80825091 12.76171875 20.078125 C13.01308594 21.16996094 13.26445313 22.26179688 13.5234375 23.38671875 C14.53763206 29.37837882 14.53763206 29.37837882 14.07421875 32.640625 C11.875 34.26953125 11.875 34.26953125 9.07421875 35.640625 C7.45134518 36.9299226 5.84746785 38.2434315 4.26171875 39.578125 C-6.26531022 48.0556439 -18.32923768 52.08195471 -31.92578125 50.640625 C-43.48908152 48.72348336 -52.89678925 45.51477405 -60.92578125 36.640625 C-61.44269531 36.11597656 -61.95960937 35.59132812 -62.4921875 35.05078125 C-67.05006588 30.20734904 -68.72860125 26.06534414 -69.0234375 19.44921875 C-68.65507432 10.97686569 -63.71291602 5.13253169 -57.86328125 -0.609375 C-40.61369771 -15.28177119 -17.41507148 -12.03554678 0 0 Z M-61.06640625 4.28125 C-65.85039115 10.35168462 -67.7937883 15.95256257 -66.92578125 23.640625 C-64.4878284 31.67152851 -58.69505058 37.8267018 -51.92578125 42.640625 C-47.6937722 44.31807936 -43.3199837 45.45978106 -38.92578125 46.640625 C-38.07886719 46.87007812 -37.23195313 47.09953125 -36.359375 47.3359375 C-25.47598359 50.02366199 -14.14983406 48.68333604 -4.17578125 43.390625 C-0.13504829 40.9407906 3.56034988 38.06810239 7.2265625 35.09375 C9.07421875 33.640625 9.07421875 33.640625 11.07421875 32.640625 C10.91605206 21.05132054 10.35313797 11.44682322 1.57421875 2.890625 C-16.53813751 -11.56508575 -44.25010502 -12.99894919 -61.06640625 4.28125 Z " fill="#D0DDA5" transform="translate(85.92578125,41.359375)"/>
	

	

</svg>
