<?xml version="1.0" encoding="iso-8859-1"?>
<svg height="128" version="1.1" width="128" xmlns="http://www.w3.org/2000/svg">
	

	<path d="M0 0 C42.24 0 84.48 0 128 0 C128 42.24 128 84.48 128 128 C85.76 128 43.52 128 0 128 C0 85.76 0 43.52 0 0 Z " fill="#FCFDFC" transform="translate(0,0)"/>
	

	<path d="M0 0 C2.25056722 0.11433363 4.50046674 0.24186436 6.75 0.375 C8.62945312 0.47941406 8.62945312 0.47941406 10.546875 0.5859375 C13.64194163 0.9570654 15.46973664 1.24735895 18 3 C19.69962457 5.95860573 20.92187842 8.76563526 22 12 C23.77808629 12.69345393 23.77808629 12.69345393 25.875 13 C29.18575057 13.70228042 30.79971802 14.33650077 33 17 C33.99 17.33 34.98 17.66 36 18 C34.46395304 14.85808576 32.94268841 11.91403262 31 9 C31.375 5.3125 31.375 5.3125 32 2 C35 1 35 1 37.5 1.625 C41.00821019 3.55451561 42.36476085 6.00666337 43.56640625 9.77734375 C45.034322 17.30206501 44.91240008 26.80465862 42 34 C41.01257714 35.01242091 40.01349341 36.01367799 39 37 C38.835 37.845625 38.67 38.69125 38.5 39.5625 C38 42 38 42 35 44 C35.47356123 48.26205106 37.84698192 50.28693793 41 53 C43.17346568 53.86119134 43.17346568 53.86119134 45 54 C45.66 51.69 46.32 49.38 47 47 C48.9375 46.4375 48.9375 46.4375 51 46 C52 47 52 47 52.375 49.25 C51.84769098 53.11693282 49.78218534 54.34721863 47 57 C44.7542731 60.79450407 44 62.53620748 44 67 C47.20177579 67.87321158 49.23460353 67.96295734 52.5625 67.4375 C56 67 56 67 58.375 67.5625 C60 69 60 69 60.875 71.6875 C61.01938201 75.51362322 60.14440129 78.36484295 59 82 C59 86.33099621 59.77406457 87.47560223 62 91 C62 91.66 62 92.32 62 93 C59.3125 93.3125 59.3125 93.3125 56 93 C54.29319053 91.37446717 52.62339805 89.70884005 51 88 C49.68 88 48.36 88 47 88 C46.401875 88.680625 45.80375 89.36125 45.1875 90.0625 C43 92 43 92 39.375 91.875 C36 91 36 91 34 89 C33.43479997 86.34462628 33.26211802 83.70855287 33 81 C32.29875 81.0825 31.5975 81.165 30.875 81.25 C28 81 28 81 25.3125 79.0625 C20.93338009 76.33587817 17.06751691 76.20029711 12 76 C15.21944774 80.04494716 18.23590123 83.29080225 22.4375 86.3125 C27.51917397 90.11092296 30.62413802 94.69507404 34 100 C34.79000037 101.12617074 35.58136161 102.25139009 36.375 103.375 C37.80472394 105.68455406 38.59091815 107.340968 39 110 C35.30719177 113.00040669 31.52187839 115.83938899 27.671875 118.6328125 C25.87247872 119.91396911 25.87247872 119.91396911 25 122 C11.42285547 122.92222114 11.42285547 122.92222114 8.1015625 120.76953125 C6.97762984 119.24203887 5.98503624 117.62054349 5 116 C1.88337092 114.19020859 1.88337092 114.19020859 -1 113 C-2.87643761 111.12356239 -2.17984987 108.50194299 -2.23046875 106.0078125 C-2 104 -2 104 0 101 C4.9341407 99.35528643 8.94732599 99.16491498 13.74609375 101.1171875 C16.20393591 102.35133803 18.61472294 103.63139841 21 105 C20.26160754 103.55650326 19.50873357 102.12040949 18.75 100.6875 C18.33234375 99.88699219 17.9146875 99.08648437 17.484375 98.26171875 C14.86886906 94.27651364 12.02901737 92.82750951 7.5 91.6875 C4.03713829 90.5900742 3.0748806 90.08448067 0.5625 87.25 C-1.09028008 83.81221744 -2.11205348 80.69977716 -3 77 C-4.65 78.65 -6.3 80.3 -8 82 C-10.3125 81.1875 -10.3125 81.1875 -13 79 C-14.01288324 76.19116411 -14.69273977 73.41329419 -15.32421875 70.49609375 C-15.81843323 67.84973444 -15.81843323 67.84973444 -18 66 C-18.26991906 63.31160615 -18.08737357 60.70858064 -18 58 C-16.515 57.505 -16.515 57.505 -15 57 C-15 55.02 -15 53.04 -15 51 C-12.03 50.505 -12.03 50.505 -9 50 C-7.515 54.455 -7.515 54.455 -6 59 C-2.62537285 58.45276317 -0.91765 57.9451 2 56 C4.33199388 55.92094936 6.66832622 55.91201231 9 56 C8.95875 54.9275 8.9175 53.855 8.875 52.75 C8.9885825 49.34252515 9.21273364 47.79260369 11 45 C10.113125 45.680625 9.22625 46.36125 8.3125 47.0625 C5 49 5 49 2.125 48.75 C1.42375 48.5025 0.7225 48.255 0 48 C0.125 46.125 0.125 46.125 1 44 C4.0625 42.75 4.0625 42.75 7 42 C6.67 41.34 6.34 40.68 6 40 C2.75791433 40.35049575 1.38472296 40.56221181 -0.8125 43.0625 C-1.204375 43.701875 -1.59625 44.34125 -2 45 C-3.9375 44.6875 -3.9375 44.6875 -6 44 C-7.18780597 40.43658208 -6.49787057 39.07835278 -4.9375 35.76953125 C-1.87900573 29.99662332 2.03039664 27.31289827 8 25 C8.66 25 9.32 25 10 25 C9.505 24.01 9.505 24.01 9 23 C1.95648052 24.22836439 1.95648052 24.22836439 -4 28 C-4.66 28 -5.32 28 -6 28 C-6.144375 28.639375 -6.28875 29.27875 -6.4375 29.9375 C-7 32 -7 32 -8 33 C-8.36760731 35.32817964 -8.70241581 37.6618385 -9 40 C-11.29943113 40.8212254 -12.58376417 41.13426962 -14.9375 40.375 C-18.23456465 38.1769569 -21.21326301 35.57347398 -23 32 C-22.625 29.87109375 -22.625 29.87109375 -22 27.4375 C-21.6239638 25.96860861 -21.27995758 24.49019089 -21 23 C-21.33 22.67 -21.66 22.34 -22 22 C-22.17299981 18.79950343 -21.9097643 16.07045451 -21 13 C-21.99 12.4121875 -21.99 12.4121875 -23 11.8125 C-25 10 -25 10 -25.5 7.5 C-25 5 -25 5 -23.4375 3.125 C-19.87190297 1.47933983 -17.73509355 1.93283041 -14 3 C-11.875 5.3125 -11.875 5.3125 -10 8 C-5.01790987 12.71278796 0.43566588 13.75809895 7 15 C8.33542939 15.32483418 9.66961551 15.6550855 11 16 C10.505 14.515 10.505 14.515 10 13 C8.329375 12.62875 8.329375 12.62875 6.625 12.25 C3 11 3 11 1.0625 7.625 C0 4 0 4 0 0 Z " fill="#A5B3AB" transform="translate(49,6)"/>
	

	<path d="M0 0 C2.25056722 0.11433363 4.50046674 0.24186436 6.75 0.375 C8.62945312 0.47941406 8.62945312 0.47941406 10.546875 0.5859375 C13.64194163 0.9570654 15.46973664 1.24735895 18 3 C19.69962457 5.95860573 20.92187842 8.76563526 22 12 C23.77808629 12.69345393 23.77808629 12.69345393 25.875 13 C29.18575057 13.70228042 30.79971802 14.33650077 33 17 C33.99 17.33 34.98 17.66 36 18 C34.46395304 14.85808576 32.94268841 11.91403262 31 9 C31.375 5.3125 31.375 5.3125 32 2 C35 1 35 1 37.5 1.625 C41.00821019 3.55451561 42.36476085 6.00666337 43.56640625 9.77734375 C45.034322 17.30206501 44.91240008 26.80465862 42 34 C41.01257714 35.01242091 40.01349341 36.01367799 39 37 C38.835 37.845625 38.67 38.69125 38.5 39.5625 C38 42 38 42 35 44 C35.47356123 48.26205106 37.84698192 50.28693793 41 53 C43.17346568 53.86119134 43.17346568 53.86119134 45 54 C45.66 51.69 46.32 49.38 47 47 C48.9375 46.4375 48.9375 46.4375 51 46 C52 47 52 47 52.375 49.25 C51.84769098 53.11693282 49.78218534 54.34721863 47 57 C44.7542731 60.79450407 44 62.53620748 44 67 C47.20177579 67.87321158 49.23460353 67.96295734 52.5625 67.4375 C56 67 56 67 58.375 67.5625 C60 69 60 69 60.875 71.6875 C61.01938201 75.51362322 60.14440129 78.36484295 59 82 C59 86.33099621 59.77406457 87.47560223 62 91 C62 91.66 62 92.32 62 93 C59.3125 93.3125 59.3125 93.3125 56 93 C54.29319053 91.37446717 52.62339805 89.70884005 51 88 C49.68 88 48.36 88 47 88 C46.401875 88.680625 45.80375 89.36125 45.1875 90.0625 C43 92 43 92 39.375 91.875 C36 91 36 91 34 89 C33.43479997 86.34462628 33.26211802 83.70855287 33 81 C32.29875 81.0825 31.5975 81.165 30.875 81.25 C28 81 28 81 25.3125 79.0625 C20.93338009 76.33587817 17.06751691 76.20029711 12 76 C12.99 77.485 12.99 77.485 14 79 C11.53199953 77.84826645 9.95216435 76.95216435 8 75 C8 74.01 8 73.02 8 72 C10.62571335 72.47549934 13.2505304 72.95522567 15.875 73.4375 C16.99455078 73.63956055 16.99455078 73.63956055 18.13671875 73.84570312 C23.7734375 74.88671875 23.7734375 74.88671875 26 76 C25.68804687 75.24074219 25.37609375 74.48148437 25.0546875 73.69921875 C24.47074219 72.20841797 24.47074219 72.20841797 23.875 70.6875 C23.28332031 69.20830078 23.28332031 69.20830078 22.6796875 67.69921875 C22.45539063 66.80847656 22.23109375 65.91773437 22 65 C24 62 24 62 27.875 61.0625 C30.03515625 60.8515625 30.03515625 60.8515625 32 61 C34.3125 62.9375 34.3125 62.9375 36 65 C39.04525807 65.34706779 39.04525807 65.34706779 40.75 63.3125 C42.21505679 61.08575463 42.21505679 61.08575463 41.86328125 58.60546875 C40.48591764 54.44844825 37.30527154 52.67147376 33.93359375 50.0625 C32 48 32 48 31.59765625 45.375 C32 43 32 43 34 41 C33.938125 40.195625 33.87625 39.39125 33.8125 38.5625 C33.9053125 37.2940625 33.9053125 37.2940625 34 36 C34.804375 35.525625 35.60875 35.05125 36.4375 34.5625 C39.34452754 33.19930106 39.34452754 33.19930106 39.8125 29.8125 C39.9053125 28.4203125 39.9053125 28.4203125 40 27 C39.0925 26.835 38.185 26.67 37.25 26.5 C33.63687962 24.83240598 33.59366129 24.61771223 32.25 21.1875 C30.1795135 16.36214026 27.19678929 15.36663585 22.54296875 13.359375 C18.966401 11.44747703 16.84594457 8.83183296 14.375 5.671875 C13.0859643 3.87350823 13.0859643 3.87350823 11 3 C9.00039988 2.960008 6.99952758 2.95653201 5 3 C4.67 3.99 4.34 4.98 4 6 C5.68056908 9.14644041 5.68056908 9.14644041 8.4375 9.9375 C11.41586148 11.17243037 12.49851627 12.16386407 14 15 C13.6875 17.25 13.6875 17.25 13 19 C1.9526998 16.88243432 -6.89907758 14.45123483 -14.97265625 6.328125 C-16.98347557 4.70431828 -16.98347557 4.70431828 -19.74609375 5.296875 C-20.48988281 5.52890625 -21.23367187 5.7609375 -22 6 C-21.58493854 8.90543025 -21.06074946 9.93925054 -18.9375 12.0625 C-18.298125 12.701875 -17.65875 13.34125 -17 14 C-17 14.99 -17 15.98 -17 17 C-17.66 17.33 -18.32 17.66 -19 18 C-18.7525 18.886875 -18.505 19.77375 -18.25 20.6875 C-18 24 -18 24 -19.9375 26.875 C-20.618125 27.57625 -21.29875 28.2775 -22 29 C-21.814375 28.030625 -21.62875 27.06125 -21.4375 26.0625 C-21.2209375 24.5465625 -21.2209375 24.5465625 -21 23 C-21.33 22.67 -21.66 22.34 -22 22 C-22.17299981 18.79950343 -21.9097643 16.07045451 -21 13 C-21.99 12.4121875 -21.99 12.4121875 -23 11.8125 C-25 10 -25 10 -25.5 7.5 C-25 5 -25 5 -23.4375 3.125 C-19.87190297 1.47933983 -17.73509355 1.93283041 -14 3 C-11.875 5.3125 -11.875 5.3125 -10 8 C-5.01790987 12.71278796 0.43566588 13.75809895 7 15 C8.33542939 15.32483418 9.66961551 15.6550855 11 16 C10.505 14.515 10.505 14.515 10 13 C8.329375 12.62875 8.329375 12.62875 6.625 12.25 C3 11 3 11 1.0625 7.625 C0 4 0 4 0 0 Z " fill="#C9DBDD" transform="translate(49,6)"/>
	

	

	

	<path d="M0 0 C0.99 0 1.98 0 3 0 C3.08636719 0.69867188 3.17273437 1.39734375 3.26171875 2.1171875 C3.68152578 4.83630459 4.14648096 7.38283191 5 10 C7.35346742 11.55849551 7.35346742 11.55849551 10 12 C11.5 13.3125 11.5 13.3125 13 15 C14.2065625 16.1446875 14.2065625 16.1446875 15.4375 17.3125 C18 20 18 20 20 23.125 C22.09638706 26.1385564 23.84610396 27.24783553 27 29 C27 29.66 27 30.32 27 31 C27.58394531 31.28359375 28.16789062 31.5671875 28.76953125 31.859375 C37.17558536 36.15809269 41.35494012 42.05205075 46.1171875 49.953125 C47.82570227 52.97891092 47.82570227 52.97891092 50 55 C49.625 57.125 49.625 57.125 49 59 C46.03 59.495 46.03 59.495 43 60 C37.4305026 52.89844021 37.4305026 52.89844021 35.5625 49 C31.85970457 41.89063278 27.49438089 37.86684103 20.0859375 34.984375 C16.5598332 33.32037072 15.09788554 31.27794616 13 28 C12.1875 24.625 12.1875 24.625 12 22 C8.62537285 22.54723683 6.91765 23.0549 4 25 C1.92191323 22.92191323 1.4694445 21.84070953 0.5625 19.125 C-0.34597987 16.5439854 -1.04828391 14.93792068 -2.75 12.75 C-4 11 -4 11 -3.8125 8.875 C-3 7 -3 7 -1 5 C-0.35232207 2.42938689 -0.35232207 2.42938689 0 0 Z " fill="#469BC3" transform="translate(36,58)"/>
	

	<path d="M0 0 C3.62343602 1.93811694 5.26739986 4.11850553 7.6875 7.4375 C7.6875 8.0975 7.6875 8.7575 7.6875 9.4375 C8.38875 9.705625 9.09 9.97375 9.8125 10.25 C17.79861111 13.54861111 17.79861111 13.54861111 20.6875 16.4375 C20.8125 20.0625 20.8125 20.0625 20.6875 23.4375 C22.9975 23.7675 25.3075 24.0975 27.6875 24.4375 C28.3125 26.3125 28.3125 26.3125 28.6875 28.4375 C26.6875 30.4375 26.6875 30.4375 24.6640625 30.703125 C23.50003906 30.69539063 23.50003906 30.69539063 22.3125 30.6875 C21.15621094 30.69523437 21.15621094 30.69523437 19.9765625 30.703125 C17.47017548 30.41228146 15.91048131 29.58716306 13.6875 28.4375 C8.34925195 28.05013803 8.34925195 28.05013803 3.6875 30.4375 C2.635625 30.72625 1.58375 31.015 0.5 31.3125 C-3.20620804 32.40613516 -6.17627927 33.84039907 -9.515625 35.73046875 C-11.3125 36.4375 -11.3125 36.4375 -14.3125 35.4375 C-13.0082672 31.5248016 -11.52315261 29.06439759 -8.3125 26.4375 C-7.3225 26.4375 -6.3325 26.4375 -5.3125 26.4375 C-5.3125 25.7775 -5.3125 25.1175 -5.3125 24.4375 C-4.405 24.045625 -3.4975 23.65375 -2.5625 23.25 C0.96082902 21.28506651 2.69685309 19.94103856 4.6875 16.4375 C4.93588381 12.84278996 4.93588381 12.84278996 3.6875 9.4375 C1.40459187 7.06092275 1.40459187 7.06092275 -1.3125 5.4375 C-2.3025 4.7775 -3.2925 4.1175 -4.3125 3.4375 C-4.3125 2.4475 -4.3125 1.4575 -4.3125 0.4375 C-2.3125 -0.5625 -2.3125 -0.5625 0 0 Z " fill="#469AC2" transform="translate(59.3125,9.5625)"/>
	

	<path d="M0 0 C0 0.66 0 1.32 0 2 C-1.01320313 2.45439453 -1.01320313 2.45439453 -2.046875 2.91796875 C-9.14910295 6.13006697 -9.14910295 6.13006697 -14 12 C-14.86258193 14.97390166 -15.49438151 17.94633047 -16 21 C-13.56282742 20.72965366 -13.56282742 20.72965366 -11 20 C-10.34 19.01 -9.68 18.02 -9 17 C-5.875 16.3125 -5.875 16.3125 -3 16 C-3 16.99 -3 17.98 -3 19 C-4.98 19.99 -6.96 20.98 -9 22 C-9 22.99 -9 23.98 -9 25 C-5.24480943 24.48792856 -2.33311475 23.7824918 1 22 C0.85831863 23.43791516 0.71148957 24.8753237 0.5625 26.3125 C0.48128906 27.11300781 0.40007813 27.91351563 0.31640625 28.73828125 C-0 31 -0 31 -1 34 C-2.0725 33.938125 -3.145 33.87625 -4.25 33.8125 C-8.32691838 34.01634592 -8.94203338 34.65555892 -12 37 C-14.75 36.6875 -14.75 36.6875 -17 36 C-17.66 33.36 -18.32 30.72 -19 28 C-20.98 28 -22.96 28 -25 28 C-25 29.98 -25 31.96 -25 34 C-25.99 34.495 -25.99 34.495 -27 35 C-27.65555119 37.52733235 -27.65555119 37.52733235 -28 40 C-28.66 39.67 -29.32 39.34 -30 39 C-29.33606358 34.61801962 -28.18924032 30.8676579 -26 27 C-22.3125 25.5625 -22.3125 25.5625 -19 25 C-19.33 24.01 -19.66 23.02 -20 22 C-22.23957569 21.1942922 -22.23957569 21.1942922 -24.875 20.6875 C-29.75068706 19.38176045 -29.75068706 19.38176045 -32 15.9375 C-32.33 14.968125 -32.66 13.99875 -33 13 C-33.66 12.34 -34.32 11.68 -35 11 C-34.75 8.9375 -34.75 8.9375 -34 7 C-33.34 6.67 -32.68 6.34 -32 6 C-31.9175 6.763125 -31.835 7.52625 -31.75 8.3125 C-30.84504809 11.55524435 -29.71226652 12.16265816 -27 14 C-27 14.66 -27 15.32 -27 16 C-24.69 16.33 -22.38 16.66 -20 17 C-19.8453125 15.4221875 -19.8453125 15.4221875 -19.6875 13.8125 C-18.85939457 9.22027896 -17.96801363 6.51122955 -14.19921875 3.6171875 C-9.48481355 0.50976411 -5.65085405 -1.88361802 0 0 Z " fill="#C9DBDD" transform="translate(59,29)"/>
	

	

	<path d="M0 0 C4.16245096 0.0783095 6.93634435 0.49483177 10.1875 3.3125 C10.1875 3.9725 10.1875 4.6325 10.1875 5.3125 C11.5075 5.9725 12.8275 6.6325 14.1875 7.3125 C14.1875 7.9725 14.1875 8.6325 14.1875 9.3125 C17.1575 9.8075 17.1575 9.8075 20.1875 10.3125 C20.5175 11.6325 20.8475 12.9525 21.1875 14.3125 C19.9809375 14.9621875 19.9809375 14.9621875 18.75 15.625 C15.90903646 17.11724002 15.90903646 17.11724002 15.1875 20.3125 C11.5575 20.3125 7.9275 20.3125 4.1875 20.3125 C3.8575 19.3225 3.5275 18.3325 3.1875 17.3125 C1.1299598 14.96102549 -0.74603278 13.35206382 -3.4375 11.75 C-5.8125 10.3125 -5.8125 10.3125 -7.8125 7.3125 C-7.26363659 1.68665004 -5.58634973 0.02512601 0 0 Z " fill="#489CC3" transform="translate(55.8125,107.6875)"/>
	

	<path d="M0 0 C3.47576678 0.39013709 4.29226025 1.50820423 6.5546875 4.11328125 C11.97260273 9.86663964 16.73661183 11.49026332 24.6796875 12.30078125 C25.0096875 13.29078125 25.3396875 14.28078125 25.6796875 15.30078125 C24.04 15.91953125 24.04 15.91953125 22.3671875 16.55078125 C21.27664062 16.96457031 21.27664062 16.96457031 20.1640625 17.38671875 C18.43420409 18.02317609 16.69345165 18.63046581 14.9453125 19.21484375 C9.06528933 21.21275217 4.53533571 23.41626268 -0.3203125 27.30078125 C-0.9803125 26.97078125 -1.6403125 26.64078125 -2.3203125 26.30078125 C-2.0109375 25.59953125 -1.7015625 24.89828125 -1.3828125 24.17578125 C-0.06307112 20.60471634 0.6796875 17.11718139 0.6796875 13.30078125 C1.9996875 12.97078125 3.3196875 12.64078125 4.6796875 12.30078125 C3.31598451 9.30857857 1.73060667 7.01051596 -0.4453125 4.55078125 C-0.98414063 3.9371875 -1.52296875 3.32359375 -2.078125 2.69140625 C-2.48804687 2.2325 -2.89796875 1.77359375 -3.3203125 1.30078125 C-2.3203125 0.30078125 -2.3203125 0.30078125 0 0 Z " fill="#469BC3" transform="translate(30.3203125,11.69921875)"/>
	

	

	

	<path d="M0 0 C0.66 0 1.32 0 2 0 C4.68570153 2.89541625 5.52902832 5.40047323 6.1875 9.25 C6.34605469 10.14203125 6.50460938 11.0340625 6.66796875 11.953125 C6.77753906 12.62859375 6.88710938 13.3040625 7 14 C8.32 14.33 9.64 14.66 11 15 C11.66 14.01 12.32 13.02 13 12 C14.875 12.125 14.875 12.125 17 13 C18.0625 15.8125 18.0625 15.8125 19 19 C19.97581759 20.35113205 20.97029741 21.68946944 22 23 C22 23.66 22 24.32 22 25 C22.87011719 25.23783203 22.87011719 25.23783203 23.7578125 25.48046875 C30.77844342 27.57738987 35.4333975 30.14881231 39.375 36.5625 C41 40 41 40 41 44 C33.375 42.25 33.375 42.25 30 40 C27.5559896 39.64626379 27.5559896 39.64626379 24.9375 39.6875 C23.62072266 39.66236328 23.62072266 39.66236328 22.27734375 39.63671875 C21.52582031 39.75660156 20.77429688 39.87648437 20 40 C17.77465305 42.73709522 17.77465305 42.73709522 18 45.4375 C19.415866 49.06565663 21.72290518 50.0080404 25 52 C26.36886951 53.29682374 27.7169291 54.61823134 29 56 C28.67 56.99 28.34 57.98 28 59 C27.29875 58.071875 26.5975 57.14375 25.875 56.1875 C23.31939903 53.09157196 20.70343309 51.59920974 17 50 C15.12356239 48.12356239 15.82015013 45.50194299 15.76953125 43.0078125 C16 41 16 41 18 38 C22.9341407 36.35528643 26.94732599 36.16491498 31.74609375 38.1171875 C34.20393591 39.35133803 36.61472294 40.63139841 39 42 C38.26160754 40.55650326 37.50873357 39.12040949 36.75 37.6875 C36.33234375 36.88699219 35.9146875 36.08648437 35.484375 35.26171875 C32.86886906 31.27651364 30.02901737 29.82750951 25.5 28.6875 C22.03713829 27.5900742 21.0748806 27.08448067 18.5625 24.25 C16.90971992 20.81221744 15.88794652 17.69977716 15 14 C13.35 15.65 11.7 17.3 10 19 C7.6875 18.1875 7.6875 18.1875 5 16 C3.98711676 13.19116411 3.30726023 10.41329419 2.67578125 7.49609375 C2.18156677 4.84973444 2.18156677 4.84973444 0 3 C0 2.01 0 1.02 0 0 Z " fill="#C8D9DB" transform="translate(31,69)"/>
	

	

	

	

	

	

	

	

	

	

	

	

	

	

	

	

	

	

	

	

	

</svg>
