<?xml version="1.0" encoding="UTF-8"?>
<svg version="1.1" xmlns="http://www.w3.org/2000/svg" width="128" height="128">
<path d="M0 0 C42.24 0 84.48 0 128 0 C128 42.24 128 84.48 128 128 C85.76 128 43.52 128 0 128 C0 85.76 0 43.52 0 0 Z " fill="#CACAC9" transform="translate(0,0)"/>
<path d="M0 0 C11.22 0 22.44 0 34 0 C34 1.32 34 2.64 34 4 C35.2375 3.896875 36.475 3.79375 37.75 3.6875 C41.08766429 3.70525353 41.77318887 3.81855109 44.5 6 C47.73717346 12.47434692 45.80607929 19.31618833 44 26 C43.505 27.485 43.505 27.485 43 29 C42.34 29 41.68 29 41 29 C40.47173579 32.62238312 39.96848292 36.24425736 39.5 39.875 C39.41234375 40.53886719 39.3246875 41.20273437 39.234375 41.88671875 C39.07055195 43.36385657 38.96025273 44.84746865 38.890625 46.33203125 C38.64729559 50.40779892 38.49243309 52.40908029 35.8125 55.625 C34.884375 56.40875 33.95625 57.1925 33 58 C31.87598044 59.25330819 30.77206638 60.52489868 29.6875 61.8125 C29.17574219 62.41707031 28.66398437 63.02164063 28.13671875 63.64453125 C27.57404297 64.31548828 27.57404297 64.31548828 27 65 C22.42217484 64.51812367 22.42217484 64.51812367 20.625 62.3125 C19.38479363 57.72373642 20.62232885 54.65787877 22.9375 50.625 C23.618125 49.75875 24.29875 48.8925 25 48 C25.66 48 26.32 48 27 48 C27 47.01 27 46.02 27 45 C28.29103643 43.6256709 29.6256709 42.29103643 31 41 C32.10630091 38.78739818 32.23058377 37.26593534 32.4375 34.8125 C32.73179642 31.83156206 33.16830113 29.45549634 34.0625 26.5625 C35.26862769 21.97921477 35.17055165 17.70912069 35 13 C34.01 12.67 33.02 12.34 32 12 C32.33 9.69 32.66 7.38 33 5 C29.535 6.485 29.535 6.485 26 8 C26 9.98 26 11.96 26 14 C27.32 14.33 28.64 14.66 30 15 C30.6875 17.1875 30.6875 17.1875 31 20 C30.01 21.65 29.02 23.3 28 25 C23.71 24.67 19.42 24.34 15 24 C14.67 24.66 14.34 25.32 14 26 C14.66 26 15.32 26 16 26 C16 26.66 16 27.32 16 28 C17.485 28.495 17.485 28.495 19 29 C19 29.66 19 30.32 19 31 C20.175625 31.433125 20.175625 31.433125 21.375 31.875 C24 33 24 33 26 35 C26.39453125 37.86328125 26.39453125 37.86328125 26 41 C24.13671875 43.23046875 24.13671875 43.23046875 21.6875 45.1875 C20.88699219 45.84105469 20.08648437 46.49460938 19.26171875 47.16796875 C18.51535156 47.77253906 17.76898438 48.37710938 17 49 C14.63324049 51.12100119 14.04147268 51.87558196 13 55 C12.01 55.495 12.01 55.495 11 56 C10.56135347 60.51643461 11.72492693 62.63724732 14.375 66.25 C15.31472656 67.55710938 15.31472656 67.55710938 16.2734375 68.890625 C18.16601951 71.20282926 19.03594849 71.90151144 21.98828125 72.203125 C26.8717179 72.30161448 29.98077177 72.11166057 34 69 C35.20568053 73.67201205 35.09382426 78.21496292 35 83 C33.35 83.33 31.7 83.66 30 84 C30.103125 84.886875 30.20625 85.77375 30.3125 86.6875 C30 90 30 90 27.8125 92.9375 C25 95 25 95 22.546875 94.859375 C19.54182025 93.84539947 18.43572302 92.74653036 16.4375 90.3125 C15.84066406 89.59578125 15.24382812 88.8790625 14.62890625 88.140625 C13.24739349 86.32511183 12.04589311 84.51556867 10.875 82.5625 C9.22027127 79.77229517 9.22027127 79.77229517 6.25 79.125 C5.5075 79.08375 4.765 79.0425 4 79 C-0.71782611 84.66139133 -2.28817083 87.5075585 -2 95 C-1.34 95 -0.68 95 0 95 C0.66 97.97 1.32 100.94 2 104 C-2.1196377 105.29243536 -5.66831683 106.26252625 -10 106 C-10 106.66 -10 107.32 -10 108 C-11.76896102 108.36340286 -13.54026626 108.71540883 -15.3125 109.0625 C-16.29863281 109.25972656 -17.28476562 109.45695312 -18.30078125 109.66015625 C-21 110 -21 110 -24 109 C-24.875 107.25 -24.875 107.25 -25 105 C-24.525625 104.236875 -24.05125 103.47375 -23.5625 102.6875 C-21.53789524 99.20517981 -21.56677783 96.97120318 -22 93 C-23.39957197 90.71515694 -23.39957197 90.71515694 -25 89 C-25 88.34 -25 87.68 -25 87 C-31.04975428 84.95541607 -31.04975428 84.95541607 -37 86.4375 C-40.40493792 90.80007671 -40.1622182 95.64679928 -40 101 C-40.99 101 -41.98 101 -43 101 C-44.3515625 99.390625 -44.3515625 99.390625 -45.625 97.25 C-46.26308594 96.20585937 -46.26308594 96.20585937 -46.9140625 95.140625 C-51.19253632 86.70679892 -49.44410161 75.78066135 -47 67 C-46.77054688 66.02289063 -46.54109375 65.04578125 -46.3046875 64.0390625 C-46.05976562 63.03617188 -45.81484375 62.03328125 -45.5625 61 C-45.33691406 60.071875 -45.11132812 59.14375 -44.87890625 58.1875 C-44.58886719 57.465625 -44.29882812 56.74375 -44 56 C-42.515 55.505 -42.515 55.505 -41 55 C-40.95101562 54.38511719 -40.90203125 53.77023438 -40.8515625 53.13671875 C-40.77679688 52.32847656 -40.70203125 51.52023438 -40.625 50.6875 C-40.55539063 49.88699219 -40.48578125 49.08648437 -40.4140625 48.26171875 C-40 46 -40 46 -38 43 C-35.43359375 41.90234375 -35.43359375 41.90234375 -32.4375 40.9375 C-30.60694542 40.34477166 -28.78867495 39.70915363 -27 39 C-26.67 38.34 -26.34 37.68 -26 37 C-24.60525966 36.36602712 -23.18334319 35.79106332 -21.75 35.25 C-17.01426958 33.24930376 -15.08951127 31.0335286 -12 27 C-10.33720673 25.9935725 -8.67016516 24.99414593 -7 24 C-5.18828986 22.25781373 -3.45885173 20.46042969 -1.74609375 18.62109375 C0.06408085 16.9405066 1.74952085 15.98981687 4 15 C4.62807517 9.34013839 4.62807517 9.34013839 2 4.6875 C1.34 4.130625 0.68 3.57375 0 3 C0 2.01 0 1.02 0 0 Z " fill="#FAFAF9" transform="translate(73,0)"/>
<path d="M0 0 C6.93 0 13.86 0 21 0 C21 42.24 21 84.48 21 128 C-21.24 128 -63.48 128 -107 128 C-107 103.58 -107 79.16 -107 54 C-106.34 54 -105.68 54 -105 54 C-104.82984375 53.39414062 -104.6596875 52.78828125 -104.484375 52.1640625 C-99.44459126 34.73927829 -99.44459126 34.73927829 -95 31 C-92.1875 29.5625 -92.1875 29.5625 -89 29 C-85.625 30.6875 -85.625 30.6875 -83 33 C-83 33.99 -83 34.98 -83 36 C-83.9075 35.79375 -84.815 35.5875 -85.75 35.375 C-89.23116559 34.97332705 -90.17356991 35.10017277 -93 37 C-94.02312203 38.821376 -94.02312203 38.821376 -94.5625 41 C-94.7996875 41.804375 -95.036875 42.60875 -95.28125 43.4375 C-95.5184375 44.283125 -95.755625 45.12875 -96 46 C-96.52083333 47.66666667 -97.04166667 49.33333333 -97.5625 51 C-98.04905352 52.6645252 -98.5284844 54.33115264 -99 56 C-99.20882812 56.72960938 -99.41765625 57.45921875 -99.6328125 58.2109375 C-103.074512 71.63841301 -100.89318354 86.3580065 -94.0625 98.421875 C-92.15993216 101.08835265 -90.18111788 103.5585841 -88 106 C-87.21625 106.928125 -86.4325 107.85625 -85.625 108.8125 C-71.85602764 120.28664364 -56.94325048 121.0462497 -39.671875 119.69140625 C-27.88635742 118.60082942 -19.06534712 116.24776244 -9.91015625 108.48828125 C-8 107 -8 107 -5 106 C-4.28500467 104.69194652 -3.62313888 103.35422308 -3 102 C-2.06011024 100.8184243 -1.10047397 99.65237339 -0.125 98.5 C7.33305374 88.5376488 8.12380991 77.00908494 7 65 C6.34 64.01 5.68 63.02 5 62 C4.01 63.0828125 4.01 63.0828125 3 64.1875 C-0.77839899 67.93369673 -5.20654475 71.87007185 -10.6875 72.125 C-15.45428393 69.80602403 -18.95228265 65.60904341 -21.375 60.9453125 C-22.37960535 57.81847835 -22.16949356 55.48147938 -21.31640625 52.33203125 C-18.99785996 48.22469555 -15.17339925 45.85742288 -11.3359375 43.23828125 C-8.70492379 41.16611921 -8.70492379 41.16611921 -8.48828125 37.8671875 C-8.72117271 34.71341271 -8.72117271 34.71341271 -11.8125 32.8125 C-12.864375 32.214375 -13.91625 31.61625 -15 31 C-16.875 29.375 -16.875 29.375 -18 28 C-18 27.34 -18 26.68 -18 26 C-18.66 26 -19.32 26 -20 26 C-19.505 24.515 -19.505 24.515 -19 23 C-14.55790643 22.89165625 -10.38585329 23.29826347 -6 24 C-4.38050989 21.42786866 -3.95591249 20.32330841 -4.375 17.25 C-4.684375 16.13625 -4.684375 16.13625 -5 15 C-5.99 14.67 -6.98 14.34 -8 14 C-8.495 11.03 -8.495 11.03 -9 8 C-4.375 5 -4.375 5 -1 5 C-1.0928125 6.6396875 -1.0928125 6.6396875 -1.1875 8.3125 C-1.42671113 11.92003642 -1.42671113 11.92003642 0.5 13.4375 C2 15 2 15 2.3125 18.75 C2.16766007 22.72585607 1.13693982 26.18790766 0 30 C-0.14656121 31.51890712 -0.27062225 33.0401123 -0.375 34.5625 C-0.80010924 39.07638722 -2.07822103 41.54698849 -5 45 C-5.66 45 -6.32 45 -7 45 C-7 45.99 -7 46.98 -7 48 C-7.99 48.66 -8.98 49.32 -10 50 C-11.92870773 53.09970884 -13.09266863 55.00381227 -12.75 58.6875 C-12.17481217 60.46099582 -11.58958701 62.23123896 -11 64 C-9.68 64 -8.36 64 -7 64 C-6.34 63.01 -5.68 62.02 -5 61 C-4.34 61 -3.68 61 -3 61 C-2.62875 60.13375 -2.62875 60.13375 -2.25 59.25 C-1 57 -1 57 1.0625 55.3125 C3.9657137 51.84737397 3.73899246 48.39362688 4 44 C4.49900295 38.79885391 5.44391698 33.97946565 7 29 C7.66 29 8.32 29 9 29 C10.93151053 19.06256923 10.93151053 19.06256923 11 9 C9.62493901 7.12109566 9.62493901 7.12109566 8 6 C8 5.34 8 4.68 8 4 C5.36 4 2.72 4 0 4 C0 2.68 0 1.36 0 0 Z " fill="#454545" transform="translate(107,0)"/>
<path d="M0 0 C8.91 0 17.82 0 27 0 C27.495 2.475 27.495 2.475 28 5 C29.96758273 6.36020151 29.96758273 6.36020151 32 7 C32.69588491 12.04516561 32.69588491 12.04516561 32 15 C30.21608131 16.88154608 28.34524953 18.14416668 26.16796875 19.546875 C24.02461302 20.98350262 22.43664561 22.48927123 20.6875 24.375 C18 27 18 27 15 27 C14.34 28.32 13.68 29.64 13 31 C12.34 31 11.68 31 11 31 C10.67 31.99 10.34 32.98 10 34 C6.78715662 35.88579937 4.75366417 37 1 37 C0.67 37.99 0.34 38.98 0 40 C-2.3984375 40.78125 -2.3984375 40.78125 -5.375 41.5 C-8.4136562 42.37870288 -8.4136562 42.37870288 -11 44 C-12.44325931 46.90780563 -13.02281517 49.43987978 -13.53515625 52.63671875 C-13.68855469 53.41660156 -13.84195313 54.19648437 -14 55 C-14.99 55.495 -14.99 55.495 -16 56 C-17.27998696 59.58396348 -18.08895372 63.30709585 -19 67 C-19.21011719 67.75023438 -19.42023437 68.50046875 -19.63671875 69.2734375 C-22.12668374 78.77415499 -22.04136115 88.00662198 -18.16796875 97.07421875 C-17.00071339 99.30558817 -17.00071339 99.30558817 -14 101 C-14.03480469 100.40832031 -14.06960937 99.81664063 -14.10546875 99.20703125 C-14.27443953 94.27469367 -14.27178139 90.9728774 -11 87 C-9.1875 85.125 -9.1875 85.125 -7 84 C-2.92221026 84 -1.35479923 84.69358248 1.75 87.375 C5.93079585 92.25259516 5.93079585 92.25259516 6.3125 96.375 C5.98078859 100.2228524 5.05731204 101.82831061 3 105 C3 106.32 3 107.64 3 109 C7.62 108.67 12.24 108.34 17 108 C17 107.34 17 106.68 17 106 C22.445 105.01 22.445 105.01 28 104 C27.505 99.545 27.505 99.545 27 95 C26.34 95 25.68 95 25 95 C23.79775281 88.74831461 23.79775281 88.74831461 24.625 85.6875 C26.54653291 83.32925506 28.05500219 82.73624945 31 82 C34.06513987 82.02550741 36.16603766 82.2239016 38.46728516 84.36547852 C39.95599773 86.17400568 41.33319834 88.02632466 42.6875 89.9375 C43.62499256 91.22031725 44.56626413 92.50038331 45.51171875 93.77734375 C45.91865967 94.34702881 46.32560059 94.91671387 46.74487305 95.50366211 C48.11534798 97.27984479 48.11534798 97.27984479 51 99 C51 99.99 51 100.98 51 102 C48 104 48 104 45.5 104.0625 C43 103 43 103 41.5625 99.875 C41.33691406 99.25109375 41.11132812 98.6271875 40.87890625 97.984375 C39.32734733 94.48129976 36.8051236 91.58597332 34 89 C33.01 88.67 32.02 88.34 31 88 C30.51907961 91.20613591 30.51026885 93.28423909 32.37109375 96.00390625 C32.92925781 96.68324219 33.48742187 97.36257812 34.0625 98.0625 C36.97890512 101.69764003 36.97890512 101.69764003 37.1875 104.6875 C35.5226349 107.92960571 33.85154175 109.68426918 31 112 C27.79355155 112.98668265 24.5771671 113.37588076 21.25 113.75 C19.52565224 113.97093999 17.80166787 114.19474144 16.078125 114.421875 C14.93972168 114.55480957 14.93972168 114.55480957 13.77832031 114.69042969 C11.98051878 114.82769431 11.98051878 114.82769431 11 116 C1.22217693 116.81481859 -8.20112053 114.47314625 -16.125 108.5625 C-19.1359457 105.98561399 -21.28573617 103.61900142 -23 100 C-23.804375 98.7625 -23.804375 98.7625 -24.625 97.5 C-29.08413602 89.39247996 -28.17515875 75.10674379 -25.7734375 66.265625 C-20.85340314 51.85340314 -20.85340314 51.85340314 -19 50 C-18.55901608 42.92374638 -18.912223 36.78527523 -21 30 C-21.61683946 24.28665087 -21.36570353 19.83819882 -18 15 C-14.89956698 11.879819 -11.77896287 8.87521168 -7.80859375 6.921875 C-5.81927412 6.1333699 -5.81927412 6.1333699 -5 4 C-4.01 4 -3.02 4 -2 4 C-1.34 2.68 -0.68 1.36 0 0 Z " fill="#212121" transform="translate(46,0)"/>
<path d="M0 0 C1.98 0 3.96 0 6 0 C6 42.24 6 84.48 6 128 C-15.12 128 -36.24 128 -58 128 C-57.34 127.01 -56.68 126.02 -56 125 C-52.91015625 124.4453125 -52.91015625 124.4453125 -49.0625 124.125 C-42.84613429 123.4865826 -37.92785861 122.02632887 -32.3125 119.16015625 C-30 118 -30 118 -26.4375 116.9375 C-23.37779974 115.76069221 -23.32498601 114.89840689 -22 112 C-20.00334402 110.32932867 -18.00348966 108.66247014 -16 107 C-15.505 105.515 -15.505 105.515 -15 104 C-13.7934375 103.5978125 -13.7934375 103.5978125 -12.5625 103.1875 C-9.78025391 102.25086106 -9.78025391 102.25086106 -9 99.5625 C-8.67 98.386875 -8.34 97.21125 -8 96 C-7.16213564 94.20065194 -6.30629513 92.40961905 -5.4375 90.625 C-3.29468745 85.94862673 -2.14540187 82.11814582 -2 77 C-1.94972656 76.21625 -1.89945313 75.4325 -1.84765625 74.625 C-1.63543957 68.92061574 -2.35949679 63.63858613 -3.5 58.0625 C-5.93313506 45.87392463 -5.81085867 37.22162544 0 26 C0.495 25.505 0.495 25.505 1 25 C1.10111378 22.11528347 1.13862788 19.25956869 1.125 16.375 C1.12886719 15.57964844 1.13273437 14.78429687 1.13671875 13.96484375 C1.1289035 9.20535565 0.79273149 4.69347376 0 0 Z " fill="#FAFAF9" transform="translate(122,0)"/>
<path d="M0 0 C11.22 0 22.44 0 34 0 C34 1.32 34 2.64 34 4 C35.2375 3.896875 36.475 3.79375 37.75 3.6875 C41.08766429 3.70525353 41.77318887 3.81855109 44.5 6 C47.73717346 12.47434692 45.80607929 19.31618833 44 26 C43.505 27.485 43.505 27.485 43 29 C42.34 29 41.68 29 41 29 C40.47173579 32.62238312 39.96848292 36.24425736 39.5 39.875 C39.41234375 40.53886719 39.3246875 41.20273437 39.234375 41.88671875 C39.07055195 43.36385657 38.96025273 44.84746865 38.890625 46.33203125 C38.64729559 50.40779892 38.49243309 52.40908029 35.8125 55.625 C34.884375 56.40875 33.95625 57.1925 33 58 C31.87598044 59.25330819 30.77206638 60.52489868 29.6875 61.8125 C29.17574219 62.41707031 28.66398437 63.02164063 28.13671875 63.64453125 C27.57404297 64.31548828 27.57404297 64.31548828 27 65 C22.42217484 64.51812367 22.42217484 64.51812367 20.625 62.3125 C19.38479363 57.72373642 20.62232885 54.65787877 22.9375 50.625 C23.618125 49.75875 24.29875 48.8925 25 48 C25.66 48 26.32 48 27 48 C27 47.01 27 46.02 27 45 C28.29103643 43.6256709 29.6256709 42.29103643 31 41 C32.10630091 38.78739818 32.23058377 37.26593534 32.4375 34.8125 C32.73179642 31.83156206 33.16830113 29.45549634 34.0625 26.5625 C35.26862769 21.97921477 35.17055165 17.70912069 35 13 C34.01 12.67 33.02 12.34 32 12 C32.33 9.69 32.66 7.38 33 5 C29.535 6.485 29.535 6.485 26 8 C26 9.98 26 11.96 26 14 C27.32 14.33 28.64 14.66 30 15 C30.6875 17.1875 30.6875 17.1875 31 20 C30.01 21.65 29.02 23.3 28 25 C23.71 24.67 19.42 24.34 15 24 C14.67 24.66 14.34 25.32 14 26 C14.66 26 15.32 26 16 26 C16 26.66 16 27.32 16 28 C7.87096774 28.62531017 7.87096774 28.62531017 4.5625 26.25 C3.14982328 24.21574552 2.07806253 22.22146218 1 20 C0.46890625 20.49371094 -0.0621875 20.98742187 -0.609375 21.49609375 C-1.31578125 22.13675781 -2.0221875 22.77742188 -2.75 23.4375 C-3.44609375 24.07558594 -4.1421875 24.71367187 -4.859375 25.37109375 C-7.01915596 27.01457671 -8.41981175 27.39289688 -11 28 C-11.67441131 29.6635479 -12.3400321 31.33066942 -13 33 C-16.69757667 36.69757667 -20.04557334 37.83425255 -25 39 C-25 39.66 -25 40.32 -25 41 C-33 45 -33 45 -35.1640625 45.7890625 C-37.85518615 47.56405895 -37.95044918 49.41169506 -38.625 52.5 C-39.81355932 57.81355932 -39.81355932 57.81355932 -42 60 C-42.58624999 61.79241026 -43.09883419 63.60954004 -43.5625 65.4375 C-44.30662861 68.33304709 -45.05424888 71.16274665 -46 74 C-46.14880933 76.78445155 -46.23107 79.52742385 -46.25 82.3125 C-46.270625 83.05951172 -46.29125 83.80652344 -46.3125 84.57617188 C-46.34695061 89.48107757 -45.60102928 92.69461205 -43 97 C-42.96261719 96.39671875 -42.92523438 95.7934375 -42.88671875 95.171875 C-42.59332813 91.60516547 -42.33054396 88.67761513 -40.75 85.4375 C-39 84 -39 84 -36.3125 83.75 C-35.549375 83.8325 -34.78625 83.915 -34 84 C-34.804375 84.680625 -35.60875 85.36125 -36.4375 86.0625 C-40.37047874 90.5710366 -40.17509621 95.22182491 -40 101 C-40.99 101 -41.98 101 -43 101 C-44.3515625 99.390625 -44.3515625 99.390625 -45.625 97.25 C-46.26308594 96.20585937 -46.26308594 96.20585937 -46.9140625 95.140625 C-51.19253632 86.70679892 -49.44410161 75.78066135 -47 67 C-46.77054688 66.02289063 -46.54109375 65.04578125 -46.3046875 64.0390625 C-46.05976562 63.03617188 -45.81484375 62.03328125 -45.5625 61 C-45.33691406 60.071875 -45.11132812 59.14375 -44.87890625 58.1875 C-44.58886719 57.465625 -44.29882812 56.74375 -44 56 C-42.515 55.505 -42.515 55.505 -41 55 C-40.95101562 54.38511719 -40.90203125 53.77023438 -40.8515625 53.13671875 C-40.77679688 52.32847656 -40.70203125 51.52023438 -40.625 50.6875 C-40.55539063 49.88699219 -40.48578125 49.08648437 -40.4140625 48.26171875 C-40 46 -40 46 -38 43 C-35.43359375 41.90234375 -35.43359375 41.90234375 -32.4375 40.9375 C-30.60694542 40.34477166 -28.78867495 39.70915363 -27 39 C-26.67 38.34 -26.34 37.68 -26 37 C-24.60525966 36.36602712 -23.18334319 35.79106332 -21.75 35.25 C-17.01426958 33.24930376 -15.08951127 31.0335286 -12 27 C-10.33720673 25.9935725 -8.67016516 24.99414593 -7 24 C-5.18828986 22.25781373 -3.45885173 20.46042969 -1.74609375 18.62109375 C0.06408085 16.9405066 1.74952085 15.98981687 4 15 C4.62807517 9.34013839 4.62807517 9.34013839 2 4.6875 C1.34 4.130625 0.68 3.57375 0 3 C0 2.01 0 1.02 0 0 Z " fill="#6F6F6F" transform="translate(73,0)"/>
<path d="M0 0 C4.95 0 9.9 0 15 0 C16.68913912 5.91198691 17.38624718 9.9502348 17.375 15.875 C17.3747583 17.06536865 17.3747583 17.06536865 17.37451172 18.27978516 C17.25729971 24.28474155 16.19147627 28.85170616 13 34 C8.41661727 41.8158737 11.20284413 51.73153762 12.92138672 60.11914062 C14.39022176 67.50426519 15.42477829 74.15044343 12 81 C11.505 72.09 11.505 72.09 11 63 C10.67 63 10.34 63 10 63 C10 69.27 10 75.54 10 82 C9.67 82 9.34 82 9 82 C9 76.39 9 70.78 9 65 C8.34 65 7.68 65 7 65 C6.34 64.01 5.68 63.02 5 62 C4.34 62.721875 3.68 63.44375 3 64.1875 C-0.77839899 67.93369673 -5.20654475 71.87007185 -10.6875 72.125 C-15.45428393 69.80602403 -18.95228265 65.60904341 -21.375 60.9453125 C-22.37960535 57.81847835 -22.16949356 55.48147938 -21.31640625 52.33203125 C-18.99785996 48.22469555 -15.17339925 45.85742288 -11.3359375 43.23828125 C-8.70492379 41.16611921 -8.70492379 41.16611921 -8.48828125 37.8671875 C-8.72117271 34.71341271 -8.72117271 34.71341271 -11.8125 32.8125 C-12.864375 32.214375 -13.91625 31.61625 -15 31 C-16.875 29.375 -16.875 29.375 -18 28 C-18 27.34 -18 26.68 -18 26 C-18.66 26 -19.32 26 -20 26 C-19.67 25.01 -19.34 24.02 -19 23 C-14.55790643 22.89165625 -10.38585329 23.29826347 -6 24 C-4.38050989 21.42786866 -3.95591249 20.32330841 -4.375 17.25 C-4.58125 16.5075 -4.7875 15.765 -5 15 C-5.99 14.67 -6.98 14.34 -8 14 C-8.33 12.02 -8.66 10.04 -9 8 C-4.375 5 -4.375 5 -1 5 C-1.0928125 6.6396875 -1.0928125 6.6396875 -1.1875 8.3125 C-1.42671113 11.92003642 -1.42671113 11.92003642 0.5 13.4375 C2 15 2 15 2.3125 18.75 C2.16766007 22.72585607 1.13693982 26.18790766 0 30 C-0.14656121 31.51890712 -0.27062225 33.0401123 -0.375 34.5625 C-0.80010924 39.07638722 -2.07822103 41.54698849 -5 45 C-5.66 45 -6.32 45 -7 45 C-7 45.99 -7 46.98 -7 48 C-7.99 48.66 -8.98 49.32 -10 50 C-11.92870773 53.09970884 -13.09266863 55.00381227 -12.75 58.6875 C-12.17481217 60.46099582 -11.58958701 62.23123896 -11 64 C-9.68 64 -8.36 64 -7 64 C-6.34 63.01 -5.68 62.02 -5 61 C-4.34 61 -3.68 61 -3 61 C-2.7525 60.4225 -2.505 59.845 -2.25 59.25 C-1 57 -1 57 1.0625 55.3125 C3.9657137 51.84737397 3.73899246 48.39362688 4 44 C4.49900295 38.79885391 5.44391698 33.97946565 7 29 C7.66 29 8.32 29 9 29 C10.93151053 19.06256923 10.93151053 19.06256923 11 9 C9.62493901 7.12109566 9.62493901 7.12109566 8 6 C8 5.34 8 4.68 8 4 C5.36 4 2.72 4 0 4 C0 2.68 0 1.36 0 0 Z " fill="#4B4B4B" transform="translate(107,0)"/>
<path d="M0 0 C15.18 0 30.36 0 46 0 C45.34 1.32 44.68 2.64 44 4 C43.01 4 42.02 4 41 4 C40.67 4.99 40.34 5.98 40 7 C38.34634594 8.02137457 36.67623498 9.01612294 35 10 C33.14208404 11.52229243 31.34369068 13.09719811 29.55078125 14.6953125 C28 16 28 16 26 17 C25.2597175 18.65272372 24.55659731 20.32222201 23.875 22 C22.5546875 24.78515625 22.5546875 24.78515625 21 27 C19.0703125 27.49609375 19.0703125 27.49609375 17 27.4375 C14.91695363 27.36525451 14.91695363 27.36525451 13 28 C10.58014878 31.33565127 9.39051952 35.14627447 8 39 C7.18501795 41.05029148 6.35245769 43.09297317 5.52001953 45.13623047 C4.32439457 48.08216622 3.16214759 51.04071695 2 54 C1.34 54 0.68 54 0 54 C0 36.18 0 18.36 0 0 Z " fill="#F9F9F8" transform="translate(0,0)"/>
<path d="M0 0 C2.2285916 2.0739622 3.93171315 4.45975324 5.6875 6.9375 C6.62499256 8.22031725 7.56626413 9.50038331 8.51171875 10.77734375 C8.91865967 11.34702881 9.32560059 11.91671387 9.74487305 12.50366211 C11.11534798 14.27984479 11.11534798 14.27984479 14 16 C14 16.99 14 17.98 14 19 C11 21 11 21 8.5 21.0625 C6 20 6 20 4.5625 16.875 C4.33691406 16.25109375 4.11132812 15.6271875 3.87890625 14.984375 C2.32734733 11.48129976 -0.1948764 8.58597332 -3 6 C-3.99 5.67 -4.98 5.34 -6 5 C-6.48092039 8.20613591 -6.48973115 10.28423909 -4.62890625 13.00390625 C-4.07074219 13.68324219 -3.51257813 14.36257812 -2.9375 15.0625 C-0.02109488 18.69764003 -0.02109488 18.69764003 0.1875 21.6875 C-1.4773651 24.92960571 -3.14845825 26.68426918 -6 29 C-9.20644845 29.98668265 -12.4228329 30.37588076 -15.75 30.75 C-17.47434776 30.97093999 -19.19833213 31.19474144 -20.921875 31.421875 C-22.06027832 31.55480957 -22.06027832 31.55480957 -23.22167969 31.69042969 C-25.01948122 31.82769431 -25.01948122 31.82769431 -26 33 C-33.9750381 33.66458651 -40.50010043 31.59656492 -48 29 C-47.01 28.67 -46.02 28.34 -45 28 C-44.34 28.33 -43.68 28.66 -43 29 C-45.39322241 23.76482597 -49.16098377 21.70111357 -54 19 C-53.67 18.34 -53.34 17.68 -53 17 C-52.34 17.33 -51.68 17.66 -51 18 C-51.05220703 17.11248047 -51.05220703 17.11248047 -51.10546875 16.20703125 C-51.27443953 11.27469367 -51.27178139 7.9728774 -48 4 C-46.1875 2.125 -46.1875 2.125 -44 1 C-39.92221026 1 -38.35479923 1.69358248 -35.25 4.375 C-31.06920415 9.25259516 -31.06920415 9.25259516 -30.6875 13.375 C-31.01921141 17.2228524 -31.94268796 18.82831061 -34 22 C-34 23.32 -34 24.64 -34 26 C-29.38 25.67 -24.76 25.34 -20 25 C-20 24.34 -20 23.68 -20 23 C-14.555 22.01 -14.555 22.01 -9 21 C-9.495 16.545 -9.495 16.545 -10 12 C-10.66 12 -11.32 12 -12 12 C-13.20224719 5.74831461 -13.20224719 5.74831461 -12.375 2.6875 C-8.98909813 -1.46792503 -4.82922004 -1.48135584 0 0 Z " fill="#565656" transform="translate(83,83)"/>
<path d="M0 0 C3.47691229 0.29802105 5.01512296 1.0117623 7.8125 3.1875 C10 6 10 6 10.5 8.6875 C9.62172856 14.50604826 8.28246176 20.07630736 5 25 C4.57859131 27.00788847 4.23109852 29.0319825 3.9375 31.0625 C3.09433962 36.81132075 3.09433962 36.81132075 2 39 C1.4309036 46.68280142 2.59808939 54.99681566 6.60546875 61.67578125 C8 64 8 64 8 67 C8.56847656 67.25910156 9.13695313 67.51820312 9.72265625 67.78515625 C12.20505818 69.10938781 14.22466743 70.70231088 16.4375 72.4375 C21.52418368 76.09687542 26.2904585 77.33054646 32.41015625 78.39453125 C33.26480469 78.59433594 34.11945312 78.79414062 35 79 C35.33 79.66 35.66 80.32 36 81 C30.41527331 81.34904542 26.06287723 80.98852769 20.90234375 78.78125 C18.76729808 77.8494915 18.76729808 77.8494915 15.4375 77.125 C6.38776146 74.16326739 2.07214768 67.67437997 -3 60 C-3.52722656 59.2265625 -4.05445313 58.453125 -4.59765625 57.65625 C-6.40140485 54.23967883 -7.30249368 50.73286711 -8.1875 47 C-8.45336914 45.95199219 -8.45336914 45.95199219 -8.72460938 44.8828125 C-10.26855946 38.56394341 -10.39225535 34.9508416 -8 29 C-7.36674297 26.12266984 -6.90374722 23.22099456 -6.4375 20.3125 C-5.12360595 12.2472119 -5.12360595 12.2472119 -4 10 C-3.34 10 -2.68 10 -2 10 C-1.7834375 8.081875 -1.7834375 8.081875 -1.5625 6.125 C-1.29357254 3.74307106 -1.07773654 2.15547309 0 0 Z " fill="#FAFAF9" transform="translate(15,38)"/>
<path d="M0 0 C2.375 1.5625 2.375 1.5625 4 3 C3.8796716 6.97083717 2.46191291 8.81161779 -0.25 11.5 C-1.49756183 12.66927353 -2.7474109 13.83611356 -4 15 C-4.78375 15.845625 -5.5675 16.69125 -6.375 17.5625 C-12.10772408 22.88574379 -19.36855722 27.9304562 -27 30 C-30.61628247 29.46425445 -32.22736119 28.72112955 -34.875 26.25 C-36.46399501 23.07200998 -36.60207374 21.54554533 -36 18 C-32.6332802 11.73506834 -28.61421268 5.96499189 -22 3 C-20.57400894 2.62043861 -19.13478124 2.28791385 -17.6875 2 C-14.79262817 1.40678856 -12.14013865 0.7230955 -9.3125 -0.1875 C-5.6863491 -1.07693324 -3.57005685 -1.03134976 0 0 Z " fill="#F8F8F7" transform="translate(68,5)"/>
<path d="M0 0 C3.0625 0.5 3.0625 0.5 5.4375 2 C8.14818443 6.17028374 7.46184398 10.23582957 6.63671875 14.9140625 C5.9385838 18.18623701 5.12109518 21.32421445 4.0625 24.5 C3.4025 24.5 2.7425 24.5 2.0625 24.5 C1.53423579 28.12238312 1.03098292 31.74425736 0.5625 35.375 C0.47484375 36.03886719 0.3871875 36.70273437 0.296875 37.38671875 C0.13305195 38.86385657 0.02275273 40.34746865 -0.046875 41.83203125 C-0.29020441 45.90779892 -0.44506691 47.90908029 -3.125 51.125 C-4.053125 51.90875 -4.98125 52.6925 -5.9375 53.5 C-7.06151956 54.75330819 -8.16543362 56.02489868 -9.25 57.3125 C-10.01763672 58.21935547 -10.01763672 58.21935547 -10.80078125 59.14453125 C-11.17589844 59.59183594 -11.55101563 60.03914063 -11.9375 60.5 C-16.51532516 60.01812367 -16.51532516 60.01812367 -18.3125 57.8125 C-19.55270637 53.22373642 -18.31517115 50.15787877 -16 46.125 C-15.319375 45.25875 -14.63875 44.3925 -13.9375 43.5 C-13.2775 43.5 -12.6175 43.5 -11.9375 43.5 C-11.9375 42.51 -11.9375 41.52 -11.9375 40.5 C-10.64646357 39.1256709 -9.3118291 37.79103643 -7.9375 36.5 C-6.83119909 34.28739818 -6.70691623 32.76593534 -6.5 30.3125 C-6.20183354 27.30198062 -5.74934391 24.86912371 -4.875 21.9375 C-3.46315318 16.76072833 -3.24628479 12.3917469 -5.125 7.25 C-5.9375 4.5 -5.9375 4.5 -4.9375 2.125 C-2.9375 0.5 -2.9375 0.5 0 0 Z " fill="#F6F6F5" transform="translate(111.9375,4.5)"/>
<path d="M0 0 C4.44019139 4.44019139 4.44019139 4.44019139 5.4375 8.3125 C6.64366409 12.370809 8.3622947 15.13343923 10.94921875 18.4453125 C12 20 12 20 12.4375 22.625 C13.55391791 27.3387645 18.31525863 29.57287579 22.1875 31.98828125 C26.08342092 34.18662753 30.08458926 35.42400104 34.375 36.625 C36.95348537 37.35120444 39.46252012 38.13051389 42 39 C42.33 39.66 42.66 40.32 43 41 C28.81 41 14.62 41 0 41 C0 27.47 0 13.94 0 0 Z " fill="#F9F9F8" transform="translate(0,87)"/>
<path d="M0 0 C1.051875 0.70125 2.10375 1.4025 3.1875 2.125 C3.1875 3.115 3.1875 4.105 3.1875 5.125 C2.28 4.91875 1.3725 4.7125 0.4375 4.5 C-3.04366559 4.09832705 -3.98606991 4.22517277 -6.8125 6.125 C-7.83562203 7.946376 -7.83562203 7.946376 -8.375 10.125 C-8.6121875 10.929375 -8.849375 11.73375 -9.09375 12.5625 C-9.3309375 13.408125 -9.568125 14.25375 -9.8125 15.125 C-10.59375 17.625 -10.59375 17.625 -11.375 20.125 C-11.86155352 21.7895252 -12.3409844 23.45615264 -12.8125 25.125 C-13.02132813 25.85460937 -13.23015625 26.58421875 -13.4453125 27.3359375 C-17.12177067 41.67930246 -13.49224255 55.77495092 -7.8125 69.125 C-8.4725 69.125 -9.1325 69.125 -9.8125 69.125 C-13.15844658 63.94417949 -14.38076496 60.27722436 -14.8125 54.125 C-15.4725 54.125 -16.1325 54.125 -16.8125 54.125 C-16.46316406 55.16140625 -16.11382812 56.1978125 -15.75390625 57.265625 C-15.29419068 58.63538977 -14.8345597 60.00518293 -14.375 61.375 C-14.14490234 62.05691406 -13.91480469 62.73882812 -13.67773438 63.44140625 C-12.60446286 66.64566613 -11.55234392 69.82546619 -10.8125 73.125 C-10.1525 73.125 -9.4925 73.125 -8.8125 73.125 C-7.41015625 74.76953125 -7.41015625 74.76953125 -5.875 76.9375 C-4.37497678 79.04367071 -2.98091488 80.96203041 -1.12109375 82.76171875 C0.1875 84.125 0.1875 84.125 0.1875 86.125 C9.18941381 90.74983645 17.80554519 92.72163459 27.78125 93.73046875 C31.1875 94.125 31.1875 94.125 34.1875 95.125 C34.1875 95.785 34.1875 96.445 34.1875 97.125 C26.48175866 97.47703894 20.30877903 97.10105691 13.1875 94.125 C12.19363281 93.73828125 11.19976562 93.3515625 10.17578125 92.953125 C2.97994264 90.08541072 -3.77243669 87.24507688 -8.8125 81.125 C-9.49275637 79.12958132 -10.15740497 77.12882009 -10.8125 75.125 C-11.59694408 73.83665956 -12.41215752 72.56677014 -13.25 71.3125 C-15.62324208 67.68981576 -16.95730894 64.16107158 -18.13671875 60.0078125 C-18.73599881 57.91706033 -18.73599881 57.91706033 -20.8125 56.125 C-20.98745606 53.61579154 -21.04419569 51.21875059 -21.0078125 48.7109375 C-21.0049826 47.98129791 -21.00215271 47.25165833 -20.99923706 46.49990845 C-20.98803002 44.16643972 -20.9629251 41.83335297 -20.9375 39.5 C-20.92747085 37.91927637 -20.91834489 36.33854673 -20.91015625 34.7578125 C-20.88808905 30.88006086 -20.85355615 27.00259522 -20.8125 23.125 C-20.1525 23.125 -19.4925 23.125 -18.8125 23.125 C-18.64234375 22.51914062 -18.4721875 21.91328125 -18.296875 21.2890625 C-12.93789316 2.76066785 -12.93789316 2.76066785 -6.5625 -1.3125 C-3.35778613 -1.96800965 -2.74634724 -1.57013388 0 0 Z " fill="#545454" transform="translate(20.8125,30.875)"/>
<path d="M0 0 C0.66 0.33 1.32 0.66 2 1 C1.30132812 1.74765625 0.60265625 2.4953125 -0.1171875 3.265625 C-1.03669678 4.26019627 -1.95595441 5.25500023 -2.875 6.25 C-3.33519531 6.74113281 -3.79539062 7.23226563 -4.26953125 7.73828125 C-7.75815781 11.48129573 -7.75815781 11.48129573 -10 16 C-9.71024254 22.02918402 -7.18743243 27.00635586 -4 32 C0.78478822 32.09764874 5.27685687 31.77112541 10 31 C7.65873949 33.76148676 6.00755614 34.34525619 2.5 35 C0.05377513 35.60685492 0.05377513 35.60685492 -2 37 C-3.30422169 39.86670509 -3.91625655 42.50509255 -4.46484375 45.6015625 C-4.64144531 46.39304688 -4.81804688 47.18453125 -5 48 C-5.99 48.495 -5.99 48.495 -7 49 C-8.27998696 52.58396348 -9.08895372 56.30709585 -10 60 C-10.21011719 60.75023437 -10.42023437 61.50046875 -10.63671875 62.2734375 C-13.59064214 73.54443597 -12.93863457 84.79621143 -7 95 C-4.70106804 97.05746865 -2.91713937 97.81153581 0 99 C1.9375 100.5625 1.9375 100.5625 3 102 C3 102.99 3 103.98 3 105 C-4.0027013 103.87456586 -8.30210013 101.35972872 -13 96 C-14.4257295 93.65591804 -15.13093578 91.65547401 -16 89 C-16.52207031 87.66582031 -16.52207031 87.66582031 -17.0546875 86.3046875 C-18.17532849 82.38707477 -18.30246565 78.725113 -18.25 74.6875 C-18.23876099 73.55103027 -18.23876099 73.55103027 -18.22729492 72.39160156 C-18.05728913 63.55889846 -16.48006205 49.48006205 -10 43 C-9.55901608 35.92374638 -9.912223 29.78527523 -12 23 C-12.61683946 17.28665087 -12.36570353 12.83819882 -9 8 C-6.44453761 5.52150937 -3.75974646 3.24616136 -1 1 C-0.67 0.67 -0.34 0.34 0 0 Z " fill="#454545" transform="translate(37,7)"/>
<path d="M0 0 C0.66 0 1.32 0 2 0 C1.67 0.639375 1.34 1.27875 1 1.9375 C-0.69397874 7.1253099 -0.6021193 12.04311229 1 17.25 C2.60542683 23.27035063 3.67010094 30.91384164 0.61328125 36.5625 C0.08089844 37.366875 -0.45148437 38.17125 -1 39 C-1.75766529 40.7713692 -2.46617972 42.56454111 -3.125 44.375 C-3.45757813 45.26960938 -3.79015625 46.16421875 -4.1328125 47.0859375 C-5.94817025 53.18619374 -6.18189015 59.25141779 -6.1875 65.5625 C-6.19974609 66.29146484 -6.21199219 67.02042969 -6.22460938 67.77148438 C-6.23671062 72.25297767 -5.68472659 75.78212337 -4 80 C-3.75121094 80.68964844 -3.50242187 81.37929687 -3.24609375 82.08984375 C-0.13369333 89.20175388 5.04712629 93.4053199 12.1953125 96.2890625 C18.08562718 98.18872315 23.8317549 99.51621607 30 100 C30 100.66 30 101.32 30 102 C35.61 102.33 41.22 102.66 47 103 C47 103.33 47 103.66 47 104 C33.51012321 105.74062926 16.03478055 107.5647192 4 100 C7.19000256 98.9343133 8.71984276 99.02885252 11.75 100.4375 C16.02264714 102.20438416 19.40780369 102.24601052 24 102 C23.17757812 101.86464844 22.35515625 101.72929688 21.5078125 101.58984375 C13.16089393 99.98021857 7.57148245 97.32495816 1 92 C0.28199219 91.50371094 -0.43601562 91.00742188 -1.17578125 90.49609375 C-3.95998668 88.21268758 -4.72310648 85.30831503 -6 82 C-6.33515625 81.35417969 -6.6703125 80.70835938 -7.015625 80.04296875 C-13.66607387 66.24064828 -8.17765211 51.44671439 -3.68359375 37.91796875 C-3 36 -3 36 -2 34 C-1.49904977 31.12693772 -1.49904977 31.12693772 -2 28 C-4.93823004 24.32721245 -6.38330197 23.15417451 -11 22 C-11.66 25.3 -12.32 28.6 -13 32 C-13.66 32 -14.32 32 -15 32 C-15.08040527 32.54938232 -15.16081055 33.09876465 -15.24365234 33.66479492 C-15.61444691 36.17334447 -15.99463528 38.68038446 -16.375 41.1875 C-16.50132813 42.05181641 -16.62765625 42.91613281 -16.7578125 43.80664062 C-17.41892785 48.12041829 -18.10515117 52.02081745 -20 56 C-20.33 56 -20.66 56 -21 56 C-21.20851744 50.53540493 -20.49057286 45.79758347 -19.1875 40.5 C-19.02185547 39.77941406 -18.85621094 39.05882812 -18.68554688 38.31640625 C-17.55872867 33.6135348 -15.99175608 29.40484518 -14 25 C-13.690625 24.071875 -13.38125 23.14375 -13.0625 22.1875 C-12 20 -12 20 -10.125 18.625 C-6.9003514 17.67657394 -4.92416938 18.53791531 -2 20 C-2 19.01 -2 18.02 -2 17 C-6.84801908 14.36882134 -6.84801908 14.36882134 -12.1875 14.9375 C-13.115625 15.288125 -14.04375 15.63875 -15 16 C-14.125 12.125 -14.125 12.125 -13 11 C-11.14375 11.0309375 -11.14375 11.0309375 -9.25 11.0625 C-7.04209707 10.95327847 -7.04209707 10.95327847 -5 10 C-2.76726978 6.88480974 -1.34963259 3.57522865 0 0 Z " fill="#B8B7B7" transform="translate(26,16)"/>
<path d="M0 0 C1.67542976 0.28604898 3.34385343 0.61781233 5 1 C4.67 2.32 4.34 3.64 4 5 C1.92446352 5.5534764 0.15634036 6 -2 6 C-1.42655063 8.86724686 -1.1385485 9.8614515 1 12 C2.31747324 12.69748583 3.64914193 13.36959957 5 14 C2.75 14.25 2.75 14.25 0 14 C-2.92362316 11.66110147 -4.41045275 9.33314754 -6 6 C-6.53109375 6.49371094 -7.0621875 6.98742187 -7.609375 7.49609375 C-8.31578125 8.13675781 -9.0221875 8.77742188 -9.75 9.4375 C-10.44609375 10.07558594 -11.1421875 10.71367187 -11.859375 11.37109375 C-14.01915596 13.01457671 -15.41981175 13.39289688 -18 14 C-18.67441131 15.6635479 -19.3400321 17.33066942 -20 19 C-23.69757667 22.69757667 -27.04557334 23.83425255 -32 25 C-32 25.66 -32 26.32 -32 27 C-40 31 -40 31 -42.1640625 31.7890625 C-44.85518615 33.56405895 -44.95044918 35.41169506 -45.625 38.5 C-46.81355932 43.81355932 -46.81355932 43.81355932 -49 46 C-49.58624999 47.79241026 -50.09883419 49.60954004 -50.5625 51.4375 C-51.30662861 54.33304709 -52.05424888 57.16274665 -53 60 C-53.14880933 62.78445155 -53.23107 65.52742385 -53.25 68.3125 C-53.270625 69.05951172 -53.29125 69.80652344 -53.3125 70.57617188 C-53.34695061 75.48107757 -52.60102928 78.69461205 -50 83 C-49.96261719 82.39671875 -49.92523438 81.7934375 -49.88671875 81.171875 C-49.59332813 77.60516547 -49.33054396 74.67761513 -47.75 71.4375 C-46 70 -46 70 -43.3125 69.75 C-42.549375 69.8325 -41.78625 69.915 -41 70 C-41.804375 70.680625 -42.60875 71.36125 -43.4375 72.0625 C-47.37047874 76.5710366 -47.17509621 81.22182491 -47 87 C-47.99 87 -48.98 87 -50 87 C-51.3515625 85.390625 -51.3515625 85.390625 -52.625 83.25 C-53.26308594 82.20585937 -53.26308594 82.20585937 -53.9140625 81.140625 C-58.19253632 72.70679892 -56.44410161 61.78066135 -54 53 C-53.65582031 51.53433594 -53.65582031 51.53433594 -53.3046875 50.0390625 C-53.05976562 49.03617188 -52.81484375 48.03328125 -52.5625 47 C-52.33691406 46.071875 -52.11132812 45.14375 -51.87890625 44.1875 C-51.58886719 43.465625 -51.29882812 42.74375 -51 42 C-49.515 41.505 -49.515 41.505 -48 41 C-47.95101562 40.38511719 -47.90203125 39.77023438 -47.8515625 39.13671875 C-47.77679688 38.32847656 -47.70203125 37.52023438 -47.625 36.6875 C-47.55539063 35.88699219 -47.48578125 35.08648437 -47.4140625 34.26171875 C-47 32 -47 32 -45 29 C-42.43359375 27.90234375 -42.43359375 27.90234375 -39.4375 26.9375 C-37.60694542 26.34477166 -35.78867495 25.70915363 -34 25 C-33.67 24.34 -33.34 23.68 -33 23 C-31.60525966 22.36602712 -30.18334319 21.79106332 -28.75 21.25 C-24.01426958 19.24930376 -22.08951127 17.0335286 -19 13 C-17.33720673 11.9935725 -15.67016516 10.99414593 -14 10 C-12.8345193 8.83177699 -11.69030042 7.64213957 -10.5625 6.4375 C-7.60343703 3.3618875 -5.21997262 2.00475539 -1 1 C-0.67 0.67 -0.34 0.34 0 0 Z " fill="#B8B7B7" transform="translate(80,14)"/>
<path d="M0 0 C-0.0928125 1.6396875 -0.0928125 1.6396875 -0.1875 3.3125 C-0.42671113 6.92003642 -0.42671113 6.92003642 1.5 8.4375 C3 10 3 10 3.3125 13.75 C3.16766007 17.72585607 2.13693982 21.18790766 1 25 C0.68083637 27.35869705 0.44610474 29.71047235 0.24609375 32.08203125 C0 34 0 34 -1 36 C-3.5625 36.625 -3.5625 36.625 -6 37 C-5.896875 36.113125 -5.79375 35.22625 -5.6875 34.3125 C-5.70968952 30.86649023 -5.70968952 30.86649023 -8.125 28.3125 C-10.96890961 26.02500749 -13.6699847 24.47140211 -17 23 C-17 22.34 -17 21.68 -17 21 C-17.66 21 -18.32 21 -19 21 C-18.67 20.01 -18.34 19.02 -18 18 C-13.55790643 17.89165625 -9.38585329 18.29826347 -5 19 C-3.38050989 16.42786866 -2.95591249 15.32330841 -3.375 12.25 C-3.58125 11.5075 -3.7875 10.765 -4 10 C-4.99 9.67 -5.98 9.34 -7 9 C-7.33 7.02 -7.66 5.04 -8 3 C-3.375 0 -3.375 0 0 0 Z " fill="#565656" transform="translate(106,5)"/>
<path d="M0 0 C3.42540866 0.28545072 4.8084997 0.82361814 7.375 3.1875 C9 6 9 6 8.75 9.3125 C8.5025 10.199375 8.255 11.08625 8 12 C9.32 11.67 10.64 11.34 12 11 C11.34 12.32 10.68 13.64 10 15 C9.34 15 8.68 15 8 15 C8 15.99 8 16.98 8 18 C6.50390625 19.39453125 6.50390625 19.39453125 4.5625 20.8125 C1.99092483 22.92934541 1.07122754 23.82005675 -0.1875 27 C0.0611708 30.97873278 1.51276096 32.94424918 4 36 C4.66 36.33 5.32 36.66 6 37 C6.63808594 36.4946875 7.27617188 35.989375 7.93359375 35.46875 C9.17302734 34.49421875 9.17302734 34.49421875 10.4375 33.5 C11.67306641 32.52546875 11.67306641 32.52546875 12.93359375 31.53125 C15 30 15 30 16 30 C16 33.1875 16 33.1875 15 37 C11.89672707 39.99451336 8.65095893 41.92321121 4.3125 42.125 C-0.45428393 39.80602403 -3.95228265 35.60904341 -6.375 30.9453125 C-7.37960535 27.81847835 -7.16949356 25.48147938 -6.31640625 22.33203125 C-3.99785996 18.22469555 -0.17339925 15.85742288 3.6640625 13.23828125 C6.29222561 11.16643127 6.29222561 11.16643127 6.5234375 7.875 C6.27266368 4.67624895 6.27266368 4.67624895 3 2.6875 C2.01 2.130625 1.02 1.57375 0 1 C0 0.67 0 0.34 0 0 Z " fill="#323232" transform="translate(92,30)"/>
<path d="M0 0 C1.051875 0.70125 2.10375 1.4025 3.1875 2.125 C3.1875 3.115 3.1875 4.105 3.1875 5.125 C2.28 4.91875 1.3725 4.7125 0.4375 4.5 C-3.04366559 4.09832705 -3.98606991 4.22517277 -6.8125 6.125 C-7.83562203 7.946376 -7.83562203 7.946376 -8.375 10.125 C-8.61347656 10.9190625 -8.85195312 11.713125 -9.09765625 12.53125 C-9.59096634 14.32118388 -10.07753519 16.11298459 -10.55859375 17.90625 C-10.80738281 18.8034375 -11.05617188 19.700625 -11.3125 20.625 C-11.5290625 21.4603125 -11.745625 22.295625 -11.96875 23.15625 C-12.2471875 23.8059375 -12.525625 24.455625 -12.8125 25.125 C-13.8025 25.455 -14.7925 25.785 -15.8125 26.125 C-16.75538183 31.0850338 -17.11498211 35.97014574 -17.375 41 C-17.41818359 41.78375 -17.46136719 42.5675 -17.50585938 43.375 C-17.61103351 45.29150649 -17.71217925 47.20823333 -17.8125 49.125 C-19.2975 49.62 -19.2975 49.62 -20.8125 50.125 C-20.8125 41.215 -20.8125 32.305 -20.8125 23.125 C-20.1525 23.125 -19.4925 23.125 -18.8125 23.125 C-18.64234375 22.51914062 -18.4721875 21.91328125 -18.296875 21.2890625 C-12.93789316 2.76066785 -12.93789316 2.76066785 -6.5625 -1.3125 C-3.35778613 -1.96800965 -2.74634724 -1.57013388 0 0 Z " fill="#424242" transform="translate(20.8125,30.875)"/>
<path d="M0 0 C4.95 0 9.9 0 15 0 C16.68939462 5.91288116 17.38500252 9.9497576 17.375 15.875 C17.37628906 16.66567871 17.37757812 17.45635742 17.37890625 18.27099609 C17.26845969 24.36187312 16.14052366 28.70036632 13 34 C11.68 34 10.36 34 9 34 C8.83998198 29.59950444 8.94261848 25.78165052 10 21.5 C11.04346727 17.16097781 11.38469424 13.46245323 11 9 C9.62493901 7.12109566 9.62493901 7.12109566 8 6 C8 5.34 8 4.68 8 4 C5.36 4 2.72 4 0 4 C0 2.68 0 1.36 0 0 Z " fill="#4B4B4B" transform="translate(107,0)"/>
<path d="M0 0 C1.03421301 3.10263903 0.99497523 5.51622091 0.88427734 8.75097656 C0.62063953 17.01162818 1.46369926 23.41115024 5 31 C5.30292969 31.87914063 5.60585938 32.75828125 5.91796875 33.6640625 C7.13558399 36.29270479 7.87437122 36.90131271 10.4375 38.125 C15.23697113 40.61472565 15.23697113 40.61472565 17 43 C17 43.99 17 44.98 17 46 C9.9972987 44.87456586 5.69789987 42.35972872 1 37 C-0.4257295 34.65591804 -1.13093578 32.65547401 -2 30 C-2.34546875 29.113125 -2.6909375 28.22625 -3.046875 27.3125 C-4.20066169 23.30261837 -4.36766361 19.71123086 -4.375 15.5625 C-4.39949219 14.83740234 -4.42398437 14.11230469 -4.44921875 13.36523438 C-4.47918342 7.80678814 -3.07790402 4.61685602 0 0 Z " fill="#3B3B3B" transform="translate(23,66)"/>
<path d="M0 0 C3.83690637 1.56318408 6.39154889 3.7953315 9 7 C9.17464681 10.4929362 8.15534719 11.8013143 6.01171875 14.54296875 C2.01829359 17.80089926 -1.29922676 18.19998335 -6.3125 18.8125 C-7.12912109 18.93302734 -7.94574219 19.05355469 -8.78710938 19.17773438 C-23.38269877 21.21297592 -23.38269877 21.21297592 -29 17 C-28.67 16.01 -28.34 15.02 -28 14 C-27.01 14.33 -26.02 14.66 -25 15 C-23.52313889 15.09247381 -22.04224499 15.12999071 -20.5625 15.125 C-19.80066406 15.12757812 -19.03882813 15.13015625 -18.25390625 15.1328125 C-16.03799325 15.00223877 -14.14603976 14.53756814 -12 14 C-10.58465222 13.93543121 -9.16662311 13.91388961 -7.75 13.9375 C-5.89375 13.9684375 -5.89375 13.9684375 -4 14 C-4 13.34 -4 12.68 -4 12 C-2.35 12 -0.7 12 1 12 C1.04254356 10.00045254 1.04080783 7.99958364 1 6 C0.67 5.67 0.34 5.34 0 5 C-0.04063832 3.33382885 -0.042721 1.66611905 0 0 Z " fill="#4E4E4E" transform="translate(74,95)"/>
<path d="M0 0 C4.73909942 1.81497425 7.17634015 4.98326023 9.9375 9.125 C10.3891129 15.44758065 10.3891129 15.44758065 7.9375 19.125 C5.3125 19.8125 5.3125 19.8125 2.9375 20.125 C2.894779 18.45888095 2.89686168 16.79117115 2.9375 15.125 C3.2675 14.795 3.5975 14.465 3.9375 14.125 C3.97813832 12.45882885 3.980221 10.79111905 3.9375 9.125 C0.9675 8.63 0.9675 8.63 -2.0625 8.125 C-3.43682457 11.94256824 -2.74225039 15.19755329 -2.0625 19.125 C-3.3825 19.455 -4.7025 19.785 -6.0625 20.125 C-8.45778102 16.16713222 -10.02849284 13.12821117 -10.1875 8.4375 C-8.45401805 3.33335872 -5.73768908 0.23419139 0 0 Z " fill="#545454" transform="translate(42.0625,83.875)"/>
<path d="M0 0 C0.66 0 1.32 0 2 0 C1.67 0.639375 1.34 1.27875 1 1.9375 C-0.69397874 7.1253099 -0.6021193 12.04311229 1 17.25 C2.4817377 22.80651637 2.15476768 28.28219404 2 34 C1.67 34 1.34 34 1 34 C1 31.69 1 29.38 1 27 C0.34 27 -0.32 27 -1 27 C-1.78375 26.175 -2.5675 25.35 -3.375 24.5 C-5.87859195 21.54022989 -5.87859195 21.54022989 -10 22 C-10.99 25.3 -11.98 28.6 -13 32 C-13.66 32 -14.32 32 -15 32 C-15.08040527 32.54938232 -15.16081055 33.09876465 -15.24365234 33.66479492 C-15.61444691 36.17334447 -15.99463528 38.68038446 -16.375 41.1875 C-16.50132813 42.05181641 -16.62765625 42.91613281 -16.7578125 43.80664062 C-17.41892785 48.12041829 -18.10515117 52.02081745 -20 56 C-20.33 56 -20.66 56 -21 56 C-21.20851744 50.53540493 -20.49057286 45.79758347 -19.1875 40.5 C-19.02185547 39.77941406 -18.85621094 39.05882812 -18.68554688 38.31640625 C-17.55872867 33.6135348 -15.99175608 29.40484518 -14 25 C-13.690625 24.071875 -13.38125 23.14375 -13.0625 22.1875 C-12 20 -12 20 -10.125 18.625 C-6.9003514 17.67657394 -4.92416938 18.53791531 -2 20 C-2 19.01 -2 18.02 -2 17 C-6.84801908 14.36882134 -6.84801908 14.36882134 -12.1875 14.9375 C-13.115625 15.288125 -14.04375 15.63875 -15 16 C-14.125 12.125 -14.125 12.125 -13 11 C-11.14375 11.0309375 -11.14375 11.0309375 -9.25 11.0625 C-7.04209707 10.95327847 -7.04209707 10.95327847 -5 10 C-2.76726978 6.88480974 -1.34963259 3.57522865 0 0 Z " fill="#767676" transform="translate(26,16)"/>
<path d="M0 0 C0.66 0 1.32 0 2 0 C2.19335938 0.74765625 2.38671875 1.4953125 2.5859375 2.265625 C2.84632812 3.25046875 3.10671875 4.2353125 3.375 5.25 C3.63023438 6.22453125 3.88546875 7.1990625 4.1484375 8.203125 C5.22275709 11.76998819 5.22275709 11.76998819 7 15 C7.62648438 15.1546875 8.25296875 15.309375 8.8984375 15.46875 C11.94725332 16.23945437 12.82080218 17.98842947 14.625 20.5 C16.85451773 23.7840711 16.85451773 23.7840711 20 26 C20 26.99 20 27.98 20 29 C20.721875 29.268125 21.44375 29.53625 22.1875 29.8125 C25 31 25 31 27.1875 32.46875 C30.61876912 34.33688541 34.0092979 35.0214847 37.8125 35.6875 C38.50537109 35.81705078 39.19824219 35.94660156 39.91210938 36.08007812 C41.60644764 36.39557559 43.30302158 36.69902647 45 37 C40.66335472 39.89109685 37.09099154 39.67239511 32 39 C25.25363458 36.97441634 19.52047257 34.55372344 15 29 C14.3915625 28.33226563 13.783125 27.66453125 13.15625 26.9765625 C8 21.30877976 8 21.30877976 8 19 C7.34 19 6.68 19 6 19 C0.44419134 6.51480638 0.44419134 6.51480638 0 0 Z " fill="#282828" transform="translate(4,85)"/>
<path d="M0 0 C-1.63727363 1.80100099 -2.9043936 2.95500875 -5.125 4 C-7.3530435 4.91202978 -7.3530435 4.91202978 -8 8 C-14.8912128 11.5532816 -21.37592053 11.35779731 -29 11.1875 C-30.15628906 11.17396484 -31.31257813 11.16042969 -32.50390625 11.14648438 C-35.33643004 11.11137044 -38.16796307 11.06219 -41 11 C-40.67 10.01 -40.34 9.02 -40 8 C-39.29915283 7.89977539 -38.59830566 7.79955078 -37.8762207 7.69628906 C-34.68567324 7.23057738 -31.49931726 6.74056119 -28.3125 6.25 C-26.65831055 6.01410156 -26.65831055 6.01410156 -24.97070312 5.7734375 C-19.19795615 4.86654069 -15.30939678 4.21459005 -11 0 C-7.05516225 -0.89969984 -3.85475203 -1.38771073 0 0 Z " fill="#F6F6F5" transform="translate(96,108)"/>
<path d="M0 0 C4.60424804 0.73180101 6.5958335 3.21239335 9.515625 6.65625 C11.81735778 10.29056492 12.06853705 13.77028479 12 18 C13.65 18 15.3 18 17 18 C15 20 15 20 11.6875 20.375 C7.98206642 20.68369744 7.98206642 20.68369744 5.6875 22.9375 C-1.15805533 28.19106572 -11.71894358 27.50677093 -20 28 C-19.67 27.34 -19.34 26.68 -19 26 C-17.22167969 25.5769043 -17.22167969 25.5769043 -14.921875 25.32421875 C-14.09042969 25.21787109 -13.25898437 25.11152344 -12.40234375 25.00195312 C-10.65086606 24.79430371 -8.89822796 24.5961931 -7.14453125 24.40820312 C-2.75559603 23.82999979 -0.46876774 23.3660403 3.1015625 20.578125 C5.26787435 18.13854311 5.26787435 18.13854311 5.125 15.0625 C4.12898115 11.78558832 4.12898115 11.78558832 1.375 9 C-1 6 -1 6 -0.8125 2.625 C-0.544375 1.75875 -0.27625 0.8925 0 0 Z " fill="#CCCBCB" transform="translate(77,88)"/>
<path d="M0 0 C2.22756848 2.07518322 3.93163762 4.45964665 5.6875 6.9375 C6.62499256 8.22031725 7.56626413 9.50038331 8.51171875 10.77734375 C8.91865967 11.34702881 9.32560059 11.91671387 9.74487305 12.50366211 C11.11534798 14.27984479 11.11534798 14.27984479 14 16 C14 16.99 14 17.98 14 19 C11 21 11 21 8.5 21.0625 C6 20 6 20 4.5625 16.875 C4.33691406 16.25109375 4.11132812 15.6271875 3.87890625 14.984375 C2.32734733 11.48129976 -0.1948764 8.58597332 -3 6 C-3.99 5.67 -4.98 5.34 -6 5 C-6 5.66 -6 6.32 -6 7 C-6.66 7 -7.32 7 -8 7 C-8 7.99 -8 8.98 -8 10 C-8.99 9.67 -9.98 9.34 -11 9 C-11 6.36 -11 3.72 -11 1 C-6.89415182 -1.05292409 -4.40172159 -1.37519961 0 0 Z " fill="#313131" transform="translate(83,83)"/>
<path d="M0 0 C10.23 0 20.46 0 31 0 C28.65576898 4.68846204 27.84614153 5.29959946 23 7 C16.42110304 7.66196332 9.22605781 7.42556836 3 5 C1.25 3.55078125 1.25 3.55078125 0 2 C0 1.34 0 0.68 0 0 Z " fill="#BBBBBA" transform="translate(74,0)"/>
<path d="M0 0 C0 0.66 0 1.32 0 2 C1.32 2.33 2.64 2.66 4 3 C5.06351675 6.38391693 5.21442982 7.5804634 3.5625 10.8125 C3.046875 11.534375 2.53125 12.25625 2 13 C-4.13518234 12.63188906 -6.85952718 11.3376382 -11 7 C-11.875 4.1875 -11.875 4.1875 -12 2 C-8.15820154 -2.0018734 -5.05897886 -0.92747946 0 0 Z " fill="#F9F9F8" transform="translate(99,12)"/>
<path d="M0 0 C3.0625 0.5 3.0625 0.5 5.4375 2 C8.53611368 6.76709797 7.25641954 12.01962419 6.1875 17.3125 C5.50375665 20.37849201 4.87009052 21.78861421 3.0625 24.5 C2.95607879 18.85967592 3.35609853 13.50847115 4.13671875 7.91796875 C4.28421207 5.45645376 4.28421207 5.45645376 2.76953125 3.67578125 C0.99618998 2.21637578 0.99618998 2.21637578 -1.9375 2.5 C-1.83050781 3.42039062 -1.72351563 4.34078125 -1.61328125 5.2890625 C-0.72994629 14.6163198 -1.40838175 22.38393377 -3.9375 31.5 C-4.15535156 32.39074219 -4.37320313 33.28148437 -4.59765625 34.19921875 C-6.12440398 39.73025095 -8.27738044 41.98113421 -12.9375 45.5 C-14.44720649 47.42983887 -15.66637544 49.39775553 -16.9375 51.5 C-16.9375 47.90142046 -15.97919485 46.40548882 -13.9375 43.5 C-13.2775 43.5 -12.6175 43.5 -11.9375 43.5 C-11.9375 42.51 -11.9375 41.52 -11.9375 40.5 C-10.64646357 39.1256709 -9.3118291 37.79103643 -7.9375 36.5 C-6.83119909 34.28739818 -6.70691623 32.76593534 -6.5 30.3125 C-6.20183354 27.30198062 -5.74934391 24.86912371 -4.875 21.9375 C-3.46315318 16.76072833 -3.24628479 12.3917469 -5.125 7.25 C-5.9375 4.5 -5.9375 4.5 -4.9375 2.125 C-2.9375 0.5 -2.9375 0.5 0 0 Z " fill="#BABAB9" transform="translate(111.9375,4.5)"/>
<path d="M0 0 C0.66 0 1.32 0 2 0 C4.641513 8.91510638 4.17875809 17.79395814 4 27 C3.35417969 27.2475 2.70835938 27.495 2.04296875 27.75 C-0.16189426 28.78889836 -0.16189426 28.78889836 -0.57421875 30.875 C-0.61160156 31.57625 -0.64898437 32.2775 -0.6875 33 C-0.93670886 36.87341772 -0.93670886 36.87341772 -2 39 C-1.96099417 40.79426829 -1.8414858 42.58692603 -1.6875 44.375 C-1.54441406 46.11910156 -1.54441406 46.11910156 -1.3984375 47.8984375 C-1.12374211 50.89038996 -0.77995796 53.86945609 -0.4140625 56.8515625 C0.7567876 66.69798865 1.31365424 75.24705751 -1 85 C-1.33 85 -1.66 85 -2 85 C-1.96519531 83.8140625 -1.93039063 82.628125 -1.89453125 81.40625 C-1.73231685 73.27609822 -1.79421669 65.5378453 -3.5 57.5625 C-6.00969966 45.57613899 -5.71888673 37.04401405 0 26 C0.33 25.67 0.66 25.34 1 25 C1.10111378 22.11528347 1.13862788 19.25956869 1.125 16.375 C1.12886719 15.57964844 1.13273437 14.78429687 1.13671875 13.96484375 C1.1289035 9.20535565 0.79273149 4.69347376 0 0 Z " fill="#BABAB9" transform="translate(122,0)"/>
<path d="M0 0 C2.71609613 0.20893047 4.45090801 0.57762154 6.625 2.25 C8.82607331 5.05136603 10.55385363 7.99617066 12 11.25 C12.94279946 13.35137474 12.94279946 13.35137474 16 14 C17.1875 16.0625 17.1875 16.0625 18 18 C21.82246363 17.45393377 23.58848176 15.97420582 26 13 C27.26784124 9.86649283 27.26784124 9.86649283 28 7 C28.66 7 29.32 7 30 7 C30.6875 8.6875 30.6875 8.6875 31 11 C29.6875 13.4375 29.6875 13.4375 28 16 C27.72414063 16.79921875 27.44828125 17.5984375 27.1640625 18.421875 C25.78903667 21.46723422 24.31935276 22.78221358 21.6875 24.8125 C20.92824219 25.41707031 20.16898438 26.02164063 19.38671875 26.64453125 C16.67625826 28.18385987 15.06621309 28.27677322 12 28 C11.67 26.02 11.34 24.04 11 22 C11.66 22.99 12.32 23.98 13 25 C16.465 24.505 16.465 24.505 20 24 C18.97112621 20.91337862 17.89188943 19.83396406 15.5859375 17.66796875 C12.80140007 14.73940352 10.51961697 11.38451966 8.16015625 8.109375 C5.46449516 5.47708388 3.70810881 5.22518879 0 5 C-2.27650745 5.3577614 -2.27650745 5.3577614 -4 6 C-2.84826645 3.53199953 -1.95216435 1.95216435 0 0 Z " fill="#A1A0A0" transform="translate(77,78)"/>
<path d="M0 0 C0.66 0 1.32 0 2 0 C1.75 2.875 1.75 2.875 1 6 C-1 7.125 -1 7.125 -3 8 C-3.13664062 8.61488281 -3.27328125 9.22976562 -3.4140625 9.86328125 C-4.15167279 12.5531001 -5.21001296 13.3496938 -7.375 15.0625 C-9.72151725 16.94470639 -11.87951359 18.86783047 -14 21 C-17.12398214 23.36409459 -18.34698269 24.06160541 -22.3125 23.6875 C-23.199375 23.460625 -24.08625 23.23375 -25 23 C-24 21 -24 21 -21.75 20.1875 C-18.33709527 18.71374568 -16.51804329 16.71173893 -14 14 C-12.70420353 12.63015802 -11.38007251 11.2848951 -10 10 C-9.34 10 -8.68 10 -8 10 C-7.773125 9.443125 -7.54625 8.88625 -7.3125 8.3125 C-5.63848923 5.36305245 -3.45043651 3.3247731 -1 1 C-0.67 0.67 -0.34 0.34 0 0 Z " fill="#303030" transform="translate(110,96)"/>
<path d="M0 0 C3.78786597 0.5260925 6.17152224 1.38103911 9 4 C9 4.66 9 5.32 9 6 C9.66 6 10.32 6 11 6 C11.31420066 12.03666373 10.55724692 16.09917552 8.0625 21.5625 C4.62933195 29.2333604 3.81987712 36.26324102 3.8125 44.5625 C3.80025391 45.29146484 3.78800781 46.02042969 3.77539062 46.77148438 C3.76334582 51.23207646 4.26513507 54.81439652 6 59 C6.33 59.33 6.66 59.66 7 60 C7.04063832 61.66617115 7.042721 63.33388095 7 65 C1.46407611 59.65497003 -0.08685216 51.30400825 -0.3125 43.8125 C0.5254301 33.58975282 3.40184997 22.19630006 8 13 C8.50095023 10.12693772 8.50095023 10.12693772 8 7 C5.53856432 4.0728873 3.17875822 2.11917214 0 0 Z " fill="#BEBEBD" transform="translate(16,37)"/>
<path d="M0 0 C-0.33 0.99 -0.66 1.98 -1 3 C-2.32796291 3.35412344 -3.66216607 3.68521554 -5 4 C-5.474375 4.474375 -5.94875 4.94875 -6.4375 5.4375 C-8 7 -8 7 -10.5 7.875 C-13.70579495 9.31760773 -14.42247798 10.92007605 -16 14 C-16.99 15.485 -16.99 15.485 -18 17 C-18.66 17 -19.32 17 -20 17 C-20.19392201 22.52677733 -19.7479503 26.75614911 -18 32 C-21.90469817 29.00639807 -23.09310437 25.92078729 -23.92578125 21.22265625 C-24.0489287 17.53471409 -22.37475477 15.56617077 -20 13 C-18.90751953 11.75283203 -18.90751953 11.75283203 -17.79296875 10.48046875 C-8.30762518 -0.23076737 -8.30762518 -0.23076737 0 0 Z " fill="#1F1F1F" transform="translate(50,4)"/>
<path d="M0 0 C0.33 0 0.66 0 1 0 C0.88648483 1.81325551 0.75887039 3.62563357 0.625 5.4375 C0.55539063 6.44683594 0.48578125 7.45617188 0.4140625 8.49609375 C0.27742187 9.32238281 0.14078125 10.14867187 0 11 C-0.99 11.495 -0.99 11.495 -2 12 C-3.14828152 16.8820976 -3.30438237 21.88190487 -3.5625 26.875 C-3.60568359 27.65875 -3.64886719 28.4425 -3.69335938 29.25 C-3.79853351 31.16650649 -3.89967925 33.08323333 -4 35 C-5.485 35.495 -5.485 35.495 -7 36 C-7 27.75 -7 19.5 -7 11 C-6.01 10.67 -5.02 10.34 -4 10 C-3.01296048 7.93502613 -3.01296048 7.93502613 -2.375 5.5 C-1.07174888 1.07174888 -1.07174888 1.07174888 0 0 Z " fill="#1D1D1D" transform="translate(7,45)"/>
<path d="M0 0 C0.66 0 1.32 0 2 0 C1.51421457 3.12290635 1.0013988 5.99580359 0 9 C-0.14880933 11.78445155 -0.23107 14.52742385 -0.25 17.3125 C-0.270625 18.05951172 -0.29125 18.80652344 -0.3125 19.57617188 C-0.34695061 24.48107757 0.39897072 27.69461205 3 32 C3.03738281 31.39671875 3.07476563 30.7934375 3.11328125 30.171875 C3.40667187 26.60516547 3.66945604 23.67761513 5.25 20.4375 C7 19 7 19 9.6875 18.75 C10.450625 18.8325 11.21375 18.915 12 19 C10.7934375 20.0209375 10.7934375 20.0209375 9.5625 21.0625 C5.62952126 25.5710366 5.82490379 30.22182491 6 36 C5.01 36 4.02 36 3 36 C1.6484375 34.390625 1.6484375 34.390625 0.375 32.25 C-0.05039062 31.55390625 -0.47578125 30.8578125 -0.9140625 30.140625 C-5.18426895 21.72309575 -3.43724443 10.74540647 -1 2 C-0.67 1.34 -0.34 0.68 0 0 Z " fill="#B8B8B7" transform="translate(27,65)"/>
<path d="M0 0 C1.32 0 2.64 0 4 0 C4 0.66 4 1.32 4 2 C5.051875 2.1546875 5.051875 2.1546875 6.125 2.3125 C9.46781148 3.11186796 12.06885575 4.2013433 15 6 C16.78465126 9.44182743 16.06318516 14.20889048 16 18 C14.68 18.33 13.36 18.66 12 19 C12.103125 18.113125 12.20625 17.22625 12.3125 16.3125 C12.29031048 12.86649023 12.29031048 12.86649023 9.875 10.3125 C7.03109039 8.02500749 4.3300153 6.47140211 1 5 C1 4.34 1 3.68 1 3 C0.34 3 -0.32 3 -1 3 C-0.67 2.01 -0.34 1.02 0 0 Z " fill="#1C1C1C" transform="translate(88,23)"/>
<path d="M0 0 C4.29 0 8.58 0 13 0 C16.19538929 7.98847322 16.43064996 15.57506136 15 24 C14.34 24 13.68 24 13 24 C12.96132812 22.31970703 12.96132812 22.31970703 12.921875 20.60546875 C12.86559365 19.13277354 12.80824632 17.6601188 12.75 16.1875 C12.73582031 15.44951172 12.72164062 14.71152344 12.70703125 13.95117188 C12.52366389 9.59102083 12.52366389 9.59102083 10.21875 6.03125 C6.77920951 4.43259033 3.76969279 4.31414107 0 4 C0 2.68 0 1.36 0 0 Z " fill="#222222" transform="translate(107,0)"/>
<path d="M0 0 C5.875 0.875 5.875 0.875 7 2 C7.29386153 5.72224599 7.14809171 6.77786243 5 10 C4.34 10 3.68 10 3 10 C3.33 12.31 3.66 14.62 4 17 C2.68 17 1.36 17 0 17 C-0.71944784 13.81387387 -1.24425771 10.60961341 -1.6875 7.375 C-1.79449219 6.61960937 -1.90148438 5.86421875 -2.01171875 5.0859375 C-2 3 -2 3 0 0 Z " fill="#9F9E9E" transform="translate(40,91)"/>
<path d="M0 0 C0.43570312 0.38671875 0.87140625 0.7734375 1.3203125 1.171875 C12.17870079 10.667089 22.4619649 14.17945263 36.59375 15.60546875 C40 16 40 16 43 17 C43 17.66 43 18.32 43 19 C35.29425866 19.35203894 29.12127903 18.97605691 22 16 C21.00613281 15.61328125 20.01226562 15.2265625 18.98828125 14.828125 C11.75154512 11.94411208 5.11949436 9.1040125 0 3 C0 2.01 0 1.02 0 0 Z " fill="#818181" transform="translate(12,109)"/>
<path d="M0 0 C2.97 0 5.94 0 9 0 C9.33 0.99 9.66 1.98 10 3 C11.26457031 2.98259766 11.26457031 2.98259766 12.5546875 2.96484375 C13.65039062 2.95582031 14.74609375 2.94679687 15.875 2.9375 C17.51082031 2.92009766 17.51082031 2.92009766 19.1796875 2.90234375 C22 3 22 3 24 4 C24 4.66 24 5.32 24 6 C22.824375 5.79375 21.64875 5.5875 20.4375 5.375 C16.15261037 4.84313433 13.13332512 5.6689292 9 7 C5.34546444 7.73783984 1.67540808 8.37524709 -2 9 C-1.67 8.34 -1.34 7.68 -1 7 C0.33333333 6.66666667 1.66666667 6.33333333 3 6 C3.33 5.34 3.66 4.68 4 4 C-0.455 4.495 -0.455 4.495 -5 5 C-4.01 4.67 -3.02 4.34 -2 4 C-1.34 2.68 -0.68 1.36 0 0 Z " fill="#505050" transform="translate(46,0)"/>
<path d="M0 0 C3.42540866 0.28545072 4.8084997 0.82361814 7.375 3.1875 C9 6 9 6 9 9 C7.85456694 12.43629919 6.55804304 14.44195696 4 17 C1.75 17.8125 1.75 17.8125 0 18 C-0.12375 18.598125 -0.2475 19.19625 -0.375 19.8125 C-1 22 -1 22 -3 25 C-3.9992512 30.99550723 -1.05160003 35.09564281 2 40 C-2.4108057 38.19213758 -4.00242014 35.65247614 -6.1171875 31.49609375 C-7.33706087 28.04698276 -7.3659276 25.76311154 -6.3515625 22.26171875 C-3.94993453 18.24280952 -0.15150443 15.84247924 3.6640625 13.23828125 C6.29222561 11.16643127 6.29222561 11.16643127 6.5234375 7.875 C6.27266368 4.67624895 6.27266368 4.67624895 3 2.6875 C2.01 2.130625 1.02 1.57375 0 1 C0 0.67 0 0.34 0 0 Z " fill="#585858" transform="translate(92,30)"/>
<path d="M0 0 C-0.33 0.66 -0.66 1.32 -1 2 C-6.19432248 3.58470855 -11.57858775 4.28533749 -17 4 C-17 4.66 -17 5.32 -17 6 C-20.18441952 7.59220976 -23.5337155 7.3976617 -27 7 C-30 5.5 -30 5.5 -32 4 C-31.67 3.01 -31.34 2.02 -31 1 C-30.01 1.33 -29.02 1.66 -28 2 C-21.69987247 2.30000607 -16.0146286 1.57011159 -9.8203125 0.4453125 C-6.46817454 -0.08397244 -3.38234679 -0.15374304 0 0 Z " fill="#1B1B1B" transform="translate(77,108)"/>
<path d="M0 0 C1.01973129 3.05919388 1.11533602 5.12418025 1.09765625 8.32421875 C1.09443359 9.35224609 1.09121094 10.38027344 1.08789062 11.43945312 C1.07951172 12.51130859 1.07113281 13.58316406 1.0625 14.6875 C1.05798828 15.77095703 1.05347656 16.85441406 1.04882812 17.97070312 C1.03703743 20.64719085 1.02058063 23.32356777 1 26 C0.34 26.33 -0.32 26.66 -1 27 C-2.47265625 26.015625 -2.47265625 26.015625 -4 24 C-4.32756019 21.15524301 -4.46421419 18.5914179 -4.4375 15.75 C-4.45748047 15.01136719 -4.47746094 14.27273437 -4.49804688 13.51171875 C-4.49310415 7.90666798 -3.10726663 4.65167044 0 0 Z " fill="#3A3A3A" transform="translate(23,66)"/>
<path d="M0 0 C-0.061875 1.093125 -0.12375 2.18625 -0.1875 3.3125 C-0.42671113 6.92003642 -0.42671113 6.92003642 1.5 8.4375 C3.44497993 10.46352076 3.20195096 11.43218429 3.1875 14.1875 C3.125625 15.445625 3.06375 16.70375 3 18 C2.01 18.33 1.02 18.66 0 19 C0 19.66 0 20.32 0 21 C-0.66 21 -1.32 21 -2 21 C-2 16.71 -2 12.42 -2 8 C-3.65 7.67 -5.3 7.34 -7 7 C-7.33 5.68 -7.66 4.36 -8 3 C-3.375 0 -3.375 0 0 0 Z " fill="#525252" transform="translate(106,5)"/>
<path d="M0 0 C6.625 0.75 6.625 0.75 10 3 C10 3.99 10 4.98 10 6 C10.639375 6.268125 11.27875 6.53625 11.9375 6.8125 C14 8 14 8 15 11 C15.51448832 17.27675752 14.93042664 20.0869667 11 25 C15.29 25 19.58 25 24 25 C24 25.33 24 25.66 24 26 C22.23103898 26.36340286 20.45973374 26.71540883 18.6875 27.0625 C17.20830078 27.35833984 17.20830078 27.35833984 15.69921875 27.66015625 C13 28 13 28 10 27 C9.125 25.25 9.125 25.25 9 23 C9.474375 22.236875 9.94875 21.47375 10.4375 20.6875 C12.46210476 17.20517981 12.43322217 14.97120318 12 11 C10.60042803 8.71515694 10.60042803 8.71515694 9 7 C9 6.34 9 5.68 9 5 C6.03 4.01 3.06 3.02 0 2 C0 1.34 0 0.68 0 0 Z " fill="#B9B8B8" transform="translate(39,82)"/>
<path d="M0 0 C3.35021287 2.62761794 3.82243671 5.43557568 4.6875 9.5 C5.06455078 11.21703125 5.06455078 11.21703125 5.44921875 12.96875 C6 16 6 16 6 19 C6.66 19 7.32 19 8 19 C8.66 21.64 9.32 24.28 10 27 C10.66 27 11.32 27 12 27 C13.3540932 28.98600337 14.68457624 30.98817543 16 33 C17.95599053 35.12857793 19.42111954 36.71055977 22 38 C22 38.66 22 39.32 22 40 C17.05790155 38.62719488 14.7745011 35.68207262 11.875 31.6875 C11.44574219 31.11837891 11.01648437 30.54925781 10.57421875 29.96289062 C6.1420466 24.02377994 3.4960353 19.08433661 1.8125 11.9375 C1.54663086 10.87692383 1.54663086 10.87692383 1.27539062 9.79492188 C0.4503123 6.4022253 0 3.51327928 0 0 Z " fill="#B8B8B7" transform="translate(5,73)"/>
<path d="M0 0 C1.67542976 0.28604898 3.34385343 0.61781233 5 1 C4.67 2.32 4.34 3.64 4 5 C1.92446352 5.5534764 0.15634036 6 -2 6 C-1.42655063 8.86724686 -1.1385485 9.8614515 1 12 C2.31747324 12.69748583 3.64914193 13.36959957 5 14 C2.75 14.25 2.75 14.25 0 14 C-2.92362316 11.66110147 -4.41045275 9.33314754 -6 6 C-6.53109375 6.49371094 -7.0621875 6.98742187 -7.609375 7.49609375 C-8.31578125 8.13675781 -9.0221875 8.77742188 -9.75 9.4375 C-10.44609375 10.07558594 -11.1421875 10.71367187 -11.859375 11.37109375 C-14.01903824 13.01448713 -15.40979723 13.41943731 -18 14 C-19.28436734 15.9837767 -19.28436734 15.9837767 -20 18 C-20.99 17.67 -21.98 17.34 -23 17 C-21.00570833 14.85798303 -19.24345521 13.13817728 -16.6875 11.6875 C-14.15934396 10.10005318 -12.58604803 8.59476266 -10.5625 6.4375 C-7.60343703 3.3618875 -5.21997262 2.00475539 -1 1 C-0.67 0.67 -0.34 0.34 0 0 Z " fill="#989897" transform="translate(80,14)"/>
<path d="M0 0 C0.99 0.33 1.98 0.66 3 1 C2.57847656 1.55429688 2.15695313 2.10859375 1.72265625 2.6796875 C1.17480469 3.40414063 0.62695312 4.12859375 0.0625 4.875 C-0.48277344 5.59429688 -1.02804688 6.31359375 -1.58984375 7.0546875 C-4.09181093 10.50615469 -4.34110951 12.73613118 -4 17 C-2.51635781 19.88919796 -1.6538205 20.78205983 1.4375 21.8125 C3.92881833 21.99479158 5.64622961 21.78459013 8 21 C8 21.66 8 22.32 8 23 C4.31884463 25.45410358 2.34706402 25.23287843 -2 25 C-5 24 -5 24 -6.75 20.9375 C-8.44931968 16.69360318 -7.85352991 13.4228368 -7 9 C-6.34 9 -5.68 9 -5 9 C-4.5978125 8.1646875 -4.5978125 8.1646875 -4.1875 7.3125 C-2.89877353 4.80287477 -1.47073522 2.40665764 0 0 Z " fill="#464646" transform="translate(37,12)"/>
<path d="M0 0 C2.375 1.5625 2.375 1.5625 4 3 C3.84595887 8.08335725 0.97931568 10.35754718 -2.50390625 13.64453125 C-2.99761719 14.09183594 -3.49132812 14.53914063 -4 15 C-4.33 14.01 -4.66 13.02 -5 12 C-3.37660195 10.29115995 -1.70680947 8.62553283 0 7 C0.66 7 1.32 7 2 7 C2 5.68 2 4.36 2 3 C-2.29 2.34 -6.58 1.68 -11 1 C-11.33 1.99 -11.66 2.98 -12 4 C-16.29 4.66 -20.58 5.32 -25 6 C-25.33 6.99 -25.66 7.98 -26 9 C-28.5625 10.6875 -28.5625 10.6875 -31 12 C-28.92503779 7.37123814 -26.60408324 5.07391137 -22 3 C-20.57400894 2.62043861 -19.13478124 2.28791385 -17.6875 2 C-14.79262817 1.40678856 -12.14013865 0.7230955 -9.3125 -0.1875 C-5.6863491 -1.07693324 -3.57005685 -1.03134976 0 0 Z " fill="#B6B6B5" transform="translate(68,5)"/>
<path d="M0 0 C1.13192031 3.39576093 0.89720947 3.86788179 -0.4375 7 C-1.56692836 9.67416223 -2 11.02545489 -2 14 C-1.01 12.02 -0.02 10.04 1 8 C2.24401321 11.73203963 1.19468654 13.23786096 -0.22119141 16.7578125 C-1.49680716 20.43030626 -1.82356987 24.14701496 -2.1875 28 C-2.26935547 28.77472656 -2.35121094 29.54945312 -2.43554688 30.34765625 C-2.63316092 32.23080183 -2.81795374 34.11528577 -3 36 C-3.33 36 -3.66 36 -4 36 C-4 29.73 -4 23.46 -4 17 C-4.66 18.32 -5.32 19.64 -6 21 C-6.33 21 -6.66 21 -7 21 C-6.55307649 14.59409637 -4.6162323 4.6162323 0 0 Z " fill="#575757" transform="translate(27,50)"/>
<path d="M0 0 C0.66 0.33 1.32 0.66 2 1 C-0.52788007 3.79872437 -2.20411134 5.45773019 -6 6 C-5.01 6.66 -4.02 7.32 -3 8 C-8.22771463 11.04157942 -11.92671312 12.50610724 -18 12 C-17.34 11.34 -16.68 10.68 -16 10 C-20.29 9.67 -24.58 9.34 -29 9 C-29 8.67 -29 8.34 -29 8 C-27.33324219 7.85304688 -27.33324219 7.85304688 -25.6328125 7.703125 C-11.72787907 6.71149828 -11.72787907 6.71149828 0 0 Z " fill="#585858" transform="translate(92,112)"/>
<path d="M0 0 C8.91 0 17.82 0 27 0 C25 3 25 3 22 4 C18.64166146 4.1085678 15.29288632 3.90518956 11.9375 3.75 C11.01388672 3.72292969 10.09027344 3.69585937 9.13867188 3.66796875 C8.25630859 3.62800781 7.37394531 3.58804687 6.46484375 3.546875 C5.656521 3.51432617 4.84819824 3.48177734 4.01538086 3.44824219 C2 3 2 3 0 0 Z " fill="#FBFBFA" transform="translate(76,0)"/>
<path d="M0 0 C0.33 0 0.66 0 1 0 C1.6448114 5.15849117 -0.62052945 8.62484448 -3 13 C-3.86625 14.7325 -3.86625 14.7325 -4.75 16.5 C-5.1625 17.325 -5.575 18.15 -6 19 C-6.99 19 -7.98 19 -9 19 C-9 19.99 -9 20.98 -9 22 C-10.93359375 23.71875 -10.93359375 23.71875 -13.4375 25.5 C-17.14968451 28.02553584 -17.14968451 28.02553584 -19 32 C-21.06640625 32.94921875 -21.06640625 32.94921875 -23.5625 33.6875 C-24.38878906 33.93886719 -25.21507813 34.19023438 -26.06640625 34.44921875 C-26.70449219 34.63097656 -27.34257813 34.81273437 -28 35 C-25.2578125 32.0546875 -25.2578125 32.0546875 -22.9375 31.5625 C-22.298125 31.376875 -21.65875 31.19125 -21 31 C-20.566875 30.13375 -20.566875 30.13375 -20.125 29.25 C-18.49690854 25.99381709 -15.77473027 24.30243576 -13 22 C-12.67 21.01 -12.34 20.02 -12 19 C-11.195625 18.731875 -10.39125 18.46375 -9.5625 18.1875 C-6.78025391 17.25086106 -6.78025391 17.25086106 -6 14.5625 C-5.67 13.386875 -5.34 12.21125 -5 11 C-3.40251567 7.30136589 -1.70227579 3.65144653 0 0 Z " fill="#A5A4A4" transform="translate(119,85)"/>
<path d="M0 0 C0.33 0.99 0.66 1.98 1 3 C-0.32 2.67 -1.64 2.34 -3 2 C-3 2.99 -3 3.98 -3 5 C-3.99 5 -4.98 5 -6 5 C-6 5.66 -6 6.32 -6 7 C-6.66 7 -7.32 7 -8 7 C-8 7.99 -8 8.98 -8 10 C-8.99 9.67 -9.98 9.34 -11 9 C-11 6.36 -11 3.72 -11 1 C-6.92630576 -1.03684712 -4.41062136 -1.0257259 0 0 Z " fill="#5D5D5D" transform="translate(83,83)"/>
<path d="M0 0 C0.66 0 1.32 0 2 0 C2.061875 0.825 2.12375 1.65 2.1875 2.5 C3.21627605 6.93165068 5.07799841 10.50304931 8 14 C10.49054049 15.54452123 11.49253471 16.05204772 14.4375 15.75 C17.04149851 14.98785409 19.50696162 14.06844502 22 13 C22 15 22 15 20.5625 16.625 C16.73412475 18.67925013 13.25269584 18.66424513 9 18 C4.22208562 15.39386488 1.31557113 10.8425222 -1 6 C-1.375 3.0625 -1.375 3.0625 -1 1 C-0.67 0.67 -0.34 0.34 0 0 Z " fill="#B9B9B8" transform="translate(84,55)"/>
<path d="M0 0 C0.66 0.33 1.32 0.66 2 1 C1.34 3.64 0.68 6.28 0 9 C-0.66 9 -1.32 9 -2 9 C-2.12060791 9.82407349 -2.12060791 9.82407349 -2.24365234 10.66479492 C-2.61444691 13.17334447 -2.99463528 15.68038446 -3.375 18.1875 C-3.50132813 19.05181641 -3.62765625 19.91613281 -3.7578125 20.80664062 C-4.41892785 25.12041829 -5.10515117 29.02081745 -7 33 C-7.33 33 -7.66 33 -8 33 C-8.19877196 27.59056302 -7.53259806 22.87290469 -6.25 17.625 C-6.07243164 16.8812915 -5.89486328 16.13758301 -5.71191406 15.37133789 C-4.35766691 9.92519368 -2.55264372 5.0141216 0 0 Z " fill="#B6B6B5" transform="translate(13,39)"/>
<path d="M0 0 C0.66 0.33 1.32 0.66 2 1 C1.91266027 3.08410658 1.80447722 5.16734669 1.6875 7.25 C1.62949219 8.41015625 1.57148438 9.5703125 1.51171875 10.765625 C0.97319788 14.16940575 0.21802152 15.45780611 -2 18 C-2.350625 18.886875 -2.70125 19.77375 -3.0625 20.6875 C-4 23 -4 23 -6 24 C-5.47817655 19.09485955 -4.33396874 14.8642609 -2.6953125 10.21875 C-1.73817991 7.16452916 -1.39630023 4.17040184 -1 1 C-0.67 0.67 -0.34 0.34 0 0 Z " fill="#1D1D1D" transform="translate(30,41)"/>
<path d="M0 0 C0.66 0 1.32 0 2 0 C0.25 4.875 0.25 4.875 -2 6 C-2.8082882 7.772965 -2.8082882 7.772965 -3.4375 9.9375 C-3.69015625 10.73929688 -3.9428125 11.54109375 -4.203125 12.3671875 C-4.46609375 13.23601563 -4.7290625 14.10484375 -5 15 C-5.28359375 15.93070313 -5.5671875 16.86140625 -5.859375 17.8203125 C-6.58138941 20.21113382 -7.29476023 22.60418548 -8 25 C-8.33 25 -8.66 25 -9 25 C-9.13399245 9.22717461 -9.13399245 9.22717461 -4.5 4.0625 C-3.36615578 3.00532967 -2.20676555 1.97310262 -1 1 C-0.67 0.67 -0.34 0.34 0 0 Z " fill="#1F1F1F" transform="translate(16,31)"/>
<path d="M0 0 C0.66 0 1.32 0 2 0 C1.67 1.155 1.34 2.31 1 3.5 C0.25158774 6.44687327 -0.09507316 9.02610081 0 12.0625 C0 16.21023856 -0.44804367 19.1570605 -2 23 C-4.5 25.3125 -4.5 25.3125 -7 27 C-7.66 27.66 -8.32 28.32 -9 29 C-9.25 26.6875 -9.25 26.6875 -9 24 C-7.69855198 22.95884159 -6.36161311 21.96113866 -5 21 C-2.93651233 16.91837604 -2.43480987 12.7387621 -1.9375 8.25 C-1.12579702 1.12579702 -1.12579702 1.12579702 0 0 Z " fill="#BCBBBB" transform="translate(112,32)"/>
<path d="M0 0 C1.32 0.66 2.64 1.32 4 2 C4 6 4 6 2.1015625 8.359375 C1.28429687 9.14828125 0.46703125 9.9371875 -0.375 10.75 C-1.18710938 11.54921875 -1.99921875 12.3484375 -2.8359375 13.171875 C-5 15 -5 15 -7 15 C-7 15.66 -7 16.32 -7 17 C-7.66 17 -8.32 17 -9 17 C-9.22945312 17.59167969 -9.45890625 18.18335937 -9.6953125 18.79296875 C-11.34847221 21.58948143 -13.0985628 22.65240476 -15.875 24.3125 C-17.17050781 25.11107422 -17.17050781 25.11107422 -18.4921875 25.92578125 C-21.25237791 27.1081058 -22.26136178 27.08908636 -25 26 C-24.19175781 25.63648437 -23.38351563 25.27296875 -22.55078125 24.8984375 C-16.19068785 21.90635496 -12.13463415 19.62769648 -8 14 C-5.93227829 12.21062544 -3.82390465 10.49542902 -1.671875 8.80859375 C0.40006342 6.56722111 0.74617768 5.01169945 1 2 C0.67 1.34 0.34 0.68 0 0 Z " fill="#5C5C5C" transform="translate(70,6)"/>
<path d="M0 0 C2.71609613 0.20893047 4.45090801 0.57762154 6.625 2.25 C8.82607331 5.05136603 10.55385363 7.99617066 12 11.25 C12.94279946 13.35137474 12.94279946 13.35137474 16 14 C16.33 14.99 16.66 15.98 17 17 C13.33715167 15.53646016 11.82721028 13.6581033 9.625 10.4375 C6.91364527 6.76758909 6.91364527 6.76758909 2.8125 4.875 C0.35951867 4.98402139 -1.68446675 5.19846926 -4 6 C-2.84826645 3.53199953 -1.95216435 1.95216435 0 0 Z " fill="#BCBCBB" transform="translate(77,78)"/>
<path d="M0 0 C0.33 0.99 0.66 1.98 1 3 C3.54499554 4.57965241 6.05324278 5.50165135 9 6 C11.13462019 5.52299713 11.13462019 5.52299713 13.1875 4.625 C13.88230469 4.34914063 14.57710937 4.07328125 15.29296875 3.7890625 C16.99232243 3.12273116 16.99232243 3.12273116 18 2 C19.66617115 1.95936168 21.33388095 1.957279 23 2 C18.86000664 5.73934884 14.3726945 8.46494443 9 10 C5.31558089 9.45416013 3.738682 8.738682 1.125 6.125 C0 4 0 4 0 0 Z " fill="#B6B6B5" transform="translate(32,25)"/>
<path d="M0 0 C3 3.75 3 3.75 3 6 C3.99 5.67 4.98 5.34 6 5 C6.66 6.65 7.32 8.3 8 10 C8.99 10 9.98 10 11 10 C11.33 11.98 11.66 13.96 12 16 C8.7 15.34 5.4 14.68 2 14 C2.99 13.67 3.98 13.34 5 13 C5.66 13.33 6.32 13.66 7 14 C4.60677759 8.76482597 0.83901623 6.70111357 -4 4 C-3.67 3.34 -3.34 2.68 -3 2 C-2.34 2.33 -1.68 2.66 -1 3 C-0.67 2.01 -0.34 1.02 0 0 Z " fill="#6F6F6F" transform="translate(33,98)"/>
<path d="M0 0 C0.33 0 0.66 0 1 0 C1.12375 0.969375 1.2475 1.93875 1.375 2.9375 C1.58125 3.948125 1.7875 4.95875 2 6 C2.66 6.33 3.32 6.66 4 7 C4.33 6.01 4.66 5.02 5 4 C6.25664978 6.90600261 7 8.79604584 7 12 C5.68 11.01 4.36 10.02 3 9 C3.350625 9.886875 3.70125 10.77375 4.0625 11.6875 C5 15 5 15 4 20 C0.04 20.33 -3.92 20.66 -8 21 C-8 20.67 -8 20.34 -8 20 C-2.555 19.01 -2.555 19.01 3 18 C2.67 15.03 2.34 12.06 2 9 C1.34 9 0.68 9 0 9 C-1.125 2.25 -1.125 2.25 0 0 Z " fill="#8A8989" transform="translate(71,86)"/>
<path d="M0 0 C0 3.1875 0 3.1875 -1 7 C-3.38921584 9.30548164 -5.90621101 10.80784447 -9 12 C-12 11.8125 -12 11.8125 -14 11 C-13.071875 10.87625 -13.071875 10.87625 -12.125 10.75 C-9.84309241 10.22272396 -9.84309241 10.22272396 -9.08984375 8.15625 C-7.85644474 5.71597668 -6.53412159 4.4833239 -4.4375 2.75 C-3.81746094 2.22921875 -3.19742188 1.7084375 -2.55859375 1.171875 C-1 0 -1 0 0 0 Z " fill="#252525" transform="translate(108,60)"/>
<path d="M0 0 C2.04119788 1.61594832 4.04072937 3.2856382 6 5 C6 5.66 6 6.32 6 7 C9.3 7.66 12.6 8.32 16 9 C15.01 10.485 15.01 10.485 14 12 C11.67968195 12.41434251 9.34360915 12.74889902 7 13 C6.01 13.495 6.01 13.495 5 14 C4.87625 12.39125 4.87625 12.39125 4.75 10.75 C3.927 6.63499999 3.0058238 5.71493763 0 3 C0 2.01 0 1.02 0 0 Z " fill="#494949" transform="translate(73,0)"/>
<path d="M0 0 C0.33 0 0.66 0 1 0 C1.226875 1.19625 1.45375 2.3925 1.6875 3.625 C2.79405616 8.18045747 4.88989478 10.56251528 8 14 C8 14.66 8 15.32 8 16 C5.8125 16 5.8125 16 3 15 C0.16766159 11.72367341 -1.78375701 8.42102536 -2.4375 4.125 C-2 2 -2 2 0 0 Z " fill="#212121" transform="translate(90,54)"/>
<path d="M0 0 C3.63 0 7.26 0 11 0 C11.33 0.66 11.66 1.32 12 2 C11.01 2.33 10.02 2.66 9 3 C8.67 3.66 8.34 4.32 8 5 C8.66 5 9.32 5 10 5 C10 5.66 10 6.32 10 7 C2.25 6.25 2.25 6.25 0 4 C0 2.68 0 1.36 0 0 Z " fill="#404040" transform="translate(79,21)"/>
<path d="M0 0 C-4.96785934 4.25816515 -9.76086858 4.8223892 -16.171875 5.60546875 C-18.94342921 5.83865373 -18.94342921 5.83865373 -21 7 C-22.99960012 7.039992 -25.00047242 7.04346799 -27 7 C-26.34 6.01 -25.68 5.02 -25 4 C-21.76953125 3.375 -21.76953125 3.375 -17.8125 3 C-11.60822306 2.35819285 -11.60822306 2.35819285 -5.75 0.3125 C-3 -1 -3 -1 0 0 Z " fill="#B4B4B3" transform="translate(91,121)"/>
<path d="M0 0 C0.33 0 0.66 0 1 0 C1.05379226 2.95857409 1.09357093 5.91617721 1.125 8.875 C1.15013672 10.13763672 1.15013672 10.13763672 1.17578125 11.42578125 C1.18222656 12.23144531 1.18867187 13.03710938 1.1953125 13.8671875 C1.20578613 14.61081543 1.21625977 15.35444336 1.22705078 16.12060547 C1 18 1 18 -1 20 C-3.03480984 17.96519016 -2.18507583 13.91279983 -2.1875 11.125 C-2.19974609 10.39152344 -2.21199219 9.65804687 -2.22460938 8.90234375 C-2.23509566 5.06436486 -2.17768617 3.26652926 0 0 Z " fill="#1F1F1F" transform="translate(115,35)"/>
<path d="M0 0 C0.66 0 1.32 0 2 0 C2 1.32 2 2.64 2 4 C4.64 4 7.28 4 10 4 C10 4.33 10 4.66 10 5 C7.69 5.66 5.38 6.32 3 7 C2.67 8.98 2.34 10.96 2 13 C1.34 12.67 0.68 12.34 0 12 C0.33 9.69 0.66 7.38 1 5 C-2.465 6.485 -2.465 6.485 -6 8 C-6 8.99 -6 9.98 -6 11 C-6.99 10.67 -7.98 10.34 -9 10 C-8.875 8.1875 -8.875 8.1875 -8 6 C-6.02583732 4.94991347 -4.02417134 3.95012124 -2 3 C-1.34 2.01 -0.68 1.02 0 0 Z " fill="#535353" transform="translate(105,0)"/>
<path d="M0 0 C1.65 0 3.3 0 5 0 C5.33 0.99 5.66 1.98 6 3 C7.64551962 3.71727778 9.31422289 4.38325228 11 5 C13 7 13 7 13.4375 9.875 C13 13 13 13 10.5 15.375 C9.675 15.91125 8.85 16.4475 8 17 C8.144375 16.443125 8.28875 15.88625 8.4375 15.3125 C9.59483624 10.70663689 9.59483624 10.70663689 10 6 C9.0925 5.71125 8.185 5.4225 7.25 5.125 C4.67797092 4.23468224 2.38653234 3.28505587 0 2 C0 1.34 0 0.68 0 0 Z " fill="#B4B4B3" transform="translate(86,28)"/>
<path d="M0 0 C0 0.66 0 1.32 0 2 C-0.94875 1.95875 -1.8975 1.9175 -2.875 1.875 C-6.10244856 1.65026182 -6.10244856 1.65026182 -8 4 C-7.34 4.66 -6.68 5.32 -6 6 C-5.375 8.625 -5.375 8.625 -5 11 C-5.66 11 -6.32 11 -7 11 C-12 5.88372093 -12 5.88372093 -12 2.75 C-9.03508726 -2.43859729 -4.94095884 -0.80999325 0 0 Z " fill="#B7B6B6" transform="translate(99,12)"/>
<path d="M0 0 C2.86352733 1.43176367 4.60150129 2.83933491 6.625 5.3125 C6.625 6.3025 6.625 7.2925 6.625 8.3125 C1.25194301 7.43167098 1.25194301 7.43167098 -1.375 6.3125 C-3.375 3.1875 -3.375 3.1875 -4.375 0.3125 C-2.375 -0.6875 -2.375 -0.6875 0 0 Z " fill="#404040" transform="translate(33.375,103.6875)"/>
<path d="M0 0 C0.33 0 0.66 0 1 0 C1.38803193 3.29827142 0.95442891 5.10564208 -0.375 8.1875 C-6.40021765 14.64309034 -17.6895751 13.50502171 -26 14 C-25.67 13.34 -25.34 12.68 -25 12 C-23.22167969 11.5769043 -23.22167969 11.5769043 -20.921875 11.32421875 C-19.67470703 11.16469727 -19.67470703 11.16469727 -18.40234375 11.00195312 C-16.65086606 10.79430371 -14.89822796 10.5961931 -13.14453125 10.40820312 C-8.73664249 9.82750283 -6.48953778 9.39388097 -2.94140625 6.5390625 C-1.1658618 4.21692187 -0.31880046 2.86920411 0 0 Z " fill="#ACABAB" transform="translate(83,102)"/>
<path d="M0 0 C1.32 0 2.64 0 4 0 C5.125 2.3125 5.125 2.3125 6 5 C5.01 6.485 5.01 6.485 4 8 C1.375 8.1875 1.375 8.1875 -1 8 C-1.625 5.6875 -1.625 5.6875 -2 3 C-1.34 2.01 -0.68 1.02 0 0 Z " fill="#D7D7D6" transform="translate(40,91)"/>
<path d="M0 0 C0.66 0.33 1.32 0.66 2 1 C1.01 2.485 1.01 2.485 0 4 C0.35515029 6.84120234 1.09349251 9.28047752 2 12 C3.32 12 4.64 12 6 12 C6.66 11.01 7.32 10.02 8 9 C8.66 9 9.32 9 10 9 C10 9.99 10 10.98 10 12 C7.69 13.32 5.38 14.64 3 16 C-0.5907684 12.13301864 -3 9.53062128 -3 4 C-1.5625 1.625 -1.5625 1.625 0 0 Z " fill="#737373" transform="translate(94,52)"/>
<path d="M0 0 C0.66 0.33 1.32 0.66 2 1 C3.26995035 4.80985105 3.18414789 8.40609619 3.1875 12.375 C3.19974609 13.13039063 3.21199219 13.88578125 3.22460938 14.6640625 C3.23572672 18.90347819 2.95051822 22.12980179 1 26 C-0.125 22.25 -0.125 22.25 1 20 C1.0716735 17.44842345 1.09308442 14.92527029 1.0625 12.375 C1.05798828 11.66859375 1.05347656 10.9621875 1.04882812 10.234375 C1.03703875 8.48954725 1.01910324 6.744763 1 5 C0.34 5 -0.32 5 -1 5 C-1.33 5.66 -1.66 6.32 -2 7 C-3.32 6.67 -4.64 6.34 -6 6 C-5.01 5.67 -4.02 5.34 -3 5 C-1.8499169 3.03327085 -1.8499169 3.03327085 -1 1 C-0.67 0.67 -0.34 0.34 0 0 Z " fill="#A1A0A0" transform="translate(112,61)"/>
<path d="M0 0 C0.99 0.33 1.98 0.66 3 1 C2.57847656 1.55429688 2.15695313 2.10859375 1.72265625 2.6796875 C1.17480469 3.40414063 0.62695312 4.12859375 0.0625 4.875 C-0.48277344 5.59429688 -1.02804688 6.31359375 -1.58984375 7.0546875 C-4.09181093 10.50615469 -4.34110951 12.73613118 -4 17 C-2.06837517 20.65992073 0.12812449 21.74425659 4 23 C1 24 1 24 -1.5625 22.75 C-4 21 -4 21 -6 18 C-6.7267596 13.48732991 -6.68644308 10.02966462 -4.125 6.1875 C-3.42375 5.465625 -2.7225 4.74375 -2 4 C-1.29114106 2.68861096 -0.60543548 1.36222983 0 0 Z " fill="#6F6F6F" transform="translate(37,12)"/>
<path d="M0 0 C0.66 0 1.32 0 2 0 C3.9169573 5.62257161 4.24889924 10.52369385 4.125 16.4375 C4.11597656 17.26443359 4.10695313 18.09136719 4.09765625 18.94335938 C4.07431512 20.96236708 4.03845288 22.98122356 4 25 C3.34 25.33 2.68 25.66 2 26 C2.03480469 24.56720703 2.03480469 24.56720703 2.0703125 23.10546875 C2.1814732 15.14159831 1.81734706 7.80485659 0 0 Z " fill="#686868" transform="translate(120,0)"/>
<path d="M0 0 C3.24271506 0.5590888 4.93057424 1.4132178 7 4 C7 4.66 7 5.32 7 6 C5 5 3 4 1 3 C1.61875 4.134375 2.2375 5.26875 2.875 6.4375 C3.22304687 7.07558594 3.57109375 7.71367188 3.9296875 8.37109375 C4.91410024 10.16618315 4.91410024 10.16618315 7 11 C6.67 11.99 6.34 12.98 6 14 C0.50660793 8.69603524 0.50660793 8.69603524 -1 6 C-0.6875 2.75 -0.6875 2.75 0 0 Z " fill="#B7B7B6" transform="translate(77,88)"/>
<path d="M0 0 C0.66 0 1.32 0 2 0 C2.67578125 1.703125 2.67578125 1.703125 3 4 C1.85546875 6.359375 1.85546875 6.359375 0.1875 8.75 C-0.62654297 9.94882813 -0.62654297 9.94882813 -1.45703125 11.171875 C-1.96621094 11.77515625 -2.47539063 12.3784375 -3 13 C-3.66 13 -4.32 13 -5 13 C-5.1875 10.625 -5.1875 10.625 -5 8 C-4.01 7.34 -3.02 6.68 -2 6 C-0.78715124 2.94570927 -0.78715124 2.94570927 0 0 Z " fill="#959494" transform="translate(105,85)"/>
<path d="M0 0 C1 3 1 3 0 6 C0.99 6 1.98 6 3 6 C2.34 10.62 1.68 15.24 1 20 C0.67 20 0.34 20 0 20 C-0.33 16.04 -0.66 12.08 -1 8 C-1.99 8.99 -2.98 9.98 -4 11 C-3.71890887 9.35232753 -3.42481474 7.70686855 -3.125 6.0625 C-2.96257812 5.14597656 -2.80015625 4.22945312 -2.6328125 3.28515625 C-2.42398438 2.53105469 -2.21515625 1.77695312 -2 1 C-1.34 0.67 -0.68 0.34 0 0 Z " fill="#5F5F5F" transform="translate(116,28)"/>
<path d="M0 0 C0.928125 0.0825 1.85625 0.165 2.8125 0.25 C2.8125 0.58 2.8125 0.91 2.8125 1.25 C1.1625 1.58 -0.4875 1.91 -2.1875 2.25 C-1.8575 7.2 -1.5275 12.15 -1.1875 17.25 C-1.8475 17.25 -2.5075 17.25 -3.1875 17.25 C-3.32027344 16.64671875 -3.45304687 16.0434375 -3.58984375 15.421875 C-3.76644531 14.62265625 -3.94304687 13.8234375 -4.125 13 C-4.29902344 12.21109375 -4.47304687 11.4221875 -4.65234375 10.609375 C-4.99625648 9.09314662 -5.38249449 7.58557434 -5.8203125 6.09375 C-6.1875 4.25 -6.1875 4.25 -5.125 2 C-3.1875 0.25 -3.1875 0.25 0 0 Z " fill="#B4B3B3" transform="translate(112.1875,4.75)"/>
<path d="M0 0 C0.43570312 0.38671875 0.87140625 0.7734375 1.3203125 1.171875 C8.32541223 7.62854782 8.32541223 7.62854782 17 11 C16.67 11.99 16.34 12.98 16 14 C10.05867603 11.17079811 4.28568971 8.10986081 0 3 C0 2.01 0 1.02 0 0 Z " fill="#B8B7B7" transform="translate(12,109)"/>
<path d="M0 0 C3.82964655 1.56022637 6.32190489 3.87555571 9 7 C9 8.32 9 9.64 9 11 C8.01 10.67 7.02 10.34 6 10 C6 9.34 6 8.68 6 8 C5.01 7.67 4.02 7.34 3 7 C0.67734388 4.41927097 0 3.54823932 0 0 Z " fill="#F9F9F8" transform="translate(78,91)"/>
<path d="M0 0 C0 0.99 0 1.98 0 3 C-0.66 3 -1.32 3 -2 3 C-2 4.65 -2 6.3 -2 8 C-3.65 7.67 -5.3 7.34 -7 7 C-7.33 5.68 -7.66 4.36 -8 3 C-3.375 0 -3.375 0 0 0 Z " fill="#1D1D1D" transform="translate(106,5)"/>
<path d="M0 0 C1.9375 0.625 1.9375 0.625 4 2 C4.75 5.125 4.75 5.125 5 8 C5.99 7.67 6.98 7.34 8 7 C8.33 6.01 8.66 5.02 9 4 C9.99 4.33 10.98 4.66 12 5 C12 5.99 12 6.98 12 8 C9 10 9 10 6.5 10.0625 C4 9 4 9 2.25 5.5625 C1.8375 4.386875 1.425 3.21125 1 2 C0.67 1.34 0.34 0.68 0 0 Z " fill="#676767" transform="translate(85,94)"/>
<path d="M0 0 C1.32 0.33 2.64 0.66 4 1 C5.06351675 4.38391693 5.21442982 5.5804634 3.5625 8.8125 C3.046875 9.534375 2.53125 10.25625 2 11 C-0.31 10.67 -2.62 10.34 -5 10 C-5 9.67 -5 9.34 -5 9 C-4.030625 8.7525 -3.06125 8.505 -2.0625 8.25 C1.08359633 7.35256922 1.08359633 7.35256922 2 5.0625 C2.19067819 2.68509208 2.19067819 2.68509208 0 0 Z " fill="#BABAB9" transform="translate(99,14)"/>
<path d="M0 0 C1.20628008 2.33214148 2.1654738 4.49642139 3 7 C2.01 7 1.02 7 0 7 C0.33 9.31 0.66 11.62 1 14 C-4 6.5 -4 6.5 -4 3 C-3.01 3 -2.02 3 -1 3 C-0.67 2.01 -0.34 1.02 0 0 Z " fill="#585858" transform="translate(24,89)"/>
<path d="M0 0 C1.20249082 4.05732516 0.5757704 6.02305565 -1 10 C-1.30421875 10.77601562 -1.6084375 11.55203125 -1.921875 12.3515625 C-3.89434663 17.13101298 -3.89434663 17.13101298 -5 19 C-5.99 19.33 -6.98 19.66 -8 20 C-8 19.34 -8 18.68 -8 18 C-7.34 18 -6.68 18 -6 18 C-5.81824219 17.3709375 -5.63648438 16.741875 -5.44921875 16.09375 C-3.84447416 10.62938892 -2.06414546 5.30780262 0 0 Z " fill="#5D5D5D" transform="translate(8,36)"/>
<path d="M0 0 C-0.4640625 0.8353125 -0.4640625 0.8353125 -0.9375 1.6875 C-2.06637779 4.1444693 -2.53512084 6.34354764 -3 9 C-3.32483418 10.33542939 -3.6550855 11.66961551 -4 13 C-6 11 -6 11 -6.25 8.125 C-6.0094683 5.11835371 -5.65446964 3.48170446 -4 1 C-2 0 -2 0 0 0 Z " fill="#1A1A1A" transform="translate(40,87)"/>
<path d="M0 0 C1.32 0.33 2.64 0.66 4 1 C3.01 1 2.02 1 1 1 C0.67 1.99 0.34 2.98 0 4 C-1.64556566 5.03435556 -3.3170608 6.02763513 -5 7 C-7.05680792 8.60778647 -9.0201325 10.29639308 -11 12 C-10.74433121 8.54847139 -9.73802926 7.75511431 -7.125 5.3125 C-4 3 -4 3 -1 2 C-0.67 1.34 -0.34 0.68 0 0 Z " fill="#B6B6B5" transform="translate(40,3)"/>
<path d="M0 0 C0.66 0 1.32 0 2 0 C2.66 2.97 3.32 5.94 4 9 C-0.1196377 10.29243536 -3.66831683 11.26252625 -8 11 C-4.81237635 8.87491756 -2.73487777 8.4979837 1 8 C0.67 5.36 0.34 2.72 0 0 Z " fill="#C9C9C8" transform="translate(71,95)"/>
<path d="M0 0 C0.66 0.33 1.32 0.66 2 1 C1.28972656 1.77085938 0.57945313 2.54171875 -0.15234375 3.3359375 C-1.0808471 4.34885024 -2.00922606 5.36187701 -2.9375 6.375 C-3.40607422 6.88289062 -3.87464844 7.39078125 -4.35742188 7.9140625 C-6.97726768 10.74265854 -6.97726768 10.74265854 -9 14 C-9.66 14 -10.32 14 -11 14 C-9.75363936 7.61240173 -5.83738096 4.85927316 -1 1 C-0.67 0.67 -0.34 0.34 0 0 Z " fill="#5A5A5A" transform="translate(37,7)"/>
<path d="M0 0 C-0.33 2.64 -0.66 5.28 -1 8 C-2.32 8.33 -3.64 8.66 -5 9 C-5.25 6.75 -5.25 6.75 -5 4 C-1.64864865 0 -1.64864865 0 0 0 Z " fill="#222222" transform="translate(50,95)"/>
<path d="M0 0 C1.04449911 3.13349732 0.93423645 3.98968256 0 7 C-1.051875 6.938125 -2.10375 6.87625 -3.1875 6.8125 C-7.15816493 7.0077786 -8.84196969 7.70325068 -12 10 C-11.125 6.125 -11.125 6.125 -10 5 C-8.0509375 4.8453125 -8.0509375 4.8453125 -6.0625 4.6875 C-3.9144387 4.50455836 -3.9144387 4.50455836 -2 4 C-0.4100567 2.07935207 -0.4100567 2.07935207 0 0 Z " fill="#ADACAC" transform="translate(23,22)"/>
<path d="M0 0 C0 0.33 0 0.66 0 1 C-5.76081841 2.2982126 -11.08739655 3.25706972 -17 3 C-17 2.34 -17 1.68 -17 1 C-11.33357449 -0.22517308 -5.76291482 -0.09228867 0 0 Z " fill="#5A5A5A" transform="translate(77,111)"/>
<path d="M0 0 C4.5929708 3.52127761 5.11941917 7.57747597 6 13 C3 12 3 12 2.05078125 10.29296875 C1.80714844 9.59816406 1.56351562 8.90335938 1.3125 8.1875 C1.06113281 7.50042969 0.80976562 6.81335938 0.55078125 6.10546875 C0 4 0 4 0 0 Z " fill="#B7B7B6" transform="translate(0,87)"/>
<path d="M0 0 C0.66 0.33 1.32 0.66 2 1 C0.87204037 5.10899581 -0.33510818 9.07561214 -2 13 C-2.99 12.67 -3.98 12.34 -5 12 C-4.58225916 9.57710315 -4.30387062 8.29120935 -2.5 6.5625 C-0.53426922 4.51486377 -0.37331439 2.76252651 0 0 Z " fill="#ECECEB" transform="translate(109,85)"/>
<path d="M0 0 C0.33 0 0.66 0 1 0 C1.125 3.375 1.125 3.375 1 7 C0.34 7.66 -0.32 8.32 -1 9 C-1.64767793 11.57061311 -1.64767793 11.57061311 -2 14 C-2.66 14 -3.32 14 -4 14 C-3.67 11.03 -3.34 8.06 -3 5 C-2.01 4.67 -1.02 4.34 0 4 C0 2.68 0 1.36 0 0 Z " fill="#ADADAC" transform="translate(32,51)"/>
<path d="M0 0 C0.66 0 1.32 0 2 0 C2.33 2.31 2.66 4.62 3 7 C1.68 7.33 0.36 7.66 -1 8 C-1.66 6.02 -2.32 4.04 -3 2 C-2.01 2.495 -2.01 2.495 -1 3 C-0.67 2.01 -0.34 1.02 0 0 Z " fill="#4D4D4D" transform="translate(37,96)"/>
<path d="M0 0 C-2.84446411 2.3177115 -5.4399822 4.0209951 -9 5 C-11.3125 4.125 -11.3125 4.125 -13 3 C-8.44573816 0.33409063 -5.26053037 -0.31563182 0 0 Z " fill="#434343" transform="translate(98,115)"/>
<path d="M0 0 C1.485 0.99 1.485 0.99 3 2 C3.328125 4.09375 3.328125 4.09375 3.25 6.5 C3.22679688 7.69109375 3.22679688 7.69109375 3.203125 8.90625 C3 11 3 11 2 13 C1.34 13 0.68 13 0 13 C0 8.71 0 4.42 0 0 Z " fill="#1A1A1A" transform="translate(104,13)"/>
<path d="M0 0 C0.66 0 1.32 0 2 0 C1.67 4.29 1.34 8.58 1 13 C0.34 13 -0.32 13 -1 13 C-1.0272415 11.58344207 -1.04650467 10.16672955 -1.0625 8.75 C-1.07410156 7.96109375 -1.08570312 7.1721875 -1.09765625 6.359375 C-1.00385306 4.09308998 -0.63241063 2.1711105 0 0 Z " fill="#1A1A1A" transform="translate(121,11)"/>
<path d="M0 0 C0.33 0.66 0.66 1.32 1 2 C0.2578125 4.20703125 0.2578125 4.20703125 -0.875 6.8125 C-2.3455877 10.21130585 -3.3829229 13.34348995 -4 17 C-4.33 17 -4.66 17 -5 17 C-4.75759721 10.18848171 -4.45683174 5.31944433 0 0 Z " fill="#585858" transform="translate(12,39)"/>
<path d="M0 0 C-1.43671568 0.64757625 -2.87440416 1.29299453 -4.3125 1.9375 C-5.11300781 2.29714844 -5.91351563 2.65679687 -6.73828125 3.02734375 C-9 4 -9 4 -12 5 C-12.66 5.66 -13.32 6.32 -14 7 C-13.8046875 5.14453125 -13.8046875 5.14453125 -13 3 C-10.8203125 1.69921875 -10.8203125 1.69921875 -8.125 0.6875 C-7.24070312 0.34074219 -6.35640625 -0.00601563 -5.4453125 -0.36328125 C-3 -1 -3 -1 0 0 Z " fill="#616161" transform="translate(47,39)"/>
<path d="M0 0 C0.99 0.33 1.98 0.66 3 1 C3 3.31 3 5.62 3 8 C2.01 7.01 1.02 6.02 0 5 C-0.99 5.66 -1.98 6.32 -3 7 C-1.125 1.125 -1.125 1.125 0 0 Z " fill="#6F6F6F" transform="translate(112,57)"/>
<path d="M0 0 C0.66 0 1.32 0 2 0 C1.52309796 1.62566606 1.04340334 3.25051311 0.5625 4.875 C0.29566406 5.77992187 0.02882813 6.68484375 -0.24609375 7.6171875 C-1 10 -1 10 -2 12 C-2.66 12 -3.32 12 -4 12 C-3.33989524 9.15449988 -2.48275034 6.47674001 -1.4375 3.75 C-1.03337891 2.69039062 -1.03337891 2.69039062 -0.62109375 1.609375 C-0.41613281 1.07828125 -0.21117187 0.5471875 0 0 Z " fill="#B9B8B8" transform="translate(4,42)"/>
<path d="M0 0 C2.6015625 -0.29296875 2.6015625 -0.29296875 5.625 -0.1875 C7.12933594 -0.14689453 7.12933594 -0.14689453 8.6640625 -0.10546875 C9.43492188 -0.07066406 10.20578125 -0.03585938 11 0 C11 0.33 11 0.66 11 1 C6.46298506 2.45184478 2.81938524 3.23509196 -2 3 C-1.34 2.01 -0.68 1.02 0 0 Z " fill="#BABAB9" transform="translate(66,125)"/>
<path d="M0 0 C1.52519276 0.08937803 3.04681929 0.24537146 4.5625 0.4375 C5.80193359 0.59025391 5.80193359 0.59025391 7.06640625 0.74609375 C8.02353516 0.87177734 8.02353516 0.87177734 9 1 C9 1.33 9 1.66 9 2 C6.69 2.66 4.38 3.32 2 4 C1.67 5.98 1.34 7.96 1 10 C0.34 9.67 -0.32 9.34 -1 9 C-1.09765625 2.84765625 -1.09765625 2.84765625 -1 1 C-0.67 0.67 -0.34 0.34 0 0 Z " fill="#606060" transform="translate(106,3)"/>
<path d="M0 0 C-1.33333333 0.66666667 -2.66666667 1.33333333 -4 2 C-4.639375 2.37125 -5.27875 2.7425 -5.9375 3.125 C-8.41109822 4.17440531 -10.33953538 4.14780359 -13 4 C-12 2 -12 2 -9.875 0.875 C-6.47608911 -0.15945114 -3.53359114 -0.1385722 0 0 Z " fill="#B5B4B4" transform="translate(88,115)"/>
<path d="M0 0 C4.24480464 -0.33292585 6.35542625 -0.43885872 9.9375 2 C10.618125 2.66 11.29875 3.32 12 4 C11.67 4.99 11.34 5.98 11 7 C9.9790625 5.7315625 9.9790625 5.7315625 8.9375 4.4375 C6.14583333 1.5625 6.14583333 1.5625 2.1875 2.1875 C0.6096875 2.5896875 0.6096875 2.5896875 -1 3 C-0.67 2.01 -0.34 1.02 0 0 Z " fill="#989797" transform="translate(14,36)"/>
<path d="M0 0 C0.33 0 0.66 0 1 0 C1.04683582 3.13130907 0.91128148 5.99173557 0 9 C-2.22610045 11.03880834 -4.16328604 11.8137378 -7 13 C-5.91789661 10.47509209 -4.96225186 8.96453963 -2.9375 7.0625 C-0.71029591 4.69160532 -0.35370563 3.18335068 0 0 Z " fill="#6F6F6F" transform="translate(111,48)"/>
<path d="M0 0 C4.29 0 8.58 0 13 0 C13 0.33 13 0.66 13 1 C9.37 1.66 5.74 2.32 2 3 C2 2.34 2 1.68 2 1 C1.34 0.67 0.68 0.34 0 0 Z " fill="#B7B6B6" transform="translate(50,107)"/>
<path d="M0 0 C2.5625 2.1875 2.5625 2.1875 5 5 C4.8125 7.8125 4.8125 7.8125 4 10 C3.01 10 2.02 10 1 10 C1 9.34 1 8.68 1 8 C1.66 8 2.32 8 3 8 C2.690625 7.236875 2.38125 6.47375 2.0625 5.6875 C1.32106407 3.81210323 0.63771783 1.91315348 0 0 Z " fill="#4C4C4C" transform="translate(89,92)"/>
<path d="M0 0 C0.33 0 0.66 0 1 0 C1.28875 1.051875 1.5775 2.10375 1.875 3.1875 C2.77225193 6.22818711 3.76423419 9.08712344 5 12 C3 12 3 12 1.375 10.5 C-0.61605945 6.87989192 -0.2050035 4.10006991 0 0 Z " fill="#5B5B5B" transform="translate(8,88)"/>
<path d="M0 0 C0.66 0 1.32 0 2 0 C4.125 7.625 4.125 7.625 3 11 C2.49384702 9.73160474 1.99530901 8.46016898 1.5 7.1875 C1.2215625 6.47980469 0.943125 5.77210937 0.65625 5.04296875 C0 3 0 3 0 0 Z " fill="#1A1A1A" transform="translate(4,85)"/>
<path d="M0 0 C0 2 0 2 -1.4375 3.625 C-5.21977227 5.65451195 -8.79280836 5.24272259 -13 5 C-13 4.67 -13 4.34 -13 4 C-11.1128125 3.566875 -11.1128125 3.566875 -9.1875 3.125 C-5.89382293 2.36907411 -3.20782286 0 0 0 Z " fill="#C0C0BF" transform="translate(106,68)"/>
<path d="M0 0 C1.29922995 2.5984599 0.81286289 3.75961451 0.1875 6.5625 C0.01605469 7.36816406 -0.15539062 8.17382812 -0.33203125 9.00390625 C-1 11 -1 11 -3 12 C-3 9.69 -3 7.38 -3 5 C-2.34 5 -1.68 5 -1 5 C-0.67 3.35 -0.34 1.7 0 0 Z " fill="#C0C0BF" transform="translate(8,60)"/>
<path d="M0 0 C0.33 0.99 0.66 1.98 1 3 C-0.1446875 3.8971875 -0.1446875 3.8971875 -1.3125 4.8125 C-3.3483575 6.46959332 -5.1978279 8.10297674 -7 10 C-6.84518205 7.29068581 -6.51827919 5.53415961 -4.59765625 3.5546875 C-3.10228292 2.32320358 -1.5537076 1.1570163 0 0 Z " fill="#A7A6A6" transform="translate(93,45)"/>
<path d="M0 0 C0.99 0.33 1.98 0.66 3 1 C2.04367001 2.29315061 1.08486149 3.58446853 0.125 4.875 C-0.40867187 5.59429688 -0.94234375 6.31359375 -1.4921875 7.0546875 C-3 9 -3 9 -5 11 C-4.46884894 6.48521602 -2.63379708 3.65333143 0 0 Z " fill="#777676" transform="translate(37,12)"/>
<path d="M0 0 C2.79705825 1.39852912 2.90914993 3.13651858 4 6 C4.99 7.485 4.99 7.485 6 9 C2.83884224 7.63016497 2.0072908 7.0109362 0 4 C-0.99 3.34 -1.98 2.68 -3 2 C-2.01 1.34 -1.02 0.68 0 0 Z " fill="#D0D0CF" transform="translate(74,19)"/>
<path d="M0 0 C0.33 0.99 0.66 1.98 1 3 C1.66 3 2.32 3 3 3 C3.33 4.98 3.66 6.96 4 9 C3.34 9 2.68 9 2 9 C-0.29013653 5.5647952 -0.17842973 4.014669 0 0 Z " fill="#C1C1C0" transform="translate(10,89)"/>
<path d="M0 0 C0.99 0 1.98 0 3 0 C3 2.31 3 4.62 3 7 C2.01 6.67 1.02 6.34 0 6 C0 4.02 0 2.04 0 0 Z " fill="#343434" transform="translate(72,86)"/>
<path d="M0 0 C-1.49097658 3.7952131 -3.75700849 5.61042731 -7 8 C-6.44414399 4.1090079 -4.34122117 0 0 0 Z " fill="#BFBFBE" transform="translate(70,12)"/>
<path d="M0 0 C3.625 -0.1875 3.625 -0.1875 7 0 C5.875 1.5 5.875 1.5 4 3 C0.8125 3.1875 0.8125 3.1875 -2 3 C-1.34 2.01 -0.68 1.02 0 0 Z " fill="#808080" transform="translate(46,0)"/>
<path d="M0 0 C2.27505004 2.16671432 4.23575092 4.39563231 6 7 C6 7.66 6 8.32 6 9 C3.5067466 8.00269864 2.22532561 7.34925469 0.75 5.0625 C0 3 0 3 0 0 Z " fill="#B9B9B8" transform="translate(6,100)"/>
<path d="M0 0 C0.99 0.33 1.98 0.66 3 1 C2.67 2.65 2.34 4.3 2 6 C1.01 5.67 0.02 5.34 -1 5 C-0.67 3.35 -0.34 1.7 0 0 Z " fill="#B9B9B8" transform="translate(41,103)"/>
<path d="M0 0 C0.98120464 3.05263664 0.98120464 4.94736336 0 8 C-0.99 8 -1.98 8 -3 8 C-1.125 1.125 -1.125 1.125 0 0 Z " fill="#1C1C1C" transform="translate(115,87)"/>
<path d="M0 0 C0 0.33 0 0.66 0 1 C-3.64793184 2.27253436 -7.1936543 3.32829194 -11 4 C-7.95841042 -0.56238437 -5.1474794 -0.11438843 0 0 Z " fill="#6F6F6F" transform="translate(71,124)"/>
<path d="M0 0 C-4.30769231 3.07692308 -4.30769231 3.07692308 -7.8125 2.6875 C-8.534375 2.460625 -9.25625 2.23375 -10 2 C-3.72972973 -1.24324324 -3.72972973 -1.24324324 0 0 Z " fill="#5B5B5B" transform="translate(104,69)"/>
<path d="M0 0 C0.99 0.33 1.98 0.66 3 1 C1.02 5.455 1.02 5.455 -1 10 C-1.33 10 -1.66 10 -2 10 C-1.85950482 8.52031676 -1.71245174 7.04125484 -1.5625 5.5625 C-1.48128906 4.73878906 -1.40007813 3.91507813 -1.31640625 3.06640625 C-1 1 -1 1 0 0 Z " fill="#B8B8B7" transform="translate(8,32)"/>
<path d="M0 0 C0.99 0.33 1.98 0.66 3 1 C3.33 1.99 3.66 2.98 4 4 C4.66 4.66 5.32 5.32 6 6 C4.35 5.67 2.7 5.34 1 5 C0.505 2.525 0.505 2.525 0 0 Z " fill="#515151" transform="translate(79,21)"/>
</svg>
