<?xml version="1.0" encoding="UTF-8"?>
<svg version="1.1" xmlns="http://www.w3.org/2000/svg" width="128" height="128">
<path d="M0 0 C42.24 0 84.48 0 128 0 C128 42.24 128 84.48 128 128 C85.76 128 43.52 128 0 128 C0 85.76 0 43.52 0 0 Z " fill="#FAFBFB" transform="translate(0,0)"/>
<path d="M0 0 C2.82261641 0.39203006 4.62171669 0.696594 6.87231445 2.50170898 C9.35908675 4.25286464 10.78148731 4.46550217 13.79296875 4.66015625 C15.24775635 4.75707764 15.24775635 4.75707764 16.73193359 4.85595703 C23.59669798 5.1585277 30.46418767 5.34323864 37.33422852 5.47680664 C39.30242943 5.51670099 41.27037178 5.56876098 43.23828125 5.62109375 C44.9713855 5.65867798 44.9713855 5.65867798 46.73950195 5.69702148 C51.45637722 6.13533239 54.90356041 6.80839025 58.16015625 10.34765625 C58.78792969 11.24355469 59.41570312 12.13945312 60.0625 13.0625 C62.62645635 16.83610096 62.62645635 16.83610096 66.52734375 18.8984375 C70.13510336 19.04662352 72.73774645 17.45636319 76 16 C78.6875 15.5 78.6875 15.5 81 16 C89.48320543 25.26767389 95.27087307 38.10044462 100.75 49.3125 C101.09708008 49.99860352 101.44416016 50.68470703 101.80175781 51.39160156 C103.82868333 55.67679802 104.52143429 58.46687405 103 63 C101.25 65.5703125 101.25 65.5703125 99 68.125 C95.57238992 72.13941693 92.25519989 76.17326206 89.0625 80.375 C87.96615234 81.80972656 87.96615234 81.80972656 86.84765625 83.2734375 C85.11889869 85.82454273 84.1107867 88.14772568 83 91 C81.66796875 92.84375 81.66796875 92.84375 80.1875 94.5 C79.66027344 95.09296875 79.13304688 95.6859375 78.58984375 96.296875 C76.45046654 98.5886894 74.21671378 100.78328622 72 103 C71.34 103.99 70.68 104.98 70 106 C69.34 106 68.68 106 68 106 C68 106.66 68 107.32 68 108 C64.57371165 107.43385364 63.25800691 106.51623038 61.125 103.8125 C58.72866613 100.9138778 56.23904223 98.21467961 53.5390625 95.6015625 C52.91757324 94.99852295 52.29608398 94.3954834 51.65576172 93.77416992 C50.40729232 92.57096273 49.15132952 91.37547161 47.88720703 90.1887207 C43.93364871 86.35514816 41.94477391 83.14157547 40 78 C37.76243828 76.20995062 36.6922995 75.95460331 33.85546875 76.140625 C29.73270351 77.3814025 26.65673827 79.75005973 23.1875 82.25 C7.34504343 93.49890218 7.34504343 93.49890218 2 94 C1.5 91.4375 1.5 91.4375 2 88 C3.92152808 86.03978344 5.94206628 84.43414173 8.15234375 82.80859375 C10.40238381 80.60612324 10.66836168 79.07949866 11 76 C7.06748938 72.30582335 4.29130483 71.59901564 -1 71 C-3 69 -3 69 -3.24723816 66.69407654 C-3.24581314 65.73082962 -3.24438812 64.7675827 -3.24291992 63.77514648 C-3.24599655 62.68318466 -3.24907318 61.59122284 -3.25224304 60.46617126 C-3.24505753 59.27979568 -3.23787201 58.0934201 -3.23046875 56.87109375 C-3.23001053 55.65229019 -3.22955231 54.43348663 -3.2290802 53.17774963 C-3.22605307 50.59106477 -3.21815315 48.0043818 -3.20581055 45.41772461 C-3.18768763 41.47828626 -3.18529996 37.53908484 -3.18554688 33.59960938 C-3.18062638 31.08593549 -3.17479575 28.57226318 -3.16796875 26.05859375 C-3.16685593 24.88638779 -3.1657431 23.71418182 -3.16459656 22.50645447 C-3.06775417 5.59618452 -3.06775417 5.59618452 0 0 Z " fill="#7D331B" transform="translate(19,0)"/>
<path d="M0 0 C34.65 0 69.3 0 105 0 C105 20.46 105 40.92 105 62 C104.67 62 104.34 62 104 62 C103.83564453 61.46415283 103.67128906 60.92830566 103.50195312 60.3762207 C101.60212821 54.41095066 99.20958184 48.82575529 96.5 43.1875 C96.10941406 42.35541016 95.71882813 41.52332031 95.31640625 40.66601562 C93.47523916 36.80080458 91.65733248 33.3782147 89 30 C89.598125 30.928125 90.19625 31.85625 90.8125 32.8125 C93.55890511 37.56251026 94.73485764 42.69982025 96 48 C96.66 48 97.32 48 98 48 C100.23893777 52.23764617 101.95798259 55.78149506 102.125 60.625 C100.87873332 64.36380005 99.33910538 66.30419772 96.5703125 69.03125 C94.79535017 71.06512701 94.79535017 71.06512701 93.69140625 74.23046875 C91.86387611 78.73734393 88.9329688 82.13059674 85.8125 85.8125 C84.64131908 87.21694112 83.47074522 88.6218887 82.30078125 90.02734375 C81.73439941 90.70394043 81.16801758 91.38053711 80.58447266 92.07763672 C79.19972309 93.75768573 77.85898495 95.45739425 76.54296875 97.19140625 C75.53169922 98.51978516 75.53169922 98.51978516 74.5 99.875 C73.64921875 101.01582031 73.64921875 101.01582031 72.78125 102.1796875 C70.69472242 104.31197226 68.813383 105.08468704 66 106 C67.23047591 101.35153546 69.67449522 99.38232302 73.25390625 96.47265625 C76.25017234 93.94560409 78.49681305 91.34043413 79.87890625 87.65869141 C81.12151023 84.71183658 82.6668916 82.54859771 84.625 80.0234375 C85.68460938 78.64671875 85.68460938 78.64671875 86.765625 77.2421875 C87.50296875 76.29601562 88.2403125 75.34984375 89 74.375 C90.4589943 72.48748989 91.91735613 70.59949069 93.375 68.7109375 C94.02210937 67.87868652 94.66921875 67.04643555 95.3359375 66.18896484 C98.26619571 62.65136907 98.26619571 62.65136907 98.83203125 58.2890625 C97.85561863 54.429253 96.39851518 50.95169362 94.6875 47.375 C94.3464624 46.65441406 94.0054248 45.93382812 93.65405273 45.19140625 C86.70826778 30.15260648 86.70826778 30.15260648 77 17 C71.70934137 17.35928307 71.70934137 17.35928307 66.8125 19.125 C65 20 65 20 62.625 20.0625 C57.90574014 18.15232339 55.17469866 13.78554197 52.4375 9.625 C50.44473273 7.37230657 48.96024776 7.43567647 46 7 C43.78068643 6.86639354 41.55851219 6.77675972 39.3359375 6.71875 C38.04816406 6.68136719 36.76039062 6.64398437 35.43359375 6.60546875 C34.08074013 6.56989311 32.72787536 6.53473906 31.375 6.5 C26.2483761 6.36442816 21.12454511 6.19906515 16 6 C14.39753418 5.96132812 14.39753418 5.96132812 12.76269531 5.921875 C11.80202148 5.87546875 10.84134766 5.8290625 9.8515625 5.78125 C8.615271 5.73581055 8.615271 5.73581055 7.35400391 5.68945312 C5 5 5 5 0 0 Z " fill="#FAFBFB" transform="translate(23,0)"/>
<path d="M0 0 C0.33 0 0.66 0 1 0 C1.66 11.22 2.32 22.44 3 34 C6.95960466 35.97980233 8.22959191 36.20840527 12.4375 36.0625 C16.14793659 35.94380731 19.3794696 36.15236221 23 37 C23.020625 36.29875 23.04125 35.5975 23.0625 34.875 C24.42944956 30.68302136 27.39069588 28.42565243 31 26 C31.66 26 32.32 26 33 26 C33 25.34 33 24.68 33 24 C35.0625 23.125 35.0625 23.125 38 23 C40.59005725 24.73919133 42.79124879 26.80397934 45 29 C44.46267882 31.18634135 43.89718184 33.34272722 43.25 35.5 C42.78296931 38.04154282 42.78296931 38.04154282 44.0625 40.3125 C45.96488227 42.27807512 45.96488227 42.27807512 49.0625 42.4375 C50.031875 42.293125 51.00125 42.14875 52 42 C52.66 41.01 53.32 40.02 54 39 C59.95975232 38.3498452 59.95975232 38.3498452 63 40.25 C64 42 64 42 64.0625 43.875 C62.74282781 46.51434439 60.84764458 47.91949181 58.5546875 49.71875 C54.43970988 53.10998784 52.30468405 57.29460339 50 62 C47.9375 65.375 47.9375 65.375 46 68 C45.34 68 44.68 68 44 68 C43.67 67.01 43.34 66.02 43 65 C40.82496399 63.44640285 39.52542323 62.9694854 36.84765625 63.125 C32.7378203 64.38783025 29.6527994 66.75289808 26.1875 69.25 C10.34504343 80.49890218 10.34504343 80.49890218 5 81 C4.5 78.4375 4.5 78.4375 5 75 C6.92152808 73.03978344 8.94206628 71.43414173 11.15234375 69.80859375 C13.40238381 67.60612324 13.66836168 66.07949866 14 63 C10.06748938 59.30582335 7.29130483 58.59901564 2 58 C0 56 0 56 -0.24050903 53.6335144 C-0.23606781 52.64312164 -0.23162659 51.65272888 -0.22705078 50.63232422 C-0.22689972 49.51131317 -0.22674866 48.39030212 -0.22659302 47.23532104 C-0.21627045 46.02071198 -0.20594788 44.80610291 -0.1953125 43.5546875 C-0.1924826 42.31453888 -0.18965271 41.07439026 -0.18673706 39.79666138 C-0.17742174 36.49875367 -0.1594489 33.20104028 -0.1373291 29.90319824 C-0.11687474 26.5383543 -0.10773623 23.17348193 -0.09765625 19.80859375 C-0.07556519 13.20565277 -0.04206483 6.60284229 0 0 Z " fill="#ED9633" transform="translate(16,13)"/>
<path d="M0 0 C8.698958 8.56196653 14.43710121 22.44060085 19.75 33.3125 C20.09708008 33.99860352 20.44416016 34.68470703 20.80175781 35.39160156 C22.82868333 39.67679802 23.52143429 42.46687405 22 47 C20.25 49.5703125 20.25 49.5703125 18 52.125 C14.57238992 56.13941693 11.25519989 60.17326206 8.0625 64.375 C7.33160156 65.33148438 6.60070312 66.28796875 5.84765625 67.2734375 C4.11889869 69.82454273 3.1107867 72.14772568 2 75 C0.66796875 76.84375 0.66796875 76.84375 -0.8125 78.5 C-1.60333984 79.38945312 -1.60333984 79.38945312 -2.41015625 80.296875 C-4.54953346 82.5886894 -6.78328622 84.78328622 -9 87 C-9.66 87.99 -10.32 88.98 -11 90 C-11.66 90 -12.32 90 -13 90 C-13 89.01 -13 88.02 -13 87 C-13.99 86.67 -14.98 86.34 -16 86 C-16.28010467 80.11780202 -15.84263634 75.76989664 -13.79296875 70.265625 C-12.97912838 67.9403668 -12.43647108 65.66102827 -11.9375 63.25 C-11.25444064 59.97583117 -10.2431011 57.10775276 -9 54 C-8.74364411 52.58446967 -8.49442068 51.16763993 -8.25 49.75 C-7.4782485 45.94817498 -6.13416871 43.45730527 -3.875 40.3125 C-2.07404117 37.73970167 -1.03380862 36.13241711 -0.25 33.0625 C-1.67473173 27.24484544 -5.28408522 22.47317294 -8.6640625 17.6015625 C-11.79272882 13.08580274 -13.85222083 9.39456212 -15 4 C-13.44219668 3.32243118 -11.87849904 2.65840543 -10.3125 2 C-9.44238281 1.62875 -8.57226562 1.2575 -7.67578125 0.875 C-4.79286115 -0.06773592 -2.99405385 -0.54173511 0 0 Z " fill="#E75542" transform="translate(100,16)"/>
<path d="M0 0 C3 2 3 2 4.578125 5.5078125 C7.37247028 11.39722785 12.08556554 15.43793088 16.75 19.875 C18.49903269 21.55549295 20.24406152 23.24016658 21.984375 24.9296875 C23.14018066 26.03159424 23.14018066 26.03159424 24.31933594 27.15576172 C26 29 26 29 26 31 C27.32 31.33 28.64 31.66 30 32 C30 31.34 30 30.68 30 30 C30.66 30.33 31.32 30.66 32 31 C29.49798306 33.68073243 27.43022746 35.66535164 24 37 C21.265625 37.08984375 21.265625 37.08984375 18.25 36.9375 C13.4650978 36.83890202 10.26699435 37.43349414 5.93359375 39.31640625 C2.30961327 40.59761147 -1.23111196 40.61992925 -5 40 C-8.05587208 38.44088159 -10.32886474 36.60641362 -12.86328125 34.31640625 C-18.18606346 29.51039901 -23.21446089 26.48129791 -29.875 23.875 C-32 23 -32 23 -34 21 C-34 19.68 -34 18.36 -34 17 C-32.9275 16.505 -31.855 16.01 -30.75 15.5 C-23.89640377 12.07926701 -17.59075155 7.61194729 -11.40625 3.11328125 C-10.24609375 2.28376953 -10.24609375 2.28376953 -9.0625 1.4375 C-8.39347656 0.94121094 -7.72445312 0.44492188 -7.03515625 -0.06640625 C-4.29186805 -1.32484364 -2.83587037 -0.90583981 0 0 Z " fill="#52D7D8" transform="translate(57,76)"/>
<path d="M0 0 C2.82261641 0.39203006 4.62171669 0.696594 6.87231445 2.50170898 C9.35908675 4.25286464 10.78148731 4.46550217 13.79296875 4.66015625 C15.24775635 4.75707764 15.24775635 4.75707764 16.73193359 4.85595703 C23.59669798 5.1585277 30.46418767 5.34323864 37.33422852 5.47680664 C39.30242943 5.51670099 41.27037178 5.56876098 43.23828125 5.62109375 C44.9713855 5.65867798 44.9713855 5.65867798 46.73950195 5.69702148 C51.36488673 6.12683073 54.85157271 6.8638335 58.1953125 10.171875 C59.15050781 11.44804687 59.15050781 11.44804687 60.125 12.75 C60.80175781 13.6471875 61.47851562 14.544375 62.17578125 15.46875 C64.80583951 19.11816703 67.33469772 22.63771437 69.3125 26.6875 C71.37873946 30.74345153 73.81062857 34.49669549 76.28125 38.31640625 C76.8484375 39.20199219 77.415625 40.08757813 78 41 C78.5671875 41.81339844 79.134375 42.62679687 79.71875 43.46484375 C81.31628849 46.62582692 81.46306188 48.49525714 81 52 C79.5390625 54.640625 79.5390625 54.640625 77.625 57.25 C74.57765691 61.75050266 73.07840092 65.33917208 72.38671875 70.7109375 C71.94175459 73.34476576 71.00529236 75.52772546 70 78 C69.44805627 80.03347689 68.92796639 82.0758263 68.4375 84.125 C67.71234949 87.13831975 66.98037187 90.05888439 66 93 C65.93259135 94.56118428 65.91485544 96.1250252 65.9375 97.6875 C65.94652344 98.49574219 65.95554687 99.30398437 65.96484375 100.13671875 C65.97644531 100.75160156 65.98804687 101.36648437 66 102 C66.66 102.33 67.32 102.66 68 103 C68 104.65 68 106.3 68 108 C64.47656659 107.43685945 63.14139839 106.3869187 60.9375 103.625 C57.82079011 99.88222611 54.5193209 96.42405746 51.0625 93 C50.56548584 92.50709473 50.06847168 92.01418945 49.55639648 91.50634766 C48.37294838 90.33552245 47.18677123 89.16745669 46 88 C47.98 87.505 47.98 87.505 50 87 C49.34 86.01 48.68 85.02 48 84 C48.71862137 76.94128369 52.29347015 70.05347107 57.75 65.5625 C58.63945313 64.91474609 58.63945313 64.91474609 59.546875 64.25390625 C61.2978675 62.95915344 61.2978675 62.95915344 62 60 C62.61875 59.401875 63.2375 58.80375 63.875 58.1875 C66.30637852 55.68461035 67.47651503 53.11621926 69 50 C69.66 49.67 70.32 49.34 71 49 C71.495 52.465 71.495 52.465 72 56 C74.20880464 54.07620241 75.77407391 52.57200378 76.859375 49.82421875 C77.06210134 45.75279815 75.27219374 42.93031313 73.3125 39.5 C72.95994141 38.84902344 72.60738281 38.19804688 72.24414062 37.52734375 C70.60807404 34.5662726 68.96976349 31.96280256 66.828125 29.328125 C64.47444997 26.33070979 63.7754746 23.51792955 62.80859375 19.890625 C62.54175781 19.26671875 62.27492188 18.6428125 62 18 C61.01 17.67 60.02 17.34 59 17 C59 16.01 59 15.02 59 14 C58.34 14 57.68 14 57 14 C56.77828125 13.35417969 56.5565625 12.70835938 56.328125 12.04296875 C55.18135537 9.77318013 55.18135537 9.77318013 52.734375 9.42578125 C51.25710937 9.36970703 51.25710937 9.36970703 49.75 9.3125 C48.60402344 9.25707031 47.45804688 9.20164062 46.27734375 9.14453125 C44.85156912 9.09615862 43.42578705 9.04800527 42 9 C39.10620352 8.88164326 36.21274338 8.75715036 33.31933594 8.62963867 C31.32677277 8.54373001 29.333915 8.46438439 27.34082031 8.3918457 C26.42010742 8.35534912 25.49939453 8.31885254 24.55078125 8.28125 C23.72231689 8.25095703 22.89385254 8.22066406 22.0402832 8.18945312 C20 8 20 8 18 7 C14.98423267 6.72304178 11.96861888 6.55347062 8.9453125 6.37890625 C6.10702236 6.01376813 4.47803018 5.33229937 2 4 C1.9506479 9.51756476 1.91430338 15.03500171 1.89013672 20.55273438 C1.88006466 22.43068682 1.86640638 24.30862353 1.84912109 26.18652344 C1.82492547 28.8822009 1.81352917 31.57767146 1.8046875 34.2734375 C1.79436493 35.11619232 1.78404236 35.95894714 1.77340698 36.82723999 C1.77300856 38.88621247 1.87742412 40.94467935 2 43 C5.29187529 46.29187529 9.29684607 45.99734505 13.79296875 46.3046875 C16.97434335 46.2676462 16.97434335 46.2676462 19.05078125 44.5703125 C20.58706725 42.73543474 20.58706725 42.73543474 21.75390625 40.76171875 C23.25183019 38.64396421 24.66675567 38.05326616 27 37 C27.433125 36.46375 27.86625 35.9275 28.3125 35.375 C30 34 30 34 33.25 33.3125 C38.1110702 34.2036962 39.67812973 36.21161649 42.8125 39.859375 C44 42 44 42 43.72265625 44.07421875 C43.48417969 44.70972656 43.24570312 45.34523437 43 46 C42.43522621 49.0748795 42 51.87060846 42 55 C40.4375 53.3125 40.4375 53.3125 39 51 C39.25 48.5 39.25 48.5 40 46 C40.2784375 44.8553125 40.2784375 44.8553125 40.5625 43.6875 C40.706875 43.130625 40.85125 42.57375 41 42 C37.12966712 38.15338093 37.12966712 38.15338093 32.125 36.6875 C31.073125 36.8421875 31.073125 36.8421875 30 37 C30 37.66 30 38.32 30 39 C28.05431762 40.54297138 26.0093063 41.88983647 23.9453125 43.26953125 C21.64698138 45.31403062 20.93446059 47.10317217 20 50 C17.06195004 50.08086376 14.12611925 50.1404283 11.1875 50.1875 C10.35412109 50.21263672 9.52074219 50.23777344 8.66210938 50.26367188 C7.45844727 50.27817383 7.45844727 50.27817383 6.23046875 50.29296875 C5.12288208 50.31653442 5.12288208 50.31653442 3.99291992 50.34057617 C2 50 2 50 0.27783203 48.87182617 C-1.55768637 46.18307578 -1.51420006 43.99452176 -1.67578125 40.7578125 C-1.73975098 39.50516602 -1.8037207 38.25251953 -1.86962891 36.96191406 C-2.07905269 30.59762724 -2.18421091 24.24267445 -2.1875 17.875 C-2.19974609 16.58851562 -2.21199219 15.30203125 -2.22460938 13.9765625 C-2.22654297 12.74421875 -2.22847656 11.511875 -2.23046875 10.2421875 C-2.23457764 9.1372998 -2.23868652 8.03241211 -2.24291992 6.89404297 C-2.00443451 4.05283081 -1.47379719 2.40728727 0 0 Z " fill="#9A2F1F" transform="translate(19,0)"/>
<path d="M0 0 C2.62559844 0.3080144 5.25039806 0.62120182 7.875 0.9375 C8.99455078 1.06801758 8.99455078 1.06801758 10.13671875 1.20117188 C15.7734375 1.88671875 15.7734375 1.88671875 18 3 C19.51331122 3.14052046 21.03197493 3.22571454 22.55078125 3.28125 C23.93209229 3.33647827 23.93209229 3.33647827 25.34130859 3.39282227 C26.32180176 3.42819092 27.30229492 3.46355957 28.3125 3.5 C36.56226093 3.83205657 44.77456713 4.27057482 53 5 C53.66 6.65 54.32 8.3 55 10 C55.66 10 56.32 10 57 10 C57.495 11.485 57.495 11.485 58 13 C58.495 13.45375 58.99 13.9075 59.5 14.375 C61.43309736 16.46918881 61.62452796 18.22150692 62 21 C61.01 21 60.02 21 59 21 C57.5 18.8125 57.5 18.8125 56 16 C54.03723987 12.33049193 52.94684473 10.42599071 49 9 C46.39493971 8.86675579 43.90364084 8.83828201 41.3046875 8.91015625 C39.7682326 8.93059802 38.23177411 8.95077155 36.6953125 8.97070312 C34.2928134 9.01393638 31.89055582 9.06214834 29.48828125 9.11645508 C12.28857372 9.47715142 12.28857372 9.47715142 4 6 C3.1794088 16.60115118 2.47605215 26.54960437 5 37 C11.16652512 37.42527759 14.00064392 36.97676052 19 33 C22.85714286 30 22.85714286 30 25 30 C25.33 29.01 25.66 28.02 26 27 C29.10048928 25.44975536 31.57894218 25.71007985 35 26 C37.625 27.8125 37.625 27.8125 40 30 C40.928125 30.53625 41.85625 31.0725 42.8125 31.625 C43.534375 32.07875 44.25625 32.5325 45 33 C45 33.66 45 34.32 45 35 C46.32 35.66 47.64 36.32 49 37 C49 37.66 49 38.32 49 39 C49.70125 39.2475 50.4025 39.495 51.125 39.75 C54.37002459 41.16088026 57.10316737 42.97895398 60 45 C58 47 58 47 55.86328125 47.07421875 C50.42924726 46.25037592 47.58873706 45.16902626 44.25 40.6875 C43.16643977 39.12515734 42.08309071 37.56266819 41 36 C38.61361635 33.1879371 36.43196355 31.17899544 32.625 30.703125 C30.39107638 30.68916298 28.22184413 30.77781559 26 31 C25.71898438 31.63035156 25.43796875 32.26070312 25.1484375 32.91015625 C23.62859756 35.67585137 21.6904088 36.39856619 19 38 C18.42121094 38.85722656 17.84242187 39.71445312 17.24609375 40.59765625 C15 43 15 43 11.87109375 43.375 C10.17146484 43.189375 10.17146484 43.189375 8.4375 43 C7.30183594 42.896875 6.16617187 42.79375 4.99609375 42.6875 C0.84451665 41.73485649 0.84451665 41.73485649 -1 39 C-1.27392808 36.15246131 -1.37272394 33.5284498 -1.328125 30.68359375 C-1.32625183 29.87132828 -1.32437866 29.05906281 -1.32244873 28.22218323 C-1.31573037 26.50656016 -1.30182008 24.79095236 -1.28125 23.07543945 C-1.25007734 20.444029 -1.24027705 17.81321747 -1.234375 15.18164062 C-1.22520557 13.51561767 -1.21482999 11.84960082 -1.203125 10.18359375 C-1.19887512 9.39399765 -1.19462524 8.60440155 -1.19024658 7.7908783 C-1.11721138 2.23442276 -1.11721138 2.23442276 0 0 Z " fill="#6A210E" transform="translate(21,4)"/>
<path d="M0 0 C2.3125 -0.25 2.3125 -0.25 5 0 C5.474375 0.66 5.94875 1.32 6.4375 2 C7.89867786 4.34648328 7.89867786 4.34648328 11.0625 4.4375 C12.031875 4.293125 13.00125 4.14875 14 4 C14.66 3.01 15.32 2.02 16 1 C21.95975232 0.3498452 21.95975232 0.3498452 25 2.25 C26 4 26 4 26.0625 5.875 C24.74282781 8.51434439 22.84764458 9.91949181 20.5546875 11.71875 C16.43970988 15.10998784 14.30468405 19.29460339 12 24 C9.9375 27.375 9.9375 27.375 8 30 C7.34 30 6.68 30 6 30 C5.67 29.01 5.34 28.02 5 27 C2.90280128 25.97718482 2.90280128 25.97718482 0.4375 25.3125 C-0.38878906 25.06113281 -1.21507812 24.80976562 -2.06640625 24.55078125 C-2.70449219 24.36902344 -3.34257813 24.18726562 -4 24 C-3.34 23.34 -2.68 22.68 -2 22 C1.125 22.375 1.125 22.375 4 23 C3.67 21.948125 3.34 20.89625 3 19.8125 C2.16033218 16.61126643 1.80249096 14.2588992 2 11 C2.99 10.67 3.98 10.34 5 10 C5 9.01 5 8.02 5 7 C4.175 6.525625 3.35 6.05125 2.5 5.5625 C1.675 5.046875 0.85 4.53125 0 4 C0 2.68 0 1.36 0 0 Z " fill="#EDAD58" transform="translate(54,51)"/>
<path d="M0 0 C3.125 0.25 3.125 0.25 5 1.5 C6.125 3.25 6.125 3.25 6.125 7.25 C7.07052734 7.61738281 7.07052734 7.61738281 8.03515625 7.9921875 C10.64737688 9.56440253 10.82913257 10.4718765 11.5625 13.375 C12.53617673 16.71636057 13.645384 19.26489807 15.625 22.125 C18.7450543 26.78151608 19.90070261 31.8352213 21.125 37.25 C21.785 37.25 22.445 37.25 23.125 37.25 C25.36393777 41.48764617 27.08298259 45.03149506 27.25 49.875 C26.00373332 53.61380005 24.46410538 55.55419772 21.6953125 58.28125 C19.92035017 60.31512701 19.92035017 60.31512701 18.81640625 63.48046875 C16.98887611 67.98734393 14.0579688 71.38059674 10.9375 75.0625 C9.76631908 76.46694112 8.59574522 77.8718887 7.42578125 79.27734375 C6.85939941 79.95394043 6.29301758 80.63053711 5.70947266 81.32763672 C4.32472309 83.00768573 2.98398495 84.70739425 1.66796875 86.44140625 C0.65669922 87.76978516 0.65669922 87.76978516 -0.375 89.125 C-0.9421875 89.88554688 -1.509375 90.64609375 -2.09375 91.4296875 C-4.18027758 93.56197226 -6.061617 94.33468704 -8.875 95.25 C-7.64452409 90.60153546 -5.20050478 88.63232302 -1.62109375 85.72265625 C1.37517234 83.19560409 3.62181305 80.59043413 5.00390625 76.90869141 C6.24651023 73.96183658 7.7918916 71.79859771 9.75 69.2734375 C10.80960938 67.89671875 10.80960938 67.89671875 11.890625 66.4921875 C12.62796875 65.54601562 13.3653125 64.59984375 14.125 63.625 C15.5839943 61.73748989 17.04235613 59.84949069 18.5 57.9609375 C19.14710937 57.12868652 19.79421875 56.29643555 20.4609375 55.43896484 C23.39119571 51.90136907 23.39119571 51.90136907 23.95703125 47.5390625 C22.98061863 43.679253 21.52351518 40.20169362 19.8125 36.625 C19.4714624 35.90441406 19.1304248 35.18382812 18.77905273 34.44140625 C11.83326778 19.40260648 11.83326778 19.40260648 2.125 6.25 C-3.16565863 6.60928307 -3.16565863 6.60928307 -8.0625 8.375 C-9.875 9.25 -9.875 9.25 -12.4375 9.125 C-15.36520006 8.07403075 -16.27362203 6.86277458 -17.875 4.25 C-16.864375 4.311875 -15.85375 4.37375 -14.8125 4.4375 C-9.05806987 4.16347952 -5.23950198 0.45560887 0 0 Z " fill="#D6A382" transform="translate(97.875,10.75)"/>
<path d="M0 0 C2.82283429 0.39206032 4.62181366 0.69666201 6.87255859 2.50195312 C9.35900535 4.25279514 10.77805658 4.46352705 13.7890625 4.65625 C15.2436084 4.75292969 15.2436084 4.75292969 16.72753906 4.8515625 C23.61980164 5.16419273 30.51271271 5.37514645 37.40966797 5.55224609 C39.38518774 5.60419583 41.36056693 5.66140691 43.3359375 5.71875 C44.49657715 5.74904297 45.6572168 5.77933594 46.85302734 5.81054688 C49.6697784 5.9801201 52.25569036 6.36457044 55 7 C55 7.33 55 7.66 55 8 C49.9502377 7.88040846 44.90061996 7.75609619 39.85107422 7.62768555 C38.13854001 7.58476771 36.42597475 7.54306918 34.71337891 7.50268555 C6.97811226 6.84618157 6.97811226 6.84618157 2 4 C1.9506479 9.51756476 1.91430338 15.03500171 1.89013672 20.55273438 C1.88006466 22.43068682 1.86640638 24.30862353 1.84912109 26.18652344 C1.82492547 28.8822009 1.81352917 31.57767146 1.8046875 34.2734375 C1.79436493 35.11619232 1.78404236 35.95894714 1.77340698 36.82723999 C1.77300856 38.88621247 1.87742412 40.94467935 2 43 C5.29187529 46.29187529 9.29684607 45.99734505 13.79296875 46.3046875 C16.97434335 46.2676462 16.97434335 46.2676462 19.05078125 44.5703125 C20.58706725 42.73543474 20.58706725 42.73543474 21.75390625 40.76171875 C23.25183019 38.64396421 24.66675567 38.05326616 27 37 C27.433125 36.46375 27.86625 35.9275 28.3125 35.375 C30 34 30 34 33.25 33.3125 C38.1110702 34.2036962 39.67812973 36.21161649 42.8125 39.859375 C44 42 44 42 43.72265625 44.07421875 C43.48417969 44.70972656 43.24570312 45.34523437 43 46 C42.43522621 49.0748795 42 51.87060846 42 55 C40.4375 53.3125 40.4375 53.3125 39 51 C39.25 48.5 39.25 48.5 40 46 C40.2784375 44.8553125 40.2784375 44.8553125 40.5625 43.6875 C40.706875 43.130625 40.85125 42.57375 41 42 C37.12966712 38.15338093 37.12966712 38.15338093 32.125 36.6875 C31.073125 36.8421875 31.073125 36.8421875 30 37 C30 37.66 30 38.32 30 39 C28.05431762 40.54297138 26.0093063 41.88983647 23.9453125 43.26953125 C21.64698138 45.31403062 20.93446059 47.10317217 20 50 C17.06195004 50.08086376 14.12611925 50.1404283 11.1875 50.1875 C10.35412109 50.21263672 9.52074219 50.23777344 8.66210938 50.26367188 C7.45844727 50.27817383 7.45844727 50.27817383 6.23046875 50.29296875 C5.12288208 50.31653442 5.12288208 50.31653442 3.99291992 50.34057617 C2 50 2 50 0.27783203 48.87182617 C-1.55768637 46.18307578 -1.51420006 43.99452176 -1.67578125 40.7578125 C-1.73975098 39.50516602 -1.8037207 38.25251953 -1.86962891 36.96191406 C-2.07905269 30.59762724 -2.18421091 24.24267445 -2.1875 17.875 C-2.19974609 16.58851562 -2.21199219 15.30203125 -2.22460938 13.9765625 C-2.22654297 12.74421875 -2.22847656 11.511875 -2.23046875 10.2421875 C-2.23457764 9.1372998 -2.23868652 8.03241211 -2.24291992 6.89404297 C-2.00443451 4.05283081 -1.47379719 2.40728727 0 0 Z " fill="#8E4B30" transform="translate(19,0)"/>
<path d="M0 0 C0.99 0.33 1.98 0.66 3 1 C3.556875 2.175625 3.556875 2.175625 4.125 3.375 C6.23122589 6.32371625 6.79676222 6.45048951 10.125 7.375 C15.77678136 8.99242036 19.59244233 12.22209343 24 16 C29.15597112 20.31867667 31.79097959 22.27756134 38.58203125 22.234375 C40.98606876 22.00135036 42.62052497 21.47421112 44.8125 20.5 C49.27885001 18.57562074 53.41782415 18.88779741 58.2109375 19.02734375 C61.45286059 18.99556019 64.04130099 18.31497734 67 17 C67 17.66 67 18.32 67 19 C63.08043328 21.66864117 60.54272284 23.27633717 55.75 23 C51.8158017 22.78552922 49.095108 23.54302752 45.4375 25 C39.3429267 27.34666396 35.1453357 28.2391964 29.015625 25.82421875 C23.49019728 23.2164864 19.047273 20.66049618 15 16 C12.10609053 13.41894561 9.3743789 11.6618505 5.875 10.0625 C2.30432701 8.34803698 0.46954453 6.82081577 -1 3 C-0.67 2.01 -0.34 1.02 0 0 Z " fill="#AFF5ED" transform="translate(20,93)"/>
<path d="M0 0 C0.33 0 0.66 0 1 0 C1.02505615 1.001521 1.0501123 2.00304199 1.07592773 3.03491211 C1.17186553 6.8390253 1.27158868 10.64303231 1.37231445 14.44702148 C1.41497418 16.07687861 1.45667869 17.70676108 1.49731445 19.33666992 C1.77836965 30.5754081 2.26778838 41.78143994 3 53 C6.3 54.65 9.6 56.3 13 58 C13 58.66 13 59.32 13 60 C13.99 60.33 14.98 60.66 16 61 C16.875 63.4375 16.875 63.4375 17 67 C15.29484528 70.22667738 13.21776683 73.10726066 11 76 C17.92984856 72.15387715 24.08662209 68.27061945 30 63 C30.66 63 31.32 63 32 63 C30.68938084 66.93185748 28.24547848 68.18438314 24.9375 70.375 C24.34839844 70.77203125 23.75929688 71.1690625 23.15234375 71.578125 C21.4402461 72.72703264 19.7206623 73.86397832 18 75 C17.18660156 75.54914063 16.37320313 76.09828125 15.53515625 76.6640625 C12.06209913 78.94388119 9.23905014 80.60258905 5 81 C4.5 78.4375 4.5 78.4375 5 75 C6.92152808 73.03978344 8.94206628 71.43414173 11.15234375 69.80859375 C13.40238381 67.60612324 13.66836168 66.07949866 14 63 C10.06748938 59.30582335 7.29130483 58.59901564 2 58 C0 56 0 56 -0.24050903 53.6335144 C-0.23606781 52.64312164 -0.23162659 51.65272888 -0.22705078 50.63232422 C-0.22689972 49.51131317 -0.22674866 48.39030212 -0.22659302 47.23532104 C-0.21627045 46.02071198 -0.20594788 44.80610291 -0.1953125 43.5546875 C-0.1924826 42.31453888 -0.18965271 41.07439026 -0.18673706 39.79666138 C-0.17742174 36.49875367 -0.1594489 33.20104028 -0.1373291 29.90319824 C-0.11687474 26.5383543 -0.10773623 23.17348193 -0.09765625 19.80859375 C-0.07556519 13.20565277 -0.04206483 6.60284229 0 0 Z " fill="#E2B186" transform="translate(16,13)"/>
<path d="M0 0 C0.70125 0.144375 1.4025 0.28875 2.125 0.4375 C3.548125 0.7159375 3.548125 0.7159375 5 1 C5.87462891 1.17225098 6.74925781 1.34450195 7.65039062 1.52197266 C11.59803451 2.08534632 15.49008586 2.17269126 19.46875 2.2109375 C21.10808313 2.23899298 22.74740593 2.26765734 24.38671875 2.296875 C26.94742685 2.33815297 29.50793917 2.37508149 32.06884766 2.40136719 C34.55670871 2.42905783 37.04371964 2.47490537 39.53125 2.5234375 C40.29078979 2.52669037 41.05032959 2.52994324 41.83288574 2.53329468 C46.57790412 2.64232909 49.8963611 3.37531008 54 6 C55.9375 9 55.9375 9 57 12 C56.67 12.99 56.34 13.98 56 15 C55.69707031 14.50628906 55.39414063 14.01257812 55.08203125 13.50390625 C54.66308594 12.86324219 54.24414062 12.22257813 53.8125 11.5625 C53.40644531 10.92441406 53.00039062 10.28632813 52.58203125 9.62890625 C49.25933264 6.20775731 43.83526895 6.83618361 39.3359375 6.71875 C38.04816406 6.68136719 36.76039062 6.64398437 35.43359375 6.60546875 C34.08074013 6.56989311 32.72787536 6.53473906 31.375 6.5 C16.59980063 6.10927485 16.59980063 6.10927485 9.73828125 5.62890625 C8.89305908 5.57033447 8.04783691 5.5117627 7.17700195 5.45141602 C3.57932357 4.70541317 2.14669579 2.88693572 0 0 Z " fill="#DFB89E" transform="translate(23,0)"/>
<path d="M0 0 C6.75 0.875 6.75 0.875 9 2 C8.74802396 5.40167648 7.83931463 6.13926066 5.1875 8.4375 C4.64867188 8.8603125 4.10984375 9.283125 3.5546875 9.71875 C0.29611902 12.40420342 -1.71313819 15.36391512 -3.4375 19.1875 C-5 22 -5 22 -7.6875 23.375 C-8.450625 23.58125 -9.21375 23.7875 -10 24 C-10.87056734 21.58713125 -11.18561853 20.44460058 -10.1796875 18.03515625 C-9.74914063 17.38417969 -9.31859375 16.73320313 -8.875 16.0625 C-8.41351563 15.36382812 -7.95203125 14.66515625 -7.4765625 13.9453125 C-6 12 -6 12 -3.25 9.4375 C-0.40591833 6.35641152 -0.24186239 4.11166058 0 0 Z " fill="#E1B797" transform="translate(71,53)"/>
<path d="M0 0 C2.82283429 0.39206032 4.62181366 0.69666201 6.87255859 2.50195312 C9.35900535 4.25279514 10.77805658 4.46352705 13.7890625 4.65625 C15.2436084 4.75292969 15.2436084 4.75292969 16.72753906 4.8515625 C23.61980164 5.16419273 30.51271271 5.37514645 37.40966797 5.55224609 C39.38518774 5.60419583 41.36056693 5.66140691 43.3359375 5.71875 C44.49657715 5.74904297 45.6572168 5.77933594 46.85302734 5.81054688 C49.6697784 5.9801201 52.25569036 6.36457044 55 7 C55 7.33 55 7.66 55 8 C49.9502377 7.88040846 44.90061996 7.75609619 39.85107422 7.62768555 C38.13854001 7.58476771 36.42597475 7.54306918 34.71337891 7.50268555 C25.11078949 7.27538872 15.56272078 6.97664379 6 6 C5.67 5.01 5.34 4.02 5 3 C3.68 3.33 2.36 3.66 1 4 C0.15721878 18.76109336 -0.06066736 33.24856469 1 48 C0.34 47.67 -0.32 47.34 -1 47 C-2.47729677 37.47059493 -2.18253303 27.49104941 -2.1875 17.875 C-2.19974609 16.58851562 -2.21199219 15.30203125 -2.22460938 13.9765625 C-2.22654297 12.74421875 -2.22847656 11.511875 -2.23046875 10.2421875 C-2.23457764 9.1372998 -2.23868652 8.03241211 -2.24291992 6.89404297 C-2.00443451 4.05283081 -1.47379719 2.40728727 0 0 Z " fill="#975F42" transform="translate(19,0)"/>
<path d="M0 0 C4.00292179 1.33430726 5.56271857 3.95279726 7.75390625 7.34375 C10.87811484 11.49630311 15.24188096 11.90797268 20 13 C20.33 15.31 20.66 17.62 21 20 C20.01 20 19.02 20 18 20 C18.2475 19.071875 18.2475 19.071875 18.5 18.125 C19.07634644 16.03936614 19.07634644 16.03936614 19 14 C17.54257537 13.91903197 16.08387193 13.86082226 14.625 13.8125 C13.40683594 13.76029297 13.40683594 13.76029297 12.1640625 13.70703125 C11.44992188 13.80371094 10.73578125 13.90039062 10 14 C9.01 15.485 9.01 15.485 8 17 C4.875 17.1875 4.875 17.1875 2 17 C0.28365664 14.37500427 -0.01862736 13.17882263 0.3125 10 C1 7 1 7 1.6875 4.8125 C2.27213937 2.6628692 2.27213937 2.6628692 0 0 Z " fill="#894329" transform="translate(60,39)"/>
<path d="M0 0 C0.99 0 1.98 0 3 0 C2.7874482 1.17299652 2.7874482 1.17299652 2.57060242 2.36968994 C1.19912653 10.47611288 0.71843213 18.27284955 0.76953125 26.484375 C0.76998947 27.70658752 0.77044769 28.92880005 0.7709198 30.18804932 C0.77391585 32.74256373 0.78172144 35.29707676 0.79418945 37.8515625 C0.81264708 41.78131478 0.81469739 45.71083354 0.81445312 49.640625 C0.81936176 52.13021039 0.82518719 54.61979418 0.83203125 57.109375 C0.83314407 58.28836365 0.8342569 59.46735229 0.83540344 60.68206787 C0.84497322 62.30075775 0.84497322 62.30075775 0.85473633 63.95214844 C0.85854813 64.90555115 0.86235992 65.85895386 0.86628723 66.84124756 C0.75967246 68.98035244 0.75967246 68.98035244 2 70 C4.31282351 70.52928076 6.63721913 70.96333715 8.96875 71.40234375 C9.6390625 71.59957031 10.309375 71.79679687 11 72 C11.33 72.66 11.66 73.32 12 74 C10.39504433 73.88557539 8.79101881 73.75805306 7.1875 73.625 C6.29417969 73.55539063 5.40085937 73.48578125 4.48046875 73.4140625 C2 73 2 73 -1 71 C-1.96768381 66.45941603 -2.10896112 62.06661811 -2.03759766 57.43798828 C-2.01229477 55.55166183 -2.01229477 55.55166183 -1.98648071 53.62722778 C-1.9626066 52.27491798 -1.9384609 50.92261295 -1.9140625 49.5703125 C-1.89226561 48.17024252 -1.8708173 46.77016708 -1.84970093 45.37008667 C-1.80441247 42.45010373 -1.75520359 39.53022107 -1.703125 36.61035156 C-1.63653191 32.8609865 -1.57940247 29.11154695 -1.52509499 25.36198616 C-1.4823691 22.47785145 -1.43492347 19.59380963 -1.38599777 16.70977402 C-1.36305935 15.32624453 -1.34155484 13.94269052 -1.32149124 12.55911636 C-1.29283372 10.63454871 -1.25719464 8.71008878 -1.22119141 6.78564453 C-1.20263092 5.68979034 -1.18407043 4.59393616 -1.16494751 3.46487427 C-1 1 -1 1 0 0 Z " fill="#ECD4C1" transform="translate(16,0)"/>
<path d="M0 0 C3.125 0.25 3.125 0.25 5 1.5 C6.125 3.25 6.125 3.25 6.125 7.25 C6.764375 7.476875 7.40375 7.70375 8.0625 7.9375 C10.125 9.25 10.125 9.25 10.875 11.875 C10.99875 13.050625 10.99875 13.050625 11.125 14.25 C10.795 13.59 10.465 12.93 10.125 12.25 C9.135 11.92 8.145 11.59 7.125 11.25 C6.403125 10.38375 5.68125 9.5175 4.9375 8.625 C2.48536911 6.09307207 2.48536911 6.09307207 0.1640625 6.07421875 C-2.88223572 6.41961687 -5.32782494 6.96859568 -8.0625 8.375 C-9.875 9.25 -9.875 9.25 -12.4375 9.125 C-15.36520006 8.07403075 -16.27362203 6.86277458 -17.875 4.25 C-16.864375 4.311875 -15.85375 4.37375 -14.8125 4.4375 C-9.05806987 4.16347952 -5.23950198 0.45560887 0 0 Z " fill="#D8AA8E" transform="translate(97.875,10.75)"/>
<path d="M0 0 C1.32 0 2.64 0 4 0 C3.34 1.32 2.68 2.64 2 4 C1.34 4 0.68 4 0 4 C-0.66 5.32 -1.32 6.64 -2 8 C-2.66 8 -3.32 8 -4 8 C-4.12375 9.0209375 -4.12375 9.0209375 -4.25 10.0625 C-4.93703313 12.75337975 -5.68361122 14.25627796 -7.125 16.5625 C-9.23438765 19.68000391 -9.23438765 19.68000391 -8.8125 22.25 C-8.544375 22.8275 -8.27625 23.405 -8 24 C-7.67 24.99 -7.34 25.98 -7 27 C-10.375 26.3125 -10.375 26.3125 -14 25 C-15.4375 22.375 -15.4375 22.375 -16 20 C-15.278125 19.34 -14.55625 18.68 -13.8125 18 C-10.96692651 15.19484659 -9.07672916 12.03423608 -7.11328125 8.57421875 C-6.74589844 8.05472656 -6.37851563 7.53523438 -6 7 C-5.34 7 -4.68 7 -4 7 C-3.71125 6.21625 -3.4225 5.4325 -3.125 4.625 C-2 2 -2 2 0 0 Z " fill="#712813" transform="translate(77,61)"/>
<path d="M0 0 C3.37462715 0.54723683 5.08235 1.0549 8 3 C8.52078125 4.15757813 9.0415625 5.31515625 9.578125 6.5078125 C12.37247028 12.39722785 17.08556554 16.43793088 21.75 20.875 C23.49903269 22.55549295 25.24406152 24.24016658 26.984375 25.9296875 C27.75491211 26.66429199 28.52544922 27.39889648 29.31933594 28.15576172 C31 30 31 30 31 32 C32.32 32.33 33.64 32.66 35 33 C35 32.34 35 31.68 35 31 C35.66 31.33 36.32 31.66 37 32 C36.34 32.99 35.68 33.98 35 35 C29.96366568 34.61258967 28.15190069 32.42551347 24.9375 28.6875 C23.9807103 27.59255888 23.02097115 26.50018943 22.05859375 25.41015625 C21.56214355 24.84699707 21.06569336 24.28383789 20.55419922 23.70361328 C17.51937168 20.37703041 14.24947648 17.27270095 10.97241211 14.1862793 C7.74942722 11.06157279 5.87414129 8.05403372 4 4 C1.93832739 1.68581709 1.93832739 1.68581709 0 0 Z " fill="#699F93" transform="translate(52,75)"/>
<path d="M0 0 C0 0.99 0 1.98 0 3 C-0.763125 3.2475 -1.52625 3.495 -2.3125 3.75 C-5.32704316 5.1521131 -6.36527226 6.13922645 -8 9 C-8.71433121 11.64934822 -8.71433121 11.64934822 -9 14 C-12.3 14.33 -15.6 14.66 -19 15 C-19.33 14.34 -19.66 13.68 -20 13 C-18.68 13 -17.36 13 -16 13 C-15.979375 12.29875 -15.95875 11.5975 -15.9375 10.875 C-14.57055044 6.68302136 -11.60930412 4.42565243 -8 2 C-7.34 2 -6.68 2 -6 2 C-6 1.34 -6 0.68 -6 0 C-3.50907189 -1.24546405 -2.58919267 -0.7767578 0 0 Z " fill="#ECAD58" transform="translate(55,37)"/>
<path d="M0 0 C2.0625 0.4375 2.0625 0.4375 4 1 C3.01 1 2.02 1 1 1 C0.9506479 6.51756476 0.91430338 12.03500171 0.89013672 17.55273438 C0.88006466 19.43068682 0.86640638 21.30862353 0.84912109 23.18652344 C0.82492547 25.8822009 0.81352917 28.57767146 0.8046875 31.2734375 C0.79436493 32.11619232 0.78404236 32.95894714 0.77340698 33.82723999 C0.77300856 35.88621247 0.87742412 37.94467935 1 40 C3.74553678 42.74553678 5.67234977 42.42921829 9.5 42.6875 C10.6653125 42.77386719 11.830625 42.86023437 13.03125 42.94921875 C15.93000363 43.22768375 15.93000363 43.22768375 18 42 C17.67 42.99 17.34 43.98 17 45 C16.43152344 44.97679687 15.86304687 44.95359375 15.27734375 44.9296875 C10.07441352 44.80808312 5.92687757 45.32276508 1 47 C-0.65430218 43.34565854 -1.29302066 40.35143249 -1.44921875 36.3515625 C-1.49320801 35.2699585 -1.53719727 34.18835449 -1.58251953 33.07397461 C-1.61716309 31.93581299 -1.65180664 30.79765137 -1.6875 29.625 C-1.7272998 28.46427979 -1.76709961 27.30355957 -1.80810547 26.10766602 C-2.05228192 17.7279741 -2.18679379 9.32074314 -1 1 C-0.67 0.67 -0.34 0.34 0 0 Z " fill="#813820" transform="translate(20,3)"/>
<path d="M0 0 C0.33 0.66 0.66 1.32 1 2 C-2.30435813 6.35608385 -5.6428893 10.68445813 -9 15 C-9.55075195 15.71075684 -10.10150391 16.42151367 -10.66894531 17.15380859 C-12.37172563 19.34122639 -14.09001661 21.51557654 -15.8125 23.6875 C-16.35092529 24.38230469 -16.88935059 25.07710937 -17.4440918 25.79296875 C-20.30862143 29.372632 -22.37877468 31.81266115 -27 33 C-25.77807954 28.38385602 -23.42479897 26.53567842 -19.8671875 23.671875 C-17.27942424 21.35479827 -15.40744119 18.68207476 -13.39453125 15.8671875 C-11.50173895 13.33286056 -9.23517979 11.23517979 -7 9 C-4.60627406 6.04540104 -2.29305421 3.03317545 0 0 Z " fill="#ECD5C4" transform="translate(116,73)"/>
<path d="M0 0 C3.375 0.125 3.375 0.125 7 1 C8.9375 3.5625 8.9375 3.5625 10 6 C8.9375 7.5625 8.9375 7.5625 7 9 C0.66666667 8.66666667 0.66666667 8.66666667 -2 6 C-1.44444444 1.44444444 -1.44444444 1.44444444 0 0 Z " fill="#8B3621" transform="translate(43,60)"/>
<path d="M0 0 C3.88362278 3.37330264 5.77105778 7.06759723 7.9375 11.625 C8.63373153 13.06268557 9.33034574 14.50018587 10.02734375 15.9375 C10.36233887 16.63359375 10.69733398 17.3296875 11.04248047 18.046875 C12.29778903 20.60742281 13.65475525 23.11081038 15 25.625 C16.77770569 29.24715119 18.04065931 31.93196817 17 36 C15.14057789 38.02017907 13.2655421 39.39524101 11 41 C11.309375 40.484375 11.61875 39.96875 11.9375 39.4375 C14.62201543 33.27890577 13.95259315 28.79642734 11.69140625 22.72265625 C11.46324219 22.15417969 11.23507813 21.58570312 11 21 C10.34 21 9.68 21 9 21 C7.30486503 17.84088483 5.99289146 14.97346145 5.0625 11.5 C3.92581166 7.75561489 2.22504552 5.18923192 0 2 C0 1.34 0 0.68 0 0 Z " fill="#EBD3C0" transform="translate(110,27)"/>
<path d="M0 0 C2.98878769 -0.18679923 4.31658612 -0.21380591 7 1 C15 9.70956522 15 9.70956522 15 14 C16.32 14.66 17.64 15.32 19 16 C19 16.99 19 17.98 19 19 C19.99 19 20.98 19 22 19 C22 19.66 22 20.32 22 21 C18.47656659 20.43685945 17.14139839 19.3869187 14.9375 16.625 C11.38223942 12.3478197 7.53418893 8.47208619 3.55639648 4.59423828 C2.35403754 3.41311351 1.17467451 2.20866147 0 1 C0 0.67 0 0.34 0 0 Z " fill="#843F26" transform="translate(65,87)"/>
<path d="M0 0 C4.49998618 -0.02922653 8.99994765 -0.04687482 13.5 -0.0625 C14.7684375 -0.07087891 16.036875 -0.07925781 17.34375 -0.08789062 C34.74475671 -0.13320575 34.74475671 -0.13320575 38.53125 3.28515625 C39.50578125 4.65994141 39.50578125 4.65994141 40.5 6.0625 C41.1703125 6.98160156 41.840625 7.90070312 42.53125 8.84765625 C43.25828125 9.91306641 43.25828125 9.91306641 44 11 C43.34 11.33 42.68 11.66 42 12 C41.01 11.34 40.02 10.68 39 10 C39 9.01 39 8.02 39 7 C38.34 7 37.68 7 37 7 C36.77828125 6.35417969 36.5565625 5.70835938 36.328125 5.04296875 C35.18135537 2.77318013 35.18135537 2.77318013 32.734375 2.42578125 C31.74953125 2.38839844 30.7646875 2.35101563 29.75 2.3125 C28.60660156 2.25835937 27.46320313 2.20421875 26.28515625 2.1484375 C25.62531738 2.12620117 24.96547852 2.10396484 24.28564453 2.08105469 C21.6044715 1.98597357 18.92577331 1.85706495 16.24609375 1.7265625 C10.83147368 1.46562222 5.41614905 1.22679714 0 1 C0 0.67 0 0.34 0 0 Z " fill="#7E341C" transform="translate(39,7)"/>
<path d="M0 0 C4.2109332 2.97112882 6.68446496 6.22609388 9.125 10.6875 C9.47119385 11.3074585 9.8173877 11.92741699 10.17407227 12.56616211 C13.5766572 18.8032891 15.8686817 24.98582655 17 32 C14.06611109 28.45753351 12.171594 24.49026474 10.1875 20.375 C7.39804022 14.67034735 4.44823172 9.18206574 1.03125 3.8203125 C0 2 0 2 0 0 Z " fill="#D29D7C" transform="translate(103,19)"/>
<path d="M0 0 C-1.31064059 3.93192177 -3.75455293 5.18425483 -7.0625 7.375 C-7.65015137 7.77130615 -8.23780273 8.1676123 -8.84326172 8.57592773 C-10.55646931 9.72614359 -12.27727438 10.86410852 -14 12 C-14.83660156 12.56074219 -15.67320313 13.12148437 -16.53515625 13.69921875 C-21.59509312 17 -21.59509312 17 -25 17 C-25 16.01 -25 15.02 -25 14 C-24.38253906 13.79246094 -23.76507812 13.58492187 -23.12890625 13.37109375 C-16.39632508 10.92195083 -11.45804307 7.57668592 -6 3 C-2.26879271 0 -2.26879271 0 0 0 Z " fill="#C98D6D" transform="translate(48,76)"/>
<path d="M0 0 C0.66 0.33 1.32 0.66 2 1 C-3.11213192 5.76165479 -8.23896342 10.03976879 -14.15234375 13.7734375 C-16.13138149 14.99936023 -16.13138149 14.99936023 -18 17 C-20.125 16.625 -20.125 16.625 -22 16 C-22 15.34 -22 14.68 -22 14 C-20.9275 13.505 -19.855 13.01 -18.75 12.5 C-12.18459764 9.22906477 -5.20381773 5.20381773 0 0 Z " fill="#64A095" transform="translate(45,79)"/>
<path d="M0 0 C4.47400242 -0.36275695 4.47400242 -0.36275695 6.8125 1.25 C8 3 8 3 8 7 C8.639375 7.226875 9.27875 7.45375 9.9375 7.6875 C12 9 12 9 12.75 11.625 C12.87375 12.800625 12.87375 12.800625 13 14 C12.67 13.34 12.34 12.68 12 12 C11.01 11.67 10.02 11.34 9 11 C7.82421875 9.37109375 7.82421875 9.37109375 6.6875 7.4375 C5.47441814 5.51836942 5.47441814 5.51836942 4 4 C0.78723657 3.4136018 0.78723657 3.4136018 -2 4 C-1.34 2.68 -0.68 1.36 0 0 Z " fill="#E9CBB3" transform="translate(96,11)"/>
<path d="M0 0 C1.32 0 2.64 0 4 0 C3.34 1.32 2.68 2.64 2 4 C1.34 4 0.68 4 0 4 C-0.66 5.32 -1.32 6.64 -2 8 C-2.66 8 -3.32 8 -4 8 C-4.33 9.65 -4.66 11.3 -5 13 C-5.99 13 -6.98 13 -8 13 C-7.49396008 10.83125748 -7.00016187 9.00032373 -6 7 C-5.34 7 -4.68 7 -4 7 C-3.71125 6.21625 -3.4225 5.4325 -3.125 4.625 C-2 2 -2 2 0 0 Z " fill="#6B220E" transform="translate(77,61)"/>
<path d="M0 0 C0.33 0 0.66 0 1 0 C1.06058594 0.92683594 1.12117188 1.85367188 1.18359375 2.80859375 C1.26738281 4.00613281 1.35117187 5.20367187 1.4375 6.4375 C1.51871094 7.63246094 1.59992187 8.82742187 1.68359375 10.05859375 C1.67656114 12.88570244 1.67656114 12.88570244 3 14 C5.31282351 14.52928076 7.63721913 14.96333715 9.96875 15.40234375 C10.6390625 15.59957031 11.309375 15.79679687 12 16 C12.33 16.66 12.66 17.32 13 18 C11.39504433 17.88557539 9.79101881 17.75805306 8.1875 17.625 C7.29417969 17.55539063 6.40085937 17.48578125 5.48046875 17.4140625 C3 17 3 17 0 15 C-0.546875 11.77734375 -0.546875 11.77734375 -0.75 7.9375 C-0.82734375 6.66777344 -0.9046875 5.39804687 -0.984375 4.08984375 C-0.98953125 3.07019531 -0.9946875 2.05054688 -1 1 C-0.67 0.67 -0.34 0.34 0 0 Z " fill="#EEDBCC" transform="translate(15,56)"/>
<path d="M0 0 C0.99 0.66 1.98 1.32 3 2 C2.66362983 5.02733153 2.39104866 6.60207576 0.22265625 8.80859375 C-0.49019531 9.34613281 -1.20304687 9.88367188 -1.9375 10.4375 C-5.46412554 13.31431797 -7.10229868 15.39928075 -8 20 C-8.33 20 -8.66 20 -9 20 C-9.36571952 13.53895509 -9.36571952 13.53895509 -7.8125 11.25 C-6 10 -6 10 -3.375 8.75 C-0.5991574 7.10685142 -0.5991574 7.10685142 -0.1875 3.3125 C-0.0946875 1.6728125 -0.0946875 1.6728125 0 0 Z " fill="#EEDBCC" transform="translate(28,74)"/>
<path d="M0 0 C1.485 0.99 1.485 0.99 3 2 C6.12894522 2.49875144 6.12894522 2.49875144 9.5625 2.6875 C10.71878906 2.77386719 11.87507813 2.86023437 13.06640625 2.94921875 C15.93524232 3.22514011 15.93524232 3.22514011 18 2 C17.67 2.99 17.34 3.98 17 5 C16.43152344 4.97679687 15.86304688 4.95359375 15.27734375 4.9296875 C10.07441352 4.80808312 5.92687757 5.32276508 1 7 C0 6 0 6 -0.0625 2.9375 C-0.041875 1.968125 -0.02125 0.99875 0 0 Z " fill="#80331C" transform="translate(20,43)"/>
<path d="M0 0 C0.33 0 0.66 0 1 0 C1.33 5.61 1.66 11.22 2 17 C5.3 18.65 8.6 20.3 12 22 C10.68 22.33 9.36 22.66 8 23 C8 22.34 8 21.68 8 21 C6.865625 20.855625 5.73125 20.71125 4.5625 20.5625 C1 20 1 20 0 19 C-0.08651611 17.58429877 -0.10704904 16.164405 -0.09765625 14.74609375 C-0.09443359 13.89208984 -0.09121094 13.03808594 -0.08789062 12.15820312 C-0.07951172 11.26037109 -0.07113281 10.36253906 -0.0625 9.4375 C-0.05798828 8.53580078 -0.05347656 7.63410156 -0.04882812 6.70507812 C-0.03700225 4.46998686 -0.0205222 2.23502563 0 0 Z " fill="#F3B458" transform="translate(17,49)"/>
<path d="M0 0 C3.79796489 0.33025782 6.66445335 1.21310001 10 3 C10.66 3 11.32 3 12 3 C11.6875 4.9375 11.6875 4.9375 11 7 C10.01 7.33 9.02 7.66 8 8 C7.67 7.01 7.34 6.02 7 5 C4.90280128 3.97718482 4.90280128 3.97718482 2.4375 3.3125 C1.61121094 3.06113281 0.78492188 2.80976562 -0.06640625 2.55078125 C-0.70449219 2.36902344 -1.34257813 2.18726562 -2 2 C-1.34 1.34 -0.68 0.68 0 0 Z " fill="#BD8263" transform="translate(52,73)"/>
<path d="M0 0 C0.66 0 1.32 0 2 0 C8.21833466 11.23741906 8.21833466 11.23741906 7 16 C5.14057789 18.02017907 3.2655421 19.39524101 1 21 C1.309375 20.484375 1.61875 19.96875 1.9375 19.4375 C3.77030928 15.23281989 4.56061077 11.80290319 3.16796875 7.32421875 C2.17644632 4.84716449 1.13244071 2.41554951 0 0 Z " fill="#EEDBCC" transform="translate(120,47)"/>
<path d="M0 0 C3.40385258 4.17745544 5.09136309 7.20319254 4.8125 12.6875 C4 16 4 16 1 18 C1.09539062 17.39671875 1.19078125 16.7934375 1.2890625 16.171875 C1.39992188 15.37265625 1.51078125 14.5734375 1.625 13.75 C1.74101563 12.96109375 1.85703125 12.1721875 1.9765625 11.359375 C2.00347758 8.64992376 1.28797078 7.34176505 0 5 C-0.125 2.25 -0.125 2.25 0 0 Z " fill="#DBAA89" transform="translate(120,48)"/>
<path d="M0 0 C0.66 0.33 1.32 0.66 2 1 C1.21654285 2.17219543 0.42297164 3.33763668 -0.375 4.5 C-0.81585938 5.1496875 -1.25671875 5.799375 -1.7109375 6.46875 C-2.13632813 6.9740625 -2.56171875 7.479375 -3 8 C-3.66 8 -4.32 8 -5 8 C-5.268125 8.928125 -5.53625 9.85625 -5.8125 10.8125 C-6.91148371 13.76240366 -7.62418561 15.05615186 -10 17 C-10.66 16.67 -11.32 16.34 -12 16 C-11.566875 15.443125 -11.13375 14.88625 -10.6875 14.3125 C-8.97427755 12.05696144 -8.97427755 12.05696144 -7.6875 9.6875 C-5.4645818 6.14729695 -2.77479431 3.11603115 0 0 Z " fill="#954A32" transform="translate(76,60)"/>
<path d="M0 0 C2.3125 -0.25 2.3125 -0.25 5 0 C6.97610386 2.04424538 8 3.1176825 8 6 C4.25 7.125 4.25 7.125 2 6 C2 5.01 2 4.02 2 3 C1.34 3 0.68 3 0 3 C0 2.01 0 1.02 0 0 Z " fill="#F0B35F" transform="translate(44,70)"/>
<path d="M0 0 C2.375 -0.125 2.375 -0.125 5 0 C7 2 7 2 7 6 C4.03 5.505 4.03 5.505 1 5 C0.505 2.525 0.505 2.525 0 0 Z " fill="#6C2310" transform="translate(60,48)"/>
<path d="M0 0 C0.66 0.33 1.32 0.66 2 1 C1.360625 1.5775 0.72125 2.155 0.0625 2.75 C-2.34096628 5.01303649 -2.34096628 5.01303649 -3 9 C-9.93 8.505 -9.93 8.505 -17 8 C-13 6 -13 6 -9.0625 6.25 C-6.46290026 6.3471813 -5.41243263 6.33627601 -3.37109375 4.671875 C-1.81883413 2.83518694 -1.81883413 2.83518694 0 0 Z " fill="#996244" transform="translate(42,41)"/>
<path d="M0 0 C0.33 0.99 0.66 1.98 1 3 C-0.45017921 5.59505753 -1.34638817 6.77590452 -4.1875 7.75 C-4.785625 7.8325 -5.38375 7.915 -6 8 C-6.33 6.68 -6.66 5.36 -7 4 C-4 2 -4 2 -2 2 C-1.34 1.34 -0.68 0.68 0 0 Z " fill="#DEB08F" transform="translate(67,69)"/>
<path d="M0 0 C4.22797927 -0.88082902 4.22797927 -0.88082902 7 0 C10.07589556 3.04914864 12.55020182 6.43665719 15 10 C14.01 10.495 14.01 10.495 13 11 C12.01 10.34 11.02 9.68 10 9 C10 8.01 10 7.02 10 6 C9.34 6 8.68 6 8 6 C7.34 4.68 6.68 3.36 6 2 C4.02 2 2.04 2 0 2 C0 1.34 0 0.68 0 0 Z " fill="#8A482E" transform="translate(68,8)"/>
<path d="M0 0 C3.68754757 0.49831724 5.60490662 1.10067643 8 4 C6.865625 3.979375 5.73125 3.95875 4.5625 3.9375 C1.18424326 3.58422523 1.18424326 3.58422523 0 5 C-0.23075082 6.34747084 -0.41153063 7.70377565 -0.5625 9.0625 C-0.706875 10.361875 -0.85125 11.66125 -1 13 C-1.33 13 -1.66 13 -2 13 C-2.05447047 11.58376784 -2.09300508 10.16691809 -2.125 8.75 C-2.14820312 7.96109375 -2.17140625 7.1721875 -2.1953125 6.359375 C-1.9828378 3.79268059 -1.28654105 2.2083933 0 0 Z " fill="#C98D6D" transform="translate(19,0)"/>
<path d="M0 0 C6.625 0.625 6.625 0.625 10 4 C6.37 3.67 2.74 3.34 -1 3 C-0.67 2.01 -0.34 1.02 0 0 Z " fill="#F4B455" transform="translate(27,50)"/>
<path d="M0 0 C0.99 0 1.98 0 3 0 C3.1875 2.375 3.1875 2.375 3 5 C2.01 5.66 1.02 6.32 0 7 C-1 6 -1 6 -1.125 3.5 C-1 1 -1 1 0 0 Z " fill="#7E341C" transform="translate(79,87)"/>
<path d="M0 0 C0.78375 0.04125 1.5675 0.0825 2.375 0.125 C1.385 0.7746875 1.385 0.7746875 0.375 1.4375 C-0.285 1.994375 -0.945 2.55125 -1.625 3.125 C-1.625 4.115 -1.625 5.105 -1.625 6.125 C-0.965 6.785 -0.305 7.445 0.375 8.125 C-0.945 7.795 -2.265 7.465 -3.625 7.125 C-4.25 4.75 -4.25 4.75 -4.625 2.125 C-2.625 0.125 -2.625 0.125 0 0 Z " fill="#996244" transform="translate(45.625,59.875)"/>
<path d="M0 0 C2.4375 0.75 2.4375 0.75 5 2 C5.8125 4.125 5.8125 4.125 6 6 C6.99 6 7.98 6 9 6 C9 6.66 9 7.32 9 8 C6.46089803 7.61479436 5.27248877 7.29902057 3.515625 5.37109375 C3.09796875 4.73300781 2.6803125 4.09492187 2.25 3.4375 C1.82203125 2.79683594 1.3940625 2.15617187 0.953125 1.49609375 C0.48132813 0.75552734 0.48132813 0.75552734 0 0 Z " fill="#996244" transform="translate(78,100)"/>
<path d="M0 0 C0.66 0.33 1.32 0.66 2 1 C1.01 2.485 1.01 2.485 0 4 C-0.38499891 5.65549531 -0.72793135 7.3222433 -1 9 C-1.66 9 -2.32 9 -3 9 C-3.36923077 3.46153846 -3.36923077 3.46153846 -1.5 1.125 C-1.005 0.75375 -0.51 0.3825 0 0 Z " fill="#E5BB99" transform="translate(24,85)"/>
<path d="M0 0 C0 3.10551666 -0.5393715 4.35261084 -2 7 C-3.32 6.67 -4.64 6.34 -6 6 C-4 4 -2 2 0 0 Z " fill="#F4B455" transform="translate(29,83)"/>
<path d="M0 0 C0.33 0 0.66 0 1 0 C1 1.98 1 3.96 1 6 C-0.65 6.33 -2.3 6.66 -4 7 C-4.33 6.34 -4.66 5.68 -5 5 C-3.68 5 -2.36 5 -1 5 C-0.67 3.35 -0.34 1.7 0 0 Z " fill="#C98D6D" transform="translate(40,45)"/>
<path d="M0 0 C0.33 1.32 0.66 2.64 1 4 C-0.65 5.32 -2.3 6.64 -4 8 C-4 4.09161134 -2.49432124 2.88405893 0 0 Z " fill="#E9CBB2" transform="translate(104,87)"/>
<path d="M0 0 C1.65 0.33 3.3 0.66 5 1 C4.67 1.99 4.34 2.98 4 4 C2.68 3.67 1.36 3.34 0 3 C0 2.01 0 1.02 0 0 Z " fill="#6A210E" transform="translate(45,63)"/>
<path d="M0 0 C2.64 0.66 5.28 1.32 8 2 C5.38058783 3.74627478 3.96175123 4.38722388 1 5 C0.505 2.525 0.505 2.525 0 0 Z " fill="#9C2F20" transform="translate(20,45)"/>
<path d="M0 0 C0 3.59857954 -0.95830515 5.09451118 -3 8 C-3.66 8 -4.32 8 -5 8 C-3.8141763 4.62496331 -2.72426311 2.35277269 0 0 Z " fill="#D29D7C" transform="translate(94,98)"/>
</svg>
