<?xml version="1.0" encoding="UTF-8"?>
<svg version="1.1" xmlns="http://www.w3.org/2000/svg" width="128" height="128">
<path d="M0 0 C42.24 0 84.48 0 128 0 C128 42.24 128 84.48 128 128 C85.76 128 43.52 128 0 128 C0 85.76 0 43.52 0 0 Z " fill="#A3A3A3" transform="translate(0,0)"/>
<path d="M0 0 C15.47381133 -0.38630874 15.47381133 -0.38630874 21 2 C23.56616632 5.84924948 23.55097676 8.4349304 24 13 C24.99 13.33 25.98 13.66 27 14 C28.17530292 34.7034129 28.17530292 34.7034129 22.5078125 42.02734375 C20.05980413 45.230049 18.68381915 49.03384895 18 53 C18.33 53.66 18.66 54.32 19 55 C23.278551 54.52460544 25.09647107 51.97434671 28 49 C28.86882812 48.566875 29.73765625 48.13375 30.6328125 47.6875 C33.24871999 46.2216824 33.24871999 46.2216824 33.55859375 43.4609375 C33.51863281 42.44257812 33.47867188 41.42421875 33.4375 40.375 C33.37369141 38.66376953 33.37369141 38.66376953 33.30859375 36.91796875 C32.75713558 29.9165441 31.93353056 22.95980372 31 16 C32.65 16.33 34.3 16.66 36 17 C38.63096039 23.48343811 39.39325819 29.02330843 39 36 C39.639375 36.103125 40.27875 36.20625 40.9375 36.3125 C41.618125 36.539375 42.29875 36.76625 43 37 C44.55042674 41.65128023 44.22574571 46.31542036 44.25 51.1875 C44.270625 52.20392578 44.29125 53.22035156 44.3125 54.26757812 C44.34545062 60.64764283 43.49053294 65.14596381 41 71 C40.63586647 73.3703692 40.50782939 75.62818314 40.40625 78.01953125 C39.89445296 80.51454181 38.83133401 81.28982295 37 83 C36.32136945 84.9959722 35.65358081 86.99568551 35 89 C34.01 89.495 34.01 89.495 33 90 C32.57654297 91.11181641 32.57654297 91.11181641 32.14453125 92.24609375 C30.79801609 95.48600223 29.05786305 97.48497917 26.6875 100.0625 C25.54861328 101.31740234 25.54861328 101.31740234 24.38671875 102.59765625 C20.51182546 106.49791709 17.10255708 109.01567225 12 111 C11.67 111.66 11.34 112.32 11 113 C9.03125 113.5625 9.03125 113.5625 6.5 114 C5.59765625 114.165 4.6953125 114.33 3.765625 114.5 C2.85296875 114.665 1.9403125 114.83 1 115 C-3.18862408 115.8537323 -7.26116266 116.74907411 -11.3125 118.125 C-16.11167516 119.68752215 -20.95124831 118.76118483 -25.875 118.1875 C-26.91720703 118.08211914 -26.91720703 118.08211914 -27.98046875 117.97460938 C-32.56145485 117.4354161 -35.90547437 116.24405852 -40 114 C-42.33183607 113.32811503 -44.66501142 112.66084583 -47 112 C-48.485 111.01 -48.485 111.01 -50 110 C-50 109.34 -50 108.68 -50 108 C-50.61101563 107.74605469 -51.22203125 107.49210937 -51.8515625 107.23046875 C-54.30250864 105.82674505 -55.02147881 104.75555775 -56.375 102.3125 C-58.49522304 98.68441648 -60.88908402 95.69509635 -63.765625 92.640625 C-65.16444186 90.78143803 -65.45555871 89.23408666 -66 87 C-66.66 86.67 -67.32 86.34 -68 86 C-68.59355614 83.35139573 -68.74209269 80.70802678 -69 78 C-66.6875 78.5625 -66.6875 78.5625 -64 80 C-62.39672657 83.09202733 -61.21081618 85.88568588 -60.5625 89.3125 C-60.376875 89.869375 -60.19125 90.42625 -60 91 C-59.40058594 91.28230469 -58.80117188 91.56460938 -58.18359375 91.85546875 C-54.9019209 93.57555845 -53.08226608 96.2801074 -50.78125 99.125 C-48.94914512 101.05353145 -47.37410714 101.87330508 -45 103 C-44.505 103.99 -44.505 103.99 -44 105 C-42.515 105.495 -42.515 105.495 -41 106 C-41.495 105.01 -41.495 105.01 -42 104 C-42.039992 102.00039988 -42.04346799 99.99952758 -42 98 C-40.35 98.33 -38.7 98.66 -37 99 C-36.06934867 101.60582371 -35.85082593 102.64198224 -36.9375 105.25 C-37.4634375 106.11625 -37.4634375 106.11625 -38 107 C-34.33708062 109.47785723 -31.3890815 110.48964169 -27 111 C-27.39832031 110.59910156 -27.79664063 110.19820313 -28.20703125 109.78515625 C-31.98807759 105.72812113 -33.77792062 102.32320381 -35.2734375 97.0078125 C-36.23555417 94.34905997 -37.99408395 92.93427619 -40 91 C-39.75 88.75 -39.75 88.75 -39 87 C-36.69 87.66 -34.38 88.32 -32 89 C-32.9590625 87.6696875 -32.9590625 87.6696875 -33.9375 86.3125 C-36 83 -36 83 -37 78 C-33.37 78 -29.74 78 -26 78 C-25.13011146 82.34944269 -24.96404478 83.97128525 -26 88 C-25.14245117 87.99476318 -24.28490234 87.98952637 -23.40136719 87.98413086 C-20.21077727 87.96705848 -17.02021069 87.95453495 -13.82958984 87.94506836 C-12.45035027 87.94004882 -11.07111598 87.93323181 -9.69189453 87.92456055 C-7.70607817 87.9123908 -5.72022251 87.90728367 -3.734375 87.90234375 C-2.54038086 87.89710693 -1.34638672 87.89187012 -0.11621094 87.88647461 C2.46694617 87.98058054 4.55008419 88.23373845 7 89 C6.67 88.01 6.34 87.02 6 86 C5.34 85.67 4.68 85.34 4 85 C4 84.34 4 83.68 4 83 C3.154375 83.03480469 2.30875 83.06960937 1.4375 83.10546875 C-5.46838257 83.27026822 -10.77827949 83.11086026 -17 80 C-17.33 79.34 -17.66 78.68 -18 78 C-16.75 74.4375 -16.75 74.4375 -15 71 C-14.01 70.67 -13.02 70.34 -12 70 C-12 69.34 -12 68.68 -12 68 C-9.525 67.01 -9.525 67.01 -7 66 C-7.165 65.505 -7.33 65.01 -7.5 64.5 C-8.30641834 60.46790828 -8.86987216 55.73974432 -7 52 C-4.93359375 51.3671875 -4.93359375 51.3671875 -2.4375 50.875 C-1.61121094 50.70742188 -0.78492187 50.53984375 0.06640625 50.3671875 C0.70449219 50.24601562 1.34257813 50.12484375 2 50 C1.7172924 45.63681163 1.7172924 45.63681163 1.41918945 41.2746582 C1.1832232 37.90828531 0.9826147 34.55255724 0.8515625 31.1796875 C0.79742187 30.02726562 0.74328125 28.87484375 0.6875 27.6875 C0.63142578 26.11548828 0.63142578 26.11548828 0.57421875 24.51171875 C0.26675639 21.83906371 0.26675639 21.83906371 -2.04296875 20.64453125 C-2.68878906 20.43183594 -3.33460937 20.21914063 -4 20 C-4 16 -4 16 -1.625 13.25 C1 11 1 11 3 11 C2.7834375 10.45730469 2.566875 9.91460937 2.34375 9.35546875 C2.0653125 8.64003906 1.786875 7.92460937 1.5 7.1875 C1.2215625 6.47980469 0.943125 5.77210937 0.65625 5.04296875 C0 3 0 3 0 0 Z " fill="#9B9B9A" transform="translate(77,8)"/>
<path d="M0 0 C42.24 0 84.48 0 128 0 C128 42.24 128 84.48 128 128 C106.22 128 84.44 128 62 128 C64 125 64 125 66.64453125 124.33984375 C67.68996094 124.20707031 68.73539062 124.07429688 69.8125 123.9375 C73.89152348 123.40545346 77.19888298 122.53433793 81 121 C83.3320802 120.92353835 85.66845878 120.90856701 88 121 C88.226875 120.38125 88.45375 119.7625 88.6875 119.125 C90 117 90 117 92.296875 116.10546875 C98.5345976 113.5544926 104.26569785 107.52676718 108 102 C108.67966676 100.33859237 109.34938905 98.67299959 110 97 C110.66 96.67 111.32 96.34 112 96 C112.67939174 94.00428677 113.34561559 92.00405227 114 90 C114.66 89.34 115.32 88.68 116 88 C116.34572133 85.89066226 116.44092449 83.81291732 116.55859375 81.6796875 C117 79 117 79 118.51953125 75.43359375 C120.60752281 70.09504295 120.36482799 64.84636707 120.25 59.1875 C120.24484375 58.15173828 120.2396875 57.11597656 120.234375 56.04882812 C120.22471029 50.43304537 120.22471029 50.43304537 119 45 C117.515 44.505 117.515 44.505 116 44 C115.90203125 43.17757812 115.8040625 42.35515625 115.703125 41.5078125 C114.74369908 34.34520178 113.62472976 27.35940131 110 21 C106.77208445 18.8480563 105.71599191 18.79913557 102 19 C101.87625 18.38511719 101.7525 17.77023438 101.625 17.13671875 C101.315625 15.92435547 101.315625 15.92435547 101 14.6875 C100.814375 13.88699219 100.62875 13.08648437 100.4375 12.26171875 C98.18872503 8.72356465 94.90107448 7.91079651 91 7 C87.72774796 6.5789948 84.48408355 6.44705647 81.1875 6.375 C79.5142081 6.32394609 77.84101791 6.26940784 76.16796875 6.2109375 C75.43860107 6.19337402 74.7092334 6.17581055 73.95776367 6.15771484 C72 6 72 6 69 5 C52.7216478 3.3774845 39.16970444 9.27970608 26.4375 18.9453125 C11.76086421 31.19237007 5.16777017 48.90808857 1 67 C0.67 67 0.34 67 0 67 C0 44.89 0 22.78 0 0 Z " fill="#F8F8F8" transform="translate(0,0)"/>
<path d="M0 0 C0.495 0.515625 0.99 1.03125 1.5 1.5625 C1.995 2.036875 2.49 2.51125 3 3 C5.52391899 2.74524194 5.52391899 2.74524194 8 2 C8.99 2 9.98 2 11 2 C12.125 5.75 12.125 5.75 11 8 C8.49730442 8.60549087 5.99096441 8.95762488 3.4453125 9.33984375 C0.94313204 9.78732738 0.94313204 9.78732738 -0.484375 11.56640625 C-2 13 -2 13 -4.5234375 13.1875 C-5.46445312 13.125625 -6.40546875 13.06375 -7.375 13 C-10.65461958 12.93086441 -12.81231367 12.93610678 -15.9375 14 C-22.70787284 20.56521003 -24.05380787 30.12956417 -24.22949219 39.14257812 C-24.23625977 39.85865234 -24.24302734 40.57472656 -24.25 41.3125 C-24.2593457 42.00666016 -24.26869141 42.70082031 -24.27832031 43.41601562 C-24.25415488 47.24158916 -23.69014265 49.64119957 -22 53 C-22.33203125 55.203125 -22.33203125 55.203125 -23 58 C-24.01812614 67.12866142 -24.78833834 76.14292529 -22 85 C-21.34 85 -20.68 85 -20 85 C-19.67 86.32 -19.34 87.64 -19 89 C-17.515 88.505 -17.515 88.505 -16 88 C-16 85.36 -16 82.72 -16 80 C-16.66 80 -17.32 80 -18 80 C-18.09296549 73.59571047 -18.09220578 67.30797491 -17.375 60.9375 C-16.87872313 55.74358862 -17.52358192 51.32185308 -18.51171875 46.2265625 C-19.62924974 38.84191771 -20.53856706 29.78428719 -17 23 C-13.63324113 20.43063139 -12.33401335 20 -8 20 C-7.855625 20.9075 -7.71125 21.815 -7.5625 22.75 C-7.13485074 25.22086237 -6.64464973 27.58256352 -6 30 C-5.66666667 31.33333333 -5.33333333 32.66666667 -5 34 C-3.35 34.33 -1.7 34.66 0 35 C0.495 36.98 0.495 36.98 1 39 C0.01 39.66 -0.98 40.32 -2 41 C-4.475 39.02 -4.475 39.02 -7 37 C-7 38.32 -7 39.64 -7 41 C-6.01 41.66 -5.02 42.32 -4 43 C-3.8125 46.625 -3.8125 46.625 -4 50 C-1.69 49.67 0.62 49.34 3 49 C3.66 47.02 4.32 45.04 5 43 C15.55808656 44.92710706 15.55808656 44.92710706 20 47 C20 49.64 20 52.28 20 55 C19.37480469 55.07605469 18.74960938 55.15210938 18.10546875 55.23046875 C15.83323224 55.79371072 15.83323224 55.79371072 14.98828125 57.92578125 C14.76527344 58.71339844 14.54226562 59.50101563 14.3125 60.3125 C14.08175781 61.09238281 13.85101563 61.87226562 13.61328125 62.67578125 C13.05806712 64.77993672 12.51754757 66.88627768 12 69 C18.93805182 72.12892533 25.43781278 72.66569599 33 73 C33 73.66 33 74.32 33 75 C34.485 75.495 34.485 75.495 36 76 C36 76.99 36 77.98 36 79 C25.11 78.67 14.22 78.34 3 78 C3 75.03 3 72.06 3 69 C-0.63 68.67 -4.26 68.34 -8 68 C-6.44670381 71.88324049 -5.38431502 73.85703929 -3 77 C-3 77.66 -3 78.32 -3 79 C-5.31 78.67 -7.62 78.34 -10 78 C-9.58848872 80.77770112 -8.98282731 82.02003481 -7.125 84.1875 C-5.10483754 86.86124444 -4.42525021 88.48830012 -3.5 91.625 C-2.38770402 95.33060485 -1.43075116 96.98887001 2 99 C2 99.66 2 100.32 2 101 C0.56138706 100.91253716 -0.87597508 100.80434652 -2.3125 100.6875 C-3.11300781 100.62949219 -3.91351563 100.57148437 -4.73828125 100.51171875 C-7.36272334 99.91793306 -8.30820672 99.04219706 -10 97 C-9.4740625 96.13375 -9.4740625 96.13375 -8.9375 95.25 C-7.85082593 92.64198224 -8.06934867 91.60582371 -9 89 C-10.32 88.67 -11.64 88.34 -13 88 C-12.67 90.64 -12.34 93.28 -12 96 C-13.32 95.67 -14.64 95.34 -16 95 C-16 94.34 -16 93.68 -16 93 C-16.804375 92.731875 -17.60875 92.46375 -18.4375 92.1875 C-19.7059375 91.5996875 -19.7059375 91.5996875 -21 91 C-21.33 90.01 -21.66 89.02 -22 88 C-23.32041176 87.30809321 -24.65551187 86.64387413 -26 86 C-27.59765625 84.44921875 -27.59765625 84.44921875 -29.0625 82.6875 C-29.54847656 82.11386719 -30.03445312 81.54023437 -30.53515625 80.94921875 C-34.0779666 76.23491911 -35.56267238 72.33696495 -36.625 66.5 C-36.86476563 65.2109375 -37.10453125 63.921875 -37.3515625 62.59375 C-37.56554687 61.4078125 -37.77953125 60.221875 -38 59 C-38.19722656 58.13503906 -38.39445312 57.27007812 -38.59765625 56.37890625 C-40.43481198 45.51650002 -36.55738605 34.17987067 -31 25 C-30.68417969 24.1853125 -30.36835938 23.370625 -30.04296875 22.53125 C-25.5886977 11.7208843 -17.54332631 5.10486101 -7.078125 0.7265625 C-4.53443551 -0.16277255 -2.65862874 -0.54736474 0 0 Z " fill="#B3B3B2" transform="translate(48,18)"/>
<path d="M0 0 C0.495 0.515625 0.99 1.03125 1.5 1.5625 C1.995 2.036875 2.49 2.51125 3 3 C5.52391899 2.74524194 5.52391899 2.74524194 8 2 C8.99 2 9.98 2 11 2 C12.125 5.75 12.125 5.75 11 8 C8.49730442 8.60549087 5.99096441 8.95762488 3.4453125 9.33984375 C0.94313204 9.78732738 0.94313204 9.78732738 -0.484375 11.56640625 C-2 13 -2 13 -4.5234375 13.1875 C-5.46445312 13.125625 -6.40546875 13.06375 -7.375 13 C-10.65461958 12.93086441 -12.81231367 12.93610678 -15.9375 14 C-22.70787284 20.56521003 -24.05380787 30.12956417 -24.22949219 39.14257812 C-24.23625977 39.85865234 -24.24302734 40.57472656 -24.25 41.3125 C-24.2593457 42.00666016 -24.26869141 42.70082031 -24.27832031 43.41601562 C-24.25415488 47.24158916 -23.69014265 49.64119957 -22 53 C-22.328125 55.203125 -22.328125 55.203125 -23 58 C-24.14885766 67.58668615 -24.74387784 75.95229522 -21 85 C-21.40625 87.2265625 -21.40625 87.2265625 -22 89 C-30.07246597 83.00331099 -34.82981304 76.3636646 -36.625 66.5 C-36.86476563 65.2109375 -37.10453125 63.921875 -37.3515625 62.59375 C-37.56554687 61.4078125 -37.77953125 60.221875 -38 59 C-38.19722656 58.13503906 -38.39445312 57.27007812 -38.59765625 56.37890625 C-40.43481198 45.51650002 -36.55738605 34.17987067 -31 25 C-30.68417969 24.1853125 -30.36835938 23.370625 -30.04296875 22.53125 C-25.5886977 11.7208843 -17.54332631 5.10486101 -7.078125 0.7265625 C-4.53443551 -0.16277255 -2.65862874 -0.54736474 0 0 Z " fill="#D9D9D8" transform="translate(48,18)"/>
<path d="M0 0 C3.39724899 2.26483266 3.4820311 2.74933949 4.4375 6.5 C7.16629064 16.28988806 10.81143604 26.8670278 18.1875 34.1640625 C20 36 20 36 20 38 C20.8971875 38.433125 20.8971875 38.433125 21.8125 38.875 C24 40 24 40 27 42 C27 42.66 27 43.32 27 44 C30.51245739 45.96697614 34.13751467 46.91579359 38 48 C38.72832031 48.33 39.45664062 48.66 40.20703125 49 C44.50502664 50.53886268 48.95341809 50.78166299 53.46875 51.2109375 C55.3205155 51.40983083 57.16224814 51.6979038 59 52 C59.33 52.66 59.66 53.32 60 54 C40.2 54 20.4 54 0 54 C0 36.18 0 18.36 0 0 Z " fill="#F8F8F8" transform="translate(0,74)"/>
<path d="M0 0 C3.46769356 -0.45627547 6.61064804 0.22529098 10 1 C10.95024979 4.69541586 10.95024979 7.30458414 10 11 C8.5 9.625 8.5 9.625 7 8 C7 7.34 7 6.68 7 6 C3.16825157 7.10694955 0.56929399 7.91397649 -2 11 C-3.33188881 13.89463835 -4.14031247 16.93586232 -5 20 C-5.22042969 20.71929687 -5.44085938 21.43859375 -5.66796875 22.1796875 C-7.85487988 30.66314141 -6.69558194 39.37102404 -6 48 C-7.485 48.495 -7.485 48.495 -9 49 C-9 50.32 -9 51.64 -9 53 C-8.34 53 -7.68 53 -7 53 C-7 53.66 -7 54.32 -7 55 C-5.02 55.33 -3.04 55.66 -1 56 C-0.67 56.99 -0.34 57.98 0 59 C2.31 59 4.62 59 7 59 C5.87548273 61.9719385 4.77706209 64.33440687 3 67 C0.58094761 66.56802636 -0.76831331 66.21521876 -2.59375 64.51953125 C-6.14040169 62.27984374 -9.62834467 62.29632816 -13.75 62 C-20.03096028 61.53939625 -25.21618167 60.59364051 -31 58 C-31.33 57.34 -31.66 56.68 -32 56 C-30.75 52.4375 -30.75 52.4375 -29 49 C-27.515 48.505 -27.515 48.505 -26 48 C-26 47.34 -26 46.68 -26 46 C-24.35 45.34 -22.7 44.68 -21 44 C-21.165 43.505 -21.33 43.01 -21.5 42.5 C-22.30641834 38.46790828 -22.86987216 33.73974432 -21 30 C-18.93359375 29.3671875 -18.93359375 29.3671875 -16.4375 28.875 C-15.61121094 28.70742188 -14.78492187 28.53984375 -13.93359375 28.3671875 C-13.29550781 28.24601562 -12.65742187 28.12484375 -12 28 C-11.97494385 27.43490723 -11.9498877 26.86981445 -11.92407227 26.28759766 C-11.80820044 23.73316258 -11.68543463 21.1791045 -11.5625 18.625 C-11.52318359 17.73554687 -11.48386719 16.84609375 -11.44335938 15.9296875 C-11.40146484 15.07890625 -11.35957031 14.228125 -11.31640625 13.3515625 C-11.27974854 12.56604004 -11.24309082 11.78051758 -11.20532227 10.97119141 C-11 9 -11 9 -10 7 C-8.88625 6.54625 -7.7725 6.0925 -6.625 5.625 C-2.98038668 4.34571013 -2.98038668 4.34571013 -1.375 1.8125 C-0.92125 1.214375 -0.4675 0.61625 0 0 Z " fill="#6D6D6D" transform="translate(91,30)"/>
<path d="M0 0 C0.51511433 5.40870043 -0.96703327 7.62895971 -4 12 C-4.74259349 14.31029085 -5.411438 16.645752 -6 19 C-6.65572791 21.00361307 -7.31875294 23.00491933 -8 25 C-7.401875 25.103125 -6.80375 25.20625 -6.1875 25.3125 C-3.61005181 26.12255514 -2.56936425 26.80289005 -1 29 C-0.8125 31.6875 -0.8125 31.6875 -1 34 C-0.01 34 0.98 34 2 34 C2.226875 33.401875 2.45375 32.80375 2.6875 32.1875 C4.35611784 29.40647027 6.16952367 28.51879218 9 27 C9.99 26.34 10.98 25.68 12 25 C12.99 25 13.98 25 15 25 C14.505 27.475 14.505 27.475 14 30 C12.02 30.66 10.04 31.32 8 32 C8 32.66 8 33.32 8 34 C6.5 35.625 6.5 35.625 5 37 C7.91634129 37.2502157 7.91634129 37.2502157 11 37 C11.66 36.01 12.32 35.02 13 34 C13.66 34 14.32 34 15 34 C14.16876451 40.56238541 13.28079906 46.4021407 9.9921875 52.19921875 C8.80658139 54.24057725 8.80658139 54.24057725 7.6875 57.625 C5.82886937 61.34226126 3.96666993 63.06741532 0.76171875 65.59375 C-1.21539969 67.11258443 -1.21539969 67.11258443 -3.5625 69.625 C-9.72930126 75.63367815 -15.79155887 77.21693245 -24 79 C-24.85851562 79.20753906 -25.71703125 79.41507812 -26.6015625 79.62890625 C-30.47228492 80.55451379 -33.98888863 81.25878138 -38 81 C-38.33 79.35 -38.66 77.7 -39 76 C-36.25312119 75.41732874 -33.53435132 74.93731652 -30.75 74.5625 C-27.85960536 74.1289408 -24.99426967 73.67608195 -22.125 73.125 C-20.98417969 72.91230469 -20.98417969 72.91230469 -19.8203125 72.6953125 C-19.21960938 72.46585937 -18.61890625 72.23640625 -18 72 C-17.505 70.515 -17.505 70.515 -17 69 C-15.109375 68.4453125 -15.109375 68.4453125 -12.75 68.125 C-8.12288421 67.25098924 -6.04969056 65.67756803 -3 62 C-2.443125 61.525625 -1.88625 61.05125 -1.3125 60.5625 C0.24800014 58.92054705 0.24800014 58.92054705 0.875 55.9375 C2 53 2 53 4.625 51.625 C5.40875 51.41875 6.1925 51.2125 7 51 C7 49.02 7 47.04 7 45 C4.56282742 45.27034634 4.56282742 45.27034634 2 46 C1.34 46.99 0.68 47.98 0 49 C-3.125 49.1875 -3.125 49.1875 -6 49 C-6 48.34 -6 47.68 -6 47 C-7.98 46.67 -9.96 46.34 -12 46 C-12 45.34 -12 44.68 -12 44 C-12.66 44 -13.32 44 -14 44 C-14 42.68 -14 41.36 -14 40 C-13.01 39.505 -13.01 39.505 -12 39 C-11.90742916 34.83431199 -12.13654511 30.94466169 -12.6875 26.8125 C-13.33800532 20.48325902 -11.85919294 15.01874325 -10 9 C-9.34 9 -8.68 9 -8 9 C-7.731875 7.88625 -7.46375 6.7725 -7.1875 5.625 C-5.74253552 1.21405581 -4.71247416 0 0 0 Z " fill="#B4B4B3" transform="translate(96,39)"/>
<path d="M0 0 C15.47381133 -0.38630874 15.47381133 -0.38630874 21 2 C23.56616632 5.84924948 23.55097676 8.4349304 24 13 C24.99 13.33 25.98 13.66 27 14 C28.17530292 34.7034129 28.17530292 34.7034129 22.5078125 42.02734375 C20.05980413 45.230049 18.68381915 49.03384895 18 53 C18.33 53.66 18.66 54.32 19 55 C22.79588866 54.45773019 24.47211993 52.79872437 27 50 C26.44299928 53.23060419 25.70784878 55.0658223 23 57 C20.3125 57.1875 20.3125 57.1875 18 57 C17.67 56.01 17.34 55.02 17 54 C15.515 53.505 15.515 53.505 14 53 C14 53.99 14 54.98 14 56 C13.01 56 12.02 56 11 56 C10.875 53.625 10.875 53.625 11 51 C11.66 50.34 12.32 49.68 13 49 C13.48704464 46.98688215 13.9719229 44.97310211 14.4296875 42.953125 C15.13864972 40.52517218 16.47229652 38.99265671 18 37 C18.72045367 33.84881675 18.72045367 33.84881675 19 31 C16.54368999 31.49547543 16.54368999 31.49547543 14 33 C12.65223022 35.27962623 11.88635784 37.48087772 11 40 C10 37 10 37 10.6875 34.5625 C12.15510434 31.69717723 13.44809276 29.96861415 16 28 C18.75 27.75 18.75 27.75 21 28 C21.66 29.32 22.32 30.64 23 32 C23.79953138 28.71303767 24.09658936 27.28976808 23 24 C19.9770616 23.34761372 17.09840276 22.85450978 14 23 C11.75808599 25.32321702 11.75808599 25.32321702 10 28 C8.02 28.33 6.04 28.66 4 29 C3.67 33.95 3.34 38.9 3 44 C0.84097093 40.76145639 0.79092093 40.06879253 0.9375 36.375 C0.9935443 32.90025344 1.00249361 29.4675789 0.75 26 C0.70359375 25.278125 0.6571875 24.55625 0.609375 23.8125 C0.14460682 21.78721348 0.14460682 21.78721348 -2.046875 20.75 C-2.69140625 20.5025 -3.3359375 20.255 -4 20 C-4 16 -4 16 -1.625 13.25 C1 11 1 11 3 11 C2.7834375 10.45730469 2.566875 9.91460937 2.34375 9.35546875 C2.0653125 8.64003906 1.786875 7.92460937 1.5 7.1875 C1.2215625 6.47980469 0.943125 5.77210937 0.65625 5.04296875 C0 3 0 3 0 0 Z " fill="#969696" transform="translate(77,8)"/>
<path d="M0 0 C0.99 0.33 1.98 0.66 3 1 C3.32595573 9.14889336 3.32595573 9.14889336 1.875 12.9375 C0.56462361 17.52381738 1.8335148 21.45968069 3 26 C0.2501317 25.57694334 -1.58875473 25.29081652 -4 24 C-5.77424322 21.4945845 -6.92627305 18.86771794 -8 16 C-10.43717258 16.27034634 -10.43717258 16.27034634 -13 17 C-13.66 17.99 -14.32 18.98 -15 20 C-15.66 20 -16.32 20 -17 20 C-16.67 24.29 -16.34 28.58 -16 33 C-17.32 33 -18.64 33 -20 33 C-21.60355101 29.49223216 -22.22036864 26.85645121 -22 23 C-22.66 23 -23.32 23 -24 23 C-24.33 22.34 -24.66 21.68 -25 21 C-25.5775 21.309375 -26.155 21.61875 -26.75 21.9375 C-28.84294184 22.92583364 -30.74535275 23.5168613 -33 24 C-35.0855584 32.84276761 -34.40162876 42.18835475 -32.875 51.0625 C-31.33707958 61.08034273 -32.79135151 71.00055778 -34 81 C-33.34 81 -32.68 81 -32 81 C-31.67 83.64 -31.34 86.28 -31 89 C-32.98 89.495 -32.98 89.495 -35 90 C-35.33 88.68 -35.66 87.36 -36 86 C-36.66 86 -37.32 86 -38 86 C-42.22843517 76.86658003 -41.65902959 65.90619295 -39.328125 56.203125 C-38.91305649 53.41623643 -39.75179821 52.48739129 -41 50 C-41.22118354 47.44920802 -41.33295893 45.04833981 -41.3125 42.5 C-41.30831055 41.79311035 -41.30412109 41.0862207 -41.29980469 40.35791016 C-41.1152655 31.66297355 -39.87353316 22.73728803 -34 16 C-30.57213375 12.88375796 -27.93787419 12.91357805 -23.5 13.0625 C-18.44088498 13.23136232 -16.84452646 12.32499586 -13 9 C-10.24213107 8.64616021 -7.79482557 8.8105203 -5 9 C-5.33 9.66 -5.66 10.32 -6 11 C-8.06640625 11.6328125 -8.06640625 11.6328125 -10.5625 12.125 C-11.38878906 12.29257812 -12.21507813 12.46015625 -13.06640625 12.6328125 C-13.70449219 12.75398438 -14.34257813 12.87515625 -15 13 C-13.39272673 12.77082032 -11.78912584 12.51579198 -10.1875 12.25 C-9.29417969 12.11078125 -8.40085938 11.9715625 -7.48046875 11.828125 C-4.4248647 10.80798633 -3.59764874 9.75594407 -2 7 C-1.26739841 4.68652128 -0.588562 2.354248 0 0 Z " fill="#989898" transform="translate(64,17)"/>
<path d="M0 0 C1.32 0 2.64 0 4 0 C4.10957031 0.680625 4.21914062 1.36125 4.33203125 2.0625 C5.33211067 8.17680669 6.38630037 14.28045047 7.5 20.375 C7.61835205 21.04015625 7.7367041 21.7053125 7.85864258 22.390625 C8.40931201 25.36535993 9.04894166 28.13319123 10.09375 30.9765625 C12.0823736 37.61102228 10.88299707 43.81977953 9.25 50.375 C9.06735596 51.12031982 8.88471191 51.86563965 8.6965332 52.63354492 C5.50355213 65.26401673 -0.09660705 79.09807376 -10 88 C-12.375 89.125 -12.375 89.125 -15 90 C-19.77453982 92.62631783 -19.77453982 92.62631783 -24 96 C-25.68608966 96.07205511 -27.37500659 96.08386068 -29.0625 96.0625 C-30.44115234 96.04896484 -30.44115234 96.04896484 -31.84765625 96.03515625 C-32.55792969 96.02355469 -33.26820312 96.01195313 -34 96 C-31.38471286 93.88259028 -29.90915403 92.97687557 -26.5625 92.125 C-22.40543521 90.8122427 -20.85824889 89.23433427 -18 86 C-15.39821679 83.3315044 -12.94631336 80.96055675 -9.9375 78.75 C-6.08790257 75.59943433 -4.77461554 71.52526962 -3 67 C-2.29566854 65.49811675 -1.58737579 63.99808439 -0.875 62.5 C1.08866999 58.11653196 2.15285833 53.71501221 3 49 C2.46375 49.680625 1.9275 50.36125 1.375 51.0625 C-1 53 -1 53 -4.25 52.75 C-5.1575 52.5025 -6.065 52.255 -7 52 C-6.67 51.01 -6.34 50.02 -6 49 C-5.34 49 -4.68 49 -4 49 C-4 48.34 -4 47.68 -4 47 C-2.824375 46.6596875 -2.824375 46.6596875 -1.625 46.3125 C1.21875 45.21875 1.21875 45.21875 2.3125 42.375 C2.539375 41.59125 2.76625 40.8075 3 40 C-5.03312276 43.390001 -5.03312276 43.390001 -10 50 C-11.32 49.67 -12.64 49.34 -14 49 C-13.87625 47.9171875 -13.87625 47.9171875 -13.75 46.8125 C-14.07364846 43.17145478 -15.73331008 41.77852313 -18 39 C-17.67 38.01 -17.34 37.02 -17 36 C-16.443125 36.66 -15.88625 37.32 -15.3125 38 C-13.17459305 40.19766188 -13.17459305 40.19766188 -10.4375 40.4375 C-7.50533901 39.91121469 -6.78328035 39.35068773 -5 37 C-4.525625 36.154375 -4.05125 35.30875 -3.5625 34.4375 C-1.86068241 31.78266456 -0.79853576 31.24698616 2 30 C2.31860272 19.82241303 1.35067975 10.06979989 0 0 Z " fill="#8E8E8E" transform="translate(108,24)"/>
<path d="M0 0 C0 1.98 0 3.96 0 6 C-0.94875 6.37125 -1.8975 6.7425 -2.875 7.125 C-6.75787892 9.45472735 -6.66247787 10.82024333 -8 15 C-10.875 17.625 -10.875 17.625 -14 20 C-14.639375 20.763125 -15.27875 21.52625 -15.9375 22.3125 C-18.90476481 24.74026212 -21.29085776 24.28531863 -25 24 C-25.33 25.32 -25.66 26.64 -26 28 C-28.37456165 28.1963696 -30.74920019 28.38231294 -33.125 28.5625 C-33.79015625 28.61857422 -34.4553125 28.67464844 -35.140625 28.73242188 C-39.2728041 29.03625857 -42.94695741 28.85227531 -47 28 C-46.67 27.01 -46.34 26.02 -46 25 C-44.98292969 25.06960937 -44.98292969 25.06960937 -43.9453125 25.140625 C-36.73191888 25.4203688 -31.47552752 24.14646023 -25 21 C-25 19.68 -25 18.36 -25 17 C-39.85 16.505 -39.85 16.505 -55 16 C-54.67 19.63 -54.34 23.26 -54 27 C-51.525 27.99 -51.525 27.99 -49 29 C-49.33 30.32 -49.66 31.64 -50 33 C-53.18108217 32.29309285 -56.10384622 31.5118287 -59 30 C-60.22265625 27.5390625 -60.22265625 27.5390625 -61.0625 24.625 C-62.33936042 20.25896114 -63.73563545 18.13433745 -67 15 C-66.75 12.75 -66.75 12.75 -66 11 C-63.69 11.66 -61.38 12.32 -59 13 C-59.639375 12.113125 -60.27875 11.22625 -60.9375 10.3125 C-63 7 -63 7 -64 2 C-60.37 2 -56.74 2 -53 2 C-52.13011146 6.34944269 -51.96404478 7.97128525 -53 12 C-52.14245117 11.99476318 -51.28490234 11.98952637 -50.40136719 11.98413086 C-47.21077727 11.96705848 -44.02021069 11.95453495 -40.82958984 11.94506836 C-39.45035027 11.94004882 -38.07111598 11.93323181 -36.69189453 11.92456055 C-34.70607817 11.9123908 -32.72022251 11.90728367 -30.734375 11.90234375 C-29.54038086 11.89710693 -28.34638672 11.89187012 -27.11621094 11.88647461 C-24.53305383 11.98058054 -22.44991581 12.23373845 -20 13 C-20.7763932 9.9254644 -20.7763932 9.9254644 -23 8 C-19.4486685 7.59413354 -18.28553971 7.78244593 -15.375 10 C-14.59125 10.66 -13.8075 11.32 -13 12 C-12.01 12 -11.02 12 -10 12 C-8.68 9.69 -7.36 7.38 -6 5 C-8.31 5.33 -10.62 5.66 -13 6 C-13.495 5.01 -13.495 5.01 -14 4 C-12.02 4 -10.04 4 -8 4 C-7.71125 3.360625 -7.4225 2.72125 -7.125 2.0625 C-5.18025038 -1.5028743 -3.54277596 -1.06283279 0 0 Z " fill="#929292" transform="translate(104,84)"/>
<path d="M0 0 C0.495 1.98 0.495 1.98 1 4 C-0.98 4.99 -2.96 5.98 -5 7 C-5.66 6.34 -6.32 5.68 -7 5 C-9.80844766 5.25491274 -9.80844766 5.25491274 -13 6 C-14.134375 6.21398437 -15.26875 6.42796875 -16.4375 6.6484375 C-17.613125 6.88820313 -18.78875 7.12796875 -20 7.375 C-21.175625 7.60960937 -22.35125 7.84421875 -23.5625 8.0859375 C-28.58422294 9.42125928 -32.07193239 10.60789858 -35 15 C-35.928125 15.45375 -36.85625 15.9075 -37.8125 16.375 C-48.30050604 21.72182661 -53.72176041 33.57280769 -58 44 C-58.76570313 45.70349609 -58.76570313 45.70349609 -59.546875 47.44140625 C-61.71203924 53.26117738 -61.8194796 59.35507227 -62.1875 65.5 C-62.26935547 66.70398438 -62.35121094 67.90796875 -62.43554688 69.1484375 C-62.63455365 72.09842021 -62.82239694 75.04866443 -63 78 C-63.66 77.67 -64.32 77.34 -65 77 C-66.11911712 73.64264863 -66.11365586 71.11794614 -66.09765625 67.58203125 C-66.09443359 66.32841797 -66.09121094 65.07480469 -66.08789062 63.78320312 C-66.07951172 62.47287109 -66.07113281 61.16253906 -66.0625 59.8125 C-66.05748317 58.47721519 -66.05292059 57.14192859 -66.04882812 55.80664062 C-66.03702695 52.53771527 -66.02056297 49.26888009 -66 46 C-65.34 46 -64.68 46 -64 46 C-63.83564453 44.96939453 -63.83564453 44.96939453 -63.66796875 43.91796875 C-63.43013672 42.56638672 -63.43013672 42.56638672 -63.1875 41.1875 C-63.03667969 40.29417969 -62.88585937 39.40085938 -62.73046875 38.48046875 C-61.93075541 35.76486464 -61.06649643 34.85123639 -59 33 C-57.80972016 30.40084462 -57.80972016 30.40084462 -57 28 C-56.34 28 -55.68 28 -55 28 C-54.73832031 27.26394531 -54.47664063 26.52789062 -54.20703125 25.76953125 C-50.04317752 16.21557559 -40.9072158 10.61855634 -32 6 C-29.609375 5.28125 -29.609375 5.28125 -28 5 C-28 4.34 -28 3.68 -28 3 C-18.34613668 0.53518383 -9.95441792 -0.40846396 0 0 Z " fill="#767676" transform="translate(71,6)"/>
<path d="M0 0 C0.14695312 0.93779297 0.14695312 0.93779297 0.296875 1.89453125 C0.86498622 4.40841959 0.86498622 4.40841959 4.25 5.6875 C9.98396392 7.61277256 16.0011697 7.73480781 22 8 C22 8.66 22 9.32 22 10 C22.99 10.33 23.98 10.66 25 11 C25 11.99 25 12.98 25 14 C14.11 13.67 3.22 13.34 -8 13 C-8 10.03 -8 7.06 -8 4 C-13.445 3.505 -13.445 3.505 -19 3 C-17.44670381 6.88324049 -16.38431502 8.85703929 -14 12 C-14 12.66 -14 13.32 -14 14 C-16.31 13.67 -18.62 13.34 -21 13 C-20.58848872 15.77770112 -19.98282731 17.02003481 -18.125 19.1875 C-16.10483754 21.86124444 -15.42525021 23.48830012 -14.5 26.625 C-13.38770402 30.33060485 -12.43075116 31.98887001 -9 34 C-9 34.66 -9 35.32 -9 36 C-10.43861294 35.91253716 -11.87597508 35.80434652 -13.3125 35.6875 C-14.51326172 35.60048828 -14.51326172 35.60048828 -15.73828125 35.51171875 C-18.36272334 34.91793306 -19.30820672 34.04219706 -21 32 C-20.649375 31.4225 -20.29875 30.845 -19.9375 30.25 C-18.85082593 27.64198224 -19.06934867 26.60582371 -20 24 C-21.32 23.67 -22.64 23.34 -24 23 C-23.67 25.64 -23.34 28.28 -23 31 C-24.32 30.67 -25.64 30.34 -27 30 C-27 29.34 -27 28.68 -27 28 C-27.804375 27.71125 -28.60875 27.4225 -29.4375 27.125 C-32 26 -32 26 -33 24 C-32.0625 21.875 -32.0625 21.875 -31 20 C-30.67 21.32 -30.34 22.64 -30 24 C-26.9254644 23.2236068 -26.9254644 23.2236068 -25 21 C-24.34 21 -23.68 21 -23 21 C-23.09539063 20.38511719 -23.19078125 19.77023438 -23.2890625 19.13671875 C-23.39992188 18.32847656 -23.51078125 17.52023438 -23.625 16.6875 C-23.74101563 15.88699219 -23.85703125 15.08648437 -23.9765625 14.26171875 C-24 12 -24 12 -22 9 C-21.92094936 6.66800612 -21.91201231 4.33167378 -22 2 C-19.07073378 0.53536689 -16.44743219 0.86817292 -13.1875 0.875 C-11.35251953 0.87113281 -11.35251953 0.87113281 -9.48046875 0.8671875 C-6.50982844 0.98054527 -3.8810519 1.30854754 -1 2 C-0.67 1.34 -0.34 0.68 0 0 Z " fill="#9D9D9C" transform="translate(59,83)"/>
<path d="M0 0 C2.32405886 1.32803364 2.72613923 2.54273416 3.75 5 C4.234375 7.4375 4.234375 7.4375 4.5 10 C4.64695312 11.2684375 4.64695312 11.2684375 4.796875 12.5625 C4.74455315 15.28323611 4.02819456 16.6402562 2.75 19 C2.75 19.99 2.75 20.98 2.75 22 C3.38808594 22.18175781 4.02617188 22.36351563 4.68359375 22.55078125 C5.50988281 22.80214844 6.33617188 23.05351563 7.1875 23.3125 C8.01121094 23.55613281 8.83492187 23.79976562 9.68359375 24.05078125 C10.36550781 24.36402344 11.04742187 24.67726563 11.75 25 C12.08 25.99 12.41 26.98 12.75 28 C15.06 28 17.37 28 19.75 28 C19.09 29.32 18.43 30.64 17.75 32 C17.09 32 16.43 32 15.75 32 C15.75 32.66 15.75 33.32 15.75 34 C15.110625 33.731875 14.47125 33.46375 13.8125 33.1875 C12.801875 32.795625 11.79125 32.40375 10.75 32 C9.85474609 31.63841797 9.85474609 31.63841797 8.94140625 31.26953125 C2.75057655 28.96406159 -3.46245301 28.21989135 -9.9921875 27.52734375 C-13.25 27 -13.25 27 -16.25 25 C-16.04024479 21.32928387 -15.29536326 20.0487655 -12.75 17.3125 C-9.00046553 14.40432449 -4.85984015 13.68635398 -0.25 13 C-0.25 11.68 -0.25 10.36 -0.25 9 C-2.56 9 -4.87 9 -7.25 9 C-7.745 6.525 -7.745 6.525 -8.25 4 C-2.91666667 0 -2.91666667 0 0 0 Z " fill="#454545" transform="translate(78.25,61)"/>
<path d="M0 0 C0.68620031 1.32338632 1.34786461 2.65949948 2 4 C2.37125 4.70125 2.7425 5.4025 3.125 6.125 C4.4240429 10.39328382 4.15477627 14.57167897 4 19 C4.639375 19.103125 5.27875 19.20625 5.9375 19.3125 C6.618125 19.539375 7.29875 19.76625 8 20 C9.55042674 24.65128023 9.22574571 29.31542036 9.25 34.1875 C9.270625 35.20392578 9.29125 36.22035156 9.3125 37.26757812 C9.34545062 43.64764283 8.49053294 48.14596381 6 54 C5.63586647 56.3703692 5.50782939 58.62818314 5.40625 61.01953125 C4.89445296 63.51454181 3.83133401 64.28982295 2 66 C1.32136945 67.9959722 0.65358081 69.99568551 0 72 C-0.99 72.495 -0.99 72.495 -2 73 C-2.42345703 74.11181641 -2.42345703 74.11181641 -2.85546875 75.24609375 C-4.20198391 78.48600223 -5.94213695 80.48497917 -8.3125 83.0625 C-9.07175781 83.89910156 -9.83101562 84.73570313 -10.61328125 85.59765625 C-14.48817454 89.49791709 -17.89744292 92.01567225 -23 94 C-23.33 94.66 -23.66 95.32 -24 96 C-26.21484375 96.59765625 -26.21484375 96.59765625 -28.9375 97.0625 C-32.58772209 97.66805467 -32.58772209 97.66805467 -36 99 C-38.37402501 99.07116382 -40.75000677 99.08409085 -43.125 99.0625 C-45.04699219 99.04896484 -45.04699219 99.04896484 -47.0078125 99.03515625 C-47.99523437 99.02355469 -48.98265625 99.01195313 -50 99 C-50 98.01 -50 97.02 -50 96 C-47.31531083 95.01249341 -44.62766735 94.03487645 -41.9375 93.0625 C-41.18533203 92.78470703 -40.43316406 92.50691406 -39.65820312 92.22070312 C-35.08042602 90.57587412 -30.84031927 89.5078157 -26 89 C-27 91 -27 91 -29.06640625 91.8515625 C-29.89011719 92.10679688 -30.71382812 92.36203125 -31.5625 92.625 C-32.80193359 93.01558594 -32.80193359 93.01558594 -34.06640625 93.4140625 C-34.70449219 93.60742188 -35.34257813 93.80078125 -36 94 C-30.84318198 94.56883831 -30.84318198 94.56883831 -26.375 92.6875 C-25.92125 92.130625 -25.4675 91.57375 -25 91 C-22.04798852 89.42559388 -19.11112334 88.04398632 -16 86.8125 C-4.85979865 80.08196169 0.81702848 63.45081677 3.91015625 51.4765625 C6.06750096 42.06451909 6.70395118 34.39353222 4.125 25.125 C3.7562658 23.72306215 3.38907444 22.32071758 3.0234375 20.91796875 C2.75805176 19.9112915 2.75805176 19.9112915 2.48730469 18.88427734 C0.84286514 12.52566789 -0.28578592 6.57307612 0 0 Z " fill="#858585" transform="translate(112,25)"/>
<path d="M0 0 C2.3125 0.5625 2.3125 0.5625 5 2 C6.60327343 5.09202733 7.78918382 7.88568588 8.4375 11.3125 C8.623125 11.869375 8.80875 12.42625 9 13 C9.59941406 13.28230469 10.19882812 13.56460938 10.81640625 13.85546875 C14.0980791 15.57555845 15.91773392 18.2801074 18.21875 21.125 C20.05085488 23.05353145 21.62589286 23.87330508 24 25 C24.33 25.66 24.66 26.32 25 27 C25.99 27.33 26.98 27.66 28 28 C27.67 27.34 27.34 26.68 27 26 C26.960008 24.00039988 26.95653201 21.99952758 27 20 C28.65 20.33 30.3 20.66 32 21 C32.93065133 23.60582371 33.14917407 24.64198224 32.0625 27.25 C31.5365625 28.11625 31.5365625 28.11625 31 29 C35.18034785 32.18502693 37.71314726 33.58742808 43 33 C43.99 32.67 44.98 32.34 46 32 C46.66 33.32 47.32 34.64 48 36 C45.72113394 38.27886606 39.77596173 37.24808372 36.58740234 37.25537109 C29.62263204 37.16880664 24.89312216 35.92874811 19 32 C19 31.34 19 30.68 19 30 C18.08347656 29.61908203 18.08347656 29.61908203 17.1484375 29.23046875 C14.69749136 27.82674505 13.97852119 26.75555775 12.625 24.3125 C10.50477696 20.68441648 8.11091598 17.69509635 5.234375 14.640625 C3.83555814 12.78143803 3.54444129 11.23408666 3 9 C2.34 8.67 1.68 8.34 1 8 C0.40644386 5.35139573 0.25790731 2.70802678 0 0 Z " fill="#7F7F7F" transform="translate(8,86)"/>
<path d="M0 0 C2 1 2 1 3.2890625 4.75390625 C3.74290711 6.35437592 4.18782245 7.95739755 4.625 9.5625 C4.96917969 10.74295898 4.96917969 10.74295898 5.3203125 11.94726562 C7.59421733 20.15633278 7.30206949 27.13752784 5.25 35.375 C5.06735596 36.12031982 4.88471191 36.86563965 4.6965332 37.63354492 C1.50355213 50.26401673 -4.09660705 64.09807376 -14 73 C-16.375 74.125 -16.375 74.125 -19 75 C-23.77453982 77.62631783 -23.77453982 77.62631783 -28 81 C-29.68608966 81.07205511 -31.37500659 81.08386068 -33.0625 81.0625 C-34.44115234 81.04896484 -34.44115234 81.04896484 -35.84765625 81.03515625 C-36.55792969 81.02355469 -37.26820312 81.01195313 -38 81 C-35.38471286 78.88259028 -33.90915403 77.97687557 -30.5625 77.125 C-26.40543521 75.8122427 -24.85824889 74.23433427 -22 71 C-19.45038906 68.38501442 -16.9845967 65.98807486 -14.09375 63.75 C-8.81662538 59.37112656 -6.04439982 53.02100282 -3 47 C-2.47664063 45.97648437 -1.95328125 44.95296875 -1.4140625 43.8984375 C2.62031002 34.87356948 4.07647759 23.88301954 3 14 C2.34 13.01 1.68 12.02 1 11 C0.5859375 8.30078125 0.5859375 8.30078125 0.375 5.3125 C0.30023438 4.31863281 0.22546875 3.32476562 0.1484375 2.30078125 C0.09945312 1.54152344 0.05046875 0.78226563 0 0 Z " fill="#4B4B4B" transform="translate(112,39)"/>
<path d="M0 0 C2 2 2 2 2 6 C0.33720673 7.0064275 -1.32983484 8.00585407 -3 9 C-4.34689915 11.57099402 -4.34689915 11.57099402 -5 14 C-4.51917969 14.35707031 -4.03835937 14.71414062 -3.54296875 15.08203125 C-1.31575162 17.85054672 -1.48605989 20.18159023 -1.3125 23.6875 C-1.24675781 24.86699219 -1.18101563 26.04648437 -1.11328125 27.26171875 C-1.07589844 28.16535156 -1.03851563 29.06898437 -1 30 C-2.98 30.99 -2.98 30.99 -5 32 C-5 32.66 -5 33.32 -5 34 C-4.175 34.433125 -3.35 34.86625 -2.5 35.3125 C-1.675 35.869375 -0.85 36.42625 0 37 C0.4375 39.5625 0.4375 39.5625 0 42 C-0.66 42.66 -1.32 43.32 -2 44 C-7.56818182 43.43181818 -7.56818182 43.43181818 -9 42 C-8.96691359 40.228373 -8.89743679 38.45739906 -8.8125 36.6875 C-8.71225658 30.68721511 -10.06892509 26.17250812 -12.41796875 20.69140625 C-13.19873643 17.08101072 -11.94736002 16.02975187 -10 13 C-9.84261286 10.1186047 -10.06073601 7.39759151 -10.28515625 4.5234375 C-10 2 -10 2 -8.19140625 0.15234375 C-5.11917955 -1.46317653 -3.27647871 -0.92596137 0 0 Z " fill="#D9D9D8" transform="translate(78,13)"/>
<path d="M0 0 C0.66 0.33 1.32 0.66 2 1 C1.52949219 1.60328125 1.05898438 2.2065625 0.57421875 2.828125 C-0.04839844 3.62734375 -0.67101562 4.4265625 -1.3125 5.25 C-1.92738281 6.03890625 -2.54226562 6.8278125 -3.17578125 7.640625 C-3.77777344 8.41921875 -4.37976563 9.1978125 -5 10 C-5.54140625 10.68320312 -6.0828125 11.36640625 -6.640625 12.0703125 C-8.31682175 14.44974121 -9.20772192 16.9770015 -10.17578125 19.70703125 C-11.39906593 23.11019763 -12.77540521 26.44935317 -14.1328125 29.80078125 C-17.78569278 39.06461728 -17.51275329 48.10083428 -14.69140625 57.5390625 C-14 60 -14 60 -14 63 C-15.65 62.34 -17.3 61.68 -19 61 C-18.67 63.64 -18.34 66.28 -18 69 C-17.01 69.33 -16.02 69.66 -15 70 C-14.71125 70.9075 -14.4225 71.815 -14.125 72.75 C-12.7904646 76.6053245 -10.9274392 78.21536272 -8 81 C-6.94712186 82.63377642 -5.9272999 84.29181597 -5 86 C-5.99 86.495 -5.99 86.495 -7 87 C-14.7422169 77.07408089 -19.76184587 68.53660532 -23.25097656 56.45800781 C-24.42346442 52.3423123 -24.42346442 52.3423123 -27 49 C-27.71730802 42.40076619 -25.74467349 36.32444139 -24 30 C-23.34 30 -22.68 30 -22 30 C-21.97494385 30.74161377 -21.9498877 31.48322754 -21.92407227 32.24731445 C-21.80813868 35.60255328 -21.68540015 38.95750944 -21.5625 42.3125 C-21.52318359 43.47974609 -21.48386719 44.64699219 -21.44335938 45.84960938 C-21.40146484 46.96787109 -21.35957031 48.08613281 -21.31640625 49.23828125 C-21.27974854 50.26993408 -21.24309082 51.30158691 -21.20532227 52.36450195 C-21.09838758 55.10748258 -21.09838758 55.10748258 -20 58 C-19.96559814 57.31599121 -19.93119629 56.63198242 -19.89575195 55.92724609 C-18.72214501 34.28557014 -15.31593206 16.43661001 0 0 Z " fill="#979797" transform="translate(27,25)"/>
<path d="M0 0 C0.99 0.33 1.98 0.66 3 1 C3.32595573 9.14889336 3.32595573 9.14889336 1.875 12.9375 C0.56462361 17.52381738 1.8335148 21.45968069 3 26 C0.2501317 25.57694334 -1.58875473 25.29081652 -4 24 C-5.77424322 21.4945845 -6.92627305 18.86771794 -8 16 C-10.43717258 16.27034634 -10.43717258 16.27034634 -13 17 C-13.66 17.99 -14.32 18.98 -15 20 C-15.66 20 -16.32 20 -17 20 C-16.67 24.29 -16.34 28.58 -16 33 C-17.32 33 -18.64 33 -20 33 C-21.69144945 29.41810705 -22.05672871 27.75725762 -21 24 C-21.2475 23.195625 -21.495 22.39125 -21.75 21.5625 C-22 19 -22 19 -19.875 16.3125 C-15.97983225 13.17943029 -13.34364597 12.13899786 -8.375 11.625 C-5.02700848 11.30800188 -5.02700848 11.30800188 -3.1875 9.375 C-1.67074973 6.34149946 -0.82088317 3.28353267 0 0 Z " fill="#6F6F6F" transform="translate(64,17)"/>
<path d="M0 0 C3.58362776 0.13910487 7.16681498 0.28745413 10.75 0.4375 C11.76578125 0.47681641 12.7815625 0.51613281 13.828125 0.55664062 C15.29765625 0.61948242 15.29765625 0.61948242 16.796875 0.68359375 C18.14797363 0.73858032 18.14797363 0.73858032 19.52636719 0.79467773 C21.79596339 0.98306407 23.81562887 1.37366501 26 2 C25.67 3.98 25.34 5.96 25 8 C21.25 9.125 21.25 9.125 19 8 C16.28239892 7.92818179 13.59140612 7.90700494 10.875 7.9375 C9.74384766 7.94426758 9.74384766 7.94426758 8.58984375 7.95117188 C6.72652873 7.96296501 4.86325445 7.98090058 3 8 C3.20625 9.093125 3.4125 10.18625 3.625 11.3125 C4 15 4 15 2 18 C1.97360171 20.29714187 1.97360171 20.29714187 2.375 22.6875 C2.48585938 23.49574219 2.59671875 24.30398437 2.7109375 25.13671875 C2.80632813 25.75160156 2.90171875 26.36648437 3 27 C1.68 27 0.36 27 -1 27 C-1.83355218 21.89866063 -2.18264946 16.97832992 -2.1875 11.8125 C-2.19974609 11.11447266 -2.21199219 10.41644531 -2.22460938 9.69726562 C-2.23556187 5.86023995 -1.85237022 3.33077916 0 0 Z " fill="#EEEEED" transform="translate(34,77)"/>
<path d="M0 0 C-0.309375 0.598125 -0.61875 1.19625 -0.9375 1.8125 C-2.10209704 4.08956772 -2.10209704 4.08956772 -3 7 C-3.66 7 -4.32 7 -5 7 C-7.0855584 15.84276761 -6.40162876 25.18835475 -4.875 34.0625 C-3.33707958 44.08034273 -4.79135151 54.00055778 -6 64 C-5.34 64 -4.68 64 -4 64 C-3.67 66.64 -3.34 69.28 -3 72 C-4.98 72.495 -4.98 72.495 -7 73 C-9.51313731 66.20854559 -10.32284288 59.74714365 -10.375 52.5625 C-10.38853516 51.78148926 -10.40207031 51.00047852 -10.41601562 50.19580078 C-10.38135723 45.75086184 -9.94521319 43.33147065 -7 40 C-7.70339566 37.49034386 -7.70339566 37.49034386 -9 35 C-9.75762601 32.24499632 -10.13408726 30.53634902 -9.4375 27.75 C-8.97546958 24.8458088 -9.31435567 23.6361037 -10.125 20.875 C-11.53140021 15.15372567 -10.29494124 10.34357166 -8 5 C-5.80069998 1.72580094 -4.12415167 0 0 0 Z " fill="#6D6D6D" transform="translate(36,34)"/>
<path d="M0 0 C0.99 0 1.98 0 3 0 C3.5342273 2.85223051 4.05263166 5.70590138 4.5625 8.5625 C4.71396484 9.36236328 4.86542969 10.16222656 5.02148438 10.98632812 C5.88659557 15.91545003 6.14691333 20.04278573 5 25 C3.1875 27.0625 3.1875 27.0625 1 29 C-0.35162508 30.98768394 -1.68693567 32.9866347 -3 35 C-3.66 35.66 -4.32 36.32 -5 37 C-7.125 36.625 -7.125 36.625 -9 36 C-9.625 33.625 -9.625 33.625 -10 31 C-9.34 30.34 -8.68 29.68 -8 29 C-7.26907044 27.30557239 -6.54351963 25.60838336 -5.859375 23.89453125 C-5 22 -5 22 -2.875 19 C0.43523918 13.52926119 -0.16036211 6.23006809 0 0 Z " fill="#EFEFEE" transform="translate(104,27)"/>
<path d="M0 0 C0.99 0 1.98 0 3 0 C2.67 1.65 2.34 3.3 2 5 C1.34 5 0.68 5 0 5 C-0.226875 5.556875 -0.45375 6.11375 -0.6875 6.6875 C-2.37550036 9.66159588 -4.46676517 11.72008865 -7 14 C-7.66 14 -8.32 14 -9 14 C-9.2475 14.763125 -9.495 15.52625 -9.75 16.3125 C-11.17450764 19.37519142 -12.17157952 20.22435353 -15 22 C-17.69921875 22.87890625 -17.69921875 22.87890625 -20.6875 23.5625 C-22.27304688 23.92988281 -22.27304688 23.92988281 -23.890625 24.3046875 C-25.42976563 24.64886719 -25.42976563 24.64886719 -27 25 C-27.86109375 25.20882812 -28.7221875 25.41765625 -29.609375 25.6328125 C-33.47770561 26.55446174 -36.9920174 27.25857952 -41 27 C-41.495 24.525 -41.495 24.525 -42 22 C-39.25312119 21.41732874 -36.53435132 20.93731652 -33.75 20.5625 C-30.85960536 20.1289408 -27.99426967 19.67608195 -25.125 19.125 C-24.36445312 18.98320313 -23.60390625 18.84140625 -22.8203125 18.6953125 C-21.91925781 18.35113281 -21.91925781 18.35113281 -21 18 C-20.67 17.01 -20.34 16.02 -20 15 C-18.109375 14.4453125 -18.109375 14.4453125 -15.75 14.125 C-11.12288421 13.25098924 -9.04969056 11.67756803 -6 8 C-5.46375 7.505 -4.9275 7.01 -4.375 6.5 C-2.81866577 4.91800652 -2.81866577 4.91800652 -1.5 2.3125 C-1.005 1.549375 -0.51 0.78625 0 0 Z " fill="#C0C0BF" transform="translate(99,93)"/>
<path d="M0 0 C0.495 1.98 0.495 1.98 1 4 C-0.98 4.99 -2.96 5.98 -5 7 C-5.66 6.34 -6.32 5.68 -7 5 C-9.81566946 5.26407557 -9.81566946 5.26407557 -13 6 C-14.64935547 6.28617188 -14.64935547 6.28617188 -16.33203125 6.578125 C-22.94347228 7.85440767 -28.41012603 9.23570836 -34.03515625 13.01171875 C-36.47532105 14.23907798 -38.304904 14.17282245 -41 14 C-41 13.01 -41 12.02 -41 11 C-39.21118264 9.99491199 -37.41885304 8.99607264 -35.625 8 C-34.62726562 7.443125 -33.62953125 6.88625 -32.6015625 6.3125 C-30 5 -30 5 -28 5 C-28 4.34 -28 3.68 -28 3 C-18.34613668 0.53518383 -9.95441792 -0.40846396 0 0 Z M-44 14 C-43.34 14.66 -42.68 15.32 -42 16 C-42.99 16 -43.98 16 -45 16 C-44.67 15.34 -44.34 14.68 -44 14 Z " fill="#686868" transform="translate(71,6)"/>
<path d="M0 0 C0.66 1.32 1.32 2.64 2 4 C2.66 2.68 3.32 1.36 4 0 C4.33 0 4.66 0 5 0 C4.554912 5.5636 3.04974143 8.42538785 0 13 C-0.38749213 15.32495277 -0.72982839 17.65851268 -1 20 C-1.66 20.66 -2.32 21.32 -3 22 C-2.67958603 24.60280568 -2.67958603 24.60280568 -2 27 C1.79588866 26.45773019 3.47211993 24.79872437 6 22 C5.44299928 25.23060419 4.70784878 27.0658223 2 29 C-0.6875 29.1875 -0.6875 29.1875 -3 29 C-3.33 28.01 -3.66 27.02 -4 26 C-4.99 25.67 -5.98 25.34 -7 25 C-7 25.99 -7 26.98 -7 28 C-7.99 28 -8.98 28 -10 28 C-10.125 25.625 -10.125 25.625 -10 23 C-9.34 22.34 -8.68 21.68 -8 21 C-7.51295536 18.98688215 -7.0280771 16.97310211 -6.5703125 14.953125 C-5.86135028 12.52517218 -4.52770348 10.99265671 -3 9 C-2.27954633 5.84881675 -2.27954633 5.84881675 -2 3 C-4.45631001 3.49547543 -4.45631001 3.49547543 -7 5 C-8.34776978 7.27962623 -9.11364216 9.48087772 -10 12 C-11 9 -11 9 -10.3125 6.5625 C-7.80548129 1.66784442 -5.66574345 -0.62952705 0 0 Z " fill="#9D9D9C" transform="translate(98,36)"/>
<path d="M0 0 C3.16115776 1.36983503 3.9927092 1.9890638 6 5 C7.04729149 10.49828034 4.62713078 13.73637102 1.703125 18.14453125 C-0.20357065 20.22177995 -1.19604568 20.83472627 -4 21 C-6 19 -6 19 -6.25 15.75 C-6.00879145 12.1318718 -5.31162801 9.36104678 -4 6 C-8.54170996 7.90884692 -8.54170996 7.90884692 -13 10 C-12.25 8.0625 -12.25 8.0625 -11 6 C-8.875 5.25 -8.875 5.25 -7 5 C-6.67 3.68 -6.34 2.36 -6 1 C-4.68 1.66 -3.36 2.32 -2 3 C-1.34 2.01 -0.68 1.02 0 0 Z " fill="#B6B6B5" transform="translate(87,14)"/>
<path d="M0 0 C5.20294009 0.04238648 9.58514748 0.11915459 14.375 2.1875 C16.94116632 6.03674948 16.92597676 8.6224304 17.375 13.1875 C18.365 13.5175 19.355 13.8475 20.375 14.1875 C19.715 15.8375 19.055 17.4875 18.375 19.1875 C17.715 19.1875 17.055 19.1875 16.375 19.1875 C16.375 18.5275 16.375 17.8675 16.375 17.1875 C15.446875 16.8471875 15.446875 16.8471875 14.5 16.5 C11.72015555 14.78303725 11.56230254 13.190677 10.375 10.1875 C8.375 7.1875 8.375 7.1875 5.375 5.1875 C2.55988506 5.1105242 0.17078714 5.64637991 -2.625 6.1875 C-5.625 5.1875 -5.625 5.1875 -6.8125 3.125 C-7.2146875 2.1659375 -7.2146875 2.1659375 -7.625 1.1875 C-5.73007035 -0.70742965 -2.52265247 0.01327712 0 0 Z " fill="#717171" transform="translate(83.625,7.8125)"/>
<path d="M0 0 C-0.01571045 1.05127075 -0.01571045 1.05127075 -0.03173828 2.1237793 C-0.07341668 5.31164945 -0.09936385 8.49946215 -0.125 11.6875 C-0.14175781 12.79029297 -0.15851562 13.89308594 -0.17578125 15.02929688 C-0.18544922 16.6293457 -0.18544922 16.6293457 -0.1953125 18.26171875 C-0.20578613 19.24100342 -0.21625977 20.22028809 -0.22705078 21.22924805 C-0.13375476 24.0484169 -0.13375476 24.0484169 1.07470703 26.67114258 C2 29 2 29 1 32 C-2.0269812 29.98201253 -3.86506738 28.49937557 -5 25 C-5.15496153 22.3088348 -5.09001607 19.700482 -5 17 C-5.99 17 -6.98 17 -8 17 C-8.6875 13.6875 -8.6875 13.6875 -9 10 C-7.5625 8.0625 -7.5625 8.0625 -6 7 C-6.33 6.01 -6.66 5.02 -7 4 C-9.01508358 3.26676204 -9.01508358 3.26676204 -11 3 C-11 2.01 -11 1.02 -11 0 C-6.97959015 -0.69584017 -3.91736581 -1.1700097 0 0 Z " fill="#FAFAFA" transform="translate(23,72)"/>
<path d="M0 0 C8.91 0 17.82 0 27 0 C26 4 26 4 23 6 C20.16678205 6.25158747 17.4002688 6.41898897 14.5625 6.5 C7.97226205 6.51646301 7.97226205 6.51646301 2 9 C0.4375 7.3125 0.4375 7.3125 -1 5 C-0.67 3.35 -0.34 1.7 0 0 Z " fill="#F5F5F4" transform="translate(51,101)"/>
<path d="M0 0 C0.66 0.33 1.32 0.66 2 1 C2.28919928 2.99226169 2.57264551 4.98722182 2.75390625 6.9921875 C2.9575063 9.20329268 2.9575063 9.20329268 4 12 C3.01 12.495 3.01 12.495 2 13 C0.9872962 16.33635192 0.9872962 16.33635192 1 20 C2.87508162 22.2085766 2.87508162 22.2085766 5 24 C5 25.32 5 26.64 5 28 C2.34771188 29.07525194 -0.28368454 30.09456151 -3 31 C-4.09857724 24.8323971 -4.11539104 18.81584877 -4.0625 12.5625 C-4.05798828 11.54478516 -4.05347656 10.52707031 -4.04882812 9.47851562 C-4.03712437 6.98561491 -4.02072848 4.49283926 -4 2 C-2.125 0.9375 -2.125 0.9375 0 0 Z " fill="#FAFAFA" transform="translate(37,39)"/>
<path d="M0 0 C2.00377361 0.05416625 4.00563754 0.18184111 6.00390625 0.33984375 C7.82631836 0.4800293 7.82631836 0.4800293 9.68554688 0.62304688 C10.96494141 0.72681641 12.24433594 0.83058594 13.5625 0.9375 C14.84576172 1.03740234 16.12902344 1.13730469 17.45117188 1.24023438 C20.63451809 1.48874839 23.81739258 1.74222363 27 2 C27 2.66 27 3.32 27 4 C27.99 4.33 28.98 4.66 30 5 C30 5.99 30 6.98 30 8 C19.77 7.67 9.54 7.34 -1 7 C-1 1 -1 1 0 0 Z " fill="#C7C7C6" transform="translate(54,89)"/>
<path d="M0 0 C0.99 0.33 1.98 0.66 3 1 C3.144375 1.9075 3.28875 2.815 3.4375 3.75 C3.86514926 6.22086237 4.35535027 8.58256352 5 11 C5.33333333 12.33333333 5.66666667 13.66666667 6 15 C7.65 15.33 9.3 15.66 11 16 C11.33 17.32 11.66 18.64 12 20 C11.01 20.66 10.02 21.32 9 22 C7.35 20.68 5.7 19.36 4 18 C4 19.32 4 20.64 4 22 C4.99 22.66 5.98 23.32 7 24 C7.3125 27 7.3125 27 7 30 C4.73030256 32.26969744 3.02604513 32.99131829 0 34 C-1.32 34 -2.64 34 -4 34 C-5.05838127 27.99139451 -5.11662571 22.15372439 -5.0625 16.0625 C-5.05798828 15.09248047 -5.05347656 14.12246094 -5.04882812 13.12304688 C-5.0371315 10.7486324 -5.02074086 8.37434979 -5 6 C-4.67 6 -4.34 6 -4 6 C-3.67 14.91 -3.34 23.82 -3 33 C-1.68 32.01 -0.36 31.02 1 30 C2.32 30 3.64 30 5 30 C4.58267754 27.07874275 4.17650704 26.15055012 1.875 24.1875 C0 22 0 22 0.25 18.25 C0.4975 17.1775 0.745 16.105 1 15 C1.99 14.67 2.98 14.34 4 14 C3.34 13.01 2.68 12.02 2 11 C1.46083854 8.3397977 1.26629902 5.70737337 1 3 C-0.32 3.33 -1.64 3.66 -3 4 C-2.01 2.68 -1.02 1.36 0 0 Z " fill="#D9D9D8" transform="translate(37,37)"/>
<path d="M0 0 C-0.44829514 1.98146451 -0.90892498 3.96014211 -1.375 5.9375 C-1.75785156 7.59072266 -1.75785156 7.59072266 -2.1484375 9.27734375 C-2.42945313 10.17582031 -2.71046875 11.07429688 -3 12 C-3.99 12.495 -3.99 12.495 -5 13 C-5 11.35 -5 9.7 -5 8 C-7.95003206 7.86742176 -7.95003206 7.86742176 -10.5 8.6875 C-11.325 8.790625 -12.15 8.89375 -13 9 C-13.433125 8.505 -13.86625 8.01 -14.3125 7.5 C-16.07525997 5.59861351 -16.07525997 5.59861351 -19.625 6 C-24.02120456 6.70013628 -27.38804066 8.68723122 -31.1171875 11.0390625 C-31.73851562 11.35617188 -32.35984375 11.67328125 -33 12 C-33.66 11.67 -34.32 11.34 -35 11 C-27.40349299 4.85657786 -18.64601237 1.61244523 -9 1 C-8.36191406 0.64421875 -7.72382812 0.2884375 -7.06640625 -0.078125 C-4.36942069 -1.28131704 -2.78868583 -0.77463495 0 0 Z " fill="#B5B5B4" transform="translate(64,13)"/>
<path d="M0 0 C5.48898814 2.80548283 5.48898814 2.80548283 6.92578125 6.1640625 C7.38931918 7.75407529 7.84001705 9.34789163 8.27734375 10.9453125 C9.21207702 13.60298655 10.60833447 14.59798917 13 16 C13 16.66 13 17.32 13 18 C11.56138706 17.91253716 10.12402492 17.80434652 8.6875 17.6875 C7.88699219 17.62949219 7.08648437 17.57148437 6.26171875 17.51171875 C3.63727666 16.91793306 2.69179328 16.04219706 1 14 C1.350625 13.4225 1.70125 12.845 2.0625 12.25 C3.14917407 9.64198224 2.93065133 8.60582371 2 6 C0.68 5.67 -0.64 5.34 -2 5 C-1.67 7.64 -1.34 10.28 -1 13 C-2.32 12.67 -3.64 12.34 -5 12 C-5 11.34 -5 10.68 -5 10 C-5.804375 9.71125 -6.60875 9.4225 -7.4375 9.125 C-10 8 -10 8 -11 6 C-10.0625 3.875 -10.0625 3.875 -9 2 C-8.67 3.32 -8.34 4.64 -8 6 C-4.9254644 5.2236068 -4.9254644 5.2236068 -3 3 C-2.34 3 -1.68 3 -1 3 C-0.67 2.01 -0.34 1.02 0 0 Z " fill="#B9B9B8" transform="translate(37,101)"/>
<path d="M0 0 C3.63 0 7.26 0 11 0 C11.86988854 4.34944269 12.03595522 5.97128525 11 10 C11.91495239 10.03758423 11.91495239 10.03758423 12.84838867 10.07592773 C15.62827898 10.1924058 18.4078734 10.31489632 21.1875 10.4375 C22.14720703 10.47681641 23.10691406 10.51613281 24.09570312 10.55664062 C25.02705078 10.59853516 25.95839844 10.64042969 26.91796875 10.68359375 C27.77156982 10.72025146 28.6251709 10.75690918 29.50463867 10.79467773 C32.06454594 11.00531094 34.49333243 11.44841536 37 12 C37 12.33 37 12.66 37 13 C11.18603428 14.66661185 11.18603428 14.66661185 3.875 8.75 C0.59799646 5.46225219 0 4.7598062 0 0 Z " fill="#6D6D6D" transform="translate(40,86)"/>
<path d="M0 0 C2.54695103 0.37272454 5.05290243 0.8013777 7.5625 1.375 C8.51274979 5.07041586 8.51274979 7.67958414 7.5625 11.375 C6.0625 10 6.0625 10 4.5625 8.375 C4.5625 7.715 4.5625 7.055 4.5625 6.375 C-0.62635175 7.81000064 -0.62635175 7.81000064 -4.4375 11.375 C-4.56125 12.035 -4.685 12.695 -4.8125 13.375 C-5.4375 15.375 -5.4375 15.375 -8 17.125 C-8.804375 17.5375 -9.60875 17.95 -10.4375 18.375 C-11.79189668 15.66620665 -11.50251451 13.36566732 -11.4375 10.375 C-10.4475 10.045 -9.4575 9.715 -8.4375 9.375 C-7.73355388 8.06096724 -7.07404342 6.7229743 -6.4375 5.375 C-3.22154669 0.49562257 -3.22154669 0.49562257 0 0 Z " fill="#6C6C6C" transform="translate(93.4375,29.625)"/>
<path d="M0 0 C0.886875 0.144375 1.77375 0.28875 2.6875 0.4375 C4.08050182 2.39640881 5.40995446 4.4014118 6.6875 6.4375 C9.28774049 8.30060322 9.28774049 8.30060322 11.6875 9.4375 C11.18451212 13.83864397 9.59977269 16.14945019 6.6875 19.4375 C3.33154172 18.83822174 1.30948774 17.59127564 -1.3125 15.4375 C-0.9825 14.7775 -0.6525 14.1175 -0.3125 13.4375 C1.6675 13.4375 3.6475 13.4375 5.6875 13.4375 C6.0175 11.7875 6.3475 10.1375 6.6875 8.4375 C3.54125007 8.17531251 2.06912983 8.18995633 -0.625 9.9375 C-1.181875 10.4325 -1.73875 10.9275 -2.3125 11.4375 C-4.14191851 7.67105012 -4.54412684 5.46827875 -3.3125 1.4375 C-2.3125 0.4375 -2.3125 0.4375 0 0 Z " fill="#D9D9D8" transform="translate(52.3125,34.5625)"/>
<path d="M0 0 C-0.33 4.29 -0.66 8.58 -1 13 C-0.01 13.66 0.98 14.32 2 15 C2 15.66 2 16.32 2 17 C0.68 17 -0.64 17 -2 17 C-2.33 21.95 -2.66 26.9 -3 32 C-5.15902907 28.76145639 -5.20907907 28.06879253 -5.0625 24.375 C-5.0064557 20.90025344 -4.99750639 17.4675789 -5.25 14 C-5.29640625 13.278125 -5.3428125 12.55625 -5.390625 11.8125 C-5.85539318 9.78721348 -5.85539318 9.78721348 -8.046875 8.75 C-9.01367188 8.37875 -9.01367188 8.37875 -10 8 C-10 6.68 -10 5.36 -10 4 C-3.375 0 -3.375 0 0 0 Z " fill="#8E8E8E" transform="translate(83,20)"/>
<path d="M0 0 C1.875 0.3125 1.875 0.3125 4 1 C6.12508244 4.18762365 6.5020163 6.26512223 7 10 C7.721875 9.9175 8.44375 9.835 9.1875 9.75 C12.87110419 10.07743148 14.38626111 11.46093936 17 14 C17 14.66 17 15.32 17 16 C15.68 16 14.36 16 13 16 C13.2165625 17.07636719 13.433125 18.15273438 13.65625 19.26171875 C15.40758487 28.32016795 16.43458383 36.74497403 16 46 C13.69 47.32 11.38 48.64 9 50 C10.64440346 45.31977478 10.64440346 45.31977478 12.58984375 43.5703125 C13.28787109 42.79300781 13.28787109 42.79300781 14 42 C13.81884759 38.42036001 13.81884759 38.42036001 13.39453125 35.828125 C12.91213377 32.37014701 12.67370474 28.92063851 12.4375 25.4375 C12.35371094 24.21933594 12.26992187 23.00117188 12.18359375 21.74609375 C12.12300781 20.83988281 12.06242187 19.93367188 12 19 C11.01 19 10.02 19 9 19 C8.896875 18.236875 8.79375 17.47375 8.6875 16.6875 C8.26102835 13.99743794 8.26102835 13.99743794 6.5625 12.6875 C4.74768469 10.72749947 4.55857285 9.57694531 4 7 C3.3147236 3.84075963 2.71866768 1.97721286 0 0 Z " fill="#A3A3A2" transform="translate(95,8)"/>
<path d="M0 0 C0.66 0 1.32 0 2 0 C1.67 10.23 1.34 20.46 1 31 C2.98 31.33 4.96 31.66 7 32 C6 34 6 34 2 36 C2 44.91 2 53.82 2 63 C1.67 63 1.34 63 1 63 C1 61.02 1 59.04 1 57 C0.34 57 -0.32 57 -1 57 C-1.09296549 50.59571047 -1.09220578 44.30797491 -0.375 37.9375 C0.12127687 32.74358862 -0.52358192 28.32185308 -1.51171875 23.2265625 C-2.65570791 15.66708212 -3.35806473 7.02261949 0 0 Z " fill="#9D9D9D" transform="translate(31,41)"/>
<path d="M0 0 C0.66 0.33 1.32 0.66 2 1 C1.50628906 1.40992187 1.01257813 1.81984375 0.50390625 2.2421875 C-0.45708984 3.05042969 -0.45708984 3.05042969 -1.4375 3.875 C-2.07558594 4.40867187 -2.71367188 4.94234375 -3.37109375 5.4921875 C-5.10805004 6.9222757 -5.10805004 6.9222757 -6 9 C-8.21484375 9.59765625 -8.21484375 9.59765625 -10.9375 10.0625 C-14.58772209 10.66805467 -14.58772209 10.66805467 -18 12 C-20.37402501 12.07116382 -22.75000677 12.08409085 -25.125 12.0625 C-26.40632813 12.05347656 -27.68765625 12.04445313 -29.0078125 12.03515625 C-30.48894531 12.01775391 -30.48894531 12.01775391 -32 12 C-32 11.01 -32 10.02 -32 9 C-29.31531083 8.01249341 -26.62766735 7.03487645 -23.9375 6.0625 C-23.18533203 5.78470703 -22.43316406 5.50691406 -21.65820312 5.22070312 C-17.08042602 3.57587412 -12.84031927 2.5078157 -8 2 C-9 4 -9 4 -11.06640625 4.8515625 C-12.30197266 5.23441406 -12.30197266 5.23441406 -13.5625 5.625 C-14.38878906 5.88539062 -15.21507813 6.14578125 -16.06640625 6.4140625 C-16.70449219 6.60742188 -17.34257813 6.80078125 -18 7 C-12.84318198 7.56883831 -12.84318198 7.56883831 -8.375 5.6875 C-7.92125 5.130625 -7.4675 4.57375 -7 4 C-5.01612292 2.96838392 -3.01723344 1.96476382 -1 1 C-0.67 0.67 -0.34 0.34 0 0 Z " fill="#7F7F7E" transform="translate(94,112)"/>
<path d="M0 0 C0.66 0 1.32 0 2 0 C2.33 1.32 2.66 2.64 3 4 C5.97 4.495 5.97 4.495 9 5 C9.15855469 5.77085938 9.31710938 6.54171875 9.48046875 7.3359375 C9.71378906 8.33882812 9.94710937 9.34171875 10.1875 10.375 C10.40792969 11.37273437 10.62835938 12.37046875 10.85546875 13.3984375 C11.7767034 16.23122363 11.7767034 16.23122363 14.61328125 17.3515625 C15.40089844 17.56554687 16.18851563 17.77953125 17 18 C16.67 19.32 16.34 20.64 16 22 C12.81891783 21.29309285 9.89615378 20.5118287 7 19 C5.77734375 16.5390625 5.77734375 16.5390625 4.9375 13.625 C3.66063958 9.25896114 2.26436455 7.13433745 -1 4 C-0.75 1.75 -0.75 1.75 0 0 Z " fill="#6D6D6D" transform="translate(38,95)"/>
<path d="M0 0 C0.66 0.33 1.32 0.66 2 1 C2.12543554 8.5261324 2.12543554 8.5261324 1.47265625 10.9921875 C0.93262582 13.28620105 1.14348762 15.03592668 1.375 17.375 C1.52942053 24.74306544 -2.47916855 30.76669127 -6 37 C-6.33 36.34 -6.66 35.68 -7 35 C-6.07421875 32.71484375 -6.07421875 32.71484375 -4.6875 29.9375 C-2.32195377 24.95671099 -0.97636068 20.41436378 0 15 C-0.53625 15.680625 -1.0725 16.36125 -1.625 17.0625 C-4 19 -4 19 -7.25 18.75 C-8.1575 18.5025 -9.065 18.255 -10 18 C-9.67 17.01 -9.34 16.02 -9 15 C-8.34 15 -7.68 15 -7 15 C-7 14.34 -7 13.68 -7 13 C-6.21625 12.773125 -5.4325 12.54625 -4.625 12.3125 C-1.78125 11.21875 -1.78125 11.21875 -0.6875 8.375 C-0.460625 7.59125 -0.23375 6.8075 0 6 C-0.9075 6.45375 -1.815 6.9075 -2.75 7.375 C-5.16666667 8.58333333 -7.58333333 9.79166667 -10 11 C-10 10.34 -10 9.68 -10 9 C-7.35153397 6.63785462 -5.38483604 5.12827868 -2 4 C-0.79117904 1.99983534 -0.79117904 1.99983534 0 0 Z " fill="#9A9A9A" transform="translate(111,58)"/>
<path d="M0 0 C3.49298798 3.49298798 4.12599767 4.60881588 4.1328125 9.31640625 C4.13474609 10.58581055 4.13474609 10.58581055 4.13671875 11.88085938 C4.13285156 12.76580078 4.12898438 13.65074219 4.125 14.5625 C4.13080078 15.89571289 4.13080078 15.89571289 4.13671875 17.25585938 C4.13542969 18.10083984 4.13414063 18.94582031 4.1328125 19.81640625 C4.13168457 20.59443604 4.13055664 21.37246582 4.12939453 22.17407227 C4 24 4 24 3 25 C1.00041636 25.04080783 -1.00045254 25.04254356 -3 25 C-2.7834375 23.9790625 -2.7834375 23.9790625 -2.5625 22.9375 C-1.93054091 19.63726918 -1.45686059 16.32855574 -1 13 C-1.763125 12.608125 -2.52625 12.21625 -3.3125 11.8125 C-6 10 -6 10 -7.5 7.375 C-8.80173763 4.73984643 -8.80173763 4.73984643 -11.6875 4.1875 C-12.8321875 4.0946875 -12.8321875 4.0946875 -14 4 C-12.75 2.4375 -12.75 2.4375 -11 1 C-9 0.875 -9 0.875 -7 2 C-6.566875 3.11375 -6.13375 4.2275 -5.6875 5.375 C-3.87541979 9.29444995 -3.87541979 9.29444995 -0.3125 10.9375 C0.780625 11.288125 1.87375 11.63875 3 12 C2.01 8.04 1.02 4.08 0 0 Z " fill="#989898" transform="translate(64,31)"/>
<path d="M0 0 C5.16496336 0.65996754 10.26869483 1.79205759 15 4 C14.125 8.875 14.125 8.875 13 10 C7.32223263 10.38493338 4.00407501 10.00244501 -1 7 C-1.04254356 5.00045254 -1.04080783 2.99958364 -1 1 C-0.67 0.67 -0.34 0.34 0 0 Z " fill="#D9D9D8" transform="translate(53,61)"/>
<path d="M0 0 C2.39989198 0.38917167 4.71749583 0.92295341 7.0625 1.5625 C9.31924716 2.14684058 9.31924716 2.14684058 13 2 C12.34 3.98 11.68 5.96 11 8 C10.5875 7.484375 10.175 6.96875 9.75 6.4375 C8.11956615 4.7765273 8.11956615 4.7765273 6 5.0625 C3.49133846 6.2384351 2.48459406 7.69887921 1 10 C-2.37462715 9.45276317 -4.08235 8.9451 -7 7 C-7 6.34 -7 5.68 -7 5 C-7.66 5 -8.32 5 -9 5 C-8.67 4.01 -8.34 3.02 -8 2 C-6.865625 1.855625 -5.73125 1.71125 -4.5625 1.5625 C-1.19222799 1.38828522 -1.19222799 1.38828522 0 0 Z " fill="#F8F8F7" transform="translate(95,77)"/>
<path d="M0 0 C0.33 0.66 0.66 1.32 1 2 C1.55719727 1.67402832 2.11439453 1.34805664 2.68847656 1.01220703 C5.3256978 -0.14262179 7.117054 -0.23027983 9.984375 -0.1953125 C11.38623047 -0.18564453 11.38623047 -0.18564453 12.81640625 -0.17578125 C14.26853516 -0.15064453 14.26853516 -0.15064453 15.75 -0.125 C16.73355469 -0.11597656 17.71710937 -0.10695313 18.73046875 -0.09765625 C21.15389407 -0.07412785 23.57682222 -0.04125368 26 0 C25.67 0.99 25.34 1.98 25 3 C24.34644531 2.83628906 23.69289063 2.67257813 23.01953125 2.50390625 C19.23008226 1.87151437 15.51509049 1.89303291 11.6875 1.9375 C10.57665039 1.94426758 10.57665039 1.94426758 9.44335938 1.95117188 C7.62887101 1.96287825 5.81442466 1.98081102 4 2 C4.20625 3.093125 4.4125 4.18625 4.625 5.3125 C5 9 5 9 3 12 C2.97360171 14.29714187 2.97360171 14.29714187 3.375 16.6875 C3.48585938 17.49574219 3.59671875 18.30398437 3.7109375 19.13671875 C3.80632813 19.75160156 3.90171875 20.36648437 4 21 C2.68 21 1.36 21 0 21 C-1.19107603 14.0024283 -1.79378744 6.95092634 0 0 Z " fill="#D9D9D8" transform="translate(33,83)"/>
<path d="M0 0 C2.92536272 4.38804408 3.04055267 8.9723666 2.9375 14.125 C2.84151277 17.05261258 2.84151277 17.05261258 4.0625 19.8125 C5.12715418 23.43232422 4.81838278 25.70191404 4.296875 29.37109375 C3.44973241 36.87276428 3.61906922 44.57749705 5 52 C4.34 52 3.68 52 3 52 C-1.22843517 42.86658003 -0.65902959 31.90619295 1.671875 22.203125 C2.22026587 19.99620901 2.22026587 19.99620901 1.0703125 18.203125 C-0.56523758 14.83651826 -0.20905924 11.40981009 -0.125 7.75 C-0.11597656 7.00492188 -0.10695313 6.25984375 -0.09765625 5.4921875 C-0.07418358 3.66131941 -0.03831525 1.83061762 0 0 Z " fill="#B4B4B3" transform="translate(23,51)"/>
<path d="M0 0 C0.66 0.33 1.32 0.66 2 1 C1.52949219 1.60328125 1.05898438 2.2065625 0.57421875 2.828125 C-0.04839844 3.62734375 -0.67101562 4.4265625 -1.3125 5.25 C-1.92738281 6.03890625 -2.54226562 6.8278125 -3.17578125 7.640625 C-4.07876953 8.80851562 -4.07876953 8.80851562 -5 10 C-5.54140625 10.68320312 -6.0828125 11.36640625 -6.640625 12.0703125 C-8.31682175 14.44974121 -9.20772192 16.9770015 -10.17578125 19.70703125 C-11.39906593 23.11019763 -12.77540521 26.44935317 -14.1328125 29.80078125 C-17.79539026 39.08921043 -17.52817662 48.10336311 -14.59375 57.5390625 C-14 60 -14 60 -15 63 C-20.62027096 49.1302326 -20.05729839 36.17337781 -14.51953125 22.2890625 C-10.69143969 14.00306482 -6.22618599 6.68176057 0 0 Z " fill="#B4B4B3" transform="translate(27,25)"/>
<path d="M0 0 C-0.33 5.94 -0.66 11.88 -1 18 C-0.34 18 0.32 18 1 18 C1.33 20.64 1.66 23.28 2 26 C0.68 26.33 -0.64 26.66 -2 27 C-5.09424624 18.14087832 -5.33786247 10.27244773 -5 1 C-1.125 0 -1.125 0 0 0 Z " fill="#727272" transform="translate(31,80)"/>
<path d="M0 0 C2 2 2 2 2 6 C0.3203125 7.484375 0.3203125 7.484375 -1.875 8.75 C-2.95394531 9.39195313 -2.95394531 9.39195313 -4.0546875 10.046875 C-6 11 -6 11 -8 11 C-8 10.34 -8 9.68 -8 9 C-8.66 9 -9.32 9 -10 9 C-10.48339973 2.59495352 -10.48339973 2.59495352 -8.375 0 C-5.18820399 -1.34180884 -3.28890107 -0.92947204 0 0 Z " fill="#F0F0F0" transform="translate(78,13)"/>
<path d="M0 0 C1.32 0.66 2.64 1.32 4 2 C3.67 2.99 3.34 3.98 3 5 C2.01 5 1.02 5 0 5 C0 5.66 0 6.32 0 7 C-0.66 7 -1.32 7 -2 7 C-2.33 8.32 -2.66 9.64 -3 11 C-5.37456165 11.1963696 -7.74920019 11.38231294 -10.125 11.5625 C-10.79015625 11.61857422 -11.4553125 11.67464844 -12.140625 11.73242188 C-16.2728041 12.03625857 -19.94695741 11.85227531 -24 11 C-23.67 10.01 -23.34 9.02 -23 8 C-21.98292969 8.06960937 -21.98292969 8.06960937 -20.9453125 8.140625 C-14.06274958 8.4075388 -7.93746123 7.76465252 -2 4 C-0.70279137 1.96110636 -0.70279137 1.96110636 0 0 Z " fill="#636363" transform="translate(81,101)"/>
<path d="M0 0 C0 1.98 0 3.96 0 6 C-0.9075 6.37125 -1.815 6.7425 -2.75 7.125 C-6.45112176 9.26026255 -7.88653657 11.34208252 -10 15 C-14.39530281 14.51163302 -16.0219 13.17023548 -19 10 C-21.13309192 8.76487921 -21.13309192 8.76487921 -23 8 C-19.4486685 7.59413354 -18.28553971 7.78244593 -15.375 10 C-14.59125 10.66 -13.8075 11.32 -13 12 C-12.01 12 -11.02 12 -10 12 C-8.68 9.69 -7.36 7.38 -6 5 C-8.31 5.33 -10.62 5.66 -13 6 C-13.33 5.34 -13.66 4.68 -14 4 C-12.02 4 -10.04 4 -8 4 C-7.71125 3.360625 -7.4225 2.72125 -7.125 2.0625 C-5.18025038 -1.5028743 -3.54277596 -1.06283279 0 0 Z " fill="#909090" transform="translate(104,84)"/>
<path d="M0 0 C0.99 0 1.98 0 3 0 C2.67 1.65 2.34 3.3 2 5 C1.34 5 0.68 5 0 5 C-0.226875 5.556875 -0.45375 6.11375 -0.6875 6.6875 C-2.37550036 9.66159588 -4.46676517 11.72008865 -7 14 C-7.66 14 -8.32 14 -9 14 C-9.268125 14.61875 -9.53625 15.2375 -9.8125 15.875 C-11 18 -11 18 -14 20 C-15.32 20 -16.64 20 -18 20 C-18 18.35 -18 16.7 -18 15 C-16.948125 14.773125 -15.89625 14.54625 -14.8125 14.3125 C-10.81315612 13.18137244 -8.74673798 11.12822937 -6 8 C-5.195625 7.2575 -5.195625 7.2575 -4.375 6.5 C-2.81866577 4.91800652 -2.81866577 4.91800652 -1.5 2.3125 C-1.005 1.549375 -0.51 0.78625 0 0 Z " fill="#DDDDDC" transform="translate(99,93)"/>
<path d="M0 0 C0.66 0 1.32 0 2 0 C1.7834375 0.928125 1.7834375 0.928125 1.5625 1.875 C0.07337808 10.14789955 -0.32405124 18.62974094 -1 27 C-1.99 27 -2.98 27 -4 27 C-6.53146393 23.2028041 -5.86993062 20.82462658 -5.1875 16.5625 C-5.09146484 15.89412109 -4.99542969 15.22574219 -4.89648438 14.53710938 C-3.85078045 7.45579888 -3.85078045 7.45579888 -3 5 C-2.34 4.67 -1.68 4.34 -1 4 C-0.34786708 1.97536745 -0.34786708 1.97536745 0 0 Z " fill="#FBFBFB" transform="translate(23,36)"/>
<path d="M0 0 C0.61875 0.33 1.2375 0.66 1.875 1 C3.91018344 2.14193235 3.91018344 2.14193235 6 2 C6.66 1.67 7.32 1.34 8 1 C6.63580561 9.18516632 3.26664702 16.49757822 -3 22 C-4.52017504 23.82736067 -6.00518923 25.67697243 -7.47265625 27.546875 C-9.26556821 29.25266336 -10.58749134 29.60569751 -13 30 C-11.57390841 26.63797061 -9.85651485 24.76324421 -7.0625 22.4375 C-1.55837492 18.16968728 -1.55837492 18.16968728 1 12 C-0.65 12.66 -2.3 13.32 -4 14 C-3.67 13.01 -3.34 12.02 -3 11 C-0.4375 9.8125 -0.4375 9.8125 2 9 C2 7.02 2 5.04 2 3 C0.35 3 -1.3 3 -3 3 C-2.01 2.01 -1.02 1.02 0 0 Z " fill="#CBCBCA" transform="translate(101,81)"/>
<path d="M0 0 C0.39431636 5.02195365 -0.55171437 7.63416813 -3.3125 11.8125 C-3.92738281 12.76769531 -4.54226562 13.72289062 -5.17578125 14.70703125 C-7 17 -7 17 -10 18 C-10 15.03 -10 12.06 -10 9 C-9.34 9 -8.68 9 -8 9 C-7.731875 7.88625 -7.46375 6.7725 -7.1875 5.625 C-5.74253552 1.21405581 -4.71247416 0 0 0 Z " fill="#EDEDEC" transform="translate(96,39)"/>
<path d="M0 0 C1.09658936 3.28976808 0.79953138 4.71303767 0 8 C4.45424957 9.66009608 8.5273119 10.36295542 13.25 10.8125 C20.03250391 11.63604194 25.20411803 13.42700923 31 17 C31 16.34 31 15.68 31 15 C31.66 15.33 32.32 15.66 33 16 C32.34 16.99 31.68 17.98 31 19 C28.58094761 18.56802636 27.23168669 18.21521876 25.40625 16.51953125 C21.85959831 14.27984374 18.37165533 14.29632816 14.25 14 C7.96903972 13.53939625 2.78381833 12.59364051 -3 10 C-3.33 9.34 -3.66 8.68 -4 8 C-1.48571429 1.48571429 -1.48571429 1.48571429 0 0 Z " fill="#808080" transform="translate(63,78)"/>
<path d="M0 0 C1.67542976 0.28604898 3.34385343 0.61781233 5 1 C5.36504603 2.58086048 5.71660506 4.16483907 6.0625 5.75 C6.25972656 6.63171875 6.45695312 7.5134375 6.66015625 8.421875 C6.99825872 10.98679028 6.81158635 12.57091639 6 15 C4.35 14.67 2.7 14.34 1 14 C0.46605821 12.5882217 -0.05165104 11.17029756 -0.5625 9.75 C-0.85253906 8.96109375 -1.14257812 8.1721875 -1.44140625 7.359375 C-2.0499718 4.7889303 -1.90655049 3.45365761 -1 1 C-0.67 0.67 -0.34 0.34 0 0 Z " fill="#FBFBFB" transform="translate(69,28)"/>
<path d="M0 0 C2 1 2 1 3.2890625 4.75390625 C3.74290711 6.35437592 4.18782245 7.95739755 4.625 9.5625 C4.96917969 10.74295898 4.96917969 10.74295898 5.3203125 11.94726562 C7.48932101 19.77764455 7.58084043 26.25747872 5 34 C4.34 34 3.68 34 3 34 C3.01047363 33.40985107 3.02094727 32.81970215 3.03173828 32.21166992 C3.07332044 29.53698996 3.0993329 26.86237803 3.125 24.1875 C3.14175781 23.25873047 3.15851563 22.32996094 3.17578125 21.37304688 C3.18544922 20.0340332 3.18544922 20.0340332 3.1953125 18.66796875 C3.21102295 17.43469849 3.21102295 17.43469849 3.22705078 16.17651367 C3.13996135 13.70578408 3.13996135 13.70578408 1 11 C0.5859375 8.30078125 0.5859375 8.30078125 0.375 5.3125 C0.30023438 4.31863281 0.22546875 3.32476562 0.1484375 2.30078125 C0.09945312 1.54152344 0.05046875 0.78226563 0 0 Z " fill="#454545" transform="translate(112,39)"/>
<path d="M0 0 C9.9 0 19.8 0 30 0 C30.33 1.65 30.66 3.3 31 5 C24.67142765 9.09495858 19.44526951 10.48033997 12 10 C9.5 9 9.5 9 8 8 C8 7.67 8 7.34 8 7 C9.19238281 6.95101562 10.38476562 6.90203125 11.61328125 6.8515625 C13.17971068 6.77652396 14.74611579 6.7009766 16.3125 6.625 C17.09818359 6.5940625 17.88386719 6.563125 18.69335938 6.53125 C19.45068359 6.49257812 20.20800781 6.45390625 20.98828125 6.4140625 C22.03302612 6.36693115 22.03302612 6.36693115 23.09887695 6.31884766 C25.32532739 6.07881747 25.32532739 6.07881747 28 4 C28.33 3.01 28.66 2.02 29 1 C15.635 1.495 15.635 1.495 2 2 C1.34 3.32 0.68 4.64 0 6 C0 4.02 0 2.04 0 0 Z " fill="#A9A9A8" transform="translate(49,100)"/>
<path d="M0 0 C0.33 0 0.66 0 1 0 C1 2.31 1 4.62 1 7 C2.65 5.68 4.3 4.36 6 3 C5.125 7.875 5.125 7.875 4 9 C3.80617725 12.48880949 4.22324489 15.60169639 5 19 C3.68 19.99 2.36 20.98 1 22 C-2.45918105 16.60367757 -2.04888581 13.00253463 -1 7 C-0.80909488 5.64630918 -0.62123231 4.29218301 -0.4375 2.9375 C-0.293125 1.968125 -0.14875 0.99875 0 0 Z " fill="#B4B4B3" transform="translate(85,50)"/>
<path d="M0 0 C1.5 1.3125 1.5 1.3125 3 3 C3 3.99 3 4.98 3 6 C6.465 5.505 6.465 5.505 10 5 C10 7.97 10 10.94 10 14 C5.25 15.125 5.25 15.125 3 14 C2.855625 12.865625 2.71125 11.73125 2.5625 10.5625 C2.376875 9.386875 2.19125 8.21125 2 7 C1.01 6.34 0.02 5.68 -1 5 C-0.67 3.35 -0.34 1.7 0 0 Z " fill="#909090" transform="translate(41,54)"/>
<path d="M0 0 C2.97 0.495 2.97 0.495 6 1 C6 1.66 6 2.32 6 3 C8.31 3.33 10.62 3.66 13 4 C13 4.33 13 4.66 13 5 C6.69297181 7.2934648 1.4959133 6.91602375 -5.0625 6.125 C-6.14241211 6.00705078 -6.14241211 6.00705078 -7.24414062 5.88671875 C-10.84944787 5.45153774 -12.92810195 5.04793204 -16 3 C-14.92878906 2.95101562 -13.85757813 2.90203125 -12.75390625 2.8515625 C-11.35674361 2.77654706 -9.9596095 2.7009987 -8.5625 2.625 C-7.85544922 2.5940625 -7.14839844 2.563125 -6.41992188 2.53125 C-4.60760812 2.42719371 -2.80182012 2.22080108 -1 2 C-0.67 1.34 -0.34 0.68 0 0 Z " fill="#959595" transform="translate(56,120)"/>
<path d="M0 0 C2.27071461 1.01790655 3.80784632 1.77442829 5.4375 3.6875 C6.98870027 5.30025005 6.98870027 5.30025005 9.5625 4.8125 C12.14441272 4.15372967 12.14441272 4.15372967 14 2 C13.74204721 5.4823626 12.78438795 6.18808711 10.0625 8.5625 C9.051875 9.366875 8.04125 10.17125 7 11 C6.01 12.485 6.01 12.485 5 14 C4.34 13.67 3.68 13.34 3 13 C2.855625 12.38125 2.71125 11.7625 2.5625 11.125 C1.89230189 8.59314048 0.94075649 7.70786571 -1 6 C-1.66 5.34 -2.32 4.68 -3 4 C-1.68 4 -0.36 4 1 4 C0.67 2.68 0.34 1.36 0 0 Z " fill="#B4B4B3" transform="translate(83,93)"/>
<path d="M0 0 C0.6875 1.8125 0.6875 1.8125 1 4 C0.02351983 5.02297922 -0.98131338 6.01904252 -2 7 C-2.67863055 8.9959722 -3.34641919 10.99568551 -4 13 C-4.99 13.495 -4.99 13.495 -6 14 C-6.28230469 14.74121094 -6.56460938 15.48242188 -6.85546875 16.24609375 C-8.20198391 19.48600223 -9.94213695 21.48497917 -12.3125 24.0625 C-13.07175781 24.89910156 -13.83101562 25.73570313 -14.61328125 26.59765625 C-16.94713724 28.94679116 -19.37381461 30.98736589 -22 33 C-22.66 32.67 -23.32 32.34 -24 32 C-23.41992188 31.53851563 -22.83984375 31.07703125 -22.2421875 30.6015625 C-17.15312607 26.35228019 -13.61475051 22.31656342 -10.40625 16.5234375 C-8.99026561 13.98253218 -7.44397118 11.59471973 -5.8125 9.1875 C-3.77812285 6.17598107 -1.82583979 3.14450185 0 0 Z " fill="#ACACAB" transform="translate(116,84)"/>
<path d="M0 0 C6.0727349 -0.22082672 11.96985994 0.21065719 18 0.875 C19.14940063 0.99270752 19.14940063 0.99270752 20.32202148 1.11279297 C22.22471142 1.33503295 24.11493838 1.65917413 26 2 C26.33 2.66 26.66 3.32 27 4 C18.42 4 9.84 4 1 4 C0.67 2.68 0.34 1.36 0 0 Z " fill="#F5F5F5" transform="translate(54,91)"/>
<path d="M0 0 C0.66 0 1.32 0 2 0 C1.67 2.97 1.34 5.94 1 9 C0.01 9.33 -0.98 9.66 -2 10 C-1.67 8.68 -1.34 7.36 -1 6 C-2.670625 6.309375 -2.670625 6.309375 -4.375 6.625 C-6.169375 6.810625 -6.169375 6.810625 -8 7 C-8.66 6.34 -9.32 5.68 -10 5 C-12.30745009 5.29329272 -12.30745009 5.29329272 -15 6 C-16.2375 6.144375 -17.475 6.28875 -18.75 6.4375 C-19.8225 6.623125 -20.895 6.80875 -22 7 C-22.33 7.66 -22.66 8.32 -23 9 C-22.34 9.33 -21.68 9.66 -21 10 C-22.32 9.67 -23.64 9.34 -25 9 C-23.99165688 6.26387795 -23.43210006 5.20852216 -20.7578125 3.91796875 C-19.88898438 3.67691406 -19.02015625 3.43585938 -18.125 3.1875 C-17.26132813 2.93355469 -16.39765625 2.67960937 -15.5078125 2.41796875 C-12.89896771 1.98316128 -11.47413822 2.15774018 -9 3 C-6.53951544 3.90888062 -6.53951544 3.90888062 -4 4 C-1.7914234 2.12491838 -1.7914234 2.12491838 0 0 Z " fill="#D7D7D6" transform="translate(109,73)"/>
<path d="M0 0 C0.66 0 1.32 0 2 0 C2.39149906 2.39416732 2.76351777 4.78877536 3.125 7.1875 C3.23714844 7.86103516 3.34929688 8.53457031 3.46484375 9.22851562 C4.07740557 13.41435472 4.11454843 16.28203571 2 20 C1.34 20.33 0.68 20.66 0 21 C-0.66 20.67 -1.32 20.34 -2 20 C-1.55768717 17.34612303 -1.22128301 15.34298867 0.25 13.0625 C0.4975 12.381875 0.745 11.70125 1 11 C0.505 10.030625 0.01 9.06125 -0.5 8.0625 C-2 5 -2 5 -1.1875 2.125 C-0.795625 1.42375 -0.40375 0.7225 0 0 Z " fill="#6D6D6D" transform="translate(28,61)"/>
<path d="M0 0 C0.99 0.66 1.98 1.32 3 2 C3.51171875 5.2578125 3.51171875 5.2578125 3.6875 9.125 C3.75324219 10.40632813 3.81898437 11.68765625 3.88671875 13.0078125 C3.92410156 13.99523438 3.96148437 14.98265625 4 16 C2.68 16 1.36 16 0 16 C-1.69144945 12.41810705 -2.05672871 10.75725762 -1 7 C-1.185625 6.13375 -1.37125 5.2675 -1.5625 4.375 C-1.706875 3.59125 -1.85125 2.8075 -2 2 C-1.34 1.34 -0.68 0.68 0 0 Z " fill="#646464" transform="translate(44,34)"/>
<path d="M0 0 C-0.33 0.66 -0.66 1.32 -1 2 C-2.78515625 2.45703125 -2.78515625 2.45703125 -5.0625 2.8125 C-10.13829492 3.81301727 -13.82772556 6.02142806 -18 9 C-18.66 8.34 -19.32 7.68 -20 7 C-24.58537549 7.25474308 -27.58661647 7.85968715 -31 11 C-30.04908327 8.49303771 -29.06198622 7.05598755 -27.0625 5.25 C-23.79173924 3.91499561 -21.98220637 3.93595953 -18.5 4.0625 C-11.07341506 4.31038334 -7.86404818 -0.53315581 0 0 Z " fill="#B4B4B3" transform="translate(59,26)"/>
<path d="M0 0 C1.32 0 2.64 0 4 0 C5 6 6 12 7 18 C6.34 17.34 5.68 16.68 5 16 C4.67 17.65 4.34 19.3 4 21 C1.47725544 17.05688666 1.33445161 12.79179211 0.875 8.25 C0.78863281 7.45722656 0.70226562 6.66445313 0.61328125 5.84765625 C0.40199946 3.89916859 0.20007533 1.94967024 0 0 Z " fill="#6E6E6E" transform="translate(108,24)"/>
<path d="M0 0 C0.33 0 0.66 0 1 0 C1.08413784 3.95447868 0.95020849 7.70080807 0.4375 11.625 C0.02200591 15.04128475 0.2028364 17.63419814 1 21 C1.03824623 23.33301986 1.04574284 25.66711508 1 28 C0.01 28.33 -0.98 28.66 -2 29 C-2 30.32 -2 31.64 -2 33 C-1.34 33.33 -0.68 33.66 0 34 C-1.32 33.67 -2.64 33.34 -4 33 C-3.855625 32.29875 -3.71125 31.5975 -3.5625 30.875 C-3.376875 29.92625 -3.19125 28.9775 -3 28 C-2.79375 27.13375 -2.5875 26.2675 -2.375 25.375 C-1.92239245 21.30153206 -2.30216519 17.5510705 -2.74609375 13.48828125 C-3 11 -3 11 -3 8 C-2.34 8 -1.68 8 -1 8 C-0.67 5.36 -0.34 2.72 0 0 Z " fill="#787878" transform="translate(84,50)"/>
<path d="M0 0 C4.06200013 2.95418191 7.09843897 6.33296225 10.25390625 10.1953125 C11.90194915 12.1029342 11.90194915 12.1029342 14.15234375 13.0546875 C16 14 16 14 17 17 C13.65143565 17.38269307 12.25475723 17.16377251 9.375 15.3125 C6.97793419 12.97851487 5.59960162 10.92101166 4 8 C2.9171875 6.4221875 2.9171875 6.4221875 1.8125 4.8125 C0 2 0 2 0 0 Z " fill="#4F4F4F" transform="translate(14,98)"/>
<path d="M0 0 C2.36120297 0.25392418 4.7150539 0.57798123 7.0625 0.9375 C8.35285156 1.13214844 9.64320312 1.32679687 10.97265625 1.52734375 C11.97167969 1.68332031 12.97070312 1.83929688 14 2 C14 2.99 14 3.98 14 5 C9.02936879 5.91297308 4.97063121 5.91297308 0 5 C-0.5625 3.0625 -0.5625 3.0625 -1 1 C-0.67 0.67 -0.34 0.34 0 0 Z " fill="#F9F9F9" transform="translate(54,63)"/>
<path d="M0 0 C1.32 0 2.64 0 4 0 C4 0.66 4 1.32 4 2 C3.01 2.495 3.01 2.495 2 3 C2 4.98 2 6.96 2 9 C4.0745356 9.1490712 4.0745356 9.1490712 6 8 C5.67 9.65 5.34 11.3 5 13 C4.34 13 3.68 13 3 13 C3 14.98 3 16.96 3 19 C2.67 19 2.34 19 2 19 C2 17.02 2 15.04 2 13 C1.34 13 0.68 13 0 13 C-0.33 13.66 -0.66 14.32 -1 15 C-1.02693575 12.87506859 -1.04636628 10.75004088 -1.0625 8.625 C-1.07410156 7.44164062 -1.08570312 6.25828125 -1.09765625 5.0390625 C-1 2 -1 2 0 0 Z " fill="#6E6E6E" transform="translate(81,37)"/>
<path d="M0 0 C0.66 0 1.32 0 2 0 C3.3039193 3.47711812 2.72387103 6.42141139 2.19140625 10.02734375 C1.9510556 12.50442693 2.32900639 14.61424494 3 17 C1.68 17 0.36 17 -1 17 C-1.93213141 10.73960391 -2.20927172 5.97802937 0 0 Z " fill="#DCDCDC" transform="translate(34,87)"/>
<path d="M0 0 C2.3125 0.5625 2.3125 0.5625 5 2 C7.9551623 7.02377591 8.26700729 10.35605844 7 16 C4.4429149 13.77644774 3.75829088 12.24981807 3 9 C2.34 8.67 1.68 8.34 1 8 C0.40644386 5.35139573 0.25790731 2.70802678 0 0 Z " fill="#747474" transform="translate(8,86)"/>
<path d="M0 0 C-1.45399296 3.83325416 -3.3080115 5.28279605 -7 7 C-9.8125 7.1875 -9.8125 7.1875 -12 7 C-12 6.01 -12 5.02 -12 4 C-10.56988027 3.13353333 -9.13059381 2.28218171 -7.6875 1.4375 C-6.48673828 0.72400391 -6.48673828 0.72400391 -5.26171875 -0.00390625 C-3 -1 -3 -1 0 0 Z M-15 7 C-14.34 7.66 -13.68 8.32 -13 9 C-13.99 9 -14.98 9 -16 9 C-15.67 8.34 -15.34 7.68 -15 7 Z " fill="#676767" transform="translate(42,13)"/>
<path d="M0 0 C4.75 0.75 4.75 0.75 7 3 C9.06874034 3.6425235 9.06874034 3.6425235 11 4 C11.33 5.65 11.66 7.3 12 9 C11.01 9.495 11.01 9.495 10 10 C9.1646875 9.2884375 9.1646875 9.2884375 8.3125 8.5625 C5.81653926 6.87604004 3.9553763 6.41046893 1 6 C0.67 4.02 0.34 2.04 0 0 Z " fill="#909090" transform="translate(49,52)"/>
<path d="M0 0 C3.73658685 0.42300983 7.37653234 0.98542905 11 2 C11 2.66 11 3.32 11 4 C7.17679443 5.42258812 4.08718695 6.24042276 0 6 C-0.38218767 4.34385343 -0.71395102 2.67542976 -1 1 C-0.67 0.67 -0.34 0.34 0 0 Z " fill="#D9D9D8" transform="translate(58,114)"/>
<path d="M0 0 C0.33 1.32 0.66 2.64 1 4 C1.66 4 2.32 4 3 4 C3.99 5.485 3.99 5.485 5 7 C5 5.02 5 3.04 5 1 C7 4 7 4 7 6 C9.475 6.99 9.475 6.99 12 8 C11.67 9.32 11.34 10.64 11 12 C2.8630137 10.19178082 2.8630137 10.19178082 0.6875 7.1875 C-0.09802451 4.68810383 -0.14472595 2.60506718 0 0 Z " fill="#727272" transform="translate(43,105)"/>
<path d="M0 0 C0.08121094 0.62390625 0.16242187 1.2478125 0.24609375 1.890625 C0.79429444 4.1492447 0.79429444 4.1492447 2.84765625 5.046875 C3.57855469 5.27890625 4.30945313 5.5109375 5.0625 5.75 C5.79597656 5.99234375 6.52945313 6.2346875 7.28515625 6.484375 C7.85105469 6.65453125 8.41695312 6.8246875 9 7 C5.58860997 8.09651823 2.79344419 7.94215473 -0.75 7.5625 C-1.73484375 7.46066406 -2.7196875 7.35882813 -3.734375 7.25390625 C-4.48203125 7.17011719 -5.2296875 7.08632812 -6 7 C-6.33 5.68 -6.66 4.36 -7 3 C-11.29 2.67 -15.58 2.34 -20 2 C-20 1.67 -20 1.34 -20 1 C-17.77090129 0.97285265 -15.54170633 0.95353746 -13.3125 0.9375 C-12.07113281 0.92589844 -10.82976563 0.91429688 -9.55078125 0.90234375 C-6.53764546 0.98521327 -3.91724661 1.29160551 -1 2 C-0.67 1.34 -0.34 0.68 0 0 Z " fill="#B4B4B3" transform="translate(59,83)"/>
<path d="M0 0 C0.33 0 0.66 0 1 0 C1.36676314 2.18542332 1.717827 4.37348406 2.0625 6.5625 C2.25972656 7.78066406 2.45695312 8.99882813 2.66015625 10.25390625 C3.00841793 14.09279071 2.80442613 17.23676512 2 21 C0.0625 23.3125 0.0625 23.3125 -2 25 C-2.66 25.66 -3.32 26.32 -4 27 C-4.25 24.8125 -4.25 24.8125 -4 22 C-3.32839844 21.26394531 -2.65679687 20.52789062 -1.96484375 19.76953125 C0.6144124 16.13395946 0.21992043 14.23621782 -0.3125 9.875 C-1.07776905 3.23330715 -1.07776905 3.23330715 0 0 Z " fill="#D9D9D8" transform="translate(107,31)"/>
<path d="M0 0 C0.928125 0.20625 1.85625 0.4125 2.8125 0.625 C3.1425 1.945 3.4725 3.265 3.8125 4.625 C2.8225 5.285 1.8325 5.945 0.8125 6.625 C-0.8375 5.305 -2.4875 3.985 -4.1875 2.625 C-4.1875 3.945 -4.1875 5.265 -4.1875 6.625 C-3.1975 7.285 -2.2075 7.945 -1.1875 8.625 C-1 11.75 -1 11.75 -1.1875 14.625 C-1.5175 14.625 -1.8475 14.625 -2.1875 14.625 C-2.290625 13.84125 -2.39375 13.0575 -2.5 12.25 C-2.96345022 9.29454819 -2.96345022 9.29454819 -6.1875 7.625 C-6.5625 4.625 -6.5625 4.625 -6.1875 1.625 C-3.1875 -0.375 -3.1875 -0.375 0 0 Z " fill="#B4B4B3" transform="translate(45.1875,52.375)"/>
<path d="M0 0 C0.33 0 0.66 0 1 0 C3.38858824 8.36005884 3.190218 16.38735156 3 25 C2.67 25 2.34 25 2 25 C1.7525 24.05125 1.505 23.1025 1.25 22.125 C0.3142923 18.91306809 0.3142923 18.91306809 -2.125 17.625 C-3.053125 17.315625 -3.053125 17.315625 -4 17 C-3.67 16.01 -3.34 15.02 -3 14 C-2.01 13.67 -1.02 13.34 0 13 C0 8.71 0 4.42 0 0 Z " fill="#B4B4B3" transform="translate(76,30)"/>
<path d="M0 0 C8.91 0 17.82 0 27 0 C26.67 0.99 26.34 1.98 26 3 C26 2.34 26 1.68 26 1 C13.625 1.495 13.625 1.495 1 2 C1.66868314 5.11332248 1.66868314 5.11332248 4.0625 6.1875 C4.701875 6.455625 5.34125 6.72375 6 7 C4.02 7.99 4.02 7.99 2 9 C0.4375 7.3125 0.4375 7.3125 -1 5 C-0.67 3.35 -0.34 1.7 0 0 Z " fill="#D9D9D8" transform="translate(51,101)"/>
<path d="M0 0 C-0.268125 0.515625 -0.53625 1.03125 -0.8125 1.5625 C-1.77696718 3.54219579 -2.62573692 5.57794527 -3.4375 7.625 C-5 11 -5 11 -8 13 C-9.48247043 10.03505913 -9.51546343 8.28607933 -9 5 C-6.50949057 2.48993159 -3.63872505 0 0 0 Z " fill="#454545" transform="translate(91,35)"/>
<path d="M0 0 C1.91599375 3.8319875 1.03015178 8.83768827 0.9609375 13.08398438 C0.91374981 17.84600886 1.1953187 22.30393021 2 27 C1.34 27 0.68 27 0 27 C-1.85949794 23.11066844 -2.13213216 20.50991014 -1.625 16.25 C-1.21637748 12.40609744 -0.93814821 8.67823684 -1 4.8125 C-1 1 -1 1 0 0 Z " fill="#989898" transform="translate(26,76)"/>
<path d="M0 0 C2.05078125 0.03255208 4.1015625 0.06510417 6.15234375 0.09765625 C7.0865802 3.10797369 7.19684286 3.96415893 6.15234375 7.09765625 C1.90412001 6.62563139 -0.04755334 4.13110107 -2.84765625 1.09765625 C-1.84765625 0.09765625 -1.84765625 0.09765625 0 0 Z " fill="#454545" transform="translate(43.84765625,86.90234375)"/>
<path d="M0 0 C0.33 0 0.66 0 1 0 C1.309375 0.94875 1.61875 1.8975 1.9375 2.875 C2.87394742 5.86080408 2.87394742 5.86080408 4 8 C4.0878244 11.33652525 3.85643114 14.66765964 3.6875 18 C3.65205078 18.928125 3.61660156 19.85625 3.58007812 20.8125 C3.53689453 21.699375 3.49371094 22.58625 3.44921875 23.5 C3.41143311 24.3146875 3.37364746 25.129375 3.3347168 25.96875 C3 28 3 28 1 30 C1.00523682 29.40985107 1.01047363 28.81970215 1.01586914 28.21166992 C1.03666047 25.53695745 1.04966701 22.86226199 1.0625 20.1875 C1.07087891 19.25873047 1.07925781 18.32996094 1.08789062 17.37304688 C1.09111328 16.48037109 1.09433594 15.58769531 1.09765625 14.66796875 C1.10289307 13.84578857 1.10812988 13.0236084 1.11352539 12.17651367 C1.08741524 9.81827404 1.08741524 9.81827404 0 7 C-0.03954234 4.66700175 -0.04401732 2.33291811 0 0 Z " fill="#6D6D6D" transform="translate(112,45)"/>
<path d="M0 0 C2.64 0 5.28 0 8 0 C7 2 7 2 4.3125 3.3125 C0.64699612 5.17983217 -1.92547798 7.29149251 -5 10 C-5.99 8.68 -6.98 7.36 -8 6 C-6.02 4.35 -4.04 2.7 -2 1 C-1.67 1.33 -1.34 1.66 -1 2 C-0.67 1.34 -0.34 0.68 0 0 Z " fill="#727272" transform="translate(29,19)"/>
<path d="M0 0 C-0.22187564 3.88282378 -0.96247304 4.96330697 -3.8125 7.75 C-7.91187739 10.64367816 -7.91187739 10.64367816 -11 11 C-9.60249952 7.84164893 -7.94801766 5.67727175 -5.5 3.25 C-4.8915625 2.63640625 -4.283125 2.0228125 -3.65625 1.390625 C-2 0 -2 0 0 0 Z " fill="#6C6C6C" transform="translate(108,58)"/>
<path d="M0 0 C0.66 0 1.32 0 2 0 C2 2.64 2 5.28 2 8 C1.34 8 0.68 8 0 8 C0.33 10.31 0.66 12.62 1 15 C0.566875 14.54625 0.13375 14.0925 -0.3125 13.625 C-2.10798342 11.79975666 -2.10798342 11.79975666 -5 10 C-4.01 9.34 -3.02 8.68 -2 8 C-1.7497843 4.91634129 -1.7497843 4.91634129 -2 2 C-1.34 2 -0.68 2 0 2 C0 1.34 0 0.68 0 0 Z " fill="#5F5F5F" transform="translate(81,50)"/>
<path d="M0 0 C0.33 0.66 0.66 1.32 1 2 C1.91265625 2.433125 1.91265625 2.433125 2.84375 2.875 C6.11348524 4.58094882 7.92881998 7.29381379 10.21875 10.125 C12.04045351 12.04258264 13.58046808 12.98124972 16 14 C16 14.66 16 15.32 16 16 C9.06429204 14.47752752 5.50448054 9.90842901 1.0625 4.75 C0 3 0 3 0 0 Z " fill="#8D8D8C" transform="translate(16,97)"/>
<path d="M0 0 C0.33 0 0.66 0 1 0 C0.2892413 15.85727158 0.2892413 15.85727158 -3 22 C-3.99 22.66 -4.98 23.32 -6 24 C-5.56297734 21.45070113 -5.0716363 19.16953925 -4.0625 16.78125 C-2.79349999 13.45945586 -2.09088057 10.16928276 -1.375 6.6875 C-1.11460938 5.43324219 -0.85421875 4.17898437 -0.5859375 2.88671875 C-0.39257812 1.93410156 -0.19921875 0.98148437 0 0 Z " fill="#828282" transform="translate(118,66)"/>
<path d="M0 0 C0.33 0 0.66 0 1 0 C1 7.92 1 15.84 1 24 C-3 19 -3 19 -3.4375 15.9375 C-2.83084884 10.47763959 -1.45879947 5.28814809 0 0 Z " fill="#B4B4B3" transform="translate(3,55)"/>
<path d="M0 0 C0.33 0.66 0.66 1.32 1 2 C2.32 1.34 3.64 0.68 5 0 C4.814375 0.78375 4.62875 1.5675 4.4375 2.375 C3.74037734 4.97089775 3.74037734 4.97089775 5 7 C3.35 7 1.7 7 0 7 C-1.00772069 9.72084587 -1.10135551 10.74661122 0 13.5 C1.13023738 16.32559344 0.85749483 17.1893225 0 20 C-0.75518219 18.28203573 -1.47829091 16.54994751 -2.1875 14.8125 C-2.59355469 13.84957031 -2.99960938 12.88664062 -3.41796875 11.89453125 C-4 9 -4 9 -2.65625 6.28125 C-2.1096875 5.5284375 -1.563125 4.775625 -1 4 C-0.30420546 1.80869466 -0.30420546 1.80869466 0 0 Z " fill="#D9D9D8" transform="translate(69,22)"/>
<path d="M0 0 C-0.125 2.3125 -0.125 2.3125 -1 5 C-4.20733304 7.02201431 -6.19154436 8 -10 8 C-10 7.01 -10 6.02 -10 5 C-8.57421875 3.61328125 -8.57421875 3.61328125 -6.6875 2.3125 C-6.07261719 1.87550781 -5.45773438 1.43851562 -4.82421875 0.98828125 C-3 0 -3 0 0 0 Z " fill="#DBDBDA" transform="translate(111,64)"/>
<path d="M0 0 C0.66 0 1.32 0 2 0 C2 0.66 2 1.32 2 2 C2.99 2 3.98 2 5 2 C6 9.625 6 9.625 6 13 C2.604823 9.92817319 0.12402694 6.86040405 -0.1875 2.1875 C-0.125625 1.465625 -0.06375 0.74375 0 0 Z " fill="#CBCBCA" transform="translate(13,87)"/>
<path d="M0 0 C1.9375 0.6875 1.9375 0.6875 4 2 C4.75 4.625 4.75 4.625 5 7 C3.68 7.99 2.36 8.98 1 10 C-0.85064319 6.87703962 -1.29356154 4.62059232 -1 1 C-0.67 0.67 -0.34 0.34 0 0 Z " fill="#E4E4E3" transform="translate(85,62)"/>
<path d="M0 0 C4 2 8 4 12 6 C12 6.66 12 7.32 12 8 C13.65 8 15.3 8 17 8 C17.33 8.99 17.66 9.98 18 11 C8.06187345 9.19499838 8.06187345 9.19499838 5 6 C5 5.34 5 4.68 5 4 C4.360625 3.71125 3.72125 3.4225 3.0625 3.125 C1 2 1 2 0 0 Z " fill="#B0B0B0" transform="translate(22,112)"/>
<path d="M0 0 C0.66 0.33 1.32 0.66 2 1 C2 3.64 2 6.28 2 9 C1.34 9 0.68 9 0 9 C0 8.01 0 7.02 0 6 C-0.9075 6.45375 -1.815 6.9075 -2.75 7.375 C-5.16666667 8.58333333 -7.58333333 9.79166667 -10 11 C-10 10.34 -10 9.68 -10 9 C-7.35153397 6.63785462 -5.38483604 5.12827868 -2 4 C-0.79117904 1.99983534 -0.79117904 1.99983534 0 0 Z " fill="#AEAEAD" transform="translate(111,58)"/>
<path d="M0 0 C-1.21918563 4.60581237 -3.61667616 6.63056903 -7.1796875 9.5078125 C-9.63086977 11.51715076 -11.79395606 13.72710624 -14 16 C-14.66 15.67 -15.32 15.34 -16 15 C-15.29875 14.319375 -14.5975 13.63875 -13.875 12.9375 C-11.23315386 10.3031591 -8.8234601 7.50802531 -6.4296875 4.6484375 C-2.39810427 0 -2.39810427 0 0 0 Z " fill="#9D9D9C" transform="translate(104,95)"/>
<path d="M0 0 C1.93719378 -0.05406122 3.87481921 -0.09282025 5.8125 -0.125 C6.89144531 -0.14820312 7.97039062 -0.17140625 9.08203125 -0.1953125 C12 0 12 0 15 2 C15 2.99 15 3.98 15 5 C9.39 4.67 3.78 4.34 -2 4 C-2 3.67 -2 3.34 -2 3 C4.435 2.505 4.435 2.505 11 2 C7.37 1.67 3.74 1.34 0 1 C0 0.67 0 0.34 0 0 Z " fill="#D9D9D8" transform="translate(69,92)"/>
<path d="M0 0 C0.66 0.33 1.32 0.66 2 1 C1.50628906 1.40992187 1.01257813 1.81984375 0.50390625 2.2421875 C-0.13675781 2.78101562 -0.77742188 3.31984375 -1.4375 3.875 C-2.07558594 4.40867187 -2.71367188 4.94234375 -3.37109375 5.4921875 C-5.10805004 6.9222757 -5.10805004 6.9222757 -6 9 C-8.28515625 9.4140625 -8.28515625 9.4140625 -11.0625 9.625 C-12.44115234 9.73714844 -12.44115234 9.73714844 -13.84765625 9.8515625 C-14.91306641 9.92503906 -14.91306641 9.92503906 -16 10 C-15 8 -15 8 -12.25 7.0625 C-11.1775 6.711875 -10.105 6.36125 -9 6 C-5.79117252 4.24278495 -2.8859208 2.24460507 0 0 Z " fill="#9A9A9A" transform="translate(94,112)"/>
<path d="M0 0 C0.99 0.66 1.98 1.32 3 2 C2.67 2.99 2.34 3.98 2 5 C-1.3 5 -4.6 5 -8 5 C-8.33 4.34 -8.66 3.68 -9 3 C-7.56879256 2.44191911 -6.12969645 1.90403538 -4.6875 1.375 C-3.88699219 1.07335937 -3.08648437 0.77171875 -2.26171875 0.4609375 C-1.51535156 0.30882813 -0.76898438 0.15671875 0 0 Z " fill="#686868" transform="translate(53,118)"/>
<path d="M0 0 C1.5 1.3125 1.5 1.3125 3 3 C3 3.99 3 4.98 3 6 C4.0828125 6.12375 4.0828125 6.12375 5.1875 6.25 C8.55313254 7.14750201 10.41612816 8.7114278 13 11 C12.67 12.32 12.34 13.64 12 15 C11.731875 14.38125 11.46375 13.7625 11.1875 13.125 C10.04443152 10.7004767 10.04443152 10.7004767 7 9 C4.37468476 8.83286431 4.37468476 8.83286431 2 9 C0 2.25 0 2.25 0 0 Z " fill="#D9D9D8" transform="translate(100,10)"/>
<path d="M0 0 C2.75026417 -0.05404449 5.49946203 -0.09369306 8.25 -0.125 C9.02730469 -0.14175781 9.80460937 -0.15851563 10.60546875 -0.17578125 C17.72431144 -0.23662606 17.72431144 -0.23662606 21 2 C19.02 2.99 19.02 2.99 17 4 C16.67 3.67 16.34 3.34 16 3 C13.31137336 2.60006314 10.63647783 2.24865457 7.9375 1.9375 C7.17888672 1.84662109 6.42027344 1.75574219 5.63867188 1.66210938 C3.7595699 1.4375626 1.87983905 1.21829022 0 1 C0 0.67 0 0.34 0 0 Z " fill="#B4B4B3" transform="translate(43,124)"/>
<path d="M0 0 C0 4.04392968 -1.48091251 5.00131618 -4.1875 7.9375 C-4.96480469 8.79214844 -5.74210937 9.64679688 -6.54296875 10.52734375 C-8.90213668 12.90151434 -11.34467268 14.9672361 -14 17 C-14.66 16.67 -15.32 16.34 -16 16 C-15.39671875 15.49210937 -14.7934375 14.98421875 -14.171875 14.4609375 C-9.65221316 10.5681965 -6.1292517 7.05494505 -3 2 C-2.01 1.34 -1.02 0.68 0 0 Z " fill="#CCCCCB" transform="translate(108,100)"/>
<path d="M0 0 C1.65 0 3.3 0 5 0 C5.66 1.32 6.32 2.64 7 4 C6.34 4.66 5.68 5.32 5 6 C2.375 5.625 2.375 5.625 0 5 C-0.33 4.01 -0.66 3.02 -1 2 C-0.67 1.34 -0.34 0.68 0 0 Z " fill="#FBFBFB" transform="translate(70,49)"/>
<path d="M0 0 C1.32 0.66 2.64 1.32 4 2 C3.67 2.99 3.34 3.98 3 5 C2.01 5 1.02 5 0 5 C0 5.66 0 6.32 0 7 C-0.66 7 -1.32 7 -2 7 C-2.33 8.32 -2.66 9.64 -3 11 C-3.33 10.34 -3.66 9.68 -4 9 C-3.67 8.34 -3.34 7.68 -3 7 C-3.99 6.67 -4.98 6.34 -6 6 C-5.38125 5.7525 -4.7625 5.505 -4.125 5.25 C-1.64931313 3.79371361 -1.04874998 2.62187494 0 0 Z " fill="#707070" transform="translate(81,101)"/>
<path d="M0 0 C0.99 0.33 1.98 0.66 3 1 C4.01973129 4.05919388 4.11533602 6.12418025 4.09765625 9.32421875 C4.09443359 10.35224609 4.09121094 11.38027344 4.08789062 12.43945312 C4.07951172 13.51130859 4.07113281 14.58316406 4.0625 15.6875 C4.05798828 16.77095703 4.05347656 17.85441406 4.04882812 18.97070312 C4.03703743 21.64719085 4.02058063 24.32356777 4 27 C3.67 27 3.34 27 3 27 C3 19.74 3 12.48 3 5 C2.34 5 1.68 5 1 5 C0.505 2.525 0.505 2.525 0 0 Z " fill="#C1C1C0" transform="translate(117,44)"/>
<path d="M0 0 C3.1878537 1.7931677 3.68876478 4.81840683 5 8.125 C6.53951047 10.00529239 6.53951047 10.00529239 8 11.125 C4.65594263 10.13082078 3.30054285 9.63842737 1.5 6.5625 C0.21135426 3.86451761 0.21135426 3.86451761 -2.6875 3.3125 C-3.8321875 3.2196875 -3.8321875 3.2196875 -5 3.125 C-2.63157895 0.16447368 -2.63157895 0.16447368 0 0 Z " fill="#A1A1A1" transform="translate(55,31.875)"/>
<path d="M0 0 C0.99 0.99 1.98 1.98 3 3 C1.71034824 4.37562854 0.37310707 5.70766393 -1 7 C-1.66 7 -2.32 7 -3 7 C-3 6.34 -3 5.68 -3 5 C-3.66 5 -4.32 5 -5 5 C-5 4.01 -5 3.02 -5 2 C-3.35 1.34 -1.7 0.68 0 0 Z " fill="#F7F7F7" transform="translate(53,36)"/>
<path d="M0 0 C-0.3125 3.375 -0.3125 3.375 -1 7 C-1.99 7.66 -2.98 8.32 -4 9 C-4.66 8.67 -5.32 8.34 -6 8 C-5.62403791 5.21788056 -5.32681541 3.4120716 -3.5625 1.1875 C-2 0 -2 0 0 0 Z " fill="#616161" transform="translate(32,73)"/>
<path d="M0 0 C0.99 0 1.98 0 3 0 C3 0.66 3 1.32 3 2 C4.32 2.33 5.64 2.66 7 3 C7 4.32 7 5.64 7 7 C4 7 4 7 2.5 5.625 C2.005 5.08875 1.51 4.5525 1 4 C0.01 3.34 -0.98 2.68 -2 2 C-1.34 1.34 -0.68 0.68 0 0 Z " fill="#686868" transform="translate(30,113)"/>
<path d="M0 0 C5.70709064 0.46588495 9.15939723 1.93757784 14 5 C14 4.34 14 3.68 14 3 C14.66 3.33 15.32 3.66 16 4 C15.01 5.485 15.01 5.485 14 7 C11.56475116 6.56513414 10.1081328 6.08290181 8.125 4.5625 C5.5577261 2.6747986 3.03867821 1.89779129 0 1 C0 0.67 0 0.34 0 0 Z " fill="#6F6F6F" transform="translate(80,90)"/>
<path d="M0 0 C2.0625 0.4375 2.0625 0.4375 4 1 C4 2.65 4 4.3 4 6 C2.0625 6.5625 2.0625 6.5625 0 7 C-1 6 -1 6 -1.125 3.5 C-1 1 -1 1 0 0 Z " fill="#616161" transform="translate(46,61)"/>
<path d="M0 0 C-1.75 3.875 -1.75 3.875 -4 5 C-4 4.34 -4 3.68 -4 3 C-6.31 3.33 -8.62 3.66 -11 4 C-11.33 3.34 -11.66 2.68 -12 2 C-10.7625 1.67 -9.525 1.34 -8.25 1 C-7.55390625 0.814375 -6.8578125 0.62875 -6.140625 0.4375 C-4 0 -4 0 0 0 Z " fill="#757575" transform="translate(102,86)"/>
<path d="M0 0 C2.48020497 0.11341491 4.95844969 0.24014686 7.4375 0.375 C8.14455078 0.4059375 8.85160156 0.436875 9.58007812 0.46875 C11.39239188 0.57280629 13.19817988 0.77919892 15 1 C15.33 1.66 15.66 2.32 16 3 C10.26157749 3.20413361 5.39460953 3.27141454 0 1 C0 0.67 0 0.34 0 0 Z " fill="#D9D9D8" transform="translate(44,125)"/>
<path d="M0 0 C0.33 0.99 0.66 1.98 1 3 C3.31847874 3.7166207 5.65319703 4.38242027 8 5 C8.66 5.66 9.32 6.32 10 7 C11.31747324 7.69748583 12.64914193 8.36959957 14 9 C12.02 9 10.04 9 8 9 C8 8.34 8 7.68 8 7 C5.03 6.505 5.03 6.505 2 6 C2 5.34 2 4.68 2 4 C1.34 4 0.68 4 0 4 C0 2.68 0 1.36 0 0 Z " fill="#9B9B9B" transform="translate(82,79)"/>
<path d="M0 0 C0.33 0 0.66 0 1 0 C1 2.97 1 5.94 1 9 C-1.31 10.32 -3.62 11.64 -6 13 C-4.36704731 8.35236542 -4.36704731 8.35236542 -2.4375 6.5 C-0.51406665 4.49293911 -0.36531415 2.70332474 0 0 Z " fill="#B4B4B3" transform="translate(110,45)"/>
<path d="M0 0 C2.45634954 4.73724554 4.31057116 8.56500474 4 14 C3.34 14 2.68 14 2 14 C0.4087311 9.126739 -0.21192221 5.19209404 0 0 Z " fill="#A4A4A3" transform="translate(112,25)"/>
<path d="M0 0 C2.25 0.25 2.25 0.25 4 1 C4 2.98 4 4.96 4 7 C3.01 7 2.02 7 1 7 C1.33 6.01 1.66 5.02 2 4 C0.02 4 -1.96 4 -4 4 C-2.25 1.9375 -2.25 1.9375 0 0 Z " fill="#AAAAA9" transform="translate(100,83)"/>
<path d="M0 0 C2.475 0.495 2.475 0.495 5 1 C5.33 2.32 5.66 3.64 6 5 C5.01 5.66 4.02 6.32 3 7 C0 2.25 0 2.25 0 0 Z " fill="#DFDFDE" transform="translate(43,52)"/>
<path d="M0 0 C0.66 0 1.32 0 2 0 C2.53229326 1.26607607 3.05044544 2.53810412 3.5625 3.8125 C3.85253906 4.52019531 4.14257812 5.22789063 4.44140625 5.95703125 C5 8 5 8 4 11 C0.85041169 7.57653445 0.43820891 4.55737263 0 0 Z " fill="#454545" transform="translate(44,102)"/>
<path d="M0 0 C0 1.65 0 3.3 0 5 C-2.97 4.505 -2.97 4.505 -6 4 C-5.67 3.01 -5.34 2.02 -5 1 C-3 0 -3 0 0 0 Z " fill="#8B8B8B" transform="translate(107,72)"/>
<path d="M0 0 C2.64 0 5.28 0 8 0 C6.48360967 3.03278067 4.01057401 3.61513595 1 5 C0.01 5.33 -0.98 5.66 -2 6 C-1.34 4.02 -0.68 2.04 0 0 Z " fill="#7D7D7D" transform="translate(29,19)"/>
<path d="M0 0 C2.475 0.495 2.475 0.495 5 1 C4.67 2.32 4.34 3.64 4 5 C2.68 4.67 1.36 4.34 0 4 C0 2.68 0 1.36 0 0 Z " fill="#6D6D6D" transform="translate(36,107)"/>
<path d="M0 0 C3.39417765 3.12621626 5.6062718 5.56541027 7 10 C6.34 10 5.68 10 5 10 C0 4.76190476 0 4.76190476 0 0 Z " fill="#919191" transform="translate(15,102)"/>
<path d="M0 0 C0.66 0 1.32 0 2 0 C2 1.65 2 3.3 2 5 C2.99 4.34 3.98 3.68 5 3 C4.1875 5.4375 4.1875 5.4375 3 8 C2.01 8.33 1.02 8.66 0 9 C0 6.03 0 3.06 0 0 Z " fill="#D5D5D4" transform="translate(86,48)"/>
<path d="M0 0 C0.33 0 0.66 0 1 0 C1.22577402 5.4185766 0.46670113 9.77487721 -1 15 C-2.4606285 12.35261084 -3 11.10551666 -3 8 C-2.34 8 -1.68 8 -1 8 C-0.67 5.36 -0.34 2.72 0 0 Z " fill="#909090" transform="translate(84,50)"/>
<path d="M0 0 C1.98 0.66 3.96 1.32 6 2 C5.67 2.66 5.34 3.32 5 4 C3.35 4 1.7 4 0 4 C0 2.68 0 1.36 0 0 Z " fill="#FBFBFB" transform="translate(59,115)"/>
<path d="M0 0 C2.4375 0.8125 2.4375 0.8125 5 2 C5.33 2.99 5.66 3.98 6 5 C4.02 5 2.04 5 0 5 C0 3.35 0 1.7 0 0 Z " fill="#B4B4B3" transform="translate(44,114)"/>
<path d="M0 0 C0.66 0 1.32 0 2 0 C2.625 1.8125 2.625 1.8125 3 4 C2.01 5.485 2.01 5.485 1 7 C0.34 7 -0.32 7 -1 7 C-0.67 4.69 -0.34 2.38 0 0 Z " fill="#FBFBFB" transform="translate(34,87)"/>
<path d="M0 0 C2.31 0.33 4.62 0.66 7 1 C7.33 2.32 7.66 3.64 8 5 C4.5625 4.1875 4.5625 4.1875 1 3 C0.67 2.01 0.34 1.02 0 0 Z " fill="#747474" transform="translate(59,38)"/>
<path d="M0 0 C1.98 0 3.96 0 6 0 C5.67 1.32 5.34 2.64 5 4 C3.0625 3.6875 3.0625 3.6875 1 3 C0.67 2.01 0.34 1.02 0 0 Z " fill="#454545" transform="translate(79,9)"/>
<path d="M0 0 C-0.66 1.32 -1.32 2.64 -2 4 C-3.65 3.67 -5.3 3.34 -7 3 C-5.40442685 -0.19114631 -3.35905282 0 0 0 Z " fill="#686868" transform="translate(68,120)"/>
<path d="M0 0 C1.65 0 3.3 0 5 0 C4.34 1.32 3.68 2.64 3 4 C1.68 4 0.36 4 -1 4 C-0.67 2.68 -0.34 1.36 0 0 Z " fill="#F5F5F5" transform="translate(82,109)"/>
<path d="M0 0 C0.66 0.33 1.32 0.66 2 1 C1.67 2.65 1.34 4.3 1 6 C0.01 6 -0.98 6 -2 6 C-1.125 1.125 -1.125 1.125 0 0 Z " fill="#6D6D6D" transform="translate(65,49)"/>
<path d="M0 0 C2 2 2 2 2 6 C-0.475 5.01 -0.475 5.01 -3 4 C-3 3.34 -3 2.68 -3 2 C-2.01 1.34 -1.02 0.68 0 0 Z " fill="#4D4D4D" transform="translate(45,43)"/>
<path d="M0 0 C1.65 0 3.3 0 5 0 C4.01 1.485 4.01 1.485 3 3 C1.68 2.67 0.36 2.34 -1 2 C-0.67 1.34 -0.34 0.68 0 0 Z M-3 3 C-2.34 3.66 -1.68 4.32 -1 5 C-1.99 5 -2.98 5 -4 5 C-3.67 4.34 -3.34 3.68 -3 3 Z " fill="#515151" transform="translate(30,17)"/>
<path d="M0 0 C2.29633824 3.44450737 2.54016485 5.93812283 3 10 C2.34 10 1.68 10 1 10 C-1.56687367 6.1496895 -0.83288724 4.41430237 0 0 Z " fill="#A4A4A3" transform="translate(41,40)"/>
<path d="M0 0 C0.66 0.33 1.32 0.66 2 1 C1.34 1.66 0.68 2.32 0 3 C0.32198966 6.09926819 0.32198966 6.09926819 1 9 C0.01 9.495 0.01 9.495 -1 10 C-1.66 7.36 -2.32 4.72 -3 2 C-2.01 1.34 -1.02 0.68 0 0 Z " fill="#909090" transform="translate(43,33)"/>
<path d="M0 0 C2.475 0.495 2.475 0.495 5 1 C5.33 1.99 5.66 2.98 6 4 C4.68 4 3.36 4 2 4 C1.34 2.68 0.68 1.36 0 0 Z " fill="#454545" transform="translate(91,10)"/>
<path d="M0 0 C3 3.75 3 3.75 3 6 C0.525 5.01 0.525 5.01 -2 4 C-1.34 2.68 -0.68 1.36 0 0 Z " fill="#D9D9D8" transform="translate(42,111)"/>
<path d="M0 0 C0.66 0.33 1.32 0.66 2 1 C2 2.32 2 3.64 2 5 C0.68 5 -0.64 5 -2 5 C-2 3.68 -2 2.36 -2 1 C-1.34 0.67 -0.68 0.34 0 0 Z " fill="#737373" transform="translate(94,50)"/>
<path d="M0 0 C2.475 0.495 2.475 0.495 5 1 C4.67 1.99 4.34 2.98 4 4 C2.68 3.67 1.36 3.34 0 3 C0 2.01 0 1.02 0 0 Z " fill="#8D8D8D" transform="translate(53,44)"/>
<path d="M0 0 C1.32 0.33 2.64 0.66 4 1 C4.33 2.32 4.66 3.64 5 5 C3.68 4.67 2.36 4.34 1 4 C0.67 2.68 0.34 1.36 0 0 Z " fill="#454545" transform="translate(60,35)"/>
</svg>
