<?xml version="1.0" encoding="UTF-8"?>
<svg version="1.1" xmlns="http://www.w3.org/2000/svg" width="128" height="128">
<path d="M0 0 C42.24 0 84.48 0 128 0 C128 42.24 128 84.48 128 128 C85.76 128 43.52 128 0 128 C0 85.76 0 43.52 0 0 Z " fill="#FBFBFB" transform="translate(0,0)"/>
<path d="M0 0 C2.97 1.32 5.94 2.64 9 4 C9 4.66 9 5.32 9 6 C9.9075 6.20625 10.815 6.4125 11.75 6.625 C16.00133003 8.42363963 17.02433317 9.82914781 19 14 C20.35845236 21.91702002 20.0348276 29.94896523 19.6875 37.9375 C19.65205078 39.04673828 19.61660156 40.15597656 19.58007812 41.29882812 C19.53689453 42.36423828 19.49371094 43.42964844 19.44921875 44.52734375 C19.41143311 45.48374756 19.37364746 46.44015137 19.3347168 47.42553711 C18.99541004 50.03530352 18.32205882 51.74476227 17 54 C18.98 54 20.96 54 23 54 C22.690625 52.081875 22.690625 52.081875 22.375 50.125 C22.0234375 47.9453125 22.0234375 47.9453125 22 46 C24 44 24 44 27.3125 43.1875 C31.62875101 41.79752086 33.34531072 40.66971753 36 37 C36.48044063 34.7004551 36.68444274 32.5303442 36.76171875 30.18359375 C37.02817715 27.74178641 37.79296255 26.12073113 39 24 C38.071875 24.495 37.14375 24.99 36.1875 25.5 C33 27 33 27 30 27 C30.33 25.68 30.66 24.36 31 23 C31.66 23 32.32 23 33 23 C33 20.36 33 17.72 33 15 C34.32 14.67 35.64 14.34 37 14 C36.34 13.29875 35.68 12.5975 35 11.875 C32.69766797 8.56539771 32.63369844 6.93774177 33 3 C36.24308238 1.98074554 37.62697233 1.84249943 40.8125 3.1875 C41.534375 3.785625 42.25625 4.38375 43 5 C43 6.32 43 7.64 43 9 C43.99 9.33 44.98 9.66 46 10 C46.88040196 12.54698226 47.5759039 14.95191274 48.1875 17.5625 C48.36474609 18.27341797 48.54199219 18.98433594 48.72460938 19.71679688 C49.16122323 21.47505269 49.58210434 23.23720155 50 25 C53.95457554 24.30753213 55.17809988 22.70381826 57.6484375 19.57421875 C59.82076524 17.04402199 62.03024618 15.48487691 65 14 C67.79532616 14.66555385 69.61447743 15.74700081 72 17.3125 C72.99 17.6528125 72.99 17.6528125 74 18 C75.175625 17.2884375 75.175625 17.2884375 76.375 16.5625 C79 15 79 15 82.1875 15.0625 C85 16 85 16 86.12890625 17.734375 C87.84788872 22.20527112 88.15961825 26.34272239 87 31 C83.48528219 35.43047915 79.41368462 39.19543846 74 41 C74.4021875 42.8253125 74.4021875 42.8253125 74.8125 44.6875 C75.24956514 48.23397144 75.23782213 48.69011056 72.9375 51.6875 C71.968125 52.450625 70.99875 53.21375 70 54 C65.17483008 57.8125066 65.17483008 57.8125066 62 63 C60.55329055 64.57251027 59.04976856 65.95780174 57.4206543 67.33911133 C55.66185646 69.39532403 55.64682924 70.34276301 55.70703125 73.01171875 C55.71669922 73.76904297 55.72636719 74.52636719 55.73632812 75.30664062 C55.76146484 76.09232422 55.78660156 76.87800781 55.8125 77.6875 C55.82603516 78.48478516 55.83957031 79.28207031 55.85351562 80.10351562 C55.88882911 82.06929967 55.94263553 84.03473582 56 86 C56.99 86.33 57.98 86.66 59 87 C63.31873028 92.55644306 63.59161823 98.60374101 63.4375 105.375 C63.44458984 106.27605469 63.45167969 107.17710938 63.45898438 108.10546875 C63.41098699 113.03073909 63.41098699 113.03073909 63 115 C62.01 115.66 61.02 116.32 60 117 C58.55577774 119.40485798 58.55577774 119.40485798 57.3125 122.125 C56.87550781 123.03507812 56.43851563 123.94515625 55.98828125 124.8828125 C55.66214844 125.58148438 55.33601563 126.28015625 55 127 C50.21711921 127.19984717 45.43673686 127.34387445 40.65063477 127.43945312 C39.02780771 127.47934421 37.40526176 127.53368224 35.78344727 127.60351562 C25.76831516 128.023515 19.03257409 127.8502117 11.05981445 120.99487305 C10.38007568 120.33656494 9.70033691 119.67825684 9 119 C8.45239014 118.51893799 7.90478027 118.03787598 7.34057617 117.54223633 C-0.55612237 110.29844275 -2.32266811 98.68497123 -3.359375 88.453125 C-3.60892224 78.22168821 -1.50042074 68.19651195 3 59 C3.33 58.21625 3.66 57.4325 4 56.625 C5 55 5 55 8 54 C13.78525456 47.53412726 13.21618957 41.83194539 13.24023438 33.4934082 C13.2499826 31.44116321 13.28104024 29.38990251 13.3125 27.33789062 C13.31765625 26.04947266 13.3228125 24.76105469 13.328125 23.43359375 C13.3374707 22.24822021 13.34681641 21.06284668 13.35644531 19.84155273 C13.23881836 18.90384033 13.12119141 17.96612793 13 17 C12.01 16.34 11.02 15.68 10 15 C10 14.34 10 13.68 10 13 C8.906875 12.9175 7.81375 12.835 6.6875 12.75 C3 12 3 12 1.125 10.375 C-0.35053529 7.25998104 -0.74174523 4.42187574 -1 1 C-0.67 0.67 -0.34 0.34 0 0 Z " fill="#A7A6A7" transform="translate(26,1)"/>
<path d="M0 0 C3.36241563 0.45438049 6.04009971 1.35561095 9 3 C9 4.32 9 5.64 9 7 C9.99 7.33 10.98 7.66 12 8 C12.88040196 10.54698226 13.5759039 12.95191274 14.1875 15.5625 C14.36474609 16.27341797 14.54199219 16.98433594 14.72460938 17.71679688 C15.16122323 19.47505269 15.58210434 21.23720155 16 23 C19.95457554 22.30753213 21.17809988 20.70381826 23.6484375 17.57421875 C25.82076524 15.04402199 28.03024618 13.48487691 31 12 C33.79532616 12.66555385 35.61447743 13.74700081 38 15.3125 C38.99 15.6528125 38.99 15.6528125 40 16 C40.78375 15.525625 41.5675 15.05125 42.375 14.5625 C45 13 45 13 48.1875 13.0625 C51 14 51 14 52.12890625 15.734375 C53.84788872 20.20527112 54.15961825 24.34272239 53 29 C49.48528219 33.43047915 45.41368462 37.19543846 40 39 C40.4021875 40.8253125 40.4021875 40.8253125 40.8125 42.6875 C41.24956514 46.23397144 41.23782213 46.69011056 38.9375 49.6875 C37.968125 50.450625 36.99875 51.21375 36 52 C31.17483008 55.8125066 31.17483008 55.8125066 28 61 C26.55329055 62.57251027 25.04976856 63.95780174 23.4206543 65.33911133 C21.66185646 67.39532403 21.64682924 68.34276301 21.70703125 71.01171875 C21.71669922 71.76904297 21.72636719 72.52636719 21.73632812 73.30664062 C21.76146484 74.09232422 21.78660156 74.87800781 21.8125 75.6875 C21.82603516 76.48478516 21.83957031 77.28207031 21.85351562 78.10351562 C21.88882911 80.06929967 21.94263553 82.03473582 22 84 C19 83 19 83 17 80 C14.79274927 79.63637182 14.79274927 79.63637182 12.375 79.8125 C11.55773437 79.83957031 10.74046875 79.86664063 9.8984375 79.89453125 C8.95871094 79.94673828 8.95871094 79.94673828 8 80 C8.76940683 76.5080767 10.16068533 74.06552445 12 71 C12.69579454 68.80869466 12.69579454 68.80869466 13 67 C12.113125 67.020625 11.22625 67.04125 10.3125 67.0625 C7.37830369 67.00713781 4.84506304 66.6694266 2 66 C1.34 66.99 0.68 67.98 0 69 C-1.32 68.67 -2.64 68.34 -4 68 C-4.1875 65.125 -4.1875 65.125 -4 62 C-3.01 61.34 -2.02 60.68 -1 60 C-0.731875 59.236875 -0.46375 58.47375 -0.1875 57.6875 C1.45866252 53.9619743 3.81107316 52.51043177 7 50 C7.495 49.01 7.495 49.01 8 48 C3.89288229 49.86687169 1.11837524 51.77025422 -2 55 C-2.66 55 -3.32 55 -4 55 C-4.66 56.98 -5.32 58.96 -6 61 C-8.97 61.495 -8.97 61.495 -12 62 C-12.495 59.525 -12.495 59.525 -13 57 C-14.485 57.495 -14.485 57.495 -16 58 C-15.67 58.763125 -15.34 59.52625 -15 60.3125 C-14 63 -14 63 -14 66 C-18.53701494 67.45184478 -22.18061476 68.23509196 -27 68 C-26.40323699 64.32105439 -25.37949143 61.37838414 -23.6875 58.0625 C-23.07455078 56.84240234 -23.07455078 56.84240234 -22.44921875 55.59765625 C-21 53 -21 53 -18.8515625 50.25 C-16.41526201 45.97362446 -16.50954449 42.75811698 -16.6875 37.9375 C-16.70200195 36.75317383 -16.70200195 36.75317383 -16.71679688 35.54492188 C-16.7934949 31.56662845 -17.14237717 27.89626924 -18 24 C-17.68770276 22.66158328 -17.35169068 21.32860925 -17 20 C-16.75079639 15.43126709 -16.99502261 12.13526586 -19 8 C-16.4699319 9.7139171 -15.15977638 11.17958537 -14.56884766 14.21386719 C-13.97088918 21.49417955 -13.99533517 28.64270895 -14.3125 35.9375 C-14.34794922 37.04673828 -14.38339844 38.15597656 -14.41992188 39.29882812 C-14.46310547 40.36423828 -14.50628906 41.42964844 -14.55078125 42.52734375 C-14.58856689 43.48374756 -14.62635254 44.44015137 -14.6652832 45.42553711 C-15.00458996 48.03530352 -15.67794118 49.74476227 -17 52 C-15.02 52 -13.04 52 -11 52 C-11.20625 50.72125 -11.4125 49.4425 -11.625 48.125 C-11.9765625 45.9453125 -11.9765625 45.9453125 -12 44 C-10 42 -10 42 -6.6875 41.1875 C-2.37124899 39.79752086 -0.65468928 38.66971753 2 35 C2.48044063 32.7004551 2.68444274 30.5303442 2.76171875 28.18359375 C3.02817715 25.74178641 3.79296255 24.12073113 5 22 C4.071875 22.495 3.14375 22.99 2.1875 23.5 C-1 25 -1 25 -4 25 C-3.67 23.68 -3.34 22.36 -3 21 C-2.34 21 -1.68 21 -1 21 C-1 18.36 -1 15.72 -1 13 C0.32 12.67 1.64 12.34 3 12 C2.34 11.29875 1.68 10.5975 1 9.875 C-1.30871428 6.55622323 -1.44926708 4.95355026 -1 1 C-0.67 0.67 -0.34 0.34 0 0 Z " fill="#A7A6A7" transform="translate(60,3)"/>
<path d="M0 0 C2.5300681 1.7139171 3.84022362 3.17958537 4.43115234 6.21386719 C5.02911082 13.49417955 5.00466483 20.64270895 4.6875 27.9375 C4.65205078 29.04673828 4.61660156 30.15597656 4.58007812 31.29882812 C4.53689453 32.36423828 4.49371094 33.42964844 4.44921875 34.52734375 C4.41143311 35.48374756 4.37364746 36.44015137 4.3347168 37.42553711 C3.99541004 40.03530352 3.32205882 41.74476227 2 44 C3.98 44 5.96 44 8 44 C7.79375 42.72125 7.5875 41.4425 7.375 40.125 C7.0234375 37.9453125 7.0234375 37.9453125 7 36 C9 34 9 34 12.4375 33.125 C16.1419745 31.95516595 17.13501059 31.29115778 19 28 C19.66 28.33 20.32 28.66 21 29 C20.67 30.32 20.34 31.64 20 33 C21.299375 32.9175 22.59875 32.835 23.9375 32.75 C29.08277795 32.75 33.78619802 33.95251821 38 37 C38.75 39.140625 38.75 39.140625 39 41 C38.34 41 37.68 41 37 41 C37.99 41.99 38.98 42.98 40 44 C40.26039062 43.40703125 40.52078125 42.8140625 40.7890625 42.203125 C42.07718037 39.85958151 43.36038496 38.49189423 45.375 36.75 C45.96023437 36.22921875 46.54546875 35.7084375 47.1484375 35.171875 C49 34 49 34 53 34 C52.8125 35.875 52.8125 35.875 52 38 C51.195625 38.28875 50.39125 38.5775 49.5625 38.875 C46.71095623 39.76987952 46.71095623 39.76987952 45.875 42.8125 C45.58625 43.864375 45.2975 44.91625 45 46 C43.75 48.8125 43.75 48.8125 42 51 C38.8125 51.8125 38.8125 51.8125 36 52 C34.29633374 58.08251096 33.86746348 62.77104914 35 69 C35.99 68.67 36.98 68.34 38 68 C37.979375 66.72125 37.95875 65.4425 37.9375 64.125 C37.875 60.25 37.875 60.25 39 58 C39.99 58.495 39.99 58.495 41 59 C41 64.61 41 70.22 41 76 C38 75 38 75 36 72 C33.79274927 71.63637182 33.79274927 71.63637182 31.375 71.8125 C30.55773437 71.83957031 29.74046875 71.86664063 28.8984375 71.89453125 C27.95871094 71.94673828 27.95871094 71.94673828 27 72 C27.76940683 68.5080767 29.16068533 66.06552445 31 63 C31.69579454 60.80869466 31.69579454 60.80869466 32 59 C31.113125 59.020625 30.22625 59.04125 29.3125 59.0625 C26.37830369 59.00713781 23.84506304 58.6694266 21 58 C20.34 58.99 19.68 59.98 19 61 C17.68 60.67 16.36 60.34 15 60 C14.8125 57.125 14.8125 57.125 15 54 C15.99 53.34 16.98 52.68 18 52 C18.268125 51.236875 18.53625 50.47375 18.8125 49.6875 C20.45866252 45.9619743 22.81107316 44.51043177 26 42 C26.495 41.01 26.495 41.01 27 40 C22.89288229 41.86687169 20.11837524 43.77025422 17 47 C16.34 47 15.68 47 15 47 C14.34 48.98 13.68 50.96 13 53 C10.03 53.495 10.03 53.495 7 54 C6.505 51.525 6.505 51.525 6 49 C4.515 49.495 4.515 49.495 3 50 C3.33 50.763125 3.66 51.52625 4 52.3125 C5 55 5 55 5 58 C0.46298506 59.45184478 -3.18061476 60.23509196 -8 60 C-7.40323699 56.32105439 -6.37949143 53.37838414 -4.6875 50.0625 C-4.07455078 48.84240234 -4.07455078 48.84240234 -3.44921875 47.59765625 C-2 45 -2 45 0.1484375 42.25 C2.58473799 37.97362446 2.49045551 34.75811698 2.3125 29.9375 C2.29799805 28.75317383 2.29799805 28.75317383 2.28320312 27.54492188 C2.2065051 23.56662845 1.85762283 19.89626924 1 16 C1.31229724 14.66158328 1.64830932 13.32860925 2 12 C2.24920361 7.43126709 2.00497739 4.13526586 0 0 Z " fill="#D1D1D1" transform="translate(41,11)"/>
<path d="M0 0 C3.36241563 0.45438049 6.04009971 1.35561095 9 3 C9 4.32 9 5.64 9 7 C9.99 7.33 10.98 7.66 12 8 C12.88040196 10.54698226 13.5759039 12.95191274 14.1875 15.5625 C14.36474609 16.27341797 14.54199219 16.98433594 14.72460938 17.71679688 C15.16122323 19.47505269 15.58210434 21.23720155 16 23 C19.95457554 22.30753213 21.17809988 20.70381826 23.6484375 17.57421875 C25.82076524 15.04402199 28.03024618 13.48487691 31 12 C33.79532616 12.66555385 35.61447743 13.74700081 38 15.3125 C38.66 15.539375 39.32 15.76625 40 16 C40.78375 15.525625 41.5675 15.05125 42.375 14.5625 C45 13 45 13 48.1875 13.0625 C51 14 51 14 52.4375 15.8125 C53.07366994 18.28649422 52.85039667 19.61888932 52 22 C51.01 20.02 50.02 18.04 49 16 C46.71163778 15.58013054 46.71163778 15.58013054 44 16 C41.31232422 18.43750025 41.31232422 18.43750025 39 21 C38.34 21 37.68 21 37 21 C37 22.32 37 23.64 37 25 C39.97 24.01 42.94 23.02 46 22 C47 23 47 23 47.0625 25.5625 C47.041875 26.366875 47.02125 27.17125 47 28 C41.76279156 31.75712779 38.76925448 32.34002008 32.4296875 31.34765625 C29.76852449 30.88864376 29.76852449 30.88864376 26.125 31.1875 C23 31 23 31 20.5625 29 C20.046875 28.34 19.53125 27.68 19 27 C19.57344937 29.86724686 19.8614515 30.8614515 22 33 C22.39764263 34.98821313 22.73775349 36.98944339 23 39 C20.9375 39.8125 20.9375 39.8125 18 40 C12.01119145 37.37989626 9.34428605 32.86799552 7 27 C6.34 27.33 5.68 27.66 5 28 C5 30.64 5 33.28 5 36 C4.01 35.67 3.02 35.34 2 35 C2.11509661 33.58249437 2.24253658 32.16598831 2.375 30.75 C2.44460937 29.96109375 2.51421875 29.1721875 2.5859375 28.359375 C3.01507113 25.914123 3.78600638 24.15163097 5 22 C4.071875 22.495 3.14375 22.99 2.1875 23.5 C-1 25 -1 25 -4 25 C-3.67 23.68 -3.34 22.36 -3 21 C-2.34 21 -1.68 21 -1 21 C-1 18.36 -1 15.72 -1 13 C0.32 12.67 1.64 12.34 3 12 C2.34 11.29875 1.68 10.5975 1 9.875 C-1.30871428 6.55622323 -1.44926708 4.95355026 -1 1 C-0.67 0.67 -0.34 0.34 0 0 Z " fill="#BFBFBF" transform="translate(60,3)"/>
<path d="M0 0 C4.455 1.98 4.455 1.98 9 4 C9 4.66 9 5.32 9 6 C10.3921875 6.2784375 10.3921875 6.2784375 11.8125 6.5625 C15 8 15 8 16.875 11.1875 C18.34990471 16.18578819 18.32115644 20.14442945 17.4375 25.25 C16.77043265 28.08021919 16.77043265 28.08021919 18 31 C18.84961973 41.77618952 19.19883014 49.43873142 12 58 C10.80490693 60.29176672 9.93104742 62.57927671 9 65 C8.34 66.65 7.68 68.3 7 70 C13.435 69.01 13.435 69.01 20 68 C18.515 63.545 18.515 63.545 17 59 C18.98 58.505 18.98 58.505 21 58 C22 59 22 59 22.0625 61.5625 C22.041875 62.366875 22.02125 63.17125 22 64 C24.97017694 63.37189827 24.97017694 63.37189827 28 62 C29.15521502 59.52869082 29.15521502 59.52869082 30 57 C31.8125 56 31.8125 56 34 55 C34.845625 54.13375 35.69125 53.2675 36.5625 52.375 C39 50 39 50 42 50 C40.83829209 53.48512372 39.23310384 54.45742454 36.41796875 56.6640625 C34.49404462 58.47668523 33.94516711 60.56957029 33 63 C31.02 63.495 31.02 63.495 29 64 C29.33 66.97 29.66 69.94 30 73 C28.515 73.495 28.515 73.495 27 74 C26.67 75.65 26.34 77.3 26 79 C23.5625 78.625 23.5625 78.625 21 78 C20.505 77.01 20.505 77.01 20 76 C18.10424749 75.97278824 16.20838021 75.95350864 14.3125 75.9375 C12.72888672 75.92009766 12.72888672 75.92009766 11.11328125 75.90234375 C8.27589738 75.99134575 5.7561081 76.35060162 3 77 C1.91620226 71.6893911 2.16237263 68.10452048 4 63 C4.495 62.505 4.495 62.505 5 62 C5.0825 60.9275 5.165 59.855 5.25 58.75 C6.14831921 54.25840394 7.66470174 53.00990331 11 50 C14.24570059 45.08597459 13.33415941 39.08140347 13.31567383 33.41796875 C13.31249917 31.37446467 13.33604429 29.33238929 13.36132812 27.2890625 C13.36197266 26.00515625 13.36261719 24.72125 13.36328125 23.3984375 C13.36626221 22.21942871 13.36924316 21.04041992 13.37231445 19.82568359 C13.24945068 18.89320801 13.12658691 17.96073242 13 17 C12.01 16.34 11.02 15.68 10 15 C10 14.34 10 13.68 10 13 C8.906875 12.9175 7.81375 12.835 6.6875 12.75 C3 12 3 12 1.125 10.375 C-0.35053529 7.25998104 -0.74174523 4.42187574 -1 1 C-0.67 0.67 -0.34 0.34 0 0 Z " fill="#A5A5A5" transform="translate(26,1)"/>
<path d="M0 0 C0 0.66 0 1.32 0 2 C0.5775 2.185625 1.155 2.37125 1.75 2.5625 C5.03125153 4.65885514 6.61820112 7.44581471 8 11 C8.4553173 14.33495706 8.38277385 17.57985358 8.25 20.9375 C8.22292969 22.24944336 8.22292969 22.24944336 8.1953125 23.58789062 C8.14858353 25.72574108 8.07685441 27.86302045 8 30 C7.01 30 6.02 30 5 30 C5 28.68 5 27.36 5 26 C1.72226496 26.75150023 1.72226496 26.75150023 0 30 C-7.46397299 29.38819894 -7.46397299 29.38819894 -9.7421875 27.73828125 C-11.34605384 25.52175789 -11.37130863 24.21424433 -11.3125 21.5 C-11.30863281 20.7265625 -11.30476563 19.953125 -11.30078125 19.15625 C-11 17 -11 17 -9 14 C-8.01 14 -7.02 14 -6 14 C-6.495 11.525 -6.495 11.525 -7 9 C-5.68 9 -4.36 9 -3 9 C-3 9.66 -3 10.32 -3 11 C-2.01 11 -1.02 11 0 11 C-0.49756092 8.24358584 -0.49756092 8.24358584 -2 6 C-3.51928038 5.92820036 -5.04167482 5.91607993 -6.5625 5.9375 C-7.80193359 5.95103516 -7.80193359 5.95103516 -9.06640625 5.96484375 C-10.02353516 5.98224609 -10.02353516 5.98224609 -11 6 C-11.66 4.35 -12.32 2.7 -13 1 C-11.59054634 0.43983252 -10.1719969 -0.09748502 -8.75 -0.625 C-7.96109375 -0.92664063 -7.1721875 -1.22828125 -6.359375 -1.5390625 C-3.50082285 -2.09752136 -2.41040161 -1.53690745 0 0 Z " fill="#7C7C7C" transform="translate(79,84)"/>
<path d="M0 0 C-0.1875 1.875 -0.1875 1.875 -1 4 C-1.804375 4.28875 -2.60875 4.5775 -3.4375 4.875 C-6.28904377 5.76987952 -6.28904377 5.76987952 -7.125 8.8125 C-7.41375 9.864375 -7.7025 10.91625 -8 12 C-9.25 14.8125 -9.25 14.8125 -11 17 C-14.1875 17.8125 -14.1875 17.8125 -17 18 C-18.70366626 24.08251096 -19.13253652 28.77104914 -18 35 C-16.515 34.505 -16.515 34.505 -15 34 C-15.020625 32.72125 -15.04125 31.4425 -15.0625 30.125 C-15.125 26.25 -15.125 26.25 -14 24 C-13.34 24.33 -12.68 24.66 -12 25 C-12 30.61 -12 36.22 -12 42 C-15 41 -15 41 -17 38 C-19.20725073 37.63637182 -19.20725073 37.63637182 -21.625 37.8125 C-22.44226563 37.83957031 -23.25953125 37.86664063 -24.1015625 37.89453125 C-25.04128906 37.94673828 -25.04128906 37.94673828 -26 38 C-25.23059317 34.5080767 -23.83931467 32.06552445 -22 29 C-21.30420546 26.80869466 -21.30420546 26.80869466 -21 25 C-22.3303125 25.0309375 -22.3303125 25.0309375 -23.6875 25.0625 C-26.62169631 25.00713781 -29.15493696 24.6694266 -32 24 C-32.66 24.99 -33.32 25.98 -34 27 C-35.32 26.67 -36.64 26.34 -38 26 C-38.1875 23.125 -38.1875 23.125 -38 20 C-37.01 19.34 -36.02 18.68 -35 18 C-34.71125 17.21625 -34.4225 16.4325 -34.125 15.625 C-32.63109889 12.13923075 -31.37345553 10.76006375 -28 9 C-23.24515398 9.77964074 -18.97945419 12.38848319 -15 15 C-14.855625 14.01 -14.71125 13.02 -14.5625 12 C-12.75312041 5.54170352 -6.614918 0 0 0 Z " fill="#D0D0D0" transform="translate(94,45)"/>
<path d="M0 0 C2.31850262 2.08665235 3.83297551 3.52278716 4.875 6.5 C6.46594588 10.03543528 8.64131848 11.18631198 12 13 C13.32 13 14.64 13 16 13 C14.87302957 8.03088634 14.87302957 8.03088634 12 4 C12.375 1.875 12.375 1.875 13 0 C13.680625 0.99 13.680625 0.99 14.375 2 C17.86879259 4.66193721 20.12033249 4.19753713 24.3828125 4.0078125 C28.18067638 3.99647559 31.37156991 4.9249096 35 6 C35 7.32 35 8.64 35 10 C27.71428571 13.42857143 27.71428571 13.42857143 23 13 C22.87625 13.5775 22.7525 14.155 22.625 14.75 C21.24004819 19.73582652 18.75551659 22.44214218 15 26 C14.01 25.67 13.02 25.34 12 25 C12 24.34 12 23.68 12 23 C12.66 23 13.32 23 14 23 C13.55966008 21.01979579 13.55966008 21.01979579 12 19 C6.19175888 16.14682892 1.40967041 15.5993956 -5 16 C-5.33 15.34 -5.66 14.68 -6 14 C-5.0625 11.875 -5.0625 11.875 -4 10 C-3.01 10 -2.02 10 -1 10 C-1.20625 8.72125 -1.4125 7.4425 -1.625 6.125 C-1.9765625 3.9453125 -1.9765625 3.9453125 -2 2 C-1.34 1.34 -0.68 0.68 0 0 Z " fill="#AAA9AA" transform="translate(66,29)"/>
<path d="M0 0 C3.37462715 0.54723683 5.08235 1.0549 8 3 C11.61924935 3.30124549 15.21726922 3.37851385 18.84765625 3.4609375 C22 4 22 4 23.42578125 5.8359375 C24.16207395 8.61080932 24.12984811 11.14334168 24 14 C28.40086574 14.77662337 31.6626973 14.91311636 36 14 C37.67542976 14.28604898 39.34385343 14.61781233 41 15 C42.32 15 43.64 15 45 15 C44.67 15.99 44.34 16.98 44 18 C37.71937997 19.13051161 37.71937997 19.13051161 34.30859375 18.51171875 C30.93559193 17.99003842 27.92123244 18.03324742 24.52807617 18.16821289 C11.40217769 18.62687316 11.40217769 18.62687316 5.70703125 14.6953125 C2.62105974 11.63052615 0.29689625 8.16646553 -1 4 C-0.6171875 1.72265625 -0.6171875 1.72265625 0 0 Z " fill="#FCFCFC" transform="translate(34,101)"/>
<path d="M0 0 C-1.16170791 3.48512372 -2.76689616 4.45742454 -5.58203125 6.6640625 C-7.50595538 8.47668523 -8.05483289 10.56957029 -9 13 C-10.32 13.33 -11.64 13.66 -13 14 C-12.67 16.97 -12.34 19.94 -12 23 C-12.99 23.33 -13.98 23.66 -15 24 C-15.33 25.65 -15.66 27.3 -16 29 C-18.4375 28.625 -18.4375 28.625 -21 28 C-21.33 27.34 -21.66 26.68 -22 26 C-23.89575251 25.97278824 -25.79161979 25.95350864 -27.6875 25.9375 C-29.27111328 25.92009766 -29.27111328 25.92009766 -30.88671875 25.90234375 C-33.72410262 25.99134575 -36.2438919 26.35060162 -39 27 C-40.07986163 21.70867802 -39.92608479 18.06864418 -38 13 C-37.34 12.67 -36.68 12.34 -36 12 C-36.33 14.64 -36.66 17.28 -37 20 C-32.05 19.34 -27.1 18.68 -22 18 C-23.485 13.545 -23.485 13.545 -25 9 C-23.68 8.67 -22.36 8.34 -21 8 C-20 9 -20 9 -19.9375 11.5625 C-19.958125 12.366875 -19.97875 13.17125 -20 14 C-17.02982306 13.37189827 -17.02982306 13.37189827 -14 12 C-12.84478498 9.52869082 -12.84478498 9.52869082 -12 7 C-10.1875 6 -10.1875 6 -8 5 C-7.154375 4.13375 -6.30875 3.2675 -5.4375 2.375 C-3 0 -3 0 0 0 Z " fill="#807F80" transform="translate(68,51)"/>
<path d="M0 0 C0.33 0 0.66 0 1 0 C1.125 3.375 1.125 3.375 1 7 C0.34 7.66 -0.32 8.32 -1 9 C-1.46486718 12.12196336 -1.46486718 12.12196336 -1.625 15.625 C-1.69976563 16.81351563 -1.77453125 18.00203125 -1.8515625 19.2265625 C-1.90054687 20.14179687 -1.94953125 21.05703125 -2 22 C-1.34 21.67 -0.68 21.34 0 21 C1.87379605 20.92966231 3.75001102 20.9156978 5.625 20.9375 C7.12933594 20.95103516 7.12933594 20.95103516 8.6640625 20.96484375 C9.43492188 20.97644531 10.20578125 20.98804687 11 21 C11.33 21.66 11.66 22.32 12 23 C11.54625 23.433125 11.0925 23.86625 10.625 24.3125 C8.79975666 26.10798342 8.79975666 26.10798342 7 29 C5.68 29 4.36 29 3 29 C3.7734375 29.86625 3.7734375 29.86625 4.5625 30.75 C6 33 6 33 5.6875 35.25 C5.460625 35.8275 5.23375 36.405 5 37 C-0.75 36.125 -0.75 36.125 -3 35 C-3.33 39.95 -3.66 44.9 -4 50 C-10.19146248 37.61707504 -8.85441608 23.94733401 -5 11 C-4.12607265 8.55386021 -3.14548387 6.3407714 -2 4 C-1.608125 3.195625 -1.21625 2.39125 -0.8125 1.5625 C-0.544375 1.046875 -0.27625 0.53125 0 0 Z " fill="#ADADAD" transform="translate(31,56)"/>
<path d="M0 0 C0.33 0.99 0.66 1.98 1 3 C2.9490625 2.87625 2.9490625 2.87625 4.9375 2.75 C10.08277795 2.75 14.78619802 3.95251821 19 7 C19.75 9.140625 19.75 9.140625 20 11 C19.34 11 18.68 11 18 11 C18.99 12.485 18.99 12.485 20 14 C19.625 16.6875 19.625 16.6875 19 19 C15.49518401 18.35096 13.00516626 16.87822891 10 15 C8.67391178 14.31903578 7.34313399 13.64669414 6 13 C6.66 12.01 7.32 11.02 8 10 C3.89288229 11.86687169 1.11837524 13.77025422 -2 17 C-2.66 17 -3.32 17 -4 17 C-4.66 18.98 -5.32 20.96 -6 23 C-6.66 22.67 -7.32 22.34 -8 22 C-7.773125 21.29875 -7.54625 20.5975 -7.3125 19.875 C-6.90490372 16.12511425 -8.31211723 14.30543709 -10 11 C-9.6875 8.625 -9.6875 8.625 -9 7 C-8.401875 7.226875 -7.80375 7.45375 -7.1875 7.6875 C-4.97670763 8.25621612 -4.97670763 8.25621612 -3.375 6.875 C-1.77636457 4.6950426 -0.89338069 2.54269889 0 0 Z " fill="#A7A6A7" transform="translate(60,41)"/>
<path d="M0 0 C3.36160038 1.12053346 3.60580864 1.43492763 5.16015625 4.4140625 C7.48551829 9.3841496 7.5606278 13.96532043 7.4375 19.375 C7.44458984 20.27605469 7.45167969 21.17710938 7.45898438 22.10546875 C7.41098699 27.03073909 7.41098699 27.03073909 7 29 C6.01 29.66 5.02 30.32 4 31 C2.55577774 33.40485798 2.55577774 33.40485798 1.3125 36.125 C0.87550781 37.03507812 0.43851563 37.94515625 -0.01171875 38.8828125 C-0.33785156 39.58148438 -0.66398437 40.28015625 -1 41 C-2.65 41 -4.3 41 -6 41 C-4.43909056 37.16867684 -1.8924866 34.8924866 1 32 C1.495 30.515 1.495 30.515 2 29 C-1.27773504 29.75150023 -1.27773504 29.75150023 -3 33 C-4.32 32.67 -5.64 32.34 -7 32 C-6.01 31.67 -5.02 31.34 -4 31 C-3.67 30.34 -3.34 29.68 -3 29 C-4.03125 29.185625 -5.0625 29.37125 -6.125 29.5625 C-9.76776015 29.97377937 -12.43851029 29.67837899 -16 29 C-16.33 29.33 -16.66 29.66 -17 30 C-23.72 29.28 -23.72 29.28 -25 28 C-25 25.33333333 -25 22.66666667 -25 20 C-27.34167715 17.65832285 -33.31316533 18.67041653 -36.484375 18.57421875 C-40.44612174 17.92713345 -42.13517866 16.73907536 -45 14 C-40.125 14.875 -40.125 14.875 -39 16 C-35.98902586 16.03188626 -32.99004948 15.9314875 -29.98046875 15.83984375 C-27.00409438 15.99977999 -25.41888067 16.29155981 -23 18 C-21.768606 21.69418201 -22.35567236 24.2056261 -23 28 C-21.02 28 -19.04 28 -17 28 C-17.165 27.21625 -17.33 26.4325 -17.5 25.625 C-18.12960847 21.06033858 -18.08180527 16.59927399 -18 12 C-16.68 11.34 -15.36 10.68 -14 10 C-13.505 17.425 -13.505 17.425 -13 25 C-9.7 25.33 -6.4 25.66 -3 26 C-2.34 25.01 -1.68 24.02 -1 23 C-0.01 23 0.98 23 2 23 C2.66 24.32 3.32 25.64 4 27 C4.10890711 23.99900412 4.18773555 21.00203622 4.25 18 C4.28351563 17.16082031 4.31703125 16.32164063 4.3515625 15.45703125 C4.44844251 9.20827029 3.16893002 5.38967625 0 0 Z " fill="#BCBBBC" transform="translate(82,87)"/>
<path d="M0 0 C0.556875 0.61875 1.11375 1.2375 1.6875 1.875 C4.0765244 4.07031972 5.97306521 4.93648237 9 6 C9.33 6.33 9.66 6.66 10 7 C11.73417405 7.07516195 13.47135207 7.08315772 15.20703125 7.0625 C16.7993457 7.05089844 16.7993457 7.05089844 18.42382812 7.0390625 C20.67122552 7.0131559 22.91862138 6.98711565 25.16601562 6.9609375 C26.23142578 6.95320313 27.29683594 6.94546875 28.39453125 6.9375 C29.86176636 6.92009766 29.86176636 6.92009766 31.35864258 6.90234375 C33.75640894 6.99099395 35.70647546 7.34407779 38 8 C40.76922665 8.27169771 43.18972102 8.18130832 46 8 C46.66 7.01 47.32 6.02 48 5 C48.99 5 49.98 5 51 5 C50.84756033 7.66769422 50.55349011 9.44334709 48.6328125 11.375 C47.10452176 12.60348251 45.55299484 13.80289981 44 15 C43.67 15.66 43.34 16.32 43 17 C41.35 17 39.7 17 38 17 C37.505 15.515 37.505 15.515 37 14 C34.53990037 12.76995019 32.86827194 12.86685973 30.125 12.875 C29.26132812 12.87242188 28.39765625 12.86984375 27.5078125 12.8671875 C25.17979961 12.9904779 23.24035484 13.3982518 21 14 C11.90383325 14.67379013 6.18543745 9.93400038 -1 5 C-0.67 3.35 -0.34 1.7 0 0 Z " fill="#838383" transform="translate(33,111)"/>
<path d="M0 0 C6 9 6 9 6 12 C6.7425 12.268125 7.485 12.53625 8.25 12.8125 C10.86636554 13.94229421 12.80187111 15.20893202 15 17 C9.51563098 16.19347514 4.66887488 14.28035402 1 10 C0.67 11.32 0.34 12.64 0 14 C0.680625 14.226875 1.36125 14.45375 2.0625 14.6875 C5.19163795 16.08562547 7.63923377 17.81090901 10.3515625 19.87890625 C14.07942032 22.41420292 17.64386653 22.15284679 22 22 C22.6290625 21.83628906 23.258125 21.67257813 23.90625 21.50390625 C26.34042887 20.91806842 28.56029743 20.83137031 31.0625 20.8125 C32.34833984 20.79123047 32.34833984 20.79123047 33.66015625 20.76953125 C36 21 36 21 39 23 C39 23.99 39 24.98 39 26 C14.24325262 27.48226927 14.24325262 27.48226927 7.25 22.3125 C4.890625 20.09375 4.890625 20.09375 3 18 C2.45859375 17.5153125 1.9171875 17.030625 1.359375 16.53125 C-1.39207542 14.06443239 -3.38638586 11.31215533 -5 8 C-5 6.68 -5 5.36 -5 4 C-4.34 4 -3.68 4 -3 4 C-3 4.66 -3 5.32 -3 6 C-2.01 6 -1.02 6 0 6 C0 4.02 0 2.04 0 0 Z " fill="#B6B5B6" transform="translate(32,102)"/>
<path d="M0 0 C2.5 0.5 2.5 0.5 4.25 2.3125 C6.63601887 6.48803302 7.33991657 9.76592476 6.5 14.5 C2.83626637 18.97148593 -1.58281408 23.7276239 -7.5625 24.5 C-8.531875 24.5 -9.50125 24.5 -10.5 24.5 C-10.83 24.83 -11.16 25.16 -11.5 25.5 C-13.49958364 25.54080783 -15.50045254 25.54254356 -17.5 25.5 C-17.5 25.17 -17.5 24.84 -17.5 24.5 C-13.50999834 23.07499941 -9.69469571 22.09924224 -5.5 21.5 C-5.995 19.025 -5.995 19.025 -6.5 16.5 C-2.875 13.5 -2.875 13.5 0.5 13.5 C0.17 11.85 -0.16 10.2 -0.5 8.5 C-3.47 9.16 -6.44 9.82 -9.5 10.5 C-9.5 9.18 -9.5 7.86 -9.5 6.5 C-8.901875 6.2525 -8.30375 6.005 -7.6875 5.75 C-5.364026 4.63565925 -5.364026 4.63565925 -4.0625 2.375 C-2.5 0.5 -2.5 0.5 0 0 Z " fill="#919191" transform="translate(106.5,17.5)"/>
<path d="M0 0 C6.84162188 1.14027031 9.86801232 3.26112822 14 9 C14 10.32 14 11.64 14 13 C10.64789071 15.23473953 8.91823443 15.12172609 4.99609375 14.9921875 C2.84062197 14.9228916 2.84062197 14.9228916 0.1875 15.6875 C-2 16 -2 16 -3.875 15 C-5.63603094 11.86927833 -4.74262241 9.40368602 -4 6 C-3.67 5.34 -3.34 4.68 -3 4 C-2.34 4 -1.68 4 -1 4 C-0.67 2.68 -0.34 1.36 0 0 Z " fill="#FCFCFC" transform="translate(46,82)"/>
<path d="M0 0 C1.65 0 3.3 0 5 0 C6.00109515 3.31070838 6.10356134 6.30084769 6.0625 9.75 C6.05347656 10.73484375 6.04445313 11.7196875 6.03515625 12.734375 C6.02355469 13.48203125 6.01195312 14.2296875 6 15 C3.69 15 1.38 15 -1 15 C-1.33 17.64 -1.66 20.28 -2 23 C-2.99 23 -3.98 23 -5 23 C-5 22.34 -5 21.68 -5 21 C-5.66 21 -6.32 21 -7 21 C-7 15.72 -7 10.44 -7 5 C-4.525 5.99 -4.525 5.99 -2 7 C-0.68 7 0.64 7 2 7 C1.42415568 4.61435923 0.77772405 2.33317216 0 0 Z " fill="#828282" transform="translate(34,85)"/>
<path d="M0 0 C-1.36940409 4.38209309 -3.78206194 7.55994959 -6.5625 11.1328125 C-7.77416106 12.70665485 -8.89823885 14.34735828 -10 16 C-10.66 16 -11.32 16 -12 16 C-12 19.3 -12 22.6 -12 26 C-13.32 26.33 -14.64 26.66 -16 27 C-18.02370454 19.89519555 -18.229316 15.70704093 -15 9 C-13.02 9 -11.04 9 -9 9 C-8.773125 8.2575 -8.54625 7.515 -8.3125 6.75 C-6.65039308 3.26749027 -4.13573795 0 0 0 Z " fill="#A7A6A7" transform="translate(92,53)"/>
<path d="M0 0 C0.66 0 1.32 0 2 0 C1.96519531 0.97582031 1.93039063 1.95164062 1.89453125 2.95703125 C1.86746094 4.22933594 1.84039062 5.50164062 1.8125 6.8125 C1.77769531 8.07707031 1.74289063 9.34164062 1.70703125 10.64453125 C1.73040964 13.90269417 1.73040964 13.90269417 3.21875 15.90625 C5.43698695 17.26832532 7.09923043 17.49994423 9.6875 17.6875 C10.49574219 17.75324219 11.30398437 17.81898437 12.13671875 17.88671875 C12.75160156 17.92410156 13.36648437 17.96148437 14 18 C13.505 20.475 13.505 20.475 13 23 C11.68 22.67 10.36 22.34 9 22 C9.99 21.67 10.98 21.34 12 21 C12.33 20.34 12.66 19.68 13 19 C11.96875 19.185625 10.9375 19.37125 9.875 19.5625 C6.23223985 19.97377937 3.56148971 19.67837899 0 19 C-0.33 19.33 -0.66 19.66 -1 20 C-7.72 19.28 -7.72 19.28 -9 18 C-9 15.33333333 -9 12.66666667 -9 10 C-11.34167715 7.65832285 -17.31316533 8.67041653 -20.484375 8.57421875 C-24.44612174 7.92713345 -26.13517866 6.73907536 -29 4 C-24.125 4.875 -24.125 4.875 -23 6 C-19.98902586 6.03188626 -16.99004948 5.9314875 -13.98046875 5.83984375 C-11.00409438 5.99977999 -9.41888067 6.29155981 -7 8 C-5.768606 11.69418201 -6.35567236 14.2056261 -7 18 C-5.02 18 -3.04 18 -1 18 C-1.165 17.21625 -1.33 16.4325 -1.5 15.625 C-2.12306791 11.10775764 -2.48263406 6.54821252 -2 2 C-1.34 1.34 -0.68 0.68 0 0 Z " fill="#CECECE" transform="translate(66,97)"/>
<path d="M0 0 C0.33 0.66 0.66 1.32 1 2 C0.01 2.495 0.01 2.495 -1 3 C-1.65213292 5.02463255 -1.65213292 5.02463255 -2 7 C-1.48953125 6.50886719 -0.9790625 6.01773438 -0.453125 5.51171875 C2.89448982 3.44877777 5.35209972 3.70422499 9.25 3.8125 C10.51328125 3.83957031 11.7765625 3.86664063 13.078125 3.89453125 C14.04234375 3.92933594 15.0065625 3.96414062 16 4 C16.33 8.29 16.66 12.58 17 17 C17.99 16.67 18.98 16.34 20 16 C19.979375 14.72125 19.95875 13.4425 19.9375 12.125 C19.875 8.25 19.875 8.25 21 6 C21.66 6.33 22.32 6.66 23 7 C23 12.61 23 18.22 23 24 C20 23 20 23 18 20 C15.79274927 19.63637182 15.79274927 19.63637182 13.375 19.8125 C12.55773437 19.83957031 11.74046875 19.86664063 10.8984375 19.89453125 C9.95871094 19.94673828 9.95871094 19.94673828 9 20 C9.76940683 16.5080767 11.16068533 14.06552445 13 11 C13.69579454 8.80869466 13.69579454 8.80869466 14 7 C13.113125 7.020625 12.22625 7.04125 11.3125 7.0625 C8.37830369 7.00713781 5.84506304 6.6694266 3 6 C2.01 7.485 2.01 7.485 1 9 C-0.32 8.67 -1.64 8.34 -3 8 C-3.1875 5.125 -3.1875 5.125 -3 2 C-2.01 1.34 -1.02 0.68 0 0 Z " fill="#D0D0D0" transform="translate(59,63)"/>
<path d="M0 0 C0.33 0.66 0.66 1.32 1 2 C3.32156597 2.40729228 5.6568787 2.74438677 8 3 C8.28875 3.78375 8.5775 4.5675 8.875 5.375 C9.84912254 8.09671632 9.84912254 8.09671632 12 10 C10.68 10 9.36 10 8 10 C7.505 7.525 7.505 7.525 7 5 C6.01 5.33 5.02 5.66 4 6 C4.495 7.1446875 4.495 7.1446875 5 8.3125 C6 11 6 11 6 14 C1.46298506 15.45184478 -2.18061476 16.23509196 -7 16 C-6.39642962 12.18653263 -5.26488908 9.17716834 -3.5 5.75 C-2.83484375 4.44289063 -2.83484375 4.44289063 -2.15625 3.109375 C-1 1 -1 1 0 0 Z " fill="#B2B1B2" transform="translate(40,55)"/>
<path d="M0 0 C3.50695293 0.5653911 5.02732613 1.68722726 7.3125 4.375 C7.84488281 4.98085938 8.37726563 5.58671875 8.92578125 6.2109375 C9.28027344 6.80132812 9.63476562 7.39171875 10 8 C9.67 8.99 9.34 9.98 9 11 C7.66195312 10.96519531 7.66195312 10.96519531 6.296875 10.9296875 C4.54117188 10.90261719 4.54117188 10.90261719 2.75 10.875 C1.58984375 10.85179688 0.4296875 10.82859375 -0.765625 10.8046875 C-3.82786046 10.9896051 -5.44202751 11.39176977 -8 13 C-7.67 11.35 -7.34 9.7 -7 8 C-6.34 8 -5.68 8 -5 8 C-4.5978125 7.13375 -4.5978125 7.13375 -4.1875 6.25 C-2.98280141 3.9674132 -1.59201885 2.0262058 0 0 Z " fill="#FCFCFC" transform="translate(65,57)"/>
<path d="M0 0 C8.29469894 3.11268577 8.29469894 3.11268577 10.9375 6.4375 C11.97939048 8.9502947 12.99192545 11.47348679 14 14 C12.22631108 13.77113691 10.45598923 13.5160762 8.6875 13.25 C7.70136719 13.11078125 6.71523438 12.9715625 5.69921875 12.828125 C2.46818269 11.83683752 1.61739067 10.92190905 0 8 C-0.75 4.3125 -0.75 4.3125 -1 1 C-0.67 0.67 -0.34 0.34 0 0 Z " fill="#464747" transform="translate(26,1)"/>
<path d="M0 0 C0.52890546 2.62361013 1.04842088 5.24848225 1.5625 7.875 C1.78969727 8.99455078 1.78969727 8.99455078 2.02148438 10.13671875 C3.11328125 15.7734375 3.11328125 15.7734375 2 18 C0.02 18 -1.96 18 -4 18 C-5.231394 14.30581799 -4.64432764 11.7943739 -4 8 C-4.66 8 -5.32 8 -6 8 C-6.495 5.525 -6.495 5.525 -7 3 C-2.25 0 -2.25 0 0 0 Z " fill="#A7A6A7" transform="translate(63,97)"/>
<path d="M0 0 C3.34561822 0.45211057 6.15300014 1.1697858 9 3 C9.86328125 5.0234375 9.86328125 5.0234375 10.3125 7.375 C10.55419922 8.53128906 10.55419922 8.53128906 10.80078125 9.7109375 C11.00695357 12.0798979 10.71478432 13.74765803 10 16 C9.34 15.01 8.68 14.02 8 13 C5.94996045 11.80767387 5.94996045 11.80767387 4 11 C4 10.34 4 9.68 4 9 C3.360625 8.855625 2.72125 8.71125 2.0625 8.5625 C0 8 0 8 -1 7 C-1.125 4 -1.125 4 -1 1 C-0.67 0.67 -0.34 0.34 0 0 Z " fill="#9E9D9E" transform="translate(60,3)"/>
<path d="M0 0 C2.625 1.6875 2.625 1.6875 3.5 3.875 C3.54125 4.473125 3.5825 5.07125 3.625 5.6875 C1.1875 5.3125 1.1875 5.3125 -1.375 4.6875 C-1.705 4.0275 -2.035 3.3675 -2.375 2.6875 C-8.86957855 2.81323443 -8.86957855 2.81323443 -14.1875 6.25 C-14.909375 7.054375 -15.63125 7.85875 -16.375 8.6875 C-17.695 8.6875 -19.015 8.6875 -20.375 8.6875 C-19.715 7.3675 -19.055 6.0475 -18.375 4.6875 C-17.715 4.6875 -17.055 4.6875 -16.375 4.6875 C-16.313125 4.089375 -16.25125 3.49125 -16.1875 2.875 C-15.375 0.6875 -15.375 0.6875 -13.25 -1.125 C-8.40941221 -3.12437322 -4.73715819 -1.84222818 0 0 Z " fill="#D1D1D1" transform="translate(76.375,46.3125)"/>
<path d="M0 0 C2.875 2.75 2.875 2.75 5 6 C4.8125 8.875 4.8125 8.875 4 11 C0.49518401 10.35096 -1.99483374 8.87822891 -5 7 C-6.32608822 6.31903578 -7.65686601 5.64669414 -9 5 C-8.34 4.01 -7.68 3.02 -7 2 C-7.99 1.67 -8.98 1.34 -10 1 C-6.25880689 -0.81715094 -3.93847413 -1.57538965 0 0 Z " fill="#A7A6A7" transform="translate(75,49)"/>
<path d="M0 0 C2.5 0.5 2.5 0.5 4.25 2.125 C5.71931297 4.91669464 6.14553513 7.38070914 6.5 10.5 C4.52 11.49 4.52 11.49 2.5 12.5 C1.84 10.52 1.18 8.54 0.5 6.5 C-1.98858887 6.92906705 -3.24896408 7.24896408 -5.0625 9.0625 C-5.7740625 9.7740625 -5.7740625 9.7740625 -6.5 10.5 C-7.49 10.5 -8.48 10.5 -9.5 10.5 C-9.5 9.18 -9.5 7.86 -9.5 6.5 C-8.901875 6.2525 -8.30375 6.005 -7.6875 5.75 C-5.364026 4.63565925 -5.364026 4.63565925 -4.0625 2.375 C-2.5 0.5 -2.5 0.5 0 0 Z " fill="#878687" transform="translate(106.5,17.5)"/>
<path d="M0 0 C1.299375 0.185625 2.59875 0.37125 3.9375 0.5625 C4.948125 0.706875 5.95875 0.85125 7 1 C7 1.66 7 2.32 7 3 C2.03906272 5.27376292 -2.67812773 6.78623966 -8 8 C-9.76462683 4.91190305 -10 3.76687864 -10 0 C-6.23845262 -1.25384913 -3.89726861 -0.64954477 0 0 Z " fill="#464747" transform="translate(94,36)"/>
<path d="M0 0 C0.66 1.32 1.32 2.64 2 4 C2.59167969 3.91621094 3.18335938 3.83242187 3.79296875 3.74609375 C8.09939457 3.19110576 11.75552644 2.76773348 16 4 C16.33 5.65 16.66 7.3 17 9 C14.70858714 9.05384521 12.41681812 9.09272087 10.125 9.125 C8.21074219 9.15980469 8.21074219 9.15980469 6.2578125 9.1953125 C3 9 3 9 1 7 C-1.68839385 6.73008094 -4.29141936 6.91262643 -7 7 C-7 6.34 -7 5.68 -7 5 C-4.69 5 -2.38 5 0 5 C0 3.35 0 1.7 0 0 Z " fill="#989898" transform="translate(40,95)"/>
<path d="M0 0 C1.67542976 0.28604898 3.34385343 0.61781233 5 1 C5.33 2.32 5.66 3.64 6 5 C4.93106782 6.03590338 3.84421512 7.05333942 2.75 8.0625 C2.14671875 8.63097656 1.5434375 9.19945312 0.921875 9.78515625 C-1 11 -1 11 -3.109375 10.80859375 C-5 10 -5 10 -7 8 C-6.9375 6.0625 -6.9375 6.0625 -6 4 C-3.5 2.3125 -3.5 2.3125 -1 1 C-0.67 0.67 -0.34 0.34 0 0 Z " fill="#D0D0D0" transform="translate(89,23)"/>
<path d="M0 0 C0.99 0.33 1.98 0.66 3 1 C3.0744389 5.0384057 3.12873729 9.07654293 3.16479492 13.11547852 C3.17983432 14.48794517 3.20027133 15.86036414 3.22631836 17.23266602 C3.26291221 19.21088656 3.27816698 21.18946514 3.29296875 23.16796875 C3.31653442 24.95110474 3.31653442 24.95110474 3.34057617 26.77026367 C2.96668746 30.31590796 2.12877583 32.17058165 0 35 C-0.99 35.495 -0.99 35.495 -2 36 C-1.67386719 35.35804687 -1.34773438 34.71609375 -1.01171875 34.0546875 C0.32964061 30.00471444 0.25355398 26.35940763 0.1875 22.125 C0.18685547 21.34769531 0.18621094 20.57039063 0.18554688 19.76953125 C0.15791127 16.11549055 -0.04365648 12.70153224 -0.57421875 9.07421875 C-1.03396363 5.75477634 -0.65181531 4.78743833 1 2 C0.67 1.34 0.34 0.68 0 0 Z " fill="#D0D0D0" transform="translate(37,17)"/>
<path d="M0 0 C0 3 0 3 -0.9375 5.5 C-2.18033665 9.59405013 -2.4725802 13.45269246 -2.75390625 17.70703125 C-3 20 -3 20 -4 21 C-5.30772612 27.41974642 -4.89005064 33.10222331 -3.47265625 39.45703125 C-2.99421863 42.03110475 -2.92029246 44.38840581 -3 47 C-9.42580273 34.87737215 -7.78430645 20.70568048 -4 8 C-1.78701299 1.78701299 -1.78701299 1.78701299 0 0 Z " fill="#D0D0D0" transform="translate(30,59)"/>
<path d="M0 0 C1.32 0.33 2.64 0.66 4 1 C4.0825 1.61875 4.165 2.2375 4.25 2.875 C5.24578885 5.69640174 6.36322266 5.71927958 9 7 C11.3125 9.4375 11.3125 9.4375 13 12 C12.67 12.99 12.34 13.98 12 15 C9 15 9 15 7 13.1875 C6.34 12.465625 5.68 11.74375 5 11 C4.46375 10.505 3.9275 10.01 3.375 9.5 C0.48744048 6.34993507 0 4.31186197 0 0 Z " fill="#FCFCFC" transform="translate(70,28)"/>
<path d="M0 0 C1.48118245 0.85752668 2.94409882 1.7484711 4.375 2.6875 C5.365 3.0278125 5.365 3.0278125 6.375 3.375 C7.15875 2.900625 7.9425 2.42625 8.75 1.9375 C11.375 0.375 11.375 0.375 14.5625 0.4375 C17.375 1.375 17.375 1.375 18.8125 3.1875 C19.44866994 5.66149422 19.22539667 6.99388932 18.375 9.375 C17.385 7.395 16.395 5.415 15.375 3.375 C12.27125829 3.11635486 10.84734514 3.01716278 8.3125 4.9375 C6.375 6.375 6.375 6.375 4.3125 6.25 C2.15512031 5.2756995 0.91956124 4.15124543 -0.625 2.375 C-6.25086863 4.14313014 -9.40340563 7.54260844 -12.625 12.375 C-13.615 12.045 -14.605 11.715 -15.625 11.375 C-5.26472152 -1.25350512 -5.26472152 -1.25350512 0 0 Z " fill="#D0D0D0" transform="translate(93.625,15.625)"/>
<path d="M0 0 C0.66 0 1.32 0 2 0 C2.33 0.66 2.66 1.32 3 2 C3.66 2.33 4.32 2.66 5 3 C7 4 7 4 8 6 C8 4.02 8 2.04 8 0 C10 2 10 2 10.1953125 4.6015625 C10.17210938 5.59929688 10.14890625 6.59703125 10.125 7.625 C10.10695313 8.62789062 10.08890625 9.63078125 10.0703125 10.6640625 C10.04710938 11.43492188 10.02390625 12.20578125 10 13 C9.01 12.67 8.02 12.34 7 12 C7 10.35 7 8.7 7 7 C6.34 7 5.68 7 5 7 C5 6.34 5 5.68 5 5 C4.34 5 3.68 5 3 5 C2.855625 5.61875 2.71125 6.2375 2.5625 6.875 C2 9 2 9 1 11 C0.01 10.67 -0.98 10.34 -2 10 C-2 8.02 -2 6.04 -2 4 C-1.01 3.67 -0.02 3.34 1 3 C0.67 2.01 0.34 1.02 0 0 Z " fill="#CECECE" transform="translate(62,12)"/>
<path d="M0 0 C1.12822035 5.12038466 1.12822035 5.12038466 1 8 C-1.53501582 11.33173508 -4.12416739 13.42095709 -8 15 C-6.19587357 11.73539027 -5.16605307 10.11070205 -2 8 C-1.27034634 5.43717258 -1.27034634 5.43717258 -1 3 C-2.97536745 3.34786708 -2.97536745 3.34786708 -5 4 C-5.33 4.66 -5.66 5.32 -6 6 C-6 5.01 -6 4.02 -6 3 C-8.9719385 4.12451727 -11.33440687 5.22293791 -14 7 C-11 1 -11 1 -7.6875 -0.1875 C-4.42437937 -0.90649268 -3.00717118 -1.20286847 0 0 Z " fill="#BCBCBC" transform="translate(100,42)"/>
<path d="M0 0 C3.96 0 7.92 0 12 0 C12.33 0.99 12.66 1.98 13 3 C13.66 3.33 14.32 3.66 15 4 C14.01 4 13.02 4 12 4 C8.71371584 8.60079782 6.94955703 13.46091731 6 19 C5.67 19 5.34 19 5 19 C5.01160156 18.37351562 5.02320313 17.74703125 5.03515625 17.1015625 C5.04417969 16.28429687 5.05320312 15.46703125 5.0625 14.625 C5.07410156 13.81289062 5.08570313 13.00078125 5.09765625 12.1640625 C5.14466334 9.95062858 5.14466334 9.95062858 4 8 C5.32 6.02 6.64 4.04 8 2 C5.36 1.67 2.72 1.34 0 1 C0 0.67 0 0.34 0 0 Z " fill="#A5A4A5" transform="translate(34,76)"/>
<path d="M0 0 C1.875 0.125 1.875 0.125 4 1 C5.25 4.0625 5.25 4.0625 6 7 C2.14243493 9.15305957 -0.55129785 10.39253254 -5 10 C-4.38545304 6.00544473 -2.29353263 3.25533664 0 0 Z " fill="#FCFCFC" transform="translate(38,60)"/>
<path d="M0 0 C-0.33 0.99 -0.66 1.98 -1 3 C-1.71567139 2.84152588 -2.43134277 2.68305176 -3.16870117 2.51977539 C-5.91594802 2.01543043 -8.5123923 1.79773833 -11.30078125 1.68359375 C-12.27724609 1.64169922 -13.25371094 1.59980469 -14.25976562 1.55664062 C-15.77086914 1.49766602 -15.77086914 1.49766602 -17.3125 1.4375 C-18.85260742 1.37272461 -18.85260742 1.37272461 -20.42382812 1.30664062 C-22.94909569 1.20093175 -25.47445562 1.09883532 -28 1 C-28 0.34 -28 -0.32 -28 -1 C-8.46808511 -2.57446809 -8.46808511 -2.57446809 0 0 Z " fill="#BBBABB" transform="translate(75,120)"/>
<path d="M0 0 C6 9 6 9 6 12 C6.7425 12.268125 7.485 12.53625 8.25 12.8125 C10.86636554 13.94229421 12.80187111 15.20893202 15 17 C9.51563098 16.19347514 4.66887488 14.28035402 1 10 C0.34 10.66 -0.32 11.32 -1 12 C-1 10.68 -1 9.36 -1 8 C-1.99 7.67 -2.98 7.34 -4 7 C-3.67 6.01 -3.34 5.02 -3 4 C-3 4.66 -3 5.32 -3 6 C-2.01 6 -1.02 6 0 6 C0 4.02 0 2.04 0 0 Z " fill="#BAB9BA" transform="translate(32,102)"/>
<path d="M0 0 C-0.1875 1.875 -0.1875 1.875 -1 4 C-2.66666667 4.66666667 -4.33333333 5.33333333 -6 6 C-6.60061233 7.90178785 -6.60061233 7.90178785 -7 10 C-8.9375 12.25 -8.9375 12.25 -11 14 C-11.66 14 -12.32 14 -13 14 C-12.48357061 9.66045153 -11.08111609 7.42469944 -8.1875 4.1875 C-7.50042969 3.39730469 -6.81335938 2.60710938 -6.10546875 1.79296875 C-4 0 -4 0 0 0 Z " fill="#FCFCFC" transform="translate(94,45)"/>
<path d="M0 0 C0.61875 0.66 1.2375 1.32 1.875 2 C5.74392969 4.476115 7.95688817 4.2084608 12.41796875 4.0078125 C16.19925488 3.99637139 19.38748658 4.92962565 23 6 C22.67 6.66 22.34 7.32 22 8 C17.55272396 8.10847015 13.3940052 7.66324607 9 7 C8.01 7 7.02 7 6 7 C5.67 7.99 5.34 8.98 5 10 C0 4.5 0 4.5 0 0 Z " fill="#8C8C8C" transform="translate(78,29)"/>
<path d="M0 0 C1.32 0.33 2.64 0.66 4 1 C4 5.29 4 9.58 4 14 C2.824375 13.835 1.64875 13.67 0.4375 13.5 C-3.41273873 13.01271488 -7.12258073 12.91922043 -11 13 C-11 12.67 -11 12.34 -11 12 C-6.71 11.34 -2.42 10.68 2 10 C1.01 7.03 0.02 4.06 -1 1 C-0.67 0.67 -0.34 0.34 0 0 Z " fill="#A7A6A7" transform="translate(44,59)"/>
<path d="M0 0 C0.66 0.33 1.32 0.66 2 1 C2 2.65 2 4.3 2 6 C-4.4 10.06153846 -4.4 10.06153846 -7.4375 9.75 C-7.953125 9.5025 -8.46875 9.255 -9 9 C-9 8.01 -9 7.02 -9 6 C-7.03125 4.39453125 -7.03125 4.39453125 -4.5 2.8125 C-3.6646875 2.28269531 -2.829375 1.75289062 -1.96875 1.20703125 C-0.99421875 0.60955078 -0.99421875 0.60955078 0 0 Z " fill="#DFDFDF" transform="translate(105,25)"/>
<path d="M0 0 C-1.36940409 4.38209309 -3.78206194 7.55994959 -6.5625 11.1328125 C-7.77416106 12.70665485 -8.89823885 14.34735828 -10 16 C-10.66 15.67 -11.32 15.34 -12 15 C-11.835 14.38125 -11.67 13.7625 -11.5 13.125 C-10.92365356 11.03936614 -10.92365356 11.03936614 -11 9 C-10.34 9 -9.68 9 -9 9 C-8.773125 8.2575 -8.54625 7.515 -8.3125 6.75 C-6.65039308 3.26749027 -4.13573795 0 0 0 Z " fill="#A1A0A1" transform="translate(92,53)"/>
<path d="M0 0 C1.23556641 0.01740234 1.23556641 0.01740234 2.49609375 0.03515625 C3.32238281 0.04417969 4.14867187 0.05320312 5 0.0625 C5.63808594 0.07410156 6.27617188 0.08570312 6.93359375 0.09765625 C7.26359375 1.41765625 7.59359375 2.73765625 7.93359375 4.09765625 C5.93359375 5.09765625 5.93359375 5.09765625 3.49609375 5.41015625 C0.35977436 6.25160779 -0.40422431 7.38567518 -2.06640625 10.09765625 C-2.26052806 8.61934404 -2.44652756 7.13996309 -2.62890625 5.66015625 C-2.73332031 4.83644531 -2.83773438 4.01273437 -2.9453125 3.1640625 C-2.98527344 2.48214844 -3.02523438 1.80023438 -3.06640625 1.09765625 C-2.06640625 0.09765625 -2.06640625 0.09765625 0 0 Z " fill="#464747" transform="translate(31.06640625,93.90234375)"/>
<path d="M0 0 C0.99 0.33 1.98 0.66 3 1 C3.33 2.98 3.66 4.96 4 7 C5.32 6.34 6.64 5.68 8 5 C7.5206753 9.31392226 6.2542015 11.16569547 3 14 C2.34 13.67 1.68 13.34 1 13 C1.33 11.68 1.66 10.36 2 9 C1.01 8.67 0.02 8.34 -1 8 C-0.01 8 0.98 8 2 8 C1.505 5.525 1.505 5.525 1 3 C-0.32 3.33 -1.64 3.66 -3 4 C-2.67 3.01 -2.34 2.02 -2 1 C-1.34 0.67 -0.68 0.34 0 0 Z " fill="#B7B7B7" transform="translate(105,23)"/>
<path d="M0 0 C0.66 0.33 1.32 0.66 2 1 C2 2.32 2 3.64 2 5 C-1.93437917 8.39960919 -5.851765 8.37263748 -10.8125 8.1875 C-11.85180664 8.16719727 -11.85180664 8.16719727 -12.91210938 8.14648438 C-14.60841265 8.11138845 -16.30431136 8.05758943 -18 8 C-18.33 6.68 -18.66 5.36 -19 4 C-17.515 4.99 -17.515 4.99 -16 6 C-13.67843836 6.06176435 -13.67843836 6.06176435 -11.1875 5.6875 C-9.86685547 5.52507812 -9.86685547 5.52507812 -8.51953125 5.359375 C-5.6702637 4.95296785 -2.8306632 4.52143796 0 4 C0 2.68 0 1.36 0 0 Z " fill="#D0D0D0" transform="translate(60,91)"/>
<path d="M0 0 C1.1796875 2.05078125 1.1796875 2.05078125 2 4 C1.32453125 3.98839844 0.6490625 3.97679687 -0.046875 3.96484375 C-0.93890625 3.95582031 -1.8309375 3.94679688 -2.75 3.9375 C-3.63171875 3.92589844 -4.5134375 3.91429687 -5.421875 3.90234375 C-7.7818838 3.99173802 -9.74498524 4.33087179 -12 5 C-12.33 4.34 -12.66 3.68 -13 3 C-9.1743798 -1.39946323 -5.52928296 -1.56262344 0 0 Z " fill="#7F7F7F" transform="translate(73,40)"/>
<path d="M0 0 C4.455 1.98 4.455 1.98 9 4 C8.67 4.66 8.34 5.32 8 6 C5.525 5.01 5.525 5.01 3 4 C3.03093173 6.41585574 3.03093173 6.41585574 4 9 C6.96707046 10.85916824 6.96707046 10.85916824 10 12 C8 13 8 13 5.0625 12.4375 C2 11 2 11 0.0625 8.1875 C-1.05120215 4.84639354 -1.0679638 3.30097902 0 0 Z " fill="#949394" transform="translate(26,1)"/>
<path d="M0 0 C5.63816958 1.81568173 9.07456776 3.36085281 13 8 C13.33 8.66 13.66 9.32 14 10 C12.68 9.34 11.36 8.68 10 8 C10 7.34 10 6.68 10 6 C7.03 5.01 4.06 4.02 1 3 C0.67 4.32 0.34 5.64 0 7 C-0.66 7 -1.32 7 -2 7 C-2.66 9.97 -3.32 12.94 -4 16 C-4.33 16 -4.66 16 -5 16 C-4.91253716 14.56138706 -4.80434652 13.12402492 -4.6875 11.6875 C-4.62949219 10.88699219 -4.57148437 10.08648437 -4.51171875 9.26171875 C-3.9055027 6.58233637 -2.94245693 5.86256153 -1 4 C-0.28552357 1.89667109 -0.28552357 1.89667109 0 0 Z " fill="#D0D0D0" transform="translate(45,79)"/>
<path d="M0 0 C1.09658936 3.28976808 0.79953138 4.71303767 0 8 C0.99 8.33 1.98 8.66 3 9 C2.75 10.875 2.75 10.875 2 13 C-0.0625 14.25 -0.0625 14.25 -2 15 C-3.08379774 9.6893911 -2.83762737 6.10452048 -1 1 C-0.67 0.67 -0.34 0.34 0 0 Z " fill="#717171" transform="translate(31,63)"/>
<path d="M0 0 C0.66 0.33 1.32 0.66 2 1 C2 6.61 2 12.22 2 18 C-1 17 -1 17 -3 14 C-5.05925139 13.27617533 -5.05925139 13.27617533 -7 13 C-6.34 11.68 -5.68 10.36 -5 9 C-4.67 9.66 -4.34 10.32 -4 11 C-3.01 10.67 -2.02 10.34 -1 10 C-1.020625 8.72125 -1.04125 7.4425 -1.0625 6.125 C-1.125 2.25 -1.125 2.25 0 0 Z " fill="#BBBBBB" transform="translate(80,69)"/>
<path d="M0 0 C0.80824219 0.10183594 1.61648437 0.20367187 2.44921875 0.30859375 C3.06410156 0.39238281 3.67898437 0.47617188 4.3125 0.5625 C4.6425 1.5525 4.9725 2.5425 5.3125 3.5625 C0.6925 3.5625 -3.9275 3.5625 -8.6875 3.5625 C-8.3575 2.5725 -8.0275 1.5825 -7.6875 0.5625 C-4.59271121 -0.46909626 -3.16118607 -0.41232862 0 0 Z " fill="#D0D0D0" transform="translate(64.6875,124.4375)"/>
<path d="M0 0 C2.3125 0.1875 2.3125 0.1875 5 1 C6.875 3.375 6.875 3.375 8 6 C7.67 6.99 7.34 7.98 7 9 C4.50638429 7.79618552 2.31856917 6.54571278 0 5 C-0.1875 2.375 -0.1875 2.375 0 0 Z " fill="#484949" transform="translate(61,5)"/>
<path d="M0 0 C0.6875 1.8125 0.6875 1.8125 1 4 C-0.375 5.5 -0.375 5.5 -2 7 C-2.71447643 9.10332891 -2.71447643 9.10332891 -3 11 C-4.32 11.33 -5.64 11.66 -7 12 C-7.375 8.75 -7.375 8.75 -7 5 C-4.0625 2.625 -4.0625 2.625 -1 1 C-0.67 0.67 -0.34 0.34 0 0 Z " fill="#838383" transform="translate(39,51)"/>
<path d="M0 0 C0.33 0 0.66 0 1 0 C1.33 3.63 1.66 7.26 2 11 C5.3 11.66 8.6 12.32 12 13 C12 13.33 12 13.66 12 14 C4.86486486 14.47567568 4.86486486 14.47567568 1.5 12.625 C-0.81720603 8.56988944 -0.3135704 4.56419136 0 0 Z M14 9 C14.99 9 15.98 9 17 9 C16.67 10.32 16.34 11.64 16 13 C15.01 12.67 14.02 12.34 13 12 C13.33 11.01 13.66 10.02 14 9 Z " fill="#AAAAAA" transform="translate(67,101)"/>
<path d="M0 0 C0.66 1.32 1.32 2.64 2 4 C4.64 4 7.28 4 10 4 C10 4.33 10 4.66 10 5 C9.195625 5.12375 8.39125 5.2475 7.5625 5.375 C6.2940625 5.684375 6.2940625 5.684375 5 6 C4.67 6.66 4.34 7.32 4 8 C5.32 8.33 6.64 8.66 8 9 C5.625 9.125 5.625 9.125 3 9 C2.34 8.34 1.68 7.68 1 7 C-1.68839385 6.73008094 -4.29141936 6.91262643 -7 7 C-7 6.34 -7 5.68 -7 5 C-4.69 5 -2.38 5 0 5 C0 3.35 0 1.7 0 0 Z " fill="#ACABAC" transform="translate(40,95)"/>
<path d="M0 0 C0.45375 0.495 0.9075 0.99 1.375 1.5 C2.87635519 3.22609337 2.87635519 3.22609337 5 3 C3.61122646 6.35620271 2.08322035 8.07298728 -1 10 C-1.66 10 -2.32 10 -3 10 C-3.66 8.68 -4.32 7.36 -5 6 C-3.68 5.67 -2.36 5.34 -1 5 C-0.67 3.35 -0.34 1.7 0 0 Z " fill="#838283" transform="translate(84,40)"/>
<path d="M0 0 C0 0.99 0 1.98 0 3 C-0.61875 3.0825 -1.2375 3.165 -1.875 3.25 C-4.18437567 3.81258459 -4.18437567 3.81258459 -5.25 6.0625 C-5.4975 6.701875 -5.745 7.34125 -6 8 C-6.99 7.67 -7.98 7.34 -9 7 C-8.62607279 4.28902773 -8.18642373 3.17999533 -6.1875 1.25 C-4 0 -4 0 0 0 Z " fill="#FCFCFC" transform="translate(93,25)"/>
<path d="M0 0 C1.98 0.66 3.96 1.32 6 2 C6.66 5.3 7.32 8.6 8 12 C7.34 12 6.68 12 6 12 C6 11.34 6 10.68 6 10 C4.35 9.67 2.7 9.34 1 9 C1 8.34 1 7.68 1 7 C2.98 7.495 2.98 7.495 5 8 C4.360625 7.05125 3.72125 6.1025 3.0625 5.125 C1 2 1 2 0 0 Z " fill="#8E8E8E" transform="translate(35,7)"/>
<path d="M0 0 C-0.25561323 2.3431213 -0.59270772 4.67843403 -1 7 C-1.99 7.495 -1.99 7.495 -3 8 C-5.125 7.0625 -5.125 7.0625 -7 6 C-7 5.01 -7 4.02 -7 3 C-2.77777778 0 -2.77777778 0 0 0 Z " fill="#7F7F7F" transform="translate(63,97)"/>
<path d="M0 0 C1 3 1 3 0.22265625 4.82421875 C-0.8515625 6.54947917 -1.92578125 8.27473958 -3 10 C-4.65 10 -6.3 10 -8 10 C-6.44303593 6.17836093 -3.96591316 3.81381505 -1 1 C-0.67 0.67 -0.34 0.34 0 0 Z " fill="#AEAEAE" transform="translate(84,118)"/>
<path d="M0 0 C2 2 2 2 2.1953125 4.6015625 C2.17210938 5.59929688 2.14890625 6.59703125 2.125 7.625 C2.10695313 8.62789062 2.08890625 9.63078125 2.0703125 10.6640625 C2.04710938 11.43492188 2.02390625 12.20578125 2 13 C1.01 12.67 0.02 12.34 -1 12 C-1 10.35 -1 8.7 -1 7 C-1.66 7 -2.32 7 -3 7 C-3.33 5.68 -3.66 4.36 -4 3 C-1 4 -1 4 0 6 C0 4.02 0 2.04 0 0 Z " fill="#A9A8A9" transform="translate(70,12)"/>
<path d="M0 0 C0.66 0 1.32 0 2 0 C2.08076963 2.45898655 2.14037143 4.91533742 2.1875 7.375 C2.21263672 8.07367188 2.23777344 8.77234375 2.26367188 9.4921875 C2.29296875 11.5234375 2.29296875 11.5234375 2 15 C1.01 15.66 0.02 16.32 -1 17 C-0.67 11.39 -0.34 5.78 0 0 Z " fill="#7F7F7F" transform="translate(41,34)"/>
<path d="M0 0 C0.99 0.66 1.98 1.32 3 2 C3.1875 5.125 3.1875 5.125 3 8 C1.35 7.67 -0.3 7.34 -2 7 C-2.125 4.625 -2.125 4.625 -2 2 C-1.34 1.34 -0.68 0.68 0 0 Z " fill="#8E8D8E" transform="translate(66,29)"/>
<path d="M0 0 C6.4 0.49230769 6.4 0.49230769 9.4375 3.0625 C10.2109375 4.0215625 10.2109375 4.0215625 11 5 C8.69 4.67 6.38 4.34 4 4 C3.34 5.32 2.68 6.64 2 8 C1.34 5.36 0.68 2.72 0 0 Z " fill="#D0D0D0" transform="translate(56,0)"/>
<path d="M0 0 C2.99324263 1.0975223 3.84610901 1.67682892 5.25 4.625 C5.4975 5.40875 5.745 6.1925 6 7 C1.25 6.25 1.25 6.25 -1 4 C-0.625 1.875 -0.625 1.875 0 0 Z " fill="#D0D0D0" transform="translate(55,76)"/>
<path d="M0 0 C0.99 0.33 1.98 0.66 3 1 C3 1.99 3 2.98 3 4 C4.32 4.33 5.64 4.66 7 5 C6.67 6.32 6.34 7.64 6 9 C5.01 9 4.02 9 3 9 C1.76078698 6.02588876 0.69941596 3.14737182 0 0 Z " fill="#7F7F7F" transform="translate(61,87)"/>
<path d="M0 0 C2.64 0.33 5.28 0.66 8 1 C7.34 2.32 6.68 3.64 6 5 C4.35 4.67 2.7 4.34 1 4 C0.67 2.68 0.34 1.36 0 0 Z " fill="#7F7F7F" transform="translate(60,76)"/>
<path d="M0 0 C1.65 0.33 3.3 0.66 5 1 C4.67 2.32 4.34 3.64 4 5 C2.35 5 0.7 5 -1 5 C-0.67 3.35 -0.34 1.7 0 0 Z " fill="#FCFCFC" transform="translate(34,78)"/>
<path d="M0 0 C1.5 1.3125 1.5 1.3125 3 3 C3 3.99 3 4.98 3 6 C-1.53701494 7.45184478 -5.18061476 8.23509196 -10 8 C-10 7.67 -10 7.34 -10 7 C-5.05 5.515 -5.05 5.515 0 4 C0 2.68 0 1.36 0 0 Z " fill="#D0D0D0" transform="translate(43,63)"/>
<path d="M0 0 C0.33 0.66 0.66 1.32 1 2 C0.525625 2.5775 0.05125 3.155 -0.4375 3.75 C-1.9484867 5.92582084 -2.54036151 7.42602448 -3 10 C-3.66 10 -4.32 10 -5 10 C-4.64766839 4.5388601 -4.64766839 4.5388601 -4 2 C-1.9375 0.5 -1.9375 0.5 0 0 Z " fill="#BABABA" transform="translate(36,61)"/>
<path d="M0 0 C0.98613281 0.20882812 1.97226563 0.41765625 2.98828125 0.6328125 C3.98214844 0.83648437 4.97601563 1.04015625 6 1.25 C6.75925781 1.41757812 7.51851562 1.58515625 8.30078125 1.7578125 C7.97078125 2.4178125 7.64078125 3.0778125 7.30078125 3.7578125 C2.48139601 3.99290446 -1.16220381 3.20965728 -5.69921875 1.7578125 C-2.69921875 -0.2421875 -2.69921875 -0.2421875 0 0 Z " fill="#838383" transform="translate(92.69921875,33.2421875)"/>
<path d="M0 0 C-1.20381448 2.49361571 -2.45428722 4.68143083 -4 7 C-4.99 7 -5.98 7 -7 7 C-6.22006468 2.47637516 -4.81844319 0 0 0 Z " fill="#464747" transform="translate(80,121)"/>
<path d="M0 0 C0.99 0.33 1.98 0.66 3 1 C2.75 2.875 2.75 2.875 2 5 C-0.0625 6.25 -0.0625 6.25 -2 7 C-2 5.02 -2 3.04 -2 1 C-1.34 0.67 -0.68 0.34 0 0 Z " fill="#787878" transform="translate(79,63)"/>
<path d="M0 0 C5.53846154 -0.36923077 5.53846154 -0.36923077 7.875 1.5 C8.24625 1.995 8.6175 2.49 9 3 C6.03 2.505 6.03 2.505 3 2 C3 3.98 3 5.96 3 8 C2.34 7.67 1.68 7.34 1 7 C0.59270772 4.67843403 0.25561323 2.3431213 0 0 Z " fill="#D0D0D0" transform="translate(23,0)"/>
<path d="M0 0 C0 1.65 0 3.3 0 5 C-1.32 5.33 -2.64 5.66 -4 6 C-4.33 4.68 -4.66 3.36 -5 2 C-2 0 -2 0 0 0 Z " fill="#464747" transform="translate(86,101)"/>
<path d="M0 0 C1.32 0 2.64 0 4 0 C4 1.98 4 3.96 4 6 C2.68 5.67 1.36 5.34 0 5 C0 3.35 0 1.7 0 0 Z " fill="#464747" transform="translate(76,97)"/>
<path d="M0 0 C0.66 0.33 1.32 0.66 2 1 C-0.1284601 4.30278291 -2.15390079 7.28942933 -5 10 C-5.33 10.66 -5.66 11.32 -6 12 C-6.66 11.67 -7.32 11.34 -8 11 C-5.50127818 7.1626772 -2.9156164 3.54039134 0 0 Z " fill="#D0D0D0" transform="translate(90,57)"/>
<path d="M0 0 C0.33 0 0.66 0 1 0 C0.7589852 6.14587738 0.7589852 6.14587738 -1.40234375 8.578125 C-2.88046971 9.78844931 -4.43647953 10.90220903 -6 12 C-6.66 11.67 -7.32 11.34 -8 11 C-5.66666667 8.66666667 -3.33333333 6.33333333 -1 4 C-0.3574765 1.93125966 -0.3574765 1.93125966 0 0 Z " fill="#D0D0D0" transform="translate(100,45)"/>
<path d="M0 0 C2.0625 0.4375 2.0625 0.4375 4 1 C4 2.65 4 4.3 4 6 C2.68 5.67 1.36 5.34 0 5 C-0.5625 3.0625 -0.5625 3.0625 -1 1 C-0.67 0.67 -0.34 0.34 0 0 Z " fill="#747474" transform="translate(44,59)"/>
<path d="M0 0 C0.33 0.66 0.66 1.32 1 2 C1.66 2 2.32 2 3 2 C4 3 5 4 6 5 C8.09989652 6.17574711 8.09989652 6.17574711 10 7 C8 8 8 8 5 7.25 C2 6 2 6 0 3 C0 2.01 0 1.02 0 0 Z " fill="#A5A5A5" transform="translate(26,6)"/>
<path d="M0 0 C0.66 0 1.32 0 2 0 C2.33 1.98 2.66 3.96 3 6 C1.68 6 0.36 6 -1 6 C-1.042721 4.33388095 -1.04063832 2.66617115 -1 1 C-0.67 0.67 -0.34 0.34 0 0 Z " fill="#747474" transform="translate(61,109)"/>
<path d="M0 0 C0.33 0.66 0.66 1.32 1 2 C-2.75 7.875 -2.75 7.875 -5 9 C-4.5206753 4.68607774 -3.2542015 2.83430453 0 0 Z " fill="#B8B8B8" transform="translate(65,54)"/>
<path d="M0 0 C1.32 0.33 2.64 0.66 4 1 C3.67 2.65 3.34 4.3 3 6 C2.01 5.67 1.02 5.34 0 5 C0 3.35 0 1.7 0 0 Z " fill="#A5A4A5" transform="translate(60,17)"/>
<path d="M0 0 C0.928125 0.2784375 0.928125 0.2784375 1.875 0.5625 C4.04160178 1.23686176 4.04160178 1.23686176 6 0 C6.33 2.31 6.66 4.62 7 7 C6.5875 6.54625 6.175 6.0925 5.75 5.625 C3.93591905 3.94049626 2.24714373 3.00734029 0 2 C0 1.34 0 0.68 0 0 Z " fill="#838383" transform="translate(64,12)"/>
<path d="M0 0 C0 0.33 0 0.66 0 1 C-2.97 1 -5.94 1 -9 1 C-6.80036907 -3.39926185 -3.61934676 -1.66294311 0 0 Z " fill="#FCFCFC" transform="translate(68,127)"/>
<path d="M0 0 C0.66 0 1.32 0 2 0 C1.6875 2.375 1.6875 2.375 1 5 C0.01 5.66 -0.98 6.32 -2 7 C-2.33 6.01 -2.66 5.02 -3 4 C-1.6875 1.8125 -1.6875 1.8125 0 0 Z " fill="#7B7B7B" transform="translate(82,116)"/>
<path d="M0 0 C0.66 0.33 1.32 0.66 2 1 C2 2.98 2 4.96 2 7 C1.01 7 0.02 7 -1 7 C-0.67 4.69 -0.34 2.38 0 0 Z " fill="#7F7F7F" transform="translate(77,73)"/>
<path d="M0 0 C0.99 0 1.98 0 3 0 C3 1.65 3 3.3 3 5 C1.68 4.67 0.36 4.34 -1 4 C-0.67 2.68 -0.34 1.36 0 0 Z " fill="#464747" transform="translate(51,66)"/>
<path d="M0 0 C2.475 0.99 2.475 0.99 5 2 C4.67 3.32 4.34 4.64 4 6 C2 4.6875 2 4.6875 0 3 C0 2.01 0 1.02 0 0 Z " fill="#7F7F7F" transform="translate(74,52)"/>
<path d="M0 0 C2.64 0 5.28 0 8 0 C8.33 0.66 8.66 1.32 9 2 C7.68 2.99 6.36 3.98 5 5 C4.67 4.01 4.34 3.02 4 2 C1.99983534 0.79117904 1.99983534 0.79117904 0 0 Z " fill="#D0D0D0" transform="translate(34,77)"/>
</svg>
