<?xml version="1.0" encoding="UTF-8"?>
<svg version="1.1" xmlns="http://www.w3.org/2000/svg" width="128" height="128">
<path d="M0 0 C42.24 0 84.48 0 128 0 C128 42.24 128 84.48 128 128 C85.76 128 43.52 128 0 128 C0 85.76 0 43.52 0 0 Z " fill="#FCFCFC" transform="translate(0,0)"/>
<path d="M0 0 C0.7734375 0.31324219 1.546875 0.62648438 2.34375 0.94921875 C7.08046342 2.82300685 12.05002706 3.83638696 17 5 C17.93328125 5.23332031 18.8665625 5.46664063 19.828125 5.70703125 C24.77487627 6.85485527 27.30819152 7.16545007 32 5 C36.22297811 4.51004121 39.82047248 4.49065857 43.75 6.1875 C46.3804975 8.30651188 48.74285976 10.48490088 51 13 C51 13.66 51 14.32 51 15 C51.53625 15.226875 52.0725 15.45375 52.625 15.6875 C55 17 55 17 57.8125 19.5 C60.93931387 22.20832616 64.01603227 22.91346335 68 24 C71.17857703 26.02273084 72.71548001 27.41802729 74.375 30.8125 C77.20908577 36.37166825 81.61463567 39.98083168 86.53515625 43.71484375 C87.16510498 44.19477783 87.79505371 44.67471191 88.4440918 45.16918945 C89.71549317 46.12776404 90.99680115 47.07336013 92.28833008 48.00463867 C95.10111273 50.11222008 96.81783978 51.43483623 97.9140625 54.8359375 C97.94242187 55.55007812 97.97078125 56.26421875 98 57 C97.12085937 57.5053125 96.24171875 58.010625 95.3359375 58.53125 C91.40510123 61.15949243 89.16848359 64.58047283 86.625 68.5 C85.91500854 69.56468506 85.91500854 69.56468506 85.19067383 70.65087891 C84.23416859 72.08733412 83.28235078 73.5269226 82.33544922 74.96972656 C81.14533984 76.77904093 79.9397814 78.5759877 78.72265625 80.3671875 C75.03833557 85.81234475 71.55762107 91.31343892 68.32421875 97.0390625 C67 99 67 99 64 101 C60.11305922 100.91550129 58.46124461 100.43415684 55.60546875 97.74609375 C54.74566406 96.83988281 53.88585937 95.93367188 53 95 C46.64623012 88.55294475 40.30563771 82.1606176 33.171875 76.56640625 C31.73446787 75.43461606 30.3598603 74.22387427 29 73 C29 72.01 29 71.02 29 70 C22.28819505 72.04766931 16.19148342 74.74262481 9.91796875 77.890625 C6.94749488 79.01996179 5.87578148 79.19766202 3 78 C3.66 77.01 4.32 76.02 5 75 C4.84212123 71.84242455 4.48060091 70.46402847 2.1875 68.25 C0.08234243 67.04705282 -1.66787669 66.56292632 -4 66 C-6.31296163 61.37407674 -5.20093788 54.87204796 -4.4375 49.875 C-4.04437913 46.39307231 -4.25990193 43.55888709 -4.73071289 40.11431885 C-5.14081465 36.89438797 -5.3144687 33.66944508 -5.5 30.4296875 C-5.58331623 29.02473857 -5.66665009 27.61979068 -5.75 26.21484375 C-5.8759198 24.03830032 -6.00075924 21.86169849 -6.125 19.68505859 C-6.24733221 17.55810281 -6.37352831 15.43140055 -6.5 13.3046875 C-6.5721875 12.04640137 -6.644375 10.78811523 -6.71875 9.49169922 C-6.977665 6.27728749 -7.41584793 3.16963346 -8 0 C-5.08249759 -1.45875121 -3.14485878 -0.67830287 0 0 Z " fill="#F7BA1F" transform="translate(25,5)"/>
<path d="M0 0 C0.7734375 0.31324219 1.546875 0.62648438 2.34375 0.94921875 C7.08046342 2.82300685 12.05002706 3.83638696 17 5 C17.93328125 5.23332031 18.8665625 5.46664063 19.828125 5.70703125 C24.77487627 6.85485527 27.30819152 7.16545007 32 5 C36.22297811 4.51004121 39.82047248 4.49065857 43.75 6.1875 C46.3804975 8.30651188 48.74285976 10.48490088 51 13 C51 13.66 51 14.32 51 15 C51.53625 15.226875 52.0725 15.45375 52.625 15.6875 C55.18377328 17.10155892 57.21823848 18.87172559 59.42578125 20.7734375 C61.74655038 22.58167945 64.36446038 23.71026785 67 25 C68.69859667 26.29241051 70.37609523 27.61490475 72 29 C71.66678587 35.33106841 68.30257041 39.8161146 65 45 C63.99557906 46.66400612 62.99430293 48.32992831 62 50 C59.75 50 59.75 50 57 49 C55.76633875 46.9985356 54.8716107 44.99160173 53.9921875 42.8125 C53.07363556 40.64659324 53.07363556 40.64659324 50 40 C50.495 44.455 50.495 44.455 51 49 C49.865625 49.309375 48.73125 49.61875 47.5625 49.9375 C44.21224901 50.62924531 44.21224901 50.62924531 43 52 C40.125 52.3125 40.125 52.3125 37 52 C35.125 50.375 35.125 50.375 34 48 C33.8125 44.75 33.8125 44.75 34 42 C38.92984325 39.96006486 42.57960425 38.59347032 48 39 C44.11109219 32.98986975 38.30892124 29.44808009 31.6171875 27.19921875 C27.97842546 26.70084045 25.41272999 26.93298862 22.40576172 29.20410156 C20.01668395 31.31101566 17.71121253 33.49676865 15.41455078 35.70361328 C11.23109768 39.50956036 8.49608185 40.82666266 2.625 40.75 C-0.6484375 40.421875 -0.6484375 40.421875 -3 40 C-4.81762503 36.06096731 -5.34637567 32.69724317 -5.59765625 28.37890625 C-5.67693359 27.11369141 -5.75621094 25.84847656 -5.83789062 24.54492188 C-5.91201172 23.23072266 -5.98613281 21.91652344 -6.0625 20.5625 C-6.21742655 17.95947782 -6.37488829 15.35660502 -6.53515625 12.75390625 C-6.63389038 11.02636108 -6.63389038 11.02636108 -6.73461914 9.26391602 C-6.98948829 6.12928336 -7.43506901 3.0923309 -8 0 C-5.08249759 -1.45875121 -3.14485878 -0.67830287 0 0 Z " fill="#8B6912" transform="translate(25,5)"/>
<path d="M0 0 C0.39058594 0.89525391 0.39058594 0.89525391 0.7890625 1.80859375 C2.08900361 4.16106783 3.3117154 5.36050785 5.375 7.0625 C9.02026051 10.14337591 12.5589071 13.32235979 16.0625 16.5625 C19.39489057 19.64305422 22.75301539 22.66844377 26.25 25.5625 C27.61125 26.7690625 27.61125 26.7690625 29 28 C29 28.66 29 29.32 29 30 C30.98 30 32.96 30 35 30 C35 30.66 35 31.32 35 32 C30.49491463 35.00339025 26.25418895 34.59821475 21.07958984 33.64697266 C15.24853092 32.42487819 9.38612468 31.11840979 3.72558594 29.2487793 C-3.40038639 26.90325577 -10.42385856 26.12187114 -17.875 25.4375 C-20.26890754 25.21418773 -22.66218768 24.98401457 -25.0546875 24.74609375 C-26.10124512 24.64997803 -27.14780273 24.5538623 -28.22607422 24.45483398 C-30.9136941 24.01415137 -32.72344835 23.47629927 -35 22 C-36.36520849 18.72349962 -36.04807747 17.15625179 -35 13.75 C-33 11 -33 11 -29.375 10.25 C-27.704375 10.12625 -27.704375 10.12625 -26 10 C-25.67 9.34 -25.34 8.68 -25 8 C-24.14664062 7.86722656 -23.29328125 7.73445313 -22.4140625 7.59765625 C-18.28831296 6.87541405 -15.08947521 5.30583663 -11.375 3.4375 C-4.54036204 0 -4.54036204 0 0 0 Z " fill="#81BCD2" transform="translate(54,75)"/>
<path d="M0 0 C2.61733694 2.39283179 2.99018332 3.92135015 3.43237305 7.46411133 C3.47366615 8.83638495 3.49920659 10.20919351 3.51171875 11.58203125 C3.52966995 12.31443527 3.54762115 13.04683929 3.56611633 13.80143738 C3.6201274 16.13839918 3.65401656 18.47516315 3.6875 20.8125 C3.72069684 22.37307526 3.75518868 23.93362353 3.79101562 25.49414062 C3.9325461 31.99646635 4.01534385 38.49579364 4 45 C3.01 45.33 2.02 45.66 1 46 C-0.7265625 44.8828125 -0.7265625 44.8828125 -2.625 43.125 C-3.32882813 42.47789063 -4.03265625 41.83078125 -4.7578125 41.1640625 C-7.80694815 38.22116851 -10.79114263 35.21739782 -13.76953125 32.203125 C-17.5883337 28.431138 -21.60862048 24.87639161 -25.83203125 21.5625 C-27.26834356 20.43228703 -28.64150424 19.22264618 -30 18 C-30 17.01 -30 16.02 -30 15 C-29.39671875 15.020625 -28.7934375 15.04125 -28.171875 15.0625 C-25.58273248 14.99568342 -23.4664991 14.80925276 -21 14 C-19.63249585 12.10585186 -18.93727421 10.24941504 -18.09765625 8.07421875 C-14.75824333 1.76379789 -6.57070684 -0.57637779 0 0 Z " fill="#5E4A0A" transform="translate(84,60)"/>
<path d="M0 0 C2.6875 0.25 2.6875 0.25 4.96875 1.16796875 C7.90678433 2.33727264 10.79968566 3.08282915 13.875 3.8125 C19.48044118 5.14647059 19.48044118 5.14647059 21.6875 6.25 C21.6875 6.91 21.6875 7.57 21.6875 8.25 C23.3375 8.91 24.9875 9.57 26.6875 10.25 C26.6875 10.91 26.6875 11.57 26.6875 12.25 C28.1725 12.745 28.1725 12.745 29.6875 13.25 C27.7075 16.88 25.7275 20.51 23.6875 24.25 C21.7075 23.92 19.7275 23.59 17.6875 23.25 C17.6875 24.57 17.6875 25.89 17.6875 27.25 C15.2125 27.745 15.2125 27.745 12.6875 28.25 C13.3475 29.24 14.0075 30.23 14.6875 31.25 C11.63486336 32.23120464 9.74013664 32.23120464 6.6875 31.25 C6.6875 31.91 6.6875 32.57 6.6875 33.25 C7.3475 33.25 8.0075 33.25 8.6875 33.25 C8.3575 34.57 8.0275 35.89 7.6875 37.25 C4.8125 37 4.8125 37 1.6875 36.25 C-0.50504892 33.06947085 -0.75170757 29.83979416 -1.12890625 26.05859375 C-1.25330078 24.86685547 -1.37769531 23.67511719 -1.50585938 22.44726562 C-1.68858398 20.58618164 -1.68858398 20.58618164 -1.875 18.6875 C-2.12341332 16.22757115 -2.37458514 13.76791884 -2.62890625 11.30859375 C-2.73662354 10.21861084 -2.84434082 9.12862793 -2.95532227 8.00561523 C-3.2337994 5.16667198 -3.2337994 5.16667198 -4.3125 2.25 C-2.3125 0.25 -2.3125 0.25 0 0 Z " fill="#47310D" transform="translate(22.3125,4.75)"/>
<path d="M0 0 C6.12848853 0.04952314 11.80861143 1.36163221 17.60546875 3.2421875 C19.86985219 3.9588113 22.12407191 4.52960797 24.4375 5.0625 C28 6 28 6 31 8 C34 8.41666667 34 8.41666667 37 8 C37.67095703 7.26330078 37.67095703 7.26330078 38.35546875 6.51171875 C41.23264859 3.86690023 44.52654993 4.48019489 48.2578125 4.57421875 C52.5374075 5.23871427 54.19936874 6.74521232 57 10 C57 10.99 57 11.98 57 13 C57.55171875 13.07347656 58.1034375 13.14695312 58.671875 13.22265625 C61.88235517 14.29461188 63.76107056 16.16325892 66.25 18.4375 C67.14203125 19.24058594 68.0340625 20.04367188 68.953125 20.87109375 C71 23 71 23 71 25 C71.66 25.33 72.32 25.66 73 26 C66.29639917 24.81701162 60.91508502 19.35091175 56.8125 14.1875 C54.19721916 10.98306249 52.1689207 9.76572013 48 9 C43.1814387 8.65125809 43.1814387 8.65125809 38.6875 10.125 C34.26910652 11.56354671 30.41878316 10.10330273 26 9 C24.64473037 8.67884606 23.28924691 8.35859362 21.93359375 8.0390625 C20.49707 7.69406224 19.06087133 7.34770562 17.625 7 C16.93494873 6.83419434 16.24489746 6.66838867 15.53393555 6.49755859 C12.1152847 5.64488323 9.11736066 4.62332606 6 3 C3.33290931 2.83249586 3.33290931 2.83249586 1 3 C1.31767334 3.84296631 1.63534668 4.68593262 1.96264648 5.55444336 C3.05553496 9.18445867 3.39126255 12.34800224 3.59765625 16.12890625 C3.63684677 16.79985825 3.67603729 17.47081024 3.71641541 18.16209412 C3.83948491 20.29521119 3.95139386 22.42872964 4.0625 24.5625 C4.17919329 26.66370707 4.29822361 28.76477034 4.41781616 30.86581421 C4.49573837 32.24415581 4.57194429 33.62259556 4.64639282 35.00112915 C4.94846914 40.49295404 5.39847263 45.96540534 5.91186523 51.44116211 C6 54 6 54 5 57 C4.931009 59.06145107 4.91532273 61.12501401 4.9375 63.1875 C4.94652344 64.27417969 4.95554687 65.36085938 4.96484375 66.48046875 C4.97644531 67.31191406 4.98804688 68.14335938 5 69 C5.9075 69.0825 6.815 69.165 7.75 69.25 C11.46100241 70.10638517 12.83642572 70.88445304 15 74 C14.875 76.5 14.875 76.5 14 79 C13.79375 79.721875 13.5875 80.44375 13.375 81.1875 C12 83 12 83 8.5 83.875 C4.76888995 84.62215254 4.76888995 84.62215254 3.5 87.875 C3.02394362 90.85035239 3.17722643 92.20498979 4 95 C12.48208818 96.39264528 12.48208818 96.39264528 21.015625 97.40234375 C30.28369729 98.29794719 38.86229215 100.10153533 47.78125 102.78125 C58.71324915 106.04055667 58.71324915 106.04055667 70 106 C75.58482102 102.77321452 78.28534217 97.34652796 81.25 91.8125 C84.31811918 86.17639392 88.1456346 81.11683744 92 76 C92.33 76.66 92.66 77.32 93 78 C92.35933594 78.94359375 91.71867187 79.8871875 91.05859375 80.859375 C90.18435626 82.15588633 89.31070036 83.45278994 88.4375 84.75 C87.97931885 85.42724121 87.5211377 86.10448242 87.04907227 86.80224609 C83.68145947 91.83270994 80.74402949 96.98233128 78.05859375 102.4140625 C74.96428458 106.30103151 71.79392249 108.58688072 67 110 C62.52350697 109.91014667 58.39502254 108.95371998 54.0625 107.875 C52.3599707 107.49601562 52.3599707 107.49601562 50.62304688 107.109375 C42.56851486 105.28425743 42.56851486 105.28425743 40 104 C38.57899326 103.72667443 37.15029021 103.49257829 35.71875 103.28125 C34.87699219 103.15363281 34.03523438 103.02601562 33.16796875 102.89453125 C32.28753906 102.76433594 31.40710937 102.63414063 30.5 102.5 C28.75995483 102.24268732 27.02034462 101.98241059 25.28125 101.71875 C24.50845703 101.60466797 23.73566406 101.49058594 22.93945312 101.37304688 C21 101 21 101 19 100 C16.33322036 99.63216833 13.67445415 99.29923963 11 99 C3.27027027 98.13513514 3.27027027 98.13513514 1 97 C-0.76923077 88.15384615 -0.76923077 88.15384615 2 84 C4.25480573 82.49318271 6.60386817 81.28364205 9 80 C9.66 79.01 10.32 78.02 11 77 C11.66 77 12.32 77 13 77 C11.97296178 74.47753497 11.97296178 74.47753497 10 72 C6.44327821 70.7811879 6.44327821 70.7811879 3 70 C1.60524927 67.21049854 1.90570017 64.93713722 1.9375 61.8203125 C1.94523437 60.58152344 1.95296875 59.34273437 1.9609375 58.06640625 C1.98690175 55.44661381 2.01294295 52.82682214 2.0390625 50.20703125 C2.04679687 48.96566406 2.05453125 47.72429688 2.0625 46.4453125 C2.07410156 45.30594238 2.08570313 44.16657227 2.09765625 42.99267578 C2.01333857 40.4087606 1.66689909 38.46497464 1 36 C0.7888615 34.08275139 0.61425548 32.16132514 0.46484375 30.23828125 C0.37783203 29.11873047 0.29082031 27.99917969 0.20117188 26.84570312 C0.11416016 25.67974609 0.02714844 24.51378906 -0.0625 23.3125 C-0.15337891 22.16587891 -0.24425781 21.01925781 -0.33789062 19.83789062 C-0.81713967 13.54279233 -1.20494108 7.31350747 -1 1 C-0.67 0.67 -0.34 0.34 0 0 Z " fill="#E3E5D4" transform="translate(16,2)"/>
<path d="M0 0 C4.86469323 0.90086912 8.20995754 3.32762344 11.9375 6.5 C14.86834453 8.89252614 17.58919839 10.40829258 21 12 C24 14 24 14 24.82421875 15.859375 C25.05491392 18.66872952 24.27700853 19.86212099 22.8125 22.25 C20.33594519 26.42140376 18.13769308 30.64544002 16 35 C12.21875 34.2890625 12.21875 34.2890625 10.25 31.6875 C9 29 9 29 9 25 C8.4534375 24.78085937 7.906875 24.56171875 7.34375 24.3359375 C4.24377122 22.5689496 1.95676633 20.16879075 -0.5 17.625 C-0.97308594 17.14289062 -1.44617188 16.66078125 -1.93359375 16.1640625 C-3.29219978 14.77911231 -4.6461937 13.38964235 -6 12 C-7.33111297 10.66444999 -8.66351831 9.33017753 -10 8 C-8.26043342 6.26043342 -5.8063378 6.62809614 -3.4375 6.4375 C-2.42558594 6.35371094 -1.41367188 6.26992188 -0.37109375 6.18359375 C0.41136719 6.12300781 1.19382812 6.06242187 2 6 C1.34 4.02 0.68 2.04 0 0 Z " fill="#604D0E" transform="translate(71,18)"/>
<path d="M0 0 C10.31663498 4.84542128 20.94504982 12.67031919 26 23 C26.99 23.33 27.98 23.66 29 24 C29.226875 23.01 29.45375 22.02 29.6875 21 C30.76740552 17.13425124 32.69221917 14.19065985 34.890625 10.8671875 C36.22184606 8.62661121 36.75731101 6.58868255 37 4 C37.99 4.495 37.99 4.495 39 5 C38.66678587 11.33106841 35.30257041 15.8161146 32 21 C30.99557906 22.66400612 29.99430293 24.32992831 29 26 C26.75 26 26.75 26 24 25 C22.76633875 22.9985356 21.8716107 20.99160173 20.9921875 18.8125 C20.07363556 16.64659324 20.07363556 16.64659324 17 16 C17.495 20.455 17.495 20.455 18 25 C16.865625 25.309375 15.73125 25.61875 14.5625 25.9375 C11.21224901 26.62924531 11.21224901 26.62924531 10 28 C7.125 28.3125 7.125 28.3125 4 28 C2.125 26.375 2.125 26.375 1 24 C0.8125 20.75 0.8125 20.75 1 18 C5.92984325 15.96006486 9.57960425 14.59347032 15 15 C11.11109219 8.98986975 5.30892124 5.44808009 -1.3828125 3.19921875 C-5.02157454 2.70084045 -7.58727001 2.93298862 -10.59423828 5.20410156 C-12.98331605 7.31101566 -15.28878747 9.49676865 -17.58544922 11.70361328 C-21.76890232 15.50956036 -24.50391815 16.82666266 -30.375 16.75 C-33.6484375 16.421875 -33.6484375 16.421875 -36 16 C-36.33 15.01 -36.66 14.02 -37 13 C-36.01 13.33 -35.02 13.66 -34 14 C-27.75436687 14.51193714 -25.12152917 13.90211746 -20 10 C-19.34 10 -18.68 10 -18 10 C-17.67 9.01 -17.34 8.02 -17 7 C-14.78515625 5.2109375 -14.78515625 5.2109375 -12.0625 3.375 C-11.16660156 2.76398437 -10.27070312 2.15296875 -9.34765625 1.5234375 C-5.60365086 -0.90611675 -4.33270945 -1.16429637 0 0 Z " fill="#C6951E" transform="translate(58,29)"/>
<path d="M0 0 C2.28884192 0.73634692 4.56018915 1.31827733 6.90234375 1.85546875 C10.46484375 2.79296875 10.46484375 2.79296875 13.46484375 4.79296875 C16.46484375 5.20963542 16.46484375 5.20963542 19.46484375 4.79296875 C20.13580078 4.05626953 20.13580078 4.05626953 20.8203125 3.3046875 C23.69749234 0.65986898 26.99139368 1.27316364 30.72265625 1.3671875 C35.00225125 2.03168302 36.66421249 3.53818107 39.46484375 6.79296875 C39.46484375 7.78296875 39.46484375 8.77296875 39.46484375 9.79296875 C40.0165625 9.86644531 40.56828125 9.93992187 41.13671875 10.015625 C44.34719892 11.08758063 46.22591431 12.95622767 48.71484375 15.23046875 C49.606875 16.03355469 50.49890625 16.83664063 51.41796875 17.6640625 C53.46484375 19.79296875 53.46484375 19.79296875 53.46484375 21.79296875 C54.12484375 22.12296875 54.78484375 22.45296875 55.46484375 22.79296875 C48.76124292 21.60998037 43.37992877 16.1438805 39.27734375 10.98046875 C36.66206291 7.77603124 34.63376445 6.55868888 30.46484375 5.79296875 C25.64628245 5.44422684 25.64628245 5.44422684 21.15234375 6.91796875 C16.73395027 8.35651546 12.88362691 6.89627148 8.46484375 5.79296875 C7.10957412 5.47181481 5.75409066 5.15156237 4.3984375 4.83203125 C2.96191375 4.48703099 1.52571508 4.14067437 0.08984375 3.79296875 C-0.60020752 3.62716309 -1.29025879 3.46135742 -2.0012207 3.29052734 C-5.41987155 2.43785198 -8.41779559 1.41629481 -11.53515625 -0.20703125 C-14.20224694 -0.37453539 -14.20224694 -0.37453539 -16.53515625 -0.20703125 C-16.21820801 0.62650879 -15.90125977 1.46004883 -15.57470703 2.31884766 C-14.44437356 6.09635945 -14.12266266 9.44463991 -13.90234375 13.37890625 C-13.86078156 14.08069 -13.81921936 14.78247375 -13.77639771 15.50552368 C-13.64664556 17.72597797 -13.52822313 19.94686562 -13.41015625 22.16796875 C-13.32366733 23.68233473 -13.23643514 25.19665844 -13.1484375 26.7109375 C-12.93541395 30.40449846 -12.73253966 34.09853515 -12.53515625 37.79296875 C-16.91088293 33.41724207 -15.78935921 23.83197831 -16.03515625 17.85546875 C-16.29950943 11.45714266 -16.76514369 5.15198914 -17.53515625 -1.20703125 C-11.9364695 -4.00637463 -5.5726922 -1.82894212 0 0 Z " fill="#D3D2BE" transform="translate(33.53515625,5.20703125)"/>
<path d="M0 0 C0.99 0.33 1.98 0.66 3 1 C2.01 1.99 1.02 2.98 0 4 C0.33 4.66 0.66 5.32 1 6 C1.27978496 7.99346781 1.51138855 9.99379638 1.71875 11.99609375 C1.84636719 13.19427734 1.97398438 14.39246094 2.10546875 15.62695312 C2.23566406 16.88443359 2.36585937 18.14191406 2.5 19.4375 C2.75737422 21.91568245 3.01765482 24.39356528 3.28125 26.87109375 C3.39533203 27.97380615 3.50941406 29.07651855 3.62695312 30.21264648 C3.92169786 33.07773971 3.92169786 33.07773971 5 36 C6.98 36.33 8.96 36.66 11 37 C11.33 36.01 11.66 35.02 12 34 C11.34 34 10.68 34 10 34 C10 33.34 10 32.68 10 32 C12.31 32 14.62 32 17 32 C16.34 31.01 15.68 30.02 15 29 C16.875 27.9375 16.875 27.9375 19 27 C19.66 27.33 20.32 27.66 21 28 C20.67 26.68 20.34 25.36 20 24 C24 24 24 24 27 25 C27.268125 24.29875 27.53625 23.5975 27.8125 22.875 C29.0681449 19.8350176 30.50235123 16.9272226 32 14 C31.34 13.34 30.68 12.68 30 12 C30.763125 11.71125 31.52625 11.4225 32.3125 11.125 C35.15029308 10.03730987 35.15029308 10.03730987 38 8 C40.1875 8.375 40.1875 8.375 42 9 C41.67 10.32 41.34 11.64 41 13 C39.02 13 37.04 13 35 13 C34.88785156 13.6290625 34.77570312 14.258125 34.66015625 14.90625 C32.8485657 22.76831619 29.29522241 26.22398662 23 31 C21.67162109 32.14275391 21.67162109 32.14275391 20.31640625 33.30859375 C15.71160165 37.07734872 12.49619713 39.6227293 6.375 39.125 C3.8984375 38.6953125 3.8984375 38.6953125 2 38 C0.61385107 35.22770214 0.6915412 32.76646255 0.5 29.671875 C0.4175 28.39699219 0.335 27.12210938 0.25 25.80859375 C0.1662854 24.45575271 0.08295552 23.1028878 0 21.75 C-0.16301159 19.11952782 -0.33048874 16.48944819 -0.5 13.859375 C-0.5721875 12.68858398 -0.644375 11.51779297 -0.71875 10.31152344 C-0.98614522 7.16313046 -1.4335669 4.10712157 -2 1 C-1.34 0.67 -0.68 0.34 0 0 Z " fill="#65561D" transform="translate(19,4)"/>
<path d="M0 0 C2.61733694 2.39283179 2.99018332 3.92135015 3.43237305 7.46411133 C3.47366615 8.83638495 3.49920659 10.20919351 3.51171875 11.58203125 C3.52966995 12.31443527 3.54762115 13.04683929 3.56611633 13.80143738 C3.6201274 16.13839918 3.65401656 18.47516315 3.6875 20.8125 C3.72069684 22.37307526 3.75518868 23.93362353 3.79101562 25.49414062 C3.9325461 31.99646635 4.01534385 38.49579364 4 45 C3.01 45.33 2.02 45.66 1 46 C-0.7265625 44.8828125 -0.7265625 44.8828125 -2.625 43.125 C-3.32882813 42.47789063 -4.03265625 41.83078125 -4.7578125 41.1640625 C-7.80694815 38.22116851 -10.79114263 35.21739782 -13.76953125 32.203125 C-17.5883337 28.431138 -21.60862048 24.87639161 -25.83203125 21.5625 C-27.26834356 20.43228703 -28.64150424 19.22264618 -30 18 C-30 17.01 -30 16.02 -30 15 C-29.39671875 15.020625 -28.7934375 15.04125 -28.171875 15.0625 C-25.58273248 14.99568342 -23.4664991 14.80925276 -21 14 C-19.63249585 12.10585186 -18.93727421 10.24941504 -18.09765625 8.07421875 C-14.75824333 1.76379789 -6.57070684 -0.57637779 0 0 Z M-15 6 C-16.75518883 8.54430643 -17.87553466 11.13529067 -19 14 C-20.96822886 15.96822886 -24.34808709 15.66248381 -27 16 C-25.62803835 19.1623716 -24.1434878 20.9936218 -21.5 23.1875 C-18.28383089 25.90842568 -15.12239599 28.67153327 -12 31.5 C-10.74703125 32.62728516 -10.74703125 32.62728516 -9.46875 33.77734375 C-7.8614652 35.2244087 -6.25713732 36.67476693 -4.65625 38.12890625 C-3.58890625 39.08603516 -3.58890625 39.08603516 -2.5 40.0625 C-1.8709375 40.63097656 -1.241875 41.19945312 -0.59375 41.78515625 C0.93110463 43.20207313 0.93110463 43.20207313 3 43 C2.73813516 37.96434286 2.47147891 32.9289705 2.20043945 27.89379883 C2.10896189 26.18195418 2.01877871 24.47003983 1.92993164 22.75805664 C1.80177111 20.2929353 1.66891049 17.82810464 1.53515625 15.36328125 C1.49656998 14.60163162 1.4579837 13.83998199 1.41822815 13.05525208 C1.49262993 6.58447907 1.49262993 6.58447907 -1 1 C-6.62622867 0.53677706 -10.63294158 2.57165507 -15 6 Z " fill="#8D6A11" transform="translate(84,60)"/>
<path d="M0 0 C3.91025991 0.57929776 6.16056336 2.3061755 9 5 C9.45375 5.928125 9.9075 6.85625 10.375 7.8125 C13.20908577 13.37166825 17.61463567 16.98083168 22.53515625 20.71484375 C23.16510498 21.19477783 23.79505371 21.67471191 24.4440918 22.16918945 C25.71549317 23.12776404 26.99680115 24.07336013 28.28833008 25.00463867 C31.10111273 27.11222008 32.81783978 28.43483623 33.9140625 31.8359375 C33.94242188 32.55007812 33.97078125 33.26421875 34 34 C33.12085938 34.5053125 32.24171875 35.010625 31.3359375 35.53125 C27.40510123 38.15949243 25.16848359 41.58047283 22.625 45.5 C22.15167236 46.20979004 21.67834473 46.91958008 21.19067383 47.65087891 C20.23416859 49.08733412 19.28235078 50.5269226 18.33544922 51.96972656 C17.14533984 53.77904093 15.9397814 55.5759877 14.72265625 57.3671875 C11.03833557 62.81234475 7.55762107 68.31343892 4.32421875 74.0390625 C3 76 3 76 0 78 C1.17804959 74.01275525 2.50581002 71.27825465 5 68 C6.25757369 65.79628937 7.43831128 63.56096044 8.62109375 61.31640625 C10.19886144 58.66593531 12.0720665 56.4081642 14 54 C16.13106157 50.88496352 18.16541577 47.70526286 20.20117188 44.52734375 C22.80337708 40.54560782 25.41882974 37.15094507 29 34 C29.66 34 30.32 34 31 34 C29.60669267 29.12342435 26.69815023 26.63481867 22.875 23.5625 C22.29258545 23.0787793 21.7101709 22.59505859 21.11010742 22.09667969 C17.94044753 19.48508015 14.70503417 17.06791929 11.3125 14.75 C7.57427827 12.06096732 7.14859037 9.43027716 6 5 C3.00628895 2.61384998 3.00628895 2.61384998 0 1 C0 0.67 0 0.34 0 0 Z " fill="#EBCE6D" transform="translate(89,28)"/>
<path d="M0 0 C2.52210129 3.78315193 2.46683021 7.02846258 2.66796875 11.4296875 C2.71190262 12.257034 2.75583649 13.08438049 2.80110168 13.9367981 C2.89191599 15.68664581 2.97820321 17.43673348 3.06030273 19.18701172 C3.18671839 21.85848258 3.32953157 24.52870344 3.47460938 27.19921875 C3.56087693 28.90099222 3.64619457 30.60281415 3.73046875 32.3046875 C3.77310349 33.10067352 3.81573822 33.89665955 3.85966492 34.71676636 C4.03638399 38.65798495 4.01842333 42.14471208 3 46 C2.67 46 2.34 46 2 46 C1.08596759 35.52977526 0.70421277 25.08734622 0.48242188 14.58203125 C0.44826172 13.38707031 0.41410156 12.19210938 0.37890625 10.9609375 C0.3538501 9.88634277 0.32879395 8.81174805 0.30297852 7.70458984 C0.18470396 4.78021544 0.18470396 4.78021544 -2 2 C-7.50729337 1.10085006 -11.3293199 2.60196478 -15.98046875 5.359375 C-19.23452141 8.00289941 -20.50059624 11.18009042 -22 15 C-23 16 -23 16 -25.06640625 16.09765625 C-25.89011719 16.08605469 -26.71382812 16.07445313 -27.5625 16.0625 C-28.38878906 16.05347656 -29.21507812 16.04445313 -30.06640625 16.03515625 C-31.02353516 16.01775391 -31.02353516 16.01775391 -32 16 C-32 15.67 -32 15.34 -32 15 C-30.741875 14.835 -29.48375 14.67 -28.1875 14.5 C-25.94124875 14.04579832 -25.94124875 14.04579832 -24 13 C-23.00379138 11.22454274 -23.00379138 11.22454274 -22.5 9.125 C-21.77222865 6.53319494 -21.41556823 5.32124825 -19.26171875 3.65625 C-17.20540385 2.63390135 -15.15682346 1.78617038 -13 1 C-11.989375 0.566875 -10.97875 0.13375 -9.9375 -0.3125 C-6.27578914 -1.16949616 -3.63649573 -0.90912393 0 0 Z " fill="#C6951E" transform="translate(86,59)"/>
<path d="M0 0 C0.66 0 1.32 0 2 0 C5.42533212 8.56333029 3.80080876 16.25321462 2 25 C2.75796875 25.26039062 3.5159375 25.52078125 4.296875 25.7890625 C7.07279053 27.03260847 8.33272451 28.06417849 10.25 30.375 C10.75015625 30.96023437 11.2503125 31.54546875 11.765625 32.1484375 C13.07154648 34.10731972 13.57436984 35.69957032 14 38 C14.969375 37.4225 15.93875 36.845 16.9375 36.25 C19.8147924 34.62421283 22.7156881 33.0715442 25.6875 31.625 C26.77611328 31.08746094 26.77611328 31.08746094 27.88671875 30.5390625 C30 30 30 30 32.26953125 30.8984375 C33.12611328 31.44371094 33.12611328 31.44371094 34 32 C32.783125 32.37125 31.56625 32.7425 30.3125 33.125 C24.93512131 34.88331748 19.96746962 37.35682528 14.91796875 39.890625 C11.94749488 41.01996179 10.87578148 41.19766202 8 40 C8.66 39.01 9.32 38.02 10 37 C9.84212123 33.84242455 9.48060091 32.46402847 7.1875 30.25 C5.08234243 29.04705282 3.33212331 28.56292632 1 28 C-1.31296163 23.37407674 -0.20093788 16.87204796 0.5625 11.875 C1.04529988 7.59877247 0.67950574 4.22803574 0 0 Z " fill="#EFD06B" transform="translate(20,43)"/>
<path d="M0 0 C2.28884192 0.73634692 4.56018915 1.31827733 6.90234375 1.85546875 C10.46484375 2.79296875 10.46484375 2.79296875 13.46484375 4.79296875 C13.46484375 5.45296875 13.46484375 6.11296875 13.46484375 6.79296875 C9.07490028 5.95965267 4.73953748 4.92485932 0.40234375 3.85546875 C-0.30470703 3.68595703 -1.01175781 3.51644531 -1.74023438 3.34179688 C-5.24790144 2.47558426 -8.34188533 1.46776119 -11.53515625 -0.20703125 C-14.20224694 -0.37453539 -14.20224694 -0.37453539 -16.53515625 -0.20703125 C-16.21820801 0.62650879 -15.90125977 1.46004883 -15.57470703 2.31884766 C-14.44437356 6.09635945 -14.12266266 9.44463991 -13.90234375 13.37890625 C-13.86078156 14.08069 -13.81921936 14.78247375 -13.77639771 15.50552368 C-13.64664556 17.72597797 -13.52822313 19.94686562 -13.41015625 22.16796875 C-13.32366733 23.68233473 -13.23643514 25.19665844 -13.1484375 26.7109375 C-12.93541395 30.40449846 -12.73253966 34.09853515 -12.53515625 37.79296875 C-16.91088293 33.41724207 -15.78935921 23.83197831 -16.03515625 17.85546875 C-16.29950943 11.45714266 -16.76514369 5.15198914 -17.53515625 -1.20703125 C-11.9364695 -4.00637463 -5.5726922 -1.82894212 0 0 Z " fill="#C4BFA9" transform="translate(33.53515625,5.20703125)"/>
<path d="M0 0 C3.09150195 1.1549004 6.04685441 2.52998975 9 4 C8.67 5.65 8.34 7.3 8 9 C6.20841511 9.02696365 4.41671527 9.04637917 2.625 9.0625 C1.62726562 9.07410156 0.62953125 9.08570312 -0.3984375 9.09765625 C-3 9 -3 9 -5 8 C-5.33 7.01 -5.66 6.02 -6 5 C-6.99 4.67 -7.98 4.34 -9 4 C-8.67 3.01 -8.34 2.02 -8 1 C-5.09261897 -0.45369052 -3.26033542 -0.29639413 0 0 Z " fill="#C6951E" transform="translate(47,60)"/>
<path d="M0 0 C3.07188658 1.02396219 4.28656315 2.14860891 6.47851562 4.43066406 C9.63206973 7.68339926 12.96088514 10.76052841 16.25 13.875 C16.96285156 14.55691406 17.67570312 15.23882812 18.41015625 15.94140625 C23.36989669 20.63305261 28.53842176 24.90461902 34 29 C33.67 29.66 33.34 30.32 33 31 C28.71137829 30.52348648 26.89869393 28.00526356 24 25 C17.64623012 18.55294475 11.30563771 12.1606176 4.171875 6.56640625 C2.73446787 5.43461606 1.3598603 4.22387427 0 3 C0 2.01 0 1.02 0 0 Z " fill="#797C62" transform="translate(54,75)"/>
<path d="M0 0 C4.00401967 1.36307053 6.63435702 3.15619164 9.75 6 C10.52859375 6.70125 11.3071875 7.4025 12.109375 8.125 C14 10 14 10 15 12 C15.99 12.33 16.98 12.66 18 13 C18 14.32 18 15.64 18 17 C17.1646875 17.02513672 17.1646875 17.02513672 16.3125 17.05078125 C11.97539559 17.54163597 9.68991888 18.23887122 6.69140625 21.546875 C5.29532117 23.52444873 3.93912896 25.53092895 2.62890625 27.56640625 C1 30 1 30 -1 31 C0.52579984 27.75201023 2.35064352 24.83639485 4.375 21.875 C4.96023437 21.00617188 5.54546875 20.13734375 6.1484375 19.2421875 C8.00237658 16.99712203 9.32143959 16.05018448 12 15 C11.74829058 11.3598945 11.16854732 10.16302549 8.49609375 7.578125 C6.98208984 6.42570312 6.98208984 6.42570312 5.4375 5.25 C3.61427559 3.84716236 1.79866525 2.43419107 0 1 C0 0.67 0 0.34 0 0 Z " fill="#E3E5D4" transform="translate(110,47)"/>
<path d="M0 0 C-0.27223814 3.35760377 -0.58370371 4.64317461 -3.1875 6.875 C-6.58133253 8.23253301 -8.50597866 7.89381941 -12 7 C-12.625 4.625 -12.625 4.625 -13 2 C-9.55192297 -1.44807703 -4.50554126 -1.62199485 0 0 Z " fill="#8D6A11" transform="translate(73,47)"/>
<path d="M0 0 C3.96 0.33 7.92 0.66 12 1 C12.33 2.65 12.66 4.3 13 6 C7.16605611 7.10643764 4.23420787 7.27137992 -1 4 C-0.67 2.68 -0.34 1.36 0 0 Z " fill="#EECF6B" transform="translate(29,63)"/>
<path d="M0 0 C6 3 6 3 6.76171875 4.796875 C7.07247205 7.67006946 6.31193132 8.80517944 4.8125 11.25 C2.33594519 15.42140376 0.13769308 19.64544002 -2 24 C-5.16457436 23.41687967 -5.79392207 23.27713928 -7.8125 20.5625 C-8.204375 19.716875 -8.59625 18.87125 -9 18 C-8.67 17.34 -8.34 16.68 -8 16 C-7.54625 16.825 -7.0925 17.65 -6.625 18.5 C-6.08875 19.325 -5.5525 20.15 -5 21 C-4.34 21 -3.68 21 -3 21 C-2.5875 19.96875 -2.175 18.9375 -1.75 17.875 C-0.61333095 15.16994624 0.51865309 13.26524145 2.25 10.8125 C4.21351936 8.23335142 4.21351936 8.23335142 3.9375 5.75 C2.99154148 3.65383728 2.99154148 3.65383728 0 2 C0 1.34 0 0.68 0 0 Z " fill="#8D6A11" transform="translate(89,29)"/>
<path d="M0 0 C3.0625 1.5 3.0625 1.5 5 3 C4.67 3.66 4.34 4.32 4 5 C3.01 4.34 2.02 3.68 1 3 C-1.37607867 2.64579239 -1.37607867 2.64579239 -3.9375 2.6875 C-5.21947266 2.66236328 -5.21947266 2.66236328 -6.52734375 2.63671875 C-9.45655124 3.06707625 -10.72282764 4.17729516 -13 6 C-16.86051522 5.80697424 -19.09441905 4.47512452 -22 2 C-20.783125 2.04125 -19.56625 2.0825 -18.3125 2.125 C-15.62144773 2.13440927 -14.08396424 2.03444687 -11.5625 1 C-7.73442321 -0.49388363 -4.0583511 -0.50637654 0 0 Z " fill="#83856B" transform="translate(66,10)"/>
<path d="M0 0 C-1.36726525 2.7345305 -3.25062876 3.05157162 -5.984375 4.140625 C-8.02111352 5.00900189 -9.88270107 6.04242987 -11.8125 7.125 C-16.37908534 9.47558027 -20.92944732 9.79219046 -26 10 C-25.67 9.34 -25.34 8.68 -25 8 C-24.14664062 7.86722656 -23.29328125 7.73445313 -22.4140625 7.59765625 C-18.28831296 6.87541405 -15.08947521 5.30583663 -11.375 3.4375 C-4.54036204 0 -4.54036204 0 0 0 Z " fill="#B9B29A" transform="translate(54,75)"/>
<path d="M0 0 C1.22589844 0.29197266 1.22589844 0.29197266 2.4765625 0.58984375 C3.41628906 0.82380859 3.41628906 0.82380859 4.375 1.0625 C4.375 2.3825 4.375 3.7025 4.375 5.0625 C-1.97551546 5.42887589 -1.97551546 5.42887589 -5.0625 3.6875 C-6.625 2.0625 -6.625 2.0625 -6.625 0.0625 C-3.99249612 -1.25375194 -2.82320944 -0.68563658 0 0 Z " fill="#886918" transform="translate(48.625,62.9375)"/>
<path d="M0 0 C4.41672829 2.01407991 7.79060368 4.29564029 11.375 7.5625 C12.24898437 8.34753906 13.12296875 9.13257813 14.0234375 9.94140625 C16 12 16 12 16 14 C16.66 14.33 17.32 14.66 18 15 C10.91914535 13.77971666 4.63969732 7.23836794 0 2 C0 1.34 0 0.68 0 0 Z " fill="#CFCDB8" transform="translate(71,13)"/>
<path d="M0 0 C0 0.99 0 1.98 0 3 C-4.95 4.485 -4.95 4.485 -10 6 C-10 5.01 -10 4.02 -10 3 C-3.375 -1.125 -3.375 -1.125 0 0 Z " fill="#442D0A" transform="translate(82,63)"/>
<path d="M0 0 C2.31 0 4.62 0 7 0 C6.34 1.32 5.68 2.64 5 4 C3.35 3.67 1.7 3.34 0 3 C0 2.01 0 1.02 0 0 Z " fill="#5F4B0B" transform="translate(62,49)"/>
<path d="M0 0 C6 3 6 3 6.75 4.8125 C7.05694702 7.49828639 6.38111722 8.7252187 5 11 C4.34 11 3.68 11 3 11 C3.33 9.02 3.66 7.04 4 5 C3.01 4.319375 3.01 4.319375 2 3.625 C1.34 3.08875 0.68 2.5525 0 2 C0 1.34 0 0.68 0 0 Z " fill="#8C6E1F" transform="translate(89,29)"/>
<path d="M0 0 C0.99 0 1.98 0 3 0 C3.33 1.65 3.66 3.3 4 5 C2.68 5.33 1.36 5.66 0 6 C-0.38218767 4.34385343 -0.71395102 2.67542976 -1 1 C-0.67 0.67 -0.34 0.34 0 0 Z " fill="#47300A" transform="translate(81,94)"/>
<path d="M0 0 C1.5625 1.1875 1.5625 1.1875 3 3 C2.6875 5.6875 2.6875 5.6875 2 8 C1.01 7.34 0.02 6.68 -1 6 C-1.25 3.4375 -1.25 3.4375 -1 1 C-0.67 0.67 -0.34 0.34 0 0 Z " fill="#442D0A" transform="translate(82,85)"/>
<path d="M0 0 C2.475 0.495 2.475 0.495 5 1 C5.33 1.99 5.66 2.98 6 4 C6.66 4.33 7.32 4.66 8 5 C4.20411134 4.45773019 2.52788007 2.79872437 0 0 Z " fill="#C7C4AE" transform="translate(81,23)"/>
</svg>
