<?xml version="1.0" encoding="UTF-8"?>
<svg version="1.1" xmlns="http://www.w3.org/2000/svg" width="128" height="128">
<path d="M0 0 C42.24 0 84.48 0 128 0 C128 42.24 128 84.48 128 128 C85.76 128 43.52 128 0 128 C0 85.76 0 43.52 0 0 Z " fill="#FCFCFB" transform="translate(0,0)"/>
<path d="M0 0 C1.12728516 -0.00580078 1.12728516 -0.00580078 2.27734375 -0.01171875 C6.54532621 -0.00427026 10.54687789 0.28169843 14.75 1.125 C14.75 1.785 14.75 2.445 14.75 3.125 C15.90628906 3.09019531 15.90628906 3.09019531 17.0859375 3.0546875 C18.08882812 3.03664063 19.09171875 3.01859375 20.125 3 C21.62160156 2.96519531 21.62160156 2.96519531 23.1484375 2.9296875 C25.75 3.125 25.75 3.125 27.75 5.125 C28.12890625 7.4375 28.12890625 7.4375 28.3125 10.125 C28.52217523 13.76218775 28.52217523 13.76218775 29.75 17.125 C32.79386724 17.20726668 34.82175348 17.10108217 37.75 16.125 C38.48323796 14.10991642 38.48323796 14.10991642 38.75 12.125 C42.215 11.63 42.215 11.63 45.75 11.125 C45.75 10.465 45.75 9.805 45.75 9.125 C48.37506802 9.09809156 50.99986173 9.07820596 53.625 9.0625 C54.37136719 9.05412109 55.11773437 9.04574219 55.88671875 9.03710938 C61.5234375 9.01171875 61.5234375 9.01171875 63.75 10.125 C63.75 10.785 63.75 11.445 63.75 12.125 C64.3275 12.310625 64.905 12.49625 65.5 12.6875 C68.76893003 14.77598307 70.46607567 17.54011016 71.75 21.125 C71.65194489 27.00830632 71.65194489 27.00830632 69.4375 29.75 C68.880625 30.20375 68.32375 30.6575 67.75 31.125 C64.69383487 34.19486696 64.69383487 34.19486696 63.6875 38.1875 C64.68691599 40.30431319 64.68691599 40.30431319 66.9375 41.875 C70.06891135 44.38012908 72.04029332 47.05433908 74.3203125 50.3203125 C75.80387157 52.38317474 75.80387157 52.38317474 78.75 54.125 C78.42 55.445 78.09 56.765 77.75 58.125 C71.125 58.25 71.125 58.25 67.75 57.125 C67.73582031 57.681875 67.72164063 58.23875 67.70703125 58.8125 C67.2639138 65.90237914 64.8215602 70.45084488 60.31640625 75.83984375 C57.72262873 77.96790561 54.95948298 77.30666885 51.75 77.125 C51.255 78.61 51.255 78.61 50.75 80.125 C49.63625 80.434375 48.5225 80.74375 47.375 81.0625 C43.84411746 81.82610087 43.84411746 81.82610087 41.9375 83.6875 C40.16018543 87.33567202 39.4720239 91.14962133 38.75 95.125 C36.91015625 95.72265625 36.91015625 95.72265625 34.75 96.125 C30.56223306 93.57148358 28.17012097 90.8291507 26.75 86.125 C27.27408932 83.89310238 28.074639 81.87684334 28.9296875 79.75 C29.90549853 76.62740469 30.01161862 73.82788361 30.125 70.5625 C30.46835812 64.69794328 31.57615641 60.40318968 35.75 56.125 C38.5 54.875 38.5 54.875 40.75 54.125 C41.42479949 52.11381127 41.42479949 52.11381127 41.75 50.125 C40.16642541 50.43627516 38.58315007 50.74907289 37 51.0625 C36.11828125 51.23652344 35.2365625 51.41054688 34.328125 51.58984375 C32.73654465 51.92021725 31.15206206 52.29121379 29.5859375 52.7265625 C27.75 53.125 27.75 53.125 25.125 52.5625 C24.34125 52.418125 23.5575 52.27375 22.75 52.125 C21.76 53.115 21.76 53.115 20.75 54.125 C18.625 53.75 18.625 53.75 16.75 53.125 C17.75 50.125 17.75 50.125 20.75 48.125 C21.08 47.135 21.41 46.145 21.75 45.125 C24.7115696 43.6442152 27.58506295 43.77185963 30.875 43.5625 C32.15632813 43.47871094 33.43765625 43.39492188 34.7578125 43.30859375 C35.74523437 43.24800781 36.73265625 43.18742187 37.75 43.125 C37.20420192 37.88533841 36.27192908 32.81320149 33.75 28.125 C30.27648925 25.80932616 28.83600528 25.52912423 24.75 26.125 C22.8145852 28.51556942 22.8145852 28.51556942 21.75 31.125 C20.33194169 30.84017632 18.91559621 30.54681856 17.5 30.25 C16.71109375 30.08757813 15.9221875 29.92515625 15.109375 29.7578125 C12.78168856 29.13349925 10.85968048 28.27661458 8.75 27.125 C4.70808535 31.61601628 2.31325559 36.71484989 -0.25 42.125 C0.74 42.62 0.74 42.62 1.75 43.125 C1.75 43.785 1.75 44.445 1.75 45.125 C5.38 45.125 9.01 45.125 12.75 45.125 C13.08 46.115 13.41 47.105 13.75 48.125 C13.255 49.115 13.255 49.115 12.75 50.125 C7.44539146 51.75718724 1.92546458 50.94944435 -3.25 49.125 C-3.91 48.135 -4.57 47.145 -5.25 46.125 C-7.58291811 46.08098268 -9.91700175 46.08545766 -12.25 46.125 C-15.1875 45.125 -15.1875 45.125 -17.25 44.125 C-17.353125 44.846875 -17.45625 45.56875 -17.5625 46.3125 C-18.25 49.125 -18.25 49.125 -19.8125 51.4375 C-21.86790049 55.28020526 -21.59485101 57.77987725 -21.25 62.125 C-20.29265059 64.31719635 -20.29265059 64.31719635 -19.25 66.125 C-17.97125 65.815625 -16.6925 65.50625 -15.375 65.1875 C-9.62596291 64.47458284 -6.51220839 67.14328236 -2.12109375 70.55859375 C-1.50363281 71.07550781 -0.88617188 71.59242187 -0.25 72.125 C-0.86875 71.0525 -1.4875 69.98 -2.125 68.875 C-2.66833984 67.91207031 -2.66833984 67.91207031 -3.22265625 66.9296875 C-3.97686466 65.60480429 -4.76137824 64.29705427 -5.5625 63 C-6.49888678 60.44621787 -5.96494729 58.69881023 -5.25 56.125 C0.0081813 55.80950912 3.21372627 56.42483706 7.75 59.125 C9.31305491 60.68805491 9.05639968 62.40178218 9.25 64.5625 C9.54146944 67.96997505 9.54146944 67.96997505 10.75 71.125 C13.33605332 71.5933265 13.33605332 71.5933265 16.3125 71.75 C17.83037109 71.86214844 17.83037109 71.86214844 19.37890625 71.9765625 C20.55259766 72.05003906 20.55259766 72.05003906 21.75 72.125 C22.3125 74.0625 22.3125 74.0625 22.75 76.125 C21.75 77.125 21.75 77.125 19.98413086 77.23852539 C19.23526611 77.23328857 18.48640137 77.22805176 17.71484375 77.22265625 C16.90595703 77.21943359 16.09707031 77.21621094 15.26367188 77.21289062 C14.41353516 77.20451172 13.56339844 77.19613281 12.6875 77.1875 C11.83349609 77.18298828 10.97949219 77.17847656 10.09960938 77.17382812 C7.98304337 77.16200373 5.86651315 77.14406769 3.75 77.125 C3.255 79.105 3.255 79.105 2.75 81.125 C-5.125 82.125 -5.125 82.125 -6.25 82.125 C-5.26 82.785 -4.27 83.445 -3.25 84.125 C-3.0625 86.75 -3.0625 86.75 -3.25 89.125 C-5 89.875 -5 89.875 -7.25 90.125 C-9.64030194 88.28105279 -10.97334606 86.79687384 -12.125 84 C-12.16625 83.38125 -12.2075 82.7625 -12.25 82.125 C-11.59 81.465 -10.93 80.805 -10.25 80.125 C-14.35457614 77.13985372 -17.22745369 76.8295561 -22.25 77.125 C-21.92 80.755 -21.59 84.385 -21.25 88.125 C-26.25 89.125 -26.25 89.125 -29.25 87.125 C-29.7265625 85.03125 -29.7265625 85.03125 -29.875 82.625 C-30.07462241 79.24738732 -30.07462241 79.24738732 -31.25 76.125 C-31.92546875 76.17140625 -32.6009375 76.2178125 -33.296875 76.265625 C-40.54883139 76.55905676 -40.54883139 76.55905676 -43.875 74.5 C-45.70546115 71.33829438 -45.81744888 69.74248664 -45.25 66.125 C-44.08620714 63.63187478 -42.74006075 61.45321992 -41.25 59.125 C-39.27 59.455 -37.29 59.785 -35.25 60.125 C-35.11722656 59.17238281 -34.98445313 58.21976563 -34.84765625 57.23828125 C-34.67105469 55.98402344 -34.49445312 54.72976562 -34.3125 53.4375 C-34.05146484 51.57544922 -34.05146484 51.57544922 -33.78515625 49.67578125 C-32.88220837 43.68468913 -31.86701927 37.63790125 -29.25 32.125 C-26.75 30.375 -26.75 30.375 -24.25 29.125 C-23.23812105 27.46551852 -22.2373454 25.79919438 -21.25 24.125 C-19.91666667 23.45833333 -18.58333333 22.79166667 -17.25 22.125 C-16.34281086 21.11124346 -15.4699785 20.06616405 -14.625 19 C-13.449375 17.576875 -13.449375 17.576875 -12.25 16.125 C-11.59 16.125 -10.93 16.125 -10.25 16.125 C-10.55035156 15.51011719 -10.85070313 14.89523438 -11.16015625 14.26171875 C-11.54042969 13.45347656 -11.92070313 12.64523437 -12.3125 11.8125 C-12.69535156 11.01199219 -13.07820313 10.21148437 -13.47265625 9.38671875 C-14.25 7.125 -14.25 7.125 -13.25 4.125 C-12.26 4.125 -11.27 4.125 -10.25 4.125 C-10.25 3.135 -10.25 2.145 -10.25 1.125 C-7.02994193 -0.48502904 -3.53321844 -0.01781455 0 0 Z " fill="#C4A065" transform="translate(45.25,2.875)"/>
<path d="M0 0 C42.24 0 84.48 0 128 0 C128 42.24 128 84.48 128 128 C113.48 128 98.96 128 84 128 C85 116 85 116 88 110 C88.01052935 107.17286826 87.56924219 104.79877411 87 102 C86.67 101.67 86.34 101.34 86 101 C85.93672626 94.39422152 87.02634703 89.29820395 91 84 C93.6875 82.6875 93.6875 82.6875 96 82 C96.33 81.34 96.66 80.68 97 80 C99.31 80 101.62 80 104 80 C104.495 78.515 104.495 78.515 105 77 C105.99 76.34 106.98 75.68 108 75 C110.71940093 70.31137771 112.44601306 65.40137266 113 60 C116.3 60 119.6 60 123 60 C123 59.01 123 58.02 123 57 C121.56859365 55.80161329 120.1311467 54.60928011 118.65625 53.46484375 C116.36959396 51.44244749 114.82297622 49.10365043 113.17578125 46.55078125 C111.90681926 44.70106689 111.90681926 44.70106689 109 43 C108.1875 41.0625 108.1875 41.0625 108 39 C108.66 38.01 109.32 37.02 110 36 C110.66 36 111.32 36 112 36 C112.66 34.35 113.32 32.7 114 31 C114.66 31 115.32 31 116 31 C116.6556849 24.70542497 114.96051545 20.9206404 111 16 C110.01 15.505 110.01 15.505 109 15 C109 14.34 109 13.68 109 13 C103.06 12.67 97.12 12.34 91 12 C91 12.66 91 13.32 91 14 C88.69 14.33 86.38 14.66 84 15 C83.896875 15.61875 83.79375 16.2375 83.6875 16.875 C83 19 83 19 80 21 C77.4375 21.3125 77.4375 21.3125 75 21 C72.88660669 17.82991003 72.68986736 16.55848959 72.4375 12.875 C72.45515121 9.63079025 72.45515121 9.63079025 71 7 C69.15108054 6.76636119 67.29511969 6.58696365 65.4375 6.4375 C64.42558594 6.35371094 63.41367187 6.26992187 62.37109375 6.18359375 C61.19740234 6.09271484 61.19740234 6.09271484 60 6 C60 5.34 60 4.68 60 4 C51.75 4 43.5 4 35 4 C35 4.99 35 5.98 35 7 C34.01 7 33.02 7 32 7 C32.4979837 10.73487777 32.87491756 12.81237635 35 16 C35 16.99 35 17.98 35 19 C33.36395804 20.37073786 31.69321939 21.70055256 30 23 C29.46375 23.7425 28.9275 24.485 28.375 25.25 C27.92125 25.8275 27.4675 26.405 27 27 C26.01 27 25.02 27 24 27 C23.9175 27.5775 23.835 28.155 23.75 28.75 C22.774018 31.67794601 21.36488777 33.05244537 19 35 C18.01 35 17.02 35 16 35 C15.87625 36.258125 15.7525 37.51625 15.625 38.8125 C15.30131941 42.10325263 14.93395001 43.09907498 13 46 C12.45710308 49.49866902 12.08795636 52.96244068 11.7890625 56.48828125 C11.71429688 57.29652344 11.63953125 58.10476562 11.5625 58.9375 C11.50191406 59.68902344 11.44132813 60.44054688 11.37890625 61.21484375 C11.25386719 61.80394531 11.12882813 62.39304688 11 63 C8.3333581 64.33332095 6.83319697 63.67102033 4 63 C3.01 64.98 2.02 66.96 1 69 C0.67 69 0.34 69 0 69 C0 46.23 0 23.46 0 0 Z " fill="#FCFCFB" transform="translate(0,0)"/>
<path d="M0 0 C4.15650112 0.83130022 5.53284517 2.31280217 8.125 5.625 C9.95788006 9.84062413 10.6773298 14.05876394 11.125 18.625 C9.06577598 20.68422402 4.90791876 20.03927579 2.0625 20.1875 C0.92458008 20.25227539 0.92458008 20.25227539 -0.23632812 20.31835938 C-2.11565438 20.42473633 -3.99530244 20.52539934 -5.875 20.625 C-5.978125 21.24375 -6.08125 21.8625 -6.1875 22.5 C-6.875 24.625 -6.875 24.625 -9.875 26.625 C-9.875 27.285 -9.875 27.945 -9.875 28.625 C-9.2975 28.480625 -8.72 28.33625 -8.125 28.1875 C-7.01125 27.9090625 -7.01125 27.9090625 -5.875 27.625 C-5.235625 27.41875 -4.59625 27.2125 -3.9375 27 C-1.875 26.625 -1.875 26.625 0.4375 27.1875 C4.0544666 27.77630852 6.65666696 26.69703021 10.125 25.625 C11.445 25.625 12.765 25.625 14.125 25.625 C13.9375 27.4375 13.9375 27.4375 13.125 29.625 C11.9803125 30.2746875 11.9803125 30.2746875 10.8125 30.9375 C7.21806429 33.19447126 5.45882535 35.67091876 4.125 39.625 C3.73371179 42.88994247 3.55750022 46.12110573 3.421875 49.40625 C3.13789479 52.48519337 2.49490462 54.66998238 1.3125 57.5 C0.36892266 59.97518114 -0.02813851 61.09662145 0.71484375 63.66015625 C2.437086 66.82518257 4.12691801 68.62627867 7.125 70.625 C8.115 70.625 9.105 70.625 10.125 70.625 C10.25455078 69.75488281 10.25455078 69.75488281 10.38671875 68.8671875 C11.42590261 63.08970657 12.72981395 59.61133153 17.125 55.625 C19.9375 55.25 19.9375 55.25 22.125 55.625 C21.526875 55.83125 20.92875 56.0375 20.3125 56.25 C17.13269731 58.24873312 16.44296106 60.11043716 15.125 63.625 C14.02231625 69.27399465 13.76356844 73.311779 16.125 78.625 C15.88611808 81.55130354 15.55851848 83.82906007 14.1484375 86.41796875 C12.85460112 89.2081121 12.46200517 91.83896602 12 94.875 C11.83242187 95.95265625 11.66484375 97.0303125 11.4921875 98.140625 C11.31042969 99.37039062 11.31042969 99.37039062 11.125 100.625 C8.485 100.625 5.845 100.625 3.125 100.625 C3.785 96.995 4.445 93.365 5.125 89.625 C3.145 89.13 3.145 89.13 1.125 88.625 C0.15653311 86.01013938 0.07940372 84.7807873 0.875 82.0625 C2.125 79.625 2.125 79.625 3.8125 78.0625 C4.245625 77.588125 4.67875 77.11375 5.125 76.625 C4.71448886 73.27133275 3.4617402 71.6660917 1.125 69.3125 C-1.9691207 65.8008594 -2.95789427 63.43286758 -2.875 58.625 C-2.08354599 55.53338279 -1.06310047 52.58518253 0.125 49.625 C-1.195 49.625 -2.515 49.625 -3.875 49.625 C-4.205 50.945 -4.535 52.265 -4.875 53.625 C-6.53789062 53.62886719 -6.53789062 53.62886719 -8.234375 53.6328125 C-9.69795682 53.67034024 -11.16149774 53.70948783 -12.625 53.75 C-13.35460938 53.74742188 -14.08421875 53.74484375 -14.8359375 53.7421875 C-17.29521598 53.77180297 -17.29521598 53.77180297 -20.875 54.625 C-24.21364487 58.53629269 -25.94399873 62.88526962 -27.875 67.625 C-28.52788627 68.96513497 -29.18725595 70.30241528 -29.875 71.625 C-32.185 71.625 -34.495 71.625 -36.875 71.625 C-38.875 65.875 -38.875 65.875 -38.875 63.625 C-39.865 63.295 -40.855 62.965 -41.875 62.625 C-43.0625 59.0625 -43.0625 59.0625 -43.875 55.625 C-45.195 55.295 -46.515 54.965 -47.875 54.625 C-47.4109375 55.5840625 -47.4109375 55.5840625 -46.9375 56.5625 C-45.57978664 60.47590909 -44.77693311 64.4653295 -44.875 68.625 C-47.88117269 71.63117269 -50.69881598 71.22085316 -54.875 71.625 C-54.936875 70.92375 -54.99875 70.2225 -55.0625 69.5 C-56.16529316 65.59780881 -58.21716021 63.68151576 -60.875 60.625 C-61.37 59.14 -61.37 59.14 -61.875 57.625 C-63.64539169 56.60689828 -63.64539169 56.60689828 -65.75 55.8125 C-69.1382432 54.25196505 -69.80941117 53.73158185 -71.875 50.375 C-72.205 49.4675 -72.535 48.56 -72.875 47.625 C-69.875 48.625 -69.875 48.625 -68.875 50.625 C-68.17632812 50.59019531 -67.47765625 50.55539063 -66.7578125 50.51953125 C-65.84773438 50.49246094 -64.93765625 50.46539062 -64 50.4375 C-63.09507813 50.40269531 -62.19015625 50.36789063 -61.2578125 50.33203125 C-60.07832031 50.47705078 -60.07832031 50.47705078 -58.875 50.625 C-56.73913322 53.82880017 -56.64367825 54.64439967 -56.75 58.3125 C-56.76804687 59.12074219 -56.78609375 59.92898437 -56.8046875 60.76171875 C-56.82789062 61.37660156 -56.85109375 61.99148437 -56.875 62.625 C-53.41 63.12 -53.41 63.12 -49.875 63.625 C-50.205 59.665 -50.535 55.705 -50.875 51.625 C-45.20223489 51.33158112 -41.88432754 51.61940348 -36.875 54.625 C-37.4009375 55.73875 -37.4009375 55.73875 -37.9375 56.875 C-38.92009293 59.7572726 -38.9076802 60.83676345 -37.875 63.625 C-35.565 63.955 -33.255 64.285 -30.875 64.625 C-31.06328772 62.18019921 -31.06328772 62.18019921 -31.875 59.625 C-33.84258273 58.26479849 -33.84258273 58.26479849 -35.875 57.625 C-35.38 56.635 -35.38 56.635 -34.875 55.625 C-33.2353125 55.9034375 -33.2353125 55.9034375 -31.5625 56.1875 C-27.93875867 56.8828068 -27.93875867 56.8828068 -24.875 55.625 C-24.545 54.635 -24.215 53.645 -23.875 52.625 C-17.935 52.295 -11.995 51.965 -5.875 51.625 C-5.875 50.635 -5.875 49.645 -5.875 48.625 C-6.64585938 48.58761719 -7.41671875 48.55023438 -8.2109375 48.51171875 C-9.21382812 48.44597656 -10.21671875 48.38023438 -11.25 48.3125 C-12.74660156 48.22548828 -12.74660156 48.22548828 -14.2734375 48.13671875 C-15.13195313 47.96785156 -15.99046875 47.79898438 -16.875 47.625 C-18.97311419 44.47782871 -19.05348477 43.70076126 -19.125 40.125 C-19.28758395 37.75142424 -19.28758395 37.75142424 -19.875 35.625 C-23.85286765 32.5942437 -27.96905403 32.1155946 -32.875 31.625 C-32.4779389 37.4816513 -31.85400284 40.13257744 -27.875 44.625 C-27.875 45.615 -27.875 46.605 -27.875 47.625 C-30.43114089 46.44524267 -32.51386841 45.16283987 -34.8125 43.5 C-38.7297124 41.10170669 -40.82822381 41.1824538 -45.1875 42.125 C-45.744375 42.29 -46.30125 42.455 -46.875 42.625 C-49.47669606 39.15607192 -50.44613966 36.26287773 -50.3125 31.89453125 C-49.45070882 27.42398952 -47.1216041 23.54051 -44.875 19.625 C-32.27599663 21.11979701 -32.27599663 21.11979701 -30.6875 23.12109375 C-27.89859046 25.4351674 -25.243878 25.14936339 -21.6875 25.3125 C-20.41519531 25.37824219 -19.14289062 25.44398437 -17.83203125 25.51171875 C-16.85621094 25.54910156 -15.88039062 25.58648437 -14.875 25.625 C-14.875 24.305 -14.875 22.985 -14.875 21.625 C-18.505 21.295 -22.135 20.965 -25.875 20.625 C-25.875 19.965 -25.875 19.305 -25.875 18.625 C-26.865 18.295 -27.855 17.965 -28.875 17.625 C-22.72465831 5.91884966 -22.72465831 5.91884966 -18.875 1.625 C-18.31296875 1.93179687 -17.7509375 2.23859375 -17.171875 2.5546875 C-14.81153066 3.65457585 -12.67034438 4.22595851 -10.125 4.75 C-8.92617187 5.00136719 -8.92617187 5.00136719 -7.703125 5.2578125 C-7.09984375 5.37898438 -6.4965625 5.50015625 -5.875 5.625 C-5.318125 4.3875 -5.318125 4.3875 -4.75 3.125 C-2.875 0.625 -2.875 0.625 0 0 Z " fill="#F1E8D7" transform="translate(72.875,27.375)"/>
<path d="M0 0 C0.74572266 0.00386719 1.49144531 0.00773438 2.25976562 0.01171875 C3.00162109 0.00785156 3.74347656 0.00398437 4.5078125 0 C10.06899561 0.01008374 10.06899561 0.01008374 12.32226562 1.13671875 C15.07744679 1.41223687 17.83244234 1.58278116 20.59570312 1.7578125 C23.26847443 2.12924347 25.01152244 2.78422214 27.32226562 4.13671875 C27.30164063 5.04421875 27.28101562 5.95171875 27.25976562 6.88671875 C27.31124112 9.56344463 27.54376732 11.60659927 28.32226562 14.13671875 C24.85285016 13.67849407 21.64831514 13.24540192 18.32226562 12.13671875 C18.13664062 13.21953125 18.13664062 13.21953125 17.94726562 14.32421875 C17.30945864 17.19435019 16.75349128 19.56051257 15.32226562 22.13671875 C14.54238281 22.25402344 13.7625 22.37132813 12.95898438 22.4921875 C9.45280692 23.3492531 8.79668477 24.69608436 6.88476562 27.69921875 C6.29179688 28.59640625 5.69882812 29.49359375 5.08789062 30.41796875 C4.50523438 31.31515625 3.92257813 32.21234375 3.32226562 33.13671875 C2.27715203 34.66955202 1.21618782 36.19178175 0.13476562 37.69921875 C-0.53619141 38.66021484 -0.53619141 38.66021484 -1.22070312 39.640625 C-2.9650451 41.43173217 -4.24104437 41.75582288 -6.67773438 42.13671875 C-6.67773438 42.79671875 -6.67773438 43.45671875 -6.67773438 44.13671875 C-9.44049615 43.61403409 -12.00382197 43.02802288 -14.67773438 42.13671875 C-14.78085937 42.85859375 -14.88398438 43.58046875 -14.99023438 44.32421875 C-15.67773438 47.13671875 -15.67773438 47.13671875 -17.24023438 49.44921875 C-19.29563486 53.29192401 -19.02258539 55.791596 -18.67773438 60.13671875 C-17.72038497 62.3289151 -17.72038497 62.3289151 -16.67773438 64.13671875 C-15.39898438 63.82734375 -14.12023437 63.51796875 -12.80273438 63.19921875 C-7.05369728 62.48630159 -3.93994277 65.15500111 0.45117188 68.5703125 C1.06863281 69.08722656 1.68609375 69.60414062 2.32226562 70.13671875 C1.70351563 69.06421875 1.08476563 67.99171875 0.44726562 66.88671875 C-0.09607422 65.92378906 -0.09607422 65.92378906 -0.65039062 64.94140625 C-1.40459903 63.61652304 -2.18911262 62.30877302 -2.99023438 61.01171875 C-3.92662115 58.45793662 -3.39268166 56.71052898 -2.67773438 54.13671875 C2.58044693 53.82122787 5.78599189 54.43655581 10.32226562 57.13671875 C11.88532054 58.69977366 11.62866531 60.41350093 11.82226562 62.57421875 C12.11373507 65.9816938 12.11373507 65.9816938 13.32226562 69.13671875 C15.90831894 69.60504525 15.90831894 69.60504525 18.88476562 69.76171875 C20.40263672 69.87386719 20.40263672 69.87386719 21.95117188 69.98828125 C23.12486328 70.06175781 23.12486328 70.06175781 24.32226562 70.13671875 C24.88476563 72.07421875 24.88476563 72.07421875 25.32226562 74.13671875 C24.32226562 75.13671875 24.32226562 75.13671875 22.55639648 75.25024414 C21.80753174 75.24500732 21.05866699 75.23977051 20.28710938 75.234375 C19.47822266 75.23115234 18.66933594 75.22792969 17.8359375 75.22460938 C16.98580078 75.21623047 16.13566406 75.20785156 15.25976562 75.19921875 C14.40576172 75.19470703 13.55175781 75.19019531 12.671875 75.18554688 C10.55530899 75.17372248 8.43877877 75.15578644 6.32226562 75.13671875 C5.82726563 77.11671875 5.82726563 77.11671875 5.32226562 79.13671875 C-2.55273438 80.13671875 -2.55273438 80.13671875 -3.67773438 80.13671875 C-2.68773437 80.79671875 -1.69773438 81.45671875 -0.67773438 82.13671875 C-0.49023438 84.76171875 -0.49023438 84.76171875 -0.67773438 87.13671875 C-2.42773437 87.88671875 -2.42773437 87.88671875 -4.67773438 88.13671875 C-7.06803631 86.29277154 -8.40108044 84.80859259 -9.55273438 82.01171875 C-9.59398437 81.39296875 -9.63523438 80.77421875 -9.67773438 80.13671875 C-9.01773438 79.47671875 -8.35773437 78.81671875 -7.67773438 78.13671875 C-11.78231051 75.15157247 -14.65518807 74.84127485 -19.67773438 75.13671875 C-19.34773438 78.76671875 -19.01773437 82.39671875 -18.67773438 86.13671875 C-23.67773437 87.13671875 -23.67773437 87.13671875 -26.67773438 85.13671875 C-27.15429688 83.04296875 -27.15429688 83.04296875 -27.30273438 80.63671875 C-27.50235679 77.25910607 -27.50235679 77.25910607 -28.67773438 74.13671875 C-29.35320313 74.183125 -30.02867188 74.22953125 -30.72460938 74.27734375 C-38.10140504 74.57582681 -38.10140504 74.57582681 -41.30273438 72.13671875 C-41.75648437 71.47671875 -42.21023437 70.81671875 -42.67773438 70.13671875 C-42.40960938 69.62109375 -42.14148437 69.10546875 -41.86523438 68.57421875 C-40.3542403 65.4727046 -39.02200712 62.31409069 -37.67773438 59.13671875 C-37.01773438 59.13671875 -36.35773437 59.13671875 -35.67773438 59.13671875 C-35.67773438 59.79671875 -35.67773438 60.45671875 -35.67773438 61.13671875 C-33.69773437 61.79671875 -31.71773437 62.45671875 -29.67773438 63.13671875 C-29.71253906 62.37488281 -29.74734375 61.61304688 -29.78320312 60.828125 C-29.94416007 54.68876727 -29.57668642 49.86950818 -27.32226562 44.15625 C-26.47554738 41.91322745 -26.47554738 41.91322745 -26.86523438 38.51171875 C-26.59391287 33.62793162 -24.13699412 31.39877604 -20.67773438 28.13671875 C-19.01106771 26.80338542 -17.34440104 25.47005208 -15.67773438 24.13671875 C-14.68421233 22.94016087 -13.70597491 21.7308094 -12.74023438 20.51171875 C-10.08016817 17.28509299 -7.84508405 16.02972225 -3.67773438 15.13671875 C-4.17273437 14.49734375 -4.66773438 13.85796875 -5.17773438 13.19921875 C-7.15816779 9.15583385 -7.15470304 5.57619633 -6.67773438 1.13671875 C-4.86585595 -0.67515967 -2.40795928 0.00437413 0 0 Z " fill="#C49F60" transform="translate(42.677734375,4.86328125)"/>
<path d="M0 0 C2.859375 0.62890625 2.859375 0.62890625 6 2 C7.390625 4.71484375 7.390625 4.71484375 8.25 7.9375 C9.23682319 11.49958546 9.93447527 13.9017129 12 17 C12.66 17 13.32 17 14 17 C14.66 15.35 15.32 13.7 16 12 C19.25281528 11.51207771 21.34713084 11.59985439 24.1796875 13.3359375 C26.1667909 14.84217602 28.1029114 16.38217825 30 18 C29.38125 16.9275 28.7625 15.855 28.125 14.75 C27.76277344 14.10804687 27.40054688 13.46609375 27.02734375 12.8046875 C26.27313534 11.47980429 25.48862176 10.17205427 24.6875 8.875 C23.75111322 6.32121787 24.28505271 4.57381023 25 2 C30.2581813 1.68450912 33.46372627 2.29983706 38 5 C39.56305491 6.56305491 39.30639968 8.27678218 39.5 10.4375 C39.79146944 13.84497505 39.79146944 13.84497505 41 17 C43.58605332 17.4683265 43.58605332 17.4683265 46.5625 17.625 C48.08037109 17.73714844 48.08037109 17.73714844 49.62890625 17.8515625 C50.41136719 17.90054688 51.19382812 17.94953125 52 18 C52.5625 19.9375 52.5625 19.9375 53 22 C52 23 52 23 50.23413086 23.11352539 C49.48526611 23.10828857 48.73640137 23.10305176 47.96484375 23.09765625 C47.15595703 23.09443359 46.34707031 23.09121094 45.51367188 23.08789062 C44.66353516 23.07951172 43.81339844 23.07113281 42.9375 23.0625 C42.08349609 23.05798828 41.22949219 23.05347656 40.34960938 23.04882812 C38.23304337 23.03700373 36.11651315 23.01906769 34 23 C33.67 24.32 33.34 25.64 33 27 C25.125 28 25.125 28 24 28 C24.99 28.66 25.98 29.32 27 30 C27.1875 32.625 27.1875 32.625 27 35 C25.25 35.75 25.25 35.75 23 36 C20.60969806 34.15605279 19.27665394 32.67187384 18.125 29.875 C18.08375 29.25625 18.0425 28.6375 18 28 C18.66 27.34 19.32 26.68 20 26 C15.89542386 23.01485372 13.02254631 22.7045561 8 23 C8.33 26.63 8.66 30.26 9 34 C4 35 4 35 1 33 C0.5234375 30.90625 0.5234375 30.90625 0.375 28.5 C0.17537759 25.12238732 0.17537759 25.12238732 -1 22 C-1.67546875 22.04640625 -2.3509375 22.0928125 -3.046875 22.140625 C-10.42367067 22.43910806 -10.42367067 22.43910806 -13.625 20 C-14.07875 19.34 -14.5325 18.68 -15 18 C-14.731875 17.484375 -14.46375 16.96875 -14.1875 16.4375 C-12.67650593 13.33598585 -11.34427274 10.17737194 -10 7 C-9.34 7 -8.68 7 -8 7 C-8 7.66 -8 8.32 -8 9 C-6.02 9.66 -4.04 10.32 -2 11 C-2.02320313 10.37351562 -2.04640625 9.74703125 -2.0703125 9.1015625 C-2.09738281 7.87566406 -2.09738281 7.87566406 -2.125 6.625 C-2.14820313 5.81289063 -2.17140625 5.00078125 -2.1953125 4.1640625 C-2 2 -2 2 0 0 Z " fill="#9E8260" transform="translate(15,57)"/>
<path d="M0 0 C2.34113802 0.43354408 4.45456639 1.16914098 6.6875 2 C10.22307694 3.06734398 13.47525637 3.41040244 17.14453125 3.65625 C18.06298828 3.82640625 18.06298828 3.82640625 19 4 C19.495 4.99 19.495 4.99 20 6 C19.67 6.99 19.34 7.98 19 9 C16.63285019 9.97951027 15.44011084 10.1512881 13 9.3125 C12.01 9.1578125 12.01 9.1578125 11 9 C8.72855926 10.85432087 8.72855926 10.85432087 7 13 C7.66 15.31 8.32 17.62 9 20 C9.99 20 10.98 20 12 20 C11.979375 19.05125 11.95875 18.1025 11.9375 17.125 C12 14 12 14 13 12 C14.32 12.33 15.64 12.66 17 13 C17 13.66 17 14.32 17 15 C17.66 14.67 18.32 14.34 19 14 C19.33 13.01 19.66 12.02 20 11 C21.66611905 10.957279 23.33382885 10.95936168 25 11 C26 12 26 12 26.3125 14.5 C25.89348947 19.19291789 24.49758664 23.00223957 22 27 C18.68777999 29.12321795 15.88151054 29.2218006 12 29 C11.01 31.475 11.01 31.475 10 34 C9.21625 33.95875 8.4325 33.9175 7.625 33.875 C4.83883881 33.71271266 4.83883881 33.71271266 3 36 C2.23323689 38.02044877 1.53204614 40.06625542 0.875 42.125 C0.52179688 43.22070312 0.16859375 44.31640625 -0.1953125 45.4453125 C-0.59363281 46.70988281 -0.59363281 46.70988281 -1 48 C-3.475 48.495 -3.475 48.495 -6 49 C-8.49686931 45.80400729 -9.01510785 44.30719296 -8.8125 40.1875 C-8.33536139 37.37238221 -7.6656395 34.63454316 -6.9375 31.875 C-5.8685588 28.17823678 -5.8685588 28.17823678 -6.0625 25 C-5.97758054 20.92386613 -5.07189428 17.5290507 -3 14 C-1.01811655 12.63988391 0.97951869 11.30208796 3 10 C3.50241322 7.3295947 3.50241322 7.3295947 3 5 C-0.04913228 3.98888907 -0.04913228 3.98888907 -3 5 C-4.87379605 5.07033769 -6.75001102 5.0843022 -8.625 5.0625 C-9.62789063 5.05347656 -10.63078125 5.04445313 -11.6640625 5.03515625 C-12.43492188 5.02355469 -13.20578125 5.01195312 -14 5 C-14 3.68 -14 2.36 -14 1 C-13.07316406 1.01160156 -12.14632812 1.02320313 -11.19140625 1.03515625 C-9.39509766 1.04869141 -9.39509766 1.04869141 -7.5625 1.0625 C-5.77005859 1.07990234 -5.77005859 1.07990234 -3.94140625 1.09765625 C-1.11126659 1.33901792 -1.11126659 1.33901792 0 0 Z " fill="#A17539" transform="translate(84,47)"/>
<path d="M0 0 C1.11858398 0.00580078 1.11858398 0.00580078 2.25976562 0.01171875 C3.37254883 0.00591797 3.37254883 0.00591797 4.5078125 0 C10.06899561 0.01008374 10.06899561 0.01008374 12.32226562 1.13671875 C15.07744679 1.41223687 17.83244234 1.58278116 20.59570312 1.7578125 C23.26847443 2.12924347 25.01152244 2.78422214 27.32226562 4.13671875 C27.30164063 5.04421875 27.28101563 5.95171875 27.25976562 6.88671875 C27.31124112 9.56344463 27.54376732 11.60659927 28.32226562 14.13671875 C24.85285016 13.67849407 21.64831514 13.24540192 18.32226562 12.13671875 C18.19851562 12.85859375 18.07476562 13.58046875 17.94726562 14.32421875 C17.30945864 17.19435019 16.75349128 19.56051257 15.32226562 22.13671875 C14.54238281 22.25402344 13.7625 22.37132813 12.95898438 22.4921875 C9.45280692 23.3492531 8.79668477 24.69608436 6.88476562 27.69921875 C6.28921875 28.59769531 5.69367187 29.49617188 5.08007812 30.421875 C4.5 31.31777344 3.91992188 32.21367188 3.32226562 33.13671875 C-1.68318185 40.6946954 -1.68318185 40.6946954 -6.05273438 42.63671875 C-7.35210937 42.88421875 -7.35210937 42.88421875 -8.67773438 43.13671875 C-9.33773437 41.81671875 -9.99773438 40.49671875 -10.67773438 39.13671875 C-9.40820312 37.671875 -8.13867188 36.20703125 -6.86914062 34.7421875 C-5.46902206 33.02958904 -5.46902206 33.02958904 -4.67773438 30.13671875 C-3.72898437 29.51796875 -2.78023437 28.89921875 -1.80273438 28.26171875 C1.42113242 26.39164353 1.42113242 26.39164353 2.88476562 23.51171875 C4.64998286 20.59527289 6.11798339 20.0893432 9.32226562 19.13671875 C9.32226562 18.47671875 9.32226562 17.81671875 9.32226562 17.13671875 C4.00602952 14.76189219 -1.32004988 12.41658449 -6.67773438 10.13671875 C-6.70462654 8.65764983 -6.72408059 7.17844392 -6.74023438 5.69921875 C-6.75183594 4.87550781 -6.7634375 4.05179688 -6.77539062 3.203125 C-6.57185288 -1.10373368 -3.6235169 0.00658223 0 0 Z " fill="#A17942" transform="translate(42.677734375,4.86328125)"/>
<path d="M0 0 C-1.49835228 4.66154042 -4.88463591 5.86610751 -9 8 C-9 8.66 -9 9.32 -9 10 C-8.360625 9.835 -7.72125 9.67 -7.0625 9.5 C-1.62995703 8.61305421 3.31249363 7.87499575 8 11 C8.6875 14.125 8.6875 14.125 9 17 C9.66 17 10.32 17 11 17 C12.6446674 14.53673288 12.6446674 14.53673288 14 12 C14.66 12.33 15.32 12.66 16 13 C15.52519254 17.27326712 14.97327562 19.02672438 12 22 C11.74930087 24.62570704 11.74930087 24.62570704 12 27 C8.61608307 28.06351675 7.4195366 28.21442982 4.1875 26.5625 C3.465625 26.046875 2.74375 25.53125 2 25 C1.278125 25.680625 0.55625 26.36125 -0.1875 27.0625 C-3 29 -3 29 -5.4375 29.25 C-9.56612658 27.23603582 -12.0227887 24.11683638 -14 20 C-14.20254937 17.00733301 -13.73904857 14.9561943 -13 12 C-13.804375 12.165 -14.60875 12.33 -15.4375 12.5 C-19.65887352 13.09247348 -23.74664545 13.08506709 -28 13 C-28.66 14.32 -29.32 15.64 -30 17 C-31.32 16.67 -32.64 16.34 -34 16 C-34 14.68 -34 13.36 -34 12 C-29.28326872 9.20489998 -26.33099183 7.74441436 -20.8125 8.125 C-18.29820936 8.31038773 -18.29820936 8.31038773 -16 8 C-13.23979568 5.23776511 -13.23979568 5.23776511 -11 2 C-7.48947839 -0.26019885 -4.04049053 -1.77781583 0 0 Z " fill="#A2783C" transform="translate(96,15)"/>
<path d="M0 0 C1.12728516 -0.00580078 1.12728516 -0.00580078 2.27734375 -0.01171875 C6.54532621 -0.00427026 10.54687789 0.28169843 14.75 1.125 C14.75 1.785 14.75 2.445 14.75 3.125 C15.90628906 3.09019531 15.90628906 3.09019531 17.0859375 3.0546875 C18.08882812 3.03664063 19.09171875 3.01859375 20.125 3 C21.62160156 2.96519531 21.62160156 2.96519531 23.1484375 2.9296875 C25.75 3.125 25.75 3.125 27.75 5.125 C28.12890625 7.4375 28.12890625 7.4375 28.3125 10.125 C28.52217523 13.76218775 28.52217523 13.76218775 29.75 17.125 C32.79386724 17.20726668 34.82175348 17.10108217 37.75 16.125 C38.48323796 14.10991642 38.48323796 14.10991642 38.75 12.125 C42.215 11.63 42.215 11.63 45.75 11.125 C45.75 10.465 45.75 9.805 45.75 9.125 C48.37506802 9.09809156 50.99986173 9.07820596 53.625 9.0625 C54.37136719 9.05412109 55.11773437 9.04574219 55.88671875 9.03710938 C61.5234375 9.01171875 61.5234375 9.01171875 63.75 10.125 C63.75 10.785 63.75 11.445 63.75 12.125 C64.3275 12.310625 64.905 12.49625 65.5 12.6875 C68.75903215 14.76965943 70.49388514 17.5361004 71.75 21.125 C71.5 25.0625 71.5 25.0625 70.75 28.125 C69.265 28.62 69.265 28.62 67.75 29.125 C67.853125 27.97 67.95625 26.815 68.0625 25.625 C68.07138315 20.64155268 66.16860358 16.73252641 62.75 13.125 C60.49234508 12.29975871 59.31809814 11.96268625 57 12.625 C54.75 13.125 54.75 13.125 50.9375 12.5625 C46.7756526 11.97128429 43.67498798 12.47650505 39.75 14.125 C38.4330333 16.00870471 38.4330333 16.00870471 37.75 18.125 C36.4375 19.875 36.4375 19.875 34.75 21.125 C32.0625 21.3125 32.0625 21.3125 29.75 21.125 C29.75 20.465 29.75 19.805 29.75 19.125 C28.265 18.63 28.265 18.63 26.75 18.125 C26.75 16.805 26.75 15.485 26.75 14.125 C26.09 14.125 25.43 14.125 24.75 14.125 C23.92361624 11.23265685 23.75 9.23757569 23.75 6.125 C19.92423079 4.8497436 16.25203731 4.70416878 12.24609375 4.40625 C9.75 4.125 9.75 4.125 7.75 3.125 C5.03239892 3.05318179 2.34140612 3.03200494 -0.375 3.0625 C-1.50615234 3.06926758 -1.50615234 3.06926758 -2.66015625 3.07617188 C-4.52347127 3.08796501 -6.38674555 3.10590058 -8.25 3.125 C-8.5493987 10.34532206 -8.5493987 10.34532206 -6.25 17.125 C-6.74628906 17.393125 -7.24257813 17.66125 -7.75390625 17.9375 C-12.64755829 20.76040364 -16.01024399 23.84537855 -19.578125 28.20703125 C-21.15235475 30.01298174 -22.71942025 31.374241 -24.625 32.8125 C-27.63393302 35.4632267 -27.98391327 36.22239469 -28.25 40.125 C-28.38659701 41.64669072 -28.53326066 43.16749618 -28.6875 44.6875 C-28.77837891 45.80318359 -28.77837891 45.80318359 -28.87109375 46.94140625 C-29.25 49.125 -29.25 49.125 -30.27734375 50.98046875 C-31.64545981 53.99691741 -31.44082786 56.58360676 -31.375 59.875 C-31.35695313 61.04546875 -31.33890625 62.2159375 -31.3203125 63.421875 C-31.29710937 64.31390625 -31.27390625 65.2059375 -31.25 66.125 C-33.56 65.135 -35.87 64.145 -38.25 63.125 C-38.25 62.465 -38.25 61.805 -38.25 61.125 C-40.67084116 62.06627798 -40.67084116 62.06627798 -41.75 65.625 C-43.25 69.125 -43.25 69.125 -45.25 70.125 C-44.64301257 65.99748551 -43.21189209 62.7928852 -41.25 59.125 C-39.27 59.455 -37.29 59.785 -35.25 60.125 C-35.11722656 59.17238281 -34.98445313 58.21976563 -34.84765625 57.23828125 C-34.67105469 55.98402344 -34.49445312 54.72976562 -34.3125 53.4375 C-34.05146484 51.57544922 -34.05146484 51.57544922 -33.78515625 49.67578125 C-32.88220837 43.68468913 -31.86701927 37.63790125 -29.25 32.125 C-26.75 30.375 -26.75 30.375 -24.25 29.125 C-23.23812105 27.46551852 -22.2373454 25.79919438 -21.25 24.125 C-19.91666667 23.45833333 -18.58333333 22.79166667 -17.25 22.125 C-16.34281086 21.11124346 -15.4699785 20.06616405 -14.625 19 C-13.449375 17.576875 -13.449375 17.576875 -12.25 16.125 C-11.59 16.125 -10.93 16.125 -10.25 16.125 C-10.55035156 15.51011719 -10.85070313 14.89523438 -11.16015625 14.26171875 C-11.54042969 13.45347656 -11.92070313 12.64523437 -12.3125 11.8125 C-12.69535156 11.01199219 -13.07820313 10.21148437 -13.47265625 9.38671875 C-14.25 7.125 -14.25 7.125 -13.25 4.125 C-12.26 4.125 -11.27 4.125 -10.25 4.125 C-10.25 3.135 -10.25 2.145 -10.25 1.125 C-7.02994193 -0.48502904 -3.53321844 -0.01781455 0 0 Z " fill="#D4C2A8" transform="translate(45.25,2.875)"/>
<path d="M0 0 C0.721875 0.78375 1.44375 1.5675 2.1875 2.375 C4.83299041 4.84412438 6.60373611 5.93260278 10 7 C10 7.66 10 8.32 10 9 C6.55465996 9.86133501 4.39620354 9.93688374 1 9 C0.01 9.495 0.01 9.495 -1 10 C-3.04055005 10.07065617 -5.08334257 10.08421976 -7.125 10.0625 C-8.22070312 10.05347656 -9.31640625 10.04445313 -10.4453125 10.03515625 C-11.28835937 10.02355469 -12.13140625 10.01195312 -13 10 C-13 10.66 -13 11.32 -13 12 C-11.25008666 12.02715383 -9.50005055 12.04646551 -7.75 12.0625 C-6.77546875 12.07410156 -5.8009375 12.08570313 -4.796875 12.09765625 C-2.0714044 12.11658359 -2.0714044 12.11658359 0.171875 11.37109375 C0.77515625 11.24863281 1.3784375 11.12617187 2 11 C5 13 5 13 5.5 15.375 C5 18 5 18 2.625 20.3125 C0 22 0 22 -2 22 C-2.144375 22.94875 -2.28875 23.8975 -2.4375 24.875 C-3 28 -3 28 -4 30 C-3.95875 31.175625 -3.9175 32.35125 -3.875 33.5625 C-3.80827177 36.91711013 -4.36449507 39.37217718 -5.5625 42.5 C-7.26849324 47.08386034 -6.9520539 50.23973052 -6 55 C-4.35 55.33 -2.7 55.66 -1 56 C-0.5875 54.783125 -0.175 53.56625 0.25 52.3125 C1.66030109 48.61291947 3.07170254 45.76096618 6 43 C9.0625 42.375 9.0625 42.375 12 42 C12.474375 41.52046875 12.94875 41.0409375 13.4375 40.546875 C15.26466641 38.73798026 16.47035857 38.47165992 18.9375 37.875 C21.55609382 36.95560401 22.73923446 36.36225667 24.375 34.08984375 C26.68375859 29.14129132 27.60583276 24.41979958 28 19 C31.41099168 19 34.63088314 19.49145406 38 20 C38 19.01 38 18.02 38 17 C38.99 17.33 39.98 17.66 41 18 C40.67 19.32 40.34 20.64 40 22 C33.375 22.125 33.375 22.125 30 21 C29.98582031 21.556875 29.97164062 22.11375 29.95703125 22.6875 C29.5139138 29.77737914 27.0715602 34.32584488 22.56640625 39.71484375 C19.97262873 41.84290561 17.20948298 41.18166885 14 41 C13.67 41.99 13.34 42.98 13 44 C11.88625 44.309375 10.7725 44.61875 9.625 44.9375 C6.09411746 45.70110087 6.09411746 45.70110087 4.1875 47.5625 C2.41018543 51.21067202 1.7220239 55.02462133 1 59 C-0.83984375 59.59765625 -0.83984375 59.59765625 -3 60 C-7.18776694 57.44648358 -9.57987903 54.7041507 -11 50 C-10.47591068 47.76810238 -9.675361 45.75184334 -8.8203125 43.625 C-7.84450147 40.50240469 -7.73838138 37.70288361 -7.625 34.4375 C-7.28164188 28.57294328 -6.17384359 24.27818968 -2 20 C0.75 18.75 0.75 18.75 3 18 C3.67479949 15.98881127 3.67479949 15.98881127 4 14 C2.41642541 14.31127516 0.83315007 14.62407289 -0.75 14.9375 C-1.63171875 15.11152344 -2.5134375 15.28554688 -3.421875 15.46484375 C-5.01345535 15.79521725 -6.59793794 16.16621379 -8.1640625 16.6015625 C-10 17 -10 17 -12.625 16.4375 C-13.800625 16.2209375 -13.800625 16.2209375 -15 16 C-15.66 16.66 -16.32 17.32 -17 18 C-19.125 17.625 -19.125 17.625 -21 17 C-20 14 -20 14 -17 12 C-16.67 11.01 -16.34 10.02 -16 9 C-13.0384304 7.5192152 -10.16493705 7.64685963 -6.875 7.4375 C-5.59367187 7.35371094 -4.31234375 7.26992188 -2.9921875 7.18359375 C-2.00476563 7.12300781 -1.01734375 7.06242187 0 7 C0 4.69 0 2.38 0 0 Z " fill="#C5A97B" transform="translate(83,39)"/>
<path d="M0 0 C2.34113802 0.43354408 4.45456639 1.16914098 6.6875 2 C10.22307694 3.06734398 13.47525637 3.41040244 17.14453125 3.65625 C18.06298828 3.82640625 18.06298828 3.82640625 19 4 C19.495 4.99 19.495 4.99 20 6 C19.67 6.99 19.34 7.98 19 9 C16.63285019 9.97951027 15.44011084 10.1512881 13 9.3125 C12.01 9.1578125 12.01 9.1578125 11 9 C8.72855926 10.85432087 8.72855926 10.85432087 7 13 C7.33 13.99 7.66 14.98 8 16 C6.68 16 5.36 16 4 16 C4.061875 17.11375 4.12375 18.2275 4.1875 19.375 C4.0946875 21.169375 4.0946875 21.169375 4 23 C3.01 23.66 2.02 24.32 1 25 C-0.03485877 27.31808364 -1.0355414 29.65175298 -2 32 C-2.66 32.66 -3.32 33.32 -4 34 C-4.6837613 36.88717605 -4.6837613 36.88717605 -5.125 40.125 C-5.37636719 41.76855469 -5.37636719 41.76855469 -5.6328125 43.4453125 C-5.75398438 44.28835937 -5.87515625 45.13140625 -6 46 C-5.01 46.33 -4.02 46.66 -3 47 C-2.80664062 46.43410156 -2.61328125 45.86820313 -2.4140625 45.28515625 C-2.15367188 44.55167969 -1.89328125 43.81820312 -1.625 43.0625 C-1.36976562 42.33160156 -1.11453125 41.60070312 -0.8515625 40.84765625 C0 39 0 39 2 38 C1.01 41.3 0.02 44.6 -1 48 C-3.475 48.495 -3.475 48.495 -6 49 C-8.49686931 45.80400729 -9.01510785 44.30719296 -8.8125 40.1875 C-8.33536139 37.37238221 -7.6656395 34.63454316 -6.9375 31.875 C-5.8685588 28.17823678 -5.8685588 28.17823678 -6.0625 25 C-5.97758054 20.92386613 -5.07189428 17.5290507 -3 14 C-1.01811655 12.63988391 0.97951869 11.30208796 3 10 C3.50241322 7.3295947 3.50241322 7.3295947 3 5 C-0.04913228 3.98888907 -0.04913228 3.98888907 -3 5 C-4.87379605 5.07033769 -6.75001102 5.0843022 -8.625 5.0625 C-9.62789063 5.05347656 -10.63078125 5.04445313 -11.6640625 5.03515625 C-12.43492188 5.02355469 -13.20578125 5.01195312 -14 5 C-14 3.68 -14 2.36 -14 1 C-13.07316406 1.01160156 -12.14632812 1.02320313 -11.19140625 1.03515625 C-9.39509766 1.04869141 -9.39509766 1.04869141 -7.5625 1.0625 C-5.77005859 1.07990234 -5.77005859 1.07990234 -3.94140625 1.09765625 C-1.11126659 1.33901792 -1.11126659 1.33901792 0 0 Z " fill="#A3783C" transform="translate(84,47)"/>
<path d="M0 0 C3.3 0.66 6.6 1.32 10 2 C10.33 1.34 10.66 0.68 11 0 C11.12375 0.61875 11.2475 1.2375 11.375 1.875 C11.87197356 4.19120832 11.87197356 4.19120832 14 6 C12.58398286 6.48108275 11.16715563 6.95978141 9.75 7.4375 C8.96109375 7.70433594 8.1721875 7.97117187 7.359375 8.24609375 C5.25178012 8.91954708 3.15246027 9.49150595 1 10 C1.33 11.32 1.66 12.64 2 14 C2.99 14 3.98 14 5 14 C5.66 12.68 6.32 11.36 7 10 C11.95 10 16.9 10 22 10 C21.896875 11.175625 21.79375 12.35125 21.6875 13.5625 C21.66092786 18.54920518 23.76964286 21.37808442 27 25 C27.66 25.66 28.32 26.32 29 27 C24.70917714 26.5232419 22.67464645 24.23772992 20 21 C19.29187186 18.67891331 18.61975848 16.34622853 18 14 C14.52648925 11.68432616 13.08600528 11.40412423 9 12 C7.0645852 14.39056942 7.0645852 14.39056942 6 17 C4.58194169 16.71517632 3.16559621 16.42181856 1.75 16.125 C0.96109375 15.96257813 0.1721875 15.80015625 -0.640625 15.6328125 C-2.96831144 15.00849925 -4.89031952 14.15161458 -7 13 C-11.04191465 17.49101628 -13.43674441 22.58984989 -16 28 C-15.34 28.33 -14.68 28.66 -14 29 C-14 29.66 -14 30.32 -14 31 C-10.37 31 -6.74 31 -3 31 C-2.67 31.99 -2.34 32.98 -2 34 C-2.33 34.66 -2.66 35.32 -3 36 C-8.30460854 37.63218724 -13.82453542 36.82444435 -19 35 C-19.66 34.01 -20.32 33.02 -21 32 C-23.05003955 30.80767387 -23.05003955 30.80767387 -25 30 C-24.0925 29.46375 -23.185 28.9275 -22.25 28.375 C-18.84377791 26.08830545 -17.15289595 23.52292065 -15 20 C-13.87574905 18.19471241 -12.72824929 16.40377263 -11.5625 14.625 C-11.00691406 13.75101563 -10.45132813 12.87703125 -9.87890625 11.9765625 C-8 10 -8 10 -5.27734375 9.7109375 C-4.52582031 9.80632813 -3.77429688 9.90171875 -3 10 C-2.87625 9.278125 -2.7525 8.55625 -2.625 7.8125 C-2.0095069 5.04278106 -1.11555626 2.6029646 0 0 Z " fill="#9C8569" transform="translate(61,17)"/>
<path d="M0 0 C5.2581813 -0.31549088 8.46372627 0.29983706 13 3 C14.56305491 4.56305491 14.30639968 6.27678218 14.5 8.4375 C14.79146944 11.84497505 14.79146944 11.84497505 16 15 C18.58605332 15.4683265 18.58605332 15.4683265 21.5625 15.625 C22.57441406 15.69976562 23.58632813 15.77453125 24.62890625 15.8515625 C25.80259766 15.92503906 25.80259766 15.92503906 27 16 C27.5625 17.9375 27.5625 17.9375 28 20 C27 21 27 21 25.23413086 21.11352539 C24.48526611 21.10828857 23.73640137 21.10305176 22.96484375 21.09765625 C22.15595703 21.09443359 21.34707031 21.09121094 20.51367188 21.08789062 C19.66353516 21.07951172 18.81339844 21.07113281 17.9375 21.0625 C17.08349609 21.05798828 16.22949219 21.05347656 15.34960938 21.04882812 C13.23304337 21.03700373 11.11651315 21.01906769 9 21 C8.67 22.32 8.34 23.64 8 25 C7.773125 24.401875 7.54625 23.80375 7.3125 23.1875 C6.13034106 20.80893684 6.13034106 20.80893684 3.5625 19.625 C0.33658987 17.57930089 -0.53713364 15.46468347 -2 12 C0.49361571 13.20381448 2.68143083 14.45428722 5 16 C4.38125 14.9275 3.7625 13.855 3.125 12.75 C2.58166016 11.78707031 2.58166016 11.78707031 2.02734375 10.8046875 C1.27313534 9.47980429 0.48862176 8.17205427 -0.3125 6.875 C-1.24888678 4.32121787 -0.71494729 2.57381023 0 0 Z " fill="#C8B18D" transform="translate(40,59)"/>
<path d="M0 0 C3 1 3 1 4 3 C4.69867188 2.96519531 5.39734375 2.93039063 6.1171875 2.89453125 C7.48230469 2.85392578 7.48230469 2.85392578 8.875 2.8125 C9.77992187 2.77769531 10.68484375 2.74289063 11.6171875 2.70703125 C12.79667969 2.85205078 12.79667969 2.85205078 14 3 C16.13586678 6.20380017 16.23132175 7.01939967 16.125 10.6875 C16.10695313 11.49574219 16.08890625 12.30398437 16.0703125 13.13671875 C16.04710938 13.75160156 16.02390625 14.36648437 16 15 C18.31 15.33 20.62 15.66 23 16 C22.67 12.04 22.34 8.08 22 4 C27.67276511 3.70658112 30.99067246 3.99440348 36 7 C35.4740625 8.11375 35.4740625 8.11375 34.9375 9.25 C33.95490707 12.1322726 33.9673198 13.21176345 35 16 C37.31 16.33 39.62 16.66 42 17 C41.81171228 14.55519921 41.81171228 14.55519921 41 12 C39.03241727 10.63979849 39.03241727 10.63979849 37 10 C37.33 9.34 37.66 8.68 38 8 C44.75 8.875 44.75 8.875 47 10 C46.01 10.33 45.02 10.66 44 11 C43.98582031 11.61488281 43.97164062 12.22976562 43.95703125 12.86328125 C43.81117256 15.33499473 43.60506817 17.59677148 43 20 C40.4375 22.0625 40.4375 22.0625 38 23 C34 18.25 34 18.25 34 16 C33.01 15.67 32.02 15.34 31 15 C29.8125 11.4375 29.8125 11.4375 29 8 C27.68 7.67 26.36 7.34 25 7 C25.4640625 7.9590625 25.4640625 7.9590625 25.9375 8.9375 C27.29521336 12.85090909 28.09806689 16.8403295 28 21 C24.99382731 24.00617269 22.17618402 23.59585316 18 24 C17.938125 23.29875 17.87625 22.5975 17.8125 21.875 C16.70970684 17.97280881 14.65783979 16.05651576 12 13 C11.67 12.01 11.34 11.02 11 10 C9.22960831 8.98189828 9.22960831 8.98189828 7.125 8.1875 C3.7367568 6.62696505 3.06558883 6.10658185 1 2.75 C0.67 1.8425 0.34 0.935 0 0 Z " fill="#D3C0A4" transform="translate(0,75)"/>
<path d="M0 0 C4.15650112 0.83130022 5.53284517 2.31280217 8.125 5.625 C9.95788006 9.84062413 10.6773298 14.05876394 11.125 18.625 C10.125 19.625 10.125 19.625 7.40234375 19.72265625 C6.30019531 19.71105469 5.19804688 19.69945313 4.0625 19.6875 C2.95777344 19.67847656 1.85304688 19.66945313 0.71484375 19.66015625 C-0.13980469 19.64855469 -0.99445313 19.63695313 -1.875 19.625 C-1.215 19.295 -0.555 18.965 0.125 18.625 C-1.2756216 15.123446 -2.49764089 14.16016323 -5.875 12.625 C-6.308125 12.150625 -6.74125 11.67625 -7.1875 11.1875 C-9.74210865 8.82212162 -12.64842909 7.90345262 -15.875 6.625 C-15.875 5.965 -15.875 5.305 -15.875 4.625 C-17.525 4.625 -19.175 4.625 -20.875 4.625 C-20.215 3.635 -19.555 2.645 -18.875 1.625 C-18.31296875 1.93179687 -17.7509375 2.23859375 -17.171875 2.5546875 C-14.81153066 3.65457585 -12.67034438 4.22595851 -10.125 4.75 C-9.32578125 4.91757812 -8.5265625 5.08515625 -7.703125 5.2578125 C-7.09984375 5.37898438 -6.4965625 5.50015625 -5.875 5.625 C-5.50375 4.8 -5.1325 3.975 -4.75 3.125 C-2.875 0.625 -2.875 0.625 0 0 Z " fill="#CDB99C" transform="translate(72.875,27.375)"/>
<path d="M0 0 C1.11858398 0.00580078 1.11858398 0.00580078 2.25976562 0.01171875 C3.37254883 0.00591797 3.37254883 0.00591797 4.5078125 0 C10.06899561 0.01008374 10.06899561 0.01008374 12.32226562 1.13671875 C15.11099755 1.37238624 17.89834819 1.51873092 20.69335938 1.66015625 C23.60384441 2.18776275 24.52164572 2.85389893 26.32226562 5.13671875 C25.66226563 7.11671875 25.00226563 9.09671875 24.32226562 11.13671875 C23.79213867 10.97373291 23.26201172 10.81074707 22.71582031 10.64282227 C19.76856885 10.01964272 17.03837418 10.02485031 14.02539062 10.0390625 C12.21748047 10.04389648 12.21748047 10.04389648 10.37304688 10.04882812 C8.49166016 10.06139648 8.49166016 10.06139648 6.57226562 10.07421875 C5.30253906 10.07873047 4.0328125 10.08324219 2.72460938 10.08789062 C-0.40955274 10.09967319 -3.54361979 10.11612459 -6.67773438 10.13671875 C-6.70462654 8.65764983 -6.72408059 7.17844392 -6.74023438 5.69921875 C-6.75183594 4.87550781 -6.7634375 4.05179688 -6.77539062 3.203125 C-6.57185288 -1.10373368 -3.6235169 0.00658223 0 0 Z " fill="#62411E" transform="translate(42.677734375,4.86328125)"/>
<path d="M0 0 C2.8125 0.25 2.8125 0.25 6 2 C7.48670663 5.9100929 8.28288204 9.88600747 9 14 C5.13892543 11.42595029 5.05680308 9.38979741 4 5 C2.68 4.67 1.36 4.34 0 4 C0.20496094 4.65226562 0.40992188 5.30453125 0.62109375 5.9765625 C2.05702306 10.63474466 3.36203916 15.15149758 4 20 C3.01 20 2.02 20 1 20 C1.6155803 22.14855454 2.24273431 24.29379625 2.875 26.4375 C3.22304688 27.63246094 3.57109375 28.82742187 3.9296875 30.05859375 C4.6608291 33.11691031 4.6608291 33.11691031 7 34 C7 31.36 7 28.72 7 26 C9.1519437 29.22791555 9.20086443 30.28400809 9 34 C6.6875 34.625 6.6875 34.625 4 35 C1 33 1 33 0.5234375 30.90625 C0.47445313 30.1121875 0.42546875 29.318125 0.375 28.5 C0.17537759 25.12238732 0.17537759 25.12238732 -1 22 C-1.67546875 22.04640625 -2.3509375 22.0928125 -3.046875 22.140625 C-10.42367067 22.43910806 -10.42367067 22.43910806 -13.625 20 C-14.07875 19.34 -14.5325 18.68 -15 18 C-14.731875 17.484375 -14.46375 16.96875 -14.1875 16.4375 C-12.67650593 13.33598585 -11.34427274 10.17737194 -10 7 C-9.34 7 -8.68 7 -8 7 C-8 7.66 -8 8.32 -8 9 C-6.02 9.66 -4.04 10.32 -2 11 C-2.02320313 10.37351562 -2.04640625 9.74703125 -2.0703125 9.1015625 C-2.09738281 7.87566406 -2.09738281 7.87566406 -2.125 6.625 C-2.14820313 5.81289063 -2.17140625 5.00078125 -2.1953125 4.1640625 C-2 2 -2 2 0 0 Z " fill="#9D8465" transform="translate(15,57)"/>
<path d="M0 0 C0.33 0.66 0.66 1.32 1 2 C2.64363134 2.72159424 4.31050386 3.39351421 6 4 C3.60490662 6.89932357 1.68754757 7.50168276 -2 8 C-1.95875 8.94875 -1.9175 9.8975 -1.875 10.875 C-2 14 -2 14 -4 16 C-6.1640625 16.4140625 -6.1640625 16.4140625 -8.625 16.625 C-9.44226563 16.69976562 -10.25953125 16.77453125 -11.1015625 16.8515625 C-11.72804688 16.90054688 -12.35453125 16.94953125 -13 17 C-15.29013653 13.5647952 -15.17842973 12.014669 -15 8 C-14.01 7.67 -13.02 7.34 -12 7 C-12 6.34 -12 5.68 -12 5 C-11.34 5 -10.68 5 -10 5 C-9.67 3.35 -9.34 1.7 -9 0 C-3.375 -1.125 -3.375 -1.125 0 0 Z " fill="#F3EBDC" transform="translate(39,51)"/>
<path d="M0 0 C1 1 1 1 1.5 3.6875 C0.84249996 8.04343774 -0.94547082 9.22784695 -4.2734375 11.8984375 C-6 13 -6 13 -8 13 C-8.66 14.32 -9.32 15.64 -10 17 C-12.25 16.875 -12.25 16.875 -15 16 C-17.375 13.125 -17.375 13.125 -19 10 C-18.67 9.01 -18.34 8.02 -18 7 C-15.525 7.99 -15.525 7.99 -13 9 C-12.938125 7.906875 -12.87625 6.81375 -12.8125 5.6875 C-12 2 -12 2 -9.875 0 C-6.20855374 -1.27528566 -3.7462428 -0.86451757 0 0 Z " fill="#7E5A31" transform="translate(102,26)"/>
<path d="M0 0 C0.66 0 1.32 0 2 0 C3.66666667 1.66666667 5.33333333 3.33333333 7 5 C7.99 5.33 8.98 5.66 10 6 C9.34 7.65 8.68 9.3 8 11 C7.278125 10.87625 6.55625 10.7525 5.8125 10.625 C2.74357675 10.75371215 2.74357675 10.75371215 0.375 13.5 C-2.31285012 17.04423138 -3.62275082 20.79576565 -5 25 C-6.32 24.34 -7.64 23.68 -9 23 C-7.5021645 10.64285714 -7.5021645 10.64285714 -3 6 C-2.28837557 4.35202764 -1.60968047 2.68834592 -1 1 C-0.67 0.67 -0.34 0.34 0 0 Z " fill="#7A562E" transform="translate(86,70)"/>
<path d="M0 0 C3.03038047 -0.29309379 4.51377633 -0.35361722 7.01953125 1.46875 C12.4582574 7.63026982 12.4582574 7.63026982 12.5625 12.3125 C12 16 12 16 10 19 C6.66950878 17.57369692 4.68261063 15.84985604 2.3125 13.125 C1.71050781 12.44695312 1.10851563 11.76890625 0.48828125 11.0703125 C-1.03581637 8.9501767 -1.68451798 7.57643648 -2 5 C-1.0625 2.25 -1.0625 2.25 0 0 Z " fill="#DDCDB5" transform="translate(36,105)"/>
<path d="M0 0 C2.34113802 0.43354408 4.45456639 1.16914098 6.6875 2 C10.22307694 3.06734398 13.47525637 3.41040244 17.14453125 3.65625 C18.06298828 3.82640625 18.06298828 3.82640625 19 4 C19.495 4.99 19.495 4.99 20 6 C19.67 6.99 19.34 7.98 19 9 C16.77211533 9.92188331 15.46446272 10.12385672 13.125 9.5 C10.23539953 8.82009401 7.87746498 9.41142762 5 10 C5 8.35 5 6.7 5 5 C0.89776415 3.98459888 0.89776415 3.98459888 -3 5 C-4.87379605 5.07033769 -6.75001102 5.0843022 -8.625 5.0625 C-9.62789063 5.05347656 -10.63078125 5.04445313 -11.6640625 5.03515625 C-12.43492188 5.02355469 -13.20578125 5.01195312 -14 5 C-14 3.68 -14 2.36 -14 1 C-13.07316406 1.01160156 -12.14632812 1.02320313 -11.19140625 1.03515625 C-9.39509766 1.04869141 -9.39509766 1.04869141 -7.5625 1.0625 C-5.77005859 1.07990234 -5.77005859 1.07990234 -3.94140625 1.09765625 C-1.11126659 1.33901792 -1.11126659 1.33901792 0 0 Z " fill="#A4783A" transform="translate(84,47)"/>
<path d="M0 0 C0.66 0.33 1.32 0.66 2 1 C1.28972656 1.59167969 0.57945313 2.18335938 -0.15234375 2.79296875 C-1.07144531 3.58316406 -1.99054687 4.37335937 -2.9375 5.1875 C-4.31228516 6.35345703 -4.31228516 6.35345703 -5.71484375 7.54296875 C-8.20883315 10.22454025 -8.69623453 11.42231777 -9 15 C-9.08121094 15.76441406 -9.16242187 16.52882813 -9.24609375 17.31640625 C-9.37389969 18.81616978 -9.49889127 20.31617575 -9.62109375 21.81640625 C-10 24 -10 24 -11.02734375 25.85546875 C-12.39545981 28.87191741 -12.19082786 31.45860676 -12.125 34.75 C-12.10695313 35.92046875 -12.08890625 37.0909375 -12.0703125 38.296875 C-12.03550781 39.63492188 -12.03550781 39.63492188 -12 41 C-15.465 39.515 -15.465 39.515 -19 38 C-19 37.34 -19 36.68 -19 36 C-21.42084116 36.94127798 -21.42084116 36.94127798 -22.5 40.5 C-24 44 -24 44 -26 45 C-25.39301257 40.87248551 -23.96189209 37.6678852 -22 34 C-20.02 34.33 -18.04 34.66 -16 35 C-15.86722656 34.04738281 -15.73445312 33.09476563 -15.59765625 32.11328125 C-15.42105469 30.85902344 -15.24445312 29.60476562 -15.0625 28.3125 C-14.88847656 27.07113281 -14.71445313 25.82976563 -14.53515625 24.55078125 C-12.1356276 8.62982106 -12.1356276 8.62982106 -7.625 5.1875 C-6.75875 4.795625 -5.8925 4.40375 -5 4 C-3.31522656 2.68962066 -1.64351457 1.36176922 0 0 Z " fill="#C6B08F" transform="translate(26,28)"/>
<path d="M0 0 C3.45420022 3.07263159 6.41718975 6.55668009 7.5078125 11.12890625 C7.63098453 15.62468552 6.40533443 19.7839967 5 24 C2.3125 24.5 2.3125 24.5 -1 24 C-2.55746014 22.16930124 -3.62058114 20.26788932 -4.765625 18.15625 C-5.94464246 16.09670052 -7.18886694 14.5898484 -8.8125 12.875 C-11 10 -11 10 -11.4375 6.875 C-11.01714005 4.11263464 -10.54313773 2.3147066 -9 0 C-5.59594693 -1.70202654 -3.61470485 -1.06663422 0 0 Z M-7 1 C-8.38771413 4.18503552 -8.38771413 4.18503552 -9 8 C-6.81004788 12.37990425 -3.72585637 15.83302208 0 19 C1.32 19 2.64 19 4 19 C5.65454487 15.69091025 5.76017729 12.54749402 5 9 C3.10044867 5.8429992 0.9879098 3.17302531 -2 1 C-4.66008304 0.70701697 -4.66008304 0.70701697 -7 1 Z " fill="#F3EAD9" transform="translate(43,104)"/>
<path d="M0 0 C0.66 0.33 1.32 0.66 2 1 C1.57847656 1.61488281 1.15695313 2.22976562 0.72265625 2.86328125 C0.17480469 3.67152344 -0.37304688 4.47976562 -0.9375 5.3125 C-1.48277344 6.11300781 -2.02804688 6.91351563 -2.58984375 7.73828125 C-4.13837326 10.0258143 -4.13837326 10.0258143 -5 13 C-4.34 13.33 -3.68 13.66 -3 14 C-3 14.66 -3 15.32 -3 16 C0.63 16 4.26 16 8 16 C8.33 16.99 8.66 17.98 9 19 C8.67 19.66 8.34 20.32 8 21 C2.69539146 22.63218724 -2.82453542 21.82444435 -8 20 C-8.66 19.01 -9.32 18.02 -10 17 C-12.05003955 15.80767387 -12.05003955 15.80767387 -14 15 C-13.0925 14.46375 -12.185 13.9275 -11.25 13.375 C-7.86889842 11.12886914 -6.1226829 8.46704874 -4 5 C-2.68456721 3.31916921 -1.35683751 1.6475884 0 0 Z " fill="#C5AD87" transform="translate(50,32)"/>
<path d="M0 0 C3 1 3 1 4 3 C4.69867188 2.96519531 5.39734375 2.93039063 6.1171875 2.89453125 C7.48230469 2.85392578 7.48230469 2.85392578 8.875 2.8125 C9.77992187 2.77769531 10.68484375 2.74289063 11.6171875 2.70703125 C12.79667969 2.85205078 12.79667969 2.85205078 14 3 C16.05617669 6.08426503 16.22119145 6.92948188 16.375 10.4375 C16.67484503 13.72508661 16.86549637 14.81617837 18.875 17.5625 C20.98655055 19.28015468 20.98655055 19.28015468 24 19 C24.66 16.69 25.32 14.38 26 12 C26.33 12 26.66 12 27 12 C27.22174933 13.45635371 27.42698698 14.91522956 27.625 16.375 C27.79902344 17.59316406 27.79902344 17.59316406 27.9765625 18.8359375 C27.98429687 19.55007812 27.99203125 20.26421875 28 21 C24.99382731 24.00617269 22.17618402 23.59585316 18 24 C17.938125 23.29875 17.87625 22.5975 17.8125 21.875 C16.70970684 17.97280881 14.65783979 16.05651576 12 13 C11.67 12.01 11.34 11.02 11 10 C9.22960831 8.98189828 9.22960831 8.98189828 7.125 8.1875 C3.7367568 6.62696505 3.06558883 6.10658185 1 2.75 C0.67 1.8425 0.34 0.935 0 0 Z " fill="#F0E6D5" transform="translate(0,75)"/>
<path d="M0 0 C0.763125 0.20625 1.52625 0.4125 2.3125 0.625 C2.355221 2.29111905 2.35313832 3.95882885 2.3125 5.625 C1.9825 5.955 1.6525 6.285 1.3125 6.625 C1.07962992 8.30683948 0.89985834 9.9962416 0.75 11.6875 C0.66621094 12.60660156 0.58242187 13.52570313 0.49609375 14.47265625 C0.43550781 15.18292969 0.37492187 15.89320312 0.3125 16.625 C-1.0075 16.625 -2.3275 16.625 -3.6875 16.625 C-4.6875 14.625 -5.6875 12.625 -6.6875 10.625 C-7.14125 9.944375 -7.595 9.26375 -8.0625 8.5625 C-8.6875 6.625 -8.6875 6.625 -7.5 4 C-5.19349675 0.97768539 -3.91471218 -0.54623891 0 0 Z " fill="#DCCCB3" transform="translate(83.6875,104.375)"/>
<path d="M0 0 C0.721875 0.78375 1.44375 1.5675 2.1875 2.375 C4.83299041 4.84412438 6.60373611 5.93260278 10 7 C10 7.66 10 8.32 10 9 C6.55465996 9.86133501 4.39620354 9.93688374 1 9 C0.01 9.495 0.01 9.495 -1 10 C-3.04055005 10.07065617 -5.08334257 10.08421976 -7.125 10.0625 C-8.22070312 10.05347656 -9.31640625 10.04445313 -10.4453125 10.03515625 C-11.28835937 10.02355469 -12.13140625 10.01195312 -13 10 C-13 11.32 -13 12.64 -13 14 C-5.08 13.505 -5.08 13.505 3 13 C0.09838767 14.93440822 -1.53721622 15.51284158 -4.875 16.1875 C-5.71804687 16.36667969 -6.56109375 16.54585937 -7.4296875 16.73046875 C-10 17 -10 17 -12.6953125 16.42578125 C-13.45585938 16.28527344 -14.21640625 16.14476563 -15 16 C-15.66 16.66 -16.32 17.32 -17 18 C-19.125 17.625 -19.125 17.625 -21 17 C-20 14 -20 14 -17 12 C-16.67 11.01 -16.34 10.02 -16 9 C-13.0384304 7.5192152 -10.16493705 7.64685963 -6.875 7.4375 C-5.59367187 7.35371094 -4.31234375 7.26992188 -2.9921875 7.18359375 C-2.00476563 7.12300781 -1.01734375 7.06242187 0 7 C0 4.69 0 2.38 0 0 Z " fill="#C0AA8A" transform="translate(83,39)"/>
<path d="M0 0 C2.75 -0.375 2.75 -0.375 6 0 C8.0625 2.8125 8.0625 2.8125 10 6 C10.9075 6.53625 11.815 7.0725 12.75 7.625 C13.4925 8.07875 14.235 8.5325 15 9 C15 10.32 15 11.64 15 13 C8.25 12.25 8.25 12.25 6 10 C4.989375 9.71125 3.97875 9.4225 2.9375 9.125 C0 8 0 8 -0.9375 6.125 C-1.00351879 3.8803613 -0.68524778 2.13188198 0 0 Z " fill="#7D5930" transform="translate(32,71)"/>
<path d="M0 0 C3.36303824 -0.38434723 4.83740565 -0.0939434 7.8125 1.625 C10 4 10 4 10.3125 7.25 C10.209375 8.1575 10.10625 9.065 10 10 C10.66 10 11.32 10 12 10 C12.33 11.98 12.66 13.96 13 16 C11.35 16 9.7 16 8 16 C7.731875 15.030625 7.46375 14.06125 7.1875 13.0625 C6.795625 12.051875 6.40375 11.04125 6 10 C5.01 9.67 4.02 9.34 3 9 C0.53447933 5.62132353 0 4.29441798 0 0 Z " fill="#815E35" transform="translate(41,61)"/>
<path d="M0 0 C1.98 0 3.96 0 6 0 C5.125 6.875 5.125 6.875 4 8 C0.66193966 8.10183913 -2.67015776 8.19866957 -6.00976562 8.16601562 C-8.45041431 8.18057045 -8.45041431 8.18057045 -12 9 C-15.33781046 12.91124305 -17.06926346 17.26091939 -19 22 C-19.65288627 23.34013497 -20.31225595 24.67741528 -21 26 C-23.31 26 -25.62 26 -28 26 C-28.33 24.68 -28.66 23.36 -29 22 C-27.02 22.99 -27.02 22.99 -25 24 C-21.86855818 22.37970442 -21.86855818 22.37970442 -21.41015625 19.94140625 C-21.29542969 19.15636719 -21.18070313 18.37132813 -21.0625 17.5625 C-20.24276778 13.22069798 -20.24276778 13.22069798 -17.9375 11.125 C-17.298125 10.75375 -16.65875 10.3825 -16 10 C-15.67 9.01 -15.34 8.02 -15 7 C-9.06 6.67 -3.12 6.34 3 6 C3 5.01 3 4.02 3 3 C2.01 2.67 1.02 2.34 0 2 C0 1.34 0 0.68 0 0 Z " fill="#EADECA" transform="translate(64,73)"/>
<path d="M0 0 C5.2581813 -0.31549088 8.46372627 0.29983706 13 3 C14.73956658 4.73956658 14.37190386 7.1936622 14.5625 9.5625 C14.68818359 11.08037109 14.68818359 11.08037109 14.81640625 12.62890625 C14.87699219 13.41136719 14.93757813 14.19382812 15 15 C14.34 14.67 13.68 14.34 13 14 C13 13.34 13 12.68 13 12 C12.34 12 11.68 12 11 12 C10.5978125 10.329375 10.5978125 10.329375 10.1875 8.625 C9.34190981 4.78159049 9.34190981 4.78159049 6 3 C4.34450469 2.61500109 2.6777567 2.27206865 1 2 C2.4547356 5.87929495 4.2498811 9.4833536 6.1953125 13.1328125 C7 15 7 15 7 18 C2.68607774 17.5206753 0.83430453 16.2542015 -2 13 C1.51716303 13 2.37121748 13.82445585 5 16 C4.38125 14.9275 3.7625 13.855 3.125 12.75 C2.58166016 11.78707031 2.58166016 11.78707031 2.02734375 10.8046875 C1.27313534 9.47980429 0.48862176 8.17205427 -0.3125 6.875 C-1.24888678 4.32121787 -0.71494729 2.57381023 0 0 Z " fill="#A89071" transform="translate(40,59)"/>
<path d="M0 0 C1.32 0 2.64 0 4 0 C3.46061042 5.28601792 2.54127956 9.3712408 0 14 C-3.33695447 16.0197356 -6.14850685 16.22008532 -10 16 C-9.67 14.35 -9.34 12.7 -9 11 C-7.35 11 -5.7 11 -4 11 C-3.71125 9.741875 -3.4225 8.48375 -3.125 7.1875 C-2.42696461 4.1460601 -1.79553415 2.69330122 0 0 Z " fill="#7E5A31" transform="translate(106,60)"/>
<path d="M0 0 C3.3 0.66 6.6 1.32 10 2 C10.33 1.34 10.66 0.68 11 0 C11.12375 0.61875 11.2475 1.2375 11.375 1.875 C11.87197356 4.19120832 11.87197356 4.19120832 14 6 C8.66164461 7.92471317 3.65020618 9.39891424 -2 10 C-3.39195915 5.82412255 -1.82323219 3.86525224 0 0 Z " fill="#C5A062" transform="translate(61,17)"/>
<path d="M0 0 C0.66 0.33 1.32 0.66 2 1 C1.43410156 1.54269531 0.86820313 2.08539062 0.28515625 2.64453125 C-0.44832031 3.35996094 -1.18179688 4.07539063 -1.9375 4.8125 C-2.66839844 5.52019531 -3.39929688 6.22789063 -4.15234375 6.95703125 C-6.20834646 8.95536163 -6.20834646 8.95536163 -7 12 C-10.96 12 -14.92 12 -19 12 C-19.66 13.32 -20.32 14.64 -21 16 C-22.32 15.67 -23.64 15.34 -25 15 C-25 13.68 -25 12.36 -25 11 C-20.28326872 8.20489998 -17.33099183 6.74441436 -11.8125 7.125 C-8.29065971 7.36125127 -8.29065971 7.36125127 -5.32421875 5.71484375 C-3.81173292 3.8822826 -3.81173292 3.8822826 -2 1 C-1.34 0.67 -0.68 0.34 0 0 Z " fill="#9E7F58" transform="translate(87,16)"/>
<path d="M0 0 C1.875 0.3125 1.875 0.3125 4 1 C6.00181879 4.00272818 6.86726992 6.60180976 8 10 C8.99 11.485 8.99 11.485 10 13 C10 14.32 10 15.64 10 17 C8.02 17 6.04 17 4 17 C3.13670227 14.54453034 2.28410564 12.08621957 1.4375 9.625 C1.19064453 8.92632812 0.94378906 8.22765625 0.68945312 7.5078125 C0.06908951 5.69040925 -0.47106524 3.84608603 -1 2 C-0.67 1.34 -0.34 0.68 0 0 Z " fill="#704D27" transform="translate(15,60)"/>
<path d="M0 0 C1.19109375 -0.03867187 1.19109375 -0.03867187 2.40625 -0.078125 C3.0971875 0.03015625 3.788125 0.1384375 4.5 0.25 C5.16 1.24 5.82 2.23 6.5 3.25 C3.2 2.59 -0.1 1.93 -3.5 1.25 C-3.1029389 7.1066513 -2.47900284 9.75757744 1.5 14.25 C1.5 15.24 1.5 16.23 1.5 17.25 C-1.05614089 16.07024267 -3.13886841 14.78783987 -5.4375 13.125 C-8.6406529 11.16388598 -9.86090939 10.77117229 -13.5 11.25 C-14.221875 11.45625 -14.94375 11.6625 -15.6875 11.875 C-16.285625 11.99875 -16.88375 12.1225 -17.5 12.25 C-18.16 11.59 -18.82 10.93 -19.5 10.25 C-19.17 9.26 -18.84 8.27 -18.5 7.25 C-18.17 7.91 -17.84 8.57 -17.5 9.25 C-13.045 8.755 -13.045 8.755 -8.5 8.25 C-8.066875 6.5484375 -8.066875 6.5484375 -7.625 4.8125 C-7.25375 3.636875 -6.8825 2.46125 -6.5 1.25 C-4.15897141 0.07948571 -2.60647047 0.0507754 0 0 Z " fill="#E6D9C4" transform="translate(43.5,57.75)"/>
<path d="M0 0 C0.99 0 1.98 0 3 0 C1.71219704 6.88361345 -4.00682142 12.41167373 -9 17 C-12 19 -12 19 -15 19 C-13.4563893 15.40654069 -11.27381666 12.91811796 -8.625 10.0625 C-6.25086179 7.49382538 -3.99154012 4.9886625 -1.8984375 2.18359375 C-0.95871094 1.10271484 -0.95871094 1.10271484 0 0 Z " fill="#815E35" transform="translate(49,27)"/>
<path d="M0 0 C1.32 0.66 2.64 1.32 4 2 C3.01 2.33 2.02 2.66 1 3 C0.896875 3.721875 0.79375 4.44375 0.6875 5.1875 C0 8 0 8 -1.5625 10.3125 C-3.61790049 14.15520526 -3.34485101 16.65487725 -3 21 C-2.34 22.32 -1.68 23.64 -1 25 C1.97 24.67 4.94 24.34 8 24 C6.02 24.99 6.02 24.99 4 26 C2.71745356 28.53770003 2.71745356 28.53770003 2 31 C-1 30 -1 30 -2.1328125 28.3984375 C-5.61736633 21.29214268 -6.2097509 15.86338084 -5 8 C-5.33 7.01 -5.66 6.02 -6 5 C-3 5 -3 5 -1 6 C-1.020625 5.195625 -1.04125 4.39125 -1.0625 3.5625 C-1 1 -1 1 0 0 Z " fill="#C5AF8C" transform="translate(27,44)"/>
<path d="M0 0 C1.96720862 0.23339763 3.93414877 0.46974737 5.8984375 0.7265625 C7.53427304 0.93940356 9.17296557 1.13032951 10.8125 1.3125 C13.63001242 2.1980039 14.48479742 3.52782737 16 6 C14.68 6.33 13.36 6.66 12 7 C11.67 6.01 11.34 5.02 11 4 C8.03 4 5.06 4 2 4 C1.67 5.65 1.34 7.3 1 9 C0.34 9 -0.32 9 -1 9 C-1 9.66 -1 10.32 -1 11 C-1.99 11.495 -1.99 11.495 -3 12 C-3.65772428 15.02934491 -3.65772428 15.02934491 -4 18 C-4.33 18 -4.66 18 -5 18 C-5.67090715 10.75420281 -3.58125682 6.24161903 0 0 Z " fill="#E8DBC7" transform="translate(28,47)"/>
<path d="M0 0 C1.32 0 2.64 0 4 0 C3.60196439 2.88575819 3.20990931 3.82189513 0.9375 5.75 C0.298125 6.1625 -0.34125 6.575 -1 7 C-0.67 7.66 -0.34 8.32 0 9 C2.52733235 9.65555119 2.52733235 9.65555119 5 10 C5 10.99 5 11.98 5 13 C3.12735324 14.87264676 0.50240053 14.23607378 -1.9921875 14.328125 C-4.52624963 13.91399811 -5.38192934 12.93354356 -7 11 C-6.02262231 9.35310365 -5.0430468 7.70751146 -4.0625 6.0625 C-3.51722656 5.14597656 -2.97195312 4.22945312 -2.41015625 3.28515625 C-1 1 -1 1 0 0 Z " fill="#F5EEE1" transform="translate(51,33)"/>
<path d="M0 0 C0.99 0.33 1.98 0.66 3 1 C2.67 2.32 2.34 3.64 2 5 C-4.625 5.125 -4.625 5.125 -8 4 C-8.02126953 4.8353125 -8.02126953 4.8353125 -8.04296875 5.6875 C-8.4860862 12.77737914 -10.9284398 17.32584488 -15.43359375 22.71484375 C-18.02737127 24.84290561 -20.79051702 24.18166885 -24 24 C-24.33 24.99 -24.66 25.98 -25 27 C-25.33 26.34 -25.66 25.68 -26 25 C-23.80798825 22.50069689 -22.26425757 21.64932141 -19.0625 20.875 C-16.44390618 19.95560401 -15.26076554 19.36225667 -13.625 17.08984375 C-11.31624141 12.14129132 -10.39416724 7.41979958 -10 2 C-6.58900832 2 -3.36911686 2.49145406 0 3 C0 2.01 0 1.02 0 0 Z " fill="#CEBA9B" transform="translate(121,56)"/>
<path d="M0 0 C2.625 0.3125 2.625 0.3125 4.3125 1.875 C5.95193069 4.91965699 6.73191306 7.97830876 7.625 11.3125 C8.24969505 12.66600594 8.8966331 14.01184483 9.625 15.3125 C8.305 15.3125 6.985 15.3125 5.625 15.3125 C5.50125 14.4153125 5.50125 14.4153125 5.375 13.5 C4.41951097 10.713157 2.9799152 9.98373014 0.625 8.3125 C0.625 7.6525 0.625 6.9925 0.625 6.3125 C-1.025 5.9825 -2.675 5.6525 -4.375 5.3125 C-3.2726378 0.43061024 -3.2726378 0.43061024 0 0 Z " fill="#FAF9F5" transform="translate(73.375,28.6875)"/>
<path d="M0 0 C0.33 0.99 0.66 1.98 1 3 C1.64808564 4.34246312 2.31822584 5.67432801 3 7 C4 9 5 11 6 13 C6.66 13 7.32 13 8 13 C8.33 11.35 8.66 9.7 9 8 C9.33 8 9.66 8 10 8 C9.67 11.96 9.34 15.92 9 20 C6.36 20 3.72 20 1 20 C1.66 16.37 2.32 12.74 3 9 C1.68 8.67 0.36 8.34 -1 8 C-1.93065133 5.39417629 -2.14917407 4.35801776 -1.0625 1.75 C-0.711875 1.1725 -0.36125 0.595 0 0 Z " fill="#F3EAD9" transform="translate(75,108)"/>
<path d="M0 0 C0.33 0.66 0.66 1.32 1 2 C2.64363134 2.72159424 4.31050386 3.39351421 6 4 C5.67 4.66 5.34 5.32 5 6 C3.95199219 5.87431641 3.95199219 5.87431641 2.8828125 5.74609375 C1.97273438 5.64425781 1.06265625 5.54242188 0.125 5.4375 C-0.77992187 5.33308594 -1.68484375 5.22867188 -2.6171875 5.12109375 C-5.01653057 4.80325148 -5.01653057 4.80325148 -7 6 C-7.66 5.67 -8.32 5.34 -9 5 C-9.66 6.98 -10.32 8.96 -11 11 C-11.66 11 -12.32 11 -13 11 C-12.67 9.02 -12.34 7.04 -12 5 C-11.34 5 -10.68 5 -10 5 C-9.67 3.35 -9.34 1.7 -9 0 C-3.375 -1.125 -3.375 -1.125 0 0 Z " fill="#FDFDFC" transform="translate(39,51)"/>
<path d="M0 0 C3.79379058 1.49041773 5.68343758 3.69062512 8 7 C8 7.66 8 8.32 8 9 C10.475 9.99 10.475 9.99 13 11 C12.67 11.99 12.34 12.98 12 14 C10.35 13.67 8.7 13.34 7 13 C7 12.34 7 11.68 7 11 C6.236875 10.773125 5.47375 10.54625 4.6875 10.3125 C1.38699926 8.70062755 0.43529504 7.34902175 -1 4 C-0.6875 1.6875 -0.6875 1.6875 0 0 Z " fill="#9D7641" transform="translate(109,46)"/>
<path d="M0 0 C2.625 0.9375 2.625 0.9375 5 2 C5.3125 4.25 5.3125 4.25 5 7 C0.89189189 11 0.89189189 11 -2 11 C-2.144375 11.94875 -2.28875 12.8975 -2.4375 13.875 C-3 17 -3 17 -4 19 C-3.96810205 21.00957058 -3.93365838 23.01971076 -3.83984375 25.02734375 C-4 27 -4 27 -6 30 C-6.10883596 27.62374823 -6.18766696 25.25256024 -6.25 22.875 C-6.28351563 22.20984375 -6.31703125 21.5446875 -6.3515625 20.859375 C-6.45216034 15.72888513 -5.25606647 12.91671763 -2 9 C0.75 7.625 0.75 7.625 3 7 C3 5.68 3 4.36 3 3 C2.01257813 3.09539063 1.02515625 3.19078125 0.0078125 3.2890625 C-1.27351563 3.39992187 -2.55484375 3.51078125 -3.875 3.625 C-5.78925781 3.79902344 -5.78925781 3.79902344 -7.7421875 3.9765625 C-8.81726563 3.98429687 -9.89234375 3.99203125 -11 4 C-11.66 3.34 -12.32 2.68 -13 2 C-12.22914062 1.93941406 -11.45828125 1.87882812 -10.6640625 1.81640625 C-9.15972656 1.69072266 -9.15972656 1.69072266 -7.625 1.5625 C-6.62726563 1.48128906 -5.62953125 1.40007813 -4.6015625 1.31640625 C-2.02072387 1.15034374 -2.02072387 1.15034374 0 0 Z " fill="#BEA071" transform="translate(83,50)"/>
<path d="M0 0 C2.0625 0.4375 2.0625 0.4375 4 1 C4.33 2.32 4.66 3.64 5 5 C4.05125 4.814375 3.1025 4.62875 2.125 4.4375 C-0.89868793 3.71313368 -0.89868793 3.71313368 -3 5 C-4.87379605 5.07033769 -6.75001102 5.0843022 -8.625 5.0625 C-9.62789063 5.05347656 -10.63078125 5.04445313 -11.6640625 5.03515625 C-12.43492188 5.02355469 -13.20578125 5.01195312 -14 5 C-14 3.68 -14 2.36 -14 1 C-13.07316406 1.01160156 -12.14632812 1.02320313 -11.19140625 1.03515625 C-9.39509766 1.04869141 -9.39509766 1.04869141 -7.5625 1.0625 C-5.77005859 1.07990234 -5.77005859 1.07990234 -3.94140625 1.09765625 C-1.11126659 1.33901792 -1.11126659 1.33901792 0 0 Z " fill="#9B8469" transform="translate(84,47)"/>
<path d="M0 0 C2.62506802 -0.02690844 5.24986173 -0.04679404 7.875 -0.0625 C8.62136719 -0.07087891 9.36773437 -0.07925781 10.13671875 -0.08789062 C15.7734375 -0.11328125 15.7734375 -0.11328125 18 1 C18 1.66 18 2.32 18 3 C18.5775 3.185625 19.155 3.37125 19.75 3.5625 C23.00903215 5.64465943 24.74388514 8.4111004 26 12 C25.75 15.9375 25.75 15.9375 25 19 C24.01 19.33 23.02 19.66 22 20 C22.103125 18.845 22.20625 17.69 22.3125 16.5 C22.33999528 11.34921666 20.08167577 7.97816327 17 4 C14.15385976 1.15385976 11.19630858 1.54420924 7.375 1.375 C6.66859375 1.33632812 5.9621875 1.29765625 5.234375 1.2578125 C3.49001476 1.16352276 1.74504309 1.08067109 0 1 C0 0.67 0 0.34 0 0 Z " fill="#E4D6C0" transform="translate(91,12)"/>
<path d="M0 0 C0.99 0 1.98 0 3 0 C3 0.99 3 1.98 3 3 C2.34 3 1.68 3 1 3 C0.67 5.31 0.34 7.62 0 10 C-6.39853522 12.39462284 -10.56465858 13.6580758 -17 11 C-17 10.67 -17 10.34 -17 10 C-12.38 10 -7.76 10 -3 10 C-3 8.68 -3 7.36 -3 6 C-6.63 5.67 -10.26 5.34 -14 5 C-14 4.67 -14 4.34 -14 4 C-9.38 3.67 -4.76 3.34 0 3 C0 2.01 0 1.02 0 0 Z " fill="#DAC9B1" transform="translate(61,43)"/>
<path d="M0 0 C1 3 1 3 0.0625 5.1875 C-0.4634375 6.0846875 -0.4634375 6.0846875 -1 7 C-0.0925 7.680625 0.815 8.36125 1.75 9.0625 C4.16162558 11.04954361 5.66157395 12.86790532 7.125 15.625 C8.6939677 19.01764214 8.6939677 19.01764214 11.1875 20.5625 C13 22 13 22 13.75 25.1875 C13.87375 26.5796875 13.87375 26.5796875 14 28 C11.03 28 8.06 28 5 28 C5 27.67 5 27.34 5 27 C6.98 26.67 8.96 26.34 11 26 C11 25.01 11 24.02 11 23 C9.56859365 21.80161329 8.1311467 20.60928011 6.65625 19.46484375 C4.36959396 17.44244749 2.82297622 15.10365043 1.17578125 12.55078125 C-0.09318074 10.70106689 -0.09318074 10.70106689 -3 9 C-3.8125 7.0625 -3.8125 7.0625 -4 5 C-3.34 4.01 -2.68 3.02 -2 2 C-1.34 2 -0.68 2 0 2 C0 1.34 0 0.68 0 0 Z " fill="#ECE1CE" transform="translate(112,34)"/>
<path d="M0 0 C0.66 0.66 1.32 1.32 2 2 C1.06398754 3.41764994 0.1261208 4.83407568 -0.8125 6.25 C-1.33457031 7.03890625 -1.85664063 7.8278125 -2.39453125 8.640625 C-5.5139589 13.22489337 -5.5139589 13.22489337 -7 15 C-7.66 15 -8.32 15 -9 15 C-9.875 12.9375 -9.875 12.9375 -10 10 C-7.45082658 5.96895414 -3.98662428 2.60663895 0 0 Z " fill="#9C8160" transform="translate(26,30)"/>
<path d="M0 0 C0.66 0 1.32 0 2 0 C2 1.98 2 3.96 2 6 C2.66 6 3.32 6 4 6 C7 10.38461538 7 10.38461538 7 13 C5.4609375 14.11328125 5.4609375 14.11328125 3.375 15.3125 C-0.42285326 17.58310266 -3.67303973 20.08890976 -7 23 C-7.33 22.01 -7.66 21.02 -8 20 C-7.443125 19.79375 -6.88625 19.5875 -6.3125 19.375 C-4.02890674 18.01718779 -3.0008439 16.92057214 -1.375 14.875 C-0.199375 13.451875 -0.199375 13.451875 1 12 C1.66 12 2.32 12 3 12 C2.69964844 11.38511719 2.39929687 10.77023438 2.08984375 10.13671875 C1.70957031 9.32847656 1.32929687 8.52023437 0.9375 7.6875 C0.55464844 6.88699219 0.17179687 6.08648437 -0.22265625 5.26171875 C-1 3 -1 3 0 0 Z " fill="#DAC9B0" transform="translate(32,7)"/>
<path d="M0 0 C1.06896078 3.20688233 0.9521766 3.94075816 0.125 7.0625 C-1.0801819 12.01351755 -1.59762144 16.92791239 -2 22 C-4.31 22 -6.62 22 -9 22 C-9.45375 23.134375 -9.9075 24.26875 -10.375 25.4375 C-12 29 -12 29 -14 30 C-13.39301257 25.87248551 -11.96189209 22.6678852 -10 19 C-8.02 19.33 -6.04 19.66 -4 20 C-3.86722656 19.04738281 -3.73445312 18.09476563 -3.59765625 17.11328125 C-3.42105469 15.85902344 -3.24445312 14.60476562 -3.0625 13.3125 C-2.88847656 12.07113281 -2.71445313 10.82976563 -2.53515625 9.55078125 C-1.29015544 1.29015544 -1.29015544 1.29015544 0 0 Z " fill="#E4D6C1" transform="translate(14,43)"/>
<path d="M0 0 C3.45835793 0.28819649 4.78380733 0.78965038 7.3125 3.25 C9.12328851 6.2009146 9.38684492 7.61510691 9 11 C8.01 11 7.02 11 6 11 C5.34 10.01 4.68 9.02 4 8 C1.94996045 6.80767387 1.94996045 6.80767387 0 6 C0 4.02 0 2.04 0 0 Z " fill="#C5AE8A" transform="translate(37,107)"/>
<path d="M0 0 C0.33 0 0.66 0 1 0 C1.58609007 5.71437817 -0.08530321 10.16748968 -3 15 C-6.41708811 17.87754788 -9.60913886 18.48943475 -14 19 C-14.33 19.99 -14.66 20.98 -15 22 C-18.4375 23.125 -18.4375 23.125 -22 24 C-22.66 24.33 -23.32 24.66 -24 25 C-23.1875 23.0625 -23.1875 23.0625 -22 21 C-19 20 -19 20 -16 20 C-15.64035156 19.03126953 -15.64035156 19.03126953 -15.2734375 18.04296875 C-14 16 -14 16 -11.9765625 15.48828125 C-11.20054688 15.43027344 -10.42453125 15.37226562 -9.625 15.3125 C-6.61374913 14.77996367 -5.40360631 14.54323227 -3.5546875 12.0546875 C-1.82863835 8.18066607 -0.54454968 4.22026 0 0 Z " fill="#9D805A" transform="translate(110,60)"/>
<path d="M0 0 C1.8125 0.5 1.8125 0.5 4 2 C6.53798284 6.71182031 7.45131491 11.73262313 8 17 C6.02 17 4.04 17 2 17 C1.9175 16.21625 1.835 15.4325 1.75 14.625 C1.5025 13.75875 1.255 12.8925 1 12 C-0.31647119 11.30062468 -1.65022151 10.63270867 -3 10 C-3.75 7.875 -3.75 7.875 -4 6 C-2 6 -2 6 0.5625 8.25 C2.76715929 10.73730791 3.64403955 11.79635595 4 15 C4.66 15 5.32 15 6 15 C5.731875 14.505 5.46375 14.01 5.1875 13.5 C3.11452329 9.13583851 1.52679381 4.58038144 0 0 Z " fill="#E2D4BD" transform="translate(76,29)"/>
<path d="M0 0 C3.9126984 1.3042328 6.37310241 2.78934739 9 6 C9 6.99 9 7.98 9 9 C7.6078125 8.9690625 7.6078125 8.9690625 6.1875 8.9375 C2.97713989 8.84230396 2.97713989 8.84230396 0 10 C0 6.7 0 3.4 0 0 Z " fill="#76522B" transform="translate(6,67)"/>
<path d="M0 0 C0.68384766 0.00902344 1.36769531 0.01804687 2.07226562 0.02734375 C3.73583287 0.05061042 5.39921631 0.08646833 7.0625 0.125 C7.3925 0.785 7.7225 1.445 8.0625 2.125 C4.15522442 2.85761417 0.99208444 3.22254739 -2.9375 2.5625 C-7.02549582 1.95804926 -10.08322314 2.50620372 -13.9375 4.125 C-15.2544667 6.00870471 -15.2544667 6.00870471 -15.9375 8.125 C-17.25 9.875 -17.25 9.875 -18.9375 11.125 C-21.625 11.3125 -21.625 11.3125 -23.9375 11.125 C-23.009375 11.00125 -23.009375 11.00125 -22.0625 10.875 C-19.75312433 10.31241541 -19.75312433 10.31241541 -18.6875 8.0625 C-18.44 7.423125 -18.1925 6.78375 -17.9375 6.125 C-17.2775 6.125 -16.6175 6.125 -15.9375 6.125 C-15.6075 4.805 -15.2775 3.485 -14.9375 2.125 C-9.77803135 0.4208322 -5.4949667 -0.09725605 0 0 Z " fill="#C7B191" transform="translate(98.9375,12.875)"/>
<path d="M0 0 C1.875 0.25 1.875 0.25 4 1 C6.39044353 4.27113325 6.63403639 8.04759299 7 12 C6.67 12.66 6.34 13.32 6 14 C5.01 13.67 4.02 13.34 3 13 C2.05078125 10.8203125 2.05078125 10.8203125 1.3125 8.125 C1.06113281 7.24070312 0.80976563 6.35640625 0.55078125 5.4453125 C0 3 0 3 0 0 Z " fill="#7B572E" transform="translate(16,77)"/>
<path d="M0 0 C1.051875 0.32677734 1.051875 0.32677734 2.125 0.66015625 C7.59951244 2.07613393 12.57955693 1.4896895 18.125 0.72265625 C15.22338767 2.65706447 13.58778378 3.23549783 10.25 3.91015625 C9.40695313 4.08933594 8.56390625 4.26851562 7.6953125 4.453125 C5.125 4.72265625 5.125 4.72265625 2.4296875 4.1484375 C1.66914062 4.00792969 0.90859375 3.86742187 0.125 3.72265625 C-0.535 4.38265625 -1.195 5.04265625 -1.875 5.72265625 C-4 5.34765625 -4 5.34765625 -5.875 4.72265625 C-4.80263943 1.50557454 -3.75550875 -0.55550234 0 0 Z " fill="#D9C8AF" transform="translate(67.875,51.27734375)"/>
<path d="M0 0 C2 2 2 2 3 5 C4.65 5.33 6.3 5.66 8 6 C7.67 4.68 7.34 3.36 7 2 C8.37562854 3.28965176 9.70766393 4.62689293 11 6 C11 6.66 11 7.32 11 8 C8.03 8 5.06 8 2 8 C1.67 8.99 1.34 9.98 1 11 C0.566875 10.54625 0.13375 10.0925 -0.3125 9.625 C-2.10798342 7.79975666 -2.10798342 7.79975666 -5 6 C-4.67 5.34 -4.34 4.68 -4 4 C-1.525 4.99 -1.525 4.99 1 6 C0.67 4.02 0.34 2.04 0 0 Z " fill="#9C8263" transform="translate(46,71)"/>
<path d="M0 0 C3.14737182 0.69941596 6.02588876 1.76078698 9 3 C8.979375 4.093125 8.95875 5.18625 8.9375 6.3125 C8.81455548 9.94384191 8.81455548 9.94384191 10 13 C9.01 13 8.02 13 7 13 C6.74476562 12.06027344 6.74476562 12.06027344 6.484375 11.1015625 C6.24203125 10.28429687 5.9996875 9.46703125 5.75 8.625 C5.51796875 7.81289062 5.2859375 7.00078125 5.046875 6.1640625 C3.7785108 3.54214546 2.67576692 3.00617682 0 2 C0 1.34 0 0.68 0 0 Z " fill="#563616" transform="translate(42,62)"/>
<path d="M0 0 C2.4294516 3.6441774 2.16179575 5.71241272 2 10 C1.01 9.67 0.02 9.34 -1 9 C-1 7.02 -1 5.04 -1 3 C-2.1446875 3.2784375 -2.1446875 3.2784375 -3.3125 3.5625 C-6 4 -6 4 -9 3 C-9 2.34 -9 1.68 -9 1 C-5.92859432 0.08995387 -3.20100846 -0.33694826 0 0 Z " fill="#D2C0A4" transform="translate(14,78)"/>
<path d="M0 0 C2.12493141 -0.02693575 4.24995912 -0.04636628 6.375 -0.0625 C7.55835938 -0.07410156 8.74171875 -0.08570313 9.9609375 -0.09765625 C13 0 13 0 15 1 C16.87056791 1.2275015 18.74685958 1.40962811 20.625 1.5625 C21.62789062 1.64628906 22.63078125 1.73007813 23.6640625 1.81640625 C24.43492188 1.87699219 25.20578125 1.93757812 26 2 C26 2.33 26 2.66 26 3 C19.07 3 12.14 3 5 3 C5 2.34 5 1.68 5 1 C3.35 1 1.7 1 0 1 C0 0.67 0 0.34 0 0 Z " fill="#9B8161" transform="translate(40,5)"/>
<path d="M0 0 C1.2065625 0.0309375 1.2065625 0.0309375 2.4375 0.0625 C2.7675 1.3825 3.0975 2.7025 3.4375 4.0625 C-2.3125 8.0625 -2.3125 8.0625 -4.5625 8.0625 C-3.54737544 0.08652135 -3.54737544 0.08652135 0 0 Z " fill="#553515" transform="translate(98.5625,26.9375)"/>
<path d="M0 0 C4.875 0.875 4.875 0.875 6 2 C6.20839015 3.64107242 6.36751725 5.28856293 6.5 6.9375 C6.75214943 10.60557465 6.75214943 10.60557465 8 14 C10.02463255 14.65213292 10.02463255 14.65213292 12 15 C12 15.66 12 16.32 12 17 C9.125 16.8125 9.125 16.8125 6 16 C3.62516989 12.38121126 3.66133478 8.20949022 3.44140625 3.98828125 C3.15220099 1.60164944 3.15220099 1.60164944 0 0 Z " fill="#EBE0CD" transform="translate(67,6)"/>
<path d="M0 0 C1.98 0 3.96 0 6 0 C5.125 6.875 5.125 6.875 4 8 C2.58672053 8.15620555 1.1664541 8.25056173 -0.25390625 8.31640625 C-1.53491211 8.37924805 -1.53491211 8.37924805 -2.84179688 8.44335938 C-3.73962891 8.48267578 -4.63746094 8.52199219 -5.5625 8.5625 C-6.46419922 8.60568359 -7.36589844 8.64886719 -8.29492188 8.69335938 C-10.52978485 8.79978142 -12.76476308 8.90179988 -15 9 C-15 8.34 -15 7.68 -15 7 C-9.06 6.67 -3.12 6.34 3 6 C3 5.01 3 4.02 3 3 C2.01 2.67 1.02 2.34 0 2 C0 1.34 0 0.68 0 0 Z " fill="#D7C6AC" transform="translate(64,73)"/>
<path d="M0 0 C-0.625 1.875 -0.625 1.875 -2 4 C-5.125 5.25 -5.125 5.25 -8 6 C-8.66 5.34 -9.32 4.68 -10 4 C-7.10257116 -0.27715685 -5.06635533 -1.57231717 0 0 Z " fill="#997545" transform="translate(96,15)"/>
<path d="M0 0 C-0.33 0.99 -0.66 1.98 -1 3 C-3.31309705 2.88658363 -5.62550185 2.75896193 -7.9375 2.625 C-9.86916016 2.52058594 -9.86916016 2.52058594 -11.83984375 2.4140625 C-13.40412109 2.20910156 -13.40412109 2.20910156 -15 2 C-15.33 1.34 -15.66 0.68 -16 0 C-15.39671875 0.01160156 -14.7934375 0.02320313 -14.171875 0.03515625 C-13.37265625 0.04417969 -12.5734375 0.05320313 -11.75 0.0625 C-10.96109375 0.07410156 -10.1721875 0.08570313 -9.359375 0.09765625 C-7.01639655 0.08701023 -7.01639655 0.08701023 -4.890625 -0.56640625 C-3 -1 -3 -1 0 0 Z " fill="#9B8469" transform="translate(59,49)"/>
<path d="M0 0 C7.75 0.875 7.75 0.875 10 2 C9.01 2.33 8.02 2.66 7 3 C6.855625 4.134375 6.71125 5.26875 6.5625 6.4375 C6 10 6 10 5 11 C3.33382885 11.04063832 1.66611905 11.042721 0 11 C0 10.01 0 9.02 0 8 C1.65 8.33 3.3 8.66 5 9 C4.81171228 6.55519921 4.81171228 6.55519921 4 4 C2.03241727 2.63979849 2.03241727 2.63979849 0 2 C0 1.34 0 0.68 0 0 Z " fill="#BD9E6F" transform="translate(37,83)"/>
<path d="M0 0 C1.8125 0.0625 1.8125 0.0625 4 1 C5.81278756 4.4960903 7 7.03981755 7 11 C2.68607774 10.5206753 0.83430453 9.2542015 -2 6 C1.51716303 6 2.37121748 6.82445585 5 9 C4.360625 7.88625 3.72125 6.7725 3.0625 5.625 C1.99473894 3.76502913 0.95928532 1.91857063 0 0 Z " fill="#C2A77D" transform="translate(40,66)"/>
<path d="M0 0 C2.64 0 5.28 0 8 0 C8.33 0.99 8.66 1.98 9 3 C6.04335481 4.4783226 3.25770263 4.06032783 0 4 C0 2.68 0 1.36 0 0 Z " fill="#674521" transform="translate(70,48)"/>
<path d="M0 0 C0.66 0.33 1.32 0.66 2 1 C1.57847656 1.61488281 1.15695313 2.22976562 0.72265625 2.86328125 C0.17480469 3.67152344 -0.37304688 4.47976562 -0.9375 5.3125 C-1.48277344 6.11300781 -2.02804688 6.91351563 -2.58984375 7.73828125 C-4.13837326 10.0258143 -4.13837326 10.0258143 -5 13 C-4.34 13.66 -3.68 14.32 -3 15 C-4.32 14.67 -5.64 14.34 -7 14 C-6.73672346 7.54972485 -4.49335977 4.52084209 0 0 Z " fill="#D4C1A6" transform="translate(50,32)"/>
<path d="M0 0 C0.66 0 1.32 0 2 0 C3.19287411 3.87684087 4 6.91621923 4 11 C1 10 1 10 -0.8125 7.1875 C-2 4 -2 4 -1.1875 1.625 C-0.795625 1.08875 -0.40375 0.5525 0 0 Z " fill="#C6B08F" transform="translate(79,108)"/>
<path d="M0 0 C0.66 0.33 1.32 0.66 2 1 C1.31292969 1.60328125 0.62585937 2.2065625 -0.08203125 2.828125 C-0.98308594 3.62734375 -1.88414063 4.4265625 -2.8125 5.25 C-3.70582031 6.03890625 -4.59914063 6.8278125 -5.51953125 7.640625 C-7.64128225 9.65879445 -9.34254423 11.59916705 -11 14 C-10.8125 10.6875 -10.8125 10.6875 -10 7 C-7.75 5.3125 -7.75 5.3125 -5 4 C-3.31522656 2.68962066 -1.64351457 1.36176922 0 0 Z " fill="#D1BEA2" transform="translate(26,28)"/>
<path d="M0 0 C5.67276511 -0.29341888 8.99067246 -0.00559652 14 3 C12.68 4.65 11.36 6.3 10 8 C9.505 5.525 9.505 5.525 9 3 C6.03 2.505 6.03 2.505 3 2 C2.67 3.65 2.34 5.3 2 7 C1.67 7 1.34 7 1 7 C0.67 4.69 0.34 2.38 0 0 Z " fill="#C5AE8A" transform="translate(22,79)"/>
<path d="M0 0 C2.475 0.99 2.475 0.99 5 2 C5 3.32 5 4.64 5 6 C3.35 6.33 1.7 6.66 0 7 C-1.125 2.25 -1.125 2.25 0 0 Z " fill="#553515" transform="translate(34,72)"/>
<path d="M0 0 C2.00720923 0.28674418 4.0085944 0.61866701 6 1 C7.48320272 4.83887763 8.22419163 7.06204091 7 11 C6.74476562 10.15115234 6.74476562 10.15115234 6.484375 9.28515625 C6.24203125 8.55167969 5.9996875 7.81820312 5.75 7.0625 C5.51796875 6.33160156 5.2859375 5.60070312 5.046875 4.84765625 C4.1492447 2.79429444 4.1492447 2.79429444 1.890625 2.24609375 C1.26671875 2.16488281 0.6428125 2.08367187 0 2 C-0.495 3.98 -0.495 3.98 -1 6 C-1.042721 4.33388095 -1.04063832 2.66617115 -1 1 C-0.67 0.67 -0.34 0.34 0 0 Z " fill="#E5D8C2" transform="translate(25,80)"/>
<path d="M0 0 C2.76276177 0.52268466 5.3260876 1.10869587 8 2 C8 2.99 8 3.98 8 5 C5.69 5 3.38 5 1 5 C0.505 2.525 0.505 2.525 0 0 Z " fill="#DDCDB5" transform="translate(97,43)"/>
<path d="M0 0 C1.19109375 -0.03867187 1.19109375 -0.03867187 2.40625 -0.078125 C3.0971875 0.03015625 3.788125 0.1384375 4.5 0.25 C5.16 1.24 5.82 2.23 6.5 3.25 C3.2 2.59 -0.1 1.93 -3.5 1.25 C-3.5 3.56 -3.5 5.87 -3.5 8.25 C-4.49 7.92 -5.48 7.59 -6.5 7.25 C-6.5 5.27 -6.5 3.29 -6.5 1.25 C-4.15897141 0.07948571 -2.60647047 0.0507754 0 0 Z " fill="#D8C7AD" transform="translate(43.5,57.75)"/>
<path d="M0 0 C0.66 0.99 1.32 1.98 2 3 C-1.80411834 6.91939465 -5.81576108 10.49102731 -10 14 C-10.33 13.01 -10.66 12.02 -11 11 C-10.443125 10.79375 -9.88625 10.5875 -9.3125 10.375 C-7.02890674 9.01718779 -6.0008439 7.92057214 -4.375 5.875 C-3.199375 4.451875 -3.199375 4.451875 -2 3 C-1.34 3 -0.68 3 0 3 C0 2.01 0 1.02 0 0 Z " fill="#EADECA" transform="translate(35,16)"/>
<path d="M0 0 C0.99 0.33 1.98 0.66 3 1 C2.67 2.32 2.34 3.64 2 5 C-4.625 5.125 -4.625 5.125 -8 4 C-8 5.98 -8 7.96 -8 10 C-8.33 10 -8.66 10 -9 10 C-9 7.69 -9 5.38 -9 3 C-5.93109813 1.46554906 -3.29905734 2.45015711 0 3 C0 2.01 0 1.02 0 0 Z " fill="#D8C7AD" transform="translate(121,56)"/>
<path d="M0 0 C0.66 0.33 1.32 0.66 2 1 C2 2.32 2 3.64 2 5 C0.02 5.66 -1.96 6.32 -4 7 C-4 5.68 -4 4.36 -4 3 C-2 1.25 -2 1.25 0 0 Z " fill="#DDCDB5" transform="translate(54,36)"/>
<path d="M0 0 C0.721875 0.12375 1.44375 0.2475 2.1875 0.375 C1.28257813 0.72691406 1.28257813 0.72691406 0.359375 1.0859375 C-2.34382927 2.6903573 -3.13565896 4.22558687 -4.5625 7 C-4.99046875 7.81726563 -5.4184375 8.63453125 -5.859375 9.4765625 C-6.17390625 10.10304688 -6.4884375 10.72953125 -6.8125 11.375 C-7.1425 11.375 -7.4725 11.375 -7.8125 11.375 C-8.37248861 7.56707747 -7.7992807 6.3549822 -5.625 3.0625 C-2.8125 0.375 -2.8125 0.375 0 0 Z " fill="#E7DAC5" transform="translate(92.8125,82.625)"/>
<path d="M0 0 C0.66 0.33 1.32 0.66 2 1 C2 2.32 2 3.64 2 5 C3.65 5.33 5.3 5.66 7 6 C7 6.33 7 6.66 7 7 C3.04 7 -0.92 7 -5 7 C-4.34 6.67 -3.68 6.34 -3 6 C-3 5.34 -3 4.68 -3 4 C-2.01 4 -1.02 4 0 4 C0 2.68 0 1.36 0 0 Z " fill="#D9C8AF" transform="translate(76,40)"/>
<path d="M0 0 C0.33 0.66 0.66 1.32 1 2 C-0.8125 5 -0.8125 5 -3 8 C-3.99 8 -4.98 8 -6 8 C-5.65120368 4.74456771 -4.97866739 3.98126893 -2.4375 1.75 C-1.633125 1.1725 -0.82875 0.595 0 0 Z " fill="#946B36" transform="translate(24,34)"/>
<path d="M0 0 C2.26171875 0.14453125 2.26171875 0.14453125 4.6875 0.8125 C5.49574219 1.02519531 6.30398437 1.23789062 7.13671875 1.45703125 C8.05904297 1.72580078 8.05904297 1.72580078 9 2 C9 2.66 9 3.32 9 4 C5.04 3.67 1.08 3.34 -3 3 C-2.01 2.01 -1.02 1.02 0 0 Z " fill="#7E5A31" transform="translate(71,24)"/>
<path d="M0 0 C1 2 1 2 0.5 4.25 C-0.07786542 7.4282598 0.34258069 9.85899662 1 13 C-2 11 -2 11 -2.875 7.625 C-3 4 -3 4 -1.5625 1.5625 C-1.046875 1.046875 -0.53125 0.53125 0 0 Z " fill="#E8DBC7" transform="translate(73,82)"/>
<path d="M0 0 C1.485 0.99 1.485 0.99 3 2 C3.1875 4.625 3.1875 4.625 3 7 C1.68 7.33 0.36 7.66 -1 8 C-1.125 2.25 -1.125 2.25 0 0 Z " fill="#7E5A31" transform="translate(88,61)"/>
<path d="M0 0 C0.33 0 0.66 0 1 0 C1.25 5.625 1.25 5.625 -1 9 C-1.45139459 11.0492094 -1.45139459 11.0492094 -1.625 13.1875 C-1.74875 14.445625 -1.8725 15.70375 -2 17 C-2.33 17 -2.66 17 -3 17 C-3.24954005 15.56589632 -3.47392642 14.12739928 -3.6875 12.6875 C-3.81511719 11.88699219 -3.94273438 11.08648437 -4.07421875 10.26171875 C-4 8 -4 8 -2.5625 6.375 C-2.046875 5.92125 -1.53125 5.4675 -1 5 C-0.27802838 2.39388923 -0.27802838 2.39388923 0 0 Z " fill="#F3EAD9" transform="translate(14,37)"/>
<path d="M0 0 C0.99 0 1.98 0 3 0 C3 0.66 3 1.32 3 2 C2.34 2 1.68 2 1 2 C0.731875 2.598125 0.46375 3.19625 0.1875 3.8125 C-1.03854802 6.07100952 -1.93534581 7.47062652 -4 9 C-6.6875 9.1875 -6.6875 9.1875 -9 9 C-8.071875 8.87625 -8.071875 8.87625 -7.125 8.75 C-4.81562433 8.18741541 -4.81562433 8.18741541 -3.75 5.9375 C-3.5025 5.298125 -3.255 4.65875 -3 4 C-2.34 4 -1.68 4 -1 4 C-0.67 2.68 -0.34 1.36 0 0 Z " fill="#D0BC9E" transform="translate(84,15)"/>
<path d="M0 0 C0.33 0.66 0.66 1.32 1 2 C0.0625 4.125 0.0625 4.125 -1 6 C-3.31 6 -5.62 6 -8 6 C-8.33 4.68 -8.66 3.36 -9 2 C-7.02 2.99 -7.02 2.99 -5 4 C-3.35 2.68 -1.7 1.36 0 0 Z " fill="#F3EAD9" transform="translate(44,93)"/>
<path d="M0 0 C2.97 0.495 2.97 0.495 6 1 C5.67 2.65 5.34 4.3 5 6 C3.0625 5.25 3.0625 5.25 1 4 C0.25 1.875 0.25 1.875 0 0 Z " fill="#724F29" transform="translate(35,87)"/>
<path d="M0 0 C-0.33 1.32 -0.66 2.64 -1 4 C-2.65 3.67 -4.3 3.34 -6 3 C-6 2.01 -6 1.02 -6 0 C-3.50907189 -1.24546405 -2.58919267 -0.7767578 0 0 Z " fill="#94795B" transform="translate(68,76)"/>
<path d="M0 0 C1.953125 0.6484375 1.953125 0.6484375 4 2 C4.609375 4.6015625 4.609375 4.6015625 4.75 7.625 C4.80671875 8.62789062 4.8634375 9.63078125 4.921875 10.6640625 C4.94765625 11.43492188 4.9734375 12.20578125 5 13 C2.03472242 10.5546615 1.44417786 8.55397653 0.8125 4.8125 C0.65394531 3.91144531 0.49539062 3.01039062 0.33203125 2.08203125 C0.22246094 1.39496094 0.11289062 0.70789062 0 0 Z " fill="#D1BEA0" transform="translate(50,61)"/>
<path d="M0 0 C1.9375 0.25 1.9375 0.25 4 1 C4.66 1.99 5.32 2.98 6 4 C5.67 4.99 5.34 5.98 5 7 C4.01 5.68 3.02 4.36 2 3 C1.67 4.32 1.34 5.64 1 7 C0.34 5.02 -0.32 3.04 -1 1 C-0.67 0.67 -0.34 0.34 0 0 Z " fill="#7E5A31" transform="translate(15,60)"/>
<path d="M0 0 C2.475 0.495 2.475 0.495 5 1 C4.1875 2.9375 4.1875 2.9375 3 5 C2.01 5.33 1.02 5.66 0 6 C0 4.02 0 2.04 0 0 Z " fill="#75512A" transform="translate(89,51)"/>
<path d="M0 0 C3.24208567 0.35049575 4.61527704 0.56221181 6.8125 3.0625 C7.204375 3.701875 7.59625 4.34125 8 5 C6.68 5.33 5.36 5.66 4 6 C3.67 5.01 3.34 4.02 3 3 C2.34 3 1.68 3 1 3 C0.67 2.01 0.34 1.02 0 0 Z " fill="#E9DDC9" transform="translate(36,48)"/>
<path d="M0 0 C2 0 2 0 4.5 2.125 C7.072484 5.0833566 8.03870206 7.24219895 9 11 C7.68 10.67 6.36 10.34 5 10 C5 8.68 5 7.36 5 6 C4.360625 5.7525 3.72125 5.505 3.0625 5.25 C1 4 1 4 0.25 1.875 C0.1675 1.25625 0.085 0.6375 0 0 Z " fill="#F0E6D4" transform="translate(72,35)"/>
<path d="M0 0 C0.99 0.33 1.98 0.66 3 1 C2.67 3.31 2.34 5.62 2 8 C1.01 8.33 0.02 8.66 -1 9 C-0.67 6.03 -0.34 3.06 0 0 Z " fill="#E8DCC7" transform="translate(114,23)"/>
<path d="M0 0 C1.2065625 0.0309375 1.2065625 0.0309375 2.4375 0.0625 C1.7775 2.0425 1.1175 4.0225 0.4375 6.0625 C0.1075 5.4025 -0.2225 4.7425 -0.5625 4.0625 C-1.2225 4.0625 -1.8825 4.0625 -2.5625 4.0625 C-2.8925 3.0725 -3.2225 2.0825 -3.5625 1.0625 C-2.5625 0.0625 -2.5625 0.0625 0 0 Z " fill="#C5AB83" transform="translate(93.5625,57.9375)"/>
<path d="M0 0 C1.32 0 2.64 0 4 0 C3.6875 1.9375 3.6875 1.9375 3 4 C2.01 4.33 1.02 4.66 0 5 C-0.5625 3.0625 -0.5625 3.0625 -1 1 C-0.67 0.67 -0.34 0.34 0 0 Z " fill="#6B4924" transform="translate(106,60)"/>
<path d="M0 0 C0.99 0.33 1.98 0.66 3 1 C2.34 2.32 1.68 3.64 1 5 C-0.32 4.67 -1.64 4.34 -3 4 C-2.67 3.01 -2.34 2.02 -2 1 C-1.34 0.67 -0.68 0.34 0 0 Z " fill="#7E5A31" transform="translate(65,27)"/>
<path d="M0 0 C0.88935377 3.303314 1.46274105 6.62294375 2 10 C0.35 8.68 -1.3 7.36 -3 6 C-2 4 -1 2 0 0 Z " fill="#C6B08F" transform="translate(3,69)"/>
<path d="M0 0 C2.5 2.3125 2.5 2.3125 5 5 C5 5.99 5 6.98 5 8 C3.0625 7.25 3.0625 7.25 1 6 C0.20124132 3.86997684 0 2.26695035 0 0 Z " fill="#DDCDB5" transform="translate(40,67)"/>
<path d="M0 0 C0.66 0.33 1.32 0.66 2 1 C2 2.65 2 4.3 2 6 C-0.31 5.01 -2.62 4.02 -5 3 C-5 2.67 -5 2.34 -5 2 C-3.35 2 -1.7 2 0 2 C0 1.34 0 0.68 0 0 Z " fill="#CEB99A" transform="translate(12,63)"/>
<path d="M0 0 C0.33 0.99 0.66 1.98 1 3 C-0.62339805 4.70884005 -2.29319053 6.37446717 -4 8 C-4.66 8 -5.32 8 -6 8 C-4.55746343 4.63408134 -2.66735273 2.48952921 0 0 Z " fill="#C6B08F" transform="translate(31,32)"/>
<path d="M0 0 C0.4125 0.474375 0.825 0.94875 1.25 1.4375 C3.182185 3.16266518 4.48192275 3.56584875 7 4 C7 4.66 7 5.32 7 6 C4.03 5.505 4.03 5.505 1 5 C0.505 2.525 0.505 2.525 0 0 Z " fill="#E6D9C5" transform="translate(72,17)"/>
<path d="M0 0 C0.99 0 1.98 0 3 0 C3 1.65 3 3.3 3 5 C1.68 4.67 0.36 4.34 -1 4 C-0.67 2.68 -0.34 1.36 0 0 Z " fill="#FDFDFC" transform="translate(70,65)"/>
<path d="M0 0 C0.66 0.33 1.32 0.66 2 1 C-4.625 4.875 -4.625 4.875 -8 6 C-8 5.34 -8 4.68 -8 4 C-6.71349294 3.30289269 -5.42059335 2.61757124 -4.125 1.9375 C-3.40570313 1.55464844 -2.68640625 1.17179687 -1.9453125 0.77734375 C-1.30335937 0.52082031 -0.66140625 0.26429687 0 0 Z " fill="#A4783A" transform="translate(70,23)"/>
<path d="M0 0 C0.66 0 1.32 0 2 0 C2.33 2.97 2.66 5.94 3 9 C0.9375 6.75 0.9375 6.75 -1 4 C-0.75 1.6875 -0.75 1.6875 0 0 Z " fill="#EBDFCC" transform="translate(32,7)"/>
</svg>
