<?xml version="1.0" encoding="UTF-8"?>
<svg version="1.1" xmlns="http://www.w3.org/2000/svg" width="128" height="128">
<path d="M0 0 C42.24 0 84.48 0 128 0 C128 42.24 128 84.48 128 128 C85.76 128 43.52 128 0 128 C0 85.76 0 43.52 0 0 Z " fill="#FCFCFB" transform="translate(0,0)"/>
<path d="M0 0 C35.97 0 71.94 0 109 0 C109 17.49 109 34.98 109 53 C107.35 54.32 105.7 55.64 104 57 C103.195625 57.804375 102.39125 58.60875 101.5625 59.4375 C100.716875 60.283125 99.87125 61.12875 99 62 C97.6696875 63.3921875 97.6696875 63.3921875 96.3125 64.8125 C91.81527403 67.78236621 88.23633099 67.46568161 83 67 C82.34 65.35 81.68 63.7 81 62 C77.05868758 62.5774481 74.86875198 64.52898153 71.875 67.0625 C67.21089631 71 67.21089631 71 65 71 C64.9175 71.5775 64.835 72.155 64.75 72.75 C63.79468987 75.6159304 62.21530827 76.9990764 60 79 C59.01 78.67 58.02 78.34 57 78 C56.95101562 77.32453125 56.90203125 76.6490625 56.8515625 75.953125 C56.77679688 75.06109375 56.70203125 74.1690625 56.625 73.25 C56.55539063 72.36828125 56.48578125 71.4865625 56.4140625 70.578125 C55.99255523 67.95364579 55.48215907 66.20320943 54 64 C50.94091587 63.18415432 50.94091587 63.18415432 48 63 C46.68 65.64 45.36 68.28 44 71 C43.01 70.67 42.02 70.34 41 70 C38.88288285 65.53053047 37.7915198 60.74821073 38.0625 55.8125 C37.98321141 50.97589604 36.64518589 48.96777884 34 45 C31.39391727 47.5162178 29.10618315 50.05134359 27 53 C23.45529741 52.70460812 22.21784705 52.22373481 19.6875 49.625 C18 47 18 47 18 44 C17.34 44 16.68 44 16 44 C11.48279257 37.71518966 9.73356899 30.52845421 8.52734375 23.00390625 C8.35332031 22.34261719 8.17929687 21.68132813 8 21 C7.34 20.67 6.68 20.34 6 20 C6 18.68 6 17.36 6 16 C5.34 16 4.68 16 4 16 C0.03712562 10.2934609 0 7.09651757 0 0 Z " fill="#080707" transform="translate(19,0)"/>
<path d="M0 0 C6.27 0 12.54 0 19 0 C19.45572917 2.70182292 19.91145833 5.40364583 20.3671875 8.10546875 C20.98039517 10.91032604 21.85666343 13.37224747 23 16 C23.66 16 24.32 16 25 16 C25 17.32 25 18.64 25 20 C25.99 20.33 26.98 20.66 28 21 C28.80859375 23.40625 28.80859375 23.40625 29.4375 26.5 C30.5431291 31.4282829 32.01537752 35.72807537 34.23046875 40.2578125 C35 42 35 42 35 44 C35.66 44 36.32 44 37 44 C37.45375 44.94875 37.9075 45.8975 38.375 46.875 C39.80238254 50.00313679 39.80238254 50.00313679 42 52 C44.47326954 52.14091482 44.47326954 52.14091482 47 51 C48.3703055 49.02514795 49.70672372 47.02613283 51 45 C51.99 45 52.98 45 54 45 C57.07028113 49.60542169 58.28674139 52.13060112 57.94140625 57.80078125 C58.0544036 62.04194856 59.6291598 66.01803561 61 70 C61.66 70 62.32 70 63 70 C64.32 67.36 65.64 64.72 67 62 C72.40137615 62.36009174 72.40137615 62.36009174 74.8125 64.9375 C76.47418347 69.22289421 76.74305353 73.43698519 77 78 C80.29019657 76.54382509 80.29019657 76.54382509 82.375 73.625 C84.42503996 70.31339699 86.72104945 69.08087247 90 67 C91.79687775 65.38981085 93.55675656 63.7536609 95.2890625 62.07421875 C97 61 97 61 99.2109375 61.33203125 C100.09652344 61.66267578 100.09652344 61.66267578 101 62 C101.495 64.475 101.495 64.475 102 67 C109.77438419 66.96813777 114.25764102 65.2451156 120 60 C118.42853994 63.33149534 116.78892837 65.54912355 114 68 C109.03542214 69.65485929 103.90195682 69.41022598 98.8125 68.3125 C95.07703414 67.89744824 93.20239489 69.1497274 90 71 C88.515 71.495 88.515 71.495 87 72 C86.731875 72.5775 86.46375 73.155 86.1875 73.75 C83.44461344 78.94704822 78.17646448 81.65826607 73 84 C71.5676644 81.1353288 72.42138451 79.08594927 73 76 C73 75.34 73 74.68 73 74 C68.9235639 76.52322903 68.9235639 76.52322903 65.5 79.8125 C64 81 64 81 60.8125 80.6875 C59.884375 80.460625 58.95625 80.23375 58 80 C57.67 79.01 57.34 78.02 57 77 C50.565 77.495 50.565 77.495 44 78 C45.30751113 83.65568989 45.30751113 83.65568989 47.625 85.375 C51.22216988 86.32162365 54.27217868 86.23668707 58 86 C58.99 85.34 59.98 84.68 61 84 C63.73990408 84.03143293 66.28417854 84.55478337 69 85 C69 85.66 69 86.32 69 87 C66.00539397 88.81782659 62.92033557 90.42015446 59.8203125 92.05078125 C56.73777695 94.18123172 55.96678896 95.44490896 55 99 C53.68 98.67 52.36 98.34 51 98 C51.33 96.35 51.66 94.7 52 93 C45.43364686 92.07621648 39.86508506 91.94985409 33.3984375 93.44921875 C25.19456866 95.33316909 16.28443862 96.22156077 8.625 92.25 C4.88418626 89.04358822 1.79091789 85.6253751 0 81 C-0.1803322 78.33366454 -0.25283647 75.77489034 -0.22705078 73.11035156 C-0.22734283 72.31972824 -0.22763489 71.52910492 -0.22793579 70.71452332 C-0.22654467 68.1064448 -0.21099379 65.49865349 -0.1953125 62.890625 C-0.19158159 61.08030351 -0.18873499 59.26998 -0.18673706 57.45965576 C-0.17910672 52.69865325 -0.15946334 47.93777308 -0.1373291 43.17681885 C-0.1168578 38.31711482 -0.10773259 33.45739099 -0.09765625 28.59765625 C-0.07621689 19.06504181 -0.04103959 9.53255023 0 0 Z " fill="#E5B58B" transform="translate(0,0)"/>
<path d="M0 0 C34.65 0 69.3 0 105 0 C105 12.54 105 25.08 105 38 C100 35 100 35 99 32 C90.52458008 27.49743317 80.33923716 27.34480976 71 28 C68.79176282 28.65419179 68.79176282 28.65419179 66.875 29.4375 C60.5003221 30.36285647 56.20545774 26.38607445 51 23 C46.17213465 20.12240105 42.07932143 19.6042918 36.55859375 20.34375 C33.00959207 21.25402829 30.16928349 22.86635362 27.10546875 24.84375 C24.74486695 26.14011017 22.6488681 26.59319303 20 27 C16.31684931 22.68042254 12.65011349 18.34753275 9 14 C8.18273438 13.02675781 7.36546875 12.05351562 6.5234375 11.05078125 C5.45996094 9.75720703 5.45996094 9.75720703 4.375 8.4375 C3.74335938 7.67308594 3.11171875 6.90867187 2.4609375 6.12109375 C1 4 1 4 0 0 Z " fill="#FBFBF9" transform="translate(23,0)"/>
<path d="M0 0 C11.85989036 5.58451148 11.85989036 5.58451148 15.375 8.75 C18.18292128 11.15678967 20.45149586 12.07062987 24 13 C24.33 10.69 24.66 8.38 25 6 C25.99 7.485 25.99 7.485 27 9 C28.32381517 10.67423683 29.65576661 12.34211215 31 14 C33.37233611 13.96219702 33.37233611 13.96219702 36 13 C37.3703055 11.02514795 38.70672372 9.02613283 40 7 C40.99 7 41.98 7 43 7 C46.07028113 11.60542169 47.28674139 14.13060112 46.94140625 19.80078125 C47.0544036 24.04194856 48.6291598 28.01803561 50 32 C50.66 32 51.32 32 52 32 C53.32 29.36 54.64 26.72 56 24 C61.40137615 24.36009174 61.40137615 24.36009174 63.8125 26.9375 C65.47418347 31.22289421 65.74305353 35.43698519 66 40 C69.29019657 38.54382509 69.29019657 38.54382509 71.375 35.625 C73.42503996 32.31339699 75.72104945 31.08087247 79 29 C80.79687775 27.38981085 82.55675656 25.7536609 84.2890625 24.07421875 C86 23 86 23 88.2109375 23.33203125 C88.80132812 23.55246094 89.39171875 23.77289063 90 24 C90.495 26.475 90.495 26.475 91 29 C98.77438419 28.96813777 103.25764102 27.2451156 109 22 C107.42853994 25.33149534 105.78892837 27.54912355 103 30 C98.03542214 31.65485929 92.90195682 31.41022598 87.8125 30.3125 C84.07703414 29.89744824 82.20239489 31.1497274 79 33 C77.515 33.495 77.515 33.495 76 34 C75.731875 34.5775 75.46375 35.155 75.1875 35.75 C72.44461344 40.94704822 67.17646448 43.65826607 62 46 C60.5676644 43.1353288 61.42138451 41.08594927 62 38 C62 37.34 62 36.68 62 36 C57.9235639 38.52322903 57.9235639 38.52322903 54.5 41.8125 C53 43 53 43 49.8125 42.6875 C48.884375 42.460625 47.95625 42.23375 47 42 C46.67 41.01 46.34 40.02 46 39 C39.565 39.495 39.565 39.495 33 40 C34.30751113 45.65568989 34.30751113 45.65568989 36.625 47.375 C40.22216988 48.32162365 43.27217868 48.23668707 47 48 C47.99 47.34 48.98 46.68 50 46 C52.73990408 46.03143293 55.28417854 46.55478337 58 47 C58 47.66 58 48.32 58 49 C55.00539397 50.81782659 51.92033557 52.42015446 48.8203125 54.05078125 C45.73777695 56.18123172 44.96678896 57.44490896 44 61 C42.68 60.67 41.36 60.34 40 60 C40.33 58.35 40.66 56.7 41 55 C40.195625 54.690625 39.39125 54.38125 38.5625 54.0625 C36 53 36 53 35 52 C28.24161665 52.1774929 21.58288662 53.5573674 15 55 C15 54.01 15 53.02 15 52 C15.95712891 51.47599609 15.95712891 51.47599609 16.93359375 50.94140625 C17.75988281 50.48636719 18.58617188 50.03132813 19.4375 49.5625 C20.67306641 48.88380859 20.67306641 48.88380859 21.93359375 48.19140625 C23.92308798 47.16337603 23.92308798 47.16337603 25 46 C25.07179964 44.48071962 25.08392007 42.95832518 25.0625 41.4375 C25.05347656 40.61121094 25.04445313 39.78492188 25.03515625 38.93359375 C25.02355469 38.29550781 25.01195313 37.65742187 25 37 C24.42507812 36.731875 23.85015625 36.46375 23.2578125 36.1875 C20.93792462 34.96735136 18.95985992 33.5854448 16.875 32 C16.19179688 31.484375 15.50859375 30.96875 14.8046875 30.4375 C11.07990932 27.47057712 11.07990932 27.47057712 10.5078125 24.1015625 C10.25323269 21.7895622 10.00320905 19.47705554 9.7578125 17.1640625 C8.89122022 13.54581639 7.87365468 12.29036164 5 10 C4.113125 9.54625 3.22625 9.0925 2.3125 8.625 C0 7 0 7 -0.875 3.875 C-0.91625 2.92625 -0.9575 1.9775 -1 1 C-0.67 0.67 -0.34 0.34 0 0 Z " fill="#E29855" transform="translate(11,38)"/>
<path d="M0 0 C6.27 0 12.54 0 19 0 C19.268125 1.670625 19.53625 3.34125 19.8125 5.0625 C20.88507096 10.95408698 22.68005526 15.52510361 25.5 20.8125 C28.69722102 27.60659467 31.0347389 35.53531415 32 43 C31.67 43.66 31.34 44.32 31 45 C28.76955389 43.89835882 26.54064354 42.79378106 24.3125 41.6875 C23.68666016 41.37876953 23.06082031 41.07003906 22.41601562 40.75195312 C19.62182072 39.36217032 16.92401762 37.95142829 14.29296875 36.26953125 C11.85358657 34.677082 11.85358657 34.677082 8 35 C7.98018066 35.72590332 7.96036133 36.45180664 7.93994141 37.19970703 C7.8443181 40.50848475 7.73478993 43.8166633 7.625 47.125 C7.57859375 48.83816406 7.57859375 48.83816406 7.53125 50.5859375 C7.49257812 51.69453125 7.45390625 52.803125 7.4140625 53.9453125 C7.36693115 55.46922607 7.36693115 55.46922607 7.31884766 57.02392578 C6.96204079 60.35430535 6.37233605 62.93711259 5 66 C3.35 67.32 1.7 68.64 0 70 C0 46.9 0 23.8 0 0 Z " fill="#FCFBFA" transform="translate(0,0)"/>
<path d="M0 0 C0.99 1.485 0.99 1.485 2 3 C3.32381517 4.67423683 4.65576661 6.34211215 6 8 C8.37233611 7.96219702 8.37233611 7.96219702 11 7 C12.3703055 5.02514795 13.70672372 3.02613283 15 1 C15.99 1 16.98 1 18 1 C21.07028113 5.60542169 22.28674139 8.13060112 21.94140625 13.80078125 C22.0544036 18.04194856 23.6291598 22.01803561 25 26 C25.66 26 26.32 26 27 26 C28.32 23.36 29.64 20.72 31 18 C36.40137615 18.36009174 36.40137615 18.36009174 38.8125 20.9375 C40.47418347 25.22289421 40.74305353 29.43698519 41 34 C44.29019657 32.54382509 44.29019657 32.54382509 46.375 29.625 C48.42503996 26.31339699 50.72104945 25.08087247 54 23 C55.79687775 21.38981085 57.55675656 19.7536609 59.2890625 18.07421875 C61 17 61 17 63.2109375 17.33203125 C63.80132812 17.55246094 64.39171875 17.77289063 65 18 C65.495 20.475 65.495 20.475 66 23 C73.77438419 22.96813777 78.25764102 21.2451156 84 16 C82.42853994 19.33149534 80.78892837 21.54912355 78 24 C73.03542214 25.65485929 67.90195682 25.41022598 62.8125 24.3125 C59.07703414 23.89744824 57.20239489 25.1497274 54 27 C53.01 27.33 52.02 27.66 51 28 C50.731875 28.5775 50.46375 29.155 50.1875 29.75 C47.44461344 34.94704822 42.17646448 37.65826607 37 40 C35.5676644 37.1353288 36.42138451 35.08594927 37 32 C37 31.34 37 30.68 37 30 C36.13375 30.61875 35.2675 31.2375 34.375 31.875 C31.24371814 33.84654784 28.53615531 34.98966991 25 36 C23.4375 34.8125 23.4375 34.8125 22 33 C22.30027117 31.32706064 22.63557767 29.66014616 23 28 C22.08501439 25.86223789 22.08501439 25.86223789 21 24 C20.26394531 24.05800781 19.52789062 24.11601563 18.76953125 24.17578125 C10.89415108 24.53990054 10.89415108 24.53990054 8.15625 22.88671875 C6.8125 21.5 6.8125 21.5 5 19 C5.66 18.01 6.32 17.02 7 16 C10.63 16.33 14.26 16.66 18 17 C17.67 15.68 17.34 14.36 17 13 C16.19175781 12.92523438 15.38351563 12.85046875 14.55078125 12.7734375 C4.72796288 11.56483982 4.72796288 11.56483982 1.75 8.1875 C0.01795902 5.03271107 -0.51677728 3.51408549 0 0 Z " fill="#69625E" transform="translate(36,44)"/>
<path d="M0 0 C0.54372951 3.05847848 1 5.88772805 1 9 C2.65 8.34 4.3 7.68 6 7 C4.33333333 8.66666667 2.66666667 10.33333333 1 12 C0.54625 12.556875 0.0925 13.11375 -0.375 13.6875 C-2 15 -2 15 -5.3125 15.9375 C-9.26762277 17.07711164 -11.81430523 18.40699263 -15 21 C-16.34689915 23.57099402 -16.34689915 23.57099402 -17 26 C-18 27 -18 27 -21.0625 27.0625 C-22.031875 27.041875 -23.00125 27.02125 -24 27 C-25 24 -25 24 -24 21 C-30.3066098 19.4711249 -35.4881143 19.79009077 -41.6875 21.5625 C-49.13331759 23.53372649 -56.03543162 23.42126036 -63.3125 20.8125 C-70.60598032 15.89364118 -70.60598032 15.89364118 -73 13 C-73.4375 9.625 -73.4375 9.625 -73 7 C-72.608125 7.53625 -72.21625 8.0725 -71.8125 8.625 C-67.3441577 14.95946514 -67.3441577 14.95946514 -61 19 C-58.34547058 19.3494285 -55.78920269 19.5984582 -53.125 19.75 C-52.08279297 19.83314453 -52.08279297 19.83314453 -51.01953125 19.91796875 C-46.50793735 20.19835029 -43.19242613 19.61292773 -39 18 C-32.61306975 16.61783708 -27.24466421 17.21370126 -21 19 C-21 20.65 -21 22.3 -21 24 C-20.01 24.33 -19.02 24.66 -18 25 C-17.94714844 24.25363281 -17.89429688 23.50726563 -17.83984375 22.73828125 C-16.68585446 18.97573942 -14.895168 18.17669976 -11.5625 16.1875 C-10.57378906 15.58292969 -9.58507813 14.97835937 -8.56640625 14.35546875 C-6 13 -6 13 -4 13 C-4 12.34 -4 11.68 -4 11 C-5.258125 10.95875 -6.51625 10.9175 -7.8125 10.875 C-8.52019531 10.85179688 -9.22789063 10.82859375 -9.95703125 10.8046875 C-12.31359719 10.86745538 -12.31359719 10.86745538 -15 13 C-19.82187494 13.47428278 -22.10742485 13.43034873 -26.5 11.3125 C-29 9 -29 9 -29.375 6.25 C-29.25125 5.5075 -29.1275 4.765 -29 4 C-26.09458095 3.03152698 -24.03362546 2.80417188 -21 2.75 C-19.700625 2.71132812 -19.700625 2.71132812 -18.375 2.671875 C-15.52986004 3.06495355 -14.86841048 3.91790034 -13 6 C-7.2415357 6 -4.98963176 0 0 0 Z " fill="#E1D6CC" transform="translate(73,74)"/>
<path d="M0 0 C1.78327252 2.67490879 2.81096301 4.89804683 3.9375 7.875 C5.34889541 11.49301733 6.91012197 14.71590596 9 18 C9.33 18.99 9.66 19.98 10 21 C10.66 21.33 11.32 21.66 12 22 C12.226875 21.236875 12.45375 20.47375 12.6875 19.6875 C14.32149334 16.34170411 15.6037323 15.46657014 19 14 C22.125 13.5 22.125 13.5 25 14 C27.41663468 17.02079335 28.60625445 20.41608287 30 24 C30.33 24.33 30.66 24.66 31 25 C31.15582303 26.34015221 31.25044142 27.68758903 31.31640625 29.03515625 C31.35830078 29.84404297 31.40019531 30.65292969 31.44335938 31.48632812 C31.48267578 32.33646484 31.52199219 33.18660156 31.5625 34.0625 C31.60568359 34.91650391 31.64886719 35.77050781 31.69335938 36.65039062 C31.79976702 38.76672037 31.90041731 40.88333813 32 43 C32.66 43 33.32 43 34 43 C33.8453125 41.1746875 33.8453125 41.1746875 33.6875 39.3125 C33.69992227 35.81563209 33.96605113 35.04938017 36.0625 32 C39.69413218 29.52739937 41.6867465 29.52074961 46 30 C46.99 30.33 47.98 30.66 49 31 C48.47731534 33.76276177 47.89130413 36.3260876 47 39 C47.66084583 41.33498858 48.32811503 43.66816393 49 46 C49.03772913 47.9996441 49.04649906 50.00054061 49 52 C49.33 52.66 49.66 53.32 50 54 C49.01 53.67 48.02 53.34 47 53 C46.95101562 52.32453125 46.90203125 51.6490625 46.8515625 50.953125 C46.77679688 50.06109375 46.70203125 49.1690625 46.625 48.25 C46.52058594 46.92742187 46.52058594 46.92742187 46.4140625 45.578125 C45.99255523 42.95364579 45.48215907 41.20320943 44 39 C40.94091587 38.18415432 40.94091587 38.18415432 38 38 C36.68 40.64 35.36 43.28 34 46 C33.01 45.67 32.02 45.34 31 45 C28.88288285 40.53053047 27.7915198 35.74821073 28.0625 30.8125 C27.98321141 25.97589604 26.64518589 23.96777884 24 20 C21.39391727 22.5162178 19.10618315 25.05134359 17 28 C13.45529741 27.70460812 12.21784705 27.22373481 9.6875 24.625 C8 22 8 22 8 19 C7.34 19 6.68 19 6 19 C1.93172883 13.33979664 -0.52446946 6.99292613 0 0 Z " fill="#343231" transform="translate(29,25)"/>
<path d="M0 0 C0.99 0.33 1.98 0.66 3 1 C3 2.32 3 3.64 3 5 C5.97 5 8.94 5 12 5 C12.66 6.32 13.32 7.64 14 9 C14.90363281 8.94199219 15.80726562 8.88398437 16.73828125 8.82421875 C17.91777344 8.77910156 19.09726562 8.73398438 20.3125 8.6875 C21.48425781 8.62949219 22.65601563 8.57148437 23.86328125 8.51171875 C27 9 27 9 28.9375 11.28125 C30.330321 14.84523315 29.79532462 17.31258585 29 21 C30.98 21 32.96 21 35 21 C34.67 21.66 34.34 22.32 34 23 C32.02 22.67 30.04 22.34 28 22 C27.67 21.01 27.34 20.02 27 19 C20.565 19.495 20.565 19.495 14 20 C15.30751113 25.65568989 15.30751113 25.65568989 17.625 27.375 C21.22216988 28.32162365 24.27217868 28.23668707 28 28 C28.99 27.34 29.98 26.68 31 26 C33.73990408 26.03143293 36.28417854 26.55478337 39 27 C39 27.66 39 28.32 39 29 C36.00539397 30.81782659 32.92033557 32.42015446 29.8203125 34.05078125 C26.73777695 36.18123172 25.96678896 37.44490896 25 41 C23.68 40.67 22.36 40.34 21 40 C21.33 38.35 21.66 36.7 22 35 C20.35 34.34 18.7 33.68 17 33 C17 32.01 17 31.02 17 30 C16.195625 29.4225 15.39125 28.845 14.5625 28.25 C12 26 12 26 11.125 22.3125 C11.08375 21.219375 11.0425 20.12625 11 19 C12 18 12 18 15.16015625 17.90234375 C16.44792969 17.91394531 17.73570313 17.92554687 19.0625 17.9375 C20.35285156 17.94652344 21.64320312 17.95554687 22.97265625 17.96484375 C23.97167969 17.97644531 24.97070312 17.98804687 26 18 C26 16.02 26 14.04 26 12 C25.28199219 12.15726563 24.56398438 12.31453125 23.82421875 12.4765625 C15.83955632 13.95643078 9.10298801 13.55250446 1.91015625 9.57421875 C0 8 0 8 -1.1875 4.25 C-1 1 -1 1 0 0 Z " fill="#E3B388" transform="translate(30,58)"/>
<path d="M0 0 C0.99 0 1.98 0 3 0 C4.10546875 1.43359375 4.10546875 1.43359375 5.1875 3.4375 C7.66506253 7.66349254 10.62857668 11.07733463 13.9296875 14.6796875 C17.15594831 18.29553453 20.07774391 22.13714272 23 26 C26.64396514 25.44036835 29.10259703 24.4910068 32.1875 22.5 C37.05108641 19.71618349 41.39648107 18.69913992 47 19 C50.83298228 20.13569845 53.47066982 21.65567843 56.81640625 23.83203125 C62.87308588 28.00851298 62.87308588 28.00851298 69.875 28.4375 C70.49246094 28.19386719 71.10992187 27.95023438 71.74609375 27.69921875 C80.34274331 25.03232053 91.66585297 26.4541571 99.75 30.3125 C102.43003194 32.32252396 104.69819217 34.57031396 107 37 C107.33 37.33 107.66 37.66 108 38 C108.20747626 40.45711167 108.32435535 42.85163029 108.375 45.3125 C108.41238281 45.98990234 108.44976562 46.66730469 108.48828125 47.36523438 C108.5234375 49.36328125 108.5234375 49.36328125 108 53 C105.58984375 55.37109375 105.58984375 55.37109375 103 57 C101.9826127 57.98230498 100.97403883 58.97469597 100 60 C101.875 52.25 101.875 52.25 103 50 C103.00131649 41.30239703 103.00131649 41.30239703 99 34 C96.40812314 32.69854694 93.78614754 31.79145842 91 31 C90.39027344 30.81308594 89.78054687 30.62617188 89.15234375 30.43359375 C86.24795009 29.84849811 83.46098886 29.82947815 80.5 29.8125 C79.3759375 29.79832031 78.251875 29.78414062 77.09375 29.76953125 C74.07197216 29.99463844 72.58943846 30.5607935 70 32 C63.68202317 32.1289383 59.68011208 29.1665823 54.55078125 25.69140625 C49.4294805 22.29550545 46.69534671 21.70260151 40.60546875 22.44921875 C35.45041494 23.53896776 31.33657666 26.10894889 27 29 C23.81013948 29.10275461 21.8297148 28.75374774 19.42675781 26.57080078 C17.73913001 24.62422203 16.17365051 22.62133515 14.625 20.5625 C14.06208252 19.83981934 13.49916504 19.11713867 12.91918945 18.37255859 C11.79288375 16.9259955 10.67239747 15.47488041 9.55810547 14.01904297 C8.19232302 12.24921833 6.80076122 10.50998384 5.37890625 8.78515625 C0 2.25568182 0 2.25568182 0 0 Z " fill="#837C78" transform="translate(20,0)"/>
<path d="M0 0 C0 3 0 3 -2.3125 5.625 C-6.87725741 9.65897166 -11.20862754 9.28857354 -17 9 C-18.051875 8.773125 -19.10375 8.54625 -20.1875 8.3125 C-23.92296586 7.89744824 -25.79760511 9.1497274 -29 11 C-29.99 11.33 -30.98 11.66 -32 12 C-32.268125 12.5775 -32.53625 13.155 -32.8125 13.75 C-35.55538656 18.94704822 -40.82353552 21.65826607 -46 24 C-47.4323356 21.1353288 -46.57861549 19.08594927 -46 16 C-46 15.34 -46 14.68 -46 14 C-48.31 15.32 -50.62 16.64 -53 18 C-52.95875 17.0925 -52.9175 16.185 -52.875 15.25 C-52.73815278 12.07872306 -52.73815278 12.07872306 -54.1875 10 C-54.5896875 9.01 -54.5896875 9.01 -55 8 C-53.625 4.75 -53.625 4.75 -52 2 C-46.59862385 2.36009174 -46.59862385 2.36009174 -44.1875 4.9375 C-42.52581653 9.22289421 -42.25694647 13.43698519 -42 18 C-38.70980343 16.54382509 -38.70980343 16.54382509 -36.625 13.625 C-34.57496004 10.31339699 -32.27895055 9.08087247 -29 7 C-27.20312225 5.38981085 -25.44324344 3.7536609 -23.7109375 2.07421875 C-22 1 -22 1 -19.7890625 1.33203125 C-19.19867188 1.55246094 -18.60828125 1.77289063 -18 2 C-17.505 4.475 -17.505 4.475 -17 7 C-10.1770992 6.97254366 -6.12157017 6.11674498 -1.1796875 1.27734375 C-0.79039063 0.85582031 -0.40109375 0.43429688 0 0 Z " fill="#746D69" transform="translate(119,60)"/>
<path d="M0 0 C0.99 0 1.98 0 3 0 C5.12225753 4.24451506 5.63896436 8.32352172 5 13 C4 15 3 17 2 19 C1.29698689 24.0535435 2.12559549 28.25885917 4 33 C4.33 33.99 4.66 34.98 5 36 C-1.06809922 35.76203532 -1.06809922 35.76203532 -3.54296875 33.73828125 C-5.87310774 31.02548014 -7.67410002 28.58489976 -8 25 C-8.103125 23.88625 -8.20625 22.7725 -8.3125 21.625 C-7.93947425 17.29790125 -6.71715334 15.33821697 -4 12 C-3.01 11.34 -2.02 10.68 -1 10 C-0.41810734 7.57478506 -0.41810734 7.57478506 -0.3125 4.875 C-0.24675781 3.96492188 -0.18101563 3.05484375 -0.11328125 2.1171875 C-0.07589844 1.41851562 -0.03851562 0.71984375 0 0 Z " fill="#E39A59" transform="translate(11,56)"/>
<path d="M0 0 C5.32405622 2.6734043 9.63843559 4.8845759 13 10 C11.93308908 13.20073275 11.01370311 15.42159293 8.0078125 17.13671875 C4.08843536 18.59493819 1.66019915 19.12968198 -2.5 18.3125 C-5 17 -5 17 -6 15 C-6.47626772 11.59378152 -6.59152744 8.39462141 -6 5 C-4.20434973 2.62848522 -2.57046271 1.60653919 0 0 Z " fill="#FDFDFC" transform="translate(20,69)"/>
<path d="M0 0 C4.61423255 2.14355206 6.61969334 4.73107927 8.40625 9.41015625 C9.8485136 16.88370401 8.68352788 22.27479593 5.09375 28.97265625 C2.34375 31.59765625 2.34375 31.59765625 0.09375 32.97265625 C0.09375 29.97265625 0.09375 29.97265625 2.09375 27.97265625 C2.70426241 24.3095818 2.20021911 23.12429407 0.03125 20.03515625 C-1.90625 16.97265625 -1.90625 16.97265625 -1.90625 13.72265625 C-0.90625 10.97265625 -0.90625 10.97265625 1.03125 9.53515625 C3.09375 8.97265625 3.09375 8.97265625 5.09375 9.97265625 C4.58582143 7.00096837 4.58582143 7.00096837 3.09375 3.97265625 C-3.93402721 0.48210024 -12.13283991 -0.77960924 -19.90625 -0.02734375 C-20.56882812 0.3078125 -21.23140625 0.64296875 -21.9140625 0.98828125 C-24.8827169 2.45514577 -27.65258013 2.0977974 -30.90625 1.97265625 C-31.23625 1.31265625 -31.56625 0.65265625 -31.90625 -0.02734375 C-30.2975 0.03453125 -30.2975 0.03453125 -28.65625 0.09765625 C-25.10832349 0.25546491 -25.10832349 0.25546491 -23.0546875 -1.015625 C-16.35994887 -4.16823828 -6.75575562 -2.35793419 0 0 Z " fill="#363332" transform="translate(114.90625,31.02734375)"/>
<path d="M0 0 C4.875 2.75 4.875 2.75 6 5 C6.375 8.375 6.375 8.375 6 12 C2.86887166 15.31531236 -0.89289018 17.08971636 -5 19 C-1.41562562 20.19479146 -0.23131601 19.66534731 3.3125 18.5625 C10.9348748 16.37459612 10.9348748 16.37459612 15 17 C15.66 17.99 16.32 18.98 17 20 C15.58847656 20.07347656 15.58847656 20.07347656 14.1484375 20.1484375 C12.28058594 20.26058594 12.28058594 20.26058594 10.375 20.375 C9.14523438 20.44460937 7.91546875 20.51421875 6.6484375 20.5859375 C3.05688782 20.85502837 3.05688782 20.85502837 0.0390625 22.046875 C-3.73000733 23.22894831 -7.11598824 23.13782786 -11 22.875 C-12.02867188 22.84019531 -12.02867188 22.84019531 -13.078125 22.8046875 C-19.34374177 22.42205441 -23.11486859 20.09459046 -27.25 15.5 C-29.98872138 11.58754089 -31.6454433 8.90536907 -31 4 C-30.01 3.34 -29.02 2.68 -28 2 C-27.90203125 2.73605469 -27.8040625 3.47210938 -27.703125 4.23046875 C-26.65646987 11.98845383 -26.65646987 11.98845383 -22 18 C-18.37526891 19.35835671 -18.37526891 19.35835671 -15 20 C-15.99 18.68 -16.98 17.36 -18 16 C-17.67 15.34 -17.34 14.68 -17 14 C-16.484375 14.515625 -15.96875 15.03125 -15.4375 15.5625 C-11.92270909 17.63532541 -9.91409014 16.92876715 -6 16 C-2.61122166 14.94100677 0.25955966 13.95640211 2.5 11.0625 C3.47672191 7.03352212 1.54356472 3.70455533 0 0 Z " fill="#E9B78B" transform="translate(31,72)"/>
<path d="M0 0 C0.99 1.485 0.99 1.485 2 3 C3.65 2.34 5.3 1.68 7 1 C5.33333333 2.66666667 3.66666667 4.33333333 2 6 C1.54625 6.556875 1.0925 7.11375 0.625 7.6875 C-1 9 -1 9 -4.3125 9.9375 C-8.26762277 11.07711164 -10.81430523 12.40699263 -14 15 C-15.34689915 17.57099402 -15.34689915 17.57099402 -16 20 C-17 21 -17 21 -20.0625 21.0625 C-21.031875 21.041875 -22.00125 21.02125 -23 21 C-24 18 -24 18 -23 15 C-29.3066098 13.4711249 -34.4881143 13.79009077 -40.6875 15.5625 C-48.13331759 17.53372649 -55.03543162 17.42126036 -62.3125 14.8125 C-69.60598032 9.89364118 -69.60598032 9.89364118 -72 7 C-72.4375 3.625 -72.4375 3.625 -72 1 C-71.608125 1.53625 -71.21625 2.0725 -70.8125 2.625 C-66.3441577 8.95946514 -66.3441577 8.95946514 -60 13 C-57.34547058 13.3494285 -54.78920269 13.5984582 -52.125 13.75 C-51.08279297 13.83314453 -51.08279297 13.83314453 -50.01953125 13.91796875 C-45.50793735 14.19835029 -42.19242613 13.61292773 -38 12 C-31.61306975 10.61783708 -26.24466421 11.21370126 -20 13 C-20 14.65 -20 16.3 -20 18 C-19.01 18.33 -18.02 18.66 -17 19 C-16.94714844 18.25363281 -16.89429688 17.50726563 -16.83984375 16.73828125 C-15.68585446 12.97573942 -13.895168 12.17669976 -10.5625 10.1875 C-9.57378906 9.58292969 -8.58507813 8.97835937 -7.56640625 8.35546875 C-5 7 -5 7 -3 7 C-3 6.34 -3 5.68 -3 5 C-3.99 5 -4.98 5 -6 5 C-6 4.34 -6 3.68 -6 3 C-5.195625 2.690625 -4.39125 2.38125 -3.5625 2.0625 C-1.10919595 1.23664655 -1.10919595 1.23664655 0 0 Z " fill="#E1D6CC" transform="translate(72,80)"/>
<path d="M0 0 C0.66 0 1.32 0 2 0 C2 1.32 2 2.64 2 4 C2.99 4.33 3.98 4.66 5 5 C5.84375 7.37109375 5.84375 7.37109375 6.5 10.4375 C7.59510361 15.30462714 8.88652522 20.00993027 10.44921875 24.74609375 C11.05723303 27.23420892 11.0945124 29.44816532 11 32 C6.44007546 31.44060405 3.45017117 29.60545541 -0.375 27.125 C-4.82948962 24.24393392 -9.09930513 21.97268477 -14 20 C-13.9685791 20.84183838 -13.9371582 21.68367676 -13.90478516 22.55102539 C-13.80195728 25.70246114 -13.72703652 28.85303671 -13.67041016 32.00561523 C-13.64040705 33.36462697 -13.59958815 34.72344781 -13.54736328 36.08178711 C-13.07012922 48.82206502 -13.07012922 48.82206502 -16.90625 53.28125 C-17.9190291 54.20809633 -18.94840653 55.11743737 -20 56 C-21.0161846 57.32103998 -22.02615879 58.64744276 -23 60 C-23.3125 57.3125 -23.3125 57.3125 -23 54 C-21.37550757 52.29220027 -19.70779973 50.62449243 -18 49 C-16.9815282 45.37380551 -16.81826867 41.79462732 -16.68359375 38.04296875 C-16.64169922 36.93115234 -16.59980469 35.81933594 -16.55664062 34.67382812 C-16.49766602 32.9480957 -16.49766602 32.9480957 -16.4375 31.1875 C-16.37272461 29.43276367 -16.37272461 29.43276367 -16.30664062 27.64257812 C-16.20081721 24.76182969 -16.09873175 21.88099877 -16 19 C-11.58029143 17.79206105 -11.58029143 17.79206105 -9.01123047 18.71264648 C-8.38619629 19.09493408 -7.76116211 19.47722168 -7.1171875 19.87109375 C-6.42496094 20.28037109 -5.73273437 20.68964844 -5.01953125 21.11132812 C-4.31183594 21.54896484 -3.60414062 21.98660156 -2.875 22.4375 C-1.45910886 23.29596373 -0.03995783 24.14908001 1.3828125 24.99609375 C2.00559082 25.37950928 2.62836914 25.7629248 3.27001953 26.15795898 C5.12890315 27.21882298 5.12890315 27.21882298 8 27 C6.5552349 19.77617449 4.40365078 12.95744229 2 6 C1.33124383 4.00069771 0.66399822 2.0008875 0 0 Z " fill="#E1D6CC" transform="translate(23,16)"/>
<path d="M0 0 C0 0.66 0 1.32 0 2 C-2.99460603 3.81782659 -6.07966443 5.42015446 -9.1796875 7.05078125 C-12.26222305 9.18123172 -13.03321104 10.44490896 -14 14 C-15.32 13.67 -16.64 13.34 -18 13 C-17.67 11.35 -17.34 9.7 -17 8 C-19.475 7.01 -19.475 7.01 -22 6 C-21.27734375 4.0390625 -21.27734375 4.0390625 -20 2 C-17.94140625 1.4609375 -17.94140625 1.4609375 -15.5625 1.375 C-9.32951386 1.10801872 -6.60148772 -1.0822111 0 0 Z " fill="#9B9490" transform="translate(69,85)"/>
<path d="M0 0 C2.9989133 1.43455989 5.77947671 3.0573232 8.5625 4.875 C9.32691406 5.36742188 10.09132813 5.85984375 10.87890625 6.3671875 C13.09061012 8.06975144 14.5323572 9.63100744 16 12 C15.8089857 15.82028595 14.74228166 18.34617904 12 21 C7.96539182 23.0479356 3.54496877 24.85985896 -1 24 C-4.2876691 21.83312718 -5.74280103 20.77159691 -7 17 C-7.60784745 12.59310598 -7.80774512 10.30450836 -5.4375 6.4765625 C-3.69224307 4.24573005 -1.90304249 2.0972305 0 0 Z M1 3 C-1.5697381 4.60608631 -3.19610494 5.63663603 -5 8 C-5.70149196 11.41501511 -5.7452875 14.59132074 -5 18 C-3.51382096 20.01469864 -2.41975024 20.83365134 -0.09765625 21.75390625 C3.90061315 22.22297696 7.49747014 20.87066935 11 19 C13.13082602 15.99795634 13.13082602 15.99795634 14 13 C10.67275636 8.59629518 8.19736578 6.19444333 3 4 C2.34 3.67 1.68 3.34 1 3 Z " fill="#E1D6CC" transform="translate(19,66)"/>
<path d="M0 0 C2.81042113 0.29073322 3.83347282 0.81563062 5.75 2.9375 C7.52950996 7.29729941 7.24370596 11.35153438 7 16 C8.32 16.33 9.64 16.66 11 17 C9.02 17.99 7.04 18.98 5 20 C3.5676644 17.1353288 4.42138451 15.08594927 5 12 C5 11.34 5 10.68 5 10 C2.69 11.32 0.38 12.64 -2 14 C-1.979375 13.071875 -1.95875 12.14375 -1.9375 11.1875 C-1.84230396 7.97713989 -1.84230396 7.97713989 -3 5 C-1.5625 2.3125 -1.5625 2.3125 0 0 Z " fill="#9E9894" transform="translate(68,64)"/>
<path d="M0 0 C2.4375 2.0625 2.4375 2.0625 4 4 C2.17531681 6.43291092 1.2433457 6.96214622 -1.8125 7.4375 C-5.72818857 6.90005255 -7.8880421 5.37101554 -11 3 C-10.67 2.01 -10.34 1.02 -10 0 C-6.19426871 -1.2685771 -3.89430952 -0.88817586 0 0 Z " fill="#FDFDFC" transform="translate(56,79)"/>
<path d="M0 0 C0.66 0 1.32 0 2 0 C2.1753878 3.85358472 2.28121462 7.70613439 2.375 11.5625 C2.45041016 13.19155273 2.45041016 13.19155273 2.52734375 14.85351562 C2.62501487 20.20914885 2.69123089 23.94321489 -0.90625 28.125 C-1.9230442 29.09865748 -2.95284189 30.05907533 -4 31 C-5.0161846 32.32103998 -6.02615879 33.64744276 -7 35 C-7.3125 32.3125 -7.3125 32.3125 -7 29 C-5.37550757 27.29220027 -3.70779973 25.62449243 -2 24 C-0.54732132 19.26063579 -0.6614057 14.10975485 -0.4375 9.1875 C-0.39431641 8.30384766 -0.35113281 7.42019531 -0.30664062 6.50976562 C-0.20108464 4.34000377 -0.10008929 2.1700209 0 0 Z " fill="#E1D6CC" transform="translate(7,41)"/>
<path d="M0 0 C4.41354781 4.1091652 7.13744342 7.41918025 7.5 13.5625 C7.38791196 17.11982042 7.28329691 17.70904642 4.6875 20.375 C3.800625 20.91125 2.91375 21.4475 2 22 C0.9826127 22.98230498 -0.02596117 23.97469597 -1 25 C0.875 17.25 0.875 17.25 2 15 C1.93731998 13.20507224 1.80228756 11.41225028 1.625 9.625 C1.53476563 8.66851562 1.44453125 7.71203125 1.3515625 6.7265625 C1.05243191 4.40663862 0.62881856 2.24882571 0 0 Z " fill="#6C6561" transform="translate(121,35)"/>
<path d="M0 0 C1.74520832 3.10259257 0.82497967 5.6273707 0.125 9 C-4.2893167 10.31236443 -4.2893167 10.31236443 -6.75 9 C-8.49520832 5.89740743 -7.57497967 3.3726293 -6.875 0 C-2.4606833 -1.31236443 -2.4606833 -1.31236443 0 0 Z " fill="#6D6662" transform="translate(65.875,70)"/>
<path d="M0 0 C0 3 0 3 -2.3125 5.625 C-6.88933651 9.66964622 -11.20013907 9.26814426 -17 9 C-18.093125 8.814375 -19.18625 8.62875 -20.3125 8.4375 C-22.96325185 8.00598226 -24.49156451 8.13169541 -27 9 C-25.35 7.02 -23.7 5.04 -22 3 C-18.125 4.875 -18.125 4.875 -17 6 C-12.66938538 6.65539953 -8.6173684 6.97668549 -4.78125 4.66015625 C-3.08081397 3.17924373 -1.50671304 1.67634298 0 0 Z " fill="#89827E" transform="translate(119,60)"/>
<path d="M0 0 C2.64 0 5.28 0 8 0 C8 0.66 8 1.32 8 2 C5.69 2.33 3.38 2.66 1 3 C3.31 3.66 5.62 4.32 8 5 C7.34 7.31 6.68 9.62 6 12 C4.68 11.67 3.36 11.34 2 11 C2.33 9.35 2.66 7.7 3 6 C0.525 5.01 0.525 5.01 -2 4 C-1.34 2.68 -0.68 1.36 0 0 Z " fill="#9F9995" transform="translate(49,87)"/>
<path d="M0 0 C13.69351532 -0.32864437 23.42507712 -0.5531912 34 9 C33.67 9.99 33.34 10.98 33 12 C31.2925002 10.71937515 29.62626404 9.38232443 28 8 C28 7.34 28 6.68 28 6 C19.06425213 1.96450096 9.67088083 1.52275032 0 1 C0 0.67 0 0.34 0 0 Z " fill="#E1D6CC" transform="translate(94,26)"/>
<path d="M0 0 C8.6829883 0.54859839 12.9179166 2.58002308 19 9 C19.33 9.33 19.66 9.66 20 10 C20.04080783 11.99958364 20.04254356 14.00045254 20 16 C18.090992 14.27280229 16.93662805 12.87642469 15.75 10.5625 C13.35111518 7.04984723 10.76923966 5.92017869 7 4 C7 3.34 7 2.68 7 2 C4.69 1.67 2.38 1.34 0 1 C0 0.67 0 0.34 0 0 Z " fill="#908A86" transform="translate(108,28)"/>
<path d="M0 0 C1.93166016 0.01740234 1.93166016 0.01740234 3.90234375 0.03515625 C5.19269531 0.04417969 6.48304687 0.05320312 7.8125 0.0625 C8.81152344 0.07410156 9.81054688 0.08570312 10.83984375 0.09765625 C10.83984375 0.42765625 10.83984375 0.75765625 10.83984375 1.09765625 C4.89984375 1.59265625 4.89984375 1.59265625 -1.16015625 2.09765625 C0.0012706 6.45300694 0.9168388 8.74385328 4.83984375 11.09765625 C3.84984375 11.42765625 2.85984375 11.75765625 1.83984375 12.09765625 C-0.78515625 10.59765625 -0.78515625 10.59765625 -3.16015625 8.09765625 C-4.03515625 4.41015625 -4.03515625 4.41015625 -4.16015625 1.09765625 C-3.16015625 0.09765625 -3.16015625 0.09765625 0 0 Z " fill="#E9B78B" transform="translate(45.16015625,75.90234375)"/>
<path d="M0 0 C1.875 1.375 1.875 1.375 2.6875 3.6875 C2.88177312 6.47208143 2.56768554 8.68122291 1.875 11.375 C3.855 11.375 5.835 11.375 7.875 11.375 C7.545 12.035 7.215 12.695 6.875 13.375 C4 13.0625 4 13.0625 0.875 12.375 C-1.5544516 8.7308226 -1.28679575 6.66258728 -1.125 2.375 C-2.445 1.715 -3.765 1.055 -5.125 0.375 C-2.125 -0.625 -2.125 -0.625 0 0 Z " fill="#9F9995" transform="translate(57.125,67.625)"/>
<path d="M0 0 C3.63 0.33 7.26 0.66 11 1 C11.33 2.65 11.66 4.3 12 6 C8.7 5.67 5.4 5.34 2 5 C1.34 3.35 0.68 1.7 0 0 Z " fill="#9F9995" transform="translate(42,55)"/>
<path d="M0 0 C0.88558594 0.33064453 0.88558594 0.33064453 1.7890625 0.66796875 C2.1190625 1.98796875 2.4490625 3.30796875 2.7890625 4.66796875 C1.1390625 4.00796875 -0.5109375 3.34796875 -2.2109375 2.66796875 C-3.29375 3.78171875 -3.29375 3.78171875 -4.3984375 4.91796875 C-11.30184659 11.66796875 -11.30184659 11.66796875 -15.2109375 11.66796875 C-15.2109375 11.00796875 -15.2109375 10.34796875 -15.2109375 9.66796875 C-13.82149218 8.71907926 -12.42497061 7.77902834 -10.99609375 6.890625 C-8.39295549 5.10773162 -6.18362561 2.93491755 -3.921875 0.7421875 C-2.2109375 -0.33203125 -2.2109375 -0.33203125 0 0 Z " fill="#4A4644" transform="translate(99.2109375,61.33203125)"/>
<path d="M0 0 C0.99 0 1.98 0 3 0 C3.12117188 0.73605469 3.24234375 1.47210938 3.3671875 2.23046875 C3.53476562 3.20628906 3.70234375 4.18210937 3.875 5.1875 C4.03742187 6.15042969 4.19984375 7.11335937 4.3671875 8.10546875 C4.98039517 10.91032604 5.85666343 13.37224747 7 16 C5.1875 15.5 5.1875 15.5 3 14 C0.51999254 9.47580229 -0.38705417 5.16072226 0 0 Z " fill="#9A938D" transform="translate(16,0)"/>
<path d="M0 0 C0.66 0 1.32 0 2 0 C2 1.32 2 2.64 2 4 C2.99 4.33 3.98 4.66 5 5 C5.9140625 7.51171875 5.9140625 7.51171875 6.625 10.6875 C6.86476563 11.72261719 7.10453125 12.75773437 7.3515625 13.82421875 C7.97431893 16.87422463 8.51145998 19.92588495 9 23 C5.45173662 17.67760494 3.67206255 12.13089602 2 6 C1.34427209 3.99638693 0.68124706 1.99508067 0 0 Z " fill="#8F8985" transform="translate(23,16)"/>
<path d="M0 0 C1.7882302 2.68234531 2.85190382 4.95514077 4 7.9375 C5.20033981 11.04619256 6.46276424 14.04219369 8 17 C7.34 17.66 6.68 18.32 6 19 C2.0941748 13.04826636 -0.54143311 7.21910808 0 0 Z " fill="#4A4643" transform="translate(29,25)"/>
<path d="M0 0 C0.66 0.33 1.32 0.66 2 1 C0.125 5.875 0.125 5.875 -1 7 C-2.66617115 7.04063832 -4.33388095 7.042721 -6 7 C-4.60667426 3.63279613 -3.0210714 2.0140476 0 0 Z " fill="#FDFDFC" transform="translate(71,76)"/>
<path d="M0 0 C1.32 1.65 2.64 3.3 4 5 C3.01 5.495 3.01 5.495 2 6 C2.28875 6.721875 2.5775 7.44375 2.875 8.1875 C3.91666667 10.79166667 4.95833333 13.39583333 6 16 C5.34 16 4.68 16 4 16 C0.2188595 10.55515768 -0.12605926 6.55508163 0 0 Z " fill="#3D3A38" transform="translate(19,0)"/>
<path d="M0 0 C-0.33 0.99 -0.66 1.98 -1 3 C-4.3125 3.6875 -4.3125 3.6875 -8 4 C-9.9375 2.5625 -9.9375 2.5625 -11 1 C-3.375 0 -3.375 0 0 0 Z " fill="#6C6561" transform="translate(60,88)"/>
<path d="M0 0 C2.125 0.375 2.125 0.375 4 1 C-1.16923077 5.06153846 -1.16923077 5.06153846 -5.375 4.75 C-6.24125 4.5025 -7.1075 4.255 -8 4 C-8.33 3.01 -8.66 2.02 -9 1 C-7.88625 1.20625 -6.7725 1.4125 -5.625 1.625 C-3.830625 1.810625 -3.830625 1.810625 -2 2 C-1.34 1.34 -0.68 0.68 0 0 Z " fill="#7F7975" transform="translate(49,24)"/>
<path d="M0 0 C0 0.66 0 1.32 0 2 C-8.42857143 4.28571429 -8.42857143 4.28571429 -13 4 C-8.32733754 0.41762545 -5.97976363 -0.11073636 0 0 Z " fill="#8B8581" transform="translate(64,20)"/>
<path d="M0 0 C2.49361571 1.20381448 4.68143083 2.45428722 7 4 C7.1875 7.125 7.1875 7.125 7 10 C3.72713318 7.2180632 2.03572303 3.72045933 0 0 Z " fill="#9F9995" transform="translate(121,34)"/>
<path d="M0 0 C3.28788824 3.11016455 5.83735988 6.01618925 8 10 C4.20401451 8.50871999 2.28279601 6.34266559 0 3 C0 2.01 0 1.02 0 0 Z " fill="#8D8682" transform="translate(33,15)"/>
<path d="M0 0 C2.25 0.25 2.25 0.25 4 1 C4.33 2.32 4.66 3.64 5 5 C2.525 4.01 2.525 4.01 0 3 C-0.33 3.66 -0.66 4.32 -1 5 C-1.99 4.67 -2.98 4.34 -4 4 C-2.25 1.9375 -2.25 1.9375 0 0 Z " fill="#363433" transform="translate(97,61)"/>
<path d="M0 0 C0.99 0.33 1.98 0.66 3 1 C2.34 2.65 1.68 4.3 1 6 C0.34 6 -0.32 6 -1 6 C-1.625 4.125 -1.625 4.125 -2 2 C-1.34 1.34 -0.68 0.68 0 0 Z " fill="#393736" transform="translate(62,74)"/>
<path d="M0 0 C1.32 0.33 2.64 0.66 4 1 C4 2.98 4 4.96 4 7 C1 5 1 5 0.3125 2.375 C0.209375 1.59125 0.10625 0.8075 0 0 Z " fill="#E1D6CC" transform="translate(15,52)"/>
<path d="M0 0 C-1.24079227 3.72237682 -3.14887434 5.35749329 -6 8 C-6.99 8.495 -6.99 8.495 -8 9 C-6.68994234 5.06982701 -4.75047804 0 0 0 Z " fill="#9F9995" transform="translate(128,51)"/>
</svg>
