<?xml version="1.0" encoding="UTF-8"?>
<svg version="1.1" xmlns="http://www.w3.org/2000/svg" width="128" height="128">
<path d="M0 0 C42.24 0 84.48 0 128 0 C128 42.24 128 84.48 128 128 C85.76 128 43.52 128 0 128 C0 85.76 0 43.52 0 0 Z " fill="#F1D53E" transform="translate(0,0)"/>
<path d="M0 0 C10.36749672 -1.2078637 10.36749672 -1.2078637 14.02734375 1.5 C17.39680625 5.88973231 19.31754171 10.76568532 21 16 C23.93958565 15.02013812 25.68324605 14.39036579 27.6640625 11.94921875 C30.9613854 9.19777372 34.02614973 9.438089 38.125 9.5625 C39.26569946 9.58449463 39.26569946 9.58449463 40.42944336 9.60693359 C52.0989666 9.99703583 60.16583133 13.67595843 68.1875 22.1875 C75.72563435 31.72891937 77.1666051 41.07899527 76.25244141 52.91162109 C75.40217341 59.94565635 72.77972442 65.79853519 68 71 C67.057047 72.30858784 66.12007949 73.62149924 65.1875 74.9375 C62.63785806 78.37594842 59.87420467 81.0358166 56.515625 83.67578125 C54.7335364 85.11628024 54.7335364 85.11628024 53 88 C51.01363702 88.70626239 49.01151741 89.36893571 47 90 C46.113125 90.556875 45.22625 91.11375 44.3125 91.6875 C43.549375 92.120625 42.78625 92.55375 42 93 C39 92 39 92 37.375 89.1875 C35.31344215 84.02820863 35.26146717 78.49081049 35 73 C34.01 73 33.02 73 32 73 C30.640625 71.3828125 30.640625 71.3828125 29.25 69.125 C27.10631937 65.71000506 24.86135546 62.47124582 22.4375 59.25 C19.15094419 54.58801334 17.13796279 49.82930592 15.23828125 44.46875 C13.27562665 38.97084059 11.04847625 33.58052178 8.85131836 28.17285156 C7.66361468 25.24342914 6.48747987 22.30954609 5.3125 19.375 C4.90966797 18.39015625 4.50683594 17.4053125 4.09179688 16.390625 C1.88627565 10.84911438 0.4175092 5.95835165 0 0 Z " fill="#B47B41" transform="translate(20,0)"/>
<path d="M0 0 C5.29849982 3.23387563 9.15724557 7.19655697 13 12 C13.70125 12.515625 14.4025 13.03125 15.125 13.5625 C17.5224064 15.40051157 18.65635828 17.31271655 20 20 C20 20.99 20 21.98 20 23 C20.66 23 21.32 23 22 23 C22 23.66 22 24.32 22 25 C23.32 25.33 24.64 25.66 26 26 C26 38.21 26 50.42 26 63 C25.01 63.33 24.02 63.66 23 64 C22.773125 65.27875 22.54625 66.5575 22.3125 67.875 C21.06359628 74.42133699 17.1201549 78.92846388 13 84 C12.39414063 84.75925781 11.78828125 85.51851563 11.1640625 86.30078125 C4.73450758 94.02497506 -1.55872842 97.47653305 -11.01171875 100.88671875 C-13.90013335 101.89017268 -13.90013335 101.89017268 -16.09765625 103.10546875 C-18.35473651 104.16680629 -20.27239932 104.40638817 -22.75 104.625 C-23.94882813 104.73714844 -23.94882813 104.73714844 -25.171875 104.8515625 C-25.77515625 104.90054688 -26.3784375 104.94953125 -27 105 C-27 104.34 -27 103.68 -27 103 C-27.8353125 102.7215625 -27.8353125 102.7215625 -28.6875 102.4375 C-32.55696205 100.03215873 -35.35208941 96.42262222 -36.5390625 91.984375 C-36.7740906 90.33246319 -36.89803496 88.66542906 -37 87 C-36.31292969 86.52949219 -35.62585938 86.05898437 -34.91796875 85.57421875 C-34.01691406 84.95160156 -33.11585937 84.32898438 -32.1875 83.6875 C-30.84751953 82.76517578 -30.84751953 82.76517578 -29.48046875 81.82421875 C-27.43011066 80.3163176 -25.74225767 78.8361518 -24 77 C-20.33333333 74 -20.33333333 74 -18 74 C-17.72671875 73.401875 -17.4534375 72.80375 -17.171875 72.1875 C-16.03839524 70.07167111 -14.90826864 68.71176118 -13.25 67 C-9.06768355 62.27439244 -6.65551059 56.67095484 -4 51 C-3.64035156 50.37609375 -3.28070313 49.7521875 -2.91015625 49.109375 C0.65245121 40.85268818 0.68496917 30.62792522 -2.078125 22.234375 C-2.9639835 19.98935097 -2.9639835 19.98935097 -4.109375 17.890625 C-5 16 -5 16 -5 13 C-5.61875 12.7525 -6.2375 12.505 -6.875 12.25 C-9.43898664 10.74177256 -10.11257047 9.82363942 -11 7 C-11 4.4375 -11 4.4375 -10 2 C-6.31909387 -0.45393742 -4.17949252 -1.50748872 0 0 Z " fill="#F7CB1F" transform="translate(102,11)"/>
<path d="M0 0 C1.88868702 3.45262242 3.00913377 7.00174975 4.1875 10.75 C6.26614706 17.20365085 8.78269639 23.37409953 11.58862305 29.54394531 C13.29746429 33.31163726 14.7557598 37.05549384 16 41 C18.69234122 49.43600247 22.16903355 56.25187105 27.52148438 63.2421875 C29.92226456 66.38422239 31.74387033 69.23862847 33 73 C33.99 73 34.98 73 36 73 C37.55774936 76.11549872 37.56480622 79.6044388 37 83 C36.54625 83.45117188 36.0925 83.90234375 35.625 84.3671875 C33.33353563 86.66966853 32.77088334 89.12125532 31.75 92.1875 C28.89915421 99.82946872 25.22105215 105.32829374 18.1875 109.625 C13.25584958 111.78918057 8.9325661 110.73306377 4 109 C-2.92722607 105.67493149 -8.34511309 99.14546422 -11.17578125 92.0546875 C-15.30406679 76.44155072 -13.50321989 58.83484771 -8.95703125 43.4765625 C-7.72798491 39.01186356 -7.29490422 34.55400002 -6.87695312 29.9609375 C-6.35306258 25.07129241 -5.09426946 21.38255844 -3 17 C-1.15625 17.109375 -1.15625 17.109375 1 18 C2.34375 20.765625 2.34375 20.765625 3.5 24.25 C6.0574287 31.90281846 6.0574287 31.90281846 12 37 C11.70754395 36.33991943 11.41508789 35.67983887 11.11376953 34.99975586 C9.77947685 31.98105761 8.45219079 28.95932697 7.125 25.9375 C6.66480469 24.89916016 6.20460938 23.86082031 5.73046875 22.79101562 C2.33140839 15.03229089 -0.35159724 8.61413249 0 0 Z " fill="#F2D43B" transform="translate(19,0)"/>
<path d="M0 0 C6.27 0 12.54 0 19 0 C19.37125 2.041875 19.7425 4.08375 20.125 6.1875 C21.48728297 12.61617823 23.65501036 18.02321751 26.5703125 23.93359375 C28.54208615 28.16267111 29.83940333 32.48996205 31 37 C27.19085478 35.73028493 26.27254852 34.27909069 24 31 C23.00347372 28.76306075 22.08688416 26.48893145 21.25 24.1875 C20.82203125 23.02605469 20.3940625 21.86460938 19.953125 20.66796875 C19.63859375 19.78753906 19.3240625 18.90710938 19 18 C18.01 18 17.02 18 16 18 C13.95761875 25.43426774 12.54205907 32.76172822 11.53515625 40.40234375 C10.81566075 45.23924418 9.76962153 49.9799511 8.68359375 54.74609375 C5.8723454 68.12763592 4.49615297 85.66243882 11.69921875 97.8828125 C16.72596667 104.6575651 21.56876894 107.85399197 29.625 109.9375 C33.5730503 110.01061204 35.59893954 108.8982663 39 107 C39.99 107.495 39.99 107.495 41 108 C41.45703125 110.29296875 41.45703125 110.29296875 41.8125 113.1875 C42.68873247 118.6799816 44.23141948 121.03307314 48 125 C48 125.99 48 126.98 48 128 C32.16 128 16.32 128 0 128 C0 85.76 0 43.52 0 0 Z " fill="#FBFBF9" transform="translate(0,0)"/>
<path d="M0 0 C0 17.82 0 35.64 0 54 C-22.44 54 -44.88 54 -68 54 C-66.19498907 50.38997813 -65.45834887 49.28788311 -62.5 46.9375 C-60.06335088 44.99127814 -58.77737879 43.66606818 -57 41 C-55.72125 41.226875 -54.4425 41.45375 -53.125 41.6875 C-41.58739163 42.95536905 -30.70699444 36.0340042 -21.81640625 29.40625 C-13.59248232 22.3799849 -7.2548636 13.88986099 -3.875 3.5625 C-2.65853659 0 -2.65853659 0 0 0 Z " fill="#FBFBF9" transform="translate(128,74)"/>
<path d="M0 0 C30.03 0 60.06 0 91 0 C91 10.89 91 21.78 91 33 C87.74722406 29.74722406 85.32560019 27.22823866 82.75 23.625 C79.62398096 19.52295318 76.22512669 16.53361586 72.06640625 13.5078125 C70 12 70 12 67.3125 9.5625 C64.16322639 7.43461242 62.7552198 7.35005811 59 8 C56.59796424 9.15363638 54.32920534 10.42737293 52.05078125 11.80859375 C50 13 50 13 47 14 C44.87109375 13.07421875 44.87109375 13.07421875 42.4375 11.6875 C33.31375353 6.94789144 23.21541338 5.69778765 13 7 C10.32649925 8.39002666 9.04634955 9.72627828 7 12 C6.34 12 5.68 12 5 12 C3.35 8.04 1.7 4.08 0 0 Z " fill="#FCFCFA" transform="translate(37,0)"/>
<path d="M0 0 C0.66 0 1.32 0 2 0 C4.42673782 5.21071115 6.52029952 10.40314367 8.2890625 15.87109375 C9.78968905 20.36472821 11.47795386 24.27493591 14.25 28.125 C16 31 16 31 15.859375 33.44921875 C14.81212749 36.55763977 13.54833611 37.66248291 11 39.6875 C8.03807329 41.96879293 8.03807329 41.96879293 6 45 C4.06440687 45.13504138 2.126128 45.23201129 0.1875 45.3125 C-1.43091797 45.39951172 -1.43091797 45.39951172 -3.08203125 45.48828125 C-6 45 -6 45 -7.69921875 42.73046875 C-8.12847656 41.82941406 -8.55773438 40.92835937 -9 40 C-9.52335937 39.34386719 -10.04671875 38.68773437 -10.5859375 38.01171875 C-13.34401138 34.08793961 -14.17545814 29.75036665 -14 25 C-12.58856267 22.46990027 -10.91277227 20.5981305 -8.953125 18.46875 C-5.93802847 14.65766799 -4.6199673 10.37369398 -3.04296875 5.8203125 C-2 3 -2 3 0 0 Z " fill="#14A3C5" transform="translate(54,83)"/>
<path d="M0 0 C1.88868702 3.45262242 3.00913377 7.00174975 4.1875 10.75 C6.26614706 17.20365085 8.78269639 23.37409953 11.58862305 29.54394531 C13.29739807 33.31149126 14.71064387 37.07233953 16 41 C17.05534865 43.37173761 18.16724146 45.70790804 19.29296875 48.046875 C19.64294922 49.01367188 19.64294922 49.01367188 20 50 C19.505 50.99 19.505 50.99 19 52 C16.63574333 50.06560818 15.97874374 48.93056288 15.0625 45.9375 C14.34681229 42.90240715 14.34681229 42.90240715 12.1171875 42.0625 C5.70929148 38.8467293 2.67753324 29.42607978 0.078125 23.1875 C-0.80120611 20.84749086 -0.80120611 20.84749086 -3 20 C-3.10022461 20.73299316 -3.20044922 21.46598633 -3.30371094 22.22119141 C-3.78091176 25.68982457 -4.2645165 29.15751626 -4.75 32.625 C-4.92684326 33.89359863 -5.10368652 35.16219727 -5.28588867 36.46923828 C-6.27263769 43.39866041 -7.39122892 50.26644304 -8.7644043 57.12939453 C-11.53596089 71.01310296 -12.36648938 84.5192021 -5.125 97.3125 C-1.03147306 102.48960761 2.29317747 106.42274818 9.0703125 107.25390625 C13.71319407 107.49785426 17.5575519 107.1021998 21.5 104.51953125 C26.14537459 99.81367001 27.19743077 92.50095864 28.43359375 86.2421875 C29.61319706 81.57258544 31.85448918 77.29102163 34 73 C34.66 73 35.32 73 36 73 C37.55774936 76.11549872 37.56480622 79.6044388 37 83 C36.54625 83.45117188 36.0925 83.90234375 35.625 84.3671875 C33.33353563 86.66966853 32.77088334 89.12125532 31.75 92.1875 C28.89915421 99.82946872 25.22105215 105.32829374 18.1875 109.625 C13.25584958 111.78918057 8.9325661 110.73306377 4 109 C-2.92722607 105.67493149 -8.34511309 99.14546422 -11.17578125 92.0546875 C-15.30406679 76.44155072 -13.50321989 58.83484771 -8.95703125 43.4765625 C-7.72798491 39.01186356 -7.29490422 34.55400002 -6.87695312 29.9609375 C-6.35306258 25.07129241 -5.09426946 21.38255844 -3 17 C-1.15625 17.109375 -1.15625 17.109375 1 18 C2.34375 20.765625 2.34375 20.765625 3.5 24.25 C6.0574287 31.90281846 6.0574287 31.90281846 12 37 C11.70754395 36.33991943 11.41508789 35.67983887 11.11376953 34.99975586 C9.77947685 31.98105761 8.45219079 28.95932697 7.125 25.9375 C6.66480469 24.89916016 6.20460938 23.86082031 5.73046875 22.79101562 C2.33140839 15.03229089 -0.35159724 8.61413249 0 0 Z " fill="#F1DE74" transform="translate(19,0)"/>
<path d="M0 0 C4.53248834 0 6.43673087 0.46233401 9.75 3.625 C13.35403903 8.59690863 15.90788542 13.77449995 15 20 C12.18626156 26.40686922 12.18626156 26.40686922 9 28 C5.38848203 28.40127977 3.52768738 28.31409963 0.375 26.4375 C-3.46704917 22.49434427 -5.70010034 19.06181017 -6.5 13.5625 C-5.75992403 8.28945872 -3.78743287 3.78743287 0 0 Z " fill="#F1DE74" transform="translate(21,62)"/>
<path d="M0 0 C3 1 3 1 4.16796875 2.99609375 C4.50441406 3.80175781 4.84085938 4.60742188 5.1875 5.4375 C5.70376953 6.64212891 5.70376953 6.64212891 6.23046875 7.87109375 C7 10 7 10 7 12 C9.51922448 10.92033237 10.94093117 10.07029458 12.7265625 7.9453125 C17.16734978 4.14546359 23.46349659 5.60968251 29 6 C35.76596856 6.69175869 40.92674444 8.70575729 46.7734375 12.171875 C48.96617198 13.25863664 48.96617198 13.25863664 51.046875 12.2734375 C51.69140625 11.85320313 52.3359375 11.43296875 53 11 C61.85935389 6.08610736 61.85935389 6.08610736 67 7 C68.70001564 8.29054344 70.36270568 9.63075829 72 11 C72.83917969 11.62777344 73.67835937 12.25554688 74.54296875 12.90234375 C79.95962969 17.07085239 84.5064495 21.43534959 88.6875 26.8125 C89.12151123 27.36349365 89.55552246 27.9144873 90.00268555 28.48217773 C92.40411895 31.69307206 93 32.84586351 93 37 C91.02 36.505 91.02 36.505 89 36 C89 35.34 89 34.68 89 34 C88.34 34 87.68 34 87 34 C86.69707031 33.39671875 86.39414063 32.7934375 86.08203125 32.171875 C83.56027879 27.36114723 81.45428867 24.22935928 77 21 C76.195625 20.01 75.39125 19.02 74.5625 18 C71.88081465 14.86046593 69.67720137 12.87612315 66 11 C62.04198537 11.15521626 60.31448487 11.79034342 57 14 C57.42258297 18.18784627 57.42258297 18.18784627 59.375 21.8125 C65.57740672 30.16189366 66.37619589 42.39475761 65.484375 52.3359375 C65.01586269 54.91275519 64.30353294 56.74552909 63 59 C62.01 58.505 62.01 58.505 61 58 C61.33 56.845 61.66 55.69 62 54.5 C64.62982353 43.71583158 61.8864492 34.41125191 56.3046875 25.03125 C52.13810097 18.54434882 47.87240781 15.20864073 41 12 C40.34515625 11.67773438 39.6903125 11.35546875 39.015625 11.0234375 C33.90386214 8.90344282 28.77975895 8.6336467 23.3125 8.5 C22.22485352 8.4539563 22.22485352 8.4539563 21.11523438 8.40698242 C17.02528299 8.40557404 14.80868544 8.80432741 11.73046875 11.59375 C9 14 9 14 6.7265625 14.046875 C4.49916203 12.69632449 4.14478703 11.7170283 3.375 9.25 C3.13910156 8.53328125 2.90320312 7.8165625 2.66015625 7.078125 C2.44230469 6.39234375 2.22445312 5.7065625 2 5 C1.33933281 3.33094605 0.67561748 1.6630584 0 0 Z " fill="#F1DE75" transform="translate(35,0)"/>
<path d="M0 0 C0.99 0 1.98 0 3 0 C3.22042969 1.28970703 3.22042969 1.28970703 3.4453125 2.60546875 C4.92745666 10.41653883 7.04515919 16.78682771 10.5703125 23.93359375 C12.54208615 28.16267111 13.83940333 32.48996205 15 37 C11.19085478 35.73028493 10.27254852 34.27909069 8 31 C7.00347372 28.76306075 6.08688416 26.48893145 5.25 24.1875 C4.82203125 23.02605469 4.3940625 21.86460938 3.953125 20.66796875 C3.63859375 19.78753906 3.3240625 18.90710938 3 18 C2.01 18 1.02 18 0 18 C-2.04238125 25.43426774 -3.45794093 32.76172822 -4.46484375 40.40234375 C-5.18433925 45.23924418 -6.23037847 49.9799511 -7.31640625 54.74609375 C-10.1276546 68.12763592 -11.50384703 85.66243882 -4.30078125 97.8828125 C0.72596667 104.6575651 5.56876894 107.85399197 13.625 109.9375 C17.5730503 110.01061204 19.59893954 108.8982663 23 107 C23.99 107.495 23.99 107.495 25 108 C23.69194061 110.61611878 22.65014447 110.76358383 19.9375 111.75 C14.09549392 113.56176138 10.45544272 112.5079525 5.00390625 110.12890625 C-2.26141221 106.26256719 -7.22086982 99.58170649 -10.16796875 91.9921875 C-14.63081042 75.27224545 -12.4761021 55.0877333 -6.921875 38.84765625 C-5.71728957 35.12671228 -5.46033964 31.50584873 -5.125 27.625 C-4.57157047 21.99627502 -3.82357499 17.78602166 -0.8203125 12.9140625 C0.90557011 8.88700307 0.28401959 4.29185155 0 0 Z " fill="#F1E8B5" transform="translate(16,0)"/>
<path d="M0 0 C1.86328125 0.26171875 1.86328125 0.26171875 4 1 C5.23046875 2.70703125 5.23046875 2.70703125 6.1875 4.8125 C6.51105469 5.49957031 6.83460937 6.18664062 7.16796875 6.89453125 C7.96655063 8.91535582 8.52865864 10.88134438 9 13 C11.86851487 12.57503483 12.98444907 12.01464284 15.140625 9.984375 C18.78595815 7.45455363 21.77932241 7.39004009 26.0625 7.5 C26.81329834 7.51208496 27.56409668 7.52416992 28.33764648 7.53662109 C40.39302156 7.96124205 49.47238653 12.22113137 57.75 20.875 C63.6014778 29.00205249 68.58847865 39.78078736 67 50 C65.1829875 57.7662631 62.76445368 64.58580475 58 71 C57.46246094 71.75023438 56.92492187 72.50046875 56.37109375 73.2734375 C52.69231457 78.22785599 48.82587891 82.15899434 44 86 C43.01 85.505 43.01 85.505 42 85 C42.4846875 84.62230469 42.969375 84.24460937 43.46875 83.85546875 C52.25173725 76.64328499 60.62442654 66.38954733 63 55 C64.09252912 41.17051744 62.50502631 31.64596406 53.625 20.5 C47.11543545 13.5889645 38.02795001 10.84167789 28.69311523 10.51953125 C20.47566358 10.22109251 20.47566358 10.22109251 13.4375 14 C12.633125 14.99 11.82875 15.98 11 17 C9.09375 16.2734375 9.09375 16.2734375 7 15 C6.09375 12.9765625 6.09375 12.9765625 5.5 10.625 C4.3678992 6.72832154 3.12297447 4.69221937 0 2 C0 1.34 0 0.68 0 0 Z " fill="#CAAC73" transform="translate(32,0)"/>
<path d="M0 0 C3.2761423 0.27301186 4.76503806 0.79114494 7.25 3 C10.0685656 7.83182675 10.5583652 12.5634973 9.3125 18 C8 20 8 20 6.1875 21.0625 C2.76590389 20.96474011 1.36768964 19.36768964 -1 17 C-3.04576517 13.29813922 -3.42779904 10.19243063 -3 6 C-1.5 2.625 -1.5 2.625 0 0 Z " fill="#FCFCFA" transform="translate(22,66)"/>
<path d="M0 0 C0.66 0.268125 1.32 0.53625 2 0.8125 C1 3.8125 1 3.8125 -1.5 6.1875 C-4.20346614 9.02613945 -4.69989145 10.00735012 -5 13.8125 C-4.20523217 16.21691704 -4.20523217 16.21691704 -2.8125 18.4375 C-2.38582031 19.19289063 -1.95914063 19.94828125 -1.51953125 20.7265625 C0.09196265 22.93874179 1.81772286 24.19565227 4 25.8125 C4 26.4725 4 27.1325 4 27.8125 C11.25367426 26.27950699 17.56041719 24.3512942 24.0390625 20.703125 C25.00972656 20.26226562 25.00972656 20.26226562 26 19.8125 C26.66 20.1425 27.32 20.4725 28 20.8125 C19.87693708 25.62002703 12.64883235 29.02225723 3 28.8125 C-1.87905655 27.11543685 -4.49851191 23.18198245 -7 18.8125 C-9.25988022 14.04327226 -11 10.13705656 -11 4.8125 C-7.83532848 1.75776744 -4.41649708 -0.27603107 0 0 Z " fill="#EED558" transform="translate(71,88.1875)"/>
<path d="M0 0 C3 1 3 1 4.16796875 2.99609375 C4.50441406 3.80175781 4.84085938 4.60742188 5.1875 5.4375 C5.70376953 6.64212891 5.70376953 6.64212891 6.23046875 7.87109375 C7 10 7 10 7 12 C9.51922448 10.92033237 10.94093117 10.07029458 12.7265625 7.9453125 C17.16734978 4.14546359 23.46349659 5.60968251 29 6 C35.76596856 6.69175869 40.92674444 8.70575729 46.7734375 12.171875 C48.96617198 13.25863664 48.96617198 13.25863664 51.046875 12.2734375 C51.69140625 11.85320313 52.3359375 11.43296875 53 11 C61.91674082 6.05427736 61.91674082 6.05427736 67 7 C68.875 9 68.875 9 70 11 C69.41992188 10.89300781 68.83984375 10.78601562 68.2421875 10.67578125 C64.19481618 10.05465001 61.47529119 9.85571517 57.5 11.0625 C54.70410346 12.8291237 54.70410346 12.8291237 54.125 16.1875 C54.08375 17.115625 54.0425 18.04375 54 19 C53.45472656 18.68546875 52.90945312 18.3709375 52.34765625 18.046875 C42.76610031 12.60913727 34.75379192 8.83533799 23.625 8.625 C22.8825 8.58761719 22.14 8.55023438 21.375 8.51171875 C17.18970366 8.4451681 14.86897522 8.71770085 11.7109375 11.5859375 C9 14 9 14 6.7265625 14.046875 C4.49916203 12.69632449 4.14478703 11.7170283 3.375 9.25 C3.13910156 8.53328125 2.90320312 7.8165625 2.66015625 7.078125 C2.44230469 6.39234375 2.22445312 5.7065625 2 5 C1.33933281 3.33094605 0.67561748 1.6630584 0 0 Z " fill="#F1E9B8" transform="translate(35,0)"/>
<path d="M0 0 C0.66 0 1.32 0 2 0 C2 2.31 2 4.62 2 7 C1.01 7.33 0.02 7.66 -1 8 C-1.226875 9.27875 -1.45375 10.5575 -1.6875 11.875 C-2.93640372 18.42133699 -6.8798451 22.92846388 -11 28 C-11.60585937 28.75925781 -12.21171875 29.51851562 -12.8359375 30.30078125 C-16.47878773 34.67714657 -20.23390836 37.88745036 -25 41 C-25.66 40.67 -26.32 40.34 -27 40 C-24.82300265 37.03928361 -22.62150071 34.6354033 -19.75 32.375 C-12.30595112 26.19836461 -5.68841276 16.74060885 -3.4375 7.3125 C-2.21708185 2.21708185 -2.21708185 2.21708185 0 0 Z " fill="#F2D53C" transform="translate(126,67)"/>
<path d="M0 0 C0.66 0 1.32 0 2 0 C3 3 3 3 1.671875 5.70703125 C0.72054687 7.24423828 0.72054687 7.24423828 -0.25 8.8125 C-2.15820995 11.92319763 -3.99001932 14.9800146 -5.62109375 18.24609375 C-7 21 -7 21 -8.8125 23.25 C-10.71252796 27.65006475 -9.5202277 31.57087506 -8 36 C-6.0554473 38.82865928 -6.0554473 38.82865928 -4 41 C-3.25 43.3125 -3.25 43.3125 -3 45 C-3.99 45 -4.98 45 -6 45 C-7.5 42.75 -7.5 42.75 -9 40 C-9.73863281 39.08541016 -9.73863281 39.08541016 -10.4921875 38.15234375 C-13.29120831 34.15685031 -14.17891264 29.84389416 -14 25 C-12.58856267 22.46990027 -10.91277227 20.5981305 -8.953125 18.46875 C-5.93802847 14.65766799 -4.6199673 10.37369398 -3.04296875 5.8203125 C-2 3 -2 3 0 0 Z " fill="#7AC1C5" transform="translate(54,83)"/>
<path d="M0 0 C0.66 0 1.32 0 2 0 C3.55774936 3.11549872 3.56480622 6.6044388 3 10 C2.54625 10.45117188 2.0925 10.90234375 1.625 11.3671875 C-0.66646437 13.66966853 -1.22911666 16.12125532 -2.25 19.1875 C-4.48908489 25.30903484 -7.30530532 29.52177539 -12 34 C-12 31 -12 31 -10.1875 28.125 C-7.55808174 23.77031432 -6.82403141 19.16860016 -5.7890625 14.23828125 C-4.72538078 9.87297358 -3.02835994 5.99276259 -1 2 C-0.67 1.34 -0.34 0.68 0 0 Z " fill="#E5CF73" transform="translate(53,73)"/>
<path d="M0 0 C0.495 1.485 0.495 1.485 1 3 C0.34 3.66 -0.32 4.32 -1 5 C-1.69798039 6.66185806 -2.39428702 8.32446017 -3.078125 9.9921875 C-5.19875562 14.61084911 -8.18781636 18.78172454 -11 23 C-11.66 23 -12.32 23 -13 23 C-13.25523438 23.58910156 -13.51046875 24.17820312 -13.7734375 24.78515625 C-18.51231819 33.34230705 -30.23529265 39.31734985 -39 43 C-44.16612205 44.34768401 -52.07911102 45.46044449 -57 43 C-56.67 42.34 -56.34 41.68 -56 41 C-54.72125 41.226875 -53.4425 41.45375 -52.125 41.6875 C-40.58739163 42.95536905 -29.70699444 36.0340042 -20.81640625 29.40625 C-12.59248232 22.3799849 -6.2548636 13.88986099 -2.875 3.5625 C-2 1 -2 1 0 0 Z " fill="#F1E9B8" transform="translate(127,74)"/>
<path d="M0 0 C2.24039635 1.75335366 2.95195031 2.79873525 3.62109375 5.6015625 C4.06319064 9.56676141 3.91570114 13.28192938 3.625 17.25 C3.58117187 17.96929687 3.53734375 18.68859375 3.4921875 19.4296875 C3.13484172 24.73031656 3.13484172 24.73031656 2 27 C1.34 27 0.68 27 0 27 C-2.75909034 18.0329564 -3.23614823 8.89940765 0 0 Z " fill="#F8CB1E" transform="translate(11,60)"/>
<path d="M0 0 C2.125 -0.375 2.125 -0.375 5 0 C8.89655129 2.82952502 11.84671458 6.27152976 13 11 C13.47913725 16.27050976 12.66725027 19.44344746 10 24 C5.6274154 24.42868476 3.68919119 24.55135295 0.1875 21.75 C-3.26133965 17.41431587 -4.44324368 14.82488823 -4.3359375 9.10546875 C-3.76166628 5.50625727 -2.00568354 3.00852531 0 0 Z M1 2 C-1.40758736 6.21327788 -2.60801936 9.1358451 -2 14 C-0.41927121 18.03085841 1.06835069 20.9746049 5 23 C7.16666667 23.16666667 7.16666667 23.16666667 9 22 C11.47189232 18.23330694 11.21337983 14.52650167 10.609375 10.2265625 C9.57749125 6.45621803 7.89068988 4.6217885 5 2 C3.68 2 2.36 2 1 2 Z " fill="#F1E9B8" transform="translate(21,64)"/>
<path d="M0 0 C1.88868702 3.45262242 3.00913377 7.00174975 4.1875 10.75 C6.26614706 17.20365085 8.78269639 23.37409953 11.58862305 29.54394531 C13.29739807 33.31149126 14.71064387 37.07233953 16 41 C17.05534865 43.37173761 18.16724146 45.70790804 19.29296875 48.046875 C19.52628906 48.69140625 19.75960937 49.3359375 20 50 C19.67 50.66 19.34 51.32 19 52 C13.82027642 47.275153 12.09524372 40.50046452 10.1875 33.9375 C8.38977152 27.83960499 6.00777047 22.15210435 3.3737793 16.38061523 C0.68827635 10.47576659 -0.1249241 6.49605295 0 0 Z " fill="#CAAC73" transform="translate(19,0)"/>
<path d="M0 0 C0.33 0 0.66 0 1 0 C1.18175781 0.56847656 1.36351562 1.13695313 1.55078125 1.72265625 C4.495501 10.85088484 4.495501 10.85088484 9.25 19.125 C11 22 11 22 10.859375 24.44921875 C9.81212749 27.55763977 8.54833611 28.66248291 6 30.6875 C3.03807329 32.96879293 3.03807329 32.96879293 1 36 C0.01 36 -0.98 36 -2 36 C-1.75 34.125 -1.75 34.125 -1 32 C0.33333333 31.33333333 1.66666667 30.66666667 3 30 C4.80727898 28.09003472 6.37619388 26.07486337 8 24 C6.6778687 20.38018422 5.02937654 17.43473053 2.875 14.25 C-0.25735018 9.18654073 -0.56785085 5.8677921 0 0 Z " fill="#7AC1C5" transform="translate(59,92)"/>
<path d="M0 0 C0.33 0.99 0.66 1.98 1 3 C-2.87910622 8.97838724 -7.5920553 14.71788198 -14 18 C-14.66 18 -15.32 18 -16 18 C-16.226875 18.598125 -16.45375 19.19625 -16.6875 19.8125 C-18.3611297 22.60188284 -20.08817726 23.6168842 -23 25 C-23.66 24.67 -24.32 24.34 -25 24 C-24.195625 23.38125 -23.39125 22.7625 -22.5625 22.125 C-19.96125481 20.25835959 -19.96125481 20.25835959 -19 18 C-19.66 17.67 -20.32 17.34 -21 17 C-20.319375 16.7525 -19.63875 16.505 -18.9375 16.25 C-11.86131949 13.23885936 -6.53986983 10.07973966 -3 3 C-2.34 3 -1.68 3 -1 3 C-0.67 2.01 -0.34 1.02 0 0 Z " fill="#F2D53C" transform="translate(92,71)"/>
<path d="M0 0 C0.33 0.99 0.66 1.98 1 3 C-4.46301609 12.39335267 -11.90232405 21.0586606 -21 27 C-21.66 26.67 -22.32 26.34 -23 26 C-20.23173537 22.2852093 -17.37882866 19.59535456 -13.6875 16.8125 C-7.78859236 12.10600877 -3.38106105 6.76212211 0 0 Z " fill="#F1DB62" transform="translate(122,81)"/>
<path d="M0 0 C2.30142435 1.78174788 3.80034391 3.16304165 4.48828125 6.046875 C4.72323102 8.0246611 4.86751458 10.01271872 5 12 C3.68 12 2.36 12 1 12 C0.34 13.32 -0.32 14.64 -1 16 C-1.33 16 -1.66 16 -2 16 C-1.85975781 13.52039864 -1.7130815 11.04147598 -1.5625 8.5625 C-1.52318359 7.85544922 -1.48386719 7.14839844 -1.44335938 6.41992188 C-1.11328125 1.11328125 -1.11328125 1.11328125 0 0 Z " fill="#F8CB1E" transform="translate(17,24)"/>
<path d="M0 0 C8.91221731 3.96098547 14.16745387 11.86097494 19 20 C19.66 20.33 20.32 20.66 21 21 C21 21.66 21 22.32 21 23 C19.68 22.67 18.36 22.34 17 22 C17 21.34 17 20.68 17 20 C16.34 20 15.68 20 15 20 C14.69707031 19.39671875 14.39414063 18.7934375 14.08203125 18.171875 C11.54638208 13.33463657 9.41118665 10.30838999 5 7 C3.19871851 4.73976185 1.6160945 2.40105469 0 0 Z " fill="#F1DB64" transform="translate(107,14)"/>
<path d="M0 0 C10.17440734 3.4878519 17.55107332 13.09602763 23 22 C23 22.66 23 23.32 23 24 C19.60575027 22.60915032 18.22943492 21.23830546 16.4375 18.0625 C15.19456752 15.88227417 14.13939727 14.13742001 12.34765625 12.37109375 C11 11 11 11 11 9 C10.12601563 8.59974609 10.12601563 8.59974609 9.234375 8.19140625 C6.95523863 6.97613248 5.19537168 5.62930828 3.25 3.9375 C2.63640625 3.41027344 2.0228125 2.88304687 1.390625 2.33984375 C0.93171875 1.89769531 0.4728125 1.45554687 0 1 C0 0.67 0 0.34 0 0 Z " fill="#F1E9B8" transform="translate(105,11)"/>
<path d="M0 0 C0.33 0.99 0.66 1.98 1 3 C0.67 3.66 0.34 4.32 0 5 C-0.66 5 -1.32 5 -2 5 C-2.165 5.680625 -2.33 6.36125 -2.5 7.0625 C-5.06638734 12.08834188 -9.62921972 16.20973991 -15 18 C-13.93166187 15.28059385 -13.01879963 14.01473485 -10.6875 12.1875 C-7.90348215 9.92143896 -5.88459251 7.58015306 -3.6875 4.75 C-2.64142578 3.41195312 -2.64142578 3.41195312 -1.57421875 2.046875 C-1.05472656 1.37140625 -0.53523438 0.6959375 0 0 Z " fill="#F1DE74" transform="translate(91,69)"/>
<path d="M0 0 C1.11375 0.3403125 1.11375 0.3403125 2.25 0.6875 C0.99874616 4.44126152 -0.3152404 4.92823289 -3.75 6.6875 C-4.41 6.6875 -5.07 6.6875 -5.75 6.6875 C-6.08 5.3675 -6.41 4.0475 -6.75 2.6875 C-4.29511132 0.41445492 -3.41240272 -0.38777304 0 0 Z " fill="#E5CF73" transform="translate(70.75,88.3125)"/>
<path d="M0 0 C0.66 0.33 1.32 0.66 2 1 C1.67 1.66 1.34 2.32 1 3 C1.4094223 4.82951642 1.90075925 6.64120762 2.4375 8.4375 C3.34392334 11.49007369 4 13.80607249 4 17 C0.74208804 11.88042406 -2 7.16070712 -2 1 C-1.34 0.67 -0.68 0.34 0 0 Z " fill="#D4B973" transform="translate(62,92)"/>
<path d="M0 0 C1.06528748 2.73019786 1.07998186 3.79298812 0.00390625 6.578125 C-0.47175781 7.45984375 -0.94742188 8.3415625 -1.4375 9.25 C-1.91058594 10.14203125 -2.38367187 11.0340625 -2.87109375 11.953125 C-3.24363281 12.62859375 -3.61617187 13.3040625 -4 14 C-5.06528748 11.26980214 -5.07998186 10.20701188 -4.00390625 7.421875 C-3.52824219 6.54015625 -3.05257812 5.6584375 -2.5625 4.75 C-2.08941406 3.85796875 -1.61632813 2.9659375 -1.12890625 2.046875 C-0.75636719 1.37140625 -0.38382813 0.6959375 0 0 Z " fill="#F1E9B8" transform="translate(53,80)"/>
<path d="M0 0 C0.71484375 1.734375 0.71484375 1.734375 1 4 C-0.43359375 6.140625 -0.43359375 6.140625 -2.4375 8.25 C-3.09621094 8.95640625 -3.75492188 9.6628125 -4.43359375 10.390625 C-5.20896484 11.18726562 -5.20896484 11.18726562 -6 12 C-6 7.9666466 -4.39120082 6.16482462 -2 3 C-1.34 3 -0.68 3 0 3 C0 2.01 0 1.02 0 0 Z " fill="#D4B973" transform="translate(47,95)"/>
<path d="M0 0 C0.33 0.99 0.66 1.98 1 3 C0.01 3.33 -0.98 3.66 -2 4 C-2.33 5.98 -2.66 7.96 -3 10 C-3.33 10 -3.66 10 -4 10 C-3.51171875 3.9453125 -3.51171875 3.9453125 -3 2 C-2.01 1.34 -1.02 0.68 0 0 Z " fill="#F1DE74" transform="translate(127,71)"/>
</svg>
