<?xml version="1.0" encoding="UTF-8"?>
<svg version="1.1" xmlns="http://www.w3.org/2000/svg" width="128" height="128">
<path d="M0 0 C42.24 0 84.48 0 128 0 C128 42.24 128 84.48 128 128 C85.76 128 43.52 128 0 128 C0 85.76 0 43.52 0 0 Z " fill="#FAFAF9" transform="translate(0,0)"/>
<path d="M0 0 C3.9460442 3.26107049 7.0194289 7.27400955 9 12 C9.16699219 14.36132812 9.16699219 14.36132812 9.046875 17.03125 C9.00554443 18.05307373 8.96421387 19.07489746 8.92163086 20.12768555 C8.86499268 21.24054932 8.80835449 22.35341309 8.75 23.5 C8.6991626 24.65733643 8.6483252 25.81467285 8.59594727 27.00708008 C8.41358845 31.00563066 8.21067942 35.00286614 8 39 C7.95921326 39.77647888 7.91842651 40.55295776 7.87640381 41.35296631 C7.28440964 52.57056882 6.65394452 63.78585102 6 75 C5.34 75 4.68 75 4 75 C3.34 76.98 2.68 78.96 2 81 C-0.75 81.6875 -0.75 81.6875 -4 82 C-4.598125 81.505 -5.19625 81.01 -5.8125 80.5 C-8.91126524 78.37513241 -11.16395413 79.01591877 -14.78125 79.48046875 C-17.09167086 80.02146518 -18.92895345 80.85621747 -21 82 C-20.62746094 82.73605469 -20.25492187 83.47210938 -19.87109375 84.23046875 C-19.16146484 85.69419922 -19.16146484 85.69419922 -18.4375 87.1875 C-17.96183594 88.15042969 -17.48617187 89.11335938 -16.99609375 90.10546875 C-15.43331762 94.64671232 -16.75959694 97.3443553 -18.375 101.75 C-18.91125 102.8225 -19.4475 103.895 -20 105 C-23 106 -23 106 -24.875 105.5 C-28.27754754 103.09820174 -30.57526693 100.90573377 -32 97 C-32.1253458 91.92349525 -31.65373259 87.02921012 -31 82 C-34.22448147 79.85034569 -34.79930965 79.77847716 -38.44921875 80.0234375 C-39.29677734 80.075 -40.14433594 80.1265625 -41.01757812 80.1796875 C-42.33918945 80.27636719 -42.33918945 80.27636719 -43.6875 80.375 C-44.58017578 80.43171875 -45.47285156 80.4884375 -46.39257812 80.546875 C-48.59587413 80.68826298 -50.79801539 80.83965978 -53 81 C-54.88530551 84.77061102 -53.88908929 89.47801363 -53.7421875 93.6171875 C-54.02104259 97.2761043 -54.62554789 98.33540287 -57 101 C-57.72351427 102.98014432 -58.40265389 104.97821315 -59 107 C-65.75 106.25 -65.75 106.25 -68 104 C-68.69100553 102.00827818 -69.35902703 100.00838196 -70 98 C-70.33 97.67 -70.66 97.34 -71 97 C-71.2815975 92.99137681 -71.26771224 89.09518643 -70.3125 85.1875 C-69.81302439 82.92797438 -69.81302439 82.92797438 -70.875 80.625 C-73.81058453 78.38014124 -75.78437606 79.24997475 -79.28564453 79.71142578 C-84.34420704 80.24922223 -89.41826269 80.14345667 -94.5 80.125 C-96.14355469 80.13080078 -96.14355469 80.13080078 -97.8203125 80.13671875 C-99.37878906 80.13478516 -99.37878906 80.13478516 -100.96875 80.1328125 C-101.91169922 80.13168457 -102.85464844 80.13055664 -103.82617188 80.12939453 C-106 80 -106 80 -107 79 C-107.08790975 76.70848583 -107.10694038 74.41427476 -107.09765625 72.12109375 C-107.0962413 71.4344313 -107.09482635 70.74776886 -107.09336853 70.04029846 C-107.08775479 67.83932199 -107.07520007 65.63844591 -107.0625 63.4375 C-107.05748676 61.94856917 -107.05292355 60.45963676 -107.04882812 58.97070312 C-107.03778093 55.31376925 -107.02050713 51.65689442 -107 48 C-106.28980713 47.97494385 -105.57961426 47.9498877 -104.84790039 47.92407227 C-101.58596536 47.80701528 -98.32424278 47.68479254 -95.0625 47.5625 C-93.94552734 47.52318359 -92.82855469 47.48386719 -91.67773438 47.44335938 C-80.21255943 47.81951618 -80.21255943 47.81951618 -70.5625 43.5 C-68.23114372 38.27776194 -66.29025368 33.53480829 -67.875 27.875 C-68.24625 26.92625 -68.6175 25.9775 -69 25 C-69.74761368 16.77624954 -66.0437005 10.83245947 -62 4 C-61.34 4 -60.68 4 -60 4 C-59.67 3.01 -59.34 2.02 -59 1 C-55.73952371 -0.63023814 -53.62198965 -0.4673535 -50 0 C-46.97667914 1.99865718 -44.51213196 4.40010797 -42 7 C-41.236875 7.763125 -40.47375 8.52625 -39.6875 9.3125 C-37.20390937 13.26784805 -36.10677009 17.48832575 -35 22 C-34.64228516 23.23363281 -34.64228516 23.23363281 -34.27734375 24.4921875 C-33.92047444 27.71909025 -34.73612126 29.27995203 -36.25 32.125 C-36.68828125 32.97320312 -37.1265625 33.82140625 -37.578125 34.6953125 C-39 37 -39 37 -40.59765625 38.57421875 C-42.90136687 40.9164315 -43.23541044 43.88282717 -44 47 C-40.25673757 46.20815603 -37.60922055 45.52689345 -34.6875 43 C-32.69705849 39.46143732 -32.0959054 36.31768131 -31.4296875 32.34375 C-30.94702974 29.71107132 -29.99242537 27.48106341 -29 25 C-28.79106716 23.45841447 -28.5828202 21.91673592 -28.375 20.375 C-26.95802615 12.86278942 -22.01309572 5.78473066 -15.75 1.375 C-10.55146796 -1.22426602 -5.58400106 -1.86133369 0 0 Z " fill="#C69C20" transform="translate(107,19)"/>
<path d="M0 0 C3.9460442 3.26107049 7.0194289 7.27400955 9 12 C9.16699219 14.36132812 9.16699219 14.36132812 9.046875 17.03125 C9.00554443 18.05307373 8.96421387 19.07489746 8.92163086 20.12768555 C8.86499268 21.24054932 8.80835449 22.35341309 8.75 23.5 C8.6991626 24.65733643 8.6483252 25.81467285 8.59594727 27.00708008 C8.41358845 31.00563066 8.21067942 35.00286614 8 39 C7.95921326 39.77647888 7.91842651 40.55295776 7.87640381 41.35296631 C7.28440964 52.57056882 6.65394452 63.78585102 6 75 C5.34 75 4.68 75 4 75 C3.34 76.98 2.68 78.96 2 81 C-0.75 81.6875 -0.75 81.6875 -4 82 C-4.598125 81.505 -5.19625 81.01 -5.8125 80.5 C-8.91126524 78.37513241 -11.16395413 79.01591877 -14.78125 79.48046875 C-17.09167086 80.02146518 -18.92895345 80.85621747 -21 82 C-20.62746094 82.73605469 -20.25492187 83.47210938 -19.87109375 84.23046875 C-19.16146484 85.69419922 -19.16146484 85.69419922 -18.4375 87.1875 C-17.96183594 88.15042969 -17.48617187 89.11335938 -16.99609375 90.10546875 C-15.43331762 94.64671232 -16.75959694 97.3443553 -18.375 101.75 C-18.91125 102.8225 -19.4475 103.895 -20 105 C-23 106 -23 106 -24.875 105.5 C-28.27754754 103.09820174 -30.57526693 100.90573377 -32 97 C-32.1253458 91.92349525 -31.65373259 87.02921012 -31 82 C-34.22448147 79.85034569 -34.79930965 79.77847716 -38.44921875 80.0234375 C-39.29677734 80.075 -40.14433594 80.1265625 -41.01757812 80.1796875 C-42.33918945 80.27636719 -42.33918945 80.27636719 -43.6875 80.375 C-44.58017578 80.43171875 -45.47285156 80.4884375 -46.39257812 80.546875 C-48.59587413 80.68826298 -50.79801539 80.83965978 -53 81 C-54.88530551 84.77061102 -53.88908929 89.47801363 -53.7421875 93.6171875 C-54.02104259 97.2761043 -54.62554789 98.33540287 -57 101 C-57.72351427 102.98014432 -58.40265389 104.97821315 -59 107 C-65.75 106.25 -65.75 106.25 -68 104 C-68.69100553 102.00827818 -69.35902703 100.00838196 -70 98 C-70.33 97.67 -70.66 97.34 -71 97 C-71.2815975 92.99137681 -71.26771224 89.09518643 -70.3125 85.1875 C-69.81302439 82.92797438 -69.81302439 82.92797438 -70.875 80.625 C-73.81058453 78.38014124 -75.78437606 79.24997475 -79.28564453 79.71142578 C-84.34420704 80.24922223 -89.41826269 80.14345667 -94.5 80.125 C-96.14355469 80.13080078 -96.14355469 80.13080078 -97.8203125 80.13671875 C-99.37878906 80.13478516 -99.37878906 80.13478516 -100.96875 80.1328125 C-101.91169922 80.13168457 -102.85464844 80.13055664 -103.82617188 80.12939453 C-106 80 -106 80 -107 79 C-107.08790975 76.70848583 -107.10694038 74.41427476 -107.09765625 72.12109375 C-107.0962413 71.4344313 -107.09482635 70.74776886 -107.09336853 70.04029846 C-107.08775479 67.83932199 -107.07520007 65.63844591 -107.0625 63.4375 C-107.05748676 61.94856917 -107.05292355 60.45963676 -107.04882812 58.97070312 C-107.03778093 55.31376925 -107.02050713 51.65689442 -107 48 C-106.28980713 47.97494385 -105.57961426 47.9498877 -104.84790039 47.92407227 C-101.58596536 47.80701528 -98.32424278 47.68479254 -95.0625 47.5625 C-93.94552734 47.52318359 -92.82855469 47.48386719 -91.67773438 47.44335938 C-80.21255943 47.81951618 -80.21255943 47.81951618 -70.5625 43.5 C-68.23114372 38.27776194 -66.29025368 33.53480829 -67.875 27.875 C-68.24625 26.92625 -68.6175 25.9775 -69 25 C-69.74761368 16.77624954 -66.0437005 10.83245947 -62 4 C-61.34 4 -60.68 4 -60 4 C-59.67 3.01 -59.34 2.02 -59 1 C-55.73952371 -0.63023814 -53.62198965 -0.4673535 -50 0 C-46.97667914 1.99865718 -44.51213196 4.40010797 -42 7 C-41.236875 7.763125 -40.47375 8.52625 -39.6875 9.3125 C-37.20390937 13.26784805 -36.10677009 17.48832575 -35 22 C-34.64228516 23.23363281 -34.64228516 23.23363281 -34.27734375 24.4921875 C-33.92047444 27.71909025 -34.73612126 29.27995203 -36.25 32.125 C-36.68828125 32.97320312 -37.1265625 33.82140625 -37.578125 34.6953125 C-39 37 -39 37 -40.59765625 38.57421875 C-42.90136687 40.9164315 -43.23541044 43.88282717 -44 47 C-40.25673757 46.20815603 -37.60922055 45.52689345 -34.6875 43 C-32.69705849 39.46143732 -32.0959054 36.31768131 -31.4296875 32.34375 C-30.94702974 29.71107132 -29.99242537 27.48106341 -29 25 C-28.79106716 23.45841447 -28.5828202 21.91673592 -28.375 20.375 C-26.95802615 12.86278942 -22.01309572 5.78473066 -15.75 1.375 C-10.55146796 -1.22426602 -5.58400106 -1.86133369 0 0 Z M-18 11 C-19.21257109 14.40436624 -19.92454041 17.67344402 -20.52734375 21.234375 C-21 24 -21 24 -22 25 C-22.05377367 26.47877602 -22.0926886 27.95809941 -22.125 29.4375 C-22.6051612 35.02337528 -24.82472772 38.31693674 -28.2109375 42.67578125 C-30.01750758 45.02274457 -31.47858814 47.46289698 -33 50 C-35.93447357 52.93447357 -39.18259456 52.46158423 -43.125 52.625 C-43.87910156 52.66367188 -44.63320313 52.70234375 -45.41015625 52.7421875 C-47.27303184 52.83651031 -49.13648255 52.91934662 -51 53 C-51.03738281 53.75925781 -51.07476562 54.51851562 -51.11328125 55.30078125 C-51.17902344 56.29464844 -51.24476562 57.28851563 -51.3125 58.3125 C-51.39951172 59.79169922 -51.39951172 59.79169922 -51.48828125 61.30078125 C-52.04622813 64.24384457 -52.68540132 65.18182999 -55 67 C-54.29400455 57.28129673 -53.43550576 47.63839581 -52 38 C-54.97 37.67 -57.94 37.34 -61 37 C-61.268125 37.928125 -61.53625 38.85625 -61.8125 39.8125 C-62.93710035 42.8311641 -63.70706573 43.9155143 -66 46 C-66 46.66 -66 47.32 -66 48 C-69.51252647 49.17084216 -72.51996241 49.26191025 -76.22265625 49.4296875 C-77.66214053 49.50329943 -79.10159293 49.57753707 -80.54101562 49.65234375 C-82.80781621 49.76611473 -85.0745266 49.87552295 -87.34204102 49.97412109 C-89.53227131 50.07140139 -91.72096247 50.18660285 -93.91015625 50.3046875 C-95.87674194 50.3972583 -95.87674194 50.3972583 -97.88305664 50.49169922 C-99.4259436 50.74330811 -99.4259436 50.74330811 -101 51 C-103.46430239 54.69645358 -103.29648824 57.53945599 -103.25 61.8125 C-103.25773437 62.51181641 -103.26546875 63.21113281 -103.2734375 63.93164062 C-103.25684077 68.36711802 -102.48265001 71.85203997 -101 76 C-96.96151684 76.02481344 -92.92306353 76.0429136 -88.88452148 76.05493164 C-87.51211778 76.05994454 -86.13971938 76.06675658 -84.76733398 76.07543945 C-82.78892349 76.08763857 -80.8104732 76.09272248 -78.83203125 76.09765625 C-77.04889526 76.10551147 -77.04889526 76.10551147 -75.22973633 76.11352539 C-72.35262513 76.01239479 -69.79326587 75.66550193 -67 75 C-66.63743142 76.4562672 -66.28520207 77.91511185 -65.9375 79.375 C-65.74027344 80.18710938 -65.54304688 80.99921875 -65.33984375 81.8359375 C-65 84 -65 84 -66 86 C-66.60009478 91.65300373 -66.60009478 91.65300373 -64.1875 96.5 C-62.02970006 98.28276418 -62.02970006 98.28276418 -59 98 C-58.3913171 92.89141137 -57.9451292 87.89866576 -58.0625 82.75 C-58.11867353 78.79288687 -57.55385558 75.690407 -56 72 C-55.608125 72.474375 -55.21625 72.94875 -54.8125 73.4375 C-51.91744808 75.93323441 -49.42630268 76.05962804 -45.6640625 75.90234375 C-40.84169799 75.50410043 -36.53432411 74.78986478 -32 73 C-31.37943726 73.73802856 -31.37943726 73.73802856 -30.74633789 74.4909668 C-28.23458583 76.6614043 -25.97308147 76.20045599 -22.79101562 76.00585938 C-21.62602539 75.91014648 -21.62602539 75.91014648 -20.4375 75.8125 C-19.65697266 75.76802734 -18.87644531 75.72355469 -18.07226562 75.67773438 C-13.56408575 75.49812668 -13.56408575 75.49812668 -10 73 C-7.875 72.375 -7.875 72.375 -6 72 C-5.67 72.99 -5.34 73.98 -5 75 C-2.3094472 73.77992056 -2.3094472 73.77992056 0 72 C1.14787431 66.06496807 1.11374074 60.23912438 1.0625 54.2109375 C1.05871338 53.18948639 1.05492676 52.16803528 1.05102539 51.1156311 C1.03886336 47.86871007 1.02023278 44.62188016 1 41.375 C0.97339222 37.09114818 0.95341066 32.80734091 0.9375 28.5234375 C0.92505249 27.05298477 0.92505249 27.05298477 0.91235352 25.55282593 C0.90905029 24.63482208 0.90574707 23.71681824 0.90234375 22.77099609 C0.89710693 21.96826263 0.89187012 21.16552917 0.88647461 20.33847046 C1 18 1 18 1.58813477 15.40493774 C2.19171476 11.88055114 0.82363431 9.9718485 -1 7 C-7.00020953 3.99989524 -13.7645201 6.17174414 -18 11 Z " fill="#A89040" transform="translate(107,19)"/>
<path d="M0 0 C3.37462715 0.54723683 5.08235 1.0549 8 3 C7.52046875 4.28390625 7.52046875 4.28390625 7.03125 5.59375 C5.99452765 9.01807534 5.66966431 11.93704954 5.5 15.5 C5.33850718 18.89134915 5.11237671 21.67130924 4.01171875 24.890625 C2.7824751 28.66853212 2.50256051 32.31284365 2.3125 36.25 C2.27125 36.99999268 2.23 37.74998535 2.1875 38.52270508 C1.95899954 43.42435723 2.15103641 48.10340251 2.80859375 52.97265625 C3.07205485 55.76319316 2.64265335 58.28657476 2 61 C-0.375 60.6875 -0.375 60.6875 -3 60 C-5.4785611 56.28215836 -5.324942 53.30328588 -5 49 C-4.79375 48.319375 -4.5875 47.63875 -4.375 46.9375 C-3.75627896 43.74077464 -5.00927595 41.03045005 -6 38 C-7.02613403 38.24447876 -7.02613403 38.24447876 -8.07299805 38.49389648 C-11.38118397 39.06590995 -14.47465976 39.11244643 -17.83203125 39.09765625 C-19.12431641 39.09443359 -20.41660156 39.09121094 -21.74804688 39.08789062 C-23.10286526 39.07953665 -24.45768297 39.07107172 -25.8125 39.0625 C-27.18684735 39.05748 -28.56119645 39.05291797 -29.93554688 39.04882812 C-33.29040924 39.03705668 -36.64518221 39.02061283 -40 39 C-41.32705668 33.65398695 -42.27657983 28.66689399 -42.25 23.125 C-42.25515625 22.03445312 -42.2603125 20.94390625 -42.265625 19.8203125 C-42 17 -42 17 -40 14 C-36.88305664 13.49169922 -36.88305664 13.49169922 -32.91015625 13.3046875 C-32.20982773 13.26691193 -31.50949921 13.22913635 -30.78794861 13.19021606 C-28.54657902 13.07161947 -26.30487769 12.97250512 -24.0625 12.875 C-21.82402225 12.76686098 -19.58583078 12.65467279 -17.34776306 12.5383606 C-15.31433391 12.43437569 -13.28033705 12.34167672 -11.24633789 12.24951172 C-7.98930855 12.13121229 -7.98930855 12.13121229 -5 11 C-4.6278958 9.67696283 -4.29369827 8.34262065 -4 7 C-3.34 6.67 -2.68 6.34 -2 6 C-1.27306096 4.02111039 -0.60183749 2.02045442 0 0 Z " fill="#F4BD14" transform="translate(46,56)"/>
<path d="M0 0 C3.32638836 2.06465485 4.08066201 5.32264805 5 9 C4.67 9.99 4.34 10.98 4 12 C3.91813982 13.51278499 3.8925149 15.028979 3.90234375 16.54394531 C3.90564697 17.46210022 3.9089502 18.38025513 3.91235352 19.32623291 C3.92065186 20.3168573 3.9289502 21.30748169 3.9375 22.328125 C3.94128662 23.35049255 3.94507324 24.37286011 3.94897461 25.4262085 C3.96532269 29.80290606 3.99335983 34.17951054 4.02050781 38.55615234 C4.03864664 41.75097213 4.05071112 44.94577646 4.0625 48.140625 C4.07079834 49.12315247 4.07909668 50.10567993 4.08764648 51.11798096 C4.13546503 64.59202336 4.13546503 64.59202336 1.4375 67.9375 C0.963125 68.288125 0.48875 68.63875 0 69 C-3 68 -3 68 -3.875 66.3125 C-4 64 -4 64 -2.5625 61.4375 C0.8573339 53.91386542 -0.97268008 45.72915721 -3 38 C-8.88989824 36.23696409 -8.88989824 36.23696409 -14.875 36.75 C-16.61858318 37.77563716 -18.31686819 38.87791213 -20 40 C-20 40.99 -20 41.98 -20 43 C-20 43.99 -20 44.98 -20 46 C-20.99 46.66 -21.98 47.32 -23 48 C-24.2188121 51.55672179 -24.2188121 51.55672179 -25 55 C-25.66 55 -26.32 55 -27 55 C-28.8687629 51.15254697 -29.17164173 49.10074607 -28 45 C-27.773125 43.9275 -27.54625 42.855 -27.3125 41.75 C-26.12668428 38.36195508 -25.01950367 36.5116533 -22.9375 33.6875 C-19.97161422 29.50078956 -19.29992948 26.24629757 -19.203125 21.1640625 C-19 19 -19 19 -17 16 C-16.75110902 14.21351588 -16.54717147 12.42050249 -16.375 10.625 C-15.84161085 7.45406449 -15.5131895 5.56631971 -13.33984375 3.16796875 C-9.00704953 0.27109092 -5.25615121 -0.82449431 0 0 Z " fill="#EDC737" transform="translate(104,25)"/>
<path d="M0 0 C3.9460442 3.26107049 7.0194289 7.27400955 9 12 C9.16699219 14.36132812 9.16699219 14.36132812 9.046875 17.03125 C9.00554443 18.05307373 8.96421387 19.07489746 8.92163086 20.12768555 C8.86499268 21.24054932 8.80835449 22.35341309 8.75 23.5 C8.6991626 24.65733643 8.6483252 25.81467285 8.59594727 27.00708008 C8.41358845 31.00563066 8.21067942 35.00286614 8 39 C7.95921326 39.77647888 7.91842651 40.55295776 7.87640381 41.35296631 C7.28440964 52.57056882 6.65394452 63.78585102 6 75 C5.34 75 4.68 75 4 75 C4.01918991 74.19677811 4.03837982 73.39355621 4.05815125 72.56599426 C4.23642374 64.98899459 4.39981654 57.41188812 4.54658794 49.83421803 C4.62256378 45.93864137 4.70424763 42.04336041 4.79907227 38.14819336 C4.8904062 34.38772206 4.9666207 30.62721786 5.03244972 26.86621666 C5.06017843 25.43282367 5.09331418 23.99952455 5.13199425 22.56638527 C5.18532017 20.55606178 5.21748491 18.54521095 5.2487793 16.53442383 C5.28541939 14.81900139 5.28541939 14.81900139 5.32279968 13.06892395 C4.88513835 8.90798635 3.11966341 6.47459993 0.64453125 3.21484375 C-2.90676534 0.59143938 -7.82539165 1.46172672 -12 2 C-16.42743959 4.17347034 -19.45192502 6.78249659 -22 11 C-22.89119542 13.95911488 -23.60228391 16.9266492 -24.28125 19.94140625 C-25.08074369 23.34359952 -26.162663 26.56308528 -27.33203125 29.8515625 C-28.02667174 32.08578629 -28.38362629 34.25395167 -28.75 36.5625 C-29.88831682 41.86220452 -32.6162046 45.80560646 -37 49 C-40.02994872 49.73062593 -41.84444526 49.48965505 -45 49 C-45.33 48.67 -45.66 48.34 -46 48 C-45.68719603 42.35562617 -44.10781611 39.26475322 -40.8125 34.75 C-37.92002956 30.46017678 -36.39301479 27.32798952 -37.3125 22.0625 C-39.26221114 15.34574511 -41.80896459 10.77014065 -47 6 C-46.505 8.475 -46.505 8.475 -46 11 C-45.34 11 -44.68 11 -44 11 C-41.8480563 14.22791555 -41.79913557 15.28400809 -42 19 C-44.81568086 19.72403222 -46.69475062 20.06700596 -49.5625 19.4375 C-52.45862317 18.91768302 -53.55699399 19.46181103 -56 21 C-55.505 22.485 -55.505 22.485 -55 24 C-53.68 24 -52.36 24 -51 24 C-51 25.98 -51 27.96 -51 30 C-52.81325551 29.88648483 -54.62563357 29.75887039 -56.4375 29.625 C-57.44683594 29.55539063 -58.45617188 29.48578125 -59.49609375 29.4140625 C-60.32238281 29.27742188 -61.14867187 29.14078125 -62 29 C-63.39865903 26.20268195 -63.24537267 23.80715441 -63.3125 20.6875 C-63.36857422 18.99173828 -63.36857422 18.99173828 -63.42578125 17.26171875 C-62.91435171 13.34388693 -61.65599047 11.85346188 -59 9 C-58.0409375 7.6078125 -58.0409375 7.6078125 -57.0625 6.1875 C-55 4 -55 4 -52.25 3.6875 C-51.5075 3.790625 -50.765 3.89375 -50 4 C-50.99 3.34 -51.98 2.68 -53 2 C-57.81250154 3.23397475 -60.61809229 5.67782519 -63.13671875 9.91015625 C-65.9471744 15.50148382 -66.96751975 20.76737277 -66 27 C-65.34 27.99 -64.68 28.98 -64 30 C-64.25 32.6875 -64.25 32.6875 -65 36 C-65.15275391 36.98613281 -65.15275391 36.98613281 -65.30859375 37.9921875 C-65.49615234 39.01699219 -65.49615234 39.01699219 -65.6875 40.0625 C-65.79449219 40.69285156 -65.90148437 41.32320312 -66.01171875 41.97265625 C-67.67206964 45.3786725 -69.62098127 47.4021399 -73 49 C-77.66382783 49.73373333 -82.28575875 49.74516983 -87 49.75 C-89.50004407 49.78329977 -92.00004975 49.81965121 -94.5 49.859375 C-95.6034375 49.86420898 -96.706875 49.86904297 -97.84375 49.87402344 C-100.97465252 49.9989883 -103.9242612 50.4175088 -107 51 C-107 50.01 -107 49.02 -107 48 C-106.28980713 47.97494385 -105.57961426 47.9498877 -104.84790039 47.92407227 C-101.58596536 47.80701528 -98.32424278 47.68479254 -95.0625 47.5625 C-93.94552734 47.52318359 -92.82855469 47.48386719 -91.67773438 47.44335938 C-80.21255943 47.81951618 -80.21255943 47.81951618 -70.5625 43.5 C-68.23114372 38.27776194 -66.29025368 33.53480829 -67.875 27.875 C-68.24625 26.92625 -68.6175 25.9775 -69 25 C-69.74761368 16.77624954 -66.0437005 10.83245947 -62 4 C-61.34 4 -60.68 4 -60 4 C-59.67 3.01 -59.34 2.02 -59 1 C-55.73952371 -0.63023814 -53.62198965 -0.4673535 -50 0 C-46.97667914 1.99865718 -44.51213196 4.40010797 -42 7 C-41.236875 7.763125 -40.47375 8.52625 -39.6875 9.3125 C-37.20390937 13.26784805 -36.10677009 17.48832575 -35 22 C-34.64228516 23.23363281 -34.64228516 23.23363281 -34.27734375 24.4921875 C-33.92047444 27.71909025 -34.73612126 29.27995203 -36.25 32.125 C-36.68828125 32.97320312 -37.1265625 33.82140625 -37.578125 34.6953125 C-39 37 -39 37 -40.59765625 38.57421875 C-42.90136687 40.9164315 -43.23541044 43.88282717 -44 47 C-40.25673757 46.20815603 -37.60922055 45.52689345 -34.6875 43 C-32.69705849 39.46143732 -32.0959054 36.31768131 -31.4296875 32.34375 C-30.94702974 29.71107132 -29.99242537 27.48106341 -29 25 C-28.79106716 23.45841447 -28.5828202 21.91673592 -28.375 20.375 C-26.95802615 12.86278942 -22.01309572 5.78473066 -15.75 1.375 C-10.55146796 -1.22426602 -5.58400106 -1.86133369 0 0 Z " fill="#B3B3B1" transform="translate(107,19)"/>
<path d="M0 0 C0.845625 0.45375 1.69125 0.9075 2.5625 1.375 C2.2325 2.035 1.9025 2.695 1.5625 3.375 C0.81613281 3.30152344 0.06976563 3.22804688 -0.69921875 3.15234375 C-3.47697155 3.14250956 -3.47697155 3.14250956 -5.45703125 4.81640625 C-11.48299424 11.94515986 -11.1775756 18.45885113 -10.4375 27.375 C-6.8075 27.705 -3.1775 28.035 0.5625 28.375 C0.5625 26.395 0.5625 24.415 0.5625 22.375 C-1.0875 22.705 -2.7375 23.035 -4.4375 23.375 C-4.7675 22.055 -5.0975 20.735 -5.4375 19.375 C-2.94718916 17.29974097 -1.14660026 16.36850443 2.12109375 16.3984375 C4.61588223 16.66030182 7.08615349 16.97589949 9.5625 17.375 C8.9025 14.735 8.2425 12.095 7.5625 9.375 C6.9025 9.375 6.2425 9.375 5.5625 9.375 C5.2325 7.725 4.9025 6.075 4.5625 4.375 C8.78107208 5.78119069 10.56964657 8.56734877 12.5625 12.375 C13.50984143 15.67803001 14.03990818 18.98383352 14.5625 22.375 C14.95308594 23.31859375 14.95308594 23.31859375 15.3515625 24.28125 C15.69526784 27.69284372 13.55581281 29.99750447 11.6875 32.6875 C8.51351356 37.36000617 7.00732331 40.7142647 6.5625 46.375 C11.62644841 47.03694542 11.62644841 47.03694542 16.2890625 45.37890625 C21.67585199 40.06117817 22.60109307 32.39836398 24.13330078 25.28417969 C26.26156205 15.81716997 28.76589838 7.70364049 36.125 1.0625 C40.97199994 -1.31693633 45.26364819 -1.68634272 50.5625 -0.625 C54.17688698 1.61817013 56.20711659 4.30884977 57.5625 8.375 C57.63279121 10.94765818 57.65620832 13.49141431 57.625 16.0625 C57.62048828 16.76439453 57.61597656 17.46628906 57.61132812 18.18945312 C57.59956927 19.91800538 57.58163454 21.64651365 57.5625 23.375 C56.5725 23.375 55.5825 23.375 54.5625 23.375 C53.59868588 20.09803199 53.39506449 18.7517299 54.8125 15.5625 C55.67058697 11.91563037 55.3730628 11.23051026 53.625 8.0625 C51.48810174 5.02554948 50.80071979 4.45296284 47.125 3.25 C41.84517696 3.43525695 38.84334514 4.26881556 34.8125 7.75 C30.84232194 12.3818744 30.147149 16.49315464 29.3125 22.4375 C28.26899346 29.13434408 26.51431103 34.30288832 22.9140625 40.12890625 C21.37071856 42.50455207 21.37071856 42.50455207 20.375 46 C20.106875 46.78375 19.83875 47.5675 19.5625 48.375 C15.82226998 49.62174334 12.3308914 49.52052755 8.4375 49.5 C7.69628906 49.50386719 6.95507812 49.50773437 6.19140625 49.51171875 C0.6891598 49.5016598 0.6891598 49.5016598 -0.4375 48.375 C-0.88976612 43.51313926 0.15864307 40.58174962 2.5625 36.375 C-3.8535038 34.43016117 -3.8535038 34.43016117 -10.4375 34.375 C-12.75127147 36.27084109 -12.75127147 36.27084109 -14.4375 38.375 C-14.29441406 37.34439453 -14.29441406 37.34439453 -14.1484375 36.29296875 C-14.03757813 35.39191406 -13.92671875 34.49085937 -13.8125 33.5625 C-13.69648437 32.66917969 -13.58046875 31.77585938 -13.4609375 30.85546875 C-13.20249257 28.11809609 -13.20249257 28.11809609 -15.4375 25.375 C-16.76047238 17.78531636 -14.70401203 11.63540962 -10.4375 5.375 C-5.20953647 -0.94718845 -5.20953647 -0.94718845 0 0 Z " fill="#536163" transform="translate(55.4375,20.625)"/>
<path d="M0 0 C4.07597187 0.38882626 7.26840031 1.18862949 10.875 3.1640625 C10.545 4.0303125 10.215 4.8965625 9.875 5.7890625 C8.59091167 9.53618862 8.59091167 9.53618862 8.875 15.1640625 C14.815 15.1640625 20.755 15.1640625 26.875 15.1640625 C26.215 16.1540625 25.555 17.1440625 24.875 18.1640625 C22.0864711 18.38514037 19.52846819 18.44513785 16.75 18.3515625 C15.61884766 18.33125977 15.61884766 18.33125977 14.46484375 18.31054688 C12.60125873 18.27516235 10.73804022 18.22135417 8.875 18.1640625 C8.92140625 18.91171875 8.9678125 19.659375 9.015625 20.4296875 C9.31344423 28.55589792 9.31344423 28.55589792 6.9375 31.8515625 C4.875 33.1640625 4.875 33.1640625 3.875 33.1640625 C5.35220729 11.06881298 5.35220729 11.06881298 7.875 3.1640625 C4.905 2.8340625 1.935 2.5040625 -1.125 2.1640625 C-1.785 4.4740625 -2.445 6.7840625 -3.125 9.1640625 C-3.785 9.1640625 -4.445 9.1640625 -5.125 9.1640625 C-5.228125 9.7828125 -5.33125 10.4015625 -5.4375 11.0390625 C-6.125 13.1640625 -6.125 13.1640625 -9.125 15.1640625 C-11.53532161 15.44402202 -13.95884418 15.61518378 -16.3828125 15.7265625 C-17.08646942 15.76338135 -17.79012634 15.8002002 -18.5151062 15.83813477 C-21.52361757 15.99540327 -24.53299599 16.13138117 -27.54248047 16.26855469 C-29.73972504 16.37176506 -31.93617212 16.48630989 -34.1328125 16.6015625 C-35.44910645 16.66214844 -36.76540039 16.72273438 -38.12158203 16.78515625 C-39.11270996 16.91019531 -40.10383789 17.03523438 -41.125 17.1640625 C-42.67335926 20.26078103 -42.26825002 23.51955789 -42.25 26.9140625 C-42.25386719 27.61789063 -42.25773437 28.32171875 -42.26171875 29.046875 C-42.26042969 29.74039063 -42.25914063 30.43390625 -42.2578125 31.1484375 C-42.25668457 31.77459961 -42.25555664 32.40076172 -42.25439453 33.04589844 C-42.08655898 35.7933348 -41.60927158 38.45656597 -41.125 41.1640625 C-37.08632839 41.04533418 -33.04786858 40.92105591 -29.00952148 40.79174805 C-27.63717224 40.7485741 -26.26477533 40.70688749 -24.89233398 40.66674805 C-22.91377932 40.60861858 -20.9354003 40.5446054 -18.95703125 40.48046875 C-17.17389526 40.42548218 -17.17389526 40.42548218 -15.35473633 40.36938477 C-12.51095153 40.18859839 -9.89593195 39.80596842 -7.125 39.1640625 C-6.5904744 40.40826897 -6.07291389 41.65977186 -5.5625 42.9140625 C-5.27246094 43.61015625 -4.98242188 44.30625 -4.68359375 45.0234375 C-4.03246471 47.51867326 -4.39227898 48.72644812 -5.125 51.1640625 C-5.37557397 55.00374017 -5.35350222 58.47855583 -4.125 62.1640625 C-2.475 62.4940625 -0.825 62.8240625 0.875 63.1640625 C0.875 57.8840625 0.875 52.6040625 0.875 47.1640625 C4.17288271 50.46194521 4.64919774 54.60152861 4.875 59.1640625 C4.14365652 62.33150079 3.06932795 64.74904065 0.875 67.1640625 C-2.375 68.1640625 -2.375 68.1640625 -5.125 68.1640625 C-9.2831228 61.73787272 -9.31151105 57.54275481 -8.19140625 50.01953125 C-7.8117678 47.14834207 -7.8117678 47.14834207 -9.58984375 45.40234375 C-10.09644531 44.99371094 -10.60304687 44.58507812 -11.125 44.1640625 C-11.125 43.5040625 -11.125 42.8440625 -11.125 42.1640625 C-12.44105225 42.23306763 -12.44105225 42.23306763 -13.78369141 42.3034668 C-17.05969199 42.46741843 -20.33569392 42.61662837 -23.61279297 42.75610352 C-25.02712833 42.81927522 -26.44121954 42.88819986 -27.85498047 42.96313477 C-29.8951266 43.07024603 -31.935275 43.15617882 -33.9765625 43.23828125 C-35.20197754 43.29588623 -36.42739258 43.35349121 -37.68994141 43.4128418 C-41.125 43.1640625 -41.125 43.1640625 -47.125 40.1640625 C-47.125 32.2440625 -47.125 24.3240625 -47.125 16.1640625 C-42.08107534 14.48275428 -39.10901328 13.8816013 -33.9765625 13.75 C-33.31917084 13.73063385 -32.66177917 13.7112677 -31.98446655 13.6913147 C-29.90643865 13.63203789 -27.82835376 13.58534456 -25.75 13.5390625 C-24.3320085 13.50083472 -22.91403903 13.46178027 -21.49609375 13.421875 C-18.03926539 13.32638079 -14.58227017 13.24216061 -11.125 13.1640625 C-10.465 11.8440625 -9.805 10.5240625 -9.125 9.1640625 C-8.465 9.1640625 -7.805 9.1640625 -7.125 9.1640625 C-7.0425 8.6071875 -6.96 8.0503125 -6.875 7.4765625 C-5.66008289 3.73056806 -4.33486862 0.33467736 0 0 Z " fill="#B79C42" transform="translate(47.125,53.8359375)"/>
<path d="M0 0 C1.2681958 0.49439575 1.2681958 0.49439575 2.56201172 0.9987793 C6.2792017 2.08130991 9.14847343 2.15556945 13.0078125 2.01953125 C14.32394531 1.99052734 15.64007813 1.96152344 16.99609375 1.93164062 C19.068136 1.87573932 21.13916358 1.8119578 23.21044922 1.73266602 C25.22555496 1.66006889 27.24176858 1.62061109 29.2578125 1.58203125 C31.05436279 1.52366089 31.05436279 1.52366089 32.88720703 1.46411133 C36 2 36 2 38.40185547 4.3112793 C40.93776875 8.57770352 40.39385584 12.28135633 39.3125 17 C38.88163062 21.13634601 40.15554877 23.31109754 42 27 C43.98 27 45.96 27 48 27 C48.185625 25.9171875 48.185625 25.9171875 48.375 24.8125 C49 22 49 22 50.125 19.6875 C51.16441407 16.49501391 50.57330241 14.25231444 50.03125 11 C49.97769018 7.57217144 51.89630402 5.53680985 54 3 C56.14603046 0.85396954 60.72968495 1.72224332 63.6875 1.6875 C64.8930957 1.64399414 64.8930957 1.64399414 66.12304688 1.59960938 C71.55460109 1.54187413 74.75050182 2.28587167 79 6 C80.27469402 9.82408206 79.25420387 11.23738839 78 15 C77.49540805 19.0367356 77.85452862 20.71944805 79.75 24.375 C80.4925 25.24125 81.235 26.1075 82 27 C83.32 27 84.64 27 86 27 C88.24353171 20.38748549 87.99243173 17.31735588 85 11 C84.505 10.505 84.505 10.505 84 10 C83.6875 7.625 83.6875 7.625 84 5 C87.25716192 1.69505575 90.23949096 1.53802545 94.75 1.3125 C95.92046875 1.24675781 97.0909375 1.18101563 98.296875 1.11328125 C99.63492188 1.05720703 99.63492188 1.05720703 101 1 C101.99 2.485 101.99 2.485 103 4 C104.32 4 105.64 4 107 4 C107.66 2.68 108.32 1.36 109 0 C109.66 0 110.32 0 111 0 C110.34 1.98 109.68 3.96 109 6 C106.25 6.6875 106.25 6.6875 103 7 C102.401875 6.505 101.80375 6.01 101.1875 5.5 C98.08873476 3.37513241 95.83604587 4.01591877 92.21875 4.48046875 C89.90832914 5.02146518 88.07104655 5.85621747 86 7 C86.37253906 7.73605469 86.74507813 8.47210938 87.12890625 9.23046875 C87.60199219 10.20628906 88.07507813 11.18210937 88.5625 12.1875 C89.27599609 13.63189453 89.27599609 13.63189453 90.00390625 15.10546875 C91.56668238 19.64671232 90.24040306 22.3443553 88.625 26.75 C88.08875 27.8225 87.5525 28.895 87 30 C84 31 84 31 82.125 30.5 C78.72245246 28.09820174 76.42473307 25.90573377 75 22 C74.8746542 16.92349525 75.34626741 12.02921012 76 7 C72.77551853 4.85034569 72.20069035 4.77847716 68.55078125 5.0234375 C67.70322266 5.075 66.85566406 5.1265625 65.98242188 5.1796875 C64.66081055 5.27636719 64.66081055 5.27636719 63.3125 5.375 C62.41982422 5.43171875 61.52714844 5.4884375 60.60742188 5.546875 C58.40412587 5.68826298 56.20198461 5.83965978 54 6 C52.11469449 9.77061102 53.11091071 14.47801363 53.2578125 18.6171875 C52.97895741 22.2761043 52.37445211 23.33540287 50 26 C49.27648573 27.98014432 48.59734611 29.97821315 48 32 C41.25 31.25 41.25 31.25 39 29 C38.30899447 27.00827818 37.64097297 25.00838196 37 23 C36.67 22.67 36.34 22.34 36 22 C35.7184025 17.99137681 35.73228776 14.09518643 36.6875 10.1875 C37.18697561 7.92797438 37.18697561 7.92797438 36.125 5.625 C33.18925208 3.38001629 31.21967572 4.25361945 27.71875 4.71582031 C22.63829873 5.24685886 17.53991978 5.1024828 12.4375 5.0625 C11.33341797 5.05798828 10.22933594 5.05347656 9.09179688 5.04882812 C6.394473 5.0371514 3.69726653 5.02077525 1 5 C0.505 2.525 0.505 2.525 0 0 Z " fill="#B3B3B2" transform="translate(0,94)"/>
<path d="M0 0 C42.24 0 84.48 0 128 0 C128 0.99 128 1.98 128 3 C124.52604525 3.78734928 121.32631484 4.12391999 117.76713562 4.12025452 C116.7337355 4.12162918 115.70033539 4.12300385 114.63562012 4.12442017 C113.5128064 4.12082489 112.38999268 4.11722961 111.2331543 4.11352539 C109.44715569 4.11374443 109.44715569 4.11374443 107.62507629 4.1139679 C104.3692606 4.1133915 101.11348814 4.10838364 97.85768104 4.10139394 C94.45173821 4.09513351 91.04579449 4.09455447 87.6398468 4.09336853 C81.19429911 4.09026314 74.74876841 4.08206044 68.3032282 4.07201904 C60.96347191 4.06083329 53.62371481 4.05534125 46.28395212 4.05032361 C31.18929194 4.03987716 16.09464767 4.02229307 1 4 C0.67 2.68 0.34 1.36 0 0 Z " fill="#BEBEBE" transform="translate(0,0)"/>
<path d="M0 0 C-0.33128906 0.50402344 -0.66257812 1.00804688 -1.00390625 1.52734375 C-2.59231829 5.47034306 -2.04697933 9.40802946 -1.83398438 13.59960938 C-1.75513672 16.33752626 -1.71393304 18.46904238 -3.03125 20.9140625 C-6.06538256 22.58765149 -9.17434958 22.65543342 -12.5625 22.8125 C-13.24763672 22.86341797 -13.93277344 22.91433594 -14.63867188 22.96679688 C-16.42282742 23.07009931 -18.21338523 23.04347498 -20 23 C-20.66 22.34 -21.32 21.68 -22 21 C-21.9375 18 -21.9375 18 -21 15 C-18.5 13.75 -18.5 13.75 -16 13 C-14.77748569 10.55497138 -14.89652483 8.78730527 -14.8125 6.0625 C-14.5625 3.359375 -14.5625 3.359375 -14 1 C-9.45578968 -2.69877584 -5.1511404 -2.5755702 0 0 Z " fill="#F4BD13" transform="translate(99,70)"/>
<path d="M0 0 C2.21875 0.27734375 2.21875 0.27734375 5.96875 1.08984375 C6.29875 3.06984375 6.62875 5.04984375 6.96875 7.08984375 C7.62875 7.08984375 8.28875 7.08984375 8.96875 7.08984375 C11.1206937 10.3177593 11.16961443 11.37385184 10.96875 15.08984375 C8.15306914 15.81387597 6.27399938 16.15684971 3.40625 15.52734375 C0.51012683 15.00752677 -0.58824399 15.55165478 -3.03125 17.08984375 C-2.70125 18.07984375 -2.37125 19.06984375 -2.03125 20.08984375 C-0.71125 20.08984375 0.60875 20.08984375 1.96875 20.08984375 C1.96875 22.06984375 1.96875 24.04984375 1.96875 26.08984375 C0.15549449 25.97632858 -1.65688357 25.84871414 -3.46875 25.71484375 C-4.47808594 25.64523438 -5.48742188 25.575625 -6.52734375 25.50390625 C-7.35363281 25.36726563 -8.17992187 25.230625 -9.03125 25.08984375 C-10.42990903 22.2925257 -10.27662267 19.89699816 -10.34375 16.77734375 C-10.38113281 15.64683594 -10.41851562 14.51632813 -10.45703125 13.3515625 C-9.94591702 9.43614619 -8.67406495 7.95001171 -6.03125 5.08984375 C-5.45375 4.14109375 -4.87625 3.19234375 -4.28125 2.21484375 C-2.03125 0.08984375 -2.03125 0.08984375 0 0 Z " fill="#AD9B56" transform="translate(54.03125,22.91015625)"/>
<path d="M0 0 C3.61438698 2.24317013 5.64461659 4.93384977 7 9 C7.07029121 11.57265818 7.09370832 14.11641431 7.0625 16.6875 C7.05798828 17.38939453 7.05347656 18.09128906 7.04882812 18.81445312 C7.03706927 20.54300538 7.01913454 22.27151365 7 24 C6.01 24 5.02 24 4 24 C3.03618588 20.72303199 2.83256449 19.3767299 4.25 16.1875 C5.10808697 12.54063037 4.8105628 11.85551026 3.0625 8.6875 C0.92560174 5.65054948 0.23821979 5.07796284 -3.4375 3.875 C-8.71732304 4.06025695 -11.71915486 4.89381556 -15.75 8.375 C-19.72017806 13.0068744 -20.415351 17.11815464 -21.25 23.0625 C-22.29350654 29.75934408 -24.04818897 34.92788832 -27.6484375 40.75390625 C-29.19178144 43.12955207 -29.19178144 43.12955207 -30.1875 46.625 C-30.455625 47.40875 -30.72375 48.1925 -31 49 C-36.33646866 50.77882289 -40.95258476 50.44723163 -46 48 C-46 46.02 -46 44.04 -46 42 C-45.67 42 -45.34 42 -45 42 C-44.67 43.65 -44.34 45.3 -44 47 C-38.93605159 47.66194542 -38.93605159 47.66194542 -34.2734375 46.00390625 C-28.88664801 40.68617817 -27.96140693 33.02336398 -26.42919922 25.90917969 C-24.30093795 16.44216997 -21.79660162 8.32864049 -14.4375 1.6875 C-9.59050006 -0.69193633 -5.29885181 -1.06134272 0 0 Z " fill="#7A807B" transform="translate(106,20)"/>
<path d="M0 0 C1.79158489 -0.02696365 3.58328473 -0.04637917 5.375 -0.0625 C6.37273438 -0.07410156 7.37046875 -0.08570312 8.3984375 -0.09765625 C11 0 11 0 13 1 C13.37890625 3.07421875 13.37890625 3.07421875 13.5625 5.6875 C13.79605312 8.71071541 14.10132749 11.51584902 14.6875 14.5 C14.790625 15.325 14.89375 16.15 15 17 C12.51711164 19.48288836 10.98813844 19.28583167 7.58984375 19.32226562 C6.55537109 19.31743164 6.55537109 19.31743164 5.5 19.3125 C4.81035156 19.32861328 4.12070312 19.34472656 3.41015625 19.36132812 C1.40625 19.36328125 1.40625 19.36328125 -2 19 C-2.66 18.01 -3.32 17.02 -4 16 C-3.2884375 15.1028125 -3.2884375 15.1028125 -2.5625 14.1875 C-0.31369498 9.59993775 -0.256466 5.04972703 0 0 Z " fill="#F4BD14" transform="translate(57,73)"/>
<path d="M0 0 C1.32 0.33 2.64 0.66 4 1 C4.04898438 1.88300781 4.09796875 2.76601562 4.1484375 3.67578125 C4.51231101 9.51657844 4.94229685 15.19979147 6.125 20.9375 C6.99583973 25.33719028 7.13505789 28.64894475 6 33 C5.01 33.495 5.01 33.495 4 34 C4.20625 32.989375 4.4125 31.97875 4.625 30.9375 C5.0471494 26.50493131 4.4359485 24.13891038 3 20 C1.97386597 20.24447876 1.97386597 20.24447876 0.92700195 20.49389648 C-2.38118397 21.06590995 -5.47465976 21.11244643 -8.83203125 21.09765625 C-10.12431641 21.09443359 -11.41660156 21.09121094 -12.74804688 21.08789062 C-14.10286526 21.07953665 -15.45768297 21.07107172 -16.8125 21.0625 C-18.18684735 21.05748 -19.56119645 21.05291797 -20.93554688 21.04882812 C-24.29040924 21.03705668 -27.64518221 21.02061283 -31 21 C-31.495 18.525 -31.495 18.525 -32 16 C-31.67 16.66 -31.34 17.32 -31 18 C-21.43 17.67 -11.86 17.34 -2 17 C-0.65994159 12.97982476 -1.40017766 9.74502909 -1.94140625 5.59375 C-2 3 -2 3 0 0 Z " fill="#C89D20" transform="translate(37,74)"/>
<path d="M0 0 C1.2681958 0.49439575 1.2681958 0.49439575 2.56201172 0.9987793 C6.2792017 2.08130991 9.14847343 2.15556945 13.0078125 2.01953125 C14.32394531 1.99052734 15.64007813 1.96152344 16.99609375 1.93164062 C19.068136 1.87573932 21.13916358 1.8119578 23.21044922 1.73266602 C25.22555496 1.66006889 27.24176858 1.62061109 29.2578125 1.58203125 C31.05436279 1.52366089 31.05436279 1.52366089 32.88720703 1.46411133 C36 2 36 2 38.40185547 4.3112793 C40.4771058 7.8026835 40.35202121 9.98695823 40 14 C39.7525 14.969375 39.505 15.93875 39.25 16.9375 C38.92938254 20.86506388 40.17220929 22.91138981 42.08984375 26.265625 C43 28 43 28 43 30 C44.98 29.67 46.96 29.34 49 29 C48.505 30.485 48.505 30.485 48 32 C41.25 31.25 41.25 31.25 39 29 C38.30899447 27.00827818 37.64097297 25.00838196 37 23 C36.67 22.67 36.34 22.34 36 22 C35.7184025 17.99137681 35.73228776 14.09518643 36.6875 10.1875 C37.18697561 7.92797438 37.18697561 7.92797438 36.125 5.625 C33.18925208 3.38001629 31.21967572 4.25361945 27.71875 4.71582031 C22.63829873 5.24685886 17.53991978 5.1024828 12.4375 5.0625 C11.33341797 5.05798828 10.22933594 5.05347656 9.09179688 5.04882812 C6.394473 5.0371514 3.69726653 5.02077525 1 5 C0.505 2.525 0.505 2.525 0 0 Z " fill="#B3B3B1" transform="translate(0,94)"/>
<path d="M0 0 C2.97 0.495 2.97 0.495 6 1 C5.85691406 1.98871094 5.71382812 2.97742187 5.56640625 3.99609375 C4.99321649 8.01448757 4.45463197 12.03653184 3.9375 16.0625 C3.84662109 16.74376953 3.75574219 17.42503906 3.66210938 18.12695312 C3.15289583 22.112602 2.9060022 25.98316054 3 30 C5.31459868 28.18182999 5.95377187 27.24384457 6.51171875 24.30078125 C6.56972656 23.31464844 6.62773438 22.32851562 6.6875 21.3125 C6.790625 19.559375 6.89375 17.80625 7 16 C10.96 16 14.92 16 19 16 C19 16.33 19 16.66 19 17 C15.37 17 11.74 17 8 17 C8.061875 18.69125 8.12375 20.3825 8.1875 22.125 C8.20577394 26.84576828 7.62362246 29.9552487 5 34 C6.94090826 35.94090826 10.47293902 35.39919435 13.0625 35.5625 C14.35285156 35.64628906 15.64320312 35.73007813 16.97265625 35.81640625 C18.47119141 35.90728516 18.47119141 35.90728516 20 36 C20 36.66 20 37.32 20 38 C18.10590022 38.22354607 16.2095652 38.42819951 14.3125 38.625 C13.25675781 38.74101563 12.20101562 38.85703125 11.11328125 38.9765625 C7.82962272 39.00128264 5.88588943 38.52874143 3 37 C2.67 36.34 2.34 35.68 2 35 C1.71125 35.9075 1.4225 36.815 1.125 37.75 C0.23158284 40.33098291 -0.75227117 42.58842326 -2 45 C-1.88535985 42.29087219 -1.75862846 39.58320339 -1.625 36.875 C-1.5940625 36.11445312 -1.563125 35.35390625 -1.53125 34.5703125 C-1.29542853 30.01109734 -0.50915799 26.33734383 1 22 C1.23076292 19.83921989 1.39663772 17.67060786 1.5 15.5 C1.71581903 10.96780028 2.40963898 7.25806336 4 3 C2.68 2.01 1.36 1.02 0 0 Z " fill="#C79C20" transform="translate(49,56)"/>
<path d="M0 0 C0.66 0 1.32 0 2 0 C1.67 1.65 1.34 3.3 1 5 C2.32 5 3.64 5 5 5 C5.33 4.34 5.66 3.68 6 3 C8.18513146 6.32520005 9.81329343 8.98580866 10 13 C9.19290688 15.7554262 8.15386712 18.37283363 7 21 C3.35586678 20.79754815 2.1802012 20.18968548 -0.375 17.5 C-2.50967104 12.90224699 -1.98052464 9.84914002 -1 5 C-0.814375 3.989375 -0.62875 2.97875 -0.4375 1.9375 C-0.293125 1.298125 -0.14875 0.65875 0 0 Z " fill="#B39A45" transform="translate(79,101)"/>
<path d="M0 0 C4.75 0.875 4.75 0.875 7 2 C6.67 2.86625 6.34 3.7325 6 4.625 C4.71591167 8.37212612 4.71591167 8.37212612 5 14 C10.94 14 16.88 14 23 14 C22.01 15.485 22.01 15.485 21 17 C18.2114711 17.22107787 15.65346819 17.28107535 12.875 17.1875 C11.74384766 17.16719727 11.74384766 17.16719727 10.58984375 17.14648438 C8.72625873 17.11109985 6.86304022 17.05729167 5 17 C5.04640625 17.74765625 5.0928125 18.4953125 5.140625 19.265625 C5.43844423 27.39183542 5.43844423 27.39183542 3.0625 30.6875 C1 32 1 32 0 32 C1.47720729 9.90475048 1.47720729 9.90475048 4 2 C2.68 1.67 1.36 1.34 0 1 C0 0.67 0 0.34 0 0 Z " fill="#957C2F" transform="translate(51,55)"/>
<path d="M0 0 C3.42834247 1.21363323 4.89819405 2.86830311 6.75 5.9375 C7.17796875 6.62714844 7.6059375 7.31679688 8.046875 8.02734375 C9 10 9 10 9 13 C8.484375 12.835 7.96875 12.67 7.4375 12.5 C4.19157262 11.83416874 1.30456168 11.75966824 -2 12 C-3.7511573 13.4166747 -3.7511573 13.4166747 -5 15 C-5.99 15 -6.98 15 -8 15 C-8.34413266 10.78063439 -7.53975233 8.69304399 -5.125 5.25 C-4.59132812 4.47140625 -4.05765625 3.6928125 -3.5078125 2.890625 C-2 1 -2 1 0 0 Z " fill="#EDC838" transform="translate(54,24)"/>
<path d="M0 0 C1.65 0.33 3.3 0.66 5 1 C5 2.32 5 3.64 5 5 C6.32 5.33 7.64 5.66 9 6 C8.125 9.875 8.125 9.875 7 11 C4.46950598 11.07313567 1.96695163 11.09247527 -0.5625 11.0625 C-1.62887695 11.05573242 -1.62887695 11.05573242 -2.71679688 11.04882812 C-4.47790013 11.03700864 -6.23896036 11.01907263 -8 11 C-8.625 8.625 -8.625 8.625 -9 6 C-7 4 -7 4 -3.875 3.875 C-2.92625 3.91625 -1.9775 3.9575 -1 4 C-0.67 2.68 -0.34 1.36 0 0 Z " fill="#F5BD13" transform="translate(96,39)"/>
<path d="M0 0 C1.11375 0.1546875 1.11375 0.1546875 2.25 0.3125 C2.745 1.3025 2.745 1.3025 3.25 2.3125 C1.6 2.3125 -0.05 2.3125 -1.75 2.3125 C-2.41 4.6225 -3.07 6.9325 -3.75 9.3125 C-4.41 9.3125 -5.07 9.3125 -5.75 9.3125 C-5.853125 9.93125 -5.95625 10.55 -6.0625 11.1875 C-6.75 13.3125 -6.75 13.3125 -9.75 15.3125 C-12.10105317 15.60410489 -14.4661634 15.78705587 -16.83203125 15.91015625 C-17.5238298 15.94934677 -18.21562836 15.98853729 -18.9283905 16.02891541 C-21.13939116 16.15283929 -23.35078892 16.2645468 -25.5625 16.375 C-27.76333217 16.49101099 -29.96397404 16.60965368 -32.16447449 16.73179626 C-34.16902084 16.84212427 -36.17398277 16.94482336 -38.17895508 17.04711914 C-41.42648396 17.28845803 -44.55061851 17.71753163 -47.75 18.3125 C-47.75 17.6525 -47.75 16.9925 -47.75 16.3125 C-43.25334278 14.59690789 -39.40340451 14.02156165 -34.6015625 13.8984375 C-33.94417084 13.87907135 -33.28677917 13.8597052 -32.60946655 13.8397522 C-30.53143865 13.78047539 -28.45335376 13.73378206 -26.375 13.6875 C-24.9570085 13.64927222 -23.53903903 13.61021777 -22.12109375 13.5703125 C-18.66426539 13.47481829 -15.20727017 13.39059811 -11.75 13.3125 C-11.09 11.9925 -10.43 10.6725 -9.75 9.3125 C-9.09 9.3125 -8.43 9.3125 -7.75 9.3125 C-7.6675 8.755625 -7.585 8.19875 -7.5 7.625 C-6.17504019 3.53970726 -4.44699163 0.50533996 0 0 Z " fill="#9F925D" transform="translate(47.75,53.6875)"/>
<path d="M0 0 C0.99 0.33 1.98 0.66 3 1 C3.36452514 3.87402467 3.71689691 6.74869043 4.0625 9.625 C4.16626953 10.43324219 4.27003906 11.24148437 4.37695312 12.07421875 C4.91292799 16.62076413 5.04580069 20.48038581 4 25 C1.625 24.6875 1.625 24.6875 -1 24 C-3.1642235 20.75366476 -3.37569856 19.75698557 -3 16 C-2.34 15.01 -1.68 14.02 -1 13 C-0.79536843 10.0584017 -0.79536843 10.0584017 -0.9375 6.875 C-0.99148932 4.91730017 -1.02046024 2.95833727 -1 1 C-0.67 0.67 -0.34 0.34 0 0 Z " fill="#EEC632" transform="translate(44,92)"/>
<path d="M0 0 C0.66 0 1.32 0 2 0 C1 3 1 3 -1.1875 4.125 C-7.89678193 6.21233216 -14.41696649 6.1208577 -21.375 6.0625 C-22.39722656 6.05798828 -23.41945313 6.05347656 -24.47265625 6.04882812 C-26.98183194 6.037103 -29.4908849 6.02069176 -32 6 C-33.08872667 10.02738187 -32.99389303 13.60464384 -32.83984375 17.7578125 C-33 20 -33 20 -35 22 C-35.05394705 19.39555652 -35.09364469 16.79223002 -35.125 14.1875 C-35.14175781 13.44951172 -35.15851562 12.71152344 -35.17578125 11.95117188 C-35.21074628 8.08753574 -35.19397555 6.29096332 -33 3 C-30.54442469 2.60358938 -28.31012069 2.39510215 -25.83984375 2.3046875 C-25.13477188 2.26691193 -24.42970001 2.22913635 -23.70326233 2.19021606 C-21.44845148 2.07160997 -19.19331626 1.97244243 -16.9375 1.875 C-14.67842884 1.76709404 -12.41965479 1.65515792 -10.161026 1.5383606 C-8.7546081 1.46672866 -7.34788107 1.40089641 -5.94090271 1.34127808 C-2.686978 1.44739781 -2.686978 1.44739781 0 0 Z " fill="#C79C20" transform="translate(39,67)"/>
<path d="M0 0 C0.09579384 8.07861415 0.12513633 15.98340366 -1 24 C-2.32 23.67 -3.64 23.34 -5 23 C-5 15.74 -5 8.48 -5 1 C-2 0 -2 0 0 0 Z " fill="#8F7D40" transform="translate(5,71)"/>
<path d="M0 0 C0.845625 0.45375 1.69125 0.9075 2.5625 1.375 C2.2325 2.035 1.9025 2.695 1.5625 3.375 C0.81484375 3.29507812 0.0671875 3.21515625 -0.703125 3.1328125 C-3.50782975 3.12361168 -3.50782975 3.12361168 -5.421875 4.9921875 C-9.90300177 10.72247792 -11.5440849 15.08154768 -11.4375 22.375 C-12.4275 22.045 -13.4175 21.715 -14.4375 21.375 C-14.9325 23.355 -14.9325 23.355 -15.4375 25.375 C-16.18746103 17.54207371 -14.89120014 11.91007759 -10.4375 5.375 C-5.20953647 -0.94718845 -5.20953647 -0.94718845 0 0 Z " fill="#717976" transform="translate(55.4375,20.625)"/>
<path d="M0 0 C3.70750827 -0.71642672 7.27786036 -0.58544476 11 0 C14.41311667 2.52570633 15.66637768 3.99913304 17 8 C17.07029121 10.57265818 17.09370832 13.11641431 17.0625 15.6875 C17.05798828 16.38939453 17.05347656 17.09128906 17.04882812 17.81445312 C17.03706927 19.54300538 17.01913454 21.27151365 17 23 C16.01 23 15.02 23 14 23 C13.03618588 19.72303199 12.83256449 18.3767299 14.25 15.1875 C15.10808697 11.54063037 14.8105628 10.85551026 13.0625 7.6875 C10.89641881 4.5888825 10.29678845 4.0847967 6.5 3 C5.345 3 4.19 3 3 3 C2.030625 2.979375 1.06125 2.95875 0.0625 2.9375 C-0.9584375 2.9684375 -0.9584375 2.9684375 -2 3 C-1.34 2.01 -0.68 1.02 0 0 Z " fill="#566465" transform="translate(96,21)"/>
<path d="M0 0 C1.96301592 3.50538557 2.95902388 7.13351728 4 11 C3.01 11.66 2.02 12.32 1 13 C-0.2188121 16.55672179 -0.2188121 16.55672179 -1 20 C-1.66 20 -2.32 20 -3 20 C-4.8687629 16.15254697 -5.17164173 14.10074607 -4 10 C-3.690625 8.80375 -3.38125 7.6075 -3.0625 6.375 C-2 3 -2 3 0 0 Z " fill="#EFBA17" transform="translate(80,60)"/>
<path d="M0 0 C2.375 1.5 2.375 1.5 4 3 C3.67 3.99 3.34 4.98 3 6 C1.0641649 6.36315666 -0.87375248 6.71522731 -2.8125 7.0625 C-3.89144531 7.25972656 -4.97039062 7.45695312 -6.08203125 7.66015625 C-9 8 -9 8 -12 7 C-11.8125 5.1875 -11.8125 5.1875 -11 3 C-7.37962826 0.10370261 -4.5847255 -0.58528411 0 0 Z " fill="#F5BD13" transform="translate(102,30)"/>
<path d="M0 0 C0.80179688 0.00451172 1.60359375 0.00902344 2.4296875 0.01367188 C4.41149006 0.02546832 6.39325433 0.04340395 8.375 0.0625 C8.705 1.3825 9.035 2.7025 9.375 4.0625 C7.14600213 4.23140918 4.91679338 4.39753687 2.6875 4.5625 C0.82544922 4.70171875 0.82544922 4.70171875 -1.07421875 4.84375 C-3.93999329 5.02029937 -6.75599957 5.10638528 -9.625 5.0625 C-9.955 3.7425 -10.285 2.4225 -10.625 1.0625 C-7.31505287 -0.59247356 -3.63377 -0.03834335 0 0 Z " fill="#F5BD13" transform="translate(94.625,55.9375)"/>
<path d="M0 0 C0.99 0.33 1.98 0.66 3 1 C2.01 1.495 2.01 1.495 1 2 C0.39734195 4.14534731 -0.10952625 6.3181369 -0.5625 8.5 C-1.90646492 14.90646492 -1.90646492 14.90646492 -3 16 C-3.05377367 17.47877602 -3.0926886 18.95809941 -3.125 20.4375 C-3.67885215 26.97107795 -7.02952413 31.00251882 -11 36 C-11.66 36.99 -12.32 37.98 -13 39 C-12.69508993 35.03616911 -11.74365668 32.45773884 -9.625 29.1875 C-6.61181058 24.11947081 -5.88934547 18.96915188 -5.16455078 13.20385742 C-4.43963941 7.97207192 -2.85804388 4.45363892 0 0 Z " fill="#AD9C56" transform="translate(89,28)"/>
<path d="M0 0 C1.875 1.25 1.875 1.25 3.875 4.25 C3.57962173 5.92381019 3.23606097 7.58911955 2.875 9.25 C2.77493043 10.81054432 2.71510604 12.37399419 2.6875 13.9375 C2.67332031 14.70449219 2.65914062 15.47148438 2.64453125 16.26171875 C2.69338864 18.48237909 2.69338864 18.48237909 4.875 20.25 C4.38 21.735 4.38 21.735 3.875 23.25 C1.32934934 20.65103728 0.8820207 19.34807709 0.6171875 15.6484375 C0.64623707 14.30687566 0.69093249 12.96557565 0.75 11.625 C1.11678264 6.79703097 1.11678264 6.79703097 -0.125 2.25 C-0.86492188 2.41242188 -1.60484375 2.57484375 -2.3671875 2.7421875 C-7.66745991 3.45844053 -12.90811559 3.3941924 -18.25 3.375 C-19.33410156 3.37886719 -20.41820312 3.38273437 -21.53515625 3.38671875 C-22.57800781 3.38542969 -23.62085938 3.38414063 -24.6953125 3.3828125 C-25.64164551 3.38168457 -26.58797852 3.38055664 -27.56298828 3.37939453 C-29.90123736 3.26130114 -31.88758219 2.91247566 -34.125 2.25 C-33.795 1.59 -33.465 0.93 -33.125 0.25 C-32.32803711 0.25523682 -31.53107422 0.26047363 -30.70996094 0.26586914 C-27.09831531 0.286659 -23.48668229 0.29966661 -19.875 0.3125 C-18.62074219 0.32087891 -17.36648437 0.32925781 -16.07421875 0.33789062 C-14.86894531 0.34111328 -13.66367187 0.34433594 -12.421875 0.34765625 C-11.31166992 0.35289307 -10.20146484 0.35812988 -9.05761719 0.36352539 C-5.79293356 0.23714528 -3.06775621 -1.08273749 0 0 Z " fill="#DEDFE2" transform="translate(34.125,97.75)"/>
<path d="M0 0 C1.32 0.33 2.64 0.66 4 1 C3.74719023 5.29776606 3.34956023 7.54651646 0.6875 11 C-2 13 -2 13 -4.3125 12.8125 C-4.869375 12.544375 -5.42625 12.27625 -6 12 C-5.38125 10.948125 -4.7625 9.89625 -4.125 8.8125 C-2.48420892 5.94984323 -1.13015547 3.10792754 0 0 Z " fill="#7C827E" transform="translate(61,44)"/>
<path d="M0 0 C1.65 0.33 3.3 0.66 5 1 C5.33 2.98 5.66 4.96 6 7 C6.66 7 7.32 7 8 7 C10.1519437 10.22791555 10.20086443 11.28400809 10 15 C5.04653013 16.59789351 0.86717585 15.28306814 -4 14 C-3.67 13.34 -3.34 12.68 -3 12 C4.42857143 11.71428571 4.42857143 11.71428571 8 14 C5.12408789 7.0048711 5.12408789 7.0048711 0 2 C0 1.34 0 0.68 0 0 Z " fill="#AA9752" transform="translate(55,23)"/>
<path d="M0 0 C0.4125 0.495 0.825 0.99 1.25 1.5 C3.12202338 3.43386092 3.12202338 3.43386092 7 3 C7 4.98 7 6.96 7 9 C3.37 8.67 -0.26 8.34 -4 8 C-4.33 6.68 -4.66 5.36 -5 4 C-4.01 4 -3.02 4 -2 4 C-1.34 2.68 -0.68 1.36 0 0 Z " fill="#957C2F" transform="translate(49,40)"/>
<path d="M0 0 C0.33 0 0.66 0 1 0 C1 4.95 1 9.9 1 15 C0.34 15 -0.32 15 -1 15 C-1.99 17.475 -1.99 17.475 -3 20 C-4.65 19.67 -6.3 19.34 -8 19 C-7 16 -7 16 -4.5 13.875 C-1.4950984 10.41936316 -1.34923149 8.42116908 -1.140625 3.98828125 C-1 2 -1 2 0 0 Z " fill="#947F3B" transform="translate(110,79)"/>
<path d="M0 0 C0.66 0.33 1.32 0.66 2 1 C2 1.66 2 2.32 2 3 C3.65 3.33 5.3 3.66 7 4 C6.05016642 5.50539661 5.08988109 7.00420347 4.125 8.5 C3.59132813 9.3353125 3.05765625 10.170625 2.5078125 11.03125 C2.01023437 11.6809375 1.51265625 12.330625 1 13 C0.34 13 -0.32 13 -1 13 C-2.20577428 8.05632546 -1.6290678 4.79137588 0 0 Z " fill="#8E7C41" transform="translate(50,90)"/>
<path d="M0 0 C1.89951752 3.79903504 0.26526192 8.12332993 -1 12 C-2.62121969 14.84591816 -4.33919058 17.06997627 -7 19 C-10.375 19.4375 -10.375 19.4375 -13 19 C-12.67 16.69 -12.34 14.38 -12 12 C-11.67 13.32 -11.34 14.64 -11 16 C-9.35 15.67 -7.7 15.34 -6 15 C-6 13.35 -6 11.7 -6 10 C-5.01 10 -4.02 10 -3 10 C-2.87625 8.72125 -2.7525 7.4425 -2.625 6.125 C-2.25 2.25 -2.25 2.25 0 0 Z " fill="#DEDFE2" transform="translate(76,47)"/>
<path d="M0 0 C1.125 3.75 1.125 3.75 0 6 C-0.33338596 9.45812169 -0.33338596 9.45812169 0 13 C1.35405861 14.60411246 1.35405861 14.60411246 3 16 C4.1875 19.1875 4.1875 19.1875 5 22 C6.98 21.67 8.96 21.34 11 21 C10.67 21.99 10.34 22.98 10 24 C3.25 23.25 3.25 23.25 1 21 C0.30899447 19.00827818 -0.35902703 17.00838196 -1 15 C-1.33 14.67 -1.66 14.34 -2 14 C-2.4457809 8.98237317 -2.35033491 4.55377389 0 0 Z " fill="#C5C6C6" transform="translate(38,102)"/>
<path d="M0 0 C4.75 0.875 4.75 0.875 7 2 C7 4.64 7 7.28 7 10 C4.97954558 9.39816251 2.97888961 8.72693904 1 8 C-0.35439668 5.29120665 -0.06501451 2.99066732 0 0 Z " fill="#EDC737" transform="translate(80,108)"/>
<path d="M0 0 C2.22998296 2.22998296 3.61442213 4.16286436 5 7 C4.573404 10.86521831 3.22021838 13.88419541 1.4375 17.3125 C0.98246094 18.19550781 0.52742188 19.07851562 0.05859375 19.98828125 C-0.29074219 20.65214844 -0.64007813 21.31601563 -1 22 C-4.375 21.3125 -4.375 21.3125 -8 20 C-9.4375 17.375 -9.4375 17.375 -10 15 C-9.38125 15.7115625 -9.38125 15.7115625 -8.75 16.4375 C-6.79201859 18.18569769 -5.58175355 18.66687051 -3 19 C0.34298992 17.32850504 0.81118736 14.39660753 2 11 C1.83492354 8.42459787 1.83492354 8.42459787 1 6 C0.66055205 4.00102872 0.32578384 2.00124361 0 0 Z " fill="#DEDFE2" transform="translate(88,105)"/>
<path d="M0 0 C0.66 0 1.32 0 2 0 C3.38008165 6.72789805 4.2429092 13.71686342 1 20 C0.67 20 0.34 20 0 20 C0 13.4 0 6.8 0 0 Z " fill="#4F5E60" transform="translate(0,72)"/>
<path d="M0 0 C2 3.75 2 3.75 2 6 C11.9 6 21.8 6 32 6 C32 6.33 32 6.66 32 7 C27.78317252 7.21721322 23.56603409 7.41403398 19.34741211 7.59204102 C17.91258349 7.65545437 16.47798927 7.72442591 15.04370117 7.79907227 C12.98132213 7.90543934 10.91892477 7.99175714 8.85546875 8.07421875 C7.61434326 8.13182373 6.37321777 8.18942871 5.09448242 8.2487793 C2 8 2 8 0.05200195 6.66333008 C-1 5 -1 5 -0.6875 2.3125 C-0.3471875 1.1678125 -0.3471875 1.1678125 0 0 Z " fill="#AD9C59" transform="translate(4,89)"/>
<path d="M0 0 C1.11375 0.1546875 1.11375 0.1546875 2.25 0.3125 C2.58 0.9725 2.91 1.6325 3.25 2.3125 C1.6 2.3125 -0.05 2.3125 -1.75 2.3125 C-2.41 4.6225 -3.07 6.9325 -3.75 9.3125 C-4.41 9.3125 -5.07 9.3125 -5.75 9.3125 C-6.41 10.6325 -7.07 11.9525 -7.75 13.3125 C-8.75 11.3125 -8.75 11.3125 -8.0625 8.5 C-4.78646564 0.54391655 -4.78646564 0.54391655 0 0 Z " fill="#B09742" transform="translate(47.75,53.6875)"/>
<path d="M0 0 C2.45391569 3.68087353 2.22802759 6.44355588 2.125 10.6875 C2.11597656 11.38939453 2.10695313 12.09128906 2.09765625 12.81445312 C2.07413704 14.54311525 2.03826713 16.27160145 2 18 C1.01 18 0.02 18 -1 18 C-2.2795752 13.64944432 -1.46293666 11.2059429 0 7 C-0.33 6.01 -0.66 5.02 -1 4 C-0.5625 1.8125 -0.5625 1.8125 0 0 Z " fill="#737A78" transform="translate(111,26)"/>
<path d="M0 0 C1.65 0.33 3.3 0.66 5 1 C5.38909985 2.45463481 5.76088029 3.91391207 6.125 5.375 C6.43824219 6.59316406 6.43824219 6.59316406 6.7578125 7.8359375 C6.83773437 8.55007812 6.91765625 9.26421875 7 10 C6.34 10.66 5.68 11.32 5 12 C4 10.33333333 3 8.66666667 2 7 C1.4225 6.113125 0.845 5.22625 0.25 4.3125 C-0.1625 3.549375 -0.575 2.78625 -1 2 C-0.67 1.34 -0.34 0.68 0 0 Z " fill="#8E7C40" transform="translate(36,93)"/>
<path d="M0 0 C0.66 0 1.32 0 2 0 C1.34 1.98 0.68 3.96 0 6 C-2.75 6.6875 -2.75 6.6875 -6 7 C-8.125 5.6875 -8.125 5.6875 -10 4 C-11.31836295 3.30419733 -12.64791086 2.62775567 -14 2 C-13 1 -13 1 -10.5625 0.75 C-9.2940625 0.87375 -9.2940625 0.87375 -8 1 C-7.34 1.99 -6.68 2.98 -6 4 C-4.68 4 -3.36 4 -2 4 C-1.34 2.68 -0.68 1.36 0 0 Z " fill="#AEADA7" transform="translate(109,94)"/>
<path d="M0 0 C0.99 0.33 1.98 0.66 3 1 C2.88637738 2.4800841 2.75877092 3.95910074 2.625 5.4375 C2.55539063 6.26121094 2.48578125 7.08492188 2.4140625 7.93359375 C2.27742188 8.61550781 2.14078125 9.29742187 2 10 C1.01 10.495 1.01 10.495 0 11 C-1.77084117 8.29165469 -2.01052504 7.10735541 -1.6875 3.8125 C-1 1 -1 1 0 0 Z " fill="#957C2F" transform="translate(100,73)"/>
<path d="M0 0 C1.32 0 2.64 0 4 0 C5.75 2 5.75 2 7 4 C6.34 4.66 5.68 5.32 5 6 C4.67 5.67 4.34 5.34 4 5 C1.64686445 4.92728259 -0.70833668 4.91629132 -3.0625 4.9375 C-4.35285156 4.94652344 -5.64320312 4.95554687 -6.97265625 4.96484375 C-7.97167969 4.97644531 -8.97070312 4.98804687 -10 5 C-10 4.67 -10 4.34 -10 4 C-7.36 4 -4.72 4 -2 4 C-1.34 2.68 -0.68 1.36 0 0 Z " fill="#A69450" transform="translate(97,91)"/>
<path d="M0 0 C0 2.31 0 4.62 0 7 C-0.33 7 -0.66 7 -1 7 C-1 10.96 -1 14.92 -1 19 C-1.66 19 -2.32 19 -3 19 C-3 13.06 -3 7.12 -3 1 C-1 0 -1 0 0 0 Z " fill="#8C7D48" transform="translate(112,49)"/>
<path d="M0 0 C1.32 0.66 2.64 1.32 4 2 C3.67 2.99 3.34 3.98 3 5 C0.69 5.33 -1.62 5.66 -4 6 C-3.6875 4.125 -3.6875 4.125 -3 2 C-2.01 1.34 -1.02 0.68 0 0 Z " fill="#957C2F" transform="translate(89,62)"/>
<path d="M0 0 C0.86625 0.433125 1.7325 0.86625 2.625 1.3125 C2.295 1.9725 1.965 2.6325 1.625 3.3125 C0.8825 3.23 0.14 3.1475 -0.625 3.0625 C-4.15657027 3.38355184 -5.14130364 4.66515617 -7.375 7.3125 C-7.375 6.6525 -7.375 5.9925 -7.375 5.3125 C-8.035 4.9825 -8.695 4.6525 -9.375 4.3125 C-4.20576923 -0.85673077 -4.20576923 -0.85673077 0 0 Z " fill="#7C827E" transform="translate(55.375,20.6875)"/>
<path d="M0 0 C0.33 0 0.66 0 1 0 C1.33 6.27 1.66 12.54 2 19 C-1.37469017 13.93796475 -2.32686678 11.89287468 -1.125 5.75 C-0.92132813 4.67234375 -0.71765625 3.5946875 -0.5078125 2.484375 C-0.34023438 1.66453125 -0.17265625 0.8446875 0 0 Z " fill="#A8995C" transform="translate(40,102)"/>
<path d="M0 0 C0.66 0.33 1.32 0.66 2 1 C2.484375 2.77734375 2.484375 2.77734375 2.75 4.9375 C2.89695312 6.00291016 2.89695312 6.00291016 3.046875 7.08984375 C3 9 3 9 1 11 C0.01 8.03 -0.98 5.06 -2 2 C-1.34 1.34 -0.68 0.68 0 0 Z " fill="#957C2F" transform="translate(73,76)"/>
<path d="M0 0 C2 1.25 2 1.25 4 3 C4 4.32 4 5.64 4 7 C5.65 7 7.3 7 9 7 C9 7.33 9 7.66 9 8 C8.071875 8.268125 7.14375 8.53625 6.1875 8.8125 C3.14815711 9.94480421 2.09926383 10.69900511 0 13 C0.12568359 11.96939453 0.12568359 11.96939453 0.25390625 10.91796875 C0.35574219 10.01691406 0.45757812 9.11585937 0.5625 8.1875 C0.66691406 7.29417969 0.77132812 6.40085937 0.87890625 5.48046875 C1.15658709 2.86624428 1.15658709 2.86624428 0 0 Z " fill="#7C827E" transform="translate(41,46)"/>
<path d="M0 0 C2.0625 0.4375 2.0625 0.4375 4 1 C3.67 2.65 3.34 4.3 3 6 C2.01 6.33 1.02 6.66 0 7 C-0.38133299 5.0085944 -0.71325582 3.00720923 -1 1 C-0.67 0.67 -0.34 0.34 0 0 Z " fill="#8D908C" transform="translate(61,44)"/>
<path d="M0 0 C1.32 0 2.64 0 4 0 C4 1.98 4 3.96 4 6 C2.35 6 0.7 6 -1 6 C-1.042721 4.33388095 -1.04063832 2.66617115 -1 1 C-0.67 0.67 -0.34 0.34 0 0 Z " fill="#95937D" transform="translate(52,43)"/>
<path d="M0 0 C0.99 0 1.98 0 3 0 C3.66 1.98 4.32 3.96 5 6 C4.525625 6.391875 4.05125 6.78375 3.5625 7.1875 C1.64820367 9.40808374 1.38733012 11.13375709 1 14 C0.67 14 0.34 14 0 14 C0.08378906 13.24074219 0.16757813 12.48148438 0.25390625 11.69921875 C0.35574219 10.70535156 0.45757812 9.71148437 0.5625 8.6875 C0.66691406 7.70136719 0.77132812 6.71523438 0.87890625 5.69921875 C1.16602527 2.90069653 1.16602527 2.90069653 0 0 Z " fill="#AE9B51" transform="translate(107,29)"/>
<path d="M0 0 C3.26782914 1.08927638 3.81937333 1.68347929 5.75 4.375 C6.42289062 5.28378906 6.42289062 5.28378906 7.109375 6.2109375 C8 8 8 8 7 11 C5.62437146 9.71034824 4.29233607 8.37310707 3 7 C3 6.34 3 5.68 3 5 C2.34 5 1.68 5 1 5 C0.505 2.525 0.505 2.525 0 0 Z " fill="#7C827E" transform="translate(60,25)"/>
<path d="M0 0 C1.50433594 0.01353516 1.50433594 0.01353516 3.0390625 0.02734375 C3.80992188 0.03894531 4.58078125 0.05054687 5.375 0.0625 C5.375 0.3925 5.375 0.7225 5.375 1.0625 C4.36179687 1.08376953 4.36179687 1.08376953 3.328125 1.10546875 C-2.57106477 1.30798655 -2.57106477 1.30798655 -7.25 4.625 C-7.70375 5.429375 -8.1575 6.23375 -8.625 7.0625 C-9.615 6.7325 -10.605 6.4025 -11.625 6.0625 C-7.74019499 1.01225348 -6.34759713 -0.07380927 0 0 Z " fill="#697371" transform="translate(100.625,19.9375)"/>
<path d="M0 0 C0.75 1.5625 0.75 1.5625 1 4 C-0.13084437 6.50286409 -1.52139516 8.67007722 -3 11 C-4.65 11 -6.3 11 -8 11 C-8 10.34 -8 9.68 -8 9 C-6.35 8.67 -4.7 8.34 -3 8 C-2.87625 7.236875 -2.7525 6.47375 -2.625 5.6875 C-2 3 -2 3 0 0 Z " fill="#A9A9A1" transform="translate(51,113)"/>
<path d="M0 0 C1.65 0.33 3.3 0.66 5 1 C4.67 2.32 4.34 3.64 4 5 C2.35 4.67 0.7 4.34 -1 4 C-0.67 2.68 -0.34 1.36 0 0 Z " fill="#C89D20" transform="translate(96,39)"/>
<path d="M0 0 C0 0.66 0 1.32 0 2 C-7.75 3.125 -7.75 3.125 -10 2 C-10 1.34 -10 0.68 -10 0 C-6.30581799 -1.231394 -3.7943739 -0.64432764 0 0 Z " fill="#F5BD13" transform="translate(59,33)"/>
<path d="M0 0 C1.65 0.33 3.3 0.66 5 1 C5 2.32 5 3.64 5 5 C3.35 4.67 1.7 4.34 0 4 C0 2.68 0 1.36 0 0 Z " fill="#957C2F" transform="translate(96,63)"/>
<path d="M0 0 C0.99 0.33 1.98 0.66 3 1 C3 2.98 3 4.96 3 7 C2.01 6.67 1.02 6.34 0 6 C-0.495 7.98 -0.495 7.98 -1 10 C-1.02689216 8.52093108 -1.04634621 7.04172517 -1.0625 5.5625 C-1.07410156 4.73878906 -1.08570313 3.91507813 -1.09765625 3.06640625 C-1 1 -1 1 0 0 Z " fill="#7C827E" transform="translate(41,36)"/>
<path d="M0 0 C3.31035357 3.31035357 3.71674268 4.46788281 4 9 C3.01 10.485 3.01 10.485 2 12 C1.34 8.04 0.68 4.08 0 0 Z " fill="#DEDFE2" transform="translate(70,33)"/>
<path d="M0 0 C0.66 0 1.32 0 2 0 C1.45838092 3.79133356 0.00716275 5.66109564 -3 8 C-5.75 8.25 -5.75 8.25 -8 8 C-4.25 6 -4.25 6 -2 6 C-1.7834375 5.071875 -1.7834375 5.071875 -1.5625 4.125 C-1 2 -1 2 0 0 Z " fill="#D7D7DA" transform="translate(111,94)"/>
<path d="M0 0 C3.19017818 2.12678545 3.45605979 2.41001287 4.3125 5.875 C4.49425781 6.55304688 4.67601563 7.23109375 4.86328125 7.9296875 C5.03268448 10.49493638 4.30260707 11.82410954 3 14 C2.86722656 13.32453125 2.73445313 12.6490625 2.59765625 11.953125 C2.42105469 11.06109375 2.24445313 10.1690625 2.0625 9.25 C1.88847656 8.36828125 1.71445313 7.4865625 1.53515625 6.578125 C1.07631512 4.36764947 0.56663926 2.18487932 0 0 Z " fill="#AB9A56" transform="translate(84,104)"/>
<path d="M0 0 C0.66 0 1.32 0 2 0 C1.01 4.29 0.02 8.58 -1 13 C-1.33 13 -1.66 13 -2 13 C-2.05447047 11.58376784 -2.09300508 10.16691809 -2.125 8.75 C-2.14820312 7.96109375 -2.17140625 7.1721875 -2.1953125 6.359375 C-1.9828378 3.79268059 -1.28654105 2.2083933 0 0 Z " fill="#DEDFE2" transform="translate(80,31)"/>
<path d="M0 0 C2.475 0.99 2.475 0.99 5 2 C4.67 2.99 4.34 3.98 4 5 C2.68 5 1.36 5 0 5 C0 3.35 0 1.7 0 0 Z " fill="#937C33" transform="translate(42,117)"/>
<path d="M0 0 C2.31 0 4.62 0 7 0 C6.67 0.99 6.34 1.98 6 3 C3.69 2.67 1.38 2.34 -1 2 C-0.67 1.34 -0.34 0.68 0 0 Z " fill="#AF8E29" transform="translate(52,35)"/>
<path d="M0 0 C0.66 0 1.32 0 2 0 C2 1.65 2 3.3 2 5 C0.02 5.99 0.02 5.99 -2 7 C-1.34 4.69 -0.68 2.38 0 0 Z " fill="#EDC838" transform="translate(42,63)"/>
<path d="M0 0 C1.98 0.495 1.98 0.495 4 1 C3.67 1.99 3.34 2.98 3 4 C1.68 4 0.36 4 -1 4 C-0.67 2.68 -0.34 1.36 0 0 Z " fill="#C89D20" transform="translate(95,51)"/>
</svg>
