<?xml version="1.0" encoding="UTF-8"?>
<svg version="1.1" xmlns="http://www.w3.org/2000/svg" width="128" height="128">
<path d="M0 0 C42.24 0 84.48 0 128 0 C128 42.24 128 84.48 128 128 C85.76 128 43.52 128 0 128 C0 85.76 0 43.52 0 0 Z " fill="#FBFBFB" transform="translate(0,0)"/>
<path d="M0 0 C5.34883721 0.34883721 5.34883721 0.34883721 7.625 2.625 C8.305625 3.800625 8.305625 3.800625 9 5 C9.3403125 5.54269531 9.680625 6.08539063 10.03125 6.64453125 C12.11481678 10.06009251 13.51055981 12.9621184 14 17 C15.98 17.495 15.98 17.495 18 18 C19.19287411 21.87684087 20 24.91621923 20 29 C18.02 29 16.04 29 14 29 C14.495 31.97 14.495 31.97 15 35 C15.66 35 16.32 35 17 35 C18.86400201 38.12327054 19.16998822 39.98374405 18.625 43.5625 C18.25448895 46.11730295 18 48.40671762 18 51 C18.66 51 19.32 51 20 51 C19.95875 49.88625 19.9175 48.7725 19.875 47.625 C20 44 20 44 22 42 C22.45811675 40.02764667 22.45811675 40.02764667 22.625 37.875 C22.810625 35.956875 22.810625 35.956875 23 34 C23.66 34 24.32 34 25 34 C25.103125 33.484375 25.20625 32.96875 25.3125 32.4375 C26.27258892 29.03354837 27.29548625 26.11514581 29 23 C32.1875 22.0625 32.1875 22.0625 35 22 C35 21.34 35 20.68 35 20 C35.54269531 19.75765625 36.08539063 19.5153125 36.64453125 19.265625 C40.81393722 17.31238977 43.36894693 15.87734136 46 12 C46.99 12 47.98 12 49 12 C49.33 10.68 49.66 9.36 50 8 C51.875 7.375 51.875 7.375 54 7 C56 9 56 9 56.1953125 10.9453125 C56.13020833 12.96354167 56.06510417 14.98177083 56 17 C54.02 17.33 52.04 17.66 50 18 C49.505 19.485 49.505 19.485 49 21 C48.401875 21.144375 47.80375 21.28875 47.1875 21.4375 C44.0371681 22.24758535 42.99872055 23.42100574 41 26 C40.10844142 28.2350593 39.38338206 30.47120514 38.7109375 32.78125 C37.99000958 35.03117889 37.23227485 36.9819267 36 39 C33.375 39.75 33.375 39.75 31 40 C30.731875 40.886875 30.46375 41.77375 30.1875 42.6875 C29.0749365 45.7909666 27.89804222 48.31110685 26 51 C25.34 51 24.68 51 24 51 C24 52.65 24 54.3 24 56 C22.515 56.495 22.515 56.495 21 57 C21 58.32 21 59.64 21 61 C23.51083114 59.74458443 23.87125446 58.49936512 25 56 C25.99 56 26.98 56 28 56 C27.91105469 55.24203125 27.82210937 54.4840625 27.73046875 53.703125 C28 51 28 51 29.86328125 49.234375 C31.07564453 48.49960938 31.07564453 48.49960938 32.3125 47.75 C33.11300781 47.24984375 33.91351563 46.7496875 34.73828125 46.234375 C37 45 37 45 40 44 C40 41.69 40 39.38 40 37 C41.32 36.67 42.64 36.34 44 36 C44 34.68 44 33.36 44 32 C45.32 32 46.64 32 48 32 C48.66 30.68 49.32 29.36 50 28 C50.99 28 51.98 28 53 28 C53.185625 27.0409375 53.185625 27.0409375 53.375 26.0625 C53.58125 25.381875 53.7875 24.70125 54 24 C54.99 23.505 54.99 23.505 56 23 C57.13350534 20.98330173 57.13350534 20.98330173 58 19 C59.32 19.66 60.64 20.32 62 21 C62 21.99 62 22.98 62 24 C61.38125 24.0825 60.7625 24.165 60.125 24.25 C57.8653367 24.77905978 57.8653367 24.77905978 57.0625 26.75 C56.711875 27.4925 56.36125 28.235 56 29 C55.154375 29.804375 54.30875 30.60875 53.4375 31.4375 C50.79830251 34.21204095 50.57490397 35.35894154 50 39 C48.5625 40.5625 48.5625 40.5625 47 42 C46.57654297 42.96292969 46.57654297 42.96292969 46.14453125 43.9453125 C44.77036422 46.41224718 43.60480569 47.02580837 41.125 48.3125 C36.73961542 50.86399648 35.1396893 53.45316024 33 58 C32.34 58 31.68 58 31 58 C30.34 60.31 29.68 62.62 29 65 C28.34 65 27.68 65 27 65 C24.87301336 72.29252563 22.94369485 79.45044119 22 87 C23.98 87.99 23.98 87.99 26 89 C26.117292 92.18718443 26.18760766 95.37380568 26.25 98.5625 C26.28351563 99.45775391 26.31703125 100.35300781 26.3515625 101.27539062 C26.44168759 107.42642787 25.65384807 110.99895975 22 116 C21.01 116.66 20.02 117.32 19 118 C17.7811879 121.55672179 17.7811879 121.55672179 17 125 C12.94335053 125.0990914 8.8871723 125.17157106 4.82958984 125.21972656 C3.4502332 125.23980642 2.07096131 125.26707666 0.69189453 125.30175781 C-1.29356979 125.35042817 -3.27966254 125.37086418 -5.265625 125.390625 C-7.05661621 125.4220459 -7.05661621 125.4220459 -8.88378906 125.45410156 C-12.62454066 124.90899047 -13.65165701 123.87519973 -16 121 C-17.34372932 119.80070224 -18.69779887 118.61287843 -20.0625 117.4375 C-28.04376642 110.5592109 -34.18657103 101.64947104 -36 91.0625 C-36.3415737 88.87229577 -36.3415737 88.87229577 -37 87 C-39.49759982 85.30117552 -39.49759982 85.30117552 -42 84 C-42.8125 80.8125 -42.8125 80.8125 -43 78 C-44.8253125 77.62875 -44.8253125 77.62875 -46.6875 77.25 C-50.60604261 76.23898812 -53.32782883 75.18936559 -56 72 C-55.93113135 68.00561826 -55.8685771 65.8685771 -53 63 C-50.8359375 62.5859375 -50.8359375 62.5859375 -48.375 62.375 C-47.55773438 62.30023438 -46.74046875 62.22546875 -45.8984375 62.1484375 C-45.27195312 62.09945312 -44.64546875 62.05046875 -44 62 C-43.67 60.35 -43.34 58.7 -43 57 C-40 56 -40 56 -37.8125 56.9375 C-36.9153125 57.4634375 -36.9153125 57.4634375 -36 58 C-36 56.68 -36 55.36 -36 54 C-33.37503088 51.50964468 -31.42146851 49.99516507 -27.703125 50.0078125 C-26.14594118 50.20627711 -24.59346293 50.44786276 -23.05078125 50.73828125 C-20.80408075 51.1756823 -20.80408075 51.1756823 -18 50 C-14.7 53.96 -11.4 57.92 -8 62 C-3.8495458 60.96238645 -1.50486877 59.36197678 2 57 C2.66 57 3.32 57 4 57 C3.71125 57.556875 3.4225 58.11375 3.125 58.6875 C1.33420392 62.36858084 -0.11088119 65.99896537 -1 70 C-0.34 70 0.32 70 1 70 C1.66 69.34 2.32 68.68 3 68 C5.0625 68.25 5.0625 68.25 7 69 C7.33 69.66 7.66 70.32 8 71 C11.41076934 70.21289938 14.68461425 69.11723958 18 68 C17.74535902 65.8729989 17.47077058 63.74837785 17.1875 61.625 C17.03667969 60.44164062 16.88585937 59.25828125 16.73046875 58.0390625 C16.29300666 54.70467916 16.29300666 54.70467916 13 53 C11.28557295 50.51408078 10.95163049 49.40630391 11.3125 46.375 C12 44 12 44 13 42 C10.35261084 40.5393715 9.10551666 40 6 40 C5.34 40.99 4.68 41.98 4 43 C3.01 43 2.02 43 1 43 C0.80377759 38.78121808 1.19769832 35.82989106 3 32 C3.66 32 4.32 32 5 32 C5 30.68 5 29.36 5 28 C7.70879335 26.64560332 10.00933268 26.93498549 13 27 C10.46548706 19.85335259 10.46548706 19.85335259 5 15 C4.01 14.67 3.02 14.34 2 14 C1.95875 14.928125 1.9175 15.85625 1.875 16.8125 C1 20 1 20 -1.75 22 C-5 23 -5 23 -7.6875 22.3125 C-9.50242318 21.28240847 -11.26361754 20.1575883 -13 19 C-15.32387947 18.60612212 -17.65793749 18.26513915 -20 18 C-20.33 21.96 -20.66 25.92 -21 30 C-19.68 29.67 -18.36 29.34 -17 29 C-15.83566565 32.70724057 -15.83268454 36.25764121 -15.8125 40.125 C-15.79832031 41.36507812 -15.78414062 42.60515625 -15.76953125 43.8828125 C-16 47 -16 47 -18 49 C-18.07476562 48.35933594 -18.14953125 47.71867187 -18.2265625 47.05859375 C-19.10939204 41.2509602 -20.37496068 37.73691413 -24.5625 33.5703125 C-28.56799932 29.19473988 -28.86223856 23.66831303 -29.6796875 18.01953125 C-30.49037001 13.12779926 -32.10241461 10.11192616 -35 6 C-34.75 3.125 -34.75 3.125 -34 1 C-27.17296638 0.28136488 -20.69569026 2.88195765 -15.375 7.0625 C-14 9 -14 9 -14 12 C-13.13375 12.061875 -13.13375 12.061875 -12.25 12.125 C-8.88399342 13.43400256 -7.8691376 16.00937984 -6 19 C-5.34 19.33 -4.68 19.66 -4 20 C-4 18.02 -4 16.04 -4 14 C-2.68 13.34 -1.36 12.68 0 12 C-0.08378906 11.21753906 -0.16757812 10.43507813 -0.25390625 9.62890625 C-0.40666016 8.11103516 -0.40666016 8.11103516 -0.5625 6.5625 C-0.71912109 5.04849609 -0.71912109 5.04849609 -0.87890625 3.50390625 C-0.93884766 2.26447266 -0.93884766 2.26447266 -1 1 C-0.67 0.67 -0.34 0.34 0 0 Z " fill="#B8B8B8" transform="translate(59,3)"/>
<path d="M0 0 C0 33 0 66 0 100 C-17.16 100 -34.32 100 -52 100 C-51 93 -51 93 -49.125 91.4375 C-48.42375 90.963125 -47.7225 90.48875 -47 90 C-43.5051151 84.68132808 -43.54535459 79.89154587 -43.625 73.75 C-43.61339844 72.83992188 -43.60179688 71.92984375 -43.58984375 70.9921875 C-43.59371094 70.12335938 -43.59757812 69.25453125 -43.6015625 68.359375 C-43.60494629 67.57014648 -43.60833008 66.78091797 -43.61181641 65.96777344 C-43.73991699 65.3184082 -43.86801758 64.66904297 -44 64 C-44.99 63.34 -45.98 62.68 -47 62 C-46.75601666 54.10713892 -46.377281 46.8054331 -42 40 C-41.01 39.505 -41.01 39.505 -40 39 C-39.27306096 37.02111039 -38.60183749 35.02045442 -38 33 C-37.34 33 -36.68 33 -36 33 C-35.9175 32.443125 -35.835 31.88625 -35.75 31.3125 C-34.57263784 27.68230002 -32.63167416 24.94778339 -29.28515625 23.00390625 C-28.67542969 22.69324219 -28.06570312 22.38257812 -27.4375 22.0625 C-23.75868685 20.14414894 -22.5045342 17.89408853 -21 14 C-20.34 14 -19.68 14 -19 14 C-18.896875 13.360625 -18.79375 12.72125 -18.6875 12.0625 C-18.3471875 11.0415625 -18.3471875 11.0415625 -18 10 C-17.01 9.67 -16.02 9.34 -15 9 C-13.80798241 6.96655823 -13.02274595 5.07961084 -12.375 2.8125 C-11 1 -11 1 -9.19921875 0.52734375 C-6.11165657 0.12658157 -3.11385515 0 0 0 Z " fill="#FBFBFB" transform="translate(128,28)"/>
<path d="M0 0 C5.34883721 0.34883721 5.34883721 0.34883721 7.625 2.625 C8.305625 3.800625 8.305625 3.800625 9 5 C9.3403125 5.54269531 9.680625 6.08539063 10.03125 6.64453125 C12.11481678 10.06009251 13.51055981 12.9621184 14 17 C15.32 17.33 16.64 17.66 18 18 C19.19287411 21.87684087 20 24.91621923 20 29 C18.02 29 16.04 29 14 29 C14.495 31.97 14.495 31.97 15 35 C15.66 35 16.32 35 17 35 C18.86400201 38.12327054 19.16998822 39.98374405 18.625 43.5625 C18.25448895 46.11730295 18 48.40671762 18 51 C18.66 51 19.32 51 20 51 C19.95875 49.88625 19.9175 48.7725 19.875 47.625 C20 44 20 44 22 42 C22.45811675 40.02764667 22.45811675 40.02764667 22.625 37.875 C22.810625 35.956875 22.810625 35.956875 23 34 C23.66 34 24.32 34 25 34 C25.103125 33.484375 25.20625 32.96875 25.3125 32.4375 C26.27258892 29.03354837 27.29548625 26.11514581 29 23 C32.1875 22.0625 32.1875 22.0625 35 22 C35 21.34 35 20.68 35 20 C35.54269531 19.75765625 36.08539063 19.5153125 36.64453125 19.265625 C40.81393722 17.31238977 43.36894693 15.87734136 46 12 C46.99 12 47.98 12 49 12 C49.33 10.68 49.66 9.36 50 8 C51.875 7.375 51.875 7.375 54 7 C56 9 56 9 56.1953125 10.9453125 C56.13020833 12.96354167 56.06510417 14.98177083 56 17 C54.02 17.33 52.04 17.66 50 18 C49.505 19.485 49.505 19.485 49 21 C48.401875 21.144375 47.80375 21.28875 47.1875 21.4375 C44.0371681 22.24758535 42.99872055 23.42100574 41 26 C40.10844142 28.2350593 39.38338206 30.47120514 38.7109375 32.78125 C37.99000958 35.03117889 37.23227485 36.9819267 36 39 C33.375 39.75 33.375 39.75 31 40 C30.731875 40.886875 30.46375 41.77375 30.1875 42.6875 C29.0749365 45.7909666 27.89804222 48.31110685 26 51 C25.34 51 24.68 51 24 51 C24 52.65 24 54.3 24 56 C23.01 56.33 22.02 56.66 21 57 C21 58.32 21 59.64 21 61 C23.51083114 59.74458443 23.87125446 58.49936512 25 56 C25.99 56 26.98 56 28 56 C27.91105469 55.24203125 27.82210937 54.4840625 27.73046875 53.703125 C28 51 28 51 29.86328125 49.234375 C31.07564453 48.49960938 31.07564453 48.49960938 32.3125 47.75 C33.11300781 47.24984375 33.91351563 46.7496875 34.73828125 46.234375 C37 45 37 45 40 44 C40 41.69 40 39.38 40 37 C41.32 36.67 42.64 36.34 44 36 C44 34.68 44 33.36 44 32 C45.32 32 46.64 32 48 32 C48.66 30.68 49.32 29.36 50 28 C50.99 28 51.98 28 53 28 C53.185625 27.0409375 53.185625 27.0409375 53.375 26.0625 C53.58125 25.381875 53.7875 24.70125 54 24 C54.99 23.505 54.99 23.505 56 23 C57.13350534 20.98330173 57.13350534 20.98330173 58 19 C59.32 19.66 60.64 20.32 62 21 C62 21.99 62 22.98 62 24 C61.38125 24.0825 60.7625 24.165 60.125 24.25 C57.8653367 24.77905978 57.8653367 24.77905978 57.0625 26.75 C56.711875 27.4925 56.36125 28.235 56 29 C55.154375 29.804375 54.30875 30.60875 53.4375 31.4375 C50.79830251 34.21204095 50.57490397 35.35894154 50 39 C48.5625 40.5625 48.5625 40.5625 47 42 C46.71640625 42.639375 46.4328125 43.27875 46.140625 43.9375 C44.78566004 46.38757363 43.61560698 47.09577358 41.1875 48.4375 C34.96785678 52.12196256 31.21570196 56.56859608 28 63 C27.34 63 26.68 63 26 63 C25.34 64.98 24.68 66.96 24 69 C22.68 69 21.36 69 20 69 C16.87373285 65.87373285 17.18910848 62.02270149 16.66015625 57.75 C16.25191966 54.67713599 16.25191966 54.67713599 13 53 C11.28557295 50.51408078 10.95163049 49.40630391 11.3125 46.375 C12 44 12 44 13 42 C10.35261084 40.5393715 9.10551666 40 6 40 C5.34 40.99 4.68 41.98 4 43 C3.01 43 2.02 43 1 43 C0.80377759 38.78121808 1.19769832 35.82989106 3 32 C3.66 32 4.32 32 5 32 C5 30.68 5 29.36 5 28 C7.70879335 26.64560332 10.00933268 26.93498549 13 27 C10.46548706 19.85335259 10.46548706 19.85335259 5 15 C4.01 14.67 3.02 14.34 2 14 C1.95875 14.928125 1.9175 15.85625 1.875 16.8125 C1 20 1 20 -1.75 22 C-5 23 -5 23 -7.6875 22.3125 C-9.50242318 21.28240847 -11.26361754 20.1575883 -13 19 C-15.32387947 18.60612212 -17.65793749 18.26513915 -20 18 C-20.33 21.96 -20.66 25.92 -21 30 C-19.68 29.67 -18.36 29.34 -17 29 C-15.83566565 32.70724057 -15.83268454 36.25764121 -15.8125 40.125 C-15.79832031 41.36507812 -15.78414062 42.60515625 -15.76953125 43.8828125 C-16 47 -16 47 -18 49 C-18.07476562 48.35933594 -18.14953125 47.71867187 -18.2265625 47.05859375 C-19.10939204 41.2509602 -20.37496068 37.73691413 -24.5625 33.5703125 C-28.56799932 29.19473988 -28.86223856 23.66831303 -29.6796875 18.01953125 C-30.49037001 13.12779926 -32.10241461 10.11192616 -35 6 C-34.75 3.125 -34.75 3.125 -34 1 C-27.17296638 0.28136488 -20.69569026 2.88195765 -15.375 7.0625 C-14 9 -14 9 -14 12 C-13.13375 12.061875 -13.13375 12.061875 -12.25 12.125 C-8.88399342 13.43400256 -7.8691376 16.00937984 -6 19 C-5.34 19.33 -4.68 19.66 -4 20 C-4 18.02 -4 16.04 -4 14 C-2.68 13.34 -1.36 12.68 0 12 C-0.08378906 11.21753906 -0.16757812 10.43507813 -0.25390625 9.62890625 C-0.40666016 8.11103516 -0.40666016 8.11103516 -0.5625 6.5625 C-0.71912109 5.04849609 -0.71912109 5.04849609 -0.87890625 3.50390625 C-0.93884766 2.26447266 -0.93884766 2.26447266 -1 1 C-0.67 0.67 -0.34 0.34 0 0 Z " fill="#B9B9B9" transform="translate(59,3)"/>
<path d="M0 0 C3.6875 -0.3125 3.6875 -0.3125 7 0 C7 1.32 7 2.64 7 4 C4.03 3.505 4.03 3.505 1 3 C0.34 4.98 -0.32 6.96 -1 9 C-1.62648438 9.03738281 -2.25296875 9.07476562 -2.8984375 9.11328125 C-3.71570312 9.17902344 -4.53296875 9.24476562 -5.375 9.3125 C-6.59316406 9.39951172 -6.59316406 9.39951172 -7.8359375 9.48828125 C-10.37921338 9.82990528 -10.37921338 9.82990528 -12 13 C-12.66685938 15.45672892 -12.66685938 15.45672892 -12 18 C-8.79061977 20.73971483 -6.38361284 21.91688388 -2.25 22.8125 C-1.1775 23.204375 -0.105 23.59625 1 24 C2.1875 27.5 2.1875 27.5 3 31 C3.64582031 31.29648438 4.29164062 31.59296875 4.95703125 31.8984375 C7 33 7 33 7.90625 35.3203125 C8.1021875 36.24585938 8.298125 37.17140625 8.5 38.125 C11.15613154 49.01940047 16.67557452 57.59492427 25.38671875 64.68359375 C27.40173783 66.32781029 29.23364292 68.09233435 31 70 C31 70.33 31 70.66 31 71 C15.49 71 -0.02 71 -16 71 C-16.04594375 63.4192816 -16.08576069 55.83904753 -16.10986328 48.25830078 C-16.11991262 45.68015912 -16.13355426 43.10202882 -16.15087891 40.52392578 C-16.17517367 36.81540111 -16.18649396 33.10702732 -16.1953125 29.3984375 C-16.20563507 28.24822113 -16.21595764 27.09800476 -16.22659302 25.91293335 C-16.22755083 19.06095019 -16.18639347 13.73299184 -11.75 8.1875 C-9 6 -9 6 -5.875 5.5 C-4.92625 5.335 -3.9775 5.17 -3 5 C-2.2884375 3.7315625 -2.2884375 3.7315625 -1.5625 2.4375 C-1.046875 1.633125 -0.53125 0.82875 0 0 Z " fill="#FBFBFB" transform="translate(16,57)"/>
<path d="M0 0 C3.80148599 0.21722777 4.96820273 0.96892539 7.75 3.6875 C10.03961434 6.65179693 10.7310291 9.23440747 11 13 C8.36 13.33 5.72 13.66 3 14 C3 15.32 3 16.64 3 18 C2.34 18 1.68 18 1 18 C0.34 21.63 -0.32 25.26 -1 29 C2.27773504 28.24849977 2.27773504 28.24849977 4 25 C6.96175123 25.61277612 8.38058783 26.25372522 11 28 C10.79375 29.0725 10.5875 30.145 10.375 31.25 C9.94414021 35.51772572 9.94414021 35.51772572 12 39 C12.99 39.66 13.98 40.32 15 41 C15.51171875 44.0390625 15.51171875 44.0390625 15.6875 47.625 C15.75324219 48.81351563 15.81898437 50.00203125 15.88671875 51.2265625 C15.94279297 52.59941406 15.94279297 52.59941406 16 54 C12.70450534 55.72264494 9.66881155 57.29445932 6 58 C5.34 57.01 4.68 56.02 4 55 C1.13275314 55.57344937 0.1385485 55.8614515 -2 58 C-2.66 57.34 -3.32 56.68 -4 56 C-3.48933668 51.23380903 -0.60256606 46.9038491 2 43 C1.39671875 43.44472656 0.7934375 43.88945313 0.171875 44.34765625 C-0.62734375 44.91355469 -1.4265625 45.47945312 -2.25 46.0625 C-3.03890625 46.63097656 -3.8278125 47.19945312 -4.640625 47.78515625 C-7 49 -7 49 -9.02734375 49.03515625 C-12.90930949 46.99808512 -15.02211692 42.78893925 -17.48828125 39.2734375 C-18.31714844 38.52320313 -19.14601563 37.77296875 -20 37 C-23.60695628 37.07174787 -23.60695628 37.07174787 -27 38 C-29.875 37.6875 -29.875 37.6875 -32 37 C-32.33 36.34 -32.66 35.68 -33 35 C-26.375 34 -26.375 34 -23 34 C-23 31.03 -23 28.06 -23 25 C-23.99 24.67 -24.98 24.34 -26 24 C-29.11875512 19.87878788 -29.11875512 19.87878788 -28.6875 16.6875 C-28.460625 16.130625 -28.23375 15.57375 -28 15 C-27.38125 16.0828125 -27.38125 16.0828125 -26.75 17.1875 C-25.09702395 20.03790841 -25.09702395 20.03790841 -22.875 22.3125 C-20.34116219 25.94433419 -20.29725093 28.6155488 -20 33 C-19.67 33 -19.34 33 -19 33 C-19 27.06 -19 21.12 -19 15 C-20.32 15.33 -21.64 15.66 -23 16 C-23.02698189 14.37509046 -23.04638757 12.75005367 -23.0625 11.125 C-23.07410156 10.22007813 -23.08570313 9.31515625 -23.09765625 8.3828125 C-23 6 -23 6 -22 4 C-17.62231761 3.64978541 -15.57429183 3.60948155 -11.875 6.125 C-10.92625 6.74375 -9.9775 7.3625 -9 8 C-6.2995961 7.35336433 -6.2995961 7.35336433 -4 6 C-3.01 6 -2.02 6 -1 6 C-0.67 4.02 -0.34 2.04 0 0 Z " fill="#D6D6D6" transform="translate(61,17)"/>
<path d="M0 0 C0 0.66 0 1.32 0 2 C0.66 2 1.32 2 2 2 C2.41378906 2.515625 2.82757813 3.03125 3.25390625 3.5625 C4.98337956 5.32919043 4.98337956 5.32919043 7.77734375 4.75 C9.88164936 4.25058507 11.98581651 3.75058641 14.08984375 3.25 C17 3 17 3 19.39453125 3.92578125 C21.88394425 7.14203017 21.17148165 10.35736914 20.75 14.1875 C20.68425781 14.93708984 20.61851563 15.68667969 20.55078125 16.45898438 C20.38592263 18.30775601 20.19541184 20.15420773 20 22 C19.01 22 18.02 22 17 22 C16.45533613 17.915021 16 14.1274515 16 10 C14.68 9.67 13.36 9.34 12 9 C12.495 9.99 12.495 9.99 13 11 C14.28687011 14.86061033 14.13757618 17.94150283 14 22 C14.99 22.33 15.98 22.66 17 23 C17 25.64 17 28.28 17 31 C16.37351563 31.27714844 15.74703125 31.55429688 15.1015625 31.83984375 C13.87566406 32.38318359 13.87566406 32.38318359 12.625 32.9375 C11.40683594 33.47697266 11.40683594 33.47697266 10.1640625 34.02734375 C8.76316215 34.6569903 7.37374716 35.31312642 6 36 C-3.74382233 36.25908429 -11.4988432 35.84285667 -19 29 C-19.763125 28.34 -20.52625 27.68 -21.3125 27 C-24.69317006 22.99327993 -27.55388314 19.35340231 -28 14 C-27.67 13.34 -27.34 12.68 -27 12 C-24.69 12 -22.38 12 -20 12 C-20 11.01 -20 10.02 -20 9 C-20.99 8.67 -21.98 8.34 -23 8 C-22.67522284 4.99581131 -22.42029035 3.42029035 -20.25 1.25 C-14.32878815 -2.03956214 -6.40703702 -1.83058201 0 0 Z " fill="#FBFBFB" transform="translate(59,88)"/>
<path d="M0 0 C2.875 1.125 2.875 1.125 6 3 C6.70381157 4.98723268 7.3711811 6.98777953 8 9 C10.53188648 10.75322937 10.53188648 10.75322937 13 12 C13 12.66 13 13.32 13 14 C11.37373596 15.38232443 9.7074998 16.71937515 8 18 C8.66 21.63 9.32 25.26 10 29 C11.32 29.33 12.64 29.66 14 30 C13.979375 29.195625 13.95875 28.39125 13.9375 27.5625 C14 25 14 25 15 24 C16.8878718 23.62418726 18.78600836 23.29937384 20.6875 23 C22.24017578 22.7525 22.24017578 22.7525 23.82421875 22.5 C25.39623047 22.2525 25.39623047 22.2525 27 22 C28.02222656 21.78601563 29.04445312 21.57203125 30.09765625 21.3515625 C33.18810461 20.97721478 34.86542697 21.29079841 37.75 22.375 C38.50796875 22.65085937 39.2659375 22.92671875 40.046875 23.2109375 C42 24 42 24 44 25 C46.04911761 24.93814311 46.04911761 24.93814311 48.3125 24.625 C49.51132813 24.47611328 49.51132813 24.47611328 50.734375 24.32421875 C53.17927987 23.97434443 55.59062232 23.54405303 58 23 C58 20.69 58 18.38 58 16 C56.68 15.67 55.36 15.34 54 15 C54.33 14.01 54.66 13.02 55 12 C56.32 12 57.64 12 59 12 C62.77493266 16.58997494 62.43585576 21.25063456 62.59375 26.94140625 C63.04471925 30.33668437 63.99380363 31.34086833 66 34 C66.36328125 36.875 66.36328125 36.875 66.3125 40 C66.30863281 41.03125 66.30476563 42.0625 66.30078125 43.125 C66.00181844 45.98261858 65.33234884 47.51088317 64 50 C63.66266461 52.06150471 63.66266461 52.06150471 63.5625 54.125 C63.2840625 56.043125 63.2840625 56.043125 63 58 C62.01 58.66 61.02 59.32 60 60 C58.7811879 63.55672179 58.7811879 63.55672179 58 67 C53.94335053 67.0990914 49.8871723 67.17157106 45.82958984 67.21972656 C44.4502332 67.23980642 43.07096131 67.26707666 41.69189453 67.30175781 C39.70643021 67.35042817 37.72033746 67.37086418 35.734375 67.390625 C33.94338379 67.4220459 33.94338379 67.4220459 32.11621094 67.45410156 C28.37545934 66.90899047 27.34834299 65.87519973 25 63 C23.65627068 61.80070224 22.30220113 60.61287843 20.9375 59.4375 C12.12753939 51.84503875 6.61188255 42.40725666 4.53515625 30.89453125 C3.77561006 28.20562685 1.97286718 26.90710494 0 25 C-0.25 21.75 -0.25 21.75 0 19 C-2.31 18.34 -4.62 17.68 -7 17 C-6.67 15.68 -6.34 14.36 -6 13 C-6.99 12.67 -7.98 12.34 -9 12 C-9.33 12.99 -9.66 13.98 -10 15 C-11.32 14.34 -12.64 13.68 -14 13 C-13.42655063 10.13275314 -13.1385485 9.1385485 -11 7 C-8.90625 6.55078125 -8.90625 6.55078125 -6.5 6.3125 C-5.7059375 6.22613281 -4.911875 6.13976562 -4.09375 6.05078125 C-2 6 -2 6 0 7 C-0.185625 6.030625 -0.37125 5.06125 -0.5625 4.0625 C-0.706875 3.051875 -0.85125 2.04125 -1 1 C-0.67 0.67 -0.34 0.34 0 0 Z M18 31 C18.33 32.65 18.66 34.3 19 36 C19.66 36 20.32 36 21 36 C21 36.99 21 37.98 21 39 C18.69 39 16.38 39 14 39 C12.63902353 43.0829294 14.20453916 45.3524647 16 49 C16.37125 49.845625 16.7425 50.69125 17.125 51.5625 C20.03912666 55.35086466 23.97118401 57.51118433 28 60 C28.99 60.66 29.98 61.32 31 62 C33.61711841 62.38334444 36.11986638 62.64691677 38.75 62.8125 C39.4409375 62.87630859 40.131875 62.94011719 40.84375 63.00585938 C46.06457284 63.35424135 49.3349916 62.35864684 54 60 C55.2065625 59.4121875 55.2065625 59.4121875 56.4375 58.8125 C56.953125 58.544375 57.46875 58.27625 58 58 C58 55.36 58 52.72 58 50 C57.01 49.67 56.02 49.34 55 49 C55.04125 47.783125 55.0825 46.56625 55.125 45.3125 C55.13754508 41.78105873 54.59998217 39.19996434 53 36 C54.32 36.33 55.64 36.66 57 37 C56.979375 38.2375 56.95875 39.475 56.9375 40.75 C56.93233319 43.6640825 57.06984442 46.20953327 58 49 C58.99 49 59.98 49 61 49 C61.27565727 46.39623726 61.52127265 43.79544032 61.75 41.1875 C61.83121094 40.44951172 61.91242188 39.71152344 61.99609375 38.95117188 C62.37070593 34.6290005 62.37070593 34.6290005 60.39453125 30.92578125 C57.17748355 29.68199609 55.27021332 30.20708679 51.9375 31 C48.77734375 31.75 48.77734375 31.75 46 32 C44.25390625 30.5625 44.25390625 30.5625 43 29 C42.34 29 41.68 29 41 29 C41 28.34 41 27.68 41 27 C32.83542299 24.69101329 24.6315261 25.38870869 18 31 Z " fill="#8E8E8E" transform="translate(18,61)"/>
<path d="M0 0 C5.61 0 11.22 0 17 0 C17 9.24 17 18.48 17 28 C14.24921116 28.91692961 12.64051087 29.10886083 9.8125 29.0625 C7.9253125 29.0315625 7.9253125 29.0315625 6 29 C5.9071875 29.8353125 5.9071875 29.8353125 5.8125 30.6875 C4.47882921 34.48333226 1.57659173 37.21170413 -2 39 C-0.54453498 35.60391496 1.40860299 33.59139701 4 31 C4.33 30.29875 4.66 29.5975 5 28.875 C6.26235606 26.50808239 7.55556051 25.9777758 10 25 C8.68 24.34 7.36 23.68 6 23 C5.71125 23.639375 5.4225 24.27875 5.125 24.9375 C4 27 4 27 2 28 C1.505 29.485 1.505 29.485 1 31 C-0.31647119 31.69937532 -1.65022151 32.36729133 -3 33 C-3.33 33.66 -3.66 34.32 -4 35 C-5.32 35 -6.64 35 -8 35 C-8 36.32 -8 37.64 -8 39 C-9.485 39.495 -9.485 39.495 -11 40 C-10.979375 41.03125 -10.95875 42.0625 -10.9375 43.125 C-11.30715408 45.96671571 -11.8145935 46.83632083 -14 48.765625 C-16.92000428 50.69357654 -19.87088487 52.43544243 -23 54 C-23.65555119 56.52733235 -23.65555119 56.52733235 -24 59 C-25.485 59.495 -25.485 59.495 -27 60 C-28.20882096 62.00016466 -28.20882096 62.00016466 -29 64 C-29.66 64 -30.32 64 -31 64 C-31 62.68 -31 61.36 -31 60 C-30.01 59.505 -30.01 59.505 -29 59 C-28.835 58.175 -28.67 57.35 -28.5 56.5 C-28.335 55.675 -28.17 54.85 -28 54 C-27.01 53.505 -27.01 53.505 -26 53 C-24.73744681 50.48818364 -23.62887094 47.92712726 -22.51171875 45.34765625 C-20.65375551 42.46229215 -19.15307978 42.14703383 -16 41 C-14.26708687 37.66253768 -13.12198655 34.41475426 -12.0625 30.8125 C-10.86036565 27.63037965 -9.69497318 26.06086184 -7 24 C-5.68 24 -4.36 24 -3 24 C-2.67 22.68 -2.34 21.36 -2 20 C-0.02 20 1.96 20 4 20 C3.505 16.04 3.505 16.04 3 12 C0.525 11.505 0.525 11.505 -2 11 C-2.66 12.32 -3.32 13.64 -4 15 C-3.6875 12.625 -3.6875 12.625 -3 10 C-2.01 9.34 -1.02 8.68 0 8 C0 5.36 0 2.72 0 0 Z " fill="#F6F6F6" transform="translate(111,0)"/>
<path d="M0 0 C5.34883721 0.34883721 5.34883721 0.34883721 7.625 2.625 C8.305625 3.800625 8.305625 3.800625 9 5 C9.66 6.0725 10.32 7.145 11 8.25 C14.30716704 14.15745868 16.2377298 20.49315618 18 27 C15.83125748 26.49396008 14.00032373 26.00016187 12 25 C11.54625 23.88625 11.0925 22.7725 10.625 21.625 C9.03781948 18.08436654 8.28802543 16.84951431 5 15 C4.01 14.67 3.02 14.34 2 14 C1.95875 14.928125 1.9175 15.85625 1.875 16.8125 C1 20 1 20 -1.75 22 C-5 23 -5 23 -7.6875 22.3125 C-9.50242318 21.28240847 -11.26361754 20.1575883 -13 19 C-15.32387947 18.60612212 -17.65793749 18.26513915 -20 18 C-20.33 21.96 -20.66 25.92 -21 30 C-19.68 29.67 -18.36 29.34 -17 29 C-15.83566565 32.70724057 -15.83268454 36.25764121 -15.8125 40.125 C-15.79832031 41.36507812 -15.78414062 42.60515625 -15.76953125 43.8828125 C-16 47 -16 47 -18 49 C-18.07476562 48.35933594 -18.14953125 47.71867187 -18.2265625 47.05859375 C-19.10939204 41.2509602 -20.37496068 37.73691413 -24.5625 33.5703125 C-28.56799932 29.19473988 -28.86223856 23.66831303 -29.6796875 18.01953125 C-30.49037001 13.12779926 -32.10241461 10.11192616 -35 6 C-34.75 3.125 -34.75 3.125 -34 1 C-27.17296638 0.28136488 -20.69569026 2.88195765 -15.375 7.0625 C-14 9 -14 9 -14 12 C-13.13375 12.061875 -13.13375 12.061875 -12.25 12.125 C-8.88399342 13.43400256 -7.8691376 16.00937984 -6 19 C-5.34 19.33 -4.68 19.66 -4 20 C-4 18.02 -4 16.04 -4 14 C-2.68 13.34 -1.36 12.68 0 12 C-0.08378906 11.21753906 -0.16757812 10.43507813 -0.25390625 9.62890625 C-0.40666016 8.11103516 -0.40666016 8.11103516 -0.5625 6.5625 C-0.71912109 5.04849609 -0.71912109 5.04849609 -0.87890625 3.50390625 C-0.93884766 2.26447266 -0.93884766 2.26447266 -1 1 C-0.67 0.67 -0.34 0.34 0 0 Z " fill="#AEAEAE" transform="translate(59,3)"/>
<path d="M0 0 C0 0.66 0 1.32 0 2 C0.66 2 1.32 2 2 2 C2.41378906 2.515625 2.82757813 3.03125 3.25390625 3.5625 C4.98337956 5.32919043 4.98337956 5.32919043 7.77734375 4.75 C9.88164936 4.25058507 11.98581651 3.75058641 14.08984375 3.25 C17 3 17 3 19.39453125 3.92578125 C21.88394425 7.14203017 21.17148165 10.35736914 20.75 14.1875 C20.68425781 14.93708984 20.61851563 15.68667969 20.55078125 16.45898438 C20.38592263 18.30775601 20.19541184 20.15420773 20 22 C19.01 22 18.02 22 17 22 C16.45533613 17.915021 16 14.1274515 16 10 C14.68 9.67 13.36 9.34 12 9 C12.495 9.99 12.495 9.99 13 11 C14.28687011 14.86061033 14.13757618 17.94150283 14 22 C14.99 22.33 15.98 22.66 17 23 C17 25.64 17 28.28 17 31 C16.37351563 31.27714844 15.74703125 31.55429688 15.1015625 31.83984375 C13.87566406 32.38318359 13.87566406 32.38318359 12.625 32.9375 C11.40683594 33.47697266 11.40683594 33.47697266 10.1640625 34.02734375 C8.76316215 34.6569903 7.37374716 35.31312642 6 36 C3.37218737 36.01458276 0.80742123 35.95014502 -1.8125 35.8125 C-2.88081055 35.78446289 -2.88081055 35.78446289 -3.97070312 35.75585938 C-8.88576039 35.49669354 -11.49235274 34.43873474 -15 31 C-12.125 30.875 -12.125 30.875 -9 31 C-8.34 31.66 -7.68 32.32 -7 33 C-0.0906846 34.70333817 5.55971591 33.97803 12.1015625 31.3984375 C14.26007469 30.10449968 14.26007469 30.10449968 14.7734375 27.3515625 C14.84820312 26.57554688 14.92296875 25.79953125 15 25 C14.01 25.66 13.02 26.32 12 27 C10.68 27 9.36 27 8 27 C8.875 23.125 8.875 23.125 10 22 C10.30523962 17.34911285 10.30523962 17.34911285 9 13 C6.39491364 13.11391632 3.79154454 13.24065548 1.1875 13.375 C0.44951172 13.4059375 -0.28847656 13.436875 -1.04882812 13.46875 C-4.81893115 13.67346148 -6.79650741 13.86433827 -10 16 C-15.42151831 15.56627854 -20.71111396 14.2352727 -26 13 C-26 14.98 -26 16.96 -26 19 C-27.0625 17.1875 -27.0625 17.1875 -28 15 C-27.67 14.01 -27.34 13.02 -27 12 C-24.69 12 -22.38 12 -20 12 C-20 11.01 -20 10.02 -20 9 C-20.99 8.67 -21.98 8.34 -23 8 C-22.67522284 4.99581131 -22.42029035 3.42029035 -20.25 1.25 C-14.32878815 -2.03956214 -6.40703702 -1.83058201 0 0 Z " fill="#B7B7B7" transform="translate(59,88)"/>
<path d="M0 0 C1.8125 0.5625 1.8125 0.5625 4 2 C5.78686054 5.50990464 7 8.04124604 7 12 C5.35 12 3.7 12 2 12 C-2.5013043 19.0586677 -2.5013043 19.0586677 -4.5625 27 C-5 30 -5 30 -7.3125 32.0625 C-10 33 -10 33 -12.3125 32.1875 C-12.869375 31.795625 -13.42625 31.40375 -14 31 C-13.62875 32.0725 -13.2575 33.145 -12.875 34.25 C-12 38 -12 38 -12.875 40.4375 C-13.24625 40.953125 -13.6175 41.46875 -14 42 C-15.96191406 40.96948242 -15.96191406 40.96948242 -18 39 C-18.42677963 36.36545652 -18.60478396 34.12769564 -18.609375 31.48828125 C-18.62591125 30.76005661 -18.64244751 30.03183197 -18.65948486 29.28153992 C-18.70802197 26.95844135 -18.72934669 24.6359975 -18.75 22.3125 C-18.77815518 20.73629508 -18.80808199 19.16012074 -18.83984375 17.58398438 C-18.91378144 13.72271017 -18.96332032 9.86180061 -19 6 C-14.1875 7.7421875 -14.1875 7.7421875 -12.5 10.0625 C-11.10867138 12.25793903 -11.10867138 12.25793903 -8.3125 12.75 C-7.549375 12.8325 -6.78625 12.915 -6 13 C-5.896875 12.21625 -5.79375 11.4325 -5.6875 10.625 C-5 8 -5 8 -2 6 C-0.78715124 2.94570927 -0.78715124 2.94570927 0 0 Z " fill="#FCFCFC" transform="translate(63,17)"/>
<path d="M0 0 C13.86 0 27.72 0 42 0 C42.66 1.32 43.32 2.64 44 4 C42.02 4 40.04 4 38 4 C38.05220703 5.15628906 38.05220703 5.15628906 38.10546875 6.3359375 C38.13253906 7.33882813 38.15960938 8.34171875 38.1875 9.375 C38.23970703 10.87160156 38.23970703 10.87160156 38.29296875 12.3984375 C38.19628906 13.25695313 38.09960938 14.11546875 38 15 C37.01 15.66 36.02 16.32 35 17 C34.26656572 20.06556598 34.26656572 20.06556598 34 23 C30.11276476 21.52553146 29.06098117 19.4947072 27 16 C26.01 15.67 25.02 15.34 24 15 C24 14.01 24 13.02 24 12 C22.68 11.34 21.36 10.68 20 10 C20 9.34 20 8.68 20 8 C12.18425703 5.37702057 12.18425703 5.37702057 4 5 C4.33 7.64 4.66 10.28 5 13 C4.34 13 3.68 13 3 13 C0.8501347 8.4136207 0.68272735 5.46181877 0 0 Z " fill="#F7F7F7" transform="translate(21,0)"/>
<path d="M0 0 C2.125 0.9375 2.125 0.9375 4 2 C4 4.64 4 7.28 4 10 C2.02 10.33 0.04 10.66 -2 11 C-2.33 11.99 -2.66 12.98 -3 14 C-3.598125 14.144375 -4.19625 14.28875 -4.8125 14.4375 C-7.9628319 15.24758535 -9.00127945 16.42100574 -11 19 C-11.89155858 21.2350593 -12.61661794 23.47120514 -13.2890625 25.78125 C-14.00943754 28.02945342 -14.76716481 29.98426947 -16 32 C-17.66666667 32.33333333 -19.33333333 32.66666667 -21 33 C-22.18330183 34.86644906 -22.18330183 34.86644906 -23 37 C-23.9793879 38.02019573 -24.97895449 39.02149805 -26 40 C-26.66 40.99 -27.32 41.98 -28 43 C-28.99 42.67 -29.98 42.34 -31 42 C-30.125 37.125 -30.125 37.125 -29 36 C-28.70106521 34.15015603 -28.43621973 32.29476229 -28.1875 30.4375 C-26.49578153 20.08961621 -26.49578153 20.08961621 -23 16 C-19.75 15 -19.75 15 -17 15 C-17 14.34 -17 13.68 -17 13 C-16.45730469 12.75765625 -15.91460937 12.5153125 -15.35546875 12.265625 C-11.18606278 10.31238977 -8.63105307 8.87734136 -6 5 C-5.01 5 -4.02 5 -3 5 C-2.87625 4.360625 -2.7525 3.72125 -2.625 3.0625 C-2.315625 2.0415625 -2.315625 2.0415625 -2 1 C-1.34 0.67 -0.68 0.34 0 0 Z " fill="#949494" transform="translate(111,10)"/>
<path d="M0 0 C4.14876955 2.76584637 4.47798984 5.84696782 5.9375 10.46875 C6.85189047 13.30029713 6.85189047 13.30029713 10 15 C10.51171875 18.0390625 10.51171875 18.0390625 10.6875 21.625 C10.75324219 22.81351563 10.81898437 24.00203125 10.88671875 25.2265625 C10.92410156 26.14179687 10.96148437 27.05703125 11 28 C7.70450534 29.72264494 4.66881155 31.29445932 1 32 C0.34 31.01 -0.32 30.02 -1 29 C-3.86724686 29.57344937 -4.8614515 29.8614515 -7 32 C-7.66 31.34 -8.32 30.68 -9 30 C-8.65933682 26.60046537 -7.09664278 24.55326347 -5 21.9375 C-3.0569079 19.50396398 -1.9987139 17.99614169 -1 15 C-0.34 14.34 0.32 13.68 1 13 C1 12.34 1 11.68 1 11 C0.38511719 11.51691406 -0.22976562 12.03382812 -0.86328125 12.56640625 C-1.67152344 13.22511719 -2.47976562 13.88382813 -3.3125 14.5625 C-4.51326172 15.55443359 -4.51326172 15.55443359 -5.73828125 16.56640625 C-6.48464844 17.03949219 -7.23101562 17.51257813 -8 18 C-8.99 17.67 -9.98 17.34 -11 17 C-10.25 14.125 -10.25 14.125 -9 11 C-6.9375 9.875 -6.9375 9.875 -5 9 C-4.19471111 6.94999129 -4.19471111 6.94999129 -4 5 C-3.34 5 -2.68 5 -2 5 C-1.34 3.35 -0.68 1.7 0 0 Z " fill="#DCDCDC" transform="translate(66,43)"/>
<path d="M0 0 C0.33 0.33 0.66 0.66 1 1 C6.53814367 0.84550243 11.74631862 -0.32329318 17 -2 C17.66 -1.34 18.32 -0.68 19 0 C22.58343976 0.16677282 22.58343976 0.16677282 26 0 C26 1.65 26 3.3 26 5 C18.5580222 9.76286579 18.5580222 9.76286579 13 9 C10.46138803 8.32030712 7.96270095 7.57074107 5.46484375 6.75390625 C0.2946291 5.17252523 -2.01067189 4.95891123 -7 7 C-9.98949866 7.4638008 -12.98569641 7.75044981 -16 8 C-16 9.65 -16 11.3 -16 13 C-17.875 13.625 -17.875 13.625 -20 14 C-22.64751415 11.35248585 -22.71520084 9.70238904 -23 6 C-22.3125 2.6875 -22.3125 2.6875 -21 0 C-18.875 -0.875 -18.875 -0.875 -17 -1 C-17 -0.34 -17 0.32 -17 1 C-16.19175781 0.76023437 -15.38351563 0.52046875 -14.55078125 0.2734375 C-12.94783203 -0.17128906 -12.94783203 -0.17128906 -11.3125 -0.625 C-10.25675781 -0.92664063 -9.20101562 -1.22828125 -8.11328125 -1.5390625 C-4.64067975 -2.05319923 -3.06371393 -1.62294035 0 0 Z " fill="#B8B8B8" transform="translate(49,78)"/>
<path d="M0 0 C1.32 0 2.64 0 4 0 C7.77493266 4.58997494 7.43585576 9.25063456 7.59375 14.94140625 C8.04471925 18.33668437 8.99380363 19.34086833 11 22 C11.36328125 24.875 11.36328125 24.875 11.3125 28 C11.30863281 29.03125 11.30476563 30.0625 11.30078125 31.125 C11.00181844 33.98261858 10.33234884 35.51088317 9 38 C8.66266461 40.06150471 8.66266461 40.06150471 8.5625 42.125 C8.376875 43.40375 8.19125 44.6825 8 46 C7.01 46.66 6.02 47.32 5 48 C3.7811879 51.55672179 3.7811879 51.55672179 3 55 C0.93757383 55.02717692 -1.12495703 55.0464758 -3.1875 55.0625 C-4.33605469 55.07410156 -5.48460938 55.08570313 -6.66796875 55.09765625 C-9.61520036 55.01127783 -12.17216952 54.82198363 -15 54 C-15.33 53.34 -15.66 52.68 -16 52 C-18.52733235 51.34444881 -18.52733235 51.34444881 -21 51 C-21 50.67 -21 50.34 -21 50 C-20.14277344 50.03480469 -19.28554688 50.06960937 -18.40234375 50.10546875 C-11.72956714 50.2634488 -6.88883879 50.20045586 -1 47 C0.485 46.505 0.485 46.505 2 46 C2 43.36 2 40.72 2 38 C1.34 37.67 0.68 37.34 0 37 C-0.6328125 34.05859375 -0.6328125 34.05859375 -1.125 30.4375 C-1.29257813 29.23996094 -1.46015625 28.04242188 -1.6328125 26.80859375 C-1.75398438 25.88175781 -1.87515625 24.95492187 -2 24 C-0.35 24.33 1.3 24.66 3 25 C3 28.96 3 32.92 3 37 C3.99 37 4.98 37 6 37 C6.0809313 34.39521117 6.14045434 31.79293347 6.1875 29.1875 C6.21263672 28.44951172 6.23777344 27.71152344 6.26367188 26.95117188 C6.38068437 22.67982462 6.38068437 22.67982462 4.48828125 18.98828125 C3.99714844 18.66214844 3.50601563 18.33601563 3 18 C3.99 18 4.98 18 6 18 C6 14.37 6 10.74 6 7 C5.34 7 4.68 7 4 7 C3.67 7.66 3.34 8.32 3 9 C3 7.35 3 5.7 3 4 C1.68 3.67 0.36 3.34 -1 3 C-0.67 2.01 -0.34 1.02 0 0 Z " fill="#8D8D8D" transform="translate(73,73)"/>
<path d="M0 0 C0.495 1.485 0.495 1.485 1 3 C0.34 3 -0.32 3 -1 3 C-1.66 5.31 -2.32 7.62 -3 10 C-3.66 10 -4.32 10 -5 10 C-7.12698664 17.29252563 -9.05630515 24.45044119 -10 32 C-8.68 32.66 -7.36 33.32 -6 34 C-5.91225934 37.20815845 -5.85936294 40.41600462 -5.8125 43.625 C-5.78736328 44.52863281 -5.76222656 45.43226562 -5.73632812 46.36328125 C-5.67778476 51.71024149 -6.05082286 55.34014531 -9 60 C-9.33 60 -9.66 60 -10 60 C-10.25106323 53.47235611 -10.25106323 53.47235611 -9.01171875 51.140625 C-7.68734528 48.33847573 -7.69908178 46.08847376 -7.6875 43 C-7.67074219 41.96875 -7.65398437 40.9375 -7.63671875 39.875 C-7.75988426 36.97842268 -7.75988426 36.97842268 -9.484375 35.0390625 C-11.60525506 32.18571356 -11.43957689 29.88822185 -11.5625 26.375 C-11.47903191 21.64601589 -11.47903191 21.64601589 -14 18 C-14 17.01 -14 16.02 -14 15 C-15.97536745 15.34786708 -15.97536745 15.34786708 -18 16 C-18.33 16.66 -18.66 17.32 -19 18 C-17.68 18.33 -16.36 18.66 -15 19 C-15 21.31 -15 23.62 -15 26 C-16.32 26.33 -17.64 26.66 -19 27 C-18.67 26.34 -18.34 25.68 -18 25 C-17.34 25 -16.68 25 -16 25 C-16 23.35 -16 21.7 -16 20 C-17.093125 20.20625 -18.18625 20.4125 -19.3125 20.625 C-23 21 -23 21 -26 19 C-28.00838196 19.64097297 -30.00827818 20.30899447 -32 21 C-34.19140625 20.56640625 -34.19140625 20.56640625 -36 20 C-36.00257812 19.39671875 -36.00515625 18.7934375 -36.0078125 18.171875 C-36.12957907 15.65536583 -36.33403341 13.43350057 -37 11 C-39.88274079 8.38025574 -39.88274079 8.38025574 -43 7 C-42.67 6.34 -42.34 5.68 -42 5 C-41.34 5.66 -40.68 6.32 -40 7 C-36.03267177 6.71661941 -33.20334161 4.1587737 -30 2 C-29.34 2 -28.68 2 -28 2 C-28.433125 2.8353125 -28.433125 2.8353125 -28.875 3.6875 C-30.66579608 7.36858084 -32.11088119 10.99896537 -33 15 C-32.34 15 -31.68 15 -31 15 C-30.34 14.34 -29.68 13.68 -29 13 C-26.9375 13.25 -26.9375 13.25 -25 14 C-24.67 14.66 -24.34 15.32 -24 16 C-21.19219708 15.43843942 -19.12429551 14.57778534 -16.5 13.3125 C-13 12 -13 12 -10.5625 12.8125 C-10.046875 13.204375 -9.53125 13.59625 -9 14 C-8.01 12.02 -7.02 10.04 -6 8 C-5.34 8 -4.68 8 -4 8 C-3.566875 6.576875 -3.566875 6.576875 -3.125 5.125 C-2 2 -2 2 0 0 Z " fill="#B4B4B4" transform="translate(91,58)"/>
<path d="M0 0 C1.32 0.33 2.64 0.66 4 1 C5.19287411 4.87684087 6 7.91621923 6 12 C4.02 12 2.04 12 0 12 C0.33 13.98 0.66 15.96 1 18 C1.66 18 2.32 18 3 18 C4.81426728 21.07029847 5.20901169 22.97285751 4.75 26.5 C4.66234375 27.2528125 4.5746875 28.005625 4.484375 28.78125 C3.97595134 31.1101584 3.15218067 32.92229716 2 35 C0.35 34.01 -1.3 33.02 -3 32 C-2.125 27.25 -2.125 27.25 -1 25 C-3.64738916 23.5393715 -4.89448334 23 -8 23 C-8.66 23.99 -9.32 24.98 -10 26 C-10.99 26 -11.98 26 -13 26 C-13.19622241 21.78121808 -12.80230168 18.82989106 -11 15 C-10.34 15 -9.68 15 -9 15 C-9 13.68 -9 12.36 -9 11 C-6.29120665 9.64560332 -3.99066732 9.93498549 -1 10 C-0.67 9.34 -0.34 8.68 0 8 C1.32 8.66 2.64 9.32 4 10 C3.71125 9.44570313 3.4225 8.89140625 3.125 8.3203125 C2.568125 7.23363281 2.568125 7.23363281 2 6.125 C1.62875 5.40570312 1.2575 4.68640625 0.875 3.9453125 C0 2 0 2 0 0 Z " fill="#B8B8B8" transform="translate(73,20)"/>
<path d="M0 0 C0.66 0 1.32 0 2 0 C2 3.63 2 7.26 2 11 C-0.43489767 11.55706146 -2.87149591 12.0960037 -5.3125 12.625 C-6.00279297 12.78484375 -6.69308594 12.9446875 -7.40429688 13.109375 C-9.25173481 13.50206712 -11.12680022 13.75842888 -13 14 C-13.99 13.34 -14.98 12.68 -16 12 C-16 11.34 -16 10.68 -16 10 C-16.66 10 -17.32 10 -18 10 C-18 9.34 -18 8.68 -18 8 C-20.04136395 7.94548286 -22.08315856 7.90697515 -24.125 7.875 C-25.26195313 7.85179688 -26.39890625 7.82859375 -27.5703125 7.8046875 C-31.07817624 8.00445195 -33.7316888 8.75515109 -37 10 C-39.6875 10.8125 -39.6875 10.8125 -42 11 C-43.8125 9.5625 -43.8125 9.5625 -45 8 C-44.67 7.01 -44.34 6.02 -44 5 C-42.125 4.6875 -40.25 4.375 -38.375 4.0625 C-37.33085938 3.88847656 -36.28671875 3.71445313 -35.2109375 3.53515625 C-34.15132812 3.35855469 -33.09171875 3.18195313 -32 3 C-30.97648437 2.78472656 -29.95296875 2.56945312 -28.8984375 2.34765625 C-25.81187612 1.97743528 -24.13089108 2.29218232 -21.25 3.375 C-20.49203125 3.65085937 -19.7340625 3.92671875 -18.953125 4.2109375 C-17 5 -17 5 -15 6 C-12.95088239 5.93814311 -12.95088239 5.93814311 -10.6875 5.625 C-9.88828125 5.52574219 -9.0890625 5.42648438 -8.265625 5.32421875 C-5.82072013 4.97434443 -3.40937768 4.54405303 -1 4 C-0.67 2.68 -0.34 1.36 0 0 Z " fill="#8D8D8D" transform="translate(77,80)"/>
<path d="M0 0 C5.75 -0.125 5.75 -0.125 8 1 C8 1.66 8 2.32 8 3 C8.5775 3.0825 9.155 3.165 9.75 3.25 C12.63404148 4.21134716 13.93681647 5.80370785 16 8 C16.99 8.66 17.98 9.32 19 10 C19 10.66 19 11.32 19 12 C19.99 12 20.98 12 22 12 C22.33 13.32 22.66 14.64 23 16 C20.03 16 17.06 16 14 16 C12.63263488 19.00820327 11.9408745 21.44344128 11.5 24.75 C11.335 25.8225 11.17 26.895 11 28 C10.34 28.33 9.68 28.66 9 29 C8.84144531 27.89140625 8.68289062 26.7828125 8.51953125 25.640625 C8.28496083 24.17690555 8.0492221 22.713373 7.8125 21.25 C7.71130859 20.52039063 7.61011719 19.79078125 7.50585938 19.0390625 C6.84327508 15.0993721 6.46474016 13.44031796 3.47265625 10.60546875 C2.24869141 9.81076172 2.24869141 9.81076172 1 9 C-0.85141842 6.39118313 -1.06204237 5.45497738 -0.625 2.25 C-0.41875 1.5075 -0.2125 0.765 0 0 Z " fill="#646465" transform="translate(25,4)"/>
<path d="M0 0 C3.96 0 7.92 0 12 0 C12 7.59 12 15.18 12 23 C9.69 23 7.38 23 5 23 C4.67 22.01 4.34 21.02 4 20 C3.01 19.34 2.02 18.68 1 18 C-0.664458 12.25005418 -0.06581441 5.92329701 0 0 Z " fill="#FBFBFB" transform="translate(116,0)"/>
<path d="M0 0 C1.65 0 3.3 0 5 0 C5.10957031 1.27617187 5.21914062 2.55234375 5.33203125 3.8671875 C5.49146262 5.53652772 5.65165855 7.20579505 5.8125 8.875 C5.88275391 9.71675781 5.95300781 10.55851563 6.02539062 11.42578125 C6.10595703 12.23144531 6.18652344 13.03710938 6.26953125 13.8671875 C6.33760986 14.61081543 6.40568848 15.35444336 6.47583008 16.12060547 C6.89086688 18.39845252 6.89086688 18.39845252 10 20 C10 20.99 10 21.98 10 23 C12.31 23 14.62 23 17 23 C17 24.65 17 26.3 17 28 C14.24921116 28.91692961 12.64051087 29.10886083 9.8125 29.0625 C7.9253125 29.0315625 7.9253125 29.0315625 6 29 C5.9071875 29.8353125 5.9071875 29.8353125 5.8125 30.6875 C4.47882921 34.48333226 1.57659173 37.21170413 -2 39 C-0.54453498 35.60391496 1.40860299 33.59139701 4 31 C4.33 30.29875 4.66 29.5975 5 28.875 C6.26235606 26.50808239 7.55556051 25.9777758 10 25 C8.68 24.34 7.36 23.68 6 23 C5.71125 23.639375 5.4225 24.27875 5.125 24.9375 C4 27 4 27 2 28 C1.34 28.99 0.68 29.98 0 31 C-0.33 29.02 -0.66 27.04 -1 25 C0.32 25 1.64 25 3 25 C2.67 24.01 2.34 23.02 2 22 C1.01 22 0.02 22 -1 22 C-1.33 22.99 -1.66 23.98 -2 25 C-3.32 25 -4.64 25 -6 25 C-5.67 26.65 -5.34 28.3 -5 30 C-5.598125 30.061875 -6.19625 30.12375 -6.8125 30.1875 C-9.87143458 31.3236757 -10.55041099 33.17330142 -12 36 C-13 34 -13 34 -12.3125 31.125 C-10.93617713 27.84804078 -9.81121909 26.14975577 -7 24 C-5.68 24 -4.36 24 -3 24 C-2.67 22.68 -2.34 21.36 -2 20 C-0.02 20 1.96 20 4 20 C3.67 17.36 3.34 14.72 3 12 C1.35 11.67 -0.3 11.34 -2 11 C-2.66 12.32 -3.32 13.64 -4 15 C-3.6875 12.625 -3.6875 12.625 -3 10 C-2.01 9.34 -1.02 8.68 0 8 C0.36297936 6.02252878 0.36297936 6.02252878 0.1875 3.875 C0.125625 2.59625 0.06375 1.3175 0 0 Z " fill="#BBBBBB" transform="translate(111,0)"/>
<path d="M0 0 C5.61758986 0.40125642 8.12582134 2.12582134 12 6 C12 6.99 12 7.98 12 9 C13.32 9.33 14.64 9.66 16 10 C16 11.65 16 13.3 16 15 C12.7 15 9.4 15 6 15 C5.67 18.96 5.34 22.92 5 27 C6.32 26.67 7.64 26.34 9 26 C10.16433435 29.70724057 10.16731546 33.25764121 10.1875 37.125 C10.20167969 38.36507812 10.21585938 39.60515625 10.23046875 40.8828125 C10 44 10 44 8 46 C7.92523438 45.35933594 7.85046875 44.71867187 7.7734375 44.05859375 C6.89060796 38.2509602 5.62503932 34.73691413 1.4375 30.5703125 C-2.25463658 26.53705461 -2.55762884 22.01446028 -3.125 16.75 C-3.21136719 16.00492188 -3.29773438 15.25984375 -3.38671875 14.4921875 C-3.59786867 12.66222154 -3.79984545 10.83120121 -4 9 C-1 11 -1 11 -0.05078125 14.4765625 C0.20805936 15.85704578 0.45369501 17.24005676 0.6875 18.625 C0.88182617 19.68460938 0.88182617 19.68460938 1.08007812 20.765625 C1.39801563 22.50839354 1.70049829 24.25396874 2 26 C2.12117188 25.31292969 2.24234375 24.62585938 2.3671875 23.91796875 C2.53476562 23.01691406 2.70234375 22.11585937 2.875 21.1875 C3.03742187 20.29417969 3.19984375 19.40085937 3.3671875 18.48046875 C4 16 4 16 6 13 C8.97 13.33 11.94 13.66 15 14 C14.67 12.68 14.34 11.36 14 10 C13.01 10 12.02 10 11 10 C9.5625 8.6875 9.5625 8.6875 8 7 C7.278125 6.484375 6.55625 5.96875 5.8125 5.4375 C4.9153125 4.7259375 4.9153125 4.7259375 4 4 C4 3.34 4 2.68 4 2 C2.68 1.34 1.36 0.68 0 0 Z " fill="#939393" transform="translate(33,6)"/>
<path d="M0 0 C0.68964844 -0.00386719 1.37929688 -0.00773437 2.08984375 -0.01171875 C7.24666707 -0.00166646 7.24666707 -0.00166646 9.5 1.125 C10.1875 3.0625 10.1875 3.0625 10.5 5.125 C10.17 5.785 9.84 6.445 9.5 7.125 C7.16752239 7.46426947 4.83414529 7.79740066 2.5 8.125 C1.84 8.785 1.18 9.445 0.5 10.125 C-6.20299728 10.90701635 -6.20299728 10.90701635 -9.359375 9.00390625 C-11 7.625 -11 7.625 -13.5 5.125 C-8.94966421 0.42298635 -6.41938448 -0.03599655 0 0 Z " fill="#F9F9F9" transform="translate(50.5,88.875)"/>
<path d="M0 0 C3.32943825 0.55490638 6.11610028 1.20999328 9 3 C9.99 4.485 9.99 4.485 11 6 C13.05003955 7.19232613 13.05003955 7.19232613 15 8 C15 9.32 15 10.64 15 12 C14.32453125 12.06058594 13.6490625 12.12117188 12.953125 12.18359375 C12.06109375 12.26738281 11.1690625 12.35117188 10.25 12.4375 C9.36828125 12.51871094 8.4865625 12.59992188 7.578125 12.68359375 C5.04629742 12.92843585 5.04629742 12.92843585 2.84375 13.60546875 C1 14 1 14 -1.75 12.875 C-4 11 -4 11 -4.5625 8.6875 C-3.82399486 5.15908653 -2.13380604 2.86730186 0 0 Z " fill="#DADADA" transform="translate(29,57)"/>
<path d="M0 0 C2.31 0 4.62 0 7 0 C7 0.33 7 0.66 7 1 C5.35 1 3.7 1 2 1 C2.309375 1.9075 2.61875 2.815 2.9375 3.75 C4.43901394 8.34286616 5.12244925 11.99994659 5.09765625 16.859375 C5.09443359 17.97441406 5.09121094 19.08945312 5.08789062 20.23828125 C5.07951172 21.39714844 5.07113281 22.55601563 5.0625 23.75 C5.05798828 24.92433594 5.05347656 26.09867188 5.04882812 27.30859375 C5.03705094 30.20578072 5.02060326 33.10286454 5 36 C4.40058594 35.49726562 3.80117188 34.99453125 3.18359375 34.4765625 C1.0269364 32.66789653 1.0269364 32.66789653 -1.9375 33.375 C-2.948125 33.58125 -3.95875 33.7875 -5 34 C-7.8125 33.6875 -7.8125 33.6875 -10 33 C-10.33 32.34 -10.66 31.68 -11 31 C-4.375 30 -4.375 30 -1 30 C-1 27.03 -1 24.06 -1 21 C-1.99 20.67 -2.98 20.34 -4 20 C-7.11875512 15.87878788 -7.11875512 15.87878788 -6.6875 12.6875 C-6.460625 12.130625 -6.23375 11.57375 -6 11 C-5.5875 11.721875 -5.175 12.44375 -4.75 13.1875 C-3.09702395 16.03790841 -3.09702395 16.03790841 -0.875 18.3125 C1.65883781 21.94433419 1.70274907 24.6155488 2 29 C2.33 29 2.66 29 3 29 C3 23.06 3 17.12 3 11 C1.68 11.33 0.36 11.66 -1 12 C-1.02698189 10.37509046 -1.04638757 8.75005367 -1.0625 7.125 C-1.07410156 6.22007813 -1.08570313 5.31515625 -1.09765625 4.3828125 C-1 2 -1 2 0 0 Z " fill="#B8B8B8" transform="translate(39,21)"/>
<path d="M0 0 C2.33199388 0.07905064 4.66832622 0.08798769 7 0 C7 1.65 7 3.3 7 5 C2.44866967 7.91285141 -0.44107773 9.72507682 -6 9 C-8.875 8 -8.875 8 -11 7 C-11 6.34 -11 5.68 -11 5 C-12.32 5 -13.64 5 -15 5 C-15 4.34 -15 3.68 -15 3 C-14.34 3 -13.68 3 -13 3 C-13 2.34 -13 1.68 -13 1 C-11.40139351 0.44213732 -9.79582095 -0.09579568 -8.1875 -0.625 C-7.29417969 -0.92664063 -6.40085937 -1.22828125 -5.48046875 -1.5390625 C-3 -2 -3 -2 0 0 Z " fill="#DADADA" transform="translate(68,78)"/>
<path d="M0 0 C3.67230705 3.07999946 4.56802365 5.2482602 5 10 C2.36 10.33 -0.28 10.66 -3 11 C-3 12.32 -3 13.64 -3 15 C-3.66 15 -4.32 15 -5 15 C-5.99 20.445 -5.99 20.445 -7 26 C-3.72226496 25.24849977 -3.72226496 25.24849977 -2 22 C0.96175123 22.61277612 2.38058783 23.25372522 5 25 C4.67 25.99 4.34 26.98 4 28 C3.34 28 2.68 28 2 28 C1.34 26.68 0.68 25.36 0 24 C-0.45375 24.66 -0.9075 25.32 -1.375 26 C-1.91125 26.66 -2.4475 27.32 -3 28 C-3.66 28 -4.32 28 -5 28 C-5.33 29.32 -5.66 30.64 -6 32 C-6.66 32 -7.32 32 -8 32 C-8 31.34 -8 30.68 -8 30 C-8.66 30 -9.32 30 -10 30 C-10.2475 30.639375 -10.495 31.27875 -10.75 31.9375 C-12 34 -12 34 -14.125 34.75 C-14.74375 34.8325 -15.3625 34.915 -16 35 C-18 32 -18 32 -18 28 C-16.88625 28.309375 -16.88625 28.309375 -15.75 28.625 C-12.67669159 29.04408751 -11.57213134 28.61949011 -9 27 C-9.185625 25.6078125 -9.185625 25.6078125 -9.375 24.1875 C-9.40976996 18.54317645 -6.18808775 13.4834908 -3 9 C0 8 0 8 3 9 C2.505 8.071875 2.01 7.14375 1.5 6.1875 C0 3 0 3 0 0 Z " fill="#DBDBDB" transform="translate(67,20)"/>
<path d="M0 0 C4.43604642 2.2813953 6.83596917 5.20316301 10 9 C11.36125 9.6496875 11.36125 9.6496875 12.75 10.3125 C15 12 15 12 15.53515625 14.1796875 C15.78737681 16.46032972 15.94711336 18.70664304 16 21 C13.75 21.6875 13.75 21.6875 11 22 C9 20.625 9 20.625 7 19 C4.35065178 18.28566879 4.35065178 18.28566879 2 18 C2 17.01 2 16.02 2 15 C3.32 14.67 4.64 14.34 6 14 C5.68331692 10.30536412 5.12432288 9.12432288 2.4375 6.4375 C1.633125 5.633125 0.82875 4.82875 0 4 C0 2.68 0 1.36 0 0 Z " fill="#646465" transform="translate(40,57)"/>
<path d="M0 0 C1.32 1.65 2.64 3.3 4 5 C3.67 5.33 3.34 5.66 3 6 C2.66625723 8.41583753 2.66625723 8.41583753 3 11 C4.39585785 12.81476003 4.39585785 12.81476003 6 14 C4.125 13.875 4.125 13.875 2 13 C1.5359375 11.5459375 1.5359375 11.5459375 1.0625 10.0625 C0.31669923 6.78408334 0.31669923 6.78408334 -2.625 5.625 C-3.40875 5.41875 -4.1925 5.2125 -5 5 C-4.7215625 5.928125 -4.7215625 5.928125 -4.4375 6.875 C-4 9 -4 9 -5 11 C-6.051875 10.95875 -7.10375 10.9175 -8.1875 10.875 C-11.77689079 10.99268494 -13.92653325 11.19207838 -17 13 C-17.88693303 15.04105639 -17.88693303 15.04105639 -18 17 C-17.01 17.33 -16.02 17.66 -15 18 C-14.67 17.34 -14.34 16.68 -14 16 C-12.68 16.33 -11.36 16.66 -10 17 C-10.33 17.99 -10.66 18.98 -11 20 C-8.69 20.99 -6.38 21.98 -4 23 C-4.04125 23.928125 -4.0825 24.85625 -4.125 25.8125 C-4.27136339 29.15809719 -4.27136339 29.15809719 -2 32 C-3.9375 31.375 -3.9375 31.375 -6 30 C-6.75 26.875 -6.75 26.875 -7 24 C-8.216875 23.7525 -9.43375 23.505 -10.6875 23.25 C-14.60604261 22.23898812 -17.32782883 21.18936559 -20 18 C-19.93113135 14.00561826 -19.8685771 11.8685771 -17 9 C-14.8359375 8.5859375 -14.8359375 8.5859375 -12.375 8.375 C-11.14910156 8.26285156 -11.14910156 8.26285156 -9.8984375 8.1484375 C-9.27195312 8.09945312 -8.64546875 8.05046875 -8 8 C-7.67 6.35 -7.34 4.7 -7 3 C-4 2 -4 2 -1.8125 2.9375 C-0.9153125 3.4634375 -0.9153125 3.4634375 0 4 C0 2.68 0 1.36 0 0 Z " fill="#B8B8B8" transform="translate(23,57)"/>
<path d="M0 0 C0.33 0.99 0.66 1.98 1 3 C0.34 3 -0.32 3 -1 3 C-1.66 5.31 -2.32 7.62 -3 10 C-3.66 10 -4.32 10 -5 10 C-7.12698664 17.29252563 -9.05630515 24.45044119 -10 32 C-8.68 32.66 -7.36 33.32 -6 34 C-5.91225934 37.20815845 -5.85936294 40.41600462 -5.8125 43.625 C-5.78736328 44.52863281 -5.76222656 45.43226562 -5.73632812 46.36328125 C-5.67778476 51.71024149 -6.05082286 55.34014531 -9 60 C-9.33 60 -9.66 60 -10 60 C-10.25106323 53.47235611 -10.25106323 53.47235611 -9.01171875 51.140625 C-7.68734528 48.33847573 -7.69908178 46.08847376 -7.6875 43 C-7.67074219 41.96875 -7.65398437 40.9375 -7.63671875 39.875 C-7.75988426 36.97842268 -7.75988426 36.97842268 -9.484375 35.0390625 C-11.60525506 32.18571356 -11.43957689 29.88822185 -11.5625 26.375 C-11.47903191 21.64601589 -11.47903191 21.64601589 -14 18 C-14 17.01 -14 16.02 -14 15 C-14.99 14.67 -15.98 14.34 -17 14 C-15.25 12.875 -15.25 12.875 -13 12 C-10.75 12.875 -10.75 12.875 -9 14 C-8.01 12.02 -7.02 10.04 -6 8 C-5.34 8 -4.68 8 -4 8 C-3.566875 6.576875 -3.566875 6.576875 -3.125 5.125 C-2 2 -2 2 0 0 Z " fill="#B8B8B8" transform="translate(91,58)"/>
<path d="M0 0 C1.32 0.66 2.64 1.32 4 2 C4 2.99 4 3.98 4 5 C3.071875 5.12375 3.071875 5.12375 2.125 5.25 C-0.1346633 5.77905978 -0.1346633 5.77905978 -0.9375 7.75 C-1.288125 8.4925 -1.63875 9.235 -2 10 C-3.66666667 11.66666667 -5.33333333 13.33333333 -7 15 C-7.33 15.99 -7.66 16.98 -8 18 C-8.639375 18.28875 -9.27875 18.5775 -9.9375 18.875 C-12.71680854 20.39098648 -13.07115981 22.05867273 -14 25 C-14.99 25 -15.98 25 -17 25 C-16.67 23.02 -16.34 21.04 -16 19 C-15.34 19 -14.68 19 -14 19 C-14 17.02 -14 15.04 -14 13 C-12.68 13 -11.36 13 -10 13 C-9.34 11.68 -8.68 10.36 -8 9 C-7.01 9 -6.02 9 -5 9 C-4.87625 8.360625 -4.7525 7.72125 -4.625 7.0625 C-4.41875 6.381875 -4.2125 5.70125 -4 5 C-3.34 4.67 -2.68 4.34 -2 4 C-0.86649466 1.98330173 -0.86649466 1.98330173 0 0 Z " fill="#959595" transform="translate(117,22)"/>
<path d="M0 0 C6.42380498 0.73414914 11.91077756 4.18308317 17 8 C18.375 10.25 18.375 10.25 19 12 C14.42149034 13.52616989 10.48105351 12.66299967 6 11 C2.52903625 8.17463551 0.41149073 5.23447219 -1 1 C-0.67 0.67 -0.34 0.34 0 0 Z " fill="#1C1C1C" transform="translate(27,6)"/>
<path d="M0 0 C0.66 0 1.32 0 2 0 C2 3.63 2 7.26 2 11 C-0.41254224 11.61213758 -2.82537261 12.1897811 -5.25 12.75 C-5.93191406 12.92660156 -6.61382812 13.10320312 -7.31640625 13.28515625 C-9.328125 13.734375 -9.328125 13.734375 -13 14 C-15.484375 12.203125 -15.484375 12.203125 -17 10 C-17 9.34 -17 8.68 -17 8 C-16.28972656 7.95101562 -15.57945313 7.90203125 -14.84765625 7.8515625 C-13.92855469 7.77679688 -13.00945313 7.70203125 -12.0625 7.625 C-11.14597656 7.55539063 -10.22945313 7.48578125 -9.28515625 7.4140625 C-8.15400391 7.20910156 -8.15400391 7.20910156 -7 7 C-6.67 6.34 -6.34 5.68 -6 5 C-3.4375 4.375 -3.4375 4.375 -1 4 C-0.67 2.68 -0.34 1.36 0 0 Z " fill="#59595A" transform="translate(77,80)"/>
<path d="M0 0 C0.22174933 1.45635371 0.42698698 2.91522956 0.625 4.375 C0.74101563 5.18710938 0.85703125 5.99921875 0.9765625 6.8359375 C0.98429687 7.55007812 0.99203125 8.26421875 1 9 C0.34 9.66 -0.32 10.32 -1 11 C-3.82957829 10.63723355 -6.29084291 9.90305236 -9 9 C-11.63804589 9.39397335 -11.63804589 9.39397335 -14 10 C-14 8.35 -14 6.7 -14 5 C-13.01 4.67 -12.02 4.34 -11 4 C-10.360625 3.34 -9.72125 2.68 -9.0625 2 C-5.89186239 -1.07455768 -4.15976867 -1.38658956 0 0 Z " fill="#FBFBFB" transform="translate(75,60)"/>
<path d="M0 0 C2.30787679 0.39496737 2.30787679 0.39496737 5.12109375 -0.7734375 C7.43109375 1.8665625 9.74109375 4.5065625 12.12109375 7.2265625 C11.79109375 7.8865625 11.46109375 8.5465625 11.12109375 9.2265625 C9.14109375 7.5765625 7.16109375 5.9265625 5.12109375 4.2265625 C5.39726908 6.16731111 5.39726908 6.16731111 6.12109375 8.2265625 C7.11109375 8.8865625 8.10109375 9.5465625 9.12109375 10.2265625 C8.79109375 10.8865625 8.46109375 11.5465625 8.12109375 12.2265625 C2.24609375 8.4765625 2.24609375 8.4765625 1.12109375 6.2265625 C-0.76154506 5.32312566 -0.76154506 5.32312566 -2.94140625 4.6015625 C-3.67488281 4.34117188 -4.40835937 4.08078125 -5.1640625 3.8125 C-6.01291016 3.52246094 -6.01291016 3.52246094 -6.87890625 3.2265625 C-7.53890625 4.5465625 -8.19890625 5.8665625 -8.87890625 7.2265625 C-9.86890625 6.8965625 -10.85890625 6.5665625 -11.87890625 6.2265625 C-11.53314275 3.71977715 -11.00394021 2.37764521 -9.37890625 0.4140625 C-6.01081921 -1.18577884 -3.60673572 -0.62038287 0 0 Z " fill="#949494" transform="translate(35.87890625,53.7734375)"/>
<path d="M0 0 C0.99 0 1.98 0 3 0 C3 0.66 3 1.32 3 2 C2.34 2 1.68 2 1 2 C0.67 3.98 0.34 5.96 0 8 C0.99 7.67 1.98 7.34 3 7 C3.309375 6.175 3.61875 5.35 3.9375 4.5 C4.4634375 3.2625 4.4634375 3.2625 5 2 C7.125 1.1875 7.125 1.1875 9 1 C9 1.66 9 2.32 9 3 C8 4 7 5 6 6 C5.71640625 6.64195313 5.4328125 7.28390625 5.140625 7.9453125 C3.77688641 10.4019101 2.55726011 11.14160567 0.125 12.5 C-3.03824972 14.35769029 -5.54167884 16.23438869 -8 19 C-7.34 17.35 -6.68 15.7 -6 14 C-7.98264795 14.65589738 -7.98264795 14.65589738 -10 16 C-10.68753301 17.65816784 -11.35561283 19.32459336 -12 21 C-12.99 21.33 -13.98 21.66 -15 22 C-15.66 22.66 -16.32 23.32 -17 24 C-16.67 22.68 -16.34 21.36 -16 20 C-15.01 20 -14.02 20 -13 20 C-13.08894531 19.24203125 -13.17789063 18.4840625 -13.26953125 17.703125 C-13 15 -13 15 -11.13671875 13.234375 C-10.32847656 12.74453125 -9.52023438 12.2546875 -8.6875 11.75 C-7.88699219 11.24984375 -7.08648437 10.7496875 -6.26171875 10.234375 C-4 9 -4 9 -1 8 C-1.020625 6.865625 -1.04125 5.73125 -1.0625 4.5625 C-1 1 -1 1 0 0 Z " fill="#B9B9B9" transform="translate(100,39)"/>
<path d="M0 0 C0.66 0.33 1.32 0.66 2 1 C1.1875 3.9375 1.1875 3.9375 0 7 C-0.99 7.33 -1.98 7.66 -3 8 C-3.33 9.65 -3.66 11.3 -4 13 C-6.25 13.3125 -6.25 13.3125 -9 13 C-11.0625 10.625 -11.0625 10.625 -13 8 C-15.11660427 6.68834743 -15.11660427 6.68834743 -17 6 C-16.83701416 6.85609863 -16.67402832 7.71219727 -16.50610352 8.59423828 C-16.00638334 11.95704412 -15.88616854 15.09539294 -15.90234375 18.4921875 C-15.90556641 19.69101562 -15.90878906 20.88984375 -15.91210938 22.125 C-15.92048828 23.3625 -15.92886719 24.6 -15.9375 25.875 C-15.94201172 27.13570312 -15.94652344 28.39640625 -15.95117188 29.6953125 C-15.9629204 32.79692386 -15.97934833 35.89843725 -16 39 C-16.33 39 -16.66 39 -17 39 C-17.01981934 38.32533691 -17.03963867 37.65067383 -17.06005859 36.95556641 C-17.1563811 33.84504139 -17.2656181 30.73509211 -17.375 27.625 C-17.4059375 26.56410156 -17.436875 25.50320312 -17.46875 24.41015625 C-17.71376291 17.75397212 -18.45532884 11.48181048 -20 5 C-16.4179079 4.7500866 -14.52125745 4.6694465 -11.4375 6.625 C-10.2309375 7.305625 -10.2309375 7.305625 -9 8 C-6.36186139 7.26145768 -6.36186139 7.26145768 -4 6 C-3.01 6 -2.02 6 -1 6 C-0.67 4.02 -0.34 2.04 0 0 Z " fill="#DCDCDC" transform="translate(61,17)"/>
<path d="M0 0 C0.9075 0.474375 1.815 0.94875 2.75 1.4375 C5.74287156 3.01999302 5.74287156 3.01999302 8.125 3.5 C10.61663825 4.16443687 12.11951896 5.25383903 14 7 C14 7.99 14 8.98 14 10 C11.36 10 8.72 10 6 10 C6 12.64 6 15.28 6 18 C2.84766242 16.42383121 2.18000248 13.64239462 0.8203125 10.5 C-0.3818177 6.8363651 -0.27834468 3.82723938 0 0 Z " fill="#646465" transform="translate(25,90)"/>
<path d="M0 0 C0.33 0 0.66 0 1 0 C1.226875 1.03125 1.45375 2.0625 1.6875 3.125 C2.57169615 6.33908527 3.28273892 7.3231302 5.625 10 C8.49314403 13.62291878 8.45045026 15.49549736 8 20 C4.32589215 21.17571451 0.83070817 21.07366746 -3 21 C-3.33 22.32 -3.66 23.64 -4 25 C-5.32 25.33 -6.64 25.66 -8 26 C-6.76136033 22.28408098 -5.11164427 21.27681288 -2 19 C-1.34 18.67 -0.68 18.34 0 18 C1.61991803 14.51717623 2.21498022 12.73707504 1.125 9 C0.75375 8.01 0.3825 7.02 0 6 C-0.125 2.625 -0.125 2.625 0 0 Z " fill="#D8D8D8" transform="translate(31,31)"/>
<path d="M0 0 C0.99 0.33 1.98 0.66 3 1 C2.80743982 9.19256018 2.80743982 9.19256018 -0.375 12.375 C-1.24125 12.91125 -2.1075 13.4475 -3 14 C-4.0173873 14.98230498 -5.02596117 15.97469597 -6 17 C-7 16 -7 16 -7.375 13.5 C-6.85622474 8.65809757 -4.76152612 4.97492397 -2 1 C-1.34 0.67 -0.68 0.34 0 0 Z " fill="#1C1C1C" transform="translate(92,27)"/>
<path d="M0 0 C0.66 0.33 1.32 0.66 2 1 C1.01 3.64 0.02 6.28 -1 9 C-3.06242617 9.02717692 -5.12495703 9.0464758 -7.1875 9.0625 C-8.33605469 9.07410156 -9.48460938 9.08570313 -10.66796875 9.09765625 C-13.61520036 9.01127783 -16.17216952 8.82198363 -19 8 C-19.33 7.34 -19.66 6.68 -20 6 C-22.52733235 5.34444881 -22.52733235 5.34444881 -25 5 C-25 4.67 -25 4.34 -25 4 C-23.64455078 4.03480469 -23.64455078 4.03480469 -22.26171875 4.0703125 C-20.49248047 4.09738281 -20.49248047 4.09738281 -18.6875 4.125 C-17.51574219 4.14820312 -16.34398437 4.17140625 -15.13671875 4.1953125 C-11.83606339 4.25320618 -11.83606339 4.25320618 -9 2 C-8.01 2 -7.02 2 -6 2 C-6 2.99 -6 3.98 -6 5 C-4.68 5 -3.36 5 -2 5 C-1.34 3.35 -0.68 1.7 0 0 Z " fill="#9D9D9D" transform="translate(77,119)"/>
<path d="M0 0 C1.19287411 3.87684087 2 6.91621923 2 11 C1.31292969 10.91621094 0.62585938 10.83242188 -0.08203125 10.74609375 C-0.98308594 10.64425781 -1.88414063 10.54242188 -2.8125 10.4375 C-3.70582031 10.33308594 -4.59914063 10.22867188 -5.51953125 10.12109375 C-8.13375572 9.84341291 -8.13375572 9.84341291 -11 11 C-9.54440433 3.60072202 -9.54440433 3.60072202 -7.1875 1 C-4.62359434 -0.17207116 -2.78877225 -0.23239769 0 0 Z " fill="#929292" transform="translate(72,32)"/>
<path d="M0 0 C0.99 0 1.98 0 3 0 C1.78048095 3.47093883 0.56429023 5.43570977 -2 8 C-3.19027984 10.59915538 -3.19027984 10.59915538 -4 13 C-4.66 13 -5.32 13 -6 13 C-6.66 14.98 -7.32 16.96 -8 19 C-9.32 19 -10.64 19 -12 19 C-13.125 14.25 -13.125 14.25 -12 12 C-10.68 12 -9.36 12 -8 12 C-7.34 10.35 -6.68 8.7 -6 7 C-5.01 7 -4.02 7 -3 7 C-2.87625 6.21625 -2.7525 5.4325 -2.625 4.625 C-2 2 -2 2 0 0 Z " fill="#888888" transform="translate(91,53)"/>
<path d="M0 0 C1.32 0.33 2.64 0.66 4 1 C4.69937532 2.31647119 5.36729133 3.65022151 6 5 C6.99 5.33 7.98 5.66 9 6 C9.94921875 8.06640625 9.94921875 8.06640625 10.6875 10.5625 C10.93886719 11.38878906 11.19023438 12.21507812 11.44921875 13.06640625 C11.63097656 13.70449219 11.81273438 14.34257812 12 15 C11.01 15 10.02 15 9 15 C8.34 14.01 7.68 13.02 7 12 C3.44327821 10.7811879 3.44327821 10.7811879 0 10 C0 6.7 0 3.4 0 0 Z " fill="#6C6C6C" transform="translate(60,5)"/>
<path d="M0 0 C1.49366996 4.48100988 0.04777458 7.845943 -2 12 C-3.85650486 14.01450528 -5.75788771 15.37804643 -8 17 C-8.66 17.99 -9.32 18.98 -10 20 C-10.99 20 -11.98 20 -13 20 C-13.46822584 12.19623593 -13.37808857 6.62967697 -9 0 C-5.52176885 -1.15941038 -3.54104422 -0.70820884 0 0 Z M-5 1 C-9.28008379 4.8373165 -11.86273219 8.52917945 -12.1875 14.375 C-12.125625 15.24125 -12.06375 16.1075 -12 17 C-8.80736708 17.32990059 -8.80736708 17.32990059 -6.4375 14.75 C-2.52601216 10.33703936 -1.7306821 7.92499391 -2 2 C-2.99 1.67 -3.98 1.34 -5 1 Z " fill="#676768" transform="translate(97,26)"/>
<path d="M0 0 C1.65 0 3.3 0 5 0 C5.10957031 1.27617187 5.21914062 2.55234375 5.33203125 3.8671875 C5.49146262 5.53652772 5.65165855 7.20579505 5.8125 8.875 C5.88275391 9.71675781 5.95300781 10.55851563 6.02539062 11.42578125 C6.10595703 12.23144531 6.18652344 13.03710938 6.26953125 13.8671875 C6.37164917 14.98262939 6.37164917 14.98262939 6.47583008 16.12060547 C6.89086688 18.39845252 6.89086688 18.39845252 10 20 C9.67 20.66 9.34 21.32 9 22 C4.4253583 19.47605975 3.47943448 15.71849937 2 11 C0.68 11 -0.64 11 -2 11 C-2.66 12.32 -3.32 13.64 -4 15 C-3.6875 12.625 -3.6875 12.625 -3 10 C-2.01 9.34 -1.02 8.68 0 8 C0.36297936 6.02252878 0.36297936 6.02252878 0.1875 3.875 C0.125625 2.59625 0.06375 1.3175 0 0 Z " fill="#DADADA" transform="translate(111,0)"/>
<path d="M0 0 C0.99 0.33 1.98 0.66 3 1 C2.67 2.65 2.34 4.3 2 6 C0.35 6 -1.3 6 -3 6 C-2.54625 6.7425 -2.0925 7.485 -1.625 8.25 C-0.31359204 10.46930578 0.88280803 12.67967822 2 15 C2.33 13.35 2.66 11.7 3 10 C3.33 10 3.66 10 4 10 C4.1953125 16.0546875 4.1953125 16.0546875 4 18 C3.34 18.66 2.68 19.32 2 20 C1.59952556 22.32275177 1.2602896 24.65739357 1 27 C0.34 27 -0.32 27 -1 27 C-2.18032787 19.13114754 -2.18032787 19.13114754 -1 15 C-1.37907282 12.81296615 -1.37907282 12.81296615 -2 11 C-2.66 11 -3.32 11 -4 11 C-4.33 9.02 -4.66 7.04 -5 5 C-3.02 5 -1.04 5 1 5 C0.505 2.525 0.505 2.525 0 0 Z " fill="#DCDCDC" transform="translate(78,27)"/>
<path d="M0 0 C3.6875 -0.3125 3.6875 -0.3125 7 0 C7 1.32 7 2.64 7 4 C4.03 3.505 4.03 3.505 1 3 C0.34 4.98 -0.32 6.96 -1 9 C-1.62648438 9.03738281 -2.25296875 9.07476562 -2.8984375 9.11328125 C-3.71570312 9.17902344 -4.53296875 9.24476562 -5.375 9.3125 C-6.59316406 9.39951172 -6.59316406 9.39951172 -7.8359375 9.48828125 C-10.37921338 9.82990528 -10.37921338 9.82990528 -12 13 C-12.20497101 15.80127043 -12.26272884 17.47454232 -11 20 C-11.99 19.67 -12.98 19.34 -14 19 C-14.92679624 15.06111599 -15.43780051 12.85656621 -13.5625 9.1875 C-10.58506027 6.64578316 -8.55953516 6.30413159 -4.8125 5.6015625 C-2.67957849 5.11312251 -2.67957849 5.11312251 -1.4375 2.375 C-0.963125 1.59125 -0.48875 0.8075 0 0 Z " fill="#DCDCDC" transform="translate(16,57)"/>
<path d="M0 0 C1.299375 0.42539062 1.299375 0.42539062 2.625 0.859375 C3.924375 1.26929688 3.924375 1.26929688 5.25 1.6875 C7.625 2.609375 7.625 2.609375 10.625 4.609375 C10.625 5.269375 10.625 5.929375 10.625 6.609375 C10.03332031 6.59777344 9.44164062 6.58617188 8.83203125 6.57421875 C3.75771485 6.5126292 3.75771485 6.5126292 -1.25 7.234375 C-3.375 7.609375 -3.375 7.609375 -6.375 5.609375 C-6.0625 3.734375 -6.0625 3.734375 -5.375 1.609375 C-2.375 -0.390625 -2.375 -0.390625 0 0 Z " fill="#FCFCFC" transform="translate(32.375,61.390625)"/>
<path d="M0 0 C0.825 0.185625 1.65 0.37125 2.5 0.5625 C5.29387237 1.05142767 7.27317724 0.70118299 10 0 C10 1.32 10 2.64 10 4 C1.83766816 7.47623318 1.83766816 7.47623318 -2.66796875 6.30859375 C-4.86057585 5.3081514 -6.93986427 4.24901949 -9 3 C-5.90431442 0.24827948 -4.11979621 -0.40193134 0 0 Z " fill="#FBFBFB" transform="translate(65,79)"/>
<path d="M0 0 C-0.33 0.66 -0.66 1.32 -1 2 C-2.02480469 1.95359375 -3.04960938 1.9071875 -4.10546875 1.859375 C-5.46611656 1.82183989 -6.82679605 1.78544159 -8.1875 1.75 C-8.86103516 1.71648437 -9.53457031 1.68296875 -10.22851562 1.6484375 C-13.99375127 1.57496949 -15.83108854 1.88606757 -18.98828125 4.015625 C-19.65214844 4.67046875 -20.31601562 5.3253125 -21 6 C-20.01 6.66 -19.02 7.32 -18 8 C-18.33 9.65 -18.66 11.3 -19 13 C-21.31 13 -23.62 13 -26 13 C-26 14.98 -26 16.96 -26 19 C-27.0625 17.1875 -27.0625 17.1875 -28 15 C-27.67 14.01 -27.34 13.02 -27 12 C-24.69 12 -22.38 12 -20 12 C-20 11.01 -20 10.02 -20 9 C-20.99 8.67 -21.98 8.34 -23 8 C-22.67522284 4.99581131 -22.42029035 3.42029035 -20.25 1.25 C-14.32878815 -2.03956214 -6.40703702 -1.83058201 0 0 Z " fill="#B9B9B9" transform="translate(59,88)"/>
<path d="M0 0 C1.0625 1.875 1.0625 1.875 2 4 C1.67 4.66 1.34 5.32 1 6 C-1.33247761 6.33926947 -3.66585471 6.67240066 -6 7 C-6.66 7.66 -7.32 8.32 -8 9 C-15.13669065 9.69064748 -15.13669065 9.69064748 -18.5 7 C-18.995 6.34 -19.49 5.68 -20 5 C-15.64667264 4.15976812 -11.55557481 3.89229005 -7.125 3.9375 C-5.97257812 3.94652344 -4.82015625 3.95554687 -3.6328125 3.96484375 C-2.76398437 3.97644531 -1.89515625 3.98804687 -1 4 C-0.67 2.68 -0.34 1.36 0 0 Z " fill="#D9D9D9" transform="translate(59,90)"/>
<path d="M0 0 C0.66 0.66 1.32 1.32 2 2 C1.625 4.125 1.625 4.125 1 6 C-0.32 6 -1.64 6 -3 6 C-3 6.99 -3 7.98 -3 9 C-1.88625 9.12375 -0.7725 9.2475 0.375 9.375 C4 10 4 10 6 12 C7.31747324 12.69748583 8.64914193 13.36959957 10 14 C6.80679105 14.27370362 5.35065783 14.23069594 2.625 12.4375 C-1.81743705 10.00473686 -6.3222378 11.69022658 -11 13 C-11.33 12.01 -11.66 11.02 -12 10 C-11.21625 9.9175 -10.4325 9.835 -9.625 9.75 C-8.75875 9.5025 -7.8925 9.255 -7 9 C-6.67 8.34 -6.34 7.68 -6 7 C-5.67 6.34 -5.34 5.68 -5 5 C-2.375 4.25 -2.375 4.25 0 4 C0 2.68 0 1.36 0 0 Z " fill="#929292" transform="translate(45,66)"/>
<path d="M0 0 C1.32 0.33 2.64 0.66 4 1 C5.19287411 4.87684087 6 7.91621923 6 12 C4.02 12 2.04 12 0 12 C-0.33 13.32 -0.66 14.64 -1 16 C-1 14.68 -1 13.36 -1 12 C-5.07964281 13.30155006 -5.07964281 13.30155006 -9 15 C-9 13.68 -9 12.36 -9 11 C-6.29120665 9.64560332 -3.99066732 9.93498549 -1 10 C-0.67 9.34 -0.34 8.68 0 8 C1.32 8.66 2.64 9.32 4 10 C3.71125 9.44570313 3.4225 8.89140625 3.125 8.3203125 C2.568125 7.23363281 2.568125 7.23363281 2 6.125 C1.62875 5.40570312 1.2575 4.68640625 0.875 3.9453125 C0 2 0 2 0 0 Z " fill="#B7B7B7" transform="translate(73,20)"/>
<path d="M0 0 C0.66 0.99 1.32 1.98 2 3 C2.9075 2.773125 3.815 2.54625 4.75 2.3125 C8 2 8 2 10.375 3.4375 C10.91125 3.953125 11.4475 4.46875 12 5 C11.34 6.32 10.68 7.64 10 9 C8.0625 8.625 8.0625 8.625 6 8 C5.67 7.34 5.34 6.68 5 6 C2.13275314 6.57344937 1.1385485 6.8614515 -1 9 C-1.66 8.34 -2.32 7.68 -3 7 C-2.61121812 3.98694043 -1.73543126 2.60314689 0 0 Z " fill="#DCDCDC" transform="translate(60,66)"/>
<path d="M0 0 C0.515625 0.515625 1.03125 1.03125 1.5625 1.5625 C4.9710271 3.57265701 7.23106857 2.79727396 11 2 C10 3 9 4 8 5 C7.2575 5.886875 6.515 6.77375 5.75 7.6875 C3 10 3 10 -0.8125 10.3125 C-1.864375 10.209375 -2.91625 10.10625 -4 10 C-4.33 9.01 -4.66 8.02 -5 7 C-3.35 6.67 -1.7 6.34 0 6 C0 4.02 0 2.04 0 0 Z " fill="#979797" transform="translate(60,90)"/>
<path d="M0 0 C0.99 0.66 1.98 1.32 3 2 C2.58286812 6.8665386 0.54534674 8.79230533 -3 12 C-3.8353125 12.8971875 -3.8353125 12.8971875 -4.6875 13.8125 C-6 15 -6 15 -8 15 C-7.29445932 11.33118845 -5.72264494 8.29549466 -4 5 C-3.34 5 -2.68 5 -2 5 C-1.34 3.35 -0.68 1.7 0 0 Z " fill="#FCFCFC" transform="translate(66,43)"/>
<path d="M0 0 C0.99 0 1.98 0 3 0 C3 0.66 3 1.32 3 2 C3.66 2 4.32 2 5 2 C5 2.66 5 3.32 5 4 C8.3 3.34 11.6 2.68 15 2 C15 2.99 15 3.98 15 5 C14 6 14 6 10.83984375 6.09765625 C8.90818359 6.08025391 8.90818359 6.08025391 6.9375 6.0625 C5.64714844 6.05347656 4.35679688 6.04445313 3.02734375 6.03515625 C2.02832031 6.02355469 1.02929688 6.01195313 0 6 C-0.38218767 4.34385343 -0.71395102 2.67542976 -1 1 C-0.67 0.67 -0.34 0.34 0 0 Z " fill="#F8F8F8" transform="translate(29,77)"/>
<path d="M0 0 C1.99620166 0.67795528 3.99538701 1.34733531 6 2 C5.01 2.495 5.01 2.495 4 3 C4 3.66 4 4.32 4 5 C5.32 5.33 6.64 5.66 8 6 C3.74527368 6.12156361 -0.14497757 5.92751122 -4 4 C-3.34 2.68 -2.68 1.36 -2 0 C-3.98 0 -5.96 0 -8 0 C-8 0.66 -8 1.32 -8 2 C-10.31 2.33 -12.62 2.66 -15 3 C-15 2.34 -15 1.68 -15 1 C-9.71897928 -2.04674272 -5.52032531 -2.62215452 0 0 Z " fill="#B8B8B8" transform="translate(49,78)"/>
<path d="M0 0 C0.66 0 1.32 0 2 0 C2.33 0.99 2.66 1.98 3 3 C2.01 3.33 1.02 3.66 0 4 C-0.0825 4.763125 -0.165 5.52625 -0.25 6.3125 C-1.14615794 9.52373261 -2.21611025 10.29374499 -5 12 C-3.5 9 -3.5 9 -2 6 C-2.60328125 6.44472656 -3.2065625 6.88945313 -3.828125 7.34765625 C-5.02695312 8.19650391 -5.02695312 8.19650391 -6.25 9.0625 C-7.03890625 9.63097656 -7.8278125 10.19945313 -8.640625 10.78515625 C-11 12 -11 12 -13.296875 11.68359375 C-13.85890625 11.45800781 -14.4209375 11.23242188 -15 11 C-14.360625 10.71125 -13.72125 10.4225 -13.0625 10.125 C-10.84793921 9.17176549 -10.84793921 9.17176549 -10 7 C-7.03635059 5.38932097 -4.2012713 4.06709043 -1 3 C-0.67 2.01 -0.34 1.02 0 0 Z " fill="#B8B8B8" transform="translate(65,54)"/>
<path d="M0 0 C3.59541981 2.63664119 4.37465042 4.95770683 5.125 9.1875 C5.25132813 10.06792969 5.37765625 10.94835937 5.5078125 11.85546875 C5.67023438 12.56316406 5.83265625 13.27085938 6 14 C6.66 14.33 7.32 14.66 8 15 C8 16.65 8 18.3 8 20 C7.67 18.68 7.34 17.36 7 16 C6.01 16.66 5.02 17.32 4 18 C2.68 18 1.36 18 0 18 C0.875 14.125 0.875 14.125 2 13 C2.30523962 8.34911285 2.30523962 8.34911285 1 4 C0.01 3.34 -0.98 2.68 -2 2 C-1.34 1.34 -0.68 0.68 0 0 Z " fill="#DCDCDC" transform="translate(67,97)"/>
<path d="M0 0 C2.63187862 2.26099058 3.40125339 3.78323782 3.9375 7.1875 C5.0193835 12.75147228 6.94241271 17.94241271 11 22 C10.67 22.99 10.34 23.98 10 25 C10 24.34 10 23.68 10 23 C9.37351562 22.91492188 8.74703125 22.82984375 8.1015625 22.7421875 C6 22 6 22 5.0234375 20.2578125 C4.70246094 19.20207031 4.70246094 19.20207031 4.375 18.125 C3.47626976 15.25963653 2.71596614 13.57394921 1 11 C0.5859375 8.30078125 0.5859375 8.30078125 0.375 5.3125 C0.30023437 4.31863281 0.22546875 3.32476562 0.1484375 2.30078125 C0.09945313 1.54152344 0.05046875 0.78226562 0 0 Z " fill="#C8C8C8" transform="translate(21,89)"/>
<path d="M0 0 C-1.53201526 3.44703434 -3.65269416 6.06586771 -6 9 C-6.70885894 10.31138904 -7.39456452 11.63777017 -8 13 C-8.226875 12.236875 -8.45375 11.47375 -8.6875 10.6875 C-10.26731682 7.45263699 -11.83282717 6.58358642 -15 5 C-14.67 4.34 -14.34 3.68 -14 3 C-13.34 3.66 -12.68 4.32 -12 5 C-7.24796538 4.66056896 -4.54570461 0 0 0 Z " fill="#929292" transform="translate(63,60)"/>
<path d="M0 0 C3.08014769 0.7538823 6.13787811 1.56811001 9.1875 2.4375 C10.06792969 2.68371094 10.94835938 2.92992187 11.85546875 3.18359375 C14 4 14 4 15 6 C11.37 5.67 7.74 5.34 4 5 C4.33 7.64 4.66 10.28 5 13 C4.34 13 3.68 13 3 13 C0.96834048 8.66579301 0.47939368 4.71403788 0 0 Z " fill="#D0D0D0" transform="translate(21,0)"/>
<path d="M0 0 C2.875 -0.125 2.875 -0.125 6 0 C6.66 0.66 7.32 1.32 8 2 C14.37972376 3.38644324 19.35969802 3.6155782 25 0 C25.66 0 26.32 0 27 0 C27 0.66 27 1.32 27 2 C22.19779791 4.89334554 18.40871954 5.37172377 12.9375 4.9375 C12.24333984 4.90978516 11.54917969 4.88207031 10.83398438 4.85351562 C6.03114494 4.52967745 3.44001856 3.33272754 0 0 Z " fill="#DADADA" transform="translate(44,119)"/>
<path d="M0 0 C0.33 0.99 0.66 1.98 1 3 C0.34 3 -0.32 3 -1 3 C-1.66 5.31 -2.32 7.62 -3 10 C-3.66 10 -4.32 10 -5 10 C-6.4512573 14.97573932 -7.76368629 19.96643704 -9 25 C-9.33 25 -9.66 25 -10 25 C-10.33 22.36 -10.66 19.72 -11 17 C-10.01 16.34 -9.02 15.68 -8 15 C-6.7811879 11.44327821 -6.7811879 11.44327821 -6 8 C-5.34 8 -4.68 8 -4 8 C-3.566875 6.576875 -3.566875 6.576875 -3.125 5.125 C-2 2 -2 2 0 0 Z " fill="#C8C8C8" transform="translate(91,58)"/>
<path d="M0 0 C3.32104626 0.55350771 6.16244492 1.14091219 9 3 C9.66 4.32 10.32 5.64 11 7 C5.06 6.01 5.06 6.01 -1 5 C-1 2 -1 2 0 0 Z " fill="#D8D8D8" transform="translate(29,57)"/>
<path d="M0 0 C1 3 1 3 0.25 5.5625 C-1 8 -1 8 -4 10 C-3.34 8.35 -2.68 6.7 -2 5 C-3.98264795 5.65589738 -3.98264795 5.65589738 -6 7 C-6.68753301 8.65816784 -7.35561283 10.32459336 -8 12 C-8.99 12.33 -9.98 12.66 -11 13 C-11.66 13.66 -12.32 14.32 -13 15 C-12.67 13.68 -12.34 12.36 -12 11 C-11.01 11 -10.02 11 -9 11 C-9.0928125 10.24332031 -9.185625 9.48664062 -9.28125 8.70703125 C-9 6 -9 6 -7.03125 4.19921875 C-6.1959375 3.70035156 -5.360625 3.20148437 -4.5 2.6875 C-3.6646875 2.17574219 -2.829375 1.66398437 -1.96875 1.13671875 C-1.3190625 0.76160156 -0.669375 0.38648438 0 0 Z " fill="#BCBCBC" transform="translate(96,48)"/>
<path d="M0 0 C1.485 0.99 1.485 0.99 3 2 C3.38818359 3.96777344 3.38818359 3.96777344 3.3984375 6.359375 C3.40230469 7.22820312 3.40617187 8.09703125 3.41015625 8.9921875 C3.39855469 9.90226562 3.38695313 10.81234375 3.375 11.75 C3.38660156 12.64460938 3.39820312 13.53921875 3.41015625 14.4609375 C3.38679399 19.7408072 2.87859014 23.40034803 0 28 C-0.33 28 -0.66 28 -1 28 C-1.25116083 21.46981849 -1.25116083 21.46981849 -0.00390625 19.13671875 C1.31065593 16.33879847 1.2302092 14.14144512 1.1875 11.0625 C1.18105469 10.04285156 1.17460938 9.02320312 1.16796875 7.97265625 C1.01221966 5.21625952 0.61837386 2.68621605 0 0 Z " fill="#CFCFCF" transform="translate(82,90)"/>
<path d="M0 0 C5.75 -0.125 5.75 -0.125 8 1 C8 1.66 8 2.32 8 3 C9.32 3.66 10.64 4.32 12 5 C8.66666667 4.33333333 5.33333333 3.66666667 2 3 C2.5259375 3.86625 2.5259375 3.86625 3.0625 4.75 C4.14917407 7.35801776 3.93065133 8.39417629 3 11 C-1.06153846 5.70769231 -1.06153846 5.70769231 -0.75 2.125 C-0.5025 1.42375 -0.255 0.7225 0 0 Z " fill="#7B7B7B" transform="translate(25,4)"/>
<path d="M0 0 C0.33 0 0.66 0 1 0 C1.226875 1.03125 1.45375 2.0625 1.6875 3.125 C2.50958095 6.11713287 3.59079951 7.9102503 5.6875 10.1875 C8 13 8 13 7.8125 15.375 C7.4103125 16.179375 7.4103125 16.179375 7 17 C4 16 4 16 2.83203125 13.92578125 C0.96850662 9.14916064 -0.5500569 5.22554056 0 0 Z " fill="#E3E3E3" transform="translate(31,31)"/>
<path d="M0 0 C2.125 0.375 2.125 0.375 4 1 C3.25 5.75 3.25 5.75 1 8 C-1.125 7.625 -1.125 7.625 -3 7 C-2.25 2.25 -2.25 2.25 0 0 Z " fill="#585858" transform="translate(67,32)"/>
<path d="M0 0 C1.32 0.66 2.64 1.32 4 2 C4 3.32 4 4.64 4 6 C3.05125 6.103125 2.1025 6.20625 1.125 6.3125 C-2.29107501 6.68539295 -2.29107501 6.68539295 -4 10 C-4.66 10 -5.32 10 -6 10 C-5.625 8.0625 -5.625 8.0625 -5 6 C-4.34 5.67 -3.68 5.34 -3 5 C-1.9590934 3.35857037 -0.95495674 1.69287785 0 0 Z " fill="#606061" transform="translate(110,13)"/>
<path d="M0 0 C1.98 0 3.96 0 6 0 C5.49396008 2.16874252 5.00016187 3.99967627 4 6 C1.18780295 6.19384179 -1.62454196 6.38036603 -4.4375 6.5625 C-5.64116211 6.64661133 -5.64116211 6.64661133 -6.86914062 6.73242188 C-8.91062111 6.8616295 -10.95546369 6.9351273 -13 7 C-14 6 -14 6 -14.0625 3.4375 C-14.041875 2.633125 -14.02125 1.82875 -14 1 C-13.01 2.485 -13.01 2.485 -12 4 C-8.64496524 4.36558117 -8.64496524 4.36558117 -4.875 4.1875 C-3.59367187 4.16042969 -2.31234375 4.13335937 -0.9921875 4.10546875 C-0.00476562 4.07066406 0.98265625 4.03585938 2 4 C2.33 3.34 2.66 2.68 3 2 C2.01 1.34 1.02 0.68 0 0 Z " fill="#DCDCDC" transform="translate(41,78)"/>
<path d="M0 0 C1.32 0 2.64 0 4 0 C7.0429342 3.68571132 7.34171541 6.63463267 7.1875 11.3125 C7.16042969 12.38113281 7.13335937 13.44976562 7.10546875 14.55078125 C7.07066406 15.35902344 7.03585938 16.16726562 7 17 C6.67 17 6.34 17 6 17 C6 13.7 6 10.4 6 7 C5.34 7 4.68 7 4 7 C3.67 7.66 3.34 8.32 3 9 C3 7.35 3 5.7 3 4 C1.68 3.67 0.36 3.34 -1 3 C-0.67 2.01 -0.34 1.02 0 0 Z " fill="#929292" transform="translate(73,73)"/>
<path d="M0 0 C0.99 0.33 1.98 0.66 3 1 C2.49436343 4.74171065 1.88706033 6.5571028 -1 9 C-1.556875 9.556875 -2.11375 10.11375 -2.6875 10.6875 C-3.120625 11.120625 -3.55375 11.55375 -4 12 C-4.99 11.67 -5.98 11.34 -7 11 C-6.1875 9.0625 -6.1875 9.0625 -5 7 C-4.01 6.67 -3.02 6.34 -2 6 C-0.77479736 2.99152582 -0.77479736 2.99152582 0 0 Z " fill="#646465" transform="translate(77,113)"/>
<path d="M0 0 C0.99 0.33 1.98 0.66 3 1 C2.6390625 1.65226562 2.278125 2.30453125 1.90625 2.9765625 C-1.68548764 9.59052755 -1.68548764 9.59052755 -2 17 C-1.34 17 -0.68 17 0 17 C-0.33 17.99 -0.66 18.98 -1 20 C-1.99 20 -2.98 20 -4 20 C-4.4731614 12.11397658 -4.17981006 6.79219135 0 0 Z " fill="#858586" transform="translate(88,26)"/>
<path d="M0 0 C1.21236328 0.02707031 1.21236328 0.02707031 2.44921875 0.0546875 C3.37154297 0.08949219 3.37154297 0.08949219 4.3125 0.125 C4.3125 0.455 4.3125 0.785 4.3125 1.125 C-10.12070593 6.18716826 -10.12070593 6.18716826 -16.9453125 3.10546875 C-17.52023438 2.78191406 -18.09515625 2.45835938 -18.6875 2.125 C-15.79371143 1.08323611 -14.25225208 1.19372336 -11.125 1.6875 C-6.75468267 2.24372221 -4.50627427 -0.13061665 0 0 Z " fill="#DCDCDC" transform="translate(56.6875,100.875)"/>
<path d="M0 0 C0.99 0.33 1.98 0.66 3 1 C2.54625 1.515625 2.0925 2.03125 1.625 2.5625 C-0.38200383 5.57300574 -1.12731809 8.50927237 -2 12 C-2.99 11.67 -3.98 11.34 -5 11 C-5.1875 8.625 -5.1875 8.625 -5 6 C-4.01 5.34 -3.02 4.68 -2 4 C-0.80767387 1.94996045 -0.80767387 1.94996045 0 0 Z " fill="#B8B8B8" transform="translate(57,49)"/>
<path d="M0 0 C1.32 0.33 2.64 0.66 4 1 C3.67 1.99 3.34 2.98 3 4 C2.01 4.495 2.01 4.495 1 5 C0.27840576 6.64363134 -0.39351421 8.31050386 -1 10 C-1.99 10 -2.98 10 -4 10 C-3.67 8.02 -3.34 6.04 -3 4 C-2.34 4 -1.68 4 -1 4 C-0.67 2.68 -0.34 1.36 0 0 Z " fill="#868687" transform="translate(104,37)"/>
<path d="M0 0 C1.8125 0.125 1.8125 0.125 4 1 C5.75 4.0625 5.75 4.0625 7 7 C5.1875 7.6875 5.1875 7.6875 3 8 C1.25 6.875 1.25 6.875 0 5 C-0.1875 2.3125 -0.1875 2.3125 0 0 Z " fill="#1C1C1C" transform="translate(61,7)"/>
<path d="M0 0 C0.63615234 0.56267578 0.63615234 0.56267578 1.28515625 1.13671875 C4.38183752 3.83865824 7.47301708 6.37725073 10.875 8.6875 C14 11 14 11 15 14 C14.34 14 13.68 14 13 14 C12.67 13.34 12.34 12.68 12 12 C11.13375 11.8453125 11.13375 11.8453125 10.25 11.6875 C6.94528906 10.67772721 5.32043615 8.49893124 3 6 C2.401875 5.46375 1.80375 4.9275 1.1875 4.375 C0 3 0 3 0 0 Z " fill="#C7C7C7" transform="translate(32,114)"/>
<path d="M0 0 C0.66 0 1.32 0 2 0 C2 3.63 2 7.26 2 11 C-0.64 11.33 -3.28 11.66 -6 12 C-5.67 11.34 -5.34 10.68 -5 10 C-2.9375 9.375 -2.9375 9.375 -1 9 C-0.67 7.68 -0.34 6.36 0 5 C-0.66 4.67 -1.32 4.34 -2 4 C-1.34 2.68 -0.68 1.36 0 0 Z " fill="#6C6C6C" transform="translate(77,80)"/>
<path d="M0 0 C1.32 0.66 2.64 1.32 4 2 C4 3.98 4 5.96 4 8 C1.5625 7.1875 1.5625 7.1875 -1 6 C-1.33 5.01 -1.66 4.02 -2 3 C-1.34 2.01 -0.68 1.02 0 0 Z " fill="#1C1C1C" transform="translate(50,69)"/>
<path d="M0 0 C4.62 0.99 9.24 1.98 14 3 C14 3.33 14 3.66 14 4 C9.05 4 4.1 4 -1 4 C-0.67 2.68 -0.34 1.36 0 0 Z " fill="#646465" transform="translate(49,124)"/>
<path d="M0 0 C1.81495662 0.44850658 3.62693134 0.90909571 5.4375 1.375 C6.95150391 1.75785156 6.95150391 1.75785156 8.49609375 2.1484375 C11 3 11 3 12 5 C9.03 4.67 6.06 4.34 3 4 C2.01 5.485 2.01 5.485 1 7 C-0.32 5.35 -1.64 3.7 -3 2 C-2.01 2 -1.02 2 0 2 C0 1.34 0 0.68 0 0 Z " fill="#929292" transform="translate(46,121)"/>
<path d="M0 0 C1.75 2.3125 1.75 2.3125 3 5 C2.67 5.99 2.34 6.98 2 8 C1.21625 7.525625 0.4325 7.05125 -0.375 6.5625 C-1.88948678 5.66101977 -3.4235897 4.78820515 -5 4 C-5 3.01 -5 2.02 -5 1 C-3 0 -3 0 0 0 Z " fill="#D6D6D6" transform="translate(76,91)"/>
<path d="M0 0 C1.15419155 3.46257466 0.8977049 3.97497688 -0.625 7.125 C-2.58338663 10.86435844 -2.58338663 10.86435844 -5.6875 11.875 C-6.450625 11.91625 -7.21375 11.9575 -8 12 C-8.33 12.66 -8.66 13.32 -9 14 C-8.52570343 9.73133091 -5.96478822 7.89066852 -3 5 C-2.67 4.01 -2.34 3.02 -2 2 C-1.34 2 -0.68 2 0 2 C0 1.34 0 0.68 0 0 Z " fill="#AAAAAA" transform="translate(98,31)"/>
<path d="M0 0 C0.99 0 1.98 0 3 0 C2.62609468 2.57334835 2.3032769 3.73073547 0.328125 5.484375 C-6.57875345 9.69081977 -6.57875345 9.69081977 -11 9 C-8.9950482 7.66336546 -6.97384606 6.35080057 -4.9375 5.0625 C-1.84002251 3.15243138 -1.84002251 3.15243138 0 0 Z " fill="#B3B3B3" transform="translate(105,15)"/>
<path d="M0 0 C1.98 0 3.96 0 6 0 C6 1.65 6 3.3 6 5 C2.52674819 6.1577506 -0.36067448 6.06866652 -4 6 C-4 5.67 -4 5.34 -4 5 C-2.35 4.67 -0.7 4.34 1 4 C0.67 2.68 0.34 1.36 0 0 Z " fill="#DCDCDC" transform="translate(122,23)"/>
<path d="M0 0 C2.91227269 3.28804981 4.49701212 5.59885603 5 10 C3.125 9.875 3.125 9.875 1 9 C-0.64661571 5.3931275 -1.27162597 3.8148779 0 0 Z " fill="#909090" transform="translate(72,20)"/>
<path d="M0 0 C5.62917348 0.40208382 8.00386479 2.28930302 12 6 C11.67 7.32 11.34 8.64 11 10 C10.38125 9.3503125 10.38125 9.3503125 9.75 8.6875 C8.00719127 6.92450726 8.00719127 6.92450726 5.8125 5.4375 C4.9153125 4.7259375 4.9153125 4.7259375 4 4 C4 3.34 4 2.68 4 2 C2.68 1.34 1.36 0.68 0 0 Z " fill="#8D8D8E" transform="translate(33,6)"/>
<path d="M0 0 C1.875 0.6875 1.875 0.6875 4 2 C4.68753301 3.65816784 5.35561283 5.32459336 6 7 C6.99 7.33 7.98 7.66 9 8 C10.1875 10.0625 10.1875 10.0625 11 12 C6.12995438 9.91283759 2.90935114 6.3640267 0 2 C0 1.34 0 0.68 0 0 Z " fill="#C8C8C8" transform="translate(33,107)"/>
<path d="M0 0 C0.66 1.32 1.32 2.64 2 4 C1.401875 4.061875 0.80375 4.12375 0.1875 4.1875 C-2.87143458 5.3236757 -3.55041099 7.17330142 -5 10 C-6 8 -6 8 -5.3125 5 C-4 2 -4 2 -1.875 0.625 C-0.946875 0.315625 -0.946875 0.315625 0 0 Z " fill="#D3D3D3" transform="translate(104,26)"/>
<path d="M0 0 C1.5 1.25 1.5 1.25 3 3 C3 4.32 3 5.64 3 7 C1.35 6.67 -0.3 6.34 -2 6 C-1.125 1.125 -1.125 1.125 0 0 Z " fill="#B8B8B8" transform="translate(21,72)"/>
<path d="M0 0 C-3 2 -3 2 -6 2 C-6.103125 2.70125 -6.20625 3.4025 -6.3125 4.125 C-7.09359003 7.39137647 -8.42058743 10.0471852 -10 13 C-10.33 13 -10.66 13 -11 13 C-11.44104781 7.85444219 -9.65629651 5.18329994 -6.625 1.1875 C-4.38401604 -0.45014212 -2.70391348 -0.21923623 0 0 Z " fill="#CDCDCD" transform="translate(94,24)"/>
<path d="M0 0 C2.875 -0.1875 2.875 -0.1875 6 0 C6.66 0.99 7.32 1.98 8 3 C6.02 3 4.04 3 2 3 C1.67 4.65 1.34 6.3 1 8 C0.34 7.67 -0.32 7.34 -1 7 C-0.67 4.69 -0.34 2.38 0 0 Z " fill="#DCDCDC" transform="translate(57,1)"/>
<path d="M0 0 C0.66 0.33 1.32 0.66 2 1 C-1.83587215 3.70767446 -4.31529665 4.48798993 -9 4 C-11.875 3 -11.875 3 -14 2 C-14 1.67 -14 1.34 -14 1 C-8.43037975 0.87341772 -8.43037975 0.87341772 -5.875 1.625 C-3.35193011 2.12961398 -2.21483765 1.18124675 0 0 Z " fill="#CCCCCC" transform="translate(71,83)"/>
<path d="M0 0 C-0.33 0.99 -0.66 1.98 -1 3 C-2.98 3.33 -4.96 3.66 -7 4 C-7.33 3.01 -7.66 2.02 -8 1 C-5.29120665 -0.35439668 -2.99066732 -0.06501451 0 0 Z " fill="#7B7B7C" transform="translate(63,96)"/>
<path d="M0 0 C-1.98 0 -3.96 0 -6 0 C-6 0.66 -6 1.32 -6 2 C-8.31 2.33 -10.62 2.66 -13 3 C-13 2.34 -13 1.68 -13 1 C-8.42239122 -1.64092814 -4.57118153 -3.04745436 0 0 Z " fill="#C3C3C3" transform="translate(47,78)"/>
<path d="M0 0 C0.33 0 0.66 0 1 0 C1.20086443 3.71599191 1.1519437 4.77208445 -1 8 C0.32 7.34 1.64 6.68 3 6 C2.34 7.65 1.68 9.3 1 11 C0.01 11 -0.98 11 -2 11 C-2.19622241 6.78121808 -1.80230168 3.82989106 0 0 Z " fill="#B8B8B8" transform="translate(62,35)"/>
<path d="M0 0 C0 0.66 0 1.32 0 2 C-1 3 -2 4 -3 5 C-3.309375 5.680625 -3.61875 6.36125 -3.9375 7.0625 C-5.24994775 9.45578707 -6.51014367 10.00405747 -9 11 C-8.67 10.01 -8.34 9.02 -8 8 C-7.34 8 -6.68 8 -6 8 C-5.71125 6.865625 -5.4225 5.73125 -5.125 4.5625 C-4.75375 3.386875 -4.3825 2.21125 -4 1 C-2 0 -2 0 0 0 Z " fill="#D1D1D1" transform="translate(109,40)"/>
<path d="M0 0 C1.485 0.99 1.485 0.99 3 2 C3.29296875 5.2578125 3.29296875 5.2578125 3.1875 9.125 C3.16042969 10.40632813 3.13335937 11.68765625 3.10546875 13.0078125 C3.07066406 13.99523438 3.03585938 14.98265625 3 16 C2.67 16 2.34 16 2 16 C1.34 10.72 0.68 5.44 0 0 Z " fill="#A9A9A9" transform="translate(29,15)"/>
<path d="M0 0 C0.66 0.33 1.32 0.66 2 1 C2.59355614 3.64860427 2.74209269 6.29197322 3 9 C1.35 7.68 -0.3 6.36 -2 5 C-1.125 1.125 -1.125 1.125 0 0 Z " fill="#646465" transform="translate(22,81)"/>
<path d="M0 0 C0.66 0.33 1.32 0.66 2 1 C1.01 3.64 0.02 6.28 -1 9 C-2.32 9 -3.64 9 -5 9 C-5 8.34 -5 7.68 -5 7 C-4.34 6.67 -3.68 6.34 -3 6 C-1.95191959 4.02477154 -0.9479589 2.02518491 0 0 Z " fill="#B7B7B7" transform="translate(77,119)"/>
<path d="M0 0 C2.3125 -0.25 2.3125 -0.25 5 0 C6.8125 1.8125 6.8125 1.8125 8 4 C8 4.99 8 5.98 8 7 C5 6 5 6 4 4.0625 C3.67 3.381875 3.34 2.70125 3 2 C2.01 1.34 1.02 0.68 0 0 Z " fill="#959595" transform="translate(60,4)"/>
<path d="M0 0 C1.98 0.495 1.98 0.495 4 1 C4 3.64 4 6.28 4 9 C2.35 9.66 0.7 10.32 -1 11 C-1 10.34 -1 9.68 -1 9 C-0.01 8.34 0.98 7.68 2 7 C2.72965366 4.43717258 2.72965366 4.43717258 3 2 C2.01 1.67 1.02 1.34 0 1 C0 0.67 0 0.34 0 0 Z " fill="#AEAEAE" transform="translate(72,110)"/>
<path d="M0 0 C0.103125 0.639375 0.20625 1.27875 0.3125 1.9375 C0.539375 2.618125 0.76625 3.29875 1 4 C1.99 4.33 2.98 4.66 4 5 C3.01 5.33 2.02 5.66 1 6 C-0.20882096 8.00016466 -0.20882096 8.00016466 -1 10 C-1.66 10 -2.32 10 -3 10 C-3 8.68 -3 7.36 -3 6 C-2.34 5.67 -1.68 5.34 -1 5 C-0.34444881 2.47266765 -0.34444881 2.47266765 0 0 Z " fill="#DCDCDC" transform="translate(83,54)"/>
<path d="M0 0 C0.99 0.33 1.98 0.66 3 1 C3.33 2.65 3.66 4.3 4 6 C3.01 6 2.02 6 1 6 C0.34 4.35 -0.32 2.7 -1 1 C-0.67 0.67 -0.34 0.34 0 0 Z " fill="#929292" transform="translate(72,48)"/>
<path d="M0 0 C0.66 0 1.32 0 2 0 C2 1.98 2 3.96 2 6 C1.01 6.495 1.01 6.495 0 7 C-0.66 7.99 -1.32 8.98 -2 10 C-2.33 8.02 -2.66 6.04 -3 4 C-1.68 4 -0.36 4 1 4 C0.67 2.68 0.34 1.36 0 0 Z " fill="#D3D3D3" transform="translate(113,21)"/>
<path d="M0 0 C2.125 0.9375 2.125 0.9375 4 2 C4 2.99 4 3.98 4 5 C3.21625 4.814375 2.4325 4.62875 1.625 4.4375 C-0.97089775 3.74037734 -0.97089775 3.74037734 -3 5 C-2.625 3.0625 -2.625 3.0625 -2 1 C-1.34 0.67 -0.68 0.34 0 0 Z " fill="#A5A5A5" transform="translate(111,10)"/>
<path d="M0 0 C1.98 0.495 1.98 0.495 4 1 C3.67 2.32 3.34 3.64 3 5 C1.68 4.67 0.36 4.34 -1 4 C-0.67 2.68 -0.34 1.36 0 0 Z " fill="#CFCFCF" transform="translate(29,87)"/>
<path d="M0 0 C0.625 1.8125 0.625 1.8125 1 4 C0.01 5.485 0.01 5.485 -1 7 C-1.39013716 8.9896995 -1.73202649 10.99019869 -2 13 C-2.33 13 -2.66 13 -3 13 C-3.33 10.36 -3.66 7.72 -4 5 C-3.01 4.34 -2.02 3.68 -1 3 C-0.67 2.01 -0.34 1.02 0 0 Z " fill="#DCDCDC" transform="translate(84,70)"/>
<path d="M0 0 C0.33 0 0.66 0 1 0 C1 2.97 1 5.94 1 9 C0.67 9 0.34 9 0 9 C0 6.03 0 3.06 0 0 Z M-2 10 C-1.34 10.33 -0.68 10.66 0 11 C0 11.99 0 12.98 0 14 C-0.99 14 -1.98 14 -3 14 C-2.67 12.68 -2.34 11.36 -2 10 Z " fill="#868686" transform="translate(83,37)"/>
<path d="M0 0 C1.485 0.99 1.485 0.99 3 2 C3.29296875 4.8203125 3.29296875 4.8203125 3.1875 8.125 C3.16042969 9.22070312 3.13335937 10.31640625 3.10546875 11.4453125 C3.07066406 12.28835937 3.03585938 13.13140625 3 14 C2.67 14 2.34 14 2 14 C1.93941406 13.40832031 1.87882812 12.81664063 1.81640625 12.20703125 C1.37987629 8.09021792 0.91328654 4.04455467 0 0 Z " fill="#C5C5C5" transform="translate(82,90)"/>
<path d="M0 0 C1.65 0 3.3 0 5 0 C5.33 1.32 5.66 2.64 6 4 C4.35 3.67 2.7 3.34 1 3 C0.67 2.01 0.34 1.02 0 0 Z " fill="#646465" transform="translate(11,69)"/>
<path d="M0 0 C3.34373475 0.55728913 6.03312999 1.35173889 9 3 C9 3.33 9 3.66 9 4 C5.37471432 4.20140476 3.13498292 3.85776765 0 2 C0 1.34 0 0.68 0 0 Z " fill="#B8B8B8" transform="translate(29,57)"/>
<path d="M0 0 C0 3 0 3 -1.53125 4.60546875 C-2.1809375 5.12753906 -2.830625 5.64960937 -3.5 6.1875 C-4.1496875 6.71730469 -4.799375 7.24710938 -5.46875 7.79296875 C-5.9740625 8.19128906 -6.479375 8.58960938 -7 9 C-5.27845212 5.23511958 -3.00765886 2.84936103 0 0 Z " fill="#E6E6E6" transform="translate(99,51)"/>
<path d="M0 0 C1.35439668 2.70879335 1.06501451 5.00933268 1 8 C1.66 8 2.32 8 3 8 C2.67 8.99 2.34 9.98 2 11 C1.01 11 0.02 11 -1 11 C-1.02688151 9.35425434 -1.04634123 7.70838587 -1.0625 6.0625 C-1.07410156 5.14597656 -1.08570312 4.22945312 -1.09765625 3.28515625 C-1 1 -1 1 0 0 Z " fill="#646465" transform="translate(85,35)"/>
<path d="M0 0 C1.98 0 3.96 0 6 0 C6.66 1.32 7.32 2.64 8 4 C4.64404172 3.40072174 2.62198774 2.15377564 0 0 Z " fill="#CACACA" transform="translate(44,119)"/>
<path d="M0 0 C1.98 0 3.96 0 6 0 C5.49396008 2.16874252 5.00016187 3.99967627 4 6 C3.01 5.67 2.02 5.34 1 5 C1.66 4.01 2.32 3.02 3 2 C2.01 1.34 1.02 0.68 0 0 Z " fill="#D6D6D6" transform="translate(41,78)"/>
<path d="M0 0 C0.66 0.33 1.32 0.66 2 1 C-0.38957269 4.24299151 -2.2047869 6.50902342 -6 8 C-4.55746343 4.63408134 -2.66735273 2.48952921 0 0 Z " fill="#CCCCCC" transform="translate(115,31)"/>
</svg>
