<?xml version="1.0" encoding="iso-8859-1"?>
<svg height="128" version="1.1" width="128" xmlns="http://www.w3.org/2000/svg">
	

	<path d="M0 0 C42.24 0 84.48 0 128 0 C128 42.24 128 84.48 128 128 C85.76 128 43.52 128 0 128 C0 85.76 0 43.52 0 0 Z " fill="#FEFDFD" transform="translate(0,0)"/>
	

	<path d="M0 0 C1.34936087 0.00267473 2.69871685 0.01117512 4.04801941 0.02400208 C5.15050774 0.02877563 5.15050774 0.02877563 6.27526855 0.03364563 C8.71807346 0.04628642 11.16070645 0.06715809 13.60343933 0.0896759 C14.85228692 0.10011146 14.85228692 0.10011146 16.12636375 0.11075783 C20.53359502 0.14820929 24.94070719 0.19225167 29.3478241 0.24128723 C33.90426755 0.2906185 38.46053643 0.31681588 43.01718616 0.33771801 C46.51664315 0.35808231 50.01575496 0.3959583 53.51500511 0.43857765 C55.19466851 0.45593213 56.87441448 0.46661592 58.55416298 0.47052574 C60.90560962 0.47760176 63.25548974 0.50950404 65.60661316 0.54743958 C66.30131714 0.54398026 66.99602112 0.54052094 67.71177673 0.53695679 C71.0137208 0.61575844 72.7628732 0.91289956 75.42301941 2.93276978 C77.6173305 5.92064172 78.12800865 8.93486406 78.68937683 12.51545715 C78.81452164 13.23600281 78.93966644 13.95654846 79.06860352 14.69892883 C79.33046563 16.22406911 79.58467292 17.75054096 79.83171082 19.27815247 C80.2036093 21.57646104 80.59748892 23.87007015 80.99601746 26.16389465 C82.28168335 33.70063434 83.34069458 41.16560442 83.80387878 48.80647278 C83.94907011 51.26820223 83.94907011 51.26820223 85.02140808 54.10920715 C85.60393235 61.33250812 85.60393235 61.33250812 82.95890808 64.85920715 C82.31953308 65.60170715 81.68015808 66.34420715 81.02140808 67.10920715 C80.79065706 69.19195886 80.79065706 69.19195886 82.02140808 71.10920715 C82.80515808 71.85170715 83.58890808 72.59420715 84.39640808 73.35920715 C87.54583553 76.65860733 89.04593338 79.6703498 90.02140808 84.10920715 C89.70890808 87.10920715 89.70890808 87.10920715 89.02140808 89.10920715 C86.70890808 88.98420715 86.70890808 88.98420715 84.02140808 88.10920715 C82.52140808 85.48420715 82.52140808 85.48420715 81.02140808 82.10920715 C80.14634206 80.90632184 79.24963241 79.71893689 78.33390808 78.54670715 C76.53185753 76.11879473 76.03959239 75.28013961 75.70890808 72.17170715 C75.81203308 71.49108215 75.91515808 70.81045715 76.02140808 70.10920715 C74.56734558 69.64514465 74.56734558 69.64514465 73.08390808 69.17170715 C70.02140808 68.10920715 70.02140808 68.10920715 69.02140808 67.10920715 C61.62437223 65.80079876 54.23766181 66.01641413 46.74797058 66.0818634 C45.37414395 66.08881902 44.00031334 66.09502697 42.6264801 66.1005249 C36.82494078 66.12484166 31.0235113 66.16079665 25.22209167 66.20515442 C21.65971449 66.23188336 18.09739739 66.24895546 14.53493881 66.26002312 C13.18010079 66.26623557 11.82527471 66.27624426 10.47049332 66.29010201 C8.58470303 66.30924641 6.69879216 66.31514577 4.81291199 66.32038879 C3.20363327 66.33157494 3.20363327 66.33157494 1.56184387 66.34298706 C-0.97859192 66.10920715 -0.97859192 66.10920715 -2.97859192 64.10920715 C-3.20906067 60.8865509 -3.20906067 60.8865509 -3.16609192 57.04670715 C-3.15964661 55.77698059 -3.15320129 54.50725403 -3.14656067 53.1990509 C-2.97859192 50.10920715 -2.97859192 50.10920715 -1.97859192 49.10920715 C0.94954248 48.96038397 3.85669966 48.87370649 6.78703308 48.82795715 C8.14184784 48.80034302 8.14184784 48.80034302 9.52403259 48.77217102 C12.43975578 48.7132473 15.3555455 48.66073437 18.27140808 48.60920715 C22.04752909 48.53996209 25.82355932 48.46732176 29.59953308 48.39045715 C30.53390198 48.37144348 31.46827087 48.35242981 32.43095398 48.33283997 C42.30353971 48.11236564 52.16084445 47.63205815 62.02140808 47.10920715 C64.6768838 39.14278001 63.17386754 30.04640139 61.02140808 22.10920715 C51.34397151 21.46434465 41.6976984 21.03840851 31.99797058 20.96858215 C30.11515614 20.94923859 28.23234364 20.92970625 26.34953308 20.9099884 C23.46812375 20.88073803 20.58754778 20.85919738 17.70597839 20.85871887 C14.86510889 20.85540121 12.02602937 20.82105223 9.18547058 20.78108215 C8.32201019 20.78815186 7.4585498 20.79522156 6.56892395 20.80250549 C0.64876895 20.6814055 0.64876895 20.6814055 -2.5247345 17.78694153 C-4.41762536 14.30058938 -4.41077373 11.80457987 -4.29109192 7.85920715 C-4.26659973 6.6165509 -4.24210754 5.37389465 -4.21687317 4.09358215 C-3.90145053 0.14304286 -3.90145053 0.14304286 0 0 Z " fill="#F1370C" transform="translate(24.978591918945313,18.890792846679688)"/>
	

	

	

	

	

	

	

	

	

	

	

	

	

	

	

	

	

	

	

</svg>
