<?xml version="1.0" encoding="iso-8859-1"?>
<svg height="128" version="1.1" width="128" xmlns="http://www.w3.org/2000/svg">
	

	<path d="M0 0 C42.24 0 84.48 0 128 0 C128 42.24 128 84.48 128 128 C85.76 128 43.52 128 0 128 C0 85.76 0 43.52 0 0 Z " fill="#FBFCFB" transform="translate(0,0)"/>
	

	<path d="M0 0 C2.97725412 0.05316525 3.96630998 0.16304728 6.5 1.875 C8.58687001 4.88936779 9.78225517 7.92713745 11.1875 11.3125 C13.52956448 12.48353224 14.83908969 12.38320504 17.4375 12.3125 C21.13668435 12.26469148 24.55015061 12.56637705 28.1875 13.3125 C27.671875 12.24 27.15625 11.1675 26.625 10.0625 C25.55509718 7.59772388 25.15177218 6.59117697 25.5 3.875 C25.726875 3.359375 25.95375 2.84375 26.1875 2.3125 C33.53909363 2.91508964 33.53909363 2.91508964 36.125 4.5 C37.6027657 7.02089444 37.86777346 9.4349611 38.1875 12.3125 C38.90035156 12.27769531 39.61320312 12.24289063 40.34765625 12.20703125 C46.49862456 12.03318154 50.74129715 12.40785848 56.1875 15.3125 C55.713125 14.631875 55.23875 13.95125 54.75 13.25 C52.93278536 9.83363647 52.40152804 7.16500475 52.1875 3.3125 C52.8475 2.3225 53.5075 1.3325 54.1875 0.3125 C57.93517752 -0.17331005 60.25711787 -0.22614228 63.5625 1.6875 C65.6680165 5.08871896 65.75760496 7.92745597 65.9140625 11.875 C66.03471918 14.33017862 66.03471918 14.33017862 67.2734375 16.3125 C68.82275825 19.70246676 67.44961447 22.46705235 66.390625 25.8828125 C63.79335937 32.84433594 63.79335937 32.84433594 60.4375 35.4375 C59.695 35.72625 58.9525 36.015 58.1875 36.3125 C59.8375 37.9625 61.4875 39.6125 63.1875 41.3125 C62.5275 42.6325 61.8675 43.9525 61.1875 45.3125 C59.2075 45.3125 57.2275 45.3125 55.1875 45.3125 C55.1875 46.6325 55.1875 47.9525 55.1875 49.3125 C55.92355469 49.168125 56.65960938 49.02375 57.41796875 48.875 C58.39378906 48.689375 59.36960937 48.50375 60.375 48.3125 C61.33792969 48.126875 62.30085938 47.94125 63.29296875 47.75 C65.9809206 47.34372388 68.47521019 47.23316428 71.1875 47.3125 C71.6825 49.7875 71.6825 49.7875 72.1875 52.3125 C69.5475 54.6225 66.9075 56.9325 64.1875 59.3125 C65.67307099 63.40968747 65.67307099 63.40968747 68.46484375 64.18359375 C69.34269531 64.37050781 70.22054687 64.55742188 71.125 64.75 C75.95248692 66.0627986 75.95248692 66.0627986 78.1875 68.4375 C79.87972958 73.30266005 81.1875 78.14191325 81.1875 83.3125 C82.156875 83.93125 83.12625 84.55 84.125 85.1875 C87.1875 87.3125 87.1875 87.3125 88.0625 89.5625 C88.10375 90.47 88.145 91.3775 88.1875 92.3125 C88.24357422 93.31603516 88.24357422 93.31603516 88.30078125 94.33984375 C88.36915614 96.32991296 88.28531179 98.32366028 88.1875 100.3125 C87.5275 100.9725 86.8675 101.6325 86.1875 102.3125 C82.5625 101.9375 82.5625 101.9375 79.1875 101.3125 C78.960625 100.260625 78.73375 99.20875 78.5 98.125 C77.38708066 94.12494208 75.18699814 92.15817773 72.1875 89.3125 C71.375 87 71.375 87 71.1875 85.3125 C67.82029613 86.70582574 66.2015476 88.2914286 64.1875 91.3125 C60.87918898 91.03680742 59.34453047 90.44134551 56.75 88.3125 C54.69312665 84.36330316 55.44216392 82.26535474 56.609375 78.10546875 C56.80015625 77.51378906 56.9909375 76.92210938 57.1875 76.3125 C55.8675 76.3125 54.5475 76.3125 53.1875 76.3125 C52.6925 71.8575 52.6925 71.8575 52.1875 67.3125 C49.5409665 69.9590335 48.58808003 72.87471264 47.1875 76.3125 C42.8975 75.6525 38.6075 74.9925 34.1875 74.3125 C36.47654342 78.03219556 38.88667064 81.05859823 41.9375 84.1875 C47.56264487 90.34987781 50.70035217 97.82249937 54.1875 105.3125 C54.84826796 106.64876641 55.51128788 107.98398226 56.1875 109.3125 C54.1875 112.3125 54.1875 112.3125 51.875 113.625 C48.93894166 115.20493864 48.93894166 115.20493864 47.125 118.5 C45.26676957 120.89000699 44.34563761 121.28160201 41.30859375 121.875 C35.30079966 122.10634706 35.30079966 122.10634706 32.1875 121.3125 C30.51953125 119.0390625 30.51953125 119.0390625 29.1875 116.3125 C28.14563585 114.85997407 27.08405441 113.42131578 26 112 C25.47019531 111.30261719 24.94039062 110.60523437 24.39453125 109.88671875 C23.99621094 109.36722656 23.59789063 108.84773438 23.1875 108.3125 C24.9375 104.4375 24.9375 104.4375 27.1875 103.3125 C32.92506751 103.03032455 37.5039359 102.90654598 42 106.9375 C42.5878125 107.618125 42.5878125 107.618125 43.1875 108.3125 C42.5275 105.6725 41.8675 103.0325 41.1875 100.3125 C40.5275 100.3125 39.8675 100.3125 39.1875 100.3125 C38.671875 99.11625 38.15625 97.92 37.625 96.6875 C35.65832948 92.72626292 33.36038656 90.46267734 29.9296875 87.74609375 C25.79616218 84.34473995 22.84963064 80.44999472 21.1875 75.3125 C20.51203125 75.43109375 19.8365625 75.5496875 19.140625 75.671875 C11.84076815 76.72676761 11.84076815 76.72676761 8.625 74.6875 C7.09820646 72.16497155 6.71628901 70.18306892 6.1875 67.3125 C5.1975 66.6525 4.2075 65.9925 3.1875 65.3125 C1.61655965 61.96571404 0.92053996 59.5496805 1.7109375 55.88671875 C2.64400676 53.38657162 3.5477314 51.42077391 5.1875 49.3125 C8.875 48.1875 8.875 48.1875 12.1875 48.3125 C13.1875 49.3125 13.1875 49.3125 13.28515625 51.37890625 C13.27355469 52.20261719 13.26195313 53.02632812 13.25 53.875 C13.24097656 54.70128906 13.23195313 55.52757812 13.22265625 56.37890625 C13.21105469 57.01699219 13.19945313 57.65507813 13.1875 58.3125 C13.81398438 58.28929687 14.44046875 58.26609375 15.0859375 58.2421875 C15.90320313 58.22414062 16.72046875 58.20609375 17.5625 58.1875 C18.37460937 58.16429687 19.18671875 58.14109375 20.0234375 58.1171875 C22.1875 58.3125 22.1875 58.3125 24.1875 60.3125 C25.5075 60.3125 26.8275 60.3125 28.1875 60.3125 C29.62759088 58.7718377 29.62759088 58.7718377 30.6875 56.6875 C31.10515625 55.95917969 31.5228125 55.23085938 31.953125 54.48046875 C32.36046875 53.76503906 32.7678125 53.04960938 33.1875 52.3125 C33.92677463 51.2011238 34.67556819 50.09596713 35.4375 49 C37.30606875 46.37791503 37.30606875 46.37791503 38.1875 43.3125 C36.60392541 43.62377516 35.02065007 43.93657289 33.4375 44.25 C32.55578125 44.42402344 31.6740625 44.59804688 30.765625 44.77734375 C28.28035494 45.2535378 28.28035494 45.2535378 26.26782227 45.89233398 C22.70891379 46.61113242 19.32325155 45.3375622 15.875 44.4375 C10.65060144 43.10731951 5.54146117 41.97732477 0.1875 41.3125 C-0.3075 38.8375 -0.3075 38.8375 -0.8125 36.3125 C-1.8025 35.9825 -2.7925 35.6525 -3.8125 35.3125 C-4.6875 33.48046875 -4.6875 33.48046875 -4.8125 31.3125 C-3.5625 29.48828125 -3.5625 29.48828125 -1.8125 27.625 C0.66129516 24.52843123 1.66465511 22.68204611 1.375 18.6875 C0.77671208 15.45231349 -0.1508434 13.59061173 -2.375 11.1875 C-4.8125 8.3125 -4.8125 8.3125 -5.1875 4.5 C-4.7034445 0.38552824 -4.7034445 0.38552824 0 0 Z " fill="#CDE1E7" transform="translate(27.8125,6.6875)"/>
	

	<path d="M0 0 C4.21438437 0.19601788 5.68255379 0.67517132 8.6875 3.75 C10.60464643 6.44436795 12.30134016 9.16890026 14 12 C16.90197514 13.45098757 19.64637919 13.31205534 22.875 13.5 C30.50410048 13.94595994 30.50410048 13.94595994 34 15 C33.71125 14.29875 33.4225 13.5975 33.125 12.875 C31.97866412 9.94547497 30.97374346 6.99078347 30 4 C31.65 3.67 33.3 3.34 35 3 C39.875 8.625 39.875 8.625 41 12 C41.88042969 12.10957031 42.76085937 12.21914063 43.66796875 12.33203125 C44.82941406 12.49058594 45.99085937 12.64914063 47.1875 12.8125 C48.33605469 12.96332031 49.48460937 13.11414062 50.66796875 13.26953125 C54.01836027 14.00402505 56.1929729 15.07049926 59 17 C57.59184626 20.4030382 56.18567433 22.13107106 53 24 C49.765625 24.29296875 49.765625 24.29296875 46.25 24.1875 C45.07953125 24.16042969 43.9090625 24.13335937 42.703125 24.10546875 C41.81109375 24.07066406 40.9190625 24.03585938 40 24 C39.896875 24.60585938 39.79375 25.21171875 39.6875 25.8359375 C38.50431921 29.56026794 35.31015485 31.27481801 32 33 C29.02919083 33.9180789 26.07217937 34.53325166 23 35 C23.48490514 30.63585373 24.65003119 28.80673063 28 26 C30 24.66666667 32 23.33333333 34 22 C34.33 21.34 34.66 20.68 35 20 C33.75863281 20.27714844 32.51726563 20.55429687 31.23828125 20.83984375 C29.59636049 21.20575752 27.95443305 21.57164136 26.3125 21.9375 C25.49587891 22.11990234 24.67925781 22.30230469 23.83789062 22.49023438 C23.04189453 22.66748047 22.24589844 22.84472656 21.42578125 23.02734375 C20.26973389 23.29019165 20.26973389 23.29019165 19.09033203 23.55834961 C17 24 17 24 14.07421875 24.375 C11.84813567 24.82434166 11.84813567 24.82434166 10.59375 26.84765625 C10.2328125 27.57855469 9.871875 28.30945313 9.5 29.0625 C8.26171875 31.2421875 8.26171875 31.2421875 7 33 C4.3125 33.6875 4.3125 33.6875 2 33 C1.34 32.01 0.68 31.02 0 30 C0.598125 29.154375 1.19625 28.30875 1.8125 27.4375 C5.73067784 21.66623633 5.73067784 21.66623633 6.80078125 15.03515625 C5.48914091 11.70167031 2.90516976 9.58952647 0.3984375 7.09765625 C-1 5 -1 5 -0.7109375 2.24609375 C-0.47632812 1.50488281 -0.24171875 0.76367188 0 0 Z " fill="#8DC3D7" transform="translate(25,8)"/>
	

	<path d="M0 0 C1.75 0.1875 1.75 0.1875 4 1 C4.598125 1.825 5.19625 2.65 5.8125 3.5 C8.22895288 6.26166043 9.24798973 6.46999479 12.76879883 6.86083984 C17.48898132 7.15523792 22.21038784 7.10064554 26.9375 7.0625 C28.00291016 7.05798828 29.06832031 7.05347656 30.16601562 7.04882812 C32.77740291 7.03711787 35.38867124 7.02071724 38 7 C39.25664978 9.90600261 40 11.79604584 40 15 C34.39 14.67 28.78 14.34 23 14 C26.4283661 19.32808684 26.4283661 19.32808684 30.6875 23 C38.36499052 29.44335186 44.261442 39.82353946 48 49 C47.5859375 51.2109375 47.5859375 51.2109375 47 53 C45.02 53.495 45.02 53.495 43 54 C42.9071875 54.804375 42.9071875 54.804375 42.8125 55.625 C41.63013614 59.08114052 39.92823334 61.82514708 37 64 C34.14446052 64.51822754 31.93043556 64.2980104 29 64 C28.87625 63.13375 28.87625 63.13375 28.75 62.25 C27.77700266 59.33100799 26.25912892 58.0654893 24 56 C21.75 53.9375 21.75 53.9375 20 52 C20 51.01 20 50.02 20 49 C22.40545638 47.79727181 23.94996953 47.89928528 26.625 47.9375 C27.85089844 47.95103516 27.85089844 47.95103516 29.1015625 47.96484375 C29.72804688 47.97644531 30.35453125 47.98804688 31 48 C31.495 50.475 31.495 50.475 32 53 C30.515 53.495 30.515 53.495 29 54 C29.33 55.32 29.66 56.64 30 58 C31.65 58.33 33.3 58.66 35 59 C35.33 58.01 35.66 57.02 36 56 C38.5625 54.8125 38.5625 54.8125 41 54 C39.24494712 43.94833351 35.36085489 37.02265068 28.35546875 29.62890625 C27 28 27 28 27 26 C26.401875 25.7525 25.80375 25.505 25.1875 25.25 C22.61561243 23.78034996 21.46805623 22.56909841 20 20 C19.8125 17.25 19.8125 17.25 20 15 C14.84951463 14.07326147 14.84951463 14.07326147 9.75 14.5625 C8 15 8 15 6.06640625 14.265625 C2.52217786 12.09486886 0.66165887 8.74589478 -1 5 C-0.8125 2 -0.8125 2 0 0 Z " fill="#4F9FC7" transform="translate(33,64)"/>
	

	

	

	

	

	

	

	

	

	

	

	

	

	

	

	

	

	

	

	

	

	

	

	

	

	

</svg>
