<?xml version="1.0" encoding="iso-8859-1"?>
<svg height="128" version="1.1" width="128" xmlns="http://www.w3.org/2000/svg">
	

	<path d="M0 0 C42.24 0 84.48 0 128 0 C128 42.24 128 84.48 128 128 C85.76 128 43.52 128 0 128 C0 85.76 0 43.52 0 0 Z " fill="#FEFEFD" transform="translate(0,0)"/>
	

	<path d="M0 0 C0.86367188 0.09023438 1.72734375 0.18046875 2.6171875 0.2734375 C5.125 0.625 5.125 0.625 7.01171875 1.16796875 C11.16175133 2.06548042 15.49149077 1.57776763 19.71484375 1.46484375 C23.17658052 1.62742245 25.15675346 1.86213277 28.125 3.625 C31.11297914 7.63001601 32.94396306 11.37586801 34.44921875 16.125 C34.83787109 17.341875 35.22652344 18.55875 35.62695312 19.8125 C36.01818359 21.070625 36.40941406 22.32875 36.8125 23.625 C37.21862955 24.8960801 37.62552469 26.16691584 38.03320312 27.4375 C42.75401525 42.3669695 42.75401525 42.3669695 41.125 45.625 C38.45703125 46.20336914 38.45703125 46.20336914 34.9375 46.66015625 C33.68195313 46.82966797 32.42640625 46.99917969 31.1328125 47.17382812 C29.79695082 47.34564261 28.46101212 47.51685923 27.125 47.6875 C24.5200597 48.02715142 21.91624313 48.37379744 19.3125 48.72265625 C17.57033203 48.94707397 17.57033203 48.94707397 15.79296875 49.17602539 C13.21141011 49.3452706 13.21141011 49.3452706 12.125 50.625 C8.8650116 50.98581425 5.58975746 50.99645381 2.3125 51.0625 C1.39662109 51.10826172 0.48074219 51.15402344 -0.46289062 51.20117188 C-3.0617212 51.24470655 -5.33872543 51.19933651 -7.875 50.625 C-11.62276386 46.54126967 -13.09423795 41.78920994 -14.875 36.625 C-15.73222656 36.51542969 -16.58945312 36.40585938 -17.47265625 36.29296875 C-23.74933778 35.42258338 -29.2172541 34.51966069 -34.875 31.625 C-34.875 31.295 -34.875 30.965 -34.875 30.625 C-41.805 30.13 -41.805 30.13 -48.875 29.625 C-49.67344567 26.43121733 -49.96584763 24.53195507 -49.875 21.375 C-49.81734102 17.02895442 -50.24972703 12.92375168 -50.875 8.625 C-47.53535015 7.52469773 -45.22436408 7.74866945 -41.8125 8.5 C-40.95527344 8.68304688 -40.09804688 8.86609375 -39.21484375 9.0546875 C-36.875 9.625 -36.875 9.625 -33.875 10.625 C-32.885 9.965 -31.895 9.305 -30.875 8.625 C-28.25 8.4375 -28.25 8.4375 -25.875 8.625 C-25.545 8.955 -25.215 9.285 -24.875 9.625 C-17.73395067 9.75483726 -14.28528017 7.03948436 -8.9765625 2.4375 C-5.7014037 -0.38717227 -4.20959226 -0.46218075 0 0 Z " fill="#F67020" transform="translate(62.875,45.375)"/>
	

	<path d="M0 0 C1.55074219 0.16242187 1.55074219 0.16242187 3.1328125 0.328125 C5.875 0.75 5.875 0.75 8.875 1.75 C12.62565832 1.70208218 16.36582134 1.55487033 20.11328125 1.39453125 C24.67661165 1.82574939 26.50430314 2.6455359 29.875 5.75 C31.58833813 8.6229372 32.74550927 11.60773005 33.875 14.75 C34.18211914 15.5970752 34.48923828 16.44415039 34.80566406 17.31689453 C35.73730873 19.97203243 36.62473219 22.63828573 37.5 25.3125 C37.7990625 26.20646484 38.098125 27.10042969 38.40625 28.02148438 C43.25417291 42.68323352 43.25417291 42.68323352 42.875 48.75 C31.27654374 52.8435728 19.21399969 53.8306125 6.99609375 54.40625 C3.64540263 54.77528732 0.95511961 55.37123771 -2.125 56.75 C-2.79897105 58.07965606 -3.46561208 59.41305206 -4.125 60.75 C-11.9769505 64.44158867 -20.5459172 65.52223674 -29.125 65.75 C-29.92550781 65.77578125 -30.72601563 65.8015625 -31.55078125 65.828125 C-34.26303561 65.9075468 -36.97441527 65.95842757 -39.6875 66 C-41.01019897 66.0323877 -41.01019897 66.0323877 -42.35961914 66.06542969 C-43.19098389 66.06961914 -44.02234863 66.07380859 -44.87890625 66.078125 C-45.62470947 66.0874707 -46.3705127 66.09681641 -47.13891602 66.10644531 C-49.70093124 65.6466368 -50.54319114 64.78286107 -52.125 62.75 C-53.2312747 59.43117589 -53.3319788 56.77715641 -53.44140625 53.28125 C-53.48330078 51.98703125 -53.52519531 50.6928125 -53.56835938 49.359375 C-53.58793701 48.68326172 -53.60751465 48.00714844 -53.62768555 47.31054688 C-53.68648469 45.28497637 -53.75178883 43.25970339 -53.81835938 41.234375 C-54.00105531 35.36490576 -54.14741731 29.50532405 -54.1171875 23.6328125 C-54.10034381 20.08573019 -54.23410237 16.64887523 -54.6875 13.125 C-54.87323658 11.67120999 -55.03170439 10.2126344 -55.125 8.75 C-53.32124109 6.94624109 -50.57784707 7.61962702 -48.1484375 7.6171875 C-46.91996094 7.61589844 -45.69148438 7.61460938 -44.42578125 7.61328125 C-42.48251953 7.61908203 -42.48251953 7.61908203 -40.5 7.625 C-39.22769531 7.62113281 -37.95539062 7.61726563 -36.64453125 7.61328125 C-34.79021484 7.61521484 -34.79021484 7.61521484 -32.8984375 7.6171875 C-31.20340088 7.61887939 -31.20340088 7.61887939 -29.47412109 7.62060547 C-26.125 7.75 -26.125 7.75 -22.34277344 8.32763672 C-19.19475299 9.04309602 -19.19475299 9.04309602 -16.8671875 7.640625 C-15.94292969 6.82851563 -15.94292969 6.82851563 -15 6 C-9.97356382 1.70354417 -6.84610136 -0.78927484 0 0 Z M-12.109375 6.1484375 C-15.74928208 9.04061173 -19.27952662 11.54940507 -24 12.0625 C-26.125 11.75 -26.125 11.75 -27.125 10.75 C-30.97097567 10.42950203 -33.63471852 11.15444275 -37.125 12.75 C-37.455 12.42 -37.785 12.09 -38.125 11.75 C-40.30519479 11.35333773 -42.4946463 11.00684763 -44.6875 10.6875 C-46.48380859 10.42259766 -46.48380859 10.42259766 -48.31640625 10.15234375 C-49.24324219 10.01957031 -50.17007813 9.88679688 -51.125 9.75 C-52.25323472 13.13470416 -51.85913307 15.30365309 -51.125 18.75 C-51.08270753 20.83290401 -51.08395706 22.91707099 -51.125 25 C-51.16239126 26.91630191 -51.17202061 28.83391019 -51.125 30.75 C-48.74516097 33.12983903 -42.76352031 32.21423787 -39.54296875 32.37109375 C-35.04839569 32.86934928 -32.83942248 34.27371835 -29.125 36.75 C-27.0017079 36.90126355 -24.8762197 37.02282468 -22.75 37.125 C-19.23828125 37.5859375 -19.23828125 37.5859375 -16.125 38.75 C-14.02858417 41.76710979 -13.01525288 44.49226934 -11.95703125 48 C-11.32708445 50.86260532 -11.32708445 50.86260532 -9.125 52.75 C-7.09281259 53.05981762 -7.09281259 53.05981762 -4.765625 53.015625 C-3.89679687 53.01820312 -3.02796875 53.02078125 -2.1328125 53.0234375 C-1.22273438 53.01570313 -0.31265625 53.00796875 0.625 53 C1.51960938 53.00773437 2.41421875 53.01546875 3.3359375 53.0234375 C8.34812481 53.00865229 12.12284951 52.41385118 16.875 50.75 C20.81698597 50.07776903 24.78049578 49.6040781 28.75 49.125 C29.81992188 48.9909375 30.88984375 48.856875 31.9921875 48.71875 C34.61916509 48.3903778 37.24670634 48.06763588 39.875 47.75 C40.89679786 44.59550387 40.83525929 42.70361914 39.87109375 39.546875 C39.62786377 38.73855225 39.38463379 37.93022949 39.1340332 37.09741211 C38.86292725 36.24026611 38.59182129 35.38312012 38.3125 34.5 C37.90294067 33.17657593 37.90294067 33.17657593 37.48510742 31.82641602 C35.67665418 26.06951517 33.76005251 20.35472891 31.6875 14.6875 C31.45023193 14.02782227 31.21296387 13.36814453 30.96850586 12.68847656 C29.74852283 9.46189204 28.72920348 6.79695401 25.875 4.75 C21.46261456 3.89848702 17.35732177 3.72962194 12.875 3.8125 C9.59152653 3.85782402 6.793089 3.61457391 3.625 2.75 C-3.62366411 0.8170229 -6.41529287 1.5627454 -12.109375 6.1484375 Z " fill="#F8AC55" transform="translate(64.125,43.25)"/>
	

	<path d="M0 0 C2.13264975 0.22912766 4.25739648 0.53375263 6.375 0.875 C8.11910156 1.14957031 8.11910156 1.14957031 9.8984375 1.4296875 C13 2 13 2 16 3 C16.99 2.34 17.98 1.68 19 1 C21.9164232 0.69300808 23.71385474 0.88260707 26.4375 2 C29.43358948 3.16920565 31.81164811 3.14829544 35 3 C37.23891142 8.45126259 38.47606294 13.13190493 39 19 C40.32 19 41.64 19 43 19 C43.66 17.68 44.32 16.36 45 15 C45.96421875 15.08378906 46.9284375 15.16757813 47.921875 15.25390625 C49.81679687 15.40666016 49.81679687 15.40666016 51.75 15.5625 C53.62945312 15.71912109 53.62945312 15.71912109 55.546875 15.87890625 C58.83765956 16.16108793 58.83765956 16.16108793 61.2890625 15.39453125 C61.85367188 15.26433594 62.41828125 15.13414063 63 15 C68.8498521 19.73559456 70.07055901 24.9713221 72 32 C75.96 32.66 79.92 33.32 84 34 C84 34.66 84 35.32 84 36 C70.64110881 39.11707461 57.68089425 40.45619876 44 41 C43.34391169 39.72848768 42.69245757 38.45458346 42.04296875 37.1796875 C41.67969482 36.47054199 41.3164209 35.76139648 40.94213867 35.03076172 C40 33 40 33 39.3125 30.125 C37.65486646 27.44121236 36.75380749 27.41463203 33.75 26.6875 C31.06542963 26.22080435 28.6710246 26 25.9375 26 C22.03267059 26 18.76085489 25.03747721 15 24 C15 23.67 15 23.34 15 23 C8.07 22.505 8.07 22.505 1 22 C0.20155433 18.80621733 -0.09084763 16.90695507 0 13.75 C0.04694632 10.5993806 -0.11923306 7.61970149 -0.5625 4.5 C-0.706875 3.345 -0.85125 2.19 -1 1 C-0.67 0.67 -0.34 0.34 0 0 Z " fill="#D21310" transform="translate(13,53)"/>
	

	

	

	<path d="M0 0 C2.15338914 0.2021549 4.29928132 0.48696616 6.4375 0.8125 C8.19900391 1.06966797 8.19900391 1.06966797 9.99609375 1.33203125 C13 2 13 2 15 4 C15.22705078 5.87939453 15.22705078 5.87939453 15.1953125 8.1328125 C15.18886719 8.93847656 15.18242187 9.74414062 15.17578125 10.57421875 C15.15902344 11.41597656 15.14226563 12.25773437 15.125 13.125 C15.11597656 13.97449219 15.10695313 14.82398437 15.09765625 15.69921875 C15.07405647 17.79959884 15.03818483 19.89983444 15 22 C10.38 22 5.76 22 1 22 C0.20155433 18.80621733 -0.09084763 16.90695507 0 13.75 C0.04694632 10.5993806 -0.11923306 7.61970149 -0.5625 4.5 C-0.706875 3.345 -0.85125 2.19 -1 1 C-0.67 0.67 -0.34 0.34 0 0 Z " fill="#371613" transform="translate(13,53)"/>
	

	

	

	

	

	

	

</svg>
