<?xml version="1.0" encoding="iso-8859-1"?>
<svg height="128" version="1.1" width="128" xmlns="http://www.w3.org/2000/svg">
	

	<path d="M0 0 C42.24 0 84.48 0 128 0 C128 42.24 128 84.48 128 128 C85.76 128 43.52 128 0 128 C0 85.76 0 43.52 0 0 Z " fill="#0566C8" transform="translate(0,0)"/>
	

	<path d="M0 0 C6.46429502 3.57552912 10.99907012 8.90211973 15 15 C15.598125 15.9075 16.19625 16.815 16.8125 17.75 C19.79477586 23.40062794 19.68236433 29.76671688 19 36 C16.9733539 42.09675694 13.85825941 46.83577764 9 51 C5.47605555 50.13859136 3.46143628 49.53586149 1.0625 46.75 C-0.28671908 43.25790356 -0.00592983 41.59260652 1 38 C1.515625 36.906875 2.03125 35.81375 2.5625 34.6875 C4.7676444 29.03082524 4.96339463 24.32090524 2.625 18.6875 C2.08875 17.800625 1.5525 16.91375 1 16 C0.7525 15.236875 0.505 14.47375 0.25 13.6875 C-1.01182473 11.64100845 -1.01182473 11.64100845 -4.3125 10.9375 C-8.04639288 10.68179438 -8.04639288 10.68179438 -10.875 12.8125 C-13.41285692 16.61928538 -13.39563705 19.00354217 -13.65234375 23.453125 C-14.68834253 31.04268912 -21.67110503 37.9181399 -27 43 C-27.66 43 -28.32 43 -29 43 C-29.33 43.99 -29.66 44.98 -30 46 C-36.93794205 50.76133278 -43.76032127 50.93297912 -52 50 C-57.82696887 48.4697873 -60.77447272 44.03579094 -63.93359375 39.21875 C-65 37 -65 37 -65 33 C-61.72333923 34.09222026 -61.08390769 34.82718854 -59 37.4375 C-56.29070122 40.817068 -54.35212153 42.81070299 -49.875 43.4375 C-44.83281779 42.86822136 -41.0954194 40.96104661 -37 38 C-36.34 37.01 -35.68 36.02 -35 35 C-34.34 35 -33.68 35 -33 35 C-32.731875 34.2575 -32.46375 33.515 -32.1875 32.75 C-31 30 -31 30 -29.53515625 28.35546875 C-26.98366434 24.44058422 -26.61172794 19.85278831 -25.890625 15.28710938 C-25.05096574 11.02508896 -24.17567933 8.68360049 -20.59765625 6.07421875 C-17.22792207 3.96366928 -13.69605484 2.44943327 -10 1 C-6.67541282 -0.66229359 -3.56581769 -0.73144978 0 0 Z " fill="#F8FAFA" transform="translate(77,33)"/>
	

	<path d="M0 0 C8.86338317 5.77432252 14.52801933 14.01567854 18.875 23.5 C20.93186075 33.37293161 18.67412941 39.91421835 13.5 48.5 C11.92578125 50.8515625 11.92578125 50.8515625 10.5 52.5 C9.84 52.5 9.18 52.5 8.5 52.5 C8.17 53.49 7.84 54.48 7.5 55.5 C5.8125 56.4375 5.8125 56.4375 3.5 56.5 C0.4375 54.75 0.4375 54.75 -2.5 52.5 C-3.098125 52.0875 -3.69625 51.675 -4.3125 51.25 C-6.37755985 48.20675391 -6.73038562 45.07703996 -6.5 41.5 C-5.61708351 38.9337661 -4.53655507 36.50344354 -3.4453125 34.01953125 C-1.9848074 30.12686269 -1.5617666 26.57084738 -2.5 22.5 C-3.94741082 20.07095416 -5.44953078 18.49920749 -7.5 16.5 C-9.15 16.83 -10.8 17.16 -12.5 17.5 C-12.68175781 18.37011719 -12.68175781 18.37011719 -12.8671875 19.2578125 C-13.11855469 20.42957031 -13.11855469 20.42957031 -13.375 21.625 C-13.53742188 22.39070313 -13.69984375 23.15640625 -13.8671875 23.9453125 C-15.38775669 30.08390664 -17.50171219 34.24571988 -21.6875 39 C-22.18217773 39.57024902 -22.67685547 40.14049805 -23.18652344 40.72802734 C-29.56502054 47.97821077 -35.10624329 52.90156082 -44.75 55.3125 C-51.8253497 55.66626749 -58.20157983 55.04731598 -63.875 50.5 C-69.98456057 44.44062062 -73.11454442 37.25716507 -73.5703125 28.69140625 C-73.43379718 24.43667893 -72.2136656 22.2766361 -69.375 19.1875 C-68.75625 18.630625 -68.1375 18.07375 -67.5 17.5 C-66.51 17.83 -65.52 18.16 -64.5 18.5 C-64.53480469 19.21285156 -64.56960937 19.92570312 -64.60546875 20.66015625 C-64.77869272 26.78898534 -64.65065698 31.17647614 -61.5 36.5 C-59.18109656 38.81890344 -57.23084049 40.175182 -54.25 41.5 C-48.62858644 41.5 -44.38645414 39.15145217 -40.2109375 35.49609375 C-34.81938925 29.54578505 -33.72013415 24.57876197 -32.96875 16.71484375 C-32.31749309 12.24830675 -30.84864396 9.49335017 -27.5 6.5 C-25.10984985 4.89124509 -23.0670966 3.69866435 -20.5 2.5 C-19.78457031 2.12746094 -19.06914063 1.75492188 -18.33203125 1.37109375 C-11.81938427 -1.84599693 -6.94940797 -2.9783177 0 0 Z M-16.5 4.5 C-17.675625 4.995 -18.85125 5.49 -20.0625 6 C-24.15989009 7.7377661 -24.15989009 7.7377661 -27.5 10.5 C-28.51221892 13.99741593 -29.20039912 17.41148962 -29.83398438 20.98828125 C-30.96217588 26.62426876 -32.9956667 29.95071723 -36.5 34.5 C-36.5 35.16 -36.5 35.82 -36.5 36.5 C-37.985 36.995 -37.985 36.995 -39.5 37.5 C-40.16 38.49 -40.82 39.48 -41.5 40.5 C-45.09251563 42.96933833 -48.73600544 44.34992964 -53 45.1875 C-58.0973984 44.18622531 -61.01929975 41.23675176 -64.5 37.5 C-65.16 36.51 -65.82 35.52 -66.5 34.5 C-67.16 34.5 -67.82 34.5 -68.5 34.5 C-68.20806176 40.33876482 -65.58996101 44.47863372 -61.5 48.5 C-55.08014397 52.4402768 -48.83271811 52.41556792 -41.5 51.5 C-38.17587996 50.21497105 -35.35955576 48.61818945 -32.5 46.5 C-32.5 45.84 -32.5 45.18 -32.5 44.5 C-31.65308594 44.17128906 -31.65308594 44.17128906 -30.7890625 43.8359375 C-27.76565737 42.07142461 -26.06009859 39.85089222 -23.875 37.125 C-23.09898438 36.16851562 -22.32296875 35.21203125 -21.5234375 34.2265625 C-18.49589211 30.14697431 -17.33607759 27.63759781 -17.1875 22.5625 C-16.86097003 18.82124137 -16.53638738 17.55458107 -14.375 14.3125 C-11.5 12.5 -11.5 12.5 -7.8125 12.4375 C-4.5 13.5 -4.5 13.5 -3.25 15.1875 C-3.0025 15.950625 -2.755 16.71375 -2.5 17.5 C-1.96375 18.386875 -1.4275 19.27375 -0.875 20.1875 C1.26370447 25.33983349 1.45181049 29.83493063 -0.4375 35.125 C-1.16121686 36.81367267 -1.92052902 38.48775677 -2.72265625 40.140625 C-3.67036972 43.01710208 -3.35740134 44.62602904 -2.5 47.5 C-1.35302042 49.80723357 -1.35302042 49.80723357 0.5 51.5 C3.09855733 52.3042208 3.09855733 52.3042208 5.5 52.5 C11.56829998 46.02714669 15.67612162 40.55165043 15.9375 31.4375 C15.57429705 22.0879531 10.97812885 13.96978969 4.40234375 7.40625 C-0.34902346 3.19814256 -2.89614953 1.19439847 -9.484375 1.27734375 C-12.37003811 1.59610886 -14.13348831 2.86164575 -16.5 4.5 Z " fill="#518FC6" transform="translate(80.5,31.5)"/>
	

	<path d="M0 0 C3.2879399 3.2879399 3.92026469 5.20399014 5.3125 9.5625 C11.4092171 27.43915882 23.85080028 40.49227243 40.63745117 48.87182617 C41.90081094 49.48916608 43.16913118 50.09647681 44.44262695 50.69262695 C48.90018369 52.80036738 48.90018369 52.80036738 50 55 C33.5 55 17 55 0 55 C0 36.85 0 18.7 0 0 Z " fill="#F8FAFA" transform="translate(0,73)"/>
	

	<path d="M0 0 C12.87 0 25.74 0 39 0 C36.37789612 2.62210388 34.47675655 3.98159288 31.3125 5.75 C26.92188511 8.30851351 23.27777324 11.19194419 19.59375 14.6796875 C18 16 18 16 16 16 C15.74992188 16.56460937 15.49984375 17.12921875 15.2421875 17.7109375 C13.81532605 20.34031112 12.07906003 22.36123988 10.125 24.625 C6.19844551 29.42253567 3.89891204 34.12836408 2 40 C1.34 40 0.68 40 0 40 C0 26.8 0 13.6 0 0 Z " fill="#F8FAFA" transform="translate(0,0)"/>
	

	<path d="M0 0 C13.2 0 26.4 0 40 0 C40 12.87 40 25.74 40 39 C37.1749725 36.1749725 35.89961712 34.12627161 34.125 30.625 C31.83410985 26.34081083 29.67347165 23.2361536 26 20 C24.76996796 18.70915739 23.5408955 17.41740008 22.3125 16.125 C15.77741607 9.60222319 8.34750634 4.86458627 0 1 C0 0.67 0 0.34 0 0 Z " fill="#F8FAFA" transform="translate(88,0)"/>
	

	<path d="M0 0 C0.33 0 0.66 0 1 0 C1 12.54 1 25.08 1 38 C-12.2 38 -25.4 38 -39 38 C-36.07306945 35.07306945 -34.32020093 34.1246996 -30.625 32.5 C-16.02273915 25.32261755 -7.06603419 14.4960762 0 0 Z " fill="#F8FAFA" transform="translate(127,90)"/>
	

	<path d="M0 0 C2.31037769 1.63915824 4.1359776 3.10789425 6.125 5.0625 C6.64562012 5.55911133 7.16624023 6.05572266 7.70263672 6.56738281 C14.67333864 13.39070795 18.90187484 20.44562104 19.3125 30.4375 C19.04770731 39.62736386 14.36897128 46.63102872 8 53 C3.91863466 52.92441916 1.71065047 52.60131963 -1.4375 49.9375 C-3.41042158 46.22840743 -3.70824218 43.07849805 -3 39 C-2.505 38.0925 -2.01 37.185 -1.5 36.25 C0.80870875 31.24779771 0.93122114 26.40685761 0 21 C-1.62816801 18.18256145 -3.52179273 16.09467519 -6 14 C-9.93075644 14.57452746 -9.93075644 14.57452746 -13 17 C-13.31004491 18.86601103 -13.549996 20.74400999 -13.75 22.625 C-14.73883127 28.96559743 -16.73679388 32.33683424 -21 37 C-21.69738281 37.83660156 -22.39476562 38.67320313 -23.11328125 39.53515625 C-29.04198118 46.48781127 -34.10645951 51.76949771 -43.4375 52.9375 C-50.33101041 53.24260696 -56.23985933 52.71716375 -61.8125 48.375 C-67.57433697 42.84042806 -69.37752146 36.92681391 -70.01953125 29.1015625 C-70 27 -70 27 -69 25 C-68.34 25 -67.68 25 -67 25 C-66.63648437 25.80824219 -66.27296875 26.61648437 -65.8984375 27.44921875 C-61.99170152 36.06163592 -61.99170152 36.06163592 -55 42 C-50.09897821 42.81683697 -46.31456865 41.89124093 -42.0546875 39.49609375 C-35.13983098 34.46113169 -31.61887268 28.56979057 -30.1875 20.1875 C-30.01605469 18.94355469 -29.84460937 17.69960938 -29.66796875 16.41796875 C-28.52099508 10.54895141 -25.88106618 7.32799967 -21 4 C-13.90777465 0.58522483 -7.8384742 -1.84680469 0 0 Z M-15 4 C-16.175625 4.495 -17.35125 4.99 -18.5625 5.5 C-22.65989009 7.2377661 -22.65989009 7.2377661 -26 10 C-27.01221892 13.49741593 -27.70039912 16.91148962 -28.33398438 20.48828125 C-29.46217588 26.12426876 -31.4956667 29.45071723 -35 34 C-35 34.66 -35 35.32 -35 36 C-36.485 36.495 -36.485 36.495 -38 37 C-38.66 37.99 -39.32 38.98 -40 40 C-43.59251563 42.46933833 -47.23600544 43.84992964 -51.5 44.6875 C-56.5973984 43.68622531 -59.51929975 40.73675176 -63 37 C-63.66 36.01 -64.32 35.02 -65 34 C-65.66 34 -66.32 34 -67 34 C-66.70806176 39.83876482 -64.08996101 43.97863372 -60 48 C-53.58014397 51.9402768 -47.33271811 51.91556792 -40 51 C-36.67587996 49.71497105 -33.85955576 48.11818945 -31 46 C-31 45.34 -31 44.68 -31 44 C-30.15308594 43.67128906 -30.15308594 43.67128906 -29.2890625 43.3359375 C-26.26565737 41.57142461 -24.56009859 39.35089222 -22.375 36.625 C-21.59898438 35.66851562 -20.82296875 34.71203125 -20.0234375 33.7265625 C-16.99589211 29.64697431 -15.83607759 27.13759781 -15.6875 22.0625 C-15.36097003 18.32124137 -15.03638738 17.05458107 -12.875 13.8125 C-10 12 -10 12 -6.3125 11.9375 C-3 13 -3 13 -1.75 14.6875 C-1.5025 15.450625 -1.255 16.21375 -1 17 C-0.46375 17.886875 0.0725 18.77375 0.625 19.6875 C2.76370447 24.83983349 2.95181049 29.33493063 1.0625 34.625 C0.33878314 36.31367267 -0.42052902 37.98775677 -1.22265625 39.640625 C-2.17036972 42.51710208 -1.85740134 44.12602904 -1 47 C0.14697958 49.30723357 0.14697958 49.30723357 2 51 C4.59855733 51.8042208 4.59855733 51.8042208 7 52 C13.06829998 45.52714669 17.17612162 40.05165043 17.4375 30.9375 C17.07429705 21.5879531 12.47812885 13.46978969 5.90234375 6.90625 C1.15097654 2.69814256 -1.39614953 0.69439847 -7.984375 0.77734375 C-10.87003811 1.09610886 -12.63348831 2.36164575 -15 4 Z " fill="#A4C5DC" transform="translate(79,32)"/>
	

	

	

	

	

	<path d="M0 0 C3.98878639 3.283401 5.05890216 6.73286129 6.3125 11.5625 C10.79518136 27.11817842 21.08953432 39.72672012 35 48 C41.17611924 51.34868869 47.49861422 54.34034218 54 57 C54 57.66 54 58.32 54 59 C38.27259002 57.12919922 23.25367427 43.89058631 13.625 32.125 C7.1190827 22.71009249 1.8278263 11.33252304 0 0 Z " fill="#A4C5DC" transform="translate(0,69)"/>
	

	<path d="M0 0 C12.6662667 2.08809831 21.27391447 10.29902551 30 19 C30.61746094 19.57363281 31.23492187 20.14726562 31.87109375 20.73828125 C33 22 33 22 33 24 C33.99 24.33 34.98 24.66 36 25 C37.52363168 27.2519451 38.87174623 29.44509493 40.1875 31.8125 C40.55552734 32.44220703 40.92355469 33.07191406 41.30273438 33.72070312 C43.24746495 37.15915996 44 38.96403524 44 43 C43.34 43 42.68 43 42 43 C41.55011719 41.98421875 41.10023437 40.9684375 40.63671875 39.921875 C34.72136674 27.07290328 27.10620647 16.7345208 15 9 C14.41734375 8.62488281 13.8346875 8.24976563 13.234375 7.86328125 C9.00418707 5.30039712 4.64386126 3.629425 0 2 C0 1.34 0 0.68 0 0 Z " fill="#A4C5DC" transform="translate(84,0)"/>
	

	

	<path d="M0 0 C0.66 0 1.32 0 2 0 C-1.25151739 14.9912065 -12.69380831 25.84637327 -25 34 C-36.41592083 41.21660391 -36.41592083 41.21660391 -40.37109375 40.67578125 C-41.17740234 40.34126953 -41.17740234 40.34126953 -42 40 C-39.20784936 37.73177694 -36.69608789 36.38074597 -33.3125 35.1875 C-19.27584261 29.784008 -8.76059695 19.44702696 -2.5 5.875 C-1.65239425 3.92280165 -0.81374612 1.96655311 0 0 Z " fill="#A4C5DC" transform="translate(126,87)"/>
	

</svg>
