<?xml version="1.0" encoding="iso-8859-1"?>
<svg height="128" version="1.1" width="128" xmlns="http://www.w3.org/2000/svg">
	

	<path d="M0 0 C42.24 0 84.48 0 128 0 C128 42.24 128 84.48 128 128 C85.76 128 43.52 128 0 128 C0 85.76 0 43.52 0 0 Z " fill="#050405" transform="translate(0,0)"/>
	

	<path d="M0 0 C1.42542114 0.00845947 1.42542114 0.00845947 2.87963867 0.01708984 C3.85634521 0.02272949 4.83305176 0.02836914 5.83935547 0.03417969 C35.22970398 0.51092026 35.22970398 0.51092026 43.54370117 7.50146484 C54.03385132 20.08964502 51.26681891 41.66346405 51.08178711 57.08032227 C51.06100098 59.04449097 51.06100098 59.04449097 51.03979492 61.04833984 C51.02182861 62.23363281 51.0038623 63.41892578 50.98535156 64.64013672 C50.75720152 67.24808158 50.75720152 67.24808158 52.06713867 68.32958984 C54.37996218 68.85887061 56.7043578 69.29292699 59.03588867 69.73193359 C59.70620117 69.92916016 60.37651367 70.12638672 61.06713867 70.32958984 C62.18969998 72.57471247 62.2012763 73.84415633 62.19213867 76.32958984 C62.19600586 77.38146484 62.19600586 77.38146484 62.19995117 78.45458984 C62.06713867 80.32958984 62.06713867 80.32958984 61.06713867 82.32958984 C56.56693183 82.18974529 52.06703261 82.04163989 47.56713867 81.89208984 C46.29870117 81.85277344 45.03026367 81.81345703 43.72338867 81.77294922 C37.44430953 81.56037623 31.28230286 81.26343396 25.06713867 80.32958984 C24.73713867 79.00958984 24.40713867 77.68958984 24.06713867 76.32958984 C27.11476386 74.60425215 29.67254562 74.01759258 33.12963867 73.57958984 C37.32818513 72.82956642 37.32818513 72.82956642 40.12963867 69.57958984 C44.04967366 55.99013523 42.52309068 41.1634805 40.37963867 27.39208984 C40.23115479 26.36809082 40.0826709 25.3440918 39.9296875 24.2890625 C38.94592652 18.52696516 38.036061 14.91744406 33.06713867 11.32958984 C25.63806605 7.69816708 16.5289858 7.90169434 8.44213867 7.51708984 C6.82214966 7.4373291 6.82214966 7.4373291 5.16943359 7.35595703 C4.15341064 7.32018555 3.1373877 7.28441406 2.09057617 7.24755859 C1.17195801 7.21428467 0.25333984 7.18101074 -0.69311523 7.14672852 C-3.13786766 7.10311458 -3.13786766 7.10311458 -4.93286133 9.32958984 C-5.94556513 12.66594176 -5.94556513 12.66594176 -5.93286133 16.32958984 C-3.99388254 19.0035746 -3.99388254 19.0035746 -1.93286133 21.32958984 C-2.18286133 23.64208984 -2.18286133 23.64208984 -2.93286133 25.32958984 C-3.81973633 25.24708984 -4.70661133 25.16458984 -5.62036133 25.07958984 C-9.73171927 25.38988101 -11.04766206 26.44439058 -13.93286133 29.32958984 C-17.27234007 33.50393827 -18.46361365 38.04656292 -17.93286133 43.32958984 C-14.84427035 51.52309723 -9.20358541 60.01102537 -1.49536133 64.45458984 C1.06713867 66.32958984 1.06713867 66.32958984 1.56713867 69.45458984 C1.06713867 72.32958984 1.06713867 72.32958984 -0.93286133 74.32958984 C-4.27736119 74.88131856 -5.63980069 74.51830314 -8.51098633 72.66943359 C-16.20017849 65.75590555 -21.08371485 58.38843491 -25.93286133 49.32958984 C-26.33633789 48.59740234 -26.73981445 47.86521484 -27.15551758 47.11083984 C-29.34299507 42.0983286 -28.06239914 37.08925829 -26.24536133 32.20458984 C-24.17779804 27.50558237 -22.04834441 22.66665133 -17.05786133 20.52490234 C-15.12036133 19.95458984 -15.12036133 19.95458984 -11.93286133 19.32958984 C-12.05145508 18.60513672 -12.17004883 17.88068359 -12.29223633 17.13427734 C-13.35544785 9.16019094 -13.35544785 9.16019094 -11.12036133 4.76708984 C-7.14202197 0.33408313 -5.79580234 0.06269178 0 0 Z " fill="#EEEDEE" transform="translate(41.932861328125,20.67041015625)"/>
	

	<path d="M0 0 C1.50397339 0.06779663 1.50397339 0.06779663 3.03833008 0.13696289 C11.50101264 0.59776464 20.08549265 1.38979394 27.5625 5.75 C28.0575 6.74 28.0575 6.74 28.5625 7.75 C29.325625 8.12125 30.08875 8.4925 30.875 8.875 C35.49339282 12.09713452 37.39777399 17.33481929 38.609375 22.73828125 C38.86398926 24.17625037 39.09738579 25.61809372 39.3125 27.0625 C39.43463867 27.85213135 39.55677734 28.6417627 39.68261719 29.45532227 C41.31296524 41.46486791 43.03613085 57.00126159 39.5625 68.75 C40.17738281 68.72679688 40.79226562 68.70359375 41.42578125 68.6796875 C42.23402344 68.66164063 43.04226562 68.64359375 43.875 68.625 C45.07576172 68.59019531 45.07576172 68.59019531 46.30078125 68.5546875 C48.5625 68.75 48.5625 68.75 51.5625 70.75 C51.44878503 73.04225435 51.32119036 75.33382388 51.1875 77.625 C51.11789063 78.90117188 51.04828125 80.17734375 50.9765625 81.4921875 C50.5625 84.75 50.5625 84.75 48.5625 86.75 C45.92382812 86.99291992 45.92382812 86.99291992 42.59375 86.98046875 C41.38203125 86.97853516 40.1703125 86.97660156 38.921875 86.97460938 C37.64828125 86.96236328 36.3746875 86.95011719 35.0625 86.9375 C33.81984375 86.93685547 32.5771875 86.93621094 31.296875 86.93554688 C12.20488048 86.84492032 12.20488048 86.84492032 7.5625 83.75 C7.625 80.4375 7.625 80.4375 8.5625 76.75 C13.09830908 74.02851455 17.28394803 73.28862775 22.5625 72.75 C24.99068186 66.54403177 26.05261461 61.15241278 25.9375 54.5 C25.92952393 53.65099121 25.92154785 52.80198242 25.91333008 51.92724609 C25.77087756 45.35519639 25.14151433 38.88523461 24.25 32.375 C24.13253418 31.50198242 24.01506836 30.62896484 23.89404297 29.72949219 C23.16184355 24.93606406 22.23288834 20.89957404 19.5625 16.75 C16.3320146 15.37371701 16.3320146 15.37371701 12.5625 14.75 C11.38042969 14.41742188 10.19835937 14.08484375 8.98046875 13.7421875 C4.03778334 12.49350908 -0.86019015 12.30211546 -5.9375 12.125 C-6.8553125 12.08632813 -7.773125 12.04765625 -8.71875 12.0078125 C-10.95814528 11.91450436 -13.19755254 11.82871815 -15.4375 11.75 C-16.10726214 15.12999084 -16.10726214 15.12999084 -16.4375 18.75 C-14.59199966 21.34855425 -14.59199966 21.34855425 -12.4375 23.75 C-11.6875 27.0625 -11.6875 27.0625 -11.4375 29.75 C-16.38566714 32.55396138 -21.05432285 31.52350507 -26.4375 30.75 C-26.581875 31.86375 -26.72625 32.9775 -26.875 34.125 C-27.4375 37.75 -27.4375 37.75 -28.4375 39.75 C-29.53912126 46.22202492 -26.92296946 49.87512766 -23.30078125 55.15234375 C-22.68589844 56.00957031 -22.07101563 56.86679688 -21.4375 57.75 C-20.99792969 58.41128906 -20.55835937 59.07257813 -20.10546875 59.75390625 C-17.79564447 62.95984965 -16.53905747 63.72669173 -12.625 64.625 C-11.0471875 64.686875 -11.0471875 64.686875 -9.4375 64.75 C-9.18681245 69.01168837 -9.06213705 72.69015168 -10.5 76.75 C-12.4375 78.75 -12.4375 78.75 -15.75 79.875 C-20.59528207 79.71075315 -22.06144527 78.12605473 -25.4375 74.75 C-26.5203125 73.698125 -26.5203125 73.698125 -27.625 72.625 C-28.223125 72.00625 -28.82125 71.3875 -29.4375 70.75 C-29.87707031 70.358125 -30.31664062 69.96625 -30.76953125 69.5625 C-33.20271881 66.91847418 -35.02907191 63.90455086 -36.9375 60.875 C-37.32808594 60.26269531 -37.71867187 59.65039062 -38.12109375 59.01953125 C-38.88472569 57.81880359 -39.64318054 56.61476513 -40.39599609 55.40722656 C-41.30457601 53.96150681 -42.24717884 52.53728103 -43.1953125 51.1171875 C-45.29501173 47.11587387 -44.99067141 43.15353555 -44.4375 38.75 C-43.0625 35.9375 -43.0625 35.9375 -41.4375 33.75 C-41.14875 32.96625 -40.86 32.1825 -40.5625 31.375 C-38.55740372 26.696442 -36.23213173 22.66725622 -31.625 20.3125 C-30.903125 20.126875 -30.18125 19.94125 -29.4375 19.75 C-29.499375 18.76 -29.56125 17.77 -29.625 16.75 C-29.61399039 11.32226441 -27.75132961 6.88497312 -24.9375 2.3125 C-18.21735524 -1.88759047 -7.66429853 -0.35685418 0 0 Z M-25.4375 8.75 C-27.47880598 12.83261196 -26.44847258 17.45336653 -25.4375 21.75 C-26.984375 21.9975 -26.984375 21.9975 -28.5625 22.25 C-33.63101082 23.70694036 -35.87668241 27.35780983 -38.4375 31.75 C-41.10907014 36.95253133 -42.21391308 41.86489669 -41.4375 47.75 C-40.43582256 50.5755651 -39.04012292 53.05959794 -37.5 55.625 C-37.0975708 56.31682373 -36.6951416 57.00864746 -36.28051758 57.72143555 C-31.90868701 65.00725378 -26.60185923 72.01299041 -19.4375 76.75 C-16.85287838 77.16717279 -16.85287838 77.16717279 -14.4375 76.75 C-12.17436321 74.87052548 -12.17436321 74.87052548 -11.9375 71.875 C-12.185 70.328125 -12.185 70.328125 -12.4375 68.75 C-14.75524119 67.07001728 -14.75524119 67.07001728 -16.58984375 66.05859375 C-22.85607202 61.62056738 -28.87799932 52.99555168 -31.4375 45.75 C-32.07823874 39.90449117 -30.3134209 35.73317344 -26.7890625 31.16015625 C-24.32683289 28.59118258 -22.81011088 27.76461219 -19.25 27.625 C-18.321875 27.66625 -17.39375 27.7075 -16.4375 27.75 C-15.56313582 26.01424351 -15.56313582 26.01424351 -15.4375 23.75 C-16.0975 22.986875 -16.7575 22.22375 -17.4375 21.4375 C-19.4375 18.75 -19.4375 18.75 -19.3125 15.0625 C-18.4375 11.75 -18.4375 11.75 -16.4375 9.75 C-14.19775391 9.56713867 -14.19775391 9.56713867 -11.4140625 9.66796875 C-10.39803955 9.70374023 -9.3820166 9.73951172 -8.33520508 9.77636719 C-6.71521606 9.85612793 -6.71521606 9.85612793 -5.0625 9.9375 C-3.97155029 9.98938477 -2.88060059 10.04126953 -1.7565918 10.09472656 C15.86372004 11.0792633 15.86372004 11.0792633 22.21875 15.66796875 C25.58696702 20.09717413 26.08857852 24.38482555 26.875 29.8125 C27.03887207 30.87218994 27.20274414 31.93187988 27.37158203 33.02368164 C31.68051381 63.07162875 31.68051381 63.07162875 25.125 74.1875 C20.96600643 76.72347169 16.33924561 77.12408161 11.5625 77.75 C10.97179986 79.69603274 10.97179986 79.69603274 10.5625 81.75 C14.73818543 85.92568543 28.60136057 84.14322688 34.0625 84.3125 C36.0115625 84.37727539 36.0115625 84.37727539 38 84.44335938 C41.18740845 84.5488251 44.37488698 84.65094448 47.5625 84.75 C49.15724241 81.56051517 48.93941092 78.22042511 48.5625 74.75 C47.64583333 72.66666667 47.64583333 72.66666667 45.5625 71.75 C43.23974823 71.34952556 40.90510643 71.0102896 38.5625 70.75 C37.5625 69.75 37.5625 69.75 37.48071289 67.06054688 C37.4986792 65.87525391 37.51664551 64.68996094 37.53515625 63.46875 C37.55594238 61.5045813 37.55594238 61.5045813 37.57714844 59.50073242 C37.58548706 58.80595795 37.59382568 58.11118347 37.60241699 57.39535522 C38.96076306 32.29081328 38.96076306 32.29081328 30.0390625 9.921875 C20.03321841 1.50879793 1.91082515 2.49117274 -10.4375 2.1875 C-11.36264404 2.14834473 -12.28778809 2.10918945 -13.2409668 2.06884766 C-19.73997702 2.04354796 -21.96644964 3.21451444 -25.4375 8.75 Z " fill="#585657" transform="translate(55.4375,18.25)"/>
	

	

	<path d="M0 0 C1.14662109 0.00386719 2.29324219 0.00773437 3.47460938 0.01171875 C5.26801758 0.04845703 5.26801758 0.04845703 7.09765625 0.0859375 C8.25845703 0.08722656 9.41925781 0.08851562 10.61523438 0.08984375 C30.84958712 0.29252508 30.84958712 0.29252508 38.16015625 4.4609375 C36.53509995 4.31573285 34.91011508 4.16972881 33.28515625 4.0234375 C32.38023438 3.94222656 31.4753125 3.86101563 30.54296875 3.77734375 C28.67602936 3.6027224 26.80950537 3.42212234 24.94580078 3.21582031 C18.5558663 2.52261462 12.21120339 2.18210963 5.78515625 2.0859375 C4.81449219 2.04855469 3.84382813 2.01117187 2.84375 1.97265625 C-2.85724506 1.78814749 -2.85724506 1.78814749 -7.44140625 4.859375 C-9.5601938 8.80103005 -10.0245989 10.93443629 -9.83984375 15.4609375 C-9.50984375 16.4509375 -9.17984375 17.4409375 -8.83984375 18.4609375 C-10.71166613 20.64473028 -12.10283756 21.57844537 -14.77734375 22.7734375 C-20.14524339 25.73125975 -22.10450293 30.68579144 -24.32421875 36.140625 C-25.95812103 43.49318525 -24.6101808 48.14253305 -20.83984375 54.3984375 C-20.43483643 55.09283936 -20.0298291 55.78724121 -19.61254883 56.50268555 C-15.46416111 63.42474687 -10.64271367 69.94854999 -3.83984375 74.4609375 C-1.21359236 74.79519485 -1.21359236 74.79519485 1.16015625 74.4609375 C2.45936971 73.35839624 2.45936971 73.35839624 2.59765625 70.6484375 C2.45328125 69.5965625 2.30890625 68.5446875 2.16015625 67.4609375 C-0.15758494 65.78095478 -0.15758494 65.78095478 -1.9921875 64.76953125 C-8.24855122 60.3384914 -14.29871792 51.7031461 -16.83984375 44.4609375 C-17.40807266 38.35247675 -15.57873723 34.16470672 -11.83984375 29.4609375 C-10.87352533 32.06999723 -10.71255932 33.14696925 -11.77734375 35.7734375 C-13.23571525 39.46225954 -13.41693973 41.4853874 -12.83984375 45.4609375 C-10.81892896 49.36084891 -8.39706744 52.8958353 -5.83984375 56.4609375 C-5.40027344 57.12222656 -4.96070312 57.78351563 -4.5078125 58.46484375 C-2.19798822 61.67078715 -0.94140122 62.43762923 2.97265625 63.3359375 C4.02453125 63.3771875 5.07640625 63.4184375 6.16015625 63.4609375 C6.4108438 67.72262587 6.5355192 71.40108918 5.09765625 75.4609375 C3.16015625 77.4609375 3.16015625 77.4609375 -0.15234375 78.5859375 C-4.99762582 78.42169065 -6.46378902 76.83699223 -9.83984375 73.4609375 C-10.92265625 72.4090625 -10.92265625 72.4090625 -12.02734375 71.3359375 C-12.62546875 70.7171875 -13.22359375 70.0984375 -13.83984375 69.4609375 C-14.27941406 69.0690625 -14.71898437 68.6771875 -15.171875 68.2734375 C-17.60506256 65.62941168 -19.43141566 62.61548836 -21.33984375 59.5859375 C-21.73042969 58.97363281 -22.12101562 58.36132812 -22.5234375 57.73046875 C-23.28706944 56.52974109 -24.04552429 55.32570263 -24.79833984 54.11816406 C-25.70691976 52.67244431 -26.64952259 51.24821853 -27.59765625 49.828125 C-29.69735548 45.82681137 -29.39301516 41.86447305 -28.83984375 37.4609375 C-27.46484375 34.6484375 -27.46484375 34.6484375 -25.83984375 32.4609375 C-25.40671875 31.2234375 -25.40671875 31.2234375 -24.96484375 29.9609375 C-22.32702914 24.09912727 -17.27877801 21.34037328 -11.83984375 18.4609375 C-12.18015625 17.2234375 -12.18015625 17.2234375 -12.52734375 15.9609375 C-13.0023447 10.6409269 -11.50399633 6.50545417 -8.13720703 2.36914062 C-5.22889713 -0.04651827 -3.74236291 -0.02993186 0 0 Z " fill="#4D4B4C" transform="translate(39.83984375,19.5390625)"/>
	

	<path d="M0 0 C0.33 0.66 0.66 1.32 1 2 C0.690625 2.5775 0.38125 3.155 0.0625 3.75 C-1.28624463 6.60616511 -1.14182953 8.87975041 -1 12 C-0.01 12 0.98 12 2 12 C1.87625 10.63875 1.87625 10.63875 1.75 9.25 C2 6 2 6 3.5625 3.8203125 C10.18603078 -1.12610632 24.44146415 1.97725156 32.46069336 3.01074219 C38.44082464 3.91063946 44.42089965 5.18587372 48.62890625 9.77734375 C50.2391156 12.38762615 50.91560911 14.70571963 51.625 17.6875 C51.86476562 18.66074219 52.10453125 19.63398437 52.3515625 20.63671875 C53.97965487 29.08122192 54.18257683 37.41399944 54.1875 46 C54.19974609 47.1240625 54.21199219 48.248125 54.22460938 49.40625 C54.25228832 65.20170239 54.25228832 65.20170239 49.9375 70.5625 C45.90033081 72.53813599 42.41376787 72.34617787 38 72 C38 71.67 38 71.34 38 71 C39.03060547 70.88785156 39.03060547 70.88785156 40.08203125 70.7734375 C45.92013551 70.07092831 45.92013551 70.07092831 50.0625 66.25 C53.98253499 52.66054538 52.45595201 37.83389066 50.3125 24.0625 C50.16401611 23.03850098 50.01553223 22.01450195 49.86254883 20.95947266 C48.87878784 15.19737532 47.96892233 11.58785421 43 8 C35.57092737 4.36857724 26.46184713 4.5721045 18.375 4.1875 C16.75501099 4.10773926 16.75501099 4.10773926 15.10229492 4.02636719 C14.08627197 3.9905957 13.07024902 3.95482422 12.0234375 3.91796875 C11.10481934 3.88469482 10.18620117 3.8514209 9.23974609 3.81713867 C6.79499367 3.77352473 6.79499367 3.77352473 5 6 C3.9872962 9.33635192 3.9872962 9.33635192 4 13 C5.93897879 15.67398476 5.93897879 15.67398476 8 18 C7.75 20.3125 7.75 20.3125 7 22 C6.113125 21.9175 5.22625 21.835 4.3125 21.75 C0.20114206 22.06029117 -1.11480073 23.11480073 -4 26 C-7.33521985 30.16902481 -8.56544087 34.7225519 -8 40 C-6.34127082 44.20750817 -4.27807602 48.09755673 -2 52 C-2.66 52 -3.32 52 -4 52 C-8.38223805 45.432994 -10.97477389 40.42031815 -9.6796875 32.4453125 C-8.13388127 26.88396366 -4.86249944 23.0101187 0 20 C3.3125 19.75 3.3125 19.75 6 20 C6 19.01 6 18.02 6 17 C3.64632287 16.3121764 3.64632287 16.3121764 1 16 C0.01 16.66 -0.98 17.32 -2 18 C-4.6875 18.125 -4.6875 18.125 -7 18 C-4 16 -4 16 -2 16 C-2.10699219 15.26394531 -2.21398437 14.52789062 -2.32421875 13.76953125 C-3.31560892 5.69982847 -3.31560892 5.69982847 -1.5625 1.8125 C-1.046875 1.214375 -0.53125 0.61625 0 0 Z " fill="#BBBABB" transform="translate(32,24)"/>
	

	<path d="M0 0 C1.07894531 0.04640625 2.15789062 0.0928125 3.26953125 0.140625 C6.14671875 0.264375 6.14671875 0.264375 9.08203125 0.390625 C9.08203125 4.350625 9.08203125 8.310625 9.08203125 12.390625 C4.66180152 14.60073986 3.67739389 14.60980284 -0.91796875 13.390625 C-3.79296875 12.203125 -3.79296875 12.203125 -5.91796875 10.390625 C-6.4828654 7.07185718 -6.34362124 5.19980055 -4.7734375 2.21484375 C-2.91796875 0.390625 -2.91796875 0.390625 0 0 Z " fill="#BBBABB" transform="translate(118.91796875,-0.390625)"/>
	

	

	<path d="M0 0 C1.14662109 0.00386719 2.29324219 0.00773437 3.47460938 0.01171875 C5.26801758 0.04845703 5.26801758 0.04845703 7.09765625 0.0859375 C8.25845703 0.08722656 9.41925781 0.08851562 10.61523438 0.08984375 C30.84958712 0.29252508 30.84958712 0.29252508 38.16015625 4.4609375 C36.53509995 4.31573285 34.91011508 4.16972881 33.28515625 4.0234375 C32.38023438 3.94222656 31.4753125 3.86101563 30.54296875 3.77734375 C28.67602936 3.6027224 26.80950537 3.42212234 24.94580078 3.21582031 C18.5558663 2.52261462 12.21120339 2.18210963 5.78515625 2.0859375 C4.81449219 2.04855469 3.84382813 2.01117187 2.84375 1.97265625 C-2.85724506 1.78814749 -2.85724506 1.78814749 -7.44140625 4.859375 C-9.5601938 8.80103005 -10.0245989 10.93443629 -9.83984375 15.4609375 C-9.50984375 16.4509375 -9.17984375 17.4409375 -8.83984375 18.4609375 C-10.71166613 20.64473028 -12.10283756 21.57844537 -14.77734375 22.7734375 C-20.11689112 25.71563707 -22.38239982 30.80081 -24.29296875 36.39453125 C-25.89348493 42.44219596 -25.32270872 46.03411827 -22.27734375 51.3359375 C-21.80167969 52.07585937 -21.32601563 52.81578125 -20.8359375 53.578125 C-20.50722656 54.19945312 -20.17851562 54.82078125 -19.83984375 55.4609375 C-20.16984375 56.1209375 -20.49984375 56.7809375 -20.83984375 57.4609375 C-28.48724597 45.69794859 -28.48724597 45.69794859 -26.83984375 37.4609375 C-26.71480469 36.71070313 -26.58976562 35.96046875 -26.4609375 35.1875 C-25.5589698 30.29574722 -24.60664688 26.93798655 -20.83984375 23.4609375 C-17.91442248 21.63697018 -14.91988903 20.00754143 -11.83984375 18.4609375 C-12.18015625 17.2234375 -12.18015625 17.2234375 -12.52734375 15.9609375 C-13.0023447 10.6409269 -11.50399633 6.50545417 -8.13720703 2.36914062 C-5.22889713 -0.04651827 -3.74236291 -0.02993186 0 0 Z " fill="#7C7A7B" transform="translate(39.83984375,19.5390625)"/>
	

	<path d="M0 0 C0.91861816 0.03327393 1.83723633 0.06654785 2.78369141 0.10083008 C4.30833008 0.15509155 4.30833008 0.15509155 5.86376953 0.21044922 C6.94335938 0.26322021 8.02294922 0.31599121 9.13525391 0.37036133 C10.76624023 0.44275024 10.76624023 0.44275024 12.43017578 0.51660156 C19.85468694 0.91307224 26.70482652 1.7227452 33.76025391 4.18286133 C29.98675353 5.36834154 27.47368941 4.67067645 23.66259766 3.72583008 C19.31170081 2.91186687 14.93394524 2.72993589 10.52099609 2.52514648 C6.531075 2.3324014 2.68632865 1.92167166 -1.23974609 1.18286133 C-1.84387616 4.19694502 -2.29176367 7.10342104 -2.23974609 10.18286133 C-0.43479097 12.89749205 -0.43479097 12.89749205 1.76025391 15.18286133 C2.51025391 18.49536133 2.51025391 18.49536133 2.76025391 21.18286133 C-2.18791323 23.98682271 -6.85656895 22.95636639 -12.23974609 22.18286133 C-10.61474609 20.18286133 -10.61474609 20.18286133 -8.23974609 18.18286133 C-4.98974609 17.93286133 -4.98974609 17.93286133 -2.23974609 18.18286133 C-2.23974609 16.53286133 -2.23974609 14.88286133 -2.23974609 13.18286133 C-3.22974609 12.85286133 -4.21974609 12.52286133 -5.23974609 12.18286133 C-6.56894507 9.42221729 -6.20574108 8.05207282 -5.42724609 5.05786133 C-3.4546279 0.28204887 -3.4546279 0.28204887 0 0 Z " fill="#5E5C5D" transform="translate(41.23974609375,26.817138671875)"/>
	

	<path d="M0 0 C3 1 3 1 4.09765625 2.6875 C10.16893744 17.23891079 9.20022208 33.28872777 9.01464844 48.75073242 C9.00079102 50.06017822 8.98693359 51.36962402 8.97265625 52.71875 C8.95468994 53.90404297 8.93672363 55.08933594 8.91821289 56.31054688 C8.69006285 58.91849173 8.69006285 58.91849173 10 60 C11.51165654 60.39148761 13.03469632 60.73972457 14.5625 61.0625 C15.38878906 61.23910156 16.21507813 61.41570312 17.06640625 61.59765625 C17.70449219 61.73042969 18.34257813 61.86320312 19 62 C18.67 62.66 18.34 63.32 18 64 C16.54054712 63.91291331 15.08234132 63.80473093 13.625 63.6875 C12.40683594 63.60048828 12.40683594 63.60048828 11.1640625 63.51171875 C9 63 9 63 7 60 C6.7818869 56.99055858 6.67487805 54.06613897 6.65625 51.0546875 C6.6416272 50.17023956 6.62700439 49.28579163 6.61193848 48.37454224 C6.56541851 45.54140773 6.53126777 42.70834139 6.5 39.875 C6.45858051 36.16381402 6.40470779 32.4530982 6.34375 28.7421875 C6.3384729 27.90122528 6.3331958 27.06026306 6.32775879 26.19381714 C6.20109057 18.54056493 4.86280565 11.50864004 1.875 4.4375 C1.52179688 3.59058594 1.16859375 2.74367188 0.8046875 1.87109375 C0.53914063 1.25363281 0.27359375 0.63617187 0 0 Z " fill="#BBBABB" transform="translate(84,29)"/>
	

	<path d="M0 0 C0.96631842 2.60905973 1.12728443 3.68603175 0.0625 6.3125 C-1.3958715 10.00132204 -1.57709598 12.0244499 -1 16 C1.72540399 21.25941725 5.09675105 26.05955296 8.9375 30.5625 C11 33 11 33 11 35 C4.18686501 32.728955 -0.97108824 23.43661843 -4.21875 17.2265625 C-5.59288735 13.31027105 -5.24536495 9.91191109 -4 6 C-2.83852542 3.74209341 -1.59181937 2.00261146 0 0 Z " fill="#5B595A" transform="translate(28,49)"/>
	

	<path d="M0 0 C1.98 0 3.96 0 6 0 C5.67 0.53625 5.34 1.0725 5 1.625 C3.77300796 4.5391061 3.85766714 6.86867708 4 10 C9.23420787 13.27137992 12.16605611 13.10643764 18 12 C18 13.65 18 15.3 18 17 C11.09030616 17.62815399 6.64162976 16.07382455 1 12 C-0.26237731 9.47524538 -0.09856404 7.68799534 -0.0625 4.875 C-0.05347656 3.96492187 -0.04445313 3.05484375 -0.03515625 2.1171875 C-0.02355469 1.41851562 -0.01195313 0.71984375 0 0 Z " fill="#4F4D4E" transform="translate(110,0)"/>
	

	<path d="M0 0 C0 4.29 0 8.58 0 13 C-3.63 13 -7.26 13 -11 13 C-3.8627451 0 -3.8627451 0 0 0 Z " fill="#F3F2F3" transform="translate(128,115)"/>
	

	<path d="M0 0 C0.33 0 0.66 0 1 0 C1.125 7.75 1.125 7.75 0 10 C-4.50020684 9.86015544 -9.00010606 9.71205005 -13.5 9.5625 C-14.7684375 9.52318359 -16.036875 9.48386719 -17.34375 9.44335938 C-23.62282914 9.23078638 -29.78483581 8.93384411 -36 8 C-36.33 6.68 -36.66 5.36 -37 4 C-35.68 3.67 -34.36 3.34 -33 3 C-33.99 3.495 -33.99 3.495 -35 4 C-34.67 4.66 -34.34 5.32 -34 6 C-33.14245117 6.01981934 -32.28490234 6.03963867 -31.40136719 6.06005859 C-28.21052358 6.13829521 -25.0200526 6.22499343 -21.82958984 6.31738281 C-20.45044757 6.35559338 -19.07120833 6.39046002 -17.69189453 6.421875 C-15.70583033 6.46769624 -13.72008321 6.52666263 -11.734375 6.5859375 C-9.94338379 6.63306885 -9.94338379 6.63306885 -8.11621094 6.68115234 C-5 7 -5 7 -1 9 C-0.67 6.03 -0.34 3.06 0 0 Z " fill="#BBBABB" transform="translate(103,93)"/>
	

	<path d="M0 0 C3.125 0.3125 3.125 0.3125 5 2.125 C6.125 4.3125 6.125 4.3125 6.125 7.3125 C2.4233569 8.25943195 0.73387535 8.61693767 -2.75 6.875 C-3.45125 6.359375 -4.1525 5.84375 -4.875 5.3125 C-3.76788282 0.40955248 -3.76788282 0.40955248 0 0 Z " fill="#F3F2F3" transform="translate(118.875,3.6875)"/>
	

	<path d="M0 0 C0.33 0.99 0.66 1.98 1 3 C0.34 3.66 -0.32 4.32 -1 5 C-3.83034937 12.86208159 -3.5994923 19.20152311 -1 27 C-0.34 27 0.32 27 1 27 C2.72264494 30.29549466 4.29445932 33.33118845 5 37 C-0.58179172 31.91217214 -6.29040525 23.57967331 -6.6875 15.8125 C-5.67087459 10.17485001 -4.13737153 4.13737153 0 0 Z " fill="#BBBABB" transform="translate(20,46)"/>
	

	<path d="M0 0 C0.99 0 1.98 0 3 0 C2.52333004 4.29002964 -0.01329938 6.08117894 -3 9 C-4.28519144 10.8525282 -5.50863781 12.72509042 -6.69140625 14.64453125 C-7.12324219 15.09183594 -7.55507812 15.53914063 -8 16 C-9.32 16 -10.64 16 -12 16 C-11.8125 14.125 -11.8125 14.125 -11 12 C-9.33927151 11.31867549 -7.672233 10.65257873 -6 10 C-4.85790183 8.21771064 -4.85790183 8.21771064 -4 6 C-2.0625 2.75 -2.0625 2.75 0 0 Z " fill="#585657" transform="translate(125,112)"/>
	

	

	

	

	<path d="M0 0 C2.31 0 4.62 0 7 0 C7 2.31 7 4.62 7 7 C3.17053157 5.54744301 1.87949705 3.57104439 0 0 Z " fill="#636162" transform="translate(121,0)"/>
	

	

	

	

</svg>
