<?xml version="1.0" encoding="iso-8859-1"?>
<svg height="128" version="1.1" width="128" xmlns="http://www.w3.org/2000/svg">
	

	<path d="M0 0 C42.24 0 84.48 0 128 0 C128 42.24 128 84.48 128 128 C85.76 128 43.52 128 0 128 C0 85.76 0 43.52 0 0 Z " fill="#FCFBFB" transform="translate(0,0)"/>
	

	<path d="M0 0 C1.06863281 0.01023193 2.13726562 0.02046387 3.23828125 0.03100586 C6.3685539 0.0765534 9.49578328 0.15808176 12.625 0.25 C14.19701172 0.27126953 14.19701172 0.27126953 15.80078125 0.29296875 C16.80753906 0.32519531 17.81429687 0.35742188 18.8515625 0.390625 C19.74697754 0.41157227 20.64239258 0.43251953 21.56494141 0.45410156 C24.7479765 1.16768352 25.99872306 2.47196389 28 5 C27.98046875 7.50390625 27.98046875 7.50390625 27.1875 10.5625 C26.87941406 11.79355469 26.57132812 13.02460938 26.25390625 14.29296875 C26.06070801 15.01532715 25.86750977 15.73768555 25.66845703 16.48193359 C24.88439299 19.43548966 24.14359903 22.39869539 23.40234375 25.36328125 C20.5706274 36.59116326 17.62814553 47.75313658 14.04296875 58.765625 C13.52669922 60.36664063 13.52669922 60.36664063 13 62 C12.33484375 63.80984375 12.33484375 63.80984375 11.65625 65.65625 C10.63739113 68.94037188 10.63739113 68.94037188 12.30078125 71.328125 C12.96464844 71.96234375 13.62851563 72.5965625 14.3125 73.25 C17.93670886 76.81012658 17.93670886 76.81012658 19 80 C20.485 80.495 20.485 80.495 22 81 C23.875 83.046875 23.875 83.046875 26 85.75 C26.78503906 86.73484375 27.57007812 87.7196875 28.37890625 88.734375 C28.79930176 89.26224609 29.21969727 89.79011719 29.65283203 90.33398438 C32.48697122 93.83890751 35.43660996 97.24827908 38.36914062 100.67089844 C40.39794967 103.05158366 42.26209839 105.39314759 44 108 C45.485 108.495 45.485 108.495 47 109 C47 112.3 47 115.6 47 119 C41.04296875 119.48828125 41.04296875 119.48828125 39 119 C37.50390625 116.78125 37.50390625 116.78125 36 114 C34.62177392 112.36268879 33.2024731 110.75931966 31.75 109.1875 C28.95418559 106.13916042 26.18974738 103.07972825 23.5 99.9375 C20.24365241 96.19119271 16.74430949 92.72942031 13.21484375 89.2421875 C9.12393235 85.10077102 5.23167392 80.84751087 2 76 C-0.90140908 75.5277103 -0.90140908 75.5277103 -4.36157227 75.58349609 C-5.01374725 75.57491074 -5.66592224 75.56632538 -6.33786011 75.55747986 C-8.49748421 75.53234822 -10.65664911 75.5280352 -12.81640625 75.5234375 C-14.31332311 75.50913494 -15.81022673 75.49337927 -17.30711365 75.47622681 C-21.25061414 75.43430812 -25.19403264 75.40935376 -29.13769531 75.38873291 C-35.45420306 75.35295929 -41.7705086 75.29207553 -48.08680534 75.23024368 C-50.29880087 75.21108995 -52.51074236 75.19940513 -54.72279358 75.18881226 C-56.07113768 75.17860482 -57.41948066 75.16824729 -58.76782227 75.15771484 C-60.54081444 75.14797134 -60.54081444 75.14797134 -62.34962463 75.13803101 C-65 75 -65 75 -66 74 C-66.09823937 72.33570949 -66.12973631 70.66718069 -66.125 69 C-66.12886719 67.63875 -66.12886719 67.63875 -66.1328125 66.25 C-66 64 -66 64 -65 63 C-63.58774954 62.9071274 -62.17091066 62.88253228 -60.75561523 62.88647461 C-59.85475693 62.88655014 -58.95389862 62.88662567 -58.02574158 62.88670349 C-57.04658279 62.89186478 -56.06742401 62.89702606 -55.05859375 62.90234375 C-54.06118668 62.9037587 -53.0637796 62.90517365 -52.03614807 62.90663147 C-48.83656876 62.91224886 -45.63705831 62.92480429 -42.4375 62.9375 C-40.27408955 62.94251276 -38.11067801 62.94707605 -35.94726562 62.95117188 C-30.63148675 62.96222393 -25.31574829 62.97897896 -20 63 C-21.48217673 59.86926335 -22.8051941 58.07281301 -25.5 55.875 C-31.5569491 50.74736619 -37.01320157 45.03205295 -42.578125 39.3828125 C-47.54819709 34.36700355 -52.60203675 29.55315849 -58 25 C-58.54164795 24.54149658 -59.0832959 24.08299316 -59.64135742 23.6105957 C-61.97244169 21.65348611 -64.22321288 19.86111199 -66.8125 18.25 C-69.65333916 15.327994 -69.90150779 13.17830459 -70.14453125 9.19140625 C-69.94272409 6.13157333 -68.96067993 4.32376881 -67 2 C-64.58992459 0.7949623 -63.00649889 0.84339073 -60.31347656 0.79467773 C-58.84989716 0.7647599 -58.84989716 0.7647599 -57.35675049 0.73423767 C-56.29542908 0.71752518 -55.23410767 0.70081268 -54.140625 0.68359375 C-53.04466003 0.66281265 -51.94869507 0.64203156 -50.81951904 0.62062073 C-48.48925753 0.57728822 -46.15895233 0.53625493 -43.82861328 0.49731445 C-40.30621354 0.43843958 -36.78398034 0.37322449 -33.26171875 0.30664062 C-10.87119227 -0.10569215 -10.87119227 -0.10569215 0 0 Z " fill="#801268" transform="translate(81,9)"/>
	

	<path d="M0 0 C0.65217499 0.00800125 1.30434998 0.0160025 1.97628784 0.02424622 C4.13590932 0.05216846 6.29533158 0.087627 8.45483398 0.12353516 C9.951732 0.14529721 11.44863459 0.16674704 12.94554138 0.18789673 C16.08370985 0.23341777 19.22179279 0.28264644 22.35986328 0.33447266 C26.39075294 0.40075813 30.42171083 0.45800095 34.452775 0.51250267 C37.54365354 0.55525699 40.63444614 0.60270391 43.72523308 0.65159988 C45.212034 0.67456291 46.69885821 0.69606432 48.18570137 0.71610641 C50.25932732 0.74477651 52.33275241 0.77972636 54.40625 0.81640625 C55.58824478 0.83496674 56.77023956 0.85352722 57.98805237 0.87265015 C60.63842773 1.03759766 60.63842773 1.03759766 61.63842773 2.03759766 C61.58867922 7.60943117 60.25664248 12.66531169 58.38452148 17.86962891 C57.51641187 20.27232423 57.51641187 20.27232423 56.76342773 23.78759766 C55.8951737 27.48135635 54.54829564 30.89205032 53.13842773 34.41259766 C51.19246219 39.32329894 49.83809799 43.9996421 48.99780273 49.20947266 C48.63842773 51.03759766 48.63842773 51.03759766 47.63842773 52.03759766 C44.83166448 52.32761912 43.20333169 52.40032782 40.79589844 50.85449219 C40.22444092 50.29874512 39.6529834 49.74299805 39.06420898 49.17041016 C38.40565918 48.54078369 37.74710938 47.91115723 37.06860352 47.26245117 C36.36977051 46.56949951 35.6709375 45.87654785 34.95092773 45.16259766 C34.21342285 44.45095459 33.47591797 43.73931152 32.71606445 43.00610352 C26.37874484 36.86052022 20.18808263 30.56585281 13.97875977 24.29150391 C7.67915767 17.97111104 1.14116674 12.22415142 -6.15454102 7.06103516 C-6.88286133 6.39330078 -7.61118164 5.72556641 -8.36157227 5.03759766 C-8.36157227 3.71759766 -8.36157227 2.39759766 -8.36157227 1.03759766 C-5.52167102 -0.38235297 -3.17441177 -0.04554276 0 0 Z " fill="#FCFBFB" transform="translate(35.361572265625,18.96240234375)"/>
	

	<path d="M0 0 C0.87983551 -0.0065712 1.75967102 -0.0131424 2.66616821 -0.01991272 C5.58563313 -0.03966684 8.50504658 -0.05131279 11.42456055 -0.0612793 C12.42044882 -0.06535482 13.41633709 -0.06943035 14.44240379 -0.07362938 C19.71306527 -0.09449878 24.98370065 -0.10879694 30.25439453 -0.11816406 C35.70210271 -0.12923251 41.14940288 -0.16363507 46.59696674 -0.20333576 C50.7825548 -0.22946398 54.96804507 -0.23785251 59.1537075 -0.24144554 C61.16197657 -0.24632104 63.17024099 -0.25796231 65.17843056 -0.27648354 C67.98907553 -0.30079499 70.79865738 -0.29992463 73.609375 -0.29296875 C74.43917374 -0.30577881 75.26897247 -0.31858887 76.12391663 -0.33178711 C80.11962779 -0.29573861 82.04186966 -0.11299754 85.5005188 2.0821991 C87.58132903 4.26353992 88.2945077 5.2062373 88.4987793 8.17700195 C88.24853516 10.2097168 88.24853516 10.2097168 87.71362305 12.38793945 C87.51575195 13.20955566 87.31788086 14.03117187 87.11401367 14.87768555 C86.89036133 15.76020996 86.66670898 16.64273437 86.4362793 17.55200195 C86.20875977 18.4744873 85.98124023 19.39697266 85.74682617 20.34741211 C74.93271387 63.74306738 74.93271387 63.74306738 71.4987793 67.17700195 C70.91349152 70.00681787 70.91349152 70.00681787 71.4987793 73.17700195 C73.32706453 75.13854413 75.33984952 76.55780462 77.4987793 78.17700195 C77.4987793 78.83700195 77.4987793 79.49700195 77.4987793 80.17700195 C79.4787793 81.16700195 79.4787793 81.16700195 81.4987793 82.17700195 C81.4987793 83.16700195 81.4987793 84.15700195 81.4987793 85.17700195 C82.4887793 85.17700195 83.4787793 85.17700195 84.4987793 85.17700195 C84.8700293 86.06387695 85.2412793 86.95075195 85.6237793 87.86450195 C87.75858077 91.63598455 90.12854264 93.49456869 93.4987793 96.17700195 C97.4987793 100.59805458 97.4987793 100.59805458 97.4987793 104.17700195 C98.0969043 104.46575195 98.6950293 104.75450195 99.3112793 105.05200195 C101.4987793 106.17700195 101.4987793 106.17700195 104.4987793 108.17700195 C104.4987793 109.16700195 104.4987793 110.15700195 104.4987793 111.17700195 C101.84086666 110.81640987 100.69570563 110.38260949 98.81518555 108.41918945 C98.23639648 107.63801758 97.65760742 106.8568457 97.0612793 106.05200195 C93.50048078 101.4109612 89.78188375 96.9600569 85.9362793 92.55200195 C85.37175049 91.90352295 84.80722168 91.25504395 84.22558594 90.58691406 C81.32310915 87.25711521 78.41160443 83.93525008 75.4987793 80.61450195 C74.98573242 80.01379883 74.47268555 79.4130957 73.9440918 78.79418945 C72.51995803 77.145985 72.51995803 77.145985 70.8659668 75.68481445 C69.3737793 74.23950195 69.3737793 74.23950195 67.4987793 71.17700195 C68.11456967 69.12147635 68.75536858 67.07137475 69.49243164 65.05615234 C70.67583795 61.67043895 71.64260386 58.24089092 72.5847168 54.7824707 C72.76844849 54.1113324 72.95218018 53.44019409 73.14147949 52.74871826 C73.72183636 50.6214282 74.29833925 48.49312698 74.8737793 46.36450195 C75.07098572 45.63655426 75.26819214 44.90860657 75.47137451 44.15859985 C76.64629364 39.81841353 77.81399855 35.47634106 78.97558594 31.13256836 C79.455246 29.33971856 79.93687543 27.54739595 80.41870117 25.75512695 C81.16554813 22.9611671 81.89851498 20.16412925 82.6237793 17.36450195 C82.83566895 16.57261475 83.04755859 15.78072754 83.26586914 14.96484375 C84.1838406 11.34359624 84.78706066 8.72283856 83.4987793 5.17700195 C79.83764448 3.34643454 75.52371562 3.75837469 71.48706055 3.5949707 C70.4333577 3.55220505 69.37965485 3.50943939 68.29402161 3.46537781 C54.88922924 2.99619894 41.4894643 3.19490335 28.08203125 3.41894531 C24.3636261 3.48077005 20.64519226 3.52710778 16.92652416 3.56977558 C14.03113596 3.60501676 11.1359378 3.64923627 8.24071693 3.69612694 C6.86723423 3.71709125 5.49370152 3.73501727 4.12013817 3.74978065 C2.22172789 3.77129164 0.32348699 3.80645544 -1.57470703 3.84228516 C-2.6503743 3.85862503 -3.72604156 3.8749649 -4.83430481 3.89179993 C-7.72679547 3.9929387 -7.72679547 3.9929387 -10.5012207 6.17700195 C-11.32123075 10.02474141 -11.70717699 12.94126422 -11.0637207 16.80200195 C-8.61902056 20.51794617 -5.0997537 22.64121328 -1.5012207 25.17700195 C3.39014657 29.00157451 8.03840948 32.98644723 11.4987793 38.17700195 C6.20549377 35.628383 1.85978933 32.76638418 -2.4387207 28.73950195 C-5.18797069 26.2033086 -7.78737595 23.8458331 -11.0012207 21.92700195 C-14.0335306 19.80438502 -14.77658932 18.80015888 -15.5012207 15.17700195 C-15.56080921 10.50356075 -15.12612389 7.14459399 -12.5637207 3.17700195 C-8.73109982 -0.53947891 -5.07233521 0.01631713 0 0 Z " fill="#C797BD" transform="translate(23.501220703125,6.822998046875)"/>
	

	

	

	

	

	

	

	

	

	

	

	

	

	

	

	

	

	

	

	

	

	

</svg>
