<?xml version="1.0" encoding="iso-8859-1"?>
<svg height="128" version="1.1" width="128" xmlns="http://www.w3.org/2000/svg">
	

	<path d="M0 0 C42.24 0 84.48 0 128 0 C128 42.24 128 84.48 128 128 C85.76 128 43.52 128 0 128 C0 85.76 0 43.52 0 0 Z " fill="#40413F" transform="translate(0,0)"/>
	

	<path d="M0 0 C7.03795615 5.40634977 13.71168183 11.54654055 17 20 C16.67 20.99 16.34 21.98 16 23 C15.32195312 22.77699219 14.64390625 22.55398437 13.9453125 22.32421875 C10.60927635 21.57106931 8.37475678 21.33185774 5 22 C0.8509625 25.80376392 -2.08825076 30.21184809 -5 35 C-5.38687988 35.60199219 -5.77375977 36.20398438 -6.17236328 36.82421875 C-8.349628 40.34758526 -9.50472586 42.83601163 -9 47 C-1.99822721 49.41492814 4.60860415 50.59248958 12 51 C12 55.88752419 10.97485663 57.18608124 8 61 C-1.86921986 70.86921986 -12.83683154 74.27104795 -26.5625 74.375 C-43.0489541 74.21824512 -54.4657997 67.66612743 -66 56 C-72.74765101 48.70555658 -78.13837585 41.17916563 -78.3125 30.9375 C-78.23014655 29.2904311 -78.12648223 27.64426893 -78 26 C-77.979375 25.236875 -77.95875 24.47375 -77.9375 23.6875 C-77.34176341 12.96424136 -70.45020239 5.19329886 -63 -2 C-45.0951815 -17.41174251 -17.96688572 -12.63180988 0 0 Z " fill="#DE7641" transform="translate(86,33)"/>
	

	<path d="M0 0 C7.03795615 5.40634977 13.71168183 11.54654055 17 20 C16.67 20.99 16.34 21.98 16 23 C12.37 22.34 8.74 21.68 5 21 C5 20.34 5 19.68 5 19 C4.319375 18.938125 3.63875 18.87625 2.9375 18.8125 C-3.28225758 17.09214152 -7.58670809 12.5159266 -12 8 C-13.65335334 6.42341928 -15.32139739 4.86217006 -17 3.3125 C-17.825 2.54550781 -18.65 1.77851562 -19.5 0.98828125 C-21.95375845 -0.96322351 -24.04369301 -2.01280463 -27 -3 C-27 -3.66 -27 -4.32 -27 -5 C-35.25013715 -5.34914374 -42.29637893 -5.08889154 -50 -2 C-50.91394531 -1.64808594 -51.82789062 -1.29617187 -52.76953125 -0.93359375 C-58.38992306 1.46257889 -58.38992306 1.46257889 -61.5625 6.5 C-61.706875 7.655 -61.85125 8.81 -62 10 C-62.20625 10.969375 -62.4125 11.93875 -62.625 12.9375 C-62.74875 13.618125 -62.8725 14.29875 -63 15 C-56.88586586 16.63043577 -50.45671021 16.36850653 -44.25 15.4375 C-40.88475525 14.98448628 -38.29927139 15.2757697 -35 16 C-34.505 17.485 -34.505 17.485 -34 19 C-34.66 19.66 -35.32 20.32 -36 21 C-39.31168412 20.89288353 -42.54596271 20.47993214 -45.8359375 20.09375 C-49.08742725 19.99740956 -50.25995418 20.44205359 -53 22 C-55.00451121 21.69496569 -57.00448218 21.35919321 -59 21 C-62.01349195 21.3355782 -62.01349195 21.3355782 -65 22 C-67 22.33333333 -69 22.66666667 -71 23 C-71.33 23.99 -71.66 24.98 -72 26 C-70.68 26.33 -69.36 26.66 -68 27 C-68 27.66 -68 28.32 -68 29 C-66.35 29.33 -64.7 29.66 -63 30 C-63.1875 32.875 -63.1875 32.875 -64 36 C-66.5625 37.375 -66.5625 37.375 -69 38 C-69 39.65 -69 41.3 -69 43 C-66.03 43.33 -63.06 43.66 -60 44 C-59 48 -59 48 -59.5625 50.5 C-60.07633714 53.43621224 -59.5578838 54.52571396 -58 57 C-55.69 57 -53.38 57 -51 57 C-51 58.32 -51 59.64 -51 61 C-49.02 61.33 -47.04 61.66 -45 62 C-44.63631108 60.39796533 -44.28438048 58.79325797 -43.9375 57.1875 C-43.74027344 56.29417969 -43.54304688 55.40085937 -43.33984375 54.48046875 C-42.79650537 51.87369221 -42.79650537 51.87369221 -44 49 C-42.125 47.9375 -42.125 47.9375 -40 47 C-39.01 47.495 -39.01 47.495 -38 48 C-37.94570041 49.74965358 -37.90707177 51.49979787 -37.875 53.25 C-37.85179687 54.22453125 -37.82859375 55.1990625 -37.8046875 56.203125 C-38.00137219 59.0196498 -38.55431084 60.60949036 -40 63 C-40.66 63 -41.32 63 -42 63 C-40.27336804 65.51146468 -38.85040984 66.8274752 -35.82421875 67.44140625 C-29.17481024 67.76198427 -24.15138969 66.25079708 -19 62 C-17.57732877 60.06690474 -16.16112118 58.12904261 -14.75 56.1875 C-12.05975501 52.98155309 -10.62063173 51.32412635 -6.50488281 50.50097656 C-0.32008628 50.03448339 5.83584734 50.39175143 12 51 C12 55.88752419 10.97485663 57.18608124 8 61 C-1.86921986 70.86921986 -12.83683154 74.27104795 -26.5625 74.375 C-43.0489541 74.21824512 -54.4657997 67.66612743 -66 56 C-72.74765101 48.70555658 -78.13837585 41.17916563 -78.3125 30.9375 C-78.23014655 29.2904311 -78.12648223 27.64426893 -78 26 C-77.979375 25.236875 -77.95875 24.47375 -77.9375 23.6875 C-77.34176341 12.96424136 -70.45020239 5.19329886 -63 -2 C-45.0951815 -17.41174251 -17.96688572 -12.63180988 0 0 Z " fill="#F0B22E" transform="translate(86,33)"/>
	

	<path d="M0 0 C2.8125 1.6875 2.8125 1.6875 3.8125 4.6875 C3.1525 5.3475 2.4925 6.0075 1.8125 6.6875 C2.1310177 8.79570797 2.1310177 8.79570797 2.8125 10.6875 C5.2875 11.1825 5.2875 11.1825 7.8125 11.6875 C7.8125 10.3675 7.8125 9.0475 7.8125 7.6875 C11.02188847 8.69616495 12.7504135 9.62373549 15.125 12.0625 C17.56872132 14.44939059 18.98583216 15.3490789 22 16.6875 C25.01775179 18.0741882 25.65345417 18.39591597 27.3125 21.4375 C27.56 22.55125 27.56 22.55125 27.8125 23.6875 C26.760625 24.3371875 26.760625 24.3371875 25.6875 25 C22.09901554 28.35445286 20.2760756 31.98647015 18.046875 36.32421875 C16.8125 38.6875 16.8125 38.6875 15.8125 39.6875 C15.64523455 41.33327259 15.47870388 42.97911987 15.3125 44.625 C14.07069087 51.78641054 10.22312584 56.04093627 4.8125 60.6875 C1.50759809 62.90603812 -1.07574029 63.80577231 -5.125 63.375 C-5.805625 63.148125 -6.48625 62.92125 -7.1875 62.6875 C-7.81578876 56.78158567 -6.38519395 53.66603914 -3.18359375 48.703125 C-1.83550105 46.57049252 -1.83550105 46.57049252 -3.1875 43.6875 C-5.69197516 42.46880071 -5.69197516 42.46880071 -8.1875 41.6875 C-6.74325365 38.44888697 -4.92977753 36.06780837 -2.5625 33.4375 C-1.93085937 32.73109375 -1.29921875 32.0246875 -0.6484375 31.296875 C-0.16632812 30.76578125 0.31578125 30.2346875 0.8125 29.6875 C0.10222656 29.49414062 -0.60804687 29.30078125 -1.33984375 29.1015625 C-2.25894531 28.84117188 -3.17804687 28.58078125 -4.125 28.3125 C-5.49978516 27.92964844 -5.49978516 27.92964844 -6.90234375 27.5390625 C-9.1875 26.6875 -9.1875 26.6875 -10.1875 24.6875 C-9.54941406 24.49414062 -8.91132812 24.30078125 -8.25390625 24.1015625 C-7.42761719 23.84117188 -6.60132813 23.58078125 -5.75 23.3125 C-4.92628906 23.05726562 -4.10257813 22.80203125 -3.25390625 22.5390625 C-1.00951984 21.87867773 -1.00951984 21.87867773 -0.1875 19.6875 C-1.05375 19.5946875 -1.05375 19.5946875 -1.9375 19.5 C-5.07440987 18.36722699 -6.27917504 16.34552405 -8.1875 13.6875 C-6.2075 12.6975 -4.2275 11.7075 -2.1875 10.6875 C-2.1875 9.3675 -2.1875 8.0475 -2.1875 6.6875 C-3.280625 6.77 -4.37375 6.8525 -5.5 6.9375 C-6.716875 6.855 -7.93375 6.7725 -9.1875 6.6875 C-9.661875 6.0275 -10.13625 5.3675 -10.625 4.6875 C-11.9706095 2.48562332 -11.9706095 2.48562332 -14.140625 2.421875 C-16.15814445 2.43598353 -18.17425498 2.55548393 -20.1875 2.6875 C-19.8575 1.6975 -19.5275 0.7075 -19.1875 -0.3125 C-13.24472886 -2.29342371 -5.86879668 -2.33043693 0 0 Z " fill="#E62936" transform="translate(59.1875,32.3125)"/>
	

	

	<path d="M0 0 C3 1 3 1 4.25 3.375 C4.49363281 3.90867187 4.73726563 4.44234375 4.98828125 4.9921875 C6.81884426 8.62504229 9.10158952 11.98321465 11.31640625 15.390625 C12.55529541 17.31075948 13.73307539 19.27066401 14.875 21.25 C20.51366506 28.54709595 29.13879051 33.16429446 37 37.75 C37.66 38.1625 38.32 38.575 39 39 C39 39.33 39 39.66 39 40 C26.13 40 13.26 40 0 40 C0 26.8 0 13.6 0 0 Z " fill="#787B77" transform="translate(0,88)"/>
	

	<path d="M0 0 C2.31 1.32 4.62 2.64 7 4 C6 7 6 7 4.15234375 7.94921875 C3.42144531 8.19285156 2.69054688 8.43648437 1.9375 8.6875 C0.83728516 9.06455078 0.83728516 9.06455078 -0.28515625 9.44921875 C-1.13400391 9.72185547 -1.13400391 9.72185547 -2 10 C-1.28972656 10.19335938 -0.57945313 10.38671875 0.15234375 10.5859375 C1.07144531 10.84632812 1.99054687 11.10671875 2.9375 11.375 C3.85402344 11.63023438 4.77054688 11.88546875 5.71484375 12.1484375 C8 13 8 13 9 15 C8.278125 15.70125 7.55625 16.4025 6.8125 17.125 C4.00176187 19.92770745 1.50483774 22.92262792 -1 26 C-0.21625 26.0825 0.5675 26.165 1.375 26.25 C4 27 4 27 5.3125 28.77734375 C6 31 6 31 5.1015625 33.11328125 C4.61429688 33.83902344 4.12703125 34.56476563 3.625 35.3125 C1.02648313 39.56589889 0.47673239 42.0812845 1 47 C8.51645449 46.8657776 11.81641338 44.25239529 17 39 C17.825 38.195625 18.65 37.39125 19.5 36.5625 C19.995 36.046875 20.49 35.53125 21 35 C19.35358036 41.03687202 14.96465557 45.22120666 9.71484375 48.37109375 C5.2985349 50.50183375 2.85440216 51.29450724 -2 50 C-1.93958131 47.9367016 -1.85068362 45.87422586 -1.75 43.8125 C-1.70359375 42.66394531 -1.6571875 41.51539063 -1.609375 40.33203125 C-0.90691927 36.49103932 0.48814147 34.90873218 3 32 C3 31.01 3 30.02 3 29 C-1.95 29.33 -6.9 29.66 -12 30 C-11.67 32.97 -11.34 35.94 -11 39 C-15.39669262 40.09917315 -16.08214836 39.70778148 -20 38 C-20.99 38 -21.98 38 -23 38 C-22.67 36.35 -22.34 34.7 -22 33 C-20.68 33 -19.36 33 -18 33 C-17.67 31.35 -17.34 29.7 -17 28 C-21.95 28.33 -26.9 28.66 -32 29 C-33 24 -33 24 -32 22 C-27.98296799 19.45072969 -24.766342 17.58126122 -20 17 C-19.31164063 16.90976563 -18.62328125 16.81953125 -17.9140625 16.7265625 C-15.94441653 16.47085408 -13.97234199 16.23400668 -12 16 C-12 18.31 -12 20.62 -12 23 C-4.73526845 22.19487329 -4.73526845 22.19487329 1.6875 19.0625 C3.26843775 16.98561941 3.26843775 16.98561941 3 14 C-2.56157448 13.08542997 -6.675665 12.67913603 -12 15 C-12.33 14.01 -12.66 13.02 -13 12 C-16.96 11.67 -20.92 11.34 -25 11 C-24.67 9.68 -24.34 8.36 -24 7 C-23.34 6.67 -22.68 6.34 -22 6 C-21.195625 6.350625 -20.39125 6.70125 -19.5625 7.0625 C-18.2940625 7.5265625 -18.2940625 7.5265625 -17 8 C-16.01 7.34 -15.02 6.68 -14 6 C-10.64453125 5.8046875 -10.64453125 5.8046875 -6.8125 5.875 C-5.54019531 5.89304687 -4.26789062 5.91109375 -2.95703125 5.9296875 C-1.49330078 5.96449219 -1.49330078 5.96449219 0 6 C0 4.02 0 2.04 0 0 Z " fill="#E0424A" transform="translate(52,48)"/>
	

	<path d="M0 0 C11.88 0 23.76 0 36 0 C36 12.21 36 24.42 36 37 C31.06919153 32.06919153 26.62510497 26.61001708 22.9375 20.6875 C20.81330916 17.74104173 18.71724757 16.20569028 15.73046875 14.21875 C13.19628831 12.43395475 11.15829201 10.21508917 9 8 C7.33729713 6.66172696 5.67083819 5.32810215 4 4 C2.68 2.68 1.36 1.36 0 0 Z " fill="#F7F7F7" transform="translate(92,0)"/>
	

	<path d="M0 0 C4.18453042 1.02478296 5.98479252 2.74386711 9.0625 5.75 C11.02403399 9.67306798 10.40891667 14.46309365 10.0625 18.75 C8.8125 21.875 8.8125 21.875 7.0625 23.75 C1.08468947 25.77325895 -6.33484941 25.75512638 -12.125 23.25 C-13.053125 22.755 -13.98125 22.26 -14.9375 21.75 C-14.22317266 16.90277876 -12.32293432 13.98893878 -9.546875 10.04296875 C-8.53233028 8.59748877 -7.55691805 7.12295685 -6.640625 5.61328125 C-4.7011145 2.50880502 -3.61752166 0.92362255 0 0 Z " fill="#18AFDC" transform="translate(93.9375,56.25)"/>
	

	

	<path d="M0 0 C10.89 0 21.78 0 33 0 C32.67 0.99 32.34 1.98 32 3 C29.890625 3.9921875 29.890625 3.9921875 27.25 4.875 C22.76238513 6.55386588 20.15392049 8.30540743 17 12 C13.75593972 15.32943029 10.41646524 18.40897225 6.84375 21.375 C4.4618119 23.47433527 2.24508771 25.75491229 0 28 C0 18.76 0 9.52 0 0 Z " fill="#F9F9F9" transform="translate(0,0)"/>
	

	<path d="M0 0 C3.72710027 0.771191 3.72710027 0.771191 6.8125 -0.5 C6.4825 0.49 6.1525 1.48 5.8125 2.5 C4 3.3125 4 3.3125 1.8125 3.5 C-0.4375 2.5625 -0.4375 2.5625 -2.1875 1.5 C-2.8475 2.82 -3.5075 4.14 -4.1875 5.5 C-3.50042969 5.46519531 -2.81335937 5.43039063 -2.10546875 5.39453125 C-1.20441406 5.36746094 -0.30335937 5.34039062 0.625 5.3125 C1.51832031 5.27769531 2.41164063 5.24289063 3.33203125 5.20703125 C6.22897515 5.54918998 7.03805028 6.25393573 8.8125 8.5 C9.616875 8.149375 10.42125 7.79875 11.25 7.4375 C15.71596108 6.26224708 19.31087555 6.75973287 23.8125 7.5 C24.4296875 9.3359375 24.4296875 9.3359375 24.8125 11.5 C21.50146016 16.13545578 18.13714296 17.27763383 12.80078125 18.3359375 C10.8125 18.5 10.8125 18.5 8.8125 17.5 C8.8125 15.19 8.8125 12.88 8.8125 10.5 C7.595625 10.809375 6.37875 11.11875 5.125 11.4375 C2.76186134 12.0376622 0.47321198 12.55397764 -1.9375 12.9375 C-4.5817859 13.59857148 -6.04521147 14.85757879 -8.1875 16.5 C-9.1775 16.5 -10.1675 16.5 -11.1875 16.5 C-11.1875 18.81 -11.1875 21.12 -11.1875 23.5 C-12.5075 23.17 -13.8275 22.84 -15.1875 22.5 C-15.375 20.125 -15.375 20.125 -15.1875 17.5 C-12.1875 15.5 -12.1875 15.5 -9.1875 15.5 C-9.1875 13.52 -9.1875 11.54 -9.1875 9.5 C-10.5075 9.17 -11.8275 8.84 -13.1875 8.5 C-13.1875 7.84 -13.1875 7.18 -13.1875 6.5 C-14.5075 6.17 -15.8275 5.84 -17.1875 5.5 C-16.8575 4.18 -16.5275 2.86 -16.1875 1.5 C-14.888125 1.2834375 -14.888125 1.2834375 -13.5625 1.0625 C-11.47074899 0.71387483 -9.38470422 0.32547918 -7.3125 -0.125 C-4.57980223 -0.45292373 -2.67922505 -0.38204672 0 0 Z " fill="#DF725A" transform="translate(31.1875,53.5)"/>
	

	<path d="M0 0 C3.76630271 1.25543424 4.59441394 2.88688863 7 6 C9.85714281 9.07142853 12.20958349 11.24016376 16 13 C16.33 13.66 16.66 14.32 17 15 C19.55554217 15.84741068 22.13765919 16.47171926 24.75 17.12109375 C25.4925 17.41113281 26.235 17.70117188 27 18 C27.33 18.99 27.66 19.98 28 21 C29.423125 21.2165625 29.423125 21.2165625 30.875 21.4375 C34 22 34 22 36 23 C45.84079515 24.2177984 54.54058819 24.15313727 64 21 C65.39439664 20.93334624 66.79169875 20.91461801 68.1875 20.9375 C70.0746875 20.9684375 70.0746875 20.9684375 72 21 C71.505 22.485 71.505 22.485 71 24 C69.00390625 24.625 69.00390625 24.625 66.5625 25 C64.1571954 25.31571619 64.1571954 25.31571619 62 26 C61.34 26.99 60.68 27.98 60 29 C57.43383789 29.38818359 57.43383789 29.38818359 54.22265625 29.3984375 C53.06958984 29.40230469 51.91652344 29.40617187 50.72851562 29.41015625 C48.91383789 29.39275391 48.91383789 29.39275391 47.0625 29.375 C45.85658203 29.38660156 44.65066406 29.39820312 43.40820312 29.41015625 C42.25384766 29.40628906 41.09949219 29.40242188 39.91015625 29.3984375 C38.84933838 29.39505371 37.78852051 29.39166992 36.69555664 29.38818359 C33.6028453 28.94280627 32.99434377 28.27832216 31 26 C28.67793475 25.29508733 26.34406932 24.62787571 24 24 C23.01 23.34 22.02 22.68 21 22 C19.34450469 21.61500109 17.6777567 21.27206865 16 21 C15.67 20.01 15.34 19.02 15 18 C13.36687237 16.68260701 13.36687237 16.68260701 11.375 15.4375 C6.38606125 11.86239407 3.04671213 7.29366233 0 2 C0 1.34 0 0.68 0 0 Z " fill="#323434" transform="translate(12,84)"/>
	

	<path d="M0 0 C1.25 2.0625 1.25 2.0625 2 4 C2.59425781 4.13792969 3.18851563 4.27585937 3.80078125 4.41796875 C6.53769581 5.14230315 7.85296898 6.35121927 9.9375 8.25 C10.63101563 8.88164062 11.32453125 9.51328125 12.0390625 10.1640625 C12.68617187 10.76992188 13.33328125 11.37578125 14 12 C15.3921875 13.299375 15.3921875 13.299375 16.8125 14.625 C18.99178685 16.99108287 20.45844425 19.18498516 22 22 C22.7425 23.0725 23.485 24.145 24.25 25.25 C26.72907564 29.50386843 25.97118216 33.34465942 25 38 C24.34 38 23.68 38 23 38 C22.79697266 36.948125 22.79697266 36.948125 22.58984375 35.875 C20.66655819 27.39872352 17.28416717 21.85611145 10 17 C10 16.34 10 15.68 10 15 C9.360625 14.87625 8.72125 14.7525 8.0625 14.625 C7.0415625 14.315625 7.0415625 14.315625 6 14 C5.67 13.34 5.34 12.68 5 12 C3.7625 11.505 3.7625 11.505 2.5 11 C0 10 0 10 -1 8 C-2.2375 7.505 -2.2375 7.505 -3.5 7 C-6 6 -6 6 -7 4 C-9.80980673 3.30772968 -9.80980673 3.30772968 -13.0625 2.875 C-14.16722656 2.70742187 -15.27195312 2.53984375 -16.41015625 2.3671875 C-17.26480469 2.24601563 -18.11945313 2.12484375 -19 2 C-19.33 1.01 -19.66 0.02 -20 -1 C-13.42657564 -3.19114145 -6.44358404 -2.26090668 0 0 Z " fill="#333434" transform="translate(97,7)"/>
	

	<path d="M0 0 C3.8469945 1.6267291 4.90990637 3.43040305 6.734375 7.15625 C7.09702607 9.98892604 7.25369808 12.34787078 7.171875 15.15625 C7.17896484 15.84203125 7.18605469 16.5278125 7.19335938 17.234375 C7.13537463 21.90883775 6.43570464 25.31842015 3.734375 29.15625 C-2.87858265 32.60030112 -10.27479764 30.54681675 -17.265625 29.15625 C-19.81937164 28.34046982 -21.89918868 27.4260451 -24.265625 26.15625 C-24.83719268 19.52368341 -20.89386872 15.38008847 -17.265625 10.15625 C-16.66363281 9.17527344 -16.06164062 8.19429687 -15.44140625 7.18359375 C-10.98616896 0.54276835 -7.96415384 -0.90783101 0 0 Z M-11.4609375 5.31640625 C-12.09773438 6.27417969 -12.73453125 7.23195313 -13.390625 8.21875 C-14.06222656 9.22164062 -14.73382813 10.22453125 -15.42578125 11.2578125 C-16.03292969 12.21429688 -16.64007813 13.17078125 -17.265625 14.15625 C-17.73871094 14.86523438 -18.21179688 15.57421875 -18.69921875 16.3046875 C-20.21234959 18.70265956 -21.23609586 20.60996083 -21.390625 23.46875 C-19.49367012 26.31418233 -17.58662636 26.46914627 -14.265625 27.15625 C-8.61643679 27.55326469 -3.37484801 27.9161038 1.734375 25.15625 C4.85212952 20.81603247 4.47697649 15.24417308 3.734375 10.15625 C2.07942754 6.98170395 -0.01913778 4.77949361 -3.265625 3.15625 C-7.13852633 2.64443606 -8.61439755 2.51545146 -11.4609375 5.31640625 Z " fill="#2B828D" transform="translate(100.265625,53.84375)"/>
	

	<path d="M0 0 C0.33 0 0.66 0 1 0 C1 7.92 1 15.84 1 24 C-7.91 24 -16.82 24 -26 24 C-26 23.34 -26 22.68 -26 22 C-25.10796875 21.66226563 -24.2159375 21.32453125 -23.296875 20.9765625 C-22.12640625 20.53054687 -20.9559375 20.08453125 -19.75 19.625 C-18.58984375 19.18414062 -17.4296875 18.74328125 -16.234375 18.2890625 C-15.16703125 17.86367187 -14.0996875 17.43828125 -13 17 C-12.27554688 16.74992187 -11.55109375 16.49984375 -10.8046875 16.2421875 C-7.94591313 14.27445969 -6.9135721 11.56358849 -5.375 8.5 C-2.16591928 2.16591928 -2.16591928 2.16591928 0 0 Z " fill="#F9F9F9" transform="translate(127,104)"/>
	

	<path d="M0 0 C2.4375 1.25 2.4375 1.25 5 3 C5.36162029 4.32594105 5.69728039 5.65938457 6 7 C7.31647119 7.69937532 8.65022151 8.36729133 10 9 C10.33 9.99 10.66 10.98 11 12 C12.33038449 12.3449145 13.66457061 12.67516582 15 13 C17.0065438 14.32346506 19.00628175 15.65729179 21 17 C24.87240394 18.78726336 28.89377005 19.86724691 33 21 C34.093125 21.391875 35.18625 21.78375 36.3125 22.1875 C41.15698923 23.25492983 45.1333527 22.69814021 50 22 C51.57394531 21.84724609 51.57394531 21.84724609 53.1796875 21.69140625 C61.13100765 20.7840203 66.4649527 18.52160843 73 14 C73.8765625 13.50371094 74.753125 13.00742188 75.65625 12.49609375 C78.24946309 11.06226113 78.24946309 11.06226113 80 8 C80 7.01 80 6.02 80 5 C77.36 4.67 74.72 4.34 72 4 C72 3.67 72 3.34 72 3 C75.63 3 79.26 3 83 3 C83 7.88752419 81.97485663 9.18608124 79 13 C69.13078014 22.86921986 58.16316846 26.27104795 44.4375 26.375 C27.83559519 26.21714741 16.71329482 19.58890585 5 8 C0 2.70786517 0 2.70786517 0 0 Z " fill="#C3913C" transform="translate(15,81)"/>
	

	<path d="M0 0 C1.90234375 0.2578125 1.90234375 0.2578125 4 1 C4.94140625 2.7421875 4.94140625 2.7421875 5.5625 4.875 C6.52481894 8.11460784 7.55722834 9.68709721 10 12 C12.08736139 15.16703108 13.79764048 18.39292143 15 22 C15.99 22.33 16.98 22.66 18 23 C19.17486994 24.14130223 20.34519305 25.28791782 21.484375 26.46484375 C28.23963989 33.34556711 28.23963989 33.34556711 37 37 C36.67 37.99 36.34 38.98 36 40 C30.33303323 40.87184104 27.24643982 38.57430047 22.7578125 35.5078125 C22.17773438 35.01023438 21.59765625 34.51265625 21 34 C21 33.34 21 32.68 21 32 C20.4225 31.71125 19.845 31.4225 19.25 31.125 C18.5075 30.75375 17.765 30.3825 17 30 C16.319375 29.7525 15.63875 29.505 14.9375 29.25 C13 28 13 28 11.6328125 25.26171875 C10.00933016 22.01863799 8.15708474 19.42099324 5.9375 16.5625 C1.73731406 10.89032229 0 7.13541801 0 0 Z " fill="#303233" transform="translate(4,83)"/>
	

	<path d="M0 0 C3 1 3 1 4.5625 3.875 C5.036875 4.90625 5.51125 5.9375 6 7 C6.99 8.485 6.99 8.485 8 10 C8.28875 10.94875 8.5775 11.8975 8.875 12.875 C10.08409485 16.23359681 11.7335916 18.28030992 14 21 C14 21.66 14 22.32 14 23 C12.02 22.67 10.04 22.34 8 22 C7.731875 23.093125 7.46375 24.18625 7.1875 25.3125 C5.60416667 30.22916667 5.60416667 30.22916667 3 32 C2.01 32 1.02 32 0 32 C0 21.44 0 10.88 0 0 Z " fill="#929094" transform="translate(0,88)"/>
	

	<path d="M0 0 C1.65 0 3.3 0 5 0 C5 5.28 5 10.56 5 16 C10.62870857 13.74851657 14.59025347 11.73507266 18.4375 7 C21.92483157 2.91727035 25.39532791 0.22167422 30.9375 -0.25 C31.9584375 -0.12625 31.9584375 -0.12625 33 0 C32.67 0.99 32.34 1.98 32 3 C29.890625 3.9921875 29.890625 3.9921875 27.25 4.875 C22.76238513 6.55386588 20.15392049 8.30540743 17 12 C13.75593972 15.32943029 10.41646524 18.40897225 6.84375 21.375 C4.4618119 23.47433527 2.24508771 25.75491229 0 28 C0 18.76 0 9.52 0 0 Z " fill="#C5C4C2" transform="translate(0,0)"/>
	

	<path d="M0 0 C0.66 0.99 1.32 1.98 2 3 C-1.3 3.66 -4.6 4.32 -8 5 C-8 5.99 -8 6.98 -8 8 C-8.721875 8.20625 -9.44375 8.4125 -10.1875 8.625 C-13.9229645 10.45122709 -15.43587487 12.74286807 -18 16 C-18.66 16.33 -19.32 16.66 -20 17 C-20.33 17.99 -20.66 18.98 -21 20 C-20.01 20 -19.02 20 -18 20 C-18.33 21.32 -18.66 22.64 -19 24 C-19.66 24 -20.32 24 -21 24 C-21.33 23.34 -21.66 22.68 -22 22 C-22.99 21.67 -23.98 21.34 -25 21 C-24.690625 22.3921875 -24.690625 22.3921875 -24.375 23.8125 C-24 27 -24 27 -26 30 C-26.66 30 -27.32 30 -28 30 C-28 30.66 -28 31.32 -28 32 C-28.99 32 -29.98 32 -31 32 C-29.16160885 18.19291646 -29.16160885 18.19291646 -24.3125 14.125 C-23.61125 13.61710937 -22.91 13.10921875 -22.1875 12.5859375 C-19.7822826 10.84215489 -17.8603037 8.89864252 -15.8125 6.75 C-10.77436329 1.69225965 -7.45738099 -0.84423181 0 0 Z " fill="#303233" transform="translate(34,5)"/>
	

	<path d="M0 0 C1.859375 1.60546875 1.859375 1.60546875 3 3 C0.22338365 2.49516066 -2.37503361 1.87754004 -5.0625 1 C-15.69661988 -2.01223997 -30.9133122 -2.56590082 -40.8125 2.921875 C-44.00897752 5.00585299 -46.38195019 7.24043398 -49 10 C-49.65484375 10.43957031 -50.3096875 10.87914062 -50.984375 11.33203125 C-53.43548298 13.36037061 -54.28361549 15.2295717 -55.5625 18.125 C-56.75390625 20.8203125 -56.75390625 20.8203125 -58 23 C-58.99 23.33 -59.98 23.66 -61 24 C-60.98839844 24.71027344 -60.97679687 25.42054687 -60.96484375 26.15234375 C-60.95130859 27.53099609 -60.95130859 27.53099609 -60.9375 28.9375 C-60.92589844 29.85402344 -60.91429687 30.77054688 -60.90234375 31.71484375 C-61 34 -61 34 -62 35 C-62.63454827 40.83784405 -61.04850458 45.14330112 -58.875 50.546875 C-58 53 -58 53 -58 56 C-63.77683274 49.39790544 -64.50806273 42.36349418 -64 34 C-63.98066406 33.23429687 -63.96132813 32.46859375 -63.94140625 31.6796875 C-63.32496636 20.95736939 -56.4542462 13.19720323 -49 6 C-35.86497049 -5.30610135 -15.78686304 -5.74282593 0 0 Z " fill="#A4833A" transform="translate(72,25)"/>
	

	

	<path d="M0 0 C0.804375 1.2065625 0.804375 1.2065625 1.625 2.4375 C4.52191867 5.56312277 5.88836759 5.42437146 10 6 C13.375 8.0625 13.375 8.0625 16 10 C15.814375 10.721875 15.62875 11.44375 15.4375 12.1875 C14.98004693 15.12826973 15.26483643 17.14103058 16 20 C12.33572029 21.35714063 10.49363912 20.52286834 7 19 C6.01 19 5.02 19 4 19 C4.33 17.35 4.66 15.7 5 14 C6.32 14 7.64 14 9 14 C9.33 12.35 9.66 10.7 10 9 C5.05 9.33 0.1 9.66 -5 10 C-6 5 -6 5 -5 3 C-3.35857037 1.9590934 -1.69287785 0.95495674 0 0 Z " fill="#DF6C63" transform="translate(25,67)"/>
	

	<path d="M0 0 C4.84642599 -0.57070063 9.18480602 -1.00597773 13.55859375 1.41796875 C15.80306423 3.19310645 17.91081569 5.04560178 20 7 C20.94875 7.7425 21.8975 8.485 22.875 9.25 C25 11 25 11 26.4140625 12.4296875 C28.03223279 14.03191522 29.73239137 15.44075615 31.5 16.875 C34.42239355 19.36512284 36.11862987 21.62921184 38 25 C39.75643543 27.33502592 41.56273077 29.62529082 43.37890625 31.9140625 C46.49435798 35.92286062 47.2247252 37.94368306 47 43 C46.01 42.67 45.02 42.34 44 42 C43.33203125 40.06640625 43.33203125 40.06640625 42.8125 37.5625 C40.10134748 27.67808979 31.73040374 19.12597052 23.08203125 13.82421875 C22.47746094 13.49035156 21.87289062 13.15648437 21.25 12.8125 C18 11 18 11 16.21484375 9.05078125 C13.44927077 6.49006553 10.86039037 5.60663048 7.3125 4.375 C1.10309973 2.20619946 1.10309973 2.20619946 0 0 Z " fill="#858585" transform="translate(81,0)"/>
	

	<path d="M0 0 C-0.45313894 2.11464837 -0.90708281 3.84029857 -2 5.71875 C-3.32656175 8.744969 -3.42763919 11.46065322 -3.625 14.75 C-3.69976562 15.92046875 -3.77453125 17.0909375 -3.8515625 18.296875 C-3.92503906 19.63492188 -3.92503906 19.63492188 -4 21 C4.34459154 21.75859923 9.32271504 18.86011052 15.8125 13.8125 C18.85430342 9.90160989 20.38330446 5.65138662 22 1 C26.11802472 2.5099424 30.10272859 3.98114319 34 6 C33.10861328 5.89945312 33.10861328 5.89945312 32.19921875 5.796875 C27.34500233 5.70628309 24.82500344 6.24327271 21.16796875 9.59765625 C20.2215606 10.65567848 19.29081963 11.72789231 18.375 12.8125 C13.59905919 18.4613195 9.97136338 22.3738647 2.42578125 23.32421875 C-4.02188012 23.59718544 -4.02188012 23.59718544 -7.296875 21.59765625 C-7.85890625 21.07042969 -8.4209375 20.54320313 -9 20 C-9 19.34 -9 18.68 -9 18 C-8.34 17.67 -7.68 17.34 -7 17 C-6.56852029 15.04304865 -6.56852029 15.04304865 -6.4375 12.75 C-6.14161371 9.43713027 -5.73399358 6.25054299 -5 3 C-6.65 3.33 -8.3 3.66 -10 4 C-9.690625 5.423125 -9.690625 5.423125 -9.375 6.875 C-9.25125 7.90625 -9.1275 8.9375 -9 10 C-9.66 10.66 -10.32 11.32 -11 12 C-11.19406478 10.35492782 -11.38007935 8.70890406 -11.5625 7.0625 C-11.66691406 6.14597656 -11.77132812 5.22945313 -11.87890625 4.28515625 C-11.91886719 3.53105469 -11.95882812 2.77695313 -12 2 C-9.38538794 -0.61461206 -3.45000888 0 0 0 Z " fill="#DF9F3F" transform="translate(53,78)"/>
	

	<path d="M0 0 C0.625 1.875 0.625 1.875 1 4 C0.34 4.66 -0.32 5.32 -1 6 C-0.67958603 8.60280568 -0.67958603 8.60280568 0 11 C9.03380536 11.27953983 9.03380536 11.27953983 18 10.4375 C21.25726975 9.9624815 23.80089431 10.29775729 27 11 C27.495 12.485 27.495 12.485 28 14 C27.34 14.66 26.68 15.32 26 16 C22.68831588 15.89288353 19.45403729 15.47993214 16.1640625 15.09375 C12.91257275 14.99740956 11.74004582 15.44205359 9 17 C6.99548879 16.69496569 4.99551782 16.35919321 3 16 C1.96875 16.185625 0.9375 16.37125 -0.125 16.5625 C-3.27541208 17.04191053 -4.38429894 16.71026608 -7 15 C-5.02 15 -3.04 15 -1 15 C-1.495 14.2575 -1.99 13.515 -2.5 12.75 C-4 10 -4 10 -4 6 C-2.5625 4.4375 -2.5625 4.4375 -1 3 C-0.67 2.01 -0.34 1.02 0 0 Z " fill="#DF9F3F" transform="translate(24,38)"/>
	

	

	

	<path d="M0 0 C4.45210892 3.61341939 8.48431884 7.60292985 12.4375 11.75 C9.4375 11.75 9.4375 11.75 7.0625 9.4375 C6.19625 8.550625 5.33 7.66375 4.4375 6.75 C2.80372358 5.69712186 1.14568403 4.6772999 -0.5625 3.75 C-0.5625 5.07 -0.5625 6.39 -0.5625 7.75 C-2.9375 7.875 -2.9375 7.875 -5.5625 7.75 C-6.2225 7.09 -6.8825 6.43 -7.5625 5.75 C-7.20894564 3.48725212 -6.58705574 1.79911148 -5.5625 -0.25 C-6.42960576 -2.51922974 -6.42960576 -2.51922974 -9.1328125 -3.3671875 C-12.96828644 -4.35445072 -16.51287124 -4.47387631 -20.4375 -4.375 C-21.47003906 -4.36146484 -21.47003906 -4.36146484 -22.5234375 -4.34765625 C-24.20327838 -4.32432513 -25.88293746 -4.28846326 -27.5625 -4.25 C-19.71726189 -12.09523811 -7.20705368 -5.42079597 0 0 Z " fill="#E0434B" transform="translate(67.5625,36.25)"/>
	

	

	<path d="M0 0 C3.12109375 0.484375 3.12109375 0.484375 5.5625 1.25 C5.8925 1.91 6.2225 2.57 6.5625 3.25 C5.7890625 3.12238281 5.015625 2.99476562 4.21875 2.86328125 C0.73868599 2.53164149 -2.01341026 2.49796066 -5.4375 3.25 C-8.95315585 6.42266503 -11.10918188 10.15927441 -13.4375 14.25 C-14.4135818 15.73120414 -15.39230929 17.2106722 -16.375 18.6875 C-18.09794179 21.39164254 -18.6174027 22.96961081 -19.4375 26.25 C-12.5075 27.24 -5.5775 28.23 1.5625 29.25 C1.2325 29.91 0.9025 30.57 0.5625 31.25 C-15.36688497 29.50740319 -15.36688497 29.50740319 -21.4375 26.25 C-22.00906768 19.61743341 -18.06574372 15.47383847 -14.4375 10.25 C-13.83550781 9.26902344 -13.23351562 8.28804687 -12.61328125 7.27734375 C-8.93628591 1.79653937 -6.82876039 -0.45309311 0 0 Z " fill="#828382" transform="translate(97.4375,53.75)"/>
	

	<path d="M0 0 C8.18669624 0.44672364 15.29824704 1.94716897 22.48046875 6.0546875 C23.14046875 7.0446875 23.80046875 8.0346875 24.48046875 9.0546875 C21.84591792 8.55769348 19.26583904 7.99699455 16.67578125 7.30078125 C4.10326274 3.98969813 -7.85463956 4.41322033 -20.51953125 7.0546875 C-20.18953125 6.3946875 -19.85953125 5.7346875 -19.51953125 5.0546875 C-16.85040783 4.27911984 -14.22610775 3.60372497 -11.51953125 2.9921875 C-7.65348418 2.09874535 -3.68656564 0.08001848 0 0 Z " fill="#555044" transform="translate(52.51953125,17.9453125)"/>
	

	<path d="M0 0 C1.98 0 3.96 0 6 0 C5.1124077 4.38017863 2.74813495 7.41150132 0.125 10.9375 C-5.6047596 18.65213976 -5.6047596 18.65213976 -9.6875 27.3125 C-10.120625 28.529375 -10.55375 29.74625 -11 31 C-12.30432445 27.08702665 -12.11761745 23.90827435 -11 20 C-9.23668881 16.8175675 -7.1368925 13.93892827 -5 11 C-4.1646875 9.5459375 -4.1646875 9.5459375 -3.3125 8.0625 C-2 6 -2 6 1 4 C0.67 2.68 0.34 1.36 0 0 Z " fill="#E05758" transform="translate(85,52)"/>
	

	<path d="M0 0 C0.66 0 1.32 0 2 0 C1.58788293 4.39591547 -0.2371684 7.30885645 -2.64453125 10.8828125 C-4.03709751 12.94335909 -4.03709751 12.94335909 -4.94921875 15.1171875 C-7.14521635 19.71749868 -9.42862486 21.49736361 -14.25024414 23.33325195 C-21.99855822 26 -21.99855822 26 -25 26 C-25 26.66 -25 27.32 -25 28 C-26.65 28 -28.3 28 -30 28 C-29 25 -29 25 -27.2578125 24.05078125 C-26.20207031 23.68533203 -26.20207031 23.68533203 -25.125 23.3125 C-24.42632812 23.06113281 -23.72765625 22.80976562 -23.0078125 22.55078125 C-21 22 -21 22 -18 22 C-18 21.34 -18 20.68 -18 20 C-16.205625 19.5359375 -16.205625 19.5359375 -14.375 19.0625 C-6.50839042 16.11599606 -3.37445041 7.13826048 0 0 Z " fill="#8A898B" transform="translate(126,100)"/>
	

	<path d="M0 0 C-0.33 0.99 -0.66 1.98 -1 3 C-3.109375 3.9921875 -3.109375 3.9921875 -5.75 4.875 C-10.23761487 6.55386588 -12.84607951 8.30540743 -16 12 C-19.28748375 15.37399648 -22.69132255 18.47232058 -26.28515625 21.5078125 C-28.64623049 23.56232357 -30.82073711 25.75469885 -33 28 C-33 25.03 -33 22.06 -33 19 C-31.9275 18.896875 -30.855 18.79375 -29.75 18.6875 C-26.11844618 18.02171513 -24.56055171 17.56055171 -22 15 C-21.67 14.01 -21.34 13.02 -21 12 C-20.4225 11.731875 -19.845 11.46375 -19.25 11.1875 C-16.57736092 9.77694049 -15.27432714 7.86169377 -13.41796875 5.53125 C-9.81974159 1.64556117 -5.37868034 -0.65196125 0 0 Z " fill="#878787" transform="translate(33,0)"/>
	

	<path d="M0 0 C0 4.19222589 -2.19418976 6.15687845 -5 9 C-9.45396661 12.81768566 -13.50985685 13.71618832 -19.15625 14.55859375 C-21.74901668 14.96104242 -24.20843268 15.54787222 -26.75 16.1875 C-36.18356629 18.08626893 -46.30143233 17.08300115 -55 13 C-52.27651462 11.95250562 -51.12801562 11.95639643 -48.31640625 12.9140625 C-37.43349447 16.47760723 -23.19093771 14.75669277 -13 10 C-8.19811233 7.16398581 -3.8559353 4.04013603 0 0 Z " fill="#655B49" transform="translate(95,92)"/>
	

	

	

	<path d="M0 0 C6.27 0 12.54 0 19 0 C16 3 16 3 13.0625 4.875 C10.02803614 6.98054635 8.14883408 9.02469127 6 12 C5.34 11.67 4.68 11.34 4 11 C4.66 10.34 5.32 9.68 6 9 C6 7.68 6 6.36 6 5 C4.02 4.01 2.04 3.02 0 2 C0 1.34 0 0.68 0 0 Z " fill="#C5C4C2" transform="translate(9,0)"/>
	

	<path d="M0 0 C0.66 0.33 1.32 0.66 2 1 C1.67 1.66 1.34 2.32 1 3 C3.64 2.67 6.28 2.34 9 2 C9.350625 2.639375 9.70125 3.27875 10.0625 3.9375 C12.77184206 6.82163832 15.15858911 6.7100822 19 7 C19.625 8.875 19.625 8.875 20 11 C17.27773234 13.72226766 14.63311582 14.78896139 11 16 C7.8125 15.0625 7.8125 15.0625 5 14 C5.66 13.01 6.32 12.02 7 11 C9.3828125 10.70703125 9.3828125 10.70703125 12.125 10.8125 C13.03507812 10.83957031 13.94515625 10.86664063 14.8828125 10.89453125 C15.58148438 10.92933594 16.28015625 10.96414062 17 11 C17 10.34 17 9.68 17 9 C15.88625 8.731875 14.7725 8.46375 13.625 8.1875 C10 7 10 7 8 4 C4.62294375 4.53725895 1.303314 5.11064623 -2 6 C-2 4.35 -2 2.7 -2 1 C-1.34 0.67 -0.68 0.34 0 0 Z " fill="#E0434B" transform="translate(38,32)"/>
	

	<path d="M0 0 C0.66 0 1.32 0 2 0 C2.29132812 0.556875 2.58265625 1.11375 2.8828125 1.6875 C5.49641315 6.55307102 8.31873592 10.95594242 11.765625 15.2734375 C13 17 13 17 14 20 C15.62948064 21.22445284 15.62948064 21.22445284 17.5625 22.1875 C19.2640625 23.0846875 19.2640625 23.0846875 21 24 C21 24.66 21 25.32 21 26 C21.556875 26.268125 22.11375 26.53625 22.6875 26.8125 C25.21225334 28.10899496 27.63714484 29.42476323 30 31 C30 31.66 30 32.32 30 33 C19.6064644 29.45806887 11.32951638 21.33887732 6 12 C4.88283061 10.36960662 3.75787763 8.74451791 2.625 7.125 C0 3.36923077 0 3.36923077 0 0 Z " fill="#524E44" transform="translate(4,91)"/>
	

	

	<path d="M0 0 C1.1875 1.625 1.1875 1.625 1.1875 3.625 C-3.03978415 5.29625187 -5.42779892 5.66348184 -9.8125 4.625 C-12.04417185 4.99356864 -12.04417185 4.99356864 -13.8125 5.625 C-14.4725 4.305 -15.1325 2.985 -15.8125 1.625 C-12.3458438 -1.8416562 -4.10117348 -3.11123505 0 0 Z " fill="#E23842" transform="translate(38.8125,43.375)"/>
	

	<path d="M0 0 C2.97 0.495 2.97 0.495 6 1 C6 5 6 5 4.4375 6.75 C1.1945248 8.4130642 -1.40866296 8.20719252 -5 8 C-5.625 6.125 -5.625 6.125 -6 4 C-5.34 3.34 -4.68 2.68 -4 2 C-2.68 2 -1.36 2 0 2 C0 1.34 0 0.68 0 0 Z " fill="#DF9F3F" transform="translate(47,61)"/>
	

	<path d="M0 0 C0.33 0.99 0.66 1.98 1 3 C-0.32090525 4.67653359 -1.65807132 6.34024611 -3 8 C-4.28919253 10.57027693 -5.48991593 13.16477677 -6.65625 15.79296875 C-8.57241118 18.94015208 -10.58280035 19.60829798 -14.03515625 20.5625 C-15.38920714 20.85470366 -16.74337445 21.1463684 -18.09765625 21.4375 C-20.30116285 21.9869945 -20.30116285 21.9869945 -23 24 C-23.99 24 -24.98 24 -26 24 C-26 23.34 -26 22.68 -26 22 C-25.10796875 21.66226563 -24.2159375 21.32453125 -23.296875 20.9765625 C-22.12640625 20.53054687 -20.9559375 20.08453125 -19.75 19.625 C-18.58984375 19.18414062 -17.4296875 18.74328125 -16.234375 18.2890625 C-15.16703125 17.86367187 -14.0996875 17.43828125 -13 17 C-12.27554688 16.74992187 -11.55109375 16.49984375 -10.8046875 16.2421875 C-7.94591313 14.27445969 -6.9135721 11.56358849 -5.375 8.5 C-2.16591928 2.16591928 -2.16591928 2.16591928 0 0 Z " fill="#C5C4C2" transform="translate(127,104)"/>
	

	

	

	

	

	<path d="M0 0 C1.20844047 2.41688094 0.94434266 3.3601001 0.5625 6 C-0.78223234 17.35753664 0.83465931 24.80892243 6 35 C3.26696801 33.89201406 1.43398167 32.87263233 0.09228516 30.17480469 C-1.86108472 24.39839251 -2.43297865 19.26444315 -2.3125 13.1875 C-2.31733398 11.93936523 -2.31733398 11.93936523 -2.32226562 10.66601562 C-2.28536608 6.48294859 -2.09436438 3.70461218 0 0 Z " fill="#615848" transform="translate(9,48)"/>
	

	<path d="M0 0 C0.33 0 0.66 0 1 0 C1 1.65 1 3.3 1 5 C2.65 5 4.3 5 6 5 C5.01 6.65 4.02 8.3 3 10 C4.32 10.66 5.64 11.32 7 12 C4.69 12 2.38 12 0 12 C0.33 15.96 0.66 19.92 1 24 C-2.07229068 20.92770932 -1.97870799 18.62811424 -2.125 14.3125 C-2 11 -2 11 -1 10 C-1 8.88625 -1 7.7725 -1 6.625 C-1 3 -1 3 0 0 Z " fill="#DE9D3F" transform="translate(11,49)"/>
	

	

	<path d="M0 0 C0.680625 0.680625 1.36125 1.36125 2.0625 2.0625 C2.52140625 2.51753906 2.9803125 2.97257812 3.453125 3.44140625 C4.52086545 4.51723565 5.57210955 5.60960217 6.609375 6.71484375 C10.67501313 10.9763039 14.87179733 14.10955849 20 17 C17 18 17 18 14.8125 17.0625 C13.9153125 16.5365625 13.9153125 16.5365625 13 16 C13 15.34 13 14.68 13 14 C12.443125 13.938125 11.88625 13.87625 11.3125 13.8125 C8.01958329 12.65552926 6.35780446 10.5346398 4 8 C3.236875 7.319375 2.47375 6.63875 1.6875 5.9375 C0 4 0 4 0 0 Z " fill="#544F44" transform="translate(15,83)"/>
	

	<path d="M0 0 C-2 2 -2 2 -3.99609375 2.08984375 C-5.20458984 2.01443359 -5.20458984 2.01443359 -6.4375 1.9375 C-12.32202808 1.79146062 -17.43093087 3.2212859 -23 5 C-23 4.01 -23 3.02 -23 2 C-15.00215193 -0.75335753 -8.38999374 -2.09749843 0 0 Z " fill="#DE8340" transform="translate(59,28)"/>
	

	

	<path d="M0 0 C4.62 0 9.24 0 14 0 C14 0.99 14 1.98 14 3 C12.02 3.33 10.04 3.66 8 4 C7.855625 4.94875 7.71125 5.8975 7.5625 6.875 C7 10 7 10 6 12 C5.34 11.34 4.68 10.68 4 10 C4.03287583 7.27130593 4.56397771 4.7033382 5 2 C3.35 1.67 1.7 1.34 0 1 C0 0.67 0 0.34 0 0 Z " fill="#DF9F3F" transform="translate(21,76)"/>
	

	

	

	

	

	

	

	

	

	

	<path d="M0 0 C3.63 0 7.26 0 11 0 C11 5.59061373 8.51717766 8.39853469 4.75 12.375 C4.1725 12.91125 3.595 13.4475 3 14 C2.34 13.67 1.68 13.34 1 13 C1.5053125 12.45730469 2.010625 11.91460937 2.53125 11.35546875 C3.1809375 10.64003906 3.830625 9.92460938 4.5 9.1875 C5.1496875 8.47980469 5.799375 7.77210937 6.46875 7.04296875 C8.29987759 5.02542907 8.29987759 5.02542907 8 2 C5.36 1.67 2.72 1.34 0 1 C0 0.67 0 0.34 0 0 Z " fill="#A4833A" transform="translate(87,84)"/>
	

	<path d="M0 0 C7.40036194 0.46252262 13.17852378 6.87718152 18 12 C12.90527781 10.69669898 10.62419311 8.71258806 7 5 C4.72344392 3.51880975 2.40454687 2.2729954 0 1 C0 0.67 0 0.34 0 0 Z " fill="#BFBEBC" transform="translate(88,0)"/>
	

	<path d="M0 0 C2.15377564 2.62198774 3.40072174 4.64404172 4 8 C0.70303895 9.09898702 -0.40494903 8.87124444 -3.6875 8.0625 C-4.49574219 7.86785156 -5.30398437 7.67320313 -6.13671875 7.47265625 C-6.75160156 7.31667969 -7.36648437 7.16070312 -8 7 C-8 6.34 -8 5.68 -8 5 C-5.03 5.33 -2.06 5.66 1 6 C0.67 4.02 0.34 2.04 0 0 Z " fill="#A4833A" transform="translate(99,47)"/>
	

	<path d="M0 0 C5.75920802 2.03266165 10.64272666 4.77757481 14 10 C9.57242604 9.49668786 7.42394796 8.00565648 4.1875 5 C3.39730469 4.278125 2.60710937 3.55625 1.79296875 2.8125 C0 1 0 1 0 0 Z " fill="#9C9C9C" transform="translate(102,11)"/>
	

	<path d="M0 0 C4.43323999 0.54004924 7.06441387 2.16903454 10.625 4.8125 C11.56601563 5.49957031 12.50703125 6.18664063 13.4765625 6.89453125 C15.75386339 8.79463215 17.3587008 10.54906664 19 13 C11.18208955 9.2358209 11.18208955 9.2358209 8.625 6.5625 C6.08797366 4.1230516 3.08139625 2.68604701 0 1 C0 0.67 0 0.34 0 0 Z " fill="#AB863A" transform="translate(75,28)"/>
	

	

	<path d="M0 0 C1.98 0 3.96 0 6 0 C5.1875 2.4375 5.1875 2.4375 4 5 C3.01 5.33 2.02 5.66 1 6 C0.34 5.67 -0.32 5.34 -1 5 C-0.67 3.35 -0.34 1.7 0 0 Z " fill="#D5AC6D" transform="translate(40,38)"/>
	

	

	<path d="M0 0 C0.99 0.66 1.98 1.32 3 2 C1.73760288 2.86658615 0.46472499 3.71792059 -0.8125 4.5625 C-1.87404297 5.27599609 -1.87404297 5.27599609 -2.95703125 6.00390625 C-5 7 -5 7 -8 6 C-5.51047079 3.33264727 -3.36591866 1.44253657 0 0 Z " fill="#4D4A42" transform="translate(29,24)"/>
	

	

	

	

	

	

	

	

	

	

	

	<path d="M0 0 C0.66 0.33 1.32 0.66 2 1 C-0.64 3.64 -3.28 6.28 -6 9 C-6 6 -6 6 -3.5625 3.375 C-2.716875 2.59125 -1.87125 1.8075 -1 1 C-0.67 0.67 -0.34 0.34 0 0 Z " fill="#3A3B39" transform="translate(17,11)"/>
	

	<path d="M0 0 C4.15252251 1.52259159 8.0377276 3.0188638 12 5 C8.04 5 4.08 5 0 5 C0 3.35 0 1.7 0 0 Z " fill="#A4833A" transform="translate(75,79)"/>
	

	

	

	

	<path d="M0 0 C3.465 2.97 3.465 2.97 7 6 C6.67 7.32 6.34 8.64 6 10 C4.99421411 8.71283353 3.99553202 7.42011342 3 6.125 C2.443125 5.40570313 1.88625 4.68640625 1.3125 3.9453125 C0 2 0 2 0 0 Z " fill="#C5C4C2" transform="translate(121,27)"/>
	

	

	

	

	

	

	

	

	

</svg>
