<?xml version="1.0" encoding="iso-8859-1"?>
<svg height="128" version="1.1" width="128" xmlns="http://www.w3.org/2000/svg">
	

	<path d="M0 0 C42.24 0 84.48 0 128 0 C128 42.24 128 84.48 128 128 C85.76 128 43.52 128 0 128 C0 85.76 0 43.52 0 0 Z " fill="#D28311" transform="translate(0,0)"/>
	

	<path d="M0 0 C15.58500416 -0.66257874 30.96176686 5.81093448 42.73046875 15.79296875 C50.38123 23.81435511 54.8424287 33.02929108 55.30078125 44.09765625 C55.02711024 54.64203945 49.86611179 64.33611897 42.67578125 71.91015625 C32.33046051 81.57336793 19.91807318 87.27520669 5.6484375 87.125 C-9.77273638 86.13530973 -23.36078924 81.80269428 -33.98828125 69.95703125 C-42.04854172 59.87313091 -45.77432418 51.38019852 -44.4921875 38.34765625 C-43.8415632 34.03131945 -42.69974112 30.17535508 -41.01171875 26.16015625 C-40.59921875 25.14953125 -40.18671875 24.13890625 -39.76171875 23.09765625 C-33.1943406 12.07384293 -22.2957408 4.69962023 -10.01171875 1.16015625 C-6.63661058 0.57085165 -3.40136067 0.27078794 0 0 Z " fill="#FBFAF5" transform="translate(55.01171875,18.83984375)"/>
	

	<path d="M0 0 C0.72832031 0.39703125 1.45664063 0.7940625 2.20703125 1.203125 C9.33239344 5.3805173 15.32933416 10.98800248 18 19 C18.76217224 27.38389464 17.2697745 33.37734242 12 40.0625 C6.15099884 46.47270596 -1.78935233 50.63839646 -10.43359375 51.23828125 C-22.43296717 51.57381232 -33.54806841 50.18805729 -42.9921875 42.05078125 C-47.81604238 37.12369212 -52.98492302 31.34016339 -53.26171875 24.12890625 C-52.22030694 15.65772066 -48.43188246 8.55997698 -42 3 C-29.73238413 -5.51133703 -13.23693542 -7.31952623 0 0 Z " fill="#D28311" transform="translate(75,38)"/>
	

	<path d="M0 0 C4.62059561 3.01343192 8.1114155 6.6874537 9.57421875 12.140625 C10.42816462 17.53976663 9.88909136 21.21494243 7 26 C2.70751467 30.69254064 -1.61869605 33.54274816 -8.05859375 34.21484375 C-13.07667817 34.43226509 -17.06866892 33.54839752 -21.7421875 31.7734375 C-24.04738885 30.98376645 -26.22043648 30.61679783 -28.625 30.25 C-35.0054976 28.94261258 -38.53268497 24.20097255 -42 19 C-42.70616377 13.04804824 -41.7875468 9.77860499 -38.58203125 4.76171875 C-28.91815084 -5.99978758 -11.89916431 -6.05396079 0 0 Z " fill="#FBFAF5" transform="translate(71,47)"/>
	

	<path d="M0 0 C0.86625 0.5775 1.7325 1.155 2.625 1.75 C10.76048871 9.45730509 17.02263916 20.78792238 17.5625 32.125 C16.79539957 44.30026061 9.91701779 54.71458888 1.125 62.8125 C-5.87531927 68.52508931 -13.27683227 72.64907536 -22 75 C-22.70640625 75.2165625 -23.4128125 75.433125 -24.140625 75.65625 C-35.47032561 78.75357822 -49.22808669 76.20770438 -59.5625 70.875 C-68.10742009 65.70143929 -75.56907097 59.41700685 -81 51 C-81.556875 50.195625 -82.11375 49.39125 -82.6875 48.5625 C-88.33323726 37.53987012 -87.73908809 28.24087793 -84.26171875 16.59375 C-82.54548869 11.70541671 -80.31949847 7.94947628 -77 4 C-76.52175781 3.40058594 -76.04351562 2.80117188 -75.55078125 2.18359375 C-55.04417193 -20.90571196 -22.88099961 -16.04756042 0 0 Z M-44.72265625 -11.82421875 C-56.61263343 -10.52399727 -67.87296886 -3.68254973 -76 5 C-82.74823116 13.75446205 -86.00483311 24.94683577 -85 36 C-83.52303363 43.40965481 -80.51207774 49.0032283 -76 55 C-75.278125 56.010625 -74.55625 57.02125 -73.8125 58.0625 C-64.29214672 69.01700906 -51.1256359 73.95244415 -37 75 C-29.23564072 75 -22.15600665 74.05122272 -15 71 C-14.33613281 70.72285156 -13.67226562 70.44570312 -12.98828125 70.16015625 C-1.79301793 65.03540899 7.65048193 56.09529674 13 45 C16.40691217 35.71373082 15.84304263 26.04487533 12 17 C5.326178 3.74504797 -5.44219962 -3.53057786 -19 -9 C-27.74675199 -11.61014186 -35.70897413 -12.40616379 -44.72265625 -11.82421875 Z " fill="#DBA959" transform="translate(95,31)"/>
	

	<path d="M0 0 C15.58500416 -0.66257874 30.96176686 5.81093448 42.73046875 15.79296875 C50.38123 23.81435511 54.8424287 33.02929108 55.30078125 44.09765625 C55.02711024 54.64203945 49.86611179 64.33611897 42.67578125 71.91015625 C32.33046051 81.57336793 19.91807318 87.27520669 5.6484375 87.125 C-9.77273638 86.13530973 -23.36078924 81.80269428 -33.98828125 69.95703125 C-42.04854172 59.87313091 -45.77432418 51.38019852 -44.4921875 38.34765625 C-43.8415632 34.03131945 -42.69974112 30.17535508 -41.01171875 26.16015625 C-40.59921875 25.14953125 -40.18671875 24.13890625 -39.76171875 23.09765625 C-33.1943406 12.07384293 -22.2957408 4.69962023 -10.01171875 1.16015625 C-6.63661058 0.57085165 -3.40136067 0.27078794 0 0 Z M-36.35546875 19.69921875 C-40.44878324 25.78126623 -42.47288527 32.8859043 -43.01171875 40.16015625 C-43.06328125 40.85625 -43.11484375 41.55234375 -43.16796875 42.26953125 C-43.61928729 53.176396 -38.65128224 62.58377277 -31.5625 70.66015625 C-20.23389852 81.61779596 -6.10279976 85.50318346 9.2578125 85.3125 C22.74325549 84.56009331 35.34861969 77.68744924 44.36328125 67.72265625 C51.84592285 58.26633237 53.76091305 50.10082956 52.98828125 38.16015625 C50.78362433 26.73760306 43.45711055 18.33745381 34.28125 11.640625 C11.63538188 -2.98081285 -18.42629251 -1.83048879 -36.35546875 19.69921875 Z " fill="#ECD4A9" transform="translate(55.01171875,18.83984375)"/>
	

	<path d="M0 0 C0.99 0.66 1.98 1.32 3 2 C3 2.66 3 3.32 3 4 C3.59425781 4.22816406 4.18851562 4.45632812 4.80078125 4.69140625 C7.60364073 6.35918232 8.57791372 8.11968957 10.1875 10.9375 C10.69667969 11.81277344 11.20585938 12.68804687 11.73046875 13.58984375 C14.26762952 18.40654589 14.61476032 22.66084874 14 28 C10.89781623 37.93341746 4.84269789 43.8097208 -4 49 C-14.25042519 53.78913308 -26.50124615 53.14553372 -37.18359375 50.1015625 C-46.91973971 46.2935276 -54.85025956 38.75279633 -59.5 29.4375 C-61.79204024 23.65800198 -60.6128561 19.26336693 -58.4375 13.625 C-54.72061139 5.74681218 -48.90763547 -0.39300838 -41 -4 C-40.38125 -4.29648437 -39.7625 -4.59296875 -39.125 -4.8984375 C-25.21746643 -10.6405631 -12.50763784 -6.68485601 0 0 Z M-52.75390625 7.140625 C-56.97545003 13.12199305 -60.04103742 19.21066783 -58.79296875 26.7578125 C-55.98442659 34.69920757 -49.42385163 42.08010551 -42 46 C-31.99145814 50.40375842 -19.13234856 52.44713389 -8.5 48.8125 C-7.345 48.214375 -6.19 47.61625 -5 47 C-4.33871094 46.6596875 -3.67742187 46.319375 -2.99609375 45.96875 C3.28134652 42.4429012 8.20534682 37.58930637 11.4375 31.125 C12.8660192 23.18878223 12.67181494 16.78019896 8 10 C5.64573501 7.22877725 5.64573501 7.22877725 3 5 C2.236875 4.319375 1.47375 3.63875 0.6875 2.9375 C-15.42050006 -8.67524423 -39.44316656 -9.10499939 -52.75390625 7.140625 Z " fill="#ECD4A9" transform="translate(81,39)"/>
	

	

	

	

</svg>
