<?xml version="1.0" encoding="iso-8859-1"?>
<svg height="128" version="1.1" width="128" xmlns="http://www.w3.org/2000/svg">
	

	<path d="M0 0 C42.24 0 84.48 0 128 0 C128 42.24 128 84.48 128 128 C85.76 128 43.52 128 0 128 C0 85.76 0 43.52 0 0 Z " fill="#D2E0E1" transform="translate(0,0)"/>
	

	<path d="M0 0 C4.62 0 9.24 0 14 0 C14.66 3.96 15.32 7.92 16 12 C20.19235047 13.04808762 20.88821394 12.91937901 24.6875 11.5 C29.75193559 9.87161215 33.84408009 9.63670507 39 11 C41.75 12.4375 41.75 12.4375 44 14 C45.65369357 14.69822617 47.31727014 15.37498605 49 16 C48.505 17.485 48.505 17.485 48 19 C46.68 18.67 45.36 18.34 44 18 C44 17.34 44 16.68 44 16 C41.60293877 15.89145383 39.21084162 15.81246843 36.8125 15.75 C36.13896484 15.71648438 35.46542969 15.68296875 34.77148438 15.6484375 C31.18317118 15.57842163 29.19142624 15.87967493 26.12890625 17.8046875 C22.5980207 21.44571077 21 25.04156174 21 30.125 C22.65366736 34.87929366 25.90808478 37.27205652 30 40 C32.63971948 40.35482301 32.63971948 40.35482301 35.5 40.3125 C36.4590625 40.32925781 37.418125 40.34601562 38.40625 40.36328125 C41.40121904 39.94380516 42.06817024 39.21282318 44 37 C48.18332634 37.12303901 51.8953286 39.2234816 55.640625 40.9453125 C59.03766643 42.46385751 62.50374567 43.72863479 66 45 C65.47599609 46.01320313 65.47599609 46.01320313 64.94140625 47.046875 C64.48636719 47.93890625 64.03132813 48.8309375 63.5625 49.75 C63.11003906 50.63171875 62.65757813 51.5134375 62.19140625 52.421875 C59.22960811 58.83101196 58.92030194 65.81773204 61.1875 72.5 C64.57699363 77.17516362 69.62380346 77.42330418 75.01171875 78.4375 C77 79 77 79 79 81 C78.625 83.625 78.625 83.625 78 86 C76.359375 86.74609375 76.359375 86.74609375 74 87 C71.203125 85.34765625 71.203125 85.34765625 68.25 83.0625 C67.26515625 82.31097656 66.2803125 81.55945313 65.265625 80.78515625 C64.51796875 80.19605469 63.7703125 79.60695313 63 79 C59.44004817 83.72059366 57.41589636 86.83171328 57.54296875 93.03515625 C58.39964942 96.71815093 60.94268524 97.96179016 64 100 C67 102 67 102 67.51171875 103.9453125 C67.67447917 105.96354167 67.83723958 107.98177083 68 110 C66.35 110.33 64.7 110.66 63 111 C62.01 109.02 61.02 107.04 60 105 C54.079911 105.69648106 50.32402289 108.40438267 46.5625 112.9375 C44.81537142 115.78886065 44.81537142 115.78886065 45 118.4375 C46.30763832 121.78832319 48.215421 124.87698674 50 128 C33.5 128 17 128 0 128 C0 85.76 0 43.52 0 0 Z " fill="#FDFDFD" transform="translate(0,0)"/>
	

	<path d="M0 0 C1.10408203 -0.00386719 1.10408203 -0.00386719 2.23046875 -0.0078125 C4.8125 0.125 4.8125 0.125 8.015625 0.6328125 C12.50784113 1.21513681 16.85387767 1.19603099 21.375 1.125 C23.0220658 1.09924448 24.66921487 1.0783004 26.31640625 1.0625 C27.03642822 1.05089844 27.7564502 1.03929687 28.49829102 1.02734375 C31.29125645 1.14520283 34.05508405 1.66543067 36.8125 2.125 C36.8125 41.065 36.8125 80.005 36.8125 120.125 C20.6425 120.125 4.4725 120.125 -12.1875 120.125 C-10.1875 115.125 -10.1875 115.125 -8.1875 112.125 C-8.41893352 108.65349718 -9.05542822 106.36272921 -10.75 103.3125 C-12.63062925 99.14240906 -12.45747349 95.62455809 -12.1875 91.125 C-8.1875 91.125 -8.1875 91.125 -6.25 92.625 C-4.26848608 94.28350957 -4.26848608 94.28350957 -1.75 94.625 C1.96348776 93.90041702 3.32977695 91.91806343 5.8125 89.125 C6.72 88.3825 7.6275 87.64 8.5625 86.875 C11.5555742 83.2167982 12.13950567 79.81208128 11.8125 75.125 C11.17456594 73.77768327 10.50876452 72.44311909 9.8125 71.125 C9.709375 69.990625 9.60625 68.85625 9.5 67.6875 C9.16618563 63.99318159 9.16618563 63.99318159 6.375 62 C2.82855956 58.02106682 2.94971283 54.40541814 2.34765625 49.2265625 C1.6554099 45.21456539 0.25342036 43.29819647 -2.1875 40.125 C-2.1875 38.805 -2.1875 37.485 -2.1875 36.125 C-0.4296875 34.73828125 -0.4296875 34.73828125 1.9375 33.4375 C7.05656295 30.21887906 10.37741708 26.70271823 12.8125 21.125 C13.78073062 16.50901683 13.47393209 13.3206657 11.1875 9.1875 C5.46302487 4.21624528 -1.00417751 4.89492917 -8.1875 5.125 C-6.18619635 0.69354192 -4.79897481 -0.01651971 0 0 Z " fill="#FDFDFD" transform="translate(91.1875,7.875)"/>
	

	<path d="M0 0 C2.37808023 2.81614764 3.85592341 5.47053151 5.375 8.8125 C5.87 9.3075 5.87 9.3075 6.375 9.8125 C6.44726502 11.66537502 6.4588122 13.52083878 6.4375 15.375 C6.42847656 16.38691406 6.41945312 17.39882813 6.41015625 18.44140625 C6.39855469 19.22386719 6.38695312 20.00632812 6.375 20.8125 C5.055 20.8125 3.735 20.8125 2.375 20.8125 C2.375 19.4925 2.375 18.1725 2.375 16.8125 C1.75625 16.68875 1.1375 16.565 0.5 16.4375 C-1.625 15.8125 -1.625 15.8125 -3.625 13.8125 C-4.615 13.8125 -5.605 13.8125 -6.625 13.8125 C-6.625 14.4725 -6.625 15.1325 -6.625 15.8125 C-5.820625 16.06 -5.01625 16.3075 -4.1875 16.5625 C-1.625 17.8125 -1.625 17.8125 -0.8125 19.9375 C-0.750625 20.55625 -0.68875 21.175 -0.625 21.8125 C0.035 21.8125 0.695 21.8125 1.375 21.8125 C2.365 24.7825 3.355 27.7525 4.375 30.8125 C4.705 30.8125 5.035 30.8125 5.375 30.8125 C6.035 28.8325 6.695 26.8525 7.375 24.8125 C12.125 25.5625 12.125 25.5625 14.375 27.8125 C14.74260731 30.14067964 15.07741581 32.4743385 15.375 34.8125 C15.705 35.1425 16.035 35.4725 16.375 35.8125 C16.824949 40.64945179 15.98127565 43.71692397 13.375 47.8125 C11.375 48.9375 11.375 48.9375 9.375 49.8125 C7.64074227 51.84567007 7.64074227 51.84567007 6.375 53.8125 C1.97570268 53.32368919 0.39305014 51.93115181 -2.625 48.8125 C-3.615 48.8125 -4.605 48.8125 -5.625 48.8125 C-6.8644756 55.91131481 -6.10123038 60.15609853 -3.625 66.8125 C-2.38905705 71.21554675 -2.28867267 73.91549131 -4.31640625 77.96484375 C-6.15473554 80.77022095 -7.11590618 81.66908884 -10.37841797 82.58813477 C-13.8059359 82.89430274 -17.12295263 82.90336311 -20.5625 82.8125 C-21.72974609 82.8434375 -22.89699219 82.874375 -24.09960938 82.90625 C-32.38151401 82.83074546 -32.38151401 82.83074546 -35.7734375 80.05322266 C-38.06997782 77.09406291 -39.56967561 74.97431219 -39.75 71.1875 C-36.97106981 65.32086959 -33.5774143 60.65584076 -27.625 57.8125 C-24.6875 58 -24.6875 58 -22.625 58.8125 C-21.965 61.1225 -21.305 63.4325 -20.625 65.8125 C-18.15 65.3175 -18.15 65.3175 -15.625 64.8125 C-15.625 61.1825 -15.625 57.5525 -15.625 53.8125 C-16.945 53.1525 -18.265 52.4925 -19.625 51.8125 C-21.875 50.6875 -21.875 50.6875 -23.625 48.8125 C-24.14750902 46.06789218 -24.12291273 43.55960473 -23.625 40.8125 C-22.125 38.8125 -22.125 38.8125 -20.625 37.8125 C-16.06104012 39.08616322 -13.25940083 40.83042753 -9.625 43.8125 C-7.9724521 44.51343342 -6.3070241 45.18558919 -4.625 45.8125 C-3.5127902 38.65933173 -3.5127902 38.65933173 -4.625 31.625 C-6.59329002 29.45914107 -6.59329002 29.45914107 -10 29.625 C-11.794375 29.7178125 -11.794375 29.7178125 -13.625 29.8125 C-17.67503091 28.70794612 -19.43335821 27.36617907 -21.625 23.8125 C-22.76675602 16.80525228 -21.71153244 9.20438621 -18.625 2.8125 C-16.25743691 -0.14695387 -13.67686551 -1.82832641 -10.0625 -3.0625 C-5.6379987 -3.2893975 -3.47580163 -2.89650136 0 0 Z " fill="#A8D0DB" transform="translate(83.625,46.1875)"/>
	

	<path d="M0 0 C0.495 0.99 0.495 0.99 1 2 C3.02463255 2.65213292 3.02463255 2.65213292 5 3 C5.08121094 2.37738281 5.16242188 1.75476563 5.24609375 1.11328125 C6 -1 6 -1 7.78515625 -2.08203125 C13.3383286 -3.86323747 17.29820869 -4.44960796 23 -3 C26.13664276 -0.90890482 26.85064107 0.56070904 28.0625 4.125 C27.97395527 9.61477337 26.06105624 13.49475312 23 18 C17.01053374 23.22485354 10.60306075 23.36789004 3 23 C1.9790625 22.443125 1.9790625 22.443125 0.9375 21.875 C-2.20718195 20.45482106 -4.7951114 22.02223738 -8 23 C-14.96966038 23.64533892 -21.21092654 21.85938231 -27 18 C-30.46418389 18.34641839 -32.04929881 19.03286587 -35 21 C-39.77873998 21.70735222 -44.41607257 21.82219066 -48.5625 19.125 C-51.01438997 16.9874549 -51.87834332 16.1908317 -52.203125 13.01171875 C-52.30046929 8.18506418 -52.27193341 4.83605986 -49 1 C-45.28298008 -2.17039935 -41.86603127 -2.50028027 -37.14453125 -2.375 C-34.04077471 -1.83226662 -32.31387089 -0.0494285 -30 2 C-27.87957244 2.1576585 -27.87957244 2.1576585 -26 1 C-25.401875 0.360625 -24.80375 -0.27875 -24.1875 -0.9375 C-16.8336129 -7.87116498 -7.38314504 -4.97232217 0 0 Z " fill="#A7CFDA" transform="translate(75,18)"/>
	

	<path d="M0 0 C36.63 0 73.26 0 111 0 C111 1.65 111 3.3 111 5 C105.34613116 5.79307663 99.78366019 6.08643046 94.078125 6.140625 C92.6263011 6.16008336 91.1744782 6.17961589 89.72265625 6.19921875 C87.47547235 6.22830053 85.22931895 6.25000445 82.98193359 6.25048828 C80.78394094 6.25382507 78.58822115 6.28832874 76.390625 6.328125 C74.4420459 6.34214355 74.4420459 6.34214355 72.45410156 6.35644531 C68.17298952 7.15408536 66.79691468 8.76008406 64 12 C61.6875 13.125 61.6875 13.125 59 13 C57.80881904 12.22388448 56.64510102 11.40512151 55.5 10.5625 C50.11307278 6.89938949 44.28911183 6.89709016 38 8 C35.14445983 10.43727882 35.14445983 10.43727882 33 13 C29.07851272 13 26.65612266 12.37279697 23.25 10.4375 C18.5263675 8.34820101 14.09302422 8.392784 9 9 C6.97843296 9.95564988 4.97033426 10.94274747 3 12 C0.625 11.1875 0.625 11.1875 -1 10 C-1.125 2.25 -1.125 2.25 0 0 Z " fill="#707870" transform="translate(17,0)"/>
	

	

	<path d="M0 0 C0.33 0.99 0.66 1.98 1 3 C4.00244359 5.04980832 5.92473182 5.13315059 9.4375 4.5 C13.23229208 3.98281159 15.62997781 3.91851571 19 6 C20.9375 7.8125 20.9375 7.8125 22 10 C21.375 12.4375 21.375 12.4375 20 15 C19.58878906 15.86415527 19.17757812 16.72831055 18.75390625 17.61865234 C17 20 17 20 14.50390625 20.64697266 C13.04791016 20.65543213 13.04791016 20.65543213 11.5625 20.6640625 C10.50289062 20.67050781 9.44328125 20.67695313 8.3515625 20.68359375 C6.69253906 20.65458984 6.69253906 20.65458984 5 20.625 C3.89398438 20.64433594 2.78796875 20.66367188 1.6484375 20.68359375 C0.58882812 20.67714844 -0.47078125 20.67070312 -1.5625 20.6640625 C-2.53316406 20.65842285 -3.50382812 20.6527832 -4.50390625 20.64697266 C-7 20 -7 20 -8.71484375 17.64599609 C-9.13894531 16.77281738 -9.56304687 15.89963867 -10 15 C-10.66 14.01 -11.32 13.02 -12 12 C-12 7.88671905 -10.9672086 5.58731762 -8.25 2.625 C-5.5336579 0.10549429 -3.78108852 -0.66725092 0 0 Z " fill="#8DAF94" transform="translate(59,108)"/>
	

	<path d="M0 0 C14.85 0 29.7 0 45 0 C45 1.65 45 3.3 45 5 C39.34613116 5.79307663 33.78366019 6.08643046 28.078125 6.140625 C26.6263011 6.16008336 25.1744782 6.17961589 23.72265625 6.19921875 C21.47547235 6.22830053 19.22931895 6.25000445 16.98193359 6.25048828 C14.78394094 6.25382507 12.58822115 6.28832874 10.390625 6.328125 C8.4420459 6.34214355 8.4420459 6.34214355 6.45410156 6.35644531 C2.17373388 7.15394667 0.82860918 8.79457566 -2 12 C-4.8125 12.8125 -4.8125 12.8125 -7 13 C-5.824375 12.1028125 -5.824375 12.1028125 -4.625 11.1875 C-1.85425677 9.08914751 -1.85425677 9.08914751 0 6 C0 4.02 0 2.04 0 0 Z " fill="#8EB095" transform="translate(83,0)"/>
	

	

	

	

	

	

	

	

	

	

	

	

</svg>
