<?xml version="1.0" encoding="iso-8859-1"?>
<svg height="128" version="1.1" width="128" xmlns="http://www.w3.org/2000/svg">
	

	<path d="M0 0 C42.24 0 84.48 0 128 0 C128 42.24 128 84.48 128 128 C85.76 128 43.52 128 0 128 C0 85.76 0 43.52 0 0 Z " fill="#FAFBF9" transform="translate(0,0)"/>
	

	<path d="M0 0 C1.08235428 -0.00637985 2.16470856 -0.0127597 3.27986145 -0.01933289 C4.46198715 -0.02044571 5.64411285 -0.02155853 6.86206055 -0.02270508 C8.07516403 -0.02603348 9.28826752 -0.02936188 10.53813171 -0.03279114 C13.11819071 -0.03786948 15.69825632 -0.04019919 18.27832031 -0.04003906 C22.19371733 -0.04220586 26.10882358 -0.06029714 30.02416992 -0.0793457 C32.5326325 -0.08228352 35.04109642 -0.08426571 37.54956055 -0.08520508 C39.28934929 -0.09598335 39.28934929 -0.09598335 41.06428528 -0.10697937 C48.54157826 -0.08638467 55.60339141 0.68371357 62.9362793 2.14526367 C62.9362793 2.80526367 62.9362793 3.46526367 62.9362793 4.14526367 C58.75359414 5.14197796 54.76859447 5.31304419 50.4753418 5.39135742 C49.01960662 5.42429612 47.5638776 5.45750776 46.1081543 5.4909668 C43.83508499 5.53828155 41.56204058 5.5827505 39.28881836 5.62207031 C37.07990653 5.66207989 34.87147965 5.71354428 32.6628418 5.76635742 C30.69178467 5.80394165 30.69178467 5.80394165 28.6809082 5.84228516 C24.7004009 6.16434863 21.66209839 6.7372266 17.9362793 8.14526367 C10.74485567 29.71953456 16.81489089 63.90826674 25.3112793 84.47338867 C28.33574672 89.96345454 32.45748634 95.01450626 37.9362793 98.14526367 C42.79966019 99.11777979 47.60493176 99.03676615 52.54174805 98.93432617 C53.95322409 98.92887384 55.36471278 98.9261022 56.77619934 98.9258728 C59.72106646 98.91817815 62.6644265 98.88738827 65.60888672 98.83813477 C69.37505604 98.77570023 73.13979083 98.75728804 76.90642834 98.75434303 C79.81567797 98.7496348 82.72462545 98.72883 85.63375282 98.70246506 C87.0223477 98.6904452 88.4109753 98.68171977 89.79961205 98.67641068 C91.74009141 98.66515071 93.68040149 98.63149958 95.62060547 98.59692383 C96.7223259 98.58247223 97.82404633 98.56802063 98.95915222 98.5531311 C102.33519574 98.09061198 104.24108747 97.21089879 106.9362793 95.14526367 C108.04718067 92.08788577 108.04718067 92.08788577 108.3737793 88.64526367 C108.53749023 87.50057617 108.70120117 86.35588867 108.86987305 85.17651367 C109.22974714 81.96494221 109.22974714 81.96494221 106.9362793 79.14526367 C104.71510527 78.68582833 104.71510527 78.68582833 102.1394043 78.73901367 C100.70081055 78.70614258 100.70081055 78.70614258 99.2331543 78.67260742 C98.22768555 78.66358398 97.2222168 78.65456055 96.1862793 78.64526367 C94.21215562 78.62727036 92.23810031 78.5963704 90.2644043 78.55151367 C89.386875 78.54442383 88.5093457 78.53733398 87.60522461 78.5300293 C84.9362793 78.14526367 84.9362793 78.14526367 78.9362793 75.14526367 C79.2662793 52.37526367 79.5962793 29.60526367 79.9362793 6.14526367 C92.17884201 4.61494333 104.59844228 5.14526367 116.9362793 5.14526367 C116.9362793 43.42526367 116.9362793 81.70526367 116.9362793 121.14526367 C115.9462793 121.14526367 114.9562793 121.14526367 113.9362793 121.14526367 C113.6062793 120.48526367 113.2762793 119.82526367 112.9362793 119.14526367 C109.33676729 117.94542634 106.05920785 118.00551388 102.31323242 118.01586914 C101.53686432 118.01411682 100.76049622 118.0123645 99.96060181 118.01055908 C97.37955516 118.00614215 94.79857673 118.00908484 92.2175293 118.01245117 C90.40319811 118.01177646 88.58886701 118.01080504 86.77453613 118.009552 C82.95116321 118.00807393 79.12781357 118.01022711 75.30444336 118.01489258 C70.48708172 118.02049393 65.66977651 118.01728678 60.85241699 118.01144028 C40.94110284 117.99107058 21.07023983 118.07442579 1.17858887 119.05545044 C-4.84584747 119.29675258 -4.84584747 119.29675258 -6.8079834 117.9324646 C-8.44722942 115.59944319 -8.3422087 114.38029867 -8.15551758 111.55004883 C-8.10327026 110.57804535 -8.05102295 109.60604187 -7.99719238 108.60458374 C-7.92633423 107.51714874 -7.85547607 106.42971375 -7.7824707 105.30932617 C-7.65674657 102.84510346 -7.53743972 100.38054847 -7.4230957 97.91577148 C-7.3912896 97.23860518 -7.35948349 96.56143887 -7.32671356 95.86375237 C-6.90450285 86.34556183 -6.86583679 76.81962717 -6.7824707 67.29370117 C-6.76367921 65.34759356 -6.74471666 63.4014876 -6.72558594 61.4553833 C-6.65804628 54.44816228 -6.59682415 47.4408901 -6.53765869 40.43359375 C-6.48680438 34.41595215 -6.43218487 28.39837167 -6.37184143 22.38081741 C-6.3453293 19.58156374 -6.32451988 16.78230357 -6.30383301 13.98300171 C-6.28725413 12.29148052 -6.27038449 10.59996215 -6.25317383 8.90844727 C-6.24898941 8.13159576 -6.24480499 7.35474426 -6.24049377 6.55435181 C-6.16824656 0.46884307 -6.02332048 0.02400588 0 0 Z " fill="#E85D29" transform="translate(11.063720703125,6.854736328125)"/>
	

	

	

	<path d="M0 0 C1.12100098 0.1222998 1.12100098 0.1222998 2.26464844 0.24707031 C3.50021484 0.37855469 3.50021484 0.37855469 4.76074219 0.51269531 C5.623125 0.61582031 6.48550781 0.71894531 7.37402344 0.82519531 C8.2209375 0.91285156 9.06785156 1.00050781 9.94042969 1.09082031 C21.42571455 2.37688642 21.42571455 2.37688642 24.12402344 5.07519531 C24.22798957 6.74698211 24.26255237 8.42314164 24.26928711 10.09814453 C24.27566696 11.16950653 24.28204681 12.24086853 24.28862 13.34469604 C24.28973282 14.51130768 24.29084564 15.67791931 24.29199219 16.87988281 C24.29532059 18.06993927 24.29864899 19.25999573 24.30207825 20.4861145 C24.30715299 23.00978202 24.30948641 25.53345629 24.30932617 28.05712891 C24.31151009 31.92654453 24.32965325 35.79567405 24.34863281 39.66503906 C24.35156707 42.11165267 24.35355165 44.55826763 24.35449219 47.00488281 C24.3616777 48.16744598 24.36886322 49.33000916 24.37626648 50.52780151 C24.37318985 51.60546783 24.37011322 52.68313416 24.36694336 53.79345703 C24.36836838 54.74308319 24.3697934 55.69270935 24.3712616 56.67111206 C24.12402344 59.07519531 24.12402344 59.07519531 22.12402344 62.07519531 C19.47949219 62.47363281 19.47949219 62.47363281 16.31152344 62.45019531 C14.75498047 62.46179688 14.75498047 62.46179688 13.16699219 62.47363281 C9.52940266 61.99733739 7.91517974 61.48343265 5.12402344 59.07519531 C0.72536381 52.30198717 -0.04181886 44.41221512 -1.06347656 36.57519531 C-1.22783203 35.4034375 -1.3921875 34.23167969 -1.56152344 33.02441406 C-4.01342936 15.33495514 -4.01342936 15.33495514 -4.06347656 7.63769531 C-4.07765625 6.62835938 -4.09183594 5.61902344 -4.10644531 4.57910156 C-3.82968411 1.57225523 -3.21404035 0.12882931 0 0 Z " fill="#E75E2A" transform="translate(46.8759765625,28.9248046875)"/>
	

	<path d="M0 0 C1.65864896 0.00374301 3.31730016 0.00658386 4.97595215 0.00857544 C9.2830445 0.01611073 13.58999595 0.0356687 17.89703369 0.0579834 C22.315451 0.07866322 26.7338917 0.08762384 31.15234375 0.09765625 C39.77871682 0.11892718 48.4049495 0.15402314 57.03125 0.1953125 C57.03125 5.1453125 57.03125 10.0953125 57.03125 15.1953125 C56.04125 15.1953125 55.05125 15.1953125 54.03125 15.1953125 C53.53625 14.2053125 53.53625 14.2053125 53.03125 13.1953125 C49.43173799 11.99547516 46.15417855 12.05556271 42.40820312 12.06591797 C41.63183502 12.06416565 40.85546692 12.06241333 40.05557251 12.06060791 C37.47452586 12.05619098 34.89354743 12.05913367 32.3125 12.0625 C30.49816881 12.06182529 28.68383772 12.06085387 26.86950684 12.05960083 C23.04613392 12.05812276 19.22278428 12.06027594 15.39941406 12.06494141 C10.58205242 12.07054276 5.76474721 12.0673356 0.9473877 12.06148911 C-18.96392646 12.04111941 -38.83478946 12.12447462 -58.72644043 13.10549927 C-64.71292115 13.34528114 -64.71292115 13.34528114 -66.78125 12.1328125 C-68.62231504 9.12896954 -67.5396296 6.55457003 -66.96875 3.1953125 C-66.05287109 3.17549316 -65.13699219 3.15567383 -64.19335938 3.13525391 C-60.71153942 3.05596233 -57.23005285 2.96925309 -53.74853516 2.87792969 C-52.25739364 2.84024395 -50.76617963 2.80530098 -49.27490234 2.7734375 C-47.09967485 2.72643731 -44.92492235 2.66871294 -42.75 2.609375 C-41.45126953 2.5779541 -40.15253906 2.5465332 -38.81445312 2.51416016 C-34.68275024 2.32297082 -30.6383736 1.75097475 -26.54296875 1.18164062 C-17.68041333 -0.00307454 -8.92789225 -0.06038606 0 0 Z " fill="#B5B110" transform="translate(70.96875,112.8046875)"/>
	

	

	<path d="M0 0 C40.59 0 81.18 0 123 0 C123 2.31 123 4.62 123 7 C120.12342845 9.87657155 110.38850552 8.24447969 106.1875 8.25 C104.97729691 8.25350464 104.97729691 8.25350464 103.74264526 8.25708008 C91.93148125 8.26985408 80.3117075 7.66105591 68.5625 6.5 C54.13209452 5.07688791 39.81103971 4.71668818 25.3125 4.75 C24.30099884 4.75104736 23.28949768 4.75209473 22.24734497 4.75317383 C19.39003429 4.7594746 16.53301418 4.77531122 13.67578125 4.796875 C12.37855133 4.80343109 12.37855133 4.80343109 11.05511475 4.81011963 C7.21684547 4.48487719 7.21684547 4.48487719 4 6 C3.76181092 8.79558764 3.58652925 11.56859046 3.45727539 14.36987305 C3.41545419 15.22435626 3.37363298 16.07883947 3.33054447 16.95921612 C2.91310173 25.99807543 2.77579429 35.03502537 2.68359375 44.08203125 C2.66291667 45.83738064 2.6419184 47.59272627 2.62062073 49.34806824 C2.56620272 53.91104757 2.51650927 58.47406632 2.46777344 63.03710938 C2.42736252 66.74187758 2.38343049 70.44660021 2.33933926 74.15132618 C2.28616467 78.6282135 2.23470188 83.10511992 2.18359375 87.58203125 C2.17403593 88.41284525 2.16447811 89.24365925 2.15463066 90.09964943 C2.04155488 100.06702768 1.97335845 110.03184215 2 120 C1.01 120.495 1.01 120.495 0 121 C0 81.07 0 41.14 0 0 Z " fill="#FAFBF9" transform="translate(0,0)"/>
	

	<path d="M0 0 C3.40312738 1.05875074 6.01353231 2.00902154 9 4 C11.78702825 4.30479485 11.78702825 4.30479485 14.98095703 4.25878906 C16.82900436 4.26824554 16.82900436 4.26824554 18.71438599 4.27789307 C20.06219627 4.27431088 21.41000525 4.27020833 22.7578125 4.265625 C24.14444039 4.26697312 25.53106782 4.26891489 26.91769409 4.27142334 C29.82798754 4.27437355 32.73815831 4.27008427 35.6484375 4.26074219 C39.35696386 4.24941134 43.06519867 4.25586691 46.77371407 4.26788712 C49.64098244 4.27516321 52.50818339 4.27279052 55.37545395 4.26763153 C56.74123037 4.26630754 58.10701313 4.26789836 59.47278214 4.27259064 C67.01614477 4.29280037 73.68089255 3.76818778 81 2 C83.54832466 2.37731162 85.57610998 3.07170169 88 4 C88 5.98 88 7.96 88 10 C86.64388611 10.01213028 86.64388611 10.01213028 85.26037598 10.02450562 C76.67101816 10.10298384 68.08180589 10.1904269 59.49263763 10.28752708 C55.07861875 10.33712227 50.66461966 10.38345004 46.25048828 10.421875 C41.97744051 10.45919933 37.70457506 10.50567494 33.4316864 10.55806351 C31.81494906 10.57636074 30.19817303 10.59155581 28.58137512 10.60334396 C19.07483659 10.67502792 9.87296057 11.26115997 0.45300293 12.55599976 C-3.53651901 13.06898765 -7.32438141 13.22996223 -11.34375 13.1953125 C-12.00918823 13.1924826 -12.67462646 13.18965271 -13.36022949 13.18673706 C-15.40703455 13.17588068 -17.45333615 13.15085773 -19.5 13.125 C-20.92056643 13.11492506 -22.34113998 13.10580738 -23.76171875 13.09765625 C-27.17463216 13.07605746 -30.58726674 13.04179119 -34 13 C-33.67 10.03 -33.34 7.06 -33 4 C-32.2575 4.825 -31.515 5.65 -30.75 6.5 C-28.12612615 9.44844853 -28.12612615 9.44844853 -24 9 C-23.34 8.34 -22.68 7.68 -22 7 C-19.84521484 6.68115234 -19.84521484 6.68115234 -17.2109375 6.5859375 C-16.26992188 6.54726562 -15.32890625 6.50859375 -14.359375 6.46875 C-13.37453125 6.4378125 -12.3896875 6.406875 -11.375 6.375 C-10.38242187 6.33632812 -9.38984375 6.29765625 -8.3671875 6.2578125 C-5.91164615 6.1633686 -3.4561159 6.07780125 -1 6 C0.15811388 3.05270463 0.15811388 3.05270463 0 0 Z " fill="#C72924" transform="translate(40,103)"/>
	

	<path d="M0 0 C1.65864896 0.00374301 3.31730016 0.00658386 4.97595215 0.00857544 C9.2830445 0.01611073 13.58999595 0.0356687 17.89703369 0.0579834 C22.315451 0.07866322 26.7338917 0.08762384 31.15234375 0.09765625 C39.77870957 0.11892716 48.40496212 0.15293634 57.03125 0.1953125 C57.03125 2.1753125 57.03125 4.1553125 57.03125 6.1953125 C34.7842381 7.80076697 12.43576051 7.5092147 -9.84375 6.7578125 C-11.03798584 6.71865723 -12.23222168 6.67950195 -13.46264648 6.63916016 C-14.55520752 6.59710449 -15.64776855 6.55504883 -16.7734375 6.51171875 C-17.73233887 6.47506104 -18.69124023 6.43840332 -19.67919922 6.40063477 C-21.96875 6.1953125 -21.96875 6.1953125 -23.96875 5.1953125 C-23.96875 4.5353125 -23.96875 3.8753125 -23.96875 3.1953125 C-27.26875 3.1953125 -30.56875 3.1953125 -33.96875 3.1953125 C-33.96875 2.8653125 -33.96875 2.5353125 -33.96875 2.1953125 C-22.58266211 0.48584867 -11.50340985 -0.07780622 0 0 Z " fill="#B9BA5A" transform="translate(70.96875,112.8046875)"/>
	

	<path d="M0 0 C4.83601581 0.00010342 9.67189064 -0.01377832 14.50787258 -0.03077221 C18.26616591 -0.04185645 22.024424 -0.04392066 25.78273201 -0.04339027 C27.56851774 -0.04456691 29.35430448 -0.04897087 31.14007378 -0.05672264 C33.61269423 -0.066491 36.08499185 -0.06366202 38.55761719 -0.05761719 C39.28627991 -0.06323669 40.01494263 -0.0688562 40.76568604 -0.074646 C44.43989113 -0.05175555 47.17141743 0.1573218 50.29418945 2.18530273 C50.29418945 2.84530273 50.29418945 3.50530273 50.29418945 4.18530273 C10.36418945 4.18530273 -29.56581055 4.18530273 -70.70581055 4.18530273 C-70.70581055 3.19530273 -70.70581055 2.20530273 -70.70581055 1.18530273 C-69.90143555 1.37092773 -69.09706055 1.55655273 -68.26831055 1.74780273 C-67.42268555 1.89217773 -66.57706055 2.03655273 -65.70581055 2.18530273 C-65.37581055 1.85530273 -65.04581055 1.52530273 -64.70581055 1.18530273 C-61.10664564 0.80254673 -57.47420762 0.75964642 -53.8581543 0.63452148 C-52.08649147 0.57176277 -52.08649147 0.57176277 -50.27903748 0.50773621 C-33.52438801 -0.0192833 -16.76137215 -0.00187896 0 0 Z " fill="#F4D138" transform="translate(74.705810546875,123.814697265625)"/>
	

	<path d="M0 0 C22.46754808 0.67067308 22.46754808 0.67067308 27.390625 5.59375 C27.63786316 8.10536194 27.63786316 8.10536194 27.63354492 11.31274414 C27.63815987 13.10954369 27.63815987 13.10954369 27.64286804 14.94264221 C27.63568253 16.24160934 27.62849701 17.54057648 27.62109375 18.87890625 C27.619902 20.21886653 27.61944878 21.55882766 27.6197052 22.89878845 C27.61814028 25.70739977 27.60984923 28.51588363 27.59643555 31.32446289 C27.57942927 34.9317292 27.57562166 38.53885557 27.57638073 42.14615726 C27.57610936 44.91272833 27.57063375 47.67926856 27.56337929 50.44582939 C27.55863273 52.42515054 27.55691461 54.4044782 27.55522156 56.38380432 C27.54884171 57.57851852 27.54246185 58.77323273 27.53588867 60.00415039 C27.53017097 61.59061119 27.53017097 61.59061119 27.52433777 63.2091217 C27.390625 65.59375 27.390625 65.59375 26.390625 66.59375 C19.13486931 67.88942066 12.48308404 68.48358608 6.015625 64.53125 C-2.54316981 54.95355104 -2.72188527 38.48117001 -4.296875 26.21875 C-4.42835937 25.20876953 -4.55984375 24.19878906 -4.6953125 23.15820312 C-6.54426994 8.07826531 -6.54426994 8.07826531 -4.46875 2.5625 C-2.609375 0.59375 -2.609375 0.59375 0 0 Z M-0.609375 2.59375 C-2.82706788 4.39659775 -2.82706788 4.39659775 -2.87060547 6.88012695 C-2.81517623 15.29044772 -1.90722915 23.45897641 -0.734375 31.78125 C-0.56035156 33.08255859 -0.38632812 34.38386719 -0.20703125 35.72460938 C1.45641958 49.88713875 1.45641958 49.88713875 7.390625 62.59375 C10.6895092 64.80282424 13.60283797 64.89182941 17.515625 64.90625 C18.57007812 64.92300781 19.62453125 64.93976563 20.7109375 64.95703125 C21.59523438 64.83714844 22.47953125 64.71726563 23.390625 64.59375 C25.61059657 61.26379265 25.6428897 60.20927931 25.64941406 56.32788086 C25.65571838 55.25344223 25.66202271 54.1790036 25.66851807 53.07200623 C25.6644696 51.91258011 25.66042114 50.75315399 25.65625 49.55859375 C25.65816345 48.36899551 25.6600769 47.17939728 25.66204834 45.95375061 C25.66341007 43.43783354 25.65971447 40.92190945 25.65136719 38.40600586 C25.6406584 34.54329751 25.65126805 30.68105329 25.6640625 26.81835938 C25.66274109 24.37760314 25.66017908 21.93684719 25.65625 19.49609375 C25.66029846 18.3346434 25.66434692 17.17319305 25.66851807 15.97654724 C25.66221375 14.90526077 25.65590942 13.8339743 25.64941406 12.73022461 C25.64782288 11.78441025 25.64623169 10.83859589 25.64459229 9.86412048 C25.60745434 7.39450198 25.60745434 7.39450198 23.390625 5.59375 C21.21970916 5.03928295 21.21970916 5.03928295 18.70703125 4.7421875 C17.77955078 4.61328125 16.85207031 4.484375 15.89648438 4.3515625 C14.43952148 4.16207031 14.43952148 4.16207031 12.953125 3.96875 C11.98568359 3.8346875 11.01824219 3.700625 10.02148438 3.5625 C4.7243266 2.83503893 4.7243266 2.83503893 -0.609375 2.59375 Z " fill="#EBC6B1" transform="translate(45.609375,26.40625)"/>
	

	<path d="M0 0 C0.99 0 1.98 0 3 0 C3 3.96 3 7.92 3 12 C-9.21 12.33 -21.42 12.66 -34 13 C-34 35.77 -34 58.54 -34 82 C-29.77770198 83.68891921 -28.05544521 84.24452078 -23.8046875 84.2734375 C-22.84175781 84.2940625 -21.87882812 84.3146875 -20.88671875 84.3359375 C-18.87118085 84.36207937 -16.85552447 84.38024827 -14.83984375 84.390625 C-13.87949219 84.41382812 -12.91914062 84.43703125 -11.9296875 84.4609375 C-11.05554199 84.46915527 -10.18139648 84.47737305 -9.28076172 84.48583984 C-7 85 -7 85 -5.18286133 86.83154297 C-3.439804 90.02696819 -4.14399942 92.23157592 -4.8125 95.75 C-5.02519531 96.92046875 -5.23789063 98.0909375 -5.45703125 99.296875 C-5.63621094 100.18890625 -5.81539062 101.0809375 -6 102 C-6.7971063 99.21635533 -7.08907922 96.82700736 -7 93.9375 C-6.79247553 90.09552714 -6.79247553 90.09552714 -8 87 C-8.80743652 86.98018066 -9.61487305 86.96036133 -10.44677734 86.93994141 C-14.08985875 86.84494101 -17.73234686 86.73516088 -21.375 86.625 C-22.64601563 86.5940625 -23.91703125 86.563125 -25.2265625 86.53125 C-26.43828125 86.49257812 -27.65 86.45390625 -28.8984375 86.4140625 C-30.01911621 86.3826416 -31.13979492 86.3512207 -32.29443359 86.31884766 C-35 86 -35 86 -37 84 C-37.23377991 81.65852356 -37.23377991 81.65852356 -37.21118164 78.68676758 C-37.20780289 77.5741304 -37.20442413 76.46149323 -37.20094299 75.31513977 C-37.18748337 74.10383896 -37.17402374 72.89253815 -37.16015625 71.64453125 C-37.15495468 70.39556564 -37.14975311 69.14660004 -37.14439392 67.85978699 C-37.12955012 64.52320361 -37.1066593 61.18689064 -37.07904053 57.85040283 C-37.03096909 51.9276823 -36.99874854 46.0048874 -36.97265625 40.08203125 C-36.96634186 38.8309256 -36.96002747 37.57981995 -36.95352173 36.290802 C-36.93724619 28.59324581 -37.15300692 20.99383231 -37.87670898 13.33081055 C-37.93773804 12.17705933 -37.93773804 12.17705933 -38 11 C-35.96130076 8.96130076 -31.8373824 9.60344741 -29.02734375 9.46484375 C-27.83087975 9.40037804 -27.83087975 9.40037804 -26.61024475 9.33460999 C-24.05287441 9.19783674 -21.49521758 9.06760217 -18.9375 8.9375 C-17.20765957 8.84613234 -15.47784145 8.75434106 -13.74804688 8.66210938 C-9.49894169 8.43648282 -5.24956832 8.21672136 -1 8 C-0.67 5.36 -0.34 2.72 0 0 Z " fill="#E4A88B" transform="translate(125,0)"/>
	

	<path d="M0 0 C1.08235428 -0.00637985 2.16470856 -0.0127597 3.27986145 -0.01933289 C4.46198715 -0.02044571 5.64411285 -0.02155853 6.86206055 -0.02270508 C8.07516403 -0.02603348 9.28826752 -0.02936188 10.53813171 -0.03279114 C13.11819071 -0.03786948 15.69825632 -0.04019919 18.27832031 -0.04003906 C22.19371733 -0.04220586 26.10882358 -0.06029714 30.02416992 -0.0793457 C32.5326325 -0.08228352 35.04109642 -0.08426571 37.54956055 -0.08520508 C39.28934929 -0.09598335 39.28934929 -0.09598335 41.06428528 -0.10697937 C48.54157826 -0.08638467 55.60339141 0.68371357 62.9362793 2.14526367 C62.9362793 2.80526367 62.9362793 3.46526367 62.9362793 4.14526367 C58.75359414 5.14197796 54.76859447 5.31304419 50.4753418 5.39135742 C49.01960662 5.42429612 47.5638776 5.45750776 46.1081543 5.4909668 C43.83508499 5.53828155 41.56204058 5.5827505 39.28881836 5.62207031 C37.07990653 5.66207989 34.87147965 5.71354428 32.6628418 5.76635742 C30.69178467 5.80394165 30.69178467 5.80394165 28.6809082 5.84228516 C24.81656097 6.1549501 21.57123194 6.79889077 17.9362793 8.14526367 C16.9462793 9.63026367 16.9462793 9.63026367 15.9362793 11.14526367 C15.9362793 9.49526367 15.9362793 7.84526367 15.9362793 6.14526367 C17.9162793 5.15526367 19.8962793 4.16526367 21.9362793 3.14526367 C13.3562793 3.14526367 4.7762793 3.14526367 -4.0637207 3.14526367 C-4.3937207 38.12526367 -4.7237207 73.10526367 -5.0637207 109.14526367 C-5.7237207 109.14526367 -6.3837207 109.14526367 -7.0637207 109.14526367 C-6.95661079 95.08103144 -6.84380714 81.01685486 -6.72438145 66.9527216 C-6.66910146 60.42292574 -6.6156735 53.89312546 -6.56640625 47.36328125 C-6.51883739 41.06741223 -6.46649758 34.77159965 -6.41077995 28.47579765 C-6.3903224 26.06793044 -6.37161509 23.66004773 -6.35464668 21.2521534 C-6.33067769 17.89232882 -6.30061324 14.53261206 -6.26904297 11.17285156 C-6.26328751 10.16656708 -6.25753204 9.16028259 -6.25160217 8.12350464 C-6.24181335 7.21340134 -6.23202454 6.30329803 -6.22193909 5.36561584 C-6.21548654 4.5701085 -6.20903399 3.77460115 -6.2023859 2.95498753 C-5.90955994 -0.86669321 -3.23131843 0.01287839 0 0 Z " fill="#DB7C58" transform="translate(11.063720703125,6.854736328125)"/>
	

	

	

	<path d="M0 0 C1.65864896 0.00374301 3.31730016 0.00658386 4.97595215 0.00857544 C9.2830445 0.01611073 13.58999595 0.0356687 17.89703369 0.0579834 C22.315451 0.07866322 26.7338917 0.08762384 31.15234375 0.09765625 C39.77870957 0.11892716 48.40496212 0.15293634 57.03125 0.1953125 C57.03125 1.1853125 57.03125 2.1753125 57.03125 3.1953125 C46.64295758 3.34967338 36.25459668 3.49784784 25.86610603 3.6382761 C21.04154782 3.70368409 16.21703779 3.77116714 11.39257812 3.84350586 C6.73069977 3.91332857 2.06877389 3.9775523 -2.59323502 4.03800774 C-4.36571138 4.06195487 -6.13816237 4.08786863 -7.91057968 4.11584663 C-16.67667297 4.25300328 -25.25614204 4.34948046 -33.96875 3.1953125 C-33.96875 2.8653125 -33.96875 2.5353125 -33.96875 2.1953125 C-22.58266211 0.48584867 -11.50340985 -0.07780622 0 0 Z " fill="#DB7C58" transform="translate(70.96875,112.8046875)"/>
	

	<path d="M0 0 C13.86 0 27.72 0 42 0 C42 0.66 42 1.32 42 2 C42.66 2.33 43.32 2.66 44 3 C39.04538717 4.93020897 34.59827949 5.42070137 29.35546875 5.66796875 C28.13988029 5.73386955 28.13988029 5.73386955 26.8997345 5.80110168 C25.19809416 5.8915063 23.4962331 5.97783907 21.79418945 6.06030273 C19.1778945 6.18796871 16.56269165 6.33032859 13.94726562 6.47460938 C12.29171143 6.56076041 10.63611355 6.6460768 8.98046875 6.73046875 C7.80244942 6.79442085 7.80244942 6.79442085 6.60063171 6.85966492 C4.73519862 6.94671785 2.86734558 6.97903959 1 7 C0.67 6.67 0.34 6.34 0 6 C0 4.02 0 2.04 0 0 Z " fill="#7A842E" transform="translate(5,116)"/>
	

	

	

	

	

	

	

	

	

	

	

	

	

	

	

	

	

	

	

	

</svg>
