<?xml version="1.0" encoding="iso-8859-1"?>
<svg height="128" version="1.1" width="128" xmlns="http://www.w3.org/2000/svg">
	

	<path d="M0 0 C42.24 0 84.48 0 128 0 C128 42.24 128 84.48 128 128 C85.76 128 43.52 128 0 128 C0 85.76 0 43.52 0 0 Z " fill="#F9F9F8" transform="translate(0,0)"/>
	

	<path d="M0 0 C2.37753649 1.46124454 4.00696783 3.00696783 6 5 C5.86328125 6.87890625 5.86328125 6.87890625 5 9 C2.41796875 10.08984375 2.41796875 10.08984375 -0.8125 10.9375 C-5.68939457 12.42830427 -8.49591605 13.31845175 -11 18 C-13.55425622 22.84427903 -14.58637726 25.7120758 -13 31 C-10.34623156 38.45517422 -6.66968254 45.11067478 0.3125 49.25 C5.16174021 51.46439293 10.413059 51.98400472 15.63769531 52.78393555 C20.94328211 53.6528738 25.14206506 55.18413911 29.83984375 57.859375 C33.11691775 59.58976489 36.38288622 60.26318053 40 61 C39.96877057 59.03243548 39.96877057 59.03243548 39 57 C37.00976573 56.30472165 35.00766663 55.64321004 33 55 C30.82145352 53.38501573 28.90379106 51.8359205 26.9375 50 C26.41309326 49.51595703 25.88868652 49.03191406 25.34838867 48.53320312 C18.07647176 41.52884539 15.048563 33.59709166 14.5 23.625 C14.26219198 19.31897615 13.97432847 15.20585125 13 11 C15.66835522 11.5973477 18.33449363 12.20267117 21 12.8125 C21.74378906 12.97814453 22.48757812 13.14378906 23.25390625 13.31445312 C30.86662238 15.06868771 37.62157738 17.32249008 44 22 C45.2375 22.8353125 45.2375 22.8353125 46.5 23.6875 C52.03733784 28.8095375 55.39630585 35.34292054 58.23828125 42.25 C58.86913936 43.99118764 58.86913936 43.99118764 60 45 C60.24231438 49.07859165 60.22852755 53.16065609 60.24023438 57.24584961 C60.24991199 59.29387457 60.28090824 61.34088393 60.3125 63.38867188 C60.32023437 65.32516602 60.32023437 65.32516602 60.328125 67.30078125 C60.3374707 68.48841064 60.34681641 69.67604004 60.35644531 70.8996582 C59.96526886 74.30208954 59.20526389 75.4725565 57 78 C56.1962363 80.21035018 55.45138821 82.44256379 54.75 84.6875 C49.90751807 98.5952234 39.05161521 108.50181583 26 115 C15.86724042 119.13090523 6.39596881 119.63222543 -4.3515625 119.6796875 C-5.98491139 119.69980101 -7.61824349 119.72132185 -9.2515564 119.74417114 C-12.64508254 119.78763832 -16.03838798 119.81834925 -19.43212891 119.83886719 C-23.78246388 119.86563248 -28.1319929 119.91870165 -32.48195839 119.98036003 C-35.84127173 120.02619809 -39.20062738 120.06153536 -42.56010056 120.09332657 C-44.16531421 120.10917697 -45.77050496 120.12755822 -47.37565994 120.14852524 C-49.60808833 120.17548347 -51.84019244 120.18906466 -54.07275391 120.19873047 C-55.34148346 120.20887177 -56.61021301 120.21901306 -57.91738892 120.22946167 C-61 120 -61 120 -64 118 C-64.36749268 114.97035217 -64.36749268 114.97035217 -64.35644531 111.02758789 C-64.35848969 110.31035049 -64.36053406 109.5931131 -64.36264038 108.85414124 C-64.36565515 106.47672252 -64.3471493 104.09999286 -64.328125 101.72265625 C-64.32506809 100.07360506 -64.32319145 98.42455129 -64.32244873 96.77549744 C-64.31784109 93.31613309 -64.30339922 89.85700094 -64.28125 86.39770508 C-64.25298939 81.96109463 -64.24204114 77.5246674 -64.2375679 73.0879755 C-64.23341207 69.68137271 -64.22359285 66.27480704 -64.21169281 62.86822319 C-64.20599079 61.2323378 -64.20123185 59.59644884 -64.19742584 57.96055794 C-64.1905566 55.67424373 -64.17692038 53.3880745 -64.16113281 51.10180664 C-64.15430481 49.79989883 -64.14747681 48.49799103 -64.14044189 47.15663147 C-64 44 -64 44 -63 41 C-60.1844793 41.30166293 -59.08687684 41.91312316 -57.0625 43.9375 C-55.37594133 46.44178408 -54.0934904 48.75547639 -52.7890625 51.45703125 C-37.58482133 84.33829032 -37.58482133 84.33829032 -12 108 C-11.01 108 -10.02 108 -9 108 C-8.65973449 103.46312657 -9.59832771 100.41203078 -11.26977539 96.23022461 C-13.74431809 88.67256913 -12.98615232 80.25698851 -12.73266602 72.43066406 C-12.39103119 60.35491895 -12.81673285 50.02897619 -17.59814453 38.82275391 C-22.26206751 27.70977554 -18.08927478 16.97412081 -13.91796875 6.20703125 C-10.76538321 -1.21984629 -7.90839131 -2.00027988 0 0 Z " fill="#E4492F" transform="translate(68,4)"/>
	

	

	

	

	<path d="M0 0 C2.15429395 4.12714271 2.71896061 8.57310353 3.40234375 13.125 C3.5255751 13.90834717 3.64880646 14.69169434 3.77577209 15.4987793 C4.1686034 17.99835254 4.55382749 20.49900574 4.9375 23 C5.44101641 26.27173201 5.94915731 29.54266311 6.46484375 32.8125 C6.65204735 34.00000603 6.65204735 34.00000603 6.84303284 35.21150208 C7.78059291 41.00260671 8.98893987 46.66603259 10.43310547 52.35424805 C11.2140088 55.9987999 11.21824974 59.28975438 11 63 C6.18612054 62.1541537 4.1798628 59.07091595 1.3125 55.375 C0.78575684 54.70275391 0.25901367 54.03050781 -0.28369141 53.33789062 C-8.20477466 43.03255891 -14.22612158 32.43773956 -18.7109375 20.2421875 C-19.8925937 16.99626606 -19.8925937 16.99626606 -21.69140625 14.26171875 C-23 12 -23 12 -22.5625 8.9375 C-19.88089581 3.89608413 -15.66129859 2.11972308 -10.5 0.1875 C-6.68354036 -0.97738903 -3.83443873 -1.49636633 0 0 Z " fill="#E4492F" transform="translate(30,6)"/>
	

	

	

	

	

	

	

</svg>
