<?xml version="1.0" encoding="iso-8859-1"?>
<svg height="128" version="1.1" width="128" xmlns="http://www.w3.org/2000/svg">
	

	

	<path d="M0 0 C8.19817505 7.10992173 14.41075859 14.12054597 15.8984375 25.171875 C15.4609375 27.921875 15.4609375 27.921875 13.7734375 30.359375 C11.4609375 31.921875 11.4609375 31.921875 8.9609375 31.984375 C5.54846162 30.53407275 4.43230847 29.07606855 2.4609375 25.921875 C1.97468233 24.43069247 1.51815423 22.92960778 1.0859375 21.421875 C-0.75261996 15.43910964 -4.0177302 13.46905619 -9.2890625 10.234375 C-15.52669589 7.71533075 -21.90944675 6.05198338 -28.5390625 7.921875 C-31.11354336 10.49635586 -30.54385517 16.09880857 -30.63671875 19.52709961 C-30.62511719 20.78014893 -30.61351562 22.03319824 -30.6015625 23.32421875 C-30.59777588 24.00561417 -30.59398926 24.68700958 -30.59008789 25.38905334 C-30.57392706 28.26978271 -30.54575806 31.15036303 -30.51855469 34.03100586 C-30.38936202 49.03265417 -30.38936202 49.03265417 -31.5390625 55.921875 C-33.6015625 56.796875 -33.6015625 56.796875 -36.5390625 56.921875 C-42.86353814 53.31446778 -47.194106 46.56576081 -51.5390625 40.921875 C-52.42791518 39.79677464 -53.31863151 38.67314479 -54.2109375 37.55078125 C-56.56151523 34.59204918 -58.89254988 31.61894376 -61.20947266 28.63378906 C-62.07338135 27.521463 -62.94009214 26.41130557 -63.81005859 25.30371094 C-64.96147229 23.83202108 -66.09453947 22.34603179 -67.2265625 20.859375 C-67.86980469 20.02277344 -68.51304688 19.18617187 -69.17578125 18.32421875 C-70.71742839 15.60756262 -70.82938663 13.99492851 -70.5390625 10.921875 C-68.3515625 10.109375 -68.3515625 10.109375 -65.5390625 9.921875 C-63.2890625 11.796875 -63.2890625 11.796875 -62.05078125 13.20703125 C-60.1750234 15.33482891 -58.14103855 17.26322311 -56.1015625 19.234375 C-52.56238591 22.74410752 -49.59080988 26.34425393 -46.828125 30.48828125 C-46.40273438 30.96136719 -45.97734375 31.43445313 -45.5390625 31.921875 C-44.5490625 31.921875 -43.5590625 31.921875 -42.5390625 31.921875 C-42.77689453 30.87580078 -42.77689453 30.87580078 -43.01953125 29.80859375 C-44.62905174 20.86546862 -43.67602649 12.10841987 -41.8515625 3.296875 C-41.62883667 2.14215698 -41.62883667 2.14215698 -41.40161133 0.96411133 C-40.52960831 -2.88933185 -39.91599356 -4.70472767 -37.0390625 -7.5546875 C-25.12376246 -14.81557346 -9.65529018 -7.90248366 0 0 Z " fill="#F3F3F3" transform="translate(83.5390625,40.078125)"/>
	

	

	

	<path d="M0 0 C5.61 0 11.22 0 17 0 C17 5.94 17 11.88 17 18 C11.29022294 17.04837049 9.39696435 16.34551635 5 13 C4.236875 12.443125 3.47375 11.88625 2.6875 11.3125 C0.07857832 7.73731103 0.2574907 4.37734196 0 0 Z " fill="#F4F4F4" transform="translate(111,0)"/>
	

	

	<path d="M0 0 C0.33 0 0.66 0 1 0 C1 5.28 1 10.56 1 16 C-3.29 16 -7.58 16 -12 16 C-10.44044119 12.88088239 -9.35260654 11.06134361 -7.125 8.5625 C-5.24480102 6.42946253 -3.44879949 4.29982638 -1.6875 2.0625 C-1.130625 1.381875 -0.57375 0.70125 0 0 Z " fill="#F4F4F4" transform="translate(127,112)"/>
	

	

	

	

	

	

</svg>
