<?xml version="1.0" encoding="iso-8859-1"?>
<svg height="128" version="1.1" width="128" xmlns="http://www.w3.org/2000/svg">
	

	<path d="M0 0 C42.24 0 84.48 0 128 0 C128 42.24 128 84.48 128 128 C85.76 128 43.52 128 0 128 C0 85.76 0 43.52 0 0 Z " fill="#424241" transform="translate(0,0)"/>
	

	<path d="M0 0 C3.60083959 3.68657386 9 9.62575399 9 15 C9.763125 15.144375 10.52625 15.28875 11.3125 15.4375 C14.55157756 17.32068463 14.50975536 18.01816319 15.4375 21.5 C16.04506191 23.93324164 16.04506191 23.93324164 17 26 C18.010625 26.33 19.02125 26.66 20.0625 27 C21.031875 27.33 22.00125 27.66 23 28 C24.16116182 30.93288761 24.6273558 33.87749857 25 37 C28.20211302 37.12126781 28.20211302 37.12126781 32 36 C32.99 42.435 32.99 42.435 34 49 C35.98 49.66 37.96 50.32 40 51 C41.94090826 52.94090826 41.39919435 56.47293902 41.5625 59.0625 C41.64628906 60.35285156 41.73007813 61.64320312 41.81640625 62.97265625 C41.87699219 63.97167969 41.93757813 64.97070312 42 66 C43.65 66 45.3 66 47 66 C47.08172936 68.5215021 47.14083373 71.04029917 47.1875 73.5625 C47.21263672 74.26697266 47.23777344 74.97144531 47.26367188 75.69726562 C47.33518062 80.86973128 46.6929585 84.52302707 44 89 C39.9200066 90.75510938 36.40898172 91.24819678 31.99609375 91.23046875 C30.20413574 91.22877686 30.20413574 91.22877686 28.37597656 91.22705078 C26.42643066 91.20747314 26.42643066 91.20747314 24.4375 91.1875 C23.06087431 91.17920011 21.68424658 91.17123419 20.30761719 91.16357422 C15.5381009 91.13021674 10.76916368 91.06561708 6 91 C5.05642639 90.98797546 4.11285278 90.97595093 3.14068604 90.96356201 C-2.97383252 90.88509213 -9.08786972 90.79128866 -15.20187378 90.67959595 C-17.23106146 90.64325053 -19.26030103 90.60969348 -21.2895813 90.57894897 C-24.15687982 90.53373197 -27.0236378 90.47567828 -29.890625 90.4140625 C-30.7528215 90.40249619 -31.61501801 90.39092987 -32.50334167 90.37901306 C-33.30177994 90.35915848 -34.1002182 90.33930389 -34.92285156 90.31884766 C-35.61687073 90.30552399 -36.31088989 90.29220032 -37.02593994 90.2784729 C-39.37010705 89.94779045 -40.98499977 89.23181236 -43 88 C-44.1754864 85.64902719 -44.20775068 84.05716297 -44.33227539 81.43359375 C-44.37804214 80.48500488 -44.4238089 79.53641602 -44.47096252 78.55908203 C-44.64810861 74.19441408 -44.80451383 69.82947263 -44.94213867 65.46337891 C-45.02190392 63.16814601 -45.11806508 60.87342 -45.23120117 58.57958984 C-46.2836792 37.05431548 -46.2836792 37.05431548 -41.42578125 30.90234375 C-39.99443238 29.55339394 -38.52033151 28.24780498 -37 27 C-35.81941606 25.72473383 -34.65437838 24.43484229 -33.5078125 23.12890625 C-32.38406173 21.93646097 -31.25642651 20.7476648 -30.125 19.5625 C-25.03659973 14.20968187 -25.03659973 14.20968187 -20.12109375 8.69921875 C-8.54511545 -4.64408448 -8.54511545 -4.64408448 0 0 Z " fill="#E30E16" transform="translate(68,11)"/>
	

	<path d="M0 0 C1.65 0 3.3 0 5 0 C8.31893336 6.90922605 10.31044106 14.2036079 12.125 21.625 C12.30563995 22.36257538 12.48627991 23.10015076 12.6723938 23.8600769 C18.11963483 47.09608366 17.11015267 71.54529908 16.93843079 95.27952576 C16.93288681 96.38554642 16.92734283 97.49156708 16.92163086 98.63110352 C16.9130455 99.59951675 16.90446014 100.56792999 16.89561462 101.56568909 C16.8941621 104.14131033 16.8941621 104.14131033 18 107 C20.91955452 107.97318484 22.89098469 108.15175389 25.93603516 108.20532227 C26.94203766 108.22526749 27.94804016 108.24521271 28.98452759 108.26576233 C30.62027237 108.29083107 30.62027237 108.29083107 32.2890625 108.31640625 C33.42088959 108.33718735 34.55271667 108.35796844 35.71884155 108.37937927 C38.1246969 108.42268289 40.53059393 108.46371988 42.93652344 108.50268555 C46.56194971 108.56147754 50.18720988 108.62674715 53.8125 108.69335938 C77.57084083 109.47899519 77.57084083 109.47899519 101.25 108.0625 C102.03761719 107.97548828 102.82523437 107.88847656 103.63671875 107.79882812 C107.47346485 107.36209902 111.21502721 106.77175864 115 106 C117.0625 105.796875 117.0625 105.796875 119 105.75 C119.639375 105.72421875 120.27875 105.6984375 120.9375 105.671875 C123 106 123 106 128 109 C128 115.27 128 121.54 128 128 C85.76 128 43.52 128 0 128 C0 85.76 0 43.52 0 0 Z " fill="#FAFBFA" transform="translate(0,0)"/>
	

	

	<path d="M0 0 C3.60083959 3.68657386 9 9.62575399 9 15 C9.763125 15.144375 10.52625 15.28875 11.3125 15.4375 C14.55157756 17.32068463 14.50975536 18.01816319 15.4375 21.5 C16.04506191 23.93324164 16.04506191 23.93324164 17 26 C18.010625 26.33 19.02125 26.66 20.0625 27 C21.031875 27.33 22.00125 27.66 23 28 C24.16116182 30.93288761 24.6273558 33.87749857 25 37 C28.20211302 37.12126781 28.20211302 37.12126781 32 36 C32.99 42.435 32.99 42.435 34 49 C35.98 49.66 37.96 50.32 40 51 C41.94090826 52.94090826 41.39919435 56.47293902 41.5625 59.0625 C41.64628906 60.35285156 41.73007813 61.64320312 41.81640625 62.97265625 C41.87699219 63.97167969 41.93757813 64.97070312 42 66 C43.65 66 45.3 66 47 66 C47.08172936 68.5215021 47.14083373 71.04029917 47.1875 73.5625 C47.21263672 74.26697266 47.23777344 74.97144531 47.26367188 75.69726562 C47.33518062 80.86973128 46.6929585 84.52302707 44 89 C39.9200066 90.75510938 36.40898172 91.24819678 31.99609375 91.23046875 C30.20413574 91.22877686 30.20413574 91.22877686 28.37597656 91.22705078 C26.42643066 91.20747314 26.42643066 91.20747314 24.4375 91.1875 C23.06087431 91.17920011 21.68424658 91.17123419 20.30761719 91.16357422 C15.5381009 91.13021674 10.76916368 91.06561708 6 91 C5.05642639 90.98797546 4.11285278 90.97595093 3.14068604 90.96356201 C-2.97383252 90.88509213 -9.08786972 90.79128866 -15.20187378 90.67959595 C-17.23106146 90.64325053 -19.26030103 90.60969348 -21.2895813 90.57894897 C-24.15687982 90.53373197 -27.0236378 90.47567828 -29.890625 90.4140625 C-30.7528215 90.40249619 -31.61501801 90.39092987 -32.50334167 90.37901306 C-33.30177994 90.35915848 -34.1002182 90.33930389 -34.92285156 90.31884766 C-35.61687073 90.30552399 -36.31088989 90.29220032 -37.02593994 90.2784729 C-39.37010705 89.94779045 -40.98499977 89.23181236 -43 88 C-44.1754864 85.64902719 -44.20775068 84.05716297 -44.33227539 81.43359375 C-44.37804214 80.48500488 -44.4238089 79.53641602 -44.47096252 78.55908203 C-44.64810861 74.19441408 -44.80451383 69.82947263 -44.94213867 65.46337891 C-45.02190392 63.16814601 -45.11806508 60.87342 -45.23120117 58.57958984 C-46.2836792 37.05431548 -46.2836792 37.05431548 -41.42578125 30.90234375 C-39.99443238 29.55339394 -38.52033151 28.24780498 -37 27 C-35.81941606 25.72473383 -34.65437838 24.43484229 -33.5078125 23.12890625 C-32.38406173 21.93646097 -31.25642651 20.7476648 -30.125 19.5625 C-25.03659973 14.20968187 -25.03659973 14.20968187 -20.12109375 8.69921875 C-8.54511545 -4.64408448 -8.54511545 -4.64408448 0 0 Z M-7 12 C-12.06240696 17.46401753 -17.01698116 22.94406193 -21.6875 28.75 C-24.75075593 32.55602772 -27.90204193 36.0545411 -31.4921875 39.3671875 C-35.69976243 43.92357694 -36.45803636 47.94888894 -36.43359375 54.00390625 C-36.4388356 54.76420639 -36.44407745 55.52450653 -36.44947815 56.30784607 C-36.45587933 57.90891299 -36.45458604 59.51002705 -36.44604492 61.11108398 C-36.43751349 63.55862943 -36.46635289 66.00385547 -36.49804688 68.45117188 C-36.49965858 70.01041597 -36.49908193 71.56966419 -36.49609375 73.12890625 C-36.50732773 73.85815811 -36.51856171 74.58740997 -36.53013611 75.33876038 C-36.48409603 78.69711574 -36.22630765 80.67813524 -34.2746582 83.45385742 C-31.64692898 85.23999128 -30.26421409 85.53213788 -27.109375 85.609375 C-26.1083374 85.64184326 -25.1072998 85.67431152 -24.07592773 85.70776367 C-22.97837158 85.72170166 -21.88081543 85.73563965 -20.75 85.75 C-19.60152588 85.77747314 -18.45305176 85.80494629 -17.26977539 85.83325195 C-13.94782516 85.90137345 -10.62716502 85.94667465 -7.30474854 85.97784424 C-4.81817741 86.00174788 -2.33171721 86.03182106 0.15478516 86.06201172 C4.71500619 86.11426505 9.27511301 86.14982664 13.83557129 86.17321777 C15.65435196 86.1827436 17.47312149 86.19470873 19.29187012 86.20910645 C21.8626496 86.22681493 24.43307338 86.2307395 27.00390625 86.23046875 C27.78292801 86.23759384 28.56194977 86.24471893 29.36457825 86.25205994 C33.64485909 86.39118547 33.64485909 86.39118547 37 84 C36.76051975 78.19441819 34.80030459 73.97059406 32.0625 69 C31.65990967 68.25508301 31.25731934 67.51016602 30.8425293 66.74267578 C27.86410293 61.33101481 24.59033005 56.18845609 21.09301758 51.10107422 C16.44749784 44.30825649 12.23309952 37.25969448 7.99731445 30.20654297 C6.34491405 27.4625856 4.67726502 24.72881979 3 22 C2.20045898 20.68273926 2.20045898 20.68273926 1.38476562 19.33886719 C0.87107422 18.52321289 0.35738281 17.70755859 -0.171875 16.8671875 C-0.84621582 15.78219971 -0.84621582 15.78219971 -1.53417969 14.67529297 C-3.27245218 12.68861312 -4.42644622 12.36459827 -7 12 Z " fill="#F5F4F3" transform="translate(68,11)"/>
	

	<path d="M0 0 C1.5 1.375 1.5 1.375 3 3 C3 3.66 3 4.32 3 5 C3.763125 5.144375 4.52625 5.28875 5.3125 5.4375 C8.55157756 7.32068463 8.50975536 8.01816319 9.4375 11.5 C10.04506191 13.93324164 10.04506191 13.93324164 11 16 C12.010625 16.33 13.02125 16.66 14.0625 17 C15.031875 17.33 16.00125 17.66 17 18 C18.16116182 20.93288761 18.6273558 23.87749857 19 27 C22.20211302 27.12126781 22.20211302 27.12126781 26 26 C26.99 32.435 26.99 32.435 28 39 C29.98 39.66 31.96 40.32 34 41 C35.94090826 42.94090826 35.39919435 46.47293902 35.5625 49.0625 C35.64628906 50.35285156 35.73007813 51.64320312 35.81640625 52.97265625 C35.87699219 53.97167969 35.93757813 54.97070312 36 56 C37.65 56 39.3 56 41 56 C41.08172936 58.5215021 41.14083373 61.04029917 41.1875 63.5625 C41.21263672 64.26697266 41.23777344 64.97144531 41.26367188 65.69726562 C41.33518062 70.86973128 40.6929585 74.52302707 38 79 C33.9200066 80.75510938 30.40898172 81.24819678 25.99609375 81.23046875 C24.20413574 81.22877686 24.20413574 81.22877686 22.37597656 81.22705078 C20.42643066 81.20747314 20.42643066 81.20747314 18.4375 81.1875 C17.06087431 81.17920011 15.68424658 81.17123419 14.30761719 81.16357422 C9.5381009 81.13021674 4.76916368 81.06561708 0 81 C-0.94357361 80.98797546 -1.88714722 80.97595093 -2.85931396 80.96356201 C-8.97383252 80.88509213 -15.08786972 80.79128866 -21.20187378 80.67959595 C-23.23106146 80.64325053 -25.26030103 80.60969348 -27.2895813 80.57894897 C-30.15687982 80.53373197 -33.0236378 80.47567828 -35.890625 80.4140625 C-36.7528215 80.40249619 -37.61501801 80.39092987 -38.50334167 80.37901306 C-39.30177994 80.35915848 -40.1002182 80.33930389 -40.92285156 80.31884766 C-41.61687073 80.30552399 -42.31088989 80.29220032 -43.02593994 80.2784729 C-45.37010705 79.94779045 -46.98499977 79.23181236 -49 78 C-50.61301773 74.77396455 -50.12053599 71.25289962 -50.09765625 67.7109375 C-50.0962413 66.89251373 -50.09482635 66.07408997 -50.09336853 65.23086548 C-50.0877629 62.61220675 -50.07520948 59.99363296 -50.0625 57.375 C-50.05748572 55.60156373 -50.05292269 53.82812613 -50.04882812 52.0546875 C-50.03779164 47.70309218 -50.02052325 43.3515605 -50 39 C-49.67 39 -49.34 39 -49 39 C-48.97494385 40.08007324 -48.9498877 41.16014648 -48.92407227 42.27294922 C-48.83004428 46.27242312 -48.72981246 50.27172147 -48.62768555 54.27099609 C-48.5843192 56.00337626 -48.54264537 57.73579963 -48.50268555 59.46826172 C-48.44502406 61.95553627 -48.38131802 64.44259293 -48.31640625 66.9296875 C-48.29969376 67.70682098 -48.28298126 68.48395447 -48.26576233 69.28463745 C-48.23526571 73.27274216 -48.23526571 73.27274216 -47 77 C-38.09 77 -29.18 77 -20 77 C-25.94 76.67 -31.88 76.34 -38 76 C-38 75.67 -38 75.34 -38 75 C-15.89 75 6.22 75 29 75 C29.66 73.02 30.32 71.04 31 69 C31.33 69 31.66 69 32 69 C32 71.64 32 74.28 32 77 C33.32 76.67 34.64 76.34 36 76 C37.08565954 70.68026823 36.92121111 67.09120945 35 62 C34.49339844 61.40058594 33.98679687 60.80117187 33.46484375 60.18359375 C31.54956103 57.32854564 31.49777773 55.15911016 31.3125 51.75 C31.24675781 50.67234375 31.18101563 49.5946875 31.11328125 48.484375 C31.05720703 47.25460938 31.05720703 47.25460938 31 46 C29.35 46 27.7 46 26 46 C24.4087311 41.126739 23.78807779 37.19209404 24 32 C22.02 32 20.04 32 18 32 C16.66666667 28 15.33333333 24 14 20 C13.21625 19.236875 12.4325 18.47375 11.625 17.6875 C8.91145822 14.90935008 7.72117996 12.44235992 6 9 C4.700625 7.700625 4.700625 7.700625 3.375 6.375 C1.08830082 4.08830082 0.34819276 3.13373483 0 0 Z " fill="#D2C6C6" transform="translate(74,21)"/>
	

	<path d="M0 0 C39.93 0 79.86 0 121 0 C121 34.65 121 69.3 121 105 C118 103 118 103 117.55175781 100.76367188 C117.51920898 99.84134766 117.48666016 98.91902344 117.453125 97.96875 C117.39318359 96.40833984 117.39318359 96.40833984 117.33203125 94.81640625 C117.30496094 93.72199219 117.27789062 92.62757812 117.25 91.5 C117.18619141 89.95119141 117.18619141 89.95119141 117.12109375 88.37109375 C116.91856785 82.19780417 117.07431975 76.10549422 117.48046875 69.9453125 C118.30859471 57.10204356 118.10666727 44.23850836 118.0625 31.375 C118.05747228 28.80729254 118.05291163 26.23958413 118.04882812 23.671875 C118.03792956 17.44789537 118.02129341 11.22395231 118 5 C111.1183569 3.70857972 104.2782215 3.8917709 97.296875 3.9375 C95.28842831 3.94328457 93.27998159 3.94906368 91.27153397 3.95451355 C87.76433638 3.96540601 84.25717201 3.98291929 80.75 4 C76.54812113 4.02038932 72.34626216 4.03959938 68.14434814 4.05102539 C65.53231066 4.05857034 62.92028163 4.0706461 60.30828857 4.08764648 C58.54065155 4.09260132 58.54065155 4.09260132 56.73730469 4.09765625 C55.6991864 4.10289307 54.66106812 4.10812988 53.5914917 4.11352539 C51 4 51 4 48 3 C46.45029552 2.91312201 44.89710293 2.8823134 43.3449707 2.88647461 C42.40422195 2.88655014 41.46347321 2.88662567 40.49421692 2.88670349 C38.97534126 2.89444542 38.97534126 2.89444542 37.42578125 2.90234375 C36.38681198 2.9037587 35.34784271 2.90517365 34.27738953 2.90663147 C30.95573052 2.91223344 27.63413867 2.92478628 24.3125 2.9375 C22.06184993 2.94251475 19.81119881 2.9470777 17.56054688 2.95117188 C12.04034163 2.96220351 6.52017561 2.97894357 1 3 C0.67 2.01 0.34 1.02 0 0 Z " fill="#161412" transform="translate(7,0)"/>
	

	<path d="M0 0 C1.85888672 0.14013672 1.85888672 0.14013672 4 1 C5.64501953 3.05126953 5.64501953 3.05126953 7.2578125 5.7578125 C8.16515137 7.25489746 8.16515137 7.25489746 9.09082031 8.78222656 C10.03586426 10.37502441 10.03586426 10.37502441 11 12 C12.28709955 14.10276528 13.57619073 16.20431268 14.8671875 18.3046875 C16.20315837 20.49477131 17.53909515 22.68487592 18.875 24.875 C23.79601046 32.93492659 28.77781055 40.88893318 34.3984375 48.484375 C36.15231022 51.23923849 37.09473773 53.87273034 38 57 C34.17053157 55.54744301 32.87949705 53.57104439 31 50 C30.67 50.33 30.34 50.66 30 51 C30.33 51.845625 30.66 52.69125 31 53.5625 C32.06105954 57.20989216 32.15109013 60.22274664 32 64 C31.06994141 63.80083984 31.06994141 63.80083984 30.12109375 63.59765625 C22.08438755 61.99499432 14.17017596 61.41898338 6 61 C5.29296875 59.19140625 5.29296875 59.19140625 5 57 C6.36328125 55.46484375 6.36328125 55.46484375 8.3125 53.9375 C12.44421716 50.1664883 13.03564093 46.79428995 13.61328125 41.35546875 C14 39 14 39 16 37 C18.625 36.875 18.625 36.875 21 37 C19.04739525 33.02505461 17.0886269 29.08639851 14.875 25.25 C11 18.53333333 11 18.53333333 11 14 C10.236875 13.79375 9.47375 13.5875 8.6875 13.375 C5.11490618 11.5471613 4.40446572 9.69596243 3 6 C3 4.68 3 3.36 3 2 C1.68 1.67 0.36 1.34 -1 1 C-0.67 0.67 -0.34 0.34 0 0 Z " fill="#E25B5F" transform="translate(61,23)"/>
	

	<path d="M0 0 C2.25133033 -0.00219143 4.5021737 -0.02040306 6.75341797 -0.03930664 C8.20263507 -0.04224056 9.65185446 -0.04422537 11.10107422 -0.04516602 C12.40238281 -0.0492749 13.70369141 -0.05338379 15.04443359 -0.05761719 C19.01949738 0.2024557 22.02302162 0.84051628 25.75732422 2.18530273 C27.12278682 4.91622793 26.8920492 7.09096315 26.90258789 10.14794922 C26.90896774 11.39942245 26.9153476 12.65089569 26.92192078 13.94029236 C26.92344939 15.31232668 26.92456338 16.68436151 26.92529297 18.05639648 C26.92850522 19.45882705 26.93186926 20.86125728 26.93537903 22.26368713 C26.94137122 25.2050962 26.94321883 28.14647588 26.94262695 31.08789062 C26.94252531 34.85866901 26.95617926 38.62925918 26.97339916 42.39999294 C26.98451252 45.29703132 26.98654637 48.1940241 26.98601723 51.09108162 C26.98719828 52.481361 26.99162709 53.87164152 26.99934959 55.26189995 C27.00913577 57.20566259 27.00501074 59.14948028 27.00024414 61.09326172 C27.00166916 62.19975571 27.00309418 63.30624969 27.00456238 64.4462738 C26.75732422 67.18530273 26.75732422 67.18530273 24.75732422 70.18530273 C21.89271776 64.45608981 22.65705337 56.76971099 22.75732422 50.49780273 C22.82302633 42.01058662 22.65495114 33.53625178 22.38500977 25.05404663 C22.34155192 23.6831916 22.29988525 22.31227861 22.26000977 20.9413147 C22.20308085 19.00816214 22.13857207 17.07523731 22.07373047 15.14233398 C22.0187439 13.45587769 22.0187439 13.45587769 21.96264648 11.73535156 C22.03990612 9.25185952 22.03990612 9.25185952 20.75732422 8.18530273 C19.40748674 8.0634513 18.05157721 8.00763443 16.6965332 7.97998047 C15.405308 7.95006264 15.405308 7.95006264 14.08799744 7.91954041 C13.15258621 7.90282791 12.21717499 7.88611542 11.25341797 7.86889648 C10.30040298 7.84811539 9.347388 7.82733429 8.36549377 7.80592346 C5.30868012 7.74032096 2.25177766 7.68149356 -0.80517578 7.62280273 C-2.87224241 7.57962767 -4.93929992 7.53601373 -7.00634766 7.49194336 C-12.08503173 7.38462872 -17.16380548 7.28339183 -22.24267578 7.18530273 C-22.90267578 5.86530273 -23.56267578 4.54530273 -24.24267578 3.18530273 C-17.40173952 -1.37532144 -7.97268305 -0.00086943 0 0 Z " fill="#6B6B6A" transform="translate(96.24267578125,4.814697265625)"/>
	

	

	<path d="M0 0 C0.66 0 1.32 0 2 0 C5.31893336 6.90922605 7.31044106 14.2036079 9.125 21.625 C9.30563995 22.36257538 9.48627991 23.10015076 9.6723938 23.8600769 C15.11963483 47.09608366 14.11015267 71.54529908 13.93843079 95.27952576 C13.93288681 96.38554642 13.92734283 97.49156708 13.92163086 98.63110352 C13.90875282 100.08372337 13.90875282 100.08372337 13.89561462 101.56568909 C13.8941621 104.14131033 13.8941621 104.14131033 15 107 C17.91955452 107.97318484 19.89098469 108.15175389 22.93603516 108.20532227 C23.94203766 108.22526749 24.94804016 108.24521271 25.98452759 108.26576233 C27.62027237 108.29083107 27.62027237 108.29083107 29.2890625 108.31640625 C30.42088959 108.33718735 31.55271667 108.35796844 32.71884155 108.37937927 C35.1246969 108.42268289 37.53059393 108.46371988 39.93652344 108.50268555 C43.56194971 108.56147754 47.18720988 108.62674715 50.8125 108.69335938 C74.57084083 109.47899519 74.57084083 109.47899519 98.25 108.0625 C99.03761719 107.97548828 99.82523437 107.88847656 100.63671875 107.79882812 C104.47346485 107.36209902 108.21502721 106.77175864 112 106 C117.11260154 105.49648621 120.83838662 105.61868913 125 109 C125 109.66 125 110.32 125 111 C124.2575 110.690625 123.515 110.38125 122.75 110.0625 C117.6059094 108.07501045 113.49782469 107.90836959 108 108 C108 108.66 108 109.32 108 110 C95.41255159 112.86837873 82.9856157 113.14217857 70.12890625 112.94921875 C68.63346139 112.92993151 67.13801351 112.91087774 65.64256287 112.89204407 C62.5338541 112.85140505 59.42525116 112.80622722 56.31665039 112.75805664 C52.34025571 112.69705926 48.36383178 112.65032071 44.38720798 112.60722637 C41.30986286 112.57185339 38.23269175 112.52762948 35.15550041 112.48087502 C33.68877112 112.45990428 32.22199485 112.44198012 30.7551899 112.4272213 C28.7096626 112.40558981 26.66468474 112.37168246 24.61938477 112.3347168 C23.45866959 112.31837692 22.29795441 112.30203705 21.10206604 112.28520203 C17.99025226 111.9991038 15.77200913 111.42430047 13 110 C11.751816 107.50363201 11.87543762 105.82223447 11.87402344 103.02905273 C11.87021667 101.98873398 11.86640991 100.94841522 11.86248779 99.87657166 C11.86094696 98.17229759 11.86094696 98.17229759 11.859375 96.43359375 C11.84100109 94.0019441 11.82142679 91.57030329 11.80078125 89.13867188 C11.77219489 85.32626933 11.75001005 81.51441984 11.74951172 77.7019043 C11.73267023 59.49024212 10.81028315 41.43084946 5 24 C4.68710713 21.62770312 4.39873058 19.25213399 4.125 16.875 C3.39755827 10.92848672 2.15864789 5.59286045 0 0 Z " fill="#BAB3B3" transform="translate(3,0)"/>
	

	<path d="M0 0 C0.77734375 1.6796875 0.77734375 1.6796875 1 4 C-0.80859375 6.4453125 -0.80859375 6.4453125 -3.4375 9.125 C-4.37096668 10.09919499 -5.30191824 11.07580555 -6.23046875 12.0546875 C-6.69888184 12.54549805 -7.16729492 13.03630859 -7.64990234 13.54199219 C-10.28462901 16.38730642 -12.63378267 19.45927864 -15.015625 22.515625 C-17 25 -17 25 -18.48568726 26.47297668 C-22.20834255 30.3017757 -23.68315162 32.9220418 -23.67977905 38.28184509 C-23.64881134 39.03317215 -23.61784363 39.78449921 -23.5859375 40.55859375 C-23.57744781 41.34774673 -23.56895813 42.13689972 -23.56021118 42.94996643 C-23.52687457 45.44725616 -23.451646 47.94120249 -23.375 50.4375 C-23.34487428 52.139927 -23.31750305 53.84240511 -23.29296875 55.54492188 C-23.22714991 59.69788426 -23.12377745 63.84837726 -23 68 C-22.16960205 67.99419922 -21.3392041 67.98839844 -20.48364258 67.98242188 C-13.85983863 67.95579925 -7.29658332 68.08983847 -0.6875 68.5 C13.85990758 69.30842042 28.4361532 69.08874567 43 69 C43.14643085 65.54423192 43.03149827 64.06299654 41.4375 60.875 C40.963125 59.92625 40.48875 58.9775 40 58 C40.33 57.01 40.66 56.02 41 55 C41.84584998 56.55575978 42.67618399 58.1199612 43.5 59.6875 C44.19609375 60.99267578 44.19609375 60.99267578 44.90625 62.32421875 C46.06542365 65.16005428 46.37148754 66.97134465 46 70 C43.45503896 72.54496104 41.83467921 72.2374099 38.36457825 72.25205994 C37.58555649 72.24493484 36.80653473 72.23780975 36.00390625 72.23046875 C34.7846772 72.23059715 34.7846772 72.23059715 33.54081726 72.23072815 C30.88121078 72.22743177 28.22202141 72.2085535 25.5625 72.1875 C23.74121145 72.17796104 21.91992238 72.1685213 20.09863281 72.15917969 C15.57076811 72.13091926 11.04329977 72.08494172 6.51568604 72.02996826 C4.1867462 72.00222463 1.85780966 71.97936929 -0.47119141 71.95751953 C-4.23162182 71.91839258 -7.99041379 71.83993468 -11.75 71.75 C-12.84755615 71.73606201 -13.9451123 71.72212402 -15.07592773 71.70776367 C-16.07696533 71.67529541 -17.07800293 71.64282715 -18.109375 71.609375 C-18.96499023 71.58842773 -19.82060547 71.56748047 -20.70214844 71.54589844 C-23.94692215 70.77504059 -25.07395016 69.72155676 -27 67 C-27.42278861 64.27536226 -27.60846339 61.95957782 -27.6015625 59.234375 C-27.61013275 58.48214661 -27.618703 57.72991821 -27.62753296 56.95489502 C-27.63900027 55.36466486 -27.64003402 53.77432981 -27.63134766 52.18408203 C-27.62505372 49.77059874 -27.67184337 47.36209062 -27.72265625 44.94921875 C-27.84104929 30.98637038 -27.84104929 30.98637038 -22.67578125 25.55029297 C-22.12277344 25.03869629 -21.56976563 24.52709961 -21 24 C-20.03018559 22.92503661 -19.06519654 21.84569701 -18.10546875 20.76171875 C-17.13578035 19.73417031 -16.16307479 18.70946146 -15.1875 17.6875 C-9.8423398 12.00092733 -4.8533366 6.11569436 0 0 Z " fill="#E47175" transform="translate(59,25)"/>
	

	<path d="M0 0 C0.66 0 1.32 0 2 0 C2.33 0.66 2.66 1.32 3 2 C3.58215775 1.99777939 4.16431549 1.99555878 4.76411438 1.99327087 C10.81466052 1.97117418 16.86519522 1.95607501 22.91577148 1.94506836 C25.1748908 1.94003474 27.43400686 1.93320738 29.69311523 1.92456055 C32.93734543 1.91245255 36.18153261 1.90676201 39.42578125 1.90234375 C40.94465691 1.89460182 40.94465691 1.89460182 42.49421692 1.88670349 C43.43496567 1.88662796 44.37571442 1.88655243 45.3449707 1.88647461 C46.17325882 1.884254 47.00154694 1.88203339 47.85493469 1.87974548 C50 2 50 2 53 3 C54.91087926 3.08370982 56.82461711 3.10730486 58.73730469 3.09765625 C59.91572937 3.09435303 61.09415405 3.0910498 62.30828857 3.08764648 C64.22076385 3.07519897 64.22076385 3.07519897 66.171875 3.0625 C68.17501417 3.05671387 70.17815337 3.05093347 72.18129349 3.04548645 C76.41438286 3.03234145 80.64743486 3.01023996 84.88049316 2.98962402 C88.35792771 2.97301622 91.83534316 2.95841062 95.31280518 2.94897461 C97.92052964 2.94146404 100.52824596 2.92943429 103.13592529 2.91235352 C108.86429681 2.8964664 114.36219173 2.94199978 120 4 C121.05013217 7.1503965 121.12682941 9.36331846 121.12939453 12.67041016 C121.13254669 13.83657867 121.13569885 15.00274719 121.13894653 16.20425415 C121.13591019 18.10248428 121.13591019 18.10248428 121.1328125 20.0390625 C121.13376923 21.34845795 121.13472595 22.65785339 121.13571167 24.00692749 C121.13718801 26.78946098 121.13504091 29.57196243 121.13037109 32.35449219 C121.12475074 35.86992574 121.12798646 39.38528227 121.13382816 42.90071297 C121.15193534 55.85528269 121.11511318 68.765304 120.20019531 81.69384766 C119.9322927 86.11816128 120.01658292 90.45651206 120.3125 94.875 C120.34794922 95.63167969 120.38339844 96.38835937 120.41992188 97.16796875 C120.6416781 100.89479727 120.88782185 102.83173277 123 106 C120.44295784 105.06241787 119.23211301 104.39839123 117.84399414 102.01586914 C116.6437956 97.7271643 117.06256209 93.84526949 117.37109375 89.43359375 C117.95014234 79.16735852 118.10708241 68.93884363 118.09765625 58.66015625 C118.09727734 57.90612896 118.09689842 57.15210167 118.09650803 56.37522507 C118.09308611 51.72844122 118.08206102 47.08170094 118.06866455 42.43493652 C118.05824441 38.42472883 118.05382784 34.41451434 118.04882812 30.40429688 C118.03825602 22.6028467 118.02129915 14.80142908 118 7 C112.54370171 5.17187516 107.79890034 4.71751278 102.06640625 4.76953125 C100.81125465 4.77021858 100.81125465 4.77021858 99.53074646 4.7709198 C97.77007622 4.77392581 96.00940825 4.78176224 94.2487793 4.79418945 C91.57395858 4.81242189 88.89948575 4.81469891 86.22460938 4.81445312 C84.50520538 4.81937054 82.7858037 4.82519984 81.06640625 4.83203125 C80.27657852 4.83314407 79.48675079 4.8342569 78.67298889 4.83540344 C73.69960962 4.87728432 68.92755166 5.32645453 64 6 C61.87627398 6.08455115 59.75040143 6.13046376 57.625 6.125 C56.60664062 6.12757813 55.58828125 6.13015625 54.5390625 6.1328125 C52 6 52 6 50 5 C48.42708792 4.90996034 46.85038425 4.88243491 45.27490234 4.88647461 C44.29403656 4.88655014 43.31317078 4.88662567 42.30258179 4.88670349 C41.24108917 4.89186478 40.17959656 4.89702606 39.0859375 4.90234375 C37.45877304 4.90446617 37.45877304 4.90446617 35.79873657 4.90663147 C32.32413 4.91224198 28.84958719 4.92479628 25.375 4.9375 C23.02343843 4.94251365 20.67187585 4.94707679 18.3203125 4.95117188 C12.54685314 4.96221482 6.77343112 4.97896321 1 5 C0.505 2.525 0.505 2.525 0 0 Z " fill="#31312F" transform="translate(5,0)"/>
	

	<path d="M0 0 C1.5 1.375 1.5 1.375 3 3 C3 3.66 3 4.32 3 5 C3.763125 5.144375 4.52625 5.28875 5.3125 5.4375 C8.55157756 7.32068463 8.50975536 8.01816319 9.4375 11.5 C10.04506191 13.93324164 10.04506191 13.93324164 11 16 C12.010625 16.33 13.02125 16.66 14.0625 17 C15.031875 17.33 16.00125 17.66 17 18 C18.16116182 20.93288761 18.6273558 23.87749857 19 27 C22.20211302 27.12126781 22.20211302 27.12126781 26 26 C26.99 32.435 26.99 32.435 28 39 C29.98 39.66 31.96 40.32 34 41 C35.94090826 42.94090826 35.39919435 46.47293902 35.5625 49.0625 C35.64628906 50.35285156 35.73007813 51.64320312 35.81640625 52.97265625 C35.87699219 53.97167969 35.93757813 54.97070312 36 56 C37.65 56 39.3 56 41 56 C41.08172936 58.5215021 41.14083373 61.04029917 41.1875 63.5625 C41.21263672 64.26697266 41.23777344 64.97144531 41.26367188 65.69726562 C41.33518062 70.86973128 40.6929585 74.52302707 38 79 C33.9200066 80.75510938 30.40898172 81.24819678 25.99609375 81.23046875 C24.20365234 81.22853516 24.20365234 81.22853516 22.375 81.2265625 C21.075625 81.21367188 19.77625 81.20078125 18.4375 81.1875 C17.06380417 81.18056381 15.69010606 81.17406553 14.31640625 81.16796875 C-5.45840467 81.04694788 -25.23193376 80.50086206 -45 80 C-45 79.67 -45 79.34 -45 79 C-44.07593857 79.00444122 -43.15187714 79.00888245 -42.19981384 79.01345825 C-33.47533194 79.05359515 -24.75088123 79.08401499 -16.02632809 79.10362434 C-11.54135627 79.11404472 -7.05646098 79.12817196 -2.5715332 79.15087891 C1.75972174 79.17266964 6.09090324 79.18458176 10.42220879 79.18975449 C12.07154941 79.19343907 13.72088618 79.2006341 15.37019539 79.21146011 C17.68706965 79.22605798 20.00364351 79.2279745 22.32055664 79.22705078 C23.6373793 79.231492 24.95420197 79.23593323 26.31092834 79.24050903 C30.27550756 78.98203828 33.27521076 78.34224945 37 77 C38.53266582 73.93466836 38.10276471 70.73245728 38.0625 67.375 C38.05798828 66.66859375 38.05347656 65.9621875 38.04882812 65.234375 C38.03703875 63.48954725 38.01910324 61.744763 38 60 C37.03320312 59.57074219 37.03320312 59.57074219 36.046875 59.1328125 C34 58 34 58 33.25 55.875 C33.04233853 53.48689311 32.98263373 51.20470333 33 48.8125 C33.28416697 45.19565595 33.28416697 45.19565595 32 43 C29.47266765 42.34444881 29.47266765 42.34444881 27 42 C26.66430703 40.37548581 26.3315204 38.75037083 26 37.125 C25.814375 36.22007813 25.62875 35.31515625 25.4375 34.3828125 C25 32 25 32 25 30 C23.8553125 30.3403125 23.8553125 30.3403125 22.6875 30.6875 C20 31 20 31 18.41796875 29.76171875 C16.90057968 27.87647778 16.31538658 26.4292773 15.625 24.125 C14.21962335 20.07159788 12.12004209 17.96403999 9 15 C8 13 7 11 6 9 C4.700625 7.700625 4.700625 7.700625 3.375 6.375 C1.08830082 4.08830082 0.34819276 3.13373483 0 0 Z " fill="#9F9F9F" transform="translate(74,21)"/>
	

	<path d="M0 0 C0.99 0 1.98 0 3 0 C3 2.97 3 5.94 3 9 C5.31 9.33 7.62 9.66 10 10 C9.979375 10.86625 9.95875 11.7325 9.9375 12.625 C9.99776162 15.87912771 10.40117849 18.80628527 11 22 C11.33333333 24 11.66666667 26 12 28 C12.598125 27.505 13.19625 27.01 13.8125 26.5 C16 25 16 25 19 25 C20.00259507 28.00778521 20.30314642 30.53820647 20.5625 33.6875 C20.68818359 35.17830078 20.68818359 35.17830078 20.81640625 36.69921875 C20.90728516 37.83810547 20.90728516 37.83810547 21 39 C22.11375 39.226875 23.2275 39.45375 24.375 39.6875 C26.328125 40.4765625 26.328125 40.4765625 28 42 C28.8218486 45.38356816 29.12663 48.59174223 29.3203125 52.06640625 C29.54460937 53.03449219 29.76890625 54.00257812 30 55 C32.45064401 56.48891151 32.45064401 56.48891151 35 57 C34.835 58.258125 34.67 59.51625 34.5 60.8125 C34.06877038 64.50126146 34.01424298 68.03963996 34.125 71.75 C34.13861251 74.98977791 33.99187754 77.02388958 32.9375 80.125 C30.18496997 82.78873874 27.73384175 82.78865047 24 83 C24.8971875 82.5978125 24.8971875 82.5978125 25.8125 82.1875 C28.06948712 80.96227842 29.37720475 79.97990061 31 78 C31.54319235 75.83747945 31.54319235 75.83747945 31.625 73.4375 C31.68816406 72.56222656 31.75132813 71.68695313 31.81640625 70.78515625 C31.90728516 69.40650391 31.90728516 69.40650391 32 68 C32.18069529 66.124332 32.36787414 64.24927373 32.5625 62.375 C32.64628906 61.53710938 32.73007813 60.69921875 32.81640625 59.8359375 C32.90728516 58.92714844 32.90728516 58.92714844 33 58 C32.195625 58.185625 31.39125 58.37125 30.5625 58.5625 C29.716875 58.706875 28.87125 58.85125 28 59 C26.05909174 57.05909174 26.60080565 53.52706098 26.4375 50.9375 C26.35371094 49.64714844 26.26992187 48.35679688 26.18359375 47.02734375 C26.12300781 46.02832031 26.06242187 45.02929688 26 44 C23.69 43.01 21.38 42.02 19 41 C18.505 34.565 18.505 34.565 18 28 C16.02 28.99 14.04 29.98 12 31 C8.85041169 27.57653445 8.43820891 24.55737263 8 20 C7.2575 19.855625 6.515 19.71125 5.75 19.5625 C2.03332759 17.45075431 1.47336202 15.02115671 0.08984375 11.09375 C-1.22683356 8.56421941 -2.38254397 8.00127216 -5 7 C-5 6.34 -5 5.68 -5 5 C-4.01 5 -3.02 5 -2 5 C-1.7834375 4.0409375 -1.7834375 4.0409375 -1.5625 3.0625 C-1 1 -1 1 0 0 Z " fill="#696968" transform="translate(82,19)"/>
	

	<path d="M0 0 C3 -0.375 3 -0.375 6 0 C9.09151706 4.63727558 8.70821454 9.53565413 9 15 C9.07734375 15.9590625 9.1546875 16.918125 9.234375 17.90625 C9.36475534 20.36898979 9.4253691 22.57066978 9 25 C6.75 27.1875 6.75 27.1875 4 28 C1.79456367 27.75495152 0.57580336 27.57580336 -1 26 C-1.92365939 20.89039486 -2.18267555 15.92180682 -2.1875 10.75 C-2.19974609 10.04359375 -2.21199219 9.3371875 -2.22460938 8.609375 C-2.23528719 4.85078503 -2.13760577 3.20640866 0 0 Z " fill="#E3666A" transform="translate(41,56)"/>
	

	<path d="M0 0 C1.45751953 1.03466797 1.45751953 1.03466797 3 3 C3.39104649 5.55365778 3.6001195 7.87956335 3.6796875 10.4453125 C3.71270966 11.19217316 3.74573181 11.93903381 3.77975464 12.70852661 C4.10734842 20.91936933 4.1512533 29.13668331 4.13037109 37.35302734 C4.12490074 39.92160665 4.1304149 42.49001896 4.13671875 45.05859375 C4.13605964 46.70312538 4.13478195 48.34765691 4.1328125 49.9921875 C4.13483673 50.75457733 4.13686096 51.51696716 4.13894653 52.30245972 C4.12480007 55.46950516 4.00907203 57.9727839 3 61 C2.34 61 1.68 61 1 61 C0.00991353 54.28430112 -0.22839114 47.6612986 -0.3515625 40.87890625 C-0.37471527 39.73840317 -0.39786804 38.59790009 -0.42172241 37.4228363 C-0.46912833 35.02680469 -0.5143888 32.63072977 -0.55761719 30.23461914 C-0.62522715 26.55012141 -0.70284538 22.8659227 -0.78125 19.18164062 C-0.82612187 16.851574 -0.87041348 14.52149611 -0.9140625 12.19140625 C-0.93796051 11.08422745 -0.96185852 9.97704865 -0.98648071 8.83631897 C-1.0033493 7.82113693 -1.0202179 6.8059549 -1.03759766 5.76000977 C-1.05456696 4.8625856 -1.07153625 3.96516144 -1.08901978 3.0405426 C-1 1 -1 1 0 0 Z " fill="#161412" transform="translate(18,39)"/>
	

	<path d="M0 0 C3.03484497 2.80580007 5.51206534 5.77123297 6 10 C5.34 9.67 4.68 9.34 4 9 C4 8.34 4 7.68 4 7 C3.071875 6.566875 3.071875 6.566875 2.125 6.125 C0 5 0 5 -2 3 C-5.31780321 2.35972219 -6.84132353 2.08832767 -10 3 C-12.64320492 5.12633019 -14.85158154 7.41142962 -17.1171875 9.93359375 C-19 12 -19 12 -21 13 C-21.57427734 14.01900391 -21.57427734 14.01900391 -22.16015625 15.05859375 C-24.75550395 19.2078439 -28.06463544 22.53441252 -31.4375 26.0625 C-32.10587891 26.76955078 -32.77425781 27.47660156 -33.46289062 28.20507812 C-34.11322266 28.89150391 -34.76355469 29.57792969 -35.43359375 30.28515625 C-36.05443848 30.9404834 -36.6752832 31.59581055 -37.31494141 32.27099609 C-38.6327582 33.62318075 -40.01795561 34.90976709 -41.42578125 36.16796875 C-43.46611555 38.54245209 -43.58718258 40.15646893 -43.75 43.25 C-43.80671875 44.14203125 -43.8634375 45.0340625 -43.921875 45.953125 C-43.94765625 46.62859375 -43.9734375 47.3040625 -44 48 C-44.33 48 -44.66 48 -45 48 C-45.65017641 43.2501001 -46.00976098 38.90324645 -43.7109375 34.5703125 C-41.59976727 31.90215268 -39.35261254 29.45923679 -37 27 C-35.89915116 25.81034034 -34.80032179 24.61880995 -33.703125 23.42578125 C-31.31145262 20.83483038 -28.89947162 18.26506983 -26.47265625 15.70703125 C-24.30340647 13.41195905 -22.18339981 11.09079445 -20.12109375 8.69921875 C-8.54511545 -4.64408448 -8.54511545 -4.64408448 0 0 Z " fill="#B9B2B2" transform="translate(68,11)"/>
	

	<path d="M0 0 C1.71908569 0.24665405 1.71908569 0.24665405 3.47290039 0.49829102 C7.81836441 1.03908239 12.06088773 1.09608432 16.43359375 1.02734375 C18.05785686 1.01315066 19.68212477 0.99949946 21.30639648 0.98632812 C22.56478836 0.97388062 22.56478836 0.97388062 23.84860229 0.96118164 C40.00992003 0.81334787 55.91635873 1.23817943 72 3 C72 3.66 72 4.32 72 5 C58.90324978 5.06033162 45.81868521 4.91911158 32.72509766 4.62768555 C29.71134083 4.56165296 26.69749414 4.50243163 23.68359375 4.44335938 C21.74217857 4.40145322 19.80077191 4.35915046 17.859375 4.31640625 C16.97078796 4.29969376 16.08220093 4.28298126 15.16668701 4.26576233 C10.35967517 4.15149786 5.74427699 3.79004342 1 3 C0.67 2.01 0.34 1.02 0 0 Z " fill="#161412" transform="translate(19,102)"/>
	

	<path d="M0 0 C3.30062704 1.05882947 4.07606258 2.12476118 5.921875 5.15234375 C6.54372877 6.40795913 7.15276963 7.66998748 7.75 8.9375 C8.06582031 9.57107422 8.38164063 10.20464844 8.70703125 10.85742188 C10.11293177 13.75138592 11 15.74401791 11 19 C5.34979382 18.39891424 0.33835539 16.92471317 -5 15 C-3.33333333 10 -1.66666667 5 0 0 Z " fill="#DDCECE" transform="translate(79,64)"/>
	

	<path d="M0 0 C0.66 0 1.32 0 2 0 C5.28046313 6.86008799 7.31198907 14.07596495 9.125 21.4375 C9.39546143 22.53511658 9.39546143 22.53511658 9.67138672 23.65490723 C16.0019404 50.57397993 14.1994307 79.51001166 14 107 C12 105 12 105 11.75517273 102.91563416 C11.75780876 101.62309471 11.75780876 101.62309471 11.76049805 100.30444336 C11.75676682 99.32418686 11.75303558 98.34393036 11.74919128 97.33396912 C11.75332535 96.26340775 11.75745941 95.19284637 11.76171875 94.08984375 C11.74625586 91.79491625 11.7299493 89.49999432 11.71289062 87.20507812 C11.69667578 83.60998167 11.68734341 80.01529476 11.69458008 76.42016602 C11.70829654 58.64238862 10.67008738 41.01026214 5 24 C4.68710713 21.62770312 4.39873058 19.25213399 4.125 16.875 C3.39755827 10.92848672 2.15864789 5.59286045 0 0 Z " fill="#8A8A8A" transform="translate(3,0)"/>
	

	

	<path d="M0 0 C1.86328125 0.1640625 1.86328125 0.1640625 4 1 C7.33130569 7.32419302 8.29986156 14.26866682 8.73046875 21.30859375 C9.00608536 24.06076536 9.59534379 26.47416889 10.375 29.125 C15.21087065 45.98846936 15.37357756 62.13323494 15.1875 79.5625 C15.17241786 82.03840327 15.15873574 84.51431548 15.14648438 86.99023438 C15.11377758 92.9936881 15.06386125 98.99680097 15 105 C14.67 105 14.34 105 14 105 C13.99635437 104.41214218 13.99270874 103.82428436 13.98895264 103.21861267 C13.94638033 96.96999789 13.87654656 90.72206785 13.79248047 84.47387695 C13.76465566 82.15754118 13.74325496 79.84111725 13.72900391 77.5246582 C13.79530951 51.19564776 13.79530951 51.19564776 7 26 C6.64375905 24.25837758 6.33223032 22.5071004 6.0625 20.75 C5.19497894 15.70881461 4.16922477 10.66383326 2 6 C1.34 5.67 0.68 5.34 0 5 C0 3.35 0 1.7 0 0 Z " fill="#DDCECE" transform="translate(0,0)"/>
	

	<path d="M0 0 C0.6932135 -0.00095673 1.386427 -0.00191345 2.10064697 -0.00289917 C3.57002859 -0.00358022 5.03941321 -0.00173113 6.50878906 0.00244141 C8.74290873 0.00775844 10.97682437 0.00251078 13.2109375 -0.00390625 C14.64062544 -0.00324482 16.07031325 -0.00196232 17.5 0 C19.44471191 0.00169189 19.44471191 0.00169189 21.42871094 0.00341797 C24.72052785 0.12216715 27.78652926 0.50531358 31.015625 1.1328125 C29.26239215 3.50483341 28.16774408 4.1005383 25.25390625 4.71875 C19.29142518 5.45566852 13.2629928 5.31713256 7.265625 5.3203125 C6.03457031 5.33255859 4.80351562 5.34480469 3.53515625 5.35742188 C1.76978516 5.36032227 1.76978516 5.36032227 -0.03125 5.36328125 C-1.10213867 5.36739014 -2.17302734 5.37149902 -3.27636719 5.37573242 C-5.984375 5.1328125 -5.984375 5.1328125 -8.984375 3.1328125 C-8.984375 2.4728125 -8.984375 1.8128125 -8.984375 1.1328125 C-6.01123004 -0.35375998 -3.31402938 0.00289327 0 0 Z " fill="#6B6B6A" transform="translate(19.984375,4.8671875)"/>
	

	<path d="M0 0 C0.33 0 0.66 0 1 0 C2.32446662 10.6840307 2.34133432 21.41249894 2.55224609 32.16308594 C2.60383114 34.7234082 2.66105449 37.2835593 2.71875 39.84375 C2.73232544 40.6332605 2.74590088 41.422771 2.7598877 42.23620605 C2.76695603 46.24893258 2.76695603 46.24893258 4 50 C6.78771931 50.92923977 8.58234248 51.14867338 11.47143555 51.20532227 C12.37214279 51.22526749 13.27285004 51.24521271 14.20085144 51.26576233 C15.16968765 51.28247482 16.13852386 51.29918732 17.13671875 51.31640625 C18.62858452 51.3475779 18.62858452 51.3475779 20.15058899 51.37937927 C23.32948867 51.44479412 26.50847134 51.5037224 29.6875 51.5625 C31.84180548 51.60569288 33.99610254 51.64930742 36.15039062 51.69335938 C41.43350588 51.80046726 46.71670379 51.90224873 52 52 C52 52.33 52 52.66 52 53 C35.17 53 18.34 53 1 53 C0.25530188 35.31341971 -0.1434416 17.70069312 0 0 Z " fill="#656564" transform="translate(22,49)"/>
	

	

	

	<path d="M0 0 C2.3671875 0.125 2.3671875 0.125 5 1 C9.49532203 6.80041552 11.94308852 14.02935555 14 21 C10.390625 23.1015625 10.390625 23.1015625 6.875 22.1875 C6.28332031 21.98769531 5.69164063 21.78789063 5.08203125 21.58203125 C1.14962392 20.48272789 -2.94121005 20.31033002 -7 20 C-7 16 -7 16 -5.125 13.875 C-2.50979596 10.33678276 -2.07220088 7.39072704 -1.39453125 3.109375 C-1 1 -1 1 0 0 Z M1 2 C0.566875 3.299375 0.566875 3.299375 0.125 4.625 C-0.60004789 6.80014367 -1.34838307 8.96773076 -2.125 11.125 C-3.19410774 14.13691528 -3.19410774 14.13691528 -3 18 C2.0056546 19.31727753 6.86496656 20.35812082 12 21 C11.36803534 16.88080868 10.02010292 13.54729835 8.1875 9.8125 C7.43533203 8.24435547 7.43533203 8.24435547 6.66796875 6.64453125 C4.9508302 3.92204225 3.98244564 3.05453067 1 2 Z " fill="#E88B8E" transform="translate(78,62)"/>
	

	<path d="M0 0 C1.98 0.495 1.98 0.495 4 1 C5.02263082 4.51854334 5.33688954 7.97834473 5.625 11.625 C5.72039063 12.77226563 5.81578125 13.91953125 5.9140625 15.1015625 C6 18 6 18 5 20 C3.68 20 2.36 20 1 20 C-1.13431857 13.99722901 -1.45296092 8.35198686 -1 2 C-0.67 1.34 -0.34 0.68 0 0 Z " fill="#DDCECE" transform="translate(42,59)"/>
	

	

	

	<path d="M0 0 C4.49535087 3.82104824 7.29589386 9.19112438 8 15 C4.59687262 13.94124926 1.98646769 12.99097846 -1 11 C-1.328125 8.65234375 -1.328125 8.65234375 -1.25 5.9375 C-1.23453125 5.03902344 -1.2190625 4.14054687 -1.203125 3.21484375 C-1 1 -1 1 0 0 Z " fill="#FBFCFB" transform="translate(80,67)"/>
	

	<path d="M0 0 C3.23224457 3.52608499 4.35517722 7.34806425 5 12 C4.625 15 4.625 15 4 17 C2.0625 16.6875 2.0625 16.6875 0 16 C-1.08489672 12.74530985 -1.13323992 10.29456791 -1.125 6.875 C-1.12757812 5.79992188 -1.13015625 4.72484375 -1.1328125 3.6171875 C-1 1 -1 1 0 0 Z " fill="#161412" transform="translate(113,56)"/>
	

	

	

	

	

	<path d="M0 0 C0.66 0.33 1.32 0.66 2 1 C2.6328125 3.28515625 2.6328125 3.28515625 3.125 6.0625 C3.29257813 6.98160156 3.46015625 7.90070312 3.6328125 8.84765625 C3.75398438 9.55792969 3.87515625 10.26820312 4 11 C2.34385343 11.38218767 0.67542976 11.71395102 -1 12 C-2.58894072 10.41105928 -2.16998411 8.75198576 -2.1875 6.5625 C-2.20167969 5.75941406 -2.21585937 4.95632812 -2.23046875 4.12890625 C-2 2 -2 2 0 0 Z " fill="#161412" transform="translate(106,44)"/>
	

	

	

	

	

	

	<path d="M0 0 C2.93116442 0.4778439 4.71067737 1.39764117 6.96484375 3.3203125 C8.33984375 5.8203125 8.33984375 5.8203125 8.96484375 8.3203125 C8.63484375 9.3103125 8.30484375 10.3003125 7.96484375 11.3203125 C7.40796875 10.3921875 6.85109375 9.4640625 6.27734375 8.5078125 C3.89321044 5.22157469 2.76878173 3.67282378 -1.03515625 2.3203125 C-4.13418396 2.68030057 -7.05288711 3.41718525 -10.03515625 4.3203125 C-7.13556617 0.4541924 -4.82698084 -0.26966373 0 0 Z " fill="#6B6B6A" transform="translate(65.03515625,7.6796875)"/>
	

	

	<path d="M0 0 C3.31752056 1.45898258 4.48394494 3.98499615 6.390625 7.00390625 C7.09703125 8.10863281 7.8034375 9.21335937 8.53125 10.3515625 C9.06234375 11.20621094 9.5934375 12.06085937 10.140625 12.94140625 C9.810625 13.60140625 9.480625 14.26140625 9.140625 14.94140625 C7.96829815 13.32048495 6.8029173 11.69453792 5.640625 10.06640625 C4.9909375 9.16148438 4.34125 8.2565625 3.671875 7.32421875 C2.140625 4.94140625 2.140625 4.94140625 2.140625 2.94140625 C-1.23400215 3.48864308 -2.941725 3.99630625 -5.859375 5.94140625 C-3.68487836 -0.11612012 -3.68487836 -0.11612012 0 0 Z " fill="#DDCECE" transform="translate(62.859375,21.05859375)"/>
	

	

	<path d="M0 0 C1.859375 0.140625 1.859375 0.140625 4 1 C5.265625 3.546875 5.265625 3.546875 6.25 6.75 C6.58515625 7.79671875 6.9203125 8.8434375 7.265625 9.921875 C7.94261534 12.75947282 8.15031749 15.10101986 8 18 C6.13064444 14.47790949 5.0039418 10.93335709 3.87890625 7.12109375 C2.92496246 4.8189094 1.77420971 3.70502048 0 2 C0 1.34 0 0.68 0 0 Z " fill="#9F9F9F" transform="translate(0,0)"/>
	

	

	

	

	<path d="M0 0 C0.33 0.99 0.66 1.98 1 3 C0.0390625 4.82421875 0.0390625 4.82421875 -1.375 6.6875 C-1.83648438 7.31011719 -2.29796875 7.93273438 -2.7734375 8.57421875 C-3.17820312 9.04472656 -3.58296875 9.51523437 -4 10 C-4.33 10 -4.66 10 -5 10 C-5.3125 7.8125 -5.3125 7.8125 -5 5 C-2.5 2.1875 -2.5 2.1875 0 0 Z " fill="#595958" transform="translate(28,38)"/>
	

	

	

	

	

</svg>
