<?xml version="1.0" encoding="iso-8859-1"?>
<svg height="128" version="1.1" width="128" xmlns="http://www.w3.org/2000/svg">
	

	<path d="M0 0 C42.24 0 84.48 0 128 0 C128 42.24 128 84.48 128 128 C85.76 128 43.52 128 0 128 C0 85.76 0 43.52 0 0 Z " fill="#0736CF" transform="translate(0,0)"/>
	

	<path d="M0 0 C2.5 2.125 2.5 2.125 4 5 C4.2905146 10.13242461 2.68853781 12.69748496 -0.5625 16.4375 C-1.69468175 17.6380227 -2.83618996 18.83011262 -4 20 C-2.27910156 19.75636719 -2.27910156 19.75636719 -0.5234375 19.5078125 C6.62896517 18.61730218 13.80730156 18.8490794 21 19 C22.00417969 19.01675781 23.00835937 19.03351562 24.04296875 19.05078125 C29.9765181 19.3727568 34.68620236 20.75561979 39 25 C44.98158231 33.10726859 43.0191173 43.60405528 42 53 C41.92418701 53.72775635 41.84837402 54.4555127 41.77026367 55.20532227 C40.98671907 62.15157718 39.01717462 67.98282538 34 73 C18.59474541 82.88132143 -3.12375918 79.76916609 -20.2265625 76.15234375 C-32.03146481 73.41283964 -37.35702809 69.43801499 -44.36254883 59.72094727 C-47.67149999 55.16654086 -51.55491474 50.86688637 -57 49 C-59.69093775 48.84445447 -62.29979507 48.90999317 -65 49 C-67.08895538 55.03598161 -67.34003549 60.60791109 -67.4140625 66.96484375 C-67.43342865 67.99815323 -67.4527948 69.03146271 -67.4727478 70.09608459 C-67.53223299 73.37647405 -67.57880452 76.65689918 -67.625 79.9375 C-67.66320836 82.16993666 -67.70226174 84.40235902 -67.7421875 86.63476562 C-67.8379088 92.08971631 -67.9230461 97.54475401 -68 103 C-67.24785217 102.99777939 -66.49570435 102.99555878 -65.72076416 102.99327087 C-58.48914441 102.97289082 -51.25753936 102.95783957 -44.02589798 102.94818783 C-40.31168605 102.94305841 -36.59749861 102.93615208 -32.88330078 102.92456055 C-17.62038167 102.87838281 -2.366454 102.91119439 12.890625 103.37890625 C14.06034851 103.40951645 15.23007202 103.44012665 16.4352417 103.47166443 C17.5088092 103.51009964 18.58237671 103.54853485 19.68847656 103.58813477 C20.62258362 103.61915787 21.55669067 103.65018097 22.519104 103.68214417 C25.08500614 104.0108911 26.7800939 104.70340312 29 106 C29 106.66 29 107.32 29 108 C-4.66 108 -38.32 108 -73 108 C-73 75.99 -73 43.98 -73 11 C-71 12 -71 12 -69.9375 14.4375 C-68.7535396 18.93654951 -68.34763753 23.37093178 -68 28 C-67.31292969 27.83757813 -66.62585938 27.67515625 -65.91796875 27.5078125 C-62.66600066 26.94187428 -59.61220503 26.86747502 -56.3125 26.875 C-55.17425781 26.87242188 -54.03601563 26.86984375 -52.86328125 26.8671875 C-50 27 -50 27 -48 28 C-48 29.32 -48 30.64 -48 32 C-48.85464844 32.18175781 -49.70929687 32.36351562 -50.58984375 32.55078125 C-52.24693359 32.92783203 -52.24693359 32.92783203 -53.9375 33.3125 C-55.03964844 33.55613281 -56.14179687 33.79976562 -57.27734375 34.05078125 C-58.17582031 34.36402344 -59.07429688 34.67726562 -60 35 C-60.33 35.99 -60.66 36.98 -61 38 C-59.32975557 41.23800628 -59.32975557 41.23800628 -56.33207703 41.65313721 C-44.24176553 42.91171532 -32.15597959 43.17221828 -20.01171875 43.203125 C-19.24682444 43.20595238 -18.48193012 43.20877975 -17.69385719 43.21169281 C-13.67033186 43.22648713 -9.64684075 43.23584868 -5.62329102 43.24023438 C-1.47843826 43.24578772 2.66609728 43.27001247 6.81084919 43.29820633 C10.01839669 43.31677979 13.22586539 43.32203477 16.43346214 43.32357025 C17.96330751 43.32659351 19.49315161 43.33461105 21.0229435 43.34775543 C23.14747001 43.36475563 25.27118561 43.36295481 27.39575195 43.35644531 C29.20533134 43.36191376 29.20533134 43.36191376 31.0514679 43.36749268 C33.98879768 43.24133975 33.98879768 43.24133975 35.9127655 41.61834717 C37.20912133 40.01366446 37.20912133 40.01366446 37 37.75 C35.6458462 34.02607706 33.98671769 30.65858054 31 28 C25.84428514 26.05865058 21.17304938 25.6902967 15.75 25.75 C15.06292969 25.74226563 14.37585938 25.73453125 13.66796875 25.7265625 C9.61016703 25.74150836 5.83316049 26.16544354 1.8515625 26.953125 C-6.07553185 28.49940453 -14.09552143 28.76052659 -22.14453125 29.2109375 C-23.34207031 29.28570312 -24.53960937 29.36046875 -25.7734375 29.4375 C-26.85028809 29.49808594 -27.92713867 29.55867188 -29.03662109 29.62109375 C-32.00245183 30.0003135 -34.25807218 30.85550188 -37 32 C-39.3125 31.625 -39.3125 31.625 -41 31 C-41.1875 28.625 -41.1875 28.625 -41 26 C-37.94595733 23.96397155 -36.90100653 23.69104691 -33.39453125 23.40234375 C-32.49283203 23.32306641 -31.59113281 23.24378906 -30.66210938 23.16210938 C-29.72173828 23.08798828 -28.78136719 23.01386719 -27.8125 22.9375 C-25.96475073 22.78104257 -24.11709251 22.62350586 -22.26953125 22.46484375 C-21.38217285 22.38991699 -20.49481445 22.31499023 -19.58056641 22.23779297 C-16.0403707 21.91157248 -12.52406296 21.46794256 -9 21 C-9.38086284 17.41674877 -9.38086284 17.41674877 -11.5 14.6875 C-13.61750657 12.30530511 -13.90187715 10.13029634 -14.20703125 7.00390625 C-14 5 -14 5 -11.6875 2.0625 C-7.34215751 -1.27229772 -5.39000838 -1.30103651 0 0 Z " fill="#94A3D4" transform="translate(73,20)"/>
	

	<path d="M0 0 C8.33764186 -0.09286977 16.61728604 -0.09489949 24.9375 0.5 C36.69095591 1.31379022 48.37245804 1.36274531 60.10546875 0.23046875 C65.37280144 -0.18892751 70.73139146 -0.4639521 76 0 C78 2 78 2 78.3125 5.6875 C78.1508809 10.64381901 77.08036726 14.81815141 73.55859375 18.51171875 C68.96328745 22.23274404 64.78648793 22.89082098 59 23 C57.89527344 23.02707031 56.79054687 23.05414063 55.65234375 23.08203125 C51.76540772 23.12699055 47.88569217 23.08833254 44 23 C42.02193359 22.95746094 42.02193359 22.95746094 40.00390625 22.9140625 C29.21313216 22.5390173 15.35601099 21.86032554 7.359375 13.78125 C4.13428164 9.5552656 1.67937476 5.03812429 0 0 Z " fill="#0635CF" transform="translate(31,69)"/>
	

	<path d="M0 0 C2.0625 0.4375 2.0625 0.4375 4 1 C3.2884375 1.61875 3.2884375 1.61875 2.5625 2.25 C0.72473049 4.30830185 0.15763093 5.24145879 0 8 C1.35814007 11.21712945 1.35814007 11.21712945 3 14 C1.85909912 14.57129639 0.71819824 15.14259277 -0.45727539 15.73120117 C-2.98116043 17.55114738 -3.87424533 18.48887902 -4.6257019 21.54312134 C-4.81115242 24.81534996 -4.78603584 28.0247617 -4.68359375 31.30078125 C-4.67368912 32.49229294 -4.66378448 33.68380463 -4.65357971 34.91142273 C-4.61442826 38.71303948 -4.52659303 42.5117576 -4.4375 46.3125 C-4.40238766 48.89123432 -4.37044855 51.47001393 -4.34179688 54.04882812 C-4.26466313 60.36687259 -4.14756197 66.68322924 -4 73 C-3.24785217 72.99777939 -2.49570435 72.99555878 -1.72076416 72.99327087 C5.51085559 72.97289082 12.74246064 72.95783957 19.97410202 72.94818783 C23.68831395 72.94305841 27.40250139 72.93615208 31.11669922 72.92456055 C46.37961833 72.87838281 61.633546 72.91119439 76.890625 73.37890625 C78.06034851 73.40951645 79.23007202 73.44012665 80.4352417 73.47166443 C81.5088092 73.51009964 82.58237671 73.54853485 83.68847656 73.58813477 C84.62258362 73.61915787 85.55669067 73.65018097 86.519104 73.68214417 C89.08500614 74.0108911 90.7800939 74.70340312 93 76 C93 76.66 93 77.32 93 78 C59.34 78 25.68 78 -9 78 C-9 52.59 -9 27.18 -9 1 C-6.36 1 -3.72 1 -1 1 C-0.67 0.67 -0.34 0.34 0 0 Z " fill="#B6C0DF" transform="translate(9,50)"/>
	

	

	<path d="M0 0 C2 1 2 1 3.6875 4.4375 C7.19194736 15.39109927 5.1475002 32.91089961 0 43 C-0.99 43.495 -0.99 43.495 -2 44 C-1.01 41.03 -0.02 38.06 1 35 C-0.32 35.99 -1.64 36.98 -3 38 C-2.98839844 37.14535156 -2.97679688 36.29070312 -2.96484375 35.41015625 C-2.95582031 34.30542969 -2.94679688 33.20070312 -2.9375 32.0625 C-2.92589844 30.96035156 -2.91429688 29.85820313 -2.90234375 28.72265625 C-2.68737429 26.08552366 -2.68737429 26.08552366 -4 25 C-10.23757524 24.67119758 -16.4750968 24.89094086 -22.6875 25.5 C-41.74819466 27.19482981 -60.96335614 25.27385266 -80 24 C-79.01 25.32 -78.02 26.64 -77 28 C-77.33 28.66 -77.66 29.32 -78 30 C-79.32 28.68 -80.64 27.36 -82 26 C-81.67 25.01 -81.34 24.02 -81 23 C-77.4375 21.8125 -77.4375 21.8125 -74 21 C-74.8353125 20.90912109 -74.8353125 20.90912109 -75.6875 20.81640625 C-80.79793457 20.25529435 -85.89999553 19.64909148 -91 19 C-91 18.67 -91 18.34 -91 18 C-89.91671921 18.00666183 -88.83343842 18.01332367 -87.71733093 18.02018738 C-77.52000909 18.08094116 -67.32272386 18.12594504 -57.12526226 18.15543652 C-51.88234109 18.17110796 -46.63956575 18.19237325 -41.39672852 18.22631836 C-36.33929316 18.25885901 -31.28199827 18.27684187 -26.22446632 18.28463173 C-24.2927002 18.29018476 -22.36094196 18.30102819 -20.42923546 18.31719017 C-17.72828796 18.33889413 -15.02792464 18.34196989 -12.3269043 18.34057617 C-11.12281166 18.35675491 -11.12281166 18.35675491 -9.89439392 18.3732605 C-5.69010135 18.37398742 -5.69010135 18.37398742 -1.96784973 16.62715149 C-0.7721812 14.97330218 -0.7721812 14.97330218 -1.1875 12.625 C-1.99560224 10.01420816 -2.92360806 7.51158119 -4 5 C-2.35 6.65 -0.7 8.3 1 10 C1.33 9.67 1.66 9.34 2 9 C1.74804092 7.46797294 1.42403223 5.94742872 1.0625 4.4375 C0.86785156 3.61121094 0.67320313 2.78492188 0.47265625 1.93359375 C0.31667969 1.29550781 0.16070312 0.65742187 0 0 Z " fill="#7287CD" transform="translate(111,45)"/>
	

	<path d="M0 0 C9.9 0 19.8 0 30 0 C30 9.57 30 19.14 30 29 C26.07955967 27.03977983 24.59463006 25.67571696 21.8125 22.4375 C15.5406035 15.3122143 9.29861199 8.57273452 1.43359375 3.19140625 C0.96050781 2.79824219 0.48742187 2.40507813 0 2 C0 1.34 0 0.68 0 0 Z " fill="#EDF0F3" transform="translate(98,0)"/>
	

	<path d="M0 0 C8.33764186 -0.09286977 16.61728604 -0.09489949 24.9375 0.5 C36.69095591 1.31379022 48.37245804 1.36274531 60.10546875 0.23046875 C65.37280144 -0.18892751 70.73139146 -0.4639521 76 0 C78 2 78 2 78.3125 5.6875 C78.1508809 10.64381901 77.08036726 14.81815141 73.55859375 18.51171875 C68.96328745 22.23274404 64.78648793 22.89082098 59 23 C57.89527344 23.02707031 56.79054687 23.05414063 55.65234375 23.08203125 C51.76540772 23.12699055 47.88569217 23.08833254 44 23 C42.02193359 22.95746094 42.02193359 22.95746094 40.00390625 22.9140625 C30.4903076 22.57673373 22.07877081 20.80450535 13 18 C16.80021192 16.73326269 18.68239568 17.47863133 22.56640625 18.40625 C30.60787234 20.1655691 38.43360065 20.52563503 46.64575195 20.50097656 C48.96101148 20.49998998 51.27309396 20.54211049 53.58789062 20.5859375 C63.75768787 20.76905018 63.75768787 20.76905018 72.71655273 16.41699219 C74.60850549 14.32817845 75.22598321 12.66084784 75.5625 9.875 C75.68753906 9.02679688 75.81257813 8.17859375 75.94140625 7.3046875 C76.1349021 4.83764481 76.1349021 4.83764481 75 2 C74.45359863 2.15364014 73.90719727 2.30728027 73.34423828 2.46557617 C62.87606729 4.85204007 51.43299236 4.18629878 40.75341797 4.18530273 C38.13622794 4.18749061 35.51945982 4.20572297 32.90234375 4.22460938 C22.75359707 4.25728703 13.01933323 3.67749224 3 2 C3.515625 2.763125 4.03125 3.52625 4.5625 4.3125 C5.036875 5.199375 5.51125 6.08625 6 7 C5.67 7.99 5.34 8.98 5 10 C4.16121545 8.71186658 3.32913217 7.41936744 2.5 6.125 C2.0359375 5.40570313 1.571875 4.68640625 1.09375 3.9453125 C0 2 0 2 0 0 Z " fill="#3659C9" transform="translate(31,69)"/>
	

	<path d="M0 0 C2.0625 0.4375 2.0625 0.4375 4 1 C3.2884375 1.61875 3.2884375 1.61875 2.5625 2.25 C0.72473049 4.30830185 0.15763093 5.24145879 0 8 C1.35814007 11.21712945 1.35814007 11.21712945 3 14 C2.50628906 14.30292969 2.01257812 14.60585937 1.50390625 14.91796875 C0.86324219 15.33691406 0.22257813 15.75585938 -0.4375 16.1875 C-1.39462891 16.79658203 -1.39462891 16.79658203 -2.37109375 17.41796875 C-6.1199389 21.05893347 -5.27465079 27.54397775 -5.5 32.484375 C-5.54060547 33.29940491 -5.58121094 34.11443481 -5.62304688 34.9541626 C-5.75222739 37.55261629 -5.87657224 40.15126715 -6 42.75 C-6.12375872 45.33443005 -6.24868305 47.91878045 -6.37695312 50.50299072 C-6.4564839 52.10682195 -6.53348285 53.71078163 -6.60742188 55.31488037 C-6.86719276 60.57538312 -7.37719334 65.76972158 -8 71 C-8.33 71 -8.66 71 -9 71 C-9 47.9 -9 24.8 -9 1 C-6.36 1 -3.72 1 -1 1 C-0.67 0.67 -0.34 0.34 0 0 Z " fill="#EDF0F3" transform="translate(9,50)"/>
	

	<path d="M0 0 C2.15602322 1.59705424 2.83736429 2.69959286 3.6875 5.25 C3.9375 8.375 3.9375 8.375 3.6875 11.25 C3.0275 11.91 2.3675 12.57 1.6875 13.25 C1.790625 12.198125 1.89375 11.14625 2 10.0625 C1.9991205 6.17062885 1.9991205 6.17062885 -0.375 3.25 C-3.21117375 0.92618082 -3.21117375 0.92618082 -6.875 1.1875 C-10.63760269 2.35048629 -12.24515019 2.89055656 -14.3125 6.25 C-14.3125 12.29721897 -13.18279927 14.60564088 -9.3125 19.25 C-9.6953125 21.390625 -9.6953125 21.390625 -10.3125 23.25 C-19.00343593 24.62930108 -27.54748139 25.55758723 -36.328125 26.00390625 C-39.23752301 26.05743017 -39.23752301 26.05743017 -41.3125 27.25 C-41.3125 28.9 -41.3125 30.55 -41.3125 32.25 C-38.54973823 31.72731534 -35.9864124 31.14130413 -33.3125 30.25 C-31.30553767 30.05535617 -29.29394439 29.90699763 -27.28125 29.78515625 C-26.07726562 29.70716797 -24.87328125 29.62917969 -23.6328125 29.54882812 C-21.11730832 29.39321667 -18.60168478 29.2395211 -16.0859375 29.08789062 C-9.53479964 28.66018895 -3.23909726 27.94672524 3.19921875 26.67553711 C6.95775409 26.03276561 10.63304512 25.95717312 14.4375 26 C15.49130859 25.98839844 15.49130859 25.98839844 16.56640625 25.9765625 C21.87826952 25.99627257 27.40512769 26.33575225 31.625 29.875 C31.975625 30.32875 32.32625 30.7825 32.6875 31.25 C32.1925 32.24 32.1925 32.24 31.6875 33.25 C30.89601563 32.59644531 30.10453125 31.94289062 29.2890625 31.26953125 C25.06850692 28.46037109 20.98069402 28.76725482 16.0625 28.9375 C15.216875 28.94716797 14.37125 28.95683594 13.5 28.96679688 C9.10972121 29.00610121 9.10972121 29.00610121 4.80175781 29.73583984 C2.04090364 30.40724387 -0.64073477 30.54335069 -3.4765625 30.71484375 C-4.68183594 30.79283203 -5.88710937 30.87082031 -7.12890625 30.95117188 C-9.64438087 31.1072603 -12.16000547 31.26095252 -14.67578125 31.41210938 C-21.71754834 31.87233113 -28.43536408 32.67935612 -35.3125 34.25 C-37.68004682 34.72777971 -39.8964396 35.04866163 -42.3125 35.25 C-42.9725 34.59 -43.6325 33.93 -44.3125 33.25 C-43.85096154 26.78846154 -43.85096154 26.78846154 -41.3125 24.25 C-39.39233398 23.85522461 -39.39233398 23.85522461 -37.05859375 23.65234375 C-36.20330078 23.57306641 -35.34800781 23.49378906 -34.46679688 23.41210938 C-33.57025391 23.33798828 -32.67371094 23.26386719 -31.75 23.1875 C-29.99865629 23.03041135 -28.24735383 22.872862 -26.49609375 22.71484375 C-25.63870605 22.63991699 -24.78131836 22.56499023 -23.89794922 22.48779297 C-20.02924263 22.13197425 -16.17214591 21.69278171 -12.3125 21.25 C-12.87188236 18.67032405 -13.36867043 17.16686776 -14.875 14.9375 C-16.75714038 11.41871581 -16.805318 9.19254402 -16.3125 5.25 C-12.40805031 -0.94326502 -7.00987175 -2.27347192 0 0 Z " fill="#3659C9" transform="translate(74.3125,18.75)"/>
	

	

	<path d="M0 0 C2.11175895 -0.00434568 4.22137799 -0.04060587 6.33276367 -0.07861328 C13.71978312 -0.14224363 20.76668838 -0.16330665 26.94799805 4.37060547 C28.51831055 6.62451172 28.51831055 6.62451172 29.07299805 8.93310547 C29.38624023 10.07972656 29.38624023 10.07972656 29.70581055 11.24951172 C29.94799805 13.37060547 29.94799805 13.37060547 28.94799805 16.37060547 C28.26737305 15.50435547 27.58674805 14.63810547 26.88549805 13.74560547 C25.91583345 12.61240517 24.93609135 11.48777331 23.94799805 10.37060547 C23.48723877 9.8345166 23.02647949 9.29842773 22.55175781 8.74609375 C19.01418601 5.16751151 16.37570222 3.95716563 11.32299805 3.71435547 C9.19744024 3.73284003 7.07196888 3.78642952 4.94799805 3.87060547 C3.26915527 3.90456421 3.26915527 3.90456421 1.55639648 3.93920898 C-5.47351678 4.12996278 -12.28053383 4.73259696 -19.2199707 5.86669922 C-25.06579753 6.63541651 -30.93156865 6.78824865 -36.82250977 6.94067383 C-41.59841885 7.10038356 -45.56148712 7.54195575 -50.05200195 9.37060547 C-49.72200195 8.05060547 -49.39200195 6.73060547 -49.05200195 5.37060547 C-48.10357422 5.2902002 -47.15514648 5.20979492 -46.17797852 5.12695312 C-42.65118979 4.82578368 -39.12541956 4.51386486 -35.59985352 4.19873047 C-34.07536967 4.06396947 -32.5506269 3.93210444 -31.02563477 3.80322266 C-28.83054905 3.61719844 -26.6366129 3.42069475 -24.44262695 3.22216797 C-23.76331116 3.1668692 -23.08399536 3.11157043 -22.38409424 3.05459595 C-19.69971248 2.80344967 -17.4413747 2.5682604 -15.01855469 1.33837891 C-10.59141652 -0.84028971 -4.8792393 -0.0011236 0 0 Z " fill="#A5B1D8" transform="translate(84.052001953125,40.62939453125)"/>
	

	<path d="M0 0 C2.9375 1.0625 2.9375 1.0625 4.9375 3.3125 C5.9375 6.0625 5.9375 6.0625 5.375 8.625 C3.79692142 11.30087238 2.41162015 13.17052577 -0.0625 15.0625 C-2.0625 15.125 -2.0625 15.125 -4.0625 14.0625 C-6.375 11.8125 -6.375 11.8125 -8.0625 9.0625 C-8.0625 5.77559671 -7.27354339 4.35952403 -5.375 1.6875 C-3.0625 0.0625 -3.0625 0.0625 0 0 Z " fill="#EDF0F3" transform="translate(69.0625,20.9375)"/>
	

	<path d="M0 0 C0.495 1.485 0.495 1.485 1 3 C-3.90537051 10.20476294 -10.40933473 13.33607268 -18.68359375 15.4765625 C-24.20964303 16.34875402 -29.6996379 16.15970941 -35.27734375 16.0078125 C-38.80000731 15.83942211 -38.80000731 15.83942211 -41.31640625 16.6171875 C-41.87199219 16.74351563 -42.42757812 16.86984375 -43 17 C-43.99 16.34 -44.98 15.68 -46 15 C-48.1825881 14.44385453 -48.1825881 14.44385453 -50.60546875 14.10546875 C-51.95801758 13.87827148 -51.95801758 13.87827148 -53.33789062 13.64648438 C-55.21677163 13.34385447 -57.09698864 13.04939011 -58.97851562 12.76367188 C-65.15593242 11.70706616 -70.10984251 10.03920012 -75 6 C-75.33 5.34 -75.66 4.68 -76 4 C-75.4534375 4.28875 -74.906875 4.5775 -74.34375 4.875 C-66.00379128 8.87818018 -57.12478867 10.83955164 -48 12 C-46.69482422 12.16822266 -46.69482422 12.16822266 -45.36328125 12.33984375 C-32.76598066 13.71443709 -17.23597972 15.32355415 -6.19140625 7.76171875 C-4.68132968 6.38273102 -4.68132968 6.38273102 -3 4 C-2.401875 3.236875 -1.80375 2.47375 -1.1875 1.6875 C-0.795625 1.130625 -0.40375 0.57375 0 0 Z " fill="#3659C9" transform="translate(112,85)"/>
	

	<path d="M0 0 C0.33 0.99 0.66 1.98 1 3 C1.55469971 2.83846436 2.10939941 2.67692871 2.6809082 2.51049805 C7.11153533 1.53519103 11.66905776 1.81534716 16.1875 1.8125 C17.19103516 1.80025391 18.19457031 1.78800781 19.22851562 1.77539062 C26.82433013 1.7605647 33.83005527 2.00410888 40.375 6.125 C46.51952959 12.85472288 46.47160237 20.32725348 46.375 29 C46.38660156 30.0415625 46.39820313 31.083125 46.41015625 32.15625 C46.38620831 38.47850598 45.61892602 43.2355914 43 49 C41.95092797 45.48755143 42.21727804 42.76088992 42.74609375 39.1328125 C43.06457129 36.45760114 43.01617376 33.81508028 42.953125 31.125 C43.00579835 28.73714151 43.38143399 26.48382248 43.75 24.125 C44.35040934 18.40345213 43.07200957 13.85661628 40 9 C34.09587006 3.08025067 24.29538365 3.95114654 16.5546875 3.90234375 C14.32810379 3.90889253 12.10152974 3.92067158 9.875 3.9375 C8.15410156 3.94426758 8.15410156 3.94426758 6.3984375 3.95117188 C3.59890187 3.96283661 0.79948014 3.97920386 -2 4 C-1.34 2.68 -0.68 1.36 0 0 Z " fill="#3659C9" transform="translate(71,36)"/>
	

	

	<path d="M0 0 C8.12174749 -0.02358548 16.24347975 -0.04114269 24.36525345 -0.05181217 C28.13999932 -0.0569432 31.91472111 -0.06385284 35.68945312 -0.07543945 C51.10507747 -0.12131339 66.51214107 -0.09384108 81.921875 0.37890625 C83.0897052 0.40951645 84.2575354 0.44012665 85.46075439 0.47166443 C86.53170349 0.51009964 87.60265259 0.54853485 88.70605469 0.58813477 C90.10244171 0.63466942 90.10244171 0.63466942 91.52703857 0.68214417 C94.08845819 1.01136975 95.7833895 1.70618017 98 3 C98 3.66 98 4.32 98 5 C97.39849121 4.86287598 96.79698242 4.72575195 96.17724609 4.58447266 C89.9643837 3.24449056 83.97011607 2.59056691 77.625 2.375 C76.63661133 2.33777832 75.64822266 2.30055664 74.62988281 2.26220703 C54.14171816 1.5703409 33.67666268 1.98467632 13.19824219 2.73193359 C12.46701141 2.75673294 11.73578064 2.78153229 10.98239136 2.80708313 C8.98666404 2.87484935 6.99112562 2.94811398 4.99560547 3.02172852 C2 3 2 3 0 2 C0 1.34 0 0.68 0 0 Z " fill="#7287CD" transform="translate(4,123)"/>
	

	

	

	<path d="M0 0 C3 0 3 0 5.0625 1.9375 C5.70832031 2.62585938 5.70832031 2.62585938 6.3671875 3.328125 C8.38296151 5.39212327 10.52599163 7.27669949 12.6875 9.1875 C17.297067 13.29948256 21.65661162 17.60994356 25.96875 22.03125 C27.84591953 24.04852969 27.84591953 24.04852969 30 25 C30 26.32 30 27.64 30 29 C26.34924186 27.49867699 24.36723727 25.41104665 21.8125 22.4375 C15.5406035 15.3122143 9.29861199 8.57273452 1.43359375 3.19140625 C0.96050781 2.79824219 0.48742187 2.40507813 0 2 C0 1.34 0 0.68 0 0 Z " fill="#8D9DD2" transform="translate(98,0)"/>
	

	

	<path d="M0 0 C-0.33 2.31 -0.66 4.62 -1 7 C-1.57111511 6.67468292 -2.14223022 6.34936584 -2.73065186 6.01419067 C-5.15879598 4.92903275 -6.67129496 4.75705599 -9.30957031 4.77294922 C-10.15013977 4.77310028 -10.99070923 4.77325134 -11.85675049 4.77340698 C-12.75480408 4.78372955 -13.65285767 4.79405212 -14.578125 4.8046875 C-15.96798615 4.80893234 -15.96798615 4.80893234 -17.38592529 4.81326294 C-20.34074909 4.82444389 -23.29526805 4.84954473 -26.25 4.875 C-28.25520395 4.88503249 -30.26041266 4.89415787 -32.265625 4.90234375 C-37.17720051 4.92437642 -42.08854859 4.95889205 -47 5 C-47 4.67 -47 4.34 -47 4 C-37.51934522 2.96536284 -28.04366989 2.70611135 -18.51489258 2.52319336 C-16.531878 2.48349027 -14.54912427 2.43136958 -12.56640625 2.37890625 C-11.40052979 2.3538501 -10.23465332 2.32879395 -9.03344727 2.30297852 C-5.69413927 1.96945085 -3.20811667 0 0 0 Z " fill="#A5B1D8" transform="translate(112,63)"/>
	

	

	

	

	

	

	

	

	

</svg>
