<?xml version="1.0" encoding="iso-8859-1"?>
<svg height="128" version="1.1" width="128" xmlns="http://www.w3.org/2000/svg">
	

	<path d="M0 0 C42.24 0 84.48 0 128 0 C128 42.24 128 84.48 128 128 C85.76 128 43.52 128 0 128 C0 85.76 0 43.52 0 0 Z " fill="#FBF9F8" transform="translate(0,0)"/>
	

	<path d="M0 0 C1.69382812 0.14888672 1.69382812 0.14888672 3.421875 0.30078125 C6.25 0.6875 6.25 0.6875 8.25 1.6875 C7.875 3.625 7.875 3.625 7.25 5.6875 C4.54816945 7.03841528 2.13191794 7.02608058 -0.875 7.25 C-1.97070312 7.33378906 -3.06640625 7.41757812 -4.1953125 7.50390625 C-5.03835937 7.56449219 -5.88140625 7.62507813 -6.75 7.6875 C-7.51665377 15.28305126 -6.79040884 19.85603482 -2.16015625 26.0078125 C-0.85691218 27.60955494 -0.85691218 27.60955494 0.25 28.6875 C0.56966692 24.02331431 0.56966692 24.02331431 -0.8125 19.6875 C-2.26490501 16.58903598 -1.3786568 13.95651537 -0.75 10.6875 C0.57 11.0175 1.89 11.3475 3.25 11.6875 C3.37375 12.821875 3.4975 13.95625 3.625 15.125 C3.83125 16.300625 4.0375 17.47625 4.25 18.6875 C4.91 19.0175 5.57 19.3475 6.25 19.6875 C6.270625 18.553125 6.29125 17.41875 6.3125 16.25 C7.01003546 10.24046369 11.08710849 5.85039151 15.25 1.6875 C17.88575543 1.58725874 20.48954245 1.54874979 23.125 1.5625 C23.85847656 1.55863281 24.59195313 1.55476562 25.34765625 1.55078125 C28.57433238 1.55665862 31.16843421 1.6603114 34.25 2.6875 C34.25 3.3475 34.25 4.0075 34.25 4.6875 C31.3424036 5.39237186 28.88359095 5.68071465 25.875 5.625 C21.92827646 5.69304696 18.92420441 6.24663553 15.25 7.6875 C13.79780623 9.58918356 13.79780623 9.58918356 13.25 11.6875 C12.92 12.3475 12.59 13.0075 12.25 13.6875 C12.12120592 15.22730482 12.02109468 16.7695811 11.9375 18.3125 C11.55191906 22.91287946 10.35877543 26.02487641 7.89453125 29.8984375 C7.05517407 31.68313926 7.05517407 31.68313926 7.7734375 33.53125 C9.88200972 36.61043482 12.42599481 39.19193498 15.0625 41.8125 C15.58392578 42.35003906 16.10535156 42.88757812 16.64257812 43.44140625 C19.67366959 46.47628185 22.10001244 48.33841163 26.25 49.6875 C26.92160156 50.05230469 27.59320313 50.41710938 28.28515625 50.79296875 C34.75642769 54.24680727 40.1287297 53.79605646 47.25 52.6875 C46.940625 50.83125 46.940625 50.83125 46.625 48.9375 C46.18892876 45.56840165 46.21596361 43.55908079 48.25 40.6875 C48.91 40.6875 49.57 40.6875 50.25 40.6875 C50.29125 39.65625 50.3325 38.625 50.375 37.5625 C51.37975909 33.11285258 52.56569403 32.12651249 55.81640625 29.2421875 C58.17732228 26.68184805 58.57684992 24.05325041 59.25 20.6875 C65.64220288 20.23892436 69.03709162 20.85760813 74.25 24.6875 C74.9375 26.8125 74.9375 26.8125 75.25 28.6875 C75.8275 28.955625 76.405 29.22375 77 29.5 C80.41724573 31.30354636 82.42082798 34.32152362 84.25 37.6875 C84.25 38.6775 84.25 39.6675 84.25 40.6875 C85.735 41.1825 85.735 41.1825 87.25 41.6875 C87.25 49.9375 87.25 58.1875 87.25 66.6875 C85.93 67.0175 84.61 67.3475 83.25 67.6875 C83.146875 68.450625 83.04375 69.21375 82.9375 70 C82.16596219 73.01601145 81.5628478 73.70505903 79.25 75.6875 C78.198125 76.7703125 78.198125 76.7703125 77.125 77.875 C76.16994668 78.81584121 75.21109687 79.7528333 74.25 80.6875 C73.610625 81.32300781 72.97125 81.95851563 72.3125 82.61328125 C62.4823007 91.93441666 52.57471415 94.80893605 39.1875 95 C38.1655957 95.04350586 38.1655957 95.04350586 37.12304688 95.08789062 C31.99674239 95.15190788 29.21119487 93.86122842 25.25 90.6875 C24.775625 90.171875 24.30125 89.65625 23.8125 89.125 C22.12082588 87.37862831 22.12082588 87.37862831 18.6875 86.4375 C15.25 84.6875 15.25 84.6875 13.8125 81 C13.626875 79.906875 13.44125 78.81375 13.25 77.6875 C12.59 77.6875 11.93 77.6875 11.25 77.6875 C10.59 76.6975 9.93 75.7075 9.25 74.6875 C2.31332292 71.62831211 -5.28540659 71.3829677 -12.75 71.3125 C-13.57491943 71.29872314 -14.39983887 71.28494629 -15.24975586 71.27075195 C-19.81406618 71.30593782 -22.22661822 71.55466175 -25.75 74.6875 C-30.25250786 73.82531764 -33.77384845 72.18885477 -36.75 68.6875 C-37.41522719 65.31335797 -37.07518352 62.09336951 -36.75 58.6875 C-36.63140625 57.41390625 -36.5128125 56.1403125 -36.390625 54.828125 C-34.26213042 34.42418664 -34.26213042 34.42418664 -27.75 27.6875 C-26.43 28.0175 -25.11 28.3475 -23.75 28.6875 C-22.98503855 33.77155146 -22.68053086 38.23969466 -23.4921875 43.359375 C-24.05459786 48.43811096 -23.82000831 53.58467217 -23.75 58.6875 C-12.2721505 60.72800658 -1.17811023 59.29345777 10.25 57.6875 C10.58 56.6975 10.91 55.7075 11.25 54.6875 C10.45335937 54.44257812 9.65671875 54.19765625 8.8359375 53.9453125 C2.84207814 51.83069059 -1.0489215 50.23487744 -4.25 44.5625 C-4.6521875 43.71429688 -5.054375 42.86609375 -5.46875 41.9921875 C-6.89990758 39.41784917 -8.39817725 38.39617122 -10.75 36.6875 C-11.875 33.5625 -11.875 33.5625 -12.75 29.6875 C-12.935625 28.87667969 -13.12125 28.06585938 -13.3125 27.23046875 C-13.80643386 25.05235763 -14.28440876 22.87181634 -14.75 20.6875 C-14.75 21.945625 -14.75 23.20375 -14.75 24.5 C-14.75 26.89583333 -14.75 29.29166667 -14.75 31.6875 C-21.33878505 29.49123832 -21.33878505 29.49123832 -23.125 26 C-24.59551487 18.20627119 -25.81739857 10.67357891 -22.6875 3.125 C-20.12835114 1.22627665 -18.07953727 1.45764229 -14.98046875 1.7421875 C-12.59799538 1.79997866 -12.59799538 1.79997866 -9.91015625 0.67578125 C-6.31357584 -0.4489837 -3.73544394 -0.35719107 0 0 Z " fill="#D36B6F" transform="translate(40.75,10.3125)"/>
	

	<path d="M0 0 C0 0.66 0 1.32 0 2 C-1.134375 2.33 -2.26875 2.66 -3.4375 3 C-5.38631188 3.76184966 -5.38631188 3.76184966 -7 5 C-8.55017026 10.08111364 -8.3647011 13.80970752 -6.20703125 18.78515625 C-2.47182222 25.63908349 1.22996639 31.25593809 8.22460938 34.95898438 C11.14290553 36.67015253 13.47068535 39.02657139 15.875 41.375 C26.53727126 51.52739403 26.53727126 51.52739403 40.29296875 55.0546875 C41.92461537 54.9986246 43.55612846 54.93856614 45.1875 54.875 C51.77666396 54.7310801 56.73355401 55.04764594 62.71875 58.05078125 C66.30319853 59.54225555 69.9047805 59.58455155 73.75 59.7265625 C76 60 76 60 78 62 C77.86464841 67.39017792 77.15342627 72.4734064 73.875 76.8125 C72.92625 77.534375 71.9775 78.25625 71 79 C70.42121094 79.57363281 69.84242187 80.14726563 69.24609375 80.73828125 C61.39884313 88.39529549 53.46921794 89.26971926 42.875 89.5625 C42.02776367 89.60173584 41.18052734 89.64097168 40.30761719 89.68139648 C34.34486546 89.70524284 31.16037642 88.29122727 26.6652832 84.37817383 C24.97966752 82.81120055 24.97966752 82.81120055 22.3125 82.125 C19.035196 80.53063589 18.04177174 78.05955625 16.25 74.96875 C13.56323166 70.73708987 9.73423578 68.36766811 5 67 C-3.95715472 65.53795036 -14.40027538 64.30061631 -22.9375 67.75 C-25.0546875 68.59765625 -25.0546875 68.59765625 -27 69 C-30.5625 67.1875 -30.5625 67.1875 -33 65 C-32.59753005 57.26980125 -31.76685923 49.65244718 -30.625 42 C-30.51115967 41.18748779 -30.39731934 40.37497559 -30.2800293 39.5378418 C-29.59205548 35.11948026 -28.83885378 31.61043968 -26 28 C-25.34 28 -24.68 28 -24 28 C-24 37.9 -24 47.8 -24 58 C-13.88870983 61.37043006 2.97674125 60.26541705 13 57 C15.31414956 55.72122225 15.31414956 55.72122225 17 54 C17 53.01 17 52.02 17 51 C16.16855469 50.66226563 15.33710937 50.32453125 14.48046875 49.9765625 C13.39378906 49.53054687 12.30710938 49.08453125 11.1875 48.625 C10.10855469 48.18414062 9.02960937 47.74328125 7.91796875 47.2890625 C3.09216828 45.15718277 1.87632538 43.74599948 0 39 C-0.598125 38.278125 -1.19625 37.55625 -1.8125 36.8125 C-7.97734431 28.8862716 -10.18023996 21.260334 -10.1875 11.4375 C-10.19974609 10.56158203 -10.21199219 9.68566406 -10.22460938 8.78320312 C-10.22654297 7.94595703 -10.22847656 7.10871094 -10.23046875 6.24609375 C-10.23457764 5.47966553 -10.23868652 4.7132373 -10.24291992 3.92358398 C-10 2 -10 2 -8 0 C-4.98413546 -1.105817 -3.03916514 -0.97687451 0 0 Z " fill="#D70A10" transform="translate(39,13)"/>
	

	<path d="M0 0 C5.60567382 1.15481692 10.71869271 0.68306512 16.38671875 0.1875 C22.8602618 -0.30280385 27.54200554 -0.36841986 32.75 3.8125 C34.47265625 5.3671875 34.47265625 5.3671875 35.6875 6.9375 C35.6875 7.9275 35.6875 8.9175 35.6875 9.9375 C31.17627805 11.19061721 31.17627805 11.19061721 28.9375 10.03125 C25.98003932 8.5935955 23.18714978 8.26745097 19.9375 7.8125 C18.76703125 7.64492188 17.5965625 7.47734375 16.390625 7.3046875 C15.05257812 7.12292969 15.05257812 7.12292969 13.6875 6.9375 C14.0175 6.2775 14.3475 5.6175 14.6875 4.9375 C18.6475 4.9375 22.6075 4.9375 26.6875 4.9375 C26.6875 4.2775 26.6875 3.6175 26.6875 2.9375 C23.60466557 2.79195654 20.52271561 2.70336179 17.4375 2.625 C16.12845703 2.5621582 16.12845703 2.5621582 14.79296875 2.49804688 C9.42665882 2.30504536 9.42665882 2.30504536 5.1796875 5.34375 C4.68726563 6.1996875 4.19484375 7.055625 3.6875 7.9375 C3.15125 8.535625 2.615 9.13375 2.0625 9.75 C0.03541679 12.97490511 -0.50755351 16.22236235 -1.3125 19.9375 C-2.3025 19.6075 -3.2925 19.2775 -4.3125 18.9375 C-4.8075 15.4725 -4.8075 15.4725 -5.3125 11.9375 C-6.3025 11.6075 -7.2925 11.2775 -8.3125 10.9375 C-8.63131448 15.55843564 -8.63131448 15.55843564 -7.3125 19.875 C-5.71715079 23.16540776 -6.19172723 26.31431681 -6.3125 29.9375 C-10.53207465 27.00723983 -13.55015396 23.79816407 -15.3125 18.9375 C-15.88458833 15.11722125 -16.39954446 11.48741501 -14.1015625 8.2109375 C-11.77064009 6.55180932 -10.08936009 6.4714038 -7.25 6.3125 C-3.64380551 6.1457143 -3.64380551 6.1457143 -0.3125 4.9375 C0.0175 3.9475 0.3475 2.9575 0.6875 1.9375 C-10.49389305 0.76660989 -10.49389305 0.76660989 -21.51171875 2.46875 C-23.3125 2.9375 -23.3125 2.9375 -26.25 2.875 C-27.2709375 2.9059375 -27.2709375 2.9059375 -28.3125 2.9375 C-32.19436032 8.76029047 -31.72974274 16.72037978 -30.8125 23.5 C-30.18683144 26.24501066 -29.87596198 27.51035947 -27.6171875 29.22265625 C-25.49420838 30.20636961 -25.49420838 30.20636961 -22.3125 30.9375 C-22.6425 30.2775 -22.9725 29.6175 -23.3125 28.9375 C-23.38200541 27.39726004 -23.39702357 25.85415012 -23.375 24.3125 C-23.36597656 23.49523437 -23.35695313 22.67796875 -23.34765625 21.8359375 C-23.33605469 21.20945312 -23.32445312 20.58296875 -23.3125 19.9375 C-22.6525 20.2675 -21.9925 20.5975 -21.3125 20.9375 C-20.75 22.7578125 -20.75 22.7578125 -20.3125 25.0625 C-20.14363281 25.87460937 -19.97476562 26.68671875 -19.80078125 27.5234375 C-19.63964844 28.32007812 -19.47851562 29.11671875 -19.3125 29.9375 C-18.0950102 35.5566837 -16.57128828 38.09420326 -12.3125 41.9375 C-10.29437649 44.38807854 -9.3268456 45.89446319 -8.3125 48.9375 C-5.30479216 50.6349035 -5.30479216 50.6349035 -1.75 52.125 C-0.55246094 52.65480469 0.64507812 53.18460938 1.87890625 53.73046875 C2.80574219 54.12878906 3.73257813 54.52710938 4.6875 54.9375 C4.15234375 56.859375 4.15234375 56.859375 2.6875 58.9375 C0.10116884 59.58484617 -2.12223008 59.95745345 -4.75 60.1875 C-5.46921631 60.26194336 -6.18843262 60.33638672 -6.92944336 60.41308594 C-23.45162684 62.01349385 -23.45162684 62.01349385 -31.3125 58.9375 C-34.3660442 52.83041159 -32.15035717 43.22996934 -31.43359375 36.6640625 C-31.31072419 33.89751562 -31.6546436 31.61765572 -32.3125 28.9375 C-34.48124252 29.44353992 -36.31217627 29.93733813 -38.3125 30.9375 C-36.94266497 27.77634224 -36.3234362 26.9447908 -33.3125 24.9375 C-32.96277093 22.98665314 -32.96277093 22.98665314 -33.16015625 20.76171875 C-33.18787109 19.93349609 -33.21558594 19.10527344 -33.24414062 18.25195312 C-33.33080785 16.51214091 -33.42189478 14.77254278 -33.51757812 13.03320312 C-33.65219178 8.79451462 -33.70691159 6.58493034 -31.44921875 2.87890625 C-28.90434852 0.5666567 -27.71009641 0.2463724 -24.3125 -0.0625 C-22.518125 -0.3409375 -22.518125 -0.3409375 -20.6875 -0.625 C-13.67471798 -1.44074575 -6.91523127 -1.50507975 0 0 Z " fill="#E9C4C5" transform="translate(48.3125,10.0625)"/>
	

	

	<path d="M0 0 C4.51713499 2.46186642 8.44274793 4.94458215 12.3125 8.375 C13.15425781 9.10460938 13.99601562 9.83421875 14.86328125 10.5859375 C17 13 17 13 17.87890625 16.109375 C18.75700883 19.2896053 18.75700883 19.2896053 22.0390625 20.6796875 C23.22242187 21.07414062 24.40578125 21.46859375 25.625 21.875 C26.81351563 22.28492187 28.00203125 22.69484375 29.2265625 23.1171875 C30.14179687 23.40851563 31.05703125 23.69984375 32 24 C31.505 25.485 31.505 25.485 31 27 C30.32453125 26.98839844 29.6490625 26.97679688 28.953125 26.96484375 C28.06109375 26.95582031 27.1690625 26.94679688 26.25 26.9375 C25.36828125 26.92589844 24.4865625 26.91429688 23.578125 26.90234375 C21.09037772 26.90319609 21.09037772 26.90319609 19.109375 27.49609375 C16.06105391 28.22430379 13.12852546 28.13162823 10 28.125 C8.1746875 28.12886719 8.1746875 28.12886719 6.3125 28.1328125 C3.65249989 28.02616155 1.51771029 27.79307874 -1 27 C-2.38464898 21.24838117 -1.69528943 15.92622482 -1.0625 10.125 C-0.96259766 9.15046875 -0.86269531 8.1759375 -0.75976562 7.171875 C-0.51358634 4.7804191 -0.26013937 2.38997076 0 0 Z " fill="#FCFCFB" transform="translate(19,41)"/>
	

	

	

	<path d="M0 0 C3.97486895 0.25124779 6.56922287 0.79345454 9.625 3.5 C11.97253869 6.53755007 13.54589977 9.33986323 13.8125 13.25 C12.32844025 16.06190269 10.62035754 16.93376088 7.6640625 17.9921875 C4.07432223 18.88618412 1.33505732 18.92574428 -2.375 18.5 C-4.80619623 16.62984906 -6.01569173 15.21861655 -7.375 12.5 C-7.64965658 8.86080025 -7.54994098 6.0481484 -6.4375 2.5625 C-4.01963821 0.14463821 -3.31104986 0.12671239 0 0 Z " fill="#D70A10" transform="translate(106.375,45.5)"/>
	

	

	

	<path d="M0 0 C0.66 0 1.32 0 2 0 C2.07476562 0.90363281 2.14953125 1.80726562 2.2265625 2.73828125 C2.73790415 9.86721593 2.73790415 9.86721593 6.6875 15.375 C10.53586044 16.10110574 13.18795376 15.88493931 17 15 C18.093125 14.773125 19.18625 14.54625 20.3125 14.3125 C23.31054707 13.20655851 23.31054707 13.20655851 24.375 9.875 C24.684375 8.451875 24.684375 8.451875 25 7 C27 9 27 9 27.1875 12.75 C27.1047681 16.23746762 26.68505673 19.57471633 26 23 C25.34 22.67 24.68 22.34 24 22 C24 21.34 24 20.68 24 20 C23.41734375 20.10699219 22.8346875 20.21398437 22.234375 20.32421875 C14.59703894 21.44099902 6.81290139 20.99820087 0.09375 16.8125 C-2.15113656 14.61749981 -2.97108943 12.55355241 -3.1328125 9.45703125 C-2.6410381 2.6410381 -2.6410381 2.6410381 0 0 Z " fill="#FCFCFB" transform="translate(96,49)"/>
	

	

	<path d="M0 0 C3.97486895 0.25124779 6.56922287 0.79345454 9.625 3.5 C11.97253869 6.53755007 13.54589977 9.33986323 13.8125 13.25 C12.32844025 16.06190269 10.62035754 16.93376088 7.6640625 17.9921875 C4.07432223 18.88618412 1.33505732 18.92574428 -2.375 18.5 C-4.80619623 16.62984906 -6.01569173 15.21861655 -7.375 12.5 C-7.64965658 8.86080025 -7.54994098 6.0481484 -6.4375 2.5625 C-4.01963821 0.14463821 -3.31104986 0.12671239 0 0 Z M-3.375 3.5 C-5.73118542 6.38599388 -5.73118542 6.38599388 -5.1875 10 C-4.59307165 13.36270104 -4.59307165 13.36270104 -3.1875 15.5 C-0.32221019 17.08084955 1.53188339 16.34909084 4.625 15.5 C6.65415769 14.56057514 8.66375312 13.57401615 10.625 12.5 C9.49802957 7.53088634 9.49802957 7.53088634 6.625 3.5 C4.25697999 3.14314014 4.25697999 3.14314014 1.625 3.1875 C0.738125 3.17074219 -0.14875 3.15398438 -1.0625 3.13671875 C-1.825625 3.25660156 -2.58875 3.37648437 -3.375 3.5 Z " fill="#D47175" transform="translate(106.375,45.5)"/>
	

	

	

	

	

	

	

	

	

	

	

	

	

	

	

	

	

	

	

	

	

	

	

	

	

	

	

	

	

</svg>
