<?xml version="1.0" encoding="iso-8859-1"?>
<svg height="128" version="1.1" width="128" xmlns="http://www.w3.org/2000/svg">
	

	<path d="M0 0 C42.24 0 84.48 0 128 0 C128 42.24 128 84.48 128 128 C85.76 128 43.52 128 0 128 C0 85.76 0 43.52 0 0 Z " fill="#2C4989" transform="translate(0,0)"/>
	

	

	

	<path d="M0 0 C2.60125477 2.62971489 2.94398596 4.47239946 3.28515625 8.0546875 C3.54677637 10.74379925 3.87917539 13.22350002 4.47265625 15.8671875 C5.12716996 22.01961634 3.17019255 27.42573398 -0.63671875 32.1953125 C-6.0258806 37.69119043 -11.64547551 39.35530505 -19.27734375 39.5546875 C-24.08415959 39.489783 -28.05175578 39.05007191 -31.96484375 36.0546875 C-38.68085078 28.56604249 -39.54919427 19.51534765 -39.65234375 9.8671875 C-39.66265625 9.05024414 -39.67296875 8.23330078 -39.68359375 7.39160156 C-39.59853468 1.67137914 -38.55430337 -1.68954058 -34.56640625 -5.9609375 C-22.64828664 -16.20728467 -10.18826556 -9.2620596 0 0 Z " fill="#F22564" transform="translate(88.21484375,48.1953125)"/>
	

	

	

	

	

	

	

	

	

	

	

	

	

	

	

	

	

	

	

	

	

	

	

	

	

	

	

	

	

	

	

	

	

	

	

	

</svg>
