<?xml version="1.0" encoding="iso-8859-1"?>
<svg height="128" version="1.1" width="128" xmlns="http://www.w3.org/2000/svg">
	

	<path d="M0 0 C42.24 0 84.48 0 128 0 C128 42.24 128 84.48 128 128 C85.76 128 43.52 128 0 128 C0 85.76 0 43.52 0 0 Z " fill="#FDFDFD" transform="translate(0,0)"/>
	

	<path d="M0 0 C1.125 1.70703125 1.125 1.70703125 2 3.8125 C3.54803299 7.24643031 5.21860435 9.41727547 8 12 C8 12.66 8 13.32 8 14 C8.57363281 14.268125 9.14726563 14.53625 9.73828125 14.8125 C12.07025435 16.03688657 14.08218894 17.42002922 16.1875 19 C16.88230469 19.515625 17.57710937 20.03125 18.29296875 20.5625 C20 22 20 22 21 24 C21.07116382 26.37402501 21.08409085 28.75000677 21.0625 31.125 C21.05347656 32.40632813 21.04445312 33.68765625 21.03515625 35.0078125 C21.02355469 35.99523437 21.01195312 36.98265625 21 38 C24.63 38 28.26 38 32 38 C31.21625 36.72125 30.4325 35.4425 29.625 34.125 C25.78030475 26.58809033 25.60592081 18.30201942 25 10 C33.50855479 12.19402985 33.50855479 12.19402985 35.5625 15.5625 C36.036875 16.366875 36.51125 17.17125 37 18 C38.93637295 18.58091189 40.88147285 19.15148899 42.86328125 19.55078125 C46.27820624 20.26872709 48.92894024 21.3077834 52 23 C53.1875 25.4375 53.1875 25.4375 53 28 C51.71034824 29.37562854 50.37310707 30.70766393 49 32 C48.11341534 34.59122743 48.11341534 34.59122743 48 37 C49.56305491 38.56305491 51.27678218 38.30639968 53.4375 38.5 C57.78082192 38.89041096 57.78082192 38.89041096 60 40 C59.67 41.65 59.34 43.3 59 45 C57.68 45.33 56.36 45.66 55 46 C55.2475 46.70125 55.495 47.4025 55.75 48.125 C56.09748664 52.12109632 54.17780287 53.7332957 52 57 C51.73231547 59.75004756 51.73231547 59.75004756 53 62 C54.6476038 62.71247732 56.31763529 63.37400383 58 64 C61.47232045 67.80674476 63.81418948 72.03406323 66.1875 76.5625 C66.54263672 77.22185547 66.89777344 77.88121094 67.26367188 78.56054688 C68.91675803 81.68164882 70.23965237 84.55601698 71 88 C67.32653229 90.44897847 65.33643601 90.31537716 61 90 C58.15747109 87.15747109 58.29611701 84.29854731 57.7578125 80.41015625 C56.81724103 77.41875111 55.53762851 76.72699718 53 75 C52.690625 73.7625 52.690625 73.7625 52.375 72.5 C50.64987865 69.36341573 49.51608639 69.14066771 46.1875 68 C42.09554989 66.89120484 42.09554989 66.89120484 38.1875 68.375 C37.465625 68.91125 36.74375 69.4475 36 70 C33.36328125 69.6015625 33.36328125 69.6015625 31 69 C29.66666667 63.66666667 28.33333333 58.33333333 27 53 C26.34 53 25.68 53 25 53 C25.02320312 53.98742187 25.04640625 54.97484375 25.0703125 55.9921875 C25.08835937 57.27351563 25.10640625 58.55484375 25.125 59.875 C25.14820312 61.15117188 25.17140625 62.42734375 25.1953125 63.7421875 C25 67 25 67 23 69 C20.79296875 69.125 20.79296875 69.125 18.1875 69 C14.23304835 68.90896226 11.61473269 69.29894932 8 71 C6.68 71 5.36 71 4 71 C2.5216774 68.04335481 2.93967217 65.25770263 3 62 C2.34 62 1.68 62 1 62 C0.566875 63.4540625 0.566875 63.4540625 0.125 64.9375 C-1 68 -1 68 -3 69 C-5.65835737 69.12438451 -8.27905229 69.18516188 -10.9375 69.1875 C-11.66646484 69.19974609 -12.39542969 69.21199219 -13.14648438 69.22460938 C-16.9713391 69.23512685 -18.74356564 69.17095624 -22 67 C-22 66.34 -22 65.68 -22 65 C-22.969375 65.020625 -23.93875 65.04125 -24.9375 65.0625 C-28 65 -28 65 -29 64 C-29.94337693 58.02527946 -30.11177091 52.03562907 -30 46 C-32.64 46.33 -35.28 46.66 -38 47 C-39.27382218 43.17853346 -38.97333827 40.89335307 -38 37 C-35.5 35.3125 -35.5 35.3125 -33 34 C-32.12177688 31.91466367 -32.12177688 31.91466367 -32 30 C-33.11375 29.731875 -34.2275 29.46375 -35.375 29.1875 C-39 28 -39 28 -41 25 C-40.45945946 20.45945946 -40.45945946 20.45945946 -39 19 C-36.0625 18.8125 -36.0625 18.8125 -33 19 C-30.53721199 21.46278801 -30.00228745 23.70676982 -29 27 C-28.96261719 26.16855469 -28.92523438 25.33710937 -28.88671875 24.48046875 C-28.82097656 23.39378906 -28.75523438 22.30710937 -28.6875 21.1875 C-28.62949219 20.10855469 -28.57148438 19.02960937 -28.51171875 17.91796875 C-28 15 -28 15 -26.6484375 13.1328125 C-24.09710422 11.3795266 -22.00226842 11.68060974 -19 12 C-18.34 12.66 -17.68 13.32 -17 14 C-13.84770008 14.30302161 -13.84770008 14.30302161 -11.375 12 C-8.98802402 8.98487244 -8.70385585 8.37906982 -8.4375 4.8125 C-8 1 -8 1 -6.1875 -0.5625 C-3.65625891 -1.06874822 -2.40135135 -0.92468539 0 0 Z " fill="#C0D4DF" transform="translate(56,32)"/>
	

	

	

	

	

	

	

	

	

	

	

	

	

	

	

	

	

	

	

	

</svg>
