<?xml version="1.0" encoding="iso-8859-1"?>
<svg height="128" version="1.1" width="128" xmlns="http://www.w3.org/2000/svg">
	

	<path d="M0 0 C42.24 0 84.48 0 128 0 C128 42.24 128 84.48 128 128 C85.76 128 43.52 128 0 128 C0 85.76 0 43.52 0 0 Z " fill="#FCFCFC" transform="translate(0,0)"/>
	

	<path d="M0 0 C3.37611549 1.73921101 5.4971468 3.63984281 7.0625 7.0625 C7.64390309 11.44993999 7.76357609 15.68661675 7.0625 20.0625 C5.57421875 21.72265625 5.57421875 21.72265625 4.0625 23.0625 C2.6121295 30.97361182 2.96745157 39.04674903 3.0625 47.0625 C4.0215625 47.248125 4.0215625 47.248125 5 47.4375 C5.680625 47.64375 6.36125 47.85 7.0625 48.0625 C7.3925 48.7225 7.7225 49.3825 8.0625 50.0625 C10.03772846 51.11058041 12.03731509 52.1145411 14.0625 53.0625 C14.0625 54.0525 14.0625 55.0425 14.0625 56.0625 C13.0725 56.3925 12.0825 56.7225 11.0625 57.0625 C11.0625 60.0325 11.0625 63.0025 11.0625 66.0625 C12.0525 66.3925 13.0425 66.7225 14.0625 67.0625 C14.7225 66.7325 15.3825 66.4025 16.0625 66.0625 C18.49432999 65.93029086 20.90239509 65.85274897 23.3359375 65.81640625 C24.81511003 65.78346519 26.29427655 65.75025359 27.7734375 65.71679688 C30.1060774 65.66940745 32.4386934 65.6249799 34.77148438 65.58569336 C37.02239449 65.54590695 39.27280442 65.49437691 41.5234375 65.44140625 C42.21835297 65.4329921 42.91326843 65.42457794 43.62924194 65.41590881 C47.25696981 65.32358564 49.97074645 65.03693668 53.0625 63.0625 C53.0625 62.4025 53.0625 61.7425 53.0625 61.0625 C50.55284542 59.80767271 48.27559043 59.55392266 45.5 59.125 C41.77456302 58.52999576 38.1059599 57.87938037 34.4375 57 C29.68855703 55.89336558 24.91659891 55.44758509 20.0625 55.0625 C20.0625 54.4025 20.0625 53.7425 20.0625 53.0625 C20.65675781 53.03671875 21.25101562 53.0109375 21.86328125 52.984375 C26.87498325 52.64142805 31.0188653 51.83107211 35.6875 49.9375 C40.70016965 47.95524941 43.8361045 47.87916517 49.0625 49.0625 C49.0625 49.7225 49.0625 50.3825 49.0625 51.0625 C50.320625 51.31 51.57875 51.5575 52.875 51.8125 C55.62045235 52.51471161 56.96400815 52.98138907 59.1875 54.8125 C60.45241723 58.06514431 59.40585835 59.95156487 58.0625 63.0625 C59.7640625 63.0315625 59.7640625 63.0315625 61.5 63 C65.0625 63.0625 65.0625 63.0625 66.0625 64.0625 C66.16073996 65.53898876 66.19223519 67.02025417 66.1875 68.5 C66.19136719 69.70462891 66.19136719 69.70462891 66.1953125 70.93359375 C66.0625 73.0625 66.0625 73.0625 65.0625 75.0625 C64.4025 75.0625 63.7425 75.0625 63.0625 75.0625 C62.9696875 76.1453125 62.9696875 76.1453125 62.875 77.25 C61.8214231 80.89699696 59.74478629 82.44899028 57.0625 85.0625 C57.0625 88.4206746 57.65701885 89.33264715 59.375 92.125 C61.76766126 96.25655311 63.11710194 100.24037597 64.37890625 104.82421875 C65.21379662 107.55788837 66.36037537 109.76833201 68.0625 112.0625 C68.7225 112.3925 69.3825 112.7225 70.0625 113.0625 C70.0625 116.0325 70.0625 119.0025 70.0625 122.0625 C61.2760388 122.83024904 61.2760388 122.83024904 57 120.125 C54.50795628 116.18596315 53.93507249 112.69540034 54.0625 108.0625 C54.3925 107.4025 54.7225 106.7425 55.0625 106.0625 C54.32 105.835625 53.5775 105.60875 52.8125 105.375 C49.5199253 103.8035439 48.08752891 102.06254284 46.0625 99.0625 C46.0625 98.4025 46.0625 97.7425 46.0625 97.0625 C45.464375 96.835625 44.86625 96.60875 44.25 96.375 C41.48410425 94.71546255 40.59975883 92.85751605 39.0625 90.0625 C38.4025 89.4025 37.7425 88.7425 37.0625 88.0625 C34.84121445 88.03941403 34.84121445 88.03941403 32.4375 88.4375 C31.62023437 88.54835938 30.80296875 88.65921875 29.9609375 88.7734375 C29.33445312 88.86882812 28.70796875 88.96421875 28.0625 89.0625 C27.4025 87.7425 26.7425 86.4225 26.0625 85.0625 C24.969375 85.43375 23.87625 85.805 22.75 86.1875 C21.533125 86.47625 20.31625 86.765 19.0625 87.0625 C18.0725 86.4025 17.0825 85.7425 16.0625 85.0625 C13.50060155 84.90775388 13.50060155 84.90775388 11.0625 86.0625 C9.26220518 88.99605547 9.26220518 88.99605547 8.0625 92.0625 C7.7325 92.3925 7.4025 92.7225 7.0625 93.0625 C6.99955556 94.80878556 7.00316337 96.55756079 7.03515625 98.3046875 C7.04740234 99.37074219 7.05964844 100.43679687 7.07226562 101.53515625 C7.10730181 103.79563891 7.14633676 106.05606328 7.18945312 108.31640625 C7.20041016 109.38503906 7.21136719 110.45367187 7.22265625 111.5546875 C7.23949463 112.53808105 7.25633301 113.52147461 7.27368164 114.53466797 C7.0625 117.0625 7.0625 117.0625 5.0625 120.0625 C1.90134224 118.69266497 1.0697908 118.0734362 -0.9375 115.0625 C-0.6359237 112.22768277 -0.09495498 109.61359244 0.6875 106.875 C1.26683282 104.83903531 1.26683282 104.83903531 0.0625 102.0625 C1 99.375 1 99.375 2.0625 97.0625 C0.50851354 95.50851354 -1.31134873 95.49311292 -3.4375 95.0625 C-7.82638889 94.17361111 -7.82638889 94.17361111 -8.9375 93.0625 C-9.50631913 90.75167227 -9.96513361 88.42605903 -10.4375 86.09375 C-10.7473065 84.08016043 -10.7473065 84.08016043 -11.9375 83.0625 C-14.2670947 82.56008678 -14.2670947 82.56008678 -16.9375 83.0625 C-17.783125 83.908125 -18.62875 84.75375 -19.5 85.625 C-20.304375 86.429375 -21.10875 87.23375 -21.9375 88.0625 C-24.57865294 87.89547056 -25.62415416 87.41280889 -27.39453125 85.43359375 C-27.84183594 84.79550781 -28.28914063 84.15742187 -28.75 83.5 C-30.21756797 81.56709523 -30.21756797 81.56709523 -31.9375 80.0625 C-35.60607722 79.56124717 -35.60607722 79.56124717 -38.9375 80.0625 C-39.5975 79.7325 -40.2575 79.4025 -40.9375 79.0625 C-41.69969109 75.69615602 -42.19918445 73.05690092 -41.3125 69.6875 C-39.9375 68.0625 -39.9375 68.0625 -37.5625 67.25 C-35.04171049 67.06994361 -33.3171376 67.26928747 -30.9375 68.0625 C-30.0326064 63.31180859 -29.78763176 58.64886415 -29.6875 53.8125 C-29.66171875 52.61109375 -29.6359375 51.4096875 -29.609375 50.171875 C-29.96621972 46.79034649 -30.39331782 46.12462661 -32.9375 44.0625 C-32.9375 43.4025 -32.9375 42.7425 -32.9375 42.0625 C-33.5975 42.0625 -34.2575 42.0625 -34.9375 42.0625 C-36.62566933 40.41761706 -38.29103315 38.74912458 -39.9375 37.0625 C-40.9275 36.4025 -41.9175 35.7425 -42.9375 35.0625 C-42.0625 29.3125 -42.0625 29.3125 -40.9375 27.0625 C-40.2775 27.0625 -39.6175 27.0625 -38.9375 27.0625 C-38.96070313 26.18207031 -38.98390625 25.30164063 -39.0078125 24.39453125 C-39.03488281 22.65236328 -39.03488281 22.65236328 -39.0625 20.875 C-39.08570313 19.72644531 -39.10890625 18.57789062 -39.1328125 17.39453125 C-38.94041261 14.11218905 -38.47731177 11.95163136 -36.9375 9.0625 C-33.9368731 7.84602964 -32.40211836 7.91868956 -29.3125 8.875 C-25.54503933 10.75873033 -23.62452166 11.96665964 -22.25 15.9375 C-20.69799239 20.87497499 -20.73511681 25.51958374 -20.9296875 30.65625 C-20.93226562 31.4503125 -20.93484375 32.244375 -20.9375 33.0625 C-20.4425 33.5575 -20.4425 33.5575 -19.9375 34.0625 C-19.82792969 33.49660156 -19.71835937 32.93070313 -19.60546875 32.34765625 C-19.44691406 31.61417969 -19.28835937 30.88070312 -19.125 30.125 C-18.97417969 29.39410156 -18.82335937 28.66320312 -18.66796875 27.91015625 C-18.42691406 27.30042969 -18.18585937 26.69070312 -17.9375 26.0625 C-16.9475 25.7325 -15.9575 25.4025 -14.9375 25.0625 C-14.9375 23.4125 -14.9375 21.7625 -14.9375 20.0625 C-13.6175 19.4025 -12.2975 18.7425 -10.9375 18.0625 C-10.999375 17.27875 -11.06125 16.495 -11.125 15.6875 C-11.0321875 14.388125 -11.0321875 14.388125 -10.9375 13.0625 C-9.9475 12.4025 -8.9575 11.7425 -7.9375 11.0625 C-7.29211924 9.20287611 -7.29211924 9.20287611 -7 7.125 C-6.37093641 4.26562004 -6.08389057 3.22352963 -4.0625 1 C-1.9375 0.0625 -1.9375 0.0625 0 0 Z " fill="#91422C" transform="translate(57.9375,3.9375)"/>
	

	

	

	<path d="M0 0 C1.19882813 0.15275391 1.19882813 0.15275391 2.421875 0.30859375 C3.02515625 0.39238281 3.6284375 0.47617188 4.25 0.5625 C3.92 1.5525 3.59 2.5425 3.25 3.5625 C0.93970915 4.30509349 -1.395752 4.973938 -3.75 5.5625 C-4.08 5.8925 -4.41 6.2225 -4.75 6.5625 C-6.67667507 6.64998207 -8.60651861 6.66947334 -10.53515625 6.66015625 C-11.70498047 6.65693359 -12.87480469 6.65371094 -14.08007812 6.65039062 C-15.31177734 6.64201172 -16.54347656 6.63363281 -17.8125 6.625 C-19.66584961 6.61823242 -19.66584961 6.61823242 -21.55664062 6.61132812 C-24.62114117 6.59949608 -27.68554721 6.58301173 -30.75 6.5625 C-30.75 7.2225 -30.75 7.8825 -30.75 8.5625 C-29.739375 8.500625 -28.72875 8.43875 -27.6875 8.375 C-22.56302297 8.61902272 -18.7176466 9.84874328 -14.8125 13.25 C-13.21167557 16.73414728 -13.62856692 19.737358 -13.75 23.5625 C-13.255 25.0475 -13.255 25.0475 -12.75 26.5625 C-12.09 26.5625 -11.43 26.5625 -10.75 26.5625 C-10.255 30.5225 -10.255 30.5225 -9.75 34.5625 C-10.41 34.5625 -11.07 34.5625 -11.75 34.5625 C-11.9975 33.77875 -12.245 32.995 -12.5 32.1875 C-13.97323763 29.09370098 -14.79143731 28.99695464 -17.75 27.5625 C-19.375 25.0625 -19.375 25.0625 -20.75 22.5625 C-21.41 21.9025 -22.07 21.2425 -22.75 20.5625 C-24.97128555 20.53941403 -24.97128555 20.53941403 -27.375 20.9375 C-28.19226563 21.04835938 -29.00953125 21.15921875 -29.8515625 21.2734375 C-30.47804688 21.36882812 -31.10453125 21.46421875 -31.75 21.5625 C-32.41 20.2425 -33.07 18.9225 -33.75 17.5625 C-35.3896875 18.119375 -35.3896875 18.119375 -37.0625 18.6875 C-38.279375 18.97625 -39.49625 19.265 -40.75 19.5625 C-41.74 18.9025 -42.73 18.2425 -43.75 17.5625 C-43.75 16.9025 -43.75 16.2425 -43.75 15.5625 C-46.06 16.2225 -48.37 16.8825 -50.75 17.5625 C-51.08 19.2125 -51.41 20.8625 -51.75 22.5625 C-52.41 22.5625 -53.07 22.5625 -53.75 22.5625 C-54.08 23.8825 -54.41 25.2025 -54.75 26.5625 C-56.07 26.5625 -57.39 26.5625 -58.75 26.5625 C-57.2307396 17.35756934 -57.2307396 17.35756934 -55.125 13.875 C-53.25344647 10.72738724 -53.68326765 8.16604708 -53.75 4.5625 C-51.75 1.5625 -51.75 1.5625 -49.90396118 1.17050171 C-49.15657684 1.16241486 -48.4091925 1.154328 -47.63916016 1.14599609 C-46.3674144 1.12114639 -46.3674144 1.12114639 -45.06997681 1.09579468 C-44.15227509 1.09254181 -43.23457336 1.08928894 -42.2890625 1.0859375 C-40.87589249 1.06256821 -40.87589249 1.06256821 -39.43417358 1.03872681 C-36.41445798 0.99108441 -33.3949737 0.9634184 -30.375 0.9375 C-27.36233269 0.90098282 -24.34979556 0.8602911 -21.33724976 0.81484985 C-19.46088234 0.78768687 -17.58442036 0.76630807 -15.70791626 0.75131226 C-14.85378143 0.74105011 -13.99964661 0.73078796 -13.11962891 0.72021484 C-11.99616562 0.71047134 -11.99616562 0.71047134 -10.8500061 0.70053101 C-0.06374901 -0.00843737 -0.06374901 -0.00843737 0 0 Z " fill="#5C2519" transform="translate(117.75,71.4375)"/>
	

	<path d="M0 0 C1.70385742 1.24975586 1.70385742 1.24975586 3 3 C3.3371582 5.20141602 3.3371582 5.20141602 3.30078125 7.75390625 C3.30766968 9.15334473 3.30766968 9.15334473 3.31469727 10.58105469 C3.31360962 12.05687012 3.31360962 12.05687012 3.3125 13.5625 C3.47063837 22.32464222 4.44066503 27.99557795 10 35 C10 35.66 10 36.32 10 37 C9.34 37 8.68 37 8 37 C8 36.34 8 35.68 8 35 C7.34 35 6.68 35 6 35 C6.27617533 36.94074861 6.27617533 36.94074861 7 39 C7.99 39.66 8.98 40.32 10 41 C11.61785127 43.63965207 12 44.84012675 12 48 C12.804375 47.979375 13.60875 47.95875 14.4375 47.9375 C17 48 17 48 18 49 C18.07179964 50.51928038 18.08392007 52.04167482 18.0625 53.5625 C18.05347656 54.38878906 18.04445312 55.21507812 18.03515625 56.06640625 C18.02355469 56.70449219 18.01195312 57.34257813 18 58 C16.35 58 14.7 58 13 58 C11.768606 55.53721199 11.92840804 53.7204945 12 51 C9.69 50.34 7.38 49.68 5 49 C4.67 47.02 4.34 45.04 4 43 C2.68 42.67 1.36 42.34 0 42 C0.20625 43.27875 0.4125 44.5575 0.625 45.875 C0.9765625 48.0546875 0.9765625 48.0546875 1 50 C0.34 50.66 -0.32 51.32 -1 52 C-1.03738281 51.02417969 -1.07476562 50.04835937 -1.11328125 49.04296875 C-1.17902344 47.77066406 -1.24476562 46.49835937 -1.3125 45.1875 C-1.39951172 43.29064453 -1.39951172 43.29064453 -1.48828125 41.35546875 C-2.01822933 37.88046571 -2.37756617 37.11622676 -5 35 C-5 34.34 -5 33.68 -5 33 C-5.66 33 -6.32 33 -7 33 C-8.68816933 31.35511706 -10.35353315 29.68662458 -12 28 C-12.99 27.34 -13.98 26.68 -15 26 C-14.125 20.25 -14.125 20.25 -13 18 C-12.34 18 -11.68 18 -11 18 C-11.02320313 17.11957031 -11.04640625 16.23914063 -11.0703125 15.33203125 C-11.09738281 13.58986328 -11.09738281 13.58986328 -11.125 11.8125 C-11.14820313 10.66394531 -11.17140625 9.51539063 -11.1953125 8.33203125 C-11.00313312 5.05345101 -10.51407144 2.89579398 -9 0 C-5.85000502 -1.57499749 -3.36459118 -0.70833498 0 0 Z " fill="#C27460" transform="translate(30,13)"/>
	

	<path d="M0 0 C3.37611549 1.73921101 5.4971468 3.63984281 7.0625 7.0625 C7.64390309 11.44993999 7.76357609 15.68661675 7.0625 20.0625 C5.57421875 21.72265625 5.57421875 21.72265625 4.0625 23.0625 C2.6121295 30.97361182 2.96745157 39.04674903 3.0625 47.0625 C4.0215625 47.248125 4.0215625 47.248125 5 47.4375 C5.680625 47.64375 6.36125 47.85 7.0625 48.0625 C7.3925 48.7225 7.7225 49.3825 8.0625 50.0625 C10.03772846 51.11058041 12.03731509 52.1145411 14.0625 53.0625 C14.0625 54.0525 14.0625 55.0425 14.0625 56.0625 C13.0725 56.3925 12.0825 56.7225 11.0625 57.0625 C11.0354957 58.52073212 11.01610213 59.97910675 11 61.4375 C10.98839844 62.24960938 10.97679687 63.06171875 10.96484375 63.8984375 C10.91783666 66.11187142 10.91783666 66.11187142 12.0625 68.0625 C11.299375 68.10375 10.53625 68.145 9.75 68.1875 C6.74404231 68.81924092 6.74404231 68.81924092 5.5 72.0625 C5.025625 73.0525 4.55125 74.0425 4.0625 75.0625 C1.97265625 75.75 1.97265625 75.75 0.0625 76.0625 C0.95710154 70.69489075 0.95710154 70.69489075 2.0625 68.0625 C3.073125 67.485 4.08375 66.9075 5.125 66.3125 C8.32817073 64.36488603 8.32817073 64.36488603 8.67578125 61.15625 C8.91372589 58.11624084 9.05291255 55.11130903 9.0625 52.0625 C8.464375 51.77375 7.86625 51.485 7.25 51.1875 C2.24952448 48.61582688 2.24952448 48.61582688 1.40234375 46.109375 C1.26957031 45.35140625 1.13679688 44.5934375 1 43.8125 C0.47112973 41.03037574 -0.09773854 38.61739293 -1.0625 35.9375 C-2.31694154 31.81576351 -2.85432204 28.14920355 -1.07421875 24.09765625 C1.36536215 19.75963785 1.36536215 19.75963785 3.0625 18.0625 C3.26215405 16.02868256 3.26215405 16.02868256 3.25 13.6875 C3.26417969 12.89601563 3.27835938 12.10453125 3.29296875 11.2890625 C3.20757509 8.77518667 3.20757509 8.77518667 1.0625 6.0625 C-0.86059422 6.10205898 -0.86059422 6.10205898 -2.9375 7.0625 C-4.00525224 9.02716413 -5.00303465 11.03105359 -5.9375 13.0625 C-6.9375 14.0625 -7.9375 15.0625 -8.9375 16.0625 C-10.12777984 18.66165538 -10.12777984 18.66165538 -10.9375 21.0625 C-11.5975 21.0625 -12.2575 21.0625 -12.9375 21.0625 C-13.081875 22.135 -13.22625 23.2075 -13.375 24.3125 C-13.77499442 26.97912949 -14.21341924 29.47649729 -14.9375 32.0625 C-13.2875 31.4025 -11.6375 30.7425 -9.9375 30.0625 C-9.9375 31.3825 -9.9375 32.7025 -9.9375 34.0625 C-10.9275 34.7225 -11.9175 35.3825 -12.9375 36.0625 C-13.52119443 39.47788144 -13.52119443 39.47788144 -12.9375 43.0625 C-11.64516393 44.43560707 -10.31312854 45.77284824 -8.9375 47.0625 C-8.6875 49.8125 -8.6875 49.8125 -8.9375 52.0625 C-11.14453125 51.95703125 -11.14453125 51.95703125 -13.9375 51.0625 C-15.72338054 48.96679403 -17.1604745 47.04783303 -18.625 44.75 C-19.01494141 44.16798828 -19.40488281 43.58597656 -19.80664062 42.98632812 C-23.04819668 38.09351788 -25.20178639 34.79112949 -25.1328125 28.859375 C-25.12636719 27.8796875 -25.11992188 26.9 -25.11328125 25.890625 C-25.09652344 24.87484375 -25.07976563 23.8590625 -25.0625 22.8125 C-25.05347656 21.78125 -25.04445312 20.75 -25.03515625 19.6875 C-25.01162011 17.14559713 -24.97874023 14.6041672 -24.9375 12.0625 C-20.87087956 18.16243065 -20.7625261 23.39929209 -20.96484375 30.55078125 C-21.23096062 33.00216186 -21.23096062 33.00216186 -19.9375 34.0625 C-19.82792969 33.49660156 -19.71835937 32.93070313 -19.60546875 32.34765625 C-19.44691406 31.61417969 -19.28835937 30.88070312 -19.125 30.125 C-18.97417969 29.39410156 -18.82335938 28.66320312 -18.66796875 27.91015625 C-18.42691406 27.30042969 -18.18585937 26.69070312 -17.9375 26.0625 C-16.9475 25.7325 -15.9575 25.4025 -14.9375 25.0625 C-14.9375 23.4125 -14.9375 21.7625 -14.9375 20.0625 C-13.6175 19.4025 -12.2975 18.7425 -10.9375 18.0625 C-10.999375 17.27875 -11.06125 16.495 -11.125 15.6875 C-11.063125 14.82125 -11.00125 13.955 -10.9375 13.0625 C-9.9475 12.4025 -8.9575 11.7425 -7.9375 11.0625 C-7.29211924 9.20287611 -7.29211924 9.20287611 -7 7.125 C-6.37093641 4.26562004 -6.08389057 3.22352963 -4.0625 1 C-1.9375 0.0625 -1.9375 0.0625 0 0 Z " fill="#ADABAB" transform="translate(57.9375,3.9375)"/>
	

	<path d="M0 0 C2 0.1875 2 0.1875 4 1 C6.67504867 5.01257301 6.70609842 8.28160116 6 13 C4.0625 15.875 4.0625 15.875 2 18 C0.0756698 23.77299059 0.98843734 28.41232595 3 34 C3.25326327 35.54113394 3.50305303 37.08284135 3.75 38.625 C4.53663818 42.46147311 4.81386079 42.85481142 8.125 45.4375 C9.07375 45.953125 10.0225 46.46875 11 47 C11 47.66 11 48.32 11 49 C10.01 49.495 10.01 49.495 9 50 C9 51.65 9 53.3 9 55 C6.75 55.75 6.75 55.75 4 56 C0.68210014 53.78806676 0.06505862 52.26952856 -0.875 48.375 C-0.936875 46.704375 -0.936875 46.704375 -1 45 C-0.34 44.34 0.32 43.68 1 43 C1.16681109 39.91652174 1.16681109 39.91652174 1 37 C-1.475 37.495 -1.475 37.495 -4 38 C-4.61875 37.01 -5.2375 36.02 -5.875 35 C-6.57625 34.01 -7.2775 33.02 -8 32 C-8.66 32 -9.32 32 -10 32 C-10.33425735 34.37374861 -10.33425735 34.37374861 -10 37 C-8.05990478 38.70532323 -8.05990478 38.70532323 -6 40 C-6 40.66 -6 41.32 -6 42 C-8.46800047 40.84826645 -10.04783565 39.95216435 -12 38 C-12.125 34.375 -12.125 34.375 -12 31 C-10.68 30.34 -9.36 29.68 -8 29 C-8.33 28.01 -8.66 27.02 -9 26 C-10.98 26.99 -10.98 26.99 -13 28 C-14.08557659 24.75784173 -13.94015194 22.97678191 -12.6875 19.8125 C-12.42324219 19.11769531 -12.15898438 18.42289063 -11.88671875 17.70703125 C-11 16 -11 16 -9 15 C-7.94647157 12.69034152 -6.94280904 10.3570226 -6 8 C-5.34 8 -4.68 8 -4 8 C-3.566875 6.576875 -3.566875 6.576875 -3.125 5.125 C-2 2 -2 2 0 0 Z " fill="#776D6B" transform="translate(56,9)"/>
	

	<path d="M0 0 C2.42911376 1.19913937 4.79817516 2.45178857 7.14453125 3.8046875 C6.81453125 4.4646875 6.48453125 5.1246875 6.14453125 5.8046875 C3.50453125 4.8146875 0.86453125 3.8246875 -1.85546875 2.8046875 C-1.85546875 2.1446875 -1.85546875 1.4846875 -1.85546875 0.8046875 C-6.97128373 0.41858826 -10.45552434 0.87569146 -15.23046875 2.8046875 C-20.58955071 4.93332984 -25.14598965 5.25054704 -30.85546875 4.8046875 C-30.85546875 5.4646875 -30.85546875 6.1246875 -30.85546875 6.8046875 C-30.2728125 6.76988281 -29.69015625 6.73507813 -29.08984375 6.69921875 C-22.92157814 6.4955496 -17.6964588 7.44148277 -11.76171875 9.078125 C-9.07376685 9.75011298 -6.54793667 10.12568057 -3.79296875 10.3671875 C0.14453125 10.8046875 0.14453125 10.8046875 3.14453125 12.8046875 C2.14453125 15.8046875 2.14453125 15.8046875 0.54882812 16.96850586 C-2.72826898 18.10823551 -5.89343716 18.1416748 -9.32421875 18.18359375 C-10.40020325 18.20908546 -10.40020325 18.20908546 -11.4979248 18.23509216 C-13.78368394 18.28807117 -16.06942767 18.32843696 -18.35546875 18.3671875 C-20.64141678 18.41123135 -22.92723045 18.45804067 -25.2130127 18.50999451 C-26.63307562 18.54174396 -28.05325609 18.56869708 -29.47351074 18.59022522 C-32.15661419 18.64612669 -34.59946528 18.73468155 -37.19726562 19.44506836 C-38.01807617 19.62307983 -38.01807617 19.62307983 -38.85546875 19.8046875 C-40.85546875 17.8046875 -40.85546875 17.8046875 -40.9375 15.74609375 C-40.84855469 14.96105469 -40.75960937 14.17601563 -40.66796875 13.3671875 C-40.59191406 12.58472656 -40.51585938 11.80226563 -40.4375 10.99609375 C-39.76533854 8.46533817 -38.83669143 7.46549681 -36.85546875 5.8046875 C-37.84546875 4.8146875 -38.83546875 3.8246875 -39.85546875 2.8046875 C-38.66050781 2.77890625 -37.46554688 2.753125 -36.234375 2.7265625 C-25.14097222 2.41588482 -25.14097222 2.41588482 -14.8515625 -1.38671875 C-9.87725118 -3.40175288 -4.76639667 -1.99523581 0 0 Z " fill="#DBDCDB" transform="translate(108.85546875,52.1953125)"/>
	

	<path d="M0 0 C0 0.66 0 1.32 0 2 C1.8871875 2.37125 1.8871875 2.37125 3.8125 2.75 C6.55795235 3.45221161 7.90150815 3.91888907 10.125 5.75 C11.38991723 9.00264431 10.34335835 10.88906487 9 14 C10.7015625 13.9690625 10.7015625 13.9690625 12.4375 13.9375 C16 14 16 14 17 15 C17.09823996 16.47648876 17.12973519 17.95775417 17.125 19.4375 C17.12886719 20.64212891 17.12886719 20.64212891 17.1328125 21.87109375 C17 24 17 24 16 26 C15.34 26 14.68 26 14 26 C13.9071875 27.0828125 13.9071875 27.0828125 13.8125 28.1875 C12.7589231 31.83449696 10.68228629 33.38649028 8 36 C8 39.3581746 8.59451885 40.27014715 10.3125 43.0625 C12.70585612 47.19525296 14.05602642 51.17983624 15.31640625 55.765625 C16.47076024 59.53871346 18.23572857 62.23572857 21 65 C19.2265625 64.84375 19.2265625 64.84375 17 64 C12.10224548 57.63498568 9.18432714 50.89551429 8 43 C7.34 43 6.68 43 6 43 C4.85542932 40.57620326 4 38.64017887 4 35.9375 C5.53841953 32.95681215 8.22886655 31.78969035 11 30 C11.495 28.515 11.495 28.515 12 27 C10.68 26.67 9.36 26.34 8 26 C8.495 24.515 8.495 24.515 9 23 C10.65 23 12.3 23 14 23 C14.66 20.69 15.32 18.38 16 16 C15.01 16.165 14.02 16.33 13 16.5 C8.97267058 17.08474517 5.06525377 17.07132024 1 17 C1 17.66 1 18.32 1 19 C-10.88 19 -22.76 19 -35 19 C-32.1879649 16.1879649 -29.49192537 16.68467807 -25.7265625 16.65625 C-25.00640961 16.6416272 -24.28625671 16.62700439 -23.54428101 16.61193848 C-21.23791053 16.56537351 -18.93162619 16.53122255 -16.625 16.5 C-13.59603746 16.45881118 -10.56767657 16.40508346 -7.5390625 16.34375 C-6.4966893 16.33583435 -6.4966893 16.33583435 -5.43325806 16.32775879 C-1.79981244 16.25322428 0.90489165 15.98102751 4 14 C4 13.34 4 12.68 4 12 C1.49034542 10.74517271 -0.78690957 10.49142266 -3.5625 10.0625 C-7.28793698 9.46749576 -10.9565401 8.81688037 -14.625 7.9375 C-19.37394297 6.83086558 -24.14590109 6.38508509 -29 6 C-29 5.34 -29 4.68 -29 4 C-28.40574219 3.97421875 -27.81148438 3.9484375 -27.19921875 3.921875 C-22.18751675 3.57892805 -18.0436347 2.76857211 -13.375 0.875 C-8.36233035 -1.10725059 -5.2263955 -1.18333483 0 0 Z " fill="#AEACAC" transform="translate(107,53)"/>
	

	

	<path d="M0 0 C0.99 0.33 1.98 0.66 3 1 C3 1.66 3 2.32 3 3 C3.598125 3.0825 4.19625 3.165 4.8125 3.25 C7.61087782 4.20944382 8.2555912 5.6741216 10 8 C12.09415804 8.79623822 12.09415804 8.79623822 14 9 C14.33 7.68 14.66 6.36 15 5 C15.19491452 6.45736087 15.38069358 7.91594593 15.5625 9.375 C15.71912109 10.59316406 15.71912109 10.59316406 15.87890625 11.8359375 C16 14 16 14 15 16 C14.93049459 17.54023996 14.91547643 19.08334988 14.9375 20.625 C14.958125 22.06875 14.97875 23.5125 15 25 C11.7 25 8.4 25 5 25 C5 23.02 5 21.04 5 19 C1.59679066 18.32326553 1.59679066 18.32326553 -2 18 C-4.28663912 19.95860095 -4.28663912 19.95860095 -4.9375 23.375 C-5.90590653 26.67897521 -6.59129641 28.59129641 -9 31 C-9.99 31 -10.98 31 -12 31 C-12.66 29.68 -13.32 28.36 -14 27 C-14.66 27.33 -15.32 27.66 -16 28 C-16 29.98 -16 31.96 -16 34 C-10.555 33.505 -10.555 33.505 -5 33 C-4.71125 31.865625 -4.4225 30.73125 -4.125 29.5625 C-3.75375 28.386875 -3.3825 27.21125 -3 26 C-2.34 25.67 -1.68 25.34 -1 25 C0.5625 26.125 0.5625 26.125 2 28 C1.6875 31.1875 1.6875 31.1875 1 34 C-0.32 34 -1.64 34 -3 34 C-2.01 37.465 -2.01 37.465 -1 41 C0.65 41 2.3 41 4 41 C3.01 42.32 2.02 43.64 1 45 C-1.53344364 44.61482977 -2.72092673 44.31199344 -4.45703125 42.37109375 C-5.12798828 41.41396484 -5.12798828 41.41396484 -5.8125 40.4375 C-7.28006797 38.50459523 -7.28006797 38.50459523 -9 37 C-12.66857722 36.49874717 -12.66857722 36.49874717 -16 37 C-16.66 36.67 -17.32 36.34 -18 36 C-18.76219109 32.63365602 -19.26168445 29.99440092 -18.375 26.625 C-17 25 -17 25 -14.625 24.1875 C-12.10421049 24.00744361 -10.3796376 24.20678747 -8 25 C-7.67 22.69 -7.34 20.38 -7 18 C-6.34 18 -5.68 18 -5 18 C-5 14.7 -5 11.4 -5 8 C-3.35 8.33 -1.7 8.66 0 9 C0 10.98 0 12.96 0 15 C1.7015625 15.2165625 1.7015625 15.2165625 3.4375 15.4375 C7 16 7 16 8 17 C8.04080783 18.99958364 8.04254356 21.00045254 8 23 C9.65 23.33 11.3 23.66 13 24 C12.67 21.03 12.34 18.06 12 15 C11.21625 14.9175 10.4325 14.835 9.625 14.75 C7 14 7 14 5.6875 12.125 C5 10 5 10 5 7 C4.360625 6.773125 3.72125 6.54625 3.0625 6.3125 C1 5 1 5 0.25 2.375 C0.12625 1.199375 0.12625 1.199375 0 0 Z " fill="#46484B" transform="translate(35,47)"/>
	

	<path d="M0 0 C0.66 0.33 1.32 0.66 2 1 C2.20928281 3.09282813 2.40593345 5.1878531 2.53173828 7.28735352 C3.0610825 16.081271 4.10496781 21.9577232 9.5390625 29.06640625 C11 31 11 31 11 33 C10.34 33 9.68 33 9 33 C9 32.34 9 31.68 9 31 C8.34 31 7.68 31 7 31 C7.27617533 32.94074861 7.27617533 32.94074861 8 35 C8.99 35.66 9.98 36.32 11 37 C12.61785127 39.63965207 13 40.84012675 13 44 C13.804375 43.979375 14.60875 43.95875 15.4375 43.9375 C18 44 18 44 19 45 C19.07179964 46.51928038 19.08392007 48.04167482 19.0625 49.5625 C19.05347656 50.38878906 19.04445313 51.21507812 19.03515625 52.06640625 C19.02355469 52.70449219 19.01195313 53.34257813 19 54 C17.35 54 15.7 54 14 54 C12.768606 51.53721199 12.92840804 49.7204945 13 47 C10.69 46.34 8.38 45.68 6 45 C5.67 43.02 5.34 41.04 5 39 C3.68 38.67 2.36 38.34 1 38 C1.309375 39.918125 1.309375 39.918125 1.625 41.875 C1.9765625 44.0546875 1.9765625 44.0546875 2 46 C1.34 46.66 0.68 47.32 0 48 C-0.03738281 47.02417969 -0.07476563 46.04835937 -0.11328125 45.04296875 C-0.17902344 43.77066406 -0.24476562 42.49835937 -0.3125 41.1875 C-0.37050781 39.92292969 -0.42851562 38.65835938 -0.48828125 37.35546875 C-1.0231928 33.847919 -1.39548856 33.16119034 -4 31 C-4.1875 28.3125 -4.1875 28.3125 -4 26 C-2.68 26 -1.36 26 0 26 C-0.15597656 25.45472656 -0.31195312 24.90945312 -0.47265625 24.34765625 C-1.97517009 18.52665893 -1.95459564 13.89359044 -1 8 C-0.80744119 6.4797989 -0.61964943 4.95898344 -0.4375 3.4375 C-0.293125 2.303125 -0.14875 1.16875 0 0 Z " fill="#593B35" transform="translate(29,17)"/>
	

	<path d="M0 0 C2.62187494 1.04874998 3.79371361 1.64931313 5.25 4.125 C5.4975 4.74375 5.745 5.3625 6 6 C7.2065625 5.7215625 7.2065625 5.7215625 8.4375 5.4375 C9.7059375 5.2209375 9.7059375 5.2209375 11 5 C12 6 12 6 12.1875 8.9375 C12 12 12 12 10 14 C9.97691403 16.22128555 9.97691403 16.22128555 10.375 18.625 C10.48585938 19.44226563 10.59671875 20.25953125 10.7109375 21.1015625 C10.80632813 21.72804688 10.90171875 22.35453125 11 23 C13.64 23.33 16.28 23.66 19 24 C18.67 22.02 18.34 20.04 18 18 C19.32 18 20.64 18 22 18 C21.67 21.3 21.34 24.6 21 28 C16.97963329 28.6958327 13.92129754 29.16186594 10 28 C9.34 28.33 8.68 28.66 8 29 C8 30.32 8 31.64 8 33 C6.6875 34.5625 6.6875 34.5625 5 36 C4.443125 36.556875 3.88625 37.11375 3.3125 37.6875 C2.879375 38.120625 2.44625 38.55375 2 39 C1.34 38.34 0.68 37.68 0 37 C0.33 36.01 0.66 35.02 1 34 C-1.31 34 -3.62 34 -6 34 C-6 33.34 -6 32.68 -6 32 C-2.7 32 0.6 32 4 32 C3.67 31.34 3.34 30.68 3 30 C2.85823603 26.38501867 2.98787741 23.07542948 3.5625 19.5 C4.04114965 15.67080279 3.93618055 12.7447222 3 9 C1.69084721 7.96854629 0.35917857 6.96457834 -1 6 C-1.3125 3.375 -1.3125 3.375 -1 1 C-0.67 0.67 -0.34 0.34 0 0 Z " fill="#424447" transform="translate(46,40)"/>
	

	<path d="M0 0 C0.74886475 0.00523682 1.49772949 0.01047363 2.26928711 0.01586914 C3.07817383 0.0190918 3.88706055 0.02231445 4.72045898 0.02563477 C5.5705957 0.03401367 6.42073242 0.04239258 7.29663086 0.05102539 C8.15063477 0.05553711 9.00463867 0.06004883 9.88452148 0.06469727 C12.00108749 0.07652166 14.11761771 0.0944577 16.23413086 0.11352539 C13.81282755 2.5348287 12.43301709 2.64193043 9.10913086 3.23852539 C7.74401367 3.48989258 7.74401367 3.48989258 6.35131836 3.74633789 C5.65264648 3.86750977 4.95397461 3.98868164 4.23413086 4.11352539 C8.5271649 8.40655943 16.24324397 8.157842 22.04663086 8.55102539 C29.28695594 9.16635047 29.28695594 9.16635047 32.23413086 12.11352539 C32.54663086 15.30102539 32.54663086 15.30102539 32.23413086 18.11352539 C29.27237963 17.50074927 27.85354303 16.85980017 25.23413086 15.11352539 C23.20953883 14.90981385 23.20953883 14.90981385 21.10913086 15.05102539 C19.19100586 15.08196289 19.19100586 15.08196289 17.23413086 15.11352539 C16.90413086 14.78352539 16.57413086 14.45352539 16.23413086 14.11352539 C13.42525523 13.90655561 10.67125519 13.78907011 7.85913086 13.73852539 C7.07795898 13.70114258 6.29678711 13.66375977 5.49194336 13.62524414 C3.29355231 13.59136483 1.37592665 13.61044976 -0.76586914 14.11352539 C-2.88760055 16.47723035 -2.88760055 16.47723035 -3.76586914 19.11352539 C-4.42586914 18.78352539 -5.08586914 18.45352539 -5.76586914 18.11352539 C-5.13379367 12.42484615 -5.13379367 12.42484615 -3.14086914 10.73852539 C-1.54732496 9.22346538 -1.54732496 9.22346538 -1.82836914 7.19165039 C-2.11626753 5.16196677 -2.4394426 3.13736995 -2.76586914 1.11352539 C-1.76586914 0.11352539 -1.76586914 0.11352539 0 0 Z " fill="#1E2124" transform="translate(68.765869140625,73.886474609375)"/>
	

	<path d="M0 0 C1.875 0.625 1.875 0.625 4 2 C5.38327396 5.03002866 6.14886672 7.05717747 5.625 10.375 C5.41875 10.91125 5.2125 11.4475 5 12 C6.65 11.67 8.3 11.34 10 11 C9.46274105 7.62294375 8.88935377 4.303314 8 1 C8.66 1 9.32 1 10 1 C10.32871094 2.01707031 10.32871094 2.01707031 10.6640625 3.0546875 C12.96241206 9.80025004 15.61285104 16.31425494 20 22 C20.99 22.33 21.98 22.66 23 23 C23 25.64 23 28.28 23 31 C14.2135388 31.76774904 14.2135388 31.76774904 9.9375 29.0625 C7.44545628 25.12346315 6.87257249 21.63290034 7 17 C7.33 16.34 7.66 15.68 8 15 C7.195625 14.71125 6.39125 14.4225 5.5625 14.125 C3 13 3 13 2 11 C1.86584528 8.3276379 1.95681459 5.67749512 2 3 C1.34 3 0.68 3 0 3 C0 2.01 0 1.02 0 0 Z " fill="#C27560" transform="translate(105,95)"/>
	

	

	

	<path d="M0 0 C3.37577407 0.55330367 5.54486508 1.46226653 8.0625 3.875 C7.7325 4.535 7.4025 5.195 7.0625 5.875 C6.4025 5.215 5.7425 4.555 5.0625 3.875 C0.4532994 2.76759299 0.4532994 2.76759299 -3.9375 3.875 C-5.18065144 7.33277222 -5.24524164 10.98559486 -5.5 14.625 C-5.58378906 15.79546875 -5.66757812 16.9659375 -5.75390625 18.171875 C-5.81449219 19.06390625 -5.87507813 19.9559375 -5.9375 20.875 C-6.5975 20.875 -7.2575 20.875 -7.9375 20.875 C-8.2675 23.515 -8.5975 26.155 -8.9375 28.875 C-8.17953125 29.38160156 -8.17953125 29.38160156 -7.40625 29.8984375 C-6.7565625 30.34445313 -6.106875 30.79046875 -5.4375 31.25 C-4.46296875 31.91128906 -4.46296875 31.91128906 -3.46875 32.5859375 C-2.9634375 33.01132812 -2.458125 33.43671875 -1.9375 33.875 C-1.9375 34.535 -1.9375 35.195 -1.9375 35.875 C-1.2775 35.875 -0.6175 35.875 0.0625 35.875 C0.0625 36.535 0.0625 37.195 0.0625 37.875 C1.0525 38.205 2.0425 38.535 3.0625 38.875 C6.13930491 45.02860983 4.3348312 55.19526118 3.0625 61.875 C-0.04610106 62.8741932 -1.82361292 62.70536989 -4.9375 61.875 C-5.9275 62.37 -5.9275 62.37 -6.9375 62.875 C-7.56349243 66.25535912 -7.9375 69.43669885 -7.9375 72.875 C-8.5975 72.875 -9.2575 72.875 -9.9375 72.875 C-10.55191835 63.93179956 -10.55191835 63.93179956 -8.375 60.1875 C-4.94939454 58.34294321 -2.64103462 59.02033816 1.0625 59.875 C0.876875 59.25625 0.69125 58.6375 0.5 58 C0.0625 55.875 0.0625 55.875 1.0625 53.875 C1.13366382 51.50097499 1.14659085 49.12499323 1.125 46.75 C1.11597656 45.46867187 1.10695313 44.18734375 1.09765625 42.8671875 C1.08605469 41.87976562 1.07445312 40.89234375 1.0625 39.875 C-0.2575 39.215 -1.5775 38.555 -2.9375 37.875 C-2.9375 36.885 -2.9375 35.895 -2.9375 34.875 C-3.494375 34.606875 -4.05125 34.33875 -4.625 34.0625 C-5.388125 33.670625 -6.15125 33.27875 -6.9375 32.875 C-8.29875 32.25625 -8.29875 32.25625 -9.6875 31.625 C-11.9375 29.875 -11.9375 29.875 -12.4375 26.9375 C-11.9375 23.875 -11.9375 23.875 -10.46875 22.21875 C-7.86453259 18.23270294 -8.10970333 13.64311556 -7.765625 8.98632812 C-7.24982661 3.29766708 -7.24982661 3.29766708 -5.64453125 1.12524414 C-3.9375 -0.125 -3.9375 -0.125 0 0 Z " fill="#D3D3D2" transform="translate(24.9375,10.125)"/>
	

	<path d="M0 0 C-0.375 1.9375 -0.375 1.9375 -1 4 C-1.99 4.495 -1.99 4.495 -3 5 C-3.65555119 7.52733235 -3.65555119 7.52733235 -4 10 C-4.66 10 -5.32 10 -6 10 C-8.25998595 13.59462331 -8.20868087 16.56595675 -8.125 20.75 C-8.09792969 22.50570312 -8.09792969 22.50570312 -8.0703125 24.296875 C-8.04710937 25.18890625 -8.02390625 26.0809375 -8 27 C-8.66 27 -9.32 27 -10 27 C-10.28875 26.071875 -10.5775 25.14375 -10.875 24.1875 C-11.8875 20.90208333 -11.8875 20.90208333 -14 18 C-17.56769552 17.26393501 -17.56769552 17.26393501 -21 17 C-21.1875 14.625 -21.1875 14.625 -21 12 C-20.01 11.34 -19.02 10.68 -18 10 C-18.99 10 -19.98 10 -21 10 C-20.67 9.01 -20.34 8.02 -20 7 C-18.02 7 -16.04 7 -14 7 C-13.67 8.32 -13.34 9.64 -13 11 C-12.38125 10.175 -11.7625 9.35 -11.125 8.5 C-10.42375 7.675 -9.7225 6.85 -9 6 C-8.34 6 -7.68 6 -7 6 C-7.33 4.68 -7.66 3.36 -8 2 C-4.77208445 -0.1519437 -3.71599191 -0.20086443 0 0 Z " fill="#1E2124" transform="translate(61,67)"/>
	

	<path d="M0 0 C0.886875 0.185625 1.77375 0.37125 2.6875 0.5625 C5.90671255 1.21469387 5.90671255 1.21469387 8.5625 0.25 C9.7690625 0.12625 9.7690625 0.12625 11 0 C14.29646859 2.6831721 16.1769447 5.23235239 18 9 C19.28817344 10.37701298 20.62804426 11.70644173 22 13 C22.86625 13.886875 23.7325 14.77375 24.625 15.6875 C26.77286324 18.01291149 26.77286324 18.01291149 29 19 C29.2734375 21.36328125 29.2734375 21.36328125 29.375 24.3125 C29.64935981 27.71987188 29.8213815 29.67997519 31.5 32.6875 C35.26410252 34.66365382 38.83485238 34.32039597 43 34 C43.33 34.99 43.66 35.98 44 37 C39.38 37 34.76 37 30 37 C27.2844169 31.76280401 24.97466952 26.53887823 22.9296875 21.00390625 C22.17246556 18.82658661 22.17246556 18.82658661 20 18 C19.32558869 16.3364521 18.6599679 14.66933058 18 13 C17.01971384 11.65210653 16.02028865 10.31787285 15 9 C14.690625 8.278125 14.38125 7.55625 14.0625 6.8125 C13.15763415 4.88261198 13.15763415 4.88261198 11.3125 4.1875 C8.77271129 3.89129671 8.77271129 3.89129671 5.375 4.5625 C3.704375 4.7790625 3.704375 4.7790625 2 5 C1.34 4.34 0.68 3.68 0 3 C0 2.01 0 1.02 0 0 Z " fill="#A4A4A4" transform="translate(84,91)"/>
	

	<path d="M0 0 C0.72509766 -0.01224609 1.45019531 -0.02449219 2.19726562 -0.03710938 C6.01743278 -0.04759474 8.95185611 0.03889658 12.1875 2.1875 C11.548125 2.435 10.90875 2.6825 10.25 2.9375 C7.69730961 4.15371634 7.69730961 4.15371634 7.1875 8.1875 C-1.2275 8.6825 -1.2275 8.6825 -9.8125 9.1875 C-11.02435923 5.55192231 -10.40510392 4.54966382 -8.8125 1.1875 C-6.78557871 -0.83942129 -2.77501392 0.00242783 0 0 Z " fill="#FDFDFD" transform="translate(79.8125,60.8125)"/>
	

	

	

	

	

	<path d="M0 0 C2.70869866 0.67717466 4.52093027 1.28977075 6.1171875 3.65625 C6.44976562 4.2853125 6.78234375 4.914375 7.125 5.5625 C8.63326433 9.25632063 8.63326433 9.25632063 12 10 C12 11.32 12 12.64 12 14 C10.40119187 14.41694996 8.79558739 14.80790856 7.1875 15.1875 C6.29417969 15.40792969 5.40085937 15.62835938 4.48046875 15.85546875 C2 16 2 16 0.19140625 14.8984375 C-1.43272626 12.31047554 -1.3308098 10.47190817 -1.25 7.4375 C-1.22679688 5.98150391 -1.22679688 5.98150391 -1.203125 4.49609375 C-1 2 -1 2 0 0 Z " fill="#D0472A" transform="translate(116,108)"/>
	

	<path d="M0 0 C3.13615492 -0.51202529 5.87999737 -0.67139297 9 0 C11.82281136 2.33188764 13.91801508 5.0008706 16 8 C18.90698608 7.42585514 19.83472567 7.17593719 21.9375 4.9375 C24 3 24 3 26.5625 2.5 C29 3 29 3 30.8125 4.625 C32.28601103 7.57202207 32.22179212 9.74704886 32 13 C31.34 13 30.68 13 30 13 C30 10.69 30 8.38 30 6 C27.59122743 6.11341534 27.59122743 6.11341534 25 7 C24.54625 7.825 24.0925 8.65 23.625 9.5 C22 12 22 12 18.6875 13.25 C14.5740861 12.97112448 14.20011544 12.67880599 11.625 9.75 C9.82818805 7.42471395 8.94321889 5.82965668 8 3 C5.36 2.67 2.72 2.34 0 2 C0 1.34 0 0.68 0 0 Z " fill="#DBDCDB" transform="translate(17,83)"/>
	

	

	<path d="M0 0 C0.99 0.103125 1.98 0.20625 3 0.3125 C6.61477419 1.14088575 8.42553994 2.34982052 11 5 C11 6.32 11 7.64 11 9 C12.32 8.67 13.64 8.34 15 8 C15 8.66 15 9.32 15 10 C15.66 10 16.32 10 17 10 C17.495 13.96 17.495 13.96 18 18 C17.34 18 16.68 18 16 18 C15.7525 17.21625 15.505 16.4325 15.25 15.625 C13.77676237 12.53120098 12.95856269 12.43445464 10 11 C8.375 8.5 8.375 8.5 7 6 C6.34 5.34 5.68 4.68 5 4 C2.77871445 3.97691403 2.77871445 3.97691403 0.375 4.375 C-0.44226563 4.48585938 -1.25953125 4.59671875 -2.1015625 4.7109375 C-2.72804688 4.80632812 -3.35453125 4.90171875 -4 5 C-4.66 3.68 -5.32 2.36 -6 1 C-8.31 1.66 -10.62 2.32 -13 3 C-13.99 2.01 -14.98 1.02 -16 0 C-10.2938625 -1.06160698 -5.66169601 -1.24281132 0 0 Z " fill="#5E5D5F" transform="translate(90,88)"/>
	

	<path d="M0 0 C2.31316656 1.69389362 3.83186747 3.02005597 4.33007812 5.92382812 C4.3934207 8.21029088 4.34853117 10.46483482 4.25 12.75 C4.23195313 13.54277344 4.21390625 14.33554687 4.1953125 15.15234375 C4.14833082 17.10208348 4.07659044 19.05119878 4 21 C2.02 21.99 2.02 21.99 0 23 C-3.59791342 16.66767239 -3.32867078 11.08291415 -2 4 C-0.94921875 1.63671875 -0.94921875 1.63671875 0 0 Z " fill="#94432C" transform="translate(52,24)"/>
	

	<path d="M0 0 C2.625 0.375 2.625 0.375 5 1 C3.7934375 1.804375 3.7934375 1.804375 2.5625 2.625 C-0.55333158 5.5128439 -0.58644794 6.86447941 -1 11 C-1.63305821 13.01089078 -2.29094062 15.01463373 -3 17 C-4.81181405 17.19401633 -6.62448532 17.38004375 -8.4375 17.5625 C-9.44683594 17.66691406 -10.45617187 17.77132812 -11.49609375 17.87890625 C-12.32238281 17.91886719 -13.14867188 17.95882812 -14 18 C-15 17 -15 17 -15.25 14.0625 C-15.1675 13.051875 -15.085 12.04125 -15 11 C-14.01 10.34 -13.02 9.68 -12 9 C-10 11 -10 11 -10 14 C-9.01 14 -8.02 14 -7 14 C-5.2224249 10.71832289 -4.0018558 7.3205629 -2.78125 3.8046875 C-2 2 -2 2 0 0 Z " fill="#1E2124" transform="translate(33,64)"/>
	

	<path d="M0 0 C2.62187494 1.04874998 3.79371361 1.64931313 5.25 4.125 C5.4975 4.74375 5.745 5.3625 6 6 C7.2065625 5.7215625 7.2065625 5.7215625 8.4375 5.4375 C9.7059375 5.2209375 9.7059375 5.2209375 11 5 C12 6 12 6 12.1875 8.9375 C12 12 12 12 10 14 C9.30251417 15.31747324 8.63040043 16.64914193 8 18 C8 17.34 8 16.68 8 16 C7.34 16 6.68 16 6 16 C5.38125 14.3603125 5.38125 14.3603125 4.75 12.6875 C3.64674408 10.05341052 3.16652782 9.12370638 0.8125 7.375 C0.214375 6.92125 -0.38375 6.4675 -1 6 C-1.3125 3.375 -1.3125 3.375 -1 1 C-0.67 0.67 -0.34 0.34 0 0 Z " fill="#2A282A" transform="translate(46,40)"/>
	

	

	

	<path d="M0 0 C0.33 0.66 0.66 1.32 1 2 C1.99 2.33 2.98 2.66 4 3 C7.07680491 9.15360983 5.2723312 19.32026118 4 26 C0.89139894 26.9991932 -0.88611292 26.83036989 -4 26 C-4.66 26.33 -5.32 26.66 -6 27 C-6.62599243 30.38035912 -7 33.56169885 -7 37 C-7.66 37 -8.32 37 -9 37 C-9.61441835 28.05679956 -9.61441835 28.05679956 -7.4375 24.3125 C-4.01189454 22.46794321 -1.70353462 23.14533816 2 24 C1.814375 23.38125 1.62875 22.7625 1.4375 22.125 C1 20 1 20 2 18 C2.07116382 15.62597499 2.08409085 13.24999323 2.0625 10.875 C2.05347656 9.59367187 2.04445313 8.31234375 2.03515625 6.9921875 C2.02355469 6.00476562 2.01195312 5.01734375 2 4 C1.34 3.67 0.68 3.34 0 3 C0 2.01 0 1.02 0 0 Z " fill="#A8A7A7" transform="translate(24,46)"/>
	

	<path d="M0 0 C1.98 0.99 3.96 1.98 6 3 C6 3.99 6 4.98 6 6 C6.804375 5.979375 7.60875 5.95875 8.4375 5.9375 C11 6 11 6 12 7 C12.07179964 8.51928038 12.08392007 10.04167482 12.0625 11.5625 C12.05347656 12.38878906 12.04445313 13.21507813 12.03515625 14.06640625 C12.02355469 14.70449219 12.01195312 15.34257813 12 16 C10.35 16 8.7 16 7 16 C5.768606 13.53721199 5.92840804 11.7204945 6 9 C4.02 8.34 2.04 7.68 0 7 C0 4.69 0 2.38 0 0 Z " fill="#8E8D8D" transform="translate(36,55)"/>
	

	

	<path d="M0 0 C4.06662044 6.09993065 4.1749739 11.33679209 3.97265625 18.48828125 C3.70653938 20.93966186 3.70653938 20.93966186 5 22 C5.10957031 21.43410156 5.21914063 20.86820313 5.33203125 20.28515625 C5.49058594 19.55167969 5.64914063 18.81820312 5.8125 18.0625 C5.96332031 17.33160156 6.11414062 16.60070312 6.26953125 15.84765625 C6.51058594 15.23792969 6.75164063 14.62820312 7 14 C7.99 13.67 8.98 13.34 10 13 C9.67 13.99 9.34 14.98 9 16 C8.92970879 18.57265818 8.90629168 21.11641431 8.9375 23.6875 C8.94201172 24.38939453 8.94652344 25.09128906 8.95117188 25.81445312 C8.96293073 27.54300538 8.98086546 29.27151365 9 31 C4.66581331 26.828966 1.2897376 23.20511059 0.85546875 16.90234375 C0.86864199 15.40849852 0.90431292 13.91470478 0.9609375 12.421875 C1.02817951 8.25287037 0.48350541 4.13569808 0 0 Z " fill="#DEDFDE" transform="translate(33,16)"/>
	

	<path d="M0 0 C3.37611549 1.73921101 5.4971468 3.63984281 7.0625 7.0625 C7.64390309 11.44993999 7.76357609 15.68661675 7.0625 20.0625 C5.57421875 21.69140625 5.57421875 21.69140625 4.0625 23.0625 C3.4860458 25.09465876 3.4860458 25.09465876 3.375 27.3125 C3.31054688 28.10011719 3.24609375 28.88773438 3.1796875 29.69921875 C3.02441164 32.83061528 2.99580574 35.92786973 3.0625 39.0625 C0.70759272 35.53013908 0.73506295 33.81529632 0.6875 29.625 C0.65914062 28.49191406 0.63078125 27.35882812 0.6015625 26.19140625 C1.16003533 22.40041698 2.3774939 21.6482549 5.0625 19.0625 C6.03876755 14.18116225 6.00814804 9.54851834 3.3125 5.3125 C1.18156791 3.87781534 1.18156791 3.87781534 -1.0625 4.125 C-3.28117958 5.04053552 -3.28117958 5.04053552 -4.9375 8.0625 C-5.5975 8.0625 -6.2575 8.0625 -6.9375 8.0625 C-6.60503345 4.98718444 -6.30645244 3.44417494 -4.125 1.1875 C-1.9375 0.0625 -1.9375 0.0625 0 0 Z " fill="#D8D9D8" transform="translate(57.9375,3.9375)"/>
	

	<path d="M0 0 C4.3741941 1.33614461 6.06156737 2.89610517 8.375 6.8125 C8.89835937 7.66457031 9.42171875 8.51664063 9.9609375 9.39453125 C11.16960172 12.4252795 10.93855215 13.92486148 10 17 C8.35 17 6.7 17 5 17 C5.061875 16.113125 5.12375 15.22625 5.1875 14.3125 C4.97697059 10.59314716 4.2132352 8.95098026 2 6 C1.01 5.34 0.02 4.68 -1 4 C-0.67 2.68 -0.34 1.36 0 0 Z " fill="#CD3F21" transform="translate(105,90)"/>
	

	

	

	

	<path d="M0 0 C0.66 0.33 1.32 0.66 2 1 C1.01 2.485 1.01 2.485 0 4 C0.680625 4.84111328 0.680625 4.84111328 1.375 5.69921875 C3.02405427 8.03405761 3.99213913 10.14586812 5 12.8125 C5.50660156 14.12541016 5.50660156 14.12541016 6.0234375 15.46484375 C6.34570312 16.30144531 6.66796875 17.13804688 7 18 C9.66771943 25.0232294 9.66771943 25.0232294 14 31 C12.2265625 30.84375 12.2265625 30.84375 10 30 C5.10224548 23.63498568 2.18432714 16.89551429 1 9 C0.34 9 -0.32 9 -1 9 C-1.625 5.625 -1.625 5.625 -2 2 C-1.34 1.34 -0.68 0.68 0 0 Z " fill="#CCCBCA" transform="translate(114,87)"/>
	

	<path d="M0 0 C0.66 0.33 1.32 0.66 2 1 C2.02902429 4.27081471 2.04680684 7.5415963 2.0625 10.8125 C2.07087891 11.74126953 2.07925781 12.67003906 2.08789062 13.62695312 C2.09111328 14.51962891 2.09433594 15.41230469 2.09765625 16.33203125 C2.10289307 17.15421143 2.10812988 17.9763916 2.11352539 18.82348633 C2 21 2 21 1 24 C-0.32 24 -1.64 24 -3 24 C-2.53934842 17.7468998 -2.07012273 11.49420128 -1.5 5.25 C-1.4278125 4.45078125 -1.355625 3.6515625 -1.28125 2.828125 C-1 1 -1 1 0 0 Z " fill="#504240" transform="translate(22,16)"/>
	

	<path d="M0 0 C0.66 0.66 1.32 1.32 2 2 C1.52985926 5.72693389 -0.20618774 9.27227625 -1.5625 12.75 C-2.01753906 13.92046875 -2.47257812 15.0909375 -2.94140625 16.296875 C-3.29074219 17.18890625 -3.64007813 18.0809375 -4 19 C-6.475 18.01 -6.475 18.01 -9 17 C-7.25 12.125 -7.25 12.125 -5 11 C-4.87625 9.906875 -4.7525 8.81375 -4.625 7.6875 C-3.94049868 3.64894224 -3.11600231 2.51290509 0 0 Z " fill="#91412B" transform="translate(63,78)"/>
	

	

	<path d="M0 0 C1.65 0.33 3.3 0.66 5 1 C4.9278125 1.6290625 4.855625 2.258125 4.78125 2.90625 C4.19534084 8.30963445 3.89937081 13.56602383 4 19 C3.34 18.67 2.68 18.34 2 18 C2 13.38 2 8.76 2 4 C1.67 4 1.34 4 1 4 C0.95101563 5.16917969 0.90203125 6.33835937 0.8515625 7.54296875 C0.77649829 9.09116804 0.70095205 10.63934401 0.625 12.1875 C0.5940625 12.95642578 0.563125 13.72535156 0.53125 14.51757812 C0.31383889 18.73897711 -0.09743072 22.14072328 -2 26 C-3.20208155 21.80933724 -2.95607099 17.87067305 -2.6875 13.5625 C-2.65205078 12.81162109 -2.61660156 12.06074219 -2.58007812 11.28710938 C-2.3358935 7.1432599 -1.84745293 3.79293397 0 0 Z " fill="#747374" transform="translate(21,13)"/>
	

	

	<path d="M0 0 C2.46322136 3.74184008 2.03421956 6.7690851 1.625 11.125 C1.51414062 12.36507812 1.40328125 13.60515625 1.2890625 14.8828125 C1.19367187 15.91148438 1.09828125 16.94015625 1 18 C1 18.66 1 19.32 1 20 C-2.3 20 -5.6 20 -9 20 C-8.67 17.69 -8.34 15.38 -8 13 C-9.32 12.34 -10.64 11.68 -12 11 C-10.33388095 10.957279 -8.66617115 10.95936168 -7 11 C-6 12 -6 12 -5.9375 15.0625 C-5.958125 16.031875 -5.97875 17.00125 -6 18 C-4.35 18.33 -2.7 18.66 -1 19 C-1.33 16.03 -1.66 13.06 -2 10 C-3.65 9.67 -5.3 9.34 -7 9 C-7 8.67 -7 8.34 -7 8 C-4.69 8 -2.38 8 0 8 C-0.99 6.68 -1.98 5.36 -3 4 C-2.01 4 -1.02 4 0 4 C0 2.68 0 1.36 0 0 Z " fill="#6C6A6B" transform="translate(49,52)"/>
	

	

	<path d="M0 0 C0.99 0.33 1.98 0.66 3 1 C3 2.65 3 4.3 3 6 C3.61875 6.0825 4.2375 6.165 4.875 6.25 C7 7 7 7 8.15625 8.75 C9.14532585 11.38753559 9.03218152 12.98116569 8.625 15.75 C8.51414062 16.54921875 8.40328125 17.3484375 8.2890625 18.171875 C8.19367188 18.77515625 8.09828125 19.3784375 8 20 C7.01 20.33 6.02 20.66 5 21 C4.67 21.66 4.34 22.32 4 23 C4 22.01 4 21.02 4 20 C4.66 20 5.32 20 6 20 C6 16.37 6 12.74 6 9 C3.69 9 1.38 9 -1 9 C-1 5.72724974 -0.70074844 3.153368 0 0 Z " fill="#DADBDA" transform="translate(117,59)"/>
	

	<path d="M0 0 C2.25 1.5625 2.25 1.5625 4 3 C3.67 3.99 3.34 4.98 3 6 C2.34 5.67 1.68 5.34 1 5 C0.67 6.98 0.34 8.96 0 11 C-0.33 11 -0.66 11 -1 11 C-1.33 9.02 -1.66 7.04 -2 5 C-3.32 4.67 -4.64 4.34 -6 4 C-5.79375 5.27875 -5.5875 6.5575 -5.375 7.875 C-5.0234375 10.0546875 -5.0234375 10.0546875 -5 12 C-5.66 12.66 -6.32 13.32 -7 14 C-7 9.38 -7 4.76 -7 0 C-3.79780242 -1.06739919 -3.05137926 -1.10959246 0 0 Z " fill="#888687" transform="translate(36,51)"/>
	

	<path d="M0 0 C2.4375 0.5 2.4375 0.5 4.25 2.125 C5.72351103 5.07202207 5.65929212 7.24704886 5.4375 10.5 C4.7775 10.5 4.1175 10.5 3.4375 10.5 C3.1075 8.19 2.7775 5.88 2.4375 3.5 C0.10678121 3.08129447 0.10678121 3.08129447 -2.5625 3.5 C-3.2225 4.325 -3.8825 5.15 -4.5625 6 C-6.5625 8.5 -6.5625 8.5 -9.125 9 C-11.89326608 8.43215055 -12.83289616 7.68476274 -14.5625 5.5 C-14.2325 4.51 -13.9025 3.52 -13.5625 2.5 C-13.15 3.015625 -12.7375 3.53125 -12.3125 4.0625 C-10.69009927 5.71724408 -10.69009927 5.71724408 -8.625 5.4375 C-6.39166979 4.58004572 -6.39166979 4.58004572 -4.625 2.4375 C-2.5625 0.5 -2.5625 0.5 0 0 Z " fill="#A9A8A8" transform="translate(43.5625,85.5)"/>
	

	

	<path d="M0 0 C6.39559286 0.60335782 6.39559286 0.60335782 9 2.3125 C10 4 10 4 9.6875 6.1875 C9.3471875 7.0846875 9.3471875 7.0846875 9 8 C8.67 7.01 8.34 6.02 8 5 C7.01 5 6.02 5 5 5 C4.93941406 5.66386719 4.87882812 6.32773437 4.81640625 7.01171875 C3.98418278 15.78207381 3.98418278 15.78207381 3 20 C2.67 20 2.34 20 2 20 C1.8045375 17.75067773 1.61891774 15.50049858 1.4375 13.25 C1.33308594 11.99703125 1.22867187 10.7440625 1.12109375 9.453125 C1 6 1 6 1.59765625 3.671875 C1.73042969 3.12015625 1.86320312 2.5684375 2 2 C1.34 1.34 0.68 0.68 0 0 Z " fill="#9F9F9F" transform="translate(23,12)"/>
	

	

	<path d="M0 0 C0.33 0 0.66 0 1 0 C1.06058594 0.75925781 1.12117188 1.51851562 1.18359375 2.30078125 C1.26738281 3.29464844 1.35117187 4.28851563 1.4375 5.3125 C1.55931641 6.79169922 1.55931641 6.79169922 1.68359375 8.30078125 C1.91812559 11.09375599 1.91812559 11.09375599 3 14 C3.12781786 16.67394964 3.04391871 19.32095857 3 22 C3.639375 22.12375 4.27875 22.2475 4.9375 22.375 C5.9584375 22.684375 5.9584375 22.684375 7 23 C7.33 23.66 7.66 24.32 8 25 C9.97522846 26.04808041 11.97481509 27.0520411 14 28 C14 28.99 14 29.98 14 31 C13.34 31.33 12.68 31.66 12 32 C12 30.68 12 29.36 12 28 C11.278125 27.9175 10.55625 27.835 9.8125 27.75 C6.22599706 26.79359922 4.61647597 25.65415322 2 23 C0.95157844 20.2637772 0.53261231 17.51805321 0.125 14.625 C-0.00390625 13.8825 -0.1328125 13.14 -0.265625 12.375 C-0.96185361 7.99649561 -1.01459287 4.37803774 0 0 Z " fill="#B2B0AF" transform="translate(58,29)"/>
	

	

	

	

	<path d="M0 0 C0.66 0.33 1.32 0.66 2 1 C2.0269501 3.93756119 2.04681474 6.87487555 2.0625 9.8125 C2.07087891 10.64587891 2.07925781 11.47925781 2.08789062 12.33789062 C2.09111328 13.14033203 2.09433594 13.94277344 2.09765625 14.76953125 C2.10289307 15.50792236 2.10812988 16.24631348 2.11352539 17.00708008 C2 19 2 19 1 22 C0.34 22 -0.32 22 -1 22 C-2.39955666 17.17930484 -1.66975027 12.87384533 -1 8 C-0.81117516 6.47933059 -0.62358072 4.95850764 -0.4375 3.4375 C-0.293125 2.303125 -0.14875 1.16875 0 0 Z " fill="#CC3F22" transform="translate(29,17)"/>
	

	

	

	

	<path d="M0 0 C0.33 0 0.66 0 1 0 C1.22226864 1.76913824 1.42733873 3.54044371 1.625 5.3125 C1.74101563 6.29863281 1.85703125 7.28476563 1.9765625 8.30078125 C2 11 2 11 0 14 C-3.16115776 12.63016497 -3.9927092 12.0109362 -6 9 C-5.55555556 3.55555556 -5.55555556 3.55555556 -3 1 C-2.67 4.3 -2.34 7.6 -2 11 C-1.67 11 -1.34 11 -1 11 C-0.67 7.37 -0.34 3.74 0 0 Z " fill="#C37560" transform="translate(63,110)"/>
	

	

	

	

	

	

	

	<path d="M0 0 C1.04449911 3.13349732 0.93423645 3.98968256 0 7 C1.65 6.34 3.3 5.68 5 5 C5 6.32 5 7.64 5 9 C4.01 9.66 3.02 10.32 2 11 C1.26393501 14.56769552 1.26393501 14.56769552 1 18 C0.67 18 0.34 18 0 18 C-0.22786458 15.94921875 -0.45572917 13.8984375 -0.68359375 11.84765625 C-0.81886614 9.98859771 -0.81886614 9.98859771 -2 9 C-2.26293056 4.96839809 -2.29404844 3.44107266 0 0 Z " fill="#909293" transform="translate(43,29)"/>
	

	

	

	

	

	

	

	<path d="M0 0 C0.94875 0.04125 1.8975 0.0825 2.875 0.125 C1.98554687 0.44597656 1.98554687 0.44597656 1.078125 0.7734375 C-1.89538708 2.59761335 -2.79736807 4.66644669 -4.375 7.75 C-5.15617187 9.25433594 -5.15617187 9.25433594 -5.953125 10.7890625 C-6.33984375 11.55992188 -6.7265625 12.33078125 -7.125 13.125 C-8.445 12.795 -9.765 12.465 -11.125 12.125 C-10.135 11.795 -9.145 11.465 -8.125 11.125 C-7.39176204 9.10991642 -7.39176204 9.10991642 -7.125 7.125 C-6.465 7.125 -5.805 7.125 -5.125 7.125 C-5.16625 6.34125 -5.2075 5.5575 -5.25 4.75 C-5.05795839 0.71712612 -3.942779 0.15771116 0 0 Z " fill="#555558" transform="translate(71.125,86.875)"/>
	

	

	

	

	

	

	

	

	<path d="M0 0 C1.32 0 2.64 0 4 0 C4.125 5.75 4.125 5.75 3 8 C2.01 8 1.02 8 0 8 C0 5.36 0 2.72 0 0 Z " fill="#C4C3C2" transform="translate(44,62)"/>
	

	<path d="M0 0 C1.65 0 3.3 0 5 0 C5.33 1.65 5.66 3.3 6 5 C4.125 5.625 4.125 5.625 2 6 C1.34 5.34 0.68 4.68 0 4 C0 2.68 0 1.36 0 0 Z " fill="#B0B1B0" transform="translate(58,59)"/>
	

	

	

	

	

	

	

	

	

	

	

	

	<path d="M0 0 C1.43655854 -0.08131463 2.8744483 -0.13933559 4.3125 -0.1875 C5.51326172 -0.23970703 5.51326172 -0.23970703 6.73828125 -0.29296875 C9 0 9 0 10.79296875 1.38671875 C12 3 12 3 12 5 C11.505 4.690625 11.01 4.38125 10.5 4.0625 C7.02013219 2.58355618 3.75971491 2.37597149 0 2 C0 1.34 0 0.68 0 0 Z " fill="#A7A6A6" transform="translate(17,83)"/>
	

	

	

	

	

	

	

	

	

	

	

	

	

	

	

	

	

	

</svg>
