<?xml version="1.0" encoding="iso-8859-1"?>
<svg height="128" version="1.1" width="128" xmlns="http://www.w3.org/2000/svg">
	

	<path d="M0 0 C42.24 0 84.48 0 128 0 C128 42.24 128 84.48 128 128 C85.76 128 43.52 128 0 128 C0 85.76 0 43.52 0 0 Z " fill="#EB4511" transform="translate(0,0)"/>
	

	<path d="M0 0 C6.54657896 4.39403534 10.60160876 9.17959576 13.9375 16.3046875 C14.30875 17.07941406 14.68 17.85414062 15.0625 18.65234375 C17.10360513 24.83944367 17.09025089 32.8414874 15.02734375 39.0390625 C13.81500727 41.30001156 12.50541209 43.27586687 10.9375 45.3046875 C10.21626953 46.27341797 10.21626953 46.27341797 9.48046875 47.26171875 C3.57566144 54.66220285 -3.853606 58.41817701 -13.0625 60.3046875 C-16.3574202 60.59580495 -19.6306646 60.67333492 -22.9375 60.6796875 C-23.74598389 60.68129883 -24.55446777 60.68291016 -25.38745117 60.68457031 C-37.05389575 60.46684506 -46.11052888 54.537647 -54.0625 46.3046875 C-57.43793373 42.31553855 -60.59900099 38.15774301 -63.74682617 33.98828125 C-65.07688382 32.28628133 -66.48086294 30.67322988 -67.90625 29.05078125 C-70.0625 26.3046875 -70.0625 26.3046875 -69.875 23.4296875 C-69.606875 22.7284375 -69.33875 22.0271875 -69.0625 21.3046875 C-64.88664849 21.83495436 -62.68879265 23.09837304 -59.5 25.8046875 C-56.70062202 28.17227234 -54.71772434 29.70791618 -51.0625 30.3046875 C-51.04832031 29.54285156 -51.03414062 28.78101563 -51.01953125 27.99609375 C-50.67288108 20.49158592 -49.37403546 15.44502335 -45.0625 9.3046875 C-44.50949219 8.50804687 -43.95648438 7.71140625 -43.38671875 6.890625 C-32.18757092 -8.35610841 -15.92496 -8.81560285 0 0 Z " fill="#F9F4F1" transform="translate(87.0625,35.6953125)"/>
	

	<path d="M0 0 C7.35487437 4.00557774 12.50350862 9.98214606 14.9375 18 C15.46240344 21.85914926 15.35079964 25.06463767 13.75 28.6875 C8.59004375 35.27089246 2.60835119 40.07479784 -5.83984375 41.453125 C-12.23329359 41.70420017 -17.72858379 40.6294693 -23.0625 37 C-30.84148367 29.60119223 -30.84148367 29.60119223 -31.265625 24.609375 C-31.41437887 15.53538878 -29.10498848 10.51376888 -23.015625 3.8359375 C-16.13820429 -2.62883797 -8.55687635 -3.81887825 0 0 Z " fill="#EB4511" transform="translate(78.0625,42)"/>
	

	

	

</svg>
