<?xml version="1.0" encoding="iso-8859-1"?>
<svg height="244.35" version="1.1" viewBox="0 0 350.8093 244.3475" width="350.81" xml:space="preserve" xmlns="http://www.w3.org/2000/svg" xmlns:cc="http://creativecommons.org/ns#" xmlns:dc="http://purl.org/dc/elements/1.1/" xmlns:rdf="http://www.w3.org/1999/02/22-rdf-syntax-ns#">
	<g transform="matrix(1.25 0 0 -1.25 -337.2 576.26)">
		<g>
			<path d="m525.64 375.42-2.872-2.93-0.517 0.183-0.531 3.904-10.863 2.669-2.377-4.284-0.709 0.036-2.002 4.053-7.74-1.254-4.906-5.307-8.872-0.018c-3.982 20.601-22.206 33.589-43.917 40.256l-2.263-20.663c8.138-5.151 13.622-13.791 13.622-28.165 0-35.869-35.103-37.521-58.534-37.521h-7.402l0.006-16.8h16.837c37.781 0 76.808 13.639 81.917 46.755 0 0 0.156 0.967 0.318 2.317l7.798-0.047 5.218-4.923 8.231-1.21 1.72 4.079 0.61 0.084 2.799-3.878 10.843 2.757 0.312 4.048 0.672 0.221 3.034-2.984c0.814 0.195 16.947 8.51 16.895 9.526-0.063 1.105-17.327 9.096-17.327 9.096zm-178.96-11.52-3.659 35.342 64.486 0.032 0.005 18.958-100.71-0.039 10.426-44.178c-0.913 0.102-1.773 0.175-2.539 0.175-2.523 0-4.921-1.17-5.49-1.819-0.078-0.084-0.359 0.041-0.75 0.307-1.152 1.007-3.007 1.582-5.119 1.582-1.913 0-3.743-0.466-5.03-1.29-0.49-0.177-0.943-0.26-1.398-0.26-0.578 0-1.866 0.367-1.866 0.367l-0.015 0.003c-0.708 0.213-1.522 0.456-2.45 0.456 0 0-1.866 0.029-2.825 0.06h-0.011s-5.092 0.052-5.676-0.005c-0.319-0.037-6.584 0.266-8.284-1.46-0.818-0.839-1.146-2.192-1.032-4.097 0.074-1.282 0.334-2.551 0.532-3.251 1.392-4.803 3.149-5.903 4.389-5.97 0.626-0.105 5.202 0.292 8.961 0.398 1.762 0.05 3.081-0.075 3.925-0.221 0.198-0.052 0.479-0.11 0.85-0.11 0.813 0 2.048 0.276 3.346 1.565l0.042-0.006c1.376-1.741 3.951-1.866 4.462-1.871h0.005c0.626-0.003 2.378-0.005 4.947-0.005 3.701 0 8.315 0.005 11.713 0.018l-11.113-49.002h46.054l1.892 16.8h-11.739l3.67 37.521"/>
		</g>
	</g>
</svg>
