<?xml version="1.0" encoding="iso-8859-1"?>
<svg height="128" version="1.1" width="128" xmlns="http://www.w3.org/2000/svg">
	

	<path d="M0 0 C42.24 0 84.48 0 128 0 C128 42.24 128 84.48 128 128 C85.76 128 43.52 128 0 128 C0 85.76 0 43.52 0 0 Z " fill="#FBFBFB" transform="translate(0,0)"/>
	

	<path d="M0 0 C1.08056671 -0.0025882 2.16113342 -0.00517639 3.27444458 -0.00784302 C6.39783971 -0.01374108 9.52113514 -0.01209619 12.64453125 -0.0078125 C13.5748114 -0.00979141 14.50509155 -0.01177032 15.46356201 -0.0138092 C31.10362852 0.04112852 31.10362852 0.04112852 34.1875 3.125 C33.78458212 10.69802466 31.68504674 18.08240056 29.9375 25.4375 C29.62148653 26.77856112 29.30548728 28.1196256 28.98950195 29.46069336 C27.19264232 37.05515342 25.34716355 44.63643022 23.375 52.1875 C23.18067383 52.93491455 22.98634766 53.6823291 22.78613281 54.45239258 C22.00961551 57.36296775 21.17325531 60.16007877 20.0390625 62.953125 C18.93734843 65.76300124 19.19568349 67.30213763 20.1875 70.125 C21.6725 71.115 21.6725 71.115 23.1875 72.125 C23.1875 72.785 23.1875 73.445 23.1875 74.125 C24.1775 74.125 25.1675 74.125 26.1875 74.125 C31.25638566 78.60358505 35.09323111 84.63705324 38.99609375 90.11328125 C40.58129594 92.29187464 42.18565319 94.42482296 43.84765625 96.54296875 C44.29842529 97.11829346 44.74919434 97.69361816 45.21362305 98.28637695 C46.0917844 99.4019995 46.97454059 100.51402547 47.86254883 101.62182617 C50.24708621 104.65829256 51.95682563 107.46002469 53.1875 111.125 C51.1875 113.125 51.1875 113.125 47.91796875 113.13671875 C43.10713547 111.83200061 41.44786804 109.78457383 38.5 105.9375 C38.04044922 105.37224609 37.58089844 104.80699219 37.10742188 104.22460938 C34.98579895 101.58241706 33.07324389 98.94399793 31.26171875 96.07421875 C28.77949407 92.54487857 25.92590923 89.94483933 22.6875 87.125 C18.4111482 83.40137394 15.34471952 79.88828337 12.1875 75.125 C9.07814982 73.69720726 9.07814982 73.69720726 6.1875 73.125 C6.1875 73.785 6.1875 74.445 6.1875 75.125 C4.8675 75.125 3.5475 75.125 2.1875 75.125 C2.39375 76.259375 2.6 77.39375 2.8125 78.5625 C3.45862786 83.74998367 3.14941469 89.54260024 -0.109375 93.83203125 C-2.21648456 95.4316947 -3.69453656 95.71202402 -6.3125 96 C-7.0859375 96.10054688 -7.859375 96.20109375 -8.65625 96.3046875 C-10.8125 96.125 -10.8125 96.125 -12.59765625 94.83203125 C-13.8125 93.125 -13.8125 93.125 -13.75 89.9375 C-12.68014649 85.58676237 -10.98568924 82.01652493 -8.8125 78.125 C-7.8225 78.125 -6.8325 78.125 -5.8125 78.125 C-6.1425 77.135 -6.4725 76.145 -6.8125 75.125 C-7.4366832 75.11469254 -8.06086639 75.10438507 -8.70396423 75.09376526 C-15.17604552 74.98593467 -21.64798093 74.87131853 -28.11987305 74.75268555 C-30.53813639 74.70926122 -32.9564319 74.66759188 -35.37475586 74.62768555 C-38.84238396 74.57016397 -42.30984903 74.50641813 -45.77734375 74.44140625 C-46.86587143 74.42469376 -47.95439911 74.40798126 -49.07591248 74.39076233 C-50.57735558 74.3608445 -50.57735558 74.3608445 -52.10913086 74.33032227 C-52.99515488 74.31477798 -53.88117889 74.2992337 -54.79405212 74.28321838 C-56.8125 74.125 -56.8125 74.125 -57.8125 73.125 C-57.88494053 71.10535801 -57.89627188 69.08332876 -57.875 67.0625 C-57.86597656 65.95777344 -57.85695313 64.85304688 -57.84765625 63.71484375 C-57.83605469 62.86019531 -57.82445312 62.00554687 -57.8125 61.125 C-53.19067094 59.95435267 -48.7431328 59.99702309 -44.01171875 60.02734375 C-42.7571563 60.02946617 -42.7571563 60.02946617 -41.47724915 60.03163147 C-38.818129 60.03720816 -36.1590945 60.04975635 -33.5 60.0625 C-31.69205851 60.06751801 -29.8841157 60.07208039 -28.07617188 60.07617188 C-23.65491516 60.08716996 -19.23372207 60.1044185 -14.8125 60.125 C-14.8125 58.805 -14.8125 57.485 -14.8125 56.125 C-15.369375 55.856875 -15.92625 55.58875 -16.5 55.3125 C-21.71347403 52.63531063 -25.44623564 49.65775797 -29.3125 45.25 C-30.23844995 44.20992737 -31.16552521 43.17085543 -32.09375 42.1328125 C-32.54935303 41.62314941 -33.00495605 41.11348633 -33.47436523 40.58837891 C-35.51301012 38.35892489 -37.66517114 36.24938031 -39.8125 34.125 C-40.85466501 33.05122366 -41.8949205 31.97559181 -42.93359375 30.8984375 C-44.03896522 29.76553008 -45.14443533 28.63271889 -46.25 27.5 C-46.79720703 26.92765625 -47.34441406 26.3553125 -47.90820312 25.765625 C-51.29730482 22.31636174 -54.35005706 20.1411253 -58.8125 18.125 C-61.2066161 15.7308839 -61.10848923 15.08713689 -61.125 11.8125 C-61.04123735 7.81122284 -60.39672823 5.30558859 -57.8125 2.125 C-53.66159621 0.04954811 -48.31307891 0.70860029 -43.75 0.5625 C-41.82957886 0.4998999 -41.82957886 0.4998999 -39.87036133 0.43603516 C-26.58295296 0.04302275 -13.29227431 0.01486021 0 0 Z " fill="#350961" transform="translate(72.8125,10.875)"/>
	

	<path d="M0 0 C0.495 1.98 0.495 1.98 1 4 C0.34 4 -0.32 4 -1 4 C-1.07476562 4.94617188 -1.14953125 5.89234375 -1.2265625 6.8671875 C-2.12100695 16.37385422 -4.34762969 24.77692693 -7.53515625 33.7578125 C-9.41672368 39.07512927 -10.77029748 44.49869927 -12 50 C-17.38801393 51.33745027 -17.38801393 51.33745027 -20.08984375 49.84765625 C-20.69957031 49.25855469 -21.30929688 48.66945312 -21.9375 48.0625 C-22.54464844 47.49660156 -23.15179688 46.93070313 -23.77734375 46.34765625 C-25.62771919 44.39321751 -27.38829963 42.40485665 -29.14453125 40.3671875 C-33.47062374 35.38973132 -38.08652852 30.72244088 -42.75 26.0625 C-43.63163818 25.18021729 -44.51327637 24.29793457 -45.42163086 23.38891602 C-50.73207242 18.12148586 -56.07240953 13.12347362 -62.00390625 8.55859375 C-63.845199 7.12087201 -65.50712252 5.79813039 -67 4 C-67 3.01 -67 2.02 -67 1 C-63.05145455 0.27314845 -59.27012901 -0.1441293 -55.25756836 -0.22119141 C-54.15299789 -0.24436432 -53.04842743 -0.26753723 -51.91038513 -0.29141235 C-50.73210648 -0.3112619 -49.55382782 -0.33111145 -48.33984375 -0.3515625 C-47.11721329 -0.37471527 -45.89458282 -0.39786804 -44.63490295 -0.42172241 C-42.05538884 -0.46925085 -39.47583182 -0.51449796 -36.89624023 -0.55761719 C-32.94823272 -0.62481732 -29.00052814 -0.7025842 -25.05273438 -0.78125 C-22.54428219 -0.82615981 -20.03581885 -0.87045159 -17.52734375 -0.9140625 C-15.75688942 -0.94990952 -15.75688942 -0.94990952 -13.95066833 -0.98648071 C-12.29854088 -1.0117836 -12.29854088 -1.0117836 -10.61303711 -1.03759766 C-9.16458656 -1.06305161 -9.16458656 -1.06305161 -7.68687439 -1.08901978 C-5.01600089 -1.00053013 -2.59927765 -0.60187038 0 0 Z " fill="#FBFBFB" transform="translate(95,21)"/>
	

	<path d="M0 0 C0.66 0 1.32 0 2 0 C2.495 1.485 2.495 1.485 3 3 C1 5 1 5 -0.83499146 5.24050903 C-1.57667572 5.23606781 -2.31835999 5.23162659 -3.08251953 5.22705078 C-4.34360031 5.22682419 -4.34360031 5.22682419 -5.63015747 5.22659302 C-6.53853363 5.21627045 -7.44690979 5.20594788 -8.3828125 5.1953125 C-9.77691849 5.19106766 -9.77691849 5.19106766 -11.19918823 5.18673706 C-14.1745885 5.17552069 -17.14969035 5.1504136 -20.125 5.125 C-22.13931858 5.11497208 -24.15364186 5.1058459 -26.16796875 5.09765625 C-31.11209456 5.07557661 -36.05599665 5.04103693 -41 5 C-40.979375 6.093125 -40.95875 7.18625 -40.9375 8.3125 C-41 12 -41 12 -42 15 C-41.14222458 14.99555878 -40.28444916 14.99111755 -39.40068054 14.98654175 C-31.32246406 14.94649083 -23.24428086 14.91602874 -15.16598797 14.89637566 C-11.01271522 14.88593221 -6.85952441 14.87176281 -2.70629883 14.84912109 C1.30074559 14.82741266 5.30771112 14.8154356 9.3148098 14.81024551 C10.84464955 14.80654616 12.37448492 14.79932235 13.90429115 14.78853989 C16.04476933 14.77405137 18.18492025 14.77202092 20.32543945 14.77294922 C21.54455521 14.768508 22.76367096 14.76406677 24.01972961 14.75949097 C27 15 27 15 30 17 C30 17.66 30 18.32 30 19 C30.66 19 31.32 19 32 19 C34.71516564 21.24296292 36.25938731 23.9728475 38 27 C39.64674175 30.03281253 39.64674175 30.03281253 41.875 30.875 C44.71291661 32.37742644 46.07733488 34.45712032 48 37 C48.515625 37.495 49.03125 37.99 49.5625 38.5 C51.88054257 40.91882703 54 43.57273716 54 47 C54.763125 47.2475 55.52625 47.495 56.3125 47.75 C59.28095711 49.13067773 60.14597475 50.38750987 62 53 C63.485 53.495 63.485 53.495 65 54 C62.41012266 48.30731506 58.8677076 44.15149779 54.765625 39.48828125 C54.18296875 38.66714844 53.6003125 37.84601563 53 37 C53.33 36.01 53.66 35.02 54 34 C59.60767445 39.89232798 64.07268222 45.87429842 68 53 C67.34 53.99 66.68 54.98 66 56 C60.00523596 55.78403956 60.00523596 55.78403956 57.45556641 53.79541016 C55.98035964 52.19303923 54.63717448 50.54124785 53.3125 48.8125 C52.85294922 48.24724609 52.39339844 47.68199219 51.91992188 47.09960938 C49.79829895 44.45741706 47.88574389 41.81899793 46.07421875 38.94921875 C43.59199407 35.41987857 40.73840923 32.81983933 37.5 30 C33.2236482 26.27637394 30.15721952 22.76328337 27 18 C23.89064982 16.57220726 23.89064982 16.57220726 21 16 C21 16.66 21 17.32 21 18 C19.68 18 18.36 18 17 18 C17.20625 19.134375 17.4125 20.26875 17.625 21.4375 C18.27112786 26.62498367 17.96191469 32.41760024 14.703125 36.70703125 C12.59601544 38.3066947 11.11796344 38.58702402 8.5 38.875 C7.33984375 39.02582031 7.33984375 39.02582031 6.15625 39.1796875 C4 39 4 39 2.21484375 37.70703125 C1 36 1 36 1.0625 32.8125 C2.13235351 28.46176237 3.82681076 24.89152493 6 21 C6.99 21 7.98 21 9 21 C8.505 19.515 8.505 19.515 8 18 C7.0637252 17.9845388 7.0637252 17.9845388 6.10853577 17.96876526 C-0.36354552 17.86093467 -6.83548093 17.74631853 -13.30737305 17.62768555 C-15.72563639 17.58426122 -18.1439319 17.54259188 -20.56225586 17.50268555 C-24.02988396 17.44516397 -27.49734903 17.38141813 -30.96484375 17.31640625 C-32.59763527 17.29133751 -32.59763527 17.29133751 -34.26341248 17.26576233 C-35.76485558 17.2358445 -35.76485558 17.2358445 -37.29663086 17.20532227 C-38.18265488 17.18977798 -39.06867889 17.1742337 -39.98155212 17.15821838 C-42 17 -42 17 -43 16 C-43.07244053 13.98035801 -43.08377188 11.95832876 -43.0625 9.9375 C-43.05347656 8.83277344 -43.04445313 7.72804688 -43.03515625 6.58984375 C-43.02355469 5.73519531 -43.01195312 4.88054687 -43 4 C-38.37817094 2.82935267 -33.9306328 2.87202309 -29.19921875 2.90234375 C-27.9446563 2.90446617 -27.9446563 2.90446617 -26.66474915 2.90663147 C-24.005629 2.91220816 -21.3465945 2.92475635 -18.6875 2.9375 C-16.87955851 2.94251801 -15.0716157 2.94708039 -13.26367188 2.95117188 C-8.84241516 2.96216996 -4.42122207 2.9794185 0 3 C0 2.01 0 1.02 0 0 Z " fill="#A995BA" transform="translate(58,68)"/>
	

	<path d="M0 0 C0.495 1.98 0.495 1.98 1 4 C0.34 4 -0.32 4 -1 4 C-1.07476562 4.94617188 -1.14953125 5.89234375 -1.2265625 6.8671875 C-2.12100695 16.37385422 -4.34762969 24.77692693 -7.53515625 33.7578125 C-9.41672368 39.07512927 -10.77029748 44.49869927 -12 50 C-17.38801393 51.33745027 -17.38801393 51.33745027 -20.08984375 49.84765625 C-20.69957031 49.25855469 -21.30929688 48.66945312 -21.9375 48.0625 C-22.54464844 47.49660156 -23.15179688 46.93070313 -23.77734375 46.34765625 C-25.62771919 44.39321751 -27.38829963 42.40485665 -29.14453125 40.3671875 C-33.47062374 35.38973132 -38.08652852 30.72244088 -42.75 26.0625 C-43.63163818 25.18021729 -44.51327637 24.29793457 -45.42163086 23.38891602 C-50.73207242 18.12148586 -56.07240953 13.12347362 -62.00390625 8.55859375 C-63.845199 7.12087201 -65.50712252 5.79813039 -67 4 C-67 3.01 -67 2.02 -67 1 C-63.05145455 0.27314845 -59.27012901 -0.1441293 -55.25756836 -0.22119141 C-54.15299789 -0.24436432 -53.04842743 -0.26753723 -51.91038513 -0.29141235 C-50.73210648 -0.3112619 -49.55382782 -0.33111145 -48.33984375 -0.3515625 C-47.11721329 -0.37471527 -45.89458282 -0.39786804 -44.63490295 -0.42172241 C-42.05538884 -0.46925085 -39.47583182 -0.51449796 -36.89624023 -0.55761719 C-32.94823272 -0.62481732 -29.00052814 -0.7025842 -25.05273438 -0.78125 C-22.54428219 -0.82615981 -20.03581885 -0.87045159 -17.52734375 -0.9140625 C-15.75688942 -0.94990952 -15.75688942 -0.94990952 -13.95066833 -0.98648071 C-12.29854088 -1.0117836 -12.29854088 -1.0117836 -10.61303711 -1.03759766 C-9.16458656 -1.06305161 -9.16458656 -1.06305161 -7.68687439 -1.08901978 C-5.01600089 -1.00053013 -2.59927765 -0.60187038 0 0 Z M-10.66479492 1.97827148 C-12.40626045 2.00841591 -12.40626045 2.00841591 -14.1829071 2.03916931 C-15.43610245 2.06620438 -16.68929779 2.09323944 -17.98046875 2.12109375 C-19.90515739 2.15651024 -19.90515739 2.15651024 -21.86872864 2.19264221 C-25.27678463 2.25541367 -28.68468448 2.32449978 -32.09259033 2.39489746 C-35.5714203 2.4656437 -39.0503608 2.53042299 -42.52929688 2.59570312 C-49.35298471 2.72462594 -56.17652618 2.86021951 -63 3 C-61.46593371 6.31467895 -60.13688367 8.03944771 -57 10 C-56.34 10 -55.68 10 -55 10 C-54.896875 10.639375 -54.79375 11.27875 -54.6875 11.9375 C-54.460625 12.618125 -54.23375 13.29875 -54 14 C-53.01 14.33 -52.02 14.66 -51 15 C-49.28641357 16.61838719 -47.6292274 18.29671681 -46 20 C-44.8360061 21.16933332 -43.66920565 22.33587785 -42.5 23.5 C-41.89929688 24.10199219 -41.29859375 24.70398438 -40.6796875 25.32421875 C-39.33758735 26.66319774 -37.98329362 27.98995095 -36.625 29.3125 C-34.96908491 31.00784164 -33.35274633 32.74365316 -31.796875 34.53125 C-30.99765625 35.4490625 -30.1984375 36.366875 -29.375 37.3125 C-28.61960938 38.19550781 -27.86421875 39.07851563 -27.0859375 39.98828125 C-25.12309453 42.34709273 -25.12309453 42.34709273 -22 42 C-21.67 42.99 -21.34 43.98 -21 45 C-18.41927097 47.32265612 -17.54823932 48 -14 48 C-13.76925781 47.1028125 -13.53851563 46.205625 -13.30078125 45.28125 C-11.51193893 38.43698371 -9.6136795 31.6689726 -7.4375 24.9375 C-5.11078952 17.7106769 -3.43386776 10.46077535 -2 3 C-5.18353731 1.9388209 -7.32541628 1.91307754 -10.66479492 1.97827148 Z " fill="#B09FC0" transform="translate(95,21)"/>
	

	<path d="M0 0 C0.94125732 -0.00526703 1.88251465 -0.01053406 2.85229492 -0.01596069 C29.05563423 -0.12957718 29.05563423 -0.12957718 35.625 4.25 C37.02532889 11.40870718 34.79513547 18.81402413 32.9375 25.6875 C32.66711914 26.72648437 32.39673828 27.76546875 32.11816406 28.8359375 C31.29828936 31.97702838 30.46254628 35.11358193 29.625 38.25 C29.14338054 40.08433367 28.66284523 41.91895248 28.18359375 43.75390625 C27.18510826 47.57241406 26.18118438 51.38928849 25.15039062 55.19921875 C24.78346987 56.63143732 24.4515044 58.07286485 24.14648438 59.51953125 C23.72957258 61.45139413 23.18673986 63.355176 22.625 65.25 C21.14 65.745 21.14 65.745 19.625 66.25 C19.295 66.91 18.965 67.57 18.625 68.25 C19.54719515 63.25202587 20.8199824 58.34451934 22.05859375 53.41796875 C22.29659195 52.4673909 22.53459015 51.51681305 22.77980042 50.53742981 C23.53959313 47.50384118 24.30101881 44.47066518 25.0625 41.4375 C25.57107224 39.40823036 26.07953693 37.37893377 26.58789062 35.34960938 C27.5259437 31.60554507 28.46462699 27.86164004 29.40405273 24.11791992 C29.71232498 22.88505753 29.71232498 22.88505753 30.02682495 21.62728882 C30.42033847 20.06337324 30.8187456 18.50067946 31.22244263 16.93936157 C32.16098392 13.28698472 32.96931487 10.03746354 32.625 6.25 C29.35904683 2.98404683 19.39942622 4.12697113 14.90104675 4.11122131 C13.97077164 4.11319016 13.04049652 4.115159 12.08203125 4.1171875 C10.58963676 4.11500465 10.58963676 4.11500465 9.0670929 4.11277771 C5.85718923 4.11054632 2.64739294 4.1167738 -0.5625 4.125 C-2.19798798 4.12782486 -2.19798798 4.12782486 -3.86651611 4.13070679 C-17.32895451 4.1580589 -30.79151724 4.21743249 -44.25 4.5625 C-45.46453857 4.58489746 -46.67907715 4.60729492 -47.93041992 4.63037109 C-49.02330322 4.66598145 -50.11618652 4.7015918 -51.2421875 4.73828125 C-52.63606689 4.77755737 -52.63606689 4.77755737 -54.05810547 4.81762695 C-56.80112383 5.32952216 -57.680908 6.07659255 -59.375 8.25 C-60.54483345 10.5896669 -60.5411241 12.08391527 -60.5625 14.6875 C-60.57667969 15.46996094 -60.59085938 16.25242187 -60.60546875 17.05859375 C-60.51586064 19.54205987 -60.51586064 19.54205987 -58.375 22.25 C-60.3203125 21.515625 -60.3203125 21.515625 -62.375 20.25 C-63.79287104 16.17565793 -63.53689241 12.04474458 -62.6875 7.875 C-61.19780693 4.89561386 -60.21231424 3.94657241 -57.375 2.25 C-54.49804688 1.72583008 -54.49804688 1.72583008 -51.09375 1.51953125 C-49.79775879 1.43864258 -48.50176758 1.35775391 -47.16650391 1.27441406 C-45.73607109 1.20240256 -44.30556641 1.13180689 -42.875 1.0625 C-42.14690125 1.02330444 -41.41880249 0.98410889 -40.66864014 0.94372559 C-27.11902483 0.22167444 -13.56681768 0.03920634 0 0 Z " fill="#C2B5CE" transform="translate(73.375,7.75)"/>
	

	<path d="M0 0 C1.08056671 -0.0025882 2.16113342 -0.00517639 3.27444458 -0.00784302 C6.39783971 -0.01374108 9.52113514 -0.01209619 12.64453125 -0.0078125 C13.5748114 -0.00979141 14.50509155 -0.01177032 15.46356201 -0.0138092 C31.10362852 0.04112852 31.10362852 0.04112852 34.1875 3.125 C33.78458212 10.69802466 31.68504674 18.08240056 29.9375 25.4375 C29.62148653 26.77856112 29.30548728 28.1196256 28.98950195 29.46069336 C27.19264232 37.05515342 25.34716355 44.63643022 23.375 52.1875 C23.18067383 52.93491455 22.98634766 53.6823291 22.78613281 54.45239258 C21.80733329 58.12117057 20.69037246 61.6364318 19.1875 65.125 C18.8575 65.125 18.5275 65.125 18.1875 65.125 C17.92173045 58.97033677 18.7786953 53.99752558 20.5625 48.125 C21.00880273 46.60445697 21.45412261 45.08362509 21.8984375 43.5625 C22.11467773 42.8303125 22.33091797 42.098125 22.55371094 41.34375 C23.52079267 37.95821887 24.35556581 34.5460378 25.1875 31.125 C25.8475 31.125 26.5075 31.125 27.1875 31.125 C27.30996094 30.15046875 27.43242188 29.1759375 27.55859375 28.171875 C28.28810416 23.06144228 29.57781203 18.09631463 30.81445312 13.08984375 C31.5559869 10.03135645 32.1875 7.28488778 32.1875 4.125 C24.2715764 3.35863315 16.45141663 2.96561018 8.5 3 C7.36530273 3.00193359 6.23060547 3.00386719 5.06152344 3.00585938 C-15.56534994 3.10108475 -36.19146309 3.6567336 -56.8125 4.125 C-57.6222827 9.1216592 -57.73030962 13.12803653 -56.8125 18.125 C-55.4925 18.455 -54.1725 18.785 -52.8125 19.125 C-53.8025 19.455 -54.7925 19.785 -55.8125 20.125 C-58.5 18.75 -58.5 18.75 -60.8125 16.125 C-61.70250874 11.74027806 -61.29414684 8.17586584 -59.4375 4.125 C-57.8125 2.125 -57.8125 2.125 -55.8125 1.125 C-51.80455524 0.75151728 -47.77229163 0.69128541 -43.75 0.5625 C-41.82957886 0.4998999 -41.82957886 0.4998999 -39.87036133 0.43603516 C-26.58295296 0.04302275 -13.29227431 0.01486021 0 0 Z " fill="#7B5C96" transform="translate(72.8125,10.875)"/>
	

	

	<path d="M0 0 C8.81426911 -0.04631323 17.62849642 -0.08186401 26.4428606 -0.10362434 C30.53559983 -0.1140675 34.6282559 -0.12823636 38.72094727 -0.15087891 C42.66963711 -0.17258839 46.61824689 -0.18456462 50.56699181 -0.18975449 C52.07450305 -0.19345366 53.58200986 -0.20067711 55.08948708 -0.21146011 C57.19883363 -0.22595004 59.30784812 -0.22797902 61.41723633 -0.22705078 C62.61858719 -0.231492 63.81993805 -0.23593323 65.05769348 -0.24050903 C68 0 68 0 71 2 C71 2.66 71 3.32 71 4 C71.66 4 72.32 4 73 4 C75.71516564 6.24296292 77.25938731 8.9728475 79 12 C80.64674175 15.03281253 80.64674175 15.03281253 82.875 15.875 C85.71291661 17.37742644 87.07733488 19.45712032 89 22 C89.515625 22.495 90.03125 22.99 90.5625 23.5 C92.88054257 25.91882703 95 28.57273716 95 32 C95.763125 32.2475 96.52625 32.495 97.3125 32.75 C100.28095711 34.13067773 101.14597475 35.38750987 103 38 C104.485 38.495 104.485 38.495 106 39 C103.41012266 33.30731506 99.8677076 29.15149779 95.765625 24.48828125 C95.18296875 23.66714844 94.6003125 22.84601563 94 22 C94.495 20.515 94.495 20.515 95 19 C100.60767445 24.89232798 105.07268222 30.87429842 109 38 C108.34 38.99 107.68 39.98 107 41 C101.00523596 40.78403956 101.00523596 40.78403956 98.45556641 38.79541016 C96.98035964 37.19303923 95.63717448 35.54124785 94.3125 33.8125 C93.85294922 33.24724609 93.39339844 32.68199219 92.91992188 32.09960938 C90.79829895 29.45741706 88.88574389 26.81899793 87.07421875 23.94921875 C84.59199407 20.41987857 81.73840923 17.81983933 78.5 15 C75.1152571 12.05274088 72.31170797 9.47885573 69.84375 5.6875 C68.33409605 2.94047085 68.33409605 2.94047085 66.28033447 2.34486389 C63.39302855 1.90820534 60.59179583 1.83492632 57.67089844 1.79467773 C55.74935944 1.7647599 55.74935944 1.7647599 53.78900146 1.73423767 C52.39579386 1.71725591 51.00258501 1.70037701 49.609375 1.68359375 C48.18019017 1.66301206 46.75101127 1.64201527 45.32183838 1.62062073 C41.5670655 1.56552551 37.81223882 1.51606112 34.05737305 1.46777344 C30.22309605 1.41746655 26.3888968 1.36182852 22.5546875 1.30664062 C15.03652425 1.19921264 7.51829618 1.09773384 0 1 C0 0.67 0 0.34 0 0 Z " fill="#7D5F98" transform="translate(17,83)"/>
	

	<path d="M0 0 C1.0209375 0.86625 1.0209375 0.86625 2.0625 1.75 C4.32659603 3.48420121 6.25991869 4.70618456 8.75 6 C12 8 12 8 13 10.1875 C13 10.785625 13 11.38375 13 12 C12 13 12 13 10.24729919 13.12025452 C9.48562943 13.11803391 8.72395966 13.11581329 7.93920898 13.11352539 C7.07839218 13.11344986 6.21757538 13.11337433 5.33067322 13.11329651 C4.39526199 13.10813522 3.45985077 13.10297394 2.49609375 13.09765625 C1.54307877 13.0962413 0.59006378 13.09482635 -0.39183044 13.09336853 C-3.44875165 13.08775152 -6.50560077 13.07519616 -9.5625 13.0625 C-11.62955624 13.05748719 -13.69661362 13.05292391 -15.76367188 13.04882812 C-20.84247588 13.03777656 -25.9212257 13.02050055 -31 13 C-30.67 16.96 -30.34 20.92 -30 25 C-14.16 25.33 1.68 25.66 18 26 C18 26.33 18 26.66 18 27 C4.80688429 27.66706765 -8.35571966 28.2480916 -21.5625 27.6875 C-22.48885254 27.65277588 -23.41520508 27.61805176 -24.36962891 27.58227539 C-25.64265869 27.51641235 -25.64265869 27.51641235 -26.94140625 27.44921875 C-27.68076416 27.41143311 -28.42012207 27.37364746 -29.18188477 27.3347168 C-31 27 -31 27 -33 25 C-33.30078125 22.5390625 -33.30078125 22.5390625 -33.3125 19.625 C-33.32925781 18.66851562 -33.34601562 17.71203125 -33.36328125 16.7265625 C-32.92215325 13.41573085 -32.4412591 12.28723265 -30 10 C-27.17898711 9.63148413 -24.75379626 9.50955775 -21.9375 9.57421875 C-21.14980225 9.57750687 -20.36210449 9.58079498 -19.55053711 9.58418274 C-17.88614637 9.59460064 -16.22179195 9.61454584 -14.55761719 9.64331055 C-12.0095627 9.68733478 -9.46245002 9.70473904 -6.9140625 9.71679688 C-5.29686141 9.73022349 -3.67967192 9.74514716 -2.0625 9.76171875 C-1.29993896 9.76910568 -0.53737793 9.77649261 0.24829102 9.78410339 C3.41546709 9.84129151 5.97455762 9.99151921 9 11 C8.25450036 7.73379848 8.25450036 7.73379848 5.0625 6.0625 C2.14475815 4.09749018 1.14885011 3.2167803 0 0 Z " fill="#C8BCD2" transform="translate(46,59)"/>
	

	

	

	

	

	

	<path d="M0 0 C1.32 0.33 2.64 0.66 4 1 C3.67 4.96 3.34 8.92 3 13 C0.69 13 -1.62 13 -4 13 C-5.0397303 9.88080911 -5.00510045 8.99794502 -4.25 5.9375 C-4.09015625 5.24527344 -3.9303125 4.55304688 -3.765625 3.83984375 C-3 2 -3 2 0 0 Z " fill="#42176A" transform="translate(68,90)"/>
	

	

	

	

	

	

	

	

	

	

	

	

	

	

	

	

	

	

	

	

	

	

	

	

	

	

	

	

	

	

</svg>
