<?xml version="1.0" encoding="iso-8859-1"?>
<svg height="128" version="1.1" width="128" xmlns="http://www.w3.org/2000/svg">
	

	<path d="M0 0 C42.24 0 84.48 0 128 0 C128 42.24 128 84.48 128 128 C85.76 128 43.52 128 0 128 C0 85.76 0 43.52 0 0 Z " fill="#FDFDFD" transform="translate(0,0)"/>
	

	

	

	

	<path d="M0 0 C1.22644557 0.00138269 1.22644557 0.00138269 2.47766781 0.00279331 C3.88068645 0.00073132 3.88068645 0.00073132 5.31204891 -0.00137234 C6.34638561 0.00222294 7.38072231 0.00581821 8.44640255 0.00952244 C9.52919491 0.00937641 10.61198727 0.00923038 11.72759151 0.00907993 C15.32585778 0.0097796 18.92407301 0.0175745 22.52233028 0.02539158 C25.00954822 0.02725557 27.49676652 0.02867956 29.98398495 0.0296793 C35.87363594 0.03311433 41.76326794 0.04100506 47.65291113 0.05102879 C55.01367777 0.06328536 62.37444668 0.06866992 69.73522091 0.0742197 C82.87129802 0.08495968 96.00735986 0.10184693 109.14342403 0.12304783 C109.14342403 1.44304783 109.14342403 2.76304783 109.14342403 4.12304783 C90.94680401 5.37202386 90.94680401 5.37202386 83.14342403 4.56054783 C75.33470327 3.79264042 68.4508483 4.25770561 62.14342403 9.12304783 C59.95592403 8.93554783 59.95592403 8.93554783 57.14342403 8.12304783 C49.93510004 6.13556755 40.79372281 4.05291483 33.72154903 7.20117283 C30.17072206 8.47086247 27.83992138 7.83667193 24.14342403 7.12304783 C20.750996 6.49855015 17.35419129 5.90231075 13.95592403 5.31054783 C13.06711544 5.13845798 12.17830685 4.96636814 11.26256466 4.78906345 C8.8348124 4.38231007 6.60451933 4.04637281 4.14342403 4.12304783 C1.62571942 5.88684986 1.62571942 5.88684986 0.14342403 8.12304783 C-0.51657597 8.12304783 -1.17657597 8.12304783 -1.85657597 8.12304783 C-2.23720817 5.79696213 -2.56927541 3.46249519 -2.85657597 1.12304783 C-1.85657597 0.12304783 -1.85657597 0.12304783 0 0 Z " fill="#A6B0AE" transform="translate(18.856575965881348,-0.1230478286743164)"/>
	

	

	<path d="M0 0 C0.495 0.515625 0.99 1.03125 1.5 1.5625 C1.995 2.036875 2.49 2.51125 3 3 C5.48051222 2.73740217 5.48051222 2.73740217 8 2 C9.32 2 10.64 2 12 2 C16.02384868 9.92680921 16.02384868 9.92680921 15.9375 13.8125 C14.86655757 16.31136567 13.86869282 18.01173347 12 20 C9.5480957 20.45410156 9.5480957 20.45410156 6.67578125 20.390625 C5.64775391 20.37773437 4.61972656 20.36484375 3.56054688 20.3515625 C2.48869141 20.31804687 1.41683594 20.28453125 0.3125 20.25 C-0.77095703 20.23195312 -1.85441406 20.21390625 -2.97070312 20.1953125 C-5.64802146 20.14813508 -8.32356909 20.08232249 -11 20 C-13.32500605 15.57437128 -13.72649 11.96139516 -13 7 C-9.87661729 1.75717902 -6.17932253 -0.79222084 0 0 Z " fill="#70B04B" transform="translate(61,108)"/>
	

	

	

	

	

	

	

	

	

	

	

	

	

	

	

	

	

</svg>
