<?xml version="1.0" encoding="iso-8859-1"?>
<svg height="128" version="1.1" width="128" xmlns="http://www.w3.org/2000/svg">
	

	<path d="M0 0 C42.24 0 84.48 0 128 0 C128 42.24 128 84.48 128 128 C85.76 128 43.52 128 0 128 C0 85.76 0 43.52 0 0 Z " fill="#C7600F" transform="translate(0,0)"/>
	

	<path d="M0 0 C16.19344212 -0.46349745 31.24977818 5.89842477 43.05859375 16.875 C51.06688328 25.32728095 55.27680659 35.53938769 55.0625 47.09765625 C54.58364507 51.67929295 53.02265348 55.16512085 50.74609375 59.125 C50.36066406 59.81335938 49.97523437 60.50171875 49.578125 61.2109375 C41.64350118 74.61505929 30.07492058 82.40528151 15.35546875 87.23828125 C2.49091003 90.3987302 -11.12801737 87.8355715 -22.56640625 81.375 C-32.97677132 74.54266548 -43.47825713 64.90116309 -46.8515625 52.48828125 C-48.89505521 40.48524157 -46.40396777 29.2595966 -39.56640625 19.1875 C-35.74190925 14.29669342 -31.64339031 11.12673796 -26.25390625 8.125 C-25.63386719 7.74859375 -25.01382812 7.3721875 -24.375 6.984375 C-16.17008062 2.06509448 -9.35687847 0.51892567 0 0 Z " fill="#FBFAF6" transform="translate(56.25390625,18.875)"/>
	

	

	<path d="M0 0 C7.77208737 5.00465526 14.63568536 11.48008892 17.28515625 20.57421875 C18.27143221 27.10242626 17.0250952 32.16347868 13.28515625 37.57421875 C7.29089285 45.04375423 -1.10158451 50.39872809 -10.71484375 51.57421875 C-21.58482649 52.47889081 -34.08745396 51.78251998 -43.55078125 45.7734375 C-50.65285584 39.69774246 -56.01635991 32.74415937 -57.08984375 23.26171875 C-56.24981572 15.00144312 -52.02646432 7.91828251 -45.71484375 2.57421875 C-30.67544026 -6.53017182 -16.02797123 -8.41756762 0 0 Z M-48.21484375 13.19921875 C-51.18088524 17.89545111 -51.36766978 23.1493264 -50.71484375 28.57421875 C-49.76759402 31.24816943 -48.42353062 33.32283573 -46.71484375 35.57421875 C-46.32554688 36.14527344 -45.93625 36.71632812 -45.53515625 37.3046875 C-43.26537646 40.13183925 -41.63390954 41.40820253 -38.01171875 42.0625 C-35.94605455 42.19756266 -33.8776786 42.29535629 -31.80859375 42.359375 C-28.74362409 42.57222012 -26.35505342 43.19567372 -23.46484375 44.19921875 C-17.64419456 46.06219723 -13.67977944 45.99828635 -8.13671875 43.3359375 C-1.14485568 39.38001497 3.25673456 35.14527298 6.28515625 27.57421875 C7.12202716 22.02994899 5.72719511 18.36704889 2.87890625 13.71484375 C-2.72097159 6.1934392 -10.78826936 3.51726311 -19.71484375 1.57421875 C-30.66970236 0.83151647 -40.76341994 5.37522375 -48.21484375 13.19921875 Z " fill="#CB6B1F" transform="translate(77.71484375,38.42578125)"/>
	

	

	

	

	

	

	

	

	

	

	

	

	

	

	

	

	

</svg>
