<?xml version="1.0" encoding="iso-8859-1"?>
<svg height="128" version="1.1" width="128" xmlns="http://www.w3.org/2000/svg">
	

	<path d="M0 0 C42.24 0 84.48 0 128 0 C128 42.24 128 84.48 128 128 C85.76 128 43.52 128 0 128 C0 85.76 0 43.52 0 0 Z " fill="#060505" transform="translate(0,0)"/>
	

	<path d="M0 0 C0.74403076 0.07001221 1.48806152 0.14002441 2.25463867 0.2121582 C9.88417461 1.06195549 16.64680606 3.36171875 22.75 8.1875 C25.75 12.3875 25.75 12.3875 25.75 15.1875 C26.41 15.1875 27.07 15.1875 27.75 15.1875 C28.23444764 17.18622739 28.7122766 19.18655937 29.1875 21.1875 C29.45433594 22.30125 29.72117187 23.415 29.99609375 24.5625 C31.36298495 31.13490951 31.89849271 37.4844282 31.84765625 44.1875 C31.8462413 44.9086499 31.84482635 45.6297998 31.84336853 46.37280273 C31.83783381 48.64441324 31.82529423 50.91592 31.8125 53.1875 C31.80747654 54.74088398 31.80291512 56.29426952 31.79882812 57.84765625 C31.78788589 61.62764328 31.7706676 65.40755414 31.75 69.1875 C32.68972656 69.13529297 32.68972656 69.13529297 33.6484375 69.08203125 C34.46570313 69.05496094 35.28296875 69.02789062 36.125 69 C37.34316406 68.94779297 37.34316406 68.94779297 38.5859375 68.89453125 C39.30007812 68.99121094 40.01421875 69.08789062 40.75 69.1875 C43.46232939 73.25599409 43.05699887 75.35226784 42.75 80.1875 C40.75 82.1875 40.75 82.1875 37.484375 82.234375 C36.16953125 82.13640625 34.8546875 82.0384375 33.5 81.9375 C32.19546875 81.84984375 30.8909375 81.7621875 29.546875 81.671875 C26.00685158 81.22026707 23.09965022 80.3659088 19.75 79.1875 C18.13280371 78.92538562 16.50657211 78.71082474 14.875 78.5625 C14.09382813 78.48773438 13.31265625 78.41296875 12.5078125 78.3359375 C11.63769531 78.26246094 11.63769531 78.26246094 10.75 78.1875 C10.42 77.1975 10.09 76.2075 9.75 75.1875 C10.37648437 75.01734375 11.00296875 74.8471875 11.6484375 74.671875 C12.46570313 74.42953125 13.28296875 74.1871875 14.125 73.9375 C14.93710938 73.70546875 15.74921875 73.4734375 16.5859375 73.234375 C18.83104774 72.36132984 18.83104774 72.36132984 19.96875 70.484375 C20.96228018 67.56339627 21.44137504 64.74352349 21.875 61.6875 C22.04257813 60.5634375 22.21015625 59.439375 22.3828125 58.28125 C23.43706131 48.48426638 22.57154448 38.99978163 21 29.3125 C20.84273438 28.22453125 20.68546875 27.1365625 20.5234375 26.015625 C19.58757115 20.126866 18.7377355 15.7159454 14.75 11.1875 C6.80620521 6.99895365 -1.08373534 6.87377826 -9.875 6.5 C-11.0196875 6.44005859 -12.164375 6.38011719 -13.34375 6.31835938 C-14.43945312 6.27130859 -15.53515625 6.22425781 -16.6640625 6.17578125 C-18.16380615 6.10677612 -18.16380615 6.10677612 -19.69384766 6.03637695 C-22.49478423 5.98623654 -22.49478423 5.98623654 -25.25 8.1875 C-25.58333707 11.18753365 -25.81021224 13.29704323 -25.25 16.1875 C-23.38633766 17.9813916 -23.38633766 17.9813916 -21.25 19.1875 C-20.62109375 21.265625 -20.62109375 21.265625 -20.25 23.1875 C-20.81847656 23.11789063 -21.38695313 23.04828125 -21.97265625 22.9765625 C-26.50391682 22.65884473 -29.52956499 22.83214989 -33.1875 25.6875 C-36.68170323 29.11699576 -37.69904228 32.41253306 -38.25 37.1875 C-38.415 38.13625 -38.58 39.085 -38.75 40.0625 C-37.58664795 47.33345032 -32.54163501 53.32491648 -27.25 58.1875 C-26.755 58.93 -26.26 59.6725 -25.75 60.4375 C-23.77867818 62.73737545 -22.1953512 62.86908365 -19.25 63.1875 C-18.26 60.2175 -17.27 57.2475 -16.25 54.1875 C-15.26 54.1875 -14.27 54.1875 -13.25 54.1875 C-12.3824864 59.82633841 -14.63047233 62.81483752 -17.7421875 67.234375 C-20.74054864 71.11826248 -20.74054864 71.11826248 -23.578125 71.50390625 C-28.9942455 70.86252356 -32.60066747 66.99902509 -36.25 63.1875 C-39.70705456 58.47357323 -42.5217855 53.34755513 -45.25 48.1875 C-45.83007812 47.11242187 -46.41015625 46.03734375 -47.0078125 44.9296875 C-49.34262491 39.77547897 -47.35605477 35.14172652 -45.5625 30.0625 C-43.22891183 24.550548 -40.67564725 21.70863578 -35.0859375 19.2265625 C-33.16300352 18.48592715 -31.20823986 17.82899237 -29.25 17.1875 C-30.2477758 14.19417261 -31.0022025 13.23983685 -33.25 11.1875 C-32.41292326 7.23040996 -31.79319694 4.74537794 -28.9375 1.8125 C-20.70457818 -3.16554575 -9.15888489 -0.93315516 0 0 Z " fill="#A6AEB2" transform="translate(61.25,21.8125)"/>
	

	<path d="M0 0 C2.375 0.3125 2.375 0.3125 5 1 C7.90492245 5.35738368 9.09574874 9.87590951 10 15 C10.66 15 11.32 15 12 15 C15.39888593 21.23129088 15.73821515 26.97257524 15 34 C14.22234784 36.51205214 13.16627034 38.6208085 12 41 C11.9071875 42.7015625 11.9071875 42.7015625 11.8125 44.4375 C10.61296461 49.69700134 7.23402457 52.77931341 3 56 C1.00390625 56.87109375 1.00390625 56.87109375 -1 57 C-3.140625 56.07421875 -3.140625 56.07421875 -5.25 54.6875 C-5.95640625 54.23761719 -6.6628125 53.78773437 -7.390625 53.32421875 C-7.92171875 52.88722656 -8.4528125 52.45023438 -9 52 C-9 51.34 -9 50.68 -9 50 C-9.87978516 49.89171875 -9.87978516 49.89171875 -10.77734375 49.78125 C-15.35738243 48.17139458 -17.67439125 43.03445022 -20 39 C-20.93045153 36.582263 -21.67838855 34.22854939 -22.296875 31.71484375 C-22.52890625 31.14894531 -22.7609375 30.58304688 -23 30 C-23.99 29.67 -24.98 29.34 -26 29 C-27.86558515 25.2688297 -27.58899088 20.82518685 -26.328125 16.91796875 C-25.60916165 15.25282251 -24.81112518 13.62225036 -24 12 C-23.34 12 -22.68 12 -22 12 C-22.15597656 12.58007812 -22.31195312 13.16015625 -22.47265625 13.7578125 C-22.66730469 14.53898437 -22.86195312 15.32015625 -23.0625 16.125 C-23.25972656 16.89070313 -23.45695312 17.65640625 -23.66015625 18.4453125 C-24.52542586 24.94975305 -21.89113507 29.61888243 -18.75 35.0625 C-18.36714844 35.75666016 -17.98429687 36.45082031 -17.58984375 37.16601562 C-15.18374463 41.40284233 -12.63345221 44.68714652 -9 48 C-8.195625 48.78310547 -8.195625 48.78310547 -7.375 49.58203125 C-5.12693281 51.59379592 -3.53456574 52.92363347 -0.51171875 53.35546875 C2.05221992 53.22057863 2.05221992 53.22057863 3.73046875 51.53125 C7.1726556 46.73249085 8.95957041 42.8264057 10 37 C6.91240441 37.64067976 6.91240441 37.64067976 6.05078125 39.84765625 C5.80714844 40.57855469 5.56351563 41.30945313 5.3125 42.0625 C5.06113281 42.79597656 4.80976562 43.52945313 4.55078125 44.28515625 C4.36902344 44.85105469 4.18726562 45.41695312 4 46 C1.8125 46.3125 1.8125 46.3125 -1 46 C-7.030365 41.2734977 -13.28735804 33.15796621 -16 26 C-16.11418382 20.14807924 -15.50771109 13.90476534 -11.59375 9.37109375 C-8.39128919 6.23413782 -6.13447168 4.61687927 -1.5625 4.625 C-0.386875 4.74875 0.78875 4.8725 2 5 C1.34 3.35 0.68 1.7 0 0 Z " fill="#3F4143" transform="translate(38,39)"/>
	

	<path d="M0 0 C3.64803957 1.55041682 5.18051863 2.77656806 7.5 6.0625 C8.01448195 9.07157091 8.19217054 11.99336899 8.3125 15.04296875 C8.48274418 17.78460942 8.92001426 20.06365814 9.6875 22.6875 C9.955625 23.80125 10.22375 24.915 10.5 26.0625 C9.84 26.7225 9.18 27.3825 8.5 28.0625 C7.73601301 30.11519032 7.1061896 32.18766357 6.4765625 34.28515625 C5.5 36.0625 5.5 36.0625 3.3984375 36.80859375 C2.77195312 36.89238281 2.14546875 36.97617188 1.5 37.0625 C1.09007812 36.33417969 0.68015625 35.60585937 0.2578125 34.85546875 C-1.49643027 32.0681719 -3.39816225 29.79493992 -5.625 27.375 C-9.57569784 23.06975236 -10.66282232 21.14175812 -10.75 15.25 C-10.77578125 14.21230469 -10.8015625 13.17460938 -10.828125 12.10546875 C-10.32807997 7.46814635 -8.36616649 4.92866649 -5.125 1.6875 C-2.5 0.0625 -2.5 0.0625 0 0 Z " fill="#060505" transform="translate(35.5,45.9375)"/>
	

	<path d="M0 0 C3.9657967 0.0695619 7.93072114 0.15784429 11.89575195 0.26245117 C13.89708611 0.31150935 15.89875306 0.34633137 17.90039062 0.38085938 C34.81654161 0.84956885 34.81654161 0.84956885 39.69433594 5.67675781 C41.92549917 8.4462031 42.93330027 10.37302253 43.3125 13.9375 C43.1578125 14.9584375 43.1578125 14.9584375 43 16 C43.66 16 44.32 16 45 16 C48.70363972 31.30837752 51.01360544 51.72648468 46 67 C43.41796875 69.3828125 43.41796875 69.3828125 41 71 C42.66342837 72.66342837 44.7825709 72.36048097 47.0625 72.5625 C48.44115234 72.68818359 48.44115234 72.68818359 49.84765625 72.81640625 C50.55792969 72.87699219 51.26820312 72.93757813 52 73 C52 73.66 52 74.32 52 75 C53.47906892 75.02689216 54.95827483 75.04634621 56.4375 75.0625 C57.26121094 75.07410156 58.08492187 75.08570312 58.93359375 75.09765625 C60.99163938 75.23267348 60.99163938 75.23267348 62 74 C62.04092937 71.66702567 62.04241723 69.33294775 62 67 C60.72125 67.04125 59.4425 67.0825 58.125 67.125 C55.9453125 67.1953125 55.9453125 67.1953125 54 67 C51.18633845 64.18633845 51.68457353 61.48664389 51.65625 57.71875 C51.6416272 56.9906311 51.62700439 56.26251221 51.61193848 55.5123291 C51.56537799 53.17494271 51.53127757 50.83763777 51.5 48.5 C51.40526138 35.64303254 51.40526138 35.64303254 49.43652344 22.96777344 C48.86978495 20.41301268 48.8004369 17.98470841 48.875 15.375 C48.89304688 14.53710938 48.91109375 13.69921875 48.9296875 12.8359375 C48.95289063 12.23007812 48.97609375 11.62421875 49 11 C57.52414076 26.00990004 54.28689965 48.37011938 54 65 C54.93972656 64.94779297 54.93972656 64.94779297 55.8984375 64.89453125 C56.71570313 64.86746094 57.53296875 64.84039062 58.375 64.8125 C59.18710938 64.77769531 59.99921875 64.74289063 60.8359375 64.70703125 C61.55007812 64.80371094 62.26421875 64.90039062 63 65 C65.71232939 69.06849409 65.30699887 71.16476784 65 76 C63 78 63 78 59.734375 78.046875 C58.41953125 77.94890625 57.1046875 77.8509375 55.75 77.75 C54.44546875 77.66234375 53.1409375 77.5746875 51.796875 77.484375 C48.25685158 77.03276707 45.34965022 76.1784088 42 75 C40.38280371 74.73788562 38.75657211 74.52332474 37.125 74.375 C36.34382813 74.30023438 35.56265625 74.22546875 34.7578125 74.1484375 C33.88769531 74.07496094 33.88769531 74.07496094 33 74 C32.67 73.01 32.34 72.02 32 71 C32.62648437 70.82984375 33.25296875 70.6596875 33.8984375 70.484375 C34.71570313 70.24203125 35.53296875 69.9996875 36.375 69.75 C37.18710938 69.51796875 37.99921875 69.2859375 38.8359375 69.046875 C41.08104774 68.17382984 41.08104774 68.17382984 42.21875 66.296875 C43.21228018 63.37589627 43.69137504 60.55602349 44.125 57.5 C44.29257813 56.3759375 44.46015625 55.251875 44.6328125 54.09375 C45.68706131 44.29676638 44.82154448 34.81228163 43.25 25.125 C43.01410156 23.49304687 43.01410156 23.49304687 42.7734375 21.828125 C41.83757115 15.939366 40.9877355 11.5284454 37 7 C29.79063795 3.19870001 22.96939063 2.81184572 15 2.5 C4.32989691 2.08247423 4.32989691 2.08247423 0 1 C0 0.67 0 0.34 0 0 Z " fill="#A5AEB2" transform="translate(39,26)"/>
	

	<path d="M0 0 C9.61144494 -0.75769055 17.31958501 -0.32657913 25 6 C28.84714134 10.67396923 29.86471725 14.80999551 30.6875 20.625 C31.3923365 25.7700908 31.3923365 25.7700908 32.52783203 30.82226562 C33.58347193 35.6910908 33.18588876 40.82826689 33.18530273 45.78955078 C33.18748547 47.86121279 33.2056516 49.93233858 33.22460938 52.00390625 C33.22654297 53.32003906 33.22847656 54.63617188 33.23046875 55.9921875 C33.23457764 57.19214355 33.23868652 58.39209961 33.24291992 59.62841797 C32.99536602 63.06431686 32.23239765 65.79643772 31 69 C35.05767064 69.8492799 37.97469488 69.92006974 42 69 C43 70 43 70 43.0625 72.5625 C43.041875 73.366875 43.02125 74.17125 43 75 C39.8742604 74.89037184 36.74975219 74.75968759 33.625 74.625 C32.73554687 74.5940625 31.84609375 74.563125 30.9296875 74.53125 C30.07890625 74.49257812 29.228125 74.45390625 28.3515625 74.4140625 C27.17327881 74.36693115 27.17327881 74.36693115 25.97119141 74.31884766 C24 74 24 74 22 72 C22.79792969 71.46632813 23.59585938 70.93265625 24.41796875 70.3828125 C29.43431072 65.75351053 28.78132275 58.38676733 29.10498047 51.89404297 C29.53464691 40.15427475 28.44525473 28.63946219 27 17 C26.34 17 25.68 17 25 17 C24.4140625 14.50976562 24.4140625 14.50976562 23.828125 12.01953125 C22.58569142 8.98963427 21.40223928 7.28361018 19 5 C15.81645932 3.83218518 12.58603456 3.25664622 9.25 2.6875 C8.36183594 2.51927734 7.47367187 2.35105469 6.55859375 2.17773438 C4.37508619 1.7668593 2.18989438 1.375056 0 1 C0 0.67 0 0.34 0 0 Z " fill="#DCE4E7" transform="translate(57,25)"/>
	

	<path d="M0 0 C1.59811523 0.061875 1.59811523 0.061875 3.22851562 0.125 C4.33775391 0.18429688 5.44699219 0.24359375 6.58984375 0.3046875 C8.2130957 0.35882812 8.2130957 0.35882812 9.86914062 0.4140625 C18.06886589 0.78789521 26.96568755 1.28584183 33.52734375 6.6171875 C43.05697127 20.65360638 41.38048423 44.10352952 39.2578125 60.05078125 C38.50515471 63.27473254 37.38293151 65.45985339 35.52734375 68.1796875 C34.53734375 67.6846875 34.53734375 67.6846875 33.52734375 67.1796875 C33.74390625 66.56867188 33.96046875 65.95765625 34.18359375 65.328125 C39.43387245 48.07026446 37.96859788 25.87206537 31.72363281 9.00952148 C29.71434742 5.93613496 27.02247485 5.66028909 23.60253906 4.75146484 C17.74045215 3.66151505 11.85028031 3.59938512 5.90234375 3.4921875 C4.61199219 3.45802734 3.32164063 3.42386719 1.9921875 3.38867188 C-1.16267342 3.30687918 -4.31728035 3.23750518 -7.47265625 3.1796875 C-7.14265625 6.1496875 -6.81265625 9.1196875 -6.47265625 12.1796875 C-7.46265625 11.8496875 -8.45265625 11.5196875 -9.47265625 11.1796875 C-9.86328125 5.22265625 -9.86328125 5.22265625 -9.47265625 3.1796875 C-6.36347436 0.19232815 -4.23863141 -0.17067356 0 0 Z " fill="#404244" transform="translate(44.47265625,26.8203125)"/>
	

	<path d="M0 0 C5.28 0 10.56 0 16 0 C16 5.28 16 10.56 16 16 C6.96350365 16 6.96350365 16 3.5625 14.125 C2.90378906 13.77695313 2.24507813 13.42890625 1.56640625 13.0703125 C0 12 0 12 -1 10 C-1.13357453 6.32670036 -1.1671568 3.50147041 0 0 Z " fill="#393A3D" transform="translate(112,0)"/>
	

	<path d="M0 0 C1.24813477 0.10501831 1.24813477 0.10501831 2.52148438 0.2121582 C10.001131 0.96902721 15.76942412 3.0052592 21.4375 8.1875 C23.5894437 11.41541555 23.63836443 12.47150809 23.4375 16.1875 C23.045625 15.630625 22.65375 15.07375 22.25 14.5 C16.73033194 7.45766488 11.48326145 4.15524361 2.5625 3.0625 C1.33015625 2.9078125 0.0978125 2.753125 -1.171875 2.59375 C-2.29078125 2.4596875 -3.4096875 2.325625 -4.5625 2.1875 C-5.31015625 2.0740625 -6.0578125 1.960625 -6.828125 1.84375 C-14.90297621 0.62234393 -23.9186147 -0.06521715 -31.5625 3.1875 C-34.99341225 6.27532103 -35.13395008 9.73058084 -35.5625 14.1875 C-34.2425 14.8475 -32.9225 15.5075 -31.5625 16.1875 C-32.2890625 18.09375 -32.2890625 18.09375 -33.5625 20.1875 C-35.5859375 21.09375 -35.5859375 21.09375 -37.9375 21.6875 C-43.28975213 23.26826146 -45.48461483 25.57067225 -48.5625 30.1875 C-48.8785107 27.08631022 -48.94171874 25.67399153 -46.98828125 23.16796875 C-46.29089844 22.57628906 -45.59351563 21.98460938 -44.875 21.375 C-44.19050781 20.77042969 -43.50601563 20.16585937 -42.80078125 19.54296875 C-40.16989255 17.94974296 -38.58516309 17.91752484 -35.5625 18.1875 C-36.0575 17.424375 -36.5525 16.66125 -37.0625 15.875 C-38.5625 13.1875 -38.5625 13.1875 -38.5625 10.1875 C-37.9025 10.1875 -37.2425 10.1875 -36.5625 10.1875 C-36.500625 9.28 -36.43875 8.3725 -36.375 7.4375 C-35.36132474 3.38279894 -34.05102714 2.37797053 -30.5625 0.1875 C-21.49642187 -2.92320852 -9.39854142 -0.86130073 0 0 Z " fill="#585B5E" transform="translate(64.5625,20.8125)"/>
	

	<path d="M0 0 C1.125 1.625 1.125 1.625 2 4 C1.33333333 6 0.66666667 8 0 10 C0.30386687 15.53566168 2.01412688 19.30048659 5.0625 23.8125 C9 29.78269231 9 29.78269231 9 32 C9.78375 32.268125 10.5675 32.53625 11.375 32.8125 C14 34 14 34 16 37 C18.05003955 38.19232613 18.05003955 38.19232613 20 39 C20 39.99 20 40.98 20 42 C17 43 17 43 15.01953125 42.28125 C6.37257799 36.79536863 -1.43714184 24.77089672 -4 15 C-3.78371953 10.89067107 -3.1055189 3.1055189 0 0 Z " fill="#DCE4E7" transform="translate(20,49)"/>
	

	

	<path d="M0 0 C8.52414076 15.00990004 5.28689965 37.37011938 5 54 C5.93972656 53.94779297 5.93972656 53.94779297 6.8984375 53.89453125 C7.71570313 53.86746094 8.53296875 53.84039062 9.375 53.8125 C10.18710938 53.77769531 10.99921875 53.74289063 11.8359375 53.70703125 C12.55007812 53.80371094 13.26421875 53.90039062 14 54 C16.71232939 58.06849409 16.30699887 60.16476784 16 65 C14 67 14 67 10.69921875 67.01171875 C9.36114443 66.91452529 8.02385807 66.80597598 6.6875 66.6875 C5.37136719 66.58824219 4.05523437 66.48898438 2.69921875 66.38671875 C-0.26903619 66.07641544 -3.09364392 65.65772468 -6 65 C-6 64.67 -6 64.34 -6 64 C-5.42967041 64.03552979 -4.85934082 64.07105957 -4.27172852 64.10766602 C-1.70228336 64.26470077 0.86756512 64.41370463 3.4375 64.5625 C4.33533203 64.61857422 5.23316406 64.67464844 6.15820312 64.73242188 C7.43920898 64.80493164 7.43920898 64.80493164 8.74609375 64.87890625 C9.53685303 64.9260376 10.3276123 64.97316895 11.14233398 65.02172852 C13.01674312 65.21618627 13.01674312 65.21618627 14 64 C14.24733137 59.85723125 14.24733137 59.85723125 13 56 C11.72125 56.04125 10.4425 56.0825 9.125 56.125 C6.9453125 56.1953125 6.9453125 56.1953125 5 56 C2.18633845 53.18633845 2.68457353 50.48664389 2.65625 46.71875 C2.6416272 45.9906311 2.62700439 45.26251221 2.61193848 44.5123291 C2.56537799 42.17494271 2.53127757 39.83763777 2.5 37.5 C2.40526138 24.64303254 2.40526138 24.64303254 0.43652344 11.96777344 C-0.13021505 9.41301268 -0.1995631 6.98470841 -0.125 4.375 C-0.10695313 3.53710938 -0.08890625 2.69921875 -0.0703125 1.8359375 C-0.03550781 0.92714844 -0.03550781 0.92714844 0 0 Z " fill="#666A6D" transform="translate(88,37)"/>
	

	<path d="M0 0 C2.375 0.3125 2.375 0.3125 5 1 C7.01503575 4.02255362 7.89958143 6.56119198 9 10 C9.33 10.804375 9.66 11.60875 10 12.4375 C12.62094943 19.15368292 13.25830999 24.86777417 13 32 C12.01 32 11.02 32 10 32 C7.67785992 26.92369378 5.84101511 22.43753343 5.625 16.8125 C5.3085702 11.3989847 2.88816648 8.59090604 -1 5 C-0.01 5 0.98 5 2 5 C1.34 3.35 0.68 1.7 0 0 Z " fill="#868D90" transform="translate(38,39)"/>
	

	<path d="M0 0 C0.66 0.33 1.32 0.66 2 1 C1.67 1.33 1.34 1.66 1 2 C0.67003612 6.03076802 0.67003612 6.03076802 1 10 C2.86366234 11.7938916 2.86366234 11.7938916 5 13 C5.62890625 15.078125 5.62890625 15.078125 6 17 C5.43152344 16.93039063 4.86304687 16.86078125 4.27734375 16.7890625 C-0.40951395 16.46043475 -3.2597908 16.66196569 -6.9375 19.75 C-9.28978216 21.95213649 -10.67900307 24.06445127 -12 27 C-12.56638908 22.18569279 -10.82561627 19.79692186 -8 16 C-12.06815373 17.84916079 -15.0094833 19.66442368 -18 23 C-17.75873283 19.74289315 -16.79730672 18.79730672 -14.4375 16.4375 C-10.92250276 13.66655327 -7.22957311 12.38554981 -3 11 C-3.33 9.68 -3.66 8.36 -4 7 C-3.01 7 -2.02 7 -1 7 C-1.020625 6.030625 -1.04125 5.06125 -1.0625 4.0625 C-1 1 -1 1 0 0 Z " fill="#868D90" transform="translate(35,28)"/>
	

	<path d="M0 0 C2.41416761 0.84606608 3.92767857 1.91172423 5.87890625 3.55859375 C6.4925 4.06003906 7.10609375 4.56148438 7.73828125 5.078125 C9.12890625 6.74609375 9.12890625 6.74609375 9.12890625 10.74609375 C5.52317921 11.94800276 2.91866275 12.0727969 -0.87109375 11.74609375 C-3.80859375 9.74609375 -3.80859375 9.74609375 -5.87109375 7.74609375 C-5.50396403 5.0293338 -5.14364776 3.13545662 -3.55859375 0.87109375 C-1.87109375 -0.25390625 -1.87109375 -0.25390625 0 0 Z " fill="#DAE2E5" transform="translate(118.87109375,1.25390625)"/>
	

	<path d="M0 0 C3.9657967 0.0695619 7.93072114 0.15784429 11.89575195 0.26245117 C13.89708611 0.31150935 15.89875306 0.34633137 17.90039062 0.38085938 C34.51307355 0.84116041 34.51307355 0.84116041 39.59057617 5.44091797 C43.13459637 9.83141352 44.05548314 14.45081685 44.75 19.9375 C44.86214844 20.69740234 44.97429687 21.45730469 45.08984375 22.24023438 C45.41659684 24.49098657 45.71077643 26.74415604 46 29 C46.09716309 29.68642578 46.19432617 30.37285156 46.29443359 31.08007812 C46.91742171 35.61851902 47.13447929 40.04650094 47.125 44.625 C47.12886719 46.50058594 47.12886719 46.50058594 47.1328125 48.4140625 C47.01093566 51.70473728 46.62580776 54.77162664 46 58 C45.67 58 45.34 58 45 58 C45.04640625 56.84628906 45.0928125 55.69257812 45.140625 54.50390625 C45.41437641 44.3814214 44.80215793 34.63818579 43.25 24.625 C43.01458496 23.0308728 43.01458496 23.0308728 42.77441406 21.40454102 C41.81765004 15.66349778 40.85651562 11.43753493 37 7 C29.79063795 3.19870001 22.96939063 2.81184572 15 2.5 C4.32989691 2.08247423 4.32989691 2.08247423 0 1 C0 0.67 0 0.34 0 0 Z " fill="#8F969A" transform="translate(39,26)"/>
	

	<path d="M0 0 C1.62418745 -0.08090971 3.24951745 -0.13914995 4.875 -0.1875 C5.77992187 -0.22230469 6.68484375 -0.25710937 7.6171875 -0.29296875 C8.79667969 -0.14794922 8.79667969 -0.14794922 10 0 C12.24234009 3.36351013 12.27098215 4.62310056 12.25 8.5625 C12.25773437 10.01849609 12.25773437 10.01849609 12.265625 11.50390625 C12 14 12 14 10 16 C3.44931329 16.70482072 -2.94117231 16.03770127 -9.33203125 14.578125 C-14.5067767 13.45680388 -19.7635745 12.77151097 -25 12 C-26.125 8.25 -26.125 8.25 -25 6 C-21.7 6 -18.4 6 -15 6 C-15 6.33 -15 6.66 -15 7 C-17.31 7.33 -19.62 7.66 -22 8 C-21.67 8.66 -21.34 9.32 -21 10 C-19.07530912 10.39368517 -19.07530912 10.39368517 -16.8125 10.5 C-14.02039602 10.69026262 -11.84488617 11.05450528 -9.1875 11.98828125 C-5.4690685 13.1685187 -2.0778457 13.45461375 1.8125 13.6875 C2.49248047 13.73455078 3.17246094 13.78160156 3.87304688 13.83007812 C5.57981605 13.93387964 7.2902969 13.97259416 9 14 C10.89885096 12.10114904 10.12367506 9.42752097 10.1328125 6.91015625 C10.11686861 4.91365633 10.11686861 4.91365633 9 3 C6.87423218 2.53348793 6.87423218 2.53348793 4.4375 2.375 C3.61121094 2.30023438 2.78492187 2.22546875 1.93359375 2.1484375 C1.29550781 2.09945312 0.65742187 2.05046875 0 2 C0 1.34 0 0.68 0 0 Z " fill="#2B2C2E" transform="translate(93,89)"/>
	

	<path d="M0 0 C4.25925249 6.38887874 4.84181556 11.32577443 4 19 C2.94894031 21.99780503 1.67742817 24.27417923 0 27 C-0.33 27 -0.66 27 -1 27 C-1 25.35 -1 23.7 -1 22 C-2.65 22.33 -4.3 22.66 -6 23 C-5.49396008 20.83125748 -5.00016187 19.00032373 -4 17 C-4.50187183 15.36055201 -5.00537529 13.72157459 -5.51953125 12.0859375 C-6.3634351 8.42215981 -6.15251367 4.73658495 -6 1 C-5.67 1 -5.34 1 -5 1 C-4.731875 2.155 -4.46375 3.31 -4.1875 4.5 C-3.11614878 8.81623514 -1.62527763 12.86292967 0 17 C0.33 17 0.66 17 1 17 C1.10477512 11.21408489 0.99250545 5.70690634 0 0 Z " fill="#303133" transform="translate(49,54)"/>
	

	<path d="M0 0 C1.07310858 3.27185553 0.89263102 5.42947592 0.0625 8.75 C-0.22947266 9.94882812 -0.22947266 9.94882812 -0.52734375 11.171875 C-0.68332031 11.77515625 -0.83929688 12.3784375 -1 13 C-0.34 13 0.32 13 1 13 C1.20753906 13.53367187 1.41507813 14.06734375 1.62890625 14.6171875 C5.47437657 23.91711153 11.34238855 31.53048472 18 39 C14.41958697 39 13.15567386 37.8865715 10.52490234 35.57763672 C7.92343999 32.88621025 6.1459592 29.80581495 4.3125 26.5625 C3.93544922 25.91990234 3.55839844 25.27730469 3.16992188 24.61523438 C-3.6141499 12.95326109 -3.6141499 12.95326109 -2 6 C-1.37743972 3.98583438 -0.72433347 1.97984481 0 0 Z " fill="#9AA2A5" transform="translate(16,51)"/>
	

	<path d="M0 0 C0.99 0 1.98 0 3 0 C3.8675136 5.63883841 1.61952767 8.62733752 -1.4921875 13.046875 C-3 15 -3 15 -5 17 C-7.625 17.125 -7.625 17.125 -10 17 C-10.33 16.34 -10.66 15.68 -11 15 C-9.02 15 -7.04 15 -5 15 C-5.34444881 12.52733235 -5.34444881 12.52733235 -6 10 C-6.66 9.67 -7.32 9.34 -8 9 C-6.35 9 -4.7 9 -3 9 C-2.01 6.03 -1.02 3.06 0 0 Z " fill="#8E9699" transform="translate(45,76)"/>
	

	<path d="M0 0 C0 3.63 0 7.26 0 11 C-3.3 11 -6.6 11 -10 11 C-9.34 9.68 -8.68 8.36 -8 7 C-7.67 6.01 -7.34 5.02 -7 4 C-2.54285714 0 -2.54285714 0 0 0 Z " fill="#DDE5E8" transform="translate(128,117)"/>
	

	<path d="M0 0 C-0.268125 0.639375 -0.53625 1.27875 -0.8125 1.9375 C-3.26054973 8.2508914 -5.28148778 14.24598517 -6 21 C-6.66 20.67 -7.32 20.34 -8 20 C-7.54713018 16.70051985 -7.09773702 13.43981657 -6.375 10.1875 C-5.77160584 7.9635304 -5.77160584 7.9635304 -7 6 C-8.32 10.62 -9.64 15.24 -11 20 C-11.33 20 -11.66 20 -12 20 C-11.56295712 13.3539342 -10.79274033 7.49092541 -6.5 2.125 C-4.42804138 0.57103103 -2.58194418 0 0 0 Z " fill="#BAC3C7" transform="translate(27,44)"/>
	

	<path d="M0 0 C0.33 0 0.66 0 1 0 C3.01167675 5.78357065 3.22084624 10.90218999 3 17 C2.01 17 1.02 17 0 17 C-4.59225513 6.62642369 -4.59225513 6.62642369 -4 1 C-3.01 1.99 -2.02 2.98 -1 4 C-0.67 2.68 -0.34 1.36 0 0 Z " fill="#585B5E" transform="translate(48,54)"/>
	

	<path d="M0 0 C0.33 0.66 0.66 1.32 1 2 C1.66 2 2.32 2 3 2 C3 2.66 3 3.32 3 4 C4.32 4.66 5.64 5.32 7 6 C6.2734375 7.90625 6.2734375 7.90625 5 10 C2.9765625 10.90625 2.9765625 10.90625 0.625 11.5 C-4.72725213 13.08076146 -6.92211483 15.38317225 -10 20 C-10.3160107 16.89881022 -10.37921874 15.48649153 -8.42578125 12.98046875 C-7.72839844 12.38878906 -7.03101563 11.79710937 -6.3125 11.1875 C-5.62800781 10.58292969 -4.94351562 9.97835937 -4.23828125 9.35546875 C-1.60739255 7.76224296 -0.02266309 7.73002484 3 8 C2.505 7.236875 2.01 6.47375 1.5 5.6875 C0 3 0 3 0 0 Z " fill="#3F4144" transform="translate(26,31)"/>
	

	<path d="M0 0 C1.75763672 0.08701172 1.75763672 0.08701172 3.55078125 0.17578125 C4.73027344 0.22089844 5.90976563 0.26601562 7.125 0.3125 C8.48044922 0.39951172 8.48044922 0.39951172 9.86328125 0.48828125 C9.86328125 3.12828125 9.86328125 5.76828125 9.86328125 8.48828125 C7.25947406 7.37236388 5.80228589 6.42156758 3.86328125 4.30078125 C2.05712619 2.28423663 2.05712619 2.28423663 -0.19921875 2.36328125 C-3.10870154 4.05265835 -3.85156649 6.46817344 -5.13671875 9.48828125 C-6.26582358 6.71684212 -6.2175706 5.68803289 -5.07421875 2.86328125 C-3.13671875 0.48828125 -3.13671875 0.48828125 0 0 Z " fill="#585B5E" transform="translate(118.13671875,-0.48828125)"/>
	

	<path d="M0 0 C0.66 0 1.32 0 2 0 C1.84402344 0.58007812 1.68804688 1.16015625 1.52734375 1.7578125 C-0.26350562 8.94492983 -0.10348185 13.22775321 3.625 19.75 C4.09164063 20.50796875 4.55828125 21.2659375 5.0390625 22.046875 C5.35617188 22.69140625 5.67328125 23.3359375 6 24 C5.67 24.66 5.34 25.32 5 26 C1 20.25 1 20.25 1 18 C0.01 17.67 -0.98 17.34 -2 17 C-3.86558515 13.2688297 -3.58899088 8.82518685 -2.328125 4.91796875 C-1.60916165 3.25282251 -0.81112518 1.62225036 0 0 Z " fill="#46484A" transform="translate(14,51)"/>
	

	

	<path d="M0 0 C1.11503906 0.05478516 2.23007812 0.10957031 3.37890625 0.16601562 C4.53777344 0.23884766 5.69664063 0.31167969 6.890625 0.38671875 C8.65212891 0.47856445 8.65212891 0.47856445 10.44921875 0.57226562 C13.34743336 0.72542331 16.24403502 0.8932611 19.140625 1.07421875 C19.140625 1.40421875 19.140625 1.73421875 19.140625 2.07421875 C5.775625 2.56921875 5.775625 2.56921875 -7.859375 3.07421875 C-7.529375 6.04421875 -7.199375 9.01421875 -6.859375 12.07421875 C-7.849375 11.74421875 -8.839375 11.41421875 -9.859375 11.07421875 C-10.25 5.1171875 -10.25 5.1171875 -9.859375 3.07421875 C-6.64960508 -0.06749951 -4.39152174 -0.24646295 0 0 Z " fill="#4A4C4F" transform="translate(44.859375,26.92578125)"/>
	

	<path d="M0 0 C3.85402129 -0.08770383 7.70778291 -0.14062735 11.5625 -0.1875 C12.64853516 -0.21263672 13.73457031 -0.23777344 14.85351562 -0.26367188 C21.92429031 -0.32814702 27.25639021 -0.01904016 32.9375 4.5625 C34 6 34 6 34 8 C33.01 7.67 32.02 7.34 31 7 C30.67 6.34 30.34 5.68 30 5 C21.10506152 0.40977249 9.74613365 1.25677586 0 1 C0 0.67 0 0.34 0 0 Z " fill="#303234" transform="translate(45,29)"/>
	

	<path d="M0 0 C7.63833377 0.03130465 12.50327026 1.58410452 18 7 C20.1519437 10.22791555 20.20086443 11.28400809 20 15 C19.608125 14.443125 19.21625 13.88625 18.8125 13.3125 C13.51496817 6.55358008 8.12581892 3.51513443 0 1 C0 0.67 0 0.34 0 0 Z " fill="#3F4144" transform="translate(68,22)"/>
	

	<path d="M0 0 C4.58077119 0.70473403 8.49678195 2.97572785 11.2734375 6.71484375 C13.00174874 9.61374878 14 11.58906781 14 15 C13.34 15 12.68 15 12 15 C11.505 13.783125 11.01 12.56625 10.5 11.3125 C8.38401107 6.980856 5.81600801 5.20324506 1.609375 3.0078125 C1.07828125 2.67523437 0.5471875 2.34265625 0 2 C0 1.34 0 0.68 0 0 Z " fill="#9EA6AA" transform="translate(74,25)"/>
	

	<path d="M0 0 C-1.37686937 2.9655648 -3.04351066 5.39134755 -5 8 C-5.69580267 9.31836295 -6.37224433 10.64791086 -7 12 C-7.56638908 7.18569279 -5.82561627 4.79692186 -3 1 C-7.06815373 2.84916079 -10.0094833 4.66442368 -13 8 C-12.62951193 5.4065835 -11.94398898 3.91934413 -10.4375 1.75 C-6.86856177 -0.81231463 -4.32918986 -0.28861266 0 0 Z " fill="#99A0A4" transform="translate(30,43)"/>
	

	<path d="M0 0 C3.3 0 6.6 0 10 0 C10 0.33 10 0.66 10 1 C7.69 1.33 5.38 1.66 3 2 C3.33 2.66 3.66 3.32 4 4 C6.12576782 4.46651207 6.12576782 4.46651207 8.5625 4.625 C9.38878906 4.69976562 10.21507813 4.77453125 11.06640625 4.8515625 C11.70449219 4.90054688 12.34257813 4.94953125 13 5 C13 5.33 13 5.66 13 6 C8.71 6 4.42 6 0 6 C-1 2 -1 2 0 0 Z " fill="#46484A" transform="translate(68,95)"/>
	

	<path d="M0 0 C4.1691675 1.19119072 7.26214609 4.13967664 9.625 7.75 C9.3203125 9.984375 9.3203125 9.984375 8.625 11.75 C8.3775 11.1725 8.13 10.595 7.875 10 C6.39679527 7.33923149 5.04185961 5.61443456 2.625 3.75 C0.12917589 3.84871362 0.12917589 3.84871362 -2.375 4.75 C-4.04166667 5.08333333 -5.70833333 5.41666667 -7.375 5.75 C-3.23863636 1.02272727 -3.23863636 1.02272727 0 0 Z " fill="#45474A" transform="translate(34.375,43.25)"/>
	

	

	<path d="M0 0 C2.96175123 0.61277612 4.38058783 1.25372522 7 3 C6.67 3.66 6.34 4.32 6 5 C5.071875 4.9175 4.14375 4.835 3.1875 4.75 C-0.09105222 4.64696955 -0.09105222 4.64696955 -1.875 7 C-2.24625 7.66 -2.6175 8.32 -3 9 C-3.75 7.3125 -3.75 7.3125 -4 5 C-2.0625 2.25 -2.0625 2.25 0 0 Z " fill="#959DA0" transform="translate(117,1)"/>
	

	<path d="M0 0 C1.32 0.66 2.64 1.32 4 2 C4 3.32 4 4.64 4 6 C0.44646071 7.1845131 -2.27013478 7.26641894 -6 7 C-7.9375 5.5 -7.9375 5.5 -9 4 C-6.36 4 -3.72 4 -1 4 C-0.67 2.68 -0.34 1.36 0 0 Z " fill="#969DA1" transform="translate(124,6)"/>
	

	<path d="M0 0 C-1 3 -1 3 -2.5 4.375 C-4.43309736 6.46918881 -4.62452796 8.22150692 -5 11 C-6.65 11 -8.3 11 -10 11 C-9.690625 10.401875 -9.38125 9.80375 -9.0625 9.1875 C-7.89790296 6.91043228 -7.89790296 6.91043228 -7 4 C-2.54285714 0 -2.54285714 0 0 0 Z " fill="#A2AAAD" transform="translate(128,117)"/>
	

	<path d="M0 0 C0.70726683 2.50758239 0.99003915 4.10956934 0.75 6.75 C1.06533139 10.84930813 2.65237951 12.97731118 5.00390625 16.265625 C5.33261719 16.83796875 5.66132813 17.4103125 6 18 C5.67 18.66 5.34 19.32 5 20 C1.62815627 16.97696769 -0.5583029 14.32509129 -2 10 C-1.65619247 6.57218765 -0.91155704 3.31832994 0 0 Z " fill="#969DA1" transform="translate(22,55)"/>
	

	<path d="M0 0 C1.6259168 3.2518336 0.90933773 6.59866041 0 10 C-1.875 12.0625 -1.875 12.0625 -4 13 C-4.99 12.67 -5.98 12.34 -7 12 C-6.54625 11.67 -6.0925 11.34 -5.625 11 C-3.86481744 8.83362147 -3.53824103 7.55670794 -2.9375 4.875 C-2.628125 3.59625 -2.31875 2.3175 -2 1 C-1.34 0.67 -0.68 0.34 0 0 Z " fill="#A0A8AC" transform="translate(85,83)"/>
	

	<path d="M0 0 C2.375 0.3125 2.375 0.3125 5 1 C7.69195459 5.03793188 8.91495658 9.29814518 10 14 C6.63878097 10.98649329 4.93947458 8.04759913 3 4 C2.03465478 2.64136599 1.04722851 1.29656863 0 0 Z " fill="#494B4E" transform="translate(38,39)"/>
	

	<path d="M0 0 C0.33 0 0.66 0 1 0 C1.27429625 5.39449293 1.36055646 8.51925805 -2 13 C-2.66 12.67 -3.32 12.34 -4 12 C-3.52494322 10.18641846 -3.04483958 8.37415821 -2.5625 6.5625 C-2.29566406 5.55316406 -2.02882813 4.54382813 -1.75390625 3.50390625 C-1 1 -1 1 0 0 Z " fill="#414346" transform="translate(82,82)"/>
	

	<path d="M0 0 C1.98 0 3.96 0 6 0 C6.66 1.65 7.32 3.3 8 5 C5.36 4.34 2.72 3.68 0 3 C0 2.01 0 1.02 0 0 Z " fill="#B0B9BD" transform="translate(33,40)"/>
	

	<path d="M0 0 C0.268125 0.639375 0.53625 1.27875 0.8125 1.9375 C1.88667752 4.33131686 1.88667752 4.33131686 5 5 C6.99961564 5.03920815 9.00049364 5.04443347 11 5 C11 5.99 11 6.98 11 8 C9.9171875 7.7525 9.9171875 7.7525 8.8125 7.5 C6.02484197 6.91977639 6.02484197 6.91977639 3.25 7 C2.5075 7 1.765 7 1 7 C0 6 0 6 -0.0625 2.9375 C-0.041875 1.968125 -0.02125 0.99875 0 0 Z " fill="#868D90" transform="translate(90,87)"/>
	

	<path d="M0 0 C1.98 0 3.96 0 6 0 C6 1.98 6 3.96 6 6 C2.26360784 4.75453595 1.81243487 3.36595047 0 0 Z " fill="#2B2C2E" transform="translate(122,0)"/>
	

	<path d="M0 0 C-0.99 0.33 -1.98 0.66 -3 1 C-3 1.66 -3 2.32 -3 3 C-1.35 3 0.3 3 2 3 C2 3.33 2 3.66 2 4 C-0.64 4 -3.28 4 -6 4 C-6.33 3.01 -6.66 2.02 -7 1 C-4.53721199 -0.231394 -2.7204945 -0.07159196 0 0 Z " fill="#868D90" transform="translate(78,96)"/>
	

	

	<path d="M0 0 C0 3 0 3 -2 6 C-2.99 6 -3.98 6 -5 6 C-4.75 4.125 -4.75 4.125 -4 2 C-1.9375 0.75 -1.9375 0.75 0 0 Z " fill="#404244" transform="translate(120,122)"/>
	

	<path d="M0 0 C0 0.99 0 1.98 0 3 C-0.639375 3.103125 -1.27875 3.20625 -1.9375 3.3125 C-2.618125 3.539375 -3.29875 3.76625 -4 4 C-4.33 4.99 -4.66 5.98 -5 7 C-5.33 6.01 -5.66 5.02 -6 4 C-2.25 0 -2.25 0 0 0 Z " fill="#3D3F42" transform="translate(128,114)"/>
	

	

	

</svg>
