<?xml version="1.0" encoding="iso-8859-1"?>
<svg height="128" version="1.1" width="128" xmlns="http://www.w3.org/2000/svg">
	

	<path d="M0 0 C42.24 0 84.48 0 128 0 C128 42.24 128 84.48 128 128 C85.76 128 43.52 128 0 128 C0 85.76 0 43.52 0 0 Z " fill="#FBFBF9" transform="translate(0,0)"/>
	

	<path d="M0 0 C0.79664063 0.0721875 1.59328125 0.144375 2.4140625 0.21875 C3.47367188 0.3115625 4.53328125 0.404375 5.625 0.5 C6.66914063 0.5928125 7.71328125 0.685625 8.7890625 0.78125 C11.87146788 0.99124355 14.91165229 1.03709727 18 1 C18 1.99 18 2.98 18 4 C17.67 4.33 17.34 4.66 17 5 C16.91232888 7.07262076 16.89304127 9.14820294 16.90234375 11.22265625 C16.90717773 13.11274414 16.90717773 13.11274414 16.91210938 15.04101562 C16.92046597 16.38151109 16.92893093 17.72200588 16.9375 19.0625 C16.9425134 20.40689942 16.94707658 21.7513006 16.95117188 23.09570312 C16.96300512 26.39717941 16.97949029 29.69856803 17 33 C17.66 33 18.32 33 19 33 C21.17221282 41.71090422 23.13672381 50.37298565 24.5 59.25 C27.28785714 78.02567282 27.28785714 78.02567282 37.625 93 C38.800625 93.495 38.800625 93.495 40 94 C40.99 94.66 41.98 95.32 43 96 C45.93434718 96.25310838 45.93434718 96.25310838 49.30737305 96.13525391 C50.60849533 96.11508209 51.90961761 96.09491028 53.25016785 96.0741272 C54.6706898 96.04182397 56.09120668 96.00929714 57.51171875 95.9765625 C58.96473132 95.95039174 60.41776043 95.92512501 61.87080383 95.90072632 C65.69325713 95.83411068 69.51536213 95.75521059 73.33752441 95.67376709 C77.23855227 95.5928123 81.13978429 95.52345384 85.04101562 95.453125 C92.6942662 95.31344463 100.34713656 95.15971742 108 95 C108.66 89.39 109.32 83.78 110 78 C107.92976563 78.02320312 105.85953125 78.04640625 103.7265625 78.0703125 C101.72428873 78.08421718 99.72201377 78.09805177 97.71972656 78.10986328 C96.32679219 78.11992877 94.93387898 78.13358234 93.54101562 78.15087891 C91.5404564 78.1751022 89.53974385 78.18540814 87.5390625 78.1953125 C86.33459473 78.20578613 85.13012695 78.21625977 83.88916016 78.22705078 C81 78 81 78 79 76 C78.75276184 73.16690063 78.75276184 73.16690063 78.75708008 69.50244141 C78.75518173 68.83557816 78.75328339 68.1687149 78.75132751 67.48164368 C78.74761525 65.27149797 78.75833238 63.06167915 78.76953125 60.8515625 C78.77072321 59.31700682 78.77117618 57.78245041 78.7709198 56.24789429 C78.77248559 53.02817226 78.78078067 49.80856127 78.79418945 46.58886719 C78.81115085 42.46399749 78.81500461 38.33925023 78.81424427 34.21434975 C78.81451644 31.0436181 78.82000572 27.87291315 78.82724571 24.7021904 C78.83042605 23.18156512 78.8323983 21.66093681 78.83313942 20.14030838 C78.83531134 18.01226929 78.84407477 15.88435899 78.85473633 13.75634766 C78.85854813 12.54548492 78.86235992 11.33462219 78.86628723 10.08706665 C79 7 79 7 80 3 C93.2 3 106.4 3 120 3 C120 36 120 69 120 103 C106.8 103 93.6 103 80 103 C69.48094202 103.11840854 69.48094202 103.11840854 58.96484375 103.31738281 C56.30218776 103.37661988 53.63947641 103.42272196 50.9765625 103.46875 C40.75339272 103.67542018 30.63421876 104.26937064 20.45956421 105.30392456 C1.45252284 107.22626142 1.45252284 107.22626142 -3 105 C-3.08787428 83.43227082 -2.84549565 61.87519481 -2.53643799 40.3102417 C-2.47468326 35.97117052 -2.41518789 31.63206833 -2.35546875 27.29296875 C-2.23911621 18.86194834 -2.12037875 10.43096389 -2 2 C-1.34 2 -0.68 2 0 2 C0 1.34 0 0.68 0 0 Z " fill="#C96C3B" transform="translate(8,11)"/>
	

	

	<path d="M0 0 C0.96615234 0.04705078 1.93230469 0.09410156 2.92773438 0.14257812 C3.92998047 0.20251953 4.93222656 0.26246094 5.96484375 0.32421875 C6.97095703 0.37255859 7.97707031 0.42089844 9.01367188 0.47070312 C16.4578311 0.86354787 16.4578311 0.86354787 19.90234375 2.01171875 C18.51357021 5.36792146 16.9855641 7.08470603 13.90234375 9.01171875 C13.24234375 9.01171875 12.58234375 9.01171875 11.90234375 9.01171875 C12.39734375 20.39671875 12.39734375 20.39671875 12.90234375 32.01171875 C13.56234375 32.01171875 14.22234375 32.01171875 14.90234375 32.01171875 C19.91974167 54.5699398 19.91974167 54.5699398 20.96484375 61.51171875 C22.53642729 71.4941846 24.96269047 81.15872763 29.8515625 90.05859375 C30.90234375 92.01171875 30.90234375 92.01171875 31.90234375 95.01171875 C28.01708875 93.71663375 27.77530762 92.48843733 25.96484375 88.88671875 C20.67552281 77.7974741 18.55655285 65.94077062 16.5625 53.91796875 C15.88640689 49.91741782 15.09727624 45.95592083 14.234375 41.9921875 C13.90234375 40.01171875 13.90234375 40.01171875 13.90234375 36.01171875 C13.24234375 36.01171875 12.58234375 36.01171875 11.90234375 36.01171875 C10.23019926 30.99528528 10.71777761 25.76333422 10.71484375 20.51171875 C10.70259766 19.35800781 10.69035156 18.20429688 10.67773438 17.015625 C10.67580078 15.91089844 10.67386719 14.80617188 10.671875 13.66796875 C10.66776611 12.65541016 10.66365723 11.64285156 10.65942383 10.59960938 C10.90234375 8.01171875 10.90234375 8.01171875 12.90234375 5.01171875 C12.10570313 5.03492188 11.3090625 5.058125 10.48828125 5.08203125 C-0.03614483 5.26127938 -0.03614483 5.26127938 -5.09765625 3.01171875 C-5.09765625 3.67171875 -5.09765625 4.33171875 -5.09765625 5.01171875 C-5.75765625 5.01171875 -6.41765625 5.01171875 -7.09765625 5.01171875 C-7.09543564 5.88914734 -7.09321503 6.76657593 -7.09092712 7.67059326 C-7.0706028 16.07950366 -7.05552246 24.48840542 -7.04584408 32.89733505 C-7.04070058 37.21688666 -7.03376553 41.53641742 -7.0222168 45.85595703 C-6.96817887 66.601188 -7.13117821 87.28416725 -8.09765625 108.01171875 C0.74708413 108.23980661 9.35068039 107.95245364 18.1484375 107.04296875 C29.21504009 105.97404651 40.22781667 105.57271153 51.33984375 105.38671875 C53.27376622 105.34928614 55.20768545 105.3116853 57.14160156 105.27392578 C70.47764702 105.02738259 83.81413573 104.91089383 97.15234375 104.88671875 C98.00311493 104.88403992 98.85388611 104.88136108 99.73043823 104.87860107 C102.10549443 104.87286457 104.48041252 104.87439305 106.85546875 104.87890625 C107.56049026 104.87693237 108.26551178 104.8749585 108.99189758 104.8729248 C113.78689066 104.89626566 113.78689066 104.89626566 114.90234375 106.01171875 C114.90234375 110.63171875 114.90234375 115.25171875 114.90234375 120.01171875 C73.98234375 120.01171875 33.06234375 120.01171875 -9.09765625 120.01171875 C-10.22265625 109.88671875 -10.22265625 109.88671875 -10.1799469 105.79136658 C-10.17290741 104.86185181 -10.16586792 103.93233704 -10.15861511 102.97465515 C-10.1456691 101.98778214 -10.13272308 101.00090912 -10.11938477 99.98413086 C-10.10497345 98.38745071 -10.10497345 98.38745071 -10.090271 96.7585144 C-10.05750437 93.268625 -10.01708809 89.77886969 -9.9765625 86.2890625 C-9.95223952 83.85812338 -9.92839707 81.42717942 -9.90501404 78.99623108 C-9.84238984 72.61925705 -9.7732625 66.24236965 -9.70275879 59.86547852 C-9.63187893 53.34981204 -9.56717983 46.83408446 -9.50195312 40.31835938 C-9.37322028 27.54941236 -9.23782398 14.78054511 -9.09765625 2.01171875 C-5.79239138 0.24040674 -3.77088197 -0.19676264 0 0 Z " fill="#DFBFA7" transform="translate(13.09765625,7.98828125)"/>
	

	<path d="M0 0 C1.03568115 0.11758667 1.03568115 0.11758667 2.09228516 0.23754883 C5.56461792 0.68543939 7.46929134 1.14619423 10.4375 3.125 C12.11079768 10.92976838 11.5556129 19.43503659 11.421875 27.3828125 C11.39713104 29.04822586 11.39713104 29.04822586 11.37188721 30.74728394 C11.33471017 33.06823129 11.29421037 35.38912765 11.25048828 37.70996094 C11.18704925 41.27533265 11.14603246 44.84055349 11.10546875 48.40625 C11.06647384 50.66929485 11.0261577 52.93231741 10.984375 55.1953125 C10.97484802 56.26290802 10.96532104 57.33050354 10.95550537 58.43045044 C10.93248352 59.41262543 10.90946167 60.39480042 10.88574219 61.40673828 C10.87162292 62.27211212 10.85750366 63.13748596 10.84295654 64.02908325 C10.70915588 64.72073578 10.57535522 65.41238831 10.4375 66.125 C6.89151732 68.48898846 5.20420901 68.42318374 1 68.4375 C-0.13308594 68.45425781 -1.26617187 68.47101563 -2.43359375 68.48828125 C-5.828182 68.09415303 -7.19749439 67.55209406 -9.5625 65.125 C-10.3125 61.9375 -10.3125 61.9375 -10.5625 59.125 C-11.2225 59.125 -11.8825 59.125 -12.5625 59.125 C-12.75585938 58.46113281 -12.94921875 57.79726562 -13.1484375 57.11328125 C-14.74898963 51.65543679 -14.74898963 51.65543679 -16.6875 46.3125 C-18.51322043 41.74819893 -18.68882493 37.24746747 -18.875 32.375 C-19.26327783 25.6624002 -20.45858745 19.49243643 -22.27856445 13.02441406 C-23.51738148 8.3951798 -23.69413083 4.79446615 -22.5625 0.125 C-16.30098451 -3.00575775 -6.80377989 -0.80850011 0 0 Z " fill="#C96836" transform="translate(62.5625,27.875)"/>
	

	

	<path d="M0 0 C1.15136948 -0.00630432 2.30273895 -0.01260864 3.48899841 -0.019104 C4.73794388 -0.01505554 5.98688934 -0.01100708 7.27368164 -0.00683594 C8.55110733 -0.00874939 9.82853302 -0.01066284 11.14466858 -0.01263428 C13.85081427 -0.01399756 16.55660077 -0.01129026 19.26269531 -0.00195312 C22.73083241 0.00943015 26.19865957 0.00288908 29.66678524 -0.00909805 C32.97326181 -0.01806632 36.27970103 -0.011785 39.58618164 -0.00683594 C40.83310287 -0.0108844 42.08002411 -0.01493286 43.36473083 -0.019104 C45.09651329 -0.00964752 45.09651329 -0.00964752 46.86328125 0 C48.38978554 0.00238678 48.38978554 0.00238678 49.9471283 0.00482178 C52.49633789 0.25878906 52.49633789 0.25878906 55.49633789 2.25878906 C55.30883789 4.13378906 55.30883789 4.13378906 54.49633789 6.25878906 C50.14395554 8.70385328 45.88857915 8.37626672 41.05883789 8.19628906 C32.70255255 8.0183137 25.63791213 9.18008926 17.49633789 11.25878906 C17.49633789 18.18878906 17.49633789 25.11878906 17.49633789 32.25878906 C18.15633789 32.25878906 18.81633789 32.25878906 19.49633789 32.25878906 C21.25224276 37.99474496 22.62399359 43.6140927 23.37133789 49.57128906 C24.2188901 55.96324533 25.46980844 62.21563665 26.87133789 68.50878906 C27.06840332 69.41927002 27.26546875 70.32975098 27.46850586 71.26782227 C28.90205018 77.56024929 30.80798417 83.39273251 33.49633789 89.25878906 C33.82641846 90.05335007 34.15649902 90.84791107 34.49658203 91.66654968 C35.90824406 94.40904667 37.16181793 96.22266075 39.49633789 98.25878906 C44.48654175 99.58994712 49.40139872 99.44885943 54.51977539 99.35644531 C55.99095644 99.36210269 57.46212713 99.37171926 58.93325806 99.38511658 C62.79078519 99.40967397 66.64609676 99.38069981 70.50341797 99.34033203 C74.44514444 99.30863241 78.38659201 99.32788732 82.32836914 99.34277344 C90.05164696 99.36447109 97.77329509 99.32958434 105.49633789 99.25878906 C105.49633789 99.58878906 105.49633789 99.91878906 105.49633789 100.25878906 C97.12557224 100.50574333 88.75472956 100.72491643 80.38236809 100.90900135 C76.49439332 100.99535268 72.60713546 101.09113021 68.7199707 101.20874023 C64.96607997 101.32196624 61.21235125 101.41005138 57.45743179 101.48099327 C56.02754542 101.51237525 54.59782543 101.55269591 53.16845322 101.60224342 C40.55762318 102.02963305 40.55762318 102.02963305 36.66943359 98.88232422 C34.75479976 96.57082493 33.16522407 94.49122817 31.80883789 91.82128906 C31.4337207 91.10070312 31.05860352 90.38011719 30.67211914 89.63769531 C30.28411133 88.85265625 29.89610352 88.06761719 29.49633789 87.25878906 C28.99489258 86.33582031 28.49344727 85.41285156 27.97680664 84.46191406 C26.31458971 80.86556082 25.34908319 77.2934651 24.49633789 73.44628906 C24.32827637 72.71144287 24.16021484 71.97659668 23.98706055 71.21948242 C22.49359296 64.54851869 21.29269077 57.83431243 20.15649414 51.09472656 C19.47248406 47.12018276 18.68614106 43.17942962 17.82836914 39.23925781 C17.49633789 37.25878906 17.49633789 37.25878906 17.49633789 33.25878906 C16.83633789 33.25878906 16.17633789 33.25878906 15.49633789 33.25878906 C14.55659086 28.36589128 14.18387622 23.60082879 14.05883789 18.63378906 C14.01307617 17.88355469 13.96731445 17.13332031 13.92016602 16.36035156 C13.87524414 14.15722656 13.87524414 14.15722656 14.49633789 10.25878906 C17.39868164 7.92285156 17.39868164 7.92285156 20.49633789 6.25878906 C21.15633789 5.26878906 21.81633789 4.27878906 22.49633789 3.25878906 C18.39255401 3.06218193 14.28830351 2.87806146 10.18383789 2.69628906 C9.0165918 2.64021484 7.8493457 2.58414062 6.64672852 2.52636719 C5.5284668 2.47802734 4.41020508 2.4296875 3.25805664 2.37988281 C2.22640381 2.33275146 1.19475098 2.28562012 0.13183594 2.23706055 C-2.61396748 2.12422651 -2.61396748 2.12422651 -5.50366211 3.25878906 C-5.83366211 39.22878906 -6.16366211 75.19878906 -6.50366211 112.25878906 C-6.83366211 112.25878906 -7.16366211 112.25878906 -7.50366211 112.25878906 C-7.55034225 97.95112771 -7.58549848 83.64347812 -7.60728645 69.3357563 C-7.61774146 62.6927235 -7.63193191 56.04974172 -7.65454102 49.40673828 C-7.67620825 43.00067516 -7.68821779 36.59466123 -7.6934166 30.1885643 C-7.69712338 27.73963521 -7.70436136 25.29070894 -7.71512222 22.84180069 C-7.72955578 19.42230577 -7.73164347 16.00301637 -7.73071289 12.58349609 C-7.73790344 11.56210541 -7.74509399 10.54071472 -7.75250244 9.4883728 C-7.74975311 8.56006653 -7.74700378 7.63176025 -7.74417114 6.67532349 C-7.74601473 5.86598925 -7.74785831 5.05665501 -7.74975777 4.22279549 C-7.16646992 -0.43222802 -3.86266765 0.00604423 0 0 Z " fill="#F1EBDD" transform="translate(10.503662109375,6.7412109375)"/>
	

	<path d="M0 0 C0.83519669 0.00202423 1.67039337 0.00404846 2.53089905 0.00613403 C3.39683182 0.00517731 4.26276459 0.00422058 5.15493774 0.00323486 C7.00364758 0.00255178 8.85235978 0.00441493 10.70106506 0.00857544 C13.46406346 0.01381245 16.2268909 0.00869325 18.98988342 0.00222778 C27.19648312 -0.00054941 35.35749584 0.09304503 43.54652405 0.64675903 C56.83301349 1.52159352 70.16495643 1.20723261 83.4723053 1.13894653 C88.79261229 1.11200987 94.11288863 1.09242013 99.4332428 1.07644653 C101.25340408 1.06399902 101.25340408 1.06399902 103.1103363 1.05130005 C104.2331601 1.04799683 105.35598389 1.0446936 106.51283264 1.04129028 C107.49778717 1.03605347 108.4827417 1.03081665 109.49754333 1.02542114 C111.85851554 1.12851916 113.84142648 1.46408854 116.0973053 2.13894653 C116.0973053 3.45894653 116.0973053 4.77894653 116.0973053 6.13894653 C83.41072016 6.72186574 50.72723397 7.24014032 18.0348053 7.26394653 C16.81664124 7.26644409 15.59847717 7.26894165 14.34339905 7.27151489 C10.93711864 7.27730631 7.53093 7.27598397 4.12464905 7.27175903 C3.11430099 7.27374298 2.10395294 7.27572693 1.06298828 7.277771 C0.15255264 7.27465912 -0.757883 7.27154724 -1.69590759 7.26834106 C-2.48945145 7.26754547 -3.2829953 7.26674988 -4.10058594 7.26593018 C-5.9026947 7.13894653 -5.9026947 7.13894653 -6.9026947 6.13894653 C-7.0276947 3.63894653 -7.0276947 3.63894653 -6.9026947 1.13894653 C-5.05671785 -0.70703032 -2.45620725 0.01015156 0 0 Z " fill="#9FC824" transform="translate(11.902694702148438,117.86105346679688)"/>
	

	<path d="M0 0 C0.66 1.32 1.32 2.64 2 4 C42.26 4 82.52 4 124 4 C124 5.32 124 6.64 124 8 C83.08 8 42.16 8 0 8 C-0.33 5.69 -0.66 3.38 -1 1 C-0.67 0.67 -0.34 0.34 0 0 Z " fill="#F3F6C0" transform="translate(4,120)"/>
	

	<path d="M0 0 C0.77727951 -0.00315216 1.55455902 -0.00630432 2.35539246 -0.009552 C3.59933525 -0.00651566 3.59933525 -0.00651566 4.8684082 -0.00341797 C5.72602249 -0.00437469 6.58363678 -0.00533142 7.46723938 -0.00631714 C9.2751981 -0.00699641 11.08315928 -0.00515978 12.89111328 -0.00097656 C15.66940725 0.00439495 18.447541 -0.00094017 21.22583008 -0.00732422 C22.98168981 -0.00666378 24.73754945 -0.00538332 26.4934082 -0.00341797 C27.32877609 -0.0054422 28.16414398 -0.00746643 29.02482605 -0.009552 C34.8667258 0.01443088 34.8667258 0.01443088 35.98168945 1.12939453 C36.02249728 3.12897817 36.02423302 5.12984707 35.98168945 7.12939453 C28.07838626 7.15281668 20.17509816 7.17045888 12.27176857 7.1812067 C8.59986753 7.18637142 4.92799065 7.19334867 1.25610352 7.20483398 C-39.00770724 7.32730032 -39.00770724 7.32730032 -51.01831055 5.12939453 C-51.01831055 4.79939453 -51.01831055 4.46939453 -51.01831055 4.12939453 C-46.16059681 3.20613078 -41.40496757 2.85740411 -36.47924805 2.62939453 C-34.83081028 2.54606641 -33.18237279 2.46273292 -31.53393555 2.37939453 C-28.95553537 2.25333066 -26.37707372 2.12861233 -23.79858398 2.00439453 C-21.29613171 1.88264847 -18.79394915 1.7561822 -16.29174805 1.62939453 C-15.1369545 1.5762207 -15.1369545 1.5762207 -13.95883179 1.52197266 C-9.96028183 1.33889259 -9.96028183 1.33889259 -6.03474426 0.61990356 C-3.94641949 0.11190662 -2.14576471 0.00250709 0 0 Z " fill="#EEF79B" transform="translate(92.018310546875,112.87060546875)"/>
	

	

	

	

	<path d="M0 0 C1.03568115 0.11758667 1.03568115 0.11758667 2.09228516 0.23754883 C5.56461792 0.68543939 7.46929134 1.14619423 10.4375 3.125 C10.1075 4.445 9.7775 5.765 9.4375 7.125 C8.9425 5.64 8.9425 5.64 8.4375 4.125 C-1.52937989 2.11208112 -11.43225045 1.55272165 -21.5625 1.125 C-21.44132812 1.70467529 -21.32015625 2.28435059 -21.1953125 2.8815918 C-20.64592593 5.52419401 -20.10414897 8.16830146 -19.5625 10.8125 C-19.27632812 12.18051758 -19.27632812 12.18051758 -18.984375 13.57617188 C-18.80390625 14.46240234 -18.6234375 15.34863281 -18.4375 16.26171875 C-18.26992188 17.07342529 -18.10234375 17.88513184 -17.9296875 18.72143555 C-17.5471287 21.22561865 -17.49951491 23.59575502 -17.5625 26.125 C-16.9025 26.125 -16.2425 26.125 -15.5625 26.125 C-15.46227539 26.78918945 -15.36205078 27.45337891 -15.25878906 28.13769531 C-13.19590323 45.61965363 -13.19590323 45.61965363 -7.5625 62.125 C-4.18614705 64.37590196 -2.42509337 64.51943591 1.5625 64.8125 C3.17511719 64.94205078 3.17511719 64.94205078 4.8203125 65.07421875 C6.11582031 65.09935547 6.11582031 65.09935547 7.4375 65.125 C9.12985633 63.43264367 8.60583809 61.28208271 8.64282227 58.96264648 C8.66276749 57.86158066 8.68271271 56.76051483 8.70326233 55.62608337 C8.71997482 54.4281868 8.73668732 53.23029022 8.75390625 51.99609375 C8.77468735 50.77672623 8.79546844 49.5573587 8.81687927 48.30104065 C8.88250428 44.38825355 8.94131972 40.47539683 9 36.5625 C9.04317291 33.91731038 9.08678678 31.27212791 9.13085938 28.62695312 C9.2381988 22.12637664 9.33994067 15.62573021 9.4375 9.125 C9.7675 9.125 10.0975 9.125 10.4375 9.125 C11.73570134 15.00866102 11.51971775 20.8103526 11.421875 26.796875 C11.39713104 28.47502289 11.39713104 28.47502289 11.37188721 30.18707275 C11.33449072 32.54387395 11.29395789 34.90062721 11.25048828 37.25732422 C11.18748397 40.87592065 11.14621889 44.49437453 11.10546875 48.11328125 C11.06644238 50.40366903 11.02612286 52.69403521 10.984375 54.984375 C10.97484802 56.07079285 10.96532104 57.15721069 10.95550537 58.27655029 C10.93248352 59.27809143 10.90946167 60.27963257 10.88574219 61.31152344 C10.87162292 62.19499451 10.85750366 63.07846558 10.84295654 63.9887085 C10.70915588 64.69368469 10.57535522 65.39866089 10.4375 66.125 C6.89151732 68.48898846 5.20420901 68.42318374 1 68.4375 C-0.13308594 68.45425781 -1.26617187 68.47101563 -2.43359375 68.48828125 C-5.828182 68.09415303 -7.19749439 67.55209406 -9.5625 65.125 C-10.3125 61.9375 -10.3125 61.9375 -10.5625 59.125 C-11.2225 59.125 -11.8825 59.125 -12.5625 59.125 C-12.75585938 58.46113281 -12.94921875 57.79726562 -13.1484375 57.11328125 C-14.74898963 51.65543679 -14.74898963 51.65543679 -16.6875 46.3125 C-18.51322043 41.74819893 -18.68882493 37.24746747 -18.875 32.375 C-19.26327783 25.6624002 -20.45858745 19.49243643 -22.27856445 13.02441406 C-23.51738148 8.3951798 -23.69413083 4.79446615 -22.5625 0.125 C-16.30098451 -3.00575775 -6.80377989 -0.80850011 0 0 Z " fill="#D5A78A" transform="translate(62.5625,27.875)"/>
	

	

	<path d="M0 0 C0.81726563 0.10183594 1.63453125 0.20367187 2.4765625 0.30859375 C3.10304688 0.39238281 3.72953125 0.47617188 4.375 0.5625 C4.375 2.2125 4.375 3.8625 4.375 5.5625 C-4.69996215 5.71628978 -13.77499339 5.8644711 -22.85016346 6.0054636 C-27.06397839 6.07110663 -31.27774362 6.138692 -35.49145508 6.21069336 C-39.55678303 6.28008814 -43.6221623 6.34441078 -47.68762779 6.40519524 C-49.23981332 6.42929838 -50.79197143 6.45523897 -52.34409523 6.48303413 C-54.51556739 6.5216087 -56.68704463 6.55368974 -58.85864258 6.58422852 C-60.09552322 6.60421402 -61.33240387 6.62419952 -62.60676575 6.64479065 C-65.625 6.5625 -65.625 6.5625 -68.625 5.5625 C-68.625 4.9025 -68.625 4.2425 -68.625 3.5625 C-54.94469669 1.73611119 -41.41627205 1.18356438 -27.625 1 C-24.62793399 0.95593966 -21.63096881 0.90939576 -18.6340332 0.85719299 C-16.78889825 0.82541163 -14.94367199 0.79846804 -13.09838867 0.77696228 C-8.41953333 0.70023955 -4.5721228 -0.58784436 0 0 Z " fill="#AB4941" transform="translate(123.625,106.4375)"/>
	

	<path d="M0 0 C13.2 0 26.4 0 40 0 C40 1.32 40 2.64 40 4 C39.2589502 3.75552124 39.2589502 3.75552124 38.50292969 3.50610352 C34.9911097 2.79599789 31.51953713 2.87752815 27.953125 2.90234375 C27.26911621 2.90335083 26.58510742 2.90435791 25.88037109 2.90539551 C23.33689689 2.9106087 20.79344668 2.92456994 18.25 2.9375 C12.5575 2.958125 6.865 2.97875 1 3 C1 25.77 1 48.54 1 72 C10.57 72.33 20.14 72.66 30 73 C30 73.66 30 74.32 30 75 C25.90661348 75.04939115 21.81334202 75.08571501 17.71972656 75.10986328 C16.32679219 75.11992877 14.93387898 75.13358234 13.54101562 75.15087891 C11.5404564 75.1751022 9.53974385 75.18540814 7.5390625 75.1953125 C6.33459473 75.20578613 5.13012695 75.21625977 3.88916016 75.22705078 C1 75 1 75 -1 73 C-1.24723816 70.16690063 -1.24723816 70.16690063 -1.24291992 66.50244141 C-1.24481827 65.83557816 -1.24671661 65.1687149 -1.24867249 64.48164368 C-1.25238475 62.27149797 -1.24166762 60.06167915 -1.23046875 57.8515625 C-1.22927679 56.31700682 -1.22882382 54.78245041 -1.2290802 53.24789429 C-1.22751441 50.02817226 -1.21921933 46.80856127 -1.20581055 43.58886719 C-1.18884915 39.46399749 -1.18499539 35.33925023 -1.18575573 31.21434975 C-1.18548356 28.0436181 -1.17999428 24.87291315 -1.17275429 21.7021904 C-1.16957395 20.18156512 -1.1676017 18.66093681 -1.16686058 17.14030838 C-1.16468866 15.01226929 -1.15592523 12.88435899 -1.14526367 10.75634766 C-1.13954597 8.94005356 -1.13954597 8.94005356 -1.13371277 7.08706665 C-1 4 -1 4 0 0 Z " fill="#D4A485" transform="translate(88,14)"/>
	

	

	

	

	<path d="M0 0 C0.66 1.32 1.32 2.64 2 4 C42.26 4 82.52 4 124 4 C124 4.33 124 4.66 124 5 C123.34221054 5.00808685 122.68442108 5.01617371 122.00669861 5.02450562 C113.65011558 5.1291566 105.29375861 5.24709063 96.9375 5.375 C96.27000103 5.38516521 95.60250206 5.39533043 94.91477585 5.40580368 C78.44149777 5.65974829 62.03877504 6.03820215 45.61083984 7.33496094 C30.43449017 8.46490738 15.20753817 8.17738717 0 8 C-0.38063221 5.6739143 -0.71269945 3.33944736 -1 1 C-0.67 0.67 -0.34 0.34 0 0 Z " fill="#E6F17A" transform="translate(4,120)"/>
	

	<path d="M0 0 C3.27081471 -0.02902429 6.5415963 -0.04680684 9.8125 -0.0625 C10.74126953 -0.07087891 11.67003906 -0.07925781 12.62695312 -0.08789062 C13.51962891 -0.09111328 14.41230469 -0.09433594 15.33203125 -0.09765625 C16.56530151 -0.10551147 16.56530151 -0.10551147 17.82348633 -0.11352539 C20 0 20 0 23 1 C22.67 2.65 22.34 4.3 22 6 C20.68 6.33 19.36 6.66 18 7 C18.495 18.385 18.495 18.385 19 30 C19.66 30 20.32 30 21 30 C26.01739792 52.55822105 26.01739792 52.55822105 27.0625 59.5 C28.63408354 69.48246585 31.06034672 79.14700888 35.94921875 88.046875 C37 90 37 90 38 93 C34.114745 91.704915 33.87296387 90.47671858 32.0625 86.875 C26.77317906 75.78575535 24.6542091 63.92905187 22.66015625 51.90625 C21.98406314 47.90569907 21.19493249 43.94420208 20.33203125 39.98046875 C20 38 20 38 20 34 C19.34 34 18.68 34 18 34 C16.32785551 28.98356653 16.81543386 23.75161547 16.8125 18.5 C16.80025391 17.34628906 16.78800781 16.19257813 16.77539062 15.00390625 C16.77345703 13.89917969 16.77152344 12.79445313 16.76953125 11.65625 C16.76542236 10.64369141 16.76131348 9.63113281 16.75708008 8.58789062 C17 6 17 6 19 3 C18.20335938 3.02320313 17.40671875 3.04640625 16.5859375 3.0703125 C6.06151142 3.24956063 6.06151142 3.24956063 1 1 C0.67 1.66 0.34 2.32 0 3 C0 2.01 0 1.02 0 0 Z " fill="#D4A587" transform="translate(7,10)"/>
	

	<path d="M0 0 C0.66 1.32 1.32 2.64 2 4 C40.61 4 79.22 4 119 4 C118.505 3.01 118.505 3.01 118 2 C98.86 2 79.72 2 60 2 C60 1.67 60 1.34 60 1 C65.67010017 0.85484049 71.34026364 0.71257181 77.01049805 0.57275391 C78.93141543 0.52500736 80.85231478 0.47652907 82.77319336 0.42724609 C92.39074045 0.18096451 102.0080048 -0.04701314 111.62890625 -0.09375 C112.32112778 -0.1002356 113.0133493 -0.10672119 113.72654724 -0.11340332 C116.9682944 -0.11646347 119.8999097 0.0048243 123 1 C123 2.32 123 3.64 123 5 C90.31341486 5.5829192 57.62992867 6.10119378 24.9375 6.125 C23.71933594 6.12749756 22.50117188 6.12999512 21.24609375 6.13256836 C17.83981334 6.13835978 14.43362471 6.13703743 11.02734375 6.1328125 C10.0169957 6.13479645 9.00664764 6.1367804 7.96568298 6.13882446 C7.05524734 6.13571259 6.14481171 6.13260071 5.20678711 6.12939453 C4.41324326 6.12859894 3.6196994 6.12780334 2.80210876 6.12698364 C1 6 1 6 0 5 C-0.04063832 3.33382885 -0.042721 1.66611905 0 0 Z " fill="#BCD94F" transform="translate(5,119)"/>
	

	

	<path d="M0 0 C-9.46150437 5.47824265 -22.81788672 4.29243496 -33.375 4.1875 C-34.74031403 4.18063759 -36.10562989 4.17412987 -37.47094727 4.16796875 C-46.67343257 4.10810109 -55.8329575 3.83201682 -65 3 C-65 2.67 -65 2.34 -65 2 C-43.34161009 -0.39516312 -21.75545979 -0.21082443 0 0 Z " fill="#EEE3D3" transform="translate(124,114)"/>
	

	

	<path d="M0 0 C0.66 0 1.32 0 2 0 C2 23.43 2 46.86 2 71 C3.65 71.66 5.3 72.32 7 73 C5.515 73.99 5.515 73.99 4 75 C1.3125 74.125 1.3125 74.125 -1 73 C-1.02318774 64.22025904 -1.04094789 55.44052866 -1.05181217 46.66076374 C-1.05702692 42.58380869 -1.064099 38.50687462 -1.07543945 34.42993164 C-1.08631837 30.49420656 -1.09228745 26.55850164 -1.09487724 22.62276268 C-1.09672247 21.12249624 -1.10032572 19.62223088 -1.10573006 18.12197304 C-1.11300691 16.01789607 -1.11398814 13.91390201 -1.11352539 11.80981445 C-1.115746 10.61290482 -1.11796661 9.41599518 -1.12025452 8.18281555 C-1.01236103 5.32716348 -0.65908702 2.77376413 0 0 Z " fill="#ECDFCF" transform="translate(86,16)"/>
	

	<path d="M0 0 C0.33 0 0.66 0 1 0 C2.29820134 5.88366102 2.08221775 11.6853526 1.984375 17.671875 C1.96787903 18.79064026 1.95138306 19.90940552 1.93438721 21.06207275 C1.89699072 23.41887395 1.85645789 25.77562721 1.81298828 28.13232422 C1.74998397 31.75092065 1.70871889 35.36937453 1.66796875 38.98828125 C1.62894238 41.27866903 1.58862286 43.56903521 1.546875 45.859375 C1.53734802 46.94579285 1.52782104 48.03221069 1.51800537 49.15155029 C1.49498352 50.15309143 1.47196167 51.15463257 1.44824219 52.18652344 C1.43412292 53.06999451 1.42000366 53.95346558 1.40545654 54.8637085 C1.27165588 55.56868469 1.13785522 56.27366089 1 57 C-2.54598268 59.36398846 -4.23329099 59.29818374 -8.4375 59.3125 C-9.57058594 59.32925781 -10.70367187 59.34601563 -11.87109375 59.36328125 C-15.37518258 58.95643948 -16.64294107 58.60180997 -19 56 C-20.265625 52.8203125 -20.265625 52.8203125 -21.25 49.125 C-21.58515625 47.91070312 -21.9203125 46.69640625 -22.265625 45.4453125 C-22.89760136 42.48040215 -23.16021454 40.00974451 -23 37 C-20.7018636 41.22857097 -19.48351415 45.73071023 -18.09765625 50.3203125 C-17.1737907 53.28836567 -17.1737907 53.28836567 -14 55 C-11.0667855 55.49700066 -11.0667855 55.49700066 -7.875 55.6875 C-6.79992187 55.77386719 -5.72484375 55.86023438 -4.6171875 55.94921875 C-3.75351563 55.96597656 -2.88984375 55.98273438 -2 56 C-0.30764367 54.30764367 -0.83166191 52.15708271 -0.79467773 49.83764648 C-0.77473251 48.73658066 -0.75478729 47.63551483 -0.73423767 46.50108337 C-0.71752518 45.3031868 -0.70081268 44.10529022 -0.68359375 42.87109375 C-0.66281265 41.65172623 -0.64203156 40.4323587 -0.62062073 39.17604065 C-0.55499572 35.26325355 -0.49618028 31.35039683 -0.4375 27.4375 C-0.39432709 24.79231038 -0.35071322 22.14712791 -0.30664062 19.50195312 C-0.1993012 13.00137664 -0.09755933 6.50073021 0 0 Z " fill="#D19C7C" transform="translate(72,37)"/>
	

	<path d="M0 0 C0 0.33 0 0.66 0 1 C-1.63412842 1.08302368 -1.63412842 1.08302368 -3.30126953 1.16772461 C-7.36053496 1.37487278 -11.41955404 1.5865483 -15.47851562 1.79956055 C-17.23203282 1.89095697 -18.98561364 1.9811415 -20.73925781 2.07006836 C-23.26645507 2.19843621 -25.79338805 2.33122563 -28.3203125 2.46484375 C-29.48785568 2.52272316 -29.48785568 2.52272316 -30.6789856 2.58177185 C-33.8513667 2.75303322 -36.89312228 2.98138259 -40.02734375 3.52734375 C-43.77520087 4.12325796 -47.4593253 4.12423404 -51.2421875 4.09765625 C-52.01055939 4.0962413 -52.77893127 4.09482635 -53.57058716 4.09336853 C-56.00543239 4.08780683 -58.44018294 4.0752616 -60.875 4.0625 C-62.53385283 4.05748004 -64.19270712 4.05291801 -65.8515625 4.04882812 C-69.9010777 4.03784998 -73.95052284 4.02061206 -78 4 C-77.67 3.34 -77.34 2.68 -77 2 C-76.24460937 2.02320312 -75.48921875 2.04640625 -74.7109375 2.0703125 C-68.46052853 2.17277822 -62.42728643 1.98643226 -56.22363281 1.28417969 C-37.56904389 -0.80611118 -18.74199528 -0.17420702 0 0 Z " fill="#D4A384" transform="translate(84,114)"/>
	

	

	

	

	<path d="M0 0 C0.33 0.66 0.66 1.32 1 2 C-7.58 2 -16.16 2 -25 2 C-25 7.29143018 -24.86053647 10.30013455 -23.5 15.125 C-22.44413402 18.88896669 -21.82790478 22.08483368 -22 26 C-22.66 26 -23.32 26 -24 26 C-24.70510922 23.33692657 -25.38916349 20.67112372 -26.0625 18 C-26.26166016 17.25621094 -26.46082031 16.51242188 -26.66601562 15.74609375 C-27.97579324 10.46102619 -28.21251273 6.34208508 -27 1 C-20.31655305 -3.4556313 -7.71122172 -1.38775807 0 0 Z " fill="#EDE0D0" transform="translate(65,26)"/>
	

	<path d="M0 0 C0.81726563 0.10183594 1.63453125 0.20367187 2.4765625 0.30859375 C3.10304687 0.39238281 3.72953125 0.47617188 4.375 0.5625 C4.375 2.2125 4.375 3.8625 4.375 5.5625 C0.745 5.5625 -2.885 5.5625 -6.625 5.5625 C-6.625 4.5725 -6.625 3.5825 -6.625 2.5625 C-21.145 2.5625 -35.665 2.5625 -50.625 2.5625 C-50.625 2.2325 -50.625 1.9025 -50.625 1.5625 C-50.07820587 1.55219254 -49.53141174 1.54188507 -48.9680481 1.53126526 C-43.29058615 1.42330672 -37.61328636 1.30870026 -31.93603516 1.19018555 C-29.81562687 1.14680248 -27.69518288 1.10512993 -25.57470703 1.06518555 C-22.53146592 1.00756457 -19.4884051 0.94384675 -16.4453125 0.87890625 C-15.01712692 0.85383751 -15.01712692 0.85383751 -13.56008911 0.82826233 C-12.67932709 0.80831711 -11.79856506 0.78837189 -10.89111328 0.76782227 C-9.72529221 0.74450584 -9.72529221 0.74450584 -8.53591919 0.72071838 C-5.26916707 0.4502411 -3.47136862 -0.44631882 0 0 Z " fill="#C26942" transform="translate(123.625,106.4375)"/>
	

	

	

	

	

	

	

	

	

	

	

	

	

	

	

	

	

	

	

	

	

	

	

	

	

	

	

	

</svg>
