<?xml version="1.0" encoding="iso-8859-1"?>
<svg height="128" version="1.1" width="128" xmlns="http://www.w3.org/2000/svg">
	

	<path d="M0 0 C42.24 0 84.48 0 128 0 C128 42.24 128 84.48 128 128 C85.76 128 43.52 128 0 128 C0 85.76 0 43.52 0 0 Z " fill="#FBFCFB" transform="translate(0,0)"/>
	

	

	<path d="M0 0 C0.66 0.66 1.32 1.32 2 2 C1.64700993 5.44165321 0.95418308 7.06872538 -1 10 C5.2432286 14.57836764 13.35286247 15.74740981 20.91796875 14.6875 C24.03897817 13.65692278 25.86055119 11.62896604 28.16796875 9.359375 C30.97397534 7.27730614 33.66819285 7.27363457 37.08203125 7.203125 C39.24148401 7.1776518 39.24148401 7.1776518 41 5 C43.125 5.375 43.125 5.375 45 6 C44.34 7.32 43.68 8.64 43 10 C42.34 10 41.68 10 41 10 C41.721875 10.70125 42.44375 11.4025 43.1875 12.125 C45.1992071 14.08641442 46.56163548 15.81838313 48.1875 18.1875 C51.65714647 21.65714647 54.04296899 21.94636083 58.79296875 22.48046875 C61 23 61 23 63 26 C62.65837207 29.75790722 62.01727874 33.36686163 61 37 C62.11375 37.37125 62.11375 37.37125 63.25 37.75 C66.20124062 39.09147301 67.84814974 40.60905526 70 43 C69.67 43.99 69.34 44.98 69 46 C66.375 46.4375 66.375 46.4375 63 46 C60.61001246 43.94913231 58.6932063 41.65389073 57 39 C57 38.34 57 37.68 57 37 C53.01824456 39.10148204 50.64960955 41.36905358 48 45 C45.76711635 44.61502006 44.16343698 44.10506663 42.25 42.875 C40.16479443 39.74719165 40.37137344 37.64603406 41 34 C42.67861427 32.40254011 44.36343829 31.29249197 46.37109375 30.140625 C48.32691831 29.01210788 48.32691831 29.01210788 49 26 C45.7 26.33 42.4 26.66 39 27 C39.061875 25.783125 39.12375 24.56625 39.1875 23.3125 C39.20822824 19.42249954 38.37275814 17.16367751 36 14 C34.35 14.66 32.7 15.32 31 16 C31.495 20.95 31.495 20.95 32 26 C27.64156793 27.23940347 24.54363011 26.66253286 20.1875 25.5625 C18.44533203 25.13130859 18.44533203 25.13130859 16.66796875 24.69140625 C15.78753906 24.46324219 14.90710938 24.23507813 14 24 C15.36767905 29.60439913 19.27749487 31.72581745 23.6875 34.9375 C30.66673371 40.2493479 34.37058841 44.96490975 37.54296875 53.1015625 C39.21826272 56.43418483 40.67725007 57.42518407 44 59 C43.63576692 61.64068986 43.26880987 62.75999119 41.25 64.5625 C39.69938148 65.55317295 38.11229696 66.48823667 36.5 67.375 C33.84824261 68.8717767 33.84824261 68.8717767 32.24609375 71.5546875 C30 74 30 74 26.94140625 74.734375 C17.96353874 74.77589115 17.96353874 74.77589115 15.21484375 72.5625 C14 70.75 14 70.75 12.984375 68.80859375 C11.98860477 66.69924507 11.98860477 66.69924507 9.25 64.8125 C7 63 7 63 5.875 61.0625 C6 59 6 59 8 56.1875 C11 54 11 54 14.5 54 C17.90723756 54.97349644 20.23886832 55.79109466 23 58 C24.3125 60.6875 24.3125 60.6875 25 63 C27.97 62.505 27.97 62.505 31 62 C30.67498669 55.82474715 27.62291394 50.85726958 24 46 C21.5659074 43.88912298 19.0222094 42.01637015 16.4296875 40.10546875 C8.70262082 34.3042612 8.70262082 34.3042612 7.4375 30.125 C6.963125 29.09375 6.48875 28.0625 6 27 C3.72092423 26.24764101 1.64627249 25.94331163 -0.74609375 25.77734375 C-4.38907064 24.52092711 -5.28810053 22.36723838 -7 19 C-7.64574103 16.08219437 -7.8275565 13.23125859 -7.9375 10.25 C-7.99228516 9.48300781 -8.04707031 8.71601562 -8.10351562 7.92578125 C-8.21484375 5.703125 -8.21484375 5.703125 -8 2 C-4.77626323 -0.14915785 -3.73296326 -0.38286803 0 0 Z " fill="#6CB1D4" transform="translate(43,54)"/>
	

	

	

	

	

	

	

	<path d="M0 0 C3.34223307 0 5.43598994 0.49488256 7.9453125 2.7421875 C8.64398438 3.44601563 9.34265625 4.14984375 10.0625 4.875 C14.7253141 9.33888859 18.9966666 10.35503703 25.27734375 11.33203125 C28 12 28 12 30 15 C28.58521865 15.64995297 27.16808513 16.29478722 25.75 16.9375 C24.96109375 17.29714844 24.1721875 17.65679688 23.359375 18.02734375 C21.24176302 18.90033279 19.23330638 19.51338508 17 20 C17 20.66 17 21.32 17 22 C14.94354555 23.53342557 12.92221914 24.90108447 10.75 26.25 C9.87021484 26.83394531 9.87021484 26.83394531 8.97265625 27.4296875 C7.234375 28.515625 7.234375 28.515625 4 30 C1.578125 29.234375 1.578125 29.234375 0 28 C0.50064142 23.66110771 3.21726171 21.18996829 6 18 C7.9451 15.08235 8.45276317 13.37462715 9 10 C7.9171875 9.62875 7.9171875 9.62875 6.8125 9.25 C3.75286734 7.89016326 1.5326262 6.17082246 -1 4 C-0.67 2.68 -0.34 1.36 0 0 Z " fill="#6CB2D5" transform="translate(27,11)"/>
	

	

	

	

	

	

	

	

	

	

	

	

	

	

	

	

	

	

	

	

	

	

	

	

	

	

	

	

	

	

	

	

	

</svg>
