<?xml version="1.0" encoding="iso-8859-1"?>
<svg height="128" version="1.1" width="128" xmlns="http://www.w3.org/2000/svg">
	

	<path d="M0 0 C42.24 0 84.48 0 128 0 C128 42.24 128 84.48 128 128 C85.76 128 43.52 128 0 128 C0 85.76 0 43.52 0 0 Z " fill="#2D2C2B" transform="translate(0,0)"/>
	

	<path d="M0 0 C0.8559375 -0.020625 1.711875 -0.04125 2.59375 -0.0625 C18.21192935 -0.15715563 31.84241305 8.2627063 42.921875 18.6015625 C45.18234223 21.17303361 46.24061454 23.01781889 47.25 26.25 C47.745 27.735 47.745 27.735 48.25 29.25 C48.91 29.25 49.57 29.25 50.25 29.25 C50.25 31.23 50.25 33.21 50.25 35.25 C49.54875 35.105625 48.8475 34.96125 48.125 34.8125 C44.4378511 35.37358788 43.12762711 37.0460207 40.87109375 39.90625 C37.14152338 45.29839993 33.33100812 51.00697563 31.25 57.25 C36.86 57.25 42.47 57.25 48.25 57.25 C47.25043242 62.24783788 46.13466029 64.21147559 43.25 68.25 C42.26 69.8278125 42.26 69.8278125 41.25 71.4375 C36.17121363 78.57954333 27.91946973 80.05615418 19.71850586 81.83764648 C15.52086469 82.53884478 11.37108415 82.53877702 7.125 82.5 C6.27035156 82.50773437 5.41570313 82.51546875 4.53515625 82.5234375 C-7.84919616 82.48539033 -18.91873601 76.88501368 -27.75 68.25 C-33.37824118 62.0559568 -37.92658442 56.16176894 -40.75 48.25 C-41.183125 47.198125 -41.61625 46.14625 -42.0625 45.0625 C-42.88591794 41.69397205 -42.47953022 39.6323674 -41.75 36.25 C-41.73324219 35.59257813 -41.71648438 34.93515625 -41.69921875 34.2578125 C-41.3649756 24.37125193 -34.44678324 16.09727275 -27.75 9.25 C-19.44979168 1.60507129 -10.91031924 0.0645581 0 0 Z " fill="#E6C933" transform="translate(50.75,22.75)"/>
	

	<path d="M0 0 C2.6875 2.375 2.6875 2.375 5 5 C9.98691853 9.84389027 14.36907157 13.74266266 21 16 C20.44955394 20.12467583 19.16305908 22.55658462 16.6875 25.875 C12.64377343 31.4816393 9.36406374 36.34864817 7.625 43.125 C6.19577926 48.28737654 4.30615394 49.92417576 0 53 C-0.61875 53.886875 -1.2375 54.77375 -1.875 55.6875 C-5.28512044 59.39851342 -9.47179806 59.87530977 -14.296875 60.11328125 C-16.19826475 60.12339503 -18.09979483 60.06786447 -20 60 C-20.88431953 56.24164201 -21.39334903 52.85482054 -21 49 C-19.73339467 46.95708818 -18.40113616 44.95309888 -17 43 C-16.67 41.68 -16.34 40.36 -16 39 C-20.95 39.99 -25.9 40.98 -31 42 C-31 44.97 -31 47.94 -31 51 C-34.29668555 51 -36.82023454 50.65225958 -40 50 C-40.99 50 -41.98 50 -43 50 C-43.495 47.525 -43.495 47.525 -44 45 C-41.36095629 43.58622659 -38.92879371 42.62759865 -36 42 C-36.33 41.01 -36.66 40.02 -37 39 C-41.95 38.67 -46.9 38.34 -52 38 C-52 36.68 -52 35.36 -52 34 C-51.38125 33.938125 -50.7625 33.87625 -50.125 33.8125 C-49.42375 33.544375 -48.7225 33.27625 -48 33 C-47.690625 32.175 -47.38125 31.35 -47.0625 30.5 C-46.711875 29.675 -46.36125 28.85 -46 28 C-41.9316346 26.44444852 -37.30496172 26.92703455 -33 27 C-32.01 28.98 -31.02 30.96 -30 33 C-23.1941866 33.39212534 -23.1941866 33.39212534 -17 31 C-15.62810173 27.97017694 -15.62810173 27.97017694 -15 25 C-16.06104898 23.71602345 -16.06104898 23.71602345 -18.51171875 23.8671875 C-24.96921605 23.86111504 -24.96921605 23.86111504 -31.375 24.5625 C-34.51416651 25.08569442 -36.8598147 24.52585051 -40 24 C-43.65027718 23.78480899 -47.2994791 23.62301666 -50.953125 23.4765625 C-52.46132813 23.24066406 -52.46132813 23.24066406 -54 23 C-54.66 22.01 -55.32 21.02 -56 20 C-52.45770646 16.45770646 -39.97324224 17.24001453 -35 17 C-29.31152132 17.01701863 -23.65963627 17.45749601 -18 18 C-17.34695895 16.11278228 -17.34695895 16.11278228 -17 14 C-19.05226666 11.23733334 -20.41531259 10.1594602 -23.75 9.25 C-24.4925 9.1675 -25.235 9.085 -26 9 C-26 6.03 -26 3.06 -26 0 C-28.1965625 0.2784375 -28.1965625 0.2784375 -30.4375 0.5625 C-31.95318071 0.75462854 -33.47480724 0.91062197 -35 1 C-36 0 -36 0 -36.125 -2.5 C-36 -5 -36 -5 -35 -6 C-21.78416313 -9.42550956 -11.56946353 -7.01869119 0 0 Z " fill="#E12039" transform="translate(72,37)"/>
	

	<path d="M0 0 C0.72256485 0.00424484 1.4451297 0.00848969 2.18959045 0.01286316 C4.47184318 0.02950457 6.75317558 0.06712627 9.03515625 0.10546875 C10.5930861 0.12053452 12.15102995 0.13421959 13.70898438 0.14648438 C17.50555682 0.17935993 21.30145112 0.23103785 25.09765625 0.29296875 C25.09765625 1.61296875 25.09765625 2.93296875 25.09765625 4.29296875 C26.08765625 3.96296875 27.07765625 3.63296875 28.09765625 3.29296875 C31.28515625 4.23046875 31.28515625 4.23046875 34.09765625 5.29296875 C34.09765625 5.95296875 34.09765625 6.61296875 34.09765625 7.29296875 C35.23203125 7.41671875 36.36640625 7.54046875 37.53515625 7.66796875 C39.29859375 7.97734375 39.29859375 7.97734375 41.09765625 8.29296875 C41.59265625 9.28296875 41.59265625 9.28296875 42.09765625 10.29296875 C43.75453118 11.3091101 45.42273018 12.30686509 47.09765625 13.29296875 C55.48724256 19.67929657 63.31642802 27.90788994 66.09765625 38.29296875 C66.36328125 40.77734375 66.36328125 40.77734375 66.34765625 43.04296875 C66.35539062 44.17992188 66.35539062 44.17992188 66.36328125 45.33984375 C66.09765625 47.29296875 66.09765625 47.29296875 64.09765625 49.29296875 C63.74126064 51.39714843 63.74126064 51.39714843 63.78515625 53.73046875 C63.76001953 54.90416016 63.76001953 54.90416016 63.734375 56.1015625 C64.17739487 58.77397266 65.13029713 59.51869262 67.09765625 61.29296875 C66.8464638 64.93525927 64.76423736 68.10472663 63.09765625 71.29296875 C62.43765625 71.29296875 61.77765625 71.29296875 61.09765625 71.29296875 C60.80890625 72.07671875 60.52015625 72.86046875 60.22265625 73.66796875 C59.09765625 76.29296875 59.09765625 76.29296875 57.09765625 78.29296875 C56.39054947 79.94288457 55.71821636 81.60859131 55.09765625 83.29296875 C54.43765625 83.29296875 53.77765625 83.29296875 53.09765625 83.29296875 C52.60265625 84.77796875 52.60265625 84.77796875 52.09765625 86.29296875 C50.22265625 88.48046875 50.22265625 88.48046875 48.09765625 90.29296875 C47.10765625 90.29296875 46.11765625 90.29296875 45.09765625 90.29296875 C44.89140625 90.93234375 44.68515625 91.57171875 44.47265625 92.23046875 C43.09765625 94.29296875 43.09765625 94.29296875 40.03515625 94.91796875 C39.06578125 95.04171875 38.09640625 95.16546875 37.09765625 95.29296875 C36.76765625 95.95296875 36.43765625 96.61296875 36.09765625 97.29296875 C34.34800267 97.34726834 32.59785838 97.38589698 30.84765625 97.41796875 C29.873125 97.44117187 28.89859375 97.464375 27.89453125 97.48828125 C25.07800645 97.29159656 23.48816589 96.73865791 21.09765625 95.29296875 C26.02502644 93.32202067 29.87786497 93.11297595 35.09765625 93.29296875 C35.09765625 92.30296875 35.09765625 91.31296875 35.09765625 90.29296875 C36.21140625 90.21046875 37.32515625 90.12796875 38.47265625 90.04296875 C40.26703125 89.67171875 40.26703125 89.67171875 42.09765625 89.29296875 C42.80703473 87.98186067 43.46968352 86.64495709 44.09765625 85.29296875 C45.7890625 83.6953125 45.7890625 83.6953125 47.66015625 82.23046875 C50.29203278 80.16764661 51.00198164 79.57999257 52.09765625 76.29296875 C50.44765625 76.62296875 48.79765625 76.95296875 47.09765625 77.29296875 C47.51917969 76.6896875 47.94070312 76.08640625 48.375 75.46484375 C48.92285156 74.665625 49.47070312 73.86640625 50.03515625 73.04296875 C50.85306641 71.85960938 50.85306641 71.85960938 51.6875 70.65234375 C53.33909539 68.14754449 53.33909539 68.14754449 54.09765625 64.29296875 C48.48765625 64.29296875 42.87765625 64.29296875 37.09765625 64.29296875 C38.07046922 59.4289039 39.27490673 56.93258076 41.84765625 52.79296875 C42.523125 51.68953125 43.19859375 50.58609375 43.89453125 49.44921875 C46.07179373 46.33002002 48.21971904 43.77909604 51.09765625 41.29296875 C53.91015625 41.48046875 53.91015625 41.48046875 56.09765625 42.29296875 C56.09765625 40.31296875 56.09765625 38.33296875 56.09765625 36.29296875 C55.43765625 36.29296875 54.77765625 36.29296875 54.09765625 36.29296875 C52.28024998 34.2483867 51.17217779 32.50469349 50.26171875 29.91796875 C45.76442482 19.77642003 32.85446811 14.29010197 23.09765625 10.29296875 C17.31623017 8.21568891 12.10000221 7.98893894 6.03515625 8.04296875 C4.72708008 8.03136719 4.72708008 8.03136719 3.39257812 8.01953125 C-3.03512861 8.0389944 -8.11129011 9.27026541 -13.90234375 12.10546875 C-14.52109375 12.40066406 -15.13984375 12.69585937 -15.77734375 13 C-21.44547522 16.44880793 -25.11909362 20.51567123 -28.71484375 25.98046875 C-29.30555664 26.85155273 -29.30555664 26.85155273 -29.90820312 27.74023438 C-32.44583957 31.50533819 -33.97405758 34.04596394 -34.40234375 38.54296875 C-34.65549109 41.16485196 -34.97744942 43.64549598 -35.52734375 46.2265625 C-36.42760082 53.58803955 -32.7083894 60.68224712 -28.27734375 66.35546875 C-27.15557443 67.67073103 -26.03100236 68.98361357 -24.90234375 70.29296875 C-24.24234375 71.28296875 -23.58234375 72.27296875 -22.90234375 73.29296875 C-25.87428225 72.16845148 -28.23675062 71.07003084 -30.90234375 69.29296875 C-30.42796875 70.22109375 -29.95359375 71.14921875 -29.46484375 72.10546875 C-27.90234375 75.29296875 -27.90234375 75.29296875 -26.90234375 78.29296875 C-26.28359375 78.41671875 -25.66484375 78.54046875 -25.02734375 78.66796875 C-22.90234375 79.29296875 -22.90234375 79.29296875 -21.15234375 81.85546875 C-20.73984375 82.65984375 -20.32734375 83.46421875 -19.90234375 84.29296875 C-21.55234375 84.29296875 -23.20234375 84.29296875 -24.90234375 84.29296875 C-25.17046875 83.69484375 -25.43859375 83.09671875 -25.71484375 82.48046875 C-27.31818016 79.52695431 -28.84078608 77.79057391 -31.90234375 76.35546875 C-35.46301924 74.46385989 -36.67276659 71.9960488 -37.90234375 68.23046875 C-38.62588455 65.30624328 -38.62588455 65.30624328 -40.46484375 63.91796875 C-42.89433586 61.17158636 -42.60914249 57.87002414 -42.90234375 54.29296875 C-43.56234375 54.29296875 -44.22234375 54.29296875 -44.90234375 54.29296875 C-44.90234375 47.69296875 -44.90234375 41.09296875 -44.90234375 34.29296875 C-43.91234375 33.79796875 -43.91234375 33.79796875 -42.90234375 33.29296875 C-42.21193801 31.63599496 -41.54928025 29.96739265 -40.90234375 28.29296875 C-38.51637884 23.52103893 -38.51637884 23.52103893 -35.71484375 22.48046875 C-35.11671875 22.41859375 -34.51859375 22.35671875 -33.90234375 22.29296875 C-33.57234375 20.64296875 -33.24234375 18.99296875 -32.90234375 17.29296875 C-31.91234375 16.96296875 -30.92234375 16.63296875 -29.90234375 16.29296875 C-29.75796875 15.65359375 -29.61359375 15.01421875 -29.46484375 14.35546875 C-29.27921875 13.67484375 -29.09359375 12.99421875 -28.90234375 12.29296875 C-26.96484375 11.23046875 -26.96484375 11.23046875 -24.90234375 10.29296875 C-24.24234375 9.30296875 -23.58234375 8.31296875 -22.90234375 7.29296875 C-21.203125 6.23046875 -21.203125 6.23046875 -19.21484375 5.29296875 C-18.57160156 4.98359375 -17.92835937 4.67421875 -17.265625 4.35546875 C-16.48574219 4.00484375 -15.70585937 3.65421875 -14.90234375 3.29296875 C-13.3412085 2.52666138 -13.3412085 2.52666138 -11.74853516 1.74487305 C-7.85618164 0.08667558 -4.18860492 -0.09458249 0 0 Z " fill="#38373A" transform="translate(44.90234375,15.70703125)"/>
	

	<path d="M0 0 C0.99 0.33 1.98 0.66 3 1 C0.1220071 3.96793018 -2.81126236 6.67937574 -6 9.3125 C-10.69007754 13.37309643 -15.19473131 18.62176072 -16 25 C-15.34 25.99 -14.68 26.98 -14 28 C-10.7 26.68 -7.4 25.36 -4 24 C-4.53625 23.2575 -5.0725 22.515 -5.625 21.75 C-7 19 -7 19 -6.375 17.0625 C-5.92125 16.381875 -5.4675 15.70125 -5 15 C-4.5875 13.96875 -4.175 12.9375 -3.75 11.875 C-2 9 -2 9 1.0625 7.625 C4 7 4 7 6 7 C6 6.34 6 5.68 6 5 C6.66 5 7.32 5 8 5 C8.33 6.32 8.66 7.64 9 9 C11.97 9 14.94 9 18 9 C19.125 14.625 19.125 14.625 18 18 C18.721875 17.896875 19.44375 17.79375 20.1875 17.6875 C23 18 23 18 25.875 20.25 C28 23 28 23 27.875 25.25 C27 27 27 27 26 28 C21.85845574 28.14791229 17.97558855 28.02815734 13.87890625 27.43359375 C8.63023435 26.82768646 3.66483358 27.320038 -1.5625 27.9375 C-2.93245117 28.08735352 -2.93245117 28.08735352 -4.33007812 28.24023438 C-6.55451004 28.48480542 -8.77754442 28.73817647 -11 29 C-10.67 29.66 -10.34 30.32 -10 31 C-7.02899756 31.43551126 -7.02899756 31.43551126 -3.5 31.5625 C0.75566758 31.80109502 4.96087948 32.07309418 9.1875 32.625 C12.9187969 33.25349771 12.9187969 33.25349771 16 32 C18.01742495 31.85609589 20.04016415 31.77948728 22.0625 31.75 C23.65771484 31.71132813 23.65771484 31.71132813 25.28515625 31.671875 C26.62900391 31.83429687 26.62900391 31.83429687 28 32 C28.66 32.99 29.32 33.98 30 35 C27.70469799 40.55704698 27.70469799 40.55704698 24.8125 42.375 C20.95045524 43.23323217 17.96880359 43.38407777 14 43 C12 41.1875 12 41.1875 11 39 C11 38.01 11 37.02 11 36 C9.03407469 36.23324538 7.06841763 36.46946831 5.10546875 36.7265625 C3.44778402 36.94184623 1.78681759 37.13186765 0.125 37.3125 C-2.17141692 37.78697999 -2.17141692 37.78697999 -3.0625 39.9375 C-3.371875 40.618125 -3.68125 41.29875 -4 42 C-6.125 43.25 -6.125 43.25 -8 44 C-8 44.66 -8 45.32 -8 46 C-6.41058594 46.03867188 -6.41058594 46.03867188 -4.7890625 46.078125 C-3.40099999 46.1343978 -2.01298075 46.19174533 -0.625 46.25 C0.07367187 46.26417969 0.77234375 46.27835938 1.4921875 46.29296875 C3.5234375 46.390625 3.5234375 46.390625 7 47 C8.4765625 49.046875 8.4765625 49.046875 9 51 C6.34771188 52.07525194 3.71631546 53.09456151 1 54 C1 55.65 1 57.3 1 59 C2.0725 58.79375 3.145 58.5875 4.25 58.375 C8 58 8 58 12 60 C12 57.03 12 54.06 12 51 C17.65404897 48.91235115 21.98579743 47.61611473 28 48 C27.58345147 50.91583968 27.16780689 52.76507036 25.4375 55.1875 C23.29982726 59.36990319 23.75825234 63.38888719 24 68 C29.46137814 68.09752461 34.59255982 67.77249145 40 67 C34.52624128 71.4600997 30.12735055 72.22412383 23.20703125 72.265625 C21 72 21 72 19 70 C19.29481668 62.62958295 21.34646309 56.33279732 25 50 C20.05 50.99 20.05 50.99 15 52 C15.04125 53.216875 15.0825 54.43375 15.125 55.6875 C15.13754508 59.21894127 14.59998217 61.80003566 13 65 C10.58831107 64.58419156 9.30783531 64.33582033 7.625 62.5 C5.31388699 60.36666492 3.05363016 60.39829959 0 60 C-1 59 -1 59 -1.1875 56.1875 C-1 53 -1 53 1 49 C-2.63 48.67 -6.26 48.34 -10 48 C-10.33 46.68 -10.66 45.36 -11 44 C-10.195625 43.46375 -9.39125 42.9275 -8.5625 42.375 C-5.53491576 39.56894631 -5.27489191 38.03174806 -5 34 C-6.258125 33.67 -7.51625 33.34 -8.8125 33 C-9.87404297 32.7215625 -9.87404297 32.7215625 -10.95703125 32.4375 C-13.14070009 31.8952993 -13.14070009 31.8952993 -16 32 C-16.495 32.495 -16.495 32.495 -17 33 C-16.63970543 38.13419761 -15.681263 42.39134353 -13.71875 47.140625 C-12.97255247 49.07100556 -12.463649 50.98491011 -12 53 C-15.41302002 49.99654238 -16.89432126 47.42881656 -18.3125 43.125 C-18.65925781 42.11695313 -19.00601562 41.10890625 -19.36328125 40.0703125 C-20.07006831 36.66212458 -19.71993082 34.37954786 -19 31 C-18.95473337 29.60427878 -18.91280117 28.20844336 -18.875 26.8125 C-17.82604081 16.93896349 -9.33773227 8.03509978 -2.3125 1.5 C-1.549375 1.005 -0.78625 0.51 0 0 Z " fill="#DC754D" transform="translate(28,28)"/>
	

	<path d="M0 0 C11.55 0 23.1 0 35 0 C35 10.89 35 21.78 35 33 C31.29346269 31.76448756 30.35084565 30.03334922 28 27 C27.34 26.67 26.68 26.34 26 26 C25.690625 25.21625 25.38125 24.4325 25.0625 23.625 C23.30025854 19.27122698 20.68264926 17.70936076 16.5625 15.6875 C12.30107863 13.4060638 10.62898384 11.07068465 8 7 C5.93302617 5.53907093 3.82878448 4.29313019 1.609375 3.078125 C1.07828125 2.72234375 0.5471875 2.3665625 0 2 C0 1.34 0 0.68 0 0 Z " fill="#F7F6F7" transform="translate(93,0)"/>
	

	

	<path d="M0 0 C1.65322266 0.01740234 1.65322266 0.01740234 3.33984375 0.03515625 C4.99693359 0.04869141 4.99693359 0.04869141 6.6875 0.0625 C7.54214844 0.07410156 8.39679687 0.08570313 9.27734375 0.09765625 C10.26734375 2.07765625 11.25734375 4.05765625 12.27734375 6.09765625 C17.49713503 6.27764905 21.34997356 6.06860433 26.27734375 4.09765625 C25.90234375 6.03515625 25.90234375 6.03515625 25.27734375 8.09765625 C24.61734375 8.42765625 23.95734375 8.75765625 23.27734375 9.09765625 C25.75234375 10.58265625 25.75234375 10.58265625 28.27734375 12.09765625 C27.94734375 13.41765625 27.61734375 14.73765625 27.27734375 16.09765625 C26.78234375 14.11765625 26.78234375 14.11765625 26.27734375 12.09765625 C18.85234375 13.58265625 18.85234375 13.58265625 11.27734375 15.09765625 C11.27734375 18.06765625 11.27734375 21.03765625 11.27734375 24.09765625 C7.9806582 24.09765625 5.45710921 23.74991583 2.27734375 23.09765625 C1.28734375 23.09765625 0.29734375 23.09765625 -0.72265625 23.09765625 C-1.21765625 20.62265625 -1.21765625 20.62265625 -1.72265625 18.09765625 C0.91638746 16.68388284 3.34855004 15.7252549 6.27734375 15.09765625 C5.94734375 14.10765625 5.61734375 13.11765625 5.27734375 12.09765625 C0.32734375 11.76765625 -4.62265625 11.43765625 -9.72265625 11.09765625 C-9.72265625 9.77765625 -9.72265625 8.45765625 -9.72265625 7.09765625 C-9.10390625 7.03578125 -8.48515625 6.97390625 -7.84765625 6.91015625 C-5.4544804 6.27541266 -5.4544804 6.27541266 -4.53515625 3.59765625 C-4.26703125 2.77265625 -3.99890625 1.94765625 -3.72265625 1.09765625 C-2.72265625 0.09765625 -2.72265625 0.09765625 0 0 Z " fill="#DA3C5C" transform="translate(29.72265625,63.90234375)"/>
	

	<path d="M0 0 C6.33653137 1.31512915 6.33653137 1.31512915 8.9375 4 C10.81863422 9.31143781 10.81524536 14.43215669 9.11328125 19.79296875 C6.58169444 22.43686256 5.87613317 22.35578511 2.33203125 22.48828125 C0.49155452 22.45505965 -1.34859332 22.3954486 -3.1875 22.3125 C-4.12787109 22.28994141 -5.06824219 22.26738281 -6.03710938 22.24414062 C-8.35967473 22.18519227 -10.67903776 22.10297785 -13 22 C-12.42867911 17.43796002 -10.60667679 14.31087583 -8.1875 10.4375 C-7.15689453 8.76494141 -7.15689453 8.76494141 -6.10546875 7.05859375 C-4.24948501 4.36242442 -2.40112772 2.20687919 0 0 Z " fill="#1D94DD" transform="translate(95,58)"/>
	

	

	<path d="M0 0 C6 5 6 5 6.84765625 7.359375 C6.91855469 8.14828125 6.98945312 8.9371875 7.0625 9.75 C7.8681634 15.31489154 10.11820577 19.25242873 13 24 C13.67949091 25.32684374 14.35023237 26.65835018 15 28 C9.10368938 32.91359218 8.67331579 33 0 33 C0 22.11 0 11.22 0 0 Z " fill="#525348" transform="translate(0,95)"/>
	

	<path d="M0 0 C4.23717907 1.51327824 5.72106021 4.25077648 8 8 C8.53625 8.7425 9.0725 9.485 9.625 10.25 C11.02028671 13.04057341 11.40110036 15.12909211 11.875 18.1875 C12.45804945 22.12684365 12.45804945 22.12684365 15.375 24.6875 C17.95737769 24.99492592 19.57694269 24.89742863 22 24 C22.20625 24.61875 22.4125 25.2375 22.625 25.875 C24.56048634 28.86620616 26.63941918 28.96597513 30 30 C33.375 32 33.375 32 36 34 C36 34.66 36 35.32 36 36 C26.76 36 17.52 36 8 36 C12 32 12 32 14 31 C12.87554158 28.72392232 11.71936922 26.47223549 10.52734375 24.23046875 C7.60762533 18.64211335 5.89360131 14.25520915 5 8 C2.52093031 5.2704415 2.52093031 5.2704415 0 3 C0 2.01 0 1.02 0 0 Z " fill="#36353A" transform="translate(0,92)"/>
	

	<path d="M0 0 C5.94 0.33 11.88 0.66 18 1 C18.66 2.32 19.32 3.64 20 5 C17.34771188 6.07525194 14.71631546 7.09456151 12 8 C12 9.65 12 11.3 12 13 C13.0725 12.79375 14.145 12.5875 15.25 12.375 C19 12 19 12 23 14 C23 11.03 23 8.06 23 5 C28.65404897 2.91235115 32.98579743 1.61611473 39 2 C38.58345147 4.91583968 38.16780689 6.76507036 36.4375 9.1875 C34.29982726 13.36990319 34.75825234 17.38888719 35 22 C40.46137814 22.09752461 45.59255982 21.77249145 51 21 C45.52624128 25.4600997 41.12735055 26.22412383 34.20703125 26.265625 C32 26 32 26 30 24 C30.29481668 16.62958295 32.34646309 10.33279732 36 4 C32.7 4.66 29.4 5.32 26 6 C26.04125 7.216875 26.0825 8.43375 26.125 9.6875 C26.13754508 13.21894127 25.59998217 15.80003566 24 19 C21.58831107 18.58419156 20.30783531 18.33582033 18.625 16.5 C16.31388699 14.36666492 14.05363016 14.39829959 11 14 C10 13 10 13 9.8125 10.1875 C9.99582154 7.07103388 10.53847961 5.66308656 12 3 C10.82630859 2.92652344 10.82630859 2.92652344 9.62890625 2.8515625 C8.11103516 2.73941406 8.11103516 2.73941406 6.5625 2.625 C5.04849609 2.52058594 5.04849609 2.52058594 3.50390625 2.4140625 C2.67761719 2.27742188 1.85132812 2.14078125 1 2 C0.67 1.34 0.34 0.68 0 0 Z " fill="#DC754D" transform="translate(17,74)"/>
	

	<path d="M0 0 C2.06242617 -0.02717692 4.12495703 -0.0464758 6.1875 -0.0625 C7.33605469 -0.07410156 8.48460937 -0.08570313 9.66796875 -0.09765625 C13 0 13 0 15.73828125 0.56640625 C18.15349876 1.22060667 18.15349876 1.22060667 21 0 C23.01742495 -0.14390411 25.04016415 -0.22051272 27.0625 -0.25 C28.65771484 -0.28867187 28.65771484 -0.28867187 30.28515625 -0.328125 C31.18105469 -0.21984375 32.07695313 -0.1115625 33 0 C33.66 0.99 34.32 1.98 35 3 C32.70469799 8.55704698 32.70469799 8.55704698 29.8125 10.375 C25.95045524 11.23323217 22.96880359 11.38407777 19 11 C17 9.1875 17 9.1875 16 7 C16 6.01 16 5.02 16 4 C14.03407469 4.23324538 12.06841763 4.46946831 10.10546875 4.7265625 C8.44778402 4.94184623 6.78681759 5.13186765 5.125 5.3125 C2.82858308 5.78697999 2.82858308 5.78697999 1.9375 7.9375 C1.628125 8.618125 1.31875 9.29875 1 10 C-1.0625 11.125 -1.0625 11.125 -3 12 C-3.33 12.66 -3.66 13.32 -4 14 C-4.66 14 -5.32 14 -6 14 C-4.90098719 11.43563678 -3.99502431 9.99560968 -1.875 8.125 C0.59810621 5.3221463 0.14839018 3.63061317 0 0 Z " fill="#DB754C" transform="translate(23,60)"/>
	

	<path d="M0 0 C0.7734375 0.433125 0.7734375 0.433125 1.5625 0.875 C4.62356725 2.28780027 7.74944918 3.1248517 11 4 C10.8125 6.75 10.8125 6.75 10 10 C8.37667033 11.38576923 6.71275535 12.72641268 5 14 C5 14.99 5 15.98 5 17 C5.93972656 17.09087891 5.93972656 17.09087891 6.8984375 17.18359375 C7.71570312 17.26738281 8.53296875 17.35117188 9.375 17.4375 C10.59316406 17.55931641 10.59316406 17.55931641 11.8359375 17.68359375 C14 18 14 18 16 19 C15.34 22.3 14.68 25.6 14 29 C13.34 28.67 12.68 28.34 12 28 C12.33 25.36 12.66 22.72 13 20 C10.03 19.67 7.06 19.34 4 19 C4.60183749 21.02045442 5.27306096 23.02111039 6 25 C6.66 25.33 7.32 25.66 8 26 C8 26.66 8 27.32 8 28 C8.639375 28.2475 9.27875 28.495 9.9375 28.75 C12 30 12 30 12.75 32.125 C12.8325 32.74375 12.915 33.3625 13 34 C8.22125437 32.40708479 5.77260812 29.11635021 3 25 C-0.13901486 18.10537807 -3 10.65114881 -3 3 C-1.5625 1 -1.5625 1 0 0 Z " fill="#E8CC33" transform="translate(13,58)"/>
	

	<path d="M0 0 C0.33 0 0.66 0 1 0 C1 1.65 1 3.3 1 5 C-0.65 5.66 -2.3 6.32 -4 7 C-3.030625 7.2475 -2.06125 7.495 -1.0625 7.75 C2 9 2 9 3 11 C3 11.66 3 12.32 3 13 C2.34 13.66 1.68 14.32 1 15 C0.505 12.525 0.505 12.525 0 10 C-7.71692079 9.81784202 -7.71692079 9.81784202 -15.375 10.5625 C-18.51416651 11.08569442 -20.8598147 10.52585051 -24 10 C-27.65027718 9.78480899 -31.2994791 9.62301666 -34.953125 9.4765625 C-35.95859375 9.31929687 -36.9640625 9.16203125 -38 9 C-38.66 8.01 -39.32 7.02 -40 6 C-36.45770646 2.45770646 -23.97324224 3.24001453 -19 3 C-13.31152132 3.01701863 -7.65963627 3.45749601 -2 4 C-1.34 2.68 -0.68 1.36 0 0 Z " fill="#DA3C5C" transform="translate(56,51)"/>
	

	<path d="M0 0 C0.66 0 1.32 0 2 0 C2 6.6 2 13.2 2 20 C-5.59 20 -13.18 20 -21 20 C-16.9641791 15.9641791 -16.54585244 15.62566631 -11.4375 14.8125 C-7.35441394 13.93367366 -7.35441394 13.93367366 -4.72265625 10.953125 C-4.02622315 8.64924901 -3.51325827 6.34995936 -3 4 C-1.4375 1.4375 -1.4375 1.4375 0 0 Z " fill="#BDBCB9" transform="translate(126,108)"/>
	

	<path d="M0 0 C0.33 0 0.66 0 1 0 C1 1.98 1 3.96 1 6 C0.29875 5.855625 -0.4025 5.71125 -1.125 5.5625 C-4.8121489 6.12358788 -6.12237289 7.7960207 -8.37890625 10.65625 C-12.10847662 16.04839993 -15.91899188 21.75697563 -18 28 C-12.39 28 -6.78 28 -1 28 C-1.99956758 32.99783788 -3.11533971 34.96147559 -6 39 C-6.66 40.051875 -7.32 41.10375 -8 42.1875 C-9.8824367 44.83467661 -11.16613973 46.45425803 -14 48 C-16.75 48.1875 -16.75 48.1875 -19 48 C-14.44303797 44.20253165 -14.44303797 44.20253165 -11.8125 43 C-9.44309361 41.6927413 -9.05583682 40.46361926 -8 38 C-7.00585407 36.32983484 -6.0064275 34.66279327 -5 33 C-4.67 32.34 -4.34 31.68 -4 31 C-10.40629424 30.79147686 -15.92972642 30.8416805 -22 33 C-20.02577349 20.61002675 -13.83463803 11.54790739 -6 2 C-3.525 2.495 -3.525 2.495 -1 3 C-0.67 2.01 -0.34 1.02 0 0 Z " fill="#8F8838" transform="translate(100,52)"/>
	

	<path d="M0 0 C4.62 0 9.24 0 14 0 C13.67 3.3 13.34 6.6 13 10 C14.32 10.66 15.64 11.32 17 12 C19.58917153 14.31125774 22.09277993 16.67885866 24.578125 19.09960938 C28.24281039 22.62712171 28.24281039 22.62712171 33 24 C33.495 22.515 33.495 22.515 34 21 C34.33 21 34.66 21 35 21 C35 24.96 35 28.92 35 33 C31.29346269 31.76448756 30.35084565 30.03334922 28 27 C27.34 26.67 26.68 26.34 26 26 C25.690625 25.21625 25.38125 24.4325 25.0625 23.625 C23.30025854 19.27122698 20.68264926 17.70936076 16.5625 15.6875 C12.30107863 13.4060638 10.62898384 11.07068465 8 7 C5.93302617 5.53907093 3.82878448 4.29313019 1.609375 3.078125 C1.07828125 2.72234375 0.5471875 2.3665625 0 2 C0 1.34 0 0.68 0 0 Z " fill="#B5B3B2" transform="translate(93,0)"/>
	

	<path d="M0 0 C9.9389332 -0.6168993 9.9389332 -0.6168993 13.6875 1.5625 C15.44312908 4.822954 15.28027248 7.35645778 15 11 C8.61985816 15.04893617 8.61985816 15.04893617 5.625 14.8125 C4 14 4 14 3 13 C2.72046781 10.9412232 2.55265649 8.88271568 2.37890625 6.8125 C2.25386719 6.214375 2.12882813 5.61625 2 5 C1.34 4.67 0.68 4.34 0 4 C0 2.68 0 1.36 0 0 Z " fill="#817A87" transform="translate(0,0)"/>
	

	<path d="M0 0 C0.73468506 0.26522461 1.46937012 0.53044922 2.22631836 0.80371094 C8.01414386 3.00847491 13.28519868 5.77840339 17.5 10.4375 C17.5 11.0975 17.5 11.7575 17.5 12.4375 C18.0775 12.72625 18.655 13.015 19.25 13.3125 C19.9925 13.68375 20.735 14.055 21.5 14.4375 C22.139375 14.705625 22.77875 14.97375 23.4375 15.25 C27.34590212 17.50029213 30.02437846 20.72406768 32.5 24.4375 C25.77524753 23.14978144 21.65120917 19.81514875 16.5 15.4375 C15.33597656 14.47457031 15.33597656 14.47457031 14.1484375 13.4921875 C10.0116404 9.99856734 10.0116404 9.99856734 8.5 8.4375 C8.5 7.7775 8.5 7.1175 8.5 6.4375 C7.77425781 6.15003906 7.04851562 5.86257812 6.30078125 5.56640625 C4.56080454 4.86507673 2.827453 4.14675782 1.10546875 3.40234375 C-7.41278977 -0.21688402 -14.33467789 -0.94154152 -23.5 0.4375 C-17.56959446 -5.49290554 -6.97388686 -2.58095686 0 0 Z " fill="#D89341" transform="translate(63.5,30.5625)"/>
	

	<path d="M0 0 C6.33653137 1.31512915 6.33653137 1.31512915 8.9375 4 C10.81863422 9.31143781 10.81524536 14.43215669 9.11328125 19.79296875 C6.58169444 22.43686256 5.87613317 22.35578511 2.33203125 22.48828125 C0.49155452 22.45505965 -1.34859332 22.3954486 -3.1875 22.3125 C-4.12787109 22.28994141 -5.06824219 22.26738281 -6.03710938 22.24414062 C-8.35967473 22.18519227 -10.67903776 22.10297785 -13 22 C-13 21.01 -13 20.02 -13 19 C-12.04738281 19.02320312 -11.09476562 19.04640625 -10.11328125 19.0703125 C-8.85902344 19.08835937 -7.60476562 19.10640625 -6.3125 19.125 C-5.07113281 19.14820312 -3.82976562 19.17140625 -2.55078125 19.1953125 C0.81237857 19.01032021 2.9985587 18.45767895 6 17 C6.36758629 10.0030248 6.36758629 10.0030248 3 4 C0.93045153 2.21655822 0.93045153 2.21655822 -1 1 C-0.67 0.67 -0.34 0.34 0 0 Z " fill="#237588" transform="translate(95,58)"/>
	

	<path d="M0 0 C0.8559375 -0.020625 1.711875 -0.04125 2.59375 -0.0625 C11.31300186 -0.11534395 18.11382007 2.45542418 25.8125 6.4375 C26.84503906 6.96730469 27.87757812 7.49710938 28.94140625 8.04296875 C29.70324219 8.44128906 30.46507812 8.83960938 31.25 9.25 C31.25 9.58 31.25 9.91 31.25 10.25 C26.46419531 10.58389335 24.2137879 9.86029935 20.25 7.25 C7.44960526 1.08684698 -6.15578001 2.9977032 -19.75 5.25 C-13.52841805 -0.26054401 -7.94965205 0.04703936 0 0 Z " fill="#AF9937" transform="translate(50.75,22.75)"/>
	

	

	

	<path d="M0 0 C0.99 0.33 1.98 0.66 3 1 C0.1220071 3.96793018 -2.81126236 6.67937574 -6 9.3125 C-10.84575424 13.5078789 -14.89077119 18.53809731 -16 25 C-15.814375 26.03125 -15.62875 27.0625 -15.4375 28.125 C-15.293125 29.07375 -15.14875 30.0225 -15 31 C-15.66 31.66 -16.32 32.32 -17 33 C-16.73377355 38.14704477 -15.68097802 42.39203318 -13.71875 47.140625 C-12.97255247 49.07100556 -12.463649 50.98491011 -12 53 C-15.41302002 49.99654238 -16.89432126 47.42881656 -18.3125 43.125 C-18.65925781 42.11695313 -19.00601562 41.10890625 -19.36328125 40.0703125 C-20.07006831 36.66212458 -19.71993082 34.37954786 -19 31 C-18.95473337 29.60427878 -18.91280117 28.20844336 -18.875 26.8125 C-17.82604081 16.93896349 -9.33773227 8.03509978 -2.3125 1.5 C-1.549375 1.005 -0.78625 0.51 0 0 Z " fill="#8F8838" transform="translate(28,28)"/>
	

	

	<path d="M0 0 C2.97 0.33 5.94 0.66 9 1 C9 3.64 9 6.28 9 9 C9.66 9.33 10.32 9.66 11 10 C11.33 10.99 11.66 11.98 12 13 C13.65 13 15.3 13 17 13 C17.33 14.65 17.66 16.3 18 18 C14.04173281 17.43453326 11.240291 16.36453668 8 14 C6.8125 11.875 6.8125 11.875 6 10 C5.34 9.67 4.68 9.34 4 9 C4 8.34 4 7.68 4 7 C2.68 6.34 1.36 5.68 0 5 C0 3.35 0 1.7 0 0 Z " fill="#EDD532" transform="translate(17,77)"/>
	

	<path d="M0 0 C1.65 0.33 3.3 0.66 5 1 C5 1.66 5 2.32 5 3 C5.639375 3.226875 6.27875 3.45375 6.9375 3.6875 C9 5 9 5 9.75 7.625 C9.87375 8.800625 9.87375 8.800625 10 10 C5.9472484 10.98248524 2.16138263 11.08159574 -2 11 C-2.66 9.68 -3.32 8.36 -4 7 C-3.525625 6.5875 -3.05125 6.175 -2.5625 5.75 C-0.83733482 3.817815 -0.43415125 2.51807725 0 0 Z " fill="#DA3A59" transform="translate(27,38)"/>
	

	<path d="M0 0 C0.66 0 1.32 0 2 0 C1.44955394 4.12467583 0.16305908 6.55658462 -2.3125 9.875 C-6.99666717 16.36961215 -10.25930758 21.98242007 -12.09375 29.86328125 C-13 32 -13 32 -15.09375 33.29296875 C-16.03734375 33.64294922 -16.03734375 33.64294922 -17 34 C-13.83683236 22.85039492 -9.69156506 10.92472359 -2 2 C-1.34 2 -0.68 2 0 2 C0 1.34 0 0.68 0 0 Z " fill="#DA3E5B" transform="translate(91,53)"/>
	

	<path d="M0 0 C1.65 0 3.3 0 5 0 C4.88570603 1.77155654 4.75816963 3.54226229 4.625 5.3125 C4.55539063 6.29863281 4.48578125 7.28476563 4.4140625 8.30078125 C4 11 4 11 2 14 C1.83300768 17.12521833 1.83300768 17.12521833 2 20 C0.53775201 19.57576756 -0.91973412 19.13509755 -2.375 18.6875 C-3.18710937 18.44386719 -3.99921875 18.20023438 -4.8359375 17.94921875 C-7 17 -7 17 -9 14 C-6.36 14 -3.72 14 -1 14 C-1.020625 13.0925 -1.04125 12.185 -1.0625 11.25 C-1.01023612 8.53227849 -0.68780087 6.57925328 0 4 C0 2.68 0 1.36 0 0 Z " fill="#F0D932" transform="translate(44,81)"/>
	

	<path d="M0 0 C0.66 0.99 1.32 1.98 2 3 C1.1875 4.9375 1.1875 4.9375 0 7 C-2.88211302 7.96070434 -4.69850044 8.10581883 -7.6875 8.0625 C-8.89986328 8.04896484 -8.89986328 8.04896484 -10.13671875 8.03515625 C-11.05904297 8.01775391 -11.05904297 8.01775391 -12 8 C-12.495 5.525 -12.495 5.525 -13 3 C-9.43613274 -0.71881801 -4.87120042 -0.9591939 0 0 Z " fill="#E4C534" transform="translate(54,61)"/>
	

	<path d="M0 0 C0.33 0 0.66 0 1 0 C1 4.95 1 9.9 1 15 C-3.95 15 -8.9 15 -14 15 C-11 12 -11 12 -7.9375 11.1875 C-6.968125 10.795625 -5.99875 10.40375 -5 10 C-3.73751094 7.12935917 -3.73751094 7.12935917 -3 4 C-1.4375 1.625 -1.4375 1.625 0 0 Z " fill="#F7F6F7" transform="translate(127,113)"/>
	

	<path d="M0 0 C8.03318085 1.46590891 8.03318085 1.46590891 10.61328125 4.92578125 C10.61328125 5.91578125 10.61328125 6.90578125 10.61328125 7.92578125 C4.88857903 9.58293189 -0.03263313 8.21462765 -5.38671875 5.92578125 C-5.71671875 5.26578125 -6.04671875 4.60578125 -6.38671875 3.92578125 C-4.58630819 1.14332856 -3.40279925 -0.10581536 0 0 Z " fill="#D6AE37" transform="translate(43.38671875,46.07421875)"/>
	

	<path d="M0 0 C0.66 0.33 1.32 0.66 2 1 C1.01 1.6496875 1.01 1.6496875 0 2.3125 C-0.66 2.869375 -1.32 3.42625 -2 4 C-2 4.99 -2 5.98 -2 7 C-1.37351562 7.06058594 -0.74703125 7.12117188 -0.1015625 7.18359375 C0.71570313 7.26738281 1.53296875 7.35117188 2.375 7.4375 C3.59316406 7.55931641 3.59316406 7.55931641 4.8359375 7.68359375 C7 8 7 8 9 9 C8.34 12.3 7.68 15.6 7 19 C6.34 18.67 5.68 18.34 5 18 C5.33 15.36 5.66 12.72 6 10 C3.03 9.67 0.06 9.34 -3 9 C-2.39816251 11.02045442 -1.72693904 13.02111039 -1 15 C-0.34 15.33 0.32 15.66 1 16 C1 16.66 1 17.32 1 18 C1.639375 18.2475 2.27875 18.495 2.9375 18.75 C5 20 5 20 5.75 22.125 C5.8325 22.74375 5.915 23.3625 6 24 C0.8687187 22.2895729 -2.47174571 17.61765177 -5.15625 13.01953125 C-6.64662096 9.7834943 -7.15309095 8.45927285 -6 5 C-4.12382302 3.15500602 -2.07262391 1.6316401 0 0 Z " fill="#D6AE37" transform="translate(20,68)"/>
	

	<path d="M0 0 C6.44215918 1.59911753 10.80769345 4.05432522 15.76171875 8.4765625 C22.15408756 12.82738944 32.4903337 11.60185773 40 11 C43.29659227 10.35353933 46.43818728 9.55366602 49.64453125 8.55859375 C52 8 52 8 55 9 C47.29851428 12.54268343 40.48277323 13.18127659 32.0625 13.1875 C31.19431641 13.19974609 30.32613281 13.21199219 29.43164062 13.22460938 C21.5695169 13.24243732 15.58512079 11.63844272 8.75 7.625 C7.73421875 7.03976563 6.7184375 6.45453125 5.671875 5.8515625 C3.12902162 4.08940972 1.6593899 2.58001032 0 0 Z " fill="#8F8838" transform="translate(26,92)"/>
	

	<path d="M0 0 C0.33 0 0.66 0 1 0 C1 1.98 1 3.96 1 6 C0.29875 5.855625 -0.4025 5.71125 -1.125 5.5625 C-4.8121489 6.12358788 -6.12237289 7.7960207 -8.37890625 10.65625 C-12.10847662 16.04839993 -15.91899188 21.75697563 -18 28 C-18.66 28 -19.32 28 -20 28 C-19.5614402 22.18722437 -17.96179617 18.64237522 -14.6875 13.875 C-14.29626953 13.28074219 -13.90503906 12.68648437 -13.50195312 12.07421875 C-11.16941049 8.56960245 -8.68031705 5.25072778 -6 2 C-4.35 2.33 -2.7 2.66 -1 3 C-0.67 2.01 -0.34 1.02 0 0 Z " fill="#817A87" transform="translate(100,52)"/>
	

	<path d="M0 0 C0.66 0.33 1.32 0.66 2 1 C-0.64797203 2.39620343 -3.29654193 3.71893471 -6 5 C-6.65097656 5.33128906 -7.30195312 5.66257812 -7.97265625 6.00390625 C-15.88132928 9.40204514 -26.0459372 7.79617198 -33.984375 4.91796875 C-34.64953125 4.61503906 -35.3146875 4.31210938 -36 4 C-36 3.67 -36 3.34 -36 3 C-35.28980713 3.01047363 -34.57961426 3.02094727 -33.84790039 3.03173828 C-30.58613721 3.07367486 -27.32443104 3.09944486 -24.0625 3.125 C-22.94552734 3.14175781 -21.82855469 3.15851563 -20.67773438 3.17578125 C-13.61640174 3.21719669 -6.46671051 3.23335525 0 0 Z " fill="#424240" transform="translate(79,101)"/>
	

	<path d="M0 0 C0.99 0.33 1.98 0.66 3 1 C2.34 1 1.68 1 1 1 C1.33 1.99 1.66 2.98 2 4 C3.0725 3.87625 4.145 3.7525 5.25 3.625 C6.4875 3.74875 7.725 3.8725 9 4 C11.4375 7 11.4375 7 13 10 C14.65 9.67 16.3 9.34 18 9 C17.67 11.64 17.34 14.28 17 17 C14.36 16.34 11.72 15.68 9 15 C9 12.03 9 9.06 9 6 C6.8034375 6.2784375 6.8034375 6.2784375 4.5625 6.5625 C3.04681929 6.75462854 1.52519276 6.91062197 0 7 C-1 6 -1 6 -1.125 3.5 C-1 1 -1 1 0 0 Z " fill="#DA3F5B" transform="translate(37,31)"/>
	

	<path d="M0 0 C3.125 0.375 3.125 0.375 6 1 C6.33 2.65 6.66 4.3 7 6 C5.3125 7.5625 5.3125 7.5625 3 9 C0.25 8.6875 0.25 8.6875 -2 8 C-2.125 5.125 -2.125 5.125 -2 2 C-1.34 1.34 -0.68 0.68 0 0 Z " fill="#BDBCB9" transform="translate(7,4)"/>
	

	<path d="M0 0 C-0.99 2.31 -1.98 4.62 -3 7 C-4.24546405 4.50907189 -3.7767578 3.58919267 -3 1 C-12.05029898 1.48963223 -17.0964111 3.9326353 -23.72265625 10.1015625 C-26 12 -26 12 -29 12 C-20.50948394 0.96464261 -13.62465437 -0.62244614 0 0 Z " fill="#D59E3C" transform="translate(97,82)"/>
	

	<path d="M0 0 C1.875 1.5 1.875 1.5 3 3 C3 3.33 3 3.66 3 4 C-1.95 4 -6.9 4 -12 4 C-12 3.01 -12 2.02 -12 1 C-7.56980483 -0.79317423 -4.6336848 -1.33862005 0 0 Z " fill="#525348" transform="translate(30,124)"/>
	

	

	<path d="M0 0 C0.66 0.33 1.32 0.66 2 1 C2 2.32 2 3.64 2 5 C7.46137814 5.09752461 12.59255982 4.77249145 18 4 C13.60852102 7.36680055 11.46334737 8.1219505 5.875 8.0625 C4.77929688 8.05347656 3.68359375 8.04445313 2.5546875 8.03515625 C1.29011719 8.01775391 1.29011719 8.01775391 0 8 C-0.79953138 4.71303767 -1.09658936 3.28976808 0 0 Z " fill="#DA4858" transform="translate(50,91)"/>
	

	<path d="M0 0 C1.7074998 1.28062485 3.37373596 2.61767557 5 4 C5 4.66 5 5.32 5 6 C1.62902617 7.49821059 -0.20442119 8 -4 8 C-4.25 5.6875 -4.25 5.6875 -4 3 C-2 1.1875 -2 1.1875 0 0 Z " fill="#F0D932" transform="translate(17,46)"/>
	

	<path d="M0 0 C0.99 0.33 1.98 0.66 3 1 C3.0825 2.258125 3.165 3.51625 3.25 4.8125 C3.66557143 8.33811212 3.66557143 8.33811212 6.0625 11 C6.701875 11.33 7.34125 11.66 8 12 C5.36 12.66 2.72 13.32 0 14 C0 9.38 0 4.76 0 0 Z " fill="#525348" transform="translate(0,4)"/>
	

	<path d="M0 0 C3.96 0 7.92 0 12 0 C11.030625 1.051875 10.06125 2.10375 9.0625 3.1875 C6.58173738 6.05934755 5.23631973 8.1007244 5 12 C4.34 11.67 3.68 11.34 3 11 C3.0928125 9.39125 3.0928125 9.39125 3.1875 7.75 C3.33385378 3.66833099 3.33385378 3.66833099 0 0 Z " fill="#515247" transform="translate(11,0)"/>
	

	

	

	

	<path d="M0 0 C4.28094249 0.30082299 6.18748029 1.81716516 8.99414062 4.99804688 C9.42919922 5.51431641 9.86425781 6.03058594 10.3125 6.5625 C10.76689453 7.08263672 11.22128906 7.60277344 11.68945312 8.13867188 C12.80339243 9.41677066 13.90314888 10.70720655 15 12 C14.67 12.66 14.34 13.32 14 14 C9 9 9 9 7 6.875 C5.00498121 4.86833262 5.00498121 4.86833262 2.25 3.375 C1.5075 2.92125 0.765 2.4675 0 2 C0 1.34 0 0.68 0 0 Z " fill="#7D7682" transform="translate(93,0)"/>
	

	

	

	

	<path d="M0 0 C0.33 0 0.66 0 1 0 C1.08278685 4.13934225 1.15898212 8.09910132 0.4375 12.1875 C-0.05737241 15.36882265 0.32909211 17.86909651 1 21 C-1.05303721 19.32615172 -1.92435469 18.4579388 -2.36328125 15.80078125 C-2.24935682 10.2184842 -1.58780184 5.35883121 0 0 Z " fill="#525348" transform="translate(9,50)"/>
	

	

	

	<path d="M0 0 C-0.33 1.65 -0.66 3.3 -1 5 C-2.875 5.625 -2.875 5.625 -5 6 C-5.66 5.34 -6.32 4.68 -7 4 C-7 3.01 -7 2.02 -7 1 C-4.53721199 -0.231394 -2.7204945 -0.07159196 0 0 Z " fill="#D4BA59" transform="translate(45,39)"/>
	

	

	

	

	<path d="M0 0 C3.71045247 1.57780923 6.29906384 3.90703248 9.25 6.625 C10.14203125 7.44226562 11.0340625 8.25953125 11.953125 9.1015625 C12.96632813 10.04128906 12.96632813 10.04128906 14 11 C13.67 11.66 13.34 12.32 13 13 C12.4225 12.38125 11.845 11.7625 11.25 11.125 C9.19750179 9.18652947 7.56633418 8.09985751 5 7 C5 6.34 5 5.68 5 5 C4.34 5 3.68 5 3 5 C1.375 2.5 1.375 2.5 0 0 Z " fill="#A09137" transform="translate(82,33)"/>
	

	<path d="M0 0 C-1.55851755 0.82011312 -3.12201716 1.63076213 -4.6875 2.4375 C-5.55761719 2.88996094 -6.42773438 3.34242187 -7.32421875 3.80859375 C-9.90998264 4.95991928 -12.21356528 5.56320753 -15 6 C-11.89463325 2.08453757 -5.00935571 -2.50467786 0 0 Z " fill="#817A87" transform="translate(120,122)"/>
	

	

	

	

	<path d="M0 0 C2.5 1.375 2.5 1.375 5 3 C5 3.66 5 4.32 5 5 C5.639375 5.2475 6.27875 5.495 6.9375 5.75 C9 7 9 7 9.75 9.125 C9.87375 10.053125 9.87375 10.053125 10 11 C6.59048278 9.86349426 5.62363724 8.74186875 3.3125 6.0625 C2.68988281 5.35222656 2.06726563 4.64195313 1.42578125 3.91015625 C0 2 0 2 0 0 Z " fill="#A89537" transform="translate(16,81)"/>
	

	<path d="M0 0 C4.455 2.97 4.455 2.97 9 6 C8.67 7.32 8.34 8.64 8 10 C7.236875 9.21625 6.47375 8.4325 5.6875 7.625 C3.09108195 4.92742283 3.09108195 4.92742283 0 3 C0 2.01 0 1.02 0 0 Z " fill="#7D7681" transform="translate(119,23)"/>
	

	<path d="M0 0 C1.32 0.33 2.64 0.66 4 1 C4 1.99 4 2.98 4 4 C2.02 4.99 2.02 4.99 0 6 C-0.66 5.01 -1.32 4.02 -2 3 C-1.34 2.01 -0.68 1.02 0 0 Z " fill="#F7F6F7" transform="translate(8,6)"/>
	

	

	

	<path d="M0 0 C0.66 0 1.32 0 2 0 C0.33333333 3.33333333 -1.33333333 6.66666667 -3 10 C-4 7 -4 7 -2.625 3.875 C-1 1 -1 1 0 0 Z " fill="#817A87" transform="translate(126,108)"/>
	

	

	<path d="M0 0 C0.33 0 0.66 0 1 0 C1 1.98 1 3.96 1 6 C-4.75 5.125 -4.75 5.125 -7 4 C-6.67 3.34 -6.34 2.68 -6 2 C-4.35 2.33 -2.7 2.66 -1 3 C-0.67 2.01 -0.34 1.02 0 0 Z " fill="#8F8838" transform="translate(100,52)"/>
	

	

	

</svg>
