<?xml version="1.0" encoding="iso-8859-1"?>
<svg height="128" version="1.1" width="128" xmlns="http://www.w3.org/2000/svg">
	

	<path d="M0 0 C42.24 0 84.48 0 128 0 C128 42.24 128 84.48 128 128 C85.76 128 43.52 128 0 128 C0 85.76 0 43.52 0 0 Z " fill="#FDFDFC" transform="translate(0,0)"/>
	

	<path d="M0 0 C1.15899307 0.0101413 2.31798615 0.02028259 3.51210022 0.0307312 C5.47940346 0.04162277 5.47940346 0.04162277 7.4864502 0.05273438 C8.92477997 0.07177569 10.36309902 0.09164233 11.80140686 0.11227417 C13.27109437 0.12828988 14.74078545 0.14398179 16.21047974 0.15936279 C19.29325759 0.19438322 22.37579292 0.23776247 25.45838928 0.28610229 C29.41067109 0.34678466 33.36265775 0.38004488 37.31529903 0.40616035 C40.35153934 0.43039732 43.38733522 0.47260115 46.42329597 0.51989365 C47.88048126 0.53977005 49.33776841 0.55323916 50.79507256 0.560215 C52.8324537 0.5719881 54.86961997 0.61127025 56.90663147 0.65182495 C58.06642014 0.66673981 59.2262088 0.68165466 60.42114258 0.69702148 C63.27406311 1.22946167 63.27406311 1.22946167 65.11734009 3.05462646 C66.44068415 5.54273745 67.01465308 7.9979503 67.62171936 10.73727417 C68.40820009 13.74191314 69.48923719 16.57376999 70.58656311 19.47946167 C73.05574979 26.22615117 74.79250144 33.038387 76.45765686 40.021698 C77.79115055 45.5356307 79.38795051 50.79123895 81.57484436 56.03805542 C82.37101603 58.53331969 82.39803569 60.62603744 82.27406311 63.22946167 C76.63834111 67.07678122 72.88439516 67.77677721 66.14906311 67.22946167 C65.36402405 67.19723511 64.57898499 67.16500854 63.77015686 67.13180542 C58.82132263 66.80633403 55.78253766 66.03323869 52.27406311 62.22946167 C52.22962964 60.22995531 52.23485496 58.22907731 52.27406311 56.22946167 C51.1459346 53.71520217 49.76635886 51.56117378 48.27406311 49.22946167 C46.97556456 50.30373596 46.97556456 50.30373596 47.14906311 52.85446167 C47.20497665 56.30742163 47.20497665 56.30742163 47.89906311 59.97946167 C48.02281311 61.05196167 48.14656311 62.12446167 48.27406311 63.22946167 C46.27406311 65.22946167 46.27406311 65.22946167 44.32875061 65.42477417 C42.31052144 65.35967 40.29229228 65.29456584 38.27406311 65.22946167 C36.98957341 67.79844107 37.55908629 68.49266297 38.27406311 71.22946167 C38.44816257 73.26891246 38.59093392 75.31115094 38.71156311 77.35446167 C38.99234889 81.65822989 39.53109703 85.61355772 40.58656311 89.79196167 C41.47833083 93.8781212 41.47833083 93.8781212 39.71156311 96.91696167 C37.27406311 98.22946167 37.27406311 98.22946167 34.64906311 98.16696167 C32.27406311 97.22946167 32.27406311 97.22946167 30.27406311 94.22946167 C28.44500296 88.10549732 27.71223676 82.08132181 27.14906311 75.72946167 C27.06269592 74.81164917 26.97632874 73.89383667 26.88734436 72.94821167 C26.67742545 70.70907667 26.47311402 68.4695844 26.27406311 66.22946167 C25.35069153 66.24517212 24.42731995 66.26088257 23.47596741 66.27706909 C20.04866422 66.32820999 16.62176669 66.36581702 13.19422913 66.39425659 C11.71109112 66.40933935 10.22799768 66.42980856 8.74501038 66.45578003 C6.61265566 66.49218783 4.48089076 66.5091924 2.34828186 66.52243042 C1.06526184 66.53814087 -0.21775818 66.55385132 -1.53965759 66.57003784 C-4.72593689 66.22946167 -4.72593689 66.22946167 -6.64317322 64.94161987 C-8.52190111 61.97081521 -8.15538852 58.62966348 -8.10093689 55.22946167 C-8.11253845 54.50500854 -8.12414001 53.78055542 -8.13609314 53.03414917 C-8.10693341 47.76595878 -8.10693341 47.76595878 -6.51074219 45.51829529 C-4.1382719 43.80510031 -2.68273766 43.87894479 0.22938538 43.92062378 C1.23796097 43.92730576 2.24653656 43.93398773 3.28567505 43.94087219 C4.37625717 43.96263016 5.46683929 43.98438812 6.59046936 44.00680542 C7.71670212 44.01579361 8.84293488 44.0247818 10.0032959 44.03404236 C13.61469465 44.06411953 17.22543474 44.11385331 20.83656311 44.16696167 C24.42265638 44.21494342 28.00856498 44.25833989 31.59484863 44.28916931 C33.82662293 44.30875994 36.05834012 44.33819508 38.28982544 44.37910461 C44.87095601 44.44190025 50.88120773 43.8098397 57.27406311 42.22946167 C57.54330769 35.6304961 57.35341963 30.21040684 54.93031311 24.00680542 C54.27406311 22.22946167 54.27406311 22.22946167 54.27406311 20.22946167 C53.37389465 20.20440552 52.4737262 20.17934937 51.54627991 20.15353394 C21.37846346 19.30392623 21.37846346 19.30392623 10.14906311 18.79196167 C9.43065247 18.76497192 8.71224182 18.73798218 7.97206116 18.71017456 C3.43869091 18.4815045 -0.43497091 17.60591439 -4.72593689 16.22946167 C-4.7797821 13.93804881 -4.81865776 11.64627979 -4.85093689 9.35446167 C-4.88574158 7.44020386 -4.88574158 7.44020386 -4.92124939 5.48727417 C-4.67614328 1.39890432 -4.14894796 0.34924672 0 0 Z " fill="#F3120A" transform="translate(29.725936889648438,20.770538330078125)"/>
	

	

	

	

	

	

	

	

	

	

	

	

	

	

	

	

	

	

	

	

	

	

	

	

	

	

	

	

	

	

	

	

	

	

	

	

	

	

	

	

	

	

	

	

	

	

	

	

	

</svg>
