<?xml version="1.0" encoding="iso-8859-1"?>
<svg height="128" version="1.1" width="128" xmlns="http://www.w3.org/2000/svg">
	

	<path d="M0 0 C42.24 0 84.48 0 128 0 C128 42.24 128 84.48 128 128 C85.76 128 43.52 128 0 128 C0 85.76 0 43.52 0 0 Z " fill="#084A99" transform="translate(0,0)"/>
	

	

	<path d="M0 0 C17.49 0 34.98 0 53 0 C50.41098592 3.88352112 48.70439509 3.87230504 44.25 5 C29.59676901 8.74125046 19.59620609 17.44992768 11.6640625 30.13671875 C10.74630601 31.74116538 9.86802543 33.3681122 9 35 C8.34 35 7.68 35 7 35 C6.32098956 37.81001195 5.65666828 40.62225661 5 43.4375 C4.80921875 44.22060547 4.6184375 45.00371094 4.421875 45.81054688 C2.3606748 54.75468344 2.65258472 62.35236713 5.0625 71.1875 C5.39640747 72.42197876 5.39640747 72.42197876 5.73706055 73.68139648 C9.31461073 86.2412445 15.24737038 98.92600244 25.7421875 107.1484375 C26.48726562 107.75945312 27.23234375 108.37046875 28 109 C28 109.66 28 110.32 28 111 C28.56976562 111.27199219 29.13953125 111.54398437 29.7265625 111.82421875 C32.04939903 113.0255483 34.17976974 114.39271797 36.375 115.8125 C41.59958801 118.98595346 46.99496711 120.94629477 52.76953125 122.8984375 C56.27894789 124.09511887 59.62465356 125.47305756 63 127 C63 127.33 63 127.66 63 128 C42.21 128 21.42 128 0 128 C0 85.76 0 43.52 0 0 Z " fill="#F7F8F9" transform="translate(0,0)"/>
	

	<path d="M0 0 C2.38090806 2.19920103 4.32738575 4.6946155 6.3125 7.25 C6.88137939 7.96422119 7.45025879 8.67844238 8.03637695 9.41430664 C12.33066198 14.89985837 16.05108118 20.58165131 19.51171875 26.62109375 C20.77935069 29.10678878 20.77935069 29.10678878 23 30 C22.44014507 33.37348482 21.61343771 34.62336167 18.875 36.625 C14.84258147 39.82454681 12.47395222 43.6225945 9.87109375 48.0234375 C8 50 8 50 4.94140625 50.37890625 C1.02239172 49.8740664 -0.2330351 48.83613902 -3 46 C-3.97245297 44.44624833 -4.92973493 42.88294038 -5.875 41.3125 C-7.95418151 38.13040241 -8.70113422 37.13793805 -12.25 35.5 C-17.06935743 36.14258099 -19.44110984 38.23605713 -23.24609375 41.140625 C-29.50632701 45.36739242 -36.49236357 47.27764928 -44 47 C-42.78273716 43.5354827 -41.56145682 41.56145682 -39 39 C-38.9278125 38.40703125 -38.855625 37.8140625 -38.78125 37.203125 C-37.58499835 33.82969533 -34.88386416 32.30154535 -32.0625 30.3125 C-31.51142578 29.90966797 -30.96035156 29.50683594 -30.39257812 29.09179688 C-28.31552793 27.58511527 -26.29877479 26.14938739 -24 25 C-24 23.35 -24 21.7 -24 20 C-24.66 20 -25.32 20 -26 20 C-28.22656164 15.25645564 -29.46148032 11.27749285 -30 6 C-26.59932099 4.86644033 -24.25451288 5.06897512 -20.6875 5.25 C-15.03586694 5.37026475 -15.03586694 5.37026475 -10.375 2.5625 C-9.59125 1.716875 -8.8075 0.87125 -8 0 C-4.49832717 -1.16722428 -3.43849274 -1.290055 0 0 Z " fill="#F9F9FA" transform="translate(78,34)"/>
	

	<path d="M0 0 C19.47 0 38.94 0 59 0 C59 18.81 59 37.62 59 57 C55.21424482 54.47616322 54.97230164 52.1204809 54 47.9375 C53.65655869 46.57381207 53.31151055 45.21052779 52.96484375 43.84765625 C52.64644531 42.57792969 52.32804687 41.30820312 52 40 C50.36408198 33.82462359 48.86919686 30.38227718 44 26 C43.38125 24.824375 43.38125 24.824375 42.75 23.625 C39.97266197 19.45899296 36.04241689 16.88270712 32 14 C31.35804687 13.53207031 30.71609375 13.06414063 30.0546875 12.58203125 C22.56017268 7.48638833 13.70868626 5.0597264 4.83984375 3.58984375 C3 3 3 3 0 0 Z " fill="#FAFAFA" transform="translate(69,0)"/>
	

	

	<path d="M0 0 C0.33 0 0.66 0 1 0 C1 16.5 1 33 1 50 C-17.15 50 -35.3 50 -54 50 C-50.60963354 47.45722515 -49.19866611 46.54621483 -45.375 45.5 C-44.49457031 45.24605469 -43.61414063 44.99210937 -42.70703125 44.73046875 C-40.98314705 44.26529365 -39.25153635 43.82727762 -37.51171875 43.42578125 C-27.49931976 40.91868932 -18.41416167 34.05929247 -12 26 C-10.2241456 22.68994963 -10.2241456 22.68994963 -9 19 C-8.27625928 17.18532657 -7.54686024 15.37290198 -6.8125 13.5625 C-6.2074755 12.04200773 -5.6030076 10.52129327 -5 9 C-4.34 9 -3.68 9 -3 9 C-2.814375 7.329375 -2.814375 7.329375 -2.625 5.625 C-2 2 -2 2 0 0 Z " fill="#FAFAFA" transform="translate(127,78)"/>
	

	

	

	

	

	

	

	

	

	

	

	

	

	

	

	

	

	

	

	

	

	

	

	

	

	

	

	

	

	

	

	

	

	

	

	

	

	

	

	

	

	

	

	

	

	

	

	

	

	

	

	

	

	

	

	

</svg>
