<?xml version="1.0" encoding="UTF-8"?>
<svg version="1.1" xmlns="http://www.w3.org/2000/svg" width="128" height="128">
<path d="M0 0 C42.24 0 84.48 0 128 0 C128 42.24 128 84.48 128 128 C85.76 128 43.52 128 0 128 C0 85.76 0 43.52 0 0 Z " fill="#FCFCFC" transform="translate(0,0)"/>
<path d="M0 0 C5.24731002 0.45628783 5.24731002 0.45628783 7.58984375 2.1484375 C9.56423308 4.74084898 10.00151139 7.2027564 10.6875 10.375 C10.93886719 11.49648438 11.19023438 12.61796875 11.44921875 13.7734375 C12.35007445 19.05079077 11.98407909 22.09815755 10 27 C9.835 28.175625 9.67 29.35125 9.5 30.5625 C9 34 9 34 7.9375 36.0625 C6.77768244 38.10072346 6.77768244 38.10072346 7 41.0625 C7 44 7 44 5 47 C6.28062485 48.7074998 7.61767557 50.37373596 9 52 C9.66 52 10.32 52 11 52 C11.61875 51.030625 12.2375 50.06125 12.875 49.0625 C15 46 15 46 17.1875 45.0625 C17.785625 45.041875 18.38375 45.02125 19 45 C19.33 45.33 19.66 45.66 20 46 C19.9375 49.25 19.9375 49.25 19 53 C17.02043058 54.69088222 15.02054804 56.35830472 13 58 C11.76383164 62.09341059 11.76383164 62.09341059 13 66 C13.85271484 65.94779297 13.85271484 65.94779297 14.72265625 65.89453125 C20.33837696 65.69765289 24.01054992 66.40132808 29 69 C30 70 30 70 30.25 73.25 C29.98775679 77.1836482 29.4253911 78.9458038 27 82 C25.515 82.495 25.515 82.495 24 83 C23.67 83.66 23.34 84.32 23 85 C23.78375 85.268125 24.5675 85.53625 25.375 85.8125 C28 87 28 87 30 90 C30 90.99 30 91.98 30 93 C28.515 93.495 28.515 93.495 27 94 C23.14096436 91.78310719 20.02268223 89.25519625 17 86 C16.319375 86.845625 15.63875 87.69125 14.9375 88.5625 C12 91 12 91 8.375 91.125 C5 90 5 90 3 87.8125 C1.80234294 84.44408952 2.12379893 82.42514962 3 79 C2.360625 79.061875 1.72125 79.12375 1.0625 79.1875 C-1.78122154 79.0133946 -3.5519924 78.52511448 -6.1875 77.5625 C-11.0792752 75.8166139 -15.83840864 75.31249718 -21 75 C-21 75.99 -21 76.98 -21 78 C-20.175 78.20625 -19.35 78.4125 -18.5 78.625 C-14.10856178 80.35020787 -10.45318451 82.77469061 -7 86 C-7 86.66 -7 87.32 -7 88 C-6.41476563 88.23976563 -5.82953125 88.47953125 -5.2265625 88.7265625 C-2.55751409 90.25307089 -1.22153578 91.92650983 0.625 94.375 C1.21539062 95.14585938 1.80578125 95.91671875 2.4140625 96.7109375 C4 99 4 99 5.07421875 101.16796875 C5.96355778 103.20784934 5.96355778 103.20784934 8.1875 104.9375 C10 107 10 107 10.1875 109.5 C8.3611852 113.34487326 5.81339146 114.19365668 2 116 C1.34 116 0.68 116 0 116 C-0.495 117.485 -0.495 117.485 -1 119 C-5.06048607 122.22405635 -8.53129225 122.45981296 -13.625 122.5 C-14.93726563 122.5309375 -16.24953125 122.561875 -17.6015625 122.59375 C-21 122 -21 122 -22.703125 119.63671875 C-23.13109375 118.76660156 -23.5590625 117.89648438 -24 117 C-25.96406254 115.44887215 -25.96406254 115.44887215 -28.125 114.3125 C-31.90700637 112.18598726 -31.90700637 112.18598726 -33 110 C-33.23076923 104.46153846 -33.23076923 104.46153846 -32 102 C-26.11578686 100.03859562 -21.6354898 100.48501283 -16.125 103.0625 C-15.38507813 103.44535156 -14.64515625 103.82820313 -13.8828125 104.22265625 C-13.26148438 104.47917969 -12.64015625 104.73570313 -12 105 C-11.34 104.67 -10.68 104.34 -10 104 C-11.50566464 100.1673991 -13.80257213 98.49555346 -17 96 C-17.433125 95.34 -17.86625 94.68 -18.3125 94 C-20.1418246 91.83191158 -21.32012633 91.30973423 -23.875 90.1875 C-28.29374001 88.1085725 -30.95697012 85.46013565 -33 81 C-33.3125 77.5625 -33.3125 77.5625 -33 75 C-34.94999129 75.19471111 -34.94999129 75.19471111 -37 76 C-38.28436734 77.9837767 -38.28436734 77.9837767 -39 80 C-41.296875 79.84375 -41.296875 79.84375 -44 79 C-48.64574928 72.66862488 -50.74142765 65.75717055 -51 58 C-50.01 57.34 -49.02 56.68 -48 56 C-46.78715124 52.94570927 -46.78715124 52.94570927 -46 50 C-44.02 50 -42.04 50 -40 50 C-40 52.31 -40 54.62 -40 57 C-36.37471432 57.20140476 -34.13498292 56.85776765 -31 55 C-33.19471406 50.48864333 -35.41173718 48.93726652 -40 47 C-40 46.34 -40 45.68 -40 45 C-40.67546875 44.96261719 -41.3509375 44.92523438 -42.046875 44.88671875 C-42.93890625 44.82097656 -43.8309375 44.75523438 -44.75 44.6875 C-46.07257812 44.60048828 -46.07257812 44.60048828 -47.421875 44.51171875 C-50.38001363 43.92457305 -51.80798017 43.04555971 -54 41 C-55.84058305 36.96824665 -56.47399148 34.21140422 -55 30 C-53.948125 28.5459375 -53.948125 28.5459375 -52.875 27.0625 C-50.66127284 24.11580421 -50.66127284 24.11580421 -51.25 20.625 C-51.4975 19.75875 -51.745 18.8925 -52 18 C-51.01 17.67 -50.02 17.34 -49 17 C-49.37253906 16.38511719 -49.74507812 15.77023438 -50.12890625 15.13671875 C-50.60199219 14.32847656 -51.07507813 13.52023438 -51.5625 12.6875 C-52.03816406 11.88699219 -52.51382813 11.08648437 -53.00390625 10.26171875 C-54 8 -54 8 -53 5 C-48.87426628 5.53750756 -46.70537379 6.77337812 -43.5 9.375 C-37.72047898 13.59716506 -31.96880702 14.85032372 -25 16 C-23.88109375 16.18820313 -22.7621875 16.37640625 -21.609375 16.5703125 C-20.74828125 16.71210938 -19.8871875 16.85390625 -19 17 C-21.74550224 13.13595981 -23.66677663 11.71048291 -28 10 C-29.91300146 7.47831626 -30.05557635 6.40755988 -29.625 3.25 C-29.315625 2.13625 -29.315625 2.13625 -29 1 C-20.01445534 0.5431079 -20.01445534 0.5431079 -16 4 C-12 9.66557377 -12 9.66557377 -12 13 C-10.98679687 13.18175781 -10.98679687 13.18175781 -9.953125 13.3671875 C-9.06109375 13.53476562 -8.1690625 13.70234375 -7.25 13.875 C-5.92742187 14.11863281 -5.92742187 14.11863281 -4.578125 14.3671875 C-2.13052256 14.96796264 -0.19400143 15.77997117 2 17 C0.92598892 14.08482708 0.22189824 12.22189824 -2 10 C-2.01171875 7.87109375 -2.01171875 7.87109375 -1.6875 5.4375 C-1.58824219 4.63183594 -1.48898438 3.82617188 -1.38671875 2.99609375 C-1 1 -1 1 0 0 Z " fill="#96C2CE" transform="translate(81,6)"/>
<path d="M0 0 C0 0.66 0 1.32 0 2 C0.598125 2.185625 1.19625 2.37125 1.8125 2.5625 C4 4 4 4 5.3125 7.4375 C6.69170779 11.24050404 6.69170779 11.24050404 10.25 12.8125 C13.9741201 14.0689607 13.9741201 14.0689607 17.8125 14.75 C18.864375 15.1625 19.91625 15.575 21 16 C21.74259349 18.31029085 22.411438 20.645752 23 23 C24.64363134 23.72159424 26.31050386 24.39351421 28 25 C28.8125 27.625 28.8125 27.625 29 30 C27.35 31.32 25.7 32.64 24 34 C24.495 36.97 24.495 36.97 25 40 C24.01 40.66 23.02 41.32 22 42 C21.79375 42.825 21.5875 43.65 21.375 44.5 C20 47 20 47 18.05078125 47.59375 C16.45165184 47.86864167 14.85133194 48.13668132 13.25 48.3984375 C9.92377109 49.28774176 8.28261505 51.52173224 6 54 C4.68 54 3.36 54 2 54 C2.46800711 49.94393835 2.87953208 46.53411321 5 43 C3.35 43 1.7 43 0 43 C-0.33 43.99 -0.66 44.98 -1 46 C-3.64 46 -6.28 46 -9 46 C-9.33 44.68 -9.66 43.36 -10 42 C-9.38125 41.9175 -8.7625 41.835 -8.125 41.75 C-7.42375 41.5025 -6.7225 41.255 -6 41 C-5.690625 40.34 -5.38125 39.68 -5.0625 39 C-4.711875 38.34 -4.36125 37.68 -4 37 C-1.375 36.25 -1.375 36.25 1 36 C1 35.01 1 34.02 1 33 C-0.79623856 33.39649413 -2.58698435 33.81793452 -4.375 34.25 C-5.87160156 34.59804687 -5.87160156 34.59804687 -7.3984375 34.953125 C-10.1249467 35.75501498 -10.1249467 35.75501498 -11.2890625 38.046875 C-11.52367188 38.69140625 -11.75828125 39.3359375 -12 40 C-12.33 40.33 -12.66 40.66 -13 41 C-15.12769662 40.93552434 -17.25339183 40.79828808 -19.375 40.625 C-20.53773437 40.53476562 -21.70046875 40.44453125 -22.8984375 40.3515625 C-26 40 -26 40 -29 39 C-29.1546875 37.8553125 -29.1546875 37.8553125 -29.3125 36.6875 C-30.04364039 33.82940576 -30.76951913 32.84257115 -33 31 C-32.0420452 28.05771025 -31.0888094 25.19631551 -29.8125 22.375 C-28.91190644 19.74249574 -29.04837786 18.56937977 -30 16 C-29.01 15.67 -28.02 15.34 -27 15 C-27.37253906 14.38511719 -27.74507812 13.77023438 -28.12890625 13.13671875 C-28.60199219 12.32847656 -29.07507813 11.52023438 -29.5625 10.6875 C-30.03816406 9.88699219 -30.51382812 9.08648437 -31.00390625 8.26171875 C-32 6 -32 6 -31 3 C-27.2241456 3.52442422 -24.77627845 4.32654667 -22 7 C-22 7.99 -22 8.98 -22 10 C-21.01 10.33 -20.02 10.66 -19 11 C-18.67 11.66 -18.34 12.32 -18 13 C-15.66255706 13.46806645 -13.30260921 13.82669794 -10.9375 14.125 C-9.00197266 14.37636719 -9.00197266 14.37636719 -7.02734375 14.6328125 C-6.02832031 14.75398438 -5.02929688 14.87515625 -4 15 C-3.67 16.32 -3.34 17.64 -3 19 C-3.66 19 -4.32 19 -5 19 C-5 19.66 -5 20.32 -5 21 C-5.51949219 21.21914063 -6.03898437 21.43828125 -6.57421875 21.6640625 C-11.76304873 24.02349351 -14.84118268 26.21391315 -18 31 C-18.873938 34.22433127 -18.873938 34.22433127 -19 37 C-17.515 36.505 -17.515 36.505 -16 36 C-15.896875 35.401875 -15.79375 34.80375 -15.6875 34.1875 C-14.61468638 30.77400213 -11.95388727 29.85341947 -9 28 C-8.360625 27.29875 -7.72125 26.5975 -7.0625 25.875 C-4.31534092 23.37758265 -1.54422243 22.96660612 2 22 C4.1000198 20.45998548 4.81263377 19.44679638 5.8125 17.0625 C6.05980581 14.34213614 5.48996888 13.28520154 4 11 C1.61477059 9.44554733 1.61477059 9.44554733 -1.125 8.25 C-2.03507812 7.82203125 -2.94515625 7.3940625 -3.8828125 6.953125 C-4.58148438 6.63859375 -5.28015625 6.3240625 -6 6 C-6 4.35 -6 2.7 -6 1 C-4 0 -4 0 0 0 Z " fill="#6BB1D3" transform="translate(59,8)"/>
<path d="M0 0 C2.375 1.5 2.375 1.5 4 4 C4.03181247 7.07520519 3.59217226 9.98764547 3 13 C-0.65316671 11.75023244 -1.78065836 11.32901247 -4 8 C-7.37462715 8.54723683 -9.08235 9.0549 -12 11 C-11.505 16.94 -11.505 16.94 -11 23 C-11.763125 22.649375 -12.52625 22.29875 -13.3125 21.9375 C-18.36755261 20.65231713 -22.8764457 21.32536829 -28 22 C-27.73323796 23.98491642 -27.73323796 23.98491642 -27 26 C-26.01 26.33 -25.02 26.66 -24 27 C-23.5875 27.598125 -23.175 28.19625 -22.75 28.8125 C-21.03712791 31.25093054 -21.03712791 31.25093054 -17.8125 32.6875 C-12.79927071 35.35839594 -9.62315251 39.73341237 -6 44 C-3.44192217 46.61756801 -0.88713804 49.09814083 1.875 51.5 C4 54 4 54 3.93359375 56.421875 C2.71090846 59.79832809 1.15849551 60.78383606 -1.8125 62.75 C-3.12154297 63.63945312 -3.12154297 63.63945312 -4.45703125 64.546875 C-7 66 -7 66 -9.19921875 66.515625 C-11.40789964 66.89748969 -11.40789964 66.89748969 -13 70 C-15.71484375 70.46875 -15.71484375 70.46875 -18.9375 70.5 C-19.99839844 70.5309375 -21.05929688 70.561875 -22.15234375 70.59375 C-25 70 -25 70 -26.62109375 67.63671875 C-27.30365234 66.33154297 -27.30365234 66.33154297 -28 65 C-29.96406254 63.44887215 -29.96406254 63.44887215 -32.125 62.3125 C-35.90700637 60.18598726 -35.90700637 60.18598726 -37 58 C-37.23076923 52.46153846 -37.23076923 52.46153846 -36 50 C-30.11578686 48.03859562 -25.6354898 48.48501283 -20.125 51.0625 C-19.01511719 51.63677734 -19.01511719 51.63677734 -17.8828125 52.22265625 C-17.26148438 52.47917969 -16.64015625 52.73570313 -16 53 C-15.34 52.67 -14.68 52.34 -14 52 C-15.29261927 46.94703375 -17.16263324 44.48040241 -21 41 C-21.763125 40.21625 -22.52625 39.4325 -23.3125 38.625 C-25.82135587 36.09718436 -25.82135587 36.09718436 -27.98828125 34.375 C-32.63328732 30.57068058 -35.12679513 27.7366899 -37 22 C-40.93075644 22.57452746 -40.93075644 22.57452746 -44 25 C-46.125 24.625 -46.125 24.625 -48 24 C-48.33 21.69 -48.66 19.38 -49 17 C-49.99 16.67 -50.98 16.34 -52 16 C-53.3125 12.625 -53.3125 12.625 -54 9 C-53.34 8.01 -52.68 7.02 -52 6 C-48.27698497 5.52269038 -47.20808915 5.8612739 -44 8 C-38.30043484 10.97425584 -32.96286438 11.20209347 -26.6875 10.8125 C-25.99374268 10.77020264 -25.29998535 10.72790527 -24.58520508 10.68432617 C-19.93089434 10.30291792 -16.68382071 9.78484995 -13.4375 6.34375 C-12.963125 5.7353125 -12.48875 5.126875 -12 4.5 C-8.56415693 0.09315781 -5.5561403 -1.94464911 0 0 Z " fill="#66AFD4" transform="translate(85,58)"/>
<path d="M0 0 C5.24731002 0.45628783 5.24731002 0.45628783 7.58984375 2.1484375 C9.56423308 4.74084898 10.00151139 7.2027564 10.6875 10.375 C10.93886719 11.49648438 11.19023438 12.61796875 11.44921875 13.7734375 C12.35007445 19.05079077 11.98407909 22.09815755 10 27 C9.835 28.175625 9.67 29.35125 9.5 30.5625 C9 34 9 34 7.9375 36.0625 C6.77768244 38.10072346 6.77768244 38.10072346 7 41.0625 C7 44 7 44 5 47 C6.28062485 48.7074998 7.61767557 50.37373596 9 52 C9.66 52 10.32 52 11 52 C11.61875 51.030625 12.2375 50.06125 12.875 49.0625 C15 46 15 46 17.1875 45.0625 C17.785625 45.041875 18.38375 45.02125 19 45 C19.33 45.33 19.66 45.66 20 46 C19.9375 49.25 19.9375 49.25 19 53 C17.02043058 54.69088222 15.02054804 56.35830472 13 58 C11.76383164 62.09341059 11.76383164 62.09341059 13 66 C13.85271484 65.94779297 13.85271484 65.94779297 14.72265625 65.89453125 C20.33837696 65.69765289 24.01054992 66.40132808 29 69 C30 70 30 70 30.25 73.25 C29.99026663 77.14600061 29.26032469 78.89205355 27 82 C26.67 81.34 26.34 80.68 26 80 C26.33 79.34 26.66 78.68 27 78 C27.04022391 75.6670134 27.04320247 73.33293334 27 71 C21.83430559 69.20782031 18.48946087 68.87970186 13 70 C10.48744915 67.05048378 9.36875956 64.8719754 9 61 C9.433125 59.5459375 9.433125 59.5459375 9.875 58.0625 C9.91625 57.051875 9.9575 56.04125 10 55 C8.361644 53.22511434 6.63653325 51.88313301 4.6640625 50.4921875 C2.65719909 48.69260576 2.19777127 47.6751166 2 45 C2.66 44.01 3.32 43.02 4 42 C3.814375 41.030625 3.62875 40.06125 3.4375 39.0625 C3 36 3 36 4.4375 33.9375 C4.953125 33.298125 5.46875 32.65875 6 32 C6.25124826 29.33238236 6.25124826 29.33238236 6 27 C5.05125 26.814375 4.1025 26.62875 3.125 26.4375 C0 25 0 25 -1.375 21.375 C-1.58125 20.26125 -1.7875 19.1475 -2 18 C-2.59167969 17.89042969 -3.18335938 17.78085937 -3.79296875 17.66796875 C-12.62051828 15.89669862 -12.62051828 15.89669862 -16 13 C-17.17774333 10.9574801 -18.17345465 8.90763302 -19.10546875 6.7421875 C-19.87828135 4.81444169 -19.87828135 4.81444169 -22 4 C-22 3.34 -22 2.68 -22 2 C-23.98 2.33 -25.96 2.66 -28 3 C-27.88506218 5.43004238 -27.88506218 5.43004238 -27 8 C-24.77806177 9.50537364 -24.77806177 9.50537364 -22.0625 10.5 C-17.33142292 12.40604544 -17.33142292 12.40604544 -15.609375 15.4921875 C-15 18 -15 18 -16.1875 20.625 C-16.785625 21.40875 -17.38375 22.1925 -18 23 C-18.391875 23.556875 -18.78375 24.11375 -19.1875 24.6875 C-21.60544349 26.4384246 -24.12987322 26.715037 -27.00390625 27.33203125 C-30.12184779 28.37541286 -31.84635885 30.60022843 -34 33 C-35.485 33.495 -35.485 33.495 -37 34 C-37.33 35.65 -37.66 37.3 -38 39 C-38.99 39 -39.98 39 -41 39 C-41.44335931 35.97037807 -41.49401206 33.81306152 -39.875 31.1484375 C-36.72371053 27.29139049 -33.72143017 24.82418893 -29 23 C-28.34 23 -27.68 23 -27 23 C-27 22.34 -27 21.68 -27 21 C-26.34 21 -25.68 21 -25 21 C-25.33 19.68 -25.66 18.36 -26 17 C-27.44632813 16.96132813 -27.44632813 16.96132813 -28.921875 16.921875 C-30.18515625 16.86515625 -31.4484375 16.8084375 -32.75 16.75 C-34.00296875 16.70359375 -35.2559375 16.6571875 -36.546875 16.609375 C-40.40518636 15.92849653 -41.60916205 15.01873478 -44 12 C-43.67 11.01 -43.34 10.02 -43 9 C-42.30777344 9.62519531 -41.61554687 10.25039063 -40.90234375 10.89453125 C-37.70924509 13.21092449 -35.4032251 13.90487875 -31.5625 14.6875 C-30.47066406 14.91824219 -29.37882812 15.14898437 -28.25390625 15.38671875 C-25.17502753 15.96701162 -22.09299059 16.50082957 -19 17 C-21.74550224 13.13595981 -23.66677663 11.71048291 -28 10 C-29.91300146 7.47831626 -30.05557635 6.40755988 -29.625 3.25 C-29.41875 2.5075 -29.2125 1.765 -29 1 C-20.01445534 0.5431079 -20.01445534 0.5431079 -16 4 C-12 9.66557377 -12 9.66557377 -12 13 C-10.98679687 13.18175781 -10.98679687 13.18175781 -9.953125 13.3671875 C-9.06109375 13.53476562 -8.1690625 13.70234375 -7.25 13.875 C-5.92742187 14.11863281 -5.92742187 14.11863281 -4.578125 14.3671875 C-2.13052256 14.96796264 -0.19400143 15.77997117 2 17 C0.92598892 14.08482708 0.22189824 12.22189824 -2 10 C-2.01171875 7.87109375 -2.01171875 7.87109375 -1.6875 5.4375 C-1.58824219 4.63183594 -1.48898438 3.82617188 -1.38671875 2.99609375 C-1 1 -1 1 0 0 Z " fill="#D8E9EC" transform="translate(81,6)"/>
<path d="M0 0 C2.375 1.5 2.375 1.5 4 4 C4.03181247 7.07520519 3.59217226 9.98764547 3 13 C-0.65316671 11.75023244 -1.78065836 11.32901247 -4 8 C-7.37462715 8.54723683 -9.08235 9.0549 -12 11 C-11.505 16.94 -11.505 16.94 -11 23 C-13.475 22.01 -13.475 22.01 -16 21 C-19.71110754 20.72144962 -19.71110754 20.72144962 -23.625 20.8125 C-25.59339844 20.82216797 -25.59339844 20.82216797 -27.6015625 20.83203125 C-30.98840763 20.84668563 -30.98840763 20.84668563 -34 22 C-35.11375 21.814375 -36.2275 21.62875 -37.375 21.4375 C-41.10296475 20.98757322 -42.72470772 21.31272822 -46 23 C-49 19.25 -49 19.25 -49 17 C-49.99 16.67 -50.98 16.34 -52 16 C-53.3125 12.625 -53.3125 12.625 -54 9 C-53.34 8.01 -52.68 7.02 -52 6 C-48.27698497 5.52269038 -47.20808915 5.8612739 -44 8 C-38.30043484 10.97425584 -32.96286438 11.20209347 -26.6875 10.8125 C-25.99374268 10.77020264 -25.29998535 10.72790527 -24.58520508 10.68432617 C-19.93089434 10.30291792 -16.68382071 9.78484995 -13.4375 6.34375 C-12.963125 5.7353125 -12.48875 5.126875 -12 4.5 C-8.56415693 0.09315781 -5.5561403 -1.94464911 0 0 Z " fill="#3785BA" transform="translate(85,58)"/>
<path d="M0 0 C3.7758544 0.52442422 6.22372155 1.32654667 9 4 C9 4.99 9 5.98 9 7 C9.99 7.33 10.98 7.66 12 8 C12.33 8.66 12.66 9.32 13 10 C15.33744294 10.46806645 17.69739079 10.82669794 20.0625 11.125 C21.99802734 11.37636719 21.99802734 11.37636719 23.97265625 11.6328125 C24.97167969 11.75398438 25.97070312 11.87515625 27 12 C27.33 13.32 27.66 14.64 28 16 C27.34 16 26.68 16 26 16 C26 16.66 26 17.32 26 18 C25.48050781 18.21914063 24.96101563 18.43828125 24.42578125 18.6640625 C19.23695127 21.02349351 16.15881732 23.21391315 13 28 C12.126062 31.22433127 12.126062 31.22433127 12 34 C15.11332248 33.33131686 15.11332248 33.33131686 16.1875 30.9375 C16.455625 30.298125 16.72375 29.65875 17 29 C17 30.65 17 32.3 17 34 C18.32 34.33 19.64 34.66 21 35 C19.90625 36.515625 19.90625 36.515625 18 38 C14.96875 38.109375 14.96875 38.109375 11.5 37.75 C10.3553125 37.64171875 9.210625 37.5334375 8.03125 37.421875 C5 37 5 37 2 36 C1.8453125 34.8553125 1.8453125 34.8553125 1.6875 33.6875 C0.95635961 30.82940576 0.23048087 29.84257115 -2 28 C-1.0420452 25.05771025 -0.0888094 22.19631551 1.1875 19.375 C2.08809356 16.74249574 1.95162214 15.56937977 1 13 C1.99 12.67 2.98 12.34 4 12 C3.62746094 11.38511719 3.25492188 10.77023438 2.87109375 10.13671875 C2.39800781 9.32847656 1.92492187 8.52023438 1.4375 7.6875 C0.96183594 6.88699219 0.48617188 6.08648437 -0.00390625 5.26171875 C-1 3 -1 3 0 0 Z " fill="#66AED3" transform="translate(28,11)"/>
<path d="M0 0 C5.33191922 0.30180675 7.41314098 1.17401704 11 5 C13.64184541 5.79681318 13.64184541 5.79681318 16 6 C16.495 9.465 16.495 9.465 17 13 C16.01 13.66 15.02 14.32 14 15 C13.690625 16.2375 13.690625 16.2375 13.375 17.5 C12 20 12 20 10.05078125 20.59375 C8.45165184 20.86864167 6.85133194 21.13668132 5.25 21.3984375 C1.92377109 22.28774176 0.28261505 24.52173224 -2 27 C-3.32 27 -4.64 27 -6 27 C-5.53199289 22.94393835 -5.12046792 19.53411321 -3 16 C-4.65 16 -6.3 16 -8 16 C-8.33 16.99 -8.66 17.98 -9 19 C-11.64 19 -14.28 19 -17 19 C-17.33 17.68 -17.66 16.36 -18 15 C-17.071875 14.87625 -17.071875 14.87625 -16.125 14.75 C-15.42375 14.5025 -14.7225 14.255 -14 14 C-13.690625 13.34 -13.38125 12.68 -13.0625 12 C-12.711875 11.34 -12.36125 10.68 -12 10 C-9.375 9.25 -9.375 9.25 -7 9 C-7 8.01 -7 7.02 -7 6 C-8.98 6.33 -10.96 6.66 -13 7 C-11.53073487 4.06146974 -9.55564859 3.97311286 -6.5 2.9375 C-2.9728355 1.94590766 -2.9728355 1.94590766 0 0 Z " fill="#92BFCC" transform="translate(67,35)"/>
<path d="M0 0 C0.99 0.99 1.98 1.98 3 3 C3.66 2.649375 4.32 2.29875 5 1.9375 C9.03652127 0.6760871 11.82914359 1.38462774 16 2 C16.66 1.67 17.32 1.34 18 1 C20.37402501 0.92883618 22.75000677 0.91590915 25.125 0.9375 C26.40632813 0.94652344 27.68765625 0.95554687 29.0078125 0.96484375 C29.99523437 0.97644531 30.98265625 0.98804687 32 1 C32 1.33 32 1.66 32 2 C28.37 2.33 24.74 2.66 21 3 C21.33 4.32 21.66 5.64 22 7 C22.99 7.33 23.98 7.66 25 8 C25.4125 8.598125 25.825 9.19625 26.25 9.8125 C27.95248547 12.24299957 27.95248547 12.24299957 31.125 13.625 C37.81401655 17.23224035 43.16985909 23.74697048 46.375 30.5625 C46.91125 31.696875 47.4475 32.83125 48 34 C48.99 34.33 49.98 34.66 51 35 C50.49396008 37.16874252 50.00016187 38.99967627 49 41 C46.6875 41.25 46.6875 41.25 44 41 C42.02389614 38.95575462 41 37.8823175 41 35 C40.39800781 34.93296875 39.79601562 34.8659375 39.17578125 34.796875 C36.13042554 33.68152031 35.64846016 32.09613565 34.1875 29.25 C31.8117369 25.03242055 29.73504907 22.62473334 25.6640625 20.078125 C23.08505644 18.40721967 21.10624966 16.22010099 19 14 C18.29875 13.38125 17.5975 12.7625 16.875 12.125 C14.37990946 9.29723072 13.35131662 6.51342322 12 3 C8.06924356 3.57452746 8.06924356 3.57452746 5 6 C2.875 5.625 2.875 5.625 1 5 C0.505 2.525 0.505 2.525 0 0 Z " fill="#6BB1D4" transform="translate(36,77)"/>
<path d="M0 0 C2.79385205 0.95399826 4.50793962 1.74434479 6.5625 3.875 C7.11496538 7.46602499 6.46142856 9.81561509 4.5625 12.875 C3.9025 13.535 3.2425 14.195 2.5625 14.875 C5.93712715 14.32776317 7.64485 13.8201 10.5625 11.875 C11.5525 11.875 12.5425 11.875 13.5625 11.875 C13.375 13.75 13.375 13.75 12.5625 15.875 C10 17.125 10 17.125 7.5625 17.875 C7.5625 20.515 7.5625 23.155 7.5625 25.875 C6 24.75 6 24.75 4.5625 22.875 C4.875 19.6875 4.875 19.6875 5.5625 16.875 C4.6034375 16.9678125 4.6034375 16.9678125 3.625 17.0625 C0.78127846 16.8883946 -0.9894924 16.40011448 -3.625 15.4375 C-8.5167752 13.6916139 -13.27590864 13.18749718 -18.4375 12.875 C-18.4375 13.865 -18.4375 14.855 -18.4375 15.875 C-17.2 16.184375 -17.2 16.184375 -15.9375 16.5 C-11.54606178 18.22520787 -7.89068451 20.64969061 -4.4375 23.875 C-4.4375 24.535 -4.4375 25.195 -4.4375 25.875 C-3.85226563 26.11476563 -3.26703125 26.35453125 -2.6640625 26.6015625 C0.00498591 28.12807089 1.34096422 29.80150983 3.1875 32.25 C3.77789062 33.02085938 4.36828125 33.79171875 4.9765625 34.5859375 C6.5625 36.875 6.5625 36.875 7.63671875 39.04296875 C8.52605778 41.08284934 8.52605778 41.08284934 10.75 42.8125 C12.5625 44.875 12.5625 44.875 12.75 47.375 C10.9236852 51.21987326 8.37589146 52.06865668 4.5625 53.875 C3.9025 53.875 3.2425 53.875 2.5625 53.875 C2.2325 54.865 1.9025 55.855 1.5625 56.875 C-0.8125 58.625 -0.8125 58.625 -3.4375 59.875 C-4.9225 59.38 -4.9225 59.38 -6.4375 58.875 C-4.14766683 55.44025025 -3.16907315 55.25867822 0.5625 53.875 C2.19535813 52.9664144 3.80120674 52.00743648 5.375 51 C6.16519531 50.50757813 6.95539063 50.01515625 7.76953125 49.5078125 C8.36121094 48.96898437 8.95289062 48.43015625 9.5625 47.875 C10.00777316 43.82530433 10.00777316 43.82530433 7.375 41.4375 C6.446875 40.591875 5.51875 39.74625 4.5625 38.875 C2.19098908 36.56758397 -0.11108961 34.26050193 -2.25 31.734375 C-6.10595409 27.18555416 -9.57416679 23.74408017 -14.87109375 20.9453125 C-16.4375 19.875 -16.4375 19.875 -17.4375 16.875 C-19.45258358 16.14176204 -19.45258358 16.14176204 -21.4375 15.875 C-22 13.9375 -22 13.9375 -22.4375 11.875 C-20.6519131 10.0894131 -18.04836668 10.4131339 -15.625 10.1875 C-14.03751953 10.02701172 -14.03751953 10.02701172 -12.41796875 9.86328125 C-9.40177127 9.87514048 -7.95138507 10.28632202 -5.4375 11.875 C-5.48970703 10.95267578 -5.48970703 10.95267578 -5.54296875 10.01171875 C-5.57003906 9.20347656 -5.59710938 8.39523438 -5.625 7.5625 C-5.67720703 6.36173828 -5.67720703 6.36173828 -5.73046875 5.13671875 C-5.4375 2.875 -5.4375 2.875 -4.078125 1.07421875 C-2.4375 -0.125 -2.4375 -0.125 0 0 Z " fill="#ABCFD9" transform="translate(78.4375,68.125)"/>
<path d="M0 0 C1 3 1 3 1 5 C1.99 5.33 2.98 5.66 4 6 C4 7.65 4 9.3 4 11 C6.56241394 11.30411728 9.11922562 11.56886039 11.6875 11.8125 C12.40873047 11.90208984 13.12996094 11.99167969 13.87304688 12.08398438 C16.31848519 12.35124001 16.31848519 12.35124001 20 12 C22.89177079 9.7132369 22.89177079 9.7132369 25 7 C28.41839049 5.24911706 30.06384019 5 34 5 C34 5.99 34 6.98 34 8 C33.071875 8.433125 32.14375 8.86625 31.1875 9.3125 C28.48254066 10.7445373 27.0458389 11.85186916 25 14 C24.34 14 23.68 14 23 14 C23.33 14.99 23.66 15.98 24 17 C26.64 17 29.28 17 32 17 C32.33 16.34 32.66 15.68 33 15 C36.0625 14.375 36.0625 14.375 39 14 C37.25 18.875 37.25 18.875 35 20 C34.62875 21.11375 34.2575 22.2275 33.875 23.375 C32.94801829 25.64354319 32.36288076 26.75780014 30.30859375 28.12890625 C25.47636076 30.08638615 21.16722622 30.50005415 16 30 C12.6875 28.5625 12.6875 28.5625 10 27 C9.01 26.67 8.02 26.34 7 26 C7.66 24.02 8.32 22.04 9 20 C10.98 20 12.96 20 15 20 C15 22.31 15 24.62 15 27 C18.62528568 27.20140476 20.86501708 26.85776765 24 25 C21.80528594 20.48864333 19.58826282 18.93726652 15 17 C15 16.34 15 15.68 15 15 C14.32453125 14.96261719 13.6490625 14.92523438 12.953125 14.88671875 C12.06109375 14.82097656 11.1690625 14.75523438 10.25 14.6875 C8.92742188 14.60048828 8.92742188 14.60048828 7.578125 14.51171875 C4.61998637 13.92457305 3.19201983 13.04555971 1 11 C-0.85335785 6.94026376 -1.2611726 4.28798683 0 0 Z " fill="#B4D4DD" transform="translate(26,36)"/>
<path d="M0 0 C8.98554466 -0.4568921 8.98554466 -0.4568921 13 3 C17 8.66557377 17 8.66557377 17 12 C21.95 12.99 21.95 12.99 27 14 C27 14.99 27 15.98 27 17 C16.58267717 15.07086614 16.58267717 15.07086614 13 12 C11.82225667 9.9574801 10.82654535 7.90763302 9.89453125 5.7421875 C9.12171865 3.81444169 9.12171865 3.81444169 7 3 C7 2.34 7 1.68 7 1 C5.02 1.33 3.04 1.66 1 2 C1.11493782 4.43004238 1.11493782 4.43004238 2 7 C4.22193823 8.50537364 4.22193823 8.50537364 6.9375 9.5 C11.66857708 11.40604544 11.66857708 11.40604544 13.390625 14.4921875 C14 17 14 17 12.8125 19.625 C12.214375 20.40875 11.61625 21.1925 11 22 C10.608125 22.556875 10.21625 23.11375 9.8125 23.6875 C7.39455651 25.4384246 4.87012678 25.715037 1.99609375 26.33203125 C-1.12184779 27.37541286 -2.84635885 29.60022843 -5 32 C-6.485 32.495 -6.485 32.495 -8 33 C-8.33 34.65 -8.66 36.3 -9 38 C-9.99 38 -10.98 38 -12 38 C-12.44335931 34.97037807 -12.49401206 32.81306152 -10.875 30.1484375 C-7.72371053 26.29139049 -4.72143017 23.82418893 0 22 C0.66 22 1.32 22 2 22 C2 21.34 2 20.68 2 20 C2.66 20 3.32 20 4 20 C3.67 18.68 3.34 17.36 3 16 C2.03578125 15.97421875 1.0715625 15.9484375 0.078125 15.921875 C-1.81679688 15.83679688 -1.81679688 15.83679688 -3.75 15.75 C-5.00296875 15.70359375 -6.2559375 15.6571875 -7.546875 15.609375 C-11.40518636 14.92849653 -12.60916205 14.01873478 -15 11 C-14.67 10.01 -14.34 9.02 -14 8 C-13.30777344 8.62519531 -12.61554687 9.25039063 -11.90234375 9.89453125 C-8.70924509 12.21092449 -6.4032251 12.90487875 -2.5625 13.6875 C-1.47066406 13.91824219 -0.37882812 14.14898437 0.74609375 14.38671875 C3.82497247 14.96701162 6.90700941 15.50082957 10 16 C7.25449776 12.13595981 5.33322337 10.71048291 1 9 C-0.91300146 6.47831626 -1.05557635 5.40755988 -0.625 2.25 C-0.41875 1.5075 -0.2125 0.765 0 0 Z " fill="#B2D3DC" transform="translate(52,7)"/>
<path d="M0 0 C2.375 1.5 2.375 1.5 4 4 C4.03181247 7.07520519 3.59217226 9.98764547 3 13 C-0.65316671 11.75023244 -1.78065836 11.32901247 -4 8 C-7.37462715 8.54723683 -9.08235 9.0549 -12 11 C-11.505 16.94 -11.505 16.94 -11 23 C-11.99 22.34 -12.98 21.68 -14 21 C-13.34 21 -12.68 21 -12 21 C-12.515625 20.484375 -13.03125 19.96875 -13.5625 19.4375 C-15.57265701 16.0289729 -14.79727396 13.76893143 -14 10 C-14.64324219 10.65097656 -15.28648438 11.30195312 -15.94921875 11.97265625 C-20.03255072 14.68616366 -23.02582831 14.56003247 -27.8125 14.4375 C-28.96588867 14.44813477 -28.96588867 14.44813477 -30.14257812 14.45898438 C-36.91923966 14.38464125 -42.29336928 12.80442048 -48 9 C-48.99 9 -49.98 9 -51 9 C-51.33 10.65 -51.66 12.3 -52 14 C-53.125 12.25 -53.125 12.25 -54 10 C-53.125 7.75 -53.125 7.75 -52 6 C-48.28400809 5.79913557 -47.22791555 5.8480563 -44 8 C-38.30043484 10.97425584 -32.96286438 11.20209347 -26.6875 10.8125 C-25.99374268 10.77020264 -25.29998535 10.72790527 -24.58520508 10.68432617 C-19.93089434 10.30291792 -16.68382071 9.78484995 -13.4375 6.34375 C-12.963125 5.7353125 -12.48875 5.126875 -12 4.5 C-8.56415693 0.09315781 -5.5561403 -1.94464911 0 0 Z " fill="#749EAD" transform="translate(85,58)"/>
<path d="M0 0 C2.06309376 0.11478413 4.12548354 0.24226198 6.1875 0.375 C7.33605469 0.44460937 8.48460937 0.51421875 9.66796875 0.5859375 C12.88166464 0.98529479 15.18652014 1.40452037 18 3 C19.046875 5.05859375 19.046875 5.05859375 19.75 7.4375 C20.89865143 10.41442161 21.43111793 11.68197912 24.25 13.2578125 C26.49381564 13.98004066 28.6835585 14.56937947 31 15 C30.67 15.66 30.34 16.32 30 17 C21.15562829 15.50590225 21.15562829 15.50590225 18.36328125 11.8671875 C17.125 9.4375 17.125 9.4375 16.1328125 7.05859375 C14.7339867 4.51658962 13.72038939 3.93170845 11 3 C8.86712627 2.76079045 8.86712627 2.76079045 6.75 2.875 C5.5125 2.91625 4.275 2.9575 3 3 C3.02126462 6.40614946 3.02126462 6.40614946 4 10 C6.81637564 11.7000156 6.81637564 11.7000156 10 13 C12.375 15.6875 12.375 15.6875 14 18 C9.49650784 19.25097005 9.49650784 19.25097005 7.21484375 18.09765625 C4.45347539 16.72914742 1.84387725 16.35213585 -1.1875 15.8125 C-7.10235596 14.53648613 -10.68785669 12.51394476 -15.09765625 8.42578125 C-17.13724077 6.60017529 -17.13724077 6.60017529 -21 7 C-20.67 8.65 -20.34 10.3 -20 12 C-21.66611905 12.042721 -23.33382885 12.04063832 -25 12 C-25.33 11.67 -25.66 11.34 -26 11 C-25.65234075 4.62624712 -25.65234075 4.62624712 -23.4375 2.5 C-19.6959194 1.73249629 -16.51209384 1.44973983 -13 3 C-11.5 5.0078125 -11.5 5.0078125 -10.125 7.4375 C-8.41604033 10.42817943 -7.64200177 11.74281254 -4.40625 13.0390625 C-1.92600268 13.50585062 0.48202618 13.84573678 3 14 C2.69964844 13.32453125 2.39929688 12.6490625 2.08984375 11.953125 C1.70957031 11.06109375 1.32929687 10.1690625 0.9375 9.25 C0.55464844 8.36828125 0.17179687 7.4865625 -0.22265625 6.578125 C-1.04600008 3.84743691 -0.9773992 2.63098653 0 0 Z " fill="#DDECEE" transform="translate(49,5)"/>
<path d="M0 0 C2.96175123 0.61277612 4.38058783 1.25372522 7 3 C10.19806665 3.4603764 10.19806665 3.4603764 13.6875 3.625 C15.45673828 3.73714844 15.45673828 3.73714844 17.26171875 3.8515625 C18.61716797 3.92503906 18.61716797 3.92503906 20 4 C21 7 21 7 20.25 9.5625 C19 12 19 12 16 14 C13.3125 13.125 13.3125 13.125 11 12 C9.35 14.97 7.7 17.94 6 21 C4.68 21 3.36 21 2 21 C0.38050989 18.42786866 -0.04408751 17.32330841 0.375 14.25 C0.58125 13.5075 0.7875 12.765 1 12 C1.66 12 2.32 12 3 12 C3 11.34 3 10.68 3 10 C3.66 9.67 4.32 9.34 5 9 C5.33 8.01 5.66 7.02 6 6 C5.46890625 6.30035156 4.9378125 6.60070312 4.390625 6.91015625 C3.68421875 7.29042969 2.9778125 7.67070313 2.25 8.0625 C1.55390625 8.44535156 0.8578125 8.82820313 0.140625 9.22265625 C-2.36140628 10.1312406 -3.5332355 9.88336837 -6 9 C-5.67 8.34 -5.34 7.68 -5 7 C-4.34 7 -3.68 7 -3 7 C-2.87625 6.401875 -2.7525 5.80375 -2.625 5.1875 C-2 3 -2 3 0 0 Z " fill="#66ADD3" transform="translate(86,74)"/>
<path d="M0 0 C0.99 0.33 1.98 0.66 3 1 C2.773125 2.010625 2.54625 3.02125 2.3125 4.0625 C1.93298375 8.8444048 2.85970146 10.80501486 5 15 C6.19625 14.79375 7.3925 14.5875 8.625 14.375 C12.56396476 13.87126028 15.31908996 14.38399072 19 16 C20 17 20 17 20.1875 20.3125 C19.93227469 25.33193111 18.6681655 27.66530409 15 31 C15.78375 31.268125 16.5675 31.53625 17.375 31.8125 C20 33 20 33 22 36 C22 36.99 22 37.98 22 39 C20.515 39.495 20.515 39.495 19 40 C15.14096436 37.78310719 12.02268223 35.25519625 9 32 C7.9790625 33.2684375 7.9790625 33.2684375 6.9375 34.5625 C4 37 4 37 0.1875 36.8125 C-0.864375 36.544375 -1.91625 36.27625 -3 36 C-3.33 32.7 -3.66 29.4 -4 26 C-2.68 25.34 -1.36 24.68 0 24 C0 24.66 0 25.32 0 26 C-0.66 26 -1.32 26 -2 26 C-1.67 28.97 -1.34 31.94 -1 35 C2.9727321 34.48590296 2.9727321 34.48590296 4.1953125 32.1875 C4.50210938 31.465625 4.80890625 30.74375 5.125 30 C6.81321185 26.09339408 6.81321185 26.09339408 9 25 C11.625 25.9375 11.625 25.9375 14 27 C16.5654594 24.4345406 16.54046087 22.52313332 17 19 C15.64455078 18.97873047 15.64455078 18.97873047 14.26171875 18.95703125 C13.08222656 18.90933594 11.90273437 18.86164063 10.6875 18.8125 C9.51574219 18.77769531 8.34398438 18.74289063 7.13671875 18.70703125 C4 18 4 18 2.125 15.69921875 C1.13936147 13.33437075 0.54191726 11.52868804 0.3125 9 C0.24804688 8.319375 0.18359375 7.63875 0.1171875 6.9375 C-0.02300748 4.61960973 -0.07253654 2.32116912 0 0 Z " fill="#B5D5DE" transform="translate(89,60)"/>
<path d="M0 0 C2.02456848 1.29572383 4.02678947 2.6273318 6 4 C6.99 4.33 7.98 4.66 9 5 C8.67 7.97 8.34 10.94 8 14 C6.948125 14.268125 5.89625 14.53625 4.8125 14.8125 C0.65772601 16.10660993 -2.58174429 17.46828383 -5.5625 20.6875 C-7 22 -7 22 -11 22 C-11.375 19.8125 -11.375 19.8125 -11 17 C-7.76624519 13.53526271 -6.36480607 12.12637093 -1.625 11.6875 C-0.75875 11.790625 0.1075 11.89375 1 12 C1 11.01 1 10.02 1 9 C-2.4019487 6.90649311 -5.05272412 6.82057837 -9 7 C-9.33 6.34 -9.66 5.68 -10 5 C-7.31240478 -0.24720971 -5.78136933 -1.70813185 0 0 Z " fill="#749EAD" transform="translate(72,40)"/>
<path d="M0 0 C-0.51949219 0.21914063 -1.03898437 0.43828125 -1.57421875 0.6640625 C-6.76304873 3.02349351 -9.84118268 5.21391315 -13 10 C-13.873938 13.22433127 -13.873938 13.22433127 -14 16 C-10.88667752 15.33131686 -10.88667752 15.33131686 -9.8125 12.9375 C-9.544375 12.298125 -9.27625 11.65875 -9 11 C-9 12.65 -9 14.3 -9 16 C-7.68 16.33 -6.36 16.66 -5 17 C-6.09375 18.515625 -6.09375 18.515625 -8 20 C-11.03125 20.109375 -11.03125 20.109375 -14.5 19.75 C-15.6446875 19.64171875 -16.789375 19.5334375 -17.96875 19.421875 C-21 19 -21 19 -24 18 C-24.103125 17.236875 -24.20625 16.47375 -24.3125 15.6875 C-24.75161686 12.9565157 -24.75161686 12.9565157 -26.625 11.5 C-27.07875 11.005 -27.5325 10.51 -28 10 C-27.6875 7.3125 -27.6875 7.3125 -27 5 C-26.67 5 -26.34 5 -26 5 C-25.67 6.65 -25.34 8.3 -25 10 C-22.66695339 10.22958315 -22.66695339 10.22958315 -20.5 7.625 C-19.675 6.75875 -18.85 5.8925 -18 5 C-15.53031367 2.53031367 -13.42511413 1.93002031 -10.125 0.8125 C-9.07570313 0.44769531 -8.02640625 0.08289063 -6.9453125 -0.29296875 C-4.06405115 -0.98462433 -2.72213388 -1.03230681 0 0 Z " fill="#91BDCA" transform="translate(54,29)"/>
<path d="M0 0 C0 3 0 3 -1 6 C-0.979375 6.99 -0.95875 7.98 -0.9375 9 C-1 12 -1 12 -3 15 C-1.71937515 16.7074998 -0.38232443 18.37373596 1 20 C1.66 20 2.32 20 3 20 C3.928125 18.5459375 3.928125 18.5459375 4.875 17.0625 C7 14 7 14 9.1875 13.0625 C9.785625 13.041875 10.38375 13.02125 11 13 C11.33 13.33 11.66 13.66 12 14 C11.9375 17.25 11.9375 17.25 11 21 C9.02043058 22.69088222 7.02054804 24.35830472 5 26 C3.76383164 30.09341059 3.76383164 30.09341059 5 34 C5.85271484 33.94779297 5.85271484 33.94779297 6.72265625 33.89453125 C12.33837696 33.69765289 16.01054992 34.40132808 21 37 C22 38 22 38 22.25 41.25 C21.99026663 45.14600061 21.26032469 46.89205355 19 50 C18.67 49.34 18.34 48.68 18 48 C18.33 47.34 18.66 46.68 19 46 C19.04022391 43.6670134 19.04320247 41.33293334 19 39 C13.83430559 37.20782031 10.48946087 36.87970186 5 38 C2.48744915 35.05048378 1.36875956 32.8719754 1 29 C1.28875 28.030625 1.5775 27.06125 1.875 26.0625 C1.91625 25.051875 1.9575 24.04125 2 23 C0.361644 21.22511434 -1.36346675 19.88313301 -3.3359375 18.4921875 C-5.34280091 16.69260576 -5.80222873 15.6751166 -6 13 C-5.34 12.01 -4.68 11.02 -4 10 C-4.31506627 6.85778033 -4.31506627 6.85778033 -5 4 C-3.35 2.68 -1.7 1.36 0 0 Z " fill="#DAEAEC" transform="translate(89,38)"/>
<path d="M0 0 C0 0.99 0 1.98 0 3 C0.51437583 6.94354802 1.06437293 10.50338336 3 14 C5.74802444 15.14753181 5.74802444 15.14753181 8.9375 15.625 C13.02240743 16.38936907 15.28089118 16.81806414 18 20 C18.86625 20.474375 19.7325 20.94875 20.625 21.4375 C23 23 23 23 23.8125 25.1875 C23.874375 25.785625 23.93625 26.38375 24 27 C21.64031256 29.09749995 20.45383006 29.96905704 17.25 30.1875 C16.13625 30.0946875 16.13625 30.0946875 15 30 C14.01879536 26.94736336 14.01879536 25.05263664 15 22 C13.02 22.33 11.04 22.66 9 23 C8.566875 24.4540625 8.566875 24.4540625 8.125 25.9375 C7 29 7 29 5 30 C4.34227572 33.02934491 4.34227572 33.02934491 4 36 C3.34 35.34 2.68 34.68 2 34 C2.375 31.375 2.375 31.375 3 29 C3.99 28.67 4.98 28.34 6 28 C5.95875 27.05125 5.9175 26.1025 5.875 25.125 C6 22 6 22 8 20 C9.32 20 10.64 20 12 20 C12 19.34 12 18.68 12 18 C10.96875 18.268125 9.9375 18.53625 8.875 18.8125 C5 19 5 19 1.6875 16.9375 C-1.13915971 13.84789521 -2.24904767 12.08851826 -3 8 C-2.58333333 2.58333333 -2.58333333 2.58333333 0 0 Z " fill="#DBEBED" transform="translate(26,34)"/>
<path d="M0 0 C0.66 0 1.32 0 2 0 C1.79375 0.70125 1.5875 1.4025 1.375 2.125 C0.91610922 5.64316262 1.60398752 7.76712899 3 11 C3.66 11.33 4.32 11.66 5 12 C5.73075648 14.3140622 6.40138258 16.64828869 7 19 C9.96175123 18.38722388 11.38058783 17.74627478 14 16 C16.07421875 16.14453125 16.07421875 16.14453125 18 17 C19.01953125 18.63671875 19.01953125 18.63671875 19.8125 20.6875 C21.66681053 24.83549584 24.01133852 27.06735124 27.609375 29.7734375 C28.06828125 30.17820312 28.5271875 30.58296875 29 31 C29 31.66 29 32.32 29 33 C29.556875 33.226875 30.11375 33.45375 30.6875 33.6875 C34.96311877 36.11420254 38.13916819 39.43250373 40 44 C36.84945965 42.06671388 34.35784471 40.47712627 32.125 37.5 C29.99813835 34.99780982 28.96279488 34.39354019 26.0625 33.125 C21.65843203 31.08348812 19.02978269 28.43121573 17 24 C16.6875 20.5625 16.6875 20.5625 17 18 C15.05000871 18.19471111 15.05000871 18.19471111 13 19 C11.71563266 20.9837767 11.71563266 20.9837767 11 23 C8.703125 22.84375 8.703125 22.84375 6 22 C1.39061865 15.71818824 -0.87336072 8.72499621 -1 1 C-0.67 0.67 -0.34 0.34 0 0 Z " fill="#A6CCD7" transform="translate(31,63)"/>
<path d="M0 0 C1.33333333 1.33333333 2.66666667 2.66666667 4 4 C4.928125 4.804375 5.85625 5.60875 6.8125 6.4375 C9 9 9 9 8.9453125 11.421875 C7.69666563 14.82727555 6.06623761 15.83442889 3.0625 17.8125 C2.16660156 18.41707031 1.27070312 19.02164063 0.34765625 19.64453125 C-2 21 -2 21 -4 21 C-4 19.35 -4 17.7 -4 16 C-8.25731568 15.59250325 -8.25731568 15.59250325 -11.875 17.5 C-12.24625 17.995 -12.6175 18.49 -13 19 C-13.99 18.67 -14.98 18.34 -16 18 C-16 17.34 -16 16.68 -16 16 C-14.35 15.34 -12.7 14.68 -11 14 C-11.34444881 11.52733235 -11.34444881 11.52733235 -12 9 C-12.66 8.67 -13.32 8.34 -14 8 C-12.35 8 -10.7 8 -9 8 C-8.67 6.68 -8.34 5.36 -8 4 C-7.731875 4.639375 -7.46375 5.27875 -7.1875 5.9375 C-6.11332248 8.33131686 -6.11332248 8.33131686 -3 9 C-2.319375 10.2375 -2.319375 10.2375 -1.625 11.5 C-0.22066726 14.24852772 -0.22066726 14.24852772 2.6875 14.8125 C3.450625 14.874375 4.21375 14.93625 5 15 C5.66 13.02 6.32 11.04 7 9 C6.401875 8.95875 5.80375 8.9175 5.1875 8.875 C3 8 3 8 1.25 5.0625 C0 2 0 2 0 0 Z " fill="#94C0CD" transform="translate(80,103)"/>
<path d="M0 0 C-0.66 1.32 -1.32 2.64 -2 4 C-2.66 4 -3.32 4 -4 4 C-4.226875 4.61875 -4.45375 5.2375 -4.6875 5.875 C-6.41251935 8.66788847 -7.93971766 8.93245965 -11 10 C-11.845625 10.53625 -12.69125 11.0725 -13.5625 11.625 C-16 13 -16 13 -20 13 C-20.21875 10.69921875 -20.21875 10.69921875 -20 8 C-14.85802781 1.94177213 -7.68320429 0 0 0 Z " fill="#749EAD" transform="translate(65,32)"/>
<path d="M0 0 C1.65 0.66 3.3 1.32 5 2 C4.9375 4.3125 4.9375 4.3125 4 7 C2.30573839 7.7819669 0.60137586 8.55299303 -1.15625 9.1796875 C-4.03714565 10.46144192 -5.85752963 12.7385035 -8 15 C-8.99 15.33 -9.98 15.66 -11 16 C-11.33 17.65 -11.66 19.3 -12 21 C-12.99 21 -13.98 21 -15 21 C-15.44335931 17.97037807 -15.49401206 15.81306152 -13.875 13.1484375 C-10.72371053 9.29139049 -7.72143017 6.82418893 -3 5 C-2.34 5 -1.68 5 -1 5 C-1 4.34 -1 3.68 -1 3 C-0.34 3 0.32 3 1 3 C0.67 2.01 0.34 1.02 0 0 Z " fill="#AED1DA" transform="translate(55,24)"/>
<path d="M0 0 C2.96175123 0.61277612 4.38058783 1.25372522 7 3 C8.9896995 3.39013716 10.99019869 3.73202649 13 4 C13 4.66 13 5.32 13 6 C12.40703125 6.07089844 11.8140625 6.14179687 11.203125 6.21484375 C8.18546335 7.290287 7.41761368 8.87157792 5.75 11.5625 C5.22921875 12.38878906 4.7084375 13.21507813 4.171875 14.06640625 C3.78515625 14.70449219 3.3984375 15.34257813 3 16 C3.495 16.45375 3.99 16.9075 4.5 17.375 C6 19 6 19 6 21 C4.68 21 3.36 21 2 21 C0.38050989 18.42786866 -0.04408751 17.32330841 0.375 14.25 C0.58125 13.5075 0.7875 12.765 1 12 C1.66 12 2.32 12 3 12 C3 11.34 3 10.68 3 10 C3.66 9.67 4.32 9.34 5 9 C5.33 8.01 5.66 7.02 6 6 C5.46890625 6.30035156 4.9378125 6.60070312 4.390625 6.91015625 C3.68421875 7.29042969 2.9778125 7.67070313 2.25 8.0625 C1.55390625 8.44535156 0.8578125 8.82820313 0.140625 9.22265625 C-2.36140628 10.1312406 -3.5332355 9.88336837 -6 9 C-5.67 8.34 -5.34 7.68 -5 7 C-4.34 7 -3.68 7 -3 7 C-2.87625 6.401875 -2.7525 5.80375 -2.625 5.1875 C-2 3 -2 3 0 0 Z " fill="#87B6C6" transform="translate(86,74)"/>
<path d="M0 0 C4.60139641 1.48868707 7.50227094 3.74629855 11 7 C11 7.66 11 8.32 11 9 C11.87785156 9.35964844 11.87785156 9.35964844 12.7734375 9.7265625 C15.44248591 11.25307089 16.77846422 12.92650983 18.625 15.375 C19.21539062 16.14585938 19.80578125 16.91671875 20.4140625 17.7109375 C22 20 22 20 23.07421875 22.16796875 C23.96355778 24.20784934 23.96355778 24.20784934 26.1875 25.9375 C28 28 28 28 28.1875 30.5 C26.3611852 34.34487326 23.81339146 35.19365668 20 37 C19.34 37 18.68 37 18 37 C17.67 37.99 17.34 38.98 17 40 C14.625 41.75 14.625 41.75 12 43 C11.01 42.67 10.02 42.34 9 42 C11.28983317 38.56525025 12.26842685 38.38367822 16 37 C17.63285813 36.0914144 19.23870674 35.13243648 20.8125 34.125 C21.60269531 33.63257813 22.39289063 33.14015625 23.20703125 32.6328125 C23.79871094 32.09398437 24.39039062 31.55515625 25 31 C25.44527316 26.95030433 25.44527316 26.95030433 22.8125 24.5625 C21.884375 23.716875 20.95625 22.87125 20 22 C16.21095575 18.33810488 12.79631992 14.48578642 9.4375 10.4375 C6.41932549 6.80489657 3.40872479 3.28039633 0 0 Z " fill="#D3E6EA" transform="translate(63,85)"/>
<path d="M0 0 C2.3125 -0.3125 2.3125 -0.3125 5 0 C8.1870775 3.51677517 8.226132 6.57283197 8.0390625 11.0625 C7.99041312 13.47550942 8.4163099 15.66523961 9 18 C7.34385343 18.38218767 5.67542976 18.71395102 4 19 C2.06953913 17.06953913 2.09643271 13.74014774 1.59765625 11.12890625 C1.13317957 8.8067342 1.13317957 8.8067342 -1 7 C-0.625 3.375 -0.625 3.375 0 0 Z " fill="#B5D5DE" transform="translate(82,9)"/>
<path d="M0 0 C1.81902627 2.1794394 3.14954438 4.36606088 4.48046875 6.87109375 C6.34873156 9.48858277 7.97349683 10.06915953 11 11 C9.34375 11.74609375 9.34375 11.74609375 7 12 C4.34375 10.34765625 4.34375 10.34765625 1.5 8.0625 C-2.67751631 4.55412164 -2.67751631 4.55412164 -8 4 C-7.67 5.65 -7.34 7.3 -7 9 C-8.66611905 9.042721 -10.33382885 9.04063832 -12 9 C-12.33 8.67 -12.66 8.34 -13 8 C-12.65234075 1.62624712 -12.65234075 1.62624712 -10.4375 -0.5 C-6.68915966 -1.26889033 -3.52057186 -1.53897339 0 0 Z " fill="#DBEBED" transform="translate(36,8)"/>
<path d="M0 0 C0.66 0.66 1.32 1.32 2 2 C1.66297118 9.07760532 1.66297118 9.07760532 -0.4375 12 C-2 13 -2 13 -4 13 C-4.33 10.69 -4.66 8.38 -5 6 C-5.99 5.67 -6.98 5.34 -8 5 C-7.625 2.5625 -7.625 2.5625 -7 0 C-4.29393021 -1.35303489 -2.8671629 -0.7884698 0 0 Z " fill="#E4EFF1" transform="translate(81,69)"/>
<path d="M0 0 C1.2375 0.7425 1.2375 0.7425 2.5 1.5 C-1.33216824 2.87958057 -4.54970777 2.13486839 -8.5 1.5 C-9.82 1.5 -11.14 1.5 -12.5 1.5 C-12.62428864 4.29219782 -12.62428864 4.29219782 -11.5 7.5 C-9.55589843 9.16637277 -7.49900792 10.54293382 -5.37890625 11.9765625 C-2.77147243 14.09069803 -2.11685032 16.2615358 -1.5 19.5 C-2.16 19.5 -2.82 19.5 -3.5 19.5 C-4.056875 18.4171875 -4.056875 18.4171875 -4.625 17.3125 C-6.88684045 13.91973933 -9.25646294 12.58198879 -12.7578125 10.61328125 C-14.5 9.5 -14.5 9.5 -15.5 7.5 C-15.73076923 1.96153846 -15.73076923 1.96153846 -14.5 -0.5 C-9.24461396 -2.25179535 -5.01111219 -2.14761951 0 0 Z " fill="#B5D5DE" transform="translate(63.5,108.5)"/>
<path d="M0 0 C4.96916636 0.51405169 9.29026351 1.23384882 14 3 C13.95875 3.886875 13.9175 4.77375 13.875 5.6875 C13.99897246 8.97277013 14.61387904 11.05449295 16 14 C20.59583114 14.49629779 20.59583114 14.49629779 24.80078125 12.88671875 C26.25599455 11.65378147 27.63479157 10.33191067 29 9 C30.98 11.97 30.98 11.97 33 15 C31.989375 14.95875 30.97875 14.9175 29.9375 14.875 C25.98577923 14.82879352 25.98577923 14.82879352 22.3125 16.125 C19 17 19 17 16.75 16.4375 C14.41741633 14.52144913 13.27287776 12.73668719 12 10 C11.8125 7.1875 11.8125 7.1875 12 5 C10.948125 4.896875 9.89625 4.79375 8.8125 4.6875 C5.12154134 4.02191729 3.00087519 3.18245468 0 1 C0 0.67 0 0.34 0 0 Z " fill="#DBEBED" transform="translate(70,82)"/>
<path d="M0 0 C0.99 0.99 1.98 1.98 3 3 C3.66 2.649375 4.32 2.29875 5 1.9375 C9.03652127 0.6760871 11.82914359 1.38462774 16 2 C16.66 1.67 17.32 1.34 18 1 C20.37402501 0.92883618 22.75000677 0.91590915 25.125 0.9375 C26.40632813 0.94652344 27.68765625 0.95554687 29.0078125 0.96484375 C29.99523437 0.97644531 30.98265625 0.98804687 32 1 C32 1.33 32 1.66 32 2 C30.84371094 2.03867188 30.84371094 2.03867188 29.6640625 2.078125 C28.66117188 2.13484375 27.65828125 2.1915625 26.625 2.25 C25.62726562 2.29640625 24.62953125 2.3428125 23.6015625 2.390625 C22.74304688 2.59171875 21.88453125 2.7928125 21 3 C19.73705722 4.9420014 19.73705722 4.9420014 19 7 C16.875 7.75 16.875 7.75 15 8 C14.01 6.35 13.02 4.7 12 3 C8.06924356 3.57452746 8.06924356 3.57452746 5 6 C2.875 5.625 2.875 5.625 1 5 C0.505 2.525 0.505 2.525 0 0 Z " fill="#749EAD" transform="translate(36,77)"/>
<path d="M0 0 C1.9375 0.75 1.9375 0.75 4 2 C4.75 4.125 4.75 4.125 5 6 C2 7 2 7 0.125 6.22265625 C-0.57625 5.83980469 -1.2775 5.45695312 -2 5.0625 C-7.34568722 2.49974056 -12.17624332 2.60812105 -18 3 C-18.04125 4.258125 -18.0825 5.51625 -18.125 6.8125 C-18.14820313 7.52019531 -18.17140625 8.22789063 -18.1953125 8.95703125 C-18.13254462 11.31359719 -18.13254462 11.31359719 -16 14 C-15.01 14.66 -14.02 15.32 -13 16 C-18.875 15.125 -18.875 15.125 -20 14 C-20.12487758 12.19072719 -20.17570846 10.37603893 -20.1875 8.5625 C-20.20167969 7.57378906 -20.21585938 6.58507812 -20.23046875 5.56640625 C-20 3 -20 3 -18 1 C-9.991104 0.0244121 -3.82808885 0.71570895 3 5 C2.01 3.35 1.02 1.7 0 0 Z " fill="#DBEBED" transform="translate(67,105)"/>
<path d="M0 0 C0 0.33 0 0.66 0 1 C-4.29 1 -8.58 1 -13 1 C-13 1.99 -13 2.98 -13 4 C-12.46375 4.226875 -11.9275 4.45375 -11.375 4.6875 C-8.21499137 6.43382056 -5.7323017 8.6402849 -3 11 C-6.62453269 11 -8.07920195 10.07530387 -11 8 C-11.33 7.01 -11.66 6.02 -12 5 C-14.01508358 4.26676204 -14.01508358 4.26676204 -16 4 C-16.5625 2.0625 -16.5625 2.0625 -17 0 C-15.29923039 -1.70076961 -13.07647702 -1.44800972 -10.75 -1.6875 C-9.79609375 -1.79449219 -8.8421875 -1.90148437 -7.859375 -2.01171875 C-4.76023382 -1.99901735 -2.77720429 -1.32271956 0 0 Z " fill="#9CC6D3" transform="translate(73,80)"/>
<path d="M0 0 C5.99725275 2.10714286 5.99725275 2.10714286 8 5 C7.875 7.125 7.875 7.125 7 9 C6.01 9.33 5.02 9.66 4 10 C3.39938767 11.90178785 3.39938767 11.90178785 3 14 C2.01 15.485 2.01 15.485 1 17 C0.34 16.67 -0.32 16.34 -1 16 C-0.649375 15.2575 -0.29875 14.515 0.0625 13.75 C1.04509293 10.8677274 1.0326802 9.78823655 0 7 C0.99 6.67 1.98 6.34 3 6 C2.01 4.02 1.02 2.04 0 0 Z " fill="#AED1DA" transform="translate(29,17)"/>
<path d="M0 0 C0.99 0.33 1.98 0.66 3 1 C2.6596875 2.5159375 2.6596875 2.5159375 2.3125 4.0625 C1.93298375 8.8444048 2.85970146 10.80501486 5 15 C6.19625 14.79375 7.3925 14.5875 8.625 14.375 C12.56396476 13.87126028 15.31908996 14.38399072 19 16 C20 17 20 17 20.0625 20.5625 C20.041875 21.696875 20.02125 22.83125 20 24 C19.67 24 19.34 24 19 24 C18.34 21.69 17.68 19.38 17 17 C10.565 17.495 10.565 17.495 4 18 C0.6175772 12.36262866 0.6175772 12.36262866 0.3125 9 C0.24804688 8.319375 0.18359375 7.63875 0.1171875 6.9375 C-0.02300748 4.61960973 -0.07253654 2.32116912 0 0 Z " fill="#B5D5DE" transform="translate(89,60)"/>
<path d="M0 0 C0.33 0.66 0.66 1.32 1 2 C0.34 2 -0.32 2 -1 2 C-0.67 4.97 -0.34 7.94 0 11 C3.9727321 10.48590296 3.9727321 10.48590296 5.1953125 8.1875 C5.50210938 7.465625 5.80890625 6.74375 6.125 6 C7.81321185 2.09339408 7.81321185 2.09339408 10 1 C12.625 2.4375 12.625 2.4375 15 4 C12 5 12 5 9 4 C7.68 6.97 6.36 9.94 5 13 C2.69 12.67 0.38 12.34 -2 12 C-2.33 8.7 -2.66 5.4 -3 2 C-2.01 1.34 -1.02 0.68 0 0 Z " fill="#98C3CF" transform="translate(88,84)"/>
<path d="M0 0 C2.98569614 0.25962575 5.27987208 0.52819206 7.8125 2.1875 C9.4528699 4.69122248 9.67321963 7.0589767 10 10 C8 8 8 8 7.1875 5.9375 C6.12640104 3.71610925 6.12640104 3.71610925 3.375 3.25 C2.59125 3.1675 1.8075 3.085 1 3 C0.75571657 8.7974423 0.75571657 8.7974423 3 14 C0.4375 12.5625 0.4375 12.5625 -2 10 C-2.2009761 6.89301808 -1.76956311 4.01106835 -1 1 C-0.67 0.67 -0.34 0.34 0 0 Z " fill="#DBEBED" transform="translate(81,6)"/>
<path d="M0 0 C1.87109375 0.2578125 1.87109375 0.2578125 4 1 C5.09765625 2.7421875 5.09765625 2.7421875 6.0625 4.875 C7.72579716 7.81208802 8.62245737 8.83682479 11.765625 10.1953125 C14.50265866 10.91817011 17.20892778 11.53074793 20 12 C20 12.99 20 13.98 20 15 C9.58267717 13.07086614 9.58267717 13.07086614 6 10 C4.82056764 7.99166588 3.82813505 5.97322775 2.89453125 3.83984375 C2.0349724 1.81714603 2.0349724 1.81714603 0 0 Z " fill="#9DC6D2" transform="translate(59,9)"/>
<path d="M0 0 C1.98 0 3.96 0 6 0 C5.979375 1.11375 5.95875 2.2275 5.9375 3.375 C5.73619282 6.83215921 5.73619282 6.83215921 7 9 C4 8 1 7 -2 6 C-1.34 4.02 -0.68 2.04 0 0 Z " fill="#ABCFD9" transform="translate(35,56)"/>
<path d="M0 0 C1.33333333 1.33333333 2.66666667 2.66666667 4 4 C5.3921875 5.2065625 5.3921875 5.2065625 6.8125 6.4375 C9 9 9 9 8.921875 11.453125 C7.740324 14.71740997 6.37542815 15.5331914 3.4375 17.3125 C2.61121094 17.82425781 1.78492187 18.33601563 0.93359375 18.86328125 C0.29550781 19.23839844 -0.34257813 19.61351563 -1 20 C-1 19.01 -1 18.02 -1 17 C-0.05125 16.79375 0.8975 16.5875 1.875 16.375 C5.29166667 15.29166667 5.29166667 15.29166667 6.375 11.875 C6.58125 10.92625 6.7875 9.9775 7 9 C6.401875 8.95875 5.80375 8.9175 5.1875 8.875 C3 8 3 8 1.25 5.0625 C0 2 0 2 0 0 Z " fill="#ABCFD9" transform="translate(80,103)"/>
<path d="M0 0 C2.37286711 2.1355804 3.85187116 3.58523925 4.9375 6.625 C5.78508459 9.20153641 5.78508459 9.20153641 8.3125 10.125 C9.6428125 10.558125 9.6428125 10.558125 11 11 C15.8125 13.625 15.8125 13.625 17 16 C6.3255814 12.72093023 6.3255814 12.72093023 3 10 C1.75 7.0625 1.75 7.0625 1 4 C0.79375 3.21625 0.5875 2.4325 0.375 1.625 C0.189375 0.820625 0.189375 0.820625 0 0 Z " fill="#DBEBED" transform="translate(47,85)"/>
<path d="M0 0 C15.86290323 9.79435484 15.86290323 9.79435484 20 16 C19.67 16.66 19.34 17.32 19 18 C13.28571429 13.42857143 13.28571429 13.42857143 11.625 10.9375 C9.44778345 8.34158796 6.95037066 7.4680255 3.83984375 6.22265625 C1.35166103 4.56915054 0.88671711 2.78879423 0 0 Z " fill="#B5D5DE" transform="translate(51,89)"/>
<path d="M0 0 C0 0.99 0 1.98 0 3 C-3.8415976 5.56780471 -7.8139175 5.22688882 -12.25 5.125 C-12.99507812 5.11597656 -13.74015625 5.10695313 -14.5078125 5.09765625 C-16.33868059 5.07418358 -18.16938238 5.03831525 -20 5 C-19.67 4.34 -19.34 3.68 -19 3 C-16.17108435 2.54867143 -13.40944046 2.20346113 -10.5625 1.9375 C-5.11552108 1.60940535 -5.11552108 1.60940535 0 0 Z " fill="#6EA3BA" transform="translate(68,67)"/>
<path d="M0 0 C1.65 0 3.3 0 5 0 C3.68 0.33 2.36 0.66 1 1 C0.87571136 3.79219782 0.87571136 3.79219782 2 7 C3.94410157 8.66637277 6.00099208 10.04293382 8.12109375 11.4765625 C10.72852757 13.59069803 11.38314968 15.7615358 12 19 C11.34 19 10.68 19 10 19 C8.9935725 17.33720673 7.99414593 15.67016516 7 14 C6.01 13.34 5.02 12.68 4 12 C4 11.34 4 10.68 4 10 C3.360625 9.79375 2.72125 9.5875 2.0625 9.375 C0 8 0 8 -0.8125 5 C-1 2 -1 2 0 0 Z " fill="#93C0CD" transform="translate(50,109)"/>
<path d="M0 0 C0.66 0 1.32 0 2 0 C2 0.99 2 1.98 2 3 C2.61875 3.28875 3.2375 3.5775 3.875 3.875 C6 5 6 5 8 7 C8.1875 9.5625 8.1875 9.5625 8 12 C7 13 7 13 4.0625 13.25 C3.051875 13.1675 2.04125 13.085 1 13 C0.34 12.01 -0.32 11.02 -1 10 C1.31 10.33 3.62 10.66 6 11 C4.21190271 6.66029083 4.21190271 6.66029083 0.8125 3.625 C0.214375 3.41875 -0.38375 3.2125 -1 3 C-0.67 2.01 -0.34 1.02 0 0 Z " fill="#DBEBED" transform="translate(105,88)"/>
<path d="M0 0 C1.67542976 0.28604898 3.34385343 0.61781233 5 1 C5 2.98 5 4.96 5 7 C4.01 7.33 3.02 7.66 2 8 C1.34 7.67 0.68 7.34 0 7 C-0.6875 4 -0.6875 4 -1 1 C-0.67 0.67 -0.34 0.34 0 0 Z " fill="#86BBCF" transform="translate(83,11)"/>
<path d="M0 0 C3.1875 0.3125 3.1875 0.3125 5.5625 2.3125 C6.09875 2.9725 6.635 3.6325 7.1875 4.3125 C6.8575 4.9725 6.5275 5.6325 6.1875 6.3125 C5.61 5.8175 5.0325 5.3225 4.4375 4.8125 C2.08349371 2.94269987 2.08349371 2.94269987 -1.8125 3.3125 C-1.4825 4.9625 -1.1525 6.6125 -0.8125 8.3125 C-2.1325 7.6525 -3.4525 6.9925 -4.8125 6.3125 C-3.75436047 0.41715116 -3.75436047 0.41715116 0 0 Z " fill="#A7CCD7" transform="translate(29.8125,8.6875)"/>
<path d="M0 0 C1.9375 0.75 1.9375 0.75 4 2 C4.75 4.125 4.75 4.125 5 6 C4.01 6.495 4.01 6.495 3 7 C3.2475 7.9075 3.495 8.815 3.75 9.75 C4 13 4 13 2.0625 15.375 C1.381875 15.91125 0.70125 16.4475 0 17 C0.185625 16.195625 0.37125 15.39125 0.5625 14.5625 C0.706875 13.716875 0.85125 12.87125 1 12 C0.67 11.67 0.34 11.34 0 11 C-0.13806976 8.44570937 -0.07599661 6.29554236 0.5625 3.8125 C1.22642103 1.91567768 1.22642103 1.91567768 0 0 Z " fill="#DBEBED" transform="translate(27,17)"/>
<path d="M0 0 C-0.1875 1.875 -0.1875 1.875 -1 4 C-3.5625 5.25 -3.5625 5.25 -6 6 C-6 8.64 -6 11.28 -6 14 C-7.5625 12.9375 -7.5625 12.9375 -9 11 C-9 6.6690426 -8.68061406 4.69852496 -5.625 1.5625 C-3 0 -3 0 0 0 Z " fill="#B5D5DE" transform="translate(92,80)"/>
<path d="M0 0 C2.5 -0.3125 2.5 -0.3125 5 0 C7 2 7 2 7.23046875 3.875 C7.20919922 4.926875 7.20919922 4.926875 7.1875 6 C7.17783203 7.051875 7.17783203 7.051875 7.16796875 8.125 C7 10 7 10 6 12 C4.68 11.67 3.36 11.34 2 11 C2.66 10.34 3.32 9.68 4 9 C4.39764263 7.01178687 4.73775349 5.01055661 5 3 C2.69 3 0.38 3 -2 3 C-1.34 2.01 -0.68 1.02 0 0 Z " fill="#93C0CD" transform="translate(101,76)"/>
<path d="M0 0 C1.0828125 0.37125 1.0828125 0.37125 2.1875 0.75 C2.5175 2.4 2.8475 4.05 3.1875 5.75 C2.1975 5.09 1.2075 4.43 0.1875 3.75 C-2.93771833 3.58300768 -2.93771833 3.58300768 -5.8125 3.75 C-6.1425 5.4 -6.4725 7.05 -6.8125 8.75 C-7.1425 8.75 -7.4725 8.75 -7.8125 8.75 C-8.125 6.5 -8.125 6.5 -7.8125 3.75 C-5.17968173 0.89151159 -3.95233493 -0.35131866 0 0 Z " fill="#9FC8D6" transform="translate(79.8125,65.25)"/>
<path d="M0 0 C1 3 1 3 0 6 C-1.29355827 7.37195574 -2.62298702 8.71182656 -4 10 C-4.99 9.67 -5.98 9.34 -7 9 C-6.82374165 6.62051228 -6.30280227 5.29774151 -4.59765625 3.62109375 C-3.09350908 2.37884514 -1.54870149 1.18623944 0 0 Z " fill="#6096B1" transform="translate(35,30)"/>
<path d="M0 0 C4.42857143 5.14285714 4.42857143 5.14285714 5 9 C0.59885603 8.49701212 -1.71195019 6.91227269 -5 4 C-3.35 4 -1.7 4 0 4 C0 2.68 0 1.36 0 0 Z " fill="#B5D5DE" transform="translate(71,107)"/>
<path d="M0 0 C-0.98093954 2.45234885 -1.68703828 3.7809268 -3.875 5.3125 C-6.35009306 6.1132654 -7.58287634 5.86325845 -10 5 C-5.16129032 0 -5.16129032 0 0 0 Z " fill="#3785BA" transform="translate(65,32)"/>
<path d="M0 0 C2 3 2 3 3.25 5.375 C5.44411047 8.6661657 7.88405847 10.57648992 11 13 C7.19654123 13 6.22298985 11.86213669 3.3125 9.5 C2.50425781 8.8503125 1.69601563 8.200625 0.86328125 7.53125 C0.24839844 7.0259375 -0.36648437 6.520625 -1 6 C-0.67 4.02 -0.34 2.04 0 0 Z " fill="#99C3D0" transform="translate(49,81)"/>
<path d="M0 0 C-0.66 1.65 -1.32 3.3 -2 5 C-1.505 5.45375 -1.01 5.9075 -0.5 6.375 C1 8 1 8 1 10 C-0.32 10 -1.64 10 -3 10 C-4.57035335 7.50590939 -5.0274945 6.29556584 -4.75 3.3125 C-4.37875 2.1678125 -4.37875 2.1678125 -4 1 C-2 0 -2 0 0 0 Z " fill="#6E9BAE" transform="translate(91,85)"/>
<path d="M0 0 C0.598125 0.185625 1.19625 0.37125 1.8125 0.5625 C4.16408762 1.22093687 4.16408762 1.22093687 7 0 C7.66 2.64 8.32 5.28 9 8 C8.01 7.34 7.02 6.68 6 6 C4.68 6 3.36 6 2 6 C1.34 4.02 0.68 2.04 0 0 Z " fill="#8DBDCE" transform="translate(83,69)"/>
<path d="M0 0 C3.17090348 2.11393565 3.3998583 2.79971661 5 6 C6.0828125 6.99 6.0828125 6.99 7.1875 8 C8.0846875 8.99 8.0846875 8.99 9 10 C8.75 12.25 8.75 12.25 8 14 C7.505 11.525 7.505 11.525 7 9 C5.02 8.34 3.04 7.68 1 7 C0.67 4.69 0.34 2.38 0 0 Z " fill="#B5D5DE" transform="translate(80,24)"/>
<path d="M0 0 C2.42716947 0.93954947 3.71970832 1.45810276 4.9375 3.8125 C5.04706119 7.64714152 2.83428099 10.10392042 0.3125 12.8125 C-0.120625 13.204375 -0.55375 13.59625 -1 14 C-1.66 13.67 -2.32 13.34 -3 13 C-1.63016497 9.83884224 -1.0109362 9.0072908 2 7 C1.34414811 3.39007621 1.34414811 3.39007621 0 0 Z " fill="#93C0CD" transform="translate(61,18)"/>
<path d="M0 0 C1.98 0 3.96 0 6 0 C6 1.32 6 2.64 6 4 C4.02 4 2.04 4 0 4 C0 2.68 0 1.36 0 0 Z " fill="#3785BA" transform="translate(78,35)"/>
<path d="M0 0 C0.598125 0.474375 1.19625 0.94875 1.8125 1.4375 C4.00382924 3.16465744 4.00382924 3.16465744 7 4 C7.66 2.68 8.32 1.36 9 0 C9 1.65 9 3.3 9 5 C6.75 5.6875 6.75 5.6875 4 6 C1.6875 4.75 1.6875 4.75 0 3 C0 2.01 0 1.02 0 0 Z " fill="#DBEBED" transform="translate(35,82)"/>
<path d="M0 0 C0.33 0.99 0.66 1.98 1 3 C-1.8125 5.0625 -1.8125 5.0625 -5 7 C-5.99 6.67 -6.98 6.34 -8 6 C-5.76019711 2.64029566 -4.65777032 2.31304575 -1 1 C-0.67 0.67 -0.34 0.34 0 0 Z " fill="#CFE4E8" transform="translate(80,121)"/>
<path d="M0 0 C3.94139078 1.66751148 6.7892812 4.22710649 10 7 C6.34648137 7 4.93973224 6.11057699 2 4 C0.6875 1.8125 0.6875 1.8125 0 0 Z " fill="#A8CDD7" transform="translate(60,84)"/>
<path d="M0 0 C2.4375 0.8125 2.4375 0.8125 5 2 C5.33 2.99 5.66 3.98 6 5 C5.01 5.495 5.01 5.495 4 6 C2.35 4.35 0.7 2.7 -1 1 C-0.67 0.67 -0.34 0.34 0 0 Z " fill="#93C0CD" transform="translate(103,92)"/>
<path d="M0 0 C0 1.65 0 3.3 0 5 C-1.98 5.99 -1.98 5.99 -4 7 C-4.1875 4.625 -4.1875 4.625 -4 2 C-1 0 -1 0 0 0 Z " fill="#F0F6F6" transform="translate(81,75)"/>
<path d="M0 0 C5.57142857 5.14285714 5.57142857 5.14285714 6 9 C5.34 9 4.68 9 4 9 C2.97388051 7.34928604 1.97691857 5.68029994 1 4 C-0.58245275 2.24850835 -0.58245275 2.24850835 -2 1 C-1.34 0.67 -0.68 0.34 0 0 Z " fill="#A9CDD8" transform="translate(56,119)"/>
<path d="M0 0 C0.33 0 0.66 0 1 0 C2.29243536 4.1196377 3.26252625 7.66831683 3 12 C2.01 11.34 1.02 10.68 0 10 C0.66 10 1.32 10 2 10 C1.484375 9.46375 0.96875 8.9275 0.4375 8.375 C-1 6 -1 6 -0.6875 2.75 C-0.460625 1.8425 -0.23375 0.935 0 0 Z " fill="#6BABCB" transform="translate(71,69)"/>
<path d="M0 0 C2.88575819 0.39803561 3.82189513 0.79009069 5.75 3.0625 C6.1625 3.701875 6.575 4.34125 7 5 C6.67 5.66 6.34 6.32 6 7 C3.95880212 5.38405168 1.95927063 3.7143618 0 2 C0 1.34 0 0.68 0 0 Z " fill="#C5DEE4" transform="translate(64,100)"/>
<path d="M0 0 C7.50769231 -0.36923077 7.50769231 -0.36923077 10 1.5 C10.495 2.2425 10.495 2.2425 11 3 C6.94393835 2.53199289 3.53411321 2.12046792 0 0 Z " fill="#A0C8D3" transform="translate(55,108)"/>
<path d="M0 0 C0.66 0 1.32 0 2 0 C1.3125 2.4375 1.3125 2.4375 0 5 C-2.625 5.8125 -2.625 5.8125 -5 6 C-4.34 5.01 -3.68 4.02 -3 3 C-2.34 3 -1.68 3 -1 3 C-0.67 2.01 -0.34 1.02 0 0 Z " fill="#B5D5DE" transform="translate(70,59)"/>
<path d="M0 0 C1.32 0.33 2.64 0.66 4 1 C3.67 2.32 3.34 3.64 3 5 C2.01 5 1.02 5 0 5 C0 3.35 0 1.7 0 0 Z " fill="#C1DCE3" transform="translate(40,40)"/>
<path d="M0 0 C0.66 0.33 1.32 0.66 2 1 C1.6875 2.9375 1.6875 2.9375 1 5 C0.01 5.33 -0.98 5.66 -2 6 C-2.33 6.99 -2.66 7.98 -3 9 C-3.33 7.68 -3.66 6.36 -4 5 C-2.68 4.67 -1.36 4.34 0 4 C0 2.68 0 1.36 0 0 Z " fill="#93C0CD" transform="translate(35,21)"/>
<path d="M0 0 C0.33 0 0.66 0 1 0 C0.67 2.31 0.34 4.62 0 7 C-1.32 6.67 -2.64 6.34 -4 6 C-2.69593116 3.98079663 -1.36176581 1.98075027 0 0 Z " fill="#9DC6D2" transform="translate(107,81)"/>
<path d="M0 0 C0.66 0.33 1.32 0.66 2 1 C2 1.99 2 2.98 2 4 C0.68 4.33 -0.64 4.66 -2 5 C-2 3.68 -2 2.36 -2 1 C-1.34 0.67 -0.68 0.34 0 0 Z " fill="#3785BA" transform="translate(87,75)"/>
</svg>
