<?xml version="1.0" encoding="UTF-8"?>
<svg version="1.1" xmlns="http://www.w3.org/2000/svg" width="128" height="128">
<path d="M0 0 C42.24 0 84.48 0 128 0 C128 42.24 128 84.48 128 128 C85.76 128 43.52 128 0 128 C0 85.76 0 43.52 0 0 Z " fill="#FCFBFB" transform="translate(0,0)"/>
<path d="M0 0 C8.39794448 -0.09082811 16.79493857 -0.10153841 25.1932373 -0.08728027 C27.91510316 -0.08465513 30.63693665 -0.08951131 33.35879803 -0.09427071 C36.64921525 -0.09877023 39.93962326 -0.0956153 43.2300415 -0.09313965 C44.4332756 -0.09516388 45.6365097 -0.09718811 46.87620544 -0.09927368 C64.09832486 -0.05148641 64.09832486 -0.05148641 67.24937439 2.34872437 C69.62822576 5.48776238 68.891376 9.31395602 68.53082275 13.03967285 C67.76240935 18.15359653 66.78545226 23.2184463 65.78082275 28.28967285 C65.50299218 29.71793206 65.22581662 31.14631884 64.94927979 32.5748291 C64.53447945 34.71600456 64.11887598 36.85699555 63.69967651 38.99731445 C62.8845852 43.16608628 62.11174394 47.33920292 61.38238525 51.52404785 C61.21448486 52.46989746 61.04658447 53.41574707 60.87359619 54.39025879 C60.5735199 56.08985582 60.28175532 57.79095351 60.00054932 59.49377441 C59.03476085 64.83628897 57.50063266 71.06986294 53.53082275 75.03967285 C49.96687771 75.0305579 46.41281632 74.90619008 42.85113525 74.78186035 C39.6524084 74.79305576 39.6524084 74.79305576 37.644104 76.1138916 C35.45489067 79.90084659 35.64479129 84.41456846 35.253479 88.6920166 C34.42703687 92.52045397 33.72350812 93.81234337 30.53082275 96.03967285 C27.6206665 96.71936035 27.6206665 96.71936035 24.46832275 96.91467285 C22.90404541 97.03455566 22.90404541 97.03455566 21.3081665 97.15686035 C18.53082275 97.03967285 18.53082275 97.03967285 15.53082275 95.03967285 C15.14687608 92.26705031 14.92740027 89.69643757 14.84332275 86.91467285 C14.8091626 86.16057129 14.77500244 85.40646973 14.73980713 84.6295166 C14.65727998 82.76676085 14.59237564 80.90323959 14.53082275 79.03967285 C13.49151611 79.05014648 12.45220947 79.06062012 11.38140869 79.07141113 C7.51995294 79.10765221 3.65851219 79.13058826 -0.20306396 79.14953613 C-1.87333709 79.15958435 -3.54359267 79.17322521 -5.21380615 79.19055176 C-7.61668228 79.21485211 -10.01932552 79.22616772 -12.42230225 79.23498535 C-13.16723938 79.24530792 -13.91217651 79.25563049 -14.6796875 79.26626587 C-18.40745233 79.26706984 -21.36930321 79.25151159 -24.46917725 77.03967285 C-25.75584175 74.46634385 -25.63742276 72.53744247 -25.65667725 69.66467285 C-25.67085693 68.70818848 -25.68503662 67.7517041 -25.699646 66.76623535 C-25.46386727 63.97685317 -24.98652539 62.37159736 -23.46917725 60.03967285 C-20.46951554 58.539842 -17.34970764 58.8006523 -14.05511475 58.7232666 C-13.32547516 58.7024855 -12.59583557 58.68170441 -11.84408569 58.66029358 C-9.51087961 58.59485369 -7.17756003 58.53593917 -4.84417725 58.47717285 C-3.26343629 58.43398232 -1.68270686 58.39036786 -0.10198975 58.34631348 C3.77549779 58.23917804 7.65309961 58.13789503 11.53082275 58.03967285 C11.16241131 56.06238657 11.16241131 56.06238657 10.53082275 54.03967285 C9.20716581 53.35399471 7.8714707 52.69150513 6.53082275 52.03967285 C4.70896637 50.20041019 2.98906907 48.35374765 1.28082275 46.41467285 C-6.88995635 37.34322897 -15.58492495 28.78670665 -24.3168335 20.25842285 C-28.41322365 16.03564679 -28.41322365 16.03564679 -28.58636475 12.95373535 C-28.50644287 12.19834473 -28.426521 11.4429541 -28.34417725 10.66467285 C-28.27972412 9.91443848 -28.215271 9.1642041 -28.14886475 8.39123535 C-27.19152451 5.07905822 -25.95592384 3.45121196 -23.46917725 1.03967285 C-20.51023895 0.47574832 -18.10976225 0.25434704 -15.137146 0.23498535 C-14.27365036 0.21098663 -13.41015472 0.18698792 -12.52049255 0.16226196 C-8.34743922 0.06306671 -4.17388643 0.04773177 0 0 Z " fill="#BC0851" transform="translate(40.46917724609375,9.9603271484375)"/>
<path d="M0 0 C0.11871533 6.05448183 -0.22384098 11.68681428 -1.2421875 17.6484375 C-1.43483688 18.8172496 -1.43483688 18.8172496 -1.63137817 20.00967407 C-1.90187409 21.63872146 -2.17598833 23.26717193 -2.45361328 24.89501953 C-2.87720034 27.38794965 -3.28498017 29.88312735 -3.69140625 32.37890625 C-3.95739656 33.968907 -4.22429123 35.55875678 -4.4921875 37.1484375 C-4.67356766 38.26404556 -4.67356766 38.26404556 -4.85861206 39.40219116 C-5.46093575 42.8737052 -6.01593708 45.02390562 -8 48 C-11.38672739 46.87109087 -11.75239171 46.2708534 -13.6875 43.4375 C-17.02354083 38.80687615 -20.89321779 34.94456005 -25 31 C-28.38139785 27.69911162 -31.48521352 24.28845019 -34.53515625 20.6875 C-36.57611244 18.33631847 -38.77194514 16.17371206 -41 14 C-41.55816406 13.43152344 -42.11632813 12.86304688 -42.69140625 12.27734375 C-45.35336912 9.56938584 -47.91591802 7.06440322 -50.9375 4.75 C-51.618125 4.1725 -52.29875 3.595 -53 3 C-53 2.01 -53 1.02 -53 0 C-46.09505384 -0.16833062 -39.18994904 -0.32820145 -32.28466797 -0.48217773 C-29.93533894 -0.5355642 -27.58605318 -0.59089092 -25.23681641 -0.64819336 C-21.86109749 -0.73019752 -18.48528477 -0.80523478 -15.109375 -0.87890625 C-14.05820496 -0.90594131 -13.00703491 -0.93297638 -11.92401123 -0.96083069 C-10.94329651 -0.98092697 -9.96258179 -1.00102325 -8.95214844 -1.02172852 C-7.6597525 -1.05170677 -7.6597525 -1.05170677 -6.34124756 -1.08229065 C-4.07688875 -1.0027025 -2.16682577 -0.63914593 0 0 Z " fill="#FBF9FA" transform="translate(91,26)"/>
<path d="M0 0 C8.39794448 -0.09082811 16.79493857 -0.10153841 25.1932373 -0.08728027 C27.91510316 -0.08465513 30.63693665 -0.08951131 33.35879803 -0.09427071 C36.64921525 -0.09877023 39.93962326 -0.0956153 43.2300415 -0.09313965 C44.4332756 -0.09516388 45.6365097 -0.09718811 46.87620544 -0.09927368 C64.09832486 -0.05148641 64.09832486 -0.05148641 67.24937439 2.34872437 C69.62822576 5.48776238 68.891376 9.31395602 68.53082275 13.03967285 C67.76240935 18.15359653 66.78545226 23.2184463 65.78082275 28.28967285 C65.50299218 29.71793206 65.22581662 31.14631884 64.94927979 32.5748291 C64.53447945 34.71600456 64.11887598 36.85699555 63.69967651 38.99731445 C62.8845852 43.16608628 62.11174394 47.33920292 61.38238525 51.52404785 C61.21448486 52.46989746 61.04658447 53.41574707 60.87359619 54.39025879 C60.5735199 56.08985582 60.28175532 57.79095351 60.00054932 59.49377441 C59.03476085 64.83628897 57.50063266 71.06986294 53.53082275 75.03967285 C49.96687771 75.0305579 46.41281632 74.90619008 42.85113525 74.78186035 C39.6524084 74.79305576 39.6524084 74.79305576 37.644104 76.1138916 C35.45489067 79.90084659 35.64479129 84.41456846 35.253479 88.6920166 C34.42703687 92.52045397 33.72350812 93.81234337 30.53082275 96.03967285 C27.6206665 96.71936035 27.6206665 96.71936035 24.46832275 96.91467285 C22.90404541 97.03455566 22.90404541 97.03455566 21.3081665 97.15686035 C18.53082275 97.03967285 18.53082275 97.03967285 15.53082275 95.03967285 C15.14687608 92.26705031 14.92740027 89.69643757 14.84332275 86.91467285 C14.8091626 86.16057129 14.77500244 85.40646973 14.73980713 84.6295166 C14.65727998 82.76676085 14.59237564 80.90323959 14.53082275 79.03967285 C13.49151611 79.05014648 12.45220947 79.06062012 11.38140869 79.07141113 C7.51995294 79.10765221 3.65851219 79.13058826 -0.20306396 79.14953613 C-1.87333709 79.15958435 -3.54359267 79.17322521 -5.21380615 79.19055176 C-7.61668228 79.21485211 -10.01932552 79.22616772 -12.42230225 79.23498535 C-13.16723938 79.24530792 -13.91217651 79.25563049 -14.6796875 79.26626587 C-18.40745233 79.26706984 -21.36930321 79.25151159 -24.46917725 77.03967285 C-25.75584175 74.46634385 -25.63742276 72.53744247 -25.65667725 69.66467285 C-25.67085693 68.70818848 -25.68503662 67.7517041 -25.699646 66.76623535 C-25.46386727 63.97685317 -24.98652539 62.37159736 -23.46917725 60.03967285 C-20.46951554 58.539842 -17.34970764 58.8006523 -14.05511475 58.7232666 C-13.32547516 58.7024855 -12.59583557 58.68170441 -11.84408569 58.66029358 C-9.51087961 58.59485369 -7.17756003 58.53593917 -4.84417725 58.47717285 C-3.26343629 58.43398232 -1.68270686 58.39036786 -0.10198975 58.34631348 C3.77549779 58.23917804 7.65309961 58.13789503 11.53082275 58.03967285 C11.16241131 56.06238657 11.16241131 56.06238657 10.53082275 54.03967285 C9.20716581 53.35399471 7.8714707 52.69150513 6.53082275 52.03967285 C4.70896637 50.20041019 2.98906907 48.35374765 1.28082275 46.41467285 C-6.88995635 37.34322897 -15.58492495 28.78670665 -24.3168335 20.25842285 C-28.41322365 16.03564679 -28.41322365 16.03564679 -28.58636475 12.95373535 C-28.50644287 12.19834473 -28.426521 11.4429541 -28.34417725 10.66467285 C-28.27972412 9.91443848 -28.215271 9.1642041 -28.14886475 8.39123535 C-27.19152451 5.07905822 -25.95592384 3.45121196 -23.46917725 1.03967285 C-20.51023895 0.47574832 -18.10976225 0.25434704 -15.137146 0.23498535 C-14.27365036 0.21098663 -13.41015472 0.18698792 -12.52049255 0.16226196 C-8.34743922 0.06306671 -4.17388643 0.04773177 0 0 Z M-24.46917725 3.03967285 C-27.14714125 9.38104082 -27.14714125 9.38104082 -26.46917725 16.03967285 C-24.5569736 18.16342615 -24.5569736 18.16342615 -22.074646 20.16467285 C-16.4945435 24.99065388 -11.24900596 30.07626989 -6.03167725 35.28967285 C-5.1480249 36.1610791 -4.26437256 37.03248535 -3.35394287 37.93029785 C-2.50638428 38.77592285 -1.65882568 39.62154785 -0.7855835 40.49279785 C-0.02705078 41.24722168 0.73148193 42.00164551 1.51300049 42.77893066 C3.53082275 45.03967285 3.53082275 45.03967285 5.11309814 47.70666504 C6.45118433 50.30240659 6.45118433 50.30240659 9.53082275 51.91467285 C13.39718161 54.6533437 13.83872601 56.69863895 15.53082275 61.03967285 C14.41521973 61.064729 13.2996167 61.08978516 12.15020752 61.11560059 C8.02589685 61.20950707 3.90176125 61.30976799 -0.22235107 61.4119873 C-2.01006995 61.45539985 -3.79783199 61.49707014 -5.58563232 61.5369873 C-8.14981115 61.59453745 -10.71377137 61.65827488 -13.277771 61.7232666 C-14.08193954 61.7399791 -14.88610809 61.75669159 -15.71464539 61.77391052 C-19.39587722 61.53187981 -19.39587722 61.53187981 -22.46917725 63.03967285 C-22.73003125 64.84536225 -22.92878773 66.66025091 -23.09417725 68.47717285 C-23.18956787 69.46588379 -23.2849585 70.45459473 -23.38323975 71.4732666 C-23.67304542 74.0293504 -23.67304542 74.0293504 -22.46917725 76.03967285 C-21.32851807 76.064729 -20.18785889 76.08978516 -19.01263428 76.11560059 C-14.78953384 76.20961578 -10.56660015 76.30985072 -6.34368896 76.4119873 C-4.5143015 76.4553585 -2.68487297 76.49703197 -0.85540771 76.5369873 C1.77085762 76.59463703 4.39691585 76.6583465 7.02301025 76.7232666 C7.8438913 76.7399791 8.66477234 76.75669159 9.51052856 76.77391052 C15.30307934 76.92580114 15.30307934 76.92580114 17.53082275 78.03967285 C17.53082275 82.98967285 17.53082275 87.93967285 17.53082275 93.03967285 C21.10592387 93.93344813 22.77999838 94.06551725 26.28082275 93.60217285 C27.47965088 93.44941895 27.47965088 93.44941895 28.70269775 93.2935791 C29.60761963 93.16789551 29.60761963 93.16789551 30.53082275 93.03967285 C32.38817809 86.75323942 33.96329339 80.40384209 35.53082275 74.03967285 C37.13423831 73.70274501 38.7385883 73.37026192 40.34332275 73.03967285 C41.23664307 72.85404785 42.12996338 72.66842285 43.050354 72.47717285 C45.53082275 72.03967285 45.53082275 72.03967285 48.53082275 72.03967285 C48.53082275 72.69967285 48.53082275 73.35967285 48.53082275 74.03967285 C50.18082275 73.70967285 51.83082275 73.37967285 53.53082275 73.03967285 C57.2850851 58.13445254 60.25845737 43.16508136 62.97857666 28.03967285 C63.91346471 22.9610237 64.97003886 17.90941414 66.050354 12.85998535 C66.50554422 10.18805581 66.62559547 7.7431892 66.53082275 5.03967285 C61.20491069 3.27093027 56.61565702 2.75974995 51.02520752 2.81262207 C50.20488541 2.81233002 49.38456329 2.81203796 48.53938293 2.81173706 C45.85022091 2.81312122 43.16134213 2.82863901 40.472229 2.84436035 C38.59893444 2.84809374 36.72563792 2.85093917 34.8523407 2.85293579 C29.93849226 2.86054661 25.02476335 2.88017307 20.11096191 2.90234375 C15.09012468 2.92285727 10.069268 2.93194926 5.04840088 2.9420166 C-4.79084415 2.96342147 -14.63000073 2.99752646 -24.46917725 3.03967285 Z " fill="#C55C89" transform="translate(40.46917724609375,9.9603271484375)"/>
<path d="M0 0 C3.36486997 -0.00221341 6.72942466 -0.02054012 10.09423828 -0.03930664 C37.89247989 -0.11326536 37.89247989 -0.11326536 44.34033203 4.18530273 C45.70204182 13.39686894 43.7604761 22.66176668 41.86279297 31.65307617 C40.77136732 36.94292049 39.7884347 42.2545454 38.77783203 47.56030273 C38.16153656 50.77365739 37.54279848 53.98649552 36.91943359 57.19848633 C36.54235264 59.14334654 36.16910708 61.08895557 35.80029297 63.03540039 C35.63174805 63.90986816 35.46320313 64.78433594 35.28955078 65.68530273 C35.07238403 66.82612305 35.07238403 66.82612305 34.85083008 67.98999023 C34.02574999 71.53811083 32.71332534 74.81522824 31.34033203 78.18530273 C31.82501953 78.49081055 32.30970703 78.79631836 32.80908203 79.11108398 C38.96369 83.3127875 43.84426672 88.56509395 47.34033203 95.18530273 C47.55908203 98.52905273 47.55908203 98.52905273 47.34033203 101.18530273 C41.1768998 100.65700854 38.64076767 96.67604602 34.77783203 92.24780273 C31.73034694 88.41891121 28.8967259 84.85448434 27.34033203 80.18530273 C25.75947155 79.82025671 24.17549296 79.46869768 22.59033203 79.12280273 C21.70861328 78.92557617 20.82689453 78.72834961 19.91845703 78.52514648 C17.3124926 78.18163299 15.75071889 78.14840208 13.34033203 79.18530273 C12.35181014 82.1508684 12.14381155 84.45815878 11.96533203 87.56030273 C11.60437779 91.82971463 11.174068 94.80661754 8.34033203 98.18530273 C4.68139698 100.62459277 1.9375487 100.44819946 -2.28466797 100.37280273 C-2.97818359 100.3721582 -3.67169922 100.37151367 -4.38623047 100.37084961 C-9.51923539 100.32573531 -9.51923539 100.32573531 -10.65966797 99.18530273 C-10.89668036 96.32652364 -11.08185979 93.48646976 -11.22216797 90.62280273 C-11.26535156 89.81649414 -11.30853516 89.01018555 -11.35302734 88.17944336 C-11.45942059 86.18161469 -11.56007685 84.18348204 -11.65966797 82.18530273 C-12.73450439 82.19053955 -13.80934082 82.19577637 -14.91674805 82.20117188 C-18.90306771 82.21926675 -22.88938373 82.2307512 -26.87573242 82.24023438 C-28.60132457 82.24526431 -30.32691245 82.25208899 -32.05249023 82.26074219 C-34.53223727 82.27286635 -37.01192796 82.27854443 -39.49169922 82.28295898 C-40.64965752 82.29070091 -40.64965752 82.29070091 -41.83100891 82.29859924 C-45.04269077 82.29893592 -47.58987063 82.20856852 -50.65966797 81.18530273 C-52.12310253 78.25843362 -51.83011057 75.6307666 -51.84716797 72.37280273 C-51.86134766 71.14948242 -51.87552734 69.92616211 -51.89013672 68.66577148 C-51.66589601 65.27935679 -51.43766502 63.07388053 -49.65966797 60.18530273 C-45.72890567 59.04313654 -41.89867914 59.06971238 -37.82763672 59.08764648 C-36.53535156 59.09086914 -35.24306641 59.0940918 -33.91162109 59.09741211 C-32.55680271 59.10576609 -31.201985 59.11423101 -29.84716797 59.12280273 C-28.47282062 59.12782274 -27.09847152 59.13238477 -25.72412109 59.13647461 C-22.36925873 59.14824606 -19.01448575 59.1646899 -15.65966797 59.18530273 C-15.98966797 58.19530273 -16.31966797 57.20530273 -16.65966797 56.18530273 C-15.99966797 56.18530273 -15.33966797 56.18530273 -14.65966797 56.18530273 C-14.16466797 58.16530273 -14.16466797 58.16530273 -13.65966797 60.18530273 C-17.22299784 61.27089321 -20.61126317 61.37134828 -24.32373047 61.46655273 C-25.61021484 61.50393555 -26.89669922 61.54131836 -28.22216797 61.57983398 C-30.26087676 61.63356204 -32.29962196 61.68568316 -34.33837891 61.73754883 C-36.31276575 61.7892567 -38.28700331 61.84657022 -40.26123047 61.90405273 C-41.44023926 61.9343457 -42.61924805 61.96463867 -43.83398438 61.99584961 C-46.60933739 61.99914677 -46.60933739 61.99914677 -48.65966797 63.18530273 C-49.69321305 66.28593797 -49.79331793 68.49974341 -49.78466797 71.74780273 C-49.78724609 72.7184668 -49.78982422 73.68913086 -49.79248047 74.68920898 C-49.82617749 77.18483227 -49.82617749 77.18483227 -48.65966797 79.18530273 C-44.96994472 80.41521048 -41.58419134 80.29044736 -37.74560547 80.24780273 C-36.97536041 80.24401611 -36.20511536 80.24022949 -35.41152954 80.23632812 C-32.95251889 80.22411238 -30.49362547 80.20547387 -28.03466797 80.18530273 C-24.79248384 80.15882048 -21.55035641 80.13878174 -18.30810547 80.12280273 C-17.55709564 80.11450439 -16.80608582 80.10620605 -16.03231812 80.09765625 C-14.24121691 80.08909376 -12.44999572 80.1319795 -10.65966797 80.18530273 C-8.60044395 82.24452675 -9.24539217 86.40238398 -9.09716797 89.24780273 C-9.03239258 90.38572266 -9.03239258 90.38572266 -8.96630859 91.54663086 C-8.85993164 93.42595711 -8.75926863 95.30560517 -8.65966797 97.18530273 C-2.90271581 98.14830938 1.916245 98.59975141 7.34033203 96.18530273 C9.06516718 93.31057749 9.28024182 91.01350256 9.52001953 87.70874023 C9.58447266 86.83475586 9.64892578 85.96077148 9.71533203 85.06030273 C9.74369141 84.23272461 9.77205078 83.40514648 9.80126953 82.55249023 C10.54800736 79.27333716 11.60108452 78.12671117 14.34033203 76.18530273 C17.79345703 75.79467773 17.79345703 75.79467773 21.59033203 75.93530273 C22.85361328 75.97139648 24.11689453 76.00749023 25.41845703 76.04467773 C26.38267578 76.09108398 27.34689453 76.13749023 28.34033203 76.18530273 C31.88008273 69.86913023 33.48419182 64.03091086 34.77783203 56.93530273 C34.98174561 55.86135254 35.18565918 54.78740234 35.39575195 53.6809082 C35.82873896 51.38430946 36.25573686 49.08657481 36.67724609 46.7878418 C37.35762167 43.09136832 38.06282374 39.40016794 38.77001953 35.70874023 C39.23233334 33.24285204 39.69330289 30.77671138 40.15283203 28.31030273 C40.37189209 27.16529297 40.59095215 26.0202832 40.81665039 24.84057617 C42.08383055 17.86367938 42.56615221 11.2677076 42.34033203 4.18530273 C34.15703375 3.27842463 26.07336593 3.03852637 17.84423828 3.05249023 C16.57547348 3.05153351 15.30670868 3.05057678 13.99949646 3.04959106 C11.32441732 3.04891375 8.64943097 3.05022322 5.97436523 3.05493164 C3.27610058 3.05945852 0.57790319 3.05952792 -2.12036133 3.05493164 C-10.96770649 3.04085816 -19.81298011 3.07260607 -28.65966797 3.18530273 C-29.7264679 3.19855591 -30.79326782 3.21180908 -31.89239502 3.22546387 C-34.72378322 3.27281054 -37.55211023 3.35019866 -40.38232422 3.44311523 C-41.59933266 3.46352371 -41.59933266 3.46352371 -42.84092712 3.48434448 C-47.18583103 3.66037395 -47.18583103 3.66037395 -50.63623047 6.09960938 C-52.41693469 9.72855883 -52.9164192 13.15836231 -52.65966797 17.18530273 C-51.60954537 19.87440173 -50.33658266 21.79696969 -48.65966797 24.18530273 C-50.65966797 24.18530273 -50.65966797 24.18530273 -52.78466797 22.31030273 C-55.42959541 17.90209034 -55.43903479 14.20699614 -54.65966797 9.18530273 C-53.09716797 5.68530273 -53.09716797 5.68530273 -50.65966797 3.18530273 C-45.22772826 1.20749962 -40.09321236 0.77736978 -34.34716797 0.57202148 C-32.98833496 0.51603035 -32.98833496 0.51603035 -31.60205078 0.45890808 C-21.07132403 0.06423985 -10.53709628 -0.0007749 0 0 Z " fill="#E7C5D5" transform="translate(65.65966796875,7.814697265625)"/>
<path d="M0 0 C19.47 0 38.94 0 59 0 C59.66 1.32 60.32 2.64 61 4 C60.67 4.99 60.34 5.98 60 7 C59.70149978 9.20476403 59.43651712 11.41410035 59.1875 13.625 C58.28557898 21.1460738 57.21057311 28.63775605 56.0625 36.125 C55.90483154 37.20346191 55.74716309 38.28192383 55.5847168 39.39306641 C54.73850939 44.80455218 53.85667655 49.29584318 51 54 C46.45622112 53.53376878 44.81409954 52.16269829 41.9375 48.6875 C37.80516322 43.84317276 33.43267821 39.39410059 28.81030273 35.02416992 C27.48482071 33.73747618 26.2354259 32.37339224 25 31 C25 30.01 25 29.02 25 28 C24.4225 27.7525 23.845 27.505 23.25 27.25 C17.94382163 24.30212313 14.89113993 19.6734198 13 14 C11.25132517 12.91568906 11.25132517 12.91568906 9 12 C4.42098822 9.95405857 1.39830494 7.69815538 -2 4 C-1.34 2.68 -0.68 1.36 0 0 Z M48.04785156 1.97827148 C46.57677948 2.00841591 46.57677948 2.00841591 45.07598877 2.03916931 C44.02481873 2.06620438 42.97364868 2.09323944 41.890625 2.12109375 C40.26770538 2.15651024 40.26770538 2.15651024 38.61199951 2.19264221 C35.15786317 2.26918709 31.7039562 2.35325131 28.25 2.4375 C25.90756329 2.49072984 23.5651154 2.54347018 21.22265625 2.59570312 C15.48162905 2.72478987 9.74077209 2.86004993 4 3 C4.83147668 7.39312332 7.21294634 9.31396783 10.5 12.125 C16.90602682 17.78965948 22.74733465 23.82521981 28.01171875 30.58203125 C29.8264631 32.78896004 31.61200749 34.50639311 33.8125 36.3125 C38.88744464 40.64754617 43.29549196 45.44323795 47 51 C47.99 50.67 48.98 50.34 50 50 C51.63202738 41.99567901 53.1539161 33.97286818 54.625 25.9375 C54.96917969 24.11508789 54.96917969 24.11508789 55.3203125 22.25585938 C56.51011063 15.72259286 57.27161484 9.64026809 57 3 C53.92390311 2.09264749 51.248377 1.90403249 48.04785156 1.97827148 Z " fill="#BE4277" transform="translate(34,23)"/>
<path d="M0 0 C0.33 0.66 0.66 1.32 1 2 C0.67 2.99 0.34 3.98 0 5 C-0.61510036 9.07245373 -0.61510036 9.07245373 0 13 C1.40635544 14.64104302 1.40635544 14.64104302 3.328125 16.0703125 C8.4492844 20.31493846 13.1393712 24.95328337 17.83813477 29.65283203 C19.32226192 31.13474737 20.8142554 32.60843812 22.30664062 34.08203125 C23.26350895 35.03596897 24.21990635 35.99037935 25.17578125 36.9453125 C26.03083252 37.79625488 26.88588379 38.64719727 27.7668457 39.52392578 C30 42 30 42 31.61010742 44.69873047 C32.92727189 47.27833352 32.92727189 47.27833352 36.0625 48.875 C39.75796705 51.54831659 40.15677323 53.6152208 41 58 C36.81723749 58.98852503 32.80286514 59.19673284 28.51171875 59.31640625 C27.80852005 59.33718735 27.10532135 59.35796844 26.3808136 59.37937927 C24.14980183 59.44440115 21.91867931 59.50353776 19.6875 59.5625 C18.16860866 59.60573036 16.64972823 59.64934605 15.13085938 59.69335938 C11.4206888 59.80003334 7.71039579 59.90143221 4 60 C3.67 64.29 3.34 68.58 3 73 C15.54 73 28.08 73 41 73 C42.65863252 77.97589756 43.23540767 80.40665467 43.125 85.375 C43.10695312 86.43460937 43.08890625 87.49421875 43.0703125 88.5859375 C43.04710937 89.38257812 43.02390625 90.17921875 43 91 C44.95825873 91.02694851 46.91662226 91.04637218 48.875 91.0625 C49.96554688 91.07410156 51.05609375 91.08570312 52.1796875 91.09765625 C54.95177546 91.19744303 54.95177546 91.19744303 57 90 C57.63801836 87.4684134 58.16687368 85.00160498 58.625 82.4375 C58.82609375 81.37112305 58.82609375 81.37112305 59.03125 80.28320312 C59.36191847 78.52357447 59.68195767 76.76195452 60 75 C60.33 75 60.66 75 61 75 C61.63620953 86.71096796 61.63620953 86.71096796 58 92 C52.76130112 94.42590447 47.51229988 94.26323539 42 93 C39.94077598 90.94077598 40.58572421 86.78291876 40.4375 83.9375 C40.37272461 82.79958008 40.37272461 82.79958008 40.30664062 81.63867188 C40.20026367 79.75934562 40.09960066 77.87969756 40 76 C38.96069336 76.01047363 37.92138672 76.02094727 36.85058594 76.03173828 C32.98913019 76.06797936 29.12768943 76.09091541 25.26611328 76.10986328 C23.59584015 76.1199115 21.92558458 76.13355236 20.25537109 76.15087891 C17.85249496 76.17517926 15.44985173 76.18649487 13.046875 76.1953125 C12.30193787 76.20563507 11.55700073 76.21595764 10.78948975 76.22659302 C7.06172491 76.22739699 4.09987404 76.21183874 1 74 C-0.2866645 71.426671 -0.16824551 69.49776962 -0.1875 66.625 C-0.20167969 65.66851562 -0.21585938 64.71203125 -0.23046875 63.7265625 C0.00530997 60.93718032 0.48265186 59.33192451 2 57 C4.9996617 55.50016915 8.11946961 55.76097945 11.4140625 55.68359375 C12.14370209 55.66281265 12.87334167 55.64203156 13.62509155 55.62062073 C15.95829763 55.55518083 18.29161721 55.49626632 20.625 55.4375 C22.20574095 55.39430947 23.78647039 55.35069501 25.3671875 55.30664062 C29.24467504 55.19950519 33.12227685 55.09822218 37 55 C36.63158855 53.02271372 36.63158855 53.02271372 36 51 C34.67634306 50.31432185 33.34064794 49.65183228 32 49 C30.17814361 47.16073734 28.45824632 45.3140748 26.75 43.375 C18.5792209 34.30355611 9.8842523 25.74703379 1.15234375 17.21875 C-2.97913472 12.95980305 -2.97913472 12.95980305 -3.046875 9.84375 C-2.94890625 9.0703125 -2.8509375 8.296875 -2.75 7.5 C-2.66234375 6.7265625 -2.5746875 5.953125 -2.484375 5.15625 C-2 3 -2 3 0 0 Z " fill="#C96993" transform="translate(15,13)"/>
<path d="M0 0 C0.11871533 6.05448183 -0.22384098 11.68681428 -1.2421875 17.6484375 C-1.43483688 18.8172496 -1.43483688 18.8172496 -1.63137817 20.00967407 C-1.90187409 21.63872146 -2.17598833 23.26717193 -2.45361328 24.89501953 C-2.87720034 27.38794965 -3.28498017 29.88312735 -3.69140625 32.37890625 C-3.95739656 33.968907 -4.22429123 35.55875678 -4.4921875 37.1484375 C-4.67356766 38.26404556 -4.67356766 38.26404556 -4.85861206 39.40219116 C-5.46093575 42.8737052 -6.01593708 45.02390562 -8 48 C-8.99 47.67 -9.98 47.34 -11 47 C-10.505 46.01 -10.505 46.01 -10 45 C-9.01 45.495 -9.01 45.495 -8 46 C-8.061875 44.80375 -8.12375 43.6075 -8.1875 42.375 C-8.17940041 37.13456811 -7.10399233 32.35211256 -5.93359375 27.26171875 C-4.72572117 21.91481699 -3.78063639 16.51945943 -2.8125 11.125 C-2.54421387 9.63383667 -2.54421387 9.63383667 -2.27050781 8.11254883 C-1.84519254 5.74201728 -1.42160983 3.37119293 -1 1 C-1.56543518 1.16076523 -2.13087036 1.32153046 -2.71343994 1.48716736 C-5.0671818 2.01506762 -7.17534531 2.15794218 -9.58496094 2.20532227 C-10.48559265 2.22526749 -11.38622437 2.24521271 -12.31414795 2.26576233 C-13.27782288 2.28247482 -14.2414978 2.29918732 -15.234375 2.31640625 C-16.22753723 2.33718735 -17.22069946 2.35796844 -18.24395752 2.37937927 C-21.41256882 2.44469749 -24.58126211 2.50367739 -27.75 2.5625 C-29.89974802 2.60570207 -32.04948778 2.64931691 -34.19921875 2.69335938 C-39.46605949 2.80036071 -44.73298155 2.90215991 -50 3 C-49.01 4.485 -49.01 4.485 -48 6 C-49.9375 5.25 -49.9375 5.25 -52 4 C-52.62890625 1.921875 -52.62890625 1.921875 -53 0 C-46.09505384 -0.16833062 -39.18994904 -0.32820145 -32.28466797 -0.48217773 C-29.93533894 -0.5355642 -27.58605318 -0.59089092 -25.23681641 -0.64819336 C-21.86109749 -0.73019752 -18.48528477 -0.80523478 -15.109375 -0.87890625 C-14.05820496 -0.90594131 -13.00703491 -0.93297638 -11.92401123 -0.96083069 C-10.94329651 -0.98092697 -9.96258179 -1.00102325 -8.95214844 -1.02172852 C-7.6597525 -1.05170677 -7.6597525 -1.05170677 -6.34124756 -1.08229065 C-4.07688875 -1.0027025 -2.16682577 -0.63914593 0 0 Z " fill="#E7C5D5" transform="translate(91,26)"/>
<path d="M0 0 C0.66 0 1.32 0 2 0 C2.495 1.98 2.495 1.98 3 4 C-0.56332987 5.08559048 -3.9515952 5.18604555 -7.6640625 5.28125 C-8.95054688 5.31863281 -10.23703125 5.35601562 -11.5625 5.39453125 C-13.60120879 5.44825931 -15.63995399 5.50038043 -17.67871094 5.55224609 C-19.65309779 5.60395397 -21.62733534 5.66126748 -23.6015625 5.71875 C-25.37007568 5.76418945 -25.37007568 5.76418945 -27.17431641 5.81054688 C-29.94966942 5.81384403 -29.94966942 5.81384403 -32 7 C-33.03354508 10.10063523 -33.13364996 12.31444068 -33.125 15.5625 C-33.12757812 16.53316406 -33.13015625 17.50382812 -33.1328125 18.50390625 C-33.16650953 20.99952953 -33.16650953 20.99952953 -32 23 C-28.31027676 24.22990775 -24.92452337 24.10514463 -21.0859375 24.0625 C-20.31569244 24.05871338 -19.54544739 24.05492676 -18.75186157 24.05102539 C-16.29285092 24.03880965 -13.8339575 24.02017114 -11.375 24 C-8.13281587 23.97351775 -4.89068844 23.95347901 -1.6484375 23.9375 C-0.89742767 23.92920166 -0.14641785 23.92090332 0.62734985 23.91235352 C2.41845106 23.90379102 4.20967225 23.94667676 6 24 C8.05922402 26.05922402 7.41427579 30.21708124 7.5625 33.0625 C7.60568359 33.82111328 7.64886719 34.57972656 7.69335938 35.36132812 C7.79973633 37.24065438 7.90039934 39.12030244 8 41 C10.31 41.66 12.62 42.32 15 43 C15 43.33 15 43.66 15 44 C8.84765625 44.09765625 8.84765625 44.09765625 7 44 C4.88074396 41.88074396 5.58168983 37.3803907 5.4375 34.4375 C5.39431641 33.63119141 5.35113281 32.82488281 5.30664062 31.99414062 C5.20024738 29.99631195 5.09959112 27.9981793 5 26 C3.92516357 26.00523682 2.85032715 26.01047363 1.74291992 26.01586914 C-2.24339974 26.03396401 -6.22971576 26.04544846 -10.21606445 26.05493164 C-11.9416566 26.05996158 -13.66724448 26.06678626 -15.39282227 26.07543945 C-17.8725693 26.08756361 -20.35226 26.09324169 -22.83203125 26.09765625 C-23.98998955 26.10539818 -23.98998955 26.10539818 -25.17134094 26.11329651 C-28.3830228 26.11363318 -30.93020266 26.02326578 -34 25 C-35.46343456 22.07313088 -35.1704426 19.44546387 -35.1875 16.1875 C-35.20167969 14.96417969 -35.21585938 13.74085937 -35.23046875 12.48046875 C-35.00622805 9.09405405 -34.77799705 6.88857779 -33 4 C-29.0692377 2.8578338 -25.23901118 2.88440964 -21.16796875 2.90234375 C-19.87568359 2.90556641 -18.58339844 2.90878906 -17.25195312 2.91210938 C-15.89713474 2.92046335 -14.54231703 2.92892828 -13.1875 2.9375 C-11.81315265 2.94252 -10.43880355 2.94708203 -9.06445312 2.95117188 C-5.70959076 2.96294332 -2.35481779 2.97938717 1 3 C0.505 1.515 0.505 1.515 0 0 Z " fill="#E7C5D5" transform="translate(49,64)"/>
<path d="M0 0 C1.07451416 -0.00637985 2.14902832 -0.0127597 3.25610352 -0.01933289 C4.42069092 -0.02044571 5.58527832 -0.02155853 6.78515625 -0.02270508 C7.97616943 -0.02603348 9.16718262 -0.02936188 10.39428711 -0.03279114 C12.91617445 -0.03786093 15.43806851 -0.04019945 17.95996094 -0.04003906 C21.8314917 -0.04222719 25.70273839 -0.06038717 29.57421875 -0.0793457 C32.01953027 -0.0822792 34.46484315 -0.08426429 36.91015625 -0.08520508 C38.07474365 -0.09239059 39.23933105 -0.09957611 40.43920898 -0.10697937 C42.05098022 -0.10236443 42.05098022 -0.10236443 43.6953125 -0.09765625 C44.64414307 -0.09908127 45.59297363 -0.10050629 46.57055664 -0.10197449 C48.84765625 0.14526367 48.84765625 0.14526367 50.84765625 2.14526367 C50.60005966 12.93756213 48.1298749 23.90185969 46.34765625 34.52026367 C46.13423584 35.81037354 45.92081543 37.1004834 45.70092773 38.4296875 C45.49153564 39.64293701 45.28214355 40.85618652 45.06640625 42.10620117 C44.88013672 43.19723145 44.69386719 44.28826172 44.50195312 45.41235352 C43.84765625 48.14526367 43.84765625 48.14526367 41.84765625 51.14526367 C40.85765625 50.81526367 39.86765625 50.48526367 38.84765625 50.14526367 C39.30954346 49.81220215 39.77143066 49.47914062 40.24731445 49.13598633 C42.61479777 46.19098878 42.88722525 42.92954983 43.453125 39.29370117 C43.58205643 38.52023346 43.71098785 37.74676575 43.84382629 36.94985962 C44.11417725 35.31167813 44.37857457 33.67250459 44.63745117 32.0324707 C45.03078126 29.54789944 45.44442053 27.06738118 45.86132812 24.58666992 C46.12231842 22.98921327 46.38212108 21.39156205 46.640625 19.79370117 C46.82337227 18.69631119 46.82337227 18.69631119 47.0098114 17.57675171 C47.81716557 12.38366774 47.94779074 7.40086637 47.84765625 2.14526367 C47.02532753 2.1673867 47.02532753 2.1673867 46.18638611 2.18995667 C40.45979133 2.34285901 34.73302946 2.4875035 29.00610352 2.62744141 C26.87128445 2.68067839 24.73651609 2.73599227 22.60180664 2.79345703 C19.52631562 2.87588105 16.45071722 2.95073534 13.375 3.02416992 C12.42680893 3.05120499 11.47861786 3.07824005 10.50169373 3.10609436 C5.47789158 3.21822139 0.79729706 3.0292344 -4.15234375 2.14526367 C-3.16234375 4.12526367 -2.17234375 6.10526367 -1.15234375 8.14526367 C-3.62034422 6.99353012 -5.2001794 6.09742802 -7.15234375 4.14526367 C-7.15234375 3.15526367 -7.15234375 2.16526367 -7.15234375 1.14526367 C-4.61650616 -0.12265512 -2.83857075 0.01140357 0 0 Z " fill="#D184A6" transform="translate(42.15234375,23.854736328125)"/>
<path d="M0 0 C2.04119788 1.61594832 4.04072937 3.2856382 6 5 C6 5.66 6 6.32 6 7 C6.99 7.33 7.98 7.66 9 8 C10.7890625 9.7421875 10.7890625 9.7421875 12.625 11.875 C13.54152344 12.92300781 13.54152344 12.92300781 14.4765625 13.9921875 C16 16 16 16 17 19 C18.32914447 19.67497941 19.66343949 20.33982713 21 21 C22.73701425 22.55041557 24.42109821 24.16119533 26.0625 25.8125 C27.34833984 27.09060547 27.34833984 27.09060547 28.66015625 28.39453125 C34 34.34056761 34 34.34056761 34 38 C35.98 37.01 37.96 36.02 40 35 C39.34 36.65 38.68 38.3 38 40 C33.45622112 39.53376878 31.81409954 38.16269829 28.9375 34.6875 C24.80516322 29.84317276 20.43267821 25.39410059 15.81030273 21.02416992 C14.48482071 19.73747618 13.2354259 18.37339224 12 17 C12 16.01 12 15.02 12 14 C11.13375 13.62875 11.13375 13.62875 10.25 13.25 C4.94382163 10.30212313 1.89113993 5.6734198 0 0 Z " fill="#C45887" transform="translate(47,37)"/>
<path d="M0 0 C5.55688644 1.05845456 7.60926349 3.53006348 10.67578125 7.96484375 C11.11277344 8.63644531 11.54976562 9.30804688 12 10 C12.61875 10.94875 13.2375 11.8975 13.875 12.875 C15 15 15 15 15 17 C9.7639283 16.41821426 7.13028931 12.25946524 3.8125 8.5625 C1.84813652 5.78529645 0.91034572 3.26207215 0 0 Z " fill="#D184A6" transform="translate(97,90)"/>
<path d="M0 0 C0 0.66 0 1.32 0 2 C3.54518884 0.60240095 3.54518884 0.60240095 7 -1 C6.34 0.32 5.68 1.64 5 3 C4.03578125 2.96519531 3.0715625 2.93039063 2.078125 2.89453125 C0.81484375 2.86746094 -0.4484375 2.84039062 -1.75 2.8125 C-3.00296875 2.77769531 -4.2559375 2.74289063 -5.546875 2.70703125 C-9.14109357 3.01197061 -10.44725126 3.54394629 -13 6 C-13.33 4.68 -13.66 3.36 -14 2 C-4.58997722 -1.62870159 -4.58997722 -1.62870159 0 0 Z " fill="#C96892" transform="translate(89,82)"/>
<path d="M0 0 C2.04119788 1.61594832 4.04072937 3.2856382 6 5 C6 5.66 6 6.32 6 7 C6.99 7.33 7.98 7.66 9 8 C10.82421875 9.7421875 10.82421875 9.7421875 12.6875 11.875 C13.31011719 12.57367188 13.93273438 13.27234375 14.57421875 13.9921875 C16 16 16 16 16 19 C14.05529254 17.27840626 12.11942691 15.54833744 10.1875 13.8125 C9.64029297 13.32974609 9.09308594 12.84699219 8.52929688 12.34960938 C4.46252418 8.67719039 1.76116829 5.28350487 0 0 Z " fill="#CB6F97" transform="translate(47,37)"/>
<path d="M0 0 C1.98 0 3.96 0 6 0 C3 2 3 2 1 2 C3.23797392 6.60027973 5.47413098 7.83135443 10 10 C11.875 12.1875 11.875 12.1875 13 14 C11.66666667 13.33333333 10.33333333 12.66666667 9 12 C8.030625 11.566875 7.06125 11.13375 6.0625 10.6875 C2.75354576 8.86419868 0.54510047 6.76966816 -2 4 C-1.34 2.68 -0.68 1.36 0 0 Z " fill="#C25282" transform="translate(34,23)"/>
<path d="M0 0 C3 4.38461538 3 4.38461538 3 7 C-0.35595828 6.40072174 -2.37801226 5.15377564 -5 3 C-3.7124791 0.4249582 -2.85933002 0 0 0 Z " fill="#D184A6" transform="translate(109,100)"/>
<path d="M0 0 C0.66 0 1.32 0 2 0 C3.2890625 1.53125 3.2890625 1.53125 4.625 3.5 C5.07101563 4.1496875 5.51703125 4.799375 5.9765625 5.46875 C6.31429687 5.9740625 6.65203125 6.479375 7 7 C6.01 7.33 5.02 7.66 4 8 C0 3.375 0 3.375 0 0 Z " fill="#BE4277" transform="translate(101,94)"/>
</svg>
