<?xml version="1.0" encoding="UTF-8"?>
<svg version="1.1" xmlns="http://www.w3.org/2000/svg" width="128" height="128">
<path d="M0 0 C42.24 0 84.48 0 128 0 C128 42.24 128 84.48 128 128 C85.76 128 43.52 128 0 128 C0 85.76 0 43.52 0 0 Z " fill="#FCFCFB" transform="translate(0,0)"/>
<path d="M0 0 C6.08165754 4.22190429 10.51776095 10.14518806 13.79296875 16.71875 C15.16759663 19.31675222 16.78195881 21.6160799 18.5 24 C21.20771803 27.7896356 23.55518701 31.62078331 25.75390625 35.72265625 C27.09667576 38.17668328 28.53792663 40.55279509 30 42.9375 C39.82288239 59.3597349 39.82288239 59.3597349 39 68 C36.84174025 71.19742185 34.40174888 72.3577764 31 74 C30.67 74.66 30.34 75.32 30 76 C31.65 76.33 33.3 76.66 35 77 C35 77.66 35 78.32 35 79 C34.16855469 79.20496094 33.33710937 79.40992187 32.48046875 79.62109375 C31.39378906 79.89050781 30.30710937 80.15992187 29.1875 80.4375 C28.10855469 80.70433594 27.02960938 80.97117187 25.91796875 81.24609375 C23.9259157 81.76077412 21.95188476 82.34937175 20 83 C17.23186945 83.22821229 14.46515323 83.38003289 11.69140625 83.5234375 C8.97082808 83.77697453 8.97082808 83.77697453 7.21484375 85.4765625 C1.61670851 89.32713171 -7.3322051 88.13045239 -13.890625 88.01953125 C-14.79826599 88.00540695 -15.70590698 87.99128265 -16.64105225 87.97673035 C-18.54364079 87.94385472 -20.44617279 87.90754103 -22.34863281 87.86791992 C-25.25589006 87.81238749 -28.16267806 87.78403413 -31.0703125 87.75585938 C-32.9271161 87.72042717 -34.78388963 87.68337444 -36.640625 87.64453125 C-37.50528381 87.64016556 -38.36994263 87.63579987 -39.26080322 87.63130188 C-44.41325281 87.48559909 -47.28349342 86.91793206 -51 83 C-53.20056954 78.59886092 -52.22989522 72.64518672 -52.25 67.8125 C-52.2809375 65.98235352 -52.2809375 65.98235352 -52.3125 64.11523438 C-52.34062324 57.64337323 -52.2043952 52.6920178 -49 47 C-47.35 47.33 -45.7 47.66 -44 48 C-43.87625 46.948125 -43.7525 45.89625 -43.625 44.8125 C-41.90440128 37.84345627 -36.5022449 32.40096557 -32 27 C-31.29230469 26.13761719 -30.58460937 25.27523437 -29.85546875 24.38671875 C-26.50369954 20.4139902 -26.50369954 20.4139902 -25 19 C-24.34 19 -23.68 19 -23 19 C-22.74734375 18.44183594 -22.4946875 17.88367188 -22.234375 17.30859375 C-17.59917232 8.63959126 -10.55670253 -1.14524915 0 0 Z " fill="#EC1717" transform="translate(66,20)"/>
<path d="M0 0 C0.66 0 1.32 0 2 0 C1.07791398 4.61043009 -0.71534315 6.88636572 -4.0625 10 C-6.78292825 12.5775072 -7.89613452 13.6761841 -9.0625 17.3125 C-9.12942841 20.10185786 -9.12942841 20.10185786 -8 23 C-4.04 22.505 -4.04 22.505 0 22 C2.4658719 25.69880785 2.39803736 28.28702757 2.65625 32.625 C2.86422231 35.26194296 2.86422231 35.26194296 5 38 C5.66 38 6.32 38 7 38 C8.32 34.7 9.64 31.4 11 28 C13 30 13 30 14.3125 32.4375 C16.26970984 35.40955938 17.73812806 36.60205488 21 38 C24.60558629 37.72958103 27.69237021 36.41755562 31 35 C33.96052484 38.36423277 34.92289822 41.69159287 36 46 C37.65 46 39.3 46 41 46 C41.33 43.36 41.66 40.72 42 38 C43.485 38.495 43.485 38.495 45 39 C46.125 44.75 46.125 44.75 45 47 C45.721875 46.855625 46.44375 46.71125 47.1875 46.5625 C49.0625 46.1875 50.9375 45.8125 52.8125 45.4375 C53.534375 45.293125 54.25625 45.14875 55 45 C55.495 46.98 55.495 46.98 56 49 C54.92570402 49.84495189 53.84010798 50.67554858 52.75 51.5 C52.14671875 51.9640625 51.5434375 52.428125 50.921875 52.90625 C49 54 49 54 45 54 C45 54.66 45 55.32 45 56 C42.14827038 56.98678898 39.29395658 57.96456818 36.4375 58.9375 C35.63763672 59.21529297 34.83777344 59.49308594 34.01367188 59.77929688 C25.03148488 62.82224186 15.46670327 64.39952464 6 63 C3.1979507 61.1160464 1.74177246 58.84908484 0 56 C-3.85207996 51.82691338 -8.18266993 48.43388153 -12.62890625 44.92578125 C-15.29790457 42.75804456 -17.64378473 40.4990162 -20 38 C-20.804375 37.33291016 -20.804375 37.33291016 -21.625 36.65234375 C-23.48141099 34.42148622 -23.32108502 33.23304495 -23.0625 30.375 C-22.27089897 24.46380537 -19.65988729 20.58762616 -16 16 C-15.23042969 15.00419922 -15.23042969 15.00419922 -14.4453125 13.98828125 C-11.57392572 10.43996131 -8.94551126 8.32683997 -5 6 C-4.07237737 4.96513776 -3.17758586 3.90018105 -2.3125 2.8125 C-1.549375 1.884375 -0.78625 0.95625 0 0 Z " fill="#A70A0D" transform="translate(47,37)"/>
<path d="M0 0 C6.87409083 4.77201378 11.40671279 11.57971584 15 19 C15.98994188 20.67266041 16.98432193 22.34284104 18 24 C11.69315759 21.22881167 8.45816759 16.22735789 6 10 C3.56249975 7.31232422 3.56249975 7.31232422 1 5 C0.34 4.34 -0.32 3.68 -1 3 C-4.80296762 2.8478813 -6.87696667 3.14174689 -9.921875 5.46875 C-14.64789145 10.08134206 -18.71748904 15.25860982 -22.83984375 20.40625 C-24.67770745 22.61301582 -26.54532606 24.58983389 -28.625 26.5625 C-34.49380411 32.26714176 -39.55783465 38.82772966 -41 47 C-41.2784375 48.2684375 -41.2784375 48.2684375 -41.5625 49.5625 C-40.75105112 53.07877847 -38.62657394 54.36106548 -35.8515625 56.5390625 C-34 58 -34 58 -31.6875 60.375 C-29.24686731 62.75887379 -26.76651944 64.74210899 -24.0625 66.8125 C-20.59626785 69.4768805 -18.41108157 71.71977991 -16.25 75.5 C-14.96563051 77.57066842 -14.96563051 77.57066842 -13 79 C-1.53682229 81.06875642 9.41446652 77.29129571 20.1796875 73.8046875 C23 73 23 73 26 73 C26 72.34 26 71.68 26 71 C27.72526042 70.28385417 29.45052083 69.56770833 31.17578125 68.8515625 C33.26533932 67.93193308 33.26533932 67.93193308 36 66 C34.9983053 58.86292528 32.33280738 53.42848482 28.83203125 47.23022461 C25.55855199 41.41146367 25.55855199 41.41146367 25 38 C29.76259947 39.58753316 30.87703592 43.65211602 33.125 47.9375 C33.58003906 48.75541016 34.03507812 49.57332031 34.50390625 50.41601562 C37.50845552 56.09078004 39.36771927 61.49343299 39 68 C36.84174025 71.19742185 34.40174888 72.3577764 31 74 C30.67 74.66 30.34 75.32 30 76 C31.65 76.33 33.3 76.66 35 77 C35 77.66 35 78.32 35 79 C34.16855469 79.20496094 33.33710937 79.40992187 32.48046875 79.62109375 C31.39378906 79.89050781 30.30710937 80.15992187 29.1875 80.4375 C28.10855469 80.70433594 27.02960938 80.97117187 25.91796875 81.24609375 C23.9259157 81.76077412 21.95188476 82.34937175 20 83 C17.23186945 83.22821229 14.46515323 83.38003289 11.69140625 83.5234375 C8.97082808 83.77697453 8.97082808 83.77697453 7.21484375 85.4765625 C1.61670851 89.32713171 -7.3322051 88.13045239 -13.890625 88.01953125 C-14.79826599 88.00540695 -15.70590698 87.99128265 -16.64105225 87.97673035 C-18.54364079 87.94385472 -20.44617279 87.90754103 -22.34863281 87.86791992 C-25.25589006 87.81238749 -28.16267806 87.78403413 -31.0703125 87.75585938 C-32.9271161 87.72042717 -34.78388963 87.68337444 -36.640625 87.64453125 C-37.50528381 87.64016556 -38.36994263 87.63579987 -39.26080322 87.63130188 C-44.41325281 87.48559909 -47.28349342 86.91793206 -51 83 C-53.20056954 78.59886092 -52.22989522 72.64518672 -52.25 67.8125 C-52.2809375 65.98235352 -52.2809375 65.98235352 -52.3125 64.11523438 C-52.34062324 57.64337323 -52.2043952 52.6920178 -49 47 C-47.35 47.33 -45.7 47.66 -44 48 C-43.87625 46.948125 -43.7525 45.89625 -43.625 44.8125 C-41.90440128 37.84345627 -36.5022449 32.40096557 -32 27 C-31.29230469 26.13761719 -30.58460937 25.27523437 -29.85546875 24.38671875 C-26.50369954 20.4139902 -26.50369954 20.4139902 -25 19 C-24.34 19 -23.68 19 -23 19 C-22.74734375 18.44183594 -22.4946875 17.88367188 -22.234375 17.30859375 C-17.59917232 8.63959126 -10.55670253 -1.14524915 0 0 Z " fill="#EEB877" transform="translate(66,20)"/>
<path d="M0 0 C6.87409083 4.77201378 11.40671279 11.57971584 15 19 C15.98994188 20.67266041 16.98432193 22.34284104 18 24 C11.69315759 21.22881167 8.45816759 16.22735789 6 10 C3.56249975 7.31232422 3.56249975 7.31232422 1 5 C0.34 4.34 -0.32 3.68 -1 3 C-4.80296762 2.8478813 -6.87696667 3.14174689 -9.921875 5.46875 C-14.64789145 10.08134206 -18.71748904 15.25860982 -22.83984375 20.40625 C-24.67770745 22.61301582 -26.54532606 24.58983389 -28.625 26.5625 C-34.49380411 32.26714176 -39.55783465 38.82772966 -41 47 C-41.2784375 48.2684375 -41.2784375 48.2684375 -41.5625 49.5625 C-40.75105112 53.07877847 -38.62657394 54.36106548 -35.8515625 56.5390625 C-34 58 -34 58 -31.6875 60.375 C-29.24686731 62.75887379 -26.76651944 64.74210899 -24.0625 66.8125 C-20.59626785 69.4768805 -18.41108157 71.71977991 -16.25 75.5 C-14.96563051 77.57066842 -14.96563051 77.57066842 -13 79 C-1.53682229 81.06875642 9.41446652 77.29129571 20.1796875 73.8046875 C23 73 23 73 26 73 C26 72.34 26 71.68 26 71 C27.72526042 70.28385417 29.45052083 69.56770833 31.17578125 68.8515625 C33.26533932 67.93193308 33.26533932 67.93193308 36 66 C34.9983053 58.86292528 32.33280738 53.42848482 28.83203125 47.23022461 C25.55855199 41.41146367 25.55855199 41.41146367 25 38 C29.76259947 39.58753316 30.87703592 43.65211602 33.125 47.9375 C33.58003906 48.75541016 34.03507812 49.57332031 34.50390625 50.41601562 C37.50845552 56.09078004 39.36771927 61.49343299 39 68 C36.84174025 71.19742185 34.40174888 72.3577764 31 74 C30.67 74.66 30.34 75.32 30 76 C31.65 76.33 33.3 76.66 35 77 C35 77.66 35 78.32 35 79 C34.16855469 79.20496094 33.33710937 79.40992187 32.48046875 79.62109375 C31.39378906 79.89050781 30.30710937 80.15992187 29.1875 80.4375 C28.10855469 80.70433594 27.02960938 80.97117187 25.91796875 81.24609375 C23.9259157 81.76077412 21.95188476 82.34937175 20 83 C17.23186945 83.22821229 14.46515323 83.38003289 11.69140625 83.5234375 C8.97082808 83.77697453 8.97082808 83.77697453 7.21484375 85.4765625 C1.28192688 89.55740479 -7.71762718 87.99940678 -14.5625 87.5625 C-15.47580078 87.51029297 -16.38910156 87.45808594 -17.33007812 87.40429688 C-19.55387081 87.27622505 -21.77701936 87.14136041 -24 87 C-22.515 86.505 -22.515 86.505 -21 86 C-21 85.01 -21 84.02 -21 83 C-18.525 82.505 -18.525 82.505 -16 82 C-20.12853755 74.3545601 -24.68691074 67.92219909 -32.5 63.625 C-35 62 -35 62 -37.25 58.9375 C-39.96403799 55.42059546 -42.95788299 54.93359859 -47.20703125 54.2265625 C-47.79871094 54.15179688 -48.39039062 54.07703125 -49 54 C-49 51 -49 51 -47.625 49.3125 C-46 48 -46 48 -44 48 C-43.87625 46.948125 -43.7525 45.89625 -43.625 44.8125 C-41.90440128 37.84345627 -36.5022449 32.40096557 -32 27 C-31.29230469 26.13761719 -30.58460937 25.27523437 -29.85546875 24.38671875 C-26.50369954 20.4139902 -26.50369954 20.4139902 -25 19 C-24.34 19 -23.68 19 -23 19 C-22.74734375 18.44183594 -22.4946875 17.88367188 -22.234375 17.30859375 C-17.59917232 8.63959126 -10.55670253 -1.14524915 0 0 Z " fill="#C17B69" transform="translate(66,20)"/>
<path d="M0 0 C0.66 0 1.32 0 2 0 C1.07791398 4.61043009 -0.71534315 6.88636572 -4.0625 10 C-6.78292825 12.5775072 -7.89613452 13.6761841 -9.0625 17.3125 C-9.12942841 20.10185786 -9.12942841 20.10185786 -8 23 C-4.04 22.505 -4.04 22.505 0 22 C2.4658719 25.69880785 2.39803736 28.28702757 2.65625 32.625 C2.86422231 35.26194296 2.86422231 35.26194296 5 38 C5.66 38 6.32 38 7 38 C8.32 34.7 9.64 31.4 11 28 C13 30 13 30 14.3125 32.4375 C16.26970984 35.40955938 17.73812806 36.60205488 21 38 C24.60558629 37.72958103 27.69237021 36.41755562 31 35 C33.96052484 38.36423277 34.92289822 41.69159287 36 46 C37.65 46 39.3 46 41 46 C41.33 43.36 41.66 40.72 42 38 C42.99 38.33 43.98 38.66 45 39 C46.125 44.75 46.125 44.75 45 47 C45.721875 46.855625 46.44375 46.71125 47.1875 46.5625 C49.0625 46.1875 50.9375 45.8125 52.8125 45.4375 C53.534375 45.293125 54.25625 45.14875 55 45 C55.495 46.98 55.495 46.98 56 49 C50.35182831 53.87796646 44.55939908 56.08239127 37 56 C35.30501662 55.04878545 33.63513124 54.05077286 32 53 C30.68 53 29.36 53 28 53 C25.875 51.0625 25.875 51.0625 24.62890625 49.7109375 C22.45316502 47.42562657 20.14344479 45.31385826 17.8125 43.1875 C16.95269531 42.39730469 16.09289062 41.60710937 15.20703125 40.79296875 C13.21520478 38.7898197 13.21520478 38.7898197 11 39 C9.41744803 43.32564205 8.54855348 47.428721 8 52 C6.68 52 5.36 52 4 52 C3.4077155 48.89050639 2.99552741 46.10957852 3.125 42.9375 C3.25265661 39.9574402 3.25265661 39.9574402 1.5 37.75 C-0.75177771 33.62174087 -0.24155384 29.6074159 0 25 C-1.32 25.33 -2.64 25.66 -4 26 C-3.97679687 26.62648438 -3.95359375 27.25296875 -3.9296875 27.8984375 C-3.90261719 29.12433594 -3.90261719 29.12433594 -3.875 30.375 C-3.85179687 31.18710938 -3.82859375 31.99921875 -3.8046875 32.8359375 C-4 35 -4 35 -6 37 C-8.125 36.625 -8.125 36.625 -10 36 C-9.773125 34.783125 -9.54625 33.56625 -9.3125 32.3125 C-8.90512758 29.12141604 -8.94913711 28.113836 -10.3125 25.0625 C-11.83873758 22.91019125 -11.83873758 22.91019125 -14 22 C-11.49045929 14.08529469 -9.57153334 9.06555695 -3 4 C-1.99426222 2.67098936 -0.99204592 1.33926199 0 0 Z " fill="#CB0B0F" transform="translate(47,37)"/>
<path d="M0 0 C4.02087299 0.49919001 5.73007677 1.27486908 8.25 4.4375 C8.84039062 5.15421875 9.43078125 5.8709375 10.0390625 6.609375 C11.00972656 7.79273438 11.00972656 7.79273438 12 9 C13.53220702 10.73755435 15.07412096 12.46659103 16.625 14.1875 C17.76582031 15.45787109 17.76582031 15.45787109 18.9296875 16.75390625 C20.47788111 18.43355026 22.09762611 20.04773402 23.75 21.625 C28.70384203 26.85405548 31.54859455 31.77751287 32 39 C18.68540758 38.38358368 8.49496952 30.53273097 -0.6875 21.296875 C-3.24573052 18.75592983 -5.71989989 17.44934656 -9 16 C-8.5384165 11.00317547 -7.17221576 8.4245074 -3.9375 4.625 C-3.20402344 3.75101563 -2.47054687 2.87703125 -1.71484375 1.9765625 C-1.14894531 1.32429688 -0.58304688 0.67203125 0 0 Z " fill="#F47C1D" transform="translate(61,24)"/>
<path d="M0 0 C2.60501861 1.73104051 4.77965647 3.80673383 7 6 C8.11375 7.0209375 8.11375 7.0209375 9.25 8.0625 C11.21038374 10.23292485 12.50451726 12.48486993 14 15 C15.28020839 16.965843 16.57253286 18.92383328 17.875 20.875 C18.58011719 21.93203125 19.28523438 22.9890625 20.01171875 24.078125 C21.52637627 26.30398713 23.07313557 28.47251409 24.6875 30.625 C27.71430971 34.79458481 32 40.74341039 32 46 C32.66 46 33.32 46 34 46 C34.95107541 48.37768852 35.90080683 50.75578725 36.84375 53.13671875 C37.58933665 54.98305325 38.35856638 56.82009946 39.15625 58.64453125 C41.33151786 63.70202903 42.32917131 67.40408769 42 73 C42.4021875 74.299375 42.4021875 74.299375 42.8125 75.625 C43 78 43 78 41.3125 80.5625 C34.83481504 86.25284204 24.82779421 87.42322065 16.59375 88.5078125 C14.03574873 88.86317843 14.03574873 88.86317843 12.08398438 90.00268555 C8.58941689 91.67505061 4.81196412 91.53729556 1 91.6875 C0.07461426 91.72584961 -0.85077148 91.76419922 -1.80419922 91.80371094 C-10.76262276 92.0921856 -19.71662087 91.99453146 -28.67578125 91.8019104 C-30.30557653 91.76736742 -31.93547102 91.73721984 -33.56542969 91.71151733 C-35.88022243 91.67203115 -38.19362904 91.61245934 -40.5078125 91.546875 C-41.55341843 91.53250145 -41.55341843 91.53250145 -42.62014771 91.51783752 C-45.60001293 91.41257594 -47.75849508 91.12891373 -50.40576172 89.71582031 C-54.84131319 84.9419986 -53.22372803 76.77166247 -53.24023438 70.63061523 C-53.24986047 68.46883474 -53.2808687 66.3080388 -53.3125 64.14648438 C-53.37321615 56.22291206 -53.23509463 48.39329709 -50 41 C-49.01 40.505 -49.01 40.505 -48 40 C-47.71125 40.804375 -47.4225 41.60875 -47.125 42.4375 C-46.26737432 45.1326468 -46.26737432 45.1326468 -44 46 C-43.67 45.34 -43.34 44.68 -43 44 C-43.495 46.97 -43.495 46.97 -44 50 C-45.65 50 -47.3 50 -49 50 C-51.46173475 56.56565147 -51.40436052 62.62161906 -51.4375 69.5625 C-51.47037109 70.78130859 -51.50324219 72.00011719 -51.53710938 73.25585938 C-51.54419922 74.43083984 -51.55128906 75.60582031 -51.55859375 76.81640625 C-51.57204834 77.88318604 -51.58550293 78.94996582 -51.59936523 80.04907227 C-50.75421391 84.21010852 -49.46971535 85.56225314 -46 88 C-42.73399298 88.74244441 -39.54305098 88.76873493 -36.203125 88.77734375 C-35.25491882 88.7972084 -34.30671265 88.81707306 -33.32977295 88.83753967 C-31.32614896 88.87466479 -29.32227613 88.89998835 -27.31835938 88.91430664 C-24.27366747 88.9373211 -21.23151401 88.99766817 -18.1875 89.06445312 C-16.23440946 89.09596396 -14.28128291 89.12532962 -12.328125 89.15234375 C-10.97766083 89.17711037 -10.97766083 89.17711037 -9.59991455 89.20237732 C-3.92863637 89.22884928 1.60145092 88.88085655 7 87 C7.66 86.34 8.32 85.68 9 85 C11.42578125 84.65625 11.42578125 84.65625 14.3125 84.5 C18.34954143 84.2796976 21.27348016 83.51647022 25 82 C27.67578125 81.5859375 27.67578125 81.5859375 30.3125 81.375 C31.63701172 81.26285156 31.63701172 81.26285156 32.98828125 81.1484375 C33.65214844 81.09945312 34.31601563 81.05046875 35 81 C34.67 80.34 34.34 79.68 34 79 C31.97536745 78.34786708 31.97536745 78.34786708 30 78 C31 75 31 75 34 73.4375 C34.99 72.963125 35.98 72.48875 37 72 C38.87584456 68.24831089 37.79919114 63.99524971 37 60 C35.70754591 56.59426305 34.03737114 53.481726 32.25 50.3125 C31.81945312 49.51005859 31.38890625 48.70761719 30.9453125 47.88085938 C28.58813644 43.55819369 26.03136844 39.53149581 23.11181641 35.57055664 C21.53657796 33.34536804 20.30485209 30.98598684 19.0625 28.5625 C16.78891529 24.29073903 14.28583665 20.49704889 11.296875 16.69921875 C10 15 10 15 8.5625 12.4375 C6.19932185 8.75094208 3.54192619 5.60371576 0 3 C-3.62966865 2.08211088 -3.62966865 2.08211088 -7 3 C-9.31377147 4.89584109 -9.31377147 4.89584109 -11 7 C-11.66 7 -12.32 7 -13 7 C-13.268125 7.61875 -13.53625 8.2375 -13.8125 8.875 C-15 11 -15 11 -18 13 C-17.67 11.68 -17.34 10.36 -17 9 C-16.34 9 -15.68 9 -15 9 C-14.7525 8.4225 -14.505 7.845 -14.25 7.25 C-10.97169484 1.34905071 -6.70201987 -0.90219498 0 0 Z " fill="#E7DFD8" transform="translate(66,18)"/>
<path d="M0 0 C3.52866567 2.54063928 6.8338475 5.17737794 9 9 C8.67 9.99 8.34 10.98 8 12 C3.2020202 7.45454545 3.2020202 7.45454545 2 4.75 C1.09725562 2.69722976 1.09725562 2.69722976 -1.625 2.25 C-2.40875 2.1675 -3.1925 2.085 -4 2 C-4.268125 2.5775 -4.53625 3.155 -4.8125 3.75 C-6.02929189 6.05550043 -7.30333879 8.02056192 -9 10 C-9.66 10 -10.32 10 -11 10 C-11.33 12.64 -11.66 15.28 -12 18 C-11.48050781 18.23074219 -10.96101563 18.46148437 -10.42578125 18.69921875 C-9.37970703 19.18841797 -9.37970703 19.18841797 -8.3125 19.6875 C-7.62800781 20.00074219 -6.94351563 20.31398438 -6.23828125 20.63671875 C-3.37006373 22.38367846 -1.33034572 24.58757472 1 27 C8.29784374 33.7408432 15.79470586 39.62510525 26.078125 40.16015625 C29 41 29 41 31.15234375 44.08984375 C31.77031363 45.36151197 32.36481896 46.64480388 32.9375 47.9375 C33.25267578 48.58396484 33.56785156 49.23042969 33.89257812 49.89648438 C34.67600945 51.56192449 35.34713167 53.27918091 36 55 C35.505 55.99 35.505 55.99 35 57 C34.4225 56.071875 33.845 55.14375 33.25 54.1875 C31.20683045 51.2930098 29.95709574 49.80741114 27 48 C24.64983605 47.64818657 24.64983605 47.64818657 22.1875 47.6875 C17.30787571 47.33235995 15.37877329 46.06208767 11.98828125 42.6796875 C8.6695252 39.87602325 4.71824405 38.33863183 0.76953125 36.58984375 C-2.34417675 34.80242604 -3.85409066 32.83976868 -6 30 C-7.98320018 28.96708324 -9.98347806 27.9662501 -12 27 C-14.375 25.3125 -14.375 25.3125 -16 23 C-16.32810857 20.24282957 -16.1862368 17.79355202 -16 15 C-16.7425 15.7425 -17.485 16.485 -18.25 17.25 C-20.5 19.5 -22.75 21.75 -25 24 C-25.66 23.67 -26.32 23.34 -27 23 C-26.35933594 22.29875 -25.71867187 21.5975 -25.05859375 20.875 C-24.19363281 19.92625 -23.32867187 18.9775 -22.4375 18 C-21.75457886 17.25157837 -21.75457886 17.25157837 -21.05786133 16.48803711 C-18.38618663 13.55187744 -15.76613088 10.58041091 -13.1875 7.5625 C-5.49845128 -1.20697711 -5.49845128 -1.20697711 0 0 Z " fill="#F3481B" transform="translate(65,22)"/>
<path d="M0 0 C0.99 0.33 1.98 0.66 3 1 C2.67 1.66 2.34 2.32 2 3 C4.475 3.495 4.475 3.495 7 4 C7 4.66 7 5.32 7 6 C5.75283203 6.30744141 5.75283203 6.30744141 4.48046875 6.62109375 C3.39378906 6.89050781 2.30710938 7.15992187 1.1875 7.4375 C0.10855469 7.70433594 -0.97039062 7.97117187 -2.08203125 8.24609375 C-4.0740843 8.76077412 -6.04811524 9.34937175 -8 10 C-10.76813055 10.22821229 -13.53484677 10.38003289 -16.30859375 10.5234375 C-19.02917192 10.77697453 -19.02917192 10.77697453 -20.78515625 12.4765625 C-26.71807312 16.55740479 -35.71762718 14.99940678 -42.5625 14.5625 C-43.47580078 14.51029297 -44.38910156 14.45808594 -45.33007812 14.40429688 C-47.55387081 14.27622505 -49.77701936 14.14136041 -52 14 C-49.06960405 12.0464027 -48.2373049 11.74671438 -44.9375 11.5 C-41.00011598 11.40838115 -41.00011598 11.40838115 -39 9 C-36.28594112 8.13091726 -33.60770643 7.79606185 -30.77734375 7.53515625 C-29.99166016 7.45716797 -29.20597656 7.37917969 -28.39648438 7.29882812 C-26.75365747 7.14093928 -25.1104157 6.98731052 -23.46679688 6.83789062 C-22.68240234 6.75861328 -21.89800781 6.67933594 -21.08984375 6.59765625 C-20.37691162 6.53070557 -19.66397949 6.46375488 -18.92944336 6.39477539 C-16.68438043 6.06161529 -16.68438043 6.06161529 -14 4 C-11.99394263 3.42487518 -9.97034531 2.90927819 -7.9375 2.4375 C-3.85449069 1.53440676 -3.85449069 1.53440676 0 0 Z " fill="#C3A297" transform="translate(94,93)"/>
<path d="M0 0 C4.02087299 0.49919001 5.73007677 1.27486908 8.25 4.4375 C8.84039062 5.15421875 9.43078125 5.8709375 10.0390625 6.609375 C10.68617187 7.39828125 11.33328125 8.1871875 12 9 C13.53220702 10.73755435 15.07412096 12.46659103 16.625 14.1875 C17.76582031 15.45787109 17.76582031 15.45787109 18.9296875 16.75390625 C20.47788111 18.43355026 22.09762611 20.04773402 23.75 21.625 C26.77910111 24.8223845 31 29.39520813 31 34 C30.34 34 29.68 34 29 34 C27.4921875 32.25 27.4921875 32.25 25.875 30 C25.33617188 29.2575 24.79734375 28.515 24.2421875 27.75 C23.83226563 27.1725 23.42234375 26.595 23 26 C22.34 27.32 21.68 28.64 21 30 C14.75264085 25.21478873 14.75264085 25.21478873 14 21 C13.01 20.67 12.02 20.34 11 20 C9.71875 18.22265625 9.71875 18.22265625 8.5 16.0625 C6.09286934 11.81144553 4.11004403 10.3386575 -0.6875 8.875 C-1.780625 8.58625 -2.87375 8.2975 -4 8 C-3.40072174 4.64404172 -2.15377564 2.62198774 0 0 Z " fill="#F2A53D" transform="translate(61,24)"/>
<path d="M0 0 C6.87409083 4.77201378 11.40671279 11.57971584 15 19 C15.98994188 20.67266041 16.98432193 22.34284104 18 24 C11.69315759 21.22881167 8.45816759 16.22735789 6 10 C3.56249975 7.31232422 3.56249975 7.31232422 1 5 C0.34 4.34 -0.32 3.68 -1 3 C-4.80296762 2.8478813 -6.87696667 3.14174689 -9.921875 5.46875 C-14.64789145 10.08134206 -18.71748904 15.25860982 -22.83984375 20.40625 C-24.67770745 22.61301582 -26.54532606 24.58983389 -28.625 26.5625 C-34.54853363 32.32034038 -39.3968863 38.80630777 -41 47 C-41.66 47 -42.32 47 -43 47 C-43.33 47.99 -43.66 48.98 -44 50 C-44.66 50 -45.32 50 -46 50 C-46 49.34 -46 48.68 -46 48 C-45.34 48 -44.68 48 -44 48 C-43.87625 46.948125 -43.7525 45.89625 -43.625 44.8125 C-41.90440128 37.84345627 -36.5022449 32.40096557 -32 27 C-31.29230469 26.13761719 -30.58460937 25.27523437 -29.85546875 24.38671875 C-26.50369954 20.4139902 -26.50369954 20.4139902 -25 19 C-24.34 19 -23.68 19 -23 19 C-22.74734375 18.44183594 -22.4946875 17.88367188 -22.234375 17.30859375 C-17.59917232 8.63959126 -10.55670253 -1.14524915 0 0 Z " fill="#C49283" transform="translate(66,20)"/>
<path d="M0 0 C2 2 2 2 3 5 C3.66 5.33 4.32 5.66 5 6 C5.33 5.34 5.66 4.68 6 4 C5.67 5.98 5.34 7.96 5 10 C3.35 10 1.7 10 0 10 C-2.46173475 16.56565147 -2.40436052 22.62161906 -2.4375 29.5625 C-2.47037109 30.78130859 -2.50324219 32.00011719 -2.53710938 33.25585938 C-2.54419922 34.43083984 -2.55128906 35.60582031 -2.55859375 36.81640625 C-2.57204834 37.88318604 -2.58550293 38.94996582 -2.59936523 40.04907227 C-1.75503386 44.20607159 -0.46492632 45.56457621 3 48 C6.22929972 48.71833189 9.37712358 48.72155983 12.67578125 48.70703125 C13.6009404 48.72215256 14.52609955 48.73727386 15.47929382 48.75285339 C18.42394402 48.79571967 21.36756891 48.80456736 24.3125 48.8125 C26.31317828 48.83564513 28.31383219 48.8610105 30.31445312 48.88867188 C35.20972601 48.95151378 40.10435937 48.98385739 45 49 C45 49.33 45 49.66 45 50 C38.96774061 50.09899561 32.93595573 50.17152907 26.90307617 50.21972656 C24.85156007 50.23982199 22.80010111 50.26710324 20.7487793 50.30175781 C17.79721975 50.35036669 14.84641852 50.37298952 11.89453125 50.390625 C10.97976517 50.41127014 10.06499908 50.43191528 9.12251282 50.45318604 C4.88117284 50.45467516 2.61945952 50.38502797 -1.0559082 48.10058594 C-5.49877414 43.30008129 -4.22379752 36.96654545 -4.24023438 30.78149414 C-4.24982629 28.60197083 -4.28079032 26.42343786 -4.3125 24.24414062 C-4.37305462 16.17177008 -3.9582307 8.6291723 -1 1 C-0.67 0.67 -0.34 0.34 0 0 Z " fill="#DDC7B3" transform="translate(17,58)"/>
<path d="M0 0 C3 1 3 1 5 4 C5.25760279 6.69452521 5.08900053 9.28548375 5 12 C6.32 12 7.64 12 9 12 C9 12.66 9 13.32 9 14 C8.34 14 7.68 14 7 14 C7 14.66 7 15.32 7 16 C4 15 4 15 2.8125 12.9375 C2.544375 12.298125 2.27625 11.65875 2 11 C-1.48347986 20.5681151 -1.35426651 29.67206969 -1.1875 39.6875 C-1.17241751 41.27537785 -1.15873545 42.86326965 -1.14648438 44.45117188 C-1.11377999 48.30113221 -1.06219823 52.15040784 -1 56 C-1.66 55.67 -2.32 55.34 -3 55 C-3.3247069 52.5922677 -3.51870329 50.29520829 -3.625 47.875 C-3.66077148 47.1521582 -3.69654297 46.42931641 -3.73339844 45.68457031 C-3.83541546 43.45671277 -3.91901055 41.22870956 -4 39 C-4.05414063 37.78054687 -4.10828125 36.56109375 -4.1640625 35.3046875 C-4.44947896 23.4988248 -2.98565874 11.43885534 0 0 Z " fill="#E9E3DE" transform="translate(15,48)"/>
<path d="M0 0 C2.11156948 3.16735423 2.19318039 4.29401715 2.5 7.9375 C2.87750257 10.62806517 2.87750257 10.62806517 4 13 C7.12670847 15.11628204 10.38787474 16.00355165 14 17 C15.67391038 17.64826405 17.34293821 18.3098055 19 19 C18.67 19.66 18.34 20.32 18 21 C15.22858283 21.08089542 12.45952181 21.14044062 9.6875 21.1875 C8.90181641 21.21263672 8.11613281 21.23777344 7.30664062 21.26367188 C6.54931641 21.27333984 5.79199219 21.28300781 5.01171875 21.29296875 C4.31522217 21.3086792 3.61872559 21.32438965 2.90112305 21.34057617 C0.38711448 20.89020479 -0.48666242 20.02719584 -2 18 C-2.109375 14.78515625 -2.109375 14.78515625 -1.75 11.0625 C-1.64171875 9.83660156 -1.5334375 8.61070313 -1.421875 7.34765625 C-1.10063515 4.79855854 -0.71473629 2.45844636 0 0 Z " fill="#F2AA41" transform="translate(18,84)"/>
<path d="M0 0 C3.52866567 2.54063928 6.8338475 5.17737794 9 9 C8.67 9.99 8.34 10.98 8 12 C3.2020202 7.45454545 3.2020202 7.45454545 2 4.75 C1.09725562 2.69722976 1.09725562 2.69722976 -1.625 2.25 C-2.40875 2.1675 -3.1925 2.085 -4 2 C-4.226875 2.556875 -4.45375 3.11375 -4.6875 3.6875 C-7.18283123 8.08403598 -10.89238758 10.96685035 -14.9375 13.875 C-18.92809763 16.78275995 -21.97065516 20.12152063 -25 24 C-25.66 23.67 -26.32 23.34 -27 23 C-26.35933594 22.29875 -25.71867187 21.5975 -25.05859375 20.875 C-24.19363281 19.92625 -23.32867187 18.9775 -22.4375 18 C-21.75457886 17.25157837 -21.75457886 17.25157837 -21.05786133 16.48803711 C-18.38618663 13.55187744 -15.76613088 10.58041091 -13.1875 7.5625 C-5.49845128 -1.20697711 -5.49845128 -1.20697711 0 0 Z " fill="#AC4B3F" transform="translate(65,22)"/>
<path d="M0 0 C6.23614545 1.88974104 10.74473576 6.27789336 14.6875 11.3125 C17.30562072 14.3645411 17.30562072 14.3645411 21 15 C29.0449558 14.42604358 36.81958615 12.95448644 44.546875 10.6640625 C48.01929312 9.7240767 51.42284959 9.33746702 55 9 C51.72083962 11.18610692 48.454309 12.34102042 44.75 13.5625 C44.10675781 13.78357422 43.46351562 14.00464844 42.80078125 14.23242188 C34.2817064 17.06925666 24.91943705 18.3186187 16 17 C13.19310756 15.11279012 11.75700153 12.84325586 10 10 C8.35353315 8.31337542 6.68816933 6.64488294 5 5 C3.33333333 3.33333333 1.66666667 1.66666667 0 0 Z " fill="#AC4B3F" transform="translate(37,83)"/>
<path d="M0 0 C1.10844919 3.32534757 0.84454356 5.62182575 0 9 C-2.21290711 9.7376357 -4.42600239 10.47455514 -6.640625 11.20703125 C-8.3953403 11.79677828 -10.13861349 12.42079194 -11.875 13.0625 C-15.68011113 14.20403334 -19.49286315 14.82240991 -23.4140625 15.4375 C-25.98210585 15.87868847 -25.98210585 15.87868847 -28.0390625 17.0546875 C-30.42445366 18.2046171 -32.11846106 18.2023982 -34.75 18.125 C-35.54921875 18.10695313 -36.3484375 18.08890625 -37.171875 18.0703125 C-37.77515625 18.04710938 -38.3784375 18.02390625 -39 18 C-39 17.67 -39 17.34 -39 17 C-38.37351562 16.87882812 -37.74703125 16.75765625 -37.1015625 16.6328125 C-36.28429687 16.46523437 -35.46703125 16.29765625 -34.625 16.125 C-33.40683594 15.88136719 -33.40683594 15.88136719 -32.1640625 15.6328125 C-29.81326077 15.13341068 -29.81326077 15.13341068 -28 13 C-25.57421875 12.65625 -25.57421875 12.65625 -22.6875 12.5 C-18.65045857 12.2796976 -15.72651984 11.51647022 -12 10 C-9.32421875 9.5859375 -9.32421875 9.5859375 -6.6875 9.375 C-5.80449219 9.30023438 -4.92148438 9.22546875 -4.01171875 9.1484375 C-3.01591797 9.07496094 -3.01591797 9.07496094 -2 9 C-2.495 8.01 -2.495 8.01 -3 7 C-5.02463255 6.34786708 -5.02463255 6.34786708 -7 6 C-6 3 -6 3 -2.9375 1.3125 C-1.968125 0.879375 -0.99875 0.44625 0 0 Z " fill="#DDC7B3" transform="translate(103,90)"/>
<path d="M0 0 C1.32 0.33 2.64 0.66 4 1 C4.91297308 5.97063121 4.91297308 10.02936879 4 15 C1.0280615 13.87548273 -1.33440687 12.77706209 -4 11 C-4.61829563 7.02524236 -4.31867116 5.4580898 -2 2.125 C-1.34 1.42375 -0.68 0.7225 0 0 Z " fill="#6A0A0A" transform="translate(44,74)"/>
<path d="M0 0 C0.33 0 0.66 0 1 0 C1.20625 0.886875 1.4125 1.77375 1.625 2.6875 C3.05176754 6.12471272 4.51087193 7.57613437 7.44140625 9.796875 C9 11 9 11 11.25 13.3125 C15.23391353 17.20587004 19.61653629 20.56983325 24 24 C23.67 25.32 23.34 26.64 23 28 C22.278125 27.0925 21.55625 26.185 20.8125 25.25 C17.81262372 21.65859882 14.61948914 18.89071902 10.5 16.625 C8 15 8 15 5.75 11.9375 C3.03596201 8.42059546 0.04211701 7.93359859 -4.20703125 7.2265625 C-5.09455078 7.11441406 -5.09455078 7.11441406 -6 7 C-6 6.01 -6 5.02 -6 4 C-4.7934375 3.566875 -4.7934375 3.566875 -3.5625 3.125 C-0.8673532 2.26737432 -0.8673532 2.26737432 0 0 Z " fill="#C48A78" transform="translate(23,67)"/>
<path d="M0 0 C1.37562854 1.28965176 2.70766393 2.62689293 4 4 C4 4.66 4 5.32 4 6 C4.61875 6.185625 5.2375 6.37125 5.875 6.5625 C9.05602866 8.71437233 9.19451947 11.37533763 10 15 C10.66 15 11.32 15 12 15 C12.26554687 15.67546875 12.53109375 16.3509375 12.8046875 17.046875 C13.15789062 17.93890625 13.51109375 18.8309375 13.875 19.75 C14.22304687 20.63171875 14.57109375 21.5134375 14.9296875 22.421875 C15.91407642 24.94508957 15.91407642 24.94508957 17.125 26.96875 C18.28120422 29.65279551 18.19425026 31.84148888 18.125 34.75 C18.10695313 35.73484375 18.08890625 36.7196875 18.0703125 37.734375 C18.04710938 38.48203125 18.02390625 39.2296875 18 40 C17.01 40.495 17.01 40.495 16 41 C16.09765625 39.14453125 16.1953125 37.2890625 16.29296875 35.43359375 C15.87850823 31.99080835 14.47033113 29.09934826 13 26 C12.69763428 25.35732178 12.39526855 24.71464355 12.08374023 24.05249023 C11.11527363 22.0257967 10.1233522 20.01212296 9.125 18 C8.79886719 17.32710937 8.47273438 16.65421875 8.13671875 15.9609375 C6.40632887 12.47322561 4.57145113 9.31288263 2.2421875 6.1875 C0 3 0 3 0 0 Z " fill="#E0D0C1" transform="translate(88,49)"/>
<path d="M0 0 C3.61798643 1.20599548 3.78284138 1.90807177 5.48046875 5.18359375 C5.92197266 6.02857422 6.36347656 6.87355469 6.81835938 7.74414062 C7.27017578 8.63294922 7.72199219 9.52175781 8.1875 10.4375 C8.65091797 11.32244141 9.11433594 12.20738281 9.59179688 13.11914062 C13 19.70967185 13 19.70967185 13 22 C9.5322031 20.8440677 9.38219094 20.41283549 7.7734375 17.32421875 C7.3815625 16.57849609 6.9896875 15.83277344 6.5859375 15.06445312 C6.18632813 14.28005859 5.78671875 13.49566406 5.375 12.6875 C4.76398438 11.52831055 4.76398438 11.52831055 4.140625 10.34570312 C2.35589494 6.90921131 0.82263256 3.80401044 0 0 Z " fill="#C48D7C" transform="translate(91,58)"/>
<path d="M0 0 C0.33 0.66 0.66 1.32 1 2 C0.67 2.886875 0.34 3.77375 0 4.6875 C-1.20615108 8.68287546 -1.09628252 10.98029744 0 15 C2.45817955 17.79245093 2.45817955 17.79245093 5 20 C5 20.66 5 21.32 5 22 C6.32 22.66 7.64 23.32 9 24 C8.67 24.66 8.34 25.32 8 26 C6.85971043 24.8251562 5.71988496 23.64985937 4.58203125 22.47265625 C3.01281425 20.93838589 3.01281425 20.93838589 1.07421875 19.68359375 C-0.9798313 18.23876095 -2.508126 17.02719349 -4 15 C-4.65265568 10.1672401 -3.59386404 6.18772809 -1.4375 1.875 C-0.7259375 0.946875 -0.7259375 0.946875 0 0 Z " fill="#AC4B3F" transform="translate(28,57)"/>
<path d="M0 0 C0.33 0 0.66 0 1 0 C1.28875 0.9075 1.5775 1.815 1.875 2.75 C2.98747068 6.19166475 2.98747068 6.19166475 5 10 C1.37 9.01 -2.26 8.02 -6 7 C-6 6.01 -6 5.02 -6 4 C-4.7934375 3.566875 -4.7934375 3.566875 -3.5625 3.125 C-0.8673532 2.26737432 -0.8673532 2.26737432 0 0 Z " fill="#C4806C" transform="translate(23,67)"/>
<path d="M0 0 C0.33 0.66 0.66 1.32 1 2 C-0.54115394 6.16111563 -2.12614955 9.57874946 -5 13 C-5.99 12.34 -6.98 11.68 -8 11 C-6.63629701 8.00779732 -5.05091917 5.70973471 -2.875 3.25 C-2.33617187 2.63640625 -1.79734375 2.0228125 -1.2421875 1.390625 C-0.62730469 0.70226563 -0.62730469 0.70226563 0 0 Z " fill="#A92522" transform="translate(37,46)"/>
<path d="M0 0 C2.26171875 -0.2421875 2.26171875 -0.2421875 5 0 C7.01953125 1.6796875 7.01953125 1.6796875 8.8125 3.875 C9.41707031 4.59429687 10.02164063 5.31359375 10.64453125 6.0546875 C12 8 12 8 12 10 C8.28828073 8.76276024 6.7446651 6.7446651 4 4 C1.83379456 2.70480005 1.83379456 2.70480005 0 2 C0 1.34 0 0.68 0 0 Z " fill="#DDC7B3" transform="translate(23,77)"/>
<path d="M0 0 C3.67882073 3.28466137 5.75150101 6.66360908 8 11 C8 11.66 8 12.32 8 13 C7.34 13 6.68 13 6 13 C4.23828125 11.171875 4.23828125 11.171875 2.3125 8.75 C1.66925781 7.96109375 1.02601562 7.1721875 0.36328125 6.359375 C-1 4 -1 4 -0.70703125 1.703125 C-0.47371094 1.14109375 -0.24039063 0.5790625 0 0 Z " fill="#ECAC5B" transform="translate(84,45)"/>
<path d="M0 0 C2.31 0.33 4.62 0.66 7 1 C7.33 2.32 7.66 3.64 8 5 C4.7 4.67 1.4 4.34 -2 4 C-1.34 2.68 -0.68 1.36 0 0 Z " fill="#E6AD74" transform="translate(59,27)"/>
<path d="M0 0 C0.66 0 1.32 0 2 0 C1.45254373 3.76583554 0.00868233 5.22721286 -2.875 7.625 C-3.57367188 8.21539062 -4.27234375 8.80578125 -4.9921875 9.4140625 C-7 11 -7 11 -10 13 C-9.74501565 9.55771124 -8.8118705 8.83640913 -6.125 6.5 C-5.31675781 5.87544922 -5.31675781 5.87544922 -4.4921875 5.23828125 C-2.65865009 3.71673319 -1.41195495 1.90613919 0 0 Z " fill="#B10B0E" transform="translate(47,37)"/>
<path d="M0 0 C0.66 0 1.32 0 2 0 C2.99 3.3 3.98 6.6 5 10 C2 9 2 9 0.8125 6.6875 C0 4 0 4 0 0 Z " fill="#E5D9CF" transform="translate(98,64)"/>
<path d="M0 0 C1.65 0.33 3.3 0.66 5 1 C5.33 1.99 5.66 2.98 6 4 C3.69 4.33 1.38 4.66 -1 5 C-0.67 3.35 -0.34 1.7 0 0 Z " fill="#F3912D" transform="translate(61,24)"/>
<path d="M0 0 C3.29148243 1.13499394 3.9959869 1.99283376 5.75 5.125 C6.1625 6.07375 6.575 7.0225 7 8 C3.64379729 6.61122646 1.92701272 5.08322035 0 2 C0 1.34 0 0.68 0 0 Z " fill="#CB967E" transform="translate(28,76)"/>
</svg>
