<?xml version="1.0" encoding="UTF-8"?>
<svg version="1.1" xmlns="http://www.w3.org/2000/svg" width="128" height="128">
<path d="M0 0 C42.24 0 84.48 0 128 0 C128 42.24 128 84.48 128 128 C85.76 128 43.52 128 0 128 C0 85.76 0 43.52 0 0 Z " fill="#9E7710" transform="translate(0,0)"/>
<path d="M0 0 C1.31677734 0.08507812 1.31677734 0.08507812 2.66015625 0.171875 C15.37933806 1.60984441 27.37846344 7.90233477 35.94140625 17.375 C42.49336002 25.7296735 45.57458812 33.24699384 45 44 C43.20767152 54.85542342 35.67349551 63.70044287 27 70 C13.50363628 78.11581338 -0.65297474 80.17693921 -16.15625 76.87109375 C-29.98254518 72.63584124 -41.17472535 64.22918746 -48.9765625 52.0078125 C-52.49616071 45.10295189 -52.0554421 35.5224157 -49.875 28.25 C-47.81014374 22.9557477 -44.86647835 16.64017745 -39.80859375 13.74609375 C-39.21175781 13.49988281 -38.61492188 13.25367188 -38 13 C-38 12.34 -38 11.68 -38 11 C-26.71960403 2.85178641 -13.89935681 -1.03131821 0 0 Z " fill="#9F7A15" transform="translate(63,23)"/>
<path d="M0 0 C1.31677734 0.08507812 1.31677734 0.08507812 2.66015625 0.171875 C15.37933806 1.60984441 27.37846344 7.90233477 35.94140625 17.375 C42.49336002 25.7296735 45.57458812 33.24699384 45 44 C43.20767152 54.85542342 35.67349551 63.70044287 27 70 C13.50363628 78.11581338 -0.65297474 80.17693921 -16.15625 76.87109375 C-29.98254518 72.63584124 -41.17472535 64.22918746 -48.9765625 52.0078125 C-52.49616071 45.10295189 -52.0554421 35.5224157 -49.875 28.25 C-47.81014374 22.9557477 -44.86647835 16.64017745 -39.80859375 13.74609375 C-39.21175781 13.49988281 -38.61492188 13.25367188 -38 13 C-38 12.34 -38 11.68 -38 11 C-26.71960403 2.85178641 -13.89935681 -1.03131821 0 0 Z M-39 23 C-43.53853844 29.16806687 -44.83622584 35.47396743 -44 43 C-41.76096213 51.29571584 -34.46952737 58.01082564 -27.546875 62.640625 C-15.59462308 69.04086312 -2.41254764 70.97146634 10.6875 67.4375 C20.50711935 64.10941344 27.64545271 57.78370223 32.8125 48.875 C35.08456401 42.89101745 35.2128653 36.23430745 32.96875 30.25 C27.35881629 20.02745412 17.00572267 13.58196362 6.26342773 9.64160156 C-10.34838512 4.93274123 -27.70017925 10.33116251 -39 23 Z " fill="#F3F2E7" transform="translate(63,23)"/>
<path d="M0 0 C7.75972196 6.48394562 7.75972196 6.48394562 8.2734375 11.86328125 C8.54627814 21.12936921 8.54627814 21.12936921 6 25.1875 C0.38246254 28.58142888 -5.45478485 29.67709122 -12 29 C-13.68153006 28.34969954 -15.34769128 27.65882511 -17 26.9375 C-22.53283696 24.55670349 -26.26485083 25.06888539 -31.9375 27 C-36.34944118 27 -38.20896337 24.88418848 -41.29296875 21.89453125 C-44.5991544 18.22519477 -45 16.04595095 -45 11.125 C-44.30412768 7.13886185 -42.90266777 4.29312598 -40.1328125 1.3359375 C-36.41245149 -0.99439851 -32.47411166 -0.79324577 -28.1796875 -0.890625 C-25.45245296 -0.98443651 -23.34050451 -1.29263119 -20.75 -2.0625 C-13.53239415 -3.86690146 -6.56078262 -3.83266814 0 0 Z " fill="#F7F6ED" transform="translate(72,49)"/>
<path d="M0 0 C3.09330681 2.39384562 5.37203191 4.94654181 7.75 8.0625 C8.595625 8.701875 9.44125 9.34125 10.3125 10 C13.19614738 12.44000932 14.36656487 14.56750599 15.75 18.0625 C15.75 19.3825 15.75 20.7025 15.75 22.0625 C16.41 22.0625 17.07 22.0625 17.75 22.0625 C20.69179933 35.22942443 17.47016183 43.65293357 10.56640625 54.7421875 C8.69838551 57.12843335 7.47530103 57.88972701 4.75 59.0625 C4.069375 59.805 3.38875 60.5475 2.6875 61.3125 C-5.2399279 69.50659979 -17.34325477 73.07592897 -28.4375 73.5 C-38.9025218 73.22558942 -51.9975138 70.90027428 -60.25 64.0625 C-60.58 63.0725 -60.91 62.0825 -61.25 61.0625 C-58.55198349 62.14070363 -55.85583135 63.2226622 -53.1640625 64.31640625 C-39.38959664 69.79674599 -24.39637787 71.62921007 -10.3515625 65.875 C2.10931732 60.09968038 9.7348778 52.31473812 15.1875 39.75 C16.78975833 29.24630649 14.9387267 20.68721486 8.75 12.0625 C1.24047852 2.23621126 -10.56758758 -4.22119888 -22.6875 -6.4375 C-24.53735781 -6.64663601 -26.39223141 -6.81746796 -28.25 -6.9375 C-29.39662109 -7.02257812 -29.39662109 -7.02257812 -30.56640625 -7.109375 C-38.24797643 -7.38420756 -46.37923281 -6.42415798 -53.25 -2.9375 C-54.24 -2.9375 -55.23 -2.9375 -56.25 -2.9375 C-55.92 -3.9275 -55.59 -4.9175 -55.25 -5.9375 C-36.81857826 -14.31541897 -16.3748156 -11.68349069 0 0 Z " fill="#B9A462" transform="translate(91.25,30.9375)"/>
<path d="M0 0 C6.93805201 4.64394378 11.32808335 9.7733542 15.04296875 17.203125 C15.77499881 26.48019822 14.82963166 33.02986737 8.79296875 40.328125 C0.70958466 49.01524732 -8.86833339 53.23686867 -20.89453125 53.703125 C-35.58454468 53.13961919 -47.33489565 47.44307222 -57.3046875 36.99609375 C-57.84996094 36.40441406 -58.39523438 35.81273437 -58.95703125 35.203125 C-58.62703125 34.543125 -58.29703125 33.883125 -57.95703125 33.203125 C-56.93609375 34.255 -56.93609375 34.255 -55.89453125 35.328125 C-45.62874839 45.50739845 -35.57982839 50.32410703 -20.95703125 51.203125 C-15.87854065 51.04055137 -10.93331677 50.20997171 -5.95703125 49.203125 C-5.95703125 48.543125 -5.95703125 47.883125 -5.95703125 47.203125 C-5.2815625 46.90019531 -4.60609375 46.59726563 -3.91015625 46.28515625 C1.23943235 43.86663559 4.75103667 42.00385928 8.04296875 37.203125 C8.70296875 37.203125 9.36296875 37.203125 10.04296875 37.203125 C10.18734375 36.295625 10.33171875 35.388125 10.48046875 34.453125 C11.04296875 31.203125 11.04296875 31.203125 11.60546875 29.328125 C12.98806813 22.61264229 12.1957554 18.16778957 8.66015625 12.375 C1.81569845 3.18292624 -7.85852686 -1.80115429 -18.95703125 -3.796875 C-29.58005962 -4.88139081 -39.58630868 -3.28175571 -48.33203125 3.140625 C-49.55390101 4.14521667 -50.76297763 5.16562508 -51.95703125 6.203125 C-53.1234348 7.16177856 -54.2900794 8.12013895 -55.45703125 9.078125 C-56.28203125 9.779375 -57.10703125 10.480625 -57.95703125 11.203125 C-58.28703125 10.543125 -58.61703125 9.883125 -58.95703125 9.203125 C-43.74194241 -9.34307797 -20.36045796 -12.372273 0 0 Z " fill="#B49D57" transform="translate(81.95703125,38.796875)"/>
<path d="M0 0 C-3.19990508 2.74277578 -6.00499382 4.6302836 -10 6 C-10 6.66 -10 7.32 -10 8 C-11.18623636 9.1523439 -12.37298708 10.30416365 -13.5625 11.453125 C-20.70221611 19.13608038 -22.4529671 27.66393434 -22.2421875 37.921875 C-21.51445146 47.17116528 -14.87344949 54.70480713 -8.0625 60.5625 C-7.051875 61.366875 -6.04125 62.17125 -5 63 C-6.671875 63.79296875 -6.671875 63.79296875 -9 64 C-11.578125 62.05078125 -11.578125 62.05078125 -14.25 59.3125 C-15.14203125 58.42175781 -16.0340625 57.53101563 -16.953125 56.61328125 C-19 54 -19 54 -19 50 C-19.91845703 49.66548828 -19.91845703 49.66548828 -20.85546875 49.32421875 C-25.03074352 46.74604362 -25.8702941 41.55055691 -27 37 C-26.9375 33.5 -26.9375 33.5 -26 30 C-25.79890625 29.13375 -25.5978125 28.2675 -25.390625 27.375 C-23.98668456 21.63444352 -22.20041214 16.96615678 -19 12 C-18.01 12 -17.02 12 -16 12 C-15.896875 11.360625 -15.79375 10.72125 -15.6875 10.0625 C-15.3471875 9.0415625 -15.3471875 9.0415625 -15 8 C-14.01 7.67 -13.02 7.34 -12 7 C-11.566875 6.071875 -11.566875 6.071875 -11.125 5.125 C-8.72853417 0.59834232 -4.85323043 -0.41599118 0 0 Z " fill="#B39B54" transform="translate(35,28)"/>
<path d="M0 0 C6.92028163 2.78733566 12.23403332 8.22725301 15.375 14.9375 C16.11474724 18.56226148 15.72134959 21.39325205 15 25 C14.34 25 13.68 25 13 25 C13.00902344 24.3709375 13.01804688 23.741875 13.02734375 23.09375 C12.80865562 16.78031864 11.49283478 13.13865217 7.01953125 8.62890625 C1.34790317 4.05430488 -4.88950141 3.24356398 -12 4 C-13.8990324 4.4747581 -15.7983904 4.95140979 -17.6796875 5.4921875 C-21.81250125 6.39667536 -26.02695527 6.51429328 -30.2421875 6.75390625 C-32.95845901 6.82675235 -32.95845901 6.82675235 -35 8 C-34.34 6.35 -33.68 4.7 -33 3 C-31.95199219 2.95101562 -30.90398438 2.90203125 -29.82421875 2.8515625 C-28.44528646 2.77651857 -27.0663815 2.70097143 -25.6875 2.625 C-24.99720703 2.5940625 -24.30691406 2.563125 -23.59570312 2.53125 C-15.26198983 2.04813619 -8.89185542 -1.03859787 0 0 Z " fill="#B9A564" transform="translate(67,43)"/>
<path d="M0 0 C0.66 0.33 1.32 0.66 2 1 C1.525625 1.495 1.05125 1.99 0.5625 2.5 C-1.54376161 5.87001858 -2.11358592 9.08507192 -2 13 C-0.25720914 18.22837259 2.46792041 21.06747791 7 24 C9.99668927 23.98705203 9.99668927 23.98705203 13 23 C18.9787941 21.50530148 22.14993616 22.68519922 27.578125 25.0703125 C32.70737441 27.03928244 37.74694802 26.02498575 43 25 C39.85568225 28.14431775 36.71157522 28.76910909 32.43359375 29.1484375 C28.89034431 28.93231635 26.27248385 27.51831491 23.14453125 25.9296875 C20.03298109 24.58078233 17.33141456 24.66005974 14 25 C13.34 25.33 12.68 25.66 12 26 C8.61161684 26.66114793 6.62691186 26.38352255 3.67578125 24.578125 C-3.43396338 19.22005659 -3.43396338 19.22005659 -5 15 C-5.0777346 12.66796188 -5.08967728 10.33160941 -5 8 C-4.34 8 -3.68 8 -3 8 C-3.061875 7.05125 -3.12375 6.1025 -3.1875 5.125 C-3.125625 4.09375 -3.06375 3.0625 -3 2 C-2.01 1.34 -1.02 0.68 0 0 Z " fill="#C7B884" transform="translate(30,51)"/>
<path d="M0 0 C0.83571533 -0.00644531 1.67143066 -0.01289063 2.5324707 -0.01953125 C8.18693672 0.0973918 12.49842812 1.25478593 17.6875 3.5 C14.27447635 4.63767455 13.00389123 4.02963208 9.68945312 2.99365234 C6.13243059 2.11654264 2.58055341 2.25210034 -1.0625 2.3125 C-1.81660156 2.31314453 -2.57070313 2.31378906 -3.34765625 2.31445312 C-6.58559953 2.34033367 -9.22166405 2.46972135 -12.3125 3.5 C-12.6425 4.16 -12.9725 4.82 -13.3125 5.5 C-14.446875 5.850625 -15.58125 6.20125 -16.75 6.5625 C-21.90304131 8.33909006 -25.25716123 11.79796019 -29.11328125 15.5390625 C-31.3125 17.5 -31.3125 17.5 -34.3125 18.5 C-31.9270916 11.45387058 -26.82715572 7.55350671 -20.53125 3.875 C-13.7225595 0.78652184 -7.37557233 0.05424711 0 0 Z " fill="#BFAC70" transform="translate(57.3125,31.5)"/>
<path d="M0 0 C3.35673339 1.67836669 5.44307594 3.43998392 7.6875 6.375 C14.71154564 14.74032068 25.57398511 16.71668187 35.96386719 17.86328125 C43.65878536 18.3799664 50.50163252 16.2088608 57.2578125 12.70703125 C58.12019531 12.35705078 58.12019531 12.35705078 59 12 C59.66 12.33 60.32 12.66 61 13 C50.75732212 19.4573404 40.42335312 21.71980646 28.44140625 19.2734375 C16.57854768 16.13214234 7.93360987 11.54658965 0 2 C0 1.34 0 0.68 0 0 Z " fill="#C7B884" transform="translate(23,72)"/>
<path d="M0 0 C5.68196382 3.49087973 9.89820178 6.75881339 14 12 C14.845625 12.5775 15.69125 13.155 16.5625 13.75 C21.41971452 18.23358264 23.43676783 25.52283007 24 32 C24.06340707 34.67285167 24.04611395 37.32539115 24 40 C23.67 40 23.34 40 23 40 C22.92523438 39.18917969 22.85046875 38.37835938 22.7734375 37.54296875 C21.23454281 24.58306148 16.15967695 15.28378889 6 7 C3.08906718 5.11671467 0.13618969 3.47541784 -3 2 C-2.01 1.34 -1.02 0.68 0 0 Z " fill="#C0AE73" transform="translate(85,27)"/>
<path d="M0 0 C0.33 0 0.66 0 1 0 C1.03738281 0.85722656 1.07476562 1.71445312 1.11328125 2.59765625 C1.80023131 14.54519945 5.26464095 22.61775686 14.01171875 30.90625 C15.64255278 32.30883342 17.3169948 33.66046525 19 35 C17.328125 35.79296875 17.328125 35.79296875 15 36 C12.421875 34.05078125 12.421875 34.05078125 9.75 31.3125 C8.85796875 30.42175781 7.9659375 29.53101562 7.046875 28.61328125 C5 26 5 26 5 22 C4.071875 21.690625 4.071875 21.690625 3.125 21.375 C1 20 1 20 -0.25 17.5 C-1.50053768 11.6641575 -1.66138665 5.76833446 0 0 Z " fill="#BCA96A" transform="translate(11,56)"/>
<path d="M0 0 C0.66 0.33 1.32 0.66 2 1 C1.32453125 1.59167969 0.6490625 2.18335938 -0.046875 2.79296875 C-0.93890625 3.58316406 -1.8309375 4.37335937 -2.75 5.1875 C-3.63171875 5.96480469 -4.5134375 6.74210937 -5.421875 7.54296875 C-11.74367152 13.56783241 -15.51187544 19.80457292 -16.203125 28.578125 C-16.31519146 34.96591308 -15.44947496 40.09501573 -13 46 C-16.95577264 42.42704407 -17.83777533 40.33041983 -18.203125 35.08203125 C-18.36077833 24.08571128 -16.34919752 15.49919419 -9 7 C-6.80859375 5.74609375 -6.80859375 5.74609375 -5 5 C-5 4.34 -5 3.68 -5 3 C-2.625 1.3125 -2.625 1.3125 0 0 Z " fill="#E2DCC1" transform="translate(30,31)"/>
<path d="M0 0 C0.33 0 0.66 0 1 0 C3.96407101 13.26660815 0.64642197 21.69349437 -6.28125 32.875 C-6.8484375 33.57625 -7.415625 34.2775 -8 35 C-8.99 35 -9.98 35 -11 35 C-10.34 34.34 -9.68 33.68 -9 33 C-8.5978125 31.9790625 -8.5978125 31.9790625 -8.1875 30.9375 C-6.80221826 27.51075043 -5.0045866 24.45580175 -3.12109375 21.28125 C-1.92667706 18.85079932 -1.41768433 16.6656708 -1 14 C-0.34 14 0.32 14 1 14 C0.67 9.38 0.34 4.76 0 0 Z " fill="#B7A15E" transform="translate(108,53)"/>
<path d="M0 0 C2.65210177 2.65210177 2.29859444 3.99325599 2.3125 7.6875 C2.1351878 15.95221884 -0.5122267 21.17669219 -6.02734375 27.1953125 C-8.95236833 29.87127559 -12.15438938 31.93827707 -16 33 C-16.99 32.67 -17.98 32.34 -19 32 C-18.32453125 31.69707031 -17.6490625 31.39414063 -16.953125 31.08203125 C-11.8035364 28.66351059 -8.29193208 26.80073428 -5 22 C-4.34 22 -3.68 22 -3 22 C-2.87625 21.0925 -2.7525 20.185 -2.625 19.25 C-2 16 -2 16 -0.96875 14.1875 C0.31896843 11.27974871 0.19380063 8.91482885 0.125 5.75 C0.09792969 4.13351563 0.09792969 4.13351563 0.0703125 2.484375 C0.04710938 1.66453125 0.02390625 0.8446875 0 0 Z " fill="#BFAD72" transform="translate(95,54)"/>
<path d="M0 0 C0 4.18305733 -2.18566129 6.17077061 -5 9 C-9.44414319 12.5351139 -14.41234836 14.91294777 -20 16 C-22.2734375 15.57421875 -22.2734375 15.57421875 -24 15 C-23.23816406 14.72027344 -22.47632812 14.44054687 -21.69140625 14.15234375 C-13.09995621 10.81658724 -6.42353672 6.60363588 0 0 Z " fill="#C0AD72" transform="translate(99,84)"/>
<path d="M0 0 C-3.19990508 2.74277578 -6.00499382 4.6302836 -10 6 C-10 6.66 -10 7.32 -10 8 C-11.62102968 9.71108689 -13.29503463 11.37253306 -15 13 C-15.763125 13.763125 -16.52625 14.52625 -17.3125 15.3125 C-18.1478125 16.1478125 -18.1478125 16.1478125 -19 17 C-18.38479725 13.00118212 -16.39731331 10.19641774 -14 7 C-13.34 7 -12.68 7 -12 7 C-11.773125 6.401875 -11.54625 5.80375 -11.3125 5.1875 C-8.64127805 0.73546341 -5.00990402 -0.42942034 0 0 Z " fill="#B9A463" transform="translate(35,28)"/>
<path d="M0 0 C1.37119578 2.74239155 0.83810555 4.58973428 0.5 7.625 C0.02024161 12.66549953 0.13861606 17.02311501 1 22 C-1.68484787 19.54861716 -2.8285038 17.70177002 -3.203125 13.984375 C-3.3179114 8.5128901 -2.49063366 4.87749092 0 0 Z " fill="#BCA96A" transform="translate(22,50)"/>
<path d="M0 0 C0.66 0.33 1.32 0.66 2 1 C1.525625 1.495 1.05125 1.99 0.5625 2.5 C-2.84461684 7.95138695 -2.13228274 13.96115873 -1 20 C-2.70840281 18.36587557 -3.93453047 17.13093906 -5 15 C-5.04022391 12.6670134 -5.04320247 10.33293334 -5 8 C-4.34 8 -3.68 8 -3 8 C-3.061875 7.05125 -3.12375 6.1025 -3.1875 5.125 C-3.125625 4.09375 -3.06375 3.0625 -3 2 C-2.01 1.34 -1.02 0.68 0 0 Z " fill="#BBA666" transform="translate(30,51)"/>
<path d="M0 0 C0.66 0.33 1.32 0.66 2 1 C0.41856529 2.43958847 -1.16522779 3.87658645 -2.75 5.3125 C-3.63171875 6.11300781 -4.5134375 6.91351563 -5.421875 7.73828125 C-7.55449328 9.60916911 -9.70187943 11.34084286 -12 13 C-10.82744291 9.66272214 -9.81131596 7.22562513 -7 5 C-6.34 5 -5.68 5 -5 5 C-5 4.34 -5 3.68 -5 3 C-2.625 1.3125 -2.625 1.3125 0 0 Z " fill="#EAE6D2" transform="translate(30,31)"/>
<path d="M0 0 C0.33 0.99 0.66 1.98 1 3 C-2.73992579 7.19325013 -5.75438896 9.25146299 -11 11 C-11.99 10.67 -12.98 10.34 -14 10 C-13.32453125 9.69707031 -12.6490625 9.39414063 -11.953125 9.08203125 C-6.89368037 6.705847 -3.07052221 4.8849217 0 0 Z " fill="#B6A05B" transform="translate(90,76)"/>
<path d="M0 0 C0.33 0 0.66 0 1 0 C1.80331767 3.54745085 2.16196507 6.8638255 2.1875 10.5 C2.20167969 11.4178125 2.21585937 12.335625 2.23046875 13.28125 C1.98342521 16.19552633 1.21293885 18.35358797 0 21 C-0.33 21 -0.66 21 -1 21 C-1 18.69 -1 16.38 -1 14 C-0.34 14 0.32 14 1 14 C0.67 9.38 0.34 4.76 0 0 Z " fill="#B29A51" transform="translate(108,53)"/>
<path d="M0 0 C1.48285242 0.95262034 2.96118201 1.91228405 4.4375 2.875 C5.67306641 3.67550781 5.67306641 3.67550781 6.93359375 4.4921875 C9 6 9 6 10 8 C6.70319035 7.34215037 4.15882078 6.10579427 1.25 4.4375 C0.45078125 3.98246094 -0.3484375 3.52742188 -1.171875 3.05859375 C-1.77515625 2.70925781 -2.3784375 2.35992188 -3 2 C-2.01 1.34 -1.02 0.68 0 0 Z " fill="#B9A462" transform="translate(85,27)"/>
<path d="M0 0 C1.32 0.33 2.64 0.66 4 1 C5.20568053 5.67201205 5.09382426 10.21496292 5 15 C4.67 15 4.34 15 4 15 C3.87882812 14.25234375 3.75765625 13.5046875 3.6328125 12.734375 C3.46523437 11.74953125 3.29765625 10.7646875 3.125 9.75 C2.96257812 8.77546875 2.80015625 7.8009375 2.6328125 6.796875 C2.05144152 4.22735883 1.29159735 2.27928944 0 0 Z " fill="#B29A51" transform="translate(91,51)"/>
<path d="M0 0 C0.33 0.66 0.66 1.32 1 2 C-2 5 -5 8 -8 11 C-7.3836103 6.99346695 -5.41427274 4.19536099 -3 1 C-2.01 0.67 -1.02 0.34 0 0 Z " fill="#BFAC70" transform="translate(24,34)"/>
<path d="M0 0 C3.98175544 2.10148204 6.35039045 4.36905358 9 8 C4.75153925 7.52794881 2.73180712 5.11122478 0 2 C0 1.34 0 0.68 0 0 Z " fill="#B9A563" transform="translate(23,72)"/>
</svg>
