<?xml version="1.0" encoding="UTF-8"?>
<svg version="1.1" xmlns="http://www.w3.org/2000/svg" width="128" height="128">
<path d="M0 0 C42.24 0 84.48 0 128 0 C128 42.24 128 84.48 128 128 C85.76 128 43.52 128 0 128 C0 85.76 0 43.52 0 0 Z " fill="#060405" transform="translate(0,0)"/>
<path d="M0 0 C2.81186011 0.60406881 5.55662338 0.51952642 8.4296875 0.56640625 C15.63657114 1.10712428 15.63657114 1.10712428 18.6171875 4.37890625 C19.92578125 6.32421875 19.92578125 6.32421875 21.0546875 8.44140625 C21.59802734 9.45847656 21.59802734 9.45847656 22.15234375 10.49609375 C23.3389023 13.10381559 24.21033886 15.70250674 25.0546875 18.44140625 C25.42851563 19.64925781 25.80234375 20.85710938 26.1875 22.1015625 C28.86835954 31.77180583 29.41676473 41.17496803 29.4296875 51.19140625 C29.43129883 52.40554199 29.43291016 53.61967773 29.43457031 54.87060547 C29.36327837 60.53673038 29.05523651 65.08731848 27.0546875 70.44140625 C28.1478125 70.58578125 29.2409375 70.73015625 30.3671875 70.87890625 C34.0546875 71.44140625 34.0546875 71.44140625 37.0546875 72.44140625 C37.6796875 75.25390625 37.6796875 75.25390625 38.0546875 78.44140625 C37.3946875 79.43140625 36.7346875 80.42140625 36.0546875 81.44140625 C33.32226983 81.21244953 30.59584975 80.95914089 27.8671875 80.69140625 C27.09826172 80.62953125 26.32933594 80.56765625 25.53710938 80.50390625 C21.82158218 80.121191 19.28543515 79.56300476 15.94140625 77.80078125 C15.00748047 76.63289063 15.00748047 76.63289063 14.0546875 75.44140625 C14.32094132 73.0994702 14.66453505 70.76591407 15.0546875 68.44140625 C15.90285226 52.65384284 15.88163351 37.57706252 11.0546875 22.44140625 C10.55440751 19.75154468 10.1153411 17.069403 9.7421875 14.359375 C8.75443115 11.60375926 7.58846399 10.91223757 5.0546875 9.44140625 C2.44426772 9.11739073 0.0578181 8.9534952 -2.5546875 8.9296875 C-3.28149719 8.9117363 -4.00830688 8.8937851 -4.75714111 8.87528992 C-7.06980657 8.82127384 -9.38226671 8.78732065 -11.6953125 8.75390625 C-13.2669556 8.72072532 -14.83857164 8.68623493 -16.41015625 8.65039062 C-20.25505996 8.56555297 -24.09990372 8.49870119 -27.9453125 8.44140625 C-27.9453125 9.43140625 -27.9453125 10.42140625 -27.9453125 11.44140625 C-27.37425781 11.69664063 -26.80320312 11.951875 -26.21484375 12.21484375 C-18.66322121 16.2960993 -9.76977635 24.53443322 -6.75 32.65625 C-5.84539595 36.91140208 -5.73813037 40.62312708 -6.0078125 44.94140625 C-6.05236572 45.690271 -6.09691895 46.43913574 -6.14282227 47.21069336 C-6.61747383 52.9146419 -7.69250905 56.39605663 -11.9453125 60.44140625 C-12.6053125 60.44140625 -13.2653125 60.44140625 -13.9453125 60.44140625 C-14.01363281 61.20710938 -14.08195312 61.9728125 -14.15234375 62.76171875 C-14.9453125 65.44140625 -14.9453125 65.44140625 -17.01953125 67.05859375 C-23.91386035 70.37694049 -23.91386035 70.37694049 -27.9453125 70.62890625 C-37.01178482 67.04009429 -42.05195368 62.79052695 -46.9453125 54.44140625 C-48.06870762 52.91938705 -49.19368931 51.39853753 -50.3203125 49.87890625 C-53.08127226 45.70132839 -53.69757839 42.37700438 -52.9453125 37.44140625 C-52.86023437 36.62414063 -52.77515625 35.806875 -52.6875 34.96484375 C-51.79545589 28.68257567 -49.70446803 24.67032978 -44.9453125 20.44140625 C-42.42055788 19.17902894 -40.63330784 19.34284221 -37.8203125 19.37890625 C-36.91023438 19.38792969 -36.00015625 19.39695312 -35.0625 19.40625 C-34.36382812 19.41785156 -33.66515625 19.42945312 -32.9453125 19.44140625 C-33.92601858 15.35513094 -34.69238533 12.80273078 -37.1328125 9.31640625 C-38.9453125 6.44140625 -38.9453125 6.44140625 -39.0078125 3.75390625 C-37.54395891 0.56787198 -36.14670102 -0.1666857 -32.9453125 -1.55859375 C-22.32942813 -3.94175147 -10.41278795 -2.99001742 0 0 Z " fill="#1A3948" transform="translate(63.9453125,21.55859375)"/>
<path d="M0 0 C-0.33 0.99 -0.66 1.98 -1 3 C-10.24 3.33 -19.48 3.66 -29 4 C-29.33 4.66 -29.66 5.32 -30 6 C-28.35435988 10.35610621 -26.33533796 12.76571934 -22.67578125 15.58984375 C-20.04085845 17.80710979 -17.89092627 20.39962183 -15.67578125 23.02734375 C-14.64677391 24.2386461 -13.58712692 25.42560952 -12.48046875 26.56640625 C-9.50256293 29.71594929 -8.20351512 32.44087748 -7.9375 36.796875 C-8.17585618 45.19893051 -10.40454622 50.75222647 -16 57 C-16.66 57.763125 -17.32 58.52625 -18 59.3125 C-21.38242966 62.16642503 -24.3190276 63.96264506 -28.8125 64.0625 C-39.42076867 60.52641044 -43.78697725 53.36343895 -49 44 C-49.66 43.01 -50.32 42.02 -51 41 C-51.64274445 34.82965328 -50.35008156 28.72613155 -48 23 C-45.60106968 20.14086672 -44.52864663 19.13744812 -40.875 18.1875 C-38 18 -38 18 -36 19 C-36.25 20.8125 -36.25 20.8125 -37 23 C-37.96292969 23.62455078 -37.96292969 23.62455078 -38.9453125 24.26171875 C-42.4961748 27.26577526 -42.50451543 31.06231575 -43.07421875 35.49609375 C-42.95041326 41.34101626 -40.49707607 45.44032032 -37 50 C-34.54679588 52.50025574 -34.54679588 52.50025574 -32 54 C-31.319375 54.598125 -30.63875 55.19625 -29.9375 55.8125 C-28.10519678 57.21689282 -28.10519678 57.21689282 -26.1171875 56.7421875 C-22.36348125 55.42631262 -19.48917382 53.08285608 -17 50 C-16.92261005 46.13050274 -18.08226077 43.32408133 -20 40 C-19.34 39.34 -18.68 38.68 -18 38 C-17.13847847 34.00717904 -17.2857268 30.38554667 -19.16796875 26.734375 C-21.42147339 23.60611663 -23.33458055 21.38687178 -26.6875 19.4375 C-29.49729516 17.69087057 -30.06688515 15.94358394 -31.171875 12.8984375 C-32.10286014 10.76419798 -33.30401842 9.1943944 -34.75 7.375 C-37.01578267 4.36300148 -37.01578267 4.36300148 -36.875 1.125 C-36 -1 -36 -1 -35 -2 C-23.93933024 -3.84344496 -10.41427676 -4.59124029 0 0 Z " fill="#6EB2CD" transform="translate(65,25)"/>
<path d="M0 0 C2.6875 -0.375 2.6875 -0.375 6 0 C16.23015758 9.01228168 18.17142654 27.64084955 19.20410156 40.55175781 C19.58314173 48.5625647 19.41076477 56.45359147 17.33984375 64.25 C16.79608043 66.10009529 16.79608043 66.10009529 18 68 C20.11846285 68.68729254 20.11846285 68.68729254 22.5625 69.125 C23.38878906 69.29257813 24.21507813 69.46015625 25.06640625 69.6328125 C26.02353516 69.81457031 26.02353516 69.81457031 27 70 C26.67 71.65 26.34 73.3 26 75 C19.18848171 74.75759721 14.31944433 74.45683174 9 70 C9.22786458 68.4375 9.45572917 66.875 9.68359375 65.3125 C11.58971656 51.3813308 11.49298889 38.88651412 8.8125 25.0625 C8.61640137 24.02101807 8.42030273 22.97953613 8.21826172 21.90649414 C6.94240502 15.77249236 5.09059539 10.56331396 2.0925293 5.05639648 C1 3 1 3 0 0 Z " fill="#6AAEC9" transform="translate(72,26)"/>
<path d="M0 0 C4.40314111 1.37501599 6.51535789 3.29247438 9.375 6.875 C10.08398438 7.73867188 10.79296875 8.60234375 11.5234375 9.4921875 C13 12 13 12 12.8515625 14.1953125 C12 16 12 16 10 18 C10 19.32 10 20.64 10 22 C11.92022703 23.77409808 11.92022703 23.77409808 14 25 C13.4435272 28.41205689 12.52892922 29.83309114 9.75 31.875 C6.4322337 34.08233023 6.4322337 34.08233023 3.375 33.5 C2.59125 33.005 1.8075 32.51 1 32 C0.154375 31.62875 -0.69125 31.2575 -1.5625 30.875 C-5.11534525 28.14204211 -6.74288214 25.29059791 -8 21 C-8.52503929 15.37041204 -8.62388744 9.46044022 -7 4 C-4 2.25 -4 2.25 -1 1 C-0.67 0.67 -0.34 0.34 0 0 Z " fill="#060405" transform="translate(33,46)"/>
<path d="M0 0 C-0.33 0.99 -0.66 1.98 -1 3 C-10.24 3.33 -19.48 3.66 -29 4 C-29.33 4.66 -29.66 5.32 -30 6 C-28.35435988 10.35610621 -26.33533796 12.76571934 -22.67578125 15.58984375 C-20.04085845 17.80710979 -17.89092627 20.39962183 -15.67578125 23.02734375 C-14.64677391 24.2386461 -13.58712692 25.42560952 -12.48046875 26.56640625 C-8.78064629 30.47947496 -7.94995801 33.78562483 -8 39 C-8.20296979 41.38602269 -8.55766492 43.64087955 -9 46 C-9.33 46 -9.66 46 -10 46 C-10.02126953 44.57107422 -10.02126953 44.57107422 -10.04296875 43.11328125 C-9.91687841 35.1996583 -9.91687841 35.1996583 -13.5625 28.625 C-14.366875 28.08875 -15.17125 27.5525 -16 27 C-15.67 27.66 -15.34 28.32 -15 29 C-15.1958552 34.02991769 -15.85614986 39.09778509 -17 44 C-17.99 43.34 -18.98 42.68 -20 42 C-19.6803125 41.42765625 -19.360625 40.8553125 -19.03125 40.265625 C-17.31570657 36.49662807 -17.23675009 33.048543 -18 29 C-20.13658599 24.86974346 -22.6586291 21.7798668 -26.6875 19.4375 C-29.49729516 17.69087057 -30.06688515 15.94358394 -31.171875 12.8984375 C-32.10286014 10.76419798 -33.30401842 9.1943944 -34.75 7.375 C-37.01578267 4.36300148 -37.01578267 4.36300148 -36.875 1.125 C-36 -1 -36 -1 -35 -2 C-23.93933024 -3.84344496 -10.41427676 -4.59124029 0 0 Z " fill="#5595AF" transform="translate(65,25)"/>
<path d="M0 0 C8.18799844 7.27188865 9.32758406 25.1105296 10.20849609 35.44628906 C10.60333523 43.33307578 10.216434 51.00051929 8.33984375 58.703125 C7.92902992 61.47965983 8.0777616 63.34466625 9 66 C11.98782627 68.23401689 15.10337033 68.36452645 18.75 68.625 C19.73484375 68.69976562 20.7196875 68.77453125 21.734375 68.8515625 C22.85585937 68.92503906 22.85585937 68.92503906 24 69 C24.33 67.68 24.66 66.36 25 65 C24.37351562 64.96261719 23.74703125 64.92523438 23.1015625 64.88671875 C22.28429687 64.82097656 21.46703125 64.75523438 20.625 64.6875 C19.81289062 64.62949219 19.00078125 64.57148437 18.1640625 64.51171875 C16 64 16 64 14 61 C14.2421875 59.15234375 14.2421875 59.15234375 14.875 56.9375 C17.84996083 43.2447995 15.85242236 30.34626162 12.69116211 16.88427734 C12.46178955 15.90281738 12.23241699 14.92135742 11.99609375 13.91015625 C11.78138428 13.03496338 11.5666748 12.15977051 11.34545898 11.25805664 C11 9 11 9 12 6 C18.01019102 24.11582399 19.74265963 42.08891945 17 61 C18.093125 61.144375 19.18625 61.28875 20.3125 61.4375 C24 62 24 62 27 63 C27.625 65.8125 27.625 65.8125 28 69 C27.34 69.99 26.68 70.98 26 72 C23.26758233 71.77104328 20.54116225 71.51773464 17.8125 71.25 C17.04357422 71.188125 16.27464844 71.12625 15.48242188 71.0625 C10.51111201 70.55043375 7.68992225 69.63815982 4 66 C4.44813283 63.38589182 4.95759349 61.0977867 6.01586914 58.6574707 C12.29150886 41.71121957 5.89654878 16.42216388 0 0 Z " fill="#2C596D" transform="translate(74,31)"/>
<path d="M0 0 C3 2 3 2 3.8125 4.875 C5.35520034 8.93473773 7.40104149 9.67126214 11 12 C14.56720286 15.52087555 16.31270785 18.62925812 16.4375 23.6875 C16.33877413 26.95706839 15.60126439 29.15116416 14 32 C14.515625 32.556875 15.03125 33.11375 15.5625 33.6875 C17 36 17 36 16.828125 38.40234375 C15.83693675 41.51149556 14.64086641 42.7539077 12.1875 44.875 C11.50042969 45.49117187 10.81335938 46.10734375 10.10546875 46.7421875 C8 48 8 48 5.98046875 47.84765625 C-1.81137011 44.51268774 -6.52418772 38.58905726 -10 31 C-11.03450773 27.34473936 -11.01645185 24.53499738 -10.3125 20.8125 C-10.16425781 19.95269531 -10.01601563 19.09289062 -9.86328125 18.20703125 C-9 16 -9 16 -6.91796875 14.69921875 C-6.28503906 14.46847656 -5.65210938 14.23773438 -5 14 C-5.165 14.7425 -5.33 15.485 -5.5 16.25 C-6.51289555 23.84671661 -7.36169759 31.52574218 -3.33984375 38.3671875 C-0.88968078 41.35310039 1.39375715 42.58326174 5 44 C7.21491214 43.5596445 7.21491214 43.5596445 9 42 C9.9075 41.46375 10.815 40.9275 11.75 40.375 C12.86375 39.694375 12.86375 39.694375 14 39 C13.855625 38.46375 13.71125 37.9275 13.5625 37.375 C12.89894625 34.57332862 12.31146805 31.86550607 12 29 C12.66 28.34 13.32 27.68 14 27 C14.73381532 23.65706354 14.40830016 21.67893139 12.64453125 18.74609375 C9.88350937 15.04644633 7.5954275 12.36387236 3.625 9.9375 C1 8 1 8 0.40625 5.98828125 C0.125 3.75 0.125 3.75 0 0 Z " fill="#234A5C" transform="translate(32,35)"/>
<path d="M0 0 C7.96226599 0.04179667 15.85517189 0.61555701 23.546875 2.82421875 C26.35873511 3.42828756 29.10349838 3.34374517 31.9765625 3.390625 C39.18344614 3.93134303 39.18344614 3.93134303 42.1640625 7.203125 C43.47265625 9.1484375 43.47265625 9.1484375 44.6015625 11.265625 C45.14490234 12.28269531 45.14490234 12.28269531 45.69921875 13.3203125 C46.8857773 15.92803434 47.75721386 18.52672549 48.6015625 21.265625 C48.97539063 22.47347656 49.34921875 23.68132813 49.734375 24.92578125 C52.98918961 36.67702107 57.1705263 58.1276974 51.6015625 69.265625 C50.6115625 68.770625 50.6115625 68.770625 49.6015625 68.265625 C50.0965625 66.780625 50.0965625 66.780625 50.6015625 65.265625 C52.18028194 49.19466077 49.27553114 33.84090694 45.6015625 18.265625 C44.9415625 18.265625 44.2815625 18.265625 43.6015625 18.265625 C43.35921875 17.56695312 43.116875 16.86828125 42.8671875 16.1484375 C42.53203125 15.23835938 42.196875 14.32828125 41.8515625 13.390625 C41.52671875 12.48570313 41.201875 11.58078125 40.8671875 10.6484375 C39.37781925 7.84437999 38.58989731 7.22994581 35.6015625 6.265625 C32.96238534 5.88155616 32.96238534 5.88155616 30.1015625 5.765625 C25.94723454 5.48465596 21.94475449 5.02610876 17.8515625 4.265625 C10.48007209 2.95208815 3.06834245 2.62569814 -4.3984375 2.265625 C-2.3984375 0.265625 -2.3984375 0.265625 0 0 Z " fill="#142D3B" transform="translate(40.3984375,18.734375)"/>
<path d="M0 0 C3.364752 5.59296554 5.0474336 11.02961305 6.3293457 17.40966797 C6.54018799 18.43745361 6.75103027 19.46523926 6.96826172 20.52416992 C9.26333713 32.85404692 11.8237352 49.76294982 6.5168457 61.53466797 C5.11318655 58.72734966 5.47571127 56.47523439 5.55981445 53.33935547 C5.82387662 39.41317743 5.79324161 26.94398692 1.5168457 13.53466797 C1.01656572 10.8448064 0.5774993 8.16266472 0.2043457 5.45263672 C-0.78070907 2.70455777 -1.96206264 2.00640738 -4.4831543 0.53466797 C-7.96630936 0.02929643 -7.96630936 0.02929643 -11.8737793 0.02294922 C-12.57839294 0.00499802 -13.28300659 -0.01295319 -14.00897217 -0.03144836 C-16.25030609 -0.08545061 -18.49142834 -0.11941291 -20.7331543 -0.15283203 C-22.25662119 -0.18601421 -23.78006018 -0.22050472 -25.3034668 -0.25634766 C-29.0298259 -0.34116941 -32.75625893 -0.40802927 -36.4831543 -0.46533203 C-36.4831543 -0.79533203 -36.4831543 -1.12533203 -36.4831543 -1.46533203 C-32.30250392 -1.63362658 -28.12164692 -1.79411031 -23.94042969 -1.94750977 C-22.51945017 -2.00072573 -21.09854748 -2.05603774 -19.67773438 -2.11352539 C-17.6299699 -2.19600977 -15.58204328 -2.27083608 -13.53393555 -2.34423828 C-12.30328369 -2.39136963 -11.07263184 -2.43850098 -9.8046875 -2.48706055 C-2.46873634 -2.43907086 -2.46873634 -2.43907086 0 0 Z " fill="#142D3B" transform="translate(73.483154296875,30.46533203125)"/>
<path d="M0 0 C0 0.66 0 1.32 0 2 C0.66 2 1.32 2 2 2 C2 2.66 2 3.32 2 4 C0.80455566 4.029729 0.80455566 4.029729 -0.41503906 4.06005859 C-4.02702472 4.15533248 -7.63843399 4.26500307 -11.25 4.375 C-13.13138672 4.42140625 -13.13138672 4.42140625 -15.05078125 4.46875 C-16.25605469 4.50742187 -17.46132813 4.54609375 -18.703125 4.5859375 C-20.36843262 4.63306885 -20.36843262 4.63306885 -22.06738281 4.68115234 C-24.93002208 4.99239168 -26.4862058 5.72257655 -29 7 C-29.99 6.67 -30.98 6.34 -32 6 C-31.125 1.125 -31.125 1.125 -30 0 C-19.97385079 -1.67102487 -10.06283399 -1.08997815 0 0 Z " fill="#70B4D0" transform="translate(60,23)"/>
<path d="M0 0 C1.207771 0.00688843 1.207771 0.00688843 2.43994141 0.01391602 C7.97867972 0.09750081 13.24481693 0.66073176 18.68359375 1.75 C22.70572309 2.46405347 26.73137465 2.63662941 30.80859375 2.80859375 C33.99230401 3.33074072 35.94660738 4.289773 38.5 6.25 C38.5 7.24 38.5 8.23 38.5 9.25 C38.12875 8.775625 37.7575 8.30125 37.375 7.8125 C34.87353038 5.72794198 32.68406582 5.60378509 29.5 5.25 C30.16 6.9 30.82 8.55 31.5 10.25 C30.99549316 9.92169189 30.49098633 9.59338379 29.97119141 9.25512695 C26.62198391 7.89287767 23.5097938 8.05160733 19.9609375 8.16796875 C19.23887115 8.18587967 18.51680481 8.20379059 17.77285767 8.22224426 C16.25141254 8.26333243 14.73010653 8.30989146 13.20898438 8.36157227 C10.87639837 8.43745451 8.54426487 8.48629096 6.2109375 8.53320312 C4.73172206 8.57648928 3.25255187 8.62135666 1.7734375 8.66796875 C0.72499161 8.6869648 0.72499161 8.6869648 -0.34463501 8.7063446 C-2.520479 8.76057804 -2.520479 8.76057804 -5.5 9.25 C-6.49 10.735 -6.49 10.735 -7.5 12.25 C-7.83 11.26 -8.16 10.27 -8.5 9.25 C-5.74560484 6.49560484 -4.03396797 6.94010724 -0.1796875 6.8359375 C1.70556641 6.77792969 1.70556641 6.77792969 3.62890625 6.71875 C5.60697266 6.67234375 5.60697266 6.67234375 7.625 6.625 C8.96486918 6.58681971 10.30471383 6.54776794 11.64453125 6.5078125 C14.92954619 6.4132797 18.21455138 6.32772844 21.5 6.25 C21.83 5.59 22.16 4.93 22.5 4.25 C10.76778439 2.43757497 -0.63726393 2.01790299 -12.5 2.25 C-8.61636617 -0.35286097 -4.49486872 -0.05259062 0 0 Z " fill="#306075" transform="translate(42.5,20.75)"/>
<path d="M0 0 C0.66 0.33 1.32 0.66 2 1 C1.071875 1.9590625 1.071875 1.9590625 0.125 2.9375 C-3.80866289 8.6066024 -4.52075055 15.19357028 -4 22 C-2.48442746 25.42085942 -2.48442746 25.42085942 -0.3125 28.625 C0.37199219 29.71039063 1.05648438 30.79578125 1.76171875 31.9140625 C5.91161054 37.63555379 10.28539915 41.69785114 17 44 C19.63537508 44.00635246 19.63537508 44.00635246 22 43 C23.093125 42.649375 24.18625 42.29875 25.3125 41.9375 C26.199375 41.628125 27.08625 41.31875 28 41 C25.84994915 43.36505594 24.06292682 45.00661833 21 46 C15.49160249 45.73346464 11.86164813 44.71347803 7 42 C6.01 41.67 5.02 41.34 4 41 C2.35341318 38.93369497 1.03050628 36.74523297 -0.35546875 34.49609375 C-1.90548815 31.98462645 -1.90548815 31.98462645 -3.86328125 30.03515625 C-6.42554593 27.16610156 -8.06482685 24.91104144 -7.9296875 20.92724609 C-6.91494061 13.19467964 -5.46735797 5.81633826 0 0 Z " fill="#275164" transform="translate(19,44)"/>
<path d="M0 0 C3.16115776 1.36983503 3.9927092 1.9890638 6 5 C6.265625 8.25 6.265625 8.25 6.25 12 C6.25515625 13.2375 6.2603125 14.475 6.265625 15.75 C6 19 6 19 4 22 C3.01 21.67 2.02 21.34 1 21 C1 20.34 1 19.68 1 19 C0.34 19 -0.32 19 -1 19 C-2.06731976 14.41052505 -1.73154496 12.27793462 0 8 C0.1761425 5.30753608 0.09161624 2.70267915 0 0 Z " fill="#7BC1DD" transform="translate(49,52)"/>
<path d="M0 0 C0.66 0 1.32 0 2 0 C1.46968862 4.5076467 -0.25221116 7.41954788 -3 11 C-3.66 11 -4.32 11 -5 11 C-5.06832031 11.76570313 -5.13664062 12.53140625 -5.20703125 13.3203125 C-6 16 -6 16 -8.07421875 17.6171875 C-15.06436869 20.98165429 -15.06436869 20.98165429 -19.1875 21.0625 C-22.74466891 19.71868063 -25.7668929 18.0045264 -29 16 C-28.67 15.34 -28.34 14.68 -28 14 C-27.50371094 14.30035156 -27.00742187 14.60070312 -26.49609375 14.91015625 C-21.59075462 17.6560292 -18.64255477 18.51914936 -13 17 C-9.02268035 15.67422678 -7.99648538 13.59367369 -6 10 C-4.71992852 8.19680333 -3.40887128 6.42036699 -2.0859375 4.6484375 C-0.81409656 2.87198707 -0.81409656 2.87198707 0 0 Z " fill="#142D3B" transform="translate(55,71)"/>
<path d="M0 0 C3 2 3 2 3.8125 4.875 C5.35520034 8.93473773 7.40104149 9.67126214 11 12 C14.56720286 15.52087555 16.31270785 18.62925812 16.4375 23.6875 C16.35906761 26.28499623 16.0948406 27.81337818 14.91015625 30.14453125 C14.60980469 30.75683594 14.30945312 31.36914062 14 32 C14.33 32.66 14.66 33.32 15 34 C14.01 33.67 13.02 33.34 12 33 C12.875 28.125 12.875 28.125 14 27 C14.66227213 23.68863933 14.38632859 21.64536973 12.6484375 18.7421875 C9.88143721 15.04879063 7.59461043 12.36337304 3.625 9.9375 C1 8 1 8 0.40625 5.98828125 C0.125 3.75 0.125 3.75 0 0 Z " fill="#306075" transform="translate(32,35)"/>
<path d="M0 0 C0.99 0 1.98 0 3 0 C4.0625 2.5 4.0625 2.5 4 6 C1.40593041 9.19747273 -1.46841216 11.87413391 -5 14 C-9.24548874 13.76630337 -11.22551414 11.00569302 -14 8 C-11 8 -11 8 -8.75 9.3125 C-6.07616471 10.30423336 -6.07616471 10.30423336 -4.12109375 9.01953125 C-2.34973776 7.74200784 -0.65652242 6.42260426 1 5 C0.505 2.525 0.505 2.525 0 0 Z " fill="#1B3A4A" transform="translate(45,69)"/>
<path d="M0 0 C-0.66 0.66 -1.32 1.32 -2 2 C-3.32 2 -4.64 2 -6 2 C-7.18496548 6.89895217 -7.18496548 6.89895217 -5.5625 11.4375 C-5.046875 11.953125 -4.53125 12.46875 -4 13 C-4.33 13.66 -4.66 14.32 -5 15 C-7.64852989 12.6231142 -9.68758997 10.75345949 -11.0625 7.4375 C-11 5 -11 5 -9.1875 2.75 C-5.90900525 0.1272042 -4.14011856 -0.10895049 0 0 Z " fill="#1D3F4F" transform="translate(36,20)"/>
<path d="M0 0 C0.99 0.33 1.98 0.66 3 1 C1.8553125 1.6496875 1.8553125 1.6496875 0.6875 2.3125 C-3.18551944 6.18551944 -4.2541989 10.63479819 -5 16 C-4.65608942 18.6111161 -4.65608942 18.6111161 -4 21 C-3.66055205 22.99897128 -3.32578384 24.99875639 -3 27 C-5.61665348 24.3015761 -6.91011638 22.64202583 -7.4375 18.875 C-6.60974432 11.5434497 -5.7156053 5.04248649 0 0 Z " fill="#5393AD" transform="translate(21,44)"/>
<path d="M0 0 C0.66 0 1.32 0 2 0 C1.46968862 4.5076467 -0.25221116 7.41954788 -3 11 C-3.66 11 -4.32 11 -5 11 C-5 11.66 -5 12.32 -5 13 C-5.99 13.33 -6.98 13.66 -8 14 C-6.47987167 10.54516288 -4.37385365 7.68504536 -2.12109375 4.68359375 C-0.81448821 2.88113235 -0.81448821 2.88113235 0 0 Z " fill="#1F4151" transform="translate(55,71)"/>
<path d="M0 0 C3.34008987 0.24741406 4.2550951 1.2550951 6.6875 3.6875 C9.02949064 6.65450041 9.72829542 9.19613588 10 13 C9.01 13.495 9.01 13.495 8 14 C7.75765625 13.30132812 7.5153125 12.60265625 7.265625 11.8828125 C6.93046875 10.97273438 6.5953125 10.06265625 6.25 9.125 C5.92515625 8.22007813 5.6003125 7.31515625 5.265625 6.3828125 C3.82978305 3.67952982 2.82572058 3.03293147 0 2 C0 1.34 0 0.68 0 0 Z " fill="#1B3949" transform="translate(76,23)"/>
<path d="M0 0 C3.67056937 1.47797262 5.41085783 3.47615477 7.75 6.625 C8.67039062 7.85089844 8.67039062 7.85089844 9.609375 9.1015625 C10.29773438 10.04128906 10.29773438 10.04128906 11 11 C10.01 11 9.02 11 8 11 C6.62926214 9.36395804 5.29944744 7.69321939 4 6 C3.2575 5.46375 2.515 4.9275 1.75 4.375 C1.1725 3.92125 0.595 3.4675 0 3 C0 2.01 0 1.02 0 0 Z " fill="#264D60" transform="translate(36,33)"/>
<path d="M0 0 C0.99 0 1.98 0 3 0 C3.33 1.98 3.66 3.96 4 6 C1.36 7.98 -1.28 9.96 -4 12 C-2.75023244 8.34683329 -2.32901247 7.21934164 1 5 C0.505 2.525 0.505 2.525 0 0 Z " fill="#224658" transform="translate(45,69)"/>
<path d="M0 0 C0.08121094 0.62390625 0.16242188 1.2478125 0.24609375 1.890625 C0.79429444 4.1492447 0.79429444 4.1492447 2.84765625 5.046875 C3.94400391 5.39492187 3.94400391 5.39492187 5.0625 5.75 C5.79597656 5.99234375 6.52945313 6.2346875 7.28515625 6.484375 C7.85105469 6.65453125 8.41695312 6.8246875 9 7 C9 7.33 9 7.66 9 8 C7.54054712 7.91291331 6.08234132 7.80473093 4.625 7.6875 C3.81289062 7.62949219 3.00078125 7.57148437 2.1640625 7.51171875 C0 7 0 7 -2 4 C-2 3.01 -2 2.02 -2 1 C-1.34 0.67 -0.68 0.34 0 0 Z " fill="#204355" transform="translate(90,88)"/>
<path d="M0 0 C1.32 0.66 2.64 1.32 4 2 C4.66 1.34 5.32 0.68 6 0 C5.38333367 4.00833116 3.38003195 6.77995678 1 10 C0.01 10.66 -0.98 11.32 -2 12 C-0.79618552 9.50638429 0.45428722 7.31856917 2 5 C1.01 4.67 0.02 4.34 -1 4 C-0.67 2.68 -0.34 1.36 0 0 Z " fill="#5393AD" transform="translate(49,71)"/>
<path d="M0 0 C0.33 0 0.66 0 1 0 C1.020625 0.763125 1.04125 1.52625 1.0625 2.3125 C1.79660949 5.41389118 1.79660949 5.41389118 5.5625 6.8125 C6.696875 7.204375 7.83125 7.59625 9 8 C9 8.33 9 8.66 9 9 C2.64 8.4 2.64 8.4 0 6.75 C-1 5 -1 5 -0.6875 2.3125 C-0.3471875 1.1678125 -0.3471875 1.1678125 0 0 Z " fill="#193645" transform="translate(79,92)"/>
<path d="M0 0 C1.98 0 3.96 0 6 0 C6.33 0.66 6.66 1.32 7 2 C5.68 2 4.36 2 3 2 C3.33 3.32 3.66 4.64 4 6 C2.62437146 4.71034824 1.29233607 3.37310707 0 2 C0 1.34 0 0.68 0 0 Z " fill="#5393AD" transform="translate(72,26)"/>
</svg>
