<?xml version="1.0" encoding="UTF-8"?>
<svg version="1.1" xmlns="http://www.w3.org/2000/svg" width="128" height="128">
<path d="M0 0 C42.24 0 84.48 0 128 0 C128 42.24 128 84.48 128 128 C85.76 128 43.52 128 0 128 C0 85.76 0 43.52 0 0 Z " fill="#FCFBFB" transform="translate(0,0)"/>
<path d="M0 0 C13.79765037 0.79948718 27.60517661 0.94760501 41.421875 1.16015625 C44.07682793 1.20346998 46.73177591 1.24708774 49.38671875 1.29101562 C55.81505153 1.39672692 62.24343466 1.49871329 68.671875 1.59765625 C68.671875 2.25765625 68.671875 2.91765625 68.671875 3.59765625 C69.6309375 4.03078125 69.6309375 4.03078125 70.609375 4.47265625 C72.671875 5.59765625 72.671875 5.59765625 73.671875 7.59765625 C73.71209891 9.93064285 73.71507747 12.26472291 73.671875 14.59765625 C74.331875 14.59765625 74.991875 14.59765625 75.671875 14.59765625 C76.37265945 17.1571737 77.05772696 19.71925327 77.734375 22.28515625 C77.93353516 23.00638672 78.13269531 23.72761719 78.33789062 24.47070312 C79.39221308 28.52152098 79.96321034 31.48000205 78.671875 35.59765625 C79.331875 35.59765625 79.991875 35.59765625 80.671875 35.59765625 C82.94328954 40.99226578 82.87600861 45.85923374 82.671875 51.59765625 C84.156875 52.09265625 84.156875 52.09265625 85.671875 52.59765625 C85.92129967 55.01376996 86.14695001 57.42824746 86.359375 59.84765625 C86.43220703 60.52957031 86.50503906 61.21148437 86.58007812 61.9140625 C86.85358197 65.22828558 86.91808654 67.1844886 85.19140625 70.08203125 C84.68996094 70.5821875 84.18851562 71.08234375 83.671875 71.59765625 C84.166875 72.15453125 84.661875 72.71140625 85.171875 73.28515625 C86.91941867 75.97928608 86.93406249 77.45140632 86.671875 80.59765625 C86.011875 80.59765625 85.351875 80.59765625 84.671875 80.59765625 C84.68347656 81.22414063 84.69507812 81.850625 84.70703125 82.49609375 C84.71605469 83.31335938 84.72507812 84.130625 84.734375 84.97265625 C84.74597656 85.78476563 84.75757812 86.596875 84.76953125 87.43359375 C84.671875 89.59765625 84.671875 89.59765625 83.671875 91.59765625 C81.67578125 92.08203125 81.67578125 92.08203125 79.234375 92.34765625 C78.43128906 92.445625 77.62820312 92.54359375 76.80078125 92.64453125 C74.671875 92.59765625 74.671875 92.59765625 72.671875 90.59765625 C71.99402508 88.26754716 71.32770707 85.93405801 70.671875 83.59765625 C70.011875 82.60765625 69.351875 81.61765625 68.671875 80.59765625 C68.3625 79.56640625 68.053125 78.53515625 67.734375 77.47265625 C67.38375 76.52390625 67.033125 75.57515625 66.671875 74.59765625 C57.69189538 71.60432971 46.92373659 72.34740468 37.671875 73.59765625 C37.55615752 79.29352784 37.80096139 84.74942841 38.484375 90.41015625 C38.97137401 96.15268629 38.97137401 96.15268629 36.484375 99.84765625 C31.95030221 102.6688571 31.95030221 102.6688571 29.671875 102.59765625 C26.79802649 100.79314672 25.028245 99.58452702 23.859375 96.34765625 C23.7975 95.77015625 23.735625 95.19265625 23.671875 94.59765625 C23.011875 94.59765625 22.351875 94.59765625 21.671875 94.59765625 C21.011875 87.00765625 20.351875 79.41765625 19.671875 71.59765625 C17.38507812 71.63246094 15.09828125 71.66726562 12.7421875 71.703125 C10.53142547 71.72651007 8.32067712 71.74473253 6.10986328 71.76245117 C4.57138926 71.77755336 3.03295839 71.79803671 1.49462891 71.82397461 C-0.71462641 71.86029699 -2.92331348 71.87736744 -5.1328125 71.890625 C-6.16727005 71.91385078 -6.16727005 71.91385078 -7.22262573 71.93754578 C-9.16357422 71.93823242 -9.16357422 71.93823242 -12.328125 71.59765625 C-14.87408127 67.77872185 -14.44660515 64.91570752 -14.140625 60.53515625 C-14.10904297 59.80232422 -14.07746094 59.06949219 -14.04492188 58.31445312 C-13.91015625 56.1875 -13.91015625 56.1875 -13.328125 52.59765625 C-9.95756198 50.35061423 -8.87916938 50.35620878 -4.94213867 50.38647461 C-3.84056931 50.38985336 -2.73899994 50.39323212 -1.60404968 50.39671326 C-0.41342422 50.41017288 0.77720123 50.42363251 2.00390625 50.4375 C3.22840988 50.44270157 4.45291351 50.44790314 5.71452332 50.45326233 C9.6379265 50.4711084 13.56107126 50.502268 17.484375 50.53515625 C21.39694246 50.56279926 25.30947151 50.58752865 29.22209167 50.6063385 C31.65841529 50.61856265 34.09471932 50.63613381 36.53096008 50.65965271 C37.64198593 50.66618362 38.75301178 50.67271454 39.89770508 50.67944336 C40.87016678 50.68769638 41.84262848 50.6959494 42.84455872 50.70445251 C45.85941739 50.59057221 48.7038473 50.12285671 51.671875 49.59765625 C53.33814798 49.56143292 55.00592874 49.54865783 56.671875 49.59765625 C57.05406267 47.94150968 57.38582602 46.27308601 57.671875 44.59765625 C55.64819962 42.57398087 51.66554897 43.15973392 48.921875 42.9765625 C47.808125 42.78900391 47.808125 42.78900391 46.671875 42.59765625 C46.341875 41.93765625 46.011875 41.27765625 45.671875 40.59765625 C46.73728516 40.39849609 46.73728516 40.39849609 47.82421875 40.1953125 C48.74332031 40.01871094 49.66242188 39.84210937 50.609375 39.66015625 C51.52589844 39.48613281 52.44242187 39.31210937 53.38671875 39.1328125 C55.62477344 38.82050637 55.62477344 38.82050637 56.671875 37.59765625 C56.58203199 35.73993463 56.42575639 33.8851764 56.234375 32.03515625 C56.08162109 30.51728516 56.08162109 30.51728516 55.92578125 28.96875 C55.80009766 27.79505859 55.80009766 27.79505859 55.671875 26.59765625 C55.115 26.60925781 54.558125 26.62085937 53.984375 26.6328125 C53.22125 26.64183594 52.458125 26.65085937 51.671875 26.66015625 C50.929375 26.67175781 50.186875 26.68335937 49.421875 26.6953125 C46.671875 26.59765625 46.671875 26.59765625 43.2265625 26.125 C35.88888146 25.15221443 28.44434879 25.20045562 21.0546875 24.9921875 C19.29125 24.93611328 19.29125 24.93611328 17.4921875 24.87890625 C16.42242676 24.84861328 15.35266602 24.81832031 14.25048828 24.78710938 C11.671875 24.59765625 11.671875 24.59765625 9.671875 23.59765625 C8.18804595 23.41395264 6.6981601 23.2776521 5.20703125 23.16796875 C4.32466797 23.09449219 3.44230469 23.02101563 2.53320312 22.9453125 C0.67180207 22.79723175 -1.1902044 22.65656858 -3.05273438 22.5234375 C-4.37821289 22.40935547 -4.37821289 22.40935547 -5.73046875 22.29296875 C-6.53991943 22.23125488 -7.34937012 22.16954102 -8.18334961 22.10595703 C-10.79248013 21.48760646 -11.76489784 20.76301535 -13.328125 18.59765625 C-13.41019861 15.80422216 -13.33687756 13.29599727 -13.078125 10.53515625 C-13.02527344 9.80232422 -12.97242187 9.06949219 -12.91796875 8.31445312 C-12.49246013 2.92632651 -12.49246013 2.92632651 -11.328125 0.59765625 C-7.45882352 -0.69211091 -4.00368334 -0.26478143 0 0 Z " fill="#DD7564" transform="translate(32.328125,16.40234375)"/>
<path d="M0 0 C12.21 0 24.42 0 37 0 C37 0.66 37 1.32 37 2 C37.95777344 1.98952637 38.91554687 1.97905273 39.90234375 1.96826172 C43.48807981 1.93180143 47.07379978 1.90900574 50.65966797 1.89013672 C52.20559453 1.88013803 53.75150246 1.86653462 55.29736328 1.84912109 C57.53162255 1.82460049 59.76562975 1.81345549 62 1.8046875 C62.68054443 1.79436493 63.36108887 1.78404236 64.06225586 1.77340698 C69.04016407 1.77226777 73.24801892 2.65886472 78 4 C78 6.31 78 8.62 78 11 C78.66 11 79.32 11 80 11 C80.12375 11.886875 80.2475 12.77375 80.375 13.6875 C80.95261462 16.74885747 81.61010537 19.22021074 83 22 C83.99 22.66 84.98 23.32 86 24 C86.44140625 26.12890625 86.44140625 26.12890625 86.5625 28.5625 C86.64690135 30.93738847 86.64690135 30.93738847 87 33 C87.66 33.33 88.32 33.66 89 34 C89.12907801 40.58297872 89.12907801 40.58297872 88.1875 43.625 C88.125625 44.40875 88.06375 45.1925 88 46 C88.804375 46.70125 89.60875 47.4025 90.4375 48.125 C93.8677019 51.97351921 93.52276262 54.58480252 93.46875 59.57421875 C93.3140625 60.37472656 93.159375 61.17523438 93 62 C92.01 62.66 91.02 63.32 90 64 C89.5 67 89.5 67 90 70 C91.485 70.99 91.485 70.99 93 72 C92.505 73.98 92.505 73.98 92 76 C90.35 76 88.7 76 87 76 C87 77.32 87 78.64 87 80 C88.98 80.66 90.96 81.32 93 82 C92.67 83.65 92.34 85.3 92 87 C88.625 87.625 88.625 87.625 85 88 C82.31362289 85.31362289 82.01656766 82.6215223 81 79 C80.34 78.01 79.68 77.02 79 76 C78.48085407 74.59749059 78.00458894 73.17867159 77.5625 71.75 C76.64696626 68.88317716 75.66964808 66.26001171 74.4375 63.5 C70.55912602 54.05700249 70.58764161 44.47041835 70.375 34.4375 C70.33674154 32.93682824 70.29768549 31.4361766 70.2578125 29.93554688 C70.16267804 26.29055056 70.07834092 22.64540046 70 19 C67.23843262 18.07947754 65.53138472 17.86189414 62.67822266 17.82641602 C61.80525543 17.81292618 60.93228821 17.79943634 60.03286743 17.78553772 C58.61280899 17.76988014 58.61280899 17.76988014 57.1640625 17.75390625 C55.12760116 17.72088821 53.09114292 17.68767828 51.0546875 17.65429688 C47.86982086 17.60751763 44.68495838 17.56325416 41.5 17.52319336 C27.2337112 17.33518277 13.18134601 16.58901657 -1 15 C-1.125 2.25 -1.125 2.25 0 0 Z " fill="#F5300D" transform="translate(22,21)"/>
<path d="M0 0 C1.05456894 -0.00637985 2.10913788 -0.0127597 3.19566345 -0.01933289 C4.34353836 -0.02044571 5.49141327 -0.02155853 6.67407227 -0.02270508 C7.84430435 -0.02603348 9.01453644 -0.02936188 10.2202301 -0.03279114 C12.70101527 -0.03786542 15.1818073 -0.04019931 17.66259766 -0.04003906 C21.47057271 -0.0422249 25.27825794 -0.06037384 29.08618164 -0.0793457 C31.49047752 -0.08227957 33.89477478 -0.08426441 36.29907227 -0.08520508 C37.44492294 -0.09239059 38.59077362 -0.09957611 39.77134705 -0.10697937 C41.3579287 -0.10236443 41.3579287 -0.10236443 42.9765625 -0.09765625 C43.91064438 -0.09908127 44.84472626 -0.10050629 45.80711365 -0.10197449 C48.05297852 0.14526367 48.05297852 0.14526367 50.05297852 2.14526367 C50.35896914 4.71443025 50.56384939 7.19284752 50.67797852 9.77026367 C50.73598633 10.82987305 50.73598633 10.82987305 50.79516602 11.91088867 C50.88945576 13.65524892 50.97230742 15.40022058 51.05297852 17.14526367 C47.75297852 17.14526367 44.45297852 17.14526367 41.05297852 17.14526367 C41.10945557 17.94222656 41.16593262 18.73918945 41.22412109 19.56030273 C41.46483493 23.17074714 41.66557561 26.78233965 41.86547852 30.39526367 C41.95506836 31.64952148 42.0446582 32.9037793 42.13696289 34.19604492 C42.19819336 35.40131836 42.25942383 36.6065918 42.32250977 37.84838867 C42.39058838 38.95859375 42.45866699 40.06879883 42.52880859 41.21264648 C42.05297852 44.14526367 42.05297852 44.14526367 39.53613281 46.53881836 C38.30697144 47.33400879 38.30697144 47.33400879 37.05297852 48.14526367 C34.74047852 47.64526367 34.74047852 47.64526367 32.05297852 46.14526367 C29.12526339 39.95202015 28.53815839 34.43404955 28.36547852 27.64526367 C28.33131836 26.72745117 28.2971582 25.80963867 28.26196289 24.86401367 C28.18031588 22.62455278 28.11090313 20.38544217 28.05297852 18.14526367 C27.02825439 18.12020752 26.00353027 18.09515137 24.94775391 18.06933594 C21.15888175 17.97541884 17.37019971 17.8751605 13.58154297 17.77294922 C11.93933548 17.7295407 10.29708113 17.6878701 8.65478516 17.64794922 C6.29909106 17.59038927 3.94363424 17.52665476 1.58813477 17.46166992 C0.84958755 17.44495743 0.11104034 17.42824493 -0.64988708 17.411026 C-5.83314978 17.25913538 -5.83314978 17.25913538 -6.94702148 16.14526367 C-6.88234183 13.62863719 -6.75610598 11.15341496 -6.57202148 8.64526367 C-6.52819336 7.94272461 -6.48436523 7.24018555 -6.43920898 6.51635742 C-6.02499051 0.54470778 -5.90906501 0.02413425 0 0 Z " fill="#603754" transform="translate(26.947021484375,68.854736328125)"/>
<path d="M0 0 C0.66 0 1.32 0 2 0 C2 5.28 2 10.56 2 16 C3.56492187 16.13277344 5.12984375 16.26554687 6.7421875 16.40234375 C8.78647694 16.58051577 10.83074678 16.75891282 12.875 16.9375 C13.90753906 17.02451172 14.94007812 17.11152344 16.00390625 17.20117188 C16.99003906 17.28818359 17.97617187 17.37519531 18.9921875 17.46484375 C19.90339355 17.543396 20.81459961 17.62194824 21.75341797 17.70288086 C24 18 24 18 26 19 C27.85497707 19.1424223 29.71459387 19.22630156 31.57421875 19.28125 C33.27868164 19.33611572 33.27868164 19.33611572 35.01757812 19.39208984 C36.22865234 19.4277002 37.43972656 19.46331055 38.6875 19.5 C41.14978268 19.5846937 43.61202317 19.67062335 46.07421875 19.7578125 C47.2657959 19.79938477 48.45737305 19.84095703 49.68505859 19.88378906 C50.77898926 19.92213867 51.87291992 19.96048828 53 20 C53.88896973 20.03061523 54.77793945 20.06123047 55.69384766 20.09277344 C57.7965347 20.17135381 59.8983736 20.271878 62 20.375 C63.670625 20.44847656 63.670625 20.44847656 65.375 20.5234375 C68 21 68 21 69.82421875 22.25390625 C71.27540391 24.40898852 71.56191331 25.98443015 71.8125 28.5625 C71.90144531 29.34753906 71.99039063 30.13257812 72.08203125 30.94140625 C72 33 72 33 70 35 C68.08984375 35.37890625 68.08984375 35.37890625 65.9375 35.5625 C62.23263383 35.55913448 62.23263383 35.55913448 61 37 C61.69867188 37.04898438 62.39734375 37.09796875 63.1171875 37.1484375 C64.02726562 37.22320312 64.93734375 37.29796875 65.875 37.375 C66.77992187 37.44460937 67.68484375 37.51421875 68.6171875 37.5859375 C71 38 71 38 73 40 C72.44444444 44.55555556 72.44444444 44.55555556 71 46 C69.33382885 46.04063832 67.66611905 46.042721 66 46 C66.639375 45.731875 67.27875 45.46375 67.9375 45.1875 C70.33131686 44.11332248 70.33131686 44.11332248 71 41 C70.0095166 41.00580078 69.0190332 41.01160156 67.99853516 41.01757812 C54.11947334 41.07147176 40.2504482 40.79028949 26.375 40.5 C24.00000338 40.45165649 21.62500339 40.40347831 19.25 40.35546875 C13.49995983 40.238881 7.74996431 40.12026827 2 40 C0.66882274 33.58614591 0.66882274 33.58614591 2.08959961 31.0715332 C4.72354255 29.59416891 6.55526931 29.72046084 9.56640625 29.85546875 C10.68265381 29.90018311 11.79890137 29.94489746 12.94897461 29.9909668 C14.14143799 30.05582275 15.33390137 30.12067871 16.5625 30.1875 C17.78525635 30.24139893 19.0080127 30.29529785 20.26782227 30.35083008 C27.04516957 30.68052922 33.71916893 31.25781736 40.4375 32.1875 C50.07853647 33.51578046 59.40855819 32.30155265 69 31 C68.505 28.03 68.505 28.03 68 25 C67.21625 25.04125 66.4325 25.0825 65.625 25.125 C62.65964403 25.02274635 60.36450648 24.68618681 57.51147461 24.03442383 C51.74211469 22.84864029 46.06584588 22.54956491 40.19140625 22.32421875 C37.95893738 22.21777793 35.72651648 22.11032711 33.49414062 22.00195312 C30.00948674 21.84024938 26.52502648 21.68602765 23.03930664 21.54907227 C19.65112272 21.41233154 16.26548662 21.24567022 12.87890625 21.07421875 C11.83207169 21.04067795 10.78523712 21.00713715 9.7066803 20.97257996 C2.5399231 20.57870546 2.5399231 20.57870546 -0.17529297 17.66845703 C-1.28304758 14.08415925 -1.08432265 10.85723161 -0.6875 7.1875 C-0.62626953 6.49462891 -0.56503906 5.80175781 -0.50195312 5.08789062 C-0.34977344 3.39050178 -0.17696065 1.69498451 0 0 Z " fill="#F1EAE9" transform="translate(18,21)"/>
<path d="M0 0 C6.21133256 -0.04938976 12.42255112 -0.08571476 18.6340332 -0.10986328 C20.74766022 -0.11992894 22.8612733 -0.13358257 24.97485352 -0.15087891 C28.01061442 -0.1751023 31.04619143 -0.18647738 34.08203125 -0.1953125 C35.02899368 -0.20563507 35.97595612 -0.21595764 36.95161438 -0.22659302 C37.83230087 -0.22674408 38.71298737 -0.22689514 39.62036133 -0.22705078 C40.39535477 -0.231492 41.17034821 -0.23593323 41.96882629 -0.24050903 C44 0 44 0 47 2 C47.99504149 5.36945077 48.11910843 8.58532621 48.09765625 12.08203125 C48.09282227 13.47905273 48.09282227 13.47905273 48.08789062 14.90429688 C48.07532227 16.34385742 48.07532227 16.34385742 48.0625 17.8125 C48.05798828 18.79154297 48.05347656 19.77058594 48.04882812 20.77929688 C48.03708684 23.18626111 48.02066419 25.59309857 48 28 C43.95284086 28.60540543 40.09631562 29.12413078 36 29 C36.71627037 32.0908635 36.71627037 32.0908635 39.0625 33.5625 C42.16088832 37.46047241 41.25652791 41.12596969 41 46 C44.96 46 48.92 46 53 46 C53.99 47.98 53.99 47.98 55 50 C53.82824219 49.91621094 52.65648438 49.83242187 51.44921875 49.74609375 C42.85719155 49.17445047 34.5660018 48.77359005 26 50 C25.88428252 55.69587159 26.12908639 61.15177216 26.8125 66.8125 C27.29949901 72.55503004 27.29949901 72.55503004 24.8125 76.25 C20.27842721 79.07120085 20.27842721 79.07120085 18 79 C15.12615149 77.19549047 13.35637 75.98687077 12.1875 72.75 C12.125625 72.1725 12.06375 71.595 12 71 C11.34 71 10.68 71 10 71 C9.34 63.41 8.68 55.82 8 48 C5.71320312 48.03480469 3.42640625 48.06960937 1.0703125 48.10546875 C-1.14044953 48.12885382 -3.35119788 48.14707628 -5.56201172 48.16479492 C-7.10048574 48.17989711 -8.63891661 48.20038046 -10.17724609 48.22631836 C-12.38650141 48.26264074 -14.59518848 48.27971119 -16.8046875 48.29296875 C-17.83914505 48.31619453 -17.83914505 48.31619453 -18.89450073 48.33988953 C-20.83544922 48.34057617 -20.83544922 48.34057617 -24 48 C-26.54595627 44.1810656 -26.11848015 41.31805127 -25.8125 36.9375 C-25.78091797 36.20466797 -25.74933594 35.47183594 -25.71679688 34.71679688 C-25.58203125 32.58984375 -25.58203125 32.58984375 -25 29 C-21.62943698 26.75295798 -20.55104438 26.75855253 -16.61401367 26.78881836 C-15.51244431 26.79219711 -14.41087494 26.79557587 -13.27592468 26.79905701 C-12.08529922 26.81251663 -10.89467377 26.82597626 -9.66796875 26.83984375 C-8.44346512 26.84504532 -7.21896149 26.85024689 -5.95735168 26.85560608 C-2.0339485 26.87345215 1.88919626 26.90461175 5.8125 26.9375 C9.72506746 26.96514301 13.63759651 26.9898724 17.55021667 27.00868225 C19.98654029 27.0209064 22.42284432 27.03847756 24.85908508 27.06199646 C25.97011093 27.06852737 27.08113678 27.07505829 28.22583008 27.08178711 C29.19829178 27.09004013 30.17075348 27.09829315 31.17268372 27.10679626 C34.18754239 26.99291596 37.0319723 26.52520046 40 26 C41.66627298 25.96377667 43.33405374 25.95100158 45 26 C45.38218767 24.34385343 45.71395102 22.67542976 46 21 C43.97632462 18.97632462 39.99367397 19.56207767 37.25 19.37890625 C36.13625 19.19134766 36.13625 19.19134766 35 19 C34.505 18.01 34.505 18.01 34 17 C35.06541016 16.80083984 35.06541016 16.80083984 36.15234375 16.59765625 C37.07144531 16.42105469 37.99054688 16.24445312 38.9375 16.0625 C40.31228516 15.80146484 40.31228516 15.80146484 41.71484375 15.53515625 C43.95289844 15.22285012 43.95289844 15.22285012 45 14 C44.91015699 12.14227838 44.75388139 10.28752015 44.5625 8.4375 C44.40974609 6.91962891 44.40974609 6.91962891 44.25390625 5.37109375 C44.17011719 4.58863281 44.08632812 3.80617187 44 3 C43.1646875 3.01740234 43.1646875 3.01740234 42.3125 3.03515625 C41.549375 3.04417969 40.78625 3.05320313 40 3.0625 C39.2575 3.07410156 38.515 3.08570313 37.75 3.09765625 C35 3 35 3 31.5625 2.53125 C25.40584995 1.71610143 19.20078505 1.63720849 13 1.4375 C11.12248047 1.37272461 11.12248047 1.37272461 9.20703125 1.30664062 C6.13811477 1.20121983 3.06912611 1.09909658 0 1 C0 0.67 0 0.34 0 0 Z M-23 30 C-23.26352359 32.50640219 -23.46821071 34.9867599 -23.625 37.5 C-23.6765625 38.20253906 -23.728125 38.90507813 -23.78125 39.62890625 C-23.89838401 41.41692241 -23.95396301 43.20874268 -24 45 C-22.02170928 46.97829072 -18.17672973 46.25503932 -15.46484375 46.31640625 C-14.33496788 46.3475779 -14.33496788 46.3475779 -13.18226624 46.37937927 C-10.7674401 46.44495425 -8.35250202 46.50379621 -5.9375 46.5625 C-4.30402471 46.6056777 -2.6705609 46.64929173 -1.03710938 46.69335938 C2.97514464 46.80064362 6.98751164 46.90188821 11 47 C11.01458252 47.56396484 11.02916504 48.12792969 11.04418945 48.70898438 C11.11944854 51.30661946 11.21584484 53.90307643 11.3125 56.5 C11.34633789 57.8303125 11.34633789 57.8303125 11.38085938 59.1875 C11.61828219 65.05831871 12.47794681 69.66488748 15 75 C17.53044606 76.58377402 17.53044606 76.58377402 20 77 C22.6120087 75.41880446 22.6120087 75.41880446 25 73 C25.5961087 70.0071049 25.5961087 70.0071049 25.26953125 66.703125 C25.20830078 65.49785156 25.14707031 64.29257813 25.08398438 63.05078125 C24.99439453 61.79652344 24.90480469 60.54226562 24.8125 59.25 C24.74224609 57.98027344 24.67199219 56.71054688 24.59960938 55.40234375 C24.42275485 52.26612355 24.22204183 49.1332922 24 46 C27.3 46 30.6 46 34 46 C33.88630789 43.54066009 33.75957349 41.0832091 33.625 38.625 C33.5940625 37.92632812 33.563125 37.22765625 33.53125 36.5078125 C33.40500502 32.29814173 33.40500502 32.29814173 31 29 C28.6617806 28.70056517 28.6617806 28.70056517 25.92358398 28.75708008 C24.33700233 28.75246513 24.33700233 28.75246513 22.71836853 28.74775696 C20.99959251 28.75853523 20.99959251 28.75853523 19.24609375 28.76953125 C17.48931053 28.77021858 17.48931053 28.77021858 15.69703674 28.7709198 C13.21801746 28.77394484 10.73900013 28.78183861 8.26000977 28.79418945 C4.44996464 28.81244029 0.64016239 28.81469924 -3.16992188 28.81445312 C-5.57291878 28.81936829 -7.97591403 28.82519661 -10.37890625 28.83203125 C-11.52678116 28.83314407 -12.67465607 28.8342569 -13.85731506 28.83540344 C-15.43916847 28.84497322 -15.43916847 28.84497322 -17.05297852 28.85473633 C-17.9862648 28.85854813 -18.91955109 28.86235992 -19.88111877 28.86628723 C-21.98502507 28.76463528 -21.98502507 28.76463528 -23 30 Z " fill="#808794" transform="translate(44,40)"/>
<path d="M0 0 C2.79827274 5.40999396 3.30332227 9.95334802 3.625 15.9375 C3.6765625 16.74896484 3.728125 17.56042969 3.78125 18.39648438 C3.82507813 19.18216797 3.86890625 19.96785156 3.9140625 20.77734375 C3.9548291 21.49140381 3.9955957 22.20546387 4.03759766 22.94116211 C3.99809525 25.10430379 3.60301314 26.92848963 3 29 C3.66 28.67 4.32 28.34 5 28 C4.97679688 27.37351562 4.95359375 26.74703125 4.9296875 26.1015625 C4.91164063 25.28429687 4.89359375 24.46703125 4.875 23.625 C4.85179688 22.81289062 4.82859375 22.00078125 4.8046875 21.1640625 C5 19 5 19 7 17 C7.99 17.66 8.98 18.32 10 19 C10.66 17.02 11.32 15.04 12 13 C13.32 13.66 14.64 14.32 16 15 C15.86980469 15.59167969 15.73960938 16.18335937 15.60546875 16.79296875 C15.17360152 19.267124 14.88017511 21.48795668 15 24 C15.804375 24.78375 16.60875 25.5675 17.4375 26.375 C20.97940628 30.00329423 20.52171632 32.68145508 20.46875 37.57421875 C20.3140625 38.37472656 20.159375 39.17523438 20 40 C19.01 40.66 18.02 41.32 17 42 C16.5 45 16.5 45 17 48 C17.99 48.66 18.98 49.32 20 50 C19.67 51.32 19.34 52.64 19 54 C17.35 54 15.7 54 14 54 C14 55.32 14 56.64 14 58 C15.98 58.66 17.96 59.32 20 60 C19.67 61.65 19.34 63.3 19 65 C15.625 65.625 15.625 65.625 12 66 C9.31362289 63.31362289 9.01656766 60.6215223 8 57 C7.34 56.01 6.68 55.02 6 54 C5.48085407 52.59749059 5.00458894 51.17867159 4.5625 49.75 C3.64696626 46.88317716 2.66964808 44.26001171 1.4375 41.5 C-2.12387278 32.82883148 -2.17122079 24.91451963 -1.6875 15.625 C-1.63916016 14.45066406 -1.59082031 13.27632812 -1.54101562 12.06640625 C-1.15030108 3.45090324 -1.15030108 3.45090324 0 0 Z " fill="#E41B09" transform="translate(95,43)"/>
<path d="M0 0 C0 2.20872638 -0.0199416 4.41877359 -0.125 6.625 C-0.25550736 9.19046912 -0.25550736 9.19046912 2 11 C2.37366113 12.99285937 2.70740515 14.99363529 3 17 C3.495 17.99 3.495 17.99 4 19 C4.4744868 22.94483277 4.65390067 26.90903074 4.875 30.875 C4.96007812 31.97714844 5.04515625 33.07929687 5.1328125 34.21484375 C5.29366239 37.22346778 5.39283312 40.01194868 5 43 C2.5078125 45.7578125 2.5078125 45.7578125 0 47 C-2.3125 46.5 -2.3125 46.5 -5 45 C-7.91154699 38.90416158 -8.31763439 34.04532211 -8 27.375 C-7.70789258 21.18232264 -8.00114766 17.57599107 -11 12 C-11 10.02 -11 8.04 -11 6 C-17.27 4.68 -23.54 3.36 -30 2 C-30 1.67 -30 1.34 -30 1 C-26.68767894 0.82964947 -23.37512086 0.66440908 -20.0625 0.5 C-19.13630859 0.45230469 -18.21011719 0.40460938 -17.25585938 0.35546875 C-11.49540167 0.0724989 -5.76737595 -0.04732206 0 0 Z " fill="#721426" transform="translate(64,70)"/>
<path d="M0 0 C13.79765037 0.79948718 27.60517661 0.94760501 41.421875 1.16015625 C44.07682793 1.20346998 46.73177591 1.24708774 49.38671875 1.29101562 C55.81505153 1.39672692 62.24343466 1.49871329 68.671875 1.59765625 C68.671875 2.25765625 68.671875 2.91765625 68.671875 3.59765625 C69.6309375 4.03078125 69.6309375 4.03078125 70.609375 4.47265625 C72.671875 5.59765625 72.671875 5.59765625 73.671875 7.59765625 C73.71209891 9.93064285 73.71507747 12.26472291 73.671875 14.59765625 C74.331875 14.59765625 74.991875 14.59765625 75.671875 14.59765625 C76.37265945 17.1571737 77.05772696 19.71925327 77.734375 22.28515625 C77.93353516 23.00638672 78.13269531 23.72761719 78.33789062 24.47070312 C79.39221308 28.52152098 79.96321034 31.48000205 78.671875 35.59765625 C79.331875 35.59765625 79.991875 35.59765625 80.671875 35.59765625 C82.94328954 40.99226578 82.87600861 45.85923374 82.671875 51.59765625 C84.156875 52.09265625 84.156875 52.09265625 85.671875 52.59765625 C85.92129967 55.01376996 86.14695001 57.42824746 86.359375 59.84765625 C86.43220703 60.52957031 86.50503906 61.21148437 86.58007812 61.9140625 C86.85358197 65.22828558 86.91808654 67.1844886 85.19140625 70.08203125 C84.68996094 70.5821875 84.18851562 71.08234375 83.671875 71.59765625 C84.166875 72.15453125 84.661875 72.71140625 85.171875 73.28515625 C86.91941867 75.97928608 86.93406249 77.45140632 86.671875 80.59765625 C86.011875 80.59765625 85.351875 80.59765625 84.671875 80.59765625 C84.68347656 81.22414063 84.69507812 81.850625 84.70703125 82.49609375 C84.71605469 83.31335938 84.72507812 84.130625 84.734375 84.97265625 C84.74597656 85.78476563 84.75757812 86.596875 84.76953125 87.43359375 C84.671875 89.59765625 84.671875 89.59765625 83.671875 91.59765625 C83.011875 91.26765625 82.351875 90.93765625 81.671875 90.59765625 C82.166875 88.61765625 82.166875 88.61765625 82.671875 86.59765625 C80.361875 85.93765625 78.051875 85.27765625 75.671875 84.59765625 C75.671875 83.27765625 75.671875 81.95765625 75.671875 80.59765625 C78.671875 79.59765625 78.671875 79.59765625 81.671875 79.59765625 C81.671875 78.60765625 81.671875 77.61765625 81.671875 76.59765625 C80.186875 75.60765625 80.186875 75.60765625 78.671875 74.59765625 C78.296875 71.59765625 78.296875 71.59765625 78.671875 68.59765625 C79.661875 67.93765625 80.651875 67.27765625 81.671875 66.59765625 C82.03717732 63.47207666 82.03717732 63.47207666 81.859375 59.97265625 C81.83230469 58.78414062 81.80523437 57.595625 81.77734375 56.37109375 C81.72513672 54.99824219 81.72513672 54.99824219 81.671875 53.59765625 C81.0325 53.32953125 80.393125 53.06140625 79.734375 52.78515625 C77.671875 51.59765625 77.671875 51.59765625 76.671875 48.59765625 C77.001875 47.60765625 77.331875 46.61765625 77.671875 45.59765625 C78.49522954 36.23439181 76.42851982 26.75956821 72.609375 18.22265625 C71.72589009 15.74889849 71.55855077 14.05535694 71.421875 11.47265625 C71.10820997 7.52447157 71.10820997 7.52447157 68.38549805 5.88745117 C63.08010001 4.0448098 58.08457758 4.11737378 52.50390625 4.0859375 C51.31447922 4.0679863 50.12505219 4.0500351 48.89958191 4.03153992 C45.09454986 3.97750066 41.28963742 3.94367323 37.484375 3.91015625 C34.97459183 3.87695163 32.46482535 3.84245911 29.95507812 3.80664062 C22.86080604 3.71056975 15.76658792 3.64952726 8.671875 3.59765625 C7.65623474 3.58845154 6.64059448 3.57924683 5.59417725 3.56976318 C2.89481454 3.54610107 0.19552296 3.5293187 -2.50390625 3.515625 C-3.28259567 3.5083992 -4.0612851 3.5011734 -4.86357117 3.49372864 C-8.72300368 3.41181426 -8.72300368 3.41181426 -12.328125 4.59765625 C-12.015625 2.66015625 -12.015625 2.66015625 -11.328125 0.59765625 C-7.45882352 -0.69211091 -4.00368334 -0.26478143 0 0 Z " fill="#E9C2BD" transform="translate(32.328125,16.40234375)"/>
<path d="M0 0 C0.33 0 0.66 0 1 0 C1.125 2.875 1.125 2.875 1 6 C-1.29823659 8.29823659 -1.94880882 8.29690384 -5.0625 8.5625 C-8.76736617 8.55913448 -8.76736617 8.55913448 -10 10 C-9.30132812 10.04898438 -8.60265625 10.09796875 -7.8828125 10.1484375 C-6.97273438 10.22320312 -6.06265625 10.29796875 -5.125 10.375 C-4.22007813 10.44460937 -3.31515625 10.51421875 -2.3828125 10.5859375 C0 11 0 11 2 13 C1.44444444 17.55555556 1.44444444 17.55555556 0 19 C-1.66617115 19.04063832 -3.33388095 19.042721 -5 19 C-4.360625 18.731875 -3.72125 18.46375 -3.0625 18.1875 C-0.66868314 17.11332248 -0.66868314 17.11332248 0 14 C-7.03159569 13.09888926 -13.95805706 12.79403086 -21.04296875 12.68359375 C-22.7338134 12.6524221 -22.7338134 12.6524221 -24.45881653 12.62062073 C-28.03498744 12.55568616 -31.61122793 12.49657009 -35.1875 12.4375 C-37.60091811 12.39424994 -40.01432969 12.3506337 -42.42773438 12.30664062 C-46.84786532 12.22757732 -51.26800315 12.14930742 -55.68823242 12.07592773 C-56.61969086 12.06012665 -57.55114929 12.04432556 -58.51083374 12.02804565 C-60.56220099 12.00493272 -62.61398451 12.02246871 -64.6652832 12.05102539 C-67 12 -67 12 -68 11 C-68.04063832 9.33382885 -68.042721 7.66611905 -68 6 C-64.45092306 5.03206992 -61.78434896 5.16984931 -58.18823242 5.72631836 C-53.54566263 6.30696331 -48.85972075 6.39076623 -44.1875 6.5625 C-42.53004761 6.62401245 -42.53004761 6.62401245 -40.83911133 6.68676758 C-20.81633235 7.52949395 -20.81633235 7.52949395 -1 5 C-0.67 3.35 -0.34 1.7 0 0 Z " fill="#EAD1D0" transform="translate(89,48)"/>
<path d="M0 0 C0.66 0.33 1.32 0.66 2 1 C2.39460023 3.32375692 2.72230092 5.6593935 3 8 C3.28739925 10.24240782 3.28739925 10.24240782 4 12 C4.99 12.66 5.98 13.32 7 14 C7.46978165 16.53919955 7.739365 18.81731136 7.875 21.375 C7.93429688 22.04789063 7.99359375 22.72078125 8.0546875 23.4140625 C8.26066607 26.68397237 8.21840734 28.63751243 6.5078125 31.4765625 C5.76144531 32.23066406 5.76144531 32.23066406 5 33 C5.495 33.556875 5.99 34.11375 6.5 34.6875 C8.24754367 37.38162983 8.26218749 38.85375007 8 42 C7.34 42 6.68 42 6 42 C6.01160156 42.62648437 6.02320312 43.25296875 6.03515625 43.8984375 C6.04417969 44.71570313 6.05320312 45.53296875 6.0625 46.375 C6.07410156 47.18710938 6.08570312 47.99921875 6.09765625 48.8359375 C6 51 6 51 5 53 C4.34 52.67 3.68 52.34 3 52 C3.33 50.68 3.66 49.36 4 48 C1.69 47.34 -0.62 46.68 -3 46 C-3 44.68 -3 43.36 -3 42 C0 41 0 41 3 41 C3 40.01 3 39.02 3 38 C2.01 37.34 1.02 36.68 0 36 C-0.375 33 -0.375 33 0 30 C0.99 29.34 1.98 28.68 3 28 C3.36530232 24.87442041 3.36530232 24.87442041 3.1875 21.375 C3.16042969 20.18648437 3.13335937 18.99796875 3.10546875 17.7734375 C3.07066406 16.85820313 3.03585938 15.94296875 3 15 C2.360625 14.731875 1.72125 14.46375 1.0625 14.1875 C-1 13 -1 13 -2 10 C-1.66015625 7.51953125 -1.66015625 7.51953125 -1.0625 4.8125 C-0.86785156 3.91144531 -0.67320313 3.01039062 -0.47265625 2.08203125 C-0.31667969 1.39496094 -0.16070312 0.70789062 0 0 Z " fill="#DD6652" transform="translate(111,55)"/>
<path d="M0 0 C4.70588235 0.70588235 4.70588235 0.70588235 6 2 C6.23653523 4.52596259 6.42173692 7.03107207 6.5625 9.5625 C6.60568359 10.27341797 6.64886719 10.98433594 6.69335938 11.71679688 C6.79971777 13.47761912 6.90038846 15.2387832 7 17 C5.7625 16.95875 4.525 16.9175 3.25 16.875 C-0.01637962 16.86341709 -2.2146947 17.1431298 -5 19 C-5.185625 17.329375 -5.185625 17.329375 -5.375 15.625 C-5.6465813 11.96896323 -5.6465813 11.96896323 -8 10 C-8.25288404 6.79680216 -7.91026797 4.07215439 -7 1 C-5.5459375 1.0309375 -5.5459375 1.0309375 -4.0625 1.0625 C-1.12534105 1.35618499 -1.12534105 1.35618499 0 0 Z " fill="#53264A" transform="translate(71,69)"/>
<path d="M0 0 C1.32 0 2.64 0 4 0 C8.28649287 8.13285477 8.89406237 15.9034352 8 25 C6.9765625 27.94921875 6.9765625 27.94921875 6 30 C5.01 30 4.02 30 3 30 C-1.18711429 20.29860573 -1.72922829 11.38851446 -1 1 C-0.67 0.67 -0.34 0.34 0 0 Z " fill="#AE1510" transform="translate(58,80)"/>
<path d="M0 0 C0.27714844 1.20398438 0.55429688 2.40796875 0.83984375 3.6484375 C1.20559679 5.22398907 1.57148945 6.79950823 1.9375 8.375 C2.11990234 9.1690625 2.30230469 9.963125 2.49023438 10.78125 C2.66748047 11.54179688 2.84472656 12.30234375 3.02734375 13.0859375 C3.27085571 14.1385376 3.27085571 14.1385376 3.51928711 15.21240234 C3.9588074 17.08394574 3.9588074 17.08394574 5 19 C0.71 19 -3.58 19 -8 19 C-9 15 -9 15 -8.8125 12 C-9.04897537 8.21639414 -10.27285908 7.47147146 -13 5 C-13 4.01 -13 3.02 -13 2 C-3.57142857 0 -3.57142857 0 0 0 Z " fill="#262C5B" transform="translate(93,67)"/>
<path d="M0 0 C1.5 1.27734375 1.5 1.27734375 3 3 C3 4.89603051 2.99110663 6.79288063 2.91796875 8.6875 C3.15731726 15.43484842 6.30696709 21.91140385 9 28 C9.309375 29.010625 9.61875 30.02125 9.9375 31.0625 C11.20303826 34.56134106 12.64020512 37.11580626 15 40 C18.10935018 41.42779274 18.10935018 41.42779274 21 42 C20.67 43.65 20.34 45.3 20 47 C16.625 47.625 16.625 47.625 13 48 C10.31362289 45.31362289 10.01656766 42.6215223 9 39 C8.34 38.01 7.68 37.02 7 36 C6.48085407 34.59749059 6.00458894 33.17867159 5.5625 31.75 C4.64696626 28.88317716 3.66964808 26.26001171 2.4375 23.5 C-0.90119389 15.37100618 -1.20144562 8.68612709 0 0 Z " fill="#9A1F22" transform="translate(94,61)"/>
<path d="M0 0 C1.35106087 0.00022659 1.35106087 0.00022659 2.72941589 0.00045776 C3.69825211 0.01078033 4.66708832 0.02110291 5.6652832 0.03173828 C7.15714897 0.03598312 7.15714897 0.03598312 8.67915344 0.04031372 C11.85824576 0.05151589 15.03705717 0.07662064 18.21606445 0.10205078 C20.37035726 0.11208053 22.52465448 0.12120639 24.67895508 0.12939453 C29.96225417 0.15145532 35.24538925 0.18493322 40.52856445 0.22705078 C38.14412778 2.61148746 37.60396664 2.48888583 34.35424805 2.54589844 C33.06313614 2.57570297 33.06313614 2.57570297 31.74594116 2.60610962 C30.35056625 2.62343643 30.35056625 2.62343643 28.92700195 2.64111328 C27.97540192 2.66047943 27.02380188 2.67984558 26.04336548 2.69979858 C22.99685699 2.7596921 19.95031091 2.80601873 16.90356445 2.85205078 C14.84104776 2.89022157 12.77854715 2.92927277 10.71606445 2.96923828 C5.65369479 3.06540164 0.5912505 3.14939641 -4.47143555 3.22705078 C-4.80143555 8.17705078 -5.13143555 13.12705078 -5.47143555 18.22705078 C-3.18463867 18.28763672 -0.8978418 18.34822266 1.45825195 18.41064453 C3.66906068 18.47242431 5.87981769 18.53581597 8.09057617 18.59936523 C9.62894098 18.64272004 11.16735408 18.68439473 12.70581055 18.72436523 C14.91510585 18.78205476 17.12415794 18.84575257 19.33325195 18.91064453 C20.02289032 18.92735703 20.71252869 18.94406952 21.42306519 18.96128845 C26.30082104 19.11317907 26.30082104 19.11317907 28.52856445 20.22705078 C28.52856445 20.88705078 28.52856445 21.54705078 28.52856445 22.22705078 C23.58014444 22.15831218 18.63258074 22.0704161 13.68481445 21.96459961 C12.00099161 21.93130643 10.31705597 21.90328822 8.63305664 21.88061523 C6.21492359 21.84714873 3.79782821 21.79484042 1.38012695 21.73876953 C0.62486725 21.73237961 -0.13039246 21.72598969 -0.90853882 21.71940613 C-3.03149414 21.65942383 -3.03149414 21.65942383 -6.47143555 21.22705078 C-9.01739182 17.40811638 -8.5899157 14.54510205 -8.28393555 10.16455078 C-8.25235352 9.43171875 -8.22077148 8.69888672 -8.18823242 7.94384766 C-8.0534668 5.81689453 -8.0534668 5.81689453 -7.47143555 2.22705078 C-4.31417936 0.12221332 -3.59768944 -0.02015512 0 0 Z " fill="#B19496" transform="translate(26.471435546875,66.77294921875)"/>
<path d="M0 0 C0.66 0 1.32 0 2 0 C2 5.28 2 10.56 2 16 C3.56492187 16.13277344 5.12984375 16.26554687 6.7421875 16.40234375 C8.78647694 16.58051577 10.83074678 16.75891282 12.875 16.9375 C13.90753906 17.02451172 14.94007812 17.11152344 16.00390625 17.20117188 C16.99003906 17.28818359 17.97617187 17.37519531 18.9921875 17.46484375 C19.90339355 17.543396 20.81459961 17.62194824 21.75341797 17.70288086 C24 18 24 18 26 19 C27.85497707 19.1424223 29.71459387 19.22630156 31.57421875 19.28125 C32.71060791 19.31798828 33.84699707 19.35472656 35.01782227 19.39257812 C36.22881592 19.42802734 37.43980957 19.46347656 38.6875 19.5 C54.9737407 20.04119241 54.9737407 20.04119241 62.0625 20.5 C63.18785156 20.5721875 64.31320313 20.644375 65.47265625 20.71875 C68 21 68 21 70 22 C69.67 22.66 69.34 23.32 69 24 C62.63412117 24.08966027 56.45594004 23.75405789 50.125 23.125 C42.69293949 22.40331244 35.27972593 21.89647026 27.8203125 21.59765625 C26.22378259 21.52812945 24.62726564 21.45830465 23.03076172 21.38818359 C20.64491499 21.28381154 18.26023137 21.18779925 15.87310791 21.11798096 C13.62754453 21.05179482 11.38486118 20.9562974 9.140625 20.85546875 C7.83641602 20.81059326 6.53220703 20.76571777 5.18847656 20.71948242 C2 20 2 20 0.05834961 17.68212891 C-1.35880751 14.09068989 -1.09321975 10.93951006 -0.6875 7.1875 C-0.62626953 6.49462891 -0.56503906 5.80175781 -0.50195312 5.08789062 C-0.34977344 3.39050178 -0.17696065 1.69498451 0 0 Z " fill="#F0DDDB" transform="translate(18,21)"/>
<path d="M0 0 C2.06766894 4.13533789 1.62122837 9.3229714 1.875 13.875 C1.96007812 14.97714844 2.04515625 16.07929687 2.1328125 17.21484375 C2.29366239 20.22346778 2.39283312 23.01194868 2 26 C-0.4921875 28.7578125 -0.4921875 28.7578125 -3 30 C-5.3125 29.5 -5.3125 29.5 -8 28 C-12.4617416 20.46119522 -11.25994095 11.47214934 -11 3 C-10.01 3.495 -10.01 3.495 -9 4 C-9.061875 4.94875 -9.12375 5.8975 -9.1875 6.875 C-9.21366915 11.14057089 -7.98601423 14.84320698 -6.65625 18.86328125 C-6 21 -6 21 -6 23 C-5.01 23 -4.02 23 -3 23 C-1.72356797 17.68153321 -1.63730253 12.32659377 -1.39453125 6.88671875 C-1.10282166 1.10282166 -1.10282166 1.10282166 0 0 Z " fill="#83404D" transform="translate(67,87)"/>
<path d="M0 0 C0.66 0 1.32 0 2 0 C2.66 1.98 3.32 3.96 4 6 C5.04414063 5.76216797 5.04414063 5.76216797 6.109375 5.51953125 C15.10567724 3.90262828 23.03593572 4.39030905 31 9 C31 9.66 31 10.32 31 11 C22.94077141 11.12048681 15.02426994 10.85921211 6.99609375 10.12109375 C4.35074279 10.01417604 2.48957574 10.1782574 0 11 C-1.05404945 7.01803543 -0.84098656 4.01804691 0 0 Z " fill="#162354" transform="translate(22,74)"/>
<path d="M0 0 C6.21133256 -0.04938976 12.42255112 -0.08571476 18.6340332 -0.10986328 C20.74766022 -0.11992894 22.8612733 -0.13358257 24.97485352 -0.15087891 C28.01061442 -0.1751023 31.04619143 -0.18647738 34.08203125 -0.1953125 C35.02899368 -0.20563507 35.97595612 -0.21595764 36.95161438 -0.22659302 C37.83230087 -0.22674408 38.71298737 -0.22689514 39.62036133 -0.22705078 C40.39535477 -0.231492 41.17034821 -0.23593323 41.96882629 -0.24050903 C44 0 44 0 47 2 C48.3334341 6.16793402 48.11640978 10.4789832 48.0625 14.8125 C48.05798828 15.50537109 48.05347656 16.19824219 48.04882812 16.91210938 C48.03713156 18.60811068 48.01919924 20.30406703 48 22 C47.01 21.34 46.02 20.68 45 20 C42.39088327 19.63322321 39.80927735 19.49618999 37.1796875 19.34375 C36.10074219 19.17359375 36.10074219 19.17359375 35 19 C34.505 18.01 34.505 18.01 34 17 C35.06541016 16.80083984 35.06541016 16.80083984 36.15234375 16.59765625 C37.07144531 16.42105469 37.99054688 16.24445312 38.9375 16.0625 C39.85402344 15.88847656 40.77054688 15.71445312 41.71484375 15.53515625 C43.95289844 15.22285012 43.95289844 15.22285012 45 14 C44.91015699 12.14227838 44.75388139 10.28752015 44.5625 8.4375 C44.40974609 6.91962891 44.40974609 6.91962891 44.25390625 5.37109375 C44.17011719 4.58863281 44.08632812 3.80617187 44 3 C43.1646875 3.01740234 43.1646875 3.01740234 42.3125 3.03515625 C41.549375 3.04417969 40.78625 3.05320313 40 3.0625 C39.2575 3.07410156 38.515 3.08570313 37.75 3.09765625 C35 3 35 3 31.5625 2.53125 C25.40584995 1.71610143 19.20078505 1.63720849 13 1.4375 C11.12248047 1.37272461 11.12248047 1.37272461 9.20703125 1.30664062 C6.13811477 1.20121983 3.06912611 1.09909658 0 1 C0 0.67 0 0.34 0 0 Z " fill="#DC9C92" transform="translate(44,40)"/>
<path d="M0 0 C5.1411629 -0.07449853 10.28200729 -0.12876593 15.42358398 -0.16479492 C17.1703845 -0.17982429 18.91714765 -0.20025354 20.66381836 -0.22631836 C23.18352515 -0.2629608 25.70273039 -0.27978492 28.22265625 -0.29296875 C29.3824575 -0.31619453 29.3824575 -0.31619453 30.56568909 -0.33988953 C35.77708919 -0.34148478 39.33601493 0.65855527 44 3 C44 5.31 44 7.62 44 10 C44.99 10.33 45.98 10.66 47 11 C47.87890625 12.93359375 47.87890625 12.93359375 48.5625 15.4375 C48.80742188 16.33339844 49.05234375 17.22929688 49.3046875 18.15234375 C52 29.19101124 52 29.19101124 52 33 C51.01 32.67 50.02 32.34 49 32 C49 29.03 49 26.06 49 23 C47.68 22.34 46.36 21.68 45 21 C42.94721254 17.30498258 42.80582799 14.17469817 43 10 C42.34 10 41.68 10 41 10 C41 7.69 41 5.38 41 3 C35.65677385 2.2668718 30.39424611 1.81606314 25 1.68359375 C23.91827515 1.6524221 23.91827515 1.6524221 22.81469727 1.62062073 C20.54321493 1.55598066 18.27163138 1.49664449 16 1.4375 C14.44660471 1.3942331 12.89321913 1.35061642 11.33984375 1.30664062 C7.55999576 1.20038904 3.78004748 1.0988892 0 1 C0 0.67 0 0.34 0 0 Z " fill="#E04328" transform="translate(59,22)"/>
<path d="M0 0 C1.32 0 2.64 0 4 0 C4.05607422 1.80984375 4.05607422 1.80984375 4.11328125 3.65625 C4.17899219 5.27086178 4.24543771 6.88544378 4.3125 8.5 C4.33505859 9.29148437 4.35761719 10.08296875 4.38085938 10.8984375 C4.63290014 16.48915999 5.51439377 20.94915714 8 26 C9.83430454 27.04551543 9.83430454 27.04551543 12 27 C14.34267032 26.0093934 14.34267032 26.0093934 16 24 C16.45976327 21.48566225 16.45976327 21.48566225 16.171875 18.67578125 C16.11386719 17.64775391 16.05585937 16.61972656 15.99609375 15.56054688 C15.87427734 13.95276367 15.87427734 13.95276367 15.75 12.3125 C15.65138672 10.68731445 15.65138672 10.68731445 15.55078125 9.02929688 C15.38560756 6.35112348 15.20131547 3.6756598 15 1 C15.66 1 16.32 1 17 1 C17.33885038 3.52019972 17.67120335 6.04098516 18 8.5625 C18.09539062 9.26697266 18.19078125 9.97144531 18.2890625 10.69726562 C18.86402109 15.1531947 19.28999013 19.49957626 19 24 C16.86502781 26.72802002 15.05270632 28.44074977 12 30.0625 C8.72662137 29.96020692 7.24612083 28.24612083 5 26 C4.1875 23.75 4.1875 23.75 4 22 C3.34 22 2.68 22 2 22 C1.34 14.74 0.68 7.48 0 0 Z " fill="#AFA4A8" transform="translate(52,89)"/>
<path d="M0 0 C0.38218767 1.65614657 0.71395102 3.32457024 1 5 C0 6 0 6 -1.94946289 6.11352539 C-2.7821167 6.10828857 -3.61477051 6.10305176 -4.47265625 6.09765625 C-5.37177734 6.09443359 -6.27089844 6.09121094 -7.19726562 6.08789062 C-8.14279297 6.07951172 -9.08832031 6.07113281 -10.0625 6.0625 C-11.01189453 6.05798828 -11.96128906 6.05347656 -12.93945312 6.04882812 C-15.29303065 6.0370011 -17.64648477 6.02052025 -20 6 C-21.125 2.25 -21.125 2.25 -20 0 C-17.55053633 -0.34352234 -15.21206275 -0.55999204 -12.75 -0.6875 C-11.74646484 -0.75807617 -11.74646484 -0.75807617 -10.72265625 -0.83007812 C-6.96967703 -1.05496195 -3.64440983 -0.9393537 0 0 Z " fill="#F2EBEA" transform="translate(98,107)"/>
<path d="M0 0 C4.41661151 -0.05804281 8.83312496 -0.09361104 13.25 -0.125 C14.50425781 -0.14175781 15.75851563 -0.15851562 17.05078125 -0.17578125 C18.25605469 -0.18222656 19.46132812 -0.18867187 20.703125 -0.1953125 C21.81333008 -0.20578613 22.92353516 -0.21625977 24.06738281 -0.22705078 C27 0 27 0 31 2 C31.33 10.58 31.66 19.16 32 28 C31.34 28.33 30.68 28.66 30 29 C29.44540047 23.70159378 28.92806693 18.45703847 29 13.125 C29.03412218 9.95163753 28.95646691 7.06069412 28 4 C25.55987406 2.77993703 23.85904125 2.8275546 21.1328125 2.75390625 C20.16472656 2.72103516 19.19664063 2.68816406 18.19921875 2.65429688 C16.15765836 2.59333541 14.11598585 2.53601499 12.07421875 2.48242188 C11.10355469 2.44826172 10.13289063 2.41410156 9.1328125 2.37890625 C8.24480957 2.3538501 7.35680664 2.32879395 6.44189453 2.30297852 C3.88916545 1.98624818 2.209658 1.28473718 0 0 Z " fill="#D8503B" transform="translate(62,38)"/>
<path d="M0 0 C5.42168675 -0.48192771 5.42168675 -0.48192771 7.875 1.5625 C9.3704944 4.80273788 9.20330402 7.47606359 9 11 C9.66 11 10.32 11 11 11 C11.70078445 13.55951745 12.38585196 16.12159702 13.0625 18.6875 C13.26166016 19.40873047 13.46082031 20.12996094 13.66601562 20.87304688 C14.72033808 24.92386473 15.29133534 27.8823458 14 32 C14.66 32 15.32 32 16 32 C18.10428384 37.12919186 18.21755666 41.5610835 18 47 C17.34 46.67 16.68 46.34 16 46 C16.0928125 44.453125 16.0928125 44.453125 16.1875 42.875 C15.98227198 38.63362091 14.9042604 36.73528002 13 33 C12.39299718 30.4770155 11.92797918 27.94751748 11.46484375 25.39453125 C10.73124349 21.61556519 9.506265 18.13165118 7.9375 14.625 C7.05401509 12.15124224 6.88667577 10.45770069 6.75 7.875 C6.5025 6.59625 6.255 5.3175 6 4 C3.08158143 1.91367303 3.08158143 1.91367303 0 1 C0 0.67 0 0.34 0 0 Z " fill="#E7BAB3" transform="translate(97,20)"/>
<path d="M0 0 C0.99 0 1.98 0 3 0 C3.33 3.96 3.66 7.92 4 12 C8.29 12 12.58 12 17 12 C17.33 12.66 17.66 13.32 18 14 C16.91203125 13.91621094 15.8240625 13.83242187 14.703125 13.74609375 C6.01197863 13.12664267 -2.31860832 12.91273515 -11 14 C-11 13.01 -11 12.02 -11 11 C-7.7 10.67 -4.4 10.34 -1 10 C-1.020625 8.535625 -1.04125 7.07125 -1.0625 5.5625 C-1.08392007 4.04167482 -1.07179964 2.51928038 -1 1 C-0.67 0.67 -0.34 0.34 0 0 Z " fill="#B6B7BC" transform="translate(80,76)"/>
<path d="M0 0 C5.45692683 0.44546341 9.93207377 1.95504731 15 4 C15 4.66 15 5.32 15 6 C12.71059044 6.38854209 10.41835426 6.7604628 8.125 7.125 C6.21074219 7.43824219 6.21074219 7.43824219 4.2578125 7.7578125 C2.64519531 7.87769531 2.64519531 7.87769531 1 8 C-1 6 -1 6 -1.1875 3.4375 C-1 1 -1 1 0 0 Z " fill="#3F4876" transform="translate(25,73)"/>
<path d="M0 0 C4.47238653 1.41807378 8.71146306 3.11304374 13 5 C12.67 6.65 12.34 8.3 12 10 C8.625 10.625 8.625 10.625 5 11 C2.30992402 8.30992402 1.97270764 5.63144185 1 2 C0.67 1.34 0.34 0.68 0 0 Z " fill="#A24B4A" transform="translate(102,98)"/>
<path d="M0 0 C0.33 0 0.66 0 1 0 C4.39009901 17.88882603 4.39009901 17.88882603 1.6875 23.9375 C-0.59440584 26.72649603 -2.29601914 27.89287248 -5.875 28.4375 C-10.09541211 27.84664231 -11.46363904 26.35694833 -14 23 C-14.3125 20.1875 -14.3125 20.1875 -14 18 C-13.443125 18.78375 -12.88625 19.5675 -12.3125 20.375 C-9.87213818 23.14514045 -8.60877201 24.29584936 -5 25 C-2.10118744 23.68235793 -0.43937332 22.87874663 1 20 C1.01605041 18.47611237 0.9655743 16.95119326 0.87890625 15.4296875 C0.83056641 14.53378906 0.78222656 13.63789062 0.73242188 12.71484375 C0.67634766 11.77769531 0.62027344 10.84054688 0.5625 9.875 C0.51029297 8.93011719 0.45808594 7.98523438 0.40429688 7.01171875 C0.27443239 4.6741581 0.1394613 2.33700455 0 0 Z " fill="#D9D7D9" transform="translate(69,93)"/>
<path d="M0 0 C2.42130331 2.42130331 2.52840504 3.80111377 3.125 7.125 C3.29257812 8.03507812 3.46015625 8.94515625 3.6328125 9.8828125 C3.75398438 10.58148438 3.87515625 11.28015625 4 12 C4.99 12 5.98 12 7 12 C7.66 8.7 8.32 5.4 9 2 C9.33 2 9.66 2 10 2 C10.05406122 3.93719378 10.09282025 5.87481921 10.125 7.8125 C10.14820312 8.89144531 10.17140625 9.97039062 10.1953125 11.08203125 C10 14 10 14 8 17 C6.35 16.67 4.7 16.34 3 16 C-0.44419134 5.62642369 -0.44419134 5.62642369 0 0 Z " fill="#721426" transform="translate(57,98)"/>
<path d="M0 0 C0.66 0.33 1.32 0.66 2 1 C2.39716498 3.47556214 2.65163516 5.82026073 2.8125 8.3125 C2.87630859 8.98990234 2.94011719 9.66730469 3.00585938 10.36523438 C3.23416763 13.65480263 3.2295305 15.61744916 1.51171875 18.48046875 C0.76341797 19.23263672 0.76341797 19.23263672 0 20 C0.495 20.556875 0.99 21.11375 1.5 21.6875 C3.24754367 24.38162983 3.26218749 25.85375007 3 29 C2.34 29 1.68 29 1 29 C1.01160156 29.62648438 1.02320312 30.25296875 1.03515625 30.8984375 C1.04417969 31.71570313 1.05320312 32.53296875 1.0625 33.375 C1.07410156 34.18710938 1.08570312 34.99921875 1.09765625 35.8359375 C1 38 1 38 0 40 C-0.66 39.67 -1.32 39.34 -2 39 C-1.47462276 33.9697924 -0.89405214 28.98114761 0 24 C-0.99 23.34 -1.98 22.68 -3 22 C-2.6875 19.625 -2.6875 19.625 -2 17 C-1.01 16.34 -0.02 15.68 1 15 C0.505 7.575 0.505 7.575 0 0 Z " fill="#E6B6AF" transform="translate(116,68)"/>
<path d="M0 0 C0.99 0.33 1.98 0.66 3 1 C3.04898438 1.62648437 3.09796875 2.25296875 3.1484375 2.8984375 C3.22320312 3.71570312 3.29796875 4.53296875 3.375 5.375 C3.44460937 6.18710937 3.51421875 6.99921875 3.5859375 7.8359375 C3.82892588 10.20334191 3.82892588 10.20334191 6 12 C6.41552628 14.82674923 6.69561557 17.53317297 6.875 20.375 C6.98328125 21.52742188 6.98328125 21.52742188 7.09375 22.703125 C7.4684771 28.40292135 7.4684771 28.40292135 5.0078125 31.5390625 C4.34523438 32.02117187 3.68265625 32.50328125 3 33 C2.34 32.67 1.68 32.34 1 32 C1.74830078 31.24783203 1.74830078 31.24783203 2.51171875 30.48046875 C4.55982163 27.06696395 4.17191777 24.12813714 3.8125 20.3125 C3.76802734 19.62349609 3.72355469 18.93449219 3.67773438 18.22460938 C3.53830731 16.4740251 3.27818569 14.73395442 3 13 C2.34 12.67 1.68 12.34 1 12 C0.5859375 9.27734375 0.5859375 9.27734375 0.375 5.9375 C0.30023438 4.83277344 0.22546875 3.72804687 0.1484375 2.58984375 C0.09945312 1.73519531 0.05046875 0.88054688 0 0 Z " fill="#F0DFDD" transform="translate(114,56)"/>
<path d="M0 0 C2.72426311 2.35277269 3.8141763 4.62496331 5 8 C5.99 6.02 6.98 4.04 8 2 C8.33 2 8.66 2 9 2 C9.3690205 11.41002278 9.3690205 11.41002278 7 16 C6.01 16 5.02 16 4 16 C3.32586789 14.08594633 2.6609668 12.16863974 2 10.25 C1.62875 9.18265625 1.2575 8.1153125 0.875 7.015625 C0 4 0 4 0 0 Z " fill="#AE1510" transform="translate(57,94)"/>
<path d="M0 0 C0.99 0 1.98 0 3 0 C3.33 3.96 3.66 7.92 4 12 C2 13 2 13 -1.125 12.0625 C-2.07375 11.711875 -3.0225 11.36125 -4 11 C-3.21681311 7.08406554 -1.60820142 3.63593365 0 0 Z " fill="#162354" transform="translate(72,72)"/>
<path d="M0 0 C3.95831809 -0.02892857 7.91660917 -0.04677427 11.875 -0.0625 C13.56689453 -0.07506836 13.56689453 -0.07506836 15.29296875 -0.08789062 C16.36933594 -0.09111328 17.44570312 -0.09433594 18.5546875 -0.09765625 C19.54968262 -0.10289307 20.54467773 -0.10812988 21.56982422 -0.11352539 C24 0 24 0 26 1 C26 1.66 26 2.32 26 3 C22.97892098 3.0543251 19.95883472 3.09382927 16.9375 3.125 C16.08994141 3.14175781 15.24238281 3.15851562 14.36914062 3.17578125 C9.16581799 3.21596135 4.92530179 2.69745815 0 1 C0 0.67 0 0.34 0 0 Z " fill="#E71C09" transform="translate(55,35)"/>
<path d="M0 0 C2.24296615 1.95355116 3.78778935 3.45431546 4.875 6.25 C5.0513886 10.13054916 4.0747068 13.27013521 3 17 C0.37869891 14.37869891 -1.02816381 11.53975373 -2 8 C-1.5862069 1.5862069 -1.5862069 1.5862069 0 0 Z " fill="#E91F09" transform="translate(60,87)"/>
<path d="M0 0 C1.28132813 0.00902344 2.56265625 0.01804687 3.8828125 0.02734375 C4.87023437 0.03894531 5.85765625 0.05054687 6.875 0.0625 C6.875 1.0525 6.875 2.0425 6.875 3.0625 C5.875 4.0625 5.875 4.0625 3.00390625 4.1953125 C1.82699219 4.19273438 0.65007812 4.19015625 -0.5625 4.1875 C-1.73683594 4.19007812 -2.91117187 4.19265625 -4.12109375 4.1953125 C-7.125 4.0625 -7.125 4.0625 -9.125 3.0625 C-9.125 2.4025 -9.125 1.7425 -9.125 1.0625 C-6.12186252 -0.43906874 -3.33432478 -0.03031204 0 0 Z " fill="#CECDD0" transform="translate(89.125,107.9375)"/>
<path d="M0 0 C0.66 0 1.32 0 2 0 C2 5.28 2 10.56 2 16 C9.26 16.66 16.52 17.32 24 18 C24 18.33 24 18.66 24 19 C7.59978242 19.20996011 7.59978242 19.20996011 1 18 C-1.51005664 14.23491505 -1.0258295 11.60538391 -0.625 7.3125 C-0.56828125 6.61060547 -0.5115625 5.90871094 -0.453125 5.18554688 C-0.31195359 3.45619715 -0.15728041 1.72795912 0 0 Z " fill="#E7BAB3" transform="translate(18,21)"/>
<path d="M0 0 C5.76575914 -0.07418336 11.53124017 -0.12861797 17.29736328 -0.16479492 C19.25867553 -0.17987695 21.21995408 -0.20034547 23.18115234 -0.22631836 C26.00106118 -0.26272731 28.82052392 -0.27973216 31.640625 -0.29296875 C32.51680481 -0.30845261 33.39298462 -0.32393646 34.29571533 -0.33988953 C40.37107495 -0.34156723 40.37107495 -0.34156723 43.56054688 1.390625 C45 3 45 3 45.390625 5.04296875 C45.26041667 7.02864583 45.13020833 9.01432292 45 11 C44.67 11 44.34 11 44 11 C43.505 7.535 43.505 7.535 43 4 C37.98786788 2.01327169 33.62622564 1.6646794 28.3203125 1.5859375 C27.50754852 1.56657135 26.69478455 1.5472052 25.85739136 1.5272522 C23.28003188 1.46782117 20.70262685 1.42121819 18.125 1.375 C16.36977298 1.33678657 14.61456403 1.29773291 12.859375 1.2578125 C8.57306476 1.16215001 4.28666681 1.07798551 0 1 C0 0.67 0 0.34 0 0 Z " fill="#DE6955" transform="translate(59,21)"/>
<path d="M0 0 C0.99 0.495 0.99 0.495 2 1 C2.67784992 3.33010909 3.34416793 5.66359824 4 8 C4.66 8.66 5.32 9.32 6 10 C6.71927295 12.31765729 7.3909893 14.65095874 8 17 C10.31 17 12.62 17 15 17 C14.34 18.32 13.68 19.64 13 21 C9.28400809 21.20086443 8.22791555 21.1519437 5 19 C4.74135396 16.96316245 4.48815648 14.92457235 4.3125 12.87890625 C4.16646676 10.8757105 4.16646676 10.8757105 2.5 9.5 C-0.0766112 6.9233888 0.28927501 3.52915509 0 0 Z " fill="#AF9B9E" transform="translate(99,91)"/>
<path d="M0 0 C0.33 0 0.66 0 1 0 C1 1.98 1 3.96 1 6 C-4.24424543 6.81160941 -9.4553495 7.34099146 -14.75 7.6875 C-15.50410156 7.74744141 -16.25820312 7.80738281 -17.03515625 7.86914062 C-22.65023965 8.23317356 -22.65023965 8.23317356 -26 6 C-25.13117188 5.93941406 -24.26234375 5.87882812 -23.3671875 5.81640625 C-22.21476562 5.73261719 -21.06234375 5.64882812 -19.875 5.5625 C-18.16957031 5.44068359 -18.16957031 5.44068359 -16.4296875 5.31640625 C-13.24540875 5.02264022 -10.15030842 4.53698439 -7 4 C-5.33372702 3.96377667 -3.66594626 3.95100158 -2 4 C-1.34 2.68 -0.68 1.36 0 0 Z " fill="#8E929C" transform="translate(91,62)"/>
<path d="M0 0 C3.30734884 2.58835996 3.42403609 4.96825262 4 9 C4.32613281 9.61488281 4.65226562 10.22976562 4.98828125 10.86328125 C6.18337684 13.38728623 6.40585222 15.47412806 6.625 18.25 C6.69976562 19.14203125 6.77453125 20.0340625 6.8515625 20.953125 C6.90054688 21.62859375 6.94953125 22.3040625 7 23 C6.01 22.67 5.02 22.34 4 22 C3.96261719 21.40832031 3.92523438 20.81664063 3.88671875 20.20703125 C3.49947593 15.07536521 3.49947593 15.07536521 1.4375 10.4375 C-0.66296649 6.87583943 -0.20804212 4.09149502 0 0 Z " fill="#DD715F" transform="translate(104,32)"/>
<path d="M0 0 C0.66 0.33 1.32 0.66 2 1 C2.31241371 3.54941373 2.51303421 6.00361513 2.625 8.5625 C2.66367188 9.27341797 2.70234375 9.98433594 2.7421875 10.71679688 C2.83671783 12.47742425 2.91945817 14.23867728 3 16 C0.125 16.125 0.125 16.125 -3 16 C-3.66 15.34 -4.32 14.68 -5 14 C-3.35 14 -1.7 14 0 14 C0 9.38 0 4.76 0 0 Z " fill="#3F4876" transform="translate(75,70)"/>
<path d="M0 0 C0.66 0.33 1.32 0.66 2 1 C2.39716498 3.47556214 2.65163516 5.82026073 2.8125 8.3125 C2.87630859 8.98990234 2.94011719 9.66730469 3.00585938 10.36523438 C3.22414704 13.51042151 3.26947849 15.54675108 1.63671875 18.29296875 C1.09660156 18.85628906 0.55648437 19.41960937 0 20 C-0.66 20.99 -1.32 21.98 -2 23 C-2.75 21.25 -2.75 21.25 -3 19 C-2.34 18.4534375 -1.68 17.906875 -1 17.34375 C1.37367178 15.04692058 1.37367178 15.04692058 1.171875 11.328125 C1.05291406 9.96668309 0.91161343 8.60703975 0.75 7.25 C0.68425781 6.55261719 0.61851563 5.85523437 0.55078125 5.13671875 C0.38640673 3.42252737 0.19577346 1.71088977 0 0 Z " fill="#E0A298" transform="translate(116,68)"/>
<path d="M0 0 C1.485 0.99 1.485 0.99 3 2 C2.67 4.97 2.34 7.94 2 11 C1.01 11.33 0.02 11.66 -1 12 C-1.02698189 10.37509046 -1.04638757 8.75005367 -1.0625 7.125 C-1.07410156 6.22007813 -1.08570312 5.31515625 -1.09765625 4.3828125 C-1 2 -1 2 0 0 Z " fill="#E61B09" transform="translate(104,43)"/>
<path d="M0 0 C2.31 0.33 4.62 0.66 7 1 C6.34 2.32 5.68 3.64 5 5 C3.35 4.67 1.7 4.34 0 4 C0 2.68 0 1.36 0 0 Z " fill="#9C1416" transform="translate(107,103)"/>
<path d="M0 0 C0.33 0 0.66 0 1 0 C1.04898438 0.62648437 1.09796875 1.25296875 1.1484375 1.8984375 C1.22320312 2.71570312 1.29796875 3.53296875 1.375 4.375 C1.44460937 5.18710937 1.51421875 5.99921875 1.5859375 6.8359375 C1.82892588 9.20334191 1.82892588 9.20334191 4 11 C3.67 11.99 3.34 12.98 3 14 C3 13.34 3 12.68 3 12 C2.360625 11.731875 1.72125 11.46375 1.0625 11.1875 C-1 10 -1 10 -2 7 C-1.40206327 4.64811553 -0.74118205 2.31074405 0 0 Z " fill="#E0482E" transform="translate(111,58)"/>
<path d="M0 0 C3.3 0 6.6 0 10 0 C9.34 1.32 8.68 2.64 8 4 C4.28400809 4.20086443 3.22791555 4.1519437 0 2 C0 1.34 0 0.68 0 0 Z " fill="#BBB5B9" transform="translate(104,108)"/>
<path d="M0 0 C0 1.65 0 3.3 0 5 C-2.31 4.34 -4.62 3.68 -7 3 C-3.375 0 -3.375 0 0 0 Z " fill="#DE6954" transform="translate(115,98)"/>
<path d="M0 0 C2.375 1 2.375 1 4 2 C3.67 2.66 3.34 3.32 3 4 C1.35333797 3.8864371 -0.29236082 3.75882619 -1.9375 3.625 C-2.85402344 3.55539063 -3.77054687 3.48578125 -4.71484375 3.4140625 C-5.84599609 3.20910156 -5.84599609 3.20910156 -7 3 C-7.33 2.34 -7.66 1.68 -8 1 C-5.2201184 -0.3899408 -3.0813674 -0.18488204 0 0 Z " fill="#E3AEA5" transform="translate(86,56)"/>
<path d="M0 0 C1.32 0.66 2.64 1.32 4 2 C3.67 3.65 3.34 5.3 3 7 C1.68 5.68 0.36 4.36 -1 3 C-0.67 2.01 -0.34 1.02 0 0 Z " fill="#F82F0B" transform="translate(106,90)"/>
<path d="M0 0 C1.23556641 0.01740234 1.23556641 0.01740234 2.49609375 0.03515625 C3.32238281 0.04417969 4.14867187 0.05320312 5 0.0625 C5.63808594 0.07410156 6.27617187 0.08570312 6.93359375 0.09765625 C6.93359375 0.42765625 6.93359375 0.75765625 6.93359375 1.09765625 C4.62359375 1.42765625 2.31359375 1.75765625 -0.06640625 2.09765625 C-0.39640625 5.06765625 -0.72640625 8.03765625 -1.06640625 11.09765625 C-1.39640625 11.09765625 -1.72640625 11.09765625 -2.06640625 11.09765625 C-2.26047103 9.45258407 -2.4464856 7.80656031 -2.62890625 6.16015625 C-2.73332031 5.24363281 -2.83773438 4.32710938 -2.9453125 3.3828125 C-2.98527344 2.62871094 -3.02523438 1.87460938 -3.06640625 1.09765625 C-2.06640625 0.09765625 -2.06640625 0.09765625 0 0 Z " fill="#838996" transform="translate(22.06640625,67.90234375)"/>
<path d="M0 0 C0.99 0 1.98 0 3 0 C3 1.98 3 3.96 3 6 C2.01 6 1.02 6 0 6 C-0.38218767 4.34385343 -0.71395102 2.67542976 -1 1 C-0.67 0.67 -0.34 0.34 0 0 Z " fill="#CBCDD0" transform="translate(80,76)"/>
<path d="M0 0 C0.33 0.66 0.66 1.32 1 2 C1.66 2 2.32 2 3 2 C3.6875 4.25 3.6875 4.25 4 7 C3.01 8.32 2.02 9.64 1 11 C0.67 7.37 0.34 3.74 0 0 Z " fill="#F0DDDB" transform="translate(110,41)"/>
<path d="M0 0 C0.33 0 0.66 0 1 0 C1.1953125 6.0546875 1.1953125 6.0546875 1 8 C0.34 8.66 -0.32 9.32 -1 10 C-3.125 9.625 -3.125 9.625 -5 9 C-4.0409375 8.443125 -4.0409375 8.443125 -3.0625 7.875 C-0.36141928 5.41947207 -0.31592995 3.55421195 0 0 Z " fill="#818895" transform="translate(69,107)"/>
<path d="M0 0 C1.98 0 3.96 0 6 0 C6 0.66 6 1.32 6 2 C3.09399739 3.25664978 1.20395416 4 -2 4 C-1.34 2.68 -0.68 1.36 0 0 Z " fill="#DC4229" transform="translate(109,96)"/>
<path d="M0 0 C1.9375 0.8125 1.9375 0.8125 4 2 C4.33 2.99 4.66 3.98 5 5 C3.35 4.67 1.7 4.34 0 4 C0 2.68 0 1.36 0 0 Z " fill="#971519" transform="translate(102,94)"/>
</svg>
