<?xml version="1.0" encoding="UTF-8"?>
<svg version="1.1" xmlns="http://www.w3.org/2000/svg" width="128" height="128">
<path d="M0 0 C42.24 0 84.48 0 128 0 C128 42.24 128 84.48 128 128 C85.76 128 43.52 128 0 128 C0 85.76 0 43.52 0 0 Z " fill="#FDFDFD" transform="translate(0,0)"/>
<path d="M0 0 C2.63440667 -0.28032016 4.99572682 -0.37742399 7.625 -0.3125 C8.35050049 -0.3019458 9.07600098 -0.2913916 9.82348633 -0.28051758 C16.85590082 -0.10587283 23.17553905 0.63165429 29 5 C29 5.66 29 6.32 29 7 C29.66 7 30.32 7 31 7 C30.814375 6.360625 30.62875 5.72125 30.4375 5.0625 C30.293125 4.381875 30.14875 3.70125 30 3 C31.77714844 1.22285156 34.28270998 1.78549506 36.6875 1.75 C43.01118336 1.81751263 46.56707474 2.88719648 51.375 7.0625 C53.81300918 11.46967044 54.06225582 15.08366215 53 20 C51.32380734 23.19778503 49.43431801 26.1925269 47.50390625 29.2421875 C45.71277719 32.03490392 45.71277719 32.03490392 45.875 35.8125 C46.84475624 38.56014267 47.82761087 41.27025301 49.046875 43.91796875 C50.7386519 47.61353058 52.24742723 51.38758711 53.796875 55.14453125 C54.73009047 57.35940302 55.71864763 59.51862663 56.75 61.6875 C60.86323034 72.5875604 57.89400047 81.43988925 53.4140625 91.71484375 C51.81893406 94.29260657 50.68379786 94.76854543 48 96 C47.505 97.485 47.505 97.485 47 99 C46.36964844 99.28230469 45.73929687 99.56460938 45.08984375 99.85546875 C42.17158161 101.45369456 41.75864562 103.25384391 40.5625 106.3125 C38.60007569 110.94819582 36.84652828 113.79455977 33 117 C32.67 117.33 32.34 117.66 32 118 C27.77852126 118.31068644 23.54399433 118.27853937 19.3125 118.3125 C18.12720703 118.34150391 16.94191406 118.37050781 15.72070312 118.40039062 C4.87835453 118.47944308 4.87835453 118.47944308 0 114 C-2 112 -2 112 -2.265625 109.79296875 C-2.26046875 108.93316406 -2.2553125 108.07335937 -2.25 107.1875 C-2.25515625 106.33542969 -2.2603125 105.48335938 -2.265625 104.60546875 C-1.97337864 101.73887578 -1.08304633 99.66165628 0 97 C0.41972929 94.73346181 0.81383587 92.46208637 1.1875 90.1875 C2.91988111 81.82307403 6.55025855 77.54136023 13.25 72.5625 C16.5020536 69.53217732 17.05477138 67.32417469 18.21484375 63.15625 C19.37577993 59.96800735 21.44633954 58.15045091 24 56 C25.96822886 54.03177114 25.66248381 50.65191291 26 48 C23.03 48.495 23.03 48.495 20 49 C19.54503965 43.23716896 21.20900148 38.39431697 23 33 C22.071875 33.495 22.071875 33.495 21.125 34 C15.13490312 35.916831 9.58206682 35.82336198 4 33 C1.42300015 32.54477135 1.42300015 32.54477135 -1.3125 32.375 C-2.28058594 32.29894531 -3.24867187 32.22289062 -4.24609375 32.14453125 C-6.45286129 32.02871508 -8.66548278 32.02686263 -10.875 32.0625 C-14.11033358 31.99779333 -16.15206436 31.50773063 -19 30 C-19.33 29.34 -19.66 28.68 -20 28 C-20.845625 27.62875 -21.69125 27.2575 -22.5625 26.875 C-25 25 -25 25 -25.6875 21.3125 C-25.34058208 16.08945801 -22.69947742 12.54465348 -19 9 C-14.08612068 6.14101567 -10.56669416 6 -5 6 C-2.62440584 4.27974216 -1.65784201 2.48676301 0 0 Z " fill="#E3E9E8" transform="translate(48,10)"/>
<path d="M0 0 C3.32071541 1.65086995 6.39036208 3.77126528 9.23828125 6.14453125 C9.89828125 4.49453125 10.55828125 2.84453125 11.23828125 1.14453125 C13.21828125 1.14453125 15.19828125 1.14453125 17.23828125 1.14453125 C16.57828125 1.47453125 15.91828125 1.80453125 15.23828125 2.14453125 C14.89485676 3.47530114 14.56208251 4.80885104 14.23828125 6.14453125 C13.57828125 6.80453125 12.91828125 7.46453125 12.23828125 8.14453125 C10.91828125 8.14453125 9.59828125 8.14453125 8.23828125 8.14453125 C7.90828125 13.75453125 7.57828125 19.36453125 7.23828125 25.14453125 C10.45653448 24.33996794 13.19643369 23.40578511 16.23828125 22.14453125 C19.2208153 20.90787079 22.08402515 19.84547705 25.23828125 19.14453125 C25.10550781 19.73621094 24.97273438 20.32789062 24.8359375 20.9375 C24.47134132 22.56886829 24.11353727 24.20176597 23.76171875 25.8359375 C23.23828125 28.14453125 23.23828125 28.14453125 22.42578125 30.76953125 C22.14323773 34.34841582 23.77478334 36.92483585 25.23828125 40.14453125 C25.23828125 41.46453125 25.23828125 42.78453125 25.23828125 44.14453125 C21.48451973 42.89327741 20.99754836 41.57929085 19.23828125 38.14453125 C19.23828125 37.48453125 19.23828125 36.82453125 19.23828125 36.14453125 C18.59890625 35.89703125 17.95953125 35.64953125 17.30078125 35.39453125 C15.23828125 34.14453125 15.23828125 34.14453125 14.48828125 32.01953125 C14.40578125 31.40078125 14.32328125 30.78203125 14.23828125 30.14453125 C12.91828125 30.14453125 11.59828125 30.14453125 10.23828125 30.14453125 C9.05946838 33.82832147 9.02469324 37.29994698 9.23828125 41.14453125 C9.89828125 41.80453125 10.55828125 42.46453125 11.23828125 43.14453125 C11.54765625 43.92828125 11.85703125 44.71203125 12.17578125 45.51953125 C13.08395441 48.14255815 13.08395441 48.14255815 14.73046875 49.94921875 C16.55741441 52.6091759 16.93451254 54.72017956 17.42578125 57.89453125 C17.66361328 59.37179688 17.66361328 59.37179688 17.90625 60.87890625 C18.01582031 61.6265625 18.12539062 62.37421875 18.23828125 63.14453125 C17.6040625 63.26699219 16.96984375 63.38945313 16.31640625 63.515625 C14.04111558 63.95149216 14.04111558 63.95149216 12.98828125 66.20703125 C12.74078125 66.84640625 12.49328125 67.48578125 12.23828125 68.14453125 C11.24828125 67.64953125 11.24828125 67.64953125 10.23828125 67.14453125 C10.36203125 65.94828125 10.48578125 64.75203125 10.61328125 63.51953125 C10.64643732 56.58991252 7.5064891 50.13226972 4.23828125 44.14453125 C3.24828125 43.48453125 2.25828125 42.82453125 1.23828125 42.14453125 C1.56828125 37.85453125 1.89828125 33.56453125 2.23828125 29.14453125 C0.67980469 29.17933594 0.67980469 29.17933594 -0.91015625 29.21484375 C-7.93631382 29.32289952 -14.40499905 29.28058618 -21.26171875 27.56640625 C-24.38552563 27.03926384 -27.28839055 27.23648984 -30.44921875 27.39453125 C-35.01229647 27.49161801 -37.53631567 27.23449456 -41.07421875 24.26953125 C-43.76171875 21.57552399 -43.76171875 21.57552399 -43.76171875 19.14453125 C-43.10171875 19.14453125 -42.44171875 19.14453125 -41.76171875 19.14453125 C-41.84421875 18.23703125 -41.92671875 17.32953125 -42.01171875 16.39453125 C-41.76171875 13.14453125 -41.76171875 13.14453125 -40.08984375 11.04296875 C-37.45774194 8.89665754 -35.55314853 8.27004958 -32.26171875 7.51953125 C-27.2977052 6.37784242 -27.2977052 6.37784242 -22.76171875 4.14453125 C-22.10616756 1.6171989 -22.10616756 1.6171989 -21.76171875 -0.85546875 C-16.31736221 -3.57764702 -5.746373 -1.7799939 0 0 Z " fill="#A0E2E8" transform="translate(69.76171875,12.85546875)"/>
<path d="M0 0 C2 1.1875 2 1.1875 4 3 C4.5 5.375 4.5 5.375 4 8 C2.125 10.625 2.125 10.625 0 13 C-2.30671915 15.71549154 -2.30671915 15.71549154 -1.625 18.1875 C-1.41875 18.785625 -1.2125 19.38375 -1 20 C1.84050318 20.21282289 1.84050318 20.21282289 5 19 C8.71500978 14.29834806 10.64942432 8.77064153 12 3 C12.66 3 13.32 3 14 3 C15.59112769 6.18225539 15.33732786 8.45805748 15 12 C12.64949248 18.22774656 8.97240361 22.29235678 3.86328125 26.4296875 C1.56026434 28.37059483 -0.1757015 30.61437889 -2 33 C-2.99 33.495 -2.99 33.495 -4 34 C-4.72568402 35.95108668 -4.72568402 35.95108668 -5.3125 38.25 C-6.74639148 42.67819427 -8.12808406 45.19903953 -12 48 C-17.97571587 50.54483072 -23.54650388 51.46096401 -30 51 C-30.66 50.67 -31.32 50.34 -32 50 C-32 49.34 -32 48.68 -32 48 C-32.763125 47.7525 -33.52625 47.505 -34.3125 47.25 C-37.34813868 45.83807503 -38.44504874 44.94622344 -40 42 C-40.58217339 38.0911215 -40.31074789 36.49291044 -38.1875 33.125 C-36 31 -36 31 -33 31 C-32.67 32.98 -32.34 34.96 -32 37 C-30.58376784 37.05447047 -29.16691809 37.09300508 -27.75 37.125 C-26.96109375 37.14820313 -26.1721875 37.17140625 -25.359375 37.1953125 C-22.61010274 37.11496763 -22.61010274 37.11496763 -19 35 C-19 31.37 -19 27.74 -19 24 C-15 25 -15 25 -13.515625 27.28515625 C-13.09796875 28.20167969 -12.6803125 29.11820313 -12.25 30.0625 C-11.82203125 30.98160156 -11.3940625 31.90070313 -10.953125 32.84765625 C-10.63859375 33.55792969 -10.3240625 34.26820312 -10 35 C-9.66646716 30.21936263 -10.50847281 28.00810895 -13 24 C-12.67 23.01 -12.34 22.02 -12 21 C-11.566875 21.474375 -11.13375 21.94875 -10.6875 22.4375 C-8.97690387 24.23686957 -8.97690387 24.23686957 -6 25 C-6.3403125 23.453125 -6.3403125 23.453125 -6.6875 21.875 C-7.11814784 16.53496682 -5.23044623 13.8228833 -2.3125 9.5 C-0.72734798 6.48066282 -0.84717132 4.36223104 -1 1 C-0.67 0.67 -0.34 0.34 0 0 Z " fill="#A9B8B9" transform="translate(89,76)"/>
<path d="M0 0 C1.28583984 0.12568359 1.28583984 0.12568359 2.59765625 0.25390625 C8.59931736 0.78843976 14.08421487 1.23818759 20 0 C19.93039063 1.33804688 19.93039063 1.33804688 19.859375 2.703125 C19.82328125 3.87359375 19.7871875 5.0440625 19.75 6.25 C19.70359375 7.41015625 19.6571875 8.5703125 19.609375 9.765625 C20.0850698 13.70437797 21.13139915 14.40162966 24 17 C25.484375 19.875 25.484375 19.875 26.75 23 C27.17796875 24.03125 27.6059375 25.0625 28.046875 26.125 C29 29 29 29 29 33 C28.34 33 27.68 33 27 33 C27.495 36.465 27.495 36.465 28 40 C28.99 40.33 29.98 40.66 31 41 C31.66 39.68 32.32 38.36 33 37 C33.66 37 34.32 37 35 37 C35.42159555 42.04435371 34.56596399 44.42138137 31.4375 48.375 C28.61072785 51.68621897 27.60700732 52.84567611 23.3125 53.9375 C19.25496186 52.78914015 17.80631567 51.09414292 15 48 C11.12003744 45.42510543 11.12003744 45.42510543 6.6875 45.4375 C4.73944973 46.98400251 4.73944973 46.98400251 4.0625 49.9375 C3.71401418 52.89622845 3.71401418 52.89622845 5.0625 54.625 C7.14132192 56.15200451 7.14132192 56.15200451 10.125 57.75 C13 60 13 60 13.875 63.75 C13.91625 64.8225 13.9575 65.895 14 67 C13.4328125 66.68675781 12.865625 66.37351562 12.28125 66.05078125 C9.94359244 64.97401775 8.0443974 64.51426336 5.5 64.1875 C4.7471875 64.07792969 3.994375 63.96835938 3.21875 63.85546875 C0.24039672 64.0494812 -0.94288481 64.86004796 -3 67 C-3.95539961 71.43847062 -3.50343677 75.75465642 -1.8125 79.9375 C0.23182863 82.263805 2.25527303 83.59054561 5 85 C3.515 85.495 3.515 85.495 2 86 C-0.99816485 84.22557591 -3.53540571 82.46459429 -6 80 C-6.265625 77.79296875 -6.265625 77.79296875 -6.25 75.1875 C-6.25515625 74.33542969 -6.2603125 73.48335938 -6.265625 72.60546875 C-5.97337864 69.73887578 -5.08304633 67.66165628 -4 65 C-3.58027071 62.73346181 -3.18616413 60.46208637 -2.8125 58.1875 C-1.08011889 49.82307403 2.55025855 45.54136023 9.25 40.5625 C12.5020536 37.53217732 13.05477138 35.32417469 14.21484375 31.15625 C15.37577993 27.96800735 17.44633954 26.15045091 20 24 C21.96822886 22.03177114 21.66248381 18.65191291 22 16 C20.02 16.33 18.04 16.66 16 17 C15.54503965 11.23716896 17.20900148 6.39431697 19 1 C18.38125 1.33 17.7625 1.66 17.125 2 C12.80046167 3.38385227 8.50037558 3.6805446 4 3 C1.69140625 1.48046875 1.69140625 1.48046875 0 0 Z " fill="#E1E7E6" transform="translate(52,42)"/>
<path d="M0 0 C0.680625 0.474375 1.36125 0.94875 2.0625 1.4375 C6.92537833 4.02413741 11.22044588 4.1830418 16.5625 3.375 C19.85163367 2.92873563 20.70238709 2.84442961 23.75 4.4375 C28.9017357 6.91429601 34.36972866 6.41884708 40 6 C40.33 5.67 40.66 5.34 41 5 C42.68183948 4.76712992 44.3712416 4.58735834 46.0625 4.4375 C46.98160156 4.35371094 47.90070313 4.26992188 48.84765625 4.18359375 C49.55792969 4.12300781 50.26820312 4.06242187 51 4 C51 4.66 51 5.32 51 6 C54.1542561 5.2990542 57.01746595 4.23666046 60 3 C62.98253405 1.76333954 65.8457439 0.7009458 69 0 C68.86722656 0.59167969 68.73445313 1.18335938 68.59765625 1.79296875 C68.23306007 3.42433704 67.87525602 5.05723472 67.5234375 6.69140625 C67 9 67 9 66.1875 11.625 C65.90495648 15.20388457 67.53650209 17.7803046 69 21 C69 22.32 69 23.64 69 25 C65.24623848 23.74874616 64.75926711 22.4347596 63 19 C63 18.34 63 17.68 63 17 C62.360625 16.7525 61.72125 16.505 61.0625 16.25 C59 15 59 15 58.25 12.875 C58.1675 12.25625 58.085 11.6375 58 11 C56.68 11 55.36 11 54 11 C52.82118713 14.68379022 52.78641199 18.15541573 53 22 C53.66 22.66 54.32 23.32 55 24 C55.309375 24.78375 55.61875 25.5675 55.9375 26.375 C56.84567316 28.9980269 56.84567316 28.9980269 58.4921875 30.8046875 C60.31913316 33.46464465 60.69623129 35.57564831 61.1875 38.75 C61.42533203 40.22726563 61.42533203 40.22726563 61.66796875 41.734375 C61.77753906 42.48203125 61.88710937 43.2296875 62 44 C61.04867187 44.18369141 61.04867187 44.18369141 60.078125 44.37109375 C57.80283433 44.80696091 57.80283433 44.80696091 56.75 47.0625 C56.5025 47.701875 56.255 48.34125 56 49 C55.01 48.505 55.01 48.505 54 48 C54.185625 46.205625 54.185625 46.205625 54.375 44.375 C54.40815607 37.44538127 51.26820785 30.98773847 48 25 C47.01 24.34 46.02 23.68 45 23 C45.33 18.71 45.66 14.42 46 10 C44.44152344 10.03480469 44.44152344 10.03480469 42.8515625 10.0703125 C35.82540493 10.17836827 29.3567197 10.13605493 22.5 8.421875 C19.37619312 7.89473259 16.4733282 8.09195859 13.3125 8.25 C8.74942228 8.34708676 6.22540308 8.08996331 2.6875 5.125 C0 2.43099274 0 2.43099274 0 0 Z " fill="#CBD1D1" transform="translate(26,32)"/>
<path d="M0 0 C6.86784355 0.94386277 12.19958122 2.13305415 18 6 C17.43393721 10.69023454 16.81462495 15.34500026 16 20 C15.04287109 20.19916016 15.04287109 20.19916016 14.06640625 20.40234375 C13.24011719 20.57894531 12.41382813 20.75554688 11.5625 20.9375 C10.32693359 21.19853516 10.32693359 21.19853516 9.06640625 21.46484375 C7.02338796 21.80752994 7.02338796 21.80752994 6 23 C-1.3183739 23.54442839 -6.442125 23.2789375 -13 20 C-15.79913607 20.1028779 -18.52571795 20.4484371 -21.3046875 20.79296875 C-25.1016507 21.08461955 -27.50561241 20.48697344 -31 19 C-33 16 -33 16 -32.93359375 14.0625 C-32.09392659 10.5716003 -31.53946687 8.50773352 -28.875 6 C-24.03947787 4.31807926 -19.84697315 4.38434228 -15 6 C-14.34 6.33 -13.68 6.66 -13 7 C-13.33 9.31 -13.66 11.62 -14 14 C-6.79785983 18.23762288 -1.14984473 18.26867295 7 17 C8.13770686 13.11283491 8.21103919 10.77374783 6.3125 7.25 C4.23059425 4.32407841 3.33184833 3.07095125 0 2 C0 1.34 0 0.68 0 0 Z " fill="#5FD9EC" transform="translate(60,16)"/>
<path d="M0 0 C4 1 4 1 5.80859375 3.4765625 C10.06329119 11.70027026 10.06329119 11.70027026 9.890625 15.24609375 C8.74864802 18.19620095 7.07681883 19.93935355 4.625 21.875 C-0.69069398 24.15315456 -6.26178568 24.72610093 -12 24 C-15.55821812 22.28443055 -17.43884488 21.25434674 -19.0625 17.625 C-18.98012931 14.16543081 -17.72043288 11.95914455 -16 9 C-15.34 9 -14.68 9 -14 9 C-13.67 10.32 -13.34 11.64 -13 13 C-11.58376784 13.05447047 -10.16691809 13.09300508 -8.75 13.125 C-7.56664062 13.15980469 -7.56664062 13.15980469 -6.359375 13.1953125 C-3.61010274 13.11496763 -3.61010274 13.11496763 0 11 C0 7.37 0 3.74 0 0 Z " fill="#2FBDDB" transform="translate(70,100)"/>
<path d="M0 0 C2.39519343 1.58528145 4.52862957 3.42257153 6.6875 5.3125 C7.55858398 6.04243164 7.55858398 6.04243164 8.44726562 6.78710938 C12.09144318 9.91731044 14.74939772 12.25339905 15.1953125 17.140625 C15.13020833 19.09375 15.06510417 21.046875 15 23 C12.25207517 19.59780735 9 15.51535412 9 11 C7.68 10.67 6.36 10.34 5 10 C5.165 10.515625 5.33 11.03125 5.5 11.5625 C6.17939172 14.87453462 6.36780527 17.62845168 6 21 C3.02961641 23.97038359 0.27886037 24.17931824 -3.75 24.25 C-7.83108108 24.16891892 -7.83108108 24.16891892 -9 23 C-9.04080783 21.00041636 -9.04254356 18.99954746 -9 17 C-7.33984375 18.04166667 -5.6796875 19.08333333 -4.01953125 20.125 C-1.56545876 21.18827319 0.35290082 21.14629909 3 21 C2.93999894 19.3739713 2.8512115 17.74898451 2.75 16.125 C2.70359375 15.22007813 2.6571875 14.31515625 2.609375 13.3828125 C2.25406223 10.86784486 2.25406223 10.86784486 0.15625 9.8125 C-0.5553125 9.544375 -1.266875 9.27625 -2 9 C-4.01182457 7.68457624 -6.01399663 6.3540932 -8 5 C-7.625 2.5625 -7.625 2.5625 -7 0 C-4.1678706 -1.4160647 -3.01756765 -0.96646572 0 0 Z " fill="#60DAEC" transform="translate(65,90)"/>
<path d="M0 0 C2 0.3125 2 0.3125 4 1 C5.99314007 4.98628015 5.52649665 9.66784825 5 14 C3.95213183 16.55320118 2.71403347 18.73558904 1.23046875 21.05859375 C-0.14840822 23.07949777 -0.14840822 23.07949777 -1.0625 25.9375 C-2.2676972 28.58893384 -3.44404847 28.72202424 -6 30 C-9.64375763 33.36418544 -12.22630924 37.24576924 -14.5 41.625 C-17.51110356 47.23616759 -20.47932848 50.08734307 -26.625 52.3125 C-33.33664142 53.64192128 -40.29743858 54.28016067 -46.5625 51.3125 C-50.71473158 47.37320338 -52.18086963 44.65665216 -52.5 38.9375 C-52.39251841 35.14170279 -52.29154323 34.33094097 -49.6875 31.375 C-47 30 -47 30 -44 30 C-44 30.66 -44 31.32 -44 32 C-44.61875 32.268125 -45.2375 32.53625 -45.875 32.8125 C-48.2995233 33.95556848 -48.2995233 33.95556848 -50 37 C-50.5838196 39.9149255 -50.5838196 39.9149255 -50 43 C-47.827365 45.57285724 -46.02006162 47.48996919 -43 49 C-43 49.66 -43 50.32 -43 51 C-35.04759128 51.4568405 -27.44467204 50.92412634 -20.625 46.4375 C-18.52177257 43.28265886 -17.39269418 39.9408681 -16.0625 36.40234375 C-14.19235778 32.17389718 -11.07332229 29.83182478 -7.5 27.0625 C-2.81442094 23.19689728 0.87199966 18.71200092 3 13 C3.22806869 9.98056886 3.18124535 7.02075591 3 4 C2.34 4 1.68 4 1 4 C0.67 6.31 0.34 8.62 0 11 C-0.66 10.67 -1.32 10.34 -2 10 C-1.85950482 8.52031676 -1.71245174 7.04125484 -1.5625 5.5625 C-1.48128906 4.73878906 -1.40007812 3.91507812 -1.31640625 3.06640625 C-1 1 -1 1 0 0 Z " fill="#CAD1D1" transform="translate(100,75)"/>
<path d="M0 0 C0.33 0.99 0.66 1.98 1 3 C-3.18912971 6.03350772 -7.51984278 7.01552546 -12.4765625 8.15625 C-15.15494353 9.05180774 -16.3163493 9.76058111 -18 12 C-18.7269226 15.10839021 -18.7269226 15.10839021 -19 18 C-19.66 18 -20.32 18 -21 18 C-20.21625 18.969375 -19.4325 19.93875 -18.625 20.9375 C-18.18414063 21.48277344 -17.74328125 22.02804688 -17.2890625 22.58984375 C-16.0333609 24.13266437 -16.0333609 24.13266437 -14 25 C-11.99999501 25.02034889 -9.99937323 24.99172828 -8 24.9375 C-2.93642655 24.89303393 1.51966547 25.34682509 6.43359375 26.48828125 C11.23365206 27.4453705 16.12244385 27.68153413 21 28 C15.91426536 31.39048976 11.05717726 30.05268955 5.3125 29 C0.02022627 28.04260375 -4.94362921 27.89142331 -10.30859375 28.125 C-13.29949681 27.98609013 -15.33814192 27.3520549 -18 26 C-18.33 25.34 -18.66 24.68 -19 24 C-19.845625 23.62875 -20.69125 23.2575 -21.5625 22.875 C-24 21 -24 21 -24.6875 17.3125 C-24.34079129 12.0926078 -21.70202977 8.53930319 -18 5 C-13.89363355 2.25323587 -9.88497158 1.67433523 -5 2 C-3.68 2 -2.36 2 -1 2 C-0.67 1.34 -0.34 0.68 0 0 Z " fill="#C6E2E3" transform="translate(47,14)"/>
<path d="M0 0 C3.32071541 1.65086995 6.39036208 3.77126528 9.23828125 6.14453125 C9.89828125 4.49453125 10.55828125 2.84453125 11.23828125 1.14453125 C13.21828125 1.14453125 15.19828125 1.14453125 17.23828125 1.14453125 C16.57828125 1.47453125 15.91828125 1.80453125 15.23828125 2.14453125 C14.89485676 3.47530114 14.56208251 4.80885104 14.23828125 6.14453125 C11.56379873 8.81901377 9.99576779 9.00001254 6.23828125 9.14453125 C2.86328125 7.33203125 2.86328125 7.33203125 0.23828125 5.14453125 C0.23828125 4.48453125 0.23828125 3.82453125 0.23828125 3.14453125 C-5.12951781 2.03357284 -9.29605645 1.33394928 -14.07421875 4.39453125 C-15.31923953 5.28954619 -16.55020501 6.20465736 -17.76171875 7.14453125 C-22.12403759 10.18800951 -22.12403759 10.18800951 -25.51171875 9.95703125 C-27.76171875 9.14453125 -27.76171875 9.14453125 -28.76171875 7.14453125 C-27.79234375 6.75265625 -26.82296875 6.36078125 -25.82421875 5.95703125 C-22.53309031 4.48307625 -22.53309031 4.48307625 -22.01171875 1.51953125 C-21.92921875 0.73578125 -21.84671875 -0.04796875 -21.76171875 -0.85546875 C-16.31736221 -3.57764702 -5.746373 -1.7799939 0 0 Z " fill="#C2CACA" transform="translate(69.76171875,12.85546875)"/>
<path d="M0 0 C3.85915839 0.84280471 7.19202631 2.26316036 10.3515625 4.6328125 C10.3515625 5.2928125 10.3515625 5.9528125 10.3515625 6.6328125 C11.0115625 6.6328125 11.6715625 6.6328125 12.3515625 6.6328125 C12.1659375 5.9934375 11.9803125 5.3540625 11.7890625 4.6953125 C11.6446875 4.0146875 11.5003125 3.3340625 11.3515625 2.6328125 C13.12871094 0.85566406 15.63427248 1.41830756 18.0390625 1.3828125 C24.36274586 1.45032513 27.91863724 2.52000898 32.7265625 6.6953125 C35.08665856 10.96163999 35.16851786 14.86049899 34.3515625 19.6328125 C32.5390625 22.0703125 32.5390625 22.0703125 30.3515625 23.6328125 C29.33955901 24.62066316 28.33733988 25.61878935 27.3515625 26.6328125 C27.568125 26.05273438 27.7846875 25.47265625 28.0078125 24.875 C30.02424716 19.21778054 31.54503774 14.72180725 29.2890625 8.8828125 C26.60732576 5.76853758 24.34641325 5.37761518 20.3515625 4.6328125 C17.05936822 4.46434159 17.05936822 4.46434159 14.3515625 4.6328125 C13.6915625 6.2828125 13.0315625 7.9328125 12.3515625 9.6328125 C11.73667969 9.21128906 11.12179688 8.78976563 10.48828125 8.35546875 C9.68003906 7.80761719 8.87179688 7.25976562 8.0390625 6.6953125 C7.23855469 6.15003906 6.43804687 5.60476562 5.61328125 5.04296875 C2.35903572 3.0139832 -0.34227684 2.49283347 -4.09765625 2.31640625 C-4.94521484 2.27451172 -5.79277344 2.23261719 -6.66601562 2.18945312 C-7.54708984 2.15013672 -8.42816406 2.11082031 -9.3359375 2.0703125 C-10.22861328 2.02712891 -11.12128906 1.98394531 -12.04101562 1.93945312 C-14.24333858 1.83345897 -16.44577223 1.73139199 -18.6484375 1.6328125 C-19.3084375 3.2828125 -19.9684375 4.9328125 -20.6484375 6.6328125 C-21.6384375 6.6328125 -22.6284375 6.6328125 -23.6484375 6.6328125 C-19.31650588 -3.47502794 -9.41189778 -1.30489438 0 0 Z " fill="#DEE4E3" transform="translate(66.6484375,10.3671875)"/>
<path d="M0 0 C6.86784355 0.94386277 12.19958122 2.13305415 18 6 C17.43393721 10.69023454 16.81462495 15.34500026 16 20 C14.68 19.01 13.36 18.02 12 17 C11.01 17.66 10.02 18.32 9 19 C6.87890625 19.6328125 6.87890625 19.6328125 4.5625 20.125 C3.80066406 20.29257812 3.03882813 20.46015625 2.25390625 20.6328125 C0 21 0 21 -4 21 C-4 20.34 -4 19.68 -4 19 C1.445 18.01 1.445 18.01 7 17 C8.13770686 13.11283491 8.21103919 10.77374783 6.3125 7.25 C4.23059425 4.32407841 3.33184833 3.07095125 0 2 C0 1.34 0 0.68 0 0 Z " fill="#60DAED" transform="translate(60,16)"/>
<path d="M0 0 C6.96159456 4.91406675 9.10931797 10.13564448 12 18 C12.57379076 19.23365013 13.15530078 20.46379198 13.75 21.6875 C15.29564403 25.78345668 15.71430189 29.65541837 16 34 C10.76456122 30.43038265 9.09282542 27.35298378 7.01171875 21.42578125 C6.0150061 19.03597989 5.00898286 17.61737956 3.25 15.75 C1 13 1 13 0.6875 9.625 C0.790625 8.75875 0.89375 7.8925 1 7 C0.34 6.67 -0.32 6.34 -1 6 C-1.042721 4.33388095 -1.04063832 2.66617115 -1 1 C-0.67 0.67 -0.34 0.34 0 0 Z " fill="#FEFEFE" transform="translate(81,45)"/>
<path d="M0 0 C0.680625 0.474375 1.36125 0.94875 2.0625 1.4375 C6.92537833 4.02413741 11.22044588 4.1830418 16.5625 3.375 C19.85163367 2.92873563 20.70238709 2.84442961 23.75 4.4375 C28.9017357 6.91429601 34.36972866 6.41884708 40 6 C40.33 5.67 40.66 5.34 41 5 C42.51469448 4.76807135 44.03754562 4.58784762 45.5625 4.4375 C46.38878906 4.35371094 47.21507812 4.26992188 48.06640625 4.18359375 C49.02353516 4.09271484 49.02353516 4.09271484 50 4 C49.34 5.32 48.68 6.64 48 8 C46.02 8 44.04 8 42 8 C42 8.66 42 9.32 42 10 C35.26964652 10.20815526 29.19104403 9.98552341 22.640625 8.421875 C19.46338262 7.91426823 16.52310182 8.08873689 13.3125 8.25 C8.74942228 8.34708676 6.22540308 8.08996331 2.6875 5.125 C0 2.43099274 0 2.43099274 0 0 Z " fill="#8DA9AD" transform="translate(26,32)"/>
<path d="M0 0 C3.1004615 0.01324984 5.99450399 0.20853547 9 1 C11.90884824 4.05074327 12.8742849 5.95237417 13.375 10.125 C13.00123805 12.9905083 12.77413699 14.71896673 11 17 C8.375 17.75 8.375 17.75 6 18 C5.9175 16.906875 5.835 15.81375 5.75 14.6875 C5.35832667 11.02483452 5.35832667 11.02483452 3.1875 9.1875 C1.14281205 8.07752654 -0.88955838 6.97984789 -3 6 C-2.01 4.02 -1.02 2.04 0 0 Z " fill="#A0E2E8" transform="translate(85,15)"/>
<path d="M0 0 C0.66 0 1.32 0 2 0 C1.79013855 8.45169287 -0.0557289 18.18478579 -5.5390625 24.87890625 C-7 26 -7 26 -9 26 C-9.33 26.99 -9.66 27.98 -10 29 C-10.63035156 29.28230469 -11.26070312 29.56460938 -11.91015625 29.85546875 C-14.82841839 31.45369456 -15.24135438 33.25384391 -16.4375 36.3125 C-18.39992431 40.94819582 -20.15347172 43.79455977 -24 47 C-24.495 47.495 -24.495 47.495 -25 48 C-26.85287502 48.07226502 -28.70833878 48.0838122 -30.5625 48.0625 C-31.57441406 48.05347656 -32.58632812 48.04445312 -33.62890625 48.03515625 C-34.41136719 48.02355469 -35.19382812 48.01195312 -36 48 C-33.51575624 46.7197428 -31.13042756 45.67391033 -28.5 44.6875 C-22.42106485 41.75658484 -20.23942907 36.8089875 -17.34375 30.98828125 C-15.79012763 28.68946211 -14.48754664 28.11914164 -12 27 C-11.31731862 25.67479497 -10.6492959 24.34187818 -10 23 C-9.01 22.67 -8.02 22.34 -7 22 C-6.20755154 20.31604702 -5.4270865 18.62330866 -4.7578125 16.88671875 C-4 15 -4 15 -2.375 12.125 C-0.60871308 8.11071155 -0.27984814 4.34247115 0 0 Z " fill="#E4EAE9" transform="translate(105,80)"/>
<path d="M0 0 C2 1.1875 2 1.1875 4 3 C4.5 5.375 4.5 5.375 4 8 C2.125 10.625 2.125 10.625 0 13 C-2.30671915 15.71549154 -2.30671915 15.71549154 -1.625 18.1875 C-1.41875 18.785625 -1.2125 19.38375 -1 20 C1.9042893 19.89207179 1.9042893 19.89207179 5 19 C6.69882448 16.50240018 6.69882448 16.50240018 8 14 C8.99 14 9.98 14 11 14 C9.63132735 19.17054111 6.38001596 22.17143678 2 25 C-1.86228249 25.70223318 -2.66941883 25.22038744 -6 23 C-7.29275347 19.67577678 -7.13343853 18.32025246 -5.75 15 C-4.66065402 13.13254974 -3.52205458 11.29193271 -2.3125 9.5 C-0.72734798 6.48066282 -0.84717132 4.36223104 -1 1 C-0.67 0.67 -0.34 0.34 0 0 Z " fill="#A9B8B9" transform="translate(89,76)"/>
<path d="M0 0 C2.91818979 1.78664681 5.53379245 3.5694137 8.0625 5.875 C8.0625 6.535 8.0625 7.195 8.0625 7.875 C9.3825 8.535 10.7025 9.195 12.0625 9.875 C11.7325 10.535 11.4025 11.195 11.0625 11.875 C10.25425781 11.21371094 9.44601563 10.55242187 8.61328125 9.87109375 C7.53448197 9.01743519 6.45501969 8.16461401 5.375 7.3125 C4.57932617 6.65604492 4.57932617 6.65604492 3.76757812 5.98632812 C1.05601882 3.87364081 -0.33536611 2.82868201 -3.83203125 3.09765625 C-4.52683594 3.35417969 -5.22164062 3.61070313 -5.9375 3.875 C-5.9375 5.195 -5.9375 6.515 -5.9375 7.875 C-3.15579104 9.95206482 -3.15579104 9.95206482 0.0625 11.875 C2.91656208 14.18910439 3.91624558 15.39723558 5 18.9375 C5.0625 21.875 5.0625 21.875 3.9375 23.8125 C2.0625 24.875 2.0625 24.875 -0.3125 24.8125 C-3.47438214 23.68325638 -5.50250073 22.17085645 -7.9375 19.875 C-7.9375 19.215 -7.9375 18.555 -7.9375 17.875 C-3.71837253 18.3544463 -1.14086822 19.04125119 2.0625 21.875 C1.37784668 16.97347321 1.37784668 16.97347321 -1.81640625 13.47265625 C-3.25976886 12.66447647 -4.70505634 11.8597238 -6.15234375 11.05859375 C-7.9375 9.875 -7.9375 9.875 -9.0625 7.3125 C-8.92020062 4.53766215 -8.56823179 3.12696295 -6.9375 0.875 C-4.18281406 -1.38777773 -3.37007988 -1.29066889 0 0 Z " fill="#A0E2E8" transform="translate(63.9375,87.125)"/>
<path d="M0 0 C2.07843646 2.07843646 2.4923254 3.09697754 3.375 5.8125 C4.67600269 9.48866656 6.45839099 12.02018254 9 15 C9 15.66 9 16.32 9 17 C8.34 17 7.68 17 7 17 C5.375 14.5 5.375 14.5 4 12 C2.78700745 14.1249603 2.78700745 14.1249603 2.6875 17.3125 C1.92267327 21.41475248 0.63340178 22.87283538 -2 26 C-3.01004061 29.36680203 -3.10004751 32.49833711 -3 36 C-7.24822374 35.52797514 -9.19989709 33.03344482 -12 30 C-10.35 30 -8.7 30 -7 30 C-6.6596875 29.195625 -6.6596875 29.195625 -6.3125 28.375 C-5 26 -5 26 -2.4375 23.125 C0.10613912 19.8639242 0.71022441 18.05685831 1 14 C0.4225 14.680625 -0.155 15.36125 -0.75 16.0625 C-1.4925 16.701875 -2.235 17.34125 -3 18 C-5.25 17.75 -5.25 17.75 -7 17 C-7 14.69 -7 12.38 -7 10 C-6.67 10 -6.34 10 -6 10 C-5.67 11.65 -5.34 13.3 -5 15 C-4.21625 14.34 -3.4325 13.68 -2.625 13 C0 11 0 11 2 11 C1.67 9.9275 1.34 8.855 1 7.75 C0 4 0 4 0 0 Z " fill="#CCD2D2" transform="translate(86,65)"/>
<path d="M0 0 C2.0625 2.8125 2.0625 2.8125 3 6 C2.05665124 9.39605555 1.00883067 9.99411288 -2 12 C-5.13652019 12.40211797 -6.57369764 12.25347708 -9.3125 10.625 C-9.869375 10.08875 -10.42625 9.5525 -11 9 C-11 8.34 -11 7.68 -11 7 C-9.68 6.67 -8.36 6.34 -7 6 C-7 5.34 -7 4.68 -7 4 C-8.65 3.67 -10.3 3.34 -12 3 C-12 2.34 -12 1.68 -12 1 C-7.69656144 -1.2169229 -4.65006115 -1.3777959 0 0 Z " fill="#E1E7E6" transform="translate(63,21)"/>
<path d="M0 0 C2 1 4 2 6 3 C13.03692952 3.31031855 20.0673122 3.32051196 27 2 C26.03863016 4.43614139 25.4684236 5.73459297 23.15234375 7.046875 C16.23269703 9.24358824 10.23606825 10.56024719 3.5 7.3125 C0.78322011 4.7994786 0.20196431 3.63535761 0 0 Z " fill="#34707F" transform="translate(51,115)"/>
<path d="M0 0 C0.66 0.33 1.32 0.66 2 1 C2.23828125 3.22265625 2.23828125 3.22265625 2.3125 6.0625 C2.6662045 11.10606421 3.80218952 14.17735447 6.74609375 18.24609375 C8.07914179 20.11069988 9.13235568 21.87666942 10 24 C9.67 24.66 9.34 25.32 9 26 C7.125 25.3125 7.125 25.3125 5 24 C4.28272222 22.35448038 3.61674772 20.68577711 3 19 C1.37413299 17.15242386 -0.2482184 15.82073115 -2.25 14.375 C-4.6465517 11.12253697 -4.13074318 9.00726994 -3.65234375 5.12109375 C-2.90350683 2.68625275 -1.92135591 1.62976802 0 0 Z " fill="#A9B8B9" transform="translate(75,43)"/>
<path d="M0 0 C0.66 0 1.32 0 2 0 C2.33 0.99 2.66 1.98 3 3 C3.99 3.33 4.98 3.66 6 4 C4.66327263 7.59888139 3.366066 10.95791514 1 14 C-2.0625 14.9375 -2.0625 14.9375 -5 15 C-5.66 14.34 -6.32 13.68 -7 13 C-6.71695237 9.03733314 -4.21839953 6.15953873 -2 3 C-1.34 2.01 -0.68 1.02 0 0 Z " fill="#A0E2E8" transform="translate(93,82)"/>
<path d="M0 0 C3.80960127 0.50126332 7.25000145 1.39988475 10.875 2.625 C18.18619524 4.872069 23.75101036 3.13205578 31 1 C31.99 1 32.98 1 34 1 C34.495 2.485 34.495 2.485 35 4 C33.06729418 5.93270582 29.61358612 5.62663055 27 6 C26.67 6.33 26.34 6.66 26 7 C18.6816261 7.54442839 13.557875 7.2789375 7 4 C3.28707834 4.03111387 -0.32978136 4.45795703 -4 5 C-4 4.34 -4 3.68 -4 3 C-3.01 2.67 -2.02 2.34 -1 2 C-0.67 1.34 -0.34 0.68 0 0 Z " fill="#2FBDDB" transform="translate(40,32)"/>
<path d="M0 0 C5.02690363 2.98896973 6.05868991 6.29297674 7.51953125 11.66015625 C8 14 8 14 8 17 C7.071875 17.12375 7.071875 17.12375 6.125 17.25 C3.81562433 17.81258459 3.81562433 17.81258459 2.75 20.0625 C2.5025 20.701875 2.255 21.34125 2 22 C1.34 21.67 0.68 21.34 0 21 C0.03480469 20.43152344 0.06960937 19.86304687 0.10546875 19.27734375 C0.25013471 15.1509196 0.21746084 11.90337143 -1.5625 8.125 C-3 5 -3 5 -2 2 C-1.0234375 3.79036458 -0.046875 5.58072917 0.9296875 7.37109375 C1.91410024 9.16618315 1.91410024 9.16618315 4 10 C3.49019669 6.22745547 2.79299818 4.55012877 0 2 C0 1.34 0 0.68 0 0 Z " fill="#A8B7B8" transform="translate(80,59)"/>
<path d="M0 0 C0 0.66 0 1.32 0 2 C-0.474375 2.391875 -0.94875 2.78375 -1.4375 3.1875 C-3.74665826 5.86612359 -3.67554343 8.56076032 -4 12 C0.2326065 15.4729079 3.12974399 16.61491714 8.625 16.30859375 C12.71743726 15.77684615 16.44058507 15.18548077 20 13 C21.84315033 10.48796447 23.00072186 7.94193075 24 5 C24.33 5 24.66 5 25 5 C25.45782446 8.93729039 25.35642392 10.52476811 22.9375 13.75 C16.53763416 18.6520249 8.80102722 18.89803781 1 18 C-2.77240263 16.5301387 -4.74773381 14.37839929 -7 11 C-7.50583287 7.121948 -7.29425666 5.46675195 -5.1875 2.125 C-3 0 -3 0 0 0 Z " fill="#7A9FA6" transform="translate(56,107)"/>
<path d="M0 0 C0.33 0 0.66 0 1 0 C1.061875 1.5778125 1.061875 1.5778125 1.125 3.1875 C1.98522813 6.93563687 2.75608836 8.83143081 5.875 11.140625 C9.70471049 12.68940498 13.63248269 12.21267624 17.69921875 12.046875 C21.49652264 11.99294879 24.75687176 12.63421568 28.43359375 13.48828125 C33.23365206 14.4453705 38.12244385 14.68153413 43 15 C37.91426536 18.39048976 33.05717726 17.05268955 27.3125 16 C22.02022627 15.04260375 17.05637079 14.89142331 11.69140625 15.125 C7.90598702 14.94918953 5.17198975 14.09838653 2.3828125 11.484375 C-1.04159227 6.76252494 -1.04159227 6.76252494 -0.8125 2.5625 C-0.544375 1.716875 -0.27625 0.87125 0 0 Z " fill="#D1D8D8" transform="translate(25,27)"/>
<path d="M0 0 C3.63 0 7.26 0 11 0 C11 0.66 11 1.32 11 2 C9.11740414 3.41545048 7.11886054 4.5523882 5.09375 5.75390625 C3.45822861 6.72728558 1.87341459 7.78598982 0.3125 8.875 C-2 10 -2 10 -4.75 9.8125 C-7 9 -7 9 -8 7 C-7.05125 6.5875 -6.1025 6.175 -5.125 5.75 C-1.61663189 4.1697355 -1.61663189 4.1697355 0 0 Z " fill="#9DB2B4" transform="translate(49,13)"/>
<path d="M0 0 C0.99 0 1.98 0 3 0 C2.55530671 5.03985731 0.28656638 7.37634988 -3 11 C-5.97 10.01 -8.94 9.02 -12 8 C-11 5 -11 5 -8.75 3.8671875 C-7.8425 3.53976563 -6.935 3.21234375 -6 2.875 C-2.74148734 1.86260057 -2.74148734 1.86260057 0 0 Z " fill="#A0B3B5" transform="translate(92,32)"/>
<path d="M0 0 C3.85915839 0.84280471 7.19202631 2.26316036 10.3515625 4.6328125 C10.3515625 5.2928125 10.3515625 5.9528125 10.3515625 6.6328125 C11.3415625 6.3028125 12.3315625 5.9728125 13.3515625 5.6328125 C13.0215625 6.9528125 12.6915625 8.2728125 12.3515625 9.6328125 C11.73667969 9.21128906 11.12179688 8.78976563 10.48828125 8.35546875 C9.68003906 7.80761719 8.87179688 7.25976562 8.0390625 6.6953125 C7.23855469 6.15003906 6.43804687 5.60476562 5.61328125 5.04296875 C2.35903572 3.0139832 -0.34227684 2.49283347 -4.09765625 2.31640625 C-4.94521484 2.27451172 -5.79277344 2.23261719 -6.66601562 2.18945312 C-7.54708984 2.15013672 -8.42816406 2.11082031 -9.3359375 2.0703125 C-10.22861328 2.02712891 -11.12128906 1.98394531 -12.04101562 1.93945312 C-14.24333858 1.83345897 -16.44577223 1.73139199 -18.6484375 1.6328125 C-19.3084375 3.2828125 -19.9684375 4.9328125 -20.6484375 6.6328125 C-21.6384375 6.6328125 -22.6284375 6.6328125 -23.6484375 6.6328125 C-19.31650588 -3.47502794 -9.41189778 -1.30489438 0 0 Z " fill="#E4EAE9" transform="translate(66.6484375,10.3671875)"/>
<path d="M0 0 C0.99 0 1.98 0 3 0 C1.63222425 5.16715282 -1.61889455 8.17683076 -6 11 C-8.8125 11.5 -8.8125 11.5 -11 11 C-11.66 10.34 -12.32 9.68 -13 9 C-12.625 6.875 -12.625 6.875 -12 5 C-10.906875 5.226875 -9.81375 5.45375 -8.6875 5.6875 C-5.14210047 6.38115685 -5.14210047 6.38115685 -3.1875 4.75 C-2.11683433 3.17217691 -1.05769716 1.58654575 0 0 Z " fill="#779DA4" transform="translate(97,90)"/>
<path d="M0 0 C1.32 0.33 2.64 0.66 4 1 C4.37650602 5.51807229 4.37650602 5.51807229 2.4375 8 C0.68442897 9.96669278 0.68442897 9.96669278 1.3125 12.75 C1.539375 13.4925 1.76625 14.235 2 15 C5.465 14.505 5.465 14.505 9 14 C6.33333333 15.33333333 3.66666667 16.66666667 1 18 C-0.515625 16.76953125 -0.515625 16.76953125 -2 15 C-2.109375 12.94921875 -2.109375 12.94921875 -1.75 10.6875 C-1.63269531 9.89859375 -1.51539062 9.1096875 -1.39453125 8.296875 C-1.26433594 7.53890625 -1.13414063 6.7809375 -1 6 C-0.814375 4.824375 -0.62875 3.64875 -0.4375 2.4375 C-0.293125 1.633125 -0.14875 0.82875 0 0 Z " fill="#A0E2E8" transform="translate(78,21)"/>
<path d="M0 0 C2 0.3125 2 0.3125 4 1 C5.95907329 4.91814658 5.36124833 9.71920726 5 14 C3.5 17.6875 3.5 17.6875 2 20 C1.34 19.67 0.68 19.34 0 19 C0.495 18.195625 0.99 17.39125 1.5 16.5625 C3.34527349 12.17997546 3.28061086 8.67684769 3 4 C2.34 4 1.68 4 1 4 C0.67 6.31 0.34 8.62 0 11 C-0.66 10.67 -1.32 10.34 -2 10 C-1.85950482 8.52031676 -1.71245174 7.04125484 -1.5625 5.5625 C-1.48128906 4.73878906 -1.40007812 3.91507812 -1.31640625 3.06640625 C-1 1 -1 1 0 0 Z " fill="#CCD2D2" transform="translate(100,75)"/>
<path d="M0 0 C-0.625 1.9375 -0.625 1.9375 -2 4 C-7.2453626 5.61395772 -13.54699974 5.50506596 -19 5 C-19.99 4.34 -20.98 3.68 -22 3 C-21.14535156 2.93941406 -20.29070313 2.87882812 -19.41015625 2.81640625 C-18.30542969 2.73261719 -17.20070313 2.64882813 -16.0625 2.5625 C-14.96035156 2.48128906 -13.85820313 2.40007813 -12.72265625 2.31640625 C-10.08890097 2.29581916 -10.08890097 2.29581916 -9 1 C-2.88888889 0 -2.88888889 0 0 0 Z " fill="#69939C" transform="translate(76,36)"/>
<path d="M0 0 C2.16015625 1.1015625 2.16015625 1.1015625 5.09765625 3.0390625 C2.1541886 4.51079633 0.36446519 3.44917283 -2.77734375 2.6015625 C-9.26794354 1.00966512 -15.25040532 0.71545468 -21.90234375 1.0390625 C-21.90234375 0.3790625 -21.90234375 -0.2809375 -21.90234375 -0.9609375 C-16.42362997 -3.70029439 -5.73455454 -1.89865467 0 0 Z " fill="#CCD2D2" transform="translate(69.90234375,12.9609375)"/>
<path d="M0 0 C0.66 0 1.32 0 2 0 C4.28977241 3.14843706 6.57041857 6.36106546 8 10 C7.67 10.66 7.34 11.32 7 12 C3.86501824 10.91897181 3.0131441 10.02159388 1.25 7.125 C0 4 0 4 0 0 Z " fill="#7A9FA6" transform="translate(77,57)"/>
<path d="M0 0 C0 0.66 0 1.32 0 2 C-0.928125 2.4021875 -0.928125 2.4021875 -1.875 2.8125 C-4.2995233 3.95556848 -4.2995233 3.95556848 -6 7 C-6.50707684 11.66510697 -5.69148306 14.18706566 -3 18 C-6.875 16.25 -6.875 16.25 -8 14 C-8.4127541 10.61541639 -8.4957372 7.37755015 -8 4 C-5.27352617 0.90508376 -4.13517267 0 0 0 Z " fill="#AFBDBD" transform="translate(56,105)"/>
<path d="M0 0 C1.32 0 2.64 0 4 0 C3.67 2.31 3.34 4.62 3 7 C1.68 7 0.36 7 -1 7 C-0.67 4.69 -0.34 2.38 0 0 Z " fill="#FEFEFE" transform="translate(74,72)"/>
<path d="M0 0 C-0.625 2.4375 -0.625 2.4375 -2 5 C-5.125 5.8125 -5.125 5.8125 -8 6 C-8.66 5.01 -9.32 4.02 -10 3 C-9.05125 2.690625 -8.1025 2.38125 -7.125 2.0625 C-1.05882353 0 -1.05882353 0 0 0 Z " fill="#57D5EA" transform="translate(96,91)"/>
<path d="M0 0 C0.66 0 1.32 0 2 0 C2 2.97 2 5.94 2 9 C0.68 8.67 -0.64 8.34 -2 8 C-1.125 1.125 -1.125 1.125 0 0 Z " fill="#7A9FA6" transform="translate(74,46)"/>
<path d="M0 0 C2.22023926 2.22023926 2.99988963 3.98529101 4.1875 6.875 C4.55230469 7.73867187 4.91710937 8.60234375 5.29296875 9.4921875 C6.04664008 12.16543056 5.9388856 13.42852989 5 16 C1.91532502 10.60540561 0.44356295 6.20988129 0 0 Z " fill="#CCD2D2" transform="translate(75,59)"/>
<path d="M0 0 C2.3125 0.1875 2.3125 0.1875 5 1 C6.8125 3.5625 6.8125 3.5625 8 6 C2.33846154 4.52307692 2.33846154 4.52307692 0.625 1.875 C0.41875 1.25625 0.2125 0.6375 0 0 Z " fill="#A2B4B6" transform="translate(70,16)"/>
<path d="M0 0 C0.33 0 0.66 0 1 0 C1.185625 1.175625 1.185625 1.175625 1.375 2.375 C1.79117993 5.14057822 1.79117993 5.14057822 4 7 C2.35 7.33 0.7 7.66 -1 8 C-1.125 2.25 -1.125 2.25 0 0 Z " fill="#E4EAE9" transform="translate(69,51)"/>
<path d="M0 0 C0.33 0.66 0.66 1.32 1 2 C1.66 2.33 2.32 2.66 3 3 C-0.08888522 5.05925681 -0.70935927 5.2390374 -4.1875 5.125 C-6.0746875 5.063125 -6.0746875 5.063125 -8 5 C-8 4.67 -8 4.34 -8 4 C-6.865625 3.71125 -5.73125 3.4225 -4.5625 3.125 C-3.386875 2.75375 -2.21125 2.3825 -1 2 C-0.67 1.34 -0.34 0.68 0 0 Z " fill="#A9B8B9" transform="translate(76,36)"/>
<path d="M0 0 C0.99 0.66 1.98 1.32 3 2 C0.03 4.475 0.03 4.475 -3 7 C-3 3.48283697 -2.17554415 2.62878252 0 0 Z " fill="#DAE0E0" transform="translate(29,19)"/>
</svg>
