<?xml version="1.0" encoding="UTF-8"?>
<svg version="1.1" xmlns="http://www.w3.org/2000/svg" width="128" height="128">
<path d="M0 0 C42.24 0 84.48 0 128 0 C128 42.24 128 84.48 128 128 C85.76 128 43.52 128 0 128 C0 85.76 0 43.52 0 0 Z " fill="#E34D3A" transform="translate(0,0)"/>
<path d="M0 0 C2.14968908 1.38689618 2.75229925 2.26502442 3.55810547 4.65600586 C4.16549525 7.87785631 4.12998161 10.97512597 4.1328125 14.25390625 C4.13479141 15.33626556 4.13479141 15.33626556 4.1368103 16.44049072 C4.1387359 18.81453654 4.13235776 21.18846599 4.125 23.5625 C4.12367065 24.77696304 4.12367065 24.77696304 4.12231445 26.01596069 C4.09974173 43.6880174 3.60785273 61.33970735 3 79 C15.87 79.495 15.87 79.495 29 80 C30.78384225 84.45960563 31.27302703 86.53110851 31.25 91.125 C31.25773437 92.67574219 31.25773437 92.67574219 31.265625 94.2578125 C31 97 31 97 29 100 C26.40814209 100.39440918 26.40814209 100.39440918 23.08496094 100.41992188 C21.2222757 100.44378967 21.2222757 100.44378967 19.32196045 100.46813965 C17.95943254 100.46940726 16.59690324 100.46958354 15.234375 100.46875 C13.83912854 100.47585013 12.44388502 100.48354891 11.04864502 100.49182129 C8.11974995 100.50528604 5.19112443 100.50682751 2.26220703 100.50097656 C-1.48181269 100.49509691 -5.22452821 100.5255877 -8.96829605 100.56609344 C-11.85264997 100.59202217 -14.73669277 100.59484294 -17.62114716 100.59120178 C-19.00060029 100.59289015 -20.38006824 100.60250562 -21.75940704 100.62034607 C-33.89328584 100.75993843 -33.89328584 100.75993843 -37.74755859 97.70556641 C-39.56383811 95.52390484 -41.10205693 93.6562977 -42.3359375 91.1171875 C-42.67753906 90.42496094 -43.01914062 89.73273438 -43.37109375 89.01953125 C-43.70238281 88.31183594 -44.03367187 87.60414062 -44.375 86.875 C-44.72949219 86.15957031 -45.08398438 85.44414063 -45.44921875 84.70703125 C-46.92748745 81.65346462 -48 79.43338875 -48 76 C-48.66 76 -49.32 76 -50 76 C-52.80522776 65.09240965 -55.35858389 54.15722823 -57.625 43.125 C-57.8522879 42.01945267 -57.8522879 42.01945267 -58.08416748 40.89157104 C-59.83493812 32.32101362 -61.56373764 23.75077526 -62.625 15.0625 C-62.71861816 14.3607666 -62.81223633 13.6590332 -62.90869141 12.93603516 C-63.19204584 10.14337992 -63.33107931 8.48257318 -61.7109375 6.12109375 C-57.87194233 3.60558778 -53.95233087 3.83465176 -49.54296875 3.7890625 C-48.02147458 3.76094175 -46.49999038 3.73227712 -44.97851562 3.703125 C-42.60067599 3.66230789 -40.22301199 3.62539972 -37.8449707 3.59863281 C-28.53787189 3.4850002 -19.95081911 2.92351515 -10.88085938 0.67089844 C-7.03650486 -0.22438005 -3.92198387 -0.44399817 0 0 Z " fill="#F9F9F8" transform="translate(85,8)"/>
<path d="M0 0 C0 38.28 0 76.56 0 116 C-10.4137931 116 -10.4137931 116 -14.5 115.625 C-15.3353125 115.55539063 -16.170625 115.48578125 -17.03125 115.4140625 C-18.00578125 115.20910156 -18.00578125 115.20910156 -19 115 C-19.495 114.01 -19.495 114.01 -20 113 C-17.525 112.505 -17.525 112.505 -15 112 C-15.495 111.01 -15.495 111.01 -16 110 C-14.515 109.505 -14.515 109.505 -13 109 C-11.82299952 104.37540756 -11.88591588 99.92133538 -11.9375 95.1875 C-11.94201172 94.39923828 -11.94652344 93.61097656 -11.95117188 92.79882812 C-11.96288688 90.86585239 -11.98082002 88.93291607 -12 87 C-15.34657205 86.24475406 -18.40036839 85.88812055 -21.828125 85.9375 C-23.15070313 85.94910156 -23.15070313 85.94910156 -24.5 85.9609375 C-25.86125 85.98027344 -25.86125 85.98027344 -27.25 86 C-29.06765045 86.02538618 -30.88536804 86.04646097 -32.703125 86.0625 C-33.90437012 86.07990234 -33.90437012 86.07990234 -35.12988281 86.09765625 C-37 86 -37 86 -38 85 C-38.10485021 81.84524216 -38.14014891 78.71753165 -38.125 75.5625 C-38.12306641 74.59127197 -38.12113281 73.62004395 -38.11914062 72.61938477 C-38.06897873 63.82921022 -37.75572301 55.05430424 -37.35595703 46.27368164 C-36.58772686 31.59044823 -36.58772686 31.59044823 -37.9375 17 C-38.11152344 15.96875 -38.28554687 14.9375 -38.46484375 13.875 C-38.81896941 11.9725439 -39.2066176 10.07599583 -39.62890625 8.1875 C-39.75136719 7.465625 -39.87382813 6.74375 -40 6 C-37.88903871 3.88903871 -33.43603071 4.39613434 -30.5 4.125 C-23.16841089 3.42793928 -23.16841089 3.42793928 -16.125 1.375 C-12 0 -12 0 0 0 Z " fill="#E34D3A" transform="translate(128,0)"/>
<path d="M0 0 C1.29330231 -0.00388229 1.29330231 -0.00388229 2.61273193 -0.00784302 C4.98926169 -0.01358901 7.36565751 -0.01221938 9.7421875 -0.0078125 C11.01690918 -0.00668457 12.29163086 -0.00555664 13.60498047 -0.00439453 C17.17441058 0.12681631 20.60119477 0.55478116 24.125 1.125 C24.125 4.425 24.125 7.725 24.125 11.125 C-18.115 11.125 -60.355 11.125 -103.875 11.125 C-103.875 2.125 -103.875 2.125 -102.875 1.125 C-100.7109833 1.0006818 -98.54290155 0.94693618 -96.37548828 0.91967773 C-95.69261183 0.9097838 -95.00973537 0.89988987 -94.3061657 0.88969612 C-92.01925069 0.8578571 -89.73231616 0.8331788 -87.4453125 0.80859375 C-85.83593269 0.78788172 -84.22655769 0.76679233 -82.6171875 0.74534607 C-78.30279753 0.68934495 -73.98835636 0.63995859 -69.67386627 0.59236908 C-67.01121905 0.56262533 -64.34859602 0.53125391 -61.68597412 0.49932861 C-41.12467174 0.25344362 -20.56292175 0.02857601 0 0 Z " fill="#74760A" transform="translate(103.875,116.875)"/>
<path d="M0 0 C1.52177815 0.21234114 3.04255301 0.4335578 4.55859375 0.68359375 C8.97914168 1.25649676 13.44069479 1.3966874 17.890625 1.62109375 C21 2 21 2 24 4 C24.36749268 6.3217926 24.36749268 6.3217926 24.35644531 9.26000977 C24.35944641 10.35777237 24.36244751 11.45553497 24.36553955 12.58656311 C24.35319275 13.77616135 24.34084595 14.96575958 24.328125 16.19140625 C24.32625183 17.40698715 24.32437866 18.62256805 24.32244873 19.87498474 C24.31571676 22.44817847 24.30177979 25.02136178 24.28125 27.59448242 C24.25010307 31.54941228 24.24028209 35.50394406 24.234375 39.45898438 C24.22520531 41.9531299 24.21482965 44.44727134 24.203125 46.94140625 C24.19887512 48.13302872 24.19462524 49.32465118 24.19024658 50.55238342 C24.18063904 51.64699387 24.17103149 52.74160431 24.16113281 53.86938477 C24.15430481 54.83820084 24.14747681 55.80701691 24.14044189 56.80519104 C24 59 24 59 23 60 C17.45781799 60.60672308 12.56178482 60.47564558 8 57 C6.5779177 54.43331488 5.77605225 51.82028746 5 49 C4.67644531 47.97648437 4.35289063 46.95296875 4.01953125 45.8984375 C2.66273493 41.13882149 2.08561871 36.27189692 1.4375 31.375 C1.18744986 29.52847587 0.93618687 27.68211549 0.68359375 25.8359375 C0.52201782 24.62236572 0.52201782 24.62236572 0.35717773 23.38427734 C0.10864078 21.72521251 -0.19273601 20.07356404 -0.53442383 18.43115234 C-1.18347482 15.04192855 -1.14486276 11.6862571 -1.125 8.25 C-1.13080078 7.22326172 -1.13080078 7.22326172 -1.13671875 6.17578125 C-1.12672061 1.12672061 -1.12672061 1.12672061 0 0 Z " fill="#E34D3A" transform="translate(45,30)"/>
<path d="M0 0 C2.14968908 1.38689618 2.75229925 2.26502442 3.55810547 4.65600586 C4.16549525 7.87785631 4.12998161 10.97512597 4.1328125 14.25390625 C4.13479141 15.33626556 4.13479141 15.33626556 4.1368103 16.44049072 C4.1387359 18.81453654 4.13235776 21.18846599 4.125 23.5625 C4.12367065 24.77696304 4.12367065 24.77696304 4.12231445 26.01596069 C4.09974173 43.6880174 3.60785273 61.33970735 3 79 C15.87 79.495 15.87 79.495 29 80 C30.78384225 84.45960563 31.27302703 86.53110851 31.25 91.125 C31.25773437 92.67574219 31.25773437 92.67574219 31.265625 94.2578125 C31 97 31 97 29 100 C26.40814209 100.39440918 26.40814209 100.39440918 23.08496094 100.41992188 C21.2222757 100.44378967 21.2222757 100.44378967 19.32196045 100.46813965 C17.95943254 100.46940726 16.59690324 100.46958354 15.234375 100.46875 C13.83912854 100.47585013 12.44388502 100.48354891 11.04864502 100.49182129 C8.11974995 100.50528604 5.19112443 100.50682751 2.26220703 100.50097656 C-1.48181269 100.49509691 -5.22452821 100.5255877 -8.96829605 100.56609344 C-11.85264997 100.59202217 -14.73669277 100.59484294 -17.62114716 100.59120178 C-19.00060029 100.59289015 -20.38006824 100.60250562 -21.75940704 100.62034607 C-33.8965474 100.75997595 -33.8965474 100.75997595 -37.77246094 97.62695312 C-39.87962604 95.1419579 -41.66782525 92.97780237 -43 90 C-42.505 88.515 -42.505 88.515 -42 87 C-40.82739389 88.28627711 -39.6620717 89.57919783 -38.5 90.875 C-37.52546875 91.95394531 -37.52546875 91.95394531 -36.53125 93.0546875 C-35 95 -35 95 -35 97 C-33.97095802 96.99666908 -33.97095802 96.99666908 -32.92112732 96.99327087 C-25.7670036 96.9711102 -18.61288967 96.95604839 -11.45874023 96.94506836 C-8.79042633 96.94061239 -6.12216627 96.9332276 -3.45385742 96.92456055 C0.38623736 96.91240156 4.22629569 96.90675026 8.06640625 96.90234375 C9.84961021 96.89460182 9.84961021 96.89460182 11.6688385 96.88670349 C17.22097445 96.88632928 22.53358856 96.99695689 28 98 C27.91621094 97.34773438 27.83242187 96.69546875 27.74609375 96.0234375 C27.64425781 95.14945312 27.54242188 94.27546875 27.4375 93.375 C27.28087891 92.08722656 27.28087891 92.08722656 27.12109375 90.7734375 C26.9873794 87.71094753 27.45959359 85.00953602 28 82 C27.25314941 82.00523682 26.50629883 82.01047363 25.73681641 82.01586914 C22.36621943 82.03660401 18.99563586 82.04964899 15.625 82.0625 C14.449375 82.07087891 13.27375 82.07925781 12.0625 82.08789062 C10.94101563 82.09111328 9.81953125 82.09433594 8.6640625 82.09765625 C7.62717285 82.10289307 6.5902832 82.10812988 5.52197266 82.11352539 C3 82 3 82 1 81 C1.00444122 80.05230743 1.00888245 79.10461487 1.01345825 78.12820435 C1.05394611 69.21085896 1.08395633 60.29353214 1.10362434 51.3761158 C1.11407566 46.79123234 1.12825935 42.20642289 1.15087891 37.62158203 C1.17255936 33.19957626 1.18455846 28.77764181 1.18975449 24.35558701 C1.19345889 22.66582999 1.20069237 20.97607702 1.21146011 19.28635025 C1.22591143 16.92535111 1.22798064 14.5646493 1.22705078 12.20361328 C1.23783661 11.14841492 1.23783661 11.14841492 1.24884033 10.07189941 C1.33795685 6.09121024 1.33795685 6.09121024 -1 3 C-4.16427327 3.2751542 -7.18914293 3.8337631 -10.29833984 4.47119141 C-20.37756004 6.38426548 -30.5256437 6.6810143 -40.75 7.125 C-42.62242625 7.21158431 -44.49482255 7.29881889 -46.3671875 7.38671875 C-50.91114797 7.59864015 -55.45542241 7.80177228 -60 8 C-58.20293047 19.84248164 -56.20833283 31.6224475 -53.89282227 43.37475586 C-53.43013025 45.7249336 -52.97352708 48.07624004 -52.51757812 50.42773438 C-52.21909995 51.95579756 -51.92028466 53.48379495 -51.62109375 55.01171875 C-51.48771103 55.69828049 -51.35432831 56.38484222 -51.21690369 57.09220886 C-50.53768207 60.52616377 -49.77984097 63.92310076 -48.90649414 67.31176758 C-48.14261063 70.41976332 -47.80219135 72.83506162 -48 76 C-48.66 76 -49.32 76 -50 76 C-52.80522776 65.09240965 -55.35858389 54.15722823 -57.625 43.125 C-57.8522879 42.01945267 -57.8522879 42.01945267 -58.08416748 40.89157104 C-59.83493812 32.32101362 -61.56373764 23.75077526 -62.625 15.0625 C-62.71861816 14.3607666 -62.81223633 13.6590332 -62.90869141 12.93603516 C-63.19204584 10.14337992 -63.33107931 8.48257318 -61.7109375 6.12109375 C-57.87194233 3.60558778 -53.95233087 3.83465176 -49.54296875 3.7890625 C-48.02147458 3.76094175 -46.49999038 3.73227712 -44.97851562 3.703125 C-42.60067599 3.66230789 -40.22301199 3.62539972 -37.8449707 3.59863281 C-28.53787189 3.4850002 -19.95081911 2.92351515 -10.88085938 0.67089844 C-7.03650486 -0.22438005 -3.92198387 -0.44399817 0 0 Z " fill="#E8BDB4" transform="translate(85,8)"/>
<path d="M0 0 C18.15 0 36.3 0 55 0 C54.67 0.66 54.34 1.32 54 2 C45.56663353 4.77134213 36.8185032 5.58144584 28 6 C28.13277344 6.54527344 28.26554687 7.09054688 28.40234375 7.65234375 C31.65659831 21.54824826 31.14696318 35.2524765 30.5 49.4375 C29.99620921 61.29861905 29.89295652 73.13006703 30 85 C30.60996826 84.98952637 31.21993652 84.97905273 31.84838867 84.96826172 C34.62805007 84.92653379 37.40764539 84.90062078 40.1875 84.875 C41.14720703 84.85824219 42.10691406 84.84148437 43.09570312 84.82421875 C44.02705078 84.81777344 44.95839844 84.81132813 45.91796875 84.8046875 C46.77156982 84.79421387 47.6251709 84.78374023 48.50463867 84.77294922 C51 85 51 85 56 87 C56 92.61 56 98.22 56 104 C54 102 54 102 53.83984375 99.46875 C53.87207031 98.4890625 53.90429688 97.509375 53.9375 96.5 C54.17122299 92.59995188 54.17122299 92.59995188 53 89 C52.28344238 88.97494385 51.56688477 88.9498877 50.82861328 88.92407227 C47.59388486 88.80830249 44.35946159 88.68549031 41.125 88.5625 C39.99707031 88.52318359 38.86914062 88.48386719 37.70703125 88.44335938 C36.63066406 88.40146484 35.55429688 88.35957031 34.4453125 88.31640625 C33.45031738 88.27974854 32.45532227 88.24309082 31.43017578 88.20532227 C29 88 29 88 27 87 C27.00444122 86.10908157 27.00888245 85.21816315 27.01345825 84.30024719 C27.05355377 75.89889798 27.08399399 67.49758097 27.10362434 59.09615803 C27.1140558 54.77703579 27.12820337 50.4579927 27.15087891 46.13891602 C27.17263001 41.96976634 27.18457343 37.80069275 27.18975449 33.63149071 C27.19344617 32.04190054 27.2006551 30.45231446 27.21146011 28.86275673 C27.22600526 26.63408069 27.22797669 24.40571792 27.22705078 22.17700195 C27.231492 20.90903275 27.23593323 19.64106354 27.24050903 18.33467102 C26.99149406 14.8820647 26.54730639 11.54730639 24 9 C18.92205413 8.60172974 14.76461335 9.24354461 9.828125 10.4765625 C1.2030314 12.37389201 -7.2606834 12.52528363 -16.0625 12.625 C-18.41362945 12.66172507 -20.76460471 12.70239096 -23.11558533 12.74765015 C-24.56240092 12.7744934 -26.00932915 12.79600515 -27.45631409 12.81118774 C-31.08759912 12.86806655 -34.4660325 13.14904828 -38 14 C-37.9278125 14.60585937 -37.855625 15.21171875 -37.78125 15.8359375 C-37.1075063 21.91834595 -36.88286637 27.88302138 -37 34 C-37.33 34 -37.66 34 -38 34 C-38.33868777 31.79248152 -38.67071689 29.58394089 -39 27.375 C-39.185625 26.14523438 -39.37125 24.91546875 -39.5625 23.6484375 C-39.95905839 20.34142376 -40.3112972 17.31726079 -40 14 C-37 12 -37 12 -34 12 C-34 11.34 -34 10.68 -34 10 C-33.07364746 9.98541748 -32.14729492 9.97083496 -31.19287109 9.95581055 C-27.68484685 9.89397108 -24.17750817 9.81968756 -20.66992188 9.73754883 C-19.1651365 9.7047317 -17.66024075 9.67657264 -16.15527344 9.65356445 C0.31063826 10.05080035 0.31063826 10.05080035 14.88134766 4.3972168 C15.25050293 3.93613525 15.6196582 3.47505371 16 3 C14.64455078 2.92652344 14.64455078 2.92652344 13.26171875 2.8515625 C11.49248047 2.73941406 11.49248047 2.73941406 9.6875 2.625 C8.51574219 2.55539062 7.34398437 2.48578125 6.13671875 2.4140625 C3 2 3 2 0 0 Z " fill="#DA6C5D" transform="translate(61,0)"/>
<path d="M0 0 C0.79398193 0.00531738 1.58796387 0.01063477 2.40600586 0.01611328 C3.21223389 0.01885254 4.01846191 0.0215918 4.84912109 0.02441406 C11.43545828 0.13854838 17.87511985 0.82023356 24.03100586 3.32861328 C25.37150112 6.00960381 25.15081106 8.06172534 25.14453125 11.06347656 C25.14445572 12.26457062 25.14438019 13.46566467 25.14430237 14.70315552 C25.13914108 16.0052597 25.1339798 17.30736389 25.12866211 18.64892578 C25.12679724 19.99128161 25.12537366 21.33363812 25.12437439 22.67599487 C25.12055464 26.21057003 25.11072898 29.74510415 25.09967041 33.27966309 C25.08944464 36.88581792 25.08487427 40.49197938 25.07983398 44.09814453 C25.06910624 51.17498424 25.05203631 58.25179609 25.03100586 65.32861328 C19.12686621 67.85878105 14.30141408 67.48689702 8.03100586 66.32861328 C3.21180444 64.0194126 1.9070444 60.40399263 0.05200195 55.64770508 C-2.16668533 48.43511456 -3.04704453 40.9016465 -4.15649414 33.45361328 C-4.54471408 30.92235182 -4.93625009 28.39162597 -5.32893372 25.86105347 C-5.57048282 24.29672882 -5.80882936 22.73190529 -6.04350281 21.16653442 C-6.54694544 17.83875427 -7.11069438 14.58295938 -7.96899414 11.32861328 C-8.08190919 9.78981747 -8.14359381 8.24649239 -8.15649414 6.70361328 C-8.17067383 5.92759766 -8.18485352 5.15158203 -8.19946289 4.35205078 C-7.64710794 -0.49743846 -4.0396425 0.04979125 0 0 Z M-2.96899414 3.32861328 C-5.16056711 5.52018625 -4.21650404 9.89346619 -4.22436523 12.84570312 C-4.12390766 20.16888984 -2.76494202 27.16811876 -1.3449707 34.33007812 C-0.78719605 37.29497638 -0.3832905 40.27826411 0.03100586 43.26611328 C1.16840641 53.39632096 1.16840641 53.39632096 6.59350586 61.39111328 C7.39788086 61.70048828 8.20225586 62.00986328 9.03100586 62.32861328 C9.69100586 62.65861328 10.35100586 62.98861328 11.03100586 63.32861328 C12.54945788 63.4233424 14.0721097 63.45849738 15.59350586 63.45361328 C16.39916992 63.45619141 17.20483398 63.45876953 18.03491211 63.46142578 C20.03042607 63.54872719 20.03042607 63.54872719 21.03100586 62.32861328 C21.14026931 60.6210572 21.18007988 58.90900385 21.19213867 57.19799805 C21.20174622 56.1033876 21.21135376 55.00877716 21.22125244 53.8809967 C21.22550232 52.68937424 21.2297522 51.49775177 21.23413086 50.27001953 C21.24268097 48.44808327 21.24268097 48.44808327 21.25140381 46.58934021 C21.26087053 44.01440304 21.26739439 41.43945366 21.27124023 38.86450195 C21.28095558 34.91157069 21.31196814 30.95915694 21.34350586 27.00634766 C21.35003441 24.51090805 21.35528546 22.01546471 21.35913086 19.52001953 C21.37147766 18.3304213 21.38382446 17.14082306 21.39654541 15.91517639 C21.39354431 14.81741379 21.39054321 13.71965118 21.38745117 12.58862305 C21.3910968 11.61901138 21.39474243 10.64939972 21.39849854 9.65040588 C21.21658966 8.50111855 21.21658966 8.50111855 21.03100586 7.32861328 C17.4693486 4.95417511 15.51552551 4.97965665 11.28100586 4.76611328 C3.46547877 4.32159002 3.46547877 4.32159002 -0.28149414 3.70361328 C-1.16836914 3.57986328 -2.05524414 3.45611328 -2.96899414 3.32861328 Z " fill="#EED8D1" transform="translate(47.968994140625,26.67138671875)"/>
<path d="M0 0 C1.80539497 -0.0100985 1.80539497 -0.0100985 3.64726257 -0.020401 C9.1085149 -0.02495842 14.32194764 0.10752765 19.69921875 1.08984375 C20.19421875 3.06984375 20.19421875 3.06984375 20.69921875 5.08984375 C2.59753346 6.01340393 -15.47190235 6.24869929 -33.59155273 6.22021484 C-37.24005565 6.21454491 -40.88848506 6.21788619 -44.5369854 6.22366714 C-63.81263029 6.24931617 -83.04014948 5.87279951 -102.30078125 5.08984375 C-102.30078125 2.08984375 -102.30078125 2.08984375 -101.30078125 1.08984375 C-98.84295716 0.9646974 -96.41185843 0.90378742 -93.95239258 0.88452148 C-92.79550682 0.86967209 -92.79550682 0.86967209 -91.61524963 0.85452271 C-89.03780247 0.82269784 -86.46033827 0.79801006 -83.8828125 0.7734375 C-82.07280547 0.75282781 -80.26280282 0.7318304 -78.45280457 0.71046448 C-74.63010221 0.66635265 -70.80738369 0.62549795 -66.98461914 0.5871582 C-62.17853313 0.53891694 -57.37253213 0.48514406 -52.56653023 0.42920494 C-35.04497442 0.22579227 -17.52273543 0.05135632 0 0 Z " fill="#2E4622" transform="translate(107.30078125,118.91015625)"/>
<path d="M0 0 C0.80566406 0.00322266 1.61132812 0.00644531 2.44140625 0.00976562 C3.70404297 0.02233398 3.70404297 0.02233398 4.9921875 0.03515625 C5.84167969 0.03966797 6.69117187 0.04417969 7.56640625 0.04882812 C9.66669659 0.06062751 11.7669508 0.07856319 13.8671875 0.09765625 C14.1971875 0.75765625 14.5271875 1.41765625 14.8671875 2.09765625 C12.7645169 2.46059939 10.65997693 2.81272597 8.5546875 3.16015625 C7.38292969 3.35738281 6.21117188 3.55460938 5.00390625 3.7578125 C1.8671875 4.09765625 1.8671875 4.09765625 -1.1328125 3.09765625 C-0.9208725 3.66893753 -0.7089325 4.24021881 -0.49057007 4.82881165 C1.93918442 11.99846149 2.3053355 18.54916503 2.265625 26.078125 C2.26849518 27.29035233 2.27136536 28.50257965 2.27432251 29.75154114 C2.27635337 32.2988024 2.27089245 34.8460796 2.25830078 37.39331055 C2.2421921 41.2840459 2.25820552 45.17374912 2.27734375 49.06445312 C2.27536197 51.54817936 2.27151964 54.03190496 2.265625 56.515625 C2.27169769 57.6730571 2.27777039 58.8304892 2.2840271 60.022995 C2.23072611 66.15746185 1.81474459 70.6752635 -1.1328125 76.09765625 C-0.02421875 76.01386719 1.084375 75.93007812 2.2265625 75.84375 C3.69008078 75.7405532 5.15362381 75.63770699 6.6171875 75.53515625 C7.34679687 75.47908203 8.07640625 75.42300781 8.828125 75.36523438 C12.41672401 75.12055717 15.41745975 75.10099366 18.8671875 76.09765625 C18.8671875 76.75765625 18.8671875 77.41765625 18.8671875 78.09765625 C17.8771875 78.09765625 16.8871875 78.09765625 15.8671875 78.09765625 C15.8671875 78.75765625 15.8671875 79.41765625 15.8671875 80.09765625 C12.55470563 80.12653771 9.24225583 80.14441424 5.9296875 80.16015625 C4.98416016 80.16853516 4.03863281 80.17691406 3.06445312 80.18554688 C1.71577148 80.19038086 1.71577148 80.19038086 0.33984375 80.1953125 C-0.90913696 80.20316772 -0.90913696 80.20316772 -2.18334961 80.21118164 C-4.1328125 80.09765625 -4.1328125 80.09765625 -5.1328125 79.09765625 C-5.23766271 75.94289841 -5.27296141 72.8151879 -5.2578125 69.66015625 C-5.25587891 68.68892822 -5.25394531 67.7177002 -5.25195312 66.71704102 C-5.20179123 57.92686647 -4.88853551 49.15196049 -4.48876953 40.37133789 C-4.01868259 29.78434416 -3.70267234 19.30828215 -5.1328125 8.78515625 C-5.22820312 8.03298828 -5.32359375 7.28082031 -5.421875 6.50585938 C-5.6516416 4.70219154 -5.89109304 2.89976115 -6.1328125 1.09765625 C-3.8362755 -0.05061225 -2.54968083 -0.0179555 0 0 Z " fill="#E2422F" transform="translate(95.1328125,5.90234375)"/>
<path d="M0 0 C1.51757095 0.21175409 3.03426477 0.4310943 4.546875 0.67578125 C10.00053463 1.39656748 15.51255166 1.64228839 21 2 C22.24177006 7.76628171 22.12674309 13.43890837 22.09765625 19.3046875 C22.0962413 20.38380402 22.09482635 21.46292053 22.09336853 22.57473755 C22.08778844 26.00818702 22.07523955 29.44157036 22.0625 32.875 C22.05748243 35.20833239 22.05291997 37.5416658 22.04882812 39.875 C22.03782553 45.58335575 22.02110721 51.29167315 22 57 C20.02 57.495 20.02 57.495 18 58 C16.82919898 47.17466876 17.06874897 36.54727031 17.4375 25.6875 C17.49087114 23.96421231 17.54360976 22.24090491 17.59570312 20.51757812 C17.72319298 16.34478945 17.85918646 12.17235943 18 8 C13.71 7.67 9.42 7.34 5 7 C3.95550089 10.13349732 4.06576355 10.98968256 5 14 C4.01 14 3.02 14 2 14 C0.70538799 9.68462665 -0.4655204 5.48962868 -1 1 C-0.67 0.67 -0.34 0.34 0 0 Z " fill="#E14431" transform="translate(45,30)"/>
<path d="M0 0 C1.29330231 -0.00388229 1.29330231 -0.00388229 2.61273193 -0.00784302 C4.98926169 -0.01358901 7.36565751 -0.01221938 9.7421875 -0.0078125 C11.01690918 -0.00668457 12.29163086 -0.00555664 13.60498047 -0.00439453 C17.17441058 0.12681631 20.60119477 0.55478116 24.125 1.125 C23.795 2.115 23.465 3.105 23.125 4.125 C22.23216309 3.96161133 21.33932617 3.79822266 20.41943359 3.62988281 C14.77428531 2.83255244 9.10280707 3.01157812 3.4140625 3.046875 C2.11973297 3.05128601 0.82540344 3.05569702 -0.50814819 3.0602417 C-3.39034345 3.0704221 -6.27249505 3.08422819 -9.15466309 3.1003418 C-13.26690229 3.12296158 -17.37913285 3.13715878 -21.49141312 3.1498642 C-30.65628402 3.17878711 -39.82071826 3.23139931 -48.9853096 3.30892181 C-53.76773161 3.34891525 -58.54994852 3.38091511 -63.33251953 3.39599609 C-68.0487076 3.41110379 -72.76439345 3.44535664 -77.48035812 3.49330902 C-79.25772138 3.50808844 -81.03515561 3.51603903 -82.81258011 3.51688385 C-85.27095802 3.51923964 -87.72790362 3.54617228 -90.18603516 3.57910156 C-90.90998474 3.5740712 -91.63393433 3.56904083 -92.37982178 3.56385803 C-95.74270801 3.63380108 -97.54899301 3.86942998 -100.2305603 5.97161865 C-101.50749277 7.64375206 -102.70794102 9.37441153 -103.875 11.125 C-103.90189216 9.64593108 -103.92134621 8.16672517 -103.9375 6.6875 C-103.94910156 5.86378906 -103.96070312 5.04007812 -103.97265625 4.19140625 C-103.875 2.125 -103.875 2.125 -102.875 1.125 C-100.7109833 1.0006818 -98.54290155 0.94693618 -96.37548828 0.91967773 C-95.69261183 0.9097838 -95.00973537 0.89988987 -94.3061657 0.88969612 C-92.01925069 0.8578571 -89.73231616 0.8331788 -87.4453125 0.80859375 C-85.83593269 0.78788172 -84.22655769 0.76679233 -82.6171875 0.74534607 C-78.30279753 0.68934495 -73.98835636 0.63995859 -69.67386627 0.59236908 C-67.01121905 0.56262533 -64.34859602 0.53125391 -61.68597412 0.49932861 C-41.12467174 0.25344362 -20.56292175 0.02857601 0 0 Z " fill="#7D4A49" transform="translate(103.875,116.875)"/>
<path d="M0 0 C3.00127895 0.087739 5.99986996 0.19471712 9 0.3125 C10.25876953 0.34633789 10.25876953 0.34633789 11.54296875 0.38085938 C17.25719189 0.62448904 21.90902697 1.28674278 27 4 C28.69136538 9.67665236 28.14362588 16.01341861 28.1328125 21.890625 C28.13424759 23.60206696 28.13424759 23.60206696 28.13571167 25.3480835 C28.13639054 27.751913 28.1345567 30.15574436 28.13037109 32.55957031 C28.12499899 36.25069246 28.13033613 39.94169402 28.13671875 43.6328125 C28.1360583 45.96875027 28.13477784 48.30468796 28.1328125 50.640625 C28.13483673 51.74891663 28.13686096 52.85720825 28.13894653 53.99908447 C28.13579437 55.02064636 28.13264221 56.04220825 28.12939453 57.09472656 C28.12859894 57.99596252 28.12780334 58.89719849 28.12698364 59.82574463 C28 62 28 62 27 64 C22.38 64 17.76 64 13 64 C12.34 62.68 11.68 61.36 11 60 C12.32 60.33 13.64 60.66 15 61 C17.97 61 20.94 61 24 61 C24 42.85 24 24.7 24 6 C16.95094516 4.24904474 16.95094516 4.24904474 10.25 3.9375 C7.01201366 4.02256094 4.16029261 3.81555938 1 3 C0.67 5.64 0.34 8.28 0 11 C-0.33 11 -0.66 11 -1 11 C-1.0270043 9.54176788 -1.04639787 8.08339325 -1.0625 6.625 C-1.07410156 5.81289063 -1.08570313 5.00078125 -1.09765625 4.1640625 C-1 2 -1 2 0 0 Z " fill="#E3A197" transform="translate(44,28)"/>
<path d="M0 0 C1.98 0 3.96 0 6 0 C5.83890747 0.57981125 5.67781494 1.1596225 5.51184082 1.75700378 C4.69561228 5.33389224 4.78018163 8.96030949 4.71875 12.61328125 C4.70034058 13.45988815 4.68193115 14.30649506 4.66296387 15.17875671 C4.60434346 17.88993507 4.55160745 20.60117972 4.5 23.3125 C3.83745142 57.37183128 3.83745142 57.37183128 1 65 C0.67 65 0.34 65 0 65 C0 43.55 0 22.1 0 0 Z " fill="#D96152" transform="translate(0,0)"/>
<path d="M0 0 C0 0.33 0 0.66 0 1 C-1.43721757 1.29305521 -2.87479827 1.58432935 -4.3125 1.875 C-5.11300781 2.03742187 -5.91351563 2.19984375 -6.73828125 2.3671875 C-7.81464844 2.57601563 -8.89101562 2.78484375 -10 3 C-11.09948975 3.24592896 -11.09948975 3.24592896 -12.22119141 3.49682617 C-20.69800139 5.26049536 -29.1316775 5.40890802 -37.75 5.5625 C-39.95804107 5.60679637 -42.16595765 5.65370206 -44.37384033 5.70530701 C-46.36596975 5.75117973 -48.35827879 5.78905082 -50.35058594 5.82641602 C-53.98009127 5.99905304 -57.41666041 6.42693127 -61 7 C-61 9.31 -61 11.62 -61 14 C-60.34 14 -59.68 14 -59 14 C-58.89623047 14.72598389 -58.79246094 15.45196777 -58.68554688 16.19995117 C-57.36016804 25.15942893 -55.71061354 34.03575922 -53.96826172 42.92211914 C-53.49742261 45.32565705 -53.03165998 47.730141 -52.56640625 50.13476562 C-52.26332019 51.69016253 -51.95994501 53.24550313 -51.65625 54.80078125 C-51.51973022 55.50616531 -51.38321045 56.21154938 -51.24255371 56.93830872 C-50.55511757 60.42948374 -49.79245826 63.8789066 -48.90429688 67.32495117 C-48.1409238 70.4272878 -47.80251291 72.84020651 -48 76 C-48.66 76 -49.32 76 -50 76 C-52.80522776 65.09240965 -55.35858389 54.15722823 -57.625 43.125 C-57.8522879 42.01945267 -57.8522879 42.01945267 -58.08416748 40.89157104 C-59.83493812 32.32101362 -61.56373764 23.75077526 -62.625 15.0625 C-62.71861816 14.3607666 -62.81223633 13.6590332 -62.90869141 12.93603516 C-63.19204584 10.14337992 -63.33107931 8.48257318 -61.7109375 6.12109375 C-57.87194233 3.60558778 -53.95233087 3.83465176 -49.54296875 3.7890625 C-48.02147458 3.76094175 -46.49999038 3.73227712 -44.97851562 3.703125 C-42.60067599 3.66230789 -40.22301199 3.62539972 -37.8449707 3.59863281 C-28.53846433 3.48500743 -19.9642458 2.92681224 -10.89916992 0.65258789 C-7.14446033 -0.19257748 -3.82718112 -0.22963087 0 0 Z " fill="#E9C1B9" transform="translate(85,8)"/>
<path d="M0 0 C-6.75197138 4.50131425 -13.66855757 5.4515317 -21.63671875 5.36328125 C-22.51979202 5.36377975 -23.4028653 5.36427826 -24.31269836 5.36479187 C-26.16397371 5.36246819 -28.01525324 5.35284165 -29.86645508 5.33618164 C-32.6905551 5.31247435 -35.51371549 5.31564819 -38.33789062 5.32226562 C-40.14583892 5.31669125 -41.95378328 5.30958289 -43.76171875 5.30078125 C-45.01815437 5.30214836 -45.01815437 5.30214836 -46.29997253 5.30354309 C-50.92116778 5.2478795 -54.65082149 4.76149838 -59 3 C-59 2.34 -59 1.68 -59 1 C-53.49063357 0.85458923 -47.98119668 0.71234353 -42.47167969 0.57275391 C-40.60609857 0.52507439 -38.74053755 0.47660069 -36.875 0.42724609 C-24.58006891 0.10264931 -12.29924325 -0.06804561 0 0 Z " fill="#E2422F" transform="translate(72,5)"/>
<path d="M0 0 C0.33 0 0.66 0 1 0 C1.14562699 6.29062116 1.28785175 12.58130795 1.42724609 18.87207031 C1.4748682 21.00132196 1.52333764 23.13055486 1.57275391 25.25976562 C1.91045031 39.84273668 2.06511182 54.41314446 2 69 C3.5785319 68.98063151 5.1570638 68.96126302 6.7355957 68.94189453 C7.66715485 68.93079651 8.59871399 68.91969849 9.5585022 68.90826416 C11.49634598 68.88374503 13.43411814 68.85339947 15.37182617 68.81982422 C16.21205322 68.8148291 17.05228027 68.80983398 17.91796875 68.8046875 C18.77156982 68.79421387 19.6251709 68.78374023 20.50463867 68.77294922 C23 69 23 69 28 71 C28 76.61 28 82.22 28 88 C26 86 26 86 25.83984375 83.46875 C25.87207031 82.4890625 25.90429688 81.509375 25.9375 80.5 C26.17122299 76.59995188 26.17122299 76.59995188 25 73 C24.28344238 72.97494385 23.56688477 72.9498877 22.82861328 72.92407227 C19.59388486 72.80830249 16.35946159 72.68549031 13.125 72.5625 C11.99707031 72.52318359 10.86914062 72.48386719 9.70703125 72.44335938 C8.63066406 72.40146484 7.55429688 72.35957031 6.4453125 72.31640625 C5.45031738 72.27974854 4.45532227 72.24309082 3.43017578 72.20532227 C1 72 1 72 -1 71 C-1.14230192 47.31220398 -0.79049497 23.67490391 0 0 Z " fill="#DD796B" transform="translate(89,16)"/>
<path d="M0 0 C0.33 0 0.66 0 1 0 C1.02526563 7.81452752 1.04283105 15.62904458 1.05493164 23.44360352 C1.05997383 26.10441481 1.06680736 28.76522332 1.07543945 31.42602539 C1.08751009 35.24105516 1.09322929 39.05604844 1.09765625 42.87109375 C1.10281754 44.06899033 1.10797882 45.2668869 1.11329651 46.50108337 C1.11340981 48.15268211 1.11340981 48.15268211 1.11352539 49.83764648 C1.115746 50.81249496 1.11796661 51.78734344 1.12025452 52.79173279 C1 55 1 55 0 56 C-5.54218201 56.60672308 -10.43821518 56.47564558 -15 53 C-16.4220823 50.43331488 -17.22394775 47.82028746 -18 45 C-18.32355469 43.97648437 -18.64710937 42.95296875 -18.98046875 41.8984375 C-20.33726507 37.13882149 -20.91438129 32.27189692 -21.5625 27.375 C-21.81255014 25.52847587 -22.06381313 23.68211549 -22.31640625 21.8359375 C-22.47798218 20.62236572 -22.47798218 20.62236572 -22.64282227 19.38427734 C-22.89116048 17.72653916 -23.19408657 16.07643991 -23.53881836 14.43603516 C-24.13829885 11.26948336 -24.06302408 8.21422815 -24 5 C-23.34 5 -22.68 5 -22 5 C-20.07105771 12.27854225 -18.77237742 19.33222703 -18.0625 26.8125 C-17.44181881 32.95238855 -16.5979517 38.9744701 -15.25 45 C-15.11730713 45.67651611 -14.98461426 46.35303223 -14.84790039 47.05004883 C-14.39245711 49.18759778 -14.39245711 49.18759778 -13 52 C-8.71562282 54.22690791 -5.98617254 54 -1 54 C-0.67 36.18 -0.34 18.36 0 0 Z " fill="#D96455" transform="translate(68,34)"/>
<path d="M0 0 C2.43651396 2.43651396 2.23633186 3.72514139 2.25212097 7.0496521 C2.24497574 7.74998566 2.23783051 8.45031921 2.23046875 9.171875 C2.23037308 9.91031647 2.2302774 10.64875793 2.23017883 11.40957642 C2.22641906 13.85654142 2.20737941 16.30311669 2.1875 18.75 C2.1806193 20.44482276 2.17411367 22.13964707 2.16796875 23.83447266 C2.07592713 41.89557831 1.57431785 59.94870118 1 78 C0.67 78 0.34 78 0 78 C0.00666183 76.61604538 0.00666183 76.61604538 0.01345825 75.20413208 C0.05348113 66.52224097 0.08395694 57.8403807 0.10362434 49.15841866 C0.11407534 44.69460245 0.12825844 40.23086228 0.15087891 35.76708984 C0.17256052 31.46179326 0.1845587 27.15656995 0.18975449 22.85122299 C0.19345869 21.20612306 0.20069177 19.56102727 0.21146011 17.9159584 C0.22591299 15.61722296 0.22798058 13.31879287 0.22705078 11.02001953 C0.23371262 9.05477829 0.23371262 9.05477829 0.24050903 7.04983521 C0.32348265 3.89059688 0.32348265 3.89059688 -2 2 C-5.16427327 2.2751542 -8.18914293 2.8337631 -11.29833984 3.47119141 C-21.37756004 5.38426548 -31.5256437 5.6810143 -41.75 6.125 C-43.62242625 6.21158431 -45.49482255 6.29881889 -47.3671875 6.38671875 C-51.91114797 6.59864015 -56.45542241 6.80177228 -61 7 C-61 8.98 -61 10.96 -61 13 C-61.33 13 -61.66 13 -62 13 C-62 10.69 -62 8.38 -62 6 C-57.02153054 4.39238595 -52.7636186 3.73359179 -47.484375 3.65625 C-46.78789856 3.6416272 -46.09142212 3.62700439 -45.37384033 3.61193848 C-43.16595114 3.56587518 -40.95814224 3.53146881 -38.75 3.5 C-25.73495837 3.31271248 -12.70176281 -0.60484585 0 0 Z " fill="#EEDAD4" transform="translate(86,9)"/>
<path d="M0 0 C0 0.66 0 1.32 0 2 C-29.04 2 -58.08 2 -88 2 C-88 1.67 -88 1.34 -88 1 C-82.78251494 0.28622608 -77.6939951 -0.15492339 -72.421875 -0.28125 C-71.72918518 -0.29965942 -71.03649536 -0.31806885 -70.32281494 -0.33703613 C-68.13195237 -0.39507141 -65.9410164 -0.44812154 -63.75 -0.5 C-54.99196175 -0.70941008 -46.2816605 -0.98518849 -37.55224609 -1.78173828 C-24.94641058 -2.85975789 -12.50844388 -1.52276708 0 0 Z " fill="#D96152" transform="translate(128,116)"/>
<path d="M0 0 C1.1446875 1.175625 1.1446875 1.175625 2.3125 2.375 C6.41065962 6.37785359 8.46910615 7.25070304 14.09204102 7.25878906 C15.97397911 7.26824554 15.97397911 7.26824554 17.89393616 7.27789307 C19.26392762 7.27431366 20.63391779 7.27021179 22.00390625 7.265625 C23.40730354 7.26697215 24.81070038 7.26891309 26.21409607 7.27142334 C29.15376229 7.27437132 32.0933069 7.27008689 35.03295898 7.26074219 C38.8049488 7.24933722 42.57665434 7.25591561 46.34863377 7.26788712 C49.24564262 7.27510563 52.14258379 7.27281804 55.03959465 7.26763153 C56.43069428 7.26629555 57.82180003 7.26794097 59.21289253 7.27259064 C61.15437837 7.27765658 63.0958857 7.26856925 65.03735352 7.25878906 C66.69590111 7.25640228 66.69590111 7.25640228 68.38795471 7.25396729 C71.15990786 7.26366492 71.15990786 7.26366492 73 5 C72.67 6.65 72.34 8.3 72 10 C57.62864348 10.58645866 43.25915381 11.10297434 28.875 11.1875 C27.84133301 11.20039062 26.80766602 11.21328125 25.74267578 11.2265625 C17.99906115 11.23664369 9.70534995 11.14910297 2.875 7.1875 C0.77905182 4.74222713 0.26500243 3.18002912 0 0 Z " fill="#DC7264" transform="translate(43,100)"/>
<path d="M0 0 C3.78125025 1.26041675 4.01322327 2.68870545 6 6 C6.99 6.33 7.98 6.66 9 7 C9 7.99 9 8.98 9 10 C9.5775 10.28875 10.155 10.5775 10.75 10.875 C12.10563357 11.55281679 13.44832506 12.25897424 14.76074219 13.01708984 C17.55252089 14.24252607 20.0476327 14.5247447 23.078125 14.8515625 C24.23828125 14.98046875 25.3984375 15.109375 26.59375 15.2421875 C27.8003125 15.36851563 29.006875 15.49484375 30.25 15.625 C31.47203125 15.7590625 32.6940625 15.893125 33.953125 16.03125 C36.96807616 16.36101028 39.98361676 16.6836538 43 17 C43 17.33 43 17.66 43 18 C36.39494963 18.86623611 29.84193417 19.16362002 23.1875 19.25 C22.36338623 19.27126953 21.53927246 19.29253906 20.69018555 19.31445312 C15.95456113 19.34146147 12.8223726 19.10345336 9 16 C7.453125 14.28125 7.453125 14.28125 6.25 12.5 C5.84265625 11.9121875 5.4353125 11.324375 5.015625 10.71875 C4 9 4 9 3 6 C2.01 5.34 1.02 4.68 0 4 C0 2.68 0 1.36 0 0 Z " fill="#E2422F" transform="translate(35,95)"/>
<path d="M0 0 C0.33 0 0.66 0 1 0 C1.19634033 0.96188232 1.39268066 1.92376465 1.5949707 2.91479492 C2.33696655 6.54762196 3.08114787 10.17999865 3.82592773 13.81225586 C4.14551711 15.37235873 4.4645452 16.9325767 4.78295898 18.49291992 C6.55834169 27.19089726 8.38110799 35.86116469 10.47338867 44.48950195 C11 47 11 47 11 50 C11.66 50 12.32 50 13 50 C14.03040167 52.28779038 15.04952018 54.57951136 16.0625 56.875 C16.35705078 57.52597656 16.65160156 58.17695312 16.95507812 58.84765625 C17.69661513 60.54010541 18.35439001 62.26868575 19 64 C18.67 64.66 18.34 65.32 18 66 C11.29612756 56.77448747 11.29612756 56.77448747 11 51 C10.34 51 9.68 51 9 51 C7.51398272 47.56358505 6.59839361 44.37937489 6 40.6875 C5.45053148 37.43828067 4.84516956 34.29175825 3.9375 31.125 C2.71567704 26.52185302 2.5862866 21.85705286 2.28515625 17.12109375 C2.04269031 14.46725423 1.64010866 12.12235391 0.9375 9.5625 C0.05073141 6.19277937 -0.17306519 3.46130389 0 0 Z " fill="#DC7669" transform="translate(24,34)"/>
<path d="M0 0 C0.66 0.33 1.32 0.66 2 1 C2.33 1.99 2.66 2.98 3 4 C3.66 4.33 4.32 4.66 5 5 C6.95156113 12.87852456 7.29136943 20.92259196 7 29 C6.01 29.33 5.02 29.66 4 30 C2.47831573 26.95663147 2.75403254 23.72079111 2.625 20.375 C2.33956148 14.2901541 1.38637891 9.64053196 -1 4 C-0.5859375 1.796875 -0.5859375 1.796875 0 0 Z " fill="#E24330" transform="translate(16,16)"/>
<path d="M0 0 C1.66666667 1.66666667 3.33333333 3.33333333 5 5 C5.8971875 5.8353125 5.8971875 5.8353125 6.8125 6.6875 C8 8 8 8 8 10 C9.02904198 9.99666908 9.02904198 9.99666908 10.07887268 9.99327087 C17.2329964 9.9711102 24.38711033 9.95604839 31.54125977 9.94506836 C34.20957367 9.94061239 36.87783373 9.9332276 39.54614258 9.92456055 C43.38623736 9.91240156 47.22629569 9.90675026 51.06640625 9.90234375 C52.84961021 9.89460182 52.84961021 9.89460182 54.6688385 9.88670349 C60.22097445 9.88632928 65.53358856 9.99695689 71 11 C71 11.33 71 11.66 71 12 C62.75923868 12.16246172 54.51915036 12.28670236 46.27718163 12.3626852 C42.44967312 12.39916101 38.62326303 12.44860103 34.79638672 12.52807617 C31.1004527 12.60434828 27.40557238 12.6460328 23.7089119 12.6641407 C22.30141234 12.67703778 20.8939681 12.70222522 19.4869194 12.7401104 C8.50309344 13.02398891 8.50309344 13.02398891 4.79571533 10.49832153 C1.9655189 7.31739481 0.26341633 4.3463695 0 0 Z " fill="#EFDCD6" transform="translate(42,95)"/>
<path d="M0 0 C0.33 0 0.66 0 1 0 C1.4602693 2.56216578 1.91856125 5.12465078 2.375 7.6875 C2.51292969 8.459729 2.65085938 9.23195801 2.79296875 10.02758789 C3.61147146 14.65509241 4.34312641 19.28371761 5 23.9375 C6.10532936 31.22719278 7.25966204 38.17691075 12 44 C7.40408252 43.48343407 7.40408252 43.48343407 5.70703125 41.453125 C2.18596075 32.78114351 1.85502462 23.58196729 1.23364258 14.33666992 C1.03481737 11.95069914 1.03481737 11.95069914 0.47924805 9.44262695 C-0.1427248 6.27256157 -0.06316429 3.22137857 0 0 Z " fill="#E9C1B8" transform="translate(44,46)"/>
<path d="M0 0 C0.99 0 1.98 0 3 0 C4.63305288 3.26610577 4.14276152 6.85263227 4.125 10.4375 C4.12886719 11.21416016 4.13273437 11.99082031 4.13671875 12.79101562 C4.13099989 16.11081172 4.05668831 18.82993506 3 22 C2.01 22.33 1.02 22.66 0 23 C0 15.41 0 7.82 0 0 Z " fill="#E2412E" transform="translate(118,87)"/>
<path d="M0 0 C4.27077656 -0.05794812 8.54145236 -0.09357874 12.8125 -0.125 C14.02744141 -0.14175781 15.24238281 -0.15851563 16.49414062 -0.17578125 C17.65751953 -0.18222656 18.82089844 -0.18867187 20.01953125 -0.1953125 C21.62985229 -0.21102295 21.62985229 -0.21102295 23.27270508 -0.22705078 C26 0 26 0 29 2 C26.18175808 3.40912096 23.82748718 3.11183553 20.6796875 3.09765625 C19.42285156 3.09443359 18.16601562 3.09121094 16.87109375 3.08789062 C15.55238281 3.07951172 14.23367187 3.07113281 12.875 3.0625 C11.53515789 3.05748489 10.195314 3.05292201 8.85546875 3.04882812 C5.57026794 3.03701086 2.28515603 3.02053617 -1 3 C-0.67 2.01 -0.34 1.02 0 0 Z " fill="#E2422F" transform="translate(86,110)"/>
<path d="M0 0 C0.66 0 1.32 0 2 0 C4.63593746 9.23407023 5.45860577 17.97043655 5.7890625 27.51953125 C5.94437629 31.72670769 6.42004692 35.83099299 7 40 C4.74495089 36.61742633 4.37447186 34.38042754 3.7109375 30.390625 C3.60278717 29.74559021 3.49463684 29.10055542 3.38320923 28.43597412 C3.15623719 27.07150577 2.93288078 25.70643172 2.71289062 24.34082031 C2.37819154 22.26974881 2.02986346 20.2013167 1.6796875 18.1328125 C1.46011333 16.80221908 1.24133804 15.47149352 1.0234375 14.140625 C0.82669434 12.93954102 0.62995117 11.73845703 0.42724609 10.50097656 C-0.00442548 6.96373639 -0.07456317 3.55967976 0 0 Z " fill="#DD796C" transform="translate(44,39)"/>
<path d="M0 0 C0.33 0 0.66 0 1 0 C1.73744826 3.33764997 2.14666428 6.4915006 2.24609375 9.90625 C2.29540039 11.26943359 2.29540039 11.26943359 2.34570312 12.66015625 C2.40689709 14.5532633 2.46418949 16.4465005 2.51757812 18.33984375 C2.75378105 24.88554444 2.75378105 24.88554444 5 31 C3.35 31.33 1.7 31.66 0 32 C0 21.44 0 10.88 0 0 Z " fill="#D96152" transform="translate(0,87)"/>
<path d="M0 0 C2.13604308 3.20406462 2.24208908 3.99600747 2.1953125 7.66796875 C2.18886719 8.56064453 2.18242188 9.45332031 2.17578125 10.37304688 C2.15902344 11.30181641 2.14226563 12.23058594 2.125 13.1875 C2.11597656 14.12787109 2.10695312 15.06824219 2.09765625 16.03710938 C2.07409056 18.35832968 2.04119116 20.67903644 2 23 C1.67 22.34 1.34 21.68 1 21 C0.34 21 -0.32 21 -1 21 C-1.02895976 17.87501937 -1.04678483 14.7500731 -1.0625 11.625 C-1.07087891 10.73554687 -1.07925781 9.84609375 -1.08789062 8.9296875 C-1.09111328 8.07890625 -1.09433594 7.228125 -1.09765625 6.3515625 C-1.10289307 5.56604004 -1.10812988 4.78051758 -1.11352539 3.97119141 C-1 2 -1 2 0 0 Z " fill="#E2422F" transform="translate(51,49)"/>
<path d="M0 0 C1.79275866 3.11910856 2.34290718 5.67682428 2.625 9.25 C2.69976563 10.14203125 2.77453125 11.0340625 2.8515625 11.953125 C2.92503906 12.96632813 2.92503906 12.96632813 3 14 C3.66 14 4.32 14 5 14 C5.50744423 15.89385437 6.00564574 17.79018666 6.5 19.6875 C6.7784375 20.74324219 7.056875 21.79898438 7.34375 22.88671875 C7.9391715 25.71142672 8.12786492 28.12836708 8 31 C7.34 31 6.68 31 6 31 C4.65279868 25.67005304 3.31997032 20.33675377 2 15 C1.76539062 14.05769531 1.53078125 13.11539063 1.2890625 12.14453125 C0.30923675 8.01932284 -0.21753431 4.24191908 0 0 Z " fill="#E9C2BB" transform="translate(29,53)"/>
<path d="M0 0 C0.33 0 0.66 0 1 0 C1.66 3.63 2.32 7.26 3 11 C3.66 11 4.32 11 5 11 C6.03040167 13.28779038 7.04952018 15.57951136 8.0625 17.875 C8.35705078 18.52597656 8.65160156 19.17695312 8.95507812 19.84765625 C9.69661513 21.54010541 10.35439001 23.26868575 11 25 C10.67 25.66 10.34 26.32 10 27 C3.89991194 18.94788376 -0.39644612 10.29235113 0 0 Z " fill="#E2978C" transform="translate(32,73)"/>
<path d="M0 0 C0.66 0.33 1.32 0.66 2 1 C2.4140625 3.72265625 2.4140625 3.72265625 2.625 7.0625 C2.69976562 8.16722656 2.77453125 9.27195312 2.8515625 10.41015625 C2.90054688 11.26480469 2.94953125 12.11945313 3 13 C-0.875 11.125 -0.875 11.125 -2 10 C-2.07179964 8.48071962 -2.08392007 6.95832518 -2.0625 5.4375 C-2.05347656 4.61121094 -2.04445312 3.78492187 -2.03515625 2.93359375 C-2.02355469 2.29550781 -2.01195312 1.65742187 -2 1 C-1.34 0.67 -0.68 0.34 0 0 Z " fill="#E2422F" transform="translate(55,73)"/>
<path d="M0 0 C5.94 0 11.88 0 18 0 C17.67 0.66 17.34 1.32 17 2 C13.95059327 3.01646891 11.69630097 3.19844676 8.5 3.25 C7.5409375 3.27578125 6.581875 3.3015625 5.59375 3.328125 C3 3 3 3 0 0 Z " fill="#E0897D" transform="translate(84,0)"/>
<path d="M0 0 C1.5 1 1.5 1 3 3 C3.48893443 6.91147543 3.24575306 10.26274081 2 14 C1.34 14 0.68 14 0 14 C-1.24377393 11.51245214 -1.13306235 9.77344699 -1.125 7 C-1.12757812 6.113125 -1.13015625 5.22625 -1.1328125 4.3125 C-1 2 -1 2 0 0 Z " fill="#E2422F" transform="translate(24,50)"/>
<path d="M0 0 C-3 2 -3 2 -5 3 C-4.67 9.6 -4.34 16.2 -4 23 C-4.33 23 -4.66 23 -5 23 C-5.13277344 22.08476563 -5.26554687 21.16953125 -5.40234375 20.2265625 C-5.66724609 18.44378906 -5.66724609 18.44378906 -5.9375 16.625 C-6.11152344 15.44164062 -6.28554688 14.25828125 -6.46484375 13.0390625 C-6.83462786 10.09297619 -6.83462786 10.09297619 -8 8 C-8.25 5 -8.25 5 -8 2 C-4.77208445 -0.1519437 -3.71599191 -0.20086443 0 0 Z " fill="#D96152" transform="translate(27,11)"/>
<path d="M0 0 C1.66666667 1.66666667 3.33333333 3.33333333 5 5 C5.5775 5.515625 6.155 6.03125 6.75 6.5625 C8.26500693 8.30475797 8.61186118 9.74879482 9 12 C4.58848955 10.52949652 2.14860084 6.95377777 0 3 C0 2.01 0 1.02 0 0 Z " fill="#EBC8C0" transform="translate(42,95)"/>
<path d="M0 0 C2 2 2 2 2.1953125 4.3828125 C2.17210937 5.28773437 2.14890625 6.19265625 2.125 7.125 C2.10695313 8.03507812 2.08890625 8.94515625 2.0703125 9.8828125 C2.03550781 10.93082031 2.03550781 10.93082031 2 12 C1.01 11.67 0.02 11.34 -1 11 C-1.02688151 9.35425434 -1.04634123 7.70838587 -1.0625 6.0625 C-1.07410156 5.14597656 -1.08570312 4.22945313 -1.09765625 3.28515625 C-1 1 -1 1 0 0 Z " fill="#E2412E" transform="translate(28,70)"/>
<path d="M0 0 C0.66 0 1.32 0 2 0 C2.77842938 3.40562852 3.09978121 6.50765756 3 10 C1.68 10 0.36 10 -1 10 C-0.67 6.7 -0.34 3.4 0 0 Z " fill="#E2412E" transform="translate(6,108)"/>
<path d="M0 0 C0.99 0.33 1.98 0.66 3 1 C3 2.65 3 4.3 3 6 C2.01 6 1.02 6 0 6 C0 4.02 0 2.04 0 0 Z " fill="#E2412E" transform="translate(31,86)"/>
<path d="M0 0 C1.65 0 3.3 0 5 0 C5 1.32 5 2.64 5 4 C3.0625 3.6875 3.0625 3.6875 1 3 C0.67 2.01 0.34 1.02 0 0 Z " fill="#D96152" transform="translate(123,0)"/>
</svg>
