<?xml version="1.0" encoding="UTF-8"?>
<svg version="1.1" xmlns="http://www.w3.org/2000/svg" width="128" height="128">
<path d="M0 0 C42.24 0 84.48 0 128 0 C128 42.24 128 84.48 128 128 C85.76 128 43.52 128 0 128 C0 85.76 0 43.52 0 0 Z " fill="#0554B6" transform="translate(0,0)"/>
<path d="M0 0 C0.91007812 0.00902344 1.82015625 0.01804688 2.7578125 0.02734375 C3.80582031 0.04474609 3.80582031 0.04474609 4.875 0.0625 C4.875 0.7225 4.875 1.3825 4.875 2.0625 C5.49890625 2.30742188 6.1228125 2.55234375 6.765625 2.8046875 C10.00574407 4.7367585 10.32916698 7.13359487 11.3125 10.63671875 C11.498125 11.43722656 11.68375 12.23773438 11.875 13.0625 C12.1225 14.06216797 12.1225 14.06216797 12.375 15.08203125 C12.83543624 18.61444052 12.27648221 20.47808824 10.24609375 23.43359375 C7.90300346 26.12039317 5.44911788 28.59610134 2.875 31.0625 C1.95074219 31.9596875 1.02648438 32.856875 0.07421875 33.78125 C-8.06963847 41.44075609 -14.45665522 46.46345242 -26.01953125 46.203125 C-33.91357951 45.67587873 -38.82080112 43.0135524 -44.125 37.0625 C-48.6888252 30.82834108 -49.82022397 23.23061072 -48.80078125 15.65234375 C-48.07672613 12.46070878 -47.4667747 10.4042747 -45.125 8.0625 C-42.5 8.4375 -42.5 8.4375 -40.125 9.0625 C-40.29 9.8875 -40.455 10.7125 -40.625 11.5625 C-41.57290006 18.1978004 -41.96756495 23.23240146 -38.125 29.0625 C-34.39010539 32.90114169 -31.43281238 33.78795798 -26.125 34.0625 C-22.38139659 34.00521002 -22.38139659 34.00521002 -19.125 33.0625 C-17.86672877 31.21267528 -17.86672877 31.21267528 -17.125 29.0625 C-13.69642857 26.0625 -13.69642857 26.0625 -11.125 26.0625 C-10.8775 25.11375 -10.63 24.165 -10.375 23.1875 C-9.125 20.0625 -9.125 20.0625 -7.046875 18.8671875 C-6.41265625 18.60164063 -5.7784375 18.33609375 -5.125 18.0625 C-5.46724609 17.10150391 -5.46724609 17.10150391 -5.81640625 16.12109375 C-7.6374732 10.64156045 -8.68164474 6.69036945 -7.125 1.0625 C-4.60024538 -0.19987731 -2.81299534 -0.03606404 0 0 Z " fill="#F6F9F9" transform="translate(56.125,38.9375)"/>
<path d="M0 0 C2.26171875 0.1640625 2.26171875 0.1640625 5 1 C6.95703125 3.3359375 6.95703125 3.3359375 8.8125 6.375 C13.6162921 13.99231252 18.87256007 21.20233846 24.3125 28.375 C26.40816573 31.15018677 28.29224092 33.96398386 30 37 C29.278125 37.391875 28.55625 37.78375 27.8125 38.1875 C20.46793957 42.92066116 17.58532873 49.27491026 14 57 C10.37394201 56.45059727 9.03069784 55.29817142 6.875 52.375 C2.52248906 46.19795165 1.514434 40.40488155 2 33 C2.34804687 32.35289063 2.69609375 31.70578125 3.0546875 31.0390625 C4.77374742 27.33100763 3.30408757 23.70705095 2 20 C-0.1415748 16.75309628 -1.76065545 15.15956304 -5 13 C-4.61271765 7.28758534 -4.12989477 4.26311718 0 0 Z " fill="#F6F9F9" transform="translate(73,29)"/>
<path d="M0 0 C3 2 3 2 3.58984375 4.79296875 C3.70457031 5.91316406 3.81929688 7.03335938 3.9375 8.1875 C4.70348431 13.77612152 5.61325334 17.52788645 9 22 C9.56847656 22.79019531 10.13695312 23.58039063 10.72265625 24.39453125 C15.19485283 30.32485952 19.99637754 34.68553234 26 39 C27.60989391 40.22165583 29.214167 41.45075709 30.8125 42.6875 C31.87404297 43.49767578 31.87404297 43.49767578 32.95703125 44.32421875 C35.12873992 46.10560119 37.11306095 47.91800658 39 50 C39 50.66 39 51.32 39 52 C26.13 52 13.26 52 0 52 C0 34.84 0 17.68 0 0 Z " fill="#5F8DC2" transform="translate(0,76)"/>
<path d="M0 0 C9.24 0 18.48 0 28 0 C28 8.25 28 16.5 28 25 C20.63540976 21.31770488 16.39710163 19.11773064 11.1875 13.4375 C10.12086089 12.30895197 9.05189131 11.18260147 7.98046875 10.05859375 C7.48208496 9.52991699 6.98370117 9.00124023 6.47021484 8.45654297 C4.84285791 6.78317106 4.84285791 6.78317106 2.11328125 4.78515625 C1.41589844 4.19605469 0.71851562 3.60695312 0 3 C0 2.01 0 1.02 0 0 Z " fill="#F6F9F9" transform="translate(100,0)"/>
<path d="M0 0 C0.91007812 0.00902344 1.82015625 0.01804688 2.7578125 0.02734375 C3.80582031 0.04474609 3.80582031 0.04474609 4.875 0.0625 C4.875 0.7225 4.875 1.3825 4.875 2.0625 C5.49890625 2.30742188 6.1228125 2.55234375 6.765625 2.8046875 C10.00574407 4.7367585 10.32916698 7.13359487 11.3125 10.63671875 C11.498125 11.43722656 11.68375 12.23773438 11.875 13.0625 C12.1225 14.06216797 12.1225 14.06216797 12.375 15.08203125 C12.83543624 18.61444052 12.27648221 20.47808824 10.24609375 23.43359375 C7.90300346 26.12039317 5.44911788 28.59610134 2.875 31.0625 C1.95074219 31.9596875 1.02648438 32.856875 0.07421875 33.78125 C-8.06963847 41.44075609 -14.45665522 46.46345242 -26.01953125 46.203125 C-33.91357951 45.67587873 -38.82080112 43.0135524 -44.125 37.0625 C-48.6888252 30.82834108 -49.82022397 23.23061072 -48.80078125 15.65234375 C-48.07672613 12.46070878 -47.4667747 10.4042747 -45.125 8.0625 C-42.5 8.4375 -42.5 8.4375 -40.125 9.0625 C-40.29 9.8875 -40.455 10.7125 -40.625 11.5625 C-41.57290006 18.1978004 -41.96756495 23.23240146 -38.125 29.0625 C-34.39010539 32.90114169 -31.43281238 33.78795798 -26.125 34.0625 C-22.38139659 34.00521002 -22.38139659 34.00521002 -19.125 33.0625 C-17.86672877 31.21267528 -17.86672877 31.21267528 -17.125 29.0625 C-13.69642857 26.0625 -13.69642857 26.0625 -11.125 26.0625 C-10.8775 25.11375 -10.63 24.165 -10.375 23.1875 C-9.125 20.0625 -9.125 20.0625 -7.046875 18.8671875 C-6.41265625 18.60164063 -5.7784375 18.33609375 -5.125 18.0625 C-5.46724609 17.10150391 -5.46724609 17.10150391 -5.81640625 16.12109375 C-7.6374732 10.64156045 -8.68164474 6.69036945 -7.125 1.0625 C-4.60024538 -0.19987731 -2.81299534 -0.03606404 0 0 Z M-3.125 2.0625 C-4.84624422 4.80554253 -4.84624422 4.80554253 -4.734375 7.921875 C-4.43273438 8.98148438 -4.43273438 8.98148438 -4.125 10.0625 C-3.25305196 13.68141216 -3.12068027 16.44891823 -4.125 20.0625 C-9.27413352 27.00189517 -16.37066046 34.25417118 -25.125 36.0625 C-30.59737677 36.0625 -33.92181904 34.51844879 -38.125 31.0625 C-42.17636822 26.35415315 -43.08190774 22.1061894 -43.125 16.0625 C-42.6875 12.5 -42.6875 12.5 -42.125 10.0625 C-44.10036745 10.41036708 -44.10036745 10.41036708 -46.125 11.0625 C-48.83898706 16.49047412 -47.8979566 25.69771276 -46.1875 31.4375 C-43.8031235 36.7965598 -38.31120152 41.46939924 -33.125 44.0625 C-21.48585079 45.00439647 -14.2835558 44.26233603 -5.1640625 36.5625 C-2.04510621 33.83142073 0.91718708 30.96712957 3.875 28.0625 C5.04095703 26.96808594 5.04095703 26.96808594 6.23046875 25.8515625 C9.58526286 22.46328741 10.82970063 21.01378681 11.0625 16.125 C10.00063664 11.5895836 8.21102567 7.09104239 5.875 3.0625 C2.91835481 1.5841774 0.13270263 2.00217217 -3.125 2.0625 Z " fill="#ABC3D9" transform="translate(56.125,38.9375)"/>
<path d="M0 0 C0.66 0 1.32 0 2 0 C2 9.24 2 18.48 2 28 C-7.9 28 -17.8 28 -28 28 C-25.85154472 23.70308944 -25.29284291 23.28303044 -21.1875 21.375 C-19.90939453 20.76785156 -19.90939453 20.76785156 -18.60546875 20.1484375 C-16.87944101 19.38763967 -15.13227128 18.67299244 -13.3671875 18.0078125 C-8.76057542 16.04658162 -5.88178831 12.84450024 -3.765625 8.41796875 C-3.06696336 6.6485322 -2.39697034 4.86739728 -1.76171875 3.07421875 C-1 1 -1 1 0 0 Z " fill="#F6F9F9" transform="translate(126,100)"/>
<path d="M0 0 C2.26171875 0.1640625 2.26171875 0.1640625 5 1 C6.95703125 3.3359375 6.95703125 3.3359375 8.8125 6.375 C13.6162921 13.99231252 18.87256007 21.20233846 24.3125 28.375 C26.40816573 31.15018677 28.29224092 33.96398386 30 37 C29.278125 37.391875 28.55625 37.78375 27.8125 38.1875 C20.46793957 42.92066116 17.58532873 49.27491026 14 57 C10.37394201 56.45059727 9.03069784 55.29817142 6.875 52.375 C2.52248906 46.19795165 1.514434 40.40488155 2 33 C2.34804687 32.35289063 2.69609375 31.70578125 3.0546875 31.0390625 C4.77374742 27.33100763 3.30408757 23.70705095 2 20 C-0.1415748 16.75309628 -1.76065545 15.15956304 -5 13 C-4.61271765 7.28758534 -4.12989477 4.26311718 0 0 Z M1 2 C-1.39080897 4.39080897 -2.86612164 6.00639672 -3.32421875 9.40625 C-2.9155669 12.6754648 -1.80599152 13.8778013 0.375 16.3125 C3.86545293 20.57624433 5.44903384 23.4903384 6 29 C5.525625 29.78375 5.05125 30.5675 4.5625 31.375 C2.45826429 34.91011599 2.74762537 37.28242773 3.2890625 41.2890625 C4.53011969 46.02144542 6.80306773 50.2939544 10 54 C12.0985254 54.83042159 12.0985254 54.83042159 14 55 C14.43570313 54.03578125 14.87140625 53.0715625 15.3203125 52.078125 C15.92099725 50.80166991 16.5226093 49.5256509 17.125 48.25 C17.55039063 47.29867187 17.55039063 47.29867187 17.984375 46.328125 C20.22578891 41.65039163 22.47372824 39.53881532 27 37 C26.41981575 33.08375629 24.4690233 31.01327037 22 28 C18.29095275 23.092396 14.69969544 18.11829406 11.36328125 12.94921875 C10.69643311 11.92127197 10.69643311 11.92127197 10.01611328 10.87255859 C9.13926395 9.51297486 8.27151809 8.14747104 7.41357422 6.77587891 C6.35238213 5.13182056 5.18381216 3.55809025 4 2 C3.01 2 2.02 2 1 2 Z " fill="#ABC3D9" transform="translate(73,29)"/>
<path d="M0 0 C6.76761128 0.94457629 12.8600433 1.93002165 19 5 C18.91785752 7.79284442 18.37683582 9.54613144 16.5859375 11.703125 C13.62981965 14.48994976 11.95096083 15.94406113 7.8125 16.1875 C4.35025886 14.72566485 3.01755314 13.138416 1 10 C-0.1577506 6.52674819 -0.06866652 3.63932552 0 0 Z " fill="#ABC3D9" transform="translate(0,0)"/>
<path d="M0 0 C7.59 0 15.18 0 23 0 C20.03 4.455 20.03 4.455 17 9 C16.525625 9.928125 16.05125 10.85625 15.5625 11.8125 C12.65925775 15.87703915 8.42644974 17.61595584 3.75 18.875 C0.69261095 19.80534532 0.69261095 19.80534532 -0.875 23.125 C-1.24625 24.07375 -1.6175 25.0225 -2 26 C-2.33 26 -2.66 26 -3 26 C-3 19.73 -3 13.46 -3 7 C-2.01 8.485 -2.01 8.485 -1 10 C1.22930256 12.81268079 1.22930256 12.81268079 4 15 C7.37319362 15.08432984 8.90832535 14.05833842 11.75 12.25 C14.49691893 9.91910622 14.49691893 9.91910622 15 5 C10.05 3.68 5.1 2.36 0 1 C0 0.67 0 0.34 0 0 Z " fill="#5D8CC1" transform="translate(3,0)"/>
<path d="M0 0 C4.17404628 4.03939963 5.05658324 5.84859305 5.3125 11.625 C6.22341427 22.74079442 12.81999028 32.3085286 20.9765625 39.8203125 C22.93797306 41.29742416 24.94917443 42.64999612 27 44 C28.87925848 45.36917404 30.75402705 46.74452536 32.625 48.125 C35.60030848 50.29337503 38.57779201 52.40478312 41.6875 54.375 C42.450625 54.91125 43.21375 55.4475 44 56 C44 56.66 44 57.32 44 58 C42.35 58 40.7 58 39 58 C39 57.34 39 56.68 39 56 C37.68 55.34 36.36 54.68 35 54 C35 53.34 35 52.68 35 52 C34.443125 51.7525 33.88625 51.505 33.3125 51.25 C30.57149585 49.76837613 28.41159649 47.98286823 26 46 C25.30390625 45.48179688 24.6078125 44.96359375 23.890625 44.4296875 C18.90287387 40.69724286 14.81553868 36.91475205 11 32 C10.46246094 31.34902344 9.92492187 30.69804688 9.37109375 30.02734375 C4.33575323 23.73013476 2.89154105 17.8746338 2.34375 9.91796875 C2.14647357 7.76562548 2.14647357 7.76562548 0 6 C-0.125 2.875 -0.125 2.875 0 0 Z " fill="#306CB2" transform="translate(0,70)"/>
<path d="M0 0 C0 3.74161103 -0.51338171 7.28953557 -1 11 C0.32 11.99 1.64 12.98 3 14 C2.67 14.66 2.34 15.32 2 16 C-0.475 14.515 -0.475 14.515 -3 13 C-2.67 15.31 -2.34 17.62 -2 20 C-1.34 20 -0.68 20 0 20 C0.05416188 21.60379341 0.09286638 23.20811406 0.125 24.8125 C0.14820312 25.70582031 0.17140625 26.59914063 0.1953125 27.51953125 C0 30 0 30 -2 33 C-2.66 33 -3.32 33 -4 33 C-4.33 33.99 -4.66 34.98 -5 36 C-5.66 36 -6.32 36 -7 36 C-7.23332031 36.55558594 -7.46664062 37.11117187 -7.70703125 37.68359375 C-10.94664368 43.48749154 -16.85284154 49.40519891 -22.9375 52.1875 C-26 53 -26 53 -29 52 C-28.19949219 51.50693359 -28.19949219 51.50693359 -27.3828125 51.00390625 C-20.99481536 46.92575583 -15.44780142 42.25963722 -10 37 C-8.9171875 35.97326172 -8.9171875 35.97326172 -7.8125 34.92578125 C-4.54514092 31.57278574 -3.12422904 29.78264293 -2.375 25.0625 C-2.95207024 19.10336645 -4.42753928 13.06014019 -9 9 C-6.03 9.495 -6.03 9.495 -3 10 C-2.87625 8.72125 -2.7525 7.4425 -2.625 6.125 C-2.25 2.25 -2.25 2.25 0 0 Z " fill="#447AB8" transform="translate(70,31)"/>
<path d="M0 0 C3.34859659 2.23239772 3.50387279 2.65901849 4.3125 6.375 C4.49425781 7.14585938 4.67601563 7.91671875 4.86328125 8.7109375 C5.02659488 11.4452743 4.29427479 12.63033512 3 15 C2.23341065 24.19907224 5.13985102 30.96782122 11 38 C11.99 38 12.98 38 14 38 C14.45890625 37.01257813 14.9178125 36.02515625 15.390625 35.0078125 C16.00977171 33.71323301 16.62959914 32.41897893 17.25 31.125 C17.55035156 30.47402344 17.85070312 29.82304688 18.16015625 29.15234375 C19.54354777 26.29725912 20.53311777 24.30200424 23.234375 22.5546875 C23.81703125 22.37164062 24.3996875 22.18859375 25 22 C21.66666667 28.66666667 18.33333333 35.33333333 15 42 C11.03987151 41.50246263 9.28316029 40.76465945 6.8125 37.625 C6.07966797 36.71621094 6.07966797 36.71621094 5.33203125 35.7890625 C1.20668521 30.24827515 -0.37903598 24.47449651 0.375 17.5625 C0.58125 16.386875 0.7875 15.21125 1 14 C1.3605914 6.8931931 1.3605914 6.8931931 0 0 Z " fill="#477CBA" transform="translate(73,47)"/>
<path d="M0 0 C0.91007812 0.00902344 1.82015625 0.01804688 2.7578125 0.02734375 C3.80582031 0.04474609 3.80582031 0.04474609 4.875 0.0625 C5.205 1.0525 5.535 2.0425 5.875 3.0625 C2.905 3.0625 -0.065 3.0625 -3.125 3.0625 C-4.20634098 6.30652294 -4.04572948 6.94484005 -3.125 10.0625 C-2.16690187 13.72621329 -2.01128625 16.40661355 -3.125 20.0625 C-6.77460648 24.99962974 -11.5282153 29.03399912 -16.125 33.0625 C-17.115 32.7325 -18.105 32.4025 -19.125 32.0625 C-14.5 27.1875 -14.5 27.1875 -11.125 26.0625 C-10.815625 25.093125 -10.50625 24.12375 -10.1875 23.125 C-9.125 20.0625 -9.125 20.0625 -7.05859375 18.87109375 C-6.42050781 18.60425781 -5.78242187 18.33742188 -5.125 18.0625 C-5.35316406 17.42183594 -5.58132812 16.78117187 -5.81640625 16.12109375 C-7.6374732 10.64156045 -8.68164474 6.69036945 -7.125 1.0625 C-4.60024538 -0.19987731 -2.81299534 -0.03606404 0 0 Z " fill="#ABC3D9" transform="translate(56.125,38.9375)"/>
<path d="M0 0 C1.86813428 3.73626855 0.47755075 8.36187937 0.05859375 12.421875 C-0.02045446 17.24908549 0.85591927 20.40684085 3.671875 24.328125 C6.87316648 26.62703901 9.34445736 26.60535027 13.25 26.75 C14.51328125 26.80671875 15.7765625 26.8634375 17.078125 26.921875 C18.52445313 26.96054688 18.52445313 26.96054688 20 27 C16.40763478 29.39491014 13.25125984 30.04849346 9 30 C3.72784079 28.2426136 1.18282813 25.36502143 -2 21 C-3.86128204 15.41615387 -3.13770571 9.68852856 -2 4 C-5.93075644 4.57452746 -5.93075644 4.57452746 -9 7 C-8.6875 4.625 -8.6875 4.625 -8 2 C-4.77208445 -0.1519437 -3.71599191 -0.20086443 0 0 Z " fill="#487CBA" transform="translate(17,44)"/>
<path d="M0 0 C3.14178905 1.72798398 3.2749541 3.10821094 4.5 6.375 C5.180625 6.705 5.86125 7.035 6.5625 7.375 C7.201875 7.705 7.84125 8.035 8.5 8.375 C9.25 11 9.25 11 9.5 13.375 C10.49 13.705 11.48 14.035 12.5 14.375 C12.5 15.695 12.5 17.015 12.5 18.375 C13.098125 18.601875 13.69625 18.82875 14.3125 19.0625 C17.09348403 20.73109042 18.0641916 22.5033832 19.5 25.375 C19.5 26.035 19.5 26.695 19.5 27.375 C20.16 27.375 20.82 27.375 21.5 27.375 C25.5 31.72794118 25.5 31.72794118 25.5 35.375 C26.82 35.705 28.14 36.035 29.5 36.375 C29.17 38.025 28.84 39.675 28.5 41.375 C26.19 41.375 23.88 41.375 21.5 41.375 C22.82 40.055 24.14 38.735 25.5 37.375 C25.0875 36.85292969 24.675 36.33085938 24.25 35.79296875 C15.78708293 25.00652758 8.03632773 13.81848124 0.5 2.375 C-1.48 2.705 -3.46 3.035 -5.5 3.375 C-5.17 2.385 -4.84 1.395 -4.5 0.375 C-2.5 -0.625 -2.5 -0.625 0 0 Z " fill="#4C7FBB" transform="translate(76.5,27.625)"/>
<path d="M0 0 C0.66 0 1.32 0 2 0 C2 1.98 2 3.96 2 6 C1.34 6 0.68 6 0 6 C-0.26167969 6.5775 -0.52335937 7.155 -0.79296875 7.75 C-3.83606628 13.42257014 -8.79964258 18.28545899 -14 22 C-14.70382813 22.51820312 -15.40765625 23.03640625 -16.1328125 23.5703125 C-16.91398437 24.12460938 -17.69515625 24.67890625 -18.5 25.25 C-19.2321875 25.77078125 -19.964375 26.2915625 -20.71875 26.828125 C-23.34736928 28.17844312 -25.08490132 28.2258175 -28 28 C-26.54715104 24.18525692 -24.83868159 23.07195096 -21.1875 21.375 C-19.90939453 20.76785156 -19.90939453 20.76785156 -18.60546875 20.1484375 C-16.87944101 19.38763967 -15.13227128 18.67299244 -13.3671875 18.0078125 C-8.76057542 16.04658162 -5.88178831 12.84450024 -3.765625 8.41796875 C-3.06696336 6.6485322 -2.39697034 4.86739728 -1.76171875 3.07421875 C-1 1 -1 1 0 0 Z " fill="#A4BED6" transform="translate(126,100)"/>
<path d="M0 0 C0.89847656 0.00257813 1.79695312 0.00515625 2.72265625 0.0078125 C3.61855469 0.00523437 4.51445312 0.00265625 5.4375 0 C7.78515625 0.1328125 7.78515625 0.1328125 9.78515625 1.1328125 C9.66015625 2.8828125 9.66015625 2.8828125 8.78515625 5.1328125 C6.03515625 7.5078125 6.03515625 7.5078125 2.78515625 9.1328125 C-0.02734375 8.7578125 -0.02734375 8.7578125 -2.21484375 7.1328125 C-3.08984375 4.0703125 -3.08984375 4.0703125 -3.21484375 1.1328125 C-2.21484375 0.1328125 -2.21484375 0.1328125 0 0 Z " fill="#F6F9F9" transform="translate(7.21484375,4.8671875)"/>
<path d="M0 0 C1.65 0 3.3 0 5 0 C5.32291016 1.29550781 5.32291016 1.29550781 5.65234375 2.6171875 C7.24416355 6.6128859 9.53381835 9.17893583 12.5625 12.125 C13.09391602 12.65125977 13.62533203 13.17751953 14.17285156 13.71972656 C18.41084162 17.76450292 22.40078819 20.13359606 28 22 C27.67 22.99 27.34 23.98 27 25 C19.24903606 21.09022173 13.67217281 16.01206865 7.76171875 9.8046875 C5.10138602 6.97143937 5.10138602 6.97143937 2.14453125 4.8203125 C1.43683594 4.21960938 0.72914062 3.61890625 0 3 C0 2.01 0 1.02 0 0 Z " fill="#9DB9D5" transform="translate(100,0)"/>
<path d="M0 0 C0 3.74161103 -0.51338171 7.28953557 -1 11 C0.32 11.99 1.64 12.98 3 14 C2.67 14.66 2.34 15.32 2 16 C0.35 15.01 -1.3 14.02 -3 13 C-2.67 13.969375 -2.34 14.93875 -2 15.9375 C-0.73126248 20.29766837 -0.81614472 24.49554566 -1 29 C-1.33 29 -1.66 29 -2 29 C-2.10957031 28.28714844 -2.21914062 27.57429688 -2.33203125 26.83984375 C-3.79993888 17.09826112 -3.79993888 17.09826112 -9 9 C-6.03 9.495 -6.03 9.495 -3 10 C-2.814375 8.081875 -2.814375 8.081875 -2.625 6.125 C-2.25 2.25 -2.25 2.25 0 0 Z " fill="#5F8DC2" transform="translate(70,31)"/>
<path d="M0 0 C3.62931005 3.03676963 7.07987254 6.04416731 10.3125 9.5 C14.30592406 13.59371553 19.0175977 16.26318747 24 19 C21 20 21 20 18.90625 19.20703125 C11.23761973 14.76271143 5.45154649 8.92325677 0 2 C0 1.34 0 0.68 0 0 Z " fill="#4D81BC" transform="translate(104,6)"/>
<path d="M0 0 C3.34859659 2.23239772 3.50387279 2.65901849 4.3125 6.375 C4.49425781 7.14585938 4.67601563 7.91671875 4.86328125 8.7109375 C5.02653993 11.44435426 4.28409955 12.6267938 3 15 C2.74633343 20.15788689 3.15278902 24.91673409 4 30 C1.22278083 27.22278083 0.81432624 24.82106929 0 21 C0.27017161 18.65851268 0.61250787 16.32495277 1 14 C1.36024478 6.89325737 1.36024478 6.89325737 0 0 Z " fill="#5787BF" transform="translate(73,47)"/>
<path d="M0 0 C0.68835937 0.61488281 0.68835937 0.61488281 1.390625 1.2421875 C2.00421875 1.78101562 2.6178125 2.31984375 3.25 2.875 C3.85328125 3.40867187 4.4565625 3.94234375 5.078125 4.4921875 C10.78092265 8.96633362 16.81464146 9.13454447 23.875 9.0625 C25.02742188 9.05347656 26.17984375 9.04445313 27.3671875 9.03515625 C28.67042969 9.01775391 28.67042969 9.01775391 30 9 C25.16296666 11.85927438 20.44973678 11.20436513 15 11 C13.88625 11.02513672 13.88625 11.02513672 12.75 11.05078125 C9.50039438 10.96827173 7.40348603 10.35035523 4.953125 8.22265625 C0 2.7445 0 2.7445 0 0 Z " fill="#5586BE" transform="translate(11,75)"/>
<path d="M0 0 C0.91007812 0.00902344 1.82015625 0.01804688 2.7578125 0.02734375 C3.45648438 0.03894531 4.15515625 0.05054688 4.875 0.0625 C4.875 0.3925 4.875 0.7225 4.875 1.0625 C1.245 1.3925 -2.385 1.7225 -6.125 2.0625 C-5.66677532 5.53191546 -5.23368317 8.73645049 -4.125 12.0625 C-3.75 15.5 -3.75 15.5 -4.125 19.0625 C-6.625 21.5 -6.625 21.5 -9.125 23.0625 C-9.125 22.0725 -9.125 21.0825 -9.125 20.0625 C-7.805 19.4025 -6.485 18.7425 -5.125 18.0625 C-5.35316406 17.42183594 -5.58132812 16.78117187 -5.81640625 16.12109375 C-7.6374732 10.64156045 -8.68164474 6.69036945 -7.125 1.0625 C-4.60024538 -0.19987731 -2.81299534 -0.03606404 0 0 Z " fill="#5787BF" transform="translate(56.125,38.9375)"/>
<path d="M0 0 C-2.31 0.66 -4.62 1.32 -7 2 C-7.03738281 2.61488281 -7.07476563 3.22976562 -7.11328125 3.86328125 C-7.17902344 4.67152344 -7.24476563 5.47976562 -7.3125 6.3125 C-7.37050781 7.11300781 -7.42851563 7.91351563 -7.48828125 8.73828125 C-8.08473042 11.37449551 -8.90803975 12.33826294 -11 14 C-11.33 14 -11.66 14 -12 14 C-12.64445184 8.84438531 -11.23891648 5.81091544 -8.4375 1.640625 C-7 0 -7 0 -4.3125 -1.0625 C-2 -1 -2 -1 0 0 Z " fill="#306CB2" transform="translate(12,18)"/>
<path d="M0 0 C0.721875 0.103125 1.44375 0.20625 2.1875 0.3125 C-0.05296048 3.7321502 -2.3181788 5.26704369 -5.8125 7.3125 C-7.18234198 8.60829647 -8.5276049 9.93242749 -9.8125 11.3125 C-8.40722951 5.81916992 -6.17276971 0.6858633 0 0 Z " fill="#306CB2" transform="translate(28.8125,-0.3125)"/>
<path d="M0 0 C0.33 0.99 0.66 1.98 1 3 C-1.64 5.64 -4.28 8.28 -7 11 C-7.99 10.67 -8.98 10.34 -10 10 C-5.375 5.125 -5.375 5.125 -2 4 C-0.79117904 1.99983534 -0.79117904 1.99983534 0 0 Z " fill="#83A7CD" transform="translate(47,61)"/>
<path d="M0 0 C0 3 0 3 -1.53125 4.82421875 C-2.1809375 5.43910156 -2.830625 6.05398437 -3.5 6.6875 C-4.1496875 7.31011719 -4.799375 7.93273437 -5.46875 8.57421875 C-5.9740625 9.04472656 -6.479375 9.51523438 -7 10 C-7.66 9.67 -8.32 9.34 -9 9 C-8.06725891 7.87105124 -7.12859878 6.74699124 -6.1875 5.625 C-5.66542969 4.99851562 -5.14335938 4.37203125 -4.60546875 3.7265625 C-3 2 -3 2 0 0 Z " fill="#4D80BC" transform="translate(121,109)"/>
<path d="M0 0 C0.66 0.33 1.32 0.66 2 1 C0.54550599 2.0055761 -0.91372443 3.00430435 -2.375 4 C-3.59316406 4.8353125 -3.59316406 4.8353125 -4.8359375 5.6875 C-7 7 -7 7 -9 7 C-8.4375 5.1875 -8.4375 5.1875 -7 3 C-3.5 1.1875 -3.5 1.1875 0 0 Z " fill="#5F8DC2" transform="translate(107,121)"/>
<path d="M0 0 C0.66 0.33 1.32 0.66 2 1 C1.319375 2.0828125 1.319375 2.0828125 0.625 3.1875 C-0.85494358 5.74894081 -1.97217539 8.23277989 -3 11 C-3.33 11 -3.66 11 -4 11 C-4.36630156 7.06225823 -4.30233203 5.43460229 -2 2.125 C-1.34 1.42375 -0.68 0.7225 0 0 Z " fill="#4C7FBB" transform="translate(96,69)"/>
<path d="M0 0 C0 0.99 0 1.98 0 3 C-2.8125 5.25 -2.8125 5.25 -6 7 C-6.99 6.67 -7.98 6.34 -9 6 C-6.03 4.02 -3.06 2.04 0 0 Z " fill="#ABC3D9" transform="translate(109,121)"/>
<path d="M0 0 C0.66 0 1.32 0 2 0 C2 3 2 3 0.6875 4.5 C0.130625 4.995 -0.42625 5.49 -1 6 C-1.556875 6.556875 -2.11375 7.11375 -2.6875 7.6875 C-3.120625 8.120625 -3.55375 8.55375 -4 9 C-2.25 2.25 -2.25 2.25 0 0 Z " fill="#5F8DC2" transform="translate(126,100)"/>
</svg>
