<?xml version="1.0" encoding="UTF-8"?>
<svg version="1.1" xmlns="http://www.w3.org/2000/svg" width="128" height="128">
<path d="M0 0 C42.24 0 84.48 0 128 0 C128 42.24 128 84.48 128 128 C85.76 128 43.52 128 0 128 C0 85.76 0 43.52 0 0 Z " fill="#424755" transform="translate(0,0)"/>
<path d="M0 0 C19.36996286 -0.38923093 32.70904349 6.64409654 47.14453125 19.09375 C49.17675549 21.32361126 49.94001619 23.32316736 50.9921875 26.12109375 C51.6521875 26.45109375 52.3121875 26.78109375 52.9921875 27.12109375 C52.9921875 28.77109375 52.9921875 30.42109375 52.9921875 32.12109375 C50.9921875 32.12109375 48.9921875 32.12109375 46.9921875 32.12109375 C46.4765625 33.19359375 45.9609375 34.26609375 45.4296875 35.37109375 C43.58684616 39.07652117 41.54215827 42.62551268 39.4296875 46.18359375 C36.93042995 50.4151693 34.76204487 54.54028645 32.9921875 59.12109375 C33.53746094 58.97671875 34.08273438 58.83234375 34.64453125 58.68359375 C40.24178674 57.30580778 45.23164495 56.93821938 50.9921875 57.12109375 C51.7421875 58.78125 51.7421875 58.78125 51.9921875 61.12109375 C45.83953762 71.04519969 38.66071741 76.99567416 27.45556641 79.93505859 C16.0136859 82.49584724 1.88360503 83.58685492 -8.6015625 77.6640625 C-9.395625 77.15488281 -10.1896875 76.64570312 -11.0078125 76.12109375 C-11.925625 75.60160156 -12.8434375 75.08210938 -13.7890625 74.546875 C-25.36521664 67.72521274 -34.75596333 58.07389199 -39.0078125 45.12109375 C-39.66697831 40.56320334 -39.11543493 37.19583044 -37.0078125 33.12109375 C-37.22695313 32.36828125 -37.44609375 31.61546875 -37.671875 30.83984375 C-38.0078125 28.12109375 -38.0078125 28.12109375 -36.56640625 25.5078125 C-35.86644531 24.61707031 -35.16648437 23.72632812 -34.4453125 22.80859375 C-33.70539062 21.85210937 -32.96546875 20.895625 -32.203125 19.91015625 C-31.11644531 18.52957031 -31.11644531 18.52957031 -30.0078125 17.12109375 C-28.9427605 15.64376355 -27.8799241 14.16483091 -26.8203125 12.68359375 C-21.84768819 6.13786041 -15.37243984 2.00881457 -7.3203125 0.37109375 C-4.88154284 0.1750358 -2.44485578 0.09842926 0 0 Z " fill="#DC3F58" transform="translate(47.0078125,22.87890625)"/>
<path d="M0 0 C19.36996286 -0.38923093 32.70904349 6.64409654 47.14453125 19.09375 C49.17675549 21.32361126 49.94001619 23.32316736 50.9921875 26.12109375 C51.6521875 26.45109375 52.3121875 26.78109375 52.9921875 27.12109375 C52.9921875 28.77109375 52.9921875 30.42109375 52.9921875 32.12109375 C49.18087331 32.37693067 47.29066346 32.07366995 44.3046875 29.68359375 C43.27794922 28.86568359 43.27794922 28.86568359 42.23046875 28.03125 C39.77673008 25.93722171 37.38056712 23.78934622 34.9921875 21.62109375 C25.23420661 12.77048609 15.18707493 5.69688433 1.4921875 5.83203125 C-3.01312189 6.35295765 -6.91919626 8.24601644 -11.0078125 10.12109375 C-12.29837144 10.66539437 -13.58990971 11.20738425 -14.8828125 11.74609375 C-15.9140625 12.19984375 -16.9453125 12.65359375 -18.0078125 13.12109375 C-18.7709375 13.40984375 -19.5340625 13.69859375 -20.3203125 13.99609375 C-22.74999405 15.61588145 -23.15863859 17.37760879 -24.0078125 20.12109375 C-24.2759375 20.78109375 -24.5440625 21.44109375 -24.8203125 22.12109375 C-25.10052243 25.10999968 -23.67089286 26.72625803 -22.0078125 29.12109375 C-24.86259576 31.02428259 -26.42722558 31.58300365 -29.6953125 32.24609375 C-30.90767578 32.49746094 -30.90767578 32.49746094 -32.14453125 32.75390625 C-32.75941406 32.87507813 -33.37429687 32.99625 -34.0078125 33.12109375 C-33.6778125 34.11109375 -33.3478125 35.10109375 -33.0078125 36.12109375 C-30.67890154 37.14809819 -30.67890154 37.14809819 -27.9453125 37.80859375 C-26.56666016 38.18564453 -26.56666016 38.18564453 -25.16015625 38.5703125 C-24.44988281 38.75207031 -23.73960938 38.93382812 -23.0078125 39.12109375 C-23.71950262 44.0129408 -25.4876885 45.69122934 -29.0078125 49.12109375 C-29.0078125 50.11109375 -29.0078125 51.10109375 -29.0078125 52.12109375 C-27.94240234 52.30285156 -27.94240234 52.30285156 -26.85546875 52.48828125 C-25.93636719 52.65585938 -25.01726563 52.8234375 -24.0703125 52.99609375 C-23.15378906 53.15851563 -22.23726562 53.3209375 -21.29296875 53.48828125 C-20.53886719 53.69710937 -19.78476562 53.9059375 -19.0078125 54.12109375 C-17.47336156 57.18999562 -18.45796961 59.82203641 -19.0078125 63.12109375 C-15.02592532 64.83877057 -11.04301847 66.53146716 -7.0078125 68.12109375 C-5.20551082 64.29120269 -4.81159009 61.33987567 -5.0078125 57.12109375 C-3.57227225 56.61549467 -2.1342923 56.11681885 -0.6953125 55.62109375 C0.10519531 55.34265625 0.90570313 55.06421875 1.73046875 54.77734375 C3.9921875 54.12109375 3.9921875 54.12109375 6.9921875 54.12109375 C6.5568303 56.55909405 6.11325922 57.97250572 4.53125 59.9140625 C2.71367235 62.5204873 2.23514264 64.5671088 1.6796875 67.68359375 C1.49792969 68.63363281 1.31617188 69.58367187 1.12890625 70.5625 C0.7232432 73.36584358 0.7232432 73.36584358 2.9921875 76.12109375 C12.86522109 75.48412384 20.64243912 73.27803037 27.484375 65.86328125 C27.98195313 65.28835937 28.47953125 64.7134375 28.9921875 64.12109375 C32.86504504 59.65241197 36.15013737 57.83581265 41.9921875 57.12109375 C45.00187945 56.98556414 47.98257173 56.99569309 50.9921875 57.12109375 C51.7421875 58.78125 51.7421875 58.78125 51.9921875 61.12109375 C45.83953762 71.04519969 38.66071741 76.99567416 27.45556641 79.93505859 C16.0136859 82.49584724 1.88360503 83.58685492 -8.6015625 77.6640625 C-9.395625 77.15488281 -10.1896875 76.64570312 -11.0078125 76.12109375 C-11.925625 75.60160156 -12.8434375 75.08210938 -13.7890625 74.546875 C-25.36521664 67.72521274 -34.75596333 58.07389199 -39.0078125 45.12109375 C-39.66697831 40.56320334 -39.11543493 37.19583044 -37.0078125 33.12109375 C-37.22695313 32.36828125 -37.44609375 31.61546875 -37.671875 30.83984375 C-38.0078125 28.12109375 -38.0078125 28.12109375 -36.56640625 25.5078125 C-35.86644531 24.61707031 -35.16648437 23.72632812 -34.4453125 22.80859375 C-33.70539062 21.85210937 -32.96546875 20.895625 -32.203125 19.91015625 C-31.11644531 18.52957031 -31.11644531 18.52957031 -30.0078125 17.12109375 C-28.9427605 15.64376355 -27.8799241 14.16483091 -26.8203125 12.68359375 C-21.84768819 6.13786041 -15.37243984 2.00881457 -7.3203125 0.37109375 C-4.88154284 0.1750358 -2.44485578 0.09842926 0 0 Z " fill="#E7D533" transform="translate(47.0078125,22.87890625)"/>
<path d="M0 0 C1.37449321 0.58452647 2.74942426 1.16802565 4.125 1.75 C5.07375 2.1625 6.0225 2.575 7 3 C6.67 4.32 6.34 5.64 6 7 C2.62456153 6.43742692 0.04116865 5.52058432 -3 4 C-3.99 4 -4.98 4 -6 4 C-5.67 5.32 -5.34 6.64 -5 8 C-4.31292969 8.12117188 -3.62585938 8.24234375 -2.91796875 8.3671875 C-2.01691406 8.53476562 -1.11585937 8.70234375 -0.1875 8.875 C1.15248047 9.11863281 1.15248047 9.11863281 2.51953125 9.3671875 C5 10 5 10 8 12 C9.03125 12.165 10.0625 12.33 11.125 12.5 C12.548125 12.7475 12.548125 12.7475 14 13 C14.495 13.99 14.495 13.99 15 15 C16.48867276 15.92866164 18.01554706 16.79705336 19.5625 17.625 C20.38878906 18.07101563 21.21507812 18.51703125 22.06640625 18.9765625 C22.70449219 19.31429687 23.34257813 19.65203125 24 20 C22.73167312 22.56376764 21.46043635 25.12602212 20.1875 27.6875 C19.83107422 28.40873047 19.47464844 29.12996094 19.10742188 29.87304688 C17.58978722 32.92223944 16.06691623 35.89020838 14.29296875 38.80078125 C12.79838034 41.10584477 12.79838034 41.10584477 12.125 44.5 C10.79844016 48.62707506 9.21816668 50.14753408 6 53 C5.54496094 53.51820312 5.08992188 54.03640625 4.62109375 54.5703125 C0.93302602 58.73069408 -2.42158773 60.52406403 -8 61 C-11.5 60.625 -11.5 60.625 -14 60 C-14.77166822 52.2833178 -14.77166822 52.2833178 -12.921875 49.20703125 C-11.64361654 47.77817338 -10.32299869 46.38753521 -9 45 C-8.67 43.68 -8.34 42.36 -8 41 C-13.445 41.495 -13.445 41.495 -19 42 C-18.34 40.68 -17.68 39.36 -17 38 C-16.05125 37.731875 -15.1025 37.46375 -14.125 37.1875 C-9.61713572 35.47451157 -8.97544384 33.33078072 -7 29 C-7 28.01 -7 27.02 -7 26 C-8.98 25.34 -10.96 24.68 -13 24 C-10.373409 21.08156555 -7.33023661 19.05482685 -4 17 C-3.34 17 -2.68 17 -2 17 C-2 15.68 -2 14.36 -2 13 C-5.11785113 13.64644661 -5.11785113 13.64644661 -6 16 C-9.24271506 15.4409112 -10.93057424 14.5867822 -13 12 C-13 11.34 -13 10.68 -13 10 C-12.01 9.34 -11.02 8.68 -10 8 C-10 6.68 -10 5.36 -10 4 C-12.31 4.66 -14.62 5.32 -17 6 C-17.433125 5.05125 -17.86625 4.1025 -18.3125 3.125 C-19.79302201 -0.20041937 -19.79302201 -0.20041937 -23 -2 C-14.16027398 -5.44964918 -8.2941623 -3.69659949 0 0 Z " fill="#E62736" transform="translate(66,35)"/>
<path d="M0 0 C0 1.32 0 2.64 0 4 C0.62648438 3.97679687 1.25296875 3.95359375 1.8984375 3.9296875 C2.71570313 3.91164062 3.53296875 3.89359375 4.375 3.875 C5.18710937 3.85179687 5.99921875 3.82859375 6.8359375 3.8046875 C9 4 9 4 11 6 C10.625 9.625 10.625 9.625 10 13 C10.9075 13.0825 11.815 13.165 12.75 13.25 C16.45284895 14.1045036 17.75365406 14.97607277 20 18 C20 19.32 20 20.64 20 22 C15.82211609 24.08894196 10.39469089 23.10676192 5.875 22.4375 C2.12622123 22.01425078 -0.32444457 22.36384618 -4 23 C-6.62709455 23.2149441 -9.24480318 23.40703294 -11.875 23.5625 C-12.56335937 23.60568359 -13.25171875 23.64886719 -13.9609375 23.69335938 C-15.640455 23.79832922 -17.32020586 23.89955429 -19 24 C-18.67 24.66 -18.34 25.32 -18 26 C-16.15535156 26.09087891 -16.15535156 26.09087891 -14.2734375 26.18359375 C-12.64061573 26.26805005 -11.00780373 26.35269547 -9.375 26.4375 C-8.56675781 26.47681641 -7.75851563 26.51613281 -6.92578125 26.55664062 C-3.41845827 26.74198696 -0.06659876 26.9882878 3.3984375 27.59765625 C6.10462083 28.21929697 6.10462083 28.21929697 9 27 C10.68545724 26.90712229 12.374493 26.87002796 14.0625 26.875 C14.94035156 26.87242188 15.81820312 26.86984375 16.72265625 26.8671875 C19 27 19 27 21 28 C20.6875 31.375 20.6875 31.375 20 35 C15.63406889 37.91062074 11.1964325 38.21003545 6 38 C3.3125 36.1875 3.3125 36.1875 2 34 C2 33.34 2 32.68 2 32 C-4.7135587 31.11106956 -4.7135587 31.11106956 -10.7734375 33.30078125 C-12.25056122 35.11855482 -12.25056122 35.11855482 -14 38 C-14.99 38.495 -14.99 38.495 -16 39 C-16 39.66 -16 40.32 -16 41 C-14.94039062 41.06058594 -13.88078125 41.12117188 -12.7890625 41.18359375 C-11.40102779 41.26800127 -10.01300768 41.35264917 -8.625 41.4375 C-7.92632812 41.47681641 -7.22765625 41.51613281 -6.5078125 41.55664062 C-1.2265625 41.88671875 -1.2265625 41.88671875 1 43 C0.67 44.32 0.34 45.64 0 47 C-3.465 47.495 -3.465 47.495 -7 48 C-7 49.65 -7 51.3 -7 53 C-6.05125 52.95875 -5.1025 52.9175 -4.125 52.875 C-1 53 -1 53 1 55 C1.99 55 2.98 55 4 55 C4 52.03 4 49.06 4 46 C14.1089838 42.47717231 14.1089838 42.47717231 19 42 C19.99 42.495 19.99 42.495 21 43 C20.58164727 45.82388095 19.97552462 47.02802825 18.0625 49.21875 C15.67987613 52.43168219 15.03786779 54.91255446 14.25 58.8125 C14.00765625 59.97394531 13.7653125 61.13539062 13.515625 62.33203125 C13.34546875 63.21246094 13.1753125 64.09289062 13 65 C12.34 64.34 11.68 63.68 11 63 C11.26377658 56.69979783 12.54929163 51.59427961 17 47 C17.33 46.01 17.66 45.02 18 44 C14.37 44.99 10.74 45.98 7 47 C7.0928125 48.5778125 7.0928125 48.5778125 7.1875 50.1875 C6.9922214 54.15816493 6.29674932 55.84196969 4 59 C-7.55 54.45 -7.55 54.45 -9 53 C-8.82364548 50.30917128 -8.38164079 47.67148554 -8 45 C-11.3 44.34 -14.6 43.68 -18 43 C-18.33 41.68 -18.66 40.36 -19 39 C-17.8203125 37.18359375 -17.8203125 37.18359375 -16.125 35.4375 C-13.93012209 33.14563911 -13.02939192 32.08817577 -12 29 C-15.3 28.34 -18.6 27.68 -22 27 C-22.33 25.68 -22.66 24.36 -23 23 C-19.37 21.68 -15.74 20.36 -12 19 C-12.99 17.35 -13.98 15.7 -15 14 C-14.875 12.0625 -14.875 12.0625 -14 10 C-13.67 9.01 -13.34 8.02 -13 7 C-10.17899619 2.76849429 -5.22707114 0 0 0 Z " fill="#DD7D54" transform="translate(36,33)"/>
<path d="M0 0 C2.62712137 -0.47765843 4.3655845 -0.42961632 6.609375 1.08984375 C8.45086167 2.68213841 10.22255781 4.33663795 12 6 C13.33315167 7.104386 14.6664885 8.20854851 16 9.3125 C20.29236012 13.07144061 23.74039339 17.32927256 27 22 C27.82564453 23.11375 27.82564453 23.11375 28.66796875 24.25 C30.45603915 27.94150019 30.53249865 31.35414754 30.5 35.375 C30.49645508 36.16285889 30.49291016 36.95071777 30.48925781 37.76245117 C30.12236135 50.98800508 25.45541274 60.78097258 16 70 C15.29875 70.763125 14.5975 71.52625 13.875 72.3125 C12 74 12 74 9 74 C9.66 72.68 10.32 71.36 11 70 C11.66 70 12.32 70 13 70 C13.28875 69.38125 13.5775 68.7625 13.875 68.125 C15 66 15 66 17 64 C17.67940467 61.57284794 17.67940467 61.57284794 18.125 58.875 C18.29257813 57.96492188 18.46015625 57.05484375 18.6328125 56.1171875 C18.75398438 55.41851562 18.87515625 54.71984375 19 54 C12.35590042 53.78567421 6.46794133 54.48766299 0 56 C1.14594284 50.61406867 3.18755671 46.97821346 6.3359375 42.48828125 C9.21779817 38.17902011 11.58471983 33.58218046 14 29 C16.39453125 28.875 16.39453125 28.875 19 29 C20.6875 31 20.6875 31 22 33 C22.66 33 23.32 33 24 33 C24 31.35 24 29.7 24 28 C23.34 27.67 22.68 27.34 22 27 C22 25.02 22 23.04 22 21 C20.68 20.67 19.36 20.34 18 20 C17.95875 19.071875 17.9175 18.14375 17.875 17.1875 C17.58625 16.135625 17.2975 15.08375 17 14 C14.13343033 12.31668061 14.13343033 12.31668061 11 11 C8 7.7 8 7.7 8 5 C6.865625 4.731875 5.73125 4.46375 4.5625 4.1875 C3.386875 3.795625 2.21125 3.40375 1 3 C0.67 2.01 0.34 1.02 0 0 Z " fill="#364365" transform="translate(79,27)"/>
<path d="M0 0 C4 4 4 4 4 7 C4.66 7 5.32 7 6 7 C6 6.34 6 5.68 6 5 C7.65 4.67 9.3 4.34 11 4 C10.625 6.4375 10.625 6.4375 10 9 C9.01 9.495 9.01 9.495 8 10 C6.9328428 26.56581604 6.9328428 26.56581604 12 42 C12.99642648 43.0035608 13.99569281 44.00432582 15 45 C15 45.66 15 46.32 15 47 C15.99 47.33 16.98 47.66 18 48 C19.24609375 49.48828125 19.24609375 49.48828125 20.4375 51.3125 C22.39186185 54.190742 24.43577658 56.62571905 27 59 C23.37159027 58.38416899 21.13879117 56.86239708 18.25 54.625 C17.45078125 54.01914063 16.6515625 53.41328125 15.828125 52.7890625 C15.22484375 52.19867188 14.6215625 51.60828125 14 51 C14 50.01 14 49.02 14 48 C12.68 47.67 11.36 47.34 10 47 C10 46.34 10 45.68 10 45 C6.64566891 45.94933899 3.30753495 46.89748835 0 48 C0 32.16 0 16.32 0 0 Z " fill="#344267" transform="translate(0,38)"/>
<path d="M0 0 C4.42337163 1.6710515 6.78829739 4.847821 8.8125 9.0625 C9.01504937 12.05516699 8.55154857 14.1063057 7.8125 17.0625 C1.46426798 19.37094801 -4.48231414 19.26068283 -11.1875 19.0625 C-11.80224609 17.27612305 -11.80224609 17.27612305 -12.1875 15.0625 C-10.81843943 12.51371702 -9.44186772 10.24388729 -7.8125 7.875 C-7.38710937 7.23369141 -6.96171875 6.59238281 -6.5234375 5.93164062 C-2.6146909 0.07470545 -2.6146909 0.07470545 0 0 Z " fill="#1F7FC7" transform="translate(96.1875,59.9375)"/>
<path d="M0 0 C0.99 0.0309375 0.99 0.0309375 2 0.0625 C1.52207339 4.72438061 -0.27676585 6.93430734 -3.4375 10.3125 C-4.64212891 11.61960937 -4.64212891 11.61960937 -5.87109375 12.953125 C-9.20752187 16.25894368 -11.52396049 16.2823694 -16.125 16.625 C-17.22070312 16.70878906 -18.31640625 16.79257813 -19.4453125 16.87890625 C-20.28835937 16.93949219 -21.13140625 17.00007813 -22 17.0625 C-22 17.7225 -22 18.3825 -22 19.0625 C-27.61 19.0625 -33.22 19.0625 -39 19.0625 C-39 18.7325 -39 18.4025 -39 18.0625 C-38.39414062 17.90394531 -37.78828125 17.74539062 -37.1640625 17.58203125 C-28.33516081 15.1235217 -20.78620612 12.5860544 -14.875 5.3125 C-12.33536074 2.21875763 -10.85491426 0.50624627 -6.8125 0 C-4.54197174 0.03722177 -2.27034069 0.04729876 0 0 Z " fill="#EDDE31" transform="translate(92,82.9375)"/>
<path d="M0 0 C0.75 1.66015625 0.75 1.66015625 1 4 C-5.16242886 13.93987924 -12.32654847 19.8405483 -23.52783203 22.81835938 C-29.32722349 24.13057905 -35.06768336 24.39339934 -41 24.4375 C-41.88381348 24.4475708 -42.76762695 24.4576416 -43.67822266 24.46801758 C-49.18773469 24.3942715 -53.0899573 23.51506263 -58 21 C-58 20.67 -58 20.34 -58 20 C-56.35 19.67 -54.7 19.34 -53 19 C-52.814375 17.2984375 -52.814375 17.2984375 -52.625 15.5625 C-52.41875 14.386875 -52.2125 13.21125 -52 12 C-51.34 11.67 -50.68 11.34 -50 11 C-49.855625 12.134375 -49.71125 13.26875 -49.5625 14.4375 C-49.38828522 17.80777201 -49.38828522 17.80777201 -48 19 C-38.17149101 18.53197576 -30.2803043 16.08167862 -23.5078125 8.7421875 C-23.01023438 8.16726562 -22.51265625 7.59234375 -22 7 C-15.80399664 -0.14923464 -8.91230254 -0.37134594 0 0 Z M-12.8125 2.9375 C-16.82860826 3.44605747 -18.25145312 5.09158744 -20.75 8.1875 C-26.8763282 15.76099234 -35.60553354 19.19337183 -45 21 C-45 21.33 -45 21.66 -45 22 C-39.39 22 -33.78 22 -28 22 C-28 21.34 -28 20.68 -28 20 C-26.78763672 19.97873047 -26.78763672 19.97873047 -25.55078125 19.95703125 C-18.91854718 19.798559 -18.91854718 19.798559 -13.1875 16.875 C-12.465625 15.92625 -11.74375 14.9775 -11 14 C-9.73713769 12.80402659 -8.46583724 11.61691829 -7.1875 10.4375 C-5.33961296 8.82445401 -5.33961296 8.82445401 -4 7 C-4 5.68 -4 4.36 -4 3 C-6.93728719 2.90820978 -9.87252429 2.98569632 -12.8125 2.9375 Z " fill="#D8B738" transform="translate(98,80)"/>
<path d="M0 0 C-0.442365 2.47724402 -0.90943636 3.88679545 -2.5 5.875 C-4.37194738 8.52692545 -4.50702645 10.8308843 -5 14 C-5.99 14.495 -5.99 14.495 -7 15 C-7.37400786 17.32716 -7.70764733 19.66117862 -8 22 C-8.33 22.33 -8.66 22.66 -9 23 C-12.4375 22.75 -12.4375 22.75 -16 22 C-16.66 21.01 -17.32 20.02 -18 19 C-18.845625 18.505 -19.69125 18.01 -20.5625 17.5 C-23 16 -23 16 -24 13 C-20.7 13.33 -17.4 13.66 -14 14 C-12.19769832 10.17010894 -11.80377759 7.21878192 -12 3 C-10.56445975 2.49440092 -9.1264798 1.9957251 -7.6875 1.5 C-6.48673828 1.08234375 -6.48673828 1.08234375 -5.26171875 0.65625 C-3 0 -3 0 0 0 Z " fill="#EDE031" transform="translate(54,77)"/>
<path d="M0 0 C1.45823212 -0.0270043 2.91660675 -0.04639787 4.375 -0.0625 C5.18710937 -0.07410156 5.99921875 -0.08570312 6.8359375 -0.09765625 C9 0 9 0 11 1 C10.67 2.32 10.34 3.64 10 5 C7.69 5.33 5.38 5.66 3 6 C3 7.65 3 9.3 3 11 C3.94875 10.95875 4.8975 10.9175 5.875 10.875 C9 11 9 11 11 13 C11.99 13 12.98 13 14 13 C14 10.03 14 7.06 14 4 C24.1089838 0.47717231 24.1089838 0.47717231 29 0 C29.66 0.33 30.32 0.66 31 1 C30.58164727 3.82388095 29.97552462 5.02802825 28.0625 7.21875 C25.67987613 10.43168219 25.03786779 12.91255446 24.25 16.8125 C24.00765625 17.97394531 23.7653125 19.13539062 23.515625 20.33203125 C23.34546875 21.21246094 23.1753125 22.09289062 23 23 C22.34 22.34 21.68 21.68 21 21 C21.26377658 14.69979783 22.54929163 9.59427961 27 5 C27.33 4.01 27.66 3.02 28 2 C24.37 2.99 20.74 3.98 17 5 C17.061875 6.051875 17.12375 7.10375 17.1875 8.1875 C16.9922214 12.15816493 16.29674932 13.84196969 14 17 C2.45 12.45 2.45 12.45 1 11 C1.17635452 8.30917128 1.61835921 5.67148554 2 3 C1.34 2.67 0.68 2.34 0 2 C0 1.34 0 0.68 0 0 Z " fill="#DE7D55" transform="translate(26,75)"/>
<path d="M0 0 C20.37421409 -0.4108679 34.32973357 7.4747825 48.98046875 21.12109375 C48.65046875 21.78109375 48.32046875 22.44109375 47.98046875 23.12109375 C47.39265625 22.47140625 47.39265625 22.47140625 46.79296875 21.80859375 C45.00705334 20.02648731 45.00705334 20.02648731 42.66796875 18.74609375 C39.98046875 17.12109375 39.98046875 17.12109375 37.04296875 14.62109375 C34.09564606 12.02241417 34.09564606 12.02241417 30.66796875 10.49609375 C27.98046875 9.12109375 27.98046875 9.12109375 26.98046875 6.12109375 C26.07296875 6.16234375 25.16546875 6.20359375 24.23046875 6.24609375 C20.9396392 6.11952338 19.8162898 5.54439557 16.98046875 4.12109375 C5.982241 1.85297674 -5.07828241 3.35535907 -16.01953125 5.12109375 C-10.7127977 0.57765749 -6.72401368 0.26965643 0 0 Z " fill="#B7A637" transform="translate(47.01953125,22.87890625)"/>
<path d="M0 0 C2.27734375 0.20703125 2.27734375 0.20703125 4.9375 0.8125 C5.81277344 1.00457031 6.68804687 1.19664063 7.58984375 1.39453125 C10 2 10 2 13 3 C13 5.125 13 5.125 12 8 C8.69066046 11.16835871 5.68969985 14 1 14 C-2.61643836 6.31506849 -2.61643836 6.31506849 -2 2 C-1.34 1.34 -0.68 0.68 0 0 Z " fill="#E8D533" transform="translate(11,59)"/>
<path d="M0 0 C0.78375 0.04125 1.5675 0.0825 2.375 0.125 C1.85231534 2.88776177 1.26630413 5.4510876 0.375 8.125 C1.00148438 8.24617188 1.62796875 8.36734375 2.2734375 8.4921875 C3.49933594 8.74355469 3.49933594 8.74355469 4.75 9 C5.56210937 9.16242187 6.37421875 9.32484375 7.2109375 9.4921875 C9.375 10.125 9.375 10.125 11.375 12.125 C11.375 13.115 11.375 14.105 11.375 15.125 C6.89365271 16.41884979 3.56005684 15.73833104 -0.9375 14.6875 C-2.81888672 14.25630859 -2.81888672 14.25630859 -4.73828125 13.81640625 C-5.69089844 13.58824219 -6.64351562 13.36007813 -7.625 13.125 C-5.875 9.25 -5.875 9.25 -3.625 8.125 C-3.934375 6.701875 -3.934375 6.701875 -4.25 5.25 C-4.37375 4.21875 -4.4975 3.1875 -4.625 2.125 C-2.625 0.125 -2.625 0.125 0 0 Z " fill="#D9B839" transform="translate(42.625,38.875)"/>
<path d="M0 0 C1.14814997 2.29629994 1.30769809 4.07698086 1.5625 6.625 C1.64628906 7.44226562 1.73007813 8.25953125 1.81640625 9.1015625 C1.87699219 9.72804688 1.93757812 10.35453125 2 11 C1.01 11.66 0.02 12.32 -1 13 C-0.33735914 19.06264222 -0.33735914 19.06264222 1 25 C1.763125 24.505 2.52625 24.01 3.3125 23.5 C6 22 6 22 9 22 C8.34 22.66 7.68 23.32 7 24 C7 24.99 7 25.98 7 27 C7.71027344 27.12117188 8.42054687 27.24234375 9.15234375 27.3671875 C10.07144531 27.53476563 10.99054687 27.70234375 11.9375 27.875 C12.85402344 28.03742188 13.77054688 28.19984375 14.71484375 28.3671875 C15.84599609 28.68042969 15.84599609 28.68042969 17 29 C18.53445094 32.06890187 17.54984289 34.70094266 17 38 C18.7015625 38.680625 18.7015625 38.680625 20.4375 39.375 C24 41 24 41 25 43 C18.63010502 42.39906651 18.63010502 42.39906651 16.125 40.8125 C14.53286474 38.24739319 14.24890911 35.98690928 14 33 C14.33 32.01 14.66 31.02 15 30 C11.7 29.67 8.4 29.34 5 29 C4.67 30.32 4.34 31.64 4 33 C-0.16009023 28.21589624 -3.21965223 22.08065822 -3.375 15.6875 C-3.03413863 12.33569655 -2.48368378 10.8684553 -1 8 C-1.32550502 6.33178677 -1.65846063 4.66500443 -2 3 C-1.34 2.01 -0.68 1.02 0 0 Z " fill="#BEA938" transform="translate(11,48)"/>
<path d="M0 0 C2.27550878 0.92442544 3.27645106 2.08895106 5 3.8125 C5.825 4.121875 6.65 4.43125 7.5 4.75 C10.39079782 5.97858907 11.41287288 7.1394438 13 9.8125 C13 10.4725 13 11.1325 13 11.8125 C13.94875 11.998125 14.8975 12.18375 15.875 12.375 C17.421875 13.0865625 17.421875 13.0865625 19 13.8125 C20.1875 17.375 20.1875 17.375 21 20.8125 C21.99 21.1425 22.98 21.4725 24 21.8125 C24 23.7925 24 25.7725 24 27.8125 C24.99 28.1425 25.98 28.4725 27 28.8125 C27 30.4625 27 32.1125 27 33.8125 C25.68 33.8125 24.36 33.8125 23 33.8125 C22.6596875 32.8534375 22.6596875 32.8534375 22.3125 31.875 C21.15983399 29.53817164 21.15983399 29.53817164 18.4375 29.1875 C17.633125 29.06375 16.82875 28.94 16 28.8125 C15.67 28.1525 15.34 27.4925 15 26.8125 C17.64 27.4725 20.28 28.1325 23 28.8125 C23 27.1625 23 25.5125 23 23.8125 C22.071875 23.4721875 22.071875 23.4721875 21.125 23.125 C19 21.8125 19 21.8125 18.2109375 19.54296875 C14.48947872 11.15167945 3.1029527 5.21860844 -5 1.8125 C-2 -0.1875 -2 -0.1875 0 0 Z " fill="#535755" transform="translate(77,26.1875)"/>
<path d="M0 0 C2.125 0 2.125 0 5 1 C7.40872371 3.41424831 9.48786794 5.93594293 11 9 C10.6640625 11.26171875 10.6640625 11.26171875 10 13 C8.54207116 13.05399736 7.08357288 13.09279177 5.625 13.125 C4.81289062 13.14820313 4.00078125 13.17140625 3.1640625 13.1953125 C1 13 1 13 -1 11 C-1.23046875 8.90625 -1.23046875 8.90625 -1.1875 6.5 C-1.17783203 5.30890625 -1.17783203 5.30890625 -1.16796875 4.09375 C-1 2 -1 2 0 0 Z " fill="#6C6E55" transform="translate(116,0)"/>
<path d="M0 0 C0.76171875 1.65234375 0.76171875 1.65234375 1 4 C-0.73046875 6.69140625 -0.73046875 6.69140625 -3.1875 9.5625 C-3.98542969 10.51253906 -4.78335938 11.46257812 -5.60546875 12.44140625 C-7.63571551 14.61075638 -9.55650964 16.33168589 -12 18 C-12.66 17.67 -13.32 17.34 -14 17 C-13.36191406 16.32453125 -12.72382812 15.6490625 -12.06640625 14.953125 C-11.24011719 14.06109375 -10.41382812 13.1690625 -9.5625 12.25 C-8.73878906 11.36828125 -7.91507813 10.4865625 -7.06640625 9.578125 C-5.16931982 7.21124968 -4.37897068 5.9490809 -4 3 C-6.08450717 3.2831556 -8.16758367 3.57685669 -10.25 3.875 C-11.41015625 4.03742188 -12.5703125 4.19984375 -13.765625 4.3671875 C-16.58193313 4.91820431 -18.55217557 5.55796482 -21 7 C-20.01495797 4.39475223 -19.46196225 3.23403759 -16.93359375 1.953125 C-11.08638515 0.30602399 -6.07460627 -0.29393256 0 0 Z " fill="#9B9737" transform="translate(98,80)"/>
<path d="M0 0 C0.66 0.33 1.32 0.66 2 1 C1.8125 3.375 1.8125 3.375 1 6 C-2.85396294 8.38038888 -6.5702869 8.17371424 -11 8 C-11.66 6.68 -12.32 5.36 -13 4 C-8.64772278 0.54819393 -5.55432134 -0.2363541 0 0 Z " fill="#D9B839" transform="translate(53,61)"/>
<path d="M0 0 C0.99 0.33 1.98 0.66 3 1 C3 1.99 3 2.98 3 4 C3.804375 4.2475 4.60875 4.495 5.4375 4.75 C8 6 8 6 8.9375 8 C8.958125 8.66 8.97875 9.32 9 10 C8.34 10.66 7.68 11.32 7 12 C4.3984375 11.9765625 4.3984375 11.9765625 1.375 11.625 C0.37210938 11.51414062 -0.63078125 11.40328125 -1.6640625 11.2890625 C-2.82035156 11.14597656 -2.82035156 11.14597656 -4 11 C-4 9.68 -4 8.36 -4 7 C-2.68 6.34 -1.36 5.68 0 5 C-0.66 3.68 -1.32 2.36 -2 1 C-1.34 0.67 -0.68 0.34 0 0 Z " fill="#DC3C59" transform="translate(28,37)"/>
<path d="M0 0 C0.66 0.66 1.32 1.32 2 2 C0.90945312 2.02126953 0.90945312 2.02126953 -0.203125 2.04296875 C-8.37914405 2.43080555 -14.63133411 4.5669931 -22 8 C-26.62407407 10.12530864 -26.62407407 10.12530864 -30 9 C-26.66490454 3.63484643 -22.85651388 2.42914929 -17 1 C-11.48139163 -0.10372167 -5.6181714 -0.60598192 0 0 Z " fill="#EDDF31" transform="translate(55,25)"/>
<path d="M0 0 C0.74609375 1.58984375 0.74609375 1.58984375 1 4 C-0.23019857 6.32952494 -1.46499851 8.39877466 -2.9375 10.5625 C-6.03795071 14.88718657 -6.03795071 14.88718657 -7 20 C-0.07 20.495 -0.07 20.495 7 21 C7.33 22.65 7.66 24.3 8 26 C7.34 25.01 6.68 24.02 6 23 C-0.21367621 21.75458645 -6.95080853 23.58557527 -13 25 C-11.84596959 19.57605707 -9.76813657 15.88138784 -6.59765625 11.35546875 C-4.13090891 7.71867499 -2.06914309 3.87277666 0 0 Z " fill="#686A56" transform="translate(92,58)"/>
<path d="M0 0 C-1.80526279 2.35073228 -2.69589052 2.95594624 -5.6796875 3.38818359 C-7.26136719 3.39325928 -7.26136719 3.39325928 -8.875 3.3984375 C-10.02484375 3.40230469 -11.1746875 3.40617187 -12.359375 3.41015625 C-13.56078125 3.39855469 -14.7621875 3.38695313 -16 3.375 C-17.20140625 3.38660156 -18.4028125 3.39820312 -19.640625 3.41015625 C-21.36539063 3.40435547 -21.36539063 3.40435547 -23.125 3.3984375 C-24.17945313 3.39505371 -25.23390625 3.39166992 -26.3203125 3.38818359 C-29.30410948 2.95594624 -30.19473721 2.35073228 -32 0 C-30.99582031 0.01160156 -29.99164063 0.02320312 -28.95703125 0.03515625 C-21.103777 0.0959295 -13.39946638 -0.08361759 -5.57421875 -0.87890625 C-3 -1 -3 -1 0 0 Z " fill="#344268" transform="translate(75,106)"/>
<path d="M0 0 C-0.442365 2.47724402 -0.90943636 3.88679545 -2.5 5.875 C-4.37838523 8.53604574 -4.63634558 10.79984114 -5 14 C-5.33 14 -5.66 14 -6 14 C-6 10.7 -6 7.4 -6 4 C-7.32 4 -8.64 4 -10 4 C-9.79375 4.845625 -9.5875 5.69125 -9.375 6.5625 C-8.94156988 10.53560946 -9.7237237 13.24624618 -11 17 C-13.375 17.1875 -13.375 17.1875 -16 17 C-16.66 16.01 -17.32 15.02 -18 14 C-16.68 14 -15.36 14 -14 14 C-12.19769832 10.17010894 -11.80377759 7.21878192 -12 3 C-10.56445975 2.49440092 -9.1264798 1.9957251 -7.6875 1.5 C-6.88699219 1.2215625 -6.08648437 0.943125 -5.26171875 0.65625 C-3 0 -3 0 0 0 Z " fill="#D9B839" transform="translate(54,77)"/>
<path d="M0 0 C0.99 0.33 1.98 0.66 3 1 C2.34 1 1.68 1 1 1 C0.34 2.32 -0.32 3.64 -1 5 C2.90432869 5 5.38026598 4.31626692 9 3 C6.00550156 6.61835228 3.15121923 7.89489195 -1.1953125 9.2890625 C-3.21000614 9.94418873 -3.21000614 9.94418873 -5 12 C-6.3153341 12.70151152 -7.65117592 13.36525925 -9 14 C-10.11375 14.556875 -10.11375 14.556875 -11.25 15.125 C-11.8275 15.41375 -12.405 15.7025 -13 16 C-10.08538678 9.81162692 -5.87785873 3.65380408 0 0 Z " fill="#C3AC38" transform="translate(28,28)"/>
<path d="M0 0 C1.47010495 2.9402099 1.70957948 5.74729019 2 9 C1.34 9.66 0.68 10.32 0 11 C-1.4440571 20.74738545 4.47006806 29.34317117 10 37 C7.21888247 36.70202312 6.05994224 36.05619585 4 34.125 C-0.88725282 26.48866747 -2.74994497 18.9849176 -2 10 C-1.93296875 9.14535156 -1.8659375 8.29070313 -1.796875 7.41015625 C-1.20909686 1.20909686 -1.20909686 1.20909686 0 0 Z " fill="#525655" transform="translate(9,49)"/>
<path d="M0 0 C-1.35347689 0.46036629 -2.707827 0.91816537 -4.0625 1.375 C-4.81660156 1.63023438 -5.57070312 1.88546875 -6.34765625 2.1484375 C-7.22292969 2.42945312 -8.09820312 2.71046875 -9 3 C-10.04027344 3.35707031 -11.08054688 3.71414062 -12.15234375 4.08203125 C-17.00226983 5.23912021 -21.5332617 5.33006272 -26.5 5.3125 C-27.41136719 5.32861328 -28.32273437 5.34472656 -29.26171875 5.36132812 C-34.95782752 5.36543787 -38.93689739 4.63587347 -44 2 C-41.37041971 1.02608137 -40.31407482 0.86983574 -37.6730957 1.96435547 C-34.85493819 3.05620168 -32.91998137 3.23214701 -29.91796875 3.1953125 C-28.98662109 3.18886719 -28.05527344 3.18242188 -27.09570312 3.17578125 C-26.13599609 3.15902344 -25.17628906 3.14226562 -24.1875 3.125 C-23.20845703 3.11597656 -22.22941406 3.10695313 -21.22070312 3.09765625 C-18.81354939 3.07417182 -16.40690257 3.0413284 -14 3 C-14 2.34 -14 1.68 -14 1 C-12.04310963 0.63794536 -10.08442332 0.28558579 -8.125 -0.0625 C-6.48917969 -0.35833984 -6.48917969 -0.35833984 -4.8203125 -0.66015625 C-2 -1 -2 -1 0 0 Z " fill="#A39B37" transform="translate(84,99)"/>
<path d="M0 0 C2.62187494 1.04874998 3.79371361 1.64931313 5.25 4.125 C5.4975 4.74375 5.745 5.3625 6 6 C4.35 6.33 2.7 6.66 1 7 C1 7.66 1 8.32 1 9 C-0.65 9.33 -2.3 9.66 -4 10 C-4.33 8.02 -4.66 6.04 -5 4 C-3.35 2.68 -1.7 1.36 0 0 Z " fill="#EAD932" transform="translate(16,46)"/>
<path d="M0 0 C0.78375 0.04125 1.5675 0.0825 2.375 0.125 C1.85231534 2.88776177 1.26630413 5.4510876 0.375 8.125 C1.365 8.455 2.355 8.785 3.375 9.125 C0.375 10.125 0.375 10.125 -2.625 10.125 C-2.625 11.115 -2.625 12.105 -2.625 13.125 C-4.275 13.125 -5.925 13.125 -7.625 13.125 C-5.875 9.25 -5.875 9.25 -3.625 8.125 C-3.934375 6.701875 -3.934375 6.701875 -4.25 5.25 C-4.37375 4.21875 -4.4975 3.1875 -4.625 2.125 C-2.625 0.125 -2.625 0.125 0 0 Z " fill="#D6BC56" transform="translate(42.625,38.875)"/>
<path d="M0 0 C5.91813291 2.73144596 10.47149487 6.36104352 15 11 C19.05928006 14.79121439 22.85928622 17.74310127 28 20 C28.33 18.68 28.66 17.36 29 16 C29 17.65 29 19.3 29 21 C25.18868581 21.25583692 23.29847596 20.9525762 20.3125 18.5625 C19.63058594 18.01851562 18.94867188 17.47453125 18.24609375 16.9140625 C14.88422473 14.04916542 11.60212344 11.10290772 8.34375 8.12109375 C6.39261682 6.35531823 4.41541188 4.6602408 2.375 3 C1.59125 2.34 0.8075 1.68 0 1 C0 0.67 0 0.34 0 0 Z " fill="#D6B638" transform="translate(71,34)"/>
<path d="M0 0 C1.27310312 0.93441535 2.543388 1.87267111 3.8125 2.8125 C4.52019531 3.33457031 5.22789063 3.85664062 5.95703125 4.39453125 C7.7873679 5.83290288 9.36245375 7.35320208 11 9 C12.65071396 10.02611949 14.31970006 11.02308143 16 12 C18.04049422 13.2704964 20.05017465 14.59431196 22 16 C22 16.66 22 17.32 22 18 C22.66 18.33 23.32 18.66 24 19 C14.54524649 17.2368758 5.92750961 9.18619066 0 2 C0 1.34 0 0.68 0 0 Z " fill="#B7A637" transform="translate(16,81)"/>
<path d="M0 0 C2.475 0.99 2.475 0.99 5 2 C5 3.98 5 5.96 5 8 C5.99 8.33 6.98 8.66 8 9 C8 10.65 8 12.3 8 14 C6.68 14 5.36 14 4 14 C3.6596875 13.0409375 3.6596875 13.0409375 3.3125 12.0625 C2.15983399 9.72567164 2.15983399 9.72567164 -0.5625 9.375 C-1.366875 9.25125 -2.17125 9.1275 -3 9 C-3.33 8.34 -3.66 7.68 -4 7 C-1.36 7.66 1.28 8.32 4 9 C4 7.35 4 5.7 4 4 C2.68 3.34 1.36 2.68 0 2 C0 1.34 0 0.68 0 0 Z " fill="#8F8D3C" transform="translate(96,46)"/>
<path d="M0 0 C4.84455959 2.37823834 4.84455959 2.37823834 7 4 C7.9375 6.75 7.9375 6.75 8 9 C5.36 9 2.72 9 0 9 C0 6.03 0 3.06 0 0 Z " fill="#344268" transform="translate(0,119)"/>
<path d="M0 0 C7.53673367 0.71778416 12.11781742 4.91876941 17.5 9.9375 C21.25502862 13.40565058 25.03019557 16.78123965 29 20 C24.8783707 20 23.2608037 18.47821082 20 16 C18.79097811 14.53644719 17.58291659 13.07172132 16.40625 11.58203125 C11.90505506 6.51818694 6.26727817 3.35022932 0 1 C0 0.67 0 0.34 0 0 Z " fill="#DE7D55" transform="translate(61,31)"/>
<path d="M0 0 C2.4375 1.1875 2.4375 1.1875 5 3 C5.8125 5.6875 5.8125 5.6875 6 8 C3.6875 8.6875 3.6875 8.6875 1 9 C-0.875 7.875 -0.875 7.875 -2 6 C-1.57894737 1.57894737 -1.57894737 1.57894737 0 0 Z " fill="#CAC7BA" transform="translate(118,3)"/>
<path d="M0 0 C1.21236328 0.02707031 1.21236328 0.02707031 2.44921875 0.0546875 C3.37154297 0.08949219 3.37154297 0.08949219 4.3125 0.125 C1.97077704 7.03308273 -0.48010954 11.91284219 -6.6875 16.125 C-7.3475 15.795 -8.0075 15.465 -8.6875 15.125 C-8.04941406 14.44953125 -7.41132812 13.7740625 -6.75390625 13.078125 C-5.92761719 12.18609375 -5.10132812 11.2940625 -4.25 10.375 C-3.01443359 9.05242187 -3.01443359 9.05242187 -1.75390625 7.703125 C0.6087174 5.12302941 0.6087174 5.12302941 1.3125 1.125 C-3.1425 1.62 -3.1425 1.62 -7.6875 2.125 C-4.48369983 -0.01086678 -3.66810033 -0.10632175 0 0 Z " fill="#C5AD38" transform="translate(92.6875,81.875)"/>
<path d="M0 0 C2.64 0 5.28 0 8 0 C8 3.3 8 6.6 8 10 C4.71211176 6.88983545 2.16264012 3.98381075 0 0 Z " fill="#424755" transform="translate(120,0)"/>
<path d="M0 0 C2.97 0 5.94 0 9 0 C6.90900184 4.18199633 6.00681267 4.99659367 2 7 C1.34 7 0.68 7 0 7 C0 4.69 0 2.38 0 0 Z " fill="#344268" transform="translate(0,0)"/>
<path d="M0 0 C0 0.99 0 1.98 0 3 C-3.3 3.66 -6.6 4.32 -10 5 C-10 3.68 -10 2.36 -10 1 C-6.78548731 -0.60725635 -3.56387464 -0.05748185 0 0 Z " fill="#EFE231" transform="translate(53,63)"/>
<path d="M0 0 C0 2.31 0 4.62 0 7 C-2.97 7 -5.94 7 -9 7 C-3.84210526 0 -3.84210526 0 0 0 Z " fill="#344268" transform="translate(128,121)"/>
<path d="M0 0 C0.66 0 1.32 0 2 0 C1.58682778 4.82034262 -0.38019915 6.90992611 -4 10 C-4.66 10 -5.32 10 -6 10 C-5.67 8.35 -5.34 6.7 -5 5 C-4.34 5 -3.68 5 -3 5 C-2.5359375 4.0409375 -2.5359375 4.0409375 -2.0625 3.0625 C-1 1 -1 1 0 0 Z " fill="#344268" transform="translate(17,31)"/>
<path d="M0 0 C1.47010495 2.9402099 1.70957948 5.74729019 2 9 C1.34 9.66 0.68 10.32 0 11 C-0.20225023 15.17983803 -0.33650858 18.99047425 1 23 C-1.04037789 21.33548119 -1.92645309 20.4850594 -2.328125 17.8359375 C-2.28945312 16.61777344 -2.28945312 16.61777344 -2.25 15.375 C-2.22292969 14.49714844 -2.19585938 13.61929688 -2.16796875 12.71484375 C-1.47239264 1.47239264 -1.47239264 1.47239264 0 0 Z " fill="#6C6E55" transform="translate(9,49)"/>
<path d="M0 0 C0.98226562 0.07863281 1.96453125 0.15726563 2.9765625 0.23828125 C3.76804687 0.38652344 4.55953125 0.53476562 5.375 0.6875 C5.705 1.3475 6.035 2.0075 6.375 2.6875 C4.43780622 2.74156122 2.50018079 2.78032025 0.5625 2.8125 C-0.51644531 2.83570313 -1.59539063 2.85890625 -2.70703125 2.8828125 C-5.625 2.6875 -5.625 2.6875 -8.625 0.6875 C-5.36448028 -0.39933991 -3.39521868 -0.30010508 0 0 Z " fill="#344268" transform="translate(63.625,19.3125)"/>
<path d="M0 0 C3.3 0.66 6.6 1.32 10 2 C10.33 2.99 10.66 3.98 11 5 C5.06 4.01 5.06 4.01 -1 3 C-0.67 2.01 -0.34 1.02 0 0 Z " fill="#EFE231" transform="translate(40,48)"/>
<path d="M0 0 C1.21236328 0.01353516 1.21236328 0.01353516 2.44921875 0.02734375 C3.37154297 0.04474609 3.37154297 0.04474609 4.3125 0.0625 C4.3125 0.7225 4.3125 1.3825 4.3125 2.0625 C1.29759443 3.06746852 -0.72931692 3.16585303 -3.875 3.125 C-5.22658203 3.11146484 -5.22658203 3.11146484 -6.60546875 3.09765625 C-7.29253906 3.08605469 -7.97960938 3.07445312 -8.6875 3.0625 C-6.88341097 -0.54567807 -3.60175697 -0.05219938 0 0 Z " fill="#344268" transform="translate(42.6875,18.9375)"/>
<path d="M0 0 C0.33 0.99 0.66 1.98 1 3 C0 4 0 4 -3.5625 4.0625 C-4.696875 4.041875 -5.83125 4.02125 -7 4 C-5 1 -5 1 -2.375 0.3125 C-1.59125 0.209375 -0.8075 0.10625 0 0 Z " fill="#344268" transform="translate(85,101)"/>
<path d="M0 0 C2.3431213 0.25561323 4.67843403 0.59270772 7 1 C7.33 1.66 7.66 2.32 8 3 C4.7 3.33 1.4 3.66 -2 4 C-1.34 2.68 -0.68 1.36 0 0 Z " fill="#E13146" transform="translate(49,73)"/>
<path d="M0 0 C0.66 0.33 1.32 0.66 2 1 C2 2.65 2 4.3 2 6 C0.68 6 -0.64 6 -2 6 C-2.66 5.01 -3.32 4.02 -4 3 C-3.01 3 -2.02 3 -1 3 C-0.67 2.01 -0.34 1.02 0 0 Z " fill="#6C6E55" transform="translate(102,54)"/>
<path d="M0 0 C1.32 0 2.64 0 4 0 C4 1.98 4 3.96 4 6 C2.68 5.34 1.36 4.68 0 4 C0 2.68 0 1.36 0 0 Z " fill="#344268" transform="translate(124,0)"/>
<path d="M0 0 C0.99 0.33 1.98 0.66 3 1 C1.02 2.98 -0.96 4.96 -3 7 C-3.66 6.67 -4.32 6.34 -5 6 C-3.35 4.02 -1.7 2.04 0 0 Z " fill="#C8AF38" transform="translate(76,87)"/>
<path d="M0 0 C-0.33 0.99 -0.66 1.98 -1 3 C-2.98 3 -4.96 3 -7 3 C-7 2.34 -7 1.68 -7 1 C-4.53721199 -0.231394 -2.7204945 -0.07159196 0 0 Z " fill="#344268" transform="translate(32,23)"/>
<path d="M0 0 C0.66 0.33 1.32 0.66 2 1 C0.35 2.98 -1.3 4.96 -3 7 C-3.99 6.67 -4.98 6.34 -6 6 C-4 4 -2 2 0 0 Z " fill="#585B55" transform="translate(88,95)"/>
</svg>
