<?xml version="1.0" encoding="iso-8859-1"?>
<svg height="128" version="1.1" width="128" xmlns="http://www.w3.org/2000/svg">
	

	<path d="M0 0 C42.24 0 84.48 0 128 0 C128 42.24 128 84.48 128 128 C85.76 128 43.52 128 0 128 C0 85.76 0 43.52 0 0 Z " fill="#FCFBFC" transform="translate(0,0)"/>
	

	<path d="M0 0 C4.20284258 0.0001035 8.40552326 -0.01378804 12.60832691 -0.03077221 C15.87418901 -0.04185048 19.14001054 -0.04392086 22.40588951 -0.04339027 C23.95805124 -0.04456744 25.51021411 -0.04897439 27.06235695 -0.05672264 C29.20982509 -0.06648062 31.35692088 -0.06366654 33.50439453 -0.05761719 C35.33107414 -0.05975471 35.33107414 -0.05975471 37.19465637 -0.06193542 C40.1652832 0.18530273 40.1652832 0.18530273 43.1652832 2.18530273 C45.24018806 8.41001731 44.2560333 15.65325072 44.1652832 22.18530273 C44.1509021 23.22819458 44.136521 24.27108643 44.1217041 25.34558105 C44.01201732 32.56841628 43.84545694 39.78829491 43.64038086 47.0090332 C43.57318476 49.56084606 43.51734814 52.11298132 43.47241211 54.6652832 C43.40535059 58.39456946 43.30093999 62.12119803 43.1887207 65.84936523 C43.16955093 67.55257431 43.16955093 67.55257431 43.1499939 69.29019165 C42.91677324 75.56875754 42.18937297 79.41140352 37.78970337 84.02670288 C36.1652832 85.18530273 36.1652832 85.18530273 32.6027832 85.81030273 C29.07766805 85.16937271 26.99749933 84.35111507 24.1652832 82.18530273 C22.50840845 78.87155323 23.37128401 75.18234903 23.6027832 71.56030273 C24.25013966 59.97677578 24.25249364 48.40833329 24.2277832 36.81030273 C24.2259201 35.89238953 24.22405701 34.97447632 24.22213745 34.02874756 C24.20992854 28.7475395 24.18855975 23.46649339 24.1652832 18.18530273 C15.9152832 18.18530273 7.6652832 18.18530273 -0.8347168 18.18530273 C-0.1747168 21.81530273 0.4852832 25.44530273 1.1652832 29.18530273 C1.45654018 32.38912947 1.70266846 35.54080589 1.8527832 38.74780273 C1.89983398 39.53993164 1.94688477 40.33206055 1.99536133 41.14819336 C2.2957429 46.92438333 2.2957429 46.92438333 1.1652832 49.18530273 C-2.2097168 49.93530273 -2.2097168 49.93530273 -5.8347168 50.18530273 C-6.8247168 49.52530273 -7.8147168 48.86530273 -8.8347168 48.18530273 C-9.22290039 45.63500977 -9.22290039 45.63500977 -9.2331543 42.44311523 C-9.23895508 40.7202832 -9.23895508 40.7202832 -9.24487305 38.96264648 C-9.23327148 37.75737305 -9.22166992 36.55209961 -9.2097168 35.31030273 C-9.22131836 34.11276367 -9.23291992 32.91522461 -9.24487305 31.68139648 C-9.24100586 30.53026367 -9.23713867 29.37913086 -9.2331543 28.19311523 C-9.22977051 27.13753418 -9.22638672 26.08195312 -9.22290039 24.99438477 C-8.79103791 21.86922142 -7.93038218 20.49324009 -5.8347168 18.18530273 C-9.06377831 18.01655678 -12.29298091 17.85067537 -15.5222168 17.68530273 C-16.89023438 17.61375977 -16.89023438 17.61375977 -18.28588867 17.54077148 C-19.17211914 17.4956543 -20.05834961 17.45053711 -20.97143555 17.40405273 C-21.78314209 17.3621582 -22.59484863 17.32026367 -23.43115234 17.27709961 C-25.90142683 17.18275495 -28.36289168 17.16991394 -30.8347168 17.18530273 C-31.63220929 20.61589544 -31.90596641 23.58888182 -31.6784668 27.09936523 C-31.624729 28.02072266 -31.57099121 28.94208008 -31.515625 29.89135742 C-31.45592529 30.85460937 -31.39622559 31.81786133 -31.3347168 32.81030273 C-30.44146363 49.5153681 -30.44146363 49.5153681 -31.8347168 55.18530273 C-33.8347168 57.18530273 -33.8347168 57.18530273 -36.8347168 57.49780273 C-37.8247168 57.39467773 -38.8147168 57.29155273 -39.8347168 57.18530273 C-42.36033328 53.39687801 -42.08863253 50.39996944 -42.0300293 46.01733398 C-42.0271994 45.22252121 -42.02436951 44.42770844 -42.02145386 43.60881042 C-42.01026385 41.07165435 -41.9851617 38.53485201 -41.9597168 35.99780273 C-41.94968546 34.27710471 -41.94055988 32.55640115 -41.93237305 30.83569336 C-41.9103284 26.61876031 -41.87580686 22.40209148 -41.8347168 18.18530273 C-43.40672852 18.11182617 -43.40672852 18.11182617 -45.01049805 18.03686523 C-46.38943033 17.9618213 -47.7683353 17.88627417 -49.1472168 17.81030273 C-50.18265625 17.76389648 -50.18265625 17.76389648 -51.23901367 17.71655273 C-54.90462469 17.50405355 -56.71372471 17.26596412 -59.8347168 15.18530273 C-61.3957168 8.38380273 -61.3957168 8.38380273 -59.4597168 4.24780273 C-57.8347168 2.18530273 -57.8347168 2.18530273 -56.8347168 1.18530273 C-53.61963964 0.80632036 -50.36908047 0.76013307 -47.13549805 0.63452148 C-46.08469559 0.59268234 -45.03389313 0.5508432 -43.95124817 0.50773621 C-29.30604903 -0.01143743 -14.65259031 -0.00189163 0 0 Z " fill="#D50D44" transform="translate(68.834716796875,6.814697265625)"/>
	

	<path d="M0 0 C4.20284258 0.0001035 8.40552326 -0.01378804 12.60832691 -0.03077221 C15.87418901 -0.04185048 19.14001054 -0.04392086 22.40588951 -0.04339027 C23.95805124 -0.04456744 25.51021411 -0.04897439 27.06235695 -0.05672264 C29.20982509 -0.06648062 31.35692088 -0.06366654 33.50439453 -0.05761719 C35.33107414 -0.05975471 35.33107414 -0.05975471 37.19465637 -0.06193542 C40.1652832 0.18530273 40.1652832 0.18530273 43.1652832 2.18530273 C45.24018806 8.41001731 44.2560333 15.65325072 44.1652832 22.18530273 C44.1509021 23.22819458 44.136521 24.27108643 44.1217041 25.34558105 C44.01201732 32.56841628 43.84545694 39.78829491 43.64038086 47.0090332 C43.57318476 49.56084606 43.51734814 52.11298132 43.47241211 54.6652832 C43.40535059 58.39456946 43.30093999 62.12119803 43.1887207 65.84936523 C43.16955093 67.55257431 43.16955093 67.55257431 43.1499939 69.29019165 C42.91677324 75.56875754 42.18937297 79.41140352 37.78970337 84.02670288 C36.1652832 85.18530273 36.1652832 85.18530273 32.6027832 85.81030273 C29.07766805 85.16937271 26.99749933 84.35111507 24.1652832 82.18530273 C22.50840845 78.87155323 23.37128401 75.18234903 23.6027832 71.56030273 C24.25013966 59.97677578 24.25249364 48.40833329 24.2277832 36.81030273 C24.2259201 35.89238953 24.22405701 34.97447632 24.22213745 34.02874756 C24.20992854 28.7475395 24.18855975 23.46649339 24.1652832 18.18530273 C15.9152832 18.18530273 7.6652832 18.18530273 -0.8347168 18.18530273 C-0.1747168 21.81530273 0.4852832 25.44530273 1.1652832 29.18530273 C1.45654018 32.38912947 1.70266846 35.54080589 1.8527832 38.74780273 C1.89983398 39.53993164 1.94688477 40.33206055 1.99536133 41.14819336 C2.2957429 46.92438333 2.2957429 46.92438333 1.1652832 49.18530273 C-2.2097168 49.93530273 -2.2097168 49.93530273 -5.8347168 50.18530273 C-6.8247168 49.52530273 -7.8147168 48.86530273 -8.8347168 48.18530273 C-9.22290039 45.63500977 -9.22290039 45.63500977 -9.2331543 42.44311523 C-9.23895508 40.7202832 -9.23895508 40.7202832 -9.24487305 38.96264648 C-9.23327148 37.75737305 -9.22166992 36.55209961 -9.2097168 35.31030273 C-9.22131836 34.11276367 -9.23291992 32.91522461 -9.24487305 31.68139648 C-9.24100586 30.53026367 -9.23713867 29.37913086 -9.2331543 28.19311523 C-9.22977051 27.13753418 -9.22638672 26.08195312 -9.22290039 24.99438477 C-8.79103791 21.86922142 -7.93038218 20.49324009 -5.8347168 18.18530273 C-9.06377831 18.01655678 -12.29298091 17.85067537 -15.5222168 17.68530273 C-16.89023438 17.61375977 -16.89023438 17.61375977 -18.28588867 17.54077148 C-19.17211914 17.4956543 -20.05834961 17.45053711 -20.97143555 17.40405273 C-21.78314209 17.3621582 -22.59484863 17.32026367 -23.43115234 17.27709961 C-25.90142683 17.18275495 -28.36289168 17.16991394 -30.8347168 17.18530273 C-31.63220929 20.61589544 -31.90596641 23.58888182 -31.6784668 27.09936523 C-31.624729 28.02072266 -31.57099121 28.94208008 -31.515625 29.89135742 C-31.45592529 30.85460937 -31.39622559 31.81786133 -31.3347168 32.81030273 C-30.44146363 49.5153681 -30.44146363 49.5153681 -31.8347168 55.18530273 C-33.8347168 57.18530273 -33.8347168 57.18530273 -36.8347168 57.49780273 C-37.8247168 57.39467773 -38.8147168 57.29155273 -39.8347168 57.18530273 C-42.36033328 53.39687801 -42.08863253 50.39996944 -42.0300293 46.01733398 C-42.0271994 45.22252121 -42.02436951 44.42770844 -42.02145386 43.60881042 C-42.01026385 41.07165435 -41.9851617 38.53485201 -41.9597168 35.99780273 C-41.94968546 34.27710471 -41.94055988 32.55640115 -41.93237305 30.83569336 C-41.9103284 26.61876031 -41.87580686 22.40209148 -41.8347168 18.18530273 C-43.40672852 18.11182617 -43.40672852 18.11182617 -45.01049805 18.03686523 C-46.38943033 17.9618213 -47.7683353 17.88627417 -49.1472168 17.81030273 C-50.18265625 17.76389648 -50.18265625 17.76389648 -51.23901367 17.71655273 C-54.90462469 17.50405355 -56.71372471 17.26596412 -59.8347168 15.18530273 C-61.3957168 8.38380273 -61.3957168 8.38380273 -59.4597168 4.24780273 C-57.8347168 2.18530273 -57.8347168 2.18530273 -56.8347168 1.18530273 C-53.61963964 0.80632036 -50.36908047 0.76013307 -47.13549805 0.63452148 C-46.08469559 0.59268234 -45.03389313 0.5508432 -43.95124817 0.50773621 C-29.30604903 -0.01143743 -14.65259031 -0.00189163 0 0 Z M-57.8347168 4.18530273 C-59.08003035 8.49600351 -58.98240124 11.22904192 -56.8347168 15.18530273 C-53.15297318 17.02617454 -48.76647499 16.65498679 -44.70581055 16.90405273 C-41.8347168 17.18530273 -41.8347168 17.18530273 -40.8347168 18.18530273 C-40.67461198 20.92231451 -40.57524852 23.63697864 -40.51831055 26.37670898 C-40.49752945 27.1965477 -40.47674835 28.01638641 -40.45533752 28.86106873 C-40.38975186 31.48989175 -40.33091554 34.11881777 -40.2722168 36.74780273 C-40.22904013 38.52580834 -40.18542612 40.30380339 -40.14135742 42.08178711 C-40.03406137 46.44951907 -39.93281976 50.81735501 -39.8347168 55.18530273 C-38.17857022 55.56749041 -36.51014655 55.89925375 -34.8347168 56.18530273 C-31.8968268 53.24741273 -32.87068955 44.34587816 -32.8347168 40.18530273 C-33.01466657 35.28846208 -33.30400446 30.39744209 -33.69165039 25.51269531 C-33.75175293 24.60543701 -33.81185547 23.69817871 -33.8737793 22.76342773 C-33.93774902 21.95292969 -34.00171875 21.14243164 -34.06762695 20.30737305 C-33.8347168 18.18530273 -33.8347168 18.18530273 -32.70581055 16.40380859 C-30.00132566 14.64257633 -28.06097378 14.94056902 -24.8581543 15.11108398 C-23.0323584 15.19326172 -23.0323584 15.19326172 -21.16967773 15.27709961 C-19.86289062 15.34993164 -18.55610352 15.42276367 -17.2097168 15.49780273 C-14.49390533 15.62680502 -11.77764147 15.7443251 -9.0612793 15.86108398 C-8.03164062 15.90726364 -8.03164062 15.90726364 -6.98120117 15.95437622 C0.886016 16.29116253 8.74825966 16.24039707 16.62084961 16.14746094 C17.58941895 16.13932373 18.55798828 16.13118652 19.5559082 16.12280273 C20.8248291 16.10540039 20.8248291 16.10540039 22.11938477 16.08764648 C24.1652832 16.18530273 24.1652832 16.18530273 26.1652832 17.18530273 C26.19019479 23.10774436 26.20824249 29.03015477 26.22021484 34.95263672 C26.22521148 36.9630588 26.23201105 38.9734773 26.24072266 40.98388672 C26.25299453 43.89087817 26.25855835 46.79782115 26.26293945 49.70483398 C26.26810074 50.58863235 26.27326202 51.47243073 26.27857971 52.38301086 C26.27905991 57.85094977 25.96434468 63.21903776 25.41111755 68.65922546 C24.33815867 75.86066386 24.33815867 75.86066386 26.7902832 82.24780273 C29.91938095 83.4829729 31.82505241 83.73064654 35.1652832 83.18530273 C38.44404476 80.58845832 39.98677817 79.08710529 40.80883789 74.93408203 C40.81818359 73.72147705 40.8275293 72.50887207 40.8371582 71.25952148 C40.84959061 70.59984375 40.86202301 69.94016602 40.87483215 69.26049805 C40.9105266 67.1309013 40.91292355 65.00267226 40.9152832 62.87280273 C40.94433755 60.66323612 40.98141557 58.45389747 41.01898193 56.24446106 C41.05034658 54.19948352 41.0666098 52.15429077 41.08203125 50.10913086 C41.16902841 46.00878358 41.4224817 41.96219537 41.7277832 37.87280273 C42.25199363 30.50057361 42.27451163 23.13702138 42.2902832 15.74780273 C42.29487549 14.52988037 42.29946777 13.31195801 42.30419922 12.05712891 C42.30218506 10.92509033 42.3001709 9.79305176 42.2980957 8.62670898 C42.29640381 7.0905896 42.29640381 7.0905896 42.29467773 5.5234375 C42.42823261 3.22593404 42.42823261 3.22593404 41.1652832 2.18530273 C38.19831468 2.07935771 35.254498 2.03852687 32.28686523 2.04003906 C31.35519531 2.03668045 30.42352539 2.03332184 29.46362305 2.02986145 C26.36676724 2.02031965 23.26996532 2.01840666 20.1730957 2.01733398 C18.02936785 2.01412341 15.88564022 2.0107595 13.74191284 2.00724792 C9.24094128 2.0012484 4.73998895 1.99940884 0.23901367 2 C-5.53724082 2.00010162 -11.31337236 1.98645362 -17.0895977 1.96922779 C-21.51958791 1.95812518 -25.94954824 1.95608026 -30.37955093 1.95660973 C-32.50946603 1.95542682 -34.63938183 1.95098774 -36.76928329 1.94327736 C-39.74544703 1.93351345 -42.72134199 1.93634138 -45.69750977 1.94238281 C-47.0254808 1.93395355 -47.0254808 1.93395355 -48.38027954 1.925354 C-49.19071716 1.92954849 -50.00115479 1.93374298 -50.83615112 1.93806458 C-51.54002394 1.93751981 -52.24389675 1.93697504 -52.96909904 1.93641376 C-55.16935803 2.09076264 -55.16935803 2.09076264 -57.8347168 4.18530273 Z " fill="#D76186" transform="translate(68.834716796875,6.814697265625)"/>
	

	

	<path d="M0 0 C8.83038179 4.11069497 15.89104631 10.50928516 19.625 19.6875 C19.38846301 22.69697826 19.13250637 24.85160716 17.5625 27.4375 C11.87075414 31.1095941 4.19489854 31.52016102 -2.375 30.6875 C-7.50686655 29.12946853 -12.02999804 27.00812753 -15.375 22.6875 C-16.85106049 18.25931853 -17.3345951 14.71978534 -15.28125 10.37109375 C-11.57142927 4.38210125 -7.64801309 -0.70814936 0 0 Z " fill="#D50D44" transform="translate(64.375,88.3125)"/>
	

	<path d="M0 0 C0.763125 0.0825 1.52625 0.165 2.3125 0.25 C4.51189791 3.80203308 4.56493154 6.72133625 4.5859375 10.8515625 C4.6065625 12.14707031 4.6271875 13.44257812 4.6484375 14.77734375 C4.67087416 16.81761673 4.68744948 18.85755921 4.69335938 20.89794922 C4.73099397 28.62244896 4.96537825 35.12501735 8.45947266 42.11474609 C9.4588598 44.61636027 9.45935906 46.58020767 9.3125 49.25 C6.86472161 50.4738892 5.57859459 50.266364 2.875 50 C1.70130859 49.89945313 1.70130859 49.89945313 0.50390625 49.796875 C-2.0849786 49.15080748 -3.0267575 48.30180419 -4.6875 46.25 C-6.3620246 42.90095079 -5.87225107 39.12919749 -5.890625 35.4453125 C-5.89917511 34.13202469 -5.89917511 34.13202469 -5.90789795 32.79220581 C-5.91735248 30.93781749 -5.92388373 29.08341233 -5.92773438 27.22900391 C-5.93743753 24.39325611 -5.96845525 21.55823378 -6 18.72265625 C-6.00653029 16.92187931 -6.01178066 15.12109718 -6.015625 13.3203125 C-6.0279718 12.47228058 -6.0403186 11.62424866 -6.05303955 10.7505188 C-6.03963154 7.20283992 -6.01688258 4.87130829 -4.33496094 1.69873047 C-2.6875 0.25 -2.6875 0.25 0 0 Z " fill="#D50D44" transform="translate(12.6875,46.75)"/>
	

	

	

	

	

	

	

</svg>
