<?xml version="1.0" encoding="iso-8859-1"?>
<svg height="128" version="1.1" width="128" xmlns="http://www.w3.org/2000/svg">
	

	<path d="M0 0 C42.24 0 84.48 0 128 0 C128 42.24 128 84.48 128 128 C85.76 128 43.52 128 0 128 C0 85.76 0 43.52 0 0 Z " fill="#045DBD" transform="translate(0,0)"/>
	

	<path d="M0 0 C11.22 0 22.44 0 34 0 C33.67 1.32 33.34 2.64 33 4 C31.3203125 4.9140625 31.3203125 4.9140625 29.125 5.625 C20.61135526 9.04407973 11.47764794 17.23249504 7.8203125 25.74609375 C6.7879188 29.84125542 6.2754624 33.86320108 5.875 38.0625 C5.79080811 38.93156982 5.70661621 39.80063965 5.61987305 40.69604492 C4.7556574 50.47210131 4.7651725 60.19694694 5 70 C5.00870117 70.73186523 5.01740234 71.46373047 5.02636719 72.21777344 C5.1474148 81.13773053 6.44109989 87.36112869 11 95 C11.61091565 96.37201473 12.2154163 97.7469095 12.8125 99.125 C18.86343295 111.10632938 32.14096629 118.06476189 44 123 C45.39611013 123.60352677 46.79198834 124.20759071 48.1875 124.8125 C49.115625 125.204375 50.04375 125.59625 51 126 C51 126.66 51 127.32 51 128 C34.17 128 17.34 128 0 128 C0 85.76 0 43.52 0 0 Z " fill="#5288C0" transform="translate(0,0)"/>
	

	<path d="M0 0 C0.66 0 1.32 0 2 0 C2 16.17 2 32.34 2 49 C-12.85 49 -27.7 49 -43 49 C-42.67 48.01 -42.34 47.02 -42 46 C-39.59375 44.859375 -39.59375 44.859375 -36.5 43.75 C-30.40337426 41.32577959 -25.85704041 38.37309616 -21 34 C-20.2265625 33.30777344 -19.453125 32.61554688 -18.65625 31.90234375 C-10.02705636 23.74775576 -5.68423887 14.94387674 -1.98046875 3.80859375 C-1 1 -1 1 0 0 Z " fill="#F6F9F9" transform="translate(126,79)"/>
	

	<path d="M0 0 C2.84551928 2.84551928 4.23822438 5.06695194 6.125 8.5625 C15.16680226 24.32378899 28.01095761 33.296858 44.03125 40.88671875 C46 42 46 42 47 44 C31.49 44 15.98 44 0 44 C0 29.48 0 14.96 0 0 Z " fill="#F6F9F9" transform="translate(0,84)"/>
	

	<path d="M0 0 C2.82266564 1.64108467 3.6718024 2.51540721 4.6875 5.5625 C2.71927114 7.53072886 -0.66058709 7.22498381 -3.3125 7.5625 C-3.6425 8.5525 -3.9725 9.5425 -4.3125 10.5625 C-3.67505859 10.41522461 -3.03761719 10.26794922 -2.38085938 10.11621094 C5.26329888 8.51888325 12.41021035 8.43247335 20.1875 8.8125 C21.3528125 8.85246094 22.518125 8.89242187 23.71875 8.93359375 C32.2950487 9.3008658 32.2950487 9.3008658 35.6875 11.5625 C35.5 13.375 35.5 13.375 34.6875 15.5625 C33.03928756 16.59263277 31.37246298 17.59364628 29.6875 18.5625 C29.1925 20.0475 29.1925 20.0475 28.6875 21.5625 C29.409375 21.830625 30.13125 22.09875 30.875 22.375 C33.66340126 23.55232498 36.12845724 24.95395884 38.6875 26.5625 C39.285625 25.758125 39.88375 24.95375 40.5 24.125 C42.6875 21.5625 42.6875 21.5625 45.6875 20.5625 C48.31760569 24.36924347 49.09891412 27.0627191 49.26953125 31.66796875 C49.31400391 32.81587891 49.35847656 33.96378906 49.40429688 35.14648438 C49.43587891 36.33564453 49.46746094 37.52480469 49.5 38.75 C49.57637695 40.55114258 49.57637695 40.55114258 49.65429688 42.38867188 C49.87352805 48.98418601 49.87352805 48.98418601 49.6875 51.5625 C49.0275 52.2225 48.3675 52.8825 47.6875 53.5625 C43.87239564 53.26130755 41.27914377 52.3947183 38.6875 49.5625 C38.17896503 46.49071584 38.31272006 43.47770108 38.4375 40.375 C38.45554688 39.53001953 38.47359375 38.68503906 38.4921875 37.81445312 C38.53929414 35.72998427 38.61103767 33.64609856 38.6875 31.5625 C38.089375 32.2225 37.49125 32.8825 36.875 33.5625 C34.6875 35.5625 34.6875 35.5625 31.6875 35.5625 C31.31625 34.675625 30.945 33.78875 30.5625 32.875 C28.42998537 29.10755749 26.0203991 27.28323396 22.6875 24.5625 C21.30906808 22.59331154 19.96939588 20.59585209 18.6875 18.5625 C18.11 17.985 17.5325 17.4075 16.9375 16.8125 C16.525 16.4 16.1125 15.9875 15.6875 15.5625 C15.6875 14.9025 15.6875 14.2425 15.6875 13.5625 C14.8625 14.0575 14.0375 14.5525 13.1875 15.0625 C8.43473329 17.09940002 4.40486525 17.58716268 -0.42578125 15.765625 C-2.44612086 14.7763815 -4.37956923 13.71236713 -6.3125 12.5625 C-7.3025 11.985 -8.2925 11.4075 -9.3125 10.8125 C-9.9725 10.4 -10.6325 9.9875 -11.3125 9.5625 C-11.23358237 6.8003828 -10.80284384 5.0880619 -8.8984375 3.046875 C-5.67460396 0.4621274 -4.21379999 -0.55653962 0 0 Z " fill="#5288C0" transform="translate(24.3125,49.4375)"/>
	

	<path d="M0 0 C13.86 0 27.72 0 42 0 C42 14.52 42 29.04 42 44 C39.04500775 41.04500775 37.95237368 39.0472018 36.25 35.3125 C33.84079759 30.31855028 31.18069989 26.48409469 27.3203125 22.5234375 C26 21 26 21 26 19 C25.01 18.67 24.02 18.34 23 18 C21.90189568 16.86757992 20.80458216 15.73438388 19.7109375 14.59765625 C13.9505044 9.21862169 7.43840619 4.64476664 0 2 C0 1.34 0 0.68 0 0 Z " fill="#F6F9F9" transform="translate(86,0)"/>
	

	<path d="M0 0 C9.24 0 18.48 0 28 0 C22.39732888 5.60267112 22.39732888 5.60267112 19.703125 8.04296875 C19.13722656 8.55923828 18.57132813 9.07550781 17.98828125 9.60742188 C16.81503776 10.67388702 15.64052713 11.73895959 14.46484375 12.80273438 C11.31701986 15.56756448 11.31701986 15.56756448 9 19 C8.34 19 7.68 19 7 19 C5.09502381 24.37203286 3.55039091 29.6378556 2.52734375 35.25 C2.35332031 35.8275 2.17929687 36.405 2 37 C1.01 37.495 1.01 37.495 0 38 C0 25.46 0 12.92 0 0 Z " fill="#F6F9F9" transform="translate(0,0)"/>
	

	<path d="M0 0 C2.82266564 1.64108467 3.6718024 2.51540721 4.6875 5.5625 C2.71927114 7.53072886 -0.66058709 7.22498381 -3.3125 7.5625 C-3.6425 8.5525 -3.9725 9.5425 -4.3125 10.5625 C-3.62285156 10.38332031 -2.93320312 10.20414063 -2.22265625 10.01953125 C3.9358336 8.62563437 7.98512161 8.37340361 13.8125 10.93359375 C15.87449096 11.83433524 15.87449096 11.83433524 18.6875 10.5625 C20.51712436 10.41921616 22.35251237 10.34209657 24.1875 10.3125 C25.1465625 10.28671875 26.105625 10.2609375 27.09375 10.234375 C30.05193253 10.60860291 30.88863073 11.25314081 32.6875 13.5625 C27.9375 17.5625 27.9375 17.5625 25.6875 17.5625 C25.3575 18.8825 25.0275 20.2025 24.6875 21.5625 C25.22375 21.645 25.76 21.7275 26.3125 21.8125 C29.63318746 22.86113814 31.97267358 24.39063886 34.6875 26.5625 C35.5625 29.3125 35.5625 29.3125 35.6875 31.5625 C33.96875 32.28515625 33.96875 32.28515625 31.6875 32.5625 C26.1821808 28.98598101 22.05141362 24.12589561 18.6875 18.5625 C18.11 17.985 17.5325 17.4075 16.9375 16.8125 C16.525 16.4 16.1125 15.9875 15.6875 15.5625 C15.6875 14.9025 15.6875 14.2425 15.6875 13.5625 C14.8625 14.0575 14.0375 14.5525 13.1875 15.0625 C8.43473329 17.09940002 4.40486525 17.58716268 -0.42578125 15.765625 C-2.44612086 14.7763815 -4.37956923 13.71236713 -6.3125 12.5625 C-7.3025 11.985 -8.2925 11.4075 -9.3125 10.8125 C-9.9725 10.4 -10.6325 9.9875 -11.3125 9.5625 C-11.23358237 6.8003828 -10.80284384 5.0880619 -8.8984375 3.046875 C-5.67460396 0.4621274 -4.21379999 -0.55653962 0 0 Z " fill="#A3BFD7" transform="translate(24.3125,49.4375)"/>
	

	<path d="M0 0 C-1.72407587 4.38855677 -4.82973873 6.91486937 -9 9 C-8.0409375 9.2165625 -8.0409375 9.2165625 -7.0625 9.4375 C-5 10 -5 10 -4 11 C-4.21366112 15.70054457 -4.96451606 20.41428541 -6 25 C-13.37297297 27.51351351 -13.37297297 27.51351351 -16 28 C-17.71567792 26.28432208 -17.13015825 24.02627265 -17.1328125 21.6875 C-17.13410156 20.61242187 -17.13539062 19.53734375 -17.13671875 18.4296875 C-17.13091797 16.73199219 -17.13091797 16.73199219 -17.125 15 C-17.12886719 13.86820313 -17.13273437 12.73640625 -17.13671875 11.5703125 C-17.13542969 10.49523437 -17.13414063 9.42015625 -17.1328125 8.3125 C-17.13168457 7.31863281 -17.13055664 6.32476562 -17.12939453 5.30078125 C-17 3 -17 3 -16 2 C-14.25990151 1.60001092 -12.50709069 1.25462198 -10.75 0.9375 C-9.79609375 0.76089844 -8.8421875 0.58429687 -7.859375 0.40234375 C-5.1915009 0.02694617 -2.68901371 -0.07360439 0 0 Z " fill="#A6C1D8" transform="translate(93,62)"/>
	

	<path d="M0 0 C2.31 0 4.62 0 7 0 C7 0.66 7 1.32 7 2 C8.19625 2.268125 9.3925 2.53625 10.625 2.8125 C24.65834857 7.47547975 35.54895563 20.85538438 43 33 C43.56332031 33.91394531 44.12664062 34.82789063 44.70703125 35.76953125 C47.81058448 41.08263994 49.82546288 44.80902836 49 51 C47.08203125 50.30859375 47.08203125 50.30859375 45 49 C44.19921875 46.78515625 44.19921875 46.78515625 43.6875 44.0625 C41.76374949 36.05212901 37.35956828 29.6551414 32.0625 23.4375 C30 21 30 21 30 19 C29.34 18.814375 28.68 18.62875 28 18.4375 C25.12867863 17.06165851 23.50107521 15.75604463 21.1875 13.625 C15.09515247 8.12702784 8.95178733 5.70395443 1 4 C0.67 2.68 0.34 1.36 0 0 Z " fill="#5D90C3" transform="translate(79,0)"/>
	

	<path d="M0 0 C2.8343237 1.51039618 5.06655807 3.02130646 7.375 5.265625 C8.0625 7.953125 8.0625 7.953125 8.375 10.265625 C9.035 10.595625 9.695 10.925625 10.375 11.265625 C5.61192563 12.21823987 1.2083472 12.34895857 -3.625 12.265625 C-3.295 10.945625 -2.965 9.625625 -2.625 8.265625 C0.84 7.770625 0.84 7.770625 4.375 7.265625 C3.67325996 4.0490801 3.67325996 4.0490801 0.75 2.765625 C-3.56049962 2.12703246 -4.91559774 3.23147356 -8.3046875 5.7109375 C-10.05654321 7.4338275 -10.05654321 7.4338275 -9.625 11.265625 C-0.1796764 16.71646777 -0.1796764 16.71646777 10.375 17.265625 C11.365 16.605625 12.355 15.945625 13.375 15.265625 C14.365 15.265625 15.355 15.265625 16.375 15.265625 C18.0234375 17.05859375 18.0234375 17.05859375 19.75 19.453125 C22.40693122 23.029332 25.17568411 26.155179 28.375 29.265625 C29.40313611 30.57738486 30.41584432 31.9026143 31.375 33.265625 C21.99795082 28.93775615 21.99795082 28.93775615 20.1875 24.078125 C19.919375 23.15 19.65125 22.221875 19.375 21.265625 C18.385 20.935625 17.395 20.605625 16.375 20.265625 C16.375 19.605625 16.375 18.945625 16.375 18.265625 C15.55 18.595625 14.725 18.925625 13.875 19.265625 C4.76088584 21.86965762 -0.73992269 19.162075 -8.74609375 14.89453125 C-11.625 13.265625 -11.625 13.265625 -12.625 12.265625 C-12.75 9.078125 -12.75 9.078125 -11.625 5.265625 C-8.28067292 1.97634857 -4.82161986 -1.34890556 0 0 Z " fill="#4F86BF" transform="translate(23.625,47.734375)"/>
	

	

	<path d="M0 0 C0.99 0 1.98 0 3 0 C3.72580785 4.98992899 4.04809165 9.7203029 3.9609375 14.7578125 C4.00035692 17.02048697 4.27320843 19.14153261 4.625 21.375 C5 25 5 25 3 28 C0.625 27.6875 0.625 27.6875 -2 27 C-5.89097525 21.16353713 -4.34818316 13.04426056 -3.125 6.375 C-2.49379938 3.27911127 -2.27956291 2.27956291 0 0 Z " fill="#A3BFD7" transform="translate(68,73)"/>
	

	<path d="M0 0 C0.33 0.99 0.66 1.98 1 3 C-1.06430358 5.94900512 -3.3929227 8.52327657 -6 11 C-5.65195313 11.69480469 -5.30390625 12.38960937 -4.9453125 13.10546875 C-3.80113669 16.60891618 -4.16440873 18.72006638 -4.875 22.3125 C-5.07867187 23.38113281 -5.28234375 24.44976562 -5.4921875 25.55078125 C-5.74355469 26.76314453 -5.74355469 26.76314453 -6 28 C-11.75 30 -11.75 30 -14 30 C-14 30.66 -14 31.32 -14 32 C-15.65 32 -17.3 32 -19 32 C-21.17425477 27.65149046 -20.18496474 21.77642634 -20.1875 17 C-20.19974609 15.78570312 -20.21199219 14.57140625 -20.22460938 13.3203125 C-20.22654297 12.16273437 -20.22847656 11.00515625 -20.23046875 9.8125 C-20.23457764 8.74644531 -20.23868652 7.68039063 -20.24291992 6.58203125 C-20 4 -20 4 -18 2 C-12.0747161 0.40813268 -6.11764697 -0.27189542 0 0 Z M-12.75 2.9375 C-13.71421875 3.11152344 -14.6784375 3.28554688 -15.671875 3.46484375 C-17.94818406 3.7712753 -17.94818406 3.7712753 -19 5 C-19.08726223 6.78071246 -19.10699041 8.5648314 -19.09765625 10.34765625 C-19.09443359 11.42724609 -19.09121094 12.50683594 -19.08789062 13.61914062 C-19.07951172 14.75544922 -19.07113281 15.89175781 -19.0625 17.0625 C-19.05798828 18.20267578 -19.05347656 19.34285156 -19.04882812 20.51757812 C-19.03699747 23.34510351 -19.0205141 26.1725264 -19 29 C-17.10820797 29.6814823 -17.10820797 29.6814823 -15 30 C-14.34 29.34 -13.68 28.68 -13 28 C-10.375 27.375 -10.375 27.375 -8 27 C-6.15127785 20.08155967 -6.15127785 20.08155967 -6 13 C-7.83883881 10.71271266 -7.83883881 10.71271266 -10.625 10.875 C-11.40875 10.91625 -12.1925 10.9575 -13 11 C-11.9275 10.5875 -10.855 10.175 -9.75 9.75 C-6.48130052 8.35102314 -4.26495557 6.80854491 -2 4 C-2 3.34 -2 2.68 -2 2 C-5.70888208 1.8984795 -9.10392286 2.26248302 -12.75 2.9375 Z " fill="#5288C0" transform="translate(95,60)"/>
	

	<path d="M0 0 C-0.020625 1.010625 -0.04125 2.02125 -0.0625 3.0625 C-0.00312266 6.80327257 0.39795085 10.31244898 1 14 C-4.02727583 13.26069473 -8.24326825 11.70006299 -11.9375 8.125 C-13.31623864 5.36752271 -12.88308373 3.89009221 -12 1 C-7.53763531 -0.80619523 -4.68965706 -1.11658501 0 0 Z " fill="#A3BFD7" transform="translate(91,40)"/>
	

	<path d="M0 0 C2.74258288 2.74258288 2.88400694 5.23217056 3.75 9 C7.4449001 23.72178544 17.22960455 35.81384907 30 44 C36.82279063 47.73351797 43.83794254 50.97480525 51 54 C51 54.66 51 55.32 51 56 C35.79518965 53.75059922 20.57988039 41.3245606 11 30 C8.04194115 25.84131726 5.5173325 21.43585381 3 17 C2.43539063 16.17757812 1.87078125 15.35515625 1.2890625 14.5078125 C-0.31883559 11.37971985 -0.30270352 9.18200678 -0.1875 5.6875 C-0.16042969 4.61886719 -0.13335938 3.55023438 -0.10546875 2.44921875 C-0.07066406 1.64097656 -0.03585937 0.83273438 0 0 Z " fill="#A3BFD7" transform="translate(0,72)"/>
	

	<path d="M0 0 C0.66 0 1.32 0 2 0 C-1.96457772 17.98980427 -13.62746967 33.23204324 -28.9375 43.125 C-30.61138741 44.10691648 -32.29728886 45.0689609 -34 46 C-34.94552734 46.53560547 -34.94552734 46.53560547 -35.91015625 47.08203125 C-38.5064087 48.47903195 -39.99618928 49 -43 49 C-42.67 48.01 -42.34 47.02 -42 46 C-39.59375 44.859375 -39.59375 44.859375 -36.5 43.75 C-30.40337426 41.32577959 -25.85704041 38.37309616 -21 34 C-20.2265625 33.30777344 -19.453125 32.61554688 -18.65625 31.90234375 C-10.02705636 23.74775576 -5.68423887 14.94387674 -1.98046875 3.80859375 C-1 1 -1 1 0 0 Z " fill="#A3BFD7" transform="translate(126,79)"/>
	

	<path d="M0 0 C-1.13901174 3.41703523 -1.45526866 3.50487432 -4.4375 5.125 C-12.61867762 10.01016361 -21.90847571 17.24021318 -24.83032227 26.68359375 C-25.52830004 29.71658353 -26.12959267 32.75071992 -26.6875 35.8125 C-27.08068512 37.882766 -27.48011645 39.95185855 -27.88671875 42.01953125 C-28.05389404 42.92807861 -28.22106934 43.83662598 -28.39331055 44.77270508 C-29 47 -29 47 -31 49 C-31.05429959 47.25034642 -31.09292823 45.50020213 -31.125 43.75 C-31.15980469 42.28820313 -31.15980469 42.28820313 -31.1953125 40.796875 C-30.99192465 37.88436103 -30.35954299 36.52835873 -29 34 C-28.17883209 30.94114952 -27.48360575 27.86541877 -26.78125 24.77734375 C-26 22 -26 22 -24 19 C-23.34 19 -22.68 19 -22 19 C-21.80148438 18.46503906 -21.60296875 17.93007813 -21.3984375 17.37890625 C-19.37669066 13.93967769 -16.57620131 11.58643069 -13.625 8.9375 C-13.0475 8.40833984 -12.47 7.87917969 -11.875 7.33398438 C-3.81405858 -0 -3.81405858 -0 0 0 Z " fill="#A3BFD7" transform="translate(31,0)"/>
	

	<path d="M0 0 C0.19916016 1.33804688 0.19916016 1.33804688 0.40234375 2.703125 C0.57894531 3.87359375 0.75554687 5.0440625 0.9375 6.25 C1.11152344 7.41015625 1.28554687 8.5703125 1.46484375 9.765625 C1.92570158 12.8735435 1.92570158 12.8735435 2.62890625 15.359375 C2.75136719 15.90078125 2.87382813 16.4421875 3 17 C2.67 17.33 2.34 17.66 2 18 C-3.17648699 17.58588104 -7.4364784 16.49702125 -12 14 C-14.57678787 10.96071175 -15.90332747 9.11173408 -16.25 5.125 C-16.1675 4.42375 -16.085 3.7225 -16 3 C-6.18933665 -1.33933187 -6.18933665 -1.33933187 0 0 Z M-10.875 2.4375 C-11.90625 2.953125 -12.9375 3.46875 -14 4 C-13.58443583 8.84824868 -11.62551755 10.88036862 -8 14 C-4.8874587 15.9807081 -3.90120363 16 0 16 C-0.33 11.38 -0.66 6.76 -1 2 C-6.48920664 0.80896088 -6.48920664 0.80896088 -10.875 2.4375 Z " fill="#5288C0" transform="translate(92,38)"/>
	

	<path d="M0 0 C0.66 0 1.32 0 2 0 C2.33 7.92 2.66 15.84 3 24 C1.35 23.67 -0.3 23.34 -2 23 C-2.22428282 15.05042008 -1.95403042 7.72888819 0 0 Z " fill="#F6F9F9" transform="translate(68,75)"/>
	

	<path d="M0 0 C1.4540625 1.2375 1.4540625 1.2375 2.9375 2.5 C3.5871875 3.04914063 4.236875 3.59828125 4.90625 4.1640625 C6.27774462 5.36667905 7.61378174 6.61126624 8.90625 7.8984375 C16.50853874 15.29604923 26.84240992 21.30709503 37.375 23.25 C38.57125 23.4975 39.7675 23.745 41 24 C42.2265625 26.046875 42.2265625 26.046875 43 28 C41.35 28 39.7 28 38 28 C37.505 27.01 37.505 27.01 37 26 C35.06369003 25.07558135 35.06369003 25.07558135 32.6875 24.25 C20.6872446 19.54535442 7.39830166 13.34677373 0.6328125 1.6328125 C0.42398437 1.09398438 0.21515625 0.55515625 0 0 Z " fill="#5288C0" transform="translate(13,100)"/>
	

	<path d="M0 0 C0.33 0.66 0.66 1.32 1 2 C0.0625 4.125 0.0625 4.125 -1 6 C-0.01 6.33 0.98 6.66 2 7 C2 8.32 2 9.64 2 11 C-2.4030087 9.65463623 -4.471564 7.83947688 -7 4 C-7 3.01 -7 2.02 -7 1 C-4.53721199 -0.231394 -2.7204945 -0.07159196 0 0 Z " fill="#F6F9F9" transform="translate(88,41)"/>
	

	<path d="M0 0 C0.66 0.33 1.32 0.66 2 1 C-4.36563888 7.07093338 -10.06185802 11.38388081 -18.4375 14.125 C-21.15085833 14.71677773 -21.15085833 14.71677773 -22 17 C-23.32 17 -24.64 17 -26 17 C-25.34765625 15.1171875 -25.34765625 15.1171875 -24 13 C-21.49609375 11.9453125 -21.49609375 11.9453125 -18.4375 11.125 C-11.15874249 8.91162782 -5.26201545 5.52429659 0 0 Z " fill="#5288C0" transform="translate(105,111)"/>
	

	<path d="M0 0 C0.33 1.32 0.66 2.64 1 4 C0.01 4.495 0.01 4.495 -1 5 C-1.83652709 7.16322969 -2.59451372 9.35708938 -3.3125 11.5625 C-5.23345328 17.26794201 -7.54463742 22.06376774 -11 27 C-11.33 26.01 -11.66 25.02 -12 24 C-10.70951192 21.97209016 -9.36821051 19.97630407 -8 18 C-5.71665441 13.34548784 -4.46363195 8.99343923 -3.625 3.91796875 C-3 2 -3 2 0 0 Z " fill="#5288C0" transform="translate(127,75)"/>
	

	<path d="M0 0 C4.15966895 2.97119211 6.52124832 5.99457071 9.125 10.375 C9.78757812 11.47585937 10.45015625 12.57671875 11.1328125 13.7109375 C14.71950861 20.02892522 14.71950861 20.02892522 16 23 C15.67 23.99 15.34 24.98 15 26 C12.78733507 23.45543533 11.47404454 20.89159404 10.1875 17.8125 C8.35735734 13.53039015 6.04096058 9.84582217 3.3671875 6.04296875 C2.05826869 4.08707006 1.00327777 2.12599337 0 0 Z " fill="#A3BFD7" transform="translate(112,21)"/>
	

	<path d="M0 0 C1.051875 0.5878125 1.051875 0.5878125 2.125 1.1875 C1.795 1.8475 1.465 2.5075 1.125 3.1875 C-0.86988234 3.55020588 -2.87098989 3.87919075 -4.875 4.1875 C-6.55875165 4.80975605 -8.23267228 5.46294365 -9.875 6.1875 C-9.75 4.375 -9.75 4.375 -8.875 2.1875 C-5.53713485 -0.08831715 -3.96935087 -1.12177307 0 0 Z " fill="#F6F9F9" transform="translate(24.875,51.8125)"/>
	

	

	<path d="M0 0 C1.32 0 2.64 0 4 0 C4 0.66 4 1.32 4 2 C4.87011719 2.23783203 4.87011719 2.23783203 5.7578125 2.48046875 C11.27558687 4.12851687 14.82153753 6.03581766 19 10 C15.64092607 10 14.53335325 9.35372496 11.6875 7.6875 C8.97916938 6.1234722 6.32199677 4.67310559 3.5 3.3125 C1 2 1 2 0 0 Z " fill="#A3BFD7" transform="translate(82,0)"/>
	

	<path d="M0 0 C0.66 0.33 1.32 0.66 2 1 C2 5.62 2 10.24 2 15 C1.01 14.67 0.02 14.34 -1 14 C-1.02705729 12.22925083 -1.04642195 10.45838289 -1.0625 8.6875 C-1.07410156 7.70136719 -1.08570312 6.71523437 -1.09765625 5.69921875 C-1 3 -1 3 0 0 Z " fill="#F6F9F9" transform="translate(78,73)"/>
	

	<path d="M0 0 C0 0.99 0 1.98 0 3 C-4.00200378 4.60080151 -7.04556236 3.29279692 -11 2 C-6.80312837 -0.79791442 -4.79748656 -1.16695619 0 0 Z " fill="#F6F9F9" transform="translate(35,61)"/>
	

	<path d="M0 0 C2.64 0 5.28 0 8 0 C7.67 0.99 7.34 1.98 7 3 C1.25 4.125 1.25 4.125 -1 3 C-0.67 2.01 -0.34 1.02 0 0 Z " fill="#F6F9F9" transform="translate(44,62)"/>
	

	<path d="M0 0 C2.97 0 5.94 0 9 0 C8.67 0.66 8.34 1.32 8 2 C5.93359375 2.6328125 5.93359375 2.6328125 3.4375 3.125 C2.19806641 3.37636719 2.19806641 3.37636719 0.93359375 3.6328125 C0.29550781 3.75398438 -0.34257813 3.87515625 -1 4 C-0.67 2.68 -0.34 1.36 0 0 Z " fill="#F6F9F9" transform="translate(79,65)"/>
	

	

</svg>
