<?xml version="1.0" encoding="iso-8859-1"?>
<svg height="128" version="1.1" width="128" xmlns="http://www.w3.org/2000/svg">
	

	

	<path d="M0 0 C0.36749268 2.54284668 0.36749268 2.54284668 0.35644531 5.79492188 C0.35944641 7.0095813 0.36244751 8.22424072 0.36553955 9.47570801 C0.34701935 11.45226379 0.34701935 11.45226379 0.328125 13.46875 C0.3250679 14.82873323 0.32319141 16.18871959 0.32244873 17.54870605 C0.31784294 20.40026819 0.30340731 23.25154835 0.28125 26.10302734 C0.25296733 29.76176748 0.24203881 33.42028538 0.2375679 37.07912445 C0.23341454 39.88777906 0.22359777 42.69638854 0.21169281 45.50502014 C0.20320877 47.51143889 0.19671774 49.51786574 0.19024658 51.52429199 C0.18063904 52.73895142 0.17103149 53.95361084 0.16113281 55.20507812 C0.15430481 56.27826294 0.14747681 57.35144775 0.14044189 58.45715332 C0 61 0 61 -1 63 C-7.3247102 63.49505154 -11.89994173 61.81793972 -17.6875 59.375 C-18.57671143 59.01035645 -19.46592285 58.64571289 -20.38208008 58.27001953 C-25.0863513 56.31529822 -29.66951704 54.2343911 -34.1875 51.875 C-40.88468784 48.37916294 -47.96059079 46.09218733 -55.09082031 43.65527344 C-63.74523737 40.68488272 -72.88663723 37.15979424 -79 30 C-80.04286981 26.05199287 -80.2349589 23.7048767 -78.9375 19.8125 C-76.66043292 16.50708004 -74.55026462 14.84909616 -71 13 C-70.01 13.33 -69.02 13.66 -68 14 C-67.67 15.2375 -67.34 16.475 -67 17.75 C-65.97606572 20.82733762 -65.25863526 21.83000499 -62.50390625 23.640625 C-58.09735495 25.67711883 -54.90353788 27 -50 27 C-50.05220703 25.42798828 -50.05220703 25.42798828 -50.10546875 23.82421875 C-50.13360937 22.44532853 -50.16090924 21.06642098 -50.1875 19.6875 C-50.21263672 18.99720703 -50.23777344 18.30691406 -50.26367188 17.59570312 C-50.30650728 14.64006007 -50.31501402 12.51006914 -48.73828125 9.95703125 C-47 9 -47 9 -44.8125 9.3125 C-44.214375 9.539375 -43.61625 9.76625 -43 10 C-41.77386321 15.70213129 -40.76942829 21.25951645 -40.44140625 27.08984375 C-39.85277168 29.63712077 -39.06698823 30.39524964 -37 32 C-34.97305517 33.08972547 -32.90449716 34.10356578 -30.8125 35.0625 C-29.72582031 35.56910156 -28.63914063 36.07570312 -27.51953125 36.59765625 C-23.69219601 38.12264332 -20.0117011 39.08366609 -16 40 C-16.03029297 39.34628418 -16.06058594 38.69256836 -16.09179688 38.01904297 C-17.49938232 7.23081822 -17.49938232 7.23081822 -17 2 C-14.41996907 -0.58003093 -12.63187182 -0.64428842 -9.0625 -1.25 C-8.00160156 -1.44078125 -6.94070312 -1.6315625 -5.84765625 -1.828125 C-3 -2 -3 -2 0 0 Z " fill="#F2F2F2" transform="translate(92,32)"/>
	

	

	<path d="M0 0 C0.36749268 2.54284668 0.36749268 2.54284668 0.35644531 5.79492188 C0.35944641 7.0095813 0.36244751 8.22424072 0.36553955 9.47570801 C0.34701935 11.45226379 0.34701935 11.45226379 0.328125 13.46875 C0.3250679 14.82873323 0.32319141 16.18871959 0.32244873 17.54870605 C0.31784294 20.40026819 0.30340731 23.25154835 0.28125 26.10302734 C0.25296733 29.76176748 0.24203881 33.42028538 0.2375679 37.07912445 C0.23341454 39.88777906 0.22359777 42.69638854 0.21169281 45.50502014 C0.20320877 47.51143889 0.19671774 49.51786574 0.19024658 51.52429199 C0.18063904 52.73895142 0.17103149 53.95361084 0.16113281 55.20507812 C0.15430481 56.27826294 0.14747681 57.35144775 0.14044189 58.45715332 C0 61 0 61 -1 63 C-7.3247102 63.49505154 -11.89994173 61.81793972 -17.6875 59.375 C-18.57671143 59.01035645 -19.46592285 58.64571289 -20.38208008 58.27001953 C-25.0863513 56.31529822 -29.66951704 54.2343911 -34.1875 51.875 C-40.88468784 48.37916294 -47.96059079 46.09218733 -55.09082031 43.65527344 C-63.74523737 40.68488272 -72.88663723 37.15979424 -79 30 C-80.04286981 26.05199287 -80.2349589 23.7048767 -78.9375 19.8125 C-76.66043292 16.50708004 -74.55026462 14.84909616 -71 13 C-70.01 13.33 -69.02 13.66 -68 14 C-67.67 15.2375 -67.34 16.475 -67 17.75 C-65.97606572 20.82733762 -65.25863526 21.83000499 -62.50390625 23.640625 C-58.09735495 25.67711883 -54.90353788 27 -50 27 C-50.05220703 25.42798828 -50.05220703 25.42798828 -50.10546875 23.82421875 C-50.13360937 22.44532853 -50.16090924 21.06642098 -50.1875 19.6875 C-50.21263672 18.99720703 -50.23777344 18.30691406 -50.26367188 17.59570312 C-50.30650728 14.64006007 -50.31501402 12.51006914 -48.73828125 9.95703125 C-47 9 -47 9 -44.8125 9.3125 C-44.214375 9.539375 -43.61625 9.76625 -43 10 C-41.77386321 15.70213129 -40.76942829 21.25951645 -40.44140625 27.08984375 C-39.85277168 29.63712077 -39.06698823 30.39524964 -37 32 C-34.97305517 33.08972547 -32.90449716 34.10356578 -30.8125 35.0625 C-29.72582031 35.56910156 -28.63914063 36.07570312 -27.51953125 36.59765625 C-23.69219601 38.12264332 -20.0117011 39.08366609 -16 40 C-16.03029297 39.34628418 -16.06058594 38.69256836 -16.09179688 38.01904297 C-17.49938232 7.23081822 -17.49938232 7.23081822 -17 2 C-14.41996907 -0.58003093 -12.63187182 -0.64428842 -9.0625 -1.25 C-8.00160156 -1.44078125 -6.94070312 -1.6315625 -5.84765625 -1.828125 C-3 -2 -3 -2 0 0 Z M-9.6875 0.375 C-10.47511719 0.46523438 -11.26273437 0.55546875 -12.07421875 0.6484375 C-14.00116387 0.81162291 -14.00116387 0.81162291 -15 2 C-15.08868299 4.95705321 -15.11520296 7.89065056 -15.09765625 10.84765625 C-15.0962413 11.7340831 -15.09482635 12.62050995 -15.09336853 13.53379822 C-15.08775215 16.37673254 -15.07519691 19.21958931 -15.0625 22.0625 C-15.05748711 23.98502491 -15.05292384 25.90755104 -15.04882812 27.83007812 C-15.03777741 32.55341549 -15.02050183 37.27669458 -15 42 C-21.52135695 40.36873095 -27.54770915 38.57997608 -33.5625 35.5625 C-34.73941406 34.98628906 -35.91632812 34.41007812 -37.12890625 33.81640625 C-40.14164548 31.91038755 -41.02571941 31.34446027 -42 28 C-42.44926991 25.23782202 -42.82569368 22.52717009 -43.125 19.75 C-43.21136719 19.00492188 -43.29773437 18.25984375 -43.38671875 17.4921875 C-43.59786867 15.66222154 -43.79984545 13.83120121 -44 12 C-45.32 12 -46.64 12 -48 12 C-47.98839844 12.98742188 -47.97679688 13.97484375 -47.96484375 14.9921875 C-47.95582031 16.27351563 -47.94679688 17.55484375 -47.9375 18.875 C-47.92589844 20.15117188 -47.91429688 21.42734375 -47.90234375 22.7421875 C-48 26 -48 26 -49 28 C-55.70298104 28.74477567 -61.41821316 26.77097305 -67 23 C-68.52412565 20.49089518 -68.70767267 18.98173874 -69 16 C-71.3295947 15.49758678 -71.3295947 15.49758678 -74 16 C-76.39383227 18.51982345 -77.82271697 20.48423012 -78.234375 24.00390625 C-78.02499588 27.94472047 -77.28274203 29.68005507 -74.625 32.6875 C-66.81450482 38.25668245 -56.99951206 41.20266138 -48.0625 44.4375 C-39.72232615 47.50525295 -31.83656544 50.80329511 -24 55 C-16.93399244 58.28934835 -9.85325812 61.11512886 -2 61 C-2.00222061 60.32205887 -2.00444122 59.64411774 -2.00672913 58.94563293 C-2.02885398 51.889135 -2.04393675 44.83264692 -2.05493164 37.77612305 C-2.05996013 35.14265543 -2.06678375 32.50919061 -2.07543945 29.87573242 C-2.08756988 26.09032502 -2.09324318 22.30495454 -2.09765625 18.51953125 C-2.10281754 17.34227982 -2.10797882 16.16502838 -2.11329651 14.95210266 C-2.11337204 13.85133896 -2.11344757 12.75057526 -2.11352539 11.61645508 C-2.115746 10.65048904 -2.11796661 9.68452301 -2.12025452 8.68928528 C-2.00125869 6.0281485 -1.59468968 3.59273509 -1 1 C-4.0851746 0.05397392 -6.49259007 -0.01578237 -9.6875 0.375 Z " fill="#A2A1A2" transform="translate(92,32)"/>
	

	

</svg>
