<?xml version="1.0" encoding="iso-8859-1"?>
<svg height="128" version="1.1" width="128" xmlns="http://www.w3.org/2000/svg">
	

	<path d="M0 0 C42.24 0 84.48 0 128 0 C128 42.24 128 84.48 128 128 C85.76 128 43.52 128 0 128 C0 85.76 0 43.52 0 0 Z " fill="#676316" transform="translate(0,0)"/>
	

	<path d="M0 0 C8.50709886 5.36855754 15.67687675 11.94635074 17.96484375 21.92578125 C19.11398933 29.45906893 17.28772326 35.05369535 13.7265625 41.6484375 C6.92651537 50.10255015 0.18356018 53.56865833 -10.5859375 55.5234375 C-28.0014827 56.43108806 -45.45674735 43.62458481 -59.5859375 34.5234375 C-61.17341797 33.51023437 -61.17341797 33.51023437 -62.79296875 32.4765625 C-66.10156604 30.1628581 -67.81039323 28.14850705 -69.5859375 24.5234375 C-68.99559478 21.35034536 -68.03912352 19.97662352 -65.7734375 17.7109375 C-63.06730849 16.24189604 -61.63497586 16.1485932 -58.5859375 16.5234375 C-56.59375 18.23828125 -56.59375 18.23828125 -54.7109375 20.4609375 C-52.09971641 23.27569483 -50.46055497 25.02930612 -46.5859375 25.5234375 C-45.5959375 25.5234375 -44.6059375 25.5234375 -43.5859375 25.5234375 C-43.49957031 24.66621094 -43.41320312 23.80898438 -43.32421875 22.92578125 C-41.74836452 10.10208674 -41.74836452 10.10208674 -36.5859375 5.5234375 C-25.62975536 -2.43302859 -12.95073108 -6.10720094 0 0 Z " fill="#F5F6F0" transform="translate(82.5859375,35.4765625)"/>
	

	<path d="M0 0 C6.07187387 3.20004163 9.47926914 7.43765372 13.25 13.09375 C13.77906121 18.38436212 13.49886773 21.99746381 10.57421875 26.4921875 C6.31622175 31.64197739 0.85617925 34.39122721 -5.75 35.09375 C-12.81233842 35.31124955 -18.95899413 33.08856252 -24.75 29.09375 C-28.56275413 25.27327774 -31.26433331 21.57843422 -31.75 16.09375 C-29.59552843 8.66494365 -25.26869272 3.99345359 -18.75 0.09375 C-13.51506139 -2.52371931 -5.41980279 -1.78607137 0 0 Z " fill="#676317" transform="translate(78.75,43.90625)"/>
	

	<path d="M0 0 C9.80020829 6.40280275 17.88641573 14.84392847 20.34375 26.53125 C20.34375 35.46253544 15.98020622 43.48200403 10.015625 50 C2.40300927 56.97230226 -6.16059919 59.51944879 -16.3359375 59.76171875 C-22.87036165 59.11267662 -28.40191424 56.96515977 -34.15625 53.96875 C-34.83768066 53.61941406 -35.51911133 53.27007812 -36.22119141 52.91015625 C-38.37353165 51.79723404 -40.5160356 50.66729947 -42.65625 49.53125 C-43.35975586 49.16016113 -44.06326172 48.78907227 -44.78808594 48.40673828 C-55.12899141 42.91088917 -65.70024744 37.26654823 -72.65625 27.53125 C-72.90625 24.59375 -72.90625 24.59375 -71.65625 21.53125 C-69.25684129 19.0429743 -66.81073094 16.96866419 -63.65625 15.53125 C-60.43731756 15.64497572 -59.10498282 16.09837676 -56.77734375 18.34375 C-56.22175781 19.065625 -55.66617188 19.7875 -55.09375 20.53125 C-52.77580767 23.52905071 -51.47934582 24.99584927 -47.65625 25.53125 C-47.45 24.231875 -47.24375 22.9325 -47.03125 21.59375 C-45.10247135 13.01540582 -39.72488724 6.54327942 -32.65625 1.53125 C-32.12 1.11746094 -31.58375 0.70367187 -31.03125 0.27734375 C-22.86101273 -4.9567145 -8.56742326 -4.10766869 0 0 Z M-33.65625 4.53125 C-34.584375 5.10875 -35.5125 5.68625 -36.46875 6.28125 C-42.49736252 12.48210859 -44.46075238 19.01821725 -44.65625 27.53125 C-48.62793388 27.53125 -50.69870765 27.43268636 -53.65625 24.6484375 C-54.31625 23.90851562 -54.97625 23.16859375 -55.65625 22.40625 C-58.77392195 18.93508584 -58.77392195 18.93508584 -63.40625 18.21875 C-67.10927174 19.71420109 -68.52290684 21.20323467 -70.65625 24.53125 C-68.52412426 31.31528643 -63.63202657 34.80174953 -57.71875 38.34375 C-57.15881348 38.67995361 -56.59887695 39.01615723 -56.02197266 39.36254883 C-54.23861239 40.42786542 -52.44815165 41.48037485 -50.65625 42.53125 C-50.06537598 42.88155273 -49.47450195 43.23185547 -48.86572266 43.59277344 C-29.85255152 55.23145937 -29.85255152 55.23145937 -8.26171875 56.97265625 C1.41103041 54.4853779 8.43429235 50.43606595 14.03515625 41.9765625 C17.58996846 35.33383879 18.03808131 28.78298799 16.34375 21.53125 C13.04870417 12.3851882 5.35788956 5.08752606 -3.34375 0.96875 C-13.87828774 -2.61465181 -24.45338824 -1.61590426 -33.65625 4.53125 Z " fill="#ABAD81" transform="translate(83.65625,33.46875)"/>
	

	<path d="M0 0 C6.07187387 3.20004163 9.47926914 7.43765372 13.25 13.09375 C13.77906121 18.38436212 13.49886773 21.99746381 10.57421875 26.4921875 C6.31622175 31.64197739 0.85617925 34.39122721 -5.75 35.09375 C-12.81233842 35.31124955 -18.95899413 33.08856252 -24.75 29.09375 C-28.56275413 25.27327774 -31.26433331 21.57843422 -31.75 16.09375 C-29.59552843 8.66494365 -25.26869272 3.99345359 -18.75 0.09375 C-13.51506139 -2.52371931 -5.41980279 -1.78607137 0 0 Z M-25.34765625 7.99609375 C-27.46647121 11.07103134 -28.64803124 13.52725687 -29.3125 17.21875 C-28.11749759 23.32654011 -24.40729826 26.68896554 -19.53125 30.11328125 C-14.17406101 33.06208484 -7.66388493 32.73188564 -1.75 32.09375 C3.49121087 30.43700092 7.15176504 27.98211876 9.875 23.15625 C11.39398795 19.4662884 11.5353884 16.94991521 10.25 13.09375 C7.38899306 7.08563544 2.43612982 3.34325175 -3.75 1.09375 C-12.65678294 -0.06199616 -19.41954407 0.93743694 -25.34765625 7.99609375 Z " fill="#ABAD81" transform="translate(78.75,43.90625)"/>
	

</svg>
