<?xml version="1.0" encoding="iso-8859-1"?>
<svg height="128" version="1.1" width="128" xmlns="http://www.w3.org/2000/svg">
	

	<path d="M0 0 C42.24 0 84.48 0 128 0 C128 42.24 128 84.48 128 128 C85.76 128 43.52 128 0 128 C0 85.76 0 43.52 0 0 Z " fill="#3D3F40" transform="translate(0,0)"/>
	

	

	<path d="M0 0 C7.53681042 1.59391929 12.00524763 5.12990172 17.2890625 10.58984375 C17.8459375 11.12609375 18.4028125 11.66234375 18.9765625 12.21484375 C21.99108548 15.37291545 21.62239552 18.77111519 21.5625 22.921875 C21.05922462 27.83240475 19.27442646 31.56761627 15.81640625 35.08984375 C10.49282829 39.31850142 3.8260566 41.65786287 -2.9609375 41.52734375 C-8.99255253 39.47111135 -12.81386355 36.27256572 -15.7109375 30.58984375 C-15.9609375 26.71484375 -15.9609375 26.71484375 -15.7109375 23.58984375 C-15.0509375 23.58984375 -14.3909375 23.58984375 -13.7109375 23.58984375 C-14.0409375 22.59984375 -14.3709375 21.60984375 -14.7109375 20.58984375 C-15.0168998 17.53022075 -15.21916948 14.46989197 -15.4296875 11.40234375 C-15.61440948 8.51232635 -15.61440948 8.51232635 -16.7109375 5.58984375 C-12.29382597 -1.91924586 -7.96665716 -1.20532997 0 0 Z " fill="#A6234F" transform="translate(69.7109375,41.41015625)"/>
	

	

	

	

	

	

	

	

	

	

	

</svg>
