<?xml version="1.0" encoding="iso-8859-1"?>
<svg height="128" version="1.1" width="128" xmlns="http://www.w3.org/2000/svg">
	

	<path d="M0 0 C42.24 0 84.48 0 128 0 C128 42.24 128 84.48 128 128 C85.76 128 43.52 128 0 128 C0 85.76 0 43.52 0 0 Z " fill="#DA4736" transform="translate(0,0)"/>
	

	<path d="M0 0 C-0.01474869 0.61006393 -0.02949738 1.22012787 -0.04469299 1.84867859 C-0.19833996 8.25743609 -0.34280234 14.66635605 -0.48217773 21.07543945 C-0.53520951 23.46025749 -0.59050274 25.84502644 -0.64819336 28.22973633 C-0.73120071 31.67778945 -0.80579479 35.12594322 -0.87890625 38.57421875 C-0.90594131 39.62268478 -0.93297638 40.67115082 -0.96083069 41.75138855 C-1.10736187 49.18923189 -0.94592796 56.61176921 0 64 C2.34284794 66.34284794 7.62774937 65.97950971 10.80078125 66.40234375 C13.63618165 66.93203394 15.60047161 67.43658413 18 69 C19.86813784 73.53690619 18.35003985 77.49986716 17 82 C15.10603434 83.89396566 11.89475615 83.17445778 9.375 83.1875 C-20.42585524 82.95965927 -42.40475876 68.10316523 -65.32714844 50.29394531 C-66.82360976 49.13643729 -68.33656316 48.00032399 -69.8515625 46.8671875 C-70.64304687 46.27164063 -71.43453125 45.67609375 -72.25 45.0625 C-72.89453125 44.57910156 -73.5390625 44.09570312 -74.203125 43.59765625 C-79.41689192 38.9619374 -81.04602444 34.45145835 -82.6875 27.875 C-83.10773579 26.26814096 -83.52829539 24.66136656 -83.94921875 23.0546875 C-84.21738403 21.99483643 -84.21738403 21.99483643 -84.4909668 20.91357422 C-84.93142292 19.25779718 -85.4581883 17.62543511 -86 16 C-82.20673743 11.25842178 -82.20673743 11.25842178 -78.95703125 10.5625 C-76.8125 10.5 -76.8125 10.5 -73 11 C-70.39283866 14.91074201 -70.25390668 18.39206279 -69.66015625 22.9921875 C-68.76657461 27.0635358 -67.12332424 29.87667576 -64.1875 32.8125 C-61.3559623 34.34962046 -59.1778732 34.08237325 -56 34 C-55.24768336 25.28118754 -54.91738812 16.72736573 -55.0625 7.984375 C-55 5 -55 5 -54 3 C-52.02090602 2.97313447 -50.04171029 2.95366625 -48.0625 2.9375 C-46.96035156 2.92589844 -45.85820313 2.91429687 -44.72265625 2.90234375 C-42 3 -42 3 -41 4 C-40.92371534 6.42756856 -40.90927082 8.82689873 -40.9375 11.25390625 C-40.94128662 11.98818344 -40.94507324 12.72246063 -40.94897461 13.47898865 C-40.96532214 16.62774458 -40.99317611 19.77637193 -41.02050781 22.92504883 C-41.03876365 25.22216169 -41.05076079 27.51925223 -41.0625 29.81640625 C-41.07079834 30.51568741 -41.07909668 31.21496857 -41.08764648 31.93544006 C-41.11093966 36.70851796 -40.67217693 41.27325979 -40 46 C-39.39414062 46.10957031 -38.78828125 46.21914062 -38.1640625 46.33203125 C-36.90722656 46.56986328 -36.90722656 46.56986328 -35.625 46.8125 C-34.81289063 46.96332031 -34.00078125 47.11414063 -33.1640625 47.26953125 C-30.32824811 47.92421926 -27.58632781 48.70250357 -24.80224609 49.5456543 C-23.90267181 49.81750046 -23.00309753 50.08934662 -22.07626343 50.36943054 C-21.3910965 50.57751846 -20.70592957 50.78560638 -20 51 C-20.00999275 50.10464035 -20.00999275 50.10464035 -20.02018738 49.19119263 C-20.08640839 42.99486665 -20.13174527 36.79864069 -20.16479492 30.60205078 C-20.17990853 28.28755615 -20.20039996 25.97309026 -20.22631836 23.65869141 C-20.26258841 20.33749304 -20.27970044 17.01667232 -20.29296875 13.6953125 C-20.30845261 12.65569366 -20.32393646 11.61607483 -20.33988953 10.54495239 C-20.34011612 9.58410736 -20.34034271 8.62326233 -20.34057617 7.63330078 C-20.35056892 6.36089035 -20.35056892 6.36089035 -20.36076355 5.06277466 C-20.24171158 4.38205902 -20.12265961 3.70134338 -20 3 C-16.93068813 0.95379209 -15.78955061 0.67179462 -12.25 0.375 C-11.43015625 0.30023437 -10.6103125 0.22546875 -9.765625 0.1484375 C-6.5070371 -0.02645846 -3.26276625 -0.00909782 0 0 Z " fill="#F9F6F5" transform="translate(94,26)"/>
	

	

</svg>
