<?xml version="1.0" encoding="iso-8859-1"?>
<svg height="128" version="1.1" width="128" xmlns="http://www.w3.org/2000/svg">
	

	<path d="M0 0 C42.24 0 84.48 0 128 0 C128 42.24 128 84.48 128 128 C85.76 128 43.52 128 0 128 C0 85.76 0 43.52 0 0 Z " fill="#FBFBFA" transform="translate(0,0)"/>
	

	<path d="M0 0 C0.98558899 -0.00095673 1.97117798 -0.00191345 2.9866333 -0.00289917 C5.06091374 -0.00357746 7.13519634 -0.00174775 9.20947266 0.00244141 C12.39360263 0.00781753 15.57759301 0.0024728 18.76171875 -0.00390625 C20.77864615 -0.00324585 22.79557345 -0.00196549 24.8125 0 C26.24526276 -0.00303635 26.24526276 -0.00303635 27.70697021 -0.00613403 C28.58838684 -0.00298187 29.46980347 0.00017029 30.37792969 0.00341797 C31.1548114 0.00421356 31.93169312 0.00500916 32.7321167 0.00582886 C34.640625 0.1328125 34.640625 0.1328125 36.640625 1.1328125 C36.71674511 7.87712365 36.76925432 14.62132384 36.80541992 21.3659668 C36.82049808 23.65995422 36.8409637 25.95391287 36.86694336 28.24780273 C36.90336858 31.54678455 36.92036131 34.8453849 36.93359375 38.14453125 C36.94907761 39.16866623 36.96456146 40.19280121 36.98051453 41.24797058 C36.98263845 50.25212729 36.98263845 50.25212729 33.640625 54.1328125 C32.650625 54.7928125 31.660625 55.4528125 30.640625 56.1328125 C30.23333272 58.45437847 29.89623823 60.7896912 29.640625 63.1328125 C28.640625 64.1328125 28.640625 64.1328125 26.078125 64.1953125 C25.27375 64.1746875 24.469375 64.1540625 23.640625 64.1328125 C23.970625 66.1128125 24.300625 68.0928125 24.640625 70.1328125 C26.620625 70.7928125 28.600625 71.4528125 30.640625 72.1328125 C31.300625 69.8228125 31.960625 67.5128125 32.640625 65.1328125 C33.630625 65.1328125 34.620625 65.1328125 35.640625 65.1328125 C36.1131004 73.00740245 35.88990726 78.38395244 31.640625 85.1328125 C29.34881331 87.42462419 27.66314637 87.99097109 24.640625 89.1328125 C20.103004 90.7209254 20.103004 90.7209254 16.3515625 93.5390625 C13.84585146 95.87314949 11.03667145 96.87545825 7.890625 98.1953125 C6.69953125 98.70191406 5.5084375 99.20851563 4.28125 99.73046875 C-3.15220323 102.59378389 -9.34015988 103.44708019 -17.234375 103.3828125 C-18.64783203 103.39441406 -18.64783203 103.39441406 -20.08984375 103.40625 C-35.12753554 103.36465196 -35.12753554 103.36465196 -39.359375 99.1328125 C-45.47118156 96.27909564 -51.94040112 94.17944185 -58.359375 92.1328125 C-58.359375 91.4728125 -58.359375 90.8128125 -58.359375 90.1328125 C-58.936875 89.9059375 -59.514375 89.6790625 -60.109375 89.4453125 C-65.67895496 86.19639086 -67.66058443 80.77455504 -69.6640625 74.921875 C-70.6886295 70.81209502 -70.4377814 68.23075683 -69.359375 64.1328125 C-67.796875 61.6328125 -67.796875 61.6328125 -66.359375 60.1328125 C-65.369375 60.4628125 -64.379375 60.7928125 -63.359375 61.1328125 C-63.029375 64.4328125 -62.699375 67.7328125 -62.359375 71.1328125 C-61.369375 70.6378125 -61.369375 70.6378125 -60.359375 70.1328125 C-60.51986328 68.81216797 -60.51986328 68.81216797 -60.68359375 67.46484375 C-60.86341797 65.72267578 -60.86341797 65.72267578 -61.046875 63.9453125 C-61.23830078 62.22248047 -61.23830078 62.22248047 -61.43359375 60.46484375 C-61.34407335 56.44584895 -60.20707409 53.98051159 -57.359375 51.1328125 C-57.03477239 47.10198239 -57.03477239 47.10198239 -57.359375 43.1328125 C-58.349375 42.4728125 -59.339375 41.8128125 -60.359375 41.1328125 C-60.546875 38.5078125 -60.546875 38.5078125 -60.359375 36.1328125 C-59.369375 36.1328125 -58.379375 36.1328125 -57.359375 36.1328125 C-57.359375 35.4728125 -57.359375 34.8128125 -57.359375 34.1328125 C-55.12890625 32.2578125 -55.12890625 32.2578125 -52.171875 30.1328125 C-51.20894531 29.4315625 -50.24601562 28.7303125 -49.25390625 28.0078125 C-46.359375 26.1328125 -46.359375 26.1328125 -43.55859375 25.0703125 C-42.46998047 24.60625 -42.46998047 24.60625 -41.359375 24.1328125 C-41.029375 23.1428125 -40.699375 22.1528125 -40.359375 21.1328125 C-39.369375 21.1328125 -38.379375 21.1328125 -37.359375 21.1328125 C-37.11703125 20.49859375 -36.8746875 19.864375 -36.625 19.2109375 C-35.359375 17.1328125 -35.359375 17.1328125 -33.40625 16.3046875 C-21.799375 14.1728125 -21.799375 14.1728125 -17.359375 17.1328125 C-17.359375 17.7928125 -17.359375 18.4528125 -17.359375 19.1328125 C-16.4725 19.1740625 -15.585625 19.2153125 -14.671875 19.2578125 C-10.95986144 20.23834438 -9.87821572 21.50033409 -7.64453125 24.53125 C-6.22557011 26.42685622 -6.22557011 26.42685622 -3.296875 28.5078125 C-0.15118849 31.31885151 1.04524136 33.52621419 2.5859375 37.36328125 C3.92885724 39.61640214 5.2783657 40.08444548 7.640625 41.1328125 C11.63622353 45.12841103 12.54583511 48.75009553 13.640625 54.1328125 C14.300625 54.1328125 14.960625 54.1328125 15.640625 54.1328125 C16.66167051 55.11131445 17.6612371 56.11261677 18.640625 57.1328125 C19.300625 57.4628125 19.960625 57.7928125 20.640625 58.1328125 C20.640625 56.4828125 20.640625 54.8328125 20.640625 53.1328125 C20.063125 53.1121875 19.485625 53.0915625 18.890625 53.0703125 C15.36418146 51.60096103 14.13917696 48.46617687 12.640625 45.1328125 C12.475625 44.3696875 12.310625 43.6065625 12.140625 42.8203125 C11.975625 42.2634375 11.810625 41.7065625 11.640625 41.1328125 C10.980625 40.8646875 10.320625 40.5965625 9.640625 40.3203125 C8.650625 39.7325 8.650625 39.7325 7.640625 39.1328125 C6.890625 35.5078125 6.890625 35.5078125 6.640625 32.1328125 C5.4959375 31.730625 5.4959375 31.730625 4.328125 31.3203125 C0.68376819 29.71001531 -0.78644559 28.14846008 -2.734375 24.6953125 C-4.25166729 21.97480652 -4.25166729 21.97480652 -6.984375 20.1328125 C-9.359375 18.1328125 -9.359375 18.1328125 -10.171875 15.3828125 C-10.23375 14.6403125 -10.295625 13.8978125 -10.359375 13.1328125 C-7.389375 13.4628125 -4.419375 13.7928125 -1.359375 14.1328125 C-1.029375 13.1428125 -0.699375 12.1528125 -0.359375 11.1328125 C-1.49375 10.9884375 -2.628125 10.8440625 -3.796875 10.6953125 C-7.359375 10.1328125 -7.359375 10.1328125 -8.359375 9.1328125 C-9.49375 8.9884375 -10.628125 8.8440625 -11.796875 8.6953125 C-15.359375 8.1328125 -15.359375 8.1328125 -17.359375 6.1328125 C-16.984375 3.5078125 -16.984375 3.5078125 -16.359375 1.1328125 C-10.88460859 -0.01145686 -5.56431247 -0.01189284 0 0 Z " fill="#DE1E1C" transform="translate(83.359375,9.8671875)"/>
	

	<path d="M0 0 C0.98558899 -0.00095673 1.97117798 -0.00191345 2.9866333 -0.00289917 C5.06091374 -0.00357746 7.13519634 -0.00174775 9.20947266 0.00244141 C12.39360263 0.00781753 15.57759301 0.0024728 18.76171875 -0.00390625 C20.77864615 -0.00324585 22.79557345 -0.00196549 24.8125 0 C26.24526276 -0.00303635 26.24526276 -0.00303635 27.70697021 -0.00613403 C28.58838684 -0.00298187 29.46980347 0.00017029 30.37792969 0.00341797 C31.1548114 0.00421356 31.93169312 0.00500916 32.7321167 0.00582886 C34.640625 0.1328125 34.640625 0.1328125 36.640625 1.1328125 C36.71674511 7.87712365 36.76925432 14.62132384 36.80541992 21.3659668 C36.82049808 23.65995422 36.8409637 25.95391287 36.86694336 28.24780273 C36.90336858 31.54678455 36.92036131 34.8453849 36.93359375 38.14453125 C36.94907761 39.16866623 36.96456146 40.19280121 36.98051453 41.24797058 C36.98263845 50.25212729 36.98263845 50.25212729 33.640625 54.1328125 C32.650625 54.7928125 31.660625 55.4528125 30.640625 56.1328125 C30.23333272 58.45437847 29.89623823 60.7896912 29.640625 63.1328125 C28.640625 64.1328125 28.640625 64.1328125 26.078125 64.1953125 C25.27375 64.1746875 24.469375 64.1540625 23.640625 64.1328125 C23.970625 66.1128125 24.300625 68.0928125 24.640625 70.1328125 C26.620625 70.7928125 28.600625 71.4528125 30.640625 72.1328125 C31.300625 69.8228125 31.960625 67.5128125 32.640625 65.1328125 C33.630625 65.1328125 34.620625 65.1328125 35.640625 65.1328125 C36.1131004 73.00740245 35.88990726 78.38395244 31.640625 85.1328125 C29.34881331 87.42462419 27.66314637 87.99097109 24.640625 89.1328125 C20.103004 90.7209254 20.103004 90.7209254 16.3515625 93.5390625 C13.84585146 95.87314949 11.03667145 96.87545825 7.890625 98.1953125 C6.69953125 98.70191406 5.5084375 99.20851563 4.28125 99.73046875 C-3.15220323 102.59378389 -9.34015988 103.44708019 -17.234375 103.3828125 C-18.64783203 103.39441406 -18.64783203 103.39441406 -20.08984375 103.40625 C-35.12753554 103.36465196 -35.12753554 103.36465196 -39.359375 99.1328125 C-45.47118156 96.27909564 -51.94040112 94.17944185 -58.359375 92.1328125 C-58.359375 91.4728125 -58.359375 90.8128125 -58.359375 90.1328125 C-58.936875 89.9059375 -59.514375 89.6790625 -60.109375 89.4453125 C-65.67895496 86.19639086 -67.66058443 80.77455504 -69.6640625 74.921875 C-70.6886295 70.81209502 -70.4377814 68.23075683 -69.359375 64.1328125 C-67.796875 61.6328125 -67.796875 61.6328125 -66.359375 60.1328125 C-65.369375 60.4628125 -64.379375 60.7928125 -63.359375 61.1328125 C-63.029375 64.4328125 -62.699375 67.7328125 -62.359375 71.1328125 C-61.369375 70.6378125 -61.369375 70.6378125 -60.359375 70.1328125 C-60.51986328 68.81216797 -60.51986328 68.81216797 -60.68359375 67.46484375 C-60.86341797 65.72267578 -60.86341797 65.72267578 -61.046875 63.9453125 C-61.23830078 62.22248047 -61.23830078 62.22248047 -61.43359375 60.46484375 C-61.34407335 56.44584895 -60.20707409 53.98051159 -57.359375 51.1328125 C-57.03477239 47.10198239 -57.03477239 47.10198239 -57.359375 43.1328125 C-58.349375 42.4728125 -59.339375 41.8128125 -60.359375 41.1328125 C-60.546875 38.5078125 -60.546875 38.5078125 -60.359375 36.1328125 C-59.699375 36.1328125 -59.039375 36.1328125 -58.359375 36.1328125 C-58.070625 36.8959375 -57.781875 37.6590625 -57.484375 38.4453125 C-56.39668487 41.28310558 -56.39668487 41.28310558 -54.359375 44.1328125 C-53.874893 50.0434929 -54.65280309 52.83244252 -57.359375 58.1328125 C-58.24971303 65.84907545 -55.75256865 73.78936934 -51.359375 80.1328125 C-48.28826241 82.8834105 -44.87949501 84.99837509 -41.359375 87.1328125 C-40.52921875 87.64714844 -39.6990625 88.16148438 -38.84375 88.69140625 C-31.84895152 92.30129494 -25.14431257 92.59009391 -17.421875 92.6328125 C-15.91040894 92.64235962 -15.91040894 92.64235962 -14.3684082 92.65209961 C-9.16810341 92.56183017 -5.63672474 92.37398255 -1.359375 89.1328125 C-0.26625 88.8234375 0.826875 88.5140625 1.953125 88.1953125 C10.20910864 85.81646976 16.7509234 81.15890629 23.640625 76.1328125 C23.08710644 72.16009067 21.96021751 69.77718419 19.578125 66.5703125 C16.81533471 62.77147585 14.15864465 58.93317988 11.578125 55.0078125 C8.86786463 50.90565485 6.06751906 46.95842153 2.96484375 43.14453125 C1.640625 41.1328125 1.640625 41.1328125 0.4140625 37.79296875 C-1.4378112 33.30135496 -4.68185393 30.83526047 -8.421875 27.8828125 C-9.686258 26.86005577 -10.94808613 25.8341305 -12.20703125 24.8046875 C-12.76398682 24.3622168 -13.32094238 23.91974609 -13.89477539 23.46386719 C-15.359375 22.1328125 -15.359375 22.1328125 -17.359375 19.1328125 C-14.671875 19.2578125 -14.671875 19.2578125 -11.359375 20.1328125 C-8.859375 22.8828125 -8.859375 22.8828125 -7.64453125 24.53125 C-6.22557011 26.42685622 -6.22557011 26.42685622 -3.296875 28.5078125 C-0.15118849 31.31885151 1.04524136 33.52621419 2.5859375 37.36328125 C3.92885724 39.61640214 5.2783657 40.08444548 7.640625 41.1328125 C11.63622353 45.12841103 12.54583511 48.75009553 13.640625 54.1328125 C14.300625 54.1328125 14.960625 54.1328125 15.640625 54.1328125 C16.66167051 55.11131445 17.6612371 56.11261677 18.640625 57.1328125 C19.300625 57.4628125 19.960625 57.7928125 20.640625 58.1328125 C20.640625 56.4828125 20.640625 54.8328125 20.640625 53.1328125 C20.063125 53.1121875 19.485625 53.0915625 18.890625 53.0703125 C15.36418146 51.60096103 14.13917696 48.46617687 12.640625 45.1328125 C12.475625 44.3696875 12.310625 43.6065625 12.140625 42.8203125 C11.975625 42.2634375 11.810625 41.7065625 11.640625 41.1328125 C10.980625 40.8646875 10.320625 40.5965625 9.640625 40.3203125 C8.650625 39.7325 8.650625 39.7325 7.640625 39.1328125 C6.890625 35.5078125 6.890625 35.5078125 6.640625 32.1328125 C5.4959375 31.730625 5.4959375 31.730625 4.328125 31.3203125 C0.68376819 29.71001531 -0.78644559 28.14846008 -2.734375 24.6953125 C-4.25166729 21.97480652 -4.25166729 21.97480652 -6.984375 20.1328125 C-9.359375 18.1328125 -9.359375 18.1328125 -10.171875 15.3828125 C-10.23375 14.6403125 -10.295625 13.8978125 -10.359375 13.1328125 C-7.389375 13.4628125 -4.419375 13.7928125 -1.359375 14.1328125 C-1.029375 13.1428125 -0.699375 12.1528125 -0.359375 11.1328125 C-1.49375 10.9884375 -2.628125 10.8440625 -3.796875 10.6953125 C-7.359375 10.1328125 -7.359375 10.1328125 -8.359375 9.1328125 C-9.49375 8.9884375 -10.628125 8.8440625 -11.796875 8.6953125 C-15.359375 8.1328125 -15.359375 8.1328125 -17.359375 6.1328125 C-16.984375 3.5078125 -16.984375 3.5078125 -16.359375 1.1328125 C-10.88460859 -0.01145686 -5.56431247 -0.01189284 0 0 Z " fill="#DBD1CD" transform="translate(83.359375,9.8671875)"/>
	

	<path d="M0 0 C-1 3 -1 3 -2.875 4 C-3.57625 4.33 -4.2775 4.66 -5 5 C-5.53625 5.53625 -6.0725 6.0725 -6.625 6.625 C-7.07875 7.07875 -7.5325 7.5325 -8 8 C-8.66 8 -9.32 8 -10 8 C-9.69964844 8.556875 -9.39929688 9.11375 -9.08984375 9.6875 C-5.48476226 16.92210421 -5.75666619 20.92462806 -8.125 28.6875 C-9.06124259 32.23184695 -8.888018 33.52865692 -8 37 C-7.97164062 37.77730469 -7.94328125 38.55460937 -7.9140625 39.35546875 C-7.82450523 44.32785682 -7.82450523 44.32785682 -5.7421875 48.6875 C-3.11254952 50.90749588 -0.16685849 52.66017525 3 54 C3 54.66 3 55.32 3 56 C7.95 56 12.9 56 18 56 C17.01 56.99 16.02 57.98 15 59 C16.91541138 59.10841951 18.83259773 59.18578079 20.75 59.25 C21.81734375 59.29640625 22.8846875 59.3428125 23.984375 59.390625 C27.66686479 58.91361855 28.61325128 57.73078458 31 55 C31.66 55 32.32 55 33 55 C33 54.34 33 53.68 33 53 C39.93 53.495 39.93 53.495 47 54 C48.10556581 48.47217095 47.17768379 46.63853053 44.6875 42 C41.21021829 35.12824933 39.63780131 28.71869744 39 21 C41.475 21.99 41.475 21.99 44 23 C43.38302522 18.98966393 41.23307398 16.31577651 39 13 C38.28426473 11.35380887 37.5974304 9.69271945 37 8 C47.00418471 12.07577896 53.93848314 24.5655394 59.3203125 33.3203125 C61.414259 36.66088762 63.70150259 39.84771399 66.03125 43.02734375 C67 45 67 45 66.96875 47.00390625 C63.57077773 54.00537331 53.06922663 58.49242527 46 61 C44.71296978 61.39061618 43.42147512 61.76697758 42.125 62.125 C38.87135735 62.86200961 38.87135735 62.86200961 36 65 C24.25692903 66.59101307 11.21831223 66.37287758 1 60 C0.01644531 59.41863281 -0.96710937 58.83726563 -1.98046875 58.23828125 C-9.39399468 53.41018576 -13.58497474 48.08277092 -15.6015625 39.4140625 C-16.35719596 34.83581272 -16.64520561 31.26352766 -14.5 27.0625 C-12.48475961 22.94805087 -12.55882606 20.55879742 -13 16 C-13.96873032 14.64377755 -14.96434215 13.30582947 -16 12 C-16 9.375 -16 9.375 -15 7 C-12.75 5.9375 -12.75 5.9375 -10 5 C-8.321702 3.68133728 -6.65385233 2.34919532 -5 1 C-2 0 -2 0 0 0 Z " fill="#D50D0E" transform="translate(41,38)"/>
	

	<path d="M0 0 C0.76978683 0.02361099 1.53957367 0.04722198 2.33268738 0.07154846 C4.7779878 0.14778316 7.22293886 0.23197875 9.66796875 0.31640625 C11.33136343 0.36966726 12.99477488 0.42240735 14.65820312 0.47460938 C18.72417724 0.60334345 22.78985693 0.73921519 26.85546875 0.87890625 C27.63559532 3.64489755 27.98158022 6.10237517 27.98486328 8.97314453 C27.98801544 9.7672171 27.9911676 10.56128967 27.99441528 11.37942505 C27.99239105 12.22745697 27.99036682 13.07548889 27.98828125 13.94921875 C27.98923798 14.82665741 27.9901947 15.70409607 27.99118042 16.60812378 C27.99185984 18.45896476 27.99002216 20.30980815 27.98583984 22.16064453 C27.98047541 25.00037955 27.98579946 27.83995732 27.9921875 30.6796875 C27.99152693 32.47786493 27.9902462 34.27604227 27.98828125 36.07421875 C27.99030548 36.92629913 27.99232971 37.77837952 27.99441528 38.65628052 C27.97043625 44.64897126 27.97043625 44.64897126 26.85546875 46.87890625 C25.86546875 46.87890625 24.87546875 46.87890625 23.85546875 46.87890625 C23.19546875 43.24890625 22.53546875 39.61890625 21.85546875 35.87890625 C19.87546875 35.87890625 17.89546875 35.87890625 15.85546875 35.87890625 C15.85546875 32.90890625 15.85546875 29.93890625 15.85546875 26.87890625 C15.19546875 26.87890625 14.53546875 26.87890625 13.85546875 26.87890625 C13.52546875 25.88890625 13.19546875 24.89890625 12.85546875 23.87890625 C9.34356066 22.64920747 9.34356066 22.64920747 5.85546875 21.87890625 C5.52546875 19.56890625 5.19546875 17.25890625 4.85546875 14.87890625 C3.74171875 14.67265625 2.62796875 14.46640625 1.48046875 14.25390625 C0.28421875 13.80015625 -0.91203125 13.34640625 -2.14453125 12.87890625 C-2.43328125 11.90953125 -2.72203125 10.94015625 -3.01953125 9.94140625 C-3.79416681 6.75357938 -3.79416681 6.75357938 -6.25390625 5.8203125 C-8.53772052 5.07913675 -10.80733408 4.42713769 -13.14453125 3.87890625 C-13.14453125 2.88890625 -13.14453125 1.89890625 -13.14453125 0.87890625 C-8.73684549 -0.24476986 -4.5068126 -0.1647012 0 0 Z " fill="#2D2E2D" transform="translate(89.14453125,12.12109375)"/>
	

	<path d="M0 0 C36.3 0 72.6 0 110 0 C110 28.38 110 56.76 110 86 C109.34 85.67 108.68 85.34 108 85 C105.18794396 76.30478163 105.73922825 66.85749794 105.8046875 57.83203125 C105.80842649 56.30075772 105.81126927 54.76948176 105.81326294 53.23820496 C105.82082974 49.24503756 105.84041679 45.25202007 105.8626709 41.25891113 C105.88328082 37.16937283 105.89229675 33.07980985 105.90234375 28.99023438 C105.92367064 20.99342146 105.95772046 12.99672948 106 5 C104.97730515 4.99191315 103.95461029 4.98382629 102.90092468 4.97549438 C93.17936981 4.89741275 83.45794433 4.80952762 73.73655987 4.71247292 C68.74082301 4.66290082 63.74510341 4.61657354 58.74926758 4.578125 C53.91212444 4.54077065 49.07514141 4.49428847 44.2381382 4.44193649 C42.40896273 4.42365471 40.5797533 4.40845448 38.75052452 4.39665604 C29.24034278 4.33322398 19.81543225 4.03757564 10.34692383 3.09912109 C9.5362102 3.02223368 8.72549658 2.94534626 7.89021587 2.86612892 C2.24646512 2.24646512 2.24646512 2.24646512 0 0 Z " fill="#7C726E" transform="translate(18,0)"/>
	

	<path d="M0 0 C0.66 0 1.32 0 2 0 C2.4846875 1.07378906 2.969375 2.14757812 3.46875 3.25390625 C8.73958602 14.57663967 13.9919904 22.25936294 26 27 C28.3243602 27.69730806 30.65673706 28.36912152 33 29 C33.60529541 29.34184326 34.21059082 29.68368652 34.83422852 30.03588867 C39.45110306 32.09112907 44.96794296 31.32602628 49.9375 31.3125 C51.70770508 31.33666992 51.70770508 31.33666992 53.51367188 31.36132812 C55.22200195 31.36229492 55.22200195 31.36229492 56.96484375 31.36328125 C58.52126587 31.36775269 58.52126587 31.36775269 60.10913086 31.37231445 C63.4224498 30.94559278 65.23502769 29.82036264 68 28 C69.11117187 27.68933594 70.22234375 27.37867187 71.3671875 27.05859375 C75.39176773 25.88583973 78.55408935 24.20112231 82.125 22.0625 C82.71925781 21.71509766 83.31351562 21.36769531 83.92578125 21.00976562 C86.56129121 19.46511244 89.16861512 17.89215357 91.7421875 16.24609375 C94 15 94 15 97 15 C96.71711523 18.39461728 96.25867941 19.74132059 93.8125 22.1875 C90.91818196 24.05272718 88.25619517 24.93819723 85 26 C84.58492188 26.45117188 84.16984375 26.90234375 83.7421875 27.3671875 C81.22364028 29.72761965 78.42208445 30.73172208 75.25 32.0625 C74.05890625 32.56910156 72.8678125 33.07570312 71.640625 33.59765625 C64.20717177 36.46097139 58.01921512 37.31426769 50.125 37.25 C48.71154297 37.26160156 48.71154297 37.26160156 47.26953125 37.2734375 C32.23183946 37.23183946 32.23183946 37.23183946 28 33 C26.47867528 32.32699761 24.93281797 31.70857887 23.375 31.125 C21.58265746 30.41837862 19.79097574 29.71007849 18 29 C17.27683594 28.71382812 16.55367187 28.42765625 15.80859375 28.1328125 C7.82069366 24.60000346 2.88932138 18.175004 -0.3515625 10.18359375 C-1.31520541 6.93855528 -1.35027841 4.36267274 -1 1 C-0.67 0.67 -0.34 0.34 0 0 Z " fill="#80756F" transform="translate(16,76)"/>
	

	<path d="M0 0 C0.66 0 1.32 0 2 0 C2.28875 0.763125 2.5775 1.52625 2.875 2.3125 C3.96269013 5.15029308 3.96269013 5.15029308 6 8 C6.484482 13.9106804 5.70657191 16.69963002 3 22 C2.10966197 29.71626295 4.60680635 37.65655684 9 44 C12.07111259 46.750598 15.47987999 48.86556259 19 51 C19.83015625 51.51433594 20.6603125 52.02867188 21.515625 52.55859375 C28.51042348 56.16848244 35.21506243 56.45728141 42.9375 56.5 C44.44896606 56.50954712 44.44896606 56.50954712 45.9909668 56.51928711 C51.19127159 56.42901767 54.72265026 56.24117005 59 53 C60.093125 52.690625 61.18625 52.38125 62.3125 52.0625 C70.02172817 49.84119697 78.26402477 45.6536969 84 40 C84.37646135 37.34967829 84.37646135 37.34967829 84 35 C84.66 35.33 85.32 35.66 86 36 C86.625 38.0625 86.625 38.0625 87 40 C80.00921343 45.66178078 73.53553051 50.87930209 65 54 C63.845 54.495 62.69 54.99 61.5 55.5 C60.345 55.995 59.19 56.49 58 57 C57.3694873 57.33273926 56.73897461 57.66547852 56.08935547 58.00830078 C49.85604856 61.16486482 44.53661453 61.55126936 37.625 61.375 C36.64144531 61.37371094 35.65789063 61.37242188 34.64453125 61.37109375 C27.42327962 61.28218641 27.42327962 61.28218641 24 59 C22.948125 58.731875 21.89625 58.46375 20.8125 58.1875 C16.25420496 56.76770318 12.86101426 54.76103123 9 52 C8.31550781 51.51789063 7.63101562 51.03578125 6.92578125 50.5390625 C0.93563185 45.86104106 -2.28128044 40.04395522 -5 33 C-5 32.01 -5 31.02 -5 30 C-5.66 30.33 -6.32 30.66 -7 31 C-7.72638721 37.68276231 -5.53192256 42.36801538 -2 48 C-0.42803844 49.82687424 1.21721166 51.37002209 3 53 C3 53.66 3 54.32 3 55 C4.32 55.66 5.64 56.32 7 57 C5.35 56.67 3.7 56.34 2 56 C2 55.34 2 54.68 2 54 C1.4225 53.773125 0.845 53.54625 0.25 53.3125 C-5.31957996 50.06357836 -7.30120943 44.64174254 -9.3046875 38.7890625 C-10.3292545 34.67928252 -10.0784064 32.09794433 -9 28 C-7.4375 25.5 -7.4375 25.5 -6 24 C-5.01 24.33 -4.02 24.66 -3 25 C-2.67 28.3 -2.34 31.6 -2 35 C-1.01 34.505 -1.01 34.505 0 34 C-0.16048828 32.67935547 -0.16048828 32.67935547 -0.32421875 31.33203125 C-0.44410156 30.17058594 -0.56398438 29.00914063 -0.6875 27.8125 C-0.81511719 26.66394531 -0.94273438 25.51539062 -1.07421875 24.33203125 C-0.98469835 20.31303645 0.15230091 17.84769909 3 15 C3.32460261 10.96916989 3.32460261 10.96916989 3 7 C2.01 6.34 1.02 5.68 0 5 C-0.1875 2.375 -0.1875 2.375 0 0 Z " fill="#D89183" transform="translate(23,46)"/>
	

	<path d="M0 0 C2.6875 0.125 2.6875 0.125 6 1 C8.5 3.75 8.5 3.75 9.71484375 5.3984375 C11.13380489 7.29404372 11.13380489 7.29404372 14.0625 9.375 C17.20818651 12.18603901 18.40461636 14.39340169 19.9453125 18.23046875 C21.28823224 20.48358964 22.6377407 20.95163298 25 22 C28.99559853 25.99559853 29.90521011 29.61728303 31 35 C31.66 35 32.32 35 33 35 C34.5078125 37.1171875 34.5078125 37.1171875 36.125 39.875 C36.66382813 40.77992187 37.20265625 41.68484375 37.7578125 42.6171875 C39 45 39 45 39 47 C39.66 47 40.32 47 41 47 C41.04125 47.61875 41.0825 48.2375 41.125 48.875 C41.558125 49.926875 41.558125 49.926875 42 51 C44.99615946 52.3045656 44.99615946 52.3045656 48 53 C48.66 50.69 49.32 48.38 50 46 C50.99 46 51.98 46 53 46 C53.84974093 60.16234888 53.84974093 60.16234888 49 66 C46.859375 67.2109375 46.859375 67.2109375 45 68 C45.66 66.02 46.32 64.04 47 62 C42.86092281 63.9956265 38.86981265 66.0199415 35 68.5 C28.85767618 72.40656603 23.040882 75.06720886 16 77 C14.515 77.99 14.515 77.99 13 79 C10.27270508 79.22705078 10.27270508 79.22705078 7.01953125 79.1953125 C5.85615234 79.18886719 4.69277344 79.18242188 3.49414062 79.17578125 C1.67172852 79.15064453 1.67172852 79.15064453 -0.1875 79.125 C-1.41404297 79.11597656 -2.64058594 79.10695313 -3.90429688 79.09765625 C-6.93639295 79.07406017 -9.96809938 79.04113841 -13 79 C-13 78.67 -13 78.34 -13 78 C-11.15148438 77.99613281 -11.15148438 77.99613281 -9.265625 77.9921875 C1.36764646 77.80497823 8.70857233 76.50817865 18 71 C19.40096627 70.41893139 20.81704517 69.87197855 22.25 69.375 C30.25460946 66.43997653 36.42022207 62.4222244 43 57 C42.52333996 52.71005961 39.97541844 50.92872856 37 48 C35.27812974 45.70002889 33.7361545 43.29398039 32.1875 40.875 C28.54550299 35.27887754 24.75965309 29.86226206 20.69140625 24.5625 C19 22 19 22 17.71875 18.578125 C15.55434787 14.07223329 12.80135856 11.80020777 8.9375 8.75 C7.673117 7.72724327 6.41128887 6.701318 5.15234375 5.671875 C4.59538818 5.2294043 4.03843262 4.78693359 3.46459961 4.33105469 C2 3 2 3 0 0 Z " fill="#D7BAB3" transform="translate(66,29)"/>
	

	<path d="M0 0 C2.0625 0.4375 2.0625 0.4375 4 1 C3.24074219 1.47050781 2.48148438 1.94101562 1.69921875 2.42578125 C0.70535156 3.04839844 -0.28851563 3.67101563 -1.3125 4.3125 C-2.29863281 4.92738281 -3.28476562 5.54226562 -4.30078125 6.17578125 C-6.95399578 7.84444761 -6.95399578 7.84444761 -8.73046875 9.73046875 C-9.14941406 10.14941406 -9.56835938 10.56835938 -10 11 C-10.66 11 -11.32 11 -12 11 C-12 11.66 -12 12.32 -12 13 C-12.99 13 -13.98 13 -15 13 C-14.72965366 15.43717258 -14.72965366 15.43717258 -14 18 C-13.01 18.66 -12.02 19.32 -11 20 C-10.31977819 27.14232902 -10.31977819 27.14232902 -12.4375 29.8125 C-12.953125 30.204375 -13.46875 30.59625 -14 31 C-15.78141946 36.34425837 -15.06384343 41.54780241 -14 47 C-15.485 47.495 -15.485 47.495 -17 48 C-17.99 43.05 -17.99 43.05 -19 38 C-19.66 38 -20.32 38 -21 38 C-23.57177789 42.11484463 -24.43107313 45.01200898 -23.578125 49.8515625 C-21.94220531 55.9309938 -19.32994962 61.38138707 -15 66 C-14.34 66.33 -13.68 66.66 -13 67 C-13 67.66 -13 68.32 -13 69 C-11.741875 69.226875 -10.48375 69.45375 -9.1875 69.6875 C-2.75223609 71.10285076 3.21597331 73.87669845 8.94921875 77.09375 C13.56575352 79.1338187 18.51956786 79.12133539 23.4921875 79.09765625 C24.69101562 79.09443359 25.88984375 79.09121094 27.125 79.08789062 C28.3625 79.07951172 29.6 79.07113281 30.875 79.0625 C32.13570312 79.05798828 33.39640625 79.05347656 34.6953125 79.04882812 C37.79692386 79.0370796 40.89843725 79.02065167 44 79 C39.79096919 83.20903081 34.29109658 83.15722181 28.625 83.25 C23.16127581 83.16227966 18.24012534 82.5059001 13 81 C12.30519531 80.80921875 11.61039063 80.6184375 10.89453125 80.421875 C9.25825734 79.96463279 7.62825828 79.4850131 6 79 C6 78.34 6 77.68 6 77 C5.07767578 76.81824219 5.07767578 76.81824219 4.13671875 76.6328125 C3.32847656 76.46523437 2.52023438 76.29765625 1.6875 76.125 C0.88699219 75.96257812 0.08648437 75.80015625 -0.73828125 75.6328125 C-3 75 -3 75 -6 73 C-8.32387947 72.60612212 -10.65793749 72.26513915 -13 72 C-13.33 70.68 -13.66 69.36 -14 68 C-14.639375 67.896875 -15.27875 67.79375 -15.9375 67.6875 C-16.618125 67.460625 -17.29875 67.23375 -18 67 C-18.33 66.01 -18.66 65.02 -19 64 C-19.99 63.67 -20.98 63.34 -22 63 C-26.00399977 56.15372434 -28.32115161 48.9130028 -27 41 C-26.00522247 38.66443537 -25.00484883 36.33124929 -24 34 C-23.59833847 30.85567992 -23.37772357 27.7391829 -23.2109375 24.57421875 C-23 22 -23 22 -22 20 C-17.75177626 20.47202486 -15.80010291 22.96655518 -13 26 C-13.41466698 22.36431647 -13.41466698 22.36431647 -15.5625 19.5625 C-17 18 -17 18 -17.25 14.9375 C-17 12 -17 12 -16 10 C-14.33333333 9.33333333 -12.66666667 8.66666667 -11 8 C-10.67 7.34 -10.34 6.68 -10 6 C-8.53117053 5.09328027 -7.02514118 4.24592135 -5.5 3.4375 C-2.55848713 1.98363365 -2.55848713 1.98363365 0 0 Z " fill="#E2DDD9" transform="translate(38,33)"/>
	

	<path d="M0 0 C1.2417675 0.00068733 1.2417675 0.00068733 2.50862122 0.00138855 C4.24917036 0.00439645 5.98971717 0.01223868 7.73022461 0.0246582 C10.39641829 0.04298172 13.06226536 0.04516718 15.72851562 0.04492188 C17.42318009 0.04983528 19.1178422 0.05566282 20.8125 0.0625 C22.00784615 0.06416924 22.00784615 0.06416924 23.2273407 0.06587219 C26.47476541 0.09382444 29.10480541 0.19639347 32.20703125 1.23046875 C33.39887552 5.93305229 33.36859232 10.51096748 33.375 15.328125 C33.3799926 16.63504555 33.3799926 16.63504555 33.38508606 17.96836853 C33.39013522 19.80483474 33.39249501 21.64131006 33.39233398 23.4777832 C33.39452641 26.28677386 33.41271954 29.09537531 33.43164062 31.90429688 C33.43457377 33.69140491 33.43655909 35.47851481 33.4375 37.265625 C33.44468552 38.10424576 33.45187103 38.94286652 33.45927429 39.80690002 C33.45619766 40.59128952 33.45312103 41.37567902 33.44995117 42.18383789 C33.45137619 42.87047012 33.45280121 43.55710236 33.45426941 44.26454163 C33.15585065 46.63743395 32.4897607 48.21629444 31.20703125 50.23046875 C28.64453125 51.04296875 28.64453125 51.04296875 26.20703125 51.23046875 C24.39587169 49.41930919 24.82503677 46.61768648 24.64453125 44.16796875 C24.56074219 43.06324219 24.47695312 41.95851562 24.390625 40.8203125 C24.29974609 39.53833984 24.29974609 39.53833984 24.20703125 38.23046875 C21.86923601 39.18683953 20.49073756 39.76256507 19.16015625 41.95703125 C18.81210938 42.89675781 18.81210938 42.89675781 18.45703125 43.85546875 C18.04453125 44.96921875 17.63203125 46.08296875 17.20703125 47.23046875 C15.26953125 46.60546875 15.26953125 46.60546875 13.20703125 45.23046875 C12.45703125 42.10546875 12.45703125 42.10546875 12.20703125 39.23046875 C13.52703125 38.24046875 14.84703125 37.25046875 16.20703125 36.23046875 C15.87703125 33.59046875 15.54703125 30.95046875 15.20703125 28.23046875 C13.22703125 27.57046875 11.24703125 26.91046875 9.20703125 26.23046875 C9.53703125 26.89046875 9.86703125 27.55046875 10.20703125 28.23046875 C10.34118597 30.90283085 10.25021666 33.55297363 10.20703125 36.23046875 C8.55703125 35.90046875 6.90703125 35.57046875 5.20703125 35.23046875 C4.87703125 32.59046875 4.54703125 29.95046875 4.20703125 27.23046875 C5.19703125 26.90046875 6.18703125 26.57046875 7.20703125 26.23046875 C7.20703125 23.26046875 7.20703125 20.29046875 7.20703125 17.23046875 C6.25828125 17.25109375 5.30953125 17.27171875 4.33203125 17.29296875 C1.20703125 17.23046875 1.20703125 17.23046875 -0.79296875 16.23046875 C-1.20026103 13.90890278 -1.53735552 11.57359005 -1.79296875 9.23046875 C-2.63859375 9.14796875 -3.48421875 9.06546875 -4.35546875 8.98046875 C-8.51410366 8.07313022 -11.18879574 6.46505602 -14.79296875 4.23046875 C-14.79296875 3.57046875 -14.79296875 2.91046875 -14.79296875 2.23046875 C-9.71222049 0.18693176 -5.37860681 -0.04887058 0 0 Z M-9.79296875 2.23046875 C-9.46296875 3.55046875 -9.13296875 4.87046875 -8.79296875 6.23046875 C-7.53484375 6.41609375 -6.27671875 6.60171875 -4.98046875 6.79296875 C-2.75 7.32421875 -2.75 7.32421875 -0.79296875 8.23046875 C0.26055968 10.54012723 1.26422221 12.87344615 2.20703125 15.23046875 C5.29073012 16.28796432 5.29073012 16.28796432 8.20703125 16.23046875 C8.53703125 18.54046875 8.86703125 20.85046875 9.20703125 23.23046875 C10.34140625 23.49859375 11.47578125 23.76671875 12.64453125 24.04296875 C13.82015625 24.43484375 14.99578125 24.82671875 16.20703125 25.23046875 C16.53703125 26.22046875 16.86703125 27.21046875 17.20703125 28.23046875 C17.86703125 28.23046875 18.52703125 28.23046875 19.20703125 28.23046875 C19.20703125 31.20046875 19.20703125 34.17046875 19.20703125 37.23046875 C21.18703125 37.23046875 23.16703125 37.23046875 25.20703125 37.23046875 C25.86703125 40.86046875 26.52703125 44.49046875 27.20703125 48.23046875 C28.19703125 48.23046875 29.18703125 48.23046875 30.20703125 48.23046875 C31.3571023 45.93032664 31.3337361 44.62931107 31.33642578 42.07202148 C31.34115402 40.78575111 31.34115402 40.78575111 31.34597778 39.47349548 C31.34395355 38.5463826 31.34192932 37.61926971 31.33984375 36.6640625 C31.34080048 35.71483414 31.3417572 34.76560577 31.34274292 33.78761292 C31.34342405 31.77938775 31.34157444 29.7711604 31.33740234 27.76293945 C31.33204726 24.6771962 31.33735265 21.59159812 31.34375 18.50585938 C31.34308932 16.55859343 31.34180838 14.61132757 31.33984375 12.6640625 C31.34186798 11.73492538 31.34389221 10.80578827 31.34597778 9.84849548 C31.34282562 8.99413406 31.33967346 8.13977264 31.33642578 7.25952148 C31.33563019 6.50388412 31.33483459 5.74824677 31.33401489 4.9697113 C31.39538539 3.20090949 31.39538539 3.20090949 30.20703125 2.23046875 C27.67394279 2.057914 25.16545208 1.94651317 22.62890625 1.87890625 C21.86531799 1.85575348 21.10172974 1.83260071 20.31500244 1.80874634 C18.69428341 1.76102464 17.07348924 1.71580079 15.45263672 1.67285156 C12.98114704 1.60611989 10.51018685 1.52821573 8.0390625 1.44921875 C6.46486304 1.40426739 4.89064457 1.35997556 3.31640625 1.31640625 C2.21144806 1.28055923 2.21144806 1.28055923 1.08416748 1.24398804 C-2.69205787 1.15261279 -6.12453294 1.30032885 -9.79296875 2.23046875 Z " fill="#88807D" transform="translate(85.79296875,10.76953125)"/>
	

	<path d="M0 0 C0.680625 0.45375 1.36125 0.9075 2.0625 1.375 C5.3057886 3.16915965 8.43920769 4.01089103 12 5 C12.99 5.66 13.98 6.32 15 7 C15 7.66 15 8.32 15 9 C17.64 9 20.28 9 23 9 C23.33 9.99 23.66 10.98 24 12 C25.65 12 27.3 12 29 12 C28.97679688 11.30132812 28.95359375 10.60265625 28.9296875 9.8828125 C28.90261719 8.51769531 28.90261719 8.51769531 28.875 7.125 C28.85179688 6.22007813 28.82859375 5.31515625 28.8046875 4.3828125 C29 2 29 2 31 0 C31.84324672 1.578076 32.67423918 3.1627042 33.5 4.75 C33.9640625 5.63171875 34.428125 6.5134375 34.90625 7.421875 C36 10 36 10 36 14 C36.99 14.33 37.98 14.66 39 15 C40.1875 18.0625 40.1875 18.0625 41 21 C36.25 22.125 36.25 22.125 34 21 C31.20358782 21.04813855 28.42106058 21.1955984 25.62890625 21.35546875 C23 21 23 21 21.40625 19.0625 C20.9421875 18.381875 20.478125 17.70125 20 17 C18.04665565 16.14056088 18.04665565 16.14056088 15.9375 15.8125 C13.71278691 15.36921452 12.03836893 15.01918447 10 14 C10 13.34 10 12.68 10 12 C9.443125 11.731875 8.88625 11.46375 8.3125 11.1875 C7.549375 10.795625 6.78625 10.40375 6 10 C5.113125 9.608125 4.22625 9.21625 3.3125 8.8125 C1 7 1 7 0.1875 3.3125 C0.125625 2.219375 0.06375 1.12625 0 0 Z " fill="#F6F5F3" transform="translate(47,68)"/>
	

	<path d="M0 0 C2.42431641 0.07617188 2.42431641 0.07617188 3.42431641 1.07617188 C3.51939462 3.66256225 3.54988016 6.22215748 3.5378418 8.80883789 C3.53798782 9.61853027 3.53813385 10.42822266 3.5382843 11.26245117 C3.53758494 13.95168696 3.5297915 16.64085437 3.52197266 19.33007812 C3.52010856 21.18952903 3.51868462 23.04898043 3.51768494 24.90843201 C3.51385911 29.81246283 3.50402829 34.71646423 3.49298096 39.6204834 C3.48276821 44.6206828 3.47818761 49.62088693 3.47314453 54.62109375 C3.46240607 64.43946608 3.44532889 74.25781654 3.42431641 84.07617188 C2.43431641 83.58117187 2.43431641 83.58117187 1.42431641 83.07617188 C-1.38773963 74.38095351 -0.83645534 64.93366982 -0.77099609 55.90820312 C-0.7672571 54.37692959 -0.76441433 52.84565363 -0.76242065 51.31437683 C-0.75485385 47.32120943 -0.7352668 43.32819195 -0.7130127 39.33508301 C-0.68876702 34.5241175 -0.67974011 29.71310134 -0.66810608 24.90209198 C-0.64883699 17.62668162 -0.61046651 10.35159897 -0.57568359 3.07617188 C-23.84068359 2.58117187 -23.84068359 2.58117187 -47.57568359 2.07617188 C-47.57568359 1.74617187 -47.57568359 1.41617187 -47.57568359 1.07617188 C-41.4192909 0.93287587 -35.26287816 0.79048618 -29.10644531 0.64892578 C-27.01334063 0.6006707 -24.92024159 0.55217065 -22.82714844 0.50341797 C-19.81365391 0.43327012 -16.80014004 0.36401153 -13.78662109 0.29492188 C-12.85514252 0.2730481 -11.92366394 0.25117432 -10.96395874 0.2286377 C-7.30944169 0.14553774 -3.65463243 0.0778537 0 0 Z " fill="#9E9996" transform="translate(124.57568359375,1.923828125)"/>
	

	<path d="M0 0 C4.39301931 1.09825483 4.79346969 1.3367909 7 5 C7.86934307 7.06026131 8.6775091 9.14694321 9.4375 11.25 C10.8796145 15.15992745 12.36273257 18.85145975 14.375 22.5 C16 26 16 26 15.8125 28.9375 C15 31 15 31 14 32 C10.46171457 31.81690632 6.94615877 31.47799168 3.41796875 31.15625 C0.51909908 31.02373024 -1.27745721 31.24695625 -4 32 C-6.02764743 30.51825765 -6.88268149 29.28429276 -7.83984375 26.96484375 C-8.81472101 24.87271783 -8.81472101 24.87271783 -10.77734375 24.234375 C-11.84662109 23.99460937 -11.84662109 23.99460937 -12.9375 23.75 C-19.38562209 21.85534075 -26.62738472 17.71827768 -30.30859375 11.94921875 C-31.26170772 9.26219123 -31.12837612 6.82427473 -31 4 C-29.35 3.67 -27.7 3.34 -26 3 C-24.14453125 5.24609375 -24.14453125 5.24609375 -22.2890625 7.4921875 C-21.24749008 8.71051161 -20.13339903 9.86660097 -19 11 C-21.96175123 10.38722388 -23.38058783 9.74627478 -26 8 C-26 9.98 -26 11.96 -26 14 C-25.2575 14.268125 -24.515 14.53625 -23.75 14.8125 C-21.10938051 15.95276751 -19.14447156 17.09380306 -17 19 C-17 19.66 -17 20.32 -17 21 C-15.96939453 21.14695312 -15.96939453 21.14695312 -14.91796875 21.296875 C-14.01691406 21.44640625 -13.11585937 21.5959375 -12.1875 21.75 C-11.29417969 21.88921875 -10.40085937 22.0284375 -9.48046875 22.171875 C-7 23 -7 23 -5.5078125 25.06640625 C-4.14694862 27.27256076 -4.14694862 27.27256076 -1.51171875 27.35546875 C-0.57972656 27.30003906 0.35226563 27.24460937 1.3125 27.1875 C5.37649416 27.03119253 8.99882643 27.13488139 13 28 C12.39816251 25.97954558 11.72693904 23.97888961 11 22 C10.34 21.67 9.68 21.34 9 21 C8.05431417 18.84211688 7.19047955 16.64787878 6.375 14.4375 C5.92898437 13.23996094 5.48296875 12.04242188 5.0234375 10.80859375 C4.68570313 9.88175781 4.34796875 8.95492187 4 8 C2.33657163 9.66342837 2.63951903 11.7825709 2.4375 14.0625 C2.35371094 14.98160156 2.26992187 15.90070313 2.18359375 16.84765625 C2.09271484 17.91306641 2.09271484 17.91306641 2 19 C0.35 19 -1.3 19 -3 19 C-3.33 18.34 -3.66 17.68 -4 17 C-5.89533342 16.53476937 -5.89533342 16.53476937 -8.0625 16.375 C-9.361875 16.25125 -10.66125 16.1275 -12 16 C-12 15.34 -12 14.68 -12 14 C-12.99 13.67 -13.98 13.34 -15 13 C-12.44385622 11.72192811 -11.38488377 12.14484276 -8.625 12.75 C-7.85414062 12.90984375 -7.08328125 13.0696875 -6.2890625 13.234375 C-4 14 -4 14 0 17 C0 11.39 0 5.78 0 0 Z " fill="#CF6960" transform="translate(74,61)"/>
	

	<path d="M0 0 C0.81264313 0.14357437 1.62528625 0.28714874 2.46255493 0.43507385 C16.74475612 2.71592592 30.97462414 3.31021984 45.4140625 3.37890625 C47.29024068 3.39513538 49.1664108 3.41232072 51.04257202 3.43040466 C55.91137992 3.47547091 60.78019934 3.51061986 65.64910889 3.54260254 C73.50265593 3.59511308 81.35608727 3.65950103 89.2094841 3.73081779 C91.9444645 3.75363842 94.67942957 3.76989614 97.41445923 3.78553772 C99.0713927 3.79892974 100.72832439 3.81254324 102.38525391 3.82641602 C103.52730537 3.83033607 103.52730537 3.83033607 104.69242859 3.83433533 C109.88632937 3.88632937 109.88632937 3.88632937 111 5 C111.08370999 7.08948465 111.096285 9.18183869 111.08178711 11.27294922 C111.07872055 11.92842239 111.07565399 12.58389557 111.07249451 13.25923157 C111.06532064 14.68884357 111.05592102 16.11844568 111.04459953 17.54803085 C111.0272307 19.81947228 111.0169142 22.09084341 111.00868225 24.36233521 C110.98422981 30.82333045 110.94904293 37.28423268 110.90405273 43.74511719 C110.87704722 47.69498181 110.86014544 51.64479026 110.84918404 55.59473038 C110.84302646 57.09284647 110.83308811 58.59095247 110.81910515 60.08901596 C110.7412758 68.51411912 110.76008368 76.80752043 113 85 C113.33 85.33 113.66 85.66 114 86 C114.07179964 87.51928038 114.08392007 89.04167482 114.0625 90.5625 C114.05347656 91.38878906 114.04445313 92.21507813 114.03515625 93.06640625 C114.02355469 93.70449219 114.01195312 94.34257813 114 95 C112.515 94.505 112.515 94.505 111 94 C106.74858653 85.37566887 107.71862357 75.98537183 107.92578125 66.62109375 C107.95385379 64.84035811 107.98053993 63.05960012 108.00590515 61.27882385 C108.07598524 56.61792008 108.16476041 51.95755732 108.25756836 47.29705811 C108.34912536 42.53090577 108.42281099 37.76447984 108.49804688 32.99804688 C108.64797584 23.66501305 108.81767675 14.33245331 109 5 C107.97952576 5.00222061 106.95905151 5.00444122 105.90765381 5.00672913 C96.20123066 5.0271682 86.49481198 5.0420708 76.78837204 5.05181217 C71.80047445 5.05698894 66.81259448 5.06398964 61.82470703 5.07543945 C56.99414145 5.08645633 52.16359263 5.09231581 47.33301544 5.09487724 C45.50742581 5.09669816 43.6818369 5.10025199 41.85625458 5.10573006 C32.21802637 5.13345134 22.59637135 5.02871831 12.96582031 4.61889648 C12.12463024 4.58842004 11.28344017 4.55794359 10.41675949 4.52654362 C9.63350925 4.48829188 8.85025902 4.45004015 8.04327393 4.41062927 C7.01402235 4.36443026 7.01402235 4.36443026 5.96397781 4.31729794 C3.68639455 3.94933427 2.00533596 3.11822556 0 2 C0 1.34 0 0.68 0 0 Z " fill="#CEBDB7" transform="translate(14,0)"/>
	

	<path d="M0 0 C0 0.66 0 1.32 0 2 C-1.98 2 -3.96 2 -6 2 C-5.484375 2.804375 -4.96875 3.60875 -4.4375 4.4375 C-2.56438002 9.07957994 -3.18869644 12.18236236 -4 17 C-4.103125 18.299375 -4.20625 19.59875 -4.3125 20.9375 C-4.539375 21.948125 -4.76625 22.95875 -5 24 C-7.04296875 25.19140625 -7.04296875 25.19140625 -9 26 C-13.34356666 20.2620042 -15.18030155 15.2506981 -15 8 C-14.67 7.01 -14.34 6.02 -14 5 C-14.99 5.33 -15.98 5.66 -17 6 C-19.33299825 6.03954234 -21.66708189 6.04401732 -24 6 C-23.67 5.34 -23.34 4.68 -23 4 C-22.01 4 -21.02 4 -20 4 C-19.75765625 3.36578125 -19.5153125 2.7315625 -19.265625 2.078125 C-18 0 -18 0 -16.046875 -0.828125 C-4.44 -2.96 -4.44 -2.96 0 0 Z " fill="#D35451" transform="translate(66,27)"/>
	

	

	<path d="M0 0 C0.66 0 1.32 0 2 0 C2.4846875 1.07378906 2.969375 2.14757812 3.46875 3.25390625 C8.73332589 14.56319176 13.98887734 22.28308138 26 27 C27.7015625 27.4640625 27.7015625 27.4640625 29.4375 27.9375 C34.03640286 29.30910261 37.89109566 31.55888223 42 34 C42 34.33 42 34.66 42 35 C37.89146629 35.18675153 35.61239087 34.80619543 32 33 C30.50760538 32.70800975 29.00600342 32.46084048 27.5 32.25 C18.41310769 30.50510192 10.15795953 26.51456795 4.40234375 19.140625 C0.55388999 13.26610505 -1.73716418 8.07677616 -1 1 C-0.67 0.67 -0.34 0.34 0 0 Z " fill="#946037" transform="translate(16,76)"/>
	

	<path d="M0 0 C0.78375 0.639375 1.5675 1.27875 2.375 1.9375 C4.79539281 3.98142313 4.79539281 3.98142313 7 5 C6.625 7.9375 6.625 7.9375 6 11 C5.34 11.33 4.68 11.66 4 12 C4 11.01 4 10.02 4 9 C-0.13907719 10.9956265 -4.13018735 13.0199415 -8 15.5 C-14.14232382 19.40656603 -19.959118 22.06720886 -27 24 C-27.99 24.66 -28.98 25.32 -30 26 C-32.72729492 26.22705078 -32.72729492 26.22705078 -35.98046875 26.1953125 C-37.72553711 26.18564453 -37.72553711 26.18564453 -39.50585938 26.17578125 C-40.72080078 26.15902344 -41.93574219 26.14226562 -43.1875 26.125 C-44.41404297 26.11597656 -45.64058594 26.10695313 -46.90429688 26.09765625 C-49.93639295 26.07406017 -52.96809938 26.04113841 -56 26 C-56 25.67 -56 25.34 -56 25 C-54.15148438 24.99613281 -54.15148438 24.99613281 -52.265625 24.9921875 C-41.63235354 24.80497823 -34.29142767 23.50817865 -25 18 C-23.59903373 17.41893139 -22.18295483 16.87197855 -20.75 16.375 C-13.16088626 13.59232496 -5.63954806 9.95285628 0 4 C0 2.68 0 1.36 0 0 Z " fill="#D29285" transform="translate(109,82)"/>
	

	<path d="M0 0 C0 3 0 3 -1 5 C-1.50880943 11.36603431 -0.79811295 16.90639499 1 23 C1.165 24.175625 1.33 25.35125 1.5 26.5625 C3.80275782 31.83965334 8.18968062 34.08008288 13 37 C12.34 37.66 11.68 38.32 11 39 C5.47672686 38.49894358 1.50085151 33.91805143 -2 30 C-8 20.32179226 -8 20.32179226 -8 15 C-8.99 15.495 -8.99 15.495 -10 16 C-10.72638721 22.68276231 -8.53192256 27.36801538 -5 33 C-3.42803844 34.82687424 -1.78278834 36.37002209 0 38 C0 38.66 0 39.32 0 40 C1.32 40.66 2.64 41.32 4 42 C2.35 41.67 0.7 41.34 -1 41 C-1 40.34 -1 39.68 -1 39 C-1.5775 38.773125 -2.155 38.54625 -2.75 38.3125 C-8.31957996 35.06357836 -10.30120943 29.64174254 -12.3046875 23.7890625 C-13.3292545 19.67928252 -13.0784064 17.09794433 -12 13 C-10.4375 10.5 -10.4375 10.5 -9 9 C-8.01 9.33 -7.02 9.66 -6 10 C-5.67 13.3 -5.34 16.6 -5 20 C-4.34 19.67 -3.68 19.34 -3 19 C-3.10699219 18.11957031 -3.21398438 17.23914063 -3.32421875 16.33203125 C-3.44410156 15.17058594 -3.56398438 14.00914063 -3.6875 12.8125 C-3.81511719 11.66394531 -3.94273438 10.51539062 -4.07421875 9.33203125 C-3.98469835 5.31303645 -2.84769909 2.84769909 0 0 Z " fill="#D79588" transform="translate(26,61)"/>
	

	<path d="M0 0 C2.29160319 -0.02692484 4.58329546 -0.04636124 6.875 -0.0625 C8.15117188 -0.07410156 9.42734375 -0.08570312 10.7421875 -0.09765625 C14 0 14 0 16 1 C16.44921875 3.65234375 16.44921875 3.65234375 16.6875 6.9375 C16.77386719 8.01902344 16.86023438 9.10054687 16.94921875 10.21484375 C17 13 17 13 16 15 C14.02 15 12.04 15 10 15 C9.67 17.31 9.34 19.62 9 22 C8.34 21.01 7.68 20.02 7 19 C6.01 18.34 5.02 17.68 4 17 C4.66 17 5.32 17 6 17 C6.42575 13.89810712 6.61361622 11.08355042 6 8 C3.95866823 5.75913956 1.69030764 4.36574291 -1 3 C-0.67 2.01 -0.34 1.02 0 0 Z " fill="#4B4B4A" transform="translate(95,17)"/>
	

	

	<path d="M0 0 C0.33 0 0.66 0 1 0 C1 22.11 1 44.22 1 67 C0.34 66.67 -0.32 66.34 -1 66 C-2.26833289 62.19500134 -2.14698426 58.65199531 -2.125 54.6875 C-2.12234131 53.809729 -2.11968262 52.93195801 -2.11694336 52.02758789 C-2.05700465 42.86151721 -1.84874487 33.69741768 -1.62567139 24.53408813 C-1.58360736 22.80509389 -1.54279217 21.0760688 -1.50323486 19.34701538 C-1.44582201 16.88614018 -1.38208551 14.42551064 -1.31640625 11.96484375 C-1.2913224 10.84882782 -1.2913224 10.84882782 -1.26573181 9.71026611 C-1.16915605 6.35121542 -1.02806189 3.21589468 0 0 Z " fill="#706865" transform="translate(127,9)"/>
	

	<path d="M0 0 C24.75 0 49.5 0 75 0 C70.57876973 2.21061514 67.19261908 2.34529329 62.38671875 2.4140625 C61.1168084 2.44311172 61.1168084 2.44311172 59.82124329 2.4727478 C57.11009799 2.53239427 54.39890249 2.57869659 51.6875 2.625 C49.90558083 2.66322679 48.12367922 2.70228119 46.34179688 2.7421875 C41.22812528 2.85209737 36.11440583 2.93339852 31 3 C30.26637238 3.01027222 29.53274475 3.02054443 28.77688599 3.03112793 C21.46004361 3.12338428 14.30619719 3.08399109 7.0625 2 C6.36705078 1.90460937 5.67160156 1.80921875 4.95507812 1.7109375 C3.30212119 1.48294344 1.6508236 1.24295958 0 1 C0 0.67 0 0.34 0 0 Z " fill="#454544" transform="translate(45,0)"/>
	

	<path d="M0 0 C1.65 0 3.3 0 5 0 C5.07612011 6.74431115 5.12862932 13.48851134 5.16479492 20.2331543 C5.17987308 22.52714172 5.2003387 24.82110037 5.22631836 27.11499023 C5.26274358 30.41397205 5.27973631 33.7125724 5.29296875 37.01171875 C5.30845261 38.03585373 5.32393646 39.05998871 5.33988953 40.11515808 C5.34201345 49.11931479 5.34201345 49.11931479 2 53 C1.01 53.66 0.02 54.32 -1 55 C-2.05104383 56.63495707 -3.05988318 58.29883624 -4 60 C-5.32 59.67 -6.64 59.34 -8 59 C-8.25 53.375 -8.25 53.375 -6 50 C-5.61500109 48.34450469 -5.27206865 46.6777567 -5 45 C-4.67 45 -4.34 45 -4 45 C-3.67 46.65 -3.34 48.3 -3 50 C-1.35 50 0.3 50 2 50 C2.84447523 47.06442707 3.12209423 44.46554711 3.11352539 41.41503906 C3.11344986 40.51440735 3.11337433 39.61377563 3.11329651 38.68585205 C3.10813522 37.72217712 3.10297394 36.7585022 3.09765625 35.765625 C3.0962413 34.77246277 3.09482635 33.77930054 3.09336853 32.75604248 C3.08777588 29.58733088 3.0752247 26.41869021 3.0625 23.25 C3.05748405 21.10026144 3.05292131 18.95052177 3.04882812 16.80078125 C3.03780886 11.53383001 3.021078 6.26692007 3 1 C2.01 0.67 1.02 0.34 0 0 Z " fill="#DAD1CC" transform="translate(115,11)"/>
	

	<path d="M0 0 C0.33 0 0.66 0 1 0 C1.00808685 0.82748245 1.01617371 1.6549649 1.02450562 2.50752258 C1.10280382 10.34792807 1.19019741 18.18817001 1.28752708 26.02836323 C1.33723873 30.05801844 1.38356851 34.08765059 1.421875 38.11743164 C1.45904841 42.01440714 1.50548989 45.91117679 1.55806351 49.80797386 C1.57643881 51.2864943 1.59160727 52.76505858 1.60334396 54.24364662 C0.76809624 67.96605061 0.76809624 67.96605061 5 80 C5.07179964 81.51928038 5.08392007 83.04167482 5.0625 84.5625 C5.04896484 85.80193359 5.04896484 85.80193359 5.03515625 87.06640625 C5.01775391 88.02353516 5.01775391 88.02353516 5 89 C4.01 88.67 3.02 88.34 2 88 C-2.21248185 79.42042177 -1.28284033 70.14913492 -1.07421875 60.83984375 C-1.04614543 59.08152863 -1.01945938 57.32319087 -0.99409485 55.56483459 C-0.92402223 50.96311029 -0.83524605 46.36193441 -0.74243164 41.76062012 C-0.65086671 37.05479336 -0.57718621 32.34868929 -0.50195312 27.64257812 C-0.35203424 18.42802912 -0.18233387 9.21396064 0 0 Z " fill="#E0DAD6" transform="translate(123,6)"/>
	

	<path d="M0 0 C2.475 0.495 2.475 0.495 5 1 C5 1.66 5 2.32 5 3 C5.721875 3.103125 6.44375 3.20625 7.1875 3.3125 C10 4 10 4 12.3125 5.625 C16.2132373 7.62072606 18.74358032 6.79356977 23 6 C26.07692308 10.30769231 26.07692308 10.30769231 25.6875 13.8125 C25.460625 14.534375 25.23375 15.25625 25 16 C24.525625 15.54625 24.05125 15.0925 23.5625 14.625 C20.51833273 12.69455246 17.881269 12.22588044 14.3828125 11.52734375 C9.34920148 10.41334787 4.41008183 9.06781274 1 5 C0.3125 2.3125 0.3125 2.3125 0 0 Z " fill="#D41314" transform="translate(49,63)"/>
	

	<path d="M0 0 C-0.28288477 3.39461728 -0.74132059 4.74132059 -3.1875 7.1875 C-6.08181804 9.05272718 -8.74380483 9.93819723 -12 11 C-13.62514468 12.45833358 -13.62514468 12.45833358 -15 14 C-18.30762116 16.08035901 -20.88469243 16.21703113 -24.75 16.125 C-25.73484375 16.10695313 -26.7196875 16.08890625 -27.734375 16.0703125 C-28.48203125 16.04710938 -29.2296875 16.02390625 -30 16 C-29.34 15.34 -28.68 14.68 -28 14 C-26.68 14 -25.36 14 -24 14 C-24 13.34 -24 12.68 -24 12 C-22.98679687 11.46890625 -21.97359375 10.9378125 -20.9296875 10.390625 C-19.57803541 9.67725306 -18.22647793 8.96370183 -16.875 8.25 C-16.20984375 7.90195313 -15.5446875 7.55390625 -14.859375 7.1953125 C-11.68258366 5.51348179 -8.6401059 3.79955478 -5.6953125 1.734375 C-3 0 -3 0 0 0 Z " fill="#8F633E" transform="translate(113,91)"/>
	

	<path d="M0 0 C1.9375 0.75 1.9375 0.75 4 2 C4.36162029 3.32594105 4.69728039 4.65938457 5 6 C5.99 6.33 6.98 6.66 8 7 C7.67 7.515625 7.34 8.03125 7 8.5625 C4.95068313 13.55770986 5.99174122 18.83267373 7 24 C6.01 24.33 5.02 24.66 4 25 C3.01 20.05 3.01 20.05 2 15 C1.34 15 0.68 15 0 15 C-3.62926746 20.51648654 -3.01924246 24.78630501 -2 31 C-2.66 30.67 -3.32 30.34 -4 30 C-5.83666435 24.49000695 -5.30121931 20.35356542 -3 15.125 C-0.82463207 10.14073593 -0.74319585 6.39288707 -1 1 C-0.67 0.67 -0.34 0.34 0 0 Z " fill="#CEBEB8" transform="translate(17,56)"/>
	

	

	<path d="M0 0 C0.67958771 0.0028299 1.35917542 0.00565979 2.05935669 0.00857544 C4.20902858 0.01968286 6.35826864 0.04476859 8.5078125 0.0703125 C9.97395227 0.08035455 11.44009864 0.08947825 12.90625 0.09765625 C16.48190881 0.11959091 20.05731844 0.15405436 23.6328125 0.1953125 C23.6328125 0.5253125 23.6328125 0.8553125 23.6328125 1.1953125 C7.7928125 1.6903125 7.7928125 1.6903125 -8.3671875 2.1953125 C-8.0371875 3.1853125 -7.7071875 4.1753125 -7.3671875 5.1953125 C-5.32433253 5.99738632 -5.32433253 5.99738632 -2.9296875 6.5078125 C-0.44140625 7.2421875 -0.44140625 7.2421875 1.6328125 8.1953125 C2.35975154 10.17420211 3.03097501 12.17485808 3.6328125 14.1953125 C7.15732409 15.65553685 7.15732409 15.65553685 10.6328125 16.1953125 C10.6328125 18.5053125 10.6328125 20.8153125 10.6328125 23.1953125 C8.6328125 19.4453125 8.6328125 19.4453125 8.6328125 17.1953125 C7.6840625 17.2159375 6.7353125 17.2365625 5.7578125 17.2578125 C2.6328125 17.1953125 2.6328125 17.1953125 0.6328125 16.1953125 C0.22552022 13.87374653 -0.11157427 11.5384338 -0.3671875 9.1953125 C-1.2128125 9.1128125 -2.0584375 9.0303125 -2.9296875 8.9453125 C-7.08832241 8.03797397 -9.76301449 6.42989977 -13.3671875 4.1953125 C-13.3671875 3.5353125 -13.3671875 2.8753125 -13.3671875 2.1953125 C-8.75136007 0.39992337 -4.93964942 -0.04082355 0 0 Z " fill="#918A87" transform="translate(84.3671875,10.8046875)"/>
	

	<path d="M0 0 C0.66 0.33 1.32 0.66 2 1 C2.625 3.0625 2.625 3.0625 3 5 C-3.99273298 10.66335716 -10.46569144 15.87241714 -19 19 C-20.31548507 19.55548314 -21.62821956 20.1175463 -22.9375 20.6875 C-23.948125 21.120625 -24.95875 21.55375 -26 22 C-26.99 22.495 -26.99 22.495 -28 23 C-50.85514662 25.63038772 -50.85514662 25.63038772 -58.25 20.9375 C-58.8275 20.298125 -59.405 19.65875 -60 19 C-55.25 19.875 -55.25 19.875 -53 21 C-49.23499463 21.26855112 -45.46100555 21.23160387 -41.6875 21.25 C-40.11838867 21.2809375 -40.11838867 21.2809375 -38.51757812 21.3125 C-37.50501953 21.31765625 -36.49246094 21.3228125 -35.44921875 21.328125 C-34.52455811 21.3374707 -33.59989746 21.34681641 -32.6472168 21.35644531 C-29.48387956 20.93050486 -27.65526202 19.72579704 -25 18 C-23.3603125 17.5359375 -23.3603125 17.5359375 -21.6875 17.0625 C-13.97827183 14.84119697 -5.73597523 10.6536969 0 5 C0.37646135 2.34967829 0.37646135 2.34967829 0 0 Z " fill="#D35451" transform="translate(107,81)"/>
	

	

	<path d="M0 0 C1.50433594 0.01353516 1.50433594 0.01353516 3.0390625 0.02734375 C3.80992188 0.03894531 4.58078125 0.05054688 5.375 0.0625 C5.705 1.0525 6.035 2.0425 6.375 3.0625 C3.10985494 4.69507253 -0.48658612 4.46051914 -4.09375 4.68359375 C-6.7895758 4.83065328 -6.7895758 4.83065328 -8.625 7.0625 C-11.25 7.1875 -11.25 7.1875 -13.625 7.0625 C-14.285 5.4125 -14.945 3.7625 -15.625 2.0625 C-15.295 1.7325 -14.965 1.4025 -14.625 1.0625 C-12.29166667 1.0625 -9.95833333 1.0625 -7.625 1.0625 C-4.98041621 -0.25979189 -2.94738699 -0.03427194 0 0 Z " fill="#E4E0DD" transform="translate(32.625,11.9375)"/>
	

	<path d="M0 0 C0.66 0 1.32 0 2 0 C1.69876115 4.58090801 1.27184016 8.36933083 -0.5625 12.625 C-2.57713812 17.35501993 -2.61848633 21.144541 -1 26 C-0.34 26.33 0.32 26.66 1 27 C1.72436978 28.71214676 2.44614974 30.42552677 3.14453125 32.1484375 C4.68928213 35.49187091 6.68131795 38.34065898 10 40 C10.33 40.99 10.66 41.98 11 43 C13.00016466 44.20882096 13.00016466 44.20882096 15 45 C13.35 45 11.7 45 10 45 C9.67 43.68 9.34 42.36 9 41 C8.0409375 40.8453125 8.0409375 40.8453125 7.0625 40.6875 C6.0415625 40.3471875 6.0415625 40.3471875 5 40 C4.505 38.515 4.505 38.515 4 37 C3.01 36.67 2.02 36.34 1 36 C-3.00794896 29.14697179 -5.31056416 21.91856659 -4 14 C-3.07796291 11.63477442 -2.08301035 9.29598193 -1 7 C-0.5945897 4.67810464 -0.23927006 2.34484656 0 0 Z " fill="#DFD8D5" transform="translate(15,60)"/>
	

	<path d="M0 0 C0.84949219 0.28746094 1.69898438 0.57492188 2.57421875 0.87109375 C7.11364267 2.36698145 11.69108211 3.7267082 16.26953125 5.09765625 C19 6 19 6 20 7 C20.07179964 8.51928038 20.08392007 10.04167482 20.0625 11.5625 C20.05347656 12.38878906 20.04445313 13.21507813 20.03515625 14.06640625 C20.02355469 14.70449219 20.01195313 15.34257813 20 16 C19.01 15.67 18.02 15.34 17 15 C16.896875 14.360625 16.79375 13.72125 16.6875 13.0625 C16.460625 12.381875 16.23375 11.70125 16 11 C13.02496878 9.84164327 13.02496878 9.84164327 10 9 C9.67 8.34 9.34 7.68 9 7 C7.8553125 6.5978125 7.8553125 6.5978125 6.6875 6.1875 C3.40511693 4.73714469 2.05323424 2.88973708 0 0 Z " fill="#D50D0E" transform="translate(46,79)"/>
	

	<path d="M0 0 C4.79677333 2.94347454 8.95177727 5.76797992 10.75 11.3125 C10.87375 12.1478125 10.87375 12.1478125 11 13 C11.66 13 12.32 13 13 13 C14.69140625 15.44921875 14.69140625 15.44921875 16.5625 18.6875 C17.18253906 19.74324219 17.80257812 20.79898438 18.44140625 21.88671875 C19.84706847 24.69452023 20.58183023 26.91241774 21 30 C17.3436743 26.66307747 14.84248498 22.94013175 12.1875 18.8125 C8.74931166 13.54150557 5.19456705 8.49342788 1.1796875 3.63671875 C0 2 0 2 0 0 Z " fill="#D47C74" transform="translate(86,51)"/>
	

	<path d="M0 0 C1.32 0 2.64 0 4 0 C6.49258126 4.98516251 6.73784019 12.24567611 5.3125 17.56640625 C3.4686791 21.47732323 2.04147288 23.27280212 -2 25 C-1.6390625 24.41734375 -1.278125 23.8346875 -0.90625 23.234375 C3.00378455 16.3266473 3.60742973 10.85609113 3 3 C2.01 3.495 2.01 3.495 1 4 C0.26924352 6.3140622 -0.40138258 8.64828869 -1 11 C-3.88437779 9.70700306 -5.87219421 8.34058637 -8 6 C-7.67 5.34 -7.34 4.68 -7 4 C-5.68 4.66 -4.36 5.32 -3 6 C-2.01 4.02 -1.02 2.04 0 0 Z " fill="#E3DFDC" transform="translate(115,72)"/>
	

	<path d="M0 0 C1.74609375 1.30078125 1.74609375 1.30078125 2.74609375 3.30078125 C1.65296875 3.58953125 0.55984375 3.87828125 -0.56640625 4.17578125 C-4.2940447 5.11971329 -4.2940447 5.11971329 -7.25390625 7.30078125 C-9.98120117 7.52783203 -9.98120117 7.52783203 -13.234375 7.49609375 C-14.97944336 7.48642578 -14.97944336 7.48642578 -16.75976562 7.4765625 C-17.97470703 7.45980469 -19.18964844 7.44304687 -20.44140625 7.42578125 C-21.66794922 7.41675781 -22.89449219 7.40773438 -24.15820312 7.3984375 C-27.1902992 7.37484142 -30.22200563 7.34191966 -33.25390625 7.30078125 C-33.25390625 6.97078125 -33.25390625 6.64078125 -33.25390625 6.30078125 C-31.40539063 6.29691406 -31.40539063 6.29691406 -29.51953125 6.29296875 C-19.92166734 6.11920344 -12.85136653 5.64132068 -4.6015625 0.3828125 C-2.25390625 -0.69921875 -2.25390625 -0.69921875 0 0 Z " fill="#BC9B93" transform="translate(86.25390625,100.69921875)"/>
	

	<path d="M0 0 C0.66 0 1.32 0 2 0 C2.28875 0.763125 2.5775 1.52625 2.875 2.3125 C3.96269013 5.15029308 3.96269013 5.15029308 6 8 C6.484482 13.9106804 5.70657191 16.69963002 3 22 C2.38541598 27.3263948 3.61290361 31.65794103 5.24609375 36.66796875 C5.92431378 38.76588252 6.49220881 40.85544497 7 43 C2.15013008 38.59102734 1.20192129 33.92216804 0.87109375 27.49609375 C0.7167019 20.42494715 0.7167019 20.42494715 3 17 C3.35373621 14.5559896 3.35373621 14.5559896 3.3125 11.9375 C3.32925781 11.05964844 3.34601562 10.18179688 3.36328125 9.27734375 C3.24339844 8.52582031 3.12351562 7.77429687 3 7 C2.01 6.34 1.02 5.68 0 5 C-0.1875 2.375 -0.1875 2.375 0 0 Z " fill="#D35451" transform="translate(23,46)"/>
	

	

	

	<path d="M0 0 C7.94949 -0.19310502 15.28525027 -0.17487475 23.08203125 1.48828125 C28.99235813 2.52476428 35.01484275 2.69306886 41 3 C41 3.33 41 3.66 41 4 C30.74243885 4.19455859 20.59091084 4.16786393 10.375 3.125 C9.56442139 3.04652832 8.75384277 2.96805664 7.91870117 2.88720703 C2.25225282 2.25225282 2.25225282 2.25225282 0 0 Z " fill="#9E9996" transform="translate(18,0)"/>
	

	<path d="M0 0 C1.32 0.66 2.64 1.32 4 2 C4.05447047 3.41623216 4.09300508 4.83308191 4.125 6.25 C4.14820313 7.03890625 4.17140625 7.8278125 4.1953125 8.640625 C3.9828378 11.20731941 3.28654105 12.7916067 2 15 C-0.76818166 12.6720413 -1.46055679 11.07908346 -1.8125 7.5 C-1.90144531 6.7265625 -1.99039063 5.953125 -2.08203125 5.15625 C-2 3 -2 3 0 0 Z " fill="#DED6D2" transform="translate(56,32)"/>
	

	<path d="M0 0 C0 0.66 0 1.32 0 2 C-0.763125 1.814375 -1.52625 1.62875 -2.3125 1.4375 C-5.08967375 0.77180827 -5.08967375 0.77180827 -8 2 C-9.56118428 2.06740865 -11.1250252 2.08514456 -12.6875 2.0625 C-13.89986328 2.04896484 -13.89986328 2.04896484 -15.13671875 2.03515625 C-16.05904297 2.01775391 -16.05904297 2.01775391 -17 2 C-17.33 2.99 -17.66 3.98 -18 5 C-19.98 5.33 -21.96 5.66 -24 6 C-23.67 5.34 -23.34 4.68 -23 4 C-22.01 4 -21.02 4 -20 4 C-19.75765625 3.36578125 -19.5153125 2.7315625 -19.265625 2.078125 C-18 0 -18 0 -16.046875 -0.828125 C-4.44 -2.96 -4.44 -2.96 0 0 Z " fill="#BBA49E" transform="translate(66,27)"/>
	

	<path d="M0 0 C0.66 0.33 1.32 0.66 2 1 C1.01 2.485 1.01 2.485 0 4 C-1.32 4 -2.64 4 -4 4 C-4.185625 4.598125 -4.37125 5.19625 -4.5625 5.8125 C-6.65175629 8.99180305 -9.56136013 9.7575227 -13 11 C-13.680625 11.26941406 -14.36125 11.53882812 -15.0625 11.81640625 C-18.6812306 13.23511313 -22.1406076 14.39696994 -26 15 C-23.43582853 11.95337118 -20.59030769 10.79048902 -16.9375 9.3125 C-15.87402344 8.87550781 -14.81054688 8.43851563 -13.71484375 7.98828125 C-11 7 -11 7 -9 7 C-8.67 6.01 -8.34 5.02 -8 4 C-5.69747517 2.93097061 -3.3627974 1.92824183 -1 1 C-0.67 0.67 -0.34 0.34 0 0 Z " fill="#D9CECA" transform="translate(109,97)"/>
	

	<path d="M0 0 C2.475 0.99 2.475 0.99 5 2 C6.60671734 8.57293456 5.03358813 13.64647324 3 20 C-0.84375 18.328125 -0.84375 18.328125 -2.25 15.375 C-3.33065385 10.51205765 -4.1802866 5.96714433 -1.5 1.5 C-1.005 1.005 -0.51 0.51 0 0 Z M0 2 C-2.17240606 5.25860909 -2.23564158 5.82050803 -1.8125 9.5 C-1.73644531 10.2734375 -1.66039062 11.046875 -1.58203125 11.84375 C-0.9062105 14.34746175 0.03996044 15.35166485 2 17 C3.78409802 13.93753253 4.22880021 11.77920727 4.125 8.25 C4.10695313 7.45078125 4.08890625 6.6515625 4.0703125 5.828125 C4.04710937 5.22484375 4.02390625 4.6215625 4 4 C2.68 3.34 1.36 2.68 0 2 Z " fill="#D78F82" transform="translate(56,30)"/>
	

	<path d="M0 0 C5.75 1.875 5.75 1.875 8 3 C8 3.66 8 4.32 8 5 C9.11375 5.103125 10.2275 5.20625 11.375 5.3125 C13.169375 5.6528125 13.169375 5.6528125 15 6 C15.99 7.485 15.99 7.485 17 9 C19.33290199 9.0448635 21.66699067 9.03888349 24 9 C27.4375 10 27.4375 10 30 11 C27.42715862 12.28642069 25.43471047 12.24002723 22.5625 12.3125 C21.59441406 12.34988281 20.62632813 12.38726562 19.62890625 12.42578125 C17 12 17 12 15.40625 10.0546875 C14.9421875 9.37664062 14.478125 8.69859375 14 8 C12.04665565 7.14056088 12.04665565 7.14056088 9.9375 6.8125 C7.71278691 6.36921452 6.03836893 6.01918447 4 5 C4 4.34 4 3.68 4 3 C2.68 2.34 1.36 1.68 0 1 C0 0.67 0 0.34 0 0 Z " fill="#DDD5D1" transform="translate(53,77)"/>
	

	<path d="M0 0 C3.33193619 2.69728168 4.60371996 6.02060187 6 10 C5.6875 12.4375 5.6875 12.4375 5 14 C4.01 12.35 3.02 10.7 2 9 C1.34 10.65 0.68 12.3 0 14 C-1.65 13.67 -3.3 13.34 -5 13 C-3.68 12.67 -2.36 12.34 -1 12 C-1.01160156 11.30132812 -1.02320312 10.60265625 -1.03515625 9.8828125 C-1.04417969 8.97273438 -1.05320312 8.06265625 -1.0625 7.125 C-1.07410156 6.22007813 -1.08570312 5.31515625 -1.09765625 4.3828125 C-1 2 -1 2 0 0 Z " fill="#D4C4BE" transform="translate(77,68)"/>
	

	

	

	<path d="M0 0 C-1.98 0.99 -1.98 0.99 -4 2 C-1.69 2.33 0.62 2.66 3 3 C2.443125 3.268125 1.88625 3.53625 1.3125 3.8125 C-1.07880579 4.99088683 -1.07880579 4.99088683 -3.5 6.625 C-6 8 -6 8 -10 8 C-9.67372714 4.98197607 -9.38918764 3.40308719 -7.25 1.1875 C-4.62847443 -0.19608294 -2.92325122 -0.24360427 0 0 Z " fill="#857D79" transform="translate(89,104)"/>
	

	<path d="M0 0 C1.99620166 0.67795528 3.99538701 1.34733531 6 2 C5.67 2.99 5.34 3.98 5 5 C0.36233145 5.42160623 -2.9033589 4.12710211 -7 2 C-7.33 1.01 -7.66 0.02 -8 -1 C-4.27459191 -2.2418027 -3.50405535 -1.54830353 0 0 Z " fill="#D5988C" transform="translate(50,102)"/>
	

	<path d="M0 0 C3.82227071 1.60085691 6.42864315 4.06228222 9.4375 6.875 C12.16512565 9.41673739 14.83937556 11.87661531 17.796875 14.1484375 C20 16 20 16 20.8125 18.75 C20.874375 19.4925 20.93625 20.235 21 21 C20.319375 20.319375 19.63875 19.63875 18.9375 18.9375 C18.47859375 18.47988281 18.0196875 18.02226563 17.546875 17.55078125 C16.48959702 16.49083338 15.43774005 15.42545767 14.390625 14.35546875 C10.61933083 10.52362628 6.71143002 6.94767359 2.6015625 3.48046875 C1 2 1 2 0 0 Z " fill="#D35E59" transform="translate(64,29)"/>
	

	<path d="M0 0 C0.82177734 0.34417969 0.82177734 0.34417969 1.66015625 0.6953125 C0.57734375 1.32566406 0.57734375 1.32566406 -0.52734375 1.96875 C-4.11712536 4.17247704 -7.45660746 6.66616562 -10.83984375 9.171875 C-13.40920405 10.73757893 -15.37876961 11.3040277 -18.33984375 11.6953125 C-14.23061161 7.01928972 -6.51903467 -0.84888932 0 0 Z " fill="#D83C39" transform="translate(44.33984375,33.3046875)"/>
	

	<path d="M0 0 C0.99 0.66 1.98 1.32 3 2 C5.62531524 2.16713569 5.62531524 2.16713569 8 2 C5.19942241 4.80057759 3.19310768 5.91668242 -0.796875 6.1953125 C-1.77140625 6.17210938 -2.7459375 6.14890625 -3.75 6.125 C-4.73484375 6.10695313 -5.7196875 6.08890625 -6.734375 6.0703125 C-7.85585937 6.03550781 -7.85585937 6.03550781 -9 6 C-8.34 5.34 -7.68 4.68 -7 4 C-5.68 4 -4.36 4 -3 4 C-3 3.34 -3 2.68 -3 2 C-2.01 1.34 -1.02 0.68 0 0 Z " fill="#8A7463" transform="translate(92,101)"/>
	

	

	<path d="M0 0 C2.0625 0.4375 2.0625 0.4375 4 1 C3.24074219 1.47050781 2.48148438 1.94101562 1.69921875 2.42578125 C0.70535156 3.04839844 -0.28851563 3.67101563 -1.3125 4.3125 C-2.29863281 4.92738281 -3.28476562 5.54226562 -4.30078125 6.17578125 C-6.95399578 7.84444761 -6.95399578 7.84444761 -8.73046875 9.73046875 C-9.14941406 10.14941406 -9.56835938 10.56835938 -10 11 C-10.66 11 -11.32 11 -12 11 C-12 11.66 -12 12.32 -12 13 C-12.66 13 -13.32 13 -14 13 C-11.78686481 8.41564854 -9.99997602 5.76242726 -5.4375 3.375 C-2.52697344 1.95320996 -2.52697344 1.95320996 0 0 Z " fill="#D4A399" transform="translate(38,33)"/>
	

	<path d="M0 0 C2.31 0 4.62 0 7 0 C7.66 2.31 8.32 4.62 9 7 C11.31 7 13.62 7 16 7 C16 10.3 16 13.6 16 17 C15.67 17 15.34 17 15 17 C14.67 14.69 14.34 12.38 14 10 C12.88625 9.79375 11.7725 9.5875 10.625 9.375 C7 8 7 8 5.5625 4.875 C5.376875 3.92625 5.19125 2.9775 5 2 C3.35 1.67 1.7 1.34 0 1 C0 0.67 0 0.34 0 0 Z " fill="#4B4B4A" transform="translate(80,17)"/>
	

	

	

	<path d="M0 0 C1.32 0 2.64 0 4 0 C4 2.31 4 4.62 4 7 C2.0625 7.5625 2.0625 7.5625 0 8 C-1 7 -1 7 -1.125 4 C-1 1 -1 1 0 0 Z " fill="#928C89" transform="translate(108,63)"/>
	

	<path d="M0 0 C1.32 0 2.64 0 4 0 C3.67 2.64 3.34 5.28 3 8 C1.68 8 0.36 8 -1 8 C-1.125 2.25 -1.125 2.25 0 0 Z " fill="#FCFCFB" transform="translate(106,52)"/>
	

	<path d="M0 0 C7.1598971 1.29112898 13.61765339 3.44412118 20 7 C20.33 7.66 20.66 8.32 21 9 C9.77035616 6.22700564 9.77035616 6.22700564 5 3 C3.34630643 2.30177383 1.68272986 1.62501395 0 1 C0 0.67 0 0.34 0 0 Z " fill="#BEAFAA" transform="translate(25,102)"/>
	

	<path d="M0 0 C1.2684375 0.2475 1.2684375 0.2475 2.5625 0.5 C5.99849752 1.09431496 5.99849752 1.09431496 9.5 0.9375 C13.08509292 1.00151952 15.67950192 1.70419587 19 3 C19 3.66 19 4.32 19 5 C18.071875 4.855625 17.14375 4.71125 16.1875 4.5625 C11.14594684 3.83635037 6.07370796 3.4312193 1 3 C0.67 2.01 0.34 1.02 0 0 Z " fill="#D49F94" transform="translate(68,87)"/>
	

	<path d="M0 0 C4.43458973 1.3937282 6.87378374 3.60582235 10 7 C7.03824877 6.38722388 5.61941217 5.74627478 3 4 C3 5.98 3 7.96 3 10 C0.11192273 7.61419704 -0.61954948 5.70939253 -1 2 C-0.67 1.34 -0.34 0.68 0 0 Z " fill="#D4A196" transform="translate(45,65)"/>
	

	<path d="M0 0 C4.75 1.875 4.75 1.875 7 3 C7 3.66 7 4.32 7 5 C9.64 5 12.28 5 15 5 C15.33 5.99 15.66 6.98 16 8 C14.3743193 7.69106068 12.74947252 7.3777305 11.125 7.0625 C10.22007813 6.88847656 9.31515625 6.71445313 8.3828125 6.53515625 C6 6 6 6 4 5 C4 4.34 4 3.68 4 3 C2.68 2.67 1.36 2.34 0 2 C0 1.34 0 0.68 0 0 Z " fill="#D7C0B9" transform="translate(55,72)"/>
	

	<path d="M0 0 C-1.32 0 -2.64 0 -4 0 C-4.33 0.99 -4.66 1.98 -5 3 C-5.721875 2.79375 -6.44375 2.5875 -7.1875 2.375 C-10.47432151 1.93675713 -11.99826957 2.7361135 -15 4 C-15.99 3.67 -16.98 3.34 -18 3 C-15.4293566 -0.24008179 -12.99975358 -0.6703827 -9 -1.3125 C-7.948125 -1.49425781 -6.89625 -1.67601563 -5.8125 -1.86328125 C-3 -2 -3 -2 0 0 Z " fill="#C45B52" transform="translate(64,29)"/>
	

	

	<path d="M0 0 C0.66 0 1.32 0 2 0 C3.76462683 3.08809695 4 4.23312136 4 8 C2.35 7.67 0.7 7.34 -1 7 C-1.04254356 5.00045254 -1.04080783 2.99958364 -1 1 C-0.67 0.67 -0.34 0.34 0 0 Z " fill="#F9F9F8" transform="translate(98,39)"/>
	

	<path d="M0 0 C1.65 0 3.3 0 5 0 C7.72508509 3.28889579 8.36146791 5.78287443 8 10 C6.58622659 7.36095629 5.62759865 4.92879371 5 2 C4.01 2.495 4.01 2.495 3 3 C2.59270772 5.32156597 2.25561323 7.6568787 2 10 C1.67 10 1.34 10 1 10 C0.67 6.7 0.34 3.4 0 0 Z " fill="#D6CAC5" transform="translate(95,37)"/>
	

	

	<path d="M0 0 C-0.29899215 3.58790575 -0.76986601 4.78166776 -3.4375 7.3125 C-6 9 -6 9 -8 9 C-6.63016497 5.83884224 -6.0109362 5.0072908 -3 3 C-3.66 2.34 -4.32 1.68 -5 1 C-3 0 -3 0 0 0 Z " fill="#857D79" transform="translate(113,91)"/>
	

	

	

	<path d="M0 0 C0.66 0.66 1.32 1.32 2 2 C4.59706093 2.38804813 4.59706093 2.38804813 7.5 2.5 C12.77777778 2.77777778 12.77777778 2.77777778 15 5 C13.14375 4.9690625 13.14375 4.9690625 11.25 4.9375 C8.81051553 4.92029023 7.03926876 4.9883255 4.6875 5.6875 C4.130625 5.790625 3.57375 5.89375 3 6 C1.25 4.75 1.25 4.75 0 3 C0 2.01 0 1.02 0 0 Z " fill="#D35451" transform="translate(67,87)"/>
	

	

	<path d="M0 0 C1.32 0.33 2.64 0.66 4 1 C4.04898438 1.84304687 4.09796875 2.68609375 4.1484375 3.5546875 C4.22320312 4.65039062 4.29796875 5.74609375 4.375 6.875 C4.47941406 8.51082031 4.47941406 8.51082031 4.5859375 10.1796875 C4.73253491 13.13046474 4.73253491 13.13046474 7 15 C5.68 14.67 4.36 14.34 3 14 C2.67 10.04 2.34 6.08 2 2 C1.34 2 0.68 2 0 2 C0 1.34 0 0.68 0 0 Z " fill="#948E8A" transform="translate(108,47)"/>
	

	

	

	

	<path d="M0 0 C0.33 0 0.66 0 1 0 C1 2.97 1 5.94 1 9 C1.99 9.33 2.98 9.66 4 10 C-0.75 12.875 -0.75 12.875 -3 14 C-3 12.68 -3 11.36 -3 10 C-2.34 9.67 -1.68 9.34 -1 9 C-0.53348793 6.87423218 -0.53348793 6.87423218 -0.375 4.4375 C-0.30023438 3.61121094 -0.22546875 2.78492188 -0.1484375 1.93359375 C-0.09945312 1.29550781 -0.05046875 0.65742187 0 0 Z " fill="#635E5C" transform="translate(104,39)"/>
	

	<path d="M0 0 C0.66 0 1.32 0 2 0 C2.309375 0.804375 2.61875 1.60875 2.9375 2.4375 C3.76335345 4.89080405 3.76335345 4.89080405 5 6 C5.07179964 7.51928038 5.08392007 9.04167482 5.0625 10.5625 C5.05347656 11.38878906 5.04445313 12.21507812 5.03515625 13.06640625 C5.02355469 13.70449219 5.01195312 14.34257813 5 15 C4.67 15 4.34 15 4 15 C3.83723958 12.98177083 3.67447917 10.96354167 3.51171875 8.9453125 C3.12606964 6.60480784 3.12606964 6.60480784 0 5 C-0.1875 2.375 -0.1875 2.375 0 0 Z " fill="#D5776E" transform="translate(23,46)"/>
	

	<path d="M0 0 C3 2 3 2 3.6875 5.125 C3.790625 6.07375 3.89375 7.0225 4 8 C3.01 6.68 2.02 5.36 1 4 C0.34 5.65 -0.32 7.3 -1 9 C-1.33 9 -1.66 9 -2 9 C-2.25 3.375 -2.25 3.375 0 0 Z " fill="#D89183" transform="translate(77,65)"/>
	

	

	

	

	

	

	<path d="M0 0 C0.99 0.33 1.98 0.66 3 1 C4.1875 4.0625 4.1875 4.0625 5 7 C3.35 7.33 1.7 7.66 0 8 C0.99 7.67 1.98 7.34 3 7 C2.505 6.21625 2.01 5.4325 1.5 4.625 C0 2 0 2 0 0 Z " fill="#DDD4D1" transform="translate(83,82)"/>
	

	<path d="M0 0 C5.75 0.875 5.75 0.875 8 2 C8 2.66 8 3.32 8 4 C5.125 3.6875 5.125 3.6875 2 3 C1.34 2.01 0.68 1.02 0 0 Z " fill="#8B837F" transform="translate(44,108)"/>
	

	

	

	<path d="M0 0 C0.99 0 1.98 0 3 0 C3.33 1.65 3.66 3.3 4 5 C2.0625 4.6875 2.0625 4.6875 0 4 C-0.33 3.01 -0.66 2.02 -1 1 C-0.67 0.67 -0.34 0.34 0 0 Z " fill="#9C9693" transform="translate(84,32)"/>
	

	

	

</svg>
