<?xml version="1.0" encoding="iso-8859-1"?>
<svg height="128" version="1.1" width="128" xmlns="http://www.w3.org/2000/svg">
	

	<path d="M0 0 C42.24 0 84.48 0 128 0 C128 42.24 128 84.48 128 128 C85.76 128 43.52 128 0 128 C0 85.76 0 43.52 0 0 Z " fill="#FCFBFB" transform="translate(0,0)"/>
	

	<path d="M0 0 C1.2065625 0.0309375 1.2065625 0.0309375 2.4375 0.0625 C2.705625 0.701875 2.97375 1.34125 3.25 2 C4.32417752 4.39381686 4.32417752 4.39381686 7.4375 5.0625 C8.4584375 6.5784375 8.4584375 6.5784375 9.5 8.125 C11.29037686 10.44033304 12.04103808 11.00108489 14.984375 11.45703125 C17.4931372 11.439314 19.94299318 11.32405994 22.4375 11.0625 C24.19812164 14.38811865 24.54534228 15.65423995 23.5625 19.375 C23.19125 20.261875 22.82 21.14875 22.4375 22.0625 C25.4075 21.0725 28.3775 20.0825 31.4375 19.0625 C29.4575 17.7425 27.4775 16.4225 25.4375 15.0625 C26.3125 10.1875 26.3125 10.1875 27.4375 9.0625 C29.6875 8.625 29.6875 8.625 32.4375 9.0625 C36.39147963 11.86323557 36.39147963 11.86323557 37.4375 15.0625 C37.00612167 18.75078474 36.18033252 22.15038941 35.171875 25.72265625 C34.4263388 29.11325969 34.48961621 30.7850713 35.4375 34.0625 C35.63988281 34.92230469 35.84226562 35.78210937 36.05078125 36.66796875 C36.39689453 37.94607422 36.39689453 37.94607422 36.75 39.25 C37.08451172 40.53970703 37.08451172 40.53970703 37.42578125 41.85546875 C38.66489208 44.55854836 39.72517539 45.00680479 42.4375 46.0625 C44.05640745 47.68140745 43.55643298 49.6449392 43.625 51.875 C43.78476912 54.58578905 43.78476912 54.58578905 44.4375 57.0625 C47.28480711 59.62930314 47.28480711 59.62930314 50.4375 61.0625 C51.8216124 63.8307248 51.8201988 66.35681335 52.0625 69.4375 C52.15789062 70.57960938 52.25328125 71.72171875 52.3515625 72.8984375 C52.47960063 77.61256855 52.18458948 79.25937881 48.9375 82.75 C47.7 83.8946875 47.7 83.8946875 46.4375 85.0625 C46.1075 85.3925 45.7775 85.7225 45.4375 86.0625 C43.125 86.5 43.125 86.5 40.4375 86.0625 C37.00356293 82.12357219 35.67574389 78.0345072 34.15234375 73.09375 C33.3032986 70.68116269 32.0283444 69.05105549 30.4375 67.0625 C29.72518939 65.37885674 29.01462185 63.69433264 28.328125 62 C26.99939466 59.10942873 25.27311606 56.51040313 23.5234375 53.859375 C22.4375 52.0625 22.4375 52.0625 21.4375 49.0625 C20.4475 48.7325 19.4575 48.4025 18.4375 48.0625 C15.39183582 45.31397379 12.9963334 42.88872743 11.4375 39.0625 C10.7775 39.0625 10.1175 39.0625 9.4375 39.0625 C8.98375 39.8875 8.53 40.7125 8.0625 41.5625 C7.52625 42.3875 6.99 43.2125 6.4375 44.0625 C5.1175 44.0625 3.7975 44.0625 2.4375 44.0625 C1.9425 41.5875 1.9425 41.5875 1.4375 39.0625 C-0.16570974 38.86698662 -1.77012986 38.68138017 -3.375 38.5 C-4.26832031 38.39558594 -5.16164063 38.29117188 -6.08203125 38.18359375 C-8.69625572 37.90591291 -8.69625572 37.90591291 -11.5625 39.0625 C-11.35625 40.01125 -11.15 40.96 -10.9375 41.9375 C-10.81375 42.96875 -10.69 44 -10.5625 45.0625 C-11.2225 45.7225 -11.8825 46.3825 -12.5625 47.0625 C-13.8825 47.0625 -15.2025 47.0625 -16.5625 47.0625 C-17.93785339 45.09116014 -19.26461044 43.08568078 -20.5625 41.0625 C-21.61927579 40.19573562 -22.70366629 39.36158908 -23.8125 38.5625 C-26.5625 36.0625 -26.5625 36.0625 -26.9375 32.75 C-26.81375 31.863125 -26.69 30.97625 -26.5625 30.0625 C-28.8725 29.7325 -31.1825 29.4025 -33.5625 29.0625 C-34.49673645 26.05218256 -34.60699911 25.19599732 -33.5625 22.0625 C-30.59671164 20.89736886 -27.71686364 20.97487879 -24.5625 21.0625 C-24.2325 20.0725 -23.9025 19.0825 -23.5625 18.0625 C-26.0375 17.0725 -26.0375 17.0725 -28.5625 16.0625 C-28.5625 15.0725 -28.5625 14.0825 -28.5625 13.0625 C-26.375 12.375 -26.375 12.375 -23.5625 12.0625 C-22.4796875 12.866875 -22.4796875 12.866875 -21.375 13.6875 C-17.99314681 15.34085045 -16.99741586 15.00285513 -13.4375 14.0625 C-10.22258876 12.94157397 -8.81744406 12.35727907 -6.5625 9.75 C-5.49224117 6.87367939 -4.49303534 3.98703962 -3.5625 1.0625 C-2.5625 0.0625 -2.5625 0.0625 0 0 Z " fill="#DAD9D9" transform="translate(57.5625,10.9375)"/>
	

	

	

	

	

	

	

	

	

</svg>
