<?xml version="1.0" encoding="iso-8859-1"?>
<svg height="128" version="1.1" width="128" xmlns="http://www.w3.org/2000/svg">
	

	<path d="M0 0 C42.24 0 84.48 0 128 0 C128 42.24 128 84.48 128 128 C85.76 128 43.52 128 0 128 C0 85.76 0 43.52 0 0 Z " fill="#FEFDFD" transform="translate(0,0)"/>
	

	<path d="M0 0 C1.15483887 0.01075562 1.15483887 0.01075562 2.33300781 0.02172852 C16.7133731 0.20962527 31.13946034 0.60146406 45.48046875 1.6953125 C54.14365416 2.34447772 62.8142609 2.52553439 71.49804688 2.70507812 C72.72716797 2.73923828 73.95628906 2.77339844 75.22265625 2.80859375 C76.32230713 2.8336499 77.42195801 2.85870605 78.55493164 2.88452148 C81.63027321 3.19432739 83.82849221 3.75626631 86.5625 5.1875 C89.95363892 11.22822658 91.35519255 18.21824036 93.125 24.875 C93.42857422 25.98294922 93.73214844 27.09089844 94.04492188 28.23242188 C95.50967488 33.69253601 96.75128232 39.06158311 97.578125 44.65625 C98.26015378 49.05480985 99.25826427 52.24168127 101.75 56 C105.02529484 61.47204223 105.02529484 61.47204223 104.4375 65.375 C104.14875 66.303125 103.86 67.23125 103.5625 68.1875 C98.25090798 70.75762517 92.40122264 72.05145906 86.6875 70.3125 C80.50947302 64.13447302 80.71176171 53.49503857 79.9375 45.3125 C79.69810333 42.89815914 79.45604417 40.48408036 79.2109375 38.0703125 C79.10958496 37.01215332 79.00823242 35.95399414 78.90380859 34.86376953 C78.63801925 32.0912708 78.63801925 32.0912708 77.5625 29.1875 C68.56478907 28.38304651 59.59149061 27.99622992 50.56314087 27.79907227 C37.31861252 27.50204431 24.09946247 26.97374671 10.875 26.1875 C9.79770126 26.12467331 9.79770126 26.12467331 8.69863892 26.06057739 C-11.7696166 24.8553834 -11.7696166 24.8553834 -13.4375 23.1875 C-13.27657573 16.36678673 -12.69155061 8.65839811 -10.4375 2.1875 C-6.79906579 -0.23812281 -4.19957487 -0.07515913 0 0 Z " fill="#F40D0D" transform="translate(19.4375,15.8125)"/>
	

	

	

</svg>
