<?xml version="1.0" encoding="iso-8859-1"?>
<svg height="128" version="1.1" width="128" xmlns="http://www.w3.org/2000/svg">
	

	<path d="M0 0 C42.24 0 84.48 0 128 0 C128 42.24 128 84.48 128 128 C85.76 128 43.52 128 0 128 C0 85.76 0 43.52 0 0 Z " fill="#FCFDFC" transform="translate(0,0)"/>
	

	<path d="M0 0 C1.32 0.33 2.64 0.66 4 1 C4.33 2.65 4.66 4.3 5 6 C6.01449219 5.98839844 7.02898438 5.97679687 8.07421875 5.96484375 C26.05683869 5.83482933 44.02762344 6.46419176 62 7 C62.66 5.68 63.32 4.36 64 3 C65.32 3 66.64 3 68 3 C73.55240793 11.92351275 73.55240793 11.92351275 73 18 C73.309375 19.299375 73.309375 19.299375 73.625 20.625 C74.09060117 23.57380738 73.65984275 24.54975594 72 27 C70.70529025 28.37086915 69.37849103 29.71340837 68 31 C70.64 31 73.28 31 76 31 C76.29390625 31.88751953 76.29390625 31.88751953 76.59375 32.79296875 C79.02266364 39.21074488 81.84873576 42.02887965 88 45 C87.8125 47.3125 87.8125 47.3125 87 50 C84.5 51.6875 84.5 51.6875 82 53 C81.505 53.99 81.505 53.99 81 55 C82.19625 55.268125 83.3925 55.53625 84.625 55.8125 C92.3040502 57.77941461 97.27231501 61.69389589 103 67 C102.80859375 69.296875 102.80859375 69.296875 102 72 C99.78515625 73.765625 99.78515625 73.765625 97.0625 75.25 C96.16660156 75.75015625 95.27070312 76.2503125 94.34765625 76.765625 C90.48950896 78.79420161 88.44601575 79.41166813 84 79 C81.03365038 78.05098504 78.46675741 76.91793339 76 75 C75.0625 72.0625 75.0625 72.0625 75 69 C74.69719847 67.32751678 74.35925893 65.66127117 74 64 C73.78601563 63.00742188 73.57203125 62.01484375 73.3515625 60.9921875 C73.11179687 59.96351562 72.87203125 58.93484375 72.625 57.875 C72.39039062 56.84117188 72.15578125 55.80734375 71.9140625 54.7421875 C70.97103728 51.91311184 70.09328585 50.99498237 68 49 C67.7195299 45.14353614 67.81765146 41.69483919 69 38 C67.36290685 36.31135412 67.36290685 36.31135412 65 35 C61.36676121 35.22707742 57.89616243 35.7244438 55 38 C54.5359375 39.7015625 54.5359375 39.7015625 54.0625 41.4375 C53 45 53 45 50.76953125 46.6953125 C41.54556716 51.04059319 30.09621057 47.00012003 21 44 C17.72319388 42.72748893 14.50062651 41.3902942 11.29296875 39.953125 C9.10606153 38.87205555 9.10606153 38.87205555 7 39 C23.5617828 47.65920624 38.71354027 53.90372376 57.75 51.375 C60.89199509 50.97286752 62.0072153 51.0024532 65.125 52.0625 C67 54 67 54 67.625 57 C67 60 67 60 64.83203125 61.4765625 C63.89746094 61.97929688 62.96289062 62.48203125 62 63 C55.58075608 66.64592319 49.56938312 70.14464036 44 75 C38.71335982 76.76221339 33.09584188 76.26991399 27.5625 76.3125 C26.34111328 76.34150391 25.11972656 76.37050781 23.86132812 76.40039062 C11.44000597 76.48632846 1.04113404 73.84419845 -8 65 C-13.7410683 58.50580231 -16.28751627 53.24711197 -16.375 44.4375 C-16.40335938 43.13683594 -16.43171875 41.83617187 -16.4609375 40.49609375 C-16 37 -16 37 -14.1171875 34.58203125 C-12.00566531 33.0042333 -10.58754265 32.36964895 -8 32 C-8.969375 31.443125 -9.93875 30.88625 -10.9375 30.3125 C-14 28 -14 28 -15.0625 25.8125 C-14.95421724 20.93977598 -13.8288063 16.17465506 -10.63671875 12.37890625 C-7.71913155 9.8382683 -4.66443472 8.18555241 -1 7 C-0.67 4.69 -0.34 2.38 0 0 Z " fill="#CEE6EC" transform="translate(24,12)"/>
	

	<path d="M0 0 C3.40276498 0.38744354 6.66939399 0.403277 10.09375 0.359375 C17.93430166 0.28564865 25.75830913 0.52428486 33.59375 0.796875 C34.79056396 0.83619141 35.98737793 0.87550781 37.22045898 0.91601562 C43.58141671 1.14711309 49.84150689 1.55568042 56.15625 2.359375 C56.48625 1.699375 56.81625 1.039375 57.15625 0.359375 C57.65125 2.339375 57.65125 2.339375 58.15625 4.359375 C57.49625 4.359375 56.83625 4.359375 56.15625 4.359375 C57.19722612 8.22585772 58.19323408 11.85398943 60.15625 15.359375 C56.12427812 19.62174527 52.52676934 22.45857765 47.03125 24.546875 C43.44027836 26.81074843 42.89103541 28.67335782 41.69921875 32.6171875 C41.15625 34.359375 41.15625 34.359375 40.15625 35.359375 C20.98692929 37.19721036 6.05385409 29.65177308 -10.76269531 21.34228516 C-12.76110489 20.3984094 -14.77876071 19.58294046 -16.8359375 18.77734375 C-17.82851563 18.30941406 -18.82109375 17.84148438 -19.84375 17.359375 C-21.25355321 13.12996537 -19.76848415 11.27758381 -17.84375 7.359375 C-13.58739573 -0.08924497 -7.78744797 -1.0467 0 0 Z " fill="#3690DA" transform="translate(32.84375,20.640625)"/>
	

	<path d="M0 0 C3.85224741 0.46492641 5.51444696 1.20428243 8.625 3.4375 C13.15399314 6.6724951 17.76053763 8.98104484 22.8359375 11.2109375 C24.54050748 11.96056631 26.23612077 12.73158883 27.9140625 13.5390625 C33.94521671 16.41208505 40.11826089 17.98421817 46.625 19.4375 C46.625 20.7575 46.625 22.0775 46.625 23.4375 C49.05172567 25.22719026 49.05172567 25.22719026 51.625 26.4375 C51.31295779 29.86996436 50.97761037 31.97155058 48.875 34.75 C41.22151458 40.49011406 25.01855958 38.12628791 16.015625 36.9765625 C6.38759257 34.6647468 -0.2438546 28.76451451 -5.375 20.4375 C-6.4816598 17.11752061 -6.57740272 14.49443373 -6.625 11 C-6.66367188 9.30037109 -6.66367188 9.30037109 -6.703125 7.56640625 C-6.18673795 2.64228691 -4.98207991 0.64582517 0 0 Z " fill="#95CBDE" transform="translate(17.375,47.5625)"/>
	

	

	

	<path d="M0 0 C2.56956379 0.878664 5.12927227 1.77686889 7.6875 2.6875 C8.40873047 2.93177734 9.12996094 3.17605469 9.87304688 3.42773438 C14.65658905 5.15330438 17.59062629 7.08176454 21 11 C21.598125 11.598125 22.19625 12.19625 22.8125 12.8125 C23.204375 13.204375 23.59625 13.59625 24 14 C23.5625 16.25 23.5625 16.25 22 19 C17.39592529 21.9230738 12.48649885 23.87285209 7 23 C4.1875 21.8125 4.1875 21.8125 2 20 C1 17.5 1 17.5 1 15 C2.4375 13.1875 2.4375 13.1875 4 12 C2.7625 11.505 2.7625 11.505 1.5 11 C-1 9 -1 9 -1.3671875 7.0546875 C-1.375 4.875 -1.375 4.875 -1 1 C-0.67 0.67 -0.34 0.34 0 0 Z " fill="#94CADE" transform="translate(100,66)"/>
	

	<path d="M0 0 C3.25 2 3.25 2 5 4 C4.25 8.75 4.25 8.75 2 11 C-2.61267065 11.80792195 -6.84278305 11.43619691 -11 9.25 C-14 7 -14 7 -15.125 4.9375 C-15 3 -15 3 -13.859375 1.40625 C-10.01420648 -1.50186065 -4.57194116 -0.58535635 0 0 Z " fill="#95CBDE" transform="translate(64,104)"/>
	

	

	

	

	

	

	

	

</svg>
