<?xml version="1.0" encoding="UTF-8" standalone="no"?>
<!-- Generator: Adobe Illustrator 14.0.0, SVG Export Plug-In  -->

<svg
   version="1.1"
   x="0px"
   y="0px"
   width="232px"
   height="130px"
   viewBox="-2.499 -2.499 232 130"
   enable-background="new -2.499 -2.499 232 130"
   xml:space="preserve"
   id="svg12"
   sodipodi:docname="bec.svg"
   xmlns:inkscape="http://www.inkscape.org/namespaces/inkscape"
   xmlns:sodipodi="http://sodipodi.sourceforge.net/DTD/sodipodi-0.dtd"
   xmlns="http://www.w3.org/2000/svg"
   xmlns:svg="http://www.w3.org/2000/svg"><sodipodi:namedview
   id="namedview8"
   pagecolor="#ffffff"
   bordercolor="#666666"
   borderopacity="1.0"
   inkscape:pageshadow="2"
   inkscape:pageopacity="0.0"
   inkscape:pagecheckerboard="0"
   showgrid="false"
   inkscape:zoom="4.5603448"
   inkscape:cx="116"
   inkscape:cy="65.017013"
   inkscape:window-width="3440"
   inkscape:window-height="1377"
   inkscape:window-x="-8"
   inkscape:window-y="-8"
   inkscape:window-maximized="1"
   inkscape:current-layer="svg12" />
<defs
   id="defs2">
</defs>
<path fill="#005596" fill-opacity="1.0"  filling="0" d="M142.2760009765625 68.4000015258789 L98.31500244140625 68.4000015258789 L98.31500244140625 48.41299819946289 L137.822998046875 48.41299819946289 L137.822998046875 34.481998443603516 L98.31500244140625 34.481998443603516 L98.31500244140625 17.014999389648438 L141.36399841308594 17.014999389648438 L141.36399841308594 1.940999984741211 L80.38700103759766 1.940999984741211 L80.38700103759766 83.47200012207031 L142.2760009765625 83.47200012207031 Z"></path>
<path
   fill="#005596"
   d="M190.919,85.411c19.981,0,34.026-13.018,35.853-33.341h-17.355c-1.37,10.728-7.536,18.269-18.497,18.269  c-16.102,0-22.152-13.704-22.152-27.29c0-14.275,6.051-27.978,22.152-27.978c8.907,0,16.671,6.165,17.813,14.273h17.356  C223.92,10.504,208.845,0,190.919,0c-25.237,0-40.079,18.84-40.079,43.049C150.84,66.567,165.682,85.411,190.919,85.411z"
   id="path6" />
<path
   fill="#005596"
   d="M68.284,59.834c0-10.162-5.024-17.814-14.959-20.667c7.078-3.427,11.078-9.024,11.078-17.016  c0-15.188-10.504-20.21-26.035-20.21H0v81.53h39.511C54.238,83.472,68.284,76.392,68.284,59.834z M17.928,15.87h16.785  c6.394,0,12.333,1.601,12.333,9.364c0,6.854-4.684,9.704-10.964,9.704H17.928V15.87z M17.928,69.54V47.157h19.524  c7.649,0,12.904,3.313,12.904,11.649c0,8.448-6.165,10.733-13.245,10.733H17.928z"
   id="path8" />
<path fill="#A61E31" fill-opacity="1.0"  filling="0" d="M0.0 104.19400024414062 L226.76300048828125 104.19400024414062 L226.76300048828125 124.89199829101562 L0.0 124.89199829101562 L0.0 104.19400024414062 Z"></path>
</svg>
