<?xml version="1.0" encoding="iso-8859-1"?>
<svg height="128" version="1.1" width="128" xmlns="http://www.w3.org/2000/svg">
	

	<path d="M0 0 C42.24 0 84.48 0 128 0 C128 42.24 128 84.48 128 128 C85.76 128 43.52 128 0 128 C0 85.76 0 43.52 0 0 Z " fill="#BB0606" transform="translate(0,0)"/>
	

	<path d="M0 0 C42.24 0 84.48 0 128 0 C128 42.24 128 84.48 128 128 C85.76 128 43.52 128 0 128 C0 85.76 0 43.52 0 0 Z M21.3125 6.3125 C20.06404297 6.34794922 18.81558594 6.38339844 17.52929688 6.41992188 C15.74555664 6.48469727 15.74555664 6.48469727 13.92578125 6.55078125 C12.83692627 6.58856689 11.74807129 6.62635254 10.6262207 6.6652832 C7.84438493 6.74759255 7.84438493 6.74759255 6 9 C5.70599437 12.03699433 5.70599437 12.03699433 5.77294922 15.65283203 C5.77265717 16.33587402 5.77236511 17.01891602 5.77206421 17.72265625 C5.77345961 19.98450341 5.78903033 22.24602276 5.8046875 24.5078125 C5.80841689 26.07436951 5.81126421 27.64092884 5.81326294 29.20748901 C5.82090524 33.33394797 5.84055876 37.46026651 5.8626709 41.58666992 C5.88311654 45.79604187 5.8922619 50.00543648 5.90234375 54.21484375 C5.92380417 62.476627 5.95794721 70.73829604 6 79 C7.65 79.33 9.3 79.66 11 80 C10.54625 80.7425 10.0925 81.485 9.625 82.25 C8.820625 83.61125 8.820625 83.61125 8 85 C7.64196289 85.57999756 7.28392578 86.15999512 6.91503906 86.75756836 C5.67795952 89.78920539 5.74065328 92.35904465 5.734375 95.62890625 C5.73179687 96.91087891 5.72921875 98.19285156 5.7265625 99.51367188 C5.73075195 100.17810303 5.73494141 100.84253418 5.73925781 101.52709961 C5.74998356 103.55938445 5.73933627 105.59078904 5.7265625 107.62304688 C5.72914063 108.90373047 5.73171875 110.18441406 5.734375 111.50390625 C5.73663086 112.67767822 5.73888672 113.8514502 5.74121094 115.06079102 C5.77992467 118.18943759 5.77992467 118.18943759 8 121 C11.25051755 121.46866461 11.25051755 121.46866461 15.08984375 121.3984375 C16.14033653 121.40274277 16.14033653 121.40274277 17.21205139 121.40713501 C18.6940288 121.40917739 20.17603307 121.40363524 21.65795898 121.39111328 C23.92558242 121.37508424 26.19141714 121.39094167 28.45898438 121.41015625 C29.89844143 121.40817338 31.33789738 121.40432878 32.77734375 121.3984375 C34.08952881 121.39505371 35.40171387 121.39166992 36.75366211 121.38818359 C39.90484893 121.23499292 39.90484893 121.23499292 41.93261719 119.8449707 C43.46536331 117.19561973 43.33516046 115.13070554 43.30078125 112.08203125 C43.31334961 110.32342773 43.31334961 110.32342773 43.32617188 108.52929688 C43.31712887 106.0708919 43.29648291 103.61249952 43.26367188 101.15429688 C43.345702 93.25781775 44.3060478 88.60780008 50 83 C50.55985596 82.43643799 51.11971191 81.87287598 51.6965332 81.29223633 C52.12667725 80.86579834 52.55682129 80.43936035 53 80 C56.92972846 81.30990949 57.5443982 82.97470518 59.75 86.4375 C62.79677943 91.14363654 65.90799304 95.77449016 69.14453125 100.3515625 C70.5348283 102.33602861 71.90484754 104.32883947 73.26171875 106.3359375 C73.65367432 106.912229 74.04562988 107.48852051 74.44946289 108.08227539 C75.56604869 109.72573199 76.67769526 111.37254118 77.7890625 113.01953125 C82.06396004 119.09385989 82.06396004 119.09385989 88.76464844 121.58349609 C90.21301688 121.58941745 91.6616798 121.56798897 93.109375 121.5234375 C94.26049774 121.5163829 94.26049774 121.5163829 95.43487549 121.50918579 C97.87418049 121.48791368 100.3112795 121.43131149 102.75 121.375 C104.40492751 121.35848634 106.05987815 121.34413996 107.71484375 121.33203125 C114.85577792 121.87150204 114.85577792 121.87150204 121 120 C121.34010147 116.59419516 121.39065952 114.63122914 119.56640625 111.68359375 C118.90511719 110.94238281 118.24382812 110.20117188 117.5625 109.4375 C114.36966962 105.68452394 111.46060088 101.88705617 108.6875 97.8125 C105.44503596 93.05430711 102.11057912 88.37996912 98.6875 83.75 C94.02557405 77.44010272 89.47721441 71.05601724 84.97143555 64.63378906 C84.49617432 63.95670898 84.02091309 63.27962891 83.53125 62.58203125 C83.09022949 61.95208252 82.64920898 61.32213379 82.19482422 60.6730957 C81.22003473 59.30811157 80.19840083 57.97668191 79.1640625 56.65625 C78 55 78 55 77.875 52.6875 C79.36277484 49.13337122 81.67727674 47.11579113 84.50390625 44.55078125 C86.23143443 43.11924132 86.23143443 43.11924132 86 41 C86.66 41 87.32 41 88 41 C89.43467016 39.62042584 89.43467016 39.62042584 90.9375 37.75 C94.02715805 34.113215 97.20272114 30.57004459 100.4375 27.0625 C100.90502686 26.55033936 101.37255371 26.03817871 101.85424805 25.51049805 C104.04625535 23.10936602 106.25372825 20.73879759 108.51953125 18.40625 C109.25558594 17.6328125 109.99164063 16.859375 110.75 16.0625 C111.40484375 15.39347656 112.0596875 14.72445313 112.734375 14.03515625 C114.26282417 12.0169269 114.26282417 12.0169269 113.828125 9.30859375 C113.2397827 6.83201671 113.2397827 6.83201671 111 6 C106.62920172 5.78789455 102.25452245 5.81420493 97.87915039 5.81469727 C95.70634134 5.81251889 93.53404677 5.79438249 91.36132812 5.77539062 C89.97396006 5.77245492 88.5865896 5.77047131 87.19921875 5.76953125 C85.93940186 5.76542236 84.67958496 5.76131348 83.3815918 5.75708008 C79.03220575 6.06952244 76.1883377 6.87690437 73.0078125 9.8828125 C72.38648437 10.62273438 71.76515625 11.36265625 71.125 12.125 C70.43535156 12.93324219 69.74570313 13.74148437 69.03515625 14.57421875 C68.36355469 15.37472656 67.69195312 16.17523438 67 17 C65.85756255 18.31545693 64.71188433 19.62810857 63.5625 20.9375 C62.99660156 21.5871875 62.43070313 22.236875 61.84765625 22.90625 C59.75788127 25.27436711 57.6282819 27.60395233 55.5 29.9375 C51.98176126 33.82670949 48.74064787 37.84581772 45.57421875 42.0234375 C44.15873201 43.80069876 42.70072861 45.36810452 41.0625 46.9375 C40.381875 47.618125 39.70125 48.29875 39 49 C39 49.66 39 50.32 39 51 C38.01 50.505 38.01 50.505 37 50 C37.61875 49.2575 38.2375 48.515 38.875 47.75 C43.81839048 41.35267114 43.33952994 35.42465805 43.31567383 27.6184082 C43.31250519 25.44106385 43.33602068 23.265068 43.36132812 21.08789062 C43.36360045 19.70312671 43.36430493 18.31835915 43.36328125 16.93359375 C43.36626221 15.67603271 43.36924316 14.41847168 43.37231445 13.12280273 C43.24072598 10.07135269 43.24072598 10.07135269 41.78979492 8.12915039 C35.96050302 4.45155183 27.86470734 6.0632498 21.3125 6.3125 Z " fill="#F9FAFA" transform="translate(0,0)"/>
	

	<path d="M0 0 C2.17480694 4.34961387 1.30954657 10.127188 1.35009766 14.95605469 C1.36657779 16.39144189 1.3937625 17.82674975 1.43212891 19.26171875 C1.65651519 27.70644774 1.67939965 34.31323067 -4 41 C-4.33 41.66 -4.66 42.32 -5 43 C-4.34 43 -3.68 43 -3 43 C-2.75636719 42.43796875 -2.51273438 41.8759375 -2.26171875 41.296875 C-0.75819064 38.55980215 1.06699748 36.54204059 3.1875 34.25 C3.99316406 33.36957031 4.79882812 32.48914062 5.62890625 31.58203125 C6.80259766 30.30392578 6.80259766 30.30392578 8 29 C11.70524489 24.8839066 15.25740566 20.71069433 18.625 16.3125 C21.21424665 12.94072547 23.95243936 9.97137163 27 7 C28.76783729 4.9034492 30.52274875 2.79883987 32.25390625 0.671875 C36.97456095 -3.84812548 45.25353673 -2.18599635 51.3815918 -2.18530273 C53.55862786 -2.1874961 55.7351624 -2.20569222 57.91210938 -2.22460938 C59.29687327 -2.22754237 60.68163957 -2.22952779 62.06640625 -2.23046875 C63.9527478 -2.23663208 63.9527478 -2.23663208 65.87719727 -2.24291992 C69 -2 69 -2 72 0 C71.74523793 5.57292027 68.19204352 8.43439943 64.5 12.1875 C63.22332166 13.51892105 61.94728099 14.85095383 60.671875 16.18359375 C60.04603516 16.83183105 59.42019531 17.48006836 58.77539062 18.14794922 C56.38552509 20.64100752 54.06219078 23.18467722 51.75 25.75 C51.06421875 26.50796875 50.3784375 27.2659375 49.671875 28.046875 C47.84690974 30.09998537 47.84690974 30.09998537 46 33 C45.34 33 44.68 33 44 33 C43.79375 33.53625 43.5875 34.0725 43.375 34.625 C41.72422068 37.4763461 39.65091415 39.23260379 37.14453125 41.33984375 C35.79471116 42.96517696 35.79471116 42.96517696 35.984375 45.1953125 C37.46203387 49.27592429 39.87993995 52.45755411 42.4375 55.9375 C43.24622559 57.05922607 43.24622559 57.05922607 44.07128906 58.20361328 C45.17750004 59.73726835 46.28704359 61.26852516 47.39990234 62.79736328 C49.28829681 65.39685899 51.15141755 68.01359995 53.01196289 70.63305664 C56.93897699 76.15844525 60.91635488 81.64668189 64.9140625 87.12109375 C66.50323342 89.31438769 68.08042431 91.51430553 69.6484375 93.72265625 C70.10089844 94.35945313 70.55335937 94.99625 71.01953125 95.65234375 C71.90662583 96.90245686 72.79210798 98.15371612 73.67578125 99.40625 C75.34614571 101.7597028 76.95515058 103.95515058 79 106 C79.1875 109.0625 79.1875 109.0625 79 112 C76.28279253 114.71720747 67.07566103 113.32207471 63.24560547 113.35009766 C61.58888677 113.36662919 59.93223858 113.39388259 58.27587891 113.43212891 C55.88666811 113.48702586 53.49913241 113.508792 51.109375 113.5234375 C50.37273621 113.54610687 49.63609741 113.56877625 48.87713623 113.59213257 C44.91605778 113.57593851 43.21603797 113.17741339 40.1159668 110.6315918 C37.97012434 107.96284415 35.97367753 105.27966699 34.0625 102.4375 C33.29251786 101.30280734 32.52161716 100.16873769 31.75 99.03515625 C31.32332031 98.40625488 30.89664063 97.77735352 30.45703125 97.12939453 C27.53001678 92.85167667 24.54057738 88.61724395 21.5625 84.375 C20.35509568 82.65390749 19.14804149 80.93256929 17.94140625 79.2109375 C17.42263916 78.47149902 16.90387207 77.73206055 16.36938477 76.97021484 C15.22704554 75.32666384 14.11025968 73.66538952 13 72 C9.84930578 73.36689554 7.99108226 74.85657885 5.8125 77.5 C5.30332031 78.1084375 4.79414062 78.716875 4.26953125 79.34375 C1.7757825 82.59713299 1.85365846 84.94462333 1.7890625 88.99609375 C1.74652344 90.79336914 1.74652344 90.79336914 1.703125 92.62695312 C1.65112476 95.16326477 1.60682884 97.6997463 1.5703125 100.23632812 C1.539375 101.43580078 1.5084375 102.63527344 1.4765625 103.87109375 C1.45674316 104.97380615 1.43692383 106.07651855 1.41650391 107.21264648 C1 110 1 110 -0.07836914 111.8581543 C-3.0817399 113.64277697 -5.75906988 113.3895058 -9.22265625 113.3984375 C-9.9239415 113.40130768 -10.62522675 113.40417786 -11.34776306 113.40713501 C-12.8279603 113.409174 -14.30818458 113.40365552 -15.78833008 113.39111328 C-18.05806403 113.37503143 -20.32602395 113.39097794 -22.59570312 113.41015625 C-24.03385811 113.40817426 -25.47201198 113.40433149 -26.91015625 113.3984375 C-28.87674194 113.39336182 -28.87674194 113.39336182 -30.88305664 113.38818359 C-32.4259436 113.19603271 -32.4259436 113.19603271 -34 113 C-37.1515165 108.27272525 -36.33388076 103.22008398 -36.31567383 97.65820312 C-36.31252149 95.63876999 -36.33595198 93.62081375 -36.36132812 91.6015625 C-36.36197266 90.3228125 -36.36261719 89.0440625 -36.36328125 87.7265625 C-36.36626221 86.55689941 -36.36924316 85.38723633 -36.37231445 84.18212891 C-35.96300186 80.68378115 -34.99528638 78.86027677 -33 76 C-32.31903578 74.67391178 -31.64669414 73.34313399 -31 72 C-32.65 71.67 -34.3 71.34 -36 71 C-36.04628063 61.90769199 -36.08184737 52.81542434 -36.10362434 43.72302437 C-36.11407464 39.5013425 -36.12825645 35.27974105 -36.15087891 31.05810547 C-36.17256303 26.98622723 -36.18455923 22.91442647 -36.18975449 18.84249496 C-36.19345824 17.28670913 -36.20069046 15.73092768 -36.21146011 14.17517471 C-36.22591638 12.00096626 -36.22798044 9.82708058 -36.22705078 7.65283203 C-36.231492 6.41373077 -36.23593323 5.17462952 -36.24050903 3.89797974 C-36 1 -36 1 -34 -1 C-29.63299342 -1.5901027 -25.21451714 -1.60807329 -20.8125 -1.75 C-19.59240234 -1.80542969 -18.37230469 -1.86085938 -17.11523438 -1.91796875 C-5.52226744 -2.33357756 -5.52226744 -2.33357756 0 0 Z M16.84765625 21.5546875 C15.25640919 23.66065084 14.06709772 25.59763341 13 28 C12.34 28 11.68 28 11 28 C9.75185669 29.40678023 8.5769161 30.87879704 7.4375 32.375 C4.59546648 36.02244735 1.6838332 39.52593757 -1.4375 42.9375 C-5.48739985 47.37343883 -9.29470881 51.96921617 -13.0546875 56.65234375 C-15 59 -15 59 -16.7578125 60.69140625 C-18.22948831 61.94104224 -18.22948831 61.94104224 -18 64 C-19.485 64.495 -19.485 64.495 -21 65 C-22.95127536 67.11359448 -22.95127536 67.11359448 -24.875 69.6875 C-27.07163762 72.52590038 -29.04618231 75.04129319 -31.73046875 77.44140625 C-35.80363348 82.3043141 -34.59093309 89.29318611 -34.4375 95.25 C-34.43169922 96.54164062 -34.42589844 97.83328125 -34.41992188 99.1640625 C-34.82292065 105.67678168 -34.82292065 105.67678168 -32 111 C-29.00434134 111.29554441 -29.00434134 111.29554441 -25.49609375 111.23046875 C-23.54993164 111.22756836 -23.54993164 111.22756836 -21.56445312 111.22460938 C-20.54943726 111.21530396 -20.54943726 111.21530396 -19.51391602 111.20581055 C-17.44209529 111.18754052 -15.37072103 111.18530095 -13.29882812 111.18554688 C-7.26274449 111.75439314 -7.26274449 111.75439314 -2 110 C-1.92710263 108.10542371 -1.9156796 106.20842646 -1.9296875 104.3125 C-1.919375 103.13816406 -1.9090625 101.96382813 -1.8984375 100.75390625 C-1.88300783 98.2825879 -1.89022722 95.81100762 -1.921875 93.33984375 C-1.79088152 84.74105737 -0.10864317 80.06859197 6 74 C6.51699463 73.45593506 7.03398926 72.91187012 7.56665039 72.35131836 C8.67992879 71.20314468 9.83436898 70.09498672 11 69 C14.03494496 70.31205044 15.65612875 71.48659723 17.48046875 74.23828125 C17.9177832 74.88724365 18.35509766 75.53620605 18.80566406 76.20483398 C19.26166992 76.90036377 19.71767578 77.59589355 20.1875 78.3125 C21.16517473 79.76835668 22.14304202 81.22408407 23.12109375 82.6796875 C23.8478833 83.77168457 23.8478833 83.77168457 24.58935547 84.88574219 C33.4664643 98.60171097 33.4664643 98.60171097 44 111 C46.50920846 111.17495606 48.90624941 111.23169569 51.4140625 111.1953125 C52.50852188 111.19106766 52.50852188 111.19106766 53.62509155 111.18673706 C55.95856028 111.17553002 58.29164703 111.1504251 60.625 111.125 C62.20572363 111.11497085 63.78645327 111.10584489 65.3671875 111.09765625 C69.24493914 111.07558905 73.12240478 111.04105615 77 111 C76.46128608 107.34368122 75.65542956 105.1149384 73.33984375 102.2421875 C72.79956543 101.55479492 72.25928711 100.86740234 71.70263672 100.15917969 C71.1407666 99.44665039 70.57889648 98.73412109 70 98 C68.9311812 96.54985697 67.87001202 95.09404599 66.81640625 93.6328125 C66.28490967 92.89748291 65.75341309 92.16215332 65.20581055 91.40454102 C64.66351807 90.65229248 64.12122559 89.90004395 63.5625 89.125 C62.99120361 88.33343506 62.41990723 87.54187012 61.83129883 86.72631836 C58.38121408 81.93865625 54.9701324 77.1266806 51.6015625 72.28125 C49.78145513 69.68870682 47.92605317 67.12398621 46.0625 64.5625 C45.07636719 63.19544922 45.07636719 63.19544922 44.0703125 61.80078125 C42.64543068 59.87315811 41.17898112 57.97579968 39.6796875 56.10546875 C34.11952435 49.02449442 34.11952435 49.02449442 33.5625 44.25 C35.25895821 40.41452926 37.38191675 38.22555811 40.50390625 35.48046875 C40.99761719 34.99191406 41.49132812 34.50335938 42 34 C42 33.34 42 32.68 42 32 C42.99 31.67 43.98 31.34 45 31 C46.58016767 29.47930027 46.58016767 29.47930027 48.125 27.5625 C50.84966543 24.35026286 53.61147383 21.18625949 56.4375 18.0625 C57.18644531 17.22589844 57.93539062 16.38929687 58.70703125 15.52734375 C60.24473585 13.83246321 61.8051612 12.15794107 63.38671875 10.50390625 C64.12535156 9.71886719 64.86398438 8.93382812 65.625 8.125 C66.29789062 7.42632812 66.97078125 6.72765625 67.6640625 6.0078125 C69.2772618 4.09390163 69.2772618 4.09390163 68.58349609 1.87451172 C68.39094238 1.25592285 68.19838867 0.63733398 68 0 C63.81912848 -0.07441989 59.6386127 -0.12872818 55.45727539 -0.16479492 C54.03630859 -0.1798376 52.61538787 -0.20027704 51.19458008 -0.22631836 C49.14653114 -0.26290347 47.0990985 -0.27977097 45.05078125 -0.29296875 C43.82012939 -0.3086792 42.58947754 -0.32438965 41.3215332 -0.34057617 C30.60070931 0.75869243 23.18256621 13.89022853 16.84765625 21.5546875 Z " fill="#F97707" transform="translate(42,8)"/>
	

	<path d="M0 0 C2.17480694 4.34961387 1.30954657 10.127188 1.35009766 14.95605469 C1.36657779 16.39144189 1.3937625 17.82674975 1.43212891 19.26171875 C1.65651519 27.70644774 1.67939965 34.31323067 -4 41 C-4.33 41.66 -4.66 42.32 -5 43 C-4.34 43 -3.68 43 -3 43 C-2.75636719 42.43796875 -2.51273438 41.8759375 -2.26171875 41.296875 C-0.75819064 38.55980215 1.06699748 36.54204059 3.1875 34.25 C3.99316406 33.36957031 4.79882812 32.48914062 5.62890625 31.58203125 C6.80259766 30.30392578 6.80259766 30.30392578 8 29 C11.70524489 24.8839066 15.25740566 20.71069433 18.625 16.3125 C21.21424665 12.94072547 23.95243936 9.97137163 27 7 C28.76783729 4.9034492 30.52274875 2.79883987 32.25390625 0.671875 C36.97456095 -3.84812548 45.25353673 -2.18599635 51.3815918 -2.18530273 C53.55862786 -2.1874961 55.7351624 -2.20569222 57.91210938 -2.22460938 C59.29687327 -2.22754237 60.68163957 -2.22952779 62.06640625 -2.23046875 C63.9527478 -2.23663208 63.9527478 -2.23663208 65.87719727 -2.24291992 C69 -2 69 -2 72 0 C71.74523793 5.57292027 68.19204352 8.43439943 64.5 12.1875 C63.22332166 13.51892105 61.94728099 14.85095383 60.671875 16.18359375 C60.04603516 16.83183105 59.42019531 17.48006836 58.77539062 18.14794922 C56.38552509 20.64100752 54.06219078 23.18467722 51.75 25.75 C51.06421875 26.50796875 50.3784375 27.2659375 49.671875 28.046875 C47.84690974 30.09998537 47.84690974 30.09998537 46 33 C45.34 33 44.68 33 44 33 C43.79375 33.53625 43.5875 34.0725 43.375 34.625 C41.72422068 37.4763461 39.65091415 39.23260379 37.14453125 41.33984375 C35.79471116 42.96517696 35.79471116 42.96517696 35.984375 45.1953125 C37.46203387 49.27592429 39.87993995 52.45755411 42.4375 55.9375 C43.24622559 57.05922607 43.24622559 57.05922607 44.07128906 58.20361328 C45.17750004 59.73726835 46.28704359 61.26852516 47.39990234 62.79736328 C49.28829681 65.39685899 51.15141755 68.01359995 53.01196289 70.63305664 C56.93897699 76.15844525 60.91635488 81.64668189 64.9140625 87.12109375 C66.50323342 89.31438769 68.08042431 91.51430553 69.6484375 93.72265625 C70.10089844 94.35945313 70.55335937 94.99625 71.01953125 95.65234375 C71.90662583 96.90245686 72.79210798 98.15371612 73.67578125 99.40625 C75.34614571 101.7597028 76.95515058 103.95515058 79 106 C79.1875 109.0625 79.1875 109.0625 79 112 C76.28279253 114.71720747 67.07566103 113.32207471 63.24560547 113.35009766 C61.58888677 113.36662919 59.93223858 113.39388259 58.27587891 113.43212891 C55.88666811 113.48702586 53.49913241 113.508792 51.109375 113.5234375 C50.37273621 113.54610687 49.63609741 113.56877625 48.87713623 113.59213257 C44.91605778 113.57593851 43.21603797 113.17741339 40.1159668 110.6315918 C37.97012434 107.96284415 35.97367753 105.27966699 34.0625 102.4375 C33.29251786 101.30280734 32.52161716 100.16873769 31.75 99.03515625 C31.32332031 98.40625488 30.89664063 97.77735352 30.45703125 97.12939453 C27.53001678 92.85167667 24.54057738 88.61724395 21.5625 84.375 C20.35509568 82.65390749 19.14804149 80.93256929 17.94140625 79.2109375 C17.42263916 78.47149902 16.90387207 77.73206055 16.36938477 76.97021484 C15.22704554 75.32666384 14.11025968 73.66538952 13 72 C9.84930578 73.36689554 7.99108226 74.85657885 5.8125 77.5 C5.30332031 78.1084375 4.79414062 78.716875 4.26953125 79.34375 C1.7757825 82.59713299 1.85365846 84.94462333 1.7890625 88.99609375 C1.74652344 90.79336914 1.74652344 90.79336914 1.703125 92.62695312 C1.65112476 95.16326477 1.60682884 97.6997463 1.5703125 100.23632812 C1.539375 101.43580078 1.5084375 102.63527344 1.4765625 103.87109375 C1.45674316 104.97380615 1.43692383 106.07651855 1.41650391 107.21264648 C1 110 1 110 -0.07836914 111.8581543 C-3.0817399 113.64277697 -5.75906988 113.3895058 -9.22265625 113.3984375 C-9.9239415 113.40130768 -10.62522675 113.40417786 -11.34776306 113.40713501 C-12.8279603 113.409174 -14.30818458 113.40365552 -15.78833008 113.39111328 C-18.05806403 113.37503143 -20.32602395 113.39097794 -22.59570312 113.41015625 C-24.03385811 113.40817426 -25.47201198 113.40433149 -26.91015625 113.3984375 C-28.87674194 113.39336182 -28.87674194 113.39336182 -30.88305664 113.38818359 C-32.4259436 113.19603271 -32.4259436 113.19603271 -34 113 C-37.1515165 108.27272525 -36.33388076 103.22008398 -36.31567383 97.65820312 C-36.31252149 95.63876999 -36.33595198 93.62081375 -36.36132812 91.6015625 C-36.36197266 90.3228125 -36.36261719 89.0440625 -36.36328125 87.7265625 C-36.36626221 86.55689941 -36.36924316 85.38723633 -36.37231445 84.18212891 C-35.96300186 80.68378115 -34.99528638 78.86027677 -33 76 C-32.31903578 74.67391178 -31.64669414 73.34313399 -31 72 C-32.65 71.67 -34.3 71.34 -36 71 C-36.04628063 61.90769199 -36.08184737 52.81542434 -36.10362434 43.72302437 C-36.11407464 39.5013425 -36.12825645 35.27974105 -36.15087891 31.05810547 C-36.17256303 26.98622723 -36.18455923 22.91442647 -36.18975449 18.84249496 C-36.19345824 17.28670913 -36.20069046 15.73092768 -36.21146011 14.17517471 C-36.22591638 12.00096626 -36.22798044 9.82708058 -36.22705078 7.65283203 C-36.231492 6.41373077 -36.23593323 5.17462952 -36.24050903 3.89797974 C-36 1 -36 1 -34 -1 C-29.63299342 -1.5901027 -25.21451714 -1.60807329 -20.8125 -1.75 C-19.59240234 -1.80542969 -18.37230469 -1.86085938 -17.11523438 -1.91796875 C-5.52226744 -2.33357756 -5.52226744 -2.33357756 0 0 Z M-34 2 C-34.44035465 4.91013739 -34.44035465 4.91013739 -34.34057617 8.37744141 C-34.34101425 9.03122269 -34.34145233 9.68500397 -34.34190369 10.3585968 C-34.33981081 12.52322075 -34.3164578 14.6870736 -34.29296875 16.8515625 C-34.28737453 18.35085629 -34.28310361 19.85015556 -34.28010559 21.34945679 C-34.26864298 25.29845277 -34.239164 29.24711852 -34.20599365 33.19598389 C-34.17532305 37.22436047 -34.16160672 41.25279035 -34.14648438 45.28125 C-34.11429532 53.18765167 -34.06308227 61.09378477 -34 69 C-30.9251113 69.33965994 -30.9251113 69.33965994 -29.0546875 67.19921875 C-28.33539062 66.37035156 -27.61609375 65.54148437 -26.875 64.6875 C-26.07707031 63.77226563 -25.27914063 62.85703125 -24.45703125 61.9140625 C-21.37172784 58.25486322 -18.35499239 54.54368106 -15.34765625 50.8203125 C-12.0217391 46.82478474 -8.5078278 43.021537 -4.96875 39.21484375 C-1.60701837 35.43289566 -1.86718301 32.43304297 -1.90234375 27.5859375 C-1.9037587 26.85629791 -1.90517365 26.12665833 -1.90663147 25.37490845 C-1.91223469 23.04156415 -1.92478765 20.70831536 -1.9375 18.375 C-1.94251459 16.79427222 -1.94707757 15.21354293 -1.95117188 13.6328125 C-1.96220516 9.75517146 -1.97947189 5.87760193 -2 2 C-5.68961899 0.31077685 -8.58471581 -0.25611445 -12.6328125 -0.265625 C-13.68597656 -0.26820312 -14.73914063 -0.27078125 -15.82421875 -0.2734375 C-17.45810547 -0.26183594 -17.45810547 -0.26183594 -19.125 -0.25 C-20.22199219 -0.25773438 -21.31898437 -0.26546875 -22.44921875 -0.2734375 C-24.02509766 -0.26957031 -24.02509766 -0.26957031 -25.6328125 -0.265625 C-27.06971436 -0.26224121 -27.06971436 -0.26224121 -28.53564453 -0.25878906 C-31.25401518 -0.16632273 -31.25401518 -0.16632273 -34 2 Z M16.84765625 21.5546875 C15.25640919 23.66065084 14.06709772 25.59763341 13 28 C12.34 28 11.68 28 11 28 C9.75185669 29.40678023 8.5769161 30.87879704 7.4375 32.375 C4.59546648 36.02244735 1.6838332 39.52593757 -1.4375 42.9375 C-5.48739985 47.37343883 -9.29470881 51.96921617 -13.0546875 56.65234375 C-15 59 -15 59 -16.7578125 60.69140625 C-18.22948831 61.94104224 -18.22948831 61.94104224 -18 64 C-19.485 64.495 -19.485 64.495 -21 65 C-22.95127536 67.11359448 -22.95127536 67.11359448 -24.875 69.6875 C-27.07163762 72.52590038 -29.04618231 75.04129319 -31.73046875 77.44140625 C-35.80363348 82.3043141 -34.59093309 89.29318611 -34.4375 95.25 C-34.43169922 96.54164062 -34.42589844 97.83328125 -34.41992188 99.1640625 C-34.82292065 105.67678168 -34.82292065 105.67678168 -32 111 C-29.00434134 111.29554441 -29.00434134 111.29554441 -25.49609375 111.23046875 C-23.54993164 111.22756836 -23.54993164 111.22756836 -21.56445312 111.22460938 C-20.54943726 111.21530396 -20.54943726 111.21530396 -19.51391602 111.20581055 C-17.44209529 111.18754052 -15.37072103 111.18530095 -13.29882812 111.18554688 C-7.26274449 111.75439314 -7.26274449 111.75439314 -2 110 C-1.92710263 108.10542371 -1.9156796 106.20842646 -1.9296875 104.3125 C-1.919375 103.13816406 -1.9090625 101.96382813 -1.8984375 100.75390625 C-1.88300783 98.2825879 -1.89022722 95.81100762 -1.921875 93.33984375 C-1.79088152 84.74105737 -0.10864317 80.06859197 6 74 C6.51699463 73.45593506 7.03398926 72.91187012 7.56665039 72.35131836 C8.67992879 71.20314468 9.83436898 70.09498672 11 69 C14.03494496 70.31205044 15.65612875 71.48659723 17.48046875 74.23828125 C17.9177832 74.88724365 18.35509766 75.53620605 18.80566406 76.20483398 C19.26166992 76.90036377 19.71767578 77.59589355 20.1875 78.3125 C21.16517473 79.76835668 22.14304202 81.22408407 23.12109375 82.6796875 C23.8478833 83.77168457 23.8478833 83.77168457 24.58935547 84.88574219 C33.4664643 98.60171097 33.4664643 98.60171097 44 111 C46.50920846 111.17495606 48.90624941 111.23169569 51.4140625 111.1953125 C52.50852188 111.19106766 52.50852188 111.19106766 53.62509155 111.18673706 C55.95856028 111.17553002 58.29164703 111.1504251 60.625 111.125 C62.20572363 111.11497085 63.78645327 111.10584489 65.3671875 111.09765625 C69.24493914 111.07558905 73.12240478 111.04105615 77 111 C76.46128608 107.34368122 75.65542956 105.1149384 73.33984375 102.2421875 C72.79956543 101.55479492 72.25928711 100.86740234 71.70263672 100.15917969 C71.1407666 99.44665039 70.57889648 98.73412109 70 98 C68.9311812 96.54985697 67.87001202 95.09404599 66.81640625 93.6328125 C66.28490967 92.89748291 65.75341309 92.16215332 65.20581055 91.40454102 C64.66351807 90.65229248 64.12122559 89.90004395 63.5625 89.125 C62.99120361 88.33343506 62.41990723 87.54187012 61.83129883 86.72631836 C58.38121408 81.93865625 54.9701324 77.1266806 51.6015625 72.28125 C49.78145513 69.68870682 47.92605317 67.12398621 46.0625 64.5625 C45.07636719 63.19544922 45.07636719 63.19544922 44.0703125 61.80078125 C42.64543068 59.87315811 41.17898112 57.97579968 39.6796875 56.10546875 C34.11952435 49.02449442 34.11952435 49.02449442 33.5625 44.25 C35.25895821 40.41452926 37.38191675 38.22555811 40.50390625 35.48046875 C40.99761719 34.99191406 41.49132812 34.50335938 42 34 C42 33.34 42 32.68 42 32 C42.99 31.67 43.98 31.34 45 31 C46.58016767 29.47930027 46.58016767 29.47930027 48.125 27.5625 C50.84966543 24.35026286 53.61147383 21.18625949 56.4375 18.0625 C57.18644531 17.22589844 57.93539062 16.38929687 58.70703125 15.52734375 C60.24473585 13.83246321 61.8051612 12.15794107 63.38671875 10.50390625 C64.12535156 9.71886719 64.86398438 8.93382812 65.625 8.125 C66.29789062 7.42632812 66.97078125 6.72765625 67.6640625 6.0078125 C69.2772618 4.09390163 69.2772618 4.09390163 68.58349609 1.87451172 C68.39094238 1.25592285 68.19838867 0.63733398 68 0 C63.81912848 -0.07441989 59.6386127 -0.12872818 55.45727539 -0.16479492 C54.03630859 -0.1798376 52.61538787 -0.20027704 51.19458008 -0.22631836 C49.14653114 -0.26290347 47.0990985 -0.27977097 45.05078125 -0.29296875 C43.82012939 -0.3086792 42.58947754 -0.32438965 41.3215332 -0.34057617 C30.60070931 0.75869243 23.18256621 13.89022853 16.84765625 21.5546875 Z " fill="#C9998F" transform="translate(42,8)"/>
	

	

</svg>
