<?xml version="1.0" encoding="UTF-8"?>
<svg version="1.1" xmlns="http://www.w3.org/2000/svg" width="128" height="128">
<path d="M0 0 C42.24 0 84.48 0 128 0 C128 42.24 128 84.48 128 128 C85.76 128 43.52 128 0 128 C0 85.76 0 43.52 0 0 Z " fill="#FBFBFB" transform="translate(0,0)"/>
<path d="M0 0 C1.29357422 -0.01611328 2.58714844 -0.03222656 3.91992188 -0.04882812 C16.781255 -0.05540681 16.781255 -0.05540681 22.6875 3.3125 C24.421875 6.125 24.421875 6.125 25.4375 9.3125 C26.83611443 13.57096783 27.68814509 16.05645364 31.6875 18.3125 C34.30199932 18.14382262 35.7363667 17.28202128 37.9609375 15.89453125 C40.71728144 14.29521994 43.37651606 13.192673 46.375 12.125 C47.32761719 11.78082031 48.28023438 11.43664063 49.26171875 11.08203125 C51.6875 10.3125 51.6875 10.3125 53.6875 10.3125 C54.0175 9.3225 54.3475 8.3325 54.6875 7.3125 C55.6775 6.9825 56.6675 6.6525 57.6875 6.3125 C57.935 6.951875 58.1825 7.59125 58.4375 8.25 C58.85 8.930625 59.2625 9.61125 59.6875 10.3125 C60.33460937 10.44785156 60.98171875 10.58320313 61.6484375 10.72265625 C62.32132812 10.91730469 62.99421875 11.11195312 63.6875 11.3125 C66.62947578 16.80418812 67.06663249 20.37231309 65.4375 26.359375 C64.6875 28.3125 64.6875 28.3125 63.0625 30.3125 C60.78417246 33.62643097 61.33053984 37.4133967 61.6875 41.3125 C61.85507813 41.97378906 62.02265625 42.63507812 62.1953125 43.31640625 C63.46112452 48.44997724 62.99821109 54.23349451 61.6875 59.3125 C61.0275 59.3125 60.3675 59.3125 59.6875 59.3125 C59.605 59.84875 59.5225 60.385 59.4375 60.9375 C58.16452491 64.96858777 56.38461888 68.22784943 52.75 70.55078125 C47.61518434 73.14650608 43.50763791 74.4418364 37.6875 74.3125 C35.83647283 80.64557408 34.30781591 86.73715139 33.6875 93.3125 C25.27966878 88.52258403 25.27966878 88.52258403 23.25 84.375 C23.82048199 80.38162605 25.57007897 78.75004767 28.4375 76.0234375 C29.95646589 74.36167963 29.95646589 74.36167963 29.375 72.1015625 C29.148125 71.51117188 28.92125 70.92078125 28.6875 70.3125 C28.28917969 70.73402344 27.89085938 71.15554687 27.48046875 71.58984375 C26.95066406 72.13769531 26.42085938 72.68554688 25.875 73.25 C25.35292969 73.79527344 24.83085938 74.34054688 24.29296875 74.90234375 C20.89925022 77.88320114 17.1100981 77.47728542 12.8125 77.5 C11.59820312 77.51417969 10.38390625 77.52835937 9.1328125 77.54296875 C5.84405579 77.32297255 3.63384052 76.72965618 0.6875 75.3125 C1.1825 76.4571875 1.1825 76.4571875 1.6875 77.625 C2.6875 80.3125 2.6875 80.3125 2.6875 83.3125 C0.61139567 86.12528651 -1.09464918 87.95277894 -4.5078125 88.9609375 C-7.96417807 89.47425912 -10.54977995 89.57294099 -13.875 88.4375 C-16.20125442 84.99868912 -15.61633381 81.33829797 -15.3125 77.3125 C-16.26125 77.044375 -17.21 76.77625 -18.1875 76.5 C-21.3125 75.3125 -21.3125 75.3125 -23.3125 72.3125 C-25.37175139 71.58867533 -25.37175139 71.58867533 -27.3125 71.3125 C-26.86197266 72.54226562 -26.86197266 72.54226562 -26.40234375 73.796875 C-25.83193359 75.41335937 -25.83193359 75.41335937 -25.25 77.0625 C-24.86714844 78.12984375 -24.48429687 79.1971875 -24.08984375 80.296875 C-23.33239989 83.23530042 -23.24098259 84.53598948 -24.3125 87.3125 C-27.625 87.25 -27.625 87.25 -31.3125 86.3125 C-33.125 83.0625 -33.125 83.0625 -34.3125 79.3125 C-34.704375 78.343125 -35.09625 77.37375 -35.5 76.375 C-35.768125 75.694375 -36.03625 75.01375 -36.3125 74.3125 C-39.7775 74.8075 -39.7775 74.8075 -43.3125 75.3125 C-47.36426892 68.23798283 -45.21419408 59.49504264 -44.140625 51.78125 C-43.3125 49.3125 -43.3125 49.3125 -41.234375 47.96875 C-40.60015625 47.7521875 -39.9659375 47.535625 -39.3125 47.3125 C-39.828125 46.4875 -40.34375 45.6625 -40.875 44.8125 C-42.74311794 40.26403894 -42.34457465 38.07592147 -41.3125 33.3125 C-39.3125 31.3125 -39.3125 31.3125 -36.5 31.0625 C-32.14717646 30.03830623 -30.92173675 27.83849561 -28.3125 24.3125 C-27.77625 23.8175 -27.24 23.3225 -26.6875 22.8125 C-25.07068817 21.18658615 -25.07068817 21.18658615 -23.75 18.1875 C-22.3125 15.3125 -22.3125 15.3125 -20.3125 14.3125 C-20.51875 13.075 -20.725 11.8375 -20.9375 10.5625 C-21.24350431 8.01546413 -21.3460216 6.43988208 -20.6875 3.9375 C-15.92514642 -1.69073605 -6.58466748 -0.01625844 0 0 Z " fill="#908F8F" transform="translate(48.3125,4.6875)"/>
<path d="M0 0 C1.72095302 1.44321996 3.42958934 2.89786392 5.125 4.37109375 C6.63193046 5.68023958 8.15691989 6.96858409 9.6875 8.25 C12.83972541 11.99859238 14.98921054 16.18112003 16 21 C15.34 22.32 14.68 23.64 14 25 C9.05 25 4.1 25 -1 25 C-0.505 26.98 -0.505 26.98 0 29 C5.40762879 29.19664105 9.97832908 28.71409203 15.21484375 27.33984375 C15.80394531 27.22769531 16.39304687 27.11554687 17 27 C18 28 18 28 18.5 30.1875 C17.80951315 34.07148853 15.82072745 34.98919164 12.7890625 37.3203125 C10.80144493 39.18641633 10.11163784 40.67019036 9.125 43.1875 C7.99572504 45.75403399 7.43410002 46.7677688 4.93359375 48.10546875 C2.63843632 48.8503551 0.34556515 49.43790961 -2 50 C-3.299375 50.5878125 -3.299375 50.5878125 -4.625 51.1875 C-8.00654902 52.34434572 -10.4573226 52.51529853 -14 52 C-16.47435047 49.11325779 -17.88640494 46.2413895 -19.5 42.8125 C-21.10175005 39.80921865 -22.01111192 38.57746871 -25 37 C-28.65274469 36.27518916 -28.65274469 36.27518916 -32 36 C-31.64231781 39.21913971 -30.89054667 40.106717 -28.5 42.4375 C-25.88172369 45.12123322 -25.31302824 46.3480039 -25 50 C-27.52917554 49.54836151 -28.91096195 49.07180488 -30.9375 47.4375 C-33.46833471 45.6735849 -34.98037834 45.74836486 -38 46 C-37.67 47.65 -37.34 49.3 -37 51 C-38.625 51.75 -38.625 51.75 -41 52 C-46.712 48.864 -46.712 48.864 -48 45 C-48.87557934 39.63707654 -47.59057497 36.97262859 -44.5625 32.6875 C-43.37694417 31.12352433 -42.18981372 29.56073886 -41 28 C-40.67 27.34 -40.34 26.68 -40 26 C-31.84174856 26.68891901 -31.84174856 26.68891901 -28.125 28.0625 C-23.31054711 29.50683587 -16.62482169 30.31241085 -12 28 C-11.505 26.515 -11.505 26.515 -11 25 C-15.62 25 -20.24 25 -25 25 C-25 24.34 -25 23.68 -25 23 C-25.99 22.67 -26.98 22.34 -28 22 C-28 20.02 -28 18.04 -28 16 C-27.01 15.67 -26.02 15.34 -25 15 C-24.26676204 12.98491642 -24.26676204 12.98491642 -24 11 C-23.360625 10.896875 -22.72125 10.79375 -22.0625 10.6875 C-21.381875 10.460625 -20.70125 10.23375 -20 10 C-19.67 9.01 -19.34 8.02 -19 7 C-18.34 7 -17.68 7 -17 7 C-17 6.34 -17 5.68 -17 5 C-15.02 4.67 -13.04 4.34 -11 4 C-10.79246094 4.61488281 -10.58492187 5.22976562 -10.37109375 5.86328125 C-8.30197993 11.39589322 -8.30197993 11.39589322 -3.625 14.8125 C-2.42875 15.204375 -1.2325 15.59625 0 16 C1.0725 16.721875 2.145 17.44375 3.25 18.1875 C5.86854943 20.27515668 5.86854943 20.27515668 9 20 C7.51836329 15.55508988 4.30356843 12.99482854 0.625 10.1875 C-1.31495471 7.5760225 -1.13467416 6.87685142 -0.75 3.75 C-0.5025 2.5125 -0.255 1.275 0 0 Z " fill="#F9F9F9" transform="translate(69,23)"/>
<path d="M0 0 C1.29357422 -0.01611328 2.58714844 -0.03222656 3.91992188 -0.04882812 C10.8440764 -0.05236989 16.47458911 0.11445373 22.6875 3.3125 C24.25 5.8125 24.25 5.8125 24.6875 8.3125 C24.3575 9.3025 24.0275 10.2925 23.6875 11.3125 C23.0996875 9.889375 23.0996875 9.889375 22.5 8.4375 C20.37981756 4.78201304 19.63627806 4.45665929 15.6875 3.3125 C12.25319135 3.00619117 12.25319135 3.00619117 8.5234375 3.046875 C7.51260605 3.04400482 7.51260605 3.04400482 6.48135376 3.04107666 C5.06438826 3.03972171 3.64741007 3.04336973 2.23046875 3.05175781 C0.06221764 3.0625014 -2.10521136 3.05182255 -4.2734375 3.0390625 C-5.65364766 3.04038356 -7.03385731 3.04294485 -8.4140625 3.046875 C-9.66525879 3.04913086 -10.91645508 3.05138672 -12.20556641 3.05371094 C-15.47900522 3.07414996 -15.47900522 3.07414996 -18.3125 5.3125 C-18.168125 5.869375 -18.02375 6.42625 -17.875 7 C-17.28480872 9.42634195 -16.789071 11.86156345 -16.3125 14.3125 C-17.3025 14.6425 -18.2925 14.9725 -19.3125 15.3125 C-19.3125 15.9725 -19.3125 16.6325 -19.3125 17.3125 C-19.9725 17.3125 -20.6325 17.3125 -21.3125 17.3125 C-21.498125 17.9725 -21.68375 18.6325 -21.875 19.3125 C-24.60037686 25.00024301 -29.10471913 29.77333464 -34.3125 33.3125 C-36.5625 34 -36.5625 34 -38.3125 34.3125 C-39.0454173 38.29872593 -39.0454173 38.29872593 -39.3125 42.3125 C-38.3331121 43.33269573 -37.33354551 44.33399805 -36.3125 45.3125 C-36.625 49 -36.625 49 -37.3125 52.3125 C-38.6325 51.9825 -39.9525 51.6525 -41.3125 51.3125 C-41.456875 52.364375 -41.60125 53.41625 -41.75 54.5 C-42.3125 58.3125 -42.3125 58.3125 -42.9375 60.6875 C-43.50050696 64.62854875 -42.86787691 68.39068461 -42.3125 72.3125 C-41.6525 72.3125 -40.9925 72.3125 -40.3125 72.3125 C-39.8175 71.3225 -39.8175 71.3225 -39.3125 70.3125 C-37.8275 69.8175 -37.8275 69.8175 -36.3125 69.3125 C-35.74611092 64.49819279 -37.48688373 62.10942186 -40.3125 58.3125 C-38.5 55.3125 -38.5 55.3125 -36.3125 52.3125 C-35.3225 52.3125 -34.3325 52.3125 -33.3125 52.3125 C-33.3125 56.9325 -33.3125 61.5525 -33.3125 66.3125 C-31.6625 66.6425 -30.0125 66.9725 -28.3125 67.3125 C-27.6525 65.9925 -26.9925 64.6725 -26.3125 63.3125 C-25.9825 64.3025 -25.6525 65.2925 -25.3125 66.3125 C-22.39170195 68.38780387 -20.93703269 69.3125 -17.3125 69.3125 C-17.3125 67.6625 -17.3125 66.0125 -17.3125 64.3125 C-15.125 63.5625 -15.125 63.5625 -12.3125 63.3125 C-9.6875 65.1875 -9.6875 65.1875 -7.3125 67.3125 C-6.3225 67.6425 -5.3325 67.9725 -4.3125 68.3125 C-5.88548065 64.75259643 -7.22240754 62.39849734 -10.0625 59.6875 C-10.805 58.90375 -11.5475 58.12 -12.3125 57.3125 C-12.125 55 -12.125 55 -11.3125 53.3125 C-6.58915892 53.59590046 -3.30581283 54.32529641 0.265625 57.5703125 C3.11988896 61.06756999 4.88382647 65.20235899 6.6875 69.3125 C12.23665224 69.65224401 15.66921649 68.59353796 20.6875 66.3125 C21.71875 66.27125 22.75 66.23 23.8125 66.1875 C26.76931745 65.61708082 26.76931745 65.61708082 27.9609375 63.4296875 C28.7879408 61.83362381 29.59622641 60.22773955 30.38671875 58.61328125 C32.27623793 55.27115874 34.59788043 53.53990015 37.6875 51.3125 C36.57287118 53.82041484 35.46992451 55.55644828 33.625 57.625 C31.26774801 60.89473663 30.91739599 63.32763623 30.6875 67.3125 C31.0175 67.6425 31.3475 67.9725 31.6875 68.3125 C31.94698275 72.81020106 31.85943636 76.31156461 29.6875 80.3125 C28.6975 80.9725 27.7075 81.6325 26.6875 82.3125 C26.6875 83.6325 26.6875 84.9525 26.6875 86.3125 C28.0075 86.3125 29.3275 86.3125 30.6875 86.3125 C30.790625 85.384375 30.89375 84.45625 31 83.5 C31.69281495 80.28785795 32.0754169 79.19319983 34.6875 77.3125 C35.3475 77.3125 36.0075 77.3125 36.6875 77.3125 C36.55472656 77.88097656 36.42195313 78.44945313 36.28515625 79.03515625 C35.1990242 83.78401097 34.30437618 88.48030324 33.6875 93.3125 C25.27966878 88.52258403 25.27966878 88.52258403 23.25 84.375 C23.82048199 80.38162605 25.57007897 78.75004767 28.4375 76.0234375 C29.95646589 74.36167963 29.95646589 74.36167963 29.375 72.1015625 C29.148125 71.51117188 28.92125 70.92078125 28.6875 70.3125 C28.28917969 70.73402344 27.89085938 71.15554687 27.48046875 71.58984375 C26.95066406 72.13769531 26.42085938 72.68554688 25.875 73.25 C25.35292969 73.79527344 24.83085938 74.34054688 24.29296875 74.90234375 C20.89925022 77.88320114 17.1100981 77.47728542 12.8125 77.5 C11.59820312 77.51417969 10.38390625 77.52835937 9.1328125 77.54296875 C5.84405579 77.32297255 3.63384052 76.72965618 0.6875 75.3125 C1.1825 76.4571875 1.1825 76.4571875 1.6875 77.625 C2.6875 80.3125 2.6875 80.3125 2.6875 83.3125 C0.61139567 86.12528651 -1.09464918 87.95277894 -4.5078125 88.9609375 C-7.96417807 89.47425912 -10.54977995 89.57294099 -13.875 88.4375 C-16.20125442 84.99868912 -15.61633381 81.33829797 -15.3125 77.3125 C-16.26125 77.044375 -17.21 76.77625 -18.1875 76.5 C-21.3125 75.3125 -21.3125 75.3125 -23.3125 72.3125 C-25.37175139 71.58867533 -25.37175139 71.58867533 -27.3125 71.3125 C-26.86197266 72.54226562 -26.86197266 72.54226562 -26.40234375 73.796875 C-25.83193359 75.41335937 -25.83193359 75.41335937 -25.25 77.0625 C-24.86714844 78.12984375 -24.48429687 79.1971875 -24.08984375 80.296875 C-23.33239989 83.23530042 -23.24098259 84.53598948 -24.3125 87.3125 C-27.625 87.25 -27.625 87.25 -31.3125 86.3125 C-33.125 83.0625 -33.125 83.0625 -34.3125 79.3125 C-34.704375 78.343125 -35.09625 77.37375 -35.5 76.375 C-35.768125 75.694375 -36.03625 75.01375 -36.3125 74.3125 C-39.7775 74.8075 -39.7775 74.8075 -43.3125 75.3125 C-47.36426892 68.23798283 -45.21419408 59.49504264 -44.140625 51.78125 C-43.3125 49.3125 -43.3125 49.3125 -41.234375 47.96875 C-40.60015625 47.7521875 -39.9659375 47.535625 -39.3125 47.3125 C-39.828125 46.4875 -40.34375 45.6625 -40.875 44.8125 C-42.74311794 40.26403894 -42.34457465 38.07592147 -41.3125 33.3125 C-39.3125 31.3125 -39.3125 31.3125 -36.5 31.0625 C-32.14717646 30.03830623 -30.92173675 27.83849561 -28.3125 24.3125 C-27.77625 23.8175 -27.24 23.3225 -26.6875 22.8125 C-25.07068817 21.18658615 -25.07068817 21.18658615 -23.75 18.1875 C-22.3125 15.3125 -22.3125 15.3125 -20.3125 14.3125 C-20.51875 13.075 -20.725 11.8375 -20.9375 10.5625 C-21.24350431 8.01546413 -21.3460216 6.43988208 -20.6875 3.9375 C-15.92514642 -1.69073605 -6.58466748 -0.01625844 0 0 Z " fill="#A8A7A7" transform="translate(48.3125,4.6875)"/>
<path d="M0 0 C1.00583885 -0.00074776 1.00583885 -0.00074776 2.03199768 -0.00151062 C3.4465736 0.00082385 4.86115414 0.01051549 6.27563477 0.02709961 C8.43088297 0.05066618 10.5848902 0.04765957 12.74023438 0.04101562 C24.70183697 0.08942979 24.70183697 0.08942979 29.00390625 2.36328125 C29.9296875 4.52734375 29.9296875 4.52734375 30.31640625 6.98828125 C30.45691406 7.80554688 30.59742188 8.6228125 30.7421875 9.46484375 C30.82855469 10.09132813 30.91492188 10.7178125 31.00390625 11.36328125 C28.61826548 10.78743693 26.33707841 10.1410053 24.00390625 9.36328125 C21.2277067 10.11904506 21.2277067 10.11904506 18.31640625 11.30078125 C16.82560547 11.87119141 16.82560547 11.87119141 15.3046875 12.453125 C14.54542969 12.75347656 13.78617188 13.05382813 13.00390625 13.36328125 C12.98328125 14.22953125 12.96265625 15.09578125 12.94140625 15.98828125 C11.66290953 20.59086944 8.94917873 22.79384282 5.00390625 25.36328125 C4.34390625 25.36328125 3.68390625 25.36328125 3.00390625 25.36328125 C2.73578125 25.92015625 2.46765625 26.47703125 2.19140625 27.05078125 C1.00390625 29.36328125 1.00390625 29.36328125 -0.49609375 31.80078125 C-1.93964715 34.26685163 -3.00279402 36.68901274 -3.99609375 39.36328125 C-5.31609375 39.36328125 -6.63609375 39.36328125 -7.99609375 39.36328125 C-8.49109375 36.88828125 -8.49109375 36.88828125 -8.99609375 34.36328125 C-10.06859375 35.02328125 -11.14109375 35.68328125 -12.24609375 36.36328125 C-15.30590061 38.24623932 -16.12968015 38.36328125 -19.99609375 38.36328125 C-21.95579314 35.91365702 -22.89883204 34.08918574 -23.31640625 30.97265625 C-22.89053391 27.50335476 -21.54137441 26.27704705 -19.12109375 23.80078125 C-16.51226374 21.10312012 -14.48774758 18.8254883 -12.99609375 15.36328125 C-12.33609375 15.36328125 -11.67609375 15.36328125 -10.99609375 15.36328125 C-10.99609375 14.70328125 -10.99609375 14.04328125 -10.99609375 13.36328125 C-10.33609375 13.03328125 -9.67609375 12.70328125 -8.99609375 12.36328125 C-9.58413172 9.339086 -10.22287493 6.34569672 -10.99609375 3.36328125 C-7.46923714 0.02926948 -4.75539029 -0.01137727 0 0 Z " fill="#171717" transform="translate(39.99609375,6.63671875)"/>
<path d="M0 0 C0.99 0.66 1.98 1.32 3 2 C3 2.66 3 3.32 3 4 C3.62132813 4.0928125 4.24265625 4.185625 4.8828125 4.28125 C7 5 7 5 8.875 8.5 C10.47069491 13.32177376 9.79857555 17.3162095 8 22 C7.46375 22.66 6.9275 23.32 6.375 24 C4.09667246 27.31393097 4.64303984 31.1008967 5 35 C5.16757813 35.66128906 5.33515625 36.32257812 5.5078125 37.00390625 C6.77362452 42.13747724 6.31071109 47.92099451 5 53 C4.34 53 3.68 53 3 53 C2.9175 53.53625 2.835 54.0725 2.75 54.625 C1.47702491 58.65608777 -0.30288112 61.91534943 -3.9375 64.23828125 C-9.07231566 66.83400608 -13.17986209 68.1293364 -19 68 C-18 66 -18 66 -15.41796875 65 C-13.81888672 64.505 -13.81888672 64.505 -12.1875 64 C-5.23672801 62.13476221 -5.23672801 62.13476221 -0.3125 57.375 C1.21050306 53.45870642 1.64012151 50.17459046 2 46 C1.38125 46.61875 1.38125 46.61875 0.75 47.25 C-0.52100409 48.52100409 -1.81608147 49.76807668 -3.125 51 C-5.21598078 52.95103635 -5.21598078 52.95103635 -6 56 C-7.84765625 56.73046875 -7.84765625 56.73046875 -10.0625 57.1875 C-10.79597656 57.34605469 -11.52945313 57.50460938 -12.28515625 57.66796875 C-12.85105469 57.77753906 -13.41695313 57.88710937 -14 58 C-14.10911227 56.43908834 -14.18609398 54.87591508 -14.25 53.3125 C-14.29640625 52.44238281 -14.3428125 51.57226562 -14.390625 50.67578125 C-14 48 -14 48 -12.03125 45.59375 C-9.48198188 42.33853071 -9.41512361 40.27430925 -9.25 36.1875 C-9.19328125 35.02605469 -9.1365625 33.86460938 -9.078125 32.66796875 C-9.05234375 31.78753906 -9.0265625 30.90710938 -9 30 C-5.25 28.875 -5.25 28.875 -3 30 C-3 30.66 -3 31.32 -3 32 C-2.01 31.67 -1.02 31.34 0 31 C0.33 30.01 0.66 29.02 1 28 C1.66 28 2.32 28 3 28 C3.12375 27.21625 3.2475 26.4325 3.375 25.625 C4 23 4 23 6 21 C6 19.68 6 18.36 6 17 C5.34 17 4.68 17 4 17 C3.34 18.32 2.68 19.64 2 21 C1.01 20.67 0.02 20.34 -1 20 C-1.04125 19.236875 -1.0825 18.47375 -1.125 17.6875 C-1.77823609 14.67594887 -1.77823609 14.67594887 -5.0625 13.1875 C-6.031875 12.795625 -7.00125 12.40375 -8 12 C-8 11.01 -8 10.02 -8 9 C-10.64 9 -13.28 9 -16 9 C-6.38461538 4 -6.38461538 4 -3 4 C-2.67 3.01 -2.34 2.02 -2 1 C-1.34 0.67 -0.68 0.34 0 0 Z " fill="#A6A5A5" transform="translate(105,11)"/>
<path d="M0 0 C0 3 0 3 -2.4375 5.75 C-5.27332325 8.95536396 -5.83113341 11.69390184 -6 16 C-5.67 16.33 -5.34 16.66 -5 17 C-4.74051725 21.49770106 -4.82806364 24.99906461 -7 29 C-7.99 29.66 -8.98 30.32 -10 31 C-10 32.32 -10 33.64 -10 35 C-8.68 35 -7.36 35 -6 35 C-5.896875 34.071875 -5.79375 33.14375 -5.6875 32.1875 C-4.99468505 28.97535795 -4.6120831 27.88069983 -2 26 C-1.34 26 -0.68 26 0 26 C-0.19916016 26.85271484 -0.19916016 26.85271484 -0.40234375 27.72265625 C-1.4884758 32.47151097 -2.38312382 37.16780324 -3 42 C-11.40783122 37.21008403 -11.40783122 37.21008403 -13.4375 33.0625 C-12.86701801 29.06912605 -11.11742103 27.43754767 -8.25 24.7109375 C-6.73103411 23.04917963 -6.73103411 23.04917963 -7.3125 20.7890625 C-7.539375 20.19867188 -7.76625 19.60828125 -8 19 C-8.39832031 19.42152344 -8.79664063 19.84304687 -9.20703125 20.27734375 C-9.73683594 20.82519531 -10.26664063 21.37304688 -10.8125 21.9375 C-11.33457031 22.48277344 -11.85664062 23.02804688 -12.39453125 23.58984375 C-15.78824978 26.57070114 -19.5774019 26.16478542 -23.875 26.1875 C-25.08929688 26.20167969 -26.30359375 26.21585938 -27.5546875 26.23046875 C-30.84344421 26.01047255 -33.05365948 25.41715618 -36 24 C-35.67 24.763125 -35.34 25.52625 -35 26.3125 C-34 29 -34 29 -34 32 C-36.25 34.75 -36.25 34.75 -39 37 C-41.3125 36.8125 -41.3125 36.8125 -43 36 C-41.02 35.505 -41.02 35.505 -39 35 C-39 34.01 -39 33.02 -39 32 C-41.97 31.67 -44.94 31.34 -48 31 C-48.33 30.01 -48.66 29.02 -49 28 C-45.31733897 28.59950296 -41.65456815 29.24758891 -38 30 C-39.16037766 22.91369345 -39.16037766 22.91369345 -43 17 C-42.34 17 -41.68 17 -41 17 C-42.57298065 13.44009643 -43.90990754 11.08599734 -46.75 8.375 C-47.86375 7.199375 -47.86375 7.199375 -49 6 C-48.8125 3.6875 -48.8125 3.6875 -48 2 C-43.27665892 2.28340046 -39.99331283 3.01279641 -36.421875 6.2578125 C-33.56761104 9.75506999 -31.80367353 13.88985899 -30 18 C-24.45084776 18.33974401 -21.01828351 17.28103796 -16 15 C-14.453125 14.938125 -14.453125 14.938125 -12.875 14.875 C-9.92025922 14.30001876 -9.92025922 14.30001876 -8.69140625 12.1171875 C-7.84776703 10.5245228 -7.02901884 8.91844906 -6.234375 7.30078125 C-4.58219969 4.22125195 -2.60015504 2.30299446 0 0 Z " fill="#D4D4D4" transform="translate(85,56)"/>
<path d="M0 0 C0.28875 0.61875 0.5775 1.2375 0.875 1.875 C1.93720042 4.13325765 1.93720042 4.13325765 4 6 C4 6.99 4 7.98 4 9 C5.0725 8.525625 6.145 8.05125 7.25 7.5625 C9.80839865 6.46233668 12.25835017 5.54832997 15 5 C15.66 6.65 16.32 8.3 17 10 C17.99 9.67 18.98 9.34 20 9 C21.71567661 5.49705129 21.71567661 5.49705129 23 2 C23.95465783 4.16967689 24.14401212 5.56328793 23.3984375 7.82421875 C22.64129615 9.5684743 21.82390802 11.28627131 21 13 C18.36 13 15.72 13 13 13 C12.773125 13.680625 12.54625 14.36125 12.3125 15.0625 C11.17297175 17.61287274 10.15292033 19.1230771 8.4375 21.25 C5.80069838 24.76831301 5.34939663 27.75001987 5.140625 32.08203125 C5 34 5 34 4 36 C2.35 35.67 0.7 35.34 -1 35 C-2.54799337 30.35601989 -2.49594333 25.67482292 -1 21 C-4.73639216 22.24546405 -5.18756513 23.63404953 -7 27 C-6.34 27.886875 -5.68 28.77375 -5 29.6875 C-3.01139933 32.98111986 -2.56264926 34.28251873 -3 38 C-3.61875 38.0825 -4.2375 38.165 -4.875 38.25 C-7.18437567 38.81258459 -7.18437567 38.81258459 -8.25 41.0625 C-8.4975 41.701875 -8.745 42.34125 -9 43 C-11.65746418 39.01380373 -12.08480455 35.75612172 -12 31 C-11.24622923 27.24564175 -10.20217508 23.63369304 -9 20 C-7.68 20.33 -6.36 20.66 -5 21 C-4.7496423 17.62535976 -4.7496423 17.62535976 -5 14 C-5.515625 13.525625 -6.03125 13.05125 -6.5625 12.5625 C-8 11 -8 11 -8.22265625 9.15234375 C-8.11803739 6.84654409 -7.9011248 5.13073843 -7 3 C-4.6978328 1.32969253 -2.78561071 0.81035948 0 0 Z " fill="#828181" transform="translate(16,36)"/>
<path d="M0 0 C0.763125 0.061875 1.52625 0.12375 2.3125 0.1875 C2.6425 1.1775 2.9725 2.1675 3.3125 3.1875 C6.82440809 4.41719878 6.82440809 4.41719878 10.3125 5.1875 C11.3125 9.9375 11.3125 9.9375 11.3125 12.1875 C12.6325 12.1875 13.9525 12.1875 15.3125 12.1875 C14.72571669 15.70819985 13.95600079 17.90049843 12.3125 21.1875 C9.3425 20.1975 6.3725 19.2075 3.3125 18.1875 C3.3125 20.1675 3.3125 22.1475 3.3125 24.1875 C-0.14281344 25.33927115 -1.3322512 25.57870072 -4.6875 24.1875 C-7.27500084 20.54550395 -8.56936229 16.70224288 -9.5625 12.375 C-10.38804054 8.90983256 -10.38804054 8.90983256 -13.75 7.5 C-14.719375 7.066875 -15.68875 6.63375 -16.6875 6.1875 C-17.5625 4 -17.5625 4 -17.6875 2.1875 C-16.635625 2.538125 -15.58375 2.88875 -14.5 3.25 C-10.85087356 4.14732617 -9.15618134 4.44007937 -5.6875 3.1875 C-5.1925 2.671875 -4.6975 2.15625 -4.1875 1.625 C-2.6875 0.1875 -2.6875 0.1875 0 0 Z " fill="#4D4C4C" transform="translate(91.6875,20.8125)"/>
<path d="M0 0 C0.99 0 1.98 0 3 0 C3.94631376 2.55504715 4.1555969 3.63694056 3.0625 6.1875 C1.57179733 10.13347767 1.83641315 13.82853532 2 18 C5.465 17.505 5.465 17.505 9 17 C9.103125 16.401875 9.20625 15.80375 9.3125 15.1875 C10.1032679 12.67142032 11.08428637 11.76245654 13 10 C13.66 9.01 14.32 8.02 15 7 C15.66 7 16.32 7 17 7 C17.35627516 12.07692109 17.38217031 15.99500798 14.53125 20.46484375 C10.62900238 24.37704608 4.66665391 25.52381317 -0.5 27 C-3.14787978 27.77989986 -3.14787978 27.77989986 -4.375 30.125 C-4.58125 30.74375 -4.7875 31.3625 -5 32 C-5.66 32 -6.32 32 -7 32 C-7.33 32.99 -7.66 33.98 -8 35 C-8.66 35 -9.32 35 -10 35 C-10 36.98 -10 38.96 -10 41 C-11.485 41.495 -11.485 41.495 -13 42 C-13.99 41.01 -14.98 40.02 -16 39 C-15.34 37.68 -14.68 36.36 -14 35 C-13.34 35 -12.68 35 -12 35 C-11.34 31.7 -10.68 28.4 -10 25 C-9.34 25 -8.68 25 -8 25 C-8.15339844 24.34773438 -8.30679688 23.69546875 -8.46484375 23.0234375 C-8.9650139 20.22083121 -9.2609688 17.84070957 -9 15 C-7.39421642 13.10577809 -5.69239978 11.92167168 -3.65625 10.51171875 C-1.57277272 8.61005434 -1.3994812 7.45681924 -1.125 4.6875 C-1.063125 2.8621875 -1.063125 2.8621875 -1 1 C-0.67 0.67 -0.34 0.34 0 0 Z " fill="#4C4B4B" transform="translate(90,50)"/>
<path d="M0 0 C0.66 0.66 1.32 1.32 2 2 C0.68 2.33 -0.64 2.66 -2 3 C-1.505 3.99 -1.505 3.99 -1 5 C-0.95977609 7.3329866 -0.95679753 9.66706666 -1 12 C-0.34 12 0.32 12 1 12 C1 12.66 1 13.32 1 14 C1.556875 14.226875 2.11375 14.45375 2.6875 14.6875 C5.70208759 16.39848215 7.74774829 18.372373 10 21 C10 22.32 10 23.64 10 25 C5.58232082 24.5983928 3.10545431 22.7980018 -0.296875 20.1796875 C-2.06173027 18.82570847 -2.06173027 18.82570847 -4.75 18.1875 C-8.00772856 16.46814326 -8.42539882 14.07693846 -9.51953125 10.6796875 C-9.67808594 10.12539063 -9.83664063 9.57109375 -10 9 C-11.98 9 -13.96 9 -16 9 C-16 9.66 -16 10.32 -16 11 C-20.47058824 15 -20.47058824 15 -23 15 C-23.12375 15.639375 -23.2475 16.27875 -23.375 16.9375 C-23.58125 17.618125 -23.7875 18.29875 -24 19 C-24.66 19.33 -25.32 19.66 -26 20 C-26 21.98 -26 23.96 -26 26 C-25.34 26.33 -24.68 26.66 -24 27 C-24 27.66 -24 28.32 -24 29 C-19.38 29 -14.76 29 -10 29 C-10.33 30.32 -10.66 31.64 -11 33 C-18.16170056 36.58085028 -27.88695204 33.31139663 -35 31 C-34.3709375 30.76925781 -33.741875 30.53851563 -33.09375 30.30078125 C-30.81828276 29.17018647 -30.81828276 29.17018647 -30.09375 26.79296875 C-29.8978125 25.93316406 -29.701875 25.07335937 -29.5 24.1875 C-27.9838417 17.59420635 -24.33338907 14.02829119 -19.0625 10 C-16.26235391 7.82073799 -13.56961971 5.69908555 -11.125 3.125 C-7.40437103 -0.59562897 -5.12738513 -1.61917425 0 0 Z " fill="#7A7979" transform="translate(68,19)"/>
<path d="M0 0 C2.5625 -0.4375 2.5625 -0.4375 6 0 C9.21462533 2.48937449 12.1706848 5.34136959 14 9 C14.04022391 11.3329866 14.04320247 13.66706666 14 16 C6.57142857 15 6.57142857 15 3 14 C3.33 14.66 3.66 15.32 4 16 C6.09508223 16.39085466 6.09508223 16.39085466 8.5 16.5 C10.96875 16.65625 10.96875 16.65625 13 17 C13.33 17.66 13.66 18.32 14 19 C11.87380903 21.33881007 10.00223508 22.94038762 7 24 C3.65022937 23.68097423 2.40820361 23.40820361 0 21 C-0.1953125 18.8359375 -0.1953125 18.8359375 -0.125 16.375 C-0.10695313 15.55773437 -0.08890625 14.74046875 -0.0703125 13.8984375 C-0.04710937 13.27195312 -0.02390625 12.64546875 0 12 C-1.32 11.67 -2.64 11.34 -4 11 C-4.33 9.68 -4.66 8.36 -5 7 C-4.0409375 6.6596875 -4.0409375 6.6596875 -3.0625 6.3125 C-0.72806339 5.14749104 -0.72806339 5.14749104 -0.25 2.375 C-0.1675 1.59125 -0.085 0.8075 0 0 Z " fill="#A09F9F" transform="translate(33,70)"/>
<path d="M0 0 C2.91517292 1.07401108 4.77810176 1.77810176 7 4 C6.67 4.33 6.34 4.66 6 5 C5.51907058 9.05288517 5.51907058 9.05288517 6 13 C8.85251385 15.17946646 8.85251385 15.17946646 12 17 C13.375 20.25 13.375 20.25 14 23 C12.1875 22.75 12.1875 22.75 10 22 C9.566875 21.319375 9.13375 20.63875 8.6875 19.9375 C8.130625 19.298125 7.57375 18.65875 7 18 C3.37436186 17.66619186 3.37436186 17.66619186 0 18 C0 19.65 0 21.3 0 23 C-4.75 21.125 -4.75 21.125 -7 20 C-7.97784724 16.83637659 -8.41209715 15.20809808 -8 12 C-6.01914313 8.37107021 -3.56074143 5.233988 -1 2 C-0.67 1.34 -0.34 0.68 0 0 Z " fill="#FAFAFA" transform="translate(30,50)"/>
<path d="M0 0 C1.72095302 1.44321996 3.42958934 2.89786392 5.125 4.37109375 C6.63193046 5.68023958 8.15691989 6.96858409 9.6875 8.25 C12.83972541 11.99859238 14.98921054 16.18112003 16 21 C15.34 22.32 14.68 23.64 14 25 C9.05 25 4.1 25 -1 25 C-0.67 26.32 -0.34 27.64 0 29 C2.64 29.33 5.28 29.66 8 30 C5.40651442 31.59599112 4.10329821 32.00430409 1 31.875 C-2.12726923 31.68841728 -2.12726923 31.68841728 -4.25 34 C-4.8275 34.66 -5.405 35.32 -6 36 C-6.66 36 -7.32 36 -8 36 C-7.70351563 35.42636719 -7.40703125 34.85273437 -7.1015625 34.26171875 C-5.98305044 32.05570956 -5.98305044 32.05570956 -5.2109375 29.89453125 C-4.31859422 27.6720127 -3.49036679 25.88234188 -2 24 C0.83761724 22.97258686 2.92439196 23 6 23 C6 22.34 6 21.68 6 21 C6.99 20.67 7.98 20.34 9 20 C7.51836329 15.55508988 4.30356843 12.99482854 0.625 10.1875 C-1.31495471 7.5760225 -1.13467416 6.87685142 -0.75 3.75 C-0.5025 2.5125 -0.255 1.275 0 0 Z " fill="#F2F2F2" transform="translate(69,23)"/>
<path d="M0 0 C0 0.99 0 1.98 0 3 C-2.31 3.66 -4.62 4.32 -7 5 C-8.2019586 11.22833095 -7.93161919 14.37129115 -5 20 C-6.32 20.33 -7.64 20.66 -9 21 C-11.61932015 33.53098352 -11.61932015 33.53098352 -10 46 C-6.535 45.505 -6.535 45.505 -3 45 C-0.47142822 47.96832339 0.42445229 50.16301525 1 54 C1.32483418 55.33542939 1.6550855 56.66961551 2 58 C5.465 58.495 5.465 58.495 9 59 C8.54535049 55.81745345 7.97447508 52.92492672 6.9375 49.875 C6 47 6 47 6 43 C9.24208567 43.35049575 10.61527704 43.56221181 12.8125 46.0625 C13.204375 46.701875 13.59625 47.34125 14 48 C11.83125748 47.49396008 10.00032373 47.00016187 8 46 C8.495 47.19625 8.99 48.3925 9.5 49.625 C10.85911235 53.21101476 11.2899464 56.13404799 11 60 C7.71357602 61.06325482 6.22916281 61.08418226 2.9375 59.875 C-0.17439698 57.88868278 -1.84732703 55.9692041 -4 53 C-5.76142417 51.00882485 -7.16972619 49.90240744 -9.5 48.5625 C-12.1689236 46.89442275 -13.50196785 45.75953291 -15 43 C-15.34098148 39.79477411 -15.28722965 37.66457056 -14.00390625 34.6953125 C-12.52531539 30.72555494 -12.6530298 26.84578041 -12.5390625 22.64453125 C-12 20 -12 20 -9.9609375 18.63671875 C-8.99027344 18.32154297 -8.99027344 18.32154297 -8 18 C-8.32484375 17.43410156 -8.6496875 16.86820313 -8.984375 16.28515625 C-10.08918097 13.79934281 -10.26829435 12.14048953 -10.25 9.4375 C-10.25515625 8.67308594 -10.2603125 7.90867187 -10.265625 7.12109375 C-10 5 -10 5 -8 2 C-5.67843403 1.59270772 -3.3431213 1.25561323 -1 1 C-0.67 0.67 -0.34 0.34 0 0 Z " fill="#D4D4D4" transform="translate(15,33)"/>
<path d="M0 0 C4.61766091 4.49614352 7.16478351 7.16776641 7.625 13.6875 C7.69976562 14.68136719 7.77453125 15.67523438 7.8515625 16.69921875 C7.90054688 17.45847656 7.94953125 18.21773437 8 19 C6.68 18.34 5.36 17.68 4 17 C3.34 18.32 2.68 19.64 2 21 C1.01 20.67 0.02 20.34 -1 20 C-1.061875 18.8553125 -1.061875 18.8553125 -1.125 17.6875 C-1.77823609 14.67594887 -1.77823609 14.67594887 -5.0625 13.1875 C-6.031875 12.795625 -7.00125 12.40375 -8 12 C-8 11.01 -8 10.02 -8 9 C-10.64 9 -13.28 9 -16 9 C-6.38461538 4 -6.38461538 4 -3 4 C-2.67 3.01 -2.34 2.02 -2 1 C-1.34 0.67 -0.68 0.34 0 0 Z " fill="#A8A7A7" transform="translate(105,11)"/>
<path d="M0 0 C0.66 0 1.32 0 2 0 C2.35627516 5.07692109 2.38217031 8.99500798 -0.46875 13.46484375 C-4.37640974 17.38247201 -10.34996934 18.49909784 -15.5 20.0625 C-18.31582211 20.84073639 -18.31582211 20.84073639 -20 24 C-19.50168276 20.31245243 -18.89932357 18.39509338 -16 16 C-16.391875 15.484375 -16.78375 14.96875 -17.1875 14.4375 C-18 12 -18 12 -16.625 8.25 C-16.08875 7.1775 -15.5525 6.105 -15 5 C-14.67 5 -14.34 5 -14 5 C-13.67 6.98 -13.34 8.96 -13 11 C-9.535 10.505 -9.535 10.505 -6 10 C-5.8453125 9.1028125 -5.8453125 9.1028125 -5.6875 8.1875 C-4.8967321 5.67142032 -3.91571363 4.76245654 -2 3 C-1.34 2.01 -0.68 1.02 0 0 Z " fill="#7E7D7D" transform="translate(105,57)"/>
<path d="M0 0 C4.68197624 0.28091857 8.09580909 0.99414265 11.66015625 4.19921875 C13.96818343 7.30126112 14.89797272 10.8885802 15.9453125 14.57421875 C16.79307786 17.14755334 16.79307786 17.14755334 19.1171875 18.33203125 C19.73851563 18.55246094 20.35984375 18.77289063 21 19 C21 19.66 21 20.32 21 21 C14.64285714 20.51098901 14.64285714 20.51098901 11.5625 18.0625 C10 16 10 16 10 14 C9.34 14 8.68 14 8 14 C6.34375 12.3203125 6.34375 12.3203125 4.5 10.125 C2.71066742 8.00964496 0.95980876 5.95980876 -1 4 C-0.625 1.875 -0.625 1.875 0 0 Z " fill="#949393" transform="translate(37,58)"/>
<path d="M0 0 C1.29357422 -0.01611328 2.58714844 -0.03222656 3.91992188 -0.04882812 C10.8440764 -0.05236989 16.47458911 0.11445373 22.6875 3.3125 C24.25 5.8125 24.25 5.8125 24.6875 8.3125 C24.3575 9.3025 24.0275 10.2925 23.6875 11.3125 C23.0996875 9.889375 23.0996875 9.889375 22.5 8.4375 C20.37981756 4.78201304 19.63627806 4.45665929 15.6875 3.3125 C12.25319135 3.00619117 12.25319135 3.00619117 8.5234375 3.046875 C7.51260605 3.04400482 7.51260605 3.04400482 6.48135376 3.04107666 C5.06438826 3.03972171 3.64741007 3.04336973 2.23046875 3.05175781 C0.06221764 3.0625014 -2.10521136 3.05182255 -4.2734375 3.0390625 C-5.65364766 3.04038356 -7.03385731 3.04294485 -8.4140625 3.046875 C-9.66525879 3.04913086 -10.91645508 3.05138672 -12.20556641 3.05371094 C-15.47900522 3.07414996 -15.47900522 3.07414996 -18.3125 5.3125 C-18.168125 5.869375 -18.02375 6.42625 -17.875 7 C-17.28480872 9.42634195 -16.789071 11.86156345 -16.3125 14.3125 C-17.3025 14.6425 -18.2925 14.9725 -19.3125 15.3125 C-19.3125 15.9725 -19.3125 16.6325 -19.3125 17.3125 C-19.9725 17.3125 -20.6325 17.3125 -21.3125 17.3125 C-21.498125 17.9725 -21.68375 18.6325 -21.875 19.3125 C-23.94183375 23.62589218 -27.07787811 26.82706519 -30.3125 30.3125 C-30.6425 29.3225 -30.9725 28.3325 -31.3125 27.3125 C-30.57 26.8175 -29.8275 26.3225 -29.0625 25.8125 C-26.03801986 23.0629726 -24.81389281 20.70505628 -23.20703125 17.01953125 C-22.3125 15.3125 -22.3125 15.3125 -20.3125 14.3125 C-20.51875 13.075 -20.725 11.8375 -20.9375 10.5625 C-21.24350431 8.01546413 -21.3460216 6.43988208 -20.6875 3.9375 C-15.92514642 -1.69073605 -6.58466748 -0.01625844 0 0 Z " fill="#949393" transform="translate(48.3125,4.6875)"/>
<path d="M0 0 C0.99 0.33 1.98 0.66 3 1 C-1.75 5 -1.75 5 -4 5 C-4.12375 5.639375 -4.2475 6.27875 -4.375 6.9375 C-4.58125 7.618125 -4.7875 8.29875 -5 9 C-5.99 9.495 -5.99 9.495 -7 10 C-7 11.98 -7 13.96 -7 16 C-6.34 16.33 -5.68 16.66 -5 17 C-5 17.66 -5 18.32 -5 19 C-0.38 19 4.24 19 9 19 C8.67 20.32 8.34 21.64 8 23 C0.83829944 26.58085028 -8.88695204 23.31139663 -16 21 C-15.3709375 20.76925781 -14.741875 20.53851563 -14.09375 20.30078125 C-11.81828276 19.17018647 -11.81828276 19.17018647 -11.09375 16.79296875 C-10.8978125 15.93316406 -10.701875 15.07335937 -10.5 14.1875 C-8.76191144 7.6930293 -5.63223505 3.75482337 0 0 Z " fill="#B2B1B1" transform="translate(49,29)"/>
<path d="M0 0 C0.66 0.99 1.32 1.98 2 3 C2.99 3.66 3.98 4.32 5 5 C3.71454519 14.70806171 3.71454519 14.70806171 0.375 18.3125 C-2.21687536 20.74686725 -2.21687536 20.74686725 -2.375 23.6875 C-2.03910665 26.14983559 -2.03910665 26.14983559 -1 29 C-1.33 29.66 -1.66 30.32 -2 31 C-2.66 31 -3.32 31 -4 31 C-6.0876786 27.86848209 -6.35878296 26.66789174 -5.7578125 23.03125 C-4.45384146 19.53606989 -1.96263312 16.96035966 0.50390625 14.2109375 C2.27995489 11.58628077 2.29961195 10.1050693 2 7 C1.443125 7.144375 0.88625 7.28875 0.3125 7.4375 C-4.94136317 8.71546672 -9.59708529 9.19646963 -15 9 C-15.495 6.525 -15.495 6.525 -16 4 C-11.05 3.67 -6.1 3.34 -1 3 C-0.67 2.01 -0.34 1.02 0 0 Z " fill="#A8A7A7" transform="translate(84,44)"/>
<path d="M0 0 C5.27315333 0.4452885 10.01770224 1.08373163 15 3 C15 3.33 15 3.66 15 4 C13.35 4.33 11.7 4.66 10 5 C10.66 6.32 11.32 7.64 12 9 C10.68 9.33 9.36 9.66 8 10 C8.50603992 12.16874252 8.99983813 13.99967627 10 16 C8.68 15.34 7.36 14.68 6 14 C6 10.66666667 6 7.33333333 6 4 C3.53673288 2.3553326 3.53673288 2.3553326 1 1 C0.773125 1.680625 0.54625 2.36125 0.3125 3.0625 C-0.83784726 5.63708673 -1.88692495 7.16575574 -3.625 9.3125 C-6.59238279 13.26320905 -6.42378103 16.16889626 -6 21 C-5.21625 21.309375 -4.4325 21.61875 -3.625 21.9375 C-1 23 -1 23 1 24 C0.7215625 22.7934375 0.7215625 22.7934375 0.4375 21.5625 C0.293125 20.716875 0.14875 19.87125 0 19 C1 18 1 18 4.5625 17.9375 C5.696875 17.958125 6.83125 17.97875 8 18 C8.33 18.66 8.66 19.32 9 20 C6.69 20 4.38 20 2 20 C2.33 21.65 2.66 23.3 3 25 C1.375 25.75 1.375 25.75 -1 26 C-6.712 22.864 -6.712 22.864 -8 19 C-8.87557934 13.63707654 -7.59057497 10.97262859 -4.5625 6.6875 C-3.37694417 5.12352433 -2.18981372 3.56073886 -1 2 C-0.67 1.34 -0.34 0.68 0 0 Z " fill="#D4D4D4" transform="translate(29,49)"/>
<path d="M0 0 C1.9375 0.9375 1.9375 0.9375 3.125 2.9375 C4.19968993 6.9055859 4.59895304 10.84820912 4.9375 14.9375 C3.9475 15.5975 2.9575 16.2575 1.9375 16.9375 C-1.65193664 15.74102112 -2.87123184 15.03549981 -5.0625 11.9375 C-5.5649175 8.55710398 -5.71286624 5.30065514 -5.0625 1.9375 C-2.0625 -0.0625 -2.0625 -0.0625 0 0 Z " fill="#131313" transform="translate(89.0625,27.0625)"/>
<path d="M0 0 C0.66 0 1.32 0 2 0 C1.979375 1.11375 1.95875 2.2275 1.9375 3.375 C1.73619282 6.83215921 1.73619282 6.83215921 3 9 C3.76457906 14.74886025 3.84306022 19.62715054 0.4375 24.5 C-2.66534922 28.09548168 -5.5121784 29.56051005 -10 31 C-10.99 31.33 -11.98 31.66 -13 32 C-14.99961564 32.03920815 -17.00049364 32.04443347 -19 32 C-18 30 -18 30 -15.41796875 29 C-14.35191406 28.67 -13.28585938 28.34 -12.1875 28 C-5.23672801 26.13476221 -5.23672801 26.13476221 -0.3125 21.375 C1.21050306 17.45870642 1.64012151 14.17459046 2 10 C1.5875 10.4125 1.175 10.825 0.75 11.25 C-0.51045971 12.51045971 -1.78280004 13.75907882 -3.0625 15 C-5.16068604 17.04545638 -5.16068604 17.04545638 -7 20 C-7 17.69 -7 15.38 -7 13 C-5.68 13.33 -4.36 13.66 -3 14 C-2.649375 12.741875 -2.29875 11.48375 -1.9375 10.1875 C-1.74027344 9.47980469 -1.54304688 8.77210937 -1.33984375 8.04296875 C-0.80436183 5.80755841 -0.80436183 5.80755841 -2 3 C-1.34 2.01 -0.68 1.02 0 0 Z " fill="#7E7D7D" transform="translate(105,47)"/>
<path d="M0 0 C0.33 0.99 0.66 1.98 1 3 C-0.7015625 3.495 -0.7015625 3.495 -2.4375 4 C-4.82203766 5.0060524 -5.7716427 5.46004184 -6.79296875 7.875 C-7.1277192 10.01740289 -7.26402307 11.84684631 -7 14 C-6.0206121 15.02019573 -5.02104551 16.02149805 -4 17 C-4.3125 20.6875 -4.3125 20.6875 -5 24 C-6.32 23.67 -7.64 23.34 -9 23 C-9.2165625 24.5778125 -9.2165625 24.5778125 -9.4375 26.1875 C-10 30 -10 30 -10.625 32.4375 C-11.16226782 36.10883012 -10.55889025 39.33616389 -10 43 C-10.99 43 -11.98 43 -13 43 C-13.2895357 35.72943686 -13.33316223 27.95546477 -11 21 C-8.921875 19.65625 -8.921875 19.65625 -7 19 C-7.515625 18.175 -8.03125 17.35 -8.5625 16.5 C-10.43061794 11.95153894 -10.03207465 9.76342147 -9 5 C-7 3 -7 3 -3.9375 2.5 C-2.4834375 2.2525 -2.4834375 2.2525 -1 2 C-0.67 1.34 -0.34 0.68 0 0 Z " fill="#A7A6A6" transform="translate(16,33)"/>
<path d="M0 0 C0.680625 0.78375 1.36125 1.5675 2.0625 2.375 C5.51308916 5.45850521 7.56566662 6.04357515 12 7 C12 6.34 12 5.68 12 5 C9.525 4.01 9.525 4.01 7 3 C7.33 2.34 7.66 1.68 8 1 C8.99 1.66 9.98 2.32 11 3 C15.87779514 3.36813548 19.43353231 2.62363296 24 1 C25.32 1 26.64 1 28 1 C27.43101427 4.30011724 26.68323167 5.960968 24 8 C16.5942 9.58967686 9.37790166 9.85917569 2.578125 6.2578125 C1 5 1 5 -0.0625 2.25 C-0.041875 1.5075 -0.02125 0.765 0 0 Z " fill="#A8A7A7" transform="translate(46,72)"/>
<path d="M0 0 C2.83888125 3.2091701 4 5.68021576 4 10 C2.59947235 12.56849535 0.89801355 14.78017792 -1 17 C-1.268125 16.401875 -1.53625 15.80375 -1.8125 15.1875 C-2.83363765 12.93931989 -2.83363765 12.93931989 -4.6875 11.75 C-6.3837218 9.48837093 -6.0356895 8.56416423 -5.6875 5.8125 C-5.460625 4.554375 -5.23375 3.29625 -5 2 C-3.35 1.34 -1.7 0.68 0 0 Z " fill="#7E7D7D" transform="translate(14,37)"/>
<path d="M0 0 C2.05638712 1.77597069 2.94725185 2.82637069 3.75 5.46875 C4.7999923 8.22052723 4.7999923 8.22052723 7.6015625 9.36328125 C8.59929688 9.67652344 9.59703125 9.98976563 10.625 10.3125 C11.62789062 10.63863281 12.63078125 10.96476562 13.6640625 11.30078125 C14.43492188 11.53152344 15.20578125 11.76226562 16 12 C16 12.33 16 12.66 16 13 C8.25 12.125 8.25 12.125 6 11 C6.33 11.763125 6.66 12.52625 7 13.3125 C8 16 8 16 8 19 C5.75 21.75 5.75 21.75 3 24 C0.6875 23.8125 0.6875 23.8125 -1 23 C0.32 22.67 1.64 22.34 3 22 C3 21.01 3 20.02 3 19 C0.03 18.67 -2.94 18.34 -6 18 C-6.33 17.01 -6.66 16.02 -7 15 C-3.31733897 15.59950296 0.34543185 16.24758891 4 17 C2.83962234 9.91369345 2.83962234 9.91369345 -1 4 C-0.34 4 0.32 4 1 4 C0.67 2.68 0.34 1.36 0 0 Z " fill="#D4D4D4" transform="translate(43,69)"/>
<path d="M0 0 C0.66 0.33 1.32 0.66 2 1 C2.4140625 3.06640625 2.4140625 3.06640625 2.625 5.5625 C2.69976562 6.38878906 2.77453125 7.21507812 2.8515625 8.06640625 C2.90054688 8.70449219 2.94953125 9.34257812 3 10 C2.43152344 9.88140625 1.86304687 9.7628125 1.27734375 9.640625 C-3.8787863 8.77983534 -7.05537719 8.81823678 -11.4453125 11.76171875 C-13.83876119 13.66805854 -15.92138206 15.75728065 -18 18 C-19.62836738 19.7041054 -21.28769752 21.38025441 -23 23 C-23.66 23 -24.32 23 -25 23 C-25.28875 23.639375 -25.5775 24.27875 -25.875 24.9375 C-27 27 -27 27 -29 28 C-27.43873668 24.16780823 -24.97133075 21.82638778 -22 19 C-21.443125 18.401875 -20.88625 17.80375 -20.3125 17.1875 C-19 16 -19 16 -17 16 C-17 14.02 -17 12.04 -17 10 C-7.81614523 5.10042487 -7.81614523 5.10042487 -4 5 C-0.6875 6.4375 -0.6875 6.4375 2 8 C1.34 5.36 0.68 2.72 0 0 Z " fill="#4F4E4E" transform="translate(69,10)"/>
<path d="M0 0 C0.28875 0.61875 0.5775 1.2375 0.875 1.875 C1.93720042 4.13325765 1.93720042 4.13325765 4 6 C4 6.99 4 7.98 4 9 C5.60875 8.2884375 5.60875 8.2884375 7.25 7.5625 C9.80839865 6.46233668 12.25835017 5.54832997 15 5 C15.66 6.98 16.32 8.96 17 11 C16.34 11 15.68 11 15 11 C14.67 10.34 14.34 9.68 14 9 C13.01 9 12.02 9 11 9 C11 10.65 11 12.3 11 14 C10.01 14.33 9.02 14.66 8 15 C8 14.01 8 13.02 8 12 C4.813661 12.813661 4.813661 12.813661 2.5 15.5 C-0 18 -0 18 -3 19 C-2.54226569 16.43668789 -2.10665744 15.12306628 -0.375 13.125 C1.30759929 10.99914556 1.30759929 10.99914556 0.75 8 C0.30635732 6.22542926 -0.14774896 4.45332886 -0.625 2.6875 C-0.74875 2.130625 -0.8725 1.57375 -1 1 C-0.67 0.67 -0.34 0.34 0 0 Z " fill="#4C4B4B" transform="translate(16,36)"/>
<path d="M0 0 C1.21816406 0.03480469 1.21816406 0.03480469 2.4609375 0.0703125 C3.68683594 0.09738281 3.68683594 0.09738281 4.9375 0.125 C5.87722656 0.15980469 5.87722656 0.15980469 6.8359375 0.1953125 C6.8359375 1.1853125 6.8359375 2.1753125 6.8359375 3.1953125 C7.7846875 3.4015625 8.7334375 3.6078125 9.7109375 3.8203125 C12.8359375 5.1953125 12.8359375 5.1953125 14.2109375 8.3203125 C14.4171875 9.2690625 14.6234375 10.2178125 14.8359375 11.1953125 C15.4959375 11.1953125 16.1559375 11.1953125 16.8359375 11.1953125 C17.4959375 9.8753125 18.1559375 8.5553125 18.8359375 7.1953125 C19.8259375 7.5253125 20.8159375 7.8553125 21.8359375 8.1953125 C21.22895007 12.32282699 19.79782959 15.5274273 17.8359375 19.1953125 C17.1759375 19.1953125 16.5159375 19.1953125 15.8359375 19.1953125 C15.5059375 20.5153125 15.1759375 21.8353125 14.8359375 23.1953125 C13.8459375 22.8653125 12.8559375 22.5353125 11.8359375 22.1953125 C12.4959375 21.8653125 13.1559375 21.5353125 13.8359375 21.1953125 C14.73937434 19.31267369 14.73937434 19.31267369 15.4609375 17.1328125 C15.72132812 16.39933594 15.98171875 15.66585937 16.25 14.91015625 C16.44335938 14.34425781 16.63671875 13.77835938 16.8359375 13.1953125 C14.8559375 13.5253125 12.8759375 13.8553125 10.8359375 14.1953125 C11.1659375 11.5553125 11.4959375 8.9153125 11.8359375 6.1953125 C10.7015625 5.9065625 9.5671875 5.6178125 8.3984375 5.3203125 C7.2228125 4.9490625 6.0471875 4.5778125 4.8359375 4.1953125 C4.5059375 3.5353125 4.1759375 2.8753125 3.8359375 2.1953125 C1.50428716 1.86032949 1.50428716 1.86032949 -1.1640625 2.1953125 C-1.8446875 2.8759375 -2.5253125 3.5565625 -3.2265625 4.2578125 C-3.8659375 4.8971875 -4.5053125 5.5365625 -5.1640625 6.1953125 C-7.4140625 5.9453125 -7.4140625 5.9453125 -9.1640625 5.1953125 C-8.3803125 4.7415625 -7.5965625 4.2878125 -6.7890625 3.8203125 C-0.72323025 0.06527349 -0.72323025 0.06527349 0 0 Z " fill="#7E7D7D" transform="translate(90.1640625,19.8046875)"/>
<path d="M0 0 C1.32 0.33 2.64 0.66 4 1 C3.01 1.495 3.01 1.495 2 2 C1.64175227 5.33306429 1.55539231 8.6463745 1.44140625 11.99609375 C1.29574219 12.98738281 1.15007812 13.97867188 1 15 C0.01 15.66 -0.98 16.32 -2 17 C-2 15.02 -2 13.04 -2 11 C-2.99 11.33 -3.98 11.66 -5 12 C-5.020625 13.19625 -5.04125 14.3925 -5.0625 15.625 C-5.49852132 19.45381221 -6.6312659 21.0297261 -9.5625 23.5 C-10.69239945 24.35481326 -11.83345948 25.19590941 -13 26 C-11.95457239 23.80958025 -11.06277815 22.07031153 -9.4375 20.25 C-7.3153975 16.92844826 -7.32564964 13.90779564 -7 10 C-7.99 9.34 -8.98 8.68 -10 8 C-10.1875 4.875 -10.1875 4.875 -10 2 C-9.34 3.32 -8.68 4.64 -8 6 C-5.69 6 -3.38 6 -1 6 C-0.67 4.02 -0.34 2.04 0 0 Z " fill="#737272" transform="translate(95,39)"/>
<path d="M0 0 C0.0515625 0.67546875 0.103125 1.3509375 0.15625 2.046875 C0.70310792 7.41708325 0.70310792 7.41708325 3.84375 11.51953125 C5.87080159 12.50000729 7.86416905 13.292506 10 14 C10.66 14.33 11.32 14.66 12 15 C11.34 14.38125 10.68 13.7625 10 13.125 C8 11 8 11 8 9 C11.82964655 10.56022637 14.32190489 12.87555571 17 16 C17 17.32 17 18.64 17 20 C12.58232082 19.5983928 10.10545431 17.7980018 6.703125 15.1796875 C4.93826973 13.82570847 4.93826973 13.82570847 2.25 13.1875 C-0.52231421 11.72433417 -0.61981565 10.88601899 -1.625 8 C-1.92277344 6.948125 -1.92277344 6.948125 -2.2265625 5.875 C-2.94788259 3.63199406 -2.94788259 3.63199406 -6 2 C-3 0 -3 0 0 0 Z " fill="#A8A7A7" transform="translate(61,24)"/>
<path d="M0 0 C0.97791242 2.64036353 1.03638105 3.87266632 0.25 6.625 C-1 9 -1 9 -4 11 C-4 12.32 -4 13.64 -4 15 C-2.68 15 -1.36 15 0 15 C0.1546875 13.6078125 0.1546875 13.6078125 0.3125 12.1875 C1.00531495 8.97535795 1.3879169 7.88069983 4 6 C4.66 6 5.32 6 6 6 C5.86722656 6.56847656 5.73445313 7.13695313 5.59765625 7.72265625 C4.5115242 12.47151097 3.61687618 17.16780324 3 22 C-5.40783122 17.21008403 -5.40783122 17.21008403 -7.4375 13.0625 C-6.87180009 9.10260065 -5.20584558 7.40591355 -2.4453125 4.61328125 C-0.76247709 2.9499236 -0.76247709 2.9499236 0 0 Z " fill="#848383" transform="translate(79,76)"/>
<path d="M0 0 C0.66 0 1.32 0 2 0 C2.45356243 6.46326465 1.59378942 9.60931587 -2 15 C-4.31 15 -6.62 15 -9 15 C-8.40477663 13.55877387 -7.79842381 12.12214132 -7.1875 10.6875 C-6.68283203 9.48673828 -6.68283203 9.48673828 -6.16796875 8.26171875 C-5.0022508 6.00435857 -3.83563303 4.7200026 -2 3 C-1.34 2.01 -0.68 1.02 0 0 Z " fill="#4E4D4D" transform="translate(105,57)"/>
<path d="M0 0 C1.91015625 0.70703125 1.91015625 0.70703125 4 2 C5.65777806 5.7941615 6.44670173 10.03887043 5.51953125 14.109375 C4.32062493 16.95753824 2.7112902 19.4330647 1 22 C0.72122601 24.14943335 0.72122601 24.14943335 0.8125 26.4375 C0.81894531 27.19933594 0.82539062 27.96117188 0.83203125 28.74609375 C0.9339446 30.97869745 0.9339446 30.97869745 1.50390625 33.0078125 C2.78057665 38.13459915 2.30939012 43.9261133 1 49 C0.67 49 0.34 49 0 49 C-0.06058594 47.94941406 -0.12117188 46.89882813 -0.18359375 45.81640625 C-0.26805759 44.39842727 -0.3527051 42.98045922 -0.4375 41.5625 C-0.4797168 40.8298291 -0.52193359 40.0971582 -0.56542969 39.34228516 C-0.79975921 35.47926886 -1.15063894 31.70168984 -1.75 27.875 C-2.1107109 22.28398107 -0.0056617 19.50849255 3 15 C3.09946009 12.38337913 3.09946009 12.38337913 2.75 9.5625 C2.66234375 8.61503906 2.5746875 7.66757812 2.484375 6.69140625 C2.01769674 4.0983311 1.30840586 2.26826098 0 0 Z " fill="#D4D4D4" transform="translate(109,15)"/>
<path d="M0 0 C0.99 0.33 1.98 0.66 3 1 C3 2.98 3 4.96 3 7 C3.66 7 4.32 7 5 7 C5.66 6.34 6.32 5.68 7 5 C6.67 6.32 6.34 7.64 6 9 C1.05 9 -3.9 9 -9 9 C-8.67 10.32 -8.34 11.64 -8 13 C-5.36 13.33 -2.72 13.66 0 14 C-2.59348558 15.59599112 -3.89670179 16.00430409 -7 15.875 C-10.12726923 15.68841728 -10.12726923 15.68841728 -12.25 18 C-12.8275 18.66 -13.405 19.32 -14 20 C-14.66 20 -15.32 20 -16 20 C-15.70351563 19.42636719 -15.40703125 18.85273437 -15.1015625 18.26171875 C-13.98305044 16.05570956 -13.98305044 16.05570956 -13.2109375 13.89453125 C-12.31859422 11.6720127 -11.49036679 9.88234188 -10 8 C-7.16238276 6.97258686 -5.07560804 7 -2 7 C-2 6.34 -2 5.68 -2 5 C-1.01 4.67 -0.02 4.34 1 4 C0.67 2.68 0.34 1.36 0 0 Z " fill="#D4D4D4" transform="translate(77,39)"/>
<path d="M0 0 C2.68892021 0.28304423 3.81234376 0.81192206 5.73828125 2.7421875 C6.25777344 3.44601563 6.77726562 4.14984375 7.3125 4.875 C8.11107422 5.92300781 8.11107422 5.92300781 8.92578125 6.9921875 C9.28027344 7.65476562 9.63476562 8.31734375 10 9 C9.67 9.99 9.34 10.98 9 12 C5.59319587 11.69029053 3.43958033 11.31233339 0.625 9.3125 C-1.45269651 6.35577804 -1.39334786 4.54013078 -1 1 C-0.67 0.67 -0.34 0.34 0 0 Z " fill="#414040" transform="translate(35,71)"/>
<path d="M0 0 C1.2065625 0.0309375 1.2065625 0.0309375 2.4375 0.0625 C2.4375 2.3725 2.4375 4.6825 2.4375 7.0625 C-1.07026784 8.66605101 -3.70604879 9.28286864 -7.5625 9.0625 C-7.8925 8.0725 -8.2225 7.0825 -8.5625 6.0625 C-2.5625 0.0625 -2.5625 0.0625 0 0 Z " fill="#CAC9C9" transform="translate(52.5625,34.9375)"/>
<path d="M0 0 C1.94921875 1.33203125 1.94921875 1.33203125 2.7421875 3.3203125 C2.87238281 4.08730469 3.00257812 4.85429688 3.13671875 5.64453125 C3.28238281 6.44375 3.42804687 7.24296875 3.578125 8.06640625 C3.70058594 8.8140625 3.82304687 9.56171875 3.94921875 10.33203125 C4.15546875 11.34265625 4.36171875 12.35328125 4.57421875 13.39453125 C4.69796875 14.03390625 4.82171875 14.67328125 4.94921875 15.33203125 C3.62921875 15.00203125 2.30921875 14.67203125 0.94921875 14.33203125 C0.94921875 12.68203125 0.94921875 11.03203125 0.94921875 9.33203125 C0.28921875 9.33203125 -0.37078125 9.33203125 -1.05078125 9.33203125 C-4.05078125 3.70703125 -4.05078125 3.70703125 -4.05078125 0.33203125 C-2.05078125 -0.66796875 -2.05078125 -0.66796875 0 0 Z " fill="#7E7D7D" transform="translate(18.05078125,75.66796875)"/>
<path d="M0 0 C1.89453125 0.8671875 1.89453125 0.8671875 2.6953125 2.609375 C2.86417969 3.31320313 3.03304687 4.01703125 3.20703125 4.7421875 C3.85536077 6.93726718 3.85536077 6.93726718 4.89453125 8.8671875 C8.28615831 10.68981081 8.28615831 10.68981081 11.89453125 11.8671875 C14.33203125 14.0546875 14.33203125 14.0546875 15.89453125 15.8671875 C6.09967741 14.71787891 6.09967741 14.71787891 1.70703125 11.6171875 C-0.410771 8.4039703 -0.54443115 6.64226413 -0.10546875 2.8671875 C-1.75546875 2.5371875 -3.40546875 2.2071875 -5.10546875 1.8671875 C-2.10546875 -0.1328125 -2.10546875 -0.1328125 0 0 Z " fill="#D4D4D4" transform="translate(57.10546875,27.1328125)"/>
<path d="M0 0 C3.97138121 1.32379374 6.43140718 2.66082933 9 6 C10.19191307 8.9492208 11.13687664 11.93983537 12 15 C11.01 15 10.02 15 9 15 C7.96564444 13.35443434 6.97236487 11.6829392 6 10 C5.154375 9.154375 4.30875 8.30875 3.4375 7.4375 C1.29152806 5.29152806 0.1273385 3.76710359 -1 1 C-0.67 0.67 -0.34 0.34 0 0 Z " fill="#313030" transform="translate(40,60)"/>
<path d="M0 0 C2.875 -0.125 2.875 -0.125 6 0 C6.66 0.66 7.32 1.32 8 2 C7.67 2.99 7.34 3.98 7 5 C6.34 4.01 5.68 3.02 5 2 C4.01 2 3.02 2 2 2 C1.67 3.98 1.34 5.96 1 8 C2.32 8.66 3.64 9.32 5 10 C5 10.66 5 11.32 5 12 C5.66 12.33 6.32 12.66 7 13 C2.61110675 12.33501617 -0.9811485 10.81242323 -5 9 C-4.67 8.01 -4.34 7.02 -4 6 C-3.01 5.67 -2.02 5.34 -1 5 C-0.67 3.35 -0.34 1.7 0 0 Z " fill="#807F7F" transform="translate(33,70)"/>
<path d="M0 0 C1.07957377 3.23872132 1.13326784 5.66028205 1.125 9.0625 C1.12757812 10.12597656 1.13015625 11.18945312 1.1328125 12.28515625 C1 15 1 15 0 17 C-4 17 -4 17 -5.921875 15.25 C-6.52515625 14.5075 -7.1284375 13.765 -7.75 13 C-8.36359375 12.2575 -8.9771875 11.515 -9.609375 10.75 C-10.29773438 9.88375 -10.29773438 9.88375 -11 9 C-7.09161134 9 -5.88405893 10.50567876 -3 13 C-2.86722656 12.14535156 -2.73445313 11.29070312 -2.59765625 10.41015625 C-2.42105469 9.30542969 -2.24445313 8.20070313 -2.0625 7.0625 C-1.88847656 5.96035156 -1.71445313 4.85820313 -1.53515625 3.72265625 C-1 1 -1 1 0 0 Z " fill="#D4D4D4" transform="translate(84,84)"/>
<path d="M0 0 C0.66 0 1.32 0 2 0 C1.44601306 5.40137266 -0.28059907 10.31137771 -3 15 C-3.99 15.66 -4.98 16.32 -6 17 C-6.66 16.67 -7.32 16.34 -8 16 C-7.64787252 12.83085269 -6.93922746 11.942344 -4.5625 9.6875 C-1.43573244 6.4082072 -0.93856752 4.35154033 0 0 Z " fill="#131313" transform="translate(90,52)"/>
<path d="M0 0 C-0.25 2.375 -0.25 2.375 -1 5 C-4.31596301 7.31491757 -7.29761565 7.2109214 -11.25 7.125 C-12.32765625 7.10695313 -13.4053125 7.08890625 -14.515625 7.0703125 C-15.33546875 7.04710937 -16.1553125 7.02390625 -17 7 C-17 6.67 -17 6.34 -17 6 C-16.22914062 5.93941406 -15.45828125 5.87882812 -14.6640625 5.81640625 C-13.66117188 5.73261719 -12.65828125 5.64882813 -11.625 5.5625 C-10.62726562 5.48128906 -9.62953125 5.40007813 -8.6015625 5.31640625 C-6.02072387 5.15034374 -6.02072387 5.15034374 -4 4 C-3.67 3.01 -3.34 2.02 -3 1 C-7.62 1 -12.24 1 -17 1 C-17 0.67 -17 0.34 -17 0 C-15.10507254 -0.19644384 -13.20899097 -0.38177288 -11.3125 -0.5625 C-9.72888672 -0.71912109 -9.72888672 -0.71912109 -8.11328125 -0.87890625 C-5.18573914 -0.99277552 -2.82868856 -0.70848415 0 0 Z " fill="#D4D4D4" transform="translate(61,47)"/>
<path d="M0 0 C0.33 0.99 0.66 1.98 1 3 C-0.38315664 5.12588062 -1.99886526 6.94628994 -3.65234375 8.8671875 C-5.30556364 11.48358767 -5.31822402 12.95484094 -5 16 C-4.67 16.99 -4.34 17.98 -4 19 C-4.33 19.66 -4.66 20.32 -5 21 C-5.66 21 -6.32 21 -7 21 C-9.0841778 17.87373329 -9.36554755 16.6741051 -8.75390625 13.04296875 C-7.44155646 9.48670482 -5.00967353 6.79430394 -2.59375 3.91796875 C-0.94769051 2.0851081 -0.94769051 2.0851081 0 0 Z " fill="#939292" transform="translate(87,54)"/>
<path d="M0 0 C0.66 0 1.32 0 2 0 C1.35330586 1.34313399 0.68096422 2.67391178 0 4 C-0.37125 4.825 -0.7425 5.65 -1.125 6.5 C-4.31686067 10.75581423 -9.05802318 12.35267439 -14 14 C-15.99961564 14.03920815 -18.00049364 14.04443347 -20 14 C-19 12 -19 12 -16.41796875 11 C-15.35191406 10.67 -14.28585938 10.34 -13.1875 10 C-5.98149797 8.08823874 -5.98149797 8.08823874 -1.25 2.875 C-0.8375 1.92625 -0.425 0.9775 0 0 Z " fill="#AAA9A9" transform="translate(106,65)"/>
<path d="M0 0 C1.2065625 0.0309375 1.2065625 0.0309375 2.4375 0.0625 C2.7675 1.7125 3.0975 3.3625 3.4375 5.0625 C2.1175 4.0725 0.7975 3.0825 -0.5625 2.0625 C-1.23925781 2.66707031 -1.91601562 3.27164062 -2.61328125 3.89453125 C-5.90606846 6.31505695 -8.8823517 7.4580669 -12.75 8.75 C-17.23973515 10.2052726 -17.23973515 10.2052726 -21.5625 12.0625 C-21.2325 11.0725 -20.9025 10.0825 -20.5625 9.0625 C-18.68845263 8.32626711 -16.80867056 7.60120717 -14.90234375 6.953125 C-10.0880078 5.12062317 -4.92031512 0.12000769 0 0 Z " fill="#D4D4D4" transform="translate(105.5625,9.9375)"/>
<path d="M0 0 C0.99 0.33 1.98 0.66 3 1 C2.39301257 5.12751449 0.96189209 8.3321148 -1 12 C-1.66 12 -2.32 12 -3 12 C-3.33 13.32 -3.66 14.64 -4 16 C-4.99 15.67 -5.98 15.34 -7 15 C-6.34 14.67 -5.68 14.34 -5 14 C-3.81301973 11.48639471 -3.03261563 9.16715511 -2.5 6.4375 C-1.99957071 3.99790722 -1.20381189 2.1668614 0 0 Z " fill="#868585" transform="translate(109,27)"/>
<path d="M0 0 C0.33 0.99 0.66 1.98 1 3 C0.01 3.33 -0.98 3.66 -2 4 C-2 4.66 -2 5.32 -2 6 C-2.66 6 -3.32 6 -4 6 C-4.185625 6.66 -4.37125 7.32 -4.5625 8 C-6.62933375 12.31339218 -9.76537811 15.51456519 -13 19 C-13.33 18.01 -13.66 17.02 -14 16 C-13.2575 15.505 -12.515 15.01 -11.75 14.5 C-8.73890079 11.76263708 -7.60427022 9.50351713 -6.08984375 5.8046875 C-4.72751377 3.54878625 -3.35823086 3.07235447 -1 2 C-0.67 1.34 -0.34 0.68 0 0 Z " fill="#8E8D8D" transform="translate(31,16)"/>
<path d="M0 0 C-0.39999717 2.31998359 -0.90567879 3.86323424 -2.25 5.8125 C-4 7 -4 7 -6.6875 6.6875 C-7.450625 6.460625 -8.21375 6.23375 -9 6 C-9 5.34 -9 4.68 -9 4 C-8.34 4 -7.68 4 -7 4 C-6.67 3.01 -6.34 2.02 -6 1 C-4 0 -4 0 0 0 Z " fill="#9F9E9E" transform="translate(74,73)"/>
<path d="M0 0 C3.96 0 7.92 0 12 0 C11.67 1.32 11.34 2.64 11 4 C8.35541621 5.32229189 6.32238699 5.09677194 3.375 5.0625 C2.37210938 5.05347656 1.36921875 5.04445313 0.3359375 5.03515625 C-0.43492188 5.02355469 -1.20578125 5.01195312 -2 5 C-2 4.67 -2 4.34 -2 4 C3.445 3.505 3.445 3.505 9 3 C9 2.34 9 1.68 9 1 C8.2575 1.20625 7.515 1.4125 6.75 1.625 C4 2 4 2 0 0 Z " fill="#A8A7A7" transform="translate(46,48)"/>
<path d="M0 0 C1.9375 0.75 1.9375 0.75 4 2 C4.75 4.125 4.75 4.125 5 6 C6.32 5.34 7.64 4.68 9 4 C9.45375 4.474375 9.9075 4.94875 10.375 5.4375 C11.93258204 7.09027808 11.93258204 7.09027808 14 8 C14 8.66 14 9.32 14 10 C7.64285714 9.51098901 7.64285714 9.51098901 4.5625 7.0625 C3 5 3 5 3 3 C2.34 3 1.68 3 1 3 C0.67 2.01 0.34 1.02 0 0 Z " fill="#818080" transform="translate(44,69)"/>
<path d="M0 0 C0.66 0 1.32 0 2 0 C2.33 2.97 2.66 5.94 3 9 C1.68 9 0.36 9 -1 9 C-1.625 6.1875 -1.625 6.1875 -2 3 C-1.34 2.01 -0.68 1.02 0 0 Z " fill="#444343" transform="translate(17,60)"/>
<path d="M0 0 C2.8125 0.4375 2.8125 0.4375 6 2 C7.96613891 5.56275526 9.33559405 9.22830526 8.56640625 13.2890625 C8.37949219 13.85367188 8.19257812 14.41828125 8 15 C7.51080078 13.84371094 7.51080078 13.84371094 7.01171875 12.6640625 C6.35623047 11.15972656 6.35623047 11.15972656 5.6875 9.625 C5.25824219 8.62726562 4.82898438 7.62953125 4.38671875 6.6015625 C3.1261594 3.74225492 3.1261594 3.74225492 0 2 C0 1.34 0 0.68 0 0 Z " fill="#908F8F" transform="translate(76,28)"/>
<path d="M0 0 C5 0 5 0 7.8125 2.3125 C10 5 10 5 10 8 C8.35 6.35 6.7 4.7 5 3 C4.34 5.31 3.68 7.62 3 10 C2.67 10 2.34 10 2 10 C1.01 5.05 1.01 5.05 0 0 Z " fill="#A5A4A4" transform="translate(65,21)"/>
<path d="M0 0 C4.875 3.75 4.875 3.75 6 6 C6.04022391 8.3329866 6.04320247 10.66706666 6 13 C3.69 12.67 1.38 12.34 -1 12 C-1 11.67 -1 11.34 -1 11 C0.65 10.67 2.3 10.34 4 10 C4.33 9.01 4.66 8.02 5 7 C4.34 7 3.68 7 3 7 C0.70351351 4.4385343 0 3.52032428 0 0 Z " fill="#A1A0A0" transform="translate(41,73)"/>
<path d="M0 0 C4.18423892 3.50897269 8.19588166 7.08060535 12 11 C11.67 11.99 11.34 12.98 11 14 C10.9175 13.38125 10.835 12.7625 10.75 12.125 C10.20721211 9.88670521 10.20721211 9.88670521 8.3125 8.9375 C7.549375 8.628125 6.78625 8.31875 6 8 C4 7 2 6 0 5 C-0.33 5.99 -0.66 6.98 -1 8 C-0.67 5.36 -0.34 2.72 0 0 Z " fill="#D4D4D4" transform="translate(69,23)"/>
<path d="M0 0 C1 3 1 3 0.22265625 4.82421875 C-0.8515625 6.54947917 -1.92578125 8.27473958 -3 10 C-3.99 9.67 -4.98 9.34 -6 9 C-4.83857315 4.64464931 -3.92300495 2.35380297 0 0 Z " fill="#131313" transform="translate(105,61)"/>
<path d="M0 0 C4 1 4 1 5.375 2.8125 C6 5 6 5 5.125 7.25 C4.75375 7.8275 4.3825 8.405 4 9 C3.01 9 2.02 9 1 9 C0.67 6.03 0.34 3.06 0 0 Z " fill="#D4D4D4" transform="translate(97,42)"/>
<path d="M0 0 C0.66 0 1.32 0 2 0 C1.86722656 0.56847656 1.73445313 1.13695313 1.59765625 1.72265625 C0.5115242 6.47151097 -0.38312382 11.16780324 -1 16 C-2.98 14.68 -4.96 13.36 -7 12 C-5.68 11.67 -4.36 11.34 -3 11 C-2.86722656 10.37351562 -2.73445313 9.74703125 -2.59765625 9.1015625 C-2.33275391 7.87566406 -2.33275391 7.87566406 -2.0625 6.625 C-1.88847656 5.81289062 -1.71445313 5.00078125 -1.53515625 4.1640625 C-1 2 -1 2 0 0 Z " fill="#A4A3A3" transform="translate(83,82)"/>
<path d="M0 0 C0.99 0.33 1.98 0.66 3 1 C4.16796875 3.50390625 4.16796875 3.50390625 5.1875 6.5625 C5.70376953 8.08037109 5.70376953 8.08037109 6.23046875 9.62890625 C6.48441406 10.41136719 6.73835938 11.19382812 7 12 C6.01 12 5.02 12 4 12 C2.95107762 10.36368108 1.95093297 8.69514137 1 7 C0.34 6.67 -0.32 6.34 -1 6 C-0.67 5.34 -0.34 4.68 0 4 C0.66 4.33 1.32 4.66 2 5 C1.34 3.35 0.68 1.7 0 0 Z " fill="#4D4C4C" transform="translate(45,63)"/>
<path d="M0 0 C1.00289062 0.10183594 2.00578125 0.20367187 3.0390625 0.30859375 C3.80992188 0.39238281 4.58078125 0.47617187 5.375 0.5625 C5.375 1.2225 5.375 1.8825 5.375 2.5625 C3.58409747 2.75716332 1.79223495 2.94301213 0 3.125 C-1.49660156 3.28162109 -1.49660156 3.28162109 -3.0234375 3.44140625 C-5.625 3.5625 -5.625 3.5625 -7.625 2.5625 C-7.625 1.9025 -7.625 1.2425 -7.625 0.5625 C-4.89657939 -0.80171031 -3.01546682 -0.31557211 0 0 Z " fill="#7E7D7D" transform="translate(49.625,48.4375)"/>
<path d="M0 0 C2.97 0.33 5.94 0.66 9 1 C7.68 2.32 6.36 3.64 5 5 C3.0625 4.1875 3.0625 4.1875 1 3 C0.67 2.01 0.34 1.02 0 0 Z " fill="#7A7979" transform="translate(34,88)"/>
<path d="M0 0 C1.98 0 3.96 0 6 0 C6.33 0.66 6.66 1.32 7 2 C4.88229834 4.32947183 2.96664412 5.88750845 0 7 C-0.99 6.67 -1.98 6.34 -3 6 C-1.35 5.01 0.3 4.02 2 3 C1.34 2.67 0.68 2.34 0 2 C0 1.34 0 0.68 0 0 Z " fill="#A8A7A7" transform="translate(40,87)"/>
<path d="M0 0 C2.125 0.9375 2.125 0.9375 4 2 C3.67 3.65 3.34 5.3 3 7 C0.5 5.6875 0.5 5.6875 -2 4 C-2 3.01 -2 2.02 -2 1 C-1.34 0.67 -0.68 0.34 0 0 Z " fill="#6C6B6B" transform="translate(16,75)"/>
<path d="M0 0 C0.66 0 1.32 0 2 0 C2 2.97 2 5.94 2 9 C0.68 8.67 -0.64 8.34 -2 8 C-1.125 1.125 -1.125 1.125 0 0 Z " fill="#D4D4D4" transform="translate(94,57)"/>
<path d="M0 0 C0.95465783 2.16967689 1.14401212 3.56328793 0.3984375 5.82421875 C-0.35870385 7.5684743 -1.17609198 9.28627131 -2 11 C-3.32 11 -4.64 11 -6 11 C-6 10.34 -6 9.68 -6 9 C-5.01 8.34 -4.02 7.68 -3 7 C-1.92863949 4.69855891 -0.92010283 2.3659787 0 0 Z " fill="#656464" transform="translate(39,38)"/>
<path d="M0 0 C0.95412881 2.57614778 1.01981848 3.91676239 0.375 6.625 C-1.35502688 9.61322825 -2.83058884 9.86226266 -6 11 C-6.33 11.99 -6.66 12.98 -7 14 C-6.55239601 8.92715484 -4.22802538 6.71222918 -1 3 C-0.67 2.01 -0.34 1.02 0 0 Z " fill="#989797" transform="translate(79,76)"/>
<path d="M0 0 C0.66 0.33 1.32 0.66 2 1 C-2.82029598 5.82029598 -2.82029598 5.82029598 -6.1796875 6.33203125 C-8.1228691 6.31474316 -10.06392229 6.16690325 -12 6 C-12 5.34 -12 4.68 -12 4 C-10.63875 3.814375 -10.63875 3.814375 -9.25 3.625 C-6.38354573 3.07375879 -4.49736205 2.42706403 -2 1 C-1.34 0.67 -0.68 0.34 0 0 Z " fill="#D4D4D4" transform="translate(98,75)"/>
<path d="M0 0 C0.66 0 1.32 0 2 0 C3.6875 1.75 3.6875 1.75 5 4 C4.6875 6.25 4.6875 6.25 4 8 C2.68 7.34 1.36 6.68 0 6 C0 4.02 0 2.04 0 0 Z " fill="#4C4B4B" transform="translate(6,65)"/>
<path d="M0 0 C1.485 0.99 1.485 0.99 3 2 C3 2.66 3 3.32 3 4 C6.60992379 3.34414811 6.60992379 3.34414811 10 2 C9.67 3.65 9.34 5.3 9 7 C6.69 6.67 4.38 6.34 2 6 C1.34 4.02 0.68 2.04 0 0 Z " fill="#4D4C4C" transform="translate(85,39)"/>
<path d="M0 0 C1.32 0.33 2.64 0.66 4 1 C4.1875 3.375 4.1875 3.375 4 6 C3.01 6.66 2.02 7.32 1 8 C0 7 0 7 -0.0625 3.4375 C-0.041875 2.303125 -0.02125 1.16875 0 0 Z " fill="#A8A7A7" transform="translate(12,41)"/>
<path d="M0 0 C2.31 0.33 4.62 0.66 7 1 C6.67 1.99 6.34 2.98 6 4 C4.02 4 2.04 4 0 4 C0 2.68 0 1.36 0 0 Z " fill="#747373" transform="translate(70,48)"/>
<path d="M0 0 C1.65 1.32 3.3 2.64 5 4 C4.67 4.99 4.34 5.98 4 7 C2.02 7 0.04 7 -2 7 C-1.34 6.34 -0.68 5.68 0 5 C0.16687448 2.41645782 0.16687448 2.41645782 0 0 Z " fill="#4C4B4B" transform="translate(31,14)"/>
<path d="M0 0 C0.66 0 1.32 0 2 0 C2.33 1.98 2.66 3.96 3 6 C1.68 6 0.36 6 -1 6 C-0.67 4.02 -0.34 2.04 0 0 Z " fill="#D4D4D4" transform="translate(77,113)"/>
<path d="M0 0 C2.31 0 4.62 0 7 0 C6.01 1.98 5.02 3.96 4 6 C3.34 6 2.68 6 2 6 C1.34 4.02 0.68 2.04 0 0 Z " fill="#D4D4D4" transform="translate(35,93)"/>
<path d="M0 0 C1.32 0 2.64 0 4 0 C3.67 1.65 3.34 3.3 3 5 C2.01 5.33 1.02 5.66 0 6 C0 4.02 0 2.04 0 0 Z " fill="#131313" transform="translate(97,27)"/>
<path d="M0 0 C1.98 0 3.96 0 6 0 C6 1.32 6 2.64 6 4 C4.35 3.67 2.7 3.34 1 3 C0.67 2.01 0.34 1.02 0 0 Z " fill="#131313" transform="translate(98,36)"/>
<path d="M0 0 C0.625 1.8125 0.625 1.8125 1 4 C0.01 5.485 0.01 5.485 -1 7 C-1.66 7 -2.32 7 -3 7 C-2.25 2.25 -2.25 2.25 0 0 Z " fill="#131313" transform="translate(83,76)"/>
</svg>
