<?xml version="1.0" encoding="UTF-8"?>
<svg version="1.1" xmlns="http://www.w3.org/2000/svg" width="128" height="128">
<path d="M0 0 C42.24 0 84.48 0 128 0 C128 42.24 128 84.48 128 128 C85.76 128 43.52 128 0 128 C0 85.76 0 43.52 0 0 Z " fill="#6E6D6D" transform="translate(0,0)"/>
<path d="M0 0 C2.04291182 1.26660533 4.04690112 2.59886384 6 4 C7.3191582 4.69429379 8.64649406 5.37530495 10 6 C10 6.66 10 7.32 10 8 C10.680625 8.165 11.36125 8.33 12.0625 8.5 C16.29086202 10.65916359 19.60794974 13.87705623 22 18 C21.85582982 22.17438217 20.19838417 24.31167043 17.5 27.375 C14.38096953 31.24490818 12.80601601 33.85942421 13 39 C14.77543384 44.22186422 17.49493869 47.02665954 22 50 C24.62116511 50.3259856 24.62116511 50.3259856 27 49 C28.68711423 47.3540349 30.3545622 45.68762851 32 44 C34.15234375 43.34375 34.15234375 43.34375 36 43 C36.05390357 45.93774463 36.0936255 48.87450232 36.125 51.8125 C36.14175781 52.64587891 36.15851563 53.47925781 36.17578125 54.33789062 C36.18222656 55.14033203 36.18867187 55.94277344 36.1953125 56.76953125 C36.20578613 57.50792236 36.21625977 58.24631348 36.22705078 59.00708008 C36 61 36 61 34 64 C33.8036945 65.98184953 33.8036945 65.98184953 33.8125 68.125 C32.92290584 77.28781988 24.90814428 83.27996085 18.4296875 89.0546875 C14.58657049 92.13165256 10.88186437 94.21613206 6.1875 95.6875 C5.39730469 95.93886719 4.60710937 96.19023438 3.79296875 96.44921875 C3.20128906 96.63097656 2.60960937 96.81273438 2 97 C2.58415763 94.02949632 2.89813465 93.10186535 5.125 90.875 C8.46094802 88.69938173 11.14476241 87.90711473 15 87 C15.36017076 82.83296056 15.36017076 82.83296056 13.75 79.125 C11.78595012 77.63949494 11.78595012 77.63949494 8 78 C7.79375 79.0725 7.5875 80.145 7.375 81.25 C5.70762001 85.79739996 4.10462596 86.61931695 0 89 C-0.7425 89.7425 -1.485 90.485 -2.25 91.25 C-2.8275 91.8275 -3.405 92.405 -4 93 C-4.66 93 -5.32 93 -6 93 C-5.67 94.32 -5.34 95.64 -5 97 C-12.85791935 99.3573758 -20.4399686 97.13307444 -27.6953125 93.96875 C-30.16304661 92.86812908 -30.16304661 92.86812908 -33.5625 92.0625 C-41.64713667 89.5636123 -48.46484844 85.31614073 -53 78 C-53.4375 74.5 -53.4375 74.5 -53 72 C-53.99 72 -54.98 72 -56 72 C-59.83344876 64.33310248 -56.71144108 52.92115443 -54.28125 45.22265625 C-52.49658839 40.73379701 -50.30098927 36.56506842 -47 33 C-46.34 33 -45.68 33 -45 33 C-44.773125 32.443125 -44.54625 31.88625 -44.3125 31.3125 C-42.64333462 28.37158957 -40.3864325 26.3864325 -38 24 C-37.566875 23.21625 -37.13375 22.4325 -36.6875 21.625 C-33.68945525 16.96137483 -29.29447927 12.76482642 -24 11 C-23.67 10.34 -23.34 9.68 -23 9 C-21.34634594 7.97862543 -19.67623498 6.98387706 -18 6 C-16.82739165 5.15400859 -15.66098822 4.29936899 -14.5 3.4375 C-9.51655067 -0.12518192 -6.14564189 -1.75589768 0 0 Z " fill="#F8F8F8" transform="translate(78,20)"/>
<path d="M0 0 C17.16 0 34.32 0 52 0 C49.26504929 3.64660094 48.67421147 4.41747878 44.9375 6.1875 C38.19137043 9.78690792 30.85843961 14.78702976 27.9375 22.125 C27.05158307 25.78678998 26.38964882 29.25937137 26 33 C26.66 33.33 27.32 33.66 28 34 C28.03738281 33.38511719 28.07476563 32.77023438 28.11328125 32.13671875 C28.17902344 31.32847656 28.24476562 30.52023438 28.3125 29.6875 C28.37050781 28.88699219 28.42851562 28.08648438 28.48828125 27.26171875 C29.36754121 23.37552397 31.7758966 22.14940227 35 20 C35.45375 19.21625 35.9075 18.4325 36.375 17.625 C39.61927909 12.38424147 44.78046917 9.94191738 50 7 C50.58652344 6.4740625 51.17304687 5.948125 51.77734375 5.40625 C54.89526058 3.43357854 57.33930456 3.56637786 61 3.5625 C62.216875 3.54316406 63.43375 3.52382813 64.6875 3.50390625 C68.53683909 4.08039925 69.6834807 4.9394891 72 8 C72.6875 10.375 72.6875 10.375 72 13 C69.85169665 15.2549189 67.49764011 17.14588451 65 19 C65.886875 18.67 66.77375 18.34 67.6875 18 C70.70923347 17.08777857 72.88373706 16.81669042 76 17 C76 17.66 76 18.32 76 19 C75.05640625 19.32871094 75.05640625 19.32871094 74.09375 19.6640625 C68.56209695 21.71343998 64.20702839 24.01954181 59.69140625 27.828125 C58 29 58 29 55 29 C54.505 30.485 54.505 30.485 54 32 C52.34634594 33.02137457 50.67623498 34.01612294 49 35 C44.69030548 38.26062414 41.65894449 41.26014243 39 46 C36.25209802 49.52098862 33.73387622 52.51074919 30 55 C22.48600554 66.70625356 21.54400305 78.53964569 22 92 C22.99 92 23.98 92 25 92 C25.268125 93.03125 25.53625 94.0625 25.8125 95.125 C27.79870573 101.98643796 30.19804605 105.76540786 36.359375 109.38671875 C37.54273437 110.03060547 37.54273437 110.03060547 38.75 110.6875 C39.54921875 111.12449219 40.3484375 111.56148438 41.171875 112.01171875 C41.77515625 112.33785156 42.3784375 112.66398437 43 113 C43 113.66 43 114.32 43 115 C39.625 115.125 39.625 115.125 36 115 C35.01 114.01 35.01 114.01 34 113 C33.01 112.67 32.02 112.34 31 112 C28 111 28 111 26 109 C24.515 109.495 24.515 109.495 23 110 C12.19397216 98.93500418 4.95575662 86.02336833 4.625 70.125 C4.77823955 66.23725589 5.39622418 62.74175275 6.51171875 59.0234375 C7.07756249 56.67858103 7.14996483 54.47075412 7.25 52.0625 C7.7280284 46.44783911 10.07466703 42.03564677 14 38 C16.19921875 37.25390625 16.19921875 37.25390625 18 37 C18.33 35.68 18.66 34.36 19 33 C14.28264122 33.92718558 14.28264122 33.92718558 10.45703125 36.59765625 C8.14235623 40.41407752 6.75291378 44.59149785 5.25 48.77539062 C4.5801988 50.54931723 3.79697258 52.27945243 3 54 C1.515 54.495 1.515 54.495 0 55 C0 36.85 0 18.7 0 0 Z " fill="#535252" transform="translate(0,0)"/>
<path d="M0 0 C0.70346558 0.00719055 1.40693115 0.0143811 2.13171387 0.02178955 C2.87327728 0.0214975 3.6148407 0.02120544 4.37887573 0.02090454 C6.83550629 0.02230039 9.29183536 0.03787335 11.74841309 0.05352783 C13.44949172 0.05725706 15.1505725 0.06010446 16.85165405 0.06210327 C21.33321035 0.06974684 25.81463741 0.08940149 30.29614258 0.11151123 C34.86745455 0.13195411 39.43878735 0.14110165 44.01013184 0.15118408 C52.98284493 0.17264674 61.95546202 0.20679137 70.92810059 0.24884033 C71.1038732 4.08158463 71.20944156 7.91328026 71.30310059 11.74884033 C71.35337402 12.82649658 71.40364746 13.90415283 71.45544434 15.01446533 C71.59822103 22.81959133 70.0951133 26.53852862 64.92810059 32.24884033 C61.09566829 38.18668141 60.34645881 43.1197717 60.55310059 50.12384033 C60.55438965 50.97719971 60.55567871 51.83055908 60.55700684 52.70977783 C60.38065087 57.48971022 60.38065087 57.48971022 62.92810059 61.24884033 C66.45044891 70.29159422 64.64405226 80.82536829 63.92810059 90.24884033 C62.95356934 90.65876221 62.95356934 90.65876221 61.95935059 91.07696533 C61.28903809 91.46368408 60.61872559 91.85040283 59.92810059 92.24884033 C59.56539471 94.24372267 59.23640983 96.24483022 58.92810059 98.24884033 C55.83888621 103.89464592 55.83888621 103.89464592 52.67810059 105.12384033 C52.10060059 105.16509033 51.52310059 105.20634033 50.92810059 105.24884033 C50.83528809 106.11509033 50.83528809 106.11509033 50.74060059 106.99884033 C49.59425884 110.17332516 47.66853216 111.37732609 44.92810059 113.24884033 C44.26810059 113.24884033 43.60810059 113.24884033 42.92810059 113.24884033 C42.43310059 115.22884033 42.43310059 115.22884033 41.92810059 117.24884033 C38.95810059 117.24884033 35.98810059 117.24884033 32.92810059 117.24884033 C32.92810059 117.90884033 32.92810059 118.56884033 32.92810059 119.24884033 C31.27810059 119.24884033 29.62810059 119.24884033 27.92810059 119.24884033 C28.42310059 117.76384033 28.42310059 117.76384033 28.92810059 116.24884033 C30.56855853 115.52006056 32.24076663 114.86131593 33.92810059 114.24884033 C39.19022385 111.22289761 43.30390839 108.17774172 46.92810059 103.24884033 C47.58810059 103.24884033 48.24810059 103.24884033 48.92810059 103.24884033 C49.21685059 102.15571533 49.50560059 101.06259033 49.80310059 99.93634033 C50.92810059 96.24884033 50.92810059 96.24884033 52.92810059 93.24884033 C53.30927694 91.06908729 53.30927694 91.06908729 53.42810059 88.74884033 C53.66006393 85.26939014 53.89820869 84.29367818 55.92810059 81.24884033 C56.29161562 79.22341885 56.29161562 79.22341885 56.34216309 77.01837158 C56.38083496 76.21593018 56.41950684 75.41348877 56.45935059 74.58673096 C56.49028809 73.75335205 56.52122559 72.91997314 56.55310059 72.06134033 C56.59177246 71.21635986 56.63044434 70.37137939 56.67028809 69.50079346 C56.76446338 67.4171651 56.84736734 65.33303281 56.92810059 63.24884033 C54.09713104 64.53564467 52.70051309 65.48809898 50.49060059 67.81134033 C47.71006412 70.45624087 46.68065969 71.02909588 42.92810059 71.24884033 C38.96525226 68.94967428 35.7841241 65.61847796 33.36560059 61.74884033 C32.71513203 58.03187715 32.84157826 55.93094376 33.92810059 52.24884033 C35.94124471 49.62842546 38.05182527 47.1877017 40.31091309 44.77618408 C42.20715045 42.316778 42.20715045 42.316778 41.91247559 39.17071533 C40.79897344 35.86555816 39.76673543 34.69348199 37.05310059 32.56134033 C32.93649871 29.25742554 32.93649871 29.25742554 31.34997559 27.63555908 C29.20325894 25.54192059 26.61727069 24.53964198 23.92810059 23.24884033 C21.05310059 21.74884033 21.05310059 21.74884033 18.92810059 20.24884033 C18.92810059 19.25884033 18.92810059 18.26884033 18.92810059 17.24884033 C18.00577637 17.59108643 18.00577637 17.59108643 17.06481934 17.94024658 C16.25657715 18.22770752 15.44833496 18.51516846 14.61560059 18.81134033 C13.41483887 19.24639893 13.41483887 19.24639893 12.18981934 19.69024658 C9.92810059 20.24884033 9.92810059 20.24884033 6.92810059 19.24884033 C7.44501465 18.89692627 7.96192871 18.54501221 8.49450684 18.18243408 C10.54530314 16.64534018 12.28354011 15.21888674 13.92810059 13.24884033 C14.20074285 9.47931907 14.20074285 9.47931907 12.92810059 6.24884033 C9.98887126 4.77922567 7.32401087 5.03964171 4.05310059 4.99884033 C2.81817871 4.97305908 1.58325684 4.94727783 0.31091309 4.92071533 C-3.34792825 5.27561449 -4.40070407 5.8674981 -7.07189941 8.24884033 C-8.55929496 9.084191 -10.05978166 9.8966213 -11.57189941 10.68634033 C-16.06049687 13.15138975 -19.04079614 15.40144697 -21.57189941 19.93634033 C-23.07189941 22.24884033 -23.07189941 22.24884033 -27.07189941 23.24884033 C-28.06189941 28.69384033 -28.06189941 28.69384033 -29.07189941 34.24884033 C-30.06189941 33.91884033 -31.05189941 33.58884033 -32.07189941 33.24884033 C-30.48643268 21.52473103 -26.38006742 15.49333698 -17.07189941 8.24884033 C-14.47015162 6.56382821 -11.8421603 4.99023845 -9.13830566 3.47540283 C-3.30709936 0.0141575 -3.30709936 0.0141575 0 0 Z " fill="#535353" transform="translate(57.0718994140625,-0.24884033203125)"/>
<path d="M0 0 C0.33 0 0.66 0 1 0 C1 34.32 1 68.64 1 104 C-18.47 104 -37.94 104 -58 104 C-57.505 103.01 -57.505 103.01 -57 102 C-54.99810205 101.46498469 -52.9712817 101.02194936 -50.9375 100.625 C-44.0468159 99.13491793 -38.87941519 96.91961013 -33 93 C-31.34450469 92.61500109 -29.6777567 92.27206865 -28 92 C-27.505 90.515 -27.505 90.515 -27 89 C-25.66666667 88.66666667 -24.33333333 88.33333333 -23 88 C-22.505 86.515 -22.505 86.515 -22 85 C-21.34 84.67 -20.68 84.34 -20 84 C-19.505 82.515 -19.505 82.515 -19 81 C-18.360625 80.87625 -17.72125 80.7525 -17.0625 80.625 C-16.0415625 80.315625 -16.0415625 80.315625 -15 80 C-13.83486387 77.80067065 -13.83486387 77.80067065 -13 75 C-10.36641221 68.24427481 -10.36641221 68.24427481 -7 66 C-6.46210465 64.14517633 -6.46210465 64.14517633 -6.41796875 62 C-6.34896362 60.79911743 -6.34896362 60.79911743 -6.27856445 59.57397461 C-6.24851318 58.72456299 -6.21846191 57.87515137 -6.1875 57 C-6.13178833 55.71138062 -6.13178833 55.71138062 -6.07495117 54.39672852 C-5.88588024 48.50206567 -5.82663918 42.57956374 -8 37 C-8.66 36.34 -9.32 35.68 -10 35 C-11.15075958 23.7690291 -11.04112096 14.31356098 -4 5 C-3.236875 3.948125 -2.47375 2.89625 -1.6875 1.8125 C-1.130625 1.214375 -0.57375 0.61625 0 0 Z " fill="#F8F8F8" transform="translate(127,24)"/>
<path d="M0 0 C15.84 0 31.68 0 48 0 C46.77319607 3.6804118 45.62995792 4.16393589 42.4375 6.25 C33.46742419 12.37528034 27.15616893 17.90249873 23.13671875 28.21484375 C22 30 22 30 20.01171875 30.6171875 C19.24472656 30.70226562 18.47773438 30.78734375 17.6875 30.875 C13.61868475 31.63138232 11.53877421 32.71457784 9.0546875 36.2265625 C6.04244294 41.29159595 3.69859069 46.33803103 2 52 C1.34 52 0.68 52 0 52 C0 34.84 0 17.68 0 0 Z " fill="#F8F8F8" transform="translate(0,0)"/>
<path d="M0 0 C0.95310059 0.01047363 1.90620117 0.02094727 2.88818359 0.03173828 C4.43505859 0.04140625 4.43505859 0.04140625 6.01318359 0.05126953 C7.63353516 0.07640625 7.63353516 0.07640625 9.28662109 0.10205078 C10.37458984 0.11107422 11.46255859 0.12009766 12.58349609 0.12939453 C15.27629758 0.1530156 17.96898644 0.18888746 20.66162109 0.22705078 C21.65162109 3.52705078 22.64162109 6.82705078 23.66162109 10.22705078 C24.32162109 10.22705078 24.98162109 10.22705078 25.66162109 10.22705078 C25.86787109 10.80455078 26.07412109 11.38205078 26.28662109 11.97705078 C28.49088328 15.58402527 32.04025153 17.22113987 35.57568359 19.41455078 C40.46357628 22.63291633 40.46357628 22.63291633 41.59912109 26.03955078 C41.61974609 26.76142578 41.64037109 27.48330078 41.66162109 28.22705078 C43.98770679 28.60768299 46.32217373 28.93975023 48.66162109 29.22705078 C50.60252935 27.28614253 50.06081545 23.75411176 50.22412109 21.16455078 C50.34980469 19.22902344 50.34980469 19.22902344 50.47802734 17.25439453 C50.53861328 16.25537109 50.59919922 15.25634766 50.66162109 14.22705078 C51.15662109 15.21705078 51.15662109 15.21705078 51.66162109 16.22705078 C52.32162109 16.22705078 52.98162109 16.22705078 53.66162109 16.22705078 C53.94248228 39.63214925 53.94248228 39.63214925 51.24365234 42.99267578 C49.66162109 44.22705078 49.66162109 44.22705078 47.66162109 44.22705078 C46.30000799 45.18818944 44.96306911 46.18589237 43.66162109 47.22705078 C43.99162109 46.69080078 44.32162109 46.15455078 44.66162109 45.60205078 C45.99602272 42.43284693 46.19875956 40.65130847 45.66162109 37.22705078 C42.59576817 32.16310751 39.43946989 29.70510513 33.66162109 28.22705078 C33.16662109 27.23705078 33.16662109 27.23705078 32.66162109 26.22705078 C30.67996076 25.19118288 28.67688278 24.19592659 26.66162109 23.22705078 C23.78662109 21.72705078 23.78662109 21.72705078 21.66162109 20.22705078 C21.66162109 19.23705078 21.66162109 18.24705078 21.66162109 17.22705078 C20.73929688 17.56929687 20.73929688 17.56929687 19.79833984 17.91845703 C18.99009766 18.20591797 18.18185547 18.49337891 17.34912109 18.78955078 C16.14835937 19.22460938 16.14835937 19.22460938 14.92333984 19.66845703 C12.66162109 20.22705078 12.66162109 20.22705078 9.66162109 19.22705078 C10.17853516 18.87513672 10.69544922 18.52322266 11.22802734 18.16064453 C13.27882364 16.62355063 15.01706062 15.19709719 16.66162109 13.22705078 C16.93426336 9.45752952 16.93426336 9.45752952 15.66162109 6.22705078 C12.72239176 4.75743612 10.05753137 5.01785216 6.78662109 4.97705078 C5.55169922 4.95126953 4.31677734 4.92548828 3.04443359 4.89892578 C-0.61440774 5.25382494 -1.66718356 5.84570855 -4.33837891 8.22705078 C-5.82577445 9.06240145 -7.32626115 9.87483175 -8.83837891 10.66455078 C-13.32697636 13.1296002 -16.30727563 15.37965742 -18.83837891 19.91455078 C-20.33837891 22.22705078 -20.33837891 22.22705078 -24.33837891 23.22705078 C-25.32837891 28.67205078 -25.32837891 28.67205078 -26.33837891 34.22705078 C-27.32837891 33.89705078 -28.31837891 33.56705078 -29.33837891 33.22705078 C-27.75291217 21.50294148 -23.64654691 15.47154743 -14.33837891 8.22705078 C-11.73663111 6.54203866 -9.10863979 4.9684489 -6.40478516 3.45361328 C-0.70112827 0.06807781 -0.70112827 0.06807781 0 0 Z " fill="#212121" transform="translate(54.33837890625,-0.22705078125)"/>
<path d="M0 0 C1.97265625 0.7421875 1.97265625 0.7421875 3.953125 2.76953125 C5.10292436 6.12201137 4.9368148 6.61931915 3.62109375 9.73828125 C2.88529018 11.22981087 2.12646885 12.71015749 1.34765625 14.1796875 C0.97769531 14.91767578 0.60773437 15.65566406 0.2265625 16.41601562 C-1.38586782 19.62093454 -3.05483899 22.79439686 -4.7265625 25.96875 C-8.58448896 34.19435898 -9.15275527 42.99400028 -6.08984375 51.4921875 C-5.40719129 53.24408415 -4.72035131 54.9943612 -4.02734375 56.7421875 C-3.69734375 57.7321875 -3.36734375 58.7221875 -3.02734375 59.7421875 C-2.36734375 59.7421875 -1.70734375 59.7421875 -1.02734375 59.7421875 C-1.02734375 60.4021875 -1.02734375 61.0621875 -1.02734375 61.7421875 C-0.36734375 61.7421875 0.29265625 61.7421875 0.97265625 61.7421875 C2.45765625 66.1971875 2.45765625 66.1971875 3.97265625 70.7421875 C-2.5189805 69.11927831 -5.992213 63.92575161 -9.515625 58.4140625 C-15.84916274 46.57054301 -19.51582017 32.9445581 -15.65625 19.7734375 C-15.44871094 19.103125 -15.24117187 18.4328125 -15.02734375 17.7421875 C-14.80949219 16.9275 -14.59164063 16.1128125 -14.3671875 15.2734375 C-12.88576464 9.89822012 -11.1033368 5.40578986 -8.02734375 0.7421875 C-5.31530044 -0.61383415 -2.95928993 -0.18806702 0 0 Z " fill="#EFEEEE" transform="translate(22.02734375,39.2578125)"/>
<path d="M0 0 C2.9441664 2.9441664 3.87773385 4.71321216 5.5 8.4375 C11.91678221 21.62310734 22.59275548 30.48630014 36 36 C37.35486053 36.58171993 38.70909868 37.16489317 40.0625 37.75 C41.5165625 38.36875 41.5165625 38.36875 43 39 C43 39.33 43 39.66 43 40 C28.81 40 14.62 40 0 40 C0 26.8 0 13.6 0 0 Z " fill="#F7F7F7" transform="translate(0,88)"/>
<path d="M0 0 C0.886875 0.12375 1.77375 0.2475 2.6875 0.375 C2.5 2.1875 2.5 2.1875 1.6875 4.375 C0.924375 4.808125 0.16125 5.24125 -0.625 5.6875 C-4.16501414 7.91029958 -5.88636744 10.52876371 -7.3125 14.375 C-7.73065188 16.89211036 -7.94043308 19.36000155 -8.09765625 21.90625 C-8.29656709 24.19191639 -8.72401882 26.12161161 -9.375 28.3125 C-12.32883726 39.76429982 -9.48223465 53.01014338 -3.69140625 63.23828125 C-3.23636719 63.94339844 -2.78132812 64.64851563 -2.3125 65.375 C-2.065 66.138125 -1.8175 66.90125 -1.5625 67.6875 C0.37291464 71.84864147 3.3745284 75.21697807 6.6875 78.375 C8.1725 78.87 8.1725 78.87 9.6875 79.375 C10.375 81.4375 10.375 81.4375 10.6875 83.375 C12.0075 83.375 13.3275 83.375 14.6875 83.375 C15.0175 84.365 15.3475 85.355 15.6875 86.375 C9.69079978 86.80333573 6.20846264 85.47345494 1.58984375 81.62890625 C-4.7629393 75.69019825 -9.12463125 68.92642849 -13.3125 61.375 C-13.83489258 60.47958496 -14.35728516 59.58416992 -14.89550781 58.66162109 C-16.51833735 54.89757366 -16.74679069 51.69909813 -16.7109375 47.67578125 C-16.71380768 46.95891647 -16.71667786 46.2420517 -16.71963501 45.50346375 C-16.7216653 43.99831343 -16.71620825 42.4931361 -16.70361328 40.98803711 C-16.68747189 38.68348641 -16.70353178 36.38067033 -16.72265625 34.07617188 C-16.72067502 32.60937114 -16.71683383 31.14257148 -16.7109375 29.67578125 C-16.71701019 28.98825272 -16.72308289 28.30072418 -16.7293396 27.59236145 C-16.65862829 22.798564 -16.65862829 22.798564 -14.86328125 20.6015625 C-14.09564453 19.99441406 -14.09564453 19.99441406 -13.3125 19.375 C-12.45274613 17.29772372 -11.66826497 15.18858467 -10.9375 13.0625 C-6.32119514 0.715607 -6.32119514 0.715607 0 0 Z " fill="#363636" transform="translate(16.3125,32.625)"/>
<path d="M0 0 C-0.54723683 3.37462715 -1.0549 5.08235 -3 8 C-5.09375 9.38671875 -5.09375 9.38671875 -7.5 10.6875 C-8.69109375 11.34298828 -8.69109375 11.34298828 -9.90625 12.01171875 C-12 13 -12 13 -14 13 C-14.33 13.99 -14.66 14.98 -15 16 C-16.8203125 17.140625 -16.8203125 17.140625 -19.125 18.25 C-22.5944421 20.05345009 -25.04776793 21.86814485 -27.6875 24.75 C-30.11905998 27.36904007 -30.83015884 27.95367968 -34.4375 28.9375 C-35.7059375 28.9684375 -35.7059375 28.9684375 -37 29 C-38.85994341 25.28011318 -38.4375354 21.05935619 -38 17 C-36.31841001 12.06489895 -33.59886953 9.35290999 -29 7 C-27.86610549 6.17881021 -26.74171353 5.34440531 -25.625 4.5 C-18.55838941 -0.49796604 -8.44336087 -4.22168043 0 0 Z " fill="#F4F3F3" transform="translate(70,7)"/>
<path d="M0 0 C9.9 0 19.8 0 30 0 C29.01 1.98 28.02 3.96 27 6 C26.66534111 9.70940775 26.66534111 9.70940775 27 13 C27.33 13.33 27.66 13.66 28 14 C28.07258946 16.18639453 28.08373783 18.37500389 28.0625 20.5625 C28.05347656 21.76003906 28.04445313 22.95757813 28.03515625 24.19140625 C28.02355469 25.11824219 28.01195313 26.04507812 28 27 C26.25 27.75 26.25 27.75 24 28 C22.09375 26.31640625 22.09375 26.31640625 20 24 C18.19076233 22.61380466 16.35588877 21.26058554 14.5 19.9375 C12.66644994 18.62530278 10.83310131 17.31282403 9 16 C7.83984375 15.22849609 7.83984375 15.22849609 6.65625 14.44140625 C6.1096875 13.96574219 5.563125 13.49007813 5 13 C5 12.01 5 11.02 5 10 C4.34 10 3.68 10 3 10 C2.49596232 8.70990357 1.99690074 7.41786211 1.5 6.125 C1.2215625 5.40570312 0.943125 4.68640625 0.65625 3.9453125 C0 2 0 2 0 0 Z " fill="#F6F6F6" transform="translate(75,0)"/>
<path d="M0 0 C1.32 0.33 2.64 0.66 4 1 C1.83588197 3.37442417 -0.18889175 4.7168798 -3.0625 6.125 C-9.78027546 9.7862426 -17.13966335 14.78226402 -20.0625 22.125 C-20.94841693 25.78678998 -21.61035118 29.25937137 -22 33 C-21.34 33.33 -20.68 33.66 -20 34 C-19.96261719 33.38511719 -19.92523437 32.77023438 -19.88671875 32.13671875 C-19.82097656 31.32847656 -19.75523438 30.52023438 -19.6875 29.6875 C-19.62949219 28.88699219 -19.57148438 28.08648438 -19.51171875 27.26171875 C-18.91793306 24.63727666 -18.04219706 23.69179328 -16 22 C-14.61773984 24.76452033 -14.90474613 27.0461363 -14.9375 30.125 C-14.94652344 31.22070312 -14.95554688 32.31640625 -14.96484375 33.4453125 C-14.97644531 34.28835937 -14.98804688 35.13140625 -15 36 C-9.25453153 33.93163135 -6.11385457 31.51520623 -2 27 C-1.34 27.33 -0.68 27.66 0 28 C-1.38607623 29.46761013 -2.78431195 30.92374189 -4.1875 32.375 C-5.35345703 33.59316406 -5.35345703 33.59316406 -6.54296875 34.8359375 C-10.35541602 38.19380044 -12.93370392 39 -18 39 C-18.226875 40.299375 -18.45375 41.59875 -18.6875 42.9375 C-19.86541678 48.24642069 -22.2521769 52.36010443 -25 57 C-32.06166951 69.40836214 -32.28588984 80.15061886 -31 94 C-34.34477728 90.65522272 -34.85247439 86.47525608 -35.3125 81.875 C-34.32644658 69.64793765 -29.94573851 60.25220717 -23.89208984 49.80834961 C-22.91529286 47.8282907 -22.28282598 46.19504688 -22 44 C-23.60968515 40.92200412 -23.60968515 40.92200412 -25.83984375 40.3828125 C-29.99214512 39.74695838 -29.99214512 39.74695838 -33.8125 41.0625 C-36.38817016 45.26490921 -38.27794628 49.09003472 -39 54 C-39.33 54 -39.66 54 -40 54 C-40.77289995 47.94561706 -39.06223061 44.82504056 -35.703125 39.8203125 C-33.80847689 37.79529869 -32.7075196 37.36492655 -30 37 C-29.67 35.68 -29.34 34.36 -29 33 C-33.71735878 33.92718558 -33.71735878 33.92718558 -37.54296875 36.59765625 C-39.85764377 40.41407752 -41.24708622 44.59149785 -42.75 48.77539062 C-43.4198012 50.54931723 -44.20302742 52.27945243 -45 54 C-46.485 54.495 -46.485 54.495 -48 55 C-48 54.01 -48 53.02 -48 52 C-47.34 52 -46.68 52 -46 52 C-45.773125 50.865625 -45.54625 49.73125 -45.3125 48.5625 C-43.73193774 42.25146064 -40.46108346 34.79241907 -35 31 C-33.50414923 30.74515135 -32.00331052 30.51883674 -30.5 30.3125 C-28.10200741 29.95381111 -28.10200741 29.95381111 -26 29 C-24.62207763 26.91278644 -23.90425732 24.8455678 -23.0546875 22.49609375 C-19.40521217 13.85900213 -11.22000017 8.76710938 -3.66015625 3.84765625 C-0.93532199 2.27022267 -0.93532199 2.27022267 0 0 Z " fill="#838383" transform="translate(48,0)"/>
<path d="M0 0 C1.216875 -0.01933594 2.43375 -0.03867187 3.6875 -0.05859375 C7.53683909 0.51789925 8.6834807 1.3769891 11 4.4375 C11.6875 6.8125 11.6875 6.8125 11 9.4375 C8.85169665 11.6924189 6.49764011 13.58338451 4 15.4375 C4.886875 15.1075 5.77375 14.7775 6.6875 14.4375 C9.70923347 13.52527857 11.88373706 13.25419042 15 13.4375 C15 14.0975 15 14.7575 15 15.4375 C14.3709375 15.65664063 13.741875 15.87578125 13.09375 16.1015625 C7.56209695 18.15093998 3.20702839 20.45704181 -1.30859375 24.265625 C-3 25.4375 -3 25.4375 -6 25.4375 C-6.33 26.4275 -6.66 27.4175 -7 28.4375 C-8.65365406 29.45887457 -10.32376502 30.45362294 -12 31.4375 C-16.30969452 34.69812414 -19.34105551 37.69764243 -22 42.4375 C-24.74790198 45.95848862 -27.26612378 48.94824919 -31 51.4375 C-32.20482939 53.1554646 -32.20482939 53.1554646 -33.1875 55.0625 C-33.785625 56.17625 -34.38375 57.29 -35 58.4375 C-36 55.4375 -36 55.4375 -35.07421875 53.39453125 C-34.61660156 52.68683594 -34.15898438 51.97914062 -33.6875 51.25 C-33.01267578 50.17685547 -33.01267578 50.17685547 -32.32421875 49.08203125 C-31.88722656 48.53933594 -31.45023438 47.99664062 -31 47.4375 C-30.34 47.4375 -29.68 47.4375 -29 47.4375 C-28.71125 46.48875 -28.4225 45.54 -28.125 44.5625 C-27 41.4375 -27 41.4375 -25 39.4375 C-24.01 39.4375 -23.02 39.4375 -22 39.4375 C-21.7628125 38.86515625 -21.525625 38.2928125 -21.28125 37.703125 C-19.72406762 34.9495708 -17.87507203 33.26954366 -15.5 31.1875 C-14.7059375 30.48109375 -13.911875 29.7746875 -13.09375 29.046875 C-11 27.4375 -11 27.4375 -9 27.4375 C-8.67 25.7875 -8.34 24.1375 -8 22.4375 C-10.475 22.9325 -10.475 22.9325 -13 23.4375 C-10.63707344 20.91161298 -9.33537489 19.54929163 -6 18.4375 C-5.30390625 17.73367187 -5.30390625 17.73367187 -4.59375 17.015625 C-2.71955521 15.15980467 -0.87765146 14.31292169 1.5 13.1875 C4.84497918 11.4089501 6.588229 10.15043066 8.0625 6.625 C8.371875 5.573125 8.68125 4.52125 9 3.4375 C-3.1308908 2.69106773 -3.1308908 2.69106773 -14 7.4375 C-14.74378906 7.96601563 -15.48757812 8.49453125 -16.25390625 9.0390625 C-18.20186798 10.46869702 -20.11146064 11.93068668 -22 13.4375 C-22.66 13.1075 -23.32 12.7775 -24 12.4375 C-19.85641285 8.79922836 -15.81533604 6.11268669 -11 3.4375 C-10.41476563 2.91285156 -9.82953125 2.38820313 -9.2265625 1.84765625 C-6.10624387 -0.12854555 -3.6646798 0.00388208 0 0 Z " fill="#3D3C3C" transform="translate(61,3.5625)"/>
<path d="M0 0 C1.093125 0.0825 2.18625 0.165 3.3125 0.25 C6.75232707 5.69191392 5.4683674 12.21158926 4.3125 18.25 C2.69362262 21.60892822 0.60561742 24.32985829 -1.6875 27.25 C-2.79968263 29.21676413 -3.74002868 31.19714547 -4.6875 33.25 C-7.93505101 30.00244899 -6.98349223 26.09535915 -7.00976562 21.671875 C-7.00654297 20.41890625 -7.00332031 19.1659375 -7 17.875 C-7.01611328 16.62976563 -7.03222656 15.38453125 -7.04882812 14.1015625 C-7.04947266 12.9053125 -7.05011719 11.7090625 -7.05078125 10.4765625 C-7.05376221 9.37908691 -7.05674316 8.28161133 -7.05981445 7.15087891 C-6.41352455 2.11532698 -5.11036463 0.3464654 0 0 Z " fill="#EEEEEE" transform="translate(114.6875,5.75)"/>
<path d="M0 0 C0.66 0.33 1.32 0.66 2 1 C3.34063315 5.02189945 3.18417125 8.72662522 3.1875 12.9375 C3.19974609 13.74896484 3.21199219 14.56042969 3.22460938 15.39648438 C3.22654297 16.18216797 3.22847656 16.96785156 3.23046875 17.77734375 C3.23457764 18.49140381 3.23868652 19.20546387 3.24291992 19.94116211 C2.96326283 22.31136132 2.17114859 23.93707267 1 26 C0.34 26 -0.32 26 -1 26 C-1.33 28.31 -1.66 30.62 -2 33 C-2.66 33 -3.32 33 -4 33 C-4.2475 33.969375 -4.495 34.93875 -4.75 35.9375 C-5.1625 36.948125 -5.575 37.95875 -6 39 C-8.125 39.875 -8.125 39.875 -10 40 C-10.0928125 40.86625 -10.0928125 40.86625 -10.1875 41.75 C-11.33384174 44.92448483 -13.25956842 46.12848575 -16 48 C-16.66 48 -17.32 48 -18 48 C-18.185625 48.639375 -18.37125 49.27875 -18.5625 49.9375 C-20 52 -20 52 -23.625 52.75 C-24.73875 52.8325 -25.8525 52.915 -27 53 C-27 53.66 -27 54.32 -27 55 C-28.65 55 -30.3 55 -32 55 C-31.67 54.01 -31.34 53.02 -31 52 C-29.35954206 51.27122023 -27.68733395 50.6124756 -26 50 C-20.73787674 46.97405728 -16.6241922 43.92890139 -13 39 C-12.34 39 -11.68 39 -11 39 C-10.731875 38.236875 -10.46375 37.47375 -10.1875 36.6875 C-9 34 -9 34 -7.5 32.6875 C-5.5139299 30.45317114 -5.13017442 28.10683225 -4.52734375 25.23046875 C-4 23 -4 23 -2.94140625 20.1875 C-1.86770756 16.55207206 -1.87037287 13.59194112 -2 9.8125 C-2.22087133 3.33130699 -2.22087133 3.33130699 0 0 Z " fill="#242424" transform="translate(117,64)"/>
<path d="M0 0 C4.76620436 1.56134281 7.12203975 3.88028572 9.625 8.1875 C10.41417412 12.13337061 10.00281233 13.55781278 7.9375 17 C5.30584109 19.48940707 4.2440369 20.27366755 0.625 20.1875 C-4.19860018 17.77569991 -6.63432476 15.30713306 -8.375 10.1875 C-8.30291457 6.58322831 -7.74628227 4.74442341 -5.75 1.75 C-3.375 0.1875 -3.375 0.1875 0 0 Z " fill="#808080" transform="translate(38.375,84.8125)"/>
<path d="M0 0 C0.886875 0.12375 1.77375 0.2475 2.6875 0.375 C2.5 2.1875 2.5 2.1875 1.6875 4.375 C0.924375 4.808125 0.16125 5.24125 -0.625 5.6875 C-4.13709945 7.89277174 -5.82364907 10.59331863 -7.3125 14.375 C-7.879073 17.07566464 -8.11850187 19.61052668 -8.3125 22.375 C-9.3025 22.705 -10.2925 23.035 -11.3125 23.375 C-11.34147435 27.64581914 -11.35928996 31.91661309 -11.375 36.1875 C-11.38337891 37.40244141 -11.39175781 38.61738281 -11.40039062 39.86914062 C-11.40361328 41.03251953 -11.40683594 42.19589844 -11.41015625 43.39453125 C-11.41539307 44.46807861 -11.42062988 45.54162598 -11.42602539 46.64770508 C-11.43444588 49.46999365 -11.43444588 49.46999365 -10.3125 52.375 C-10.9725 52.375 -11.6325 52.375 -12.3125 52.375 C-12.3125 55.345 -12.3125 58.315 -12.3125 61.375 C-15.56796772 56.49179842 -16.62086078 53.76470507 -16.61328125 47.96875 C-16.61756638 47.24764038 -16.6218515 46.52653076 -16.62626648 45.78356934 C-16.63200381 44.26050872 -16.63251442 42.73742071 -16.62817383 41.21435547 C-16.62501128 38.88331472 -16.64848708 36.55354032 -16.67382812 34.22265625 C-16.67610093 32.7421891 -16.6768047 31.26171854 -16.67578125 29.78125 C-16.684991 29.0843103 -16.69420074 28.38737061 -16.70368958 27.66931152 C-16.65707293 22.79887063 -16.65707293 22.79887063 -14.86547852 20.5949707 C-14.35299561 20.19238037 -13.8405127 19.78979004 -13.3125 19.375 C-12.45274613 17.29772372 -11.66826497 15.18858467 -10.9375 13.0625 C-6.32119514 0.715607 -6.32119514 0.715607 0 0 Z " fill="#505050" transform="translate(16.3125,32.625)"/>
<path d="M0 0 C0.33 0 0.66 0 1 0 C1.54848998 6.1430878 0.67398815 9.38457942 -2.7109375 14.53125 C-3.13632813 15.0159375 -3.56171875 15.500625 -4 16 C-4.66 16 -5.32 16 -6 16 C-6.00616333 16.91495239 -6.00616333 16.91495239 -6.01245117 17.84838867 C-6.04547575 20.62905792 -6.11612568 23.40756157 -6.1875 26.1875 C-6.19330078 27.14720703 -6.19910156 28.10691406 -6.20507812 29.09570312 C-6.35424716 33.88568647 -6.44565457 36.27426274 -9.42578125 40.17578125 C-12 42 -12 42 -14 42 C-14.12375 42.61875 -14.2475 43.2375 -14.375 43.875 C-15 46 -15 46 -17 48 C-19.38671875 48.35546875 -19.38671875 48.35546875 -22 48 C-24.01953125 46.42578125 -24.01953125 46.42578125 -25.8125 44.3125 C-26.41707031 43.62800781 -27.02164063 42.94351563 -27.64453125 42.23828125 C-29.23775704 39.60739255 -29.26997516 38.02266309 -29 35 C-28.01 34.505 -28.01 34.505 -27 34 C-27 35.65 -27 37.3 -27 39 C-26.34 39 -25.68 39 -25 39 C-25 40.32 -25 41.64 -25 43 C-22.69 43 -20.38 43 -18 43 C-17.5978125 42.071875 -17.5978125 42.071875 -17.1875 41.125 C-16 39 -16 39 -13 37 C-11.19645154 32.49112885 -10.92124556 28.52804112 -10.75 23.6875 C-10.31245294 16.75834559 -7.91276577 12.5813018 -4 7 C-3.19201295 5.63452644 -2.39811719 4.26051468 -1.625 2.875 C-1.08875 1.92625 -0.5525 0.9775 0 0 Z " fill="#1B1B1B" transform="translate(122,20)"/>
<path d="M0 0 C0.66 0.33 1.32 0.66 2 1 C0.60494882 5.69999386 -1.65517906 7.6806766 -5.5 10.625 C-9.71208963 13.87242829 -9.71208963 13.87242829 -13 18 C-13.825 18.45375 -14.65 18.9075 -15.5 19.375 C-18.50319085 21.32707406 -18.84308912 22.69454035 -20 26 C-20.45761719 26.44988281 -20.91523438 26.89976563 -21.38671875 27.36328125 C-23.29619227 29.30049531 -24.40407262 31.29408137 -25.6875 33.6875 C-26.12449219 34.49574219 -26.56148437 35.30398437 -27.01171875 36.13671875 C-27.50091797 37.05904297 -27.50091797 37.05904297 -28 38 C-28.66 38 -29.32 38 -30 38 C-30 38.66 -30 39.32 -30 40 C-30.66 40 -31.32 40 -32 40 C-31.52300309 35.13463153 -30.67372167 32.06009587 -28 28 C-27.29431093 26.69718941 -26.60811314 25.38370798 -25.9375 24.0625 C-25.58816406 23.37800781 -25.23882812 22.69351563 -24.87890625 21.98828125 C-23.84541123 19.85129393 -23.84541123 19.85129393 -23.375 16.75 C-21.40273727 12.80547454 -18.70939796 12.5800837 -14.671875 11.203125 C-10.86167576 9.48742125 -8.53071896 6.89634266 -5.7890625 3.8046875 C-3.93894502 1.93841178 -2.46241433 0.90187191 0 0 Z " fill="#212121" transform="translate(52,25)"/>
<path d="M0 0 C0.33 0 0.66 0 1 0 C1.04898438 1.27617188 1.09796875 2.55234375 1.1484375 3.8671875 C1.22346191 5.53648072 1.29900988 7.20575046 1.375 8.875 C1.4059375 9.71675781 1.436875 10.55851562 1.46875 11.42578125 C1.50742188 12.23144531 1.54609375 13.03710938 1.5859375 13.8671875 C1.63306885 14.98262939 1.63306885 14.98262939 1.68115234 16.12060547 C1.85419551 18.24010974 1.85419551 18.24010974 4 20 C7.52234833 29.04275389 5.71595167 39.57652796 5 49 C4.3503125 49.27328125 3.700625 49.5465625 3.03125 49.828125 C2.3609375 50.21484375 1.690625 50.6015625 1 51 C0.63729412 52.99488234 0.30830925 54.99598989 0 57 C-3.08921438 62.64580559 -3.08921438 62.64580559 -6.25 63.875 C-6.8275 63.91625 -7.405 63.9575 -8 64 C-8.061875 64.5775 -8.12375 65.155 -8.1875 65.75 C-9.33384174 68.92448483 -11.25956842 70.12848575 -14 72 C-14.66 72 -15.32 72 -16 72 C-16.33 73.32 -16.66 74.64 -17 76 C-18.65 76 -20.3 76 -22 76 C-19.05508463 72.80967502 -17.23990994 70.90855213 -13 70 C-12.67 69.01 -12.34 68.02 -12 67 C-11.01 66.505 -11.01 66.505 -10 66 C-9.67 65.01 -9.34 64.02 -9 63 C-8.0409375 62.8453125 -8.0409375 62.8453125 -7.0625 62.6875 C-6.381875 62.460625 -5.70125 62.23375 -5 62 C-3.6954344 59.00384054 -3.6954344 59.00384054 -3 56 C-2.34 56 -1.68 56 -1 56 C-0.67 53.69 -0.34 51.38 0 49 C0.66 49 1.32 49 2 49 C2.79529242 46.19199386 3.1282074 43.69270241 3.1328125 40.77734375 C3.13410156 39.99166016 3.13539062 39.20597656 3.13671875 38.39648438 C3.13285156 37.58501953 3.12898438 36.77355469 3.125 35.9375 C3.12886719 35.12216797 3.13273437 34.30683594 3.13671875 33.46679688 C3.13478516 32.29020508 3.13478516 32.29020508 3.1328125 31.08984375 C3.13168457 30.37691162 3.13055664 29.66397949 3.12939453 28.92944336 C3.06665285 26.77989196 3.06665285 26.77989196 2 24 C-0.33672875 25.87976108 -0.33672875 25.87976108 -0.08984375 28.9765625 C-0.03957031 30.18054688 0.01070312 31.38453125 0.0625 32.625 C0.15552692 38.6965571 -0.50294137 42.52567916 -3 48 C-3.309375 49.258125 -3.61875 50.51625 -3.9375 51.8125 C-5.07816134 55.23448403 -5.9168482 56.25288065 -9 58 C-8 56 -7 54 -6 52 C-5.72904124 49.73340843 -5.55512003 47.46718841 -5.37890625 45.19140625 C-5 43 -5 43 -3 40 C-2.63648496 37.97457852 -2.63648496 37.97457852 -2.5859375 35.76953125 C-2.54726562 34.96708984 -2.50859375 34.16464844 -2.46875 33.33789062 C-2.42234375 32.08782227 -2.42234375 32.08782227 -2.375 30.8125 C-2.33632812 29.96751953 -2.29765625 29.12253906 -2.2578125 28.25195312 C-2.16363721 26.16832476 -2.08073325 24.08419247 -2 22 C-2.99 21.67 -3.98 21.34 -5 21 C-4.35546875 20.69449219 -3.7109375 20.38898437 -3.046875 20.07421875 C0.17524549 16.80905467 -0.32522795 13.23385171 -0.25 8.8125 C-0.20552734 7.5450293 -0.20552734 7.5450293 -0.16015625 6.25195312 C-0.0895301 4.16848178 -0.04249205 2.08423494 0 0 Z " fill="#7A7979" transform="translate(116,41)"/>
<path d="M0 0 C0.99 0.33 1.98 0.66 3 1 C3 1.66 3 2.32 3 3 C3.99 3 4.98 3 6 3 C2.05180636 11.66676654 -6.50943333 19.75471667 -15 24 C-17.97446447 25.08711392 -20.97297865 26.0701307 -24 27 C-23.41584237 24.02949632 -23.10186535 23.10186535 -20.875 20.875 C-17.53905198 18.69938173 -14.85523759 17.90711473 -11 17 C-10.63982924 12.83296056 -10.63982924 12.83296056 -12.25 9.125 C-14.21404988 7.63949494 -14.21404988 7.63949494 -18 8 C-18.226875 9.11375 -18.45375 10.2275 -18.6875 11.375 C-20 15 -20 15 -22.625 16.4375 C-23.40875 16.623125 -24.1925 16.80875 -25 17 C-24.566875 16.505 -24.13375 16.01 -23.6875 15.5 C-21.43618332 12.16471603 -20.328939 8.79696858 -19 5 C-16.1875 4.75 -16.1875 4.75 -13 5 C-11.95374591 6.29735507 -10.95298777 7.63266972 -10 9 C-7.40144267 9.8042208 -7.40144267 9.8042208 -5 10 C-4.67 8.68 -4.34 7.36 -4 6 C-2.68 6 -1.36 6 0 6 C0.33 6.66 0.66 7.32 1 8 C0.67 5.36 0.34 2.72 0 0 Z " fill="#D0CFCF" transform="translate(104,90)"/>
<path d="M0 0 C1.32 0.33 2.64 0.66 4 1 C1.83588197 3.37442417 -0.18889175 4.7168798 -3.0625 6.125 C-9.78027546 9.7862426 -17.13966335 14.78226402 -20.0625 22.125 C-20.94841693 25.78678998 -21.61035118 29.25937137 -22 33 C-21.34 33.33 -20.68 33.66 -20 34 C-19.92652344 33.06027344 -19.92652344 33.06027344 -19.8515625 32.1015625 C-19.77679687 31.28429687 -19.70203125 30.46703125 -19.625 29.625 C-19.55539063 28.81289063 -19.48578125 28.00078125 -19.4140625 27.1640625 C-19 25 -19 25 -17 23 C-17.33 27.62 -17.66 32.24 -18 37 C-26.625 37.25 -26.625 37.25 -30 35 C-29.67 34.34 -29.34 33.68 -29 33 C-33.71735878 33.92718558 -33.71735878 33.92718558 -37.54296875 36.59765625 C-39.85764377 40.41407752 -41.24708622 44.59149785 -42.75 48.77539062 C-43.4198012 50.54931723 -44.20302742 52.27945243 -45 54 C-46.485 54.495 -46.485 54.495 -48 55 C-48 54.01 -48 53.02 -48 52 C-47.34 52 -46.68 52 -46 52 C-45.773125 50.865625 -45.54625 49.73125 -45.3125 48.5625 C-43.73193774 42.25146064 -40.46108346 34.79241907 -35 31 C-33.50414923 30.74515135 -32.00331052 30.51883674 -30.5 30.3125 C-28.10200741 29.95381111 -28.10200741 29.95381111 -26 29 C-24.62207763 26.91278644 -23.90425732 24.8455678 -23.0546875 22.49609375 C-19.40521217 13.85900213 -11.22000017 8.76710938 -3.66015625 3.84765625 C-0.93532199 2.27022267 -0.93532199 2.27022267 0 0 Z " fill="#404040" transform="translate(48,0)"/>
<path d="M0 0 C2.88986303 0.58014136 5.26388385 0.19295929 8.08203125 -0.58203125 C8.41203125 -0.91203125 8.74203125 -1.24203125 9.08203125 -1.58203125 C11.94470692 -1.65528293 14.78275025 -1.6744133 17.64453125 -1.64453125 C18.45083984 -1.64001953 19.25714844 -1.63550781 20.08789062 -1.63085938 C22.08596881 -1.61903643 24.08400908 -1.60110039 26.08203125 -1.58203125 C26.57703125 -0.59203125 26.57703125 -0.59203125 27.08203125 0.41796875 C23.08727906 3.08113688 19.39637508 3.22467557 14.69921875 3.85546875 C13.40371094 4.13390625 13.40371094 4.13390625 12.08203125 4.41796875 C11.75203125 5.07796875 11.42203125 5.73796875 11.08203125 6.41796875 C8.6438654 6.49894105 6.20838741 6.55843847 3.76953125 6.60546875 C2.7340918 6.64317383 2.7340918 6.64317383 1.67773438 6.68164062 C-3.51401909 6.75688343 -3.51401909 6.75688343 -5.640625 4.97265625 C-6.27291016 4.20308594 -6.27291016 4.20308594 -6.91796875 3.41796875 C-8.92092514 2.71139015 -8.92092514 2.71139015 -11.04296875 2.35546875 C-12.32171875 2.04609375 -13.60046875 1.73671875 -14.91796875 1.41796875 C-15.24796875 0.75796875 -15.57796875 0.09796875 -15.91796875 -0.58203125 C-10.00958805 -1.51986946 -5.76325478 -1.50389661 0 0 Z " fill="#323232" transform="translate(51.91796875,121.58203125)"/>
<path d="M0 0 C4.16985575 1.88890901 6.37362624 4.20634901 9 8 C9.37239025 11.22738221 9.45147903 13.09704195 8 16 C9.32 15.01 10.64 14.02 12 13 C11.25 17.75 11.25 17.75 9 20 C7.11311761 24.36962239 6.64086882 27.39986369 8 32 C8.99 32.66 9.98 33.32 11 34 C11.2475 33.319375 11.495 32.63875 11.75 31.9375 C13.24197908 28.43134917 15.06835511 25.28379632 17 22 C17.33 22 17.66 22 18 22 C18 23.98 18 25.96 18 28 C17.38125 28.226875 16.7625 28.45375 16.125 28.6875 C13.38589791 30.37929835 12.94975528 31.99244161 12 35 C9.69 34.67 7.38 34.34 5 34 C5 32.68 5 31.36 5 30 C4.34 30 3.68 30 3 30 C2.67 28.68 2.34 27.36 2 26 C2 28.31 2 30.62 2 33 C1.01 33 0.02 33 -1 33 C-1.83606392 29.19970944 -2.25122511 26.7093415 -0.9375 23 C0.67760094 20.49919855 2.23206261 18.64494044 4.25 16.5 C6.41916999 14.02714621 6.9679384 13.38473923 7.25 10 C5.56521659 5.95651981 3.02344532 3.12515143 0 0 Z " fill="#535353" transform="translate(92,29)"/>
<path d="M0 0 C0 0.99 0 1.98 0 3 C-0.825 3.37125 -1.65 3.7425 -2.5 4.125 C-7.83203368 6.98144662 -13.03658091 10.0495774 -16.25 15.3125 C-18 18 -18 18 -22 19 C-22.99 24.445 -22.99 24.445 -24 30 C-24.99 29.67 -25.98 29.34 -27 29 C-25.26832466 16.19471657 -20.06773711 10.60926748 -10.29296875 2.6015625 C-6.82900284 0.02415251 -4.25839161 -0.40556111 0 0 Z " fill="#212121" transform="translate(52,4)"/>
<path d="M0 0 C0.495 0.99 0.495 0.99 1 2 C-4.5897 9.08148489 -10.73998052 15.58662861 -20 17 C-20 17.66 -20 18.32 -20 19 C-18.68 19.33 -17.36 19.66 -16 20 C-16 19.34 -16 18.68 -16 18 C-14.68 18.33 -13.36 18.66 -12 19 C-18.78453561 24.55098368 -27.59956493 26.23861845 -36 28 C-36.33 28.33 -36.66 28.66 -37 29 C-38.99958364 29.04080783 -41.00045254 29.04254356 -43 29 C-42.67 28.01 -42.34 27.02 -42 26 C-41.15695313 25.89042969 -40.31390625 25.78085938 -39.4453125 25.66796875 C-38.34960938 25.50941406 -37.25390625 25.35085937 -36.125 25.1875 C-34.48917969 24.96126953 -34.48917969 24.96126953 -32.8203125 24.73046875 C-29.68761154 24.25334259 -29.68761154 24.25334259 -28 21 C-25.375 19.8125 -25.375 19.8125 -23 19 C-23.33 18.34 -23.66 17.68 -24 17 C-23.01 16.62875 -22.02 16.2575 -21 15.875 C-12.87680523 12.36799824 -6.45810836 5.89003401 0 0 Z " fill="#444444" transform="translate(106,99)"/>
<path d="M0 0 C2.67349715 0.28142075 4.55305094 0.70717131 6.8125 2.1875 C8.57533002 4.8781353 8.40018087 6.86524983 8 10 C4.96222523 12.02518318 2.45225466 12.87137828 -1 14 C-4.04741292 15.23166272 -7.05918748 16.52959374 -10 18 C-8.63312778 14.01328937 -6.84804907 11.11505367 -4 8 C-3.34 8 -2.68 8 -2 8 C-1.855625 6.865625 -1.71125 5.73125 -1.5625 4.5625 C-1 1 -1 1 0 0 Z " fill="#9C9C9C" transform="translate(86,97)"/>
<path d="M0 0 C0.66 0.33 1.32 0.66 2 1 C3.34063315 5.02189945 3.18417125 8.72662522 3.1875 12.9375 C3.19974609 13.74896484 3.21199219 14.56042969 3.22460938 15.39648438 C3.22750977 16.57500977 3.22750977 16.57500977 3.23046875 17.77734375 C3.23457764 18.49140381 3.23868652 19.20546387 3.24291992 19.94116211 C2.96326283 22.31136132 2.17114859 23.93707267 1 26 C0.34 26 -0.32 26 -1 26 C-1.33 27.32 -1.66 28.64 -2 30 C-2.33 29.01 -2.66 28.02 -3 27 C-3.66 28.32 -4.32 29.64 -5 31 C-5.28254925 27.23267666 -5.00603789 25.01408842 -3.5 21.5 C-1.39433221 16.4561911 -1.86322248 11.44921042 -2.08984375 6.07421875 C-2 3 -2 3 0 0 Z " fill="#4A4949" transform="translate(117,64)"/>
<path d="M0 0 C0.66 0.33 1.32 0.66 2 1 C2.82808784 8.78402571 -0.80274184 13.70411277 -5 20 C-6.9375 19.375 -6.9375 19.375 -9 18 C-10 15.25 -10 15.25 -10 12 C-7.67717091 7.62236056 -4.58279976 4.38913491 -1 1 C-0.67 0.67 -0.34 0.34 0 0 Z " fill="#EEEEEE" transform="translate(108,43)"/>
<path d="M0 0 C0.66 0.33 1.32 0.66 2 1 C0.02 3.97 0.02 3.97 -2 7 C-1.34 6.34 -0.68 5.68 0 5 C0.99 5.33 1.98 5.66 3 6 C2.34 7.32 1.68 8.64 1 10 C1.66 10.33 2.32 10.66 3 11 C-2.06213116 12.09465146 -7.02670968 12.41122643 -12.1875 12.6875 C-13.10208984 12.74744141 -14.01667969 12.80738281 -14.95898438 12.86914062 C-15.83232422 12.91619141 -16.70566406 12.96324219 -17.60546875 13.01171875 C-18.40106201 13.05772217 -19.19665527 13.10372559 -20.01635742 13.15112305 C-22 13 -22 13 -24 11 C-24.99 10.855625 -25.98 10.71125 -27 10.5625 C-27.99 10.376875 -28.98 10.19125 -30 10 C-30.66 9.01 -31.32 8.02 -32 7 C-32.99 6.34 -33.98 5.68 -35 5 C-31.24914266 5.38274054 -28.29282553 5.85944375 -24.875 7.5 C-19.63830335 9.96786854 -13.68803477 9.75195036 -8 10 C-7.87367187 9.360625 -7.74734375 8.72125 -7.6171875 8.0625 C-7.41351563 7.381875 -7.20984375 6.70125 -7 6 C-5.6846659 5.29848848 -4.34882408 4.63474075 -3 4 C-1.26574227 1.96682993 -1.26574227 1.96682993 0 0 Z " fill="#9C9C9C" transform="translate(79,107)"/>
<path d="M0 0 C4.95 0 9.9 0 15 0 C15.33 2.97 15.66 5.94 16 9 C13 8 13 8 11.60546875 6.44921875 C9.44800101 4.50172354 8.16791604 4.68835148 5.3125 4.8125 C4.50425781 4.83957031 3.69601563 4.86664062 2.86328125 4.89453125 C2.24839844 4.92933594 1.63351563 4.96414062 1 5 C0.67 6.65 0.34 8.3 0 10 C-0.66 10 -1.32 10 -2 10 C-2.33 10.66 -2.66 11.32 -3 12 C-3.94721072 9.39517051 -4.30222393 7.69325299 -3.17578125 5.109375 C-2.17063275 3.37417127 -1.0893855 1.68359577 0 0 Z " fill="#1F1F1F" transform="translate(107,0)"/>
<path d="M0 0 C0 0.99 0 1.98 0 3 C-1.32 3.33 -2.64 3.66 -4 4 C-3.67 5.32 -3.34 6.64 -3 8 C-10.83120786 10.34936236 -18.46769831 8.17815878 -25.67578125 4.9375 C-28.10585141 3.95730363 -30.42179898 3.43806601 -33 3 C-33 2.67 -33 2.34 -33 2 C-29.09726683 1.931531 -25.48981783 1.9274344 -21.625 2.5 C-13.59259916 3.60791736 -7.44658857 3.30959492 0 0 Z " fill="#D0CFCF" transform="translate(76,109)"/>
<path d="M0 0 C5 5 5 5 7.0625 7.375 C7.701875 7.91125 8.34125 8.4475 9 9 C11.21858253 8.86358623 11.21858253 8.86358623 13 8 C13.99 9.485 13.99 9.485 15 11 C16.98723268 11.70381157 18.98777953 12.3711811 21 13 C21.66 13.66 22.32 14.32 23 15 C25.1374401 15.38594492 25.1374401 15.38594492 27.5 15.5 C31.77777778 15.77777778 31.77777778 15.77777778 34 18 C32.35254404 19.64745596 30.44664549 19.1709616 28.1875 19.1875 C27.31480469 19.20167969 26.44210938 19.21585938 25.54296875 19.23046875 C22.85575404 18.98692702 21.34094936 18.27997855 19 17 C17.00889599 16.61709538 15.00899487 16.27395385 13 16 C12.67 14.68 12.34 13.36 12 12 C11.42765625 11.92652344 10.8553125 11.85304688 10.265625 11.77734375 C7.19063892 10.72230542 5.86237739 9.00738123 3.75 6.5625 C3.04359375 5.75941406 2.3371875 4.95632812 1.609375 4.12890625 C0 2 0 2 0 0 Z " fill="#969696" transform="translate(14,100)"/>
<path d="M0 0 C0.33 0 0.66 0 1 0 C1.76330404 8.01469243 -0.19790435 11.7080575 -5 18 C-6.83669955 21.67339909 -6.41245583 26.07600359 -6.62109375 30.12890625 C-6.74613281 31.07636719 -6.87117188 32.02382813 -7 33 C-7.99 33.495 -7.99 33.495 -9 34 C-9.33 31.69 -9.66 29.38 -10 27 C-11.175625 28.2375 -11.175625 28.2375 -12.375 29.5 C-15 32 -15 32 -17 32 C-17.33 32.99 -17.66 33.98 -18 35 C-18.495 33.515 -18.495 33.515 -19 32 C-17.1875 29.5 -17.1875 29.5 -15 27 C-12.89172945 23.83759418 -12.66182535 22.49342531 -12.375 18.8125 C-12.30023438 17.91144531 -12.22546875 17.01039062 -12.1484375 16.08203125 C-12.09945312 15.39496094 -12.05046875 14.70789062 -12 14 C-11.67 14 -11.34 14 -11 14 C-10.34 16.31 -9.68 18.62 -9 21 C-8.608125 20.175 -8.21625 19.35 -7.8125 18.5 C-6.43688291 15.84363597 -5.03261768 13.52730541 -3.375 11.0625 C-0.96783931 7.31079911 -0.27647762 4.423642 0 0 Z " fill="#878787" transform="translate(119,17)"/>
<path d="M0 0 C6.97328757 -0.70914789 6.97328757 -0.70914789 9.6796875 1.16015625 C11.86733501 3.57645619 13 5.33665945 13 8.625 C11.9045327 11.22673483 11.04134675 13.0315585 9 15 C6.3125 15.25 6.3125 15.25 4 15 C4 13.68 4 12.36 4 11 C4.66 11 5.32 11 6 11 C6 10.34 6 9.68 6 9 C7.5 7.375 7.5 7.375 9 6 C7.16116119 3.71271266 7.16116119 3.71271266 4.375 3.875 C3.59125 3.91625 2.8075 3.9575 2 4 C2 5.98 2 7.96 2 10 C1.34 9.67 0.68 9.34 0 9 C0 6.03 0 3.06 0 0 Z " fill="#313131" transform="translate(33,88)"/>
<path d="M0 0 C0.99 0.33 1.98 0.66 3 1 C-1.625 5 -1.625 5 -5 5 C-5.33 5.99 -5.66 6.98 -6 8 C-7.65365406 9.02137457 -9.32376502 10.01612294 -11 11 C-15.30969452 14.26062414 -18.34105551 17.26014243 -21 22 C-23.74790198 25.52098862 -26.26612378 28.51074919 -30 31 C-31.20482939 32.7179646 -31.20482939 32.7179646 -32.1875 34.625 C-32.785625 35.73875 -33.38375 36.8525 -34 38 C-35 35 -35 35 -34.07421875 32.95703125 C-33.61660156 32.24933594 -33.15898438 31.54164062 -32.6875 30.8125 C-32.23761719 30.09707031 -31.78773437 29.38164063 -31.32421875 28.64453125 C-30.88722656 28.10183594 -30.45023438 27.55914062 -30 27 C-29.34 27 -28.68 27 -28 27 C-27.71125 26.05125 -27.4225 25.1025 -27.125 24.125 C-26 21 -26 21 -24 19 C-23.01 19 -22.02 19 -21 19 C-20.64228516 18.13955078 -20.64228516 18.13955078 -20.27734375 17.26171875 C-18.73490626 14.53061383 -16.91933918 12.87521803 -14.5625 10.8125 C-13.78003906 10.11769531 -12.99757813 9.42289063 -12.19140625 8.70703125 C-10 7 -10 7 -7 6 C-5.97803008 5.02246356 -4.98020375 4.0194119 -4 3 C-2 1.25 -2 1.25 0 0 Z " fill="#9C9C9C" transform="translate(60,24)"/>
<path d="M0 0 C1.38226016 2.76452033 1.09525387 5.0461363 1.0625 8.125 C1.05347656 9.22070312 1.04445313 10.31640625 1.03515625 11.4453125 C1.02355469 12.28835937 1.01195312 13.13140625 1 14 C6.74546847 11.93163135 9.88614543 9.51520623 14 5 C14.66 5.33 15.32 5.66 16 6 C14.61392377 7.46761013 13.21568805 8.92374189 11.8125 10.375 C11.03519531 11.18710937 10.25789063 11.99921875 9.45703125 12.8359375 C5.64458398 16.19380044 3.06629608 17 -2 17 C-2.33 18.98 -2.66 20.96 -3 23 C-3.23460937 22.38640625 -3.46921875 21.7728125 -3.7109375 21.140625 C-5.3390582 18.4369579 -6.72633836 17.90946466 -9.625 16.75 C-10.85089844 16.24726562 -10.85089844 16.24726562 -12.1015625 15.734375 C-12.72804688 15.49203125 -13.35453125 15.2496875 -14 15 C-10.90521121 13.96840374 -9.47368607 14.02517138 -6.3125 14.4375 C-5.50425781 14.53933594 -4.69601563 14.64117187 -3.86328125 14.74609375 C-3.24839844 14.82988281 -2.63351563 14.91367187 -2 15 C-2.02320313 14.25234375 -2.04640625 13.5046875 -2.0703125 12.734375 C-2.09738281 11.25710937 -2.09738281 11.25710937 -2.125 9.75 C-2.14820313 8.77546875 -2.17140625 7.8009375 -2.1953125 6.796875 C-1.99862781 3.9803502 -1.44568916 2.39050964 0 0 Z " fill="#797878" transform="translate(32,22)"/>
<path d="M0 0 C1.216875 -0.01933594 2.43375 -0.03867187 3.6875 -0.05859375 C7.53572673 0.51773266 8.70060477 1.36036815 11 4.4375 C11.5 7 11.5 7 11 9.4375 C9.3125 11.0625 9.3125 11.0625 7 12.4375 C6.154375 13.015 5.30875 13.5925 4.4375 14.1875 C3.2309375 14.80625 3.2309375 14.80625 2 15.4375 C1.01 15.1075 0.02 14.7775 -1 14.4375 C0.093125 13.921875 1.18625 13.40625 2.3125 12.875 C6.55183965 10.4978804 7.51903023 7.96752518 9 3.4375 C-3.1308908 2.69106773 -3.1308908 2.69106773 -14 7.4375 C-14.74378906 7.96601563 -15.48757812 8.49453125 -16.25390625 9.0390625 C-18.20186798 10.46869702 -20.11146064 11.93068668 -22 13.4375 C-22.66 13.1075 -23.32 12.7775 -24 12.4375 C-19.85641285 8.79922836 -15.81533604 6.11268669 -11 3.4375 C-10.41476563 2.91285156 -9.82953125 2.38820313 -9.2265625 1.84765625 C-6.10624387 -0.12854555 -3.6646798 0.00388208 0 0 Z " fill="#868585" transform="translate(61,3.5625)"/>
<path d="M0 0 C0.66 0 1.32 0 2 0 C1.67 0.9075 1.34 1.815 1 2.75 C-0.19605723 6.07045807 -0.19605723 6.07045807 0 10 C0.66 10.66 1.32 11.32 2 12 C1.92321155 14.74075692 1.72049575 17.29282784 1.375 20 C1.26865234 21.10601563 1.26865234 21.10601563 1.16015625 22.234375 C0.50475607 27.59496152 0.50475607 27.59496152 -1.91796875 29.5390625 C-4.90330484 30.19998118 -6.40315937 29.5440674 -9 28 C-9.8125 25.875 -9.8125 25.875 -10 24 C-8.02 24.99 -8.02 24.99 -6 26 C-6 26.66 -6 27.32 -6 28 C-5.01 27.67 -4.02 27.34 -3 27 C-2.97314062 24.85423363 -2.95366912 22.70837355 -2.9375 20.5625 C-2.92589844 19.36753906 -2.91429688 18.17257813 -2.90234375 16.94140625 C-2.66098208 14.11126659 -2.66098208 14.11126659 -4 13 C-4.42511276 8.6638498 -4.23428556 6.42952353 -2.125 2.5625 C-1.42375 1.716875 -0.7225 0.87125 0 0 Z " fill="#3A3A3A" transform="translate(105,0)"/>
<path d="M0 0 C-0.1875 1.8125 -0.1875 1.8125 -1 4 C-2.11375 4.61875 -2.11375 4.61875 -3.25 5.25 C-8.73547898 8.74075935 -11.31541282 14.87422845 -13 21 C-13.33 21 -13.66 21 -14 21 C-14.71019833 13.32985808 -12.46165574 7.19817824 -7.53125 1.21875 C-5.15447931 -0.67296545 -2.924117 -0.19494113 0 0 Z " fill="#1F1F1F" transform="translate(19,33)"/>
<path d="M0 0 C0.66 0 1.32 0 2 0 C2.43957031 0.48082031 2.87914062 0.96164063 3.33203125 1.45703125 C5.46686683 3.43187915 6.82235679 3.47988093 9.6875 3.6875 C10.49574219 3.75324219 11.30398437 3.81898437 12.13671875 3.88671875 C12.75160156 3.92410156 13.36648437 3.96148437 14 4 C14 4.33 14 4.66 14 5 C11.36 5.33 8.72 5.66 6 6 C6.71027344 6.18175781 7.42054687 6.36351563 8.15234375 6.55078125 C9.07144531 6.80214844 9.99054687 7.05351563 10.9375 7.3125 C11.85402344 7.55613281 12.77054688 7.79976563 13.71484375 8.05078125 C14.46894531 8.36402344 15.22304688 8.67726563 16 9 C16.33 9.99 16.66 10.98 17 12 C12.37729427 12.42024598 9.06118548 10.97590891 5 9 C3.47439453 8.27490234 3.47439453 8.27490234 1.91796875 7.53515625 C-6.86242169 3.27515662 -6.86242169 3.27515662 -8 1 C-5.36 1.33 -2.72 1.66 0 2 C0 1.34 0 0.68 0 0 Z " fill="#525252" transform="translate(31,116)"/>
<path d="M0 0 C1.21065165 3.63195496 0.62784815 5.06531629 -0.4375 8.6875 C-0.72496094 9.68136719 -1.01242188 10.67523438 -1.30859375 11.69921875 C-1.53675781 12.45847656 -1.76492187 13.21773437 -2 14 C-3.32 14.33 -4.64 14.66 -6 15 C-6 16.32 -6 17.64 -6 19 C-6.66 19 -7.32 19 -8 19 C-7.88566637 16.74943278 -7.75813564 14.49953326 -7.625 12.25 C-7.52058594 10.37054688 -7.52058594 10.37054688 -7.4140625 8.453125 C-7.04676696 5.39001879 -6.60288714 3.58025734 -5 1 C-4.67 1.66 -4.34 2.32 -4 3 C-3.34 3 -2.68 3 -2 3 C-2 2.34 -2 1.68 -2 1 C-1.34 0.67 -0.68 0.34 0 0 Z " fill="#333333" transform="translate(24,62)"/>
<path d="M0 0 C1 2 1 2 0.0625 5.4375 C-2.9387054 17.10885433 -0.35961328 30.46511804 5.66796875 40.8828125 C6.10753906 41.58148438 6.54710937 42.28015625 7 43 C7 43.66 7 44.32 7 45 C6.01 44.67 5.02 44.34 4 44 C3.00729533 41.69645385 2.1904944 39.50512739 1.4375 37.125 C0.24265547 33.46278303 -0.83886274 30.24170589 -3 27 C-3.43857755 23.01420727 -3.32417626 19.00729232 -3.3125 15 C-3.32861328 13.89398438 -3.34472656 12.78796875 -3.36132812 11.6484375 C-3.36197266 10.58882812 -3.36261719 9.52921875 -3.36328125 8.4375 C-3.36626221 7.46683594 -3.36924316 6.49617188 -3.37231445 5.49609375 C-2.94498514 2.63116592 -2.24052665 1.75954101 0 0 Z " fill="#858585" transform="translate(7,55)"/>
<path d="M0 0 C0.99 0 1.98 0 3 0 C3.08694042 4.10403363 3.14037149 8.20783129 3.1875 12.3125 C3.21263672 13.47974609 3.23777344 14.64699219 3.26367188 15.84960938 C3.27333984 16.96787109 3.28300781 18.08613281 3.29296875 19.23828125 C3.3086792 20.26993408 3.32438965 21.30158691 3.34057617 22.36450195 C3 25 3 25 0 28 C0 18.76 0 9.52 0 0 Z " fill="#131313" transform="translate(0,56)"/>
<path d="M0 0 C0.33 0 0.66 0 1 0 C1.33 1.98 1.66 3.96 2 6 C2.33 4.35 2.66 2.7 3 1 C5.3125 0.3125 5.3125 0.3125 8 0 C9.8125 1.4375 9.8125 1.4375 11 3 C10.01 4.485 10.01 4.485 9 6 C8.34 6 7.68 6 7 6 C7 6.66 7 7.32 7 8 C6.34 8 5.68 8 5 8 C5 9.32 5 10.64 5 12 C1.125 10.125 1.125 10.125 0 9 C-0.07179964 7.48071962 -0.08392007 5.95832518 -0.0625 4.4375 C-0.05347656 3.61121094 -0.04445313 2.78492187 -0.03515625 1.93359375 C-0.02355469 1.29550781 -0.01195313 0.65742187 0 0 Z " fill="#565656" transform="translate(32,91)"/>
<path d="M0 0 C0.33 0 0.66 0 1 0 C1.36625971 4.51720311 1.36625971 4.51720311 -0.375 6.8125 C-2 8 -2 8 -4 8 C-4.309375 9.11375 -4.309375 9.11375 -4.625 10.25 C-6.43658417 13.87316833 -8.4388021 15.14817709 -12 17 C-15.34666794 16.63333319 -17.25238279 15.24524666 -19.75 13.0625 C-20.36359375 12.53785156 -20.9771875 12.01320313 -21.609375 11.47265625 C-23 10 -23 10 -23 8 C-20.10840265 8.41308534 -19.1081158 8.88490899 -17.0625 11.0625 C-15.14197625 13.19825375 -15.14197625 13.19825375 -12.4375 13.5625 C-9.77925515 13.24648573 -9.77925515 13.24648573 -8.5 10.6875 C-8.005 9.800625 -7.51 8.91375 -7 8 C-6.154375 7.505 -5.30875 7.01 -4.4375 6.5 C-1.49037839 4.6863867 -0.96727616 3.25356528 0 0 Z " fill="#6A6969" transform="translate(115,54)"/>
<path d="M0 0 C0.33 0 0.66 0 1 0 C1 1.65 1 3.3 1 5 C1.66 5 2.32 5 3 5 C3 6.32 3 7.64 3 9 C7.75404012 9.49544197 7.75404012 9.49544197 11.8125 7.5 C12.204375 7.005 12.59625 6.51 13 6 C13.66 6 14.32 6 15 6 C13.25 11.75 13.25 11.75 11 14 C8.61328125 14.35546875 8.61328125 14.35546875 6 14 C3.98046875 12.42578125 3.98046875 12.42578125 2.1875 10.3125 C1.58292969 9.62800781 0.97835937 8.94351563 0.35546875 8.23828125 C-1.24843906 5.58975338 -1.34759535 4.04535034 -1 1 C-0.67 0.67 -0.34 0.34 0 0 Z " fill="#1B1B1B" transform="translate(94,54)"/>
<path d="M0 0 C0.625 1.875 0.625 1.875 1 4 C-1.68888647 6.68888647 -4.03630185 6.62221682 -7.7109375 7.14453125 C-11.45518643 8.54383247 -13.18440352 11.22492078 -14.82617188 14.7980957 C-15.88319369 17.45101975 -16.84357379 20.1332901 -17.79882812 22.82421875 C-18.45444542 24.58064704 -19.220288 26.29502975 -20 28 C-20.99 28.33 -21.98 28.66 -23 29 C-23 28.01 -23 27.02 -23 26 C-22.34 26 -21.68 26 -21 26 C-20.773125 24.865625 -20.54625 23.73125 -20.3125 22.5625 C-18.73193774 16.25146064 -15.46108346 8.79241907 -10 5 C-7.64709618 4.39413764 -5.33013334 3.94006852 -2.92578125 3.58984375 C-2.29027344 3.39519531 -1.65476562 3.20054688 -1 3 C-0.67 2.01 -0.34 1.02 0 0 Z " fill="#868686" transform="translate(23,26)"/>
<path d="M0 0 C2.13586678 3.20380017 2.23132175 4.01939967 2.125 7.6875 C2.10695313 8.49574219 2.08890625 9.30398438 2.0703125 10.13671875 C2.04710938 10.75160156 2.02390625 11.36648437 2 12 C1.67 12 1.34 12 1 12 C0.01 7.05 0.01 7.05 -1 2 C-3.31 2 -5.62 2 -8 2 C-10.54748246 6.84422847 -10.22816428 11.49160376 -10.125 16.8125 C-10.11597656 17.69615234 -10.10695313 18.57980469 -10.09765625 19.49023438 C-10.07419637 21.66027359 -10.03832865 23.83017247 -10 26 C-10.33 26 -10.66 26 -11 26 C-11.09087891 24.48019531 -11.09087891 24.48019531 -11.18359375 22.9296875 C-11.26806704 21.57811486 -11.35271157 20.22655291 -11.4375 18.875 C-11.47681641 18.20984375 -11.51613281 17.5446875 -11.55664062 16.859375 C-11.75427983 13.75795973 -12.04374698 10.74733885 -12.57421875 7.68359375 C-13.09573063 4.39663356 -12.76916816 2.81458571 -11 0 C-7.22956538 -1.46628013 -3.86068172 -1.02951513 0 0 Z " fill="#8F8E8E" transform="translate(119,5)"/>
<path d="M0 0 C0.33 0 0.66 0 1 0 C2.61721965 7.68179333 2.94623939 14.85404764 -0.21484375 22.1171875 C-1.17066285 24.27377877 -1.17066285 24.27377877 -1.9375 27.8125 C-3.07816134 31.23448403 -3.9168482 32.25288065 -7 34 C-6 32 -5 30 -4 28 C-3.72904124 25.73340843 -3.55512003 23.46718841 -3.37890625 21.19140625 C-3 19 -3 19 -1 16 C-0.69933846 13.24582682 -0.49074701 10.57354853 -0.375 7.8125 C-0.33632812 7.06291016 -0.29765625 6.31332031 -0.2578125 5.54101562 C-0.16371784 3.69440801 -0.08077681 1.8472381 0 0 Z " fill="#AEAEAE" transform="translate(114,65)"/>
<path d="M0 0 C1.46921926 2.93843852 1 5.75397821 1 9 C1.33 9.33 1.66 9.66 2 10 C2.07258946 12.18639453 2.08373783 14.37500389 2.0625 16.5625 C2.05347656 17.76003906 2.04445313 18.95757813 2.03515625 20.19140625 C2.02355469 21.11824219 2.01195313 22.04507812 2 23 C0.68 23.33 -0.64 23.66 -2 24 C-2.33 23.01 -2.66 22.02 -3 21 C-2.34 21 -1.68 21 -1 21 C-0.9729957 19.54176788 -0.95360213 18.08339325 -0.9375 16.625 C-0.92589844 15.81289063 -0.91429688 15.00078125 -0.90234375 14.1640625 C-0.85533666 11.95062858 -0.85533666 11.95062858 -2 10 C-2.16796875 8.125 -2.16796875 8.125 -2.1875 6 C-2.20167969 5.29875 -2.21585937 4.5975 -2.23046875 3.875 C-2 2 -2 2 0 0 Z " fill="#AEAEAE" transform="translate(101,4)"/>
<path d="M0 0 C1.32 0.33 2.64 0.66 4 1 C1.83588197 3.37442417 -0.18889175 4.7168798 -3.0625 6.125 C-10.87248591 10.35594163 -17.35046946 15.81798798 -21 24 C-21.66 24 -22.32 24 -23 24 C-23.33 24.66 -23.66 25.32 -24 26 C-22.11837638 16.5291611 -13.33521573 10.41332515 -6 5 C-5.08347656 4.45988281 -4.16695312 3.91976563 -3.22265625 3.36328125 C-0.87666549 2.1938419 -0.87666549 2.1938419 0 0 Z " fill="#858484" transform="translate(48,0)"/>
<path d="M0 0 C4.23377004 0.40709327 8.29687669 0.82169217 12 3 C12.8125 5.625 12.8125 5.625 13 8 C12.505 7.360625 12.01 6.72125 11.5 6.0625 C7.91932528 3.10844335 5.62696681 3.07344392 1 3 C-2.2588123 4.91033824 -3.51563764 8.62644918 -5 12 C-5.69907414 14.73572585 -5.69907414 14.73572585 -6 17 C-6.33 17 -6.66 17 -7 17 C-7.78733017 10.83258034 -5.9885625 7.81147015 -2.41015625 2.8203125 C-1 1 -1 1 0 0 Z " fill="#838282" transform="translate(15,37)"/>
<path d="M0 0 C0.33 0.66 0.66 1.32 1 2 C-4.73933943 9.27106024 -11.11181052 14.95429421 -20 18 C-22.3125 17.625 -22.3125 17.625 -24 17 C-23.01 16.62875 -22.02 16.2575 -21 15.875 C-12.87680523 12.36799824 -6.45810836 5.89003401 0 0 Z " fill="#808080" transform="translate(106,99)"/>
<path d="M0 0 C0.33 0 0.66 0 1 0 C1 1.98 1 3.96 1 6 C0.071875 6.3403125 0.071875 6.3403125 -0.875 6.6875 C-3.61410209 8.37929835 -4.05024472 9.99244161 -5 13 C-7.31 12.67 -9.62 12.34 -12 12 C-12 8.7 -12 5.4 -12 2 C-11.01 1.67 -10.02 1.34 -9 1 C-9.2475 2.0725 -9.495 3.145 -9.75 4.25 C-10.42428622 8.02745496 -10.42428622 8.02745496 -8.0625 10.4375 C-7.381875 10.953125 -6.70125 11.46875 -6 12 C-5.7525 11.319375 -5.505 10.63875 -5.25 9.9375 C-3.75802092 6.43134917 -1.93164489 3.28379632 0 0 Z " fill="#868686" transform="translate(109,51)"/>
<path d="M0 0 C0.66 0.33 1.32 0.66 2 1 C2.05392397 3.77109307 2.09363455 6.54113818 2.125 9.3125 C2.14175781 10.09818359 2.15851563 10.88386719 2.17578125 11.69335938 C2.18222656 12.45068359 2.18867187 13.20800781 2.1953125 13.98828125 C2.20578613 14.68477783 2.21625977 15.38127441 2.22705078 16.09887695 C2 18 2 18 0 21 C-0.06058594 20.20335938 -0.12117188 19.40671875 -0.18359375 18.5859375 C-0.68912795 11.98029388 -0.68912795 11.98029388 -1.6875 5.4375 C-2 3 -2 3 0 0 Z " fill="#2A2A2A" transform="translate(117,64)"/>
<path d="M0 0 C5 5 5 5 7.0625 7.375 C7.701875 7.91125 8.34125 8.4475 9 9 C11.21858253 8.86358623 11.21858253 8.86358623 13 8 C13.99 9.485 13.99 9.485 15 11 C16.63495707 12.05104383 18.29883624 13.05988318 20 14 C16.55118337 15.14451879 15.9491178 14.98134319 12.25 13.625 C7.13013668 10.89183988 3.38246814 6.65988962 0 2 C0 1.34 0 0.68 0 0 Z " fill="#ABABAB" transform="translate(14,100)"/>
<path d="M0 0 C0.845625 0.5775 1.69125 1.155 2.5625 1.75 C4.89478774 3.32332475 7.26350229 4.68637857 9.75 6 C12.82525158 7.89246251 13.92273293 8.64850245 15 12 C14.2265625 11.566875 14.2265625 11.566875 13.4375 11.125 C10.88812923 9.85654426 10.88812923 9.85654426 7.5 9.125 C3.84222036 7.94928512 2.25748456 7.07017901 0 4 C0 2.68 0 1.36 0 0 Z " fill="#303030" transform="translate(25,102)"/>
<path d="M0 0 C1.9375 0.25 1.9375 0.25 4 1 C6 4 6 4 5.8125 6.125 C5.544375 6.74375 5.27625 7.3625 5 8 C4.01 8.33 3.02 8.66 2 9 C1.01 8.34 0.02 7.68 -1 7 C-1.25 3.9375 -1.25 3.9375 -1 1 C-0.67 0.67 -0.34 0.34 0 0 Z " fill="#6A6969" transform="translate(87,99)"/>
<path d="M0 0 C2.12438339 -0.08078641 4.2496323 -0.13909141 6.375 -0.1875 C7.55835937 -0.22230469 8.74171875 -0.25710937 9.9609375 -0.29296875 C11.46527344 -0.14794922 11.46527344 -0.14794922 13 0 C15.14762184 3.22143276 15.561068 4.2595467 15 8 C13.3125 9.625 13.3125 9.625 11 11 C10.154375 11.5775 9.30875 12.155 8.4375 12.75 C7.2309375 13.36875 7.2309375 13.36875 6 14 C5.01 13.67 4.02 13.34 3 13 C4.093125 12.484375 5.18625 11.96875 6.3125 11.4375 C10.55183965 9.0603804 11.51903023 6.53002518 13 2 C8.71 1.67 4.42 1.34 0 1 C0 0.67 0 0.34 0 0 Z " fill="#A8A7A7" transform="translate(57,5)"/>
<path d="M0 0 C0.33 0 0.66 0 1 0 C1.04898438 1.27617188 1.09796875 2.55234375 1.1484375 3.8671875 C1.22346191 5.53648072 1.29900988 7.20575046 1.375 8.875 C1.4059375 9.71675781 1.436875 10.55851562 1.46875 11.42578125 C1.50742188 12.23144531 1.54609375 13.03710938 1.5859375 13.8671875 C1.6173584 14.61081543 1.6487793 15.35444336 1.68115234 16.12060547 C1.85419551 18.24010974 1.85419551 18.24010974 4 20 C3.67 20.99 3.34 21.98 3 23 C3 22.34 3 21.68 3 21 C2.01 21 1.02 21 0 21 C0 22.65 0 24.3 0 26 C-0.268125 25.360625 -0.53625 24.72125 -0.8125 24.0625 C-1.88667752 21.66868314 -1.88667752 21.66868314 -5 21 C-4.35546875 20.69449219 -3.7109375 20.38898437 -3.046875 20.07421875 C0.17524549 16.80905467 -0.32522795 13.23385171 -0.25 8.8125 C-0.22035156 7.96751953 -0.19070312 7.12253906 -0.16015625 6.25195312 C-0.0895301 4.16848178 -0.04249205 2.08423494 0 0 Z " fill="#9C9C9C" transform="translate(116,41)"/>
<path d="M0 0 C0.33 0 0.66 0 1 0 C1.33 1.65 1.66 3.3 2 5 C2.33 3.35 2.66 1.7 3 0 C3.33 0 3.66 0 4 0 C4 2.31 4 4.62 4 7 C3.01 7.33 2.02 7.66 1 8 C0.67 13.28 0.34 18.56 0 24 C-0.33 24 -0.66 24 -1 24 C-1 18.72 -1 13.44 -1 8 C-1.99 7.67 -2.98 7.34 -4 7 C-3.525625 6.5875 -3.05125 6.175 -2.5625 5.75 C-0.83733482 3.817815 -0.43415125 2.51807725 0 0 Z " fill="#424242" transform="translate(4,48)"/>
<path d="M0 0 C0.33 0.66 0.66 1.32 1 2 C-2.04213267 3.52106634 -5.28047572 3.37429338 -8.625 3.5625 C-9.68460937 3.62727539 -9.68460937 3.62727539 -10.765625 3.69335938 C-12.51018537 3.79944751 -14.25506697 3.90022889 -16 4 C-15.67 3.01 -15.34 2.02 -15 1 C-9.92928099 0.28832014 -5.11791642 -0.10662326 0 0 Z " fill="#121212" transform="translate(78,120)"/>
<path d="M0 0 C2.10544013 0.28232721 4.20933589 0.5761898 6.3125 0.875 C7.48425781 1.03742188 8.65601563 1.19984375 9.86328125 1.3671875 C13 2 13 2 16 4 C16 4.66 16 5.32 16 6 C10.01382095 6.5441981 5.1782173 3.69267299 0 1 C0 0.67 0 0.34 0 0 Z " fill="#7E7E7E" transform="translate(32,122)"/>
<path d="M0 0 C1.63001953 0.01353516 1.63001953 0.01353516 3.29296875 0.02734375 C4.12441406 0.03894531 4.95585938 0.05054687 5.8125 0.0625 C5.8125 0.3925 5.8125 0.7225 5.8125 1.0625 C5.17441406 1.19527344 4.53632812 1.32804687 3.87890625 1.46484375 C2.63947266 1.72974609 2.63947266 1.72974609 1.375 2 C0.55128906 2.17402344 -0.27242187 2.34804687 -1.12109375 2.52734375 C-3.16411204 2.87002994 -3.16411204 2.87002994 -4.1875 4.0625 C-6.18708364 4.10330783 -8.18795254 4.10504356 -10.1875 4.0625 C-9.8575 3.0725 -9.5275 2.0825 -9.1875 1.0625 C-5.90230525 -0.03256492 -3.45086585 -0.03710608 0 0 Z " fill="#858484" transform="translate(73.1875,123.9375)"/>
<path d="M0 0 C0.66 0 1.32 0 2 0 C2.99 3.3 3.98 6.6 5 10 C5.66 10 6.32 10 7 10 C7.28875 10.61875 7.5775 11.2375 7.875 11.875 C8.93720042 14.13325765 8.93720042 14.13325765 11 16 C9.35 15.67 7.7 15.34 6 15 C6 14.34 6 13.68 6 13 C5.34 13 4.68 13 4 13 C3.32694982 11.39850114 2.66177773 9.79368971 2 8.1875 C1.62875 7.29417969 1.2575 6.40085937 0.875 5.48046875 C0 3 0 3 0 0 Z " fill="#6E6E6E" transform="translate(73,0)"/>
<path d="M0 0 C0.66 0.33 1.32 0.66 2 1 C2 1.66 2 2.32 2 3 C7.28 3 12.56 3 18 3 C18 3.66 18 4.32 18 5 C16.86820313 4.98839844 15.73640625 4.97679687 14.5703125 4.96484375 C13.08854331 4.95546546 11.60677235 4.9463653 10.125 4.9375 C9.37863281 4.92912109 8.63226563 4.92074219 7.86328125 4.91210938 C3.80154422 4.79311916 3.80154422 4.79311916 0 6 C0 5.34 0 4.68 0 4 C-0.99 3.67 -1.98 3.34 -3 3 C-2.01 2.01 -1.02 1.02 0 0 Z " fill="#484747" transform="translate(52,0)"/>
<path d="M0 0 C-0.33 1.32 -0.66 2.64 -1 4 C-3.64 4.66 -6.28 5.32 -9 6 C-8.67 4.68 -8.34 3.36 -8 2 C-5.10888212 0.47835901 -3.28176588 0 0 0 Z " fill="#E6E5E5" transform="translate(89,111)"/>
<path d="M0 0 C2.4375 0.375 2.4375 0.375 5 1 C5.33 1.66 5.66 2.32 6 3 C4.68 4.32 3.36 5.64 2 7 C1.01 6.34 0.02 5.68 -1 5 C-0.67 3.35 -0.34 1.7 0 0 Z " fill="#7C7B7B" transform="translate(37,91)"/>
<path d="M0 0 C0.99 0 1.98 0 3 0 C3.18175781 0.66386719 3.36351562 1.32773438 3.55078125 2.01171875 C4.90696267 6.77574066 6.26039451 10.82536306 9 15 C9 15.66 9 16.32 9 17 C8.01 16.67 7.02 16.34 6 16 C4.98294439 13.67488154 4.14704591 11.46680347 3.375 9.0625 C1.89845072 4.44668877 1.89845072 4.44668877 0 0 Z " fill="#767575" transform="translate(5,83)"/>
<path d="M0 0 C-0.875 4.875 -0.875 4.875 -2 6 C-3.66617115 6.04063832 -5.33388095 6.042721 -7 6 C-7 4.68 -7 3.36 -7 2 C-2.25 0 -2.25 0 0 0 Z " fill="#1E1E1E" transform="translate(44,97)"/>
<path d="M0 0 C0.33 0 0.66 0 1 0 C1.33 5.28 1.66 10.56 2 16 C2.99 16 3.98 16 5 16 C5 17.98 5 19.96 5 22 C0.26266708 18.27727697 0.26266708 18.27727697 -0.41259766 14.99365234 C-0.49122262 12.70744144 -0.43694547 10.47155295 -0.3125 8.1875 C-0.28994141 7.39923828 -0.26738281 6.61097656 -0.24414062 5.79882812 C-0.18554161 3.86506071 -0.09586827 1.93227833 0 0 Z " fill="#9A9A9A" transform="translate(20,76)"/>
<path d="M0 0 C0.66 0.33 1.32 0.66 2 1 C2.68630056 7.45122526 0.72916748 11.73396349 -3 17 C-3.66 17.33 -4.32 17.66 -5 18 C-3 13 -1 8 1 3 C0.01 3.33 -0.98 3.66 -2 4 C-1.34 2.68 -0.68 1.36 0 0 Z " fill="#D0CFCF" transform="translate(108,43)"/>
<path d="M0 0 C0.33 0 0.66 0 1 0 C1.02692484 2.29160319 1.04636124 4.58329546 1.0625 6.875 C1.07410156 8.15117187 1.08570312 9.42734375 1.09765625 10.7421875 C1 14 1 14 0 16 C-2.31 15.34 -4.62 14.68 -7 14 C-7.33 12.68 -7.66 11.36 -8 10 C-6.02 10.99 -6.02 10.99 -4 12 C-4 12.66 -4 13.32 -4 14 C-3.01 13.67 -2.02 13.34 -1 13 C-0.67 8.71 -0.34 4.42 0 0 Z " fill="#6D6C6C" transform="translate(103,14)"/>
<path d="M0 0 C-0.33 1.65 -0.66 3.3 -1 5 C-2.423125 5.4640625 -2.423125 5.4640625 -3.875 5.9375 C-6.86080408 6.87394742 -6.86080408 6.87394742 -9 8 C-7.07834179 2.53066508 -6.10288444 0 0 0 Z " fill="#6A6969" transform="translate(85,107)"/>
<path d="M0 0 C0.66 0.33 1.32 0.66 2 1 C1.67 1.33 1.34 1.66 1 2 C1.99 2.66 2.98 3.32 4 4 C1.69 4.33 -0.62 4.66 -3 5 C-3 5.66 -3 6.32 -3 7 C-4.65 7 -6.3 7 -8 7 C-7.67 6.01 -7.34 5.02 -7 4 C-5.35448038 3.28272222 -3.68577711 2.61674772 -2 2 C-1.34 1.34 -0.68 0.68 0 0 Z " fill="#353535" transform="translate(93,112)"/>
<path d="M0 0 C0.33 0 0.66 0 1 0 C0.67 2.64 0.34 5.28 0 8 C0.99 7.67 1.98 7.34 3 7 C2.1875 8.9375 2.1875 8.9375 1 11 C0.01 11.33 -0.98 11.66 -2 12 C-2 11.34 -2 10.68 -2 10 C-2.99 10.33 -3.98 10.66 -5 11 C-5 10.34 -5 9.68 -5 9 C-4.01 8.34 -3.02 7.68 -2 7 C-0.7811879 3.44327821 -0.7811879 3.44327821 0 0 Z " fill="#404040" transform="translate(111,50)"/>
<path d="M0 0 C0.33 0 0.66 0 1 0 C1.04898438 1.19238281 1.09796875 2.38476562 1.1484375 3.61328125 C1.22347604 5.17971068 1.2990234 6.74611579 1.375 8.3125 C1.4059375 9.09818359 1.436875 9.88386719 1.46875 10.69335938 C1.52675781 11.8293457 1.52675781 11.8293457 1.5859375 12.98828125 C1.6173584 13.68477783 1.6487793 14.38127441 1.68115234 15.09887695 C1.92118253 17.32532739 1.92118253 17.32532739 4 20 C4.125 22.6875 4.125 22.6875 4 25 C3.71125 24.38125 3.4225 23.7625 3.125 23.125 C2.06279958 20.86674235 2.06279958 20.86674235 0 19 C-0.22705078 17.02880859 -0.22705078 17.02880859 -0.1953125 14.6484375 C-0.18886719 13.79765625 -0.18242188 12.946875 -0.17578125 12.0703125 C-0.15902344 11.18085937 -0.14226562 10.29140625 -0.125 9.375 C-0.11597656 8.4778125 -0.10695313 7.580625 -0.09765625 6.65625 C-0.0740497 4.43723414 -0.0411231 2.21874923 0 0 Z " fill="#D0CFCF" transform="translate(117,40)"/>
<path d="M0 0 C4.2967595 0.57342494 7.18479721 2.10158964 10.8125 4.4375 C11.78832031 5.05496094 12.76414062 5.67242188 13.76953125 6.30859375 C14.50558594 6.86675781 15.24164063 7.42492187 16 8 C16 8.66 16 9.32 16 10 C14.0625 9.625 14.0625 9.625 12 9 C11.67 8.34 11.34 7.68 11 7 C10.0925 6.54625 9.185 6.0925 8.25 5.625 C5.10136048 4.05068024 2.66842312 2.27600795 0 0 Z " fill="#7C7B7B" transform="translate(76,19)"/>
<path d="M0 0 C3.83286936 0.54755277 5.40098264 2.2333041 8 5 C8.99 5.66 9.98 6.32 11 7 C8.3125 7.3125 8.3125 7.3125 5 7 C2.125 4.625 2.125 4.625 0 2 C0 1.34 0 0.68 0 0 Z " fill="#606060" transform="translate(92,62)"/>
<path d="M0 0 C0.33 0 0.66 0 1 0 C1.34530062 3.71198163 1.25629673 5.57283878 -0.6875 8.8125 C-3.23055813 11.21809552 -4.52269657 11.90849201 -8 12 C-8.66 11.34 -9.32 10.68 -10 10 C-8.576875 9.5978125 -8.576875 9.5978125 -7.125 9.1875 C-3.74732727 8.25013412 -3.74732727 8.25013412 -2 5 C-1.34 5 -0.68 5 0 5 C0 3.35 0 1.7 0 0 Z " fill="#888787" transform="translate(47,93)"/>
<path d="M0 0 C0 0.66 0 1.32 0 2 C-1.60149886 2.67305018 -3.20631029 3.33822227 -4.8125 4 C-5.70582031 4.37125 -6.59914063 4.7425 -7.51953125 5.125 C-10 6 -10 6 -13 6 C-8.86897764 1.57390462 -6.14917493 -0.34162083 0 0 Z " fill="#7C7C7C" transform="translate(76,17)"/>
<path d="M0 0 C1.32 0 2.64 0 4 0 C4 2.64 4 5.28 4 8 C3.01 7.67 2.02 7.34 1 7 C0.67 4.69 0.34 2.38 0 0 Z " fill="#ECECEC" transform="translate(124,0)"/>
<path d="M0 0 C2.03144641 0.93446535 4.03533587 1.93224776 6 3 C5.67 2.34 5.34 1.68 5 1 C7.475 1.99 7.475 1.99 10 3 C10 3.66 10 4.32 10 5 C5.75519536 5.33292585 3.64457375 5.43885872 0.0625 3 C-0.618125 2.34 -1.29875 1.68 -2 1 C-1.34 0.67 -0.68 0.34 0 0 Z " fill="#434343" transform="translate(33,110)"/>
<path d="M0 0 C0.66 0 1.32 0 2 0 C1.1875 2.9375 1.1875 2.9375 0 6 C-0.99 6.33 -1.98 6.66 -3 7 C-2.67 9.31 -2.34 11.62 -2 14 C-2.66 13.67 -3.32 13.34 -4 13 C-4.45374191 7.32822615 -3.65083143 4.4024732 0 0 Z " fill="#757575" transform="translate(105,0)"/>
<path d="M0 0 C1.32 0.33 2.64 0.66 4 1 C0.63263969 3.82858266 -2.87451958 5.4998253 -7 7 C-7.99 6.67 -8.98 6.34 -10 6 C-9.34 6 -8.68 6 -8 6 C-7.67 5.01 -7.34 4.02 -7 3 C-3.535 2.505 -3.535 2.505 0 2 C0 1.34 0 0.68 0 0 Z " fill="#868585" transform="translate(90,117)"/>
<path d="M0 0 C0.66 0.33 1.32 0.66 2 1 C-3.75 6 -3.75 6 -6 6 C-6.33 7.32 -6.66 8.64 -7 10 C-8.65 10 -10.3 10 -12 10 C-9.05508463 6.80967502 -7.23990994 4.90855213 -3 4 C-2.67 3.01 -2.34 2.02 -2 1 C-1.34 0.67 -0.68 0.34 0 0 Z " fill="#989797" transform="translate(106,107)"/>
<path d="M0 0 C0.66 0 1.32 0 2 0 C1.6596875 1.5778125 1.6596875 1.5778125 1.3125 3.1875 C0.96819556 7.38801417 1.51227742 8.7162062 4 12 C2.35 11.67 0.7 11.34 -1 11 C-1.02688151 9.35425434 -1.04634123 7.70838587 -1.0625 6.0625 C-1.07410156 5.14597656 -1.08570312 4.22945312 -1.09765625 3.28515625 C-1 1 -1 1 0 0 Z " fill="#818080" transform="translate(98,52)"/>
<path d="M0 0 C2.97 0.99 5.94 1.98 9 3 C9.33 4.65 9.66 6.3 10 8 C9.2575 7.071875 9.2575 7.071875 8.5 6.125 C5.11778563 3.25011778 2.32742915 2.86548583 -2 2 C-1.34 1.34 -0.68 0.68 0 0 Z " fill="#9C9C9C" transform="translate(18,37)"/>
<path d="M0 0 C0.33 0 0.66 0 1 0 C1.25 2.75 1.25 2.75 1 6 C-1 8.375 -1 8.375 -3 10 C-2.25 2.25 -2.25 2.25 0 0 Z " fill="#7F7F7F" transform="translate(127,18)"/>
<path d="M0 0 C0.66 0 1.32 0 2 0 C2 3.63 2 7.26 2 11 C0.68 11 -0.64 11 -2 11 C-1.34 10.67 -0.68 10.34 0 10 C0 6.7 0 3.4 0 0 Z " fill="#D0CFCF" transform="translate(100,15)"/>
<path d="M0 0 C1.21065165 3.63195496 0.62784815 5.06531629 -0.4375 8.6875 C-0.72496094 9.68136719 -1.01242188 10.67523438 -1.30859375 11.69921875 C-1.53675781 12.45847656 -1.76492187 13.21773437 -2 14 C-2.33 14 -2.66 14 -3 14 C-3.32374517 8.49633208 -3.53286034 4.56327794 0 0 Z " fill="#898989" transform="translate(24,62)"/>
<path d="M0 0 C4.04420651 1.77945087 7.46078487 4.39529673 11 7 C10.01 7.33 9.02 7.66 8 8 C5.95703125 6.85546875 5.95703125 6.85546875 3.8125 5.1875 C3.09707031 4.64480469 2.38164063 4.10210937 1.64453125 3.54296875 C1.10183594 3.03378906 0.55914062 2.52460938 0 2 C0 1.34 0 0.68 0 0 Z " fill="#848383" transform="translate(84,16)"/>
<path d="M0 0 C0.33 0 0.66 0 1 0 C1.08086147 1.79093191 1.13912702 3.58289628 1.1875 5.375 C1.23970703 6.87160156 1.23970703 6.87160156 1.29296875 8.3984375 C1.19628906 9.25695312 1.09960938 10.11546875 1 11 C0.01 11.66 -0.98 12.32 -2 13 C-1.855625 12.154375 -1.71125 11.30875 -1.5625 10.4375 C-0.9941203 6.96406851 -0.48797607 3.48554338 0 0 Z " fill="#B0B0B0" transform="translate(120,79)"/>
<path d="M0 0 C-1 3 -1 3 -3.3125 4.75 C-6 6 -6 6 -8.3125 5.6875 C-8.869375 5.460625 -9.42625 5.23375 -10 5 C-9.4225 4.731875 -8.845 4.46375 -8.25 4.1875 C-5.94252104 3.04946754 -5.94252104 3.04946754 -3.875 1.375 C-2 0 -2 0 0 0 Z " fill="#888787" transform="translate(109,65)"/>
<path d="M0 0 C0.66 0 1.32 0 2 0 C0.18690997 3.77727089 -1.9073259 7.37269822 -4 11 C-5 8 -5 8 -4.07421875 5.95703125 C-3.61660156 5.24933594 -3.15898437 4.54164062 -2.6875 3.8125 C-2.23761719 3.09707031 -1.78773437 2.38164063 -1.32421875 1.64453125 C-0.88722656 1.10183594 -0.45023438 0.55914062 0 0 Z " fill="#858585" transform="translate(30,51)"/>
<path d="M0 0 C2.8125 0.1875 2.8125 0.1875 6 1 C7.875 3.5625 7.875 3.5625 9 6 C8.1646875 5.566875 8.1646875 5.566875 7.3125 5.125 C4.91505355 3.9586747 2.48403061 2.9660119 0 2 C0 1.34 0 0.68 0 0 Z " fill="#1E1E1E" transform="translate(31,108)"/>
<path d="M0 0 C0.99 0.33 1.98 0.66 3 1 C3.33 1.99 3.66 2.98 4 4 C2.68 4.33 1.36 4.66 0 5 C-0.33 4.01 -0.66 3.02 -1 2 C-0.67 1.34 -0.34 0.68 0 0 Z " fill="#3A3A3A" transform="translate(88,101)"/>
<path d="M0 0 C-1.175625 0.928125 -1.175625 0.928125 -2.375 1.875 C-4.96837647 3.89858661 -4.96837647 3.89858661 -7 6 C-6.67 4.02 -6.34 2.04 -6 0 C-2.25 -1.125 -2.25 -1.125 0 0 Z " fill="#3A3A3A" transform="translate(36,39)"/>
</svg>
