<?xml version="1.0" encoding="UTF-8"?>
<svg version="1.1" xmlns="http://www.w3.org/2000/svg" width="128" height="128">
<path d="M0 0 C42.24 0 84.48 0 128 0 C128 42.24 128 84.48 128 128 C85.76 128 43.52 128 0 128 C0 85.76 0 43.52 0 0 Z " fill="#FCFCFC" transform="translate(0,0)"/>
<path d="M0 0 C3.03320349 0.58535506 5.99979955 1.26948244 9 2 C10.27875 2.29261719 11.5575 2.58523437 12.875 2.88671875 C24.94703832 5.70755407 24.94703832 5.70755407 29.5 8.25 C34.3606966 10.6803483 38.31703836 10.40411068 43.515625 9.62109375 C51.07822356 8.54557449 51.07822356 8.54557449 54.625 10.8125 C55.40875 11.534375 56.1925 12.25625 57 13 C57 13.66 57 14.32 57 15 C57.57363281 15.25265625 58.14726563 15.5053125 58.73828125 15.765625 C61.27581613 17.15053177 63.08251862 18.77154756 65.1875 20.75 C68.21840617 23.51669889 71.21138098 25.88405379 74.6875 28.0625 C78.40329018 30.42532825 80.97741421 32.96988562 83.61328125 36.484375 C85.2362224 38.2581811 86.83229752 38.99952193 89 40 C90.02019573 40.9793879 91.02149805 41.97895449 92 43 C93.485 43.99 93.485 43.99 95 45 C95 45.66 95 46.32 95 47 C95.58136719 47.26039062 96.16273437 47.52078125 96.76171875 47.7890625 C99.15025497 49.08128978 100.86044288 50.49280598 102.8125 52.375 C103.75029297 53.25285156 103.75029297 53.25285156 104.70703125 54.1484375 C106 56 106 56 105.890625 57.98828125 C103.48096118 63.43116225 98.55446511 67.61985921 94.0625 71.375 C87.62128279 76.85128778 82.56411058 83.33716225 79 91 C78.319375 91.845625 77.63875 92.69125 76.9375 93.5625 C74.85806526 95.88199275 74.85806526 95.88199275 74.125 98.75 C73.75375 99.4925 73.3825 100.235 73 101 C69.875 101.8125 69.875 101.8125 67 102 C67 102.66 67 103.32 67 104 C62.39709262 103.57182257 58.43951787 102.50255837 54.0625 101 C44.32319515 97.95577787 34.66382368 97.96796382 24.5625 98.01953125 C22.87688965 98.02774902 22.87688965 98.02774902 21.15722656 98.03613281 C18.91426385 98.05349022 16.67135608 98.08248076 14.42871094 98.12402344 C13.39520508 98.13594727 12.36169922 98.14787109 11.296875 98.16015625 C10.37229492 98.17699463 9.44771484 98.19383301 8.49511719 98.21118164 C5.86170807 97.98829525 4.25570121 97.33804394 2 96 C2.11486425 93.62412376 2.24158156 91.24984829 2.375 88.875 C2.42140625 87.87726563 2.42140625 87.87726563 2.46875 86.859375 C2.71919633 82.60178738 3.47528197 78.97914217 5 75 C8.375 75.3125 8.375 75.3125 12 76 C12.66 76.99 13.32 77.98 14 79 C13.67 79.99 13.34 80.98 13 82 C15.66354487 81.01068333 18.05903713 79.96457772 20.5 78.5 C22.94096287 77.03542228 25.33645513 75.98931667 28 75 C23.85906302 74.79029441 23.85906302 74.79029441 20 76 C17.02030947 76.40632144 14.8997501 76.54554984 12.2734375 74.953125 C10.625 73.625 10.625 73.625 8 71 C8 70.34 8 69.68 8 69 C7.360625 68.71125 6.72125 68.4225 6.0625 68.125 C4 67 4 67 3 65 C3.00422222 63.1464451 3.01522717 61.29259669 3.06469727 59.43969727 C3.33446044 49.08494152 2.03411951 39.31975332 0.34179688 29.12792969 C-1.14898979 19.84671788 -1.41649205 10.38332079 -1 1 C-0.67 0.67 -0.34 0.34 0 0 Z " fill="#E0D5CC" transform="translate(16,4)"/>
<path d="M0 0 C1.23556641 0.01740234 1.23556641 0.01740234 2.49609375 0.03515625 C3.32238281 0.04417969 4.14867187 0.05320312 5 0.0625 C5.63808594 0.07410156 6.27617187 0.08570313 6.93359375 0.09765625 C6.93359375 0.75765625 6.93359375 1.41765625 6.93359375 2.09765625 C8.04734375 2.20078125 9.16109375 2.30390625 10.30859375 2.41015625 C16.54647412 3.19542133 22.60434612 4.74669262 28.05859375 7.91015625 C31.50881797 9.33524886 33.34712034 8.74046143 36.83984375 7.65234375 C40.74261148 6.61840155 45.27017364 6.26594619 48.93359375 8.09765625 C48.93359375 8.75765625 48.93359375 9.41765625 48.93359375 10.09765625 C49.59359375 10.09765625 50.25359375 10.09765625 50.93359375 10.09765625 C53.21562603 12.08523276 54.81833066 13.89332622 56.30859375 16.53515625 C59.6043682 21.73233903 64.88363791 24.76927627 69.93359375 28.09765625 C71.93359375 30.09765625 71.93359375 30.09765625 71.93359375 34.09765625 C71.31484375 34.53078125 70.69609375 34.96390625 70.05859375 35.41015625 C67.03318683 37.81268527 66.76549037 40.42344618 65.93359375 44.09765625 C61.96190173 41.92446628 59.16274018 40.32680268 55.93359375 37.09765625 C55.93359375 40.06765625 55.93359375 43.03765625 55.93359375 46.09765625 C54.27744718 46.47984392 52.60902351 46.81160727 50.93359375 47.09765625 C50.60359375 46.76765625 50.27359375 46.43765625 49.93359375 46.09765625 C47.39079855 45.60434501 44.83952685 45.19787588 42.28125 44.79296875 C39.93359375 44.09765625 39.93359375 44.09765625 37.93359375 41.09765625 C39.93359375 39.09765625 39.93359375 39.09765625 42.93359375 38.28515625 C46.14766165 37.4120535 46.14766165 37.4120535 47.12109375 34.5234375 C47.38921875 33.72292969 47.65734375 32.92242187 47.93359375 32.09765625 C47.23234375 31.95070313 46.53109375 31.80375 45.80859375 31.65234375 C39.18884674 30.08734921 33.76031413 28.06267807 28.93359375 23.09765625 C28.93359375 22.43765625 28.93359375 21.77765625 28.93359375 21.09765625 C27.81984375 21.77828125 27.81984375 21.77828125 26.68359375 22.47265625 C24.46428797 23.78406421 22.25391553 24.98046428 19.93359375 26.09765625 C19.93359375 26.75765625 19.93359375 27.41765625 19.93359375 28.09765625 C18.28356547 29.45152561 16.61615505 30.78443767 14.93359375 32.09765625 C14.60359375 32.75765625 14.27359375 33.41765625 13.93359375 34.09765625 C10.9921875 34.51171875 10.9921875 34.51171875 7.37109375 34.72265625 C6.17355469 34.79742187 4.97601563 34.8721875 3.7421875 34.94921875 C2.81535156 34.99820313 1.88851563 35.0471875 0.93359375 35.09765625 C-1.41145687 29.47713007 -1.46594234 24.0915484 -1.62890625 18.09765625 C-1.80883014 12.32477918 -2.08198188 6.79794214 -3.06640625 1.09765625 C-2.06640625 0.09765625 -2.06640625 0.09765625 0 0 Z " fill="#746B65" transform="translate(21.06640625,7.90234375)"/>
<path d="M0 0 C1.23076923 5.41538462 1.23076923 5.41538462 0.0625 8.375 C-0.4634375 9.179375 -0.4634375 9.179375 -1 10 C-2.32 10 -3.64 10 -5 10 C-4.505 11.98 -4.505 11.98 -4 14 C0.10640106 14.45947584 0.10640106 14.45947584 2.5625 11.5625 C3.366875 10.716875 4.17125 9.87125 5 9 C5.99 8.67 6.98 8.34 8 8 C8 7.34 8 6.68 8 6 C13.36000789 3.74315457 17.1977825 2.63736141 23 3 C24.4606285 5.64738916 25 6.89448334 25 10 C25.98355469 9.67386719 26.96710938 9.34773438 27.98046875 9.01171875 C32.1320976 7.82718199 36.02021424 7.73691758 40.3125 7.8125 C41.02728516 7.81314453 41.74207031 7.81378906 42.47851562 7.81445312 C47.71779123 7.85889561 47.71779123 7.85889561 50 9 C48.48366689 13.96084288 45.53001408 17.11070386 42.125 20.875 C38.06482669 25.36983906 34.91349852 29.68526644 32 35 C31.154375 35.99 30.30875 36.98 29.4375 38 C26.75831586 41.2974574 25.49703111 44.06044444 24 48 C22.35 48 20.7 48 19 48 C18.67 47.34 18.34 46.68 18 46 C17.01 45.67 16.02 45.34 15 45 C14.67 45.99 14.34 46.98 14 48 C9.32307692 46.52307692 9.32307692 46.52307692 7.6875 43.875 C7.460625 43.25625 7.23375 42.6375 7 42 C3.52165382 42.67462993 3.52165382 42.67462993 0.08599854 43.53379822 C-2.08048189 44.01798697 -3.91058957 44.08482498 -6.12597656 44.02172852 C-6.92650452 44.00163223 -7.72703247 43.98153595 -8.55181885 43.96083069 C-9.40612488 43.93379562 -10.26043091 43.90676056 -11.140625 43.87890625 C-12.02280701 43.85529526 -12.90498901 43.83168427 -13.81390381 43.80735779 C-16.62610708 43.73090504 -19.43802214 43.64680169 -22.25 43.5625 C-24.15884016 43.5092609 -26.0676943 43.45652063 -27.9765625 43.40429688 C-32.6512235 43.27531479 -37.32564068 43.13947175 -42 43 C-41.67 41.68 -41.34 40.36 -41 39 C-40.21496094 39.08378906 -39.42992187 39.16757813 -38.62109375 39.25390625 C-32.80811988 39.81737243 -27.78747084 39.8735805 -22 39 C-20.55876898 39.13052658 -19.120776 39.30024028 -17.6875 39.5 C-11.0731856 40.38190859 -4.47714449 39.51133371 2 38 C0.9284589 35.77449157 -0.20412391 33.66829864 -1.5 31.5625 C-2.95343084 29.07955564 -3.93720777 26.66870256 -5 24 C-5.81225372 22.24011695 -6.64569762 20.48985973 -7.5 18.75 C-8.13421875 17.44289063 -8.13421875 17.44289063 -8.78125 16.109375 C-9.82328303 13.85889085 -9.82328303 13.85889085 -12 13 C-12 11.35 -12 9.7 -12 8 C-9.69 8 -7.38 8 -5 8 C-5.061875 7.05125 -5.12375 6.1025 -5.1875 5.125 C-5.0946875 3.578125 -5.0946875 3.578125 -5 2 C-2 0 -2 0 0 0 Z " fill="#9F9891" transform="translate(64,56)"/>
<path d="M0 0 C7.57712384 0.60135903 14.58003573 1.72002382 21 6 C24.6244512 6.19076059 27.94591533 6.15429591 31.53515625 5.62890625 C39.05243692 4.52909294 39.05243692 4.52909294 42.625 6.8125 C43.40875 7.534375 44.1925 8.25625 45 9 C45 9.66 45 10.32 45 11 C45.57363281 11.25265625 46.14726563 11.5053125 46.73828125 11.765625 C49.27581613 13.15053177 51.08251862 14.77154756 53.1875 16.75 C56.21840617 19.51669889 59.21138098 21.88405379 62.6875 24.0625 C66.40329018 26.42532825 68.97741421 28.96988562 71.61328125 32.484375 C73.2362224 34.2581811 74.83229752 34.99952193 77 36 C78.02019573 36.9793879 79.02149805 37.97895449 80 39 C81.485 39.99 81.485 39.99 83 41 C83 41.66 83 42.32 83 43 C83.58136719 43.26039062 84.16273437 43.52078125 84.76171875 43.7890625 C87.15025497 45.08128978 88.86044288 46.49280598 90.8125 48.375 C91.75029297 49.25285156 91.75029297 49.25285156 92.70703125 50.1484375 C94 52 94 52 93.890625 53.98828125 C91.48096118 59.43116225 86.55446511 63.61985921 82.0625 67.375 C75.61726769 72.8547014 70.57494562 79.33940225 67 87 C65.40257858 89.39126195 63.71146573 91.68720848 62 94 C61.67 93.01 61.34 92.02 61 91 C62.23125158 88.53749683 63.44146638 86.53424955 65.4375 84.625 C67.23174047 82.90392513 67.23174047 82.90392513 68.6875 79.875 C70.908139 75.83360718 73.8627538 72.6674566 76.96484375 69.28125 C80.31951692 65.52092537 83.7362949 61.52741021 86 57 C82.77085248 56.97082772 79.54173917 56.95314337 76.3125 56.9375 C75.40048828 56.92912109 74.48847656 56.92074219 73.54882812 56.91210938 C72.21948242 56.90727539 72.21948242 56.90727539 70.86328125 56.90234375 C70.05157471 56.89710693 69.23986816 56.89187012 68.40356445 56.88647461 C65.85135327 57.0070209 63.48973863 57.440051 61 58 C60.34 56.02 59.68 54.04 59 52 C53.5814234 51.77422598 49.22512279 52.53329887 44 54 C44 54.66 44 55.32 44 56 C39.52941176 60 39.52941176 60 37 60 C36.67 60.99 36.34 61.98 36 63 C34.35 62.67 32.7 62.34 31 62 C31 60.68 31 59.36 31 58 C32.32 58 33.64 58 35 58 C35.495 53.05 35.495 53.05 36 48 C34.68 48.66 33.36 49.32 32 50 C32 49.01 32 48.02 32 47 C30.515 46.505 30.515 46.505 29 46 C28.01 48.475 28.01 48.475 27 51 C25.68 51 24.36 51 23 51 C22.32942113 49.2097939 21.6636531 47.41778511 21 45.625 C20.62875 44.62726562 20.2575 43.62953125 19.875 42.6015625 C19 40 19 40 19 38 C20.32 38.33 21.64 38.66 23 39 C23.268125 38.236875 23.53625 37.47375 23.8125 36.6875 C24.96603641 34.07686496 25.98629865 32.92614911 28 31 C28.33 30.01 28.66 29.02 29 28 C30.62566606 28.47690204 32.25051311 28.95659666 33.875 29.4375 C34.77992187 29.70433594 35.68484375 29.97117187 36.6171875 30.24609375 C39 31 39 31 41 32 C41 34.25 41 34.25 40 37 C37.47332213 38.67198768 34.80063432 39.85805571 32 41 C34.71814649 44.15710182 36.85216982 44.44212421 40.9921875 44.81640625 C43.37116513 45.03393922 45.66797175 45.48986882 48 46 C48 43.03 48 40.06 48 37 C48.99 37 49.98 37 51 37 C51.33 37.99 51.66 38.98 52 40 C54.28891028 41.37334617 56.45752447 42.15250816 59 43 C59.2475 41.88625 59.495 40.7725 59.75 39.625 C61 36 61 36 63.125 34.5625 C63.74375 34.376875 64.3625 34.19125 65 34 C63.65443254 29.60999219 62.02995524 27.94258024 58.1875 25.5 C48.73994431 19.21983292 48.73994431 19.21983292 47 14 C46.01 13.34 45.02 12.68 44 12 C44 11.34 44 10.68 44 10 C43.34 10 42.68 10 42 10 C42 9.34 42 8.68 42 8 C34.82905041 7.73483675 34.82905041 7.73483675 27.875 9.25 C23.54530906 10.0880047 22.24662923 9.41030039 18.5625 7.2265625 C12.78790982 4.46250562 6.21637985 3.41830026 0 2 C0 1.34 0 0.68 0 0 Z " fill="#E5B48B" transform="translate(28,8)"/>
<path d="M0 0 C2.375 -0.125 2.375 -0.125 5 0 C5.66 0.66 6.32 1.32 7 2 C6.7578125 4.390625 6.7578125 4.390625 6.125 7.25 C5.24971333 11.26080726 4.8905876 14.89095654 5 19 C6.18078125 19.02578125 7.3615625 19.0515625 8.578125 19.078125 C10.13545323 19.13441397 11.69274347 19.19176114 13.25 19.25 C14.41595703 19.27126953 14.41595703 19.27126953 15.60546875 19.29296875 C21.40649823 19.54087599 21.40649823 19.54087599 24.484375 21.921875 C26 24 26 24 27 26 C27.99 25.67 28.98 25.34 30 25 C29.77183594 24.39671875 29.54367188 23.7934375 29.30859375 23.171875 C28.87740234 21.97304687 28.87740234 21.97304687 28.4375 20.75 C28.14746094 19.96109375 27.85742188 19.1721875 27.55859375 18.359375 C26.95477163 15.80896548 27.1526068 14.44677771 28 12 C30.475 12.495 30.475 12.495 33 13 C31.68 13.33 30.36 13.66 29 14 C29 15.65 29 17.3 29 19 C29.62003906 19.2475 30.24007812 19.495 30.87890625 19.75 C33.4435309 21.26138101 33.87571141 22.2599004 34.9375 25 C37.03821019 30.13968224 39.48728195 35.05148384 42 40 C42.66757478 41.33287889 43.33455461 42.66605673 44 44 C42 46 42 46 40.08203125 46.16015625 C39.33308594 46.12792969 38.58414063 46.09570312 37.8125 46.0625 C34.929564 45.98928258 32.55468852 46.07561893 29.6875 46.5625 C25.28209967 47.08517462 21.26279347 46.62580757 16.86328125 46.1875 C13.46001581 45.96463951 10.36028216 46.47289692 7 47 C4.65739357 46.7397104 2.3182429 46.42579972 0 46 C-0.33 46.99 -0.66 47.98 -1 49 C-0.45577393 48.92128662 0.08845215 48.84257324 0.64916992 48.76147461 C9.24048048 47.6968706 17.73696608 48.22055651 26.35473633 48.66870117 C28.33629646 48.76903031 30.31854807 48.85539414 32.30078125 48.94140625 C33.46778564 49.00013916 34.63479004 49.05887207 35.8371582 49.11938477 C39.06344475 48.99760521 41.08454594 48.30651446 44 47 C46.8125 46.875 46.8125 46.875 49 47 C49.2475 47.804375 49.495 48.60875 49.75 49.4375 C50.72238859 52.171081 50.72238859 52.171081 53.125 52.8125 C54.053125 52.9053125 54.053125 52.9053125 55 53 C55.495 52.01 55.495 52.01 56 51 C57.32 51.33 58.64 51.66 60 52 C59.505 52.99 59.505 52.99 59 54 C58.01 53.505 58.01 53.505 57 53 C56.67 53.99 56.34 54.98 56 56 C55.40316406 55.72285156 54.80632812 55.44570312 54.19140625 55.16015625 C46.49379618 51.9461467 39.19663509 51.30328898 30.95947266 51.08105469 C27.30956797 50.9810903 23.66075997 50.85347177 20.01171875 50.7265625 C12.34174243 50.46340993 4.67116402 50.2261143 -3 50 C-3.04075585 48.25410226 -3.06970977 46.50792665 -3.09375 44.76171875 C-3.11115234 43.78936279 -3.12855469 42.81700684 -3.14648438 41.81518555 C-2.94448316 37.93305895 -1.81557433 35.40420188 0 32 C0.99 32.33 1.98 32.66 3 33 C2.67 35.97 2.34 38.94 2 42 C2.99 42 3.98 42 5 42 C5.515625 41.29875 6.03125 40.5975 6.5625 39.875 C11.03144642 34.60393499 17.14415709 31.03021611 24 30 C24 29.01 24 28.02 24 27 C22.90300781 27.10699219 21.80601563 27.21398437 20.67578125 27.32421875 C19.22142806 27.44619676 17.76699637 27.56724138 16.3125 27.6875 C15.59126953 27.76033203 14.87003906 27.83316406 14.12695312 27.90820312 C9.43201926 28.27265005 6.68801588 27.98236663 3 25 C-0.0243177 21.88988605 -1.97713308 18.44435291 -2.01855469 14.01660156 C-1.6878666 9.28669512 -0.89612356 4.65185158 0 0 Z " fill="#C2BEB9" transform="translate(23,50)"/>
<path d="M0 0 C1.21909828 8.51448959 1.11268452 16.98473477 1.0625 25.5625 C1.0574746 27.06314955 1.05291353 28.56380072 1.04882812 30.06445312 C1.03790576 33.70966977 1.02069856 37.35482422 1 41 C-3.25725195 41 -3.66663939 40.88254997 -6.625 38.25 C-7.21539062 37.73953125 -7.80578125 37.2290625 -8.4140625 36.703125 C-10 35 -10 35 -10.98046875 33 C-12.20297108 30.6018345 -13.60174146 29.43827607 -15.6875 27.75 C-19.84361543 24.22452 -23.87403834 20.49356989 -27 16 C-27 15.01 -27 14.02 -27 13 C-25.68 13 -24.36 13 -23 13 C-22.73316406 12.401875 -22.46632813 11.80375 -22.19140625 11.1875 C-19.03345348 5.38929163 -13.01615958 2.07498167 -7.08984375 -0.38671875 C-4.43762956 -1.16503207 -2.57146491 -0.99540577 0 0 Z " fill="#0F0C0C" transform="translate(87,61)"/>
<path d="M0 0 C2.77939163 2.50823147 4.92104752 4.88157129 7 8 C6.75365013 11.81842293 4.69083261 13.47734443 2 16 C1.67 16.66 1.34 17.32 1 18 C-0.32 17.67 -1.64 17.34 -3 17 C-0.525 23.435 -0.525 23.435 2 30 C5.11332248 29.33131686 5.11332248 29.33131686 6.1875 26.9375 C6.455625 26.298125 6.72375 25.65875 7 25 C8.32 25.33 9.64 25.66 11 26 C10.34 28.97 9.68 31.94 9 35 C6.36 34.67 3.72 34.34 1 34 C1.52480001 40.28908482 1.52480001 40.28908482 4 46 C2.68 46 1.36 46 0 46 C-0.639375 45.030625 -1.27875 44.06125 -1.9375 43.0625 C-3.68395361 39.80921373 -3.68395361 39.80921373 -6.6875 39.0625 C-7.450625 39.041875 -8.21375 39.02125 -9 39 C-9.495 39.495 -9.495 39.495 -10 40 C-17.45864662 40.36090226 -17.45864662 40.36090226 -21 38 C-20.67 36.35 -20.34 34.7 -20 33 C-19.484375 33.33 -18.96875 33.66 -18.4375 34 C-15.21973488 35.32010877 -12.4429472 35.13242105 -9 35 C-9.58365975 31.61477347 -10.60996129 30.37292626 -13 28 C-14.46820474 25.90199159 -15.89495439 23.78224129 -17.3046875 21.64453125 C-18.93157511 19.72066605 -18.93157511 19.72066605 -21.6953125 19.76171875 C-22.83613281 19.87966797 -22.83613281 19.87966797 -24 20 C-24 18.68 -24 17.36 -24 16 C-20.5647952 13.70986347 -19.014669 13.82157027 -15 14 C-14.8453125 13.1028125 -14.8453125 13.1028125 -14.6875 12.1875 C-13.90175967 9.68741714 -13.03081147 8.62464918 -11 7 C-10.34 7 -9.68 7 -9 7 C-9 6.34 -9 5.68 -9 5 C-3.64285714 0 -3.64285714 0 0 0 Z " fill="#E5D9CF" transform="translate(50,29)"/>
<path d="M0 0 C1.2065625 0.0309375 1.2065625 0.0309375 2.4375 0.0625 C2.7675 0.7225 3.0975 1.3825 3.4375 2.0625 C5.39657079 2.60028414 7.38228386 3.04221208 9.375 3.4375 C24.72651341 6.78139401 24.72651341 6.78139401 29.4375 12.0625 C28.28529519 16.95937045 25.5617808 18.65714628 21.65234375 21.37890625 C19.29053367 23.17421514 17.39071037 25.13961923 15.375 27.3125 C11.96678516 30.82095645 9.35452727 32.2275331 4.4375 33.0625 C3.014375 33.4028125 3.014375 33.4028125 1.5625 33.75 C0.510625 33.9046875 0.510625 33.9046875 -0.5625 34.0625 C-2.37632957 32.24867043 -1.77889085 29.42631407 -1.84375 26.98046875 C-1.88113281 25.73845703 -1.91851563 24.49644531 -1.95703125 23.21679688 C-1.99183594 21.90775391 -2.02664062 20.59871094 -2.0625 19.25 C-2.13141829 16.68087921 -2.20417004 14.11185762 -2.28125 11.54296875 C-2.31154297 10.39723389 -2.34183594 9.25149902 -2.37304688 8.07104492 C-2.53100939 5.56257582 -2.95090654 3.47651627 -3.5625 1.0625 C-2.5625 0.0625 -2.5625 0.0625 0 0 Z " fill="#100E0D" transform="translate(22.5625,8.9375)"/>
<path d="M0 0 C1.9190605 1.77279697 3.78254831 3.58812812 5.63085938 5.43457031 C10.03177865 9.80376308 14.25477706 13.53763917 19.64331055 16.65039062 C21.31835938 17.68457031 21.31835938 17.68457031 23.31835938 19.68457031 C23.31835938 21.00457031 23.31835938 22.32457031 23.31835938 23.68457031 C21.99568211 24.69862289 20.66111106 25.6972529 19.31835938 26.68457031 C18.04988253 29.26955543 18.04988253 29.26955543 17.31835938 31.68457031 C13.73513429 30.35744991 12.06740728 28.2030631 9.72851562 25.27050781 C6.33987445 21.45945984 2.27439705 18.95224387 -2.49414062 17.24707031 C-5.68164062 15.68457031 -5.68164062 15.68457031 -7.11914062 12.62207031 C-7.68164062 9.68457031 -7.68164062 9.68457031 -7.68164062 7.68457031 C-7.04226562 7.58144531 -6.40289062 7.47832031 -5.74414062 7.37207031 C-5.06351563 7.14519531 -4.38289063 6.91832031 -3.68164062 6.68457031 C-3.35164063 5.69457031 -3.02164063 4.70457031 -2.68164062 3.68457031 C-5.15430827 4.02901912 -5.15430827 4.02901912 -7.68164062 4.68457031 C-8.01164062 5.34457031 -8.34164062 6.00457031 -8.68164062 6.68457031 C-10.00164063 6.35457031 -11.32164063 6.02457031 -12.68164062 5.68457031 C-13.36914062 3.87207031 -13.36914062 3.87207031 -13.68164062 1.68457031 C-12.26115832 -0.33400981 -11.09121629 -1.15159942 -8.80664062 -2.06542969 C-5.31201862 -2.47656169 -2.85687238 -2.23473118 0 0 Z " fill="#171312" transform="translate(69.681640625,18.3154296875)"/>
<path d="M0 0 C0.33 0.99 0.66 1.98 1 3 C1.98355469 2.67386719 2.96710938 2.34773438 3.98046875 2.01171875 C8.1320976 0.82718199 12.02021424 0.73691758 16.3125 0.8125 C17.02728516 0.81314453 17.74207031 0.81378906 18.47851562 0.81445312 C23.71779123 0.85889561 23.71779123 0.85889561 26 2 C24.48366689 6.96084288 21.53001408 10.11070386 18.125 13.875 C14.06518976 18.36943712 10.90515497 22.6802535 8 28 C5.8904775 30.87291324 3.52110634 33.47889366 1 36 C-0.86568186 34.13431814 -0.26339311 31.01540884 -0.3515625 28.515625 C-0.37471527 27.86301697 -0.39786804 27.21040894 -0.42172241 26.5380249 C-0.46943703 25.1527097 -0.51466182 23.76730688 -0.55761719 22.38183594 C-0.62429092 20.27243358 -0.70222531 18.16365883 -0.78125 16.0546875 C-0.82620789 14.7083561 -0.87049971 13.36200226 -0.9140625 12.015625 C-0.9548291 10.79133789 -0.9955957 9.56705078 -1.03759766 8.30566406 C-1.00418573 5.36801811 -0.69701852 2.8432968 0 0 Z " fill="#E36F1C" transform="translate(88,63)"/>
<path d="M0 0 C1.62566606 0.47690204 3.25051311 0.95659666 4.875 1.4375 C6.23238281 1.83775391 6.23238281 1.83775391 7.6171875 2.24609375 C10 3 10 3 12 4 C12 6.25 12 6.25 11 9 C8.47332213 10.67198768 5.80063432 11.85805571 3 13 C5.71814649 16.15710182 7.85216982 16.44212421 11.9921875 16.81640625 C14.37116513 17.03393922 16.66797175 17.48986882 19 18 C19 15.69 19 13.38 19 11 C21.11635213 13.57642867 22.67339287 15.62505968 23 19 C22.34 19.99 21.68 20.98 21 22 C18.5 22.3125 18.5 22.3125 16 22 C15.34 21.34 14.68 20.68 14 20 C11.89179203 20.3185177 11.89179203 20.3185177 10 21 C9.67 22.98 9.34 24.96 9 27 C8.34 26.67 7.68 26.34 7 26 C7 24.02 7 22.04 7 20 C5.02 20.99 5.02 20.99 3 22 C3 21.01 3 20.02 3 19 C2.01 18.67 1.02 18.34 0 18 C-0.99 20.475 -0.99 20.475 -2 23 C-3.32 23 -4.64 23 -6 23 C-6.67057887 21.2097939 -7.3363469 19.41778511 -8 17.625 C-8.37125 16.62726562 -8.7425 15.62953125 -9.125 14.6015625 C-10 12 -10 12 -10 10 C-8.68 10.33 -7.36 10.66 -6 11 C-5.5978125 9.8553125 -5.5978125 9.8553125 -5.1875 8.6875 C-4.03396359 6.07686496 -3.01370135 4.92614911 -1 3 C-0.67 2.01 -0.34 1.02 0 0 Z " fill="#E6B48A" transform="translate(57,36)"/>
<path d="M0 0 C2.375 -0.125 2.375 -0.125 5 0 C5.66 0.66 6.32 1.32 7 2 C6.7578125 4.390625 6.7578125 4.390625 6.125 7.25 C5.24971333 11.26080726 4.8905876 14.89095654 5 19 C6.78857422 19.07347656 6.78857422 19.07347656 8.61328125 19.1484375 C10.17971068 19.22347604 11.74611579 19.2990234 13.3125 19.375 C14.49102539 19.42140625 14.49102539 19.42140625 15.69335938 19.46875 C16.8293457 19.52675781 16.8293457 19.52675781 17.98828125 19.5859375 C19.03302612 19.63306885 19.03302612 19.63306885 20.09887695 19.68115234 C22 20 22 20 25 22 C24.67 23.32 24.34 24.64 24 26 C10.92532189 28.90815451 10.92532189 28.90815451 5 27 C0.77215937 22.58753751 -1.44675464 18.09338294 -2 12 C-1.66015625 8.7890625 -1.66015625 8.7890625 -1.0625 5.625 C-0.86785156 4.56539062 -0.67320313 3.50578125 -0.47265625 2.4140625 C-0.23869141 1.21910156 -0.23869141 1.21910156 0 0 Z " fill="#E7B48A" transform="translate(23,50)"/>
<path d="M0 0 C2.0625 0.4375 2.0625 0.4375 4 1 C3.505 1.45375 3.01 1.9075 2.5 2.375 C0.77390663 3.87635519 0.77390663 3.87635519 1 6 C1.92941406 6.39832031 2.85882813 6.79664063 3.81640625 7.20703125 C11.25390625 10.39453125 11.25390625 10.39453125 13.11938477 11.19848633 C14.38907365 11.73962466 15.6631814 12.27049393 16.94116211 12.79174805 C20.75503377 14.36257555 23.28756366 15.85357385 26 19 C25.505 19.495 25.505 19.495 25 20 C24.92820036 21.51928038 24.91607993 23.04167482 24.9375 24.5625 C24.94652344 25.38878906 24.95554688 26.21507813 24.96484375 27.06640625 C24.97644531 27.70449219 24.98804688 28.34257813 25 29 C23.34385343 29.38218767 21.67542976 29.71395102 20 30 C19.67 29.67 19.34 29.34 19 29 C16.4572048 28.50668876 13.9059331 28.10021963 11.34765625 27.6953125 C9 27 9 27 7 24 C9 22 9 22 12 21.1875 C15.2140679 20.31439725 15.2140679 20.31439725 16.1875 17.42578125 C16.455625 16.62527344 16.72375 15.82476562 17 15 C16.29875 14.85304688 15.5975 14.70609375 14.875 14.5546875 C8.25525299 12.98969296 2.82672038 10.96502182 -2 6 C-2 5.34 -2 4.68 -2 4 C-2.7425 4.45375 -3.485 4.9075 -4.25 5.375 C-6.46930578 6.68640796 -8.67967822 7.88280803 -11 9 C-11 9.66 -11 10.32 -11 11 C-12.65002828 12.35386936 -14.3174387 13.68678142 -16 15 C-16.33 15.66 -16.66 16.32 -17 17 C-19.06640625 17.4140625 -19.06640625 17.4140625 -21.5625 17.625 C-22.38878906 17.69976562 -23.21507812 17.77453125 -24.06640625 17.8515625 C-25.02353516 17.92503906 -25.02353516 17.92503906 -26 18 C-24.13210209 15.71701366 -23.00201854 15.00061434 -20.125 14.125 C-16.33849378 12.76185776 -14.68751276 10.9631551 -12 8 C-8.49527279 4.13581359 -6.04371711 2.37555921 -1 1 C-0.67 0.67 -0.34 0.34 0 0 Z " fill="#A29B94" transform="translate(52,25)"/>
<path d="M0 0 C0.66 0 1.32 0 2 0 C2 0.99 2 1.98 2 3 C0.78763672 3.58007812 0.78763672 3.58007812 -0.44921875 4.171875 C-1.51785156 4.69265625 -2.58648437 5.2134375 -3.6875 5.75 C-4.74324219 6.26046875 -5.79898438 6.7709375 -6.88671875 7.296875 C-11.19528792 9.65388398 -14.26698653 11.9004798 -17 16 C-18.32 15.67 -19.64 15.34 -21 15 C-21.07427838 11.65747276 -21.06546953 9.1964086 -20 6 C-20.66 6 -21.32 6 -22 6 C-22.309375 7.134375 -22.61875 8.26875 -22.9375 9.4375 C-23.11152344 10.07558594 -23.28554688 10.71367188 -23.46484375 11.37109375 C-24.24763679 15.21649316 -24.60857644 19.09788117 -25 23 C-24.14994385 22.99476318 -23.2998877 22.98952637 -22.42407227 22.98413086 C22.67911727 22.74300262 22.67911727 22.74300262 34 28 C34.33 27.34 34.66 26.68 35 26 C38.02734375 26.04882812 38.02734375 26.04882812 41.0546875 26.09765625 C43.08185404 26.12649242 43.08185404 26.12649242 45 25 C44.505 26.485 44.505 26.485 44 28 C42.02 28.33 40.04 28.66 38 29 C38 29.66 38 30.32 38 31 C33.39709262 30.57182257 29.43951787 29.50255837 25.0625 28 C15.32319515 24.95577787 5.66382368 24.96796382 -4.4375 25.01953125 C-6.12311035 25.02774902 -6.12311035 25.02774902 -7.84277344 25.03613281 C-10.08573615 25.05349022 -12.32864392 25.08248076 -14.57128906 25.12402344 C-15.60479492 25.13594727 -16.63830078 25.14787109 -17.703125 25.16015625 C-18.62770508 25.17699463 -19.55228516 25.19383301 -20.50488281 25.21118164 C-23.13829193 24.98829525 -24.74429879 24.33804394 -27 23 C-26.88513575 20.62412376 -26.75841844 18.24984829 -26.625 15.875 C-26.57859375 14.87726563 -26.57859375 14.87726563 -26.53125 13.859375 C-26.28080367 9.60178738 -25.52471803 5.97914217 -24 2 C-20.625 2.3125 -20.625 2.3125 -17 3 C-16.01 4.485 -16.01 4.485 -15 6 C-15.33 6.99 -15.66 7.98 -16 9 C-13.33645513 8.01068333 -10.94096287 6.96457772 -8.5 5.5 C-6 4 -6 4 -3.25 2.9375 C-0.83767007 2.22002336 -0.83767007 2.22002336 0 0 Z " fill="#E6DACF" transform="translate(45,77)"/>
<path d="M0 0 C1.23076923 5.41538462 1.23076923 5.41538462 0.0625 8.375 C-0.288125 8.91125 -0.63875 9.4475 -1 10 C-2.32 10 -3.64 10 -5 10 C-4.67 11.32 -4.34 12.64 -4 14 C0.10640106 14.45947584 0.10640106 14.45947584 2.5625 11.5625 C3.366875 10.716875 4.17125 9.87125 5 9 C5.99 8.67 6.98 8.34 8 8 C8 7.34 8 6.68 8 6 C13.27191557 3.78024608 17.17402942 2.52441056 23 3 C24 4 24 4 24.09765625 5.84765625 C24.06510417 7.8984375 24.03255208 9.94921875 24 12 C23.67 12 23.34 12 23 12 C22.505 8.535 22.505 8.535 22 5 C13.54964811 5.84503519 6.88370124 10.03102773 1 16 C0.67 16.66 0.34 17.32 0 18 C-1.32 18 -2.64 18 -4 18 C-1.95980679 22.58207327 0.34379263 25.70187406 3.9375 29.1875 C4.79214844 30.02667969 5.64679688 30.86585937 6.52734375 31.73046875 C8.88757837 33.99843917 8.88757837 33.99843917 11.31640625 35.61328125 C12.14978516 36.29970703 12.14978516 36.29970703 13 37 C13 37.99 13 38.98 13 40 C3.04452978 35.45271205 -5.34310272 25.8957969 -9.17578125 15.78515625 C-9.86311021 13.80820044 -9.86311021 13.80820044 -12 13 C-12 11.35 -12 9.7 -12 8 C-9.69 8 -7.38 8 -5 8 C-5.061875 7.05125 -5.12375 6.1025 -5.1875 5.125 C-5.125625 4.09375 -5.06375 3.0625 -5 2 C-2 0 -2 0 0 0 Z " fill="#BBAA9C" transform="translate(64,56)"/>
<path d="M0 0 C3.28520702 0.32039137 4.26610427 1.19054786 6.62109375 3.44921875 C9.01922499 5.72089486 11.1998772 7.61914575 13.93359375 9.51171875 C17.31949241 12.89761741 18.28851426 15.9615353 19.73828125 20.45703125 C21.02749893 24.28206552 22.80044271 27.69718286 24.68359375 31.26171875 C23.36359375 31.26171875 22.04359375 31.26171875 20.68359375 31.26171875 C20.04421875 30.29234375 19.40484375 29.32296875 18.74609375 28.32421875 C16.99964014 25.07093248 16.99964014 25.07093248 13.99609375 24.32421875 C13.23296875 24.30359375 12.46984375 24.28296875 11.68359375 24.26171875 C11.35359375 24.59171875 11.02359375 24.92171875 10.68359375 25.26171875 C3.22494713 25.62262101 3.22494713 25.62262101 -0.31640625 23.26171875 C0.01359375 21.61171875 0.34359375 19.96171875 0.68359375 18.26171875 C1.19921875 18.59171875 1.71484375 18.92171875 2.24609375 19.26171875 C5.46385887 20.58182752 8.24064655 20.3941398 11.68359375 20.26171875 C11.099934 16.87649222 10.07363246 15.63464501 7.68359375 13.26171875 C6.21538901 11.16371034 4.78863936 9.04396004 3.37890625 6.90625 C1.75201864 4.9823848 1.75201864 4.9823848 -1.01171875 5.0234375 C-2.15253906 5.14138672 -2.15253906 5.14138672 -3.31640625 5.26171875 C-3.31640625 0.37470357 -3.31640625 0.37470357 0 0 Z " fill="#FCFCFC" transform="translate(29.31640625,43.73828125)"/>
<path d="M0 0 C7.57712384 0.60135903 14.58003573 1.72002382 21 6 C24.6244512 6.19076059 27.94591533 6.15429591 31.53515625 5.62890625 C39.05243692 4.52909294 39.05243692 4.52909294 42.625 6.8125 C43.40875 7.534375 44.1925 8.25625 45 9 C45 9.66 45 10.32 45 11 C45.57363281 11.25265625 46.14726563 11.5053125 46.73828125 11.765625 C49.27581613 13.15053177 51.08251862 14.77154756 53.1875 16.75 C56.21840617 19.51669889 59.21138098 21.88405379 62.6875 24.0625 C66.87090828 26.74134916 70.25739068 29.82693171 73 34 C73 34.66 73 35.32 73 36 C74.485 36.495 74.485 36.495 76 37 C75.505 37.99 75.505 37.99 75 39 C74.319375 38.835 73.63875 38.67 72.9375 38.5 C69.51880057 37.91809371 66.46179211 37.74357095 63 38 C61.05630262 39.35429841 61.05630262 39.35429841 60 41 C60.25 38.625 60.25 38.625 61 36 C63.0625 34.6875 63.0625 34.6875 65 34 C63.65443254 29.60999219 62.02995524 27.94258024 58.1875 25.5 C48.73994431 19.21983292 48.73994431 19.21983292 47 14 C46.01 13.34 45.02 12.68 44 12 C44 11.34 44 10.68 44 10 C43.34 10 42.68 10 42 10 C42 9.34 42 8.68 42 8 C34.82905041 7.73483675 34.82905041 7.73483675 27.875 9.25 C23.54530906 10.0880047 22.24662923 9.41030039 18.5625 7.2265625 C12.78790982 4.46250562 6.21637985 3.41830026 0 2 C0 1.34 0 0.68 0 0 Z " fill="#CFC6BF" transform="translate(28,8)"/>
<path d="M0 0 C2.20931454 2.17797674 4.12471253 4.53183814 6 7 C4.68 6.67 3.36 6.34 2 6 C2.433125 6.50789063 2.86625 7.01578125 3.3125 7.5390625 C6.9448838 12.02909247 8.13002158 14.14902868 8 20 C10.37500791 22.87640616 10.37500791 22.87640616 13 25 C12.67 25.66 12.34 26.32 12 27 C11.14728516 26.29423828 11.14728516 26.29423828 10.27734375 25.57421875 C5.0734553 21.31682578 5.0734553 21.31682578 -0.9375 18.4375 C-4 17 -4 17 -5.4375 13.9375 C-6 11 -6 11 -6 9 C-5.360625 8.896875 -4.72125 8.79375 -4.0625 8.6875 C-3.381875 8.460625 -2.70125 8.23375 -2 8 C-1.67 7.01 -1.34 6.02 -1 5 C-3.47266765 5.34444881 -3.47266765 5.34444881 -6 6 C-6.33 6.66 -6.66 7.32 -7 8 C-8.32 7.67 -9.64 7.34 -11 7 C-11.6875 5.1875 -11.6875 5.1875 -12 3 C-10.57951769 0.98141988 -9.40957566 0.16383026 -7.125 -0.75 C-4.26220506 -1.0867994 -2.73601713 -1.04229224 0 0 Z " fill="#403731" transform="translate(68,17)"/>
<path d="M0 0 C0.99 0.66 1.98 1.32 3 2 C3 2.66 3 3.32 3 4 C3.66 4 4.32 4 5 4 C5.268125 4.763125 5.53625 5.52625 5.8125 6.3125 C6.94424112 8.87380884 7.91223401 10.19692938 10 12 C7.41426224 15.23897677 4.77377144 15.79301935 0.8125 16.6875 C-0.27417969 16.93886719 -1.36085938 17.19023438 -2.48046875 17.44921875 C-3.31191406 17.63097656 -4.14335938 17.81273438 -5 18 C-5 18.66 -5 19.32 -5 20 C-9.47058824 24 -9.47058824 24 -12 24 C-12.33 24.99 -12.66 25.98 -13 27 C-14.65 26.67 -16.3 26.34 -18 26 C-18 24.68 -18 23.36 -18 22 C-16.68 22 -15.36 22 -14 22 C-13.67 21.01 -13.34 20.02 -13 19 C-12.34 19 -11.68 19 -11 19 C-11.04125 18.05125 -11.0825 17.1025 -11.125 16.125 C-11 13 -11 13 -9 11 C-7.25 11.25 -7.25 11.25 -5 12 C-3.9275 12.350625 -2.855 12.70125 -1.75 13.0625 C-0.8425 13.371875 0.065 13.68125 1 14 C2.13799712 10.48255435 2.13927573 9.29015776 0.5 5.875 C0.005 4.92625 -0.49 3.9775 -1 3 C-0.67 2.01 -0.34 1.02 0 0 Z " fill="#E1D7CE" transform="translate(77,44)"/>
<path d="M0 0 C1.99609375 0.26953125 1.99609375 0.26953125 4.4375 0.8125 C5.24058594 0.98394531 6.04367188 1.15539062 6.87109375 1.33203125 C9 2 9 2 11 4 C8.36 4.33 5.72 4.66 3 5 C3.1546875 5.76183594 3.309375 6.52367187 3.46875 7.30859375 C4.31517942 13.19003346 4.39482721 19.1001332 4.60546875 25.03320312 C4.66154297 26.45729492 4.66154297 26.45729492 4.71875 27.91015625 C4.74904297 28.76746338 4.77933594 29.62477051 4.81054688 30.50805664 C5.00746797 33.09822886 5.32235025 35.4904768 6 38 C7.96758273 39.36020151 7.96758273 39.36020151 10 40 C9 41 9 41 5.9375 41.0625 C4.968125 41.041875 3.99875 41.02125 3 41 C-0.10916826 27.60515561 -1.61067065 14.75805048 -1 1 C-0.67 0.67 -0.34 0.34 0 0 Z " fill="#DED4CA" transform="translate(16,4)"/>
<path d="M0 0 C0.66 3.3 1.32 6.6 2 10 C0.35 10.33 -1.3 10.66 -3 11 C-3.33 10.67 -3.66 10.34 -4 10 C-6.5427952 9.50668876 -9.0940669 9.10021963 -11.65234375 8.6953125 C-14 8 -14 8 -16 5 C-13.63746991 2.63746991 -11.68772729 1.962152 -8.5625 0.8125 C-7.59441406 0.44769531 -6.62632813 0.08289062 -5.62890625 -0.29296875 C-3 -1 -3 -1 0 0 Z " fill="#736A64" transform="translate(75,44)"/>
<path d="M0 0 C3.77777778 1.51111111 3.77777778 1.51111111 4.9375 4.0625 C5.4634375 5.0215625 5.4634375 5.0215625 6 6 C8.55519921 6.81171228 8.55519921 6.81171228 11 7 C11 7.66 11 8.32 11 9 C9.68 9 8.36 9 7 9 C9.04019321 13.58207327 11.34379263 16.70187406 14.9375 20.1875 C15.79214844 21.02667969 16.64679688 21.86585937 17.52734375 22.73046875 C19.88757837 24.99843917 19.88757837 24.99843917 22.31640625 26.61328125 C22.87199219 27.07089844 23.42757812 27.52851562 24 28 C24 28.99 24 29.98 24 31 C14.17045961 26.51023211 5.72262509 16.96389873 1.7109375 7.0546875 C0.90493501 4.72525173 0.31570274 2.44669622 0 0 Z " fill="#5A504A" transform="translate(53,65)"/>
<path d="M0 0 C7.57712384 0.60135903 14.58003573 1.72002382 21 6 C24.6244512 6.19076059 27.94591533 6.15429591 31.53515625 5.62890625 C39.05243692 4.52909294 39.05243692 4.52909294 42.625 6.8125 C43.40875 7.534375 44.1925 8.25625 45 9 C45 9.66 45 10.32 45 11 C45.639375 11.28875 46.27875 11.5775 46.9375 11.875 C49 13 49 13 50 15 C47.5625 14.1875 47.5625 14.1875 45 13 C44.505 11.515 44.505 11.515 44 10 C43.34 10 42.68 10 42 10 C42 9.34 42 8.68 42 8 C34.82905041 7.73483675 34.82905041 7.73483675 27.875 9.25 C23.54530906 10.0880047 22.24662923 9.41030039 18.5625 7.2265625 C12.78790982 4.46250562 6.21637985 3.41830026 0 2 C0 1.34 0 0.68 0 0 Z " fill="#D4CCC4" transform="translate(28,8)"/>
<path d="M0 0 C1.23556641 0.01740234 1.23556641 0.01740234 2.49609375 0.03515625 C3.32238281 0.04417969 4.14867187 0.05320312 5 0.0625 C5.63808594 0.07410156 6.27617187 0.08570313 6.93359375 0.09765625 C6.93359375 0.75765625 6.93359375 1.41765625 6.93359375 2.09765625 C8.17109375 2.24203125 9.40859375 2.38640625 10.68359375 2.53515625 C13.49863874 2.88454127 16.20374345 3.30144991 18.93359375 4.09765625 C18.93359375 4.75765625 18.93359375 5.41765625 18.93359375 6.09765625 C21.24359375 6.75765625 23.55359375 7.41765625 25.93359375 8.09765625 C24.30859375 8.78515625 24.30859375 8.78515625 21.93359375 9.09765625 C21.08796875 8.66453125 20.24234375 8.23140625 19.37109375 7.78515625 C14.71550819 5.49968697 10.02919135 4.86834272 4.93359375 4.09765625 C4.60359375 3.10765625 4.27359375 2.11765625 3.93359375 1.09765625 C2.28359375 1.42765625 0.63359375 1.75765625 -1.06640625 2.09765625 C-0.90342041 2.64583008 -0.74043457 3.19400391 -0.57250977 3.75878906 C0.00162931 6.41207048 0.04633027 8.80508303 0.03125 11.51953125 C0.02802734 12.54433594 0.02480469 13.56914062 0.02148438 14.625 C0.01310547 15.68847656 0.00472656 16.75195312 -0.00390625 17.84765625 C-0.00841797 18.92660156 -0.01292969 20.00554688 -0.01757812 21.1171875 C-0.02934898 23.77740008 -0.04579226 26.4374999 -0.06640625 29.09765625 C-0.39640625 29.09765625 -0.72640625 29.09765625 -1.06640625 29.09765625 C-1.0914624 28.46263184 -1.11651855 27.82760742 -1.14233398 27.17333984 C-1.25897414 24.27294083 -1.38139018 21.37281276 -1.50390625 18.47265625 C-1.56288086 16.97412109 -1.56288086 16.97412109 -1.62304688 15.4453125 C-1.83295499 10.56898548 -2.24236952 5.91387094 -3.06640625 1.09765625 C-2.06640625 0.09765625 -2.06640625 0.09765625 0 0 Z " fill="#514741" transform="translate(21.06640625,7.90234375)"/>
<path d="M0 0 C0.33 0 0.66 0 1 0 C2.21909828 8.51448959 2.11268452 16.98473477 2.0625 25.5625 C2.0574746 27.06314955 2.05291353 28.56380072 2.04882812 30.06445312 C2.03790576 33.70966977 2.02069856 37.35482422 2 41 C1.01 41 0.02 41 -1 41 C-0.83177734 40.48880615 -0.66355469 39.9776123 -0.49023438 39.45092773 C0.16668409 36.16666257 -0.01725339 33.13133209 -0.15625 29.78515625 C-0.195224 28.74602333 -0.195224 28.74602333 -0.23498535 27.68589783 C-0.34585419 24.73335006 -0.46997719 21.78139708 -0.59326172 18.8293457 C-0.6815584 16.66894077 -0.76282229 14.5083478 -0.84375 12.34765625 C-0.89724609 11.05867432 -0.95074219 9.76969238 -1.00585938 8.44165039 C-1.00074173 5.43567369 -0.72529877 2.90362662 0 0 Z " fill="#423832" transform="translate(86,61)"/>
<path d="M0 0 C2.0625 0.4375 2.0625 0.4375 4 1 C3.34 1.66 2.68 2.32 2 3 C2.30421782 5.00463529 2.64675892 7.00341996 3 9 C3.13334112 12.62543689 3.09444792 16.24768256 3.0625 19.875 C3.05798828 20.84953125 3.05347656 21.8240625 3.04882812 22.828125 C3.03710906 25.21881434 3.02070219 27.6093744 3 30 C-1.44971516 25.55028484 -0.37984919 18.23577629 -0.625 12.3125 C-0.6765625 11.24193359 -0.728125 10.17136719 -0.78125 9.06835938 C-0.82507813 8.05193359 -0.86890625 7.03550781 -0.9140625 5.98828125 C-0.9548291 5.05540283 -0.9955957 4.12252441 -1.03759766 3.16137695 C-1 1 -1 1 0 0 Z " fill="#928B85" transform="translate(17,6)"/>
<path d="M0 0 C3.32454983 0.57319825 4.73981645 1.54327875 7 4 C7.99 4.66 8.98 5.32 10 6 C10 6.66 10 7.32 10 8 C10.58136719 8.26039062 11.16273437 8.52078125 11.76171875 8.7890625 C14.15025497 10.08128978 15.86044288 11.49280598 17.8125 13.375 C18.75029297 14.25285156 18.75029297 14.25285156 19.70703125 15.1484375 C21 17 21 17 20.921875 18.9609375 C19.77997163 21.48667292 18.30874256 23.20864448 16.4375 25.25 C15.47650391 26.30960938 15.47650391 26.30960938 14.49609375 27.390625 C14.00238281 27.92171875 13.50867188 28.4528125 13 29 C13 25.40233037 14.30384543 23.80037811 16.3203125 20.9140625 C17.20735278 18.94059213 17.20735278 18.94059213 16.49609375 16.5625 C14.23637625 12.69207003 10.89650624 10.72195899 7.25585938 8.21875 C3.09250946 5.27752838 3.09250946 5.27752838 2 2 C1.34 1.34 0.68 0.68 0 0 Z " fill="#E5D9CE" transform="translate(101,43)"/>
<path d="M0 0 C5.28 0.33 10.56 0.66 16 1 C16 1.99 16 2.98 16 4 C13.91957837 4.39083065 11.83547661 4.7621087 9.75 5.125 C8.00976562 5.43824219 8.00976562 5.43824219 6.234375 5.7578125 C2.96445684 6.00266144 1.67507166 5.78779541 -1 4 C-0.67 2.68 -0.34 1.36 0 0 Z " fill="#E36F1C" transform="translate(29,71)"/>
<path d="M0 0 C0.33 2.31 0.66 4.62 1 7 C-0.60517097 6.91266424 -2.20921662 6.80447776 -3.8125 6.6875 C-5.15248047 6.60048828 -5.15248047 6.60048828 -6.51953125 6.51171875 C-9.30604 5.93686419 -10.24135754 5.1793144 -12 3 C-10.5682384 2.30062798 -9.12932968 1.61587282 -7.6875 0.9375 C-6.48673828 0.36322266 -6.48673828 0.36322266 -5.26171875 -0.22265625 C-3 -1 -3 -1 0 0 Z " fill="#423832" transform="translate(74,46)"/>
<path d="M0 0 C2.11635213 2.57642867 3.67339287 4.62505968 4 8 C3.01 9.485 3.01 9.485 2 11 C-2.31007873 11.69893169 -4.3936002 10.16383988 -8 8 C-8.845625 8 -9.69125 8 -10.5625 8 C-13.63117651 8 -14.75287238 6.99744678 -17 5 C-16.67 4.34 -16.34 3.68 -16 3 C-14.515 3.99 -14.515 3.99 -13 5 C-11.00659224 5.28936564 -9.01144687 5.57423243 -7.0078125 5.78125 C-4.63640595 6.03961336 -2.32927034 6.49047211 0 7 C0 4.69 0 2.38 0 0 Z " fill="#C7A990" transform="translate(76,47)"/>
<path d="M0 0 C1 1 1 1 1.09765625 2.84765625 C1.06510417 4.8984375 1.03255208 6.94921875 1 9 C0.67 9 0.34 9 0 9 C-0.33 6.69 -0.66 4.38 -1 2 C-9.79982492 2.87998249 -16.25932521 7.62180203 -23 13 C-22.40137646 9.79837298 -22.08735442 9.08063485 -19.5625 6.75 C-17 5 -17 5 -15 5 C-15 4.34 -15 3.68 -15 3 C-9.72808443 0.78024608 -5.82597058 -0.47558944 0 0 Z " fill="#847C76" transform="translate(87,59)"/>
<path d="M0 0 C0.28875 0.639375 0.5775 1.27875 0.875 1.9375 C1.82823451 4.15206079 1.82823451 4.15206079 4 5 C9.18680052 5.26870177 9.18680052 5.26870177 14.1875 4.25 C16 4 16 4 18.5625 5.5625 C21.18953907 8.18953907 22.53495407 10.60726207 24 14 C21 13 21 13 19.9375 11 C19.4734375 10.01 19.4734375 10.01 19 9 C15.53426264 7.26713132 11.33832613 7.67204175 7.49804688 7.5703125 C4.54229233 7.4313544 2.46477307 7.32716379 0.0078125 5.59765625 C-1 4 -1 4 -0.6875 1.8125 C-0.3471875 0.9153125 -0.3471875 0.9153125 0 0 Z " fill="#E6DACF" transform="translate(28,63)"/>
<path d="M0 0 C5.9782058 1.11458074 8.94612259 2.18602057 13 7 C12.34 8.65 11.68 10.3 11 12 C10.67 12 10.34 12 10 12 C9.505 9.525 9.505 9.525 9 7 C7.02 7.33 5.04 7.66 3 8 C3.33 6.35 3.66 4.7 4 3 C2.68 2.67 1.36 2.34 0 2 C0 1.34 0 0.68 0 0 Z " fill="#A29B94" transform="translate(65,37)"/>
<path d="M0 0 C-1.04874998 2.62187494 -1.64931313 3.79371361 -4.125 5.25 C-4.74375 5.4975 -5.3625 5.745 -6 6 C-6 6.66 -6 7.32 -6 8 C-7.65002828 9.35386936 -9.3174387 10.68678142 -11 12 C-11.33 12.66 -11.66 13.32 -12 14 C-14.06640625 14.4140625 -14.06640625 14.4140625 -16.5625 14.625 C-17.80193359 14.73714844 -17.80193359 14.73714844 -19.06640625 14.8515625 C-20.02353516 14.92503906 -20.02353516 14.92503906 -21 15 C-19.13728286 12.72334572 -18.00951563 12.00288589 -15.140625 11.1328125 C-11.29829215 9.74689642 -9.5142581 7.85124108 -6.75 4.875 C-2.19263456 0 -2.19263456 0 0 0 Z " fill="#867E77" transform="translate(47,28)"/>
<path d="M0 0 C0 0.66 0 1.32 0 2 C0.66 2 1.32 2 2 2 C4.125 3.875 4.125 3.875 6 6 C6 6.66 6 7.32 6 8 C3.07167237 6.80697763 1.83141853 5.7986388 -0.25 3.3125 C-2.88806167 0.5712024 -2.88806167 0.5712024 -6.8125 1.125 C-8.21078884 1.40465777 -9.60661164 1.69686798 -11 2 C-12.49816646 2.20162717 -13.99823209 2.38973024 -15.5 2.5625 C-16.655 2.706875 -17.81 2.85125 -19 3 C-19.33 2.34 -19.66 1.68 -20 1 C-19.0925 0.855625 -18.185 0.71125 -17.25 0.5625 C-14.20505602 0.10232004 -14.20505602 0.10232004 -12.125 -0.5625 C-8.21897153 -1.36668233 -3.60592961 -1.80296481 0 0 Z " fill="#938B85" transform="translate(70,16)"/>
<path d="M0 0 C0.66 0 1.32 0 2 0 C4.91740413 6.46902655 4.91740413 6.46902655 5.4375 9.8125 C5.78388052 12.19250904 5.78388052 12.19250904 8.0625 13.3125 C8.701875 13.539375 9.34125 13.76625 10 14 C9.67 14.33 9.34 14.66 9 15 C7.02 15 5.04 15 3 15 C2.01 10.05 1.02 5.1 0 0 Z " fill="#D1C8C0" transform="translate(16,30)"/>
<path d="M0 0 C1.32 0 2.64 0 4 0 C4 1.32 4 2.64 4 4 C6.31 4.66 8.62 5.32 11 6 C11 6.33 11 6.66 11 7 C7.37 6.67 3.74 6.34 0 6 C-0.495 3.525 -0.495 3.525 -1 1 C-0.67 0.67 -0.34 0.34 0 0 Z " fill="#E0D6CC" transform="translate(91,45)"/>
<path d="M0 0 C1.8125 0.1875 1.8125 0.1875 4 1 C7 5.17857143 7 5.17857143 7 8 C4.625 8.125 4.625 8.125 2 8 C0 6 0 6 -0.125 2.875 C-0.08375 1.92625 -0.0425 0.9775 0 0 Z " fill="#C3B7AD" transform="translate(32,55)"/>
<path d="M0 0 C5.56890517 0.47986031 10.67067568 1.29915181 16 3 C16 3.66 16 4.32 16 5 C10.49191603 4.40984815 5.35121931 3.43336231 0 2 C0 1.34 0 0.68 0 0 Z " fill="#C2BBB4" transform="translate(28,8)"/>
<path d="M0 0 C3.77777778 1.51111111 3.77777778 1.51111111 4.9375 4.0625 C5.4634375 5.0215625 5.4634375 5.0215625 6 6 C8.55519921 6.81171228 8.55519921 6.81171228 11 7 C11 7.33 11 7.66 11 8 C9.02 8 7.04 8 5 8 C4.67 9.32 4.34 10.64 4 12 C2.18757677 7.9811485 0.66498383 4.38889325 0 0 Z " fill="#736A64" transform="translate(53,65)"/>
<path d="M0 0 C0.66 0 1.32 0 2 0 C2.625 2.8125 2.625 2.8125 3 6 C2.01 7.485 2.01 7.485 1 9 C0.01 8.67 -0.98 8.34 -2 8 C-2.125 5.125 -2.125 5.125 -2 2 C-1.34 1.34 -0.68 0.68 0 0 Z " fill="#948D86" transform="translate(62,56)"/>
<path d="M0 0 C1.67542976 0.28604898 3.34385343 0.61781233 5 1 C3.68 1.33 2.36 1.66 1 2 C1.8604139 6.33229715 1.8604139 6.33229715 4 10 C4.04063832 11.66617115 4.042721 13.33388095 4 15 C3.01 14.67 2.02 14.34 1 14 C1.33 13.34 1.66 12.68 2 12 C1.34 11.01 0.68 10.02 0 9 C-0.60003647 6.31809785 -0.77789092 3.75415263 -1 1 C-0.67 0.67 -0.34 0.34 0 0 Z " fill="#D0C9C2" transform="translate(51,62)"/>
<path d="M0 0 C1.875 0.25 1.875 0.25 4 1 C5.57578541 3.17608462 6.0566119 4.37726915 5.8125 7.0625 C4.87106998 9.30744852 3.81535309 10.39411073 2 12 C1.443125 12.556875 0.88625 13.11375 0.3125 13.6875 C-0.120625 14.120625 -0.55375 14.55375 -1 15 C-0.75 12.625 -0.75 12.625 0 10 C2.0625 8.6875 2.0625 8.6875 4 8 C2.87548273 5.0280615 1.77706209 2.66559313 0 0 Z " fill="#7F7670" transform="translate(89,34)"/>
<path d="M0 0 C0.99 0.33 1.98 0.66 3 1 C3 2.65 3 4.3 3 6 C1.35 6.33 -0.3 6.66 -2 7 C-2.33 6.01 -2.66 5.02 -3 4 C-1.5625 1.8125 -1.5625 1.8125 0 0 Z " fill="#C9BCB0" transform="translate(46,34)"/>
<path d="M0 0 C1.98 0.495 1.98 0.495 4 1 C4.33 2.98 4.66 4.96 5 7 C2 7 2 7 -1 5 C-0.67 3.35 -0.34 1.7 0 0 Z " fill="#FDFDFD" transform="translate(38,39)"/>
<path d="M0 0 C2.64752004 2.57784846 4.94432065 4.91648098 7 8 C3.37 7.34 -0.26 6.68 -4 6 C-3.01 5.01 -2.02 4.02 -1 3 C-0.67 2.01 -0.34 1.02 0 0 Z " fill="#A29B94" transform="translate(95,39)"/>
<path d="M0 0 C2.64 0.33 5.28 0.66 8 1 C7.34 3.97 6.68 6.94 6 10 C5.34 9.67 4.68 9.34 4 9 C4 7.02 4 5.04 4 3 C2.02 3.99 2.02 3.99 0 5 C0 3.35 0 1.7 0 0 Z " fill="#CDBBAB" transform="translate(60,53)"/>
<path d="M0 0 C3.06875309 1.4639923 5.90434743 3.14009636 8.75 5 C9.94882813 5.7734375 9.94882813 5.7734375 11.171875 6.5625 C11.77515625 7.036875 12.3784375 7.51125 13 8 C13 8.66 13 9.32 13 10 C7.10116191 8.7051331 3.79580613 5.48084806 0 1 C0 0.67 0 0.34 0 0 Z " fill="#8A827C" transform="translate(76,24)"/>
<path d="M0 0 C1.99609375 0.26953125 1.99609375 0.26953125 4.4375 0.8125 C5.24058594 0.98394531 6.04367188 1.15539062 6.87109375 1.33203125 C9 2 9 2 11 4 C7.4780279 4.08004482 4.38018531 4.04005702 1 3 C0.34 4.32 -0.32 5.64 -1 7 C-1.04254356 5.00045254 -1.04080783 2.99958364 -1 1 C-0.67 0.67 -0.34 0.34 0 0 Z " fill="#CFC7BF" transform="translate(16,4)"/>
<path d="M0 0 C3 0 3 0 5.5625 2.3125 C8 5 8 5 10 8 C7 8 7 8 4.5 5.625 C3.675 4.75875 2.85 3.8925 2 3 C1.01 2.34 0.02 1.68 -1 1 C-0.67 0.67 -0.34 0.34 0 0 Z " fill="#C2BEBA" transform="translate(47,29)"/>
<path d="M0 0 C0.66 0.33 1.32 0.66 2 1 C1.67 2.32 1.34 3.64 1 5 C-3.40914783 6.10228696 -7.48382401 6.07654536 -12 6 C-12 5.67 -12 5.34 -12 5 C-6.555 4.01 -6.555 4.01 -1 3 C-0.67 2.01 -0.34 1.02 0 0 Z " fill="#D5AE8C" transform="translate(46,71)"/>
<path d="M0 0 C0 0.99 0 1.98 0 3 C0.99 3.66 1.98 4.32 3 5 C-2.53846154 5.36923077 -2.53846154 5.36923077 -4.875 3.5 C-5.24625 3.005 -5.6175 2.51 -6 2 C-2.25 0 -2.25 0 0 0 Z " fill="#423832" transform="translate(68,47)"/>
<path d="M0 0 C3 1 3 1 5 3.5625 C5.99 4.7690625 5.99 4.7690625 7 6 C7.99 6 8.98 6 10 6 C9.67 6.99 9.34 7.98 9 9 C2.35384615 5.67692308 2.35384615 5.67692308 0.5625 2.25 C0.376875 1.5075 0.19125 0.765 0 0 Z " fill="#857D77" transform="translate(78,43)"/>
<path d="M0 0 C1.98 0 3.96 0 6 0 C4.68 0.33 3.36 0.66 2 1 C2.33 3.31 2.66 5.62 3 8 C2.01 7.34 1.02 6.68 0 6 C-0.1875 2.875 -0.1875 2.875 0 0 Z " fill="#504640" transform="translate(58,73)"/>
<path d="M0 0 C2.0625 0.4375 2.0625 0.4375 4 1 C3.34 1.66 2.68 2.32 2 3 C1.3574765 5.06874034 1.3574765 5.06874034 1 7 C0.34 7 -0.32 7 -1 7 C-1.04254356 5.00045254 -1.04080783 2.99958364 -1 1 C-0.67 0.67 -0.34 0.34 0 0 Z " fill="#8B837D" transform="translate(17,6)"/>
<path d="M0 0 C-1.25 1.5 -1.25 1.5 -3 3 C-4.32 3 -5.64 3 -7 3 C-6.67 2.01 -6.34 1.02 -6 0 C-3.50907189 -1.24546405 -2.58919267 -0.7767578 0 0 Z " fill="#A29B94" transform="translate(39,88)"/>
<path d="M0 0 C0.99 0.33 1.98 0.66 3 1 C3 1.99 3 2.98 3 4 C1.35 4 -0.3 4 -2 4 C-2 3.01 -2 2.02 -2 1 C-1.34 0.67 -0.68 0.34 0 0 Z " fill="#0C0A0A" transform="translate(70,47)"/>
<path d="M0 0 C0.33 0 0.66 0 1 0 C1.0825 0.78375 1.165 1.5675 1.25 2.375 C1.72806339 5.14749104 1.72806339 5.14749104 4.0625 6.3125 C4.701875 6.539375 5.34125 6.76625 6 7 C4.34385343 7.38218767 2.67542976 7.71395102 1 8 C0 7 0 7 -0.0625 3.4375 C-0.041875 2.303125 -0.02125 1.16875 0 0 Z " fill="#89817A" transform="translate(20,37)"/>
<path d="M0 0 C-1.15173355 2.46800047 -2.04783565 4.04783565 -4 6 C-4.99 5.67 -5.98 5.34 -7 5 C-2.25 0 -2.25 0 0 0 Z " fill="#8E8680" transform="translate(47,28)"/>
<path d="M0 0 C3.78611227 0.54087318 5.55400767 2.11722332 8 5 C8 5.66 8 6.32 8 7 C4.2047869 5.50902342 2.38957269 3.24299151 0 0 Z " fill="#867E77" transform="translate(68,17)"/>
<path d="M0 0 C1.875 0.3125 1.875 0.3125 4 1 C4.66 1.99 5.32 2.98 6 4 C3.36 3.67 0.72 3.34 -2 3 C-1.34 2.01 -0.68 1.02 0 0 Z " fill="#0C0A0A" transform="translate(63,17)"/>
</svg>
