<?xml version="1.0" encoding="UTF-8"?>
<svg version="1.1" xmlns="http://www.w3.org/2000/svg" width="128" height="128">
<path d="M0 0 C42.24 0 84.48 0 128 0 C128 42.24 128 84.48 128 128 C85.76 128 43.52 128 0 128 C0 85.76 0 43.52 0 0 Z " fill="#FCFCFC" transform="translate(0,0)"/>
<path d="M0 0 C6.70940163 5.5220637 10.96862649 11.36533945 11.93896484 20.04199219 C12.73909567 29.80736836 12.73909567 29.80736836 10.453125 33.49609375 C8.39577634 35.23246508 6.29345942 36.59773752 4 38 C3.154375 38.99 2.30875 39.98 1.4375 41 C-1 43 -1 43 -4.625 42.6875 C-5.73875 42.460625 -6.8525 42.23375 -8 42 C-8.99 42.66 -9.98 43.32 -11 44 C-15.76290859 44.34785287 -19.14658962 43.72065766 -22.8125 40.625 C-23.534375 39.75875 -24.25625 38.8925 -25 38 C-25.763125 37.46375 -26.52625 36.9275 -27.3125 36.375 C-27.869375 35.92125 -28.42625 35.4675 -29 35 C-29 34.01 -29 33.02 -29 32 C-36.45142043 34.73005848 -36.45142043 34.73005848 -41 41 C-41.66 41 -42.32 41 -43 41 C-42.67 43.31 -42.34 45.62 -42 48 C-41.34 48 -40.68 48 -40 48 C-39.34 49.98 -38.68 51.96 -38 54 C-34.04 54.33 -30.08 54.66 -26 55 C-25.67 52.69 -25.34 50.38 -25 48 C-20.71 48 -16.42 48 -12 48 C-11.29875 49.60875 -10.5975 51.2175 -9.875 52.875 C-8.20854448 56.14756586 -7.39045335 57.736671 -4.3125 59.8125 C0.44453812 60.08176631 4.71802928 59.10782036 9 57 C10.03438139 55.69315918 11.04119465 54.36325716 12 53 C12.66 53 13.32 53 14 53 C14.12117188 52.21753906 14.24234375 51.43507812 14.3671875 50.62890625 C14.53476563 49.61699219 14.70234375 48.60507812 14.875 47.5625 C15.03742188 46.55316406 15.19984375 45.54382812 15.3671875 44.50390625 C15.57601562 43.67761719 15.78484375 42.85132813 16 42 C16.66 41.67 17.32 41.34 18 41 C17.91621094 40.37351563 17.83242187 39.74703125 17.74609375 39.1015625 C17.59333984 37.87566406 17.59333984 37.87566406 17.4375 36.625 C17.28087891 35.40683594 17.28087891 35.40683594 17.12109375 34.1640625 C17 32 17 32 18 30 C17.34 29.01 16.68 28.02 16 27 C15.8828125 23.8203125 15.8828125 23.8203125 16.125 20.125 C16.18945312 18.91070313 16.25390625 17.69640625 16.3203125 16.4453125 C17.09939395 12.4961755 18.15307078 10.8070423 21 8 C27.34402735 4.0533591 34.66328959 2.72976357 42 4 C46.1930055 5.68827284 49.10033985 7.93165358 52 11.375 C53.70293968 15.84521665 53.76758135 19.19298557 51.875 23.6484375 C50.96013934 25.54573376 50.03958056 27.44029323 49.11328125 29.33203125 C47.64713308 32.84564247 47.58417541 35.25757871 48 39 C46.02 39.99 46.02 39.99 44 41 C44.165 41.495 44.33 41.99 44.5 42.5 C46.04504516 50.22522579 44.86229947 57.99883939 40.93359375 64.86328125 C37.88788338 68.91417656 34.65976045 70.44674652 30 72 C29.01 72 28.02 72 27 72 C26.731875 72.5775 26.46375 73.155 26.1875 73.75 C24.94914955 76.09634823 23.80878516 78.05207752 22 80 C20.68 80 19.36 80 18 80 C18.875 75.25 18.875 75.25 20 73 C18.02 72.01 18.02 72.01 16 71 C16.495 69.02 16.495 69.02 17 67 C18.32 66.67 19.64 66.34 21 66 C20.34 65.34 19.68 64.68 19 64 C18.65509678 59.94738713 18.69836118 58.45245824 21 55 C21 54.01 21 53.02 21 52 C20.5359375 53.2684375 20.5359375 53.2684375 20.0625 54.5625 C18.09017565 58.52575553 14.92393934 60.62918048 11.40625 63.1875 C9.0390794 64.97056357 6.95502968 66.89385631 4.8125 68.9375 C2.33942882 71.09777166 1.17107233 71.95461346 -2.0625 72.8125 C-6.30970738 71.63774051 -8.91878384 69.06298411 -12 66 C-11.67 66.556875 -11.34 67.11375 -11 67.6875 C-9.8163734 70.42463652 -9.56426157 72.0471768 -10 75 C-11.6796875 77.01953125 -11.6796875 77.01953125 -13.875 78.8125 C-14.59429687 79.41707031 -15.31359375 80.02164063 -16.0546875 80.64453125 C-18 82 -18 82 -20 82 C-20 79.03 -20 76.06 -20 73 C-21.65 72.34 -23.3 71.68 -25 71 C-24.43237418 73.4597119 -23.73284247 75.74210426 -22.875 78.125 C-22 81 -22 81 -23 83 C-24.875 82.8125 -24.875 82.8125 -27 82 C-27.66666667 80.33333333 -28.33333333 78.66666667 -29 77 C-31.01508358 76.26676204 -31.01508358 76.26676204 -33 76 C-33.495 75.01 -33.495 75.01 -34 74 C-34.66 74 -35.32 74 -36 74 C-37.63676257 75.9600281 -37.63676257 75.9600281 -39 78 C-44.00863282 77.38490474 -49.00786023 76.73957626 -54 76 C-55.051875 75.896875 -56.10375 75.79375 -57.1875 75.6875 C-60.69998506 74.82889254 -61.78450636 73.84252014 -64 71 C-64.93957791 65.88113075 -65.52602236 59.66531303 -62.859375 55.0078125 C-60.30432561 52.73516331 -58.25187759 52.01511266 -54.875 51.8125 C-51.89660366 51.31247981 -51.89660366 51.31247981 -50.734375 49.04296875 C-48.47581685 43.86578088 -47.59214517 39.61722355 -48.34765625 34.0078125 C-47.80290316 30.86171038 -45.46653142 29.90032621 -43 28 C-41.04686258 25.25743682 -41.04686258 25.25743682 -39.375 22.3125 C-36.32912781 17.10970927 -36.32912781 17.10970927 -33 16 C-32.979375 14.906875 -32.95875 13.81375 -32.9375 12.6875 C-32.628125 11.470625 -32.31875 10.25375 -32 9 C-29.68895182 7.94952356 -27.35416349 6.94992562 -25 6 C-24.30899447 4.00827818 -23.64097297 2.00838196 -23 0 C-20.125 -1.3125 -20.125 -1.3125 -17 -2 C-16.40316406 -2.1959375 -15.80632813 -2.391875 -15.19140625 -2.59375 C-10.00239642 -3.55570548 -4.79448187 -1.93795646 0 0 Z " fill="#D2D1D2" transform="translate(64,12)"/>
<path d="M0 0 C2.8125 -0.3125 2.8125 -0.3125 6 0 C6.474375 0.804375 6.94875 1.60875 7.4375 2.4375 C7.953125 3.283125 8.46875 4.12875 9 5 C12.59919423 5.89592083 12.59919423 5.89592083 16 6 C17 10.75 17 10.75 17 13 C19.31 13 21.62 13 24 13 C24.51137914 18.36948097 23.10796131 20.70370054 20 25 C19.71125 25.9075 19.4225 26.815 19.125 27.75 C18 30 18 30 14.875 31.3125 C13.92625 31.539375 12.9775 31.76625 12 32 C12 34.97 12 37.94 12 41 C13.65 41.33 15.3 41.66 17 42 C17.33 40.68 17.66 39.36 18 38 C18.33 38 18.66 38 19 38 C18.43852256 46.36407769 17.02930519 53.7933623 11 60 C8.00493457 62.11846092 6.69349436 63 3 63 C2.731875 63.5775 2.46375 64.155 2.1875 64.75 C0.94914955 67.09634823 -0.19121484 69.05207752 -2 71 C-3.32 71 -4.64 71 -6 71 C-5.125 66.25 -5.125 66.25 -4 64 C-5.32 63.34 -6.64 62.68 -8 62 C-7.67 60.68 -7.34 59.36 -7 58 C-5.68 57.67 -4.36 57.34 -3 57 C-3.66 56.34 -4.32 55.68 -5 55 C-5.34490322 50.94738713 -5.30163882 49.45245824 -3 46 C-3 45.01 -3 44.02 -3 43 C-3.4640625 44.2684375 -3.4640625 44.2684375 -3.9375 45.5625 C-5.90982435 49.52575553 -9.07606066 51.62918048 -12.59375 54.1875 C-14.9609206 55.97056357 -17.04497032 57.89385631 -19.1875 59.9375 C-21.66057118 62.09777166 -22.82892767 62.95461346 -26.0625 63.8125 C-30.30970738 62.63774051 -32.91878384 60.06298411 -36 57 C-35.505 57.8353125 -35.505 57.8353125 -35 58.6875 C-33.8163734 61.42463652 -33.56426157 63.0471768 -34 66 C-35.6796875 68.01953125 -35.6796875 68.01953125 -37.875 69.8125 C-38.59429687 70.41707031 -39.31359375 71.02164063 -40.0546875 71.64453125 C-42 73 -42 73 -44 73 C-44 70.03 -44 67.06 -44 64 C-45.65 63.34 -47.3 62.68 -49 62 C-48.43237418 64.4597119 -47.73284247 66.74210426 -46.875 69.125 C-46 72 -46 72 -47 74 C-48.875 73.8125 -48.875 73.8125 -51 73 C-51.66666667 71.33333333 -52.33333333 69.66666667 -53 68 C-55.01508358 67.26676204 -55.01508358 67.26676204 -57 67 C-57.495 66.01 -57.495 66.01 -58 65 C-58.66 65 -59.32 65 -60 65 C-61.63676257 66.9600281 -61.63676257 66.9600281 -63 69 C-68.00863282 68.38490474 -73.00786023 67.73957626 -78 67 C-79.051875 66.896875 -80.10375 66.79375 -81.1875 66.6875 C-84.7586465 65.81455308 -85.98668754 65.09740379 -88 62 C-89.13968443 57.00896819 -88.39954539 52.83782192 -85.8125 48.4375 C-83.53571305 45.6747801 -82.43350056 45.0633867 -78.84765625 44.5390625 C-76.5710907 44.5544274 -74.29354989 44.64442804 -72.0234375 44.81640625 C-69.3324738 44.97981102 -67.53006826 44.83307126 -65 44 C-64.34 45.32 -63.68 46.64 -63 48 C-61.88625 47.731875 -60.7725 47.46375 -59.625 47.1875 C-53.96873705 46.44006525 -49.67675192 49.05312472 -45 52 C-44.34 52.66 -43.68 53.32 -43 54 C-40.93125966 54.6425235 -40.93125966 54.6425235 -39 55 C-39.88399908 52.76591742 -39.88399908 52.76591742 -42.4375 51.625 C-45.17630791 49.88819498 -45.99118474 49.02644578 -47 46 C-47 44.68 -47 43.36 -47 42 C-45.6078125 42.0309375 -45.6078125 42.0309375 -44.1875 42.0625 C-40.97713989 42.15769604 -40.97713989 42.15769604 -38 41 C-37.608125 41.721875 -37.21625 42.44375 -36.8125 43.1875 C-34.84693294 46.23751786 -32.59229138 48.4725159 -30 51 C-29.46375 51.7425 -28.9275 52.485 -28.375 53.25 C-27.02627166 55.29712875 -27.02627166 55.29712875 -24 56 C-23.67 55.01 -23.34 54.02 -23 53 C-21.14453125 52.26171875 -21.14453125 52.26171875 -18.8125 51.6875 C-14.04730514 50.21310159 -10.66479864 48.32310858 -8 44 C-7.25097549 41.22860932 -7.10001311 38.90038006 -7 36 C-3.86650268 34.95550089 -3.01031744 35.06576355 0 36 C-0.41003225 33.12977427 -0.80058961 32.1691967 -3.0625 30.25 C-5.46646548 27.45829816 -5.2781514 25.66813949 -5.05859375 22.08203125 C-4.91231092 19.72322497 -4.91231092 19.72322497 -5.75 16.375 C-6 13 -6 13 -4.375 9.5625 C-2 7 -2 7 0.75 6.625 C1.4925 6.74875 2.235 6.8725 3 7 C3.33 6.01 3.66 5.02 4 4 C2.35 3.67 0.7 3.34 -1 3 C-0.67 2.01 -0.34 1.02 0 0 Z " fill="#ABAAAA" transform="translate(88,21)"/>
<path d="M0 0 C0.625 1.8125 0.625 1.8125 1 4 C0.34 4.99 -0.32 5.98 -1 7 C-1.33957563 11.07490752 -1.31332486 12.53001271 1 16 C-0.65 16.33 -2.3 16.66 -4 17 C-3.65213292 18.97536745 -3.65213292 18.97536745 -3 21 C-2.34 21.33 -1.68 21.66 -1 22 C-1.66 24.31 -2.32 26.62 -3 29 C-0.57069263 28.62074104 0.66699341 28.39838212 2.2734375 26.4765625 C2.63695312 25.86554688 3.00046875 25.25453125 3.375 24.625 C5.72256561 21.09274958 7.9272423 19.44809163 12 18 C12.66 18.33 13.32 18.66 14 19 C12.71372289 20.17260611 11.42080217 21.3379283 10.125 22.5 C9.40570313 23.1496875 8.68640625 23.799375 7.9453125 24.46875 C6 26 6 26 4 26 C3.773125 26.886875 3.54625 27.77375 3.3125 28.6875 C1.7901675 32.52957726 0.23277085 34.44385561 -3 37 C-5.625 37.625 -5.625 37.625 -8 37 C-9.625 34.6875 -9.625 34.6875 -11 32 C-11.53625 31.484375 -12.0725 30.96875 -12.625 30.4375 C-14 29 -14 29 -14.3125 26.9375 C-14.8571036 24.69225581 -14.8571036 24.69225581 -17.625 23.6875 C-21.68858617 22.85973245 -23.99719146 22.82676301 -28 24 C-33.18673144 27.48333993 -36.56994891 31.19487796 -39 37 C-39.66 37.66 -40.32 38.32 -41 39 C-42.8125 39 -42.8125 39 -45 38 C-48.70951382 34.20216442 -50.63436578 31.21423975 -52 26 C-51.34 26 -50.68 26 -50 26 C-49.525625 26.804375 -49.05125 27.60875 -48.5625 28.4375 C-47.20016328 31.2918076 -47.20016328 31.2918076 -44 32 C-44.32960216 26.98464948 -44.32960216 26.98464948 -47 23 C-46.625 20.875 -46.625 20.875 -46 19 C-43.5625 19.75 -43.5625 19.75 -41 21 C-39.33998697 24.32002605 -40.27975643 27.47880922 -41 31 C-39.68677212 30.02180976 -38.37443848 29.0424189 -37.0625 28.0625 C-36.33160156 27.51722656 -35.60070312 26.97195312 -34.84765625 26.41015625 C-33.0865547 25.13092062 -33.0865547 25.13092062 -32 24 C-32.08937803 22.47480724 -32.24537146 20.95318071 -32.4375 19.4375 C-32.53933594 18.61121094 -32.64117187 17.78492187 -32.74609375 16.93359375 C-32.82988281 16.29550781 -32.91367187 15.65742187 -33 15 C-31.68 15.66 -30.36 16.32 -29 17 C-29 17.66 -29 18.32 -29 19 C-25.92838038 19.84611744 -23.18540883 20.28688465 -20 20 C-16.8868967 18.0901884 -14.52399704 15.61809342 -12 13 C-9.66824909 11.0922038 -7.40312494 9.26084555 -4.875 7.625 C-2.36920106 5.45330758 -1.33321529 2.99973441 0 0 Z " fill="#D1D0D1" transform="translate(85,63)"/>
<path d="M0 0 C1.485 0.495 1.485 0.495 3 1 C2.93489583 2.98567708 2.86979167 4.97135417 2.8046875 6.95703125 C2.86745538 9.31359719 2.86745538 9.31359719 5 12 C5.0625 14.4375 5.0625 14.4375 4 17 C1.00153976 19.5643668 -1.70804411 21.09013646 -5.6875 20.8125 C-6.450625 20.544375 -7.21375 20.27625 -8 20 C-10.05925139 19.27617533 -10.05925139 19.27617533 -12 19 C-12.99 19.66 -13.98 20.32 -15 21 C-17.6875 20.625 -17.6875 20.625 -20 20 C-20.33 19.01 -20.66 18.02 -21 17 C-21.66 17.33 -22.32 17.66 -23 18 C-23 19.65 -23 21.3 -23 23 C-18.06253206 25.34552543 -14.00112312 25.04814556 -8.64453125 24.77734375 C-7.77183594 24.85082031 -6.89914063 24.92429687 -6 25 C-5.34 25.99 -4.68 26.98 -4 28 C-6.35282812 28.36639923 -8.70640636 28.71830159 -11.0625 29.0625 C-11.71927734 29.16626953 -12.37605469 29.27003906 -13.05273438 29.37695312 C-17.58638024 30.02461682 -21.52327985 29.98158756 -26 29 C-27.25 27.125 -27.25 27.125 -28 25 C-28.556875 24.505 -29.11375 24.01 -29.6875 23.5 C-30.120625 23.005 -30.55375 22.51 -31 22 C-30.40092922 16.88066784 -26.57664409 13.41851878 -23 10 C-20.0625 8.5 -20.0625 8.5 -18 8 C-17.566875 8.66 -17.13375 9.32 -16.6875 10 C-15.8521875 10.99 -15.8521875 10.99 -15 12 C-14.01 12 -13.02 12 -12 12 C-11.67 10.02 -11.34 8.04 -11 6 C-9.02 6.66 -7.04 7.32 -5 8 C-2.74754119 5.31158141 -1.11786042 3.35358125 0 0 Z " fill="#A9A8A8" transform="translate(68,23)"/>
<path d="M0 0 C0.77988281 -0.01417969 1.55976563 -0.02835937 2.36328125 -0.04296875 C4.91024623 0.20958744 6.46173734 0.96707131 8.6875 2.1875 C10.35250443 2.52903937 12.01928677 2.86199498 13.6875 3.1875 C15.3667238 3.82187344 17.03758418 4.48039322 18.6875 5.1875 C18.6875 5.8475 18.6875 6.5075 18.6875 7.1875 C19.925 6.98125 21.1625 6.775 22.4375 6.5625 C25.80659835 6.12642876 27.81591921 6.15346361 30.6875 8.1875 C30.3575 9.1775 30.0275 10.1675 29.6875 11.1875 C27.125 12.375 27.125 12.375 24.6875 13.1875 C27.04206323 18.75467533 27.04206323 18.75467533 29.6875 24.1875 C28.6975 24.1875 27.7075 24.1875 26.6875 24.1875 C26.5328125 23.2284375 26.5328125 23.2284375 26.375 22.25 C26.148125 21.569375 25.92125 20.88875 25.6875 20.1875 C24.6975 19.8575 23.7075 19.5275 22.6875 19.1875 C22.3575 18.1975 22.0275 17.2075 21.6875 16.1875 C18.7175 15.6925 18.7175 15.6925 15.6875 15.1875 C15.0275 16.5075 14.3675 17.8275 13.6875 19.1875 C12.0375 18.8575 10.3875 18.5275 8.6875 18.1875 C8.6875 16.5375 8.6875 14.8875 8.6875 13.1875 C7.82125 13.5175 6.955 13.8475 6.0625 14.1875 C2.61663221 15.20849786 0.24159528 15.74035927 -3.3125 15.1875 C-5.25 13.25 -5.25 13.25 -6.3125 10.1875 C-6.26087216 0.05123463 -6.26087216 0.05123463 0 0 Z " fill="#757373" transform="translate(10.3125,67.8125)"/>
<path d="M0 0 C1.32 0 2.64 0 4 0 C4 2.31 4 4.62 4 7 C6.97 7.495 6.97 7.495 10 8 C9.67 9.98 9.34 11.96 9 14 C4.58937864 15.0257259 2.07369424 15.03684712 -2 13 C-2.33 14.65 -2.66 16.3 -3 18 C-5.64 17.67 -8.28 17.34 -11 17 C-11 18.32 -11 19.64 -11 21 C-11.99 20.67 -12.98 20.34 -14 20 C-13.95875 18.906875 -13.9175 17.81375 -13.875 16.6875 C-13.67925334 12.91107771 -13.67925334 12.91107771 -16 10 C-15.8125 7.4375 -15.8125 7.4375 -15 5 C-12 3 -12 3 -10.125 3.3125 C-9.42375 3.539375 -8.7225 3.76625 -8 4 C-6.33480481 4.34060811 -4.66842534 4.67558396 -3 5 C-2.5875 4.175 -2.175 3.35 -1.75 2.5 C-0.88375 1.2625 -0.88375 1.2625 0 0 Z " fill="#757373" transform="translate(99,29)"/>
<path d="M0 0 C1 3 1 3 0.9375 5.9375 C0.99965945 8.98331295 1.43010216 10.44891601 3 13 C7.13574827 13.0984702 10.93631321 12.77403558 15 12 C15.33 13.65 15.66 15.3 16 17 C18.47266765 16.65555119 18.47266765 16.65555119 21 16 C21.33 15.34 21.66 14.68 22 14 C23.875 13.25 23.875 13.25 26 13 C26.99 13.66 27.98 14.32 29 15 C29.1875 17.625 29.1875 17.625 29 20 C28.54625 19.505 28.0925 19.01 27.625 18.5 C26.12364481 16.77390663 26.12364481 16.77390663 24 17 C22.36323743 18.9600281 22.36323743 18.9600281 21 21 C15.99136718 20.38490474 10.99213977 19.73957626 6 19 C4.948125 18.896875 3.89625 18.79375 2.8125 18.6875 C-0.7586465 17.81455308 -1.98668754 17.09740379 -4 14 C-4.87000434 9.25048652 -4.66172481 6.01326611 -2 1.9375 C-1.34 1.298125 -0.68 0.65875 0 0 Z " fill="#B0AFAF" transform="translate(4,69)"/>
<path d="M0 0 C1.31871094 -0.03738281 2.63742188 -0.07476563 3.99609375 -0.11328125 C7.5625 0.3125 7.5625 0.3125 10.03515625 2.08203125 C11.5625 4.3125 11.5625 4.3125 11.5625 8.3125 C9.9846875 8.18875 9.9846875 8.18875 8.375 8.0625 C3.90309507 8.35573967 2.92126179 9.55659289 -0.4375 12.3125 C-3.75 12.5625 -3.75 12.5625 -6.4375 12.3125 C-5.4475 9.6725 -4.4575 7.0325 -3.4375 4.3125 C-6.48136724 4.23023332 -8.50925348 4.33641783 -11.4375 5.3125 C-11.125 3.375 -11.125 3.375 -10.4375 1.3125 C-6.91443008 0.13814336 -3.6698872 0.05277882 0 0 Z " fill="#FDFDFD" transform="translate(52.4375,16.6875)"/>
<path d="M0 0 C2.8125 -0.3125 2.8125 -0.3125 6 0 C6.474375 0.804375 6.94875 1.60875 7.4375 2.4375 C7.953125 3.283125 8.46875 4.12875 9 5 C12.59919423 5.89592083 12.59919423 5.89592083 16 6 C16.625 8.375 16.625 8.375 17 11 C16.34 11.66 15.68 12.32 15 13 C15 11.35 15 9.7 15 8 C13.08533633 8.12177688 13.08533633 8.12177688 11 9 C9.22851628 11.47933197 9.22851628 11.47933197 8 14 C5.59314446 13.53200031 3.22853817 13.06721711 0.875 12.375 C-1.21447673 11.7958595 -1.21447673 11.7958595 -4 13 C-4.33 14.65 -4.66 16.3 -5 18 C-5.33 18 -5.66 18 -6 18 C-6.41451116 14.47665512 -5.95386636 12.90944137 -4.3125 9.6875 C-2 7 -2 7 0.75 6.625 C1.4925 6.74875 2.235 6.8725 3 7 C3.33 6.01 3.66 5.02 4 4 C2.35 3.67 0.7 3.34 -1 3 C-0.67 2.01 -0.34 1.02 0 0 Z " fill="#ABAAAA" transform="translate(88,21)"/>
<path d="M0 0 C1.98 0 3.96 0 6 0 C5.67835641 6.1112282 4.678416 10.74239391 0 15 C-3.3125 15.9375 -3.3125 15.9375 -6 16 C-6.66 14.68 -7.32 13.36 -8 12 C-7.05125 11.566875 -6.1025 11.13375 -5.125 10.6875 C-1.79958063 9.20697799 -1.79958063 9.20697799 0 6 C0.16699232 2.87478167 0.16699232 2.87478167 0 0 Z " fill="#757373" transform="translate(98,65)"/>
<path d="M0 0 C0.2475 0.61875 0.495 1.2375 0.75 1.875 C1.79289956 4.11726053 1.79289956 4.11726053 3.8125 4.8125 C6.76336195 6.41439649 7.9802017 8.64418695 9.75390625 11.44140625 C11.01360334 13.30648329 11.01360334 13.30648329 14 14 C14 14.66 14 15.32 14 16 C9.06876173 15.56489074 6.58398708 13.27233603 3 10 C2.38125 9.443125 1.7625 8.88625 1.125 8.3125 C0 7 0 7 0 5 C-1.65 4.67 -3.3 4.34 -5 4 C-5 3.01 -5 2.02 -5 1 C-3 0 -3 0 0 0 Z " fill="#757373" transform="translate(50,66)"/>
<path d="M0 0 C2.33524782 2.25740623 4.18705073 4.2805761 6 7 C8.29657708 7.4332151 8.29657708 7.4332151 10.875 7.4375 C15.69159013 7.75767796 15.69159013 7.75767796 18.625 10.0625 C19.305625 11.0215625 19.305625 11.0215625 20 12 C16.66398707 11.69013319 13.33210292 11.34917246 10 11 C8.88625 10.896875 7.7725 10.79375 6.625 10.6875 C3.28902612 9.81379256 1.98081985 8.81885902 0 6 C-0.25 2.75 -0.25 2.75 0 0 Z " fill="#D2D1D2" transform="translate(0,77)"/>
<path d="M0 0 C1.98 0.495 1.98 0.495 4 1 C4.33 2.32 4.66 3.64 5 5 C5.66 5 6.32 5 7 5 C7.33 6.65 7.66 8.3 8 10 C6.68 10.33 5.36 10.66 4 11 C3.67 9.02 3.34 7.04 3 5 C1.68 4.67 0.36 4.34 -1 4 C-0.67 2.68 -0.34 1.36 0 0 Z " fill="#ABAAAA" transform="translate(108,21)"/>
<path d="M0 0 C2.31 0.33 4.62 0.66 7 1 C7.33 2.98 7.66 4.96 8 7 C6.68 7.33 5.36 7.66 4 8 C0 2.25 0 2.25 0 0 Z " fill="#757373" transform="translate(44,79)"/>
<path d="M0 0 C1.25541557 3.76624671 0.37061958 5.37188934 -1 9 C-3.97 8.505 -3.97 8.505 -7 8 C-6.875 6.25 -6.875 6.25 -6 4 C-2.9375 1.75 -2.9375 1.75 0 0 Z " fill="#FDFDFD" transform="translate(78,75)"/>
<path d="M0 0 C2.375 0.1875 2.375 0.1875 5 1 C6.3125 3.5625 6.3125 3.5625 7 6 C5.68 6.33 4.36 6.66 3 7 C0 2.25 0 2.25 0 0 Z " fill="#ABAAAA" transform="translate(71,86)"/>
<path d="M0 0 C1.22589844 0.01353516 1.22589844 0.01353516 2.4765625 0.02734375 C3.41628906 0.04474609 3.41628906 0.04474609 4.375 0.0625 C4.705 0.7225 5.035 1.3825 5.375 2.0625 C1.745 2.7225 -1.885 3.3825 -5.625 4.0625 C-5.955 3.0725 -6.285 2.0825 -6.625 1.0625 C-4.21954362 -0.14022819 -2.67503047 -0.03821472 0 0 Z " fill="#ABAAAA" transform="translate(49.625,11.9375)"/>
<path d="M0 0 C1.875 0.25 1.875 0.25 4 1 C5.25 3.0625 5.25 3.0625 6 5 C4.35 4.67 2.7 4.34 1 4 C0.67 2.68 0.34 1.36 0 0 Z " fill="#757373" transform="translate(89,65)"/>
<path d="M0 0 C2.475 0.495 2.475 0.495 5 1 C4.67 1.99 4.34 2.98 4 4 C2.68 3.67 1.36 3.34 0 3 C0 2.01 0 1.02 0 0 Z " fill="#ABAAAA" transform="translate(27,39)"/>
<path d="M0 0 C0.66 0.33 1.32 0.66 2 1 C1.67 2.32 1.34 3.64 1 5 C-0.32 4.67 -1.64 4.34 -3 4 C-2.67 3.01 -2.34 2.02 -2 1 C-1.34 0.67 -0.68 0.34 0 0 Z " fill="#ABAAAA" transform="translate(38,30)"/>
</svg>
