<?xml version="1.0" encoding="UTF-8"?>
<svg version="1.1" xmlns="http://www.w3.org/2000/svg" width="128" height="128">
<path d="M0 0 C42.24 0 84.48 0 128 0 C128 42.24 128 84.48 128 128 C85.76 128 43.52 128 0 128 C0 85.76 0 43.52 0 0 Z " fill="#F3F3F3" transform="translate(0,0)"/>
<path d="M0 0 C42.24 0 84.48 0 128 0 C128 7.92 128 15.84 128 24 C122 24 122 24 119.3125 22.375 C116.77242976 19.76627921 115.50413222 17.29476581 114 14 C112.18400369 11.84100652 112.18400369 11.84100652 109.75 11.4375 C105.93303935 12.21824195 104.76245139 14.30633397 102.52734375 17.37109375 C100.67375713 19.34793677 99.66643105 19.6660823 97 20 C95.37406636 19.97048635 93.74850748 19.90606663 92.125 19.8125 C87.24540124 19.73356531 84.91208886 21.01936087 81 24 C79.68 24 78.36 24 77 24 C75.18359375 21.98828125 75.18359375 21.98828125 73.4375 19.3125 C72.85871094 18.44238281 72.27992187 17.57226562 71.68359375 16.67578125 C70 14 70 14 68.53515625 11.16796875 C68.02855469 10.45253906 67.52195312 9.73710937 67 9 C65.68 9 64.36 9 63 9 C62.443125 10.19625 61.88625 11.3925 61.3125 12.625 C59.32886089 16.6207175 56.97733792 19.69184676 54 23 C49.46447291 20.73223645 46.39287028 17.48509177 42.96484375 13.83984375 C39.56870947 10.65976573 37.70810167 10 33 10 C32.58009669 16.5784852 34.02473596 22.18744992 37.0625 28.05078125 C38.59393736 31.23489477 38.72455998 34.53170423 39 38 C39.20302734 39.45599609 39.20302734 39.45599609 39.41015625 40.94140625 C39.70133256 44.21816502 39.77233693 46.79524562 39 50 C36.70252748 52.24505869 34.31382138 53.6867128 31.55859375 55.328125 C27.33383491 58.08873078 25.31389467 61.14607824 24 66 C23.76175546 70.08359496 23.81231173 74.08047761 23.953125 78.1640625 C24.01715873 83.40415572 23.37230025 88.25539951 21 93 C20.38992057 101.69363187 22.75863147 109.95533105 28 117 C32.60066197 122.21328276 37.1269336 124.31156478 44 125 C49.27735059 125.31646997 54.32483932 124.96994695 59.5625 124.3125 C64.96952719 123.74252847 69.06239983 124.84208585 74 127 C74 127.33 74 127.66 74 128 C49.58 128 25.16 128 0 128 C0 85.76 0 43.52 0 0 Z " fill="#FAFAFA" transform="translate(0,0)"/>
<path d="M0 0 C0 33.33 0 66.66 0 101 C-16.17 101 -32.34 101 -49 101 C-47.02 98.69 -45.04 96.38 -43 94 C-37.99429602 87.44080169 -38.72144201 79.2959669 -39.54296875 71.453125 C-40.09534132 68.48825342 -41.24896055 66.4362288 -43 64 C-43 63.01 -43 62.02 -43 61 C-43.99 60.67 -44.98 60.34 -46 60 C-47.5635348 56.87293041 -47.39958487 53.42017557 -47 50 C-46.34 49.01 -45.68 48.02 -45 47 C-44.34 47 -43.68 47 -43 47 C-42.938125 46.34 -42.87625 45.68 -42.8125 45 C-40.95079696 38.12601955 -36.44220977 32.23743635 -30.5 28.375 C-28.35516632 27.19534148 -26.20528503 26.0618039 -24 25 C-23.53477707 20.20691658 -23.53477707 20.20691658 -25.5 16.0625 C-26.2425 15.5365625 -26.2425 15.5365625 -27 15 C-25.824375 14.87625 -25.824375 14.87625 -24.625 14.75 C-23.75875 14.5025 -22.8925 14.255 -22 14 C-21.30062468 12.68352881 -20.63270867 11.34977849 -20 10 C-18.66666667 9.66666667 -17.33333333 9.33333333 -16 9 C-14.71563266 7.0162233 -14.71563266 7.0162233 -14 5 C-13.34 5 -12.68 5 -12 5 C-11.7215625 4.0409375 -11.7215625 4.0409375 -11.4375 3.0625 C-10 1 -10 1 -6.5625 0.25 C-4.37878363 0.09675675 -2.18908673 0 0 0 Z " fill="#FAFAFA" transform="translate(128,27)"/>
<path d="M0 0 C2.26953125 0.16796875 2.26953125 0.16796875 5 1 C6.94921875 3.36328125 6.94921875 3.36328125 8.6875 6.3125 C9.55955078 7.76076172 9.55955078 7.76076172 10.44921875 9.23828125 C11.70102477 11.46756804 12.88992908 13.69783321 14 16 C15.093125 15.54625 16.18625 15.0925 17.3125 14.625 C17.92738281 14.36976562 18.54226562 14.11453125 19.17578125 13.8515625 C21.26533932 12.93193308 21.26533932 12.93193308 24 11 C26.5234375 10.91015625 26.5234375 10.91015625 29.375 11.0625 C33.82957438 11.13292805 36.52836923 11.05082704 40 8 C40.66 7.113125 41.32 6.22625 42 5.3125 C44 3 44 3 46.4375 2.3125 C50.35050856 3.36233157 51.76381133 5.74155365 54 9 C54 9.99 54 10.98 54 12 C57.50538557 13.96301592 61.13351728 14.95902388 65 16 C65 16.99 65 17.98 65 19 C64.34773438 19.06316406 63.69546875 19.12632813 63.0234375 19.19140625 C58.10360393 19.88076346 54.88564865 20.45870089 51.6875 24.4375 C51.23375 25.05882813 50.78 25.68015625 50.3125 26.3203125 C48.56947579 28.55096849 46.46280758 29.66304731 44 31 C43.67 31.66 43.34 32.32 43 33 C40.9375 33.625 40.9375 33.625 39 34 C39.7734375 34.5259375 39.7734375 34.5259375 40.5625 35.0625 C42 37 42 37 42.0625 40.375 C40.65780141 45.16750106 39.07928537 46.22608595 35 49 C33.515 49.495 33.515 49.495 32 50 C27.40153097 54.71948137 24.75956606 60.05812584 22 66 C21.34 66 20.68 66 20 66 C19.12890838 68.61327485 18.81120201 70.30711171 18.75 73 C18.71132812 74.0209375 18.71132812 74.0209375 18.671875 75.0625 C19.09887027 77.58380539 20.1271288 78.31260638 22 80 C27.01557487 87.81839612 28.22603984 97.30689002 26.375 106.4375 C24.30116065 111.81062922 21.25372896 117.20895649 16 120 C12.51454302 120.59750691 10.07975342 119.67712833 6.875 118.4375 C2.24204668 116.79330098 -1.41513006 117.05864603 -6.23828125 117.6640625 C-14.13768651 118.62495197 -23.31086186 119.0816716 -30.19921875 114.5546875 C-37.51202384 108.52601639 -42.14571032 100.32060545 -43.25390625 90.82421875 C-43.36979831 86.72163987 -42.65644897 83.70265065 -41 80 C-40.1243362 75.99780504 -39.98298995 72.3267825 -40.16845703 68.23999023 C-40.42218472 61.8534972 -40.35336136 56.37369781 -36.77734375 50.859375 C-34.63799526 48.62128735 -32.34337605 47.26972403 -29.6875 45.6875 C-25.90262888 43.27956858 -25.90262888 43.27956858 -24.28515625 39.25 C-24.24870357 36.07456642 -24.51637878 33.13754265 -25 30 C-25.12503906 29.08089844 -25.25007813 28.16179688 -25.37890625 27.21484375 C-26.20064822 22.30660117 -27.64296601 18.40662876 -30 14 C-31.13138856 9.9887133 -31.08141643 6.15223797 -31 2 C-28.875 1.25 -28.875 1.25 -26 1 C-21.07181837 3.51884839 -17.60052716 7.28661906 -13.83203125 11.29296875 C-12.01032538 13.22731562 -12.01032538 13.22731562 -9 14 C-5.48453819 9.51750177 -2.35287886 5.22861968 0 0 Z M2 9 C-1.26660981 13.5056687 -3.18454172 17.735171 -5 23 C-13.89144737 21.95394737 -13.89144737 21.95394737 -17 20 C-17.7166207 17.68152126 -18.38242027 15.34680297 -19 13 C-20.67256616 10.88998841 -20.67256616 10.88998841 -23 10 C-25.6984589 10.22197813 -25.6984589 10.22197813 -28 11 C-25.14904949 17.39802036 -25.14904949 17.39802036 -20 22 C-18.65936685 26.02189945 -18.81582875 29.72662522 -18.8125 33.9375 C-18.80025391 34.74896484 -18.78800781 35.56042969 -18.77539062 36.39648438 C-18.77249023 37.57500977 -18.77249023 37.57500977 -18.76953125 38.77734375 C-18.76542236 39.49140381 -18.76131348 40.20546387 -18.75708008 40.94116211 C-19.04168247 43.35327465 -19.7422181 44.93094187 -21 47 C-23.0234375 48.4921875 -23.0234375 48.4921875 -25.375 49.875 C-29.512291 52.52420085 -31.90715879 54.52893014 -34 59 C-33.90888062 61.53951544 -33.90888062 61.53951544 -33 64 C-31.78580676 68.93442487 -32.34037431 72.02112294 -33.9375 76.8125 C-35.65718931 82.48330939 -36.66304494 87.11814974 -36 93 C-35.94070312 93.83273438 -35.88140625 94.66546875 -35.8203125 95.5234375 C-35.03736774 101.88247666 -32.89114634 104.80379192 -27.875 108.72265625 C-24.90518687 110.74584145 -23.20566719 111.12137111 -19.6484375 111.09765625 C-18.37226562 111.09282227 -18.37226562 111.09282227 -17.0703125 111.08789062 C-15.73613281 111.07532227 -15.73613281 111.07532227 -14.375 111.0625 C-13.4778125 111.05798828 -12.580625 111.05347656 -11.65625 111.04882812 C-9.43743352 111.03702591 -7.21874982 111.02056155 -5 111 C-5 109.68 -5 108.36 -5 107 C-5 105 -5 103 -5 101 C-3.35 101.33 -1.7 101.66 0 102 C0.495 105.96 0.495 105.96 1 110 C8.97429403 112.0277619 8.97429403 112.0277619 17 111 C19.52737004 109.08268479 19.9716847 108.08494591 21 105 C21.14619515 102.71148355 21.22091336 100.41799684 21.25 98.125 C21.28867188 96.30355469 21.28867188 96.30355469 21.328125 94.4453125 C20.9757058 90.74491091 20.10017885 89.0055191 18 86 C17.30177383 84.34630643 16.62501395 82.68272986 16 81 C14.68 81 13.36 81 12 81 C12.4979837 84.73487777 12.87491756 86.81237635 15 90 C15.39387788 92.32387947 15.73486085 94.65793749 16 97 C15.236875 96.195625 14.47375 95.39125 13.6875 94.5625 C11.20569102 91.83200976 11.20569102 91.83200976 8 91 C8.020625 89.96875 8.04125 88.9375 8.0625 87.875 C8.00723339 84.44847031 7.65449285 81.35427586 7 78 C8.11375 77.67 9.2275 77.34 10.375 77 C12.34429884 76.2351952 12.34429884 76.2351952 14 75 C15.25499873 71.6095456 15.25499873 71.6095456 15.62109375 69.17578125 C16.69051781 63.03486162 19.48044899 57.89132923 22.9140625 52.76171875 C24.16748326 50.87856157 24.16748326 50.87856157 25 48 C25.5775 47.87625 26.155 47.7525 26.75 47.625 C30.06910681 46.70302589 31.70889648 44.48202881 34 42 C33.42557356 39.55721737 33.42557356 39.55721737 32 37 C29.08333333 35.33333333 29.08333333 35.33333333 26 34 C23.5343144 31.95943261 23.04342025 31.13026076 22 28 C29.42657343 27.87412587 29.42657343 27.87412587 32.5625 28.5625 C36.22261267 29.2194433 38.40572128 29.11546581 42 28 C44.08323523 25.80313376 45.79842657 23.52035334 47.51953125 21.03125 C49 19 49 19 51 18 C51 16.35 51 14.7 51 13 C49.35 12.34 47.7 11.68 46 11 C43.36 13.31 40.72 15.62 38 18 C38.495 20.475 38.495 20.475 39 23 C38.5875 22.566875 38.175 22.13375 37.75 21.6875 C34.69000325 18.73678885 32.2278739 16.5433433 27.875 16.1875 C23.74282889 17.05392297 23.31007457 17.29591352 21 20.5 C20.30598316 21.65060687 19.62981794 22.81303542 19 24 C15.14932689 23.47963877 13.68672299 22.68672299 11 20 C9.68 20 8.36 20 7 20 C5.65003747 27.26832582 5.65003747 27.26832582 7.5625 34.1875 C13.11272437 37.11398194 18.85392101 36.37425379 25 36 C24.505 38.475 24.505 38.475 24 41 C23.34 41 22.68 41 22 41 C21.75765625 41.69867188 21.5153125 42.39734375 21.265625 43.1171875 C20.93046875 44.02726562 20.5953125 44.93734375 20.25 45.875 C19.92515625 46.77992187 19.6003125 47.68484375 19.265625 48.6171875 C17.81789929 51.34284392 16.8982542 52.05096382 14 53 C11.875 52.5625 11.875 52.5625 10 51 C8.75 47.375 8.75 47.375 8 44 C7.01 44 6.02 44 5 44 C4.62875 45.010625 4.2575 46.02125 3.875 47.0625 C2.06082403 51.31583121 -0.5888607 54.87391413 -4 58 C-6 58 -6 58 -8.6875 55.375 C-10.68261933 52.8737442 -11 52.27989713 -11 48.9375 C-9.75464442 45.27926797 -8.39235206 42.34276143 -5.57421875 39.625 C0.01581594 34.07657847 0.80121974 27.58175937 2 20 C3.32 19.67 4.64 19.34 6 19 C5.505 14.545 5.505 14.545 5 10 C4.01 9.67 3.02 9.34 2 9 Z " fill="#777677" transform="translate(63,8)"/>
<path d="M0 0 C1.65 0.66 3.3 1.32 5 2 C5.3125 4.1875 5.3125 4.1875 5 7 C2.75 9.5 2.75 9.5 0 12 C-0.556875 12.9075 -1.11375 13.815 -1.6875 14.75 C-5.26735921 18.23310625 -9.15916039 18.03829778 -14 18 C-17.375 17.5625 -17.375 17.5625 -20 17 C-21.32 17 -22.64 17 -24 17 C-22.70422646 20.88732062 -20.22482071 22.67812909 -17 25 C-16.236875 25.350625 -15.47375 25.70125 -14.6875 26.0625 C-13 27 -13 27 -12.39453125 29.05859375 C-12.19923828 30.01958984 -12.19923828 30.01958984 -12 31 C-13.1196986 32.00593243 -14.2459412 33.0045849 -15.375 34 C-16.00148437 34.556875 -16.62796875 35.11375 -17.2734375 35.6875 C-19 37 -19 37 -21 37 C-21.27972656 37.58394531 -21.55945313 38.16789062 -21.84765625 38.76953125 C-22.9270405 40.85878008 -24.12606449 42.73873134 -25.4375 44.6875 C-28.71005226 49.87145446 -30.79561715 55.24083158 -31.25 61.375 C-32 64 -32 64 -33.61328125 65.03125 C-35.5625 65.875 -35.5625 65.875 -39 67 C-38.9669712 69.10483555 -38.89755454 71.2091243 -38.8125 73.3125 C-38.77769531 74.48425781 -38.74289063 75.65601562 -38.70703125 76.86328125 C-38.31872243 80.17408921 -38.31872243 80.17408921 -35.5625 81.8125 C-34.716875 82.204375 -33.87125 82.59625 -33 83 C-31.1875 84.6875 -31.1875 84.6875 -30 86 C-30.2475 84.3603125 -30.2475 84.3603125 -30.5 82.6875 C-31 79 -31 79 -31 76 C-30.01 76.495 -30.01 76.495 -29 77 C-28.6309795 88.52164009 -28.6309795 88.52164009 -31 94 C-31.66 94 -32.32 94 -33 94 C-33.66 90.7 -34.32 87.4 -35 84 C-37.475 84.495 -37.475 84.495 -40 85 C-41.16063604 80.74433453 -40.76173392 77.3164922 -40 73 C-40.99 73.495 -40.99 73.495 -42 74 C-42.495 75.485 -42.495 75.485 -43 77 C-44.62449243 78.70779973 -46.29220027 80.37550757 -48 82 C-48.99 82.99 -48.99 82.99 -50 84 C-51.99956611 84.04165763 -54.00043389 84.04165763 -56 84 C-56.99 84.495 -56.99 84.495 -58 85 C-63.09099889 85.38422633 -65.83267481 84.92839067 -70 82 C-71.0828125 81.5359375 -71.0828125 81.5359375 -72.1875 81.0625 C-74.61690185 79.63836788 -75.19596263 78.70448932 -76 76 C-75.88457546 69.99792402 -73.83507932 65.51359336 -70 61 C-66.38522598 58.20226394 -62.21262443 56.68504977 -58 55 C-57.34 54.34 -56.68 53.68 -56 53 C-53.375 53.375 -53.375 53.375 -51 54 C-51.33 54.99 -51.66 55.98 -52 57 C-52.99 57.495 -52.99 57.495 -54 58 C-53.67 58.66 -53.34 59.32 -53 60 C-53 59.34 -53 58.68 -53 58 C-51.02 57.505 -51.02 57.505 -49 57 C-49.226875 55.7625 -49.45375 54.525 -49.6875 53.25 C-50.07527328 50.21244265 -50.15277989 49.29100931 -48.6875 46.5 C-47 45 -47 45 -45 45 C-44.896875 44.319375 -44.79375 43.63875 -44.6875 42.9375 C-43.85274981 39.37084011 -42.50527246 36.33777806 -41 33 C-40.01 33 -39.02 33 -38 33 C-37.773125 34.11375 -37.54625 35.2275 -37.3125 36.375 C-36.37666807 40.10696485 -36.37666807 40.10696485 -33.5625 41.5625 C-30.76814291 42.34146478 -30.76814291 42.34146478 -28 40 C-26.77155177 37.5939111 -26.77155177 37.5939111 -25.8125 34.875 C-25.46832031 33.96492188 -25.12414062 33.05484375 -24.76953125 32.1171875 C-24.51558594 31.41851562 -24.26164062 30.71984375 -24 30 C-23.34 30 -22.68 30 -22 30 C-21.67 28.35 -21.34 26.7 -21 25 C-21.95261719 25.05800781 -22.90523437 25.11601563 -23.88671875 25.17578125 C-33.97817 25.53878309 -33.97817 25.53878309 -38.4375 23.1875 C-40.78947724 18.38946644 -39.91044782 14.1471852 -39 9 C-35.11776095 9.65985251 -33.1108024 10.6150515 -30 13 C-29.01 13 -28.02 13 -27 13 C-25.82697769 11.44102608 -25.82697769 11.44102608 -24.8125 9.5 C-22.59562903 6.23128035 -22.29050535 6.06091241 -18.125 5.1875 C-13.21167529 5.58915962 -10.27630643 8.55987825 -7 12 C-7.495 9.525 -7.495 9.525 -8 7 C-4.04 3.535 -4.04 3.535 0 0 Z " fill="#F3F3F3" transform="translate(109,19)"/>
<path d="M0 0 C2.30078125 0.19921875 2.30078125 0.19921875 5 1 C6.73046875 3.14453125 6.73046875 3.14453125 8.1875 5.8125 C8.67605469 6.68519531 9.16460937 7.55789062 9.66796875 8.45703125 C10.80432776 10.6264439 11.91916503 12.80247297 13 15 C14.093125 14.54625 15.18625 14.0925 16.3125 13.625 C16.92738281 13.36976562 17.54226562 13.11453125 18.17578125 12.8515625 C20.26533932 11.93193308 20.26533932 11.93193308 23 10 C25.5234375 9.91015625 25.5234375 9.91015625 28.375 10.0625 C32.82957438 10.13292805 35.52836923 10.05082704 39 7 C39.66 6.113125 40.32 5.22625 41 4.3125 C43 2 43 2 45.4375 1.3125 C49.35050856 2.36233157 50.76381133 4.74155365 53 8 C53 8.99 53 9.98 53 11 C56.50538557 12.96301592 60.13351728 13.95902388 64 15 C64 15.99 64 16.98 64 18 C63.34773438 18.06316406 62.69546875 18.12632813 62.0234375 18.19140625 C57.10360393 18.88076346 53.88564865 19.45870089 50.6875 23.4375 C50.22214844 24.06140625 49.75679688 24.6853125 49.27734375 25.328125 C45.89770346 29.75162972 40.13302032 31.21550408 35.109375 33.1328125 C33.05078124 33.82084166 33.05078124 33.82084166 32 35 C29.66055264 34.71269945 27.3260857 34.38063221 25 34 C24.67 33.01 24.34 32.02 24 31 C23.01 30.67 22.02 30.34 21 30 C21 29.01 21 28.02 21 27 C25.81575837 26.26539279 29.23430049 26.02242061 34 27 C37.46956742 27.31525218 37.46956742 27.31525218 41 26 C43.08123918 23.76739798 44.80090829 21.45450294 46.51953125 18.93359375 C47.00808594 18.29550781 47.49664062 17.65742188 48 17 C48.66 17 49.32 17 50 17 C50 15.35 50 13.7 50 12 C47.85945818 10.94949548 47.85945818 10.94949548 45 11 C42.22353807 12.60621764 40.02123353 14.51057113 38 17 C37.41036322 19.75775342 37.41036322 19.75775342 38 22 C34.24291498 20.31578947 34.24291498 20.31578947 32.75 18.375 C30.32840393 16.47231737 28.02887063 16.35165279 25.0078125 16.4296875 C21.7182093 17.36408841 20.51612024 19.64432697 18.8125 22.46875 C18.544375 22.9740625 18.27625 23.479375 18 24 C14.17670414 23.4833384 12.62665115 22.74085338 10 20 C8.67795369 19.62439058 7.34430183 19.28590468 6 19 C5.89146509 20.74861792 5.81416572 22.49919241 5.75 24.25 C5.68039063 25.71179687 5.68039063 25.71179687 5.609375 27.203125 C5.80083211 30.07068468 5.80083211 30.07068468 7.5625 32.3125 C10.83880374 34.58071028 13.29537809 34.60353252 17.25 34.75 C19.14492187 34.83507813 19.14492187 34.83507813 21.078125 34.921875 C22.04234375 34.94765625 23.0065625 34.9734375 24 35 C23.67 36.65 23.34 38.3 23 40 C22.34 40 21.68 40 21 40 C20.9175 40.86625 20.835 41.7325 20.75 42.625 C19.88167943 46.53244256 18.47211289 48.87350429 16 52 C13 53 13 53 10.375 52 C8 50 8 50 7.1875 46.3125 C7.125625 45.219375 7.06375 44.12625 7 43 C6.01 43 5.02 43 4 43 C3.9175 43.886875 3.835 44.77375 3.75 45.6875 C2.52616717 51.09276166 -1.10427552 54.24340854 -5 58 C-8.86512502 56.71162499 -11.02229156 54.48530585 -13 51 C-13 46.53566332 -11.5445312 43.59744066 -9 40 C-8.52949219 39.54625 -8.05898438 39.0925 -7.57421875 38.625 C-1.98418406 33.07657847 -1.19878026 26.58175937 0 19 C1.65 18.67 3.3 18.34 5 18 C4.34 15.03 3.68 12.06 3 9 C2.34 9 1.68 9 1 9 C-1.87637571 13.00191403 -3.3180425 17.41284318 -5 22 C-5.33 22.33 -5.66 22.66 -6 23 C-9.77453403 22.78634713 -12.29954802 22.4849283 -15.4375 20.3125 C-17.4218681 17.37563521 -17.31577173 15.473489 -17 12 C-15.9171875 12.495 -15.9171875 12.495 -14.8125 13 C-11.98302573 14.00603529 -9.97104534 14.16977402 -7 14 C-6.731875 13.2575 -6.46375 12.515 -6.1875 11.75 C-5.04702351 9.10889655 -3.71322928 7.28430571 -2 5 C-1.28837557 3.35202764 -0.60968047 1.68834592 0 0 Z " fill="#747374" transform="translate(64,9)"/>
<path d="M0 0 C2.625 0.375 2.625 0.375 5 1 C4.67 1.99 4.34 2.98 4 4 C3.01 4.495 3.01 4.495 2 5 C2 5.66 2 6.32 2 7 C3.68805632 8.66877721 3.68805632 8.66877721 5.8125 10.375 C8.625432 12.70117691 11.09054164 14.86082574 13 18 C12.15846106 23.68038784 10.11163926 27.16869978 6 31 C2.8125 31.3125 2.8125 31.3125 0 31 C-0.66 31.33 -1.32 31.66 -2 32 C-7.09099889 32.38422633 -9.83267481 31.92839067 -14 29 C-14.721875 28.690625 -15.44375 28.38125 -16.1875 28.0625 C-18.61690185 26.63836788 -19.19596263 25.70448932 -20 23 C-19.88457546 16.99792402 -17.83507932 12.51359336 -14 8 C-10.38522598 5.20226394 -6.21262443 3.68504977 -2 2 C-1.34 1.34 -0.68 0.68 0 0 Z " fill="#7C7B7C" transform="translate(53,72)"/>
<path d="M0 0 C2 3 2 3 2.87890625 5.046875 C4.25811235 7.44967308 5.45164593 8.08345396 7.9375 9.25 C8.62714844 9.58515625 9.31679687 9.9203125 10.02734375 10.265625 C12.11776306 11.17444267 12.11776306 11.17444267 15 11 C14.67 11.99 14.34 12.98 14 14 C10.17670414 13.4833384 8.62665115 12.74085338 6 10 C4.67795369 9.62439058 3.34430183 9.28590468 2 9 C1.89146509 10.74861792 1.81416572 12.49919241 1.75 14.25 C1.68039063 15.71179688 1.68039063 15.71179688 1.609375 17.203125 C1.80083211 20.07068468 1.80083211 20.07068468 3.5625 22.3125 C6.83880374 24.58071028 9.29537809 24.60353252 13.25 24.75 C15.14492187 24.83507813 15.14492187 24.83507813 17.078125 24.921875 C18.52445313 24.96054687 18.52445313 24.96054687 20 25 C19.505 27.475 19.505 27.475 19 30 C18.34 30 17.68 30 17 30 C16.9175 30.86625 16.835 31.7325 16.75 32.625 C15.88167943 36.53244256 14.47211289 38.87350429 12 42 C9 43 9 43 6.375 42 C4 40 4 40 3.1875 36.3125 C3.125625 35.219375 3.06375 34.12625 3 33 C2.01 33 1.02 33 0 33 C-0.0825 33.886875 -0.165 34.77375 -0.25 35.6875 C-1.47383283 41.09276166 -5.10427552 44.24340854 -9 48 C-12.86512502 46.71162499 -15.02229156 44.48530585 -17 41 C-17 36.53566332 -15.5445312 33.59744066 -13 30 C-12.29423828 29.319375 -12.29423828 29.319375 -11.57421875 28.625 C-5.98418406 23.07657847 -5.19878026 16.58175937 -4 9 C-2.35 8.67 -0.7 8.34 1 8 C0.67 5.36 0.34 2.72 0 0 Z " fill="#878787" transform="translate(68,19)"/>
<path d="M0 0 C2.82630897 1.03631329 3.81090529 1.60080006 5.125 4.375 C5.41375 5.24125 5.7025 6.1075 6 7 C6.51240234 7.85658203 6.51240234 7.85658203 7.03515625 8.73046875 C8.36436643 11.85707246 8.30165697 14.55085936 8.3125 17.9375 C8.32925781 19.14277344 8.34601563 20.34804687 8.36328125 21.58984375 C7.97205124 25.26235775 7.22463881 27.08765083 5 30 C1.35581659 32.42945561 0.07076636 32.0828781 -4.1875 31.625 C-5.27417969 31.51414062 -6.36085938 31.40328125 -7.48046875 31.2890625 C-8.31191406 31.19367188 -9.14335938 31.09828125 -10 31 C-10.33569297 29.37548581 -10.6684796 27.75037083 -11 26.125 C-11.185625 25.22007813 -11.37125 24.31515625 -11.5625 23.3828125 C-12 21 -12 21 -12 19 C-13.32 18.34 -14.64 17.68 -16 17 C-15.25 13.625 -15.25 13.625 -14 10 C-11.9375 8.8125 -11.9375 8.8125 -10 8 C-9.19471111 5.94999129 -9.19471111 5.94999129 -9 4 C-8.34 4 -7.68 4 -7 4 C-7 7.63 -7 11.26 -7 15 C-5.35 14.67 -3.7 14.34 -2 14 C-0.19769832 17.82989106 0.19622241 20.78121808 0 25 C0.66 25 1.32 25 2 25 C2.66 19.39 3.32 13.78 4 8 C2.68 7.67 1.36 7.34 0 7 C-0.38133299 5.0085944 -0.71325582 3.00720923 -1 1 C-0.67 0.67 -0.34 0.34 0 0 Z " fill="#F6F6F6" transform="translate(76,88)"/>
<path d="M0 0 C1.32 0.33 2.64 0.66 4 1 C3.01 1.33 2.02 1.66 1 2 C0.24159189 3.68168755 -0.50931563 5.36796933 -1.19140625 7.08203125 C-2.44908514 10.06522127 -3.96562357 12.48694676 -6 15 C-9.02578655 16.21031462 -10.29445156 16.28603315 -13.3125 15.0625 C-13.869375 14.711875 -14.42625 14.36125 -15 14 C-15 15.98 -15 17.96 -15 20 C-15.66 20 -16.32 20 -17 20 C-17.433125 18.88625 -17.86625 17.7725 -18.3125 16.625 C-19.69911119 12.82487666 -19.69911119 12.82487666 -23 11 C-25.15274948 11.30840599 -25.15274948 11.30840599 -27 12 C-24.6890412 16.37431487 -23.10883172 19.16632295 -19 22 C-17.66629959 26.00110123 -17.77664525 29.68503403 -17.75 33.875 C-17.729375 34.67808594 -17.70875 35.48117188 -17.6875 36.30859375 C-17.65660088 40.99753491 -17.86074325 44.23593972 -21 48 C-21.66 48 -22.32 48 -23 48 C-22.67 47.01 -22.34 46.02 -22 45 C-21.34 45 -20.68 45 -20 45 C-20.495 34.605 -20.495 34.605 -21 24 C-21.33 24 -21.66 24 -22 24 C-22.33 29.94 -22.66 35.88 -23 42 C-23.33 42 -23.66 42 -24 42 C-24.03963867 41.43603516 -24.07927734 40.87207031 -24.12011719 40.29101562 C-24.31272589 37.69239434 -24.53119035 35.09654123 -24.75 32.5 C-24.811875 31.613125 -24.87375 30.72625 -24.9375 29.8125 C-25.41186662 24.43634493 -26.42004254 20.33867057 -29.09570312 15.63110352 C-31.46484235 11.3578262 -31.09329279 6.75793242 -31 2 C-28.875 1.25 -28.875 1.25 -26 1 C-21.07181837 3.51884839 -17.60052716 7.28661906 -13.83203125 11.29296875 C-12.01032538 13.22731562 -12.01032538 13.22731562 -9 14 C-5.48453819 9.51750177 -2.35287886 5.22861968 0 0 Z " fill="#7F7E7F" transform="translate(63,8)"/>
<path d="M0 0 C0.886875 0.144375 1.77375 0.28875 2.6875 0.4375 C2.89375 1.22125 3.1 2.005 3.3125 2.8125 C4.49426612 5.74666286 4.49426612 5.74666286 7.8125 6.75 C8.76125 6.976875 9.71 7.20375 10.6875 7.4375 C10.3575 8.4275 10.0275 9.4175 9.6875 10.4375 C7.2125 9.9425 7.2125 9.9425 4.6875 9.4375 C4.3575 8.1175 4.0275 6.7975 3.6875 5.4375 C0.82417247 5.83244173 -0.08759389 6.14062394 -1.875 8.5 C-2.349375 9.139375 -2.82375 9.77875 -3.3125 10.4375 C-4.3025 10.4375 -5.2925 10.4375 -6.3125 10.4375 C-5.96805119 12.91016765 -5.96805119 12.91016765 -5.3125 15.4375 C-4.6525 15.7675 -3.9925 16.0975 -3.3125 16.4375 C-3.3125 17.0975 -3.3125 17.7575 -3.3125 18.4375 C-7.28991242 20.42620621 -11.98678988 19.9540956 -16.3125 19.4375 C-19.5625 17.625 -19.5625 17.625 -21.3125 14.4375 C-21.40205664 10.68665709 -20.96501716 7.12648318 -20.3125 3.4375 C-16.43026095 4.09735251 -14.4233024 5.0525515 -11.3125 7.4375 C-10.3225 7.4375 -9.3325 7.4375 -8.3125 7.4375 C-7.0668533 5.88438575 -7.0668533 5.88438575 -6 3.9375 C-3.72620087 0.49213974 -3.72620087 0.49213974 0 0 Z " fill="#EDEDED" transform="translate(90.3125,24.5625)"/>
<path d="M0 0 C0.33 0 0.66 0 1 0 C1.33910994 2.04071515 1.67102704 4.08262621 2 6.125 C2.185625 7.26195313 2.37125 8.39890625 2.5625 9.5703125 C2.96956049 12.76137602 3.07809902 15.78817791 3 19 C3.99 19.33 4.98 19.66 6 20 C7.68711423 21.6459651 9.3545622 23.31237149 11 25 C13.34852528 26.17426264 14.73774065 26.11508173 17.3515625 26.09765625 C18.62773438 26.09282227 18.62773438 26.09282227 19.9296875 26.08789062 C21.26386719 26.07532227 21.26386719 26.07532227 22.625 26.0625 C23.5221875 26.05798828 24.419375 26.05347656 25.34375 26.04882812 C27.56252831 26.03702611 29.78127243 26.01909039 32 26 C31.505 21.545 31.505 21.545 31 17 C33.375 16.375 33.375 16.375 36 16 C38 18 38 18 38.1953125 19.9453125 C38.13020833 21.96354167 38.06510417 23.98177083 38 26 C37.67 26 37.34 26 37 26 C36.505 22.535 36.505 22.535 36 19 C35.01 19 34.02 19 33 19 C33.57584432 21.38564077 34.22227595 23.66682784 35 26 C31.59036354 29.40963646 26.87394422 28.36907187 22.25 28.375 C21.26 28.39949219 20.27 28.42398438 19.25 28.44921875 C13.25935804 28.47324539 9.45252669 28.19506766 5 24 C5 23.01 5 22.02 5 21 C4.01 21 3.02 21 2 21 C2 21.99 2 22.98 2 24 C2.53625 24.2475 3.0725 24.495 3.625 24.75 C6 26 6 26 8.3828125 28.06640625 C13.14736467 31.25388731 18.75165816 30.37170237 24.25 30.1875 C26.57805095 30.14424891 28.90618383 30.1052094 31.234375 30.0703125 C32.37841797 30.05129883 33.52246094 30.03228516 34.70117188 30.01269531 C40.06646853 29.99204734 45.39559283 30.32632449 50.74316406 30.7331543 C54.48888081 31.09856656 54.48888081 31.09856656 58 30 C56.84807997 33.4557601 56.08865366 34.19828537 53 36 C49.51454302 36.59750691 47.07975342 35.67712833 43.875 34.4375 C39.24204668 32.79330098 35.58486994 33.05864603 30.76171875 33.6640625 C22.88333956 34.62239434 13.54409579 35.15385669 6.765625 30.44921875 C3.41268121 27.59187431 0.46275926 24.67147546 -2 21 C-2 20.34 -2 19.68 -2 19 C-1.01 19 -0.02 19 1 19 C0.85892253 17.54119891 0.71197585 16.08296449 0.5625 14.625 C0.44068359 13.40683594 0.44068359 13.40683594 0.31640625 12.1640625 C0.10909886 9.95727195 0.10909886 9.95727195 -1 8 C-1.23076923 2.46153846 -1.23076923 2.46153846 0 0 Z " fill="#898889" transform="translate(26,92)"/>
<path d="M0 0 C0.33 0.99 0.66 1.98 1 3 C2.0209375 3.0309375 2.0209375 3.0309375 3.0625 3.0625 C7.41433663 4.45138403 10.23631732 7.41167006 13 11 C13.98752296 13.73111817 14.09833139 14.67222869 13.25 17.5 C12.04232114 19.91535773 10.70248726 21.91058382 9 24 C7.02 23.67 5.04 23.34 3 23 C3 22.01 3 21.02 3 20 C3.639375 19.7525 4.27875 19.505 4.9375 19.25 C7.18741541 18.18437567 7.18741541 18.18437567 7.75 15.875 C7.8325 15.25625 7.915 14.6375 8 14 C7.38125 13.9175 6.7625 13.835 6.125 13.75 C4 13 4 13 2.875 11 C2.58625 10.34 2.2975 9.68 2 9 C-0.46816414 7.76591793 -2.24661201 7.79802421 -5 7.75 C-5.886875 7.72421875 -6.77375 7.6984375 -7.6875 7.671875 C-8.450625 7.78015625 -9.21375 7.8884375 -10 8 C-12.46751239 11.70126859 -12.30721156 13.62223532 -12 18 C-11.11935073 20.35369807 -11.11935073 20.35369807 -10 22 C-11.65 22 -13.3 22 -15 22 C-17.38231412 16.28244611 -17.38231412 16.28244611 -16.3828125 12.9296875 C-14.09872467 8.27298129 -11.4240259 3.64208206 -7.0625 0.6875 C-4.61573474 -0.12808842 -2.5623809 -0.14235449 0 0 Z " fill="#777677" transform="translate(52,77)"/>
<path d="M0 0 C-1.98 0.99 -1.98 0.99 -4 2 C-3.484375 2.350625 -2.96875 2.70125 -2.4375 3.0625 C-1 5 -1 5 -0.9375 8.375 C-2.34219859 13.16750106 -3.92071463 14.22608595 -8 17 C-8.99 17.33 -9.98 17.66 -11 18 C-15.59846903 22.71948137 -18.24043394 28.05812584 -21 34 C-21.33 34 -21.66 34 -22 34 C-22 32.35 -22 30.7 -22 29 C-23.32 29.33 -24.64 29.66 -26 30 C-25.33333333 28.66666667 -24.66666667 27.33333333 -24 26 C-23.566875 25.030625 -23.13375 24.06125 -22.6875 23.0625 C-20.84953769 19.72693877 -18.86320515 17.49612757 -16 15 C-15.34 15 -14.68 15 -14 15 C-13.67 14.01 -13.34 13.02 -13 12 C-12.01 11.34 -11.02 10.68 -10 10 C-10.27617533 8.05925139 -10.27617533 8.05925139 -11 6 C-11.99 5.34 -12.98 4.68 -14 4 C-13.2575 3.71125 -12.515 3.4225 -11.75 3.125 C-9.07763188 2.09797087 -9.07763188 2.09797087 -7 0.875 C-4.55711377 -0.19376273 -2.63824739 -0.1465693 0 0 Z " fill="#676667" transform="translate(106,40)"/>
<path d="M0 0 C1.65 0.66 3.3 1.32 5 2 C5.3125 4.1875 5.3125 4.1875 5 7 C2.75 9.5 2.75 9.5 0 12 C-0.556875 12.9075 -1.11375 13.815 -1.6875 14.75 C-5.26735921 18.23310625 -9.15916039 18.03829778 -14 18 C-17.375 17.5625 -17.375 17.5625 -20 17 C-21.32 17 -22.64 17 -24 17 C-22.768606 20.69418201 -20.79208646 22.35109746 -18 25 C-18.66 26.32 -19.32 27.64 -20 29 C-20.66 28.67 -21.32 28.34 -22 28 C-21.67 27.01 -21.34 26.02 -21 25 C-21.99 24.67 -22.98 24.34 -24 24 C-23.34 24 -22.68 24 -22 24 C-22 23.34 -22 22.68 -22 22 C-22.99 21.67 -23.98 21.34 -25 21 C-25.33 20.01 -25.66 19.02 -26 18 C-25 16 -25 16 -23.0625 15.0625 C-20.68028507 14.04654078 -20.68028507 14.04654078 -19 11 C-17.68 11 -16.36 11 -15 11 C-14.34 12.32 -13.68 13.64 -13 15 C-11.68 15 -10.36 15 -9 15 C-8.67 14.34 -8.34 13.68 -8 13 C-8.94875 12.773125 -9.8975 12.54625 -10.875 12.3125 C-14 11 -14 11 -15.375 8.375 C-15.58125 7.59125 -15.7875 6.8075 -16 6 C-12.56404834 7.52708963 -9.88087546 9.59927045 -7 12 C-7.33 10.35 -7.66 8.7 -8 7 C-4.04 3.535 -4.04 3.535 0 0 Z " fill="#949494" transform="translate(109,19)"/>
<path d="M0 0 C-0.31323028 1.67056149 -0.65334443 3.33605325 -1 5 C-1.08765625 5.66257812 -1.1753125 6.32515625 -1.265625 7.0078125 C-1.63834904 9.20364325 -2.02647553 10.99210578 -3 13 C-5.31113922 14.61565751 -7.24918355 15.18494327 -10 16 C-9.9669712 18.10483555 -9.89755454 20.2091243 -9.8125 22.3125 C-9.77769531 23.48425781 -9.74289063 24.65601563 -9.70703125 25.86328125 C-9.31872243 29.17408921 -9.31872243 29.17408921 -6.5625 30.8125 C-5.716875 31.204375 -4.87125 31.59625 -4 32 C-2.1875 33.6875 -2.1875 33.6875 -1 35 C-1.2475 33.3603125 -1.2475 33.3603125 -1.5 31.6875 C-2 28 -2 28 -2 25 C-1.34 25.33 -0.68 25.66 0 26 C0.3690205 37.52164009 0.3690205 37.52164009 -2 43 C-2.66 43 -3.32 43 -4 43 C-4.99 38.05 -4.99 38.05 -6 33 C-8.475 33.495 -8.475 33.495 -11 34 C-12.16063604 29.74433453 -11.76173392 26.3164922 -11 22 C-13.33075929 22.95865509 -13.33075929 22.95865509 -15 26 C-14.855625 25.175 -14.71125 24.35 -14.5625 23.5 C-15.14073575 18.87411401 -17.21732724 17.02193766 -20.37109375 13.734375 C-22 12 -22 12 -23 10 C-20.07909997 11.30936898 -18.24380538 12.75619462 -16 15 C-15.01 15.33 -14.02 15.66 -13 16 C-12.67 15.01 -12.34 14.02 -12 13 C-10.02 12.67 -8.04 12.34 -6 12 C-6 10.68 -6 9.36 -6 8 C-7.65 8 -9.3 8 -11 8 C-9.42496966 3.18740731 -9.42496966 3.18740731 -8 1 C-5.14287749 0.12537066 -2.95122196 0 0 0 Z " fill="#CECECE" transform="translate(80,70)"/>
<path d="M0 0 C2.63056405 2.11906548 4.1201243 4.18018645 6 7 C5.89453125 9.07421875 5.89453125 9.07421875 5 11 C3.07421875 12.08203125 3.07421875 12.08203125 0.6875 12.8125 C-0.09238281 13.06644531 -0.87226562 13.32039063 -1.67578125 13.58203125 C-5.29149701 14.2322524 -7.26801558 13.50832251 -10.25 11.4375 C-11.11625 10.7259375 -11.11625 10.7259375 -12 10 C-11.74327938 6.2347642 -11.40674134 4.44160489 -8.8125 1.625 C-5.47589307 -0.30281734 -3.79079343 -0.64524143 0 0 Z " fill="#F1F1F1" transform="translate(52,84)"/>
<path d="M0 0 C2.475 0.495 2.475 0.495 5 1 C5 2.32 5 3.64 5 5 C3.35 5.33 1.7 5.66 0 6 C0.103125 6.78375 0.20625 7.5675 0.3125 8.375 C-0.13502617 13.56630359 -2.50507972 17.49132264 -5 22 C-8.73353364 21.7128051 -11.32404139 21.46797134 -14.4375 19.3125 C-16.4218681 16.37563521 -16.31577173 14.473489 -16 11 C-14.9171875 11.495 -14.9171875 11.495 -13.8125 12 C-10.98302573 13.00603529 -8.97104534 13.16977402 -6 13 C-5.731875 12.2575 -5.46375 11.515 -5.1875 10.75 C-4 8 -4 8 -2.4375 5.9375 C-0.94296201 3.92312271 -0.43661788 2.44506011 0 0 Z " fill="#4E4E4F" transform="translate(63,10)"/>
<path d="M0 0 C0.66 0 1.32 0 2 0 C-0.66362661 8.16845494 -0.66362661 8.16845494 -6 11 C-8.61545964 12.08673362 -11.24456985 13.12292755 -13.890625 14.1328125 C-15.94921876 14.82084166 -15.94921876 14.82084166 -17 16 C-19.33944736 15.71269945 -21.6739143 15.38063221 -24 15 C-24.33 14.01 -24.66 13.02 -25 12 C-25.99 11.67 -26.98 11.34 -28 11 C-28 10.01 -28 9.02 -28 8 C-23.18424163 7.26539279 -19.76569951 7.02242061 -15 8 C-9.54517805 7.70246426 -6.28308811 6.38662781 -2 3 C-1.34 2.01 -0.68 1.02 0 0 Z " fill="#474748" transform="translate(113,28)"/>
<path d="M0 0 C0.99 0 1.98 0 3 0 C3.33 0.99 3.66 1.98 4 3 C8.64698012 7.11869185 14.4392894 6.55747953 20.3125 6.6875 C21.31990234 6.72166016 22.32730469 6.75582031 23.36523438 6.79101562 C27.73643457 6.93055231 32.09938644 7.01258363 36.47265625 6.9765625 C39.18925548 6.99461299 41.48816992 7.15670953 44.125 7.6875 C48.50116542 8.04041657 50.29499489 7.20536018 54 5 C54.66 5 55.32 5 56 5 C55.125 9.875 55.125 9.875 54 11 C52.53599839 11.01681675 51.07108797 10.96244495 49.609375 10.87890625 C48.68181396 10.83080811 47.75425293 10.78270996 46.79858398 10.7331543 C45.79255127 10.67683838 44.78651855 10.62052246 43.75 10.5625 C37.49614536 10.23102361 31.2753824 9.94751597 25.01171875 10.0703125 C24.07295898 10.08763428 23.13419922 10.10495605 22.16699219 10.12280273 C20.38720374 10.16498913 18.60770615 10.22361514 16.82910156 10.30102539 C11.31589342 10.42313956 8.42474524 9.60734956 4 6 C3.21625 5.484375 2.4325 4.96875 1.625 4.4375 C0.820625 3.7259375 0.820625 3.7259375 0 3 C0 2.01 0 1.02 0 0 Z " fill="#434344" transform="translate(28,113)"/>
<path d="M0 0 C2.1875 -0.375 2.1875 -0.375 5 0 C10 5 10 5 10 9 C13.50538557 10.96301592 17.13351728 11.95902388 21 13 C21 13.99 21 14.98 21 16 C19.98679687 16.14695312 19.98679687 16.14695312 18.953125 16.296875 C12.04032595 17.37079086 12.04032595 17.37079086 7 22 C7 19 7 19 8 17 C4.535 19.97 4.535 19.97 1 23 C1 19.06830895 2.39419615 17.83572772 5 15 C5.66 15 6.32 15 7 15 C7 13.35 7 11.7 7 10 C3.41672247 8.99782936 3.41672247 8.99782936 0 10 C0.33 9.01 0.66 8.02 1 7 C3.31 7.33 5.62 7.66 8 8 C6.8624438 5.40858714 6.8624438 5.40858714 5 3 C2.11814893 2.5782657 0.60277697 2.69861151 -2 4 C-1.34 2.68 -0.68 1.36 0 0 Z " fill="#7A797A" transform="translate(107,11)"/>
<path d="M0 0 C2.00720923 0.28674418 4.0085944 0.61866701 6 1 C3.92446352 1.5534764 2.15634036 2 0 2 C0.33 3.65 0.66 5.3 1 7 C3.97 7.495 3.97 7.495 7 8 C5.68 8.99 4.36 9.98 3 11 C5.3109588 15.37431487 6.89116828 18.16632295 11 21 C12.33370041 25.00110123 12.22335475 28.68503403 12.25 32.875 C12.270625 33.67808594 12.29125 34.48117188 12.3125 35.30859375 C12.34339912 39.99753491 12.13925675 43.23593972 9 47 C8.34 47 7.68 47 7 47 C7.33 46.01 7.66 45.02 8 44 C8.66 44 9.32 44 10 44 C9.505 33.605 9.505 33.605 9 23 C8.67 23 8.34 23 8 23 C7.67 28.94 7.34 34.88 7 41 C6.67 41 6.34 41 6 41 C5.96036133 40.43603516 5.92072266 39.87207031 5.87988281 39.29101562 C5.68727411 36.69239434 5.46880965 34.09654123 5.25 31.5 C5.188125 30.613125 5.12625 29.72625 5.0625 28.8125 C4.58813338 23.43634493 3.57995746 19.33867057 0.90429688 14.63110352 C-1.44855759 10.38719944 -1.18195269 5.73076985 -1 1 C-0.67 0.67 -0.34 0.34 0 0 Z " fill="#9C9C9C" transform="translate(33,9)"/>
<path d="M0 0 C0.99 0 1.98 0 3 0 C2.25 4.75 2.25 4.75 0 7 C-0.64767793 9.57061311 -0.64767793 9.57061311 -1 12 C-0.01 12.33 0.98 12.66 2 13 C1.69573612 15.89050687 1.50638033 17.51309583 -0.625 19.5625 C-4.52772148 20.28142238 -6.75750566 18.12009246 -10 16 C-9.49197232 11.63096191 -8.65725947 8.54301263 -6 5 C-3.9375 3.875 -3.9375 3.875 -2 3 C-1.34 2.01 -0.68 1.02 0 0 Z " fill="#717171" transform="translate(61,44)"/>
<path d="M0 0 C0.33 1.32 0.66 2.64 1 4 C2.32 4.33 3.64 4.66 5 5 C4.67 5.66 4.34 6.32 4 7 C3.01 6.67 2.02 6.34 1 6 C1.4979837 9.73487777 1.87491756 11.81237635 4 15 C4.07905064 17.33199388 4.08798769 19.66832622 4 22 C1 21 1 21 -1 18 C-3.05003955 16.80767387 -3.05003955 16.80767387 -5 16 C-4.979375 14.96875 -4.95875 13.9375 -4.9375 12.875 C-4.99276661 9.44847031 -5.34550715 6.35427586 -6 3 C-4.02 2.01 -2.04 1.02 0 0 Z " fill="#9C9C9C" transform="translate(75,83)"/>
<path d="M0 0 C0.92482178 0.05357666 1.84964355 0.10715332 2.80249023 0.16235352 C3.62193115 0.21584961 4.44137207 0.2693457 5.28564453 0.32446289 C7.36453994 0.46696846 7.36453994 0.46696846 9.29077148 -0.68139648 C8.13885145 2.77436361 7.37942514 3.51688888 4.29077148 5.31860352 C0.8053145 5.91611043 -1.6294751 4.99573184 -4.83422852 3.75610352 C-9.46329163 2.1132851 -13.11699589 2.3724121 -17.93579102 2.98657227 C-24.23903343 3.74118579 -30.48878065 3.62817149 -36.70922852 2.31860352 C-36.70922852 1.65860352 -36.70922852 0.99860352 -36.70922852 0.31860352 C-24.40079722 -0.50703945 -12.32191203 -0.73969303 0 0 Z " fill="#808080" transform="translate(74.709228515625,122.681396484375)"/>
<path d="M0 0 C-0.875 6.875 -0.875 6.875 -2 8 C-2.46331437 13.87646031 -2.46331437 13.87646031 0 19 C0.125 22.1875 0.125 22.1875 0 25 C-1.9375 24.25 -1.9375 24.25 -4 23 C-4.36162029 21.67405895 -4.69728039 20.34061543 -5 19 C-5.99 18.67 -6.98 18.34 -8 18 C-7.63442423 11.73478775 -6.96846365 6.58071167 -4 1 C-2 0 -2 0 0 0 Z " fill="#5E5D5E" transform="translate(84,69)"/>
<path d="M0 0 C0.66 0.33 1.32 0.66 2 1 C2 7.93 2 14.86 2 22 C1.34 22.33 0.68 22.66 0 23 C-0.33 23.99 -0.66 24.98 -1 26 C-4.21273572 29.08916897 -7.74302189 29.93575547 -12 31 C-11.62342801 28.3292356 -11.21955159 27.20604073 -9.22265625 25.33203125 C-8.15337891 24.57986328 -8.15337891 24.57986328 -7.0625 23.8125 C-6.35222656 23.30332031 -5.64195313 22.79414062 -4.91015625 22.26953125 C-3 21 -3 21 -1 20 C-1.00523682 19.42967041 -1.01047363 18.85934082 -1.01586914 18.27172852 C-1.03658221 15.70199677 -1.0496419 13.13228253 -1.0625 10.5625 C-1.07087891 9.66466797 -1.07925781 8.76683594 -1.08789062 7.84179688 C-1.09111328 6.98779297 -1.09433594 6.13378906 -1.09765625 5.25390625 C-1.10289307 4.46314697 -1.10812988 3.6723877 -1.11352539 2.85766602 C-1 1 -1 1 0 0 Z " fill="#4B4B4C" transform="translate(41,31)"/>
<path d="M0 0 C2.625 0.375 2.625 0.375 5 1 C4.67 1.99 4.34 2.98 4 4 C3.01 4.495 3.01 4.495 2 5 C2 5.99 2 6.98 2 8 C1.34 8 0.68 8 0 8 C-0.33 7.34 -0.66 6.68 -1 6 C-2.45947705 6.06006078 -3.91779272 6.1488689 -5.375 6.25 C-6.18710937 6.29640625 -6.99921875 6.3428125 -7.8359375 6.390625 C-10.15407692 6.78107082 -10.15407692 6.78107082 -11.16015625 8.86328125 C-11.43730469 9.56839844 -11.71445312 10.27351563 -12 11 C-12.680625 11.969375 -13.36125 12.93875 -14.0625 13.9375 C-15.93989093 16.90498889 -16.82669344 18.53386881 -17 22 C-16.14228658 25.24236568 -16.14228658 25.24236568 -15 28 C-18 27 -18 27 -19.25 25.375 C-20.55134692 21.25406808 -19.81745322 17.81467832 -18.05859375 13.91015625 C-14.15916645 6.99929005 -9.223231 4.8892924 -2 2 C-1.34 1.34 -0.68 0.68 0 0 Z " fill="#7E7D7E" transform="translate(53,72)"/>
<path d="M0 0 C0.92941406 0.07863281 1.85882813 0.15726562 2.81640625 0.23828125 C5.38922441 0.67922624 7.18948777 1.39158706 9.4375 2.6875 C9.4375 3.0175 9.4375 3.3475 9.4375 3.6875 C5.27491853 3.73719106 1.11249739 3.77335642 -3.05029297 3.79736328 C-4.46438609 3.80737856 -5.87845873 3.82099474 -7.29248047 3.83837891 C-9.33305946 3.86282559 -11.37336303 3.87402784 -13.4140625 3.8828125 C-14.63947754 3.89328613 -15.86489258 3.90375977 -17.12744141 3.91455078 C-20.60083297 3.68496626 -23.32856976 2.9386457 -26.5625 1.6875 C-26.5625 1.3575 -26.5625 1.0275 -26.5625 0.6875 C-24.91701172 0.70490234 -24.91701172 0.70490234 -23.23828125 0.72265625 C-21.78385588 0.73203964 -20.32942865 0.74113925 -18.875 0.75 C-18.15376953 0.75837891 -17.43253906 0.76675781 -16.68945312 0.77539062 C-10.98765221 0.80142625 -5.67900501 -0.52919796 0 0 Z " fill="#E0E0E0" transform="translate(64.5625,124.3125)"/>
<path d="M0 0 C2.475 0.99 2.475 0.99 5 2 C5.3125 4.1875 5.3125 4.1875 5 7 C2.625 9.6875 2.625 9.6875 0 12 C-0.66 12.66 -1.32 13.32 -2 14 C-4.125 13.625 -4.125 13.625 -6 13 C-6.46557346 9.81858133 -6.50963377 7.74656877 -4.6640625 5.04296875 C-3.15741976 3.3064392 -1.62063536 1.630282 0 0 Z " fill="#F0F0F0" transform="translate(109,19)"/>
<path d="M0 0 C4.14311035 2.34740195 6.61461052 3.86411522 8.1875 8.5 C7.96457486 12.66126936 6.90122653 14.09877347 4 17 C2.02 16.67 0.04 16.34 -2 16 C-2 15.01 -2 14.02 -2 13 C-1.360625 12.7525 -0.72125 12.505 -0.0625 12.25 C2.18741541 11.18437567 2.18741541 11.18437567 2.75 8.875 C2.8325 8.25625 2.915 7.6375 3 7 C2.34 7 1.68 7 1 7 C0.67 4.69 0.34 2.38 0 0 Z " fill="#525152" transform="translate(57,84)"/>
<path d="M0 0 C0.33 1.32 0.66 2.64 1 4 C1.99 4.33 2.98 4.66 4 5 C5.238476 10.06295221 4.60107175 13.43292103 3.0625 18.375 C2.49208984 20.24285156 2.49208984 20.24285156 1.91015625 22.1484375 C1.60980469 23.08945313 1.30945313 24.03046875 1 25 C0.67 25 0.34 25 0 25 C0 21.37 0 17.74 0 14 C-0.99 14 -1.98 14 -3 14 C-3 10.37 -3 6.74 -3 3 C-2.34 3 -1.68 3 -1 3 C-0.34 4.98 0.32 6.96 1 9 C0.67 6.03 0.34 3.06 0 0 Z " fill="#7F7E7F" transform="translate(27,67)"/>
<path d="M0 0 C4.875 3.75 4.875 3.75 6 6 C8.24362573 6.2284549 8.24362573 6.2284549 10.125 4 C10.74375 3.34 11.3625 2.68 12 2 C12.33 2.66 12.66 3.32 13 4 C12.34 4.495 11.68 4.99 11 5.5 C8.1172783 9.10340212 8.69799003 11.46985042 9 16 C7.68 16.33 6.36 16.66 5 17 C5.33 17.99 5.66 18.98 6 20 C5.01 19.67 4.02 19.34 3 19 C3.33 18.01 3.66 17.02 4 16 C4.66 15.67 5.32 15.34 6 15 C6 14.34 6 13.68 6 13 C2.06924356 13.57452746 2.06924356 13.57452746 -1 16 C-2.83984375 16.81640625 -2.83984375 16.81640625 -4.9375 17.5625 C-5.62714844 17.81128906 -6.31679688 18.06007813 -7.02734375 18.31640625 C-8.68085359 18.88940471 -10.33982537 19.44660846 -12 20 C-12 19.34 -12 18.68 -12 18 C-11.16855469 17.59007813 -10.33710937 17.18015625 -9.48046875 16.7578125 C-8.39378906 16.21898438 -7.30710937 15.68015625 -6.1875 15.125 C-4.56908203 14.32449219 -4.56908203 14.32449219 -2.91796875 13.5078125 C0.07838265 12.02778861 0.07838265 12.02778861 3 10 C3.99 10 4.98 10 6 10 C5.566875 9.44570312 5.13375 8.89140625 4.6875 8.3203125 C4.130625 7.59585938 3.57375 6.87140625 3 6.125 C2.1646875 5.04605469 2.1646875 5.04605469 1.3125 3.9453125 C0 2 0 2 0 0 Z " fill="#CECECE" transform="translate(51,60)"/>
<path d="M0 0 C3.875 0.875 3.875 0.875 5 2 C8.87635504 2.14627755 12.27889902 2.08031964 16 1 C17.99788438 0.65421232 19.99759451 0.31856451 22 0 C22.103125 0.763125 22.20625 1.52625 22.3125 2.3125 C22.74323452 5.01614696 22.74323452 5.01614696 24.5 6.375 C26.44235584 8.47921883 26.48301599 9.86562066 26.6875 12.6875 C26.75324219 13.49574219 26.81898437 14.30398437 26.88671875 15.13671875 C26.92410156 15.75160156 26.96148437 16.36648437 27 17 C26.34 17 25.68 17 25 17 C24.67 14.36 24.34 11.72 24 9 C21.525 8.505 21.525 8.505 19 8 C18.67 9.98 18.34 11.96 18 14 C17.34 13.67 16.68 13.34 16 13 C16 10.03 16 7.06 16 4 C15.18015625 4.04640625 14.3603125 4.0928125 13.515625 4.140625 C12.43796875 4.17671875 11.3603125 4.2128125 10.25 4.25 C8.64898437 4.31960937 8.64898437 4.31960937 7.015625 4.390625 C3.36197888 3.91735478 2.27771895 2.80844958 0 0 Z " fill="#CECECE" transform="translate(39,101)"/>
<path d="M0 0 C0 0.66 0 1.32 0 2 C-1.65 2.33 -3.3 2.66 -5 3 C-5 3.66 -5 4.32 -5 5 C-5.804375 5.28875 -6.60875 5.5775 -7.4375 5.875 C-10.1326468 6.73262568 -10.1326468 6.73262568 -11 9 C-11.23553948 13.23971058 -11.32845886 16.36178302 -9 20 C-10.65 20 -12.3 20 -14 20 C-16.37856676 14.29143977 -16.37856676 14.29143977 -15.3828125 10.89453125 C-13.49942721 7.00366164 -11.40162584 3.74324664 -8 1 C-5.07175348 0.02391783 -3.04386724 -0.08226668 0 0 Z " fill="#404041" transform="translate(51,79)"/>
<path d="M0 0 C1.98 0.495 1.98 0.495 4 1 C4.33 2.32 4.66 3.64 5 5 C6.32 3.68 7.64 2.36 9 1 C9.99 1.33 10.98 1.66 12 2 C11.34 2 10.68 2 10 2 C9.9175 2.86625 9.835 3.7325 9.75 4.625 C8.88167943 8.53244256 7.47211289 10.87350429 5 14 C4.01 14.33 3.02 14.66 2 15 C1.34 14.34 0.68 13.68 0 13 C1.32 13 2.64 13 4 13 C3.63143269 9.68289418 3.31769052 8.30834668 0.875 5.9375 C0.25625 5.298125 -0.3625 4.65875 -1 4 C-0.75 1.75 -0.75 1.75 0 0 Z " fill="#808080" transform="translate(75,47)"/>
<path d="M0 0 C1.30324219 0.23396484 1.30324219 0.23396484 2.6328125 0.47265625 C4.36144531 0.76462891 4.36144531 0.76462891 6.125 1.0625 C7.83042969 1.35833984 7.83042969 1.35833984 9.5703125 1.66015625 C12.9753892 1.99756134 15.67178131 1.72330588 19 1 C18.6875 2.9375 18.6875 2.9375 18 5 C17.01 5.33 16.02 5.66 15 6 C14.01 7.485 14.01 7.485 13 9 C12.34 9 11.68 9 11 9 C10.34 7.68 9.68 6.36 9 5 C7.8553125 5.2475 7.8553125 5.2475 6.6875 5.5 C4 6 4 6 1 6 C0 5 0 5 -0.0625 2.4375 C-0.041875 1.633125 -0.02125 0.82875 0 0 Z " fill="#6C6B6C" transform="translate(69,43)"/>
<path d="M0 0 C3.12714262 0.2535521 4.75670271 0.81076877 7.25 2.75 C9.18938135 5.24349031 9.5025359 6.93230475 10 10 C10.66 10.33 11.32 10.66 12 11 C11.01 11 10.02 11 9 11 C8.67 12.32 8.34 13.64 8 15 C7.7525 14.401875 7.505 13.80375 7.25 13.1875 C6.15413953 10.89686074 6.15413953 10.89686074 4.0625 9.6875 C1.07594691 7.24395657 0.35382675 4.58764089 -1 1 C-0.67 0.67 -0.34 0.34 0 0 Z " fill="#CECECE" transform="translate(36,18)"/>
<path d="M0 0 C2.5625 0.25 2.5625 0.25 5 1 C5.33 1.66 5.66 2.32 6 3 C4.02 3 2.04 3 0 3 C-0.41990331 9.5784852 1.02473596 15.18744992 4.0625 21.05078125 C7.16759697 27.50679536 6.10447793 36.03480454 6 43 C5.67 43 5.34 43 5 43 C4.89042969 41.92621094 4.78085937 40.85242187 4.66796875 39.74609375 C4.50838413 38.3098322 4.34819558 36.87363767 4.1875 35.4375 C4.11724609 34.73302734 4.04699219 34.02855469 3.97460938 33.30273438 C3.31624427 27.58812525 1.76836462 23.00621986 -1.171875 18.0078125 C-2.42679999 14.96521135 -2.26365378 12.1450804 -2.25 8.875 C-2.25515625 7.63492187 -2.2603125 6.39484375 -2.265625 5.1171875 C-2 2 -2 2 0 0 Z " fill="#CECECE" transform="translate(33,7)"/>
<path d="M0 0 C-0.99 1.485 -0.99 1.485 -2 3 C-4.8203125 3.29296875 -4.8203125 3.29296875 -8.125 3.1875 C-9.76855469 3.14689453 -9.76855469 3.14689453 -11.4453125 3.10546875 C-12.28835937 3.07066406 -13.13140625 3.03585938 -14 3 C-14 3.33 -14 3.66 -14 4 C-12.02 4 -10.04 4 -8 4 C-8 4.66 -8 5.32 -8 6 C-9.6396875 6.4021875 -9.6396875 6.4021875 -11.3125 6.8125 C-14.61692663 7.87663739 -15.94960422 8.34654664 -18 11 C-17.67 9.35 -17.34 7.7 -17 6 C-19.31 6 -21.62 6 -24 6 C-23.46375 5.7525 -22.9275 5.505 -22.375 5.25 C-19.86333194 4.05088421 -19.86333194 4.05088421 -17.625 1.875 C-12.67757132 -1.60366079 -5.73652013 -0.28289688 0 0 Z " fill="#7B7A7B" transform="translate(101,19)"/>
<path d="M0 0 C-0.82187261 4.38332057 -1.90154282 8.67940177 -3 13 C-5 11 -5 11 -6 8 C-7.65 8 -9.3 8 -11 8 C-9.42496966 3.18740731 -9.42496966 3.18740731 -8 1 C-5.14287749 0.12537066 -2.95122196 0 0 0 Z " fill="#CECECE" transform="translate(80,70)"/>
<path d="M0 0 C-1.98 0.99 -1.98 0.99 -4 2 C-3.484375 2.350625 -2.96875 2.70125 -2.4375 3.0625 C-1 5 -1 5 -0.9375 8.375 C-2.34075546 13.16257747 -3.84433645 14.34037533 -8 17 C-8.99 16.67 -9.98 16.34 -11 16 C-10.01 15.67 -9.02 15.34 -8 15 C-8 13.68 -8 12.36 -8 11 C-6.35 11 -4.7 11 -3 11 C-3.33 8.69 -3.66 6.38 -4 4 C-5.65 4 -7.3 4 -9 4 C-9.33 5.32 -9.66 6.64 -10 8 C-10.33 7.34 -10.66 6.68 -11 6 C-11.99 5.34 -12.98 4.68 -14 4 C-13.2575 3.71125 -12.515 3.4225 -11.75 3.125 C-9.07763188 2.09797087 -9.07763188 2.09797087 -7 0.875 C-4.55711377 -0.19376273 -2.63824739 -0.1465693 0 0 Z " fill="#848384" transform="translate(106,40)"/>
<path d="M0 0 C1.65 0 3.3 0 5 0 C6.33370041 4.00110123 6.22335475 7.68503403 6.25 11.875 C6.270625 12.67808594 6.29125 13.48117188 6.3125 14.30859375 C6.34339912 18.99753491 6.13925675 22.23593972 3 26 C2.34 26 1.68 26 1 26 C1.33 25.01 1.66 24.02 2 23 C2.66 23 3.32 23 4 23 C3.505 12.605 3.505 12.605 3 2 C2.67 2 2.34 2 2 2 C1.67 3.65 1.34 5.3 1 7 C0.67 7 0.34 7 0 7 C0 4.69 0 2.38 0 0 Z " fill="#808080" transform="translate(39,30)"/>
<path d="M0 0 C2.1875 -0.375 2.1875 -0.375 5 0 C10 5 10 5 10 9 C10.99 9.33 11.98 9.66 13 10 C12.01 10.495 12.01 10.495 11 11 C10.34 10.67 9.68 10.34 9 10 C8.67 11.65 8.34 13.3 8 15 C7.67 15 7.34 15 7 15 C7 13.35 7 11.7 7 10 C3.41672247 8.99782936 3.41672247 8.99782936 0 10 C0.33 9.01 0.66 8.02 1 7 C3.31 7.33 5.62 7.66 8 8 C6.8624438 5.40858714 6.8624438 5.40858714 5 3 C2.11814893 2.5782657 0.60277697 2.69861151 -2 4 C-1.34 2.68 -0.68 1.36 0 0 Z " fill="#8E8E8E" transform="translate(107,11)"/>
<path d="M0 0 C1.98 0 3.96 0 6 0 C6.20625 0.78375 6.4125 1.5675 6.625 2.375 C7.80676612 5.30916286 7.80676612 5.30916286 11.125 6.3125 C12.07375 6.539375 13.0225 6.76625 14 7 C13.67 7.99 13.34 8.98 13 10 C11.35 9.67 9.7 9.34 8 9 C7.67 7.68 7.34 6.36 7 5 C4.13275314 5.57344937 3.1385485 5.8614515 1 8 C1.3125 6.0625 1.3125 6.0625 2 4 C2.99 3.67 3.98 3.34 5 3 C5 2.34 5 1.68 5 1 C1.45481116 2.39759905 1.45481116 2.39759905 -2 4 C-1.34 2.68 -0.68 1.36 0 0 Z " fill="#CFCFCF" transform="translate(87,25)"/>
<path d="M0 0 C4.70588235 0.70588235 4.70588235 0.70588235 6 2 C6.14115161 4.67058851 6.04247107 7.32432238 6 10 C5.67 10 5.34 10 5 10 C4.67 7.69 4.34 5.38 4 3 C3.01 3 2.02 3 1 3 C1.57584432 5.38564077 2.22227595 7.66682784 3 10 C1 12 1 12 -1.06298828 12.22705078 C-2.30411377 12.21134033 -2.30411377 12.21134033 -3.5703125 12.1953125 C-4.46621094 12.18886719 -5.36210938 12.18242188 -6.28515625 12.17578125 C-7.22230469 12.15902344 -8.15945312 12.14226562 -9.125 12.125 C-10.06988281 12.11597656 -11.01476563 12.10695313 -11.98828125 12.09765625 C-14.32577292 12.07404522 -16.66276123 12.04111516 -19 12 C-19 11.67 -19 11.34 -19 11 C-12.73 10.67 -6.46 10.34 0 10 C-0.33 7.03 -0.66 4.06 -1 1 C-0.67 0.67 -0.34 0.34 0 0 Z " fill="#9C9C9C" transform="translate(58,108)"/>
<path d="M0 0 C0 0.99 0 1.98 0 3 C-0.66 3.66 -1.32 4.32 -2 5 C-2.41666667 8 -2.41666667 8 -2 11 C-1.01 11.66 -0.02 12.32 1 13 C0 14 0 14 -3.0625 14.0625 C-4.031875 14.041875 -5.00125 14.02125 -6 14 C-5.67 13.01 -5.34 12.02 -5 11 C-5.94875 10.773125 -6.8975 10.54625 -7.875 10.3125 C-11 9 -11 9 -12.375 6.375 C-12.684375 5.199375 -12.684375 5.199375 -13 4 C-9.56404834 5.52708963 -6.88087546 7.59927045 -4 10 C-4.268125 9.278125 -4.53625 8.55625 -4.8125 7.8125 C-5 5 -5 5 -2.5625 2.1875 C-1.716875 1.465625 -0.87125 0.74375 0 0 Z " fill="#9C9C9C" transform="translate(106,21)"/>
<path d="M0 0 C2 3 2 3 2.87890625 5.046875 C4.25811235 7.44967308 5.45164593 8.08345396 7.9375 9.25 C8.62714844 9.58515625 9.31679687 9.9203125 10.02734375 10.265625 C12.11776306 11.17444267 12.11776306 11.17444267 15 11 C14.67 11.99 14.34 12.98 14 14 C10.17670414 13.4833384 8.62665115 12.74085338 6 10 C3.89667109 9.28552357 3.89667109 9.28552357 2 9 C2 10.98 2 12.96 2 15 C1.67 15 1.34 15 1 15 C0.505 12.525 0.505 12.525 0 10 C-1.32 10.33 -2.64 10.66 -4 11 C-3.67 10.01 -3.34 9.02 -3 8 C-1.68 8 -0.36 8 1 8 C0.67 5.36 0.34 2.72 0 0 Z " fill="#9C9C9C" transform="translate(68,19)"/>
<path d="M0 0 C0.66 0 1.32 0 2 0 C2 4.62 2 9.24 2 14 C0.68 13.67 -0.64 13.34 -2 13 C-2.05391993 11.20866022 -2.09275571 9.41686101 -2.125 7.625 C-2.14820313 6.62726562 -2.17140625 5.62953125 -2.1953125 4.6015625 C-2 2 -2 2 0 0 Z " fill="#434344" transform="translate(66,28)"/>
<path d="M0 0 C1.32 0.33 2.64 0.66 4 1 C4 3.31 4 5.62 4 8 C4.99 8 5.98 8 7 8 C7 8.66 7 9.32 7 10 C3.7 10.33 0.4 10.66 -3 11 C-1.68 9.68 -0.36 8.36 1 7 C0.34 6.01 -0.32 5.02 -1 4 C-0.625 1.8125 -0.625 1.8125 0 0 Z " fill="#696869" transform="translate(59,110)"/>
<path d="M0 0 C0.93571109 3.04972505 0.99937661 5.35017359 0.5625 8.5 C0.1671111 11.42287491 0 14.0193363 0 17 C-0.99 16.67 -1.98 16.34 -3 16 C-4.5635348 12.87293041 -4.39958487 9.42017557 -4 6 C-3.34 5.01 -2.68 4.02 -2 3 C-1.34 3 -0.68 3 0 3 C0 2.01 0 1.02 0 0 Z " fill="#B9B9B9" transform="translate(85,71)"/>
<path d="M0 0 C2.625 0.375 2.625 0.375 5 1 C4.67 1.99 4.34 2.98 4 4 C3.01 4.495 3.01 4.495 2 5 C2 5.99 2 6.98 2 8 C1.34 8 0.68 8 0 8 C-0.33 7.34 -0.66 6.68 -1 6 C-6.55053286 6.74359673 -6.55053286 6.74359673 -12 8 C-9.30895996 4.67577407 -5.86640714 3.61686117 -2 2 C-1.34 1.34 -0.68 0.68 0 0 Z " fill="#9C9C9C" transform="translate(53,72)"/>
<path d="M0 0 C0.33 1.65 0.66 3.3 1 5 C-4.75 10 -4.75 10 -7 10 C-7.3125 7.8125 -7.3125 7.8125 -7 5 C-2.77777778 0 -2.77777778 0 0 0 Z " fill="#DFDFDF" transform="translate(67,46)"/>
<path d="M0 0 C0.66 0 1.32 0 2 0 C2.24970296 2.72868171 2.47531211 5.45586014 2.6875 8.1875 C2.76033203 8.95642578 2.83316406 9.72535156 2.90820312 10.51757812 C3.25584991 15.28238403 3.06847965 18.06382688 0 22 C-1.42647952 19.14704096 -0.85703255 16.97236151 -0.5625 13.8125 C-0.16164362 9.17695568 0.10812258 4.64927112 0 0 Z " fill="#3E3E3F" transform="translate(85,96)"/>
<path d="M0 0 C0.66 0 1.32 0 2 0 C2 0.99 2 1.98 2 3 C2.66 3 3.32 3 4 3 C4.66 5.97 5.32 8.94 6 12 C3 10.5 3 10.5 0 8 C-0.55411674 5.15336105 -0.29302268 2.93022681 0 0 Z " fill="#707070" transform="translate(72,90)"/>
<path d="M0 0 C0.33 0 0.66 0 1 0 C2.59341355 15.33122229 2.59341355 15.33122229 0 22 C-2.125 24.5 -2.125 24.5 -4 26 C-3.48206969 22.78883205 -2.60099756 19.95600781 -1.4375 16.9375 C0.51078489 11.33854537 0.26766465 5.85888181 0 0 Z " fill="#8F8F8F" transform="translate(88,96)"/>
<path d="M0 0 C0 0.66 0 1.32 0 2 C-0.99 2.66 -1.98 3.32 -3 4 C-3.72382467 6.05925139 -3.72382467 6.05925139 -4 8 C-5.65 8 -7.3 8 -9 8 C-8.66896829 4.93795671 -8.39949096 3.39949096 -6.1875 1.1875 C-4 0 -4 0 0 0 Z " fill="#F7F7F7" transform="translate(92,26)"/>
<path d="M0 0 C2.86632997 1.05098766 3.83006643 1.66862954 5.25 4.4375 C6 7 6 7 6 10 C3.0625 8.875 3.0625 8.875 0 7 C-0.9375 3.875 -0.9375 3.875 -1 1 C-0.67 0.67 -0.34 0.34 0 0 Z " fill="#E3E3E3" transform="translate(76,88)"/>
<path d="M0 0 C2.5 1.1875 2.5 1.1875 5 3 C5.3125 5.6875 5.3125 5.6875 5 8 C0.125 7.125 0.125 7.125 -1 6 C-1.125 3.5 -1.125 3.5 -1 1 C-0.67 0.67 -0.34 0.34 0 0 Z " fill="#454546" transform="translate(74,52)"/>
<path d="M0 0 C0.33 0 0.66 0 1 0 C1 1.65 1 3.3 1 5 C-3.93580683 8.10773023 -6.68414147 9.45956602 -12.5 8.25 C-14.00705452 7.85961841 -15.5102118 7.45182101 -17 7 C-17 6.67 -17 6.34 -17 6 C-16.18015625 6.03480469 -15.3603125 6.06960937 -14.515625 6.10546875 C-12.89914063 6.14607422 -12.89914063 6.14607422 -11.25 6.1875 C-10.18265625 6.22230469 -9.1153125 6.25710937 -8.015625 6.29296875 C-4.65263456 5.96625336 -3.36358747 5.36910987 -1 3 C-0.67 2.01 -0.34 1.02 0 0 Z " fill="#818181" transform="translate(83,113)"/>
<path d="M0 0 C0.66 0 1.32 0 2 0 C1.67 1.65 1.34 3.3 1 5 C-5.435 6.98 -5.435 6.98 -12 9 C-13.32 7.68 -14.64 6.36 -16 5 C-15.195625 5.226875 -14.39125 5.45375 -13.5625 5.6875 C-8.98348648 6.08916785 -5.07551319 5.162167 -1 3 C-0.67 2.01 -0.34 1.02 0 0 Z " fill="#8F8F8F" transform="translate(58,91)"/>
<path d="M0 0 C2.3125 -0.25 2.3125 -0.25 5 0 C6.97610386 2.04424538 8 3.1176825 8 6 C6.68 6 5.36 6 4 6 C4 5.34 4 4.68 4 4 C2.68 4 1.36 4 0 4 C0 2.68 0 1.36 0 0 Z " fill="#404041" transform="translate(107,13)"/>
<path d="M0 0 C9.41002278 -0.18451025 9.41002278 -0.18451025 14 1 C13.67 1.66 13.34 2.32 13 3 C8.38 3 3.76 3 -1 3 C-0.67 2.01 -0.34 1.02 0 0 Z " fill="#3E3E3F" transform="translate(87,21)"/>
<path d="M0 0 C0.99 0.66 1.98 1.32 3 2 C2.01 2.33 1.02 2.66 0 3 C-1.20882096 5.00016466 -1.20882096 5.00016466 -2 7 C-2.66 7 -3.32 7 -4 7 C-4 8.65 -4 10.3 -4 12 C-3.01 12.33 -2.02 12.66 -1 13 C-2.65 13.33 -4.3 13.66 -6 14 C-6.42670076 10.51527717 -6.64789556 7.9813155 -4.6640625 4.9765625 C-3.16390788 3.25103253 -1.63343216 1.59940232 0 0 Z " fill="#CECECE" transform="translate(109,19)"/>
<path d="M0 0 C-1.98 0.99 -1.98 0.99 -4 2 C-3.01 3.485 -3.01 3.485 -2 5 C-4.31 4.67 -6.62 4.34 -9 4 C-9.33 5.32 -9.66 6.64 -10 8 C-10.33 7.34 -10.66 6.68 -11 6 C-11.99 5.34 -12.98 4.68 -14 4 C-13.2575 3.71125 -12.515 3.4225 -11.75 3.125 C-9.07763188 2.09797087 -9.07763188 2.09797087 -7 0.875 C-4.55711377 -0.19376273 -2.63824739 -0.1465693 0 0 Z " fill="#9C9C9C" transform="translate(106,40)"/>
<path d="M0 0 C2.31 0.33 4.62 0.66 7 1 C7 1.99 7 2.98 7 4 C6.30132812 4.13277344 5.60265625 4.26554687 4.8828125 4.40234375 C3.97273438 4.57894531 3.06265625 4.75554688 2.125 4.9375 C1.22007813 5.11152344 0.31515625 5.28554688 -0.6171875 5.46484375 C-2.99956317 5.89963701 -2.99956317 5.89963701 -5 7 C-4.67 6.01 -4.34 5.02 -4 4 C-2.35 4 -0.7 4 1 4 C0.67 2.68 0.34 1.36 0 0 Z " fill="#9C9C9C" transform="translate(121,23)"/>
<path d="M0 0 C1.65 0.33 3.3 0.66 5 1 C5 2.32 5 3.64 5 5 C3.02 5.33 1.04 5.66 -1 6 C-0.67 4.02 -0.34 2.04 0 0 Z " fill="#3F3F40" transform="translate(63,10)"/>
<path d="M0 0 C-0.33 1.65 -0.66 3.3 -1 5 C-2.875 5.625 -2.875 5.625 -5 6 C-5.66 5.34 -6.32 4.68 -7 4 C-7 3.01 -7 2.02 -7 1 C-4.53721199 -0.231394 -2.7204945 -0.07159196 0 0 Z " fill="#3F3F40" transform="translate(84,25)"/>
<path d="M0 0 C1 3 1 3 0.125 4.8125 C-0.24625 5.534375 -0.6175 6.25625 -1 7 C-1.38290462 8.99110401 -1.72604615 10.99100513 -2 13 C-2.33 13 -2.66 13 -3 13 C-3.309375 11.906875 -3.61875 10.81375 -3.9375 9.6875 C-4.58337897 7.44592006 -5.2623117 5.2130649 -6 3 C-5.195625 2.87625 -4.39125 2.7525 -3.5625 2.625 C-2.716875 2.41875 -1.87125 2.2125 -1 2 C-0.67 1.34 -0.34 0.68 0 0 Z " fill="#9C9C9C" transform="translate(79,70)"/>
<path d="M0 0 C0.66 0.33 1.32 0.66 2 1 C3.99960012 1.039992 6.00047242 1.04346799 8 1 C8 1.66 8 2.32 8 3 C6.906875 3.268125 5.81375 3.53625 4.6875 3.8125 C1.38307337 4.87663739 0.05039578 5.34654664 -2 8 C-2.125 5.125 -2.125 5.125 -2 2 C-1.34 1.34 -0.68 0.68 0 0 Z " fill="#7C7B7C" transform="translate(85,22)"/>
<path d="M0 0 C2.64 0.99 5.28 1.98 8 3 C7.67 3.66 7.34 4.32 7 5 C5.35 4.67 3.7 4.34 2 4 C1.01 5.98 0.02 7.96 -1 10 C-2.54578627 6.90842747 -1.60277633 4.31526981 -1 1 C-0.67 0.67 -0.34 0.34 0 0 Z " fill="#CECECE" transform="translate(61,5)"/>
<path d="M0 0 C0 3 0 3 -2.5 5.6875 C-3.325 6.450625 -4.15 7.21375 -5 8 C-8.73639216 6.75453595 -9.18756513 5.36595047 -11 2 C-10.113125 2.4125 -9.22625 2.825 -8.3125 3.25 C-7.219375 3.4975 -6.12625 3.745 -5 4 C-2.1099784 2.25590249 -2.1099784 2.25590249 0 0 Z " fill="#9C9C9C" transform="translate(64,59)"/>
<path d="M0 0 C0.99 0.33 1.98 0.66 3 1 C2.75 2.875 2.75 2.875 2 5 C-0.0625 6.25 -0.0625 6.25 -2 7 C-2.99 6.34 -3.98 5.68 -5 5 C-4.67 4.01 -4.34 3.02 -4 2 C-3.67 2.66 -3.34 3.32 -3 4 C-2.34 4 -1.68 4 -1 4 C-0.67 2.68 -0.34 1.36 0 0 Z " fill="#656465" transform="translate(60,57)"/>
<path d="M0 0 C0.99 0.33 1.98 0.66 3 1 C3.66 0.67 4.32 0.34 5 0 C5.5625 1.9375 5.5625 1.9375 6 4 C5.67 4.33 5.34 4.66 5 5 C4.80850919 8.63194641 4.80850919 8.63194641 6 12 C5.01 11.67 4.02 11.34 3 11 C2.05078125 8.49609375 2.05078125 8.49609375 1.3125 5.4375 C1.06113281 4.42558594 0.80976562 3.41367187 0.55078125 2.37109375 C0.36902344 1.58863281 0.18726562 0.80617187 0 0 Z " fill="#7B7A7B" transform="translate(69,48)"/>
<path d="M0 0 C2.0625 0.4375 2.0625 0.4375 4 1 C4.33 2.65 4.66 4.3 5 6 C3.35 5.67 1.7 5.34 0 5 C-0.5625 3.0625 -0.5625 3.0625 -1 1 C-0.67 0.67 -0.34 0.34 0 0 Z " fill="#A4A4A4" transform="translate(75,47)"/>
<path d="M0 0 C0.66 0.33 1.32 0.66 2 1 C1.67 1.99 1.34 2.98 1 4 C2.32 4.33 3.64 4.66 5 5 C3.33333333 6.66666667 1.66666667 8.33333333 0 10 C0 8.35 0 6.7 0 5 C-1.32 5.33 -2.64 5.66 -4 6 C-2.68 4.02 -1.36 2.04 0 0 Z " fill="#848484" transform="translate(88,56)"/>
<path d="M0 0 C-0.3125 1.9375 -0.3125 1.9375 -1 4 C-1.99 4.33 -2.98 4.66 -4 5 C-5.66710346 6.49985609 -5.66710346 6.49985609 -7 8 C-7.36275695 3.52599758 -7.36275695 3.52599758 -5.75 1.1875 C-4 0 -4 0 0 0 Z " fill="#49494A" transform="translate(88,44)"/>
<path d="M0 0 C2.31 0.33 4.62 0.66 7 1 C7.33 1.99 7.66 2.98 8 4 C5.69 4 3.38 4 1 4 C0.67 2.68 0.34 1.36 0 0 Z " fill="#3E3E3F" transform="translate(34,12)"/>
<path d="M0 0 C5.28 0.33 10.56 0.66 16 1 C15.01 2.485 15.01 2.485 14 4 C9.15632519 4.88066815 4.48975078 2.64330748 0 1 C0 0.67 0 0.34 0 0 Z " fill="#9C9C9C" transform="translate(65,124)"/>
<path d="M0 0 C3.44428265 1.44781793 5.36130962 3.27694609 7.75 6.125 C8.36359375 6.84945312 8.9771875 7.57390625 9.609375 8.3203125 C10.29773438 9.15175781 10.29773438 9.15175781 11 10 C10.67 10.66 10.34 11.32 10 12 C6.0747975 8.29909479 3.05419844 4.45040344 0 0 Z " fill="#909090" transform="translate(55,80)"/>
<path d="M0 0 C2.0625 0.4375 2.0625 0.4375 4 1 C4 2.65 4 4.3 4 6 C2.68 6 1.36 6 0 6 C-0.38218767 4.34385343 -0.71395102 2.67542976 -1 1 C-0.67 0.67 -0.34 0.34 0 0 Z " fill="#3F3F40" transform="translate(99,45)"/>
<path d="M0 0 C3.63 0.33 7.26 0.66 11 1 C10.67 1.99 10.34 2.98 10 4 C3.375 3.375 3.375 3.375 0 0 Z " fill="#848484" transform="translate(48,28)"/>
<path d="M0 0 C2.475 0.495 2.475 0.495 5 1 C5.33 2.65 5.66 4.3 6 6 C4.35 5.67 2.7 5.34 1 5 C0.505 2.525 0.505 2.525 0 0 Z " fill="#5F5E5F" transform="translate(116,21)"/>
<path d="M0 0 C2.5 1.25 2.5 1.25 5 3 C5 4.32 5 5.64 5 7 C1.125 6.125 1.125 6.125 0 5 C-0.04063832 3.33382885 -0.042721 1.66611905 0 0 Z " fill="#FCFCFC" transform="translate(39,20)"/>
<path d="M0 0 C0.66 0 1.32 0 2 0 C5.22265625 5.17578125 5.22265625 5.17578125 6 7 C5.67 7.99 5.34 8.98 5 10 C2.9754262 8.06745228 1.57894208 6.36841312 0 4 C0 2.68 0 1.36 0 0 Z " fill="#3E3E3F" transform="translate(69,16)"/>
<path d="M0 0 C1.32 0.33 2.64 0.66 4 1 C3.154375 1.70125 2.30875 2.4025 1.4375 3.125 C-1.39309751 5.79457985 -1.39309751 5.79457985 -0.8125 9.3125 C-0.544375 10.199375 -0.27625 11.08625 0 12 C-0.99 11.67 -1.98 11.34 -3 11 C-3.36923077 4.6 -3.36923077 4.6 -1.5 1.5625 C-1.005 1.046875 -0.51 0.53125 0 0 Z " fill="#828182" transform="translate(42,84)"/>
<path d="M0 0 C-0.3125 1.9375 -0.3125 1.9375 -1 4 C-1.99 4.33 -2.98 4.66 -4 5 C-5.68538601 6.99665314 -5.68538601 6.99665314 -7 9 C-7.37254569 5.64708882 -7.31050198 4.3961577 -5.1875 1.6875 C-3 0 -3 0 0 0 Z " fill="#434344" transform="translate(64,44)"/>
<path d="M0 0 C0.99 0.66 1.98 1.32 3 2 C5.73872955 2.45772063 5.73872955 2.45772063 8.6875 2.625 C9.68136719 2.69976562 10.67523438 2.77453125 11.69921875 2.8515625 C12.45847656 2.90054688 13.21773437 2.94953125 14 3 C14 3.33 14 3.66 14 4 C8.16524985 4.85330338 3.55139349 5.48351814 -2 3 C-1.34 2.01 -0.68 1.02 0 0 Z " fill="#747374" transform="translate(91,32)"/>
<path d="M0 0 C1.5 1.375 1.5 1.375 3 3 C3 3.66 3 4.32 3 5 C3.78375 4.79375 4.5675 4.5875 5.375 4.375 C6.674375 4.189375 6.674375 4.189375 8 4 C8.66 4.66 9.32 5.32 10 6 C9.34 6 8.68 6 8 6 C7.67 6.99 7.34 7.98 7 9 C3.46352496 7.32482761 2.2088437 6.50719183 0.6875 2.8125 C0.460625 1.884375 0.23375 0.95625 0 0 Z " fill="#6C6B6C" transform="translate(69,20)"/>
<path d="M0 0 C3.70344028 1.23448009 5.30250982 3.23334341 8 6 C8.66 6.33 9.32 6.66 10 7 C10 7.66 10 8.32 10 9 C2.5310559 6.17391304 2.5310559 6.17391304 0.8125 2.375 C0.544375 1.59125 0.27625 0.8075 0 0 Z " fill="#858485" transform="translate(29,111)"/>
<path d="M0 0 C4.29 0 8.58 0 13 0 C13 0.33 13 0.66 13 1 C11.40119187 1.41694996 9.79558739 1.80790856 8.1875 2.1875 C7.29417969 2.40792969 6.40085937 2.62835938 5.48046875 2.85546875 C4.25263672 2.92701172 4.25263672 2.92701172 3 3 C2.01 2.01 1.02 1.02 0 0 Z " fill="#CECECE" transform="translate(42,95)"/>
<path d="M0 0 C0.185625 0.9590625 0.185625 0.9590625 0.375 1.9375 C0.58125 2.618125 0.7875 3.29875 1 4 C1.66 4.33 2.32 4.66 3 5 C2.34 5 1.68 5 1 5 C0.67 6.32 0.34 7.64 0 9 C-0.66 9 -1.32 9 -2 9 C-2.25 3.375 -2.25 3.375 0 0 Z " fill="#9C9C9C" transform="translate(59,52)"/>
<path d="M0 0 C1.32 0.33 2.64 0.66 4 1 C3.01 1.33 2.02 1.66 1 2 C-0.71567661 5.50294871 -0.71567661 5.50294871 -2 9 C-2.99 9 -3.98 9 -5 9 C-3.35 6.03 -1.7 3.06 0 0 Z " fill="#8A8A8A" transform="translate(63,8)"/>
<path d="M0 0 C0.66 0.33 1.32 0.66 2 1 C1.4140625 7.15234375 1.4140625 7.15234375 1 9 C0.01 9.495 0.01 9.495 -1 10 C-1.125 2.25 -1.125 2.25 0 0 Z " fill="#3E3E3F" transform="translate(26,80)"/>
<path d="M0 0 C0.99 0.33 1.98 0.66 3 1 C0.36 3.64 -2.28 6.28 -5 9 C-5.33 8.34 -5.66 7.68 -6 7 C-4.02 4.69 -2.04 2.38 0 0 Z " fill="#DFDFDF" transform="translate(95,57)"/>
<path d="M0 0 C1.32 0.33 2.64 0.66 4 1 C4 2.65 4 4.3 4 6 C3.01 6 2.02 6 1 6 C0 5 0 5 -0.0625 2.4375 C-0.041875 1.633125 -0.02125 0.82875 0 0 Z " fill="#404041" transform="translate(69,43)"/>
<path d="M0 0 C0.33 0 0.66 0 1 0 C1.66 3.63 2.32 7.26 3 11 C2.01 11.495 2.01 11.495 1 12 C0.63762737 10.37681021 0.28534843 8.7513642 -0.0625 7.125 C-0.25972656 6.22007813 -0.45695312 5.31515625 -0.66015625 4.3828125 C-1 2 -1 2 0 0 Z " fill="#3E3E3F" transform="translate(26,65)"/>
<path d="M0 0 C1.32 0 2.64 0 4 0 C2.87548273 2.9719385 1.77706209 5.33440687 0 8 C0 6.35 0 4.7 0 3 C-0.66 2.67 -1.32 2.34 -2 2 C-1.34 1.34 -0.68 0.68 0 0 Z " fill="#7F7E7F" transform="translate(84,66)"/>
<path d="M0 0 C-0.33 1.65 -0.66 3.3 -1 5 C-1.99 5.33 -2.98 5.66 -4 6 C-4.495 3.525 -4.495 3.525 -5 1 C-2 0 -2 0 0 0 Z " fill="#7A797A" transform="translate(67,54)"/>
<path d="M0 0 C0.66 0.33 1.32 0.66 2 1 C2.125 3.875 2.125 3.875 2 7 C1.34 7.66 0.68 8.32 0 9 C-0.87890625 2.84765625 -0.87890625 2.84765625 -1 1 C-0.67 0.67 -0.34 0.34 0 0 Z " fill="#3E3E3F" transform="translate(41,31)"/>
<path d="M0 0 C4.62 0 9.24 0 14 0 C13.01 1.485 13.01 1.485 12 3 C11.01 3 10.02 3 9 3 C9 2.34 9 1.68 9 1 C6.03 1 3.06 1 0 1 C0 0.67 0 0.34 0 0 Z " fill="#908F90" transform="translate(87,19)"/>
<path d="M0 0 C0 3.14213983 -0.33280556 5.93090555 -1 9 C-1.99 9.495 -1.99 9.495 -3 10 C-2.25 2.25 -2.25 2.25 0 0 Z " fill="#8C8B8C" transform="translate(26,61)"/>
<path d="M0 0 C0.33 0.99 0.66 1.98 1 3 C1.66 3 2.32 3 3 3 C3.66 4.98 4.32 6.96 5 9 C2 8 2 8 0.8125 6.1875 C0 4 0 4 0 0 Z " fill="#8B8A8B" transform="translate(33,91)"/>
<path d="M0 0 C2.31 0.33 4.62 0.66 7 1 C6.67 1.99 6.34 2.98 6 4 C4.35 3.67 2.7 3.34 1 3 C0.67 2.01 0.34 1.02 0 0 Z " fill="#858485" transform="translate(76,29)"/>
</svg>
