<?xml version="1.0" encoding="UTF-8"?>
<svg version="1.1" xmlns="http://www.w3.org/2000/svg" width="128" height="128">
<path d="M0 0 C42.24 0 84.48 0 128 0 C128 42.24 128 84.48 128 128 C85.76 128 43.52 128 0 128 C0 85.76 0 43.52 0 0 Z " fill="#8B8C8C" transform="translate(0,0)"/>
<path d="M0 0 C3.63 0 7.26 0 11 0 C11 7.26 11 14.52 11 22 C5.04750205 20.01583402 4.33439792 19.64433996 1 15 C0.01 14.505 0.01 14.505 -1 14 C-0.82082031 14.66386719 -0.64164062 15.32773438 -0.45703125 16.01171875 C1.29157175 23.27107062 1.29157175 23.27107062 -0.25 27.125 C-0.8275 27.74375 -1.405 28.3625 -2 29 C-2.66 29 -3.32 29 -4 29 C-4.20625 29.70125 -4.4125 30.4025 -4.625 31.125 C-5.94921091 33.89380463 -6.84731553 34.89886421 -9.0625 36.875 C-11.63637825 39.27769395 -11.96984438 39.6004381 -12.25 43.3125 C-13.46256336 49.27426985 -18.2233629 52.49501338 -23 56 C-23.66 56 -24.32 56 -25 56 C-25.226875 56.53625 -25.45375 57.0725 -25.6875 57.625 C-27 60 -27 60 -29.5625 63 C-32.09228116 65.66221747 -32.09228116 65.66221747 -32.5 68.1875 C-33 70 -33 70 -35.5625 71.75 C-36.366875 72.1625 -37.17125 72.575 -38 73 C-37.88140625 73.61488281 -37.7628125 74.22976562 -37.640625 74.86328125 C-37.25455705 77.28392731 -36.96086528 79.54755759 -37 82 C-38.8125 84.0625 -38.8125 84.0625 -41 85 C-41.66 85 -42.32 85 -43 85 C-42.45156876 88.83901868 -40.7234735 90.36163505 -38 93 C-35.7388338 99.78349859 -36.19821592 108.4625038 -39 115 C-43.50797115 120.48266762 -47.72497608 122.1359204 -54.69921875 122.83203125 C-55.45847656 122.88746094 -56.21773437 122.94289063 -57 123 C-57.87269531 123.06574219 -58.74539062 123.13148437 -59.64453125 123.19921875 C-66.38199289 123.47248642 -71.1696234 122.3725808 -77 119 C-77.97646484 118.43925781 -77.97646484 118.43925781 -78.97265625 117.8671875 C-83.93828431 114.68328161 -87.1019378 110.90428737 -88.4609375 104.99609375 C-88.70859397 103.33947277 -88.86371616 101.66947702 -89 100 C-87.08268082 100.11455681 -85.1661325 100.24206258 -83.25 100.375 C-82.18265625 100.44460937 -81.1153125 100.51421875 -80.015625 100.5859375 C-77.16271994 100.97765763 -75.49513046 101.66743582 -73 103 C-66.92870574 102.57642133 -60.36957905 100.73383833 -55.4375 97.125 C-53.69697786 94.55205423 -53.66154318 93.04611136 -54 90 C-64.19411027 84.76971306 -64.19411027 84.76971306 -75.26953125 84.59765625 C-79.60167275 86.58288622 -82.31301584 89.01928273 -85 93 C-85.5775 93.763125 -86.155 94.52625 -86.75 95.3125 C-87.1625 95.869375 -87.575 96.42625 -88 97 C-88.99 96.67 -89.98 96.34 -91 96 C-92.55647905 92.8870419 -92.18446048 89.60088167 -92.1875 86.1875 C-92.19974609 85.47529297 -92.21199219 84.76308594 -92.22460938 84.02929688 C-92.23607389 79.8982511 -91.84522492 76.71232998 -90 73 C-90.66 72.34 -91.32 71.68 -92 71 C-92.76679965 67.16600177 -93.24674659 64.74023976 -92 61 C-87.57935186 57.25280998 -83.45141472 57.71791384 -78 58.125 C-77.2059375 58.16109375 -76.411875 58.1971875 -75.59375 58.234375 C-70.84268186 58.53527598 -68.04643783 59.36593139 -64 62 C-61.56475456 62.35794332 -61.56475456 62.35794332 -59.1875 62.1875 C-58.00220703 62.14689453 -58.00220703 62.14689453 -56.79296875 62.10546875 C-56.20128906 62.07066406 -55.60960937 62.03585938 -55 62 C-55.66 61.46375 -56.32 60.9275 -57 60.375 C-59 58 -59 58 -59.5 55 C-58.89629708 51.37778249 -57.88279106 50.20448728 -55 48 C-54.34 48 -53.68 48 -53 48 C-52.67 47.01 -52.34 46.02 -52 45 C-50.1875 45.0625 -50.1875 45.0625 -48 46 C-46.78950757 48.37442747 -45.85693901 50.50524265 -45 53 C-44.4121875 54.7015625 -44.4121875 54.7015625 -43.8125 56.4375 C-43.544375 57.283125 -43.27625 58.12875 -43 59 C-40.03 59.495 -40.03 59.495 -37 60 C-38.41534674 55.16423199 -40.3365317 51.24490261 -43 47 C-43.99 46.505 -43.99 46.505 -45 46 C-45 45.01 -45 44.02 -45 43 C-45.66 43 -46.32 43 -47 43 C-49.41685712 38.77050005 -50.34833144 35.87664009 -50 31 C-51.60506456 32.01157259 -51.60506456 32.01157259 -53 34 C-53.17427271 35.32779208 -53.29391204 36.66327732 -53.375 38 C-53.5703125 40.16015625 -53.5703125 40.16015625 -54 42 C-55.63790712 43.04644066 -57.31008021 44.0398183 -59 45 C-60.46576785 47.24667551 -61.67965552 49.5469388 -62.88671875 51.94140625 C-64 54 -64 54 -66 56 C-68.5625 56.1875 -68.5625 56.1875 -71 56 C-73.08729489 53.91270511 -72.2768056 49.67519125 -72.3125 46.8125 C-72.34150391 46.05646484 -72.37050781 45.30042969 -72.40039062 44.52148438 C-72.45976959 39.25502724 -71.68506289 36.05167292 -68 32 C-65.640625 31.1953125 -65.640625 31.1953125 -63.25 31.125 C-62.05117188 31.06699219 -62.05117188 31.06699219 -60.828125 31.0078125 C-59.92320313 31.00394531 -59.92320313 31.00394531 -59 31 C-59.04125 29.906875 -59.0825 28.81375 -59.125 27.6875 C-59 24 -59 24 -57 21 C-56.60612212 18.67612053 -56.26513915 16.34206251 -56 14 C-51.25 14.875 -51.25 14.875 -49 16 C-48.52560872 17.58805375 -48.11905201 19.19671461 -47.75 20.8125 C-46.6806515 24.56591322 -46.25603896 25.77305637 -43.25 28.4375 C-39.86125367 30.06670497 -36.49112131 31.60355147 -33 33 C-32.91913853 34.79093191 -32.86087298 36.58289628 -32.8125 38.375 C-32.76029297 39.87160156 -32.76029297 39.87160156 -32.70703125 41.3984375 C-32.80371094 42.25695313 -32.90039062 43.11546875 -33 44 C-33.99 44.66 -34.98 45.32 -36 46 C-35.505 47.98 -35.505 47.98 -35 50 C-34.34 50 -33.68 50 -33 50 C-32.71125 49.4225 -32.4225 48.845 -32.125 48.25 C-31.75375 47.5075 -31.3825 46.765 -31 46 C-30.7834375 45.3090625 -30.566875 44.618125 -30.34375 43.90625 C-29 42 -29 42 -25.9609375 41.390625 C-24.77757813 41.34421875 -23.59421875 41.2978125 -22.375 41.25 C-21.18648438 41.19328125 -19.99796875 41.1365625 -18.7734375 41.078125 C-17.85820313 41.05234375 -16.94296875 41.0265625 -16 41 C-15.67 39.68 -15.34 38.36 -15 37 C-15.66 37 -16.32 37 -17 37 C-17 36.34 -17 35.68 -17 35 C-18.98 34.67 -20.96 34.34 -23 34 C-23.495 32.02 -23.495 32.02 -24 30 C-20.86650268 28.95550089 -20.01031744 29.06576355 -17 30 C-16.9071875 28.6078125 -16.9071875 28.6078125 -16.8125 27.1875 C-16 24 -16 24 -13.75 22.5 C-12.8425 22.005 -11.935 21.51 -11 21 C-10.175 20.01 -9.35 19.02 -8.5 18 C-6 15 -6 15 -3.39453125 13.69921875 C-0.70714859 12.18600908 -0.70714859 12.18600908 -0.29296875 9.08203125 C-0.25816406 8.00308594 -0.22335938 6.92414062 -0.1875 5.8125 C-0.13980469 4.72582031 -0.09210938 3.63914063 -0.04296875 2.51953125 C-0.02878906 1.68808594 -0.01460938 0.85664062 0 0 Z " fill="#F5F5F5" transform="translate(117,0)"/>
<path d="M0 0 C0 32.67 0 65.34 0 99 C-17.82 99 -35.64 99 -54 99 C-53.34 97.68 -52.68 96.36 -52 95 C-49.375 94.25 -49.375 94.25 -47 94 C-46.855625 93.195625 -46.71125 92.39125 -46.5625 91.5625 C-46 89 -46 89 -45 88 C-44.74580815 83.5475841 -44.81477027 79.08380869 -44.8125 74.625 C-44.80025391 73.366875 -44.78800781 72.10875 -44.77539062 70.8125 C-44.77345703 69.60851562 -44.77152344 68.40453125 -44.76953125 67.1640625 C-44.76542236 66.05498535 -44.76131348 64.9459082 -44.75708008 63.80322266 C-44.79175089 60.7915124 -44.79175089 60.7915124 -47 58 C-45.80835932 47.41339516 -39.25228312 34.68041967 -31 28 C-27.44633198 25.94334961 -23.89473914 24.29824638 -20 23 C-20 21.68 -20 20.36 -20 19 C-19.34 19 -18.68 19 -18 19 C-18.0825 18.29875 -18.165 17.5975 -18.25 16.875 C-17.91553181 13.02861582 -16.36503039 10.99106784 -14 8 C-13.34 8 -12.68 8 -12 8 C-11.896875 7.236875 -11.79375 6.47375 -11.6875 5.6875 C-9.92568165 -1.19960808 -7.4644573 0 0 0 Z " fill="#FAFAFA" transform="translate(128,29)"/>
<path d="M0 0 C36.3 0 72.6 0 110 0 C110 7 110 7 109 9 C108.34 9 107.68 9 107 9 C106.62875 9.804375 106.62875 9.804375 106.25 10.625 C101.95455132 18.78635249 97.8833916 21.42738237 89.3125 24.1875 C88.219375 24.455625 87.12625 24.72375 86 25 C85.13375 25.28875 84.2675 25.5775 83.375 25.875 C81 26 81 26 78.1875 24.25 C76 22 76 22 76 19 C74.515 18.505 74.515 18.505 73 18 C71.5 15.63671875 71.5 15.63671875 70 12.6875 C68.56219278 9.88302706 67.21515777 7.28438678 65.3125 4.76953125 C64 3 64 3 64 1 C61.92064793 1.4100567 61.92064793 1.4100567 60 3 C59.7736075 5.00519075 59.55181676 7.01164606 59.39453125 9.0234375 C59 11 59 11 56.75 13.5 C53.82968014 15.09290174 52.26599313 15.37325636 49 15 C48.505 13.515 48.505 13.515 48 12 C45.52869082 10.84478498 45.52869082 10.84478498 43 10 C42.505 9.505 42.505 9.505 42 9 C39.98035801 8.92755947 37.95832876 8.91622812 35.9375 8.9375 C34.83277344 8.94652344 33.72804687 8.95554687 32.58984375 8.96484375 C31.73519531 8.97644531 30.88054688 8.98804688 30 9 C29.13183724 13.08036498 28.85480865 16.01944279 29.9375 20.0625 C31.47341503 26.21675263 31.8950281 32.71963332 31 39 C28.17822393 43.67753871 28.17822393 43.67753871 24.7734375 44.609375 C23.98195313 44.65578125 23.19046875 44.7021875 22.375 44.75 C15.65236812 45.77734582 11.30963938 49.93617373 7 55 C5.4861153 58.08888897 4.98294519 60.16486316 4.625 63.625 C4 67 4 67 0 70 C0 46.9 0 23.8 0 0 Z " fill="#F8F8F8" transform="translate(0,0)"/>
<path d="M0 0 C2.31 0 4.62 0 7 0 C7.47754997 4.09897058 7.68566173 7.91743399 7 12 C5.21715558 14.13420792 3.48451847 15.27288303 1.1015625 16.6875 C-1.07429861 18.04640211 -2.27813347 19.34172901 -3.8125 21.375 C-4.534375 22.24125 -5.25625 23.1075 -6 24 C-6.99 24 -7.98 24 -9 24 C-9.33 25.98 -9.66 27.96 -10 30 C-11.98 30 -13.96 30 -16 30 C-16 31.32 -16 32.64 -16 34 C-14.02 34.33 -12.04 34.66 -10 35 C-10 35.66 -10 36.32 -10 37 C-9.34 37 -8.68 37 -8 37 C-8.33 38.32 -8.66 39.64 -9 41 C-9.89203125 41.06316406 -10.7840625 41.12632813 -11.703125 41.19140625 C-18.23204701 41.56164904 -18.23204701 41.56164904 -23.6484375 44.65625 C-24.77376541 46.78023823 -24.77376541 46.78023823 -26 50 C-27.485 50.495 -27.485 50.495 -29 51 C-29.495 48.525 -29.495 48.525 -30 46 C-29.01 45.34 -28.02 44.68 -27 44 C-26.83322718 40.58343976 -26.83322718 40.58343976 -27 37 C-26.5 34.5625 -26.5 34.5625 -26 33 C-26.886875 32.9175 -27.77375 32.835 -28.6875 32.75 C-32.4584294 31.89620466 -34.14652071 30.54499505 -37 28 C-37.99 27.34 -38.98 26.68 -40 26 C-41.76732122 22.55837447 -42.21977786 19.8461125 -42 16 C-44.31 15.34 -46.62 14.68 -49 14 C-48.95875 15.093125 -48.9175 16.18625 -48.875 17.3125 C-49 21 -49 21 -51 24 C-51.39387788 26.32387947 -51.73486085 28.65793749 -52 31 C-52.61488281 31.08636719 -53.22976562 31.17273438 -53.86328125 31.26171875 C-54.67152344 31.40222656 -55.47976562 31.54273437 -56.3125 31.6875 C-57.11300781 31.81511719 -57.91351563 31.94273438 -58.73828125 32.07421875 C-61.14816514 32.86433224 -61.14816514 32.86433224 -62.78125 35.03125 C-64.43146569 39.05100617 -64.32790201 42.51763847 -64.1875 46.8125 C-64.17396484 47.60076172 -64.16042969 48.38902344 -64.14648438 49.20117188 C-64.11133456 51.13441169 -64.05753361 53.06729682 -64 55 C-61.56520366 55.13030752 -61.56520366 55.13030752 -59 55 C-56.78483352 52.78483352 -55.47484539 50.08231045 -53.9375 47.375 C-52 44 -52 44 -50 42 C-49.01 42 -48.02 42 -47 42 C-47.0825 40.7625 -47.165 39.525 -47.25 38.25 C-47.2737948 34.89493302 -47.19641677 34.24552096 -45 31.5 C-44.34 31.005 -43.68 30.51 -43 30 C-41.99575197 33.01274408 -41.51090123 35.87072999 -41 39 C-40.68325425 40.33737094 -40.35729936 41.67288808 -40 43 C-39.34 43 -38.68 43 -38 43 C-38 43.99 -38 44.98 -38 46 C-36.515 46.495 -36.515 46.495 -35 47 C-32.22959832 50.34008991 -30.13963597 53.65949473 -29.6875 58 C-29.790625 58.66 -29.89375 59.32 -30 60 C-32.875 60.125 -32.875 60.125 -36 60 C-39.61445184 56.38554816 -40.10633785 50.91514181 -41 46 C-45.0008924 45.5430902 -45.0008924 45.5430902 -47.125 48 C-47.74375 48.66 -48.3625 49.32 -49 50 C-49.66 50 -50.32 50 -51 50 C-51.33 52.64 -51.66 55.28 -52 58 C-50.68 58.66 -49.36 59.32 -48 60 C-48 60.66 -48 61.32 -48 62 C-49.39194606 62.25170266 -50.7889827 62.4753269 -52.1875 62.6875 C-52.96480469 62.81511719 -53.74210937 62.94273438 -54.54296875 63.07421875 C-57 63 -57 63 -59.23828125 61.5703125 C-63.10980449 59.36896548 -66.61366611 59.36195646 -71 59.1875 C-71.7940625 59.13658203 -72.588125 59.08566406 -73.40625 59.03320312 C-77.77531663 58.81839068 -81.01844159 58.9209201 -85 61 C-84.88512252 62.58409994 -84.75765492 64.16728963 -84.625 65.75 C-84.55539063 66.63171875 -84.48578125 67.5134375 -84.4140625 68.421875 C-84.00149945 70.99066382 -83.28839043 72.75841015 -82 75 C-82.66 75.99 -83.32 76.98 -84 78 C-84.36798693 80.71075544 -84.36798693 80.71075544 -84.4140625 83.76171875 C-84.45273438 84.87998047 -84.49140625 85.99824219 -84.53125 87.15039062 C-84.57765625 88.90125977 -84.57765625 88.90125977 -84.625 90.6875 C-84.66367188 91.86634766 -84.70234375 93.04519531 -84.7421875 94.25976562 C-84.83654391 97.17301977 -84.92213161 100.08626607 -85 103 C-85.495 102.01 -85.495 102.01 -86 101 C-86.66 101 -87.32 101 -88 101 C-89.42226115 98.1554777 -89.37761737 95.33587776 -89.62109375 92.19140625 C-89.8967824 89.71626355 -89.8967824 89.71626355 -92 87 C-91.63818359 85.08129883 -91.63818359 85.08129883 -91 83 C-90.89184947 81.56876335 -90.82356219 80.13412107 -90.7890625 78.69921875 C-90.76070312 77.88646484 -90.73234375 77.07371094 -90.703125 76.23632812 C-90.65140735 74.54903993 -90.60702973 72.86150938 -90.5703125 71.17382812 C-90.32280131 64.64056408 -89.27858885 59.69287774 -84.9375 54.5625 C-83 53 -83 53 -81 53 C-81 52.34 -81 51.68 -81 51 C-76.05 50.505 -76.05 50.505 -71 50 C-70.96132812 48.83984375 -70.96132812 48.83984375 -70.921875 47.65625 C-70.36871753 37.49826732 -67.73567745 31.48408605 -61 24 C-62.24976756 20.34683329 -62.67098753 19.21934164 -66 17 C-69.08365871 16.7497843 -69.08365871 16.7497843 -72 17 C-73.74506615 18.74506615 -73.23282784 21.19039143 -73.31640625 23.56640625 C-73.37924805 25.2534668 -73.37924805 25.2534668 -73.44335938 26.97460938 C-73.48267578 28.15861328 -73.52199219 29.34261719 -73.5625 30.5625 C-73.62727539 32.34430664 -73.62727539 32.34430664 -73.69335938 34.16210938 C-73.79983546 37.10794784 -73.90184841 40.0538743 -74 43 C-74.66 43 -75.32 43 -76 43 C-76.2475 43.804375 -76.495 44.60875 -76.75 45.4375 C-78 48 -78 48 -79.71875 48.65625 C-82.42687011 49.06432289 -85.01187362 49.09509674 -87.75 49.0625 C-88.73484375 49.05347656 -89.7196875 49.04445312 -90.734375 49.03515625 C-91.48203125 49.02355469 -92.2296875 49.01195312 -93 49 C-94.83205721 53.14044928 -95.29551066 56.53767461 -95.4609375 61.01171875 C-96 63 -96 63 -97.9765625 64.14453125 C-98.64429687 64.42683594 -99.31203125 64.70914063 -100 65 C-100.495 65.99 -100.495 65.99 -101 67 C-99.35 67.66 -97.7 68.32 -96 69 C-96 70.32 -96 71.64 -96 73 C-98.31 73 -100.62 73 -103 73 C-103 73.66 -103 74.32 -103 75 C-100.69 75.33 -98.38 75.66 -96 76 C-95.67 76.99 -95.34 77.98 -95 79 C-98.3 79 -101.6 79 -105 79 C-105 77.68 -105 76.36 -105 75 C-106.65 74.67 -108.3 74.34 -110 74 C-109.25 69.25 -109.25 69.25 -107 67 C-106.71792918 65.4671303 -106.49697233 63.92265094 -106.3125 62.375 C-105.20234491 56.36455096 -102.43026098 53.06107256 -98 49 C-97.42765625 48.47019531 -96.8553125 47.94039062 -96.265625 47.39453125 C-91.83702852 43.76836395 -88.64466099 43.5048543 -83 44 C-82.67 43.01 -82.34 42.02 -82 41 C-81.34 41 -80.68 41 -80 41 C-79.67329467 29.34181839 -79.67329467 29.34181839 -81.6171875 17.90234375 C-82.25585537 14.72855546 -81.71843135 12.13497318 -81 9 C-79.21927258 7.21927258 -76.72356123 7.74384706 -74.3125 7.6875 C-68.81244211 7.72023844 -66.03954134 8.28798904 -62 12 C-61.505 12.99 -61.505 12.99 -61 14 C-58.19002223 14.23416481 -56.34449086 14.15310705 -53.75 13 C-51.07724385 9.94542155 -51.38145009 7.00522592 -51 3 C-50.34 2.34 -49.68 1.68 -49 1 C-48.01 1 -47.02 1 -46 1 C-44.4935783 3.06424519 -43.20832354 5.04786794 -41.9375 7.25 C-41.4105957 8.12978516 -41.4105957 8.12978516 -40.87304688 9.02734375 C-39.44406614 11.43148904 -38.0795646 13.83255393 -36.87890625 16.359375 C-36.10146723 18.18978131 -36.10146723 18.18978131 -34 19 C-33.5359375 19.9590625 -33.5359375 19.9590625 -33.0625 20.9375 C-32.04654078 23.31971493 -32.04654078 23.31971493 -29 25 C-25.32685182 24.5959537 -21.96322189 23.37993153 -18.5 22.125 C-17.12328125 21.63386719 -17.12328125 21.63386719 -15.71875 21.1328125 C-10.48197776 18.95082406 -7.65585983 17.05878063 -5 12 C-4.34 11.01 -3.68 10.02 -3 9 C-2.34 9 -1.68 9 -1 9 C-0.67 6.03 -0.34 3.06 0 0 Z " fill="#6D6E6F" transform="translate(110,0)"/>
<path d="M0 0 C1.32 0.33 2.64 0.66 4 1 C4 1.66 4 2.32 4 3 C8.29 3.66 12.58 4.32 17 5 C17 6.65 17 8.3 17 10 C17.66 10.66 18.32 11.32 19 12 C19.33836277 13.98968875 19.59715484 15.99326704 19.8125 18 C21.46985232 29.56321963 26.95876718 37.67796157 35.625 45.3125 C38.02924045 47.06679698 38.02924045 47.06679698 40.8125 48.6875 C41.534375 49.120625 42.25625 49.55375 43 50 C43 50.33 43 50.66 43 51 C28.81 51 14.62 51 0 51 C0 34.17 0 17.34 0 0 Z " fill="#F8F8F8" transform="translate(0,77)"/>
<path d="M0 0 C4.51617599 -0.07654536 8.59085217 -0.10228696 13 1 C15.2611662 7.78349859 14.80178408 16.4625038 12 23 C7.49202885 28.48266762 3.27502392 30.1359204 -3.69921875 30.83203125 C-4.45847656 30.88746094 -5.21773437 30.94289063 -6 31 C-6.87269531 31.06574219 -7.74539062 31.13148437 -8.64453125 31.19921875 C-15.38199289 31.47248642 -20.1696234 30.3725808 -26 27 C-26.65097656 26.62617187 -27.30195312 26.25234375 -27.97265625 25.8671875 C-32.93828431 22.68328161 -36.1019378 18.90428737 -37.4609375 12.99609375 C-37.70859397 11.33947277 -37.86371616 9.66947702 -38 8 C-36.08268082 8.11455681 -34.1661325 8.24206258 -32.25 8.375 C-31.18265625 8.44460937 -30.1153125 8.51421875 -29.015625 8.5859375 C-26.16271994 8.97765763 -24.49513046 9.66743582 -22 11 C-15.27655405 10.53092238 -7.40255747 8.09284657 -2 4 C-0.67206394 1.93299345 -0.67206394 1.93299345 0 0 Z " fill="#F5F5F5" transform="translate(66,92)"/>
<path d="M0 0 C0.20086443 3.71599191 0.1519437 4.77208445 -2 8 C-2.39387788 10.32387947 -2.73486085 12.65793749 -3 15 C-3.61488281 15.08636719 -4.22976562 15.17273437 -4.86328125 15.26171875 C-5.67152344 15.40222656 -6.47976562 15.54273438 -7.3125 15.6875 C-8.11300781 15.81511719 -8.91351563 15.94273438 -9.73828125 16.07421875 C-12.14816514 16.86433224 -12.14816514 16.86433224 -13.78125 19.03125 C-15.43146569 23.05100617 -15.32790201 26.51763847 -15.1875 30.8125 C-15.17396484 31.60076172 -15.16042969 32.38902344 -15.14648438 33.20117188 C-15.11133456 35.13441169 -15.05753361 37.06729682 -15 39 C-12.56520366 39.13030752 -12.56520366 39.13030752 -10 39 C-7.78483352 36.78483352 -6.47484539 34.08231045 -4.9375 31.375 C-3 28 -3 28 -1 26 C-0.01 26 0.98 26 2 26 C1.9175 24.7625 1.835 23.525 1.75 22.25 C1.7262052 18.89493302 1.80358323 18.24552096 4 15.5 C4.66 15.005 5.32 14.51 6 14 C7.00424803 17.01274408 7.48909877 19.87072999 8 23 C8.31674575 24.33737094 8.64270064 25.67288808 9 27 C9.66 27 10.32 27 11 27 C11 27.99 11 28.98 11 30 C11.99 30.33 12.98 30.66 14 31 C16.77040168 34.34008991 18.86036403 37.65949473 19.3125 42 C19.1578125 42.99 19.1578125 42.99 19 44 C16.125 44.125 16.125 44.125 13 44 C9.38554816 40.38554816 8.89366215 34.91514181 8 30 C3.9991076 29.5430902 3.9991076 29.5430902 1.875 32 C1.25625 32.66 0.6375 33.32 0 34 C-0.66 34 -1.32 34 -2 34 C-2.33 36.64 -2.66 39.28 -3 42 C-1.68 42.66 -0.36 43.32 1 44 C1 44.66 1 45.32 1 46 C-0.39194606 46.25170266 -1.7889827 46.4753269 -3.1875 46.6875 C-3.96480469 46.81511719 -4.74210937 46.94273438 -5.54296875 47.07421875 C-8 47 -8 47 -10.23828125 45.5703125 C-14.10980449 43.36896548 -17.61366611 43.36195646 -22 43.1875 C-22.7940625 43.13658203 -23.588125 43.08566406 -24.40625 43.03320312 C-28.77531663 42.81839068 -32.01844159 42.9209201 -36 45 C-35.88512252 46.58409994 -35.75765492 48.16728963 -35.625 49.75 C-35.55539063 50.63171875 -35.48578125 51.5134375 -35.4140625 52.421875 C-35.00149945 54.99066382 -34.28839043 56.75841015 -33 59 C-33.66 59.99 -34.32 60.98 -35 62 C-35.36798693 64.71075544 -35.36798693 64.71075544 -35.4140625 67.76171875 C-35.45273437 68.87998047 -35.49140625 69.99824219 -35.53125 71.15039062 C-35.5621875 72.31763672 -35.593125 73.48488281 -35.625 74.6875 C-35.66367187 75.86634766 -35.70234375 77.04519531 -35.7421875 78.25976562 C-35.83654391 81.17301977 -35.92213161 84.08626607 -36 87 C-36.33 86.34 -36.66 85.68 -37 85 C-37.66 85 -38.32 85 -39 85 C-40.42226115 82.1554777 -40.37761737 79.33587776 -40.62109375 76.19140625 C-40.8967824 73.71626355 -40.8967824 73.71626355 -43 71 C-42.63818359 69.08129883 -42.63818359 69.08129883 -42 67 C-41.89184947 65.56876335 -41.82356219 64.13412107 -41.7890625 62.69921875 C-41.76070312 61.88646484 -41.73234375 61.07371094 -41.703125 60.23632812 C-41.65140735 58.54903993 -41.60702973 56.86150938 -41.5703125 55.17382812 C-41.32280131 48.64056408 -40.27858885 43.69287774 -35.9375 38.5625 C-34 37 -34 37 -32 37 C-32 36.34 -32 35.68 -32 35 C-27.05 34.505 -27.05 34.505 -22 34 C-21.97421875 33.2265625 -21.9484375 32.453125 -21.921875 31.65625 C-21.45438524 23.07143799 -19.93360393 17.24093404 -14.25 10.75 C-11.57784147 8.07622307 -11.57784147 8.07622307 -12 4 C-10.68 4.33 -9.36 4.66 -8 5 C-8.66 7.64 -9.32 10.28 -10 13 C-8.35 13 -6.7 13 -5 13 C-5.0825 11.783125 -5.165 10.56625 -5.25 9.3125 C-5.26832321 5.8738447 -5.03077531 5.04765209 -3.0625 2 C-1 0 -1 0 0 0 Z " fill="#494A4B" transform="translate(61,16)"/>
<path d="M0 0 C3.39608504 1.45546502 5.40860299 3.40860299 8 6 C10.13309192 7.23512079 10.13309192 7.23512079 12 8 C12 10.31 12 12.62 12 15 C10.1128125 15.12375 10.1128125 15.12375 8.1875 15.25 C4.74011551 15.6687991 4.74011551 15.6687991 2.0625 17.875 C0.88951457 20.09575404 0.88951457 20.09575404 0 23 C-0.99 23.495 -0.99 23.495 -2 24 C-4.28003407 27.28324906 -5.43518386 30.04628701 -6 34 C-6.66 34 -7.32 34 -8 34 C-8 35.32 -8 36.64 -8 38 C-9.64453125 39.44921875 -9.64453125 39.44921875 -11.8125 40.6875 C-12.52019531 41.10386719 -13.22789063 41.52023438 -13.95703125 41.94921875 C-16 43 -16 43 -19 44 C-23.29593466 48.09090141 -26.69788561 52.51877526 -29 58 C-29.33902344 58.79792969 -29.67804688 59.59585938 -30.02734375 60.41796875 C-32.62807303 66.53397606 -32.62807303 66.53397606 -34 73 C-33.34 73.99 -32.68 74.98 -32 76 C-31.74121094 78.78735352 -31.74121094 78.78735352 -31.734375 82.12890625 C-31.73050781 83.92811523 -31.73050781 83.92811523 -31.7265625 85.76367188 C-31.73429687 87.01728516 -31.74203125 88.27089844 -31.75 89.5625 C-31.74226563 90.81998047 -31.73453125 92.07746094 -31.7265625 93.37304688 C-31.72914062 94.57123047 -31.73171875 95.76941406 -31.734375 97.00390625 C-31.73663086 98.10549072 -31.73888672 99.2070752 -31.74121094 100.34204102 C-32 103 -32 103 -34 105 C-34.103125 105.66 -34.20625 106.32 -34.3125 107 C-34.6528125 107.99 -34.6528125 107.99 -35 109 C-36.64551962 109.71727778 -38.31422289 110.38325228 -40 111 C-40.66 111.99 -41.32 112.98 -42 114 C-44.1640625 114.29296875 -44.1640625 114.29296875 -46.625 114.1875 C-47.44226563 114.16042969 -48.25953125 114.13335937 -49.1015625 114.10546875 C-49.72804688 114.07066406 -50.35453125 114.03585938 -51 114 C-50.195625 113.401875 -49.39125 112.80375 -48.5625 112.1875 C-45.77672016 110.19052724 -45.77672016 110.19052724 -45 107 C-43.34561387 106.30341637 -41.67745682 105.63903117 -40 105 C-35.80584907 101.66116732 -35.67823908 97.04825678 -35 92 C-34.75601673 87.20166229 -35.22655917 82.73732507 -36 78 C-36.78375 77.731875 -37.5675 77.46375 -38.375 77.1875 C-41 76 -41 76 -43 73 C-41.37660195 71.29115995 -39.70680947 69.62553283 -38 68 C-37.34 68 -36.68 68 -36 68 C-36.66 65.03 -37.32 62.06 -38 59 C-34.25 56 -34.25 56 -32 56 C-31.89558594 55.26394531 -31.79117188 54.52789062 -31.68359375 53.76953125 C-29.51173712 44.97040923 -20.86711779 39.15691604 -14 34 C-12.64084127 32.86693463 -12.64084127 32.86693463 -12.875 29.875 C-11.82744005 25.23580595 -10.17249912 23.72082909 -6.69140625 20.67578125 C-4.90137563 19.08258657 -4.90137563 19.08258657 -3.96484375 16.91796875 C-3 15 -3 15 0 13 C0.82231525 9.98385705 0.82231525 9.98385705 1 7 C0.505 6.505 0.505 6.505 0 6 C-0.04080783 4.00041636 -0.04254356 1.99954746 0 0 Z " fill="#5A5B5C" transform="translate(116,14)"/>
<path d="M0 0 C3.63 0 7.26 0 11 0 C11 7.26 11 14.52 11 22 C5.04750205 20.01583402 4.33439792 19.64433996 1 15 C0.34 14.67 -0.32 14.34 -1 14 C-0.82082031 14.66386719 -0.64164063 15.32773438 -0.45703125 16.01171875 C1.29157175 23.27107062 1.29157175 23.27107062 -0.25 27.125 C-0.8275 27.74375 -1.405 28.3625 -2 29 C-2.66 29 -3.32 29 -4 29 C-4.20625 29.70125 -4.4125 30.4025 -4.625 31.125 C-5.94921091 33.89380463 -6.84731553 34.89886421 -9.0625 36.875 C-11.63637825 39.27769395 -11.96984438 39.6004381 -12.25 43.3125 C-13.46256336 49.27426985 -18.2233629 52.49501338 -23 56 C-23.66 56 -24.32 56 -25 56 C-25.226875 56.53625 -25.45375 57.0725 -25.6875 57.625 C-27 60 -27 60 -29.5625 63 C-31.6678113 65.59115237 -32.62904804 66.785083 -33 70 C-33.66 70 -34.32 70 -35 70 C-32.79838288 60.45965913 -25.67440246 54.32581567 -18.0390625 48.82421875 C-15.82390988 46.84246344 -15.27553179 45.91704313 -15 43 C-15.31478446 41.66216607 -15.64587656 40.32796291 -16 39 C-15.67 38.34 -15.34 37.68 -15 37 C-15.66 37 -16.32 37 -17 37 C-17 36.34 -17 35.68 -17 35 C-18.98 34.67 -20.96 34.34 -23 34 C-23.33 32.68 -23.66 31.36 -24 30 C-20.86650268 28.95550089 -20.01031744 29.06576355 -17 30 C-16.9071875 28.6078125 -16.9071875 28.6078125 -16.8125 27.1875 C-16 24 -16 24 -13.75 22.5 C-12.8425 22.005 -11.935 21.51 -11 21 C-10.175 20.01 -9.35 19.02 -8.5 18 C-6 15 -6 15 -3.39453125 13.69921875 C-0.70714859 12.18600908 -0.70714859 12.18600908 -0.29296875 9.08203125 C-0.25816406 8.00308594 -0.22335938 6.92414062 -0.1875 5.8125 C-0.13980469 4.72582031 -0.09210938 3.63914063 -0.04296875 2.51953125 C-0.02878906 1.68808594 -0.01460937 0.85664062 0 0 Z " fill="#D3D4D4" transform="translate(117,0)"/>
<path d="M0 0 C3.92943914 0.46228696 5.451933 1.56127394 8.1875 4.375 C9.03125 6.23828125 9.03125 6.23828125 9.1875 8.375 C7.82421875 10.55859375 7.82421875 10.55859375 5.875 12.8125 C1.48903865 17.92797217 0.01449192 21.89590548 -0.375 28.625 C-0.7126297 34.2751297 -0.7126297 34.2751297 -1.8125 35.375 C-3.89414413 35.61903455 -5.97789975 35.84515939 -8.0625 36.0625 C-13.62386661 36.77416519 -13.62386661 36.77416519 -18 39.9375 C-21.69544957 46.94611125 -22.06060089 53.559822 -21.8125 61.375 C-23.765625 60.62109375 -23.765625 60.62109375 -25.8125 59.375 C-26.421875 57.53515625 -26.421875 57.53515625 -26.5625 55.4375 C-26.61921875 54.74785156 -26.6759375 54.05820313 -26.734375 53.34765625 C-27.00091529 46.61751403 -24.89397362 40.88401881 -22.25 34.75 C-19.8125 32.375 -19.8125 32.375 -17.4375 32.19140625 C-15.65386663 32.27177345 -13.87104969 32.37316177 -12.08984375 32.49609375 C-11.33832031 32.45613281 -10.58679688 32.41617188 -9.8125 32.375 C-7.73033124 30.0200037 -7.73033124 30.0200037 -6.8125 27.375 C-6.1525 27.375 -5.4925 27.375 -4.8125 27.375 C-4.82297363 26.62814941 -4.83344727 25.88129883 -4.84423828 25.11181641 C-4.8857077 21.74124492 -4.91179729 18.370727 -4.9375 15 C-4.95425781 13.824375 -4.97101562 12.64875 -4.98828125 11.4375 C-4.99472656 10.31601562 -5.00117187 9.19453125 -5.0078125 8.0390625 C-5.01828613 7.00217285 -5.02875977 5.9652832 -5.03955078 4.89697266 C-4.70411307 1.17108931 -3.64496687 0.48599558 0 0 Z " fill="#EAEBEB" transform="translate(40.8125,15.625)"/>
<path d="M0 0 C4.75 0.875 4.75 0.875 7 2 C7.4140625 4.28515625 7.4140625 4.28515625 7.625 7.0625 C7.69976562 7.98160156 7.77453125 8.90070312 7.8515625 9.84765625 C7.90054688 10.55792969 7.94953125 11.26820312 8 12 C7.38125 12.2475 6.7625 12.495 6.125 12.75 C3.56384304 14.25656292 2.97907916 15.22180077 2 18 C1.83722683 19.64107372 1.73575883 21.2890798 1.6875 22.9375 C1.26767917 27.98271521 -0.12516683 29.65355317 -4 33 C-5.42215076 35.06211861 -6.70542637 37.17495832 -7.984375 39.328125 C-9 41 -9 41 -10 42 C-12.5 42.125 -12.5 42.125 -15 42 C-17.08729489 39.91270511 -16.2768056 35.67519125 -16.3125 32.8125 C-16.34150391 32.05646484 -16.37050781 31.30042969 -16.40039062 30.52148438 C-16.45976959 25.25502724 -15.68506289 22.05167292 -12 18 C-9.640625 17.1953125 -9.640625 17.1953125 -7.25 17.125 C-6.05117188 17.06699219 -6.05117188 17.06699219 -4.828125 17.0078125 C-3.92320313 17.00394531 -3.92320313 17.00394531 -3 17 C-3.04125 15.906875 -3.0825 14.81375 -3.125 13.6875 C-3 10 -3 10 -1 7 C-0.60612212 4.67612053 -0.26513915 2.34206251 0 0 Z " fill="#F4F4F4" transform="translate(61,14)"/>
<path d="M0 0 C2 2 2 2 3 5 C7.09219388 8.11786201 11.26416642 10.10566657 16 12 C16.08086147 13.79093191 16.13912702 15.58289628 16.1875 17.375 C16.23970703 18.87160156 16.23970703 18.87160156 16.29296875 20.3984375 C16.19628906 21.25695312 16.09960938 22.11546875 16 23 C15.01 23.66 14.02 24.32 13 25 C13.33 26.32 13.66 27.64 14 29 C14.66 29 15.32 29 16 29 C15.88557539 30.60495567 15.75805306 32.20898119 15.625 33.8125 C15.55539063 34.70582031 15.48578125 35.59914062 15.4140625 36.51953125 C15 39 15 39 13 42 C8.25 41.25 8.25 41.25 6 39 C7.98 39 9.96 39 12 39 C10.58465326 34.16423199 8.6634683 30.24490261 6 26 C5.34 25.67 4.68 25.34 4 25 C4 24.01 4 23.02 4 22 C3.34 22 2.68 22 2 22 C-0.41685712 17.77050005 -1.34833144 14.87664009 -1 10 C-3.0343459 11.41519715 -3.90410393 12.54982123 -4.421875 14.98046875 C-4.66273952 16.98176954 -4.83532741 18.9909944 -5 21 C-5.33 21 -5.66 21 -6 21 C-6.68797533 11.33012448 -6.68797533 11.33012448 -4.1875 7.375 C-3.465625 6.59125 -2.74375 5.8075 -2 5 C-1.01 5 -0.02 5 1 5 C0.505 2.525 0.505 2.525 0 0 Z " fill="#797A7B" transform="translate(68,21)"/>
<path d="M0 0 C2.31 0 4.62 0 7 0 C7.47754997 4.09897058 7.68566173 7.91743399 7 12 C5.21715558 14.13420792 3.48451847 15.27288303 1.1015625 16.6875 C-1.07429861 18.04640211 -2.27813347 19.34172901 -3.8125 21.375 C-4.534375 22.24125 -5.25625 23.1075 -6 24 C-6.99 24 -7.98 24 -9 24 C-9.33 25.98 -9.66 27.96 -10 30 C-11.98 30 -13.96 30 -16 30 C-16 31.32 -16 32.64 -16 34 C-14.02 34.33 -12.04 34.66 -10 35 C-10 36.32 -10 37.64 -10 39 C-12.76452033 40.38226016 -15.0461363 40.09525387 -18.125 40.0625 C-19.22070312 40.05347656 -20.31640625 40.04445312 -21.4453125 40.03515625 C-22.28835937 40.02355469 -23.13140625 40.01195312 -24 40 C-24.495 38.515 -24.495 38.515 -25 37 C-24.33333333 35.66666667 -23.66666667 34.33333333 -23 33 C-22.979375 31.845 -22.95875 30.69 -22.9375 29.5 C-22 26 -22 26 -20.1484375 24.80078125 C-17.78667637 23.80157462 -15.4027353 22.89552863 -13 22 C-7.10928975 18.94136199 -4.51662669 14.98292384 -2 9 C-1.12380384 5.99460176 -0.53990303 3.09217189 0 0 Z " fill="#656666" transform="translate(110,0)"/>
<path d="M0 0 C1 1 1 1 1.375 3.25 C0.84916402 7.10613052 -1.14429641 8.50125936 -4 11 C-4.66 10.67 -5.32 10.34 -6 10 C-5.67 9.01 -5.34 8.02 -5 7 C-5.61488281 7.20496094 -6.22976562 7.40992187 -6.86328125 7.62109375 C-10.2421875 8.74739583 -13.62109375 9.87369792 -17 11 C-17.99 10.34 -18.98 9.68 -20 9 C-20 8.34 -20 7.68 -20 7 C-21.65 7 -23.3 7 -25 7 C-25 5.68 -25 4.36 -25 3 C-24.34 2.67 -23.68 2.34 -23 2 C-22.67 1.01 -22.34 0.02 -22 -1 C-25.72614153 0.11854586 -25.72614153 0.11854586 -28 3 C-28.66 3 -29.32 3 -30 3 C-30 3.99 -30 4.98 -30 6 C-30.66 6 -31.32 6 -32 6 C-30.36675845 0.28365457 -26.60965309 -2.33272164 -21.75 -5.4375 C-14.31353941 -6.95859421 -6.49297523 -3.41657694 0 0 Z " fill="#8E8F8F" transform="translate(63,89)"/>
<path d="M0 0 C-0.6171875 1.953125 -0.6171875 1.953125 -2 4 C-4.8203125 4.609375 -4.8203125 4.609375 -8.125 4.75 C-9.22070312 4.80671875 -10.31640625 4.8634375 -11.4453125 4.921875 C-12.70988281 4.96054687 -12.70988281 4.96054687 -14 5 C-15.83205721 9.14044928 -16.29551066 12.53767461 -16.4609375 17.01171875 C-17 19 -17 19 -18.9765625 20.14453125 C-19.64429688 20.42683594 -20.31203125 20.70914063 -21 21 C-21.33 21.66 -21.66 22.32 -22 23 C-19.525 23.99 -19.525 23.99 -17 25 C-17 26.32 -17 27.64 -17 29 C-19.31 29 -21.62 29 -24 29 C-24 29.66 -24 30.32 -24 31 C-21.69 31.33 -19.38 31.66 -17 32 C-16.67 32.99 -16.34 33.98 -16 35 C-19.3 35 -22.6 35 -26 35 C-26 33.68 -26 32.36 -26 31 C-27.65 30.67 -29.3 30.34 -31 30 C-30.25 25.25 -30.25 25.25 -28 23 C-27.71792918 21.4671303 -27.49697233 19.92265094 -27.3125 18.375 C-26.19976298 12.35057225 -23.4192559 9.08418937 -19 5 C-18.4740625 4.47019531 -17.948125 3.94039062 -17.40625 3.39453125 C-12.23476202 -1.13052073 -6.55591878 -0.4844275 0 0 Z " fill="#515253" transform="translate(31,44)"/>
<path d="M0 0 C0.495 1.485 0.495 1.485 1 3 C-2.37884752 9.0352441 -6.72985415 13.21326851 -13 16 C-15.9375 16.75 -15.9375 16.75 -18 17 C-18.31319144 18.39567835 -18.62551788 19.79155082 -18.9375 21.1875 C-19.19853516 22.35345703 -19.19853516 22.35345703 -19.46484375 23.54296875 C-20.00493041 26.02263668 -20.50229578 28.51147892 -21 31 C-16.38 30.67 -11.76 30.34 -7 30 C-7 29.34 -7 28.68 -7 28 C-6.34 28 -5.68 28 -5 28 C-5.33 29.32 -5.66 30.64 -6 32 C-6.89203125 32.06316406 -7.7840625 32.12632813 -8.703125 32.19140625 C-15.23204701 32.56164904 -15.23204701 32.56164904 -20.6484375 35.65625 C-21.77376541 37.78023823 -21.77376541 37.78023823 -23 41 C-24.485 41.495 -24.485 41.495 -26 42 C-26.495 39.525 -26.495 39.525 -27 37 C-26.01 36.34 -25.02 35.68 -24 35 C-23.83322718 31.58343976 -23.83322718 31.58343976 -24 28 C-23.5 25.5625 -23.5 25.5625 -23 24 C-23.886875 23.9175 -24.77375 23.835 -25.6875 23.75 C-29.4584294 22.89620466 -31.14652071 21.54499505 -34 19 C-34.99 18.34 -35.98 17.68 -37 17 C-38.1875 13.375 -38.1875 13.375 -39 10 C-37.02 10.99 -37.02 10.99 -35 12 C-35.66 9.36 -36.32 6.72 -37 4 C-34 6 -34 6 -33 9 C-32.34 9.33 -31.68 9.66 -31 10 C-30.690625 10.639375 -30.38125 11.27875 -30.0625 11.9375 C-29.04654078 14.31971493 -29.04654078 14.31971493 -26 16 C-22.32685182 15.5959537 -18.96322189 14.37993153 -15.5 13.125 C-14.5821875 12.79757813 -13.664375 12.47015625 -12.71875 12.1328125 C-7.48197776 9.95082406 -4.65585983 8.05878063 -2 3 C-1.34 2.01 -0.68 1.02 0 0 Z " fill="#717272" transform="translate(107,9)"/>
<path d="M0 0 C0.66 0.33 1.32 0.66 2 1 C1.95875 1.86625 1.9175 2.7325 1.875 3.625 C2.00457721 7.12358468 2.76019656 9.74551597 4 13 C4.66 13 5.32 13 6 13 C6 13.99 6 14.98 6 16 C6.99 16.33 7.98 16.66 9 17 C11.77040168 20.34008991 13.86036403 23.65949473 14.3125 28 C14.209375 28.66 14.10625 29.32 14 30 C11.125 30.125 11.125 30.125 8 30 C4.38554816 26.38554816 3.89366215 20.91514181 3 16 C-1.0008924 15.5430902 -1.0008924 15.5430902 -3.125 18 C-4.053125 18.99 -4.053125 18.99 -5 20 C-5.66 20 -6.32 20 -7 20 C-7.33 22.64 -7.66 25.28 -8 28 C-6.68 28.66 -5.36 29.32 -4 30 C-4 30.66 -4 31.32 -4 32 C-7.465 32.495 -7.465 32.495 -11 33 C-11.99 31.68 -12.98 30.36 -14 29 C-12.40029427 25.75444318 -10.71698441 22.56000609 -9 19.375 C-8.484375 18.41335937 -7.96875 17.45171875 -7.4375 16.4609375 C-6 14 -6 14 -4 12 C-3.77344114 9.99333582 -3.5488834 7.98631237 -3.3515625 5.9765625 C-2.89281448 3.39737921 -1.79525435 1.87330889 0 0 Z " fill="#555656" transform="translate(66,30)"/>
<path d="M0 0 C2.375 2.5 2.375 2.5 4 5 C2.53650125 9.52354158 0.01661634 12.38006039 -3 16 C-4.84271515 19.7820762 -5.34941083 23.13273092 -5.625 27.3125 C-5.69976562 28.38113281 -5.77453125 29.44976562 -5.8515625 30.55078125 C-5.90054688 31.35902344 -5.94953125 32.16726562 -6 33 C-8.475 33.495 -8.475 33.495 -11 34 C-11.625 32.1875 -11.625 32.1875 -12 30 C-11.01 28.515 -11.01 28.515 -10 27 C-9.57224204 24.20948236 -9.57224204 24.20948236 -9.4375 21.0546875 C-9.36273438 19.89582031 -9.28796875 18.73695312 -9.2109375 17.54296875 C-9.0698647 15.08986946 -8.92924253 12.63674422 -8.7890625 10.18359375 C-8.71429688 9.02730469 -8.63953125 7.87101562 -8.5625 6.6796875 C-8.50191406 5.61476074 -8.44132812 4.54983398 -8.37890625 3.45263672 C-8.25386719 2.6432666 -8.12882812 1.83389648 -8 1 C-5.12529507 -0.43735246 -3.18105412 -0.38172649 0 0 Z " fill="#F4F4F4" transform="translate(46,17)"/>
<path d="M0 0 C0.20086443 3.71599191 0.1519437 4.77208445 -2 8 C-2.39387788 10.32387947 -2.73486085 12.65793749 -3 15 C-3.61488281 15.08636719 -4.22976562 15.17273437 -4.86328125 15.26171875 C-9.91114971 16.08940713 -9.91114971 16.08940713 -14 18.9375 C-15.50433553 23.54452755 -15.75516028 28.17919029 -16 33 C-16.99 33 -17.98 33 -19 33 C-19.433125 33.66 -19.86625 34.32 -20.3125 35 C-20.869375 35.66 -21.42625 36.32 -22 37 C-25.1875 37.25 -25.1875 37.25 -28 37 C-28 36.34 -28 35.68 -28 35 C-25.03 34.505 -25.03 34.505 -22 34 C-21.97421875 33.2265625 -21.9484375 32.453125 -21.921875 31.65625 C-21.45438524 23.07143799 -19.93360393 17.24093404 -14.25 10.75 C-11.57784147 8.07622307 -11.57784147 8.07622307 -12 4 C-10.68 4.33 -9.36 4.66 -8 5 C-8.66 7.64 -9.32 10.28 -10 13 C-8.35 13 -6.7 13 -5 13 C-5.12375 11.1746875 -5.12375 11.1746875 -5.25 9.3125 C-5.26832321 5.8738447 -5.03077531 5.04765209 -3.0625 2 C-1 0 -1 0 0 0 Z " fill="#8E8F8F" transform="translate(61,16)"/>
<path d="M0 0 C1.8125 0.0625 1.8125 0.0625 4 1 C6.33864953 5.49740294 7.70346918 10.11307616 9 15 C8.38511719 15.10957031 7.77023438 15.21914063 7.13671875 15.33203125 C6.32847656 15.49058594 5.52023438 15.64914063 4.6875 15.8125 C3.48673828 16.03873047 3.48673828 16.03873047 2.26171875 16.26953125 C-0.07666562 16.83146323 -0.07666562 16.83146323 -1.5625 18.59375 C-2.036875 19.0578125 -2.51125 19.521875 -3 20 C-6.6875 19.6875 -6.6875 19.6875 -10 19 C-7.35261084 17.5393715 -6.10551666 17 -3 17 C-3.66 16.46375 -4.32 15.9275 -5 15.375 C-7 13 -7 13 -7.5 10 C-6.89629708 6.37778249 -5.88279106 5.20448728 -3 3 C-2.34 3 -1.68 3 -1 3 C-0.67 2.01 -0.34 1.02 0 0 Z " fill="#7C7D7D" transform="translate(65,45)"/>
<path d="M0 0 C0.66 0.33 1.32 0.66 2 1 C1.67386719 1.51949219 1.34773438 2.03898437 1.01171875 2.57421875 C0.10889914 4.01500166 -0.79071072 5.45779966 -1.6875 6.90234375 C-2.70726178 8.5321416 -3.75450125 10.14476052 -4.8125 11.75 C-6.31117241 14.16556624 -6.31117241 14.16556624 -6 18 C-5.67 18.99 -5.34 19.98 -5 21 C-9.75 19.125 -9.75 19.125 -12 18 C-14.9438048 17.71230338 -17.86193707 17.48660875 -20.8125 17.3125 C-21.62009766 17.25255859 -22.42769531 17.19261719 -23.25976562 17.13085938 C-27.69170022 16.86588704 -30.95987307 16.86110927 -35 19 C-34.88512252 20.58409994 -34.75765492 22.16728963 -34.625 23.75 C-34.55539063 24.63171875 -34.48578125 25.5134375 -34.4140625 26.421875 C-34.00149945 28.99066382 -33.28839043 30.75841015 -32 33 C-32.66 33.99 -33.32 34.98 -34 36 C-34.30066154 38.75417318 -34.50925299 41.42645147 -34.625 44.1875 C-34.66367187 44.93708984 -34.70234375 45.68667969 -34.7421875 46.45898438 C-34.83628216 48.30559199 -34.91922319 50.1527619 -35 52 C-35.33 52 -35.66 52 -36 52 C-35.99476318 51.3387915 -35.98952637 50.67758301 -35.98413086 49.99633789 C-35.96342344 47.01840149 -35.95035988 44.04048018 -35.9375 41.0625 C-35.92912109 40.02158203 -35.92074219 38.98066406 -35.91210938 37.90820312 C-35.90888672 36.91884766 -35.90566406 35.92949219 -35.90234375 34.91015625 C-35.89710693 33.99371338 -35.89187012 33.07727051 -35.88647461 32.13305664 C-35.76078789 30.01636977 -35.76078789 30.01636977 -37 29 C-37.09823996 27.52351124 -37.12973519 26.04224583 -37.125 24.5625 C-37.12757812 23.75941406 -37.13015625 22.95632812 -37.1328125 22.12890625 C-37 20 -37 20 -36 18 C-35.34 18 -34.68 18 -34 18 C-33.34 16.68 -32.68 15.36 -32 14 C-27.05 14 -22.1 14 -17 14 C-16.67 12.35 -16.34 10.7 -16 9 C-15.34 10.32 -14.68 11.64 -14 13 C-11.62625139 13.33425735 -11.62625139 13.33425735 -9 13 C-6.78483352 10.78483352 -5.47484539 8.08231045 -3.9375 5.375 C-2 2 -2 2 0 0 Z " fill="#A6A7A7" transform="translate(60,42)"/>
<path d="M0 0 C3.13506611 0.33589994 4.025249 1.02665172 6.25 3.375 C8 6 8 6 8 9 C8.66 9 9.32 9 10 9 C11.25664978 11.90600261 12 13.79604584 12 17 C10.68 16.34 9.36 15.68 8 15 C8 14.01 8 13.02 8 12 C5.69 11.34 3.38 10.68 1 10 C0.71125 10.78375 0.4225 11.5675 0.125 12.375 C-1 15 -1 15 -3 17 C-3.45811675 18.97235333 -3.45811675 18.97235333 -3.625 21.125 C-3.74875 22.40375 -3.8725 23.6825 -4 25 C-5.65 25 -7.3 25 -9 25 C-8.67 22.36 -8.34 19.72 -8 17 C-8.99 16.67 -9.98 16.34 -11 16 C-11 15.01 -11 14.02 -11 13 C-9.63875 12.87625 -9.63875 12.87625 -8.25 12.75 C-4.43375015 11.86932696 -3.22117164 11.20835903 -1 8 C-0.38495115 5.29688616 -0.18558136 2.78372042 0 0 Z " fill="#454647" transform="translate(60,4)"/>
<path d="M0 0 C1.32 0 2.64 0 4 0 C3.625 1.9375 3.625 1.9375 3 4 C2.01 4.495 2.01 4.495 1 5 C1 5.66 1 6.32 1 7 C1.763125 7.103125 2.52625 7.20625 3.3125 7.3125 C6.17059424 8.04364039 7.15742885 8.76951913 9 11 C9.495 10.690625 9.99 10.38125 10.5 10.0625 C13.97986781 8.58355618 17.24028509 8.37597149 21 8 C20.67 9.65 20.34 11.3 20 13 C8.25112108 16.52466368 8.25112108 16.52466368 5.0625 15.1875 C4.381875 14.795625 3.70125 14.40375 3 14 C1.824375 13.690625 0.64875 13.38125 -0.5625 13.0625 C-3.74136983 12.07994023 -5.0201464 11.56216348 -7 9 C-6.67 8.34 -6.34 7.68 -6 7 C-5.34 7 -4.68 7 -4 7 C-4 6.01 -4 5.02 -4 4 C-3.34 4 -2.68 4 -2 4 C-1.34 2.68 -0.68 1.36 0 0 Z " fill="#828383" transform="translate(37,88)"/>
<path d="M0 0 C3.3 0 6.6 0 10 0 C10 6.27 10 12.54 10 19 C4 18 4 18 1.625 15.125 C-0.80220258 10.32074365 -0.34133704 5.24331623 0 0 Z " fill="#F5F5F5" transform="translate(118,0)"/>
<path d="M0 0 C0.99 0.66 1.98 1.32 3 2 C2.48256463 6.03054923 0.56870538 7.65263855 -2.4375 10.25 C-3.24058594 10.95640625 -4.04367188 11.6628125 -4.87109375 12.390625 C-7 14 -7 14 -9 14 C-9.28875 14.598125 -9.5775 15.19625 -9.875 15.8125 C-11 18 -11 18 -13 21 C-14.32 20.67 -15.64 20.34 -17 20 C-16.67 19.484375 -16.34 18.96875 -16 18.4375 C-14.76181293 15.91722324 -14.76181293 15.91722324 -15.1875 12.625 C-15.00612949 9.11850344 -14.88411901 8.23594104 -12.9375 5.5625 C-10 3 -10 3 -6.375 2.6875 C-5.26125 2.790625 -4.1475 2.89375 -3 3 C-2.01 2.67 -1.02 2.34 0 2 C0 1.34 0 0.68 0 0 Z " fill="#F2F3F3" transform="translate(100,41)"/>
<path d="M0 0 C0.66 0 1.32 0 2 0 C4.77742114 6.86186399 4.09114722 13.77554946 3 21 C1.953125 23.42578125 1.953125 23.42578125 1 25 C0.34 25 -0.32 25 -1 25 C-1.495 26.485 -1.495 26.485 -2 28 C-3.65 28.33 -5.3 28.66 -7 29 C-7.04125 29.598125 -7.0825 30.19625 -7.125 30.8125 C-8 33 -8 33 -10.75 34.875 C-14.72523717 36.25104364 -15.25130153 35.54546913 -19 34 C-22.5672586 33.44836207 -26.1349113 33.05454017 -29.72265625 32.66015625 C-33.0706546 31.98576803 -34.49057368 31.22182915 -37 29 C-38.65661761 27.98343919 -40.32111559 26.97934924 -42 26 C-41.67 25.34 -41.34 24.68 -41 24 C-39.89205078 24.6496875 -39.89205078 24.6496875 -38.76171875 25.3125 C-28.04563367 31.19477288 -19.63055555 31.02857143 -8 28 C-4.00949879 26.81134006 -2.04487509 25.68077516 0 22 C1.83417449 15.3302746 2.00669944 6.65714576 0 0 Z " fill="#969797" transform="translate(78,92)"/>
<path d="M0 0 C3.63 1.32 7.26 2.64 11 4 C11 7.3 11 10.6 11 14 C7.7 14.66 4.4 15.32 1 16 C-2.00135068 10.99774887 -2.47366503 7.6839803 -2 2 C-1.34 1.34 -0.68 0.68 0 0 Z " fill="#F2F2F2" transform="translate(73,29)"/>
<path d="M0 0 C0 1.32 0 2.64 0 4 C-8.08046106 8.04023053 -22.35114532 4.35668309 -31 3 C-30.67 2.34 -30.34 1.68 -30 1 C-26.88321183 0.11360465 -23.64176445 -0.22650377 -20.4375 -0.6875 C-19.55513672 -0.82994141 -18.67277344 -0.97238281 -17.76367188 -1.11914062 C-11.82035443 -2.00207249 -5.56988549 -2.78494275 0 0 Z " fill="#A6A7A7" transform="translate(65,72)"/>
<path d="M0 0 C0.99 0 1.98 0 3 0 C5.32409827 6.23836905 5.32409827 6.23836905 3.75 9.9375 C3.1725 10.618125 2.595 11.29875 2 12 C1.34 12 0.68 12 0 12 C-0.66 13.65 -1.32 15.3 -2 17 C-2.66 17 -3.32 17 -4 17 C-4.66 18.32 -5.32 19.64 -6 21 C-7.32 20.67 -8.64 20.34 -10 20 C-10.33 18.68 -10.66 17.36 -11 16 C-9.68 15.67 -8.36 15.34 -7 15 C-7.495 12.525 -7.495 12.525 -8 10 C-3.25 8.875 -3.25 8.875 -1 10 C-1.20625 8.72125 -1.4125 7.4425 -1.625 6.125 C-1.9765625 3.9453125 -1.9765625 3.9453125 -2 2 C-1.34 1.34 -0.68 0.68 0 0 Z " fill="#F0F1F1" transform="translate(112,16)"/>
<path d="M0 0 C1.32 0.33 2.64 0.66 4 1 C3.401875 1.78375 2.80375 2.5675 2.1875 3.375 C-0.62146046 7.53346103 -1.74550793 12.19111372 -3 17 C-2.67 17.33 -2.34 17.66 -2 18 C-1.55080975 19.96774308 -1.16460972 21.95008875 -0.8125 23.9375 C-0.61269531 25.01902344 -0.41289062 26.10054687 -0.20703125 27.21484375 C-0.10455078 28.59349609 -0.10455078 28.59349609 0 30 C-2.41486943 32.41486943 -3.12707789 32.2961925 -6.4375 32.3125 C-7.61119141 32.33763672 -7.61119141 32.33763672 -8.80859375 32.36328125 C-11.50332946 31.91656036 -12.19983091 30.98068744 -14 29 C-14.99 28.67 -15.98 28.34 -17 28 C-17 27.01 -17 26.02 -17 25 C-15.35 25.33 -13.7 25.66 -12 26 C-12 27.32 -12 28.64 -12 30 C-8.7 30 -5.4 30 -2 30 C-2.33 29.34 -2.66 28.68 -3 28 C-5.32156597 27.59270772 -7.6568787 27.25561323 -10 27 C-10 25.68 -10 24.36 -10 23 C-7.69 23.33 -5.38 23.66 -3 24 C-3.19471111 22.05000871 -3.19471111 22.05000871 -4 20 C-5.9837767 18.71563266 -5.9837767 18.71563266 -8 18 C-7.67 17.01 -7.34 16.02 -7 15 C-4.9375 14.3125 -4.9375 14.3125 -3 14 C-3.2475 13.175 -3.495 12.35 -3.75 11.5 C-4.08674599 6.78555611 -2.35297489 3.97885024 0 0 Z " fill="#868787" transform="translate(17,49)"/>
<path d="M0 0 C1.9375 0.375 1.9375 0.375 4 1 C4.33 1.66 4.66 2.32 5 3 C5.99 3.33 6.98 3.66 8 4 C8.99 5.485 8.99 5.485 10 7 C16.89167541 10.91572466 23.62031027 12.3550681 31.390625 13.4375 C34 14 34 14 36 16 C32.66734962 16.17621118 29.33591381 16.28146971 26 16.375 C24.59814453 16.45041016 24.59814453 16.45041016 23.16796875 16.52734375 C16.96492305 16.65747758 13.44534028 15.68127274 8.65625 11.68994141 C4 6.93897406 4 6.93897406 4 4 C3.01 3.67 2.02 3.34 1 3 C0.67 2.01 0.34 1.02 0 0 Z " fill="#4F5051" transform="translate(28,112)"/>
<path d="M0 0 C0.33 1.32 0.66 2.64 1 4 C0.01 4.495 0.01 4.495 -1 5 C-1.33 6.155 -1.66 7.31 -2 8.5 C-2.495 10.2325 -2.495 10.2325 -3 12 C-3.99 12.495 -3.99 12.495 -5 13 C-6.45351222 20.70361476 -7.08407637 29.39069792 -5 37 C-4.66844456 42.63644252 -5.62356662 47.58029357 -7 53 C-7.33 53 -7.66 53 -8 53 C-8.01981934 52.25838623 -8.03963867 51.51677246 -8.06005859 50.75268555 C-8.15522928 47.39726166 -8.26494094 44.04246714 -8.375 40.6875 C-8.4059375 39.52025391 -8.436875 38.35300781 -8.46875 37.15039062 C-8.50742188 36.03212891 -8.54609375 34.91386719 -8.5859375 33.76171875 C-8.6173584 32.73006592 -8.6487793 31.69841309 -8.68115234 30.63549805 C-8.82674629 27.77156764 -8.82674629 27.77156764 -11 25 C-9.97039397 15.85292034 -4.84988033 7.59814585 0 0 Z " fill="#BFC0C0" transform="translate(92,62)"/>
<path d="M0 0 C2.51655106 0.03937704 4.84213367 0.23916181 7.30859375 0.73046875 C7.30859375 1.06046875 7.30859375 1.39046875 7.30859375 1.73046875 C5.42140625 1.85421875 5.42140625 1.85421875 3.49609375 1.98046875 C0.04870926 2.39926785 0.04870926 2.39926785 -2.62890625 4.60546875 C-3.80189168 6.82622279 -3.80189168 6.82622279 -4.69140625 9.73046875 C-5.68140625 10.22546875 -5.68140625 10.22546875 -6.69140625 10.73046875 C-8.97144032 14.01371781 -10.12659011 16.77675576 -10.69140625 20.73046875 C-11.35140625 20.73046875 -12.01140625 20.73046875 -12.69140625 20.73046875 C-12.69140625 22.05046875 -12.69140625 23.37046875 -12.69140625 24.73046875 C-14.3359375 26.1796875 -14.3359375 26.1796875 -16.50390625 27.41796875 C-17.21160156 27.83433594 -17.91929688 28.25070313 -18.6484375 28.6796875 C-20.69140625 29.73046875 -20.69140625 29.73046875 -23.69140625 30.73046875 C-24.35140625 31.72046875 -25.01140625 32.71046875 -25.69140625 33.73046875 C-26.35140625 33.73046875 -27.01140625 33.73046875 -27.69140625 33.73046875 C-27.69140625 33.07046875 -27.69140625 32.41046875 -27.69140625 31.73046875 C-27.03140625 31.73046875 -26.37140625 31.73046875 -25.69140625 31.73046875 C-25.36140625 30.74046875 -25.03140625 29.75046875 -24.69140625 28.73046875 C-23.76328125 28.29734375 -22.83515625 27.86421875 -21.87890625 27.41796875 C-17.96960675 25.3483396 -16.63393621 23.69024135 -14.69140625 19.73046875 C-14.38265523 16.96664911 -14.49862713 14.52576606 -14.69140625 11.73046875 C-14.03140625 11.40046875 -13.37140625 11.07046875 -12.69140625 10.73046875 C-11.70140625 11.06046875 -10.71140625 11.39046875 -9.69140625 11.73046875 C-9.30210938 10.93640625 -8.9128125 10.14234375 -8.51171875 9.32421875 C-3.9966395 1.08471928 -3.9966395 1.08471928 0 0 Z " fill="#858686" transform="translate(120.69140625,27.26953125)"/>
<path d="M0 0 C0.66 0.33 1.32 0.66 2 1 C1.75 3.875 1.75 3.875 1 7 C-0.9375 8.0625 -0.9375 8.0625 -3 9 C-3.433125 10.11375 -3.433125 10.11375 -3.875 11.25 C-5.02821809 14.06897756 -5.85372313 14.91280867 -8.0625 16.875 C-10.63637825 19.27769395 -10.96984438 19.6004381 -11.25 23.3125 C-12.46256336 29.27426985 -17.2233629 32.49501338 -22 36 C-22.66 36 -23.32 36 -24 36 C-24.226875 36.53625 -24.45375 37.0725 -24.6875 37.625 C-26 40 -26 40 -28.5625 43 C-30.6678113 45.59115237 -31.62904804 46.785083 -32 50 C-32.66 50 -33.32 50 -34 50 C-31.79838288 40.45965913 -24.67440246 34.32581567 -17.0390625 28.82421875 C-14.82390988 26.84246344 -14.27553179 25.91704313 -14 23 C-14.31478446 21.66216607 -14.64587656 20.32796291 -15 19 C-14.67 18.34 -14.34 17.68 -14 17 C-14.66 17 -15.32 17 -16 17 C-16 16.34 -16 15.68 -16 15 C-14.6696875 15.433125 -14.6696875 15.433125 -13.3125 15.875 C-12.219375 15.91625 -11.12625 15.9575 -10 16 C-7.49538143 13.57361788 -7.49538143 13.57361788 -6.1640625 11.61328125 C-5 10 -5 10 -2.75 8 C-0.49792004 5.42619433 -0.30469511 3.35164622 0 0 Z " fill="#939494" transform="translate(116,20)"/>
<path d="M0 0 C2.9375 1.4375 2.9375 1.4375 5 3 C5 3.66 5 4.32 5 5 C-1.38232875 7.00925164 -6.40609458 6.99989549 -13 6 C-13 4.68 -13 3.36 -13 2 C-8.22262755 -0.91303198 -5.43251813 -1.3828228 0 0 Z " fill="#EFEFEF" transform="translate(51,90)"/>
<path d="M0 0 C1.32 0.33 2.64 0.66 4 1 C3.67 3.97 3.34 6.94 3 10 C5.64 10.66 8.28 11.32 11 12 C11 12.66 11 13.32 11 14 C8.23547967 15.38226016 5.9538637 15.09525387 2.875 15.0625 C1.77929688 15.05347656 0.68359375 15.04445313 -0.4453125 15.03515625 C-1.70988281 15.01775391 -1.70988281 15.01775391 -3 15 C-3.33 14.01 -3.66 13.02 -4 12 C-3.33333333 10.66666667 -2.66666667 9.33333333 -2 8 C-1.64456573 5.66993089 -1.3086247 3.33672984 -1 1 C-0.67 0.67 -0.34 0.34 0 0 Z " fill="#232324" transform="translate(89,25)"/>
<path d="M0 0 C0.66 0.33 1.32 0.66 2 1 C2 1.66 2 2.32 2 3 C-1.46153846 6 -1.46153846 6 -4 6 C-3.72382467 7.94074861 -3.72382467 7.94074861 -3 10 C-2.01 10.66 -1.02 11.32 0 12 C0 12.66 0 13.32 0 14 C-3.96 14 -7.92 14 -12 14 C-12.66 15.32 -13.32 16.64 -14 18 C-16.125 19.25 -16.125 19.25 -18 20 C-17.67 19.01 -17.34 18.02 -17 17 C-16.34 16.67 -15.68 16.34 -15 16 C-15 14.35 -15 12.7 -15 11 C-17.475 10.01 -17.475 10.01 -20 9 C-20 8.67 -20 8.34 -20 8 C-15.71 8 -11.42 8 -7 8 C-6.67 7.01 -6.34 6.02 -6 5 C-4.35178756 3.96986723 -2.68496298 2.96885372 -1 2 C-0.67 1.34 -0.34 0.68 0 0 Z " fill="#D1D2D2" transform="translate(78,79)"/>
<path d="M0 0 C0.99 0 1.98 0 3 0 C2.38722388 2.96175123 1.74627478 4.38058783 0 7 C-0.32646651 9.31832548 -0.43961437 11.60403705 -0.55859375 13.94140625 C-1 16 -1 16 -4 18 C-4.73606499 21.56769552 -4.73606499 21.56769552 -5 25 C-6.32 24.34 -7.64 23.68 -9 23 C-8.67 21.35 -8.34 19.7 -8 18 C-7.01 17.67 -6.02 17.34 -5 17 C-5.66 14.03 -6.32 11.06 -7 8 C-3.25 5 -3.25 5 -1 5 C-0.67 3.35 -0.34 1.7 0 0 Z " fill="#4D4E4F" transform="translate(85,65)"/>
<path d="M0 0 C0 0.33 0 0.66 0 1 C-0.90878906 1.05994141 -0.90878906 1.05994141 -1.8359375 1.12109375 C-9.84986842 2.11975283 -14.81288861 5.90514412 -20 12 C-21.5138847 15.08888897 -22.01705481 17.16486316 -22.375 20.625 C-23 24 -23 24 -25.0625 25.9375 C-25.701875 26.288125 -26.34125 26.63875 -27 27 C-26.85304688 26.30390625 -26.70609375 25.6078125 -26.5546875 24.890625 C-26.17917724 22.93374054 -25.87365447 20.96235374 -25.6328125 18.984375 C-24.35307944 10.83345983 -21.82841023 6.44648236 -15.140625 1.546875 C-10.08939773 -0.94104291 -5.48287235 -0.77506572 0 0 Z " fill="#B1B2B2" transform="translate(27,43)"/>
<path d="M0 0 C0 0.66 0 1.32 0 2 C-3 4 -3 4 -6.4375 3.8125 C-10.07754482 3.64391111 -10.07754482 3.64391111 -12.4375 6.0625 C-14.33700198 9.63356371 -14.14532138 12.00366202 -14 16 C-15 18.4375 -15 18.4375 -16 20 C-15.34 20.66 -14.68 21.32 -14 22 C-17.6441774 24.4294516 -19.71241272 24.16179575 -24 24 C-24.66 22.68 -25.32 21.36 -26 20 C-23.69 20.33 -21.38 20.66 -19 21 C-17.89525103 17.39115336 -17.02141908 14.20348122 -16.625 10.4375 C-15.8614569 6.23801293 -14.95547847 4.1032524 -12 1 C-8.02610051 -0.09228341 -4.09236924 0 0 0 Z " fill="#BEBFBF" transform="translate(100,41)"/>
<path d="M0 0 C0.94875 0.04125 1.8975 0.0825 2.875 0.125 C-0.875 2.125 -0.875 2.125 -3.125 2.125 C-3.11339844 3.24777344 -3.10179688 4.37054688 -3.08984375 5.52734375 C-2.93648559 26.34222839 -2.93648559 26.34222839 -6.125 31.125 C-6.125 32.445 -6.125 33.765 -6.125 35.125 C-8.765 35.455 -11.405 35.785 -14.125 36.125 C-14.125 35.465 -14.125 34.805 -14.125 34.125 C-16.105 33.795 -18.085 33.465 -20.125 33.125 C-20.125 32.795 -20.125 32.465 -20.125 32.125 C-19.09439453 32.21201172 -19.09439453 32.21201172 -18.04296875 32.30078125 C-15.32739132 32.43675437 -12.82091297 32.49519807 -10.125 32.125 C-8.04283124 29.7700037 -8.04283124 29.7700037 -7.125 27.125 C-6.465 27.125 -5.805 27.125 -5.125 27.125 C-5.13547363 26.37814941 -5.14594727 25.63129883 -5.15673828 24.86181641 C-5.1982077 21.49124492 -5.22429729 18.120727 -5.25 14.75 C-5.26675781 13.574375 -5.28351562 12.39875 -5.30078125 11.1875 C-5.30722656 10.06601562 -5.31367187 8.94453125 -5.3203125 7.7890625 C-5.33078613 6.75217285 -5.34125977 5.7152832 -5.35205078 4.64697266 C-4.996483 0.697494 -3.87630798 0.15505232 0 0 Z " fill="#B2B3B3" transform="translate(41.125,15.875)"/>
<path d="M0 0 C5.48691927 0.0196195 8.23649157 0.6893814 12.3125 4.3125 C11.9825 4.9725 11.6525 5.6325 11.3125 6.3125 C9.6625 5.6525 8.0125 4.9925 6.3125 4.3125 C6.3125 3.6525 6.3125 2.9925 6.3125 2.3125 C2.6825 2.3125 -0.9475 2.3125 -4.6875 2.3125 C-4.8694081 5.85970786 -4.59256226 8.80427894 -3.625 12.1875 C-1.92331581 19.10133575 -3.05105007 26.30295005 -3.6875 33.3125 C-4.3475 33.3125 -5.0075 33.3125 -5.6875 33.3125 C-5.66429687 32.26191406 -5.64109375 31.21132813 -5.6171875 30.12890625 C-5.51286672 23.23469881 -5.47878061 16.91412184 -7.3046875 10.21484375 C-7.94335537 7.04105546 -7.40593135 4.44747318 -6.6875 1.3125 C-4.90677258 -0.46822742 -2.41106123 0.05634706 0 0 Z " fill="#949595" transform="translate(35.6875,7.6875)"/>
<path d="M0 0 C0.66 1.32 1.32 2.64 2 4 C1.01 4.33 0.02 4.66 -1 5 C-1 6.32 -1 7.64 -1 9 C1.31 9.33 3.62 9.66 6 10 C6.33 10.99 6.66 11.98 7 13 C3.7 13 0.4 13 -3 13 C-3 11.68 -3 10.36 -3 9 C-4.65 8.67 -6.3 8.34 -8 8 C-7.6641593 4.89347355 -7.40950721 3.39585697 -5.125 1.1875 C-3 0 -3 0 0 0 Z " fill="#4B4B4C" transform="translate(8,66)"/>
<path d="M0 0 C4.75 0.875 4.75 0.875 7 2 C7 3.65 7 5.3 7 7 C6.67 5.68 6.34 4.36 6 3 C4.68 3 3.36 3 2 3 C1.67 5.31 1.34 7.62 1 10 C0.34 10 -0.32 10 -1 10 C-1.144375 11.299375 -1.28875 12.59875 -1.4375 13.9375 C-1.875 17.875 -1.875 17.875 -3 19 C-4.27875 19.0825 -5.5575 19.165 -6.875 19.25 C-9.8652183 19.62511699 -10.73851158 19.75485461 -13 21.875 C-14.25099949 25.78437341 -14.17964673 29.20305091 -14.0078125 33.28125 C-14.00000011 35.99996242 -14.37836164 38.36042787 -15 41 C-15.33 41 -15.66 41 -16 41 C-16.10861833 38.29057607 -16.18758577 35.585561 -16.25 32.875 C-16.30027344 31.73417969 -16.30027344 31.73417969 -16.3515625 30.5703125 C-16.44289525 25.2730129 -15.71980362 22.07649711 -12 18 C-9.640625 17.1953125 -9.640625 17.1953125 -7.25 17.125 C-6.05117188 17.06699219 -6.05117188 17.06699219 -4.828125 17.0078125 C-3.92320313 17.00394531 -3.92320313 17.00394531 -3 17 C-3.04125 15.906875 -3.0825 14.81375 -3.125 13.6875 C-3 10 -3 10 -1 7 C-0.60612212 4.67612053 -0.26513915 2.34206251 0 0 Z " fill="#D3D4D4" transform="translate(61,14)"/>
<path d="M0 0 C0 0.33 0 0.66 0 1 C-9.9 2.485 -9.9 2.485 -20 4 C-16.99221479 5.00259507 -14.46179353 5.30314642 -11.3125 5.5625 C-10.31863281 5.64628906 -9.32476562 5.73007813 -8.30078125 5.81640625 C-7.16189453 5.90728516 -7.16189453 5.90728516 -6 6 C-6 6.33 -6 6.66 -6 7 C-6.62567871 6.99476318 -7.25135742 6.98952637 -7.89599609 6.98413086 C-10.72232057 6.96338382 -13.54862905 6.95034714 -16.375 6.9375 C-17.35984375 6.92912109 -18.3446875 6.92074219 -19.359375 6.91210938 C-20.30039062 6.90888672 -21.24140625 6.90566406 -22.2109375 6.90234375 C-23.08024902 6.89710693 -23.94956055 6.89187012 -24.84521484 6.88647461 C-27.05049994 6.85877649 -27.05049994 6.85877649 -29 8 C-28.814375 7.21625 -28.62875 6.4325 -28.4375 5.625 C-27.74037734 3.02910225 -27.74037734 3.02910225 -29 1 C-25.66682397 0.83008756 -22.33343885 0.66466921 -19 0.5 C-18.06542969 0.45230469 -17.13085938 0.40460938 -16.16796875 0.35546875 C-10.77043673 0.0912539 -5.40391896 -0.05098037 0 0 Z " fill="#D3D4D4" transform="translate(55,70)"/>
<path d="M0 0 C-0.99 2.64 -1.98 5.28 -3 8 C-4.98 8 -6.96 8 -9 8 C-9 9.32 -9 10.64 -9 12 C-6.03 12.495 -6.03 12.495 -3 13 C-3 13.66 -3 14.32 -3 15 C-5.64 14.34 -8.28 13.68 -11 13 C-11.94342065 9.33114193 -12.45980703 6.55827964 -11 3 C-7.12225319 -0.22636677 -5.00748396 -1.25187099 0 0 Z " fill="#535455" transform="translate(103,22)"/>
<path d="M0 0 C1.32 0.66 2.64 1.32 4 2 C1.62624557 4.74855776 -0.66357897 5.6829917 -4 7 C-4.33 7.66 -4.66 8.32 -5 9 C-5.66 9 -6.32 9 -7 9 C-7.103125 9.721875 -7.20625 10.44375 -7.3125 11.1875 C-8.07674981 14.31397652 -9.26229078 16.29689676 -11 19 C-11.73545487 20.26720461 -12.46444491 21.5381795 -13.1875 22.8125 C-13.785625 23.864375 -14.38375 24.91625 -15 26 C-15.75 24.4375 -15.75 24.4375 -16 22 C-14.86915563 19.49713591 -13.47860484 17.32992278 -12 15 C-12.66 14.67 -13.32 14.34 -14 14 C-10.05708355 8.1154959 -5.8845041 3.94291645 0 0 Z " fill="#555657" transform="translate(100,50)"/>
<path d="M0 0 C0.495 1.485 0.495 1.485 1 3 C-2.34157593 8.96867016 -6.69296713 13.4096115 -13 16 C-16.9375 16.25 -16.9375 16.25 -20 16 C-20 16.66 -20 17.32 -20 18 C-21.98 18.99 -21.98 18.99 -24 20 C-24 19.34 -24 18.68 -24 18 C-24.7425 17.896875 -25.485 17.79375 -26.25 17.6875 C-29.2748021 16.93129947 -30.80017942 16.19982058 -33 14 C-33.75 11.3125 -33.75 11.3125 -34 9 C-31 10 -31 10 -30 11.9375 C-29.67 12.618125 -29.34 13.29875 -29 14 C-26.27034218 16.28369219 -26.27034218 16.28369219 -23.65625 15.7421875 C-20.88997542 14.96925784 -18.20062542 14.10359742 -15.5 13.125 C-14.5821875 12.79757813 -13.664375 12.47015625 -12.71875 12.1328125 C-7.48197776 9.95082406 -4.65585983 8.05878063 -2 3 C-1.34 2.01 -0.68 1.02 0 0 Z " fill="#929393" transform="translate(107,9)"/>
<path d="M0 0 C1.875 0.1875 1.875 0.1875 4 1 C5.68644932 3.89105597 6.06919665 5.48102512 5.625 8.8125 C5.41875 9.534375 5.2125 10.25625 5 11 C1.7 11 -1.6 11 -5 11 C-5 9.35 -5 7.7 -5 6 C-4.01 5.34 -3.02 4.68 -2 4 C-0.80767387 1.94996045 -0.80767387 1.94996045 0 0 Z " fill="#ECECEC" transform="translate(65,45)"/>
<path d="M0 0 C0.33 1.32 0.66 2.64 1 4 C-2.63855601 5.819278 -7.03560251 4.89246628 -11.03125 4.7421875 C-12.50078125 4.86980469 -12.50078125 4.86980469 -14 5 C-14.99 6.485 -14.99 6.485 -16 8 C-16.66 8 -17.32 8 -18 8 C-17.88512252 9.58409994 -17.75765492 11.16728963 -17.625 12.75 C-17.55539063 13.63171875 -17.48578125 14.5134375 -17.4140625 15.421875 C-17.00149945 17.99066382 -16.28839043 19.75841015 -15 22 C-15.66 22.99 -16.32 23.98 -17 25 C-17.30066154 27.75417318 -17.50925299 30.42645147 -17.625 33.1875 C-17.66367187 33.93708984 -17.70234375 34.68667969 -17.7421875 35.45898438 C-17.83628216 37.30559199 -17.91922319 39.1527619 -18 41 C-18.33 41 -18.66 41 -19 41 C-18.99476318 40.3387915 -18.98952637 39.67758301 -18.98413086 38.99633789 C-18.96342344 36.01840149 -18.95035988 33.04048018 -18.9375 30.0625 C-18.92912109 29.02158203 -18.92074219 27.98066406 -18.91210938 26.90820312 C-18.90888672 25.91884766 -18.90566406 24.92949219 -18.90234375 23.91015625 C-18.89710693 22.99371338 -18.89187012 22.07727051 -18.88647461 21.13305664 C-18.76078789 19.01636977 -18.76078789 19.01636977 -20 18 C-20.09823996 16.52351124 -20.12973519 15.04224583 -20.125 13.5625 C-20.12757812 12.75941406 -20.13015625 11.95632812 -20.1328125 11.12890625 C-20 9 -20 9 -19 7 C-18.34 7 -17.68 7 -17 7 C-16.34 5.68 -15.68 4.36 -15 3 C-10.05 3 -5.1 3 0 3 C0 2.01 0 1.02 0 0 Z " fill="#797A7A" transform="translate(43,53)"/>
<path d="M0 0 C0.33 0 0.66 0 1 0 C1.03738281 0.72445313 1.07476562 1.44890625 1.11328125 2.1953125 C1.56089418 10.06236102 1.56089418 10.06236102 5 17 C8.06361777 18.43968727 8.06361777 18.43968727 11 19 C11 19.99 11 20.98 11 22 C5.99088137 20.74772034 3.98782244 19.16160983 1 15 C0.34 14.67 -0.32 14.34 -1 14 C-1 15.98 -1 17.96 -1 20 C-1.33 18.68 -1.66 17.36 -2 16 C-6.2742558 17.5830577 -8.26531794 20.50568404 -11 24 C-11.66 23.67 -12.32 23.34 -13 23 C-11.94643208 21.72175189 -10.88167217 20.45272507 -9.8125 19.1875 C-9.22082031 18.47980469 -8.62914063 17.77210937 -8.01953125 17.04296875 C-6 15 -6 15 -3.3125 13.625 C-0.70150513 12.17010842 -0.70150513 12.17010842 -0.29296875 9.08203125 C-0.25816406 8.00308594 -0.22335938 6.92414062 -0.1875 5.8125 C-0.11595703 4.18248047 -0.11595703 4.18248047 -0.04296875 2.51953125 C-0.02169922 1.27236328 -0.02169922 1.27236328 0 0 Z " fill="#A3A4A4" transform="translate(117,0)"/>
<path d="M0 0 C2 1.4375 2 1.4375 3 3 C3 3.66 3 4.32 3 5 C-0.3 5.33 -3.6 5.66 -7 6 C-7 6.66 -7 7.32 -7 8 C-7.99 7.67 -8.98 7.34 -10 7 C-11.30508475 2.61016949 -11.30508475 2.61016949 -10.0625 0.125 C-6.73162084 -1.69184318 -3.56800363 -0.98863434 0 0 Z " fill="#242425" transform="translate(42,10)"/>
<path d="M0 0 C1.32 0 2.64 0 4 0 C3.67 1.32 3.34 2.64 3 4 C1.68 4 0.36 4 -1 4 C-0.88693303 5.95894361 -0.88693303 5.95894361 0 8 C2.49034386 9.29660434 2.49034386 9.29660434 5 10 C4.67 10.66 4.34 11.32 4 12 C-3.50769231 12.36923077 -3.50769231 12.36923077 -6 10.5 C-6.33 10.005 -6.66 9.51 -7 9 C-6.67 8.34 -6.34 7.68 -6 7 C-5.34 7 -4.68 7 -4 7 C-4 6.01 -4 5.02 -4 4 C-3.34 4 -2.68 4 -2 4 C-1.34 2.68 -0.68 1.36 0 0 Z " fill="#424344" transform="translate(37,88)"/>
<path d="M0 0 C0.99 0.33 1.98 0.66 3 1 C2.34 1 1.68 1 1 1 C1.25561323 3.3431213 1.59270772 5.67843403 2 8 C2.66 8.33 3.32 8.66 4 9 C4 15.6 4 22.2 4 29 C3.01 29.33 2.02 29.66 1 30 C1.02320313 29.09378906 1.04640625 28.18757813 1.0703125 27.25390625 C1.16473918 20.88010537 1.07310163 15.07930831 -0.55078125 8.90625 C-1.18025029 6.23511183 -1.204442 3.72589337 -1 1 C-0.67 0.67 -0.34 0.34 0 0 Z " fill="#4E4F50" transform="translate(31,9)"/>
<path d="M0 0 C0.33 0 0.66 0 1 0 C1.33 8.25 1.66 16.5 2 25 C1.67 24.34 1.34 23.68 1 23 C0.34 23 -0.32 23 -1 23 C-2.41000419 20.17999162 -2.37608381 17.40642297 -2.62109375 14.2890625 C-3.02249448 11.86410551 -3.79862685 10.1303702 -5 8 C-4.01 8.33 -3.02 8.66 -2 9 C-1.34 6.03 -0.68 3.06 0 0 Z " fill="#595A5A" transform="translate(23,78)"/>
<path d="M0 0 C0.66 0 1.32 0 2 0 C3.34297812 7.44742414 3.34297812 7.44742414 1.875 9.8125 C-0.39290286 11.24883848 -2.69811987 12.61887192 -5 14 C-6.75149165 15.58245275 -6.75149165 15.58245275 -8 17 C-8 15.35 -8 13.7 -8 12 C-7.38125 11.79375 -6.7625 11.5875 -6.125 11.375 C-3.12978747 9.43692131 -2.94315083 7.36839582 -2 4 C-1.36184656 2.65278717 -0.70674629 1.31252882 0 0 Z " fill="#262627" transform="translate(113,2)"/>
<path d="M0 0 C0.99 0 1.98 0 3 0 C4.60546875 2.1171875 4.60546875 2.1171875 6.1875 4.875 C6.71730469 5.77992188 7.24710938 6.68484375 7.79296875 7.6171875 C9 10 9 10 9 12 C8.34 12 7.68 12 7 12 C5.94228261 10.36935236 4.94726954 8.69719127 4 7 C2.27773504 3.75150023 2.27773504 3.75150023 -1 3 C-1 5.64 -1 8.28 -1 11 C-1.639375 11.268125 -2.27875 11.53625 -2.9375 11.8125 C-5.33131686 12.88667752 -5.33131686 12.88667752 -6 16 C-8.31 15.67 -10.62 15.34 -13 15 C-12.67 14.34 -12.34 13.68 -12 13 C-11.2575 13.061875 -10.515 13.12375 -9.75 13.1875 C-6.35919663 12.95630886 -5.24360369 12.56411851 -3 10 C-2.44543187 7.34133516 -2.25815753 4.71065405 -2 2 C-1.34 1.34 -0.68 0.68 0 0 Z " fill="#929393" transform="translate(61,1)"/>
<path d="M0 0 C0.99 0.33 1.98 0.66 3 1 C2.34 1 1.68 1 1 1 C1 1.66 1 2.32 1 3 C1.94875 2.814375 2.8975 2.62875 3.875 2.4375 C7 2 7 2 9 3 C9.75 4.9375 9.75 4.9375 10 7 C7.58513057 9.41486943 6.87292211 9.2961925 3.5625 9.3125 C2.38880859 9.33763672 2.38880859 9.33763672 1.19140625 9.36328125 C-1.50332946 8.91656036 -2.19983091 7.98068744 -4 6 C-4.99 5.67 -5.98 5.34 -7 5 C-7 4.01 -7 3.02 -7 2 C-4.525 2.495 -4.525 2.495 -2 3 C-2 4.32 -2 5.64 -2 7 C1.3 7 4.6 7 8 7 C7.67 6.34 7.34 5.68 7 5 C4.67843403 4.59270772 2.3431213 4.25561323 0 4 C0 2.68 0 1.36 0 0 Z " fill="#6F7070" transform="translate(7,72)"/>
<path d="M0 0 C0.928125 0.5259375 0.928125 0.5259375 1.875 1.0625 C2.57625 1.371875 3.2775 1.68125 4 2 C4.66 1.67 5.32 1.34 6 1 C6 1.99 6 2.98 6 4 C6.66 4.66 7.32 5.32 8 6 C6.35 6 4.7 6 3 6 C3 8.97 3 11.94 3 15 C2.01 15 1.02 15 0 15 C-1.2063366 9.77254141 -0.75612577 5.23471686 0 0 Z " fill="#626363" transform="translate(25,94)"/>
<path d="M0 0 C2.22972273 0.11465421 4.45878753 0.24214766 6.6875 0.375 C7.92886719 0.44460937 9.17023437 0.51421875 10.44921875 0.5859375 C13.69317772 0.96422094 16.06567185 1.61979976 19 3 C19 3.33 19 3.66 19 4 C12.73 4 6.46 4 0 4 C0 2.68 0 1.36 0 0 Z " fill="#3B3B3C" transform="translate(45,124)"/>
<path d="M0 0 C-1.33530634 3.00611679 -2.71071431 5.61663407 -5 8 C-8.10352525 8.70581845 -10.87228538 8.4906219 -14 8 C-13.195625 7.401875 -12.39125 6.80375 -11.5625 6.1875 C-8.77672016 4.19052724 -8.77672016 4.19052724 -8 1 C-4.68510482 -0.74468167 -3.63361056 -1.21120352 0 0 Z " fill="#4D4E4F" transform="translate(79,120)"/>
<path d="M0 0 C0.33 0.99 0.66 1.98 1 3 C1.99 3.33 2.98 3.66 4 4 C4 7.96 4 11.92 4 16 C2.68 15.34 1.36 14.68 0 14 C-0.609375 12.16015625 -0.609375 12.16015625 -0.75 10.0625 C-0.83507812 9.02802734 -0.83507812 9.02802734 -0.921875 7.97265625 C-1.04125376 4.95834246 -0.96727732 2.90183197 0 0 Z " fill="#A6A7A7" transform="translate(15,61)"/>
<path d="M0 0 C3.39608504 1.45546502 5.40860299 3.40860299 8 6 C10.13309192 7.23512079 10.13309192 7.23512079 12 8 C11.67 8.99 11.34 9.98 11 11 C10.071875 10.649375 9.14375 10.29875 8.1875 9.9375 C5.0197047 8.67617372 5.0197047 8.67617372 2 10 C-0.09350689 6.5980513 -0.17942163 3.94727588 0 0 Z " fill="#575859" transform="translate(116,14)"/>
<path d="M0 0 C0.66 0.33 1.32 0.66 2 1 C1.35455571 4.48539917 -0.10134397 7.02819057 -2 10 C-2.66 9.67 -3.32 9.34 -4 9 C-3.67 8.01 -3.34 7.02 -3 6 C-3.61488281 6.20496094 -4.22976562 6.40992187 -4.86328125 6.62109375 C-8.2421875 7.74739583 -11.62109375 8.87369792 -15 10 C-15.99 9.01 -16.98 8.02 -18 7 C-13.71 6.34 -9.42 5.68 -5 5 C-5.33 4.01 -5.66 3.02 -6 2 C-3.525 2.99 -3.525 2.99 -1 4 C-0.67 2.68 -0.34 1.36 0 0 Z " fill="#878888" transform="translate(61,90)"/>
<path d="M0 0 C0.66 0.33 1.32 0.66 2 1 C1.938125 1.86625 1.87625 2.7325 1.8125 3.625 C2.02494244 7.44896392 3.2774963 9.62988406 5 13 C4.67 13.99 4.34 14.98 4 16 C1.5625 15.125 1.5625 15.125 -1 13 C-1.89552596 9.67535986 -2.22038392 6.43572882 -2 3 C-1.34 2.01 -0.68 1.02 0 0 Z " fill="#232324" transform="translate(66,30)"/>
<path d="M0 0 C-0.33 0.99 -0.66 1.98 -1 3 C-6.23471686 3.75612577 -10.77254141 4.2063366 -16 3 C-16 2.34 -16 1.68 -16 1 C-14.0852312 0.63571223 -12.16807707 0.28394694 -10.25 -0.0625 C-9.18265625 -0.25972656 -8.1153125 -0.45695312 -7.015625 -0.66015625 C-4.25228095 -0.97156937 -2.59053383 -0.8991416 0 0 Z " fill="#787979" transform="translate(60,72)"/>
<path d="M0 0 C-0.99 0.66 -1.98 1.32 -3 2 C-3.25030977 4.58380177 -3.25030977 4.58380177 -3 7 C-5.31 6.67 -7.62 6.34 -10 6 C-10.495 3.525 -10.495 3.525 -11 1 C-9.5437328 0.63743142 -8.08488815 0.28520207 -6.625 -0.0625 C-5.40683594 -0.35833984 -5.40683594 -0.35833984 -4.1640625 -0.66015625 C-2 -1 -2 -1 0 0 Z " fill="#C2C3C3" transform="translate(82,71)"/>
<path d="M0 0 C2 2 2 2 3 5 C5.49759982 6.69882448 5.49759982 6.69882448 8 8 C6.02 8.99 6.02 8.99 4 10 C4 13.3 4 16.6 4 20 C1 17 1 17 0.75 13.5 C1 10 1 10 2 7 C0.35 7 -1.3 7 -3 7 C-2.67 6.34 -2.34 5.68 -2 5 C-1.01 5 -0.02 5 1 5 C0.505 2.525 0.505 2.525 0 0 Z " fill="#B1B2B2" transform="translate(68,21)"/>
<path d="M0 0 C3.953125 3.6875 3.953125 3.6875 4.375 6.5 C3.98450802 9.10327986 3.16834523 10.66330954 2 13 C1.61250787 15.32495277 1.27017161 17.65851268 1 20 C0.01 19.01 -0.98 18.02 -2 17 C-1.67 16.67 -1.34 16.34 -1 16 C-0.76321284 13.30764224 -0.57801975 10.63501844 -0.4375 7.9375 C-0.39431641 7.17888672 -0.35113281 6.42027344 -0.30664062 5.63867188 C-0.20026367 3.75934562 -0.09960066 1.87969756 0 0 Z " fill="#272728" transform="translate(21,68)"/>
<path d="M0 0 C0 3 0 3 -2.4375 5.5 C-5.72321006 9.14365055 -5.55984823 12.77026775 -5.56640625 17.51171875 C-6 20 -6 20 -8.02734375 21.83203125 C-8.67832031 22.21746094 -9.32929688 22.60289063 -10 23 C-9.85949219 22.3090625 -9.71898437 21.618125 -9.57421875 20.90625 C-9.17591838 18.8903624 -8.80541063 16.86886181 -8.45703125 14.84375 C-6.50330176 4.70803823 -6.50330176 4.70803823 -2.8125 1.6875 C-1.884375 1.130625 -0.95625 0.57375 0 0 Z " fill="#C6C7C7" transform="translate(10,47)"/>
<path d="M0 0 C0.33 0 0.66 0 1 0 C3.26404184 8.91466476 3.26404184 16.08533524 1 25 C0.67 25 0.34 25 0 25 C0 16.75 0 8.5 0 0 Z " fill="#929393" transform="translate(84,90)"/>
<path d="M0 0 C1.1663562 2.3327124 1.52307621 4.43653465 2 7 C2.185625 7.928125 2.37125 8.85625 2.5625 9.8125 C2.7790625 10.8953125 2.7790625 10.8953125 3 12 C2.01 12 1.02 12 0 12 C-0.33 11.34 -0.66 10.68 -1 10 C-1.804375 9.690625 -2.60875 9.38125 -3.4375 9.0625 C-6 8 -6 8 -8 5 C-7.67 4.34 -7.34 3.68 -7 3 C-6.34 3 -5.68 3 -5 3 C-4.67 3.99 -4.34 4.98 -4 6 C-3.34 6.33 -2.68 6.66 -2 7 C-1.34 4.69 -0.68 2.38 0 0 Z " fill="#626363" transform="translate(81,82)"/>
<path d="M0 0 C0.66 0.33 1.32 0.66 2 1 C1.67386719 1.51949219 1.34773438 2.03898437 1.01171875 2.57421875 C0.10889914 4.01500166 -0.79071072 5.45779966 -1.6875 6.90234375 C-2.70726178 8.5321416 -3.75450125 10.14476052 -4.8125 11.75 C-6.31117241 14.16556624 -6.31117241 14.16556624 -6 18 C-5.67 18.99 -5.34 19.98 -5 21 C-8 20 -8 20 -9.4375 17.8125 C-10 15 -10 15 -8.375 12.125 C-7.59125 11.09375 -6.8075 10.0625 -6 9 C-5.27380945 7.76028899 -4.56518539 6.5101112 -3.875 5.25 C-2 2 -2 2 0 0 Z " fill="#8D8E8E" transform="translate(60,42)"/>
<path d="M0 0 C3.3 0 6.6 0 10 0 C10 0.33 10 0.66 10 1 C8.1128125 1.12375 8.1128125 1.12375 6.1875 1.25 C2.74011551 1.6687991 2.74011551 1.6687991 0.0625 3.875 C-1.11048543 6.09575404 -1.11048543 6.09575404 -2 9 C-2.99 9.495 -2.99 9.495 -4 10 C-6.28003407 13.28324906 -7.43518386 16.04628701 -8 20 C-8.33 20 -8.66 20 -9 20 C-9.4420495 15.57950505 -9.46520397 13.62027196 -6.75 10 C-6.29753906 9.52304687 -5.84507813 9.04609375 -5.37890625 8.5546875 C-3.09380449 5.97828382 -1.63144392 3.02119245 0 0 Z " fill="#C3C4C4" transform="translate(118,28)"/>
<path d="M0 0 C0.99 0 1.98 0 3 0 C2.38722388 2.96175123 1.74627478 4.38058783 0 7 C-0.33 8.03125 -0.66 9.0625 -1 10.125 C-2 13 -2 13 -4 14 C-4.80967438 11.08517222 -5.21845993 9.53886783 -4.0625 6.6875 C-3.711875 6.130625 -3.36125 5.57375 -3 5 C-2.34 5 -1.68 5 -1 5 C-0.67 3.35 -0.34 1.7 0 0 Z " fill="#39393A" transform="translate(85,65)"/>
<path d="M0 0 C2 3 2 3 1.6875 5.5 C1.17901328 7.34904262 0.60642538 9.18072387 0 11 C0.66 11.66 1.32 12.32 2 13 C-1.6441774 15.4294516 -3.71241272 15.16179575 -8 15 C-8.66 13.68 -9.32 12.36 -10 11 C-7.69 11.33 -5.38 11.66 -3 12 C-2.01 8.04 -1.02 4.08 0 0 Z " fill="#D3D4D4" transform="translate(84,50)"/>
<path d="M0 0 C0.66 1.32 1.32 2.64 2 4 C5.3 3.34 8.6 2.68 12 2 C10.74458443 4.51083114 9.49936512 4.87125446 7 6 C7.33 7.65 7.66 9.3 8 11 C6.125 10.75 6.125 10.75 4 10 C2.875 8 2.875 8 2 6 C1.34 5.67 0.68 5.34 0 5 C0 3.35 0 1.7 0 0 Z " fill="#A0A1A1" transform="translate(72,41)"/>
<path d="M0 0 C-1.01903073 2.77917472 -1.73056128 3.8397932 -4.3125 5.375 C-7.70729306 6.16448676 -8.82789054 5.36977454 -12 4 C-14.98884708 3.53126007 -17.98561505 3.24955692 -21 3 C-21 2.67 -21 2.34 -21 2 C-19.19402344 1.90912109 -19.19402344 1.90912109 -17.3515625 1.81640625 C-15.77602923 1.73200268 -14.20050904 1.64735459 -12.625 1.5625 C-11.8309375 1.52318359 -11.036875 1.48386719 -10.21875 1.44335938 C-6.68012647 1.2484352 -3.35189233 0 0 0 Z " fill="#7A7B7B" transform="translate(71,122)"/>
<path d="M0 0 C0.99 0.33 1.98 0.66 3 1 C2.98839844 1.71027344 2.97679687 2.42054687 2.96484375 3.15234375 C2.95582031 4.07144531 2.94679688 4.99054688 2.9375 5.9375 C2.92589844 6.85402344 2.91429687 7.77054687 2.90234375 8.71484375 C2.74050951 10.96593327 2.74050951 10.96593327 4 12 C4.07226502 13.85287502 4.0838122 15.70833878 4.0625 17.5625 C4.05347656 18.57441406 4.04445313 19.58632812 4.03515625 20.62890625 C4.02355469 21.41136719 4.01195312 22.19382812 4 23 C3.67 23 3.34 23 3 23 C2.95101563 22.30132812 2.90203125 21.60265625 2.8515625 20.8828125 C2.77679687 19.97273438 2.70203125 19.06265625 2.625 18.125 C2.52058594 16.76761719 2.52058594 16.76761719 2.4140625 15.3828125 C2.20431868 12.82058097 2.20431868 12.82058097 0 11 C0 9.68 0 8.36 0 7 C-0.99 6.34 -1.98 5.68 -3 5 C-2.505 4.54625 -2.01 4.0925 -1.5 3.625 C0.22609337 2.12364481 0.22609337 2.12364481 0 0 Z " fill="#9FA0A0" transform="translate(16,76)"/>
<path d="M0 0 C0.99 0.66 1.98 1.32 3 2 C3.6875 5.625 3.6875 5.625 4 9 C3.34 9 2.68 9 2 9 C3.39332574 12.36720387 4.9789286 13.9859524 8 16 C4.62537285 15.45276317 2.91765 14.9451 0 13 C-1.1875 9.375 -1.1875 9.375 -2 6 C-0.02 6.99 -0.02 6.99 2 8 C1.34 5.36 0.68 2.72 0 0 Z " fill="#6B6C6C" transform="translate(70,13)"/>
<path d="M0 0 C0.33 0 0.66 0 1 0 C3.85714286 9.28571429 3.85714286 9.28571429 2 13 C1.7677354 15.71262116 1.58063765 18.40773126 1.4375 21.125 C1.39431641 21.87910156 1.35113281 22.63320312 1.30664062 23.41015625 C1.2005168 25.27321888 1.09974999 27.13658524 1 29 C0.67 29 0.34 29 0 29 C0 19.43 0 9.86 0 0 Z " fill="#9C9D9D" transform="translate(24,65)"/>
<path d="M0 0 C2.97 0.495 2.97 0.495 6 1 C6 2.32 6 3.64 6 5 C3.04335481 6.4783226 0.25770263 6.06032783 -3 6 C-3 5.34 -3 4.68 -3 4 C-2.01 3.67 -1.02 3.34 0 3 C0 2.01 0 1.02 0 0 Z " fill="#C1C2C2" transform="translate(59,71)"/>
<path d="M0 0 C0.99 0.33 1.98 0.66 3 1 C0.375 6.75 0.375 6.75 -3 9 C-2.34 9.66 -1.68 10.32 -1 11 C-3.97 10.505 -3.97 10.505 -7 10 C-7.33 8.68 -7.66 7.36 -8 6 C-4.86650268 4.95550089 -4.01031744 5.06576355 -1 6 C-0.67 4.02 -0.34 2.04 0 0 Z " fill="#A2A3A3" transform="translate(101,24)"/>
<path d="M0 0 C0.99 0 1.98 0 3 0 C5.27837542 2.27837542 5.96646289 3.50812237 6.1875 6.75 C6.125625 7.4925 6.06375 8.235 6 9 C4.02 8.01 2.04 7.02 0 6 C0 4.02 0 2.04 0 0 Z " fill="#242425" transform="translate(61,5)"/>
<path d="M0 0 C0.33 0 0.66 0 1 0 C1 4.29 1 8.58 1 13 C0.01 13 -0.98 13 -2 13 C-2.05416188 11.39620659 -2.09286638 9.79188594 -2.125 8.1875 C-2.14820313 7.29417969 -2.17140625 6.40085937 -2.1953125 5.48046875 C-2 3 -2 3 0 0 Z " fill="#7A7B7B" transform="translate(43,36)"/>
<path d="M0 0 C2.64 0 5.28 0 8 0 C8 0.66 8 1.32 8 2 C6.02 2 4.04 2 2 2 C2 3.32 2 4.64 2 6 C4.97 6.495 4.97 6.495 8 7 C8 7.66 8 8.32 8 9 C5.36 8.34 2.72 7.68 0 7 C-1.125 2.25 -1.125 2.25 0 0 Z " fill="#68696A" transform="translate(92,28)"/>
<path d="M0 0 C0.99 0.33 1.98 0.66 3 1 C3 1.66 3 2.32 3 3 C3.99 3.33 4.98 3.66 6 4 C5.34 4 4.68 4 4 4 C3.67 4.99 3.34 5.98 3 7 C2.46375 6.505 1.9275 6.01 1.375 5.5 C-1.63751037 3.59736187 -3.492309 3.70147311 -7 4 C-7.99 4.33 -8.98 4.66 -10 5 C-10 4.34 -10 3.68 -10 3 C-6.78548731 1.39274365 -3.56387464 1.94251815 0 2 C0 1.34 0 0.68 0 0 Z " fill="#5E5F60" transform="translate(45,13)"/>
<path d="M0 0 C0.66 0.33 1.32 0.66 2 1 C1.01 2.485 1.01 2.485 0 4 C4.62 4 9.24 4 14 4 C14 4.33 14 4.66 14 5 C2.47835991 6.51708428 2.47835991 6.51708428 -3 4 C-2.67 3.01 -2.34 2.02 -2 1 C-1.34 0.67 -0.68 0.34 0 0 Z " fill="#C9CACA" transform="translate(40,91)"/>
<path d="M0 0 C2.64 0.33 5.28 0.66 8 1 C8.33 2.32 8.66 3.64 9 5 C8.01 5.66 7.02 6.32 6 7 C4 5.625 4 5.625 2 4 C2 3.34 2 2.68 2 2 C1.34 2 0.68 2 0 2 C0 1.34 0 0.68 0 0 Z " fill="#535455" transform="translate(53,88)"/>
<path d="M0 0 C0.66 0.33 1.32 0.66 2 1 C2 1.66 2 2.32 2 3 C-1.46153846 6 -1.46153846 6 -4 6 C-3.49396008 8.16874252 -3.00016187 9.99967627 -2 12 C-3.98 12 -5.96 12 -8 12 C-6.49087042 7.01987239 -3.44338151 3.75740058 0 0 Z " fill="#9D9E9E" transform="translate(78,79)"/>
<path d="M0 0 C1.79187629 0.81203758 3.58349451 1.62464468 5.375 2.4375 C6.37273438 2.88996094 7.37046875 3.34242187 8.3984375 3.80859375 C9.94307583 4.51597316 11.48044922 5.24022461 13 6 C13 6.66 13 7.32 13 8 C8.00786149 7.53198701 3.87036007 5.08284263 0 2 C0 1.34 0 0.68 0 0 Z " fill="#8F9090" transform="translate(36,116)"/>
<path d="M0 0 C0.66 0 1.32 0 2 0 C2 0.99 2 1.98 2 3 C4.64 2.67 7.28 2.34 10 2 C10 2.99 10 3.98 10 5 C2.49230769 5.36923077 2.49230769 5.36923077 0 3.5 C-0.33 3.005 -0.66 2.51 -1 2 C-0.67 1.34 -0.34 0.68 0 0 Z " fill="#616262" transform="translate(31,95)"/>
<path d="M0 0 C2.02045442 0.60183749 4.02111039 1.27306096 6 2 C6.33 2.66 6.66 3.32 7 4 C3.7 4.33 0.4 4.66 -3 5 C-1 1 -1 1 0 0 Z " fill="#232324" transform="translate(121,22)"/>
<path d="M0 0 C2.475 0.495 2.475 0.495 5 1 C5 2.32 5 3.64 5 5 C7.31 5.33 9.62 5.66 12 6 C12 6.33 12 6.66 12 7 C6.43548387 7.37096774 6.43548387 7.37096774 4.3125 5.5625 C3.879375 5.046875 3.44625 4.53125 3 4 C2.01 3.67 1.02 3.34 0 3 C0 2.01 0 1.02 0 0 Z " fill="#909191" transform="translate(0,74)"/>
<path d="M0 0 C1.32 0.33 2.64 0.66 4 1 C4 1.66 4 2.32 4 3 C4.66 3.33 5.32 3.66 6 4 C5.34 6.31 4.68 8.62 4 11 C2.4375 9.3125 2.4375 9.3125 1 7 C1.3125 4.25 1.3125 4.25 2 2 C1.34 2 0.68 2 0 2 C0 1.34 0 0.68 0 0 Z " fill="#878888" transform="translate(100,35)"/>
<path d="M0 0 C6.69286912 -0.47617251 10.77531236 -0.39973696 16 4 C15.67 4.66 15.34 5.32 15 6 C12.525 5.01 12.525 5.01 10 4 C10 3.34 10 2.68 10 2 C6.7 1.67 3.4 1.34 0 1 C0 0.67 0 0.34 0 0 Z " fill="#7D7E7E" transform="translate(32,8)"/>
<path d="M0 0 C0.99 0.33 1.98 0.66 3 1 C2.34 1 1.68 1 1 1 C1.18415432 3.94091587 1.18415432 3.94091587 2 7 C3.95163118 8.43637698 3.95163118 8.43637698 6 9 C6 9.66 6 10.32 6 11 C4.35 10.67 2.7 10.34 1 10 C0.67 10.66 0.34 11.32 0 12 C-1.53166168 7.91556885 -0.63081652 4.20544343 0 0 Z " fill="#626364" transform="translate(60,4)"/>
<path d="M0 0 C1.98 0.99 1.98 0.99 4 2 C4.66 1.67 5.32 1.34 6 1 C6 1.99 6 2.98 6 4 C6.66 4.66 7.32 5.32 8 6 C6.35 6 4.7 6 3 6 C2.67 7.32 2.34 8.64 2 10 C1.01 5.05 1.01 5.05 0 0 Z " fill="#A6A7A7" transform="translate(25,94)"/>
<path d="M0 0 C1.65 0.33 3.3 0.66 5 1 C5.33 2.65 5.66 4.3 6 6 C3.69 5.67 1.38 5.34 -1 5 C-0.34 4.01 0.32 3.02 1 2 C0.67 1.34 0.34 0.68 0 0 Z " fill="#5B5C5D" transform="translate(8,67)"/>
<path d="M0 0 C0.33 0 0.66 0 1 0 C1.3125 3.1875 1.3125 3.1875 1 7 C-1.5 9.9375 -1.5 9.9375 -4 12 C-4.33 11.01 -4.66 10.02 -5 9 C-3.68 8.34 -2.36 7.68 -1 7 C-1.020625 6.030625 -1.04125 5.06125 -1.0625 4.0625 C-1 1 -1 1 0 0 Z " fill="#282829" transform="translate(106,40)"/>
<path d="M0 0 C-3.6441774 2.4294516 -5.71241272 2.16179575 -10 2 C-10 2.66 -10 3.32 -10 4 C-10.66 4 -11.32 4 -12 4 C-11.67 3.01 -11.34 2.02 -11 1 C-7.08609399 -0.47694566 -4.00565371 -1.60226148 0 0 Z " fill="#898A8A" transform="translate(97,23)"/>
<path d="M0 0 C0.66 0.33 1.32 0.66 2 1 C2 3.31 2 5.62 2 8 C0.68 7.34 -0.64 6.68 -2 6 C-1.125 1.125 -1.125 1.125 0 0 Z " fill="#E4E5E5" transform="translate(17,69)"/>
<path d="M0 0 C0.99 0.66 1.98 1.32 3 2 C2.42655063 4.86724686 2.1385485 5.8614515 0 8 C-0.99 7.67 -1.98 7.34 -3 7 C-2.38722388 4.03824877 -1.74627478 2.61941217 0 0 Z " fill="#565758" transform="translate(104,16)"/>
<path d="M0 0 C0.33 0 0.66 0 1 0 C1.66 2.31 2.32 4.62 3 7 C1.02 7 -0.96 7 -3 7 C-2.34 6.67 -1.68 6.34 -1 6 C-1 5.34 -1 4.68 -1 4 C-3.97 3.505 -3.97 3.505 -7 3 C-7 2.67 -7 2.34 -7 2 C-5.02 2 -3.04 2 -1 2 C-0.67 1.34 -0.34 0.68 0 0 Z " fill="#9B9C9C" transform="translate(71,53)"/>
<path d="M0 0 C1.65 1.65 3.3 3.3 5 5 C4.67 5.66 4.34 6.32 4 7 C1.525 6.01 1.525 6.01 -1 5 C-0.67 3.35 -0.34 1.7 0 0 Z " fill="#232324" transform="translate(74,52)"/>
<path d="M0 0 C3.36591866 1.44253657 5.51047079 3.33264727 8 6 C7.01 6.495 7.01 6.495 6 7 C3 5.1875 3 5.1875 0 3 C0 2.01 0 1.02 0 0 Z " fill="#232324" transform="translate(72,22)"/>
<path d="M0 0 C-1.8125 2.5 -1.8125 2.5 -4 5 C-4.99 5 -5.98 5 -7 5 C-6.625 2.5625 -6.625 2.5625 -6 0 C-3.50907189 -1.24546405 -2.58919267 -0.7767578 0 0 Z " fill="#303031" transform="translate(103,22)"/>
<path d="M0 0 C2.25 0.0625 2.25 0.0625 5 1 C7.0898813 3.65742095 9 6.53550551 9 10 C8.34 10 7.68 10 7 10 C5.96564444 8.35443434 4.97236487 6.6829392 4 5 C2.68962066 3.31522656 1.36176922 1.64351457 0 0 Z " fill="#858686" transform="translate(61,3)"/>
<path d="M0 0 C3.3 0.99 6.6 1.98 10 3 C10 4.32 10 5.64 10 7 C1.43902439 2.87804878 1.43902439 2.87804878 0 0 Z " fill="#8F9090" transform="translate(35,121)"/>
<path d="M0 0 C0.33 0 0.66 0 1 0 C0.88557539 1.60495567 0.75805306 3.20898119 0.625 4.8125 C0.55539063 5.70582031 0.48578125 6.59914063 0.4140625 7.51953125 C0 10 0 10 -2 13 C-3.32 12.67 -4.64 12.34 -6 12 C-5.01 11.67 -4.02 11.34 -3 11 C-2.22984403 8.96069994 -2.22984403 8.96069994 -1.875 6.5625 C-1.06329114 2.12658228 -1.06329114 2.12658228 0 0 Z " fill="#A6A7A7" transform="translate(83,50)"/>
<path d="M0 0 C0.33 0 0.66 0 1 0 C1 2.64 1 5.28 1 8 C0.01 8.33 -0.98 8.66 -2 9 C-2.33 9.99 -2.66 10.98 -3 12 C-5.0625 12.6875 -5.0625 12.6875 -7 13 C-6.36771484 12.34644531 -6.36771484 12.34644531 -5.72265625 11.6796875 C-2.23634805 7.88986541 -0.26119037 5.35440266 0 0 Z " fill="#929393" transform="translate(79,108)"/>
<path d="M0 0 C1.98 0.495 1.98 0.495 4 1 C4.66 3.31 5.32 5.62 6 8 C4.68 7.34 3.36 6.68 2 6 C2 5.01 2 4.02 2 3 C1.01 3 0.02 3 -1 3 C-0.67 2.01 -0.34 1.02 0 0 Z " fill="#B2B3B3" transform="translate(65,45)"/>
<path d="M0 0 C1.32 0 2.64 0 4 0 C3.67 1.65 3.34 3.3 3 5 C2.01 5.33 1.02 5.66 0 6 C-0.38218767 4.34385343 -0.71395102 2.67542976 -1 1 C-0.67 0.67 -0.34 0.34 0 0 Z " fill="#4F5051" transform="translate(81,45)"/>
<path d="M0 0 C2.3828125 -0.29296875 2.3828125 -0.29296875 5.125 -0.1875 C6.03507812 -0.16042969 6.94515625 -0.13335938 7.8828125 -0.10546875 C8.58148438 -0.07066406 9.28015625 -0.03585938 10 0 C10 0.33 10 0.66 10 1 C8.1746875 1.0928125 8.1746875 1.0928125 6.3125 1.1875 C1.84150148 1.71163126 -0.13301658 3.50586395 -3 7 C-2.38722388 4.03824877 -1.74627478 2.61941217 0 0 Z " fill="#969797" transform="translate(118,28)"/>
<path d="M0 0 C0.99 0.66 1.98 1.32 3 2 C0.9375 4.0625 0.9375 4.0625 -2 6 C-5.8125 5.75 -5.8125 5.75 -9 5 C-9 4.67 -9 4.34 -9 4 C-6.36 4 -3.72 4 -1 4 C-0.67 2.68 -0.34 1.36 0 0 Z " fill="#939494" transform="translate(64,59)"/>
<path d="M0 0 C1.32 0.33 2.64 0.66 4 1 C2 4 0 7 -2 10 C-1.125 2.25 -1.125 2.25 0 0 Z " fill="#989999" transform="translate(17,49)"/>
<path d="M0 0 C0.66 0.33 1.32 0.66 2 1 C1.07038578 2.15224028 0.1309875 3.29659176 -0.8125 4.4375 C-1.59560547 5.39462891 -1.59560547 5.39462891 -2.39453125 6.37109375 C-4 8 -4 8 -7 9 C-5.44499019 5.18315774 -2.96404505 2.80804268 0 0 Z " fill="#7A7B7B" transform="translate(13,48)"/>
<path d="M0 0 C0.33 0 0.66 0 1 0 C0.44687265 4.02992782 -0.1558062 8.02022924 -1 12 C-1.99 11.67 -2.98 11.34 -4 11 C-3.34 8.69 -2.68 6.38 -2 4 C-1.34 4 -0.68 4 0 4 C0 2.68 0 1.36 0 0 Z " fill="#CACBCB" transform="translate(36,39)"/>
<path d="M0 0 C0.66 0 1.32 0 2 0 C2.66 1.32 3.32 2.64 4 4 C2.35 4.66 0.7 5.32 -1 6 C-0.67 4.02 -0.34 2.04 0 0 Z " fill="#232324" transform="translate(6,66)"/>
<path d="M0 0 C0.99 0 1.98 0 3 0 C2.67 0.99 2.34 1.98 2 3 C1.01 2.67 0.02 2.34 -1 2 C-0.67 1.34 -0.34 0.68 0 0 Z M-3 3 C-1.56911472 5.86177057 -2.40008303 7.93375773 -3 11 C-3.33 11 -3.66 11 -4 11 C-4.04241723 8.66705225 -4.04092937 6.33297433 -4 4 C-3.67 3.67 -3.34 3.34 -3 3 Z " fill="#414243" transform="translate(108,36)"/>
<path d="M0 0 C0.66 0 1.32 0 2 0 C2.125 6.75 2.125 6.75 1 9 C0.34 9 -0.32 9 -1 9 C-0.67 6.03 -0.34 3.06 0 0 Z " fill="#C7C8C8" transform="translate(108,0)"/>
<path d="M0 0 C6.75 0.75 6.75 0.75 9 3 C2.25 3.125 2.25 3.125 0 2 C0 1.34 0 0.68 0 0 Z " fill="#505152" transform="translate(55,125)"/>
<path d="M0 0 C1.9375 0.3125 1.9375 0.3125 4 1 C4.33 1.99 4.66 2.98 5 4 C3.35 4.33 1.7 4.66 0 5 C0 3.33333333 0 1.66666667 0 0 Z " fill="#545556" transform="translate(79,26)"/>
<path d="M0 0 C0.99 0 1.98 0 3 0 C2.67 1.65 2.34 3.3 2 5 C1.01 5 0.02 5 -1 5 C-0.67 3.35 -0.34 1.7 0 0 Z " fill="#232324" transform="translate(52,24)"/>
<path d="M0 0 C-1.98 0.99 -3.96 1.98 -6 3 C-6.99 2.01 -7.98 1.02 -9 0 C-5.62182575 -0.84454356 -3.32534757 -1.10844919 0 0 Z " fill="#A6A7A7" transform="translate(52,97)"/>
<path d="M0 0 C0.86625 0.4640625 0.86625 0.4640625 1.75 0.9375 C3.84294184 1.92583364 5.74535275 2.5168613 8 3 C8 3.66 8 4.32 8 5 C4.62537285 4.45276317 2.91765 3.9451 0 2 C0 1.34 0 0.68 0 0 Z " fill="#232324" transform="translate(54,57)"/>
<path d="M0 0 C2.99324263 1.0975223 3.84610901 1.67682892 5.25 4.625 C5.4975 5.40875 5.745 6.1925 6 7 C5.01 7.495 5.01 7.495 4 8 C3.505 5.525 3.505 5.525 3 3 C2.01 2.67 1.02 2.34 0 2 C0 1.34 0 0.68 0 0 Z " fill="#C0C1C1" transform="translate(44,17)"/>
<path d="M0 0 C4.75 0.875 4.75 0.875 7 2 C7 3.65 7 5.3 7 7 C6.67 5.68 6.34 4.36 6 3 C3.03 2.505 3.03 2.505 0 2 C0 1.34 0 0.68 0 0 Z " fill="#AEAFAF" transform="translate(61,14)"/>
</svg>
