<?xml version="1.0" encoding="UTF-8"?>
<svg version="1.1" xmlns="http://www.w3.org/2000/svg" width="128" height="128">
<path d="M0 0 C42.24 0 84.48 0 128 0 C128 42.24 128 84.48 128 128 C85.76 128 43.52 128 0 128 C0 85.76 0 43.52 0 0 Z " fill="#F7F7F7" transform="translate(0,0)"/>
<path d="M0 0 C10.786875 -0.103125 21.57375 -0.20625 32.6875 -0.3125 C37.78771606 -0.38078003 37.78771606 -0.38078003 42.9909668 -0.45043945 C45.68537407 -0.46504222 48.37979236 -0.47778338 51.07421875 -0.48828125 C51.77102249 -0.50134811 52.46782623 -0.51441498 53.18574524 -0.52787781 C55.24901907 -0.5646198 57.31022612 -0.56952622 59.3737793 -0.56762695 C61.11584908 -0.58428154 61.11584908 -0.58428154 62.89311218 -0.60127258 C66.95904967 0.18560383 68.3856693 1.86399763 71 5 C73 8 73 8 72.625 10.6875 C72.41875 11.450625 72.2125 12.21375 72 13 C71.34 13 70.68 13 70 13 C69.731875 13.886875 69.46375 14.77375 69.1875 15.6875 C65.87894583 24.91662479 59.25860822 34.62998019 50.5625 39.3125 C46.33775808 40.44596735 43.02097654 39.50489388 39.1484375 37.58984375 C38.23320313 37.04457031 37.31796875 36.49929687 36.375 35.9375 C32.69725596 33.74836664 31.39023381 33 27 33 C27.12375 34.010625 27.2475 35.02125 27.375 36.0625 C27.46265625 36.7946875 27.5503125 37.526875 27.640625 38.28125 C27.90838555 40.3069168 28.21707437 42.32725471 28.546875 44.34375 C30.135735 54.56398457 29.75115438 63.8684519 28.66796875 74.15234375 C27.95195179 81.41752917 27.54937231 88.79866967 29 96 C30.42276003 97.85922828 30.42276003 97.85922828 32 99 C32.103125 98.484375 32.20625 97.96875 32.3125 97.4375 C33.58868579 92.91284128 34.7046702 89.09080404 38.375 86 C41.57670822 84.78030163 42.82044019 84.72817607 46 86 C48.75 88.5 48.75 88.5 51 91 C51.33 91.33 51.66 91.66 52 92 C52.16796875 93.99609375 52.16796875 93.99609375 52.1875 96.4375 C52.20167969 97.24058594 52.21585938 98.04367188 52.23046875 98.87109375 C52 101 52 101 50 103 C49.3574765 105.06874034 49.3574765 105.06874034 49 107 C57.89291917 107.48506832 66.30940593 105.67625695 75 104 C74.65213292 102.02463255 74.65213292 102.02463255 74 100 C73.34 99.67 72.68 99.34 72 99 C71.31060191 96.67328146 70.64533078 94.33932406 70 92 C69.34 91.01 68.68 90.02 68 89 C67.875 85.8125 67.875 85.8125 68 83 C71.75 81 71.75 81 74 81 C74 78.03 74 75.06 74 72 C75.65 71.67 77.3 71.34 79 71 C79.28875 72.051875 79.5775 73.10375 79.875 74.1875 C81.47016101 79.59332343 82.76953967 83.1744627 86.875 87.125 C87.55304688 87.78757812 88.23109375 88.45015625 88.9296875 89.1328125 C90.87700126 90.88906906 92.8751133 92.46588897 95 94 C94.67 95.65 94.34 97.3 94 99 C92.515 99.495 92.515 99.495 91 100 C87.94433539 97.03693129 85.02864172 93.98279839 82.1875 90.8125 C81.58292969 90.13832031 80.97835937 89.46414062 80.35546875 88.76953125 C79 87 79 87 79 85 C77.68 85 76.36 85 75 85 C75.54822861 90.66129955 76.11706906 94.83651662 80.625 98.625 C81.73143745 99.44240889 82.85069997 100.24404329 84 101 C83.78789666 104.71180848 83.04918847 105.94841209 80.4375 108.6875 C75.02755101 112.79648507 68.56548777 113.19005396 61.98046875 113.65625 C59.68667507 113.91693416 59.68667507 113.91693416 57 116 C52.83371987 116.23018122 49.11200876 115.59668763 45.4375 113.625 C43.08754959 109.3337862 43.4168622 104.7803738 44 100 C44.66501658 98.33267425 45.33136316 96.66587725 46 95 C45.67 94.34 45.34 93.68 45 93 C43.68 93 42.36 93 41 93 C40.8309093 95.06230268 40.66482867 97.1248523 40.5 99.1875 C40.4071875 100.33605469 40.314375 101.48460938 40.21875 102.66796875 C40.0354038 105.46072426 39.95786363 108.20319812 40 111 C35.1148916 110.55427843 32.77563231 108.41241391 29.25 105.125 C28.28578125 104.24070312 27.3215625 103.35640625 26.328125 102.4453125 C21.95919462 97.85646952 22.64178488 92.3269297 22.375 86.3125 C22.29765625 84.8594043 22.29765625 84.8594043 22.21875 83.37695312 C21.99461976 78.50212048 22.02481863 73.93332714 22.74658203 69.11108398 C23.29363357 64.55390223 23.22643172 59.95903091 23.25 55.375 C23.270625 54.364375 23.29125 53.35375 23.3125 52.3125 C23.34207179 46.67907407 23.09416984 42.77153559 20 38 C19.01 38 18.02 38 17 38 C13.5428284 42.3214645 12.45373138 47.7632631 11 53 C10.649375 54.155 10.29875 55.31 9.9375 56.5 C7.22132607 66.15965194 7.22132607 66.15965194 8 76 C8.20496094 77.19302734 8.20496094 77.19302734 8.4140625 78.41015625 C9.257582 83.26396761 10.16192384 86.90055665 13 91 C13.82239519 92.47368803 14.63386977 93.95349571 15.4375 95.4375 C21.85871732 107.01107133 28.92918115 112.75673806 41 118 C46.23951723 119.24433765 51.32931315 119.18391113 56.6875 119.1875 C57.63044922 119.19974609 58.57339844 119.21199219 59.54492188 119.22460938 C66.3603757 119.23866186 73.86934541 119.17217594 80.03393555 115.93041992 C82 115 82 115 86 115 C86.495 113.515 86.495 113.515 87 112 C88.32089969 111.30902516 89.65605051 110.64499766 91 110 C93.58100652 107.5480438 95.76384782 104.7660035 98 102 C98.72445312 101.1234375 99.44890625 100.246875 100.1953125 99.34375 C104.03037536 94.45026477 106.67480573 90.88568492 106.7890625 84.6015625 C107.13654779 80.3159106 108.49189591 76.24542936 109.71777344 72.13964844 C110.8852851 68.08920896 110.8852851 68.08920896 110 64 C109.26394531 64.58910156 108.52789062 65.17820312 107.76953125 65.78515625 C106.79371094 66.53667969 105.81789063 67.28820312 104.8125 68.0625 C103.84957031 68.81660156 102.88664062 69.57070312 101.89453125 70.34765625 C99 72 99 72 96.3359375 71.88671875 C92.02923575 70.25190053 88.8842084 67.56746035 86.625 63.5625 C85.87978862 60.50713334 85.71499126 58.14290462 86 55 C87.71484375 52.5078125 87.71484375 52.5078125 89.9375 50.125 C93.81999503 45.60569362 95 42.92057465 95 37 C94.030625 37 93.06125 37 92.0625 37 C87.38511344 36.2539138 84.23481645 33.9078241 80.81640625 30.7265625 C77.80239437 26.20230381 78.04977688 21.64671606 78.09765625 16.390625 C78.00561055 13.19479835 77.70006278 11.64009749 76 9 C78 7 78 7 80.13549805 6.83642578 C81.43547729 6.89032471 81.43547729 6.89032471 82.76171875 6.9453125 C84.19354492 6.98205078 84.19354492 6.98205078 85.65429688 7.01953125 C87.65721391 7.0891755 89.65986109 7.16713778 91.66210938 7.25390625 C98.22210007 7.40349692 101.5125083 6.52027769 107 3 C109.6940918 2.87548828 109.6940918 2.87548828 112 3 C116.49259346 9.64027879 117.6850407 14.64117321 117.3828125 22.58203125 C117.36862274 23.55863205 117.35443298 24.53523285 117.33981323 25.54142761 C117.29233891 28.63281044 117.21137728 31.72197868 117.125 34.8125 C117.04945473 37.92068273 116.98148545 41.02842633 116.93161011 44.13713074 C116.89968179 46.06398173 116.85253692 47.99065565 116.7883606 49.91670227 C116.61395532 54.94439932 116.61395532 54.94439932 118.48461914 59.4855957 C118.98469482 59.98534912 119.48477051 60.48510254 120 61 C120.90358608 66.34378866 119.81943795 70.9697892 118 76 C117.82842583 77.35114656 117.68398369 78.70593211 117.5625 80.0625 C117.01545522 83.89181343 116.36009128 85.97908316 114 89 C113.34 89 112.68 89 112 89 C111.82984375 89.84691406 111.82984375 89.84691406 111.65625 90.7109375 C107.9860457 103.51295963 95.96584133 114.2862196 85 121 C83.01985568 121.72351427 81.02178685 122.40265389 79 123 C78.01 123.495 78.01 123.495 77 124 C74.29127482 124.39227838 71.59248307 124.74569498 68.875 125.0625 C67.74384766 125.19881836 67.74384766 125.19881836 66.58984375 125.33789062 C64.72695812 125.56190852 62.86352748 125.78138573 61 126 C61 126.66 61 127.32 61 128 C40.87 128 20.74 128 0 128 C0 85.76 0 43.52 0 0 Z " fill="#868686" transform="translate(0,0)"/>
<path d="M0 0 C19.8 0 39.6 0 60 0 C60 42.24 60 84.48 60 128 C37.89 128 15.78 128 -7 128 C-7 127.34 -7 126.68 -7 126 C-2.39156474 124.18088082 1.83579041 123.64449829 6.73046875 123.34375 C9.27583169 123.12221978 9.27583169 123.12221978 12 121 C13.134375 120.690625 14.26875 120.38125 15.4375 120.0625 C18.73139931 119.08010898 20.39892605 118.11939359 23 116 C23.66 116 24.32 116 25 116 C25.495 114.515 25.495 114.515 26 113 C27.2684375 112.01 27.2684375 112.01 28.5625 111 C35.59482196 105.39108779 40.33774491 97.08748 44 89 C44.66 89 45.32 89 46 89 C47.53522679 85.46705132 48.44004208 82.17251637 49.0625 78.375 C49.54864725 75.44204554 50.05784734 72.82645799 51 70 C51.23275063 67.8495783 51.23275063 67.8495783 51.25 65.5625 C51.28867188 64.41974609 51.28867188 64.41974609 51.328125 63.25390625 C51.21629293 60.91577656 51.21629293 60.91577656 49.48901367 59.48120117 C47.11581675 55.5266512 47.71281218 51.56176542 47.84765625 47.046875 C47.87586527 45.04557592 47.90385306 43.04427372 47.93164062 41.04296875 C47.9936687 37.89841483 48.06240171 34.7541448 48.13696289 31.60986328 C48.20367117 28.56806135 48.24541839 25.52663147 48.28515625 22.484375 C48.31521255 21.55389343 48.34526886 20.62341187 48.37623596 19.66473389 C48.44742991 13.33748422 47.23183243 9.4533938 44 4 C39.15842423 4.3672538 39.15842423 4.3672538 34.95703125 6.54296875 C30.37619328 8.80010556 25.89752929 8.19542916 20.875 8 C18.8937201 7.92350271 16.91186516 7.86039154 14.9296875 7.8125 C13.61846924 7.76029297 13.61846924 7.76029297 12.28076172 7.70703125 C9.52976905 8.06040218 8.70307423 8.87342472 7 11 C5.58398438 8.4609375 5.58398438 8.4609375 4.16796875 5.921875 C2.91435201 3.85906751 1.44831719 1.93108959 0 0 Z " fill="#FAFAFA" transform="translate(68,0)"/>
<path d="M0 0 C19.8 0 39.6 0 60 0 C56.13870293 3.86129707 54.88881738 4.62379738 50 6.1875 C40.36044497 9.69377959 33.13760714 15.78346198 26 23 C23.48632338 25.26192165 20.94694837 27.49173085 18.40234375 29.71875 C16.0033088 31.99685799 14.0133571 34.37999819 12 37 C11.484375 37.5775 10.96875 38.155 10.4375 38.75 C8.20970163 42.23698875 7.2153313 46.0646415 6 50 C5.32078433 52.16927794 4.63309735 54.33591936 3.9375 56.5 C3.61652344 57.5209375 3.29554687 58.541875 2.96484375 59.59375 C2 62 2 62 0 63 C0 42.21 0 21.42 0 0 Z " fill="#F7F7F7" transform="translate(0,0)"/>
<path d="M0 0 C4.21898336 0.57907615 5.49972407 2.22710098 8.1875 5.4375 C10.1875 8.4375 10.1875 8.4375 9.8125 11.125 C9.60625 11.888125 9.4 12.65125 9.1875 13.4375 C8.5275 13.4375 7.8675 13.4375 7.1875 13.4375 C6.919375 14.324375 6.65125 15.21125 6.375 16.125 C4.58741261 21.11142799 1.70489309 25.23492307 -1.3125 29.5625 C-1.9003125 30.41070313 -2.488125 31.25890625 -3.09375 32.1328125 C-6.8286023 37.1409099 -6.8286023 37.1409099 -9.9765625 38.08984375 C-16.45241255 38.84022003 -21.26748877 38.01207443 -26.8125 34.4375 C-27.1425 33.7775 -27.4725 33.1175 -27.8125 32.4375 C-21.9375 33.3125 -21.9375 33.3125 -20.8125 34.4375 C-15.56194904 34.08746327 -12.14669047 33.62009397 -7.8125 30.4375 C-6.08135614 27.99383059 -6.08135614 27.99383059 -4.75 25.1875 C-4.25113281 24.21296875 -3.75226562 23.2384375 -3.23828125 22.234375 C-2.76777344 21.31140625 -2.29726563 20.3884375 -1.8125 19.4375 C-1.02997531 18.09878084 -0.23988433 16.76441118 0.5625 15.4375 C2.42564157 12.56649335 2.42564157 12.56649335 2.1875 9.4375 C-3.73478928 9.19577391 -8.7200394 9.8912697 -14.0625 12.5625 C-15.8125 13.4375 -15.8125 13.4375 -18.8125 13.4375 C-19.1425 14.4275 -19.4725 15.4175 -19.8125 16.4375 C-21.77140881 17.83050182 -23.7764118 19.15995446 -25.8125 20.4375 C-26.555 21.015 -27.2975 21.5925 -28.0625 22.1875 C-29.8125 23.4375 -29.8125 23.4375 -31.8125 23.4375 C-32.06 24.38625 -32.3075 25.335 -32.5625 26.3125 C-33.8125 29.4375 -33.8125 29.4375 -35.9375 30.8125 C-36.55625 31.01875 -37.175 31.225 -37.8125 31.4375 C-37.8125 34.0775 -37.8125 36.7175 -37.8125 39.4375 C-40.7825 38.4475 -43.7525 37.4575 -46.8125 36.4375 C-46.77125 37.22125 -46.73 38.005 -46.6875 38.8125 C-46.8125 41.4375 -46.8125 41.4375 -48.8125 43.4375 C-49.64258464 45.62407978 -49.64258464 45.62407978 -50.3125 48.125 C-50.56902344 49.02605469 -50.82554688 49.92710938 -51.08984375 50.85546875 C-51.32832031 51.70753906 -51.56679688 52.55960938 -51.8125 53.4375 C-52.163125 54.5925 -52.51375 55.7475 -52.875 56.9375 C-54.70397907 63.76568853 -56.21697427 69.41512867 -54.8125 76.4375 C-54.71453083 80.43876697 -54.75422179 84.43572932 -54.8125 88.4375 C-55.8025 87.7775 -56.7925 87.1175 -57.8125 86.4375 C-57.8125 85.1175 -57.8125 83.7975 -57.8125 82.4375 C-58.4725 82.4375 -59.1325 82.4375 -59.8125 82.4375 C-62.34074861 80.00174829 -62.80134735 78.53339095 -63.2109375 75.01171875 C-63.13615326 62.60999891 -63.13615326 62.60999891 -59.8125 56.4375 C-59.10234515 54.57096274 -58.41662306 52.69502356 -57.75 50.8125 C-55.62460267 44.8545589 -53.62645517 39.56250226 -49.8125 34.4375 C-49.1525 34.4375 -48.4925 34.4375 -47.8125 34.4375 C-47.43544922 33.55384766 -47.43544922 33.55384766 -47.05078125 32.65234375 C-45.65794599 30.16105798 -44.1916428 28.81449586 -42 27 C-39.67586638 25.0382313 -37.50161296 23.1186415 -35.375 20.9375 C-31.77472742 17.42503894 -27.83457181 14.44863814 -23.8125 11.4375 C-22.905 10.73625 -21.9975 10.035 -21.0625 9.3125 C-16.77934524 6.84144918 -12.28830262 5.25188587 -7.640625 3.5859375 C-4.48166656 2.30315603 -3.3769095 0.52529703 0 0 Z " fill="#808080" transform="translate(62.8125,-0.4375)"/>
<path d="M0 0 C4.0076976 4.0076976 4.49863373 4.93288883 6 10 C10.41183336 24.23341476 18.94590135 34.92011316 32 42 C32.969375 42.53109375 33.93875 43.0621875 34.9375 43.609375 C38.20554906 45.09333605 41.23658288 45.85414977 44.75 46.5625 C50.78111588 47.78111588 50.78111588 47.78111588 53 50 C35.51 50 18.02 50 0 50 C0 33.5 0 17 0 0 Z " fill="#F6F6F6" transform="translate(0,78)"/>
<path d="M0 0 C4.54225282 12.52816708 5.31855369 24.33976044 4.6875 37.5 C4.65309814 38.24145264 4.61869629 38.98290527 4.58325195 39.74682617 C4.15584742 46.63278812 3.37981257 52.23502316 -2 57 C-2.804375 58.010625 -3.60875 59.02125 -4.4375 60.0625 C-6.8857963 62.86908356 -8.5897506 64.550644 -12 66 C-16.86304665 66 -19.63753311 63.2877454 -23 60 C-25.06808456 56.33385009 -25.52177216 53.17417731 -25 49 C-22.814058 45.64301765 -20.38678495 43.1449638 -17 41 C-16.34 41 -15.68 41 -15 41 C-14.7834375 40.071875 -14.7834375 40.071875 -14.5625 39.125 C-14 37 -14 37 -13 35 C-12.93049459 33.45976004 -12.91547643 31.91665012 -12.9375 30.375 C-12.94652344 29.55773437 -12.95554687 28.74046875 -12.96484375 27.8984375 C-12.97644531 27.27195312 -12.98804687 26.64546875 -13 26 C-15.31 26 -17.62 26 -20 26 C-19.42415568 23.61435923 -18.77772405 21.33317216 -18 19 C-20.68926255 13.89444516 -23.62909927 10.99490599 -29 9 C-29.8125 6.375 -29.8125 6.375 -30 4 C-27.625 3.8125 -27.625 3.8125 -25 4 C-23 7 -23 7 -23 10 C-22.01 10.33 -21.02 10.66 -20 11 C-18.46780393 12.99142571 -17.14329957 15.06933401 -15.79296875 17.1875 C-13.37691017 19.62987731 -11.34878636 19.70108462 -8 20 C-7.30523407 29.9891902 -8.39187452 35.9596193 -14.4453125 43.89453125 C-16.59751771 46.71699465 -17.94333688 48.63877258 -18.5 52.1875 C-17.9540126 55.25867913 -17.09681307 56.7284525 -15 59 C-10.16639139 57.33691094 -8.06343613 55.56157236 -5.3515625 51.28515625 C-2.51078312 44.38025607 -2.11725934 36.77069262 -1.29248047 29.40185547 C-0.93501208 26.46631787 -0.40169752 23.58472644 0.1875 20.6875 C1.02016826 16.37964603 1.16536347 12.38213189 1 8 C-1.31 7.67 -3.62 7.34 -6 7 C-6.6875 5.1875 -6.6875 5.1875 -7 3 C-4.8243318 -0.20624788 -4.07796486 0 0 0 Z " fill="#757575" transform="translate(111,6)"/>
<path d="M0 0 C4.49259346 6.64027879 5.6850407 11.64117321 5.3828125 19.58203125 C5.36862274 20.55863205 5.35443298 21.53523285 5.33981323 22.54142761 C5.29233891 25.63281044 5.21137728 28.72197868 5.125 31.8125 C5.04945473 34.92068273 4.98148545 38.02842633 4.93161011 41.13713074 C4.89968179 43.06398173 4.85253692 44.99065565 4.7883606 46.91670227 C4.61395532 51.94439932 4.61395532 51.94439932 6.48461914 56.4855957 C6.98469482 56.98534912 7.48477051 57.48510254 8 58 C8.90358608 63.34378866 7.81943795 67.9697892 6 73 C5.85247147 74.35189781 5.72872101 75.7065375 5.625 77.0625 C4.95422491 81.28838305 3.93118642 82.97425918 1 86 C1.45143784 83.66757115 1.90831441 81.3492451 2.51171875 79.05078125 C4.05039223 72.97247537 4.21032188 67.25123362 4 61 C3.01 60.505 3.01 60.505 2 60 C0.93423661 64.71980928 -0.09131194 69.43491722 -1 74.1875 C-1.73159845 77.90936197 -2.68589189 81.43313512 -4 85 C-4.33 85 -4.66 85 -5 85 C-5.28693656 79.39169452 -3.92424812 74.59846703 -2.33398438 69.30273438 C-1.12691327 65.16996747 -1.12691327 65.16996747 -2 61 C-2.99 61.495 -2.99 61.495 -4 62 C-3.1875 59.5625 -3.1875 59.5625 -2 57 C-1.01 56.67 -0.02 56.34 1 56 C3.53473796 39.72655631 6.68378646 17.47614841 0 2 C-3.71888239 2.50712033 -6.73454239 3.11608215 -10 5 C-8.92598892 7.91517292 -8.22189824 9.77810176 -6 12 C-6.36089408 15.48864279 -8.1410422 18.09032693 -10 21 C-14.21107642 20.50628759 -16.0155272 19.46845029 -18.75 16.25 C-19.34296875 15.57453125 -19.9359375 14.8990625 -20.546875 14.203125 C-22.14980885 11.77287046 -22.61940566 9.86447319 -23 7 C-26.3 6.67 -29.6 6.34 -33 6 C-32.67257813 6.67417969 -32.34515625 7.34835938 -32.0078125 8.04296875 C-30.79039135 11.61501454 -30.804619 14.54711647 -30.875 18.3125 C-30.89304687 19.56675781 -30.91109375 20.82101563 -30.9296875 22.11328125 C-30.95289062 23.06589844 -30.97609375 24.01851562 -31 25 C-30.20335938 25.29777344 -29.40671875 25.59554688 -28.5859375 25.90234375 C-26 27 -26 27 -24.625 28.5625 C-22.10981881 30.78746797 -19.25628268 30.58556402 -16 31 C-15.34 31.66 -14.68 32.32 -14 33 C-14.25 36.0625 -14.25 36.0625 -15 39 C-15.99 39.495 -15.99 39.495 -17 40 C-17 38.02 -17 36.04 -17 34 C-17.969375 34 -18.93875 34 -19.9375 34 C-24.61488656 33.2539138 -27.76518355 30.9078241 -31.18359375 27.7265625 C-34.19760563 23.20230381 -33.95022312 18.64671606 -33.90234375 13.390625 C-33.99438945 10.19479835 -34.29993722 8.64009749 -36 6 C-34 4 -34 4 -31.86450195 3.83642578 C-30.56452271 3.89032471 -30.56452271 3.89032471 -29.23828125 3.9453125 C-27.80645508 3.98205078 -27.80645508 3.98205078 -26.34570312 4.01953125 C-24.34278609 4.0891755 -22.34013891 4.16713778 -20.33789062 4.25390625 C-12.50506272 4.43252204 -7.21132656 -0.38938873 0 0 Z " fill="#D0D0D0" transform="translate(112,3)"/>
<path d="M0 0 C0.71875 1.5703125 0.71875 1.5703125 1 4 C-0.06461742 6.45453462 -1.14224456 8.59318726 -2.5 10.875 C-3.05312866 11.81218872 -3.05312866 11.81218872 -3.61743164 12.76831055 C-6.88593298 18.11938438 -9.98272066 22.57063095 -16.0859375 24.7421875 C-22.68501586 26.06200317 -27.43822538 23.35564272 -33 20 C-33.26953125 17.7265625 -33.26953125 17.7265625 -33 15 C-31.13671875 13.0859375 -31.13671875 13.0859375 -28.6875 11.375 C-25.42039973 9.08969501 -25.42039973 9.08969501 -22.48046875 6.421875 C-16.56836489 0.74375942 -7.74749234 -0.15191161 0 0 Z " fill="#F1F1F1" transform="translate(65,8)"/>
<path d="M0 0 C0.33 0 0.66 0 1 0 C0.979375 0.7425 0.95875 1.485 0.9375 2.25 C2.20260058 5.52437798 2.93818279 5.85207874 6 7.375 C10.89686144 9.30099486 14.94596461 9.40770038 20 8 C22.96048102 6.59618965 22.96048102 6.59618965 25 5 C23.93813626 8.42156094 22.93942552 9.03200161 19.6875 10.75 C16.40740988 11.86189495 14.38661778 12.47036358 11 12 C10.01 11.34 9.02 10.68 8 10 C7.01 10 6.02 10 5 10 C10.93438408 13.07708804 15.29873464 14.48736475 22 14 C19.31471687 16.68528313 17.77730561 16.81780055 14 17 C11.4432231 15.95508115 9.24813311 14.91748245 6.875 13.5625 C1.79098582 10.71659282 1.79098582 10.71659282 -4 10 C-3.87625 11.010625 -3.7525 12.02125 -3.625 13.0625 C-3.53734375 13.7946875 -3.4496875 14.526875 -3.359375 15.28125 C-3.09161445 17.3069168 -2.78292563 19.32725471 -2.453125 21.34375 C-1.02898602 30.50442779 -1.06777244 38.7587877 -2 48 C-2.74821638 56.03348113 -3.12880278 63.9283589 -3 72 C-3.33 72 -3.66 72 -4 72 C-4.33 69.69 -4.66 67.38 -5 65 C-5.33 65 -5.66 65 -6 65 C-6.33 67.97 -6.66 70.94 -7 74 C-7.33 74 -7.66 74 -8 74 C-8.19907807 70.50055963 -8.38213327 67.0004507 -8.5625 63.5 C-8.61857422 62.51773438 -8.67464844 61.53546875 -8.73242188 60.5234375 C-8.97893826 55.59310971 -8.99207875 50.98254617 -8.25561523 46.10449219 C-7.70246741 41.55040029 -7.77355549 36.95654241 -7.75 32.375 C-7.729375 31.364375 -7.70875 30.35375 -7.6875 29.3125 C-7.65792821 23.67907407 -7.90583016 19.77153559 -11 15 C-12.32 15 -13.64 15 -15 15 C-15 14.34 -15 13.68 -15 13 C-11.28400809 12.79913557 -10.22791555 12.8480563 -7 15 C-7.103125 13.906875 -7.20625 12.81375 -7.3125 11.6875 C-7.209375 10.470625 -7.10625 9.25375 -7 8 C-4.625 6.375 -4.625 6.375 -2 5 C-0.65310085 2.42900598 -0.65310085 2.42900598 0 0 Z " fill="#A0A0A0" transform="translate(31,23)"/>
<path d="M0 0 C1.32 0.66 2.64 1.32 4 2 C4.05553449 3.33282775 4.09346189 4.66638865 4.125 6 C4.14820312 6.7425 4.17140625 7.485 4.1953125 8.25 C3.98246655 11.24687099 3.25518278 13.97160549 2.48583984 16.86767578 C1.84757266 19.66899519 1.63498108 22.43264136 1.41845703 25.29248047 C0.80627512 33.08759685 -0.30167267 39.19261378 -6 45 C-7.31004509 46.03032016 -8.63822354 47.0390928 -10 48 C-13.16115776 46.63016497 -13.9927092 46.0109362 -16 43 C-16.5625 40.375 -16.5625 40.375 -16 37 C-13.90700767 33.80030214 -11.46677046 30.91671787 -9 28 C-5.23010882 23.33723986 -4.63218795 20.11898601 -4.27734375 14.3203125 C-3.92048495 11.33476139 -2.62030329 9.49796757 -1 7 C-0.28076792 3.30476048 -0.28076792 3.30476048 0 0 Z " fill="#F2F2F2" transform="translate(108,18)"/>
<path d="M0 0 C4.54225282 12.52816708 5.31855369 24.33976044 4.6875 37.5 C4.65309814 38.24145264 4.61869629 38.98290527 4.58325195 39.74682617 C4.24257569 45.23549925 3.81865366 50.87823739 0.125 55.1875 C-0.57625 55.785625 -1.2775 56.38375 -2 57 C-2.7425 57.7425 -3.485 58.485 -4.25 59.25 C-4.8275 59.8275 -5.405 60.405 -6 61 C-5.01 58.03 -4.02 55.06 -3 52 C-5.75383923 53.37691962 -6.51483101 55.36720042 -8 58 C-8.66 57.67 -9.32 57.34 -10 57 C-9.60167969 56.59394531 -9.20335938 56.18789063 -8.79296875 55.76953125 C-2.50497382 48.10460312 -2.35416811 38.88731107 -1.29248047 29.40185547 C-0.93501208 26.46631787 -0.40169752 23.58472644 0.1875 20.6875 C1.02016826 16.37964603 1.16536347 12.38213189 1 8 C-1.31 7.67 -3.62 7.34 -6 7 C-6.6875 5.1875 -6.6875 5.1875 -7 3 C-4.8243318 -0.20624788 -4.07796486 0 0 0 Z " fill="#A0A0A0" transform="translate(111,6)"/>
<path d="M0 0 C1.67542976 0.28604898 3.34385343 0.61781233 5 1 C5.03996094 1.61746094 5.07992187 2.23492187 5.12109375 2.87109375 C6.11835295 10.95997395 9.87666315 14.89025304 16 20 C17.32296791 21.01367336 18.65277189 22.01879962 20 23 C19.67 24.65 19.34 26.3 19 28 C18.01 28.33 17.02 28.66 16 29 C12.94433539 26.03693129 10.02864172 22.98279839 7.1875 19.8125 C6.28064453 18.80123047 6.28064453 18.80123047 5.35546875 17.76953125 C4 16 4 16 4 14 C2.68 14 1.36 14 0 14 C0.66 17.63 1.32 21.26 2 25 C1.01 25 0.02 25 -1 25 C-1 25.99 -1 26.98 -1 28 C-1.66 28 -2.32 28 -3 28 C-3.28875 26.906875 -3.5775 25.81375 -3.875 24.6875 C-4.81893204 20.95986155 -4.81893204 20.95986155 -7 18 C-7.125 14.8125 -7.125 14.8125 -7 12 C-3.25 10 -3.25 10 -1 10 C-1.01740234 9.04287109 -1.01740234 9.04287109 -1.03515625 8.06640625 C-1.04417969 7.24011719 -1.05320312 6.41382812 -1.0625 5.5625 C-1.07410156 4.73878906 -1.08570312 3.91507812 -1.09765625 3.06640625 C-1 1 -1 1 0 0 Z " fill="#A0A0A0" transform="translate(75,71)"/>
<path d="M0 0 C1.875 0.3125 1.875 0.3125 4 1 C6.05581 4.083715 6.21056705 5.1056705 6.5625 8.625 C7.76382942 15.24199994 11.897893 18.91664431 17 23 C17.91265625 23.52722656 18.8253125 24.05445312 19.765625 24.59765625 C20.50296875 25.06042969 21.2403125 25.52320312 22 26 C22.65325876 29.73290719 22.14201526 30.78697711 20 34 C17.171875 34.49609375 17.171875 34.49609375 14 34 C11.515625 31.84765625 11.515625 31.84765625 9.25 29.0625 C6.5346863 25.52238203 6.5346863 25.52238203 3 23 C2.53763293 26.93182098 2.53763293 26.93182098 4.71484375 28.78125 C5.44832031 29.3484375 6.18179688 29.915625 6.9375 30.5 C9.9498053 32.83759141 11.46795988 34.14904292 12 38 C1.81093394 47 1.81093394 47 -5 47 C-6.31291016 47.01740234 -6.31291016 47.01740234 -7.65234375 47.03515625 C-10.10356564 47.05922154 -12.54920991 47.0443805 -15 47 C-15 46.67 -15 46.34 -15 46 C-13.98679688 45.90203125 -12.97359375 45.8040625 -11.9296875 45.703125 C-10.57802945 45.55294077 -9.22647183 45.40185077 -7.875 45.25 C-7.20984375 45.188125 -6.5446875 45.12625 -5.859375 45.0625 C0.03980312 44.36847905 3.84328762 42.15671238 8 38 C8.13440778 35.57080135 8.13440778 35.57080135 7 33 C6.01 32.278125 5.02 31.55625 4 30.8125 C1.68853496 29.09825559 1.07511897 28.30903374 0.3828125 25.4609375 C0.15069565 22.9639229 0.00973675 20.50721405 0 18 C1.32 18 2.64 18 4 18 C5.875 20.5625 5.875 20.5625 6.8671875 22.203125 C8.12365059 24.19613541 9.50370013 25.99287905 11 27.8125 C11.474375 28.39644531 11.94875 28.98039062 12.4375 29.58203125 C14.25323258 31.22980856 15.60815592 31.6030776 18 32 C18.92645689 29.74125652 18.92645689 29.74125652 19 27 C17.0269674 24.51807224 17.0269674 24.51807224 14.25 22.375 C13.34765625 21.61960937 12.4453125 20.86421875 11.515625 20.0859375 C10.09328405 18.90654299 8.67047056 17.72771621 7.24609375 16.55078125 C5.52825907 14.41291176 5.26581662 12.49752922 4.8125 9.8125 C4.65394531 8.91144531 4.49539062 8.01039062 4.33203125 7.08203125 C4.22246094 6.39496094 4.11289063 5.70789063 4 5 C2.68 5 1.36 5 0 5 C0 7.97 0 10.94 0 14 C-1.98 14.66 -3.96 15.32 -6 16 C-6.37936287 20.29496459 -6.37936287 20.29496459 -4.5 24 C-2.46637197 26.71150404 -2.77490228 28.69856678 -3 32 C-2.01 32.33 -1.02 32.66 0 33 C-0.99 33.495 -0.99 33.495 -2 34 C-4.94844982 31.56432406 -5.35383624 29.69236434 -6 26 C-6.66 25.01 -7.32 24.02 -8 23 C-8.39958487 19.57982443 -8.5635348 16.12706959 -7 13 C-5.02 13 -3.04 13 -1 13 C-1.309375 12.236875 -1.61875 11.47375 -1.9375 10.6875 C-2.67893593 8.81210323 -3.36228217 6.91315348 -4 5 C-2.0625 2.3125 -2.0625 2.3125 0 0 Z " fill="#D0D0D0" transform="translate(75,67)"/>
<path d="M0 0 C5.12219354 0.81955097 7.31132728 1.90205547 10.4375 6.125 C11.30957195 7.40464604 12.16999962 8.6926734 13 10 C12.690625 10.598125 12.38125 11.19625 12.0625 11.8125 C10.89790296 14.08956772 10.89790296 14.08956772 10 17 C12.31 17 14.62 17 17 17 C18.53597454 20.07194908 18.2265038 22.60244293 18 26 C16.27516103 30.72061191 14.51790439 32.80210057 10 35 C10.93802563 33.04577993 11.90416838 31.15241117 13.05859375 29.31640625 C15.41147332 25.71335712 15.41147332 25.71335712 15.75 21.5625 C15.5025 21.046875 15.255 20.53125 15 20 C13.96875 19.938125 12.9375 19.87625 11.875 19.8125 C7.03766986 18.7982211 5.53177358 17.37123841 2 14 C1.44183594 13.56816406 0.88367188 13.13632812 0.30859375 12.69140625 C-1 11 -1 11 -1.07421875 8.30078125 C-0.94660156 7.31464844 -0.81898437 6.32851563 -0.6875 5.3125 C-0.56761719 4.31863281 -0.44773437 3.32476563 -0.32421875 2.30078125 C-0.21722656 1.54152344 -0.11023438 0.78226563 0 0 Z " fill="#9F9F9F" transform="translate(81,15)"/>
<path d="M0 0 C2 2 2 2 2.375 5.375 C3.06288198 9.3647155 3.91645726 10.51327198 7 13 C7.1546875 12.2265625 7.1546875 12.2265625 7.3125 11.4375 C8.24263866 8.13973565 9.61395512 5.13366668 11 2 C12.53173564 5.06347129 11.52332871 7.68558485 11 11 C11 11.99 11 12.98 11 14 C11.66 13.67 12.32 13.34 13 13 C13.65772428 9.97065509 13.65772428 9.97065509 14 7 C14.33 7 14.66 7 15 7 C15 12.94 15 18.88 15 25 C7.82939771 23.56587954 3.41755196 19.78146165 -1 14 C-2.08318152 9.2646253 -2.21296387 4.42592774 0 0 Z " fill="#A0A0A0" transform="translate(25,86)"/>
<path d="M0 0 C2.375 -0.1875 2.375 -0.1875 5 0 C7 3 7 3 7 6 C7.99 6.33 8.98 6.66 10 7 C11.53219607 8.99142571 12.85670043 11.06933401 14.20703125 13.1875 C16.62308983 15.62987731 18.65121364 15.70108462 22 16 C22.75883986 30.01745847 22.75883986 30.01745847 18 36 C16.515 36.495 16.515 36.495 15 37 C15.50603992 34.83125748 15.99983813 33.00032373 17 31 C17.06950541 29.45976004 17.08452357 27.91665012 17.0625 26.375 C17.05347656 25.55773437 17.04445313 24.74046875 17.03515625 23.8984375 C17.02355469 23.27195312 17.01195313 22.64546875 17 22 C14.69 22 12.38 22 10 22 C10.57584432 19.61435923 11.22227595 17.33317216 12 15 C9.31073745 9.89444516 6.37090073 6.99490599 1 5 C0.1875 2.375 0.1875 2.375 0 0 Z " fill="#747474" transform="translate(81,10)"/>
<path d="M0 0 C0.33 0 0.66 0 1 0 C1.28875 1.11375 1.5775 2.2275 1.875 3.375 C2.69241329 7.00291092 2.69241329 7.00291092 5 9 C5.7331521 14.39082427 4.83493278 18.92695054 3 24 C2.85247147 25.35189781 2.72872101 26.7065375 2.625 28.0625 C1.95422491 32.28838305 0.93118642 33.97425918 -2 37 C-1.54856216 34.66757115 -1.09168559 32.3492451 -0.48828125 30.05078125 C1.05039223 23.97247537 1.21032188 18.25123362 1 12 C0.34 11.67 -0.32 11.34 -1 11 C-2.06576339 15.71980928 -3.09131194 20.43491722 -4 25.1875 C-4.73159845 28.90936197 -5.68589189 32.43313512 -7 36 C-7.33 36 -7.66 36 -8 36 C-8.28693656 30.39169452 -6.92424812 25.59846703 -5.33398438 20.30273438 C-4.12691327 16.16996747 -4.12691327 16.16996747 -5 12 C-5.99 12.495 -5.99 12.495 -7 13 C-6.1875 10.5625 -6.1875 10.5625 -5 8 C-4.01 7.67 -3.02 7.34 -2 7 C-0.77030122 3.48809191 -0.77030122 3.48809191 0 0 Z " fill="#D0D0D0" transform="translate(115,52)"/>
<path d="M0 0 C1.67542976 0.28604898 3.34385343 0.61781233 5 1 C5.33 1.99 5.66 2.98 6 4 C5.69320312 4.58265625 5.38640625 5.1653125 5.0703125 5.765625 C3.60027152 8.83446968 3.80736348 11.36817399 3.875 14.75 C3.90207031 16.50570312 3.90207031 16.50570312 3.9296875 18.296875 C3.95289063 19.18890625 3.97609375 20.0809375 4 21 C4.99 21.33 5.98 21.66 7 22 C4 23 4 23 1.8125 22.0625 C0.9153125 21.5365625 0.9153125 21.5365625 0 21 C0 21.99 0 22.98 0 24 C1.94009522 25.70532323 1.94009522 25.70532323 4 27 C0.44219804 26.39009109 -2.6828589 25.4216319 -6 24 C-5.01 22.515 -5.01 22.515 -4 21 C-4.33 20.34 -4.66 19.68 -5 19 C-3.68 19 -2.36 19 -1 19 C-1.08378906 18.3709375 -1.16757812 17.741875 -1.25390625 17.09375 C-1.92244936 11.47460289 -2.01367691 6.57522301 -1 1 C-0.67 0.67 -0.34 0.34 0 0 Z " fill="#DADADA" transform="translate(41,92)"/>
<path d="M0 0 C0.60772098 3.38587403 0.36922489 5.42145076 -1.48828125 8.33203125 C-8.41960786 17.21503575 -8.41960786 17.21503575 -13.5625 17.875 C-19.089055 18.34893422 -23.35269499 16.99587088 -28 14 C-28.33 13.34 -28.66 12.68 -29 12 C-23.125 12.875 -23.125 12.875 -22 14 C-14.94521776 13.53287809 -14.94521776 13.53287809 -9 10 C-7.5744692 7.70423237 -6.31546482 5.38096827 -5.11328125 2.9609375 C-3.70176076 0.47468036 -2.84993872 0 0 0 Z " fill="#7F7F7F" transform="translate(64,20)"/>
<path d="M0 0 C0.99 0.33 1.98 0.66 3 1 C3.29890597 9.88414981 2.69675022 17.81433879 -1 26 C-1.66 24.68 -2.32 23.36 -3 22 C-3.99 22.99 -4.98 23.98 -6 25 C-5.2744391 20.18560113 -4.19867409 15.52467894 -3 10.8125 C-2.82210937 10.10158203 -2.64421875 9.39066406 -2.4609375 8.65820312 C-1.72394123 5.73496794 -0.95370209 2.86110628 0 0 Z " fill="#A0A0A0" transform="translate(114,63)"/>
<path d="M0 0 C4.56454251 0.54339792 7.9728176 1.79463821 12 4 C12 4.33 12 4.66 12 5 C8.49870129 5.10003711 5.41906232 4.72978305 2 4 C2.13277344 5.05058594 2.26554687 6.10117187 2.40234375 7.18359375 C2.67555482 9.34556968 2.94607164 11.50776289 3.20996094 13.67089844 C3.57619657 16.67085744 3.94532381 19.6604057 4.42578125 22.64453125 C5.21788745 27.78844983 4.52980148 32.02987885 3.546875 37.1171875 C2.29624946 45.99662887 2.27998282 55.04510238 2 64 C1.67 64 1.34 64 1 64 C0.19531152 55.31153928 -0.24521782 47.03738482 1 38.375 C2.49279274 27.79638388 1.96825981 17.5473157 -0.6953125 7.1484375 C-1.06273537 4.55763523 -0.62861311 2.52330615 0 0 Z " fill="#D0D0D0" transform="translate(27,32)"/>
<path d="M0 0 C1.134375 0.020625 2.26875 0.04125 3.4375 0.0625 C4.4275 2.3725 5.4175 4.6825 6.4375 7.0625 C8.0875 6.7325 9.7375 6.4025 11.4375 6.0625 C11.7675 7.7125 12.0975 9.3625 12.4375 11.0625 C5.94417229 11.0625 0.86079734 9.67803156 -4.5625 6.0625 C-4.8125 3.5 -4.8125 3.5 -4.5625 1.0625 C-3.5625 0.0625 -3.5625 0.0625 0 0 Z " fill="#D0D0D0" transform="translate(64.5625,53.9375)"/>
<path d="M0 0 C0.66 0.33 1.32 0.66 2 1 C3.41918243 6.19351981 3.18395549 11.47092448 3.1875 16.8125 C3.19974609 17.77220703 3.21199219 18.73191406 3.22460938 19.72070312 C3.23645639 25.50599537 2.66051663 30.45400571 1 36 C0.34 36 -0.32 36 -1 36 C-1.09180454 30.15511099 -1.10935194 24.38138189 -0.5 18.5625 C0.14245445 12.37322052 0.08894094 6.21598363 0 0 Z " fill="#747474" transform="translate(25,42)"/>
<path d="M0 0 C7.38461538 -0.36923077 7.38461538 -0.36923077 10.5 1.5 C10.995 1.995 11.49 2.49 12 3 C11.25 7.75 11.25 7.75 9 10 C7.1875 10 7.1875 10 5 9 C0 3.77272727 0 3.77272727 0 0 Z " fill="#FBFBFB" transform="translate(92,12)"/>
<path d="M0 0 C0 0.33 0 0.66 0 1 C-0.94875 1.309375 -1.8975 1.61875 -2.875 1.9375 C-5.86080408 2.87394742 -5.86080408 2.87394742 -8 4 C-10.70872518 4.39227838 -13.40751693 4.74569498 -16.125 5.0625 C-17.25615234 5.19881836 -17.25615234 5.19881836 -18.41015625 5.33789062 C-20.27304188 5.56190852 -22.13647252 5.78138573 -24 6 C-24 6.66 -24 7.32 -24 8 C-30.57315478 8.36517527 -35.79485526 7.13619737 -42 5 C-42 4.67 -42 4.34 -42 4 C-41.01604248 3.9498877 -40.03208496 3.89977539 -39.01831055 3.84814453 C-35.36690398 3.65976319 -31.71623781 3.45938101 -28.06567383 3.25537109 C-26.48577192 3.16876113 -24.90568817 3.08540436 -23.32543945 3.00537109 C-21.05364182 2.88974709 -18.78275573 2.76242811 -16.51171875 2.6328125 C-15.80536789 2.59938751 -15.09901703 2.56596252 -14.3712616 2.53152466 C-8.94504398 2.20379126 -5.53268064 -0.24589692 0 0 Z " fill="#A0A0A0" transform="translate(85,120)"/>
<path d="M0 0 C0.66 0.33 1.32 0.66 2 1 C1.57847656 1.50789063 1.15695313 2.01578125 0.72265625 2.5390625 C-2.53879356 6.63697826 -4.72899438 9.57988765 -5 15 C-6.32 14.34 -7.64 13.68 -9 13 C-9 14.65 -9 16.3 -9 18 C-11.34168764 14.48746854 -11.49623677 13.13530644 -11 9 C-8.24556224 4.37254457 -4.73698851 2.28077224 0 0 Z " fill="#828282" transform="translate(97,46)"/>
<path d="M0 0 C2.91691481 8.19080097 4.62867565 15.28585694 4 24 C3.34 24.33 2.68 24.66 2 25 C2.01160156 24.443125 2.02320312 23.88625 2.03515625 23.3125 C2.09676433 18.10221657 1.74999344 13.1562049 1 8 C-1.31 7.67 -3.62 7.34 -6 7 C-6.6875 5.1875 -6.6875 5.1875 -7 3 C-4.8243318 -0.20624788 -4.07796486 0 0 0 Z " fill="#747474" transform="translate(111,6)"/>
<path d="M0 0 C2.48620049 1.06551449 4.03717151 2.03837059 5.9375 4 C7.88845448 6.17253057 7.88845448 6.17253057 10.6875 6.9375 C11.450625 7.288125 12.21375 7.63875 13 8 C13.8125 10.625 13.8125 10.625 14 13 C12.02 13.99 12.02 13.99 10 15 C7.02418647 12.22941499 5.02092308 9.51464884 3 6 C2.443125 5.278125 1.88625 4.55625 1.3125 3.8125 C0 2 0 2 0 0 Z " fill="#818181" transform="translate(81,85)"/>
<path d="M0 0 C1.32 0.66 2.64 1.32 4 2 C4.05553449 3.33282775 4.09346189 4.66638865 4.125 6 C4.14820312 6.7425 4.17140625 7.485 4.1953125 8.25 C3.98276054 11.24273159 3.26203041 13.96637337 2.49462891 16.85888672 C1.5196758 21.07919212 1.28312081 25.42015588 0.96484375 29.73242188 C0.44981428 35.07220854 -1.07612107 38.49580594 -4 43 C-4.6875 41.25 -4.6875 41.25 -5 39 C-4.53207031 38.46761719 -4.06414062 37.93523438 -3.58203125 37.38671875 C-1.32812907 33.98638731 -1.29972919 30.52503556 -1 26.5625 C-0.29103037 18.81728188 1.00418473 11.53087628 3 4 C2.34 4 1.68 4 1 4 C0.67 4.99 0.34 5.98 0 7 C0 4.69 0 2.38 0 0 Z " fill="#D0D0D0" transform="translate(108,18)"/>
<path d="M0 0 C0.33 0.66 0.66 1.32 1 2 C1.99 1.67 2.98 1.34 4 1 C4.33 2.98 4.66 4.96 5 7 C5.99 7.33 6.98 7.66 8 8 C5 9 5 9 2.8125 8.0625 C2.214375 7.711875 1.61625 7.36125 1 7 C1 7.99 1 8.98 1 10 C2.94009522 11.70532323 2.94009522 11.70532323 5 13 C1.44219804 12.39009109 -1.6828589 11.4216319 -5 10 C-4.34 9.01 -3.68 8.02 -3 7 C-3.33 6.34 -3.66 5.68 -4 5 C-2.68 5 -1.36 5 0 5 C0 3.35 0 1.7 0 0 Z " fill="#D0D0D0" transform="translate(40,106)"/>
<path d="M0 0 C0.33 0.66 0.66 1.32 1 2 C2.65 1.34 4.3 0.68 6 0 C5.51395427 4.37441156 4.26143936 6.11129656 1 9 C0.2575 9.7425 -0.485 10.485 -1.25 11.25 C-1.8275 11.8275 -2.405 12.405 -3 13 C-2.01 10.03 -1.02 7.06 0 4 C-2.75383923 5.37691962 -3.51483101 7.36720042 -5 10 C-5.66 9.67 -6.32 9.34 -7 9 C-6.02180976 7.68677212 -5.0424189 6.37443848 -4.0625 5.0625 C-3.51722656 4.33160156 -2.97195312 3.60070313 -2.41015625 2.84765625 C-1 1 -1 1 0 0 Z " fill="#A0A0A0" transform="translate(108,54)"/>
<path d="M0 0 C2.71097227 0.37392721 3.82000467 0.81357627 5.75 2.8125 C7 5 7 5 7 9 C4.6875 9.3125 4.6875 9.3125 2 9 C0.125 6.75 0.125 6.75 -1 4 C-0.6875 1.6875 -0.6875 1.6875 0 0 Z " fill="#E2E2E2" transform="translate(84,18)"/>
<path d="M0 0 C0.33 0 0.66 0 1 0 C1 9.9 1 19.8 1 30 C0.67 30 0.34 30 0 30 C-2.24693952 19.6279667 -3.09535223 10.25335427 0 0 Z " fill="#D0D0D0" transform="translate(22,67)"/>
<path d="M0 0 C4.18423892 3.50897269 8.19588166 7.08060535 12 11 C12.66 10.67 13.32 10.34 14 10 C14.66 9.67 15.32 9.34 16 9 C16 10.65 16 12.3 16 14 C11.11085252 13.55309438 8.73212063 11.39914757 5.1875 8.125 C3.72376953 6.79855469 3.72376953 6.79855469 2.23046875 5.4453125 C0 3 0 3 0 0 Z " fill="#A0A0A0" transform="translate(24,97)"/>
<path d="M0 0 C2.72106694 2.72106694 2.60655572 4.84776311 3.125 8.625 C3.29257812 9.81351563 3.46015625 11.00203125 3.6328125 12.2265625 C3.75398438 13.14179687 3.87515625 14.05703125 4 15 C0.125 13.25 0.125 13.25 -1 11 C-1.09499503 9.50243129 -1.12987198 8.00057068 -1.125 6.5 C-1.12757812 5.7059375 -1.13015625 4.911875 -1.1328125 4.09375 C-1 2 -1 2 0 0 Z " fill="#747474" transform="translate(25,86)"/>
<path d="M0 0 C1.921875 0.17578125 1.921875 0.17578125 4 1 C9.00522581 8.09073656 8.42895749 16.73065276 8 25 C7.67 25 7.34 25 7 25 C6.87882812 24.09378906 6.75765625 23.18757813 6.6328125 22.25390625 C5.69200049 15.41492661 4.61993055 8.71114084 3 2 C1.68 1.67 0.36 1.34 -1 1 C-0.67 0.67 -0.34 0.34 0 0 Z " fill="#A0A0A0" transform="translate(108,4)"/>
<path d="M0 0 C2.64 0.33 5.28 0.66 8 1 C8.66 2.98 9.32 4.96 10 7 C6 7 6 7 4.296875 5.46875 C3.78640625 4.8190625 3.2759375 4.169375 2.75 3.5 C2.22921875 2.8503125 1.7084375 2.200625 1.171875 1.53125 C0.78515625 1.0259375 0.3984375 0.520625 0 0 Z " fill="#747474" transform="translate(29,101)"/>
<path d="M0 0 C3.875 1.875 3.875 1.875 5 3 C5.33 2.01 5.66 1.02 6 0 C6.66 0 7.32 0 8 0 C8.33 2.64 8.66 5.28 9 8 C8.01 8 7.02 8 6 8 C6 8.99 6 9.98 6 11 C5.34 11 4.68 11 4 11 C3.71125 9.9275 3.4225 8.855 3.125 7.75 C2.27179891 4.90599636 1.4363497 2.56491017 0 0 Z " fill="#A0A0A0" transform="translate(68,88)"/>
<path d="M0 0 C0.99 0 1.98 0 3 0 C3.33 3.3 3.66 6.6 4 10 C3.01 10.495 3.01 10.495 2 11 C1.34 10.67 0.68 10.34 0 10 C0 6.7 0 3.4 0 0 Z " fill="#747474" transform="translate(76,73)"/>
<path d="M0 0 C4.22435427 1.56457565 6.49058647 4.343426 9 8 C9.125 10.625 9.125 10.625 8 13 C5.4375 15.3125 5.4375 15.3125 3 17 C3.375 15.0625 3.375 15.0625 4 13 C4.66 12.67 5.32 12.34 6 12 C5.62473335 6.62117809 3.95937303 4.55328348 0 1 C0 0.67 0 0.34 0 0 Z " fill="#D0D0D0" transform="translate(66,0)"/>
<path d="M0 0 C0.8971875 0.309375 0.8971875 0.309375 1.8125 0.625 C-2.18152249 3.39883725 -5.44639314 4.18486978 -10.25 4.75 C-15.77382535 5.4010203 -15.77382535 5.4010203 -21.1875 6.625 C-21.1875 5.965 -21.1875 5.305 -21.1875 4.625 C-16.57906474 2.80588082 -12.35170959 2.26949829 -7.45703125 1.96875 C-4.35522637 1.49894134 -3.16800765 -0.54308703 0 0 Z " fill="#D0D0D0" transform="translate(82.1875,121.375)"/>
<path d="M0 0 C0.886875 0.639375 1.77375 1.27875 2.6875 1.9375 C6.72595357 4.45200883 9.12270343 5.29202391 13.8125 4.5625 C14.8953125 4.2840625 14.8953125 4.2840625 16 4 C11.77875399 7.98003195 11.77875399 7.98003195 8.5625 8.0625 C5.00510611 6.58748302 2.79315813 4.66324379 0 2 C0 1.34 0 0.68 0 0 Z " fill="#A0A0A0" transform="translate(88,64)"/>
<path d="M0 0 C0.66 0 1.32 0 2 0 C2.125 7.75 2.125 7.75 1 10 C0.01 10 -0.98 10 -2 10 C-2.17942163 6.05272412 -2.09350689 3.4019487 0 0 Z " fill="#747474" transform="translate(111,46)"/>
<path d="M0 0 C0.8971875 0.309375 0.8971875 0.309375 1.8125 0.625 C-0.1675 1.615 -0.1675 1.615 -2.1875 2.625 C0.7825 3.12 0.7825 3.12 3.8125 3.625 C3.8125 3.955 3.8125 4.285 3.8125 4.625 C-3.61607143 6.76785714 -3.61607143 6.76785714 -7.1875 7.625 C-6.1975 6.305 -5.2075 4.985 -4.1875 3.625 C-5.8375 3.625 -7.4875 3.625 -9.1875 3.625 C-8.2903125 3.191875 -8.2903125 3.191875 -7.375 2.75 C-1.52083333 -0.26071429 -1.52083333 -0.26071429 0 0 Z " fill="#A0A0A0" transform="translate(54.1875,4.375)"/>
<path d="M0 0 C0.67095703 0.63228516 0.67095703 0.63228516 1.35546875 1.27734375 C5.98035996 5.6493576 5.98035996 5.6493576 12 7 C14.75256244 6.15020525 14.75256244 6.15020525 17 5 C14.75828653 7.75903196 13.63988574 8.90469787 10.0625 9.4375 C6.63245944 8.94749421 4.75969406 8.06977055 2 6 C0 3 0 3 0 0 Z " fill="#D0D0D0" transform="translate(87,64)"/>
<path d="M0 0 C0.33 1.32 0.66 2.64 1 4 C2.32 3.34 3.64 2.68 5 2 C5 3.98 5 5.96 5 8 C3.68 7.34 2.36 6.68 1 6 C1 7.65 1 9.3 1 11 C-1.30441554 7.54337669 -1.25860135 6.05142119 -1 2 C-0.67 1.34 -0.34 0.68 0 0 Z " fill="#A0A0A0" transform="translate(87,53)"/>
<path d="M0 0 C0.66 0.66 1.32 1.32 2 2 C2.99 1.34 3.98 0.68 5 0 C4.01 2.97 3.02 5.94 2 9 C1.34 7.68 0.68 6.36 0 5 C-0.99 5.99 -1.98 6.98 -3 8 C-2.25 2.25 -2.25 2.25 0 0 Z " fill="#A0A0A0" transform="translate(111,80)"/>
<path d="M0 0 C2.84574968 1.27568089 5.18089981 2.41496289 7 5 C6.91225183 8.4221787 6.22726163 9.74519151 3.9375 12.3125 C2.9784375 13.1478125 2.9784375 13.1478125 2 14 C1.34 13.67 0.68 13.34 0 13 C0.680625 12.2575 1.36125 11.515 2.0625 10.75 C4.21505694 8.27926862 4.21505694 8.27926862 3.9375 5.9375 C2.86392534 3.71877904 1.56231572 1.90194957 0 0 Z " fill="#A0A0A0" transform="translate(77,96)"/>
<path d="M0 0 C0.99 0.33 1.98 0.66 3 1 C3.33 3.64 3.66 6.28 4 9 C2.35 7.68 0.7 6.36 -1 5 C-0.67 3.35 -0.34 1.7 0 0 Z " fill="#747474" transform="translate(70,83)"/>
<path d="M0 0 C0.33 0 0.66 0 1 0 C1.08131463 1.43655854 1.13933559 2.8744483 1.1875 4.3125 C1.23970703 5.51326172 1.23970703 5.51326172 1.29296875 6.73828125 C0.93801608 9.47851584 0.10633718 10.29171079 -2 12 C-2.05422947 10.5629191 -2.09289723 9.12524538 -2.125 7.6875 C-2.14820312 6.88699219 -2.17140625 6.08648437 -2.1953125 5.26171875 C-2 3 -2 3 0 0 Z " fill="#747474" transform="translate(114,71)"/>
<path d="M0 0 C2.125 0.9375 2.125 0.9375 4 2 C4 3.32 4 4.64 4 6 C2.35 5.67 0.7 5.34 -1 5 C-1.33 3.68 -1.66 2.36 -2 1 C-1.34 0.67 -0.68 0.34 0 0 Z " fill="#999999" transform="translate(64,55)"/>
<path d="M0 0 C0.66 1.32 1.32 2.64 2 4 C0.02 3.34 -1.96 2.68 -4 2 C-4.66 2.66 -5.32 3.32 -6 4 C-8.125 3.625 -8.125 3.625 -10 3 C-6.68152292 -0.06320961 -4.44849969 -0.3033068 0 0 Z " fill="#A0A0A0" transform="translate(66,0)"/>
<path d="M0 0 C0.99 0.33 1.98 0.66 3 1 C3 2.32 3 3.64 3 5 C1.35 5 -0.3 5 -2 5 C-2.66 3.68 -3.32 2.36 -4 1 C-2.68 1.33 -1.36 1.66 0 2 C0 1.34 0 0.68 0 0 Z " fill="#D0D0D0" transform="translate(88,22)"/>
<path d="M0 0 C0.33 0 0.66 0 1 0 C1.125 6.625 1.125 6.625 0 10 C-0.99 10.33 -1.98 10.66 -3 11 C-2.32829194 7.1936543 -1.27253436 3.64793184 0 0 Z " fill="#A0A0A0" transform="translate(3,56)"/>
<path d="M0 0 C1.10844919 3.32534757 0.84454356 5.62182575 0 9 C-1.32 8.34 -2.64 7.68 -4 7 C-3.67 6.34 -3.34 5.68 -3 5 C-2.67 5.33 -2.34 5.66 -2 6 C-1.34 4.02 -0.68 2.04 0 0 Z " fill="#D0D0D0" transform="translate(33,91)"/>
<path d="M0 0 C0.5775 0.639375 1.155 1.27875 1.75 1.9375 C3.98062401 3.98223868 5.07436391 4.58205199 8 5 C6.02 5.99 6.02 5.99 4 7 C2 5.1875 2 5.1875 0 3 C0 2.01 0 1.02 0 0 Z " fill="#A0A0A0" transform="translate(92,61)"/>
<path d="M0 0 C0 3 0 3 -1.75 5.125 C-3.95974524 6.96645436 -5.20090866 7.60012981 -8 8 C-5.33333333 5.33333333 -2.66666667 2.66666667 0 0 Z " fill="#A0A0A0" transform="translate(25,23)"/>
<path d="M0 0 C0.99 0.33 1.98 0.66 3 1 C2.625 2.9375 2.625 2.9375 2 5 C1.01 5.495 1.01 5.495 0 6 C-0.38218767 4.34385343 -0.71395102 2.67542976 -1 1 C-0.67 0.67 -0.34 0.34 0 0 Z " fill="#FBFBFB" transform="translate(42,93)"/>
</svg>
