<?xml version="1.0" encoding="UTF-8"?>
<svg version="1.1" xmlns="http://www.w3.org/2000/svg" width="128" height="128">
<path d="M0 0 C42.24 0 84.48 0 128 0 C128 42.24 128 84.48 128 128 C85.76 128 43.52 128 0 128 C0 85.76 0 43.52 0 0 Z " fill="#FCFCFC" transform="translate(0,0)"/>
<path d="M0 0 C10.10851707 -0.25027965 20.10412879 0.0989596 30.1875 0.875 C31.26185303 0.95347168 32.33620605 1.03194336 33.44311523 1.11279297 C41.03088972 1.73549605 46.86009997 2.24057162 52.3125 8 C52.98925781 8.70125 53.66601562 9.4025 54.36328125 10.125 C56 12 56 12 57 14 C59.02463255 14.65213292 59.02463255 14.65213292 61 15 C61 15.66 61 16.32 61 17 C62.32 17.33 63.64 17.66 65 18 C65 18.66 65 19.32 65 20 C69.64569382 20.15698532 69.64569382 20.15698532 74.1875 19.375 C76 19 76 19 78.0625 19.6875 C81.62349388 22.09978618 82.9867834 24.82764254 84.3125 28.8125 C85.68452841 32.67847588 87.61131052 35.19645353 90.37109375 38.19140625 C93.14951365 41.27631851 95.54871949 44.65339364 98 48 C96.38390319 51.92347204 93.68684993 54.71414265 90.8125 57.75 C89.8156637 58.81831803 88.81957009 59.88732954 87.82421875 60.95703125 C87.0979126 61.73554443 87.0979126 61.73554443 86.35693359 62.52978516 C84.57175837 64.46399264 82.8444236 66.44479053 81.125 68.4375 C78.53502815 71.42545807 75.79675436 74.20324564 73 77 C66.14115668 83.97761267 66.14115668 83.97761267 63 93 C62.01 93 61.02 93 60 93 C58.80990961 91.54544508 57.6237973 90.08713291 56.47265625 88.6015625 C54.04477017 85.96115589 51.17685093 84.61957106 48 83 C48 81.68 48 80.36 48 79 C49.4609375 77.578125 49.4609375 77.578125 51.375 76.25 C54.75303474 73.54622369 55.65533185 71.61831092 56.421875 67.27734375 C57.97530427 61.15809197 61.65522126 55.2227348 66 50.6875 C68.3748612 48.14166637 68.3748612 48.14166637 67.625 44.9375 C64.44699252 39.19264032 60.96951641 36.71060796 54.921875 34.67578125 C51.45196579 33.4556709 48.7554226 31.80938135 46.25 29.125 C42.97770214 26.03449647 39.23490125 23.56398545 35 22 C31.23034119 22.28461214 28.94703802 23.44465575 26 25.75 C25.31679688 26.28367187 24.63359375 26.81734375 23.9296875 27.3671875 C22.23203289 28.80366448 20.66843751 30.27676589 19.125 31.875 C18.073125 32.926875 18.073125 32.926875 17 34 C16.34 34 15.68 34 15 34 C15 34.66 15 35.32 15 36 C13.95199219 36.48919922 13.95199219 36.48919922 12.8828125 36.98828125 C11.97273438 37.42527344 11.06265625 37.86226562 10.125 38.3125 C9.22007813 38.74175781 8.31515625 39.17101563 7.3828125 39.61328125 C4.73550524 40.9199388 4.73550524 40.9199388 3 44 C2.01 43.67 1.02 43.34 0 43 C-0.77025071 38.90168492 -1.12827506 35.02733356 -1.1328125 30.859375 C-1.13410156 29.70566406 -1.13539062 28.55195312 -1.13671875 27.36328125 C-1.13285156 26.17089844 -1.12898438 24.97851562 -1.125 23.75 C-1.12886719 22.57308594 -1.13273437 21.39617188 -1.13671875 20.18359375 C-1.12916524 13.39298519 -0.84772495 6.73931683 0 0 Z " fill="#140907" transform="translate(20,9)"/>
<path d="M0 0 C0.76133743 0.01395309 1.52267487 0.02790619 2.30708313 0.0422821 C3.59929024 0.06274345 3.59929024 0.06274345 4.91760254 0.08361816 C5.85606522 0.10437912 6.79452789 0.12514008 7.76142883 0.14653015 C9.20290031 0.17483162 9.20290031 0.17483162 10.67349243 0.20370483 C12.71384786 0.24568439 14.7541479 0.29043111 16.79438782 0.33769226 C19.90633638 0.40755578 23.01830346 0.4620919 26.13056946 0.51567078 C28.11170978 0.55834803 30.09283067 0.60193879 32.07392883 0.64653015 C33.00227036 0.66121841 33.93061188 0.67590668 34.88708496 0.69104004 C46.1975282 0.98884217 46.1975282 0.98884217 50.00752258 4.9004364 C50.45869446 5.58363953 50.90986633 6.26684265 51.37471008 6.9707489 C53.04596749 9.40726627 54.46329992 11.29809716 56.62471008 13.3457489 C58.24971008 15.0957489 58.24971008 15.0957489 58.24971008 19.0957489 C54.82961303 17.95571655 53.96101566 16.87404692 51.68721008 14.1582489 C47.56539913 9.27412452 45.66805732 7.51853886 39.18022156 6.89772034 C36.64589097 6.69217546 34.11076987 6.51361873 31.57392883 6.34184265 C30.64876968 6.27666946 29.72361053 6.21149628 28.77041626 6.14434814 C25.82621565 5.93763585 22.88172823 5.73538259 19.93721008 5.5332489 C17.93653847 5.3935693 15.93588715 5.25359865 13.93525696 5.11332703 C9.04030345 4.77076132 4.14508797 4.43219338 -0.75028992 4.0957489 C-0.77509154 9.25525059 -0.793198 14.41471721 -0.80522156 19.57426453 C-0.81023643 21.32785141 -0.81704994 23.08143414 -0.82572937 24.83500671 C-0.83791992 27.3620354 -0.8435468 29.88900858 -0.84794617 32.4160614 C-0.85310745 33.19442352 -0.85826874 33.97278564 -0.86358643 34.7747345 C-0.86401712 38.9961438 -0.58615632 42.93666278 0.24971008 47.0957489 C0.90971008 47.0957489 1.56971008 47.0957489 2.24971008 47.0957489 C2.97158508 46.3119989 3.69346008 45.5282489 4.43721008 44.7207489 C7.80522474 41.57726855 9.83326599 41.04831527 14.24971008 40.0957489 C14.24971008 39.4357489 14.24971008 38.7757489 14.24971008 38.0957489 C17.71124854 35.0957489 17.71124854 35.0957489 20.24971008 35.0957489 C20.49076477 34.50406921 20.73181946 33.91238953 20.98017883 33.30278015 C22.49979607 30.66098404 24.04748145 29.48650208 26.56221008 27.7832489 C27.3214679 27.25086609 28.08072571 26.71848328 28.86299133 26.16996765 C31.88415511 24.81019672 33.13440403 25.05409858 36.24971008 26.0957489 C38.78486633 27.36528015 38.78486633 27.36528015 41.31221008 28.9082489 C42.14881165 29.40969421 42.98541321 29.91113953 43.84736633 30.42778015 C46.24971008 32.0957489 46.24971008 32.0957489 48.34346008 34.1973114 C50.95476262 36.79791188 53.85399186 37.72554681 57.24971008 39.0957489 C61.84996333 41.50540537 66.24212406 44.39831009 68.12080383 49.42778015 C68.30174152 53.17264189 66.88655097 54.52473085 64.56221008 57.4082489 C60.27982049 62.97610274 57.04942886 67.95018837 55.31221008 74.7832489 C54.0405687 78.74777792 52.46402051 80.49368808 49.24971008 83.0957489 C45.78984055 84.44288959 43.49664804 83.83732591 39.99971008 82.7832489 C39.0264679 82.50223328 38.05322571 82.22121765 37.05049133 81.9316864 C35.4012874 81.43945538 33.75261046 80.94544191 32.10517883 80.4473114 C26.87248855 78.97661637 21.66448217 78.31310957 16.24971008 79.0957489 C12.97660455 80.99931877 12.97660455 80.99931877 10.24971008 83.0957489 C7.37471008 83.3457489 7.37471008 83.3457489 5.24971008 83.0957489 C4.91971008 82.1057489 4.58971008 81.1157489 4.24971008 80.0957489 C4.76533508 79.1469989 5.28096008 78.1982489 5.81221008 77.2207489 C7.56062262 74.26214178 7.56062262 74.26214178 6.65986633 71.57621765 C4.89538222 68.47248521 3.35189217 67.73134343 0.12471008 66.2832489 C-0.78536804 65.86430359 -1.69544617 65.44535828 -2.63310242 65.01371765 C-3.33177429 64.71078796 -4.03044617 64.40785828 -4.75028992 64.0957489 C-4.99976821 56.80543866 -4.47359898 50.18901212 -2.75028992 43.0957489 C-3.74028992 42.7657489 -4.73028992 42.4357489 -5.75028992 42.0957489 C-5.82560544 38.1855214 -5.87942843 34.27558659 -5.91508484 30.36479187 C-5.93722422 28.39605322 -5.97538344 26.42751529 -6.01396179 24.45903015 C-6.07620654 16.28422029 -5.40752538 8.87039796 -2.75028992 1.0957489 C-1.75028992 0.0957489 -1.75028992 0.0957489 0 0 Z " fill="#F3DEC1" transform="translate(20.750289916992188,4.9042510986328125)"/>
<path d="M0 0 C1.32 0.33 2.64 0.66 4 1 C4 1.66 4 2.32 4 3 C8.64569382 3.15698532 8.64569382 3.15698532 13.1875 2.375 C15 2 15 2 17.0625 2.6875 C20.62349388 5.09978618 21.9867834 7.82764254 23.3125 11.8125 C24.68452841 15.67847588 26.61131052 18.19645353 29.37109375 21.19140625 C32.14951365 24.27631851 34.54871949 27.65339364 37 31 C35.38390319 34.92347204 32.68684993 37.71414265 29.8125 40.75 C28.8156637 41.81831803 27.81957009 42.88732954 26.82421875 43.95703125 C26.34001465 44.47604004 25.85581055 44.99504883 25.35693359 45.52978516 C23.57175837 47.46399264 21.8444236 49.44479053 20.125 51.4375 C17.53502815 54.42545807 14.79675436 57.20324564 12 60 C5.14115668 66.97761267 5.14115668 66.97761267 2 76 C1.01 76 0.02 76 -1 76 C-2.19009039 74.54544508 -3.3762027 73.08713291 -4.52734375 71.6015625 C-6.95522983 68.96115589 -9.82314907 67.61957106 -13 66 C-13 64.68 -13 63.36 -13 62 C-11.5390625 60.578125 -11.5390625 60.578125 -9.625 59.25 C-6.24696526 56.54622369 -5.34466815 54.61831092 -4.578125 50.27734375 C-2.78037945 43.19568389 1.86330438 36.13669562 7 31 C8.66392045 30.32650839 10.33032028 29.6590841 12 29 C14.2361472 26.30120166 14.94916763 24.23567736 15.6875 20.8125 C14.14026936 12.23240283 6.49631534 6.27825622 0 1 C0 0.67 0 0.34 0 0 Z " fill="#E9614D" transform="translate(81,26)"/>
<path d="M0 0 C0.76133743 0.01395309 1.52267487 0.02790619 2.30708313 0.0422821 C3.59929024 0.06274345 3.59929024 0.06274345 4.91760254 0.08361816 C5.85606522 0.10437912 6.79452789 0.12514008 7.76142883 0.14653015 C9.20290031 0.17483162 9.20290031 0.17483162 10.67349243 0.20370483 C12.71384786 0.24568439 14.7541479 0.29043111 16.79438782 0.33769226 C19.90633638 0.40755578 23.01830346 0.4620919 26.13056946 0.51567078 C28.11170978 0.55834803 30.09283067 0.60193879 32.07392883 0.64653015 C33.00227036 0.66121841 33.93061188 0.67590668 34.88708496 0.69104004 C46.1975282 0.98884217 46.1975282 0.98884217 50.00752258 4.9004364 C50.45869446 5.58363953 50.90986633 6.26684265 51.37471008 6.9707489 C53.04596749 9.40726627 54.46329992 11.29809716 56.62471008 13.3457489 C58.24971008 15.0957489 58.24971008 15.0957489 58.24971008 19.0957489 C54.82961303 17.95571655 53.96101566 16.87404692 51.68721008 14.1582489 C47.56539913 9.27412452 45.66805732 7.51853886 39.18022156 6.89772034 C36.64589097 6.69217546 34.11076987 6.51361873 31.57392883 6.34184265 C30.64876968 6.27666946 29.72361053 6.21149628 28.77041626 6.14434814 C25.82621565 5.93763585 22.88172823 5.73538259 19.93721008 5.5332489 C17.93653847 5.3935693 15.93588715 5.25359865 13.93525696 5.11332703 C9.04030345 4.77076132 4.14508797 4.43219338 -0.75028992 4.0957489 C-0.77509154 9.25525059 -0.793198 14.41471721 -0.80522156 19.57426453 C-0.81023643 21.32785141 -0.81704994 23.08143414 -0.82572937 24.83500671 C-0.83791992 27.3620354 -0.8435468 29.88900858 -0.84794617 32.4160614 C-0.85310745 33.19442352 -0.85826874 33.97278564 -0.86358643 34.7747345 C-0.86401712 38.9961438 -0.58615632 42.93666278 0.24971008 47.0957489 C2.61249744 47.32563396 2.61249744 47.32563396 4.87471008 44.5957489 C5.65846008 43.7707489 6.44221008 42.9457489 7.24971008 42.0957489 C7.90971008 42.4257489 8.56971008 42.7557489 9.24971008 43.0957489 C8.58971008 44.4157489 7.92971008 45.7357489 7.24971008 47.0957489 C9.55971008 47.4257489 11.86971008 47.7557489 14.24971008 48.0957489 C14.51783508 49.0651239 14.78596008 50.0344989 15.06221008 51.0332489 C15.45408508 52.0438739 15.84596008 53.0544989 16.24971008 54.0957489 C17.73471008 54.5907489 17.73471008 54.5907489 19.24971008 55.0957489 C18.91971008 57.4057489 18.58971008 59.7157489 18.24971008 62.0957489 C20.55971008 63.4157489 22.86971008 64.7357489 25.24971008 66.0957489 C24.37471008 70.8457489 24.37471008 70.8457489 23.24971008 73.0957489 C21.91637675 73.76241557 20.58304342 74.42908223 19.24971008 75.0957489 C18.91971008 75.7557489 18.58971008 76.4157489 18.24971008 77.0957489 C19.52846008 76.8688739 20.80721008 76.6419989 22.12471008 76.4082489 C28.57608483 75.67560066 34.13359711 77.64639403 39.93721008 80.3457489 C43.22816534 81.41308574 45.90618618 80.75134182 49.24971008 80.0957489 C49.35283508 79.4563739 49.45596008 78.8169989 49.56221008 78.1582489 C49.78908508 77.4776239 50.01596008 76.7969989 50.24971008 76.0957489 C51.23971008 75.7657489 52.22971008 75.4357489 53.24971008 75.0957489 C53.16721008 74.3326239 53.08471008 73.5694989 52.99971008 72.7832489 C53.08221008 71.8963739 53.16471008 71.0094989 53.24971008 70.0957489 C55.26533508 68.42778015 55.26533508 68.42778015 57.24971008 67.0957489 C56.65383628 72.29423415 56.12570727 76.78411291 52.37471008 80.6582489 C48.48409032 83.69293231 48.48409032 83.69293231 45.24971008 84.0957489 C42.73408508 83.60746765 42.73408508 83.60746765 39.99971008 82.7832489 C39.0264679 82.50223328 38.05322571 82.22121765 37.05049133 81.9316864 C35.4012874 81.43945538 33.75261046 80.94544191 32.10517883 80.4473114 C26.87248855 78.97661637 21.66448217 78.31310957 16.24971008 79.0957489 C12.97660455 80.99931877 12.97660455 80.99931877 10.24971008 83.0957489 C7.37471008 83.3457489 7.37471008 83.3457489 5.24971008 83.0957489 C4.91971008 82.1057489 4.58971008 81.1157489 4.24971008 80.0957489 C4.76533508 79.1469989 5.28096008 78.1982489 5.81221008 77.2207489 C7.56062262 74.26214178 7.56062262 74.26214178 6.65986633 71.57621765 C4.89538222 68.47248521 3.35189217 67.73134343 0.12471008 66.2832489 C-0.78536804 65.86430359 -1.69544617 65.44535828 -2.63310242 65.01371765 C-3.33177429 64.71078796 -4.03044617 64.40785828 -4.75028992 64.0957489 C-4.99976821 56.80543866 -4.47359898 50.18901212 -2.75028992 43.0957489 C-3.74028992 42.7657489 -4.73028992 42.4357489 -5.75028992 42.0957489 C-5.82560544 38.1855214 -5.87942843 34.27558659 -5.91508484 30.36479187 C-5.93722422 28.39605322 -5.97538344 26.42751529 -6.01396179 24.45903015 C-6.07620654 16.28422029 -5.40752538 8.87039796 -2.75028992 1.0957489 C-1.75028992 0.0957489 -1.75028992 0.0957489 0 0 Z " fill="#E3D2C3" transform="translate(20.750289916992188,4.9042510986328125)"/>
<path d="M0 0 C2.875 0.6875 2.875 0.6875 6 2 C7.7923557 5.15796004 8.38944338 8.43841972 9 12 C8.01 12.33 7.02 12.66 6 13 C5.30062468 14.31647119 4.63270867 15.65022151 4 17 C3.01 17.495 3.01 17.495 2 18 C1.855625 19.11375 1.71125 20.2275 1.5625 21.375 C0.96642408 25.21637818 0.65473113 25.56649646 -2 28 C-2.165 28.825 -2.33 29.65 -2.5 30.5 C-3.07478916 33.37394581 -3.89627729 34.07158751 -6 36 C-6.33 36.99 -6.66 37.98 -7 39 C-12.96928565 40.59180951 -16.49458399 39.25216641 -22.14453125 36.9921875 C-27.31274013 35.19639399 -32.56864922 35 -38 35 C-37.34 33.68 -36.68 32.36 -36 31 C-35.01 31 -34.02 31 -33 31 C-32.34 28.69 -31.68 26.38 -31 24 C-32.1446875 23.566875 -32.1446875 23.566875 -33.3125 23.125 C-36 22 -36 22 -39 20 C-38.67 18.35 -38.34 16.7 -38 15 C-37.34 15 -36.68 15 -36 15 C-35.34 13.68 -34.68 12.36 -34 11 C-32.68 11.33 -31.36 11.66 -30 12 C-29 19.75 -29 19.75 -29 22 C-24.61360131 20.80370945 -21.63346088 19.80388794 -19 16 C-18.38480808 13.00675528 -18.13034372 10.05004295 -18 7 C-14.67867505 5.13175472 -12.55463472 4.87107007 -8.9375 5.75 C-6.12786523 6.5679277 -3.53900501 7.51891374 -1 9 C-1 11.31 -1 13.62 -1 16 C-0.34 16.33 0.32 16.66 1 17 C1.66 15.02 2.32 13.04 3 11 C3.66 11 4.32 11 5 11 C5 9.68 5 8.36 5 7 C4.01 6.67 3.02 6.34 2 6 C0.8125 2.9375 0.8125 2.9375 0 0 Z " fill="#FCFCFB" transform="translate(77,47)"/>
<path d="M0 0 C1.91231903 0.4075434 3.82743785 0.81678116 5.70703125 1.35546875 C8.78143519 2.21965384 11.88664064 2.91481749 15 3.625 C16.7015625 4.01558594 16.7015625 4.01558594 18.4375 4.4140625 C19.7059375 4.70410156 19.7059375 4.70410156 21 5 C21 6.32 21 7.64 21 9 C21.721875 9.226875 22.44375 9.45375 23.1875 9.6875 C26.55538115 11.25917787 28.45032767 13.31957525 31 16 C32.31175986 17.02813611 33.6369893 18.04084432 35 19 C35.66 18.34 36.32 17.68 37 17 C37 18.65 37 20.3 37 22 C33.10885099 23.01911045 31.39403493 23.16782969 27.625 21.5625 C26.75875 21.046875 25.8925 20.53125 25 20 C25 19.34 25 18.68 25 18 C24.35675781 18.144375 23.71351562 18.28875 23.05078125 18.4375 C12.27450389 20.65117181 2.54209768 20.8083457 -8.07421875 17.78515625 C-11.02376563 16.99362231 -13.91877793 16.51106513 -16.9375 16.0625 C-21.25305064 15.29653647 -24.09101389 14.49078333 -27 11 C-27.9375 7.875 -27.9375 7.875 -28 5 C-27.34 4.34 -26.68 3.68 -26 3 C-23.828125 3.1640625 -23.828125 3.1640625 -21.25 3.625 C-13.52015969 4.60779398 -8.51673138 -0.89299061 0 0 Z " fill="#9FDDDE" transform="translate(47,83)"/>
<path d="M0 0 C4.875 3.75 4.875 3.75 6 6 C6.61875 6.103125 7.2375 6.20625 7.875 6.3125 C10 7 10 7 11.25 9.125 C12.95689734 11.92918849 14.38633268 13.30577099 16.875 15.375 C21.74342984 19.52484241 25.53843895 23.07678001 26.5625 29.5625 C25.89177333 33.6613852 24.69484106 35.85601877 22 39 C19.75 39.875 19.75 39.875 18 40 C17.608125 39.113125 17.21625 38.22625 16.8125 37.3125 C13.57660791 31.39862825 10.14427033 28.76940675 3.921875 26.67578125 C0.45196579 25.4556709 -2.2445774 23.80938135 -4.75 21.125 C-8.38847046 17.68866679 -12.97643577 14.13241887 -18.140625 13.90625 C-20.25310364 14.17475271 -20.25310364 14.17475271 -23 15 C-22.38245741 13.68397477 -21.75571258 12.37226444 -21.125 11.0625 C-20.77695312 10.33160156 -20.42890625 9.60070312 -20.0703125 8.84765625 C-19 7 -19 7 -17 6 C-15.28766312 6.0870204 -13.57824594 6.24097162 -11.875 6.4375 C-10.96492188 6.53933594 -10.05484375 6.64117188 -9.1171875 6.74609375 C-8.41851562 6.82988281 -7.71984375 6.91367187 -7 7 C-7.495 4.525 -7.495 4.525 -8 2 C-4 3 -4 3 0 4 C0 2.68 0 1.36 0 0 Z " fill="#170C09" transform="translate(71,17)"/>
<path d="M0 0 C0.66 0.33 1.32 0.66 2 1 C1.34 2.32 0.68 3.64 0 5 C1.093125 5.04125 2.18625 5.0825 3.3125 5.125 C7 6 7 6 9 8.75 C10.05941951 12.19311341 10.06503315 13.62739502 9 17 C8.67 18.32 8.34 19.64 8 21 C10.31 22.65 12.62 24.3 15 26 C7.34782609 35.04347826 7.34782609 35.04347826 5 37 C3.68 37 2.36 37 1 37 C1.433125 35.1746875 1.433125 35.1746875 1.875 33.3125 C2.22284465 31.12088857 2.22284465 31.12088857 2 29 C-0.9636627 25.81948394 -3.5842536 24.23097022 -7.375 22.125 C-10 20 -10 20 -10.5 16.75 C-9.95822949 12.68672121 -9.10725799 8.9446066 -8 5 C-7.01 5 -6.02 5 -5 5 C-2.31232422 2.56249975 -2.31232422 2.56249975 0 0 Z " fill="#EB6D52" transform="translate(28,47)"/>
<path d="M0 0 C0.66 0 1.32 0 2 0 C2.125 7.75 2.125 7.75 1 10 C0.92966231 11.87379605 0.9156978 13.75001102 0.9375 15.625 C0.95103516 17.12933594 0.95103516 17.12933594 0.96484375 18.6640625 C0.97644531 19.43492188 0.98804688 20.20578125 1 21 C2.04800781 21.45439453 2.04800781 21.45439453 3.1171875 21.91796875 C4.02726562 22.33691406 4.93734375 22.75585938 5.875 23.1875 C7.23238281 23.79658203 7.23238281 23.79658203 8.6171875 24.41796875 C11.52127428 26.34609194 12.23121702 27.62561027 13 31 C12.29070816 33.74369481 10.83195419 35.85257333 9 38 C6.25 39.4375 6.25 39.4375 4 40 C4.29174117 44.29504219 4.29174117 44.29504219 6.73974609 47.62841797 C9.20611057 49.12507336 11.0804139 49.64551776 13.9140625 50.1328125 C15.30238281 50.38224609 15.30238281 50.38224609 16.71875 50.63671875 C17.6778125 50.79785156 18.636875 50.95898438 19.625 51.125 C21.5342836 51.4584882 23.44316131 51.79431117 25.3515625 52.1328125 C26.19541504 52.27605957 27.03926758 52.41930664 27.90869141 52.56689453 C30 53 30 53 32 54 C40.03400363 54.40229179 48.0170417 53.8958831 56 53 C56 53.66 56 54.32 56 55 C60.12168689 56.62950412 62.70700357 57.26264601 67 56 C66.979375 54.72125 66.95875 53.4425 66.9375 52.125 C67.62142328 45.49620516 72.18641125 41.25622584 77 37 C77.99 36.67 78.98 36.34 80 36 C80.67639873 34.67157726 81.34061919 33.33695144 82 32 C83.67587343 30.03290921 85.36072894 28.13287751 87.125 26.25 C87.59292969 25.74339844 88.06085938 25.23679687 88.54296875 24.71484375 C89.69126541 23.47280859 90.84508672 22.23588506 92 21 C92 24.53105585 91.49840789 24.88979005 89.1875 27.375 C87.38016272 29.3296018 85.93672845 31.10754421 84.58203125 33.41015625 C82.82030846 36.29416171 80.79635482 38.58626405 78.5 41.0625 C73.3867642 46.59331673 70.98141554 49.42908015 70 57 C67.53780887 59.46219113 65.48556773 59.73672347 62.0859375 60.1171875 C58.77587328 59.93122884 56.66427413 57.85340809 54 56 C51.17685826 56.30386024 51.17685826 56.30386024 48 57 C45.52500061 57.28834944 43.04508094 57.53655394 40.5625 57.75 C39.30566406 57.86859375 38.04882812 57.9871875 36.75390625 58.109375 C32.46200545 57.98432482 29.89874288 56.73982988 26 55 C22.20422412 54.18038418 18.34840278 53.74274385 14.49609375 53.27148438 C9.61543048 52.57601043 6.51784172 51.72438167 3 48 C1.8203125 45.78125 1.8203125 45.78125 1.125 43.5 C0.88007813 42.7471875 0.63515625 41.994375 0.3828125 41.21875 C-0.03379472 38.80412859 0.23497743 37.30554746 1 35 C3.31 35 5.62 35 8 35 C8.33 34.34 8.66 33.68 9 33 C6.525 33.495 6.525 33.495 4 34 C3.938125 32.783125 3.87625 31.56625 3.8125 30.3125 C3.40802336 26.72821471 3.303762 26.253135 0.375 23.8125 C-2.64695768 20.23386591 -2.21342621 18.82373065 -1.875 14.25 C-1.2115869 8.2115869 -1.2115869 8.2115869 0 7 C0.04092937 4.66702567 0.04241723 2.33294775 0 0 Z " fill="#F0F2EA" transform="translate(16,48)"/>
<path d="M0 0 C0.66 0.33 1.32 0.66 2 1 C1.76322202 4.93348368 1.5147127 8.86603344 1.25537109 12.7980957 C1.12627889 14.79273943 1.00645202 16.78797574 0.88671875 18.78320312 C0.80292969 20.03681641 0.71914062 21.29042969 0.6328125 22.58203125 C0.52283936 24.31803589 0.52283936 24.31803589 0.41064453 26.08911133 C0 29 0 29 -2 32 C-2.70812814 34.32108669 -3.38024152 36.65377147 -4 39 C-4.99 39 -5.98 39 -7 39 C-8.19009039 37.54544508 -9.3762027 36.08713291 -10.52734375 34.6015625 C-12.95522983 31.96115589 -15.82314907 30.61957106 -19 29 C-19 27.68 -19 26.36 -19 25 C-17.609375 23.61328125 -17.609375 23.61328125 -15.75 22.3125 C-11.46880266 18.93443557 -9.80645369 15.04909416 -8 10 C-7.34 10 -6.68 10 -6 10 C-5.938125 9.0925 -5.87625 8.185 -5.8125 7.25 C-4.81553956 3.26215824 -3.35111834 2.23407889 0 0 Z " fill="#361E18" transform="translate(87,63)"/>
<path d="M0 0 C0.79921875 0.20367187 1.5984375 0.40734375 2.421875 0.6171875 C3.02515625 0.78476562 3.6284375 0.95234375 4.25 1.125 C3.92 2.115 3.59 3.105 3.25 4.125 C2.59 4.125 1.93 4.125 1.25 4.125 C1.25 5.775 1.25 7.425 1.25 9.125 C3.725 9.62 3.725 9.62 6.25 10.125 C6.25 12.765 6.25 15.405 6.25 18.125 C5.651875 17.815625 5.05375 17.50625 4.4375 17.1875 C0.79479094 15.41818417 -0.24299409 14.95257231 -4.21875 16.3046875 C-5.56647021 16.86025658 -6.91012525 17.42576796 -8.25 18 C-9.59352275 18.56044092 -10.93726484 19.1203564 -12.28125 19.6796875 C-13.4259375 20.15664062 -14.570625 20.63359375 -15.75 21.125 C-16.74 21.455 -17.73 21.785 -18.75 22.125 C-19.08 22.785 -19.41 23.445 -19.75 24.125 C-21.07 23.795 -22.39 23.465 -23.75 23.125 C-23.09 21.475 -22.43 19.825 -21.75 18.125 C-22.8946875 17.691875 -22.8946875 17.691875 -24.0625 17.25 C-26.75 16.125 -26.75 16.125 -29.75 14.125 C-29.42 12.475 -29.09 10.825 -28.75 9.125 C-28.09 9.125 -27.43 9.125 -26.75 9.125 C-26.09 7.805 -25.43 6.485 -24.75 5.125 C-23.43 5.455 -22.11 5.785 -20.75 6.125 C-19.75 13.875 -19.75 13.875 -19.75 16.125 C-15.36360131 14.92870945 -12.38346088 13.92888794 -9.75 10.125 C-9.40313673 7.78053863 -9.25024056 5.51810224 -9.21875 3.1484375 C-8.75 1.125 -8.75 1.125 -7.015625 -0.203125 C-4.27238221 -1.01663838 -2.7490975 -0.72770228 0 0 Z " fill="#F0F1E9" transform="translate(67.75,52.875)"/>
<path d="M0 0 C7.19088323 1.51920068 12.78795945 3.68837961 17 10 C17.91796875 12.37890625 17.91796875 12.37890625 18 15 C16.453125 17.75390625 16.453125 17.75390625 14.25 20.5625 C13.53328125 21.49191406 12.8165625 22.42132813 12.078125 23.37890625 C11.04945312 24.67634766 11.04945312 24.67634766 10 26 C8.99609529 27.33039585 7.99445265 28.66252413 7 30 C6.8125 26.625 6.8125 26.625 7 23 C7.99 22.34 8.98 21.68 10 21 C11.19232613 18.94996045 11.19232613 18.94996045 12 17 C12.99 17 13.98 17 15 17 C14.566875 15.9171875 14.566875 15.9171875 14.125 14.8125 C13 12 13 12 12.1875 9.3125 C11.16408102 6.7586385 11.16408102 6.7586385 8.375 5.6875 C7.59125 5.460625 6.8075 5.23375 6 5 C7.68807908 9.23084903 7.68807908 9.23084903 11 12 C11 13.32 11 14.64 11 16 C10.34 16.33 9.68 16.66 9 17 C8.27840576 18.64363134 7.60648579 20.31050386 7 22 C6.01 21.67 5.02 21.34 4 21 C4 18.69 4 16.38 4 14 C3.17242187 13.83177734 3.17242187 13.83177734 2.328125 13.66015625 C-0.40065211 12.88639227 -2.72772943 11.73182306 -5.25 10.4375 C-6.14203125 9.98246094 -7.0340625 9.52742188 -7.953125 9.05859375 C-8.62859375 8.70925781 -9.3040625 8.35992187 -10 8 C-7.07651242 4.71669856 -4.24542505 4.04133067 0 3 C0 2.01 0 1.02 0 0 Z " fill="#F1EFE3" transform="translate(71,42)"/>
<path d="M0 0 C1.64909243 0.06990373 3.29500936 0.21185328 4.9375 0.375 C9.75065248 0.79842878 14.53725969 1.07052697 19.3671875 1.22265625 C20.50679932 1.25891113 21.64641113 1.29516602 22.82055664 1.33251953 C25.1164222 1.40154157 27.41249915 1.46391073 29.70874023 1.51904297 C44.56575099 1.98135448 44.56575099 1.98135448 49.5625 6.125 C50.7690625 7.548125 50.7690625 7.548125 52 9 C53.27007346 10.43817142 54.54094275 11.87564031 55.8125 13.3125 C56.87675995 14.54014315 57.93987294 15.76878615 59 17 C56 17 56 17 54.24609375 15.3203125 C53.64925781 14.59585937 53.05242187 13.87140625 52.4375 13.125 C51.83808594 12.40570313 51.23867187 11.68640625 50.62109375 10.9453125 C50.08613281 10.30335937 49.55117187 9.66140625 49 9 C44.88670159 4.88670159 37.87024935 5.62154154 32.32421875 5.24609375 C31.09330505 5.15914246 31.09330505 5.15914246 29.83752441 5.07043457 C26.78776126 4.85594419 23.73760652 4.64705105 20.6875 4.4375 C13.860625 3.963125 7.03375 3.48875 0 3 C0 17.19 0 31.38 0 46 C-0.33 46 -0.66 46 -1 46 C-2.57873958 40.41802791 -3.32353923 35.4762736 -3.25 29.6875 C-3.24540771 28.92638916 -3.24081543 28.16527832 -3.23608398 27.38110352 C-2.85889611 2.85889611 -2.85889611 2.85889611 0 0 Z " fill="#7F6D65" transform="translate(20,6)"/>
<path d="M0 0 C0.66 0.33 1.32 0.66 2 1 C1.34 2.32 0.68 3.64 0 5 C1.093125 5.04125 2.18625 5.0825 3.3125 5.125 C7 6 7 6 9 8.75 C10.05941951 12.19311341 10.06503315 13.62739502 9 17 C8.67 18.32 8.34 19.64 8 21 C10.31 22.65 12.62 24.3 15 26 C14.34 26.99 13.68 27.98 13 29 C12.34 28.67 11.68 28.34 11 28 C11.33 27.34 11.66 26.68 12 26 C11.16855469 25.54109375 10.33710937 25.0821875 9.48046875 24.609375 C8.39378906 23.99578125 7.30710937 23.3821875 6.1875 22.75 C5.10855469 22.14671875 4.02960937 21.5434375 2.91796875 20.921875 C-0.84437364 18.44386635 -2.59126496 16.53275639 -3.75 12.1875 C-4.03404396 8.56593948 -3.81715475 5.54100391 -3 2 C-2.01 1.34 -1.02 0.68 0 0 Z " fill="#E88A5E" transform="translate(28,47)"/>
<path d="M0 0 C0.76133743 0.01395309 1.52267487 0.02790619 2.30708313 0.0422821 C3.59929024 0.06274345 3.59929024 0.06274345 4.91760254 0.08361816 C5.85606522 0.10437912 6.79452789 0.12514008 7.76142883 0.14653015 C9.20290031 0.17483162 9.20290031 0.17483162 10.67349243 0.20370483 C12.71384786 0.24568439 14.7541479 0.29043111 16.79438782 0.33769226 C19.90633638 0.40755578 23.01830346 0.4620919 26.13056946 0.51567078 C28.11170978 0.55834803 30.09283067 0.60193879 32.07392883 0.64653015 C33.00227036 0.66121841 33.93061188 0.67590668 34.88708496 0.69104004 C46.1975282 0.98884217 46.1975282 0.98884217 50.00752258 4.9004364 C50.45869446 5.58363953 50.90986633 6.26684265 51.37471008 6.9707489 C53.45853399 9.98680982 55.54167649 12.59602558 58.24971008 15.0957489 C57.91971008 16.0857489 57.58971008 17.0757489 57.24971008 18.0957489 C55.91043288 16.64287229 54.57844161 15.18327631 53.24971008 13.7207489 C52.50721008 12.90863953 51.76471008 12.09653015 50.99971008 11.2598114 C49.24971008 9.0957489 49.24971008 9.0957489 49.24971008 7.0957489 C43.73571334 4.66310328 38.42030465 4.00049513 32.43330383 3.8144989 C31.34452942 3.77768005 30.255755 3.74086121 29.13398743 3.70292664 C27.9965509 3.66755798 26.85911438 3.63218933 25.68721008 3.5957489 C16.85117014 3.29213653 8.05376096 2.93338127 -0.75028992 2.0957489 C-1.06405513 3.63715857 -1.37623457 5.17889105 -1.68778992 6.7207489 C-1.86181335 7.57926453 -2.03583679 8.43778015 -2.21513367 9.3223114 C-2.39173523 10.23754578 -2.56833679 11.15278015 -2.75028992 12.0957489 C-2.92560242 12.9516864 -3.10091492 13.8076239 -3.28153992 14.6894989 C-3.98031963 19.76729814 -4.12052222 24.8520155 -4.31278992 29.9707489 C-4.35597351 31.04067078 -4.3991571 32.11059265 -4.44364929 33.2129364 C-4.54921809 35.84042644 -4.65132783 38.46800312 -4.75028992 41.0957489 C-5.08028992 41.0957489 -5.41028992 41.0957489 -5.75028992 41.0957489 C-5.83863878 36.67921198 -5.89112979 32.26290742 -5.93778992 27.8457489 C-5.96292664 26.61082703 -5.98806335 25.37590515 -6.01396179 24.1035614 C-6.07754313 16.04992493 -5.34816968 8.75783924 -2.75028992 1.0957489 C-1.75028992 0.0957489 -1.75028992 0.0957489 0 0 Z " fill="#F0EFE3" transform="translate(20.750289916992188,4.9042510986328125)"/>
<path d="M0 0 C0 3.53105585 -0.50159211 3.88979005 -2.8125 6.375 C-4.61983728 8.3296018 -6.06327155 10.10754421 -7.41796875 12.41015625 C-9.17969154 15.29416171 -11.20364518 17.58626405 -13.5 20.0625 C-18.6132358 25.59331673 -21.01858446 28.42908015 -22 36 C-24.46032467 38.46032467 -26.5055686 38.74199012 -29.90625 39.10546875 C-33.3418796 38.93240532 -35.37764497 37.08596423 -38 35 C-39.3191582 34.30570621 -40.64649406 33.62469505 -42 33 C-41 32 -41 32 -38.4375 31.9375 C-37.2309375 31.9684375 -37.2309375 31.9684375 -36 32 C-36 32.66 -36 33.32 -36 34 C-31.87831311 35.62950412 -29.29299643 36.26264601 -25 35 C-25.020625 33.72125 -25.04125 32.4425 -25.0625 31.125 C-24.37857672 24.49620516 -19.81358875 20.25622584 -15 16 C-14.01 15.67 -13.02 15.34 -12 15 C-11.32360127 13.67157726 -10.65938081 12.33695144 -10 11 C-8.32412657 9.03290921 -6.63927106 7.13287751 -4.875 5.25 C-4.40707031 4.74339844 -3.93914062 4.23679687 -3.45703125 3.71484375 C-2.30873459 2.47280859 -1.15491328 1.23588506 0 0 Z " fill="#F0F2EA" transform="translate(108,69)"/>
<path d="M0 0 C0.33 0.99 0.66 1.98 1 3 C0.401875 3.70125 -0.19625 4.4025 -0.8125 5.125 C-6.09294841 12.06501791 -5.58603874 22.30952078 -6.2109375 30.7109375 C-6.28570312 31.608125 -6.36046875 32.5053125 -6.4375 33.4296875 C-6.49808594 34.23647949 -6.55867188 35.04327148 -6.62109375 35.87451172 C-7 38 -7 38 -9 41 C-9.13534286 31.94706663 -8.75741925 23.02140429 -8 14 C-8.61875 14.495 -9.2375 14.99 -9.875 15.5 C-12 17 -12 17 -14 17 C-14.33 18.98 -14.66 20.96 -15 23 C-15.66 23 -16.32 23 -17 23 C-17.66 24.98 -18.32 26.96 -19 29 C-20 26 -20 26 -18.7421875 23.07421875 C-10.38446617 7.91492086 -10.38446617 7.91492086 -3 5 C-1.17380913 2.48635244 -1.17380913 2.48635244 0 0 Z " fill="#C83F2E" transform="translate(96,50)"/>
<path d="M0 0 C0.33 0 0.66 0 1 0 C1.33 12.87 1.66 25.74 2 39 C3.65 38.01 5.3 37.02 7 36 C8.7015625 35.319375 8.7015625 35.319375 10.4375 34.625 C14.68990142 32.68530812 18.83473363 30.33053273 21 26 C21.99 26.33 22.98 26.66 24 27 C21.19195732 29.96404505 18.81684226 32.44499019 15 34 C15 34.66 15 35.32 15 36 C13.95199219 36.48919922 13.95199219 36.48919922 12.8828125 36.98828125 C11.97273438 37.42527344 11.06265625 37.86226562 10.125 38.3125 C9.22007813 38.74175781 8.31515625 39.17101563 7.3828125 39.61328125 C4.73550524 40.9199388 4.73550524 40.9199388 3 44 C2.01 43.67 1.02 43.34 0 43 C-0.77025071 38.90168492 -1.12827506 35.02733356 -1.1328125 30.859375 C-1.13410156 29.70566406 -1.13539062 28.55195312 -1.13671875 27.36328125 C-1.13285156 26.17089844 -1.12898438 24.97851562 -1.125 23.75 C-1.12886719 22.57308594 -1.13273437 21.39617188 -1.13671875 20.18359375 C-1.12916524 13.39298519 -0.84772495 6.73931683 0 0 Z " fill="#4E332B" transform="translate(20,9)"/>
<path d="M0 0 C2.02045442 0.60183749 4.02111039 1.27306096 6 2 C7.35439668 4.70879335 7.06501451 7.00933268 7 10 C7.66 10 8.32 10 9 10 C9.33 11.65 9.66 13.3 10 15 C11.32 15.33 12.64 15.66 14 16 C14 16.99 14 17.98 14 19 C14.928125 19.309375 14.928125 19.309375 15.875 19.625 C18.9314646 21.60271239 19.24624836 23.5053333 20 27 C19.59633608 31.18464926 18.27764237 33.26580182 15.4375 36.3125 C14.79683594 37.00988281 14.15617187 37.70726562 13.49609375 38.42578125 C12.75552734 39.20501953 12.75552734 39.20501953 12 40 C11.34 39.67 10.68 39.34 10 39 C10.49371094 38.45730469 10.98742187 37.91460937 11.49609375 37.35546875 C12.13675781 36.64003906 12.77742188 35.92460938 13.4375 35.1875 C14.07558594 34.47980469 14.71367188 33.77210937 15.37109375 33.04296875 C17.19086012 31.00103848 17.19086012 31.00103848 18 28 C16.49177548 25.69609798 14.97700826 23.62808942 13.25 21.5 C12.79367188 20.91863281 12.33734375 20.33726563 11.8671875 19.73828125 C10.09331382 17.49786854 8.33378174 15.32021951 6.26953125 13.33984375 C4.70746447 11.69126251 4.15777172 10.20685182 3.4375 8.0625 C2.45639358 5.25860114 1.41885351 2.61942186 0 0 Z " fill="#E0C5B2" transform="translate(99,29)"/>
<path d="M0 0 C1.32 0.33 2.64 0.66 4 1 C4 1.66 4 2.32 4 3 C8.64569382 3.15698532 8.64569382 3.15698532 13.1875 2.375 C15.67358516 1.86063755 16.88478763 2.71576392 19 4 C18.67 4.66 18.34 5.32 18 6 C16.35 5.34 14.7 4.68 13 4 C13.433125 4.45890625 13.86625 4.9178125 14.3125 5.390625 C14.869375 6.00421875 15.42625 6.6178125 16 7.25 C16.556875 7.85328125 17.11375 8.4565625 17.6875 9.078125 C19 11 19 11 19 15 C16.78125 15.29296875 16.78125 15.29296875 14 15 C11.71875 12.98828125 11.71875 12.98828125 9.5 10.3125 C8.34177734 8.94931641 8.34177734 8.94931641 7.16015625 7.55859375 C6.09087891 6.29208984 6.09087891 6.29208984 5 5 C3.37009861 3.28728607 1.69911267 1.64430258 0 0 Z " fill="#E77D56" transform="translate(81,26)"/>
<path d="M0 0 C2.03051968 1.75363063 2.93066819 2.73653911 3.625 5.375 C5.82505586 9.57510664 9.84654782 10.98526573 14 13 C14.66 13.33 15.32 13.66 16 14 C15.38722388 16.96175123 14.74627478 18.38058783 13 21 C12.34 21 11.68 21 11 21 C10.525625 19.80375 10.05125 18.6075 9.5625 17.375 C7.32176016 12.75500187 4.27389828 10.89300054 -0.171875 8.51953125 C-2 7 -2 7 -2.390625 4.44921875 C-2 2 -2 2 0 0 Z " fill="#C73E2D" transform="translate(22,59)"/>
<path d="M0 0 C2.31 0.66 4.62 1.32 7 2 C6.01 2.66 5.02 3.32 4 4 C2.7811879 7.55672179 2.7811879 7.55672179 2 11 C-0.60482949 11.94721072 -2.30674701 12.30222393 -4.890625 11.17578125 C-6.62582873 10.17063275 -8.31640423 9.0893855 -10 8 C-7.3401439 4.55783328 -4.09711714 4.00495326 0 3 C0 2.01 0 1.02 0 0 Z " fill="#D2B4A8" transform="translate(71,42)"/>
<path d="M0 0 C2.19050021 0.09017996 4.378466 0.24666208 6.5625 0.4375 C7.76003906 0.53933594 8.95757812 0.64117187 10.19140625 0.74609375 C11.11824219 0.82988281 12.04507813 0.91367188 13 1 C13 1.33 13 1.66 13 2 C7.06 2.495 7.06 2.495 1 3 C-0.14236247 12.04894998 -0.1143406 21.02452936 -0.0625 30.125 C-0.0574735 31.66926938 -0.05291264 33.21354034 -0.04882812 34.7578125 C-0.03791697 38.50524187 -0.02071614 42.25261049 0 46 C-0.33 46 -0.66 46 -1 46 C-2.57873958 40.41802791 -3.32353923 35.4762736 -3.25 29.6875 C-3.24540771 28.92638916 -3.24081543 28.16527832 -3.23608398 27.38110352 C-2.85889611 2.85889611 -2.85889611 2.85889611 0 0 Z " fill="#8D847C" transform="translate(20,6)"/>
<path d="M0 0 C-0.52268466 2.76276177 -1.10869587 5.3260876 -2 8 C-1.34 8 -0.68 8 0 8 C0.33 9.32 0.66 10.64 1 12 C-0.98 12.99 -0.98 12.99 -3 14 C-3.5775 13.360625 -4.155 12.72125 -4.75 12.0625 C-6.98062401 10.01776132 -8.07436391 9.41794801 -11 9 C-10.1875 7.0625 -10.1875 7.0625 -9 5 C-8.01 4.67 -7.02 4.34 -6 4 C-5.67 3.01 -5.34 2.02 -5 1 C-3 0 -3 0 0 0 Z " fill="#F2F3ED" transform="translate(43,41)"/>
<path d="M0 0 C3.6147378 1.49463316 5.64435488 3.5608304 8.1875 6.5 C9.22970703 7.69109375 9.22970703 7.69109375 10.29296875 8.90625 C13.34081952 12.64457497 13.40067223 15.19193321 13 20 C10.11340206 25.56701031 10.11340206 25.56701031 6.75 26.875 C6.1725 26.91625 5.595 26.9575 5 27 C4.505 24.525 4.505 24.525 4 22 C5.32 22.33 6.64 22.66 8 23 C9.59138085 18.82262526 10.21278058 15.46839215 10 11 C9.40703125 10.76539063 8.8140625 10.53078125 8.203125 10.2890625 C5.48906 8.70104575 4.41506759 7.02397116 2.75 4.375 C1.96882813 3.14910156 1.96882813 3.14910156 1.171875 1.8984375 C0.78515625 1.27195312 0.3984375 0.64546875 0 0 Z " fill="#442A23" transform="translate(84,30)"/>
<path d="M0 0 C4.85605919 -0.22359659 9.70908708 -0.38627789 14.5690918 -0.49438477 C16.21936251 -0.53946707 17.8692772 -0.60075755 19.51831055 -0.67895508 C33.24526352 -1.31327214 33.24526352 -1.31327214 37.54248047 1.90283203 C39.29680777 4.18837619 40.61078038 6.4829095 42 9 C43.29379666 10.37173094 44.61851276 11.7166261 46 13 C45.67 13.99 45.34 14.98 45 16 C43.66072279 14.54712339 42.32873153 13.08752741 41 11.625 C40.2575 10.81289063 39.515 10.00078125 38.75 9.1640625 C37 7 37 7 37 5 C31.33485023 2.50066922 25.87418323 1.89663011 19.7265625 1.68359375 C18.57285156 1.64169922 17.41914062 1.59980469 16.23046875 1.55664062 C15.04066406 1.51732422 13.85085937 1.47800781 12.625 1.4375 C11.41199219 1.39431641 10.19898438 1.35113281 8.94921875 1.30664062 C5.96624968 1.20094487 2.98320258 1.09884679 0 1 C0 0.67 0 0.34 0 0 Z " fill="#E3D0C1" transform="translate(33,7)"/>
<path d="M0 0 C3.18592764 0.5805161 4.89829651 1.46668136 7.1875 3.75 C7.69667969 4.23984375 8.20585938 4.7296875 8.73046875 5.234375 C10.42744222 7.59447349 10.90086998 9.08212932 11 12 C9.453125 14.75390625 9.453125 14.75390625 7.25 17.5625 C6.53328125 18.49191406 5.8165625 19.42132813 5.078125 20.37890625 C4.39234375 21.24386719 3.7065625 22.10882813 3 23 C1.99609529 24.33039585 0.99445265 25.66252413 0 27 C-0.1875 23.625 -0.1875 23.625 0 20 C0.99 19.34 1.98 18.68 3 18 C4.19232613 15.94996045 4.19232613 15.94996045 5 14 C5.99 14 6.98 14 8 14 C7.71125 13.278125 7.4225 12.55625 7.125 11.8125 C6.38784142 9.96960354 5.67831222 8.11535859 5 6.25 C4.21568639 3.84296517 4.21568639 3.84296517 2 3 C2 2.34 2 1.68 2 1 C1.34 0.67 0.68 0.34 0 0 Z " fill="#D2C0B2" transform="translate(78,45)"/>
<path d="M0 0 C0 3.53105585 -0.50159211 3.88979005 -2.8125 6.375 C-5.26081713 9.10559369 -7.21210083 11.7817815 -9 15 C-11 18 -11 18 -13.3125 18.75 C-16.74353842 20.34583182 -17.91576561 22.39324153 -19.88671875 25.5390625 C-20.25410156 26.02117187 -20.62148437 26.50328125 -21 27 C-21.66 27 -22.32 27 -23 27 C-23.33 27.99 -23.66 28.98 -24 30 C-23.47178451 25.96443369 -22.40673398 23.82287252 -19.6875 20.8125 C-18.79611328 19.80123047 -18.79611328 19.80123047 -17.88671875 18.76953125 C-16 17 -16 17 -13.89453125 16.01171875 C-11.44516224 14.70370519 -11.19100212 13.48632558 -10 11 C-8.32412657 9.03290921 -6.63927106 7.13287751 -4.875 5.25 C-4.40707031 4.74339844 -3.93914062 4.23679687 -3.45703125 3.71484375 C-2.30873459 2.47280859 -1.15491328 1.23588506 0 0 Z " fill="#E0CABA" transform="translate(108,69)"/>
<path d="M0 0 C2.60546875 1.26953125 2.60546875 1.26953125 5.1875 2.8125 C6.04730469 3.31394531 6.90710938 3.81539062 7.79296875 4.33203125 C10.1031698 6.0779708 10.96440026 7.33289677 12 10 C9.10786403 8.59973507 6.37901165 7.02740699 3.625 5.375 C-0.13710928 3.31567548 -2.66136386 1.96250005 -7 3 C-8.97503035 4.44585555 -10.73026751 5.98080082 -12.484375 7.6875 C-14 9 -14 9 -16 9 C-14.55875486 5.46239829 -12.8323248 3.81752419 -9.6875 1.6875 C-8.92824219 1.15511719 -8.16898438 0.62273438 -7.38671875 0.07421875 C-4.36347066 -1.28649029 -3.11871537 -1.03957179 0 0 Z " fill="#B49D91" transform="translate(57,31)"/>
<path d="M0 0 C0.66 0.33 1.32 0.66 2 1 C1.67 3.31 1.34 5.62 1 8 C4.465 9.98 4.465 9.98 8 12 C7.875 14.3125 7.875 14.3125 7 17 C4.0625 18.75 4.0625 18.75 1 20 C0.34 20.33 -0.32 20.66 -1 21 C0.38589981 17.90837736 1.49183541 16.50816459 4 14 C1.69 12.35 -0.62 10.7 -3 9 C-2.20197185 5.8078874 -1.25768711 3.01844907 0 0 Z " fill="#E0C6B3" transform="translate(38,59)"/>
<path d="M0 0 C0.91007812 0.10183594 1.82015625 0.20367188 2.7578125 0.30859375 C3.45648438 0.39238281 4.15515625 0.47617187 4.875 0.5625 C4.545 1.2225 4.215 1.8825 3.875 2.5625 C1.3125 3.1875 1.3125 3.1875 -1.125 3.5625 C-1.455 4.8825 -1.785 6.2025 -2.125 7.5625 C-6.58 8.0575 -6.58 8.0575 -11.125 8.5625 C-6.68055556 -0.77083333 -6.68055556 -0.77083333 0 0 Z " fill="#3F251E" transform="translate(59.125,23.4375)"/>
<path d="M0 0 C0.99 0 1.98 0 3 0 C3.39942598 3.77539623 3.43562991 5.44078093 1.05859375 8.4921875 C-0.23884766 9.67167969 -0.23884766 9.67167969 -1.5625 10.875 C-6.00438567 15.04519138 -10.07370718 19.34565289 -14 24 C-14.66 23.67 -15.32 23.34 -16 23 C-14.88266271 21.49428343 -13.75589965 19.99555708 -12.625 18.5 C-11.68527344 17.24703125 -11.68527344 17.24703125 -10.7265625 15.96875 C-10.15679687 15.3190625 -9.58703125 14.669375 -9 14 C-8.34 14 -7.68 14 -7 14 C-6.773125 13.443125 -6.54625 12.88625 -6.3125 12.3125 C-5 10 -5 10 -2.375 7.5625 C0.25629525 5.23283667 0.25629525 5.23283667 0.3125 2.1875 C0.209375 1.465625 0.10625 0.74375 0 0 Z " fill="#F1EBDD" transform="translate(118,55)"/>
<path d="M0 0 C0.66 0.33 1.32 0.66 2 1 C1.67 5.62 1.34 10.24 1 15 C-1 13 -1 13 -1.125 9.375 C-1.08375 8.26125 -1.0425 7.1475 -1 6 C-1.66 6 -2.32 6 -3 6 C-3.226875 7.093125 -3.45375 8.18625 -3.6875 9.3125 C-5 13 -5 13 -7.625 14.9375 C-8.40875 15.288125 -9.1925 15.63875 -10 16 C-9.34 14.02 -8.68 12.04 -8 10 C-7.34 10 -6.68 10 -6 10 C-5.938125 9.0925 -5.87625 8.185 -5.8125 7.25 C-4.81553956 3.26215824 -3.35111834 2.23407889 0 0 Z " fill="#472D26" transform="translate(87,63)"/>
<path d="M0 0 C1.175625 1.051875 1.175625 1.051875 2.375 2.125 C6.56346256 5.63887845 11.27344265 8.28176247 16 11 C15.265611 12.32129824 14.51183106 13.63183171 13.75 14.9375 C13.33234375 15.66839844 12.9146875 16.39929688 12.484375 17.15234375 C10.74406383 19.31857318 9.70438996 19.63594751 7 20 C7 18.35 7 16.7 7 15 C7.33 15.99 7.66 16.98 8 18 C10.52588702 15.63707344 11.88820837 14.33537489 13 11 C11.700625 10.62875 11.700625 10.62875 10.375 10.25 C6.72871556 8.89952428 4.01728015 7.4559257 1 5 C0.125 2.25 0.125 2.25 0 0 Z " fill="#EA604D" transform="translate(25,62)"/>
<path d="M0 0 C0.66 0.33 1.32 0.66 2 1 C2 1.99 2 2.98 2 4 C2.61875 4.20625 3.2375 4.4125 3.875 4.625 C6.9314646 6.60271239 7.24624836 8.5053333 8 12 C7.59633608 16.18464926 6.27764237 18.26580182 3.4375 21.3125 C2.79683594 22.00988281 2.15617187 22.70726563 1.49609375 23.42578125 C0.75552734 24.20501953 0.75552734 24.20501953 0 25 C-0.66 24.67 -1.32 24.34 -2 24 C-1.50628906 23.45730469 -1.01257813 22.91460937 -0.50390625 22.35546875 C0.13675781 21.64003906 0.77742188 20.92460938 1.4375 20.1875 C2.07558594 19.47980469 2.71367188 18.77210937 3.37109375 18.04296875 C5.19086012 16.00103848 5.19086012 16.00103848 6 13 C4.75111384 11.55392129 3.498541 10.11057983 2.21484375 8.6953125 C0.28555641 6.00299512 0.19382918 3.23048631 0 0 Z " fill="#DEC8B9" transform="translate(111,44)"/>
<path d="M0 0 C0.33 0 0.66 0 1 0 C1 3.96 1 7.92 1 12 C0.01 11.34 -0.98 10.68 -2 10 C-2.66 11.98 -3.32 13.96 -4 16 C-4.33 16 -4.66 16 -5 16 C-5.18451025 6.58997722 -5.18451025 6.58997722 -4 2 C-3.01 2 -2.02 2 -1 2 C-0.67 1.34 -0.34 0.68 0 0 Z " fill="#DF5F4A" transform="translate(24,50)"/>
<path d="M0 0 C2.97288463 0.33032051 4.57387088 0.55808832 6.6875 2.75 C10.21719855 6.18430129 14.56840115 7.93643107 19 10 C19 10.66 19 11.32 19 12 C12.21643327 10.27085554 7.78554472 8.10458103 3 3 C2.4225 2.4225 1.845 1.845 1.25 1.25 C0.8375 0.8375 0.425 0.425 0 0 Z " fill="#78685F" transform="translate(61,33)"/>
<path d="M0 0 C1.32 0 2.64 0 4 0 C2.55575365 3.23861303 0.74227753 5.61969163 -1.625 8.25 C-2.25664063 8.95640625 -2.88828125 9.6628125 -3.5390625 10.390625 C-4.02117187 10.92171875 -4.50328125 11.4528125 -5 12 C-5.66 11.67 -6.32 11.34 -7 11 C-6.25 8.125 -6.25 8.125 -5 5 C-2.9375 3.8125 -2.9375 3.8125 -1 3 C-0.67 2.01 -0.34 1.02 0 0 Z " fill="#C73E2D" transform="translate(99,71)"/>
<path d="M0 0 C1.31767252 2.63534505 0.75847597 3.54582527 -0.125 6.3125 C-1.60576483 10.54325665 -3.43702862 13.16789455 -7 16 C-7.66 16 -8.32 16 -9 16 C-9 15.34 -9 14.68 -9 14 C-8.34 13.67 -7.68 13.34 -7 13 C-6.7834375 12.01 -6.7834375 12.01 -6.5625 11 C-6.376875 10.34 -6.19125 9.68 -6 9 C-5.01 8.67 -4.02 8.34 -3 8 C-3.061875 7.236875 -3.12375 6.47375 -3.1875 5.6875 C-3 3 -3 3 -1.5 1.1875 C-1.005 0.795625 -0.51 0.40375 0 0 Z " fill="#C5B5A9" transform="translate(77,72)"/>
<path d="M0 0 C6.47556391 0.61090226 6.47556391 0.61090226 8.9375 2.4375 C10 4 10 4 10 6 C6.6875 6.25 6.6875 6.25 3 6 C1.0625 4.125 1.0625 4.125 0 2 C0 1.34 0 0.68 0 0 Z " fill="#F0F0E7" transform="translate(60,39)"/>
<path d="M0 0 C0.66 0.99 1.32 1.98 2 3 C0.71034824 4.37562854 -0.62689293 5.70766393 -2 7 C-2.66 7 -3.32 7 -4 7 C-4.33 8.98 -4.66 10.96 -5 13 C-5.66 13 -6.32 13 -7 13 C-7.66 14.98 -8.32 16.96 -9 19 C-10 16 -10 16 -8.671875 12.96875 C-8.03765625 11.8240625 -7.4034375 10.679375 -6.75 9.5 C-6.12609375 8.3553125 -5.5021875 7.210625 -4.859375 6.03125 C-3.36888028 3.60136785 -2.1318796 1.84236509 0 0 Z " fill="#7B6C63" transform="translate(86,60)"/>
<path d="M0 0 C0.66 0 1.32 0 2 0 C2 1.65 2 3.3 2 5 C1.360625 5.20625 0.72125 5.4125 0.0625 5.625 C-2.34925077 6.89538209 -2.34925077 6.89538209 -2.75 10.125 C-2.8325 11.07375 -2.915 12.0225 -3 13 C-3.99 12.67 -4.98 12.34 -6 12 C-5.13629848 7.33601181 -2.59414989 3.89122484 0 0 Z " fill="#EE9060" transform="translate(99,50)"/>
<path d="M0 0 C0.66 0.33 1.32 0.66 2 1 C1.37351562 1.65226562 0.74703125 2.30453125 0.1015625 2.9765625 C-0.71570313 3.85054688 -1.53296875 4.72453125 -2.375 5.625 C-3.59316406 6.91277344 -3.59316406 6.91277344 -4.8359375 8.2265625 C-7.08732405 11.11191349 -8.06276852 13.48795677 -9 17 C-9.66 16.67 -10.32 16.34 -11 16 C-9.79877928 10.43070391 -8.38742268 7.86511045 -4 4 C-3.236875 3.236875 -2.47375 2.47375 -1.6875 1.6875 C-1.130625 1.130625 -0.57375 0.57375 0 0 Z " fill="#ECE1D6" transform="translate(94,87)"/>
<path d="M0 0 C0.33 0.66 0.66 1.32 1 2 C-0.5625 4.4375 -0.5625 4.4375 -3 7 C-6.75 7.8125 -6.75 7.8125 -10 8 C-10 7.34 -10 6.68 -10 6 C-9.34 6 -8.68 6 -8 6 C-7.67 4.68 -7.34 3.36 -7 2 C-7 2.66 -7 3.32 -7 4 C-4.08482708 2.92598892 -2.22189824 2.22189824 0 0 Z " fill="#D3B5A8" transform="translate(36,80)"/>
<path d="M0 0 C4.875 3.75 4.875 3.75 6 6 C6.639375 6.103125 7.27875 6.20625 7.9375 6.3125 C8.618125 6.539375 9.29875 6.76625 10 7 C11.25 9.5625 11.25 9.5625 12 12 C7.58342362 9.96158013 3.44742258 7.44742258 0 4 C0 2.68 0 1.36 0 0 Z " fill="#583F37" transform="translate(71,17)"/>
<path d="M0 0 C0.33 0 0.66 0 1 0 C1.05422947 1.4370809 1.09289723 2.87475462 1.125 4.3125 C1.14820312 5.11300781 1.17140625 5.91351563 1.1953125 6.73828125 C1 9 1 9 -1 12 C-1.70812814 14.32108669 -2.38024152 16.65377147 -3 19 C-3.99 19 -4.98 19 -6 19 C-6.66 18.01 -7.32 17.02 -8 16 C-7.401875 15.979375 -6.80375 15.95875 -6.1875 15.9375 C-3.65577274 15.11783916 -3.65577274 15.11783916 -2.3125 11.9375 C-0.81089189 8.00393961 -0.36665472 4.17986378 0 0 Z " fill="#583E35" transform="translate(86,83)"/>
<path d="M0 0 C0.33 0 0.66 0 1 0 C1.33722141 4.21526759 1.21887045 6.57789269 -0.75 10.375 C-3 13 -3 13 -5.25 13.875 C-5.8275 13.91625 -6.405 13.9575 -7 14 C-7.495 11.525 -7.495 11.525 -8 9 C-6.68 9.33 -5.36 9.66 -4 10 C-1.16625119 6.79663178 -0.4794463 4.21912747 0 0 Z " fill="#4D332B" transform="translate(96,43)"/>
<path d="M0 0 C0.99 0.33 1.98 0.66 3 1 C0.19195732 3.96404505 -2.18315774 6.44499019 -6 8 C-6 8.66 -6 9.32 -6 10 C-7.65 10.66 -9.3 11.32 -11 12 C-9.79304978 8.37914935 -8.53198219 7.6587148 -5.5 5.4375 C-2.2216853 3.168506 -2.2216853 3.168506 0 0 Z " fill="#6F5C54" transform="translate(41,35)"/>
<path d="M0 0 C2.66666667 0.66666667 5.33333333 1.33333333 8 2 C8 3.32 8 4.64 8 6 C5.69 5.67 3.38 5.34 1 5 C0.505 2.525 0.505 2.525 0 0 Z " fill="#351B15" transform="translate(63,19)"/>
<path d="M0 0 C1.98 0.99 1.98 0.99 4 2 C4 2.66 4 3.32 4 4 C4.61875 4.2475 5.2375 4.495 5.875 4.75 C8.35068687 6.20628639 8.95125002 7.37812506 10 10 C6.58638198 8.8006207 4.43511004 7.66702528 2 5 C1.34 4.67 0.68 4.34 0 4 C0 2.68 0 1.36 0 0 Z " fill="#351B15" transform="translate(79,34)"/>
<path d="M0 0 C2.02045442 0.60183749 4.02111039 1.27306096 6 2 C7.35439668 4.70879335 7.06501451 7.00933268 7 10 C7.66 10 8.32 10 9 10 C9 10.66 9 11.32 9 12 C8.01 11.67 7.02 11.34 6 11 C6 9.02 6 7.04 6 5 C5.38125 4.9175 4.7625 4.835 4.125 4.75 C2 4 2 4 0.75 1.9375 C0.5025 1.298125 0.255 0.65875 0 0 Z " fill="#E9DDCF" transform="translate(99,29)"/>
<path d="M0 0 C1.31625194 2.63250388 0.74813658 3.80179056 0.0625 6.625 C-0.13214844 7.44226563 -0.32679687 8.25953125 -0.52734375 9.1015625 C-0.68332031 9.72804688 -0.83929688 10.35453125 -1 11 C-1.99 10.67 -2.98 10.34 -4 10 C-2.25 2.25 -2.25 2.25 0 0 Z " fill="#110806" transform="translate(85,67)"/>
<path d="M0 0 C1.65 0.33 3.3 0.66 5 1 C4.67 2.32 4.34 3.64 4 5 C2.35 5 0.7 5 -1 5 C-0.67 3.35 -0.34 1.7 0 0 Z " fill="#8D847C" transform="translate(68,47)"/>
<path d="M0 0 C0 0.66 0 1.32 0 2 C-1.76913824 2.22226864 -3.54044371 2.42733873 -5.3125 2.625 C-6.29863281 2.74101562 -7.28476563 2.85703125 -8.30078125 2.9765625 C-11 3 -11 3 -14 1 C-9.32798795 -0.20568053 -4.78503708 -0.09382426 0 0 Z " fill="#EBD2BA" transform="translate(99,27)"/>
<path d="M0 0 C-1.15173355 2.46800047 -2.04783565 4.04783565 -4 6 C-5.32 6 -6.64 6 -8 6 C-8 5.34 -8 4.68 -8 4 C-3.64705882 0 -3.64705882 0 0 0 Z " fill="#140907" transform="translate(77,85)"/>
<path d="M0 0 C0.66 0 1.32 0 2 0 C2.33 0.99 2.66 1.98 3 3 C1.68 4.32 0.36 5.64 -1 7 C-1.66 6.67 -2.32 6.34 -3 6 C-1.125 1.125 -1.125 1.125 0 0 Z " fill="#FDFDFD" transform="translate(43,61)"/>
<path d="M0 0 C4.29 0.33 8.58 0.66 13 1 C13 1.33 13 1.66 13 2 C8.38 2.33 3.76 2.66 -1 3 C-0.67 2.01 -0.34 1.02 0 0 Z " fill="#AB988F" transform="translate(20,6)"/>
<path d="M0 0 C0.33 0.99 0.66 1.98 1 3 C-1.31 5.31 -3.62 7.62 -6 10 C-6 6.41087588 -5.33563446 5.89142971 -3 3.3125 C-2.443125 2.68988281 -1.88625 2.06726563 -1.3125 1.42578125 C-0.879375 0.95527344 -0.44625 0.48476562 0 0 Z " fill="#EB7053" transform="translate(103,72)"/>
<path d="M0 0 C0.99 0.33 1.98 0.66 3 1 C2.67 2.65 2.34 4.3 2 6 C1.01 5.67 0.02 5.34 -1 5 C-0.67 3.35 -0.34 1.7 0 0 Z " fill="#120906" transform="translate(79,94)"/>
<path d="M0 0 C0.33 0 0.66 0 1 0 C1 1.65 1 3.3 1 5 C0.34 5 -0.32 5 -1 5 C-1 6.32 -1 7.64 -1 9 C-1.99 9.33 -2.98 9.66 -4 10 C-2.99806563 6.20696275 -2.18975773 3.28463659 0 0 Z " fill="#F3DCC0" transform="translate(29,77)"/>
<path d="M0 0 C0.433125 0.9590625 0.433125 0.9590625 0.875 1.9375 C1.82823451 4.15206079 1.82823451 4.15206079 4 5 C3.34 5.66 2.68 6.32 2 7 C0.68 7 -0.64 7 -2 7 C-1.34 4.69 -0.68 2.38 0 0 Z " fill="#EE9060" transform="translate(31,77)"/>
<path d="M0 0 C0.99 0.33 1.98 0.66 3 1 C3 2.65 3 4.3 3 6 C2.01 6 1.02 6 0 6 C0 4.02 0 2.04 0 0 Z " fill="#F0F2EA" transform="translate(67,72)"/>
<path d="M0 0 C0.33 0 0.66 0 1 0 C1 1.98 1 3.96 1 6 C1.639375 6.103125 2.27875 6.20625 2.9375 6.3125 C3.618125 6.539375 4.29875 6.76625 5 7 C5.33 7.99 5.66 8.98 6 10 C1.125 8.125 1.125 8.125 0 7 C-0.04092937 4.66702567 -0.04241723 2.33294775 0 0 Z " fill="#ED875C" transform="translate(18,60)"/>
<path d="M0 0 C4.31392226 0.4793247 6.16569547 1.7457985 9 5 C4.98525763 5 3.18024863 3.33218233 0 1 C0 0.67 0 0.34 0 0 Z " fill="#51372F" transform="translate(61,33)"/>
<path d="M0 0 C0.33 0.99 0.66 1.98 1 3 C0.01 4.485 0.01 4.485 -1 6 C-1.66 6 -2.32 6 -3 6 C-3.33 6.99 -3.66 7.98 -4 9 C-3.46930939 5.17902761 -2.50298434 2.93828597 0 0 Z " fill="#AD9A90" transform="translate(88,90)"/>
<path d="M0 0 C0.66 0.33 1.32 0.66 2 1 C0.02 3.31 -1.96 5.62 -4 8 C-4.33 7.01 -4.66 6.02 -5 5 C-3.35 3.35 -1.7 1.7 0 0 Z " fill="#E4CAB5" transform="translate(94,84)"/>
<path d="M0 0 C1.98 0.495 1.98 0.495 4 1 C4 1.99 4 2.98 4 4 C2.35 3.67 0.7 3.34 -1 3 C-0.67 2.01 -0.34 1.02 0 0 Z " fill="#FAFBF9" transform="translate(23,73)"/>
<path d="M0 0 C1.32 0.33 2.64 0.66 4 1 C4 1.66 4 2.32 4 3 C6.97 3.495 6.97 3.495 10 4 C8.02 4.99 8.02 4.99 6 6 C3.97945196 4.35830472 1.97956942 2.69088222 0 1 C0 0.67 0 0.34 0 0 Z " fill="#B19D93" transform="translate(81,26)"/>
</svg>
