<?xml version="1.0" encoding="UTF-8"?>
<svg version="1.1" xmlns="http://www.w3.org/2000/svg" width="128" height="128">
<path d="M0 0 C42.24 0 84.48 0 128 0 C128 42.24 128 84.48 128 128 C85.76 128 43.52 128 0 128 C0 85.76 0 43.52 0 0 Z " fill="#FCFCFB" transform="translate(0,0)"/>
<path d="M0 0 C37.62 0 75.24 0 114 0 C114 17.49 114 34.98 114 53 C112.02 53.66 110.04 54.32 108 55 C107.90203125 55.75925781 107.8040625 56.51851562 107.703125 57.30078125 C107.55359375 58.29464844 107.4040625 59.28851563 107.25 60.3125 C107.11078125 61.29863281 106.9715625 62.28476562 106.828125 63.30078125 C105.84445214 66.50699797 104.85305533 67.33797346 102 69 C97.67444259 70.73022296 94.23209411 69.47994148 90.02734375 67.96875 C87.5333438 66.77701206 86.26825679 65.45196313 85 63 C83.56172744 64.21443275 83.56172744 64.21443275 83.8125 67.8125 C83.40049513 71.3620804 83.2248485 71.80191918 80.375 74.3125 C75.98955727 76.50522136 71.66040112 78.44653296 67 80 C66.25 76.75 66.25 76.75 66 73 C67.30973998 71.6434836 68.64802142 70.31442362 70 69 C70.94855976 66.49614405 71.64744766 63.97917526 72.34375 61.39453125 C73 59 73 59 74.125 56.25 C75.18136792 53.53362535 75.59827469 50.87903136 76 48 C72.85638707 48.68653558 72.85638707 48.68653558 71.6484375 51.25 C71.22820312 52.1575 70.80796875 53.065 70.375 54 C68.05882353 58.94117647 68.05882353 58.94117647 67 60 C65.14712498 60.07226502 63.29166122 60.0838122 61.4375 60.0625 C60.42558594 60.05347656 59.41367188 60.04445312 58.37109375 60.03515625 C57.19740234 60.01775391 57.19740234 60.01775391 56 60 C54.01636492 66.23428168 52.99681713 72.54189755 52 79 C50.33388095 79.042721 48.66617115 79.04063832 47 79 C46 78 46 78 45.90234375 75.49609375 C45.91394531 74.48675781 45.92554688 73.47742188 45.9375 72.4375 C45.94652344 71.42558594 45.95554688 70.41367188 45.96484375 69.37109375 C45.97644531 68.58863281 45.98804688 67.80617188 46 67 C46.66 67 47.32 67 48 67 C48.33 61.72 48.66 56.44 49 51 C44.29476286 53.35261857 44.06357621 54.389551 42.25 59.125 C41.82203125 60.22070312 41.3940625 61.31640625 40.953125 62.4453125 C40.48132812 63.70988281 40.48132812 63.70988281 40 65 C34.25 64.125 34.25 64.125 32 63 C32.350625 62.443125 32.70125 61.88625 33.0625 61.3125 C34.27787538 58.31457406 34.02005 57.06015001 33 54 C31.7295036 51.95950578 30.40568804 49.94982535 29 48 C26.525 48.495 26.525 48.495 24 49 C23.01 52.3 22.02 55.6 21 59 C20.34 59 19.68 59 19 59 C19.02320312 57.80761719 19.04640625 56.61523438 19.0703125 55.38671875 C19.08907178 53.82031876 19.10727181 52.253912 19.125 50.6875 C19.14175781 49.90181641 19.15851562 49.11613281 19.17578125 48.30664062 C19.18222656 47.54931641 19.18867187 46.79199219 19.1953125 46.01171875 C19.20578613 45.31522217 19.21625977 44.61872559 19.22705078 43.90112305 C19.10574595 41.668827 19.10574595 41.668827 17 39 C16.875 35.8125 16.875 35.8125 17 33 C16.06027344 33.05220703 16.06027344 33.05220703 15.1015625 33.10546875 C14.28429688 33.13253906 13.46703125 33.15960938 12.625 33.1875 C11.81289063 33.22230469 11.00078125 33.25710937 10.1640625 33.29296875 C9.44992188 33.19628906 8.73578125 33.09960938 8 33 C5.56722149 29.35083224 5.77330309 27.46934601 5.6875 23.125 C5.42845881 16.3124667 3.79067792 10.80402593 1.05859375 4.51171875 C0 2 0 2 0 0 Z " fill="#2F2E2F" transform="translate(14,0)"/>
<path d="M0 0 C4.62 0 9.24 0 14 0 C18.24255414 9.14679103 20.67240475 16.92815913 20.89453125 27.05078125 C20.79335674 29.93251531 20.79335674 29.93251531 22 32 C24.12576782 32.46651207 24.12576782 32.46651207 26.5625 32.625 C27.38878906 32.69976562 28.21507813 32.77453125 29.06640625 32.8515625 C29.70449219 32.90054688 30.34257812 32.94953125 31 33 C31.13277344 33.56589844 31.26554687 34.13179687 31.40234375 34.71484375 C31.57894531 35.44832031 31.75554688 36.18179688 31.9375 36.9375 C32.11152344 37.66839844 32.28554688 38.39929687 32.46484375 39.15234375 C32.83887569 40.99969898 32.83887569 40.99969898 34 42 C33.90903444 44.86688248 33.76232012 47.70300515 33.5625 50.5625 C33.51029297 51.36880859 33.45808594 52.17511719 33.40429688 53.00585938 C33.27422624 55.00421738 33.13770944 57.00215386 33 59 C33.66 59 34.32 59 35 59 C35.66 55.7 36.32 52.4 37 49 C38.98 48.34 40.96 47.68 43 47 C49.05341246 54.46587537 49.05341246 54.46587537 48.75 57.5 C48 60 48 60 46 63 C48.64 63.33 51.28 63.66 54 64 C54.26554687 63.22914062 54.53109375 62.45828125 54.8046875 61.6640625 C55.33449219 60.15972656 55.33449219 60.15972656 55.875 58.625 C56.39707031 57.12839844 56.39707031 57.12839844 56.9296875 55.6015625 C58 53 58 53 60 51 C60.99 51 61.98 51 63 51 C64.24327778 56.84340558 63.57300962 61.26696495 62 67 C61.34 67 60.68 67 60 67 C60.495 72.445 60.495 72.445 61 78 C62.65 78.33 64.3 78.66 66 79 C66.09796875 77.72382812 66.1959375 76.44765625 66.296875 75.1328125 C66.44692982 73.46345267 66.59802554 71.79418617 66.75 70.125 C66.811875 69.28324219 66.87375 68.44148438 66.9375 67.57421875 C67.01484375 66.76855469 67.0921875 65.96289062 67.171875 65.1328125 C67.2347168 64.38918457 67.29755859 63.64555664 67.36230469 62.87939453 C68 61 68 61 69.90429688 59.75390625 C73.58150877 58.43106954 77.12395811 58.88599877 81 59 C82.98 55.37 84.96 51.74 87 48 C87.99 48 88.98 48 90 48 C89.60901934 53.94560248 88.57162134 58.54816276 86 64 C85.67 65.0725 85.34 66.145 85 67.25 C84 70 84 70 82.375 71.4375 C80.11844801 74.00176362 80.81557256 76.74178183 81 80 C82.98 78.68 84.96 77.36 87 76 C87.66 76.33 88.32 76.66 89 77 C87.7260411 79.03833424 86.38938077 81.03852126 85 83 C84.34 83 83.68 83 83 83 C82.690625 83.61875 82.38125 84.2375 82.0625 84.875 C80.29300252 88.41399495 79.7822879 89.27246966 76 90.5625 C73.26066983 91.39037842 73.26066983 91.39037842 71 93 C68.48393551 93.24349011 65.96913976 93.38363366 63.4453125 93.5234375 C60.62355667 94.07336435 59.71476478 94.73367076 58 97 C57.7525 97.845625 57.505 98.69125 57.25 99.5625 C56 102 56 102 52.75 103.625 C49 104 49 104 45.75 101.8125 C44.32184985 100.35189189 42.89974593 98.88002837 41.58984375 97.3125 C40.08746999 95.81431038 40.08746999 95.81431038 38.01953125 95.85546875 C35.67284678 96.20850978 33.33506698 96.57613047 31 97 C30.27683594 97.103125 29.55367187 97.20625 28.80859375 97.3125 C23.08560086 98.35501863 21.2462051 100.51259883 18 105 C15.45645023 106.27177488 13.52834848 106.23946059 10.6875 106.3125 C9.74261719 106.34988281 8.79773437 106.38726562 7.82421875 106.42578125 C3.9840015 105.84682733 2.62783907 104.88184012 0 102 C-0.73662376 98.73254035 -0.63147378 95.51906988 -0.56762695 92.18261719 C-0.56835709 91.18716888 -0.56908722 90.19172058 -0.56983948 89.16610718 C-0.56635604 85.87580883 -0.52745751 82.58692604 -0.48828125 79.296875 C-0.47895586 77.01573459 -0.47183846 74.73458417 -0.46684265 72.45343018 C-0.44775155 66.44934442 -0.39863157 60.44586341 -0.34332275 54.4420166 C-0.29217639 48.31559429 -0.26933841 42.18907427 -0.24414062 36.0625 C-0.19051568 24.04140096 -0.10517656 12.02075077 0 0 Z " fill="#E3DCD9" transform="translate(0,0)"/>
<path d="M0 0 C34.98 0 69.96 0 106 0 C106 8.58 106 17.16 106 26 C100 25 100 25 98.125 22.9375 C97.568125 21.9784375 97.568125 21.9784375 97 21 C95.05600216 21.15103828 95.05600216 21.15103828 93 22 C91.64897007 24.0720554 91.64897007 24.0720554 90.75 26.5625 C90.24726563 27.80193359 90.24726563 27.80193359 89.734375 29.06640625 C89.37085937 30.02353516 89.37085937 30.02353516 89 31 C88.34 31 87.68 31 87 31 C86.01 26.05 86.01 26.05 85 21 C80.74152431 22.06461892 79.91249624 22.99042055 77 26 C75 26 75 26 72.875 24 C72.25625 23.34 71.6375 22.68 71 22 C70.278125 22.886875 69.55625 23.77375 68.8125 24.6875 C66.27286173 26.84863449 65.20609805 27.01262856 61.8125 26.8046875 C52.85601316 24.90543248 52.85601316 24.90543248 50.10546875 21.99609375 C49 20 49 20 49 18 C42.73 18.66 36.46 19.32 30 20 C29.67 21.32 29.34 22.64 29 24 C27.3125 24.6875 27.3125 24.6875 25 25 C22.3125 23.8125 22.3125 23.8125 20 22 C19.63837971 20.67405895 19.30271961 19.34061543 19 18 C18.39027344 17.69964844 17.78054687 17.39929688 17.15234375 17.08984375 C14.76854992 15.88280477 13.74569763 14.72183478 12.125 12.625 C10.06647188 10.10265162 8.59317906 8.72878604 5.8125 6.875 C3 5 3 5 0 0 Z " fill="#FBFBFA" transform="translate(22,0)"/>
<path d="M0 0 C2.3125 -0.3125 2.3125 -0.3125 5 0 C6.04349839 1.63978318 7.03182008 3.31464976 8 5 C10.02708417 6.80505061 12.11421703 8.49162641 14.2578125 10.15625 C16.36723074 12.38863881 16.66006357 13.99207761 17 17 C17.99 17.33 18.98 17.66 20 18 C20 18.66 20 19.32 20 20 C20.804375 20.268125 21.60875 20.53625 22.4375 20.8125 C23.283125 21.204375 24.12875 21.59625 25 22 C25.33 22.99 25.66 23.98 26 25 C29.03336186 25.22893297 31.97465051 25.36475845 35 25 C37.12355567 23.17728073 37.12355567 23.17728073 38 21 C40.375 21.1875 40.375 21.1875 43 22 C44.3125 24.5625 44.3125 24.5625 45 27 C45.66 27 46.32 27 47 27 C47.33 25.02 47.66 23.04 48 21 C50.75 20.6875 50.75 20.6875 54 21 C54.598125 21.78375 55.19625 22.5675 55.8125 23.375 C58.97473556 27.16968267 62.25335054 27.3901874 67 28 C68.670625 28.2165625 68.670625 28.2165625 70.375 28.4375 C73.24762597 28.26920334 73.24762597 28.26920334 74.875 25.5 C75.431875 24.2625 75.431875 24.2625 76 23 C77.485 23.495 77.485 23.495 79 24 C79.73046875 26.06640625 79.73046875 26.06640625 80.1875 28.5625 C80.34605469 29.38878906 80.50460938 30.21507813 80.66796875 31.06640625 C80.83232422 32.02353516 80.83232422 32.02353516 81 33 C81.99 33 82.98 33 84 33 C84.28875 31.741875 84.5775 30.48375 84.875 29.1875 C85.57303539 26.1460601 86.20446585 24.69330122 88 22 C88.99 22 89.98 22 91 22 C91.22171552 24.60365928 91.42784859 27.20696493 91.625 29.8125 C91.68945312 30.55048828 91.75390625 31.28847656 91.8203125 32.04882812 C92.2265625 37.66015625 92.2265625 37.66015625 90 41 C89.57859131 43.00788847 89.23109852 45.0319825 88.9375 47.0625 C88.09433962 52.81132075 88.09433962 52.81132075 87 55 C85.52093108 55.02689216 84.04172517 55.04634621 82.5625 55.0625 C81.73878906 55.07410156 80.91507812 55.08570313 80.06640625 55.09765625 C78 55 78 55 77 54 C76.6068352 52.32115762 76.25914548 50.63149955 75.9375 48.9375 C75.76089844 48.01839844 75.58429688 47.09929688 75.40234375 46.15234375 C75.26957031 45.44207031 75.13679688 44.73179688 75 44 C72.11095637 43.69889182 72.11095637 43.69889182 69 45 C67.63505874 47.48926787 66.74364764 49.95686356 65.859375 52.65234375 C65 55 65 55 63 57 C59.6875 56.75 59.6875 56.75 56 56 C55.113125 55.835 54.22625 55.67 53.3125 55.5 C49.57189538 53.07366187 48.37995715 49.1321622 47 45 C47 44.34 47 43.68 47 43 C46.21625 42.855625 45.4325 42.71125 44.625 42.5625 C42 42 42 42 40 41 C38.3146804 40.90465746 36.62550734 40.87014242 34.9375 40.875 C34.03902344 40.87242188 33.14054687 40.86984375 32.21484375 40.8671875 C30.02621107 40.75261777 30.02621107 40.75261777 29 42 C32.63 42.66 36.26 43.32 40 44 C40.495 46.475 40.495 46.475 41 49 C40.34 49 39.68 49 39 49 C38.67 52.96 38.34 56.92 38 61 C36.02 61.495 36.02 61.495 34 62 C34.2475 60.96875 34.495 59.9375 34.75 58.875 C35.05764812 54.10645414 33.97380256 52.63464757 31 49 C30.54625 48.38125 30.0925 47.7625 29.625 47.125 C27.15122641 45.41238752 24.91788105 45.8054746 22 46 C21.731875 45.071875 21.46375 44.14375 21.1875 43.1875 C20.27230099 40.05575945 20.27230099 40.05575945 18.4375 38.4375 C16.48009342 36.48009342 16.3629776 34.68603421 16 32 C15.04287109 31.90912109 15.04287109 31.90912109 14.06640625 31.81640625 C13.24011719 31.73261719 12.41382813 31.64882813 11.5625 31.5625 C10.73878906 31.48128906 9.91507813 31.40007813 9.06640625 31.31640625 C7 31 7 31 6 30 C5.78675431 27.87176577 5.57916725 25.7427744 5.40380859 23.61108398 C4.74175673 15.61938565 3.89401923 9.13903525 0 2 C0 1.34 0 0.68 0 0 Z " fill="#070607" transform="translate(16,0)"/>
<path d="M0 0 C3.14323783 1.46197108 5.85440147 2.88281094 8.5625 5.0625 C10.84352438 7.1137788 10.84352438 7.1137788 13.4765625 7.77734375 C17.7254116 9.83599664 18.4374319 13.53087995 20.0703125 17.75 C21.17391826 21.60798315 21.3315759 24.86895204 20.98046875 28.84375 C21.00409318 31.45188667 21.57205343 32.83008119 23 35 C24.97416268 36.05008653 26.97582866 37.04987876 29 38 C31.31072776 39.76767903 31.93427819 40.72725449 32.625 43.59375 C32.875 45.53125 33.125 47.46875 33.375 49.40625 C34.0601107 52.24945941 34.72697012 53.22703669 37 55 C39.44971624 56.22485812 41.14234461 56.16722808 43.875 56.1875 C44.73867188 56.20167969 45.60234375 56.21585938 46.4921875 56.23046875 C49.1399483 55.98713871 50.67946275 55.22998434 53 54 C55.25 54.375 55.25 54.375 57 55 C57.495 56.98 57.495 56.98 58 59 C55.1875 61.0625 55.1875 61.0625 52 63 C51.01 62.67 50.02 62.34 49 62 C44.68333928 61.86296315 41.16584003 61.9199674 37 63 C36.01 62.67 35.02 62.34 34 62 C28.88292253 61.7993303 24.05225946 62.29091095 19 63 C20.33694875 60.02107051 21.83920423 58.000902 24.125 55.6875 C26.41653786 53.03861836 27.01802968 51.92530562 27.875 48.375 C26.87228034 44.50736701 26.37801824 44.232679 23.125 42.25 C22.40570312 41.88390625 21.68640625 41.5178125 20.9453125 41.140625 C19 40 19 40 17 37 C16.63793973 34.28167451 16.35439655 31.60399762 16.125 28.875 C15.47020283 22.18913902 14.2561234 16.96955957 11 11 C9.08775269 12.59942585 8.09422274 13.48633407 7.63671875 15.98046875 C7.74220735 20.56516557 8.30827023 24.54705754 9.55078125 28.953125 C10.66678422 34.03821679 10.29075226 39.00709011 9 44 C8.53773096 50.35619926 9.77015196 55.71620231 11.44140625 61.8515625 C12.04801694 65.27064095 11.87765179 67.65245382 11 71 C9 73 9 73 6.94140625 73.265625 C6.15636719 73.26046875 5.37132812 73.2553125 4.5625 73.25 C3.38880859 73.25773437 3.38880859 73.25773437 2.19140625 73.265625 C0 73 0 73 -3 71 C-3 70.34 -3 69.68 -3 69 C-4.32 68.67 -5.64 68.34 -7 68 C-7.14852367 63.37367797 -7.25729019 58.74874758 -7.32958984 54.12060547 C-7.35973081 52.54711737 -7.40065294 50.97379688 -7.45263672 49.40087891 C-7.52558491 47.13662413 -7.55947806 44.87459186 -7.5859375 42.609375 C-7.63238907 41.55759064 -7.63238907 41.55759064 -7.67977905 40.48455811 C-7.68115234 38.48339844 -7.68115234 38.48339844 -7 35 C-4.01831055 32.64794922 -4.01831055 32.64794922 -1 31 C0.23811368 28.21561991 0.05915561 25.63994334 -0.0625 22.625 C-0.12488059 19.45398657 0.06908989 17.81091188 1.1875 14.75 C1.455625 13.8425 1.72375 12.935 2 12 C0.6446674 9.46326712 0.6446674 9.46326712 -1 7 C-1.25 3.75 -1.25 3.75 -1 1 C-0.67 0.67 -0.34 0.34 0 0 Z " fill="#CA8166" transform="translate(7,31)"/>
<path d="M0 0 C3.73443858 3.02311694 5.57094688 7.43079982 6.34790039 12.08325195 C6.62991473 15.00627897 6.83718008 17.92716151 6.99609375 20.859375 C7.34192901 24.96524898 7.69907052 26.63083366 10.39453125 29.9375 C12.91154781 32.08059876 12.91154781 32.08059876 15.8125 33.375 C18 35 18 35 18.75 38.1875 C17.83058743 42.86118057 15.98236194 44.8535371 12.7265625 48.203125 C10.8140243 50.08774129 10.8140243 50.08774129 9 53 C10.7634375 52.505 10.7634375 52.505 12.5625 52 C18.28291615 50.57494933 23.26081624 50.85216325 29 52 C29.66 51.67 30.32 51.34 31 51 C33.67580435 50.95684187 36.32663282 50.9546032 39 51 C42.76687864 51 43.91190305 50.76462683 47 49 C46.73323796 47.01508358 46.73323796 47.01508358 46 45 C45.01 44.67 44.02 44.34 43 44 C43 43.34 43 42.68 43 42 C44.65 42.33 46.3 42.66 48 43 C48 43.66 48 44.32 48 45 C49.32 45.66 50.64 46.32 52 47 C51.74609375 48.8984375 51.74609375 48.8984375 51 51 C49.22265625 51.9765625 49.22265625 51.9765625 47.0625 52.625 C44.24747904 53.49351826 43.13620863 53.86379137 41 56 C40.773125 56.825 40.54625 57.65 40.3125 58.5 C39 61 39 61 35.75 62.625 C32 63 32 63 28.75 60.8125 C27.32184985 59.35189189 25.89974593 57.88002837 24.58984375 56.3125 C23.08746999 54.81431038 23.08746999 54.81431038 21.01953125 54.85546875 C18.67284678 55.20850978 16.33506698 55.57613047 14 56 C12.91525391 56.1546875 12.91525391 56.1546875 11.80859375 56.3125 C6.08560086 57.35501863 4.2462051 59.51259883 1 64 C-2.93791705 65.96895853 -7.70736133 65.45771651 -12 65 C-15.1875 63.1875 -15.1875 63.1875 -17 61 C-17 60.01 -17 59.02 -17 58 C-14.57850187 58.41749968 -13.31202575 58.64919648 -11.6484375 60.51953125 C-9.50346618 62.44593914 -8.28273573 62.40312424 -5.4375 62.375 C-4.65246094 62.38273437 -3.86742187 62.39046875 -3.05859375 62.3984375 C-2.37925781 62.26695313 -1.69992187 62.13546875 -1 62 C1.20608265 58.69087603 1.081137 57.82857154 0.42578125 54.0859375 C0.12025885 52.58915802 -0.19612518 51.09458001 -0.51953125 49.6015625 C-1.76569115 43.77419604 -3.0070686 37.94959717 -1.5 32.0390625 C-0.28130725 27.06908115 -0.61972355 21.89459734 -2 17 C-3.20335035 12.67140162 -3.6058553 8.46928044 -3 4 C-1.5 1.4375 -1.5 1.4375 0 0 Z " fill="#DFD6D2" transform="translate(17,41)"/>
<path d="M0 0 C3.63 0 7.26 0 11 0 C17.95057346 11.72676966 20.23915208 22.36833165 20 36 C14.55791766 35.65986985 11.06331802 32.29703472 7 29 C4.46730259 32.79904612 4.98228068 34.33070154 5.4375 38.8125 C5.88372305 44.14885659 6.09254405 49.3894915 5.875 54.75 C5.83117187 55.87921875 5.78734375 57.0084375 5.7421875 58.171875 C5 61 5 61 0 64 C0 42.88 0 21.76 0 0 Z " fill="#FBFBFA" transform="translate(0,0)"/>
<path d="M0 0 C1.5625 1.5 1.5625 1.5 3 4 C2.83377464 5.8949691 2.64922924 7.7916993 2.3359375 9.66796875 C1.30485121 16.82562587 1.8771571 23.71208298 3.5625 30.7109375 C4.18932118 33.99055546 4.6009663 36.87318818 3 39.875 C0.28329586 41.40314608 -2.03663479 41.2704608 -5.06640625 40.78125 C-8.67460698 39.32339112 -9.45721686 36.44159315 -11 33 C-11.66 32.01 -12.32 31.02 -13 30 C-13.51213511 26.20438044 -13.46255474 22.38893772 -13.5 18.5625 C-13.561875 16.98758789 -13.561875 16.98758789 -13.625 15.38085938 C-13.65471411 12.46701939 -13.60092852 9.85226223 -13 7 C-10.2109375 4.38671875 -10.2109375 4.38671875 -7 3 C-5.95199219 2.48179688 -5.95199219 2.48179688 -4.8828125 1.953125 C-3.25520833 1.30208333 -1.62760417 0.65104167 0 0 Z " fill="#A62028" transform="translate(13,62)"/>
<path d="M0 0 C3.13016044 2.27648032 3.84161176 5.08678156 4.66796875 8.76171875 C5.00530614 11.03576961 5.05227857 13.14126424 5 15.4375 C4.88141001 22.33943752 5.65749316 27.68114617 10.1875 33.0625 C12.95524263 36.39317333 12.95524263 36.39317333 13.16796875 39.27734375 C12.875 41.5 12.875 41.5 12 45 C11.21625 45.226875 10.4325 45.45375 9.625 45.6875 C6.78125 46.78125 6.78125 46.78125 5.6875 49.625 C5.460625 50.40875 5.23375 51.1925 5 52 C4.34 52 3.68 52 3 52 C2.67 50.68 2.34 49.36 2 48 C1.01 48 0.02 48 -1 48 C-2.0389988 42.80500602 -2.81226482 37.2362677 -1.50390625 32.0234375 C-0.26942302 27.0663653 -0.62273474 21.88391936 -2 17 C-3.20335035 12.67140162 -3.6058553 8.46928044 -3 4 C-1.5 1.4375 -1.5 1.4375 0 0 Z " fill="#E4DDDA" transform="translate(17,41)"/>
<path d="M0 0 C1.32 0 2.64 0 4 0 C6.3125 2.8125 6.3125 2.8125 8 6 C7.67 6.99 7.34 7.98 7 9 C6.01 9.495 6.01 9.495 5 10 C5 11.98 5 13.96 5 16 C5.804375 16.144375 6.60875 16.28875 7.4375 16.4375 C10 17 10 17 11 18 C11.45459858 20.65463121 11.70243238 23.32189138 12 26 C12.94875 26.061875 13.8975 26.12375 14.875 26.1875 C15.90625 26.455625 16.9375 26.72375 18 27 C19.375 29.5625 19.375 29.5625 20 32 C16.70670174 33.96661413 14.18703427 34.27055005 10.375 34.25 C9.41335937 34.25515625 8.45171875 34.2603125 7.4609375 34.265625 C5 34 5 34 3 32 C2.20447416 29.00147952 1.59637905 25.9846539 0.9765625 22.9453125 C-0.10809976 19.67397112 -1.40469701 18.21081366 -4 16 C-2.68 15.67 -1.36 15.34 0 15 C0.04254356 13.00045254 0.04080783 10.99958364 0 9 C-0.33 8.67 -0.66 8.34 -1 8 C-1.125 4.5 -1.125 4.5 -1 1 C-0.67 0.67 -0.34 0.34 0 0 Z " fill="#FCFCFB" transform="translate(40,50)"/>
<path d="M0 0 C1.875 1.4375 1.875 1.4375 2.625 4.5625 C2.7075 5.51125 2.79 6.46 2.875 7.4375 C4.195 7.4375 5.515 7.4375 6.875 7.4375 C6.875 9.4175 6.875 11.3975 6.875 13.4375 C1.33653846 12.94519231 1.33653846 12.94519231 -1 10.375 C-1.37125 9.735625 -1.7425 9.09625 -2.125 8.4375 C-4.06899784 8.58853828 -4.06899784 8.58853828 -6.125 9.4375 C-7.47602993 11.5095554 -7.47602993 11.5095554 -8.375 14 C-8.71015625 14.82628906 -9.0453125 15.65257813 -9.390625 16.50390625 C-9.63296875 17.14199219 -9.8753125 17.78007812 -10.125 18.4375 C-10.785 18.4375 -11.445 18.4375 -12.125 18.4375 C-12.785 15.1375 -13.445 11.8375 -14.125 8.4375 C-18.38347569 9.50211892 -19.21250376 10.42792055 -22.125 13.4375 C-24.125 13.4375 -24.125 13.4375 -26.25 11.4375 C-26.86875 10.7775 -27.4875 10.1175 -28.125 9.4375 C-29.2078125 10.7678125 -29.2078125 10.7678125 -30.3125 12.125 C-32.84425678 14.27334169 -33.93226413 14.44718403 -37.3125 14.27734375 C-46.42001161 12.41721582 -46.42001161 12.41721582 -49.01953125 8.8046875 C-49.38433594 8.02351563 -49.74914062 7.24234375 -50.125 6.4375 C-49.135 6.7675 -48.145 7.0975 -47.125 7.4375 C-47.125 8.0975 -47.125 8.7575 -47.125 9.4375 C-46.53332031 9.41429687 -45.94164063 9.39109375 -45.33203125 9.3671875 C-40.78698041 9.26338536 -37.26559941 9.30041643 -33.125 11.4375 C-32.8775 10.839375 -32.63 10.24125 -32.375 9.625 C-30.96129988 7.15102479 -29.47444617 6.00379745 -27.125 4.4375 C-26.8775 5.076875 -26.63 5.71625 -26.375 6.375 C-25.30937567 8.62491541 -25.30937567 8.62491541 -23 9.1875 C-22.38125 9.27 -21.7625 9.3525 -21.125 9.4375 C-20.691875 8.32375 -20.691875 8.32375 -20.25 7.1875 C-19.30197356 4.87010203 -18.27654089 2.65832885 -17.125 0.4375 C-15.475 0.4375 -13.825 0.4375 -12.125 0.4375 C-11.465 2.0875 -10.805 3.7375 -10.125 5.4375 C-9.361875 4.633125 -8.59875 3.82875 -7.8125 3 C-3.65223189 -0.96676727 -3.65223189 -0.96676727 0 0 Z " fill="#E2DBD8" transform="translate(121.125,12.5625)"/>
<path d="M0 0 C1.65 0 3.3 0 5 0 C6.17781058 3.68065805 6 7.1644081 6 11 C6.33 11.99 6.66 12.98 7 14 C6.5625 16.6875 6.5625 16.6875 6 19 C8.64 19.99 11.28 20.98 14 22 C13.67 23.32 13.34 24.64 13 26 C12.030625 26.268125 11.06125 26.53625 10.0625 26.8125 C9.051875 27.204375 8.04125 27.59625 7 28 C5.49939258 31.64433231 5.0034853 34.97298893 4.5 38.875 C4.335 39.90625 4.17 40.9375 4 42 C0.78548731 43.60725635 -2.43612536 43.05748185 -6 43 C-6 42.01 -6 41.02 -6 40 C-4.35 39.34 -2.7 38.68 -1 38 C-1.00523682 36.99098633 -1.01047363 35.98197266 -1.01586914 34.94238281 C-1.03399262 31.19271738 -1.04545888 27.44305582 -1.05493164 23.69335938 C-1.05995505 22.07160796 -1.06677494 20.44986105 -1.07543945 18.828125 C-1.08759229 16.49478031 -1.09324828 14.1614956 -1.09765625 11.828125 C-1.10281754 11.10506165 -1.10797882 10.38199829 -1.11329651 9.63702393 C-1.11366918 6.2798725 -1.04907619 3.20893892 0 0 Z " fill="#070607" transform="translate(114,24)"/>
<path d="M0 0 C0.99 0 1.98 0 3 0 C2.60901934 5.94560248 1.57162134 10.54816276 -1 16 C-1.33 17.0725 -1.66 18.145 -2 19.25 C-3 22 -3 22 -4.625 23.4375 C-6.88155199 26.00176362 -6.18442744 28.74178183 -6 32 C-4.02 30.68 -2.04 29.36 0 28 C0.66 28.33 1.32 28.66 2 29 C0.7260411 31.03833424 -0.61061923 33.03852126 -2 35 C-2.66 35 -3.32 35 -4 35 C-4.28875 35.639375 -4.5775 36.27875 -4.875 36.9375 C-6 39 -6 39 -8 40 C-9.99960012 40.039992 -12.00047242 40.04346799 -14 40 C-13.29355255 36.32647325 -11.66363793 33.32727586 -10 30 C-10 29.34 -10 28.68 -10 28 C-10.66 28 -11.32 28 -12 28 C-11.67 26.35 -11.34 24.7 -11 23 C-9.35 22.67 -7.7 22.34 -6 22 C-6 20.02 -6 18.04 -6 16 C-6.886875 15.87625 -7.77375 15.7525 -8.6875 15.625 C-11.71402798 15.05395699 -14.1754987 14.1836922 -17 13 C-17.05607422 14.57201172 -17.05607422 14.57201172 -17.11328125 16.17578125 C-17.17894515 17.55472305 -17.24539235 18.93362771 -17.3125 20.3125 C-17.33505859 21.00279297 -17.35761719 21.69308594 -17.38085938 22.40429688 C-17.65775645 27.61499646 -17.65775645 27.61499646 -19.53198242 29.72338867 C-20.01642822 30.14467041 -20.50087402 30.56595215 -21 31 C-20.77263707 28.03829871 -20.51931015 25.08292313 -20.25 22.125 C-20.188125 21.28324219 -20.12625 20.44148438 -20.0625 19.57421875 C-19.98515625 18.76855469 -19.9078125 17.96289062 -19.828125 17.1328125 C-19.7652832 16.38918457 -19.70244141 15.64555664 -19.63769531 14.87939453 C-19 13 -19 13 -17.09570312 11.75390625 C-13.41849123 10.43106954 -9.87604189 10.88599877 -6 11 C-4.02 7.37 -2.04 3.74 0 0 Z " fill="#C8B6B0" transform="translate(87,48)"/>
<path d="M0 0 C2 0.3125 2 0.3125 4 1 C5.64176774 4.28353549 5.18454039 7.89519638 5.1875 11.5 C5.19974609 12.28503906 5.21199219 13.07007813 5.22460938 13.87890625 C5.22986254 15.92063726 5.1222018 17.96192251 5 20 C3 22 3 22 0.375 22.125 C-0.40875 22.08375 -1.1925 22.0425 -2 22 C-1.67 23.32 -1.34 24.64 -1 26 C-3.3125 26.25 -3.3125 26.25 -6 26 C-7.8125 24 -7.8125 24 -9 22 C-10.43827256 23.21443275 -10.43827256 23.21443275 -10.1875 26.8125 C-10.58666413 30.6458521 -10.82004153 30.85309513 -14.0625 33.5 C-15.031875 33.995 -16.00125 34.49 -17 35 C-17.66 34.67 -18.32 34.34 -19 34 C-18.38125 33.4225 -17.7625 32.845 -17.125 32.25 C-14.40793535 28.09448936 -14.02940806 24.41228608 -13.39453125 19.546875 C-13 17 -13 17 -12 16 C-9.34536879 15.54540142 -6.67810862 15.29756762 -4 15 C-3.79503906 14.00097656 -3.59007813 13.00195312 -3.37890625 11.97265625 C-3.10949219 10.68230469 -2.84007813 9.39195313 -2.5625 8.0625 C-2.29566406 6.77472656 -2.02882813 5.48695312 -1.75390625 4.16015625 C-1 1 -1 1 0 0 Z " fill="#605D5D" transform="translate(108,41)"/>
<path d="M0 0 C0.99 0.33 1.98 0.66 3 1 C4.38056885 7.02430044 3.43399172 10.42605358 1 16 C0.42937603 17.49692836 -0.13343407 18.99686421 -0.6875 20.5 C-1.120625 21.655 -1.55375 22.81 -2 24 C-2.33 24 -2.66 24 -3 24 C-2.5031248 18.33562271 -1.32951034 14.24139827 1 9 C1.39764263 7.01178687 1.75455166 5.01267638 2 3 C-1.14361293 3.68653558 -1.14361293 3.68653558 -2.3515625 6.25 C-2.77179688 7.1575 -3.19203125 8.065 -3.625 9 C-5.94117647 13.94117647 -5.94117647 13.94117647 -7 15 C-8.85287502 15.07226502 -10.70833878 15.0838122 -12.5625 15.0625 C-13.57441406 15.05347656 -14.58632812 15.04445313 -15.62890625 15.03515625 C-16.80259766 15.01775391 -16.80259766 15.01775391 -18 15 C-19.98363508 21.23428168 -21.00318287 27.54189755 -22 34 C-23.66611905 34.042721 -25.33382885 34.04063832 -27 34 C-28 33 -28 33 -28.09765625 30.49609375 C-28.08025391 28.98208984 -28.08025391 28.98208984 -28.0625 27.4375 C-28.05347656 26.42558594 -28.04445313 25.41367188 -28.03515625 24.37109375 C-28.02355469 23.58863281 -28.01195312 22.80617188 -28 22 C-27.34 22 -26.68 22 -26 22 C-25.67 16.72 -25.34 11.44 -25 6 C-28.97609944 7.50830866 -28.97609944 7.50830866 -30.046875 9.9453125 C-30.39492188 11.02425781 -30.39492188 11.02425781 -30.75 12.125 C-30.99234375 12.84945312 -31.2346875 13.57390625 -31.484375 14.3203125 C-31.65453125 14.87460937 -31.8246875 15.42890625 -32 16 C-32.33 16 -32.66 16 -33 16 C-32.63118644 9.85310727 -31.09949571 7.30972626 -27 3 C-25.0625 4.125 -25.0625 4.125 -23 6 C-22.25 9.1875 -22.25 9.1875 -22 12 C-20.96875 11.979375 -19.9375 11.95875 -18.875 11.9375 C-15 12 -15 12 -11.75 12.6875 C-9.04228394 13.31860342 -9.04228394 13.31860342 -7.45703125 11.80859375 C-5.80304484 9.75552215 -4.92004853 7.81744858 -3.9375 5.375 C-2.21884498 1.10942249 -2.21884498 1.10942249 0 0 Z " fill="#6A6666" transform="translate(88,45)"/>
<path d="M0 0 C0.680625 0.721875 1.36125 1.44375 2.0625 2.1875 C4.0551319 4.19701862 6.0872303 5.80293071 8.4375 7.375 C11.7989526 9.67957668 14.21386163 12.36541466 16.73828125 15.546875 C17.95745727 17.13796393 17.95745727 17.13796393 20 18 C20.391875 18.825 20.78375 19.65 21.1875 20.5 C22.86679847 23.39876705 22.86679847 23.39876705 26.6875 23.8125 C28.3271875 23.9053125 28.3271875 23.9053125 30 24 C30.33 22.35 30.66 20.7 31 19 C37.27 18.67 43.54 18.34 50 18 C50.99 19.65 51.98 21.3 53 23 C57.19444839 24.89282184 61.40802985 25.76927601 66 26 C68.95178184 24.74022168 69.92876061 23.54466554 72 21 C74 22.375 74 22.375 76 24 C76 24.66 76 25.32 76 26 C77.32 25.67 78.64 25.34 80 25 C79.34 26.98 78.68 28.96 78 31 C74.98672434 29.49336217 74.38943382 26.96833589 73 24 C69.88667752 24.66868314 69.88667752 24.66868314 68.8125 27.0625 C68.544375 27.701875 68.27625 28.34125 68 29 C65.9367016 28.93958131 63.87422586 28.85068362 61.8125 28.75 C60.66394531 28.70359375 59.51539063 28.6571875 58.33203125 28.609375 C54.48151307 27.90517707 52.7793554 26.70313907 50 24 C49.505 23.01 49.505 23.01 49 22 C45.97065509 21.34227572 45.97065509 21.34227572 43 21 C43 22.98 43 24.96 43 27 C41.68 27 40.36 27 39 27 C38.34 25.35 37.68 23.7 37 22 C35.68 22 34.36 22 33 22 C32.566875 22.66 32.13375 23.32 31.6875 24 C30 26 30 26 26.8125 26.625 C20.55047009 25.59843772 16.73792666 21.91617555 12.5625 17.3125 C11 15 11 15 10 12 C8.20753136 10.18344378 8.20753136 10.18344378 6.0625 8.4375 C3.96656037 6.66869432 1.94005112 4.94005112 0 3 C0 2.01 0 1.02 0 0 Z " fill="#434142" transform="translate(21,0)"/>
<path d="M0 0 C4.04752607 4.12410089 3.70681566 9.27726204 3.99609375 14.71289062 C4.33963882 18.86832406 4.67710145 20.60230276 7.39453125 23.94921875 C9.91353082 26.07999534 9.91353082 26.07999534 12.8125 27.375 C13.534375 27.91125 14.25625 28.4475 15 29 C15.5271601 32.62422572 15.52416956 34.95166089 13.875 38.25 C12 40 12 40 8.875 41.4375 C5.75495175 42.70636976 5.75495175 42.70636976 5.125 45.6875 C5.08375 46.450625 5.0425 47.21375 5 48 C6.485 48.495 6.485 48.495 8 49 C8 49.66 8 50.32 8 51 C7.278125 51.04125 6.55625 51.0825 5.8125 51.125 C1.76956216 52.38280288 0.56651817 54.67046292 -2 58 C-5.93791705 59.96895853 -10.70736133 59.45771651 -15 59 C-18.1875 57.1875 -18.1875 57.1875 -20 55 C-20 54.01 -20 53.02 -20 52 C-17.57850187 52.41749968 -16.31202575 52.64919648 -14.6484375 54.51953125 C-12.50346618 56.44593914 -11.28273573 56.40312424 -8.4375 56.375 C-7.65246094 56.38273437 -6.86742187 56.39046875 -6.05859375 56.3984375 C-5.37925781 56.26695313 -4.69992187 56.13546875 -4 56 C-1.63425766 52.4513865 -1.89134735 51.4235475 -2.375 47.3125 C-2.48585938 46.31863281 -2.59671875 45.32476562 -2.7109375 44.30078125 C-2.85402344 43.16189453 -2.85402344 43.16189453 -3 42 C-2.34 42 -1.68 42 -1 42 C-0.67 43.32 -0.34 44.64 0 46 C0.66 46 1.32 46 2 46 C2.33 44.35 2.66 42.7 3 41 C4.98 40.34 6.96 39.68 9 39 C9.66339832 33.78417823 9.66339832 33.78417823 7.734375 29.109375 C7.20328125 28.49578125 6.6721875 27.8821875 6.125 27.25 C0.81858516 20.91734455 0.97798335 12.92599371 1 5 C0.708776 3.32546201 0.38929201 1.65449105 0 0 Z " fill="#D9CFCA" transform="translate(20,47)"/>
<path d="M0 0 C0.99 0 1.98 0 3 0 C7.24255414 9.14679103 9.67240475 16.92815913 9.89453125 27.05078125 C9.79335674 29.93251531 9.79335674 29.93251531 11 32 C13.12576782 32.46651207 13.12576782 32.46651207 15.5625 32.625 C16.38878906 32.69976562 17.21507813 32.77453125 18.06640625 32.8515625 C18.70449219 32.90054688 19.34257812 32.94953125 20 33 C20 33.66 20 34.32 20 35 C17.03 35.495 17.03 35.495 14 36 C14 38.64 14 41.28 14 44 C13.649375 43.401875 13.29875 42.80375 12.9375 42.1875 C10.36188537 39.279548 7.56648496 38.47578688 4 37 C2.31110128 35.6949419 0.6396721 34.36639342 -1 33 C-1.99 32.67 -2.98 32.34 -4 32 C-4.2667741 35.73483736 -4.15598482 37.70602861 -2.375 41.0625 C-1.92125 42.031875 -1.4675 43.00125 -1 44 C-1.30679687 44.76183594 -1.61359375 45.52367187 -1.9296875 46.30859375 C-3.19438433 49.48879854 -3.00946072 51.60971323 -2.75 55 C-2.62934532 60.44286687 -2.62934532 60.44286687 -4.2578125 62.890625 C-6.40238677 64.69331062 -8.13065289 66 -11 66 C-10 63 -10 63 -7 61 C-6.47623149 58.91411799 -6.47623149 58.91411799 -6.453125 56.4921875 C-6.41316406 55.58726563 -6.37320312 54.68234375 -6.33203125 53.75 C-6.30496094 52.80125 -6.27789063 51.8525 -6.25 50.875 C-6.20746094 49.94945312 -6.16492188 49.02390625 -6.12109375 48.0703125 C-5.95828256 43.80104121 -5.94919855 39.71241216 -6.54296875 35.4765625 C-6.99665359 32.02545559 -6.97357288 30.78622053 -5 28 C-1.14055432 30.11177216 1.89940099 31.89940099 5 35 C6.32362209 35.37001818 7.65714782 35.70736215 9 36 C7.72388573 19.65446888 7.72388573 19.65446888 1.20703125 4.92578125 C0 3 0 3 0 0 Z " fill="#B8AAA6" transform="translate(11,0)"/>
<path d="M0 0 C0.99 0 1.98 0 3 0 C4.24327778 5.84340558 3.57300962 10.26696495 2 16 C1.34 16 0.68 16 0 16 C0 19.63 0 23.26 0 27 C-0.33 26.34 -0.66 25.68 -1 25 C-2.99285937 24.62633887 -4.99363529 24.29259485 -7 24 C-8 23 -8 23 -8.0625 19.9375 C-8.041875 18.968125 -8.02125 17.99875 -8 17 C-10.31 16.34 -12.62 15.68 -15 15 C-15.33 13.02 -15.66 11.04 -16 9 C-15.01 8.34 -14.02 7.68 -13 7 C-12.27617533 4.94074861 -12.27617533 4.94074861 -12 3 C-11.3125 5.25 -11.3125 5.25 -11 8 C-12.4375 10.3125 -12.4375 10.3125 -14 12 C-11.36 12.33 -8.72 12.66 -6 13 C-5.73445313 12.22914062 -5.46890625 11.45828125 -5.1953125 10.6640625 C-4.84210937 9.66117188 -4.48890625 8.65828125 -4.125 7.625 C-3.77695312 6.62726562 -3.42890625 5.62953125 -3.0703125 4.6015625 C-2 2 -2 2 0 0 Z " fill="#BEB0AC" transform="translate(60,51)"/>
<path d="M0 0 C1.0326802 2.78823655 1.04509293 3.8677274 0.0625 6.75 C-0.4634375 7.86375 -0.4634375 7.86375 -1 9 C-3.64 9.33 -6.28 9.66 -9 10 C-9.08636719 10.79664063 -9.17273438 11.59328125 -9.26171875 12.4140625 C-10.16115494 19.19696664 -10.8816083 23.34691664 -16 28 C-21.36842105 32 -21.36842105 32 -24 32 C-24.75 28.75 -24.75 28.75 -25 25 C-23.1875 22.5625 -23.1875 22.5625 -21 21 C-20.34 21 -19.68 21 -19 21 C-18.938125 20.030625 -18.87625 19.06125 -18.8125 18.0625 C-18.14374201 13.11774397 -15.57409304 9.18883776 -13 5 C-12.34 5.33 -11.68 5.66 -11 6 C-9.46331135 6.22467831 -7.92031946 6.40796805 -6.375 6.5625 C-5.55773437 6.64628906 -4.74046875 6.73007812 -3.8984375 6.81640625 C-3.27195312 6.87699219 -2.64546875 6.93757813 -2 7 C-1.34 4.69 -0.68 2.38 0 0 Z " fill="#3B393A" transform="translate(105,48)"/>
<path d="M0 0 C3.80316008 0.73734736 7.40175354 1.52799009 11 3 C12 6 12 6 11 9 C10.175 9.309375 9.35 9.61875 8.5 9.9375 C7.675 10.288125 6.85 10.63875 6 11 C5.11306697 13.04105639 5.11306697 13.04105639 5 15 C5.66 15 6.32 15 7 15 C8 18 8 18 7.5 20.0625 C5.23276686 22.99100947 2.51061608 23.21986309 -1 24 C-2.32 22.68 -3.64 21.36 -5 20 C-4.29423828 19.00419922 -4.29423828 19.00419922 -3.57421875 17.98828125 C-1.70220949 14.43471528 -1.22255719 11.11878222 -0.8125 7.1875 C-0.73064453 6.49462891 -0.64878906 5.80175781 -0.56445312 5.08789062 C-0.36575707 3.39313016 -0.18140797 1.69669806 0 0 Z " fill="#FCFCFB" transform="translate(70,61)"/>
<path d="M0 0 C2 2 2 2 2.1953125 4.6015625 C2.17210937 5.59929687 2.14890625 6.59703125 2.125 7.625 C2.10695313 8.62789062 2.08890625 9.63078125 2.0703125 10.6640625 C2.04710937 11.43492188 2.02390625 12.20578125 2 13 C2.66 12.67 3.32 12.34 4 12 C3.67 9.69 3.34 7.38 3 5 C7 5 7 5 8.8125 6.5 C10.59731497 10.2575052 9.74289385 12.94785175 9 17 C8.21625 17.226875 7.4325 17.45375 6.625 17.6875 C3.78125 18.78125 3.78125 18.78125 2.6875 21.625 C2.460625 22.40875 2.23375 23.1925 2 24 C1.34 24 0.68 24 0 24 C-0.33 22.68 -0.66 21.36 -1 20 C-1.66 20 -2.32 20 -3 20 C-3.08089542 17.22858283 -3.14044062 14.45952181 -3.1875 11.6875 C-3.22520508 10.50897461 -3.22520508 10.50897461 -3.26367188 9.30664062 C-3.27333984 8.54931641 -3.28300781 7.79199219 -3.29296875 7.01171875 C-3.3086792 6.31522217 -3.32438965 5.61872559 -3.34057617 4.90112305 C-2.90238443 2.45510217 -1.86562642 1.57297914 0 0 Z " fill="#FBFBFA" transform="translate(20,69)"/>
<path d="M0 0 C0.66 0 1.32 0 2 0 C2.27714844 0.62648437 2.55429687 1.25296875 2.83984375 1.8984375 C3.20207031 2.71570313 3.56429688 3.53296875 3.9375 4.375 C4.29714844 5.18710938 4.65679688 5.99921875 5.02734375 6.8359375 C5.6569903 8.23683785 6.31312642 9.62625284 7 11 C7.21782467 12.44512437 7.38973668 13.89736678 7.53515625 15.3515625 C7.62216797 16.20234375 7.70917969 17.053125 7.79882812 17.9296875 C7.88583984 18.81914062 7.97285156 19.70859375 8.0625 20.625 C8.15337891 21.5221875 8.24425781 22.419375 8.33789062 23.34375 C8.56209056 25.56214938 8.78149744 27.78103221 9 30 C11.97 30.33 14.94 30.66 18 31 C19.31626692 34.61973402 20 37.09567131 20 41 C20.66 41 21.32 41 22 41 C22.33 42.98 22.66 44.96 23 47 C24.32 47.33 25.64 47.66 27 48 C25.515 48.495 25.515 48.495 24 49 C22.97299556 51.32891096 22.97299556 51.32891096 22.3125 54.0625 C22.06113281 54.98160156 21.80976562 55.90070312 21.55078125 56.84765625 C21.36902344 57.55792969 21.18726562 58.26820312 21 59 C20.34 59 19.68 59 19 59 C19.02320312 57.80761719 19.04640625 56.61523438 19.0703125 55.38671875 C19.08907178 53.82031876 19.10727181 52.253912 19.125 50.6875 C19.14175781 49.90181641 19.15851562 49.11613281 19.17578125 48.30664062 C19.18222656 47.54931641 19.18867187 46.79199219 19.1953125 46.01171875 C19.20578613 45.31522217 19.21625977 44.61872559 19.22705078 43.90112305 C19.10574595 41.668827 19.10574595 41.668827 17 39 C16.875 35.8125 16.875 35.8125 17 33 C16.06027344 33.05220703 16.06027344 33.05220703 15.1015625 33.10546875 C14.28429688 33.13253906 13.46703125 33.15960938 12.625 33.1875 C11.81289063 33.22230469 11.00078125 33.25710937 10.1640625 33.29296875 C9.44992188 33.19628906 8.73578125 33.09960938 8 33 C5.56722149 29.35083224 5.77330309 27.46934601 5.6875 23.125 C5.42845881 16.3124667 3.79067792 10.80402593 1.05859375 4.51171875 C0 2 0 2 0 0 Z " fill="#4D4B4B" transform="translate(14,0)"/>
<path d="M0 0 C1.4540625 0.0309375 1.4540625 0.0309375 2.9375 0.0625 C5.60214729 5.28520869 6.26604177 8.1444503 4.9375 14.0625 C4.2775 14.0625 3.6175 14.0625 2.9375 14.0625 C2.6075 15.7125 2.2775 17.3625 1.9375 19.0625 C1.6075 18.4025 1.2775 17.7425 0.9375 17.0625 C0.2775 17.0625 -0.3825 17.0625 -1.0625 17.0625 C-2.68611517 13.43090362 -3.42360506 10.27204512 -3.75 6.3125 C-3.83636719 5.34828125 -3.92273438 4.3840625 -4.01171875 3.390625 C-4.02847656 2.62234375 -4.04523437 1.8540625 -4.0625 1.0625 C-3.0625 0.0625 -3.0625 0.0625 0 0 Z " fill="#DCD2CE" transform="translate(28.0625,34.9375)"/>
<path d="M0 0 C0.680625 0.721875 1.36125 1.44375 2.0625 2.1875 C4.0551319 4.19701862 6.0872303 5.80293071 8.4375 7.375 C11.7989526 9.67957668 14.21386163 12.36541466 16.73828125 15.546875 C17.95745727 17.13796393 17.95745727 17.13796393 20 18 C20.391875 18.825 20.78375 19.65 21.1875 20.5 C22.86679847 23.39876705 22.86679847 23.39876705 26.6875 23.8125 C28.3271875 23.9053125 28.3271875 23.9053125 30 24 C30.33 22.35 30.66 20.7 31 19 C37.27 18.67 43.54 18.34 50 18 C50 18.33 50 18.66 50 19 C38.47835991 21.48063781 38.47835991 21.48063781 33 20 C32.690625 20.804375 32.38125 21.60875 32.0625 22.4375 C31 25 31 25 30 26 C25.26577776 26.67631746 22.59336084 26.07380286 18.8125 23.3125 C14.84025971 20.0484886 11.65251064 16.95753191 10 12 C8.20753136 10.18344378 8.20753136 10.18344378 6.0625 8.4375 C3.96656037 6.66869432 1.94005112 4.94005112 0 3 C0 2.01 0 1.02 0 0 Z " fill="#6A6666" transform="translate(21,0)"/>
<path d="M0 0 C0.33 0 0.66 0 1 0 C1.33 1.98 1.66 3.96 2 6 C3.98 6.66 5.96 7.32 8 8 C8 8.66 8 9.32 8 10 C10.31 10.33 12.62 10.66 15 11 C15.103125 11.639375 15.20625 12.27875 15.3125 12.9375 C15.539375 13.618125 15.76625 14.29875 16 15 C19.28976808 16.09658936 20.71303767 15.79953138 24 15 C23.01 17.475 23.01 17.475 22 20 C25.465 19.505 25.465 19.505 29 19 C29 19.66 29 20.32 29 21 C28.43410156 21.20496094 27.86820313 21.40992187 27.28515625 21.62109375 C26.55167969 21.89050781 25.81820312 22.15992187 25.0625 22.4375 C24.33160156 22.70433594 23.60070312 22.97117187 22.84765625 23.24609375 C21.01694322 23.85386948 21.01694322 23.85386948 20 25 C17.66702567 25.04092937 15.33294775 25.04241723 13 25 C14.32 24.34 15.64 23.68 17 23 C16.43850643 19.74333728 15.62770014 18.04376677 13 16 C10.89667109 15.28552357 10.89667109 15.28552357 9 15 C9 15.66 9 16.32 9 17 C8.34 17 7.68 17 7 17 C7.185625 16.4225 7.37125 15.845 7.5625 15.25 C8.04023546 12.79307475 7.75729364 11.35602466 7 9 C5.5459375 9.0309375 5.5459375 9.0309375 4.0625 9.0625 C1 9 1 9 0 8 C-0.14115161 5.32941149 -0.04247107 2.67567762 0 0 Z " fill="#E1DAD6" transform="translate(51,68)"/>
<path d="M0 0 C3.82352106 1.5577308 6.29205593 3.91595258 9 7 C9 7.99 9 8.98 9 10 C6.69 8.35 4.38 6.7 2 5 C-0.53269741 8.79904612 -0.01771932 10.33070154 0.4375 14.8125 C0.88372305 20.14885659 1.09254405 25.3894915 0.875 30.75 C0.83117187 31.87921875 0.78734375 33.0084375 0.7421875 34.171875 C0 37 0 37 -2.5546875 38.890625 C-3.36164063 39.25671875 -4.16859375 39.6228125 -5 40 C-4.55477251 37.69965797 -4.11122497 35.41281784 -3.50146484 33.1496582 C-1.85265252 26.74729164 -1.83173725 20.70407356 -2 14.125 C-2.05097128 12.08614887 -2.09305371 10.04705045 -2.125 8.0078125 C-2.14820313 7.11723145 -2.17140625 6.22665039 -2.1953125 5.30908203 C-2 3 -2 3 0 0 Z " fill="#E4DDDA" transform="translate(5,24)"/>
<path d="M0 0 C0.66 0.33 1.32 0.66 2 1 C0.35 2.98 -1.3 4.96 -3 7 C-1.2365625 6.505 -1.2365625 6.505 0.5625 6 C6.86957392 4.43433552 12.62407321 4.95903236 19 6 C19.33 6.99 19.66 7.98 20 9 C22.31 9 24.62 9 27 9 C26.67 10.65 26.34 12.3 26 14 C23.3125 14.75 23.3125 14.75 20 15 C17.16601314 13.1781513 15.26205724 11.33434889 13.1875 8.6875 C10.95618352 6.58879803 10.95618352 6.58879803 7.1875 7.1875 C5.78907585 7.44462114 4.39314955 7.71568377 3 8 C1.66784319 8.19568405 0.33454642 8.38383861 -1 8.5625 C-2.485 8.7790625 -2.485 8.7790625 -4 9 C-4.8125 7.3125 -4.8125 7.3125 -5 5 C-2.5625 2.25 -2.5625 2.25 0 0 Z " fill="#C8B6B0" transform="translate(29,87)"/>
<path d="M0 0 C2 0.3125 2 0.3125 4 1 C5.14814997 3.29629994 5.30769809 5.07698086 5.5625 7.625 C5.64628906 8.44226562 5.73007813 9.25953125 5.81640625 10.1015625 C5.87699219 10.72804688 5.93757813 11.35453125 6 12 C8.97 12.495 8.97 12.495 12 13 C12 16.63 12 20.26 12 24 C8.625 23.75 8.625 23.75 5 23 C3.5 21.1875 3.5 21.1875 3 19 C3.4375 16.875 3.4375 16.875 4 15 C3.67 14.34 3.34 13.68 3 13 C2.92966231 11.12620395 2.9156978 9.24998898 2.9375 7.375 C2.94652344 6.37210938 2.95554687 5.36921875 2.96484375 4.3359375 C2.98224609 3.17964844 2.98224609 3.17964844 3 2 C1.68 1.67 0.36 1.34 -1 1 C-0.67 0.67 -0.34 0.34 0 0 Z " fill="#343334" transform="translate(116,22)"/>
<path d="M0 0 C1.5 1.3125 1.5 1.3125 3 3 C3 3.99 3 4.98 3 6 C2.01 6 1.02 6 0 6 C0.165 6.56460938 0.33 7.12921875 0.5 7.7109375 C1.02385996 10.10923388 1.06552698 12.17592905 1 14.625 C0.87337758 17.94299631 0.87337758 17.94299631 2 21 C1.93517011 23.49595058 1.8095594 25.95008423 1.625 28.4375 C1.57609619 29.15164062 1.52719238 29.86578125 1.47680664 30.6015625 C1.06955772 36.40860635 0.5768163 42.2072916 0 48 C-0.33 48 -0.66 48 -1 48 C-2.0389988 42.80500602 -2.81226482 37.2362677 -1.50390625 32.0234375 C-0.26942302 27.0663653 -0.62273474 21.88391936 -2 17 C-3.20335035 12.67140162 -3.6058553 8.46928044 -3 4 C-1.5 1.4375 -1.5 1.4375 0 0 Z " fill="#E1D9D6" transform="translate(17,41)"/>
<path d="M0 0 C0.5775 0.20625 1.155 0.4125 1.75 0.625 C2.08 1.945 2.41 3.265 2.75 4.625 C-0.0625 6.6875 -0.0625 6.6875 -3.25 8.625 C-4.24 8.295 -5.23 7.965 -6.25 7.625 C-8.30893621 7.40174186 -10.37233653 7.21794241 -12.4375 7.0625 C-13.52417969 6.97871094 -14.61085937 6.89492187 -15.73046875 6.80859375 C-16.56191406 6.74800781 -17.39335938 6.68742187 -18.25 6.625 C-17.92 5.305 -17.59 3.985 -17.25 2.625 C-16.50234375 2.57601562 -15.7546875 2.52703125 -14.984375 2.4765625 C-13.99953125 2.40179688 -13.0146875 2.32703125 -12 2.25 C-10.53820313 2.14558594 -10.53820313 2.14558594 -9.046875 2.0390625 C-5.67994835 1.54060688 -3.31365236 -0.55227539 0 0 Z " fill="#4E4C4C" transform="translate(62.25,85.375)"/>
<path d="M0 0 C1.32 0.33 2.64 0.66 4 1 C4.4640625 2.2375 4.4640625 2.2375 4.9375 3.5 C5.288125 4.325 5.63875 5.15 6 6 C8.54775306 6.89386164 8.54775306 6.89386164 11 7 C11 8.32 11 9.64 11 11 C5.46153846 10.50769231 5.46153846 10.50769231 3.125 7.9375 C2.568125 6.9784375 2.568125 6.9784375 2 6 C0.05600216 6.15103828 0.05600216 6.15103828 -2 7 C-3.35102993 9.0720554 -3.35102993 9.0720554 -4.25 11.5625 C-4.75273438 12.80193359 -4.75273438 12.80193359 -5.265625 14.06640625 C-5.50796875 14.70449219 -5.7503125 15.34257812 -6 16 C-6.66 16 -7.32 16 -8 16 C-8.99 11.05 -8.99 11.05 -10 6 C-11.32 5.67 -12.64 5.34 -14 5 C-12.68 4.34 -11.36 3.68 -10 3 C-8.02 5.97 -8.02 5.97 -6 9 C-3.03 4.545 -3.03 4.545 0 0 Z " fill="#928F8F" transform="translate(117,15)"/>
<path d="M0 0 C0.99 0.33 1.98 0.66 3 1 C3.33 2.98 3.66 4.96 4 7 C5.98 6.67 7.96 6.34 10 6 C10.33 6.99 10.66 7.98 11 9 C11.99 9.33 12.98 9.66 14 10 C18.06993007 14.97435897 18.06993007 14.97435897 17.8125 18.75 C17 21 17 21 16 23 C17.65 22.34 19.3 21.68 21 21 C20.67 22.65 20.34 24.3 20 26 C14.25 25.125 14.25 25.125 12 24 C12.350625 23.443125 12.70125 22.88625 13.0625 22.3125 C14.27787538 19.31457406 14.02005 18.06015001 13 15 C11.42935224 11.68565179 11.42935224 11.68565179 9 9 C5.86734521 8.0311941 5.86734521 8.0311941 3 8 C2.67 6.02 2.34 4.04 2 2 C1.34 2 0.68 2 0 2 C0 1.34 0 0.68 0 0 Z " fill="#403E3F" transform="translate(34,39)"/>
<path d="M0 0 C2.3125 0 2.3125 0 5 1 C7.08396075 3.6650652 9 6.5311791 9 10 C8.01 10 7.02 10 6 10 C4.3125 8 4.3125 8 3 6 C1.56172744 7.21443275 1.56172744 7.21443275 1.8125 10.8125 C1.41333587 14.6458521 1.17995847 14.85309513 -2.0625 17.5 C-3.031875 17.995 -4.00125 18.49 -5 19 C-5.66 18.67 -6.32 18.34 -7 18 C-6.38125 17.4225 -5.7625 16.845 -5.125 16.25 C-2.40793535 12.09448936 -2.02940806 8.41228608 -1.39453125 3.546875 C-1 1 -1 1 0 0 Z " fill="#B9B1AF" transform="translate(96,57)"/>
<path d="M0 0 C0.99 0 1.98 0 3 0 C2.60901934 5.94560248 1.57162134 10.54816276 -1 16 C-1.68836513 17.99263591 -2.36281399 19.99041337 -3 22 C-4.231394 19.53721199 -4.07159196 17.7204945 -4 15 C-6.64 14.34 -9.28 13.68 -12 13 C-12 12.67 -12 12.34 -12 12 C-10.948125 11.87625 -9.89625 11.7525 -8.8125 11.625 C-5.9148673 10.84758635 -5.12129435 10.18134105 -3.421875 7.640625 C-2.18460148 5.12341335 -1.04237517 2.60353614 0 0 Z " fill="#959190" transform="translate(87,48)"/>
<path d="M0 0 C1.37562854 1.28965176 2.70766393 2.62689293 4 4 C4 4.66 4 5.32 4 6 C5.65 5.67 7.3 5.34 9 5 C8 8 8 8 6.1875 8.9375 C4 9 4 9 1.75 7.0625 C1.1725 6.381875 0.595 5.70125 0 5 C-1.0828125 6.3303125 -1.0828125 6.3303125 -2.1875 7.6875 C-4.71925678 9.83584169 -5.80726413 10.00968403 -9.1875 9.83984375 C-18.29501161 7.97971582 -18.29501161 7.97971582 -20.89453125 4.3671875 C-21.25933594 3.58601563 -21.62414062 2.80484375 -22 2 C-21.01 2.33 -20.02 2.66 -19 3 C-19 3.66 -19 4.32 -19 5 C-18.40832031 4.97679687 -17.81664063 4.95359375 -17.20703125 4.9296875 C-12.66198041 4.82588536 -9.14059941 4.86291643 -5 7 C-4.731875 6.401875 -4.46375 5.80375 -4.1875 5.1875 C-3.01506533 3.02775192 -1.80630718 1.64209744 0 0 Z " fill="#ABA19E" transform="translate(93,17)"/>
<path d="M0 0 C0.33 0 0.66 0 1 0 C1.28875 1.051875 1.5775 2.10375 1.875 3.1875 C2.85230964 6.86661112 2.85230964 6.86661112 4.25 9.625 C5 12 5 12 4.03125 14.2734375 C2.8252777 17.46195519 2.99143234 19.62138259 3.25 23 C3.37065468 28.44286687 3.37065468 28.44286687 1.7421875 30.890625 C-0.40238677 32.69331062 -2.13065289 34 -5 34 C-4 31 -4 31 -1 29 C-0.47620056 26.89755099 -0.47620056 26.89755099 -0.453125 24.45703125 C-0.41316406 23.54759766 -0.37320312 22.63816406 -0.33203125 21.70117188 C-0.30496094 20.74791016 -0.27789063 19.79464844 -0.25 18.8125 C-0.20746094 17.87857422 -0.16492188 16.94464844 -0.12109375 15.98242188 C0.0348565 11.87861986 0.09665468 7.95029729 -0.546875 3.88671875 C-0.77117188 2.45779297 -0.77117188 2.45779297 -1 1 C-0.67 0.67 -0.34 0.34 0 0 Z " fill="#C8B6B0" transform="translate(5,32)"/>
<path d="M0 0 C3.85296671 0.39858276 5.35428983 2.35428983 8 5 C9.32 5.33 10.64 5.66 12 6 C12 8.97 12 11.94 12 15 C10.00045254 15.04254356 7.99958364 15.04080783 6 15 C4.43694509 13.43694509 4.69360032 11.72321782 4.5 9.5625 C4.20853056 6.15502495 4.20853056 6.15502495 3 3 C0.83125748 3.50603992 -0.99967627 3.99983813 -3 5 C-1.125 1.125 -1.125 1.125 0 0 Z " fill="#605D5D" transform="translate(116,20)"/>
<path d="M0 0 C3.00390625 0.42578125 3.00390625 0.42578125 6.5625 1.3125 C7.73941406 1.59738281 8.91632813 1.88226563 10.12890625 2.17578125 C13 3 13 3 14 4 C14.04063832 5.66617115 14.042721 7.33388095 14 9 C13.01 9.33 12.02 9.66 11 10 C11 8.35 11 6.7 11 5 C9.6696875 4.814375 9.6696875 4.814375 8.3125 4.625 C5.28597202 4.05395699 2.8245013 3.1836922 0 2 C-0.05607422 3.57201172 -0.05607422 3.57201172 -0.11328125 5.17578125 C-0.17894515 6.55472305 -0.24539235 7.93362771 -0.3125 9.3125 C-0.33505859 10.00279297 -0.35761719 10.69308594 -0.38085938 11.40429688 C-0.65775645 16.61499646 -0.65775645 16.61499646 -2.53198242 18.72338867 C-3.01642822 19.14467041 -3.50087402 19.56595215 -4 20 C-3.71897755 17.04029545 -3.4257082 14.082712 -3.125 11.125 C-3.04636719 10.28324219 -2.96773438 9.44148438 -2.88671875 8.57421875 C-2.76103516 7.36572266 -2.76103516 7.36572266 -2.6328125 6.1328125 C-2.55949707 5.38918457 -2.48618164 4.64555664 -2.41064453 3.87939453 C-2 2 -2 2 0 0 Z " fill="#D8CDC9" transform="translate(70,59)"/>
<path d="M0 0 C0.66 0 1.32 0 2 0 C3.06723961 3.46222615 3.10173486 6.64039266 3.0625 10.25 C3.05347656 11.32765625 3.04445313 12.4053125 3.03515625 13.515625 C3.02355469 14.33546875 3.01195313 15.1553125 3 16 C1.35 16.33 -0.3 16.66 -2 17 C-3.47721433 11.38658553 -2.51076686 6.49463836 -1 1 C-0.67 0.67 -0.34 0.34 0 0 Z " fill="#A19A98" transform="translate(109,44)"/>
<path d="M0 0 C0.66 0 1.32 0 2 0 C2.30806744 5.85328136 2.1835669 9.96791038 -1 15 C-4.6875 15.9375 -4.6875 15.9375 -8 16 C-7.50474597 11.54271376 -6.09689767 10.09689767 -3 7 C-1.82050103 4.71038435 -0.92701329 2.41023454 0 0 Z " fill="#121112" transform="translate(90,61)"/>
<path d="M0 0 C2.40108536 1.84083211 2.97681918 3.59326074 3.875 6.4375 C3.2975 5.7775 2.72 5.1175 2.125 4.4375 C-0.12153977 1.99459077 -0.12153977 1.99459077 -4.125 2.4375 C-4.455 6.3975 -4.785 10.3575 -5.125 14.4375 C-6.445 14.7675 -7.765 15.0975 -9.125 15.4375 C-11.19884637 13.15573587 -12.10897191 11.99426517 -12.19921875 8.859375 C-12.07160156 7.97765625 -11.94398437 7.0959375 -11.8125 6.1875 C-11.69261719 5.29546875 -11.57273437 4.4034375 -11.44921875 3.484375 C-11.34222656 2.80890625 -11.23523438 2.1334375 -11.125 1.4375 C-10.795 1.4375 -10.465 1.4375 -10.125 1.4375 C-10.125 4.7375 -10.125 8.0375 -10.125 11.4375 C-9.465 11.4375 -8.805 11.4375 -8.125 11.4375 C-8.02703125 10.73882812 -7.9290625 10.04015625 -7.828125 9.3203125 C-7.67859375 8.41023438 -7.5290625 7.50015625 -7.375 6.5625 C-7.23578125 5.65757813 -7.0965625 4.75265625 -6.953125 3.8203125 C-6.125 1.4375 -6.125 1.4375 -4.1796875 0.08203125 C-2.125 -0.5625 -2.125 -0.5625 0 0 Z " fill="#A4908A" transform="translate(43.125,47.5625)"/>
<path d="M0 0 C0.33 1.32 0.66 2.64 1 4 C-0.98 4.66 -2.96 5.32 -5 6 C-5.09796875 6.75925781 -5.1959375 7.51851562 -5.296875 8.30078125 C-5.44640625 9.29464844 -5.5959375 10.28851563 -5.75 11.3125 C-5.88921875 12.29863281 -6.0284375 13.28476562 -6.171875 14.30078125 C-7.15711815 17.51211623 -8.128943 18.35170086 -11 20 C-13.5625 20.8125 -13.5625 20.8125 -16 21 C-16.99 20.34 -17.98 19.68 -19 19 C-15.7 18.34 -12.4 17.68 -9 17 C-8.96261719 16.09636719 -8.92523438 15.19273438 -8.88671875 14.26171875 C-8.82097656 13.08222656 -8.75523438 11.90273438 -8.6875 10.6875 C-8.62949219 9.51574219 -8.57148437 8.34398437 -8.51171875 7.13671875 C-8 4 -8 4 -6.625 2.125 C-4.49485673 0.65028543 -2.54278024 0.34361895 0 0 Z " fill="#474546" transform="translate(127,49)"/>
<path d="M0 0 C2.93567066 5.67315258 4.77265207 10.64799676 3 17 C1 19 1 19 -1.05859375 19.265625 C-1.84363281 19.26046875 -2.62867188 19.2553125 -3.4375 19.25 C-4.61119141 19.25773437 -4.61119141 19.25773437 -5.80859375 19.265625 C-8 19 -8 19 -11 17 C-11 16.34 -11 15.68 -11 15 C-12.32 14.67 -13.64 14.34 -15 14 C-15 11.69 -15 9.38 -15 7 C-12.70099268 8.9705777 -11.91725095 10.21776066 -10.8125 13.125 C-9.35406337 16.09336175 -9.35406337 16.09336175 -7.1015625 16.6796875 C-4.65292923 17.09608762 -4.65292923 17.09608762 -1 17 C-0.34 16.34 0.32 15.68 1 15 C0.98252112 12.40730017 0.86231408 9.9474846 0.625 7.375 C0.56828125 6.66859375 0.5115625 5.9621875 0.453125 5.234375 C0.31159079 3.48878639 0.15702613 1.74426327 0 0 Z " fill="#CD8266" transform="translate(15,85)"/>
<path d="M0 0 C0.99 0 1.98 0 3 0 C4.24327778 5.84340558 3.57300962 10.26696495 2 16 C1.67 16 1.34 16 1 16 C0.67 13.36 0.34 10.72 0 8 C-1.98 8.99 -1.98 8.99 -4 10 C-3.5289356 5.85463326 -3.0080208 3.0080208 0 0 Z " fill="#928F8F" transform="translate(60,51)"/>
<path d="M0 0 C2.36346115 0.94538446 3.72416326 1.54799015 5.0703125 3.75390625 C6.42798366 7.03399415 6.86546047 10.36704909 7.4375 13.85546875 C7.623125 14.56316406 7.80875 15.27085938 8 16 C11.06533164 17.53266582 14.26754272 17.10276471 17.625 17.0625 C18.33140625 17.05798828 19.0378125 17.05347656 19.765625 17.04882812 C21.51045275 17.03703875 23.255237 17.01910324 25 17 C21.12143315 20.38590824 18.40204287 20.45424814 13.41015625 20.28515625 C10.22691315 19.90853267 8.38084952 19.15764488 6 17 C4.29486431 14.01601254 3.89357379 11.29821128 3.5625 7.9375 C3.02339783 4.16378479 2.57333989 2.68522424 0 0 Z " fill="#C8B6B0" transform="translate(35,68)"/>
<path d="M0 0 C0.33 0 0.66 0 1 0 C0.97679687 0.68707031 0.95359375 1.37414063 0.9296875 2.08203125 C0.91164063 2.98308594 0.89359375 3.88414063 0.875 4.8125 C0.85179687 5.70582031 0.82859375 6.59914063 0.8046875 7.51953125 C0.81714173 10.25402714 0.81714173 10.25402714 3 13 C3.99 13 4.98 13 6 13 C6.66 12.01 7.32 11.02 8 10 C7.67 11.65 7.34 13.3 7 15 C3.85375007 15.26218749 2.38162983 15.24754367 -0.3125 13.5 C-0.869375 13.005 -1.42625 12.51 -2 12 C-0.60667426 15.36720387 0.9789286 16.9859524 4 19 C0.81885171 18.74206906 -0.62579658 18.38667686 -2.875 16.0625 C-4.5187382 11.58787934 -3.74683775 7.63399325 -3 3 C-2.34 3.33 -1.68 3.66 -1 4 C-0.67 2.68 -0.34 1.36 0 0 Z " fill="#C8B6B0" transform="translate(31,49)"/>
<path d="M0 0 C1.9375 0.625 1.9375 0.625 4 2 C4.75 5.125 4.75 5.125 5 8 C6.32 8.33 7.64 8.66 9 9 C8.01 9.33 7.02 9.66 6 10 C4.97299556 12.32891096 4.97299556 12.32891096 4.3125 15.0625 C4.06113281 15.98160156 3.80976562 16.90070312 3.55078125 17.84765625 C3.36902344 18.55792969 3.18726563 19.26820312 3 20 C2.34 20 1.68 20 1 20 C1.01160156 18.80761719 1.02320313 17.61523438 1.03515625 16.38671875 C1.04453592 14.82031406 1.05363593 13.25390769 1.0625 11.6875 C1.07087891 10.90181641 1.07925781 10.11613281 1.08789062 9.30664062 C1.09111328 8.54931641 1.09433594 7.79199219 1.09765625 7.01171875 C1.10289307 6.31522217 1.10812988 5.61872559 1.11352539 4.90112305 C1.06895991 2.77502032 1.06895991 2.77502032 0 0 Z " fill="#736061" transform="translate(32,39)"/>
<path d="M0 0 C3.02796545 4.54194817 3.01856713 7.13316407 2.625 12.4375 C2.57609619 13.15164062 2.52719238 13.86578125 2.47680664 14.6015625 C2.06955772 20.40860635 1.5768163 26.2072916 1 32 C0.67 32 0.34 32 0 32 C-1.00943807 26.95280963 -1.91721436 21.25646648 -0.49609375 16.2109375 C0.21492252 13.04215632 0.09251602 9.99173002 0.0625 6.75 C0.05347656 5.48671875 0.04445313 4.2234375 0.03515625 2.921875 C0.02355469 1.95765625 0.01195313 0.9934375 0 0 Z " fill="#CEBFBA" transform="translate(16,57)"/>
<path d="M0 0 C0.66 0.33 1.32 0.66 2 1 C2.14285714 9.57142857 2.14285714 9.57142857 1 13 C-0.32 13 -1.64 13 -3 13 C-3.08121924 11.39667209 -3.13929134 9.79215974 -3.1875 8.1875 C-3.22230469 7.29417969 -3.25710937 6.40085937 -3.29296875 5.48046875 C-2.95081002 2.58352485 -2.24606427 1.77444972 0 0 Z " fill="#E5DEDB" transform="translate(59,58)"/>
<path d="M0 0 C-0.66 1.32 -1.32 2.64 -2 4 C-5.96 4 -9.92 4 -14 4 C-13.67 2.68 -13.34 1.36 -13 0 C-11.20909747 -0.19466332 -9.41723495 -0.38051213 -7.625 -0.5625 C-6.12839844 -0.71912109 -6.12839844 -0.71912109 -4.6015625 -0.87890625 C-2 -1 -2 -1 0 0 Z " fill="#686263" transform="translate(58,88)"/>
<path d="M0 0 C1.65 0.33 3.3 0.66 5 1 C5 1.66 5 2.32 5 3 C6.32 3.66 7.64 4.32 9 5 C8.734375 6.88671875 8.734375 6.88671875 8 9 C4.57676209 11.21550678 1.02582428 12.1068567 -3 11.6875 C-3.66 11.460625 -4.32 11.23375 -5 11 C-4.67 10.34 -4.34 9.68 -4 9 C-2.68 9 -1.36 9 0 9 C2.20067421 8.06716704 2.20067421 8.06716704 4 7 C3.73323796 5.01508358 3.73323796 5.01508358 3 3 C2.01 2.67 1.02 2.34 0 2 C0 1.34 0 0.68 0 0 Z " fill="#B5A8A4" transform="translate(60,83)"/>
<path d="M0 0 C0.99 0.33 1.98 0.66 3 1 C2.67 2.32 2.34 3.64 2 5 C2 4.01 2 3.02 2 2 C-1.0185568 2.6612058 -1.0185568 2.6612058 -2.0625 4.625 C-3.27364751 7.69324037 -4.14298087 10.81678608 -5 14 C-6.9375 13.625 -6.9375 13.625 -9 13 C-10.35439668 10.29120665 -10.06501451 7.99066732 -10 5 C-8 7 -8 7 -7 10 C-6.66226563 9.36191406 -6.32453125 8.72382813 -5.9765625 8.06640625 C-5.30753906 6.82697266 -5.30753906 6.82697266 -4.625 5.5625 C-4.18414062 4.73878906 -3.74328125 3.91507813 -3.2890625 3.06640625 C-2 1 -2 1 0 0 Z " fill="#3D3B3C" transform="translate(105,20)"/>
<path d="M0 0 C0.33 1.32 0.66 2.64 1 4 C-2.28390965 5.95470812 -4.32231619 7.02657584 -8.1875 6.875 C-11.03043998 5.99052978 -12.27651607 5.39372768 -14 3 C-14 2.34 -14 1.68 -14 1 C-12.4840625 1.5878125 -12.4840625 1.5878125 -10.9375 2.1875 C-6.46121692 3.51211438 -4.01665044 2.13128391 0 0 Z " fill="#BDB4B1" transform="translate(119,66)"/>
<path d="M0 0 C0.680625 0.721875 1.36125 1.44375 2.0625 2.1875 C4.0551319 4.19701862 6.0872303 5.80293071 8.4375 7.375 C11.7989526 9.67957668 14.21386163 12.36541466 16.73828125 15.546875 C17.95745727 17.13796393 17.95745727 17.13796393 20 18 C20 18.66 20 19.32 20 20 C15.09095792 17.79447845 11.63412635 14.20987307 7.75 10.5625 C7.00492188 9.88123047 6.25984375 9.19996094 5.4921875 8.49804688 C4.78835937 7.83998047 4.08453125 7.18191406 3.359375 6.50390625 C2.71452148 5.90392822 2.06966797 5.3039502 1.40527344 4.68579102 C0 3 0 3 0 0 Z " fill="#AEA4A1" transform="translate(21,0)"/>
<path d="M0 0 C1.98 0.495 1.98 0.495 4 1 C3.67 3.64 3.34 6.28 3 9 C3.66 9 4.32 9 5 9 C4.67 10.32 4.34 11.64 4 13 C-0.90196078 8.83333333 -0.90196078 8.83333333 -1.375 4.8125 C-1 2 -1 2 0 0 Z " fill="#FBFAF9" transform="translate(26,36)"/>
<path d="M0 0 C1.875 0.1875 1.875 0.1875 4 1 C4.309375 1.825 4.61875 2.65 4.9375 3.5 C5.288125 4.325 5.63875 5.15 6 6 C8.54775306 6.89386164 8.54775306 6.89386164 11 7 C11 8.32 11 9.64 11 11 C8.1875 10.9375 8.1875 10.9375 5 10 C3.5073959 7.72555566 2.85757989 5.62038301 2 3 C0.68 3.33 -0.64 3.66 -2 4 C-1.34 2.68 -0.68 1.36 0 0 Z " fill="#B6A9A5" transform="translate(117,15)"/>
<path d="M0 0 C1.98 0 3.96 0 6 0 C5.67 1.65 5.34 3.3 5 5 C3.02 5.33 1.04 5.66 -1 6 C-1.66 4.68 -2.32 3.36 -3 2 C-2.01 2 -1.02 2 0 2 C0 1.34 0 0.68 0 0 Z " fill="#868382" transform="translate(50,96)"/>
<path d="M0 0 C0.66 0.33 1.32 0.66 2 1 C0.23722805 2.67598012 -1.53424289 4.34059236 -3.3125 6 C-4.06176758 6.71542969 -4.06176758 6.71542969 -4.82617188 7.4453125 C-8.66015625 11 -8.66015625 11 -12 11 C-10.33333333 7.66666667 -8.66666667 4.33333333 -7 1 C-6.67 1.99 -6.34 2.98 -6 4 C-4.02 2.68 -2.04 1.36 0 0 Z " fill="#949090" transform="translate(87,76)"/>
<path d="M0 0 C2 1.375 2 1.375 4 3 C4 3.66 4 4.32 4 5 C5.32 4.67 6.64 4.34 8 4 C7.34 5.98 6.68 7.96 6 10 C2.98672434 8.49336217 2.38943382 5.96833589 1 3 C-1.46800047 4.15173355 -3.04783565 5.04783565 -5 7 C-7.625 6.625 -7.625 6.625 -10 6 C-9.46375 5.938125 -8.9275 5.87625 -8.375 5.8125 C-4.88843038 4.61972618 -2.75059607 2.43802834 0 0 Z " fill="#605D5D" transform="translate(93,21)"/>
<path d="M0 0 C0 3.3 0 6.6 0 10 C-1.32 9.67 -2.64 9.34 -4 9 C-4.1875 5.625 -4.1875 5.625 -4 2 C-1 0 -1 0 0 0 Z " fill="#323031" transform="translate(64,69)"/>
<path d="M0 0 C0.66 0 1.32 0 2 0 C2.66 1.65 3.32 3.3 4 5 C4.99 5 5.98 5 7 5 C7 5.66 7 6.32 7 7 C-2.41002278 6.03644647 -2.41002278 6.03644647 -7 5 C-6.67 4.34 -6.34 3.68 -6 3 C-4.68 3 -3.36 3 -2 3 C-1.34 2.01 -0.68 1.02 0 0 Z " fill="#E4DDDA" transform="translate(81,17)"/>
<path d="M0 0 C0.66 0 1.32 0 2 0 C2.27714844 0.62648437 2.55429687 1.25296875 2.83984375 1.8984375 C3.20207031 2.71570313 3.56429688 3.53296875 3.9375 4.375 C4.29714844 5.18710938 4.65679688 5.99921875 5.02734375 6.8359375 C5.6569903 8.23683785 6.31312642 9.62625284 7 11 C7.039992 12.99960012 7.04346799 15.00047242 7 17 C4.42033404 14.42033404 3.66390156 11.90692108 2.375 8.5 C1.70597656 6.75203125 1.70597656 6.75203125 1.0234375 4.96875 C0 2 0 2 0 0 Z " fill="#444243" transform="translate(14,0)"/>
<path d="M0 0 C1.98 0 3.96 0 6 0 C6 0.66 6 1.32 6 2 C7.32 2 8.64 2 10 2 C10 3.65 10 5.3 10 7 C8.68 7 7.36 7 6 7 C5.7525 6.21625 5.505 5.4325 5.25 4.625 C3.84610901 1.67682892 2.99324263 1.0975223 0 0 Z " fill="#383737" transform="translate(54,20)"/>
<path d="M0 0 C5.28 0 10.56 0 16 0 C11.48325359 3.38755981 11.48325359 3.38755981 6.875 3.25 C6.00617187 3.23453125 5.13734375 3.2190625 4.2421875 3.203125 C2 3 2 3 0 2 C0 1.34 0 0.68 0 0 Z " fill="#AEA3A0" transform="translate(44,85)"/>
<path d="M0 0 C5.875 1.875 5.875 1.875 7 3 C7.59227922 9.2781597 7.59227922 9.2781597 5 12.4375 C4.01 13.2109375 4.01 13.2109375 3 14 C3.30357422 13.11248047 3.30357422 13.11248047 3.61328125 12.20703125 C4.33258021 9.7437337 4.87551736 7.56691785 5 5 C2.81145577 1.89138486 2.81145577 1.89138486 0 0 Z " fill="#C8B6B0" transform="translate(28,73)"/>
<path d="M0 0 C1.32 0.99 2.64 1.98 4 3 C3.67 4.32 3.34 5.64 3 7 C2.67 5.68 2.34 4.36 2 3 C0.01979579 3.44033992 0.01979579 3.44033992 -2 5 C-3.26152609 7.5863924 -4.15643045 10.25200829 -5 13 C-5.33 13 -5.66 13 -6 13 C-5.63118644 6.85310727 -4.09949571 4.30972626 0 0 Z " fill="#605D5D" transform="translate(61,48)"/>
<path d="M0 0 C0.7425 1.0209375 0.7425 1.0209375 1.5 2.0625 C4.67198797 5.78958586 8.26389901 8.85333242 12 12 C11.01 12.495 11.01 12.495 10 13 C8.52018126 11.85500893 7.04116318 10.708983 5.5625 9.5625 C4.73878906 8.92441406 3.91507813 8.28632813 3.06640625 7.62890625 C1 6 1 6 0 5 C-0.04063832 3.33382885 -0.042721 1.66611905 0 0 Z " fill="#484646" transform="translate(20,0)"/>
<path d="M0 0 C0.33 0 0.66 0 1 0 C1.33 1.98 1.66 3.96 2 6 C3.98 6.66 5.96 7.32 8 8 C8 8.66 8 9.32 8 10 C9.65 10.33 11.3 10.66 13 11 C9.25 12.125 9.25 12.125 7 11 C7 10.34 7 9.68 7 9 C5.5459375 9.0309375 5.5459375 9.0309375 4.0625 9.0625 C1 9 1 9 0 8 C-0.14115161 5.32941149 -0.04247107 2.67567762 0 0 Z " fill="#D5CDCA" transform="translate(51,68)"/>
<path d="M0 0 C0 4.62 0 9.24 0 14 C-0.33 14 -0.66 14 -1 14 C-1.33 11.36 -1.66 8.72 -2 6 C-2.99 6.33 -3.98 6.66 -5 7 C-4.39816251 4.97954558 -3.72693904 2.97888961 -3 1 C-1 0 -1 0 0 0 Z " fill="#C2B1AC" transform="translate(62,53)"/>
<path d="M0 0 C0 3.20395416 -0.74335022 5.09399739 -2 8 C-0.35 7.67 1.3 7.34 3 7 C1.71034824 8.37562854 0.37310707 9.70766393 -1 11 C-1.66 11 -2.32 11 -3 11 C-3.75 7.75 -3.75 7.75 -4 4 C-2.0625 1.5625 -2.0625 1.5625 0 0 Z " fill="#605D5D" transform="translate(84,69)"/>
<path d="M0 0 C0.66 0.33 1.32 0.66 2 1 C1.45276317 4.37462715 0.9451 6.08235 -1 9 C0.65 9.33 2.3 9.66 4 10 C4 10.33 4 10.66 4 11 C2.02 11 0.04 11 -2 11 C-2.495 8.525 -2.495 8.525 -3 6 C-2.01 5.34 -1.02 4.68 0 4 C0 2.68 0 1.36 0 0 Z " fill="#A69D9B" transform="translate(47,54)"/>
<path d="M0 0 C2 1 2 1 2.66796875 2.99609375 C2.83941406 3.80175781 3.01085937 4.60742188 3.1875 5.4375 C3.36667969 6.24058594 3.54585937 7.04367188 3.73046875 7.87109375 C4 10 4 10 3 12 C2.34 12 1.68 12 1 12 C0.63896464 10.18885568 0.28634496 8.37603177 -0.0625 6.5625 C-0.25972656 5.55316406 -0.45695312 4.54382812 -0.66015625 3.50390625 C-0.82837891 2.26447266 -0.82837891 2.26447266 -1 1 C-0.67 0.67 -0.34 0.34 0 0 Z " fill="#FDFDFC" transform="translate(17,46)"/>
<path d="M0 0 C1.9375 0.8125 1.9375 0.8125 4 2 C4.33 2.99 4.66 3.98 5 5 C5.99 5.33 6.98 5.66 8 6 C7.01 6.99 6.02 7.98 5 9 C3.515 6.03 3.515 6.03 2 3 C-1.0745356 3.7763932 -1.0745356 3.7763932 -3 6 C-2.42655063 3.13275314 -2.1385485 2.1385485 0 0 Z " fill="#C6B4AE" transform="translate(105,16)"/>
<path d="M0 0 C0.8971875 0.309375 0.8971875 0.309375 1.8125 0.625 C1.8125 2.275 1.8125 3.925 1.8125 5.625 C0.4925 4.635 -0.8275 3.645 -2.1875 2.625 C-3.8375 3.945 -5.4875 5.265 -7.1875 6.625 C-4.6484375 -0.796875 -4.6484375 -0.796875 0 0 Z " fill="#E4DDDA" transform="translate(95.1875,15.375)"/>
<path d="M0 0 C0.33 0.99 0.66 1.98 1 3 C0.34 3.66 -0.32 4.32 -1 5 C-1.69748583 6.31747324 -2.36959957 7.64914193 -3 9 C-3 8.34 -3 7.68 -3 7 C-3.66 7 -4.32 7 -5 7 C-4.75 4.625 -4.75 4.625 -4 2 C-1.9375 0.6875 -1.9375 0.6875 0 0 Z " fill="#B4ABA8" transform="translate(82,68)"/>
<path d="M0 0 C0.78375 0.04125 1.5675 0.0825 2.375 0.125 C2.375 0.785 2.375 1.445 2.375 2.125 C1.59125 2.310625 0.8075 2.49625 0 2.6875 C-3.01876342 3.96461627 -3.01876342 3.96461627 -3.9375 7.75 C-4.164375 8.86375 -4.39125 9.9775 -4.625 11.125 C-4.955 11.125 -5.285 11.125 -5.625 11.125 C-5.51090407 9.66577307 -5.38334456 8.20759402 -5.25 6.75 C-5.18039063 5.93789063 -5.11078125 5.12578125 -5.0390625 4.2890625 C-4.39806644 0.93895099 -3.37594706 0.16075938 0 0 Z " fill="#A9A09D" transform="translate(125.625,52.875)"/>
<path d="M0 0 C0.33 1.32 0.66 2.64 1 4 C1.66 4 2.32 4 3 4 C3.33 5.65 3.66 7.3 4 9 C2.02 9.99 2.02 9.99 0 11 C0.33 9.02 0.66 7.04 1 5 C0.34 5 -0.32 5 -1 5 C-0.67 3.35 -0.34 1.7 0 0 Z " fill="#DED4D1" transform="translate(76,71)"/>
<path d="M0 0 C0.66 0.33 1.32 0.66 2 1 C2 1.66 2 2.32 2 3 C1.01 3 0.02 3 -1 3 C-1 7.29 -1 11.58 -1 16 C-3.67548031 11.98677954 -3.58740465 8.71626345 -3 4 C-1.5 1.4375 -1.5 1.4375 0 0 Z " fill="#C8B6B0" transform="translate(17,41)"/>
<path d="M0 0 C0.33 0.99 0.66 1.98 1 3 C2.32 2.34 3.64 1.68 5 1 C4.67 2.65 4.34 4.3 4 6 C2.68 6 1.36 6 0 6 C-0.38218767 4.34385343 -0.71395102 2.67542976 -1 1 C-0.67 0.67 -0.34 0.34 0 0 Z " fill="#928F8F" transform="translate(107,55)"/>
<path d="M0 0 C3.0916909 2.52956528 3.90931332 5.22454612 5 9 C2.525 8.01 2.525 8.01 0 7 C0 4.69 0 2.38 0 0 Z " fill="#89726A" transform="translate(0,92)"/>
<path d="M0 0 C2.6875 0.3125 2.6875 0.3125 5 1 C5.33 1.99 5.66 2.98 6 4 C3.03 3.67 0.06 3.34 -3 3 C-2.01 2.01 -1.02 1.02 0 0 Z " fill="#DCD2CE" transform="translate(67,15)"/>
<path d="M0 0 C0.99 0 1.98 0 3 0 C4.4783226 2.95664519 4.06032783 5.74229737 4 9 C1.49701566 6.06171403 0.53069061 3.82097239 0 0 Z " fill="#C9C1BE" transform="translate(11,0)"/>
<path d="M0 0 C2.475 0.495 2.475 0.495 5 1 C5.66 2.98 6.32 4.96 7 7 C6.01 7 5.02 7 4 7 C3.896875 6.360625 3.79375 5.72125 3.6875 5.0625 C3.460625 4.381875 3.23375 3.70125 3 3 C2.01 2.67 1.02 2.34 0 2 C0 1.34 0 0.68 0 0 Z " fill="#A29A98" transform="translate(60,83)"/>
<path d="M0 0 C1.37432457 3.81756824 0.67975039 7.07255329 0 11 C-0.66 11 -1.32 11 -2 11 C-2.66 8.69 -3.32 6.38 -4 4 C-3.01 3.67 -2.02 3.34 -1 3 C-0.67 2.01 -0.34 1.02 0 0 Z " fill="#928F8F" transform="translate(55,61)"/>
<path d="M0 0 C1.32 1.32 2.64 2.64 4 4 C3.67 4.99 3.34 5.98 3 7 C2.34 7 1.68 7 1 7 C0.34 5.02 -0.32 3.04 -1 1 C-0.67 0.67 -0.34 0.34 0 0 Z " fill="#D9CECA" transform="translate(44,52)"/>
<path d="M0 0 C0.33 0 0.66 0 1 0 C1 1.98 1 3.96 1 6 C1.66 6 2.32 6 3 6 C3.33 5.01 3.66 4.02 4 3 C4 4.65 4 6.3 4 8 C2.68 8 1.36 8 0 8 C0 5.36 0 2.72 0 0 Z " fill="#605D5D" transform="translate(108,25)"/>
<path d="M0 0 C0.99 0.99 1.98 1.98 3 3 C-0.75 5 -0.75 5 -3 5 C-2.625 3.0625 -2.625 3.0625 -2 1 C-1.34 0.67 -0.68 0.34 0 0 Z " fill="#212021" transform="translate(61,86)"/>
<path d="M0 0 C0.66 0.33 1.32 0.66 2 1 C1.01 2.485 1.01 2.485 0 4 C-0.66 4 -1.32 4 -2 4 C-2.66 5.32 -3.32 6.64 -4 8 C-4.33 7.01 -4.66 6.02 -5 5 C-3.35 3.35 -1.7 1.7 0 0 Z " fill="#D6CAC6" transform="translate(85,79)"/>
<path d="M0 0 C0.33 0 0.66 0 1 0 C1.24954005 1.43410368 1.47392642 2.87260072 1.6875 4.3125 C1.87892578 5.51326172 1.87892578 5.51326172 2.07421875 6.73828125 C2 9 2 9 -1 12 C-0.67 8.04 -0.34 4.08 0 0 Z " fill="#D3C6C1" transform="translate(67,67)"/>
</svg>
