<?xml version="1.0" encoding="UTF-8"?>
<svg version="1.1" xmlns="http://www.w3.org/2000/svg" width="128" height="128">
<path d="M0 0 C42.24 0 84.48 0 128 0 C128 42.24 128 84.48 128 128 C85.76 128 43.52 128 0 128 C0 85.76 0 43.52 0 0 Z " fill="#EED379" transform="translate(0,0)"/>
<path d="M0 0 C35.97 0 71.94 0 109 0 C109.20625 11.034375 109.4125 22.06875 109.625 33.4375 C109.71604004 36.90564209 109.80708008 40.37378418 109.90087891 43.94702148 C109.94604492 48.22277832 109.94604492 48.22277832 109.95443726 50.23231506 C109.96967172 51.61891387 110.00459517 53.00539013 110.05575562 54.39112854 C110.46435046 66.05400376 110.46435046 66.05400376 106.83959961 70.87098694 C104.3304508 73.15476457 101.80576722 75.09871526 99 77 C97.7387195 77.99364246 96.48196426 78.99312691 95.234375 80.00390625 C94.07874644 80.86465365 92.91724836 81.7175771 91.75 82.5625 C91.11940674 83.02084229 90.48881348 83.47918457 89.83911133 83.95141602 C83.49183409 88.48518547 76.92477096 92.40655964 70 96 C69.14019531 96.45503906 68.28039062 96.91007812 67.39453125 97.37890625 C60.40491994 100.65136701 53.60096555 100.3942864 46 100 C43.03358966 105.42137062 41.19430523 110.45954248 39.80859375 116.484375 C38.94811406 119.16142293 37.80215606 120.86337176 36 123 C34.1875 122.9375 34.1875 122.9375 32 122 C28.033743 115.44042111 26.05758389 105.87754294 27.51171875 98.3515625 C28.37498502 96.01863805 29.21059202 93.78940798 31 92 C32.35375786 91.94667912 33.70808292 91.9075246 35.0625 91.875 C41.00301969 91.24423167 44.12747269 88.3635226 48 84 C50.54574195 80.7873901 52.81629952 77.46729028 55 74 C55.48726562 73.23300781 55.97453125 72.46601562 56.4765625 71.67578125 C59.39639676 66.78377824 61.86755029 61.79467483 62 56 C59.69061305 50.16575928 54.41798238 46.90671636 49.55859375 43.1484375 C47 41 47 41 45.37890625 38.796875 C43.21977286 35.98327342 40.34428735 35.83607184 37 35 C36.01 34.34 35.02 33.68 34 33 C29.94441776 32.54011395 29.94441776 32.54011395 26 33 C23.16588845 35.333492 23.16588845 35.333492 21 38 C19.515 38.495 19.515 38.495 18 39 C18 41.97 18 44.94 18 48 C11.14151173 44.57075587 7.8906886 36.70751529 5.1875 29.6875 C1.81888103 19.22705162 1.24292633 11.80780017 0 0 Z " fill="#F3C636" transform="translate(19,0)"/>
<path d="M0 0 C4.95 0 9.9 0 15 0 C17.44662356 7.33987069 18.34642579 12.44758928 15.0703125 19.57421875 C12.74069672 25.19282563 12.05915552 30.54137893 11.5 36.5625 C10.44443895 46.61564225 9.03412635 56.54662654 7.26953125 66.50024414 C5.64963801 76.00367057 4.89955369 85.69866108 8 95 C9.95716757 97.4633099 9.95716757 97.4633099 12 99 C12 99.66 12 100.32 12 101 C18.06873371 104.28723076 24.00180958 106.85942689 31 106 C33.36751716 105.03366647 35.62509405 103.97042108 37.88671875 102.77734375 C40.40465755 101.85115184 41.48428864 102.26116803 44 103 C44.27714844 104.18078125 44.55429687 105.3615625 44.83984375 106.578125 C45.2057143 108.13542016 45.57160054 109.69271163 45.9375 111.25 C46.11990234 112.02730469 46.30230469 112.80460937 46.49023438 113.60546875 C46.66748047 114.35957031 46.84472656 115.11367187 47.02734375 115.890625 C47.18968506 116.58188477 47.35202637 117.27314453 47.51928711 117.98535156 C47.67792236 118.65018555 47.83655762 119.31501953 48 120 C48.12189697 120.71897461 48.24379395 121.43794922 48.36938477 122.17871094 C48.57748779 122.77973633 48.78559082 123.38076172 49 124 C51.99615946 125.3045656 51.99615946 125.3045656 55 126 C58.86641436 119.86761329 61.16700197 113.7987929 63.10546875 106.8203125 C64 104 64 104 66 101 C68.06640625 100.77734375 68.06640625 100.77734375 70.5625 100.9375 C79.6891709 101.50700426 86.94953345 98.42137858 94.75 94 C95.62108398 93.51305664 96.49216797 93.02611328 97.38964844 92.52441406 C107.35060652 86.83506832 116.10715058 79.99035685 124.51171875 72.1796875 C126 71 126 71 128 71 C128 89.81 128 108.62 128 128 C85.76 128 43.52 128 0 128 C0 85.76 0 43.52 0 0 Z " fill="#FBFCFA" transform="translate(0,0)"/>
<path d="M0 0 C1.44090836 -0.0592618 2.88252032 -0.10158336 4.32421875 -0.13671875 C5.52824341 -0.17478638 5.52824341 -0.17478638 6.7565918 -0.21362305 C9 -0 9 -0 11.8125 2.1875 C12.534375 3.115625 13.25625 4.04375 14 5 C14.763125 5.86625 15.52625 6.7325 16.3125 7.625 C18 10 18 10 18 13 C18.66 13 19.32 13 20 13 C20.66 14.65 21.32 16.3 22 18 C26.07964281 16.69844994 26.07964281 16.69844994 30 15 C44.25484967 12.9752796 53.48117738 15.51104414 65.0625 23.8125 C73.44622266 30.34613675 80.68119233 38.17031558 85 48 C85.91697772 55.72881219 83.5195671 60.52788313 78.76416016 66.5703125 C76.0296136 69.92390971 73.20645323 73.19602645 70.34814453 76.44433594 C68.99988855 78.0001286 67.69810738 79.58712545 66.3984375 81.18359375 C64.40153307 83.52849293 62.49665267 85.43634615 60.125 87.375 C56.52118397 90.42700299 53.51825139 93.73763843 50.54296875 97.3984375 C49 99 49 99 46 100 C42.84791655 105.31914082 41.19077174 110.47490546 39.80859375 116.484375 C38.94811406 119.16142293 37.80215606 120.86337176 36 123 C34.1875 122.9375 34.1875 122.9375 32 122 C28.033743 115.44042111 26.05758389 105.87754294 27.51171875 98.3515625 C28.37498502 96.01863805 29.21059202 93.78940798 31 92 C32.35375786 91.94667912 33.70808292 91.9075246 35.0625 91.875 C41.00301969 91.24423167 44.12747269 88.3635226 48 84 C50.54574195 80.7873901 52.81629952 77.46729028 55 74 C55.48726562 73.23300781 55.97453125 72.46601562 56.4765625 71.67578125 C59.39639676 66.78377824 61.86755029 61.79467483 62 56 C59.69061305 50.16575928 54.41798238 46.90671636 49.55859375 43.1484375 C47 41 47 41 45.37890625 38.796875 C43.21977286 35.98327342 40.34428735 35.83607184 37 35 C36.01 34.34 35.02 33.68 34 33 C29.94441776 32.54011395 29.94441776 32.54011395 26 33 C23.16588845 35.333492 23.16588845 35.333492 21 38 C19.515 38.495 19.515 38.495 18 39 C18 41.97 18 44.94 18 48 C11.14151173 44.57075587 7.8906886 36.70751529 5.1875 29.6875 C4.795625 28.470625 4.40375 27.25375 4 26 C3.50306641 24.46085937 3.50306641 24.46085937 2.99609375 22.890625 C1.70776465 18.34979294 1.30979618 13.74903262 0.875 9.0625 C0.78863281 8.18787109 0.70226562 7.31324219 0.61328125 6.41210938 C0.40310303 4.27529746 0.20074482 2.13771878 0 0 Z " fill="#6A6D55" transform="translate(19,0)"/>
<path d="M0 0 C33 0 66 0 100 0 C100 11.22 100 22.44 100 34 C96.68265025 32.34132512 95.20302239 31.38362867 92.6875 28.9375 C88.85860244 25.52603864 84.78448968 22.75685325 80.4375 20.0625 C79.50006958 19.4600647 79.50006958 19.4600647 78.54370117 18.84545898 C74.22845094 16.24067675 71.15727471 15.45329243 66 16 C63.61574995 16.6354996 63.61574995 16.6354996 61.5 17.5625 C57.30845704 19.07631109 54.39110886 19.11930226 50 18 C49.37351563 17.67644531 48.74703125 17.35289063 48.1015625 17.01953125 C39.38916838 12.79288652 29.99744856 13.44490657 21.0390625 16.24609375 C19.03512951 16.82553367 19.03512951 16.82553367 18 18 C16.33382885 18.04063832 14.66611905 18.042721 13 18 C12.34 16.35 11.68 14.7 11 13 C10.34 13 9.68 13 9 13 C8.443125 11.6696875 8.443125 11.6696875 7.875 10.3125 C6.21666304 7.38277137 5.32503159 6.23982998 2.8125 4.25 C1.884375 3.5075 0.95625 2.765 0 2 C0 1.34 0 0.68 0 0 Z " fill="#FBFCF9" transform="translate(28,0)"/>
<path d="M0 0 C2.625 1.375 2.625 1.375 5 3 C6.051875 3.309375 7.10375 3.61875 8.1875 3.9375 C11 5 11 5 12.125 7 C12.41375 7.66 12.7025 8.32 13 9 C13.57234375 9.28101563 14.1446875 9.56203125 14.734375 9.8515625 C17.61528444 11.31188556 19.72452882 13.21815873 22.125 15.375 C22.99382812 16.14585938 23.86265625 16.91671875 24.7578125 17.7109375 C26.82138849 19.81765445 28.0489192 21.23523023 29 24 C27.89833702 35.38385079 21.43804752 45.62298777 12.75 52.8125 C6.74798061 57.57835218 6.74798061 57.57835218 3 58 C0.65885633 57.72686657 -1.67750658 57.40197001 -4 57 C-4.53024893 49.17882827 -3.12984695 42.21603604 0 35 C1.31507937 33.64865925 2.64567325 32.31200404 4 31 C4.33448259 27.832168 4.33448259 27.832168 4 25 C3.41992188 24.82984375 2.83984375 24.6596875 2.2421875 24.484375 C-3.92746449 22.57035755 -9.07924578 20.7262318 -12.9375 15.25 C-14.27379142 11.16252037 -14.39851817 8.08263069 -13 4 C-9.35830346 -0.41417762 -5.40349323 -0.93734066 0 0 Z " fill="#FBFCF9" transform="translate(53,32)"/>
<path d="M0 0 C0.66 0 1.32 0 2 0 C2.30292969 0.60328125 2.60585938 1.2065625 2.91796875 1.828125 C5.95596396 7.62368509 8.51370409 11.83790136 15 14 C16.0828125 15.36125 16.0828125 15.36125 17.1875 16.75 C20.19885152 20.53001482 23.83320253 22.64929728 28 25 C28.68320312 25.39574219 29.36640625 25.79148437 30.0703125 26.19921875 C31.70733437 27.14365444 33.35279155 28.07344525 35 29 C34.54672699 31.99160187 33.86885276 34.27325287 32.55078125 37.01953125 C30.13528081 42.5445081 29.85125424 48.50274013 29.18359375 54.4375 C28.07507731 63.33111466 28.07507731 63.33111466 25 67 C19.34092061 71.07091856 13.8865498 72.90315407 7 72 C0.51809686 70.18051842 -3.33970358 66.49537764 -7 61 C-9.46837579 55.56957327 -9.02802493 50.7569396 -8 45 C-6 46 -6 46 -5.2890625 48.109375 C-5.06992188 48.98078125 -4.85078125 49.8521875 -4.625 50.75 C-3.43815241 54.96120033 -2.15293361 57.84706639 1 61 C4.19774704 62.59887352 7.52210946 62.35954336 11 62 C14.39906745 60.530133 15.38380428 58.48022056 16.75 55.1875 C18.64918433 49.37388576 18.50344756 45.68713419 15.875 40.125 C13.67196389 35.94617506 11.11456724 32.25417837 8.13671875 28.59375 C7 27 7 27 7 25 C5.35 25 3.7 25 2 25 C1.67386719 25.79664062 1.34773438 26.59328125 1.01171875 27.4140625 C-1.16848218 32.70056742 -3.32988508 37.94083489 -6 43 C-6.66 42.67 -7.32 42.34 -8 42 C-7.87882813 41.29037109 -7.75765625 40.58074219 -7.6328125 39.84960938 C-6.70100114 34.33400289 -5.81183054 28.81587247 -5 23.28125 C-4.7525 21.60675781 -4.7525 21.60675781 -4.5 19.8984375 C-4.16216573 17.6022202 -3.82894954 15.30531943 -3.5 13.0078125 C-3.2525 11.34878906 -3.2525 11.34878906 -3 9.65625 C-2.855625 8.66431641 -2.71125 7.67238281 -2.5625 6.65039062 C-2.0266603 4.12561815 -1.27094558 2.23209817 0 0 Z " fill="#F3C636" transform="translate(17,31)"/>
<path d="M0 0 C2.64 0 5.28 0 8 0 C8.5775 1.093125 9.155 2.18625 9.75 3.3125 C11.11458176 5.74058143 11.88438613 6.91741866 14.1875 8.5625 C16.81286123 10.64468304 16.58088517 12.78678632 17 16 C17.66 16.33 18.32 16.66 19 17 C20.125 19.0625 20.125 19.0625 21 21 C23.832168 21.33448259 23.832168 21.33448259 27 21 C29.14589423 19.10413616 29.14589423 19.10413616 31 17 C37.09530607 14.86867917 44.56201955 15.24338538 50.625 17.125 C51.73875 17.74375 52.8525 18.3625 54 19 C54.86109375 19.47179687 55.7221875 19.94359375 56.609375 20.4296875 C63.84625436 24.53876307 63.84625436 24.53876307 65 28 C66.49842235 29.48481257 66.49842235 29.48481257 68.3125 30.875 C71.28887425 33.34815221 73.87431784 35.72290666 76 39 C75.67 39.99 75.34 40.98 75 42 C73.5 40.625 73.5 40.625 72 39 C72 38.34 72 37.68 72 37 C70.68 36.34 69.36 35.68 68 35 C68 34.34 68 33.68 68 33 C67.443125 32.731875 66.88625 32.46375 66.3125 32.1875 C59.29090909 28.58181818 59.29090909 28.58181818 58 26 C55.6859378 25.26924352 53.35171131 24.59861742 51 24 C51 23.34 51 22.68 51 22 C44.73 22 38.46 22 32 22 C32 22.99 32 23.98 32 25 C32.969375 25.28875 33.93875 25.5775 34.9375 25.875 C38 27 38 27 39 29 C40.97888961 29.72693904 42.97954558 30.39816251 45 31 C45 31.99 45 32.98 45 34 C47.97 34.495 47.97 34.495 51 35 C51 35.99 51 36.98 51 38 C51.75023437 38.08507813 52.50046875 38.17015625 53.2734375 38.2578125 C56.55859988 39.15205441 57.51916329 40.24991588 59.625 42.875 C62.04973047 45.86667169 62.04973047 45.86667169 64.73046875 48.62109375 C65.14941406 49.07613281 65.56835938 49.53117187 66 50 C65.6875 52.1875 65.6875 52.1875 65 54 C64.4225 53.195625 63.845 52.39125 63.25 51.5625 C56.89912664 44.00962519 48.67173095 38.60946888 39.27734375 35.75390625 C37 35 37 35 34 33 C29.94441776 32.54011395 29.94441776 32.54011395 26 33 C23.16588845 35.333492 23.16588845 35.333492 21 38 C19.515 38.495 19.515 38.495 18 39 C18 41.97 18 44.94 18 48 C11.14151173 44.57075587 7.8906886 36.70751529 5.1875 29.6875 C4.795625 28.470625 4.40375 27.25375 4 26 C3.50306641 24.46085937 3.50306641 24.46085937 2.99609375 22.890625 C1.70776465 18.34979294 1.30979618 13.74903262 0.875 9.0625 C0.78863281 8.18787109 0.70226562 7.31324219 0.61328125 6.41210938 C0.40310303 4.27529746 0.20074482 2.13771878 0 0 Z " fill="#535644" transform="translate(19,0)"/>
<path d="M0 0 C0.99 0 1.98 0 3 0 C4.94955578 9.67327356 5.55809072 16.16204145 1.3671875 25.359375 C-0.63093689 30.68009482 -1.19882247 36.01830063 -1.8984375 41.6340332 C-2.61152008 47.32805835 -3.51992926 52.92872297 -4.63208008 58.55859375 C-8.63945481 77.71663809 -8.63945481 77.71663809 -3.7734375 96.109375 C0.86135684 101.54684322 5.2655909 103.42547552 12.25 104.5 C18.44196735 103.67440435 25.04127862 101.88759827 29.625 97.4140625 C32.81531774 92.04213043 32.41175821 85.78154317 32.66015625 79.7109375 C33.24040981 73.3748354 35.50162871 68.24755694 39 63 C39.18223189 60.93615801 39.18223189 60.93615801 38 59 C34.7611537 57.10957134 31.41821765 55.62208989 28.00390625 54.07421875 C25 52 25 52 23.59765625 48.484375 C23.03984052 45.23227284 22.83948563 42.29054458 23 39 C23.66 38.67 24.32 38.34 25 38 C25.01417969 38.59167969 25.02835938 39.18335938 25.04296875 39.79296875 C25.28521267 43.80636122 25.5755828 46.37752144 27.875 49.75 C30.83048255 51.87794744 33.40506273 53.06042842 36.75 54.4375 C41.8181001 56.61247413 41.8181001 56.61247413 43.4375 60.0625 C43 63 43 63 41.109375 64.796875 C35.44459614 70.71342181 34.53554161 81.10076126 34 89 C39.44784989 89.68098124 42.98870706 89.48276467 47.4375 86.0625 C48.6279984 85.045165 49.8160529 84.02495181 51 83 C51.66 82.67 52.32 82.34 53 82 C50.9753688 86.50896128 48.23248048 89.43990413 44 92 C40.97250189 92.74486065 38.10408437 92.92447778 35 93 C32.05569009 99.39273244 31.78886743 103.47788661 33.1875 110.3125 C33.32736328 111.10978516 33.46722656 111.90707031 33.61132812 112.72851562 C34.31138087 116.49486276 34.83006373 118.7450956 37 122 C37.99 122 38.98 122 40 122 C42.59535289 118.54164468 43.5691309 115.2533248 44.4375 111.0625 C46.76800886 101.70585305 46.76800886 101.70585305 50 99 C53.40134306 98.8338557 56.74245652 99.01523136 60.14453125 99.15625 C76.5362637 98.49194473 95.984039 83.35716442 107.0625 72 C107.56910156 71.443125 108.07570313 70.88625 108.59765625 70.3125 C110 69 110 69 113 68 C113 68.99 113 69.98 113 71 C110.875 73.05078125 110.875 73.05078125 108 75.3125 C106.98679687 76.11171875 105.97359375 76.9109375 104.9296875 77.734375 C103.96289062 78.48203125 102.99609375 79.2296875 102 80 C101.32195312 80.54140625 100.64390625 81.0828125 99.9453125 81.640625 C87.78650851 91.13805987 71.88660534 102.18082315 56 102 C54.60974609 102.00193359 54.60974609 102.00193359 53.19140625 102.00390625 C52.46824219 102.00261719 51.74507812 102.00132813 51 102 C50.61908203 103.051875 50.61908203 103.051875 50.23046875 104.125 C49.51448056 106.09866034 48.79557423 108.07126377 48.07421875 110.04296875 C47.43918823 111.79103459 46.81304515 113.54244536 46.20703125 115.30078125 C44.6456805 119.74329857 42.73898566 123.22208874 40 127 C36.39231303 125.38276102 33.81230158 123.76540209 32.12109375 120.08984375 C30.33163368 114.45560089 29.03282024 108.82024584 28 103 C25.25791322 103.62624155 22.7761214 104.47116674 20.1875 105.5625 C14.0395759 107.86939204 8.85623369 107.44188522 2.8515625 104.984375 C0.01031763 103.47383975 -1.89218501 101.40056707 -4 99 C-4.721875 98.443125 -5.44375 97.88625 -6.1875 97.3125 C-10.87799821 91.32807125 -10.42107283 82.27296859 -10 75 C-9.35084571 69.80892952 -8.49302878 64.65770851 -7.625 59.5 C-7.15444752 56.64414064 -6.69051159 53.78725775 -6.23046875 50.9296875 C-6.11862747 50.23636322 -6.00678619 49.54303894 -5.89155579 48.82870483 C-5.03680825 43.44008431 -4.42376563 38.05716203 -3.9375 32.625 C-3.42192059 26.98277359 -2.20859919 22.31787595 0.17578125 17.16796875 C2.25394115 11.70171877 1.14620327 5.58774096 0 0 Z " fill="#A6C4C2" transform="translate(15,0)"/>
<path d="M0 0 C3.72547793 1.50355612 5.64094944 3.63313048 8.125 6.75 C8.80820312 7.59046875 9.49140625 8.4309375 10.1953125 9.296875 C13.69179279 14.53402729 14.36171483 18.80637561 13.47265625 24.88671875 C12.55045421 29.00995266 10.88615498 31.25754583 7.6875 33.9375 C5 35 5 35 2 34.5625 C-2.60346649 32.1648612 -5.33007762 29.00976714 -7 24 C-7.79068182 15.82962117 -5.48977803 9.3708342 -2 2 C-1.34 1.34 -0.68 0.68 0 0 Z " fill="#FCFDFB" transform="translate(20,58)"/>
<path d="M0 0 C0.99 0.33 1.98 0.66 3 1 C4.66070759 6.48033505 3.15692064 10.78676051 0.5625 15.75 C-1.26664576 19.55462318 -2.19203972 23.31616883 -3.15625 27.4140625 C-4.03862401 30.11837542 -5.17506341 31.8404917 -7 34 C-8.8125 33.9375 -8.8125 33.9375 -11 33 C-14.966257 26.44042111 -16.94241611 16.87754294 -15.48828125 9.3515625 C-14.62501498 7.01863805 -13.78940798 4.78940798 -12 3 C-9.74584622 2.71710819 -7.49159344 2.5522881 -5.2265625 2.37890625 C-2.72079922 2.10799175 -2.72079922 2.10799175 0 0 Z " fill="#1896B7" transform="translate(62,89)"/>
<path d="M0 0 C0.87527344 0.36867188 1.75054687 0.73734375 2.65234375 1.1171875 C6.90202317 2.71523667 10.84740017 1.40821244 15 -0.0625 C19.47910326 -1.46221977 22.90005829 -1.97805504 27.28125 0.0625 C33.84263134 3.88305116 39.94935321 8.42650642 46 13 C46.66902344 13.48855469 47.33804688 13.97710938 48.02734375 14.48046875 C49.6875 15.75 49.6875 15.75 52 18 C52 19.32 52 20.64 52 22 C47.70858649 21.52317628 45.94465439 18.96155341 43 16 C31.65248399 6.37467413 31.65248399 6.37467413 17.5625 4.3125 C15.70627109 4.52431508 13.8511617 4.74770703 12 5 C12.75941929 8.82107812 14.21003023 10.30002925 17 13 C17 13.66 17 14.32 17 15 C17.66 15 18.32 15 19 15 C20.40234375 16.609375 20.40234375 16.609375 21.9375 18.75 C22.44152344 19.44609375 22.94554687 20.1421875 23.46484375 20.859375 C23.97144531 21.56578125 24.47804687 22.2721875 25 23 C25.83144531 24.03640625 25.83144531 24.03640625 26.6796875 25.09375 C28.35887681 27.51814167 28.24049845 29.11401855 28 32 C26.34041619 29.84254104 24.80907237 27.69157844 23.375 25.375 C18.3320039 17.74235725 11.5873713 10.34359144 3.5 5.9375 C1.45235491 4.81700751 -0.44285518 3.69699382 -2.375 2.375 C-8.9052198 -1.04559133 -15.76772102 -1.22959616 -23 -1 C-15.4451217 -5.08679839 -7.8156691 -2.32127502 0 0 Z " fill="#EED379" transform="translate(76,16)"/>
<path d="M0 0 C0.99 0 1.98 0 3 0 C4.94955578 9.67327356 5.55809072 16.16204145 1.3671875 25.359375 C-0.63093689 30.68009482 -1.19882247 36.01830063 -1.8984375 41.6340332 C-2.61152008 47.32805835 -3.51992926 52.92872297 -4.63208008 58.55859375 C-8.63945481 77.71663809 -8.63945481 77.71663809 -3.7734375 96.109375 C0.8442329 101.52675369 5.23258297 103.40903262 12.1875 104.5 C18.15185144 103.71778998 23.48105879 101.32376472 29 99 C28.505 100.98 28.505 100.98 28 103 C27.41863281 103.13277344 26.83726563 103.26554687 26.23828125 103.40234375 C24.11443064 103.96944522 22.21002378 104.70982704 20.1875 105.5625 C14.0395759 107.86939204 8.85623369 107.44188522 2.8515625 104.984375 C0.01031763 103.47383975 -1.89218501 101.40056707 -4 99 C-4.721875 98.443125 -5.44375 97.88625 -6.1875 97.3125 C-10.87799821 91.32807125 -10.42107283 82.27296859 -10 75 C-9.35084571 69.80892952 -8.49302878 64.65770851 -7.625 59.5 C-7.15444752 56.64414064 -6.69051159 53.78725775 -6.23046875 50.9296875 C-6.11862747 50.23636322 -6.00678619 49.54303894 -5.89155579 48.82870483 C-5.03680825 43.44008431 -4.42376563 38.05716203 -3.9375 32.625 C-3.42192059 26.98277359 -2.20859919 22.31787595 0.17578125 17.16796875 C2.25394115 11.70171877 1.14620327 5.58774096 0 0 Z " fill="#F1E8C6" transform="translate(15,0)"/>
<path d="M0 0 C7.98541477 6.5633546 7.98541477 6.5633546 10 10 C10 10.99 10 11.98 10 13 C10.66 13 11.32 13 12 13 C12.66 14.65 13.32 16.3 14 18 C18.07964281 16.69844994 18.07964281 16.69844994 22 15 C36.25484967 12.9752796 45.48117738 15.51104414 57.0625 23.8125 C65.44622266 30.34613675 72.68119233 38.17031558 77 48 C77.81075217 54.83348258 76.130064 59.48962514 72 65 C69.828125 66.76171875 69.828125 66.76171875 68 68 C69.0383036 65.84465888 70.12347952 63.80284783 71.39453125 61.7734375 C73.99858586 57.36878315 75.61448398 54.16464972 74.3125 49.0625 C69.05017434 35.56718097 58.34788408 26.7352095 46 20 C44.88625 19.38125 43.7725 18.7625 42.625 18.125 C35.82556267 16.01482979 28.48402377 15.84345416 22 19 C21.525625 19.53625 21.05125 20.0725 20.5625 20.625 C19 22 19 22 15.9375 22.3125 C13 22 13 22 11 20 C11 19.01 11 18.02 11 17 C10.01 16.67 9.02 16.34 8 16 C7.71125 14.9275 7.4225 13.855 7.125 12.75 C5.84847729 8.49492428 4.16460492 7.00231749 1 4 C0.34765625 1.85546875 0.34765625 1.85546875 0 0 Z " fill="#999A73" transform="translate(27,0)"/>
<path d="M0 0 C2.36015827 2.36015827 2.36053838 3.20568635 2.74609375 6.4375 C2.86146484 7.33339844 2.97683594 8.22929687 3.09570312 9.15234375 C3.31981464 11.01951287 3.5437782 12.88669976 3.76757812 14.75390625 C4.82307555 22.95296357 6.09893812 31.19044387 11.1875 37.9375 C14 41.7080292 14 41.7080292 14 45 C10.07489083 44.41850235 7.84992176 42.70742568 5 40 C1 34.20064725 1 34.20064725 1 31 C0.34 31.33 -0.32 31.66 -1 32 C-1.58702455 34.84119884 -2.07865745 37.63394461 -2.5 40.5 C-2.92134255 43.36605539 -3.41297545 46.15880116 -4 49 C-4.99 49.495 -4.99 49.495 -6 50 C-6.32313113 40.30606624 -5.28404608 31.66391454 -1.3125 22.75 C1.88769571 15.04894425 1.04652163 8.07168663 0 0 Z " fill="#EAD17A" transform="translate(18,0)"/>
<path d="M0 0 C0.33 0 0.66 0 1 0 C1.08636719 0.91523437 1.17273438 1.83046875 1.26171875 2.7734375 C1.40222656 3.96195313 1.54273437 5.15046875 1.6875 6.375 C1.81511719 7.55835938 1.94273438 8.74171875 2.07421875 9.9609375 C2.66605722 13.16604697 2.66605722 13.16604697 5.3203125 14.2890625 C6.20460937 14.52367187 7.08890625 14.75828125 8 15 C9.40463982 15.64790594 10.80126988 16.31358818 12.1875 17 C12.86167969 17.33 13.53585938 17.66 14.23046875 18 C16 19 16 19 18 21 C17.58168195 24.07855938 16.29124296 26.75689489 15 29.5625 C12.66821563 34.64613284 11.88495613 38.56282102 11.6875 44.1875 C11.00911663 55.79354343 11.00911663 55.79354343 7 60 C0.17988854 64.43866271 -6.78431619 67.22115595 -14.98828125 65.609375 C-20.8550566 63.8322547 -24.74572648 60.15024158 -28 55 C-28.69140625 52.2421875 -28.69140625 52.2421875 -29 50 C-28.34 50 -27.68 50 -27 50 C-26.46375 51.051875 -25.9275 52.10375 -25.375 53.1875 C-22.88480947 57.54091819 -19.82450944 60.77604591 -15.125 62.8125 C-14.073125 62.9053125 -14.073125 62.9053125 -13 63 C-11.205625 63.185625 -11.205625 63.185625 -9.375 63.375 C-4.08024332 63.27566123 0.97275642 61.43352916 5 58 C8.23234499 52.1481052 8.65461922 45.79793234 9.171875 39.26757812 C9.64623591 34.25486048 10.90977942 30.57780079 13 26 C13.69140522 23.22111387 13.69140522 23.22111387 14 21 C13.443125 20.70867188 12.88625 20.41734375 12.3125 20.1171875 C-2.32286154 12.25562505 -2.32286154 12.25562505 -5 6 C-3.35 6.99 -1.7 7.98 0 9 C0 6.03 0 3.06 0 0 Z " fill="#EED379" transform="translate(37,39)"/>
<path d="M0 0 C0.87527344 0.36867188 1.75054687 0.73734375 2.65234375 1.1171875 C6.90202317 2.71523667 10.84740017 1.40821244 15 -0.0625 C19.47910326 -1.46221977 22.90005829 -1.97805504 27.28125 0.0625 C35.97407441 5.12414459 44.58470382 11.18594405 52 18 C52 18.66 52 19.32 52 20 C50.25 19.8125 50.25 19.8125 48 19 C47.44828125 18.26523437 46.8965625 17.53046875 46.328125 16.7734375 C43.44201238 13.3352832 40.25160362 11.22008252 36.5 8.8125 C35.83613281 8.37486328 35.17226562 7.93722656 34.48828125 7.48632812 C28.78967209 3.7611894 25.06158261 1.32746832 18 2 C16.2406577 2.72781501 14.49127642 3.47996335 12.75 4.25 C8.18190998 6.04955061 5.73598262 6.07770787 1.125 4.375 C-0.59536182 3.60982414 -2.30446414 2.81871669 -4 2 C-7.22046671 0.59290377 -10.00130939 -0.29237801 -13.5 -0.625 C-14.65822266 -0.73521484 -14.65822266 -0.73521484 -15.83984375 -0.84765625 C-18.23337522 -1.01645865 -20.60142669 -1.07737333 -23 -1 C-15.96053557 -5.50525724 -7.35188872 -2.18353098 0 0 Z " fill="#F1E8C6" transform="translate(76,16)"/>
<path d="M0 0 C3.72547793 1.50355612 5.64094944 3.63313048 8.125 6.75 C8.80820312 7.59046875 9.49140625 8.4309375 10.1953125 9.296875 C13.69179279 14.53402729 14.36171483 18.80637561 13.47265625 24.88671875 C12.55045421 29.00995266 10.88615498 31.25754583 7.6875 33.9375 C5 35 5 35 2 34.5625 C-2.60346649 32.1648612 -5.33007762 29.00976714 -7 24 C-7.79068182 15.82962117 -5.48977803 9.3708342 -2 2 C-1.34 1.34 -0.68 0.68 0 0 Z M0 3 C-3.81375405 8.1402772 -6.09134354 14.30536561 -5.875 20.6875 C-4.70780903 25.10615151 -3.33428873 28.57369136 -0.1875 31.9375 C2.94443338 33.45872479 4.72570695 33.04498714 8 32 C11.86234996 27.85120782 12 23.46890267 12 18 C10.83186591 12.47791158 8.12119172 7.87163975 3.875 4.125 C2.07860352 2.82850141 2.07860352 2.82850141 0 3 Z " fill="#F1E8C6" transform="translate(20,58)"/>
<path d="M0 0 C0.495 1.485 0.495 1.485 1 3 C-35.36389136 33.08042484 -35.36389136 33.08042484 -53.6953125 34.22265625 C-56.21597411 33.9791347 -57.83050215 33.27470496 -60 32 C-57.57019361 30.78509681 -56.43563997 31.08573239 -53.75 31.3125 C-37.27421465 31.43103083 -18.20677492 16.61123179 -6.765625 5.91015625 C-5.59503403 4.7274724 -4.43828164 3.53069072 -3.3046875 2.3125 C-2 1 -2 1 0 0 Z " fill="#F1E8C6" transform="translate(127,68)"/>
<path d="M0 0 C2.625 1.375 2.625 1.375 5 3 C6.051875 3.309375 7.10375 3.61875 8.1875 3.9375 C11 5 11 5 12.125 7 C12.41375 7.66 12.7025 8.32 13 9 C13.57234375 9.28101563 14.1446875 9.56203125 14.734375 9.8515625 C17.61528444 11.31188556 19.72452882 13.21815873 22.125 15.375 C22.99382812 16.14585938 23.86265625 16.91671875 24.7578125 17.7109375 C26.82802322 19.82442789 28.07680269 21.21392241 29 24 C28.71024254 30.02918402 26.18743243 35.00635586 23 40 C22 38 22 38 22.55859375 36.1171875 C22.84863281 35.37726563 23.13867188 34.63734375 23.4375 33.875 C25.03806737 29.30195038 25.499773 25.83113905 25 21 C23.18836733 18.32568511 22.12238923 18.04079641 19 17 C17.33333333 15 15.66666667 13 14 11 C13.01 10.67 12.02 10.34 11 10 C11 9.34 11 8.68 11 8 C10.36191406 7.81824219 9.72382812 7.63648438 9.06640625 7.44921875 C8.24011719 7.19785156 7.41382812 6.94648437 6.5625 6.6875 C5.73878906 6.44386719 4.91507813 6.20023438 4.06640625 5.94921875 C3.38449219 5.63597656 2.70257813 5.32273437 2 5 C1.67 4.01 1.34 3.02 1 2 C-0.77226453 2.28284018 -2.542788 2.57660498 -4.3125 2.875 C-5.29863281 3.03742187 -6.28476562 3.19984375 -7.30078125 3.3671875 C-10.20059827 3.88085454 -10.20059827 3.88085454 -13 6 C-10.36462915 -0.08162505 -6.2495311 -0.82424918 0 0 Z " fill="#BACDC3" transform="translate(53,32)"/>
<path d="M0 0 C-1.55819951 4.67459853 -5.27176706 6.91881575 -9 10 C-10.15435547 10.96679688 -10.15435547 10.96679688 -11.33203125 11.953125 C-22.957104 21.49357243 -39.22938178 34.5 -55.125 34.5 C-56.40375 34.335 -57.6825 34.17 -59 34 C-59.33 33.34 -59.66 32.68 -60 32 C-58.205625 32.185625 -58.205625 32.185625 -56.375 32.375 C-38.47994875 32.3469073 -18.48471691 15.65830539 -6 4 C-5.21625 3.195625 -4.4325 2.39125 -3.625 1.5625 C-2 0 -2 0 0 0 Z " fill="#EED379" transform="translate(128,66)"/>
<path d="M0 0 C1 2 1 2 1.25 5.3125 C2.19549965 9.9612066 3.23048986 11.13517229 7 14 C8.90535552 14.83868213 10.82322388 15.64927341 12.75 16.4375 C17.8181001 18.61247413 17.8181001 18.61247413 19.4375 22.0625 C19 25 19 25 17.11328125 26.80078125 C12.07352582 32.04548052 10.75 40.73905976 10.75 47.8125 C10.81218472 49.20943529 10.88674024 50.60627572 11 52 C10.34 52 9.68 52 9 52 C8.46119088 41.61295754 9.16462399 33.75306401 15 25 C15.18223189 22.93615801 15.18223189 22.93615801 14 21 C10.7611537 19.10957134 7.41821765 17.62208989 4.00390625 16.07421875 C1 14 1 14 -0.3984375 10.48046875 C-0.96324145 7.21267448 -1.23611285 4.30557992 -1 1 C-0.67 0.67 -0.34 0.34 0 0 Z " fill="#E4E2C5" transform="translate(39,38)"/>
<path d="M0 0 C0.33 0 0.66 0 1 0 C1.08636719 0.91523437 1.17273437 1.83046875 1.26171875 2.7734375 C1.40222656 3.96195313 1.54273438 5.15046875 1.6875 6.375 C1.81511719 7.55835938 1.94273438 8.74171875 2.07421875 9.9609375 C2.66605722 13.16604697 2.66605722 13.16604697 5.3203125 14.2890625 C6.20460938 14.52367187 7.08890625 14.75828125 8 15 C9.40463982 15.64790594 10.80126988 16.31358818 12.1875 17 C12.86167969 17.33 13.53585938 17.66 14.23046875 18 C16 19 16 19 18 21 C17.58319694 24.0330438 16.33300927 26.67114585 15.0625 29.4375 C13.62822824 32.5981134 12.25339409 35.76206527 11 39 C10.67 39 10.34 39 10 39 C10.3255876 33.21801328 10.60641517 28.86905649 14 24 C14 23.01 14 22.02 14 21 C13.443125 20.70867188 12.88625 20.41734375 12.3125 20.1171875 C-2.32286154 12.25562505 -2.32286154 12.25562505 -5 6 C-2.525 7.485 -2.525 7.485 0 9 C0 6.03 0 3.06 0 0 Z " fill="#EED379" transform="translate(37,39)"/>
<path d="M0 0 C0.99 0 1.98 0 3 0 C5.26717371 11.24922497 5.02343805 18.36213118 0 29 C-0.37438617 30.32239324 -0.72738093 31.65294108 -1 33 C-1.66 33 -2.32 33 -3 33 C-3.37108317 27.99037714 -3.04960264 24.67410595 -1 20.0625 C1.96225132 13.24827524 1.4752277 7.19173506 0 0 Z " fill="#E6E2C5" transform="translate(15,0)"/>
<path d="M0 0 C3.17605188 1.2139111 6.00447094 1.03827442 9.37109375 0.90625 C9.37109375 1.56625 9.37109375 2.22625 9.37109375 2.90625 C6.42669481 4.42112192 4.93574806 5.03281045 1.65234375 4.296875 C0.275625 3.73226563 0.275625 3.73226563 -1.12890625 3.15625 C-2.505625 2.60710938 -2.505625 2.60710938 -3.91015625 2.046875 C-5.67373906 1.30698106 -7.43437101 0.55999838 -9.19140625 -0.1953125 C-11.57751645 -1.07480825 -13.60588426 -1.47888523 -16.12890625 -1.71875 C-17.28712891 -1.82896484 -17.28712891 -1.82896484 -18.46875 -1.94140625 C-20.86228147 -2.11020865 -23.23033294 -2.17112333 -25.62890625 -2.09375 C-18.1650124 -6.87064206 -7.51162494 -3.12519314 0 0 Z " fill="#CFD7C3" transform="translate(78.62890625,17.09375)"/>
<path d="M0 0 C2.71264859 0.86804755 4.8348652 1.85581821 7.05078125 3.65625 C7.38078125 4.64625 7.71078125 5.63625 8.05078125 6.65625 C3.30078125 4.78125 3.30078125 4.78125 1.05078125 3.65625 C-2.99096948 3.2571562 -2.99096948 3.2571562 -6.94921875 3.65625 C-9.84641285 5.96898442 -9.84641285 5.96898442 -11.94921875 8.65625 C-12.93921875 9.15125 -12.93921875 9.15125 -13.94921875 9.65625 C-14.27921875 8.66625 -14.60921875 7.67625 -14.94921875 6.65625 C-10.29172275 1.56726936 -7.07739823 -1.46681829 0 0 Z " fill="#74765B" transform="translate(51.94921875,29.34375)"/>
<path d="M0 0 C2.36015827 2.36015827 2.36053838 3.20568635 2.74609375 6.4375 C2.86146484 7.33339844 2.97683594 8.22929687 3.09570312 9.15234375 C3.31981464 11.01951287 3.5437782 12.88669976 3.76757812 14.75390625 C4.90917205 23.62175737 6.49609928 31.78799216 12 39 C11.67 39.66 11.34 40.32 11 41 C10.05174959 39.67429069 9.11703784 38.33889635 8.1875 37 C7.66542969 36.2575 7.14335937 35.515 6.60546875 34.75 C2.17236163 27.1565513 1.37593118 20.14272421 0.8125 11.5 C0.73064453 10.39140625 0.64878906 9.2828125 0.56445312 8.140625 C0.36565824 5.4276595 0.17778997 2.71440916 0 0 Z " fill="#999972" transform="translate(18,0)"/>
<path d="M0 0 C2.625 1.375 2.625 1.375 5 3 C6.051875 3.33 7.10375 3.66 8.1875 4 C11 5 11 5 13 8 C8.61110675 7.33501617 5.0188515 5.81242323 1 4 C1 3.34 1 2.68 1 2 C-0.77226453 2.28284018 -2.542788 2.57660498 -4.3125 2.875 C-5.29863281 3.03742187 -6.28476562 3.19984375 -7.30078125 3.3671875 C-10.20059827 3.88085454 -10.20059827 3.88085454 -13 6 C-10.36462915 -0.08162505 -6.2495311 -0.82424918 0 0 Z " fill="#B6C6B5" transform="translate(53,32)"/>
<path d="M0 0 C7.98541477 6.5633546 7.98541477 6.5633546 10 10 C10 10.99 10 11.98 10 13 C10.66 13 11.32 13 12 13 C12.66 14.65 13.32 16.3 14 18 C16.64 17.34 19.28 16.68 22 16 C20.3125 18.0625 20.3125 18.0625 18 20 C15.57421875 19.91796875 15.57421875 19.91796875 13 19 C11.15625 16.890625 11.15625 16.890625 9.5 14.25 C7.54799518 11.25806249 5.75940413 8.54621536 3.125 6.125 C0.89813465 3.89813465 0.58415763 2.97050368 0 0 Z " fill="#BBCABB" transform="translate(27,0)"/>
<path d="M0 0 C0.79921875 0.433125 1.5984375 0.86625 2.421875 1.3125 C4.62864164 2.51868301 6.8186646 3.74857629 9 5 C7.12109375 5.578125 7.12109375 5.578125 5 6 C3.0625 4.75 3.0625 4.75 1 3 C-4.97440365 -1.7071059 -12.93729003 -1.35280725 -20.1875 -0.5625 C-21.445625 -0.376875 -22.70375 -0.19125 -24 0 C-23 -2 -23 -2 -21.30078125 -2.609375 C-13.78346841 -3.88565901 -6.7613655 -3.69961509 0 0 Z " fill="#676A54" transform="translate(73,19)"/>
<path d="M0 0 C4.35647645 1.44950405 7.31757289 3.67747112 10.8125 6.625 C11.78832031 7.44226562 12.76414062 8.25953125 13.76953125 9.1015625 C14.50558594 9.72804688 15.24164063 10.35453125 16 11 C15.67 11.99 15.34 12.98 15 14 C1.29180696 3.87542088 1.29180696 3.87542088 0 0 Z " fill="#7C7E60" transform="translate(65,38)"/>
<path d="M0 0 C1.32 0.66 2.64 1.32 4 2 C3.42655063 4.86724686 3.1385485 5.8614515 1 8 C0.690625 9.175625 0.38125 10.35125 0.0625 11.5625 C-0.288125 12.696875 -0.63875 13.83125 -1 15 C-1.99 15.33 -2.98 15.66 -4 16 C-3.25 9.25 -3.25 9.25 -1 7 C-0.59952556 4.67724823 -0.2602896 2.34260643 0 0 Z " fill="#515442" transform="translate(85,54)"/>
<path d="M0 0 C0.66 0 1.32 0 2 0 C1.43804235 3.93370357 0.44407389 6.83175607 -2 10 C-3.32 10 -4.64 10 -6 10 C-5.49259538 5.60249328 -2.91706686 3.13051078 0 0 Z " fill="#515442" transform="translate(71,82)"/>
<path d="M0 0 C0.33 0 0.66 0 1 0 C1.36504603 1.58086048 1.71660506 3.16483907 2.0625 4.75 C2.25972656 5.63171875 2.45695312 6.5134375 2.66015625 7.421875 C3 10 3 10 2 14 C-0.31 12.02 -2.62 10.04 -5 8 C-4.67 7.34 -4.34 6.68 -4 6 C-2.68 6.99 -1.36 7.98 0 9 C0 6.03 0 3.06 0 0 Z " fill="#999971" transform="translate(37,39)"/>
<path d="M0 0 C1.70884005 1.62339805 3.37446717 3.29319053 5 5 C5 5.66 5 6.32 5 7 C7.64 7 10.28 7 13 7 C12.01 8.485 12.01 8.485 11 10 C8 10.3125 8 10.3125 5 10 C4.34 9.34 3.68 8.68 3 8 C3 7.01 3 6.02 3 5 C2.01 4.67 1.02 4.34 0 4 C0 2.68 0 1.36 0 0 Z " fill="#7F8062" transform="translate(35,12)"/>
<path d="M0 0 C0 0.33 0 0.66 0 1 C-0.66386719 1.08636719 -1.32773437 1.17273437 -2.01171875 1.26171875 C-8.02299359 2.21825737 -11.19591638 3.18149408 -15 8 C-15.33 7.01 -15.66 6.02 -16 5 C-11.01397362 -1.4293498 -7.80473889 -1.69668237 0 0 Z " fill="#848564" transform="translate(53,31)"/>
<path d="M0 0 C4.42761914 1.39153744 6.9556255 3.52071486 10 7 C10 7.66 10 8.32 10 9 C9.34 9 8.68 9 8 9 C7.195625 8.030625 6.39125 7.06125 5.5625 6.0625 C3.29315623 2.80624673 3.29315623 2.80624673 0 2 C0 1.34 0 0.68 0 0 Z " fill="#C8D4C3" transform="translate(64,40)"/>
<path d="M0 0 C0.66 0.33 1.32 0.66 2 1 C0.60667426 4.36720387 -0.9789286 5.9859524 -4 8 C-4 4.09161134 -2.49432124 2.88405893 0 0 Z " fill="#797B5E" transform="translate(68,82)"/>
<path d="M0 0 C0 4.03223106 -1.64129026 5.80880447 -4 9 C-4.99 9.495 -4.99 9.495 -6 10 C-5.71125 9.443125 -5.4225 8.88625 -5.125 8.3125 C-3.94039559 5.97193593 -3.94039559 5.97193593 -3 3.3125 C-2 1 -2 1 0 0 Z " fill="#B9CDC3" transform="translate(74,72)"/>
<path d="M0 0 C1.26026798 2.52053595 0.91874445 3.8542098 0.5625 6.625 C0.46066406 7.44226562 0.35882813 8.25953125 0.25390625 9.1015625 C0.17011719 9.72804688 0.08632813 10.35453125 0 11 C-1.32 10.34 -2.64 9.68 -4 9 C-3.01 8.67 -2.02 8.34 -1 8 C-1.0309375 6.2984375 -1.0309375 6.2984375 -1.0625 4.5625 C-1 1 -1 1 0 0 Z " fill="#676A54" transform="translate(37,37)"/>
</svg>
