<?xml version="1.0" encoding="iso-8859-1"?>
<svg height="128" version="1.1" width="128" xmlns="http://www.w3.org/2000/svg">
	

	<path d="M0 0 C42.24 0 84.48 0 128 0 C128 42.24 128 84.48 128 128 C85.76 128 43.52 128 0 128 C0 85.76 0 43.52 0 0 Z " fill="#6E4815" transform="translate(0,0)"/>
	

	<path d="M0 0 C0.73476562 0.36867188 1.46953125 0.73734375 2.2265625 1.1171875 C6.82722356 3.48167067 6.82722356 3.48167067 8 7 C8.99 7.66 9.98 8.32 11 9 C11 9.66 11 10.32 11 11 C11.78375 11.2475 12.5675 11.495 13.375 11.75 C16.42295608 13.20140766 16.72536664 13.99550707 18 17 C18.474375 17.45375 18.94875 17.9075 19.4375 18.375 C24.72675567 23.8758259 25.99655086 31.56465378 26.00390625 38.890625 C25.94966685 40.30248314 25.88579015 41.71400252 25.8125 43.125 C25.76754395 44.12829346 25.76754395 44.12829346 25.72167969 45.15185547 C25.37408234 50.08263319 24.11278078 53.61478247 22 58 C21.46375 59.11375 20.9275 60.2275 20.375 61.375 C19 64 19 64 18 65 C15.32941149 65.14115161 12.67567762 65.04247107 10 65 C9.505 66.485 9.505 66.485 9 68 C8.34 68 7.68 68 7 68 C6.896875 68.639375 6.79375 69.27875 6.6875 69.9375 C6.460625 70.618125 6.23375 71.29875 6 72 C3 73 3 73 1.17578125 72.22265625 C-0.54947917 71.1484375 -2.27473958 70.07421875 -4 69 C-4.99 70.98 -4.99 70.98 -6 73 C-9.94727588 73.17942163 -12.5980513 73.09350689 -16 71 C-15.979375 72.134375 -15.95875 73.26875 -15.9375 74.4375 C-16 78 -16 78 -17 79 C-23.6 78.4 -23.6 78.4 -26 76 C-26.40047444 73.67724823 -26.7397104 71.34260643 -27 69 C-28.65 69 -30.3 69 -32 69 C-32.33 68.01 -32.66 67.02 -33 66 C-35.97 65.505 -35.97 65.505 -39 65 C-39 64.34 -39 63.68 -39 63 C-40.65 62.34 -42.3 61.68 -44 61 C-44 60.34 -44 59.68 -44 59 C-44.7115625 58.73832031 -45.423125 58.47664063 -46.15625 58.20703125 C-53.30071197 55.17456044 -59.75561865 50.70712088 -65 45 C-67.36182744 43.0414114 -69.73016945 41.18738232 -72.25 39.4375 C-74 38 -74 38 -75 35 C-75.4413121 29.61188711 -75.07424894 25.05598179 -73 20 C-72.34 20 -71.68 20 -71 20 C-70.34 18.35 -69.68 16.7 -69 15 C-68.34 15 -67.68 15 -67 15 C-66.814375 14.4225 -66.62875 13.845 -66.4375 13.25 C-64.6174423 10.40121403 -62.6372378 9.49889069 -59.65625 8.02734375 C-57.66952185 6.95352189 -57.66952185 6.95352189 -56 4 C-54.30078125 3.12109375 -54.30078125 3.12109375 -52.3125 2.4375 C-51.60609375 2.18871094 -50.8996875 1.93992187 -50.171875 1.68359375 C-48.14737128 1.04638485 -46.12084408 0.51458602 -44.0625 0 C-43.051875 -0.33 -42.04125 -0.66 -41 -1 C-40.67 -1.99 -40.34 -2.98 -40 -4 C-28.36558546 -8.49214037 -10.48277817 -6.26104498 0 0 Z " fill="#F2F0EC" transform="translate(85,28)"/>
	

	<path d="M0 0 C8.21358723 6.01848801 14.88057686 12.78525446 17 23 C17.20520232 25.82119655 17.19223644 28.61098371 17.125 31.4375 C17.11597656 32.16904297 17.10695313 32.90058594 17.09765625 33.65429688 C17.07436153 35.43634298 17.0385019 37.21821759 17 39 C16.34 39 15.68 39 15 39 C13.68 33.72 12.36 28.44 11 23 C9.35 23.33 7.7 23.66 6 24 C5.94392578 25.14275391 5.94392578 25.14275391 5.88671875 26.30859375 C5.46151588 32.98678001 4.49614676 38.78318166 2 45 C-0.84198384 42.15801616 -0.37182912 39.95946334 -0.5625 36 C-0.62972745 31.33554482 -0.62972745 31.33554482 -2 27 C-4.02463255 26.34786708 -4.02463255 26.34786708 -6 26 C-6.13277344 26.77085938 -6.26554687 27.54171875 -6.40234375 28.3359375 C-6.57894531 29.33882812 -6.75554687 30.34171875 -6.9375 31.375 C-7.11152344 32.37273437 -7.28554687 33.37046875 -7.46484375 34.3984375 C-8 37 -8 37 -9 39 C-9.66 39 -10.32 39 -11 39 C-11.13277344 38.01257813 -11.26554687 37.02515625 -11.40234375 36.0078125 C-11.57894531 34.72648437 -11.75554687 33.44515625 -11.9375 32.125 C-12.11152344 30.84882812 -12.28554687 29.57265625 -12.46484375 28.2578125 C-12.81433227 25.12440546 -12.81433227 25.12440546 -14 23 C-16.31 23 -18.62 23 -21 23 C-21.33 28.94 -21.66 34.88 -22 41 C-22.99 40.67 -23.98 40.34 -25 40 C-25.33 39.34 -25.66 38.68 -26 38 C-26.969375 37.7525 -27.93875 37.505 -28.9375 37.25 C-34.1796969 35.89891832 -38.46811233 32.86339526 -43 30 C-43.88171875 29.49984375 -44.7634375 28.9996875 -45.671875 28.484375 C-50.45930711 25.4319854 -52.62299029 19.99172039 -55 15 C-50.58421024 8.13099371 -46.96116691 2.80003019 -39 0 C-38.21882813 -0.35191406 -37.43765625 -0.70382813 -36.6328125 -1.06640625 C-24.95848276 -6.03752292 -11.40480947 -5.66626782 0 0 Z " fill="#6E4815" transform="translate(81,42)"/>
	

	<path d="M0 0 C6.46807324 5.57517756 13.00664033 11.42947125 14.34765625 20.29516602 C14.46722277 23.14657847 14.42898622 25.94549599 14.31640625 28.796875 C14.30222656 29.75529297 14.28804688 30.71371094 14.2734375 31.70117188 C14.17550259 36.42489924 13.89333343 40.96677933 12.94140625 45.609375 C14.92140625 46.104375 14.92140625 46.104375 16.94140625 46.609375 C17.422489 45.19335786 17.90118766 43.77653063 18.37890625 42.359375 C18.64574219 41.57046875 18.91257812 40.7815625 19.1875 39.96875 C22.36046101 30.03886166 22.79750137 17.17184522 18.1484375 7.66015625 C14.23306099 0.95077353 14.23306099 0.95077353 7.94140625 -3.390625 C7.19140625 -5.515625 7.19140625 -5.515625 6.94140625 -7.390625 C7.93140625 -7.060625 8.92140625 -6.730625 9.94140625 -6.390625 C9.94140625 -5.730625 9.94140625 -5.070625 9.94140625 -4.390625 C11.11703125 -4.019375 11.11703125 -4.019375 12.31640625 -3.640625 C15.36436233 -2.18921734 15.66677289 -1.39511793 16.94140625 1.609375 C17.41578125 2.063125 17.89015625 2.516875 18.37890625 2.984375 C23.66816192 8.4852009 24.93795711 16.17402878 24.9453125 23.5 C24.8910731 24.91185814 24.8271964 26.32337752 24.75390625 27.734375 C24.7089502 28.73766846 24.7089502 28.73766846 24.66308594 29.76123047 C24.31548859 34.69200819 23.05418703 38.22415747 20.94140625 42.609375 C20.40515625 43.723125 19.86890625 44.836875 19.31640625 45.984375 C17.94140625 48.609375 17.94140625 48.609375 16.94140625 49.609375 C14.27081774 49.75052661 11.61708387 49.65184607 8.94140625 49.609375 C8.61140625 50.599375 8.28140625 51.589375 7.94140625 52.609375 C7.28140625 52.609375 6.62140625 52.609375 5.94140625 52.609375 C5.83828125 53.24875 5.73515625 53.888125 5.62890625 54.546875 C5.40203125 55.2275 5.17515625 55.908125 4.94140625 56.609375 C1.94140625 57.609375 1.94140625 57.609375 0.1171875 56.83203125 C-1.60807292 55.7578125 -3.33333333 54.68359375 -5.05859375 53.609375 C-5.71859375 54.929375 -6.37859375 56.249375 -7.05859375 57.609375 C-11.00586963 57.78879663 -13.65664505 57.70288189 -17.05859375 55.609375 C-17.03796875 56.74375 -17.01734375 57.878125 -16.99609375 59.046875 C-17.05859375 62.609375 -17.05859375 62.609375 -18.05859375 63.609375 C-24.65859375 63.009375 -24.65859375 63.009375 -27.05859375 60.609375 C-27.45906819 58.28662323 -27.79830415 55.95198143 -28.05859375 53.609375 C-29.70859375 53.609375 -31.35859375 53.609375 -33.05859375 53.609375 C-33.38859375 52.619375 -33.71859375 51.629375 -34.05859375 50.609375 C-36.03859375 50.279375 -38.01859375 49.949375 -40.05859375 49.609375 C-40.05859375 48.949375 -40.05859375 48.289375 -40.05859375 47.609375 C-41.70859375 46.949375 -43.35859375 46.289375 -45.05859375 45.609375 C-42.05859375 44.609375 -42.05859375 44.609375 -39.90234375 45.60546875 C-38.7421875 46.31896484 -38.7421875 46.31896484 -37.55859375 47.046875 C-34.08679205 49.21582563 -34.08679205 49.21582563 -30.05859375 49.609375 C-29.84581317 45.14098285 -30.4672129 41.78674974 -32.05859375 37.609375 C-33.45078125 37.5784375 -33.45078125 37.5784375 -34.87109375 37.546875 C-42.64410167 36.45453784 -50.03079676 30.33547712 -55.05859375 24.609375 C-55.66832031 23.97902344 -56.27804688 23.34867188 -56.90625 22.69921875 C-57.55464844 22.00957031 -58.20304687 21.31992188 -58.87109375 20.609375 C-59.47566406 19.97 -60.08023438 19.330625 -60.703125 18.671875 C-62.44921495 16.01500038 -62.60683475 14.73673236 -62.05859375 11.609375 C-54.89692674 0.99949795 -44.20635918 -5.1951613 -31.93359375 -8.140625 C-20.30125058 -9.1521331 -9.37138315 -7.32475924 0 0 Z M-44.05859375 -1.390625 C-44.78691406 -1.11347656 -45.51523437 -0.83632813 -46.265625 -0.55078125 C-52.2238686 1.92137718 -55.64416243 6.23535701 -59.05859375 11.609375 C-59.38859375 12.599375 -59.71859375 13.589375 -60.05859375 14.609375 C-58.35442238 17.54220376 -58.35442238 17.54220376 -56.05859375 20.609375 C-55.16140625 22.15625 -55.16140625 22.15625 -54.24609375 23.734375 C-51.63654576 27.16406664 -48.81108829 28.71476915 -45.05859375 30.609375 C-42.79364788 31.92249971 -40.53125795 33.2399336 -38.26953125 34.55859375 C-36.05607665 35.73227031 -36.05607665 35.73227031 -33.41015625 36.06640625 C-31.05859375 36.609375 -31.05859375 36.609375 -29.05859375 39.609375 C-28.39859375 39.609375 -27.73859375 39.609375 -27.05859375 39.609375 C-26.72859375 33.669375 -26.39859375 27.729375 -26.05859375 21.609375 C-23.74859375 21.609375 -21.43859375 21.609375 -19.05859375 21.609375 C-17.5928996 24.5407633 -17.43773157 27.49569766 -16.99609375 30.734375 C-16.81949219 32.01570313 -16.64289063 33.29703125 -16.4609375 34.6171875 C-16.32816406 35.60460937 -16.19539063 36.59203125 -16.05859375 37.609375 C-15.39859375 37.609375 -14.73859375 37.609375 -14.05859375 37.609375 C-12.02693423 33.27516801 -11.53798743 29.32341288 -11.05859375 24.609375 C-9.12109375 24.984375 -9.12109375 24.984375 -7.05859375 25.609375 C-5.13899013 29.44858223 -5.64137104 34.18829767 -5.4375 38.421875 C-5.38124373 41.69918851 -5.38124373 41.69918851 -3.05859375 43.609375 C-0.26779026 36.65869461 0.57559821 30.06429062 0.94140625 22.609375 C2.59140625 22.279375 4.24140625 21.949375 5.94140625 21.609375 C7.26140625 26.889375 8.58140625 32.169375 9.94140625 37.609375 C10.60140625 37.609375 11.26140625 37.609375 11.94140625 37.609375 C12.50271677 20.91170183 12.50271677 20.91170183 4.19140625 6.796875 C-4.28644025 -1.98725209 -13.29894261 -5.46902106 -25.49609375 -5.828125 C-32.41535766 -5.68164865 -37.81627763 -4.27556015 -44.05859375 -1.390625 Z " fill="#947F5B" transform="translate(86.05859375,43.390625)"/>
	

	

	<path d="M0 0 C0.73476562 0.35707031 1.46953125 0.71414062 2.2265625 1.08203125 C4.99277459 2.46513729 6.72120336 3.33088806 7.9375 6.25 C7.958125 6.8275 7.97875 7.405 8 8 C4.42875412 7.44004856 1.92728981 6.53993467 -1.125 4.625 C-12.19205507 -1.66517133 -24.56701467 -2.93909882 -36.87280273 0.33740234 C-48.09540087 3.70103437 -62.85925028 9.39549245 -69 20 C-71.58899682 24.83279406 -72.60863583 28.52227754 -72 34 C-70.52012037 36.74572728 -70.52012037 36.74572728 -69 39 C-69.33 39.66 -69.66 40.32 -70 41 C-73.875 38.375 -73.875 38.375 -75 35 C-75.4413121 29.61188711 -75.07424894 25.05598179 -73 20 C-72.34 20 -71.68 20 -71 20 C-70.34 18.35 -69.68 16.7 -69 15 C-68.34 15 -67.68 15 -67 15 C-66.814375 14.4225 -66.62875 13.845 -66.4375 13.25 C-64.6174423 10.40121403 -62.6372378 9.49889069 -59.65625 8.02734375 C-57.66952185 6.95352189 -57.66952185 6.95352189 -56 4 C-54.30078125 3.12109375 -54.30078125 3.12109375 -52.3125 2.4375 C-51.60609375 2.18871094 -50.8996875 1.93992187 -50.171875 1.68359375 C-48.14737128 1.04638485 -46.12084408 0.51458602 -44.0625 0 C-43.051875 -0.33 -42.04125 -0.66 -41 -1 C-40.67 -1.99 -40.34 -2.98 -40 -4 C-28.35476328 -8.4963189 -10.4955456 -6.25076009 0 0 Z " fill="#D4CDBE" transform="translate(85,28)"/>
	

	<path d="M0 0 C1.9375 0.5625 1.9375 0.5625 4 2 C5.37735026 8.31140244 5.18361774 14.75459186 5.1875 21.1875 C5.19974609 22.26708984 5.21199219 23.34667969 5.22460938 24.45898438 C5.22750977 26.01649414 5.22750977 26.01649414 5.23046875 27.60546875 C5.23457764 28.54543701 5.23868652 29.48540527 5.24291992 30.45385742 C4.99055982 33.09894642 4.34457972 34.7315005 3 37 C1.68 36.67 0.36 36.34 -1 36 C-1.53580497 34.12922332 -2.05298887 32.2531083 -2.5625 30.375 C-2.85253906 29.33085938 -3.14257812 28.28671875 -3.44140625 27.2109375 C-4.04709844 23.7292663 -3.68258438 21.44748316 -3 18 C-2.89674664 16.66292795 -2.81608559 15.32398563 -2.75390625 13.984375 C-2.70459961 12.94410156 -2.70459961 12.94410156 -2.65429688 11.8828125 C-2.59243461 10.44550194 -2.53523955 9.00798384 -2.48242188 7.5703125 C-2.21674877 2.21674877 -2.21674877 2.21674877 0 0 Z " fill="#EBE9E2" transform="translate(63,67)"/>
	

	

	<path d="M0 0 C1.32 0.33 2.64 0.66 4 1 C5.7389248 10.08105171 5.74900671 19.90516508 4 29 C3.34 29.66 2.68 30.32 2 31 C0 30.875 0 30.875 -2 30 C-5.82285301 24.21974116 -3.4719454 16.47895533 -2.2578125 10.1015625 C-1.53878049 6.72553601 -0.79029364 3.35999058 0 0 Z " fill="#E9E6DE" transform="translate(88,68)"/>
	

	<path d="M0 0 C6.4952372 5.59859163 13.07981619 11.46448015 14.33154297 20.3918457 C14.4308613 23.33557195 14.38048105 26.22949766 14.25390625 29.171875 C14.23134766 30.18056641 14.20878906 31.18925781 14.18554688 32.22851562 C14.12720818 34.69040868 14.04542628 37.14906128 13.94140625 39.609375 C13.61140625 39.609375 13.28140625 39.609375 12.94140625 39.609375 C12.9163501 38.99416992 12.89129395 38.37896484 12.86547852 37.74511719 C12.74922138 34.94967344 12.62662983 32.15454202 12.50390625 29.359375 C12.46458984 28.39128906 12.42527344 27.42320313 12.38476562 26.42578125 C12.34287109 25.49121094 12.30097656 24.55664062 12.2578125 23.59375 C12.20282593 22.30549316 12.20282593 22.30549316 12.14672852 20.99121094 C11.95437111 18.75977357 11.55294381 16.75954976 10.94140625 14.609375 C10.28140625 14.609375 9.62140625 14.609375 8.94140625 14.609375 C7.4609375 12.8515625 7.4609375 12.8515625 5.75390625 10.484375 C-0.97920484 1.7134307 -6.97980228 -2.25176938 -18.05859375 -4.390625 C-28.67568235 -5.46327931 -38.06363485 -4.38726427 -47.05859375 1.609375 C-49.24609375 1.234375 -49.24609375 1.234375 -51.05859375 0.609375 C-35.81408749 -10.62341908 -15.25607997 -11.92429239 0 0 Z " fill="#998663" transform="translate(86.05859375,43.390625)"/>
	

	<path d="M0 0 C2.02305474 1.66582639 2.91456331 2.60753878 3.47998047 5.20483398 C3.62814889 7.94911342 3.77157123 10.69109666 3.875 13.4375 C3.93429688 14.39205078 3.99359375 15.34660156 4.0546875 16.33007812 C4.0959375 17.25111328 4.1371875 18.17214844 4.1796875 19.12109375 C4.21819824 19.9608374 4.25670898 20.80058105 4.29638672 21.66577148 C3.93363326 24.52267906 2.87627454 25.86373006 1 28 C-0.65 27.67 -2.3 27.34 -4 27 C-6.31756591 18.0608172 -3.13711382 8.41316889 0 0 Z " fill="#F0EEE9" transform="translate(77,72)"/>
	

	<path d="M0 0 C1.10214844 0.53560547 1.10214844 0.53560547 2.2265625 1.08203125 C4.99277459 2.46513729 6.72120336 3.33088806 7.9375 6.25 C7.958125 6.8275 7.97875 7.405 8 8 C4.46185146 6.27465566 1.09312665 4.3204219 -2.29296875 2.31640625 C-9.54491229 -1.21015215 -15.96031342 -2.46710936 -24 -2.3125 C-24.83789062 -2.31572266 -25.67578125 -2.31894531 -26.5390625 -2.32226562 C-32.2867221 -2.27333044 -37.42902861 -1.40959054 -43 0 C-42.34 -0.33 -41.68 -0.66 -41 -1 C-40.67 -1.99 -40.34 -2.98 -40 -4 C-28.35476328 -8.4963189 -10.4955456 -6.25076009 0 0 Z " fill="#9C8967" transform="translate(85,28)"/>
	

	<path d="M0 0 C4.55555556 0.55555556 4.55555556 0.55555556 6 2 C6.14115161 4.67058851 6.04247107 7.32432238 6 10 C5.67 10 5.34 10 5 10 C4.67 7.69 4.34 5.38 4 3 C2.68 3 1.36 3 0 3 C-0.09087891 4.52367188 -0.09087891 4.52367188 -0.18359375 6.078125 C-0.6872153 14.39548046 -1.26112979 22.6995006 -2 31 C-4.31 31 -6.62 31 -9 31 C-9.33 30.01 -9.66 29.02 -10 28 C-11.98 27.67 -13.96 27.34 -16 27 C-16 26.34 -16 25.68 -16 25 C-18.475 24.01 -18.475 24.01 -21 23 C-18 22 -18 22 -15.84375 22.99609375 C-15.0703125 23.47175781 -14.296875 23.94742188 -13.5 24.4375 C-10.0281983 26.60645063 -10.0281983 26.60645063 -6 27 C-5.78721942 22.53160785 -6.40861915 19.17737474 -8 15 C-6.68 16.32 -5.36 17.64 -4 19 C-1.77735083 16.77735083 -2.5946319 10.96454427 -2.48242188 7.81445312 C-2.21328125 2.21328125 -2.21328125 2.21328125 0 0 Z " fill="#A9987B" transform="translate(62,66)"/>
	

	<path d="M0 0 C0.33 0 0.66 0 1 0 C1.17890304 4.74093063 0.89525987 8.90868693 -0.0625 13.5625 C-0.96677259 18.10283369 -1.00082156 21.49630297 0 26 C3.04913228 27.01111093 3.04913228 27.01111093 6 26 C5.67 26.99 5.34 27.98 5 29 C2 30 2 30 0.17578125 29.22265625 C-1.54947917 28.1484375 -3.27473958 27.07421875 -5 26 C-5.66 27.32 -6.32 28.64 -7 30 C-8.65 30 -10.3 30 -12 30 C-11.38125 29.731875 -10.7625 29.46375 -10.125 29.1875 C-7.7004767 28.04443152 -7.7004767 28.04443152 -6 25 C-5.72521627 22.77514259 -5.72521627 22.77514259 -5.8046875 20.33203125 C-5.81113281 19.43935547 -5.81757812 18.54667969 -5.82421875 17.62695312 C-5.84935547 16.23379883 -5.84935547 16.23379883 -5.875 14.8125 C-5.88853516 13.40194336 -5.88853516 13.40194336 -5.90234375 11.96289062 C-5.92590944 9.64167032 -5.95880884 7.32096356 -6 5 C-5.67 5 -5.34 5 -5 5 C-4.67 7.97 -4.34 10.94 -4 14 C-2.30942525 10.61885051 -1.54184533 8.3700175 -0.875 4.75 C-0.70742187 3.85796875 -0.53984375 2.9659375 -0.3671875 2.046875 C-0.24601562 1.37140625 -0.12484375 0.6959375 0 0 Z " fill="#AE9F83" transform="translate(86,71)"/>
	

	<path d="M0 0 C0 0.99 0 1.98 0 3 C-1.45235662 4.22129988 -2.90960832 5.43777178 -4.40234375 6.609375 C-9.24636911 10.82569047 -10.80467298 15.31425345 -11.25 21.4375 C-10.98294699 25.24300538 -10.05213832 26.87718082 -8 30 C-8.33 30.66 -8.66 31.32 -9 32 C-12.875 29.375 -12.875 29.375 -14 26 C-14.4413121 20.61188711 -14.07424894 16.05598179 -12 11 C-11.34 11 -10.68 11 -10 11 C-9.34 9.35 -8.68 7.7 -8 6 C-7.34 6 -6.68 6 -6 6 C-5.62875 5.071875 -5.62875 5.071875 -5.25 4.125 C-3.79371361 1.64931313 -2.62187494 1.04874998 0 0 Z " fill="#9B8765" transform="translate(24,37)"/>
	

	<path d="M0 0 C0.66 0.66 1.32 1.32 2 2 C1.27296875 1.84402344 0.5459375 1.68804687 -0.203125 1.52734375 C-9.47457721 -0.26751431 -17.78546105 0.04337376 -27 2 C-27 2.66 -27 3.32 -27 4 C-28.24176695 4.70226141 -29.49385599 5.38629109 -30.75 6.0625 C-31.44609375 6.44535156 -32.1421875 6.82820313 -32.859375 7.22265625 C-35.36140628 8.1312406 -36.5332355 7.88336837 -39 7 C-27.60368164 -1.39728721 -13.633781 -4.58230814 0 0 Z " fill="#AE9F83" transform="translate(74,37)"/>
	

	<path d="M0 0 C3 1 3 1 5.125 4.0625 C9.76862174 14.01056658 8.37062934 26.6554356 6 37 C6.99 37 7.98 37 9 37 C9 37.66 9 38.32 9 39 C7.35 38.67 5.7 38.34 4 38 C4.15726562 37.23171875 4.31453125 36.4634375 4.4765625 35.671875 C6.05999594 24.56420758 7.3138711 11.19347511 1.09375 1.4140625 C0.55234375 0.71410156 0.55234375 0.71410156 0 0 Z " fill="#D4CDBE" transform="translate(94,51)"/>
	

	<path d="M0 0 C2.13586678 3.20380017 2.23132175 4.01939967 2.125 7.6875 C2.10695313 8.49574219 2.08890625 9.30398437 2.0703125 10.13671875 C2.04710938 10.75160156 2.02390625 11.36648437 2 12 C1.67 12 1.34 12 1 12 C0.67 9.36 0.34 6.72 0 4 C-1.65614657 3.61781233 -3.32457024 3.28604898 -5 3 C-7.22264917 5.22264917 -6.4053681 11.03545573 -6.51757812 14.18554688 C-6.78671875 19.78671875 -6.78671875 19.78671875 -9 22 C-9.66 20.68 -10.32 19.36 -11 18 C-10.01 18.33 -9.02 18.66 -8 19 C-8.03480469 17.87980469 -8.06960937 16.75960937 -8.10546875 15.60546875 C-8.13360839 14.13282749 -8.16090837 12.66017002 -8.1875 11.1875 C-8.21263672 10.44951172 -8.23777344 9.71152344 -8.26367188 8.95117188 C-8.337713 3.49680901 -8.337713 3.49680901 -6.6484375 1.01171875 C-4.29001328 -0.43575015 -2.70694863 -0.41645363 0 0 Z " fill="#8A734B" transform="translate(67,64)"/>
	

	

	<path d="M0 0 C3.92362646 1.81393786 7.50126784 4.16138522 11.125 6.5 C11.75792969 6.90347656 12.39085937 7.30695313 13.04296875 7.72265625 C15.56753679 9.34674142 17.87090028 10.87090028 20 13 C12.58432599 13 7.38781333 8.81597245 2 4 C0.67578125 1.73828125 0.67578125 1.73828125 0 0 Z " fill="#9D8A68" transform="translate(21,75)"/>
	

	<path d="M0 0 C2.0625 0.4375 2.0625 0.4375 4 1 C3.01 1.33 2.02 1.66 1 2 C0.01 3.485 0.01 3.485 -1 5 C-2.96303418 6.07074592 -4.9697411 7.06295743 -7 8 C-8.11375 8.556875 -9.2275 9.11375 -10.375 9.6875 C-11.24125 10.120625 -12.1075 10.55375 -13 11 C-13 8 -13 8 -11.5 6 C-8.67804819 3.74243855 -6.10553159 2.74191123 -2.70703125 1.61328125 C-0.99194384 1.13407172 -0.99194384 1.13407172 0 0 Z " fill="#BCAF98" transform="translate(38,28)"/>
	

	<path d="M0 0 C2.04755487 1.67732143 2.91841485 2.60683767 3.46411133 5.23657227 C3.5030249 6.08791748 3.54193848 6.9392627 3.58203125 7.81640625 C3.62650391 8.74517578 3.67097656 9.67394531 3.71679688 10.63085938 C3.74837891 11.59830078 3.77996094 12.56574219 3.8125 13.5625 C3.86341797 14.53380859 3.91433594 15.50511719 3.96679688 16.50585938 C4.1861244 21.85522065 4.1861244 21.85522065 4 24 C3.34 24.66 2.68 25.32 2 26 C1.67 18.74 1.34 11.48 1 4 C0.34 4 -0.32 4 -1 4 C-0.67 2.68 -0.34 1.36 0 0 Z " fill="#D4CDBE" transform="translate(77,72)"/>
	

	<path d="M0 0 C2.625 0.375 2.625 0.375 5 1 C5 4.3 5 7.6 5 11 C4.67 11 4.34 11 4 11 C3.67 9.02 3.34 7.04 3 5 C2.01 4.67 1.02 4.34 0 4 C0 4.99 0 5.98 0 7 C-0.66 7 -1.32 7 -2 7 C-2.125 4.625 -2.125 4.625 -2 2 C-1.34 1.34 -0.68 0.68 0 0 Z " fill="#998562" transform="translate(88,64)"/>
	

	

	

	

	

	

	<path d="M0 0 C2 2 2 2 2.125 5.125 C2.08375 6.07375 2.0425 7.0225 2 8 C0.1875 8.6875 0.1875 8.6875 -2 9 C-3.75 7.5625 -3.75 7.5625 -5 6 C-2.525 6.495 -2.525 6.495 0 7 C0 4.69 0 2.38 0 0 Z " fill="#D4CDBE" transform="translate(55,85)"/>
	

	

	

</svg>
