<?xml version="1.0" encoding="iso-8859-1"?>
<svg height="128" version="1.1" width="128" xmlns="http://www.w3.org/2000/svg">
	

	<path d="M0 0 C42.24 0 84.48 0 128 0 C128 42.24 128 84.48 128 128 C85.76 128 43.52 128 0 128 C0 85.76 0 43.52 0 0 Z " fill="#343334" transform="translate(0,0)"/>
	

	<path d="M0 0 C6.14754311 5.28104964 11.72275916 10.69257307 13.1328125 18.94921875 C13.19465017 22.78315408 12.6849345 25.31922581 11.1953125 28.82421875 C10.3909375 28.94796875 9.5865625 29.07171875 8.7578125 29.19921875 C7.9121875 29.40546875 7.0665625 29.61171875 6.1953125 29.82421875 C5.7003125 30.81421875 5.7003125 30.81421875 5.1953125 31.82421875 C3.2153125 31.32921875 3.2153125 31.32921875 1.1953125 30.82421875 C1.6903125 33.29921875 1.6903125 33.29921875 2.1953125 35.82421875 C-1.00848767 37.96008553 -1.82408717 38.0555405 -5.4921875 37.94921875 C-6.30042969 37.93117187 -7.10867187 37.913125 -7.94140625 37.89453125 C-8.55628906 37.87132812 -9.17117187 37.848125 -9.8046875 37.82421875 C-8.95001709 40.0871961 -8.95001709 40.0871961 -6.3046875 40.82421875 C-3.8046875 41.82421875 -3.8046875 41.82421875 -2.8046875 43.82421875 C0.08868025 45.60376794 2.58598546 46.15280754 5.9453125 46.44921875 C6.74453125 46.52398437 7.54375 46.59875 8.3671875 46.67578125 C8.97046875 46.72476563 9.57375 46.77375 10.1953125 46.82421875 C10.96480485 56.74212013 10.96480485 56.74212013 8.1953125 60.63671875 C4.61468361 62.05405102 2.98788271 61.29609367 -0.60986328 60.3112793 C-4.16667439 59.52197583 -7.61964268 59.70536937 -11.2421875 59.82421875 C-19.19994342 59.95120849 -27.0589419 59.57495926 -34.9921875 58.94921875 C-36.04269287 58.87058594 -37.09319824 58.79195313 -38.17553711 58.7109375 C-43.93714712 58.2308418 -49.23844188 57.38011406 -54.8046875 55.82421875 C-55.76375 55.6128125 -56.7228125 55.40140625 -57.7109375 55.18359375 C-64.27720966 53.64091535 -68.7880516 51.31779309 -73.8046875 46.82421875 C-74.5678125 46.14359375 -75.3309375 45.46296875 -76.1171875 44.76171875 C-77.8046875 42.82421875 -77.8046875 42.82421875 -79.2421875 40.38671875 C-80.71354241 37.66968675 -80.71354241 37.66968675 -83.3671875 35.66015625 C-86.43686406 32.08870564 -86.52167207 29.38347239 -86.3671875 24.88671875 C-86.37814453 24.19642578 -86.38910156 23.50613281 -86.40039062 22.79492188 C-86.32760228 17.67547504 -84.9206305 14.80276744 -81.8046875 10.82421875 C-81.2271875 10.01984375 -80.6496875 9.21546875 -80.0546875 8.38671875 C-58.78435573 -15.83782576 -25.69186173 -19.93087323 0 0 Z " fill="#3B373A" transform="translate(92.8046875,34.17578125)"/>
	

	<path d="M0 0 C3.02940618 1.51470309 3.64960546 3.9403821 5.125 6.9375 C5.66382813 8.01902344 6.20265625 9.10054687 6.7578125 10.21484375 C8 13 8 13 8 15 C9.32 15.33 10.64 15.66 12 16 C11.34 17.98 10.68 19.96 10 22 C10.66 21.67 11.32 21.34 12 21 C12.33 20.01 12.66 19.02 13 18 C14.65 18.33 16.3 18.66 18 19 C18 19.66 18 20.32 18 21 C18.78375 21.226875 19.5675 21.45375 20.375 21.6875 C23.36723882 22.77089682 25.64624665 23.93741996 28.375 25.5 C34.23405467 28.54134136 40.08705058 29.04155401 46.55859375 29.640625 C50 30 50 30 53 31 C58.47284527 31.29972846 58.47284527 31.29972846 63.71508789 30.00219727 C67.24521213 28.92518798 70.10574567 28.74154996 73.7890625 28.734375 C75.06007813 28.73179688 76.33109375 28.72921875 77.640625 28.7265625 C79.61289063 28.73816406 79.61289063 28.73816406 81.625 28.75 C82.96094132 28.74286979 84.2968792 28.7350633 85.6328125 28.7265625 C86.90125 28.72914062 88.1696875 28.73171875 89.4765625 28.734375 C90.63236816 28.73663086 91.78817383 28.73888672 92.97900391 28.74121094 C95.93451856 28.99439063 97.46848177 29.56234767 100 31 C103 31.58333333 103 31.58333333 106 31 C108.20142332 28.5609294 108.20142332 28.5609294 110 26 C110.99 26 111.98 26 113 26 C113 26.66 113 27.32 113 28 C113.66 28 114.32 28 115 28 C115.495 29.485 115.495 29.485 116 31 C116.66 31 117.32 31 118 31 C117.625 33.4375 117.625 33.4375 117 36 C116.01 36.495 116.01 36.495 115 37 C114.773125 37.804375 114.54625 38.60875 114.3125 39.4375 C113 42 113 42 109.375 43.3125 C108.26125 43.539375 107.1475 43.76625 106 44 C106 44.66 106 45.32 106 46 C112.28908482 45.47519999 112.28908482 45.47519999 118 43 C118 43.66 118 44.32 118 45 C115.09907498 46.93395001 114.10325263 47.30131941 110.8125 47.625 C109.554375 47.74875 108.29625 47.8725 107 48 C107 48.66 107 49.32 107 50 C108.93835966 49.93989582 110.87584491 49.85108283 112.8125 49.75 C113.89144531 49.70359375 114.97039062 49.6571875 116.08203125 49.609375 C119.07404996 49.2688227 119.07404996 49.2688227 120.79296875 47.15234375 C121.76908595 45.41175935 122.65027736 43.61816062 123.5 41.8125 C125 39 125 39 128 38 C128 43.94 128 49.88 128 56 C85.76 56 43.52 56 0 56 C0 37.52 0 19.04 0 0 Z " fill="#323232" transform="translate(0,72)"/>
	

	<path d="M0 0 C1.00981934 0.00281982 2.01963867 0.00563965 3.06005859 0.00854492 C13.86152507 0.24177614 24.08329477 3.13154241 32.125 10.75 C32.99125 11.6575 33.8575 12.565 34.75 13.5 C35.62398437 14.34304687 35.62398437 14.34304687 36.515625 15.203125 C39.81806492 18.39455854 42.71660655 21.31360172 44.75 25.5 C44.75 26.16 44.75 26.82 44.75 27.5 C45.41 27.5 46.07 27.5 46.75 27.5 C46.75 30.47 46.75 33.44 46.75 36.5 C42.2907923 36.5 41.49875862 35.69559059 38.30859375 32.85546875 C35.95560894 30.8091386 33.36594067 29.19266749 30.75 27.5 C29.76386719 26.80390625 29.76386719 26.80390625 28.7578125 26.09375 C23.03798072 22.10411645 17.16085866 19.21450772 10.75 16.5 C10.11835937 16.17773438 9.48671875 15.85546875 8.8359375 15.5234375 C-0.05783368 11.33121936 -12.26778125 12.6021698 -21.33203125 15.55078125 C-23.33615465 16.41155453 -23.33615465 16.41155453 -24.82421875 18.10546875 C-26.25 19.5 -26.25 19.5 -29.25 19.5 C-29.25 20.49 -29.25 21.48 -29.25 22.5 C-29.91 22.5 -30.57 22.5 -31.25 22.5 C-31.518125 23.4075 -31.78625 24.315 -32.0625 25.25 C-33.25 28.5 -33.25 28.5 -34.9375 30.625 C-36.46440349 32.40898013 -36.46440349 32.40898013 -36.1875 34.625 C-34.97986449 37.04027102 -33.72128202 37.5433747 -31.25 38.5 C-31.25 39.16 -31.25 39.82 -31.25 40.5 C-30.59 40.5 -29.93 40.5 -29.25 40.5 C-29.25 44.13 -29.25 47.76 -29.25 51.5 C-25.20037909 53.91375505 -25.20037909 53.91375505 -20.625 54.3125 C-18.27960494 53.5982279 -18.27960494 53.5982279 -16.4375 52.4375 C-9.89518296 49.63364984 -1.18263106 52.12624264 5.5625 53.25 C7.20279175 53.51635254 7.20279175 53.51635254 8.8762207 53.78808594 C16.54715864 55.0603336 24.15867814 56.53193976 31.7355957 58.28027344 C35.8346152 59.20512314 39.55643195 59.57730079 43.75 59.5 C44.75 60.5 44.75 60.5 45 63.375 C44.75 66.5 44.75 66.5 43.5 68.4375 C42.9225 68.788125 42.345 69.13875 41.75 69.5 C40.41643748 69.16758477 39.0831689 68.83399037 37.75 68.5 C35.40320623 68.362329 33.05327403 68.2752642 30.703125 68.21875 C30.01426208 68.20034058 29.32539917 68.18193115 28.61566162 68.16296387 C26.41052505 68.10444186 24.20530596 68.05171329 22 68 C13.34502547 67.79099926 4.6925821 67.55667451 -3.953125 67.09375 C-5.84272949 66.99610352 -5.84272949 66.99610352 -7.77050781 66.89648438 C-11.19159473 66.50665522 -14.02607676 65.67358776 -17.25 64.5 C-18.70408385 64.34759602 -20.16386206 64.23910153 -21.625 64.1875 C-28.04114274 63.56100795 -32.85803316 60.41823572 -36.9375 55.5 C-37.700625 54.51 -38.46375 53.52 -39.25 52.5 C-40.178125 51.5925 -41.10625 50.685 -42.0625 49.75 C-44.25 47.5 -44.25 47.5 -44.25 45.5 C-44.91 45.5 -45.57 45.5 -46.25 45.5 C-48.54078952 37.57460722 -47.96488014 28.88464028 -44.25 21.5 C-42.125 18.9375 -42.125 18.9375 -39.25 16.5 C-38.59902344 15.87222656 -37.94804688 15.24445312 -37.27734375 14.59765625 C-32.08061041 9.67588235 -26.89551057 6.17141973 -20.25 3.5 C-19.61610352 3.24105957 -18.98220703 2.98211914 -18.32910156 2.71533203 C-12.18840622 0.41222876 -6.52561272 -0.04065633 0 0 Z " fill="#E3853D" transform="translate(57.25,23.5)"/>
	

	<path d="M0 0 C6.14754311 5.28104964 11.72275916 10.69257307 13.1328125 18.94921875 C13.19516171 22.81486985 12.8141348 25.33097063 11.1953125 28.82421875 C10.2053125 29.31921875 10.2053125 29.31921875 9.1953125 29.82421875 C7.865 28.67953125 7.865 28.67953125 6.5078125 27.51171875 C4.58007327 25.89621898 2.8162931 24.60235373 0.6328125 23.32421875 C-2.3186669 21.50792374 -4.49490628 19.39797496 -6.8046875 16.82421875 C-6.8046875 16.16421875 -6.8046875 15.50421875 -6.8046875 14.82421875 C-7.7121875 14.72109375 -8.6196875 14.61796875 -9.5546875 14.51171875 C-12.8046875 13.82421875 -12.8046875 13.82421875 -14.53125 12.4765625 C-21.70571558 7.26213133 -33.90738142 3.04217888 -42.8046875 3.82421875 C-45.62464802 4.27786457 -48.39873899 4.8619586 -51.1796875 5.51171875 C-51.870625 5.6720459 -52.5615625 5.83237305 -53.2734375 5.99755859 C-57.48750285 7.1099479 -60.24001533 8.2486539 -62.8046875 11.82421875 C-63.74694951 14.77662742 -63.74694951 14.77662742 -64.1171875 17.94921875 C-64.27832031 19.00367188 -64.43945312 20.058125 -64.60546875 21.14453125 C-65.03260095 23.79530446 -65.03260095 23.79530446 -63.8046875 25.82421875 C-63.70856998 27.44690866 -63.67486398 29.07369181 -63.6796875 30.69921875 C-63.67582031 31.99472656 -63.67582031 31.99472656 -63.671875 33.31640625 C-63.79444829 35.63087846 -64.15502305 37.60710991 -64.8046875 39.82421875 C-63.22588795 40.10141256 -61.64115683 40.34496018 -60.0546875 40.57421875 C-59.17296875 40.7134375 -58.29125 40.85265625 -57.3828125 40.99609375 C-54.64723088 41.11528021 -54.64723088 41.11528021 -53.01953125 38.83203125 C-50.50311937 36.55083953 -50.0335183 36.54100236 -46.79296875 36.58203125 C-45.23269166 36.68067521 -43.67384438 36.80425468 -42.1171875 36.94921875 C-40.89563965 37.0411853 -40.89563965 37.0411853 -39.64941406 37.13500977 C-35.03083314 37.51618627 -30.57311688 38.08579834 -26.08984375 39.2890625 C-21.77061198 40.3005749 -17.34021047 40.71973187 -12.94140625 41.26171875 C-10.10064584 41.77114527 -8.28243852 42.42776697 -5.8046875 43.82421875 C-0.49139812 45.59531521 4.64809807 46.34622748 10.1953125 46.82421875 C10.96480485 56.74212013 10.96480485 56.74212013 8.1953125 60.63671875 C4.61468361 62.05405102 2.98788271 61.29609367 -0.60986328 60.3112793 C-4.16667439 59.52197583 -7.61964268 59.70536937 -11.2421875 59.82421875 C-19.19994342 59.95120849 -27.0589419 59.57495926 -34.9921875 58.94921875 C-36.04269287 58.87058594 -37.09319824 58.79195313 -38.17553711 58.7109375 C-43.93714712 58.2308418 -49.23844188 57.38011406 -54.8046875 55.82421875 C-55.76375 55.6128125 -56.7228125 55.40140625 -57.7109375 55.18359375 C-64.27720966 53.64091535 -68.7880516 51.31779309 -73.8046875 46.82421875 C-74.5678125 46.14359375 -75.3309375 45.46296875 -76.1171875 44.76171875 C-77.8046875 42.82421875 -77.8046875 42.82421875 -79.2421875 40.38671875 C-80.71354241 37.66968675 -80.71354241 37.66968675 -83.3671875 35.66015625 C-86.43686406 32.08870564 -86.52167207 29.38347239 -86.3671875 24.88671875 C-86.37814453 24.19642578 -86.38910156 23.50613281 -86.40039062 22.79492188 C-86.32760228 17.67547504 -84.9206305 14.80276744 -81.8046875 10.82421875 C-81.2271875 10.01984375 -80.6496875 9.21546875 -80.0546875 8.38671875 C-58.78435573 -15.83782576 -25.69186173 -19.93087323 0 0 Z M-55.8046875 -7.17578125 C-56.7121875 -6.81097656 -57.6196875 -6.44617188 -58.5546875 -6.0703125 C-64.92809229 -3.00532443 -69.7337856 0.93406187 -74.8046875 5.82421875 C-75.7534375 6.62859375 -76.7021875 7.43296875 -77.6796875 8.26171875 C-83.08678258 14.78203928 -83.47443848 22.64552887 -82.8046875 30.82421875 C-82.50702266 32.16596557 -82.18631864 33.50389812 -81.8046875 34.82421875 C-81.1446875 34.82421875 -80.4846875 34.82421875 -79.8046875 34.82421875 C-79.5778125 35.38109375 -79.3509375 35.93796875 -79.1171875 36.51171875 C-77.43752032 39.47113236 -75.23716898 41.44830661 -72.8046875 43.82421875 C-72.0003125 44.85546875 -71.1959375 45.88671875 -70.3671875 46.94921875 C-65.90840878 51.95175097 -61.60827989 53.12943877 -55.1484375 53.515625 C-52.8046875 53.82421875 -52.8046875 53.82421875 -50.11425781 54.80639648 C-46.48359658 55.92296676 -43.29882684 56.22206573 -39.5078125 56.41796875 C-38.47071136 56.47349915 -38.47071136 56.47349915 -37.41265869 56.53015137 C-28.72335396 56.97202594 -20.02414883 57.17251321 -11.32666016 57.37646484 C-9.16817937 57.42818487 -7.00989101 57.48528879 -4.8515625 57.54296875 C-2.96195801 57.5884082 -2.96195801 57.5884082 -1.03417969 57.63476562 C2.1953125 57.82421875 2.1953125 57.82421875 4.52636719 58.40820312 C5.35249512 58.61413086 5.35249512 58.61413086 6.1953125 58.82421875 C8.08881581 57.84900338 8.08881581 57.84900338 9.1953125 55.82421875 C9.44579886 52.69872858 9.44579886 52.69872858 9.1953125 49.82421875 C6.04668065 48.97022662 2.92447965 48.46635149 -0.3046875 48.01171875 C-6.16128402 47.13553502 -11.94221182 46.01585211 -17.7421875 44.82421875 C-37.11854327 40.03016776 -37.11854327 40.03016776 -55.8046875 43.82421875 C-59.46956635 43.56244169 -61.43058519 42.51126991 -64.8046875 40.82421875 C-64.8046875 37.19421875 -64.8046875 33.56421875 -64.8046875 29.82421875 C-65.4646875 29.82421875 -66.1246875 29.82421875 -66.8046875 29.82421875 C-67.2996875 28.33921875 -67.2996875 28.33921875 -67.8046875 26.82421875 C-69.80485216 25.61539779 -69.80485216 25.61539779 -71.8046875 24.82421875 C-71.33594685 21.89458969 -70.23218397 19.72115624 -68.7421875 17.19921875 C-66.63873166 14.18373397 -66.63873166 14.18373397 -66.8046875 11.82421875 C-66.1446875 11.82421875 -65.4846875 11.82421875 -64.8046875 11.82421875 C-64.8046875 10.83421875 -64.8046875 9.84421875 -64.8046875 8.82421875 C-64.1859375 8.70046875 -63.5671875 8.57671875 -62.9296875 8.44921875 C-60.61347918 7.95224519 -60.61347918 7.95224519 -58.8046875 5.82421875 C-49.80035079 1.61188956 -38.35069032 0.94477124 -28.86328125 3.92578125 C-18.69933109 7.61106955 -9.17899441 13.0166282 -0.8046875 19.82421875 C0.2265625 20.50484375 1.2578125 21.18546875 2.3203125 21.88671875 C4.59594379 23.42029636 6.37543717 24.80213505 8.1953125 26.82421875 C9.1853125 26.49421875 10.1753125 26.16421875 11.1953125 25.82421875 C11.1953125 22.85421875 11.1953125 19.88421875 11.1953125 16.82421875 C10.5353125 16.82421875 9.8753125 16.82421875 9.1953125 16.82421875 C9.0096875 16.16421875 8.8240625 15.50421875 8.6328125 14.82421875 C5.66163289 8.6234961 0.62430117 3.93264261 -4.8046875 -0.17578125 C-5.39894531 -0.81644531 -5.99320312 -1.45710938 -6.60546875 -2.1171875 C-9.0456241 -4.4013116 -11.24898609 -5.53270797 -14.3046875 -6.86328125 C-15.243125 -7.27964844 -16.1815625 -7.69601563 -17.1484375 -8.125 C-23.09943403 -10.47914421 -28.65162568 -10.39381875 -34.9921875 -10.42578125 C-36.49749023 -10.45671875 -36.49749023 -10.45671875 -38.03320312 -10.48828125 C-44.54056594 -10.52215171 -49.79966982 -9.68204906 -55.8046875 -7.17578125 Z " fill="#805436" transform="translate(92.8046875,34.17578125)"/>
	

	<path d="M0 0 C1.05445313 0.33902344 2.10890625 0.67804687 3.1953125 1.02734375 C6.8386081 2.29082649 8.40895654 4.15617181 11 7 C12.20625756 8.16881276 13.41470099 9.33537265 14.625 10.5 C21 16.875 21 16.875 21 21 C21.66 21 22.32 21 23 21 C23 23.97 23 26.94 23 30 C18.54733343 30 17.75148069 29.20850662 14.57421875 26.359375 C12.82884252 24.79111635 12.82884252 24.79111635 9.9375 23 C7 21 7 21 4.75 18.625 C-4.70271237 9.60195638 -17.59809207 4.66903996 -30.5703125 4.84375 C-37.85905089 5.31247916 -46.65286039 6.65286039 -52 12 C-55 12.25 -55 12.25 -58 12 C-58.66 11.34 -59.32 10.68 -60 10 C-44.36790342 -7.14488012 -20.37791389 -9.76010389 0 0 Z " fill="#F7C11B" transform="translate(81,30)"/>
	

	<path d="M0 0 C-0.62759865 2.92879371 -1.58622659 5.36095629 -3 8 C-2.0925 8.0825 -1.185 8.165 -0.25 8.25 C3.42008088 9.09694174 4.69866328 10.07907263 7 13 C7 13.66 7 14.32 7 15 C7.515625 15.2475 8.03125 15.495 8.5625 15.75 C11 17 11 17 13.8125 18.875 C19.59447462 22.26267676 26.53715859 23.43627518 33 25 C33 25.99 33 26.98 33 28 C32.36835937 27.84402344 31.73671875 27.68804687 31.0859375 27.52734375 C24.24784401 26.03951649 18.19793452 26.04498503 11.24609375 26.72265625 C8.55006976 26.95300246 6.06624979 26.96786079 3.375 26.8125 C-0.74787368 27.04154854 -1.28123608 28.09998516 -4 31 C-8.08352528 31.51044066 -10.44493789 30.91544295 -14 29 C-13.98259766 27.57107422 -13.98259766 27.57107422 -13.96484375 26.11328125 C-13.95582031 24.85902344 -13.94679688 23.60476562 -13.9375 22.3125 C-13.92589844 21.07113281 -13.91429688 19.82976562 -13.90234375 18.55078125 C-13.98521327 15.53764546 -14.29160551 12.91724661 -15 10 C-14.34 10 -13.68 10 -13 10 C-12.814375 9.113125 -12.62875 8.22625 -12.4375 7.3125 C-10.13645043 2.01008142 -5.94667259 -2.10884204 0 0 Z " fill="#37474D" transform="translate(42,45)"/>
	

	<path d="M0 0 C0.66 0.103125 1.32 0.20625 2 0.3125 C5.42572738 1.49009379 6.36037719 3.89037053 8 7 C9.51146809 11.5799304 9.43308443 14.13383115 7.25 18.5 C4.60441169 21.21969443 2.28311407 21.44575495 -1.4375 21.5625 C-5.95479932 21.30176997 -9.17839248 20.54773834 -13 18 C-13.886875 17.525625 -14.77375 17.05125 -15.6875 16.5625 C-20.12550318 11.6447127 -21 4.46856912 -21 -2 C-14.20942671 -5.39528664 -5.81246499 -4.64997199 0 0 Z " fill="#672936" transform="translate(82,48)"/>
	

	<path d="M0 0 C7.57613169 4.32921811 7.57613169 4.32921811 11 10 C15.39265207 16.44904597 20.3184667 21.16197209 26.546875 25.859375 C29 28 29 28 32 33 C21.44 33 10.88 33 0 33 C0 22.11 0 11.22 0 0 Z " fill="#6C6D6C" transform="translate(0,95)"/>
	

	<path d="M0 0 C8.91 0 17.82 0 27 0 C26.01 0.495 26.01 0.495 25 1 C24.67 1.99 24.34 2.98 24 4 C23.34 4 22.68 4 22 4 C21.9071875 5.5778125 21.9071875 5.5778125 21.8125 7.1875 C20.83583464 11.77031438 19.53478392 13.01507135 16 16 C15.50886719 16.44472656 15.01773437 16.88945312 14.51171875 17.34765625 C12.20086127 19.39578058 10.21930748 20.91839722 7.3125 22 C4.25670819 23.32142348 3.57431496 25.15123959 2 28 C1.34 28 0.68 28 0 28 C0 18.76 0 9.52 0 0 Z " fill="#24272C" transform="translate(0,0)"/>
	

	<path d="M0 0 C-1.625 0.75 -1.625 0.75 -4 1 C-6.035098 -0.27912233 -8.03014116 -1.62252625 -10 -3 C-21.50387679 -8.56968041 -31.82502282 -11.24476393 -44.375 -8.3125 C-45.0659375 -8.15217285 -45.756875 -7.9918457 -46.46875 -7.82666016 C-50.68281535 -6.71427085 -53.43532783 -5.57556485 -56 -2 C-56.94226201 0.95240867 -56.94226201 0.95240867 -57.3125 4.125 C-57.55419922 5.70667969 -57.55419922 5.70667969 -57.80078125 7.3203125 C-58.22791345 9.97108571 -58.22791345 9.97108571 -57 12 C-56.90388248 13.62268991 -56.87017648 15.24947306 -56.875 16.875 C-56.87242188 17.73867187 -56.86984375 18.60234375 -56.8671875 19.4921875 C-56.98976079 21.80665971 -57.35033555 23.78289116 -58 26 C-56.42120045 26.27719381 -54.83646933 26.52074143 -53.25 26.75 C-52.36828125 26.88921875 -51.4865625 27.0284375 -50.578125 27.171875 C-47.84254338 27.29106146 -47.84254338 27.29106146 -46.21484375 25.0078125 C-43.69843187 22.72662078 -43.2288308 22.71678361 -39.98828125 22.7578125 C-38.42800416 22.85645646 -36.86915688 22.98003593 -35.3125 23.125 C-34.09095215 23.21696655 -34.09095215 23.21696655 -32.84472656 23.31079102 C-28.22614564 23.69196752 -23.76842938 24.26157959 -19.28515625 25.46484375 C-14.96592448 26.47635615 -10.53552297 26.89551312 -6.13671875 27.4375 C-3.29741424 27.94666544 -1.49078188 28.63742786 1 30 C2.99110401 30.38290462 4.99100513 30.72604615 7 31 C7 31.33 7 31.66 7 32 C2.76313551 32.27631725 -0.46425788 31.9679978 -4.5 30.625 C-10.13968411 28.78559534 -15.81557968 28.11604098 -21.6796875 27.4296875 C-25 27 -25 27 -27.05078125 26.46875 C-32.35503003 25.19317915 -39.30742226 24.60891343 -44.23046875 27.15234375 C-45.82793957 28.42538341 -47.41464719 29.71190084 -49 31 C-51.625 31 -51.625 31 -54 30 C-54.928125 29.67 -55.85625 29.34 -56.8125 29 C-59 27 -59 27 -59.34765625 24.87109375 C-59.41552198 18.83104396 -59.41552198 18.83104396 -58 16 C-58.66 16 -59.32 16 -60 16 C-60.33 15.34 -60.66 14.68 -61 14 C-62.64142963 12.9590934 -64.30712215 11.95495674 -66 11 C-65.34215037 7.70319035 -64.10579427 5.15882078 -62.4375 2.25 C-61.75494141 1.05117188 -61.75494141 1.05117188 -61.05859375 -0.171875 C-60.70925781 -0.77515625 -60.35992187 -1.3784375 -60 -2 C-59.34 -2 -58.68 -2 -58 -2 C-58 -2.99 -58 -3.98 -58 -5 C-38.65791643 -19.06696987 -18.27147944 -10.71217713 0 0 Z " fill="#825636" transform="translate(86,48)"/>
	

	<path d="M0 0 C2.2060176 0.36643581 4.31540745 0.85927111 6.4765625 1.4296875 C11.10045974 2.47471691 15.84158469 2.89532663 20.546875 3.4375 C24 4 24 4 26.40234375 4.9921875 C30.12659991 6.43708688 33.85730444 6.72052904 37.8125 7.125 C38.60076172 7.21136719 39.38902344 7.29773438 40.20117188 7.38671875 C42.13343084 7.59751064 44.06663263 7.79962896 46 8 C46.76949235 17.91790138 46.76949235 17.91790138 44 21.8125 C40.41937111 23.22983227 38.79257021 22.47187492 35.19482422 21.48706055 C31.63801311 20.69775708 28.18504482 20.88115062 24.5625 21 C16.60474408 21.12698974 8.7457456 20.75074051 0.8125 20.125 C-0.23800537 20.04636719 -1.28851074 19.96773437 -2.37084961 19.88671875 C-9.47608949 19.29466287 -16.71385043 18.66692058 -23 15 C-23 14.67 -23 14.34 -23 14 C-19.7702986 13.8462047 -17.31414462 13.88930884 -14.24511719 14.97070312 C-10.63654233 16.11528269 -7.48144717 16.39850286 -3.703125 16.59375 C-3.01172424 16.63077026 -2.32032349 16.66779053 -1.60797119 16.70593262 C7.08133354 17.14780719 15.78053867 17.34829446 24.47802734 17.55224609 C26.63650813 17.60396612 28.79479649 17.66107004 30.953125 17.71875 C32.21286133 17.74904297 33.47259766 17.77933594 34.77050781 17.81054688 C38 18 38 18 40.31542969 18.64257812 C40.87133789 18.76052734 41.42724609 18.87847656 42 19 C44.34973818 17.10244856 44.34973818 17.10244856 44.125 13.875 C44.08375 12.92625 44.0425 11.9775 44 11 C42.18048828 10.82791016 42.18048828 10.82791016 40.32421875 10.65234375 C34.09147013 9.95927477 27.96785637 8.74350194 21.8125 7.5625 C3.04948227 3.83550581 3.04948227 3.83550581 -16 3 C-12.21403277 -2.01706846 -5.65392916 -0.39152796 0 0 Z " fill="#BB6A3A" transform="translate(57,73)"/>
	

	<path d="M0 0 C5.94 0 11.88 0 18 0 C18 6.27 18 12.54 18 19 C12.28491846 18.04748641 10.43688537 17.27943701 6 14 C5.2575 13.566875 4.515 13.13375 3.75 12.6875 C1.12539037 10.15662643 0.73831602 7.50700107 0 4 C0 2.68 0 1.36 0 0 Z " fill="#C1C1BF" transform="translate(110,0)"/>
	

	<path d="M0 0 C4.18988591 -0.27325343 7.33855174 0.00443552 11.3125 1.375 C17.11274083 3.28439605 22.96953308 3.79145154 29.01879883 4.35302734 C34.91017596 4.91017596 34.91017596 4.91017596 36 6 C43.86026704 7.08859095 51.72587875 7.32910042 59.6484375 7.60546875 C64.83798679 7.80453876 69.87678538 8.13895553 75 9 C74.34 9.99 73.68 10.98 73 12 C71.824375 11.855625 70.64875 11.71125 69.4375 11.5625 C68.34695312 11.42908203 68.34695312 11.42908203 67.234375 11.29296875 C65.21295855 11.02792289 63.19936397 10.70481377 61.1875 10.375 C57.98402749 9.76926465 57.98402749 9.76926465 55 11 C52.15449039 11.12434646 49.34559005 11.19039952 46.5 11.1875 C45.6848291 11.18669434 44.8696582 11.18588867 44.02978516 11.18505859 C38.81705888 11.13227935 33.9439517 10.69587815 28.84375 9.5625 C25.90451727 8.98111331 22.9758074 8.65297533 19.99682617 8.34741211 C6.36940946 6.91897158 6.36940946 6.91897158 1 3 C0.67 2.01 0.34 1.02 0 0 Z " fill="#24272C" transform="translate(27,89)"/>
	

	<path d="M0 0 C5.60999449 1.35999867 8.69884725 5.55025029 12 10 C13.4375 13 13.4375 13 14 15 C14.66 15 15.32 15 16 15 C16 17.97 16 20.94 16 24 C11.54733343 24 10.75148069 23.20850662 7.57421875 20.359375 C5.82884252 18.79111635 5.82884252 18.79111635 2.9375 17 C0 15 0 15 -2.25 12.625 C-5.53134291 9.49280904 -9.05639911 7.46148488 -12.98828125 5.234375 C-13.65214844 4.82703125 -14.31601563 4.4196875 -15 4 C-15 3.67 -15 3.34 -15 3 C-11.625 2.875 -11.625 2.875 -8 3 C-7.34 3.66 -6.68 4.32 -6 5 C-5.22269531 5.28875 -4.44539063 5.5775 -3.64453125 5.875 C-0.63373421 7.15581174 1.03611717 8.66788651 3.3125 11 C4.00988281 11.70125 4.70726563 12.4025 5.42578125 13.125 C7 15 7 15 7 17 C8.32 17 9.64 17 11 17 C9.58990208 12.68448055 7.49057376 10.08137977 4.375 6.8125 C0 2.20977918 0 2.20977918 0 0 Z " fill="#E5CA35" transform="translate(88,36)"/>
	

	<path d="M0 0 C2.64 0 5.28 0 8 0 C8.11214844 0.72445313 8.22429687 1.44890625 8.33984375 2.1953125 C9.47542148 7.76186999 10.47481421 11.29665488 15.3125 14.5625 C18.7441331 16.50821354 22.16411426 18.01643955 26 19 C26 22.63 26 26.26 26 30 C25.01 30 24.02 30 23 30 C22.443125 28.88625 21.88625 27.7725 21.3125 26.625 C19.36235567 23.16887232 17.82457741 22.20776129 14 21 C13.34 20.01 12.68 19.02 12 18 C11.01 17.67 10.02 17.34 9 17 C8.3162955 15.67532254 7.65035814 14.34136367 7 13 C6.01 12.34 5.02 11.68 4 11 C3.8125 7.875 3.8125 7.875 4 5 C2.68 4.34 1.36 3.68 0 3 C0 2.01 0 1.02 0 0 Z " fill="#23262C" transform="translate(102,0)"/>
	

	<path d="M0 0 C3.88578637 1.29526212 5.15176378 3.70404327 7.375 6.9375 C10.36726643 11.2510937 12.09322329 13.26375593 17 15 C19.640625 17.05859375 19.640625 17.05859375 22.25 19.4375 C23.12140625 20.21996094 23.9928125 21.00242187 24.890625 21.80859375 C27 24 27 24 28 27 C25.69 27 23.38 27 21 27 C21 26.34 21 25.68 21 25 C20.01 24.67 19.02 24.34 18 24 C17.4225 23.401875 16.845 22.80375 16.25 22.1875 C14.01000695 19.79906979 14.01000695 19.79906979 10.625 18.25 C5.68254654 15.58704016 2.47839767 10.95679534 0 6 C-0.039992 4.00039988 -0.04346799 1.99952758 0 0 Z " fill="#8B8C8A" transform="translate(4,101)"/>
	

	<path d="M0 0 C0.99 0.33 1.98 0.66 3 1 C2.67 1.66 2.34 2.32 2 3 C1.34 3 0.68 3 0 3 C-2.11960334 9.15694305 -3.58351721 14.46460727 -3 21 C-2.34 21.66 -1.68 22.32 -1 23 C-0.5859375 25.6015625 -0.5859375 25.6015625 -0.375 28.625 C-0.30023437 29.62789062 -0.22546875 30.63078125 -0.1484375 31.6640625 C-0.09945313 32.43492188 -0.05046875 33.20578125 0 34 C-3 34 -3 34 -5.640625 32.15234375 C-8.9938926 27.67206734 -8.81036505 24.02176415 -8.75 18.5625 C-8.78609375 17.63373047 -8.8221875 16.70496094 -8.859375 15.74804688 C-8.859375 9.05025848 -8.859375 9.05025848 -6.42382812 6.07373047 C-4.515625 4.46484375 -4.515625 4.46484375 -2.60253906 3.13647461 C-0.84243946 2.07728335 -0.84243946 2.07728335 0 0 Z " fill="#37484E" transform="translate(8,41)"/>
	

	<path d="M0 0 C3.3 0 6.6 0 10 0 C11.72053028 3.44106055 11.38418032 7.22982365 11 11 C9.8410416 13.41869578 8.87677904 15.12322096 7 17 C5.64627297 16.90436838 4.29695926 16.74398028 2.953125 16.5546875 C-0.77300911 16.09516032 -4.32671911 15.96053115 -8.07373047 16.06542969 C-17.40068217 16.32073328 -26.594998 15.65950186 -35.875 14.75 C-37.07415039 14.64059082 -38.27330078 14.53118164 -39.50878906 14.41845703 C-47.71636608 13.55836806 -55.20660048 11.7010201 -63 9 C-59.26416016 7.89111328 -59.26416016 7.89111328 -56.88671875 8.87109375 C-52.627467 10.53675512 -48.34626109 10.69507045 -43.8125 11.0625 C-42.00649079 11.21982694 -40.20050112 11.37737838 -38.39453125 11.53515625 C-37.49734375 11.61000244 -36.60015625 11.68484863 -35.67578125 11.76196289 C-33.0872287 11.99224015 -30.50846044 12.27461374 -27.92578125 12.5625 C-22.26009525 13.13940031 -16.65418915 13.02533542 -10.96875 12.87304688 C-6.93292988 12.81681004 -3.54296569 13.02199143 0.3359375 14.19140625 C3.85487324 15.33541793 3.85487324 15.33541793 6.453125 13.98046875 C8.48725631 11.37616427 8.59569913 9.59139359 8.75 6.3125 C8.83507812 4.82169922 8.83507812 4.82169922 8.921875 3.30078125 C8.94765625 2.54152344 8.9734375 1.78226562 9 1 C6.03 1 3.06 1 0 1 C0 0.67 0 0.34 0 0 Z " fill="#6D3B36" transform="translate(94,80)"/>
	

	<path d="M0 0 C0.33 0 0.66 0 1 0 C0.98839844 0.62648437 0.97679687 1.25296875 0.96484375 1.8984375 C0.95582031 2.71570312 0.94679688 3.53296875 0.9375 4.375 C0.92589844 5.18710937 0.91429687 5.99921875 0.90234375 6.8359375 C0.85533666 9.04937142 0.85533666 9.04937142 2 11 C2.09611752 12.62268991 2.12982352 14.24947306 2.125 15.875 C2.12757812 16.73867187 2.13015625 17.60234375 2.1328125 18.4921875 C2.01023921 20.80665971 1.64966445 22.78289116 1 25 C2.57879955 25.27719381 4.16353067 25.52074143 5.75 25.75 C6.63171875 25.88921875 7.5134375 26.0284375 8.421875 26.171875 C11.15745662 26.29106146 11.15745662 26.29106146 12.78515625 24.0078125 C15.30156813 21.72662078 15.7711692 21.71678361 19.01171875 21.7578125 C20.57199584 21.85645646 22.13084312 21.98003593 23.6875 22.125 C24.50186523 22.18631104 25.31623047 22.24762207 26.15527344 22.31079102 C30.77385436 22.69196752 35.23157062 23.26157959 39.71484375 24.46484375 C44.03407552 25.47635615 48.46447703 25.89551312 52.86328125 26.4375 C55.70258576 26.94666544 57.50921812 27.63742786 60 29 C61.99110401 29.38290462 63.99100513 29.72604615 66 30 C66 30.33 66 30.66 66 31 C61.76313551 31.27631725 58.53574212 30.9679978 54.5 29.625 C48.86031589 27.78559534 43.18442032 27.11604098 37.3203125 26.4296875 C34 26 34 26 31.94921875 25.46875 C26.64496997 24.19317915 19.69257774 23.60891343 14.76953125 26.15234375 C13.17206043 27.42538341 11.58535281 28.71190084 10 30 C6.05744859 30 3.07007884 28.42561601 0 26 C-0.41796875 22.8203125 -0.41796875 22.8203125 -0.1875 19.125 C0.08185449 14.33760517 -0.16796944 11.38939566 -2 7 C-1.125 3.1875 -1.125 3.1875 0 0 Z " fill="#784E36" transform="translate(27,49)"/>
	

	<path d="M0 0 C4.63730779 1.54576926 7.02710087 5.35030148 9.4375 9.4375 C13.1242301 15.48373736 18.01164274 20.06008966 23.4609375 24.51953125 C23.96882813 25.00808594 24.47671875 25.49664062 25 26 C25 26.66 25 27.32 25 28 C25.99 28.33 26.98 28.66 28 29 C28 29.99 28 30.98 28 32 C25.83125748 31.49396008 24.00032373 31.00016187 22 30 C22 29.34 22 28.68 22 28 C21.01 27.67 20.02 27.34 19 27 C19 26.34 19 25.68 19 25 C18.24847656 24.75636719 17.49695313 24.51273438 16.72265625 24.26171875 C10.09691445 21.19125304 6.39873924 13.19056075 3 7 C2.4225 6.2575 1.845 5.515 1.25 4.75 C0 3 0 3 0 0 Z " fill="#23262C" transform="translate(5,91)"/>
	

	<path d="M0 0 C2.3125 0.1875 2.3125 0.1875 5 1 C6.9205628 3.36869412 8 4.91027479 8 8 C6.45914822 11.08170356 4.71604603 12.88751975 2 15 C-1.3125 14.8125 -1.3125 14.8125 -4 14 C-4.33 13.01 -4.66 12.02 -5 11 C-8.00847418 9.77479736 -8.00847418 9.77479736 -11 9 C-11 8.34 -11 7.68 -11 7 C-10.06027344 6.90912109 -10.06027344 6.90912109 -9.1015625 6.81640625 C-7.87566406 6.69072266 -7.87566406 6.69072266 -6.625 6.5625 C-5.81289062 6.48128906 -5.00078125 6.40007812 -4.1640625 6.31640625 C-1.95727195 6.10909886 -1.95727195 6.10909886 0 5 C0 3.35 0 1.7 0 0 Z " fill="#37484E" transform="translate(94,65)"/>
	

	<path d="M0 0 C-0.33 0.99 -0.66 1.98 -1 3 C-1.66 3 -2.32 3 -3 3 C-3 3.99 -3 4.98 -3 6 C-2.01 6.33 -1.02 6.66 0 7 C-0.99 7.33 -1.98 7.66 -3 8 C-3.70394612 9.31403276 -4.36345658 10.6520257 -5 12 C-6.31866272 13.678298 -7.65080468 15.34614767 -9 17 C-10.41634833 19.83269666 -10.3463005 22.47466438 -10.5625 25.625 C-10.64628906 26.81351563 -10.73007813 28.00203125 -10.81640625 29.2265625 C-10.87699219 30.14179687 -10.93757812 31.05703125 -11 32 C-11.99 31.34 -12.98 30.68 -14 30 C-14.85265745 23.17874043 -12.82461803 18.15363213 -10 12 C-9.34 12 -8.68 12 -8 12 C-8 11.34 -8 10.68 -8 10 C-8.66 9.67 -9.32 9.34 -10 9 C-10.33 9.99 -10.66 10.98 -11 12 C-13.4375 14.6875 -13.4375 14.6875 -16 17 C-16.66 17 -17.32 17 -18 17 C-18 16.34 -18 15.68 -18 15 C-17.34 15 -16.68 15 -16 15 C-15.7525 14.278125 -15.505 13.55625 -15.25 12.8125 C-12.75305663 7.19437742 -6.77663307 0 0 0 Z " fill="#3C383A" transform="translate(18,32)"/>
	

	<path d="M0 0 C1.65 0 3.3 0 5 0 C5.33 0.66 5.66 1.32 6 2 C6.969375 2.474375 7.93875 2.94875 8.9375 3.4375 C12 5 12 5 14 8 C14.0625 10 14.0625 10 13 12 C9.4375 13.75 9.4375 13.75 6 15 C4.4375 14 4.4375 14 3 12 C3.03273548 9.23385218 3.50595672 6.73969453 4 4 C2.68 4 1.36 4 0 4 C0 2.68 0 1.36 0 0 Z " fill="#747574" transform="translate(0,0)"/>
	

	<path d="M0 0 C0.495 0.99 0.495 0.99 1 2 C-6.75 2.125 -6.75 2.125 -9 1 C-19.14759101 0.05434636 -29.90193197 1.47655631 -38 8 C-37.76408775 4.81518469 -36.77584347 3.75860066 -34.5625 1.375 C-25.36264852 -5.76092298 -10.12818731 -4.00715941 0 0 Z " fill="#23262C" transform="translate(68,42)"/>
	

	<path d="M0 0 C1.32 0 2.64 0 4 0 C4.33 1.32 4.66 2.64 5 4 C5.639375 4.103125 6.27875 4.20625 6.9375 4.3125 C7.618125 4.539375 8.29875 4.76625 9 5 C9.33 5.99 9.66 6.98 10 8 C10.99 8.66 11.98 9.32 13 10 C17.10807901 16.07995694 18.46073496 20.74342442 18 28 C17 30.5 17 30.5 16 32 C15.67 32 15.34 32 15 32 C14.93683594 31.01 14.87367187 30.02 14.80859375 29 C14.07484352 20.32680861 12.60353882 14.98830228 6 9 C4.83486702 7.72571513 3.68773204 6.4346525 2.5625 5.125 C1.82193359 4.29355469 1.82193359 4.29355469 1.06640625 3.4453125 C0 2 0 2 0 0 Z " fill="#25272D" transform="translate(92,31)"/>
	

	<path d="M0 0 C3.24986465 -0.15475546 5.72288761 -0.09518688 8.81884766 0.96826172 C12.06933301 2.02248667 14.87201771 2.39707053 18.2734375 2.6328125 C20.00400391 2.75849609 20.00400391 2.75849609 21.76953125 2.88671875 C22.95933594 2.96535156 24.14914063 3.04398437 25.375 3.125 C26.58800781 3.21136719 27.80101563 3.29773438 29.05078125 3.38671875 C32.03344009 3.59808827 35.01641038 3.80228076 38 4 C38 4.66 38 5.32 38 6 C39.2375 5.835 40.475 5.67 41.75 5.5 C47.4525566 4.87444133 53.27825962 4.47334995 59 5 C59.66 5.66 60.32 6.32 61 7 C48.46079514 7.2203131 36.00785561 7.11184631 23.5 6.125 C21.95421265 6.00729248 21.95421265 6.00729248 20.37719727 5.88720703 C13.36378057 5.2866663 6.20164332 4.61762527 0 1 C0 0.67 0 0.34 0 0 Z " fill="#AC6639" transform="translate(34,87)"/>
	

	<path d="M0 0 C0.33 0 0.66 0 1 0 C1 4.95 1 9.9 1 15 C-4.28 15 -9.56 15 -15 15 C-11 11 -11 11 -8.0625 9.75 C-4.31811058 7.6103489 -3.03885877 5.34163953 -0.98046875 1.64453125 C-0.65691406 1.10183594 -0.33335938 0.55914062 0 0 Z " fill="#F3F3F3" transform="translate(127,113)"/>
	

	

	

	<path d="M0 0 C4.31872236 0.47985804 6.25359996 2.7847024 9 6 C10.31786355 8.2292832 11.53299226 10.4994636 12.75 12.78515625 C15.59792891 17.8313303 18.89553045 21.17910893 24 24 C25.8125 25.5625 25.8125 25.5625 27 27 C27 27.66 27 28.32 27 29 C18.90834383 25.34688209 13.32239811 18.6110272 8.60546875 11.296875 C6.15580272 7.79224331 3.55311794 5.36874529 0 3 C0 2.01 0 1.02 0 0 Z " fill="#373D40" transform="translate(0,92)"/>
	

	<path d="M0 0 C3.9652407 -0.02497729 7.93045005 -0.0429894 11.89575195 -0.05493164 C13.89731458 -0.06235104 15.89885533 -0.07506659 17.90039062 -0.08789062 C28.85128213 -0.11547473 28.85128213 -0.11547473 34.19140625 0.56640625 C37.48907552 0.94183321 38.97302245 0.90553478 42 0 C41.8125 2.875 41.8125 2.875 41 6 C38.625 7.5 38.625 7.5 36 8 C35.01 7.34 34.02 6.68 33 6 C34.65 5.34 36.3 4.68 38 4 C32.25613025 2.82578472 26.52704534 2.70200862 20.6875 2.5 C13.74089253 2.25689125 6.89994184 1.85802386 0 1 C0 0.67 0 0.34 0 0 Z " fill="#343333" transform="translate(63,95)"/>
	

	

	<path d="M0 0 C2.9375 0.125 2.9375 0.125 6 1 C8.02021295 4.30580301 8.21811297 7.18302301 8 11 C6.68 11.33 5.36 11.66 4 12 C2.96409662 10.93106782 1.94666058 9.84421512 0.9375 8.75 C0.36902344 8.14671875 -0.19945313 7.5434375 -0.78515625 6.921875 C-2 5 -2 5 -1.74609375 2.828125 C-1 1 -1 1 0 0 Z " fill="#F1F1F1" transform="translate(116,3)"/>
	

	<path d="M0 0 C2.33294775 -0.04241723 4.66702567 -0.04092937 7 0 C8.56918492 1.56918492 8.28258943 3.14085159 8.375 5.3125 C8.34532935 9.03319937 8.26218371 9.70238606 5.6875 12.625 C4.800625 13.07875 3.91375 13.5325 3 14 C2.01 13.67 1.02 13.34 0 13 C0 12.34 0 11.68 0 11 C-7.59 11 -15.18 11 -23 11 C-23 10.34 -23 9.68 -23 9 C-19.2500163 8.97094076 -15.50006163 8.95318126 -11.75 8.9375 C-10.15478516 8.92493164 -10.15478516 8.92493164 -8.52734375 8.91210938 C-7.50253906 8.90888672 -6.47773437 8.90566406 -5.421875 8.90234375 C-4.47924805 8.89710693 -3.53662109 8.89187012 -2.56542969 8.88647461 C0 9 0 9 2.21386719 9.63110352 C2.80329102 9.75283936 3.39271484 9.8745752 4 10 C6.34973818 8.10244856 6.34973818 8.10244856 6.125 4.875 C6.08375 3.92625 6.0425 2.9775 6 2 C4.02 2 2.04 2 0 2 C0 1.34 0 0.68 0 0 Z " fill="#C86D3C" transform="translate(95,82)"/>
	

	<path d="M0 0 C3.41669934 3.52691545 4.65400882 6.22393393 5.04296875 11 C4.97922219 13.96711273 4.24044308 16.3232544 3 19 C2.34 19.33 1.68 19.66 1 20 C0.113125 19.236875 -0.77375 18.47375 -1.6875 17.6875 C-3.61523923 16.07200023 -5.3790194 14.77813498 -7.5625 13.5 C-10.48950326 11.69876723 -12.64596637 9.48854984 -15 7 C-14.67 6.34 -14.34 5.68 -14 5 C-13.29875 5.5775 -12.5975 6.155 -11.875 6.75 C-9.0163898 9.04943731 -9.0163898 9.04943731 -5.875 11.0625 C-3.58286495 12.60719971 -1.92490275 14.07509725 0 16 C0.66 16 1.32 16 2 16 C2.05447047 14.58376784 2.09300508 13.16691809 2.125 11.75 C2.14820312 10.96109375 2.17140625 10.1721875 2.1953125 9.359375 C1.98123653 6.77333728 1.19312703 5.27351764 0 3 C0 2.01 0 1.02 0 0 Z " fill="#7E5136" transform="translate(101,44)"/>
	

	<path d="M0 0 C4.89043849 -0.23663412 8.85481445 -0.21330228 13.5 1.375 C20.76344927 3.80767904 28.41632684 4.25219 36 5 C35.67 5.66 35.34 6.32 35 7 C26.05571013 7.58051881 17.70163476 5.81374025 9 4 C9 3.34 9 2.68 9 2 C6.03 1.67 3.06 1.34 0 1 C0 0.67 0 0.34 0 0 Z " fill="#AD6639" transform="translate(67,76)"/>
	

	<path d="M0 0 C1.32 0 2.64 0 4 0 C4 3.3 4 6.6 4 10 C6.64 9.67 9.28 9.34 12 9 C9.63907689 11.73370045 7.43461272 12.91097645 4 14 C2.68 14 1.36 14 0 14 C0 9.38 0 4.76 0 0 Z " fill="#373D40" transform="translate(0,4)"/>
	

	<path d="M0 0 C1.32 0 2.64 0 4 0 C3.91878906 0.58007812 3.83757812 1.16015625 3.75390625 1.7578125 C3.46378382 5.3458573 3.25728235 7.94257148 5.3828125 10.96875 C8.20734799 13.56096439 9.89948652 15.02445586 13.8125 14.9375 C15.22614726 14.33165117 16.62436883 13.68781558 18 13 C18 14.98 18 16.96 18 19 C12.96762395 18.52072609 10.04289309 16.98822533 6 14 C5.2575 13.566875 4.515 13.13375 3.75 12.6875 C1.12539037 10.15662643 0.73831602 7.50700107 0 4 C0 2.68 0 1.36 0 0 Z " fill="#7C7D7B" transform="translate(110,0)"/>
	

	<path d="M0 0 C0.66 0 1.32 0 2 0 C1.74863281 1.24716797 1.74863281 1.24716797 1.4921875 2.51953125 C1.18667969 4.14955078 1.18667969 4.14955078 0.875 5.8125 C0.66617187 6.89144531 0.45734375 7.97039063 0.2421875 9.08203125 C-0.32039897 12.19282519 -0.32039897 12.19282519 2 15 C2 15.99 2 16.98 2 18 C1.34 18 0.68 18 0 18 C-0.33 17.34 -0.66 16.68 -1 16 C-2.64142963 14.9590934 -4.30712215 13.95495674 -6 13 C-5.34215037 9.70319035 -4.10579427 7.15882078 -2.4375 4.25 C-1.98246094 3.45078125 -1.52742188 2.6515625 -1.05859375 1.828125 C-0.53458984 0.92320313 -0.53458984 0.92320313 0 0 Z " fill="#AC6639" transform="translate(26,46)"/>
	

	<path d="M0 0 C0.66 0 1.32 0 2 0 C0.88324735 5.64794442 -2.29596815 11.05647711 -7 14.4375 C-10.54488452 16.26365263 -14.01929399 17.50241175 -18 18 C-17.30078125 16.10546875 -17.30078125 16.10546875 -16 14 C-13.79296875 13.05078125 -13.79296875 13.05078125 -11.1875 12.3125 C-6.87509167 10.76701262 -5.11321133 9.35676342 -2.9375 5.3125 C-2.27903248 3.88074322 -1.62996504 2.44452449 -1 1 C-0.67 0.67 -0.34 0.34 0 0 Z " fill="#7C7D7C" transform="translate(126,110)"/>
	

	<path d="M0 0 C0.66 0 1.32 0 2 0 C2.39253254 4.44870215 1.15305957 7.14243493 -1 11 C-4.96 11 -8.92 11 -13 11 C-13 10.34 -13 9.68 -13 9 C-12.22914062 8.85304688 -11.45828125 8.70609375 -10.6640625 8.5546875 C-7.64978836 7.88054393 -4.85679652 7.17988722 -2 6 C-0.15820897 2.99310423 -0.15820897 2.99310423 0 0 Z " fill="#25282D" transform="translate(120,111)"/>
	

	<path d="M0 0 C1.67299959 0.65061095 3.33859237 1.32033324 5 2 C5.66 2.2475 6.32 2.495 7 2.75 C11.4538125 5.53363281 14.63498246 9.9494351 16 15 C15.67 15.99 15.34 16.98 15 18 C14.67128906 17.443125 14.34257813 16.88625 14.00390625 16.3125 C10.55554708 10.78017309 6.7672397 6.69750628 1.7578125 2.53125 C1.17773438 2.0259375 0.59765625 1.520625 0 1 C0 0.67 0 0.34 0 0 Z " fill="#A78231" transform="translate(87,33)"/>
	

	<path d="M0 0 C0.66 0 1.32 0 2 0 C1.67257813 0.99128906 1.34515625 1.98257813 1.0078125 3.00390625 C-0.13913622 7.01822678 -0.19896279 10.75860244 -0.125 14.9375 C-0.11146484 15.96327148 -0.11146484 15.96327148 -0.09765625 17.00976562 C-0.07438958 18.67333287 -0.03853167 20.33671631 0 22 C-1.4765625 20.9296875 -1.4765625 20.9296875 -3 19 C-3.3984375 15.8203125 -3.3984375 15.8203125 -3.375 12.125 C-3.38273438 10.91070312 -3.39046875 9.69640625 -3.3984375 8.4453125 C-2.97832899 4.81260946 -2.23542071 2.86788121 0 0 Z " fill="#B16739" transform="translate(11,47)"/>
	

	<path d="M0 0 C2.31 0 4.62 0 7 0 C7 3.3 7 6.6 7 10 C3.60582235 6.87378374 1.3937282 4.43458973 0 0 Z " fill="#606565" transform="translate(121,0)"/>
	

	<path d="M0 0 C2.4375 0.1875 2.4375 0.1875 5 1 C6.3125 3.0625 6.3125 3.0625 7 5 C5.906875 5.12375 4.81375 5.2475 3.6875 5.375 C-0.07381802 5.75464801 -0.07381802 5.75464801 -3 8 C-1.125 1.125 -1.125 1.125 0 0 Z " fill="#3A3739" transform="translate(42,66)"/>
	

	

	<path d="M0 0 C2.1875 -0.375 2.1875 -0.375 5 0 C8.46473729 3.23375481 9.87362907 4.63519393 10.3125 9.375 C10.209375 10.24125 10.10625 11.1075 10 12 C9.01 12 8.02 12 7 12 C7.2475 11.4225 7.495 10.845 7.75 10.25 C8.28458426 7.84598377 8.28458426 7.84598377 6.3125 5.875 C4.25041104 4.20303598 2.42830755 3.04070323 0 2 C0 1.34 0 0.68 0 0 Z " fill="#393F43" transform="translate(5,0)"/>
	

	<path d="M0 0 C0.33 0.99 0.66 1.98 1 3 C-1.93042737 8.75450858 -6.15380577 12.46297231 -12 15 C-12.99 14.67 -13.98 14.34 -15 14 C-12.72062238 12.15896423 -10.79988996 10.91910445 -8.0625 9.8125 C-3.92430972 7.36336697 -2.23432415 4.16217021 0 0 Z " fill="#C1C1BF" transform="translate(127,113)"/>
	

	

	<path d="M0 0 C1.67542976 0.28604898 3.34385343 0.61781233 5 1 C4.67 2.65 4.34 4.3 4 6 C2.35 6 0.7 6 -1 6 C-1.042721 4.33388095 -1.04063832 2.66617115 -1 1 C-0.67 0.67 -0.34 0.34 0 0 Z " fill="#D2D2D0" transform="translate(7,6)"/>
	

	

	<path d="M0 0 C0.99 0 1.98 0 3 0 C3.18175781 0.75925781 3.36351563 1.51851563 3.55078125 2.30078125 C3.80214844 3.29464844 4.05351563 4.28851563 4.3125 5.3125 C4.55613281 6.29863281 4.79976563 7.28476563 5.05078125 8.30078125 C6.00049589 11.00141012 6.81847677 12.20956216 9 14 C6.75 13.5625 6.75 13.5625 4 12 C1.69732552 8.1744705 0 4.49189194 0 0 Z " fill="#373A3C" transform="translate(107,0)"/>
	

	<path d="M0 0 C0.66 0 1.32 0 2 0 C5 3.46153846 5 3.46153846 5 6 C5.598125 6.2475 6.19625 6.495 6.8125 6.75 C9.28647521 8.16370012 10.43370255 9.65055383 12 12 C6.6015516 9.95734385 3.76256865 8.14842339 1 3 C0.67 2.01 0.34 1.02 0 0 Z " fill="#B16739" transform="translate(11,69)"/>
	

	<path d="M0 0 C0.33 0 0.66 0 1 0 C1.28875 0.969375 1.5775 1.93875 1.875 2.9375 C2.64214682 6.10664203 2.64214682 6.10664203 5 7 C5 7.99 5 8.98 5 10 C4.34 10 3.68 10 3 10 C2.67 9.34 2.34 8.68 2 8 C0.35857037 6.9590934 -1.30712215 5.95495674 -3 5 C-1.125 1.125 -1.125 1.125 0 0 Z " fill="#C36B3B" transform="translate(23,54)"/>
	

	<path d="M0 0 C8.6309795 5.96583144 8.6309795 5.96583144 11 11 C9.125 10.8125 9.125 10.8125 7 10 C6.31867549 8.33927151 5.65257873 6.672233 5 5 C2.98330173 3.86649466 2.98330173 3.86649466 1 3 C0.67 2.01 0.34 1.02 0 0 Z " fill="#6C6D6C" transform="translate(21,117)"/>
	

	<path d="M0 0 C1.65 0 3.3 0 5 0 C5 0.66 5 1.32 5 2 C4.401875 2.5775 3.80375 3.155 3.1875 3.75 C0.72207845 6.28586216 -0.54430427 8.7974694 -2 12 C-3.15957207 8.52128379 -2.77456651 7.65780355 -1.5625 4.3125 C-1.13130859 3.10013672 -1.13130859 3.10013672 -0.69140625 1.86328125 C-0.46324219 1.24839844 -0.23507813 0.63351563 0 0 Z " fill="#3A3F43" transform="translate(123,108)"/>
	

	<path d="M0 0 C3.3 0.99 6.6 1.98 10 3 C9.67 4.32 9.34 5.64 9 7 C5.46627288 5.03681826 2.75520215 2.95929119 0 0 Z " fill="#373A3D" transform="translate(118,16)"/>
	

	

	<path d="M0 0 C1.46491133 0.37074916 2.92195569 0.77267189 4.375 1.1875 C5.59316406 1.51814453 5.59316406 1.51814453 6.8359375 1.85546875 C9 3 9 3 10.2890625 5.61328125 C10.64097656 6.79470703 10.64097656 6.79470703 11 8 C9.16399255 6.85845641 7.33125195 5.71165684 5.5 4.5625 C4.4790625 3.92441406 3.458125 3.28632812 2.40625 2.62890625 C1.6121875 2.09136719 0.818125 1.55382813 0 1 C0 0.67 0 0.34 0 0 Z " fill="#BD9C2E" transform="translate(89,51)"/>
	

	<path d="M0 0 C3.63 2.31 7.26 4.62 11 7 C9 8 9 8 6.625 7.3125 C3.78166541 5.89083271 2.04362386 4.42207272 0 2 C0 1.34 0 0.68 0 0 Z " fill="#875936" transform="translate(86,49)"/>
	

	<path d="M0 0 C1.4540625 0.0309375 1.4540625 0.0309375 2.9375 0.0625 C0.625 2.5625 0.625 2.5625 -2.0625 5.0625 C-3.0525 5.0625 -4.0425 5.0625 -5.0625 5.0625 C-3.9375 0.08035714 -3.9375 0.08035714 0 0 Z " fill="#3A4045" transform="translate(110.0625,122.9375)"/>
	

	

	

	

	<path d="M0 0 C0.66 0 1.32 0 2 0 C4.39731331 3.19641774 6.38479725 6.00118212 7 10 C3.60582235 6.87378374 1.3937282 4.43458973 0 0 Z " fill="#8C8D8B" transform="translate(121,0)"/>
	

</svg>
