<?xml version="1.0" encoding="iso-8859-1"?>
<svg height="128" version="1.1" width="128" xmlns="http://www.w3.org/2000/svg">
	

	<path d="M0 0 C42.24 0 84.48 0 128 0 C128 42.24 128 84.48 128 128 C85.76 128 43.52 128 0 128 C0 85.76 0 43.52 0 0 Z " fill="#FBFBFB" transform="translate(0,0)"/>
	

	<path d="M0 0 C4.59086338 1.53308029 8.32073368 4.82321273 12.140625 7.71484375 C13.130625 8.37484375 14.120625 9.03484375 15.140625 9.71484375 C15.328125 12.83984375 15.328125 12.83984375 15.140625 15.71484375 C16.3575 15.54984375 17.574375 15.38484375 18.828125 15.21484375 C21.95670336 14.82029834 24.98231304 14.6161465 28.140625 14.71484375 C28.470625 14.05484375 28.800625 13.39484375 29.140625 12.71484375 C28.17125 12.90046875 27.201875 13.08609375 26.203125 13.27734375 C25.1925 13.42171875 24.181875 13.56609375 23.140625 13.71484375 C22.140625 12.71484375 22.140625 12.71484375 22.078125 9.65234375 C22.09875 8.68296875 22.119375 7.71359375 22.140625 6.71484375 C24.265625 5.46484375 24.265625 5.46484375 27.140625 4.71484375 C30.390625 6.21484375 30.390625 6.21484375 33.140625 8.71484375 C34.203125 11.65234375 34.203125 11.65234375 34.140625 14.71484375 C32.890625 17.27734375 32.890625 17.27734375 31.140625 19.71484375 C30.66625 20.64296875 30.191875 21.57109375 29.703125 22.52734375 C29.1875 23.24921875 28.671875 23.97109375 28.140625 24.71484375 C26.820625 24.71484375 25.500625 24.71484375 24.140625 24.71484375 C26.15564717 29.98254131 28.19440739 34.89376039 31.140625 39.71484375 C31.40488281 40.56304687 31.66914062 41.41125 31.94140625 42.28515625 C32.90678303 45.04607094 33.9519047 47.44273447 35.26953125 50.03515625 C43.64920643 66.52287188 43.64920643 66.52287188 43.140625 76.71484375 C37.96398097 78.07063147 35.75898254 77.21645409 31.140625 74.71484375 C27.9039287 74.00726049 27.9039287 74.00726049 25.140625 73.71484375 C25.140625 70.41484375 25.140625 67.11484375 25.140625 63.71484375 C21.675625 64.20984375 21.675625 64.20984375 18.140625 64.71484375 C16.8134989 60.73346545 17.07146587 56.86439148 17.140625 52.71484375 C16.480625 52.71484375 15.820625 52.71484375 15.140625 52.71484375 C15.140625 53.47410156 15.140625 54.23335937 15.140625 55.015625 C15.140625 58.91536458 15.140625 62.81510417 15.140625 66.71484375 C9.140625 63.71484375 9.140625 63.71484375 3.140625 60.71484375 C2.79652595 65.53223042 2.76006008 68.47359957 5.265625 72.65234375 C7.52793123 76.70363683 7.1565808 79.41220677 6.109375 83.83203125 C4.87532764 86.23046201 3.60800641 86.75418295 1.140625 87.71484375 C-2.73551991 85.01839512 -5.06934967 83.24242228 -6.296875 78.58984375 C-6.859375 74.71484375 -6.859375 74.71484375 -5.859375 71.71484375 C-6.519375 71.71484375 -7.179375 71.71484375 -7.859375 71.71484375 C-8.519375 69.40484375 -9.179375 67.09484375 -9.859375 64.71484375 C-16.789375 64.21984375 -16.789375 64.21984375 -23.859375 63.71484375 C-24.189375 67.34484375 -24.519375 70.97484375 -24.859375 74.71484375 C-27.334375 75.20984375 -27.334375 75.20984375 -29.859375 75.71484375 C-34.1810913 69.3019744 -35.50085166 63.2968199 -34.421875 55.58984375 C-34.1434375 54.66171875 -34.1434375 54.66171875 -33.859375 53.71484375 C-34.849375 53.38484375 -35.839375 53.05484375 -36.859375 52.71484375 C-36.818125 53.66359375 -36.776875 54.61234375 -36.734375 55.58984375 C-36.859375 58.71484375 -36.859375 58.71484375 -38.859375 60.71484375 C-41.921875 60.90234375 -41.921875 60.90234375 -44.859375 60.71484375 C-45.859375 59.71484375 -45.859375 59.71484375 -46.046875 56.27734375 C-45.859375 52.71484375 -45.859375 52.71484375 -43.859375 50.71484375 C-43.034375 50.59109375 -42.209375 50.46734375 -41.359375 50.33984375 C-40.534375 50.13359375 -39.709375 49.92734375 -38.859375 49.71484375 C-37.69270833 47.79817708 -37.69270833 47.79817708 -36.859375 45.71484375 C-35.869375 45.05484375 -34.879375 44.39484375 -33.859375 43.71484375 C-33.92415525 41.70665602 -33.99106156 39.69839728 -34.0859375 37.69140625 C-33.859375 35.71484375 -33.859375 35.71484375 -31.359375 33.21484375 C-30.534375 32.71984375 -29.709375 32.22484375 -28.859375 31.71484375 C-28.859375 34.33598083 -29.17229945 36.22419487 -29.859375 38.71484375 C-27.549375 40.03484375 -25.239375 41.35484375 -22.859375 42.71484375 C-23.519375 41.72484375 -24.179375 40.73484375 -24.859375 39.71484375 C-24.859375 38.39484375 -24.859375 37.07484375 -24.859375 35.71484375 C-20.984375 36.58984375 -20.984375 36.58984375 -19.859375 37.71484375 C-18.34468052 37.9467724 -16.82182938 38.12699613 -15.296875 38.27734375 C-14.47058594 38.36113281 -13.64429688 38.44492187 -12.79296875 38.53125 C-11.83583984 38.62212891 -11.83583984 38.62212891 -10.859375 38.71484375 C-10.921875 41.02734375 -10.921875 41.02734375 -11.859375 43.71484375 C-15.421875 45.52734375 -15.421875 45.52734375 -18.859375 46.71484375 C-18.859375 47.70484375 -18.859375 48.69484375 -18.859375 49.71484375 C-16.879375 50.04484375 -14.899375 50.37484375 -12.859375 50.71484375 C-12.240625 49.72484375 -11.621875 48.73484375 -10.984375 47.71484375 C-10.283125 46.72484375 -9.581875 45.73484375 -8.859375 44.71484375 C-8.199375 44.71484375 -7.539375 44.71484375 -6.859375 44.71484375 C-6.900625 43.43609375 -6.941875 42.15734375 -6.984375 40.83984375 C-7.0546875 38.66015625 -7.0546875 38.66015625 -6.859375 36.71484375 C-6.199375 36.05484375 -5.539375 35.39484375 -4.859375 34.71484375 C-4.46173237 32.72663062 -4.12162151 30.72540036 -3.859375 28.71484375 C-0.859375 27.71484375 -0.859375 27.71484375 1.390625 28.65234375 C4.76080641 29.9544593 7.55847839 29.85532009 11.140625 29.71484375 C11.32625 28.75578125 11.32625 28.75578125 11.515625 27.77734375 C11.721875 27.09671875 11.928125 26.41609375 12.140625 25.71484375 C12.800625 25.38484375 13.460625 25.05484375 14.140625 24.71484375 C14.140625 22.40484375 14.140625 20.09484375 14.140625 17.71484375 C13.150625 18.04484375 12.160625 18.37484375 11.140625 18.71484375 C10.10576623 21.03292739 9.1050836 23.36659673 8.140625 25.71484375 C4.9656536 27.30232945 1.60530512 26.9968526 -1.859375 26.71484375 C-3.54515211 26.09809603 -5.21385538 25.43212153 -6.859375 24.71484375 C-8.096875 24.54984375 -9.334375 24.38484375 -10.609375 24.21484375 C-11.681875 24.04984375 -12.754375 23.88484375 -13.859375 23.71484375 C-15.21377168 21.0060504 -14.92438951 18.70551107 -14.859375 15.71484375 C-12.484375 15.08984375 -12.484375 15.08984375 -9.859375 14.71484375 C-9.199375 15.37484375 -8.539375 16.03484375 -7.859375 16.71484375 C-2.91360765 17.03915636 0.63078924 16.96976163 5.140625 14.71484375 C4.7075 13.63203125 4.7075 13.63203125 4.265625 12.52734375 C3.22395833 9.92317708 2.18229167 7.31901042 1.140625 4.71484375 C-0.179375 4.71484375 -1.499375 4.71484375 -2.859375 4.71484375 C-2.364375 8.17984375 -2.364375 8.17984375 -1.859375 11.71484375 C-3.509375 12.37484375 -5.159375 13.03484375 -6.859375 13.71484375 C-7.849375 12.06484375 -8.839375 10.41484375 -9.859375 8.71484375 C-9.199375 7.72484375 -8.539375 6.73484375 -7.859375 5.71484375 C-7.694375 4.84859375 -7.529375 3.98234375 -7.359375 3.08984375 C-7.194375 2.30609375 -7.029375 1.52234375 -6.859375 0.71484375 C-4.42551349 -0.502087 -2.6591105 -0.40780476 0 0 Z " fill="#DBDADA" transform="translate(61.859375,16.28515625)"/>
	

	

	

	

	

	

	

</svg>
