<?xml version="1.0" encoding="iso-8859-1"?>
<svg height="128" version="1.1" width="128" xmlns="http://www.w3.org/2000/svg">
	

	

	<path d="M0 0 C5.0369655 0.53792835 8.60292674 2.95803654 12.8125 5.5625 C33.07221014 18.08204212 33.07221014 18.08204212 55.8125 23.4375 C66.53555438 23.94252885 81.15908541 28.15908541 89 36 C88.86640778 41.47728096 86.34474808 46.7176406 83 51 C78.01660205 52.8828858 73.6317607 50.67102649 68.8125 49.0625 C67.77456299 48.71695068 66.73662598 48.37140137 65.66723633 48.01538086 C52.50295766 43.4070671 40.13745931 37.07488737 27.69239807 30.8286438 C22.96786467 28.46224462 18.19795451 26.21759872 13.38916016 24.02685547 C6.23862628 20.76651599 -0.18857181 17.42748999 -6 12 C-5.59791618 6.37082652 -3.71069698 3.99613521 0 0 Z " fill="#F5F4F4" transform="translate(20,48)"/>
	

	<path d="M0 0 C1.65187864 1.02530398 3.28847387 2.07600897 4.90234375 3.16015625 C13.03418328 8.61159644 21.66147168 12.70099925 30.60546875 16.6171875 C31.65605469 17.07738281 32.70664062 17.53757812 33.7890625 18.01171875 C39.1805652 20.17596735 43.42543877 20.82043799 49.20703125 20.57421875 C53.32251332 20.64794888 56.82526731 22.0960448 60.60546875 23.6171875 C61.42015625 23.93042969 62.23484375 24.24367188 63.07421875 24.56640625 C78.62698774 30.63870649 78.62698774 30.63870649 81.60546875 33.6171875 C81.32422362 38.59306281 79.45494909 42.19447707 77.04296875 46.4921875 C76.40230469 47.64460938 75.76164062 48.79703125 75.1015625 49.984375 C74.60785156 50.85320312 74.11414063 51.72203125 73.60546875 52.6171875 C66.1920113 51.49607641 59.44690151 49.75027457 52.48046875 46.9921875 C51.57594971 46.64027344 50.67143066 46.28835937 49.73950195 45.92578125 C41.17114116 42.54089854 32.85663856 38.70729198 24.60546875 34.6171875 C23.90518555 34.27123535 23.20490234 33.9252832 22.48339844 33.56884766 C18.42030876 31.55773903 14.36896011 29.52431491 10.32275391 27.47949219 C8.00994038 26.31815335 5.68126051 25.18976291 3.35546875 24.0546875 C-13.00867345 15.84488057 -13.00867345 15.84488057 -17.39453125 10.6171875 C-17.39453125 5.65329858 -15.43624377 2.44105466 -12.39453125 -1.3828125 C-8.13462333 -4.79073884 -4.2864177 -2.47535378 0 0 Z M-11.1328125 0.19140625 C-11.65230469 0.88878906 -12.17179687 1.58617187 -12.70703125 2.3046875 C-13.23941406 2.98917969 -13.77179687 3.67367187 -14.3203125 4.37890625 C-15.72970984 7.31557779 -15.39806663 8.54698555 -14.39453125 11.6171875 C-8.684889 17.09210728 -1.07984773 20.48606086 6.04296875 23.7421875 C8.07479087 24.68757346 10.10601624 25.63424275 12.13671875 26.58203125 C13.72033203 27.31848877 13.72033203 27.31848877 15.3359375 28.06982422 C18.66817959 29.64686651 21.96650204 31.28069844 25.26171875 32.93359375 C36.32021407 38.45326419 47.31290075 43.55293882 59.04296875 47.4921875 C60.049646 47.83209717 61.05632324 48.17200684 62.09350586 48.5222168 C67.81227764 50.56489584 67.81227764 50.56489584 73.60546875 49.6171875 C75.44501079 47.27213074 75.44501079 47.27213074 76.91796875 44.3671875 C77.71654297 42.93632813 77.71654297 42.93632813 78.53125 41.4765625 C79.75311539 38.22417898 79.87390231 36.8341509 78.60546875 33.6171875 C74.86205928 29.90876317 69.68183588 28.60592655 64.8359375 26.8203125 C63.02913371 26.14740371 61.22955354 25.4495032 59.46875 24.6640625 C55.25669431 22.80015933 51.65294556 22.46454128 47.04296875 22.3046875 C29.58557438 21.28757236 10.50711064 9.84295989 -3.39111328 -0.26367188 C-6.37379286 -1.92984336 -8.53551926 -2.1607492 -11.1328125 0.19140625 Z " fill="#504E4F" transform="translate(29.39453125,49.3828125)"/>
	

	<path d="M0 0 C5.0369655 0.53792835 8.60292674 2.95803654 12.8125 5.5625 C33.07221014 18.08204212 33.07221014 18.08204212 55.8125 23.4375 C66.53555438 23.94252885 81.15908541 28.15908541 89 36 C88.86640778 41.47728096 86.34474808 46.7176406 83 51 C78.01660205 52.8828858 73.6317607 50.67102649 68.8125 49.0625 C67.77456299 48.71695068 66.73662598 48.37140137 65.66723633 48.01538086 C52.50295766 43.4070671 40.13745931 37.07488737 27.69239807 30.8286438 C22.96786467 28.46224462 18.19795451 26.21759872 13.38916016 24.02685547 C6.23862628 20.76651599 -0.18857181 17.42748999 -6 12 C-5.59791618 6.37082652 -3.71069698 3.99613521 0 0 Z M1 1 C-2.01704885 4.1999003 -3.49890042 6.61537866 -4 11 C5.10782225 18.99711222 16.1977134 23.65245095 27.0625 28.8125 C28.44296509 29.46835083 28.44296509 29.46835083 29.85131836 30.13745117 C32.56689704 31.42634059 35.28334577 32.71337944 38 34 C39.10794922 34.5259375 39.10794922 34.5259375 40.23828125 35.0625 C59.71050578 45.59205324 59.71050578 45.59205324 80.734375 49.8359375 C83.08295921 49.18747262 83.08295921 49.18747262 84.36328125 47.328125 C84.67652344 46.64234375 84.98976563 45.9565625 85.3125 45.25 C85.63863281 44.57453125 85.96476562 43.8990625 86.30078125 43.203125 C87.09491923 40.70092488 87.12318508 38.60969877 87 36 C79.46242186 32.0864637 72.17629093 28.41267601 64 26 C62.515 25.505 62.515 25.505 61 25 C58.87586522 24.89694225 56.7505817 24.81687223 54.625 24.75 C36.73843751 23.45677603 19.19727659 12.21931332 4.78613281 2.09936523 C3.06568678 0.82527704 3.06568678 0.82527704 1 1 Z " fill="#A4A2A3" transform="translate(20,48)"/>
	

	<path d="M0 0 C3.70114011 0.94901028 5.17604576 2.58819002 7.4375 5.625 C8.0625 9.125 8.0625 9.125 7.4375 12.625 C4.84533917 16.31686542 3.39600936 17.45383761 -1.0625 18.25 C-4.5625 17.625 -4.5625 17.625 -7.5625 15.5625 C-9.5625 12.625 -9.5625 12.625 -9.75 9.125 C-8.03338574 4.06550535 -5.40178036 1.3175074 0 0 Z " fill="#DAD8D9" transform="translate(85.5625,35.375)"/>
	

	

</svg>
