<?xml version="1.0" encoding="iso-8859-1"?>
<svg height="128" version="1.1" width="128" xmlns="http://www.w3.org/2000/svg">
	

	<path d="M0 0 C42.24 0 84.48 0 128 0 C128 42.24 128 84.48 128 128 C85.76 128 43.52 128 0 128 C0 85.76 0 43.52 0 0 Z " fill="#081844" transform="translate(0,0)"/>
	

	<path d="M0 0 C3.43211867 4.69690659 7 10.04829515 7 16 C7.66 16 8.32 16 9 16 C9 16.99 9 17.98 9 19 C9.99 19.33 10.98 19.66 12 20 C14.56603774 50.1509434 14.56603774 50.1509434 10 57 C9.67 57.99 9.34 58.98 9 60 C6.525 60.495 6.525 60.495 4 61 C2.56184703 58.12369407 3.09504715 55.87644312 3.33984375 52.6796875 C3.43330078 51.42285156 3.52675781 50.16601562 3.62304688 48.87109375 C3.72774234 47.53905289 3.83256165 46.20702175 3.9375 44.875 C4.03893171 43.53519553 4.13984957 42.19535206 4.24023438 40.85546875 C4.48842535 37.56989292 4.74190326 34.28481013 5 31 C3.68 30.67 2.36 30.34 1 30 C0.67 37.59 0.34 45.18 0 53 C-0.99 53 -1.98 53 -3 53 C-2.41196203 56.02419525 -1.77321882 59.01758453 -1 62 C-2.98 62 -4.96 62 -7 62 C-7.8632601 58.28111134 -8.11721556 54.85703512 -8.09765625 51.04296875 C-8.09443359 49.93115234 -8.09121094 48.81933594 -8.08789062 47.67382812 C-8.07951172 46.52333984 -8.07113281 45.37285156 -8.0625 44.1875 C-8.05798828 43.01767578 -8.05347656 41.84785156 -8.04882812 40.64257812 C-8.0370693 37.76166642 -8.02063426 34.88085956 -8 32 C-9.32 32 -10.64 32 -12 32 C-12.33 42.23 -12.66 52.46 -13 63 C-14.98 63.495 -14.98 63.495 -17 64 C-18.485 63.01 -18.485 63.01 -20 62 C-20.25689991 59.49216756 -20.32726815 57.25203032 -20.25 54.75 C-20.23831787 54.03996826 -20.22663574 53.32993652 -20.21459961 52.59838867 C-19.70729569 28.70729569 -19.70729569 28.70729569 -17 26 C-14.77470737 25.78778666 -12.54407117 25.63058306 -10.3125 25.5 C-5.80459884 25.23342929 -1.44255924 24.81890493 3 24 C0.77924504 17.25677009 -4.22421501 14.1884693 -10.18359375 10.734375 C-18.24016211 6.99232938 -27.26451894 6.72319887 -36 6 C-36 5.34 -36 4.68 -36 4 C-33.8125 2.5625 -33.8125 2.5625 -31 1 C-29.7934375 0.195625 -29.7934375 0.195625 -28.5625 -0.625 C-20.96794436 -4.70012742 -7.32279314 -4.75553678 0 0 Z " fill="#4E536F" transform="translate(93,37)"/>
	

	<path d="M0 0 C9.88689004 -0.62334158 9.88689004 -0.62334158 14.125 1.75 C17 5.2 17 5.2 17 8 C15.5625 10.75 15.5625 10.75 14 13 C14.55413574 12.83773926 15.10827148 12.67547852 15.67919922 12.50830078 C18.22997047 11.94963197 20.52233972 11.87050329 23.1328125 11.8671875 C24.10347656 11.86589844 25.07414062 11.86460938 26.07421875 11.86328125 C27.08097656 11.86714844 28.08773437 11.87101562 29.125 11.875 C30.13949219 11.87113281 31.15398438 11.86726563 32.19921875 11.86328125 C33.16730469 11.86457031 34.13539062 11.86585937 35.1328125 11.8671875 C36.01855957 11.86831543 36.90430664 11.86944336 37.81689453 11.87060547 C40 12 40 12 42 13 C42 12.34 42 11.68 42 11 C40.03852126 9.61061923 38.03833424 8.2739589 36 7 C37.8527582 4.52965573 38.84905886 4.02890362 41.9375 3.4375 C45 4 45 4 47.375 6.875 C49 10 49 10 49 12 C49.66 12 50.32 12 51 12 C51.82038646 21.77811975 52.23271331 30.85819482 50.546875 40.5859375 C49.62285297 46.35447506 49.33655987 52.17220012 49 58 C47.0625 57.625 47.0625 57.625 45 57 C43.39048457 53.78096915 43.75765252 50.25161168 43.68359375 46.7109375 C43.66281265 45.89251373 43.64203156 45.07408997 43.62062073 44.23086548 C43.55515188 41.61233034 43.49625274 38.99369361 43.4375 36.375 C43.39431224 34.60155193 43.35069786 32.82811419 43.30664062 31.0546875 C43.19947324 26.70322954 43.09819831 22.35166923 43 18 C42.34 18 41.68 18 41 18 C40.5875 18.474375 40.175 18.94875 39.75 19.4375 C35.30250028 23.40848189 27.63264342 22.10018536 22 22 C24.96778623 28.18288798 28.45979661 31.1059636 34 35 C36.5 37.125 36.5 37.125 38 39 C38 40.32 38 41.64 38 43 C36.68 42.67 35.36 42.34 34 42 C34 41.34 34 40.68 34 40 C33.41734375 39.73058594 32.8346875 39.46117187 32.234375 39.18359375 C29.99405279 37.99684964 28.21454094 36.65767477 26.25 35.0625 C22.34425465 32.05977472 18.67563319 30.5028821 14 29 C14 27.35 14 25.7 14 24 C12.86111328 23.83564453 12.86111328 23.83564453 11.69921875 23.66796875 C10.70535156 23.50941406 9.71148438 23.35085937 8.6875 23.1875 C7.70136719 23.03667969 6.71523438 22.88585937 5.69921875 22.73046875 C2.85876049 21.96177744 1.72979337 21.34378146 0 19 C0 18.34 0 17.68 0 17 C-0.71027344 16.82984375 -1.42054687 16.6596875 -2.15234375 16.484375 C-3.07144531 16.24203125 -3.99054687 15.9996875 -4.9375 15.75 C-5.85402344 15.51796875 -6.77054688 15.2859375 -7.71484375 15.046875 C-10 14 -10 14 -10.81640625 11.890625 C-10.87699219 11.26671875 -10.93757812 10.6428125 -11 10 C-9.8803014 8.99406757 -8.7540588 7.9954151 -7.625 7 C-6.99851562 6.443125 -6.37203125 5.88625 -5.7265625 5.3125 C-4 4 -4 4 -2 4 C-1.34 2.68 -0.68 1.36 0 0 Z " fill="#2D3558" transform="translate(19,47)"/>
	

	<path d="M0 0 C1.32 0 2.64 0 4 0 C4 0.99 4 1.98 4 3 C4.69867188 2.97679687 5.39734375 2.95359375 6.1171875 2.9296875 C7.02726563 2.91164062 7.93734375 2.89359375 8.875 2.875 C10.23238281 2.84019531 10.23238281 2.84019531 11.6171875 2.8046875 C14 3 14 3 16 5 C16.125 8.625 16.125 8.625 16 12 C14.73160474 12.50615298 13.46016898 13.00469099 12.1875 13.5 C11.47980469 13.7784375 10.77210937 14.056875 10.04296875 14.34375 C8 15 8 15 5 15 C5.01047363 16.16047852 5.02094727 17.32095703 5.03173828 18.51660156 C5.06795983 22.82532665 5.09090836 27.13403829 5.10986328 31.44287109 C5.11991593 33.30715194 5.13356005 35.17141703 5.15087891 37.03564453 C5.17515953 39.71651091 5.18649047 42.39716866 5.1953125 45.078125 C5.20563507 45.91055725 5.21595764 46.7429895 5.22659302 47.60064697 C5.22737925 51.66294362 5.12859689 54.43363849 3 58 C3.19857382 61.08466475 3.19857382 61.08466475 3.875 64.4375 C4.80640779 70.19799019 5.10843101 75.59256326 5.0078125 81.4140625 C4.99819234 85.82971567 5.19811312 90.21676755 5.4375 94.625 C5.47689697 95.4077832 5.51629395 96.19056641 5.55688477 96.99707031 C5.73878962 100.19775457 5.98131596 102.94394788 7 106 C7.928125 106.37125 7.928125 106.37125 8.875 106.75 C12.10814322 108.65184895 12.60927387 111.6138842 14 115 C16.63071042 116.75380695 18.30375336 117.49936726 21.25 118.375 C25.6064161 119.79154706 29.2148951 121.39774038 33 124 C33.33 125.32 33.66 126.64 34 128 C22.78 128 11.56 128 0 128 C0 85.76 0 43.52 0 0 Z " fill="#283155" transform="translate(0,0)"/>
	

	<path d="M0 0 C0.33 0 0.66 0 1 0 C1.04935509 5.37514905 1.08569802 10.75016685 1.10986328 16.12548828 C1.11993484 17.95493873 1.13359276 19.78437303 1.15087891 21.61376953 C1.17507677 24.23994934 1.18647132 26.86591675 1.1953125 29.4921875 C1.20563507 30.31306854 1.21595764 31.13394958 1.22659302 31.97970581 C1.22699184 33.98789142 1.1224954 35.99555382 1 38 C-2.49195321 41.49195321 -7.21748172 40.98072615 -11.96484375 41.09765625 C-13.27582031 41.08605469 -14.58679688 41.07445312 -15.9375 41.0625 C-16.62134766 41.05798828 -17.30519531 41.05347656 -18.00976562 41.04882812 C-19.67321604 41.0371956 -21.3366205 41.01926694 -23 41 C-23 41.66 -23 42.32 -23 43 C-29.625 43.25 -29.625 43.25 -33 41 C-32.979375 41.804375 -32.95875 42.60875 -32.9375 43.4375 C-33 46 -33 46 -34 47 C-35.66617115 47.04063832 -37.33388095 47.042721 -39 47 C-40.76462683 43.91190305 -41 42.76687864 -41 39 C-41.66 39 -42.32 39 -43 39 C-43.33 37.35 -43.66 35.7 -44 34 C-44.886875 33.773125 -45.77375 33.54625 -46.6875 33.3125 C-50.48230501 31.80889801 -52.36650854 30.08494714 -55 27 C-55.33 26.01 -55.66 25.02 -56 24 C-53 25.5 -53 25.5 -50 27 C-50 27.66 -50 28.32 -50 29 C-48.68 29.33 -47.36 29.66 -46 30 C-46.55375363 26.67747821 -47.25757887 24.57678135 -49.9609375 22.4765625 C-51.54723386 21.48051595 -53.13852884 20.49239195 -54.734375 19.51171875 C-57.93413556 17.3767061 -59.82168339 15.16207249 -62 12 C-62 11.01 -62 10.02 -62 9 C-53.09 8.01 -53.09 8.01 -44 7 C-43.67 6.01 -43.34 5.02 -43 4 C-42.01 4.33 -41.02 4.66 -40 5 C-39.97494385 6.11036621 -39.9498877 7.22073242 -39.92407227 8.36474609 C-39.83005085 12.47603319 -39.72981743 16.58714923 -39.62768555 20.69824219 C-39.5843167 22.47912603 -39.54264306 24.26005198 -39.50268555 26.04101562 C-39.4450301 28.59778548 -39.3813223 31.15434298 -39.31640625 33.7109375 C-39.29969376 34.50994476 -39.28298126 35.30895203 -39.26576233 36.13217163 C-39.24607009 40.19806368 -39.24607009 40.19806368 -38 44 C-36.515 44.495 -36.515 44.495 -35 45 C-35.02320312 44.15179688 -35.04640625 43.30359375 -35.0703125 42.4296875 C-35.16638036 36.18527669 -35.00152986 30.2338988 -34 24.0625 C-32.80470324 16.64660956 -32.81111921 9.49227114 -33 2 C-32.34 2.66 -31.68 3.32 -31 4 C-30.34 3.34 -29.68 2.68 -29 2 C-26.25514407 1.85492305 -23.61519457 1.81347577 -20.875 1.875 C-20.12089844 1.88402344 -19.36679688 1.89304688 -18.58984375 1.90234375 C-16.72642746 1.9259313 -14.86317407 1.96180281 -13 2 C-13 2.33 -13 2.66 -13 3 C-17.62 3.33 -22.24 3.66 -27 4 C-29.30675047 15.53375236 -29.13691502 27.28615959 -29 39 C-26.03 39.495 -26.03 39.495 -23 40 C-23.00523682 39.13197754 -23.01047363 38.26395508 -23.01586914 37.36962891 C-23.03289862 34.15299727 -23.04544408 30.93638859 -23.05493164 27.71972656 C-23.0599643 26.32681523 -23.06679098 24.9339092 -23.07543945 23.54101562 C-23.08755152 21.54038754 -23.09270412 19.53972112 -23.09765625 17.5390625 C-23.10289307 16.33459473 -23.10812988 15.13012695 -23.11352539 13.88916016 C-23 11 -23 11 -22 9 C-20.68 9 -19.36 9 -18 9 C-16.61691219 11.76617563 -16.88789804 14.01018 -16.90234375 17.1015625 C-16.90556641 18.31328125 -16.90878906 19.525 -16.91210938 20.7734375 C-16.92467773 22.67996094 -16.92467773 22.67996094 -16.9375 24.625 C-16.94201172 25.90375 -16.94652344 27.1825 -16.95117188 28.5 C-16.96298797 31.66671292 -16.97946185 34.83333356 -17 38 C-14.03 38.495 -14.03 38.495 -11 39 C-11.7734375 37.948125 -11.7734375 37.948125 -12.5625 36.875 C-14.30443767 33.39112465 -13.94693195 31.7016431 -13 28 C-12.34 28.66 -11.68 29.32 -11 30 C-10.67 22.41 -10.34 14.82 -10 7 C-7 7 -7 7 -5 8 C-5.33 17.57 -5.66 27.14 -6 37 C-4.35 37 -2.7 37 -1 37 C-0.67 24.79 -0.34 12.58 0 0 Z " fill="#343C5D" transform="translate(103,60)"/>
	

	<path d="M0 0 C0.97324219 0.00257812 1.94648437 0.00515625 2.94921875 0.0078125 C3.91472656 0.00523438 4.88023438 0.00265625 5.875 0 C8.32257958 0.11770538 10.33683694 0.30127628 12.63671875 1.1328125 C14.51471105 4.88879709 13.82147637 9.43755232 13.82421875 13.5703125 C13.83646484 14.53775391 13.84871094 15.50519531 13.86132812 16.50195312 C13.86422852 17.89510742 13.86422852 17.89510742 13.8671875 19.31640625 C13.87129639 20.16775146 13.87540527 21.01909668 13.87963867 21.89624023 C13.63671875 24.1328125 13.63671875 24.1328125 11.63671875 27.1328125 C11.89931658 29.61332472 11.89931658 29.61332472 12.63671875 32.1328125 C12.82234375 32.8959375 13.00796875 33.6590625 13.19921875 34.4453125 C13.34359375 35.0021875 13.48796875 35.5590625 13.63671875 36.1328125 C11.65671875 36.1328125 9.67671875 36.1328125 7.63671875 36.1328125 C6.77345865 32.41392384 6.51950319 28.98984762 6.5390625 25.17578125 C6.54228516 24.06396484 6.54550781 22.95214844 6.54882812 21.80664062 C6.55720703 20.65615234 6.56558594 19.50566406 6.57421875 18.3203125 C6.57873047 17.15048828 6.58324219 15.98066406 6.58789062 14.77539062 C6.59964945 11.89447892 6.61608449 9.01367206 6.63671875 6.1328125 C5.31671875 6.1328125 3.99671875 6.1328125 2.63671875 6.1328125 C2.30671875 16.3628125 1.97671875 26.5928125 1.63671875 37.1328125 C-0.34328125 37.6278125 -0.34328125 37.6278125 -2.36328125 38.1328125 C-3.35328125 37.4728125 -4.34328125 36.8128125 -5.36328125 36.1328125 C-5.62018116 33.62498006 -5.6905494 31.38484282 -5.61328125 28.8828125 C-5.60159912 28.17278076 -5.58991699 27.46274902 -5.57788086 26.73120117 C-5.01625601 0.2819053 -5.01625601 0.2819053 0 0 Z " fill="#8C8B9C" transform="translate(78.36328125,62.8671875)"/>
	

	<path d="M0 0 C9.9 0 19.8 0 30 0 C30 10.23 30 20.46 30 31 C27.0645044 28.0645044 24.34232034 25.31663068 21.6875 22.1875 C15.63568111 15.2357339 9.26557392 9.22788872 1.90625 3.6640625 C1.2771875 3.11492187 0.648125 2.56578125 0 2 C0 1.34 0 0.68 0 0 Z " fill="#F8F7F8" transform="translate(98,0)"/>
	

	<path d="M0 0 C0.33 0 0.66 0 1 0 C1.04935509 5.37514905 1.08569802 10.75016685 1.10986328 16.12548828 C1.11993484 17.95493873 1.13359276 19.78437303 1.15087891 21.61376953 C1.17507677 24.23994934 1.18647132 26.86591675 1.1953125 29.4921875 C1.20563507 30.31306854 1.21595764 31.13394958 1.22659302 31.97970581 C1.22699184 33.98789142 1.1224954 35.99555382 1 38 C-2.37787526 41.37787526 -6.70905288 40.99077895 -11.28125 41.0234375 C-13.58997062 41.00811413 -15.89865102 40.98000182 -18.20703125 40.9375 C-20.95612929 40.80010984 -20.95612929 40.80010984 -23 42 C-24.99960012 42.039992 -27.00047242 42.04346799 -29 42 C-29 41.01 -29 40.02 -29 39 C-27.02 39.33 -25.04 39.66 -23 40 C-23.00523682 39.13197754 -23.01047363 38.26395508 -23.01586914 37.36962891 C-23.03289862 34.15299727 -23.04544408 30.93638859 -23.05493164 27.71972656 C-23.0599643 26.32681523 -23.06679098 24.9339092 -23.07543945 23.54101562 C-23.08755152 21.54038754 -23.09270412 19.53972112 -23.09765625 17.5390625 C-23.10551147 15.73236084 -23.10551147 15.73236084 -23.11352539 13.88916016 C-23 11 -23 11 -22 9 C-20.68 9 -19.36 9 -18 9 C-16.61691219 11.76617563 -16.88789804 14.01018 -16.90234375 17.1015625 C-16.90556641 18.31328125 -16.90878906 19.525 -16.91210938 20.7734375 C-16.92048828 22.04445313 -16.92886719 23.31546875 -16.9375 24.625 C-16.94201172 25.90375 -16.94652344 27.1825 -16.95117188 28.5 C-16.96298797 31.66671292 -16.97946185 34.83333356 -17 38 C-15.02 38.33 -13.04 38.66 -11 39 C-11.7734375 37.948125 -11.7734375 37.948125 -12.5625 36.875 C-14.30443767 33.39112465 -13.94693195 31.7016431 -13 28 C-12.34 28.66 -11.68 29.32 -11 30 C-10.67 22.41 -10.34 14.82 -10 7 C-7 7 -7 7 -5 8 C-5.33 17.57 -5.66 27.14 -6 37 C-4.35 37 -2.7 37 -1 37 C-0.67 24.79 -0.34 12.58 0 0 Z " fill="#65677E" transform="translate(103,60)"/>
	

	<path d="M0 0 C0 1.98 0 3.96 0 6 C-7.92 7.485 -7.92 7.485 -16 9 C-14.71761795 14.12952818 -12.40228095 17.51158111 -7.92578125 20.28515625 C-7.20777344 20.68605469 -6.48976562 21.08695313 -5.75 21.5 C-2.12283113 23.59312189 -2.12283113 23.59312189 -1 27.3125 C-1 28.199375 -1 29.08625 -1 30 C-2.32 29.67 -3.64 29.34 -5 29 C-5 28.34 -5 27.68 -5 27 C-5.57492188 26.73316406 -6.14984375 26.46632813 -6.7421875 26.19140625 C-9.07702551 24.95935505 -11.03894184 23.55161725 -13.125 21.9375 C-15.93627263 19.76773805 -15.93627263 19.76773805 -19 18 C-19 17.01 -19 16.02 -19 15 C-19.99 15 -20.98 15 -22 15 C-22.33 13.02 -22.66 11.04 -23 9 C-23.96099609 8.97873047 -23.96099609 8.97873047 -24.94140625 8.95703125 C-31.50154999 8.59529456 -35.07096888 7.39326687 -40 3 C-40 2.34 -40 1.68 -40 1 C-28.74726875 1.85579024 -28.74726875 1.85579024 -24.4375 2.6875 C-21.74474036 3.30360761 -21.74474036 3.30360761 -19 1 C-12.71738106 -0.33672743 -6.3973469 -0.09454207 0 0 Z " fill="#75768B" transform="translate(58,60)"/>
	

	<path d="M0 0 C4 4.84210526 4 4.84210526 4 8 C4.66 8 5.32 8 6 8 C6.82038646 17.77811975 7.23271331 26.85819482 5.546875 36.5859375 C4.62285297 42.35447506 4.33655987 48.17220012 4 54 C2.0625 53.625 2.0625 53.625 0 53 C-1.1760003 50.6479994 -1.12084541 49.26265599 -1.11352539 46.64208984 C-1.11344986 45.74130707 -1.11337433 44.84052429 -1.11329651 43.91244507 C-1.10813522 42.93844757 -1.10297394 41.96445007 -1.09765625 40.9609375 C-1.0962413 39.96494537 -1.09482635 38.96895325 -1.09336853 37.94277954 C-1.08775936 34.75348947 -1.0752053 31.56426894 -1.0625 28.375 C-1.05748618 26.21614685 -1.05292307 24.05729259 -1.04882812 21.8984375 C-1.03778695 16.5989345 -1.02103988 11.29947222 -1 6 C-2.423125 5.8453125 -2.423125 5.8453125 -3.875 5.6875 C-7 5 -7 5 -9 2 C-5.49812047 -0.33458635 -4.11971953 -0.67260727 0 0 Z " fill="#5E627A" transform="translate(64,51)"/>
	

	<path d="M0 0 C3.77666549 3.83303364 6.16292985 8.78223392 7.83203125 13.859375 C7.484375 16.23046875 7.484375 16.23046875 6.83203125 17.859375 C3.34190361 17.27512456 1.7123707 16.06140936 -0.79296875 13.609375 C-8.17819845 6.94765209 -16.60764614 4.09496375 -26.16796875 1.859375 C-26.16796875 0.539375 -26.16796875 -0.780625 -26.16796875 -2.140625 C-17.11999634 -4.46999662 -8.08164707 -5.59625255 0 0 Z " fill="#F8F7F8" transform="translate(93.16796875,39.140625)"/>
	

	<path d="M0 0 C0.33 0 0.66 0 1 0 C1 9.9 1 19.8 1 30 C-6.92 30 -14.84 30 -23 30 C-19 26 -19 26 -16.0625 24.125 C-9.89405958 19.84485767 -6.84261987 14.24656087 -3.6875 7.625 C-3.32849609 6.88894531 -2.96949219 6.15289062 -2.59960938 5.39453125 C-1.72562986 3.59995998 -0.86174832 1.80047663 0 0 Z " fill="#F8F7F8" transform="translate(127,98)"/>
	

	<path d="M0 0 C0.33 0 0.66 0 1 0 C1.08040527 0.90540527 1.16081055 1.81081055 1.24365234 2.74365234 C3.37945812 26.8962517 3.37945812 26.8962517 6 51 C6.85722656 50.97679687 7.71445313 50.95359375 8.59765625 50.9296875 C20.76100521 50.73770679 20.76100521 50.73770679 26 53 C26.33 53.99 26.66 54.98 27 56 C18.09 56 9.18 56 0 56 C0 37.52 0 19.04 0 0 Z " fill="#4B516C" transform="translate(0,72)"/>
	

	<path d="M0 0 C0.99 0.33 1.98 0.66 3 1 C2.67 8.92 2.34 16.84 2 25 C0.68 24.34 -0.64 23.68 -2 23 C-2 21.02 -2 19.04 -2 17 C-2.825 16.979375 -3.65 16.95875 -4.5 16.9375 C-9.42682702 15.61781419 -12.57970545 12.72072583 -16 9 C-16.66 7.68 -17.32 6.36 -18 5 C-9.585 4.01 -9.585 4.01 -1 3 C-0.67 2.01 -0.34 1.02 0 0 Z " fill="#071744" transform="translate(60,64)"/>
	

	<path d="M0 0 C2.8203125 0.0234375 2.8203125 0.0234375 6.125 0.375 C7.22070312 0.48585938 8.31640625 0.59671875 9.4453125 0.7109375 C10.28835937 0.80632812 11.13140625 0.90171875 12 1 C12.75206793 8.4859685 13.36310062 15.5649057 12 23 C11.34 23.33 10.68 23.66 10 24 C10 17.73 10 11.46 10 5 C7.36 4.67 4.72 4.34 2 4 C1.05196688 9.80769866 0.69552728 15.56209187 0.4375 21.4375 C0.37272461 22.82098633 0.37272461 22.82098633 0.30664062 24.23242188 C0.20145069 26.48816163 0.09930893 28.74399499 0 31 C0.66 31 1.32 31 2 31 C2 32.65 2 34.3 2 36 C0.1875 36.625 0.1875 36.625 -2 37 C-2.99 36.34 -3.98 35.68 -5 35 C-4.68861696 31.37490317 -4.37568429 27.74994162 -4.0625 24.125 C-3.97548828 23.11179687 -3.88847656 22.09859375 -3.79882812 21.0546875 C-3.62338713 19.02736928 -3.44452624 17.00034404 -3.26220703 14.97363281 C-3.08910427 13.01051213 -2.92836558 11.04625709 -2.78076172 9.08105469 C-2.70744629 8.18547852 -2.63413086 7.28990234 -2.55859375 6.3671875 C-2.49857178 5.5716748 -2.4385498 4.77616211 -2.37670898 3.95654297 C-2 2 -2 2 0 0 Z " fill="#B8B6C1" transform="translate(78,64)"/>
	

	<path d="M0 0 C2.109375 0.41015625 2.109375 0.41015625 4 1 C4.02471738 5.78718692 4.04286825 10.5743367 4.05493164 15.36157227 C4.05996065 16.99015958 4.06678465 18.61874237 4.07543945 20.24731445 C4.08756769 22.58806472 4.09324263 24.9287553 4.09765625 27.26953125 C4.10281754 27.99775589 4.10797882 28.72598053 4.11329651 29.47627258 C4.11364279 32.59602288 3.99455604 35.01633188 3 38 C0.525 38.495 0.525 38.495 -2 39 C-3.23139104 36.53721792 -2.91862247 35.60738444 -2.44140625 32.9296875 C-2.30283203 32.115 -2.16425781 31.3003125 -2.02148438 30.4609375 C-1.71964702 28.76037299 -1.41757054 27.0598509 -1.11523438 25.359375 C0.72725673 15.51325368 0.72725673 15.51325368 -1.5 6 C-1.995 5.01 -2.49 4.02 -3 3 C-1.75 1.4375 -1.75 1.4375 0 0 Z " fill="#9C9AA9" transform="translate(99,59)"/>
	

	<path d="M0 0 C0.99 0.33 1.98 0.66 3 1 C3.93878514 11.04177054 3.99272986 20.79674181 3.5625 30.875 C3.50906618 32.25648354 3.45632879 33.6379942 3.40429688 35.01953125 C3.27632944 38.34668447 3.14146879 41.67339826 3 45 C1.0625 44.625 1.0625 44.625 -1 44 C-2.29460906 41.41078188 -2.02265089 39.71874363 -1.87890625 36.828125 C-1.80639648 35.251521 -1.80639648 35.251521 -1.73242188 33.64306641 C-1.64831055 31.96349854 -1.64831055 31.96349854 -1.5625 30.25 C-1.18069667 21.97641606 -0.89808317 13.75906034 -1.0625 5.4765625 C-1 3 -1 3 0 0 Z " fill="#BAB8C2" transform="translate(65,60)"/>
	

	<path d="M0 0 C2.09642756 1.8463461 3.39571505 3.66649462 5 6 C4.01 7.485 4.01 7.485 3 9 C1.824375 8.773125 0.64875 8.54625 -0.5625 8.3125 C-5.23069145 7.7061335 -7.88487284 8.81646314 -12 11 C-12.33 11.33 -12.66 11.66 -13 12 C-14.99958364 12.04080783 -17.00045254 12.04254356 -19 12 C-19.33 11.34 -19.66 10.68 -20 10 C-18.52700467 5.80762867 -16.01167476 4.20288739 -12.25 2.1875 C-7.98421473 0.23778155 -4.72201009 -1.01847276 0 0 Z " fill="#4F546E" transform="translate(29,48)"/>
	

	<path d="M0 0 C1.32 0 2.64 0 4 0 C4 0.99 4 1.98 4 3 C4.69867188 2.97679687 5.39734375 2.95359375 6.1171875 2.9296875 C7.02726563 2.91164062 7.93734375 2.89359375 8.875 2.875 C10.23238281 2.84019531 10.23238281 2.84019531 11.6171875 2.8046875 C14 3 14 3 16 5 C16.1875 8.5625 16.1875 8.5625 16 12 C14.26150372 13.73849628 11.9213363 13.17216296 9.5625 13.1875 C8.57378906 13.20167969 7.58507812 13.21585938 6.56640625 13.23046875 C4 13 4 13 2 11 C0.10632238 7.21264476 -0.19575936 4.20882632 0 0 Z " fill="#696B82" transform="translate(0,0)"/>
	

	<path d="M0 0 C3.77666549 3.83303364 6.16292985 8.78223392 7.83203125 13.859375 C7.484375 16.23046875 7.484375 16.23046875 6.83203125 17.859375 C3.34190361 17.27512456 1.7123707 16.06140936 -0.79296875 13.609375 C-8.17819845 6.94765209 -16.60764614 4.09496375 -26.16796875 1.859375 C-26.16796875 0.539375 -26.16796875 -0.780625 -26.16796875 -2.140625 C-17.11999634 -4.46999662 -8.08164707 -5.59625255 0 0 Z M-21.16796875 -2.140625 C-21.49796875 -1.150625 -21.82796875 -0.160625 -22.16796875 0.859375 C-21.32234375 1.07851563 -20.47671875 1.29765625 -19.60546875 1.5234375 C-13.089168 3.34503976 -7.91007156 5.14293262 -2.75390625 9.58984375 C-1.07771869 11.08167342 -1.07771869 11.08167342 1.83203125 11.859375 C3.01953125 13.921875 3.01953125 13.921875 3.83203125 15.859375 C4.49203125 15.859375 5.15203125 15.859375 5.83203125 15.859375 C5.53173853 9.85352059 2.75578454 6.16407521 -1.16796875 1.859375 C-7.12762623 -2.75935955 -13.97047711 -2.28457483 -21.16796875 -2.140625 Z " fill="#B1AFBA" transform="translate(93.16796875,39.140625)"/>
	

	<path d="M0 0 C0.99 0.495 0.99 0.495 2 1 C2.2475 1.825 2.495 2.65 2.75 3.5 C3.1625 4.325 3.575 5.15 4 6 C7.05272465 6.89830839 7.05272465 6.89830839 10 7 C10 7.33 10 7.66 10 8 C8.02 8 6.04 8 4 8 C4.02320313 8.7528125 4.04640625 9.505625 4.0703125 10.28125 C4.19137975 17.40692222 3.69458581 24.19412021 2.71582031 31.23046875 C1.99999166 36.52294916 1.76933763 41.66913634 2 47 C1.01 47.495 1.01 47.495 0 48 C0 32.16 0 16.32 0 0 Z " fill="#4C526C" transform="translate(0,6)"/>
	

	<path d="M0 0 C1.32 0.66 2.64 1.32 4 2 C4.12018761 7.79571381 4.01046216 13.58425996 3.75 19.375 C3.70359375 20.53773437 3.6571875 21.70046875 3.609375 22.8984375 C2.90192821 26.49916025 1.80576138 27.72172176 -1 30 C-1.66 29.34 -2.32 28.68 -3 28 C-2.64257812 26.21166992 -2.64257812 26.21166992 -2 24 C-1.86675991 22.20692492 -1.77689486 20.41035953 -1.71875 18.61328125 C-1.68136719 17.59298828 -1.64398438 16.57269531 -1.60546875 15.52148438 C-1.53477151 13.37045532 -1.46446317 11.21941345 -1.39453125 9.06835938 C-1.33845703 7.5437207 -1.33845703 7.5437207 -1.28125 5.98828125 C-1.25095703 5.05540283 -1.22066406 4.12252441 -1.18945312 3.16137695 C-1 1 -1 1 0 0 Z " fill="#101E48" transform="translate(94,66)"/>
	

	<path d="M0 0 C1 3 1 3 0.41088867 4.76171875 C0.0832251 5.39722656 -0.24443848 6.03273438 -0.58203125 6.6875 C-0.93716797 7.38617188 -1.29230469 8.08484375 -1.65820312 8.8046875 C-2.03912109 9.52914062 -2.42003906 10.25359375 -2.8125 11 C-3.36647461 12.08667969 -3.36647461 12.08667969 -3.93164062 13.1953125 C-5.50403565 16.25541341 -7.08765239 19.13147858 -9 22 C-9.66 22 -10.32 22 -11 22 C-11.23203125 22.58265625 -11.4640625 23.1653125 -11.703125 23.765625 C-13.32245619 26.55555705 -15.12454964 27.88831702 -17.75 29.75 C-18.59046875 30.36359375 -19.4309375 30.9771875 -20.296875 31.609375 C-23.43227977 33.2223867 -25.52166718 33.26443466 -29 33 C-28.67 31.68 -28.34 30.36 -28 29 C-26.5422647 28.664061 -25.08378894 28.33133376 -23.625 28 C-22.81289062 27.814375 -22.00078125 27.62875 -21.1640625 27.4375 C-19 27 -19 27 -17 27 C-17 26.34 -17 25.68 -17 25 C-16.38125 24.7525 -15.7625 24.505 -15.125 24.25 C-12.64931313 22.79371361 -12.04874998 21.62187494 -11 19 C-10.34 19 -9.68 19 -9 19 C-8.731875 18.175 -8.46375 17.35 -8.1875 16.5 C-6.87475078 12.63084439 -5.44898716 8.82005706 -4 5 C-3.34 5 -2.68 5 -2 5 C-1.855625 4.360625 -1.71125 3.72125 -1.5625 3.0625 C-1 1 -1 1 0 0 Z " fill="#454B68" transform="translate(127,95)"/>
	

	<path d="M0 0 C0.495 1.485 0.495 1.485 1 3 C-3.75 1.125 -3.75 1.125 -6 0 C-13.03593241 -1.33953329 -19.10374633 -0.7754185 -26 1 C-26 1.66 -26 2.32 -26 3 C-22.535 4.485 -22.535 4.485 -19 6 C-22.68400584 7.23104155 -25.91474976 6.90767252 -29.75 6.5625 C-30.92046875 6.46066406 -32.0909375 6.35882813 -33.296875 6.25390625 C-34.18890625 6.17011719 -35.0809375 6.08632813 -36 6 C-36 5.34 -36 4.68 -36 4 C-33.8125 2.5625 -33.8125 2.5625 -31 1 C-29.7934375 0.195625 -29.7934375 0.195625 -28.5625 -0.625 C-20.38795245 -5.01134259 -8.18472107 -4.01795398 0 0 Z " fill="#585D75" transform="translate(93,37)"/>
	

	<path d="M0 0 C1.32 0 2.64 0 4 0 C4.97963374 3.17337094 5.00148074 5.69159758 4.66015625 8.984375 C4.56669922 9.91894531 4.47324219 10.85351562 4.37695312 11.81640625 C4.22129883 13.26853516 4.22129883 13.26853516 4.0625 14.75 C3.96259766 15.73355469 3.86269531 16.71710938 3.75976562 17.73046875 C3.51267098 20.15434959 3.25920287 22.57738907 3 25 C2.01 25 1.02 25 0 25 C-0.19628414 21.20873402 -0.38053896 17.41697828 -0.5625 13.625 C-0.61857422 12.54476562 -0.67464844 11.46453125 -0.73242188 10.3515625 C-0.78076172 9.3203125 -0.82910156 8.2890625 -0.87890625 7.2265625 C-0.94960327 5.79691162 -0.94960327 5.79691162 -1.02172852 4.33837891 C-1 2 -1 2 0 0 Z " fill="#0A1945" transform="translate(81,69)"/>
	

	<path d="M0 0 C0.33 0.99 0.66 1.98 1 3 C1.928125 3 2.85625 3 3.8125 3 C10 3 10 3 13 5 C11.68 5 10.36 5 9 5 C9 5.66 9 6.32 9 7 C9.598125 7.28875 10.19625 7.5775 10.8125 7.875 C13 9 13 9 16 11 C18.47624354 11.41926449 18.47624354 11.41926449 21.125 11.5625 C25.90171607 11.90171607 25.90171607 11.90171607 27 13 C27.04080783 14.99958364 27.04254356 17.00045254 27 19 C27.99 19 28.98 19 30 19 C29.67 19.99 29.34 20.98 29 22 C27.35 21.34 25.7 20.68 24 20 C24 18.35 24 16.7 24 15 C23.24074219 14.89042969 22.48148438 14.78085938 21.69921875 14.66796875 C20.70535156 14.50941406 19.71148438 14.35085937 18.6875 14.1875 C17.70136719 14.03667969 16.71523438 13.88585937 15.69921875 13.73046875 C12.85876049 12.96177744 11.72979337 12.34378146 10 10 C10 9.34 10 8.68 10 8 C9.28972656 7.82984375 8.57945313 7.6596875 7.84765625 7.484375 C6.92855469 7.24203125 6.00945313 6.9996875 5.0625 6.75 C4.14597656 6.51796875 3.22945312 6.2859375 2.28515625 6.046875 C0 5 0 5 -0.87890625 2.953125 C-0.91886719 2.30859375 -0.95882813 1.6640625 -1 1 C-0.67 0.67 -0.34 0.34 0 0 Z " fill="#394060" transform="translate(9,56)"/>
	

	<path d="M0 0 C0.97324219 0.00257812 1.94648437 0.00515625 2.94921875 0.0078125 C3.91472656 0.00523438 4.88023438 0.00265625 5.875 0 C8.32257958 0.11770538 10.33683694 0.30127628 12.63671875 1.1328125 C13.86309445 3.58556391 13.75087189 5.1833906 13.734375 7.921875 C13.73115234 8.86289063 13.72792969 9.80390625 13.72460938 10.7734375 C13.71623047 11.75828125 13.70785156 12.743125 13.69921875 13.7578125 C13.69470703 14.75039062 13.69019531 15.74296875 13.68554688 16.765625 C13.6737402 19.2214141 13.65727275 21.67708354 13.63671875 24.1328125 C13.30671875 24.1328125 12.97671875 24.1328125 12.63671875 24.1328125 C12.30671875 16.8728125 11.97671875 9.6128125 11.63671875 2.1328125 C9.67734375 2.1121875 7.71796875 2.0915625 5.69921875 2.0703125 C4.04599609 2.05291016 4.04599609 2.05291016 2.359375 2.03515625 C-0.27775759 1.82018679 -0.27775759 1.82018679 -1.36328125 3.1328125 C-1.66325649 5.27369038 -1.90300322 7.42306363 -2.1171875 9.57421875 C-2.24931641 10.87939453 -2.38144531 12.18457031 -2.51757812 13.52929688 C-2.65374079 14.91795944 -2.78980724 16.30663145 -2.92578125 17.6953125 C-3.0653504 19.08793125 -3.20531916 20.48051002 -3.34570312 21.87304688 C-3.68884111 25.29259442 -4.02784534 28.71250223 -4.36328125 32.1328125 C-4.69328125 32.1328125 -5.02328125 32.1328125 -5.36328125 32.1328125 C-5.71598689 10.735337 -5.71598689 10.735337 -3.36328125 1.1328125 C-2.36328125 0.1328125 -2.36328125 0.1328125 0 0 Z " fill="#7F7F92" transform="translate(78.36328125,62.8671875)"/>
	

	<path d="M0 0 C1.75 0.1875 1.75 0.1875 4 1 C4.6084375 1.76441406 5.216875 2.52882812 5.84375 3.31640625 C7.97207702 5.96524803 10.03667989 7.72797164 12.75 9.75 C17.14208353 13.15742763 20.69458376 16.82274698 24.2109375 21.1171875 C26.03557059 23.03743455 27.57416254 23.98478168 30 25 C30 26.98 30 28.96 30 31 C27.08120808 28.16965632 24.3389163 25.27068364 21.6875 22.1875 C15.63568111 15.2357339 9.26557392 9.22788872 1.90625 3.6640625 C1.2771875 3.11492187 0.648125 2.56578125 0 2 C0 1.34 0 0.68 0 0 Z " fill="#B1AFBB" transform="translate(98,0)"/>
	

	<path d="M0 0 C0.99 0.33 1.98 0.66 3 1 C4.33891883 13.07086818 3.72431573 24.90836187 3 37 C2.67 37 2.34 37 2 37 C1.67 31.06 1.34 25.12 1 19 C0.67 22.96 0.34 26.92 0 31 C-0.33 31 -0.66 31 -1 31 C-1.02473868 27.06731133 -1.04287835 23.13465287 -1.05493164 19.2019043 C-1.06242729 17.20685232 -1.07513345 15.21182214 -1.08789062 13.21679688 C-1.09111328 11.96318359 -1.09433594 10.70957031 -1.09765625 9.41796875 C-1.10289307 8.26063232 -1.10812988 7.1032959 -1.11352539 5.91088867 C-1 3 -1 3 0 0 Z " fill="#9C9AA9" transform="translate(65,60)"/>
	

	<path d="M0 0 C0.33 0 0.66 0 1 0 C1.86699926 5.63549521 -0.34624836 8.41718092 -3.5078125 12.7734375 C-5.20716458 15.09611129 -5.20716458 15.09611129 -6.1875 18.5625 C-8.98825702 23.87428055 -13.7108839 27.23645603 -19 30 C-21.34765625 29.71875 -21.34765625 29.71875 -23 29 C-22.00419922 28.34644531 -22.00419922 28.34644531 -20.98828125 27.6796875 C-20.10527344 27.08414063 -19.22226563 26.48859375 -18.3125 25.875 C-17.44238281 25.29492188 -16.57226562 24.71484375 -15.67578125 24.1171875 C-9.87349934 19.52618488 -6.81351799 14.18548557 -3.6875 7.625 C-3.32849609 6.88894531 -2.96949219 6.15289062 -2.59960938 5.39453125 C-1.72562986 3.59995998 -0.86174832 1.80047663 0 0 Z " fill="#B0AEB9" transform="translate(127,98)"/>
	

	<path d="M0 0 C0.33 0 0.66 0 1 0 C1 5.61 1 11.22 1 17 C1.66 17 2.32 17 3 17 C3 18.65 3 20.3 3 22 C1.1875 22.625 1.1875 22.625 -1 23 C-1.99 22.34 -2.98 21.68 -4 21 C-3.7834375 20.00226563 -3.7834375 20.00226563 -3.5625 18.984375 C-2.76260513 14.74048834 -2.26654383 10.46148086 -1.75 6.17578125 C-1.10770975 1.10770975 -1.10770975 1.10770975 0 0 Z " fill="#C8C6CE" transform="translate(77,78)"/>
	

	<path d="M0 0 C-0.75 7.75 -0.75 7.75 -3 10 C-6.625 10.125 -6.625 10.125 -10 10 C-10.75 8.25 -10.75 8.25 -11 6 C-7.75111822 2.05492927 -5.22065358 0 0 0 Z " fill="#4A506B" transform="translate(53,45)"/>
	

	<path d="M0 0 C2.0625 0.4375 2.0625 0.4375 4 1 C3.21625 1.45375 2.4325 1.9075 1.625 2.375 C-1.03698031 3.88428742 -1.03698031 3.88428742 -3 6 C-3.99 6 -4.98 6 -6 6 C-6 6.66 -6 7.32 -6 8 C-5.11957031 7.98839844 -4.23914062 7.97679687 -3.33203125 7.96484375 C-1.58986328 7.95130859 -1.58986328 7.95130859 0.1875 7.9375 C1.33605469 7.92589844 2.48460938 7.91429687 3.66796875 7.90234375 C6.59300586 7.98807168 9.16316291 8.32150977 12 9 C12 9.33 12 9.66 12 10 C10.97519531 9.97679687 9.95039062 9.95359375 8.89453125 9.9296875 C7.53386149 9.91091964 6.1731838 9.89272053 4.8125 9.875 C4.13896484 9.85824219 3.46542969 9.84148438 2.77148438 9.82421875 C-2.24203966 9.77530632 -5.59738381 10.79869191 -10 13 C-10 12.01 -10 11.02 -10 10 C-11.65 10.33 -13.3 10.66 -15 11 C-15 10.34 -15 9.68 -15 9 C-14.175 8.608125 -13.35 8.21625 -12.5 7.8125 C-5.84445062 4.50641052 -5.84445062 4.50641052 0 0 Z " fill="#283155" transform="translate(63,35)"/>
	

	<path d="M0 0 C0 0.99 0 1.98 0 3 C-1.39412109 3.18175781 -1.39412109 3.18175781 -2.81640625 3.3671875 C-12.03618764 4.61185801 -12.03618764 4.61185801 -21 7 C-21 5.68 -21 4.36 -21 3 C-14.67939304 -0.79236417 -7.11516492 -0.12884604 0 0 Z " fill="#9D9BA9" transform="translate(58,61)"/>
	

	<path d="M0 0 C2.875 0.6875 2.875 0.6875 3.875 1.6875 C3.91563832 3.35367115 3.917721 5.02138095 3.875 6.6875 C0.89287087 8.17856457 -1.84109658 7.80691467 -5.125 7.6875 C-6.125 6.6875 -6.125 6.6875 -6.375 4.25 C-6.2925 3.404375 -6.21 2.55875 -6.125 1.6875 C-3.125 -0.3125 -3.125 -0.3125 0 0 Z " fill="#AFADB9" transform="translate(10.125,4.3125)"/>
	

	<path d="M0 0 C1.98 0 3.96 0 6 0 C6.33 1.32 6.66 2.64 7 4 C5.95199219 4.39832031 5.95199219 4.39832031 4.8828125 4.8046875 C3.97273438 5.15789063 3.06265625 5.51109375 2.125 5.875 C0.76761719 6.39707031 0.76761719 6.39707031 -0.6171875 6.9296875 C-3.12217007 7.88530895 -3.12217007 7.88530895 -5 10 C-6.32 10 -7.64 10 -9 10 C-7.61122646 6.64379729 -6.08322035 4.92701272 -3 3 C-2.34 3 -1.68 3 -1 3 C-0.67 2.01 -0.34 1.02 0 0 Z " fill="#9795A5" transform="translate(20,49)"/>
	

	

	<path d="M0 0 C0.33 0 0.66 0 1 0 C1.33 7.26 1.66 14.52 2 22 C2.33 22 2.66 22 3 22 C3.99 11.605 3.99 11.605 5 1 C5.33 1 5.66 1 6 1 C6.11632513 4.41637953 6.18728897 7.83224897 6.25 11.25 C6.30027344 12.70212891 6.30027344 12.70212891 6.3515625 14.18359375 C6.45112665 21.4019949 6.45112665 21.4019949 3.984375 24.671875 C3.00210938 25.32929687 3.00210938 25.32929687 2 26 C0 24 0 24 -0.22705078 21.56982422 C-0.21657715 20.5748291 -0.20610352 19.57983398 -0.1953125 18.5546875 C-0.18886719 17.47832031 -0.18242188 16.40195313 -0.17578125 15.29296875 C-0.15064453 13.60107422 -0.15064453 13.60107422 -0.125 11.875 C-0.11597656 10.73933594 -0.10695313 9.60367188 -0.09765625 8.43359375 C-0.07403098 5.62218701 -0.04109013 2.81119702 0 0 Z " fill="#3A4261" transform="translate(80,72)"/>
	

	<path d="M0 0 C5.61 0 11.22 0 17 0 C16.01 0.99 15.02 1.98 14 3 C13.42982192 5.04100238 13.42982192 5.04100238 13.3125 7.1875 C13.209375 8.445625 13.10625 9.70375 13 11 C12.67 11 12.34 11 12 11 C11.34 8.69 10.68 6.38 10 4 C6.7 3.67 3.4 3.34 0 3 C0 2.01 0 1.02 0 0 Z " fill="#1C284F" transform="translate(4,0)"/>
	

	<path d="M0 0 C0.33 0 0.66 0 1 0 C1.05416741 2.72943537 1.09375225 5.45778564 1.125 8.1875 C1.14175781 8.95642578 1.15851563 9.72535156 1.17578125 10.51757812 C1.21266851 14.8149434 0.9958504 18.07901831 -1 22 C-2.32 21.67 -3.64 21.34 -5 21 C-4.67 19.35 -4.34 17.7 -4 16 C-3.34 16 -2.68 16 -2 16 C-2.061875 14.2675 -2.061875 14.2675 -2.125 12.5 C-2.14087433 8.05518699 -1.21793105 4.26275869 0 0 Z " fill="#B5B3BE" transform="translate(101,76)"/>
	

	<path d="M0 0 C0.99 0.33 1.98 0.66 3 1 C4.99766845 24.47260434 4.99766845 24.47260434 3 35 C2.67 35 2.34 35 2 35 C1.97494385 34.08186523 1.9498877 33.16373047 1.92407227 32.21777344 C1.8287973 28.80342975 1.72957222 25.38924797 1.62768555 21.97509766 C1.58443965 20.4989061 1.54275744 19.02266785 1.50268555 17.54638672 C1.44473154 15.42140652 1.38111054 13.29665907 1.31640625 11.171875 C1.26141968 9.2552002 1.26141968 9.2552002 1.20532227 7.29980469 C1.04236741 4.68090127 0.77053197 2.48983284 0 0 Z " fill="#3C4362" transform="translate(102,56)"/>
	

	<path d="M0 0 C0 0.66 0 1.32 0 2 C-1.13179687 2.19335938 -2.26359375 2.38671875 -3.4296875 2.5859375 C-4.91153202 2.84854286 -6.39329892 3.11158648 -7.875 3.375 C-8.62136719 3.50132813 -9.36773437 3.62765625 -10.13671875 3.7578125 C-14.50990532 4.45268694 -14.50990532 4.45268694 -18 7 C-18 4 -18 4 -17 2 C-11.30201576 -0.18220673 -6.05106191 -0.21915315 0 0 Z " fill="#5D6079" transform="translate(58,64)"/>
	

	<path d="M0 0 C4.29 0 8.58 0 13 0 C9.87691148 1.56154426 7.85575433 2.38330197 4.5625 3.0625 C3.45068359 3.29646484 3.45068359 3.29646484 2.31640625 3.53515625 C1.55199219 3.68855469 0.78757812 3.84195313 0 4 C-0.80953125 4.20367187 -1.6190625 4.40734375 -2.453125 4.6171875 C-5.35678483 5.05362717 -7.45848982 4.70940897 -10.3125 4.0625 C-11.63701172 3.77052734 -11.63701172 3.77052734 -12.98828125 3.47265625 C-13.65214844 3.31667969 -14.31601562 3.16070312 -15 3 C-15 2.67 -15 2.34 -15 2 C-13.58376784 1.94552953 -12.16691809 1.90699492 -10.75 1.875 C-9.96109375 1.85179687 -9.1721875 1.82859375 -8.359375 1.8046875 C-5.79268059 2.0171622 -4.2083933 2.71345895 -2 4 C-1.34 2.68 -0.68 1.36 0 0 Z " fill="#3D4462" transform="translate(37,59)"/>
	

	

	<path d="M0 0 C0.33 0 0.66 0 1 0 C1.06058594 0.69867188 1.12117188 1.39734375 1.18359375 2.1171875 C1.26738281 3.02726562 1.35117187 3.93734375 1.4375 4.875 C1.51871094 5.77992187 1.59992187 6.68484375 1.68359375 7.6171875 C1.86989285 10.01110861 1.86989285 10.01110861 3 12 C3.99 12.33 4.98 12.66 6 13 C6 10.03 6 7.06 6 4 C8.43769218 7.65653827 8.23944439 9.69000101 8 14 C7 15 7 15 4.4375 15.0625 C3.633125 15.041875 2.82875 15.02125 2 15 C-0.02558881 11.65060119 -0.21738987 9.13037449 -0.125 5.25 C-0.09792969 3.77273437 -0.09792969 3.77273437 -0.0703125 2.265625 C-0.03550781 1.14414063 -0.03550781 1.14414063 0 0 Z " fill="#61647C" transform="translate(62,92)"/>
	

	<path d="M0 0 C1 3 1 3 -0.546875 6.6875 C-1.27090577 8.13023779 -2.00575578 9.56758476 -2.75 11 C-3.29140625 12.08667969 -3.29140625 12.08667969 -3.84375 13.1953125 C-5.59685665 16.63800744 -7.14073527 19.35064565 -10 22 C-9.47675397 17.81403179 -7.90941217 14.62593069 -5.9375 10.96484375 C-4.99448574 8.98844302 -4.45673282 7.13617747 -4 5 C-3.34 5 -2.68 5 -2 5 C-1.855625 4.360625 -1.71125 3.72125 -1.5625 3.0625 C-1 1 -1 1 0 0 Z " fill="#64667E" transform="translate(127,95)"/>
	

	<path d="M0 0 C2.6875 -0.3125 2.6875 -0.3125 6 0 C9.16797175 2.65225542 11.62748777 5.62853525 14 9 C13.44828125 8.71382812 12.8965625 8.42765625 12.328125 8.1328125 C9.84094711 6.92260849 7.32252247 5.8904694 4.75 4.875 C3.85796875 4.52179687 2.9659375 4.16859375 2.046875 3.8046875 C1.03367187 3.40636719 1.03367187 3.40636719 0 3 C0 2.01 0 1.02 0 0 Z " fill="#494F6B" transform="translate(92,0)"/>
	

	<path d="M0 0 C0.66 0 1.32 0 2 0 C2.3227506 4.62609198 1.84450614 7.28026121 -1 11 C-1.66 11 -2.32 11 -3 11 C-2.88590407 9.54077307 -2.75834456 8.08259402 -2.625 6.625 C-2.55539063 5.81289062 -2.48578125 5.00078125 -2.4140625 4.1640625 C-2 2 -2 2 0 0 Z " fill="#343C5D" transform="translate(126,89)"/>
	

	<path d="M0 0 C-0.33 2.31 -0.66 4.62 -1 7 C-2.98 7 -4.96 7 -7 7 C-6.75 4.625 -6.75 4.625 -6 2 C-3.84898936 0.54286376 -2.59713506 0 0 0 Z " fill="#77788C" transform="translate(51,47)"/>
	

	

	<path d="M0 0 C1.32 0.33 2.64 0.66 4 1 C4 3.97 4 6.94 4 10 C-0.875 5.375 -0.875 5.375 -2 2 C-1.34 1.34 -0.68 0.68 0 0 Z " fill="#BAB8C2" transform="translate(98,60)"/>
	

	

	<path d="M0 0 C2.5 2.0625 2.5 2.0625 5 5 C5.3125 8.8125 5.3125 8.8125 5 12 C4.01 11.67 3.02 11.34 2 11 C1.34 7.37 0.68 3.74 0 0 Z " fill="#5B5F77" transform="translate(123,26)"/>
	

	<path d="M0 0 C0.33 0 0.66 0 1 0 C1.99 3.63 2.98 7.26 4 11 C6.97 11.495 6.97 11.495 10 12 C10 12.33 10 12.66 10 13 C6.26023276 13.2876744 3.79785233 13.45876509 0.5 11.5625 C-1.77149267 7.68203336 -0.84156848 4.28102227 0 0 Z " fill="#222C52" transform="translate(70,90)"/>
	

	<path d="M0 0 C0.8971875 0.309375 0.8971875 0.309375 1.8125 0.625 C0.389375 1.5221875 0.389375 1.5221875 -1.0625 2.4375 C-4.32714197 4.44062526 -4.32714197 4.44062526 -6.1875 7.625 C-4.2075 6.965 -2.2275 6.305 -0.1875 5.625 C-0.5175 6.615 -0.8475 7.605 -1.1875 8.625 C-3.1675 8.625 -5.1475 8.625 -7.1875 8.625 C-7.5175 7.965 -7.8475 7.305 -8.1875 6.625 C-4.49013158 -0.76973684 -4.49013158 -0.76973684 0 0 Z " fill="#676980" transform="translate(17.1875,51.375)"/>
	

	<path d="M0 0 C2.33944736 0.28730055 4.6739143 0.61936779 7 1 C7 1.99 7 2.98 7 4 C4.36 4 1.72 4 -1 4 C-1 1 -1 1 0 0 Z " fill="#101E49" transform="translate(20,56)"/>
	

	

	<path d="M0 0 C1.98 0.99 3.96 1.98 6 3 C6 4.32 6 5.64 6 7 C1.25 5.125 1.25 5.125 -1 4 C-0.67 2.68 -0.34 1.36 0 0 Z " fill="#9694A4" transform="translate(38,71)"/>
	

	<path d="M0 0 C1.65 0 3.3 0 5 0 C5.33 0.99 5.66 1.98 6 3 C5.34 3.66 4.68 4.32 4 5 C1.375 4.625 1.375 4.625 -1 4 C-0.67 2.68 -0.34 1.36 0 0 Z " fill="#F8F7F8" transform="translate(7,6)"/>
	

	

	<path d="M0 0 C0.33 0 0.66 0 1 0 C1.33 2.31 1.66 4.62 2 7 C0.824375 7.12375 0.824375 7.12375 -0.375 7.25 C-3.14749104 7.72806339 -3.14749104 7.72806339 -4.3125 10.0625 C-4.6528125 11.0215625 -4.6528125 11.0215625 -5 12 C-5.88492145 9.52221994 -6.11637742 8.33943414 -5.25 5.8125 C-4 4 -4 4 -1 3 C-0.67 2.01 -0.34 1.02 0 0 Z " fill="#6E6F85" transform="translate(101,53)"/>
	

	<path d="M0 0 C0.33 0 0.66 0 1 0 C1.12117188 0.56589844 1.24234375 1.13179687 1.3671875 1.71484375 C1.53476563 2.44832031 1.70234375 3.18179688 1.875 3.9375 C2.03742188 4.66839844 2.19984375 5.39929687 2.3671875 6.15234375 C2.82961523 8.20700294 2.82961523 8.20700294 5 9 C5 10.32 5 11.64 5 13 C1.24242424 11.54545455 1.24242424 11.54545455 0.25 9.3125 C-0.08664439 6.19853938 -0.06017169 3.12892809 0 0 Z " fill="#283155" transform="translate(123,29)"/>
	

	<path d="M0 0 C0.33 0.99 0.66 1.98 1 3 C-2.91176471 8.58823529 -2.91176471 8.58823529 -6.3125 9.875 C-6.869375 9.91625 -7.42625 9.9575 -8 10 C-8 9.34 -8 8.68 -8 8 C-7.34 8 -6.68 8 -6 8 C-6 7.34 -6 6.68 -6 6 C-5.38125 5.7525 -4.7625 5.505 -4.125 5.25 C-1.64931313 3.79371361 -1.04874998 2.62187494 0 0 Z " fill="#4F546F" transform="translate(116,114)"/>
	

	<path d="M0 0 C-0.33 0.66 -0.66 1.32 -1 2 C-2.32 1.67 -3.64 1.34 -5 1 C-5 1.99 -5 2.98 -5 4 C-4.34 4 -3.68 4 -3 4 C-3 4.66 -3 5.32 -3 6 C-5.475 5.01 -5.475 5.01 -8 4 C-8 3.01 -8 2.02 -8 1 C-5.29120665 -0.35439668 -2.99066732 -0.06501451 0 0 Z " fill="#3C4362" transform="translate(64,51)"/>
	

	

	<path d="M0 0 C2.09350689 3.4019487 2.17942163 6.05272412 2 10 C1.34 10 0.68 10 0 10 C-1.36952673 7.26094655 -1.12621361 5.02912668 -1 2 C-0.67 1.34 -0.34 0.68 0 0 Z " fill="#F8F7F8" transform="translate(65,93)"/>
	

	<path d="M0 0 C0.33 0.99 0.66 1.98 1 3 C3.86724686 2.42655063 4.8614515 2.1385485 7 0 C7 1.65 7 3.3 7 5 C5.1875 5.625 5.1875 5.625 3 6 C2.01 5.34 1.02 4.68 0 4 C0 2.68 0 1.36 0 0 Z " fill="#ABA9B6" transform="translate(73,95)"/>
	

	

	<path d="M0 0 C2.3125 -0.25 2.3125 -0.25 5 0 C6.97610386 2.04424538 8 3.1176825 8 6 C6.02 6 4.04 6 2 6 C2.99 5.67 3.98 5.34 5 5 C4.33131686 1.88667752 4.33131686 1.88667752 1.9375 0.8125 C1.298125 0.544375 0.65875 0.27625 0 0 Z " fill="#737489" transform="translate(22,48)"/>
	

	<path d="M0 0 C0.66 1.32 1.32 2.64 2 4 C1.01 5.485 1.01 5.485 0 7 C-2.97 6.505 -2.97 6.505 -6 6 C-6 5.67 -6 5.34 -6 5 C-4.35 4.67 -2.7 4.34 -1 4 C-0.67 2.68 -0.34 1.36 0 0 Z " fill="#283155" transform="translate(70,102)"/>
	

	

	<path d="M0 0 C1.98 0 3.96 0 6 0 C6 0.99 6 1.98 6 3 C4.35 3 2.7 3 1 3 C0.67 2.01 0.34 1.02 0 0 Z " fill="#9C9AA9" transform="translate(24,64)"/>
	

	<path d="M0 0 C1.37562854 1.28965176 2.70766393 2.62689293 4 4 C4 4.66 4 5.32 4 6 C2.68 6 1.36 6 0 6 C0 4.02 0 2.04 0 0 Z " fill="#737489" transform="translate(0,122)"/>
	

	<path d="M0 0 C2.64 0 5.28 0 8 0 C8 0.33 8 0.66 8 1 C6.906875 1.309375 5.81375 1.61875 4.6875 1.9375 C2.44592006 2.58337897 0.2130649 3.2623117 -2 4 C-1.34 2.68 -0.68 1.36 0 0 Z " fill="#3C4361" transform="translate(19,47)"/>
	

</svg>
