<?xml version="1.0" encoding="iso-8859-1"?>
<svg height="128" version="1.1" width="128" xmlns="http://www.w3.org/2000/svg">
	

	<path d="M0 0 C42.24 0 84.48 0 128 0 C128 42.24 128 84.48 128 128 C85.76 128 43.52 128 0 128 C0 85.76 0 43.52 0 0 Z " fill="#FDFEFC" transform="translate(0,0)"/>
	

	

	<path d="M0 0 C6.76317535 0.10588141 12.41057926 3.03685034 18.1328125 6.34375 C29.0697038 12.66151827 39.09931473 17.68522303 51.9375 15.5 C61.87403171 13.87770911 68.65809741 15.46632584 76.890625 21.3515625 C80.76031864 24.71406328 81.93170564 28.07065692 82.87109375 33.046875 C83 35 83 35 82 37 C80.34521484 37.73022461 80.34521484 37.73022461 78.2109375 38.40234375 C77.43363281 38.65306641 76.65632813 38.90378906 75.85546875 39.16210938 C75.03691406 39.41798828 74.21835938 39.67386719 73.375 39.9375 C66.72623521 42.02856182 66.72623521 42.02856182 60.26171875 44.6171875 C47.69976772 49.94285297 31.69911164 49.61953192 19 45 C11.40568741 41.3771394 7.61214309 36.53838557 4 29 C3.51015625 28.27683594 3.0203125 27.55367187 2.515625 26.80859375 C0.64191551 23.33643622 -0.03428985 19.90680237 -0.6875 16.0625 C-0.81705078 15.37220703 -0.94660156 14.68191406 -1.08007812 13.97070312 C-1.80105337 9.94621167 -2.32264844 6.08485104 -2 2 C-1.34 1.34 -0.68 0.68 0 0 Z " fill="#8DCF75" transform="translate(14,42)"/>
	

	<path d="M0 0 C0.66 0 1.32 0 2 0 C2.42925781 0.61230469 2.85851563 1.22460938 3.30078125 1.85546875 C6.41587319 5.78692962 11.25085813 6.87078828 16 8 C18.89742144 8.03169055 21.15132047 7.64498404 24 7 C23.52309829 11.29211536 22.97916068 13.02083932 20 16 C19.28072705 18.31765729 18.6090107 20.65095874 18 23 C14.07142047 26.92857953 1.30363479 25.97512725 -4 26 C-12.26607672 25.19811991 -19.94674292 21.83301058 -27.34765625 18.23828125 C-31.77663318 16.17055564 -36.38480178 14.59791196 -41 13 C-41 12.01 -41 11.02 -41 10 C-39.58671871 9.18162558 -38.16921654 8.37053781 -36.75 7.5625 C-35.96109375 7.11003906 -35.1721875 6.65757813 -34.359375 6.19140625 C-30.52006236 4.2526805 -27.45638391 3.89508119 -23.1875 4 C-18.42961679 4.03214786 -13.68898018 3.92973008 -8.9375 3.6875 C-7.66777344 3.62949219 -6.39804687 3.57148438 -5.08984375 3.51171875 C-4.07019531 3.34285156 -3.05054688 3.17398437 -2 3 C-1.34 2.01 -0.68 1.02 0 0 Z " fill="#3BADE7" transform="translate(61,24)"/>
	

	

	

	

	

	

	

	

</svg>
