<?xml version="1.0" encoding="iso-8859-1"?>
<svg height="128" version="1.1" width="128" xmlns="http://www.w3.org/2000/svg">
	

	<path d="M0 0 C42.24 0 84.48 0 128 0 C128 42.24 128 84.48 128 128 C85.76 128 43.52 128 0 128 C0 85.76 0 43.52 0 0 Z " fill="#B64046" transform="translate(0,0)"/>
	

	<path d="M0 0 C11.24119557 0.4376695 21.94383706 8.68780669 31.28076172 14.33056641 C34.10803607 16.02752986 36.97748719 17.63767859 39.875 19.2109375 C41.71963471 20.21651962 43.54954035 21.24907708 45.375 22.2890625 C46.54147528 22.94304982 47.70814177 23.59669621 48.875 24.25 C49.94234375 24.85457031 51.0096875 25.45914063 52.109375 26.08203125 C55.11233343 27.4318066 56.88716746 27.7432953 60.125 27.4375 C61.115 24.4675 62.105 21.4975 63.125 18.4375 C64.115 18.4375 65.105 18.4375 66.125 18.4375 C66.36734375 19.19675781 66.6096875 19.95601562 66.859375 20.73828125 C67.19453125 21.73214844 67.5296875 22.72601563 67.875 23.75 C68.19984375 24.73613281 68.5246875 25.72226563 68.859375 26.73828125 C71.15910837 31.64295951 75.22984341 33.0909391 80 35.25 C81.13695313 35.76949219 82.27390625 36.28898437 83.4453125 36.82421875 C85.96144581 37.94514053 88.49598067 38.99972009 91.0546875 40.01953125 C92.01205811 40.40757935 92.01205811 40.40757935 92.98876953 40.8034668 C94.79471531 41.53019284 96.6081587 42.23820284 98.421875 42.9453125 C101.125 44.4375 101.125 44.4375 102.15625 46.27734375 C102.11338508 49.24038134 101.16025747 51.21215334 99.875 53.875 C99.21757812 55.26525391 99.21757812 55.26525391 98.546875 56.68359375 C94.99010264 63.57239736 94.99010264 63.57239736 92.125 66.4375 C90.19238281 66.54443359 90.19238281 66.54443359 87.828125 66.3359375 C86.52367432 66.22233887 86.52367432 66.22233887 85.19287109 66.10644531 C83.7980249 65.96094238 83.7980249 65.96094238 82.375 65.8125 C80.9511499 65.66699707 80.9511499 65.66699707 79.49853516 65.51855469 C63.57820403 63.73254228 50.65624822 58.44979799 38.125 48.4375 C36.32678584 47.02045211 34.52641483 45.6061729 32.72583008 44.19213867 C31.46875572 43.20357809 30.21332992 42.21291687 28.9597168 41.2199707 C26.39696446 39.1938646 23.8449064 37.25077094 21.125 35.4375 C21.125 34.7775 21.125 34.1175 21.125 33.4375 C20.34769531 33.10685547 20.34769531 33.10685547 19.5546875 32.76953125 C16.16176142 30.90942226 13.26670025 28.53643873 10.25 26.125 C9.65058594 25.65126953 9.05117188 25.17753906 8.43359375 24.68945312 C6.65691674 23.28082959 4.8906509 21.85990578 3.125 20.4375 C2.27651489 19.76956421 2.27651489 19.76956421 1.41088867 19.08813477 C-2.56532855 15.89932311 -4.40178192 13.37711356 -5.875 8.4375 C-5.60279662 3.62857353 -5.18974245 0.78974342 0 0 Z " fill="#FBF9F8" transform="translate(14.875,43.5625)"/>
	

	<path d="M0 0 C3.37637773 4.50183697 3.37637773 4.50183697 3.50952148 8.42900085 C3.54473404 9.29492513 3.57994659 10.1608494 3.6162262 11.0530138 C3.63845749 11.98386642 3.66068878 12.91471903 3.68359375 13.8737793 C3.71682236 14.85028537 3.75005096 15.82679144 3.7842865 16.8328886 C4.07612107 26.26988933 4.11714311 35.70763725 4.07516479 45.14832497 C4.06209299 48.11180454 4.05581222 51.07523813 4.05102539 54.03874207 C4.03977981 60.29668277 4.02044442 66.55458353 4 72.8125 C3.97634693 80.14606613 3.95606405 87.47961247 3.94406128 94.81320763 C3.93757803 97.73437201 3.92508985 100.65547153 3.91235352 103.57661438 C3.90872577 105.34510237 3.90537345 107.11359096 3.90234375 108.88208008 C3.89717743 109.69483902 3.89201111 110.50759796 3.88668823 111.34498596 C3.88650747 113.23036901 3.93757627 115.11565063 4 117 C5.00604565 118.22715834 5.00604565 118.22715834 7.04398441 118.12304783 C7.95010692 118.12212604 8.85622942 118.12120424 9.78981018 118.12025452 C11.3442836 118.12231651 11.3442836 118.12231651 12.93016052 118.12442017 C14.07670609 118.12082489 15.22325165 118.11722961 16.40454102 118.11352539 C17.60437622 118.11367142 18.80421143 118.11381744 20.04040527 118.1139679 C23.33985191 118.11338894 26.63923664 118.10835978 29.9386723 118.10139394 C33.38334297 118.09515973 36.82801438 118.09455655 40.27268982 118.09336853 C46.7998273 118.09025541 53.32694811 118.08204229 59.85407823 118.07201904 C67.28322016 118.0608573 74.71236286 118.0553473 82.14151108 118.05032361 C97.42768372 118.03985966 112.71383972 118.0222606 128 118 C128 119.65 128 121.3 128 123 C85.76 123 43.52 123 0 123 C0 82.41 0 41.82 0 0 Z " fill="#FBF9F8" transform="translate(0,5)"/>
	

	

	

	

	

</svg>
