<?xml version="1.0" encoding="iso-8859-1"?>
<svg height="128" version="1.1" width="128" xmlns="http://www.w3.org/2000/svg">
	

	<path d="M0 0 C42.24 0 84.48 0 128 0 C128 42.24 128 84.48 128 128 C85.76 128 43.52 128 0 128 C0 85.76 0 43.52 0 0 Z " fill="#FCFBFB" transform="translate(0,0)"/>
	

	<path d="M0 0 C3.41457613 -0.05607579 6.82921337 -0.0910044 10.24406433 -0.12663269 C11.43378845 -0.14814392 12.62351257 -0.16965515 13.84928894 -0.19181824 C14.92573669 -0.19608826 16.00218445 -0.20035828 17.11125183 -0.20475769 C18.01730164 -0.21410339 18.92335144 -0.2234491 19.8568573 -0.233078 C23.08140609 0.22443815 24.83177941 1.07433305 27.36906433 3.12336731 C29.10927153 7.32401686 29.6191415 10.90530576 29.62443542 15.42903137 C29.63139435 16.65760864 29.63835327 17.88618591 29.64552307 19.1519928 C29.64452606 20.46770264 29.64352905 21.78341248 29.64250183 23.13899231 C29.65107385 24.51894562 29.66107765 25.8988907 29.67243958 27.27882385 C29.71845266 33.11319513 29.7432871 38.94751196 29.74992371 44.78205872 C29.75497525 48.36186518 29.77940685 51.9411356 29.8152504 55.52075958 C29.82964506 57.52677331 29.82245294 59.53290525 29.81471252 61.53895569 C29.89714261 69.25283436 30.8696835 75.22777468 34.36906433 82.12336731 C34.84479637 83.09892578 34.84479637 83.09892578 35.33013916 84.0941925 C36.79447912 87.03238316 38.34738861 89.92387836 39.88078308 92.82649231 C41.31611975 96.00608325 41.97709974 98.67407894 42.36906433 102.12336731 C40.68156433 103.31086731 40.68156433 103.31086731 38.36906433 104.12336731 C33.95873025 102.09461363 31.37353316 99.0110263 28.55656433 95.18586731 C28.12932068 94.61682678 27.70207703 94.04778625 27.2618866 93.46150208 C15.82178252 78.07843919 15.82178252 78.07843919 14.84172058 73.84602356 C14.68574402 73.277547 14.52976746 72.70907043 14.36906433 72.12336731 C10.79464726 70.93189495 7.60163741 71.03759888 3.88761902 71.10505676 C2.31305483 71.12472877 0.73849019 71.14436516 -0.83607483 71.16397095 C-1.67050362 71.17620005 -2.5049324 71.18842915 -3.36464691 71.20102882 C-7.78787416 71.26175707 -12.21135743 71.2923675 -16.63484192 71.32844543 C-22.261953 71.37633054 -27.88857358 71.43300155 -33.51521301 71.52107239 C-38.06391189 71.59148654 -42.61204885 71.6323215 -47.16123199 71.65369225 C-48.89162265 71.66725277 -50.6219647 71.69162598 -52.35204315 71.72718239 C-67.60112552 72.03188912 -67.60112552 72.03188912 -72.24714661 68.08894348 C-73.42712219 66.62098328 -73.42712219 66.62098328 -74.63093567 65.12336731 C-73.98584045 64.45313538 -73.34074524 63.78290344 -72.67610168 63.09236145 C-70.23187907 59.54405165 -69.9920984 56.78405281 -69.90827942 52.61946106 C-69.8608535 51.540765 -69.8608535 51.540765 -69.81246948 50.4402771 C-69.71334282 48.14743228 -69.63873832 45.85476323 -69.56843567 43.56086731 C-69.25916848 34.3312674 -68.94221668 25.61191563 -66.3396759 16.67854309 C-65.37940179 13.21652831 -64.90692738 9.7397641 -64.45124817 6.18196106 C-63.19486109 3.02902778 -61.73052967 2.52172429 -58.63093567 1.12336731 C-55.1048053 0.64801279 -51.59547637 0.63455453 -48.04109192 0.61164856 C-46.99611038 0.59351608 -45.95112885 0.57538361 -44.8744812 0.55670166 C-41.48083035 0.50172819 -38.08737391 0.46796608 -34.69343567 0.43586731 C-32.37099574 0.40515292 -30.04856706 0.37357548 -27.72615051 0.34114075 C-23.13570786 0.28015544 -18.5453151 0.22897842 -13.95466614 0.18635559 C-9.30265901 0.14289517 -4.65150631 0.08004836 0 0 Z " fill="#C80F26" transform="translate(75.63093566894531,9.876632690429688)"/>
	

	<path d="M0 0 C1.30808121 -0.00615326 2.61616241 -0.01230652 3.96388245 -0.01864624 C5.38339952 -0.00485046 6.80290958 0.00968351 8.22241211 0.02490234 C9.68541807 0.02728851 11.14842712 0.02819173 12.61143494 0.02767944 C15.67214238 0.03080199 18.73237958 0.04732583 21.79296875 0.07421875 C25.7127065 0.10822816 29.63192888 0.11584614 33.55179691 0.11432838 C36.5707235 0.11487261 39.58953784 0.12584773 42.60842705 0.14033127 C44.05368641 0.14668678 45.49895846 0.15063525 46.94423103 0.15211868 C48.96416941 0.15646304 50.98405975 0.17556227 53.00390625 0.1953125 C54.15242569 0.2029361 55.30094513 0.21055969 56.48426819 0.21841431 C59.34416177 0.47740915 61.01543394 0.99774716 63.43725586 2.48583984 C63.19891147 7.44853798 62.95031702 12.41058316 62.69262695 17.37231445 C62.60654343 19.05674647 62.52315629 20.74131871 62.44262695 22.42602539 C62.32571187 24.86175626 62.19878067 27.2968009 62.07006836 29.73193359 C62.01993088 30.84344032 62.01993088 30.84344032 61.96878052 31.97740173 C61.20772137 45.71537433 61.20772137 45.71537433 58.43725586 48.48583984 C55.47145229 48.64728983 52.52677593 48.7458825 49.55834961 48.80224609 C48.64690186 48.82320847 47.7354541 48.84417084 46.79638672 48.86576843 C43.82260008 48.93229846 40.84873406 48.99105118 37.87475586 49.04833984 C36.37236862 49.07861267 36.37236862 49.07861267 34.83963013 49.10949707 C28.91138019 49.22855716 22.98300639 49.33685814 17.05444336 49.43902588 C14.71969226 49.48078787 12.38513017 49.52744288 10.05053711 49.57714844 C6.65857339 49.64613008 3.26716762 49.69625033 -0.12524414 49.73583984 C-1.07278564 49.75718994 -2.02032715 49.77854004 -2.99658203 49.80053711 C-4.26876587 49.80718384 -4.26876587 49.80718384 -5.56665039 49.81396484 C-6.6312146 49.8279834 -6.6312146 49.8279834 -7.71728516 49.84228516 C-10.17308986 49.36795325 -11.05820417 48.45055803 -12.56274414 46.48583984 C-13.06462366 42.08244457 -12.7795204 37.6472143 -12.63647461 33.22167969 C-12.55171186 30.07647644 -12.52940529 26.93284985 -12.50415039 23.78662109 C-12.46310858 21.43632624 -12.42013735 19.08606429 -12.37524414 16.73583984 C-12.36702637 15.02158813 -12.36702637 15.02158813 -12.35864258 13.27270508 C-12.32931641 12.1931958 -12.29999023 11.11368652 -12.26977539 10.00146484 C-12.25406494 9.03499023 -12.23835449 8.06851562 -12.22216797 7.07275391 C-10.665844 0.96730824 -5.63660611 -0.01397749 0 0 Z " fill="#FBF6F6" transform="translate(28.562744140625,21.51416015625)"/>
	

	

	<path d="M0 0 C1.06839111 -0.01475372 2.13678223 -0.02950745 3.23754883 -0.04470825 C4.18601685 -0.06190414 5.13448486 -0.07910004 6.11169434 -0.09681702 C9.9263898 0.15528626 11.93917374 1.39690689 14.6105957 4.06832886 C16.32957149 8.2752959 16.89490812 11.96267744 17.0246582 16.48629761 C17.08242432 18.34859009 17.08242432 18.34859009 17.14135742 20.24850464 C17.17294673 21.58427521 17.20435529 22.92005008 17.2355957 24.25582886 C17.27562009 25.63849325 17.31615418 27.02114297 17.35717773 28.40377808 C17.54461486 35.15796785 17.63135486 41.90098667 17.5637207 48.65817261 C17.55260254 49.845802 17.54148437 51.0334314 17.5300293 52.25704956 C17.50140545 54.47067962 17.45856454 56.68419448 17.39819336 58.89718628 C17.23675618 69.86536707 19.34487363 79.88735004 24.6730957 89.50582886 C31.39058176 102.01637628 31.39058176 102.01637628 29.6105957 108.06832886 C27.2674744 107.81271562 24.93216167 107.47562113 22.6105957 107.06832886 C22.2805957 106.40832886 21.9505957 105.74832886 21.6105957 105.06832886 C23.2605957 105.06832886 24.9105957 105.06832886 26.6105957 105.06832886 C27.78270504 101.55200085 27.44348541 100.98754299 26.0480957 97.69332886 C25.4931543 96.37655151 25.4931543 96.37655151 24.92700195 95.03317261 C22.99465341 90.68108791 21.00380318 86.35802663 18.9777832 82.04879761 C18.30102539 80.57346558 18.30102539 80.57346558 17.6105957 79.06832886 C17.08218079 77.9321537 17.08218079 77.9321537 16.54309082 76.77302551 C15.4643347 73.64409967 15.34561207 71.12034442 15.32348633 67.81271362 C15.31007202 66.57115005 15.29665771 65.32958649 15.28283691 64.05039978 C15.2802739 63.39215776 15.27771088 62.73391575 15.27507019 62.05572701 C15.26673658 59.9825898 15.24619135 57.9098838 15.22253418 55.83686829 C15.17444546 51.43491964 15.14142911 47.03292777 15.1105957 42.63082886 C15.07484079 37.53053658 15.03280475 32.43045647 14.97465515 27.33036613 C14.95469437 25.29528279 14.94628941 23.26036492 14.93835449 21.22520447 C14.92494019 19.98048874 14.91152588 18.73577301 14.89770508 17.45333862 C14.88676819 15.81716331 14.88676819 15.81716331 14.87561035 14.14793396 C14.58999466 10.82893423 13.86612615 8.14888743 12.6105957 5.06832886 C9.68767187 2.86198259 7.03781471 2.82168504 3.45043945 2.83786011 C2.37068848 2.83898804 1.2909375 2.84011597 0.1784668 2.84127808 C-1.01955566 2.85432983 -2.21757813 2.86738159 -3.4519043 2.88082886 C-5.34561768 2.89267212 -5.34561768 2.89267212 -7.27758789 2.90475464 C-11.06644576 2.9328378 -14.85488786 2.98047258 -18.64349365 3.03189087 C-21.6735104 3.07209892 -24.70356666 3.10757689 -27.73364258 3.14303589 C-33.49865986 3.21264733 -39.26335074 3.29629751 -45.02804565 3.38873291 C-47.35167237 3.42512062 -49.67534525 3.45867115 -51.99905396 3.48937988 C-55.29868515 3.534669 -58.59785266 3.59277746 -61.8972168 3.65426636 C-62.89705093 3.66583267 -63.89688507 3.67739899 -64.92701721 3.6893158 C-65.85191452 3.70917038 -66.77681183 3.72902496 -67.72973633 3.7494812 C-68.93969772 3.76946671 -68.93969772 3.76946671 -70.17410278 3.78985596 C-72.64467827 4.10041789 -74.27594374 4.76616539 -76.3894043 6.06832886 C-77.83662864 8.87137389 -78.34148519 11.99743073 -79.0144043 15.06832886 C-79.22895264 16.00861938 -79.44350098 16.94890991 -79.66455078 17.91769409 C-81.8871545 28.71283165 -82.27729179 39.66253384 -82.58129883 50.65231323 C-82.60772964 51.37043686 -82.63416046 52.08856049 -82.66139221 52.82844543 C-82.73266528 54.79472833 -82.78256356 56.76175266 -82.83105469 58.72872925 C-83.47399949 62.57430947 -84.72898079 64.28060285 -87.3894043 67.06832886 C-83.55139055 70.84262244 -81.29044144 72.63468279 -75.6738739 72.66821289 C-74.96302139 72.64709442 -74.25216888 72.62597595 -73.51977539 72.60421753 C-72.75479233 72.60173508 -71.98980927 72.59925262 -71.2016449 72.59669495 C-68.68791901 72.58308075 -66.17612116 72.53449312 -63.6628418 72.48629761 C-61.90981885 72.47188042 -60.15677355 72.45998077 -58.40371704 72.45048523 C-53.79846109 72.42012605 -49.19403378 72.36147297 -44.58917236 72.29507446 C-37.21227812 72.19258439 -29.83503316 72.12914223 -22.45766068 72.07326698 C-19.88269519 72.04910124 -17.30824443 72.01046275 -14.73348999 71.96998596 C-13.15574557 71.95313398 -11.57799706 71.93665953 -10.00024414 71.92062378 C-8.92789268 71.89805511 -8.92789268 71.89805511 -7.83387756 71.87503052 C-4.21032831 71.85051111 -1.36775325 71.87264607 1.6105957 74.06832886 C2.36183784 75.73412663 3.1048718 77.40597009 3.7512207 79.11520386 C5.21877644 82.4505578 7.4213377 85.16904124 9.6105957 88.06832886 C9.2805957 88.72832886 8.9505957 89.38832886 8.6105957 90.06832886 C0.7796448 80.55931705 0.7796448 80.55931705 -0.3894043 75.06832886 C-8.76482065 74.06086965 -17.06495251 73.98091592 -25.48738861 74.08485985 C-27.80052932 74.11190261 -30.11356905 74.12951423 -32.42681885 74.14433289 C-38.99509453 74.18670446 -45.56316781 74.23495045 -52.13110352 74.31515503 C-56.17029366 74.36380181 -60.2092198 74.39270007 -64.24866486 74.40889931 C-65.77804267 74.41875185 -67.30739264 74.43589317 -68.83660126 74.46068382 C-83.51765334 74.69367449 -83.51765334 74.69367449 -89.3894043 70.06832886 C-89.3894043 67.75832886 -89.3894043 65.44832886 -89.3894043 63.06832886 C-87.9044043 62.57332886 -87.9044043 62.57332886 -86.3894043 62.06832886 C-85.66472872 58.77607476 -85.24403719 55.66262065 -85.14331055 52.29489136 C-85.11197021 51.3952063 -85.08062988 50.49552124 -85.04833984 49.568573 C-85.01651611 48.61974243 -84.98469238 47.67091187 -84.9519043 46.69332886 C-83.44574789 9.86644652 -83.44574789 9.86644652 -76.65197754 3.41963196 C-73.9492453 1.80544755 -72.12614826 1.58363882 -68.99291992 1.40060425 C-67.9279126 1.33624176 -66.86290527 1.27187927 -65.765625 1.20556641 C-60.08807215 0.97478367 -54.4147987 0.83165108 -48.7331543 0.75192261 C-47.4690271 0.73114151 -46.2048999 0.71036041 -44.90246582 0.68894958 C-42.24691663 0.64598494 -39.59139871 0.60445445 -36.93579102 0.56564331 C-33.5675236 0.51641064 -30.19934343 0.46287417 -26.83116913 0.40766811 C-23.56935278 0.35434921 -20.30750523 0.3030758 -17.0456543 0.25192261 C-15.8546814 0.23318588 -14.6637085 0.21444916 -13.43664551 0.19514465 C-11.17640288 0.16189582 -8.91610385 0.13223483 -6.65576172 0.10662842 C-4.43704231 0.0806129 -2.21842118 0.04472237 0 0 Z " fill="#EDC8CE" transform="translate(89.389404296875,7.931671142578125)"/>
	

	<path d="M0 0 C1.17212036 -0.00095673 2.34424072 -0.00191345 3.55187988 -0.00289917 C6.00561579 -0.00357451 8.45935355 -0.00176573 10.91308594 0.00244141 C14.67386839 0.00783778 18.43453352 0.00245468 22.1953125 -0.00390625 C24.58854193 -0.00324611 26.98177129 -0.00196628 29.375 0 C30.49789429 -0.00202423 31.62078857 -0.00404846 32.77770996 -0.00613403 C33.81979614 -0.00298187 34.86188232 0.00017029 35.93554688 0.00341797 C36.84977417 0.00421356 37.76400146 0.00500916 38.70593262 0.00582886 C41.00186499 0.12481175 42.9406695 0.56550136 45.15625 1.1328125 C47.34328385 0.75373968 47.34328385 0.75373968 49.15625 0.1328125 C49.15625 4.1328125 49.15625 4.1328125 48.15625 6.1328125 C47.89481182 9.05856383 47.68406575 11.97125109 47.5078125 14.90234375 C47.38854789 16.69599866 47.26873904 18.48961746 47.1484375 20.28320312 C46.96289514 23.11370582 46.78131323 25.94427125 46.609375 28.77563477 C46.44155465 31.5062912 46.257165 34.2354324 46.0703125 36.96484375 C46.02331207 37.80771439 45.97631165 38.65058502 45.92788696 39.51899719 C45.59979278 44.1209253 45.10943203 47.38546271 42.15625 51.1328125 C39.31548698 52.55319401 36.91085603 52.2679406 33.73461914 52.27807617 C32.74654518 52.28311409 32.74654518 52.28311409 31.73851013 52.28825378 C29.55612311 52.29777014 27.37381274 52.29970721 25.19140625 52.30078125 C23.67687447 52.30399328 22.16234301 52.30735731 20.64781189 52.31086731 C17.47101115 52.31686023 14.29423763 52.31870703 11.11743164 52.31811523 C7.04398824 52.31801358 2.97071903 52.33166796 -1.10268307 52.34888744 C-4.2313365 52.35999827 -7.3599477 52.36203473 -10.48861885 52.36150551 C-11.99054121 52.36268693 -13.49246462 52.36711776 -14.9943676 52.37483788 C-17.09394457 52.38461974 -19.19314171 52.38176713 -21.29272461 52.37573242 C-22.48804306 52.37715744 -23.68336151 52.37858246 -24.91490173 52.38005066 C-27.84375 52.1328125 -27.84375 52.1328125 -30.84375 50.1328125 C-31.20019531 48.23535156 -31.20019531 48.23535156 -31.171875 45.8984375 C-31.16776611 45.02437256 -31.16365723 44.15030762 -31.15942383 43.24975586 C-31.13775146 42.30366455 -31.1160791 41.35757324 -31.09375 40.3828125 C-31.07916748 39.41158447 -31.06458496 38.44035645 -31.04956055 37.43969727 C-31.01341335 35.3862394 -30.96916979 33.33291059 -30.91748047 31.27978516 C-30.84466671 28.17193953 -30.81339308 25.06555941 -30.78515625 21.95703125 C-30.74479563 19.99473629 -30.70191284 18.03249124 -30.65625 16.0703125 C-30.65077148 15.14959961 -30.64529297 14.22888672 -30.63964844 13.28027344 C-30.49984074 9.15825082 -30.16231606 6.67389108 -28.04296875 3.07421875 C-20.34894143 -1.59480638 -8.78690187 -0.01607185 0 0 Z M-28.84375 6.1328125 C-29.61652757 8.74790153 -29.61652757 8.74790153 -29.55078125 11.6484375 C-29.58010742 12.72794678 -29.60943359 13.80745605 -29.63964844 14.91967773 C-29.64512695 16.06251221 -29.65060547 17.20534668 -29.65625 18.3828125 C-29.67848633 19.5469165 -29.70072266 20.71102051 -29.72363281 21.91040039 C-29.76432013 24.24039503 -29.79428308 26.57060412 -29.81298828 28.90087891 C-29.83966299 31.70341667 -29.90555662 34.49975379 -29.99609375 37.30078125 C-30.65299405 43.90489101 -30.65299405 43.90489101 -28.57299805 49.79223633 C-26.46331571 51.42773904 -25.49203052 51.49575955 -22.84765625 51.4609375 C-21.57559326 51.45453247 -21.57559326 51.45453247 -20.27783203 51.44799805 C-19.33020996 51.42648682 -18.38258789 51.40497559 -17.40625 51.3828125 C-16.4044873 51.36968018 -15.40272461 51.35654785 -14.37060547 51.34301758 C-11.98897668 51.30769462 -9.60746004 51.26437236 -7.22607422 51.21533203 C-2.9916988 51.12983034 1.24277023 51.084066 5.47773743 51.03848267 C9.48657721 50.99207946 13.49510705 50.93083573 17.50369263 50.86633301 C19.52452449 50.83561527 21.54542869 50.80934014 23.56637573 50.78747559 C26.43792759 50.75421153 29.30852579 50.70173938 32.1796875 50.64453125 C33.05576157 50.63812119 33.93183563 50.63171112 34.8344574 50.62510681 C37.51861856 50.5940955 37.51861856 50.5940955 41.15625 50.1328125 C43.6096295 46.45274325 43.81231083 43.23135843 44.21875 38.9453125 C44.3422583 37.71977661 44.3422583 37.71977661 44.46826172 36.46948242 C45.48091096 25.71835584 45.81548009 14.92247426 46.15625 4.1328125 C42.64454654 1.97504022 39.80331778 1.86936999 35.72290039 1.84228516 C34.41797134 1.82952545 33.1130423 1.81676575 31.76856995 1.80361938 C30.34701689 1.800562 28.92546184 1.79833409 27.50390625 1.796875 C26.04186371 1.79044568 24.57982245 1.78371722 23.11778259 1.77670288 C20.05546079 1.76473793 16.99325173 1.76102131 13.9309082 1.76220703 C10.01219096 1.76241033 6.09419805 1.73509426 2.1756525 1.70066261 C-0.84330041 1.6783969 -3.86207881 1.67436935 -6.88110542 1.67542648 C-8.32557233 1.67307056 -9.77004404 1.66424737 -11.21442986 1.64876175 C-13.23652645 1.62910971 -15.25883614 1.6374603 -17.28100586 1.64697266 C-18.43032089 1.64412262 -19.57963593 1.64127258 -20.76377869 1.63833618 C-24.51349604 2.24033738 -26.18117063 3.46988996 -28.84375 6.1328125 Z " fill="#DE8693" transform="translate(45.84375,19.8671875)"/>
	

	<path d="M0 0 C4.20291377 -0.07280638 8.4055233 -0.1196342 12.60888672 -0.15869141 C13.79844971 -0.1800415 14.9880127 -0.2013916 16.21362305 -0.22338867 C17.29023193 -0.22781982 18.36684082 -0.23225098 19.47607422 -0.23681641 C20.38212402 -0.24616211 21.28817383 -0.25550781 22.22167969 -0.26513672 C25.44622847 0.19237944 27.19660179 1.04227433 29.73388672 3.09130859 C31.47409392 7.29195815 31.98396388 10.87324705 31.98925781 15.39697266 C31.99621674 16.62554993 32.00317566 17.8541272 32.01034546 19.11993408 C32.00934845 20.43564392 32.00835144 21.75135376 32.00732422 23.10693359 C32.01589623 24.4868869 32.02590004 25.86683198 32.03726196 27.24676514 C32.08327505 33.08113642 32.10810949 38.91545325 32.11474609 44.75 C32.11979764 48.32980646 32.14422924 51.90907689 32.18007278 55.48870087 C32.19446745 57.4947146 32.18727533 59.50084653 32.17953491 61.50689697 C32.261965 69.22077564 33.23450589 75.19571596 36.73388672 82.09130859 C37.20961876 83.06686707 37.20961876 83.06686707 37.69496155 84.06213379 C39.15930151 87.00032445 40.712211 89.89181965 42.24560547 92.79443359 C43.68094214 95.97402453 44.34192213 98.64202022 44.73388672 102.09130859 C42.98388672 103.21630859 42.98388672 103.21630859 40.73388672 104.09130859 C38.48388672 103.21630859 38.48388672 103.21630859 36.73388672 102.09130859 C39.22481482 100.84584454 40.14469405 101.31455079 42.73388672 102.09130859 C42.73388672 100.44130859 42.73388672 98.79130859 42.73388672 97.09130859 C41.24888672 96.59630859 41.24888672 96.59630859 39.73388672 96.09130859 C38.52294922 94.15771484 38.52294922 94.15771484 37.35888672 91.65380859 C36.97990234 90.85072266 36.60091797 90.04763672 36.21044922 89.22021484 C35.72318359 88.18767578 35.23591797 87.15513672 34.73388672 86.09130859 C34.33275162 85.43065903 33.93161652 84.77000946 33.51832581 84.08934021 C29.30788263 76.78116956 29.02939992 70.43071348 29.09716797 62.12255859 C29.08130767 60.11121732 29.06543809 58.09987606 29.04903698 56.08853912 C29.03229733 53.29571867 29.03793453 50.5031173 29.0435791 47.71026611 C29.05005494 42.82283729 29.02702111 37.93552896 28.99491882 33.04821777 C28.98012507 30.45491463 28.97612767 27.86151966 28.98469543 25.26818848 C28.95934002 17.19359954 28.29492235 9.7744155 25.73388672 2.09130859 C15.24175729 2.17565993 4.74978076 2.27052306 -5.74213028 2.37883568 C-10.61386513 2.42879779 -15.48557831 2.4751279 -20.35742188 2.51318359 C-25.05834729 2.55003739 -29.75909133 2.59639771 -34.45986176 2.6493721 C-36.25398326 2.66791553 -38.04814365 2.68302369 -39.8423233 2.69465256 C-42.35389306 2.71151587 -44.86504748 2.74055098 -47.37646484 2.77246094 C-48.49100792 2.77570122 -48.49100792 2.77570122 -49.62806702 2.77900696 C-53.28648998 2.838451 -56.22904882 2.91807769 -59.26611328 5.09130859 C-60.17771422 7.26339448 -60.17771422 7.26339448 -60.51611328 9.71630859 C-60.66564453 10.53357422 -60.81517578 11.35083984 -60.96923828 12.19287109 C-61.06720703 12.81935547 -61.16517578 13.44583984 -61.26611328 14.09130859 C-61.59611328 14.09130859 -61.92611328 14.09130859 -62.26611328 14.09130859 C-62.55813232 9.12698494 -62.41318901 6.05429285 -59.26611328 2.09130859 C-56.4558657 1.1545594 -54.63582201 0.94202164 -51.7199707 0.88598633 C-50.79499283 0.86606125 -49.87001495 0.84613617 -48.91700745 0.8256073 C-47.91201706 0.80887466 -46.90702667 0.79214203 -45.87158203 0.77490234 C-44.8237706 0.75393997 -43.77595917 0.7329776 -42.69639587 0.71138 C-39.28221229 0.64495853 -35.86796122 0.5861225 -32.45361328 0.52880859 C-31.30028503 0.50862671 -30.14695679 0.48844482 -28.9586792 0.46765137 C-22.08727052 0.34805274 -15.21575392 0.23958526 -8.34405518 0.13812256 C-5.56262275 0.09581836 -2.78132056 0.04902872 0 0 Z " fill="#DE8693" transform="translate(73.26611328125,9.90869140625)"/>
	

	

	<path d="M0 0 C0.87664307 0.1738623 1.75328613 0.34772461 2.65649414 0.52685547 C5.83364492 0.97645884 8.32392358 0.91965724 11.49609375 0.5703125 C20.36106624 -0.21126268 29.21422031 -0.14953429 38.1081543 -0.13037109 C41.03244316 -0.12505464 43.95657543 -0.13032149 46.88085938 -0.13671875 C56.342413 -0.14130269 65.79240797 -0.01915991 75.24609375 0.3828125 C76.08632584 0.41317596 76.92655792 0.44353943 77.79225159 0.474823 C81.64387927 0.66444976 83.72837683 0.81891789 87 3 C87.72295356 4.6759378 88.44049372 6.35491175 89.10546875 8.0546875 C90.08741403 10.19009688 91.28758212 11.92754015 92.6875 13.8125 C95 17 95 17 95 19 C95.59167969 19.25007813 96.18335937 19.50015625 96.79296875 19.7578125 C99.30049545 21.16912841 100.57708309 22.59268992 102.3125 24.875 C102.84488281 25.55304688 103.37726563 26.23109375 103.92578125 26.9296875 C105 29 105 29 104.66796875 31.2578125 C104.33732422 32.12019531 104.33732422 32.12019531 104 33 C86.69918926 11.01946176 86.69918926 11.01946176 85.47265625 5.72265625 C85.31667969 5.15417969 85.16070312 4.58570312 85 4 C81.4143938 2.80479793 78.183408 2.89125004 74.45507812 2.93408203 C73.68892685 2.93875488 72.92277557 2.94342773 72.13340759 2.94824219 C70.47026657 2.95874188 68.80713812 2.97140364 67.14402771 2.98596573 C64.51337469 3.00796196 61.8827934 3.02205747 59.2520752 3.03366089 C51.7726051 3.06728619 44.29325437 3.10898828 36.81396484 3.17138672 C32.23937786 3.20898668 27.66491309 3.23204209 23.0901947 3.24569321 C21.3454192 3.25375954 19.60066036 3.26738536 17.85597229 3.28662491 C15.41880107 3.31303595 12.98221817 3.32099069 10.54492188 3.32470703 C9.82171249 3.3370639 9.09850311 3.34942078 8.3533783 3.3621521 C3.44398252 3.3423608 3.44398252 3.3423608 1.02844238 1.47970581 C0.6890564 0.99140289 0.34967041 0.50309998 0 0 Z " fill="#DE8693" transform="translate(5,78)"/>
	

	

	

	

	

	

</svg>
