<?xml version="1.0" encoding="iso-8859-1"?>
<svg height="128" version="1.1" width="128" xmlns="http://www.w3.org/2000/svg">
	

	<path d="M0 0 C42.24 0 84.48 0 128 0 C128 42.24 128 84.48 128 128 C85.76 128 43.52 128 0 128 C0 85.76 0 43.52 0 0 Z " fill="#D4D0CC" transform="translate(0,0)"/>
	

	<path d="M0 0 C3.63 0 7.26 0 11 0 C11.33 0.99 11.66 1.98 12 3 C21.52070755 3.17415118 31.04155445 3.33948676 40.5625 3.5 C41.27082851 3.51202454 41.97915703 3.52404907 42.70895004 3.53643799 C64.57626631 3.90646899 86.43382084 4.10225615 108.30493164 3.96289062 C109.22767883 3.95866089 110.15042603 3.95443115 111.10113525 3.95007324 C112.80628135 3.94194354 114.51141486 3.9296169 116.2164917 3.91223145 C121.77542549 3.88771275 121.77542549 3.88771275 124 5 C123.90645848 9.92994256 123.80036358 14.85939439 123.68261719 19.78881836 C123.64433007 21.46582634 123.60947669 23.14291638 123.578125 24.82006836 C123.53246821 27.23060432 123.4744759 29.64057557 123.4140625 32.05078125 C123.40251129 32.80087967 123.39096008 33.55097809 123.37905884 34.32380676 C123.27304541 38.06127713 123.12380918 39.81428623 121 43 C120.82805814 40.29191567 120.66243176 37.58365937 120.5 34.875 C120.42845703 33.76318359 120.42845703 33.76318359 120.35546875 32.62890625 C119.93135945 25.41904808 119.95325782 18.22036765 120 11 C114.51904631 10.97526645 109.03812517 10.95712404 103.55712891 10.94506836 C101.69286534 10.94004208 99.8286057 10.93322008 97.96435547 10.92456055 C95.28351876 10.91242037 92.6027342 10.90675461 89.921875 10.90234375 C89.08944275 10.89718246 88.2570105 10.89202118 87.39935303 10.88670349 C86.22859222 10.88659019 86.22859222 10.88659019 85.03417969 10.88647461 C84.00825714 10.88314369 84.00825714 10.88314369 82.96160889 10.87974548 C80.87178404 11.00786015 79.01152256 11.43274249 77 12 C77 13.65 77 15.3 77 17 C77.556875 17.2475 78.11375 17.495 78.6875 17.75 C83.0422081 20.10389627 85.53928538 21.90580277 87.5 26.5625 C89.18159187 30.41614803 90.34395806 31.17197903 94 33 C95.60725635 36.21451269 95.05748185 39.43612536 95 43 C93.35 43.66 91.7 44.32 90 45 C90.48578543 48.12290635 90.9986012 50.99580359 92 54 C92.99 54 93.98 54 95 54 C95.06058594 53.36191406 95.12117188 52.72382812 95.18359375 52.06640625 C95.30927734 50.82697266 95.30927734 50.82697266 95.4375 49.5625 C95.55931641 48.32693359 95.55931641 48.32693359 95.68359375 47.06640625 C96 45 96 45 97 44 C98.66617115 43.95936168 100.33388095 43.957279 102 44 C103.28317892 47.84953676 103.06643637 50.94738135 103 55 C102.360625 55.185625 101.72125 55.37125 101.0625 55.5625 C98.57873787 56.94246056 98.57873787 56.94246056 98.25 60.625 C98.1675 61.73875 98.085 62.8525 98 64 C99.32 64 100.64 64 102 64 C103.32 61.69 104.64 59.38 106 57 C107.65 57.33 109.3 57.66 111 58 C111.05399736 59.45792884 111.09279177 60.91642712 111.125 62.375 C111.14820312 63.18710937 111.17140625 63.99921875 111.1953125 64.8359375 C111 67 111 67 109 69 C108.01 69 107.02 69 106 69 C106.99 72.96 106.99 72.96 108 77 C108.99 77 109.98 77 111 77 C111.33 74.36 111.66 71.72 112 69 C112.66 69.33 113.32 69.66 114 70 C113.64766839 75.4611399 113.64766839 75.4611399 113 78 C110.9375 79.5 110.9375 79.5 109 80 C105.19617819 77.4641188 104.65436511 75.14157581 103.0625 70.99609375 C102.10989294 68.65393656 102.10989294 68.65393656 99 68 C99.33 69.65 99.66 71.3 100 73 C97 72 97 72 96 70.125 C95.505 69.073125 95.505 69.073125 95 68 C94.51789063 67.53722656 94.03578125 67.07445313 93.5390625 66.59765625 C91.86841597 64.86340642 91.24305874 63.54402475 90.375 61.3125 C88.03754852 55.75415082 85.02456815 50.61316598 81.99755859 45.40942383 C79 40.20468587 79 40.20468587 79 38 C77.515 37.505 77.515 37.505 76 37 C74.97265625 35.29296875 74.97265625 35.29296875 74.0625 33.1875 C72.47134967 29.76744124 70.77456567 27.58959463 68 25 C66.75 22.75 66.75 22.75 66 21 C63.10674991 20.59973081 60.90715052 20.39910615 58.39892578 22.06054688 C56.7219249 23.56938198 55.13393971 25.13151119 53.5625 26.75 C49.29908404 31.04941586 45.38439763 34.18471121 40 37 C38.92105469 37.59167969 38.92105469 37.59167969 37.8203125 38.1953125 C37.26085938 38.50210938 36.70140625 38.80890625 36.125 39.125 C32.95206469 40.64847438 32.95206469 40.64847438 32 43 C30.515 43.495 30.515 43.495 29 44 C28.67 44.66 28.34 45.32 28 46 C24.14354879 46.22036864 21.50776784 45.60355101 18 44 C15.92285974 50.07054164 15.56165396 55.80513742 15.33203125 62.19140625 C15.28809738 63.25487778 15.24416351 64.3183493 15.19889832 65.41404724 C15.1083704 67.65371677 15.02205084 69.89355992 14.93969727 72.13354492 C14.8127757 75.55506778 14.67008424 78.97567191 14.52539062 82.39648438 C14.43916523 84.57808809 14.35384797 86.75972793 14.26953125 88.94140625 C14.20557915 90.46973839 14.20557915 90.46973839 14.14033508 92.02894592 C13.9714122 96.83628649 13.94104725 101.26947749 15 106 C19.71983997 107.50533343 23.69668191 108.25422179 28.69458008 108.2746582 C30.62742607 108.28895622 30.62742607 108.28895622 32.59931946 108.30354309 C33.98939034 108.30328157 35.37946123 108.30234408 36.76953125 108.30078125 C38.21530783 108.30467534 39.66108329 108.30901146 41.1068573 108.31376648 C44.13027664 108.32120433 47.15357917 108.32095575 50.17700195 108.31567383 C54.02664788 108.30989068 57.87581087 108.3267937 61.72537708 108.3500185 C64.71020747 108.36484661 67.69492407 108.36561516 70.67978477 108.36250877 C72.09777467 108.36301771 73.51577167 108.36817401 74.93372536 108.37832069 C82.33127893 108.42475624 88.94951855 108.22474361 95.95397949 105.70108032 C99.17240209 104.59826989 102.30352537 104.38255711 105.6875 104.0625 C111.54554838 103.37088379 115.1724504 102.29151109 120 99 C120.99 99 121.98 99 123 99 C123 99.66 123 100.32 123 101 C124.65 101.33 126.3 101.66 128 102 C128 110.58 128 119.16 128 128 C85.76 128 43.52 128 0 128 C0 85.76 0 43.52 0 0 Z " fill="#FBFBFA" transform="translate(0,0)"/>
	

	<path d="M0 0 C3.35620271 1.38877354 5.07298728 2.91677965 7 6 C7 6.66 7 7.32 7 8 C7.66 8 8.32 8 9 8 C10.33984375 9.87890625 10.33984375 9.87890625 11.9375 12.5625 C14.95143591 17.45303752 18.19305562 22.08181797 21.625 26.6875 C24.56075602 30.63135556 27.44392921 34.54410169 30 38.75 C31.60606497 41.35985557 32.88262857 42.91668817 35 45 C36 46.66666667 37 48.33333333 38 50 C41.33047242 55.2285327 41.33047242 55.2285327 46 59 C46.72693904 60.97888961 47.39816251 62.97954558 48 65 C46.84242187 65.12117188 45.68484375 65.24234375 44.4921875 65.3671875 C42.95308708 65.53611316 41.41402663 65.70540332 39.875 65.875 C39.11445312 65.95363281 38.35390625 66.03226562 37.5703125 66.11328125 C33.12024477 66.61199574 29.23982621 67.49421214 25 69 C23.09042397 69.3905951 21.17330729 69.74637629 19.25 70.0625 C15.49985729 70.64753197 15.49985729 70.64753197 12 72 C-2.63080534 72.87751082 -17.2223521 71.89374693 -30 64 C-31.83261503 62.16738497 -31.34481564 59.2218651 -31.5 56.75 C-31.78350656 52.10838272 -31.78350656 52.10838272 -32.5390625 47.53125 C-34.0532028 39.21631005 -33.04013364 29.82247622 -28.375 22.71875 C-25.96393096 19.70491369 -23.26604418 17.80543566 -20.03515625 15.75 C-14.60984788 12.24118897 -9.89001827 8.36401705 -5.1640625 3.953125 C-3 2 -3 2 0 0 Z " fill="#DC141F" transform="translate(61,26)"/>
	

	<path d="M0 0 C2.76953125 0.44921875 2.76953125 0.44921875 4.64453125 2.82421875 C5.76953125 5.44921875 5.76953125 5.44921875 5.76953125 7.44921875 C6.69572266 7.82240234 6.69572266 7.82240234 7.640625 8.203125 C10.16628738 9.68144849 10.69135029 10.73500587 11.83203125 13.38671875 C13.12310214 16.35484326 13.12310214 16.35484326 15.16943359 18.81201172 C18.21844773 21.93173842 20.15364643 25.8839428 22.33203125 29.63671875 C22.82638672 30.46236328 23.32074219 31.28800781 23.83007812 32.13867188 C26.10963279 36.05308983 27.96049058 39.55223287 28.921875 44 C29.20160156 45.13824219 29.48132813 46.27648437 29.76953125 47.44921875 C31.25453125 47.94421875 31.25453125 47.94421875 32.76953125 48.44921875 C33.43619792 49.78255208 34.10286458 51.11588542 34.76953125 52.44921875 C35.93405944 53.58047471 37.10062898 54.70976823 38.28125 55.82421875 C40.87177283 58.65271611 42.85247082 61.92698818 44.92578125 65.14453125 C46.96117182 67.68876946 48.96347218 68.84906936 51.76953125 70.44921875 C53.57247705 73.79754666 53.76953125 75.56403136 53.76953125 79.44921875 C45.18947788 82.65048866 36.77333918 84.54260921 27.77978516 86.06860352 C25.63251737 86.47516053 23.52821419 86.99363578 21.40625 87.515625 C16.50168545 88.61585082 11.78346175 88.79158512 6.76953125 88.76171875 C5.3299707 88.75760986 5.3299707 88.75760986 3.86132812 88.75341797 C-5.37058857 88.62784312 -14.53962053 87.8974937 -23.73046875 87.07421875 C-24.44992676 87.01118561 -25.16938477 86.94815247 -25.91064453 86.88320923 C-27.9869522 86.69797292 -30.06187496 86.50169755 -32.13671875 86.30078125 C-33.33619141 86.18557129 -34.53566406 86.07036133 -35.77148438 85.95166016 C-39.42841953 85.42046503 -42.70639439 84.54078108 -46.23046875 83.44921875 C-47.52686314 78.55172882 -47.31325315 73.75081008 -47.21484375 68.73046875 C-47.19834778 67.79497192 -47.18185181 66.8594751 -47.16485596 65.89562988 C-47.1274456 63.92205885 -47.08691085 61.94854488 -47.04345703 59.97509766 C-46.98069374 56.96002677 -46.93925976 53.94512484 -46.8984375 50.9296875 C-46.85938789 49.0090874 -46.81906594 47.08851265 -46.77734375 45.16796875 C-46.76781677 44.26888794 -46.75828979 43.36980713 -46.74847412 42.44348145 C-46.61800242 37.65814935 -46.35818895 34.32324439 -43.23046875 30.44921875 C-41.390625 29.40234375 -41.390625 29.40234375 -39.29296875 28.69921875 C-32.62518824 26.02772705 -24.98626757 21.19822425 -20.69140625 15.35546875 C-18.86069119 12.96672825 -16.81244397 11.98167238 -14.23046875 10.44921875 C-11.43914347 7.86917282 -8.74217465 5.21121367 -6.046875 2.53125 C-3.23046875 0.44921875 -3.23046875 0.44921875 0 0 Z M-6.73046875 10.51171875 C-12.14576205 15.48878022 -17.88541049 19.68667644 -24.0859375 23.62890625 C-29.34063157 26.97634099 -31.7653525 30.76959092 -34.23046875 36.44921875 C-34.61476743 39.2216592 -34.87227898 41.79734788 -34.98046875 44.57421875 C-35.02300781 45.27675781 -35.06554688 45.97929688 -35.109375 46.703125 C-35.2869395 50.18207386 -35.16216237 53.11008321 -34.23046875 56.44921875 C-34.04315718 59.78336478 -33.91455076 63.1155549 -33.8046875 66.453125 C-33.50426191 69.46257412 -33.50426191 69.46257412 -31.625 71.1640625 C-21.13056815 76.79647372 -9.95301741 78.70638384 1.83203125 78.76171875 C2.53376465 78.7671167 3.23549805 78.77251465 3.95849609 78.77807617 C8.27710523 78.71845552 11.74029707 77.94547122 15.76953125 76.44921875 C17.38766282 76.08399783 19.01296864 75.74878434 20.64453125 75.44921875 C23.69103126 74.87346652 26.66079846 74.2258936 29.64453125 73.38671875 C34.91808277 72.00865076 40.34864892 71.7925413 45.76953125 71.44921875 C44.47236103 66.37846244 42.56727577 63.98200435 38.76953125 60.44921875 C35.57745109 57.02001264 33.48997874 53.80768572 31.76953125 49.44921875 C31.16496094 48.85109375 30.56039062 48.25296875 29.9375 47.63671875 C27.59777618 45.27591633 25.94284781 42.86734873 24.14453125 40.07421875 C20.62761902 34.69657623 16.9597671 29.4564579 13.18310547 24.25830078 C11.3606639 21.7367803 9.64979605 19.24031307 8.1015625 16.5390625 C7.66199219 15.84941406 7.22242188 15.15976562 6.76953125 14.44921875 C6.10953125 14.44921875 5.44953125 14.44921875 4.76953125 14.44921875 C4.50140625 13.68609375 4.23328125 12.92296875 3.95703125 12.13671875 C2.8181862 9.55933257 1.95536454 8.17967011 -0.23046875 6.44921875 C-3.34073655 6.44921875 -4.51369656 8.41069574 -6.73046875 10.51171875 Z " fill="#B87528" transform="translate(63.23046875,19.55078125)"/>
	

	<path d="M0 0 C0.76313004 -0.0033284 1.52626007 -0.0066568 2.31251526 -0.01008606 C3.92554116 -0.01514534 5.5385775 -0.01749469 7.15161133 -0.01733398 C9.61622393 -0.01952 12.08038848 -0.03768457 14.54492188 -0.05664062 C16.11327972 -0.05957487 17.68163969 -0.06155946 19.25 -0.0625 C20.35328896 -0.07327827 20.35328896 -0.07327827 21.47886658 -0.08427429 C25.2104695 -0.06765336 28.02359979 0.09158709 31.19140625 2.16796875 C31.79386689 15.83068645 32.29811513 29.49104223 32.37890625 43.16796875 C32.39179687 44.22878662 32.4046875 45.28960449 32.41796875 46.38256836 C32.41925781 47.36362549 32.42054687 48.34468262 32.421875 49.35546875 C32.42598389 50.21527344 32.43009277 51.07507812 32.43432617 51.9609375 C32.19140625 54.16796875 32.19140625 54.16796875 30.19140625 57.16796875 C27.06640625 57.85546875 27.06640625 57.85546875 24.19140625 58.16796875 C24.19140625 60.80796875 24.19140625 63.44796875 24.19140625 66.16796875 C22.21140625 66.66296875 22.21140625 66.66296875 20.19140625 67.16796875 C18.3336386 64.03298583 17.99000149 61.79325443 18.19140625 58.16796875 C19.51140625 57.50796875 20.83140625 56.84796875 22.19140625 56.16796875 C22.19140625 53.19796875 22.19140625 50.22796875 22.19140625 47.16796875 C20.87140625 47.16796875 19.55140625 47.16796875 18.19140625 47.16796875 C16.87140625 49.47796875 15.55140625 51.78796875 14.19140625 54.16796875 C12.87140625 53.83796875 11.55140625 53.50796875 10.19140625 53.16796875 C10.19140625 50.85796875 10.19140625 48.54796875 10.19140625 46.16796875 C11.51140625 45.50796875 12.83140625 44.84796875 14.19140625 44.16796875 C14.19140625 40.53796875 14.19140625 36.90796875 14.19140625 33.16796875 C11.71640625 33.66296875 11.71640625 33.66296875 9.19140625 34.16796875 C8.86140625 37.13796875 8.53140625 40.10796875 8.19140625 43.16796875 C6.21140625 43.66296875 6.21140625 43.66296875 4.19140625 44.16796875 C1.11448317 38.87566106 1.11448317 38.87566106 1.50390625 35.29296875 C1.73078125 34.59171875 1.95765625 33.89046875 2.19140625 33.16796875 C4.66640625 32.67296875 4.66640625 32.67296875 7.19140625 32.16796875 C6.76206767 28.75248423 6.23650209 25.45332133 5.19140625 22.16796875 C2.8336603 20.48662587 2.8336603 20.48662587 0.19140625 19.16796875 C-0.77734375 17.40234375 -0.77734375 17.40234375 -1.68359375 15.29296875 C-3.76856725 10.61679361 -6.59325273 8.95168452 -10.80859375 6.16796875 C-11.13859375 5.17796875 -11.46859375 4.18796875 -11.80859375 3.16796875 C-9.65842503 -1.13236869 -4.21510615 0.0063598 0 0 Z " fill="#131312" transform="translate(87.80859375,10.83203125)"/>
	

	<path d="M0 0 C-0.99 0.33 -1.98 0.66 -3 1 C-3 2.65 -3 4.3 -3 6 C-2.443125 6.2475 -1.88625 6.495 -1.3125 6.75 C3.0422081 9.10389627 5.53928538 10.90580277 7.5 15.5625 C9.18159187 19.41614803 10.34395806 20.17197903 14 22 C15.60725635 25.21451269 15.05748185 28.43612536 15 32 C13.35 32.66 11.7 33.32 10 34 C10.48578543 37.12290635 10.9986012 39.99580359 12 43 C12.99 43 13.98 43 15 43 C15.09087891 42.04287109 15.09087891 42.04287109 15.18359375 41.06640625 C15.26738281 40.24011719 15.35117188 39.41382813 15.4375 38.5625 C15.51871094 37.73878906 15.59992188 36.91507813 15.68359375 36.06640625 C16 34 16 34 17 33 C18.66617115 32.95936168 20.33388095 32.957279 22 33 C23.28317892 36.84953676 23.06643637 39.94738135 23 44 C22.360625 44.185625 21.72125 44.37125 21.0625 44.5625 C18.57873787 45.94246056 18.57873787 45.94246056 18.25 49.625 C18.1675 50.73875 18.085 51.8525 18 53 C19.32 53 20.64 53 22 53 C23.32 50.69 24.64 48.38 26 46 C27.65 46.33 29.3 46.66 31 47 C31.05399736 48.45792884 31.09279177 49.91642712 31.125 51.375 C31.14820313 52.18710937 31.17140625 52.99921875 31.1953125 53.8359375 C31 56 31 56 29 58 C28.01 58 27.02 58 26 58 C26.66 60.64 27.32 63.28 28 66 C28.99 66 29.98 66 31 66 C31.33 63.36 31.66 60.72 32 58 C32.99 58.495 32.99 58.495 34 59 C33.64766839 64.4611399 33.64766839 64.4611399 33 67 C30.9375 68.5 30.9375 68.5 29 69 C25.19617819 66.4641188 24.65436511 64.14157581 23.0625 59.99609375 C22.10989294 57.65393656 22.10989294 57.65393656 19 57 C19.495 59.475 19.495 59.475 20 62 C17 61 17 61 16 59.125 C15.505 58.073125 15.505 58.073125 15 57 C14.51789063 56.53722656 14.03578125 56.07445312 13.5390625 55.59765625 C11.86841597 53.86340642 11.24305874 52.54402475 10.375 50.3125 C8.03754852 44.75415082 5.02456815 39.61316598 1.99755859 34.40942383 C-1 29.20468587 -1 29.20468587 -1 27 C-1.99 26.67 -2.98 26.34 -4 26 C-5.02734375 24.29296875 -5.02734375 24.29296875 -5.9375 22.1875 C-7.52865033 18.76744124 -9.22543433 16.58959463 -12 14 C-13.25 11.75 -13.25 11.75 -14 10 C-18.14093698 9.79029441 -18.14093698 9.79029441 -22 11 C-22 10.01 -22 9.02 -22 8 C-20.906875 7.5875 -19.81375 7.175 -18.6875 6.75 C-16.09552536 5.66137065 -15.14284881 5.19427438 -13.4375 2.875 C-12 1 -12 1 -9.1875 0.25 C-6.10671722 0.00836998 -3.08873988 -0.07354143 0 0 Z " fill="#BDB6B2" transform="translate(80,11)"/>
	

	<path d="M0 0 C38.61 0 77.22 0 117 0 C117 32.67 117 65.34 117 99 C112.44657592 94.44657592 112.48687252 93.60905122 112.3125 87.5 C112.25814356 82.73892598 112.25814356 82.73892598 111.48364258 78.07617188 C110.92836488 75.6924861 110.96590525 73.69429317 111.0859375 71.25 C111.12920166 70.26942627 111.17246582 69.28885254 111.21704102 68.27856445 C111.29523071 66.65567505 111.29523071 66.65567505 111.375 65 C111.94401457 51.77392654 112.27475016 38.54739246 112.5625 25.3125 C112.58455505 24.30759521 112.60661011 23.30269043 112.6293335 22.26733398 C112.75548539 16.51160953 112.87895974 10.75583414 113 5 C112.41612015 5.00222061 111.8322403 5.00444122 111.23066711 5.00672913 C83.21142957 5.10794383 55.20286532 5.07526611 27.1875 4.5625 C26.03190582 4.54285187 24.87631165 4.52320374 23.68569946 4.50296021 C20.42965318 4.44633306 17.17382907 4.38279145 13.91796875 4.31640625 C12.95180634 4.29968872 11.98564392 4.28297119 10.99020386 4.26574707 C10.10809235 4.24580688 9.22598083 4.2258667 8.31713867 4.20532227 C7.16818367 4.18200584 7.16818367 4.18200584 5.99601746 4.15821838 C4 4 4 4 1 3 C0.67 2.01 0.34 1.02 0 0 Z " fill="#786B65" transform="translate(11,0)"/>
	

	<path d="M0 0 C2.76953125 0.44921875 2.76953125 0.44921875 4.64453125 2.82421875 C5.76953125 5.44921875 5.76953125 5.44921875 5.76953125 7.44921875 C6.69572266 7.82240234 6.69572266 7.82240234 7.640625 8.203125 C10.16628738 9.68144849 10.69135029 10.73500587 11.83203125 13.38671875 C13.12310214 16.35484326 13.12310214 16.35484326 15.16943359 18.81201172 C18.21844773 21.93173842 20.15364643 25.8839428 22.33203125 29.63671875 C22.82638672 30.46236328 23.32074219 31.28800781 23.83007812 32.13867188 C26.10963279 36.05308983 27.96049058 39.55223287 28.921875 44 C29.20160156 45.13824219 29.48132813 46.27648437 29.76953125 47.44921875 C31.25453125 47.94421875 31.25453125 47.94421875 32.76953125 48.44921875 C33.43619792 49.78255208 34.10286458 51.11588542 34.76953125 52.44921875 C35.55328125 53.23296875 36.33703125 54.01671875 37.14453125 54.82421875 C39.83630847 57.51599597 41.81408099 60.19013498 43.76953125 63.44921875 C43.76953125 64.10921875 43.76953125 64.76921875 43.76953125 65.44921875 C40.23688682 63.99093065 38.40970731 62.14098612 36.08203125 59.13671875 C35.17904297 57.99783203 35.17904297 57.99783203 34.2578125 56.8359375 C32.76953125 54.44921875 32.76953125 54.44921875 32.3125 51.78125 C32.13332031 51.01167969 31.95414062 50.24210937 31.76953125 49.44921875 C30.44199437 48.77108303 29.10759235 48.10634484 27.76953125 47.44921875 C26.27174484 45.38611996 24.94769677 43.3782293 23.64453125 41.19921875 C20.01838309 35.32564217 16.166631 29.69413336 12.04443359 24.15722656 C9.75776655 21.03627251 8.01953433 18.11726057 6.76953125 14.44921875 C6.10953125 14.44921875 5.44953125 14.44921875 4.76953125 14.44921875 C3.84140625 12.96421875 3.84140625 12.96421875 2.89453125 11.44921875 C2.19328125 10.45921875 1.49203125 9.46921875 0.76953125 8.44921875 C-3.68980008 8.44921875 -3.95945562 8.6905244 -6.98046875 11.57421875 C-11.53751355 15.76063514 -16.23345629 19.65905695 -21.55859375 22.83984375 C-27.41093005 26.36674841 -31.03367643 29.85884179 -33.23046875 36.44921875 C-33.87146543 40.45424314 -34.15503118 44.39616385 -34.23046875 48.44921875 C-34.89046875 48.11921875 -35.55046875 47.78921875 -36.23046875 47.44921875 C-36.56380208 46.11588542 -36.89713542 44.78255208 -37.23046875 43.44921875 C-37.89046875 43.11921875 -38.55046875 42.78921875 -39.23046875 42.44921875 C-39.10671875 43.74859375 -38.98296875 45.04796875 -38.85546875 46.38671875 C-38.78585938 47.11761719 -38.71625 47.84851563 -38.64453125 48.6015625 C-38.50789063 49.21128906 -38.37125 49.82101563 -38.23046875 50.44921875 C-37.57046875 50.77921875 -36.91046875 51.10921875 -36.23046875 51.44921875 C-37.37064877 54.86975881 -38.15505393 55.69183885 -41.23046875 57.44921875 C-43.41796875 57.26171875 -43.41796875 57.26171875 -45.23046875 56.44921875 C-46.97871715 52.95272195 -46.45755711 48.9887382 -46.48046875 45.13671875 C-46.50109375 44.28142578 -46.52171875 43.42613281 -46.54296875 42.54492188 C-46.57276313 37.73685408 -46.51863042 34.2569545 -43.23046875 30.44921875 C-41.390625 29.40234375 -41.390625 29.40234375 -39.29296875 28.69921875 C-32.62518824 26.02772705 -24.98626757 21.19822425 -20.69140625 15.35546875 C-18.86069119 12.96672825 -16.81244397 11.98167238 -14.23046875 10.44921875 C-11.43914347 7.86917282 -8.74217465 5.21121367 -6.046875 2.53125 C-3.23046875 0.44921875 -3.23046875 0.44921875 0 0 Z " fill="#7B2D26" transform="translate(63.23046875,19.55078125)"/>
	

	<path d="M0 0 C0.99 0.33 1.98 0.66 3 1 C4.20568053 5.67201205 4.09382426 10.21496292 4 15 C19.49036461 23.50121962 36.77134235 26.65797205 54 22 C57.51645879 21.10702403 61.03910307 20.24013101 64.5625 19.375 C65.9227832 19.03082031 65.9227832 19.03082031 67.31054688 18.6796875 C74.09395632 17.02687708 80.11530373 16.33098272 87 18 C87 16.68 87 15.36 87 14 C90 15 90 15 91.1875 17.3125 C92 20 92 20 92 24 C83.62656023 27.24376495 75.97128765 28.71060362 67 29 C69.75545698 27.51336017 72.27010688 26.5849771 75.328125 25.9296875 C76.12734375 25.75566406 76.9265625 25.58164063 77.75 25.40234375 C78.9875 25.14130859 78.9875 25.14130859 80.25 24.875 C81.09046875 24.69324219 81.9309375 24.51148437 82.796875 24.32421875 C84.86355111 23.87800459 86.93164277 23.43835555 89 23 C89 22.34 89 21.68 89 21 C74.80866351 22.46713044 74.80866351 22.46713044 61.24829102 26.75292969 C54.52195737 29.40343764 48.0027141 29.45921924 40.83325195 29.39111328 C38.80547699 29.374944 36.77966995 29.39107531 34.75195312 29.41015625 C33.45837891 29.40628906 32.16480469 29.40242188 30.83203125 29.3984375 C29.66389893 29.39505371 28.4957666 29.39166992 27.29223633 29.38818359 C23.61926536 28.95510804 21.20648948 27.79548379 18 26 C15.89823783 25.32302832 15.89823783 25.32302832 13.9375 24.9375 C11.57842551 24.40581465 9.66956482 23.85493089 7.4375 22.875 C4.23872593 21.72672213 1.37541387 21.94485905 -2 22 C-2.25494218 18.89738494 -2.47447008 15.79325198 -2.6875 12.6875 C-2.76033203 11.80642578 -2.83316406 10.92535156 -2.90820312 10.01757812 C-2.96298828 9.17001953 -3.01777344 8.32246094 -3.07421875 7.44921875 C-3.13182373 6.66893311 -3.18942871 5.88864746 -3.2487793 5.0847168 C-2.93485931 2.45413512 -2.01131557 1.64353215 0 0 Z " fill="#CE917C" transform="translate(25,75)"/>
	

	<path d="M0 0 C0.76313004 -0.0033284 1.52626007 -0.0066568 2.31251526 -0.01008606 C3.92554116 -0.01514534 5.5385775 -0.01749469 7.15161133 -0.01733398 C9.61622393 -0.01952 12.08038848 -0.03768457 14.54492188 -0.05664062 C16.11327972 -0.05957487 17.68163969 -0.06155946 19.25 -0.0625 C20.35328896 -0.07327827 20.35328896 -0.07327827 21.47886658 -0.08427429 C25.2104695 -0.06765336 28.02359979 0.09158709 31.19140625 2.16796875 C31.79386689 15.83068645 32.29811513 29.49104223 32.37890625 43.16796875 C32.39179687 44.22878662 32.4046875 45.28960449 32.41796875 46.38256836 C32.41925781 47.36362549 32.42054687 48.34468262 32.421875 49.35546875 C32.42598389 50.21527344 32.43009277 51.07507812 32.43432617 51.9609375 C32.19140625 54.16796875 32.19140625 54.16796875 30.19140625 57.16796875 C27.06640625 57.85546875 27.06640625 57.85546875 24.19140625 58.16796875 C24.19140625 60.80796875 24.19140625 63.44796875 24.19140625 66.16796875 C22.21140625 66.66296875 22.21140625 66.66296875 20.19140625 67.16796875 C18.3336386 64.03298583 17.99000149 61.79325443 18.19140625 58.16796875 C19.51140625 57.50796875 20.83140625 56.84796875 22.19140625 56.16796875 C22.19140625 53.19796875 22.19140625 50.22796875 22.19140625 47.16796875 C20.87140625 47.16796875 19.55140625 47.16796875 18.19140625 47.16796875 C16.87140625 49.47796875 15.55140625 51.78796875 14.19140625 54.16796875 C12.87140625 53.83796875 11.55140625 53.50796875 10.19140625 53.16796875 C10.19140625 50.85796875 10.19140625 48.54796875 10.19140625 46.16796875 C11.51140625 45.50796875 12.83140625 44.84796875 14.19140625 44.16796875 C14.19140625 40.53796875 14.19140625 36.90796875 14.19140625 33.16796875 C11.71640625 33.66296875 11.71640625 33.66296875 9.19140625 34.16796875 C8.86140625 37.13796875 8.53140625 40.10796875 8.19140625 43.16796875 C6.21140625 43.66296875 6.21140625 43.66296875 4.19140625 44.16796875 C1.11448317 38.87566106 1.11448317 38.87566106 1.50390625 35.29296875 C1.73078125 34.59171875 1.95765625 33.89046875 2.19140625 33.16796875 C4.66640625 32.67296875 4.66640625 32.67296875 7.19140625 32.16796875 C6.76206767 28.75248423 6.23650209 25.45332133 5.19140625 22.16796875 C2.8336603 20.48662587 2.8336603 20.48662587 0.19140625 19.16796875 C-0.77734375 17.40234375 -0.77734375 17.40234375 -1.68359375 15.29296875 C-3.76856725 10.61679361 -6.59325273 8.95168452 -10.80859375 6.16796875 C-11.13859375 5.17796875 -11.46859375 4.18796875 -11.80859375 3.16796875 C-9.65842503 -1.13236869 -4.21510615 0.0063598 0 0 Z M-8.80859375 2.16796875 C-8.31103283 4.92438291 -8.31103283 4.92438291 -6.80859375 7.16796875 C-4.47561942 7.20889812 -2.1415415 7.21038598 0.19140625 7.16796875 C0.12630208 9.15364583 0.06119792 11.13932292 -0.00390625 13.125 C0.05886163 15.48156594 0.05886163 15.48156594 2.19140625 18.16796875 C4.77520802 18.41827852 4.77520802 18.41827852 7.19140625 18.16796875 C7.31257813 18.95042969 7.43375 19.73289062 7.55859375 20.5390625 C7.72617188 21.55097656 7.89375 22.56289063 8.06640625 23.60546875 C8.22882813 24.61480469 8.39125 25.62414062 8.55859375 26.6640625 C8.76742187 27.49035156 8.97625 28.31664063 9.19140625 29.16796875 C9.85140625 29.49796875 10.51140625 29.82796875 11.19140625 30.16796875 C13.66640625 28.68296875 13.66640625 28.68296875 16.19140625 27.16796875 C16.68640625 36.07796875 16.68640625 36.07796875 17.19140625 45.16796875 C20.16140625 44.67296875 20.16140625 44.67296875 23.19140625 44.16796875 C23.33578125 45.40546875 23.48015625 46.64296875 23.62890625 47.91796875 C23.97829127 50.73301374 24.39519991 53.43811845 25.19140625 56.16796875 C27.94782041 55.67040783 27.94782041 55.67040783 30.19140625 54.16796875 C30.2927653 51.76116947 30.33107973 49.38382729 30.32421875 46.9765625 C30.32517548 46.23906265 30.3261322 45.50156281 30.32711792 44.74171448 C30.32780092 43.16708288 30.32593836 41.59244851 30.32177734 40.01782227 C30.31654416 37.66741105 30.32165759 35.31720116 30.328125 32.96679688 C30.33311335 23.03065436 30.23762893 13.05796582 29.19140625 3.16796875 C27.22498516 1.20154766 23.45544663 1.88973863 20.76171875 1.81640625 C19.64251541 1.78167709 19.64251541 1.78167709 18.5007019 1.74624634 C16.9186703 1.69853765 15.33656219 1.65331214 13.75439453 1.61035156 C11.33336353 1.54343743 8.91285411 1.46561601 6.4921875 1.38671875 C4.95705047 1.34178625 3.42189453 1.29749442 1.88671875 1.25390625 C1.16163116 1.23000824 0.43654358 1.20611023 -0.31051636 1.18148804 C-3.45146376 1.1032551 -5.80019081 1.16516777 -8.80859375 2.16796875 Z " fill="#7D716B" transform="translate(87.80859375,10.83203125)"/>
	

	<path d="M0 0 C-0.99 0.33 -1.98 0.66 -3 1 C-3 2.65 -3 4.3 -3 6 C-2.443125 6.2475 -1.88625 6.495 -1.3125 6.75 C3.0422081 9.10389627 5.53928538 10.90580277 7.5 15.5625 C9.18159187 19.41614803 10.34395806 20.17197903 14 22 C15.35439668 24.70879335 15.06501451 27.00933268 15 30 C13.20963542 30.9765625 11.41927083 31.953125 9.62890625 32.9296875 C7.83381685 33.91410024 7.83381685 33.91410024 7 36 C5.515 35.505 5.515 35.505 4 35 C3.67 34.01 3.34 33.02 3 32 C4.32 31.67 5.64 31.34 7 31 C7.33 27.7 7.66 24.4 8 21 C5.69 21.33 3.38 21.66 1 22 C0.67 23.32 0.34 24.64 0 26 C-2.3125 25.375 -2.3125 25.375 -5 24 C-6.06775224 22.03533587 -7.06553465 20.03144641 -8 18 C-9.31328657 16.64691687 -10.64499081 15.31129922 -12 14 C-13.25 11.75 -13.25 11.75 -14 10 C-18.14093698 9.79029441 -18.14093698 9.79029441 -22 11 C-22 10.01 -22 9.02 -22 8 C-20.906875 7.5875 -19.81375 7.175 -18.6875 6.75 C-16.09552536 5.66137065 -15.14284881 5.19427438 -13.4375 2.875 C-12 1 -12 1 -9.1875 0.25 C-6.10671722 0.00836998 -3.08873988 -0.07354143 0 0 Z " fill="#CAC5C1" transform="translate(80,11)"/>
	

	<path d="M0 0 C0.66 0.33 1.32 0.66 2 1 C-0.98704584 3.35035126 -3.98787751 5.68187053 -7 8 C-7.63035156 8.48597656 -8.26070312 8.97195312 -8.91015625 9.47265625 C-11.80875739 11.63175095 -14.50457488 13.29601123 -17.875 14.625 C-18.90625 15.07875 -19.9375 15.5325 -21 16 C-21.93257916 18.79773748 -22.15422052 20.62868966 -22.22119141 23.53149414 C-22.24436432 24.44576675 -22.26753723 25.36003937 -22.29141235 26.30201721 C-22.3112619 27.28645309 -22.33111145 28.27088898 -22.3515625 29.28515625 C-22.37471527 30.29718613 -22.39786804 31.309216 -22.42172241 32.35191345 C-22.46934006 34.4911504 -22.51457676 36.63044146 -22.55761719 38.76977539 C-22.62480773 42.05310472 -22.70253698 45.33606965 -22.78125 48.61914062 C-22.8261569 50.69529884 -22.87044867 52.77147047 -22.9140625 54.84765625 C-22.93796051 55.83411636 -22.96185852 56.82057648 -22.98648071 57.83692932 C-23.0033493 58.74804977 -23.0202179 59.65917023 -23.03759766 60.59790039 C-23.05456696 61.40159561 -23.07153625 62.20529083 -23.08901978 63.03334045 C-23.12988443 65.07882432 -23.12988443 65.07882432 -22 67 C-19.05131907 67.63597765 -19.05131907 67.63597765 -15.375 68 C-14.67205811 68.08048584 -13.96911621 68.16097168 -13.24487305 68.24389648 C3.80189374 70.13594656 20.86418795 71.32800737 38 72 C38 72.33 38 72.66 38 73 C30.15297684 73.07620035 22.30604948 73.12866329 14.45874023 73.16479492 C11.79026928 73.17816361 9.12228282 73.20031605 6.45385742 73.22631836 C2.61370748 73.26279585 -1.22611438 73.27974859 -5.06640625 73.29296875 C-6.84961021 73.31619453 -6.84961021 73.31619453 -8.6688385 73.33988953 C-19.92983892 73.34216651 -19.92983892 73.34216651 -25 70 C-27.98720469 64.84312545 -27.11623288 58.71246257 -26.86328125 52.94140625 C-26.82317429 51.87889145 -26.78306732 50.81637665 -26.741745 49.72166443 C-26.65381783 47.47982529 -26.56017248 45.23820404 -26.46118164 42.99682617 C-26.31318896 39.57841404 -26.19158835 36.15975316 -26.07226562 32.74023438 C-25.98336701 30.55722608 -25.89292335 28.37428005 -25.80078125 26.19140625 C-25.76624344 25.17454239 -25.73170563 24.15767853 -25.69612122 23.11000061 C-25.42016099 17.37778206 -24.64648589 13.11160795 -22 8 C-21.278125 8.144375 -20.55625 8.28875 -19.8125 8.4375 C-18.4203125 8.7159375 -18.4203125 8.7159375 -17 9 C-15.33333333 9.33333333 -13.66666667 9.66666667 -12 10 C-11.67 9.01 -11.34 8.02 -11 7 C-10.01 7 -9.02 7 -8 7 C-7.690625 6.1028125 -7.690625 6.1028125 -7.375 5.1875 C-5.46450791 2.14808077 -3.28595775 1.30069161 0 0 Z " fill="#D7D3CF" transform="translate(40,36)"/>
	

	<path d="M0 0 C2.76953125 0.44921875 2.76953125 0.44921875 4.64453125 2.82421875 C5.76953125 5.44921875 5.76953125 5.44921875 5.76953125 7.44921875 C6.69572266 7.82240234 6.69572266 7.82240234 7.640625 8.203125 C10.16628738 9.68144849 10.69135029 10.73500587 11.83203125 13.38671875 C13.11856527 16.34972435 13.11856527 16.34972435 15.1628418 18.79882812 C18.29907094 22.02036118 20.28170692 26.13988203 22.51953125 30.01171875 C23.03902344 30.88763672 23.55851562 31.76355469 24.09375 32.66601562 C24.57972656 33.50326172 25.06570312 34.34050781 25.56640625 35.203125 C26.01338867 35.96955322 26.46037109 36.73598145 26.92089844 37.52563477 C27.20094727 38.16041748 27.48099609 38.7952002 27.76953125 39.44921875 C27.27453125 40.43921875 27.27453125 40.43921875 26.76953125 41.44921875 C20.83391905 33.2683448 15.11668541 25.03200881 9.76953125 16.44921875 C9.10953125 15.45921875 8.44953125 14.46921875 7.76953125 13.44921875 C7.76953125 12.45921875 7.76953125 11.46921875 7.76953125 10.44921875 C7.17140625 10.24296875 6.57328125 10.03671875 5.95703125 9.82421875 C2.95934358 7.93995793 2.15591349 5.63789791 0.76953125 2.44921875 C-5.02918657 5.19394519 -10.10675831 8.84289081 -14.10546875 13.88671875 C-18.21421626 18.95827903 -23.79489503 22.40048213 -29.359375 25.71875 C-31.90029011 27.30483271 -33.90781284 28.59977769 -34.99609375 31.46484375 C-35.43944856 33.45278949 -35.83732479 35.45073693 -36.23046875 37.44921875 C-37.22046875 38.10921875 -38.21046875 38.76921875 -39.23046875 39.44921875 C-40.22046875 38.78921875 -41.21046875 38.12921875 -42.23046875 37.44921875 C-42.35164063 38.2690625 -42.4728125 39.08890625 -42.59765625 39.93359375 C-42.84902344 41.55007812 -42.84902344 41.55007812 -43.10546875 43.19921875 C-43.26789062 44.2665625 -43.4303125 45.33390625 -43.59765625 46.43359375 C-44.16270757 49.12630746 -44.86469789 51.08494314 -46.23046875 53.44921875 C-46.31167626 50.55281757 -46.37106296 47.65870963 -46.41796875 44.76171875 C-46.44310547 43.94509766 -46.46824219 43.12847656 -46.49414062 42.28710938 C-46.5517689 37.54238099 -46.45712608 34.22091955 -43.23046875 30.44921875 C-41.390625 29.40234375 -41.390625 29.40234375 -39.29296875 28.69921875 C-32.62518824 26.02772705 -24.98626757 21.19822425 -20.69140625 15.35546875 C-18.86069119 12.96672825 -16.81244397 11.98167238 -14.23046875 10.44921875 C-11.43914347 7.86917282 -8.74217465 5.21121367 -6.046875 2.53125 C-3.23046875 0.44921875 -3.23046875 0.44921875 0 0 Z " fill="#746761" transform="translate(63.23046875,19.55078125)"/>
	

	<path d="M0 0 C-0.33 0.99 -0.66 1.98 -1 3 C-2.70239258 3.70776367 -2.70239258 3.70776367 -4.89453125 4.16796875 C-5.68537109 4.33876953 -6.47621094 4.50957031 -7.29101562 4.68554688 C-8.12310547 4.85119141 -8.95519531 5.01683594 -9.8125 5.1875 C-10.63298828 5.36474609 -11.45347656 5.54199219 -12.29882812 5.72460938 C-16.00687512 6.50350976 -19.17916321 7 -23 7 C-23 7.66 -23 8.32 -23 9 C-38.62519495 14.64523172 -56.92011778 12.84509764 -73 10 C-69.29583777 7.64749096 -66.02696671 7.73223336 -61.70703125 7.69140625 C-60.25715776 7.66622768 -58.80728806 7.64082996 -57.35742188 7.61523438 C-55.09107621 7.58663927 -52.82479696 7.56260255 -50.55834961 7.54370117 C-42.28623457 7.46136906 -34.70977553 7.36937581 -27 4 C-7.54723309 -2.55220442 -7.54723309 -2.55220442 0 0 Z " fill="#6A5C56" transform="translate(115,96)"/>
	

	<path d="M0 0 C34.32 0 68.64 0 104 0 C103.67 0.99 103.34 1.98 103 3 C94.0001214 3.04713881 85.0002877 3.08227007 76.0003109 3.10362434 C71.81754454 3.113893 67.63486489 3.12772561 63.45214844 3.15087891 C42.20367386 3.26545149 21.18180092 2.79345376 0 1 C0 0.67 0 0.34 0 0 Z " fill="#1F1E1D" transform="translate(24,0)"/>
	

	<path d="M0 0 C3 1 3 1 4.15625 2.90625 C5.14858319 6.54480503 5.24663239 9.89920841 5.37573242 13.65478516 C5.50587513 22.02037874 5.50587513 22.02037874 8.82421875 29.3828125 C11.56504771 30.82344657 13.95499296 31.43339742 17 32 C18.12148438 32.30292969 19.24296875 32.60585937 20.3984375 32.91796875 C27.30655267 34.60449154 33.97465683 35.26542777 41.0625 35.3125 C41.7644751 35.31805908 42.4664502 35.32361816 43.18969727 35.3293457 C47.50793868 35.26867148 50.97100467 34.49616377 55 33 C56.61813157 32.63477908 58.24343739 32.29956559 59.875 32 C62.9371589 31.42584521 65.88922153 30.7582928 68.875 29.875 C74.1572571 28.48378825 79.58236617 28.83747099 85 29 C84.01 27.515 84.01 27.515 83 26 C83.495 24.515 83.495 24.515 84 23 C86 24.1875 86 24.1875 88 26 C88.125 28.61328125 88.125 28.61328125 88 31 C87.26136719 30.96519531 86.52273437 30.93039063 85.76171875 30.89453125 C79.28244133 30.72164075 73.8505365 31.30983558 67.66015625 33.20703125 C64.25125224 34.223195 60.81770078 34.87471524 57.32421875 35.52734375 C55.20996395 35.95730145 53.19260794 36.51537539 51.125 37.125 C36.30356616 40.87500133 18.53563204 36.56501603 5.6171875 28.98828125 C4.81667969 28.49908203 4.81667969 28.49908203 4 28 C4.01160156 27.15695313 4.02320313 26.31390625 4.03515625 25.4453125 C4.04417969 24.34960938 4.05320312 23.25390625 4.0625 22.125 C4.07990234 20.48917969 4.07990234 20.48917969 4.09765625 18.8203125 C4.19744303 16.04822454 4.19744303 16.04822454 3 14 C0.97536745 13.34786708 0.97536745 13.34786708 -1 13 C0.32 11.68 1.64 10.36 3 9 C2.01 8.67 1.02 8.34 0 8 C0 5.36 0 2.72 0 0 Z " fill="#CF494C" transform="translate(24,62)"/>
	

	<path d="M0 0 C1.32 0.33 2.64 0.66 4 1 C4 1.66 4 2.32 4 3 C13.52070755 3.17415118 23.04155445 3.33948676 32.5625 3.5 C33.27082851 3.51202454 33.97915703 3.52404907 34.70895004 3.53643799 C56.57626631 3.90646899 78.43382084 4.10225615 100.30493164 3.96289062 C101.22767883 3.95866089 102.15042603 3.95443115 103.10113525 3.95007324 C104.80628135 3.94194354 106.51141486 3.9296169 108.2164917 3.91223145 C113.77542549 3.88771275 113.77542549 3.88771275 116 5 C115.67 5.66 115.34 6.32 115 7 C100.74404182 6.9160783 86.48819818 6.82080696 72.23240376 6.71247292 C65.6130464 6.66250201 58.99370506 6.61617185 52.37426758 6.578125 C45.98756469 6.54128252 39.60099559 6.49492503 33.21440697 6.44193649 C30.77636242 6.4233871 28.33828919 6.40828117 25.9002018 6.39665604 C22.48842255 6.37980323 19.07695007 6.35076978 15.6652832 6.31884766 C14.65467834 6.31668747 13.64407349 6.31452728 12.60284424 6.31230164 C4.13598946 6.21093257 4.13598946 6.21093257 0 4 C0 2.68 0 1.36 0 0 Z " fill="#C9C3BF" transform="translate(8,0)"/>
	

	<path d="M0 0 C1.96875 0.16015625 1.96875 0.16015625 4 1 C4.90625 2.99609375 4.90625 2.99609375 5.5 5.4375 C6.29138928 8.9849049 6.29138928 8.9849049 8.96875 11.22265625 C9.97421875 11.60744141 9.97421875 11.60744141 11 12 C11.66 12.33 12.32 12.66 13 13 C15.07773221 13.25828163 17.1629287 13.4582249 19.25 13.625 C20.92835937 13.76808594 20.92835937 13.76808594 22.640625 13.9140625 C25.91876881 13.99792199 28.79418087 13.65087843 32 13 C32.66 14.32 33.32 15.64 34 17 C30.56199676 20.43800324 21.27000046 19.99551765 16.6796875 20.01171875 C11.32176678 19.66929525 6.39041724 19.35058157 2 16 C-0.27003274 11.45993453 -0.86145776 6.06212015 -1 1 C-0.67 0.67 -0.34 0.34 0 0 Z " fill="#AA9F9A" transform="translate(46,66)"/>
	

	<path d="M0 0 C0.33 0 0.66 0 1 0 C1.21952669 22.43393945 1.22543387 44.650962 -1 67 C-2.33333333 65 -3.66666667 63 -5 61 C-5.99 60.34 -6.98 59.68 -8 59 C-7.01 58.67 -6.02 58.34 -5 58 C-3.78305215 55.5661043 -3.87073409 54.00513758 -3.8671875 51.28515625 C-3.86525391 50.30087646 -3.86332031 49.31659668 -3.86132812 48.30249023 C-3.86583984 47.23329346 -3.87035156 46.16409668 -3.875 45.0625 C-3.87693359 43.96687744 -3.87886719 42.87125488 -3.88085938 41.74243164 C-3.94494754 29.15177809 -4.44540502 16.57721107 -5 4 C-12.84591385 2.9840438 -20.65876935 2.68411257 -28.5625 2.4375 C-30.50479492 2.37272461 -30.50479492 2.37272461 -32.48632812 2.30664062 C-35.65746384 2.20132615 -38.82866793 2.09919383 -42 2 C-42 1.67 -42 1.34 -42 1 C-36.76725612 0.97532083 -31.53454597 0.95714997 -26.30175781 0.94506836 C-24.52082733 0.94003289 -22.739901 0.93320419 -20.95898438 0.92456055 C-18.40233335 0.91246058 -15.84573688 0.90676391 -13.2890625 0.90234375 C-12.49005524 0.89718246 -11.69104797 0.89202118 -10.86782837 0.88670349 C-5.22774341 0.88612829 -5.22774341 0.88612829 -3 2 C-2.58935547 4.77563477 -2.58935547 4.77563477 -2.3671875 8.44140625 C-2.25286377 10.2039978 -2.25286377 10.2039978 -2.13623047 12.00219727 C-2.05002441 13.50709717 -1.96381836 15.01199707 -1.875 16.5625 C-1.58625 21.326875 -1.2975 26.09125 -1 31 C-0.67 20.77 -0.34 10.54 0 0 Z " fill="#BCB4B0" transform="translate(123,9)"/>
	

	<path d="M0 0 C1.8125 0.1875 1.8125 0.1875 4 1 C6.32385619 3.97453593 7.32350989 6.99683243 8.375 10.5625 C9.75494002 14.77937255 10.94708212 16.84419262 15 19 C21.07882362 21.05271899 21.07882362 21.05271899 27.1171875 20.03125 C27.73851563 19.6909375 28.35984375 19.350625 29 19 C32.0625 19.125 32.0625 19.125 35 20 C36.875 22.0625 36.875 22.0625 38 24 C37.34 25.32 36.68 26.64 36 28 C34.01432292 27.93489583 32.02864583 27.86979167 30.04296875 27.8046875 C27.68640281 27.86745538 27.68640281 27.86745538 25 30 C22.15850727 29.89778803 19.49484003 29.67743035 16.6875 29.3125 C15.94048828 29.23322266 15.19347656 29.15394531 14.42382812 29.07226562 C9.75561854 28.50257192 6.06577933 27.52103034 2 25 C-1.96926032 18.84080296 -2.18386041 11.18806653 -2 4 C-1.01171875 1.57421875 -1.01171875 1.57421875 0 0 Z M1 8 C-0.58895195 12.76685586 0.65755077 17.23716149 2 22 C4.28230671 25.09215748 5.36923611 25.78974537 9 27 C17.60934932 28.03312192 25.58015766 28.39717864 34 26 C34 24.68 34 23.36 34 22 C31.28044639 21.0209607 29.72125357 21.04372493 26.8125 21.5 C21.48135538 22.19916651 16.20312259 22.41225807 11.5625 19.4375 C11.046875 18.963125 10.53125 18.48875 10 18 C9.34 18 8.68 18 8 18 C7.82984375 17.36191406 7.6596875 16.72382812 7.484375 16.06640625 C7.12085938 14.82697266 7.12085938 14.82697266 6.75 13.5625 C6.51796875 12.73878906 6.2859375 11.91507813 6.046875 11.06640625 C5.19229321 8.80004532 5.19229321 8.80004532 2.890625 8.21484375 C2.26671875 8.14394531 1.6428125 8.07304688 1 8 Z " fill="#CF5452" transform="translate(45,58)"/>
	

	<path d="M0 0 C1.73443359 -0.03867187 1.73443359 -0.03867187 3.50390625 -0.078125 C4.47199219 0.03015625 5.44007812 0.1384375 6.4375 0.25 C9.04706574 4.16434861 8.28240082 5.71825926 7.4375 10.25 C7.251875 11.384375 7.06625 12.51875 6.875 13.6875 C6.730625 14.533125 6.58625 15.37875 6.4375 16.25 C4.1275 16.25 1.8175 16.25 -0.5625 16.25 C-1.0575 13.775 -1.0575 13.775 -1.5625 11.25 C-0.2425 10.26 1.0775 9.27 2.4375 8.25 C1.4475 7.92 0.4575 7.59 -0.5625 7.25 C-3.97093742 10.13406243 -5.42841384 11.6208265 -6.375 16.0625 C-6.436875 17.114375 -6.49875 18.16625 -6.5625 19.25 C-6.8925 19.25 -7.2225 19.25 -7.5625 19.25 C-7.8925 16.94 -8.2225 14.63 -8.5625 12.25 C-10.2125 12.25 -11.8625 12.25 -13.5625 12.25 C-13.5625 11.26 -13.5625 10.27 -13.5625 9.25 C-12.9025 9.58 -12.2425 9.91 -11.5625 10.25 C-9.99977811 5.85746227 -9.99977811 5.85746227 -9.5625 1.25 C-6.20911312 0.13220437 -3.52998767 0.04732944 0 0 Z " fill="#322E2D" transform="translate(103.5625,16.75)"/>
	

	<path d="M0 0 C0.99 1.32 1.98 2.64 3 4 C4.65 3.34 6.3 2.68 8 2 C9.59412284 5.18824568 9.10174735 8.62896662 9.0625 12.125 C9.05798828 12.87910156 9.05347656 13.63320313 9.04882812 14.41015625 C9.03703499 16.27347127 9.01909942 18.13674555 9 20 C10.98 19.34 12.96 18.68 15 18 C15.33 19.32 15.66 20.64 16 22 C14.02 22 12.04 22 10 22 C8.68 24.31 7.36 26.62 6 29 C4.68 28.67 3.36 28.34 2 28 C2 25.69 2 23.38 2 21 C3.32 20.34 4.64 19.68 6 19 C6 15.37 6 11.74 6 8 C4.35 8.33 2.7 8.66 1 9 C0.67 11.97 0.34 14.94 0 18 C-1.32 18.33 -2.64 18.66 -4 19 C-7.07692308 13.70769231 -7.07692308 13.70769231 -6.6875 10.125 C-6.3471875 9.073125 -6.3471875 9.073125 -6 8 C-4.35 7.67 -2.7 7.34 -1 7 C-0.67 4.69 -0.34 2.38 0 0 Z " fill="#685953" transform="translate(96,36)"/>
	

	<path d="M0 0 C0.33 0 0.66 0 1 0 C1 26.07 1 52.14 1 79 C-5.63821429 65.72357142 -2.84107336 50.39872725 -2.20043945 35.99072266 C-2.06252154 32.87548656 -1.93041758 29.76004036 -1.79882812 26.64453125 C-1.7112862 24.63540144 -1.62340704 22.6262863 -1.53515625 20.6171875 C-1.47727684 19.24178299 -1.47727684 19.24178299 -1.41822815 17.83859253 C-1.14743678 11.86617061 -0.65488123 5.94246114 0 0 Z " fill="#322E2D" transform="translate(127,9)"/>
	

	<path d="M0 0 C0 0.99 0 1.98 0 3 C-0.886875 3.53625 -1.77375 4.0725 -2.6875 4.625 C-7.07041392 7.38768982 -9.24888184 11.19148603 -11 16 C-11.65370419 20.00393817 -11.92455033 23.94629516 -12 28 C-12.66 27.67 -13.32 27.34 -14 27 C-14.33333333 25.66666667 -14.66666667 24.33333333 -15 23 C-15.66 22.67 -16.32 22.34 -17 22 C-16.87625 23.299375 -16.7525 24.59875 -16.625 25.9375 C-16.52058594 27.03384766 -16.52058594 27.03384766 -16.4140625 28.15234375 C-16.27742188 28.76207031 -16.14078125 29.37179688 -16 30 C-15.34 30.33 -14.68 30.66 -14 31 C-15.14018002 34.42054006 -15.92458518 35.2426201 -19 37 C-21.1875 36.875 -21.1875 36.875 -23 36 C-24.35949488 31.92151537 -23.14486103 28.82319055 -22.0625 24.8125 C-21.86720703 24.06291016 -21.67191406 23.31332031 -21.47070312 22.54101562 C-20.98785625 20.69206541 -20.49489367 18.84576224 -20 17 C-18.68 17.33 -17.36 17.66 -16 18 C-13.78737741 15.1379411 -13.78737741 15.1379411 -13.5 11.75 C-12.08959089 6.22589764 -6.5951511 3.74777617 -2 1 C-1.34 0.67 -0.68 0.34 0 0 Z " fill="#8E2D24" transform="translate(41,40)"/>
	

	<path d="M0 0 C2.475 0.495 2.475 0.495 5 1 C5.05399736 2.45792884 5.09279177 3.91642712 5.125 5.375 C5.14820312 6.18710937 5.17140625 6.99921875 5.1953125 7.8359375 C5 10 5 10 3 12 C2.01 12 1.02 12 0 12 C0.66 14.64 1.32 17.28 2 20 C2.99 20 3.98 20 5 20 C5.33 17.36 5.66 14.72 6 12 C6.66 12.33 7.32 12.66 8 13 C7.64766839 18.4611399 7.64766839 18.4611399 7 21 C4.9375 22.5 4.9375 22.5 3 23 C-0.80382181 20.4641188 -1.34563489 18.14157581 -2.9375 13.99609375 C-3.89010706 11.65393656 -3.89010706 11.65393656 -7 11 C-6.67 12.65 -6.34 14.3 -6 16 C-9 15 -9 15 -10 13.125 C-10.495 12.073125 -10.495 12.073125 -11 11 C-11.515625 10.525625 -12.03125 10.05125 -12.5625 9.5625 C-14.45263121 7.50800956 -14.6324247 5.72005723 -15 3 C-14.401875 3.226875 -13.80375 3.45375 -13.1875 3.6875 C-12.465625 3.790625 -11.74375 3.89375 -11 4 C-9.22809091 2.64555699 -9.22809091 2.64555699 -8 1 C-8 2.98 -8 4.96 -8 7 C-6.68 7 -5.36 7 -4 7 C-2.68 4.69 -1.36 2.38 0 0 Z " fill="#ACA39E" transform="translate(106,57)"/>
	

	<path d="M0 0 C-0.99 0.33 -1.98 0.66 -3 1 C-3 2.65 -3 4.3 -3 6 C-5.475 5.505 -5.475 5.505 -8 5 C-9.44524884 9.42605006 -9.44524884 9.42605006 -10 14 C-9.443125 13.67 -8.88625 13.34 -8.3125 13 C-5.69715478 11.8690399 -3.8193354 11.84337026 -1 12 C-0.67 14.31 -0.34 16.62 0 19 C-1.32 19.33 -2.64 19.66 -4 20 C-4.33 21.32 -4.66 22.64 -5 24 C-5.4125 23.0925 -5.825 22.185 -6.25 21.25 C-7.91087883 18.16551075 -9.51742356 16.40249333 -12 14 C-13.25 11.75 -13.25 11.75 -14 10 C-18.14093698 9.79029441 -18.14093698 9.79029441 -22 11 C-22 10.01 -22 9.02 -22 8 C-20.906875 7.5875 -19.81375 7.175 -18.6875 6.75 C-16.09552536 5.66137065 -15.14284881 5.19427438 -13.4375 2.875 C-12 1 -12 1 -9.1875 0.25 C-6.10671722 0.00836998 -3.08873988 -0.07354143 0 0 Z " fill="#D2CDC9" transform="translate(80,11)"/>
	

	<path d="M0 0 C0.33 0 0.66 0 1 0 C0.99476318 1.0194873 0.98952637 2.03897461 0.98413086 3.08935547 C0.96605624 6.86506271 0.95455895 10.64076612 0.94506836 14.41650391 C0.94003379 16.05192711 0.93320573 17.6873458 0.92456055 19.32275391 C0.91245665 21.67090975 0.906763 24.01900619 0.90234375 26.3671875 C0.89718246 27.10057343 0.89202118 27.83395935 0.88670349 28.58956909 C0.816844 32.42122656 0.816844 32.42122656 2 36 C4.94868093 36.63597765 4.94868093 36.63597765 8.625 37 C9.32794189 37.08048584 10.03088379 37.16097168 10.75512695 37.24389648 C27.80189374 39.13594656 44.86418795 40.32800737 62 41 C62 41.33 62 41.66 62 42 C46.76809888 42.19869026 31.57853142 42.28019223 16.375 41.1875 C14.76069092 41.08236084 14.76069092 41.08236084 13.11376953 40.97509766 C3.85273267 40.22686681 3.85273267 40.22686681 0 37 C-1.19557326 34.60885347 -1.12918041 33.11699173 -1.1328125 30.44921875 C-1.13474609 29.52834473 -1.13667969 28.6074707 -1.13867188 27.65869141 C-1.13416016 26.67819824 -1.12964844 25.69770508 -1.125 24.6875 C-1.12306641 23.69669434 -1.12113281 22.70588867 -1.11914062 21.68505859 C-1.07644735 14.41415726 -0.7643921 7.2344252 0 0 Z " fill="#B59C92" transform="translate(16,67)"/>
	

	

	<path d="M0 0 C0.66 0.33 1.32 0.66 2 1 C1.98081009 1.86506668 1.96162018 2.73013336 1.94184875 3.62141418 C1.76296806 11.81462014 1.59966679 20.00796171 1.45341206 28.20181751 C1.37770176 32.41333609 1.2961872 36.62456801 1.20092773 40.83569336 C1.10904303 44.90742657 1.03303215 48.97918752 0.96755028 53.05142784 C0.93999687 54.59708209 0.90693566 56.14264929 0.86800575 57.68805885 C0.6688651 65.73785413 0.75793382 73.08716798 3.31774902 80.83764648 C4.20933637 83.66347905 4.30235334 86.23959754 4.1875 89.1875 C4.14689453 90.57001953 4.14689453 90.57001953 4.10546875 91.98046875 C4.05326172 92.98013672 4.05326172 92.98013672 4 94 C0.91998315 91.59008661 0.06466454 90.39766496 -0.57421875 86.46875 C-0.61160156 85.1590625 -0.64898437 83.849375 -0.6875 82.5 C-0.74185644 77.73892598 -0.74185644 77.73892598 -1.51635742 73.07617188 C-2.07163512 70.6924861 -2.03409475 68.69429317 -1.9140625 66.25 C-1.87079834 65.26942627 -1.82753418 64.28885254 -1.78295898 63.27856445 C-1.73083252 62.19663818 -1.67870605 61.11471191 -1.625 60 C-1.05598543 46.77392654 -0.72524984 33.54739246 -0.4375 20.3125 C-0.41544495 19.30759521 -0.39338989 18.30269043 -0.3706665 17.26733398 C-0.24451461 11.51160953 -0.12104026 5.75583414 0 0 Z " fill="#81756F" transform="translate(124,5)"/>
	

	<path d="M0 0 C3 1 3 1 4.1875 3.3125 C5 6 5 6 5 10 C-3.37343977 13.24376495 -11.02871235 14.71060362 -20 15 C-17.24454302 13.51336017 -14.72989312 12.5849771 -11.671875 11.9296875 C-10.87265625 11.75566406 -10.0734375 11.58164063 -9.25 11.40234375 C-8.0125 11.14130859 -8.0125 11.14130859 -6.75 10.875 C-5.90953125 10.69324219 -5.0690625 10.51148437 -4.203125 10.32421875 C-2.13644889 9.87800459 -0.06835723 9.43835555 2 9 C2 8.34 2 7.68 2 7 C-12.19278065 8.44594241 -12.19278065 8.44594241 -25.73852539 12.75952148 C-33.17376271 15.72223818 -40.70187113 15.33518285 -48.5625 15.1875 C-49.96678247 15.17242111 -51.37108066 15.15873839 -52.77539062 15.14648438 C-56.18400115 15.11134406 -59.5917927 15.06214123 -63 15 C-63 14.67 -63 14.34 -63 14 C-62.25951416 13.98541748 -61.51902832 13.97083496 -60.75610352 13.95581055 C-57.35774587 13.88072778 -53.9603066 13.78426719 -50.5625 13.6875 C-49.39783203 13.66494141 -48.23316406 13.64238281 -47.03320312 13.61914062 C-40.09795661 13.40424566 -34.43961839 12.51998827 -28 10 C-19.36645315 7.40814846 -11.04633935 5.37614717 -2 5 C-1.34 3.35 -0.68 1.7 0 0 Z " fill="#8D827C" transform="translate(112,89)"/>
	

	<path d="M0 0 C0.49230769 6.4 0.49230769 6.4 -2 9.4375 C-2.99 10.2109375 -2.99 10.2109375 -4 11 C-4.99 10.34 -5.98 9.68 -7 9 C-7.12117188 9.81984375 -7.24234375 10.6396875 -7.3671875 11.484375 C-7.53476562 12.56203125 -7.70234375 13.6396875 -7.875 14.75 C-8.03742187 15.81734375 -8.19984375 16.8846875 -8.3671875 17.984375 C-8.93223882 20.67708871 -9.63422914 22.63572439 -11 25 C-11.08120751 22.10359882 -11.14059421 19.20949088 -11.1875 16.3125 C-11.21263672 15.49587891 -11.23777344 14.67925781 -11.26367188 13.83789062 C-11.32142419 9.08294973 -11.19702911 5.80669513 -8 2 C-5.22397313 0.8102742 -3.02579928 0 0 0 Z " fill="#A98579" transform="translate(28,48)"/>
	

	

	<path d="M0 0 C0.33 0 0.66 0 1 0 C1.05796132 4.10410755 1.09358313 8.20811016 1.125 12.3125 C1.14175781 13.47974609 1.15851563 14.64699219 1.17578125 15.84960938 C1.18222656 16.96787109 1.18867187 18.08613281 1.1953125 19.23828125 C1.20578613 20.26993408 1.21625977 21.30158691 1.22705078 22.36450195 C1 25 1 25 -1 28 C-4.125 28.6875 -4.125 28.6875 -7 29 C-7 31.64 -7 34.28 -7 37 C-8.98 37.495 -8.98 37.495 -11 38 C-12.85776765 34.86501708 -13.20140476 32.62528568 -13 29 C-12.35546875 28.76539062 -11.7109375 28.53078125 -11.046875 28.2890625 C-8.7922092 27.18838927 -8.7922092 27.18838927 -8.390625 24.8359375 C-8.34421875 24.02382812 -8.2978125 23.21171875 -8.25 22.375 C-8.19328125 21.55773437 -8.1365625 20.74046875 -8.078125 19.8984375 C-8.05234375 19.27195312 -8.0265625 18.64546875 -8 18 C-7.34 18 -6.68 18 -6 18 C-6 20.64 -6 23.28 -6 26 C-3.24358584 25.50243908 -3.24358584 25.50243908 -1 24 C-0.84235595 22.22130274 -0.74899323 20.43681524 -0.68359375 18.65234375 C-0.64169922 17.57275391 -0.59980469 16.49316406 -0.55664062 15.38085938 C-0.51732422 14.24455078 -0.47800781 13.10824219 -0.4375 11.9375 C-0.39431641 10.79732422 -0.35113281 9.65714844 -0.30664062 8.48242188 C-0.20017161 5.65507805 -0.09815793 2.82764262 0 0 Z " fill="#877B76" transform="translate(119,40)"/>
	

	

	<path d="M0 0 C1 1 1 1 1.12025452 3.05641174 C1.11803391 3.96020065 1.11581329 4.86398956 1.11352539 5.79516602 C1.11344986 6.81614883 1.11337433 7.83713165 1.11329651 8.88905334 C1.10813522 9.9994548 1.10297394 11.10985626 1.09765625 12.25390625 C1.0962413 13.38448959 1.09482635 14.51507294 1.09336853 15.67991638 C1.08775019 19.30747065 1.07519458 22.93496424 1.0625 26.5625 C1.05748736 29.01497307 1.05292405 31.4674471 1.04882812 33.91992188 C1.0377748 39.94663545 1.02101884 45.97331339 1 52 C0.67 52 0.34 52 0 52 C-0.02505615 51.05382813 -0.0501123 50.10765625 -0.07592773 49.1328125 C-0.17185773 45.53930656 -0.27158314 41.94591335 -0.37231445 38.35253906 C-0.41497699 36.81285279 -0.45668147 35.2731396 -0.49731445 33.73339844 C-0.7778856 23.13404403 -1.28467801 12.57955206 -2 2 C-16.85 1.505 -16.85 1.505 -32 1 C-32 0.67 -32 0.34 -32 0 C-28.16716495 -0.19876297 -24.33373312 -0.38195792 -20.5 -0.5625 C-19.42234375 -0.61857422 -18.3446875 -0.67464844 -17.234375 -0.73242188 C-11.34149105 -1.00191352 -5.8161017 -1.04551352 0 0 Z " fill="#70625C" transform="translate(118,12)"/>
	

	<path d="M0 0 C0.40850553 7.08076251 -1.09579269 13.19925959 -3 20 C-3.99 20 -4.98 20 -6 20 C-8.45678748 12.16898992 -8.45678748 12.16898992 -8 8 C-6.50390625 5.76171875 -6.50390625 5.76171875 -4.5625 3.6875 C-3.92441406 2.99011719 -3.28632812 2.29273438 -2.62890625 1.57421875 C-1 0 -1 0 0 0 Z " fill="#CF9784" transform="translate(59,30)"/>
	

	<path d="M0 0 C3.89669589 1.44934203 5.86735736 2.34404119 8 6 C8.309375 7.051875 8.61875 8.10375 8.9375 9.1875 C9.288125 10.115625 9.63875 11.04375 10 12 C12.03243548 12.96877057 12.03243548 12.96877057 14 13 C14.66 11.02 15.32 9.04 16 7 C16.33 7 16.66 7 17 7 C17 9.31 17 11.62 17 14 C15.35 14.33 13.7 14.66 12 15 C12.33 16.32 12.66 17.64 13 19 C14.65 19 16.3 19 18 19 C17.67 19.99 17.34 20.98 17 22 C13.64701576 21.71426743 12.28776635 21.29526864 9.90234375 18.84765625 C5.6389986 12.80438569 2.32059985 7.03813508 0 0 Z " fill="#D3CECA" transform="translate(97,66)"/>
	

	<path d="M0 0 C1.875 0.125 1.875 0.125 4 1 C6.32385619 3.97453593 7.32350989 6.99683243 8.375 10.5625 C9.68351075 14.73034906 11.25523694 16.59951086 15 19 C15.66 19.66 16.32 20.32 17 21 C14.8125 21.3125 14.8125 21.3125 12 21 C8.7112266 18.41596376 6.93088234 16.13108441 5.5625 12.25 C5.046875 11.1775 4.53125 10.105 4 9 C0.91630113 7.94250443 0.91630113 7.94250443 -2 8 C-1.125 1.125 -1.125 1.125 0 0 Z " fill="#9E504E" transform="translate(45,58)"/>
	

	<path d="M0 0 C0.33 0 0.66 0 1 0 C1 17.49 1 34.98 1 53 C-1.74206328 48.88690508 -2.11301146 46.32625599 -1.9140625 41.50390625 C-1.87079834 40.39635986 -1.82753418 39.28881348 -1.78295898 38.14770508 C-1.70476929 36.37302856 -1.70476929 36.37302856 -1.625 34.5625 C-1.57609619 33.35940186 -1.52719238 32.15630371 -1.47680664 30.91674805 C-1.04963966 20.60801269 -0.55214315 10.30275623 0 0 Z " fill="#0D0E0D" transform="translate(127,29)"/>
	

	<path d="M0 0 C1.32 0.33 2.64 0.66 4 1 C4.25 6.625 4.25 6.625 2 10 C1.97360171 12.29714187 1.97360171 12.29714187 2.375 14.6875 C2.48585938 15.49574219 2.59671875 16.30398437 2.7109375 17.13671875 C2.80632812 17.75160156 2.90171875 18.36648437 3 19 C-4.64252747 23.07727892 -10.36676998 24.16927902 -19 24 C-19 23.67 -19 23.34 -19 23 C-18.2265625 22.87882812 -17.453125 22.75765625 -16.65625 22.6328125 C-10.68117941 21.67147688 -4.84407421 20.57340459 1 19 C0.54917531 17.53932801 0.08906463 16.08151968 -0.375 14.625 C-0.63023438 13.81289062 -0.88546875 13.00078125 -1.1484375 12.1640625 C-1.89854283 9.83540815 -1.89854283 9.83540815 -4 8 C-3.34 7.67 -2.68 7.34 -2 7 C-1.26924352 4.6859378 -0.59861742 2.35171131 0 0 Z " fill="#B6AEAA" transform="translate(116,80)"/>
	

	<path d="M0 0 C0.99 0 1.98 0 3 0 C2.61387352 8.37495014 1.54824033 16.00269231 -1 24 C-2.32 24.33 -3.64 24.66 -5 25 C-8.08476905 20.37284643 -9.1475191 15.55655258 -9 10 C-7.18893065 6.68403061 -4.86307834 4.4273925 -2 2 C-1.34 1.34 -0.68 0.68 0 0 Z M-3.625 5.3125 C-5.92866644 7.95133102 -6.92956575 9.40371002 -7.34375 12.91015625 C-7.13285947 15.76847611 -6.89047878 18.27348249 -6 21 C-4.515 21.99 -4.515 21.99 -3 23 C-2.51891725 21.58398286 -2.04021859 20.16715563 -1.5625 18.75 C-1.29566406 17.96109375 -1.02882813 17.1721875 -0.75390625 16.359375 C0.41372714 12.70522699 1.12667459 9.60047556 1.0625 5.75 C1.041875 4.5125 1.02125 3.275 1 2 C-0.9902784 2 -2.30784164 4.0032131 -3.625 5.3125 Z " fill="#CF494C" transform="translate(58,28)"/>
	

	<path d="M0 0 C0 1.32 0 2.64 0 4 C-20.49906425 8.00062383 -20.49906425 8.00062383 -28 3 C-26.2709226 2.97274659 -24.54171824 2.95349013 -22.8125 2.9375 C-21.84957031 2.92589844 -20.88664062 2.91429688 -19.89453125 2.90234375 C-17.14423487 2.99513378 -14.67520409 3.37888315 -12 4 C-12 3.01 -12 2.02 -12 1 C-14.64 1 -17.28 1 -20 1 C-20 0.67 -20 0.34 -20 0 C-19.09636719 0.01160156 -18.19273438 0.02320312 -17.26171875 0.03515625 C-15.49248047 0.04869141 -15.49248047 0.04869141 -13.6875 0.0625 C-11.92986328 0.07990234 -11.92986328 0.07990234 -10.13671875 0.09765625 C-0.63820423 -0.19806338 -0.63820423 -0.19806338 0 0 Z " fill="#D48C73" transform="translate(79,80)"/>
	

	<path d="M0 0 C1.76462683 3.08809695 2 4.23312136 2 8 C3.98 7.34 5.96 6.68 8 6 C8.33 7.32 8.66 8.64 9 10 C7.02 10 5.04 10 3 10 C1.68 12.31 0.36 14.62 -1 17 C-2.32 16.67 -3.64 16.34 -5 16 C-5 13.69 -5 11.38 -5 9 C-4.0409375 8.7215625 -4.0409375 8.7215625 -3.0625 8.4375 C-0.57873787 7.05753944 -0.57873787 7.05753944 -0.25 3.375 C-0.1675 2.26125 -0.085 1.1475 0 0 Z " fill="#766863" transform="translate(103,48)"/>
	

	<path d="M0 0 C0.33 0 0.66 0 1 0 C0.99476318 1.0194873 0.98952637 2.03897461 0.98413086 3.08935547 C0.96605624 6.86506271 0.95455895 10.64076612 0.94506836 14.41650391 C0.94003379 16.05192711 0.93320573 17.6873458 0.92456055 19.32275391 C0.91245665 21.67090975 0.906763 24.01900619 0.90234375 26.3671875 C0.89718246 27.10057343 0.89202118 27.83395935 0.88670349 28.58956909 C0.816844 32.42122656 0.816844 32.42122656 2 36 C3.88764903 36.68472665 3.88764903 36.68472665 6.0625 37.125 C6.79597656 37.29257813 7.52945312 37.46015625 8.28515625 37.6328125 C9.13400391 37.81457031 9.13400391 37.81457031 10 38 C10 38.66 10 39.32 10 40 C5.73677629 40.36541918 3.45820536 39.49759276 0 37 C-1.19557326 34.60885347 -1.12918041 33.11699173 -1.1328125 30.44921875 C-1.13474609 29.52834473 -1.13667969 28.6074707 -1.13867188 27.65869141 C-1.13416016 26.67819824 -1.12964844 25.69770508 -1.125 24.6875 C-1.12306641 23.69669434 -1.12113281 22.70588867 -1.11914062 21.68505859 C-1.07644735 14.41415726 -0.7643921 7.2344252 0 0 Z " fill="#D28E76" transform="translate(16,67)"/>
	

	

	<path d="M0 0 C1.65 0.33 3.3 0.66 5 1 C5.02689216 2.47906892 5.04634621 3.95827483 5.0625 5.4375 C5.07410156 6.26121094 5.08570312 7.08492188 5.09765625 7.93359375 C5 10 5 10 4 11 C2.00041636 11.04080783 -0.00045254 11.04254356 -2 11 C-2.28571429 3.57142857 -2.28571429 3.57142857 0 0 Z " fill="#D3CECA" transform="translate(106,57)"/>
	

	<path d="M0 0 C3.76591888 1.68065801 5.1379634 3.27592679 7 7 C7 7.66 7 8.32 7 9 C7.99 9.33 8.98 9.66 10 10 C10.66666667 11.33333333 11.33333333 12.66666667 12 14 C12.78375 14.78375 13.5675 15.5675 14.375 16.375 C17.06677722 19.06677722 19.04454974 21.74091623 21 25 C21 25.66 21 26.32 21 27 C17.46735557 25.5417119 15.64017606 23.69176737 13.3125 20.6875 C12.71050781 19.92824219 12.10851562 19.16898438 11.48828125 18.38671875 C10 16 10 16 9.54296875 13.33203125 C9.36378906 12.56246094 9.18460938 11.79289062 9 11 C7.68903992 10.29034805 6.35277179 9.62628324 5 9 C3.515625 6.8359375 3.515625 6.8359375 2.25 4.375 C1.82203125 3.55773438 1.3940625 2.74046875 0.953125 1.8984375 C0.63859375 1.27195313 0.3240625 0.64546875 0 0 Z " fill="#A33630" transform="translate(86,58)"/>
	

	<path d="M0 0 C2.51242163 3.76863245 2.72737615 6.9822122 3.33984375 11.40625 C4.0622343 14.24451818 4.68579991 15.26016764 7 17 C9.59257669 17.86419223 11.34037707 18.17580932 14.01171875 18.31640625 C14.76904297 18.35830078 15.52636719 18.40019531 16.30664062 18.44335938 C17.48516602 18.50233398 17.48516602 18.50233398 18.6875 18.5625 C19.48478516 18.60568359 20.28207031 18.64886719 21.10351562 18.69335938 C23.06881447 18.79927368 25.03438496 18.90012551 27 19 C26.67 19.99 26.34 20.98 26 22 C23.28962998 21.7434505 20.58265385 21.47028951 17.875 21.1875 C17.11445312 21.11724609 16.35390625 21.04699219 15.5703125 20.97460938 C10.82002031 20.46272444 7.12277703 19.60187453 3 17 C-0.40820207 11.43326996 -0.34803913 6.40649804 0 0 Z " fill="#CF494C" transform="translate(44,66)"/>
	

	<path d="M0 0 C8.77163325 -0.16470403 17.44232179 0.35382607 26.1875 1 C27.53447962 1.09671122 28.88148477 1.19306757 30.22851562 1.2890625 C33.48594415 1.52256992 36.7430725 1.75962219 40 2 C40 2.33 40 2.66 40 3 C35.57088594 3.02486762 31.14180975 3.04293889 26.71264648 3.05493164 C25.2084075 3.05993555 23.70417332 3.06674073 22.19995117 3.07543945 C20.02781991 3.08767884 17.85575341 3.09326786 15.68359375 3.09765625 C14.37962646 3.10289307 13.07565918 3.10812988 11.73217773 3.11352539 C8.06054093 3.00184153 4.60241874 2.72333715 1 2 C0.67 1.34 0.34 0.68 0 0 Z " fill="#675852" transform="translate(13,0)"/>
	

	<path d="M0 0 C-0.06058594 0.93714844 -0.12117188 1.87429688 -0.18359375 2.83984375 C-1.00044172 15.88475789 -1.51031996 28.93924141 -2 42 C-2.33 42 -2.66 42 -3 42 C-2.99476318 40.86457764 -2.98952637 39.72915527 -2.98413086 38.55932617 C-2.96603962 34.34937324 -2.95455286 30.13942376 -2.94506836 25.92944336 C-2.9400376 24.10684634 -2.93321231 22.28425335 -2.92456055 20.46166992 C-2.91244003 17.84292606 -2.90675914 15.22423553 -2.90234375 12.60546875 C-2.89718246 11.78974899 -2.89202118 10.97402924 -2.88670349 10.1335907 C-2.8863754 6.82986071 -2.94774379 4.15676862 -4 1 C-1 0 -1 0 0 0 Z " fill="#675852" transform="translate(128,2)"/>
	

	<path d="M0 0 C3.15140423 0.34069235 4.60781561 0.58076841 6.8125 2.9375 C8 5 8 5 8 7 C4.7 7.66 1.4 8.32 -2 9 C-3 5 -3 5 -1.5625 2.25 C-1.046875 1.5075 -0.53125 0.765 0 0 Z " fill="#FBFBFA" transform="translate(72,16)"/>
	

	<path d="M0 0 C2.625 -0.1875 2.625 -0.1875 5 0 C5.66 1.32 6.32 2.64 7 4 C5.68 5.65 4.36 7.3 3 9 C-0.75283733 7.54728878 -0.75283733 7.54728878 -1.875 5.0625 C-2 3 -2 3 0 0 Z " fill="#DBD7D3" transform="translate(16,11)"/>
	

	

	

	<path d="M0 0 C1.953125 0.15234375 1.953125 0.15234375 4 1 C5.046875 3.06640625 5.046875 3.06640625 5.75 5.5625 C5.99234375 6.38878906 6.2346875 7.21507813 6.484375 8.06640625 C6.65453125 8.70449219 6.8246875 9.34257813 7 10 C6.54625 9.505 6.0925 9.01 5.625 8.5 C4.12364481 6.77390663 4.12364481 6.77390663 2 7 C2.309375 8.27875 2.61875 9.5575 2.9375 10.875 C3.11152344 11.59429687 3.28554688 12.31359375 3.46484375 13.0546875 C3.94846992 15.0585657 3.94846992 15.0585657 5 17 C4.01 16.67 3.02 16.34 2 16 C-0.11373224 11.30281725 -0.85952625 6.13269475 -1 1 C-0.67 0.67 -0.34 0.34 0 0 Z " fill="#A0847A" transform="translate(46,66)"/>
	

	<path d="M0 0 C0.66 0 1.32 0 2 0 C4.03381096 3.45085775 6.04979434 6.91179696 8.0625 10.375 C8.64322266 11.35984375 9.22394531 12.3446875 9.82226562 13.359375 C10.36689453 14.30039062 10.91152344 15.24140625 11.47265625 16.2109375 C11.98062744 17.08024902 12.48859863 17.94956055 13.01196289 18.84521484 C13.33801514 19.55629395 13.66406738 20.26737305 14 21 C13.67 21.66 13.34 22.32 13 23 C2.07289294 8.58769932 2.07289294 8.58769932 0 0 Z " fill="#837772" transform="translate(77,38)"/>
	

	<path d="M0 0 C2.3125 0.125 2.3125 0.125 5 1 C6.875 3.875 6.875 3.875 8 7 C7.67 7.99 7.34 8.98 7 10 C6.01 9.67 5.02 9.34 4 9 C3.01 9.33 2.02 9.66 1 10 C0.67 6.7 0.34 3.4 0 0 Z " fill="#FAFAF9" transform="translate(113,70)"/>
	

	<path d="M0 0 C1.2065625 0.0309375 1.2065625 0.0309375 2.4375 0.0625 C2.4375 2.7025 2.4375 5.3425 2.4375 8.0625 C0.5625 8.6875 0.5625 8.6875 -1.5625 9.0625 C-3.5625 7.0625 -3.5625 7.0625 -3.75 4 C-3.50012994 0.08536902 -3.50012994 0.08536902 0 0 Z " fill="#645A56" transform="translate(85.5625,31.9375)"/>
	

	<path d="M0 0 C-0.33 1.32 -0.66 2.64 -1 4 C-1 3.01 -1 2.02 -1 1 C-2.65 1.33 -4.3 1.66 -6 2 C-6.33 4.97 -6.66 7.94 -7 11 C-8.32 11.33 -9.64 11.66 -11 12 C-13.03435531 8.27034861 -14 6.33094958 -14 2 C-13.34 2 -12.68 2 -12 2 C-11.34 3.98 -10.68 5.96 -10 8 C-9.67 8 -9.34 8 -9 8 C-8.67 5.69 -8.34 3.38 -8 1 C-2.25 -1.125 -2.25 -1.125 0 0 Z " fill="#81746F" transform="translate(103,43)"/>
	

	<path d="M0 0 C0 0.66 0 1.32 0 2 C-0.66 2 -1.32 2 -2 2 C-2 2.66 -2 3.32 -2 4 C-4.88265149 4.96088383 -6.67662271 5.11670941 -9.66796875 5.09765625 C-10.56064453 5.09443359 -11.45332031 5.09121094 -12.37304688 5.08789062 C-13.76620117 5.07532227 -13.76620117 5.07532227 -15.1875 5.0625 C-16.12787109 5.05798828 -17.06824219 5.05347656 -18.03710938 5.04882812 C-20.35813712 5.03704626 -22.67903644 5.02059558 -25 5 C-25 4.67 -25 4.34 -25 4 C-23.24623047 3.81824219 -23.24623047 3.81824219 -21.45703125 3.6328125 C-19.90881329 3.46391599 -18.36063839 3.29462432 -16.8125 3.125 C-15.65911133 3.00705078 -15.65911133 3.00705078 -14.48242188 2.88671875 C-9.51520632 2.33243719 -4.84210634 0 0 0 Z " fill="#D48C73" transform="translate(85,96)"/>
	

	<path d="M0 0 C0.99 0.33 1.98 0.66 3 1 C-2.30113592 7.7963281 -8.24146668 12.26115928 -16 16 C-14.4837251 11.98052572 -12.05620733 10.37553539 -8.5625 8 C-5.0499419 5.60528662 -2.34952214 3.56808785 0 0 Z " fill="#7A6D68" transform="translate(44,33)"/>
	

	<path d="M0 0 C0.33 0 0.66 0 1 0 C1.66 2.31 2.32 4.62 3 7 C4.32 7 5.64 7 7 7 C6.67 7.99 6.34 8.98 6 10 C5.01 10.33 4.02 10.66 3 11 C2.67 11.66 2.34 12.32 2 13 C-2 7.25 -2 7.25 -2 5 C-2.99 4.67 -3.98 4.34 -5 4 C-4.67 3.34 -4.34 2.68 -4 2 C-2.515 2.99 -2.515 2.99 -1 4 C-0.67 2.68 -0.34 1.36 0 0 Z " fill="#B6AEAA" transform="translate(81,33)"/>
	

	<path d="M0 0 C0.33 1.65 0.66 3.3 1 5 C-0.32 5.33 -1.64 5.66 -3 6 C-3.33 7.32 -3.66 8.64 -4 10 C-5.33333333 7.33333333 -6.66666667 4.66666667 -8 2 C-4.77208445 -0.1519437 -3.71599191 -0.20086443 0 0 Z " fill="#B6AEAA" transform="translate(79,25)"/>
	

	<path d="M0 0 C0.99 0.33 1.98 0.66 3 1 C3.33 3.97 3.66 6.94 4 10 C2.35 9.67 0.7 9.34 -1 9 C-1.09765625 2.84765625 -1.09765625 2.84765625 -1 1 C-0.67 0.67 -0.34 0.34 0 0 Z " fill="#FAFAF9" transform="translate(98,45)"/>
	

	<path d="M0 0 C2.8992226 0.46761655 3.86675182 0.86675182 6 3 C5.625 5.125 5.625 5.125 5 7 C3.68 6.67 2.36 6.34 1 6 C0.67 6.66 0.34 7.32 0 8 C-0.66 8 -1.32 8 -2 8 C-1.125 1.125 -1.125 1.125 0 0 Z " fill="#8E2D24" transform="translate(45,58)"/>
	

	<path d="M0 0 C1.6254308 0.14095064 3.25034051 0.28792087 4.875 0.4375 C5.77992187 0.51871094 6.68484375 0.59992188 7.6171875 0.68359375 C10 1 10 1 12 2 C12 2.66 12 3.32 12 4 C10.58376784 4.05447047 9.16691809 4.09300508 7.75 4.125 C6.96109375 4.14820312 6.1721875 4.17140625 5.359375 4.1953125 C2.79268059 3.9828378 1.2083933 3.28654105 -1 2 C-0.67 1.34 -0.34 0.68 0 0 Z " fill="#8C2E25" transform="translate(34,101)"/>
	

	<path d="M0 0 C0.33 0 0.66 0 1 0 C1.25 2.75 1.25 2.75 1 6 C-1 8.375 -1 8.375 -3 10 C-4.32 8.68 -5.64 7.36 -7 6 C-6.67 5.34 -6.34 4.68 -6 4 C-4.35 4 -2.7 4 -1 4 C-0.67 2.68 -0.34 1.36 0 0 Z " fill="#675852" transform="translate(27,49)"/>
	

	<path d="M0 0 C2.375 0.3125 2.375 0.3125 5 1 C5.66 1.99 6.32 2.98 7 4 C6.67 4.99 6.34 5.98 6 7 C0.25 6.125 0.25 6.125 -2 5 C-1.34 3.35 -0.68 1.7 0 0 Z " fill="#8E2D24" transform="translate(74,72)"/>
	

	<path d="M0 0 C0.33 0 0.66 0 1 0 C1.33 4.95 1.66 9.9 2 15 C2.33 15 2.66 15 3 15 C3.25 22.625 3.25 22.625 1 26 C-0.15664737 20.51730931 -0.11416255 15.19660726 -0.0625 9.625 C-0.05798828 8.69816406 -0.05347656 7.77132812 -0.04882812 6.81640625 C-0.03711574 4.54420291 -0.02071372 2.27213612 0 0 Z " fill="#DBD7D3" transform="translate(120,25)"/>
	

	<path d="M0 0 C0.66 0.33 1.32 0.66 2 1 C1.40832031 1.45890625 0.81664062 1.9178125 0.20703125 2.390625 C-3.88379822 5.56719079 -7.96818271 8.74853444 -12 12 C-12.66 11.67 -13.32 11.34 -14 11 C-12.6875 9 -12.6875 9 -11 7 C-10.01 7 -9.02 7 -8 7 C-7.79375 6.401875 -7.5875 5.80375 -7.375 5.1875 C-5.46450791 2.14808077 -3.28595775 1.30069161 0 0 Z " fill="#C3BCB8" transform="translate(40,36)"/>
	

	<path d="M0 0 C1.33897583 0.95043374 2.67105427 1.91059147 4 2.875 C5.11375 3.67550781 5.11375 3.67550781 6.25 4.4921875 C6.8275 4.98976563 7.405 5.48734375 8 6 C8 6.66 8 7.32 8 8 C5.125 8.125 5.125 8.125 2 8 C0 6 0 6 -0.125 2.875 C-0.08375 1.92625 -0.0425 0.9775 0 0 Z " fill="#D5D1CD" transform="translate(49,75)"/>
	

	

	<path d="M0 0 C1.5 1.1875 1.5 1.1875 3 3 C3.1875 5.6875 3.1875 5.6875 3 8 C1.35 8.33 -0.3 8.66 -2 9 C-1.125 1.125 -1.125 1.125 0 0 Z " fill="#FAF9F8" transform="translate(91,33)"/>
	

	<path d="M0 0 C2.99324263 1.0975223 3.84610901 1.67682892 5.25 4.625 C5.4975 5.40875 5.745 6.1925 6 7 C5 8 5 8 2.4375 8.0625 C1.633125 8.041875 0.82875 8.02125 0 8 C0 5.36 0 2.72 0 0 Z " fill="#FCFCFB" transform="translate(81,23)"/>
	

	<path d="M0 0 C0.66 0 1.32 0 2 0 C3.7265625 2.1171875 3.7265625 2.1171875 5.625 4.875 C6.25664063 5.77992187 6.88828125 6.68484375 7.5390625 7.6171875 C9 10 9 10 9 12 C4.58848955 10.52949652 2.14860084 6.95377777 0 3 C0 2.01 0 1.02 0 0 Z " fill="#D1655C" transform="translate(98,73)"/>
	

	<path d="M0 0 C2.97 0.495 2.97 0.495 6 1 C5.401875 1.28875 4.80375 1.5775 4.1875 1.875 C0.02297418 3.95202506 0.02297418 3.95202506 -2 8 C-2.22325814 10.05893621 -2.40705759 12.12233653 -2.5625 14.1875 C-2.64628906 15.27417969 -2.73007812 16.36085938 -2.81640625 17.48046875 C-2.87699219 18.31191406 -2.93757813 19.14335938 -3 20 C-3.33 20 -3.66 20 -4 20 C-4.738041 6.3667426 -4.738041 6.3667426 0 0 Z " fill="#B6AEAA" transform="translate(20,47)"/>
	

	

	<path d="M0 0 C0.99 0.33 1.98 0.66 3 1 C2.67 3.31 2.34 5.62 2 8 C0.68 7.67 -0.64 7.34 -2 7 C-1.125 1.125 -1.125 1.125 0 0 Z " fill="#FCFCFB" transform="translate(107,59)"/>
	

	<path d="M0 0 C1.32 0 2.64 0 4 0 C4 2.64 4 5.28 4 8 C2.68 7.67 1.36 7.34 0 7 C0 4.69 0 2.38 0 0 Z " fill="#6A5D58" transform="translate(107,70)"/>
	

	<path d="M0 0 C0.66 0 1.32 0 2 0 C1.41509121 6.14154225 0.45933748 12.00679849 -1 18 C-1.33 18 -1.66 18 -2 18 C-1.85860519 15.74971671 -1.71171997 13.49977794 -1.5625 11.25 C-1.48128906 9.99703125 -1.40007813 8.7440625 -1.31640625 7.453125 C-1.07484478 4.81682447 -0.75716066 2.51962706 0 0 Z " fill="#B87528" transform="translate(19,55)"/>
	

	<path d="M0 0 C3.63 0.33 7.26 0.66 11 1 C11 1.99 11 2.98 11 4 C7.37 4 3.74 4 0 4 C0 2.68 0 1.36 0 0 Z " fill="#B6AEAA" transform="translate(56,80)"/>
	

	<path d="M0 0 C0.33 0 0.66 0 1 0 C1.03738281 1.02480469 1.07476562 2.04960938 1.11328125 3.10546875 C1.17897079 4.46618062 1.24541709 5.82685611 1.3125 7.1875 C1.33505859 7.86103516 1.35761719 8.53457031 1.38085938 9.22851562 C1.61595554 13.60985323 2.42442686 16.44391376 5 20 C3.0625 19.625 3.0625 19.625 1 19 C-0.65497356 15.69005287 -0.10084335 12.00877 -0.0625 8.375 C-0.05573242 7.17230469 -0.05573242 7.17230469 -0.04882812 5.9453125 C-0.03703168 3.96350994 -0.01909605 1.98174567 0 0 Z " fill="#BBB3AF" transform="translate(123,80)"/>
	

	<path d="M0 0 C2 2 2 2 2.046875 3.91015625 C1.94890625 4.62042969 1.8509375 5.33070312 1.75 6.0625 C1.61851563 7.13177734 1.61851563 7.13177734 1.484375 8.22265625 C1.32453125 8.80917969 1.1646875 9.39570312 1 10 C0.01 10.495 0.01 10.495 -1 11 C-2.0257259 6.58937864 -2.03684712 4.07369424 0 0 Z " fill="#FCFCFB" transform="translate(121,84)"/>
	

	<path d="M0 0 C1.38226016 2.76452033 1.09525387 5.0461363 1.0625 8.125 C1.05347656 9.22070312 1.04445313 10.31640625 1.03515625 11.4453125 C1.02355469 12.28835937 1.01195313 13.13140625 1 14 C0.67 14 0.34 14 0 14 C-0.33 10.7 -0.66 7.4 -1 4 C-2.98 4 -4.96 4 -7 4 C-5.53303752 1.06607504 -3.25996861 0 0 0 Z " fill="#322E2D" transform="translate(104,38)"/>
	

	

	<path d="M0 0 C0 1.98 0 3.96 0 6 C-1.65 5.67 -3.3 5.34 -5 5 C-5 3.68 -5 2.36 -5 1 C-2 0 -2 0 0 0 Z " fill="#FCFCFB" transform="translate(114,80)"/>
	

	<path d="M0 0 C0.66 0.33 1.32 0.66 2 1 C0.71451591 2.33929505 -0.57858155 3.67128643 -1.875 5 C-2.59429687 5.7425 -3.31359375 6.485 -4.0546875 7.25 C-6 9 -6 9 -8 9 C-6.4169423 4.7257442 -3.49431596 2.73468206 0 0 Z " fill="#C9C3BF" transform="translate(53,24)"/>
	

	

	<path d="M0 0 C1.12588014 0.95729916 2.2506715 1.91587895 3.375 2.875 C4.00148438 3.40867187 4.62796875 3.94234375 5.2734375 4.4921875 C6.55836651 5.61432007 7.79371975 6.79371975 9 8 C6.05574183 8.24535485 4.34230436 8.17577792 1.6875 6.8125 C0 5 0 5 -0.25 2.3125 C-0.1675 1.549375 -0.085 0.78625 0 0 Z " fill="#932F27" transform="translate(53,71)"/>
	

	

	<path d="M0 0 C1.98 0.495 1.98 0.495 4 1 C4 2.32 4 3.64 4 5 C2.68 4.67 1.36 4.34 0 4 C0 2.68 0 1.36 0 0 Z " fill="#C5BEBA" transform="translate(75,79)"/>
	

	<path d="M0 0 C0.99 0.33 1.98 0.66 3 1 C2.67 3.64 2.34 6.28 2 9 C1.34 8.67 0.68 8.34 0 8 C0 5.36 0 2.72 0 0 Z " fill="#675852" transform="translate(24,62)"/>
	

	<path d="M0 0 C1.32 0.33 2.64 0.66 4 1 C4 2.65 4 4.3 4 6 C3.01 6 2.02 6 1 6 C0.67 4.02 0.34 2.04 0 0 Z " fill="#272524" transform="translate(91,45)"/>
	

	

	<path d="M0 0 C0 1.65 0 3.3 0 5 C-1.32 5 -2.64 5 -4 5 C-4 3.68 -4 2.36 -4 1 C-2 0 -2 0 0 0 Z " fill="#282625" transform="translate(103,57)"/>
	

	<path d="M0 0 C0.66 0.33 1.32 0.66 2 1 C2.59355614 3.64860427 2.74209269 6.29197322 3 9 C2.566875 8.525625 2.13375 8.05125 1.6875 7.5625 C-0.02309613 5.76313043 -0.02309613 5.76313043 -3 5 C-2.34 5 -1.68 5 -1 5 C-0.67 3.35 -0.34 1.7 0 0 Z " fill="#322E2D" transform="translate(110,49)"/>
	

	

	<path d="M0 0 C3.125 0.375 3.125 0.375 6 1 C5.67 1.99 5.34 2.98 5 4 C2.61435923 3.42415568 0.33317216 2.77772405 -2 2 C-1.34 1.34 -0.68 0.68 0 0 Z " fill="#B46761" transform="translate(74,77)"/>
	

	<path d="M0 0 C1.98 0.495 1.98 0.495 4 1 C4 1.99 4 2.98 4 4 C2.35 3.67 0.7 3.34 -1 3 C-0.67 2.01 -0.34 1.02 0 0 Z " fill="#2E2624" transform="translate(20,71)"/>
	

	

	<path d="M0 0 C2.475 0.495 2.475 0.495 5 1 C4.67 1.99 4.34 2.98 4 4 C2.68 4 1.36 4 0 4 C0 2.68 0 1.36 0 0 Z " fill="#887D77" transform="translate(75,25)"/>
	

</svg>
