<?xml version="1.0" encoding="iso-8859-1"?>
<svg height="128" version="1.1" width="128" xmlns="http://www.w3.org/2000/svg">
	

	<path d="M0 0 C42.24 0 84.48 0 128 0 C128 42.24 128 84.48 128 128 C85.76 128 43.52 128 0 128 C0 85.76 0 43.52 0 0 Z " fill="#FCFCFC" transform="translate(0,0)"/>
	

	<path d="M0 0 C3.91428362 0.41938753 6.2327016 2.30188406 9 5 C10.32 7.64 11.64 10.28 13 13 C19.93 13.33 26.86 13.66 34 14 C33.4317448 10.11743823 33.4317448 10.11743823 31.4375 8.625 C30 7 30 7 29.8125 3.8125 C29.9053125 2.4203125 29.9053125 2.4203125 30 1 C30.99 0.67 31.98 0.34 33 0 C33.66 0.33 34.32 0.66 35 1 C35 1.66 35 2.32 35 3 C35.99 3.33 36.98 3.66 38 4 C39.64820195 6.60242414 40 7.86248779 40 11 C40.66 11 41.32 11 42 11 C42 11.66 42 12.32 42 13 C43.20398438 13 44.40796875 13 45.6484375 13 C50.765625 13 55.8828125 13 61 13 C60.01 11.515 60.01 11.515 59 10 C58.64159651 7.13277207 58.58878542 5.62764331 60.1875 3.1875 C62.62764331 1.58878542 64.13277207 1.64159651 67 2 C67.99 2.66 68.98 3.32 70 4 C70.52315487 6.87140682 70.83180187 9.48199216 71 12.375 C71.07605469 13.14328125 71.15210937 13.9115625 71.23046875 14.703125 C71.37204473 16.91477143 71.41386259 18.82159826 71 21 C68.625 23.5390625 68.625 23.5390625 66 25 C65.34 25 64.68 25 64 25 C64 25.66 64 26.32 64 27 C64.66 27 65.32 27 66 27 C66.4990253 29.72283706 66.99429352 32.44600685 67.4765625 35.171875 C67.8614969 37.25166982 68.31744869 39.31863302 68.8125 41.375 C69.05482479 44.7675471 67.97884119 46.30877599 66 49 C66.78246094 48.98839844 67.56492187 48.97679687 68.37109375 48.96484375 C69.88896484 48.95130859 69.88896484 48.95130859 71.4375 48.9375 C72.44683594 48.92589844 73.45617187 48.91429687 74.49609375 48.90234375 C77 49 77 49 78 50 C78.07226502 51.85287502 78.0838122 53.70833878 78.0625 55.5625 C78.05347656 56.57441406 78.04445313 57.58632813 78.03515625 58.62890625 C78.02355469 59.41136719 78.01195313 60.19382813 78 61 C83.24493326 64.34782974 87.87903309 65.94513949 94 67 C94.12375 67.639375 94.2475 68.27875 94.375 68.9375 C94.58125 69.618125 94.7875 70.29875 95 71 C95.66 71.33 96.32 71.66 97 72 C99 73 99 73 99.75 75.125 C99.8325 75.74375 99.915 76.3625 100 77 C96.49461443 78.96301592 92.86648272 79.95902388 89 81 C89.11306697 82.95894361 89.11306697 82.95894361 90 85 C92.49034386 86.29660434 92.49034386 86.29660434 95 87 C94.690625 87.53625 94.38125 88.0725 94.0625 88.625 C92.82172561 91.3984957 92.4090325 94.00042837 92 97 C92.66 97 93.32 97 94 97 C93.125 101.875 93.125 101.875 92 103 C89.66055264 102.71269945 87.3260857 102.38063221 85 102 C85.33 98.37 85.66 94.74 86 91 C84.02 90.34 82.04 89.68 80 89 C80.33 86.69 80.66 84.38 81 82 C80.401875 81.773125 79.80375 81.54625 79.1875 81.3125 C76.43648112 79.66188867 75.47515363 77.8027919 74 75 C72.741875 75.226875 71.48375 75.45375 70.1875 75.6875 C67.54637911 76.1637677 66.49796338 76.32323939 64.21875 74.84375 C62.53729574 72.30001151 62.88677301 70.79258893 63.3125 67.8125 C63.43238281 66.91144531 63.55226563 66.01039062 63.67578125 65.08203125 C63.83626953 64.05142578 63.83626953 64.05142578 64 63 C58.47032059 62.28966569 53.50016964 61.69732824 48 63 C48.598125 63.70125 49.19625 64.4025 49.8125 65.125 C55 71.94285714 55 71.94285714 55 76 C45.45587115 78.95696385 37.07735735 80.69606489 27 80 C26.15920898 79.94537598 25.31841797 79.89075195 24.45214844 79.83447266 C21.57033921 79.63924037 18.69164717 79.41860051 15.8125 79.1875 C14.89782959 79.11772949 13.98315918 79.04795898 13.04077148 78.97607422 C4.78091242 78.22714062 -3.90841742 77.09158258 -10 71 C-11.35439668 68.29120665 -11.06501451 65.99066732 -11 63 C-12.32 62.34 -13.64 61.68 -15 61 C-15.0580966 57.0833957 -15.09362893 53.16690237 -15.125 49.25 C-15.14175781 48.13882813 -15.15851562 47.02765625 -15.17578125 45.8828125 C-15.18222656 44.81289063 -15.18867188 43.74296875 -15.1953125 42.640625 C-15.20578613 41.65610352 -15.21625977 40.67158203 -15.22705078 39.65722656 C-14.99246067 36.91176555 -14.32762364 35.37494967 -13 33 C-12.69487124 30.58015698 -12.69487124 30.58015698 -12.625 28.0625 C-12.24708371 23.56065505 -11.4375156 21.14287141 -8 18 C-4.73040093 15.71128065 -1.92026737 15.82180603 2 16 C1.5359375 14.515 1.5359375 14.515 1.0625 13 C-0.07815233 9.00771683 -0.64335855 5.13704084 -1 1 C-0.67 0.67 -0.34 0.34 0 0 Z " fill="#F19780" transform="translate(24,6)"/>
	

	<path d="M0 0 C3.91428362 0.41938753 6.2327016 2.30188406 9 5 C10.32 7.64 11.64 10.28 13 13 C19.93 13.33 26.86 13.66 34 14 C33.4317448 10.11743823 33.4317448 10.11743823 31.4375 8.625 C30 7 30 7 29.8125 3.8125 C29.9053125 2.4203125 29.9053125 2.4203125 30 1 C30.99 0.67 31.98 0.34 33 0 C33.66 0.33 34.32 0.66 35 1 C35 1.66 35 2.32 35 3 C35.99 3.33 36.98 3.66 38 4 C39.74672985 7.4934597 41 10.06845568 41 14 C47.27 14.33 53.54 14.66 60 15 C60.495 15.99 60.495 15.99 61 17 C61.99 16.67 62.98 16.34 64 16 C64 14.68 64 13.36 64 12 C63.34 12 62.68 12 62 12 C61.375 9.625 61.375 9.625 61 7 C61.66 6.34 62.32 5.68 63 5 C65.125 5.375 65.125 5.375 67 6 C67.19504458 8.10348074 67.38078496 10.20782585 67.5625 12.3125 C67.71912109 14.07013672 67.71912109 14.07013672 67.87890625 15.86328125 C68 19 68 19 67 22 C64.9375 22.6875 64.9375 22.6875 63 23 C63.57589824 32.39787809 63.57589824 32.39787809 64.625 41.75 C65 45 65 45 64 47 C62.0625 47.75 62.0625 47.75 60 48 C58 46 58 46 57.875 43.375 C57.91625 42.59125 57.9575 41.8075 58 41 C57.01 41.66 56.02 42.32 55 43 C52.54181902 42.78310168 50.40155615 42.15156271 48.09765625 41.28198242 C41.51077069 38.83795606 35.54005646 38.54740091 28.578125 38.47265625 C27.36769531 38.43978516 27.36769531 38.43978516 26.1328125 38.40625 C25.40980957 38.39916016 24.68680664 38.39207031 23.94189453 38.38476562 C22 38 22 38 20.56079102 36.5065918 C18.3874036 34.40867631 16.87560429 34.57443943 13.89453125 34.48828125 C12.42016602 34.43510742 12.42016602 34.43510742 10.91601562 34.38085938 C9.89185547 34.35830078 8.86769531 34.33574219 7.8125 34.3125 C6.77673828 34.27833984 5.74097656 34.24417969 4.67382812 34.20898438 C2.1159934 34.12647358 -0.44149723 34.05733428 -3 34 C-3.495 32.515 -3.495 32.515 -4 31 C-4.66 31 -5.32 31 -6 31 C-5.67 32.98 -5.34 34.96 -5 37 C-10.75 40 -10.75 40 -13 40 C-13.20086443 36.28400809 -13.1519437 35.22791555 -11 32 C-10.94620867 29.38570976 -10.94620867 29.38570976 -11.1875 26.5625 C-11.30485075 21.3369403 -11.30485075 21.3369403 -8.625 18.375 C-4.67675011 16.3068691 -2.49898936 15.90219588 2 16 C1.690625 15.01 1.38125 14.02 1.0625 13 C-0.07815233 9.00771683 -0.64335855 5.13704084 -1 1 C-0.67 0.67 -0.34 0.34 0 0 Z " fill="#DD7E70" transform="translate(24,6)"/>
	

	<path d="M0 0 C0.66 0 1.32 0 2 0 C2.25083148 6.52161837 2.25083148 6.52161837 1.01098633 8.88623047 C-1.06115283 13.21865762 -0.32628724 18.40976398 -0.3125 23.125 C-0.32861328 24.23488281 -0.34472656 25.34476563 -0.36132812 26.48828125 C-0.36197266 27.54660156 -0.36261719 28.60492188 -0.36328125 29.6953125 C-0.36626221 30.66484863 -0.36924316 31.63438477 -0.37231445 32.63330078 C-0.24945068 33.41431152 -0.12658691 34.19532227 0 35 C0.99 35.66 1.98 36.32 3 37 C3.268125 38.27875 3.53625 39.5575 3.8125 40.875 C4.56950671 44.2722984 4.89132109 44.90167146 7.625 47.375 C14.67178552 50.76789673 21.98761317 51.4781802 29.6875 52.125 C31.14724243 52.24911255 31.14724243 52.24911255 32.63647461 52.37573242 C43.75328498 53.2758453 53.53961067 53.49751402 64.41796875 50.65625 C67 50 67 50 69 50 C68.2368139 48.39218107 67.46412942 46.78886862 66.6875 45.1875 C66.25824219 44.29417969 65.82898438 43.40085938 65.38671875 42.48046875 C64.11778211 40.21068067 62.93443102 38.70751829 61 37 C66.54391803 35.03652903 70.20740373 34.92002442 76 36 C76.66 36.33 77.32 36.66 78 37 C78 40.96 78 44.92 78 49 C80.3821875 48.6596875 80.3821875 48.6596875 82.8125 48.3125 C85.51953125 47.92578125 85.51953125 47.92578125 88 48 C90.56531951 49.96674496 91.57582823 52.15165646 93 55 C93.66 55.33 94.32 55.66 95 56 C95 58.31 95 60.62 95 63 C95.804375 63.20625 96.60875 63.4125 97.4375 63.625 C100 65 100 65 100.9375 67.8125 C101.00257545 71.1313481 100.47119934 73.05760132 99 76 C101.31 76 103.62 76 106 76 C106.66 74.35 107.32 72.7 108 71 C108.33 71 108.66 71 109 71 C109.20086443 74.71599191 109.1519437 75.77208445 107 79 C108.485 79.99 108.485 79.99 110 81 C109.63287028 83.71675995 109.27255401 85.61063713 107.6875 87.875 C106 89 106 89 103.875 88.75 C102 88 102 88 101 87 C100.85884839 84.32941149 100.95752893 81.67567762 101 79 C99.02 78.01 99.02 78.01 97 77 C96.91087781 73.16774573 97.12132271 69.73437848 98 66 C96.35 65.67 94.7 65.34 93 65 C92.11064623 61.696686 91.53725895 58.37705625 91 55 C82.51980407 53.6610217 72.45583298 52.94513491 64.31445312 56.01147461 C60.24479687 57.225237 56.63741558 57.28775222 52.41796875 57.265625 C51.60435379 57.26753845 50.79073883 57.2694519 49.95246887 57.27142334 C48.23710825 57.27277922 46.52173716 57.26912464 44.80639648 57.26074219 C42.20597771 57.25007579 39.60625628 57.26063615 37.00585938 57.2734375 C35.33072766 57.27211499 33.65559638 57.2695507 31.98046875 57.265625 C30.83157417 57.27169769 30.83157417 57.27169769 29.6594696 57.27789307 C19.33654141 57.19003657 10.10927295 54.65469484 2 48 C0.41987716 45.38987116 -0.51805958 43.06294136 -1.3515625 40.13671875 C-1.87373893 37.81206485 -1.87373893 37.81206485 -4 36 C-5.41778407 31.69181324 -5.22218478 27.30118134 -5.25 22.8125 C-5.270625 21.99974609 -5.29125 21.18699219 -5.3125 20.34960938 C-5.36044411 12.81639116 -3.43914346 6.65890615 0 0 Z " fill="#E7A89D" transform="translate(10,32)"/>
	

	<path d="M0 0 C1.38328239 -0.00472824 1.38328239 -0.00472824 2.79450989 -0.009552 C4.30521309 -0.00651566 4.30521309 -0.00651566 5.84643555 -0.00341797 C6.88197067 -0.00437469 7.9175058 -0.00533142 8.98442078 -0.00631714 C11.18785665 -0.00699977 13.39129451 -0.00513972 15.59472656 -0.00097656 C18.93063032 0.00431127 22.26639573 -0.0008876 25.60229492 -0.00732422 C27.74617542 -0.00666229 29.89005584 -0.00537876 32.03393555 -0.00341797 C33.51123894 -0.00645432 33.51123894 -0.00645432 35.01838684 -0.009552 C40.09131508 0.00715959 45.15981925 0.12864009 50.22607422 0.39160156 C51.69133797 0.46050095 51.69133797 0.46050095 53.186203 0.53079224 C55.6706543 1.12939453 55.6706543 1.12939453 57.33613586 3.00973511 C58.7670171 5.72388983 59.6706543 8.04618694 59.6706543 11.12939453 C50.12652545 14.08635838 41.74801165 15.82545942 31.6706543 15.12939453 C30.40946777 15.0474585 30.40946777 15.0474585 29.12280273 14.96386719 C26.24099351 14.7686349 23.36230147 14.54799504 20.4831543 14.31689453 C19.56848389 14.24712402 18.65381348 14.17735352 17.71142578 14.10546875 C9.81526977 13.38951265 0.19358692 12.38871817 -5.3293457 6.12939453 C-5.7043457 3.44189453 -5.7043457 3.44189453 -5.3293457 1.12939453 C-3.75485707 -0.4450941 -2.18553936 0.00213533 0 0 Z " fill="#DD7F71" transform="translate(19.329345703125,70.87060546875)"/>
	

	<path d="M0 0 C3.01056424 2.85211349 5.25599001 5.2436708 7 9 C9.25025357 10.12512678 10.60608176 10.1653807 13.10546875 10.24609375 C14.33426758 10.29540039 14.33426758 10.29540039 15.58789062 10.34570312 C17.30132186 10.40620746 19.0148672 10.46357383 20.72851562 10.51757812 C25.81343312 10.72796113 30.16834041 11.38508807 35 13 C35.66 11.68 36.32 10.36 37 9 C37.66 9.33 38.32 9.66 39 10 C41.87910588 10.23274209 44.74146495 10.41972757 47.625 10.5625 C48.42679688 10.60568359 49.22859375 10.64886719 50.0546875 10.69335938 C52.0362511 10.79951457 54.01810271 10.90026855 56 11 C56.99 13.97 56.99 13.97 58 17 C57.505 17.495 57.505 17.495 57 18 C56.95907063 20.33297433 56.95758277 22.66705225 57 25 C54.29544295 25 52.18821934 24.68549838 49.5625 24.125 C47.70837033 23.7498171 45.85419955 23.37483736 44 23 C43.20682373 22.82662109 42.41364746 22.65324219 41.59643555 22.47460938 C31.23626716 20.44700298 20.76646771 20.54496311 10.25 20.375 C8.28123424 20.33674006 6.31248378 20.29768393 4.34375 20.2578125 C-0.43737305 20.16269568 -5.21857405 20.0783527 -10 20 C-8.84826645 17.53199953 -7.95216435 15.95216435 -6 14 C-3.34462628 13.43479997 -0.70855287 13.26211802 2 13 C1.855625 12.39671875 1.71125 11.7934375 1.5625 11.171875 C1.376875 10.37265625 1.19125 9.5734375 1 8.75 C0.814375 7.96109375 0.62875 7.1721875 0.4375 6.359375 C0 4 0 4 0 0 Z " fill="#EC0707" transform="translate(27,11)"/>
	

	<path d="M0 0 C2.0625 0.4375 2.0625 0.4375 4 1 C4 1.66 4 2.32 4 3 C4.99 3.33 5.98 3.66 7 4 C8.74672985 7.4934597 10 10.06845568 10 14 C16.27 14.33 22.54 14.66 29 15 C29.495 15.99 29.495 15.99 30 17 C30.99 16.67 31.98 16.34 33 16 C33 14.68 33 13.36 33 12 C32.34 12 31.68 12 31 12 C30.375 9.625 30.375 9.625 30 7 C30.66 6.34 31.32 5.68 32 5 C34.125 5.375 34.125 5.375 36 6 C36.19504458 8.10348074 36.38078496 10.20782585 36.5625 12.3125 C36.71912109 14.07013672 36.71912109 14.07013672 36.87890625 15.86328125 C37 19 37 19 36 22 C34.68 22.33 33.36 22.66 32 23 C32 27.62 32 32.24 32 37 C28 37 28 37 26.5075531 35.73240662 C26.01449173 35.18705765 25.52143036 34.64170868 25.01342773 34.07983398 C20.1881304 29.72656878 15.04059287 29.93373297 8.78515625 29.72265625 C7.61544785 29.66218613 6.44573944 29.601716 5.24058533 29.53941345 C1.51527008 29.35419978 -2.21047279 29.20870988 -5.9375 29.0625 C-8.43957338 28.93926669 -10.9415301 28.81364027 -13.44335938 28.68554688 C-15.84625116 28.57074008 -18.2492447 28.4580396 -20.65234375 28.34765625 C-21.77027817 28.29569595 -22.88821259 28.24373566 -24.0400238 28.19020081 C-29.84055337 27.96665222 -35.26619822 28.07334686 -41 29 C-41 27.35 -41 25.7 -41 24 C-40.34 24 -39.68 24 -39 24 C-38.690625 23.38125 -38.38125 22.7625 -38.0625 22.125 C-37.375 20.75 -36.6875 19.375 -36 18 C-33.95966465 17.80568235 -31.91932344 17.61142512 -29.87890625 17.41796875 C-27.77378478 17.1671504 -27.77378478 17.1671504 -26.5 14.9375 C-26.335 14.298125 -26.17 13.65875 -26 13 C-26 14.65 -26 16.3 -26 18 C-26.61488281 18.17015625 -27.22976562 18.3403125 -27.86328125 18.515625 C-28.67152344 18.75796875 -29.47976562 19.0003125 -30.3125 19.25 C-31.11300781 19.48203125 -31.91351563 19.7140625 -32.73828125 19.953125 C-35.41773435 21.19335545 -36.3275958 22.61866471 -38 25 C-37.06885376 24.88736816 -37.06885376 24.88736816 -36.11889648 24.77246094 C-28.06398079 23.9083096 -20.15135044 23.97423807 -12.0625 24.25 C-11.38690033 24.2720047 -10.71130066 24.2940094 -10.01522827 24.31668091 C20.37034246 25.34973379 20.37034246 25.34973379 28 30 C28 28.9275 28 27.855 28 26.75 C28 23.16666667 28 19.58333333 28 16 C26.80761719 16 25.61523438 16 24.38671875 16 C18.92447917 16 13.46223958 16 8 16 C7.67 16.66 7.34 17.32 7 18 C6.04480469 17.84144531 5.08960938 17.68289062 4.10546875 17.51953125 C1.1613631 17.09640406 -1.7263299 16.90329458 -4.69921875 16.82421875 C-5.51583984 16.80037109 -6.33246094 16.77652344 -7.17382812 16.75195312 C-8.8610629 16.70869069 -10.54865028 16.67760172 -12.23632812 16.65820312 C-18.40575066 16.44782631 -18.40575066 16.44782631 -21.44140625 14.16015625 C-23.37153266 11.48506877 -25.228887 8.78317757 -27 6 C-27.99 7.485 -27.99 7.485 -29 9 C-30 8 -30 8 -30.0625 5.4375 C-30.041875 4.633125 -30.02125 3.82875 -30 3 C-27.03824877 3.61277612 -25.61941217 4.25372522 -23 6 C-22.855625 6.825 -22.71125 7.65 -22.5625 8.5 C-22.28172395 11.10094704 -22.28172395 11.10094704 -20.27636719 12.13037109 C-17.74001466 13.09932087 -15.72527152 13.31492909 -13.015625 13.4140625 C-11.61376953 13.47207031 -11.61376953 13.47207031 -10.18359375 13.53125 C-9.21550781 13.5621875 -8.24742188 13.593125 -7.25 13.625 C-5.77466797 13.68300781 -5.77466797 13.68300781 -4.26953125 13.7421875 C-1.84653963 13.83628426 0.57644796 13.92192328 3 14 C2.42324412 10.93081662 2.42324412 10.93081662 0.4375 8.625 C-1 7 -1 7 -1.25 3.875 C-1 1 -1 1 0 0 Z " fill="#D82E2B" transform="translate(55,6)"/>
	

	<path d="M0 0 C6.30481283 0.46702317 6.30481283 0.46702317 8.875 2.4375 C10 4 10 4 11 6 C12.88764903 6.68472665 12.88764903 6.68472665 15.0625 7.125 C16.16271484 7.37636719 16.16271484 7.37636719 17.28515625 7.6328125 C17.85105469 7.75398438 18.41695312 7.87515625 19 8 C19.33 9.32 19.66 10.64 20 12 C17.69 13.32 15.38 14.64 13 16 C13.11306697 17.95894361 13.11306697 17.95894361 14 20 C16.49034386 21.29660434 16.49034386 21.29660434 19 22 C18.5359375 22.804375 18.5359375 22.804375 18.0625 23.625 C16.82172561 26.3984957 16.4090325 29.00042837 16 32 C16.66 32 17.32 32 18 32 C17.125 36.875 17.125 36.875 16 38 C13.66055264 37.71269945 11.3260857 37.38063221 9 37 C9.33 33.37 9.66 29.74 10 26 C8.02 25.34 6.04 24.68 4 24 C4.02320312 23.37351562 4.04640625 22.74703125 4.0703125 22.1015625 C4.08835937 21.28429687 4.10640625 20.46703125 4.125 19.625 C4.14820312 18.81289062 4.17140625 18.00078125 4.1953125 17.1640625 C4.21370051 14.78657757 4.21370051 14.78657757 2 13 C2.39532025 10.54901444 3.21301426 8.36095721 4 6 C2.68 5.67 1.36 5.34 0 5 C0 5.66 0 6.32 0 7 C-3.63 7.66 -7.26 8.32 -11 9 C-11.625 6.125 -11.625 6.125 -12 3 C-10 1 -10 1 -7.87109375 0.83984375 C-6.66646484 0.88818359 -6.66646484 0.88818359 -5.4375 0.9375 C-3.95918728 0.99190191 -2.47917459 1.02026267 -1 1 C-0.67 0.67 -0.34 0.34 0 0 Z " fill="#D8685E" transform="translate(100,71)"/>
	

	<path d="M0 0 C1.29872796 3.92637432 0.26717573 5.88275947 -1.26611328 9.65869141 C-2.65343491 14.08464429 -2.47148199 18.58757388 -2.4375 23.1875 C-2.45748047 24.15880859 -2.47746094 25.13011719 -2.49804688 26.13085938 C-2.49414855 31.81851959 -2.15797205 34.79377296 2 39 C2.2475 40.155 2.495 41.31 2.75 42.5 C4.27566794 46.77187023 5.74241744 47.83145259 9.62890625 49.9375 C19.06440662 54.16559901 28.6378837 54.64372913 38.82226562 54.93261719 C40.77316696 54.9929814 42.72279536 55.09163805 44.671875 55.1953125 C52.11923117 55.4527096 58.45263424 54.3021228 65.5871582 52.43847656 C73.05714847 50.56991538 82.65471454 48.77148932 89.734375 52.40234375 C90.48203125 52.92957031 91.2296875 53.45679688 92 54 C93.485 54.99 93.485 54.99 95 56 C95.1875 59.625 95.1875 59.625 95 63 C95.804375 63.20625 96.60875 63.4125 97.4375 63.625 C100 65 100 65 100.9375 67.8125 C101.00257545 71.1313481 100.47119934 73.05760132 99 76 C101.31 76 103.62 76 106 76 C106.66 74.35 107.32 72.7 108 71 C108.33 71 108.66 71 109 71 C109.20086443 74.71599191 109.1519437 75.77208445 107 79 C108.485 79.99 108.485 79.99 110 81 C109.63287028 83.71675995 109.27255401 85.61063713 107.6875 87.875 C106 89 106 89 103.875 88.75 C102 88 102 88 101 87 C100.85884839 84.32941149 100.95752893 81.67567762 101 79 C99.02 78.01 99.02 78.01 97 77 C96.91087781 73.16774573 97.12132271 69.73437848 98 66 C96.35 65.67 94.7 65.34 93 65 C92.11064623 61.696686 91.53725895 58.37705625 91 55 C82.51980407 53.6610217 72.45583298 52.94513491 64.31445312 56.01147461 C60.24479687 57.225237 56.63741558 57.28775222 52.41796875 57.265625 C51.60435379 57.26753845 50.79073883 57.2694519 49.95246887 57.27142334 C48.23710825 57.27277922 46.52173716 57.26912464 44.80639648 57.26074219 C42.20597771 57.25007579 39.60625628 57.26063615 37.00585938 57.2734375 C35.33072766 57.27211499 33.65559638 57.2695507 31.98046875 57.265625 C30.83157417 57.27169769 30.83157417 57.27169769 29.6594696 57.27789307 C19.33654141 57.19003657 10.10927295 54.65469484 2 48 C0.41987716 45.38987116 -0.51805958 43.06294136 -1.3515625 40.13671875 C-1.87373893 37.81206485 -1.87373893 37.81206485 -4 36 C-5.41778407 31.69181324 -5.22218478 27.30118134 -5.25 22.8125 C-5.270625 21.99974609 -5.29125 21.18699219 -5.3125 20.34960938 C-5.36044411 12.81639116 -3.43914346 6.65890615 0 0 Z " fill="#F2DEDC" transform="translate(10,32)"/>
	

	

	<path d="M0 0 C0.90814453 -0.00193359 1.81628906 -0.00386719 2.75195312 -0.00585938 C3.75033203 -0.00134766 4.74871094 0.00316406 5.77734375 0.0078125 C6.81052734 0.00974609 7.84371094 0.01167969 8.90820312 0.01367188 C23.51576878 0.09050887 38.11702773 0.626841 52.71484375 1.1328125 C53.20984375 3.6078125 53.20984375 3.6078125 53.71484375 6.1328125 C50.56480858 7.05665478 47.72062641 7.2697155 44.44311523 7.29394531 C42.86644325 7.30835663 42.86644325 7.30835663 41.25791931 7.32305908 C40.12866531 7.32730896 38.99941132 7.33155884 37.8359375 7.3359375 C36.67232193 7.34163757 35.50870636 7.34733765 34.30982971 7.35321045 C31.85117501 7.36265155 29.3925077 7.36919089 26.93383789 7.37304688 C23.16335253 7.38278407 19.39340506 7.41382931 15.62304688 7.4453125 C13.23568032 7.45183954 10.84830987 7.45709119 8.4609375 7.4609375 C7.32965927 7.4732843 6.19838104 7.4856311 5.03282166 7.49835205 C3.98485916 7.49535095 2.93689667 7.49234985 1.85717773 7.48925781 C0.47295876 7.49472626 0.47295876 7.49472626 -0.93922424 7.50030518 C-3.28515625 7.1328125 -3.28515625 7.1328125 -5.10655212 5.79803467 C-6.28515625 4.1328125 -6.28515625 4.1328125 -6.28515625 1.1328125 C-3.95217158 -0.03367983 -2.59895302 0.00373451 0 0 Z " fill="#B15D54" transform="translate(21.28515625,71.8671875)"/>
	

	<path d="M0 0 C0.99 0.66 1.98 1.32 3 2 C3.52315487 4.87140682 3.83180187 7.48199216 4 10.375 C4.07605469 11.14328125 4.15210937 11.9115625 4.23046875 12.703125 C4.37204473 14.91477143 4.41386259 16.82159826 4 19 C1.625 21.5390625 1.625 21.5390625 -1 23 C-1.66 23 -2.32 23 -3 23 C-3 23.66 -3 24.32 -3 25 C-2.34 25 -1.68 25 -1 25 C-0.5009747 27.72283706 -0.00570648 30.44600685 0.4765625 33.171875 C0.8614969 35.25166982 1.31744869 37.31863302 1.8125 39.375 C2.05482479 42.7675471 0.97884119 44.30877599 -1 47 C-0.21753906 46.98839844 0.56492187 46.97679687 1.37109375 46.96484375 C2.38300781 46.95582031 3.39492187 46.94679687 4.4375 46.9375 C5.44683594 46.92589844 6.45617187 46.91429687 7.49609375 46.90234375 C10 47 10 47 11 48 C11.07244053 50.01964199 11.08377188 52.04167124 11.0625 54.0625 C11.05347656 55.16722656 11.04445312 56.27195313 11.03515625 57.41015625 C11.02355469 58.26480469 11.01195312 59.11945313 11 60 C10.01 59.67 9.02 59.34 8 59 C7.04975021 55.30458414 7.04975021 52.69541586 8 49 C4.53058454 49.45822468 1.32604951 49.89131683 -2 51 C-2.66 50.34 -3.32 49.68 -4 49 C-3.90625 46.8203125 -3.90625 46.8203125 -3.5 44.125 C-2.86967179 38.68125641 -3.47470149 34.06107186 -4.625 28.7265625 C-5.01981482 25.85592975 -4.72938918 23.78586145 -4 21 C-2.68 20.67 -1.36 20.34 0 20 C-0.33 14.72 -0.66 9.44 -1 4 C-2.32 4.33 -3.64 4.66 -5 5 C-5 6.65 -5 8.3 -5 10 C-4.34 10 -3.68 10 -3 10 C-2.67 11.32 -2.34 12.64 -2 14 C-3.98 14.99 -3.98 14.99 -6 16 C-6.33 15.01 -6.66 14.02 -7 13 C-7.86882812 13.01160156 -8.73765625 13.02320313 -9.6328125 13.03515625 C-10.78523438 13.04417969 -11.93765625 13.05320312 -13.125 13.0625 C-14.26195313 13.07410156 -15.39890625 13.08570313 -16.5703125 13.09765625 C-19.8129156 13.005327 -22.81932612 12.61389906 -26 12 C-25.67 11.01 -25.34 10.02 -25 9 C-25 9.66 -25 10.32 -25 11 C-23.79601562 11 -22.59203125 11 -21.3515625 11 C-16.234375 11 -11.1171875 11 -6 11 C-6.66 10.01 -7.32 9.02 -8 8 C-8.35840349 5.13277207 -8.41121458 3.62764331 -6.8125 1.1875 C-4.37235669 -0.41121458 -2.86722793 -0.35840349 0 0 Z " fill="#E7ACA2" transform="translate(91,8)"/>
	

	<path d="M0 0 C0.66 1.32 1.32 2.64 2 4 C-7.54412885 6.95696385 -15.92264265 8.69606489 -26 8 C-27.26118652 7.91806396 -27.26118652 7.91806396 -28.54785156 7.83447266 C-31.42966079 7.63924037 -34.30835283 7.41860051 -37.1875 7.1875 C-38.55950562 7.08284424 -38.55950562 7.08284424 -39.95922852 6.97607422 C-46.27019782 6.40384933 -52.00351579 5.03878843 -58 3 C-54.24074956 1.79880527 -50.52449852 1.85587794 -46.62109375 1.8671875 C-45.90025604 1.86586823 -45.17941833 1.86454895 -44.43673706 1.8631897 C-42.10361377 1.86127923 -39.77061098 1.86758998 -37.4375 1.875 C-36.64942963 1.87588623 -35.86135925 1.87677246 -35.04940796 1.87768555 C-23.34130492 1.89323039 -11.67984579 2.1267405 0 3 C0 2.01 0 1.02 0 0 Z " fill="#F29881" transform="translate(77,78)"/>
	

	<path d="M0 0 C0.33 0 0.66 0 1 0 C1.25083148 6.52161837 1.25083148 6.52161837 0.01098633 8.88623047 C-2.06115283 13.21865762 -1.32628724 18.40976398 -1.3125 23.125 C-1.32861328 24.23488281 -1.34472656 25.34476563 -1.36132812 26.48828125 C-1.36197266 27.54660156 -1.36261719 28.60492188 -1.36328125 29.6953125 C-1.36626221 30.66484863 -1.36924316 31.63438477 -1.37231445 32.63330078 C-1.24945068 33.41431152 -1.12658691 34.19532227 -1 35 C-0.01 35.66 0.98 36.32 2 37 C2.268125 38.27875 2.53625 39.5575 2.8125 40.875 C3.56950671 44.2722984 3.89132109 44.90167146 6.625 47.375 C13.67229449 50.76814179 20.98731409 51.47715263 28.6875 52.125 C29.65631104 52.2084668 30.62512207 52.29193359 31.62329102 52.37792969 C45.97677766 53.62145464 45.97677766 53.62145464 60 51 C63.4375 50.875 63.4375 50.875 66 51 C66 51.66 66 52.32 66 53 C57.14233757 55.72543459 49.22644041 56.3754401 40 56 C38.52215062 55.9680393 37.04428505 55.93682021 35.56640625 55.90625 C23.06992896 55.54493478 10.26808064 54.26808064 1 45 C0.5359375 43.329375 0.5359375 43.329375 0.0625 41.625 C-0.72279516 38.09742864 -0.72279516 38.09742864 -2.53930664 36.07226562 C-4.29094438 33.5872412 -4.39796968 32.23119225 -4.43359375 29.21875 C-4.44455078 28.29916504 -4.45550781 27.37958008 -4.46679688 26.43212891 C-4.45712891 25.46452637 -4.44746094 24.49692383 -4.4375 23.5 C-4.43427734 22.51563965 -4.43105469 21.5312793 -4.42773438 20.51708984 C-4.28461198 13.03154161 -3.22648355 6.82746966 0 0 Z " fill="#E8B8B1" transform="translate(11,32)"/>
	

	

	

	<path d="M0 0 C1.60379341 -0.05416188 3.20811406 -0.09286638 4.8125 -0.125 C5.70582031 -0.14820312 6.59914063 -0.17140625 7.51953125 -0.1953125 C10 0 10 0 13 2 C16.12521833 2.16699232 16.12521833 2.16699232 19 2 C19 3.65 19 5.3 19 7 C18.34 7 17.68 7 17 7 C17 7.9075 17 8.815 17 9.75 C16 13 16 13 14.15234375 14.2890625 C12.12694174 15.28211675 10.10315462 16.18556655 8 17 C8 17.99 8 18.98 8 20 C8.99 20.33 9.98 20.66 11 21 C11 22.65 11 24.3 11 26 C10.34 26 9.68 26 9 26 C9 27.98 9 29.96 9 32 C8.34 32 7.68 32 7 32 C6.82057837 28.05272412 6.90649311 25.4019487 9 22 C8.195625 21.7525 7.39125 21.505 6.5625 21.25 C4 20 4 20 3.0625 18 C3.041875 17.34 3.02125 16.68 3 16 C5.3129482 13.6870518 6.47904875 13.50419025 9.625 12.875 C10.44226563 12.70742187 11.25953125 12.53984375 12.1015625 12.3671875 C12.72804688 12.24601562 13.35453125 12.12484375 14 12 C13.72382467 10.05925139 13.72382467 10.05925139 13 8 C12.01 7.34 11.02 6.68 10 6 C9.67 5.01 9.34 4.02 9 3 C6.89415562 2.19436362 6.89415562 2.19436362 4.4375 1.8125 C3.61121094 1.65394531 2.78492187 1.49539062 1.93359375 1.33203125 C1.29550781 1.22246094 0.65742187 1.11289063 0 1 C0 0.67 0 0.34 0 0 Z " fill="#F1DAD8" transform="translate(109,71)"/>
	

	<path d="M0 0 C3.25 0.375 3.25 0.375 4.25 1.375 C4.51149964 5.99482692 4.36257974 8.14984052 2.25 12.375 C-0.72 12.375 -3.69 12.375 -6.75 12.375 C-7.41 10.065 -8.07 7.755 -8.75 5.375 C-5.85927016 1.87108504 -4.6192857 0.46192857 0 0 Z " fill="#DA3633" transform="translate(66.75,115.625)"/>
	

	

	<path d="M0 0 C1.32 0.66 2.64 1.32 4 2 C2.68 2 1.36 2 0 2 C1.00366071 5.01098212 1.75120933 6.77316145 4.125 8.9375 C6 11 6 11 6.25 14.25 C6.1675 15.1575 6.085 16.065 6 17 C2.25 18.125 2.25 18.125 0 17 C-1.40100091 16.89583037 -2.8062217 16.84491575 -4.2109375 16.82421875 C-5.04367188 16.80037109 -5.87640625 16.77652344 -6.734375 16.75195312 C-8.48673583 16.709181 -10.23941457 16.67782372 -11.9921875 16.65820312 C-18.40416157 16.44546016 -18.40416157 16.44546016 -21.4609375 14.16015625 C-23.37226404 11.47750758 -25.23141378 8.77920692 -27 6 C-27.66 6.99 -28.32 7.98 -29 9 C-30 8 -30 8 -30.0625 5.4375 C-30.041875 4.633125 -30.02125 3.82875 -30 3 C-27.03824877 3.61277612 -25.61941217 4.25372522 -23 6 C-22.855625 6.825 -22.71125 7.65 -22.5625 8.5 C-22.28172395 11.10094704 -22.28172395 11.10094704 -20.27636719 12.13037109 C-17.74001466 13.09932087 -15.72527152 13.31492909 -13.015625 13.4140625 C-11.61376953 13.47207031 -11.61376953 13.47207031 -10.18359375 13.53125 C-9.21550781 13.5621875 -8.24742188 13.593125 -7.25 13.625 C-5.77466797 13.68300781 -5.77466797 13.68300781 -4.26953125 13.7421875 C-1.84653963 13.83628426 0.57644796 13.92192328 3 14 C2.42324412 10.93081662 2.42324412 10.93081662 0.4375 8.625 C-1 7 -1 7 -1.25 3.875 C-1 1 -1 1 0 0 Z " fill="#DE756A" transform="translate(55,6)"/>
	

	

	<path d="M0 0 C0.33 0.99 0.66 1.98 1 3 C-2.90607723 5.84078344 -5.96746612 7.84765894 -10.8125 8.5625 C-14 8 -14 8 -16 6.25 C-17 4 -17 4 -16.6875 1.75 C-16.460625 1.1725 -16.23375 0.595 -16 0 C-10.42289352 -1.06795656 -5.60563042 -0.82622671 0 0 Z " fill="#D82825" transform="translate(119,80)"/>
	

	<path d="M0 0 C0.53109375 0.29648438 1.0621875 0.59296875 1.609375 0.8984375 C4.44117818 2.20328799 7.21894926 2.90018352 10.25 3.625 C11.32765625 3.88539062 12.4053125 4.14578125 13.515625 4.4140625 C14.33546875 4.60742188 15.1553125 4.80078125 16 5 C16.12375 5.639375 16.2475 6.27875 16.375 6.9375 C16.58125 7.618125 16.7875 8.29875 17 9 C17.66 9.33 18.32 9.66 19 10 C21 11 21 11 21.75 13.125 C21.87375 14.053125 21.87375 14.053125 22 15 C20.1875 16.0625 20.1875 16.0625 18 17 C17.01 16.67 16.02 16.34 15 16 C15.99 15.67 16.98 15.34 18 15 C17.67 13.68 17.34 12.36 17 11 C14.36 10.67 11.72 10.34 9 10 C8.79375 9.21625 8.5875 8.4325 8.375 7.625 C7.21128486 4.68861556 7.21128486 4.68861556 3.9375 3.875 C2.968125 3.58625 1.99875 3.2975 1 3 C0.67 2.01 0.34 1.02 0 0 Z " fill="#E38576" transform="translate(102,68)"/>
	

	

	<path d="M0 0 C6.75 -0.125 6.75 -0.125 9 1 C9.05399736 2.45792884 9.09279177 3.91642712 9.125 5.375 C9.14820312 6.18710938 9.17140625 6.99921875 9.1953125 7.8359375 C9 10 9 10 7 12 C5.125 12 5.125 12 3 11 C0.6875 8.25 0.6875 8.25 -1 5 C-0.75 2.125 -0.75 2.125 0 0 Z " fill="#FDFDFD" transform="translate(77,69)"/>
	

	<path d="M0 0 C1.29872796 3.92637432 0.26717573 5.88275947 -1.26611328 9.65869141 C-2.65343491 14.08464429 -2.47148199 18.58757388 -2.4375 23.1875 C-2.45748047 24.15880859 -2.47746094 25.13011719 -2.49804688 26.13085938 C-2.494155 31.80910713 -2.1706619 34.81335855 2 39 C2.69356423 41.32548007 3.36149212 43.65880445 4 46 C5.49486846 48.35959458 5.49486846 48.35959458 7 50 C3.83275891 49.07862077 2.35114724 48.62803374 0.70703125 45.6875 C0.41183594 44.800625 0.11664062 43.91375 -0.1875 43 C-1.46698534 39.12477281 -1.46698534 39.12477281 -4 36 C-5.41778407 31.69181324 -5.22218478 27.30118134 -5.25 22.8125 C-5.270625 21.99974609 -5.29125 21.18699219 -5.3125 20.34960938 C-5.36044411 12.81639116 -3.43914346 6.65890615 0 0 Z " fill="#F2DEDC" transform="translate(10,32)"/>
	

	<path d="M0 0 C-3.06246747 1.78409802 -5.22079273 2.22880021 -8.75 2.125 C-9.54921875 2.10695313 -10.3484375 2.08890625 -11.171875 2.0703125 C-11.77515625 2.04710938 -12.3784375 2.02390625 -13 2 C-13.74957157 5.47147842 -13.74957157 5.47147842 -14 9 C-13.29875 8.67 -12.5975 8.34 -11.875 8 C-8.73996884 6.90955438 -6.29436818 6.84677357 -3 7 C-3 6.34 -3 5.68 -3 5 C-1.35 5.33 0.3 5.66 2 6 C1.4740625 6.86625 1.4740625 6.86625 0.9375 7.75 C-0.1724449 10.41386776 0.05410055 11.33428337 1 14 C1.33 14.99 1.66 15.98 2 17 C-1.82946843 15.54744301 -3.12050295 13.57104439 -5 10 C-6.258125 10.226875 -7.51625 10.45375 -8.8125 10.6875 C-12.706137 11.15611472 -12.706137 11.15611472 -15 9.9375 C-16.42932497 7.16818287 -16.32618658 5.06615383 -16 2 C-14 0 -14 0 -10.5625 -0.0625 C-9.386875 -0.041875 -8.21125 -0.02125 -7 0 C-3.86650268 -1.04449911 -3.01031744 -0.93423645 0 0 Z " fill="#B25F56" transform="translate(103,71)"/>
	

	<path d="M0 0 C4.20827473 -0.05828635 8.41644489 -0.093693 12.625 -0.125 C14.40970703 -0.15013672 14.40970703 -0.15013672 16.23046875 -0.17578125 C17.38417969 -0.18222656 18.53789063 -0.18867187 19.7265625 -0.1953125 C21.31331787 -0.21102295 21.31331787 -0.21102295 22.93212891 -0.22705078 C26.23363888 0.01729143 28.91412763 0.83117023 32 2 C32 2.66 32 3.32 32 4 C31.46117187 3.9278125 30.92234375 3.855625 30.3671875 3.78125 C19.94948876 2.60558494 9.46684969 2.90997152 -1 3 C-0.67 2.01 -0.34 1.02 0 0 Z " fill="#F29881" transform="translate(46,37)"/>
	

	<path d="M0 0 C3.94035338 2.02646745 5.38505199 4.96262998 7 9 C7.1875 11.875 7.1875 11.875 7 14 C5 11 5 11 4 8.875 C3.14139842 6.82955462 3.14139842 6.82955462 1 6 C1 5.34 1 4.68 1 4 C-0.32 4 -1.64 4 -3 4 C-3.30495485 8.42664564 -3.30495485 8.42664564 -1.5 12.375 C-1.005 12.91125 -0.51 13.4475 0 14 C-3.22429352 13.04142625 -4.72562304 12.37236872 -6.75 9.625 C-8.85271318 5.20930233 -8.85271318 5.20930233 -9 3 C-6.77123501 -0.67090705 -3.99623736 -0.48933519 0 0 Z " fill="#F1DBD9" transform="translate(58,3)"/>
	

	<path d="M0 0 C0.33 0 0.66 0 1 0 C1.20086443 3.71599191 1.1519437 4.77208445 -1 8 C-0.01 8.66 0.98 9.32 2 10 C1.63287028 12.71675995 1.27255401 14.61063713 -0.3125 16.875 C-2 18 -2 18 -4.125 17.75 C-6 17 -6 17 -7 16 C-7.34229288 12.83379087 -7.25632099 11.39516153 -5.5 8.6875 C-5.005 8.130625 -4.51 7.57375 -4 7 C-4.66 6.67 -5.32 6.34 -6 6 C-5.195625 5.7525 -4.39125 5.505 -3.5625 5.25 C-0.828919 4.27761141 -0.828919 4.27761141 -0.1875 1.875 C-0.125625 1.25625 -0.06375 0.6375 0 0 Z " fill="#E9B3AA" transform="translate(118,103)"/>
	

	<path d="M0 0 C3.88477492 0.41622588 6.18944324 2.40563991 9 5 C10.875 7.625 10.875 7.625 12 10 C11.67 10.66 11.34 11.32 11 12 C8.7522025 9.94766315 7.9977758 8.99332739 7 6 C3.99992729 4.29144978 3.99992729 4.29144978 1 3 C1.34444881 5.47266765 1.34444881 5.47266765 2 8 C2.66 8.33 3.32 8.66 4 9 C4.125 14.75 4.125 14.75 3 17 C0.54483241 17.85416577 -1.94086878 18.47068248 -4.45703125 19.12109375 C-7.11079674 20.0382938 -8.85870039 21.2080966 -11 23 C-9.5435664 19.16031141 -7.71785783 17.68993538 -4 16 C-0.6875 15.8125 -0.6875 15.8125 2 16 C1.690625 15.01 1.38125 14.02 1.0625 13 C-0.07815233 9.00771683 -0.64335855 5.13704084 -1 1 C-0.67 0.67 -0.34 0.34 0 0 Z " fill="#E5988C" transform="translate(24,6)"/>
	

	<path d="M0 0 C0.33 0 0.66 0 1 0 C1.4990253 2.72283706 1.99429352 5.44600685 2.4765625 8.171875 C2.8614969 10.25166982 3.31744869 12.31863302 3.8125 14.375 C4.05482479 17.7675471 2.97884119 19.30877599 1 22 C1.78246094 21.98839844 2.56492187 21.97679688 3.37109375 21.96484375 C4.38300781 21.95582031 5.39492187 21.94679688 6.4375 21.9375 C7.44683594 21.92589844 8.45617187 21.91429688 9.49609375 21.90234375 C12 22 12 22 13 23 C13.07244053 25.01964199 13.08377188 27.04167124 13.0625 29.0625 C13.05347656 30.16722656 13.04445313 31.27195312 13.03515625 32.41015625 C13.02355469 33.26480469 13.01195313 34.11945313 13 35 C12.01 34.67 11.02 34.34 10 34 C9.04975021 30.30458414 9.04975021 27.69541586 10 24 C6.7 24 3.4 24 0 24 C-0.33 23.01 -0.66 22.02 -1 21 C-0.01 19.515 -0.01 19.515 1 18 C0.79873196 16.38985567 0.58475192 14.77981935 0.29296875 13.18359375 C-0.29252113 8.81974254 -0.07151787 4.39437549 0 0 Z " fill="#F2DEDC" transform="translate(89,33)"/>
	

	

	<path d="M0 0 C0.7940625 0.08894531 1.588125 0.17789063 2.40625 0.26953125 C3.59734375 0.38361328 3.59734375 0.38361328 4.8125 0.5 C6.90625 1.08203125 6.90625 1.08203125 8.90625 4.08203125 C8.57625 4.74203125 8.24625 5.40203125 7.90625 6.08203125 C5.40234375 6.71484375 5.40234375 6.71484375 2.34375 7.20703125 C0.82587891 7.45839844 0.82587891 7.45839844 -0.72265625 7.71484375 C-1.89634766 7.89660156 -1.89634766 7.89660156 -3.09375 8.08203125 C-3.71875 5.20703125 -3.71875 5.20703125 -4.09375 2.08203125 C-2.09375 0.08203125 -2.09375 0.08203125 0 0 Z " fill="#562D2B" transform="translate(92.09375,71.91796875)"/>
	

	<path d="M0 0 C1.8125 2 1.8125 2 3 4 C2.67 4.66 2.34 5.32 2 6 C1.34 5.34 0.68 4.68 0 4 C-0.99 4 -1.98 4 -3 4 C-2.835 5.258125 -2.67 6.51625 -2.5 7.8125 C-2.17841759 10.26456585 -2 12.51650694 -2 15 C-5.3502463 11.18765077 -7.16974789 7.66714289 -9 3 C-5.99240531 0.3265825 -4.04550278 -0.72611588 0 0 Z " fill="#EED1CE" transform="translate(27,3)"/>
	

	<path d="M0 0 C2.96175123 0.61277612 4.38058783 1.25372522 7 3 C7.144375 3.825 7.28875 4.65 7.4375 5.5 C7.7136707 8.09973348 7.7136707 8.09973348 9.70703125 9.0859375 C12.21547675 10.08589703 14.5956164 10.6360346 17.25 11.125 C18.14203125 11.29257812 19.0340625 11.46015625 19.953125 11.6328125 C20.96632813 11.81457031 20.96632813 11.81457031 22 12 C22 12.33 22 12.66 22 13 C11.93690852 13.62460568 11.93690852 13.62460568 8.5625 11.375 C8.046875 10.59125 7.53125 9.8075 7 9 C6.2575 7.9275 5.515 6.855 4.75 5.75 C4.1725 4.8425 3.595 3.935 3 3 C2.34 3.99 1.68 4.98 1 6 C0 5 0 5 -0.0625 2.4375 C-0.041875 1.633125 -0.02125 0.82875 0 0 Z " fill="#D9403B" transform="translate(25,9)"/>
	

	<path d="M0 0 C1 1 1 1 1.25 4.3125 C0.99337817 8.09767206 0.56295176 9.33025858 -2 12 C-1.67 9.03 -1.34 6.06 -1 3 C-3.97 2.505 -3.97 2.505 -7 2 C-7 2.66 -7 3.32 -7 4 C-7.66 4 -8.32 4 -9 4 C-8.67 6.64 -8.34 9.28 -8 12 C-8.99 11.67 -9.98 11.34 -11 11 C-11.8125 8.3125 -11.8125 8.3125 -12 5 C-8.57285828 0.07348377 -5.86124153 -0.6762971 0 0 Z " fill="#E69586" transform="translate(70,116)"/>
	

	<path d="M0 0 C1.32 0.33 2.64 0.66 4 1 C4.33 5.29 4.66 9.58 5 14 C4.67 13.34 4.34 12.68 4 12 C2.68 12.33 1.36 12.66 0 13 C0.33 11.02 0.66 9.04 1 7 C0.34 7 -0.32 7 -1 7 C-1.625 4.625 -1.625 4.625 -2 2 C-1.34 1.34 -0.68 0.68 0 0 Z " fill="#CC4D46" transform="translate(87,11)"/>
	

	<path d="M0 0 C5.94 0.33 11.88 0.66 18 1 C18.33 1.66 18.66 2.32 19 3 C20.98 3 22.96 3 25 3 C23.9024777 5.99324263 23.32317108 6.84610901 20.375 8.25 C19.59125 8.4975 18.8075 8.745 18 9 C17.67 6.69 17.34 4.38 17 2 C11.39 2 5.78 2 0 2 C0 1.34 0 0.68 0 0 Z " fill="#D83633" transform="translate(66,20)"/>
	

	<path d="M0 0 C1.79244141 0.01740234 1.79244141 0.01740234 3.62109375 0.03515625 C5.41740234 0.04869141 5.41740234 0.04869141 7.25 0.0625 C8.17683594 0.07410156 9.10367188 0.08570312 10.05859375 0.09765625 C8.80781738 2.59920898 7.7083207 3.01978173 5.24609375 4.28515625 C4.55902344 4.64996094 3.87195313 5.01476562 3.1640625 5.390625 C0.69862826 6.2185352 -0.52432719 5.95042347 -2.94140625 5.09765625 C-3.50390625 3.16015625 -3.50390625 3.16015625 -3.94140625 1.09765625 C-2.94140625 0.09765625 -2.94140625 0.09765625 0 0 Z " fill="#EE0506" transform="translate(107.94140625,80.90234375)"/>
	

	

	

	

	<path d="M0 0 C1.17369141 -0.02513672 1.17369141 -0.02513672 2.37109375 -0.05078125 C4.5625 0.3125 4.5625 0.3125 6.359375 1.61328125 C7.5625 3.3125 7.5625 3.3125 7.375 6.8125 C6.5625 10.3125 6.5625 10.3125 4.5625 13.3125 C3.9025 13.3125 3.2425 13.3125 2.5625 13.3125 C2.7275 12.796875 2.8925 12.28125 3.0625 11.75 C3.71299 8.57886124 3.6245734 5.54031666 3.5625 2.3125 C2.469375 2.3125 1.37625 2.3125 0.25 2.3125 C-1.97916667 2.3125 -4.20833333 2.3125 -6.4375 2.3125 C-4.02263057 -0.10236943 -3.31042211 0.0163075 0 0 Z " fill="#F2DEDC" transform="translate(66.4375,114.6875)"/>
	

	

	

	<path d="M0 0 C0.53109375 0.29648438 1.0621875 0.59296875 1.609375 0.8984375 C4.44117818 2.20328799 7.21894926 2.90018352 10.25 3.625 C11.32765625 3.88539062 12.4053125 4.14578125 13.515625 4.4140625 C14.33546875 4.60742188 15.1553125 4.80078125 16 5 C16.103125 5.639375 16.20625 6.27875 16.3125 6.9375 C16.539375 7.618125 16.76625 8.29875 17 9 C17.99 9.33 18.98 9.66 20 10 C19.01 10.495 19.01 10.495 18 11 C15.20694183 9.4960456 12.63975919 7.75983946 10 6 C7.67078486 5.21950861 5.32430295 4.54814404 2.9609375 3.87890625 C2.31382813 3.58886719 1.66671875 3.29882812 1 3 C0.67 2.01 0.34 1.02 0 0 Z " fill="#E8B1A7" transform="translate(102,68)"/>
	

	<path d="M0 0 C2.625 0.375 2.625 0.375 5 1 C4 4 3 7 2 10 C0.68 9.34 -0.64 8.68 -2 8 C-2.125 5.125 -2.125 5.125 -2 2 C-1.34 1.34 -0.68 0.68 0 0 Z " fill="#B25C53" transform="translate(94,57)"/>
	

	<path d="M0 0 C2.64 0 5.28 0 8 0 C8.625 1.875 8.625 1.875 9 4 C8.34 4.66 7.68 5.32 7 6 C4.0371669 5.60495559 1.61673759 4.40182371 -1 3 C-0.67 2.01 -0.34 1.02 0 0 Z " fill="#E21615" transform="translate(107,92)"/>
	

	

	<path d="M0 0 C1.9453125 0.77734375 1.9453125 0.77734375 4.125 1.9375 C5.21167969 2.50791016 5.21167969 2.50791016 6.3203125 3.08984375 C6.87460938 3.39019531 7.42890625 3.69054687 8 4 C7.67 4.66 7.34 5.32 7 6 C6.67 5.67 6.34 5.34 6 5 C3.54190002 4.7499227 3.54190002 4.7499227 1 5 C-1.35953094 7.35953094 -1.49141413 8.77895617 -2 12 C-2.66 11.34 -3.32 10.68 -4 10 C-3.828125 7.87109375 -3.828125 7.87109375 -3.25 5.4375 C-3.06953125 4.63183594 -2.8890625 3.82617188 -2.703125 2.99609375 C-2 1 -2 1 0 0 Z " fill="#F2DEDC" transform="translate(85,4)"/>
	

	

	<path d="M0 0 C4.30087959 0.64918937 5.58165248 2.27063286 8.1875 5.609375 C9.62191176 8.01998365 9.81237761 9.75067314 9.3125 12.5 C7.3125 9.5 7.3125 9.5 6.3125 7.375 C5.45389842 5.32955462 5.45389842 5.32955462 3.3125 4.5 C3.3125 3.84 3.3125 3.18 3.3125 2.5 C1.9925 2.5 0.6725 2.5 -0.6875 2.5 C-1.0175 4.48 -1.3475 6.46 -1.6875 8.5 C-3.6875 6.5 -3.6875 6.5 -3.875 3.9375 C-3.61169392 0.51452101 -3.39960618 0.63248487 0 0 Z " fill="#E99F91" transform="translate(55.6875,4.5)"/>
	

	<path d="M0 0 C2.33944736 0.28730055 4.6739143 0.61936779 7 1 C7.33 1.99 7.66 2.98 8 4 C7 5 7 5 3.9375 5.0625 C2.968125 5.041875 1.99875 5.02125 1 5 C0.34 3.68 -0.32 2.36 -1 1 C-0.67 0.67 -0.34 0.34 0 0 Z " fill="#D92A27" transform="translate(100,71)"/>
	

	

	<path d="M0 0 C0.33 0 0.66 0 1 0 C1.33027082 2.75025517 1.61498834 5.49297983 1.875 8.25 C2.02195312 9.41595703 2.02195312 9.41595703 2.171875 10.60546875 C2.36640355 12.88145276 2.46710352 14.76108532 2 17 C-0.9921875 19.546875 -0.9921875 19.546875 -4 21 C-4 20.01 -4 19.02 -4 18 C-3.01 17.34 -2.02 16.68 -1 16 C-0.61605333 13.22737745 -0.39657752 10.65676472 -0.3125 7.875 C-0.27833984 7.12089844 -0.24417969 6.36679687 -0.20898438 5.58984375 C-0.12645722 3.72708799 -0.06155289 1.86356674 0 0 Z " fill="#EED2CE" transform="translate(93,10)"/>
	

	<path d="M0 0 C2 3 2 3 2 6 C7.28 6 12.56 6 18 6 C18.33 5.34 18.66 4.68 19 4 C19.66 5.65 20.32 7.3 21 9 C20.01 8.67 19.02 8.34 18 8 C16.66636297 7.85596652 15.32781954 7.75409577 13.98828125 7.68359375 C13.23095703 7.64169922 12.47363281 7.59980469 11.69335938 7.55664062 C10.51483398 7.49766602 10.51483398 7.49766602 9.3125 7.4375 C8.51521484 7.39431641 7.71792969 7.35113281 6.89648438 7.30664062 C4.93118553 7.20072632 2.96561504 7.09987449 1 7 C0.67 4.69 0.34 2.38 0 0 Z " fill="#F0D6D3" transform="translate(65,12)"/>
	

	

	<path d="M0 0 C0 1.65 0 3.3 0 5 C-1.98 5.99 -1.98 5.99 -4 7 C-5 6 -5 6 -5.0625 3.4375 C-5.041875 2.633125 -5.02125 1.82875 -5 1 C-3 0 -3 0 0 0 Z " fill="#E07B6D" transform="translate(118,113)"/>
	

	

	

	

	<path d="M0 0 C0.99 0.66 1.98 1.32 3 2 C3 3.32 3 4.64 3 6 C1.35 6 -0.3 6 -2 6 C-1.49396008 3.83125748 -1.00016187 2.00032373 0 0 Z " fill="#DC211F" transform="translate(113,101)"/>
	

	

	

	<path d="M0 0 C1.2065625 0.0309375 1.2065625 0.0309375 2.4375 0.0625 C-0.6309847 3.03800031 -2.02486331 4.02724513 -6.375 4.3125 C-7.426875 4.23 -8.47875 4.1475 -9.5625 4.0625 C-9.5625 3.4025 -9.5625 2.7425 -9.5625 2.0625 C-8.593125 1.918125 -7.62375 1.77375 -6.625 1.625 C-3.51819849 1.05436299 -3.01883152 0.07363004 0 0 Z " fill="#D93E3A" transform="translate(114.5625,83.9375)"/>
	

	

	

	

	

	

	

	

</svg>
