<?xml version="1.0" encoding="UTF-8"?>
<svg version="1.1" xmlns="http://www.w3.org/2000/svg" width="128" height="128">
<path d="M0 0 C42.24 0 84.48 0 128 0 C128 42.24 128 84.48 128 128 C85.76 128 43.52 128 0 128 C0 85.76 0 43.52 0 0 Z " fill="#555C59" transform="translate(0,0)"/>
<path d="M0 0 C0.33 0 0.66 0 1 0 C1 27.06 1 54.12 1 82 C-32.33 82 -65.66 82 -100 82 C-100.66 80.35 -101.32 78.7 -102 77 C-103.65438613 76.30341637 -105.32254318 75.63903117 -107 75 C-110.0886933 71.82550966 -111.49614177 69.40875955 -112 65 C-110.7625 64.896875 -109.525 64.79375 -108.25 64.6875 C-104.63162395 64.24235708 -102.79099524 63.40603038 -100 61 C-97.03829782 59.62750387 -95.28719109 59 -92 59 C-91.67 58.01 -91.34 57.02 -91 56 C-88.525 55.505 -88.525 55.505 -86 55 C-86 54.34 -86 53.68 -86 53 C-85.38125 52.608125 -84.7625 52.21625 -84.125 51.8125 C-81.15914645 49.28280139 -80.91495209 46.72516208 -80 43 C-79.37530495 41.64649406 -78.7283669 40.30065517 -78 39 C-77.01 39 -76.02 39 -75 39 C-74.74863281 38.44183594 -74.49726562 37.88367188 -74.23828125 37.30859375 C-71.80223159 32.76693649 -68.29208639 28.94158893 -65 25 C-64.52949219 24.41863281 -64.05898437 23.83726563 -63.57421875 23.23828125 C-61.44780063 20.8209525 -60.120791 20.02465122 -56.9375 19.375 C-54 20 -54 20 -51.625 22.25 C-50 25 -50 25 -50 29 C-49.34 29 -48.68 29 -48 29 C-46.82881699 30.68449748 -45.73757338 32.42495999 -44.6875 34.1875 C-42.08671108 38.39084973 -39.72836725 41.77546616 -36 45 C-35.01 45.928125 -35.01 45.928125 -34 46.875 C-32.03644439 48.21443142 -32.03644439 48.21443142 -29.625 47.875 C-26.48856277 46.82952092 -23.81571316 45.7519993 -21 44 C-19.71745356 41.46229997 -19.71745356 41.46229997 -19 39 C-18.34 38.67 -17.68 38.34 -17 38 C-15.76418296 35.91251146 -14.64250173 33.85405582 -13.5625 31.6875 C-13.24611572 31.05739014 -12.92973145 30.42728027 -12.60375977 29.77807617 C-10.25454839 24.92279519 -8.94398155 20.1824514 -7.81640625 14.90625 C-6.39812066 9.85742475 -3.77223604 3.77223604 0 0 Z " fill="#050505" transform="translate(127,46)"/>
<path d="M0 0 C32.67 0 65.34 0 99 0 C99 9.9 99 19.8 99 30 C97.35 30.99 95.7 31.98 94 33 C90.7667645 37.77956552 89.03447755 42.4758808 87.5 48 C85.95367503 53.56676988 83.94833187 58.02396163 81 63 C79.89127863 65.63049579 78.90952605 68.2805527 77.9296875 70.9609375 C77 73 77 73 75 74 C72.9375 72.25 72.9375 72.25 71 70 C71.17753613 66.98188578 71.83735215 66.16264785 74 64 C75.34537668 61.14107455 76.11935456 58.46749504 76.8125 55.375 C78.09420871 49.93555329 80.58531108 45.01370525 83 40 C83.66 40 84.32 40 85 40 C85.33 36.37 85.66 32.74 86 29 C86.66 29 87.32 29 88 29 C90.68387592 19.42862327 90.68387592 19.42862327 89 10 C88.01 10 87.02 10 86 10 C85.566875 11.051875 85.13375 12.10375 84.6875 13.1875 C83.72429235 15.45467272 82.75036585 17.39941464 81.4375 19.5 C79.68163444 22.55367924 78.86692341 25.59899277 78 29 C77.34 29 76.68 29 76 29 C76 22.73 76 16.46 76 10 C73.69 9.67 71.38 9.34 69 9 C66.66813084 10.89955818 66.66813084 10.89955818 66.75 14.125 C66.95128337 17.24489222 67.28584726 18.98317084 68.25 21.8125 C69.54861385 26.41101618 67.87731749 29.33980105 65.97265625 33.54296875 C64.47492426 37.32639613 64.52061013 39.95942828 65 44 C65.50015625 44.77085938 66.0003125 45.54171875 66.515625 46.3359375 C68.31943629 49.57330408 68.30865579 51.63744099 68.1875 55.3125 C68.14689453 56.91544922 68.14689453 56.91544922 68.10546875 58.55078125 C68.07066406 59.35902344 68.03585938 60.16726562 68 61 C66.10546875 60.3046875 66.10546875 60.3046875 64 59 C62.98828125 56.7578125 62.98828125 56.7578125 62.3125 54.125 C61.96638672 52.82949219 61.96638672 52.82949219 61.61328125 51.5078125 C61.41089844 50.68023437 61.20851563 49.85265625 61 49 C60.80792969 48.23429687 60.61585937 47.46859375 60.41796875 46.6796875 C60.28003906 46.12539063 60.14210938 45.57109375 60 45 C59.34 45 58.68 45 58 45 C57.60167969 43.87851563 57.60167969 43.87851563 57.1953125 42.734375 C56.84210938 41.74953125 56.48890625 40.7646875 56.125 39.75 C55.77695313 38.77546875 55.42890625 37.8009375 55.0703125 36.796875 C54.16725355 34.43705673 53.17921582 32.23094884 52 30 C51.34 30 50.68 30 50 30 C49.72285156 29.28972656 49.44570312 28.57945313 49.16015625 27.84765625 C48.61681641 26.46900391 48.61681641 26.46900391 48.0625 25.0625 C47.52302734 23.68771484 47.52302734 23.68771484 46.97265625 22.28515625 C46.2003782 20.07581467 46.2003782 20.07581467 45 19 C41.55107891 19.01592762 41.55107891 19.01592762 38 20 C36.33542672 22.21692394 36.33542672 22.21692394 35 25 C33.49256333 26.5954038 31.91936167 28.08416961 30.3046875 29.5703125 C28.7467403 31.08327644 28.7467403 31.08327644 28 34 C27.34 34 26.68 34 26 34 C25.71125 34.5775 25.4225 35.155 25.125 35.75 C24.75375 36.4925 24.3825 37.235 24 38 C23.731875 38.639375 23.46375 39.27875 23.1875 39.9375 C21.55935248 42.76533516 19.32957296 44.72589307 17 47 C14.20214824 50.19754487 12.38022025 52.9743576 11 57 C9.68 57 8.36 57 7 57 C7 57.66 7 58.32 7 59 C6.34 59 5.68 59 5 59 C5 59.99 5 60.98 5 62 C4.34 62 3.68 62 3 62 C2.72285156 63.25296875 2.44570313 64.5059375 2.16015625 65.796875 C1.79429904 67.44792292 1.42841207 69.09896424 1.0625 70.75 C0.88009766 71.575 0.69769531 72.4 0.50976562 73.25 C0.33251953 74.04921875 0.15527344 74.8484375 -0.02734375 75.671875 C-0.18968506 76.4050293 -0.35202637 77.13818359 -0.51928711 77.89355469 C-0.67792236 78.58868164 -0.83655762 79.28380859 -1 80 C-1.12318604 80.72864258 -1.24637207 81.45728516 -1.37329102 82.20800781 C-1.58010498 82.79936523 -1.78691895 83.39072266 -2 84 C-3.485 84.495 -3.485 84.495 -5 85 C-6.94983565 83.05016435 -6.2645578 80.15466161 -6.29223633 77.56176758 C-6.10583462 65.70424863 -3.05310107 59.29979758 4.70507812 50.51904297 C6.34427852 48.59613481 7.63844009 46.53879557 8.9375 44.375 C14.62001612 35.63522375 23.18692976 26.35980268 31.5 20.125 C34.20711844 17.82394932 35.8357325 15.48689593 37.69140625 12.48828125 C39.32922924 10.62556316 40.59184458 10.38184282 43 10 C40.78770401 7.45585961 39.34873329 6.45253153 36 6 C28.99283655 5.64370355 21.87226534 5.64996472 16.25 10.25 C14.72121144 12.11851935 13.20064634 13.99379103 11.6875 15.875 C6.63485599 22.03290989 -0.18589923 27.87527825 -7 32 C-7.99 32 -8.98 32 -10 32 C-10.37125 32.9590625 -10.37125 32.9590625 -10.75 33.9375 C-12.06746411 37.16528708 -13.47423592 40.3434403 -14.90234375 43.5234375 C-15.26457031 44.34070312 -15.62679688 45.15796875 -16 46 C-16.50273437 47.03640625 -17.00546875 48.0728125 -17.5234375 49.140625 C-19.47863001 53.72678768 -20.04527682 58.46181718 -20.6875 63.375 C-20.81705078 64.26960938 -20.94660156 65.16421875 -21.08007812 66.0859375 C-22.18564517 74.13493355 -22.74430668 81.49254848 -20.4375 89.375 C-18.89440994 94.68322981 -18.89440994 94.68322981 -20 98 C-25.83859557 86.02409003 -25.96124115 74.86915938 -23.1875 62 C-22.91728027 60.69724121 -22.91728027 60.69724121 -22.64160156 59.36816406 C-21.39148648 53.47160354 -19.907364 47.72209201 -18 42 C-19.98 46.95 -19.98 46.95 -22 52 C-22.33 52 -22.66 52 -23 52 C-22.85833643 50.08302063 -22.71150416 48.16642277 -22.5625 46.25 C-22.48128906 45.18265625 -22.40007813 44.1153125 -22.31640625 43.015625 C-21.81828629 38.26811134 -21.35756409 36.33435513 -18 33 C-16.56659519 30.70487906 -15.20167322 28.41698049 -13.875 26.0625 C-13.51535156 25.44181641 -13.15570313 24.82113281 -12.78515625 24.18164062 C-11.07873297 21.18101992 -9.56743778 18.43041929 -9 15 C-8.34 15 -7.68 15 -7 15 C-6.71125 14.0925 -6.4225 13.185 -6.125 12.25 C-3.74418605 5.37209302 -3.74418605 5.37209302 -1 4 C-0.67 2.68 -0.34 1.36 0 0 Z " fill="#3F4040" transform="translate(29,0)"/>
<path d="M0 0 C5.63417044 2.29540277 8.78860562 6.14071547 11.125 11.625 C11.56199219 12.75808594 11.56199219 12.75808594 12.0078125 13.9140625 C12.86203042 16.03567904 12.86203042 16.03567904 14.44921875 17.36328125 C16.73281733 19.77342685 17.53650111 22.46897444 18.6875 25.5625 C19.12449219 26.71878906 19.56148437 27.87507813 20.01171875 29.06640625 C21 32 21 32 21 34 C21.66 34 22.32 34 23 34 C23.495 37.465 23.495 37.465 24 41 C24.99 41.33 25.98 41.66 27 42 C28.94287435 44.72002409 29.9838239 46.93653991 30.8125 50.1875 C31.4003125 51.5796875 31.4003125 51.5796875 32 53 C33.98 53.66 35.96 54.32 38 55 C39.98 51.04 41.96 47.08 44 43 C45.64630373 49.58521493 42.10655916 55.23545811 39 61 C35.47471765 65.32004467 31.08079454 67.76940728 26 70 C24.55680308 69.09232898 23.12065894 68.17343894 21.6875 67.25 C20.88699219 66.73953125 20.08648437 66.2290625 19.26171875 65.703125 C15.21225919 62.65379103 13.6612908 59.50842284 12.125 54.75 C10.40823035 49.8617933 8.55783206 44.86810811 5 41 C2.01265201 39.826399 1.14776104 39.95074632 -2 41 C-2.66 41.99 -3.32 42.98 -4 44 C-6.98095703 44.43237305 -6.98095703 44.43237305 -10.7578125 44.51171875 C-11.75238968 44.53864555 -11.75238968 44.53864555 -12.76705933 44.56611633 C-14.88630803 44.62032924 -17.00533025 44.65414771 -19.125 44.6875 C-20.56122952 44.72066367 -21.9974291 44.75515245 -23.43359375 44.79101562 C-26.95551129 44.87605964 -30.47750759 44.94281873 -34 45 C-33.22702387 40.32453363 -31.40973422 37.2623705 -28.625 33.5 C-28.18599365 32.89486572 -27.7469873 32.28973145 -27.29467773 31.66625977 C-23.64238928 26.70401633 -19.73544787 21.97838781 -15.66845703 17.3515625 C-13.70379881 15.10291856 -11.96348094 12.93821964 -10.44140625 10.36328125 C-8.86519774 7.77898274 -7.19209858 6.18234052 -4.875 4.25 C-4.17117187 3.65703125 -3.46734375 3.0640625 -2.7421875 2.453125 C-1.87980469 1.73382812 -1.87980469 1.73382812 -1 1 C-0.67 0.67 -0.34 0.34 0 0 Z " fill="#F2F2F2" transform="translate(69,23)"/>
<path d="M0 0 C1 1 1 1 1.1328125 3.22265625 C1.11716286 8.91130171 0.84921859 14.37392681 0 20 C0.66 20 1.32 20 2 20 C2.09796875 19.43152344 2.1959375 18.86304687 2.296875 18.27734375 C3.36966197 12.73769378 5.00553465 8.77242915 8 4 C8.6802367 2.67353844 9.35492261 1.34391123 10 0 C11.9375 0.375 11.9375 0.375 14 1 C15.96224402 4.92448803 15.42538262 9.39986888 14.328125 13.52734375 C13.59844559 15.70605632 12.83271312 17.85873768 12 20 C11.34 20 10.68 20 10 20 C10.020625 21.258125 10.04125 22.51625 10.0625 23.8125 C10.10886083 26.64051087 9.91692961 28.24921116 9 31 C8.34 31 7.68 31 7 31 C6.9175 31.66 6.835 32.32 6.75 33 C6.08864548 35.64541806 5.31112729 37.48914711 4.0625 39.875 C2.17524583 43.49280493 1.04437854 47.04628123 0 51 C-1.08717933 54.05769188 -1.69879802 55.69879802 -4 58 C-3.67801034 61.09926819 -3.67801034 61.09926819 -3 64 C-1.0449346 63.85119064 -1.0449346 63.85119064 1 63 C2.22168451 60.96551869 2.22168451 60.96551869 3 58.4375 C4.13942924 55.2807933 5.28564553 52.35643963 6.9375 49.4375 C9.45613749 44.64618572 10.68765868 39.39472145 11.98608398 34.16577148 C13.37008653 28.98682806 15.14604516 25.7783871 19 22 C21.3125 21.125 21.3125 21.125 23 21 C24.06626547 37.09271034 24.06626547 37.09271034 18.52734375 43.921875 C15.87088211 47.53629339 15.07627666 51.70801868 14 56 C12.71124218 61.10182569 10.93409779 65.34060212 8.375 69.9375 C7.42753906 71.65259766 7.42753906 71.65259766 6.4609375 73.40234375 C5.97882813 74.25957031 5.49671875 75.11679688 5 76 C4.34 76 3.68 76 3 76 C3 76.721875 3 77.44375 3 78.1875 C1.64094413 82.00984465 -0.41667005 83.15076358 -3.8671875 85.1171875 C-6.9636235 86.39886248 -8.89166666 86.15658915 -12 85 C-13.875 83.4375 -13.875 83.4375 -15 82 C-14.67 81.34 -14.34 80.68 -14 80 C-12.35 80.99 -10.7 81.98 -9 83 C0.72527725 77.40637648 4.59353891 71.64027716 7.51953125 60.90625 C7.67808594 60.2771875 7.83664063 59.648125 8 59 C7.67386719 59.71027344 7.34773438 60.42054687 7.01171875 61.15234375 C6.57472656 62.07144531 6.13773437 62.99054688 5.6875 63.9375 C5.25824219 64.85402344 4.82898438 65.77054687 4.38671875 66.71484375 C3 69 3 69 0 70 C-3.02638856 68.91360411 -4.59882854 67.76265105 -6.10546875 64.8984375 C-6.77175793 63.33099859 -7.40745945 61.75010765 -8.0078125 60.15625 C-8.87213429 57.94304832 -8.87213429 57.94304832 -10.57421875 56.44921875 C-12.91385314 54.07112462 -12.69785445 51.20274288 -13 48 C-13.66 48 -14.32 48 -15 48 C-20.55580866 36.47835991 -20.55580866 36.47835991 -21 31 C-21.99 30.67 -22.98 30.34 -24 30 C-24.9921875 28.109375 -24.9921875 28.109375 -25.875 25.75 C-27.60598221 21.60753493 -29.38150061 18.80433703 -33 16 C-37.6720912 16 -38.24368075 16.64946072 -41.5625 19.6875 C-42.70912109 20.71423828 -42.70912109 20.71423828 -43.87890625 21.76171875 C-46.05320373 24.05614316 -47.38492278 26.28995517 -49 29 C-51.01815029 31.5956075 -53.14058342 34.10335377 -55.25 36.625 C-64.01691181 46.97518313 -64.01691181 46.97518313 -70 59 C-69.01 58.505 -69.01 58.505 -68 58 C-65.91886173 57.88131927 -63.83427639 57.82089912 -61.75 57.7890625 C-60.5021875 57.76070312 -59.254375 57.73234375 -57.96875 57.703125 C-55.32305887 57.65104447 -52.67720249 57.60677248 -50.03125 57.5703125 C-48.7834375 57.539375 -47.535625 57.5084375 -46.25 57.4765625 C-44.52523437 57.4468335 -44.52523437 57.4468335 -42.765625 57.41650391 C-41.85296875 57.27905762 -40.9403125 57.14161133 -40 57 C-39.34 56.01 -38.68 55.02 -38 54 C-35.6875 53 -35.6875 53 -33 53 C-26.63490431 58.15269651 -24.32701984 64.42480776 -22 72 C-23.37562854 70.71034824 -24.70766393 69.37310707 -26 68 C-26 67.34 -26 66.68 -26 66 C-26.66 66 -27.32 66 -28 66 C-28.474375 64.865625 -28.94875 63.73125 -29.4375 62.5625 C-30.63622083 59.24259834 -30.63622083 59.24259834 -32 58 C-34.95817107 57.74994614 -34.95817107 57.74994614 -38 58 C-38.66 58.66 -39.32 59.32 -40 60 C-51.09224421 62.74762013 -62.66996564 62.20517165 -74 62 C-73.505 59.03 -73.505 59.03 -73 56 C-72.34 56 -71.68 56 -71 56 C-69.92474806 53.34771188 -68.90543849 50.71631546 -68 48 C-67.01 48 -66.02 48 -65 48 C-64.814375 47.195625 -64.62875 46.39125 -64.4375 45.5625 C-62.43912075 40.6099949 -58.93874628 34.46937314 -54 32 C-52.88365848 30.34948712 -52.88365848 30.34948712 -51.875 28.4375 C-51.25625 27.303125 -50.6375 26.16875 -50 25 C-49.34 25 -48.68 25 -48 25 C-47.90589844 24.4121875 -47.81179687 23.824375 -47.71484375 23.21875 C-46.84165872 20.50853636 -45.65070963 19.41021256 -43.5625 17.5 C-41.53682678 15.63925633 -40.15606689 14.34028703 -39.00390625 11.828125 C-38.67261719 11.22484375 -38.34132812 10.6215625 -38 10 C-34.375 9.25 -34.375 9.25 -31 9 C-30.15556432 10.24252679 -29.3248542 11.4943886 -28.5 12.75 C-28.0359375 13.44609375 -27.571875 14.1421875 -27.09375 14.859375 C-26 17 -26 17 -26 21 C-25.34 21 -24.68 21 -24 21 C-20.17432808 25.66253765 -18.99418967 30.11335061 -18 36 C-17.34 36 -16.68 36 -16 36 C-13.81668822 40.66111678 -11.95237752 44.92065324 -11 50 C-10.34 50.33 -9.68 50.66 -9 51 C-8.58497402 42.54290611 -8.58497402 42.54290611 -12 35 C-12.61606519 29.80745058 -12.02507068 26.74473224 -9.875 22 C-7.96341485 17.63543671 -7.89627685 15.33788465 -9.40234375 10.8828125 C-10.36481749 7.85070567 -10.30751521 5.13665512 -10 2 C-7.70416093 -2.32157943 -4.21625407 -0.93694535 0 0 Z " fill="#858C8A" transform="translate(105,9)"/>
<path d="M0 0 C9.57 0 19.14 0 29 0 C28.67 1.65 28.34 3.3 28 5 C27.34 5 26.68 5 26 5 C25.566875 6.36125 25.566875 6.36125 25.125 7.75 C24.23468224 10.32202908 23.28505587 12.61346766 22 15 C21.34 15 20.68 15 20 15 C19.92652344 15.82757813 19.85304688 16.65515625 19.77734375 17.5078125 C18.80160003 21.89130439 16.90720259 25.08825028 14.5625 28.875 C14.15451172 29.56335938 13.74652344 30.25171875 13.32617188 30.9609375 C12.28042253 32.68053839 11.14680382 34.34607742 10 36 C9.34 36 8.68 36 8 36 C8 37.27875 8 38.5575 8 39.875 C8 41.91666667 8 43.95833333 8 46 C8.99 44.35 9.98 42.7 11 41 C12.23460016 44.70380048 11.24579911 46.20837238 9.84130859 49.70800781 C8.38886821 53.66491735 7.62471857 57.7475391 6.8125 61.875 C6.63525391 62.70902344 6.45800781 63.54304688 6.27539062 64.40234375 C3.06982447 80.4177978 6.57970343 94.16665563 15 108 C20.94 107.505 20.94 107.505 27 107 C23 111 23 111 20.859375 111.390625 C18.90625 111.26041667 16.953125 111.13020833 15 111 C17.42061608 116.86643427 19.53201917 119.55279469 25 123 C25.66 124.65 26.32 126.3 27 128 C18.09 128 9.18 128 0 128 C0 85.76 0 43.52 0 0 Z " fill="#1F201F" transform="translate(0,0)"/>
<path d="M0 0 C17.49 0 34.98 0 53 0 C53.103125 4.888125 53.20625 9.77625 53.3125 14.8125 C53.35802002 16.35139893 53.40354004 17.89029785 53.45043945 19.47583008 C53.46917114 21.29183716 53.46917114 21.29183716 53.48828125 23.14453125 C53.51446533 24.38565674 53.54064941 25.62678223 53.56762695 26.90551758 C53 30 53 30 50.60424805 31.72924805 C49.31514526 32.35827026 49.31514526 32.35827026 48 33 C44.7667645 37.77956552 43.03447755 42.4758808 41.5 48 C39.95367503 53.56676988 37.94833187 58.02396163 35 63 C33.89127863 65.63049579 32.90952605 68.2805527 31.9296875 70.9609375 C31 73 31 73 29 74 C26.9375 72.25 26.9375 72.25 25 70 C25.17753613 66.98188578 25.83735215 66.16264785 28 64 C29.34537668 61.14107455 30.11935456 58.46749504 30.8125 55.375 C32.09420871 49.93555329 34.58531108 45.01370525 37 40 C37.66 40 38.32 40 39 40 C39.33 36.37 39.66 32.74 40 29 C40.66 29 41.32 29 42 29 C44.68387592 19.42862327 44.68387592 19.42862327 43 10 C42.01 10 41.02 10 40 10 C39.566875 11.051875 39.13375 12.10375 38.6875 13.1875 C37.72429235 15.45467272 36.75036585 17.39941464 35.4375 19.5 C33.68163444 22.55367924 32.86692341 25.59899277 32 29 C31.34 29 30.68 29 30 29 C30 22.73 30 16.46 30 10 C26.49656414 8.24828207 22.42423276 8.57809543 18.71875 9.67578125 C14.94908675 10.12532443 12.17895541 8.8216007 8.8125 7.3125 C8.18408203 7.05533203 7.55566406 6.79816406 6.90820312 6.53320312 C2.87436852 4.77729865 2.05951692 4.11903384 0 0 Z " fill="#1E1F1E" transform="translate(75,0)"/>
<path d="M0 0 C1.23556641 0.01740234 1.23556641 0.01740234 2.49609375 0.03515625 C3.32238281 0.04417969 4.14867187 0.05320312 5 0.0625 C5.63808594 0.07410156 6.27617188 0.08570312 6.93359375 0.09765625 C6.93359375 7.72606563 0.35572296 12.76793732 -4.62890625 18.09765625 C-8.08344502 21.79796797 -11.15756587 25.41143412 -13.68359375 29.80859375 C-15.72027342 33.18004653 -17.9831392 36.38076972 -20.25390625 39.59765625 C-20.69484619 40.23429199 -21.13578613 40.87092773 -21.59008789 41.52685547 C-22.69750205 43.08818375 -23.87653937 44.59821338 -25.06640625 46.09765625 C-25.72640625 46.09765625 -26.38640625 46.09765625 -27.06640625 46.09765625 C-27.22109375 47.05671875 -27.22109375 47.05671875 -27.37890625 48.03515625 C-28.10972668 51.29062905 -29.15258606 54.32874668 -30.24609375 57.4765625 C-31.50087434 61.48588525 -32.3513369 65.5837579 -33.22265625 69.69140625 C-33.50109375 70.48546875 -33.77953125 71.27953125 -34.06640625 72.09765625 C-35.55140625 72.59265625 -35.55140625 72.59265625 -37.06640625 73.09765625 C-43.0637642 64.10161933 -40.01292328 49.00520922 -38.06640625 39.09765625 C-36.39762531 34.17992127 -33.89140486 30.59479784 -30.06640625 27.09765625 C-29.1001584 25.97944658 -28.14311909 24.85326248 -27.19140625 23.72265625 C-23.61499117 19.61094261 -19.83566913 15.7195528 -16.00390625 11.84765625 C-15.41432129 11.24518066 -14.82473633 10.64270508 -14.21728516 10.02197266 C-10.72233218 6.51921191 -7.2634366 3.71690253 -3.06640625 1.09765625 C-2.06640625 0.09765625 -2.06640625 0.09765625 0 0 Z " fill="#A3A7A5" transform="translate(50.06640625,17.90234375)"/>
<path d="M0 0 C8.91 0 17.82 0 27 0 C26.12650515 3.49397942 25.19458184 5.68637013 23.4375 8.75 C22.98246094 9.54921875 22.52742188 10.3484375 22.05859375 11.171875 C21.70925781 11.77515625 21.35992188 12.3784375 21 13 C20.34 13 19.68 13 19 13 C18.67 14.98 18.34 16.96 18 19 C17.34 19 16.68 19 16 19 C15.84337891 20.07314453 15.84337891 20.07314453 15.68359375 21.16796875 C14.92477733 24.31163677 13.73506294 26.55215773 12.0625 29.3125 C11.53785156 30.19550781 11.01320313 31.07851563 10.47265625 31.98828125 C9.98667969 32.65214844 9.50070312 33.31601562 9 34 C8.34 34 7.68 34 7 34 C6.9175 34.804375 6.835 35.60875 6.75 36.4375 C5.80742848 40.91471471 4.23190864 44.99940904 2 49 C1.01 49.495 1.01 49.495 0 50 C0 33.5 0 17 0 0 Z " fill="#F3F2F2" transform="translate(0,0)"/>
<path d="M0 0 C1 1 1 1 1.1328125 3.22265625 C1.11716286 8.91130171 0.84921859 14.37392681 0 20 C0.66 20 1.32 20 2 20 C2.14695312 19.14728516 2.14695312 19.14728516 2.296875 18.27734375 C3.36966197 12.73769378 5.00553465 8.77242915 8 4 C8.6802367 2.67353844 9.35492261 1.34391123 10 0 C11.9375 0.375 11.9375 0.375 14 1 C15.96224402 4.92448803 15.42538262 9.39986888 14.328125 13.52734375 C13.59844559 15.70605632 12.83271312 17.85873768 12 20 C11.34 20 10.68 20 10 20 C10.020625 21.258125 10.04125 22.51625 10.0625 23.8125 C10.10886083 26.64051087 9.91692961 28.24921116 9 31 C8.34 31 7.68 31 7 31 C6.87625 31.99 6.87625 31.99 6.75 33 C6.08864548 35.64541806 5.31112729 37.48914711 4.0625 39.875 C2.15336304 43.52665833 0.99807997 47.00768011 0 51 C-0.33 51 -0.66 51 -1 51 C-1.80161914 44.05263408 0.27705567 39.92987688 3.53125 33.8359375 C6.17006207 28.7407844 7 24.81787184 7 19 C4.03 24.445 4.03 24.445 1 30 C0.34 30 -0.32 30 -1 30 C-3.61337598 36.34677023 -5.3045323 41.98494449 -5.625 48.875 C-5.66367188 49.56335937 -5.70234375 50.25171875 -5.7421875 50.9609375 C-5.83548166 52.64023246 -5.91878238 54.32007767 -6 56 C-6.66 56 -7.32 56 -8 56 C-8.66 54.35 -9.32 52.7 -10 51 C-9.67 51 -9.34 51 -9 51 C-8.58497402 42.54290611 -8.58497402 42.54290611 -12 35 C-12.61606519 29.80745058 -12.02507068 26.74473224 -9.875 22 C-7.96341485 17.63543671 -7.89627685 15.33788465 -9.40234375 10.8828125 C-10.36481749 7.85070567 -10.30751521 5.13665512 -10 2 C-7.70416093 -2.32157943 -4.21625407 -0.93694535 0 0 Z " fill="#5E6663" transform="translate(105,9)"/>
<path d="M0 0 C11.88 0 23.76 0 36 0 C31.88539616 3.08595288 30.03846998 3.58688853 25.125 4.4375 C18.23244927 5.82315269 14.07153523 7.31260295 9.6875 13 C7.60238683 15.69719478 5.7275205 16.70430639 2.5625 17.9375 C-6.09353066 21.45714222 -10.49093261 30.1991892 -15 38 C-15.33 38.99 -15.66 39.98 -16 41 C-16.99 41.66 -17.98 42.32 -19 43 C-20.00805555 45.17897492 -20.00805555 45.17897492 -20.6875 47.625 C-20.93886719 48.44226562 -21.19023437 49.25953125 -21.44921875 50.1015625 C-21.63097656 50.72804687 -21.81273437 51.35453125 -22 52 C-22.33 52 -22.66 52 -23 52 C-22.85833643 50.08302063 -22.71150416 48.16642277 -22.5625 46.25 C-22.48128906 45.18265625 -22.40007813 44.1153125 -22.31640625 43.015625 C-21.81828629 38.26811134 -21.35756409 36.33435513 -18 33 C-16.56659519 30.70487906 -15.20167322 28.41698049 -13.875 26.0625 C-13.51535156 25.44181641 -13.15570313 24.82113281 -12.78515625 24.18164062 C-11.07873297 21.18101992 -9.56743778 18.43041929 -9 15 C-8.34 15 -7.68 15 -7 15 C-6.71125 14.0925 -6.4225 13.185 -6.125 12.25 C-3.74418605 5.37209302 -3.74418605 5.37209302 -1 4 C-0.67 2.68 -0.34 1.36 0 0 Z " fill="#1D1E1D" transform="translate(29,0)"/>
<path d="M0 0 C0.77601562 -0.00515625 1.55203125 -0.0103125 2.3515625 -0.015625 C4.375 0.25 4.375 0.25 6.375 2.25 C6.375 8.72048984 3.71347738 11.88498759 -0.625 16.25 C-0.625 14.58333333 -0.625 12.91666667 -0.625 11.25 C-6.67394247 10.71402733 -6.67394247 10.71402733 -12.1875 12.8125 C-12.991875 13.616875 -13.79625 14.42125 -14.625 15.25 C-15.78931965 16.23195633 -16.95630615 17.21075379 -18.125 18.1875 C-22.0222285 21.62272436 -25.74228537 25.22546233 -29.4375 28.875 C-30.00082031 29.42534912 -30.56414063 29.97569824 -31.14453125 30.54272461 C-34.1925134 33.58383781 -36.51170753 36.46202293 -38.625 40.25 C-39.305625 40.91 -39.98625 41.57 -40.6875 42.25 C-46.78034551 48.53938891 -46.66795212 60.75434987 -46.875 69.125 C-46.77204676 73.62920409 -45.77438081 77.90903497 -44.625 82.25 C-43.635 82.25 -42.645 82.25 -41.625 82.25 C-41.36976562 80.69152344 -41.36976562 80.69152344 -41.109375 79.1015625 C-39.73476165 71.07158572 -38.13971978 63.67194633 -34.625 56.25 C-34.295 56.25 -33.965 56.25 -33.625 56.25 C-33.625 58.23 -33.625 60.21 -33.625 62.25 C-34.285 62.25 -34.945 62.25 -35.625 62.25 C-35.728125 63.28125 -35.83125 64.3125 -35.9375 65.375 C-36.45914805 69.42501752 -37.1618382 73.42850887 -37.9375 77.4375 C-38.16050781 78.60667969 -38.38351563 79.77585937 -38.61328125 80.98046875 C-39.70491804 84.50826796 -41.15273842 86.54325588 -43.625 89.25 C-44.615 88.92 -45.605 88.59 -46.625 88.25 C-51.50292668 77.55067934 -49.8547444 65.81986292 -48.4375 54.5625 C-48.33679199 53.68352051 -48.23608398 52.80454102 -48.13232422 51.89892578 C-46.8985753 43.06342375 -43.14715804 36.42727758 -37.125 29.875 C-36.3928125 29.06289063 -35.660625 28.25078125 -34.90625 27.4140625 C-32.61482919 25.24035167 -30.32637984 23.85951778 -27.625 22.25 C-25.85750508 20.4770501 -25.85750508 20.4770501 -24.3125 18.5 C-21.27860958 14.88980288 -18.00778706 11.88771336 -14.41015625 8.8515625 C-12.42787411 7.16125268 -12.42787411 7.16125268 -10.375 4.4375 C-7.45734578 0.79043223 -4.58520019 -0.03067024 0 0 Z " fill="#7D8583" transform="translate(57.625,7.75)"/>
<path d="M0 0 C3.45831586 -0.02894547 6.91660072 -0.04678 10.375 -0.0625 C11.35984375 -0.07087891 12.3446875 -0.07925781 13.359375 -0.08789062 C14.77089844 -0.09272461 14.77089844 -0.09272461 16.2109375 -0.09765625 C17.51490479 -0.10551147 17.51490479 -0.10551147 18.84521484 -0.11352539 C21 0 21 0 23 1 C21.65939089 6.11868932 19.36055809 8.98372326 16 13 C15.525625 14.216875 15.05125 15.43375 14.5625 16.6875 C13 20 13 20 10 21.9375 C7 23 7 23 4 23 C4 23.66 4 24.32 4 25 C1.08291076 26.98362069 -0.12380904 26.9876191 -3.75 26.625 C-5.35875 26.315625 -5.35875 26.315625 -7 26 C-6.6637164 16.75220113 -3.2175671 8.57033928 0 0 Z " fill="#F4F3F3" transform="translate(30,77)"/>
<path d="M0 0 C1.06626547 16.09271034 1.06626547 16.09271034 -4.47265625 22.921875 C-7.12911789 26.53629339 -7.92372334 30.70801868 -9 35 C-10.28875782 40.10182569 -12.06590221 44.34060212 -14.625 48.9375 C-15.25664063 50.08089844 -15.88828125 51.22429687 -16.5390625 52.40234375 C-17.02117187 53.25957031 -17.50328125 54.11679688 -18 55 C-18.66 55 -19.32 55 -20 55 C-20 55.721875 -20 56.44375 -20 57.1875 C-21.35905587 61.00984465 -23.41667005 62.15076358 -26.8671875 64.1171875 C-29.9636235 65.39886248 -31.89166666 65.15658915 -35 64 C-36.875 62.4375 -36.875 62.4375 -38 61 C-37.67 60.34 -37.34 59.68 -37 59 C-35.35 59.99 -33.7 60.98 -32 62 C-22.27472275 56.40637648 -18.40646109 50.64027716 -15.48046875 39.90625 C-15.32191406 39.2771875 -15.16335937 38.648125 -15 38 C-15.32613281 38.71027344 -15.65226562 39.42054687 -15.98828125 40.15234375 C-16.42527344 41.07144531 -16.86226562 41.99054688 -17.3125 42.9375 C-17.74175781 43.85402344 -18.17101562 44.77054688 -18.61328125 45.71484375 C-20 48 -20 48 -23 49 C-25.625 47.8125 -25.625 47.8125 -28 46 C-28.8125 43.8125 -28.8125 43.8125 -29 42 C-28.34 42 -27.68 42 -27 42 C-26.67 42.99 -26.34 43.98 -26 45 C-24.35 45.33 -22.7 45.66 -21 46 C-19.35 41.05 -17.7 36.1 -16 31 C-15.34 31 -14.68 31 -14 31 C-13.7525 29.845 -13.505 28.69 -13.25 27.5 C-12.83535295 25.66620883 -12.41829162 23.83296327 -12 22 C-11.86045898 21.36771484 -11.72091797 20.73542969 -11.57714844 20.08398438 C-11.10687991 17.96927369 -10.61726104 15.85969017 -10.125 13.75 C-9.90118652 12.72229492 -9.90118652 12.72229492 -9.67285156 11.67382812 C-8.61248629 7.22853406 -7.1635318 4.29999787 -4 1 C-2 0 -2 0 0 0 Z " fill="#BABDBC" transform="translate(128,30)"/>
<path d="M0 0 C3.51374757 3.51374757 5.04275845 5.61494097 7.125 9.9375 C7.87136719 11.46697266 7.87136719 11.46697266 8.6328125 13.02734375 C10.14999325 16.32612818 11.50950414 19.65113638 12.75 23.0625 C14.5827077 25.90319694 17.17592029 27.19258899 20 29 C22.375 31.125 22.375 31.125 24 33 C24 33.66 24 34.32 24 35 C16.08 35 8.16 35 0 35 C0 23.45 0 11.9 0 0 Z " fill="#F3F2F2" transform="translate(0,93)"/>
<path d="M0 0 C17.49 0 34.98 0 53 0 C53 6.6 53 13.2 53 20 C52.01 20.66 51.02 21.32 50 22 C48.98812105 23.65948148 47.9873454 25.32580562 47 27 C46.01 27.495 46.01 27.495 45 28 C45.45611901 26.29107412 45.91500891 24.58288771 46.375 22.875 C46.64441406 21.86953125 46.91382813 20.8640625 47.19140625 19.828125 C48 17 48 17 49.3125 13.625 C50.19934328 10.23887112 49.74196142 9.00884245 48 6 C45.22574276 4.74293123 45.22574276 4.74293123 42 4.1875 C40.39125 3.83751953 40.39125 3.83751953 38.75 3.48046875 C36.13691689 2.9426304 36.13691689 2.9426304 34 3 C33.34 3.99 32.68 4.98 32 6 C29.8359375 6.29296875 29.8359375 6.29296875 27.375 6.1875 C26.55773437 6.16042969 25.74046875 6.13335938 24.8984375 6.10546875 C23.95871094 6.05326172 23.95871094 6.05326172 23 6 C23 6.66 23 7.32 23 8 C20.70084007 9.44761921 19.47714357 10.0627386 16.7421875 9.703125 C13.65084924 8.91047416 10.77458706 7.87601443 7.8125 6.6875 C6.76707031 6.27886719 5.72164063 5.87023437 4.64453125 5.44921875 C2 4 2 4 0 0 Z " fill="#050505" transform="translate(75,0)"/>
<path d="M0 0 C2.475 1.98 2.475 1.98 5 4 C4.67 4.66 4.34 5.32 4 6 C3.01 5.01 2.02 4.02 1 3 C-2.09662174 4.40629578 -4.49786221 6.08388411 -7.0625 8.3125 C-7.73410156 8.88613281 -8.40570313 9.45976562 -9.09765625 10.05078125 C-11.20484885 12.20989646 -12.44960638 14.41110045 -14 17 C-16.01820487 19.59557127 -18.14057942 22.10334899 -20.25 24.625 C-29.01691181 34.97518313 -29.01691181 34.97518313 -35 47 C-34.01 46.505 -34.01 46.505 -33 46 C-30.91886173 45.88131927 -28.83427639 45.82089912 -26.75 45.7890625 C-25.5021875 45.76070312 -24.254375 45.73234375 -22.96875 45.703125 C-20.32305887 45.65104447 -17.67720249 45.60677248 -15.03125 45.5703125 C-13.7834375 45.539375 -12.535625 45.5084375 -11.25 45.4765625 C-9.52523437 45.4468335 -9.52523437 45.4468335 -7.765625 45.41650391 C-6.85296875 45.27905762 -5.9403125 45.14161133 -5 45 C-4.34 44.01 -3.68 43.02 -3 42 C-0.6875 41 -0.6875 41 2 41 C8.36509569 46.15269651 10.67298016 52.42480776 13 60 C11.62437146 58.71034824 10.29233607 57.37310707 9 56 C9 55.34 9 54.68 9 54 C8.34 54 7.68 54 7 54 C6.525625 52.865625 6.05125 51.73125 5.5625 50.5625 C4.36377917 47.24259834 4.36377917 47.24259834 3 46 C0.04182893 45.74994614 0.04182893 45.74994614 -3 46 C-3.66 46.66 -4.32 47.32 -5 48 C-16.09224421 50.74762013 -27.66996564 50.20517165 -39 50 C-38.505 47.03 -38.505 47.03 -38 44 C-37.34 44 -36.68 44 -36 44 C-34.92474806 41.34771188 -33.90543849 38.71631546 -33 36 C-32.01 36 -31.02 36 -30 36 C-29.814375 35.195625 -29.62875 34.39125 -29.4375 33.5625 C-27.43912075 28.6099949 -23.93874628 22.46937314 -19 20 C-17.88365848 18.34948712 -17.88365848 18.34948712 -16.875 16.4375 C-16.25625 15.303125 -15.6375 14.16875 -15 13 C-14.34 13 -13.68 13 -13 13 C-12.90203125 12.41476563 -12.8040625 11.82953125 -12.703125 11.2265625 C-11.43367831 7.20664798 -8.16902953 4.64864152 -5 2 C-2.0625 0.5625 -2.0625 0.5625 0 0 Z " fill="#BDC0BF" transform="translate(70,21)"/>
<path d="M0 0 C0.3125 3.3125 0.3125 3.3125 0 7 C-2.25 8.5 -2.25 8.5 -5 10 C-8.1476447 14.8312686 -9.96492539 19.47373141 -11.5 25 C-13.04632497 30.56676988 -15.05166813 35.02396163 -18 40 C-19.10872137 42.63049579 -20.09047395 45.2805527 -21.0703125 47.9609375 C-22 50 -22 50 -24 51 C-26.0625 49.25 -26.0625 49.25 -28 47 C-27.82246387 43.98188578 -27.16264785 43.16264785 -25 41 C-23.65462332 38.14107455 -22.88064544 35.46749504 -22.1875 32.375 C-20.90579129 26.93555329 -18.41468892 22.01370525 -16 17 C-15.34 17 -14.68 17 -14 17 C-13.67 16.01 -13.34 15.02 -13 14 C-13 14.66 -13 15.32 -13 16 C-9.75267068 14.37633534 -9.29844864 11.24612161 -8 8 C-7.34 8 -6.68 8 -6 8 C-5.9175 7.4225 -5.835 6.845 -5.75 6.25 C-4.95052646 3.85157937 -2.91881069 0 0 0 Z " fill="#2E2F2E" transform="translate(128,23)"/>
<path d="M0 0 C1 3 1 3 -0.3125 5.6875 C-0.869375 6.450625 -1.42625 7.21375 -2 8 C-2.66 8 -3.32 8 -4 8 C-4.33 9.98 -4.66 11.96 -5 14 C-4.14664062 13.835 -3.29328125 13.67 -2.4140625 13.5 C1.0083648 12.99877495 4.17001777 12.9364601 7.625 13 C14.13835393 13.0554328 20.52358365 12.66424783 27 12 C25.55049595 16.35647645 23.32252888 19.31757289 20.375 22.8125 C19.14910156 24.27623047 19.14910156 24.27623047 17.8984375 25.76953125 C17.27195312 26.50558594 16.64546875 27.24164063 16 28 C15.34 27.67 14.68 27.34 14 27 C14.99 25.02 15.98 23.04 17 21 C5.615 20.505 5.615 20.505 -6 20 C-7.485 25.94 -7.485 25.94 -9 32 C-9.33 32 -9.66 32 -10 32 C-9.21914432 22.78590302 -7.65376558 13.54127018 -4 5 C-3.34 5 -2.68 5 -2 5 C-2 4.01 -2 3.02 -2 2 C-1.34 2 -0.68 2 0 2 C0 1.34 0 0.68 0 0 Z " fill="#5E6663" transform="translate(36,57)"/>
<path d="M0 0 C0.66 0.33 1.32 0.66 2 1 C1.09915739 2.65454759 0.17872392 4.2984402 -0.75 5.9375 C-1.26046875 6.85402344 -1.7709375 7.77054688 -2.296875 8.71484375 C-4 11 -4 11 -6.203125 11.81640625 C-6.79609375 11.87699219 -7.3890625 11.93757813 -8 12 C-8.103125 12.639375 -8.20625 13.27875 -8.3125 13.9375 C-8.539375 14.618125 -8.76625 15.29875 -9 16 C-9.99 16.33 -10.98 16.66 -12 17 C-12.6814823 18.89179203 -12.6814823 18.89179203 -13 21 C-13.33 21.99 -13.66 22.98 -14 24 C-14.99 24 -15.98 24 -17 24 C-17.33 25.65 -17.66 27.3 -18 29 C-18.66 29 -19.32 29 -20 29 C-20 29.99 -20 30.98 -20 32 C-20.66 32 -21.32 32 -22 32 C-22.27714844 33.25296875 -22.55429687 34.5059375 -22.83984375 35.796875 C-23.20570096 37.44792292 -23.57158793 39.09896424 -23.9375 40.75 C-24.11990234 41.575 -24.30230469 42.4 -24.49023438 43.25 C-24.66748047 44.04921875 -24.84472656 44.8484375 -25.02734375 45.671875 C-25.18968506 46.4050293 -25.35202637 47.13818359 -25.51928711 47.89355469 C-25.67792236 48.58868164 -25.83655762 49.28380859 -26 50 C-26.12318604 50.72864258 -26.24637207 51.45728516 -26.37329102 52.20800781 C-26.58010498 52.79936523 -26.78691895 53.39072266 -27 54 C-28.485 54.495 -28.485 54.495 -30 55 C-31 54 -31 54 -31.1875 50.5625 C-30.96383656 40.89335751 -28.87349158 35.0091802 -22.77734375 27.34765625 C-20.83706569 25.0453696 -20.83706569 25.0453696 -20 22 C-19.34 22 -18.68 22 -18 22 C-17.7525 21.2575 -17.505 20.515 -17.25 19.75 C-15.88861048 16.75494305 -14.3426579 15.27166827 -12 13 C-11.54625 12.195625 -11.0925 11.39125 -10.625 10.5625 C-8.56670676 7.31672988 -6.00011327 5.37508967 -3 3 C-1.98319689 2.01709032 -0.97261781 1.02665213 0 0 Z " fill="#262726" transform="translate(54,30)"/>
<path d="M0 0 C0.66 0.66 1.32 1.32 2 2 C1.60921496 9.8157008 -0.27789968 17.38593382 -2 25 C-2.66 25 -3.32 25 -4 25 C-4.0825 25.66 -4.165 26.32 -4.25 27 C-4.91135452 29.64541806 -5.68887271 31.48914711 -6.9375 33.875 C-8.84663696 37.52665833 -10.00192003 41.00768011 -11 45 C-11.33 45 -11.66 45 -12 45 C-12.80161914 38.05263408 -10.72294433 33.92987688 -7.46875 27.8359375 C-4.82993793 22.7407844 -4 18.81787184 -4 13 C-6.97 18.445 -6.97 18.445 -10 24 C-10.66 24 -11.32 24 -12 24 C-14.46555033 29.9877651 -16.2251605 35.54300416 -17 42 C-17.33 42 -17.66 42 -18 42 C-18.57146562 35.09161564 -18.39883977 30.51236473 -14.296875 24.8203125 C-11.85999396 21.39987104 -10.52018629 17.44470952 -9.10546875 13.515625 C-7.11997139 8.16822973 -5.39209129 4.67986027 -1 1 C-0.67 0.67 -0.34 0.34 0 0 Z " fill="#7A8280" transform="translate(116,15)"/>
<path d="M0 0 C3.45831586 -0.02894547 6.91660072 -0.04678 10.375 -0.0625 C11.35984375 -0.07087891 12.3446875 -0.07925781 13.359375 -0.08789062 C14.77089844 -0.09272461 14.77089844 -0.09272461 16.2109375 -0.09765625 C17.51490479 -0.10551147 17.51490479 -0.10551147 18.84521484 -0.11352539 C21 0 21 0 23 1 C21.65939089 6.11868932 19.36055809 8.98372326 16 13 C15.525625 14.216875 15.05125 15.43375 14.5625 16.6875 C13 20 13 20 10 21.9375 C7 23 7 23 4 23 C4 23.66 4 24.32 4 25 C1.08291076 26.98362069 -0.12380904 26.9876191 -3.75 26.625 C-5.35875 26.315625 -5.35875 26.315625 -7 26 C-6.6637164 16.75220113 -3.2175671 8.57033928 0 0 Z M1 3 C-0.17261226 6.10203804 -1.33828932 9.20638167 -2.5 12.3125 C-2.83386719 13.19357422 -3.16773438 14.07464844 -3.51171875 14.98242188 C-3.82753906 15.82998047 -4.14335937 16.67753906 -4.46875 17.55078125 C-4.76201172 18.33106689 -5.05527344 19.11135254 -5.35742188 19.9152832 C-6.14727883 22.11423319 -6.14727883 22.11423319 -6 25 C-2.70693398 26.0777307 -1.3951284 26.18815638 1.7890625 24.671875 C2.72492187 24.03765625 3.66078125 23.4034375 4.625 22.75 C5.56601562 22.12609375 6.50703125 21.5021875 7.4765625 20.859375 C11.44866892 17.93255975 13.48787679 15.43887928 15.6875 11 C16.12449219 10.13375 16.56148437 9.2675 17.01171875 8.375 C18.19209202 5.96710776 18.19209202 5.96710776 18 3 C12.39 3 6.78 3 1 3 Z " fill="#BABDBC" transform="translate(30,77)"/>
<path d="M0 0 C6.14680989 0.58541047 11.03906316 3.20518171 15 8 C16.04976964 11.14930893 16.10131595 13.38814456 16.0625 16.6875 C16.05347656 17.68136719 16.04445313 18.67523437 16.03515625 19.69921875 C16.02355469 20.45847656 16.01195313 21.21773437 16 22 C15.34 22.33 14.68 22.66 14 23 C10.43880528 19.66346008 7.602486 15.99710641 4.75 12.0625 C4.29109375 11.45470703 3.8321875 10.84691406 3.359375 10.22070312 C0.82293842 6.72177945 -0.63055331 4.37238939 0 0 Z " fill="#5C6461" transform="translate(75,10)"/>
<path d="M0 0 C0.35802755 5.73589971 -0.72010383 9.7050356 -3 14.9375 C-3.28617188 15.62134766 -3.57234375 16.30519531 -3.8671875 17.00976562 C-4.56708417 18.67785269 -5.28199993 20.33962483 -6 22 C-6.66 22 -7.32 22 -8 22 C-8.0825 22.845625 -8.165 23.69125 -8.25 24.5625 C-9.15733853 28.72113491 -10.76541273 31.39582699 -13 35 C-14.52946466 30.41160602 -13.07034018 26.63623286 -12 22 C-11.78851318 21.03465332 -11.78851318 21.03465332 -11.57275391 20.04980469 C-11.10543634 17.92527276 -10.61749684 15.80632549 -10.125 13.6875 C-9.90130737 12.66523315 -9.90130737 12.66523315 -9.6730957 11.62231445 C-8.60923287 7.20105927 -7.14401065 4.28579936 -4 1 C-2 0 -2 0 0 0 Z " fill="#C1C3C3" transform="translate(128,30)"/>
<path d="M0 0 C0.66 0 1.32 0 2 0 C1.34215037 3.29680965 0.10579427 5.84117922 -1.5625 8.75 C-2.01753906 9.54921875 -2.47257812 10.3484375 -2.94140625 11.171875 C-3.29074219 11.77515625 -3.64007812 12.3784375 -4 13 C-4.66 13 -5.32 13 -6 13 C-6.33 14.98 -6.66 16.96 -7 19 C-7.66 19 -8.32 19 -9 19 C-9.15662109 20.07314453 -9.15662109 20.07314453 -9.31640625 21.16796875 C-10.07522267 24.31163677 -11.26493706 26.55215773 -12.9375 29.3125 C-13.46214844 30.19550781 -13.98679687 31.07851563 -14.52734375 31.98828125 C-15.01332031 32.65214844 -15.49929688 33.31601562 -16 34 C-16.66 34 -17.32 34 -18 34 C-18.0825 34.804375 -18.165 35.60875 -18.25 36.4375 C-19.19257152 40.91471471 -20.76809136 44.99940904 -23 49 C-23.99 49.495 -23.99 49.495 -25 50 C-25.16554848 48.50393225 -25.2799815 47.00219722 -25.375 45.5 C-25.44460937 44.6646875 -25.51421875 43.829375 -25.5859375 42.96875 C-24.8380079 39.17924001 -23.09151226 37.23146206 -20.7109375 34.25292969 C-17.65028847 30.22272574 -15.2823604 25.78255824 -12.8125 21.375 C-12.29236328 20.45976562 -11.77222656 19.54453125 -11.23632812 18.6015625 C-9.14731316 14.90910181 -7.12128757 11.25953844 -5.32421875 7.4140625 C-4 5 -4 5 -1 4 C-0.26676204 1.98491642 -0.26676204 1.98491642 0 0 Z " fill="#ACB0AF" transform="translate(25,0)"/>
<path d="M0 0 C2.0625 0.4375 2.0625 0.4375 4 1 C4.60720223 12.26697473 4.0264935 20.67773655 -1 31 C-2.32 31 -3.64 31 -5 31 C-4.69106068 29.3743193 -4.3777305 27.74947252 -4.0625 26.125 C-3.88847656 25.22007813 -3.71445313 24.31515625 -3.53515625 23.3828125 C-3 21 -3 21 -2 19 C-1.86152592 17.63792182 -1.77495667 16.2702885 -1.71875 14.90234375 C-1.68136719 14.10119141 -1.64398438 13.30003906 -1.60546875 12.47460938 C-1.53499415 10.77930361 -1.46468239 9.08399106 -1.39453125 7.38867188 C-1.10065115 1.10065115 -1.10065115 1.10065115 0 0 Z " fill="#7E8684" transform="translate(100,9)"/>
<path d="M0 0 C3.32229826 2.99869778 5.18799793 5.91644597 7.125 9.9375 C7.87136719 11.46697266 7.87136719 11.46697266 8.6328125 13.02734375 C10.14999325 16.32612818 11.50950414 19.65113638 12.75 23.0625 C14.5827077 25.90319694 17.17592029 27.19258899 20 29 C22.375 31.125 22.375 31.125 24 33 C24 33.66 24 34.32 24 35 C20.02968347 34.45982088 18.27803994 32.59261026 15.5625 29.75 C14.77359375 28.93015625 13.9846875 28.1103125 13.171875 27.265625 C12.45515625 26.51796875 11.7384375 25.7703125 11 25 C10.113125 24.175 9.22625 23.35 8.3125 22.5 C3.23766331 17.01369006 -0.38496388 12.67943259 -0.375 4.9375 C-0.28006267 3.28965921 -0.16575771 1.6422292 0 0 Z " fill="#727A78" transform="translate(0,93)"/>
<path d="M0 0 C2.94489333 6.35777358 2.13725456 12.3101304 0.10546875 18.90234375 C-2.52185004 25.76092502 -2.52185004 25.76092502 -5 27 C-5 25.68 -5 24.36 -5 23 C-4.34 23 -3.68 23 -3 23 C-0.31612408 13.42862327 -0.31612408 13.42862327 -2 4 C-2.99 4 -3.98 4 -5 4 C-5.433125 5.051875 -5.86625 6.10375 -6.3125 7.1875 C-7.27570765 9.45467272 -8.24963415 11.39941464 -9.5625 13.5 C-11.31836556 16.55367924 -12.13307659 19.59899277 -13 23 C-13.66 23 -14.32 23 -15 23 C-15 16.73 -15 10.46 -15 4 C-17.31 3.34 -19.62 2.68 -22 2 C-22 1.67 -22 1.34 -22 1 C-18.625 0.875 -18.625 0.875 -15 1 C-13 3 -13 3 -12.8046875 4.9453125 C-12.86979167 6.96354167 -12.93489583 8.98177083 -13 11 C-9.91602531 9.38111961 -9.91602531 9.38111961 -9.33984375 7.08984375 C-9.20707031 6.37957031 -9.07429688 5.66929688 -8.9375 4.9375 C-8.52734375 2.77734375 -8.52734375 2.77734375 -8 1 C-5.29120665 -0.35439668 -2.99066732 -0.06501451 0 0 Z " fill="#404040" transform="translate(120,6)"/>
<path d="M0 0 C0.66 0.33 1.32 0.66 2 1 C1.6084236 8.83152807 -0.78151924 14.8995363 -4 22 C-4.56595653 23.31101324 -5.12914971 24.62322931 -5.6875 25.9375 C-6.120625 26.948125 -6.55375 27.95875 -7 29 C-7.67276716 30.6642135 -8.34206835 32.32986582 -9 34 C-9.33 34 -9.66 34 -10 34 C-11.18831306 22.77704331 -7.08706688 11.34799557 -1 2 C-0.67 1.34 -0.34 0.68 0 0 Z " fill="#CACCCC" transform="translate(111,27)"/>
<path d="M0 0 C0.66 0 1.32 0 2 0 C1.67 1.65 1.34 3.3 1 5 C0.34 5 -0.32 5 -1 5 C-1.433125 6.36125 -1.433125 6.36125 -1.875 7.75 C-2.76531776 10.32202908 -3.71494413 12.61346766 -5 15 C-5.66 15 -6.32 15 -7 15 C-7.07347656 15.82757813 -7.14695312 16.65515625 -7.22265625 17.5078125 C-8.19839997 21.89130439 -10.09279741 25.08825028 -12.4375 28.875 C-12.84548828 29.56335938 -13.25347656 30.25171875 -13.67382812 30.9609375 C-14.71957747 32.68053839 -15.85319618 34.34607742 -17 36 C-17.66 36 -18.32 36 -19 36 C-19.33 38.31 -19.66 40.62 -20 43 C-20.66 43 -21.32 43 -22 43 C-21.938125 44.051875 -21.87625 45.10375 -21.8125 46.1875 C-22.007922 50.16108064 -22.5673814 51.91244563 -25 55 C-25.66 55 -26.32 55 -27 55 C-27.35286978 50.76556263 -26.5763408 49.26997101 -24 46 C-23.26919734 44.02253397 -22.60578253 42.01927511 -22 40 C-21.33333333 38 -20.66666667 36 -20 34 C-19.34 34 -18.68 34 -18 34 C-17.58621094 32.92685547 -17.58621094 32.92685547 -17.1640625 31.83203125 C-16.01751478 29.04261145 -14.73772885 26.37709642 -13.375 23.6875 C-12.92898438 22.80449219 -12.48296875 21.92148437 -12.0234375 21.01171875 C-11.51683594 20.01591797 -11.51683594 20.01591797 -11 19 C-10.34 19 -9.68 19 -9 19 C-8.67 17.02 -8.34 15.04 -8 13 C-7.34 13 -6.68 13 -6 13 C-5.7525 12.154375 -5.505 11.30875 -5.25 10.4375 C-3.86026373 6.61572526 -2.08879162 3.48131937 0 0 Z " fill="#515654" transform="translate(27,0)"/>
<path d="M0 0 C2.45886578 7.82204405 -1.53812788 15.79782066 -4.78125 22.84765625 C-6 25 -6 25 -8 26 C-10.0625 24.25 -10.0625 24.25 -12 22 C-11.82246387 18.98188578 -11.16264785 18.16264785 -9 16 C-8.71125 15.278125 -8.4225 14.55625 -8.125 13.8125 C-6.72598058 10.31495146 -4.90961979 7.24635365 -3 4 C-2.34 4 -1.68 4 -1 4 C-0.67 2.68 -0.34 1.36 0 0 Z " fill="#242524" transform="translate(112,48)"/>
<path d="M0 0 C5.61 0 11.22 0 17 0 C12.56223112 4.43776888 9.72240264 5.27619949 3.75 6.4375 C1.47205962 7.16969512 0.50514473 8.15277692 -1 10 C-1.309375 10.680625 -1.61875 11.36125 -1.9375 12.0625 C-3.24994775 14.45578707 -4.51014367 15.00405747 -7 16 C-6.721635 12.10289006 -6.0578836 9.76459762 -3.5 6.875 C-0.70309191 4.09747736 -0.70309191 4.09747736 0 0 Z " fill="#040404" transform="translate(31,0)"/>
<path d="M0 0 C6.4627819 3.84689399 8.66425961 11.67599715 10.625 18.5625 C9.24937146 17.27284824 7.91733607 15.93560707 6.625 14.5625 C6.625 13.9025 6.625 13.2425 6.625 12.5625 C5.965 12.5625 5.305 12.5625 4.625 12.5625 C4.150625 11.428125 3.67625 10.29375 3.1875 9.125 C1.98877917 5.80509834 1.98877917 5.80509834 0.625 4.5625 C-2.33317107 4.31244614 -2.33317107 4.31244614 -5.375 4.5625 C-6.035 5.2225 -6.695 5.8825 -7.375 6.5625 C-18.46724421 9.31012013 -30.04496564 8.76767165 -41.375 8.5625 C-41.045 6.5825 -40.715 4.6025 -40.375 2.5625 C-39.715 2.8925 -39.055 3.2225 -38.375 3.5625 C-38.705 4.8825 -39.035 6.2025 -39.375 7.5625 C-38.76527344 7.2325 -38.15554687 6.9025 -37.52734375 6.5625 C-32.17436675 4.86440568 -26.68888779 5.4861256 -21.12304688 5.640625 C-16.16481947 5.7253207 -11.9475617 5.76544573 -7.375 3.5625 C-6.715 2.5725 -6.055 1.5825 -5.375 0.5625 C-2.375 -0.4375 -2.375 -0.4375 0 0 Z " fill="#9EA3A1" transform="translate(72.375,62.4375)"/>
<path d="M0 0 C0 4.06166652 -1.14053309 7.39776912 -3 11 C-5.1875 12.5 -5.1875 12.5 -7 13 C-7 13.66 -7 14.32 -7 15 C-15.04264474 18.46511403 -22.2046484 20.80611449 -31 21 C-31 19.68 -31 18.36 -31 17 C-30.37609375 16.79632813 -29.7521875 16.59265625 -29.109375 16.3828125 C-26.05854675 14.38282509 -25.99476154 12.37537926 -25.25 8.875 C-25.00765625 7.77929688 -24.7653125 6.68359375 -24.515625 5.5546875 C-24.34546875 4.71164063 -24.1753125 3.86859375 -24 3 C-23.34 3 -22.68 3 -22 3 C-22.99 7.62 -23.98 12.24 -25 17 C-19.20800328 17.13043257 -19.20800328 17.13043257 -14 16 C-14 15.34 -14 14.68 -14 14 C-13.38511719 13.8040625 -12.77023438 13.608125 -12.13671875 13.40625 C-7.22741134 11.70038888 -7.22741134 11.70038888 -3.8046875 8.0234375 C-3.03974635 5.90556101 -3.03974635 5.90556101 -2.53515625 3.8046875 C-2 2 -2 2 0 0 Z " fill="#656A68" transform="translate(48,86)"/>
<path d="M0 0 C0 0.99 0 1.98 0 3 C-0.61875 3.226875 -1.2375 3.45375 -1.875 3.6875 C-4.66733034 5.41217462 -4.82759947 6.96555156 -6 10 C-8.19347161 12.88614686 -10.1972597 15.40974978 -13.125 17.5625 C-15.46836047 19.35907636 -16.50429618 21.48449811 -18 24 C-18.66 24 -19.32 24 -20 24 C-20.309375 24.78375 -20.61875 25.5675 -20.9375 26.375 C-22 29 -22 29 -23 31 C-23.66 31 -24.32 31 -25 31 C-25.09410156 31.55558594 -25.18820313 32.11117187 -25.28515625 32.68359375 C-26.18423905 35.59701507 -27.64945443 37.59789665 -29.4375 40.0625 C-30.05496094 40.91972656 -30.67242188 41.77695312 -31.30859375 42.66015625 C-31.86675781 43.43230469 -32.42492187 44.20445313 -33 45 C-33.66 45.99 -34.32 46.98 -35 48 C-35.5666861 44.37873763 -34.85462244 42.43996675 -32.8046875 39.546875 C-31.83960967 38.27247093 -30.8623894 37.00719653 -29.875 35.75 C-28.84859198 34.40491735 -27.82383873 33.0585703 -26.80078125 31.7109375 C-26.30916504 31.06737305 -25.81754883 30.42380859 -25.31103516 29.76074219 C-23.77634698 27.69963025 -22.40867906 25.56304935 -21.0625 23.375 C-15.64638166 15.04494664 -8.02610765 7.96348637 -1 1 C-0.67 0.67 -0.34 0.34 0 0 Z " fill="#69716E" transform="translate(59,21)"/>
<path d="M0 0 C0.99 0 1.98 0 3 0 C2.32692542 5.02518791 1.45601155 9.97164705 0.4375 14.9375 C0.29892578 15.62134766 0.16035156 16.30519531 0.01757812 17.00976562 C-0.31983064 18.67353986 -0.65965879 20.33682315 -1 22 C-1.99 22.33 -2.98 22.66 -4 23 C-5 22 -5 22 -5.1875 18.5625 C-5.09366932 12.05299627 -4.65345799 4.91260941 0 0 Z " fill="#252625" transform="translate(28,62)"/>
<path d="M0 0 C1.43410153 3.78819273 0.51009497 6.06521279 -0.9375 9.75 C-1.50791016 11.22726563 -1.50791016 11.22726563 -2.08984375 12.734375 C-2.39019531 13.48203125 -2.69054687 14.2296875 -3 15 C-3.99 15 -4.98 15 -6 15 C-6.309375 15.86625 -6.309375 15.86625 -6.625 16.75 C-8.58448602 19.95643167 -10.69125885 21.25198581 -14 23 C-17.77373951 23.46344169 -20.12991658 23.37289289 -23.625 21.875 C-26.62946665 19.50305265 -28.71011334 17.07499065 -31 14 C-31 13.34 -31 12.68 -31 12 C-31.66 12 -32.32 12 -33 12 C-33.33 10.68 -33.66 9.36 -34 8 C-34.66 8 -35.32 8 -36 8 C-35.67 6.68 -35.34 5.36 -35 4 C-34.50371094 4.72445312 -34.00742188 5.44890625 -33.49609375 6.1953125 C-27.80334179 14.64523327 -27.80334179 14.64523327 -20 21 C-17.38608611 21.24401278 -17.38608611 21.24401278 -15 20 C-13.948125 19.5875 -12.89625 19.175 -11.8125 18.75 C-8.58058451 16.73903036 -8.1160347 15.53410989 -7 12 C-6.34 11.67 -5.68 11.34 -5 11 C-4.06154746 9.17712703 -3.19564908 7.31635447 -2.375 5.4375 C-1.70597656 3.91962891 -1.70597656 3.91962891 -1.0234375 2.37109375 C-0.68570313 1.58863281 -0.34796875 0.80617188 0 0 Z " fill="#4F5352" transform="translate(115,73)"/>
<path d="M0 0 C2.9375 0.625 2.9375 0.625 5.3125 2.875 C6.9375 5.625 6.9375 5.625 6.9375 9.625 C6.2775 9.625 5.6175 9.625 4.9375 9.625 C3.3125 7.125 3.3125 7.125 1.9375 4.625 C-0.47127257 4.73841534 -0.47127257 4.73841534 -3.0625 5.625 C-4.67157108 8.00112865 -4.67157108 8.00112865 -6.0625 10.625 C-9.4762931 13.625 -9.4762931 13.625 -12.0625 13.625 C-12.0625 14.285 -12.0625 14.945 -12.0625 15.625 C-14.02397874 17.01438077 -16.02416576 18.3510411 -18.0625 19.625 C-15.6656543 14.30277339 -11.776492 10.07173317 -8.0625 5.625 C-7.59199219 5.04363281 -7.12148438 4.46226563 -6.63671875 3.86328125 C-4.51030063 1.4459525 -3.183291 0.64965122 0 0 Z " fill="#444746" transform="translate(70.0625,65.375)"/>
<path d="M0 0 C3.45831586 -0.02894547 6.91660072 -0.04678 10.375 -0.0625 C11.35984375 -0.07087891 12.3446875 -0.07925781 13.359375 -0.08789062 C14.77089844 -0.09272461 14.77089844 -0.09272461 16.2109375 -0.09765625 C17.51490479 -0.10551147 17.51490479 -0.10551147 18.84521484 -0.11352539 C21 0 21 0 23 1 C21.65939089 6.11868932 19.36055809 8.98372326 16 13 C15.525625 14.216875 15.05125 15.43375 14.5625 16.6875 C13 20 13 20 10 22 C7 23 7 23 4 22 C4.54269531 21.64808594 5.08539063 21.29617187 5.64453125 20.93359375 C10.72146593 17.43005144 12.7602608 14.86598362 15 9 C17.625 6.1875 17.625 6.1875 20 4 C20.33 3.34 20.66 2.68 21 2 C14.07 2 7.14 2 0 2 C0 1.34 0 0.68 0 0 Z " fill="#A1A5A3" transform="translate(30,77)"/>
<path d="M0 0 C1.9375 0.375 1.9375 0.375 4 1 C5.96224402 4.92448803 5.42538262 9.39986888 4.328125 13.52734375 C3.59844559 15.70605632 2.83271312 17.85873768 2 20 C0.96295108 16.88885325 1.0464232 15.53972902 1.5 12.375 C1.70692356 10.92183224 1.88341126 9.46318863 2 8 C1.67 7.67 1.34 7.34 1 7 C-3.96712596 12.38863648 -3.96712596 12.38863648 -7 19 C-8 17 -8 17 -7.546875 15.23046875 C-5.98975644 11.23844422 -4.31624886 7.625433 -2 4 C-1.31903578 2.67391178 -0.64669414 1.34313399 0 0 Z " fill="#5C6461" transform="translate(115,9)"/>
<path d="M0 0 C1 3 1 3 -0.3125 5.6875 C-0.869375 6.450625 -1.42625 7.21375 -2 8 C-2.66 8 -3.32 8 -4 8 C-4.33 9.98 -4.66 11.96 -5 14 C-4.14664062 13.835 -3.29328125 13.67 -2.4140625 13.5 C1.0083648 12.99877495 4.17001777 12.9364601 7.625 13 C14.13835393 13.0554328 20.52358365 12.66424783 27 12 C26.0234375 13.453125 26.0234375 13.453125 24 15 C21.1429238 15.40732247 18.49220181 15.64829183 15.625 15.75 C14.49191406 15.81380859 14.49191406 15.81380859 13.3359375 15.87890625 C9.34603739 16.0672407 5.91752733 15.86436546 2 15 C-0.33634657 15.31151288 -2.67038557 15.64159778 -5 16 C-5.33 15.67 -5.66 15.34 -6 15 C-5.29411765 7.58823529 -5.29411765 7.58823529 -4 5 C-3.34 5 -2.68 5 -2 5 C-2 4.01 -2 3.02 -2 2 C-1.34 2 -0.68 2 0 2 C0 1.34 0 0.68 0 0 Z " fill="#747C7A" transform="translate(36,57)"/>
<path d="M0 0 C0.66 0 1.32 0 2 0 C2.37506709 5.32595263 1.10630616 9.20424609 -0.8125 14.0625 C-1.20405273 15.10374023 -1.20405273 15.10374023 -1.60351562 16.16601562 C-3.08689055 20.02279043 -4.73966763 23.51786634 -7 27 C-8.11158336 23.66524993 -7.85632434 22.36609557 -7.125 19 C-6.94195312 18.13375 -6.75890625 17.2675 -6.5703125 16.375 C-6 14 -6 14 -5 11 C-4.34 11 -3.68 11 -3 11 C-2.01 7.37 -1.02 3.74 0 0 Z " fill="#EFEEEE" transform="translate(122,38)"/>
<path d="M0 0 C2.875 -0.125 2.875 -0.125 6 0 C6.66 0.66 7.32 1.32 8 2 C12.93057079 4.00565591 17.86592109 5.6095203 23 7 C21.3125 8.5625 21.3125 8.5625 19 10 C15.03909894 9.53401164 11.49893503 8.16665344 7.8125 6.6875 C6.76707031 6.27886719 5.72164063 5.87023437 4.64453125 5.44921875 C1.80650897 3.89396577 1.04354937 3.00260526 0 0 Z " fill="#1F201F" transform="translate(75,0)"/>
<path d="M0 0 C3.34234433 3.82371457 5 6.88949668 5 12 C5.66 12 6.32 12 7 12 C11 17.41176471 11 17.41176471 11 20 C10.34 20 9.68 20 9 20 C8.34 18.35 7.68 16.7 7 15 C6.34 15 5.68 15 5 15 C3.76969274 13.4011809 2.61359837 11.74469415 1.5 10.0625 C-0.70978178 6.43229314 -0.70978178 6.43229314 -4 4 C-6.09821215 4.39938767 -6.09821215 4.39938767 -8 5 C-7.625 3.0625 -7.625 3.0625 -7 1 C-4.25345395 -0.37327303 -3.04670253 -0.63768192 0 0 Z " fill="#878D8B" transform="translate(74,18)"/>
<path d="M0 0 C1.14184472 3.3747102 0.84408845 5.39433064 -0.21484375 8.765625 C-0.48876953 9.65507813 -0.76269531 10.54453125 -1.04492188 11.4609375 C-1.33947266 12.38132812 -1.63402344 13.30171875 -1.9375 14.25 C-2.22818359 15.18585937 -2.51886719 16.12171875 -2.81835938 17.0859375 C-3.53656497 19.3936145 -4.26403738 21.69793682 -5 24 C-5.66 24 -6.32 24 -7 24 C-7.13277344 24.68707031 -7.26554687 25.37414062 -7.40234375 26.08203125 C-7.57894531 26.98308594 -7.75554687 27.88414063 -7.9375 28.8125 C-8.19853516 30.15248047 -8.19853516 30.15248047 -8.46484375 31.51953125 C-9 34 -9 34 -10 37 C-12.475 37.495 -12.475 37.495 -15 38 C-14.401875 36.824375 -13.80375 35.64875 -13.1875 34.4375 C-11.30930146 30.68110292 -9.63013474 26.87157 -8 23 C-7.69191406 22.35804687 -7.38382812 21.71609375 -7.06640625 21.0546875 C-3.85316391 14.27812195 -1.93193426 7.22420099 0 0 Z " fill="#777E7C" transform="translate(119,37)"/>
<path d="M0 0 C3.05668626 1.49582519 4.69930883 2.30851886 6.08203125 5.48828125 C6.32308594 6.42027344 6.56414063 7.35226563 6.8125 8.3125 C8.50298931 13.55717381 10.4755902 15.87138884 15.09765625 18.78125 C18.32417178 20.84834003 19.77564647 22.32693941 21 26 C20.01 26 19.02 26 18 26 C17.9175 25.38125 17.835 24.7625 17.75 24.125 C17.21429989 21.88318447 17.21429989 21.88318447 15.3125 21 C14.549375 20.67 13.78625 20.34 13 20 C4.82650129 15.16262322 2.85891823 8.57675468 0 0 Z " fill="#575D5B" transform="translate(6,102)"/>
<path d="M0 0 C2.0625 0.4375 2.0625 0.4375 4 1 C4.16682272 5.92127034 4.24828052 9.50343896 2 14 C-0.21462117 12.23995897 -0.94503183 11.40964372 -1.328125 8.5546875 C-1.30234375 7.67039062 -1.2765625 6.78609375 -1.25 5.875 C-1.23453125 4.98554688 -1.2190625 4.09609375 -1.203125 3.1796875 C-1 1 -1 1 0 0 Z " fill="#C8CACA" transform="translate(100,9)"/>
<path d="M0 0 C0.33 0.99 0.66 1.98 1 3 C1.66 2.67 2.32 2.34 3 2 C4.9593604 1.91489795 6.92162794 1.89282344 8.8828125 1.90234375 C10.04941406 1.90556641 11.21601562 1.90878906 12.41796875 1.91210938 C13.64128906 1.92048828 14.86460938 1.92886719 16.125 1.9375 C17.35605469 1.94201172 18.58710937 1.94652344 19.85546875 1.95117188 C22.90369392 1.9629867 25.95182314 1.97945972 29 2 C25.91636181 3.7963156 23.74373154 4.23248318 20.19140625 4.16015625 C18.82338867 4.1437207 18.82338867 4.1437207 17.42773438 4.12695312 C16.48220703 4.10568359 15.53667969 4.08441406 14.5625 4.0625 C12.68888268 4.02787463 10.81517505 3.99778088 8.94140625 3.97265625 C7.69919312 3.94570679 7.69919312 3.94570679 6.43188477 3.91821289 C3.85851181 4.00475841 1.50706344 4.42987003 -1 5 C-0.67 3.35 -0.34 1.7 0 0 Z " fill="#C9CBCB" transform="translate(34,65)"/>
<path d="M0 0 C0.66 0.33 1.32 0.66 2 1 C1.38125 1.226875 0.7625 1.45375 0.125 1.6875 C-2.6365449 3.39316009 -3.01516195 4.96972909 -4 8 C-4.33 8.66 -4.66 9.32 -5 10 C-5.66 10 -6.32 10 -7 10 C-7.09410156 10.55558594 -7.18820313 11.11117187 -7.28515625 11.68359375 C-8.18423905 14.59701507 -9.64945443 16.59789665 -11.4375 19.0625 C-12.05496094 19.91972656 -12.67242188 20.77695312 -13.30859375 21.66015625 C-13.86675781 22.43230469 -14.42492187 23.20445313 -15 24 C-15.66 24.99 -16.32 25.98 -17 27 C-17.60457176 23.30144337 -16.79189782 21.35259326 -14.69921875 18.40625 C-13.70722423 17.09506899 -12.70284254 15.79318533 -11.6875 14.5 C-10.68949832 13.19937845 -9.69335939 11.89732514 -8.69921875 10.59375 C-7.99031494 9.67142578 -7.99031494 9.67142578 -7.26708984 8.73046875 C-5.85623471 6.86500674 -5.85623471 6.86500674 -4.33203125 4.15625 C-3 2 -3 2 0 0 Z " fill="#535856" transform="translate(41,42)"/>
<path d="M0 0 C1.14477221 3.43431663 0.85478173 3.92014132 -0.4375 7.125 C-2.17762276 11.94197619 -2.24255863 15.90626876 -2 21 C-1.34 19.68 -0.68 18.36 0 17 C-0.33 19.31 -0.66 21.62 -1 24 C-1.99 24 -2.98 24 -4 24 C-5.20657453 15.5146335 -5.41769106 9.48267826 -1 2 C-0.67 1.34 -0.34 0.68 0 0 Z " fill="#A4A8A6" transform="translate(104,39)"/>
<path d="M0 0 C0.33 0 0.66 0 1 0 C1 4.62 1 9.24 1 14 C1.66 14 2.32 14 3 14 C3 15.65 3 17.3 3 19 C2.34 19 1.68 19 1 19 C0.67 20.32 0.34 21.64 0 23 C-0.33 22.01 -0.66 21.02 -1 20 C-1.99 20.66 -2.98 21.32 -4 22 C-3.69320313 21.00871094 -3.38640625 20.01742187 -3.0703125 18.99609375 C-1.94301822 15.05056377 -1.36197056 11.12990163 -0.875 7.0625 C-0.78863281 6.37865234 -0.70226562 5.69480469 -0.61328125 4.99023438 C-0.40397715 3.32742954 -0.20128278 1.66379487 0 0 Z " fill="#404040" transform="translate(23,70)"/>
<path d="M0 0 C3.22914752 -0.02917228 6.45826083 -0.04685663 9.6875 -0.0625 C10.59951172 -0.07087891 11.51152344 -0.07925781 12.45117188 -0.08789062 C13.33740234 -0.09111328 14.22363281 -0.09433594 15.13671875 -0.09765625 C15.94842529 -0.10289307 16.76013184 -0.10812988 17.59643555 -0.11352539 C20.14864673 0.0070209 22.51026137 0.440051 25 1 C24.34 2.32 23.68 3.64 23 5 C22.67 4.34 22.34 3.68 22 3 C10.615 2.505 10.615 2.505 -1 2 C-0.67 1.34 -0.34 0.68 0 0 Z " fill="#7E8684" transform="translate(31,75)"/>
<path d="M0 0 C0.6875 1.75 0.6875 1.75 1 4 C0.03126968 5.35622245 -0.97676564 6.68441297 -2 8 C-2.83563583 9.94839578 -3.53860399 11.92221659 -4.2421875 13.921875 C-4.94145211 15.839446 -5.77793696 17.70547718 -6.625 19.5625 C-8.03598825 23.08997063 -8.61562248 26.23310035 -9 30 C-9.33 30 -9.66 30 -10 30 C-10.56983343 23.11134697 -10.4169224 18.51259359 -6.3046875 12.84375 C-4.34692251 10.0770881 -3.26701576 7.13737237 -2 4 C-1.34711373 2.65986503 -0.68774405 1.32258472 0 0 Z " fill="#7E8684" transform="translate(108,27)"/>
<path d="M0 0 C0.99 0 1.98 0 3 0 C4.59789351 4.95346987 3.28306814 9.13282415 2 14 C1.03087958 10.72921858 1 8.60964568 1 5 C-0.98 8.63 -2.96 12.26 -5 16 C-5.33 14.68 -5.66 13.36 -6 12 C-5.03126968 10.64377755 -4.02323436 9.31558703 -3 8 C-1.8714838 5.36848241 -0.94688302 2.70538005 0 0 Z " fill="#A4A8A6" transform="translate(111,23)"/>
<path d="M0 0 C3 1 3 1 4.421875 3.14453125 C4.86015625 4.02496094 5.2984375 4.90539062 5.75 5.8125 C6.19859375 6.68519531 6.6471875 7.55789062 7.109375 8.45703125 C8.06982104 11.19935744 8.02018585 12.3313431 7 15 C-0.50892857 5.9375 -0.50892857 5.9375 0 0 Z " fill="#C9CBCB" transform="translate(0,99)"/>
<path d="M0 0 C0.66 0.33 1.32 0.66 2 1 C-0.65010978 5.2205452 -3.41198628 8.50168662 -7 12 C-9.79785176 15.19754487 -11.61977975 17.9743576 -13 22 C-13.99 22 -14.98 22 -16 22 C-16 21.01 -16 20.02 -16 19 C-15.01 19 -14.02 19 -13 19 C-12.855625 18.401875 -12.71125 17.80375 -12.5625 17.1875 C-11.27586207 12.18390805 -11.27586207 12.18390805 -8 10 C-7.67 9.01 -7.34 8.02 -7 7 C-6.38125 6.71125 -5.7625 6.4225 -5.125 6.125 C-2.32079102 4.64041877 -1.45276712 2.76025753 0 0 Z " fill="#6B726F" transform="translate(53,35)"/>
<path d="M0 0 C0.66 0.33 1.32 0.66 2 1 C2.484375 3.36328125 2.484375 3.36328125 2.75 6.3125 C2.84796875 7.27800781 2.9459375 8.24351563 3.046875 9.23828125 C2.99806851 12.11379693 2.49342428 13.58180146 1 16 C-1 14 -1 14 -1.23046875 11.25 C-1.21628906 10.1775 -1.20210937 9.105 -1.1875 8 C-1.18105469 6.9275 -1.17460937 5.855 -1.16796875 4.75 C-1 2 -1 2 0 0 Z " fill="#C9CBCB" transform="translate(14,62)"/>
<path d="M0 0 C6.36347914 4.03537701 8.58943354 11.69520559 10.5625 18.625 C9.18687146 17.33534824 7.85483607 15.99810707 6.5625 14.625 C6.5625 13.965 6.5625 13.305 6.5625 12.625 C5.9025 12.625 5.2425 12.625 4.5625 12.625 C3.5725 9.655 2.5825 6.685 1.5625 3.625 C0.61375 3.480625 -0.335 3.33625 -1.3125 3.1875 C-4.4375 2.625 -4.4375 2.625 -6.4375 1.625 C-4.0454816 0.03032106 -2.87917253 -0.44294962 0 0 Z " fill="#AFB3B2" transform="translate(72.4375,62.375)"/>
<path d="M0 0 C0.66 0 1.32 0 2 0 C1.58935637 5.20148594 -0.41619093 8.98638643 -2.7890625 13.51953125 C-4.31174636 16.63857721 -5.19467377 19.63227214 -6 23 C-6.33 23 -6.66 23 -7 23 C-7.8046752 16.02614823 -5.71978555 11.74740547 -2.41015625 5.63671875 C-0.90903558 3.00802509 -0.90903558 3.00802509 0 0 Z " fill="#8C9290" transform="translate(111,37)"/>
<path d="M0 0 C0.66 0 1.32 0 2 0 C2.66 1.65 3.32 3.3 4 5 C4.66 5 5.32 5 6 5 C7.03227862 7.60014527 8.05105152 10.20426369 9.0625 12.8125 C9.35705078 13.55048828 9.65160156 14.28847656 9.95507812 15.04882812 C12.11328125 20.66015625 12.11328125 20.66015625 11 24 C5.44419134 12.47835991 5.44419134 12.47835991 5 7 C4.01 6.67 3.02 6.34 2 6 C0.8125 2.9375 0.8125 2.9375 0 0 Z " fill="#B6B9B9" transform="translate(79,33)"/>
<path d="M0 0 C-0.99 0.66 -1.98 1.32 -3 2 C-3.58189266 4.42521494 -3.58189266 4.42521494 -3.6875 7.125 C-3.75324219 8.03507812 -3.81898437 8.94515625 -3.88671875 9.8828125 C-3.92410156 10.58148438 -3.96148437 11.28015625 -4 12 C-4.99 12 -5.98 12 -7 12 C-8.52491998 8.95016004 -8.23562548 6.3576631 -8 3 C-5.91685466 -0.39881608 -3.78885018 -0.30720407 0 0 Z " fill="#636B68" transform="translate(103,8)"/>
<path d="M0 0 C0.33 0 0.66 0 1 0 C1.25 2.75 1.25 2.75 1 6 C-0.8125 8 -0.8125 8 -3 10 C-5.08731199 13.63346902 -6.39013328 16.85290633 -7 21 C-7.66 21 -8.32 21 -9 21 C-7.80634622 13.71871194 -5.38717745 5.38717745 0 0 Z " fill="#565C5A" transform="translate(127,46)"/>
<path d="M0 0 C0.66 0 1.32 0 2 0 C4.26424707 4.94617077 6.27870901 9.83612703 8 15 C8.99 16.485 8.99 16.485 10 18 C9.625 20.1875 9.625 20.1875 9 22 C5.52262178 19.30554027 4.62823515 15.59683414 3.375 11.5625 C3.1584375 10.89412109 2.941875 10.22574219 2.71875 9.53710938 C1.70568443 6.38222308 0.74346789 3.22995494 0 0 Z " fill="#929896" transform="translate(87,45)"/>
<path d="M0 0 C6.27 0.33 12.54 0.66 19 1 C17 6 17 6 14 8 C14.66 6.02 15.32 4.04 16 2 C15.27554688 2.08378906 14.55109375 2.16757813 13.8046875 2.25390625 C8.6650818 2.79527805 4.08634058 3.23721798 -1 2 C-0.67 1.34 -0.34 0.68 0 0 Z " fill="#C9CBCB" transform="translate(32,78)"/>
<path d="M0 0 C3.4375 1.875 3.4375 1.875 4.375 4.5625 C4.395625 5.325625 4.41625 6.08875 4.4375 6.875 C3.7775 6.875 3.1175 6.875 2.4375 6.875 C0.8125 4.375 0.8125 4.375 -0.5625 1.875 C-2.97127257 1.98841534 -2.97127257 1.98841534 -5.5625 2.875 C-6.60039581 4.51833504 -7.59817924 6.18743867 -8.5625 7.875 C-11.25 9.6875 -11.25 9.6875 -13.5625 10.875 C-12.21513662 7.94059801 -10.67683035 5.62426573 -8.5625 3.1875 C-8.046875 2.58550781 -7.53125 1.98351562 -7 1.36328125 C-4.31763599 -1.41384019 -3.87151615 -1.22258405 0 0 Z " fill="#292B2A" transform="translate(72.5625,68.125)"/>
<path d="M0 0 C1.45606519 4.52092968 0.27032841 7.51648796 -1 12 C-1.66 12 -2.32 12 -3 12 C-3.33 12.99 -3.66 13.98 -4 15 C-4.33 15 -4.66 15 -5 15 C-5.25 7.375 -5.25 7.375 -3 4 C-2.34 4 -1.68 4 -1 4 C-0.67 2.68 -0.34 1.36 0 0 Z " fill="#060606" transform="translate(112,48)"/>
<path d="M0 0 C0.33 0 0.66 0 1 0 C1.75429531 7.9201007 -0.09546662 11.82554279 -5 18 C-6.39214652 13.82356045 -4.70664266 11.16562207 -3.0625 7.3125 C-2.77181641 6.61060547 -2.48113281 5.90871094 -2.18164062 5.18554688 C-1.46289687 3.45349225 -0.73254669 1.72626219 0 0 Z " fill="#959B99" transform="translate(127,37)"/>
<path d="M0 0 C0.3125 3.3125 0.3125 3.3125 0 7 C-2.3125 8.75 -2.3125 8.75 -5 10 C-6.0272841 10.9719503 -7.03313851 11.96792498 -8 13 C-4.33333333 0 -4.33333333 0 0 0 Z " fill="#4A4E4C" transform="translate(128,23)"/>
<path d="M0 0 C4.44084528 1.48028176 8.62922698 3.71983915 12 7 C12.703125 9.1640625 12.703125 9.1640625 13 11 C8.91918237 10.47585829 7.04739336 8.38881144 4.25 5.5 C3.45078125 4.6853125 2.6515625 3.870625 1.828125 3.03125 C0 1 0 1 0 0 Z " fill="#B0B3B2" transform="translate(11,117)"/>
<path d="M0 0 C0.66 0 1.32 0 2 0 C1.60157441 1.60879422 1.18046843 3.21198173 0.75 4.8125 C0.40195312 6.15248047 0.40195312 6.15248047 0.046875 7.51953125 C-1.18250383 10.43242511 -2.29146012 11.42338723 -5 13 C-8.25 13.6875 -8.25 13.6875 -11 14 C-9.06358691 11.9944293 -7.29677229 10.18885509 -4.9375 8.6875 C-2.09973227 6.21589585 -1.32159357 3.50222296 0 0 Z " fill="#A8ACAB" transform="translate(45,86)"/>
<path d="M0 0 C0.99 0 1.98 0 3 0 C1.4722133 3.43752007 -0.50181056 6.18953688 -3 9 C-3.66 9 -4.32 9 -5 9 C-5.66 10.32 -6.32 11.64 -7 13 C-7.8125 11.3125 -7.8125 11.3125 -8 9 C-5.75 6.5 -5.75 6.5 -3 4 C-2.46375 3.236875 -1.9275 2.47375 -1.375 1.6875 C-0.92125 1.130625 -0.4675 0.57375 0 0 Z " fill="#C9CBCB" transform="translate(43,31)"/>
<path d="M0 0 C1.51961748 5.07640333 0.08205548 8.87646612 -2.25 13.453125 C-3.4689141 15.65548116 -4.71437172 17.83602262 -6 20 C-7 18 -7 18 -6.47094727 16.12060547 C-6.17244873 15.37697754 -5.8739502 14.63334961 -5.56640625 13.8671875 C-5.24736328 13.06152344 -4.92832031 12.25585938 -4.59960938 11.42578125 C-4.25736328 10.58402344 -3.91511719 9.74226563 -3.5625 8.875 C-3.22412109 8.02550781 -2.88574219 7.17601563 -2.53710938 6.30078125 C-1.69823043 4.19767629 -0.85228875 2.09769845 0 0 Z " fill="#8D9391" transform="translate(118,61)"/>
<path d="M0 0 C2.09498255 2.43951549 3.7497487 5.03511835 5 8 C4.67 8.66 4.34 9.32 4 10 C3.566875 9.21625 3.13375 8.4325 2.6875 7.625 C1.10779753 4.78301625 1.10779753 4.78301625 -2 3 C-4.28397032 3.34605611 -5.93409037 3.96704519 -8 5 C-7.625 3.0625 -7.625 3.0625 -7 1 C-4.25345395 -0.37327303 -3.04670253 -0.63768192 0 0 Z " fill="#636B69" transform="translate(74,18)"/>
<path d="M0 0 C1.18771723 3.42943519 0.80226223 5.37784675 -0.4375 8.75 C-0.72496094 9.54921875 -1.01242188 10.3484375 -1.30859375 11.171875 C-1.53675781 11.77515625 -1.76492187 12.3784375 -2 13 C-1.01 13.33 -0.02 13.66 1 14 C0.01 14.495 0.01 14.495 -1 15 C-3.0625 13.25 -3.0625 13.25 -5 11 C-4.82246387 7.98188578 -4.16264785 7.16264785 -2 5 C-1.29289322 3.35008418 -0.62056011 1.68437744 0 0 Z " fill="#4A4D4C" transform="translate(105,59)"/>
<path d="M0 0 C0.66 0 1.32 0 2 0 C0.06375702 6.20477864 -2.25609141 12.10825719 -5 18 C-5.33 18 -5.66 18 -6 18 C-5.55397709 11.30965634 -2.92654458 5.97187878 0 0 Z " fill="#4B4E4D" transform="translate(112,40)"/>
<path d="M0 0 C0.66 0 1.32 0 2 0 C-0.70615034 10.74259681 -0.70615034 10.74259681 -5 14 C-5.66131596 8.7094723 -4.04553852 5.84303382 -1.2890625 1.5390625 C-0.65097656 0.77722656 -0.65097656 0.77722656 0 0 Z " fill="#919795" transform="translate(5,36)"/>
<path d="M0 0 C0.33 0.66 0.66 1.32 1 2 C0.06421005 4.35981813 -0.93347808 6.69631264 -2 9 C-2.66 9 -3.32 9 -4 9 C-4.268125 9.94875 -4.53625 10.8975 -4.8125 11.875 C-6 15 -6 15 -9 17 C-8.44064577 13.09142602 -7.32566703 10.59544795 -5.0625 7.375 C-4.53785156 6.61960937 -4.01320313 5.86421875 -3.47265625 5.0859375 C-2.98667969 4.39757812 -2.50070313 3.70921875 -2 3 C-1.34 2.01 -0.68 1.02 0 0 Z " fill="#C4C6C6" transform="translate(9,27)"/>
<path d="M0 0 C2.3125 0.875 2.3125 0.875 5 3 C6.34185155 6.25503832 7.20924603 9.57339945 8 13 C5.57296205 12.03418902 4.2691741 11.48950194 2.98828125 9.16015625 C2.76527344 8.46792969 2.54226562 7.77570313 2.3125 7.0625 C2.08175781 6.37285156 1.85101563 5.68320313 1.61328125 4.97265625 C1.41089844 4.32167969 1.20851563 3.67070313 1 3 C0.67 2.01 0.34 1.02 0 0 Z " fill="#424343" transform="translate(6,102)"/>
<path d="M0 0 C0.99 0 1.98 0 3 0 C1.58192622 4.47238653 -0.11304374 8.71146306 -2 13 C-3.37734745 9.17403486 -2.7995385 5.92500718 -2 2 C-1.34 1.34 -0.68 0.68 0 0 Z " fill="#070707" transform="translate(28,62)"/>
<path d="M0 0 C0.66 0 1.32 0 2 0 C1.75 3.375 1.75 3.375 1 7 C-1.0625 8.4375 -1.0625 8.4375 -3 9 C-3.25532751 5.93606987 -3.21861333 4.36766788 -1.625 1.6875 C-0.820625 0.8521875 -0.820625 0.8521875 0 0 Z " fill="#4B4E4D" transform="translate(3,46)"/>
<path d="M0 0 C0.33 1.32 0.66 2.64 1 4 C3.64 4 6.28 4 9 4 C9 4.33 9 4.66 9 5 C5.37 5.33 1.74 5.66 -2 6 C-2 2 -2 2 0 0 Z " fill="#5C6461" transform="translate(19,101)"/>
<path d="M0 0 C0.66 0 1.32 0 2 0 C0.34710721 3.58126772 -1.78322183 6.74410707 -4 10 C-4.66 10.99 -5.32 11.98 -6 13 C-6.33314203 8.86469356 -5.68044053 6.93376536 -3.125 3.6875 C-2.59132813 2.99011719 -2.05765625 2.29273438 -1.5078125 1.57421875 C-0.76144531 0.79498047 -0.76144531 0.79498047 0 0 Z " fill="#4A4D4C" transform="translate(30,56)"/>
<path d="M0 0 C0.66 0 1.32 0 2 0 C1.34215037 3.29680965 0.10579427 5.84117922 -1.5625 8.75 C-2.01753906 9.54921875 -2.47257812 10.3484375 -2.94140625 11.171875 C-3.29074219 11.77515625 -3.64007812 12.3784375 -4 13 C-5.0169313 10.34501768 -5.13022151 9.30844625 -4.00390625 6.640625 C-3.52824219 5.85171875 -3.05257813 5.0628125 -2.5625 4.25 C-2.08941406 3.45078125 -1.61632812 2.6515625 -1.12890625 1.828125 C-0.75636719 1.22484375 -0.38382813 0.6215625 0 0 Z " fill="#8E9492" transform="translate(25,0)"/>
<path d="M0 0 C2.375 0.25 2.375 0.25 5 1 C6.3125 3.0625 6.3125 3.0625 7 5 C5.35 5 3.7 5 2 5 C1.34 3.35 0.68 1.7 0 0 Z " fill="#292A29" transform="translate(25,123)"/>
<path d="M0 0 C0.66 0.33 1.32 0.66 2 1 C-0.97 4.3 -3.94 7.6 -7 11 C-7.33 10.01 -7.66 9.02 -8 8 C-5.36 5.36 -2.72 2.72 0 0 Z " fill="#919795" transform="translate(65,23)"/>
<path d="M0 0 C3 1 3 1 4.421875 3.21484375 C4.86015625 4.11332031 5.2984375 5.01179688 5.75 5.9375 C6.19859375 6.83339844 6.6471875 7.72929688 7.109375 8.65234375 C7.40328125 9.42707031 7.6971875 10.20179687 8 11 C7.67 11.66 7.34 12.32 7 13 C6.01719585 11.39805929 5.03888283 9.79336258 4.0625 8.1875 C3.51722656 7.29417969 2.97195312 6.40085937 2.41015625 5.48046875 C1 3 1 3 0 0 Z " fill="#A4A8A6" transform="translate(0,99)"/>
<path d="M0 0 C0.75 1.625 0.75 1.625 1 4 C-0.9375 7.25 -0.9375 7.25 -3 10 C-4 7 -4 7 -2.625 3.875 C-1 1 -1 1 0 0 Z " fill="#1F201F" transform="translate(22,89)"/>
<path d="M0 0 C0.33 0 0.66 0 1 0 C1.1875 3.375 1.1875 3.375 1 7 C0.01 7.66 -0.98 8.32 -2 9 C-3.0625 7.1875 -3.0625 7.1875 -4 5 C-3.67 4.01 -3.34 3.02 -3 2 C-2.34 2.66 -1.68 3.32 -1 4 C-0.67 2.68 -0.34 1.36 0 0 Z " fill="#9DA19F" transform="translate(103,18)"/>
<path d="M0 0 C0.66 0 1.32 0 2 0 C2 2.97 2 5.94 2 9 C1.34 9 0.68 9 0 9 C-0.87890625 2.84765625 -0.87890625 2.84765625 -1 1 C-0.67 0.67 -0.34 0.34 0 0 Z " fill="#8D9391" transform="translate(97,11)"/>
<path d="M0 0 C3.16717283 1.58358642 4.73268318 2.45263699 6.3125 5.6875 C6.539375 6.450625 6.76625 7.21375 7 8 C3.64379729 6.61122646 1.92701272 5.08322035 0 2 C0 1.34 0 0.68 0 0 Z " fill="#AAAEAD" transform="translate(83,81)"/>
<path d="M0 0 C1.9375 0.5 1.9375 0.5 4 2 C4.68790422 4.69658452 4.81946464 7.2017019 5 10 C4.34 9.01 3.68 8.02 3 7 C2.46375 6.34 1.9275 5.68 1.375 5 C0 3 0 3 0 0 Z " fill="#3F3F3F" transform="translate(0,90)"/>
<path d="M0 0 C0.66 0.33 1.32 0.66 2 1 C-0.6598561 4.44216672 -3.90288286 4.99504674 -8 6 C-6.625 4.5 -6.625 4.5 -5 3 C-4.34 3 -3.68 3 -3 3 C-3 2.34 -3 1.68 -3 1 C-2.01 0.67 -1.02 0.34 0 0 Z " fill="#6A706E" transform="translate(37,99)"/>
<path d="M0 0 C0.8125 1.6875 0.8125 1.6875 1 4 C-1.4375 6.75 -1.4375 6.75 -4 9 C-4.33 8.34 -4.66 7.68 -5 7 C-4.34 6.01 -3.68 5.02 -3 4 C-2.34 4 -1.68 4 -1 4 C-0.67 2.68 -0.34 1.36 0 0 Z " fill="#0D0D0D" transform="translate(112,48)"/>
<path d="M0 0 C0 0.66 0 1.32 0 2 C-1.65071396 3.02611949 -3.31970006 4.02308143 -5 5 C-6.75149165 6.58245275 -6.75149165 6.58245275 -8 8 C-6.52980132 2.36423841 -6.52980132 2.36423841 -4 0.625 C-2 0 -2 0 0 0 Z " fill="#727A78" transform="translate(128,28)"/>
<path d="M0 0 C-0.33 1.32 -0.66 2.64 -1 4 C-2.65 4.33 -4.3 4.66 -6 5 C-3.74193548 0 -3.74193548 0 0 0 Z " fill="#A4A8A6" transform="translate(128,30)"/>
</svg>
