<?xml version="1.0" encoding="UTF-8"?>
<svg version="1.1" xmlns="http://www.w3.org/2000/svg" width="128" height="128">
<path d="M0 0 C42.24 0 84.48 0 128 0 C128 42.24 128 84.48 128 128 C85.76 128 43.52 128 0 128 C0 85.76 0 43.52 0 0 Z " fill="#D7E3DD" transform="translate(0,0)"/>
<path d="M0 0 C7.50518357 2.7196484 11.16476512 7.21279646 15 14 C15.50144531 14.79277344 16.00289062 15.58554687 16.51953125 16.40234375 C18.12705684 19.22293614 19.21166015 22.00965546 20.3125 25.0625 C23.03951231 32.32358097 26.16441825 39.54408581 30.33984375 46.10546875 C33.57608933 51.39024688 32.95344316 55.37896685 31.7734375 61.36328125 C31 64 31 64 29 67 C28.731875 68.155 28.46375 69.31 28.1875 70.5 C27 74 27 74 24.9375 75.75390625 C21.06191595 77.39793725 17.86594128 77.02340489 13.8125 76.4375 C13.05582031 76.33526123 12.29914062 76.23302246 11.51953125 76.12768555 C1.64255259 74.66157153 -6.97217731 71.35258344 -14 64 C-16.61021514 60.13120082 -18.8166729 56.11973031 -21 52 C-21.33 51.67 -21.66 51.34 -22 51 C-22.29170277 46.22789037 -22.31407599 41.45302387 -22.35009766 36.67285156 C-22.36662713 35.06463113 -22.39387789 33.45648326 -22.43212891 31.84863281 C-22.48704207 29.52890959 -22.50879421 27.21091164 -22.5234375 24.890625 C-22.54610687 24.17585999 -22.56877625 23.46109497 -22.59213257 22.72467041 C-22.57549584 18.77218291 -22.16432198 17.19362213 -19.57104492 14.13793945 C-18.29837769 13.07965942 -18.29837769 13.07965942 -17 12 C-15.94757837 10.67023432 -14.92266684 9.31783125 -13.9375 7.9375 C-7.23102925 -1.06687317 -7.23102925 -1.06687317 0 0 Z " fill="#F7D025" transform="translate(22,36)"/>
<path d="M0 0 C8.97138439 1.75146333 14.69543452 11.2638882 20 18 C20.71542969 18.88042969 21.43085937 19.76085937 22.16796875 20.66796875 C24 23 24 23 25.625 25.75 C26.8012504 28.12145809 26.8012504 28.12145809 29 29 C29.08704 33.58321382 29.14040632 38.16621534 29.1875 42.75 C29.21263672 44.05195312 29.23777344 45.35390625 29.26367188 46.6953125 C29.27333984 47.94570312 29.28300781 49.19609375 29.29296875 50.484375 C29.3086792 51.63647461 29.32438965 52.78857422 29.34057617 53.97558594 C28.9649805 57.31098318 28.19888423 58.54197154 26 61 C25.39982816 62.3589794 24.8380631 63.73546242 24.3125 65.125 C18.70742586 77.95766975 7.53399666 86.82917899 -5.30859375 91.9140625 C-6.01113281 92.14867188 -6.71367188 92.38328125 -7.4375 92.625 C-8.13746094 92.86476563 -8.83742187 93.10453125 -9.55859375 93.3515625 C-15.20256294 94.85060072 -20.80718714 95.15787773 -26.625 95.1875 C-27.89601563 95.20167969 -29.16703125 95.21585937 -30.4765625 95.23046875 C-35.64890933 94.89214451 -38.10843292 93.87175448 -41.8125 90.25 C-44 87 -44 87 -44.5625 83.8125 C-44 81 -44 81 -42.50390625 79.5 C-38.98337987 77.39097952 -35.28629231 76.37335987 -31.375 75.1875 C-17.51184183 70.72187725 -5.85638286 63.33320935 2 50.6875 C7.63920443 39.18352297 9.12586679 24.80364191 5.1875 12.625 C4.48494985 10.73986544 3.75792113 8.86356234 3 7 C2.69191406 6.23945313 2.38382813 5.47890625 2.06640625 4.6953125 C1.40468074 3.11856943 0.70759086 1.55669989 0 0 Z " fill="#F6D025" transform="translate(99,21)"/>
<path d="M0 0 C22.11 0 44.22 0 67 0 C67 15.84 67 31.68 67 48 C63.49991687 44.49991687 61.1479596 41.94786704 58.5 38 C55.13494339 33.3004143 51.47809834 29.11473775 47.4375 25 C46.90769531 24.44828125 46.37789062 23.8965625 45.83203125 23.328125 C42.02733454 19.54217064 37.65164555 16 32 16 C33.40408058 18.41813877 34.8411146 20.77713674 36.46484375 23.0546875 C36.99207031 23.79976562 37.51929688 24.54484375 38.0625 25.3125 C38.56910156 26.00988281 39.07570312 26.70726563 39.59765625 27.42578125 C42.92508531 33.53379171 43.3641041 39.93899666 43.3125 46.75 C43.30404053 47.92743774 43.30404053 47.92743774 43.29541016 49.12866211 C42.98259352 64.24451932 37.68165266 74.20249471 26.91015625 84.6328125 C19.3618041 90.77281439 10.56795983 94.37831189 1 96 C0.505 96.495 0.505 96.495 0 97 C-1.99958364 97.04080783 -4.00045254 97.04254356 -6 97 C-5.50191861 92.77546409 -3.18209107 90.89292364 -0.1875 88.03515625 C0.81654023 87.05938264 1.8204416 86.08346612 2.82421875 85.10742188 C4.39579282 83.59715034 5.97061833 82.09046954 7.54931641 80.58764648 C15.1707825 73.30488524 21.29869503 65.88999804 27 57 C27.43876465 56.34829834 27.8775293 55.69659668 28.32958984 55.02514648 C32.03739079 49.17250131 34.10907697 42.21777068 33.875 35.3125 C31.0599981 24.6557071 25.5928421 15.03745307 16 9 C12.36769212 7.33858564 8.73836556 5.83212189 5.01171875 4.39453125 C2 3 2 3 0 0 Z " fill="#FCFDFB" transform="translate(61,0)"/>
<path d="M0 0 C7.26 0 14.52 0 22 0 C22.66 1.32 23.32 2.64 24 4 C26.56842382 4.80170454 28.93651535 5.37939079 31.5625 5.875 C38.45320717 7.37941736 43.48845547 9.47012542 49 14 C49.55945313 14.40089844 50.11890625 14.80179688 50.6953125 15.21484375 C55.55875989 18.84409972 58.94423112 23.75148036 60.8125 29.5 C61.72420682 41.65609093 59.2366821 50.09615966 51.9375 59.98046875 C51.298125 60.64691406 50.65875 61.31335937 50 62 C49.01 62 48.02 62 47 62 C46.67 61.01 46.34 60.02 46 59 C46.99 58.34 47.98 57.68 49 57 C49.72965366 54.43717258 49.72965366 54.43717258 50 52 C49.28972656 52.01160156 48.57945313 52.02320313 47.84765625 52.03515625 C46.92855469 52.04417969 46.00945312 52.05320313 45.0625 52.0625 C43.68771484 52.07990234 43.68771484 52.07990234 42.28515625 52.09765625 C40 52 40 52 39 51 C38.76807135 49.48530552 38.58784762 47.96245438 38.4375 46.4375 C38.35371094 45.61121094 38.26992187 44.78492188 38.18359375 43.93359375 C38.12300781 43.29550781 38.06242187 42.65742187 38 42 C37.03900391 41.814375 37.03900391 41.814375 36.05859375 41.625 C35.37925781 41.41875 34.69992188 41.2125 34 41 C33.690625 40.34 33.38125 39.68 33.0625 39 C32.711875 38.34 32.36125 37.68 32 37 C29.44480079 36.18828772 29.44480079 36.18828772 27 36 C27.495 36.53625 27.99 37.0725 28.5 37.625 C30.42109443 40.66673285 30.45185216 42.46049143 30 46 C28.9375 47.875 28.9375 47.875 27 49 C23.5 49.5 23.5 49.5 20 49 C18.1875 46.5625 18.1875 46.5625 17 44 C16.34 43.67 15.68 43.34 15 43 C14.34 44.98 13.68 46.96 13 49 C12.01 49 11.02 49 10 49 C9.731875 48.29875 9.46375 47.5975 9.1875 46.875 C8.03936145 43.95145181 8.03936145 43.95145181 6.4375 41.125 C3.90172231 35.61243981 3.90079692 29.80445797 3.70874023 23.82910156 C3.43647983 15.44379868 2.70999704 8.01216515 0 0 Z " fill="#B9D4D7" transform="translate(32,0)"/>
<path d="M0 0 C0.66 0 1.32 0 2 0 C2 14.85 2 29.7 2 45 C-40.24 45 -82.48 45 -126 45 C-126 33.12 -126 21.24 -126 9 C-123.19305947 11.80694053 -121.44186234 13.71764587 -119.375 16.875 C-112.82423622 25.6474692 -103.40332862 28.2661119 -93 30 C-89.99537122 30.42330405 -87.02509213 30.74363626 -84 31 C-83.566875 32.093125 -83.13375 33.18625 -82.6875 34.3125 C-81.03105411 38.18264985 -81.03105411 38.18264985 -78 41 C-73.93480213 42.38586291 -72.41358236 42.19940578 -68.5 40.3125 C-66.25147312 38.90961475 -64.31343683 37.4382665 -62.25 35.75 C-58.21659226 33.57816506 -55.55500667 33.81785982 -51.0625 33.9765625 C-34.33509268 34.10457837 -21.78338844 27.30909801 -9.6875 16.25 C-5.15036603 11.5725423 -2.60022997 5.90961357 0 0 Z " fill="#FCFDFB" transform="translate(126,83)"/>
<path d="M0 0 C10.23 0 20.46 0 31 0 C32.95367042 8.46590515 34.44740567 15.38311175 34.625 23.8125 C34.80547571 29.94416236 35.13884505 35.92250485 36 42 C32.42569631 42 32.06212591 41.42851562 29.5625 39.0625 C26.02065324 35.71081951 23.46067339 35.19291913 18.6875 34.5625 C12.81464654 35.25927922 9.87743988 38.63597593 6.296875 43.14453125 C5.2642813 44.53552519 4.25061812 45.94089174 3.26171875 47.36328125 C2 49 2 49 0 50 C0 33.5 0 17 0 0 Z " fill="#FCFDFB" transform="translate(0,0)"/>
<path d="M0 0 C0.33 0 0.66 0 1 0 C1 1.65 1 3.3 1 5 C0.34 5 -0.32 5 -1 5 C-1.20625 5.99 -1.4125 6.98 -1.625 8 C-4.80056272 18.96010187 -15.71594937 27.78612995 -25.0703125 33.4609375 C-33.40473105 37.83928538 -42.46107167 40.43944411 -51.90625 39.8046875 C-57.85268757 39.4593136 -61.21602483 39.58018834 -65.9375 43.4375 C-66.94103516 44.39462891 -66.94103516 44.39462891 -67.96484375 45.37109375 C-70.34905243 47.27937594 -71.98600359 47.69614996 -75 48 C-79.99407723 46.87633262 -82.16792895 44.04581579 -85 40 C-85 38.68 -85 37.36 -85 36 C-86.8253125 36.0928125 -86.8253125 36.0928125 -88.6875 36.1875 C-99.79765371 36.13509361 -110.66435348 33.07565239 -118.80859375 25.265625 C-120.31375218 23.56903745 -121.67051294 21.836354 -123 20 C-123.78375 18.96875 -124.5675 17.9375 -125.375 16.875 C-127.06516764 13.88470341 -127.39587757 12.36495935 -127 9 C-124.04133783 11.73252239 -122.23772404 14.22898193 -120.4375 17.8125 C-115.82056683 25.657815 -108.68964506 29.51186328 -100.0625 31.875 C-98.04984788 32.29168188 -96.02806245 32.66630095 -94 33 C-92.9275 33.17660156 -91.855 33.35320312 -90.75 33.53515625 C-84.59697722 34.45764692 -84.59697722 34.45764692 -79.125 32.0625 C-78.073125 31.0415625 -78.073125 31.0415625 -77 30 C-74 29.375 -74 29.375 -71 30 C-69.26526288 31.94125344 -67.5954349 33.94272868 -66 36 C-55.25984954 40.28620684 -39.76714529 36.60239564 -29.57421875 32.25 C-17.81952422 26.54210584 -9.22858196 19.08157773 -4 7 C-1.10714286 1.10714286 -1.10714286 1.10714286 0 0 Z " fill="#ECE7B3" transform="translate(127,78)"/>
<path d="M0 0 C2.5625 -0.5 2.5625 -0.5 6 0 C11.34702566 4.05178342 13.92774513 8.90683528 14.859375 15.46875 C15.16181054 20.91258967 15.06393496 25.40409756 12 30 C4.85106383 30.56737589 4.85106383 30.56737589 1 28 C1 27.34 1 26.68 1 26 C0.4225 25.7525 -0.155 25.505 -0.75 25.25 C-4.48597363 23.17445909 -6.64391315 21.06826056 -8 17 C-8.4724621 12.19663533 -8.7211119 9.33371503 -5.625 5.5 C-3 3 -3 3 -1 3 C-0.67 2.01 -0.34 1.02 0 0 Z " fill="#B9D4D7" transform="translate(19,57)"/>
<path d="M0 0 C4.5030503 2.0629279 7.66052014 5.21526157 11.078125 8.734375 C11.72273682 9.38817139 12.36734863 10.04196777 13.03149414 10.71557617 C29.828125 28.1400796 29.828125 28.1400796 29.828125 33.984375 C26.47779394 32.59729526 25.09990483 31.2711754 23.265625 28.171875 C20.54740612 23.90038819 17.52431698 20.03465444 14.265625 16.171875 C13.80663818 15.62104248 13.34765137 15.07020996 12.87475586 14.50268555 C10.11424342 11.26156804 7.31053717 8.44289846 3.828125 5.984375 C3.168125 5.984375 2.508125 5.984375 1.828125 5.984375 C2.16585937 6.69722656 2.50359375 7.41007812 2.8515625 8.14453125 C10.07805658 23.66269628 10.31378228 36.90454209 4.828125 52.984375 C-0.18236718 63.66298645 -10.46156759 73.21841914 -21.171875 77.984375 C-22.83546374 78.55840603 -24.50546175 79.11402565 -26.1796875 79.65625 C-27.08025879 79.94991455 -27.98083008 80.2435791 -28.90869141 80.54614258 C-30.72735154 81.12252833 -32.55541777 81.67015829 -34.39208984 82.1862793 C-39.03738735 83.44934261 -39.03738735 83.44934261 -42.20703125 86.76611328 C-42.87644266 88.90190603 -42.87644266 88.90190603 -43.171875 91.984375 C-44.821875 91.984375 -46.471875 91.984375 -48.171875 91.984375 C-48.37273943 88.26838309 -48.3238187 87.21229055 -46.171875 83.984375 C-45.58225185 81.65045001 -45.16355583 79.31347099 -44.734375 76.9453125 C-44.54875 76.29820313 -44.363125 75.65109375 -44.171875 74.984375 C-43.181875 74.489375 -43.181875 74.489375 -42.171875 73.984375 C-42.501875 76.294375 -42.831875 78.604375 -43.171875 80.984375 C-25.92910844 77.37906926 -10.55985524 71.73791768 -0.453125 56.37109375 C0.84475683 53.94511114 1.88984101 51.56892091 2.828125 48.984375 C3.07046875 48.32695313 3.3128125 47.66953125 3.5625 46.9921875 C6.49784952 36.79779796 6.774571 21.50201937 1.828125 11.984375 C0.07709889 9.5018091 -1.74371234 7.17882143 -3.74609375 4.89453125 C-5.171875 2.984375 -5.171875 2.984375 -5.171875 -0.015625 C-3.171875 -1.015625 -3.171875 -1.015625 0 0 Z " fill="#ECE7B1" transform="translate(98.171875,16.015625)"/>
<path d="M0 0 C7.50518357 2.7196484 11.16476512 7.21279646 15 14 C15.50144531 14.79277344 16.00289062 15.58554687 16.51953125 16.40234375 C18.12705684 19.22293614 19.21166015 22.00965546 20.3125 25.0625 C23.03951231 32.32358097 26.16441825 39.54408581 30.33984375 46.10546875 C33.57608933 51.39024688 32.95344316 55.37896685 31.7734375 61.36328125 C31 64 31 64 29 67 C28.731875 68.155 28.46375 69.31 28.1875 70.5 C27 74 27 74 24.9375 75.75390625 C21.06191595 77.39793725 17.86594128 77.02340489 13.8125 76.4375 C13.05582031 76.33526123 12.29914062 76.23302246 11.51953125 76.12768555 C1.64255259 74.66157153 -6.97217731 71.35258344 -14 64 C-16.61021514 60.13120082 -18.8166729 56.11973031 -21 52 C-21.33 51.67 -21.66 51.34 -22 51 C-22.04092937 48.66702567 -22.04241723 46.33294775 -22 44 C-18.61738326 46.56612304 -17.60488341 48.89716907 -16.5625 52.875 C-14.47332713 60.41370847 -9.99540328 64.59266752 -3.51171875 68.67578125 C3.8554152 72.55985343 13.76085322 74.93263937 22 73 C23.82268903 70.69308775 23.82268903 70.69308775 25 68 C25.53625 67.071875 26.0725 66.14375 26.625 65.1875 C28.34205506 61.20705418 28.8598166 58.34568536 29 54 C28.01745582 52.65375162 27.01594272 51.32122601 26 50 C25.296875 47.6953125 25.296875 47.6953125 24.75 45.125 C23.20168968 38.96487766 20.55564744 33.75549167 17.62109375 28.1640625 C16.23967005 25.46778973 15.09455903 22.81904795 14 20 C10.06289459 10.1684537 10.06289459 10.1684537 2 4 C-1.15661234 2.93045186 -3.69352004 2.38363527 -7 3 C-11.9019579 6.56593408 -14.74572586 11.80962751 -16.98046875 17.3359375 C-18.29580856 19.48281397 -19.70784022 20.06035686 -22 21 C-22 17 -22 17 -19.875 14.75 C-18.92625 13.8425 -17.9775 12.935 -17 12 C-15.95664047 10.66311222 -14.93660622 9.30777545 -13.9375 7.9375 C-7.23102925 -1.06687317 -7.23102925 -1.06687317 0 0 Z " fill="#EEDA62" transform="translate(22,36)"/>
<path d="M0 0 C8.97138439 1.75146333 14.69543452 11.2638882 20 18 C20.76957031 18.87527344 21.53914063 19.75054687 22.33203125 20.65234375 C23.15767578 21.81443359 23.15767578 21.81443359 24 23 C23.505 24.485 23.505 24.485 23 26 C22.39671875 25.18015625 21.7934375 24.3603125 21.171875 23.515625 C20.36475717 22.42695443 19.55745574 21.33841997 18.75 20.25 C18.35425781 19.71117188 17.95851562 19.17234375 17.55078125 18.6171875 C15.72018979 16.15639242 13.88891081 13.89042223 11.703125 11.734375 C10 10 10 10 10 8 C9.01 7.67 8.02 7.34 7 7 C7.32226562 8.27359375 7.64453125 9.5471875 7.9765625 10.859375 C10.93889705 24.27114806 10.5778455 40.01009665 3.78515625 52.17578125 C2.32364976 54.28967035 0.74964177 56.1163277 -1 58 C-1.81855469 58.8971875 -2.63710937 59.794375 -3.48046875 60.71875 C-14.41540472 72.36969905 -25.94427513 76.64095029 -41 81 C-41.35938302 84.67543854 -41.35938302 84.67543854 -39.57421875 87.765625 C-38.95160156 88.25546875 -38.32898437 88.7453125 -37.6875 89.25 C-36.76517578 90.00023438 -36.76517578 90.00023438 -35.82421875 90.765625 C-30.65192904 94.26550412 -24.43497533 93.40304957 -18.578125 92.43359375 C-7.84402652 90.2337946 0.13458906 87.45057885 9 81 C10.03125 80.2575 11.0625 79.515 12.125 78.75 C15.48163228 75.53930825 17.91767493 72.06286221 20.484375 68.20703125 C22 66 22 66 24 64 C23.07726372 71.75937329 16.91997995 77.53916172 11.16796875 82.38671875 C5.34561814 86.6957361 -0.53253915 90.31912317 -7.4375 92.625 C-8.13746094 92.86476563 -8.83742187 93.10453125 -9.55859375 93.3515625 C-15.20256294 94.85060072 -20.80718714 95.15787773 -26.625 95.1875 C-27.89601563 95.20167969 -29.16703125 95.21585937 -30.4765625 95.23046875 C-35.64890933 94.89214451 -38.10843292 93.87175448 -41.8125 90.25 C-44 87 -44 87 -44.5625 83.8125 C-44 81 -44 81 -42.50390625 79.5 C-38.98337987 77.39097952 -35.28629231 76.37335987 -31.375 75.1875 C-17.51184183 70.72187725 -5.85638286 63.33320935 2 50.6875 C7.63920443 39.18352297 9.12586679 24.80364191 5.1875 12.625 C4.48494985 10.73986544 3.75792113 8.86356234 3 7 C2.69191406 6.23945313 2.38382813 5.47890625 2.06640625 4.6953125 C1.40468074 3.11856943 0.70759086 1.55669989 0 0 Z " fill="#EEDA62" transform="translate(99,21)"/>
<path d="M0 0 C2.5625 -0.5 2.5625 -0.5 6 0 C11.34702566 4.05178342 13.92774513 8.90683528 14.859375 15.46875 C15.16181054 20.91258967 15.06393496 25.40409756 12 30 C4.90140845 30.67605634 4.90140845 30.67605634 2 28.5 C1.67 28.005 1.34 27.51 1 27 C1.99 27 2.98 27 4 27 C4.1546875 25.9171875 4.1546875 25.9171875 4.3125 24.8125 C5 22 5 22 6.5625 19.75 C8.2970562 16.43171858 8.77790686 13.95319199 8.703125 10.2265625 C7.47805319 6.34716844 4.36313722 4.92900869 0.96875 2.99609375 C0.3190625 2.66738281 -0.330625 2.33867188 -1 2 C-0.67 1.34 -0.34 0.68 0 0 Z " fill="#D8E4DE" transform="translate(19,57)"/>
<path d="M0 0 C2.9145678 2.72448729 4.66982174 4.73931939 5.6875 8.625 C5 11 5 11 2.375 13.3125 C-1.28852822 15.14426411 -2.99555594 15.85200937 -7 15 C-11.92902542 10.4904661 -11.92902542 10.4904661 -12.125 6.375 C-9.64089033 1.13076848 -5.71694786 -1.1910308 0 0 Z " fill="#66B3B2" transform="translate(56,108)"/>
<path d="M0 0 C6.02581554 4.30063318 8.14232632 10.13602127 9.56640625 17.16796875 C10.52899761 23.45516454 10.44229152 27.51783202 7 33 C3.67832081 35.2144528 2.01654618 35.33153364 -1.87890625 34.73828125 C-5.90081596 33.33839003 -8.27095105 30.13409028 -11 27 C-11.94875 26.0925 -12.8975 25.185 -13.875 24.25 C-17.13447805 20.79878795 -17.29167832 17.71135373 -17.21484375 13.05859375 C-16.73807026 8.49023683 -14.77437114 5.69882274 -11.4375 2.6875 C-7.38682265 -0.11681509 -4.98640081 -0.73569848 0 0 Z M-7 2 C-7.33 2.99 -7.66 3.98 -8 5 C-9.33333333 5.66666667 -10.66666667 6.33333333 -12 7 C-14.82224714 9.62065805 -15.0019191 11.0201506 -15.375 14.9375 C-15.17186613 19.91427982 -13.20563893 22.64822302 -9.9375 26.3125 C-8.17686457 28.21892691 -8.17686457 28.21892691 -6 28 C-6 28.66 -6 29.32 -6 30 C-2.91111478 32.05925681 -2.29064073 32.2390374 1.1875 32.125 C2.445625 32.08375 3.70375 32.0425 5 32 C9.54029878 25.2803578 7.66550191 18.69051062 6.3125 11.1875 C4.66345222 7.18266969 2.64888148 4.38976041 -1 2 C-4.25396533 1.49615665 -4.25396533 1.49615665 -7 2 Z " fill="#EEDA64" transform="translate(26,55)"/>
<path d="M0 0 C7.40074139 2.15294295 12.74429612 7.24049354 16.6875 13.8125 C17.120625 14.864375 17.55375 15.91625 18 17 C18.76643069 18.68950415 19.53783672 20.37675474 20.3125 22.0625 C20.73660156 23.00867188 21.16070312 23.95484375 21.59765625 24.9296875 C22.57671875 27.07326166 23.58717678 29.20265123 24.62109375 31.3203125 C27.52226739 37.31746281 29.73753046 42.30702676 30 49 C28.31093446 46.46640169 27.02324438 44.09671877 25.72265625 41.359375 C25.29146484 40.45316406 24.86027344 39.54695313 24.41601562 38.61328125 C23.96935547 37.66839844 23.52269531 36.72351563 23.0625 35.75 C22.39831055 34.35587891 22.39831055 34.35587891 21.72070312 32.93359375 C19.86044136 29.01345941 18.01688877 25.09947895 16.34765625 21.09375 C15.19238094 18.44163971 13.96718399 16.15292799 12.375 13.75 C10.83139064 11.41119793 9.89931615 9.69794844 9 7 C6.6569191 5.87914688 6.6569191 5.87914688 4 5 C3.38125 4.62875 2.7625 4.2575 2.125 3.875 C-1.34829545 2.44481952 -3.25814819 2.31399383 -7 3 C-11.34432039 6.73314224 -14.61695067 11.38624096 -17.875 16.0625 C-18.926875 17.5165625 -18.926875 17.5165625 -20 19 C-20.66 19 -21.32 19 -22 19 C-21.42668386 14.94856594 -19.31883596 12.59621288 -16.75 9.5 C-15.98171875 8.5615625 -15.2134375 7.623125 -14.421875 6.65625 C-9.78511055 1.57076641 -7.07249863 -0.85357742 0 0 Z " fill="#EFE8AB" transform="translate(22,34)"/>
<path d="M0 0 C0.33 0 0.66 0 1 0 C1 1.65 1 3.3 1 5 C0.34 5 -0.32 5 -1 5 C-1.20625 5.99 -1.4125 6.98 -1.625 8 C-4.80056272 18.96010187 -15.71594937 27.78612995 -25.0703125 33.4609375 C-32.59860273 37.4157993 -40.51067927 39.66736903 -49 40 C-50.39798828 40.05994141 -50.39798828 40.05994141 -51.82421875 40.12109375 C-56.80306836 40.23409835 -60.40518009 40.09080834 -65 38 C-61.44193142 36.81397714 -58.68648882 36.97478205 -54.9375 37.0625 C-39.56826944 37.21716819 -25.09309047 32.46860687 -13.66796875 21.828125 C-9.43054489 17.26837391 -6.46236979 12.68974768 -4 7 C-1.10714286 1.10714286 -1.10714286 1.10714286 0 0 Z " fill="#EEE8AE" transform="translate(127,78)"/>
<path d="M0 0 C0.66 0 1.32 0 2 0 C2.99 3.3 3.98 6.6 5 10 C6.32 9.34 7.64 8.68 9 8 C10.32 8 11.64 8 13 8 C11.56438314 11.18706942 9.79733671 13.62169105 7.5 16.25 C6.8915625 16.95640625 6.283125 17.6628125 5.65625 18.390625 C4 20 4 20 2 20 C-0.82786552 15.115505 -2.90600806 9.6959114 -3 4 C-1.6640625 1.6953125 -1.6640625 1.6953125 0 0 Z " fill="#B9D4D7" transform="translate(53,70)"/>
<path d="M0 0 C-0.20625 1.19625 -0.4125 2.3925 -0.625 3.625 C-1.15299016 7.60956572 -0.29561208 10.19953789 1 14 C0.125 16.375 0.125 16.375 -1 18 C-3.87793751 16.70989008 -5.96183917 15.42638194 -8 13 C-9.246029 9.26191301 -9.73043287 5.90375792 -9 2 C-5.9520574 -0.79394738 -3.87966931 -1.58060601 0 0 Z " fill="#66B3B2" transform="translate(20,64)"/>
<path d="M0 0 C4.52650924 0.75441821 6.087669 2.63624629 8.890625 6.15234375 C12.62657804 12.21835171 12.71079931 18.75330267 11.859375 25.65234375 C11.375 27.5625 11.375 27.5625 9.375 30.5625 C7.4296875 30.85546875 7.4296875 30.85546875 5.25 30.75 C3.97125 30.688125 2.6925 30.62625 1.375 30.5625 C1.045 29.9025 0.715 29.2425 0.375 28.5625 C3.84 28.0675 3.84 28.0675 7.375 27.5625 C9.29837649 21.79237054 9.57056452 14.194677 7.65625 8.37890625 C5.57816805 5.0187818 3.09331619 3.61125585 -0.625 2.5625 C-1.615 2.2325 -2.605 1.9025 -3.625 1.5625 C-2.625 0.5625 -2.625 0.5625 0 0 Z " fill="#F0E8AA" transform="translate(21.625,56.4375)"/>
<path d="M0 0 C0.66 0 1.32 0 2 0 C2.680625 1.423125 2.680625 1.423125 3.375 2.875 C4.80238254 6.00313679 4.80238254 6.00313679 7 8 C10.45664078 8.37572182 12.31920759 8.45386161 15.25 6.5 C15.8275 6.005 16.405 5.51 17 5 C17.66 5 18.32 5 19 5 C19.33 3.68 19.66 2.36 20 1 C21.32 1.99 22.64 2.98 24 4 C22.61341021 5.15700194 21.21527559 6.30017623 19.8125 7.4375 C19.03519531 8.07558594 18.25789063 8.71367188 17.45703125 9.37109375 C14.85782993 11.09425265 13.08076142 11.68323846 10 12 C5.00592277 10.87633262 2.83207105 8.04581579 0 4 C0 2.68 0 1.36 0 0 Z " fill="#C6DADA" transform="translate(42,114)"/>
<path d="M0 0 C2.67857172 0.36196915 4.60980914 0.73987276 6.875 2.25 C8 4 8 4 7.6875 6.6875 C7.460625 7.450625 7.23375 8.21375 7 9 C5.35 9.33 3.7 9.66 2 10 C0.4375 8.375 0.4375 8.375 -1 6 C-0.6875 2.75 -0.6875 2.75 0 0 Z " fill="#65B3B2" transform="translate(52,37)"/>
<path d="M0 0 C0.6875 1.625 0.6875 1.625 1 4 C-0.4375 7.25 -0.4375 7.25 -2 10 C-1.01 10.33 -0.02 10.66 1 11 C-1.97 11 -4.94 11 -8 11 C-7.01 10.67 -6.02 10.34 -5 10 C-4.9175 9.278125 -4.835 8.55625 -4.75 7.8125 C-3.85249799 4.44686746 -2.2885722 2.58387184 0 0 Z " fill="#D9E4DA" transform="translate(28,74)"/>
<path d="M0 0 C0.66 0 1.32 0 2 0 C2.125 6.625 2.125 6.625 1 10 C-0.32 10 -1.64 10 -3 10 C-2.21302675 6.58978257 -1.12880057 3.31114834 0 0 Z " fill="#FCFDFB" transform="translate(29,74)"/>
<path d="M0 0 C0.66 0 1.32 0 2 0 C1.29445932 3.66881155 -0.27735506 6.70450534 -2 10 C-2.33 10 -2.66 10 -3 10 C-2.25 2.25 -2.25 2.25 0 0 Z " fill="#EEDA62" transform="translate(126,75)"/>
</svg>
