<?xml version="1.0" encoding="UTF-8"?>
<svg version="1.1" xmlns="http://www.w3.org/2000/svg" width="128" height="128">
<path d="M0 0 C42.24 0 84.48 0 128 0 C128 42.24 128 84.48 128 128 C85.76 128 43.52 128 0 128 C0 85.76 0 43.52 0 0 Z " fill="#DFB784" transform="translate(0,0)"/>
<path d="M0 0 C2.62196196 2.40385185 3.739945 4.80982 5.20703125 8.0234375 C5.86703125 8.6834375 6.52703125 9.3434375 7.20703125 10.0234375 C7.91413803 11.67335332 8.58647114 13.33906006 9.20703125 15.0234375 C9.86703125 15.0234375 10.52703125 15.0234375 11.20703125 15.0234375 C10.67162814 9.29121703 10.67162814 9.29121703 7.20703125 5.0234375 C6.51953125 2.3359375 6.51953125 2.3359375 6.20703125 0.0234375 C15.12721927 -0.6455766 24.72595614 4.04449815 31.58203125 9.5859375 C34.20703125 12.0234375 34.20703125 12.0234375 36.20703125 15.0234375 C37.69203125 15.5184375 37.69203125 15.5184375 39.20703125 16.0234375 C39.20703125 26.2534375 39.20703125 36.4834375 39.20703125 47.0234375 C37.72203125 47.5184375 37.72203125 47.5184375 36.20703125 48.0234375 C34.92118087 49.88982867 34.92118087 49.88982867 33.70703125 52.1484375 C29.99986344 57.93456295 25.16769757 60.81255818 19.20703125 64.0234375 C18.48644531 64.42433594 17.76585938 64.82523437 17.0234375 65.23828125 C5.46535037 71.02824928 -8.27092595 72.62028985 -20.72265625 69.453125 C-22.98176218 68.89787637 -22.98176218 68.89787637 -26.10546875 69.1484375 C-28.79296875 69.0234375 -28.79296875 69.0234375 -30.90234375 67.40625 C-33.25881463 64.4363177 -33.40621053 62.5223955 -33.73046875 58.7734375 C-34.50449165 52.65660163 -36.0870038 48.86798204 -39.79296875 44.0234375 C-41.96871594 40.88780184 -43.75560407 38.11278781 -45.23046875 34.5859375 C-46.48415034 31.72754346 -47.49851422 29.97500181 -49.35546875 27.5859375 C-53.91741072 21.40258242 -54.8646096 13.55171444 -53.79296875 6.0234375 C-52.16796875 3.6484375 -52.16796875 3.6484375 -49.79296875 2.0234375 C-48.86484375 1.3634375 -47.93671875 0.7034375 -46.98046875 0.0234375 C-32.31672394 -9.17734356 -14.76282454 -10.44753736 0 0 Z " fill="#2C282C" transform="translate(88.79296875,22.9765625)"/>
<path d="M0 0 C0 18.48 0 36.96 0 56 C-42.24 56 -84.48 56 -128 56 C-128 42.14 -128 28.28 -128 14 C-125.3101723 16.6898277 -123.97269787 18.6670962 -122.1875 21.9375 C-118.77316357 27.68664002 -115.338698 30.50732308 -108.875 32.3125 C-101.5344925 33.68884516 -92.98116189 33.64502377 -86.59375 29.37109375 C-82.17843395 25.57262332 -78.43142327 21.3135494 -76 16 C-73 17 -73 17 -71 20 C-68.12785374 20.72100366 -65.41701245 21.26104133 -62.5 21.6875 C-61.67773926 21.8119751 -60.85547852 21.9364502 -60.00830078 22.06469727 C-42.21033997 24.63918972 -25.55820189 20.71040266 -10.6796875 10.390625 C-7.28045858 7.63141826 -5.10345499 4.87478551 -3 1 C-1 0 -1 0 0 0 Z " fill="#FBFAFA" transform="translate(128,72)"/>
<path d="M0 0 C3.57156356 0.78092818 5.62757301 2.01554212 8.5 4.3125 C9.2528125 4.90675781 10.005625 5.50101563 10.78125 6.11328125 C15.11796574 9.80101664 18.23453389 13.65048627 21.33984375 18.390625 C22.9255781 20.27998785 22.9255781 20.27998785 25.58984375 20.140625 C26.78287109 20.07101563 26.78287109 20.07101563 28 20 C30.45051074 22.26200991 31.31392607 24.79788559 32.375 27.875 C33.86052158 32.10362757 36.04034068 34.66089718 39 38 C40.97176014 41.1763508 41.22266595 43.53869408 41.125 47.25 C41.10695312 48.14203125 41.08890625 49.0340625 41.0703125 49.953125 C41.04710937 50.62859375 41.02390625 51.3040625 41 52 C39.35 52 37.7 52 36 52 C35.7215625 53.2375 35.7215625 53.2375 35.4375 54.5 C32.98898897 60.46159208 29.21255691 64.72982844 23.625 67.9375 C15.59554539 70.29096083 9.7195202 70.52476205 2 67 C-3.81299961 63.8193021 -6.94264822 60.43979677 -8.91015625 54.0390625 C-11.82427302 42.4097035 -11.12396137 34.01331176 -7.75 22.5625 C-7.29947266 20.96051758 -7.29947266 20.96051758 -6.83984375 19.32617188 C-4.93968349 12.70795413 -2.69673599 6.33520338 0 0 Z " fill="#DA9549" transform="translate(14,33)"/>
<path d="M0 0 C8.92018802 -0.6690141 18.51892489 4.02106065 25.375 9.5625 C28 12 28 12 30 15 C30.99 15.33 31.98 15.66 33 16 C33 26.23 33 36.46 33 47 C31.515 47.495 31.515 47.495 30 48 C28.71414962 49.86639117 28.71414962 49.86639117 27.5 52.125 C23.79283219 57.91112545 18.96066632 60.78912068 13 64 C12.27941406 64.40089844 11.55882812 64.80179687 10.81640625 65.21484375 C-0.76045523 71.0142167 -14.44939775 72.55952556 -26.921875 69.44140625 C-29.63178205 68.86580569 -32.24010954 68.9326856 -35 69 C-35.66 68.67 -36.32 68.34 -37 68 C-36.505 67.01 -36.505 67.01 -36 66 C-35.319375 66.28875 -34.63875 66.5775 -33.9375 66.875 C-30.7728805 67.32419248 -30.7728805 67.32419248 -28.0625 64.75 C-27.47984375 64.19957031 -26.8971875 63.64914063 -26.296875 63.08203125 C-22.71275063 59.83315661 -18.83158946 56.9643576 -14.97485352 54.04785156 C-11.44648275 51.32494922 -8.67741525 48.60950608 -6 45 C-5.484375 44.505 -4.96875 44.01 -4.4375 43.5 C0.60826598 38.23485289 2.65380243 30.7389338 3.3125 23.625 C2.9946474 20.95503812 2.21869658 19.35614671 1 17 C1.495 15.515 1.495 15.515 2 14 C2.99 14.33 3.98 14.66 5 15 C4.46459689 9.26777953 4.46459689 9.26777953 1 5 C0.3125 2.3125 0.3125 2.3125 0 0 Z " fill="#4E3A70" transform="translate(95,23)"/>
<path d="M0 0 C33.99 0 67.98 0 103 0 C103 12.21 103 24.42 103 37 C98.31481069 35.82870267 97.35516612 34.35516612 94 31 C89.31505816 27.22407673 84.00655937 25.06287825 78.375 23.0625 C77.74158691 22.82660156 77.10817383 22.59070313 76.45556641 22.34765625 C73.0724046 21.21669592 71.31736256 20.89341408 67.89453125 22.04296875 C65 23 65 23 62.17578125 21.953125 C61.23089844 21.39109375 60.28601563 20.8290625 59.3125 20.25 C49.06630577 14.73573045 38.22963574 13.54890626 26.8671875 16.56640625 C22.9986591 18.08432659 19.84345136 20.47847 16.67578125 23.109375 C15 24 15 24 12.91015625 23.9609375 C11 23 11 23 9.9453125 20.7421875 C9.67460938 19.79601562 9.40390625 18.84984375 9.125 17.875 C7.57850466 13.11844859 5.85145921 10.09685423 2.26953125 6.6328125 C1 5 1 5 0 0 Z " fill="#FCFCFC" transform="translate(25,0)"/>
<path d="M0 0 C6.27 0 12.54 0 19 0 C23 8 23 8 23.875 10.5625 C25.02521351 13.05462927 26.16452593 14.24895166 28.0625 16.1875 C31.83439151 20.41937828 32.12026906 24.47621387 32 30 C31.79813393 32.71641517 31.44861912 35.30828531 31 38 C27.03584902 37.40022302 24.58263971 35.39629692 21.4375 33 C17.49706579 29.97792356 17.49706579 29.97792356 13 28 C9.22388741 36.05035067 6.77771987 44.02786764 4.78833008 52.67504883 C4.59779053 53.46548584 4.40725098 54.25592285 4.2109375 55.0703125 C4.04899902 55.77945801 3.88706055 56.48860352 3.72021484 57.21923828 C3 59 3 59 0 61 C0 40.87 0 20.74 0 0 Z " fill="#FBFBFB" transform="translate(0,0)"/>
<path d="M0 0 C1.32 0 2.64 0 4 0 C7 5.75 7 5.75 7 8 C7.92232422 8.35964844 7.92232422 8.35964844 8.86328125 8.7265625 C11.51004968 10.30397842 12.03817458 11.55094325 13.1875 14.375 C13.51105469 15.14585938 13.83460937 15.91671875 14.16796875 16.7109375 C14.92555687 18.79519401 15.51150369 20.83877392 16 23 C19.8356356 22.76027278 21.70414851 21.49702322 24.5 19.0625 C31.61143347 13.49120749 41.46968856 13.3363832 50.16015625 14.3828125 C56.30625231 15.71855277 62.70767454 17.95241006 68.06640625 21.28515625 C70.07706776 22.28194246 70.07706776 22.28194246 72.30078125 21 C77.88545868 18.93100229 84.6883521 22.72297931 90 25 C94.73988217 27.40281543 99.504422 29.90707639 103 34 C103 34.66 103 35.32 103 36 C104.98 36.495 104.98 36.495 107 37 C107 37.66 107 38.32 107 39 C103.93881949 38.67201637 103.10646549 38.13130744 101.125 35.6875 C100.42375 34.800625 99.7225 33.91375 99 33 C96.14748615 30.82053354 96.14748615 30.82053354 93 29 C91.7315625 28.2265625 91.7315625 28.2265625 90.4375 27.4375 C85.14563991 25.22454032 79.60146924 24.17182072 74 23 C75.45623129 25.98180692 76.87614883 28.8186465 78.75 31.5625 C80.27088726 34.52823015 79.98030469 35.88084871 79 39 C77.125 38.3125 77.125 38.3125 75 37 C73.9375 34.6875 73.9375 34.6875 73 32 C72.46375 31.113125 71.9275 30.22625 71.375 29.3125 C70 27 70 27 70 25 C67.23605265 23.5992665 64.45162227 22.26950053 61.625 21 C60.89539063 20.67 60.16578125 20.34 59.4140625 20 C49.87391987 16.04809626 38.86018447 15.04850618 29.0625 18.9453125 C24.09298701 21.48654073 18.50633683 24.56296882 15 29 C13.76866605 35.68783342 15.51237639 41.83554735 18 48 C18.391875 49.010625 18.78375 50.02125 19.1875 51.0625 C19.455625 51.701875 19.72375 52.34125 20 53 C14.86458902 48.83615326 13.0255686 44.50647621 12 38 C11.96017786 34.1531814 12.05619315 30.35577808 12.28515625 26.515625 C11.86410934 21.32463573 9.26091493 18.49733647 6 14.625 C2.48216006 10.00783508 0 5.86882518 0 0 Z " fill="#958E9D" transform="translate(21,0)"/>
<path d="M0 0 C0.99 0 1.98 0 3 0 C2.67 0.99 2.34 1.98 2 3 C1.34 3 0.68 3 0 3 C-0.165 3.680625 -0.33 4.36125 -0.5 5.0625 C-5.2700056 14.40376096 -16.48038611 19.44059163 -26.03710938 22.69335938 C-37.62191907 26.24195801 -47.53432911 26.49618931 -59.4375 24.75 C-60.62931885 24.58649048 -60.62931885 24.58649048 -61.84521484 24.41967773 C-67.56247554 23.48315584 -67.56247554 23.48315584 -69.91015625 20.890625 C-70.26980469 20.26671875 -70.62945312 19.6428125 -71 19 C-71.66 19 -72.32 19 -73 19 C-73.350625 19.845625 -73.70125 20.69125 -74.0625 21.5625 C-77.47644678 27.61950236 -82.31406606 32.72930545 -89 35 C-97.69404408 36.48222241 -105.21731568 36.3444531 -113.1875 32.4375 C-117.01083885 29.12393966 -119.38673557 25.29377076 -122 21 C-122.61875 20.0925 -123.2375 19.185 -123.875 18.25 C-125.1756045 15.64879101 -125.24612214 13.87142497 -125 11 C-124.34 11 -123.68 11 -123 11 C-122.76925781 11.66386719 -122.53851563 12.32773438 -122.30078125 13.01171875 C-119.19181821 21.4292669 -115.28234836 25.81848441 -107.32421875 29.98828125 C-100.81686742 32.82089301 -94.63077308 32.2881703 -88 30 C-82.46335322 26.97051402 -79.14219974 23.4747661 -76.5 17.75 C-75 15 -75 15 -72.9375 14.0625 C-71 14 -71 14 -69 15 C-68.27306096 16.97888961 -67.60183749 18.97954558 -67 21 C-66.443125 20.97679688 -65.88625 20.95359375 -65.3125 20.9296875 C-61.35326074 20.83605684 -57.82272618 20.90559049 -54 22 C-39.38198342 25.97632936 -24.30168116 20.17736225 -11.66064453 13.01513672 C-6.59707458 9.91982301 -3.99151128 6.7226449 -1.2109375 1.609375 C-0.81132813 1.07828125 -0.41171875 0.5471875 0 0 Z " fill="#DFB784" transform="translate(125,70)"/>
<path d="M0 0 C0.99 0 1.98 0 3 0 C4.64696937 2.37199393 6.08727428 4.68142716 7.5 7.1875 C7.89058594 7.86103516 8.28117187 8.53457031 8.68359375 9.22851562 C9.44749835 10.54670117 10.20603376 11.86801519 10.95874023 13.19262695 C11.85612728 14.75027204 12.80076967 16.28051809 13.75390625 17.8046875 C15.45281308 20.79774593 15.48518155 22.60372914 15 26 C13.5 29.375 13.5 29.375 11 32 C8.00243137 32.741853 6.16649426 32.45235632 3 32 C1.1875 30.875 1.1875 30.875 0 29 C-0.556875 28.21625 -1.11375 27.4325 -1.6875 26.625 C-4.67278336 18.37993168 -3.34621726 9.28076682 -1 1 C-0.67 0.67 -0.34 0.34 0 0 Z " fill="#FCFCFC" transform="translate(20,55)"/>
<path d="M0 0 C3.56319512 1.22720315 4.19706953 2.85380761 5.9609375 6.140625 C6.54617187 7.22472656 7.13140625 8.30882812 7.734375 9.42578125 C8.34539063 10.56917969 8.95640625 11.71257813 9.5859375 12.890625 C10.25882813 14.00308594 10.93171875 15.11554688 11.625 16.26171875 C17.71473782 26.56089686 17.71473782 26.56089686 16.3046875 32.953125 C14.85308833 36.86613146 13.07151203 39.8363463 9.6484375 42.265625 C6.3137606 43.27613315 4.05682305 43.58872741 0.81640625 42.05078125 C-4.08262448 38.98759782 -6.04390699 35.5258108 -7.4140625 29.890625 C-7.81654317 26.19183464 -7.8344284 22.54560854 -7.7890625 18.828125 C-7.80066406 17.87357422 -7.81226563 16.91902344 -7.82421875 15.93554688 C-7.80035151 10.17160721 -7.23274688 5.95738204 -4.4140625 0.890625 C-2.4140625 -0.109375 -2.4140625 -0.109375 0 0 Z M-1.4140625 5.890625 C-5.33016309 12.67853269 -5.1078299 21.28693433 -4.4140625 28.890625 C-3.41413596 32.02783527 -2.2397554 34.0983888 -0.4140625 36.890625 C2.81625709 38.50578479 6.10539547 38.61287186 9.5859375 37.890625 C12.28078386 35.06103632 13.40719142 33.0875228 13.984375 29.22265625 C13.41684881 24.4765794 11.21804295 21.2055151 8.7109375 17.203125 C8.25074219 16.44451172 7.79054688 15.68589844 7.31640625 14.90429688 C5.46132632 11.85820186 3.56452543 8.8585069 1.5859375 5.890625 C0.5959375 5.890625 -0.3940625 5.890625 -1.4140625 5.890625 Z " fill="#DFB784" transform="translate(21.4140625,49.109375)"/>
<path d="M0 0 C0.66 0 1.32 0 2 0 C2.433125 1.03125 2.86625 2.0625 3.3125 3.125 C5.88184655 9.06066634 8.71576508 14.15754921 12.6953125 19.265625 C14.94636396 22.25804072 15.11990409 24.09592097 15.09765625 27.7890625 C15.09443359 28.73007812 15.09121094 29.67109375 15.08789062 30.640625 C15.07532227 32.11789063 15.07532227 32.11789063 15.0625 33.625 C15.05798828 34.61757813 15.05347656 35.61015625 15.04882812 36.6328125 C15.03702145 39.0886016 15.020554 41.54427104 15 44 C14.50371094 43.61763184 14.00742187 43.23526367 13.49609375 42.84130859 C9.120177 39.50851241 4.70754334 36.46914077 0 33.625 C-0.87591797 33.09326172 -0.87591797 33.09326172 -1.76953125 32.55078125 C-3.17743972 31.69680398 -4.58838207 30.8478315 -6 30 C-7.6050381 35.18856025 -9.12478238 40.3846255 -10.46484375 45.6484375 C-10.70783203 46.59074219 -10.95082031 47.53304687 -11.20117188 48.50390625 C-11.69746185 50.43904222 -12.18425111 52.37663656 -12.66210938 54.31640625 C-14.93020001 62.99379784 -14.93020001 62.99379784 -19 66 C-19.125 63.625 -19.125 63.625 -19 61 C-18.34 60.34 -17.68 59.68 -17 59 C-16.24951675 56.8502549 -16.24951675 56.8502549 -15.66796875 54.34375 C-15.30541992 52.93222656 -15.30541992 52.93222656 -14.93554688 51.4921875 C-14.44489038 49.52956151 -13.95778688 47.56604311 -13.47460938 45.6015625 C-11.74746939 38.91059501 -9.3323458 33.05308473 -6 27 C-1.81254198 29.03175817 1.78944384 31.62899008 5.5625 34.34375 C7.66257106 35.77072136 9.70090819 36.93560564 12 38 C12.05428973 35.77110504 12.09292338 33.54182529 12.125 31.3125 C12.14820312 30.07113281 12.17140625 28.82976563 12.1953125 27.55078125 C11.91635139 22.47926824 10.67507077 19.390162 7.125 15.8125 C3.39411903 11.66098049 0 5.72565275 0 0 Z " fill="#D6CDC7" transform="translate(19,0)"/>
<path d="M0 0 C0.721875 0.37125 1.44375 0.7425 2.1875 1.125 C4.95070849 2.33499983 4.95070849 2.33499983 7.2265625 0.9296875 C12.93271081 -0.98307771 19.62249998 2.69474953 25 5 C29.73988217 7.40281543 34.504422 9.90707639 38 14 C38 14.66 38 15.32 38 16 C39.32 16.33 40.64 16.66 42 17 C42 17.66 42 18.32 42 19 C38.93881949 18.67201637 38.10646549 18.13130744 36.125 15.6875 C35.42375 14.800625 34.7225 13.91375 34 13 C31.14748615 10.82053354 31.14748615 10.82053354 28 9 C27.154375 8.484375 26.30875 7.96875 25.4375 7.4375 C20.14563991 5.22454032 14.60146924 4.17182072 9 3 C10.45623129 5.98180692 11.87614883 8.8186465 13.75 11.5625 C15.27088726 14.52823015 14.98030469 15.88084871 14 19 C12.125 18.3125 12.125 18.3125 10 17 C8.9375 14.6875 8.9375 14.6875 8 12 C7.46375 11.113125 6.9275 10.22625 6.375 9.3125 C5 7 5 7 5 5 C4.360625 4.731875 3.72125 4.46375 3.0625 4.1875 C1 3 1 3 0 0 Z " fill="#958E9D" transform="translate(86,20)"/>
<path d="M0 0 C0.99 0 1.98 0 3 0 C2.67 0.99 2.34 1.98 2 3 C1.34 3 0.68 3 0 3 C-0.165 3.680625 -0.33 4.36125 -0.5 5.0625 C-5.2700056 14.40376096 -16.48038611 19.44059163 -26.03710938 22.69335938 C-37.32630809 26.15140799 -46.99069514 26.66176996 -58.5625 24.625 C-59.27857422 24.49923584 -59.99464844 24.37347168 -60.73242188 24.24389648 C-62.50352469 23.90015708 -64.25489809 23.4578005 -66 23 C-66.33 22.34 -66.66 21.68 -67 21 C-62.50694709 20.81278946 -58.3499664 20.75464672 -54 22 C-39.38198342 25.97632936 -24.30168116 20.17736225 -11.66064453 13.01513672 C-6.59707458 9.91982301 -3.99151128 6.7226449 -1.2109375 1.609375 C-0.81132813 1.07828125 -0.41171875 0.5471875 0 0 Z " fill="#958E9D" transform="translate(125,70)"/>
<path d="M0 0 C2.82953899 0.82528221 5.07658003 1.03028119 8 1.1875 C19.66307637 2.13829427 30.41696841 6.9086134 39 14.875 C39.495 16.36 39.495 16.36 40 17.875 C40.99 17.875 41.98 17.875 43 17.875 C43 18.535 43 19.195 43 19.875 C38.7067698 19.39797442 36.95508179 16.83008179 34 13.875 C29.31505816 10.09907673 24.00655937 7.93787825 18.375 5.9375 C17.42488037 5.58365234 17.42488037 5.58365234 16.45556641 5.22265625 C13.0724046 4.09169592 11.31736256 3.76841408 7.89453125 4.91796875 C5 5.875 5 5.875 2.17578125 4.828125 C1.23089844 4.26609375 0.28601563 3.7040625 -0.6875 3.125 C-10.85570882 -2.34729957 -21.94224088 -3.74275662 -33.203125 -0.48828125 C-36.65588631 0.93035329 -39.85574445 2.8741101 -43 4.875 C-41.52057434 0.97469598 -39.77034452 -0.39692543 -36 -2.125 C-23.56970288 -5.79706942 -11.97642721 -4.4911602 0 0 Z " fill="#DED5CC" transform="translate(85,17.125)"/>
<path d="M0 0 C2.99679406 2.04376948 4.29060748 4.52326739 6.125 7.63671875 C6.47240234 8.22606201 6.81980469 8.81540527 7.17773438 9.42260742 C8.1629095 11.09652717 9.14407632 12.7728041 10.125 14.44921875 C10.5890625 15.15304688 11.053125 15.856875 11.53125 16.58203125 C14.48532562 21.11864738 14.79226327 24.19452046 14.125 29.44921875 C11.125 34.94921875 11.125 34.94921875 8.125 36.44921875 C6.13671875 36.609375 6.13671875 36.609375 3.8125 36.51171875 C3.05324219 36.50269531 2.29398438 36.49367187 1.51171875 36.484375 C-2.55829555 34.71914785 -4.26219721 31.47539534 -5.875 27.44921875 C-6.48287424 23.68958443 -6.44260674 20.06032528 -6.3125 16.26171875 C-6.30669922 15.29041016 -6.30089844 14.31910156 -6.29492188 13.31835938 C-6.21327504 8.55345032 -6.00583304 4.79823341 -3.875 0.44921875 C-1.875 -0.55078125 -1.875 -0.55078125 0 0 Z M-1.875 2.44921875 C-5.79110059 9.23712644 -5.5687674 17.84552808 -4.875 25.44921875 C-3.87507346 28.58642902 -2.7006929 30.65698255 -0.875 33.44921875 C2.35531959 35.06437854 5.64445797 35.17146561 9.125 34.44921875 C11.81984636 31.61963007 12.94625392 29.64611655 13.5234375 25.78125 C12.95591131 21.03517315 10.75710545 17.76410885 8.25 13.76171875 C7.78980469 13.00310547 7.32960938 12.24449219 6.85546875 11.46289062 C5.00038882 8.41679561 3.10358793 5.41710065 1.125 2.44921875 C0.135 2.44921875 -0.855 2.44921875 -1.875 2.44921875 Z " fill="#DED5CC" transform="translate(21.875,52.55078125)"/>
<path d="M0 0 C0.66 0 1.32 0 2 0 C2.98065487 2.27020102 3.9595769 4.54112254 4.9375 6.8125 C5.21529297 7.45509766 5.49308594 8.09769531 5.77929688 8.75976562 C6.9518811 11.48637715 8.06089549 14.18268646 9 17 C10.69769234 18.10168984 10.69769234 18.10168984 13 19 C13.94875 19.53625 14.8975 20.0725 15.875 20.625 C22.12734432 23.25827677 29.94862281 23.03232207 36.4375 21.37890625 C41.93125103 18.96466019 45.32233 14.59211767 49 10 C49.66 9.34 50.32 8.68 51 8 C50.25337572 14.21104834 46.56721491 17.07916932 42 21 C36.08836953 25.16501238 28.4765883 25.43607557 21.43359375 24.75 C15.65587569 23.65506866 11.08120404 21.72392881 7.40625 16.9140625 C5.86891007 14.64573251 4.42443214 12.34043865 3 10 C2.071875 8.63875 2.071875 8.63875 1.125 7.25 C-0.1756045 4.64879101 -0.24612214 2.87142497 0 0 Z " fill="#DED5CC" transform="translate(0,81)"/>
<path d="M0 0 C1.32 0 2.64 0 4 0 C4.20625 0.969375 4.4125 1.93875 4.625 2.9375 C5.55554743 6.2929046 7.05771054 8.72598733 9.0625 11.5625 C11.51054257 15.04098384 12.77700357 17.65156969 13 22 C14.32 22.33 15.64 22.66 17 23 C15.35 23.33 13.7 23.66 12 24 C11.56300781 22.82244141 11.56300781 22.82244141 11.1171875 21.62109375 C8.80840863 15.70394036 6.62033968 11.0653169 2.2265625 6.46875 C0.54577482 4.45608705 0.15660604 2.58399962 0 0 Z " fill="#DED5CC" transform="translate(25,0)"/>
<path d="M0 0 C1.32 0 2.64 0 4 0 C5.00484204 1.95585325 6.00373805 3.91476237 7 5.875 C7.556875 6.96554688 8.11375 8.05609375 8.6875 9.1796875 C10 12 10 12 10 14 C5.0215216 11.7682683 2.48782388 8.85717996 0 4 C0 2.68 0 1.36 0 0 Z " fill="#423458" transform="translate(21,0)"/>
<path d="M0 0 C1.984375 0.81640625 1.984375 0.81640625 3.03125 2.6640625 C3.26328125 3.39496094 3.4953125 4.12585938 3.734375 4.87890625 C3.97671875 5.61238281 4.2190625 6.34585938 4.46875 7.1015625 C4.63890625 7.66746094 4.8090625 8.23335937 4.984375 8.81640625 C1.109375 7.06640625 1.109375 7.06640625 -0.015625 4.81640625 C-1.335625 4.81640625 -2.655625 4.81640625 -4.015625 4.81640625 C-4.345625 5.80640625 -4.675625 6.79640625 -5.015625 7.81640625 C-5.675625 7.48640625 -6.335625 7.15640625 -7.015625 6.81640625 C-3.66855548 -0.33415137 -3.66855548 -0.33415137 0 0 Z " fill="#D4B187" transform="translate(54.015625,84.18359375)"/>
<path d="M0 0 C1.29229146 3.87687437 0.44465118 5.68854055 -0.75 9.5625 C-1.09546875 10.71878906 -1.4409375 11.87507813 -1.796875 13.06640625 C-3 16 -3 16 -6 18 C-6.125 15.625 -6.125 15.625 -6 13 C-5.34 12.34 -4.68 11.68 -4 11 C-3.41992464 9.3319364 -2.90549418 7.64041076 -2.4375 5.9375 C-1.09722222 1.09722222 -1.09722222 1.09722222 0 0 Z " fill="#DED5CC" transform="translate(6,48)"/>
<path d="M0 0 C5.03985731 0.44469329 7.37634988 2.71343362 11 6 C10.67 6.66 10.34 7.32 10 8 C9.52949219 7.65066406 9.05898437 7.30132812 8.57421875 6.94140625 C7.95160156 6.48636719 7.32898438 6.03132813 6.6875 5.5625 C6.07261719 5.11003906 5.45773438 4.65757813 4.82421875 4.19140625 C2.90322899 2.82663692 2.90322899 2.82663692 0 2 C0 1.34 0 0.68 0 0 Z " fill="#2B2729" transform="translate(110,30)"/>
<path d="M0 0 C1.32 0 2.64 0 4 0 C4 2.64 4 5.28 4 8 C0 3.375 0 3.375 0 0 Z " fill="#B2ABB0" transform="translate(25,0)"/>
<path d="M0 0 C0.99 0 1.98 0 3 0 C3 0.66 3 1.32 3 2 C3.99 2.33 4.98 2.66 6 3 C6.6875 5.0625 6.6875 5.0625 7 7 C3.125 5.25 3.125 5.25 2 3 C1.01 3 0.02 3 -1 3 C-0.67 2.01 -0.34 1.02 0 0 Z " fill="#D0C7C3" transform="translate(52,86)"/>
</svg>
