<?xml version="1.0" encoding="UTF-8"?>
<svg version="1.1" xmlns="http://www.w3.org/2000/svg" width="128" height="128">
<path d="M0 0 C42.24 0 84.48 0 128 0 C128 42.24 128 84.48 128 128 C85.76 128 43.52 128 0 128 C0 85.76 0 43.52 0 0 Z " fill="#F2B525" transform="translate(0,0)"/>
<path d="M0 0 C24.75 0 49.5 0 75 0 C75 5.3077704 74.86779123 9.79639602 74.12109375 14.921875 C73.88965571 16.96355686 73.88965571 16.96355686 74.47973633 18.72436523 C75.70600596 24.08807205 75.2285801 29.83703818 75.25 35.3125 C75.270625 36.61896484 75.29125 37.92542969 75.3125 39.27148438 C75.34009953 46.05751874 75.15390518 50.98761872 72 57 C71.37679744 59.89429547 71.37679744 59.89429547 71.0625 62.75 C69.8422021 70.85481186 67.35444274 78.05234074 63 85 C62.47921875 85.87140625 61.9584375 86.7428125 61.421875 87.640625 C56.95267575 94.61591729 56.95267575 94.61591729 54.0234375 95.796875 C52.125 96 52.125 96 49 96 C48.67 96.66 48.34 97.32 48 98 C47.59910156 97.52691406 47.19820312 97.05382812 46.78515625 96.56640625 C41.43852615 90.34685695 35.69940695 84.5807094 29.80859375 78.87890625 C28 77 28 77 26.75 74.6875 C25.00493829 72.00758381 23.37778408 70.52697471 20.9375 68.5 C17.8624639 65.92148349 15.97605988 64.02624702 15 60 C14.113125 60.04125 13.22625 60.0825 12.3125 60.125 C9.02722987 60.00102754 6.94550705 59.38612096 4 58 C4 60.97 4 63.94 4 67 C2.02 67.495 2.02 67.495 0 68 C-0.20625 67.38125 -0.4125 66.7625 -0.625 66.125 C-2.54775888 63.15346355 -4.66594527 62.86975341 -8 62 C-8.29172936 54.63767228 -7.17139 48.11848099 -5.625 40.9375 C-3.17749349 29.03115102 -1.9052094 17.2572369 -1.21777344 5.13110352 C-1 3 -1 3 0 0 Z " fill="#AC7113" transform="translate(21,0)"/>
<path d="M0 0 C5.61 0 11.22 0 17 0 C16.10605609 17.05164647 14.12721244 33.41274652 10.59985352 50.11865234 C7.26057951 66.15858391 5.76640198 80.12470208 14.66796875 94.73828125 C15.70179918 96.27797646 16.76342975 97.79971948 17.86328125 99.29296875 C19 101 19 101 19 103 C21.7433234 103.44350991 23.33935956 103.62218053 26 103 C29.06745967 100.77709356 31.52068333 98.04575649 34.0625 95.25 C45.32908389 83.18398963 45.32908389 83.18398963 51.40234375 82.765625 C56.52760609 84.52412978 59.08757989 87.70956065 62.5625 91.75 C63.83127092 93.1852729 65.10335374 94.61762564 66.37890625 96.046875 C66.98492676 96.72814453 67.59094727 97.40941406 68.21533203 98.11132812 C70.62846014 100.66508449 73.27509668 102.78729655 76 105 C77.97238976 108.94477952 77.62509292 114.00115637 76.328125 118.1484375 C75.61585997 119.79471044 74.81575615 121.40247755 74 123 C89.93368243 120.72860272 102.23367059 111.51058726 112 99 C115.21854413 94.56622987 117.45042752 90.07926541 119.5625 85.0625 C119.99852539 84.04639648 119.99852539 84.04639648 120.44335938 83.00976562 C121.58804537 80.33883164 122.7317403 77.66992336 123.81201172 74.97216797 C125.79053243 70.10473379 125.79053243 70.10473379 128 69 C128 88.47 128 107.94 128 128 C85.76 128 43.52 128 0 128 C0 85.76 0 43.52 0 0 Z " fill="#FCFDFA" transform="translate(0,0)"/>
<path d="M0 0 C24.75 0 49.5 0 75 0 C75 5.3077704 74.86779123 9.79639602 74.12109375 14.921875 C73.88965571 16.96355686 73.88965571 16.96355686 74.47973633 18.72436523 C75.70600596 24.08807205 75.2285801 29.83703818 75.25 35.3125 C75.270625 36.61896484 75.29125 37.92542969 75.3125 39.27148438 C75.34009953 46.05751874 75.15390518 50.98761872 72 57 C71.37679744 59.89429547 71.37679744 59.89429547 71.0625 62.75 C69.8422021 70.85481186 67.35444274 78.05234074 63 85 C62.47921875 85.87140625 61.9584375 86.7428125 61.421875 87.640625 C56.95267575 94.61591729 56.95267575 94.61591729 54.0234375 95.796875 C52.125 96 52.125 96 49 96 C48.67 96.66 48.34 97.32 48 98 C47.59910156 97.52691406 47.19820312 97.05382812 46.78515625 96.56640625 C41.43852615 90.34685695 35.69940695 84.5807094 29.80859375 78.87890625 C28 77 28 77 26.75 74.6875 C25.00493829 72.00758381 23.37778408 70.52697471 20.9375 68.5 C17.8624639 65.92148349 15.97605988 64.02624702 15 60 C14.113125 60.04125 13.22625 60.0825 12.3125 60.125 C9.02722987 60.00102754 6.94550705 59.38612096 4 58 C4 60.97 4 63.94 4 67 C2.02 67.495 2.02 67.495 0 68 C-0.20625 67.38125 -0.4125 66.7625 -0.625 66.125 C-2.54775888 63.15346355 -4.66594527 62.86975341 -8 62 C-8.29172936 54.63767228 -7.17139 48.11848099 -5.625 40.9375 C-3.17749349 29.03115102 -1.9052094 17.2572369 -1.21777344 5.13110352 C-1 3 -1 3 0 0 Z M1 4 C0.13909769 6.8323422 -0.08277121 7.76013959 0.91796875 10.66015625 C2.32258679 14.99571014 2.33019347 18.91151017 2.3125 23.4375 C2.32861328 24.25798828 2.34472656 25.07847656 2.36132812 25.92382812 C2.36574237 31.45487223 1.33941478 35.01680781 -1 40 C-1.62848495 42.93334079 -1.62848495 42.93334079 -1.8125 45.75 C-1.90144531 46.67296875 -1.99039062 47.5959375 -2.08203125 48.546875 C-2.20683484 51.26021214 -2.20683484 51.26021214 0 54 C1.0209375 53.7525 1.0209375 53.7525 2.0625 53.5 C8.25893897 52.44528698 11.67414974 52.77645905 17 56 C19.84641309 55.86445652 21.36575613 55.53225491 23.5546875 53.6953125 C25.14882236 51.82543539 25.75873066 50.32970363 26.5 48 C27.47603819 44.93245139 28.31865098 42.88687524 31 41 C33.91796875 40.70703125 33.91796875 40.70703125 37.1875 40.8125 C38.27417969 40.83957031 39.36085937 40.86664063 40.48046875 40.89453125 C41.72763672 40.94673828 41.72763672 40.94673828 43 41 C41.60804085 43.7839183 39.84424221 43.97898997 37 45 C37 46.98 37 48.96 37 51 C37.99 51.33 38.98 51.66 40 52 C40.28875 52.66 40.5775 53.32 40.875 54 C41.8553382 56.29150599 41.8553382 56.29150599 44.625 56.75 C45.40875 56.8325 46.1925 56.915 47 57 C47.33 56.01 47.66 55.02 48 54 C48.94875 53.9175 49.8975 53.835 50.875 53.75 C51.90625 53.5025 52.9375 53.255 54 53 C55.09166275 51.06669397 55.09166275 51.06669397 56 49 C58.625 47.75 58.625 47.75 61 47 C61 46.34 61 45.68 61 45 C61.66 45 62.32 45 63 45 C67.43884891 40.83017224 67.74818536 36.77914605 68 31 C69.87824891 32.87824891 69.39102397 36.03935276 69.5625 38.5625 C69.64628906 39.76003906 69.73007813 40.95757812 69.81640625 42.19140625 C69.87699219 43.11824219 69.93757813 44.04507813 70 45 C70.66 45 71.32 45 72 45 C73.14133931 32.66597628 73.14133931 32.66597628 71.4140625 20.4921875 C70.56189797 15.36312174 71.4047547 10.13197971 72 5 C68.06402078 4.06989856 64.41364581 3.8787502 60.3737793 3.88647461 C59.72931351 3.88632858 59.08484772 3.88618256 58.42085266 3.8860321 C56.30527296 3.88672494 54.18978294 3.89448769 52.07421875 3.90234375 C50.60162911 3.90421017 49.12903885 3.90563301 47.65644836 3.90663147 C43.79147612 3.91043904 39.9265418 3.92025421 36.06158447 3.93133545 C32.11332716 3.9415875 28.16506368 3.94613721 24.21679688 3.95117188 C16.47784735 3.96187813 8.738929 3.97893331 1 4 Z " fill="#C38113" transform="translate(21,0)"/>
<path d="M0 0 C1.32 0 2.64 0 4 0 C3.49024356 15.69698282 1.54701901 30.76486707 -1.6875 46.125 C-2.82006313 51.56956131 -3.29197406 56.45249285 -3 62 C-2.21625 62.268125 -1.4325 62.53625 -0.625 62.8125 C2 64 2 64 4 67 C4.99 67 5.98 67 7 67 C7 64.03 7 61.06 7 58 C10.69037435 56.76987522 11.54259938 57.4821168 15 59 C15.70125 59.103125 16.4025 59.20625 17.125 59.3125 C19 60 19 60 20.25 62.125 C21.97636768 64.96117547 23.4827952 66.39620475 26 68.5 C29.11099412 71.11799505 31.02328088 73.42307968 33 77 C34.64222987 78.69958716 36.30410376 80.35536305 38 82 C40.44247165 84.39081398 42.87823592 86.78833344 45.3125 89.1875 C45.95767578 89.81591797 46.60285156 90.44433594 47.26757812 91.09179688 C47.87666016 91.69443359 48.48574219 92.29707031 49.11328125 92.91796875 C49.66798096 93.46219482 50.22268066 94.0064209 50.79418945 94.56713867 C52 96 52 96 52 98 C52.87591797 98.41185547 52.87591797 98.41185547 53.76953125 98.83203125 C57.34008235 100.70172439 60.34840027 102.95170424 63 106 C64.21203647 110.31787991 64.17599551 113.68801645 63 118 C67.42436025 117.48553951 70.26511061 116.38617933 74 114 C74.66 114 75.32 114 76 114 C76 113.34 76 112.68 76 112 C77.40195529 111.04256712 78.80773568 110.09033836 80.23046875 109.1640625 C80.81441406 108.77992187 81.39835937 108.39578125 82 108 C82.55300781 107.63648437 83.10601562 107.27296875 83.67578125 106.8984375 C94.48052908 98.80108625 99.8791859 82.75963684 103.859375 70.3125 C104.5625 68.125 104.5625 68.125 106 65 C108.6875 64 108.6875 64 111 64 C111.3763209 68.51585077 111.3763209 68.51585077 109.63671875 70.75390625 C107.57345919 73.58534837 106.71521799 76.3619693 105.625 79.6875 C99.20531308 98.18003099 86.17154454 113.2611801 68.375 121.9375 C64.31214755 123.21654614 61.2365712 123.22297743 57 123 C57.875 118.25 57.875 118.25 59 116 C59.07033769 114.12620395 59.0843022 112.24998898 59.0625 110.375 C59.05347656 109.37210937 59.04445313 108.36921875 59.03515625 107.3359375 C59.02355469 106.56507812 59.01195313 105.79421875 59 105 C58.46246094 104.78859375 57.92492187 104.5771875 57.37109375 104.359375 C54.10763198 102.48839527 51.66938144 99.91871758 49.0625 97.25 C48.55009766 96.73695312 48.03769531 96.22390625 47.50976562 95.6953125 C44.96759104 93.12406603 42.57969432 90.51860286 40.32421875 87.69140625 C38.16774845 84.77980881 38.16774845 84.77980881 34.75 83.6875 C27.70025951 84.27497837 23.4362438 89.43402352 18.78125 94.3984375 C18.21809082 94.99060059 17.65493164 95.58276367 17.07470703 96.19287109 C15.95595392 97.38232966 14.85709539 98.59087126 13.78076172 99.81884766 C10.87381775 102.93194504 9.76475326 103.94907121 5.36328125 104.2421875 C-1.56441861 101.68352483 -4.24895607 93.4922781 -7.39453125 87.21875 C-12.94878943 74.18685096 -9.51591376 60.34247782 -6.78125 47.046875 C-3.99070061 33.42736006 -2.0524073 20.0336566 -1.21777344 6.15283203 C-1.00204934 4.02025909 -0.57323691 2.06259785 0 0 Z " fill="#F3C858" transform="translate(17,0)"/>
<path d="M0 0 C2.85440869 2.29482271 5.1790871 4.97870312 7.5625 7.75 C8.83127092 9.1852729 10.10335374 10.61762564 11.37890625 12.046875 C11.98492676 12.72814453 12.59094727 13.40941406 13.21533203 14.11132812 C15.62846014 16.66508449 18.27509668 18.78729655 21 21 C22.15638891 23.31277781 22.19868928 24.80091221 22.25 27.375 C22.27578125 28.14585938 22.3015625 28.91671875 22.328125 29.7109375 C21.9082439 32.64010805 21.0872801 33.9127199 19 36 C7.49005127 40.25106121 -5.04057107 38.70178308 -16 34 C-17.45646831 33.49459305 -18.91464496 32.99406404 -20.375 32.5 C-23.91102525 31.03681714 -26.30141924 29.69858076 -29 27 C-29.8125 24.75 -29.8125 24.75 -30 23 C-26.53058454 23.45822468 -23.32604951 23.89131683 -20 25 C-18.43881572 25.06740865 -16.8749748 25.08514456 -15.3125 25.0625 C-14.50425781 25.05347656 -13.69601563 25.04445313 -12.86328125 25.03515625 C-12.24839844 25.02355469 -11.63351563 25.01195313 -11 25 C-11.82907862 21.10333049 -13.23121497 18.92260642 -16 16 C-18.61818456 14.66701026 -18.61818456 14.66701026 -21 14 C-19.95484991 7.8105397 -14.59210556 4.32675463 -10 0.5 C-5.97625575 -1.51187212 -4.32742462 -1.23257915 0 0 Z " fill="#71D0E1" transform="translate(55,84)"/>
<path d="M0 0 C7.92 0 15.84 0 24 0 C24 16.83 24 33.66 24 51 C19.26563984 48.63281992 18.52675787 46.4450867 16.6875 41.8125 C16.07984974 40.35344717 15.47043157 38.89512954 14.859375 37.4375 C14.39821289 36.32568359 14.39821289 36.32568359 13.92773438 35.19140625 C12.51641062 31.85771098 10.98349828 28.58539297 9.4375 25.3125 C9.15148926 24.70075928 8.86547852 24.08901855 8.57080078 23.45874023 C7.14458889 20.41072862 5.69857324 17.37381756 4.2265625 14.34765625 C3.67742187 13.20167969 3.12828125 12.05570313 2.5625 10.875 C2.06878906 9.86179687 1.57507813 8.84859375 1.06640625 7.8046875 C0 5 0 5 0 0 Z " fill="#FCFDFA" transform="translate(104,0)"/>
<path d="M0 0 C0.66 0.66 1.32 1.32 2 2 C2.763125 2.2475 3.52625 2.495 4.3125 2.75 C8.12547837 4.52347831 9.63155369 6.51699073 12 10 C11.6328125 12.1953125 11.6328125 12.1953125 11 14 C4.03672362 14.33693273 -1.43345544 13.3030887 -8 11 C-6.25228817 14.78011881 -4.5116743 16.6588838 -1 19 C0.63192234 19.52221515 2.27026945 20.03443888 3.9375 20.4296875 C6.4345352 21.12015557 8.73306561 22.13067844 11.125 23.125 C18.55262606 25.88852892 26.35448937 25.99588067 34 24 C36.33300933 23.96111651 38.66709801 23.9551365 41 24 C40.505 25.485 40.505 25.485 40 27 C27.24832658 31.52594606 17.27700083 30.43315588 5.3125 24.9375 C-3.4125149 20.72483998 -10.58628511 16.47346715 -14 7 C-12.989375 7.144375 -11.97875 7.28875 -10.9375 7.4375 C-5.47851048 6.83094561 -3.41603002 4.07016343 0 0 Z " fill="#B4E9ED" transform="translate(33,96)"/>
<path d="M0 0 C0.33 0.66 0.66 1.32 1 2 C1.7425 2.144375 2.485 2.28875 3.25 2.4375 C6.4487066 3.0917809 8.39715086 4.03027633 11 6 C12.54335239 8.93971885 13 10.66843858 13 14 C10.087425 13.91433603 8.43201976 13.42089045 6.33203125 11.375 C4.83908228 9.61608625 3.39563738 7.83686981 2 6 C1.01 6.495 1.01 6.495 0 7 C0.28875 7.55429687 0.5775 8.10859375 0.875 8.6796875 C1.431875 9.76636719 1.431875 9.76636719 2 10.875 C2.37125 11.59429687 2.7425 12.31359375 3.125 13.0546875 C4 15 4 15 4 17 C4.763125 17.103125 5.52625 17.20625 6.3125 17.3125 C9.32885503 18.08412571 10.23182482 18.47403546 12 21 C12.309375 22.134375 12.61875 23.26875 12.9375 24.4375 C14.04492907 28.15064453 14.98651522 29.64571502 18 32 C18.66 32 19.32 32 20 32 C20.33 31.34 20.66 30.68 21 30 C22.32 30.33 23.64 30.66 25 31 C25 31.99 25 32.98 25 34 C24.360625 34.28875 23.72125 34.5775 23.0625 34.875 C20.84793921 35.82823451 20.84793921 35.82823451 20 38 C16.42912573 36.49049406 14.18614558 34.39393774 11.5 31.625 C10.7471875 30.85414062 9.994375 30.08328125 9.21875 29.2890625 C8.4865625 28.53367187 7.754375 27.77828125 7 27 C5.91332031 25.94039062 5.91332031 25.94039062 4.8046875 24.859375 C3 23 3 23 1.625 20.625 C0.13864304 18.22396183 -1.1226674 16.91456297 -3.1875 15.0625 C-5.4640427 12.84287087 -5.96095742 12.17391697 -6.6875 8.9375 C-5.78368614 5.07574989 -3.97293437 3.5378708 -1 1 C-0.67 0.67 -0.34 0.34 0 0 Z " fill="#AC7113" transform="translate(46,54)"/>
<path d="M0 0 C4.91101345 8.82417157 0.87475726 20.96966028 -1.578125 30.16796875 C-2.40405171 33.75463197 -2.51441189 37.35903275 -2 41 C-0.18735352 43.56990998 -0.18735352 43.56990998 2 45 C2.70125 44.649375 3.4025 44.29875 4.125 43.9375 C7.63474552 42.79301776 9.46741418 42.96966247 13 44 C15.89553794 45.64519201 17.58317372 46.87046558 18.75390625 50.04296875 C19.25165833 52.0096116 19.63417696 54.00460161 20 56 C18.62437146 54.71034824 17.29233607 53.37310707 16 52 C16 51.34 16 50.68 16 50 C15.113125 50.04125 14.22625 50.0825 13.3125 50.125 C10.02722987 50.00102754 7.94550705 49.38612096 5 48 C5 50.97 5 53.94 5 57 C3.02 57.495 3.02 57.495 1 58 C0.79375 57.38125 0.5875 56.7625 0.375 56.125 C-1.54775888 53.15346355 -3.66594527 52.86975341 -7 52 C-7.29864162 44.51824147 -6.15969688 37.80792701 -4.625 30.5 C-2.57554568 20.3569623 -0.96124352 10.30108724 0 0 Z " fill="#F3B525" transform="translate(20,10)"/>
<path d="M0 0 C0.33 0 0.66 0 1 0 C1.08167446 1.41569064 1.13949698 2.83276805 1.1875 4.25 C1.23970703 5.43335937 1.23970703 5.43335937 1.29296875 6.640625 C0.92130175 9.63378326 0.13335804 10.88058548 -2 13 C-13.36022502 17.19576255 -26.21350389 15.88846129 -37 11 C-38.7325 10.2265625 -38.7325 10.2265625 -40.5 9.4375 C-42.76760588 8.13362662 -44.39209307 7.05454774 -46 5 C-46 4.34 -46 3.68 -46 3 C-44.10306139 3.28438952 -42.20747973 3.57783792 -40.3125 3.875 C-39.25675781 4.03742188 -38.20101562 4.19984375 -37.11328125 4.3671875 C-34 5 -34 5 -31.67114258 6.00488281 C-26.76446274 7.8328352 -21.56287379 7.65148616 -16.375 7.875 C-15.2303125 7.9471875 -14.085625 8.019375 -12.90625 8.09375 C-11.26269531 8.16722656 -11.26269531 8.16722656 -9.5859375 8.2421875 C-8.5861084 8.2922998 -7.5862793 8.34241211 -6.55615234 8.39404297 C-3.87031077 8.2443127 -3.87031077 8.2443127 -2.19384766 6.12548828 C-1.03209179 4.0571352 -0.41540606 2.32627396 0 0 Z " fill="#35A7C1" transform="translate(76,107)"/>
<path d="M0 0 C0.66 0 1.32 0 2 0 C1.54177564 14.11015 -0.13702086 27.61971761 -2.62841797 41.50146484 C-3.08738632 44.05989214 -3.54353891 46.61882596 -3.99707031 49.17822266 C-4.4474478 51.71199418 -4.9060507 54.24432147 -5.37402344 56.77490234 C-8.10585096 72.08024843 -7.13267205 84.83196123 2 98 C3.32 99.32 4.64 100.64 6 102 C8.97 99.69 11.94 97.38 15 95 C15.66 95.33 16.32 95.66 17 96 C15.83957541 97.37743906 14.64527477 98.72638484 13.4375 100.0625 C12.44556641 101.19365234 12.44556641 101.19365234 11.43359375 102.34765625 C9 104 9 104 5.484375 104.11328125 C-0.02180981 102.35401817 -1.55207699 98.32273168 -4.19921875 93.53125 C-12.27020779 77.70440814 -10.25045739 63.91373968 -6.78125 47.046875 C-3.99070061 33.42736006 -2.0524073 20.0336566 -1.21777344 6.15283203 C-1.00204934 4.02025909 -0.57323691 2.06259785 0 0 Z " fill="#F3E4A9" transform="translate(17,0)"/>
<path d="M0 0 C22.44 0 44.88 0 68 0 C65.13786293 2.86213707 62.24615824 2.3538921 58.40625 2.4140625 C57.6350885 2.43360992 56.863927 2.45315735 56.06939697 2.47329712 C53.54637599 2.53419502 51.02335786 2.58038828 48.5 2.625 C46.77245391 2.66079519 45.04491481 2.69692931 43.31738281 2.73339844 C39.01341874 2.82057346 34.70934197 2.89284375 30.4050293 2.96032715 C28.16636167 2.99725573 25.92794292 3.04056717 23.68945312 3.08691406 C20.04294338 3.15861 16.39697114 3.20944298 12.75 3.25 C11.67556641 3.27143066 10.60113281 3.29286133 9.49414062 3.31494141 C8.52154297 3.31929199 7.54894531 3.32364258 6.546875 3.328125 C5.70995117 3.3374707 4.87302734 3.34681641 4.01074219 3.35644531 C3.34719727 3.23881836 2.68365234 3.12119141 2 3 C1.34 2.01 0.68 1.02 0 0 Z " fill="#F3B525" transform="translate(24,0)"/>
<path d="M0 0 C0.99 0 1.98 0 3 0 C2.72800781 0.50144531 2.45601562 1.00289063 2.17578125 1.51953125 C0.9271165 4.15375755 -0.06884322 6.84227151 -1.0546875 9.58398438 C-3.50827823 16.39459575 -6.03017717 22.90392531 -10 29 C-10.42667969 29.66 -10.85335937 30.32 -11.29296875 31 C-18.59818664 41.47695114 -30.65674481 52.1141604 -43 56 C-45.72270794 56.21203389 -48.26173507 56.14411921 -51 56 C-51 55.34 -51 54.68 -51 54 C-48.36556176 53.23162218 -46.35169511 53 -43.5625 53 C-36.78331514 52.21437484 -31.25198982 47.01971617 -26 43 C-25.23042969 42.44054687 -24.46085937 41.88109375 -23.66796875 41.3046875 C-12.57997046 32.60049949 -6.15761942 17.34670023 -2.67578125 3.99609375 C-2 2 -2 2 0 0 Z " fill="#F3E4A9" transform="translate(125,67)"/>
<path d="M0 0 C0 0.99 0 1.98 0 3 C-0.61359375 3.19207031 -1.2271875 3.38414063 -1.859375 3.58203125 C-5.04032315 5.68911916 -5.23431771 8.06060467 -6.25 11.6875 C-11.60880577 29.28798133 -20.7542125 41.61689048 -36 52 C-36.57878906 52.44601563 -37.15757813 52.89203125 -37.75390625 53.3515625 C-41.72165323 56.35710381 -45.16346082 56.66644557 -50 57 C-49.34 55.68 -48.68 54.36 -48 53 C-47.484375 53.2475 -46.96875 53.495 -46.4375 53.75 C-42.55985417 54.14770726 -40.28133675 52.00526135 -37 50 C-36.34 50 -35.68 50 -35 50 C-35 49.34 -35 48.68 -35 48 C-33.59804471 47.04256712 -32.19226432 46.09033836 -30.76953125 45.1640625 C-30.18558594 44.77992187 -29.60164063 44.39578125 -29 44 C-28.44699219 43.63648438 -27.89398438 43.27296875 -27.32421875 42.8984375 C-16.37357793 34.69175036 -11.38488659 18.78488226 -7.0703125 6.3125 C-6.44818161 4.51665825 -5.73595512 2.7522741 -5 1 C-2 0 -2 0 0 0 Z " fill="#F4C959" transform="translate(128,64)"/>
<path d="M0 0 C4.38863278 1.34097113 6.65110486 3.02494669 9 7 C8.9375 10.1875 8.9375 10.1875 8 13 C4.75173326 15.16551116 3.76905843 15.55156953 0 15 C-2.3125 13.4375 -2.3125 13.4375 -4 11 C-4.5 7.5 -4.5 7.5 -4 4 C-2 1.5625 -2 1.5625 0 0 Z " fill="#F3E4A9" transform="translate(21,69)"/>
<path d="M0 0 C0.99 0.33 1.98 0.66 3 1 C3.268125 1.639375 3.53625 2.27875 3.8125 2.9375 C5.54880945 5.95319536 7.73430085 5.99516949 11 7 C13.0340906 8.28072371 15.04402816 9.60287726 17 11 C12.46019417 17.16116505 12.46019417 17.16116505 9 18 C6.16451522 16.96262752 4.52418833 15.95561906 3.05078125 13.26953125 C2.31695536 11.53340659 1.65463268 9.76750822 1 8 C0.67 7.67 0.34 7.34 0 7 C-0.04092937 4.66702567 -0.04241723 2.33294775 0 0 Z " fill="#F3B525" transform="translate(14,81)"/>
<path d="M0 0 C4.92294946 2.55089733 8.45934303 6.1617242 12.3125 10.0625 C13.28026367 11.01866211 13.28026367 11.01866211 14.26757812 11.99414062 C14.87666016 12.60580078 15.48574219 13.21746094 16.11328125 13.84765625 C16.66798096 14.40461182 17.22268066 14.96156738 17.79418945 15.53540039 C19 17 19 17 19 19 C19.87591797 19.41185547 19.87591797 19.41185547 20.76953125 19.83203125 C25.64160327 22.38325635 29.38308752 25.11498965 31.125 30.4375 C30.96941535 34.87166249 30.22498457 37.16381971 28 41 C25.8125 41.9375 25.8125 41.9375 24 42 C24.32742187 41.29488281 24.65484375 40.58976562 24.9921875 39.86328125 C26.08400722 36.76132833 26.20385396 34.45993947 26.125 31.1875 C26.10695313 30.21167969 26.08890625 29.23585938 26.0703125 28.23046875 C26.04710938 27.49441406 26.02390625 26.75835937 26 26 C25.46246094 25.78859375 24.92492187 25.5771875 24.37109375 25.359375 C21.10763198 23.48839527 18.66938144 20.91871758 16.0625 18.25 C15.55009766 17.73695312 15.03769531 17.22390625 14.50976562 16.6953125 C11.96884233 14.12533163 9.58212057 11.52140757 7.328125 8.6953125 C4.69928105 5.65185223 2.86451549 4.89872453 -1 4 C-0.67 2.68 -0.34 1.36 0 0 Z " fill="#87AA6C" transform="translate(50,79)"/>
<path d="M0 0 C1.28970703 0.433125 1.28970703 0.433125 2.60546875 0.875 C12.09317963 3.8547827 21.1397145 5.55789833 31 3 C33.33300933 2.96111651 35.66709801 2.9551365 38 3 C37.67 3.99 37.34 4.98 37 6 C27.68761504 9.30524086 17.86508553 10.47743403 8.65234375 6.5859375 C5.71501415 5.1361678 2.84447478 3.62328666 0 2 C0 1.34 0 0.68 0 0 Z " fill="#9ADFE8" transform="translate(36,117)"/>
<path d="M0 0 C2.11196664 2.11196664 2.79041315 3.56501399 3.91796875 6.296875 C4.28180664 7.16650879 4.64564453 8.03614258 5.02050781 8.93212891 C5.40561523 9.86202637 5.79072266 10.79192383 6.1875 11.75 C9.35709398 19.28514049 12.70081874 26.62671378 16.4296875 33.90234375 C19.2449341 39.45580283 22.02895151 45.08685452 24 51 C22.20703125 50.44921875 22.20703125 50.44921875 20 49 C18.72857272 46.59643933 17.68519034 44.32540864 16.6875 41.8125 C16.07984974 40.35344717 15.47043157 38.89512954 14.859375 37.4375 C14.39821289 36.32568359 14.39821289 36.32568359 13.92773438 35.19140625 C12.51641062 31.85771098 10.98349828 28.58539297 9.4375 25.3125 C9.15148926 24.70075928 8.86547852 24.08901855 8.57080078 23.45874023 C7.14458889 20.41072862 5.69857324 17.37381756 4.2265625 14.34765625 C3.67742187 13.20167969 3.12828125 12.05570313 2.5625 10.875 C2.06878906 9.86179687 1.57507813 8.84859375 1.06640625 7.8046875 C-0.01210023 4.96817595 -0.22541984 3.00193247 0 0 Z " fill="#F3E4A9" transform="translate(104,0)"/>
<path d="M0 0 C0.66 0 1.32 0 2 0 C2.350625 1.155 2.70125 2.31 3.0625 3.5 C7.2506955 16.04492362 13.32060251 28.07190981 19 40 C19.48855469 41.03125 19.97710937 42.0625 20.48046875 43.125 C20.92003906 44.0325 21.35960938 44.94 21.8125 45.875 C22.19019531 46.65617187 22.56789063 47.43734375 22.95703125 48.2421875 C23.88547531 50.1681613 23.88547531 50.1681613 26 51 C25.67 51.99 25.34 52.98 25 54 C20.85414582 51.5712056 19.67060877 48.39779703 18.125 44.0625 C15.93548383 38.26868202 13.47576336 32.76561696 10.65234375 27.24609375 C8.6173145 23.24819941 6.63593175 19.22820746 4.6875 15.1875 C4.33768066 14.48189941 3.98786133 13.77629883 3.62744141 13.04931641 C1.51682966 8.64189306 0.43952676 4.87301404 0 0 Z " fill="#F4C959" transform="translate(102,0)"/>
<path d="M0 0 C5.16736026 9.28477879 0.50452206 22.34664798 -2 32 C-2.66 32 -3.32 32 -4 32 C-3.24442352 24.96506946 -2.36244287 17.95201886 -1.4375 10.9375 C-1.22963867 9.35291992 -1.22963867 9.35291992 -1.01757812 7.73632812 C-0.67917298 5.15744754 -0.33996428 2.57867543 0 0 Z " fill="#F3B525" transform="translate(20,10)"/>
<path d="M0 0 C2.8992226 0.46761655 3.86675182 0.86675182 6 3 C6.125 5.625 6.125 5.625 6 8 C3.6875 8.6875 3.6875 8.6875 1 9 C-0.875 7.875 -0.875 7.875 -2 6 C-1.57894737 1.57894737 -1.57894737 1.57894737 0 0 Z " fill="#FCFDFA" transform="translate(21,72)"/>
<path d="M0 0 C1.67542976 0.28604898 3.34385343 0.61781233 5 1 C5.6875 2.75 5.6875 2.75 6 5 C4.5625 7.25 4.5625 7.25 3 9 C1.35 8.67 -0.3 8.34 -2 8 C-1.125 1.125 -1.125 1.125 0 0 Z " fill="#BEECEF" transform="translate(68,106)"/>
<path d="M0 0 C1.23556641 0.01740234 1.23556641 0.01740234 2.49609375 0.03515625 C3.32238281 0.04417969 4.14867187 0.05320312 5 0.0625 C5.63808594 0.07410156 6.27617188 0.08570312 6.93359375 0.09765625 C7.59359375 1.41765625 8.25359375 2.73765625 8.93359375 4.09765625 C7.93359375 5.09765625 7.93359375 5.09765625 5.8671875 5.1953125 C5.04347656 5.18371094 4.21976563 5.17210938 3.37109375 5.16015625 C2.54480469 5.15113281 1.71851563 5.14210938 0.8671875 5.1328125 C0.22910156 5.12121094 -0.40898437 5.10960938 -1.06640625 5.09765625 C-1.72640625 3.77765625 -2.38640625 2.45765625 -3.06640625 1.09765625 C-2.06640625 0.09765625 -2.06640625 0.09765625 0 0 Z " fill="#FCFDFA" transform="translate(30.06640625,100.90234375)"/>
<path d="M0 0 C0.99 0.33 1.98 0.66 3 1 C3.33 3.31 3.66 5.62 4 8 C2.68 8.33 1.36 8.66 0 9 C-1.5625 7.25 -1.5625 7.25 -3 5 C-2.8125 2.8125 -2.8125 2.8125 -2 1 C-1.34 0.67 -0.68 0.34 0 0 Z " fill="#B67813" transform="translate(21,59)"/>
<path d="M0 0 C2.0625 0.4375 2.0625 0.4375 4 1 C3.25 8.625 3.25 8.625 1 12 C-1.69461986 7.95807022 -1.23200889 5.7948504 -1 1 C-0.67 0.67 -0.34 0.34 0 0 Z " fill="#F3B525" transform="translate(12,68)"/>
<path d="M0 0 C0.66 0.66 1.32 1.32 2 2 C1.96712417 4.72869407 1.43602229 7.2966618 1 10 C-1.47359354 9.04247992 -2.73064878 8.50503355 -4 6.125 C-4 4 -4 4 -2.0625 1.75 C-1.381875 1.1725 -0.70125 0.595 0 0 Z " fill="#F3B525" transform="translate(54,42)"/>
<path d="M0 0 C1.33333333 0.66666667 2.66666667 1.33333333 4 2 C5.0828125 2.495 5.0828125 2.495 6.1875 3 C8 4 8 4 9 6 C9.039992 7.99960012 9.04346799 10.00047242 9 12 C7 10 7 10 5.625 7.6875 C3.95075787 4.91856109 2.06222915 2.48889725 0 0 Z " fill="#C48214" transform="translate(42,67)"/>
<path d="M0 0 C3.057952 1.73559438 5.63379989 3.38472619 8 6 C7.67 6.66 7.34 7.32 7 8 C5.8274869 7.04882866 4.66212985 6.08882991 3.5 5.125 C2.8503125 4.59132813 2.200625 4.05765625 1.53125 3.5078125 C1.0259375 3.01023437 0.520625 2.51265625 0 2 C0 1.34 0 0.68 0 0 Z " fill="#35A7C1" transform="translate(52,83)"/>
</svg>
