<?xml version="1.0" encoding="UTF-8"?>
<svg version="1.1" xmlns="http://www.w3.org/2000/svg" width="128" height="128">
<path d="M0 0 C42.24 0 84.48 0 128 0 C128 42.24 128 84.48 128 128 C85.76 128 43.52 128 0 128 C0 85.76 0 43.52 0 0 Z " fill="#FAFAF9" transform="translate(0,0)"/>
<path d="M0 0 C42.24 0 84.48 0 128 0 C128 1.32 128 2.64 128 4 C126.86046875 4.01981934 125.7209375 4.03963867 124.546875 4.06005859 C120.28998972 4.13654489 116.03342723 4.22519361 111.77685547 4.31738281 C109.94000658 4.35549573 108.10308754 4.39037839 106.26611328 4.421875 C103.61465506 4.46791226 100.96367244 4.52583984 98.3125 4.5859375 C97.09481934 4.60326431 97.09481934 4.60326431 95.85253906 4.62094116 C90.6229099 4.75412552 86.00216119 5.42033322 81 7 C80.67 7.66 80.34 8.32 80 9 C80.66 9 81.32 9 82 9 C80.64844718 13.42326378 78.80109562 15.40412982 75 18 C71.78750253 19.07083249 69.17116754 19.25021081 65.79296875 19.4296875 C64.56642578 19.50316406 63.33988281 19.57664062 62.07617188 19.65234375 C59.49584046 19.80008749 56.91509513 19.94078069 54.33398438 20.07421875 C53.10357422 20.15027344 51.87316406 20.22632812 50.60546875 20.3046875 C48.92167114 20.3972583 48.92167114 20.3972583 47.20385742 20.49169922 C43.62365446 21.05970825 41.09948779 22.13899556 38 24 C36.39786051 27.29852248 37.04559392 29.70573428 38.125 33.0625 C39.69715243 36.8328203 41.40074148 38.90740784 45 41 C49.87192652 42.40744544 54.0853916 41.90101154 59 41 C61.31186831 38.68813169 61.42846605 37.64343674 62 34.5 C62.77777778 30.22222222 62.77777778 30.22222222 65 28 C67.125 28.375 67.125 28.375 69 29 C69.13277344 29.63808594 69.26554687 30.27617187 69.40234375 30.93359375 C69.66724609 32.17302734 69.66724609 32.17302734 69.9375 33.4375 C70.11152344 34.26121094 70.28554687 35.08492187 70.46484375 35.93359375 C70.80752994 37.97661204 70.80752994 37.97661204 72 39 C76.46909813 39.21963438 80.94376815 39.18578866 85.41772461 39.18530273 C87.66084184 39.18747419 89.90345526 39.20558181 92.14648438 39.22460938 C93.58072749 39.22754632 95.01497294 39.2295291 96.44921875 39.23046875 C98.40347778 39.23663208 98.40347778 39.23663208 100.3972168 39.24291992 C103.94210283 39.00390375 106.70363972 38.28511892 110 37 C112.48124864 40.72187296 112.36732877 43.68876727 112.375 48 C112.39949219 48.72445312 112.42398438 49.44890625 112.44921875 50.1953125 C112.47864951 55.51246931 112.47864951 55.51246931 110.35032654 57.68028259 C107.44193241 59.3133571 105.25785491 59.54847747 101.93383789 59.80297852 C100.70899185 59.90220108 99.48414581 60.00142365 98.22218323 60.10365295 C96.88909276 60.19663357 95.55591388 60.28835413 94.22265625 60.37890625 C92.85027572 60.4783936 91.47791574 60.57816491 90.10557556 60.6782074 C87.23219143 60.88376384 84.35827382 61.07763316 81.48364258 61.26489258 C77.80459122 61.50666375 74.13001607 61.78990789 70.45479679 62.08361912 C67.62249352 62.30316892 64.78878335 62.49417821 61.95391655 62.677351 C60.59804254 62.76960321 59.24282767 62.8721549 57.88853645 62.98529243 C47.27015671 63.8553965 47.27015671 63.8553965 44.09605408 61.71777344 C42.74804688 60.09399414 42.74804688 60.09399414 41 57 C39.21195366 55.66592636 39.21195366 55.66592636 37.4375 54.875 C34.20510839 53.1118773 32.54643282 51.56979459 30 49 C23.18578431 43.37621958 17.60386684 39.83880749 8.578125 40.453125 C5.23112874 41.1630939 3.28674164 42.47669888 1 45 C0.67 45 0.34 45 0 45 C0 30.15 0 15.3 0 0 Z " fill="#EA9F63" transform="translate(0,0)"/>
<path d="M0 0 C2.50037734 2.17424117 3.43628586 3.73045798 4 7 C5.32 7 6.64 7 8 7 C10.34632534 9.34632534 10.26167051 9.845702 10.34375 13.02734375 C10.37339844 13.81947266 10.40304688 14.61160156 10.43359375 15.42773438 C10.45550781 16.25595703 10.47742187 17.08417969 10.5 17.9375 C10.54344682 19.57186701 10.59519802 21.20603966 10.65625 22.83984375 C10.68428711 23.92833618 10.68428711 23.92833618 10.71289062 25.03881836 C10.90380137 27.31972156 10.90380137 27.31972156 13 30 C13.7520874 29.79141357 14.5041748 29.58282715 15.27905273 29.36791992 C24.22700773 27.07338096 32.87932864 26.4640087 42.0625 26.3125 C43.46291997 26.27920694 44.86331178 26.24470701 46.26367188 26.20898438 C51.17609886 26.0889851 56.08592215 26 61 26 C65.43349932 31.43231066 65.0145522 38.29143687 65 45 C64.64607126 48.4270661 64.20677592 51.76075938 63 55 C59.72949841 56.6352508 56.10157807 56.39367603 52.5 56.5625 C51.63375 56.6042334 50.7675 56.6459668 49.875 56.68896484 C42.25095403 57.01689519 34.63051062 57.10740589 27 57.125 C25.87271484 57.12959229 24.74542969 57.13418457 23.58398438 57.13891602 C21.99553711 57.13589478 21.99553711 57.13589478 20.375 57.1328125 C19.43398438 57.13168457 18.49296875 57.13055664 17.5234375 57.12939453 C15.20172644 57.01034394 13.22250657 56.65670895 11 56 C10.690625 56.804375 10.38125 57.60875 10.0625 58.4375 C9 61 9 61 8 62 C6.33382885 62.04063832 4.66611905 62.042721 3 62 C3 61.34 3 60.68 3 60 C2.34 60 1.68 60 1 60 C0.505 58.02 0.505 58.02 0 56 C-0.99 56.495 -0.99 56.495 -2 57 C-6.36651028 57.34580226 -10.74358741 57.46823266 -15.12084961 57.61254883 C-17.29404088 57.68686873 -19.46614512 57.77764245 -21.63867188 57.86914062 C-23.02600645 57.91768386 -24.41337593 57.96524153 -25.80078125 58.01171875 C-27.06059814 58.05772217 -28.32041504 58.10372559 -29.6184082 58.15112305 C-32.94355755 58.00252241 -35.08269372 57.57015547 -38 56 C-38.92578125 53.8359375 -38.92578125 53.8359375 -39.3125 51.375 C-39.45300781 50.55773437 -39.59351563 49.74046875 -39.73828125 48.8984375 C-39.82464844 48.27195313 -39.91101562 47.64546875 -40 47 C-40.66 47 -41.32 47 -42 47 C-42 37.43 -42 27.86 -42 18 C-32.88284612 16.69754945 -24.09081281 15.55099619 -14.9375 15.125 C-13.85017578 15.0528125 -12.76285156 14.980625 -11.64257812 14.90625 C-3.75323614 14.53772511 -3.75323614 14.53772511 0.24609375 16.9921875 C0.82488281 17.65476562 1.40367188 18.31734375 2 19 C1.505 17.515 1.505 17.515 1 16 C0.93170883 12.96531126 1.0023336 9.94479915 1.0625 6.91015625 C1.00838229 4.39030043 0.73793563 2.39252569 0 0 Z " fill="#E4CEA2" transform="translate(42,61)"/>
<path d="M0 0 C1.28148926 0.00424484 1.28148926 0.00424484 2.58886719 0.00857544 C5.28856053 0.01967371 7.98790877 0.04475823 10.6875 0.0703125 C12.52994309 0.08035571 14.37239143 0.0894792 16.21484375 0.09765625 C20.70585994 0.119579 25.19662168 0.15403604 29.6875 0.1953125 C29.6875 1.1853125 29.6875 2.1753125 29.6875 3.1953125 C28.5322583 3.17960205 27.3770166 3.1638916 26.18676758 3.14770508 C21.89110313 3.09330881 17.595469 3.05892717 13.29956055 3.03051758 C11.44208655 3.01545304 9.58464799 2.99499741 7.72729492 2.96899414 C5.05378461 2.93250791 2.38074556 2.9155628 -0.29296875 2.90234375 C-1.12023972 2.88685989 -1.94751068 2.87137604 -2.79985046 2.85542297 C-7.4681891 2.85406755 -10.53522882 3.14369972 -14.3125 6.1953125 C-15.66528115 8.18220981 -16.99818305 10.18276468 -18.3125 12.1953125 C-25.02629524 18.90910774 -35.39322032 17.46941945 -44.30664062 17.71289062 C-49.33149139 17.89517474 -53.60241062 18.23343716 -58.3125 20.1953125 C-58.3125 23.4953125 -58.3125 26.7953125 -58.3125 30.1953125 C-57.6525 30.1953125 -56.9925 30.1953125 -56.3125 30.1953125 C-56.0340625 31.154375 -56.0340625 31.154375 -55.75 32.1328125 C-54.41366854 34.53695274 -54.41366854 34.53695274 -51.1875 34.9453125 C-47.2020005 35.2024415 -43.30438006 35.26534548 -39.3125 35.1953125 C-39.20292969 34.59203125 -39.09335937 33.98875 -38.98046875 33.3671875 C-37.40564587 25.42905591 -37.40564587 25.42905591 -34.3125 22.1953125 C-31.5625 22.0703125 -31.5625 22.0703125 -28.3125 23.1953125 C-26.9925 26.4953125 -25.6725 29.7953125 -24.3125 33.1953125 C-13.0925 33.1953125 -1.8725 33.1953125 9.6875 33.1953125 C10.0175 32.2053125 10.3475 31.2153125 10.6875 30.1953125 C12.625 30.5078125 12.625 30.5078125 14.6875 31.1953125 C16.12544141 35.50913673 15.99247163 39.67529973 16.0625 44.1953125 C16.11857422 45.56816406 16.11857422 45.56816406 16.17578125 46.96875 C16.18738281 47.84789062 16.19898437 48.72703125 16.2109375 49.6328125 C16.2406665 50.83744141 16.2406665 50.83744141 16.27099609 52.06640625 C15.6875 54.1953125 15.6875 54.1953125 13.75830078 55.92333984 C9.52305716 57.67764254 5.57832691 57.87081652 1.03125 58.109375 C0.09253052 58.16934662 -0.84618896 58.22931824 -1.81335449 58.29110718 C-4.81245304 58.48000401 -7.81226188 58.65057868 -10.8125 58.8203125 C-12.79955527 58.94146651 -14.78653597 59.06385022 -16.7734375 59.1875 C-20.58043589 59.4235358 -24.38771657 59.65370986 -28.1953125 59.87988281 C-34.24048966 60.24470691 -40.27701673 60.69426976 -46.3125 61.1953125 C-45.82354248 62.36356567 -45.82354248 62.36356567 -45.32470703 63.55541992 C-43.89760011 67.27739463 -44.17822916 70.23432286 -44.3125 74.1953125 C-43.6525 74.1953125 -42.9925 74.1953125 -42.3125 74.1953125 C-42.044375 73.3909375 -41.77625 72.5865625 -41.5 71.7578125 C-41.108125 70.9121875 -40.71625 70.0665625 -40.3125 69.1953125 C-36.77529662 68.01624471 -34.78324921 68.37626573 -31.10546875 68.90234375 C-29.87892578 69.07701172 -28.65238281 69.25167969 -27.38867188 69.43164062 C-26.10541016 69.62177734 -24.82214844 69.81191406 -23.5 70.0078125 C-22.22833984 70.18634766 -20.95667969 70.36488281 -19.64648438 70.54882812 C-13.96091613 71.37381629 -8.75665679 72.34379917 -3.3125 74.1953125 C-2.095625 74.3396875 -0.87875 74.4840625 0.375 74.6328125 C3.6875 75.1953125 3.6875 75.1953125 5.5 76.2578125 C9.90500186 83.44492079 9.28267406 93.01356709 9.6875 101.1953125 C9.3575 101.1953125 9.0275 101.1953125 8.6875 101.1953125 C8.52314453 99.87466797 8.52314453 99.87466797 8.35546875 98.52734375 C8.11763672 96.78517578 8.11763672 96.78517578 7.875 95.0078125 C7.72417969 93.85925781 7.57335937 92.71070312 7.41796875 91.52734375 C6.68347495 88.17695223 5.61700074 86.0023396 3.6875 83.1953125 C2.80964844 83.35128906 1.93179688 83.50726563 1.02734375 83.66796875 C-6.03165019 84.67791784 -13.23624484 84.55472905 -20.35351562 84.71289062 C-26.66450291 84.89861096 -32.26259359 85.37680262 -38.3125 87.1953125 C-39.97644675 87.54196807 -41.64193851 87.88208222 -43.3125 88.1953125 C-47.22111793 84.38100438 -46.85976724 80.07382487 -47 74.9453125 C-47.03416016 74.10484375 -47.06832031 73.264375 -47.10351562 72.3984375 C-47.18573568 70.33119046 -47.25080157 68.26327376 -47.3125 66.1953125 C-49.19566159 65.08694827 -49.19566159 65.08694827 -51.3125 64.1953125 C-52.3025 64.6903125 -52.3025 64.6903125 -53.3125 65.1953125 C-53.8075 63.2153125 -53.8075 63.2153125 -54.3125 61.1953125 C-54.3125 66.1453125 -54.3125 71.0953125 -54.3125 76.1953125 C-55.6325 75.5353125 -56.9525 74.8753125 -58.3125 74.1953125 C-63.22086464 72.70028767 -68.19657399 73.27967693 -73.25 73.5703125 C-74.11173828 73.61414063 -74.97347656 73.65796875 -75.86132812 73.703125 C-83.35202593 74.09823873 -90.8318739 74.64473405 -98.3125 75.1953125 C-98.46120119 70.44488147 -98.56987512 65.69581394 -98.64208984 60.94360352 C-98.67220087 59.32845454 -98.71310063 57.71346827 -98.76513672 56.09887695 C-98.83821534 53.77254087 -98.8720088 51.44837102 -98.8984375 49.12109375 C-98.92940521 48.40319168 -98.96037292 47.68528961 -98.99227905 46.94563293 C-98.99416888 44.10860739 -98.8623868 41.87054832 -97.03117371 39.62190247 C-92.63759806 35.83194042 -89.3888255 35.16657228 -83.75390625 35.37109375 C-75.07873803 37.44880146 -67.43756861 43.91711717 -61.3125 50.1953125 C-60.4875 50.6696875 -59.6625 51.1440625 -58.8125 51.6328125 C-56.3125 53.1953125 -56.3125 53.1953125 -54.53736877 55.77845764 C-52.53076402 58.45622952 -52.53076402 58.45622952 -49.49790955 58.65818787 C-48.41441727 58.58205765 -47.33092499 58.50592743 -46.21459961 58.42749023 C-44.98329819 58.35348495 -43.75199677 58.27947968 -42.48338318 58.20323181 C-41.14380415 58.09594275 -39.80429215 57.98781396 -38.46484375 57.87890625 C-37.08782934 57.78484169 -35.71067292 57.69283521 -34.33338928 57.60279846 C-31.44962243 57.40893064 -28.56781453 57.19796968 -25.6862793 56.97338867 C-21.99329296 56.68583633 -18.29901846 56.428922 -14.60303402 56.18324184 C-11.76032616 55.99295757 -8.91841013 55.79256803 -6.07666206 55.58848763 C-4.7144235 55.49071857 -3.35206009 55.39467326 -1.98957634 55.30038261 C-0.08603558 55.16590821 1.81652105 55.01771501 3.71899414 54.86889648 C5.34303917 54.74634743 5.34303917 54.74634743 6.99989319 54.62132263 C9.90365831 54.3528063 9.90365831 54.3528063 12.6875 52.1953125 C12.96363568 49.43989409 13.06007625 46.94440148 13 44.1953125 C13.00483398 43.08929688 13.00483398 43.08929688 13.00976562 41.9609375 C13.10668962 37.61054961 13.10668962 37.61054961 10.6875 34.1953125 C10.01549561 34.51983398 9.34349121 34.84435547 8.65112305 35.17871094 C5.05310047 36.41292842 2.07234867 36.45434724 -1.73046875 36.4609375 C-2.4289241 36.46285095 -3.12737946 36.4647644 -3.84700012 36.46673584 C-5.3152401 36.46809096 -6.78349233 36.46444173 -8.25170898 36.45605469 C-10.50336339 36.44529643 -12.7542288 36.45599705 -15.00585938 36.46875 C-16.4348976 36.46742923 -17.86393533 36.46486856 -19.29296875 36.4609375 C-20.59129639 36.45868164 -21.88962402 36.45642578 -23.22729492 36.45410156 C-26.3125 36.1953125 -26.3125 36.1953125 -28.3125 34.1953125 C-28.9453125 32.03125 -28.9453125 32.03125 -29.4375 29.5703125 C-29.60507813 28.75304687 -29.77265625 27.93578125 -29.9453125 27.09375 C-30.06648438 26.46726562 -30.18765625 25.84078125 -30.3125 25.1953125 C-31.6325 25.5253125 -32.9525 25.8553125 -34.3125 26.1953125 C-34.42207031 26.81019531 -34.53164063 27.42507812 -34.64453125 28.05859375 C-34.88236328 29.27095703 -34.88236328 29.27095703 -35.125 30.5078125 C-35.27582031 31.30832031 -35.42664062 32.10882813 -35.58203125 32.93359375 C-36.42558489 35.54545235 -37.09087589 36.59218063 -39.3125 38.1953125 C-44.30735032 39.52356091 -49.55564194 40.07672993 -54.25 37.6328125 C-58.70790286 34.08468574 -60.79678428 31.06478198 -62.3125 25.5703125 C-62.3125 22.1953125 -62.3125 22.1953125 -60.625 19.8828125 C-56.3553465 16.76711941 -53.36105194 15.93291633 -48.04296875 15.703125 C-46.21475586 15.60451172 -46.21475586 15.60451172 -44.34960938 15.50390625 C-41.79525677 15.38208527 -39.24055165 15.26743244 -36.68554688 15.16015625 C-29.82426674 14.77676369 -24.83982054 14.44345314 -19.3125 10.1953125 C-17.37555417 7.61327529 -17.37555417 7.61327529 -16.3125 5.1953125 C-16.9725 5.1953125 -17.6325 5.1953125 -18.3125 5.1953125 C-17.9825 4.2053125 -17.6525 3.2153125 -17.3125 2.1953125 C-11.48469197 0.22736442 -6.10720033 -0.0776583 0 0 Z " fill="#E5DEC6" transform="translate(98.3125,3.8046875)"/>
<path d="M0 0 C2.33450982 1.79725277 2.97867363 2.91800182 3.73046875 5.80859375 C4.89883653 15.08563361 5.2047636 24.27433449 5.25 33.625 C5.25926514 34.84630615 5.26853027 36.0676123 5.27807617 37.32592773 C5.27396729 38.48938721 5.2698584 39.65284668 5.265625 40.8515625 C5.26336914 41.89135254 5.26111328 42.93114258 5.25878906 44.00244141 C4.9768149 47.26855339 4.10106786 49.92237337 3 53 C2.62468554 55.32694964 2.28082798 57.65976685 2 60 C1.34 58.68 0.68 57.36 0 56 C-0.99 56.495 -0.99 56.495 -2 57 C-6.36651028 57.34580226 -10.74358741 57.46823266 -15.12084961 57.61254883 C-17.29404088 57.68686873 -19.46614512 57.77764245 -21.63867188 57.86914062 C-23.02600645 57.91768386 -24.41337593 57.96524153 -25.80078125 58.01171875 C-27.06059814 58.05772217 -28.32041504 58.10372559 -29.6184082 58.15112305 C-32.94355755 58.00252241 -35.08269372 57.57015547 -38 56 C-38.92578125 53.8359375 -38.92578125 53.8359375 -39.3125 51.375 C-39.45300781 50.55773437 -39.59351563 49.74046875 -39.73828125 48.8984375 C-39.82464844 48.27195313 -39.91101562 47.64546875 -40 47 C-40.66 47 -41.32 47 -42 47 C-42 37.43 -42 27.86 -42 18 C-32.88284612 16.69754945 -24.09081281 15.55099619 -14.9375 15.125 C-13.85017578 15.0528125 -12.76285156 14.980625 -11.64257812 14.90625 C-3.75323614 14.53772511 -3.75323614 14.53772511 0.24609375 16.9921875 C0.82488281 17.65476562 1.40367188 18.31734375 2 19 C1.505 17.515 1.505 17.515 1 16 C0.93170883 12.96531126 1.0023336 9.94479915 1.0625 6.91015625 C1.00838229 4.39030043 0.73793563 2.39252569 0 0 Z " fill="#E6DFC7" transform="translate(42,61)"/>
<path d="M0 0 C8.67019626 2.07651692 16.3239853 8.54293831 22.44140625 14.82421875 C23.43140625 15.48421875 24.42140625 16.14421875 25.44140625 16.82421875 C29.45580792 24.85302209 29.58207866 32.04000843 29.44140625 40.82421875 C28.88453125 40.51484375 28.32765625 40.20546875 27.75390625 39.88671875 C22.07847462 37.279088 16.59337427 37.84899773 10.50390625 38.19921875 C9.21129883 38.26496094 9.21129883 38.26496094 7.89257812 38.33203125 C0.40188032 38.72714498 -7.07796765 39.2736403 -14.55859375 39.82421875 C-14.70729494 35.07378772 -14.81596887 30.32472019 -14.88818359 25.57250977 C-14.91829462 23.95736079 -14.95919438 22.34237452 -15.01123047 20.7277832 C-15.08430909 18.40144712 -15.11810255 16.07727727 -15.14453125 13.75 C-15.17549896 13.03209793 -15.20646667 12.31419586 -15.2383728 11.57453918 C-15.24026263 8.73751364 -15.10848055 6.49945457 -13.27726746 4.25080872 C-8.88369181 0.46084667 -5.63491925 -0.20452147 0 0 Z " fill="#FBFBFA" transform="translate(14.55859375,39.17578125)"/>
<path d="M0 0 C1.23617065 -0.0009668 1.23617065 -0.0009668 2.49731445 -0.00195312 C10.47307202 0.0653593 18.25205384 0.97126556 26.125 2.1875 C25.34382813 2.81011719 24.56265625 3.43273437 23.7578125 4.07421875 C18.73302259 8.10747 16.41789659 11.22596887 14.125 17.1875 C14.785 17.1875 15.445 17.1875 16.125 17.1875 C18.28482864 21.50715727 18.05813901 24.52964047 17.1875 29.125 C15.9057879 35.69747739 15.9057879 35.69747739 17.125 42.1875 C19.586504 44.80964953 22.25014944 47.03299924 25.125 49.1875 C24.63 50.1775 24.63 50.1775 24.125 51.1875 C21.55828305 49.76154614 19.37154808 48.43615533 17.296875 46.34375 C11.47414861 40.56291373 5.11198977 35.68742306 -3.3125 35.4375 C-7.94747014 35.75296917 -10.66409555 36.64443302 -13.875 40.1875 C-14.205 40.1875 -14.535 40.1875 -14.875 40.1875 C-14.875 27.3175 -14.875 14.4475 -14.875 1.1875 C-9.71908921 0.32818154 -5.1720345 -0.00420619 0 0 Z " fill="#C5C3BF" transform="translate(14.875,4.8125)"/>
<path d="M0 0 C1.5 3 1.5 3 3 6 C4.145896 5.99476318 5.29179199 5.98952637 6.47241211 5.98413086 C10.70840682 5.96608283 14.94439812 5.95456872 19.18041992 5.94506836 C21.01668875 5.94002769 22.85295354 5.93319523 24.68920898 5.92456055 C27.32276401 5.91248328 29.95626616 5.90676919 32.58984375 5.90234375 C33.41588608 5.89718246 34.24192841 5.89202118 35.09300232 5.88670349 C37.06236368 5.88650795 39.03161614 5.93795848 41 6 C42.73956658 7.73956658 42.37190386 10.1936622 42.5625 12.5625 C42.64628906 13.57441406 42.73007813 14.58632813 42.81640625 15.62890625 C42.87699219 16.41136719 42.93757813 17.19382812 43 18 C40.08746154 19.94169231 39.21624711 20.28947175 35.9296875 20.59765625 C35.12490967 20.6764502 34.32013184 20.75524414 33.4909668 20.83642578 C32.62769775 20.91103027 31.76442871 20.98563477 30.875 21.0625 C29.97628174 21.14483887 29.07756348 21.22717773 28.15161133 21.31201172 C25.43531981 21.55425935 22.71821956 21.78053532 20 22 C19.26346191 22.06074707 18.52692383 22.12149414 17.76806641 22.18408203 C5.18910824 23.18241204 -7.38913701 23.1086711 -20 23 C-20.84584998 21.44424022 -21.67618399 19.8800388 -22.5 18.3125 C-22.9640625 17.44238281 -23.428125 16.57226562 -23.90625 15.67578125 C-25 13 -25 13 -25 8 C-17.41 8 -9.82 8 -2 8 C-1.67 5.69 -1.34 3.38 -1 1 C-0.67 0.67 -0.34 0.34 0 0 Z " fill="#F3720F" transform="translate(66,36)"/>
<path d="M0 0 C0.89734863 -0.02723145 1.79469727 -0.05446289 2.71923828 -0.08251953 C3.51644287 -0.11337646 4.31364746 -0.1442334 5.13500977 -0.17602539 C5.78284424 -0.07427002 6.43067871 0.02748535 7.09814453 0.13232422 C9.13221601 3.18343144 9.48304494 4.47444878 9.84814453 8.00732422 C9.99509766 9.27189453 9.99509766 9.27189453 10.14501953 10.56201172 C10.09146723 13.49846269 9.24075306 15.45150275 8.09814453 18.13232422 C-1.7912969 19.3565998 -11.64566774 19.24677251 -21.58935547 19.19482422 C-23.27359893 19.18979759 -24.95784384 19.18523675 -26.64208984 19.18115234 C-30.728715 19.17024249 -34.81526875 19.15304243 -38.90185547 19.13232422 C-40.65194572 15.13306855 -40.83172727 13.36840687 -39.90185547 9.13232422 C-40.28519208 5.9112083 -40.28519208 5.9112083 -40.90185547 3.13232422 C-32.77358044 0.42289921 -23.34221803 0.90166978 -14.83935547 0.56982422 C-13.82808594 0.52664062 -12.81681641 0.48345703 -11.77490234 0.43896484 C-7.85014763 0.27975071 -3.92389674 0.17892916 0 0 Z " fill="#F6BE23" transform="translate(94.90185546875,96.86767578125)"/>
<path d="M0 0 C42.24 0 84.48 0 128 0 C128 1.32 128 2.64 128 4 C126.8761792 4.01458252 125.7523584 4.02916504 124.59448242 4.04418945 C120.37656753 4.10269363 116.1591578 4.17991752 111.94165039 4.26245117 C110.1253283 4.29545765 108.30890961 4.32356296 106.49243164 4.34643555 C93.49453867 4.51219331 93.49453867 4.51219331 80.8737793 7.33422852 C74.79011885 8.74363656 68.4553281 8.40072527 62.2409668 8.33618164 C59.83412625 8.31271089 57.42840976 8.31562549 55.02148438 8.32226562 C46.12502204 8.3049336 37.55937743 7.66936347 28.75268555 6.44311523 C22.99243561 5.7629478 17.29176882 5.78329111 11.5 5.875 C9.81970703 5.88853516 9.81970703 5.88853516 8.10546875 5.90234375 C5.40339745 5.92543838 2.70183141 5.95798588 0 6 C0 4.02 0 2.04 0 0 Z " fill="#323130" transform="translate(0,0)"/>
<path d="M0 0 C0.66 0 1.32 0 2 0 C2.66 2.97 3.32 5.94 4 9 C11.47312572 10.25962119 18.76107237 9.93527951 26.3125 9.625 C27.58673828 9.58117187 28.86097656 9.53734375 30.17382812 9.4921875 C36.69102513 9.368853 36.69102513 9.368853 43 8 C43 9.65 43 11.3 43 13 C43.66 13 44.32 13 45 13 C45 13.66 45 14.32 45 15 C49.41522109 13.73025028 49.41522109 13.73025028 53 11 C53.495 11.99 53.495 11.99 54 13 C55.25167969 12.98839844 56.50335938 12.97679688 57.79296875 12.96484375 C73.54949498 12.86867575 89.25782713 13.37523148 105 14 C104.67 14.66 104.34 15.32 104 16 C91.79 16.33 79.58 16.66 67 17 C67 17.99 67 18.98 67 20 C44.89 20 22.78 20 0 20 C0 13.4 0 6.8 0 0 Z " fill="#EFECE5" transform="translate(0,108)"/>
<path d="M0 0 C1.28148926 0.00424484 1.28148926 0.00424484 2.58886719 0.00857544 C5.28856053 0.01967371 7.98790877 0.04475823 10.6875 0.0703125 C12.52994309 0.08035571 14.37239143 0.0894792 16.21484375 0.09765625 C20.70585994 0.119579 25.19662168 0.15403604 29.6875 0.1953125 C29.6875 1.1853125 29.6875 2.1753125 29.6875 3.1953125 C28.5322583 3.17960205 27.3770166 3.1638916 26.18676758 3.14770508 C21.89110313 3.09330881 17.595469 3.05892717 13.29956055 3.03051758 C11.44208655 3.01545304 9.58464799 2.99499741 7.72729492 2.96899414 C5.05378461 2.93250791 2.38074556 2.9155628 -0.29296875 2.90234375 C-1.12023972 2.88685989 -1.94751068 2.87137604 -2.79985046 2.85542297 C-7.4681891 2.85406755 -10.53522882 3.14369972 -14.3125 6.1953125 C-15.66528115 8.18220981 -16.99818305 10.18276468 -18.3125 12.1953125 C-25.02629524 18.90910774 -35.39322032 17.46941945 -44.30664062 17.71289062 C-49.33149139 17.89517474 -53.60241062 18.23343716 -58.3125 20.1953125 C-58.3125 23.4953125 -58.3125 26.7953125 -58.3125 30.1953125 C-57.6525 30.1953125 -56.9925 30.1953125 -56.3125 30.1953125 C-56.126875 30.8346875 -55.94125 31.4740625 -55.75 32.1328125 C-54.41366854 34.53695274 -54.41366854 34.53695274 -51.1875 34.9453125 C-47.2020005 35.2024415 -43.30438006 35.26534548 -39.3125 35.1953125 C-39.14814453 34.29039063 -39.14814453 34.29039063 -38.98046875 33.3671875 C-37.40564587 25.42905591 -37.40564587 25.42905591 -34.3125 22.1953125 C-31.5625 22.0703125 -31.5625 22.0703125 -28.3125 23.1953125 C-26.9925 26.4953125 -25.6725 29.7953125 -24.3125 33.1953125 C-13.0925 33.1953125 -1.8725 33.1953125 9.6875 33.1953125 C10.0175 32.2053125 10.3475 31.2153125 10.6875 30.1953125 C12.625 30.5078125 12.625 30.5078125 14.6875 31.1953125 C16.12544141 35.50913673 15.99247163 39.67529973 16.0625 44.1953125 C16.11857422 45.56816406 16.11857422 45.56816406 16.17578125 46.96875 C16.18738281 47.84789062 16.19898437 48.72703125 16.2109375 49.6328125 C16.2406665 50.83744141 16.2406665 50.83744141 16.27099609 52.06640625 C15.6875 54.1953125 15.6875 54.1953125 13.75830078 55.92333984 C9.52305716 57.67764254 5.57832691 57.87081652 1.03125 58.109375 C0.09253052 58.16934662 -0.84618896 58.22931824 -1.81335449 58.29110718 C-4.81245304 58.48000401 -7.81226188 58.65057868 -10.8125 58.8203125 C-12.79955527 58.94146651 -14.78653597 59.06385022 -16.7734375 59.1875 C-20.58043589 59.4235358 -24.38771657 59.65370986 -28.1953125 59.87988281 C-34.24048966 60.24470691 -40.27701673 60.69426976 -46.3125 61.1953125 C-46.3125 62.8453125 -46.3125 64.4953125 -46.3125 66.1953125 C-47.09625 65.8446875 -47.88 65.4940625 -48.6875 65.1328125 C-49.986875 64.66875 -49.986875 64.66875 -51.3125 64.1953125 C-52.3025 64.6903125 -52.3025 64.6903125 -53.3125 65.1953125 C-53.580625 64.0815625 -53.84875 62.9678125 -54.125 61.8203125 C-54.97059019 57.97690299 -54.97059019 57.97690299 -58.3125 56.1953125 C-57.9825 54.8753125 -57.6525 53.5553125 -57.3125 52.1953125 C-56.77512207 53.18982422 -56.23774414 54.18433594 -55.68408203 55.20898438 C-53.65662478 57.61395351 -52.63699626 58.15009541 -49.47943115 58.59008789 C-45.75716047 58.53602011 -42.07379376 58.29390933 -38.3671875 57.9765625 C-36.99163695 57.88060345 -35.61590768 57.78717585 -34.24002075 57.69616699 C-31.36185666 57.49943841 -28.48624682 57.28238081 -25.61083984 57.04882812 C-21.92595697 56.74971792 -18.23968027 56.485806 -14.55122185 56.23505402 C-11.0306514 55.99425385 -7.51141676 55.73611489 -3.9921875 55.4765625 C-2.98576517 55.40448326 -2.98576517 55.40448326 -1.95901108 55.33094788 C-0.06032841 55.19177539 1.83731149 55.0385904 3.73486328 54.88476562 C4.81454376 54.80005005 5.89422424 54.71533447 7.00662231 54.62805176 C9.90416323 54.35060782 9.90416323 54.35060782 12.6875 52.1953125 C12.96363568 49.43989409 13.06007625 46.94440148 13 44.1953125 C13.00483398 43.08929688 13.00483398 43.08929688 13.00976562 41.9609375 C13.10668962 37.61054961 13.10668962 37.61054961 10.6875 34.1953125 C10.01549561 34.51983398 9.34349121 34.84435547 8.65112305 35.17871094 C5.05310047 36.41292842 2.07234867 36.45434724 -1.73046875 36.4609375 C-2.4289241 36.46285095 -3.12737946 36.4647644 -3.84700012 36.46673584 C-5.3152401 36.46809096 -6.78349233 36.46444173 -8.25170898 36.45605469 C-10.50336339 36.44529643 -12.7542288 36.45599705 -15.00585938 36.46875 C-16.4348976 36.46742923 -17.86393533 36.46486856 -19.29296875 36.4609375 C-20.59129639 36.45868164 -21.88962402 36.45642578 -23.22729492 36.45410156 C-26.3125 36.1953125 -26.3125 36.1953125 -28.3125 34.1953125 C-28.9453125 32.03125 -28.9453125 32.03125 -29.4375 29.5703125 C-29.60507813 28.75304687 -29.77265625 27.93578125 -29.9453125 27.09375 C-30.06648438 26.46726562 -30.18765625 25.84078125 -30.3125 25.1953125 C-31.6325 25.5253125 -32.9525 25.8553125 -34.3125 26.1953125 C-34.47685547 27.11763672 -34.47685547 27.11763672 -34.64453125 28.05859375 C-34.88236328 29.27095703 -34.88236328 29.27095703 -35.125 30.5078125 C-35.27582031 31.30832031 -35.42664063 32.10882813 -35.58203125 32.93359375 C-36.42558489 35.54545235 -37.09087589 36.59218063 -39.3125 38.1953125 C-44.30735032 39.52356091 -49.55564194 40.07672993 -54.25 37.6328125 C-58.70790286 34.08468574 -60.79678428 31.06478198 -62.3125 25.5703125 C-62.3125 22.1953125 -62.3125 22.1953125 -60.625 19.8828125 C-56.3553465 16.76711941 -53.36105194 15.93291633 -48.04296875 15.703125 C-46.21475586 15.60451172 -46.21475586 15.60451172 -44.34960938 15.50390625 C-41.79525677 15.38208527 -39.24055165 15.26743244 -36.68554688 15.16015625 C-29.82426674 14.77676369 -24.83982054 14.44345314 -19.3125 10.1953125 C-17.37555417 7.61327529 -17.37555417 7.61327529 -16.3125 5.1953125 C-16.9725 5.1953125 -17.6325 5.1953125 -18.3125 5.1953125 C-17.9825 4.2053125 -17.6525 3.2153125 -17.3125 2.1953125 C-11.48469197 0.22736442 -6.10720033 -0.0776583 0 0 Z " fill="#ECDAB1" transform="translate(98.3125,3.8046875)"/>
<path d="M0 0 C0.98820992 0.00424484 0.98820992 0.00424484 1.99638367 0.00857544 C4.08501937 0.01970326 6.17321431 0.04479302 8.26171875 0.0703125 C9.68423857 0.08035191 11.10676515 0.08947608 12.52929688 0.09765625 C16.00274556 0.11961803 19.47593908 0.15409604 22.94921875 0.1953125 C24.57921428 6.17614225 25.21212787 10.09125174 23.94921875 16.1953125 C20.50817671 19.63635454 15.55030812 18.53358385 10.90039062 18.56640625 C10.18036865 18.56624512 9.46034668 18.56608398 8.71850586 18.56591797 C6.52313596 18.57028976 4.32977934 18.606597 2.13476562 18.64453125 C0.7408923 18.65039977 -0.65299059 18.65436893 -2.046875 18.65625 C-3.31716553 18.66446777 -4.58745605 18.67268555 -5.89624023 18.68115234 C-9.05078125 18.1953125 -9.05078125 18.1953125 -10.97021484 16.35498047 C-12.42913969 13.43910853 -12.34397907 11.18671222 -12.23828125 7.9453125 C-12.19767578 6.32882813 -12.19767578 6.32882813 -12.15625 4.6796875 C-12.12144531 3.85984375 -12.08664062 3.04 -12.05078125 2.1953125 C-7.90708344 0.20771305 -4.571711 -0.03890818 0 0 Z " fill="#F5D561" transform="translate(16.05078125,98.8046875)"/>
<path d="M0 0 C1.23617065 -0.0009668 1.23617065 -0.0009668 2.49731445 -0.00195312 C10.47307202 0.0653593 18.25205384 0.97126556 26.125 2.1875 C25.34382813 2.80753906 24.56265625 3.42757813 23.7578125 4.06640625 C20.41744337 6.75753449 17.72493006 9.06589163 15.6875 12.875 C14.125 15.1875 14.125 15.1875 11.6875 16.0625 C9.125 16.1875 9.125 16.1875 7.2734375 15.59375 C2.96600203 14.77925311 -1.11121086 17.23839491 -4.875 19.1875 C-7.79386589 21.60386938 -7.79386589 21.60386938 -9.875 24.1875 C-11.5625 26 -11.5625 26 -12.875 27.1875 C-13.535 27.1875 -14.195 27.1875 -14.875 27.1875 C-14.875 18.6075 -14.875 10.0275 -14.875 1.1875 C-9.71908921 0.32818154 -5.1720345 -0.00420619 0 0 Z " fill="#A09D9B" transform="translate(14.875,4.8125)"/>
<path d="M0 0 C7.12870552 3.43313316 13.50214763 8.35488373 19 14 C19.99 14.66 20.98 15.32 22 16 C26.01440167 24.02880334 26.14067241 31.21578968 26 40 C25.443125 39.690625 24.88625 39.38125 24.3125 39.0625 C18.63772793 36.45517229 13.15114398 37.02386775 7.0625 37.375 C5.67091675 37.44835571 5.67091675 37.44835571 4.2512207 37.52319336 C-3.17237646 37.92465985 -10.58855819 38.41455838 -18 39 C-18 38.01 -18 37.02 -18 36 C-12.6437734 35.54658495 -7.28696155 35.10122041 -1.92944336 34.66333008 C-0.10666821 34.51320391 1.7159267 34.36087258 3.53833008 34.20629883 C6.15662178 33.98460302 8.77545749 33.77082451 11.39453125 33.55859375 C12.21025101 33.48781113 13.02597076 33.4170285 13.8664093 33.34410095 C17.25409667 33.07623584 19.74128917 32.91376306 23 34 C23.33 30.7 23.66 27.4 24 24 C22.35 24.66 20.7 25.32 19 26 C17.82428549 22.32589215 17.92633254 18.83070817 18 15 C17.21625 14.71125 16.4325 14.4225 15.625 14.125 C13 13 13 13 11 11 C8.42938689 10.35232207 8.42938689 10.35232207 6 10 C5.67 10.99 5.34 11.98 5 13 C1.56237713 13.42093341 -0.98947058 13.70387182 -3.91796875 11.6640625 C-5.11435731 10.57736415 -6.28434272 9.46066342 -7.421875 8.3125 C-9.04232374 6.68028233 -9.04232374 6.68028233 -12 7 C-13.35827971 8.64639965 -14.69254251 10.31295807 -16 12 C-16.66 12 -17.32 12 -18 12 C-18.51972221 7.58236118 -18.49909217 5.65159255 -15.75 2.0625 C-10.85936788 -1.31192216 -5.63202293 -1.34887269 0 0 Z " fill="#EFECE6" transform="translate(18,40)"/>
<path d="M0 0 C2 1 2 1 2.59765625 2.6796875 C4.08382047 9.69837905 4.67803904 16.68333828 5.2109375 23.828125 C5.63412711 29.05232779 6.31131199 34.00581389 7.60986328 39.08837891 C8.2052151 42.00552833 7.93537603 44.1938719 7 47 C4.78303956 49.12166123 3.49589068 49.94364879 0.421875 50.29296875 C-0.45984375 50.25816406 -1.3415625 50.22335938 -2.25 50.1875 C-3.58804688 50.14689453 -3.58804688 50.14689453 -4.953125 50.10546875 C-5.62859375 50.07066406 -6.3040625 50.03585938 -7 50 C-7.6875 48.375 -7.6875 48.375 -8 46 C-7.32130859 44.78183594 -7.32130859 44.78183594 -6.62890625 43.5390625 C-4.21385351 38.29196949 -4.24569506 33.09120724 -3.9375 27.375 C-2.64517717 5.29035433 -2.64517717 5.29035433 0 0 Z " fill="#EFECE6" transform="translate(117,67)"/>
<path d="M0 0 C11.22 0 22.44 0 34 0 C32 7 32 7 30.2487793 8.40014648 C27.47925653 9.13890638 24.88250693 9.41561227 22.01953125 9.59765625 C20.85486328 9.67693359 19.69019531 9.75621094 18.49023438 9.83789062 C16.66975586 9.94907227 16.66975586 9.94907227 14.8125 10.0625 C12.42307708 10.21852816 10.03375119 10.37605024 7.64453125 10.53515625 C6.51096191 10.61008301 5.37739258 10.68500977 4.20947266 10.76220703 C0.12256187 11.06501025 -3.93209702 11.50625882 -8 12 C-7.52354792 7.71193127 -6.34097516 5.73352513 -3 3 C-2.34 3 -1.68 3 -1 3 C-0.67 2.01 -0.34 1.02 0 0 Z " fill="#E67011" transform="translate(44,7)"/>
<path d="M0 0 C2.84073954 0.57879556 5.6802268 1.06767778 8.546875 1.5 C9.2702002 1.61553223 9.99352539 1.73106445 10.73876953 1.85009766 C12.75372372 2.16951343 14.77134264 2.47198533 16.7890625 2.7734375 C20.79815656 4.02510302 21.98459596 5.23938389 24.1171875 8.8125 C26.38866497 15.61621788 26.30633086 23.07379294 26.3671875 30.1875 C26.38120605 31.32868286 26.38120605 31.32868286 26.39550781 32.49291992 C26.36997473 36.95384419 25.94294392 40.65954701 24.1171875 44.8125 C21.81658389 45.96280181 20.32583581 46.00832041 17.76269531 46.12548828 C16.86125793 46.16868195 15.95982056 46.21187561 15.03106689 46.25637817 C13.56549347 46.31896317 13.56549347 46.31896317 12.0703125 46.3828125 C11.06635437 46.42816132 10.06239624 46.47351013 9.02801514 46.52023315 C6.89963765 46.61491995 4.77115328 46.70722922 2.64257812 46.79736328 C-0.60587946 46.93634768 -3.85366487 47.08683766 -7.1015625 47.23828125 C-9.16924019 47.32882756 -11.23694781 47.41869327 -13.3046875 47.5078125 C-14.27363953 47.55358429 -15.24259155 47.59935608 -16.24090576 47.64651489 C-20.94644116 47.8364223 -25.24850687 47.8409482 -29.8828125 46.8125 C-29.8828125 46.1525 -29.8828125 45.4925 -29.8828125 44.8125 C-28.69244385 44.82035522 -28.69244385 44.82035522 -27.47802734 44.82836914 C-10.91521528 44.92276116 5.57520493 44.77544285 22.1171875 43.8125 C22.20806641 42.74708984 22.20806641 42.74708984 22.30078125 41.66015625 C22.38457031 40.74105469 22.46835938 39.82195312 22.5546875 38.875 C22.63589844 37.95847656 22.71710938 37.04195312 22.80078125 36.09765625 C23.1171875 33.8125 23.1171875 33.8125 24.1171875 32.8125 C24.36963456 19.44715569 24.36963456 19.44715569 19.1171875 7.8125 C15.81502029 7.00394465 12.45823548 6.43837125 9.1171875 5.8125 C8.34632812 5.6578125 7.57546875 5.503125 6.78125 5.34375 C-3.36277599 3.37403622 -13.64228634 2.16489448 -23.8828125 0.8125 C-24.3365625 1.6375 -24.7903125 2.4625 -25.2578125 3.3125 C-25.7940625 4.1375 -26.3303125 4.9625 -26.8828125 5.8125 C-27.5428125 5.8125 -28.2028125 5.8125 -28.8828125 5.8125 C-28.8828125 3.1725 -28.8828125 0.5325 -28.8828125 -2.1875 C-20.1582039 -5.09570287 -8.84295894 -1.80311031 0 0 Z " fill="#F0EDE7" transform="translate(82.8828125,72.1875)"/>
<path d="M0 0 C1.39120471 0.00015906 2.78241534 0.00585033 4.17358398 0.01586914 C4.90463852 0.01728409 5.63569305 0.01869904 6.38890076 0.02015686 C8.73253406 0.02577131 11.07607313 0.03832617 13.41967773 0.05102539 C15.00496282 0.05603853 16.59024939 0.06060176 18.17553711 0.06469727 C22.06945383 0.07574542 25.96329979 0.09301967 29.85717773 0.11352539 C30.48217773 3.48852539 30.48217773 3.48852539 30.85717773 7.11352539 C27.4161357 10.55456743 22.4582671 9.45179674 17.80834961 9.48461914 C17.08832764 9.48445801 16.36830566 9.48429687 15.62646484 9.48413086 C13.43109495 9.48850265 11.23773832 9.52480989 9.04272461 9.56274414 C7.64885128 9.56861266 6.2549684 9.57258182 4.86108398 9.57446289 C3.59079346 9.58268066 2.32050293 9.59089844 1.01171875 9.59936523 C-2.14282227 9.11352539 -2.14282227 9.11352539 -4.09619141 7.22143555 C-5.14282227 5.11352539 -5.14282227 5.11352539 -4.89282227 2.92602539 C-3.63893595 -0.10419988 -3.53012227 0.12751549 0 0 Z " fill="#4C220A" transform="translate(9.142822265625,107.886474609375)"/>
<path d="M0 0 C1.4783226 2.95664519 1.06032783 5.74229737 1 9 C0.34 8.34 -0.32 7.68 -1 7 C-3.45947216 6.88288228 -5.79365722 6.88630917 -8.24609375 6.98828125 C-8.97184097 7.01093552 -9.6975882 7.03358978 -10.44532776 7.05693054 C-11.98804757 7.10696888 -13.53061375 7.16194656 -15.07299805 7.22143555 C-17.39674707 7.31093048 -19.72058909 7.38641863 -22.04492188 7.45898438 C-36.16159872 7.65416838 -36.16159872 7.65416838 -50 10 C-50 8.35 -50 6.7 -50 5 C-39.73543538 2.45459023 -29.89598704 1.34279658 -19.375 0.8125 C-17.93093401 0.73079413 -16.4869227 0.64811569 -15.04296875 0.56445312 C-10.02599233 0.28040282 -5.02655373 0 0 0 Z " fill="#F7DB61" transform="translate(103,91)"/>
<path d="M0 0 C5 2 5 2 7 4 C9.88250077 4.26217075 9.88250077 4.26217075 13.25 4.16015625 C14.4978125 4.14919922 15.745625 4.13824219 17.03125 4.12695312 C18.3409375 4.10568359 19.650625 4.08441406 21 4.0625 C23.58327888 4.02817494 26.16661749 3.99800969 28.75 3.97265625 C29.89984375 3.95468994 31.0496875 3.93672363 32.234375 3.91821289 C35 4 35 4 37 5 C37 5.99 37 6.98 37 8 C37.66 8 38.32 8 39 8 C39 8.66 39 9.32 39 10 C31.04114769 11.23320758 23.03615621 11.33912148 15 11.5625 C13.54295843 11.60577365 12.08592701 11.6493905 10.62890625 11.69335938 C7.08604588 11.79953302 3.54307037 11.90105111 0 12 C0 8.04 0 4.08 0 0 Z " fill="#FAFAF9" transform="translate(0,116)"/>
<path d="M0 0 C1.28148926 0.00424484 1.28148926 0.00424484 2.58886719 0.00857544 C5.28856053 0.01967371 7.98790877 0.04475823 10.6875 0.0703125 C12.52994309 0.08035571 14.37239143 0.0894792 16.21484375 0.09765625 C20.70585994 0.119579 25.19662168 0.15403604 29.6875 0.1953125 C29.6875 1.1853125 29.6875 2.1753125 29.6875 3.1953125 C28.5322583 3.17960205 27.3770166 3.1638916 26.18676758 3.14770508 C21.89110313 3.09330881 17.595469 3.05892717 13.29956055 3.03051758 C11.44208655 3.01545304 9.58464799 2.99499741 7.72729492 2.96899414 C5.05378461 2.93250791 2.38074556 2.9155628 -0.29296875 2.90234375 C-1.12023972 2.88685989 -1.94751068 2.87137604 -2.79985046 2.85542297 C-7.4681891 2.85406755 -10.53522882 3.14369972 -14.3125 6.1953125 C-15.66528115 8.18220981 -16.99818305 10.18276468 -18.3125 12.1953125 C-25.02629524 18.90910774 -35.39322032 17.46941945 -44.30664062 17.71289062 C-49.33149139 17.89517474 -53.60241062 18.23343716 -58.3125 20.1953125 C-58.3125 23.4953125 -58.3125 26.7953125 -58.3125 30.1953125 C-57.6525 30.1953125 -56.9925 30.1953125 -56.3125 30.1953125 C-55.29383771 31.85063873 -54.29439187 33.51791388 -53.3125 35.1953125 C-50.42834117 36.63739191 -47.89528472 36.28926137 -44.6875 36.2578125 C-42.90472656 36.24427734 -42.90472656 36.24427734 -41.0859375 36.23046875 C-40.17070313 36.21886719 -39.25546875 36.20726562 -38.3125 36.1953125 C-38.6425 36.8553125 -38.9725 37.5153125 -39.3125 38.1953125 C-44.31534467 39.42438507 -49.56804425 40.09109428 -54.25 37.6328125 C-58.70790286 34.08468574 -60.79678428 31.06478198 -62.3125 25.5703125 C-62.3125 22.1953125 -62.3125 22.1953125 -60.625 19.8828125 C-56.3553465 16.76711941 -53.36105194 15.93291633 -48.04296875 15.703125 C-46.21475586 15.60451172 -46.21475586 15.60451172 -44.34960938 15.50390625 C-41.79525677 15.38208527 -39.24055165 15.26743244 -36.68554688 15.16015625 C-29.82426674 14.77676369 -24.83982054 14.44345314 -19.3125 10.1953125 C-17.37555417 7.61327529 -17.37555417 7.61327529 -16.3125 5.1953125 C-16.9725 5.1953125 -17.6325 5.1953125 -18.3125 5.1953125 C-17.9825 4.2053125 -17.6525 3.2153125 -17.3125 2.1953125 C-11.48469197 0.22736442 -6.10720033 -0.0776583 0 0 Z " fill="#E9D9B4" transform="translate(98.3125,3.8046875)"/>
<path d="M0 0 C0 1.32 0 2.64 0 4 C-1.1238208 4.01458252 -2.2476416 4.02916504 -3.40551758 4.04418945 C-7.62343247 4.10269363 -11.8408422 4.17991752 -16.05834961 4.26245117 C-17.8746717 4.29545765 -19.69109039 4.32356296 -21.50756836 4.34643555 C-34.50546133 4.51219331 -34.50546133 4.51219331 -47.1262207 7.33422852 C-53.20988115 8.74363656 -59.5446719 8.40072527 -65.7590332 8.33618164 C-68.16587375 8.31271089 -70.57159024 8.31562549 -72.97851562 8.32226562 C-81.87497796 8.3049336 -90.44062257 7.66936347 -99.24731445 6.44311523 C-105.00756439 5.7629478 -110.70823118 5.78329111 -116.5 5.875 C-118.18029297 5.88853516 -118.18029297 5.88853516 -119.89453125 5.90234375 C-122.59660255 5.92543838 -125.29816859 5.95798588 -128 6 C-128 5.01 -128 4.02 -128 3 C-116.53659821 2.88480422 -105.11257067 2.95573917 -93.66015625 3.5078125 C-92.11054703 3.5813797 -92.11054703 3.5813797 -90.52963257 3.65643311 C-86.30529299 3.86056919 -82.08139099 4.07050389 -77.8581543 4.29638672 C-66.90246534 4.87383881 -56.52401029 5.30329791 -45.67163086 3.50732422 C-41.35515238 2.91089877 -37.1177193 2.74357707 -32.765625 2.65625 C-31.98481064 2.64044891 -31.20399628 2.62464783 -30.39952087 2.60836792 C-27.19419739 2.55157512 -23.98875924 2.50950502 -20.78320312 2.46826172 C-18.40213723 2.43463887 -16.02148163 2.38960494 -13.640625 2.34375 C-12.55325043 2.33583435 -12.55325043 2.33583435 -11.44390869 2.32775879 C-6.97581264 2.23858165 -4.19234465 0 0 0 Z " fill="#6C615A" transform="translate(128,0)"/>
<path d="M0 0 C0.66 0 1.32 0 2 0 C4.15982864 4.31965727 3.93313901 7.34214047 3.0625 11.9375 C1.7807879 18.50997739 1.7807879 18.50997739 3 25 C5.461504 27.62214953 8.12514944 29.84549924 11 32 C10.505 32.99 10.505 32.99 10 34 C7.43328305 32.57404614 5.24654808 31.24865533 3.171875 29.15625 C-2.65085139 23.37541373 -9.01301023 18.49992306 -17.4375 18.25 C-22.0412278 18.5637534 -24.85844699 19.4096537 -28 23 C-28.33 21.68 -28.66 20.36 -29 19 C-23.65880602 14.13357882 -23.65880602 14.13357882 -19.33203125 13.78515625 C-13.68476751 14.21356936 -9.03126642 15.42846383 -4 18 C-3.87882812 16.95199219 -3.75765625 15.90398438 -3.6328125 14.82421875 C-3.46396055 13.44526114 -3.29466659 12.06635761 -3.125 10.6875 C-3.04636719 9.99720703 -2.96773437 9.30691406 -2.88671875 8.59570312 C-2.44056153 5.04360529 -2.02019807 3.0302971 0 0 Z " fill="#E6DFC7" transform="translate(29,22)"/>
<path d="M0 0 C0.5625 1.9375 0.5625 1.9375 1 4 C-2.84599799 7.84599799 -16.50089504 6.0866328 -22.1484375 6.09765625 C-24.89070776 6.09483759 -27.63278745 6.07960655 -30.375 6.0625 C-31.8046859 6.05746589 -33.23437355 6.05290643 -34.6640625 6.04882812 C-38.10941245 6.03799465 -41.55469427 6.02083984 -45 6 C-45.5625 4.0625 -45.5625 4.0625 -46 2 C-44.1160576 0.1160576 -40.87473529 0.75720379 -38.359375 0.68359375 C-37.3423349 0.6524221 -37.3423349 0.6524221 -36.30474854 0.62062073 C-34.858831 0.57724734 -33.41284155 0.53621933 -31.96679688 0.49731445 C-29.80059766 0.43886525 -27.63470543 0.37345737 -25.46875 0.30664062 C-16.97729474 0.05441556 -8.49596077 -0.05795209 0 0 Z " fill="#4C220B" transform="translate(102,109)"/>
<path d="M0 0 C5.32022769 -0.02476651 10.64042162 -0.04289156 15.96069336 -0.05493164 C17.76961858 -0.05995238 19.57853976 -0.06677029 21.38745117 -0.07543945 C23.99138386 -0.08760402 26.59526277 -0.09325098 29.19921875 -0.09765625 C30.00461594 -0.10281754 30.81001312 -0.10797882 31.63981628 -0.11329651 C35.57016412 -0.11368691 39.16155747 0.04468761 43 1 C43.928125 1.185625 44.85625 1.37125 45.8125 1.5625 C46.534375 1.706875 47.25625 1.85125 48 2 C48.04254356 3.99954746 48.04080783 6.00041636 48 8 C44.1355731 11.8644269 32.40717339 10.08861587 27.05078125 10.09765625 C23.80462006 10.09479788 20.55861344 10.0794585 17.3125 10.0625 C15.62825654 10.05747338 13.94401163 10.05291253 12.25976562 10.04882812 C8.17314047 10.03791827 4.08658672 10.02071821 0 10 C-1.60339848 6.88228073 -2.18974141 5.60988311 -1.125 2.1875 C-0.75375 1.465625 -0.3825 0.74375 0 0 Z M16.4375 3.5 C14.93685319 3.5483086 13.43620217 3.59648675 11.93554688 3.64453125 C8.29031486 3.76151668 4.64514295 3.88026787 1 4 C0.40929986 5.94603274 0.40929986 5.94603274 0 8 C1.85455608 9.85455608 4.9082022 9.13049133 7.38671875 9.1328125 C8.04017776 9.13376923 8.69363678 9.13472595 9.36689758 9.13571167 C10.76160782 9.13639452 12.15632119 9.13453296 13.55102539 9.13037109 C15.63370455 9.12513524 17.71615676 9.13025314 19.79882812 9.13671875 C28.57853185 9.14064615 37.24783245 8.75374234 46 8 C46.33 6.68 46.66 5.36 47 4 C37.35224692 1.51025727 26.34584753 3.17406032 16.4375 3.5 Z " fill="#A5652A" transform="translate(56,106)"/>
<path d="M0 0 C2.09977477 0.2129589 4.19901467 0.43821356 6.29003906 0.72460938 C9.23549157 1.02393104 12.06458209 1.00611954 15.0234375 0.921875 C16.58384766 0.88320312 16.58384766 0.88320312 18.17578125 0.84375 C20.33252027 0.78054886 22.4888594 0.70209207 24.64453125 0.609375 C27.50840282 0.55216908 30.17266261 0.53822015 33 1 C35.70830418 3.84252103 35.93287447 5.3153196 36.3125 9.1875 C36 12 36 12 34 14 C33.505 10.04 33.505 10.04 33 6 C28.80039396 6.09374801 24.60133688 6.19988805 20.40234375 6.31738281 C18.97469602 6.35560024 17.54695437 6.39046572 16.11914062 6.421875 C14.06346132 6.46768401 12.00842446 6.5256498 9.953125 6.5859375 C8.71723633 6.6173584 7.48134766 6.6487793 6.20800781 6.68115234 C3.23321983 6.97682001 1.50650816 7.44027331 -1 9 C-1.625 5.625 -1.625 5.625 -2 2 C-1.34 1.34 -0.68 0.68 0 0 Z " fill="#F1D7A2" transform="translate(6,93)"/>
<path d="M0 0 C0.66 0 1.32 0 2 0 C3.17571451 3.67410785 3.07366746 7.16929183 3 11 C3.66 11 4.32 11 5 11 C6.18538537 14.70432927 6.35140565 18.1345378 6 22 C4.4375 24 4.4375 24 2 25 C-1.75 24.6875 -1.75 24.6875 -5 24 C-5 23.01 -5 22.02 -5 21 C-4.34 21 -3.68 21 -3 21 C-2.86722656 19.73542969 -2.73445313 18.47085938 -2.59765625 17.16796875 C-2.41944537 15.50779375 -2.24105037 13.84763852 -2.0625 12.1875 C-1.97548828 11.35412109 -1.88847656 10.52074219 -1.79882812 9.66210938 C-1.71181641 8.85966797 -1.62480469 8.05722656 -1.53515625 7.23046875 C-1.456604 6.49207764 -1.37805176 5.75368652 -1.29711914 4.99291992 C-1 3 -1 3 0 0 Z " fill="#F0D7A3" transform="translate(117,91)"/>
<path d="M0 0 C0 0.66 0 1.32 0 2 C-0.78375 2.598125 -1.5675 3.19625 -2.375 3.8125 C-5.14928773 6.12440644 -5.96266367 7.60508111 -7 11 C-5.79988281 10.690625 -4.59976563 10.38125 -3.36328125 10.0625 C4.14825448 8.39163558 11.8294284 8.2284502 19.49023438 7.7890625 C20.65490234 7.71429687 21.81957031 7.63953125 23.01953125 7.5625 C24.07245361 7.50191406 25.12537598 7.44132813 26.21020508 7.37890625 C28.91675152 7.0113067 30.66926924 6.3828326 33 5 C33 3.68 33 2.36 33 1 C36.75 -0.125 36.75 -0.125 39 1 C37.92598892 3.91517292 37.22189824 5.77810176 35 8 C26.74899253 10.68453832 18.16141092 10.71934795 9.55859375 11.2109375 C7.80482422 11.32308594 7.80482422 11.32308594 6.015625 11.4375 C4.95633789 11.49808594 3.89705078 11.55867188 2.80566406 11.62109375 C0.06109054 11.99174969 -1.60021186 12.69221355 -4 14 C-6.6875 14.1875 -6.6875 14.1875 -9 14 C-9.33 13.67 -9.66 13.34 -10 13 C-9.633965 8.24154499 -8.84288577 4.86632464 -6 1 C-4 0 -4 0 0 0 Z " fill="#E98F47" transform="translate(43,8)"/>
<path d="M0 0 C2.375 -0.1875 2.375 -0.1875 5 0 C7.19164944 3.28747416 7.28679386 4.48494825 7.4140625 8.32421875 C7.47207031 9.86625977 7.47207031 9.86625977 7.53125 11.43945312 C7.5621875 12.51130859 7.593125 13.58316406 7.625 14.6875 C7.68300781 16.31268555 7.68300781 16.31268555 7.7421875 17.97070312 C7.83650509 20.64696467 7.92210005 23.32321843 8 26 C1.97133179 30.20179906 -4.67666268 30.12930715 -11.8125 30.5 C-12.54388184 30.54060547 -13.27526367 30.58121094 -14.02880859 30.62304688 C-16.3523928 30.75155823 -18.67617188 30.87598499 -21 31 C-24.0417389 31.16536104 -27.08338239 31.33242409 -30.125 31.5 C-30.86516357 31.5405249 -31.60532715 31.5810498 -32.36791992 31.62280273 C-39.58275486 32.02243986 -46.79144386 32.50029183 -54 33 C-54.33 34.32 -54.66 35.64 -55 37 C-55.495 34.525 -55.495 34.525 -56 32 C-52.82154431 30.41077216 -49.3352619 30.53434285 -45.8359375 30.28125 C-45.01106842 30.21844849 -44.18619934 30.15564697 -43.33633423 30.09094238 C-40.68283492 29.89003748 -38.02893384 29.69507136 -35.375 29.5 C-33.64059762 29.3688512 -31.90622225 29.23734459 -30.171875 29.10546875 C-28.45575242 28.97625329 -26.73960665 28.84734539 -25.0234375 28.71875 C-24.17827576 28.65526367 -23.33311401 28.59177734 -22.46234131 28.52636719 C-18.408818 28.22795069 -14.35734356 27.95699868 -10.29785156 27.75390625 C-9.56627838 27.71559692 -8.8347052 27.6772876 -8.08096313 27.63781738 C-6.11244745 27.53813125 -4.14338922 27.44932573 -2.17431641 27.36132812 C1.26431875 27.15382896 1.26431875 27.15382896 5 25 C5 17.41 5 9.82 5 2 C3.68 2 2.36 2 1 2 C0.67 2.66 0.34 3.32 0 4 C-0.66 4 -1.32 4 -2 4 C-1.34 2.68 -0.68 1.36 0 0 Z " fill="#EFECE6" transform="translate(108,33)"/>
<path d="M0 0 C1.39120471 0.00015906 2.78241534 0.00585033 4.17358398 0.01586914 C4.90463852 0.01728409 5.63569305 0.01869904 6.38890076 0.02015686 C8.73253406 0.02577131 11.07607313 0.03832617 13.41967773 0.05102539 C15.00496282 0.05603853 16.59024939 0.06060176 18.17553711 0.06469727 C22.06945383 0.07574542 25.96329979 0.09301967 29.85717773 0.11352539 C30.48217773 3.48852539 30.48217773 3.48852539 30.85717773 7.11352539 C27.4161357 10.55456743 22.4582671 9.45179674 17.80834961 9.48461914 C17.08832764 9.48445801 16.36830566 9.48429687 15.62646484 9.48413086 C13.43109495 9.48850265 11.23773832 9.52480989 9.04272461 9.56274414 C7.64885128 9.56861266 6.2549684 9.57258182 4.86108398 9.57446289 C3.59079346 9.58268066 2.32050293 9.59089844 1.01171875 9.59936523 C-2.14282227 9.11352539 -2.14282227 9.11352539 -4.09619141 7.22143555 C-5.14282227 5.11352539 -5.14282227 5.11352539 -4.89282227 2.92602539 C-3.63893595 -0.10419988 -3.53012227 0.12751549 0 0 Z M-3.14282227 3.11352539 C-2.81282227 4.43352539 -2.48282227 5.75352539 -2.14282227 7.11352539 C2.46542376 8.01513874 6.925996 8.26991262 11.60717773 8.23852539 C12.30584961 8.2365918 13.00452148 8.2346582 13.72436523 8.23266602 C19.14265653 8.1876802 24.48400787 7.83683672 29.85717773 7.11352539 C29.36217773 4.63852539 29.36217773 4.63852539 28.85717773 2.11352539 C24.83635985 2.0843076 20.8155696 2.06665351 16.79467773 2.05102539 C15.66094727 2.04264648 14.5272168 2.03426758 13.35913086 2.02563477 C7.74838906 2.00927692 2.38068442 2.09540442 -3.14282227 3.11352539 Z " fill="#8F6235" transform="translate(9.142822265625,107.886474609375)"/>
<path d="M0 0 C0.99 0.33 1.98 0.66 3 1 C3.984375 3.6171875 3.984375 3.6171875 4.75 6.875 C5.01296875 7.94492188 5.2759375 9.01484375 5.546875 10.1171875 C6 13 6 13 5 16 C4.34 16 3.68 16 3 16 C3.33 17.32 3.66 18.64 4 20 C3.34 20 2.68 20 2 20 C1.7525 20.804375 1.505 21.60875 1.25 22.4375 C0 25 0 25 -2.0625 25.875 C-2.701875 25.91625 -3.34125 25.9575 -4 26 C-4.33 25.67 -4.66 25.34 -5 25 C-4.52066815 18.64885294 -4.52066815 18.64885294 -2.4609375 16.08203125 C-0.64566004 13.49501819 -0.71340861 12.11776328 -0.875 9 C-1.02337971 5.75543025 -0.93911644 3.12075618 0 0 Z " fill="#EBAD7C" transform="translate(50,95)"/>
<path d="M0 0 C0.7425 0.804375 1.485 1.60875 2.25 2.4375 C5.25435863 5.24560364 5.25435863 5.24560364 9 6 C11.16968638 5.9095964 13.33679903 5.75295574 15.5 5.5625 C27.9704154 4.59166722 40.50217705 4.91438043 53 5 C53 5.33 53 5.66 53 6 C39.47 6.99 25.94 7.98 12 9 C12 10.65 12 12.3 12 14 C11.21625 13.649375 10.4325 13.29875 9.625 12.9375 C8.75875 12.628125 7.8925 12.31875 7 12 C6.01 12.495 6.01 12.495 5 13 C4.731875 11.88625 4.46375 10.7725 4.1875 9.625 C3.34190981 5.78159049 3.34190981 5.78159049 0 4 C0 2.68 0 1.36 0 0 Z " fill="#E8DDBE" transform="translate(40,56)"/>
<path d="M0 0 C1.0725 0.37125 2.145 0.7425 3.25 1.125 C4.57 4.425 5.89 7.725 7.25 11.125 C17.15 11.125 27.05 11.125 37.25 11.125 C37.25 11.455 37.25 11.785 37.25 12.125 C30.07362046 13.04673682 22.91366047 13.26086613 15.6875 13.3125 C14.34800293 13.33183594 14.34800293 13.33183594 12.98144531 13.3515625 C12.1406543 13.35285156 11.29986328 13.35414062 10.43359375 13.35546875 C9.29748657 13.36163208 9.29748657 13.36163208 8.13842773 13.36791992 C6.25 13.125 6.25 13.125 4.25 11.125 C4.25 10.135 4.25 9.145 4.25 8.125 C3.59 8.125 2.93 8.125 2.25 8.125 C1.92 6.475 1.59 4.825 1.25 3.125 C-0.07 3.455 -1.39 3.785 -2.75 4.125 C-2.84796875 4.75148438 -2.9459375 5.37796875 -3.046875 6.0234375 C-3.19640625 6.84070312 -3.3459375 7.65796875 -3.5 8.5 C-3.63921875 9.31210937 -3.7784375 10.12421875 -3.921875 10.9609375 C-4.75 13.125 -4.75 13.125 -6.4765625 14.3984375 C-9.20591397 15.27070446 -11.51122219 15.39043816 -14.375 15.375 C-15.33664063 15.38015625 -16.29828125 15.3853125 -17.2890625 15.390625 C-19.75 15.125 -19.75 15.125 -21.75 13.125 C-17.13 13.125 -12.51 13.125 -7.75 13.125 C-7.481875 11.7225 -7.21375 10.32 -6.9375 8.875 C-5.04498048 0.22931729 -5.04498048 0.22931729 0 0 Z " fill="#EDE8DB" transform="translate(66.75,25.875)"/>
<path d="M0 0 C1.94519531 0.00773438 1.94519531 0.00773438 3.9296875 0.015625 C4.60161133 0.0259375 5.27353516 0.03625 5.96582031 0.046875 C7.995633 0.07782021 10.0246629 0.08783444 12.0546875 0.09375 C18.86532632 0.14769565 25.51634331 0.40641693 32.265625 1.328125 C32.265625 2.978125 32.265625 4.628125 32.265625 6.328125 C30.80739288 6.3551293 29.34901825 6.37452287 27.890625 6.390625 C27.07851562 6.40222656 26.26640625 6.41382813 25.4296875 6.42578125 C23.265625 6.328125 23.265625 6.328125 21.265625 5.328125 C21.265625 4.338125 21.265625 3.348125 21.265625 2.328125 C17.0365888 2.24086841 12.80778488 2.1876461 8.578125 2.140625 C7.37994141 2.11548828 6.18175781 2.09035156 4.94726562 2.06445312 C3.21186523 2.04995117 3.21186523 2.04995117 1.44140625 2.03515625 C-0.15320435 2.01159058 -0.15320435 2.01159058 -1.7800293 1.98754883 C-6.65260812 2.54925839 -9.94955685 5.38437755 -13.734375 8.328125 C-12.82214719 5.25972236 -12.15116426 3.64584912 -9.57324219 1.68066406 C-6.15236037 0.05083217 -3.7803843 -0.03011017 0 0 Z " fill="#EEEAE1" transform="translate(95.734375,5.671875)"/>
<path d="M0 0 C1.28148926 0.00424484 1.28148926 0.00424484 2.58886719 0.00857544 C5.28856053 0.01967371 7.98790877 0.04475823 10.6875 0.0703125 C12.52994309 0.08035571 14.37239143 0.0894792 16.21484375 0.09765625 C20.70585994 0.119579 25.19662168 0.15403604 29.6875 0.1953125 C29.6875 1.1853125 29.6875 2.1753125 29.6875 3.1953125 C28.39537598 3.18483887 27.10325195 3.17436523 25.77197266 3.16357422 C20.98993691 3.12744531 16.20791327 3.10443799 11.42578125 3.08544922 C9.35382053 3.07537538 7.28187407 3.06171584 5.20996094 3.04443359 C2.23629236 3.02024586 -0.7371887 3.00884342 -3.7109375 3 C-4.64118744 2.98967743 -5.57143738 2.97935486 -6.52987671 2.96871948 C-7.39061798 2.96856842 -8.25135925 2.96841736 -9.13818359 2.96826172 C-10.27735733 2.96159988 -10.27735733 2.96159988 -11.43954468 2.95480347 C-13.55752299 3.03281095 -13.55752299 3.03281095 -15.3125 5.1953125 C-16.3025 5.1953125 -17.2925 5.1953125 -18.3125 5.1953125 C-17.9825 4.2053125 -17.6525 3.2153125 -17.3125 2.1953125 C-11.48469197 0.22736442 -6.10720033 -0.0776583 0 0 Z " fill="#AEABA8" transform="translate(98.3125,3.8046875)"/>
<path d="M0 0 C4.36743115 4.36743115 4.48137618 4.82407542 4.625 10.5625 C4.69849215 15.60599815 4.69849215 15.60599815 7 20 C10.17056629 20.4351818 10.17056629 20.4351818 13.90625 20.328125 C14.92700623 20.32531525 14.92700623 20.32531525 15.96838379 20.32244873 C17.40752052 20.31572456 18.84663886 20.30180264 20.28564453 20.28125 C22.49138324 20.2501216 24.69640727 20.24028244 26.90234375 20.234375 C33.6555775 20.58481663 33.6555775 20.58481663 40 19 C40 19.99 40 20.98 40 22 C35.67714665 22.19304243 31.35400519 22.37163516 27.0300293 22.53710938 C25.56046726 22.5953547 24.09105359 22.65748237 22.62182617 22.72363281 C20.50466948 22.81827036 18.38736452 22.89873495 16.26953125 22.9765625 C14.99698486 23.02893066 13.72443848 23.08129883 12.41333008 23.13525391 C9.06412979 23.00254116 6.93423431 22.5856308 4 21 C3.07421875 18.8359375 3.07421875 18.8359375 2.6875 16.375 C2.54699219 15.55773437 2.40648437 14.74046875 2.26171875 13.8984375 C2.17535156 13.27195312 2.08898437 12.64546875 2 12 C1.34 12 0.68 12 0 12 C0 8.04 0 4.08 0 0 Z " fill="#A19E9C" transform="translate(0,96)"/>
<path d="M0 0 C-0.14168137 1.43791516 -0.28851043 2.8753237 -0.4375 4.3125 C-0.51871094 5.11300781 -0.59992188 5.91351563 -0.68359375 6.73828125 C-1 9 -1 9 -2 12 C-4.30060361 13.15030181 -5.79135169 13.19582041 -8.35449219 13.31298828 C-9.25592957 13.35618195 -10.15736694 13.39937561 -11.08612061 13.44387817 C-12.06316956 13.4856015 -13.04021851 13.52732483 -14.046875 13.5703125 C-15.05083313 13.61566132 -16.05479126 13.66101013 -17.08917236 13.70773315 C-19.21754985 13.80241995 -21.34603422 13.89472922 -23.47460938 13.98486328 C-26.72306696 14.12384768 -29.97085237 14.27433766 -33.21875 14.42578125 C-35.28642769 14.51632756 -37.35413531 14.60619327 -39.421875 14.6953125 C-40.39082703 14.74108429 -41.35977905 14.78685608 -42.35809326 14.83401489 C-47.06362866 15.0239223 -51.36569437 15.0284482 -56 14 C-56 13.34 -56 12.68 -56 12 C-55.2064209 12.00523682 -54.4128418 12.01047363 -53.59521484 12.01586914 C-37.03240278 12.11026116 -20.54198257 11.96294285 -4 11 C-3.95101562 10.28972656 -3.90203125 9.57945313 -3.8515625 8.84765625 C-3.77679688 7.92855469 -3.70203125 7.00945312 -3.625 6.0625 C-3.55539063 5.14597656 -3.48578125 4.22945313 -3.4140625 3.28515625 C-3.27742188 2.53105469 -3.14078125 1.77695313 -3 1 C-1 0 -1 0 0 0 Z " fill="#ECE8DE" transform="translate(109,105)"/>
<path d="M0 0 C0.66 0 1.32 0 2 0 C2.66 2.97 3.32 5.94 4 9 C11.18082254 10.12866889 18.24205132 10.11434249 25.5 10.0625 C26.70398438 10.05798828 27.90796875 10.05347656 29.1484375 10.04882812 C32.09901073 10.0371195 35.04947859 10.02071995 38 10 C38 10.33 38 10.66 38 11 C37.30849854 11.02505615 36.61699707 11.0501123 35.90454102 11.07592773 C32.79032134 11.19152161 29.67643211 11.31441242 26.5625 11.4375 C24.92958008 11.49647461 24.92958008 11.49647461 23.26367188 11.55664062 C21.71196289 11.61948242 21.71196289 11.61948242 20.12890625 11.68359375 C19.17056885 11.72025146 18.21223145 11.75690918 17.22485352 11.79467773 C15.02861075 11.75834424 15.02861075 11.75834424 14 13 C8.71783121 13.63386025 5.43912868 12.84082623 1.3125 9.64453125 C-0.34678792 7.565483 -0.4375 6.32238303 -0.4375 3.6875 C-0.293125 2.470625 -0.14875 1.25375 0 0 Z " fill="#D3D1C9" transform="translate(0,108)"/>
<path d="M0 0 C0 0.66 0 1.32 0 2 C-3.35735137 3.11911712 -5.88205386 3.11365586 -9.41796875 3.09765625 C-10.67158203 3.09443359 -11.92519531 3.09121094 -13.21679688 3.08789062 C-14.52712891 3.07951172 -15.83746094 3.07113281 -17.1875 3.0625 C-18.52278481 3.05748317 -19.85807141 3.05292059 -21.19335938 3.04882812 C-24.46228473 3.03702695 -27.73111991 3.02056297 -31 3 C-31 2.34 -31 1.68 -31 1 C-20.64297197 -0.02472362 -10.39671302 -0.1050173 0 0 Z " fill="#F3B32C" transform="translate(38,105)"/>
<path d="M0 0 C0.99 0.99 1.98 1.98 3 3 C2.67 3.99 2.34 4.98 2 6 C-5.77449624 6.31732638 -13.32992235 5.11855299 -21 4 C-20.67 3.34 -20.34 2.68 -20 2 C-18.72382813 1.93941406 -17.44765625 1.87882812 -16.1328125 1.81640625 C-14.46352984 1.73200432 -12.79425963 1.64735614 -11.125 1.5625 C-10.28324219 1.52318359 -9.44148438 1.48386719 -8.57421875 1.44335938 C-7.76855469 1.40146484 -6.96289062 1.35957031 -6.1328125 1.31640625 C-5.01737061 1.26141968 -5.01737061 1.26141968 -3.87939453 1.20532227 C-1.91135688 1.10044135 -1.91135688 1.10044135 0 0 Z " fill="#C5C3BF" transform="translate(37,77)"/>
<path d="M0 0 C3.875 1.875 3.875 1.875 5 3 C5.13568319 6.66344611 5.16461426 9.50615721 4 13 C2.125 12.75 2.125 12.75 0 12 C-2.3418829 8.83845809 -2.33357036 5.83605912 -2 2 C-1.34 1.34 -0.68 0.68 0 0 Z " fill="#ECAF7F" transform="translate(47,67)"/>
<path d="M0 0 C0.66 0.33 1.32 0.66 2 1 C3.90100934 7.57139033 4.22272302 14.20694776 4 21 C3.67 21 3.34 21 3 21 C2.67 17.37 2.34 13.74 2 10 C1.34 10 0.68 10 0 10 C-0.66 15.61 -1.32 21.22 -2 27 C-2.33 27 -2.66 27 -3 27 C-2.22095672 7.99544419 -2.22095672 7.99544419 0 0 Z " fill="#E6DFC7" transform="translate(117,81)"/>
<path d="M0 0 C0.7425 0.804375 1.485 1.60875 2.25 2.4375 C6.72511018 6.60748903 10.84267479 6.13508528 16.75 6.0625 C17.44738281 6.05798828 18.14476563 6.05347656 18.86328125 6.04882812 C20.57555803 6.0371002 22.28779033 6.01916653 24 6 C24 6.33 24 6.66 24 7 C19.38 7.33 14.76 7.66 10 8 C10.66 9.98 11.32 11.96 12 14 C11.21625 13.649375 10.4325 13.29875 9.625 12.9375 C8.75875 12.628125 7.8925 12.31875 7 12 C6.01 12.495 6.01 12.495 5 13 C4.731875 11.88625 4.46375 10.7725 4.1875 9.625 C3.34190981 5.78159049 3.34190981 5.78159049 0 4 C0 2.68 0 1.36 0 0 Z " fill="#F0D7A4" transform="translate(40,56)"/>
<path d="M0 0 C1.28132813 0.00902344 2.56265625 0.01804687 3.8828125 0.02734375 C4.87023438 0.03894531 5.85765625 0.05054687 6.875 0.0625 C7.205 1.0525 7.535 2.0425 7.875 3.0625 C6.875 4.0625 6.875 4.0625 4.29296875 4.1953125 C3.22691406 4.19273438 2.16085938 4.19015625 1.0625 4.1875 C-0.52498047 4.19136719 -0.52498047 4.19136719 -2.14453125 4.1953125 C-4.66189017 4.08313661 -6.72923255 3.7934121 -9.125 3.0625 C-9.125 2.4025 -9.125 1.7425 -9.125 1.0625 C-6.12186252 -0.43906874 -3.33432478 -0.03031204 0 0 Z " fill="#F0EDE7" transform="translate(28.125,84.9375)"/>
<path d="M0 0 C0.66 0 1.32 0 2 0 C4.66335207 5.32670414 3.60127571 9.48590131 2.515625 15.07421875 C1.91512101 18.48162396 1.84341947 21.55522844 2 25 C-0.68478605 23.01559292 -1.03631971 21.84354588 -1.8125 18.5 C-2 15 -2 15 0 12 C1.14101666 5.94365885 1.14101666 5.94365885 0 0 Z " fill="#F1D7A2" transform="translate(29,22)"/>
<path d="M0 0 C0.66 0 1.32 0 2 0 C2.53160457 2.41474617 3.05054766 4.83108107 3.5625 7.25 C3.71396484 7.93191406 3.86542969 8.61382812 4.02148438 9.31640625 C4.75233495 12.81769038 5.32203546 15.60298173 4 19 C1.17820323 16.09488246 0.05880657 14.53455169 -0.390625 10.44921875 C-0.34421875 9.20785156 -0.2978125 7.96648437 -0.25 6.6875 C-0.21390625 5.43324219 -0.1778125 4.17898437 -0.140625 2.88671875 C-0.07101562 1.45779297 -0.07101562 1.45779297 0 0 Z " fill="#C5C3BF" transform="translate(0,82)"/>
<path d="M0 0 C0.33 0 0.66 0 1 0 C1.48176187 6.3833448 1.48176187 6.3833448 -0.5625 9 C-3.96372991 10.39537637 -6.4655107 9.74768043 -10 9 C-10 8.01 -10 7.02 -10 6 C-9.34 6 -8.68 6 -8 6 C-7.67 4.68 -7.34 3.36 -7 2 C-6.34 3.32 -5.68 4.64 -5 6 C-3.68 6 -2.36 6 -1 6 C-0.67 4.02 -0.34 2.04 0 0 Z " fill="#EBDBB5" transform="translate(122,106)"/>
<path d="M0 0 C-1.07401108 2.91517292 -1.77810176 4.77810176 -4 7 C-6.65537372 7.56520003 -9.29144713 7.73788198 -12 8 C-10.04783565 6.04783565 -8.46800047 5.15173355 -6 4 C-6 2.68 -6 1.36 -6 0 C-3.50907189 -1.24546405 -2.58919267 -0.7767578 0 0 Z " fill="#EA995A" transform="translate(82,9)"/>
<path d="M0 0 C2.97 0 5.94 0 9 0 C9 0.99 9 1.98 9 3 C6.03 3 3.06 3 0 3 C0 2.01 0 1.02 0 0 Z " fill="#ACA9A7" transform="translate(119,4)"/>
<path d="M0 0 C1.32 0.66 2.64 1.32 4 2 C3.6875 3.9375 3.6875 3.9375 3 6 C2.01 6.33 1.02 6.66 0 7 C-1.125 2.25 -1.125 2.25 0 0 Z " fill="#ECAF7F" transform="translate(117,106)"/>
<path d="M0 0 C0.33 0 0.66 0 1 0 C1 1.65 1 3.3 1 5 C1.66 5 2.32 5 3 5 C3 7.31 3 9.62 3 12 C2.34 10.68 1.68 9.36 1 8 C0.34 8 -0.32 8 -1 8 C-1.04241723 5.66705225 -1.04092937 3.33297433 -1 1 C-0.67 0.67 -0.34 0.34 0 0 Z " fill="#CCC7BB" transform="translate(41,109)"/>
<path d="M0 0 C1.98 0 3.96 0 6 0 C6.33 0.99 6.66 1.98 7 3 C4.36 3 1.72 3 -1 3 C-0.67 2.01 -0.34 1.02 0 0 Z " fill="#FBFBFA" transform="translate(44,125)"/>
<path d="M0 0 C0.99 0.66 1.98 1.32 3 2 C2.34 2 1.68 2 1 2 C0.690625 2.804375 0.38125 3.60875 0.0625 4.4375 C-1 7 -1 7 -2 8 C-3.66617115 8.04063832 -5.33388095 8.042721 -7 8 C-6.38125 7.938125 -5.7625 7.87625 -5.125 7.8125 C-2.74397155 7.17948312 -2.74397155 7.17948312 -1.8125 4.5625 C-1.4103125 3.2940625 -1.4103125 3.2940625 -1 2 C-0.67 1.34 -0.34 0.68 0 0 Z " fill="#E9DCBA" transform="translate(52,115)"/>
<path d="M0 0 C1.76065836 2.64098754 2.52722899 3.9742655 3 7 C2.67 7.99 2.34 8.98 2 10 C1.34 9.67 0.68 9.34 0 9 C-0.44921875 7.1875 -0.44921875 7.1875 -0.6875 5 C-0.77386719 4.278125 -0.86023437 3.55625 -0.94921875 2.8125 C-0.96597656 2.214375 -0.98273437 1.61625 -1 1 C-0.67 0.67 -0.34 0.34 0 0 Z " fill="#E98F47" transform="translate(53,101)"/>
<path d="M0 0 C1.32 0.33 2.64 0.66 4 1 C3.67 1.66 3.34 2.32 3 3 C2.34 2.67 1.68 2.34 1 2 C0.01 3.98 -0.98 5.96 -2 8 C-2.6875 6.25 -2.6875 6.25 -3 4 C-1.5625 1.75 -1.5625 1.75 0 0 Z " fill="#EFC995" transform="translate(65,28)"/>
<path d="M0 0 C0.99 0 1.98 0 3 0 C4.125 3.75 4.125 3.75 3 6 C2.01 5.67 1.02 5.34 0 5 C0 3.35 0 1.7 0 0 Z " fill="#E98F47" transform="translate(47,70)"/>
<path d="M0 0 C0.48210938 0.42152344 0.96421875 0.84304687 1.4609375 1.27734375 C2.09257813 1.82519531 2.72421875 2.37304688 3.375 2.9375 C4.00148438 3.48277344 4.62796875 4.02804688 5.2734375 4.58984375 C6.95632334 6.06958624 6.95632334 6.06958624 9 7 C8.67 7.66 8.34 8.32 8 9 C4.48536988 7.10019993 2.10449322 5.43364683 0 2 C0 1.34 0 0.68 0 0 Z " fill="#EED9AB" transform="translate(31,47)"/>
</svg>
