<?xml version="1.0" encoding="UTF-8"?>
<svg version="1.1" xmlns="http://www.w3.org/2000/svg" width="128" height="128">
<path d="M0 0 C42.24 0 84.48 0 128 0 C128 42.24 128 84.48 128 128 C85.76 128 43.52 128 0 128 C0 85.76 0 43.52 0 0 Z " fill="#BE4958" transform="translate(0,0)"/>
<path d="M0 0 C10.23 0 20.46 0 31 0 C31 2.97 31 5.94 31 9 C32.67509786 11.49731629 32.67509786 11.49731629 35.0625 13.1875 C37.34765625 14.98046875 37.34765625 14.98046875 39 17 C38.84443087 24.51917465 34.04371567 32.51583304 29.19140625 38.0703125 C26.52323326 40.43541907 24.15372227 41.9323622 20.875 43.375 C15.06754076 46.65747696 12.42617649 53.25339245 10.5703125 59.4609375 C7.89922845 71.35275004 9.03125904 82.5449832 14.8984375 93.31640625 C17.38915274 97.1231377 20.58006515 100.61877036 25 102 C29.07287366 101.59073231 30.84362015 100.63504903 33.4375 97.5 C34.03433594 96.77941406 34.63117187 96.05882813 35.24609375 95.31640625 C37.47977004 92.36636162 39.45658334 89.28249106 41.45703125 86.171875 C43.50458441 83.28974954 45.89832917 80.93825986 48.453125 78.5078125 C50.19197328 76.81287453 51.6351001 75.00720573 53 73 C53.99 73.33 54.98 73.66 56 74 C56.94921875 76.50390625 56.94921875 76.50390625 57.6875 79.5625 C57.93886719 80.57441406 58.19023438 81.58632812 58.44921875 82.62890625 C58.63097656 83.41136719 58.81273437 84.19382812 59 85 C59.66 85 60.32 85 61 85 C61.4125 85.86882812 61.825 86.73765625 62.25 87.6328125 C67.61845716 98.3457605 72.87681492 103.48779166 84.3828125 107.3125 C89.54213486 108.66778468 93.37869999 108.64074286 98 106 C98.99 106 99.98 106 101 106 C101.2475 105.38125 101.495 104.7625 101.75 104.125 C103 102 103 102 104.8125 101.1875 C107.77138201 99.58124977 109.03569325 97.34022786 110.8515625 94.55859375 C112 93 112 93 114 92 C114.48010899 90.38820552 114.94995118 88.77272811 115.37109375 87.14453125 C116.06960039 84.76266699 116.97749406 82.53868336 117.9375 80.25 C119.84837776 75.66951359 121.00926534 71.10823217 121.99609375 66.25 C123 64 123 64 128 62 C128 83.78 128 105.56 128 128 C85.76 128 43.52 128 0 128 C0 85.76 0 43.52 0 0 Z " fill="#FBFAF9" transform="translate(0,0)"/>
<path d="M0 0 C31.02 0 62.04 0 94 0 C94 20.46 94 40.92 94 62 C92.02 62.99 92.02 62.99 90 64 C88.9400156 66.03593762 88.9400156 66.03593762 88.3671875 68.46484375 C88.11839844 69.34720703 87.86960937 70.22957031 87.61328125 71.13867188 C87.36964844 72.06228516 87.12601562 72.98589844 86.875 73.9375 C86.37681958 75.76032937 85.87438668 77.58200323 85.3671875 79.40234375 C85.15175293 80.21179443 84.93631836 81.02124512 84.71435547 81.85522461 C84 84 84 84 82 87 C81.731875 87.94875 81.46375 88.8975 81.1875 89.875 C79.77694437 93.58698849 77.88957331 95.32185888 75 98 C74.2265625 99.0828125 74.2265625 99.0828125 73.4375 100.1875 C71.8091292 102.24066318 70.34370787 102.90626966 68 104 C67.67 104.66 67.34 105.32 67 106 C61.25379912 108.98802446 56.85389836 110.02269867 50.39453125 108.30859375 C42.52921987 105.71575317 35.66133992 102.03902628 31 95 C30.26739841 92.68652128 29.588562 90.354248 29 88 C32 87 32 87 35.3125 87.25 C40.22636495 86.91685661 41.46327058 85.28998086 45 82 C45.66 82 46.32 82 47 82 C47.27199219 81.43023437 47.54398438 80.86046875 47.82421875 80.2734375 C49.0255483 77.95060097 50.39271797 75.82023026 51.8125 73.625 C61.11244516 57.83565821 62.2233457 41.37582721 58.9375 23.5 C57.57976915 18.56279691 55.52712354 15.69418641 51.62109375 12.4296875 C50 11 50 11 48.5625 8.125 C47.07445039 5.5874648 47.07445039 5.5874648 43.42089844 5.37817383 C39.18007116 4.952085 34.96246615 4.84913934 30.703125 4.82421875 C29.1523297 4.80105205 27.60154835 4.77693608 26.05078125 4.75195312 C23.63905983 4.71669692 21.22786737 4.6873779 18.81591797 4.67407227 C16.46520005 4.6586164 14.11595389 4.61847582 11.765625 4.57421875 C11.0457843 4.57612717 10.3259436 4.57803558 9.58428955 4.58000183 C4.40101686 4.45329462 3.97983459 3.97983459 0 0 Z " fill="#EE5A32" transform="translate(34,0)"/>
<path d="M0 0 C0 3 0 3 -2 5.25 C-4.51376147 8.70642203 -4.32767094 10.8221955 -4 15 C1.59857599 17.95136199 6.85664758 20.37722766 13 22 C14.23748028 22.50076003 15.46685283 23.02200157 16.6875 23.5625 C19.1825329 24.64525012 21.35506227 25.47101245 24 26 C24 25.01 24 24.02 24 23 C23.39671875 22.90203125 22.7934375 22.8040625 22.171875 22.703125 C18.39114528 21.99576267 15.57260523 21.39537028 12.375 19.1875 C11 17 11 17 11 14.5 C12.20332008 11.49169979 13.54992091 10.10979033 16 8 C16.763125 7.236875 17.52625 6.47375 18.3125 5.6875 C21 4 21 4 24.3125 3.875 C28.93521473 5.28531975 32.63938656 7.49099584 36 11 C36 11.99 36 12.98 36 14 C34.02 14 32.04 14 30 14 C30.495 16.97 30.495 16.97 31 20 C32.32 20 33.64 20 35 20 C35.33 18.68 35.66 17.36 36 16 C37.58129029 15.77668801 39.16521089 15.57195356 40.75 15.375 C41.63171875 15.25898437 42.5134375 15.14296875 43.421875 15.0234375 C46.27188093 14.99752836 47.6861747 15.35106703 50 17 C50.2165625 18.485 50.2165625 18.485 50.4375 20 C50.623125 20.99 50.80875 21.98 51 23 C53.46255685 24.45291273 53.46255685 24.45291273 56 25 C56.35918191 32.06391083 55.49852092 35.15446228 50.75 40.5625 C46.65382928 44.19319677 41.68971457 48 36 48 C33.60949334 46.20712001 32.32214973 44.73634225 31.125 42 C30.96725485 39.47607754 31.70460535 38.13359119 33 36 C29.72226496 36.75150023 29.72226496 36.75150023 28 40 C27.75944532 42.05709596 27.75944532 42.05709596 27.875 44.1875 C27.91625 45.445625 27.9575 46.70375 28 48 C26 47 26 47 25.3671875 45.15234375 C25.20476563 44.42144531 25.04234375 43.69054687 24.875 42.9375 C24.62363281 41.83728516 24.62363281 41.83728516 24.3671875 40.71484375 C24.18542969 39.86599609 24.18542969 39.86599609 24 39 C17.58986776 41.13671075 13.44987688 48.61407453 9.54296875 53.9140625 C7.82622011 56.23493282 6.07636566 58.52724009 4.3125 60.8125 C3.75175781 61.54082031 3.19101562 62.26914063 2.61328125 63.01953125 C-0.32161022 66.62241254 -0.32161022 66.62241254 -2 68 C-5.7981575 67.92966375 -8.3212504 67.38785691 -11.625 65.5 C-14.91330326 62.03862815 -16.93183945 58.27895286 -19 54 C-19.31195313 53.3709375 -19.62390625 52.741875 -19.9453125 52.09375 C-24.34364448 42.01601848 -23.60391786 31.16027612 -20 21 C-17.0315937 13.62981311 -14.238578 9.07603821 -6.9375 5.5 C-3.99712635 3.99853261 -2.18857343 2.44110114 0 0 Z " fill="#F19058" transform="translate(31,35)"/>
<path d="M0 0 C1.32 0 2.64 0 4 0 C3.86078125 0.8353125 3.86078125 0.8353125 3.71875 1.6875 C3.46911598 4.32648825 3.44538146 6.39693632 4 9 C5.94130152 11.3170373 7.97162511 13.11619816 10.34765625 14.98046875 C12 17 12 17 11.94140625 19.83203125 C9.36903107 28.4884473 4.84513115 37.14435301 -3 42 C-4.546875 42.680625 -4.546875 42.680625 -6.125 43.375 C-11.93245924 46.65747696 -14.57382351 53.25339245 -16.4296875 59.4609375 C-19.10077155 71.35275004 -17.96874096 82.5449832 -12.1015625 93.31640625 C-9.61084726 97.1231377 -6.41993485 100.61877036 -2 102 C2.07287366 101.59073231 3.84362015 100.63504903 6.4375 97.5 C7.03433594 96.77941406 7.63117187 96.05882813 8.24609375 95.31640625 C10.47977004 92.36636162 12.45658334 89.28249106 14.45703125 86.171875 C16.50458441 83.28974954 18.89832917 80.93825986 21.453125 78.5078125 C23.19197328 76.81287453 24.6351001 75.00720573 26 73 C26.99 73.33 27.98 73.66 29 74 C29.94921875 76.50390625 29.94921875 76.50390625 30.6875 79.5625 C30.93886719 80.57441406 31.19023438 81.58632812 31.44921875 82.62890625 C31.63097656 83.41136719 31.81273437 84.19382812 32 85 C32.66 85 33.32 85 34 85 C34.4125 85.86882812 34.825 86.73765625 35.25 87.6328125 C40.61845716 98.3457605 45.87681492 103.48779166 57.3828125 107.3125 C62.54213486 108.66778468 66.37869999 108.64074286 71 106 C71.99 106 72.98 106 74 106 C74.2475 105.38125 74.495 104.7625 74.75 104.125 C76 102 76 102 77.8125 101.1875 C80.77138201 99.58124977 82.03569325 97.34022786 83.8515625 94.55859375 C85 93 85 93 87 92 C87.48010899 90.38820552 87.94995118 88.77272811 88.37109375 87.14453125 C89.06960039 84.76266699 89.97749406 82.53868336 90.9375 80.25 C92.84837776 75.66951359 94.00926534 71.10823217 94.99609375 66.25 C96 64 96 64 98.59765625 62.6875 C99.78681641 62.3471875 99.78681641 62.3471875 101 62 C101 63.32 101 64.64 101 66 C100.01 66.66 99.02 67.32 98 68 C97.11979885 70.56960157 97.11979885 70.56960157 96.5625 73.5625 C92.99655611 88.96590712 84.6703963 100.96006398 71.359375 109.7421875 C65.65360169 113 65.65360169 113 63 113 C62.79375 113.5775 62.5875 114.155 62.375 114.75 C60.38726189 118.00266236 58.3689497 119.20097335 55 121 C51.83365668 121.44772954 48.75075794 121.33457367 45.5625 121.1875 C39.8803785 121.00449373 34.63875762 121.07402755 29 122 C23.5734966 122.37334343 19.10840146 122.09575444 14 120 C14 119.34 14 118.68 14 118 C13.13375 117.979375 12.2675 117.95875 11.375 117.9375 C6.77241181 116.65900328 4.56943843 113.94527248 2 110 C2 109.34 2 108.68 2 108 C1.34 107.95875 0.68 107.9175 0 107.875 C-9.28235619 105.16764611 -14.56639973 97.04456714 -19.125 89.01953125 C-23.94471387 77.8954595 -22.55316974 65.20512704 -19 54 C-16.15495773 47.33639067 -13.11783507 41.99532086 -7 38 C-5.845 37.608125 -4.69 37.21625 -3.5 36.8125 C1.62745249 34.1572121 3.43671543 30.02340289 6 25 C6.38542969 24.28585938 6.77085938 23.57171875 7.16796875 22.8359375 C8.16769213 20.96592082 8.16769213 20.96592082 8 18.5625 C6.54320854 14.82947188 4.16083809 13.43647936 1 11 C-0.20272819 8.59454362 -0.10071472 7.05003047 -0.0625 4.375 C-0.05347656 3.55773437 -0.04445313 2.74046875 -0.03515625 1.8984375 C-0.02355469 1.27195313 -0.01195313 0.64546875 0 0 Z " fill="#EECBC2" transform="translate(27,0)"/>
<path d="M0 0 C31.02 0 62.04 0 94 0 C94 18.48 94 36.96 94 56 C89.49761046 53.74880523 89.49761046 53.74880523 87.89453125 50.4453125 C87.55099609 49.74792969 87.20746094 49.05054688 86.85351562 48.33203125 C86.50998047 47.60371094 86.16644531 46.87539063 85.8125 46.125 C85.45736328 45.40441406 85.10222656 44.68382812 84.73632812 43.94140625 C82.09664889 38.50176365 82.09664889 38.50176365 81.58081055 35.82373047 C81.38914307 35.22189941 81.19747559 34.62006836 81 34 C79.515 33.505 79.515 33.505 78 33 C75.92469613 30.07920195 75 28.62453269 75 25 C73.515 24.505 73.515 24.505 72 24 C71.401875 22.865625 70.80375 21.73125 70.1875 20.5625 C68.57818445 17.53027611 68.18529593 17.08523613 64.875 15.5625 C62.16112085 14.93599613 62.16112085 14.93599613 60 15 C60 15.66 60 16.32 60 17 C57.17026911 16.91677262 55.46959253 16.44662957 53.40234375 14.48046875 C51.06619088 11.75400042 48.99325564 8.98988347 47 6 C41.57490668 4.98233593 36.20969473 4.85643663 30.703125 4.82421875 C29.1523297 4.80105205 27.60154835 4.77693608 26.05078125 4.75195312 C23.63905983 4.71669692 21.22786737 4.6873779 18.81591797 4.67407227 C16.46520005 4.6586164 14.11595389 4.61847582 11.765625 4.57421875 C11.0457843 4.57612717 10.3259436 4.57803558 9.58428955 4.58000183 C4.40101686 4.45329462 3.97983459 3.97983459 0 0 Z " fill="#FBFAF8" transform="translate(34,0)"/>
<path d="M0 0 C0 3 0 3 -2 5.25 C-4.51376147 8.70642203 -4.32767094 10.8221955 -4 15 C1.59857599 17.95136199 6.85664758 20.37722766 13 22 C14.23748028 22.50076003 15.46685283 23.02200157 16.6875 23.5625 C19.1825329 24.64525012 21.35506227 25.47101245 24 26 C24 25.01 24 24.02 24 23 C23.39671875 22.90203125 22.7934375 22.8040625 22.171875 22.703125 C18.39114528 21.99576267 15.57260523 21.39537028 12.375 19.1875 C11 17 11 17 11 14.5 C12.20332008 11.49169979 13.54992091 10.10979033 16 8 C16.763125 7.236875 17.52625 6.47375 18.3125 5.6875 C21 4 21 4 24.3125 3.875 C28.93521473 5.28531975 32.63938656 7.49099584 36 11 C36 11.99 36 12.98 36 14 C34.02 14 32.04 14 30 14 C30.495 16.97 30.495 16.97 31 20 C32.32 20 33.64 20 35 20 C35.33 18.68 35.66 17.36 36 16 C37.58129029 15.77668801 39.16521089 15.57195356 40.75 15.375 C41.63171875 15.25898437 42.5134375 15.14296875 43.421875 15.0234375 C46.27188093 14.99752836 47.6861747 15.35106703 50 17 C50.144375 17.99 50.28875 18.98 50.4375 20 C50.623125 20.99 50.80875 21.98 51 23 C53.46255685 24.45291273 53.46255685 24.45291273 56 25 C56.35918191 32.06391083 55.49852092 35.15446228 50.75 40.5625 C46.65382928 44.19319677 41.68971457 48 36 48 C33.60949334 46.20712001 32.32214973 44.73634225 31.125 42 C30.96725485 39.47607754 31.70460535 38.13359119 33 36 C29.72226496 36.75150023 29.72226496 36.75150023 28 40 C27.75944532 42.05709596 27.75944532 42.05709596 27.875 44.1875 C27.91625 45.445625 27.9575 46.70375 28 48 C26 47 26 47 25.3671875 45.15234375 C25.20476563 44.42144531 25.04234375 43.69054687 24.875 42.9375 C24.70742188 42.20402344 24.53984375 41.47054687 24.3671875 40.71484375 C24.24601562 40.14894531 24.12484375 39.58304688 24 39 C22.4840625 38.7215625 22.4840625 38.7215625 20.9375 38.4375 C14.4510528 36.56741542 10.67161635 31.0128288 6.875 25.75 C3.10714235 20.58663951 -0.93793899 18.83271612 -7 17 C-7.6261986 12.70606672 -7.88559935 9.35170427 -5.44140625 5.62109375 C-3.69583715 3.65776754 -1.91737225 1.79509085 0 0 Z " fill="#D0656D" transform="translate(31,35)"/>
<path d="M0 0 C2 2 2 2 2.9375 3.9375 C3.86428309 6.02034896 3.86428309 6.02034896 5.40234375 7.3125 C7.36151909 9.38184901 8.36749595 11.50704586 9.625 14.0625 C12.8823419 20.23170815 17.14967565 25.03111217 22 30 C20.19587357 33.26460973 19.16605307 34.88929795 16 37 C12.14012713 37.51464972 10.54947227 37.41128164 7.390625 35.046875 C3.05583369 32.43001942 -0.46758687 32.19363399 -5.4375 31.875 C-11.23371401 31.44699991 -16.45904981 30.80472402 -22 29 C-20.64612859 25.10416594 -18.90157655 22.39489312 -16.25 19.25 C-12.91076502 15.20649 -9.98648117 11.07314558 -7.2265625 6.6171875 C-6.61941406 5.81667969 -6.61941406 5.81667969 -6 5 C-5.34 5 -4.68 5 -4 5 C-3.71125 4.360625 -3.4225 3.72125 -3.125 3.0625 C-2 1 -2 1 0 0 Z " fill="#FBFAF9" transform="translate(53,79)"/>
<path d="M0 0 C0 1.32 0 2.64 0 4 C-0.99 4.66 -1.98 5.32 -3 6 C-3.88020115 8.56960157 -3.88020115 8.56960157 -4.4375 11.5625 C-8.00344389 26.96590712 -16.3296037 38.96006398 -29.640625 47.7421875 C-35.34639831 51 -35.34639831 51 -38 51 C-38.20625 51.5775 -38.4125 52.155 -38.625 52.75 C-40.61273811 56.00266236 -42.6310503 57.20097335 -46 59 C-49.16634332 59.44772954 -52.24924206 59.33457367 -55.4375 59.1875 C-61.12271514 59.00439409 -66.35667062 59.09377192 -72 60 C-73.64485066 60.06056151 -75.29172957 60.08781955 -76.9375 60.0625 C-77.70964844 60.05347656 -78.48179688 60.04445312 -79.27734375 60.03515625 C-79.84582031 60.02355469 -80.41429687 60.01195312 -81 60 C-81 59.01 -81 58.02 -81 57 C-81.721875 56.896875 -82.44375 56.79375 -83.1875 56.6875 C-86.30053492 55.92653591 -88.43005998 54.9090983 -91 53 C-91 52.01 -91 51.02 -91 50 C-82.90965361 49.64248878 -75.79784592 50.20690933 -67.97265625 52.34375 C-64.83186931 53.03711689 -62.20444375 53.28603124 -59 53 C-56.12359384 50.62499209 -56.12359384 50.62499209 -54 48 C-56.80987178 44.19556879 -59.6098964 40.40616518 -62.6875 36.8125 C-66.59817619 32.0562722 -68.43833858 29.28285303 -68 23 C-65.5109803 25.84459394 -63.73175274 28.49110189 -62.25 31.9375 C-58.96677369 38.66874777 -53.21042053 41.71420979 -46.4375 44.375 C-41.40685417 46.04723684 -36.79314417 47.24139741 -31.75 45 C-30.88375 44.505 -30.88375 44.505 -30 44 C-29.01 44 -28.02 44 -27 44 C-26.62875 43.071875 -26.62875 43.071875 -26.25 42.125 C-25 40 -25 40 -23.1875 39.1875 C-20.22861799 37.58124977 -18.96430675 35.34022786 -17.1484375 32.55859375 C-16 31 -16 31 -14 30 C-13.51989101 28.38820552 -13.05004882 26.77272811 -12.62890625 25.14453125 C-11.93039961 22.76266699 -11.02250594 20.53868336 -10.0625 18.25 C-8.16558795 13.66930869 -6.91284625 9.07853268 -5.80859375 4.25 C-4.73056642 1.25027179 -3.26392571 0 0 0 Z " fill="#E08779" transform="translate(128,62)"/>
<path d="M0 0 C2.49361571 1.20381448 4.68143083 2.45428722 7 4 C6.814375 5.03125 6.62875 6.0625 6.4375 7.125 C6.02692918 10.76148442 6.221691 13.45437009 7 17 C11.1408875 15.91459975 11.1408875 15.91459975 14.5 13.4375 C16.78554527 11.24718579 18.91286178 11.19294614 22 11 C22.99 11.66 23.98 12.32 25 13 C24.7317596 16.21888481 24.3522088 17.65879773 22 19.9375 C20.515 20.9584375 20.515 20.9584375 19 22 C18.2884375 22.51046875 17.576875 23.0209375 16.84375 23.546875 C9.84815682 28.44379023 9.84815682 28.44379023 5 29 C4.67 28.67 4.34 28.34 4 28 C4.08963062 26.30858344 4.24577676 24.62040398 4.4375 22.9375 C4.53933594 22.01839844 4.64117187 21.09929688 4.74609375 20.15234375 C4.82988281 19.44207031 4.91367187 18.73179688 5 18 C4.33613281 17.82984375 3.67226563 17.6596875 2.98828125 17.484375 C-2.16995346 16.06868431 -6.05877597 14.8098499 -10 11 C-8.67367286 5.36310966 -4.53368235 3.06814317 0 0 Z " fill="#E5A79B" transform="translate(54,40)"/>
<path d="M0 0 C3 1.5 3 1.5 6 3 C5.32902328 7.19360449 3.1441606 10.40334352 1 14 C4.96 14 8.92 14 13 14 C11 16 11 16 9.13989258 16.21118164 C8.02843872 16.18592407 8.02843872 16.18592407 6.89453125 16.16015625 C6.07533203 16.14919922 5.25613281 16.13824219 4.41210938 16.12695312 C3.55423828 16.10568359 2.69636719 16.08441406 1.8125 16.0625 C-3.93712075 15.94317659 -9.29879853 16.09394109 -15 17 C-16.64485066 17.06056151 -18.29172957 17.08781955 -19.9375 17.0625 C-20.70964844 17.05347656 -21.48179688 17.04445313 -22.27734375 17.03515625 C-22.84582031 17.02355469 -23.41429687 17.01195313 -24 17 C-24 16.01 -24 15.02 -24 14 C-24.721875 13.896875 -25.44375 13.79375 -26.1875 13.6875 C-29.30053492 12.92653591 -31.43005998 11.9090983 -34 10 C-34 9.01 -34 8.02 -34 7 C-25.90965361 6.64248878 -18.79784592 7.20690933 -10.97265625 9.34375 C-7.83186931 10.03711689 -5.20444375 10.28603124 -2 10 C0.87640616 7.62499209 0.87640616 7.62499209 3 5 C2.01 3.35 1.02 1.7 0 0 Z " fill="#EECABF" transform="translate(71,105)"/>
<path d="M0 0 C5.37106359 -0.07473651 10.74181753 -0.12887661 16.11328125 -0.16479492 C17.93657715 -0.17978489 19.7598376 -0.20018384 21.58300781 -0.22631836 C42.03696954 -0.51195693 42.03696954 -0.51195693 49 3 C51 5 51 5 51.875 7.375 C53.12907507 10.30117515 54.65266093 11.88739484 57 14 C57.99 13.34 58.98 12.68 60 12 C62.9375 11.625 62.9375 11.625 66 12 C68.375 14 68.375 14 70 16 C69.67 16.66 69.34 17.32 69 18 C68.2575 17.505 67.515 17.01 66.75 16.5 C63.93681812 14.68076525 63.93681812 14.68076525 60 15 C60 15.66 60 16.32 60 17 C57.17026911 16.91677262 55.46959253 16.44662957 53.40234375 14.48046875 C51.06619088 11.75400042 48.99325564 8.98988347 47 6 C41.57490668 4.98233593 36.20969473 4.85643663 30.703125 4.82421875 C29.1523297 4.80105205 27.60154835 4.77693608 26.05078125 4.75195312 C23.63905983 4.71669692 21.22786737 4.6873779 18.81591797 4.67407227 C16.46520005 4.6586164 14.11595389 4.61847582 11.765625 4.57421875 C11.0457843 4.57612717 10.3259436 4.57803558 9.58428955 4.58000183 C6.03430969 4.49322113 4.30263353 4.24790383 1.51464844 1.96411133 C0.76489746 0.99187622 0.76489746 0.99187622 0 0 Z " fill="#F0D3CA" transform="translate(34,0)"/>
<path d="M0 0 C1.32 0 2.64 0 4 0 C3.86078125 0.8353125 3.86078125 0.8353125 3.71875 1.6875 C3.46911598 4.32648825 3.44538146 6.39693632 4 9 C5.94130152 11.3170373 7.97162511 13.11619816 10.34765625 14.98046875 C12 17 12 17 11.94140625 19.83203125 C9.36903107 28.4884473 4.84513115 37.14435301 -3 42 C-4.546875 42.680625 -4.546875 42.680625 -6.125 43.375 C-11.93245924 46.65747696 -14.57382351 53.25339245 -16.4296875 59.4609375 C-19.86525279 74.75626243 -16.09342967 87.05051252 -8 100 C-12.77183258 98.40938914 -14.04194787 94.43238135 -16.4140625 90.18359375 C-21.57821915 79.81712166 -21.36979903 67.51297092 -17.984375 56.57421875 C-15.05284065 48.90802375 -11.59838637 42.62994942 -4 39.0625 C2.94048366 35.71413358 6.32201217 29.02423037 9 22 C9.51613084 19.42270738 9.51613084 19.42270738 9 17 C7.31295053 15.17751211 7.31295053 15.17751211 5.0625 13.8125 C1.07284768 11.14569536 1.07284768 11.14569536 0 9 C-0.06950541 7.45976004 -0.08452357 5.91665012 -0.0625 4.375 C-0.05347656 3.55773437 -0.04445313 2.74046875 -0.03515625 1.8984375 C-0.02355469 1.27195313 -0.01195313 0.64546875 0 0 Z " fill="#E5A79B" transform="translate(27,0)"/>
<path d="M0 0 C0 1.32 0 2.64 0 4 C-0.99 4.66 -1.98 5.32 -3 6 C-3.88020115 8.56960157 -3.88020115 8.56960157 -4.4375 11.5625 C-8.00344389 26.96590712 -16.3296037 38.96006398 -29.640625 47.7421875 C-35.34639831 51 -35.34639831 51 -38 51 C-38.2475 51.61875 -38.495 52.2375 -38.75 52.875 C-40.22047178 55.37480203 -41.41403076 55.83316022 -44 57 C-40.23500341 51.25267566 -36.38827199 46.8331782 -30 44 C-29.01 44 -28.02 44 -27 44 C-26.7525 43.38125 -26.505 42.7625 -26.25 42.125 C-25 40 -25 40 -23.1875 39.1875 C-20.22861799 37.58124977 -18.96430675 35.34022786 -17.1484375 32.55859375 C-16 31 -16 31 -14 30 C-13.51989101 28.38820552 -13.05004882 26.77272811 -12.62890625 25.14453125 C-11.93039961 22.76266699 -11.02250594 20.53868336 -10.0625 18.25 C-8.16558795 13.66930869 -6.91284625 9.07853268 -5.80859375 4.25 C-4.73056642 1.25027179 -3.26392571 0 0 0 Z " fill="#E79E88" transform="translate(128,62)"/>
<path d="M0 0 C0.66 0.33 1.32 0.66 2 1 C1.6712524 8.39682102 -1.60577121 15.17822054 -6.51953125 20.7109375 C-8.87830804 22.7647537 -11.31147213 24.14950662 -14.125 25.5 C-20.39628587 28.77197524 -23.5022041 35.56551439 -25.6953125 42.05859375 C-28.29829228 52.04890346 -28.61966607 64.49400281 -23.49609375 73.703125 C-22.41041534 75.4664078 -21.29502235 77.21189864 -20.14453125 78.93359375 C-19.76683594 79.61550781 -19.38914062 80.29742187 -19 81 C-19.495 81.99 -19.495 81.99 -20 83 C-27.55092351 74.10069729 -30.60142314 65.14246822 -30.24609375 53.4375 C-29.18345448 42.91231104 -26.22493462 31.33309634 -18.0625 24 C-15 22 -15 22 -11.5 20.8125 C-6.37254751 18.1572121 -4.56328457 14.02340289 -2 9 C-1.42572266 7.93845703 -1.42572266 7.93845703 -0.83984375 6.85546875 C0.23123822 4.48912487 0.14257607 2.56636921 0 0 Z " fill="#F1D5CC" transform="translate(35,16)"/>
<path d="M0 0 C1.9375 0.875 1.9375 0.875 3.25 2.4375 C4.2861671 6.11118337 3.56271647 9.12370119 2.9375 12.875 C-5.0625 11.95192308 -5.0625 11.95192308 -8.0625 9.875 C-8.3925 8.885 -8.7225 7.895 -9.0625 6.875 C-4.19379879 -0.25416962 -4.19379879 -0.25416962 0 0 Z " fill="#F1D5CC" transform="translate(55.0625,42.125)"/>
<path d="M0 0 C11.18313945 0.43855449 22.34477546 1.02230056 33.5 1.9375 C34.47203369 2.01210449 35.44406738 2.08670898 36.44555664 2.16357422 C45.31806777 2.92748969 45.31806777 2.92748969 49 5 C49.8125 7.125 49.8125 7.125 50 9 C49.505 8.2884375 49.505 8.2884375 49 7.5625 C44.39566298 3.96536171 36.39271205 4.85750743 30.703125 4.82421875 C29.1523297 4.80105205 27.60154835 4.77693608 26.05078125 4.75195312 C23.63905983 4.71669692 21.22786737 4.6873779 18.81591797 4.67407227 C16.46520005 4.6586164 14.11595389 4.61847582 11.765625 4.57421875 C11.0457843 4.57612717 10.3259436 4.57803558 9.58428955 4.58000183 C6.03430969 4.49322113 4.30263353 4.24790383 1.51464844 1.96411133 C0.76489746 0.99187622 0.76489746 0.99187622 0 0 Z " fill="#E5A79B" transform="translate(34,0)"/>
<path d="M0 0 C6.91289121 -0.39882065 13.48594493 0.56474557 20 3 C20.99 4.485 20.99 4.485 22 6 C16.54047521 8.44241898 11.73021624 8.29810724 6 7 C3.48202942 5.90523018 2.08688711 4.86721478 0 3 C0 2.01 0 1.02 0 0 Z " fill="#C4525E" transform="translate(37,112)"/>
<path d="M0 0 C1.36125 0.12375 1.36125 0.12375 2.75 0.25 C2.75 2.4375 2.75 2.4375 1.75 5.25 C-0.16081967 6.74979668 -2.13991998 7.91874712 -4.25390625 9.11328125 C-6.37030307 10.24812271 -6.37030307 10.24812271 -8.5 12.0625 C-10.25 13.25 -10.25 13.25 -14.25 13.25 C-14.125 10.4375 -14.125 10.4375 -13.25 7.25 C-10.4375 5.625 -10.4375 5.625 -7.25 4.25 C-6.59 3.528125 -5.93 2.80625 -5.25 2.0625 C-3.25 0.25 -3.25 0.25 0 0 Z " fill="#F1D5CC" transform="translate(74.25,52.75)"/>
<path d="M0 0 C0.99 0.33 1.98 0.66 3 1 C3.9140625 2.890625 3.9140625 2.890625 4.625 5.25 C4.87121094 6.05824219 5.11742187 6.86648437 5.37109375 7.69921875 C6.03225326 10.11799485 6.60058809 12.52364616 7 15 C3.7089159 11.39042389 2.45336079 8.87362847 2 4 C-5.54570264 8.13373275 -10.39968377 14.8769297 -15 22 C-20.7388664 30.45951417 -20.7388664 30.45951417 -25.0625 32.3125 C-28.89911509 31.90434946 -31.00191606 30.35563738 -34 28 C-31 28 -31 28 -27.8125 29.0625 C-24.0638999 29.39026216 -24.0638999 29.39026216 -21.9765625 27.37890625 C-17.97585307 22.95666614 -14.71044269 18.15067257 -11.5078125 13.13671875 C-9.47915527 10.26191175 -7.08923815 7.92643231 -4.546875 5.5078125 C-2.80802672 3.81287453 -1.3648999 2.00720573 0 0 Z " fill="#E5A79B" transform="translate(53,73)"/>
<path d="M0 0 C4.81035973 4.3730543 8.59926143 9.46277438 12 15 C12 15.66 12 16.32 12 17 C12.59554687 17.185625 13.19109375 17.37125 13.8046875 17.5625 C16.98170275 19.64282315 17.82723295 22.58048682 19.125 26 C20.91833013 30.88215123 20.91833013 30.88215123 24 35 C24 35.99 24 36.98 24 38 C21.65075258 37.313703 20.29526529 36.44418523 18.93603516 34.39941406 C17.83447477 32.33263269 16.81160738 30.24318262 15.8125 28.125 C15.45736328 27.40441406 15.10222656 26.68382813 14.73632812 25.94140625 C12.09664889 20.50176365 12.09664889 20.50176365 11.58081055 17.82373047 C11.38914307 17.22189941 11.19747559 16.62006836 11 16 C10.01 15.67 9.02 15.34 8 15 C5.92469613 12.07920195 5 10.62453269 5 7 C4.01 6.67 3.02 6.34 2 6 C0.8125 2.9375 0.8125 2.9375 0 0 Z " fill="#EBC0B5" transform="translate(104,18)"/>
<path d="M0 0 C0.125 2.375 0.125 2.375 0 5 C-2.46469381 7.46469381 -3.5931474 7.38543894 -7 7.6875 C-8.3303125 7.81705078 -8.3303125 7.81705078 -9.6875 7.94921875 C-12 8 -12 8 -14 7 C-13.68522098 4.06206246 -12.93578058 2.92799641 -10.9375 0.6875 C-6.81100756 -1.68303821 -4.59368106 -0.93430801 0 0 Z " fill="#ED5E37" transform="translate(86,112)"/>
<path d="M0 0 C2 0 2 0 4 1 C5.85959137 4.63465586 6.15695597 6.39459839 5.125 10.375 C4.75375 11.24125 4.3825 12.1075 4 13 C2.35 13 0.7 13 -1 13 C-3.02892674 8.94214651 -3.16885197 6.3831949 -2 2 C-1.34 1.34 -0.68 0.68 0 0 Z " fill="#C24F5B" transform="translate(20,57)"/>
<path d="M0 0 C0 1.32 0 2.64 0 4 C-0.99 4.66 -1.98 5.32 -3 6 C-3.91579017 8.63633699 -3.91579017 8.63633699 -4.5 11.6875 C-7.21480318 23.41882568 -7.21480318 23.41882568 -11.1875 26.9375 C-11.785625 27.288125 -12.38375 27.63875 -13 28 C-12.40400729 24.557838 -11.50712205 21.57852321 -10.125 18.375 C-8.2011336 13.7493862 -6.92435175 9.12884243 -5.80859375 4.25 C-4.73056642 1.25027179 -3.26392571 0 0 0 Z " fill="#E99777" transform="translate(128,62)"/>
<path d="M0 0 C4 1 4 1 7 3 C9.58782366 3.22882003 12.07727576 3.34883945 14.66796875 3.37890625 C15.42161209 3.39590073 16.17525543 3.4128952 16.95173645 3.43040466 C19.36357206 3.48350327 21.77539458 3.52375422 24.1875 3.5625 C26.58165779 3.60669761 28.97569477 3.65373117 31.3697052 3.70530701 C32.85780251 3.73677442 34.34600296 3.76380662 35.83427429 3.78553772 C40.62203394 3.87908125 45.27514133 4.18673936 50 5 C50.495 5.99 50.495 5.99 51 7 C50.44014404 6.93433838 49.88028809 6.86867676 49.3034668 6.80102539 C39.49577985 5.77513248 29.66333776 5.65612988 19.8125 5.4375 C17.98371598 5.39421613 16.15493981 5.35059904 14.32617188 5.30664062 C9.88419582 5.20058499 5.44213779 5.09903971 1 5 C0.34 6.32 -0.32 7.64 -1 9 C-0.67 6.03 -0.34 3.06 0 0 Z " fill="#D1666E" transform="translate(31,0)"/>
<path d="M0 0 C0.99 2.97 1.98 5.94 3 9 C-0.0109362 6.9927092 -0.63016497 6.16115776 -2 3 C-7.62394845 7.24665495 -10.89872737 11.60737612 -14.421875 17.70703125 C-16 20 -16 20 -19 21 C-15.94503533 14.36012782 -8.05922647 0 0 0 Z " fill="#F1D5CC" transform="translate(55,77)"/>
<path d="M0 0 C1.32 0 2.64 0 4 0 C3.95359375 0.60328125 3.9071875 1.2065625 3.859375 1.828125 C3.52189688 7.08413333 3.52189688 7.08413333 6 11.5625 C6.66 12.036875 7.32 12.51125 8 13 C7.67 13.99 7.34 14.98 7 16 C1.125 11.25 1.125 11.25 0 9 C-0.06950541 7.45976004 -0.08452357 5.91665012 -0.0625 4.375 C-0.05347656 3.55773437 -0.04445313 2.74046875 -0.03515625 1.8984375 C-0.02355469 1.27195313 -0.01195313 0.64546875 0 0 Z " fill="#EBBFB4" transform="translate(27,0)"/>
<path d="M0 0 C11.86746041 0.42232955 11.86746041 0.42232955 17 5 C17 5.66 17 6.32 17 7 C11.75614911 8.7479503 7.52677733 9.19392201 2 9 C2 8.67 2 8.34 2 8 C7.445 7.01 7.445 7.01 13 6 C12.67 5.34 12.34 4.68 12 4 C9.19521805 3.08514427 9.19521805 3.08514427 5.9375 2.375 C4.83277344 2.11460938 3.72804687 1.85421875 2.58984375 1.5859375 C1.30787109 1.29589844 1.30787109 1.29589844 0 1 C0 0.67 0 0.34 0 0 Z " fill="#E5A79B" transform="translate(45,112)"/>
<path d="M0 0 C0.763125 0.37125 1.52625 0.7425 2.3125 1.125 C3.6428125 1.558125 3.6428125 1.558125 5 2 C5.99 1.34 6.98 0.68 8 0 C10.9375 -0.375 10.9375 -0.375 14 0 C16.375 2 16.375 2 18 4 C17.67 4.66 17.34 5.32 17 6 C16.2575 5.505 15.515 5.01 14.75 4.5 C11.93681812 2.68076525 11.93681812 2.68076525 8 3 C8 3.66 8 4.32 8 5 C4.75791433 4.64950425 3.38472296 4.43778819 1.1875 1.9375 C0.795625 1.298125 0.40375 0.65875 0 0 Z " fill="#E99F83" transform="translate(86,12)"/>
<path d="M0 0 C2.6875 0.3125 2.6875 0.3125 5 1 C5 2.65 5 4.3 5 6 C3.35 6.33 1.7 6.66 0 7 C-0.99 5.68 -1.98 4.36 -3 3 C-1.8125 1.4375 -1.8125 1.4375 0 0 Z " fill="#FCFCFB" transform="translate(51,45)"/>
<path d="M0 0 C3.98189814 3.7197447 6.95820659 7.5964288 9.875 12.1875 C10.29007813 12.81591797 10.70515625 13.44433594 11.1328125 14.09179688 C12.15612792 15.6864634 13.08679627 17.33982087 14 19 C13.67 19.66 13.34 20.32 13 21 C12.731875 20.195625 12.46375 19.39125 12.1875 18.5625 C11.795625 17.716875 11.40375 16.87125 11 16 C10.01 15.67 9.02 15.34 8 15 C5.92469613 12.07920195 5 10.62453269 5 7 C4.01 6.67 3.02 6.34 2 6 C0.8125 2.9375 0.8125 2.9375 0 0 Z " fill="#E99F85" transform="translate(104,18)"/>
<path d="M0 0 C1.96048352 0.2548029 3.91840673 0.52936944 5.875 0.8125 C7.51082031 1.03873047 7.51082031 1.03873047 9.1796875 1.26953125 C12 2 12 2 14 5 C9.82262526 6.59138085 6.46839215 7.21278058 2 7 C4 5 4 5 7.625 4.875 C9.295625 4.936875 9.295625 4.936875 11 5 C11 4.34 11 3.68 11 3 C10.37351562 2.95101562 9.74703125 2.90203125 9.1015625 2.8515625 C8.28429688 2.77679688 7.46703125 2.70203125 6.625 2.625 C5.40683594 2.52058594 5.40683594 2.52058594 4.1640625 2.4140625 C2 2 2 2 0 0 Z " fill="#D1666E" transform="translate(45,113)"/>
<path d="M0 0 C3.465 1.98 3.465 1.98 7 4 C7 5.65 7 7.3 7 9 C5.68 9 4.36 9 3 9 C0 3.375 0 3.375 0 0 Z " fill="#E5A79B" transform="translate(17,68)"/>
<path d="M0 0 C-1.98 2.31 -3.96 4.62 -6 7 C-6.33 5.68 -6.66 4.36 -7 3 C-8.98 3 -10.96 3 -13 3 C-13 2.67 -13 2.34 -13 2 C-8.46298506 0.54815522 -4.81938524 -0.23509196 0 0 Z " fill="#DA7267" transform="translate(93,109)"/>
<path d="M0 0 C2.125 0.375 2.125 0.375 4 1 C4.33 2.65 4.66 4.3 5 6 C4.67 5.01 4.34 4.02 4 3 C2.68 3.33 1.36 3.66 0 4 C-0.33 5.98 -0.66 7.96 -1 10 C-1.66 9.34 -2.32 8.68 -3 8 C-2.54545455 2.54545455 -2.54545455 2.54545455 0 0 Z " fill="#D1666E" transform="translate(20,57)"/>
<path d="M0 0 C7.625 0.875 7.625 0.875 11 2 C10.67 2.99 10.34 3.98 10 5 C8.02 5 6.04 5 4 5 C4.33 4.34 4.66 3.68 5 3 C2.525 2.01 2.525 2.01 0 1 C0 0.67 0 0.34 0 0 Z " fill="#EF8D5A" transform="translate(76,106)"/>
<path d="M0 0 C1.93627769 -0.10807131 3.87427756 -0.1856225 5.8125 -0.25 C7.43091797 -0.31960937 7.43091797 -0.31960937 9.08203125 -0.390625 C10.04496094 -0.26171875 11.00789063 -0.1328125 12 0 C12.99 1.32 13.98 2.64 15 4 C10.05 3.01 5.1 2.02 0 1 C0 0.67 0 0.34 0 0 Z " fill="#F1D5CC" transform="translate(45,111)"/>
<path d="M0 0 C0.66 0 1.32 0 2 0 C1.67 1.98 1.34 3.96 1 6 C1.99 6.33 2.98 6.66 4 7 C1.69 6.67 -0.62 6.34 -3 6 C-2.42655063 3.13275314 -2.1385485 2.1385485 0 0 Z " fill="#CA5C66" transform="translate(75,113)"/>
<path d="M0 0 C1.65 0.33 3.3 0.66 5 1 C3.75 3 3.75 3 2 5 C0.68 5 -0.64 5 -2 5 C-1.34 3.35 -0.68 1.7 0 0 Z " fill="#FCFCFB" transform="translate(71,54)"/>
<path d="M0 0 C3.0831351 1.19899698 6.06279492 2.47700477 9 4 C7.35 5.32 5.7 6.64 4 8 C3.34 7.67 2.68 7.34 2 7 C2.66 5.68 3.32 4.36 4 3 C2.68 2.34 1.36 1.68 0 1 C0 0.67 0 0.34 0 0 Z " fill="#E5A79B" transform="translate(73,105)"/>
<path d="M0 0 C0.66 0 1.32 0 2 0 C1.34 2.31 0.68 4.62 0 7 C-0.99 7 -1.98 7 -3 7 C-1.125 1.125 -1.125 1.125 0 0 Z " fill="#EE5A32" transform="translate(16,52)"/>
<path d="M0 0 C-0.33 1.32 -0.66 2.64 -1 4 C-2.32 4.33 -3.64 4.66 -5 5 C-5 4.01 -5 3.02 -5 2 C-2 0 -2 0 0 0 Z " fill="#BE4958" transform="translate(55,65)"/>
</svg>
