<?xml version="1.0" encoding="UTF-8"?>
<svg version="1.1" xmlns="http://www.w3.org/2000/svg" width="128" height="128">
<path d="M0 0 C42.24 0 84.48 0 128 0 C128 42.24 128 84.48 128 128 C85.76 128 43.52 128 0 128 C0 85.76 0 43.52 0 0 Z " fill="#D3D4D2" transform="translate(0,0)"/>
<path d="M0 0 C42.24 0 84.48 0 128 0 C128 42.24 128 84.48 128 128 C114.47 128 100.94 128 87 128 C86.1346729 121.94271028 85.98497782 119.84736461 87.5 114.375 C88.66378574 110.15126037 89.32846025 107.23085709 88 103 C87.34 102.01 86.68 101.02 86 100 C84.58828393 93.30969341 85.07089706 86.71812892 86 80 C87.5 81.375 87.5 81.375 89 83 C89 83.66 89 84.32 89 85 C90.0725 84.505 91.145 84.01 92.25 83.5 C95.25416808 82.11346089 96.45934895 82 100 82 C100.495 85.96 100.495 85.96 101 90 C102.485 90.495 102.485 90.495 104 91 C104.06058594 89.86820312 104.12117188 88.73640625 104.18359375 87.5703125 C104.26799917 86.08852855 104.35264717 84.6067584 104.4375 83.125 C104.47681641 82.37863281 104.51613281 81.63226563 104.55664062 80.86328125 C104.88671875 75.2265625 104.88671875 75.2265625 106 73 C106.36035236 69.86620727 106.46739199 66.71234249 106.625 63.5625 C106.70234375 62.25442383 106.70234375 62.25442383 106.78125 60.91992188 C106.82507813 60.08138672 106.86890625 59.24285156 106.9140625 58.37890625 C106.9548291 57.6113501 106.9955957 56.84379395 107.03759766 56.05297852 C107.09856906 53.79770092 107.09856906 53.79770092 106 51 C106.99 50.01 106.99 50.01 108 49 C109.32 49 110.64 49 112 49 C110.91215032 45.75016865 110.91215032 45.75016865 109 43 C108.51684025 39.52124983 108.80081646 38.27885696 110.875 35.375 C111.57625 34.59125 112.2775 33.8075 113 33 C115.24030547 29.6395418 115.21655892 28.10977232 114.609375 24.19921875 C113.5444002 20.355752 111.61530463 17.00301826 109 14 C106.92602703 12.77169902 106.92602703 12.77169902 105 12 C104.34 13.65 103.68 15.3 103 17 C101.1875 16.875 101.1875 16.875 99 16 C97.25 12.9375 97.25 12.9375 96 10 C88.59767577 10.70498326 83.81534726 14.51585451 79 20 C77.680982 22.66533035 77.680982 22.66533035 77 25 C75.68 25 74.36 25 73 25 C72.731875 24.21625 72.46375 23.4325 72.1875 22.625 C71.15185568 19.71885077 71.15185568 19.71885077 68 18 C68 17.34 68 16.68 68 16 C63.24119093 13.99629092 59.23729896 13.8508214 54.171875 14.02734375 C52 14 52 14 50 13 C48.00039988 12.960008 45.99952758 12.95653201 44 13 C43.731875 14.010625 43.46375 15.02125 43.1875 16.0625 C40.4248746 25.65386847 40.4248746 25.65386847 37.515625 28.40234375 C34.55066626 31.52777706 33.73844456 35.84786877 33 40 C33.64299855 43.85799129 34.35332361 45.39027655 37.1875 48.0625 C39 50 39 50 39.0625 52.25 C37.57093425 56.11052312 35.70879754 59.84495546 33 63 C32.01 63 31.02 63 30 63 C29.34 62.01 28.68 61.02 28 60 C25.89689618 59.59802871 25.89689618 59.59802871 23.5625 59.75 C22.78003906 59.76546875 21.99757813 59.7809375 21.19140625 59.796875 C18.82318041 59.9326519 18.82318041 59.9326519 16 61 C15.34 61.99 14.68 62.98 14 64 C12.01171875 64.44140625 12.01171875 64.44140625 9.6875 64.5625 C5.75532655 64.78280853 3.93085514 65.42765794 0 67 C0 44.89 0 22.78 0 0 Z " fill="#FBFCFB" transform="translate(0,0)"/>
<path d="M0 0 C3.87206399 0.57363911 6.18465063 2.34105893 9 5 C9 5.99 9 6.98 9 8 C8.34 8.33 7.68 8.66 7 9 C7 10.32 7 11.64 7 13 C7.433125 12.505 7.86625 12.01 8.3125 11.5 C10 10 10 10 13 10 C12.67 11.65 12.34 13.3 12 15 C11.01 15.33 10.02 15.66 9 16 C9.05800781 16.75925781 9.11601563 17.51851562 9.17578125 18.30078125 C9.31049147 21.26825493 9.36116153 24.04978894 9 27 C6.54305747 29.26297338 5.3203746 30 2 30 C1.505 29.01 1.505 29.01 1 28 C-0.32 28 -1.64 28 -3 28 C-3.41572266 29.78857422 -3.41572266 29.78857422 -3.83984375 31.61328125 C-4.20565523 33.17970477 -4.57154471 34.74611007 -4.9375 36.3125 C-5.11990234 37.09818359 -5.30230469 37.88386719 -5.49023438 38.69335938 C-5.66748047 39.45068359 -5.84472656 40.20800781 -6.02734375 40.98828125 C-6.27085571 42.03302612 -6.27085571 42.03302612 -6.51928711 43.09887695 C-6.93765565 44.7534406 -7.46031369 46.38094108 -8 48 C-5.54665956 47.43798169 -5.54665956 47.43798169 -3 46 C-1.31849973 43.17218152 -1.31849973 43.17218152 -0.1875 39.875 C0.23144531 38.77929688 0.65039062 37.68359375 1.08203125 36.5546875 C1.38496094 35.71164063 1.68789062 34.86859375 2 34 C2.99 34 3.98 34 5 34 C7.20573996 36.20573996 6.24610777 41.62580511 6.25976562 44.69335938 C6.19423972 50.32354673 5.23289113 54.78992069 3 60 C2.38125 59.8040625 1.7625 59.608125 1.125 59.40625 C0.42375 59.2721875 -0.2775 59.138125 -1 59 C-1.99 59.7425 -1.99 59.7425 -3 60.5 C-5 62 -5 62 -7.125 62 C-9.79366778 60.57671052 -10.1357687 58.80875171 -11 56 C-11.99 56 -12.98 56 -14 56 C-15.10865172 59.32595517 -15.03170342 61.69378175 -14.9375 65.1875 C-14.88363814 70.53777835 -15.40326258 74.91039947 -17 80 C-17.66 80 -18.32 80 -19 80 C-19.474375 79.030625 -19.94875 78.06125 -20.4375 77.0625 C-21.70193947 74.19522563 -21.70193947 74.19522563 -23 73 C-23.969375 73.020625 -24.93875 73.04125 -25.9375 73.0625 C-29 73 -29 73 -31 71 C-32.63619454 65.2733191 -31.45076845 62.3248709 -28.9140625 57.27734375 C-27.93704025 54.84313874 -27.81350182 53.22419257 -27.9375 50.625 C-28 47 -28 47 -26.75 45.25 C-26.1725 44.8375 -25.595 44.425 -25 44 C-21.84343435 41.40047535 -21.0737064 40.368532 -20.25 36.25 C-20.1675 35.1775 -20.085 34.105 -20 33 C-20.99 33.66 -21.98 34.32 -23 35 C-24.134375 34.979375 -25.26875 34.95875 -26.4375 34.9375 C-30.29774277 35.00522356 -31.21621068 35.5255206 -34 38 C-34.66 38 -35.32 38 -36 38 C-36.268125 38.639375 -36.53625 39.27875 -36.8125 39.9375 C-38 42 -38 42 -41 43 C-41 44.98 -41 46.96 -41 49 C-39.95199219 48.85691406 -39.95199219 48.85691406 -38.8828125 48.7109375 C-37.97273438 48.60007813 -37.06265625 48.48921875 -36.125 48.375 C-35.22007813 48.25898437 -34.31515625 48.14296875 -33.3828125 48.0234375 C-32.20332031 48.01183594 -32.20332031 48.01183594 -31 48 C-30.34 48.66 -29.68 49.32 -29 50 C-29.639375 50.495 -30.27875 50.99 -30.9375 51.5 C-33.12767311 54.15475529 -33.28968446 54.86307503 -33.5625 58.125 C-33.706875 59.40375 -33.85125 60.6825 -34 62 C-35.485 62.99 -35.485 62.99 -37 64 C-38.65 63.01 -40.3 62.02 -42 61 C-41.505 65.95 -41.505 65.95 -41 71 C-41.969375 71.45375 -42.93875 71.9075 -43.9375 72.375 C-47.07079582 73.65786221 -47.07079582 73.65786221 -48 76 C-46.68 76.33 -45.36 76.66 -44 77 C-44 77.66 -44 78.32 -44 79 C-45.32 79 -46.64 79 -48 79 C-48.33 77.68 -48.66 76.36 -49 75 C-53.455 75.495 -53.455 75.495 -58 76 C-58.37125 75.154375 -58.7425 74.30875 -59.125 73.4375 C-61.75022268 68.62459176 -64.47718392 63.82265742 -69.875 62.0625 C-70.926875 62.0315625 -70.926875 62.0315625 -72 62 C-72.99 64.97 -73.98 67.94 -75 71 C-77.1875 70.875 -77.1875 70.875 -80 70 C-81.69088222 68.02043058 -83.35830472 66.02054804 -85 64 C-86.9519572 63.0950739 -86.9519572 63.0950739 -89 63 C-92.97982861 62.38771868 -96.01726648 61.81229161 -99 59 C-99.4348094 55.63022715 -99.28526214 52.37877152 -99 49 C-94.5770107 46.39157042 -91.07698477 45.61459004 -86.05078125 45.40625 C-83.89545001 45.17800632 -83.89545001 45.17800632 -82.4921875 43.48046875 C-81 42 -81 42 -78.95703125 41.70703125 C-76.97135417 41.8046875 -74.98567708 41.90234375 -73 42 C-72.34 43.65 -71.68 45.3 -71 47 C-65.8935488 44.91099724 -63.80345669 42.70580231 -61 38 C-60.34 37.34 -59.68 36.68 -59 36 C-58.49904977 33.12693772 -58.49904977 33.12693772 -59 30 C-59.680625 29.175 -60.36125 28.35 -61.0625 27.5 C-63 25 -63 25 -62.9375 22.125 C-60.17931034 12.93103448 -60.17931034 12.93103448 -56.625 10.125 C-54.01595086 9.00683608 -51.80254017 8.41012783 -49 8 C-48.16726562 7.83242188 -47.33453125 7.66484375 -46.4765625 7.4921875 C-41.90870654 6.84550227 -37.42040316 6.77669314 -32.8125 6.75 C-31.91080078 6.729375 -31.00910156 6.70875 -30.08007812 6.6875 C-29.21447266 6.68234375 -28.34886719 6.6771875 -27.45703125 6.671875 C-26.67303955 6.6625293 -25.88904785 6.65318359 -25.08129883 6.64355469 C-22.47758452 7.0894694 -21.76685855 8.1065252 -20 10 C-16.89160979 10.7269226 -16.89160979 10.7269226 -14 11 C-13.731875 10.38125 -13.46375 9.7625 -13.1875 9.125 C-12 7 -12 7 -9 5 C-6.51953125 4.8046875 -6.51953125 4.8046875 -3.8125 4.875 C-2.91144531 4.89304687 -2.01039062 4.91109375 -1.08203125 4.9296875 C-0.39496094 4.95289063 0.29210937 4.97609375 1 5 C0.505 2.525 0.505 2.525 0 0 Z " fill="#ADAEA9" transform="translate(99,20)"/>
<path d="M0 0 C1.0650015 1.96615661 2.06833174 3.96726926 3 6 C3.99 6.33 4.98 6.66 6 7 C6.33 5.35 6.66 3.7 7 2 C8.32 2 9.64 2 11 2 C15.34291839 6.34291839 18.59510939 11.18677654 19.26171875 17.46484375 C18.86768801 21.28164902 16.76208375 23.12501495 14.3125 25.9375 C12.67795728 28.50606714 12.60625496 30.00753772 13 33 C13.66 33.66 14.32 34.32 15 35 C15 36.32 15 37.64 15 39 C13.35 39.66 11.7 40.32 10 41 C10.185625 42.216875 10.37125 43.43375 10.5625 44.6875 C11.26555597 50.90607958 11.85115321 59.29769358 9 65 C8.76862284 68.44127621 8.60455322 71.87577869 8.48242188 75.32226562 C8.39109432 77.21946625 8.20286566 79.11146711 8 81 C7.01 81.495 7.01 81.495 6 82 C3 80 3 80 2.48828125 78.0546875 C2.32552083 76.03645833 2.16276042 74.01822917 2 72 C1.46375 72.309375 0.9275 72.61875 0.375 72.9375 C-2.3984957 74.17827439 -5.00042837 74.5909675 -8 75 C-8.66 73.68 -9.32 72.36 -10 71 C-10.07347656 71.93972656 -10.07347656 71.93972656 -10.1484375 72.8984375 C-10.22320312 73.71570313 -10.29796875 74.53296875 -10.375 75.375 C-10.44460937 76.18710938 -10.51421875 76.99921875 -10.5859375 77.8359375 C-11 80 -11 80 -13 82 C-13.22262606 79.91814549 -13.42757926 77.83439574 -13.625 75.75 C-13.74101563 74.58984375 -13.85703125 73.4296875 -13.9765625 72.234375 C-13.99955595 69.06127909 -13.69705154 67.61682756 -12 65 C-10.02 65.495 -10.02 65.495 -8 66 C-7.67 67.65 -7.34 69.3 -7 71 C-4.37389294 70.56231549 -2.2397597 70.12693161 0.125 68.875 C2 68 2 68 5 69 C7.63537118 61.09388645 7.17981101 53.23134837 7 45 C6.34 44.67 5.68 44.34 5 44 C4.67386719 44.84304687 4.34773438 45.68609375 4.01171875 46.5546875 C3.57472656 47.65039062 3.13773437 48.74609375 2.6875 49.875 C2.25824219 50.96554688 1.82898438 52.05609375 1.38671875 53.1796875 C0 56 0 56 -3 58 C-3.99 58 -4.98 58 -6 58 C-3.50771605 42.3132716 -3.50771605 42.3132716 -1 38 C1.1015625 37.2578125 1.1015625 37.2578125 3 37 C3.33 37.99 3.66 38.98 4 40 C4.598125 39.505 5.19625 39.01 5.8125 38.5 C8 37 8 37 11 37 C10.814375 35.741875 10.62875 34.48375 10.4375 33.1875 C9.99267239 30.17255732 10.00156154 28.99531539 11 26 C12 25 13 24 14 23 C14.495 21.515 14.495 21.515 15 20 C13.824375 20.7115625 13.824375 20.7115625 12.625 21.4375 C11.11051322 22.33898023 9.5764103 23.21179485 8 24 C8 22.35 8 20.7 8 19 C8.99 18.67 9.98 18.34 11 18 C9.75616297 14.26848892 8.15652193 13.25465852 5 11 C4.01 10.67 3.02 10.34 2 10 C2.57344937 12.86724686 2.8614515 13.8614515 5 16 C4.21496094 15.93039063 3.42992188 15.86078125 2.62109375 15.7890625 C-4.92425827 15.34460422 -4.92425827 15.34460422 -11.25 19 C-12.19563451 19.97265264 -13.1242882 20.96394661 -14 22 C-15.65 21.34 -17.3 20.68 -19 20 C-19 19.34 -19 18.68 -19 18 C-22.54164915 17.9707933 -26.08326697 17.95313186 -29.625 17.9375 C-30.62402344 17.92912109 -31.62304688 17.92074219 -32.65234375 17.91210938 C-37.55515995 17.89587488 -42.18098338 17.97500281 -47 19 C-47.9075 19.144375 -48.815 19.28875 -49.75 19.4375 C-52.18400369 19.84100652 -52.18400369 19.84100652 -54 22 C-54.99 22 -55.98 22 -57 22 C-59.9089519 28.87740257 -59.9089519 28.87740257 -59 36 C-58.2265625 36.9590625 -58.2265625 36.9590625 -57.4375 37.9375 C-55.39930984 40.8618598 -55.44000907 42.50005671 -56 46 C-57.6167983 48.26351762 -59.07916329 50.04775996 -61 52 C-61.86625 52.94875 -62.7325 53.8975 -63.625 54.875 C-66 57 -66 57 -69 57 C-69.66 55.68 -70.32 54.36 -71 53 C-72.8871875 52.9071875 -72.8871875 52.9071875 -74.8125 52.8125 C-75.52019531 52.77769531 -76.22789063 52.74289063 -76.95703125 52.70703125 C-79.56809691 53.08146705 -80.18200761 54.16316831 -82 56 C-84.05078125 56.44140625 -84.05078125 56.44140625 -86.3125 56.5625 C-90.13970487 56.86267293 -93.39393831 57.6130532 -97 59 C-96 56 -96 56 -94.2265625 54.83984375 C-91.1585867 53.68262481 -88.27352934 53.60876978 -85.0234375 53.44140625 C-82.6043485 53.1591215 -82.6043485 53.1591215 -81 50 C-78.11788698 49.03929566 -76.30149956 48.89418117 -73.3125 48.9375 C-72.10013672 48.95103516 -72.10013672 48.95103516 -70.86328125 48.96484375 C-70.24839844 48.97644531 -69.63351563 48.98804688 -69 49 C-68.34 50.32 -67.68 51.64 -67 53 C-62.97089204 51.65696401 -62.05475512 49.61395051 -59.95703125 46.05859375 C-58.81991916 43.97198147 -58.81991916 43.97198147 -58.9375 41.3125 C-60.23437345 38.48989309 -62.03461205 36.39531657 -64 34 C-65.85213482 29.12650558 -63.90124821 24.61731707 -62 20 C-60 17.8125 -60 17.8125 -58 16 C-55.76706897 11.44825598 -54.29422048 6.87821565 -53 2 C-50.09389639 1.9324162 -47.41712684 1.91443552 -44.5625 2.5 C-41.87216609 3.12560472 -41.87216609 3.12560472 -38.5625 2.875 C-33.16175683 3.06449976 -30.18803395 4.99275383 -26.125 8.4375 C-24 11 -24 11 -24 15 C-22.04105639 14.88693303 -22.04105639 14.88693303 -20 14 C-19.731875 13.29875 -19.46375 12.5975 -19.1875 11.875 C-16.98756122 6.54883244 -12.65179639 3.05714969 -7.875 0 C-4.59237853 -1.14178138 -3.17060192 -1.45676305 0 0 Z " fill="#D3D4D1" transform="translate(97,10)"/>
<path d="M0 0 C1.98 0.99 1.98 0.99 4 2 C4.33 2.99 4.66 3.98 5 5 C6.051875 4.731875 7.10375 4.46375 8.1875 4.1875 C12 4 12 4 14.875 6.375 C15.57625 7.24125 16.2775 8.1075 17 9 C19.08058657 11.08058657 23.41960849 10.38043408 26.23828125 10.5234375 C29.33217908 11.05732086 30.65232749 11.97614439 33 14 C34.66324401 15.00568242 36.32936253 16.00664799 38 17 C39 18 39 18 39.02734375 20.40625 C38.98287109 21.93765625 38.98287109 21.93765625 38.9375 23.5 C38.8855443 30.77379835 39.1539461 37.27284539 44 43 C44 43.99 44 44.98 44 46 C29.48 46 14.96 46 0 46 C0 30.82 0 15.64 0 0 Z " fill="#FBFCFB" transform="translate(0,82)"/>
<path d="M0 0 C1.5 1.3125 1.5 1.3125 3 3 C3.886875 3.495 4.77375 3.99 5.6875 4.5 C6.450625 4.995 7.21375 5.49 8 6 C8 6.99 8 7.98 8 9 C7.01 9 6.02 9 5 9 C4.195625 8.175 3.39125 7.35 2.5625 6.5 C0.11947885 3.53445077 0.11947885 3.53445077 -4 4 C-4.33 4.66 -4.66 5.32 -5 6 C-4.236875 6.2475 -3.47375 6.495 -2.6875 6.75 C0.26988327 8.1255271 1.44791483 9.15451051 3 12 C2.67 12.99 2.34 13.98 2 15 C-0.0625 15.4375 -0.0625 15.4375 -3 15 C-4.06122704 13.84845577 -5.07719547 12.65464089 -6.0625 11.4375 C-8.42418779 8.8724881 -9.51642439 8.07275586 -13.01171875 7.546875 C-16.23217797 7.68672606 -18.93714111 7.99121935 -22 9 C-24.33093346 11.82127058 -24.33093346 11.82127058 -25 15 C-25.33 15.33 -25.66 15.66 -26 16 C-26.5029191 17.92155793 -26.92839773 19.86371116 -27.3125 21.8125 C-27.53550781 22.87082031 -27.75851563 23.92914063 -27.98828125 25.01953125 C-28.31230271 28.09665025 -28.31230271 28.09665025 -26.18359375 30.26953125 C-25.46300781 30.84058594 -24.74242187 31.41164063 -24 32 C-21.75 33.875 -21.75 33.875 -20 36 C-19.75 39.25 -19.75 39.25 -20 42 C-17.69 42.33 -15.38 42.66 -13 43 C-11.875 48.625 -11.875 48.625 -13 52 C-15.31 52 -17.62 52 -20 52 C-19.9175 53.258125 -19.835 54.51625 -19.75 55.8125 C-19.76379393 59.70928484 -19.76379393 59.70928484 -21.625 62 C-24.62934544 63.26498755 -26.76767442 63.34386442 -30 63 C-30.99 62.34 -31.98 61.68 -33 61 C-32.649375 60.278125 -32.29875 59.55625 -31.9375 58.8125 C-30.89590983 55.6877295 -31.10903428 54.11838004 -32 51 C-32.99 51.495 -32.99 51.495 -34 52 C-34 54.31 -34 56.62 -34 59 C-36.25 58.8125 -36.25 58.8125 -39 58 C-39.5775 57.2575 -40.155 56.515 -40.75 55.75 C-43.85728413 51.95220829 -47.66476473 50.17688096 -52 48 C-51.92265625 49.18142578 -51.92265625 49.18142578 -51.84375 50.38671875 C-51.8953125 51.24910156 -51.946875 52.11148438 -52 53 C-54.5 54.8125 -54.5 54.8125 -57 56 C-57.928125 55.071875 -57.928125 55.071875 -58.875 54.125 C-62.49697173 51.66205923 -65.33066695 51.13650946 -69.59765625 50.4921875 C-72.02283862 49.99532087 -73.84831624 49.20255767 -76 48 C-76 46.02 -76 44.04 -76 42 C-71.24705747 39.04546816 -67.14343519 38.53784913 -61.5859375 38.2109375 C-59.03397215 38.0822019 -59.03397215 38.0822019 -56.7734375 37.39453125 C-56.18820313 37.26433594 -55.60296875 37.13414063 -55 37 C-53.25 38.3125 -53.25 38.3125 -52 40 C-52 40.66 -52 41.32 -52 42 C-48.59687262 40.94124926 -45.98646769 39.99097846 -43 38 C-41 38.125 -41 38.125 -39 39 C-37.25 41.0625 -37.25 41.0625 -36 43 C-33.525 42.505 -33.525 42.505 -31 42 C-31.33 38.7 -31.66 35.4 -32 32 C-33.98 32.66 -35.96 33.32 -38 34 C-37.21654285 32.82780457 -36.42297164 31.66236332 -35.625 30.5 C-35.18414062 29.8503125 -34.74328125 29.200625 -34.2890625 28.53125 C-33.65097656 27.77328125 -33.65097656 27.77328125 -33 27 C-32.34 27 -31.68 27 -31 27 C-31.680625 25.948125 -32.36125 24.89625 -33.0625 23.8125 C-34.47727368 21.31908682 -35.00705182 20.29617647 -34.9375 17.375 C-32.00093233 9.93569523 -26.55285153 5.36856768 -20 1 C-17.6953125 1.09375 -17.6953125 1.09375 -15.125 1.5 C-9.5153884 2.20832541 -5.43645769 -0.71532338 0 0 Z " fill="#7F807D" transform="translate(76,29)"/>
<path d="M0 0 C4.54500908 -0.53025106 7.11054947 -0.34589743 11.375 1.3125 C14.79834371 4.81735189 14.8943977 7.5176058 15.50390625 12.26171875 C15.98501898 14.91730947 16.59957594 16.40198017 18.0625 18.625 C20 22 20 22 21 31 C11.43 31 1.86 31 -8 31 C-10.26094571 26.47810858 -10.26094571 26.47810858 -10.1875 22.8125 C-10.17203125 22.03003906 -10.1565625 21.24757813 -10.140625 20.44140625 C-10.00138872 18.02410973 -9.74220759 15.65157693 -9.4375 13.25 C-9.01922222 9.93282484 -9.05487699 7.2554237 -10 4 C-6.97265625 3.75585938 -6.97265625 3.75585938 -3.9453125 3.51171875 C-1.60480784 3.12606964 -1.60480784 3.12606964 0 0 Z " fill="#FBFCFB" transform="translate(59,97)"/>
<path d="M0 0 C-0.33 1.65 -0.66 3.3 -1 5 C-0.01 5.66 0.98 6.32 2 7 C2 7.99 2 8.98 2 10 C1.113125 10.391875 0.22625 10.78375 -0.6875 11.1875 C-4.27015974 13.14782326 -6.37696613 14.8720428 -9 18 C-10.12942584 21.60957835 -10.12942584 21.60957835 -10.625 25.5 C-11.63504628 32.05874206 -13.44694307 36.10573544 -17.5 41.25 C-19.55902169 44.02998477 -20.53367009 46.48062996 -21.4375 49.8125 C-22.11328125 52.12109375 -22.11328125 52.12109375 -23 54 C-26.125 55.375 -26.125 55.375 -29 56 C-29.33 56.99 -29.66 57.98 -30 59 C-31.32 58.67 -32.64 58.34 -34 58 C-32.62713665 49.48824721 -29.82862496 40.4724738 -23.3125 34.5625 C-20.08777034 30.98915092 -20.07812376 28.76554929 -20 24 C-20.66 23.34 -21.32 22.68 -22 22 C-22.125 19.375 -22.125 19.375 -22 17 C-20.68 16.67 -19.36 16.34 -18 16 C-18 14.85246339 -18.09948796 13.70665653 -18.1875 12.5625 C-18.125625 11.716875 -18.06375 10.87125 -18 10 C-17.01 9.34 -16.02 8.68 -15 8 C-14.608125 7.030625 -14.21625 6.06125 -13.8125 5.0625 C-11.60907506 1.33947165 -9.97428969 0.73659926 -6.03515625 -0.65234375 C-3.72157049 -1.04756281 -2.21434411 -0.71829954 0 0 Z " fill="#7F807D" transform="translate(103,30)"/>
<path d="M0 0 C42.24 0 84.48 0 128 0 C128 1.32 128 2.64 128 4 C122.44156352 4.78877394 117.07314224 5.14455937 111.46362305 5.12939453 C110.65107056 5.13114685 109.83851807 5.13289917 109.00134277 5.13470459 C106.33811247 5.13907464 103.67494963 5.13620144 101.01171875 5.1328125 C99.14378344 5.13348713 97.27584822 5.13445848 95.40791321 5.13571167 C91.50020509 5.13718225 87.5925199 5.13505539 83.68481445 5.13037109 C78.70213072 5.12468611 73.71950101 5.12794909 68.73681927 5.13394356 C64.88041282 5.13757661 61.02401893 5.13639782 57.16761208 5.13381577 C55.33179531 5.13315346 53.49597736 5.13395031 51.66016197 5.13629532 C34.26506382 5.15363619 34.26506382 5.15363619 26.2183075 4.19882202 C22.1754175 3.83646668 18.16290516 4.19090954 14.125 4.5 C4.43398599 5.2206925 4.43398599 5.2206925 0 4 C0 2.68 0 1.36 0 0 Z " fill="#D2D3D1" transform="translate(0,0)"/>
<path d="M0 0 C0.99 0.66 1.98 1.32 3 2 C3.30878638 4.61862963 3.42484966 6.94657996 3.375 9.5625 C3.36919922 10.28179687 3.36339844 11.00109375 3.35742188 11.7421875 C3.22183783 17.31619838 2.20876796 21.8462081 0 27 C-0.928125 26.70609375 -0.928125 26.70609375 -1.875 26.40625 C-2.57625 26.2721875 -3.2775 26.138125 -4 26 C-4.66 26.495 -5.32 26.99 -6 27.5 C-8 29 -8 29 -10.125 29 C-12.79366778 27.57671052 -13.1357687 25.80875171 -14 23 C-14.99 23 -15.98 23 -17 23 C-17.33 23.99 -17.66 24.98 -18 26 C-18.66 26 -19.32 26 -20 26 C-19.88759583 21.3914291 -18.61543768 19.27090202 -15.4375 16.125 C-14.30330262 15.07067568 -13.16107206 14.02465367 -12 13 C-11.67 13.66 -11.34 14.32 -11 15 C-8.54455989 14.43391002 -8.54455989 14.43391002 -6 13 C-4.3535911 10.20462304 -4.3535911 10.20462304 -3.25 6.9375 C-1.03047619 1.03047619 -1.03047619 1.03047619 0 0 Z " fill="#AEAFAA" transform="translate(102,53)"/>
<path d="M0 0 C0.66 0 1.32 0 2 0 C3 3 3 3 1.875 6.5625 C-0.25651562 10.47027864 -1.05791506 10.54765292 -5 12 C-5.89386164 14.54775306 -5.89386164 14.54775306 -6 17 C-6.845625 16.814375 -7.69125 16.62875 -8.5625 16.4375 C-12.27146026 15.96545051 -15.32553912 16.42361398 -19 17 C-20 16 -20 16 -20.375 13.125 C-20.25125 12.09375 -20.1275 11.0625 -20 10 C-17.6875 8.3125 -17.6875 8.3125 -15 7 C-13.97980427 6.0206121 -12.97850195 5.02104551 -12 4 C-9.2502987 1.34850232 -8.24984275 1.00846925 -4.3125 0.875 C-3.219375 0.91625 -2.12625 0.9575 -1 1 C-0.67 0.67 -0.34 0.34 0 0 Z " fill="#D3D4D2" transform="translate(77,53)"/>
<path d="M0 0 C28.71 0 57.42 0 87 0 C78.62508043 5.58327971 67.35841917 4.12509955 57.75 3.6875 C55.79513672 3.61499023 55.79513672 3.61499023 53.80078125 3.54101562 C48.50130041 3.33355329 43.20819435 3.10387527 37.91992188 2.69775391 C36.61087891 2.59769043 35.30183594 2.49762695 33.953125 2.39453125 C32.78426758 2.2963208 31.61541016 2.19811035 30.41113281 2.09692383 C26.82076218 1.99490714 23.54282492 2.45395976 20 3 C18.32514349 2.71061348 16.65699012 2.37851372 15 2 C11.90798013 1.97189073 8.83259841 2.06382175 5.7421875 2.16015625 C3 2 3 2 0 0 Z " fill="#ACADA8" transform="translate(34,0)"/>
<path d="M0 0 C0.66 0.33 1.32 0.66 2 1 C2.78553616 9.99002494 2.78553616 9.99002494 -0.1875 13.8125 C-1.115625 14.534375 -2.04375 15.25625 -3 16 C-3.928125 16.928125 -4.85625 17.85625 -5.8125 18.8125 C-6.534375 19.534375 -7.25625 20.25625 -8 21 C-8.99 20.34 -9.98 19.68 -11 19 C-10.8125 16.25 -10.8125 16.25 -10 13 C-8.34211215 11.65576661 -6.67423683 10.32381517 -5 9 C-3.78092842 6.95212068 -2.77929641 4.87721625 -1.796875 2.70703125 C-1 1 -1 1 0 0 Z " fill="#7F807D" transform="translate(102,58)"/>
<path d="M0 0 C3.875 0.875 3.875 0.875 5 2 C5.13463985 4.49083723 5.11504184 6.59096234 4.4375 9 C3.87946914 11.55099822 4.4671008 13.4687288 5 16 C4.67 16.66 4.34 17.32 4 18 C3.01 18 2.02 18 1 18 C0.71125 17.195625 0.4225 16.39125 0.125 15.5625 C-0.73262568 12.8673532 -0.73262568 12.8673532 -3 12 C-3.875 9.3125 -3.875 9.3125 -4 6 C-2.0625 2.625 -2.0625 2.625 0 0 Z " fill="#ADAEA9" transform="translate(80,103)"/>
<path d="M0 0 C4.70588235 0.70588235 4.70588235 0.70588235 6 2 C6.43494682 8.19799214 5.44149915 12.30316864 3 18 C2.01 17.34 1.02 16.68 0 16 C-0.06581791 14.05837156 -0.11662304 12.11290982 -0.03515625 10.171875 C0.06192749 7.69556226 0.06192749 7.69556226 -0.5625 4.0625 C-0.706875 3.051875 -0.85125 2.04125 -1 1 C-0.67 0.67 -0.34 0.34 0 0 Z " fill="#ADAEA9" transform="translate(42,103)"/>
<path d="M0 0 C1.32 0.33 2.64 0.66 4 1 C4.66 3.31 5.32 5.62 6 8 C4.3125 8.8125 4.3125 8.8125 2 9 C-0.75 6.5625 -0.75 6.5625 -3 4 C-2.01 2.68 -1.02 1.36 0 0 Z " fill="#AAABA6" transform="translate(92,11)"/>
<path d="M0 0 C2.98704569 0.49784095 4.39324263 1.26216175 7 3 C6.67 4.32 6.34 5.64 6 7 C3.625 7.625 3.625 7.625 1 8 C-1 6 -1 6 -1.1875 3.4375 C-1 1 -1 1 0 0 Z " fill="#7F807D" transform="translate(60,49)"/>
<path d="M0 0 C-0.33 1.32 -0.66 2.64 -1 4 C-3.8125 4.625 -3.8125 4.625 -7 5 C-7.99 4.34 -8.98 3.68 -10 3 C-9.67 2.01 -9.34 1.02 -9 0 C-5.8033 -1.37001429 -3.30096158 -0.8252404 0 0 Z " fill="#FBFCFB" transform="translate(76,58)"/>
<path d="M0 0 C0 0.99 0 1.98 0 3 C-3.50776784 4.60355101 -6.14354879 5.22036864 -10 5 C-9.67 3.68 -9.34 2.36 -9 1 C-5.846632 0.29925156 -3.27275026 0 0 0 Z " fill="#FBFCFB" transform="translate(68,63)"/>
<path d="M0 0 C2.375 -0.125 2.375 -0.125 5 0 C5.66 0.66 6.32 1.32 7 2 C6.625 4.125 6.625 4.125 6 6 C4.35 5.67 2.7 5.34 1 5 C0.505 2.525 0.505 2.525 0 0 Z " fill="#D3D4D2" transform="translate(52,55)"/>
<path d="M0 0 C2.4375 0.6875 2.4375 0.6875 5 2 C5.8125 4.625 5.8125 4.625 6 7 C4.35 7 2.7 7 1 7 C0.67 4.69 0.34 2.38 0 0 Z " fill="#FBFCFB" transform="translate(30,85)"/>
<path d="M0 0 C0.66 0 1.32 0 2 0 C1.51421457 3.12290635 1.0013988 5.99580359 0 9 C-0.99 9 -1.98 9 -3 9 C-2.69181644 7.68647977 -2.37832335 6.37420428 -2.0625 5.0625 C-1.88847656 4.33160156 -1.71445313 3.60070313 -1.53515625 2.84765625 C-1 1 -1 1 0 0 Z " fill="#FBFCFB" transform="translate(96,56)"/>
<path d="M0 0 C0.99 0 1.98 0 3 0 C3 1.98 3 3.96 3 6 C1.68 5.34 0.36 4.68 -1 4 C-0.67 2.68 -0.34 1.36 0 0 Z " fill="#D3D4D2" transform="translate(66,44)"/>
<path d="M0 0 C1.32 0.33 2.64 0.66 4 1 C3.67 2.32 3.34 3.64 3 5 C2.01 4.67 1.02 4.34 0 4 C0 2.68 0 1.36 0 0 Z " fill="#7F807D" transform="translate(72,48)"/>
</svg>
