<?xml version="1.0" encoding="UTF-8"?>
<svg version="1.1" xmlns="http://www.w3.org/2000/svg" width="128" height="128">
<path d="M0 0 C42.24 0 84.48 0 128 0 C128 42.24 128 84.48 128 128 C85.76 128 43.52 128 0 128 C0 85.76 0 43.52 0 0 Z " fill="#DEDADC" transform="translate(0,0)"/>
<path d="M0 0 C3 0.75 3 0.75 6 2.75 C9.15606891 3.20240578 12.28614821 3.53395772 15.46289062 3.78515625 C18.53361637 4.10774984 20.78533832 4.61795368 23.42578125 6.2421875 C25.79897162 10.02280342 25.67465741 13.61643133 25.75 18 C25.77964844 18.84046875 25.80929688 19.6809375 25.83984375 20.546875 C25.91031636 22.6140715 25.95744939 24.68204033 26 26.75 C26.66 26.75 27.32 26.75 28 26.75 C29.25831511 38.43961351 30.39720199 49.97837742 30 61.75 C29.97534668 62.62430664 29.95069336 63.49861328 29.92529297 64.39941406 C29.83835967 67.37104247 29.73453099 70.34162306 29.625 73.3125 C29.5943042 74.26568115 29.5636084 75.2188623 29.53198242 76.20092773 C29.12716229 85.60901475 29.12716229 85.60901475 27 88.75 C21.57482226 91.72050716 15.13717033 90.97125396 9.125 90.875 C7.52011719 90.86146484 7.52011719 90.86146484 5.8828125 90.84765625 C3.25497561 90.82419342 0.62760594 90.79136459 -2 90.75 C-1.67 91.41 -1.34 92.07 -1 92.75 C-0.86584528 95.4223621 -0.95681459 98.07250488 -1 100.75 C-1.639375 100.853125 -2.27875 100.95625 -2.9375 101.0625 C-3.618125 101.289375 -4.29875 101.51625 -5 101.75 C-5.495 103.235 -5.495 103.235 -6 104.75 C-33.72 104.75 -61.44 104.75 -90 104.75 C-90 84.29 -90 63.83 -90 42.75 C-82.74 42.09 -75.48 41.43 -68 40.75 C-66.68 39.76 -65.36 38.77 -64 37.75 C-60.75 37.5625 -60.75 37.5625 -58 37.75 C-57.67 36.1 -57.34 34.45 -57 32.75 C-56.34 32.75 -55.68 32.75 -55 32.75 C-54.814375 33.4925 -54.62875 34.235 -54.4375 35 C-52.87875705 37.98194304 -52.30309057 38.31720472 -49.4375 39.75 C-46 41.75 -46 41.75 -45.0625 44.5 C-45.041875 45.2425 -45.02125 45.985 -45 46.75 C-41.61852341 45.30079575 -39.54262915 43.37738345 -37 40.75 C-34.03883361 39.2694168 -31.23746252 39.45117037 -27.9375 39.28515625 C-26.48566934 39.20652302 -25.03384668 39.127742 -23.58203125 39.04882812 C-21.30269131 38.93010742 -19.02327243 38.81365582 -16.74365234 38.70043945 C-5.24788299 38.13469825 -5.24788299 38.13469825 6.07446289 36.13793945 C8.99164178 35.55021316 11.20071267 35.79414579 14 36.75 C15.9375 38.5 15.9375 38.5 17 40.75 C16.56640625 43.390625 16.56640625 43.390625 16 45.75 C15.01829834 45.73952637 14.03659668 45.72905273 13.02514648 45.71826172 C9.30692337 45.68146553 5.58871551 45.65888787 1.87036133 45.64013672 C0.27528152 45.63021249 -1.31978077 45.61666873 -2.91479492 45.59912109 C-20.35557911 44.5015971 -20.35557911 44.5015971 -36.20874023 49.39575195 C-37.72697778 51.09916975 -38.86526871 52.77521569 -40 54.75 C-40.61875 55.554375 -41.2375 56.35875 -41.875 57.1875 C-42.24625 57.703125 -42.6175 58.21875 -43 58.75 C-45.3125 58.75 -45.3125 58.75 -48 57.75 C-49.38293093 55.19481903 -50.21791649 52.54133871 -51 49.75 C-61.76645841 49.35610518 -72.31427866 50.56739052 -83 51.75 C-83 56.37 -83 60.99 -83 65.75 C-81.35 66.08 -79.7 66.41 -78 66.75 C-76.63441328 67.21791053 -75.27888091 67.71664775 -73.9375 68.25 C-69.88684684 69.85421907 -66.16870964 70.84153308 -61.8046875 71.06640625 C-60.614198 71.12948975 -60.614198 71.12948975 -59.3996582 71.19384766 C-58.566521 71.23300293 -57.73338379 71.2721582 -56.875 71.3125 C-56.02059326 71.3542334 -55.16618652 71.3959668 -54.28588867 71.43896484 C-43.7519131 71.97568164 -43.7519131 71.97568164 -33.25390625 71.25390625 C-29.0322564 70.70766147 -24.87893711 70.55821991 -20.625 70.5625 C-19.47729126 70.56262085 -19.47729126 70.56262085 -18.30639648 70.56274414 C-9.11106289 70.65174635 1.23218813 70.82739604 10 73.75 C10.66 73.42 11.32 73.09 12 72.75 C14.38628152 65.59115543 14.60013027 58.24229598 15 50.75 C16.98 51.245 16.98 51.245 19 51.75 C19.1567564 44.03410183 18.67453101 36.43483539 18 28.75 C16.515 28.255 16.515 28.255 15 27.75 C12.71658893 24.50515269 12.82384543 21.62540045 13 17.75 C12.34 17.42 11.68 17.09 11 16.75 C11 16.09 11 15.43 11 14.75 C12.98 14.75 14.96 14.75 17 14.75 C17.495 15.74 17.495 15.74 18 16.75 C18.67958603 14.35280568 18.67958603 14.35280568 19 11.75 C17.22657093 9.53449047 17.22657093 9.53449047 14.93359375 9.625 C13.69802734 9.686875 13.69802734 9.686875 12.4375 9.75 C7.33594529 9.86058283 2.91444496 9.01730766 -2 7.75 C-3.66534667 7.41013333 -5.33129513 7.07297514 -7 6.75 C-6.6875 4.375 -6.6875 4.375 -6 1.75 C-3 -0.25 -3 -0.25 0 0 Z " fill="#CFC2C3" transform="translate(90,23.25)"/>
<path d="M0 0 C0.66 0 1.32 0 2 0 C3.25831511 11.68961351 4.39720199 23.22837742 4 35 C3.97534668 35.87430664 3.95069336 36.74861328 3.92529297 37.64941406 C3.83835967 40.62104247 3.73453099 43.59162306 3.625 46.5625 C3.5943042 47.51568115 3.5636084 48.4688623 3.53198242 49.45092773 C3.12716229 58.85901475 3.12716229 58.85901475 1 62 C-4.42517774 64.97050716 -10.86282967 64.22125396 -16.875 64.125 C-18.47988281 64.11146484 -18.47988281 64.11146484 -20.1171875 64.09765625 C-22.74502439 64.07419342 -25.37239406 64.04136459 -28 64 C-27.67 64.66 -27.34 65.32 -27 66 C-26.86584528 68.6723621 -26.95681459 71.32250488 -27 74 C-27.639375 74.103125 -28.27875 74.20625 -28.9375 74.3125 C-29.618125 74.539375 -30.29875 74.76625 -31 75 C-31.495 76.485 -31.495 76.485 -32 78 C-59.72 78 -87.44 78 -116 78 C-116 64.14 -116 50.28 -116 36 C-112.75063639 38.16624241 -112.47831396 38.66538236 -111.375 42.1875 C-111.13523437 42.92355469 -110.89546875 43.65960938 -110.6484375 44.41796875 C-109.85231606 47.58806678 -109.41924976 50.76070236 -109 54 C-99.60449305 54.08826677 -90.25185672 54.15270277 -80.875 53.5 C-54.74106959 51.83417579 -26.72897533 51.50463451 -1 57 C-1.33 58.32 -1.66 59.64 -2 61 C-1.67 61 -1.34 61 -1 61 C0.06712352 47.82397199 0.11824213 34.7119365 0.0625 21.5 C0.05747084 19.404949 0.05291046 17.30989681 0.04882812 15.21484375 C0.03794422 10.14319938 0.02075912 5.07161317 0 0 Z " fill="#D6CECF" transform="translate(116,50)"/>
<path d="M0 0 C3.12179308 0.00540953 6.24344536 -0.00000256 9.36523438 -0.00634766 C11.37044302 -0.0056876 13.37565158 -0.00440795 15.38085938 -0.00244141 C16.30386841 -0.00446564 17.22687744 -0.00648987 18.17785645 -0.00857544 C19.04986694 -0.00542328 19.92187744 -0.00227112 20.8203125 0.00097656 C21.95490906 0.00216995 21.95490906 0.00216995 23.11242676 0.00338745 C26.29291274 0.16576785 29.44698804 0.67999662 32.59960938 1.13037109 C32.59960938 40.73037109 32.59960938 80.33037109 32.59960938 121.13037109 C18.07960937 121.13037109 3.55960937 121.13037109 -11.40039062 121.13037109 C-10.90539062 119.64537109 -10.90539062 119.64537109 -10.40039062 118.13037109 C-8.42039062 117.63537109 -8.42039062 117.63537109 -6.40039062 117.13037109 C-6.89539063 112.18037109 -6.89539063 112.18037109 -7.40039062 107.13037109 C-5.8096875 107.08138672 -4.21898437 107.03240234 -2.58007812 106.98193359 C-0.47849899 106.9068772 1.62306269 106.83133061 3.72460938 106.75537109 C4.77132812 106.72443359 5.81804687 106.69349609 6.89648438 106.66162109 C12.13408768 106.46272477 16.70466306 106.21368734 21.59960938 104.13037109 C24.4623937 87.77853518 24.2750283 69.99767351 22.79980469 53.49804688 C22.55169316 50.56367414 22.3541064 47.62701506 22.15429688 44.68896484 C21.99109021 42.39853912 21.82702813 40.10817418 21.66210938 37.81787109 C21.58758545 36.72442383 21.51306152 35.63097656 21.4362793 34.50439453 C21.35740479 33.47733398 21.27853027 32.45027344 21.19726562 31.39208984 C21.13031494 30.47387451 21.06336426 29.55565918 20.99438477 28.60961914 C20.58732409 26.05321769 19.95679747 24.3247061 18.59960938 22.13037109 C13.45516558 18.73566684 8.700685 17.89571434 2.59960938 18.13037109 C0.93294271 17.46370443 -0.73372396 16.79703776 -2.40039062 16.13037109 C-8.0466387 15.72390321 -8.0466387 15.72390321 -13.40039062 17.13037109 C-14.69699496 19.62071496 -14.69699496 19.62071496 -15.40039062 22.13037109 C-16.39039062 22.13037109 -17.38039063 22.13037109 -18.40039062 22.13037109 C-19.78710938 20.66943359 -19.78710938 20.66943359 -21.08789062 18.75537109 C-21.74337891 17.81564453 -21.74337891 17.81564453 -22.41210938 16.85693359 C-23.40039062 15.13037109 -23.40039062 15.13037109 -23.40039062 13.13037109 C-24.06039062 13.13037109 -24.72039062 13.13037109 -25.40039062 13.13037109 C-25.64789063 12.34662109 -25.89539063 11.56287109 -26.15039062 10.75537109 C-27.61684341 7.67582024 -28.38615994 7.46017875 -31.40039062 6.13037109 C-33.65039062 4.06787109 -33.65039062 4.06787109 -35.40039062 2.13037109 C-35.40039062 1.80037109 -35.40039062 1.47037109 -35.40039062 1.13037109 C-23.59619309 0.09973412 -11.84343701 -0.02446991 0 0 Z " fill="#FCFCFC" transform="translate(95.400390625,6.86962890625)"/>
<path d="M0 0 C1.39973797 0.00502803 2.7994777 0.00958862 4.19921875 0.01367188 C7.59119169 0.02536833 10.98307233 0.04175914 14.375 0.0625 C14.375 1.3825 14.375 2.7025 14.375 4.0625 C13.715 4.7225 13.055 5.3825 12.375 6.0625 C12.17177442 8.4112071 12.06133514 10.7683151 12 13.125 C11.64616679 21.13119351 10.20283705 27.38722412 4.375 33.0625 C2.1414244 35.91921969 2.1414244 35.91921969 2 39.3125 C1.23266058 43.91653652 0.06383147 46.25332209 -2.625 50.0625 C-5.3125 51.375 -5.3125 51.375 -7.625 52.0625 C-7.955 52.7225 -8.285 53.3825 -8.625 54.0625 C-10.84985352 54.47314453 -10.84985352 54.47314453 -13.75390625 54.6953125 C-14.78837891 54.77910156 -15.82285156 54.86289062 -16.88867188 54.94921875 C-17.97728516 55.02785156 -19.06589844 55.10648438 -20.1875 55.1875 C-21.27998047 55.27386719 -22.37246094 55.36023438 -23.49804688 55.44921875 C-26.20649081 55.66210954 -28.91531607 55.86613237 -31.625 56.0625 C-31.72639564 49.44235308 -31.79646336 42.82240628 -31.84472656 36.20166016 C-31.86484556 33.94930539 -31.89214408 31.69700287 -31.92675781 29.44482422 C-31.97526209 26.20787669 -31.99796605 22.97161953 -32.015625 19.734375 C-32.03627014 18.72695251 -32.05691528 17.71953003 -32.07818604 16.68157959 C-32.08045395 9.62033772 -32.08045395 9.62033772 -29.60058594 6.58300781 C-28.94864258 6.08124023 -28.29669922 5.57947266 -27.625 5.0625 C-27.625 4.0725 -27.625 3.0825 -27.625 2.0625 C-19.81054162 -1.84472919 -8.56267992 -0.05396219 0 0 Z " fill="#FCFCFC" transform="translate(31.625,8.9375)"/>
<path d="M0 0 C42.24 0 84.48 0 128 0 C128 2.64 128 5.28 128 8 C127.36710052 7.99777939 126.73420105 7.99555878 126.0821228 7.99327087 C119.42975434 7.97095949 112.7773967 7.95598682 106.125 7.94506836 C103.6500607 7.94007336 101.17512431 7.93327509 98.70019531 7.92456055 C79.82492647 7.79385405 79.82492647 7.79385405 61 9 C61 9.66 61 10.32 61 11 C61.556875 11.226875 62.11375 11.45375 62.6875 11.6875 C65.66159588 13.37550036 67.72008865 15.46676517 70 18 C70 18.66 70 19.32 70 20 C70.66 20 71.32 20 72 20 C72.37125 20.99 72.7425 21.98 73.125 23 C74.7476231 26.87234691 77.08177371 29.82826017 79.79296875 33.0078125 C81.29324899 35.48400318 81.22150402 37.15490395 81 40 C79.515 40.495 79.515 40.495 78 41 C77.5359375 42.7015625 77.5359375 42.7015625 77.0625 44.4375 C76 48 76 48 74.1875 49.625 C70.99291196 50.17264366 69.59767363 48.79838944 67 47 C65.515 46.505 65.515 46.505 64 46 C64 47.65 64 49.3 64 51 C50.1409396 49.3557047 50.1409396 49.3557047 47 47 C46.10162946 44.04821109 45.76935965 41.95139146 46.5 38.9375 C48.46191198 36.40336369 50.79382794 34.82867687 53.44140625 33.05078125 C54.9739079 32.08976776 54.9739079 32.08976776 56 31 C56.33374277 28.58416247 56.33374277 28.58416247 56 26 C54.60414215 24.18523997 54.60414215 24.18523997 53 23 C49.88214887 23.64644661 49.88214887 23.64644661 49 26 C48.01 26 47.02 26 46 26 C44.65217391 17.91304348 44.65217391 17.91304348 47 14 C47.33 12.02 47.66 10.04 48 8 C32.16 8 16.32 8 0 8 C0 5.36 0 2.72 0 0 Z " fill="#CDC0C1" transform="translate(0,0)"/>
<path d="M0 0 C0.66 0 1.32 0 2 0 C2.185625 0.7425 2.37125 1.485 2.5625 2.25 C4.12124295 5.23194304 4.69690943 5.56720472 7.5625 7 C11 9 11 9 11.9375 11.75 C11.958125 12.4925 11.97875 13.235 12 14 C15.38147659 12.55079575 17.45737085 10.62738345 20 8 C22.96116639 6.5194168 25.76253748 6.70117037 29.0625 6.53515625 C30.51433066 6.45652302 31.96615332 6.377742 33.41796875 6.29882812 C35.69730869 6.18010742 37.97672757 6.06365582 40.25634766 5.95043945 C51.75211701 5.38469825 51.75211701 5.38469825 63.07446289 3.38793945 C65.99164178 2.80021316 68.20071267 3.04414579 71 4 C72.9375 5.75 72.9375 5.75 74 8 C73.56640625 10.640625 73.56640625 10.640625 73 13 C72.01829834 12.98952637 71.03659668 12.97905273 70.02514648 12.96826172 C66.30692337 12.93146553 62.58871551 12.90888787 58.87036133 12.89013672 C57.27528152 12.88021249 55.68021923 12.86666873 54.08520508 12.84912109 C36.64442089 11.7515971 36.64442089 11.7515971 20.79125977 16.64575195 C19.27302222 18.34916975 18.13473129 20.02521569 17 22 C16.38125 22.804375 15.7625 23.60875 15.125 24.4375 C14.75375 24.953125 14.3825 25.46875 14 26 C11.6875 26 11.6875 26 9 25 C7.61706907 22.44481903 6.78208351 19.79133871 6 17 C-5.3503202 16.78448759 -16.66773031 17.4312689 -28 18 C-28.45375 19.134375 -28.9075 20.26875 -29.375 21.4375 C-31 25 -31 25 -33 26 C-33 20.72 -33 15.44 -33 10 C-31.45828125 9.89042969 -29.9165625 9.78085938 -28.328125 9.66796875 C-26.30202852 9.50850745 -24.27598965 9.34831293 -22.25 9.1875 C-21.23421875 9.11724609 -20.2184375 9.04699219 -19.171875 8.97460938 C-18.1921875 8.89404297 -17.2125 8.81347656 -16.203125 8.73046875 C-15.30239258 8.66239014 -14.40166016 8.59431152 -13.47363281 8.52416992 C-10.63528494 7.92271583 -9.25920863 6.76372176 -7 5 C-3.75 4.8125 -3.75 4.8125 -1 5 C-0.67 3.35 -0.34 1.7 0 0 Z " fill="#D0C3C4" transform="translate(33,56)"/>
<path d="M0 0 C0.99 0.495 0.99 0.495 2 1 C2.625 4.0625 2.625 4.0625 3 7 C3.88186981 6.99555878 4.76373962 6.99111755 5.67233276 6.98654175 C14.11128801 6.94594411 22.55020903 6.9157571 30.98924065 6.89637566 C35.32457627 6.8860756 39.65982916 6.87217948 43.99511719 6.84912109 C99.12744699 6.5637235 99.12744699 6.5637235 106 10 C106 10.99 106 11.98 106 13 C102.62069816 14.68965092 98.78863639 14.09802754 95.07421875 14.0625 C94.17564651 14.05871338 93.27707428 14.05492676 92.35127258 14.05102539 C88.50585289 14.03472393 84.66053944 14.00694733 80.81518555 13.97949219 C70.15554339 13.90986324 59.61483064 13.88435328 49 15 C49.15339844 15.60328125 49.30679688 16.2065625 49.46484375 16.828125 C50.0508624 19.20641965 50.53253161 21.59587687 51 24 C48.3125 25.6875 48.3125 25.6875 45 27 C42.125 25.6875 42.125 25.6875 40 24 C40.3125 22.125 40.3125 22.125 41 20 C41.99 19.34 42.98 18.68 44 18 C44 17.01 44 16.02 44 15 C22.22 14.505 22.22 14.505 0 14 C0 9.38 0 4.76 0 0 Z " fill="#604547" transform="translate(0,98)"/>
<path d="M0 0 C42.24 0 84.48 0 128 0 C128 1.65 128 3.3 128 5 C127.1403363 5.01030746 126.28067261 5.02061493 125.3949585 5.03123474 C117.10622956 5.13112812 108.8175405 5.23383068 100.52888107 5.33933926 C96.27236256 5.3934319 92.01583764 5.44660744 87.75927734 5.49731445 C68.25805616 5.73032941 48.76569907 6.04565555 29.27264404 6.67295837 C19.51210923 6.97937198 9.76512001 7.05088871 0 7 C0 4.69 0 2.38 0 0 Z " fill="#090A09" transform="translate(0,0)"/>
<path d="M0 0 C13.53 0 27.06 0 41 0 C41 0.99 41 1.98 41 3 C40.2265625 3.680625 40.2265625 3.680625 39.4375 4.375 C37.71195666 5.94355934 37.71195666 5.94355934 38.125 8.4375 C38.99850931 11.42758856 38.99850931 11.42758856 42 15 C28.14 15 14.28 15 0 15 C0 10.05 0 5.1 0 0 Z " fill="#F9F9F9" transform="translate(0,113)"/>
<path d="M0 0 C-2.31856917 1.54571278 -4.50638429 2.79618552 -7 4 C-6.89207179 6.9042893 -6.89207179 6.9042893 -6 10 C-3.53884453 11.84434349 -3.53884453 11.84434349 -1 13 C-1 13.33 -1 13.66 -1 14 C-11.23 14 -21.46 14 -32 14 C-30.68 12.35 -29.36 10.7 -28 9 C-27.4559789 5.28252247 -28.28367865 3.24727999 -30 0 C-25.93791759 -0.19739706 -21.87532945 -0.38118364 -17.8125 -0.5625 C-16.66201172 -0.61857422 -15.51152344 -0.67464844 -14.32617188 -0.73242188 C-13.21435547 -0.78076172 -12.10253906 -0.82910156 -10.95703125 -0.87890625 C-9.42526245 -0.94960327 -9.42526245 -0.94960327 -7.86254883 -1.02172852 C-5.09707955 -1.00073689 -2.68354309 -0.64017052 0 0 Z " fill="#FCFCFC" transform="translate(81,114)"/>
<path d="M0 0 C3.24936361 2.16624241 3.52168604 2.66538236 4.625 6.1875 C4.86476563 6.92355469 5.10453125 7.65960938 5.3515625 8.41796875 C6.14768394 11.58806678 6.58075024 14.76070236 7 18 C16.39550695 18.08826677 25.74814328 18.15270277 35.125 17.5 C61.25893041 15.83417579 89.27102467 15.50463451 115 21 C114.625 22.9375 114.625 22.9375 114 25 C110.78548731 26.60725635 107.56387464 26.05748185 104 26 C104.99 25.505 104.99 25.505 106 25 C106 24.01 106 23.02 106 22 C84.74100738 20.02476463 63.68228707 19.77405763 42.35394287 19.92095947 C35.73893589 19.96509752 29.12387188 19.99379453 22.50876236 20.0170002 C20.21858278 20.02717101 17.92852843 20.04418266 15.63839722 20.06199646 C14.25356146 20.06881445 12.86872464 20.07542338 11.48388672 20.08178711 C10.27594452 20.09004013 9.06800232 20.09829315 7.82345581 20.10679626 C5 20 5 20 3 19 C-0.58520717 12.79483374 -0.31184229 7.03377602 0 0 Z " fill="#B9A6A4" transform="translate(0,86)"/>
<path d="M0 0 C0 0.99 0 1.98 0 3 C-0.8596637 3.01030746 -1.71932739 3.02061493 -2.6050415 3.03123474 C-10.89377044 3.13112812 -19.1824595 3.23383068 -27.47111893 3.33933926 C-31.72763744 3.3934319 -35.98416236 3.44660744 -40.24072266 3.49731445 C-59.74194384 3.73032941 -79.23430093 4.04565555 -98.72735596 4.67295837 C-108.48789077 4.97937198 -118.23487999 5.05088871 -128 5 C-128 4.01 -128 3.02 -128 2 C-98.23097857 1.31669011 -68.46160209 0.82662755 -38.6875 0.4375 C-37.41736872 0.4208473 -37.41736872 0.4208473 -36.12157822 0.40385818 C-30.4391378 0.32942981 -24.75668474 0.25604242 -19.07421875 0.18359375 C-18.33044479 0.17407558 -17.58667084 0.16455742 -16.82035828 0.15475082 C-14.73400234 0.12816982 -12.64764202 0.10197048 -10.5612793 0.07592773 C-8.79774361 0.0538047 -8.79774361 0.0538047 -6.99858093 0.03123474 C-4.66582394 0.00693556 -2.33288354 0 0 0 Z " fill="#725153" transform="translate(128,2)"/>
<path d="M0 0 C0.99 0.495 0.99 0.495 2 1 C2.625 4.0625 2.625 4.0625 3 7 C3.88186981 6.99555878 4.76373962 6.99111755 5.67233276 6.98654175 C14.11128801 6.94594411 22.55020903 6.9157571 30.98924065 6.89637566 C35.32457627 6.8860756 39.65982916 6.87217948 43.99511719 6.84912109 C99.12744699 6.5637235 99.12744699 6.5637235 106 10 C106 10.99 106 11.98 106 13 C103.44276771 14.27861615 101.63262898 14.11336609 98.7734375 14.09765625 C97.7421875 14.09443359 96.7109375 14.09121094 95.6484375 14.08789062 C94.56820312 14.07951172 93.48796875 14.07113281 92.375 14.0625 C90.74304688 14.05573242 90.74304688 14.05573242 89.078125 14.04882812 C86.38536211 14.03701776 83.69270812 14.02054778 81 14 C81 13.67 81 13.34 81 13 C88.26 13 95.52 13 103 13 C102.505 12.01 102.505 12.01 102 11 C95.3290465 10.8307633 88.65791206 10.67107044 81.98657227 10.51782227 C79.71991883 10.46465086 77.45331441 10.4093432 75.18676758 10.35180664 C71.91758795 10.26919718 68.64830561 10.19442476 65.37890625 10.12109375 C64.37541641 10.09405869 63.37192657 10.06702362 62.33802795 10.03916931 C57.20097184 9.93166751 52.29859037 10.12688622 47.20509338 10.77766418 C43.23429244 11.17803329 39.27680627 11.02769694 35.29296875 10.9140625 C34.40515213 10.89282318 33.51733551 10.87158386 32.60261536 10.84970093 C30.74289576 10.80378647 28.88324753 10.75489195 27.02368164 10.703125 C24.17804056 10.62473943 21.33228949 10.55779762 18.48632812 10.4921875 C16.67185767 10.44598814 14.85740369 10.39913626 13.04296875 10.3515625 C11.77104927 10.32178818 11.77104927 10.32178818 10.47343445 10.29141235 C9.28618523 10.25665298 9.28618523 10.25665298 8.07495117 10.22119141 C7.38261887 10.20263092 6.69028656 10.18407043 5.97697449 10.16494751 C4 10 4 10 0 9 C0 6.03 0 3.06 0 0 Z " fill="#9B6C6F" transform="translate(0,98)"/>
<path d="M0 0 C2.10353495 -0.0810206 4.20795952 -0.13919907 6.3125 -0.1875 C7.48425781 -0.22230469 8.65601563 -0.25710937 9.86328125 -0.29296875 C13 0 13 0 14.9375 1.375 C16 3 16 3 15.6875 5.1875 C15.3471875 6.0846875 15.3471875 6.0846875 15 7 C13.69289063 6.71189453 13.69289063 6.71189453 12.359375 6.41796875 C6.31742443 5.55852714 0.26647253 6.60749447 -5.75 7.3125 C-6.98105469 7.44333984 -8.21210938 7.57417969 -9.48046875 7.70898438 C-16.10611203 8.26964691 -16.10611203 8.26964691 -22 11 C-22.69100553 12.99172182 -23.35902703 14.99161804 -24 17 C-24.66 17.33 -25.32 17.66 -26 18 C-26 13.05 -26 8.1 -26 3 C-17.42 2.67 -8.84 2.34 0 2 C0 1.34 0 0.68 0 0 Z " fill="#B7A2A0" transform="translate(26,64)"/>
<path d="M0 0 C4.46372961 0.47354349 6.1985331 1.78831861 9.0625 5.1875 C9.74957031 6.0021875 10.43664062 6.816875 11.14453125 7.65625 C13.27238123 10.3440605 15.1889077 13.08931595 17 16 C17.763125 17.03125 18.52625 18.0625 19.3125 19.125 C21 22 21 22 20.9375 24 C20.628125 24.66 20.31875 25.32 20 26 C19.566875 27.051875 19.13375 28.10375 18.6875 29.1875 C17 32 17 32 14.8125 32.875 C14.214375 32.91625 13.61625 32.9575 13 33 C11 30 11 30 11.3125 27.125 C11.72091233 25.2685803 12.16492393 23.41852534 12.68359375 21.58984375 C13.07543604 18.38254206 12.40493349 17.1719447 10.75 14.4375 C10.31171875 13.69371094 9.8734375 12.94992188 9.421875 12.18359375 C8.01854934 9.96232826 8.01854934 9.96232826 6.328125 7.84765625 C5 6 5 6 5 4 C4.360625 3.896875 3.72125 3.79375 3.0625 3.6875 C2.381875 3.460625 1.70125 3.23375 1 3 C0.67 2.01 0.34 1.02 0 0 Z " fill="#B9A6A4" transform="translate(58,13)"/>
<path d="M0 0 C1.43569336 0.00483398 1.43569336 0.00483398 2.90039062 0.00976562 C4.33608398 0.02233398 4.33608398 0.02233398 5.80078125 0.03515625 C6.80044922 0.03966797 7.80011719 0.04417969 8.83007812 0.04882812 C11.25787922 0.0604444 13.68554525 0.07677457 16.11328125 0.09765625 C16.11328125 0.42765625 16.11328125 0.75765625 16.11328125 1.09765625 C0.27328125 2.08765625 0.27328125 2.08765625 -15.88671875 3.09765625 C-15.39171875 5.07765625 -15.39171875 5.07765625 -14.88671875 7.09765625 C-14.54611064 8.76285144 -14.21113479 10.42923091 -13.88671875 12.09765625 C-16.57421875 13.78515625 -16.57421875 13.78515625 -19.88671875 15.09765625 C-22.76171875 13.78515625 -22.76171875 13.78515625 -24.88671875 12.09765625 C-24.57421875 10.22265625 -24.57421875 10.22265625 -23.88671875 8.09765625 C-22.89671875 7.43765625 -21.90671875 6.77765625 -20.88671875 6.09765625 C-20.88671875 5.10765625 -20.88671875 4.11765625 -20.88671875 3.09765625 C-42.66671875 2.60265625 -42.66671875 2.60265625 -64.88671875 2.09765625 C-64.88671875 1.76765625 -64.88671875 1.43765625 -64.88671875 1.09765625 C-64.02133736 1.10098717 -64.02133736 1.10098717 -63.13847351 1.10438538 C-57.08670679 1.12665817 -51.03495189 1.14165381 -44.9831543 1.15258789 C-42.73021979 1.15758975 -40.47728849 1.16439335 -38.22436523 1.1730957 C-34.96988124 1.18534415 -31.71544049 1.19092619 -28.4609375 1.1953125 C-27.46777023 1.20047379 -26.47460297 1.20563507 -25.45133972 1.21095276 C-19.6841837 1.21140643 -14.03521001 0.89888551 -8.29728699 0.32350159 C-5.52395011 0.06366858 -2.78494189 -0.01687844 0 0 Z " fill="#996B6E" transform="translate(64.88671875,109.90234375)"/>
<path d="M0 0 C2 1.125 2 1.125 3 3 C3.1875 6.1875 3.1875 6.1875 3 9 C2.360625 9.103125 1.72125 9.20625 1.0625 9.3125 C0.381875 9.539375 -0.29875 9.76625 -1 10 C-1.33 10.99 -1.66 11.98 -2 13 C-5.94914145 12.43583694 -8.86771202 11.52323198 -12 9 C-12.8125 5.8125 -12.8125 5.8125 -13 3 C-8.51521011 -0.36359242 -5.42335303 -0.52484062 0 0 Z " fill="#CBBEBE" transform="translate(86,115)"/>
<path d="M0 0 C4.38308384 0.16539939 6.35765635 0.32471565 9.4375 3.5625 C9.953125 4.366875 10.46875 5.17125 11 6 C9.79618552 8.49361571 8.54571278 10.68143083 7 13 C2.2296797 13.65049822 -0.99256581 12.60949203 -5 10 C-6.1875 8.125 -6.1875 8.125 -6 6 C-3.625 3.3125 -3.625 3.3125 -1 1 C-0.67 0.67 -0.34 0.34 0 0 Z " fill="#B8A5A3" transform="translate(53,35)"/>
<path d="M0 0 C14.52 0 29.04 0 44 0 C44.495 1.98 44.495 1.98 45 4 C44.34 4.433125 43.68 4.86625 43 5.3125 C42.34 5.869375 41.68 6.42625 41 7 C41 7.99 41 8.98 41 10 C44.11771927 11.60339848 45.39011689 12.18974141 48.8125 11.125 C49.534375 10.75375 50.25625 10.3825 51 10 C47.74285714 15.79047619 47.74285714 15.79047619 44.5625 16.6875 C40.82827485 15.68563472 39.27982927 14.0844749 37 11 C37 7.875 37 7.875 38 5 C38.99 4.01 39.98 3.02 41 2 C20.705 1.505 20.705 1.505 0 1 C0 0.67 0 0.34 0 0 Z " fill="#C3B3B3" transform="translate(0,112)"/>
<path d="M0 0 C1.21816406 0.03480469 1.21816406 0.03480469 2.4609375 0.0703125 C3.68683594 0.09738281 3.68683594 0.09738281 4.9375 0.125 C5.87722656 0.15980469 5.87722656 0.15980469 6.8359375 0.1953125 C6.5234375 2.5703125 6.5234375 2.5703125 5.8359375 5.1953125 C2.8359375 7.1953125 2.8359375 7.1953125 -0.3515625 6.8203125 C-1.2796875 6.6140625 -2.2078125 6.4078125 -3.1640625 6.1953125 C-3.7890625 4.3203125 -3.7890625 4.3203125 -4.1640625 2.1953125 C-2.1640625 0.1953125 -2.1640625 0.1953125 0 0 Z " fill="#7D585A" transform="translate(80.1640625,116.8046875)"/>
<path d="M0 0 C1.13566406 -0.01417969 2.27132813 -0.02835938 3.44140625 -0.04296875 C6.4375 0.1875 6.4375 0.1875 9.4375 2.1875 C4.02301754 4.52889782 -1.74293568 5.03713812 -7.5625 4.1875 C-9.39453125 2.66796875 -9.39453125 2.66796875 -10.5625 1.1875 C-7.02160606 0.10000186 -3.6917914 0.02099995 0 0 Z " fill="#DFDBDD" transform="translate(18.5625,12.8125)"/>
<path d="M0 0 C3.81936528 1.55603771 6.26044438 3.95604931 9 7 C9 7.66 9 8.32 9 9 C9.66 9 10.32 9 11 9 C14 15.625 14 15.625 14 19 C2.81048387 5.125 2.81048387 5.125 0 0 Z " fill="#D7CFD0" transform="translate(61,11)"/>
<path d="M0 0 C0 0.66 0 1.32 0 2 C-6.435 2.495 -6.435 2.495 -13 3 C-13 2.01 -13 1.02 -13 0 C-11.58456585 -0.19658808 -10.16755969 -0.38187546 -8.75 -0.5625 C-7.96109375 -0.66691406 -7.1721875 -0.77132812 -6.359375 -0.87890625 C-3.99467126 -1.00027349 -2.2488963 -0.69633257 0 0 Z " fill="#B9A6A4" transform="translate(69,65)"/>
<path d="M0 0 C1.98 0.495 1.98 0.495 4 1 C3.67 2.65 3.34 4.3 3 6 C1.68 5.67 0.36 5.34 -1 5 C-0.67 3.35 -0.34 1.7 0 0 Z " fill="#B9A6A4" transform="translate(44,74)"/>
<path d="M0 0 C1.67542976 0.28604898 3.34385343 0.61781233 5 1 C5.33 1.99 5.66 2.98 6 4 C3.69 4 1.38 4 -1 4 C-1 1 -1 1 0 0 Z " fill="#B9A6A4" transform="translate(52,8)"/>
<path d="M0 0 C1.8125 0.0625 1.8125 0.0625 4 1 C5.81278756 4.4960903 7 7.03981755 7 11 C5.66104368 9.33784732 4.32869858 7.67036393 3 6 C2.4225 5.278125 1.845 4.55625 1.25 3.8125 C0 2 0 2 0 0 Z " fill="#D3C8C9" transform="translate(68,19)"/>
<path d="M0 0 C1.65 0 3.3 0 5 0 C5.33 0.99 5.66 1.98 6 3 C4.02 3.33 2.04 3.66 0 4 C0 2.68 0 1.36 0 0 Z " fill="#B9A6A4" transform="translate(86,25)"/>
<path d="M0 0 C0.33 0 0.66 0 1 0 C1.3125 2.1875 1.3125 2.1875 1 5 C-1.5 7.8125 -1.5 7.8125 -4 10 C-4.66 9.67 -5.32 9.34 -6 9 C-4.71937515 7.2925002 -3.38232443 5.62626404 -2 4 C-1.34 4 -0.68 4 0 4 C0 2.68 0 1.36 0 0 Z " fill="#DAD3D5" transform="translate(53,118)"/>
<path d="M0 0 C2.475 0.495 2.475 0.495 5 1 C4.67 1.99 4.34 2.98 4 4 C1.9375 4.6875 1.9375 4.6875 0 5 C0 3.35 0 1.7 0 0 Z " fill="#D0C3C4" transform="translate(53,40)"/>
<path d="M0 0 C0.66 0.33 1.32 0.66 2 1 C2 3.64 2 6.28 2 9 C1.34 9 0.68 9 0 9 C-0.84454356 5.62182575 -1.10844919 3.32534757 0 0 Z " fill="#DFDBDD" transform="translate(108,79)"/>
<path d="M0 0 C2.31 0 4.62 0 7 0 C6.67 0.99 6.34 1.98 6 3 C3.5625 2.625 3.5625 2.625 1 2 C0.67 1.34 0.34 0.68 0 0 Z " fill="#D9D2D4" transform="translate(78,125)"/>
</svg>
