<?xml version="1.0" encoding="UTF-8"?>
<svg version="1.1" xmlns="http://www.w3.org/2000/svg" width="128" height="128">
<path d="M0 0 C42.24 0 84.48 0 128 0 C128 42.24 128 84.48 128 128 C85.76 128 43.52 128 0 128 C0 85.76 0 43.52 0 0 Z " fill="#828181" transform="translate(0,0)"/>
<path d="M0 0 C2.00689323 3.01033984 2.26840735 3.71374262 2.4140625 7.109375 C2.45281494 7.98730713 2.49156738 8.86523926 2.53149414 9.76977539 C2.56235107 10.75324951 2.59320801 11.73672363 2.625 12.75 C2.68192017 14.30932251 2.68192017 14.30932251 2.73999023 15.90014648 C3.34252429 35.58702466 3.07976973 55.30669573 3 75 C-4.37910684 75.14472601 -11.75826097 75.28683564 -19.13745117 75.42724609 C-21.64039208 75.4751662 -24.14332218 75.52365447 -26.64624023 75.57275391 C-46.62083532 75.96402121 -66.55046214 76.12320328 -86.52490234 75.68261719 C-88.36303764 75.64375319 -90.20126419 75.60901516 -92.03955078 75.578125 C-94.74017884 75.53253676 -97.44029762 75.47468415 -100.140625 75.4140625 C-100.9583136 75.40251129 -101.7760022 75.39096008 -102.61846924 75.37905884 C-106.84247601 75.26943313 -110.14296539 74.9304526 -114 73 C-113.95456055 72.09797852 -113.95456055 72.09797852 -113.90820312 71.17773438 C-113.28418519 58.4765694 -112.8558377 45.82729355 -113.125 33.109375 C-113.20016316 27.07126815 -112.52953159 21.84820904 -111 16 C-110.39494629 16.31718994 -109.78989258 16.63437988 -109.16650391 16.96118164 C-103.68973732 19.58723999 -97.55864612 19.12401308 -91.625 19.0625 C-90.79355469 19.05798828 -89.96210937 19.05347656 -89.10546875 19.04882812 C-87.07028103 19.03713164 -85.03513077 19.01919935 -83 19 C-81.9375 20.875 -81.9375 20.875 -81 23 C-81.33 23.66 -81.66 24.32 -82 25 C-82.0730751 26.85154023 -82.08362024 28.70573241 -82.0625 30.55859375 C-82.05476563 31.66654297 -82.04703125 32.77449219 -82.0390625 33.91601562 C-82.01306416 36.25976611 -81.98702264 38.60351611 -81.9609375 40.94726562 C-81.94933594 42.61112305 -81.94933594 42.61112305 -81.9375 44.30859375 C-81.92589844 45.32751709 -81.91429687 46.34644043 -81.90234375 47.39624023 C-82 50 -82 50 -83 53 C-85.34938888 54.17469444 -86.95073205 54.20034889 -89.5703125 54.31640625 C-90.46621094 54.35830078 -91.36210938 54.40019531 -92.28515625 54.44335938 C-93.22230469 54.48267578 -94.15945312 54.52199219 -95.125 54.5625 C-96.06988281 54.60568359 -97.01476562 54.64886719 -97.98828125 54.69335938 C-100.32537092 54.79959072 -102.6625683 54.90163176 -105 55 C-105.33 56.32 -105.66 57.64 -106 59 C-95.77 59 -85.54 59 -75 59 C-75.33 55.7 -75.66 52.4 -76 49 C-76.07409062 46.34197899 -76.10846532 43.68246896 -76.09765625 41.0234375 C-76.0962413 40.32731354 -76.09482635 39.63118958 -76.09336853 38.91397095 C-76.08786074 36.73426641 -76.0753273 34.55467242 -76.0625 32.375 C-76.05747303 30.87890775 -76.05291225 29.38281387 -76.04882812 27.88671875 C-76.03792185 24.25777781 -76.02072382 20.62889973 -76 17 C-74.68 17 -73.36 17 -72 17 C-71.05985709 29.02039864 -70.88885767 40.94723146 -71 53 C-70.34 53 -69.68 53 -69 53 C-68.9071875 53.8971875 -68.9071875 53.8971875 -68.8125 54.8125 C-68.15294607 57.15017035 -68.15294607 57.15017035 -66.03637695 58.61401367 C-61.83297995 60.53269862 -58.1732983 60.41175873 -53.60546875 60.36328125 C-52.69928299 60.36377975 -51.79309723 60.36427826 -50.85945129 60.36479187 C-48.94558517 60.36245599 -47.0317157 60.35275618 -45.11791992 60.33618164 C-42.20788668 60.31266475 -39.29877559 60.31561537 -36.38867188 60.32226562 C-34.5234321 60.31668554 -32.65819615 60.3095736 -30.79296875 60.30078125 C-29.93124557 60.30169266 -29.0695224 60.30260406 -28.1816864 60.30354309 C-22.81391919 60.24145859 -18.12721923 59.64377204 -13 58 C-11.89456219 55.78912438 -11.81574585 54.4622097 -11.70288086 52.00927734 C-11.66291489 51.18857758 -11.62294891 50.36787781 -11.58177185 49.52230835 C-11.52389244 48.19255478 -11.52389244 48.19255478 -11.46484375 46.8359375 C-11.40037804 45.47512558 -11.40037804 45.47512558 -11.33460999 44.08682251 C-11.19802318 41.18306036 -11.06769336 38.27905516 -10.9375 35.375 C-10.84611441 33.40883501 -10.75432273 31.44268884 -10.66210938 29.4765625 C-10.43668976 24.65124771 -10.2168821 19.82570576 -10 15 C-9.34 14.67 -8.68 14.34 -8 14 C-6.33799353 17.32401294 -6.63252396 21.06429378 -6.46484375 24.7265625 C-6.40037804 26.02078629 -6.40037804 26.02078629 -6.33460999 27.34115601 C-6.19804661 30.10225039 -6.06770499 32.86359916 -5.9375 35.625 C-5.84611214 37.4948117 -5.75432042 39.36460371 -5.66210938 41.234375 C-5.43671582 45.82270113 -5.2169025 50.41126495 -5 55 C-4.34 55 -3.68 55 -3 55 C-2.98018066 54.3287207 -2.96036133 53.65744141 -2.93994141 52.96582031 C-2.39819723 35.26485309 -1.38244572 17.65385195 0 0 Z " fill="#6E6A6B" transform="translate(120,49)"/>
<path d="M0 0 C7.92 0 15.84 0 24 0 C22.35 1.65 20.7 3.3 19 5 C14.10861593 14.90207019 12.12676382 26.23686628 10 37 C9.77932861 38.08982178 9.77932861 38.08982178 9.55419922 39.20166016 C6.2330477 55.77746373 5.8314636 72.18711872 5.86962891 89.04150391 C5.87508463 91.91964766 5.86959829 94.79764163 5.86328125 97.67578125 C5.86394052 99.51041701 5.86521854 101.34505268 5.8671875 103.1796875 C5.86516327 104.03787079 5.86313904 104.89605408 5.86105347 105.78024292 C5.75716233 110.02462416 5.75716233 110.02462416 7 114 C6.83219837 116.69565202 6.38844355 119.32405554 6 122 C10.61888783 123.13965785 15.13049962 123.21975417 19.859375 123.31640625 C21.15334198 123.3475779 21.15334198 123.3475779 22.47344971 123.37937927 C24.30240173 123.42255651 26.13140499 123.4636089 27.96044922 123.50268555 C30.69902883 123.56140706 33.43738295 123.62676842 36.17578125 123.69335938 C56.48693478 124.17104093 76.75123542 123.89844361 97.0625 123.5 C99.58658572 123.45167507 102.11067424 123.40349689 104.63476562 123.35546875 C110.75654386 123.23866942 116.87828499 123.12006485 123 123 C122.99555878 122.20456787 122.99111755 121.40913574 122.98654175 120.58959961 C122.93231468 110.39310101 122.89628708 100.19661884 122.875 90 C122.87328796 89.18548496 122.87157593 88.37096992 122.86981201 87.53177261 C122.8196584 60.51163889 123.33865993 33.59012638 124.81640625 6.60424805 C124.92844039 4.40483312 125 2.20226648 125 0 C125.99 0 126.98 0 128 0 C128 42.24 128 84.48 128 128 C85.76 128 43.52 128 0 128 C0 85.76 0 43.52 0 0 Z " fill="#8E8B8B" transform="translate(0,0)"/>
<path d="M0 0 C0.87648193 -0.0033284 1.75296387 -0.0066568 2.65600586 -0.01008606 C4.50862096 -0.01514723 6.36124518 -0.01749463 8.21386719 -0.01733398 C11.05158428 -0.01952283 13.88891408 -0.03769344 16.7265625 -0.05664062 C18.52604034 -0.05957421 20.32552002 -0.06155924 22.125 -0.0625 C23.40008423 -0.07327827 23.40008423 -0.07327827 24.70092773 -0.08427429 C30.71925178 -0.0608634 30.71925178 -0.0608634 34.0625 2.16796875 C33.89878906 2.70333252 33.73507813 3.23869629 33.56640625 3.7902832 C32.95892052 6.65670933 32.96798531 9.280482 33 12.2109375 C33.01160156 13.9444043 33.01160156 13.9444043 33.0234375 15.71289062 C33.03632812 16.91494141 33.04921875 18.11699219 33.0625 19.35546875 C33.08787737 21.74474772 33.10895505 24.13407763 33.125 26.5234375 C33.13660156 27.58199951 33.14820313 28.64056152 33.16015625 29.73120117 C33.0625 32.16796875 33.0625 32.16796875 32.0625 33.16796875 C29.22493917 33.29392141 26.4130659 33.35665131 23.57421875 33.37109375 C22.71947464 33.37679382 21.86473053 33.3824939 20.98408508 33.3883667 C19.17079919 33.39783259 17.35749597 33.40435696 15.54418945 33.40820312 C12.7719911 33.41789189 10.00053923 33.44889279 7.22851562 33.48046875 C5.46875441 33.48700022 3.70898788 33.49225013 1.94921875 33.49609375 C0.70527596 33.51461395 0.70527596 33.51461395 -0.563797 33.5335083 C-3.96309795 33.5203835 -6.36405376 33.43623283 -9.47070312 31.98291016 C-11.48073521 29.49579655 -11.38346384 27.97478311 -11.29296875 24.80078125 C-11.27556641 23.75019531 -11.25816406 22.69960937 -11.24023438 21.6171875 C-11.20220703 20.52019531 -11.16417969 19.42320313 -11.125 18.29296875 C-11.07250151 16.12900677 -11.02417572 13.96493865 -10.98046875 11.80078125 C-10.94977295 10.84059082 -10.91907715 9.88040039 -10.88745117 8.89111328 C-10.93705793 6.19202162 -11.32355878 3.79130768 -11.9375 1.16796875 C-7.96334537 -0.15674946 -4.14379834 0.00542472 0 0 Z " fill="#8C152E" transform="translate(66.9375,67.83203125)"/>
<path d="M0 0 C2.08245827 2.08245827 1.16412802 6.58081463 1.16796875 9.453125 C1.17296135 10.73168365 1.17296135 10.73168365 1.17805481 12.03607178 C1.18312934 13.84516865 1.18546297 15.65427492 1.18530273 17.46337891 C1.18747985 20.22444277 1.20560379 22.98510116 1.22460938 25.74609375 C1.22754511 27.5026028 1.2295287 29.25911375 1.23046875 31.015625 C1.23765427 31.83975891 1.24483978 32.66389282 1.25224304 33.51300049 C1.23527802 37.79862631 0.98721005 41.09154129 -1 45 C-7.42882638 45.81446966 -13.70289259 46.15982198 -20.1796875 46.16796875 C-21.11426788 46.17129715 -22.04884827 46.17462555 -23.01174927 46.17805481 C-24.96974194 46.18308213 -26.92774306 46.18546445 -28.88574219 46.18530273 C-31.8875099 46.1875092 -34.88892116 46.20576306 -37.890625 46.22460938 C-39.79947792 46.22754016 -41.70833257 46.22952706 -43.6171875 46.23046875 C-44.96247025 46.24124702 -44.96247025 46.24124702 -46.33493042 46.25224304 C-47.16654694 46.24916641 -47.99816345 46.24608978 -48.85498047 46.24291992 C-49.95010452 46.24505745 -49.95010452 46.24505745 -51.06735229 46.24723816 C-53 46 -53 46 -56 44 C-57.10092809 41.02326756 -57.18643228 38.03894468 -57.31640625 34.88671875 C-57.35838135 33.89220703 -57.40035645 32.89769531 -57.44360352 31.87304688 C-57.48283936 30.82181641 -57.5220752 29.77058594 -57.5625 28.6875 C-57.6049585 27.61693359 -57.64741699 26.54636719 -57.69116211 25.44335938 C-57.99609595 17.29052055 -58.11765885 9.15768052 -58 1 C-18.07341399 -2.51537205 -18.07341399 -2.51537205 0 0 Z M-52 7 C-51.82984375 8.27101563 -51.6596875 9.54203125 -51.484375 10.8515625 C-51.09595571 14.31881578 -50.96986768 17.66175982 -51.078125 21.1484375 C-51.10390625 22.00824219 -51.1296875 22.86804688 -51.15625 23.75390625 C-51.2196094 25.52532935 -51.29813576 27.29626503 -51.390625 29.06640625 C-51.41125 29.91847656 -51.431875 30.77054688 -51.453125 31.6484375 C-51.48567383 32.41333496 -51.51822266 33.17823242 -51.55175781 33.96630859 C-51.14770279 36.19260543 -51.14770279 36.19260543 -49.01953125 37.75146484 C-44.9886509 39.41817911 -41.55253213 39.39458154 -37.234375 39.328125 C-35.98337006 39.32531525 -35.98337006 39.32531525 -34.70709229 39.32244873 C-32.95214819 39.3157478 -31.19721853 39.30187238 -29.44238281 39.28125 C-26.74530283 39.24994548 -24.0488066 39.24026204 -21.3515625 39.234375 C-19.64582615 39.22521061 -17.94009577 39.21483665 -16.234375 39.203125 C-15.01883942 39.19675018 -15.01883942 39.19675018 -13.77874756 39.19024658 C-10.08648768 39.49070951 -10.08648768 39.49070951 -7 38 C-6.92465218 36.11988347 -6.91687911 34.23698151 -6.9375 32.35546875 C-6.94910156 30.62780273 -6.94910156 30.62780273 -6.9609375 28.86523438 C-6.98685471 26.42512888 -7.01289518 23.9850247 -7.0390625 21.54492188 C-7.05066406 19.81145508 -7.05066406 19.81145508 -7.0625 18.04296875 C-7.07410156 16.98102295 -7.08570313 15.91907715 -7.09765625 14.82495117 C-7.01243761 12.35978887 -6.71757453 10.34659583 -6 8 C-9.94522521 5.31644917 -14.24114264 5.72958618 -18.81640625 5.76953125 C-19.66927719 5.76998947 -20.52214813 5.77044769 -21.40086365 5.7709198 C-23.20044347 5.77393596 -25.00002082 5.78180324 -26.79956055 5.79418945 C-29.55592074 5.8124564 -32.31194493 5.81469895 -35.06835938 5.81445312 C-36.81771124 5.8193683 -38.56706083 5.82519662 -40.31640625 5.83203125 C-41.55397423 5.83370049 -41.55397423 5.83370049 -42.81654358 5.83540344 C-46.12609429 5.86290796 -48.83890314 5.94630105 -52 7 Z " fill="#948F8F" transform="translate(107,62)"/>
<path d="M0 0 C7.92 0 15.84 0 24 0 C22.35 1.65 20.7 3.3 19 5 C1.14934324 30.93792614 3.8422642 71.62332788 3.8125 101.625 C3.81132172 102.56148376 3.81014343 103.49796753 3.80892944 104.46282959 C3.80931136 107.13415886 3.81850644 109.80527028 3.83203125 112.4765625 C3.8338591 113.68079865 3.8338591 113.68079865 3.83572388 114.90936279 C3.87030351 120.03902256 3.87030351 120.03902256 5 125 C6.9837767 126.28436734 6.9837767 126.28436734 9 127 C9 127.33 9 127.66 9 128 C6.03 128 3.06 128 0 128 C0 85.76 0 43.52 0 0 Z " fill="#F5F5F5" transform="translate(0,0)"/>
<path d="M0 0 C0.74056641 0.00451172 1.48113281 0.00902344 2.24414062 0.01367188 C4.05862899 0.02537825 5.87307534 0.04331102 7.6875 0.0625 C9.87012854 3.52902768 9.49866536 5.15936315 8.6875 9.0625 C8.63140726 10.87806282 8.62486939 12.69563241 8.66015625 14.51171875 C8.67240234 15.52427734 8.68464844 16.53683594 8.69726562 17.58007812 C8.73261791 19.70514309 8.77172146 21.83014874 8.81445312 23.95507812 C8.82541016 24.96376953 8.83636719 25.97246094 8.84765625 27.01171875 C8.86449463 27.93299561 8.88133301 28.85427246 8.89868164 29.8034668 C8.6875 32.0625 8.6875 32.0625 6.6875 34.0625 C-0.5348978 34.84029669 -6.92661211 34.6267165 -13.3125 31.0625 C-13.15007813 30.44375 -12.98765625 29.825 -12.8203125 29.1875 C-12.10802204 24.8041741 -12.16822596 20.49552818 -12.1875 16.0625 C-12.18363281 15.17304687 -12.17976562 14.28359375 -12.17578125 13.3671875 C-12.18208766 9.14189209 -12.23176827 5.17957324 -13.3125 1.0625 C-8.8746439 -0.04915232 -4.54293614 -0.05277763 0 0 Z " fill="#8C152E" transform="translate(27.3125,67.9375)"/>
<path d="M0 0 C1.76986348 1.76986348 1.13215228 4.11748392 1.1394043 6.47412109 C1.13227417 7.63161865 1.13227417 7.63161865 1.125 8.8125 C1.12089111 9.60479004 1.11678223 10.39708008 1.11254883 11.21337891 C1.056065 17.43631765 0.91979785 23.6561691 0.6875 29.875 C0.66510254 30.72425049 0.64270508 31.57350098 0.61962891 32.44848633 C0.58401855 33.24665771 0.5484082 34.0448291 0.51171875 34.8671875 C0.48553467 35.56956543 0.45935059 36.27194336 0.43237305 36.99560547 C-0.14805442 39.68635053 -1.05906093 41.05081859 -3 43 C-11.66802473 45.37368799 -22.16704327 44.02495741 -31.12133789 43.75805664 C-33.58920153 43.68672825 -36.05707003 43.63294809 -38.52539062 43.58007812 C-40.10159121 43.53750837 -41.67776486 43.49392647 -43.25390625 43.44921875 C-43.9882338 43.43453049 -44.72256134 43.41984222 -45.47914124 43.40470886 C-49.16438809 43.27986136 -50.85558518 43.09627654 -54 41 C-55.23401396 34.01195525 -55.1205566 27.01593977 -55.0625 19.9375 C-55.05798828 18.88111328 -55.05347656 17.82472656 -55.04882812 16.73632812 C-55.03715918 14.15749092 -55.02078885 11.57877706 -55 9 C-54.01 9 -53.02 9 -52 9 C-52.03480469 10.18142578 -52.03480469 10.18142578 -52.0703125 11.38671875 C-52.79914708 24.57049042 -52.79914708 24.57049042 -48.81103516 36.63330078 C-46.28729494 38.53784348 -44.43542701 38.44721622 -41.29296875 38.546875 C-40.14763672 38.58683594 -39.00230469 38.62679687 -37.82226562 38.66796875 C-36.62279297 38.69503906 -35.42332031 38.72210938 -34.1875 38.75 C-33.03056641 38.79253906 -31.87363281 38.83507812 -30.68164062 38.87890625 C-22.37896058 39.12812511 -14.27018728 38.73400767 -6 38 C-5.96241577 36.70582153 -5.96241577 36.70582153 -5.92407227 35.38549805 C-5.82888615 32.18176231 -5.72965556 28.97818463 -5.62768555 25.7746582 C-5.58439782 24.38864017 -5.54271836 23.00257094 -5.50268555 21.61645508 C-5.44483416 19.62308202 -5.38070224 17.62989435 -5.31640625 15.63671875 C-5.27974854 14.43748779 -5.24309082 13.23825684 -5.20532227 12.00268555 C-5 9 -5 9 -4 6 C-4.495 4.515 -4.495 4.515 -5 3 C-11.15640091 2.9504561 -17.31268499 2.91421209 -23.46923828 2.89013672 C-25.56235781 2.880097 -27.65546338 2.86646247 -29.74853516 2.84912109 C-32.76207939 2.82478368 -35.7754377 2.81349643 -38.7890625 2.8046875 C-40.18628036 2.78920364 -40.18628036 2.78920364 -41.61172485 2.77340698 C-46.48662371 2.77257059 -50.42432871 3.08629667 -55 5 C-55.33 3.68 -55.66 2.36 -56 1 C-53.78751144 -0.10624428 -52.43996566 -0.19297565 -49.984375 -0.31640625 C-48.74179932 -0.37948975 -48.74179932 -0.37948975 -47.47412109 -0.44384766 C-46.57516113 -0.48300293 -45.67620117 -0.5221582 -44.75 -0.5625 C-43.8213916 -0.6042334 -42.8927832 -0.6459668 -41.93603516 -0.68896484 C-10.76916297 -1.96907946 -10.76916297 -1.96907946 0 0 Z " fill="#C6C3C2" transform="translate(106,64)"/>
<path d="M0 0 C0.99 0 1.98 0 3 0 C3 42.24 3 84.48 3 128 C-5.91 128 -14.82 128 -24 128 C-24 127.67 -24 127.34 -24 127 C-17.72110955 125.59712426 -11.57317495 124.68735704 -5.15234375 124.24609375 C-3.02113227 124.22853362 -3.02113227 124.22853362 -2 123 C-1.91621067 121.01451965 -1.90372588 119.02601311 -1.91821289 117.03881836 C-1.92788841 115.10670502 -1.92788841 115.10670502 -1.9377594 113.13555908 C-1.94349031 112.43804787 -1.94922123 111.74053665 -1.95512581 111.02188873 C-1.97288701 108.81112022 -1.98416126 106.60040661 -1.99351501 104.3895874 C-2.00702649 101.2217406 -2.02224321 98.05391013 -2.03881836 94.88607788 C-2.1859839 65.40702582 -1.79613079 36.04810767 -0.18359375 6.60424805 C-0.07155961 4.40483312 0 2.20226648 0 0 Z " fill="#AAA2A2" transform="translate(125,0)"/>
<path d="M0 0 C3.96930989 -0.02465881 7.93859034 -0.04284023 11.90795898 -0.05493164 C13.25920386 -0.05997057 14.61044326 -0.06680177 15.96166992 -0.07543945 C17.90020434 -0.08752419 19.838778 -0.09269828 21.77734375 -0.09765625 C23.52905884 -0.10551147 23.52905884 -0.10551147 25.31616211 -0.11352539 C28 0 28 0 29 1 C29.12604257 4.06741782 29.18870085 7.11106825 29.203125 10.1796875 C29.20882507 11.10339142 29.21452515 12.02709534 29.22039795 12.97879028 C29.22986345 14.93750863 29.23638806 16.89624302 29.24023438 18.85498047 C29.2499367 21.85542548 29.28094401 24.8551848 29.3125 27.85546875 C29.31903002 29.75520425 29.3242805 31.65494467 29.328125 33.5546875 C29.3404718 34.45476532 29.3528186 35.35484314 29.36553955 36.28219604 C29.36253845 37.11961334 29.35953735 37.95703064 29.35644531 38.81982422 C29.36009094 39.55627167 29.36373657 40.29271912 29.36749268 41.05148315 C28.88674979 43.60047438 28.07797418 44.47785263 26 46 C23.17438064 46.19345527 20.56387586 46.23563102 17.75 46.125 C12.33740813 45.964417 7.38060374 46.22158778 2 47 C1.34 46.67 0.68 46.34 0 46 C0.33 44.35 0.66 42.7 1 41 C11.89 40.505 11.89 40.505 23 40 C22.98839844 38.02515625 22.97679688 36.0503125 22.96484375 34.015625 C22.95546498 31.42708428 22.94636487 28.83854253 22.9375 26.25 C22.92912109 24.94804688 22.92074219 23.64609375 22.91210938 22.3046875 C22.90727539 20.42910156 22.90727539 20.42910156 22.90234375 18.515625 C22.89448853 16.78747559 22.89448853 16.78747559 22.88647461 15.02441406 C22.98229719 12.47161796 23.36289625 10.44457466 24 8 C22.42920421 6.42920421 20.81243419 6.81801277 18.6328125 6.75390625 C17.74722656 6.72103516 16.86164062 6.68816406 15.94921875 6.65429688 C14.07433379 6.59335663 12.19932757 6.53603377 10.32421875 6.48242188 C8.99197266 6.43118164 8.99197266 6.43118164 7.6328125 6.37890625 C6.40908936 6.34132202 6.40908936 6.34132202 5.16064453 6.30297852 C3 6 3 6 0 4 C0 2.68 0 1.36 0 0 Z " fill="#A8A0A0" transform="translate(14,62)"/>
<path d="M0 0 C2.46800047 1.15173355 4.04783565 2.04783565 6 4 C7.49313786 8.83852268 7.14679469 13.98722207 7.125 19 C7.12886719 19.88945313 7.13273437 20.77890625 7.13671875 21.6953125 C7.13140435 25.25596273 7.10409165 28.5065285 6.3671875 32 C6.24601563 32.66 6.12484375 33.32 6 34 C6.66 34.66 7.32 35.32 8 36 C7.236875 36.556875 6.47375 37.11375 5.6875 37.6875 C2.45093603 40.4724504 0.19784801 42.69033949 -0.1796875 47.09765625 C-0.18663052 49.06600343 -0.09995694 51.03418022 0 53 C1.32 53.66 2.64 54.32 4 55 C4 55.66 4 56.32 4 57 C-0.75 58.125 -0.75 58.125 -3 57 C-2.95456055 56.09797852 -2.95456055 56.09797852 -2.90820312 55.17773438 C-2.28418519 42.4765694 -1.8558377 29.82729355 -2.125 17.109375 C-2.20016316 11.07126815 -1.52953159 5.84820904 0 0 Z " fill="#534F4F" transform="translate(9,65)"/>
<path d="M0 0 C0.99 0.33 1.98 0.66 3 1 C2.53094238 1.3417627 2.06188477 1.68352539 1.57861328 2.03564453 C-3.27252045 5.82775451 -5.42242956 9.00707119 -7.125 14.875 C-7.36379883 15.65327148 -7.60259766 16.43154297 -7.84863281 17.23339844 C-8.61118791 19.81194568 -9.31550432 22.39967592 -10 25 C-10.23493164 25.89041992 -10.46986328 26.78083984 -10.71191406 27.69824219 C-16.88696722 51.99480045 -17.16278489 76.71269673 -17.1875 101.625 C-17.18867828 102.56148376 -17.18985657 103.49796753 -17.19107056 104.46282959 C-17.19068864 107.13415886 -17.18149356 109.80527028 -17.16796875 112.4765625 C-17.1661409 113.68079865 -17.1661409 113.68079865 -17.16427612 114.90936279 C-17.12969649 120.03902256 -17.12969649 120.03902256 -16 125 C-14.0162233 126.28436734 -14.0162233 126.28436734 -12 127 C-12 127.33 -12 127.66 -12 128 C-14.97 128 -17.94 128 -21 128 C-21.05098549 120.91995339 -21.08585287 113.83995468 -21.10986328 106.75976562 C-21.11987994 104.35447419 -21.13349709 101.9491948 -21.15087891 99.54394531 C-21.1753184 96.07353733 -21.18652679 92.60329128 -21.1953125 89.1328125 C-21.20563507 88.06886261 -21.21595764 87.00491272 -21.22659302 85.90872192 C-21.2274563 80.07797038 -20.76190525 74.72165728 -19.43940735 69.03637695 C-18.91139153 66.58935542 -18.89773048 64.36766716 -19.0625 61.875 C-19.19893817 54.40238615 -17.58135004 47.26096326 -16 40 C-15.8448291 39.28440918 -15.6896582 38.56881836 -15.52978516 37.83154297 C-9.49636842 10.38287945 -9.49636842 10.38287945 -4 4 C-3.01 3.67 -2.02 3.34 -1 3 C-0.67 2.01 -0.34 1.02 0 0 Z " fill="#CBC8C7" transform="translate(21,0)"/>
<path d="M0 0 C0.99 0 1.98 0 3 0 C2.96519531 1.18142578 2.96519531 1.18142578 2.9296875 2.38671875 C2.20616183 15.56505809 2.20616183 15.56505809 6.18017578 27.63549805 C8.74540154 29.55890115 10.66250726 29.4324255 13.84765625 29.51171875 C15.59272461 29.56489258 15.59272461 29.56489258 17.37304688 29.61914062 C18.59056641 29.64169922 19.80808594 29.66425781 21.0625 29.6875 C22.84817383 29.73874023 22.84817383 29.73874023 24.66992188 29.79101562 C30.79880675 29.95611478 36.88425036 30.01826966 43.00952148 29.71801758 C45.55291319 30.0783288 46.39537707 31.057193 48 33 C42.44350428 33.78483789 37.05716533 34.15949828 31.44921875 34.16796875 C30.27828423 34.17296135 30.27828423 34.17296135 29.08369446 34.17805481 C27.44927555 34.18307907 25.81484654 34.18546454 24.18041992 34.18530273 C21.67675264 34.18750947 19.17351262 34.20576699 16.66992188 34.22460938 C15.07552233 34.2275402 13.48112071 34.22952707 11.88671875 34.23046875 C11.13984299 34.23765427 10.39296722 34.24483978 9.62345886 34.25224304 C5.86571425 34.23560103 4.20786819 34.13857879 1 32 C-0.23401396 25.01195525 -0.1205566 18.01593977 -0.0625 10.9375 C-0.05798828 9.88111328 -0.05347656 8.82472656 -0.04882812 7.73632812 C-0.03715918 5.15749092 -0.02078885 2.57877706 0 0 Z " fill="#CDCAC9" transform="translate(51,73)"/>
<path d="M0 0 C0.33 0 0.66 0 1 0 C1 26.73 1 53.46 1 81 C-0.65 81 -2.3 81 -4 81 C-3.67 80.01 -3.34 79.02 -3 78 C-2.89214577 75.82465728 -2.84379593 73.64620718 -2.82641602 71.46826172 C-2.819729 70.80928391 -2.81304199 70.15030609 -2.80615234 69.47135925 C-2.79211208 68.04071772 -2.78021476 66.61005392 -2.77020454 65.17937851 C-2.75375095 62.90825156 -2.73050744 60.6372872 -2.70530701 58.36624146 C-2.63468034 51.90895763 -2.57467048 45.45160487 -2.52319336 38.99414062 C-2.49120983 35.04186189 -2.44987956 31.08976678 -2.40299797 27.13763809 C-2.38708452 25.63792383 -2.37471441 24.1381673 -2.36609077 22.6383934 C-2.32073967 14.85861523 -2.09836951 7.54027753 0 0 Z " fill="#CECBCA" transform="translate(127,47)"/>
<path d="M0 0 C2.08245827 2.08245827 1.16412802 6.58081463 1.16796875 9.453125 C1.17296135 10.73168365 1.17296135 10.73168365 1.17805481 12.03607178 C1.18312934 13.84516865 1.18546297 15.65427492 1.18530273 17.46337891 C1.18747985 20.22444277 1.20560379 22.98510116 1.22460938 25.74609375 C1.22754511 27.5026028 1.2295287 29.25911375 1.23046875 31.015625 C1.23765427 31.83975891 1.24483978 32.66389282 1.25224304 33.51300049 C1.23527802 37.79862631 0.98721005 41.09154129 -1 45 C-1.99 44.67 -2.98 44.34 -4 44 C-3.34 43.01 -2.68 42.02 -2 41 C-1.63584661 39.07565684 -1.63584661 39.07565684 -1.5859375 36.96484375 C-1.54718506 36.16336914 -1.50843262 35.36189453 -1.46850586 34.53613281 C-1.43764893 33.67858398 -1.40679199 32.82103516 -1.375 31.9375 C-1.33705322 31.05803711 -1.29910645 30.17857422 -1.26000977 29.27246094 C-0.91457083 20.51507482 -0.90475747 11.76231298 -1 3 C-18.19827663 0.69592466 -35.93463058 1.91670436 -53.19433594 2.90820312 C-54.461623 2.97262983 -55.73107633 3 -57 3 C-57.33 3.99 -57.66 4.98 -58 6 C-58 4.35 -58 2.7 -58 1 C-18.07341399 -2.51537205 -18.07341399 -2.51537205 0 0 Z " fill="#AAA2A2" transform="translate(107,62)"/>
<path d="M0 0 C0.95438965 -0.00315216 1.9087793 -0.00630432 2.89208984 -0.009552 C3.92543457 -0.00752777 4.9587793 -0.00550354 6.0234375 -0.00341797 C7.08127441 -0.00437469 8.13911133 -0.00533142 9.22900391 -0.00631714 C11.46842508 -0.00699848 13.70784823 -0.0051474 15.94726562 -0.00097656 C19.38415951 0.00437231 22.8209227 -0.00092313 26.2578125 -0.00732422 C28.42968779 -0.00666343 30.601563 -0.00538225 32.7734375 -0.00341797 C33.80678223 -0.0054422 34.84012695 -0.00746643 35.90478516 -0.009552 C36.8591748 -0.00639984 37.81356445 -0.00324768 38.796875 0 C39.63911621 0.00079559 40.48135742 0.00159119 41.34912109 0.00241089 C43.3984375 0.12939453 43.3984375 0.12939453 45.3984375 1.12939453 C45.3984375 2.11939453 45.3984375 3.10939453 45.3984375 4.12939453 C28.5684375 4.12939453 11.7384375 4.12939453 -5.6015625 4.12939453 C-5.9315625 3.13939453 -6.2615625 2.14939453 -6.6015625 1.12939453 C-4.19500255 -0.07388544 -2.68712464 0.0025383 0 0 Z " fill="#534F4F" transform="translate(59.6015625,108.87060546875)"/>
<path d="M0 0 C0 0.99 0 1.98 0 3 C-6.10157468 4.77452295 -11.56166943 5.29507415 -17.8984375 5.265625 C-19.27269394 5.26849518 -19.27269394 5.26849518 -20.67471313 5.27142334 C-22.59580767 5.27277606 -24.51691164 5.26914387 -26.43798828 5.26074219 C-29.38724983 5.2499552 -32.33591251 5.26070625 -35.28515625 5.2734375 C-37.15625135 5.27211719 -39.02734607 5.26955747 -40.8984375 5.265625 C-42.22335709 5.27169769 -42.22335709 5.27169769 -43.57504272 5.27789307 C-49.77003338 5.22996662 -49.77003338 5.22996662 -52 3 C-50.77482666 2.97494385 -49.54965332 2.9498877 -48.28735352 2.92407227 C-43.70815965 2.82934874 -39.12909473 2.72929104 -34.55004883 2.62768555 C-32.57449375 2.58458077 -30.59890724 2.54289038 -28.62329102 2.50268555 C-25.77090009 2.44438535 -22.91866379 2.38086855 -20.06640625 2.31640625 C-19.19415909 2.29969376 -18.32191193 2.28298126 -17.42323303 2.26576233 C-8.08176051 2.66478263 -8.08176051 2.66478263 0 0 Z " fill="#7C7A7A" transform="translate(107,105)"/>
<path d="M0 0 C0.66 0 1.32 0 2 0 C1.67 1.98 1.34 3.96 1 6 C-3.68228324 7.82209782 -7.6732394 8.29753206 -12.6875 8.3125 C-13.99074219 8.32925781 -15.29398438 8.34601563 -16.63671875 8.36328125 C-20 8 -20 8 -21.95703125 6.48046875 C-22.30121094 5.99191406 -22.64539063 5.50335938 -23 5 C-21.46157272 3.46157272 -19.99174497 3.83777411 -17.8515625 3.7890625 C-17.01109375 3.76070313 -16.170625 3.73234375 -15.3046875 3.703125 C-13.52624646 3.65127541 -11.74756974 3.60693526 -9.96875 3.5703125 C-9.12570313 3.539375 -8.28265625 3.5084375 -7.4140625 3.4765625 C-6.25318115 3.4468335 -6.25318115 3.4468335 -5.06884766 3.41650391 C-2.52374824 2.90412019 -1.72141639 1.87592644 0 0 Z " fill="#D4D2D1" transform="translate(39,100)"/>
<path d="M0 0 C0.33 0 0.66 0 1 0 C1.89663672 4.58556772 2.11633191 8.9170222 2.09765625 13.5859375 C2.0962413 14.28772125 2.09482635 14.989505 2.09336853 15.71255493 C2.0878129 17.93341504 2.07526892 20.15417084 2.0625 22.375 C2.05747926 23.88932145 2.05291736 25.4036445 2.04882812 26.91796875 C2.03785807 30.61201252 2.02062449 34.30599606 2 38 C-0.31 37.67 -2.62 37.34 -5 37 C-5 36.34 -5 35.68 -5 35 C-3.68 34.34 -2.36 33.68 -1 33 C-0.67 22.11 -0.34 11.22 0 0 Z " fill="#534F4F" transform="translate(120,85)"/>
<path d="M0 0 C0.99 0 1.98 0 3 0 C2.97679687 0.76441406 2.95359375 1.52882813 2.9296875 2.31640625 C2.78195591 11.0853311 3.66080629 19.35502634 5 28 C4.01 27.67 3.02 27.34 2 27 C2.56371414 30.26954202 3.49962266 31.82575883 6 34 C4.35 33.34 2.7 32.68 1 32 C0.06503781 24.93993115 -0.12086777 18.05387765 -0.0625 10.9375 C-0.05798828 9.88111328 -0.05347656 8.82472656 -0.04882812 7.73632812 C-0.03715918 5.15749092 -0.02078885 2.57877706 0 0 Z " fill="#CBC8C7" transform="translate(51,73)"/>
<path d="M0 0 C0.99 0.33 1.98 0.66 3 1 C2.53166748 1.33813721 2.06333496 1.67627441 1.58081055 2.0246582 C-3.38607572 5.88822161 -5.45941122 9.19775738 -7.1875 15.1875 C-7.42742676 15.95690918 -7.66735352 16.72631836 -7.91455078 17.51904297 C-10.53279318 26.20740455 -12.32081433 35.09043836 -14 44 C-14.66 44 -15.32 44 -16 44 C-15.40734973 38.5693883 -14.49934613 33.40845328 -13.125 28.125 C-12.94646484 27.43100098 -12.76792969 26.73700195 -12.58398438 26.02197266 C-12.0626621 24.0128265 -11.53217609 22.00629348 -11 20 C-10.73960938 18.99453125 -10.47921875 17.9890625 -10.2109375 16.953125 C-8.83285316 11.9556763 -7.30774665 8.03131623 -4 4 C-3.01 3.67 -2.02 3.34 -1 3 C-0.67 2.01 -0.34 1.02 0 0 Z " fill="#CBC8C7" transform="translate(21,0)"/>
<path d="M0 0 C3.33188086 0.72372822 4.68394899 1.49094474 7 4 C8.31963709 5.01800576 9.65009646 6.02248365 11 7 C6.78087253 6.5205537 4.20336822 5.83374881 1 3 C-0.13688872 11.41120013 -0.06034025 19.66849358 0.0390625 28.14257812 C0.09098888 35.48583344 -0.26051936 42.69350209 -1 50 C-1.33 50 -1.66 50 -2 50 C-2.04973696 44.32577771 -2.0858782 38.65168462 -2.10986328 32.97729492 C-2.11987087 31.05018908 -2.1334811 29.12309822 -2.15087891 27.19604492 C-2.17535921 24.41321087 -2.18653578 21.63057899 -2.1953125 18.84765625 C-2.20563507 17.99728287 -2.21595764 17.14690948 -2.22659302 16.27076721 C-2.2276366 10.60476412 -1.45309804 5.47499043 0 0 Z " fill="#6E6A6B" transform="translate(8,62)"/>
<path d="M0 0 C8.25 0 16.5 0 25 0 C24.67 0.99 24.34 1.98 24 3 C16.08 3 8.16 3 0 3 C0 2.01 0 1.02 0 0 Z " fill="#534F4F" transform="translate(15,110)"/>
<path d="M0 0 C1.5631897 0.00785522 1.5631897 0.00785522 3.15795898 0.01586914 C4.28266602 0.0190918 5.40737305 0.02231445 6.56616211 0.02563477 C7.75016602 0.03401367 8.93416992 0.04239258 10.15405273 0.05102539 C11.34192383 0.05553711 12.52979492 0.06004883 13.75366211 0.06469727 C16.69967499 0.07652864 19.64558954 0.09301252 22.59155273 0.11352539 C22.59155273 0.44352539 22.59155273 0.77352539 22.59155273 1.11352539 C21.44940308 1.28742798 21.44940308 1.28742798 20.28417969 1.46484375 C16.82395455 1.99237979 13.36400217 2.52168426 9.90405273 3.05102539 C8.70586914 3.23342773 7.50768555 3.41583008 6.27319336 3.60375977 C5.11625977 3.78100586 3.95932617 3.95825195 2.76733398 4.14086914 C1.70426025 4.30321045 0.64118652 4.46555176 -0.45410156 4.6328125 C-3.12114573 5.06677746 -5.76311471 5.56392922 -8.40844727 6.11352539 C-2.40844727 0.11352539 -2.40844727 0.11352539 0 0 Z " fill="#A7A0A0" transform="translate(26.408447265625,-0.113525390625)"/>
<path d="M0 0 C2.52206847 3.78310271 2.17387366 5.80854907 2.0625 10.3125 C1.89688772 17.21596761 1.89688772 17.21596761 3 24 C5.44288628 25.31068333 5.44288628 25.31068333 8 26 C8.33 26.66 8.66 27.32 9 28 C6.03 28 3.06 28 0 28 C0 18.76 0 9.52 0 0 Z " fill="#F5F5F5" transform="translate(0,100)"/>
<path d="M0 0 C2.18447988 3.27671982 2.22314932 4.02359748 2.046875 7.78125 C2.00433594 8.70550781 1.96179688 9.62976563 1.91796875 10.58203125 C1.83482422 12.02642578 1.83482422 12.02642578 1.75 13.5 C1.71003906 14.46292969 1.67007813 15.42585937 1.62890625 16.41796875 C1.2575822 23.6136267 1.2575822 23.6136267 -1 27 C-1.22677207 23.43842366 -1.42815479 19.87584575 -1.625 16.3125 C-1.68945312 15.30509766 -1.75390625 14.29769531 -1.8203125 13.25976562 C-1.871875 12.28330078 -1.9234375 11.30683594 -1.9765625 10.30078125 C-2.02893066 9.40528564 -2.08129883 8.50979004 -2.13525391 7.5871582 C-1.98391432 4.69231059 -1.20867188 2.61741403 0 0 Z " fill="#6E6A6B" transform="translate(121,0)"/>
<path d="M0 0 C4.95 0 9.9 0 15 0 C15 0.66 15 1.32 15 2 C12.87562788 2.19448477 10.75046809 2.38038289 8.625 2.5625 C7.44164062 2.66691406 6.25828125 2.77132812 5.0390625 2.87890625 C2 3 2 3 0 2 C0 1.34 0 0.68 0 0 Z " fill="#CBC8C7" transform="translate(16,64)"/>
<path d="M0 0 C5.7809725 0.63065155 11.3443706 1.65155132 17 3 C17 3.33 17 3.66 17 4 C14.91781638 4.10832169 12.83400871 4.18573541 10.75 4.25 C9.00976562 4.31960937 9.00976562 4.31960937 7.234375 4.390625 C3.42333987 3.93035506 2.34488245 2.94851556 0 0 Z " fill="#B4AEAD" transform="translate(5,124)"/>
<path d="M0 0 C0.99 0.33 1.98 0.66 3 1 C1.87994369 4.36016893 0.62788203 5.69064913 -2 8 C-2.66 8 -3.32 8 -4 8 C-3.6875 5.125 -3.6875 5.125 -3 2 C-2.01 1.34 -1.02 0.68 0 0 Z " fill="#6E6A6B" transform="translate(22,5)"/>
<path d="M0 0 C1.65 0 3.3 0 5 0 C3.515 1.485 3.515 1.485 2 3 C3.32 3.99 4.64 4.98 6 6 C3.69 5.67 1.38 5.34 -1 5 C-0.67 3.35 -0.34 1.7 0 0 Z " fill="#B9B4B3" transform="translate(15,103)"/>
<path d="M0 0 C1.875 0.25 1.875 0.25 4 1 C5.25 3.0625 5.25 3.0625 6 5 C5.01 5.33 4.02 5.66 3 6 C2.01 5.34 1.02 4.68 0 4 C0 2.68 0 1.36 0 0 Z " fill="#F3F2F2" transform="translate(53,100)"/>
<path d="M0 0 C1.65 0 3.3 0 5 0 C5.33 1.65 5.66 3.3 6 5 C4.02 4.01 2.04 3.02 0 2 C0 1.34 0 0.68 0 0 Z " fill="#CBC8C7" transform="translate(35,64)"/>
</svg>
