<?xml version="1.0" encoding="UTF-8"?>
<svg version="1.1" xmlns="http://www.w3.org/2000/svg" width="128" height="128">
<path d="M0 0 C42.24 0 84.48 0 128 0 C128 42.24 128 84.48 128 128 C85.76 128 43.52 128 0 128 C0 85.76 0 43.52 0 0 Z " fill="#FCFCFC" transform="translate(0,0)"/>
<path d="M0 0 C3.24245881 1.51281126 5.4441223 3.53748769 8 6 C9.27977691 6.87187989 10.57118507 7.72699411 11.875 8.5625 C14.99205206 10.99380061 16.03310832 12.23986567 17 16 C20.25354302 15.23548895 20.25354302 15.23548895 22.125 12.1171875 C25.3390694 8.09238353 29.13750745 7.27747388 34 6.125 C34.7940625 5.91359375 35.588125 5.7021875 36.40625 5.484375 C40.33564468 4.47583037 43.91165244 3.71975037 48 4 C48.99 5.98 48.99 5.98 50 8 C48.02 8.66 46.04 9.32 44 10 C44 12.97 44 15.94 44 19 C48.49029359 15.86378037 48.49029359 15.86378037 50.875 11.1875 C50.91625 10.465625 50.9575 9.74375 51 9 C53.3125 8.75 53.3125 8.75 56 9 C57.8125 11 57.8125 11 59 13 C58.34 14.32 57.68 15.64 57 17 C56.01 17 55.02 17 54 17 C53.62875 18.423125 53.62875 18.423125 53.25 19.875 C52 23 52 23 49.875 24.375 C49.25625 24.58125 48.6375 24.7875 48 25 C48.309375 25.721875 48.61875 26.44375 48.9375 27.1875 C51.12352739 32.97404309 50.89669706 36.61059727 48.875 42.4375 C48.57335937 43.40139648 48.57335937 43.40139648 48.265625 44.38476562 C46.65666337 49.15834155 44.51142303 52.37371734 41 56 C36.65829592 57.44723469 34.05642877 57.02821438 30 55 C30 54.34 30 53.68 30 53 C30.66 52.67 31.32 52.34 32 52 C31.938125 51.0925 31.87625 50.185 31.8125 49.25 C32 46 32 46 33.5625 43.9375 C35.32025384 42.02906191 35.32025384 42.02906191 34.6875 39.25 C34.460625 38.5075 34.23375 37.765 34 37 C32.68 37 31.36 37 30 37 C29.88785156 37.89138672 29.88785156 37.89138672 29.7734375 38.80078125 C28.60894901 46.14162533 25.72631465 51.63922096 22 58 C21.443125 59.134375 20.88625 60.26875 20.3125 61.4375 C19 64 19 64 17.375 65.875 C15.28287299 69.10828719 15.31778497 72.18658035 15 76 C13.35 76 11.7 76 10 76 C9.67 75.34 9.34 74.68 9 74 C7.35857037 72.9590934 5.69287785 71.95495674 4 71 C5.06466791 68.51577488 5.94334785 67.04957063 8 65.25 C10.83968178 62.055358 11.16695885 59.16520577 12 55 C7.86378916 58.3810038 4.18683431 61.66590534 1 66 C-1.375 65.75 -1.375 65.75 -4 65 C-5.3125 62.9375 -5.3125 62.9375 -6 61 C-5.360625 60.731875 -4.72125 60.46375 -4.0625 60.1875 C-1.66868314 59.11332248 -1.66868314 59.11332248 -1 56 C-1.99 55.67 -2.98 55.34 -4 55 C-3.505 54.01 -3.505 54.01 -3 53 C-0.88363372 52.68516865 1.24448215 52.44753146 3.375 52.25 C8.62793826 51.72631283 8.62793826 51.72631283 12.1875 48.125 C12.455625 47.09375 12.72375 46.0625 13 45 C13.391875 44.29875 13.78375 43.5975 14.1875 42.875 C15.26507163 40.72887506 15.26507163 40.72887506 15 37 C14.05125 37.20625 13.1025 37.4125 12.125 37.625 C11.09375 37.74875 10.0625 37.8725 9 38 C8.34 37.34 7.68 36.68 7 36 C7.35299007 32.55834679 8.04581692 30.93127462 10 28 C9.4225 27.7525 8.845 27.505 8.25 27.25 C6 26 6 26 4.1875 23.9375 C1.14915155 21.24639137 -0.98076255 21.0692972 -5 21 C-8.3201606 22.31553533 -10.4805934 23.4805934 -13 26 C-15.15406499 31.27603585 -16.99869105 36.47420709 -15 42 C-14.04547799 43.4539812 -13.06321415 44.88991616 -12.0625 46.3125 C-9.08720351 50.55677837 -7.08058164 54.73197554 -7 60 C-8.38477615 63.60939338 -9.63091075 64.31545538 -13 66 C-14.10836423 67.88316159 -14.10836423 67.88316159 -15 70 C-15.97581759 71.35113205 -16.97029741 72.68946944 -18 74 C-21.875 72.125 -21.875 72.125 -23 71 C-23.07179964 69.48071962 -23.08392007 67.95832518 -23.0625 66.4375 C-23.05347656 65.61121094 -23.04445312 64.78492187 -23.03515625 63.93359375 C-23.02355469 63.29550781 -23.01195312 62.65742187 -23 62 C-23.99 62.495 -23.99 62.495 -25 63 C-28.54270847 63.07103175 -32.07443327 62.99666917 -35.6171875 62.9375 C-38.34253779 62.98785289 -40.43260291 63.17430445 -43 64 C-43.53625 63.21625 -44.0725 62.4325 -44.625 61.625 C-47.40072034 58.55709857 -48.96672669 57.7908379 -53 57 C-56.77072167 57.32506221 -60.35727428 57.9800368 -64 59 C-64 56.69 -64 54.38 -64 52 C-59.35150485 49.6007767 -55.08913926 49.80042591 -50 50 C-49.67 48.35 -49.34 46.7 -49 45 C-46.08517222 44.19032562 -44.53886783 43.78154007 -41.6875 44.9375 C-41.130625 45.288125 -40.57375 45.63875 -40 46 C-39.67 45.01 -39.34 44.02 -39 43 C-37.515 43.495 -37.515 43.495 -36 44 C-35.67 45.98 -35.34 47.96 -35 50 C-32.03 49.505 -32.03 49.505 -29 49 C-29.185625 48.38125 -29.37125 47.7625 -29.5625 47.125 C-30 45 -30 45 -29 43 C-28.7950268 39.44713127 -28.75119614 36.66866036 -30 33.3125 C-31.9096976 26.98662669 -32.21528557 19.80339698 -29.4375 13.6875 C-22.56065075 1.98222468 -13.16739325 -1.73882509 0 0 Z " fill="#ACACAC" transform="translate(64,16)"/>
<path d="M0 0 C2.75 2.4375 2.75 2.4375 5 5 C5.99 5.66 6.98 6.32 8 7 C7.649375 7.556875 7.29875 8.11375 6.9375 8.6875 C5.78154007 11.53886783 6.19032562 13.08517222 7 16 C8.98 15.67 10.96 15.34 13 15 C14.26754617 19.29557313 13.79460849 21.66729137 11.875 25.6875 C9.78822764 29.38406818 8.75247051 30.73610039 4.703125 32.15625 C1.44503688 32.63998361 -1.70834289 32.93651106 -5 33 C-4.34 33.66 -3.68 34.32 -3 35 C-3.1875 37 -3.1875 37 -4 39 C-4.99 39.66 -5.98 40.32 -7 41 C-6.34 41.99 -5.68 42.98 -5 44 C-1.70161077 43.68340068 -0.26698597 43.25447852 2.16796875 40.93359375 C2.83441406 40.10988281 3.50085938 39.28617188 4.1875 38.4375 C5.42033201 36.92651469 6.68344367 35.43862115 8 34 C8.66 34 9.32 34 10 34 C10.50432107 39.2953712 9.28757779 41.86704506 6 46 C5.01 46.66 4.02 47.32 3 48 C3.66868314 51.11332248 3.66868314 51.11332248 6.0625 52.1875 C6.701875 52.455625 7.34125 52.72375 8 53 C8 53.66 8 54.32 8 55 C9.65 55 11.3 55 13 55 C12.9175 53.783125 12.835 52.56625 12.75 51.3125 C12.45534664 46.96636298 14.27348611 45.25517368 17 42 C21.61655691 33.71502989 25.56667353 25.171769 28 16 C29.32 15.67 30.64 15.34 32 15 C33.1875 17.6875 33.1875 17.6875 34 21 C32.625 23.5625 32.625 23.5625 31 26 C30.74803871 28.70953551 30.74803871 28.70953551 31 31 C29.515 31.495 29.515 31.495 28 32 C28.33 32.66 28.66 33.32 29 34 C34.52194552 35.31116224 34.52194552 35.31116224 39.75 33.6875 C42.96725548 29.84466707 44.41451386 25.7128212 46 21 C46.23976563 20.3296875 46.47953125 19.659375 46.7265625 18.96875 C47.94843624 15.25425382 48.08196291 12.73769005 47 9 C46.66666667 7.33333333 46.33333333 5.66666667 46 4 C48.45743755 6.06107665 49.83983708 7.49586813 50.8203125 10.58203125 C51.06739987 15.28206279 49.6698325 18.74406785 47.9375 23.0625 C47.64939453 23.85205078 47.36128906 24.64160156 47.06445312 25.45507812 C44.9600228 30.83106395 42.86207971 33.82261543 38 37 C34.33673753 38.18483646 30.8277162 38.02832396 27 38.0625 C22.6738123 38.36711126 22.6738123 38.36711126 19.109375 40.59765625 C16.11414602 45.06467877 15.68995036 48.62580632 16 54 C15 56.4375 15 56.4375 14 58 C9.08514772 57.21362363 4.48141758 54.48141758 1 51 C0.375 48.875 0.375 48.875 0 47 C-1.1446875 47.3403125 -1.1446875 47.3403125 -2.3125 47.6875 C-3.199375 47.790625 -4.08625 47.89375 -5 48 C-6.625 46.5625 -6.625 46.5625 -8 45 C-8.99 45 -9.98 45 -11 45 C-11.4125 45.886875 -11.825 46.77375 -12.25 47.6875 C-13.95416464 50.91324021 -15.38176003 53.45656688 -18 56 C-21 56.625 -21 56.625 -24 56 C-27.04699404 53.03764468 -28.6305697 49.99417171 -30 46 C-31.60226955 45.77754607 -33.20696767 45.57253331 -34.8125 45.375 C-35.70582031 45.25898437 -36.59914063 45.14296875 -37.51953125 45.0234375 C-40.25690391 44.76499257 -40.25690391 44.76499257 -43 47 C-45.6875 46.625 -45.6875 46.625 -48 46 C-48 45.34 -48 44.68 -48 44 C-48.96421875 44.01160156 -49.9284375 44.02320313 -50.921875 44.03515625 C-52.81679688 44.04869141 -52.81679688 44.04869141 -54.75 44.0625 C-56.00296875 44.07410156 -57.2559375 44.08570313 -58.546875 44.09765625 C-61.28536501 44.02021027 -63.41880293 43.82780815 -66 43 C-66 41.35 -66 39.7 -66 38 C-61.65687683 35.28554802 -58.8121594 34.61932378 -53.89453125 35.484375 C-49.61680991 36.64862081 -47.43408651 38.34887024 -45 42 C-43.1128125 41.7525 -43.1128125 41.7525 -41.1875 41.5 C-35.7855491 40.88926988 -30.42939662 40.90866436 -25 41 C-24.97421875 41.62648437 -24.9484375 42.25296875 -24.921875 42.8984375 C-24.86515625 43.71570313 -24.8084375 44.53296875 -24.75 45.375 C-24.70359375 46.18710938 -24.6571875 46.99921875 -24.609375 47.8359375 C-24.2077908 50.18838927 -24.2077908 50.18838927 -21.953125 51.2890625 C-21.30859375 51.52367187 -20.6640625 51.75828125 -20 52 C-19.278125 50.9275 -18.55625 49.855 -17.8125 48.75 C-15.98969527 46.12808604 -14.86988208 44.91514048 -12.125 43.125 C-9.83402328 41.26312514 -9.83402328 41.26312514 -9.734375 39.0390625 C-10.1062106 32.98640519 -12.51365436 28.82561257 -16 24 C-19.03418803 19.75213675 -19.03418803 19.75213675 -18.875 16.25 C-18.58625 15.1775 -18.2975 14.105 -18 13 C-17.71769531 11.89011719 -17.71769531 11.89011719 -17.4296875 10.7578125 C-15.99247804 5.71931955 -14.67626611 2.80575966 -10 0 C-6.1544104 -1.2818632 -3.93271581 -0.94927623 0 0 Z " fill="#D6D7D6" transform="translate(66,37)"/>
<path d="M0 0 C-0.33 1.65 -0.66 3.3 -1 5 C-0.236875 4.896875 0.52625 4.79375 1.3125 4.6875 C2.199375 4.790625 3.08625 4.89375 4 5 C5.625 7.4375 5.625 7.4375 7 10 C7.99 10.33 8.98 10.66 10 11 C10.433125 10.071875 10.433125 10.071875 10.875 9.125 C12 7 12 7 14 5 C14.64767793 2.42938689 14.64767793 2.42938689 15 0 C17.3125 -0.25 17.3125 -0.25 20 0 C21.8125 2 21.8125 2 23 4 C22.34 5.32 21.68 6.64 21 8 C20.01 8 19.02 8 18 8 C17.7525 8.94875 17.505 9.8975 17.25 10.875 C16 14 16 14 13.875 15.375 C13.25625 15.58125 12.6375 15.7875 12 16 C12.309375 16.721875 12.61875 17.44375 12.9375 18.1875 C15.12352739 23.97404309 14.89669706 27.61059727 12.875 33.4375 C12.57335937 34.40139648 12.57335937 34.40139648 12.265625 35.38476562 C10.65666337 40.15834155 8.51142303 43.37371734 5 47 C0.65829592 48.44723469 -1.94357123 48.02821438 -6 46 C-6 45.34 -6 44.68 -6 44 C-5.01 43.505 -5.01 43.505 -4 43 C-4.061875 42.0925 -4.12375 41.185 -4.1875 40.25 C-4 37 -4 37 -2.4375 34.9375 C-0.67974616 33.02906191 -0.67974616 33.02906191 -1.3125 30.25 C-1.539375 29.5075 -1.76625 28.765 -2 28 C-3.32 28 -4.64 28 -6 28 C-6.07476562 28.59425781 -6.14953125 29.18851563 -6.2265625 29.80078125 C-7.39105099 37.14162533 -10.27368535 42.63922096 -14 49 C-14.8353125 50.7015625 -14.8353125 50.7015625 -15.6875 52.4375 C-17 55 -17 55 -18.625 56.875 C-20.71712701 60.10828719 -20.68221503 63.18658035 -21 67 C-22.65 67 -24.3 67 -26 67 C-26.33 66.34 -26.66 65.68 -27 65 C-27.99 64.67 -28.98 64.34 -30 64 C-29.50878726 59.57908535 -28.12893119 58.03411509 -25 55 C-22.6954483 50.62135176 -22.36199009 46.55203966 -23.5625 41.75 C-24 40 -24 40 -23 38 C-21.35 38 -19.7 38 -18 38 C-18.20625 36.88625 -18.4125 35.7725 -18.625 34.625 C-19.19301592 30.27276993 -18.40098536 26.74098358 -17.390625 22.51171875 C-16.97797389 19.85837213 -17.22757805 17.99161337 -17.75 15.375 C-18.30059389 11.62698135 -17.7144969 9.80876091 -15.5625 6.6875 C-11.48874017 1.93952817 -6.37798306 -2.14016765 0 0 Z " fill="#878787" transform="translate(100,25)"/>
<path d="M0 0 C0 0.66 0 1.32 0 2 C-4.47058824 6 -4.47058824 6 -7 6 C-8.10211928 8.71720652 -9.163908 11.44195656 -10.18359375 14.19140625 C-10.80427734 15.86009766 -10.80427734 15.86009766 -11.4375 17.5625 C-12.05431641 19.23505859 -12.05431641 19.23505859 -12.68359375 20.94140625 C-13.86655237 23.68994216 -15.08866669 25.72088827 -17 28 C-16.18595703 28.38091797 -16.18595703 28.38091797 -15.35546875 28.76953125 C-14.64003906 29.11371094 -13.92460938 29.45789063 -13.1875 29.8125 C-12.12595703 30.31716797 -12.12595703 30.31716797 -11.04296875 30.83203125 C-7.69435058 32.74644202 -6.31450452 34.06953642 -5.05859375 37.78515625 C-3.62534782 45.3480074 -3.90414707 49.6327655 -8.2265625 56.07421875 C-10.04366169 58.04741236 -11.53478321 58.99345952 -14 60 C-16.10633718 58.29171079 -16.93801608 57.47851584 -17.29296875 54.73828125 C-17.25816406 53.93777344 -17.22335938 53.13726562 -17.1875 52.3125 C-17.14689453 51.10013672 -17.14689453 51.10013672 -17.10546875 49.86328125 C-17.07066406 49.24839844 -17.03585938 48.63351563 -17 48 C-17.99 48.495 -17.99 48.495 -19 49 C-22.54270847 49.07103175 -26.07443327 48.99666917 -29.6171875 48.9375 C-32.34253779 48.98785289 -34.43260291 49.17430445 -37 50 C-37.53625 49.21625 -38.0725 48.4325 -38.625 47.625 C-41.40072034 44.55709857 -42.96672669 43.7908379 -47 43 C-50.77072167 43.32506221 -54.35727428 43.9800368 -58 45 C-58 43.68 -58 42.36 -58 41 C-52.4174808 37.67424388 -48.50313209 36.53549057 -42 37 C-42 35.35 -42 33.7 -42 32 C-37.72290301 32 -36.44069624 32.70620251 -33 35 C-33.226875 35.9075 -33.45375 36.815 -33.6875 37.75 C-34.29376216 40.92939362 -34.29376216 40.92939362 -32.84375 43.1875 C-31.12721593 45.22635513 -31.12721593 45.22635513 -28.51953125 45.390625 C-27.62621094 45.34421875 -26.73289062 45.2978125 -25.8125 45.25 C-24.46091797 45.19585937 -24.46091797 45.19585937 -23.08203125 45.140625 C-22.39496094 45.09421875 -21.70789062 45.0478125 -21 45 C-21.33 44.34 -21.66 43.68 -22 43 C-24.32156597 42.59270772 -26.6568787 42.25561323 -29 42 C-29.33 41.01 -29.66 40.02 -30 39 C-26.81774461 37.40887231 -24.54194252 37.66267214 -21 38 C-17.84573627 39.4319356 -14.9222664 41.14459276 -12 43 C-12.495 42.05125 -12.99 41.1025 -13.5 40.125 C-15 37 -15 37 -15 35 C-17.31 34.67 -19.62 34.34 -22 34 C-21.773125 32.80375 -21.54625 31.6075 -21.3125 30.375 C-20.61586415 24.67525213 -22.08139436 19.7069803 -23.6015625 14.234375 C-24 11 -24 11 -22.8046875 8.18359375 C-20.32466416 5.18287287 -17.60209144 4.35078429 -14 3 C-13.01 2.34 -12.02 1.68 -11 1 C-8.80859375 0.5859375 -8.80859375 0.5859375 -6.4375 0.375 C-5.65246094 0.30023437 -4.86742187 0.22546875 -4.05859375 0.1484375 C-2 0 -2 0 0 0 Z " fill="#848484" transform="translate(58,30)"/>
<path d="M0 0 C3.24245881 1.51281126 5.4441223 3.53748769 8 6 C9.27977691 6.87187989 10.57118507 7.72699411 11.875 8.5625 C14.99205206 10.99380061 16.03310832 12.23986567 17 16 C20.25354302 15.23548895 20.25354302 15.23548895 22.125 12.1171875 C25.3390694 8.09238353 29.13750745 7.27747388 34 6.125 C34.7940625 5.91359375 35.588125 5.7021875 36.40625 5.484375 C40.33564468 4.47583037 43.91165244 3.71975037 48 4 C48.99 5.98 48.99 5.98 50 8 C48.02 8.66 46.04 9.32 44 10 C44 12.97 44 15.94 44 19 C44.66 19.33 45.32 19.66 46 20 C44.125 19.75 44.125 19.75 42 19 C40.75 16.9375 40.75 16.9375 40 15 C38.02 15 36.04 15 34 15 C34.66 13.02 35.32 11.04 36 9 C30.8421139 9.78149789 25.84031136 10.74919312 22.44140625 14.90625 C19.86903394 18.67344467 19.86903394 18.67344467 19 23 C18.2265625 22.566875 18.2265625 22.566875 17.4375 22.125 C14.92629977 20.82727758 14.92629977 20.82727758 11.625 20.5 C6.84544271 18.52225215 5.79989635 15.92050183 3.5546875 11.41015625 C1.70115089 8.53670879 0.07184596 7.45385076 -3 6 C-9.40451175 5.26505603 -13.60607377 6.52043598 -19 10 C-22.7166049 12.99393173 -24.90680069 16.7696266 -27 21 C-27.39832031 21.76441406 -27.79664063 22.52882813 -28.20703125 23.31640625 C-29.25239762 26.85417323 -28.55538797 28.97339378 -27.5625 32.5 C-26.35964032 36.80815015 -25.77475993 39.66628048 -27 44 C-27.2784375 45.1446875 -27.2784375 45.1446875 -27.5625 46.3125 C-27.706875 46.869375 -27.85125 47.42625 -28 48 C-26.3603125 48.0928125 -26.3603125 48.0928125 -24.6875 48.1875 C-21 49 -21 49 -19.0625 51.375 C-18 54 -18 54 -18 57 C-22.6875 55.17708333 -22.6875 55.17708333 -24.875 53.9375 C-27.34215851 52.84904772 -29.06858752 52.79613493 -31.75 52.875 C-32.54921875 52.89304688 -33.3484375 52.91109375 -34.171875 52.9296875 C-34.77515625 52.95289063 -35.3784375 52.97609375 -36 53 C-35.67 53.66 -35.34 54.32 -35 55 C-33.865625 55.144375 -32.73125 55.28875 -31.5625 55.4375 C-30.386875 55.623125 -29.21125 55.80875 -28 56 C-27.34 56.99 -26.68 57.98 -26 59 C-27.65094122 60.65094122 -29.54485937 60.28867693 -31.8125 60.375 C-35.60031379 60.33158666 -36.62686724 60.2950352 -39.6875 57.875 C-41.27088303 54.40663717 -41.010818 52.62209783 -40 49 C-43.25397508 46.74114676 -43.25397508 46.74114676 -47 46 C-47.33 47.65 -47.66 49.3 -48 51 C-48.73605469 51.12117188 -49.47210938 51.24234375 -50.23046875 51.3671875 C-51.69419922 51.61855469 -51.69419922 51.61855469 -53.1875 51.875 C-54.63189453 52.11863281 -54.63189453 52.11863281 -56.10546875 52.3671875 C-58.91032604 52.98039517 -61.37224747 53.85666343 -64 55 C-64 54.01 -64 53.02 -64 52 C-59.35150485 49.6007767 -55.08913926 49.80042591 -50 50 C-49.67 48.35 -49.34 46.7 -49 45 C-46.08517222 44.19032562 -44.53886783 43.78154007 -41.6875 44.9375 C-41.130625 45.288125 -40.57375 45.63875 -40 46 C-39.67 45.01 -39.34 44.02 -39 43 C-37.515 43.495 -37.515 43.495 -36 44 C-35.67 45.98 -35.34 47.96 -35 50 C-32.03 49.505 -32.03 49.505 -29 49 C-29.185625 48.38125 -29.37125 47.7625 -29.5625 47.125 C-30 45 -30 45 -29 43 C-28.7950268 39.44713127 -28.75119614 36.66866036 -30 33.3125 C-31.9096976 26.98662669 -32.21528557 19.80339698 -29.4375 13.6875 C-22.56065075 1.98222468 -13.16739325 -1.73882509 0 0 Z " fill="#8D8D8D" transform="translate(64,16)"/>
<path d="M0 0 C0 2.31 0 4.62 0 7 C3.465 8.485 3.465 8.485 7 10 C6.49217998 14.44342517 4.90838146 16.66391538 2 20 C1.46375 20.763125 0.9275 21.52625 0.375 22.3125 C-0.07875 22.869375 -0.5325 23.42625 -1 24 C-1.66 24 -2.32 24 -3 24 C-3.061875 25.299375 -3.12375 26.59875 -3.1875 27.9375 C-3.69919728 32.55718955 -5.20712285 35.66983592 -7.609375 39.59765625 C-9.15043143 42.25987453 -10.3101729 44.97724744 -11.5 47.8125 C-13.3418464 51.98735183 -14.97602821 54.58561692 -19 57 C-18.02731414 49.41305025 -16.21624399 42.73786839 -11 37 C-9.4364652 33.87293041 -9.60041513 30.42017557 -10 27 C-10.66 26.01 -11.32 25.02 -12 24 C-12.13530061 21.4673418 -11.99721713 19.00484243 -11.875 16.47265625 C-12.00991125 13.80394316 -12.64781908 12.27652335 -14 10 C-13.06862408 8.70391053 -12.1296434 7.41328368 -11.1875 6.125 C-10.66542969 5.40570312 -10.14335938 4.68640625 -9.60546875 3.9453125 C-6.64188659 0.35440274 -4.47557235 -0.24192283 0 0 Z " fill="#565656" transform="translate(96,26)"/>
<path d="M0 0 C0 3 0 3 -1.4375 5.8125 C-3.00101904 9.00207885 -3.54412264 11.50494025 -4 15 C-4.20367187 15.58652344 -4.40734375 16.17304687 -4.6171875 16.77734375 C-5.32601821 20.89290166 -3.66042255 24.84075578 -2.59375 28.80859375 C-1.99759355 32.01293467 -2.12756466 33.90041607 -3 37 C-3.2784375 38.1446875 -3.2784375 38.1446875 -3.5625 39.3125 C-3.706875 39.869375 -3.85125 40.42625 -4 41 C-2.3603125 41.0928125 -2.3603125 41.0928125 -0.6875 41.1875 C3 42 3 42 4.9375 44.375 C6 47 6 47 6 50 C1.3125 48.17708333 1.3125 48.17708333 -0.875 46.9375 C-3.34215851 45.84904772 -5.06858752 45.79613493 -7.75 45.875 C-8.54921875 45.89304688 -9.3484375 45.91109375 -10.171875 45.9296875 C-10.77515625 45.95289063 -11.3784375 45.97609375 -12 46 C-11.67 46.66 -11.34 47.32 -11 48 C-9.865625 48.144375 -8.73125 48.28875 -7.5625 48.4375 C-6.386875 48.623125 -5.21125 48.80875 -4 49 C-3.34 49.99 -2.68 50.98 -2 52 C-3.65094122 53.65094122 -5.54485937 53.28867693 -7.8125 53.375 C-11.60031379 53.33158666 -12.62686724 53.2950352 -15.6875 50.875 C-17.27088303 47.40663717 -17.010818 45.62209783 -16 42 C-19.25397508 39.74114676 -19.25397508 39.74114676 -23 39 C-23.33 40.65 -23.66 42.3 -24 44 C-24.73605469 44.12117188 -25.47210938 44.24234375 -26.23046875 44.3671875 C-27.69419922 44.61855469 -27.69419922 44.61855469 -29.1875 44.875 C-30.63189453 45.11863281 -30.63189453 45.11863281 -32.10546875 45.3671875 C-34.91032604 45.98039517 -37.37224747 46.85666343 -40 48 C-40 47.01 -40 46.02 -40 45 C-35.35150485 42.6007767 -31.08913926 42.80042591 -26 43 C-25.67 41.35 -25.34 39.7 -25 38 C-22.08517222 37.19032562 -20.53886783 36.78154007 -17.6875 37.9375 C-17.130625 38.288125 -16.57375 38.63875 -16 39 C-15.67 38.01 -15.34 37.02 -15 36 C-13.515 36.495 -13.515 36.495 -12 37 C-11.67 38.98 -11.34 40.96 -11 43 C-8.03 42.505 -8.03 42.505 -5 42 C-5.185625 41.38125 -5.37125 40.7625 -5.5625 40.125 C-6 38 -6 38 -5 36 C-4.7950268 32.44713127 -4.75119614 29.66866036 -6 26.3125 C-7.96772692 19.79440458 -8.18869601 12.65836989 -5.1875 6.4375 C-3.7625833 3.89885531 -2.11615012 1.99488078 0 0 Z " fill="#ADADAD" transform="translate(40,23)"/>
<path d="M0 0 C2.45743755 2.06107665 3.83983708 3.49586813 4.8203125 6.58203125 C5.06739987 11.28206279 3.6698325 14.74406785 1.9375 19.0625 C1.64939453 19.85205078 1.36128906 20.64160156 1.06445312 21.45507812 C-1.0399772 26.83106395 -3.13792029 29.82261543 -8 33 C-11.66326247 34.18483646 -15.1722838 34.02832396 -19 34.0625 C-23.3261877 34.36711126 -23.3261877 34.36711126 -26.890625 36.59765625 C-29.88585398 41.06467877 -30.31004964 44.62580632 -30 50 C-31 52.4375 -31 52.4375 -32 54 C-35.48330216 53.35494404 -38.09432866 52.01782732 -41 50 C-41 49.34 -41 48.68 -41 48 C-40.01 48.33 -39.02 48.66 -38 49 C-38 49.66 -38 50.32 -38 51 C-36.35 51 -34.7 51 -33 51 C-33.12375 49.1746875 -33.12375 49.1746875 -33.25 47.3125 C-33.54465336 42.96636298 -31.72651389 41.25517368 -29 38 C-24.38344309 29.71502989 -20.43332647 21.171769 -18 12 C-16.68 11.67 -15.36 11.34 -14 11 C-12.8125 13.6875 -12.8125 13.6875 -12 17 C-13.375 19.5625 -13.375 19.5625 -15 22 C-15.25196129 24.70953551 -15.25196129 24.70953551 -15 27 C-15.99 27.33 -16.98 27.66 -18 28 C-17.67 28.66 -17.34 29.32 -17 30 C-11.47805448 31.31116224 -11.47805448 31.31116224 -6.25 29.6875 C-3.03274452 25.84466707 -1.58548614 21.7128212 0 17 C0.23976562 16.3296875 0.47953125 15.659375 0.7265625 14.96875 C1.94843624 11.25425382 2.08196291 8.73769005 1 5 C0.66666667 3.33333333 0.33333333 1.66666667 0 0 Z " fill="#ACACAC" transform="translate(112,41)"/>
<path d="M0 0 C0.495 0.99 0.495 0.99 1 2 C0.32582031 1.6803125 -0.34835938 1.360625 -1.04296875 1.03125 C-7.19984541 -1.11593024 -15.51532823 -1.52882725 -21.58203125 1.1328125 C-23.61870463 2.62040185 -25.29364565 4.14581792 -27 6 C-27.50015625 6.51433594 -28.0003125 7.02867188 -28.515625 7.55859375 C-33.79205385 13.39602222 -34.31437426 18.54932153 -34.203125 26.1328125 C-33.97487429 29.35465902 -33.12261883 31.98296188 -32 35 C-31.77755258 39.22650101 -32.17530756 42.87653778 -33 47 C-32.67 47.66 -32.34 48.32 -32 49 C-34.31 49 -36.62 49 -39 49 C-39.66 47.02 -40.32 45.04 -41 43 C-41.66 43 -42.32 43 -43 43 C-43.33 43.66 -43.66 44.32 -44 45 C-46.64 44.67 -49.28 44.34 -52 44 C-52.99 46.475 -52.99 46.475 -54 49 C-54.59167969 49.06058594 -55.18335938 49.12117188 -55.79296875 49.18359375 C-59.90978208 49.62012371 -63.95544533 50.08671346 -68 51 C-68 50.34 -68 49.68 -68 49 C-65.14686261 47.78957808 -62.45747551 46.86674837 -59.4375 46.125 C-55.95077327 45.27905531 -55.95077327 45.27905531 -53.9375 42.875 C-52 41 -52 41 -48.875 40.875 C-47.92625 40.91625 -46.9775 40.9575 -46 41 C-45.34 40.34 -44.68 39.68 -44 39 C-41.04337034 39.22743305 -39.44966312 39.61235938 -37.1875 41.5625 C-36.795625 42.036875 -36.40375 42.51125 -36 43 C-34.11546401 40.22862355 -34.00561978 38.92132313 -34.25 35.5 C-34.78858923 32.17798271 -34.78858923 32.17798271 -36.015625 30.13671875 C-38.06752325 25.68279676 -37.68806488 20.7626056 -37 16 C-33.54634563 8.28414341 -27.22764038 2.21612356 -20 -2 C-12.84199587 -4.26042236 -6.47833542 -3.4374841 0 0 Z " fill="#D6D7D6" transform="translate(68,17)"/>
<path d="M0 0 C0.495 1.485 0.495 1.485 1 3 C0.62875 3.61875 0.2575 4.2375 -0.125 4.875 C-0.41375 5.57625 -0.7025 6.2775 -1 7 C-0.04504326 8.69287785 0.9590934 10.35857037 2 12 C2.81023368 16.28266375 1.12109964 19.02545466 -0.87109375 22.68359375 C-2.14317588 25.29378303 -2.9509327 27.91631168 -3.8125 30.6875 C-5.74884403 36.22759543 -7.88563785 38.21034792 -13 41 C-16.33060246 42.11020082 -18.99747232 42.10466995 -22.5 42.1875 C-27.51675501 42.37157502 -27.51675501 42.37157502 -31.1875 45.4375 C-32.03767621 49.16519571 -32.8518443 52.88884684 -33.52734375 56.65234375 C-34.05216683 59.25910965 -34.87595046 61.59132241 -36 64 C-37.65 64 -39.3 64 -41 64 C-41.12375 63.195625 -41.2475 62.39125 -41.375 61.5625 C-41.58125 60.716875 -41.7875 59.87125 -42 59 C-42.66 58.67 -43.32 58.34 -44 58 C-41.61435923 58.57584432 -39.33317216 59.22227595 -37 60 C-36.46055235 56.84037807 -35.98274524 53.76274705 -35.75 50.5625 C-34.79651656 46.03345366 -33.99220604 42.65386649 -30 40 C-26.18085891 39.42604998 -22.55177497 39.31264069 -18.69140625 39.36328125 C-14.34362092 38.93540396 -12.33839823 37.76484083 -9 35 C-7.16177616 32.5580991 -6.14329262 29.82764965 -5 27 C-4.61457031 26.09121094 -4.22914062 25.18242188 -3.83203125 24.24609375 C-0.99751621 17.2850113 -0.99751621 17.2850113 -2 10 C-2.97348627 7.71519747 -2.97348627 7.71519747 -4 6 C-2.68 4.02 -1.36 2.04 0 0 Z " fill="#D6D7D6" transform="translate(117,35)"/>
<path d="M0 0 C3.55063088 1.69812781 4.79347909 2.69021863 7 6 C8.258125 5.835 9.51625 5.67 10.8125 5.5 C16.2144509 4.88926988 21.57060338 4.90866436 27 5 C27.02578125 5.62648438 27.0515625 6.25296875 27.078125 6.8984375 C27.13484375 7.71570313 27.1915625 8.53296875 27.25 9.375 C27.29640625 10.18710938 27.3428125 10.99921875 27.390625 11.8359375 C27.7922092 14.18838927 27.7922092 14.18838927 30.046875 15.2890625 C30.69140625 15.52367188 31.3359375 15.75828125 32 16 C33.65 13.69 35.3 11.38 37 9 C37.495 10.485 37.495 10.485 38 12 C36.34580799 15.06331854 35.08191267 17.39142412 32 19.125 C30 19 30 19 27.875 17.4375 C25.77963951 14.71353136 24.89937543 12.29770992 24 9 C19.03972307 7.75993077 13.64140118 7.21471857 8.6875 8.6875 C7.8521875 8.8421875 7.8521875 8.8421875 7 9 C6.61328125 8.51273438 6.2265625 8.02546875 5.828125 7.5234375 C3.02988208 5.1915684 0.6250416 5.78423221 -2.9375 5.9375 C-10.50985506 6.24803822 -10.50985506 6.24803822 -14 4 C-14 3.34 -14 2.68 -14 2 C-8.99222503 -1.12985936 -5.5549674 -1.51186742 0 0 Z " fill="#ADADAD" transform="translate(14,73)"/>
<path d="M0 0 C1.99908195 1.6356125 2.94002094 2.42747257 3.21484375 5.05078125 C2.5546209 10.4348521 1.47193435 13.79159473 -2 18 C-2.66 18.33 -3.32 18.66 -4 19 C-4.66 19.99 -5.32 20.98 -6 22 C-6 20.68 -6 19.36 -6 18 C-5.21625 17.2575 -4.4325 16.515 -3.625 15.75 C-0.23439992 12.19794278 0.11208796 9.76243733 1 5 C-3.13621084 8.3810038 -6.81316569 11.66590534 -10 16 C-12.375 15.75 -12.375 15.75 -15 15 C-16.3125 12.9375 -16.3125 12.9375 -17 11 C-16.0409375 10.5978125 -16.0409375 10.5978125 -15.0625 10.1875 C-12.66868314 9.11332248 -12.66868314 9.11332248 -12 6 C-12.99 5.67 -13.98 5.34 -15 5 C-14.67 4.34 -14.34 3.68 -14 3 C-11.09375 2.40234375 -11.09375 2.40234375 -7.5 1.9375 C-3.42628676 1.73570599 -3.42628676 1.73570599 0 0 Z " fill="#A2A2A2" transform="translate(75,66)"/>
<path d="M0 0 C2.69921875 1.91796875 2.69921875 1.91796875 5 4 C5.928125 4.61875 6.85625 5.2375 7.8125 5.875 C10 8 10 8 10.3125 11.25 C10.209375 12.1575 10.10625 13.065 10 14 C8.02 14.66 6.04 15.32 4 16 C4 15.34 4 14.68 4 14 C5.32 13.34 6.64 12.68 8 12 C7.37466625 9.47636012 7.37466625 9.47636012 6 7 C3.45224694 6.10613836 3.45224694 6.10613836 1 6 C1.103125 6.721875 1.20625 7.44375 1.3125 8.1875 C0.8714033 12.1573703 -1.00483682 13.50403068 -4 16 C-4.66 16 -5.32 16 -6 16 C-7.4783226 13.04335481 -7.06032783 10.25770263 -7 7 C-4.35261084 5.5393715 -3.10551666 5 0 5 C-0.66 4.01 -1.32 3.02 -2 2 C-10.38156489 2.38624723 -18.01265489 4.5255343 -26 7 C-26 6.34 -26 5.68 -26 5 C-17.57428896 1.13879036 -9.35869377 -1.8437644 0 0 Z " fill="#D6D7D6" transform="translate(114,19)"/>
<path d="M0 0 C0.66 1.32 1.32 2.64 2 4 C0.02 4.66 -1.96 5.32 -4 6 C-4 8.97 -4 11.94 -4 15 C-3.34 15.33 -2.68 15.66 -2 16 C-3.875 15.75 -3.875 15.75 -6 15 C-7.25 12.9375 -7.25 12.9375 -8 11 C-9.98 11 -11.96 11 -14 11 C-13.34 9.02 -12.68 7.04 -12 5 C-13.65 4.67 -15.3 4.34 -17 4 C-11.88643979 1.01708988 -5.89517358 -0.36844835 0 0 Z " fill="#ADADAD" transform="translate(112,20)"/>
<path d="M0 0 C0.66 0 1.32 0 2 0 C1.75638643 6.82118001 -0.11896372 11.1311056 -5 16 C-5.99 16.33 -6.98 16.66 -8 17 C-8.66 16.67 -9.32 16.34 -10 16 C-10 13.03 -10 10.06 -10 7 C-9.0925 6.773125 -8.185 6.54625 -7.25 6.3125 C-3.5332207 4.81149298 -2.33489065 3.16878017 0 0 Z " fill="#555555" transform="translate(109,55)"/>
<path d="M0 0 C0 3 0 3 -1.4375 4.6875 C-3.70509505 8.04354068 -3.66555636 10.98667628 -4 15 C-5.65 15 -7.3 15 -9 15 C-9.33 14.34 -9.66 13.68 -10 13 C-10.99 12.67 -11.98 12.34 -13 12 C-12.875 9.75 -12.875 9.75 -12 7 C-8.9375 4.6875 -8.9375 4.6875 -6 3 C-5.67 3.66 -5.34 4.32 -5 5 C-3.35 3.35 -1.7 1.7 0 0 Z " fill="#868686" transform="translate(83,77)"/>
<path d="M0 0 C1.28197266 0.10054687 1.28197266 0.10054687 2.58984375 0.203125 C5.39779789 0.82415751 6.90472229 1.88760254 9.0625 3.75 C8.4025 5.07 7.7425 6.39 7.0625 7.75 C6.505625 7.440625 5.94875 7.13125 5.375 6.8125 C-0.20772482 4.24746427 -5.91578148 4.64476608 -11.9375 4.75 C-8.05871621 0.60371388 -5.6537819 -0.51011566 0 0 Z " fill="#D6D7D6" transform="translate(57.9375,23.25)"/>
<path d="M0 0 C0.50432107 5.2953712 -0.71242221 7.86704506 -4 12 C-4.99 12.66 -5.98 13.32 -7 14 C-6.34 15.98 -5.68 17.96 -5 20 C-6.9921875 18.83203125 -6.9921875 18.83203125 -9 17 C-9.69282743 12.49662172 -9.17639117 7.7935703 -6.65234375 3.9453125 C-2.81085526 0 -2.81085526 0 0 0 Z " fill="#EEEEEE" transform="translate(76,71)"/>
<path d="M0 0 C2.64 0 5.28 0 8 0 C6.79157144 4.43090471 5.48331435 6.98112756 2 10 C3.65 9.34 5.3 8.68 7 8 C6.3125 9.9375 6.3125 9.9375 5 12 C2.375 12.75 2.375 12.75 0 13 C-0.99 11.35 -1.98 9.7 -3 8 C-2.360625 7.731875 -1.72125 7.46375 -1.0625 7.1875 C1.33131686 6.11332248 1.33131686 6.11332248 2 3 C1.01 2.67 0.02 2.34 -1 2 C-0.67 1.34 -0.34 0.68 0 0 Z " fill="#ADADAD" transform="translate(61,69)"/>
<path d="M0 0 C-0.29899215 3.58790575 -0.76986601 4.78166776 -3.4375 7.3125 C-6 9 -6 9 -8 9 C-7.5129959 2.54719562 -7.5129959 2.54719562 -5.125 0 C-3 -1 -3 -1 0 0 Z " fill="#FDFDFD" transform="translate(69,45)"/>
<path d="M0 0 C0.99 0 1.98 0 3 0 C4 3 4 3 2.875 5.625 C1 8 1 8 -1.6875 8.8125 C-2.450625 8.874375 -3.21375 8.93625 -4 9 C-2.94124926 5.59687262 -1.99097846 2.98646769 0 0 Z " fill="#555555" transform="translate(48,75)"/>
<path d="M0 0 C0 0.33 0 0.66 0 1 C-0.93066284 1.21934204 -0.93066284 1.21934204 -1.88012695 1.44311523 C-4.69125484 2.10649195 -7.50188074 2.77197176 -10.3125 3.4375 C-11.77719727 3.78264648 -11.77719727 3.78264648 -13.27148438 4.13476562 C-14.20927734 4.35712891 -15.14707031 4.57949219 -16.11328125 4.80859375 C-17.40939331 5.11494751 -17.40939331 5.11494751 -18.73168945 5.42749023 C-20.50862794 5.87598025 -22.26138322 6.42046107 -24 7 C-24 6.34 -24 5.68 -24 5 C-15.79163295 1.34603693 -9.02341169 -0.81373452 0 0 Z " fill="#D6D7D6" transform="translate(112,19)"/>
<path d="M0 0 C1 2 1 2 0.125 5.0625 C-1 8 -1 8 -2 9 C-4.33297433 9.04092937 -6.66705225 9.04241723 -9 9 C-8.67 8.01 -8.34 7.02 -8 6 C-6.35 5.67 -4.7 5.34 -3 5 C-2.814375 4.0409375 -2.814375 4.0409375 -2.625 3.0625 C-2.41875 2.381875 -2.2125 1.70125 -2 1 C-1.34 0.67 -0.68 0.34 0 0 Z " fill="#FDFDFD" transform="translate(74,58)"/>
<path d="M0 0 C6.75 3.75 6.75 3.75 9 6 C8.625 8.125 8.625 8.125 8 10 C3.97881358 7.93506643 1.98665002 6.07786057 0 2 C0 1.34 0 0.68 0 0 Z " fill="#555555" transform="translate(69,24)"/>
<path d="M0 0 C0.99 0.33 1.98 0.66 3 1 C3.625 3.3125 3.625 3.3125 4 6 C3.01 7.485 3.01 7.485 2 9 C1.01 8.67 0.02 8.34 -1 8 C-1.04241723 5.66705225 -1.04092937 3.33297433 -1 1 C-0.67 0.67 -0.34 0.34 0 0 Z " fill="#555555" transform="translate(39,44)"/>
<path d="M0 0 C0.36923077 5.41538462 0.36923077 5.41538462 -1.5 8.375 C-1.995 8.91125 -2.49 9.4475 -3 10 C-3 8.35 -3 6.7 -3 5 C-5.475 6.485 -5.475 6.485 -8 8 C-6.48291727 4.46014029 -4.24676932 0 0 0 Z " fill="#D6D7D6" transform="translate(76,71)"/>
<path d="M0 0 C0.33 0.99 0.66 1.98 1 3 C-2.21311475 8.73770492 -2.21311475 8.73770492 -6 10 C-6.33 9.01 -6.66 8.02 -7 7 C-4.66666667 4.66666667 -2.33333333 2.33333333 0 0 Z " fill="#555555" transform="translate(114,33)"/>
<path d="M0 0 C1.65 0.33 3.3 0.66 5 1 C4.8125 2.8125 4.8125 2.8125 4 5 C1.4375 6.75 1.4375 6.75 -1 8 C-1.33 7.01 -1.66 6.02 -2 5 C-1.34 4.01 -0.68 3.02 0 2 C0 1.34 0 0.68 0 0 Z " fill="#7D7D7D" transform="translate(116,27)"/>
<path d="M0 0 C1.65 0 3.3 0 5 0 C5.33 1.32 5.66 2.64 6 4 C2.86650268 5.04449911 2.01031744 4.93423645 -1 4 C-0.67 2.68 -0.34 1.36 0 0 Z " fill="#ADADAD" transform="translate(101,47)"/>
<path d="M0 0 C1.32 0 2.64 0 4 0 C4.33 1.65 4.66 3.3 5 5 C3.68 5 2.36 5 1 5 C0.505 2.525 0.505 2.525 0 0 Z " fill="#555555" transform="translate(72,85)"/>
<path d="M0 0 C2.475 0.99 2.475 0.99 5 2 C4.67 3.32 4.34 4.64 4 6 C2.68 5.67 1.36 5.34 0 5 C0 3.35 0 1.7 0 0 Z " fill="#DADBDA" transform="translate(78,39)"/>
<path d="M0 0 C1.32 0 2.64 0 4 0 C3.125 4.75 3.125 4.75 2 7 C1.34 7 0.68 7 0 7 C0 4.69 0 2.38 0 0 Z " fill="#FDFDFD" transform="translate(109,26)"/>
<path d="M0 0 C0.721875 0.103125 1.44375 0.20625 2.1875 0.3125 C1.1875 2.3125 1.1875 2.3125 -0.87890625 3.1640625 C-2.11447266 3.54691406 -2.11447266 3.54691406 -3.375 3.9375 C-4.61443359 4.32808594 -4.61443359 4.32808594 -5.87890625 4.7265625 C-6.51699219 4.91992188 -7.15507813 5.11328125 -7.8125 5.3125 C-3.50480769 0.38942308 -3.50480769 0.38942308 0 0 Z " fill="#989898" transform="translate(93.8125,23.6875)"/>
<path d="M0 0 C0.99 0 1.98 0 3 0 C2.34 1.65 1.68 3.3 1 5 C0.01 5 -0.98 5 -2 5 C-1.34 3.35 -0.68 1.7 0 0 Z " fill="#555555" transform="translate(45,36)"/>
<path d="M0 0 C0.33 0.66 0.66 1.32 1 2 C-0.98 4.97 -0.98 4.97 -3 8 C-3.66 7.01 -4.32 6.02 -5 5 C-3.35 3.35 -1.7 1.7 0 0 Z " fill="#9D9D9D" transform="translate(117,33)"/>
</svg>
