<?xml version="1.0" encoding="iso-8859-1"?>
<svg height="128" version="1.1" width="128" xmlns="http://www.w3.org/2000/svg">
	

	<path d="M0 0 C42.24 0 84.48 0 128 0 C128 42.24 128 84.48 128 128 C85.76 128 43.52 128 0 128 C0 85.76 0 43.52 0 0 Z " fill="#FCFCFB" transform="translate(0,0)"/>
	

	<path d="M0 0 C1.45426101 2.19445373 2.28085123 4.28020808 3.11328125 6.7734375 C4.09194126 9.23086573 4.88349466 10.42251121 7 12 C9.13898301 12.50131965 9.13898301 12.50131965 11.4375 12.5625 C14.80269258 12.75040415 17.05643101 13.33041303 20 15 C20.66 13.68 21.32 12.36 22 11 C19.525 10.505 19.525 10.505 17 10 C16.3125 7.25 16.3125 7.25 16 4 C17.4375 1.625 17.4375 1.625 19 0 C21.875 0.3125 21.875 0.3125 25 1 C27 4 27 4 26.4375 7.4375 C25.60781114 10.94540668 25.60781114 10.94540668 27.5 13.1875 C27.995 13.785625 28.49 14.38375 29 15 C28.75203633 17.16968209 28.55766393 18.44233607 27 20 C25.48530552 20.23192865 23.96245438 20.41215238 22.4375 20.5625 C21.19806641 20.68818359 21.19806641 20.68818359 19.93359375 20.81640625 C19.29550781 20.87699219 18.65742187 20.93757813 18 21 C17.505 22.485 17.505 22.485 17 24 C18.0725 23.95875 19.145 23.9175 20.25 23.875 C23.65747485 23.9885825 25.20739631 24.21273364 28 26 C27.62843526 28.69384434 27.24505825 29.7802926 25.1875 31.625 C23.16991243 32.8931979 21.16036789 33.99697205 19 35 C21.64 35.66 24.28 36.32 27 37 C26.67 38.32 26.34 39.64 26 41 C22.9375 42.25 22.9375 42.25 20 43 C20 44.32 20 45.64 20 47 C22.17862819 49.00719496 22.17862819 49.00719496 25 50 C27.5417397 49.22977585 29.01048071 47.99142487 31.0625 46.3125 C31.701875 45.879375 32.34125 45.44625 33 45 C34.485 45.495 34.485 45.495 36 46 C36.3125 48.26171875 36.3125 48.26171875 36 51 C33.8125 53.01953125 33.8125 53.01953125 31 54.8125 C30.071875 55.41707031 29.14375 56.02164063 28.1875 56.64453125 C27.465625 57.09183594 26.74375 57.53914063 26 58 C27.31473502 60.51097986 27.31473502 60.51097986 29 63 C31.80045046 63.85650653 31.80045046 63.85650653 35 64 C41.45646766 64.55659204 41.45646766 64.55659204 44.375 66.9375 C47.09423956 70.38884252 47.43908146 72.60918544 47 77 C45.125 79.375 45.125 79.375 43 81 C42.34 81 41.68 81 41 81 C41 81.66 41 82.32 41 83 C41.9075 83.103125 42.815 83.20625 43.75 83.3125 C47.05910846 84.01250371 48.66954256 84.57990958 51 87 C51 88.32 51 89.64 51 91 C47.44999856 93.36666763 46.18142922 93.65591047 42 93 C39.5354883 91.32904989 37.66528962 89.46902316 36 87 C35.625 84.125 35.625 84.125 36 82 C34.8553125 83.175625 34.8553125 83.175625 33.6875 84.375 C31 87 31 87 28 89 C24.91376273 88.90044396 23.92055976 87.92683136 21.625 85.8125 C20 83 20 83 20.375 79.8125 C22.45411696 76.21402834 24.10492054 76.0773624 28 75 C28.495 73.515 28.495 73.515 29 72 C27.63875 72.495 27.63875 72.495 26.25 73 C23 74 23 74 19 74 C18.9175 72.700625 18.835 71.40125 18.75 70.0625 C18.19661737 64.85905135 16.35320007 60.62978432 14 56 C11.62399041 59.46501398 10.42741684 61.76288459 11 66 C11.99 66.99 11.99 66.99 13 68 C13.26991906 70.68839385 13.08737357 73.29141936 13 76 C11.35 76 9.7 76 8 76 C7.67 75.01 7.34 74.02 7 73 C3.7 73 0.4 73 -3 73 C-2.319375 73.680625 -1.63875 74.36125 -0.9375 75.0625 C-0.47730469 75.52785156 -0.01710937 75.99320312 0.45703125 76.47265625 C1.47553059 77.48084167 2.514643 78.46866993 3.57421875 79.43359375 C8.50351163 84.04116122 12.15554228 89.33386607 15.88671875 94.9140625 C18.62438625 98.91176551 21.48270796 102.65857256 25 106 C24.5 108.25 24.5 108.25 23 111 C21.05549563 112.17107229 19.07039637 113.05075184 16.98828125 113.953125 C14.71646714 114.97351361 14.71646714 114.97351361 12.875 117.75 C7.98306605 121.57847005 1.9841153 120.36439132 -4 120 C-4.33 119.01 -4.66 118.02 -5 117 C-7.00016466 115.79117904 -7.00016466 115.79117904 -9 115 C-9 114.34 -9 113.68 -9 113 C-9.928125 113.0825 -10.85625 113.165 -11.8125 113.25 C-15 113 -15 113 -16.9375 111.5 C-18.56789236 107.66378269 -17.85267605 105.06660885 -17 101 C-14.00222099 98.00222099 -10.95376647 98.27759998 -6.84375 97.953125 C-2.86392216 98.01872656 -0.4511481 99.0826955 3 101 C0.62486967 95.37469132 -1.71959627 93.59049878 -7.0625 91 C-10.55289956 89.19850345 -12.55311812 87.96079604 -14.25 84.3125 C-15.14014343 80.38103317 -15.13872119 77.02291438 -15 73 C-17.64 73 -20.28 73 -23 73 C-23.33 74.98 -23.66 76.96 -24 79 C-25.65 78.67 -27.3 78.34 -29 78 C-29.17015625 77.443125 -29.3403125 76.88625 -29.515625 76.3125 C-30.80456507 72.25370998 -32.17438241 68.53852185 -34.25 64.8125 C-36.14230133 61.23576377 -36.18659174 58.9553058 -35 55 C-28.25 55.75 -28.25 55.75 -26 58 C-15.77864387 60.5396621 -2.9110538 62.18694444 7 58 C7.96877057 55.96756452 7.96877057 55.96756452 8 54 C6.68 53.34 5.36 52.68 4 52 C4.66 51.34 5.32 50.68 6 50 C5.505 49.5875 5.01 49.175 4.5 48.75 C3 47 3 47 3 43 C1.37509046 42.97301811 -0.24994633 42.95361243 -1.875 42.9375 C-2.77992187 42.92589844 -3.68484375 42.91429687 -4.6171875 42.90234375 C-7.0168585 42.83750743 -7.0168585 42.83750743 -9 44 C-10.99960012 44.039992 -13.00047242 44.04346799 -15 44 C-15.33 43.34 -15.66 42.68 -16 42 C-15.4225 41.7525 -14.845 41.505 -14.25 41.25 C-11.67591915 39.81995508 -10.01086248 38.14059555 -8 36 C-7 35 -6 34 -5 33 C-7.73701187 34.01660441 -10.13563991 35.08396756 -12.625 36.625 C-15 38 -15 38 -18 38 C-18.33 39.32 -18.66 40.64 -19 42 C-21.77170395 41.88613541 -24.54178046 41.75939222 -27.3125 41.625 C-28.09818359 41.5940625 -28.88386719 41.563125 -29.69335938 41.53125 C-30.45068359 41.49257813 -31.20800781 41.45390625 -31.98828125 41.4140625 C-32.68477783 41.3826416 -33.38127441 41.3512207 -34.09887695 41.31884766 C-36 41 -36 41 -39 39 C-39.125 36.6875 -39.125 36.6875 -39 34 C-39.28875 33.21625 -39.5775 32.4325 -39.875 31.625 C-40 29 -40 29 -38.66015625 27.33984375 C-38.09167969 26.75332031 -37.52320313 26.16679688 -36.9375 25.5625 C-35.22290731 23.85651887 -35.22290731 23.85651887 -34 22 C-34.43637654 18.59874294 -34.43637654 18.59874294 -36 16 C-33 15 -33 15 -30 16 C-30 15.01 -30 14.02 -30 13 C-30.99 12.67 -31.98 12.34 -33 12 C-33.495 9.525 -33.495 9.525 -34 7 C-34.99 6.67 -35.98 6.34 -37 6 C-36.49396008 3.83125748 -36.00016187 2.00032373 -35 0 C-32.375 -0.125 -32.375 -0.125 -29 1 C-27.17129639 3.48119879 -25.73621804 6.02608199 -24.296875 8.75 C-23.20103107 11.12931434 -23.20103107 11.12931434 -21 12 C-17.94402655 11.99120583 -14.90091044 11.86832437 -11.84765625 11.7421875 C-9 12 -9 12 -7.2578125 13.46484375 C-6.84273437 13.97144531 -6.42765625 14.47804688 -6 15 C-3.89667109 15.71447643 -3.89667109 15.71447643 -2 16 C-2.75417122 13.65368952 -3.48996418 12.29110535 -5.65625 11.0546875 C-6.2853125 10.74789063 -6.914375 10.44109375 -7.5625 10.125 C-10.6037505 8.53166294 -10.88439281 8.36127248 -12 4.875 C-12 2 -12 2 -11 0 C-7.14394841 -1.28535053 -3.75265839 -1.64083849 0 0 Z " fill="#B8D7DE" transform="translate(64,8)"/>
	

	

	<path d="M0 0 C1.94242058 2.80320171 2.91034709 5.79037882 4 9 C4.68555584 11.24195695 4.68555584 11.24195695 6 13 C8.34533951 13.76956136 8.34533951 13.76956136 11 14 C13.6875 14.3125 13.6875 14.3125 16 15 C17.3828125 16.89453125 17.3828125 16.89453125 18 19 C16.875 21.6875 16.875 21.6875 15 24 C11.91598319 25.10432043 9.00224871 25.10529275 5.75 25.0625 C4.85796875 25.05347656 3.9659375 25.04445313 3.046875 25.03515625 C2.37140625 25.02355469 1.6959375 25.01195313 1 25 C0.773125 25.60585938 0.54625 26.21171875 0.3125 26.8359375 C-1.38747961 29.63888007 -3.03565988 30.28932349 -6 31.625 C-9.81303135 33.35090143 -9.81303135 33.35090143 -13 36 C-16.125 36.125 -16.125 36.125 -19 36 C-19.5625 32.875 -19.5625 32.875 -19 29 C-14.69408337 24.75975095 -9.99631646 22.59963165 -4 22 C-3.67 21.34 -3.34 20.68 -3 20 C-3.59425781 20.06058594 -4.18851563 20.12117188 -4.80078125 20.18359375 C-6.04408203 20.30927734 -6.04408203 20.30927734 -7.3125 20.4375 C-8.66988281 20.57671875 -8.66988281 20.57671875 -10.0546875 20.71875 C-12.03703185 20.90804548 -14.02169629 21.07430518 -16.0078125 21.21875 C-16.97460938 21.2909375 -17.94140625 21.363125 -18.9375 21.4375 C-19.83339844 21.49808594 -20.72929688 21.55867188 -21.65234375 21.62109375 C-24.26347367 21.87589926 -24.26347367 21.87589926 -27 24 C-28.32 24 -29.64 24 -31 24 C-31.2475 24.804375 -31.495 25.60875 -31.75 26.4375 C-33 29 -33 29 -35.125 29.8125 C-35.74375 29.874375 -36.3625 29.93625 -37 30 C-36.1875 27.5625 -36.1875 27.5625 -35 25 C-34.01 24.67 -33.02 24.34 -32 24 C-31.896875 23.21625 -31.79375 22.4325 -31.6875 21.625 C-31 19 -31 19 -28 17 C-27.27034634 14.43717258 -27.27034634 14.43717258 -27 12 C-29.97 11.505 -29.97 11.505 -33 11 C-33.103125 10.360625 -33.20625 9.72125 -33.3125 9.0625 C-33.539375 8.381875 -33.76625 7.70125 -34 7 C-34.99 6.67 -35.98 6.34 -37 6 C-36.49396008 3.83125748 -36.00016187 2.00032373 -35 0 C-32.375 -0.125 -32.375 -0.125 -29 1 C-27.17129639 3.48119879 -25.73621804 6.02608199 -24.296875 8.75 C-23.20103107 11.12931434 -23.20103107 11.12931434 -21 12 C-17.94402655 11.99120583 -14.90091044 11.86832437 -11.84765625 11.7421875 C-9 12 -9 12 -7.2578125 13.46484375 C-6.84273437 13.97144531 -6.42765625 14.47804688 -6 15 C-3.89667109 15.71447643 -3.89667109 15.71447643 -2 16 C-2.75417122 13.65368952 -3.48996418 12.29110535 -5.65625 11.0546875 C-6.2853125 10.74789063 -6.914375 10.44109375 -7.5625 10.125 C-10.6037505 8.53166294 -10.88439281 8.36127248 -12 4.875 C-12 2 -12 2 -11 0 C-7.13952083 -1.28682639 -3.75865357 -1.6325465 0 0 Z " fill="#9DC9D7" transform="translate(64,8)"/>
	

	<path d="M0 0 C0.515625 0.268125 1.03125 0.53625 1.5625 0.8125 C4.12914288 2.1073961 4.12914288 2.1073961 7.4375 3.3125 C16.42560691 7.57002433 21.009674 17.21625232 25.921875 25.46875 C26.93538214 27.16513994 26.93538214 27.16513994 29 28 C29 28.66 29 29.32 29 30 C30.32 30.33 31.64 30.66 33 31 C32.125 35.75 32.125 35.75 31 38 C30.0925 38.433125 29.185 38.86625 28.25 39.3125 C24.86885229 40.76766224 24.86885229 40.76766224 23 43.6875 C17.99807494 47.54315057 12.0921414 46.37096937 6 46 C5.505 44.515 5.505 44.515 5 43 C2.99983534 41.79117904 2.99983534 41.79117904 1 41 C1 39.68 1 38.36 1 37 C0.360625 36.773125 -0.27875 36.54625 -0.9375 36.3125 C-3 35 -3 35 -3.75 32.375 C-3.8325 31.59125 -3.915 30.8075 -4 30 C-0.78817851 28.09391902 1.53882603 27.77733753 5.25 27.875 C6.14203125 27.89304687 7.0340625 27.91109375 7.953125 27.9296875 C8.62859375 27.95289062 9.3040625 27.97609375 10 28 C10.33 28.99 10.66 29.98 11 31 C11.66 31.165 12.32 31.33 13 31.5 C13.66 31.665 14.32 31.83 15 32 C15.33 32.99 15.66 33.98 16 35 C18.97 34.505 18.97 34.505 22 34 C21.505 33.38125 21.01 32.7625 20.5 32.125 C19 30 19 30 19 28 C18.34 28 17.68 28 17 28 C16.896875 27.401875 16.79375 26.80375 16.6875 26.1875 C16.19319069 23.94788071 16.19319069 23.94788071 14.5625 22.75 C12.04422702 19.92953427 11.7800202 16.6600948 11 13 C9.68 12.67 8.36 12.34 7 12 C7 10.68 7 9.36 7 8 C4.69 7.34 2.38 6.68 0 6 C-1.125 2.25 -1.125 2.25 0 0 Z " fill="#6CB6D7" transform="translate(54,82)"/>
	

	<path d="M0 0 C2.73623763 0.90231391 3.491258 2.06893707 4.82421875 4.6015625 C5.05753906 5.19066406 5.29085937 5.77976562 5.53125 6.38671875 C6.46802988 8.46987765 7.22184734 9.96031954 8.82421875 11.6015625 C12.16604758 12.50675078 15.37308477 12.64766543 18.82421875 12.6015625 C18.58058594 11.74111328 18.58058594 11.74111328 18.33203125 10.86328125 C17.55053009 7.3825953 17.7073609 4.16572687 17.82421875 0.6015625 C19.54517098 -1.11938973 21.79585789 -0.57043511 24.13671875 -0.5859375 C25.58498047 -0.60720703 25.58498047 -0.60720703 27.0625 -0.62890625 C29.95085949 -0.38786918 31.50449748 -0.12918722 33.82421875 1.6015625 C34.87109375 3.984375 34.87109375 3.984375 35.57421875 6.7265625 C35.8165625 7.63664063 36.05890625 8.54671875 36.30859375 9.484375 C36.47875 10.18304688 36.64890625 10.88171875 36.82421875 11.6015625 C39.79421875 11.9315625 42.76421875 12.2615625 45.82421875 12.6015625 C45.80359375 11.1990625 45.78296875 9.7965625 45.76171875 8.3515625 C45.71592109 5.23732161 45.95187755 2.59637167 46.82421875 -0.3984375 C54.81514785 -0.21061652 54.81514785 -0.21061652 58.38671875 2.6640625 C60.31263372 6.59962787 59.96297254 9.23081808 59.82421875 13.6015625 C60.75705171 15.80223671 60.75705171 15.80223671 61.82421875 17.6015625 C61.82421875 18.9215625 61.82421875 20.2415625 61.82421875 21.6015625 C60.50421875 22.2615625 59.18421875 22.9215625 57.82421875 23.6015625 C58.33984375 23.9728125 58.85546875 24.3440625 59.38671875 24.7265625 C60.82421875 26.6015625 60.82421875 26.6015625 60.76171875 29.6015625 C59.71132491 32.96282278 58.8130871 33.86609055 55.82421875 35.6015625 C56.46359375 35.8078125 57.10296875 36.0140625 57.76171875 36.2265625 C59.82421875 37.6015625 59.82421875 37.6015625 60.57421875 40.7265625 C60.65671875 41.6753125 60.73921875 42.6240625 60.82421875 43.6015625 C58.18421875 44.5915625 55.54421875 45.5815625 52.82421875 46.6015625 C54.30921875 48.0865625 54.30921875 48.0865625 55.82421875 49.6015625 C59.19142262 48.20823676 60.81017115 46.6226339 62.82421875 43.6015625 C64.47421875 43.9315625 66.12421875 44.2615625 67.82421875 44.6015625 C68.94921875 52.3515625 68.94921875 52.3515625 67.82421875 54.6015625 C66.33921875 54.1065625 66.33921875 54.1065625 64.82421875 53.6015625 C65.15421875 53.2715625 65.48421875 52.9415625 65.82421875 52.6015625 C65.86485707 50.93539135 65.86693975 49.26768155 65.82421875 47.6015625 C62.44918206 48.7873862 60.17699144 49.87729939 57.82421875 52.6015625 C53.82421875 50.6015625 53.82421875 50.6015625 49.82421875 48.6015625 C49.94921875 46.7890625 49.94921875 46.7890625 50.82421875 44.6015625 C52.80741893 43.56864574 54.80769681 42.5678126 56.82421875 41.6015625 C57.15421875 40.6115625 57.48421875 39.6215625 57.82421875 38.6015625 C54.52421875 37.9415625 51.22421875 37.2815625 47.82421875 36.6015625 C49.82421875 34.6015625 49.82421875 34.6015625 53.38671875 33.2265625 C54.52109375 32.6903125 55.65546875 32.1540625 56.82421875 31.6015625 C57.15421875 30.2815625 57.48421875 28.9615625 57.82421875 27.6015625 C52.87421875 26.6115625 52.87421875 26.6115625 47.82421875 25.6015625 C48.15421875 24.2815625 48.48421875 22.9615625 48.82421875 21.6015625 C51.79421875 21.2715625 54.76421875 20.9415625 57.82421875 20.6015625 C58.15421875 19.2815625 58.48421875 17.9615625 58.82421875 16.6015625 C58.32921875 15.8178125 57.83421875 15.0340625 57.32421875 14.2265625 C55.40535597 10.86855263 56.18018688 9.30474576 56.82421875 5.6015625 C55.84372937 3.53753565 55.84372937 3.53753565 53.82421875 2.6015625 C51.16955826 2.83200114 51.16955826 2.83200114 48.82421875 3.6015625 C47.80881763 7.70379835 47.80881763 7.70379835 48.82421875 11.6015625 C50.8488513 12.25369542 50.8488513 12.25369542 52.82421875 12.6015625 C52.44921875 14.5390625 52.44921875 14.5390625 51.82421875 16.6015625 C50.83421875 17.0965625 50.83421875 17.0965625 49.82421875 17.6015625 C48.83421875 16.9415625 47.84421875 16.2815625 46.82421875 15.6015625 C44.67595685 15.29432983 44.67595685 15.29432983 42.38671875 15.2265625 C39.36879114 14.92819364 38.02695501 14.73494162 35.44921875 13.0390625 C33.22999516 9.71022711 32.08957077 6.39761856 30.82421875 2.6015625 C25.33979205 1.85825336 25.33979205 1.85825336 19.82421875 1.6015625 C19.43314981 5.63611623 19.43314981 5.63611623 20.94921875 9.2265625 C22.58470694 10.42592051 24.29376933 11.52363345 26.01171875 12.6015625 C26.93984375 13.2615625 27.86796875 13.9215625 28.82421875 14.6015625 C28.82421875 15.5915625 28.82421875 16.5815625 28.82421875 17.6015625 C24.07421875 16.8515625 24.07421875 16.8515625 21.82421875 14.6015625 C19.88576381 14.58724599 17.94610027 14.66264792 16.01171875 14.7890625 C10.22244806 14.88601201 10.22244806 14.88601201 6.76171875 12.4140625 C1.82421875 5.24672379 1.82421875 5.24672379 1.82421875 2.6015625 C-1.14578125 2.1065625 -1.14578125 2.1065625 -4.17578125 1.6015625 C-4.94294976 4.45234341 -4.94294976 4.45234341 -5.17578125 7.6015625 C-3.86310169 9.33099725 -3.86310169 9.33099725 -2.17578125 10.6015625 C-1.84578125 11.5915625 -1.51578125 12.5815625 -1.17578125 13.6015625 C-0.51578125 13.9315625 0.14421875 14.2615625 0.82421875 14.6015625 C0.82421875 15.5915625 0.82421875 16.5815625 0.82421875 17.6015625 C-0.82578125 17.6015625 -2.47578125 17.6015625 -4.17578125 17.6015625 C-3.51578125 19.5815625 -2.85578125 21.5615625 -2.17578125 23.6015625 C-3.49578125 24.5915625 -4.81578125 25.5815625 -6.17578125 26.6015625 C-5.51578125 24.9515625 -4.85578125 23.3015625 -4.17578125 21.6015625 C-4.83578125 21.6015625 -5.49578125 21.6015625 -6.17578125 21.6015625 C-6.98545563 18.68673472 -7.39424118 17.14043033 -6.23828125 14.2890625 C-5.88765625 13.7321875 -5.53703125 13.1753125 -5.17578125 12.6015625 C-6.00078125 12.2303125 -6.82578125 11.8590625 -7.67578125 11.4765625 C-10.17578125 9.6015625 -10.17578125 9.6015625 -10.73828125 6.6640625 C-10.17578125 3.6015625 -10.17578125 3.6015625 -8.67578125 1.1640625 C-5.47917191 -0.83381834 -3.63096658 -0.6845815 0 0 Z " fill="#DCECED" transform="translate(33.17578125,6.3984375)"/>
	

	<path d="M0 0 C0.66 0.33 1.32 0.66 2 1 C1.814375 1.763125 1.62875 2.52625 1.4375 3.3125 C0.77180827 6.08967375 0.77180827 6.08967375 2 9 C2 9.99 2 10.98 2 12 C5.29841266 13.64920633 8.9962313 13.66486707 12.625 14.0625 C13.42679688 14.15337891 14.22859375 14.24425781 15.0546875 14.33789062 C17.03607868 14.56197653 19.01799305 14.7814275 21 15 C21.14115234 14.06027344 21.14115234 14.06027344 21.28515625 13.1015625 C21.52105469 12.40804687 21.75695312 11.71453125 22 11 C25.4375 9.375 25.4375 9.375 29 8 C29.66 7.34 30.32 6.68 31 6 C32.32 6 33.64 6 35 6 C34.67 6.99 34.34 7.98 34 9 C32.66666667 9.66666667 31.33333333 10.33333333 30 11 C28.29503463 12.62746694 26.62102968 14.28891311 25 16 C29.14093698 16.20970559 29.14093698 16.20970559 33 15 C34.875 14.8671875 34.875 14.8671875 37 14.875 C38.051875 14.87113281 38.051875 14.87113281 39.125 14.8671875 C41 15 41 15 43 16 C43.71247732 17.6476038 44.37400383 19.31763529 45 21 C46.2899714 24.16017258 46.2899714 24.16017258 49 26 C48.4375 28.875 48.4375 28.875 47 32 C37.68729663 36.5528772 23.67980404 34.54588376 14 32 C11.80078125 30.46875 11.80078125 30.46875 10 29 C7.35065178 28.28566879 7.35065178 28.28566879 5 28 C4.91087781 31.83225427 5.12132271 35.26562152 6 39 C3.54772637 36.44554831 3.00122033 35.00869484 2.5 31.4375 C3 28 3 28 5.5 26.0625 C6.325 25.711875 7.15 25.36125 8 25 C12.875 27.875 12.875 27.875 14 29 C21.33161007 30.6547456 28.50122022 31.29862397 36 31 C33.21466571 27.88009102 31.15654359 27.46183818 27 27 C27 26.67 27 26.34 27 26 C28.134375 25.71125 29.26875 25.4225 30.4375 25.125 C31.613125 24.75375 32.78875 24.3825 34 24 C34.33 23.34 34.66 22.68 35 22 C34.154375 21.96261719 33.30875 21.92523438 32.4375 21.88671875 C26.56134182 21.54616867 21.49885431 21.14532414 16.109375 18.75 C12.41718103 17.43721992 8.51651541 17.15484871 4.63671875 16.72265625 C2 16 2 16 0.16015625 14.2890625 C-1.27765912 11.4521608 -1.33456716 9.47954009 -1.25 6.3125 C-1.22679688 4.85263672 -1.22679688 4.85263672 -1.203125 3.36328125 C-1 1 -1 1 0 0 Z " fill="#DCECED" transform="translate(24,35)"/>
	

	

	

	<path d="M0 0 C0.33 1.65 0.66 3.3 1 5 C-2.465 6.485 -2.465 6.485 -6 8 C-6 8.99 -6 9.98 -6 11 C-3.525 11.495 -3.525 11.495 -1 12 C-2.26794449 15.80383347 -3.64453288 16.00269814 -7 18 C-8.78344178 20.06954847 -8.78344178 20.06954847 -10 22 C-11.65 21.67 -13.3 21.34 -15 21 C-15.06058594 20.22269531 -15.12117188 19.44539063 -15.18359375 18.64453125 C-15.73467787 15.81257756 -15.73467787 15.81257756 -18.28515625 14.63671875 C-19.20167969 14.32347656 -20.11820312 14.01023437 -21.0625 13.6875 C-21.98160156 13.36136719 -22.90070313 13.03523438 -23.84765625 12.69921875 C-24.55792969 12.46847656 -25.26820312 12.23773438 -26 12 C-25.125 4.125 -25.125 4.125 -24 3 C-20.05163095 2.7367754 -17.39620731 2.91002627 -14 5 C-13.773125 4.38125 -13.54625 3.7625 -13.3125 3.125 C-10.12379653 -2.03766277 -5.32650928 -1.04441358 0 0 Z " fill="#95C4D6" transform="translate(89,34)"/>
	

	<path d="M0 0 C4 1 4 1 6 3 C11.44640518 4.43246801 17.08987663 4.42882979 22.6875 4.6875 C24.27401367 4.77741211 24.27401367 4.77741211 25.89257812 4.86914062 C26.90126953 4.91619141 27.90996094 4.96324219 28.94921875 5.01171875 C29.87049561 5.05772217 30.79177246 5.10372559 31.7409668 5.15112305 C34.20352855 5.23535935 34.20352855 5.23535935 36 3 C36.99 3 37.98 3 39 3 C39.66 5.97 40.32 8.94 41 12 C37.35418402 12.0293908 33.70839913 12.04692874 30.0625 12.0625 C29.04091797 12.07087891 28.01933594 12.07925781 26.96679688 12.08789062 C20.8878003 12.10731234 15.0273768 11.79820318 9 11 C8.34 12.98 7.68 14.96 7 17 C6.34 17 5.68 17 5 17 C4.34 14.36 3.68 11.72 3 9 C2.34 9 1.68 9 1 9 C0.67 6.03 0.34 3.06 0 0 Z " fill="#419CCD" transform="translate(32,67)"/>
	

	<path d="M0 0 C0.66 0 1.32 0 2 0 C2.0928125 1.546875 2.0928125 1.546875 2.1875 3.125 C3.1072987 7.51173227 4.60605171 10.16202857 8 13 C10.02902168 14.09954781 12.09211544 15.04767093 14.1953125 15.99609375 C16.82010641 17.45620638 17.8541651 19.27864211 19 22 C19 22.66 19 23.32 19 24 C19.99 24.33 20.98 24.66 22 25 C22 26.32 22 27.64 22 29 C22.66 29 23.32 29 24 29 C25.32 31.31 26.64 33.62 28 36 C24.625 36.1875 24.625 36.1875 21 36 C20.34 35.01 19.68 34.02 19 33 C17.515 32.505 17.515 32.505 16 32 C15.67 31.34 15.34 30.68 15 30 C13.39592672 29.97291433 11.7917215 29.95356517 10.1875 29.9375 C9.29417969 29.92589844 8.40085937 29.91429688 7.48046875 29.90234375 C4.86586209 29.88990033 4.86586209 29.88990033 2 31 C2.27034634 33.43717258 2.27034634 33.43717258 3 36 C3.99 36.66 4.98 37.32 6 38 C6 38.66 6 39.32 6 40 C0.6179402 40.47840532 0.6179402 40.47840532 -1.9375 38.5 C-3.56789236 34.66378269 -2.85267605 32.06660885 -2 28 C0.99777901 25.00222099 4.04623353 25.27759998 8.15625 24.953125 C12.13607784 25.01872656 14.5488519 26.0826955 18 28 C15.62486967 22.37469132 13.28040373 20.59049878 7.9375 18 C4.44710044 16.19850345 2.44688188 14.96079604 0.75 11.3125 C-0.14014343 7.38103317 -0.13872119 4.02291438 0 0 Z " fill="#D8E9EB" transform="translate(49,81)"/>
	

	<path d="M0 0 C0.66 0 1.32 0 2 0 C2 0.66 2 1.32 2 2 C2.66 2 3.32 2 4 2 C4.40992188 2.78246094 4.81984375 3.56492187 5.2421875 4.37109375 C5.78101563 5.38300781 6.31984375 6.39492187 6.875 7.4375 C7.40867187 8.44683594 7.94234375 9.45617187 8.4921875 10.49609375 C9.75654114 13.10140442 9.75654114 13.10140442 12 14 C15.34234746 14.23748258 18.68350537 14.38271372 22.03125 14.5234375 C23.0109375 14.68070313 23.990625 14.83796875 25 15 C25.99 16.485 25.99 16.485 27 18 C23.12538544 19.63141666 20.0754149 20.06055672 15.9375 19.875 C12.16747454 19.7729542 11.2697919 19.82013873 8 22 C7.34 22.66 6.68 23.32 6 24 C5.34 24 4.68 24 4 24 C3.7525 24.804375 3.505 25.60875 3.25 26.4375 C2 29 2 29 -0.125 29.8125 C-0.74375 29.874375 -1.3625 29.93625 -2 30 C-1.1875 27.5625 -1.1875 27.5625 0 25 C0.99 24.67 1.98 24.34 3 24 C3.103125 23.21625 3.20625 22.4325 3.3125 21.625 C4 19 4 19 7 17 C7.72965366 14.43717258 7.72965366 14.43717258 8 12 C5.03 11.505 5.03 11.505 2 11 C1.896875 10.360625 1.79375 9.72125 1.6875 9.0625 C1.460625 8.381875 1.23375 7.70125 1 7 C0.01 6.67 -0.98 6.34 -2 6 C-1.49396008 3.83125748 -1.00016187 2.00032373 0 0 Z " fill="#6BB6D7" transform="translate(29,8)"/>
	

	<path d="M0 0 C2.375 0.3125 2.375 0.3125 5 1 C7.4294516 4.6441774 7.16179575 6.71241272 7 11 C2.98195309 11.84098656 -0.01803543 12.05404945 -4 11 C-5.32 13.64 -6.64 16.28 -8 19 C-12 18 -12 18 -14 15 C-13.625 12.3125 -13.625 12.3125 -13 10 C-11.68 9.67 -10.36 9.34 -9 9 C-9 8.34 -9 7.68 -9 7 C-3.58823529 3 -3.58823529 3 -1 3 C-0.67 2.01 -0.34 1.02 0 0 Z " fill="#68B4D6" transform="translate(101,76)"/>
	

	<path d="M0 0 C1.33333333 0.66666667 2.66666667 1.33333333 4 2 C5.0828125 2.433125 5.0828125 2.433125 6.1875 2.875 C8 4 8 4 8.5625 6.0625 C8.706875 6.701875 8.85125 7.34125 9 8 C9.99 8.33 10.98 8.66 12 9 C17.31841039 14.170334 21.47905913 20.18939291 25 26.6875 C26.82028731 29.70235086 28.04227385 31.2042377 31 33 C30.67 33.66 30.34 34.32 30 35 C28.35 34.67 26.7 34.34 25 34 C24.67 33.01 24.34 32.02 24 31 C23.38125 30.731875 22.7625 30.46375 22.125 30.1875 C19.05162179 28.47002394 18.42562876 26.16117682 17 23 C15.58894665 20.47186275 14.35997225 18.35997225 12.3125 16.3125 C11.879375 15.879375 11.44625 15.44625 11 15 C11 14.34 11 13.68 11 13 C9.68 12.67 8.36 12.34 7 12 C7 10.68 7 9.36 7 8 C4.69 7.34 2.38 6.68 0 6 C-1.125 2.25 -1.125 2.25 0 0 Z " fill="#419CCD" transform="translate(54,82)"/>
	

	<path d="M0 0 C7.28960463 0.69087383 14.4968937 0.65244598 21.8125 0.5625 C21.8125 0.8925 21.8125 1.2225 21.8125 1.5625 C18.1825 1.8925 14.5525 2.2225 10.8125 2.5625 C10.48031808 5.56509517 10.48031808 5.56509517 12.3125 7.25 C12.8075 7.683125 13.3025 8.11625 13.8125 8.5625 C10.45654172 7.96322174 8.43448774 6.71627564 5.8125 4.5625 C5.8125 6.2125 5.8125 7.8625 5.8125 9.5625 C9.2775 11.0475 9.2775 11.0475 12.8125 12.5625 C12.8125 13.8825 12.8125 15.2025 12.8125 16.5625 C14.1325 16.8925 15.4525 17.2225 16.8125 17.5625 C17.1425 18.8825 17.4725 20.2025 17.8125 21.5625 C11.54180932 18.81070176 6.40980114 16.5580019 2.8125 10.5625 C2.5 6.6875 2.5 6.6875 2.8125 3.5625 C-0.4875 3.5625 -3.7875 3.5625 -7.1875 3.5625 C-7.5175 5.5425 -7.8475 7.5225 -8.1875 9.5625 C-9.5075 9.5625 -10.8275 9.5625 -12.1875 9.5625 C-12.1875 7.9125 -12.1875 6.2625 -12.1875 4.5625 C-11.8575 5.2225 -11.5275 5.8825 -11.1875 6.5625 C-8.92452265 5.70782959 -8.92452265 5.70782959 -8.1875 3.0625 C-6.45263618 -1.27465954 -4.16796982 -0.45560804 0 0 Z " fill="#74B9D7" transform="translate(48.1875,77.4375)"/>
	

	<path d="M0 0 C0.66 0.33 1.32 0.66 2 1 C0.7934375 1.8971875 0.7934375 1.8971875 -0.4375 2.8125 C-3.22327984 4.80947276 -3.22327984 4.80947276 -4 8 C-2.80761719 8.18175781 -1.61523438 8.36351563 -0.38671875 8.55078125 C1.17979082 8.80404926 2.74619162 9.05799072 4.3125 9.3125 C5.09818359 9.43044922 5.88386719 9.54839844 6.69335938 9.66992188 C7.8293457 9.85844727 7.8293457 9.85844727 8.98828125 10.05078125 C9.68477783 10.16075439 10.38127441 10.27072754 11.09887695 10.3840332 C13.42062842 11.13628425 14.46102545 12.12841589 16 14 C17.15231967 17.62256185 17.70830297 21.37156514 16.1640625 24.921875 C15.0625 26.5625 15.0625 26.5625 13 29 C13.969375 29.28875 14.93875 29.5775 15.9375 29.875 C19 31 19 31 20 33 C20.41100021 37.27440216 20.21645311 39.57482426 18.25 43.4375 C17.13625 44.7059375 17.13625 44.7059375 16 46 C14.68 46 13.36 46 12 46 C11.34 44.02 10.68 42.04 10 40 C12.97 39.34 15.94 38.68 19 38 C18.58377402 35.53044606 18.58377402 35.53044606 17 33 C14.4309588 31.65780705 11.78186561 30.79574295 9 30 C9 29.34 9 28.68 9 28 C9.825 27.4225 10.65 26.845 11.5 26.25 C14.29468448 24.21667976 14.29468448 24.21667976 14.4375 21 C13.88613499 17.21570622 13.88613499 17.21570622 12 14 C8.89595046 12.17408851 6.49965078 11.95331902 3 12.125 C-0.28384871 12.2181148 -0.96161527 12.0236842 -3.9375 10.1875 C-6 8 -6 8 -7 5 C-4.69 3.35 -2.38 1.7 0 0 Z " fill="#DAEAEC" transform="translate(96,61)"/>
	

	

	

	

	<path d="M0 0 C0.66 0 1.32 0 2 0 C2.33 0.99 2.66 1.98 3 3 C2.01 4.485 2.01 4.485 1 6 C2.32 6 3.64 6 5 6 C5.639375 5.34 6.27875 4.68 6.9375 4 C9 2 9 2 11.75 1.75 C12.4925 1.8325 13.235 1.915 14 2 C14.66 3.32 15.32 4.64 16 6 C14 9 14 9 11.5625 9.75 C6.6410626 10.09536403 1.8907297 9.56565379 -3 9 C-2.01 6.03 -1.02 3.06 0 0 Z " fill="#70B8D7" transform="translate(66,21)"/>
	

	<path d="M0 0 C5.32907272 2.13162909 6.44383124 3.08429085 9 8 C9 10.1875 9 10.1875 8 12 C5.07304769 14.82602292 4.24894725 15 0 15 C0 10.05 0 5.1 0 0 Z " fill="#77BAD7" transform="translate(83,67)"/>
	

	<path d="M0 0 C0 2.64 0 5.28 0 8 C-0.66 7.67 -1.32 7.34 -2 7 C-2 5.35 -2 3.7 -2 2 C-2.763125 2.49886719 -3.52625 2.99773437 -4.3125 3.51171875 C-9.36666159 5.55158693 -13.63057375 5.16500212 -19 4.8125 C-19.97195312 4.76802734 -20.94390625 4.72355469 -21.9453125 4.67773438 C-26.94686345 4.40176324 -31.31201226 3.92429227 -36 2 C-36 1.67 -36 1.34 -36 1 C-35.13197754 1.00523682 -34.26395508 1.01047363 -33.36962891 1.01586914 C-30.15299727 1.03289862 -26.93638859 1.04544408 -23.71972656 1.05493164 C-22.32681523 1.0599643 -20.9339092 1.06679098 -19.54101562 1.07543945 C-17.54038754 1.08755152 -15.53972112 1.09270412 -13.5390625 1.09765625 C-12.33459473 1.10289307 -11.13012695 1.10812988 -9.88916016 1.11352539 C-6.36398439 0.97500868 -3.65239665 -0.0961157 0 0 Z " fill="#7FBDD7" transform="translate(73,68)"/>
	

	

	<path d="M0 0 C2.5 2.3125 2.5 2.3125 5 5 C5 5.99 5 6.98 5 8 C5.99 8 6.98 8 8 8 C8.33 6.68 8.66 5.36 9 4 C12.1875 3.625 12.1875 3.625 16 4 C19 6.5625 19 6.5625 21 10 C20.8125 13.875 20.8125 13.875 20 17 C19.67 17 19.34 17 19 17 C18.34 14.03 17.68 11.06 17 8 C14.65466049 7.23043864 14.65466049 7.23043864 12 7 C10.4166747 8.2488427 10.4166747 8.2488427 9 10 C7.35394174 11.03357147 5.69036558 12.04060332 4 13 C4 12.01 4 11.02 4 10 C3.01 9.67 2.02 9.34 1 9 C1.20625 8.443125 1.4125 7.88625 1.625 7.3125 C2.10695211 4.340462 1.26565028 2.68020059 0 0 Z " fill="#96C5D6" transform="translate(89,70)"/>
	

	

	<path d="M0 0 C-1.57944297 3.15888594 -4.8785137 3.69993065 -8 5 C-10.83859805 6.1191794 -10.83859805 6.1191794 -13 8 C-14.36900354 11.57996259 -14.36900354 11.57996259 -15 15 C-16.32 15 -17.64 15 -19 15 C-19.25 12.75 -19.25 12.75 -19 10 C-17.125 7.9375 -17.125 7.9375 -15 6 C-14.731875 5.29875 -14.46375 4.5975 -14.1875 3.875 C-13 2 -13 2 -9.75 0.75 C-6.36234331 0.07246866 -3.43801441 -0.16770802 0 0 Z " fill="#DEEDEE" transform="translate(59,29)"/>
	

	

	

	

	<path d="M0 0 C0.99 2.97 1.98 5.94 3 9 C-0.48927692 8.68279301 -2.55850854 8.33692769 -5.375 6.1875 C-7 4 -7 4 -7 0 C-4.3333581 -1.33332095 -2.83319697 -0.67102033 0 0 Z " fill="#68B4D6" transform="translate(62,10)"/>
	

	<path d="M0 0 C0.33 0.66 0.66 1.32 1 2 C1.99 2.33 2.98 2.66 4 3 C4 4.32 4 5.64 4 7 C4.66 7 5.32 7 6 7 C7.32 9.31 8.64 11.62 10 14 C6.625 14.1875 6.625 14.1875 3 14 C2.34 13.01 1.68 12.02 1 11 C0.01 10.67 -0.98 10.34 -2 10 C-2.33 9.01 -2.66 8.02 -3 7 C-0.525 7.495 -0.525 7.495 2 8 C1.855625 7.4225 1.71125 6.845 1.5625 6.25 C1.04166667 4.16666667 0.52083333 2.08333333 0 0 Z " fill="#97C6D7" transform="translate(67,103)"/>
	

	<path d="M0 0 C1.08667969 0.01804687 2.17335938 0.03609375 3.29296875 0.0546875 C4.54013672 0.08949219 4.54013672 0.08949219 5.8125 0.125 C6.1425 0.785 6.4725 1.445 6.8125 2.125 C2.5225 2.785 -1.7675 3.445 -6.1875 4.125 C-5.77675565 9.24285113 -5.77675565 9.24285113 -2.1875 11.125 C-2.1875 11.785 -2.1875 12.445 -2.1875 13.125 C-5.10267292 12.05098892 -6.96560176 11.34689824 -9.1875 9.125 C-9.5 5.625 -9.5 5.625 -9.1875 2.125 C-5.66070901 -0.22619399 -4.15870515 -0.08943452 0 0 Z " fill="#A8CEDA" transform="translate(57.1875,107.875)"/>
	

	

	

	<path d="M0 0 C1.23556641 0.01740234 1.23556641 0.01740234 2.49609375 0.03515625 C3.32238281 0.04417969 4.14867188 0.05320313 5 0.0625 C5.63808594 0.07410156 6.27617188 0.08570313 6.93359375 0.09765625 C6.93359375 3.09765625 6.93359375 3.09765625 5.93359375 5.09765625 C2.96359375 5.09765625 -0.00640625 5.09765625 -3.06640625 5.09765625 C-3.06640625 0.14491523 -3.06640625 0.14491523 0 0 Z " fill="#63B1D5" transform="translate(81.06640625,34.90234375)"/>
	

	

	

	

	

	

	

	

	

	

	<path d="M0 0 C3.0625 0.125 3.0625 0.125 5.0625 1.125 C5.0625 2.445 5.0625 3.765 5.0625 5.125 C1.6875 4.8125 1.6875 4.8125 -1.9375 4.125 C-2.5975 3.135 -3.2575 2.145 -3.9375 1.125 C-2.9375 0.125 -2.9375 0.125 0 0 Z " fill="#419CCD" transform="translate(61.9375,111.875)"/>
	

	

	

	<path d="M0 0 C0 0.66 0 1.32 0 2 C-1.8984375 3.5078125 -1.8984375 3.5078125 -4.375 5.125 C-5.59316406 5.93324219 -5.59316406 5.93324219 -6.8359375 6.7578125 C-9 8 -9 8 -11 8 C-10.875 6.25 -10.875 6.25 -10 4 C-6.33306034 1.06644827 -4.76869466 0 0 0 Z " fill="#419CCD" transform="translate(59,34)"/>
	

	

	

	

	

	

	

	

	

	

	<path d="M0 0 C2.97 0.495 2.97 0.495 6 1 C6 2.32 6 3.64 6 5 C4.125 4.75 4.125 4.75 2 4 C0.75 1.9375 0.75 1.9375 0 0 Z " fill="#419CCD" transform="translate(105,94)"/>
	

	

	

	

	

	

	

	

	

	

	

</svg>
