<?xml version="1.0" encoding="iso-8859-1"?>
<svg height="128" version="1.1" width="128" xmlns="http://www.w3.org/2000/svg">
	

	<path d="M0 0 C42.24 0 84.48 0 128 0 C128 42.24 128 84.48 128 128 C85.76 128 43.52 128 0 128 C0 85.76 0 43.52 0 0 Z " fill="#353636" transform="translate(0,0)"/>
	

	<path d="M0 0 C3.31128515 2.40546246 6.12826655 5.0948743 9 8 C10.36659308 9.17650307 11.7414325 10.34350656 13.125 11.5 C19.28549873 16.92123888 24.44843425 21.72498265 26 30 C22.88742431 30 20.89234315 29.82638376 18 29 C17.61070313 29.98355469 17.22140625 30.96710937 16.8203125 31.98046875 C14.93720202 36.37402441 12.45539002 40.3006256 9.875 44.3125 C8.975894 45.72483506 8.07742561 47.1375763 7.1796875 48.55078125 C6.78507324 49.16606689 6.39045898 49.78135254 5.98388672 50.4152832 C4.94245619 52.03855492 4.94245619 52.03855492 4 54 C4.99 53.34 5.98 52.68 7 52 C9.76655324 51.85754103 12.42653306 51.81230555 15.1875 51.875 C15.93708984 51.88402344 16.68667969 51.89304688 17.45898438 51.90234375 C19.30612654 51.92587422 21.15310412 51.96174439 23 52 C21.43204909 59.18121517 16.79236923 66.19238963 10.87890625 70.5703125 C7.11392337 72.44003263 3.50508986 73.00478173 -0.625 73.625 C-6.38279215 74.49832003 -6.38279215 74.49832003 -12 76 C-19.12293394 76.5415096 -24.6714979 76.35038346 -31 73 C-32.093125 72.5875 -33.18625 72.175 -34.3125 71.75 C-43.64896808 67.66529522 -52.25706388 60.42727479 -58 52 C-57.76953125 49.66796875 -57.76953125 49.66796875 -57 48 C-54.525 47.505 -54.525 47.505 -52 47 C-52.33 45.68 -52.66 44.36 -53 43 C-54.1446875 43.495 -54.1446875 43.495 -55.3125 44 C-58 45 -58 45 -61 45 C-63.97754746 41.93487762 -65.88542393 39.35389064 -66 35 C-65.0625 33.1875 -65.0625 33.1875 -63 32 C-60.28099658 31.75379103 -57.74148688 31.86517278 -55 32 C-55.57944932 30.00136244 -55.57944932 30.00136244 -57 28 C-58.010625 27.67 -59.02125 27.34 -60.0625 27 C-63 26 -63 26 -64 24.1875 C-64 20.4477756 -63.01895333 18.09063849 -60.4453125 15.3359375 C-59.21449865 14.13681842 -57.9759641 12.94558134 -56.73046875 11.76171875 C-54.78941289 9.89830724 -54.78941289 9.89830724 -52.9375 6.875 C-41.88939304 -9.51896517 -15.77518841 -8.66170823 0 0 Z " fill="#D2635E" transform="translate(74,28)"/>
	

	<path d="M0 0 C1.6670441 0.3314406 3.33362931 0.66519017 5 1 C6.97576627 1.05683339 8.95341143 1.0622045 10.9296875 1.02734375 C12.05503906 1.01509766 13.18039063 1.00285156 14.33984375 0.99023438 C16.68886552 0.95519372 19.03783123 0.91615771 21.38671875 0.87304688 C30.24074922 0.78703629 36.10297102 1.87981097 44 6 C45.65910004 6.68528045 47.32332564 7.35891863 49 8 C49 8.66 49 9.32 49 10 C50.32 10 51.64 10 53 10 C53 9.34 53 8.68 53 8 C51.35 7.34 49.7 6.68 48 6 C48 5.34 48 4.68 48 4 C45.69 3.67 43.38 3.34 41 3 C40.505 1.515 40.505 1.515 40 0 C42.31 0 44.62 0 47 0 C47.495 1.485 47.495 1.485 48 3 C48.886875 2.9175 49.77375 2.835 50.6875 2.75 C54.79877138 3.06028463 55.90352388 4.36589362 59 7 C60.16789062 7.85078125 60.16789062 7.85078125 61.359375 8.71875 C68.29588711 13.88713157 73.36353065 19.72051914 78 27 C78 27.66 78 28.32 78 29 C78.66 29 79.32 29 80 29 C81.24200752 34.3177215 82.30834212 39.58201328 83 45 C82.67 44.34 82.34 43.68 82 43 C80.35 43.33 78.7 43.66 77 44 C77 45.32 77 46.64 77 48 C78.98 48.495 78.98 48.495 81 49 C81.08075665 51.29109597 81.13907731 53.58299267 81.1875 55.875 C81.23970703 57.78925781 81.23970703 57.78925781 81.29296875 59.7421875 C81.19628906 60.81726563 81.09960938 61.89234375 81 63 C80.01 63.66 79.02 64.32 78 65 C77.27617533 67.05925139 77.27617533 67.05925139 77 69 C75.68 69.33 74.36 69.66 73 70 C72.95875 70.70125 72.9175 71.4025 72.875 72.125 C71.67153561 76.07924013 69.24829968 78.49269176 66 81 C65.34 81 64.68 81 64 81 C65.31796204 76.38713287 67.13388214 72.85134588 70 69 C70.66 68.67 71.32 68.34 72 68 C72.65213292 65.97536745 72.65213292 65.97536745 73 64 C71.02 64.66 69.04 65.32 67 66 C67.66 64.02 68.32 62.04 69 60 C66.43593328 60.08737713 63.87517784 60.19429119 61.3125 60.3125 C60.59126953 60.33505859 59.87003906 60.35761719 59.12695312 60.38085938 C54.62901178 60.60678337 51.73878775 61.24937312 48 64 C49.40594234 61.06052907 51.00275671 58.35525939 52.78515625 55.62890625 C53.31560547 54.80712891 53.84605469 53.98535156 54.39257812 53.13867188 C55.50523605 51.42218555 56.62242631 49.70862863 57.74414062 47.99804688 C58.53788086 46.76344727 58.53788086 46.76344727 59.34765625 45.50390625 C59.83242432 44.75955322 60.31719238 44.0152002 60.81665039 43.24829102 C62.09218994 40.82484483 62.59376765 38.69644512 63 36 C65.76276177 36.52268466 68.3260876 37.10869587 71 38 C69.39144667 27.42950671 59.99098409 20.62496231 51.87109375 14.59375 C51.25363281 14.0678125 50.63617188 13.541875 50 13 C50 12.34 50 11.68 50 11 C36.60059508 4.12356678 22.29108179 0.98000542 7.421875 4.95703125 C4.73750636 6.11218989 2.41418998 7.36051277 0 9 C-0.6084375 9.40734375 -1.216875 9.8146875 -1.84375 10.234375 C-5.43767514 12.94743614 -7.56742856 16.27512499 -10 20 C-11.04486473 21.01841246 -12.10821839 22.01813573 -13.1875 23 C-16.08164688 25.77721165 -16.90681539 27.89987696 -17 32 C-16.67 32.66 -16.34 33.32 -16 34 C-13.67843403 34.40729228 -11.3431213 34.74438677 -9 35 C-9.33 35.66 -9.66 36.32 -10 37 C-9.34 38.32 -8.68 39.64 -8 41 C-11.63 41 -15.26 41 -19 41 C-18.73781251 45.4571874 -18.42288711 47.51522698 -15.4375 50.9375 C-14.633125 51.618125 -13.82875 52.29875 -13 53 C-12.34 52.34 -11.68 51.68 -11 51 C-9.68 51 -8.36 51 -7 51 C-6.34 52.65 -5.68 54.3 -5 56 C-7.97 56.495 -7.97 56.495 -11 57 C-10.42647107 60.87132028 -8.51295648 63.08172796 -6 66 C-11.62247231 63.47958138 -13.52780299 60.22424819 -15.9375 54.7421875 C-16.95176998 52.65758182 -16.95176998 52.65758182 -20 52 C-18.53142824 57.71433548 -18.53142824 57.71433548 -16 63 C-15.34 63.33 -14.68 63.66 -14 64 C-14.33 65.32 -14.66 66.64 -15 68 C-15.33 67.01 -15.66 66.02 -16 65 C-18.01508358 64.26676204 -18.01508358 64.26676204 -20 64 C-20.103125 63.360625 -20.20625 62.72125 -20.3125 62.0625 C-20.6528125 61.0415625 -20.6528125 61.0415625 -21 60 C-21.99 59.67 -22.98 59.34 -24 59 C-25.1875 55.4375 -25.1875 55.4375 -26 52 C-26.66 52 -27.32 52 -28 52 C-28.13572155 49.60225255 -28.23436868 47.21224755 -28.3125 44.8125 C-28.35439453 44.13896484 -28.39628906 43.46542969 -28.43945312 42.77148438 C-28.53867287 38.70347496 -28.21268986 37.23997465 -25.47265625 34.1484375 C-24.65667969 33.43945312 -23.84070313 32.73046875 -23 32 C-23.14182056 29.51814024 -23.89623452 28.20753096 -25 26 C-24.34 25.01 -23.68 24.02 -23 23 C-22.34 23 -21.68 23 -21 23 C-20.814375 21.7934375 -20.814375 21.7934375 -20.625 20.5625 C-20.41875 19.716875 -20.2125 18.87125 -20 18 C-19.34 17.67 -18.68 17.34 -18 17 C-17.505 16.154375 -17.01 15.30875 -16.5 14.4375 C-16.005 13.633125 -15.51 12.82875 -15 12 C-14.34 12 -13.68 12 -13 12 C-12.67 10.68 -12.34 9.36 -12 8 C-10.35 7.67 -8.7 7.34 -7 7 C-7 6.01 -7 5.02 -7 4 C-6.030625 3.525625 -5.06125 3.05125 -4.0625 2.5625 C-1.19522563 1.29806053 -1.19522563 1.29806053 0 0 Z " fill="#434448" transform="translate(28,20)"/>
	

	<path d="M0 0 C11.22345899 1.22811903 18.14951456 10.73194894 25.10498047 18.72509766 C26.81755145 20.65532183 28.62350707 22.47598818 30.4765625 24.27099609 C28.81496357 29.9355379 26.95555774 34.43905826 23.4765625 39.27099609 C22.36909279 41.06062296 21.26527959 42.85251501 20.1640625 44.64599609 C11.49039165 58.14451144 11.49039165 58.14451144 4.9140625 59.89599609 C0.99177473 60.48702576 -1.88267935 59.95134601 -5.5234375 58.27099609 C-5.9609375 56.14599609 -5.9609375 56.14599609 -5.5234375 53.27099609 C-3.80628884 51.58827648 -2.00848884 50.19778882 -0.0546875 48.79833984 C0.450625 48.29431641 0.9559375 47.79029297 1.4765625 47.27099609 C1.4765625 45.95099609 1.4765625 44.63099609 1.4765625 43.27099609 C0.4865625 42.61099609 -0.5034375 41.95099609 -1.5234375 41.27099609 C-0.40537779 37.40078941 0.5060733 34.98318189 3.4765625 32.27099609 C3.8065625 31.28099609 4.1365625 30.29099609 4.4765625 29.27099609 C1.5065625 28.61099609 -1.4634375 27.95099609 -4.5234375 27.27099609 C-4.5234375 26.61099609 -4.5234375 25.95099609 -4.5234375 25.27099609 C-0.5634375 23.78599609 -0.5634375 23.78599609 3.4765625 22.27099609 C3.4765625 21.61099609 3.4765625 20.95099609 3.4765625 20.27099609 C-3.32019939 16.35010039 -3.32019939 16.35010039 -10.5234375 13.27099609 C-10.8534375 10.96099609 -11.1834375 8.65099609 -11.5234375 6.27099609 C-14.4934375 6.27099609 -17.4634375 6.27099609 -20.5234375 6.27099609 C-20.8534375 5.28099609 -21.1834375 4.29099609 -21.5234375 3.27099609 C-16.75257202 -2.47755276 -6.81948365 -0.43822386 0 0 Z " fill="#DC2147" transform="translate(57.5234375,31.72900390625)"/>
	

	

	<path d="M0 0 C-0.33 0.99 -0.66 1.98 -1 3 C-3.64 3.33 -6.28 3.66 -9 4 C-9 5.65 -9 7.3 -9 9 C-7.948125 9.474375 -6.89625 9.94875 -5.8125 10.4375 C-5.22082031 10.70433594 -4.62914063 10.97117187 -4.01953125 11.24609375 C-1.55613125 12.22675583 -1.55613125 12.22675583 3 13 C2.67 9.37 2.34 5.74 2 2 C4.62299801 1.30391966 7.2479207 0.61784618 9.875 -0.0625 C10.62136719 -0.26166016 11.36773437 -0.46082031 12.13671875 -0.66601562 C17.7734375 -2.11328125 17.7734375 -2.11328125 20 -1 C19.875 0.6875 19.875 0.6875 19 3 C18.030625 3.7425 17.06125 4.485 16.0625 5.25 C12.84413545 7.76603559 11.98676721 9.97210447 11.234375 13.9296875 C10.88789148 16.99029197 10.8717587 19.92220887 11 23 C-2.42324489 23 -12.98528628 11.83604372 -22 3 C-21.67 1.68 -21.34 0.36 -21 -1 C-14.44297782 -2.45711604 -5.74984993 -3.83323329 0 0 Z " fill="#E5D83D" transform="translate(38,77)"/>
	

	<path d="M0 0 C6.3101509 5.50494935 12.12960441 10.96289234 15 19 C14.67 19.99 14.34 20.98 14 22 C12.68 21.34 11.36 20.68 10 20 C10 19.34 10 18.68 10 18 C9.236875 17.896875 8.47375 17.79375 7.6875 17.6875 C4.65389162 16.91146065 4.03773223 16.2822601 2 14 C1.071875 13.2575 0.14375 12.515 -0.8125 11.75 C-3.79295938 9.316821 -6.13701437 6.57120486 -8.5078125 3.55078125 C-10.19755991 1.7946825 -11.82285892 1.06315644 -14 0 C-14.48597656 -0.49242187 -14.97195312 -0.98484375 -15.47265625 -1.4921875 C-17.31272309 -3.30872407 -19.06674607 -4.10953373 -21.4375 -5.125 C-22.19933594 -5.45757813 -22.96117187 -5.79015625 -23.74609375 -6.1328125 C-31.341352 -9.05507824 -39.35144824 -8.59708287 -47 -6 C-48.03125 -5.29875 -49.0625 -4.5975 -50.125 -3.875 C-53.64885854 -1.57683139 -55.87442236 -1.66995379 -60 -2 C-56.41933093 -7.93048314 -53.71990286 -10.32671742 -47 -12 C-30.2350311 -16.09810351 -13.3866694 -10.07718724 0 0 Z " fill="#E4D63D" transform="translate(85,37)"/>
	

	<path d="M0 0 C1.10408203 0.02707031 1.10408203 0.02707031 2.23046875 0.0546875 C4.02921736 0.10140824 5.82728711 0.17313817 7.625 0.25 C7.03280774 4.23554791 5.04671506 6.64792699 2.5625 9.75 C1.82902344 10.6884375 1.09554687 11.626875 0.33984375 12.59375 C-5.30149759 18.11333577 -11.6631198 19.88378143 -19.3125 21 C-20.05951172 21.12503906 -20.80652344 21.25007813 -21.57617188 21.37890625 C-26.88913505 22.21321108 -31.99944064 22.35676384 -37.375 22.25 C-36.04166667 21.25 -34.70833333 20.25 -33.375 19.25 C-32.4159375 18.4765625 -32.4159375 18.4765625 -31.4375 17.6875 C-29.375 16.25 -29.375 16.25 -26.9375 15.3125 C-22.60254759 13.51508071 -19.87823843 10.86937038 -16.9375 7.25 C-11.76818299 1.19811667 -7.64748237 -0.35955613 0 0 Z " fill="#E6DA3C" transform="translate(89.375,79.75)"/>
	

	<path d="M0 0 C0.66 0 1.32 0 2 0 C1.855625 0.556875 1.71125 1.11375 1.5625 1.6875 C0.97230872 4.11384195 0.476571 6.54906345 0 9 C4.43409099 10.10852275 8.45468578 10.21993456 13 10 C13.99 9.34 14.98 8.68 16 8 C15.65213292 6.02463255 15.65213292 6.02463255 15 4 C14.34 3.67 13.68 3.34 13 3 C13.33 2.01 13.66 1.02 14 0 C16.97 0 19.94 0 23 0 C23.495 3.465 23.495 3.465 24 7 C25.216875 7.2475 26.43375 7.495 27.6875 7.75 C31.58359258 8.7049925 34.04299824 10.22781085 37 13 C36.67 13.99 36.34 14.98 36 16 C32.96967558 17.51516221 30.34885038 17.17028053 27 17 C26.175 16.649375 25.35 16.29875 24.5 15.9375 C21.69241679 14.8846563 20.13951355 15.27272824 17.25146484 15.73999023 C12.38274818 16.30225257 7.45641424 16.1002572 2.5625 16.0625 C1.44939453 16.05798828 0.33628906 16.05347656 -0.81054688 16.04882812 C-3.54042101 16.03711193 -6.27018174 16.02070699 -9 16 C-10.0703125 13.63671875 -10.0703125 13.63671875 -11 11 C-9.6974055 8.46717735 -8.62842716 7.30407766 -6.0625 6.0625 C-3.2725817 4.62526936 -1.92407746 2.43716478 0 0 Z " fill="#D1B046" transform="translate(21,39)"/>
	

	<path d="M0 0 C2.37109375 2.171875 2.37109375 2.171875 4 4 C0.50942749 3.26689647 -2.55568463 1.93818291 -5.8125 0.5 C-16.30213568 -3.89601882 -27.1307572 -4.31604018 -38 -1 C-39.0725 -0.731875 -40.145 -0.46375 -41.25 -0.1875 C-44.58745472 1.25367363 -45.97049457 3.03379976 -48 6 C-44.18067309 6.36374542 -42.43268396 6.28845597 -39.1875 4.125 C-33.40828524 0.27219016 -25.89237726 -1.02705083 -19 0 C-13.31455327 1.62785005 -7.89907649 3.63685019 -3 7 C-3 7.66 -3 8.32 -3 9 C-2.29875 9.185625 -1.5975 9.37125 -0.875 9.5625 C2.56307388 11.28153694 4.22947171 13.35759634 6.5703125 16.34375 C8.08924941 18.2526135 8.08924941 18.2526135 11 20 C11 20.66 11 21.32 11 22 C12.65 22.66 14.3 23.32 16 24 C16 24.66 16 25.32 16 26 C17.65 26.33 19.3 26.66 21 27 C19.4375 28.25 19.4375 28.25 17 29 C9.22626942 25.79905211 3.3970051 19.1645564 -1.6875 12.625 C-4.25716216 9.7080862 -6.44899118 8.51106758 -10 7 C-10.6199585 6.64897217 -11.23991699 6.29794434 -11.87866211 5.9362793 C-14.37211636 4.83576174 -16.16087658 4.75623186 -18.87890625 4.76953125 C-19.79994141 4.77146484 -20.72097656 4.77339844 -21.66992188 4.77539062 C-22.62447266 4.78763672 -23.57902344 4.79988281 -24.5625 4.8125 C-25.52091797 4.81314453 -26.47933594 4.81378906 -27.46679688 4.81445312 C-32.81929991 4.81423556 -32.81929991 4.81423556 -38 6 C-39.20882096 8.00016466 -39.20882096 8.00016466 -40 10 C-40.928125 9.979375 -41.85625 9.95875 -42.8125 9.9375 C-46.02286011 9.84230396 -46.02286011 9.84230396 -49 11 C-49.2165625 12.1446875 -49.2165625 12.1446875 -49.4375 13.3125 C-50 16 -50 16 -51 19 C-50.01 19.99 -49.02 20.98 -48 22 C-49.65 21.67 -51.3 21.34 -53 21 C-54.06351675 17.61608307 -54.21442982 16.4195366 -52.5625 13.1875 C-52.046875 12.465625 -51.53125 11.74375 -51 11 C-52.051875 12.11375 -52.051875 12.11375 -53.125 13.25 C-55.97718006 15.97817223 -58.6763063 17.91302954 -62 20 C-62 17 -62 17 -60.609375 15.38671875 C-59.99578125 14.82597656 -59.3821875 14.26523437 -58.75 13.6875 C-56.40571069 11.45596208 -54.74124635 9.60794902 -52.9375 6.875 C-41.88580577 -9.52428821 -15.80432492 -8.64121362 0 0 Z " fill="#B09745" transform="translate(74,28)"/>
	

	<path d="M0 0 C1.13179687 0.00515625 2.26359375 0.0103125 3.4296875 0.015625 C5.20472656 0.0465625 5.20472656 0.0465625 7.015625 0.078125 C8.18351562 0.08328125 9.35140625 0.0884375 10.5546875 0.09375 C19.94028607 0.17888015 19.94028607 0.17888015 24.46875 0.90625 C27.2124845 1.59453516 27.2124845 1.59453516 29.265625 0.328125 C34.20832481 0.0850414 37.75572258 0.07317379 42.265625 2.328125 C41.14110773 5.3000635 40.04268709 7.66253187 38.265625 10.328125 C31.10928501 12.30412933 25.28652353 11.81510672 18.765625 8.328125 C17.8271875 7.750625 16.88875 7.173125 15.921875 6.578125 C13.33207885 5.09553169 13.33207885 5.09553169 10.4765625 5.5234375 C8.1073968 6.09072028 8.1073968 6.09072028 7.390625 8.203125 C5.60048603 11.58449861 2.7522036 12.10476409 -0.734375 13.328125 C-1.724375 13.328125 -2.714375 13.328125 -3.734375 13.328125 C-6.71192246 10.26300262 -8.61979893 7.68201564 -8.734375 3.328125 C-6.32003844 -0.12655229 -4.0346761 -0.03664441 0 0 Z " fill="#E4D73D" transform="translate(16.734375,59.671875)"/>
	

	<path d="M0 0 C1.65 0.33 3.3 0.66 5 1 C2.90077058 6.21769885 0.42712479 10.92790996 -2.5625 15.6875 C-2.99651123 16.3794043 -3.43052246 17.07130859 -3.87768555 17.78417969 C-10.02162996 27.37656078 -16.99594315 37.87347868 -28 42 C-29.6829392 42.97236487 -31.35443434 43.96564444 -33 45 C-26.93051391 45.24244504 -21.32630832 44.33358529 -15.375 43.1875 C-14.446875 43.02185547 -13.51875 42.85621094 -12.5625 42.68554688 C-5.56929882 41.35804092 -0.92466229 39.82335813 3.3125 33.8125 C3.82425781 33.09707031 4.33601563 32.38164063 4.86328125 31.64453125 C5.23839844 31.10183594 5.61351563 30.55914062 6 30 C6.66 30.33 7.32 30.66 8 31 C6.78115393 32.61202222 5.54943515 34.21431577 4.3125 35.8125 C3.62800781 36.70582031 2.94351563 37.59914062 2.23828125 38.51953125 C-2.40294381 43.6629482 -7.04523346 44.63691219 -13.625 45.625 C-19.38279215 46.49832003 -19.38279215 46.49832003 -25 48 C-32.12293394 48.5415096 -37.6714979 48.35038346 -44 45 C-45.6396875 44.38125 -45.6396875 44.38125 -47.3125 43.75 C-54.14070229 40.81479992 -60.85274001 36.22088998 -65 30 C-62.67125279 31.03499876 -60.8504139 32.12318855 -58.875 33.75 C-52.39992218 38.81745221 -46.12041483 42.49621948 -38 44 C-38.3403125 42.3603125 -38.3403125 42.3603125 -38.6875 40.6875 C-39 37 -39 37 -37.78515625 35.2421875 C-36 34 -36 34 -33.984375 33.99609375 C-33.24703125 34.14175781 -32.5096875 34.28742188 -31.75 34.4375 C-27.18787117 35.05659341 -24.25746002 35.09002583 -20 33 C-16.97938619 29.90859056 -14.48484418 26.52949296 -12 23 C-11.45085937 22.2265625 -10.90171875 21.453125 -10.3359375 20.65625 C-3.60250924 11.01261612 -3.60250924 11.01261612 0 0 Z " fill="#B32E67" transform="translate(87,56)"/>
	

	

	<path d="M0 0 C4.31304764 0.9143661 5.35153912 2.93918934 7.73828125 6.44140625 C9.21620619 9.14528205 9.77617943 11.55093227 9.9296875 14.62109375 C6.60062311 16.84047001 4.41354994 17.24794875 0.4921875 17.87109375 C-0.64089844 18.061875 -1.77398437 18.25265625 -2.94140625 18.44921875 C-6.14519908 18.62520737 -7.52270213 18.52427313 -10.0703125 16.62109375 C-11.0703125 13.62109375 -11.0703125 13.62109375 -9.62890625 10.484375 C-8.93331464 9.29402225 -8.22575036 8.11060377 -7.5078125 6.93359375 C-7.17201172 6.32708984 -6.83621094 5.72058594 -6.49023438 5.09570312 C-4.60036057 1.96702937 -3.6427084 0.73688376 0 0 Z " fill="#3065A9" transform="translate(93.0703125,60.37890625)"/>
	

	<path d="M0 0 C2.32874721 1.03499876 4.1495861 2.12318855 6.125 3.75 C12.60007782 8.81745221 18.87958517 12.49621948 27 14 C26.67 12.02 26.34 10.04 26 8 C26.33 8.66 26.66 9.32 27 10 C30.63 10 34.26 10 38 10 C34.25 13.875 34.25 13.875 32 15 C38.06948609 15.24244504 43.67369168 14.33358529 49.625 13.1875 C50.553125 13.02185547 51.48125 12.85621094 52.4375 12.68554688 C59.43070118 11.35804092 64.07533771 9.82335813 68.3125 3.8125 C68.82425781 3.09707031 69.33601563 2.38164063 69.86328125 1.64453125 C70.23839844 1.10183594 70.61351563 0.55914062 71 0 C71.99 0.495 71.99 0.495 73 1 C71.78115393 2.61202222 70.54943515 4.21431577 69.3125 5.8125 C68.62800781 6.70582031 67.94351563 7.59914063 67.23828125 8.51953125 C62.59705619 13.6629482 57.95476654 14.63691219 51.375 15.625 C45.61720785 16.49832003 45.61720785 16.49832003 40 18 C32.87706606 18.5415096 27.3285021 18.35038346 21 15 C19.906875 14.5875 18.81375 14.175 17.6875 13.75 C10.85929771 10.81479992 4.14725999 6.22088998 0 0 Z " fill="#867C43" transform="translate(22,86)"/>
	

	

	

	<path d="M0 0 C0.66 0 1.32 0 2 0 C2.33 1.98 2.66 3.96 3 6 C5.31 6.33 7.62 6.66 10 7 C9.67 7.66 9.34 8.32 9 9 C9.66 10.32 10.32 11.64 11 13 C7.37 13 3.74 13 0 13 C0.26218749 17.4571874 0.57711289 19.51522698 3.5625 22.9375 C4.366875 23.618125 5.17125 24.29875 6 25 C6.66 24.34 7.32 23.68 8 23 C9.32 23 10.64 23 12 23 C12.66 24.65 13.32 26.3 14 28 C12.02 28.33 10.04 28.66 8 29 C8.57352893 32.87132028 10.48704352 35.08172796 13 38 C8.49614273 35.9810295 6.12007043 33.6647026 4.0625 29.1875 C2.76533282 26.43227669 1.55362353 24.40885279 -0.3125 21.9375 C-2 19 -2 19 -2 15.3125 C-0.92511857 11.75195527 -0.20015942 10.75492613 3 9 C2.319375 8.443125 1.63875 7.88625 0.9375 7.3125 C0.298125 6.549375 -0.34125 5.78625 -1 5 C-0.75 2.25 -0.75 2.25 0 0 Z " fill="#807844" transform="translate(9,48)"/>
	

	<path d="M0 0 C-0.144375 0.556875 -0.28875 1.11375 -0.4375 1.6875 C-1.02769128 4.11384195 -1.523429 6.54906345 -2 9 C2.52381127 11.04301154 7.16371695 12.00956295 12 13 C11.67 13.66 11.34 14.32 11 15 C4.07 15 -2.86 15 -10 15 C-10.495 12.525 -10.495 12.525 -11 10 C-9.19921875 7.32421875 -9.19921875 7.32421875 -6.6875 4.6875 C-5.86636719 3.80449219 -5.04523437 2.92148437 -4.19921875 2.01171875 C-2 0 -2 0 0 0 Z " fill="#EAE23B" transform="translate(23,39)"/>
	

	<path d="M0 0 C1.10408203 0.02707031 1.10408203 0.02707031 2.23046875 0.0546875 C4.02921736 0.10140824 5.82728711 0.17313817 7.625 0.25 C7.295 1.57 6.965 2.89 6.625 4.25 C6.13 2.765 6.13 2.765 5.625 1.25 C-2.45787377 1.31986037 -2.45787377 1.31986037 -9.75 4.375 C-11.12828098 5.88454584 -12.4990992 7.40408984 -13.78125 8.99609375 C-17.43005521 13.50857892 -20.86135879 16.25068415 -26.375 18.25 C-27.035 18.25 -27.695 18.25 -28.375 18.25 C-28.375 18.91 -28.375 19.57 -28.375 20.25 C-26.725 20.25 -25.075 20.25 -23.375 20.25 C-23.375 20.58 -23.375 20.91 -23.375 21.25 C-28.04701205 22.45568053 -32.58996292 22.34382426 -37.375 22.25 C-36.04166667 21.25 -34.70833333 20.25 -33.375 19.25 C-32.4159375 18.4765625 -32.4159375 18.4765625 -31.4375 17.6875 C-29.375 16.25 -29.375 16.25 -26.9375 15.3125 C-22.60254759 13.51508071 -19.87823843 10.86937038 -16.9375 7.25 C-11.76818299 1.19811667 -7.64748237 -0.35955613 0 0 Z " fill="#CDAB46" transform="translate(89.375,79.75)"/>
	

	<path d="M0 0 C1.08667969 0.11085937 2.17335938 0.22171875 3.29296875 0.3359375 C4.12441406 0.43132813 4.95585937 0.52671875 5.8125 0.625 C5.8125 1.285 5.8125 1.945 5.8125 2.625 C7.483125 3.305625 7.483125 3.305625 9.1875 4 C12.8125 5.625 12.8125 5.625 14.8125 7.625 C17.3762893 7.98276166 17.3762893 7.98276166 20.25 7.9375 C21.70212891 7.96263672 21.70212891 7.96263672 23.18359375 7.98828125 C25.82572838 7.83870352 25.82572838 7.83870352 27.59765625 6.29296875 C29.01403511 4.52523991 29.01403511 4.52523991 29.8125 1.625 C29.1525 1.295 28.4925 0.965 27.8125 0.625 C30.2875 1.12 30.2875 1.12 32.8125 1.625 C31.68798273 4.5969385 30.58956209 6.95940687 28.8125 9.625 C21.65616001 11.60100433 15.83339853 11.11198172 9.3125 7.625 C8.3740625 7.0475 7.435625 6.47 6.46875 5.875 C3.87971257 4.39403632 3.87971257 4.39403632 1.02734375 4.8125 C-1.36623045 5.39576464 -1.36623045 5.39576464 -2.125 7.625 C-2.475625 8.285 -2.82625 8.945 -3.1875 9.625 C-6.3125 10.375 -6.3125 10.375 -9.1875 10.625 C-8.40375 10.068125 -7.62 9.51125 -6.8125 8.9375 C-4.10045142 6.54831435 -3.22616457 5.02426587 -2.1875 1.625 C-4.4975 1.625 -6.8075 1.625 -9.1875 1.625 C-5.54331659 -0.80445561 -4.25826636 -0.4578781 0 0 Z " fill="#D0AD47" transform="translate(26.1875,60.375)"/>
	

	

	<path d="M0 0 C9.07789959 3.05832981 17.68828339 12.12922965 22.375 20.4375 C23.25167195 24.031855 23.12529943 27.30366691 23 31 C19.7 30.34 16.4 29.68 13 29 C13 27.35 13 25.7 13 24 C15.76276177 24.52268466 18.3260876 25.10869587 21 26 C19.38989507 15.41931045 9.94528946 8.60397087 1.87109375 2.49609375 C1.25363281 2.00238281 0.63617188 1.50867187 0 1 C0 0.67 0 0.34 0 0 Z " fill="#897F43" transform="translate(78,32)"/>
	

	<path d="M0 0 C-0.125 1.6875 -0.125 1.6875 -1 4 C-1.99 4.804375 -2.98 5.60875 -4 6.4375 C-7.17793357 8.69095343 -7.17793357 8.69095343 -7.875 11.8125 C-7.91625 12.534375 -7.9575 13.25625 -8 14 C-8.66 13.34 -9.32 12.68 -10 12 C-9.9375 9.625 -9.9375 9.625 -9 7 C-6.5 4.8125 -6.5 4.8125 -4 3 C-3.67 2.34 -3.34 1.68 -3 1 C-3.60328125 1.2165625 -4.2065625 1.433125 -4.828125 1.65625 C-5.62734375 1.9346875 -6.4265625 2.213125 -7.25 2.5 C-8.43335938 2.91765625 -8.43335938 2.91765625 -9.640625 3.34375 C-12 4 -12 4 -16 4 C-15.649375 4.721875 -15.29875 5.44375 -14.9375 6.1875 C-13.8841978 9.3474066 -14.06402996 10.85173712 -15 14 C-15.33 14.66 -15.66 15.32 -16 16 C-17.65 16 -19.3 16 -21 16 C-21.33 15.34 -21.66 14.68 -22 14 C-20.35 14 -18.7 14 -17 14 C-17.33 10.37 -17.66 6.74 -18 3 C-15.75376301 2.30030318 -13.50283586 1.61564957 -11.25 0.9375 C-9.99703125 0.55464844 -8.7440625 0.17179687 -7.453125 -0.22265625 C-4.3261992 -0.92656828 -2.90533954 -1.16653785 0 0 Z " fill="#D0AD47" transform="translate(58,76)"/>
	

	<path d="M0 0 C1 3 1 3 1 5 C1.99 5.66 2.98 6.32 4 7 C3.875 9.1875 3.875 9.1875 3 12 C2.030625 12.804375 1.06125 13.60875 0.0625 14.4375 C-3.30104877 17.25189795 -3.87583876 18.87807546 -5 23 C-5.66 23.33 -6.32 23.66 -7 24 C-6.93047899 20.52394964 -6.86399851 17.92131536 -4.41015625 15.3046875 C-3.16385858 14.29031843 -1.89194502 13.30641891 -0.59375 12.359375 C1.29059216 10.98918273 1.29059216 10.98918273 2 8 C-0.64 8 -3.28 8 -6 8 C-5.34 7.01 -4.68 6.02 -4 5 C-6.64 4.67 -9.28 4.34 -12 4 C-11.67 3.34 -11.34 2.68 -11 2 C-8.75 1.62109375 -8.75 1.62109375 -6 1.4375 C-2.69240381 1.46519462 -2.69240381 1.46519462 0 0 Z " fill="#D3655E" transform="translate(56,68)"/>
	

	<path d="M0 0 C1.93884889 0.28256092 3.87605961 0.5763793 5.8125 0.875 C6.89144531 1.03742187 7.97039063 1.19984375 9.08203125 1.3671875 C12 2 12 2 15 4 C15 4.99 15 5.98 15 7 C10.19066291 8.14817507 7.24464324 7.75636919 2.625 6.0625 C1.56539062 5.68222656 0.50578125 5.30195312 -0.5859375 4.91015625 C-1.38257813 4.60980469 -2.17921875 4.30945312 -3 4 C-2.01 2.68 -1.02 1.36 0 0 Z " fill="#EAE23B" transform="translate(40,47)"/>
	

	<path d="M0 0 C1.09570312 0.00902344 2.19140625 0.01804688 3.3203125 0.02734375 C4.16335937 0.03894531 5.00640625 0.05054688 5.875 0.0625 C5.875 0.7225 5.875 1.3825 5.875 2.0625 C6.535 2.0625 7.195 2.0625 7.875 2.0625 C7.545 3.3825 7.215 4.7025 6.875 6.0625 C-3.09789448 6.4535939 -3.09789448 6.4535939 -7.125 4.0625 C-7.455 3.0725 -7.785 2.0825 -8.125 1.0625 C-5.36047967 -0.31976016 -3.0788637 -0.03275387 0 0 Z " fill="#C54E61" transform="translate(25.125,54.9375)"/>
	

	

	<path d="M0 0 C5.61 0.33 11.22 0.66 17 1 C17 1.99 17 2.98 17 4 C12.84692008 5.58212568 9.44740674 6.56775405 5 6 C2.125 4.125 2.125 4.125 0 2 C0 1.34 0 0.68 0 0 Z " fill="#B62A64" transform="translate(35,71)"/>
	

	<path d="M0 0 C5.40059661 2.84472269 5.40059661 2.84472269 6.49609375 6.19140625 C6.59148437 6.7946875 6.686875 7.39796875 6.78515625 8.01953125 C-1.21484375 4.01953125 -1.21484375 4.01953125 -3.03710938 2.97851562 C-5.54910921 1.87233453 -7.46216914 1.70560471 -10.19921875 1.60546875 C-11.60107422 1.54746094 -11.60107422 1.54746094 -13.03125 1.48828125 C-13.99933594 1.45734375 -14.96742187 1.42640625 -15.96484375 1.39453125 C-17.44017578 1.33652344 -17.44017578 1.33652344 -18.9453125 1.27734375 C-21.36830412 1.18324699 -23.79129171 1.09760797 -26.21484375 1.01953125 C-19.05758923 -3.00862676 -7.6929659 -2.34621439 0 0 Z " fill="#D27758" transform="translate(65.21484375,30.98046875)"/>
	

	<path d="M0 0 C0.66 0 1.32 0 2 0 C2.33 0.66 2.66 1.32 3 2 C7.54093172 3.41904116 12.2943099 3.09226843 17 3 C17.33 4.65 17.66 6.3 18 8 C16.68 8.99 15.36 9.98 14 11 C14.66 9.02 15.32 7.04 16 5 C13.43593328 5.08737713 10.87517784 5.19429119 8.3125 5.3125 C7.59126953 5.33505859 6.87003906 5.35761719 6.12695312 5.38085938 C1.62901178 5.60678337 -1.26121225 6.24937312 -5 9 C-3.50079488 5.88626628 -1.91847864 2.87771795 0 0 Z " fill="#6E6845" transform="translate(81,75)"/>
	

	

	<path d="M0 0 C1.25 2.5625 1.25 2.5625 2 5 C-0.3125 5.6875 -0.3125 5.6875 -3 6 C-4.5625 4.625 -4.5625 4.625 -6 3 C-8.10332891 2.28552357 -8.10332891 2.28552357 -10 2 C-10 1.34 -10 0.68 -10 0 C-2.90322581 -1.4516129 -2.90322581 -1.4516129 0 0 Z " fill="#B22C68" transform="translate(39,82)"/>
	

	

	

	

	

	

	

	<path d="M0 0 C1.98 0.99 1.98 0.99 4 2 C4 2.66 4 3.32 4 4 C4.66 4 5.32 4 6 4 C7.21880826 5.48233437 8.43482925 6.96723194 9.625 8.47265625 C11.45671525 10.50731723 13.63974034 11.65128019 16 13 C16 13.66 16 14.32 16 15 C16.66 15 17.32 15 18 15 C17.67 15.66 17.34 16.32 17 17 C10.5190113 12.33428823 4.95379498 7.2901048 0 1 C0 0.67 0 0.34 0 0 Z " fill="#D3655E" transform="translate(73,40)"/>
	

	

	

	<path d="M0 0 C1.98 0.66 3.96 1.32 6 2 C6 2.66 6 3.32 6 4 C8.31 4.33 10.62 4.66 13 5 C13 5.66 13 6.32 13 7 C7.88523181 7.63934602 4.32745622 5.40533547 0 3 C0 2.01 0 1.02 0 0 Z " fill="#7A7244" transform="translate(28,83)"/>
	

	

	

	

	

	

	

	

	

	

	

</svg>
