<?xml version="1.0" encoding="iso-8859-1"?>
<svg height="128" version="1.1" width="128" xmlns="http://www.w3.org/2000/svg">
	

	<path d="M0 0 C42.24 0 84.48 0 128 0 C128 42.24 128 84.48 128 128 C85.76 128 43.52 128 0 128 C0 85.76 0 43.52 0 0 Z " fill="#0568C3" transform="translate(0,0)"/>
	

	<path d="M0 0 C3.71316785 1.57030152 4.59297182 3.89574471 6.49609375 7.39453125 C9.28177676 12.50257011 11.58785541 15.07027022 16.55859375 18.08203125 C19.08605523 20.84460542 21.19746305 23.42257518 22.99609375 26.70703125 C24.50857031 29.35325261 24.50857031 29.35325261 27.74609375 31.14453125 C28.67421875 31.78390625 29.60234375 32.42328125 30.55859375 33.08203125 C30.55859375 34.40203125 30.55859375 35.72203125 30.55859375 37.08203125 C27.60194856 38.56035385 24.81629638 38.14235908 21.55859375 38.08203125 C21.22859375 39.07203125 20.89859375 40.06203125 20.55859375 41.08203125 C20.08421875 41.53578125 19.60984375 41.98953125 19.12109375 42.45703125 C17.18766861 44.46779339 16.47543735 46.4725533 15.55859375 49.08203125 C14.89859375 49.08203125 14.23859375 49.08203125 13.55859375 49.08203125 C13.22859375 51.39203125 12.89859375 53.70203125 12.55859375 56.08203125 C10.87109375 56.83203125 10.87109375 56.83203125 8.55859375 57.08203125 C5.28166435 54.94821676 3.80853371 53.83185113 2.55859375 50.08203125 C1.89859375 49.75203125 1.23859375 49.42203125 0.55859375 49.08203125 C-0.29296875 47.33984375 -0.29296875 47.33984375 -1.06640625 45.20703125 C-1.32679687 44.50835937 -1.5871875 43.8096875 -1.85546875 43.08984375 C-2.44140625 41.08203125 -2.44140625 41.08203125 -2.44140625 38.08203125 C-3.10140625 38.08203125 -3.76140625 38.08203125 -4.44140625 38.08203125 C-4.77140625 37.42203125 -5.10140625 36.76203125 -5.44140625 36.08203125 C-10.98072945 36.73371633 -14.7867486 39.38009766 -18.62890625 43.33203125 C-20.44140625 45.08203125 -20.44140625 45.08203125 -23.44140625 45.08203125 C-23.66828125 45.71753906 -23.89515625 46.35304687 -24.12890625 47.0078125 C-25.44140625 49.08203125 -25.44140625 49.08203125 -27.75390625 49.875 C-28.64078125 50.00519531 -29.52765625 50.13539062 -30.44140625 50.26953125 C-34.06379425 50.78964424 -34.06379425 50.78964424 -37.44140625 52.08203125 C-48.07908308 53.83987563 -55.80639888 49.76265697 -64.44140625 44.08203125 C-65.91972885 41.12538606 -65.50173408 38.33973388 -65.44140625 35.08203125 C-66.10140625 35.08203125 -66.76140625 35.08203125 -67.44140625 35.08203125 C-67.5500557 33.02070983 -67.62728946 30.95771804 -67.69140625 28.89453125 C-67.7378125 27.74597656 -67.78421875 26.59742187 -67.83203125 25.4140625 C-67.37065197 21.47849726 -66.14169137 19.90457338 -63.44140625 17.08203125 C-61.79140625 17.41203125 -60.14140625 17.74203125 -58.44140625 18.08203125 C-58.93640625 19.78359375 -58.93640625 19.78359375 -59.44140625 21.51953125 C-60.59987692 26.07998974 -60.63633916 30.40364131 -60.44140625 35.08203125 C-59.78140625 35.08203125 -59.12140625 35.08203125 -58.44140625 35.08203125 C-58.02890625 35.84515625 -57.61640625 36.60828125 -57.19140625 37.39453125 C-54.99642025 40.7654026 -53.15729382 41.62482044 -49.44140625 43.08203125 C-46.20470995 43.78961451 -46.20470995 43.78961451 -43.44140625 44.08203125 C-43.11140625 43.09203125 -42.78140625 42.10203125 -42.44140625 41.08203125 C-40.55078125 39.65234375 -40.55078125 39.65234375 -38.19140625 38.20703125 C-34.4586379 35.82894428 -31.53340557 33.2623734 -28.44140625 30.08203125 C-27.69890625 29.79328125 -26.95640625 29.50453125 -26.19140625 29.20703125 C-24.1005995 28.11746106 -24.1005995 28.11746106 -23.37890625 25.01953125 C-23.45384161 20.29860349 -24.8397116 18.04414319 -27.41015625 14.1953125 C-28.44140625 12.08203125 -28.44140625 12.08203125 -28.09765625 9.8125 C-27.88109375 9.24144531 -27.66453125 8.67039062 -27.44140625 8.08203125 C-21.14665061 8.33083582 -16.18799202 8.55119938 -11.44140625 13.08203125 C-9.75936661 15.83859252 -8.26269375 18.62668995 -6.8359375 21.5234375 C-5.55954594 23.86527636 -4.51203301 25.4244136 -2.44140625 27.08203125 C-1.78140625 27.08203125 -1.12140625 27.08203125 -0.44140625 27.08203125 C0.69637188 23.09980779 0.84228151 21.59874823 -1.19140625 17.89453125 C-3.20791466 15.18873089 -3.20791466 15.18873089 -5.08984375 13.6875 C-6.44140625 12.08203125 -6.44140625 12.08203125 -6.62109375 9.92578125 C-6.52054688 9.15234375 -6.42 8.37890625 -6.31640625 7.58203125 C-6.23132813 6.80859375 -6.14625 6.03515625 -6.05859375 5.23828125 C-5.02985465 1.64420541 -3.82757324 0.12860646 0 0 Z " fill="#F3F7F7" transform="translate(75.44140625,30.91796875)"/>
	

	<path d="M0 0 C3.29559776 3.29559776 3.90560637 5.1667345 5.1875 9.5625 C5.53167969 10.71878906 5.87585938 11.87507813 6.23046875 13.06640625 C7 16 7 16 7 18 C7.66 18 8.32 18 9 18 C9.25652344 18.60585937 9.51304688 19.21171875 9.77734375 19.8359375 C17.52444293 36.79086837 32.14127944 44.74699236 48 53 C48 53.33 48 53.66 48 54 C32.16 54 16.32 54 0 54 C0 36.18 0 18.36 0 0 Z " fill="#F6F9F8" transform="translate(0,74)"/>
	

	<path d="M0 0 C12.21 0 24.42 0 37 0 C37 12.21 37 24.42 37 37 C34.4986965 34.4986965 32.80731888 32.34531319 30.875 29.4375 C24.9317242 20.89169501 19.52801748 14.34611324 10 10 C9.68160156 9.35289063 9.36320312 8.70578125 9.03515625 8.0390625 C7.72046652 5.44937179 6.48772149 4.92993874 3.875 3.75 C3.15054688 3.41484375 2.42609375 3.0796875 1.6796875 2.734375 C1.12539062 2.49203125 0.57109375 2.2496875 0 2 C0 1.34 0 0.68 0 0 Z " fill="#F3F7F7" transform="translate(91,0)"/>
	

	<path d="M0 0 C0.33 0 0.66 0 1 0 C1 12.54 1 25.08 1 38 C-11.21 38 -23.42 38 -36 38 C-34 35 -34 35 -31.375 34.3125 C-30.199375 34.1578125 -30.199375 34.1578125 -29 34 C-28.67 33.01 -28.34 32.02 -28 31 C-26.63875 30.566875 -26.63875 30.566875 -25.25 30.125 C-21.3011429 28.75808793 -19.85053311 27.04940752 -17 24 C-15.4805265 22.74834737 -13.95956929 21.49849474 -12.4375 20.25 C-7.94276346 16.29940238 -6.01287794 12.53796874 -4 7 C-1.20689655 1.20689655 -1.20689655 1.20689655 0 0 Z " fill="#F4F7F7" transform="translate(127,90)"/>
	

	<path d="M0 0 C11.55 0 23.1 0 35 0 C32.61318325 2.38681675 30.7414492 3.94223816 27.9375 5.6875 C26.89916016 6.34298828 26.89916016 6.34298828 25.83984375 7.01171875 C24 8 24 8 22 8 C22 8.66 22 9.32 22 10 C20.53125 11.41015625 20.53125 11.41015625 18.5 13.0625 C11.32163022 19.2226613 5.79923279 24.91634183 2.7890625 34.03125 C2 36 2 36 0 37 C0 24.79 0 12.58 0 0 Z " fill="#F5F8F8" transform="translate(0,0)"/>
	

	<path d="M0 0 C1.625 1.9375 1.625 1.9375 3 5 C3.3403125 5.71285156 3.680625 6.42570312 4.03125 7.16015625 C5.85291006 11.05720759 7.44436951 14.69386373 8 19 C5.17071068 16.44928686 3.32106736 13.53378728 1.3125 10.3125 C0.68988281 9.31863281 0.06726563 8.32476562 -0.57421875 7.30078125 C-1.04472656 6.54152344 -1.51523438 5.78226563 -2 5 C-3.65 5.33 -5.3 5.66 -7 6 C-8.61767644 10.09176982 -9.57382686 12.80312838 -8 17 C-6.7625 18.4540625 -6.7625 18.4540625 -5.5 19.9375 C-2.84134897 23.19434751 -2.09237066 24.8433205 -2 29 C-2.66 29.99 -3.32 30.98 -4 32 C-8.53452563 30.21857922 -10.98707171 27.15058282 -13.046875 22.77734375 C-15.23741641 18.0322849 -15.23741641 18.0322849 -19.14453125 14.75390625 C-23.07368402 13.3920606 -26.81919035 12.59540552 -31 13 C-30.59023592 16.38055364 -29.65404388 18.71602979 -27.875 21.5625 C-26 25 -26 25 -26.3828125 27.21484375 C-26.58648437 27.80394531 -26.79015625 28.39304687 -27 29 C-28.37257477 26.78045349 -29.72259151 24.55164591 -31.0625 22.3125 C-31.45244141 21.68666016 -31.84238281 21.06082031 -32.24414062 20.41601562 C-34.01586454 17.42133185 -35.04839459 15.56361087 -34.74609375 12.04296875 C-34.49988281 11.36878906 -34.25367188 10.69460937 -34 10 C-29.20367561 8.858018 -26.58179719 9.35055301 -22 11 C-19.33627852 11.44395358 -16.68838048 11.72189167 -14 12 C-13.690625 10.4221875 -13.690625 10.4221875 -13.375 8.8125 C-11.5864178 2.61544056 -6.68292107 -1.48509357 0 0 Z " fill="#7DACCF" transform="translate(79,27)"/>
	

	

	

	<path d="M0 0 C0.66 0 1.32 0 2 0 C2 0.99 2 1.98 2 3 C2.99 3.33 3.98 3.66 5 4 C5.33 4.99 5.66 5.98 6 7 C7.63502936 8.58558381 7.63502936 8.58558381 9.5625 10.0625 C11.50390625 11.59765625 11.50390625 11.59765625 13 13 C13 13.66 13 14.32 13 15 C13.52335937 15.08636719 14.04671875 15.17273438 14.5859375 15.26171875 C17.89379659 16.27334556 20.67989265 18.04240228 23.625 19.8125 C28.67879455 22.7989235 33.61680815 25.24379392 39.20703125 27.11328125 C39.79871094 27.40589844 40.39039063 27.69851562 41 28 C41.495 29.485 41.495 29.485 42 31 C36.62247522 31.77281793 32.8053407 29.07805031 28.3125 26.5 C27.5095752 26.04439697 26.70665039 25.58879395 25.87939453 25.11938477 C16.98701093 19.97546904 3.56682951 12.13530663 0.28515625 1.734375 C0.19105469 1.16203125 0.09695313 0.5896875 0 0 Z " fill="#80AECF" transform="translate(11,97)"/>
	

	

	<path d="M0 0 C4.67692308 1.47692308 4.67692308 1.47692308 6.3125 4.125 C6.6528125 5.053125 6.6528125 5.053125 7 6 C3.3558226 8.4294516 1.28758728 8.16179575 -3 8 C-3.33 8.99 -3.66 9.98 -4 11 C-4.474375 11.45375 -4.94875 11.9075 -5.4375 12.375 C-7.37092514 14.38576214 -8.0831564 16.39052205 -9 19 C-9.66 19 -10.32 19 -11 19 C-11.33 21.31 -11.66 23.62 -12 26 C-13.6875 26.75 -13.6875 26.75 -16 27 C-19.2769294 24.86618551 -20.75006004 23.74981988 -22 20 C-22.66 19.67 -23.32 19.34 -24 19 C-23.67 17.68 -23.34 16.36 -23 15 C-22.40251953 15.86625 -22.40251953 15.86625 -21.79296875 16.75 C-21.26316406 17.4925 -20.73335938 18.235 -20.1875 19 C-19.66542969 19.7425 -19.14335938 20.485 -18.60546875 21.25 C-18.07566406 21.8275 -17.54585938 22.405 -17 23 C-16.01 23 -15.02 23 -14 23 C-13.63648437 22.19175781 -13.27296875 21.38351563 -12.8984375 20.55078125 C-7.63135185 9.35484791 -7.63135185 9.35484791 -2 6 C0.875 5.6875 0.875 5.6875 3 6 C2.01 4.02 1.02 2.04 0 0 Z " fill="#80AECF" transform="translate(100,61)"/>
	

	<path d="M0 0 C0.66 0.33 1.32 0.66 2 1 C1.2575 1.721875 0.515 2.44375 -0.25 3.1875 C-2.69595985 5.68904985 -4.835483 8.25827847 -7 11 C-7.495 11.45375 -7.99 11.9075 -8.5 12.375 C-13.42259224 17.70780826 -14.80295934 23.57257906 -16.19140625 30.5234375 C-16.45824219 31.34070313 -16.72507812 32.15796875 -17 33 C-18.485 33.495 -18.485 33.495 -20 34 C-20.82318313 24.3275982 -16.19044312 17.67047586 -10.171875 10.44140625 C-6.93355071 6.80120359 -3.52775607 3.35887413 0 0 Z " fill="#85B1D1" transform="translate(20,10)"/>
	

	

	<path d="M0 0 C2.57370964 2.57370964 3.93515402 5.53925055 5 9 C4.67 9.99 4.34 10.98 4 12 C2.5393715 9.35261084 2 8.10551666 2 5 C1.34 5 0.68 5 0 5 C-0.33 4.34 -0.66 3.68 -1 3 C-6.5393232 3.65168508 -10.34534235 6.29806641 -14.1875 10.25 C-16 12 -16 12 -19 12 C-19.66 13.32 -20.32 14.64 -21 16 C-22.65 16 -24.3 16 -26 16 C-22.16170585 12.9092388 -18.28047484 9.87989731 -14.375 6.875 C-13.80265625 6.43285156 -13.2303125 5.99070312 -12.640625 5.53515625 C-4.56113701 -0.68417055 -4.56113701 -0.68417055 0 0 Z " fill="#88B3D2" transform="translate(71,64)"/>
	

	<path d="M0 0 C0.495 1.485 0.495 1.485 1 3 C0.03900391 3.76183594 0.03900391 3.76183594 -0.94140625 4.5390625 C-4.94648249 7.7264108 -8.92985306 10.90441385 -12.75 14.3125 C-16.60059843 17.61301294 -19.87549579 20.04249008 -25.125 19.9375 C-28.37173066 18.87878348 -29.82677119 17.59115742 -32 15 C-30.66666667 15.33333333 -29.33333333 15.66666667 -28 16 C-27.29359375 16.17660156 -26.5871875 16.35320312 -25.859375 16.53515625 C-23.90625 17.0234375 -21.953125 17.51171875 -20 18 C-19.67 17.01 -19.34 16.02 -19 15 C-17.109375 13.5703125 -17.109375 13.5703125 -14.75 12.125 C-11.01723165 9.74691303 -8.09199932 7.18034215 -5 4 C-3.68163705 3.30419733 -2.35208914 2.62775567 -1 2 C-0.67 1.34 -0.34 0.68 0 0 Z " fill="#84B1D1" transform="translate(52,57)"/>
	

	

	

	<path d="M0 0 C0.66 0 1.32 0 2 0 C0.61803331 4.38523508 -1.33678529 6.54017098 -4.8125 9.5 C-8.98600713 13.10212469 -8.98600713 13.10212469 -12.875 17 C-14.99850715 18.99859496 -16.13643983 19.68182665 -19 20 C-19 19.34 -19 18.68 -19 18 C-18.34 18 -17.68 18 -17 18 C-16.74863281 17.41347656 -16.49726562 16.82695313 -16.23828125 16.22265625 C-13.60045413 11.48788139 -8.73601666 8.0189663 -4.125 5.3125 C-1.70397889 3.81716343 -0.9961177 2.62612849 0 0 Z " fill="#669DC9" transform="translate(120,101)"/>
	

	

	<path d="M0 0 C4.66435891 4.25279783 10.24060452 9.71763582 11.37890625 16.13671875 C11.375 18.0625 11.375 18.0625 11 21 C7.10244381 17.90883475 6.15900032 14.83501766 4.79296875 10.25390625 C3.67805496 7.08491484 1.93253525 4.73220501 0 2 C0 1.34 0 0.68 0 0 Z " fill="#8FB8D4" transform="translate(117,23)"/>
	

	

	

	

	

	

	<path d="M0 0 C-0.33 0.99 -0.66 1.98 -1 3 C-2.9609375 3.94921875 -2.9609375 3.94921875 -5.375 4.6875 C-6.16648437 4.93886719 -6.95796875 5.19023438 -7.7734375 5.44921875 C-10 6 -10 6 -13 6 C-13 6.66 -13 7.32 -13 8 C-14.65 8.66 -16.3 9.32 -18 10 C-18 9.34 -18 8.68 -18 8 C-15.91796875 6.5625 -15.91796875 6.5625 -13.1875 5 C-4.13752626 -0.22365007 -4.13752626 -0.22365007 0 0 Z " fill="#83B0D0" transform="translate(40,0)"/>
	

	

	

	

	<path d="M0 0 C1.98 0 3.96 0 6 0 C6 0.66 6 1.32 6 2 C7.3921875 2.4021875 7.3921875 2.4021875 8.8125 2.8125 C11.85184289 3.94480421 12.90073617 4.69900511 15 7 C13.05954312 6.5758071 11.12268239 6.13514005 9.1875 5.6875 C8.10855469 5.44386719 7.02960938 5.20023437 5.91796875 4.94921875 C3.05464404 4.01777577 1.80226364 3.35875206 0 1 C0 0.67 0 0.34 0 0 Z " fill="#82B0D0" transform="translate(85,0)"/>
	

	

	

	

	

	

	

	

	

	

	

	

	

	

	

	

	

	

	

	

	

	

	

	

	

	

	

	

	

	

	

	

	

</svg>
