<?xml version="1.0" encoding="iso-8859-1"?>
<svg height="128" version="1.1" width="128" xmlns="http://www.w3.org/2000/svg">
	

	<path d="M0 0 C42.24 0 84.48 0 128 0 C128 42.24 128 84.48 128 128 C85.76 128 43.52 128 0 128 C0 85.76 0 43.52 0 0 Z " fill="#FEFDFD" transform="translate(0,0)"/>
	

	<path d="M0 0 C3.63677183 1.81838591 6.54258806 3.72769498 9 7 C9.36417923 10.01275542 8.75320155 11.9871938 8 15 C8.66 15.99 9.32 16.98 10 18 C11.0725 17.690625 12.145 17.38125 13.25 17.0625 C15.82866222 16.33187904 18.39512102 15.62517096 21 15 C20.66142425 18.04718178 20.16892978 19.7747603 18.3125 22.25 C15.48567517 24.38921879 13.51310706 24.77575912 10 25 C9.01 24.67 8.02 24.34 7 24 C7.19916016 24.85271484 7.19916016 24.85271484 7.40234375 25.72265625 C8.48811863 30.46994936 9.32438062 35.1741473 10 40 C10.33 40.99 10.66 41.98 11 43 C11.79664063 43.27328125 12.59328125 43.5465625 13.4140625 43.828125 C16 45 16 45 17.3359375 47.609375 C17.67882812 48.64578125 18.02171875 49.6821875 18.375 50.75 C20.59744445 56.65758398 22.88097914 59.38657351 28 63 C28.69159401 61.15274948 28.69159401 61.15274948 29 59 C28.34 58.01 27.68 57.02 27 56 C30 56 30 56 31.38671875 57.35546875 C32.03060547 58.26232422 32.03060547 58.26232422 32.6875 59.1875 C33.12449219 59.77917969 33.56148438 60.37085938 34.01171875 60.98046875 C35.27463435 63.56120933 35.37546258 65.15531881 35 68 C31.61586716 73.67899792 26.38499694 78.14327495 20 80 C17 79.75 17 79.75 15 79 C14.79809911 72.64012196 15.3722167 67.14778871 17 61 C15.01508358 61.26676204 15.01508358 61.26676204 13 62 C12.505 63.485 12.505 63.485 12 65 C10.125 64.6875 10.125 64.6875 8 64 C7.34 63.01 6.68 62.02 6 61 C1.545 61.495 1.545 61.495 -3 62 C-2.34 63.32 -1.68 64.64 -1 66 C-0.731875 67.093125 -0.46375 68.18625 -0.1875 69.3125 C0.78704313 73.09718734 0.78704313 73.09718734 3.375 75.9375 C6.16499362 79.58275952 7.25295422 83.61622808 8.375 88 C8.64449463 89.01501587 8.64449463 89.01501587 8.91943359 90.05053711 C10.04738782 94.7882898 9.93945208 98.3149403 9 103 C8.01 103.33 7.02 103.66 6 104 C6 104.66 6 105.32 6 106 C4.03277992 107.38123963 2.03131672 108.71488126 0 110 C-0.33 110.33 -0.66 110.66 -1 111 C-11.74426266 112.35263965 -11.74426266 112.35263965 -16.1953125 109.68359375 C-18.98460665 106.67196456 -19.91811941 104.51857708 -20.5625 100.4375 C-19.94483721 96.66289405 -19.14098578 94.17456512 -17 91 C-14.3125 89.625 -14.3125 89.625 -12 89 C-11.401875 89.66 -10.80375 90.32 -10.1875 91 C-8.12498166 93.3373846 -8.12498166 93.3373846 -5 93 C-5.42134409 86.61278376 -5.42134409 86.61278376 -8.69140625 81.4453125 C-10.81529069 80.21982028 -10.81529069 80.21982028 -14 79 C-13.85834107 76.60385425 -13.71181159 74.20817103 -13.5625 71.8125 C-13.52318359 71.13896484 -13.48386719 70.46542969 -13.44335938 69.77148438 C-13.21072435 66.10300898 -12.82792989 62.58305794 -12 59 C-12.928125 59.20625 -13.85625 59.4125 -14.8125 59.625 C-18 60 -18 60 -21 58 C-21 57.01 -21 56.02 -21 55 C-17.94152152 54.45627049 -15.11227195 54 -12 54 C-11.87625 53.02160156 -11.7525 52.04320312 -11.625 51.03515625 C-10.40662641 42.87517725 -8.95908064 37.6096806 -2.7421875 31.734375 C-0.75604963 30.01685291 -0.75604963 30.01685291 0 27 C-0.81984375 27.03480469 -1.6396875 27.06960937 -2.484375 27.10546875 C-3.56203125 27.13253906 -4.6396875 27.15960938 -5.75 27.1875 C-7.35101563 27.23970703 -7.35101563 27.23970703 -8.984375 27.29296875 C-12.37400929 26.9636649 -13.45972584 26.1557124 -16 24 C-18.32548007 23.30643577 -20.65880445 22.63850788 -23 22 C-23.99 21.34 -24.98 20.68 -26 20 C-27.299375 19.896875 -28.59875 19.79375 -29.9375 19.6875 C-33.25852845 19.33888375 -33.87428453 19.11314392 -36.5 16.75 C-38.1322222 13.75759264 -38.70200572 12.33452719 -38 9 C-35.68007572 6.6854961 -34.5151812 6.01367101 -31.203125 5.92578125 C-29.74132812 6.11720703 -29.74132812 6.11720703 -28.25 6.3125 C-27.26515625 6.43238281 -26.2803125 6.55226563 -25.265625 6.67578125 C-24.51796875 6.78277344 -23.7703125 6.88976563 -23 7 C-23.99 8.98 -24.98 10.96 -26 13 C-24.906875 13.28875 -23.81375 13.5775 -22.6875 13.875 C-19 15 -19 15 -16 17 C-13.81971604 17.35293451 -13.81971604 17.35293451 -11.5 17.3125 C-10.33984375 17.33763672 -10.33984375 17.33763672 -9.15625 17.36328125 C-6.46579403 16.90999791 -5.60812637 16.17599599 -4 14 C-3.33292452 10.58500409 -3.33292452 10.58500409 -4 7 C-6.54137159 3.84045695 -8.14622659 2.28459114 -12 1 C-12.99 1.33 -13.98 1.66 -15 2 C-14.67 1.01 -14.34 0.02 -14 -1 C-9.75686854 -3.12156573 -4.36243259 -1.2448893 0 0 Z " fill="#93A8AD" transform="translate(70,17)"/>
	

	<path d="M0 0 C0.79921875 -0.020625 1.5984375 -0.04125 2.421875 -0.0625 C7.44887971 -0.0955724 10.90370999 0.44048231 15.25 3.25 C16.625 5.4375 16.625 5.4375 17.25 7.25 C17.91 7.25 18.57 7.25 19.25 7.25 C19.58 6.26 19.91 5.27 20.25 4.25 C22.33218362 4.14167831 24.41599129 4.06426459 26.5 4 C28.24023438 3.93039063 28.24023438 3.93039063 30.015625 3.859375 C33.25 4.25 33.25 4.25 35.61328125 6.09765625 C37.80573829 8.98081575 38.18135458 10.61179256 38.25 14.25 C37.23696703 18.87507677 35.73627675 22.56110794 33 26.4375 C31.02613648 29.07847533 31.02613648 29.07847533 31.1875 31.9375 C32.44427073 35.85566757 34.10180436 39.4703391 35.859375 43.1875 C37.7804099 47.41809372 39.35937578 51.7579394 40.97265625 56.11328125 C42.17965927 59.07726727 43.60080647 61.72651131 45.1875 64.5 C46.99994986 68.00520964 47.54508013 70.16183213 46.8125 74.0625 C44.63005792 80.8976208 40.29252716 84.15976821 34.56640625 88.11328125 C31.88137943 89.43089137 30.20540959 89.57837884 27.25 89.25 C24.68489245 87.5399283 23.47674416 86.24011618 22.78125 83.203125 C22.52896627 81.22690245 22.38252321 79.23784814 22.25 77.25 C21.26 77.25 20.27 77.25 19.25 77.25 C17.99519842 78.30768036 17.99519842 78.30768036 17.875 80.6875 C18.25657731 84.31248443 18.97465153 85.73322328 20.75 88.8125 C23.9607267 94.85891126 24.2278935 100.53034651 23.25 107.25 C21.5 110.8125 21.5 110.8125 19.25 113.25 C18.321875 114.425625 18.321875 114.425625 17.375 115.625 C14.57001998 117.76998472 12.69280069 117.56298188 9.25 117.25 C10.87339805 115.54115995 12.54319053 113.87553283 14.25 112.25 C14.91 112.25 15.57 112.25 16.25 112.25 C16.25 111.59 16.25 110.93 16.25 110.25 C16.74757812 109.8065625 17.24515625 109.363125 17.7578125 108.90625 C19.45266451 107.35997955 19.45266451 107.35997955 19.4296875 105.15625 C18.22596712 95.64994546 16.83195217 87.66350188 10.61328125 80.1640625 C7.86595208 76.30678086 7.25 71.93528376 7.25 67.25 C10.25934678 66.66958092 13.17934564 66.18979109 16.25 66.25 C18.125 68.1875 18.125 68.1875 19.25 70.25 C22.37498166 70.5873846 22.37498166 70.5873846 24.4375 68.25 C25.035625 67.59 25.63375 66.93 26.25 66.25 C27.24 66.745 27.24 66.745 28.25 67.25 C28.11722656 67.96285156 27.98445313 68.67570312 27.84765625 69.41015625 C26.87594212 74.68010955 25.9582546 79.9380905 25.25 85.25 C32.19000171 85.0021428 36.20583931 83.02573529 41.25 78.25 C43.74453302 75.38945198 44.25 74.74288683 44.25 70.8125 C43.0880216 66.67295196 41.49239854 64.99356799 38.25 62.25 C38.91 63.24 39.57 64.23 40.25 65.25 C39.875 67.4375 39.875 67.4375 39.25 69.25 C35.71947625 69.25 35.2466522 68.77537388 32.75 66.4375 C28.96994191 62.5783612 28.030236 58.84566477 27.1484375 53.60546875 C26.4654904 51.00496564 26.4654904 51.00496564 23.77734375 50.05859375 C22.94332031 49.79175781 22.10929687 49.52492187 21.25 49.25 C18.18474902 45.65625748 18.07509888 42.8879518 18.27734375 38.25390625 C18.23778122 35.35453826 17.31754682 32.91886705 16.25 30.25 C17.57 30.25 18.89 30.25 20.25 30.25 C23.80109893 29.95407509 25.73359815 29.65474739 28.5625 27.4375 C30.22628694 25.28073916 30.86910402 23.91627187 31.25 21.25 C30.569375 21.724375 29.88875 22.19875 29.1875 22.6875 C25.83158044 24.4725636 23.00838519 24.88153086 19.25 25.25 C16.41977903 21.25439392 17.48789554 17.82262677 18.25 13.25 C12.11826709 7.51502628 6.51076431 6.04854055 -1.75 5.25 C-1.75 5.58 -1.75 5.91 -1.75 6.25 C-1.0075 6.476875 -0.265 6.70375 0.5 6.9375 C3.91484607 8.5673129 5.3039825 10.0066375 7.25 13.25 C7.79678139 17.14581737 7.82214724 19.27983728 5.8125 22.6875 C1.92954944 25.05515278 -1.32199428 25.07811235 -5.75 24.25 C-9.24649097 22.84459542 -12.4989189 21.15042319 -15.75 19.25 C-15.09 17.6 -14.43 15.95 -13.75 14.25 C-15.35226955 14.02754607 -16.95696767 13.82253331 -18.5625 13.625 C-19.45582031 13.50898438 -20.34914063 13.39296875 -21.26953125 13.2734375 C-24.00690391 13.01499257 -24.00690391 13.01499257 -26.75 15.25 C-27.25014953 17.70741537 -27.25014953 17.70741537 -26.75 20.25 C-25.31249809 21.93798827 -25.31249809 21.93798827 -23.75 23.25 C-23.75 23.91 -23.75 24.57 -23.75 25.25 C-21.9246875 25.1571875 -21.9246875 25.1571875 -20.0625 25.0625 C-16.08794556 25.05551484 -14.05890627 25.9860115 -10.75 28.25 C-8.7540278 28.92863055 -6.75431449 29.59641919 -4.75 30.25 C-3.76 30.91 -2.77 31.57 -1.75 32.25 C1.21842658 32.70915507 1.21842658 32.70915507 4.4375 32.875 C5.52417969 32.94976562 6.61085937 33.02453125 7.73046875 33.1015625 C8.56191406 33.15054688 9.39335938 33.19953125 10.25 33.25 C9.67785949 36.79881752 8.48556988 38.16672384 5.875 40.5625 C0.73231322 46.10646419 0.23775519 53.02527631 -0.75 60.25 C-4.16610225 61.19314127 -7.20134864 61.33065117 -10.75 61.25 C-10.42 62.24 -10.09 63.23 -9.75 64.25 C-6.79215769 65.47393475 -4.75272755 65.21516243 -1.75 64.25 C-1.36781233 65.90614657 -1.03604898 67.57457024 -0.75 69.25 C-1.08 69.58 -1.41 69.91 -1.75 70.25 C-1.98653523 72.77596259 -2.17173692 75.28107207 -2.3125 77.8125 C-2.35568359 78.52341797 -2.39886719 79.23433594 -2.44335938 79.96679688 C-2.54971777 81.72761912 -2.65038846 83.4887832 -2.75 85.25 C-1.615625 85.86875 -0.48125 86.4875 0.6875 87.125 C4.125 89 4.125 89 5.25 91.25 C5.38415472 93.9223621 5.29318541 96.57250488 5.25 99.25 C4.26 99.58 3.27 99.91 2.25 100.25 C0.93 98.93 -0.39 97.61 -1.75 96.25 C-4.8325458 97.14231589 -6.3797164 97.63286067 -8.0625 100.4375 C-8.92298753 103.95767627 -9.20163243 106.63694056 -8.75 110.25 C-6.39581624 113.18973281 -6.39581624 113.18973281 -3.75 115.25 C-4.08 115.91 -4.41 116.57 -4.75 117.25 C-12.41631016 110.66176471 -12.41631016 110.66176471 -13.5625 105.8125 C-12.47430099 101.04116588 -10.90978056 97.03547969 -7.75 93.25 C-5.29726502 91.93241509 -3.55688607 91.63525887 -0.75 91.25 C-3.39 89.6 -6.03 87.95 -8.75 86.25 C-8.02872006 79.46996859 -6.56878552 72.97817828 -2.75 67.25 C-3.678125 67.311875 -4.60625 67.37375 -5.5625 67.4375 C-10.83376961 67.4700387 -15.74975875 65.76906063 -20.75 64.25 C-21.08 62.93 -21.41 61.61 -21.75 60.25 C-15.28205867 58.73766299 -9.39409958 58.03567421 -2.75 58.25 C-2.6984375 57.42757812 -2.646875 56.60515625 -2.59375 55.7578125 C-1.68021927 46.76783968 0.98387828 41.70556261 7.25 35.25 C6.24582031 35.29898438 5.24164063 35.34796875 4.20703125 35.3984375 C-0.02975879 35.23950559 -3.10087213 34.34731283 -7.0625 32.875 C-8.27550781 32.43414062 -9.48851563 31.99328125 -10.73828125 31.5390625 C-13.75 30.25 -13.75 30.25 -15.75 28.25 C-17.53155865 27.91913911 -19.32631188 27.65691102 -21.125 27.4375 C-24.85897176 26.8013056 -26.44969649 26.49443309 -29.4375 24.0625 C-31.17701975 20.33495769 -31.53494173 18.31742532 -30.75 14.25 C-28.28662957 10.83035223 -25.48136982 8.65323434 -21.3515625 7.69140625 C-19.79494012 7.52768383 -18.23215603 7.41200564 -16.66796875 7.35546875 C-14.66423005 7.37271035 -14.66423005 7.37271035 -12.75 6.25 C-12.42 5.425 -12.09 4.6 -11.75 3.75 C-9.72781518 -1.30546205 -4.72959642 0.02993415 0 0 Z " fill="#D6E3E5" transform="translate(59.75,10.75)"/>
	

	

	<path d="M0 0 C3.32441058 2.01789398 6.17634296 4.33321279 9 7 C8.57771147 9.46185226 8.13804346 11.91830534 7.6875 14.375 C7.51057617 15.42300781 7.51057617 15.42300781 7.33007812 16.4921875 C6.98201011 18.34855026 6.49747273 20.17798054 6 22 C2.77155174 24.15229884 0.81025223 24.60309873 -3 25 C-3.99 24.67 -4.98 24.34 -6 24 C-6 24.66 -6 25.32 -6 26 C-6.94875 25.71125 -7.8975 25.4225 -8.875 25.125 C-12.79206966 23.9898492 -16.75035927 23.26080708 -20.765625 22.5625 C-23 22 -23 22 -26 20 C-27.299375 19.896875 -28.59875 19.79375 -29.9375 19.6875 C-33.25852845 19.33888375 -33.87428453 19.11314392 -36.5 16.75 C-38.1322222 13.75759264 -38.70200572 12.33452719 -38 9 C-35.68007572 6.6854961 -34.5151812 6.01367101 -31.203125 5.92578125 C-29.74132812 6.11720703 -29.74132812 6.11720703 -28.25 6.3125 C-27.26515625 6.43238281 -26.2803125 6.55226563 -25.265625 6.67578125 C-24.51796875 6.78277344 -23.7703125 6.88976563 -23 7 C-23.99 8.98 -24.98 10.96 -26 13 C-24.906875 13.28875 -23.81375 13.5775 -22.6875 13.875 C-19 15 -19 15 -16 17 C-13.81971604 17.35293451 -13.81971604 17.35293451 -11.5 17.3125 C-10.33984375 17.33763672 -10.33984375 17.33763672 -9.15625 17.36328125 C-6.46579403 16.90999791 -5.60812637 16.17599599 -4 14 C-3.33292452 10.58500409 -3.33292452 10.58500409 -4 7 C-6.54137159 3.84045695 -8.14622659 2.28459114 -12 1 C-12.99 1.33 -13.98 1.66 -15 2 C-14.67 1.01 -14.34 0.02 -14 -1 C-9.77384876 -3.11307562 -4.3368041 -1.28144883 0 0 Z " fill="#71CDE2" transform="translate(70,17)"/>
	

	<path d="M0 0 C3.625 0.25 3.625 0.25 5.5625 1.5625 C6.625 3.25 6.625 3.25 6.625 6.25 C7.54539062 6.53617187 7.54539062 6.53617187 8.484375 6.828125 C11.68254659 8.95245796 11.90514632 11.35150283 12.875 15 C13.21015625 16.21171875 13.5453125 17.4234375 13.890625 18.671875 C14.58076502 22.03447213 14.91764661 24.83578957 14.625 28.25 C12.625 31.25 12.625 31.25 9.625 32.25 C6.98562776 32.39821529 4.38993877 32.48097341 1.75 32.5 C1.04230469 32.520625 0.33460937 32.54125 -0.39453125 32.5625 C-4.93227472 32.5963007 -7.72612424 31.96877017 -11.375 29.25 C-10.5 21.5 -10.5 21.5 -9.375 19.25 C-8.055 19.58 -6.735 19.91 -5.375 20.25 C-5.375 20.91 -5.375 21.57 -5.375 22.25 C-3.04205225 22.29241723 -0.70797433 22.29092937 1.625 22.25 C3.26789196 20.60710804 2.95215517 18.76039721 3.0625 16.5 C3.06861279 12.73690412 3.06861279 12.73690412 1.35546875 9.51171875 C-0.73360646 7.78861292 -2.95626612 6.45936694 -5.375 5.25 C-4.26078372 0.31561361 -4.26078372 0.31561361 0 0 Z " fill="#3FC9E9" transform="translate(63.375,89.75)"/>
	

	<path d="M0 0 C0 0.66 0 1.32 0 2 C-2 3.625 -2 3.625 -4 5 C-3.46375 4.731875 -2.9275 4.46375 -2.375 4.1875 C0 4 0 4 3.1875 6.3125 C6.4574631 9.4371314 6.90242627 9.94620371 7.3125 14.375 C7 18 7 18 5.5625 20.4375 C1.67954944 22.80515278 -1.57199428 22.82811235 -6 22 C-9.49649097 20.59459542 -12.7489189 18.90042319 -16 17 C-15.34 15.35 -14.68 13.7 -14 12 C-15.60226955 11.77754607 -17.20696767 11.57253331 -18.8125 11.375 C-19.70582031 11.25898438 -20.59914063 11.14296875 -21.51953125 11.0234375 C-24.25690391 10.76499257 -24.25690391 10.76499257 -27 13 C-27.50500243 16.19834873 -27.27331609 17.5786377 -25.5 20.3125 C-25.005 20.869375 -24.51 21.42625 -24 22 C-25.875 21.75 -25.875 21.75 -28 21 C-29.7238157 18.70157907 -30.00932422 17.37296892 -29.9375 14.5 C-28.58185961 10.88495895 -27.39219634 9.92889596 -24 8 C-21.98760496 7.63710909 -19.96484457 7.32951611 -17.9375 7.0625 C-13.11179561 6.47345004 -13.11179561 6.47345004 -9.375 3.4375 C-8.92125 2.633125 -8.4675 1.82875 -8 1 C-5.29120665 -0.35439668 -2.99066732 -0.06501451 0 0 Z " fill="#ACDEE5" transform="translate(60,13)"/>
	

	<path d="M0 0 C3.51816983 0.51230408 4.44555325 1.8020731 6.69140625 4.5078125 C7.34238281 5.27351563 7.99335937 6.03921875 8.6640625 6.828125 C12.81812138 12.2292274 15.37972724 16.74383954 16.94140625 23.3203125 C17.21307617 24.33641602 17.21307617 24.33641602 17.49023438 25.37304688 C18.64742033 30.06933075 18.58700554 33.64176634 17.62890625 38.3828125 C16.14390625 38.8778125 16.14390625 38.8778125 14.62890625 39.3828125 C14.62890625 40.0428125 14.62890625 40.7028125 14.62890625 41.3828125 C12.66168617 42.76405213 10.66022297 44.09769376 8.62890625 45.3828125 C8.29890625 45.7128125 7.96890625 46.0428125 7.62890625 46.3828125 C-3.11535641 47.73545215 -3.11535641 47.73545215 -7.56640625 45.06640625 C-10.3557004 42.05477706 -11.28921316 39.90138958 -11.93359375 35.8203125 C-11.31593096 32.04570655 -10.51207953 29.55737762 -8.37109375 26.3828125 C-5.68359375 25.0078125 -5.68359375 25.0078125 -3.37109375 24.3828125 C-2.47390625 25.3728125 -2.47390625 25.3728125 -1.55859375 26.3828125 C0.50392459 28.7201971 0.50392459 28.7201971 3.62890625 28.3828125 C3.20756216 21.99559626 3.20756216 21.99559626 -0.0625 16.828125 C-2.18638444 15.60263278 -2.18638444 15.60263278 -5.37109375 14.3828125 C-5.25726722 12.42379796 -5.1296825 10.4655787 -4.99609375 8.5078125 C-4.92648438 7.41726562 -4.856875 6.32671875 -4.78515625 5.203125 C-4.26513831 1.66111603 -3.59014876 0.57962863 0 0 Z M-3.37109375 10.3828125 C-3.37109375 11.3728125 -3.37109375 12.3628125 -3.37109375 13.3828125 C-1.41799487 14.78394866 0.58599443 16.11620717 2.62890625 17.3828125 C4.62890625 19.3828125 4.62890625 19.3828125 4.82421875 21.765625 C4.80101562 22.67054687 4.7778125 23.57546875 4.75390625 24.5078125 C4.72683594 25.87292969 4.72683594 25.87292969 4.69921875 27.265625 C4.67601562 27.96429688 4.6528125 28.66296875 4.62890625 29.3828125 C1.86626336 29.98014069 -0.53142144 30.3828125 -3.37109375 30.3828125 C-3.70109375 29.3928125 -4.03109375 28.4028125 -4.37109375 27.3828125 C-5.36109375 27.3828125 -6.35109375 27.3828125 -7.37109375 27.3828125 C-8.96098966 31.40431391 -9.98136772 34.24210801 -8.37109375 38.3828125 C-4.73583961 41.01334816 -0.67003182 40.67954009 3.62890625 40.6328125 C4.34046875 40.64054687 5.05203125 40.64828125 5.78515625 40.65625 C9.52158522 40.6423081 12.522609 40.58828355 15.62890625 38.3828125 C18.32330042 32.99402416 15.00133495 24.26025068 13.640625 18.66796875 C12.4073693 15.88242981 11.3645857 15.52682391 8.62890625 14.3828125 C8.00390625 12.3828125 8.00390625 12.3828125 7.62890625 10.3828125 C5.68558293 8.00286882 5.68558293 8.00286882 2.12890625 8.1328125 C-1.42777043 8.00286882 -1.42777043 8.00286882 -3.37109375 10.3828125 Z " fill="#75CEE2" transform="translate(61.37109375,81.6171875)"/>
	

	

	

	<path d="M0 0 C3.94627764 0.56375395 6.79480075 1.59610056 10 4 C10.8125 6.1875 10.8125 6.1875 11 8 C13.88575819 7.60196439 14.82189513 7.20990931 16.75 4.9375 C17.1625 4.298125 17.575 3.65875 18 3 C25.2 3.48 25.2 3.48 28.5 5.625 C30.62228743 8.98528843 30.46531109 11.07809228 30 15 C29.16267366 17.45934708 28.14738639 19.65741945 27 22 C26.67 21.01 26.34 20.02 26 19 C25.319375 19.474375 24.63875 19.94875 23.9375 20.4375 C20.58158044 22.2225636 17.75838519 22.63153086 14 23 C11.16977903 19.00439392 12.23789554 15.57262677 13 11 C11.75627811 10.01287122 10.50472782 9.03560095 9.25 8.0625 C8.20585938 7.24458984 8.20585938 7.24458984 7.140625 6.41015625 C5.03907872 5.02574346 3.45678201 4.43713013 1 4 C0.67 2.68 0.34 1.36 0 0 Z " fill="#A9DCE4" transform="translate(65,13)"/>
	

	<path d="M0 0 C0.99 0.99 1.98 1.98 3 3 C4.0725 2.690625 5.145 2.38125 6.25 2.0625 C8.82866222 1.33187904 11.39512102 0.62517096 14 0 C13.66142425 3.04718178 13.16892978 4.7747603 11.3125 7.25 C8.48567517 9.38921879 6.51310706 9.77575912 3 10 C2.01 9.67 1.02 9.34 0 9 C0.19916016 9.85271484 0.19916016 9.85271484 0.40234375 10.72265625 C1.48811863 15.46994936 2.32438062 20.1741473 3 25 C3.33 25.99 3.66 26.98 4 28 C5.175625 28.309375 5.175625 28.309375 6.375 28.625 C9.60525964 30.31704076 9.71081973 31.25143363 10.8125 34.625 C11.22732811 36.07804431 11.62925084 37.53508867 12 39 C8.52321907 37.84107302 8.33734469 37.30693751 6.625 34.25 C4.47054065 30.62041534 2.07426696 27.91661225 -1 25 C-5 20.35135135 -5 20.35135135 -5 18 C-6.32 17.34 -7.64 16.68 -9 16 C-8.34 14.68 -7.68 13.36 -7 12 C-7.81984375 12.04640625 -8.6396875 12.0928125 -9.484375 12.140625 C-10.56203125 12.17671875 -11.6396875 12.2128125 -12.75 12.25 C-14.35101563 12.31960937 -14.35101563 12.31960937 -15.984375 12.390625 C-19.63802112 11.91735478 -20.72228105 10.80844958 -23 8 C-19.44219804 8.60990891 -16.3171411 9.5783681 -13 11 C-13 10.34 -13 9.68 -13 9 C-12.37351562 8.93941406 -11.74703125 8.87882812 -11.1015625 8.81640625 C-10.28429687 8.73261719 -9.46703125 8.64882813 -8.625 8.5625 C-7.81289062 8.48128906 -7.00078125 8.40007813 -6.1640625 8.31640625 C-3.95727195 8.10909886 -3.95727195 8.10909886 -2 7 C-1.26924352 4.6859378 -0.59861742 2.35171131 0 0 Z " fill="#A9D8DF" transform="translate(77,32)"/>
	

	<path d="M0 0 C6.81838074 6.63894967 6.81838074 6.63894967 7.32421875 10.4296875 C6.73702309 15.0848049 3.26315278 17.85265849 0 21 C-3.4335616 23.61604694 -5.68072437 24.47991951 -10 24 C-10.33 23.67 -10.66 23.34 -11 23 C-10.94921875 21.07421875 -10.94921875 21.07421875 -10.6875 18.6875 C-10.60886719 17.90761719 -10.53023438 17.12773438 -10.44921875 16.32421875 C-9.98413721 13.91792729 -9.19341444 12.12866168 -8 10 C-7.34 10 -6.68 10 -6 10 C-5.67 8.35 -5.34 6.7 -5 5 C-3.35 5.99 -1.7 6.98 0 8 C0.69159401 6.15274948 0.69159401 6.15274948 1 4 C0.34 3.01 -0.32 2.02 -1 1 C-0.67 0.67 -0.34 0.34 0 0 Z " fill="#72CFE4" transform="translate(98,72)"/>
	

	<path d="M0 0 C0.33 0 0.66 0 1 0 C1 4.29 1 8.58 1 13 C2.134375 13.61875 3.26875 14.2375 4.4375 14.875 C7.875 16.75 7.875 16.75 9 19 C9.13415472 21.6723621 9.04318541 24.32250488 9 27 C8.01 27.33 7.02 27.66 6 28 C4.68 26.68 3.36 25.36 2 24 C-1.0825458 24.89231589 -2.6297164 25.38286067 -4.3125 28.1875 C-5.17298753 31.70767627 -5.45163243 34.38694056 -5 38 C-2.64581624 40.93973281 -2.64581624 40.93973281 0 43 C-0.33 43.66 -0.66 44.32 -1 45 C-8.75023652 38.33964049 -8.75023652 38.33964049 -9.6875 33.3125 C-8.64620621 28.29535722 -7.12447854 25.97114056 -3.25 22.625 C0.69978048 20.65010976 2.77560958 20.9861463 7 22 C5.49450444 17.78461243 2.70682435 16.28718949 -1 14 C-1.33 13.67 -1.66 13.34 -2 13 C-1.93588312 11.1843265 -1.79902523 9.3709514 -1.625 7.5625 C-1.53476562 6.57378906 -1.44453125 5.58507812 -1.3515625 4.56640625 C-1 2 -1 2 0 0 Z " fill="#B4DDE3" transform="translate(56,83)"/>
	

	<path d="M0 0 C2.95063625 0.87721618 4.64435703 1.544777 6.5625 4 C8.59975009 8.25165237 10.30874798 12.6014078 12 17 C12.31582031 17.76570313 12.63164063 18.53140625 12.95703125 19.3203125 C15.113897 24.65830901 15.113897 24.65830901 14 28 C9.23109388 25.03554485 8.12951649 22.24806158 6.87109375 17.0234375 C6.15225786 14.81641811 6.15225786 14.81641811 3.91015625 13.7265625 C2.96462891 13.36691406 2.96462891 13.36691406 2 13 C2.33 10.69 2.66 8.38 3 6 C2.01 5.67 1.02 5.34 0 5 C0 3.35 0 1.7 0 0 Z " fill="#FEFDFD" transform="translate(80,47)"/>
	

	

	

	<path d="M0 0 C0.93392578 0.24556641 0.93392578 0.24556641 1.88671875 0.49609375 C6.20692382 1.19534902 10.44456045 1.10484393 14.8125 1.0625 C16.13797852 1.05573242 16.13797852 1.05573242 17.49023438 1.04882812 C19.66018559 1.03709866 21.83010172 1.01916495 24 1 C24 1.66 24 2.32 24 3 C22.03277992 4.38123963 20.03131672 5.71488126 18 7 C17.67 7.33 17.34 7.66 17 8 C13.22621894 8.62360607 9.75716219 8.75665072 6 8 C3.32580316 5.6854016 1.64620931 3.11182181 0 0 Z " fill="#809499" transform="translate(52,120)"/>
	

	

	<path d="M0 0 C4.04663285 1.34887762 4.82068501 3.41467534 7 7 C7.433125 7.680625 7.86625 8.36125 8.3125 9.0625 C9.25169459 11.70932113 8.83582844 13.35320995 8 16 C7.34 16.66 6.68 17.32 6 18 C5.01 18 4.02 18 3 18 C2.49309416 15.93918639 1.99475381 13.87626474 1.5 11.8125 C1.2215625 10.66394531 0.943125 9.51539062 0.65625 8.33203125 C0.08504615 5.43181171 -0.13283779 2.93903615 0 0 Z " fill="#5C5E5E" transform="translate(77,60)"/>
	

	

	<path d="M0 0 C0.680625 0.639375 1.36125 1.27875 2.0625 1.9375 C5.46408839 4.3258493 7.90433701 4.67877153 12 5 C11.625 6.9375 11.625 6.9375 11 9 C8.6203388 10.1898306 7.08514265 10.13349966 4.4375 10.125 C3.22900391 10.12886719 3.22900391 10.12886719 1.99609375 10.1328125 C0 10 0 10 -1 9 C-1.23728814 2.47457627 -1.23728814 2.47457627 0 0 Z " fill="#5C5E5E" transform="translate(62,66)"/>
	

	

	

	

	<path d="M0 0 C0.78375 0.04125 1.5675 0.0825 2.375 0.125 C2.5 3 2.5 3 2.375 6.125 C1.715 6.785 1.055 7.445 0.375 8.125 C-2.25 7.75 -2.25 7.75 -4.625 7.125 C-4.75 4.75 -4.75 4.75 -4.625 2.125 C-2.625 0.125 -2.625 0.125 0 0 Z " fill="#DBE4E5" transform="translate(72.625,59.875)"/>
	

	

	

	

	

	

	

	

	

	

	

	

	

</svg>
