<?xml version="1.0" encoding="iso-8859-1"?>
<svg height="128" version="1.1" width="128" xmlns="http://www.w3.org/2000/svg">
	

	<path d="M0 0 C42.24 0 84.48 0 128 0 C128 42.24 128 84.48 128 128 C85.76 128 43.52 128 0 128 C0 85.76 0 43.52 0 0 Z " fill="#FDFBFB" transform="translate(0,0)"/>
	

	<path d="M0 0 C2.42591414 -0.26132038 4.58655219 -0.30737678 7.01171875 -0.23046875 C7.78432541 -0.21775436 8.55693207 -0.20503998 9.35295105 -0.19194031 C11.17063271 -0.15969531 12.98819208 -0.12012104 14.80560303 -0.07513428 C18.3983944 0.00937049 21.9910942 0.06472412 25.58447266 0.11865234 C32.06844578 0.21974577 38.55090666 0.35939669 45.0335865 0.52329826 C48.82671078 0.61869676 52.61953206 0.70445205 56.41333008 0.76831055 C60.13710603 0.83121652 63.85963102 0.91782586 67.58249474 1.02124977 C68.98767546 1.05628376 70.39309098 1.08298953 71.79859352 1.10095787 C73.75264464 1.12750143 75.70615556 1.18743277 77.65942383 1.2487793 C78.76651199 1.27320602 79.87360016 1.29763275 81.01423645 1.32279968 C84.94362003 2.21402223 86.47568365 3.92625853 89 7 C89.93481445 9.875 89.93481445 9.875 90.36328125 13 C90.52763672 14.134375 90.69199219 15.26875 90.86132812 16.4375 C91.01021484 17.613125 91.15910156 18.78875 91.3125 20 C91.48072266 21.175625 91.64894531 22.35125 91.82226562 23.5625 C92.49690109 28.40886087 93.10076941 33.10001719 93 38 C93.99 38 94.98 38 96 38 C97.09547874 40.19095748 97.26541382 41.71202968 97.5 44.140625 C97.5825 44.96433594 97.665 45.78804687 97.75 46.63671875 C97.8325 47.49910156 97.915 48.36148438 98 49.25 C98.1649077 50.9428806 98.33153663 52.63559454 98.5 54.328125 C98.61988281 55.53384155 98.61988281 55.53384155 98.7421875 56.76391602 C98.96302823 58.67933292 99.28421424 60.58271807 99.625 62.48046875 C100.07107872 65.47756016 99.35112616 66.38219306 98 69 C98.31074997 71.4859998 98.91948593 73.72625216 99.625 76.125 C100 78 100 78 99 81 C98.92530529 82.81203841 98.86415491 84.62465851 98.8125 86.4375 C98.42310397 91.51307588 98.42310397 91.51307588 96.6015625 93.609375 C94.9375 94.6875 94.9375 94.6875 92 96 C88.62547256 94.60364382 86.88361882 93.1393647 85 90 C84.835 89.13375 84.67 88.2675 84.5 87.375 C84.21277591 84.63634663 84.21277591 84.63634663 81 83 C80.505 77.555 80.505 77.555 80 72 C69.44 72 58.88 72 48 72 C48.33 73.65 48.66 75.3 49 77 C49.2709316 79.67100243 49.50232664 82.32362766 49.6875 85 C49.74744141 85.69867188 49.80738281 86.39734375 49.86914062 87.1171875 C50.15590402 91.28114913 49.90406087 94.26483078 48 98 C44.535 98.495 44.535 98.495 41 99 C36.30302424 90.92707291 36.68091111 85.29549181 37.51953125 76.20703125 C37.60952393 75.22839111 37.6995166 74.24975098 37.79223633 73.24145508 C37.86079834 72.5017749 37.92936035 71.76209473 38 71 C36.28901123 71.01571045 36.28901123 71.01571045 34.54345703 71.03173828 C30.32050706 71.06787717 26.09757081 71.09087812 21.87451172 71.10986328 C20.04506127 71.11993484 18.21562697 71.13359276 16.38623047 71.15087891 C13.76005066 71.17507677 11.13408325 71.18647132 8.5078125 71.1953125 C7.27649094 71.21079636 7.27649094 71.21079636 6.02029419 71.22659302 C4.01210858 71.22699184 2.00444618 71.1224954 0 71 C-2 69 -2 69 -2.22705078 67.12060547 C-2.21657715 66.37697754 -2.20610352 65.63334961 -2.1953125 64.8671875 C-2.18886719 64.06152344 -2.18242187 63.25585938 -2.17578125 62.42578125 C-2.15064453 61.16314453 -2.15064453 61.16314453 -2.125 59.875 C-2.11597656 59.02550781 -2.10695313 58.17601562 -2.09765625 57.30078125 C-2.07405647 55.20040116 -2.03818483 53.10016556 -2 51 C1.64882888 49.85444817 5.07171063 49.87962538 8.87988281 49.88647461 C9.90488388 49.88625557 9.90488388 49.88625557 10.95059204 49.8860321 C13.20146904 49.88672685 15.45226252 49.89449868 17.703125 49.90234375 C19.2668249 49.90420949 20.83052538 49.90563266 22.39422607 49.90663147 C26.50416689 49.91044438 30.61407221 49.9202642 34.72399902 49.93133545 C38.92016113 49.94157593 43.11632899 49.94613474 47.3125 49.95117188 C55.54168293 49.96188758 63.77083705 49.97894927 72 50 C71.505 47.525 71.505 47.525 71 45 C66.41704507 44.8222048 61.83369571 44.65739168 57.25 44.5 C56.54936432 44.47565887 55.84872864 44.45131775 55.12686157 44.42623901 C46.40401729 44.13114555 37.69296094 43.96247649 28.96484375 44.00390625 C28.14486908 44.0074411 27.32489441 44.01097595 26.48007202 44.01461792 C22.46782313 44.03537737 18.45627782 44.07152694 14.44433594 44.125 C12.97721511 44.13691343 11.51009276 44.14864167 10.04296875 44.16015625 C8.75414795 44.17699463 7.46532715 44.19383301 6.13745117 44.21118164 C3 44 3 44 0 42 C-0.375 39 -0.375 39 0 36 C3.87593019 33.41604654 6.81158667 33.93660074 11.26171875 34.2421875 C12.08517288 34.28940948 12.90862701 34.33663147 13.7570343 34.38528442 C16.40124125 34.53837165 19.04427874 34.70580685 21.6875 34.875 C42.48121574 36.43544786 42.48121574 36.43544786 63.25 35.4375 C67 35 67 35 71 36 C71 32.7 71 29.4 71 26 C70.22547989 25.97716446 69.45095978 25.95432892 68.65296936 25.93080139 C61.36863449 25.71518024 54.08446045 25.49495742 46.80042362 25.26950932 C43.05525298 25.15375657 39.31004521 25.03981039 35.56469727 24.92993164 C31.95304752 24.82390974 28.34156868 24.71322245 24.73016167 24.59924126 C23.34945195 24.55649606 21.96868833 24.51545796 20.58787727 24.4761219 C18.66009575 24.42091761 16.73250444 24.35918539 14.80493164 24.29711914 C13.70572891 24.26380997 12.60652618 24.23050079 11.47401428 24.19618225 C9 24 9 24 8 23 C6.88625 22.896875 5.7725 22.79375 4.625 22.6875 C1 22 1 22 -0.70703125 20.4296875 C-2.51999192 17.02285506 -2.36125747 14.27433748 -2.3125 10.4375 C-2.31572266 9.76525391 -2.31894531 9.09300781 -2.32226562 8.40039062 C-2.28217649 4.73041222 -2.08504922 3.12757383 0 0 Z " fill="#F51B0B" transform="translate(19,17)"/>
	

	<path d="M0 0 C2.42591414 -0.26132038 4.58655219 -0.30737678 7.01171875 -0.23046875 C7.78432541 -0.21775436 8.55693207 -0.20503998 9.35295105 -0.19194031 C11.17063271 -0.15969531 12.98819208 -0.12012104 14.80560303 -0.07513428 C18.3983944 0.00937049 21.9910942 0.06472412 25.58447266 0.11865234 C32.06844578 0.21974577 38.55090666 0.35939669 45.0335865 0.52329826 C48.82671078 0.61869676 52.61953206 0.70445205 56.41333008 0.76831055 C60.13710603 0.83121652 63.85963102 0.91782586 67.58249474 1.02124977 C68.98767546 1.05628376 70.39309098 1.08298953 71.79859352 1.10095787 C73.75264464 1.12750143 75.70615556 1.18743277 77.65942383 1.2487793 C78.76651199 1.27320602 79.87360016 1.29763275 81.01423645 1.32279968 C84.94362003 2.21402223 86.47568365 3.92625853 89 7 C89.93481445 9.875 89.93481445 9.875 90.36328125 13 C90.52763672 14.134375 90.69199219 15.26875 90.86132812 16.4375 C91.01021484 17.613125 91.15910156 18.78875 91.3125 20 C91.48072266 21.175625 91.64894531 22.35125 91.82226562 23.5625 C92.49690109 28.40886087 93.10076941 33.10001719 93 38 C93.99 38 94.98 38 96 38 C97.09547874 40.19095748 97.26541382 41.71202968 97.5 44.140625 C97.5825 44.96433594 97.665 45.78804687 97.75 46.63671875 C97.8325 47.49910156 97.915 48.36148438 98 49.25 C98.1649077 50.9428806 98.33153663 52.63559454 98.5 54.328125 C98.61988281 55.53384155 98.61988281 55.53384155 98.7421875 56.76391602 C98.96302823 58.67933292 99.28421424 60.58271807 99.625 62.48046875 C100.07107872 65.47756016 99.35112616 66.38219306 98 69 C98.31074997 71.4859998 98.91948593 73.72625216 99.625 76.125 C100 78 100 78 99 81 C98.92530529 82.81203841 98.86415491 84.62465851 98.8125 86.4375 C98.42310397 91.51307588 98.42310397 91.51307588 96.6015625 93.609375 C94.9375 94.6875 94.9375 94.6875 92 96 C88.62547256 94.60364382 86.88361882 93.1393647 85 90 C84.835 89.13375 84.67 88.2675 84.5 87.375 C84.21277591 84.63634663 84.21277591 84.63634663 81 83 C80.505 77.555 80.505 77.555 80 72 C69.44 72 58.88 72 48 72 C48.33 73.65 48.66 75.3 49 77 C49.2709316 79.67100243 49.50232664 82.32362766 49.6875 85 C49.74744141 85.69867188 49.80738281 86.39734375 49.86914062 87.1171875 C50.15590402 91.28114913 49.90406087 94.26483078 48 98 C44.535 98.495 44.535 98.495 41 99 C36.30302424 90.92707291 36.68091111 85.29549181 37.51953125 76.20703125 C37.60952393 75.22839111 37.6995166 74.24975098 37.79223633 73.24145508 C37.86079834 72.5017749 37.92936035 71.76209473 38 71 C36.28901123 71.01571045 36.28901123 71.01571045 34.54345703 71.03173828 C30.32050706 71.06787717 26.09757081 71.09087812 21.87451172 71.10986328 C20.04506127 71.11993484 18.21562697 71.13359276 16.38623047 71.15087891 C13.76005066 71.17507677 11.13408325 71.18647132 8.5078125 71.1953125 C7.27649094 71.21079636 7.27649094 71.21079636 6.02029419 71.22659302 C4.01210858 71.22699184 2.00444618 71.1224954 0 71 C-2 69 -2 69 -2.22705078 67.12060547 C-2.21657715 66.37697754 -2.20610352 65.63334961 -2.1953125 64.8671875 C-2.18886719 64.06152344 -2.18242187 63.25585938 -2.17578125 62.42578125 C-2.15064453 61.16314453 -2.15064453 61.16314453 -2.125 59.875 C-2.11597656 59.02550781 -2.10695313 58.17601562 -2.09765625 57.30078125 C-2.07405647 55.20040116 -2.03818483 53.10016556 -2 51 C1.64882888 49.85444817 5.07171063 49.87962538 8.87988281 49.88647461 C9.90488388 49.88625557 9.90488388 49.88625557 10.95059204 49.8860321 C13.20146904 49.88672685 15.45226252 49.89449868 17.703125 49.90234375 C19.2668249 49.90420949 20.83052538 49.90563266 22.39422607 49.90663147 C26.50416689 49.91044438 30.61407221 49.9202642 34.72399902 49.93133545 C38.92016113 49.94157593 43.11632899 49.94613474 47.3125 49.95117188 C55.54168293 49.96188758 63.77083705 49.97894927 72 50 C71.505 47.525 71.505 47.525 71 45 C66.41704507 44.8222048 61.83369571 44.65739168 57.25 44.5 C56.54936432 44.47565887 55.84872864 44.45131775 55.12686157 44.42623901 C46.40401729 44.13114555 37.69296094 43.96247649 28.96484375 44.00390625 C28.14486908 44.0074411 27.32489441 44.01097595 26.48007202 44.01461792 C22.46782313 44.03537737 18.45627782 44.07152694 14.44433594 44.125 C12.97721511 44.13691343 11.51009276 44.14864167 10.04296875 44.16015625 C8.75414795 44.17699463 7.46532715 44.19383301 6.13745117 44.21118164 C3 44 3 44 0 42 C-0.375 39 -0.375 39 0 36 C3.87593019 33.41604654 6.81158667 33.93660074 11.26171875 34.2421875 C12.08517288 34.28940948 12.90862701 34.33663147 13.7570343 34.38528442 C16.40124125 34.53837165 19.04427874 34.70580685 21.6875 34.875 C42.48121574 36.43544786 42.48121574 36.43544786 63.25 35.4375 C67 35 67 35 71 36 C71 32.7 71 29.4 71 26 C70.22547989 25.97716446 69.45095978 25.95432892 68.65296936 25.93080139 C61.36863449 25.71518024 54.08446045 25.49495742 46.80042362 25.26950932 C43.05525298 25.15375657 39.31004521 25.03981039 35.56469727 24.92993164 C31.95304752 24.82390974 28.34156868 24.71322245 24.73016167 24.59924126 C23.34945195 24.55649606 21.96868833 24.51545796 20.58787727 24.4761219 C18.66009575 24.42091761 16.73250444 24.35918539 14.80493164 24.29711914 C13.70572891 24.26380997 12.60652618 24.23050079 11.47401428 24.19618225 C9 24 9 24 8 23 C6.88625 22.896875 5.7725 22.79375 4.625 22.6875 C1 22 1 22 -0.70703125 20.4296875 C-2.51999192 17.02285506 -2.36125747 14.27433748 -2.3125 10.4375 C-2.31572266 9.76525391 -2.31894531 9.09300781 -2.32226562 8.40039062 C-2.28217649 4.73041222 -2.08504922 3.12757383 0 0 Z M2 5 C1.45996973 7.5572503 1.45996973 7.5572503 1.25 10.4375 C1.15203125 11.40558594 1.0540625 12.37367187 0.953125 13.37109375 C0.76763206 16.23620806 0.76763206 16.23620806 3 19 C5.19184908 19.57193807 5.19184908 19.57193807 7.80859375 19.66015625 C8.8459668 19.73057129 9.88333984 19.80098633 10.95214844 19.87353516 C12.10231445 19.93589355 13.25248047 19.99825195 14.4375 20.0625 C15.6327832 20.13774902 16.82806641 20.21299805 18.05957031 20.29052734 C36.6932329 21.41597272 55.35042123 22.1915223 74 23 C73.99214478 23.84763916 73.99214478 23.84763916 73.98413086 24.71240234 C73.96337578 27.2665903 73.9503446 29.82076053 73.9375 32.375 C73.92493164 33.70917969 73.92493164 33.70917969 73.91210938 35.0703125 C73.90727539 36.34648438 73.90727539 36.34648438 73.90234375 37.6484375 C73.89448853 38.82672119 73.89448853 38.82672119 73.88647461 40.02880859 C73.87426047 42.07772668 73.87426047 42.07772668 75 44 C75.13415472 46.6723621 75.04318541 49.32250488 75 52 C65.64679571 52.79234993 56.39951816 53.11750783 47.015625 53.02734375 C44.42708456 53.0147204 41.83854283 53.00235783 39.25 52.99023438 C35.22066018 52.96524891 31.1913876 52.93735156 27.16210938 52.90405273 C23.23831406 52.87225416 19.31451565 52.85615461 15.390625 52.83984375 C14.17618713 52.82638412 12.96174927 52.8129245 11.71051025 52.79905701 C10.59464539 52.79567825 9.47878052 52.7922995 8.32910156 52.78881836 C7.34540588 52.78136093 6.36171021 52.7739035 5.34820557 52.76622009 C2.80902119 52.76859392 2.80902119 52.76859392 1 55 C0.75660449 57.89883083 0.75660449 57.89883083 0.875 61.125 C0.89304687 62.22070312 0.91109375 63.31640625 0.9296875 64.4453125 C0.95289063 65.28835937 0.97609375 66.13140625 1 67 C4.00630667 68.73556002 6.10436327 69.23457455 9.5625 69.16015625 C10.87383911 69.14263306 10.87383911 69.14263306 12.21166992 69.12475586 C13.13181885 69.10421143 14.05196777 69.08366699 15 69.0625 C35.64661788 68.82330894 35.64661788 68.82330894 40 71 C39.98428955 71.90709717 39.98428955 71.90709717 39.96826172 72.83251953 C39.92645332 75.5966367 39.90059549 78.36068708 39.875 81.125 C39.85824219 82.07632813 39.84148438 83.02765625 39.82421875 84.0078125 C39.78895472 89.08583255 39.96666383 93.24487525 42 98 C44.47266765 97.65555119 44.47266765 97.65555119 47 97 C48.67825146 93.64349708 47.85685289 89.91327567 47.625 86.25 C47.58117187 85.45078125 47.53734375 84.6515625 47.4921875 83.828125 C47.23237967 79.44025935 46.72877497 75.37264982 46 71 C57.55 71 69.1 71 81 71 C81.99 73.97 82.98 76.94 84 80 C84.99 81.485 84.99 81.485 86 83 C86.59765625 84.97265625 86.59765625 84.97265625 87.0625 87.0625 C87.55601159 89.25271258 87.99256926 90.98513852 89 93 C92.38945041 92.394741 94.55726402 91.45793973 97 89 C97.56125821 85.67797388 97.56125821 85.67797388 97.375 82 C97.35566406 80.14375 97.35566406 80.14375 97.3359375 78.25 C97.2402778 74.85535476 97.2402778 74.85535476 95 72 C95.09375 69.65234375 95.09375 69.65234375 95.5 66.9375 C96.20351144 60.78586511 95.81182244 54.62364488 93 49 C92.86798654 47.60652455 92.76941967 46.20981548 92.6875 44.8125 C92.16074524 38.87139715 90.57687711 33.32096552 88.9375 27.61328125 C88 24 88 24 87.5 20.16796875 C87.30447822 16.91232962 87.30447822 16.91232962 85 15 C84.66666667 12.66666667 84.33333333 10.33333333 84 8 C80.28202044 4.28202044 75.85184032 4.82452609 70.78466797 4.67114258 C69.70596436 4.63684395 69.70596436 4.63684395 68.60546875 4.60185242 C66.2344926 4.52794209 63.86338926 4.46078275 61.4921875 4.39453125 C59.84359467 4.34642246 58.19500462 4.29821862 56.54641724 4.24992371 C53.09499333 4.1500872 49.64348583 4.05406582 46.19189453 3.96020508 C41.76166157 3.8390452 37.33195319 3.70431041 32.90221977 3.56622791 C29.50015252 3.46236171 26.0978747 3.36771333 22.6954689 3.27567101 C21.06144688 3.22995311 19.42751582 3.18085758 17.79369736 3.12836647 C15.51478943 3.05612264 13.23589774 2.99675956 10.95654297 2.94067383 C9.00939896 2.88524162 9.00939896 2.88524162 7.0229187 2.82868958 C3.88617662 2.66984596 3.88617662 2.66984596 2 5 Z " fill="#E9ADA9" transform="translate(19,17)"/>
	

	

	

	

	<path d="M0 0 C0.39832031 1.10408203 0.39832031 1.10408203 0.8046875 2.23046875 C1.15789062 3.20628906 1.51109375 4.18210937 1.875 5.1875 C2.22304687 6.15042969 2.57109375 7.11335938 2.9296875 8.10546875 C3.63564829 10.01465469 4.36958198 11.91375959 5.1328125 13.80078125 C6 16 6 16 6 17 C-5.22 17.33 -16.44 17.66 -28 18 C-27.34 23.28 -26.68 28.56 -26 34 C-26 42 -26 42 -27.25 44.0625 C-29 45 -29 45 -31.1875 44.6875 C-31.785625 44.460625 -32.38375 44.23375 -33 44 C-34.1059696 39.53188281 -34.18352462 35.13815758 -34.1875 30.5625 C-34.19974609 29.82451172 -34.21199219 29.08652344 -34.22460938 28.32617188 C-34.23653681 23.8533836 -33.93116536 20.1237808 -32 16 C-29.90625 13.91015625 -29.90625 13.91015625 -27.5 12.0625 C-23.30428559 8.56719377 -21.78412006 6.37682328 -21 1 C-13.98194143 -0.10087193 -7.09434233 -0.09733092 0 0 Z " fill="#A20D17" transform="translate(93,70)"/>
	

	<path d="M0 0 C2.42591414 -0.26132038 4.58655219 -0.30737678 7.01171875 -0.23046875 C7.78432541 -0.21775436 8.55693207 -0.20503998 9.35295105 -0.19194031 C11.17063271 -0.15969531 12.98819208 -0.12012104 14.80560303 -0.07513428 C18.3983944 0.00937049 21.9910942 0.06472412 25.58447266 0.11865234 C32.06844578 0.21974577 38.55090666 0.35939669 45.0335865 0.52329826 C48.82671078 0.61869676 52.61953206 0.70445205 56.41333008 0.76831055 C60.13710603 0.83121652 63.85963102 0.91782586 67.58249474 1.02124977 C68.98767546 1.05628376 70.39309098 1.08298953 71.79859352 1.10095787 C73.75264464 1.12750143 75.70615556 1.18743277 77.65942383 1.2487793 C78.76651199 1.27320602 79.87360016 1.29763275 81.01423645 1.32279968 C84.94362003 2.21402223 86.47568365 3.92625853 89 7 C89.93481445 9.875 89.93481445 9.875 90.36328125 13 C90.52763672 14.134375 90.69199219 15.26875 90.86132812 16.4375 C91.01021484 17.613125 91.15910156 18.78875 91.3125 20 C91.48072266 21.175625 91.64894531 22.35125 91.82226562 23.5625 C92.49690109 28.40886087 93.10076941 33.10001719 93 38 C91.51581049 35.25206051 90.59835242 32.76148433 89.96484375 29.70703125 C89.79533203 28.91232422 89.62582031 28.11761719 89.45117188 27.29882812 C89.28166016 26.47833984 89.11214844 25.65785156 88.9375 24.8125 C88.26317595 19.4826225 88.26317595 19.4826225 86 15 C85.47071924 12.68717649 85.03666285 10.36278087 84.59765625 8.03125 C84.40042969 7.3609375 84.20320313 6.690625 84 6 C81.03231567 4.51615783 78.2948641 4.78709203 74.98339844 4.70288086 C73.9001403 4.67340111 73.9001403 4.67340111 72.79499817 4.64332581 C70.39988509 4.57929952 68.00466048 4.52202612 65.609375 4.46484375 C63.94507858 4.42182235 62.28079234 4.37840573 60.61651611 4.33460999 C56.2261943 4.22024566 51.83574624 4.1117 47.44525146 4.00421143 C43.87193439 3.91576659 40.29872844 3.82324826 36.72552109 3.73049068 C32.45767324 3.61976354 28.189782 3.51076479 23.921875 3.40234375 C22.70470417 3.37139775 22.70470417 3.37139775 21.46294403 3.33982658 C19.15337738 3.28155154 16.84378551 3.22442368 14.53417969 3.16772461 C13.22116882 3.13521103 11.90815796 3.10269745 10.55535889 3.06919861 C7.36897819 3.00718149 4.18685343 2.98679098 1 3 C0.97307516 5.29160319 0.95363876 7.58329546 0.9375 9.875 C0.92589844 11.15117187 0.91429687 12.42734375 0.90234375 13.7421875 C0.76823431 16.88664652 0.76823431 16.88664652 2 19 C5.06268952 19.47913241 8.0402098 19.81214805 11.125 20.0625 C12.07391113 20.14483887 13.02282227 20.22717773 14.00048828 20.31201172 C27.63654894 21.40454077 41.32841232 21.67111182 55 22 C55 22.33 55 22.66 55 23 C24.37402443 23.18776537 24.37402443 23.18776537 10.1875 22.75 C9.2888623 22.73590088 8.39022461 22.72180176 7.46435547 22.70727539 C1.62262241 22.4770282 1.62262241 22.4770282 -1.0546875 20.42578125 C-2.38375417 17.0152424 -2.35890152 14.08894288 -2.3125 10.4375 C-2.31572266 9.76525391 -2.31894531 9.09300781 -2.32226562 8.40039062 C-2.28217649 4.73041222 -2.08504922 3.12757383 0 0 Z " fill="#E58680" transform="translate(19,17)"/>
	

	<path d="M0 0 C0.66 0 1.32 0 2 0 C3.09547874 2.19095748 3.26541382 3.71202968 3.5 6.140625 C3.5825 6.96433594 3.665 7.78804687 3.75 8.63671875 C3.8325 9.49910156 3.915 10.36148438 4 11.25 C4.1649077 12.9428806 4.33153663 14.63559454 4.5 16.328125 C4.57992187 17.13193604 4.65984375 17.93574707 4.7421875 18.76391602 C4.96302823 20.67933292 5.28421424 22.58271807 5.625 24.48046875 C6.07107872 27.47756016 5.35112616 28.38219306 4 31 C4.31074997 33.4859998 4.91948593 35.72625216 5.625 38.125 C6 40 6 40 5 43 C4.92530529 44.81203841 4.86415491 46.62465851 4.8125 48.4375 C4.42310397 53.51307588 4.42310397 53.51307588 2.6015625 55.609375 C0.9375 56.6875 0.9375 56.6875 -2 58 C-5.37452744 56.60364382 -7.11638118 55.1393647 -9 52 C-9.2475 50.700625 -9.2475 50.700625 -9.5 49.375 C-9.78722409 46.63634663 -9.78722409 46.63634663 -13 45 C-13.495 39.555 -13.495 39.555 -14 34 C-24.56 34 -35.12 34 -46 34 C-45.67 35.65 -45.34 37.3 -45 39 C-44.7290684 41.67100243 -44.49767336 44.32362766 -44.3125 47 C-44.25255859 47.69867188 -44.19261719 48.39734375 -44.13085938 49.1171875 C-43.84409598 53.28114913 -44.09593913 56.26483078 -46 60 C-49.465 60.495 -49.465 60.495 -53 61 C-56.30033208 55.32755423 -58.18422887 50.6371897 -57 44 C-56.34 43.34 -55.68 42.68 -55 42 C-54.92652344 43.33804688 -54.92652344 43.33804688 -54.8515625 44.703125 C-54.77679688 45.87359375 -54.70203125 47.0440625 -54.625 48.25 C-54.55539063 49.41015625 -54.48578125 50.5703125 -54.4140625 51.765625 C-54.03751692 54.70694334 -53.5225877 56.49949011 -52 59 C-50.35 59 -48.7 59 -47 59 C-46.8117693 50.29955884 -47.39739901 41.67314994 -48 33 C-44.4937557 31.8312519 -41.3522134 31.87485733 -37.70703125 31.90234375 C-36.64798836 31.90446617 -36.64798836 31.90446617 -35.56755066 31.90663147 C-33.31582374 31.91222236 -31.06419679 31.92477312 -28.8125 31.9375 C-27.28450665 31.94251618 -25.75651173 31.94707888 -24.22851562 31.95117188 C-20.48563865 31.9621888 -16.74283627 31.97944713 -13 32 C-12.60167969 33.03060547 -12.60167969 33.03060547 -12.1953125 34.08203125 C-11.84210938 34.98308594 -11.48890625 35.88414063 -11.125 36.8125 C-10.60292969 38.15248047 -10.60292969 38.15248047 -10.0703125 39.51953125 C-9.01167845 42.17711591 -9.01167845 42.17711591 -7 45 C-6.56261304 46.71444889 -6.19151312 48.44667784 -5.875 50.1875 C-5.62363281 51.53908203 -5.62363281 51.53908203 -5.3671875 52.91796875 C-5.24601562 53.60503906 -5.12484375 54.29210937 -5 55 C-1.535 53.02 -1.535 53.02 2 51 C2.05398987 48.72942623 2.09278742 46.45848712 2.125 44.1875 C2.14820313 42.92292969 2.17140625 41.65835938 2.1953125 40.35546875 C2.27581918 36.8661976 2.27581918 36.8661976 0 34 C0.26927976 31.37452239 0.71476992 29.47568557 2.07568359 27.20605469 C3.30696945 24.26735976 2.95641032 22.28678549 2.5390625 19.140625 C2.39726563 18.02558594 2.25546875 16.91054687 2.109375 15.76171875 C1.94953125 14.60285156 1.7896875 13.44398437 1.625 12.25 C1.47289062 11.07566406 1.32078125 9.90132812 1.1640625 8.69140625 C0.78698801 5.79264611 0.39857797 2.89586855 0 0 Z " fill="#B28F8F" transform="translate(113,55)"/>
	

	<path d="M0 0 C0.56976563 0.29519531 1.13953125 0.59039062 1.7265625 0.89453125 C3.95153286 2.01679969 3.95153286 2.01679969 6.1484375 2.82421875 C6.88320312 3.10910156 7.61796875 3.39398438 8.375 3.6875 C9.10460937 3.95949219 9.83421875 4.23148437 10.5859375 4.51171875 C13 6 13 6 19 13 C7.78 13.33 -3.44 13.66 -15 14 C-14.34 13.67 -13.68 13.34 -13 13 C-12.67 12.01 -12.34 11.02 -12 10 C-10.29296875 8.7890625 -10.29296875 8.7890625 -8.1875 7.625 C-4.65257954 5.53704878 -2.35043009 3.42771055 0 0 Z " fill="#6D222F" transform="translate(80,74)"/>
	

	<path d="M0 0 C0.80611725 0.02507126 1.6122345 0.05014252 2.44277954 0.07597351 C4.17765378 0.13068404 5.91238991 0.18992275 7.64697266 0.25320435 C12.1806596 0.4180815 16.71530203 0.54995135 21.25 0.68359375 C22.61206573 0.72482613 22.61206573 0.72482613 24.00164795 0.76689148 C36.32576497 1.12567409 48.6484261 1.07306164 60.9765625 0.9765625 C60.9765625 1.6365625 60.9765625 2.2965625 60.9765625 2.9765625 C43.54970194 4.64763132 26.34483331 3.7823368 8.91113281 2.75561523 C6.32119883 2.60466961 3.73096132 2.46025409 1.140625 2.31640625 C0.34806305 2.26749741 -0.4444989 2.21858856 -1.26107788 2.16819763 C-5.26635338 1.83225344 -5.26635338 1.83225344 -9.0234375 2.9765625 C-9.0234375 4.9565625 -9.0234375 6.9365625 -9.0234375 8.9765625 C-5.57224458 10.70215896 -1.58915135 10.07418995 2.20703125 10.0390625 C4.13517212 10.03050747 6.06331342 10.02204756 7.99145508 10.01367188 C9.50638046 10.00436646 9.50638046 10.00436646 11.0519104 9.99487305 C27.7227094 9.89678933 44.33222701 9.9209761 60.9765625 10.9765625 C60.9765625 11.3065625 60.9765625 11.6365625 60.9765625 11.9765625 C51.90152526 12.02287309 42.8265286 12.05842517 33.75139904 12.08018684 C29.53759275 12.09063058 25.32386723 12.10480049 21.11010742 12.12744141 C17.04470843 12.14914883 12.97938718 12.16112669 8.91393471 12.16631699 C7.36176644 12.17001653 5.8096025 12.17724069 4.25746727 12.18802261 C2.08585744 12.20250976 -0.08542981 12.20454163 -2.25708008 12.20361328 C-3.49396072 12.2080545 -4.73084137 12.21249573 -6.00520325 12.21707153 C-9.0234375 11.9765625 -9.0234375 11.9765625 -12.0234375 9.9765625 C-11.53515625 3.921875 -11.53515625 3.921875 -11.0234375 1.9765625 C-7.23007514 -0.55234574 -4.37079968 -0.18337596 0 0 Z " fill="#F4E5E3" transform="translate(29.0234375,50.0234375)"/>
	

	

	

	<path d="M0 0 C26.40355614 -0.29531638 52.64051751 0.46884514 79 2 C79 2.66 79 3.32 79 4 C63.90626972 4.13436555 48.8502307 3.87354976 33.76470947 3.42852783 C22.17307562 3.08814255 10.59755113 2.85721209 -1 3 C-0.67 2.01 -0.34 1.02 0 0 Z " fill="#EFD6D4" transform="translate(19,15)"/>
	

	

	

	

	

	

	

	

	

	

	

	

	

	

	

	

	

	

	

	

	

	

	

	

	

	

	

	

	

	

	

</svg>
