<?xml version="1.0" encoding="iso-8859-1"?>
<svg height="128" version="1.1" width="128" xmlns="http://www.w3.org/2000/svg">
	

	<path d="M0 0 C42.24 0 84.48 0 128 0 C128 42.24 128 84.48 128 128 C85.76 128 43.52 128 0 128 C0 85.76 0 43.52 0 0 Z " fill="#050505" transform="translate(0,0)"/>
	

	<path d="M0 0 C1.07830078 0.0501123 2.15660156 0.10022461 3.26757812 0.15185547 C4.470354 0.19930908 5.67312988 0.2467627 6.91235352 0.2956543 C8.19489014 0.36937256 9.47742676 0.44309082 10.79882812 0.51904297 C12.10134521 0.5818042 13.4038623 0.64456543 14.74584961 0.70922852 C18.5992289 0.90830749 22.44850132 1.14321234 26.29882812 1.39404297 C27.34184082 1.45897949 28.38485352 1.52391602 29.45947266 1.59082031 C32.09687315 1.76700935 34.72824578 1.97530161 37.36132812 2.20654297 C38.50021484 2.29282959 38.50021484 2.29282959 39.66210938 2.38085938 C42.84102329 2.7127321 45.02233547 3.2031856 47.66992188 5.03076172 C52.08869766 11.44169541 52.30000317 20.1306481 53.36132812 27.64404297 C53.53688232 28.88444336 53.71243652 30.12484375 53.89331055 31.40283203 C54.88105232 38.63971489 55.71740882 45.84946158 56.11132812 53.14404297 C56.15201416 53.87397461 56.1927002 54.60390625 56.23461914 55.35595703 C56.42767507 60.16265573 55.99502906 64.65349918 55.29882812 69.39404297 C55.9253125 69.37083984 56.55179687 69.34763672 57.19726562 69.32373047 C58.01453125 69.30568359 58.83179687 69.28763672 59.67382812 69.26904297 C60.4859375 69.24583984 61.29804687 69.22263672 62.13476562 69.19873047 C64.29882812 69.39404297 64.29882812 69.39404297 66.29882812 71.39404297 C66.54882812 74.89404297 66.54882812 74.89404297 66.29882812 78.39404297 C64.29882812 80.39404297 64.29882812 80.39404297 61.47314453 80.56103516 C59.70463135 80.50157715 59.70463135 80.50157715 57.90039062 80.44091797 C56.61648437 80.39837891 55.33257812 80.35583984 54.00976562 80.31201172 C53.33913086 80.28413574 52.66849609 80.25625977 51.97753906 80.22753906 C49.93902521 80.14466082 47.9006384 80.08260989 45.86132812 80.02294922 C34.92986389 79.61767449 34.92986389 79.61767449 31.29882812 77.39404297 C31.62882812 75.74404297 31.95882812 74.09404297 32.29882812 72.39404297 C33.75656343 72.05810397 35.21503919 71.72537673 36.67382812 71.39404297 C37.4859375 71.20841797 38.29804687 71.02279297 39.13476562 70.83154297 C41.29882813 70.39404297 41.29882813 70.39404297 43.29882812 70.39404297 C43.47248971 68.93652606 43.63722653 67.47794626 43.79882812 66.01904297 C43.89164062 65.20693359 43.98445313 64.39482422 44.08007812 63.55810547 C44.68479229 54.81134705 43.91933576 46.71296533 42.42382812 38.08154297 C42.0506408 35.87594758 41.67823719 33.67021943 41.30664062 31.46435547 C41.12907227 30.41795898 40.95150391 29.3715625 40.76855469 28.29345703 C40.37226391 25.84732953 40.02563494 23.40841232 39.72851562 20.94873047 C39.58671875 19.79630859 39.44492188 18.64388672 39.29882812 17.45654297 C39.14414063 16.01988281 39.14414063 16.01988281 38.98632812 14.55419922 C38.49507135 12.26610674 38.49507135 12.26610674 36.51757812 11.11669922 C26.27354198 7.78017336 13.95099035 9.30014536 3.29882812 9.39404297 C3.88057658 14.70272787 3.88057658 14.70272787 6.29882812 19.39404297 C6.75510733 21.97117551 7.12828089 24.48702582 7.42382812 27.08154297 C7.51019531 27.7834375 7.5965625 28.48533203 7.68554688 29.20849609 C7.89709687 30.93615442 8.09891413 32.66499957 8.29882812 34.39404297 C6.97882812 34.39404297 5.65882812 34.39404297 4.29882812 34.39404297 C2.81445312 32.86279297 2.81445312 32.86279297 1.54882812 30.89404297 C1.12085937 30.24435547 0.69289063 29.59466797 0.25195312 28.92529297 C-0.06257813 28.41998047 -0.37710938 27.91466797 -0.70117188 27.39404297 C-3.09240138 27.18269767 -3.09240138 27.18269767 -5.70117188 28.39404297 C-8.2467917 32.15713314 -9.67095426 35.91337973 -9.76367188 40.45654297 C-7.64043822 46.32665954 -4.79218466 50.75760527 0.29882812 54.39404297 C1.04882812 56.58154297 1.04882812 56.58154297 1.29882812 58.39404297 C4.9863757 57.89572573 6.90373474 57.29336654 9.29882812 54.39404297 C9.95882812 54.72404297 10.61882813 55.05404297 11.29882812 55.39404297 C11.03265702 61.38289279 10.4764241 65.764815 6.29882812 70.39404297 C3.54882813 72.20654297 3.54882813 72.20654297 0.29882812 72.39404297 C-2.80419771 70.48257906 -5.20310767 68.02809051 -7.70117188 65.39404297 C-8.21679688 64.87455078 -8.73242188 64.35505859 -9.26367188 63.81982422 C-12.6447435 60.17230945 -15.38074213 56.06175631 -18.07617188 51.89404297 C-18.76453125 50.83185547 -19.45289063 49.76966797 -20.16210938 48.67529297 C-22.41102587 43.88064866 -22.30520835 39.40665696 -20.70117188 34.39404297 C-20.04117187 34.39404297 -19.38117187 34.39404297 -18.70117188 34.39404297 C-18.41242187 33.65154297 -18.12367187 32.90904297 -17.82617188 32.14404297 C-17.45492188 31.23654297 -17.08367188 30.32904297 -16.70117188 29.39404297 C-16.29898437 28.28029297 -16.29898437 28.28029297 -15.88867188 27.14404297 C-14.21467277 24.67709693 -12.53909695 24.96162798 -9.70117188 24.39404297 C-6.19907441 19.49110652 -6.48286233 12.80453819 -6.17773438 7.01513672 C-5.4362804 2.93713985 -4.28670242 0.62533783 0 0 Z " fill="#A7ABAD" transform="translate(36.701171875,20.60595703125)"/>
	

	<path d="M0 0 C0.76022461 0.00410889 1.52044922 0.00821777 2.30371094 0.01245117 C19.97074613 0.18642769 19.97074613 0.18642769 25 4.125 C25.78515625 6.3828125 25.78515625 6.3828125 26.0625 9.25 C26.26166016 10.96509766 26.26166016 10.96509766 26.46484375 12.71484375 C26.5407373 13.3888623 26.61663086 14.06288086 26.69482422 14.75732422 C27.05901259 17.5828433 27.52692851 20.38272952 28.00390625 23.19140625 C28.18751709 24.27856934 28.37112793 25.36573242 28.56030273 26.48583984 C28.92980216 28.66257967 29.30287039 30.83871746 29.67993164 33.01416016 C31.37402645 43.27824005 31.31717364 51.98736532 29 62.125 C25.37 63.115 21.74 64.105 18 65.125 C18 66.445 18 67.765 18 69.125 C23.02190465 70.79896822 28.29921247 70.5136786 33.56152344 70.68261719 C35.62466894 70.74998919 37.68725446 70.82766922 39.75 70.90625 C41.04164062 70.95007813 42.33328125 70.99390625 43.6640625 71.0390625 C44.85467285 71.0798291 46.0452832 71.1205957 47.27197266 71.16259766 C49.91414824 71.4432835 49.91414824 71.4432835 51 70.125 C51.16666667 66.625 51.16666667 66.625 51 63.125 C49.41727399 61.54227399 47.61965997 61.77764253 45.4375 61.5625 C44.61121094 61.47871094 43.78492187 61.39492187 42.93359375 61.30859375 C42.29550781 61.24800781 41.65742187 61.18742187 41 61.125 C41 60.135 41 59.145 41 58.125 C42.41623216 58.07052953 43.83308191 58.03199492 45.25 58 C46.03890625 57.97679687 46.8278125 57.95359375 47.640625 57.9296875 C50.20731941 58.1421622 51.7916067 58.83845895 54 60.125 C54.05406122 62.06219378 54.09282025 63.99981921 54.125 65.9375 C54.14820312 67.01644531 54.17140625 68.09539062 54.1953125 69.20703125 C54 72.125 54 72.125 52 75.125 C51.15211914 75.03303345 51.15211914 75.03303345 50.28710938 74.93920898 C45.33104656 74.420724 40.37819412 73.99580579 35.40625 73.66015625 C33.70855469 73.54317383 33.70855469 73.54317383 31.9765625 73.42382812 C29.62800455 73.26417896 27.27902108 73.11068787 24.9296875 72.96289062 C23.80820313 72.88361328 22.68671875 72.80433594 21.53125 72.72265625 C20.51611328 72.65570557 19.50097656 72.58875488 18.45507812 72.51977539 C16 72.125 16 72.125 14 70.125 C14.45454545 64.67045455 14.45454545 64.67045455 17 62.125 C19.32173505 61.54989132 21.64438348 61.1740056 24.00390625 60.78515625 C24.66261719 60.56730469 25.32132813 60.34945312 26 60.125 C29.39193758 49.94918727 27.53697912 36.21098115 24.7265625 26.125 C23.67364424 21.77746655 23.49249101 17.45811547 23.30859375 13 C22.99170393 10.04771002 22.23043927 7.8131886 21 5.125 C14.47809091 4.33547082 7.99915918 3.85616193 1.4375 3.5625 C0.52419922 3.51931641 -0.38910156 3.47613281 -1.33007812 3.43164062 C-3.55327991 3.32688243 -5.77656707 3.22470983 -8 3.125 C-7.5359375 4.42824219 -7.5359375 4.42824219 -7.0625 5.7578125 C-6.08049349 8.86990667 -5.47850061 11.7786655 -5 15 C-4.45437781 18.56414493 -3.81156384 21.93172241 -2.75 25.375 C-1.813233 30.05883499 -2.55364207 32.62521978 -4 37.125 C-4.66 37.125 -5.32 37.125 -6 37.125 C-7.40234375 35.33203125 -7.40234375 35.33203125 -8.9375 32.9375 C-9.46988281 32.11894531 -10.00226562 31.30039062 -10.55078125 30.45703125 C-11.63366064 28.71450026 -12.64785988 26.928951 -13.625 25.125 C-14.83295089 22.9688112 -14.83295089 22.9688112 -17.0625 22.3125 C-19.0073581 22.09289194 -19.0073581 22.09289194 -21 22.125 C-21.82839911 31.19136801 -20.64112107 36.05190204 -15 43.125 C-14.443125 44.115 -13.88625 45.105 -13.3125 46.125 C-12.08907387 48.43955554 -12.08907387 48.43955554 -9 49.125 C-8.34 46.155 -7.68 43.185 -7 40.125 C-3 42.125 -3 42.125 -1 45.125 C-0.63996365 50.52554521 -0.89514946 55.0542237 -3 60.125 C-6.76133281 64.05730248 -9.55707242 65.73621946 -15 66.125 C-15.33 65.135 -15.66 64.145 -16 63.125 C-14.9275 63.08375 -13.855 63.0425 -12.75 63 C-8.88235213 62.4597044 -8.88235213 62.4597044 -6.625 59.625 C-4.66802003 55.40996621 -4.20444498 51.72501214 -4 47.125 C-4.99 47.125 -5.98 47.125 -7 47.125 C-7.66 48.445 -8.32 49.765 -9 51.125 C-11.375 50.9375 -11.375 50.9375 -14 50.125 C-14.72904086 48.48465807 -15.38655243 46.81198082 -16 45.125 C-16.78375 44.34125 -17.5675 43.5575 -18.375 42.75 C-21.53601555 39.58898445 -23.16556865 37.217193 -25 33.125 C-24.8979964 27.31079469 -23.15273293 22.27773293 -19 18.125 C-16.6875 18.0625 -16.6875 18.0625 -14 19.125 C-12.53058014 20.87990715 -11.31575103 22.68223694 -10.11328125 24.62890625 C-9.74589844 25.12261719 -9.37851562 25.61632812 -9 26.125 C-8.34 26.125 -7.68 26.125 -7 26.125 C-7.25707735 23.74779061 -7.53017068 21.37423394 -7.8125 19 C-7.88275391 18.33484375 -7.95300781 17.6696875 -8.02539062 16.984375 C-8.57978027 12.46055553 -9.86485029 9.11884754 -12 5.125 C-11.875 2.8125 -11.875 2.8125 -11 1.125 C-7.29433404 -0.11022199 -3.85799817 -0.02470928 0 0 Z " fill="#4D4E4F" transform="translate(51,28.875)"/>
	

	<path d="M0 0 C1.10738525 0.04108887 2.21477051 0.08217773 3.35571289 0.12451172 C4.5389917 0.1813916 5.72227051 0.23827148 6.94140625 0.296875 C8.14595459 0.3498877 9.35050293 0.40290039 10.59155273 0.45751953 C18.09305787 0.8142845 25.58536627 1.25974953 33.06640625 1.921875 C33.897771 1.98793945 34.72913574 2.05400391 35.58569336 2.12207031 C37.8828125 2.3515625 37.8828125 2.3515625 41.50390625 3.046875 C46.49364537 10.53148368 45.78528916 22.40864759 46.07446289 31.27197266 C46.24298252 35.32316541 46.93150726 38.34137661 48.50390625 42.046875 C49.80383302 50.96241049 49.62517613 60.05942948 49.50390625 69.046875 C50.14199219 68.96308594 50.78007813 68.87929687 51.4375 68.79296875 C52.26378906 68.69113281 53.09007812 68.58929688 53.94140625 68.484375 C54.76511719 68.37996094 55.58882813 68.27554688 56.4375 68.16796875 C57.46037109 68.10802734 57.46037109 68.10802734 58.50390625 68.046875 C59.50390625 69.046875 59.50390625 69.046875 59.56640625 71.609375 C59.54578125 72.41375 59.52515625 73.218125 59.50390625 74.046875 C55.98086227 76.24315561 53.30320368 76.21665318 49.20703125 76.0234375 C48.00175781 75.971875 46.79648438 75.9203125 45.5546875 75.8671875 C44.30042969 75.80273438 43.04617187 75.73828125 41.75390625 75.671875 C40.48417969 75.61515625 39.21445313 75.5584375 37.90625 75.5 C34.7715601 75.35858542 31.63767789 75.20717509 28.50390625 75.046875 C29.35498047 73.09863281 29.35498047 73.09863281 30.50390625 71.046875 C32.88671875 70.21875 32.88671875 70.21875 35.62890625 69.796875 C36.53898437 69.64734375 37.4490625 69.4978125 38.38671875 69.34375 C39.08539063 69.24578125 39.7840625 69.1478125 40.50390625 69.046875 C40.70886719 68.34820312 40.91382813 67.64953125 41.125 66.9296875 C41.39441406 66.01960938 41.66382813 65.10953125 41.94140625 64.171875 C42.20824219 63.26695313 42.47507813 62.36203125 42.75 61.4296875 C43.50390625 59.046875 43.50390625 59.046875 44.50390625 57.046875 C44.58699263 55.67139344 44.61126641 54.29201704 44.6015625 52.9140625 C44.59833984 52.10839844 44.59511719 51.30273438 44.59179688 50.47265625 C44.58341797 49.63089844 44.57503906 48.78914063 44.56640625 47.921875 C44.56189453 47.07238281 44.55738281 46.22289062 44.55273438 45.34765625 C44.54093499 43.24736591 44.52299931 41.1471117 44.50390625 39.046875 C43.51390625 38.716875 42.52390625 38.386875 41.50390625 38.046875 C39.78045444 33.89631355 40.16137507 28.90028902 39.98632812 24.44726562 C39.79562328 20.8238735 39.56598717 19.13999638 37.50390625 16.046875 C36.95596725 13.05388743 36.76798351 10.08376351 36.50390625 7.046875 C30.89390625 6.716875 25.28390625 6.386875 19.50390625 6.046875 C19.50390625 5.386875 19.50390625 4.726875 19.50390625 4.046875 C15.85773954 4.18504459 12.21207551 4.33369034 8.56640625 4.484375 C7.0050293 4.54334961 7.0050293 4.54334961 5.41210938 4.60351562 C3.92807617 4.66635742 3.92807617 4.66635742 2.4140625 4.73046875 C1.49761963 4.76712646 0.58117676 4.80378418 -0.36303711 4.84155273 C-2.47816655 4.81691364 -2.47816655 4.81691364 -3.49609375 6.046875 C-3.64085308 9.8829972 -3.67270883 13.36995287 -2.49609375 17.046875 C-4.14609375 17.706875 -5.79609375 18.366875 -7.49609375 19.046875 C-8.94003759 13.11596519 -10.11487236 8.02390371 -8.49609375 2.046875 C-5.05984655 -0.24395647 -4.0135247 -0.16099912 0 0 Z " fill="#E8ECED" transform="translate(41.49609375,22.953125)"/>
	

	<path d="M0 0 C1.98 0 3.96 0 6 0 C5.52449439 1.48034764 5.04448784 2.95925021 4.5625 4.4375 C4.29566406 5.26121094 4.02882813 6.08492187 3.75390625 6.93359375 C3 9 3 9 2 10 C1.59396208 14.22279441 1.5010029 16.29828533 4 19.8125 C4.99 20.8953125 4.99 20.8953125 6 22 C6 22.66 6 23.32 6 24 C6.7425 24.268125 7.485 24.53625 8.25 24.8125 C10.92992208 25.96973908 12.8649052 27.01741197 15 29 C15.75 31.1875 15.75 31.1875 16 33 C19.68754757 32.50168276 21.60490662 31.89932357 24 29 C24.66 29.33 25.32 29.66 26 30 C25.7338289 35.98884982 25.17759598 40.37077203 21 45 C18.25 46.8125 18.25 46.8125 15 47 C11.89697417 45.08853609 9.4980642 42.63404754 7 40 C6.484375 39.48050781 5.96875 38.96101563 5.4375 38.42578125 C2.05642837 34.77826648 -0.67957025 30.66771334 -3.375 26.5 C-4.06335938 25.4378125 -4.75171875 24.375625 -5.4609375 23.28125 C-7.709854 18.48660569 -7.60403648 14.01261399 -6 9 C-5.34 9 -4.68 9 -4 9 C-3.71125 8.2575 -3.4225 7.515 -3.125 6.75 C-2.17697356 4.43260203 -1.15154089 2.22082885 0 0 Z " fill="#E8ECED" transform="translate(22,46)"/>
	

	<path d="M0 0 C28.90934569 -0.56856504 28.90934569 -0.56856504 42.0625 1.1875 C43.32549927 1.33892456 43.32549927 1.33892456 44.61401367 1.4934082 C49.85232029 2.29750806 52.72377953 3.56709864 56 8 C57.07421875 10.9453125 57.07421875 10.9453125 57.6875 14.125 C57.89761719 15.15882812 58.10773438 16.19265625 58.32421875 17.2578125 C58.65873047 19.11019531 58.65873047 19.11019531 59 21 C59.24943359 22.11870483 59.24943359 22.11870483 59.50390625 23.26000977 C61.34731473 32.02872322 61.44559998 40.76515226 61.625 49.6875 C61.66327461 51.27540981 61.70233147 52.86330097 61.7421875 54.45117188 C61.83713316 58.30062588 61.92152982 62.15017636 62 66 C61.34 66 60.68 66 60 66 C59.98582031 64.79472656 59.97164063 63.58945313 59.95703125 62.34765625 C59.67374259 50.22787976 58.38663675 38.40606571 56.5625 26.4375 C56.45322174 25.70854523 56.34394348 24.97959045 56.23135376 24.22854614 C55.91385312 22.12883263 55.58623557 20.03100678 55.25390625 17.93359375 C55.06127197 16.71728271 54.8686377 15.50097168 54.67016602 14.24780273 C54.05963987 11.28903069 53.22713144 8.75170003 52 6 C39.79042365 4.62558867 27.58916223 3.71060779 15.3125 3.1875 C14.02964111 3.12248291 12.74678223 3.05746582 11.42504883 2.99047852 C10.22904053 2.94592529 9.03303223 2.90137207 7.80078125 2.85546875 C6.19456909 2.78815552 6.19456909 2.78815552 4.5559082 2.71948242 C3.29073364 2.85833862 3.29073364 2.85833862 2 3 C-0.15982473 6.2397371 -0.31882352 7.59023762 -0.5625 11.375 C-1.29985229 22.29985229 -1.29985229 22.29985229 -5 26 C-5.845625 26.144375 -6.69125 26.28875 -7.5625 26.4375 C-8.366875 26.623125 -9.17125 26.80875 -10 27 C-11.27587495 29.3140387 -11.27587495 29.3140387 -12 32 C-12.65213539 33.34050052 -13.31379969 34.67661368 -14 36 C-14.66 36 -15.32 36 -16 36 C-17.64767877 44.64115975 -14.78742503 50.17218672 -10.21191406 57.19921875 C-6.39132708 62.78087855 -2.11473717 67.55240246 3 72 C-1.46207827 72 -3.23802694 69.69169011 -6.4453125 66.7578125 C-12.03440958 60.72432238 -18.98930514 52.10722481 -21 44 C-20.42578125 40.7734375 -20.42578125 40.7734375 -19.3125 37.375 C-18.95800781 36.24835937 -18.60351562 35.12171875 -18.23828125 33.9609375 C-17.09596235 31.22946201 -16.34959444 29.74824705 -14 28 C-13.34 28 -12.68 28 -12 28 C-11.67 27.01 -11.34 26.02 -11 25 C-8.4375 23.8125 -8.4375 23.8125 -6 23 C-5.855625 22.030625 -5.71125 21.06125 -5.5625 20.0625 C-5.46710937 19.42441406 -5.37171875 18.78632812 -5.2734375 18.12890625 C-5.08778368 16.68345866 -4.9486717 15.23142624 -4.8515625 13.77734375 C-4.79742188 13.02582031 -4.74328125 12.27429687 -4.6875 11.5 C-4.65011719 10.8090625 -4.61273437 10.118125 -4.57421875 9.40625 C-3.72332313 5.84059217 -1.90151415 3.12744043 0 0 Z " fill="#434445" transform="translate(32,19)"/>
	

	<path d="M0 0 C0.33 0 0.66 0 1 0 C1 2.31 1 4.62 1 7 C0.01 7.33 -0.98 7.66 -2 8 C-2 11.3 -2 14.6 -2 18 C-1.01 18 -0.02 18 1 18 C1.33 20.31 1.66 22.62 2 25 C2.99 25 3.98 25 5 25 C5 26.65 5 28.3 5 30 C5.639375 29.814375 6.27875 29.62875 6.9375 29.4375 C7.618125 29.293125 8.29875 29.14875 9 29 C10 30 10 30 10.375 33.375 C11.00490055 37.0284232 11.2953038 37.76568575 14 40 C14 40.66 14 41.32 14 42 C16.37374861 42.33425735 16.37374861 42.33425735 19 42 C21.42082645 39.57917355 22.40269644 37.34489996 23 34 C21.741875 33.95875 20.48375 33.9175 19.1875 33.875 C16.97265625 33.6171875 16.97265625 33.6171875 15 33 C13.125 30 13.125 30 12 27 C11.34 26.67 10.68 26.34 10 26 C10.33 25.01 10.66 24.02 11 23 C15.8 26.44615385 15.8 26.44615385 16.8125 29.25 C16.874375 29.8275 16.93625 30.405 17 31 C20.68754757 30.50168276 22.60490662 29.89932357 25 27 C25.66 27.33 26.32 27.66 27 28 C26.7338289 33.98884982 26.17759598 38.37077203 22 43 C19.25 44.8125 19.25 44.8125 16 45 C12.89697417 43.08853609 10.4980642 40.63404754 8 38 C7.484375 37.48050781 6.96875 36.96101563 6.4375 36.42578125 C3.05642837 32.77826648 0.32042975 28.66771334 -2.375 24.5 C-3.06335938 23.4378125 -3.75171875 22.375625 -4.4609375 21.28125 C-6.709854 16.48660569 -6.60403648 12.01261399 -5 7 C-4.34 7 -3.68 7 -3 7 C-2.690625 6.21625 -2.38125 5.4325 -2.0625 4.625 C-1 2 -1 2 0 0 Z " fill="#B1B6B8" transform="translate(21,48)"/>
	

	<path d="M0 0 C0.33 0 0.66 0 1 0 C1.68789152 13.94891138 1.68789152 13.94891138 -0.6875 17.8125 C-3.28530951 20.26988737 -4.59457193 20.3726843 -8 21 C-9.27587495 23.3140387 -9.27587495 23.3140387 -10 26 C-10.65213539 27.34050052 -11.31379969 28.67661368 -12 30 C-12.66 30 -13.32 30 -14 30 C-15.64767877 38.64115975 -12.78742503 44.17218672 -8.21191406 51.19921875 C-4.39132708 56.78087855 -0.11473717 61.55240246 5 66 C0.53792173 66 -1.23802694 63.69169011 -4.4453125 60.7578125 C-10.03440958 54.72432238 -16.98930514 46.10722481 -19 38 C-18.42578125 34.7734375 -18.42578125 34.7734375 -17.3125 31.375 C-16.95800781 30.24835937 -16.60351562 29.12171875 -16.23828125 27.9609375 C-15.09596235 25.22946201 -14.34959444 23.74824705 -12 22 C-11.34 22 -10.68 22 -10 22 C-9.67 21.01 -9.34 20.02 -9 19 C-7.03384339 17.9349985 -5.03273074 16.93166826 -3 16 C-1.21852702 14.21852702 -1.662239 11.54120228 -1.5 9.125 C-1.27652749 5.81281812 -1.05207935 3.15623804 0 0 Z " fill="#535456" transform="translate(30,25)"/>
	

	<path d="M0 0 C2.97 0.495 2.97 0.495 6 1 C6.20496094 1.78246094 6.40992187 2.56492187 6.62109375 3.37109375 C6.89050781 4.38300781 7.15992187 5.39492188 7.4375 6.4375 C7.70433594 7.44683594 7.97117187 8.45617187 8.24609375 9.49609375 C8.75978077 11.91752001 8.75978077 11.91752001 10 13 C10.23727795 16.12227655 10.39553656 19.23680294 10.51757812 22.36523438 C10.70614122 26.00485795 10.89990709 28.95147803 13 32 C13.66 32.33 14.32 32.66 15 33 C15.05401695 35.91691525 15.09368066 38.83282724 15.125 41.75 C15.14175781 42.575 15.15851563 43.4 15.17578125 44.25 C15.18222656 45.04921875 15.18867187 45.8484375 15.1953125 46.671875 C15.20578613 47.4050293 15.21625977 48.13818359 15.22705078 48.89355469 C14.96777544 51.29896076 14.19225925 52.91251494 13 55 C12.34 55 11.68 55 11 55 C11.03335449 54.2769165 11.06670898 53.55383301 11.10107422 52.80883789 C11.3312709 43.58881753 10.12758628 34.91822485 8.54638672 25.8581543 C8.12056902 23.41204624 7.71349827 20.96331988 7.30859375 18.51367188 C7.04274979 16.94512854 6.77586143 15.37676178 6.5078125 13.80859375 C6.3868924 13.08256454 6.26597229 12.35653534 6.14138794 11.60850525 C5.25381828 6.54807334 5.25381828 6.54807334 3 2 C2.01 1.34 1.02 0.68 0 0 Z " fill="#C3C8CA" transform="translate(72,29)"/>
	

	<path d="M0 0 C1.0835376 0.03963867 2.1670752 0.07927734 3.28344727 0.12011719 C4.48960693 0.16136719 5.6957666 0.20261719 6.93847656 0.24511719 C8.22923096 0.30183594 9.51998535 0.35855469 10.84985352 0.41699219 C12.15543213 0.46855469 13.46101074 0.52011719 14.80615234 0.57324219 C42.63735984 1.77949535 42.63735984 1.77949535 47.41235352 4.16699219 C47.08235352 4.82699219 46.75235352 5.48699219 46.41235352 6.16699219 C45.2818457 6.03421875 44.15133789 5.90144531 42.98657227 5.76464844 C32.59692423 4.60525568 22.23467332 3.88026668 11.78735352 3.47949219 C10.59585693 3.43123291 9.40436035 3.38297363 8.17675781 3.33325195 C7.06598877 3.29514404 5.95521973 3.25703613 4.81079102 3.21777344 C3.81740723 3.18337158 2.82402344 3.14896973 1.80053711 3.11352539 C-0.60413252 2.99728433 -0.60413252 2.99728433 -2.58764648 4.16699219 C-3.01088831 6.6829297 -3.33661238 9.13340727 -3.58764648 11.66699219 C-3.83868059 14.20057711 -4.16440466 16.65105467 -4.58764648 19.16699219 C-5.24764648 19.49699219 -5.90764648 19.82699219 -6.58764648 20.16699219 C-6.79493282 13.79869528 -6.88508429 8.16585758 -4.58764648 2.16699219 C-2.58764648 0.16699219 -2.58764648 0.16699219 0 0 Z " fill="#A9AEB0" transform="translate(36.587646484375,20.8330078125)"/>
	

	<path d="M0 0 C4 2 4 2 6 5 C6.36003635 10.40054521 6.10485054 14.9292237 4 20 C0.23866719 23.93230248 -2.55707242 25.61121946 -8 26 C-8.33 25.01 -8.66 24.02 -9 23 C-7.9275 22.95875 -6.855 22.9175 -5.75 22.875 C-1.88235213 22.3347044 -1.88235213 22.3347044 0.375 19.5 C2.33197997 15.28496621 2.79555502 11.60001214 3 7 C2.01 7 1.02 7 0 7 C-0.66 8.32 -1.32 9.64 -2 11 C-4.375 10.8125 -4.375 10.8125 -7 10 C-8.1875 7.5 -8.1875 7.5 -9 5 C-9.66 4.67 -10.32 4.34 -11 4 C-10.67 3.01 -10.34 2.02 -10 1 C-7.47411298 3.36292656 -6.11179163 4.66462511 -5 8 C-4.01 8.33 -3.02 8.66 -2 9 C-1.34 6.03 -0.68 3.06 0 0 Z " fill="#3D3D3E" transform="translate(44,69)"/>
	

	<path d="M0 0 C1.8984375 0.62890625 1.8984375 0.62890625 4 2 C4.9765625 4.65234375 4.9765625 4.65234375 5.625 7.9375 C5.84414062 8.99839844 6.06328125 10.05929688 6.2890625 11.15234375 C6.52367188 12.42207031 6.75828125 13.69179688 7 15 C7.16773926 15.75015381 7.33547852 16.50030762 7.50830078 17.27319336 C9.34993727 26.03641106 9.44571386 34.77081596 9.625 43.6875 C9.66327461 45.27540981 9.70233147 46.86330097 9.7421875 48.45117188 C9.83713316 52.30062588 9.92152982 56.15017636 10 60 C9.34 60 8.68 60 8 60 C7.98582031 58.79472656 7.97164063 57.58945313 7.95703125 56.34765625 C7.67374259 44.22787976 6.38663675 32.40606571 4.5625 20.4375 C4.45322174 19.70854523 4.34394348 18.97959045 4.23135376 18.22854614 C3.91385312 16.12883263 3.58623557 14.03100678 3.25390625 11.93359375 C2.96495483 10.1091272 2.96495483 10.1091272 2.67016602 8.24780273 C2.05963987 5.28903069 1.22713144 2.75170003 0 0 Z " fill="#424344" transform="translate(84,25)"/>
	

	<path d="M0 0 C1.25541557 3.76624671 0.37061958 5.37188934 -1 9 C-1.69867188 9.10957031 -2.39734375 9.21914062 -3.1171875 9.33203125 C-4.02726562 9.49058594 -4.93734375 9.64914063 -5.875 9.8125 C-6.77992187 9.96332031 -7.68484375 10.11414063 -8.6171875 10.26953125 C-11.34412478 10.83051301 -11.34412478 10.83051301 -13 14 C-9.04900072 14.0246985 -5.09803126 14.04285923 -1.14697266 14.05493164 C0.85906551 14.06244036 2.86508202 14.0751447 4.87109375 14.08789062 C6.12792969 14.09111328 7.38476562 14.09433594 8.6796875 14.09765625 C9.84226074 14.10289307 11.00483398 14.10812988 12.20263672 14.11352539 C14.95502192 14.19356283 14.95502192 14.19356283 17 13 C18.13350534 10.98330173 18.13350534 10.98330173 19 9 C19.125 11.375 19.125 11.375 19 14 C16.2521081 16.7478919 14.66166877 16.25800434 10.8203125 16.265625 C9.58152344 16.26820312 8.34273437 16.27078125 7.06640625 16.2734375 C5.76574219 16.26570313 4.46507812 16.25796875 3.125 16.25 C1.83207031 16.25773437 0.53914063 16.26546875 -0.79296875 16.2734375 C-2.65501953 16.26957031 -2.65501953 16.26957031 -4.5546875 16.265625 C-6.26374268 16.26224121 -6.26374268 16.26224121 -8.00732422 16.25878906 C-10.89552373 16.0090345 -12.55823831 15.50342649 -15 14 C-14.67 12.35 -14.34 10.7 -14 9 C-13.15695313 8.85304688 -12.31390625 8.70609375 -11.4453125 8.5546875 C-8.17758584 7.88576463 -5.1195621 7.18612876 -2 6 C-0.07717996 3.00365304 -0.07717996 3.00365304 0 0 Z " fill="#B1B6B8" transform="translate(83,84)"/>
	

	<path d="M0 0 C0 0.33 0 0.66 0 1 C-6.6 1 -13.2 1 -20 1 C-19.34 2.98 -18.68 4.96 -18 7 C-17.62543361 8.95086662 -17.2918744 10.91005983 -17 12.875 C-16.45437781 16.43914493 -15.81156384 19.80672241 -14.75 23.25 C-13.813233 27.93383499 -14.55364207 30.50021978 -16 35 C-16.66 35 -17.32 35 -18 35 C-19.54296875 33.13671875 -19.54296875 33.13671875 -21.1875 30.6875 C-21.73792969 29.88699219 -22.28835937 29.08648437 -22.85546875 28.26171875 C-23.23316406 27.51535156 -23.61085937 26.76898438 -24 26 C-23.67 25.01 -23.34 24.02 -23 23 C-22.566875 23.66 -22.13375 24.32 -21.6875 25 C-20.8521875 25.99 -20.8521875 25.99 -20 27 C-19.01 27 -18.02 27 -17 27 C-17.31855628 24.66392064 -17.65406696 22.33213288 -18 20 C-18.14566406 18.9996875 -18.29132812 17.999375 -18.44140625 16.96875 C-18.60511719 15.9065625 -18.76882812 14.844375 -18.9375 13.75 C-19.09089844 12.73421875 -19.24429688 11.7184375 -19.40234375 10.671875 C-19.87805671 7.79324545 -19.87805671 7.79324545 -22 5 C-21.625 2.3125 -21.625 2.3125 -21 0 C-6.21867882 -1.33257403 -6.21867882 -1.33257403 0 0 Z " fill="#303031" transform="translate(63,31)"/>
	

	<path d="M0 0 C5.78461538 3.44615385 5.78461538 3.44615385 6.875 6.25 C6.91625 6.8275 6.9575 7.405 7 8 C10.68754757 7.50168276 12.60490662 6.89932357 15 4 C15.66 4.33 16.32 4.66 17 5 C16.91253716 6.43861294 16.80434652 7.87597508 16.6875 9.3125 C16.62949219 10.11300781 16.57148437 10.91351563 16.51171875 11.73828125 C15.91793306 14.36272334 15.04219706 15.30820672 13 17 C11.75453595 14.50907189 12.2232422 13.58919267 13 11 C11.1128125 10.938125 11.1128125 10.938125 9.1875 10.875 C6.97265625 10.6171875 6.97265625 10.6171875 5 10 C3.125 7 3.125 7 2 4 C1.34 3.67 0.68 3.34 0 3 C0 2.01 0 1.02 0 0 Z " fill="#B1B6B8" transform="translate(31,71)"/>
	

	<path d="M0 0 C2.75573665 1.97054046 3.03543498 3.17338506 3.73046875 6.57421875 C3.89587685 7.94379783 4.04782105 9.31505821 4.1875 10.6875 C4.26935547 11.38939453 4.35121094 12.09128906 4.43554688 12.81445312 C4.63529273 14.54166726 4.81919988 16.27070003 5 18 C3.68 18 2.36 18 1 18 C-0.484375 16.46875 -0.484375 16.46875 -1.75 14.5 C-2.17796875 13.8503125 -2.6059375 13.200625 -3.046875 12.53125 C-3.51867187 11.77328125 -3.51867187 11.77328125 -4 11 C-7.68754757 11.49831724 -9.60490662 12.10067643 -12 15 C-11.61502006 12.76711635 -11.10506663 11.16343698 -9.875 9.25 C-7.00254099 7.33502733 -4.35516417 7.81008505 -1 8 C-0.67 8.99 -0.34 9.98 0 11 C1.02703748 5.44506076 1.02703748 5.44506076 0 0 Z " fill="#95999B" transform="translate(40,37)"/>
	

	<path d="M0 0 C1.2375 -0.04125 2.475 -0.0825 3.75 -0.125 C4.79414062 -0.15980469 4.79414062 -0.15980469 5.859375 -0.1953125 C8.30155975 0.02751458 9.88636771 0.79085 12 2 C12.05406122 3.93719378 12.09282025 5.87481921 12.125 7.8125 C12.14820312 8.89144531 12.17140625 9.97039062 12.1953125 11.08203125 C12 14 12 14 10 17 C9.40574219 16.93941406 8.81148437 16.87882812 8.19921875 16.81640625 C1.80300071 16.16982122 -4.59671614 15.57215654 -11 15 C-11 14.67 -11 14.34 -11 14 C-10.09906616 14.00785522 -10.09906616 14.00785522 -9.17993164 14.01586914 C-6.47413162 14.03658014 -3.76834823 14.04964125 -1.0625 14.0625 C-0.11697266 14.07087891 0.82855469 14.07925781 1.80273438 14.08789062 C2.70185547 14.09111328 3.60097656 14.09433594 4.52734375 14.09765625 C5.35999756 14.10289307 6.19265137 14.10812988 7.05053711 14.11352539 C9.00516798 14.21643292 9.00516798 14.21643292 10 13 C10.0979057 11.50261876 10.12974864 10.00057108 10.125 8.5 C10.12757812 7.6853125 10.13015625 6.870625 10.1328125 6.03125 C10.2245178 4.00469623 10.2245178 4.00469623 9 3 C7.48530552 2.76807135 5.96245438 2.58784762 4.4375 2.4375 C3.61121094 2.35371094 2.78492187 2.26992187 1.93359375 2.18359375 C1.29550781 2.12300781 0.65742187 2.06242187 0 2 C0 1.34 0 0.68 0 0 Z " fill="#303031" transform="translate(93,87)"/>
	

	<path d="M0 0 C2.98002731 2.46176169 3.43502243 4.22839297 4 8 C4.19958218 10.71099124 4.36760185 13.41098877 4.5 16.125 C4.85432452 22.76697426 5.32812863 29.38135226 6 36 C3.79351078 34.24656967 3.05983286 33.29528467 2.49169922 30.49145508 C2.42998535 29.51072021 2.36827148 28.52998535 2.3046875 27.51953125 C2.22863281 26.43736328 2.15257813 25.35519531 2.07421875 24.24023438 C2.00847656 23.10908203 1.94273438 21.97792969 1.875 20.8125 C1.72810464 18.5897413 1.57969979 16.36708177 1.4296875 14.14453125 C1.36104492 13.09217285 1.29240234 12.03981445 1.22167969 10.95556641 C0.94591245 7.27887239 0.50822157 3.65117075 0 0 Z " fill="#B6BBBD" transform="translate(84,27)"/>
	

	<path d="M0 0 C0.33 0 0.66 0 1 0 C0.88140625 0.78503906 0.7628125 1.57007813 0.640625 2.37890625 C-0.23541608 9.51864102 -0.10493438 13.09915682 4 19 C3.67 19.66 3.34 20.32 3 21 C1.97469597 20.02596117 0.98230498 19.0173873 0 18 C-0.721875 17.2575 -1.44375 16.515 -2.1875 15.75 C-4.5510863 12.16386906 -4.59348204 10.22855953 -4 6 C-2.0625 2.5625 -2.0625 2.5625 0 0 Z " fill="#B0B5B7" transform="translate(27,50)"/>
	

	<path d="M0 0 C3.875 1.75 3.875 1.75 5 4 C5.20614251 5.38663047 5.36634384 6.78029753 5.5 8.17578125 C5.5825 9.00400391 5.665 9.83222656 5.75 10.68554688 C5.8325 11.55244141 5.915 12.41933594 6 13.3125 C6.56602229 19.57319298 6.56602229 19.57319298 7.55859375 25.7734375 C8.06602225 28.33303259 8.09725447 30.70591466 8.0625 33.3125 C8.05347656 34.19550781 8.04445313 35.07851563 8.03515625 35.98828125 C8.02355469 36.65214844 8.01195313 37.31601562 8 38 C7.67 38 7.34 38 7 38 C6.78851318 36.53977417 6.78851318 36.53977417 6.57275391 35.05004883 C6.04595343 31.42428038 5.51100218 27.79975293 4.97363281 24.17553711 C4.74257957 22.60945563 4.5137116 21.04305007 4.28710938 19.47631836 C3.96023078 17.21899229 3.62540339 14.96296442 3.2890625 12.70703125 C3.14049301 11.66298882 3.14049301 11.66298882 2.98892212 10.59785461 C2.41645179 6.81600313 1.58720867 3.48418855 0 0 Z " fill="#626365" transform="translate(84,25)"/>
	

	<path d="M0 0 C0.33 0 0.66 0 1 0 C1.68789152 13.94891138 1.68789152 13.94891138 -0.6875 17.8125 C-3.28530951 20.26988737 -4.59457193 20.3726843 -8 21 C-9.19838209 23.32854463 -9.19838209 23.32854463 -10 26 C-10.95824253 27.36365283 -11.94721175 28.70794169 -13 30 C-12.38907909 25.84573781 -11.24589157 22.5624487 -9 19 C-5.875 17.1875 -5.875 17.1875 -3 16 C-1.21852702 14.21852702 -1.662239 11.54120228 -1.5 9.125 C-1.27652749 5.81281812 -1.05207935 3.15623804 0 0 Z " fill="#626365" transform="translate(30,25)"/>
	

	<path d="M0 0 C0.66 0.33 1.32 0.66 2 1 C2.59765625 3.4765625 2.59765625 3.4765625 3.0625 6.625 C3.22621094 7.70523438 3.38992187 8.78546875 3.55859375 9.8984375 C3.70425781 10.92195313 3.84992187 11.94546875 4 13 C4.11472656 13.77601562 4.22945312 14.55203125 4.34765625 15.3515625 C4.57383777 16.89979091 4.78859341 18.44968502 5 20 C3.68 20.33 2.36 20.66 1 21 C-0.32 19.35 -1.64 17.7 -3 16 C-2.67 15.34 -2.34 14.68 -2 14 C-1.01 15.485 -1.01 15.485 0 17 C0.66 17 1.32 17 2 17 C1.34 11.39 0.68 5.78 0 0 Z " fill="#626365" transform="translate(42,38)"/>
	

	<path d="M0 0 C-0.28875 0.680625 -0.5775 1.36125 -0.875 2.0625 C-2.12597355 5.32893093 -3.07447955 8.62846123 -4 12 C-4.66 12 -5.32 12 -6 12 C-6.08004482 15.5219721 -6.04005702 18.61981469 -5 22 C-8 20 -8 20 -8.796875 18.28515625 C-9.08553802 15.03769726 -8.22336387 12.53745232 -7.25 9.4375 C-6.90453125 8.30183594 -6.5590625 7.16617188 -6.203125 5.99609375 C-3.79530639 0 -3.79530639 0 0 0 Z " fill="#3C3C3D" transform="translate(20,47)"/>
	

	<path d="M0 0 C0.33 0 0.66 0 1 0 C1.29784578 2.92881679 1.50765623 5.14443371 1 8 C-2.62706072 12.05885367 -5.58499837 13.61321417 -11 14 C-11.33 13.01 -11.66 12.02 -12 11 C-10.9275 10.95875 -9.855 10.9175 -8.75 10.875 C-4.8165955 10.35093493 -4.8165955 10.35093493 -2.625 7.1875 C-1.35229137 4.69103308 -0.42174622 2.7413504 0 0 Z " fill="#49494B" transform="translate(47,81)"/>
	

	<path d="M0 0 C0.33 0 0.66 0 1 0 C1 2.97 1 5.94 1 9 C5.455 8.505 5.455 8.505 10 8 C10.33 8.66 10.66 9.32 11 10 C5.91913204 10.84681133 1.15171623 11.09038099 -4 11 C-3.525625 10.113125 -3.05125 9.22625 -2.5625 8.3125 C-1.20262851 5.42957244 -0.45939614 3.12389377 0 0 Z " fill="#C3C8CA" transform="translate(90,83)"/>
	

	<path d="M0 0 C6.55963034 3.18042683 10.76229906 9.25984145 15 15 C11.87729974 13.58884686 9.50346319 11.889376 6.9375 9.625 C5.93009766 8.74714844 5.93009766 8.74714844 4.90234375 7.8515625 C3.01007875 6.00980971 1.45487937 4.20271456 0 2 C0 1.34 0 0.68 0 0 Z " fill="#4B4C4D" transform="translate(20,77)"/>
	

	<path d="M0 0 C0.33 0 0.66 0 1 0 C1 2.31 1 4.62 1 7 C0.01 7.33 -0.98 7.66 -2 8 C-2.33 11.3 -2.66 14.6 -3 18 C-3.66 17.67 -4.32 17.34 -5 17 C-4.72740991 10.22613615 -3.80946641 5.65275661 0 0 Z " fill="#C3C8CA" transform="translate(21,48)"/>
	

	<path d="M0 0 C5.78461538 3.44615385 5.78461538 3.44615385 6.875 6.25 C6.91625 6.8275 6.9575 7.405 7 8 C8.98 7.67 10.96 7.34 13 7 C12.67 7.99 12.34 8.98 12 10 C9.69 10 7.38 10 5 10 C4.54625 9.030625 4.0925 8.06125 3.625 7.0625 C2.34213779 3.92920418 2.34213779 3.92920418 0 3 C0 2.01 0 1.02 0 0 Z " fill="#969A9C" transform="translate(31,71)"/>
	

	<path d="M0 0 C0.82638376 2.89234315 1 4.88742431 1 8 C1.66 8 2.32 8 3 8 C4.6875 10.25 4.6875 10.25 6 13 C5.58203125 15.171875 5.58203125 15.171875 5 17 C-1.60409314 7.48627741 -1.60409314 7.48627741 -0.875 2.875 C-0.58625 1.92625 -0.2975 0.9775 0 0 Z " fill="#505052" transform="translate(27,55)"/>
	

	

	<path d="M0 0 C1.98 0 3.96 0 6 0 C3 2 3 2 1 2 C0.731875 2.7425 0.46375 3.485 0.1875 4.25 C-0.94229421 6.86636554 -2.20893202 8.80187111 -4 11 C-3.39301257 6.87248551 -1.96189209 3.6678852 0 0 Z " fill="#8C8F91" transform="translate(21,44)"/>
	

	<path d="M0 0 C3.875 1.75 3.875 1.75 5 4 C5.039992 5.99960012 5.04346799 8.00047242 5 10 C4.34 10 3.68 10 3 10 C2.690625 8.906875 2.38125 7.81375 2.0625 6.6875 C1.41662103 4.44592006 0.7376883 2.2130649 0 0 Z " fill="#4A4A4C" transform="translate(84,25)"/>
	

	<path d="M0 0 C0 0.99 0 1.98 0 3 C-4.22222222 6 -4.22222222 6 -7 6 C-7 5.34 -7 4.68 -7 4 C-4.69 2.68 -2.38 1.36 0 0 Z " fill="#AAAFB1" transform="translate(44,87)"/>
	

</svg>
