<?xml version="1.0" encoding="iso-8859-1"?>
<svg height="128" version="1.1" width="128" xmlns="http://www.w3.org/2000/svg">
	

	<path d="M0 0 C42.24 0 84.48 0 128 0 C128 42.24 128 84.48 128 128 C85.76 128 43.52 128 0 128 C0 85.76 0 43.52 0 0 Z " fill="#D04933" transform="translate(0,0)"/>
	

	<path d="M0 0 C-0.00222061 0.87252411 -0.00444122 1.74504822 -0.00672913 2.64401245 C-0.0267419 10.85499665 -0.04197919 19.06597268 -0.05181217 27.27697563 C-0.05703728 31.49862582 -0.06412822 35.72025591 -0.07543945 39.94189453 C-0.0862815 44.01376672 -0.09227964 48.08561953 -0.09487724 52.15750504 C-0.09672911 53.71328156 -0.10034518 55.26905698 -0.10573006 56.82482529 C-0.11295795 58.99896307 -0.1139902 61.17302016 -0.11352539 63.34716797 C-0.115746 64.58626923 -0.11796661 65.82537048 -0.12025452 67.10202026 C-0.2007372 69.93998046 -0.2007372 69.93998046 1 72 C13.87 72.495 13.87 72.495 27 73 C28.13191077 79.7914646 28.13191077 79.7914646 27.625 83.8125 C27.53476563 84.58207031 27.44453125 85.35164063 27.3515625 86.14453125 C27 88 27 88 26 89 C18.38702941 90.1312045 10.66081636 90.17173885 2.98046875 90.203125 C1.32716301 90.21167511 1.32716301 90.21167511 -0.35954285 90.22039795 C-2.6696173 90.2297753 -4.9797047 90.23635269 -7.28979492 90.24023438 C-10.82038218 90.25002185 -14.3504062 90.2811465 -17.88085938 90.3125 C-20.13541324 90.31902383 -22.38997123 90.32427673 -24.64453125 90.328125 C-25.69461868 90.3404718 -26.74470612 90.3528186 -27.82661438 90.36553955 C-34.49732823 90.34521729 -38.80420978 89.47360986 -44.1953125 85.30078125 C-50.77497378 78.52133268 -52.45777738 71.00120122 -54 62 C-54.11569336 61.33033203 -54.23138672 60.66066406 -54.35058594 59.97070312 C-55.62025596 52.3074722 -56.32887586 44.76512457 -56 37 C-56.66 37 -57.32 37 -58 37 C-59.1526479 31.50205245 -59.14849648 26.15074685 -59.125 20.5625 C-59.12886719 19.64662109 -59.13273437 18.73074219 -59.13671875 17.78710938 C-59.12251831 7.89650228 -59.12251831 7.89650228 -58 3 C-50.3006745 -2.13288367 -37.52482104 -0.25342468 -28.38012695 -0.50268555 C-26.17323049 -0.56288927 -23.96650683 -0.62773048 -21.75976562 -0.69335938 C-3.65220306 -1.21740102 -3.65220306 -1.21740102 0 0 Z " fill="#F9F8F6" transform="translate(88,14)"/>
	

	

	<path d="M0 0 C78.66972477 -0.14984709 78.66972477 -0.14984709 114 1 C114 1.99 114 2.98 114 4 C95.03945674 7.02463533 75.49395976 6.04334334 56.37786865 5.66339111 C53.04108713 5.59943147 49.70413405 5.54683805 46.3671875 5.4921875 C43.75259279 5.44595136 41.13800892 5.39909715 38.5234375 5.3515625 C37.36137787 5.33171295 36.19931824 5.3118634 35.00204468 5.29141235 C24.64373331 5.08246082 14.36400524 4.51820026 4 4 C4 36.01 4 68.02 4 101 C11.92 100.67 19.84 100.34 28 100 C29.485 100.495 29.485 100.495 31 101 C31.33 99.35 31.66 97.7 32 96 C36.35522853 96.50642192 39.44239635 97.38411497 43 100 C43 100.66 43 101.32 43 102 C65.44 102 87.88 102 111 102 C110.505 103.98 110.505 103.98 110 106 C104.5917309 108.84045612 98.38219242 108.31442751 92.42578125 108.34375 C91.30616501 108.3583728 90.18654877 108.37299561 89.03300476 108.38806152 C85.45953937 108.43444856 81.88612732 108.46868831 78.3125 108.5 C73.6208967 108.5414143 68.9296661 108.59523861 64.23828125 108.65625 C62.64552116 108.66416565 62.64552116 108.66416565 61.02058411 108.67224121 C55.03743228 108.75085933 49.48771982 109.36433354 43.62446594 110.53787231 C39.50494053 111.26325675 35.42069833 111.37369532 31.24609375 111.44921875 C30.37855972 111.47095657 29.5110257 111.4926944 28.61720276 111.51509094 C26.80829164 111.55854824 24.99927596 111.59784518 23.19018555 111.63305664 C20.412244 111.68799952 17.63496914 111.75809566 14.85742188 111.83007812 C13.09116589 111.87067401 11.32489011 111.91041919 9.55859375 111.94921875 C8.31341225 111.98036018 8.31341225 111.98036018 7.04307556 112.01213074 C1.2314705 112.11573525 1.2314705 112.11573525 -1 111 C-0.505 56.055 -0.505 56.055 0 0 Z " fill="#D92F2D" transform="translate(6,5)"/>
	

	<path d="M0 0 C0.96597107 -0.00281982 1.93194214 -0.00563965 2.92718506 -0.00854492 C3.98544998 -0.00652069 5.0437149 -0.00449646 6.13404846 -0.00241089 C7.24972198 -0.00416321 8.36539551 -0.00591553 9.51487732 -0.00772095 C13.21290124 -0.01213195 16.91087755 -0.00920388 20.60890198 -0.00582886 C23.17336028 -0.00650216 25.73781853 -0.00747241 28.30227661 -0.00872803 C33.68159144 -0.01020402 39.0608883 -0.00814884 44.44020081 -0.00338745 C50.65736252 0.00205203 56.87449142 0.00029401 63.09165233 -0.00521386 C69.07333418 -0.01030085 75.05499998 -0.00975947 81.03668404 -0.00683212 C83.58164029 -0.00616412 86.12659738 -0.00698688 88.67155266 -0.00931168 C92.22678227 -0.01184618 95.78194858 -0.0079861 99.33717346 -0.00241089 C100.39341415 -0.00443512 101.44965485 -0.00645935 102.53790283 -0.00854492 C103.99108917 -0.00431519 103.99108917 -0.00431519 105.47363281 0 C106.31409873 0.00037703 107.15456465 0.00075405 108.02049923 0.0011425 C110.30030823 0.12698364 110.30030823 0.12698364 114.30030823 1.12698364 C114.30030823 4.75698364 114.30030823 8.38698364 114.30030823 12.12698364 C72.39030823 12.12698364 30.48030823 12.12698364 -12.69969177 12.12698364 C-10.19969177 4.62698364 -10.19969177 4.62698364 -7.69969177 1.12698364 C-4.81113731 0.16413215 -3.00084288 0.00134676 0 0 Z " fill="#497729" transform="translate(13.699691772460938,115.87301635742188)"/>
	

	<path d="M0 0 C18.39647161 0.09569036 18.39647161 0.09569036 21.56640625 3.265625 C23.3366426 13.071183 22.71822477 23.43279214 22.69677734 33.35717773 C22.6913629 36.35210094 22.69677621 39.34687791 22.703125 42.34179688 C22.70246515 44.244792 22.70118593 46.14778703 22.69921875 48.05078125 C22.70124298 48.94652359 22.70326721 49.84226593 22.70535278 50.76515198 C22.70220062 51.59038864 22.69904846 52.41562531 22.69580078 53.26586914 C22.69500519 53.99214005 22.69420959 54.71841095 22.69338989 55.46669006 C22.56640625 57.265625 22.56640625 57.265625 21.56640625 59.265625 C16.4972842 60.95533235 11.51194089 60.48587421 6.25390625 59.890625 C1.83808749 57.22059505 0.94341307 53.0982206 -0.43359375 48.265625 C-1.41531781 43.11385949 -1.92832383 37.89501977 -2.44433594 32.6796875 C-2.68326275 30.26896476 -2.94327539 27.8612454 -3.20703125 25.453125 C-5.15791453 7.20092099 -5.15791453 7.20092099 -4.43359375 2.265625 C-2.43359375 0.265625 -2.43359375 0.265625 0 0 Z " fill="#CF4C35" transform="translate(48.43359375,29.734375)"/>
	

	<path d="M0 0 C1.14080521 0.00022659 2.28161041 0.00045319 3.45698547 0.00068665 C4.67798447 0.0161705 5.89898346 0.03165436 7.15698242 0.04760742 C8.41508224 0.05185226 9.67318207 0.05609711 10.96940613 0.06047058 C14.30197253 0.07439998 17.63391525 0.10131852 20.96630859 0.13458252 C24.3716088 0.16536065 27.77697362 0.17899238 31.18237305 0.1940918 C37.85507067 0.22715204 44.52747493 0.27734558 51.19995117 0.34057617 C53.43868891 6.17722295 54.63609501 11.19314445 54.49291992 17.43823242 C54.48867508 18.15796738 54.48443024 18.87770233 54.48005676 19.61924744 C54.46348477 21.88093153 54.42587842 24.14166905 54.38745117 26.40307617 C54.37237636 27.95189128 54.35869291 29.50072058 54.34643555 31.04956055 C54.31365256 34.81358795 54.26202615 38.57692255 54.19995117 42.34057617 C53.53995117 42.34057617 52.87995117 42.34057617 52.19995117 42.34057617 C52.52995117 52.24057617 52.85995117 62.14057617 53.19995117 72.34057617 C61.38226739 72.6298624 61.38226739 72.6298624 69.56494141 72.90869141 C70.57758057 72.94679932 71.59021973 72.98490723 72.63354492 73.02416992 C73.67567139 73.06082764 74.71779785 73.09748535 75.79150391 73.13525391 C78.19995117 73.34057617 78.19995117 73.34057617 79.19995117 74.34057617 C79.3270781 76.791465 79.38515801 79.20168162 79.38745117 81.65307617 C79.39969727 82.33047852 79.41194336 83.00788086 79.42456055 83.70581055 C79.43538268 87.39615938 79.36150576 90.26889334 77.19995117 93.34057617 C66.38895447 98.74607452 47.01387101 95.44918064 35.26245117 95.40307617 C33.01831155 95.3980492 30.77417083 95.39348842 28.5300293 95.3894043 C23.08664563 95.37849808 17.64330367 95.36185567 12.19995117 95.34057617 C12.19995117 94.68057617 12.19995117 94.02057617 12.19995117 93.34057617 C11.60182617 93.23745117 11.00370117 93.13432617 10.38745117 93.02807617 C7.88457393 92.24145761 6.98680362 91.20511786 5.19995117 89.34057617 C4.20995117 89.01057617 3.21995117 88.68057617 2.19995117 88.34057617 C1.01245117 84.77807617 1.01245117 84.77807617 0.19995117 81.34057617 C-0.46004883 81.34057617 -1.12004883 81.34057617 -1.80004883 81.34057617 C-1.80004883 80.35057617 -1.80004883 79.36057617 -1.80004883 78.34057617 C-2.46004883 78.34057617 -3.12004883 78.34057617 -3.80004883 78.34057617 C-3.80004883 77.02057617 -3.80004883 75.70057617 -3.80004883 74.34057617 C-4.46004883 74.34057617 -5.12004883 74.34057617 -5.80004883 74.34057617 C-6.65303259 70.66670122 -6.90794354 67.29583687 -6.86254883 63.52807617 C-6.85352539 62.55225586 -6.84450195 61.57643555 -6.83520508 60.57104492 C-6.82360352 59.83499023 -6.81200195 59.09893555 -6.80004883 58.34057617 C-7.46004883 58.34057617 -8.12004883 58.34057617 -8.80004883 58.34057617 C-9.65663252 55.32446094 -9.98320091 52.52483309 -10.11645508 49.39526367 C-10.15883301 48.41251465 -10.20121094 47.42976563 -10.24487305 46.41723633 C-10.45406814 40.72556743 -10.63591257 35.03371539 -10.80004883 29.34057617 C-10.84081543 28.12950195 -10.88158203 26.91842773 -10.92358398 25.6706543 C-11.03551113 22.1023216 -11.11056447 18.53504884 -11.17504883 14.96557617 C-11.21315674 13.84908691 -11.25126465 12.73259766 -11.29052734 11.58227539 C-11.30684204 10.02790771 -11.30684204 10.02790771 -11.32348633 8.44213867 C-11.34330566 7.52770996 -11.363125 6.61328125 -11.38354492 5.67114258 C-10.80004883 3.34057617 -10.80004883 3.34057617 -8.62608337 1.71620178 C-5.46024738 0.17517141 -3.50087084 -0.02328739 0 0 Z M26.23193359 2.71289062 C24.03580097 2.7773904 21.83957373 2.8373523 19.64331055 2.8972168 C5.25817001 2.31887136 5.25817001 2.31887136 -7.80004883 6.34057617 C-9.12478047 12.11914697 -8.94997723 17.99919861 -8.92504883 23.90307617 C-8.92891602 24.82282227 -8.9327832 25.74256836 -8.93676758 26.69018555 C-8.93006206 31.35387368 -8.76165372 35.75387345 -7.80004883 40.34057617 C-7.14004883 40.34057617 -6.48004883 40.34057617 -5.80004883 40.34057617 C-5.86192383 41.59870117 -5.92379883 42.85682617 -5.98754883 44.15307617 C-5.98754883 51.91046994 -4.57185022 59.50084273 -3.19702148 67.11254883 C-2.8550717 69.03175776 -2.54872491 70.9572485 -2.24926758 72.88354492 C-0.73801791 80.83045642 2.98411366 86.15726981 9.19995117 91.34057617 C12.6822519 92.99574436 15.43300964 93.58984893 19.2746582 93.58349609 C20.75242233 93.58811104 20.75242233 93.58811104 22.26004028 93.59281921 C23.315289 93.5856337 24.37053772 93.57844818 25.45776367 93.57104492 C26.55659882 93.5705867 27.65543396 93.57012848 28.78756714 93.56965637 C31.11253946 93.56663789 33.43750983 93.55876369 35.76245117 93.54638672 C39.29117141 93.52824979 42.81962689 93.52587642 46.34838867 93.52612305 C48.61401591 93.52120252 50.87964138 93.51537189 53.14526367 93.50854492 C54.70991867 93.50687569 54.70991867 93.50687569 56.30618286 93.50517273 C67.42498987 94.27966204 67.42498987 94.27966204 77.19995117 91.34057617 C77.46198461 89.20063646 77.66013958 87.05269023 77.82495117 84.90307617 C77.9203418 83.72874023 78.01573242 82.5544043 78.11401367 81.34448242 C78.43459816 78.41602971 78.43459816 78.41602971 77.19995117 76.34057617 C64.32995117 75.84557617 64.32995117 75.84557617 51.19995117 75.34057617 C49.75037661 72.44142706 50.08062193 69.92629317 50.08642578 66.68774414 C50.08627975 66.00470215 50.08613373 65.32166016 50.08598328 64.61791992 C50.08668095 62.35616907 50.09446652 60.09450017 50.10229492 57.83276367 C50.10415962 56.26620529 50.10558328 54.69964633 50.10658264 53.13308716 C50.11040375 49.00667719 50.12023057 44.88030233 50.13128662 40.75390625 C50.14150947 36.54451981 50.14608214 32.3351277 50.15112305 28.12573242 C50.16185319 19.86399755 50.17892475 11.60229122 50.19995117 3.34057617 C42.85399782 0.89192505 33.94615996 2.48346808 26.23193359 2.71289062 Z " fill="#D89888" transform="translate(37.800048828125,10.659423828125)"/>
	

	<path d="M0 0 C39.6 0 79.2 0 120 0 C119.34 1.32 118.68 2.64 118 4 C111.71784839 5.69293925 104.96060707 5.19121039 98.5 5.1875 C97.19168213 5.18741943 95.88336426 5.18733887 94.53540039 5.18725586 C62.29786036 5.06020207 62.29786036 5.06020207 47 2 C43.25792552 1.88120398 39.95179456 1.82963226 36.27075195 2.48852539 C32.98738642 3.00197249 29.82787767 3.20573741 26.5078125 3.31640625 C24.70957031 3.37924805 24.70957031 3.37924805 22.875 3.44335938 C21.6375 3.48267578 20.4 3.52199219 19.125 3.5625 C17.86429688 3.60568359 16.60359375 3.64886719 15.3046875 3.69335938 C12.20322577 3.79909102 9.10168855 3.90118571 6 4 C4.38628375 7.2274325 4.7593547 10.77266975 4.68701172 14.32324219 C4.66575226 15.18552429 4.6444928 16.0478064 4.62258911 16.93621826 C4.55329222 19.80634424 4.49118067 22.6765719 4.4296875 25.546875 C4.38408394 27.55398005 4.33827388 29.56108042 4.29226685 31.56817627 C4.19660276 35.79505992 4.1046927 40.02200614 4.01513672 44.24902344 C3.90124019 49.60316459 3.77642471 54.9569839 3.6483593 60.31080246 C3.55046111 64.47036878 3.45958829 68.63006857 3.37054825 72.78983307 C3.32742017 74.75895651 3.28202287 76.72803187 3.23409653 78.69704437 C2.96131819 90.05039792 2.95884739 101.27593369 3.89234734 112.60480881 C4.28706668 118.55932324 3.46150657 122.54843796 1 128 C0.67 128 0.34 128 0 128 C0 85.76 0 43.52 0 0 Z " fill="#DB9C8D" transform="translate(0,0)"/>
	

	<path d="M0 0 C78.66972477 -0.14984709 78.66972477 -0.14984709 114 1 C114 1.99 114 2.98 114 4 C95.03945674 7.02463533 75.49395976 6.04334334 56.37786865 5.66339111 C53.04108713 5.59943147 49.70413405 5.54683805 46.3671875 5.4921875 C43.75259279 5.44595136 41.13800892 5.39909715 38.5234375 5.3515625 C37.36137787 5.33171295 36.19931824 5.3118634 35.00204468 5.29141235 C24.65626908 5.0827137 14.33234597 4.5518298 4 4 C3.99413376 5.17319794 3.98826752 6.34639587 3.98222351 7.55514526 C3.92510106 18.59176735 3.85239485 29.6281904 3.76428509 40.66460991 C3.71948772 46.33905503 3.68025245 52.0134268 3.65356445 57.68798828 C3.62762469 63.16052252 3.58728911 68.63277584 3.53681374 74.10513687 C3.52008167 76.19676352 3.50860705 78.28843882 3.50238609 80.38012314 C3.49281368 83.30173196 3.46483767 86.22261173 3.43237305 89.14404297 C3.43452568 90.45171127 3.43452568 90.45171127 3.4367218 91.78579712 C3.39872742 94.19088745 3.39872742 94.19088745 3 98 C1.515 98.99 1.515 98.99 0 100 C0 67 0 34 0 0 Z " fill="#CB3F27" transform="translate(6,5)"/>
	

	<path d="M0 0 C0 0.66 0 1.32 0 2 C-41.91 2 -83.82 2 -127 2 C-126.67 0.35 -126.34 -1.3 -126 -3 C-125.03666748 -2.99476318 -124.07333496 -2.98952637 -123.08081055 -2.98413086 C-96.95738249 -2.85655006 -70.85187248 -3.15657299 -44.7331543 -3.64428711 C-42.88121712 -3.67872169 -42.88121712 -3.67872169 -40.99186707 -3.71385193 C-38.67968174 -3.75731358 -36.36751538 -3.8018021 -34.05537415 -3.84754944 C-9.2611346 -4.32186281 -9.2611346 -4.32186281 0 0 Z " fill="#D3AB18" transform="translate(128,126)"/>
	

	<path d="M0 0 C11.3231068 1.45110608 22.69927141 1.76912337 34.09765625 2.1953125 C36.28452913 2.28195024 38.47137841 2.36918598 40.65820312 2.45703125 C45.95026918 2.66833603 51.24257617 2.87232254 56.53515625 3.0703125 C56.53515625 3.4003125 56.53515625 3.7303125 56.53515625 4.0703125 C33.44782529 4.14289047 10.37212611 3.96377937 -12.71234131 3.60675049 C-16.77043945 3.54455542 -20.82858096 3.48532256 -24.88671875 3.42578125 C-32.74613692 3.31006019 -40.6055043 3.19127478 -48.46484375 3.0703125 C-48.46262314 4.38718552 -48.46040253 5.70405853 -48.45811462 7.06083679 C-48.43785182 19.46498906 -48.42285644 31.86913797 -48.41303158 44.27330303 C-48.40781075 50.65055213 -48.40072756 57.02778788 -48.3894043 63.4050293 C-48.37854708 69.55823206 -48.37256087 75.71142196 -48.36996651 81.86463356 C-48.36811739 84.21338923 -48.36450658 86.56214419 -48.35911369 88.91089439 C-48.35186572 92.19801738 -48.35085441 95.48508712 -48.35131836 98.7722168 C-48.34772308 99.7454187 -48.34412781 100.71862061 -48.34042358 101.72131348 C-48.34179825 102.62008713 -48.34317291 103.51886078 -48.34458923 104.44487 C-48.34366744 105.22194148 -48.34274565 105.99901297 -48.34179592 106.79963207 C-48.47716291 109.29764582 -48.92152357 111.63118412 -49.46484375 114.0703125 C-48.80484375 114.4003125 -48.14484375 114.7303125 -47.46484375 115.0703125 C-48.45484375 116.7203125 -49.44484375 118.3703125 -50.46484375 120.0703125 C-52.26056728 116.47886545 -51.87587835 112.29258767 -52.04418945 108.33081055 C-52.08694913 107.34549945 -52.12970881 106.36018835 -52.17376423 105.34501934 C-52.58134397 94.85401681 -52.43448181 84.39527765 -52.1953125 73.90234375 C-52.15347516 71.87831854 -52.11200435 69.85428573 -52.07087708 67.83024597 C-51.98403635 63.64297438 -51.89178137 59.45586714 -51.7956543 55.26879883 C-51.67300924 49.90032277 -51.56608895 44.53165718 -51.46322155 39.16277027 C-51.38164164 35.00803464 -51.29111145 30.85353088 -51.19790077 26.69904137 C-51.15467316 24.71712163 -51.11443677 22.7351343 -51.07726097 20.75309181 C-51.02453787 18.00411998 -50.95957836 15.2557049 -50.89135742 12.50708008 C-50.87827545 11.69216095 -50.86519348 10.87724182 -50.85171509 10.03762817 C-50.74412365 6.21750074 -50.63238205 4.32161995 -48.46484375 1.0703125 C-45.85449219 0.65380859 -45.85449219 0.65380859 -42.57421875 0.59375 C-41.38957031 0.5628125 -40.20492187 0.531875 -38.984375 0.5 C-37.74042969 0.48195312 -36.49648438 0.46390625 -35.21484375 0.4453125 C-32.77206119 0.39404739 -30.32934542 0.33947079 -27.88671875 0.28125 C-26.25621582 0.25490479 -26.25621582 0.25490479 -24.59277344 0.22802734 C-21.48840507 0.13649905 -21.48840507 0.13649905 -18.56347656 -0.44287109 C-12.23873216 -1.43653169 -6.30298897 -0.87544863 0 0 Z " fill="#CA6550" transform="translate(54.46484375,1.9296875)"/>
	

	<path d="M0 0 C37.95 0 75.9 0 115 0 C114.34 1.32 113.68 2.64 113 4 C106.71784839 5.69293925 99.96060707 5.19121039 93.5 5.1875 C92.19168213 5.18741943 90.88336426 5.18733887 89.53540039 5.18725586 C57.29786036 5.06020207 57.29786036 5.06020207 42 2 C38.2530055 1.88104779 34.94883825 1.82828449 31.26416016 2.49511719 C28.00429491 2.99933569 24.90946101 3.15736506 21.61328125 3.2109375 C19.8353418 3.25347656 19.8353418 3.25347656 18.02148438 3.296875 C15.537266 3.34920187 13.05286378 3.39339844 10.56835938 3.4296875 C9.38693359 3.460625 8.20550781 3.4915625 6.98828125 3.5234375 C5.37240112 3.5531665 5.37240112 3.5531665 3.72387695 3.58349609 C0.72396777 4.04220767 -0.18610322 4.63103743 -2 7 C-1.34 4.69 -0.68 2.38 0 0 Z " fill="#D17C6B" transform="translate(5,0)"/>
	

	<path d="M0 0 C18.39647161 0.09569036 18.39647161 0.09569036 21.56640625 3.265625 C23.3366426 13.071183 22.71822477 23.43279214 22.69677734 33.35717773 C22.6913629 36.35210094 22.69677621 39.34687791 22.703125 42.34179688 C22.70246515 44.244792 22.70118593 46.14778703 22.69921875 48.05078125 C22.70124298 48.94652359 22.70326721 49.84226593 22.70535278 50.76515198 C22.70220062 51.59038864 22.69904846 52.41562531 22.69580078 53.26586914 C22.69500519 53.99214005 22.69420959 54.71841095 22.69338989 55.46669006 C22.56640625 57.265625 22.56640625 57.265625 21.56640625 59.265625 C16.4972842 60.95533235 11.51194089 60.48587421 6.25390625 59.890625 C1.83808749 57.22059505 0.94341307 53.0982206 -0.43359375 48.265625 C-1.41531781 43.11385949 -1.92832383 37.89501977 -2.44433594 32.6796875 C-2.68326275 30.26896476 -2.94327539 27.8612454 -3.20703125 25.453125 C-5.15791453 7.20092099 -5.15791453 7.20092099 -4.43359375 2.265625 C-2.43359375 0.265625 -2.43359375 0.265625 0 0 Z M-2.43359375 3.265625 C-2.27818115 3.95462891 -2.12276855 4.64363281 -1.96264648 5.35351562 C-1.38423472 8.53731604 -1.15400085 11.62870899 -0.96875 14.859375 C-0.89076172 16.138125 -0.81277344 17.416875 -0.73242188 18.734375 C-0.57544267 21.39045028 -0.42301503 24.04672674 -0.27148438 26.703125 C0.15465001 41.2278075 0.15465001 41.2278075 3.94140625 55.078125 C7.76671782 58.26588464 11.14364736 57.76737959 15.984375 57.57421875 C18.49398206 57.54411478 18.49398206 57.54411478 19.56640625 56.265625 C19.67015583 54.68046922 19.70492514 53.09073034 19.71166992 51.50219727 C19.71804977 50.48766983 19.72442963 49.4731424 19.73100281 48.4278717 C19.73211563 47.32374435 19.73322845 46.219617 19.734375 45.08203125 C19.7377034 43.95619125 19.7410318 42.83035126 19.74446106 41.6703949 C19.74953519 39.28376679 19.75186924 36.89713155 19.75170898 34.51049805 C19.75389476 30.84737526 19.77204365 27.18455378 19.79101562 23.52148438 C19.79394951 21.20833437 19.79593434 18.89518292 19.796875 16.58203125 C19.80406052 15.47992813 19.81124603 14.37782501 19.81864929 13.24232483 C19.81557266 12.22464523 19.81249603 11.20696564 19.80932617 10.15844727 C19.81075119 9.25989517 19.81217621 8.36134308 19.81364441 7.43556213 C19.77042478 5.05463497 19.77042478 5.05463497 17.56640625 3.265625 C15.43388532 2.98847604 15.43388532 2.98847604 12.99609375 3.0703125 C12.10019531 3.07675781 11.20429687 3.08320312 10.28125 3.08984375 C8.87552734 3.11498047 8.87552734 3.11498047 7.44140625 3.140625 C6.02408203 3.15416016 6.02408203 3.15416016 4.578125 3.16796875 C2.24063333 3.19157978 -0.09635498 3.22450984 -2.43359375 3.265625 Z " fill="#DBA294" transform="translate(48.43359375,29.734375)"/>
	

	<path d="M0 0 C0 2.31 0 4.62 0 7 C-2.40005272 6.53247329 -4.78557014 6.05323276 -7.15901184 5.46401978 C-14.68018149 3.68708895 -22.01651162 3.83709199 -29.69921875 4.0234375 C-31.12726006 4.04987732 -32.55532111 4.07526886 -33.98339844 4.09968567 C-36.99732972 4.15297053 -40.0110418 4.21250687 -43.02474976 4.27719116 C-47.7068172 4.37717739 -52.38907832 4.46076448 -57.0715332 4.5402832 C-57.8450497 4.55345738 -58.61856619 4.56663157 -59.41552258 4.58020496 C-60.97150588 4.60667208 -62.52749006 4.6330881 -64.08347511 4.65945244 C-66.40028734 4.69911667 -68.71707472 4.74001723 -71.03385925 4.78126526 C-82.43258969 4.98305629 -93.83066155 5.14843024 -105.23135376 5.17926025 C-106.8610714 5.18472754 -108.4907809 5.19408964 -110.12045288 5.2074585 C-112.3134804 5.22492506 -114.50613136 5.22986385 -116.69921875 5.23046875 C-117.88346436 5.23457764 -119.06770996 5.23868652 -120.2878418 5.24291992 C-123 5 -123 5 -125 3 C-121.08679263 1.69559754 -117.38420098 1.89665843 -113.30859375 1.9375 C-112.01877342 1.94317993 -112.01877342 1.94317993 -110.70289612 1.94897461 C-107.02835196 1.9652733 -103.35391959 1.99318587 -99.67944336 2.02050781 C-96.99333222 2.03877577 -94.30724018 2.05076254 -91.62109375 2.0625 C-90.40020302 2.07494751 -90.40020302 2.07494751 -89.15464783 2.08764648 C-84.20776822 2.10832059 -79.3990192 1.77837289 -74.48298645 1.24050903 C-70.45431255 0.85028038 -66.42769479 0.7658481 -62.3828125 0.68359375 C-61.49490021 0.66276733 -60.60698792 0.64194092 -59.69216919 0.6204834 C-56.83652327 0.5551361 -53.98079488 0.49594476 -51.125 0.4375 C-50.15332886 0.41632111 -49.18165771 0.39514221 -48.18054199 0.37332153 C-32.11824993 0.02373125 -16.06622889 -0.13618999 0 0 Z " fill="#6A910B" transform="translate(128,119)"/>
	

	<path d="M0 0 C2.92879371 0.62759865 5.36095629 1.58622659 8 3 C8 3.66 8 4.32 8 5 C30.44 5 52.88 5 76 5 C75 9 75 9 74 10 C72.00726714 10.10985663 70.01061511 10.14912047 68.01489258 10.16113281 C66.73298538 10.17074036 65.45107819 10.1803479 64.13032532 10.19024658 C62.71839576 10.19509571 61.30646415 10.19937426 59.89453125 10.203125 C58.45301816 10.20887587 57.0115051 10.21463361 55.56999207 10.22039795 C52.54104251 10.23092079 49.51211957 10.23675417 46.4831543 10.24023438 C42.61055416 10.24570386 38.73830835 10.26969284 34.86581898 10.29820633 C31.88458755 10.3168811 28.90344035 10.322041 25.92215538 10.32357025 C24.49526736 10.32658941 23.06838057 10.33459305 21.64155006 10.34775543 C19.63846472 10.36490548 17.63523348 10.36107798 15.63208008 10.35644531 C13.92451286 10.36191376 13.92451286 10.36191376 12.18244934 10.36749268 C7.64421973 9.84344156 4.25968559 8.34366463 1.125 5 C0 3 0 3 0 0 Z " fill="#C4181E" transform="translate(41,102)"/>
	

	<path d="M0 0 C0 0.66 0 1.32 0 2 C-3.10291117 2.26596381 -4.60243395 2.26584528 -7.23600769 0.50482178 C-10.73405546 -1.39964751 -13.06580221 -1.33306806 -17.03637695 -1.26464844 C-17.72697708 -1.25693924 -18.41757721 -1.24923004 -19.12910461 -1.24128723 C-21.4159797 -1.21201257 -23.70180641 -1.16084086 -25.98828125 -1.109375 C-27.60839418 -1.08379509 -29.22852797 -1.0595078 -30.84867859 -1.03643799 C-35.1357073 -0.97160198 -39.42217773 -0.88794134 -43.70880127 -0.80072021 C-47.94434758 -0.71821151 -52.18017749 -0.65525404 -56.41601562 -0.58984375 C-71.70810372 -0.34532366 -86.99906558 -0.01535246 -102.2868557 0.42360687 C-103.698254 0.46385252 -105.10969426 0.50265482 -106.52117348 0.53995514 C-108.44679071 0.59167615 -110.37221034 0.65060713 -112.29760742 0.70996094 C-113.92178841 0.75778717 -113.92178841 0.75778717 -115.57878113 0.80657959 C-117.94870133 0.73251699 -117.94870133 0.73251699 -119 2 C-121.67058851 2.14115161 -124.32432238 2.04247107 -127 2 C-126.67 0.35 -126.34 -1.3 -126 -3 C-125.03666748 -2.99476318 -124.07333496 -2.98952637 -123.08081055 -2.98413086 C-96.95738249 -2.85655006 -70.85187248 -3.15657299 -44.7331543 -3.64428711 C-42.88121712 -3.67872169 -42.88121712 -3.67872169 -40.99186707 -3.71385193 C-38.67968174 -3.75731358 -36.36751538 -3.8018021 -34.05537415 -3.84754944 C-9.2611346 -4.32186281 -9.2611346 -4.32186281 0 0 Z " fill="#A79C08" transform="translate(128,126)"/>
	

	<path d="M0 0 C0.66 0 1.32 0 2 0 C2.33 0.99 2.66 1.98 3 3 C3.99 3.66 4.98 4.32 6 5 C6.36076355 7.40444946 6.36076355 7.40444946 6.34057617 10.45947266 C6.34034958 11.60050446 6.34012299 12.74153625 6.33988953 13.91714478 C6.32440567 15.15362762 6.30892181 16.39011047 6.29296875 17.6640625 C6.28872391 18.92640717 6.28447906 20.18875183 6.28010559 21.48934937 C6.26613137 24.84661351 6.23917302 28.20326932 6.20599365 31.56036377 C6.17531352 34.98550148 6.1616047 38.41070201 6.14648438 41.8359375 C6.11334641 48.5574605 6.06309539 55.27869511 6 62 C4.35 62.66 2.7 63.32 1 64 C1.00222061 63.31619263 1.00444122 62.63238525 1.00672913 61.92785645 C1.02890873 54.78980025 1.04395943 47.65175391 1.05493164 40.51367188 C1.05938363 37.85219379 1.06676643 35.19076987 1.07543945 32.52929688 C1.08761354 28.69660768 1.09325318 24.86395505 1.09765625 21.03125 C1.10281754 19.84760864 1.10797882 18.66396729 1.11329651 17.44445801 C1.11369517 11.53007104 0.90654741 5.84707394 0 0 Z " fill="#CB3E26" transform="translate(91,12)"/>
	

	<path d="M0 0 C14.92505086 -0.02335822 29.85010031 -0.04099356 44.77516556 -0.05181217 C51.70509706 -0.05696891 58.6350172 -0.06399977 65.56494141 -0.07543945 C72.24981594 -0.08646936 78.93467623 -0.09228073 85.61956024 -0.09487724 C88.1728916 -0.09672819 90.7262223 -0.1003425 93.27954865 -0.10573006 C96.84946603 -0.11296461 100.4193343 -0.11398991 103.98925781 -0.11352539 C105.05021164 -0.11712067 106.11116547 -0.12071594 107.20426941 -0.12442017 C108.66395897 -0.12235817 108.66395897 -0.12235817 110.15313721 -0.12025452 C111.41968077 -0.12163721 111.41968077 -0.12163721 112.71181107 -0.12304783 C114.9366342 -0.00340751 116.86525354 0.38050404 119 1 C119 1.66 119 2.32 119 3 C94.51054501 3.09145666 70.02880395 2.83794332 45.54150391 2.53643799 C40.49838862 2.47475261 35.45524793 2.41521623 30.41210938 2.35546875 C20.60804776 2.23901569 10.80401527 2.12028695 1 2 C0.67 1.34 0.34 0.68 0 0 Z " fill="#827349" transform="translate(9,116)"/>
	

	<path d="M0 0 C1.32 0.33 2.64 0.66 4 1 C3.01 1.495 3.01 1.495 2 2 C0.42172335 8.83919882 0.88994352 15.96132976 0.9375 22.9375 C0.94201172 24.19369141 0.94652344 25.44988281 0.95117188 26.74414062 C0.96290319 29.82947663 0.979319 32.91471316 1 36 C1.66 36 2.32 36 3 36 C3.07516846 36.69971924 3.15033691 37.39943848 3.2277832 38.12036133 C3.58023935 41.35214173 3.94629565 44.58224971 4.3125 47.8125 C4.43044922 48.91271484 4.54839844 50.01292969 4.66992188 51.14648438 C5.40121888 57.50314293 6.49645554 63.45588362 8.40307617 69.5690918 C9.03260639 72.13278601 9.10473063 74.37058639 9 77 C8.34 77 7.68 77 7 77 C7 76.01 7 75.02 7 74 C6.34 74 5.68 74 5 74 C5 72.68 5 71.36 5 70 C4.34 70 3.68 70 3 70 C2.14701624 66.32612505 1.89210529 62.9552607 1.9375 59.1875 C1.94652344 58.21167969 1.95554687 57.23585937 1.96484375 56.23046875 C1.97644531 55.49441406 1.98804688 54.75835937 2 54 C1.34 54 0.68 54 0 54 C-0.91428645 50.83509077 -1.18869037 47.88542783 -1.31640625 44.59765625 C-1.35846191 43.54843994 -1.40051758 42.49922363 -1.44384766 41.41821289 C-1.50258057 39.75713501 -1.50258057 39.75713501 -1.5625 38.0625 C-1.6042334 36.93255615 -1.6459668 35.8026123 -1.68896484 34.63842773 C-2.71983126 5.43966252 -2.71983126 5.43966252 0 0 Z " fill="#E9D2C8" transform="translate(29,15)"/>
	

	<path d="M0 0 C18.45869253 -0.38146552 18.45869253 -0.38146552 26 2 C28 4 28 4 28.24723816 6.39772034 C28.24581314 7.40286179 28.24438812 8.40800323 28.24291992 9.44360352 C28.24599655 10.58140762 28.24907318 11.71921173 28.25224304 12.89149475 C28.24505753 14.12484055 28.23787201 15.35818634 28.23046875 16.62890625 C28.22978142 18.51886574 28.22978142 18.51886574 28.2290802 20.44700623 C28.22605464 23.11446525 28.21922585 25.7815807 28.20581055 28.44897461 C28.18880341 31.87464028 28.18499669 35.3001586 28.18575573 38.72586155 C28.1854191 41.98522445 28.17658533 45.24455623 28.16796875 48.50390625 C28.16685593 49.73927628 28.1657431 50.9746463 28.16459656 52.24745178 C28.15821671 53.38210373 28.15183685 54.51675568 28.14526367 55.68579102 C28.13954597 57.1923098 28.13954597 57.1923098 28.13371277 58.72926331 C28 61 28 61 27 62 C24.7109392 62.12586907 22.41748882 62.17577971 20.125 62.1875 C18.86945312 62.20167969 17.61390625 62.21585938 16.3203125 62.23046875 C13 62 13 62 10 60 C15.28 60 20.56 60 26 60 C26.02489804 53.79272751 26.04295304 47.58548472 26.05493164 41.37817383 C26.05993051 39.27074679 26.06673181 37.16332318 26.07543945 35.0559082 C26.08770131 32.00991976 26.09327292 28.96397755 26.09765625 25.91796875 C26.10281754 24.99042282 26.10797882 24.06287689 26.11329651 23.10722351 C26.11383508 16.6890362 25.67938166 10.38125752 25 4 C17.30244088 2.3613256 9.88883724 1.43274247 2 2 C0.5541842 3.22178061 0.5541842 3.22178061 0.8125 6.875 C0.85614763 12.94201993 1.59933421 18.91419041 2.28393555 24.93432617 C2.94998699 30.97683616 3.24600419 36.91822967 3 43 C2.67 43 2.34 43 2 43 C-2.61088885 5.2217777 -2.61088885 5.2217777 0 0 Z " fill="#EEDFD7" transform="translate(44,29)"/>
	

	<path d="M0 0 C0.66 0 1.32 0 2 0 C2.05418326 2.08304538 2.09287551 4.16649768 2.125 6.25 C2.14820312 7.41015625 2.17140625 8.5703125 2.1953125 9.765625 C2.00925052 12.84681133 1.71695953 14.4785909 0 17 C-10.8109967 22.40549835 -30.18608016 19.10860447 -41.9375 19.0625 C-44.18163962 19.05747302 -46.42578034 19.05291224 -48.66992188 19.04882812 C-54.11330554 19.03792191 -59.55664751 19.02127949 -65 19 C-65 18.34 -65 17.68 -65 17 C-65.598125 16.896875 -66.19625 16.79375 -66.8125 16.6875 C-69.31537724 15.90088144 -70.21314755 14.86454169 -72 13 C-72.99 12.67 -73.98 12.34 -75 12 C-76.1875 8.4375 -76.1875 8.4375 -77 5 C-76.29875 5.721875 -75.5975 6.44375 -74.875 7.1875 C-69.75076154 12.29718096 -65.72513268 16.12243878 -58.15234375 16.12939453 C-57.1670166 16.13254669 -56.18168945 16.13569885 -55.16650391 16.13894653 C-54.10093262 16.1369223 -53.03536133 16.13489807 -51.9375 16.1328125 C-50.28500244 16.13424759 -50.28500244 16.13424759 -48.59912109 16.13571167 C-46.26220645 16.13639293 -43.92528992 16.13454243 -41.58837891 16.13037109 C-38.04194779 16.12506279 -34.4956457 16.13029675 -30.94921875 16.13671875 C-28.67447889 16.13605716 -26.39973911 16.13477434 -24.125 16.1328125 C-23.07562256 16.13483673 -22.02624512 16.13686096 -20.94506836 16.13894653 C-14.23688167 16.11802189 -7.67326711 15.69192545 -1 15 C-0.67 10.05 -0.34 5.1 0 0 Z " fill="#E0B4A7" transform="translate(115,87)"/>
	

	<path d="M0 0 C15.51 0 31.02 0 47 0 C45 3 45 3 42.09765625 3.671875 C28.11005785 5.10279439 13.53433171 5.0031122 0 1 C0 0.67 0 0.34 0 0 Z " fill="#DB9C8D" transform="translate(71,0)"/>
	

	<path d="M0 0 C1.0697683 -0.00021904 1.0697683 -0.00021904 2.16114807 -0.0004425 C4.48767276 0.00024686 6.81411453 0.00799286 9.140625 0.01586914 C10.7658687 0.0177368 12.39111296 0.01915906 14.01635742 0.02015686 C18.27091049 0.02395466 22.52542882 0.03376126 26.77996826 0.04486084 C31.13065115 0.05513412 35.4813397 0.0596671 39.83203125 0.06469727 C48.35157835 0.07538626 56.87109734 0.0924294 65.390625 0.11352539 C65.390625 1.10352539 65.390625 2.09352539 65.390625 3.11352539 C38.660625 2.78352539 11.930625 2.45352539 -15.609375 2.11352539 C-15.609375 1.78352539 -15.609375 1.45352539 -15.609375 1.11352539 C-10.35694357 0.37894997 -5.31536421 -0.00922806 0 0 Z " fill="#C95F4B" transform="translate(62.609375,113.886474609375)"/>
	

	<path d="M0 0 C0.99 0.33 1.98 0.66 3 1 C3.44014806 23.03185543 2.12724408 45.00524947 1 67 C0.67 67 0.34 67 0 67 C0 44.89 0 22.78 0 0 Z " fill="#E3C0B3" transform="translate(0,0)"/>
	

	

	<path d="M0 0 C0.33 0 0.66 0 1 0 C1.33 21.12 1.66 42.24 2 64 C10.25 64.33 18.5 64.66 27 65 C27.33 65.99 27.66 66.98 28 68 C27.17665161 67.75443359 27.17665161 67.75443359 26.33666992 67.50390625 C23.68958883 66.93305938 21.32068587 66.90395157 18.61328125 66.9375 C17.59298828 66.94523437 16.57269531 66.95296875 15.52148438 66.9609375 C14.46251953 66.97382812 13.40355469 66.98671875 12.3125 67 C10.20447695 67.02538258 8.09639608 67.04645854 5.98828125 67.0625 C4.58896362 67.07990234 4.58896362 67.07990234 3.16137695 67.09765625 C1 67 1 67 0 66 C-0.09413687 63.94443339 -0.11742998 61.88559819 -0.11352539 59.82788086 C-0.11367142 59.18399918 -0.11381744 58.54011749 -0.1139679 57.87672424 C-0.11326885 55.73939697 -0.10547691 53.60215587 -0.09765625 51.46484375 C-0.09579204 49.98653715 -0.09436815 48.50822993 -0.09336853 47.02992249 C-0.08954359 43.13201198 -0.07971352 39.23413851 -0.06866455 35.33624268 C-0.05844992 31.36153667 -0.0538708 27.38682471 -0.04882812 23.41210938 C-0.03809122 15.608056 -0.02101509 7.80403318 0 0 Z " fill="#D58979" transform="translate(89,19)"/>
	

	

	<path d="M0 0 C1.32 0.33 2.64 0.66 4 1 C3.01 1.495 3.01 1.495 2 2 C1.0573689 6.75495068 0.87165475 11.38980406 0.8671875 16.2265625 C0.86623077 16.89609955 0.86527405 17.5656366 0.86428833 18.25546265 C0.86361209 19.66558934 0.86542731 21.07571925 0.86962891 22.48583984 C0.87493398 24.59870764 0.86969133 26.71135789 0.86328125 28.82421875 C0.85957903 37.25416431 1.20636603 45.60266565 2 54 C1.34 54 0.68 54 0 54 C-0.91428645 50.83509077 -1.18869037 47.88542783 -1.31640625 44.59765625 C-1.35846191 43.54843994 -1.40051758 42.49922363 -1.44384766 41.41821289 C-1.50258057 39.75713501 -1.50258057 39.75713501 -1.5625 38.0625 C-1.6042334 36.93255615 -1.6459668 35.8026123 -1.68896484 34.63842773 C-2.71983126 5.43966252 -2.71983126 5.43966252 0 0 Z " fill="#DFAEA0" transform="translate(29,15)"/>
	

	<path d="M0 0 C5.94939965 0.01489211 11.67655048 0.22788277 17.55859375 1.1328125 C17.55859375 1.7928125 17.55859375 2.4528125 17.55859375 3.1328125 C10.95859375 3.1328125 4.35859375 3.1328125 -2.44140625 3.1328125 C-1.78140625 4.7828125 -1.12140625 6.4328125 -0.44140625 8.1328125 C-0.24609375 11.24609375 -0.24609375 11.24609375 -0.31640625 14.4453125 C-0.33445313 15.51394531 -0.3525 16.58257812 -0.37109375 17.68359375 C-0.40589844 18.89595703 -0.40589844 18.89595703 -0.44140625 20.1328125 C-1.10140625 19.8028125 -1.76140625 19.4728125 -2.44140625 19.1328125 C-3.78694215 13.44601925 -3.8826799 6.94724179 -3.44140625 1.1328125 C-2.44140625 0.1328125 -2.44140625 0.1328125 0 0 Z " fill="#D9998A" transform="translate(48.44140625,29.8671875)"/>
	

	<path d="M0 0 C0.70125 0.721875 1.4025 1.44375 2.125 2.1875 C7.4226512 7.56431436 7.4226512 7.56431436 14 11 C14 11.66 14 12.32 14 13 C29.18 13 44.36 13 60 13 C60 13.33 60 13.66 60 14 C44.16 14 28.32 14 12 14 C12 13.34 12 12.68 12 12 C11.1028125 11.8453125 11.1028125 11.8453125 10.1875 11.6875 C7.68462276 10.90088144 6.78685245 9.86454169 5 8 C4.01 7.67 3.02 7.34 2 7 C0.8125 3.4375 0.8125 3.4375 0 0 Z " fill="#DA9A8A" transform="translate(38,92)"/>
	

	<path d="M0 0 C2.12472576 -0.05386629 4.24983652 -0.09273071 6.375 -0.125 C7.55835938 -0.14820313 8.74171875 -0.17140625 9.9609375 -0.1953125 C13 0 13 0 15 2 C15.24050903 4.17666626 15.24050903 4.17666626 15.22705078 6.90869141 C15.22682419 8.44005234 15.22682419 8.44005234 15.22659302 10.00234985 C15.21627045 11.10759003 15.20594788 12.2128302 15.1953125 13.3515625 C15.1924826 14.4807309 15.18965271 15.60989929 15.18673706 16.77328491 C15.17551462 20.39062971 15.15040622 24.00772966 15.125 27.625 C15.11497287 30.0729131 15.10584656 32.52083007 15.09765625 34.96875 C15.07556857 40.97925064 15.04207074 46.98960783 15 53 C14.67 53 14.34 53 14 53 C13.67 36.83 13.34 20.66 13 4 C8.42572908 2.47524303 4.70715168 1.5648582 0 1 C0 0.67 0 0.34 0 0 Z " fill="#CA6451" transform="translate(53,33)"/>
	

	<path d="M0 0 C10.23 0 20.46 0 31 0 C21.61008898 4.69495551 9.87996259 4.22611023 0 1 C0 0.67 0 0.34 0 0 Z " fill="#E4C2B5" transform="translate(83,0)"/>
	

	<path d="M0 0 C2 3 2 3 2 5 C2.825 4.96970703 3.65 4.93941406 4.5 4.90820312 C34.77883769 3.80991939 34.77883769 3.80991939 48 4 C48 4.33 48 4.66 48 5 C42.13428667 5.82744249 36.38820381 6.19773829 30.46875 6.31640625 C29.59222778 6.33718735 28.71570557 6.35796844 27.81262207 6.37937927 C25.04181958 6.44420883 22.27093099 6.50344658 19.5 6.5625 C17.60936648 6.60574873 15.71874132 6.64936493 13.828125 6.69335938 C9.21883584 6.79982085 4.60946101 6.90127119 0 7 C-1.125 2.25 -1.125 2.25 0 0 Z " fill="#CA3726" transform="translate(7,110)"/>
	

	

	<path d="M0 0 C1.47668858 0.0133035 2.95331108 0.03716415 4.4296875 0.0703125 C5.18378906 0.07933594 5.93789063 0.08835937 6.71484375 0.09765625 C8.57826004 0.1212438 10.44151343 0.15711531 12.3046875 0.1953125 C9.44675434 3.05324566 7.15803166 2.60331191 3.1796875 2.8203125 C1.89835937 2.89507812 0.61703125 2.96984375 -0.703125 3.046875 C-1.69054687 3.09585937 -2.67796875 3.14484375 -3.6953125 3.1953125 C-4.0253125 7.1553125 -4.3553125 11.1153125 -4.6953125 15.1953125 C-5.0253125 15.1953125 -5.3553125 15.1953125 -5.6953125 15.1953125 C-5.74917879 13.07058674 -5.78804321 10.94547598 -5.8203125 8.8203125 C-5.84351562 7.63695312 -5.86671875 6.45359375 -5.890625 5.234375 C-5.59323575 0.6069982 -4.56597788 0.24133075 0 0 Z " fill="#D17E6D" transform="translate(32.6953125,11.8046875)"/>
	

	<path d="M0 0 C2.64 0 5.28 0 8 0 C8 1.98 8 3.96 8 6 C6.845 5.835 5.69 5.67 4.5 5.5 C0.30092197 4.96761689 -3.77063041 4.92447554 -8 5 C-8 4.67 -8 4.34 -8 4 C-6.865625 3.71125 -5.73125 3.4225 -4.5625 3.125 C-3.386875 2.75375 -2.21125 2.3825 -1 2 C-0.67 1.34 -0.34 0.68 0 0 Z " fill="#C9614D" transform="translate(120,0)"/>
	

	<path d="M0 0 C0.33 0 0.66 0 1 0 C1.103125 0.969375 1.20625 1.93875 1.3125 2.9375 C1.84836946 6.72686263 2.97335352 10.17354217 4.234375 13.77734375 C5.28257253 16.82032537 6.14216243 19.89858725 7 23 C6.34 23 5.68 23 5 23 C5 22.01 5 21.02 5 20 C4.34 20 3.68 20 3 20 C3 18.68 3 17.36 3 16 C2.34 16 1.68 16 1 16 C0.14701624 12.32612505 -0.10789471 8.9552607 -0.0625 5.1875 C-0.05347656 4.21167969 -0.04445313 3.23585938 -0.03515625 2.23046875 C-0.02355469 1.49441406 -0.01195313 0.75835937 0 0 Z " fill="#DB9E8F" transform="translate(31,69)"/>
	

	<path d="M0 0 C2.80060734 2.80060734 2.47179338 4.90533355 2.75 8.8125 C2.84796875 10.03582031 2.9459375 11.25914063 3.046875 12.51953125 C3.00100662 15.92525819 2.49624494 17.97873617 1 21 C0.67 21 0.34 21 0 21 C0 14.07 0 7.14 0 0 Z " fill="#E2BAAD" transform="translate(0,107)"/>
	

	

	<path d="M0 0 C0.33 0.99 0.66 1.98 1 3 C1.66 3 2.32 3 3 3 C4.4606285 5.64738916 5 6.89448334 5 10 C5.8971875 10.1546875 5.8971875 10.1546875 6.8125 10.3125 C9.31537724 11.09911856 10.21314755 12.13545831 12 14 C12.99 14.33 13.98 14.66 15 15 C14.67 15.66 14.34 16.32 14 17 C11.69 15.68 9.38 14.36 7 13 C7 12.34 7 11.68 7 11 C6.01 11 5.02 11 4 11 C1.12396886 8.20614118 0.05517122 6.73101869 -0.25 2.6875 C-0.1675 1.800625 -0.085 0.91375 0 0 Z " fill="#CE6956" transform="translate(35,89)"/>
	

	<path d="M0 0 C0.33 0 0.66 0 1 0 C1.66 8.25 2.32 16.5 3 25 C2.34 25 1.68 25 1 25 C0.10250178 21.9317362 -0.11711768 19.20730024 -0.09765625 16.015625 C-0.09282227 14.61376953 -0.09282227 14.61376953 -0.08789062 13.18359375 C-0.07951172 12.21550781 -0.07113281 11.24742188 -0.0625 10.25 C-0.05798828 9.26644531 -0.05347656 8.28289063 -0.04882812 7.26953125 C-0.03706483 4.84629209 -0.02062684 2.42317727 0 0 Z " fill="#D78F7F" transform="translate(28,44)"/>
	

	

	

	

	

	

	

	

	

	

</svg>
