<?xml version="1.0" encoding="iso-8859-1"?>
<svg height="128" version="1.1" width="128" xmlns="http://www.w3.org/2000/svg">
	

	<path d="M0 0 C42.24 0 84.48 0 128 0 C128 42.24 128 84.48 128 128 C85.76 128 43.52 128 0 128 C0 85.76 0 43.52 0 0 Z " fill="#FCFBFB" transform="translate(0,0)"/>
	

	<path d="M0 0 C5.13111719 -0.10247253 10.26112166 -0.1195816 15.39311981 -0.12201309 C17.01880165 -0.1252367 18.64448322 -0.12860154 20.27016449 -0.13209915 C23.64335047 -0.13802691 27.01651104 -0.13994513 30.38970184 -0.13934708 C34.70582683 -0.13924453 39.02179072 -0.15301923 43.33787727 -0.17011929 C46.68018596 -0.18123153 50.02245515 -0.18326671 53.36478043 -0.18273735 C54.95715527 -0.1839139 56.54953125 -0.18831737 58.14188766 -0.19606972 C60.35937536 -0.2058762 62.57650517 -0.20299171 64.79399872 -0.19696426 C66.6813826 -0.19910179 66.6813826 -0.19910179 68.60689545 -0.2012825 C71.84261508 0.04043203 74.05733615 0.53701065 76.91655731 2.04595566 C78.87356506 6.50591753 77.33722622 11.28264435 76.35405731 15.85845566 C76.17495819 16.72212753 75.99585907 17.58579941 75.8113327 18.47564316 C73.70029449 28.43160031 71.18733094 38.29053758 68.65776825 48.14678574 C64.78763205 59.95451508 64.78763205 59.95451508 63.91655731 72.04595566 C65.29622316 74.02425618 66.85774656 75.40666437 68.68608856 76.97954941 C72.94865889 80.92858566 76.26330074 85.78006503 79.716362 90.4356041 C80.83324406 91.93417084 81.97173765 93.41656357 83.11186981 94.89751816 C83.74866669 95.75087753 84.38546356 96.60423691 85.04155731 97.48345566 C85.60101044 98.2246666 86.16046356 98.96587753 86.73686981 99.72954941 C88.21768749 102.6372477 88.12957773 104.82749505 87.91655731 108.04595566 C79.05590988 106.83489831 73.35005869 98.57056583 67.91655731 92.04595566 C66.66938934 90.56095566 66.66938934 90.56095566 65.39702606 89.04595566 C58.33663288 80.61965886 58.33663288 80.61965886 55.86577606 77.24517441 C54.1207934 75.01805073 54.1207934 75.01805073 52.09233856 74.07720566 C47.6482319 74.01337648 43.56878493 76.35540213 39.52202606 78.01470566 C35.38052177 79.1992746 33.16268738 78.67255882 28.91655731 78.04595566 C25.3478113 77.85878996 21.77861374 77.81486965 18.20561981 77.76470566 C16.13660937 77.72694645 14.06759896 77.689186 11.99858856 77.65142441 C8.75267683 77.5975811 5.50674226 77.54540123 2.26079559 77.49370956 C-0.88267981 77.44217718 -4.02601283 77.38490008 -7.16938019 77.32720566 C-8.14845337 77.31363022 -9.12752655 77.30005478 -10.13626862 77.28606796 C-11.03455383 77.26935043 -11.93283905 77.2526329 -12.85834503 77.23540878 C-13.65219604 77.22288071 -14.44604706 77.21035263 -15.26395416 77.19744492 C-17.08344269 77.04595566 -17.08344269 77.04595566 -18.08344269 76.04595566 C-18.37270238 73.7610963 -18.59017445 71.46694702 -18.77094269 69.17095566 C-18.87793488 67.91540878 -18.98492706 66.65986191 -19.09516144 65.36626816 C-19.08344269 62.04595566 -19.08344269 62.04595566 -17.08344269 59.04595566 C-14.32443512 58.70818417 -11.77861012 58.55697586 -9.01313019 58.53423691 C-8.21690247 58.51628571 -7.42067474 58.4983345 -6.60031891 58.47983932 C-4.05308099 58.42558597 -1.50603198 58.39179353 1.04155731 58.35845566 C2.76684411 58.32529573 4.49210592 58.29080731 6.21733856 58.25494003 C10.45027544 58.16985131 14.68315484 58.10311259 18.91655731 58.04595566 C18.91655731 56.72595566 18.91655731 55.40595566 18.91655731 54.04595566 C16.55084478 51.71338622 16.55084478 51.71338622 13.54155731 49.54595566 C10.02954102 46.89606223 7.67354903 45.08703662 5.91655731 41.04595566 C3.88296251 39.77791 3.88296251 39.77791 1.91655731 39.04595566 C1.91655731 38.38595566 1.91655731 37.72595566 1.91655731 37.04595566 C1.19468231 36.88095566 0.47280731 36.71595566 -0.27094269 36.54595566 C-3.85089878 34.63664574 -4.84108321 32.44357191 -6.84125519 29.01470566 C-9.44540005 24.88738172 -12.20497884 23.29485375 -16.83344269 21.98345566 C-17.90594269 21.67408066 -18.97844269 21.36470566 -20.08344269 21.04595566 C-21.18605357 17.73812301 -21.32085048 15.09036296 -21.39594269 11.60845566 C-21.4333255 10.47536972 -21.47070831 9.34228378 -21.50922394 8.17486191 C-20.98142642 4.29627646 -20.14510388 3.4172093 -17.08344269 1.04595566 C-14.02597809 0.44248581 -14.02597809 0.44248581 -10.42572784 0.3064537 C-9.76966867 0.27794925 -9.1136095 0.24944479 -8.43766975 0.22007656 C-5.62570704 0.110195 -2.81332146 0.062055 0 0 Z " fill="#8E0741" transform="translate(33.08344268798828,10.954044342041016)"/>
	

	<path d="M0 0 C1.94640381 -0.00762863 1.94640381 -0.00762863 3.93212891 -0.01541138 C7.68923574 -0.0272368 11.44601441 -0.02404285 15.203125 -0.015625 C16.33349182 -0.01958786 17.46385864 -0.02355072 18.628479 -0.02763367 C34.56517886 0.06517886 34.56517886 0.06517886 38.75 4.25 C39.66305161 11.10366588 38.25973822 17.74907339 36.625 24.375 C36.40416748 25.30715332 36.18333496 26.23930664 35.95581055 27.19970703 C35.23492239 30.22016574 34.49509553 33.23542613 33.75 36.25 C33.48815918 37.31412109 33.22631836 38.37824219 32.95654297 39.47460938 C31.45601286 45.55690385 29.93536331 51.63385446 28.39257812 57.70556641 C27.79890128 60.05636432 27.2208523 62.41052865 26.64453125 64.765625 C25.88067599 67.74099135 24.91579582 70.41878157 23.75 73.25 C23.75 73.91 23.75 74.57 23.75 75.25 C25.235 75.745 25.235 75.745 26.75 76.25 C35.61854754 84.63606179 44.28503877 96.32007753 49.75 107.25 C49.789992 109.24960012 49.79346799 111.25047242 49.75 113.25 C45 114.375 45 114.375 42.75 113.25 C42.75 112.59 42.75 111.93 42.75 111.25 C41.1 110.59 39.45 109.93 37.75 109.25 C38.08 108.59 38.41 107.93 38.75 107.25 C41.39 108.57 44.03 109.89 46.75 111.25 C46.5025 110.033125 46.255 108.81625 46 107.5625 C45.79117188 106.53576172 45.79117188 106.53576172 45.578125 105.48828125 C44.48772635 102.54111886 42.77801487 100.64641969 40.75 98.25 C38.75126166 95.61608401 36.7535663 92.98149191 34.76635742 90.33886719 C31.92562411 86.61663497 28.88186029 83.31417379 25.5625 80 C21.89644348 75.97832954 21.89644348 75.97832954 21.30859375 73.0546875 C21.51922076 70.65611874 22.10621373 68.57104254 22.75 66.25 C23.21877729 64.39421836 23.6833204 62.53736406 24.14453125 60.6796875 C25.15397379 56.62648243 26.17557327 52.57690642 27.21484375 48.53125 C29.71639215 38.74669143 32.13659046 28.95262608 34.1875 19.0625 C34.4513147 17.83466797 34.4513147 17.83466797 34.72045898 16.58203125 C35.53788788 12.50048853 36.00148325 9.33163492 34.75 5.25 C31.06536964 4.08956983 27.58677137 4.12303288 23.7409668 4.12060547 C23.04271286 4.11885315 22.34445892 4.11710083 21.62504578 4.11529541 C19.31641143 4.1108959 17.00785389 4.11381173 14.69921875 4.1171875 C13.0817717 4.11651308 11.46432475 4.11554191 9.84687805 4.11428833 C6.44991088 4.11281324 3.05296998 4.1149568 -0.34399414 4.11962891 C-4.65604195 4.12527598 -8.96802681 4.12207823 -13.28007221 4.11605644 C-16.62709507 4.11240266 -19.9741036 4.11361211 -23.32112694 4.11618423 C-24.90802201 4.11684289 -26.49491845 4.11606303 -28.0818119 4.11370468 C-35.94505063 4.10459663 -43.80236165 4.17733265 -51.65698242 4.57080078 C-52.85634933 4.62761017 -54.05571625 4.68441956 -55.29142761 4.74295044 C-58.2251296 5.02442149 -58.2251296 5.02442149 -60.14155579 6.60299683 C-61.91108717 9.2322891 -61.57010904 11.6371588 -61.5 14.75 C-61.48453125 15.8946875 -61.4690625 17.039375 -61.453125 18.21875 C-61.37488069 21.29550934 -61.37488069 21.29550934 -60.25 24.25 C-58.29480265 24.68080619 -56.3394352 25.11087068 -54.3828125 25.53515625 C-48.36616652 27.55172441 -45.91615406 32.91769187 -43.25 38.25 C-41.91721672 38.91776564 -40.58382789 39.58432337 -39.25 40.25 C-37.71484375 41.87890625 -37.71484375 41.87890625 -36.1875 43.8125 C-31.81280218 49.01819937 -26.59046061 53.07806693 -21.25 57.25 C-21.58 58.9 -21.91 60.55 -22.25 62.25 C-34.13 62.58 -46.01 62.91 -58.25 63.25 C-59.18247938 69.39496601 -59.18247938 69.39496601 -58.8125 75.1875 C-58.71066406 75.95964844 -58.60882813 76.73179688 -58.50390625 77.52734375 C-58.42011719 78.09582031 -58.33632813 78.66429688 -58.25 79.25 C-57.68925278 79.26030746 -57.12850555 79.27061493 -56.55076599 79.28123474 C-50.69413627 79.38973955 -44.83764681 79.50429933 -38.98120117 79.62231445 C-36.79796291 79.66552286 -34.61469392 79.70720739 -32.43139648 79.74731445 C-29.28620154 79.80535975 -26.14115925 79.8689542 -22.99609375 79.93359375 C-22.0260289 79.95030624 -21.05596405 79.96701874 -20.0565033 79.98423767 C-16.05973022 80.07084597 -12.26350031 80.24799495 -8.30151367 80.83642578 C-3.20091664 81.52771399 0.81384825 79.13448405 5.4453125 77.18359375 C8.75 76.25 8.75 76.25 11.421875 76.79296875 C14.25384811 78.56532776 15.84925908 80.46765925 17.875 83.125 C21.7859028 88.11750154 25.9150301 92.77955406 30.29541016 97.36474609 C33.75 101.03934202 33.75 101.03934202 33.75 103.25 C29.43920231 101.49374909 25.80997187 98.51127333 23.8125 94.25 C22.47648537 91.73514893 20.55624017 90.42397876 18.34765625 88.6875 C15.62267681 86.23568476 13.77674776 83.29012164 11.75 80.25 C10.925 80.415 10.1 80.58 9.25 80.75 C5.33727683 81.30896045 1.69816827 81.31807187 -2.25 81.25 C-1.92 83.23 -1.59 85.21 -1.25 87.25 C-4.91865241 89.69576827 -6.92200343 89.48607254 -11.25 89.25 C-12.24 88.755 -12.24 88.755 -13.25 88.25 C-13.25 86.6 -13.25 84.95 -13.25 83.25 C-13.81962967 83.24413376 -14.38925934 83.23826752 -14.97615051 83.23222351 C-20.89727196 83.16836036 -26.81784629 83.08395962 -32.73852539 82.98754883 C-34.94906406 82.95426492 -37.15968843 82.92624388 -39.37036133 82.90356445 C-42.54545666 82.87008241 -45.71976417 82.81776948 -48.89453125 82.76171875 C-49.88524124 82.75532883 -50.87595123 82.7489389 -51.89668274 82.74235535 C-52.81741074 82.72256119 -53.73813873 82.70276703 -54.68676758 82.68237305 C-55.4972908 82.67126999 -56.30781403 82.66016693 -57.14289856 82.64872742 C-59.7438839 82.15654221 -60.62422038 81.29758561 -62.25 79.25 C-63.58309661 75.79762161 -63.33128486 72.31680014 -63.28125 68.65625 C-63.2327405 62.83834396 -63.29889627 57.03439411 -63.46875 51.21875 C-63.49098633 50.4457959 -63.51322266 49.6728418 -63.53613281 48.87646484 C-63.60578525 46.50092427 -63.67751528 44.12545574 -63.75 41.75 C-63.91572148 36.31900666 -64.07142834 30.88816912 -64.19580078 25.45605469 C-64.23177712 23.99172034 -64.27307204 22.52750648 -64.31982422 21.06347656 C-64.38416583 19.01112015 -64.42878636 16.95920633 -64.46875 14.90625 C-64.49904297 13.73900391 -64.52933594 12.57175781 -64.56054688 11.36914062 C-64.212579 7.87414253 -63.3446993 6.04039338 -61.25 3.25 C-45.88159587 -4.43420207 -16.56866762 0.02672943 0 0 Z " fill="#D7AFC2" transform="translate(74.25,7.75)"/>
	

	<path d="M0 0 C-2.20011844 15.60136369 -6.09635928 30.75477724 -10 46 C-11.86035156 46.58178711 -11.86035156 46.58178711 -14 47 C-22.16447707 42.21835696 -28.94942688 34.21584135 -35.51660156 27.49829102 C-36.16983398 26.83112061 -36.82306641 26.1639502 -37.49609375 25.4765625 C-38.07544678 24.87924316 -38.6547998 24.28192383 -39.25170898 23.66650391 C-40.99485073 21.93416654 -40.99485073 21.93416654 -43.13183594 20.43286133 C-45 19 -45 19 -46.39453125 16.59765625 C-48.95344615 12.45731949 -52.84435727 10.06849009 -56.69921875 7.18359375 C-57.45847656 6.46300781 -58.21773437 5.74242187 -59 5 C-59 3.68 -59 2.36 -59 1 C-39.32672624 -0.09603659 -19.69593312 -0.11036514 0 0 Z " fill="#FCFBFB" transform="translate(94,25)"/>
	

	<path d="M0 0 C2.125 -0.375 2.125 -0.375 5 0 C9.45910663 3.21055677 11.57867612 7.15735224 14 12 C14.62390625 12.31195313 15.2478125 12.62390625 15.890625 12.9453125 C18.34630617 14.17315309 19.42701391 15.48331905 21.125 17.625 C25.19583501 22.46743118 29.97201023 26.19612846 35 30 C34.67 31.65 34.34 33.3 34 35 C29.99896548 35.21864204 25.99748839 35.41515858 21.99438477 35.59204102 C20.63537216 35.65511211 19.27661629 35.724016 17.91821289 35.79907227 C4.01260408 36.55997411 4.01260408 36.55997411 -2 33 C-1.84152588 32.44747559 -1.68305176 31.89495117 -1.51977539 31.32568359 C-0.95008227 28.77664806 -0.78936003 26.39858396 -0.68359375 23.7890625 C-0.64169922 22.79132812 -0.59980469 21.79359375 -0.55664062 20.765625 C-0.51732422 19.72921875 -0.47800781 18.6928125 -0.4375 17.625 C-0.39431641 16.59632812 -0.35113281 15.56765625 -0.30664062 14.5078125 C-0.11022892 9.6692257 0.05825715 4.84366614 0 0 Z " fill="#FCFAFA" transform="translate(17,34)"/>
	

	<path d="M0 0 C5.13111719 -0.10247253 10.26112166 -0.1195816 15.39311981 -0.12201309 C17.01880165 -0.1252367 18.64448322 -0.12860154 20.27016449 -0.13209915 C23.64335047 -0.13802691 27.01651104 -0.13994513 30.38970184 -0.13934708 C34.70582683 -0.13924453 39.02179072 -0.15301923 43.33787727 -0.17011929 C46.68018596 -0.18123153 50.02245515 -0.18326671 53.36478043 -0.18273735 C54.95715527 -0.1839139 56.54953125 -0.18831737 58.14188766 -0.19606972 C60.35937536 -0.2058762 62.57650517 -0.20299171 64.79399872 -0.19696426 C66.6813826 -0.19910179 66.6813826 -0.19910179 68.60689545 -0.2012825 C71.84261508 0.04043203 74.05733615 0.53701065 76.91655731 2.04595566 C78.87356506 6.50591753 77.33722622 11.28264435 76.35405731 15.85845566 C76.17495819 16.72212753 75.99585907 17.58579941 75.8113327 18.47564316 C73.70029449 28.43160031 71.18733094 38.29053758 68.65776825 48.14678574 C64.78763205 59.95451508 64.78763205 59.95451508 63.91655731 72.04595566 C65.28886777 74.0137093 66.83874831 75.3901034 68.65874481 76.95220566 C71.57408388 79.65570348 73.9327202 82.65172158 76.35405731 85.79595566 C76.80305389 86.36346542 77.25205048 86.93097519 77.71465302 87.51568222 C80.91655731 91.68070048 80.91655731 91.68070048 80.91655731 95.04595566 C77.04155731 92.42095566 77.04155731 92.42095566 75.91655731 89.04595566 C74.27352778 87.35598243 72.60184419 85.69379172 70.91655731 84.04595566 C69.79781232 82.83004268 68.69373674 81.60048363 67.60405731 80.35845566 C67.0922995 79.77708847 66.58054169 79.19572128 66.05327606 78.59673691 C64.91655731 77.04595566 64.91655731 77.04595566 64.91655731 75.04595566 C62.93655731 74.05595566 62.93655731 74.05595566 60.91655731 73.04595566 C60.78837319 68.34821065 61.13857624 64.27824013 62.27202606 59.72173691 C62.56246796 58.53789413 62.85290985 57.35405136 63.15215302 56.13433456 C63.46628143 54.88829453 63.78040985 53.64225449 64.10405731 52.35845566 C64.42540986 51.0557546 64.74595938 49.7528552 65.06572723 48.44976425 C66.48191659 42.69760924 67.93350005 36.95499321 69.42436981 31.22173691 C69.75851898 29.92465805 69.75851898 29.92465805 70.09941864 28.60137558 C70.49698662 27.06675394 70.90208178 25.53404476 71.31768036 24.00420761 C73.2277699 16.65829011 73.88663233 9.77039306 74.91655731 2.04595566 C28.88155731 2.54095566 28.88155731 2.54095566 -18.08344269 3.04595566 C-18.08344269 8.32595566 -18.08344269 13.60595566 -18.08344269 19.04595566 C-16.88719269 19.23158066 -15.69094269 19.41720566 -14.45844269 19.60845566 C-9.26870015 20.88987357 -7.19706166 23.93633754 -4.08344269 28.04595566 C-2.43855975 29.73412499 -0.77006727 31.39948881 0.91655731 33.04595566 C8.67454535 40.64561741 8.67454535 40.64561741 11.60405731 44.29595566 C13.83528632 47.13130151 13.83528632 47.13130151 16.72905731 49.29595566 C17.45093231 49.87345566 18.17280731 50.45095566 18.91655731 51.04595566 C18.91655731 51.70595566 18.91655731 52.36595566 18.91655731 53.04595566 C15.48799112 51.53612835 12.95977516 49.52881596 10.16655731 47.04595566 C9.36733856 46.34470566 8.56811981 45.64345566 7.74468231 44.92095566 C5.91655731 43.04595566 5.91655731 43.04595566 5.91655731 41.04595566 C4.59655731 40.38595566 3.27655731 39.72595566 1.91655731 39.04595566 C1.91655731 38.38595566 1.91655731 37.72595566 1.91655731 37.04595566 C1.19468231 36.88095566 0.47280731 36.71595566 -0.27094269 36.54595566 C-3.85089878 34.63664574 -4.84108321 32.44357191 -6.84125519 29.01470566 C-9.44540005 24.88738172 -12.20497884 23.29485375 -16.83344269 21.98345566 C-17.90594269 21.67408066 -18.97844269 21.36470566 -20.08344269 21.04595566 C-21.18605357 17.73812301 -21.32085048 15.09036296 -21.39594269 11.60845566 C-21.4333255 10.47536972 -21.47070831 9.34228378 -21.50922394 8.17486191 C-20.98142642 4.29627646 -20.14510388 3.4172093 -17.08344269 1.04595566 C-14.02597809 0.44248581 -14.02597809 0.44248581 -10.42572784 0.3064537 C-9.76966867 0.27794925 -9.1136095 0.24944479 -8.43766975 0.22007656 C-5.62570704 0.110195 -2.81332146 0.062055 0 0 Z " fill="#A64A74" transform="translate(33.08344268798828,10.954044342041016)"/>
	

	<path d="M0 0 C1.27794937 -0.00315216 2.55589874 -0.00630432 3.87257385 -0.009552 C5.27304112 -0.00776236 6.67350808 -0.00571144 8.07397461 -0.00341797 C9.5036165 -0.00409126 10.93325828 -0.00506149 12.36289978 -0.00631714 C15.35978281 -0.00779246 18.35663605 -0.00564453 21.35351562 -0.00097656 C25.20290778 0.00472579 29.0522303 0.0014375 32.90161991 -0.00454903 C35.85347523 -0.0081547 38.80531391 -0.00701612 41.75716972 -0.00442123 C43.17700649 -0.00375225 44.59684474 -0.0045794 46.01667976 -0.00690079 C47.99679665 -0.00942793 49.97691881 -0.00489618 51.95703125 0 C53.08573135 0.00079559 54.21443146 0.00159119 55.37733459 0.00241089 C57.91381836 0.12939453 57.91381836 0.12939453 58.91381836 1.12939453 C57.16916477 17.87806901 52.20601384 35.19367742 46.91381836 51.12939453 C38.72739302 50.48732196 35.48441554 46.69999171 29.91381836 41.12939453 C28.41856086 39.81149421 26.91813018 38.49945034 25.41381836 37.19189453 C21.84593124 34.05737806 18.88448702 30.8202253 15.91381836 27.12939453 C15.25381836 26.79939453 14.59381836 26.46939453 13.91381836 26.12939453 C14.24381836 25.13939453 14.57381836 24.14939453 14.91381836 23.12939453 C15.37643066 23.60248047 15.83904297 24.07556641 16.31567383 24.56298828 C28.20605123 37.40733916 28.20605123 37.40733916 41.91381836 48.12939453 C42.90381836 48.12939453 43.89381836 48.12939453 44.91381836 48.12939453 C48.80083442 32.84301442 52.49557125 17.52756541 55.91381836 2.12939453 C54.97924805 2.1596875 54.04467773 2.18998047 53.08178711 2.22119141 C34.3534475 2.81851333 15.65417045 3.30988392 -3.08618164 3.12939453 C-1.75334646 7.32242195 -0.2010957 9.19945634 3.35131836 11.75439453 C6.08137749 13.74234533 8.59464634 15.66853676 10.91381836 18.12939453 C10.58381836 18.78939453 10.25381836 19.44939453 9.91381836 20.12939453 C9.33374023 19.58669922 8.75366211 19.04400391 8.15600586 18.48486328 C3.89231059 14.57999385 0.12499213 11.67438637 -5.08618164 9.12939453 C-7.52368164 6.62939453 -7.52368164 6.62939453 -9.08618164 4.12939453 C-8.75618164 3.13939453 -8.42618164 2.14939453 -8.08618164 1.12939453 C-5.32355594 -0.25191832 -3.09154762 0.00217762 0 0 Z " fill="#A03D6B" transform="translate(38.086181640625,22.87060546875)"/>
	

	<path d="M0 0 C-2.20011844 15.60136369 -6.09635928 30.75477724 -10 46 C-11.86035156 46.58178711 -11.86035156 46.58178711 -14 47 C-22.16447707 42.21835696 -28.94942688 34.21584135 -35.51660156 27.49829102 C-36.16983398 26.83112061 -36.82306641 26.1639502 -37.49609375 25.4765625 C-38.07544678 24.87924316 -38.6547998 24.28192383 -39.25170898 23.66650391 C-40.99485073 21.93416654 -40.99485073 21.93416654 -43.13183594 20.43286133 C-45 19 -45 19 -46.39453125 16.59765625 C-48.95344615 12.45731949 -52.84435727 10.06849009 -56.69921875 7.18359375 C-57.45847656 6.46300781 -58.21773437 5.74242187 -59 5 C-59 3.68 -59 2.36 -59 1 C-39.32672624 -0.09603659 -19.69593312 -0.11036514 0 0 Z M-29 2.5 C-37.67937554 2.93531511 -46.31015484 3.12182026 -55 3 C-55.31035147 5.926836 -55.31035147 5.926836 -53.8125 7.5 C-51.99477998 9.09868321 -51.99477998 9.09868321 -49.625 10.3125 C-46.93239443 12.04346073 -45.22164732 13.95940997 -43.25 16.4609375 C-41.86217398 18.22373375 -41.86217398 18.22373375 -39.5 20.5 C-37 23 -37 23 -34.5625 26 C-32.6703169 28.21523876 -31.09528881 29.83780456 -28.875 31.625 C-26 34 -26 34 -24.4375 36.125 C-23.04201215 38.18302933 -23.04201215 38.18302933 -20.5 39.5 C-17.90285134 41.05828919 -16.64331445 42.4917832 -15 45 C-13.02 44.505 -13.02 44.505 -11 44 C-10.89187988 43.27731934 -10.78375977 42.55463867 -10.67236328 41.81005859 C-9.3199537 33.20142486 -7.27667797 24.88618198 -5.03515625 16.47265625 C-3.17817748 9.34264898 -3.17817748 9.34264898 -3 2 C-11.68984516 1.87817974 -20.32062446 2.06468489 -29 2.5 Z " fill="#D4A7BC" transform="translate(94,25)"/>
	

	<path d="M0 0 C1.9375 0.625 1.9375 0.625 4 2 C4.75 5.125 4.75 5.125 5 8 C1.04886452 9.30351387 -2.93824743 9.12612281 -7.046875 9.09765625 C-7.81807678 9.0962413 -8.58927856 9.09482635 -9.3838501 9.09336853 C-11.83927338 9.08778534 -14.29460442 9.07523595 -16.75 9.0625 C-18.41796743 9.05748283 -20.08593629 9.0529203 -21.75390625 9.04882812 C-25.83597287 9.03782141 -29.91797081 9.02056836 -34 9 C-34 13.29 -34 17.58 -34 22 C-26.41945532 22.0742295 -18.83912286 22.12864068 -11.25830078 22.16479492 C-8.68013829 22.17986905 -6.10200138 22.20033167 -3.52392578 22.22631836 C0.18463461 22.26276086 3.89285554 22.27974052 7.6015625 22.29296875 C9.32688705 22.31619453 9.32688705 22.31619453 11.08706665 22.33988953 C16.8857954 22.3411054 20.9518719 22.17379773 26 19 C29.74329506 18.38466383 33.25572415 18.37012182 37 19 C39.75 21.25 39.75 21.25 41 24 C40.75 26.3125 40.75 26.3125 40 28 C38.828125 26.47005208 37.65625 24.94010417 36.484375 23.41015625 C34.56980098 21.59131093 33.65019696 21.17912943 31 21 C27.44870578 22.14195088 24.05617995 23.55384552 20.60546875 24.96875 C16.46396446 26.15331894 14.24613006 25.62660316 10 25 C6.43125399 24.8128343 2.86205643 24.768914 -0.7109375 24.71875 C-2.77994794 24.68099079 -4.84895835 24.64323034 -6.91796875 24.60546875 C-10.16388048 24.55162544 -13.40981505 24.49944557 -16.65576172 24.44775391 C-19.79923712 24.39622152 -22.94257014 24.33894442 -26.0859375 24.28125 C-27.06501068 24.26767456 -28.04408386 24.25409912 -29.05282593 24.2401123 C-30.40025375 24.21503601 -30.40025375 24.21503601 -31.77490234 24.18945312 C-32.56875336 24.17692505 -33.36260437 24.16439697 -34.18051147 24.15148926 C-36 24 -36 24 -37 23 C-37.28925969 20.71514064 -37.50673176 18.42099136 -37.6875 16.125 C-37.79449219 14.86945313 -37.90148438 13.61390625 -38.01171875 12.3203125 C-38 9 -38 9 -36 6 C-33.24099243 5.66222851 -30.69516743 5.51102021 -27.9296875 5.48828125 C-27.13345978 5.47033005 -26.33723206 5.45237885 -25.51687622 5.43388367 C-22.9696383 5.37963031 -20.42258929 5.34583788 -17.875 5.3125 C-16.1497132 5.27934007 -14.42445139 5.24485166 -12.69921875 5.20898438 C-8.46628187 5.12389565 -4.23340247 5.05715693 0 5 C0 3.35 0 1.7 0 0 Z " fill="#A54872" transform="translate(52,64)"/>
	

	

	

	<path d="M0 0 C2.125 -0.4375 2.125 -0.4375 5 0 C7.276147 2.12689146 9.1458722 4.5023433 11 7 C7.40608886 5.66511872 4.24509304 4.03977277 1 2 C1.515625 2.886875 2.03125 3.77375 2.5625 4.6875 C4.20365013 8.46928073 3.82838818 9.14523368 3 13 C2.97122941 16.51412237 3.06459704 20.01458702 3.16015625 23.52734375 C3 27 3 27 1 33 C11.56 33 22.12 33 33 33 C29.72171131 28.18624808 29.72171131 28.18624808 27 27 C27.33 26.01 27.66 25.02 28 24 C30.31 25.98 32.62 27.96 35 30 C34.67 31.65 34.34 33.3 34 35 C29.99896548 35.21864204 25.99748839 35.41515858 21.99438477 35.59204102 C20.63537216 35.65511211 19.27661629 35.724016 17.91821289 35.79907227 C4.01260408 36.55997411 4.01260408 36.55997411 -2 33 C-1.84152588 32.44747559 -1.68305176 31.89495117 -1.51977539 31.32568359 C-0.95008227 28.77664806 -0.78936003 26.39858396 -0.68359375 23.7890625 C-0.64169922 22.79132812 -0.59980469 21.79359375 -0.55664062 20.765625 C-0.51732422 19.72921875 -0.47800781 18.6928125 -0.4375 17.625 C-0.39431641 16.59632812 -0.35113281 15.56765625 -0.30664062 14.5078125 C-0.11022892 9.6692257 0.05825715 4.84366614 0 0 Z " fill="#E5CAD7" transform="translate(17,34)"/>
	

	<path d="M0 0 C1.69800499 -0.00945648 1.69800499 -0.00945648 3.43031311 -0.019104 C4.66043625 -0.01505554 5.89055939 -0.01100708 7.15795898 -0.00683594 C8.42115463 -0.00874939 9.68435028 -0.01066284 10.98582458 -0.01263428 C13.66679427 -0.01399815 16.34740211 -0.01128776 19.02832031 -0.00195312 C22.44206057 0.00936102 25.85548353 0.00293478 29.26921177 -0.00909805 C32.54463824 -0.0181347 35.82002834 -0.0117713 39.09545898 -0.00683594 C40.31141251 -0.0108844 41.52736603 -0.01493286 42.78016663 -0.019104 C59.40447315 0.07170947 59.40447315 0.07170947 63.59155273 4.25878906 C64.80910441 12.05428228 62.56220556 19.77500035 60.59155273 27.25878906 C60.26155273 27.25878906 59.93155273 27.25878906 59.59155273 27.25878906 C60.05402806 20.06608067 60.84232341 13.25570636 62.59155273 6.25878906 C60.28155273 5.59878906 57.97155273 4.93878906 55.59155273 4.25878906 C55.59155273 3.59878906 55.59155273 2.93878906 55.59155273 2.25878906 C34.80155273 2.25878906 14.01155273 2.25878906 -7.40844727 2.25878906 C-4.78745777 -0.36220044 -3.65305123 0.00581981 0 0 Z " fill="#E7CEDA" transform="translate(49.408447265625,7.7412109375)"/>
	

	<path d="M0 0 C2.83449642 1.76918233 4.42714633 3.67047237 6.453125 6.328125 C10.3640278 11.32062654 14.4931551 15.98267906 18.87353516 20.56787109 C22.328125 24.24246702 22.328125 24.24246702 22.328125 26.453125 C18.01732731 24.69687409 14.38809687 21.71439833 12.390625 17.453125 C11.05461037 14.93827393 9.13436517 13.62710376 6.92578125 11.890625 C4.20080181 9.43880976 2.35487276 6.49324664 0.328125 3.453125 C-0.8475 3.6696875 -0.8475 3.6696875 -2.046875 3.890625 C-6.57430249 4.59315685 -11.11114572 5.02949995 -15.671875 5.453125 C-16.001875 7.103125 -16.331875 8.753125 -16.671875 10.453125 C-18.321875 10.453125 -19.971875 10.453125 -21.671875 10.453125 C-22.331875 8.473125 -22.991875 6.493125 -23.671875 4.453125 C-22.15980469 4.53433594 -22.15980469 4.53433594 -20.6171875 4.6171875 C-15.1849777 4.39129363 -10.95404668 2.41008441 -5.9765625 0.3515625 C-2.671875 -0.546875 -2.671875 -0.546875 0 0 Z " fill="#DBB7C8" transform="translate(85.671875,84.546875)"/>
	

	<path d="M0 0 C0.33 0.66 0.66 1.32 1 2 C1.99 2.33 2.98 2.66 4 3 C12.86854754 11.38606179 21.53503877 23.07007753 27 34 C27.039992 35.99960012 27.04346799 38.00047242 27 40 C22.25 41.125 22.25 41.125 20 40 C20 39.34 20 38.68 20 38 C18.35 37.34 16.7 36.68 15 36 C15.33 35.34 15.66 34.68 16 34 C18.64 35.32 21.28 36.64 24 38 C23.7525 36.783125 23.505 35.56625 23.25 34.3125 C23.11078125 33.62800781 22.9715625 32.94351563 22.828125 32.23828125 C21.73742742 29.29031091 20.02909436 27.39704633 18 25 C16.83131193 23.46560002 15.66274322 21.93110507 14.49755859 20.39404297 C10.36478191 14.94783589 6.12707 9.75760296 1.3984375 4.8046875 C0 3 0 3 0 0 Z " fill="#DAB5C6" transform="translate(97,81)"/>
	

	<path d="M0 0 C0.58984375 1.859375 0.58984375 1.859375 1 4 C-0.4375 6.25 -0.4375 6.25 -2 8 C-1.67 5.69 -1.34 3.38 -1 1 C-1.93457031 1.03029297 -2.86914062 1.06058594 -3.83203125 1.09179688 C-22.56037086 1.6891188 -41.25964791 2.18048939 -60 2 C-59.34 3.98 -58.68 5.96 -58 8 C-61 7 -61 7 -63 4 C-63 3.01 -63 2.02 -63 1 C-42.01709506 -0.361579 -21.01537582 -0.09766906 0 0 Z " fill="#B4678A" transform="translate(95,24)"/>
	

	<path d="M0 0 C0 0.33 0 0.66 0 1 C-0.71027344 1.06058594 -1.42054687 1.12117187 -2.15234375 1.18359375 C-3.07144531 1.26738281 -3.99054687 1.35117188 -4.9375 1.4375 C-5.85402344 1.51871094 -6.77054688 1.59992187 -7.71484375 1.68359375 C-9.96159732 1.76044976 -9.96159732 1.76044976 -11 3 C-14.15188659 3.20310486 -17.2960512 3.34660661 -20.453125 3.4296875 C-23.2424701 3.55992929 -25.49005577 3.70433537 -27.93359375 5.12109375 C-29.52943825 7.93281977 -29.528796 10.48167928 -29.6875 13.6875 C-29.75324219 14.86699219 -29.81898437 16.04648437 -29.88671875 17.26171875 C-29.94279297 18.61716797 -29.94279297 18.61716797 -30 20 C-30.66 20 -31.32 20 -32 20 C-32.08150744 17.93816367 -32.1394194 15.87538651 -32.1875 13.8125 C-32.22230469 12.66394531 -32.25710937 11.51539063 -32.29296875 10.33203125 C-31.97323533 6.6955965 -31.18158273 4.8894086 -29 2 C-20.97838684 -2.01080658 -8.78854129 -0.09175971 0 0 Z " fill="#DEBBCB" transform="translate(42,9)"/>
	

	

	

	<path d="M0 0 C0 0.33 0 0.66 0 1 C-7.3373875 2.09280239 -14.65373073 2.33102052 -22.0625 2.5625 C-23.34987061 2.6049585 -24.63724121 2.64741699 -25.96362305 2.69116211 C-34.64599335 2.96377175 -43.31390384 3.13501704 -52 3 C-52 3.66 -52 4.32 -52 5 C-52.66 5 -53.32 5 -54 5 C-54.33 4.01 -54.66 3.02 -55 2 C-54 1 -54 1 -52.05859375 0.9375 C-51.19363281 0.958125 -50.32867187 0.97875 -49.4375 1 C-44.92419139 1.0459955 -40.49976564 0.84576641 -36 0.5 C-24.02693533 -0.38123933 -11.99650712 -0.08557649 0 0 Z " fill="#E7CEDA" transform="translate(91,26)"/>
	

	<path d="M0 0 C0.66 0 1.32 0 2 0 C2.495 3.465 2.495 3.465 3 7 C-9.68398772 7.85785424 -22.28840915 8.11941996 -35 8 C-35.90575383 11.34721486 -36.10389209 14.27306478 -36.0625 17.75 C-36.05347656 18.73484375 -36.04445313 19.7196875 -36.03515625 20.734375 C-36.02355469 21.48203125 -36.01195312 22.2296875 -36 23 C-36.33 23 -36.66 23 -37 23 C-37.22185844 20.73044814 -37.42705515 18.45926245 -37.625 16.1875 C-37.74101563 14.92292969 -37.85703125 13.65835938 -37.9765625 12.35546875 C-38 9 -38 9 -36 6 C-33.24099243 5.66222851 -30.69516743 5.51102021 -27.9296875 5.48828125 C-27.13345978 5.47033005 -26.33723206 5.45237885 -25.51687622 5.43388367 C-22.9696383 5.37963031 -20.42258929 5.34583788 -17.875 5.3125 C-16.1497132 5.27934007 -14.42445139 5.24485166 -12.69921875 5.20898438 C-8.46628187 5.12389565 -4.23340247 5.05715693 0 5 C0 3.35 0 1.7 0 0 Z " fill="#B36689" transform="translate(52,64)"/>
	

	

	

	<path d="M0 0 C0.99 0.33 1.98 0.66 3 1 C3.0580476 4.27075883 3.09361165 7.54138524 3.125 10.8125 C3.14175781 11.74126953 3.15851562 12.67003906 3.17578125 13.62695312 C3.18222656 14.51962891 3.18867188 15.41230469 3.1953125 16.33203125 C3.20578613 17.15421143 3.21625977 17.9763916 3.22705078 18.82348633 C3 21 3 21 1 24 C0.01956036 21.05868109 -0.11621202 19.17498335 -0.09765625 16.11328125 C-0.09443359 15.17548828 -0.09121094 14.23769531 -0.08789062 13.27148438 C-0.07532227 11.80678711 -0.07532227 11.80678711 -0.0625 10.3125 C-0.05798828 9.32443359 -0.05347656 8.33636719 -0.04882812 7.31835938 C-0.03704303 4.87884526 -0.02059011 2.43945311 0 0 Z " fill="#B4678A" transform="translate(13,37)"/>
	

	<path d="M0 0 C5.80910095 3.80063519 9.90320962 8.08444899 14.1015625 13.59375 C15.79337795 15.73810868 17.53091304 17.61411389 19.5 19.5 C22 22 22 22 22 24 C18.75043399 22.91681133 18.16607364 22.29783983 16.0625 19.75 C13.72937866 16.98444668 11.35232164 14.28467605 8.875 11.6484375 C8.329646 11.06739258 7.78429199 10.48634766 7.22241211 9.88769531 C6.12252806 8.71970548 5.01920789 7.55494117 3.91235352 6.39355469 C0 2.2202115 0 2.2202115 0 0 Z " fill="#A74C75" transform="translate(93,92)"/>
	

	<path d="M0 0 C1.32951211 2.65902423 0.74567907 3.7864491 0.0390625 6.6484375 C-0.29738281 8.03289063 -0.29738281 8.03289063 -0.640625 9.4453125 C-0.88296875 10.41210938 -1.1253125 11.37890625 -1.375 12.375 C-1.60960938 13.3340625 -1.84421875 14.293125 -2.0859375 15.28125 C-2.71706131 17.85594827 -3.35617804 20.42845222 -4 23 C-4.19029785 23.76135254 -4.3805957 24.52270508 -4.57666016 25.30712891 C-4.7163623 25.86577637 -4.85606445 26.42442383 -5 27 C-5.66 27 -6.32 27 -7 27 C-4.84247552 8.19146307 -4.84247552 8.19146307 -2 1 C-1.34 0.67 -0.68 0.34 0 0 Z " fill="#A34470" transform="translate(93,38)"/>
	

	

	

	

	

	

	

	<path d="M0 0 C5.97646444 5.82322176 5.97646444 5.82322176 6.0625 10.125 C6.041875 11.07375 6.02125 12.0225 6 13 C3.5625 12.625 3.5625 12.625 1 12 C0.67 11.34 0.34 10.68 0 10 C1.32 10 2.64 10 4 10 C3.2884375 8.9171875 3.2884375 8.9171875 2.5625 7.8125 C1.05847097 5.10524774 0.43400818 3.03805725 0 0 Z " fill="#A74D76" transform="translate(115,106)"/>
	

	

	

	

	

	

	

	

	

	

</svg>
