<?xml version="1.0" encoding="iso-8859-1"?>
<svg height="128" version="1.1" width="128" xmlns="http://www.w3.org/2000/svg">
	

	<path d="M0 0 C42.24 0 84.48 0 128 0 C128 42.24 128 84.48 128 128 C85.76 128 43.52 128 0 128 C0 85.76 0 43.52 0 0 Z " fill="#FCFCFC" transform="translate(0,0)"/>
	

	<path d="M0 0 C1.40625 1.890625 1.40625 1.890625 2.5 4.25 C3.8576152 7.13978093 4.99330647 8.99347693 7.30078125 11.2421875 C10.75894201 14.77541687 13.12290524 18.6694512 15.6875 22.875 C16.75091998 24.59218996 17.81604497 26.30832513 18.8828125 28.0234375 C19.67220215 29.2933252 19.67220215 29.2933252 20.47753906 30.58886719 C22.59692655 33.94535705 24.82554343 37.22132789 27.0625 40.5 C30.93299934 46.23474516 34.55109828 52.10140273 38.0625 58.0625 C38.54017822 58.86042969 39.01785645 59.65835938 39.51000977 60.48046875 C41.93691779 64.66189086 43.6141131 68.07797316 44 73 C27.805185 83.22677942 6.60315769 84.2506506 -12 85.75 C-12.79936981 85.81502716 -13.59873962 85.88005432 -14.42233276 85.947052 C-21.87561434 86.54174346 -29.33686945 87.06913838 -36.8125 87.265625 C-38.15248047 87.30091309 -38.15248047 87.30091309 -39.51953125 87.33691406 C-42.70039555 86.90486753 -44.47220215 85.97309857 -47 84 C-49.89632686 78.72486143 -49.44352389 72.991456 -49.5 67.125 C-49.54125 66.06152344 -49.5825 64.99804688 -49.625 63.90234375 C-49.67647839 58.7223305 -49.69587264 55.10145333 -46.15625 51.1171875 C-45.61033203 50.58657715 -45.06441406 50.0559668 -44.50195312 49.50927734 C-42.33649545 47.3332599 -41.30350355 44.75513251 -40 42 C-38.71299949 40.13384926 -37.37628442 38.30131343 -36 36.5 C-35.20078125 35.45328125 -34.4015625 34.4065625 -33.578125 33.328125 C-32.71967322 32.21803544 -31.8602857 31.10866893 -31 30 C-30.57654297 29.45279297 -30.15308594 28.90558594 -29.71679688 28.34179688 C-26.5080133 24.2037728 -23.26367178 20.09483812 -20 16 C-19.43071777 15.28569824 -18.86143555 14.57139648 -18.27490234 13.83544922 C-16.50084081 11.61533793 -14.72040076 9.40051689 -12.9375 7.1875 C-12.37708008 6.4872168 -11.81666016 5.78693359 -11.23925781 5.06542969 C-10.71557617 4.41864258 -10.19189453 3.77185547 -9.65234375 3.10546875 C-8.95612915 2.24151489 -8.95612915 2.24151489 -8.24584961 1.36010742 C-5.5956791 -1.53311224 -3.54880754 -1.16102963 0 0 Z " fill="#F12D1B" transform="translate(65,17)"/>
	

	

	

	

	

	

	

	

	

	

	

	

	

	

	

	

	

	

	

	

	

	

	

	

	

	

	

	

</svg>
