<?xml version="1.0" encoding="iso-8859-1"?>
<svg height="128" version="1.1" width="128" xmlns="http://www.w3.org/2000/svg">
	

	<path d="M0 0 C42.24 0 84.48 0 128 0 C128 42.24 128 84.48 128 128 C85.76 128 43.52 128 0 128 C0 85.76 0 43.52 0 0 Z " fill="#CA800F" transform="translate(0,0)"/>
	

	<path d="M0 0 C8.17808789 6.64768548 15.04512448 15.44367217 17 26 C18.01000081 37.02218274 13.64076068 44.4283963 7 53 C-1.73953832 62.7668435 -13.75152327 69.1002709 -26.84765625 70.25 C-41.56373413 70.82219258 -55.15074246 66.32591117 -66.49609375 56.93359375 C-72.81765557 50.97448235 -80.59105607 42.41946873 -81.16796875 33.36328125 C-81.25310879 20.06440734 -77.75978966 11.61808185 -68.796875 1.8125 C-50.2435519 -16.90215635 -20.17158835 -13.934962 0 0 Z " fill="#FCFAF4" transform="translate(92,33)"/>
	

	

	<path d="M0 0 C6.54030721 4.72224348 12.00147493 10.30929077 13.44140625 18.515625 C13.72375339 24.45402287 12.54924392 29.20453279 9 34 C0.28548405 43.42787235 -9.4192212 46.31898581 -21.9375 47.3125 C-34.45622676 46.92770307 -45.80438384 41.95644925 -54.75390625 33.42578125 C-58.53334705 29.34398518 -61.6357823 25.38202146 -62.24609375 19.71484375 C-61.81818022 11.66730862 -57.44967177 6.14771669 -51.8125 0.75 C-47.2933795 -3.09654237 -42.64605167 -5.27400493 -37 -7 C-36.37996094 -7.19207031 -35.75992188 -7.38414063 -35.12109375 -7.58203125 C-22.46258022 -10.07643447 -10.56128373 -7.01543757 0 0 Z M-43 1 C-43.85722656 1.4021875 -44.71445312 1.804375 -45.59765625 2.21875 C-51.94739791 5.58532879 -55.52434369 9.20118267 -58 16 C-59.01610301 20.43390404 -57.7459187 22.77674403 -55.4375 26.5 C-48.48320094 36.0400777 -42.63230643 38.03577282 -31 40 C-30.01 40.23976562 -29.02 40.47953125 -28 40.7265625 C-19.81026544 42.65766468 -13.95442817 41.23835557 -6.6875 37.125 C-3.90115417 34.92184283 -1.43979402 32.57921082 1 30 C1.495 29.505 1.495 29.505 2 29 C3.09084343 18.77115213 3.09084343 18.77115213 -0.375 9.4375 C-6.51643494 2.77338975 -14.9968546 -1.5706463 -24.00390625 -2.21484375 C-30.91654313 -2.41509395 -36.71929145 -1.95562755 -43 1 Z " fill="#CA800E" transform="translate(82,42)"/>
	

	

	<path d="M0 0 C1.71484375 1.18359375 1.71484375 1.18359375 2.71484375 3.18359375 C-0.84053658 1.80130302 -4.27795546 0.25793739 -7.72265625 -1.37890625 C-11.63616045 -3.15302815 -14.95547716 -4.54004375 -19.28515625 -4.81640625 C-19.98640625 -4.87828125 -20.68765625 -4.94015625 -21.41015625 -5.00390625 C-31.60045687 -5.52648577 -41.15239114 -2.51875079 -48.9921875 4.01171875 C-49.41886719 4.3984375 -49.84554687 4.78515625 -50.28515625 5.18359375 C-49.4653125 4.76207031 -48.64546875 4.34054688 -47.80078125 3.90625 C-46.18429688 3.08447266 -46.18429688 3.08447266 -44.53515625 2.24609375 C-43.4678125 1.70082031 -42.40046875 1.15554687 -41.30078125 0.59375 C-36.25477504 -1.76584617 -31.94650789 -1.99882703 -26.41015625 -2.00390625 C-25.36794922 -2.02227539 -25.36794922 -2.02227539 -24.3046875 -2.04101562 C-19.90823232 -2.05343499 -16.3680639 -1.43549032 -12.28515625 0.18359375 C-15.59373554 1.28645351 -16.09236805 1.02290575 -19.28515625 0.18359375 C-27.1602011 -0.36460214 -34.05815543 -0.09778346 -41.28515625 3.18359375 C-42.46078125 3.67666016 -42.46078125 3.67666016 -43.66015625 4.1796875 C-49.84455464 7.11931108 -52.88825709 10.78044886 -55.28515625 17.18359375 C-56.31040512 21.65740702 -54.99992734 23.99875588 -52.66015625 27.74609375 C-45.93895945 36.96063775 -40.35652558 38.23618677 -29.28515625 40.18359375 C-28.29386719 40.41304687 -27.30257812 40.6425 -26.28125 40.87890625 C-19.78014983 42.34003545 -14.69245071 41.99042299 -8.28515625 40.18359375 C-14.26289253 44.92455701 -20.13398008 44.71145279 -27.49609375 43.95703125 C-29.09688032 43.72834745 -30.69203079 43.46065905 -32.28515625 43.18359375 C-23.91966485 46.43106712 -13.25371077 46.7145768 -4.78515625 43.55859375 C3.18477562 39.75506808 8.42633532 35.44716313 11.96484375 27.30859375 C13.39058603 21.3680009 11.45552904 15.86983238 9.71484375 10.18359375 C12.922515 11.78742937 13.43763735 13.87446807 14.71484375 17.18359375 C15.67701813 23.9640932 14.82311694 29.63280891 10.71484375 35.18359375 C2.0003278 44.6114661 -7.70437745 47.50257956 -20.22265625 48.49609375 C-32.74138301 48.11129682 -44.08954009 43.140043 -53.0390625 34.609375 C-56.8185033 30.52757893 -59.92093855 26.56561521 -60.53125 20.8984375 C-60.10333647 12.85090237 -55.73482802 7.33131044 -50.09765625 1.93359375 C-45.57853575 -1.91294862 -40.93120792 -4.09041118 -35.28515625 -5.81640625 C-34.66511719 -6.00847656 -34.04507813 -6.20054688 -33.40625 -6.3984375 C-21.2527773 -8.7933207 -10.51154921 -5.93006555 0 0 Z " fill="#D39B46" transform="translate(80.28515625,40.81640625)"/>
	

	

	<path d="M0 0 C3.17996878 2.51942379 5.28956385 4.85830391 7 8.5625 C7.3984375 12.26171875 7.3984375 12.26171875 7.375 16.25 C7.38660156 16.92611328 7.39820313 17.60222656 7.41015625 18.29882812 C7.3984375 20.26171875 7.3984375 20.26171875 7 23.5625 C6.01 24.2225 5.02 24.8825 4 25.5625 C4.06960937 24.5725 4.13921875 23.5825 4.2109375 22.5625 C4.78711492 13.76472845 4.78711492 13.76472845 1.375 5.875 C-5.23262569 -1.20788415 -12.95335789 -3.65367602 -22.375 -4.875 C-29.02426797 -4.07250214 -35.94967838 -2.27912069 -41.7109375 1.19921875 C-44 2.5625 -44 2.5625 -47 2.5625 C-47.144375 3.51125 -47.28875 4.46 -47.4375 5.4375 C-48 8.5625 -48 8.5625 -49 10.5625 C-49.47048843 15.62025062 -48.43208825 19.11764907 -46 23.5625 C-43.55690423 25.47994593 -43.55690423 25.47994593 -41 26.5625 C-40.34 26.8925 -39.68 27.2225 -39 27.5625 C-36.02159047 28.08603136 -33.0344531 28.52262433 -30.04296875 28.96484375 C-27 29.5625 -27 29.5625 -24.4453125 30.609375 C-18.75217562 32.82842516 -12.15519719 32.28316102 -6.5625 30 C-2.95665361 28.54500935 -2.41631171 28.42873502 1 29.5625 C-4.46616697 33.73404848 -10.54960627 36.83019286 -17.59765625 36.40625 C-20.43299983 35.90515835 -23.20056772 35.23494849 -26 34.5625 C-27.15242188 34.3871875 -28.30484375 34.211875 -29.4921875 34.03125 C-39.16669356 32.45004041 -44.26219844 29.24534177 -50.46875 21.80078125 C-53.21601964 17.81909654 -53.47723485 14.34935573 -52.64453125 9.7578125 C-50.62218539 2.86957995 -46.68817941 0.13159985 -40.5 -3.3125 C-27.06989183 -10.3099629 -12.16777647 -8.98845423 0 0 Z " fill="#E9D0A3" transform="translate(77,47.4375)"/>
	

	

	

	<path d="M0 0 C1.39973958 1.20442708 2.79947917 2.40885417 4.19921875 3.61328125 C6.36395653 5.28027021 8.6430634 6.61920431 11 8 C11.79019531 8.495 12.58039062 8.99 13.39453125 9.5 C26.59445538 17.68864437 40.12685937 20.0739308 55.4765625 16.78125 C59.17332602 15.63674117 62.43165896 13.85791705 65.7734375 11.92578125 C68.35064993 10.85420345 69.43235735 11.03273736 72 12 C59.91621826 20.44826001 46.8297153 23.86486799 32.234375 21.3515625 C19.31178552 18.24056874 8.44550994 12.47157924 0 2 C0 1.34 0 0.68 0 0 Z " fill="#E8CD9F" transform="translate(19,81)"/>
	

	

	

	

	

	

	

	

	

	

	

</svg>
