<?xml version="1.0" encoding="UTF-8"?>
<svg version="1.1" xmlns="http://www.w3.org/2000/svg" width="32" height="32">
<path d="M0 0 C10.56 0 21.12 0 32 0 C32 10.56 32 21.12 32 32 C21.44 32 10.88 32 0 32 C0 21.44 0 10.88 0 0 Z " fill="#369336" transform="translate(0,0)"/>
<path d="M0 0 C2.64 0 5.28 0 8 0 C8.33 1.32 8.66 2.64 9 4 C10.65 4 12.3 4 14 4 C14 4.99 14 5.98 14 7 C15.65 7 17.3 7 19 7 C19 6.01 19 5.02 19 4 C20.65 4 22.3 4 24 4 C24 4.99 24 5.98 24 7 C25.65 7 27.3 7 29 7 C29 7.33 29 7.66 29 8 C27.02 8 25.04 8 23 8 C23 8.99 23 9.98 23 11 C21.68 11 20.36 11 19 11 C19 10.01 19 9.02 19 8 C17.35 8 15.7 8 14 8 C14 8.99 14 9.98 14 11 C12.35 10.67 10.7 10.34 9 10 C9.33 11.65 9.66 13.3 10 15 C9.34 15 8.68 15 8 15 C8.8353125 16.1446875 8.8353125 16.1446875 9.6875 17.3125 C11.61102597 22.71669202 9.8295373 26.72717967 8 32 C5.36 32 2.72 32 0 32 C0 21.44 0 10.88 0 0 Z " fill="#359BE3" transform="translate(0,0)"/>
<path d="M0 0 C2.31243792 -0.02685412 4.6249627 -0.04632841 6.9375 -0.0625 C8.22527344 -0.07410156 9.51304688 -0.08570313 10.83984375 -0.09765625 C14 0 14 0 15 1 C15.07205511 2.68608966 15.08386068 4.37500659 15.0625 6.0625 C15.05347656 6.98160156 15.04445313 7.90070312 15.03515625 8.84765625 C15.02355469 9.55792969 15.01195312 10.26820312 15 11 C12.36 11 9.72 11 7 11 C6.67 10.34 6.34 9.68 6 9 C7.65 9 9.3 9 11 9 C10.67 6.69 10.34 4.38 10 2 C8.35 2 6.7 2 5 2 C5 5.96 5 9.92 5 14 C10.67675932 14.38435046 10.67675932 14.38435046 16 13 C16 13.99 16 14.98 16 16 C13.27457733 17.36271133 11.03912726 17.16923601 8 17.1875 C6.9275 17.20167969 5.855 17.21585938 4.75 17.23046875 C2 17 2 17 0 15 C-0.14497985 12.41935871 -0.18677545 9.95056116 -0.125 7.375 C-0.11597656 6.66859375 -0.10695313 5.9621875 -0.09765625 5.234375 C-0.07407603 3.48943902 -0.03820461 1.74467705 0 0 Z " fill="#F8F7F3" transform="translate(12,12)"/>
<path d="M0 0 C0.66 0.66 1.32 1.32 2 2 C4.06874034 2.6425235 4.06874034 2.6425235 6 3 C6 2.01 6 1.02 6 0 C7.65 0 9.3 0 11 0 C11 0.99 11 1.98 11 3 C12.32 3 13.64 3 15 3 C15.33 2.01 15.66 1.02 16 0 C16.33 1.32 16.66 2.64 17 4 C12.71 4 8.42 4 4 4 C4.14024219 6.47960136 4.2869185 8.95852402 4.4375 11.4375 C4.47681641 12.14455078 4.51613281 12.85160156 4.55664062 13.58007812 C4.47624438 17.08690419 4.47624438 17.08690419 6 20 C7.68183948 20.23287008 9.3712416 20.41264166 11.0625 20.5625 C11.98160156 20.64628906 12.90070312 20.73007812 13.84765625 20.81640625 C14.91306641 20.90728516 14.91306641 20.90728516 16 21 C16 21.99 16 22.98 16 24 C10.72 24 5.44 24 0 24 C1 18 1 18 2 15 C1.34 14.34 0.68 13.68 0 13 C0.66 12.67 1.32 12.34 2 12 C1.34 10.35 0.68 8.7 0 7 C0.66 7 1.32 7 2 7 C1.67 6.401875 1.34 5.80375 1 5.1875 C0 3 0 3 0 0 Z " fill="#CE6464" transform="translate(8,8)"/>
<path d="M0 0 C2.5 0.125 2.5 0.125 3.5 1.125 C3.54092937 3.45797433 3.54241723 5.79205225 3.5 8.125 C2.18 8.455 0.86 8.785 -0.5 9.125 C2.47 9.62 2.47 9.62 5.5 10.125 C5.17 11.445 4.84 12.765 4.5 14.125 C2.16705225 14.16741723 -0.16702567 14.16592937 -2.5 14.125 C-3.5 13.125 -3.5 13.125 -3.6328125 10.4375 C-3.63023438 9.344375 -3.62765625 8.25125 -3.625 7.125 C-3.62757812 6.031875 -3.63015625 4.93875 -3.6328125 3.8125 C-3.45293603 0.1726468 -3.45293603 0.1726468 0 0 Z " fill="#CEA433" transform="translate(19.5,12.875)"/>
<path d="M0 0 C5.28 0 10.56 0 16 0 C16 1.32 16 2.64 16 4 C14.35 4 12.7 4 11 4 C11 4.99 11 5.98 11 7 C9.35 7 7.7 7 6 7 C6 6.01 6 5.02 6 4 C4.35 4 2.7 4 1 4 C0.67 4.99 0.34 5.98 0 7 C0 4.69 0 2.38 0 0 Z " fill="#FBBC05" transform="translate(8,0)"/>
<path d="M0 0 C1.65 0 3.3 0 5 0 C5 0.99 5 1.98 5 3 C6.65 3 8.3 3 10 3 C10 2.01 10 1.02 10 0 C11.65 0 13.3 0 15 0 C15 0.99 15 1.98 15 3 C16.65 3 18.3 3 20 3 C20 3.33 20 3.66 20 4 C18.02 4 16.04 4 14 4 C14 4.99 14 5.98 14 7 C12.68 7 11.36 7 10 7 C10 6.01 10 5.02 10 4 C8.35 4 6.7 4 5 4 C5 4.99 5 5.98 5 7 C3.35 6.67 1.7 6.34 0 6 C0 5.34 0 4.68 0 4 C-1.65 4 -3.3 4 -5 4 C-5 3.67 -5 3.34 -5 3 C-3.35 3 -1.7 3 0 3 C0 2.01 0 1.02 0 0 Z " fill="#F7EFE9" transform="translate(9,4)"/>
<path d="M0 0 C0.38800781 0.48082031 0.77601562 0.96164063 1.17578125 1.45703125 C3.54088647 3.45749498 5.12691453 3.48876068 8.1875 3.6875 C9.08855469 3.75324219 9.98960938 3.81898437 10.91796875 3.88671875 C11.60503906 3.92410156 12.29210938 3.96148438 13 4 C13 4.99 13 5.98 13 7 C7.72 7 2.44 7 -3 7 C-3 6.34 -3 5.68 -3 5 C-2.34 4.67 -1.68 4.34 -1 4 C-0.34786708 1.97536745 -0.34786708 1.97536745 0 0 Z " fill="#F16363" transform="translate(11,25)"/>
<path d="M0 0 C2.64 0 5.28 0 8 0 C8 2.31 8 4.62 8 7 C7.34 7 6.68 7 6 7 C6 6.01 6 5.02 6 4 C4.35 4 2.7 4 1 4 C0.67 4.99 0.34 5.98 0 7 C0 4.69 0 2.38 0 0 Z " fill="#F96363" transform="translate(8,0)"/>
<path d="M0 0 C0.99 0.33 1.98 0.66 3 1 C3 2.98 3 4.96 3 7 C0.36 7 -2.28 7 -5 7 C-5 6.01 -5 5.02 -5 4 C-4.0409375 3.8453125 -4.0409375 3.8453125 -3.0625 3.6875 C-2.381875 3.460625 -1.70125 3.23375 -1 3 C-0.67 2.01 -0.34 1.02 0 0 Z " fill="#308B30" transform="translate(29,25)"/>
<path d="M0 0 C2.125 0.375 2.125 0.375 4 1 C3.01 2.98 2.02 4.96 1 7 C-0.32 7 -1.64 7 -3 7 C-2.25 2.25 -2.25 2.25 0 0 Z " fill="#EBECF1" transform="translate(7,22)"/>
<path d="M0 0 C1.65 0 3.3 0 5 0 C5 1.98 5 3.96 5 6 C3.35 6 1.7 6 0 6 C0 4.02 0 2.04 0 0 Z " fill="#F3BA1A" transform="translate(18,15)"/>
<path d="M0 0 C2.64 0 5.28 0 8 0 C8 0.99 8 1.98 8 3 C5.36 3 2.72 3 0 3 C0 2.01 0 1.02 0 0 Z " fill="#D6A004" transform="translate(16,29)"/>
<path d="M0 0 C2.375 0.25 2.375 0.25 5 1 C6.3125 3.0625 6.3125 3.0625 7 5 C5.35 5 3.7 5 2 5 C1.34 3.35 0.68 1.7 0 0 Z " fill="#E8EAF0" transform="translate(4,16)"/>
<path d="M0 0 C0.33 0 0.66 0 1 0 C1.46882399 8.12628256 1.46882399 8.12628256 -0.375 11.5625 C-2 13 -2 13 -4 13 C-3.67 11.68 -3.34 10.36 -3 9 C-2.34 9 -1.68 9 -1 9 C-0.67 6.03 -0.34 3.06 0 0 Z " fill="#2C7B2C" transform="translate(28,14)"/>
<path d="M0 0 C0.99 0 1.98 0 3 0 C3 0.99 3 1.98 3 3 C4.32 3 5.64 3 7 3 C7.33 2.01 7.66 1.02 8 0 C8.33 1.32 8.66 2.64 9 4 C6.03 4 3.06 4 0 4 C0 2.68 0 1.36 0 0 Z " fill="#D2AA3D" transform="translate(16,8)"/>
<path d="M0 0 C1.32 0 2.64 0 4 0 C3.67 2.64 3.34 5.28 3 8 C2.01 8.33 1.02 8.66 0 9 C0.66 6.69 1.32 4.38 2 2 C1.34 1.34 0.68 0.68 0 0 Z " fill="#BD5050" transform="translate(8,21)"/>
<path d="M0 0 C1.32 0 2.64 0 4 0 C4.33 1.32 4.66 2.64 5 4 C3.35 3.67 1.7 3.34 0 3 C0 2.01 0 1.02 0 0 Z " fill="#F5F6F9" transform="translate(5,11)"/>
</svg>
