<?xml version="1.0" encoding="UTF-8"?>
<svg version="1.1" xmlns="http://www.w3.org/2000/svg" width="128" height="128">
<path d="M0 0 C42.24 0 84.48 0 128 0 C128 42.24 128 84.48 128 128 C85.76 128 43.52 128 0 128 C0 85.76 0 43.52 0 0 Z " fill="#C8AB86" transform="translate(0,0)"/>
<path d="M0 0 C0.66 0 1.32 0 2 0 C2 -0.66 2 -1.32 2 -2 C14.04394251 -2.12812705 25.98168818 -1.79553837 38 -1 C42.59064762 6.26322268 42.5739769 12.61413952 42.4375 21.0625 C42.44458984 22.30322266 42.45167969 23.54394531 42.45898438 24.82226562 C42.37666425 36.65736679 42.37666425 36.65736679 39 42 C36.80859375 43.55859375 36.80859375 43.55859375 34.4375 44.4375 C33.65246094 44.74558594 32.86742187 45.05367187 32.05859375 45.37109375 C30 46 30 46 28 46 C28.495 51.445 28.495 51.445 29 57 C30.32 57.33 31.64 57.66 33 58 C36.29125244 55.61909398 38.88119099 53.12433501 41.6875 50.1875 C44 48 44 48 47 48 C45.79634735 54.49972432 44.61753932 59.38246068 39.8125 64.1875 C34.0921252 67.87396376 27.72217679 68.30543097 21.0625 68.265625 C20.33812744 68.26753845 19.61375488 68.2694519 18.86743164 68.27142334 C17.34814096 68.27277386 15.82883829 68.26915739 14.30957031 68.26074219 C12.00559161 68.25002601 9.70239242 68.26067593 7.3984375 68.2734375 C5.91145664 68.2721157 4.42447626 68.26955289 2.9375 68.265625 C1.92151733 68.27169769 1.92151733 68.27169769 0.88500977 68.27789307 C-5.46155294 68.21674068 -12.10769454 67.52864952 -16.9375 63.0625 C-17.50339844 62.55847656 -18.06929687 62.05445312 -18.65234375 61.53515625 C-21.33993438 58.47363997 -21.12206996 55.29769063 -21.11352539 51.42700195 C-21.11344986 50.28604568 -21.11337433 49.14508942 -21.11329651 47.96955872 C-21.10813522 46.73823715 -21.10297394 45.50691559 -21.09765625 44.23828125 C-21.0962413 42.97735153 -21.09482635 41.71642181 -21.09336853 40.4172821 C-21.08871575 37.06848291 -21.07973342 33.71975189 -21.06866455 30.37097168 C-21.05842687 26.95239857 -21.05386586 23.53381841 -21.04882812 20.11523438 C-21.03779099 13.41013739 -21.02104686 6.70507263 -21 0 C-19.59085801 -0.33245376 -18.18044336 -0.65951552 -16.76953125 -0.984375 C-15.98425049 -1.16709961 -15.19896973 -1.34982422 -14.38989258 -1.53808594 C-9.30334416 -2.5212047 -4.55585499 -2.80360307 0 0 Z " fill="#C9AE8C" transform="translate(68,49)"/>
<path d="M0 0 C10.56 0 21.12 0 32 0 C32 8.58 32 17.16 32 26 C27.66529779 27.73388089 26.14440479 28.22633906 21.8125 28.0625 C18.2659973 27.86374706 18.2659973 27.86374706 15 29 C15 29.66 15 30.32 15 31 C16.57201172 31.07347656 16.57201172 31.07347656 18.17578125 31.1484375 C19.55471354 31.22348143 20.9336185 31.29902857 22.3125 31.375 C23.34793945 31.42140625 23.34793945 31.42140625 24.40429688 31.46875 C28.06990789 31.68124919 29.87900792 31.91933861 33 34 C32.01 36.97 31.02 39.94 30 43 C28.55625 42.979375 27.1125 42.95875 25.625 42.9375 C22.17771295 42.84827854 22.17771295 42.84827854 19 44 C20.22836439 51.04351948 20.22836439 51.04351948 24 57 C24 57.66 24 58.32 24 59 C26.31 59.66 28.62 60.32 31 61 C31 61.99 31 62.98 31 64 C26.23692563 64.95261487 21.8333472 65.08333357 17 65 C16.75101527 68.91459332 17.31115459 71.22618064 19.25 74.625 C19.66765625 75.38039063 20.0853125 76.13578125 20.515625 76.9140625 C22.74156563 80.04209486 25.05888053 81.6414783 28.625 83 C31 84 31 84 33 87 C35.42521494 87.58189266 35.42521494 87.58189266 38.125 87.6875 C39.03507812 87.75324219 39.94515625 87.81898437 40.8828125 87.88671875 C41.58148438 87.92410156 42.28015625 87.96148437 43 88 C43.57421875 89.8671875 43.57421875 89.8671875 44 92 C43.05184571 93.69669715 42.03655068 95.35581617 41 97 C39.06867962 101.40075674 37.36958415 105.87071509 35.875 110.4375 C35 113 35 113 33 116 C32.505 121.94 32.505 121.94 32 128 C21.44 128 10.88 128 0 128 C0 85.76 0 43.52 0 0 Z " fill="#359BE2" transform="translate(0,0)"/>
<path d="M0 0 C10.23 0 20.46 0 31 0 C31 42.24 31 84.48 31 128 C20.77 128 10.54 128 0 128 C-1.28317892 124.15046324 -1.06643637 121.05261865 -1 117 C-0.41992188 116.84144531 0.16015625 116.68289062 0.7578125 116.51953125 C5.84431531 115.00029526 10.80343483 113.48879364 14 109 C15.64371872 105.07760579 16.88780061 101.10205303 18 97 C14.01415366 98.61331876 11.56802921 100.29755136 8.9375 103.625 C6.97837333 106.05719663 6.23775218 106.9081412 3.25 108.0625 C1 108 1 108 -1 106 C-1.1953125 103.3984375 -1.1953125 103.3984375 -1.125 100.375 C-1.10695313 99.37210937 -1.08890625 98.36921875 -1.0703125 97.3359375 C-1.04710938 96.56507812 -1.02390625 95.79421875 -1 95 C0.4562545 94.32880451 1.91507867 93.66318193 3.375 93 C4.18710938 92.62875 4.99921875 92.2575 5.8359375 91.875 C8 91 8 91 10 91 C12.57134531 84.11576075 12.33133227 77.27678843 12.3125 70 C12.32861328 68.75476563 12.34472656 67.50953125 12.36132812 66.2265625 C12.44412026 57.15494606 12.44412026 57.15494606 9 49 C6.83737268 47.58708304 6.83737268 47.58708304 4.375 47.125 C0.00869565 46.00869565 0.00869565 46.00869565 -1 45 C-1.26007212 43.36154566 -1.45922323 41.71316296 -1.625 40.0625 C-1.72039062 39.16660156 -1.81578125 38.27070312 -1.9140625 37.34765625 C-2 35 -2 35 -1 33 C8.9 32.505 8.9 32.505 19 32 C18.67 30.68 18.34 29.36 18 28 C11.73 27.67 5.46 27.34 -1 27 C-2.08973959 23.73078124 -1.96637028 21.86141078 -1.66015625 18.45703125 C-1.57644775 17.48999268 -1.49273926 16.5229541 -1.40649414 15.52661133 C-1.29297607 14.30095459 -1.17945801 13.07529785 -1.0625 11.8125 C-0.711875 7.914375 -0.36125 4.01625 0 0 Z " fill="#328E32" transform="translate(97,0)"/>
<path d="M0 0 C1.62490954 -0.02698189 3.24994633 -0.04638757 4.875 -0.0625 C5.77992187 -0.07410156 6.68484375 -0.08570313 7.6171875 -0.09765625 C10 0 10 0 12 1 C11.83832336 1.54435196 11.67664673 2.08870392 11.5100708 2.64955139 C10.92229883 5.35805342 10.85801464 7.83479326 10.83886719 10.60717773 C10.82925964 11.73192001 10.8196521 12.85666229 10.80975342 14.01548767 C10.80550354 15.22596268 10.80125366 16.43643768 10.796875 17.68359375 C10.79117493 18.93125015 10.78547485 20.17890656 10.77960205 21.46437073 C10.77015715 24.10299323 10.7632573 26.74150213 10.75976562 29.38012695 C10.75427748 32.75391451 10.73023319 36.12729919 10.70179367 39.50096035 C10.67864824 42.72847414 10.67671702 45.95600859 10.671875 49.18359375 C10.6595282 50.39204453 10.6471814 51.6004953 10.63446045 52.8455658 C10.63746155 53.97346024 10.64046265 55.10135468 10.64355469 56.26342773 C10.63990906 57.25285873 10.63626343 58.24228973 10.63250732 59.26170349 C11.24504622 63.82591179 13.21184151 66.34014638 16.6875 69.25 C25.02933028 73.65700468 35.73855368 72.07232885 44.8984375 71.97949219 C46.84632128 71.96149132 48.7942569 71.94940182 50.7421875 71.9375 C51.8957373 71.92589844 53.04928711 71.91429688 54.23779297 71.90234375 C57 72 57 72 59 73 C59.495 78.445 59.495 78.445 60 84 C38.55 84 17.1 84 -5 84 C-5 72 -5 72 -2 68 C-1.1566193 65.99655193 -1.1566193 65.99655193 -0.5625 63.875 C0.78316086 59.56746128 2.40191287 55.42795391 4.1328125 51.26171875 C5.1481019 48.75002052 5.1481019 48.75002052 6 45 C2.7 44.67 -0.6 44.34 -4 44 C-4 42.68 -4 41.36 -4 40 C-2.01432292 40.03255208 -0.02864583 40.06510417 1.95703125 40.09765625 C4.20305461 40.08263217 4.20305461 40.08263217 7 39 C6.22823602 35.76020773 6.22823602 35.76020773 3.1875 33.8125 C-0.47404813 30.88503036 -2.58650652 27.46555901 -4 23 C-3.75 20 -3.75 20 -3 18 C-0.36 18 2.28 18 5 18 C6.37533699 15.02826926 6.37533699 15.02826926 4.78515625 12.44140625 C4.21667969 11.49136719 3.64820313 10.54132812 3.0625 9.5625 C0 4.43507973 0 4.43507973 0 0 Z " fill="#E15D5C" transform="translate(37,44)"/>
<path d="M0 0 C2.24834496 -0.13526139 4.49902514 -0.23210804 6.75 -0.3125 C8.00296875 -0.37050781 9.2559375 -0.42851563 10.546875 -0.48828125 C14 0 14 0 16.453125 2.51953125 C16.96359375 3.33808594 17.4740625 4.15664063 18 5 C17.67926514 5.53270508 17.35853027 6.06541016 17.02807617 6.61425781 C15.75387732 9.57114957 15.66207621 11.95499978 15.55078125 15.171875 C15.50663086 16.38681641 15.46248047 17.60175781 15.41699219 18.85351562 C15.38250977 20.13935547 15.34802734 21.42519531 15.3125 22.75 C15.27415039 24.05646484 15.23580078 25.36292969 15.19628906 26.70898438 C13.81510394 43.63338411 13.81510394 43.63338411 19 59 C24.24291629 60.74763876 29.82083256 60.47264603 35.3125 60.6875 C36.53646484 60.74744141 37.76042969 60.80738281 39.02148438 60.86914062 C40.20677734 60.91619141 41.39207031 60.96324219 42.61328125 61.01171875 C43.69391846 61.05772217 44.77455566 61.10372559 45.88793945 61.15112305 C52.43034018 60.83342115 55.58500022 58.66027754 60 54 C60.66 54 61.32 54 62 54 C61.375 57.3125 61.375 57.3125 60 61 C53.91063539 65.15183951 47.01028894 65.16570752 39.85546875 65.23828125 C39.08624588 65.246353 38.31702301 65.25442474 37.52449036 65.26274109 C35.90331224 65.27650991 34.282106 65.28726393 32.66088867 65.29516602 C31.01724641 65.30668498 29.37364152 65.32713571 27.73022461 65.35668945 C7.93928761 65.71183509 7.93928761 65.71183509 3 61 C-0.72203318 54.72940354 -0.3895225 48.64420513 -0.29296875 41.50390625 C-0.28872391 40.31522446 -0.28447906 39.12654266 -0.28010559 37.90184021 C-0.26337251 34.12182543 -0.2257289 30.34235245 -0.1875 26.5625 C-0.17244628 23.99284627 -0.15875908 21.42318414 -0.14648438 18.85351562 C-0.11348648 12.56882695 -0.06334004 6.28445219 0 0 Z " fill="#FAF9F8" transform="translate(49,49)"/>
<path d="M0 0 C1.17433594 -0.01417969 2.34867188 -0.02835938 3.55859375 -0.04296875 C6.5625 0.1875 6.5625 0.1875 8.5625 2.1875 C8.83241906 4.87589385 8.64987357 7.47891936 8.5625 10.1875 C11.83331471 10.21652429 15.1040963 10.23430684 18.375 10.25 C19.7681543 10.26256836 19.7681543 10.26256836 21.18945312 10.27539062 C22.08212891 10.27861328 22.97480469 10.28183594 23.89453125 10.28515625 C24.71671143 10.29039307 25.5388916 10.29562988 26.38598633 10.30102539 C28.74422596 10.27491524 28.74422596 10.27491524 31.5625 9.1875 C31.706875 7.888125 31.85125 6.58875 32 5.25 C32.4375 1.3125 32.4375 1.3125 33.5625 0.1875 C35.56049572 0.08876184 37.56207158 0.05778201 39.5625 0.0625 C40.655625 0.05992188 41.74875 0.05734375 42.875 0.0546875 C45.5625 0.1875 45.5625 0.1875 46.5625 1.1875 C46.84203219 3.2462768 47.00984351 5.30478432 47.18359375 7.375 C47.30863281 7.973125 47.43367188 8.57125 47.5625 9.1875 C49.79897631 10.30573815 51.21141529 10.38146061 53.6953125 10.50390625 C54.50097656 10.54580078 55.30664062 10.58769531 56.13671875 10.63085938 C56.97847656 10.67017578 57.82023437 10.70949219 58.6875 10.75 C59.53699219 10.79318359 60.38648437 10.83636719 61.26171875 10.88085938 C63.36178223 10.98704236 65.46211948 11.08778497 67.5625 11.1875 C67.5625 11.8475 67.5625 12.5075 67.5625 13.1875 C61.6225 13.1875 55.6825 13.1875 49.5625 13.1875 C49.418125 14.981875 49.27375 16.77625 49.125 18.625 C48.6875 24.0625 48.6875 24.0625 47.5625 25.1875 C45.05113896 25.28725032 42.57346585 25.32632183 40.0625 25.3125 C39.35996094 25.31636719 38.65742187 25.32023437 37.93359375 25.32421875 C32.68911378 25.31411378 32.68911378 25.31411378 31.5625 24.1875 C31.0675 19.7325 31.0675 19.7325 30.5625 15.1875 C23.6325 15.1875 16.7025 15.1875 9.5625 15.1875 C9.5625 18.1575 9.5625 21.1275 9.5625 24.1875 C7.74133997 26.00866003 5.25578236 25.3198508 2.8359375 25.32421875 C2.08570313 25.32035156 1.33546875 25.31648438 0.5625 25.3125 C-0.56285156 25.31830078 -0.56285156 25.31830078 -1.7109375 25.32421875 C-7.31088947 25.31411053 -7.31088947 25.31411053 -8.4375 24.1875 C-8.7675 21.2175 -9.0975 18.2475 -9.4375 15.1875 C-16.3675 14.8575 -23.2975 14.5275 -30.4375 14.1875 C-30.4375 12.8675 -30.4375 11.5475 -30.4375 10.1875 C-28.03690183 8.98720092 -26.54389351 9.07290257 -23.8671875 9.08984375 C-22.97128906 9.09306641 -22.07539063 9.09628906 -21.15234375 9.09960938 C-20.21519531 9.10798828 -19.27804688 9.11636719 -18.3125 9.125 C-17.36761719 9.12951172 -16.42273437 9.13402344 -15.44921875 9.13867188 C-13.11191613 9.15047643 -10.77473939 9.16694241 -8.4375 9.1875 C-8.293125 7.888125 -8.14875 6.58875 -8 5.25 C-7.35246225 -0.57783971 -5.7363934 0.03141508 0 0 Z " fill="#F9F8F7" transform="translate(45.4375,17.8125)"/>
<path d="M0 0 C3.72560054 0.08505937 7.44795339 0.18587922 11.171875 0.328125 C12.53253779 0.34862769 13.89321556 0.36815944 15.25390625 0.38671875 C16.56746094 0.42925781 17.88101563 0.47179688 19.234375 0.515625 C20.44222656 0.55042969 21.65007812 0.58523437 22.89453125 0.62109375 C27.14714015 1.53852189 28.47356659 2.94550391 31.171875 6.328125 C31.6610916 9.05486884 31.85367781 11.14499597 31.80078125 13.859375 C31.80319321 14.57291138 31.80560516 15.28644775 31.80809021 16.02160645 C31.80711435 17.52438944 31.79378265 19.02720954 31.76879883 20.52978516 C31.73446842 22.82188787 31.74815262 25.11013472 31.76757812 27.40234375 C31.76067918 28.86720381 31.75100633 30.33205397 31.73828125 31.796875 C31.74324112 32.47721802 31.74820099 33.15756104 31.75331116 33.85852051 C31.63699843 38.58973014 30.53837816 41.02528462 27.171875 44.328125 C19.79462878 47.640358 11.82862586 45.94516444 4.171875 44.328125 C4.171875 43.668125 4.171875 43.008125 4.171875 42.328125 C3.3675 42.039375 2.563125 41.750625 1.734375 41.453125 C-0.828125 40.328125 -0.828125 40.328125 -1.828125 38.328125 C-0.49007812 38.23724609 -0.49007812 38.23724609 0.875 38.14453125 C2.04546875 38.06074219 3.2159375 37.97695312 4.421875 37.890625 C5.58203125 37.80941406 6.7421875 37.72820312 7.9375 37.64453125 C10.49755384 37.3940912 12.70652871 36.9866443 15.171875 36.328125 C15.97784972 29.97627664 16.32699061 23.7901921 16.296875 17.390625 C16.30074219 16.54177734 16.30460937 15.69292969 16.30859375 14.81835938 C16.30730469 14.00818359 16.30601563 13.19800781 16.3046875 12.36328125 C16.30355957 11.6350415 16.30243164 10.90680176 16.30126953 10.15649414 C16.28218564 8.22961566 16.28218564 8.22961566 15.171875 6.328125 C14.181875 5.998125 13.191875 5.668125 12.171875 5.328125 C12.171875 4.668125 12.171875 4.008125 12.171875 3.328125 C6.231875 3.328125 0.291875 3.328125 -5.828125 3.328125 C-2.828125 0.328125 -2.828125 0.328125 0 0 Z " fill="#F9F8F6" transform="translate(75.828125,47.671875)"/>
<path d="M0 0 C10.89 0 21.78 0 33 0 C33 14 33 14 32 16 C25.73 16.33 19.46 16.66 13 17 C12.67 19.97 12.34 22.94 12 26 C11.67 26.33 11.34 26.66 11 27 C7.37 27 3.74 27 0 27 C0 18.09 0 9.18 0 0 Z " fill="#F3B70B" transform="translate(64,0)"/>
<path d="M0 0 C1.00836914 -0.02320313 1.00836914 -0.02320313 2.03710938 -0.046875 C4.00390625 -0.03125 4.00390625 -0.03125 7.4375 0.5 C10.28400602 3.39586026 10.82037347 5.530723 10.8359375 9.52734375 C10.84173828 10.96303711 10.84173828 10.96303711 10.84765625 12.42773438 C10.83605469 13.42095703 10.82445313 14.41417969 10.8125 15.4375 C10.82410156 16.42685547 10.83570312 17.41621094 10.84765625 18.43554688 C10.80878065 28.07021556 10.80878065 28.07021556 7.4375 31.5 C5.01953125 32.0234375 5.01953125 32.0234375 2.25 31.875 C1.34894531 31.84148437 0.44789062 31.80796875 -0.48046875 31.7734375 C-4.19060034 31.444275 -7.86935625 30.98395654 -11.5625 30.5 C-11.67861395 26.25022954 -11.74972349 22.00086663 -11.8125 17.75 C-11.84601563 16.5434375 -11.87953125 15.336875 -11.9140625 14.09375 C-11.92695312 12.93359375 -11.93984375 11.7734375 -11.953125 10.578125 C-11.97407227 9.50981445 -11.99501953 8.44150391 -12.01660156 7.34082031 C-10.91167647 0.42850401 -6.17324136 -0.04827559 0 0 Z " fill="#F6B90B" transform="translate(79.5625,52.5)"/>
<path d="M0 0 C10.56 0 21.12 0 32 0 C32 8.91 32 17.82 32 27 C29.69 27 27.38 27 25 27 C24.11957206 23.25818125 23.95749764 19.83583759 24 16 C21.02077407 15.97316013 18.04178705 15.95323963 15.0625 15.9375 C14.21236328 15.92912109 13.36222656 15.92074219 12.48632812 15.91210938 C11.67744141 15.90888672 10.86855469 15.90566406 10.03515625 15.90234375 C9.2862915 15.89710693 8.53742676 15.89187012 7.76586914 15.88647461 C5.97332261 15.80658248 5.97332261 15.80658248 5 17 C4.76807135 18.51469448 4.58784762 20.03754562 4.4375 21.5625 C4.31181641 22.80193359 4.31181641 22.80193359 4.18359375 24.06640625 C4.12300781 24.70449219 4.06242187 25.34257812 4 26 C2.68 26 1.36 26 0 26 C0 17.42 0 8.84 0 0 Z " fill="#E15F5D" transform="translate(32,0)"/>
<path d="M0 0 C0.57421875 1.8671875 0.57421875 1.8671875 1 4 C0.05184571 5.69669715 -0.96344932 7.35581617 -2 9 C-3.92080275 13.37679101 -5.64201292 17.79179361 -7 22.375 C-8.21599362 25.56698326 -9.28071498 26.92159394 -12 29 C-15.41796875 29.20703125 -15.41796875 29.20703125 -19.1875 28.8125 C-20.43917969 28.69519531 -21.69085938 28.57789062 -22.98046875 28.45703125 C-26 28 -26 28 -27 27 C-27 17.92907602 -23.27166384 8.70332671 -17.14453125 1.95703125 C-11.75636154 -2.00910604 -6.30483447 -1.17056669 0 0 Z " fill="#FAF9F8" transform="translate(43,88)"/>
<path d="M0 0 C3.63433098 0.54828269 7.03050726 1.2244346 10.5 2.4375 C11.27085938 2.70175781 12.04171875 2.96601562 12.8359375 3.23828125 C14.60158854 3.85976492 16.3638142 4.49097311 18.125 5.125 C21.39904039 6.12144708 24.60652841 6.59278341 28 7 C28.33 10.63 28.66 14.26 29 18 C25.27283309 19.86358345 20.7888931 19.18475292 16.6875 19.1875 C15.73681641 19.19974609 14.78613281 19.21199219 13.80664062 19.22460938 C5.04403389 19.24297962 5.04403389 19.24297962 1 17 C0 16 0 16 -0.09765625 12.40234375 C-0.0909822 10.91403133 -0.07902183 9.42573568 -0.0625 7.9375 C-0.05798828 7.17888672 -0.05347656 6.42027344 -0.04882812 5.63867188 C-0.0370068 3.75908129 -0.01907078 1.87953101 0 0 Z " fill="#BB8E0F" transform="translate(68,89)"/>
<path d="M0 0 C1.19173828 0.00410889 2.38347656 0.00821777 3.61132812 0.01245117 C4.90425781 0.01438477 6.1971875 0.01631836 7.52929688 0.01831055 C8.5412915 0.02761597 8.5412915 0.02761597 9.57373047 0.03710938 C11.63456595 0.05534901 13.69495166 0.05761915 15.75585938 0.05737305 C25.86216911 0.10271541 25.86216911 0.10271541 28.14257812 1.24291992 C28.63757813 6.68791992 28.63757813 6.68791992 29.14257812 12.24291992 C18.25257812 12.24291992 7.36257812 12.24291992 -3.85742188 12.24291992 C-4.18742187 8.94291992 -4.51742187 5.64291992 -4.85742188 2.24291992 C-2.85742188 0.24291992 -2.85742188 0.24291992 0 0 Z " fill="#BB8E0F" transform="translate(67.857421875,115.757080078125)"/>
<path d="M0 0 C0.9590625 0.00644531 1.918125 0.01289062 2.90625 0.01953125 C5.5 0.1875 5.5 0.1875 8.5 1.1875 C9.81640625 3.83984375 9.81640625 3.83984375 11.0625 7.125 C12.66603688 11.55137295 12.66603688 11.55137295 15.5 15.1875 C15.125 17.3125 15.125 17.3125 14.5 19.1875 C1.97488933 19.58866013 1.97488933 19.58866013 -2.5 17.1875 C-6.46929241 12.66691698 -7.52537366 7.95831387 -8.5 2.1875 C-5.13000798 -0.05916134 -3.93894538 -0.0582371 0 0 Z " fill="#FBFAF9" transform="translate(26.5,41.8125)"/>
<path d="M0 0 C1.35553855 0.00399079 2.71107831 0.0187437 4.06640625 0.04296875 C4.74767578 0.04361328 5.42894531 0.04425781 6.13085938 0.04492188 C9.22488572 0.07219537 11.67421298 0.24557099 14.62890625 1.23046875 C14.95890625 4.53046875 15.28890625 7.83046875 15.62890625 11.23046875 C21.56890625 11.23046875 27.50890625 11.23046875 33.62890625 11.23046875 C33.77328125 9.76609375 33.91765625 8.30171875 34.06640625 6.79296875 C34.50390625 2.35546875 34.50390625 2.35546875 35.62890625 1.23046875 C37.04460748 1.14395264 38.46450125 1.12341971 39.8828125 1.1328125 C41.16381836 1.13764648 41.16381836 1.13764648 42.47070312 1.14257812 C43.36853516 1.15095703 44.26636719 1.15933594 45.19140625 1.16796875 C46.09310547 1.17248047 46.99480469 1.17699219 47.92382812 1.18164062 C50.15888214 1.19346631 52.39390227 1.21140237 54.62890625 1.23046875 C54.62890625 4.86046875 54.62890625 8.49046875 54.62890625 12.23046875 C60.89890625 12.23046875 67.16890625 12.23046875 73.62890625 12.23046875 C74.12390625 14.70546875 74.12390625 14.70546875 74.62890625 17.23046875 C67.69890625 17.23046875 60.76890625 17.23046875 53.62890625 17.23046875 C53.62890625 16.90046875 53.62890625 16.57046875 53.62890625 16.23046875 C59.56890625 16.23046875 65.50890625 16.23046875 71.62890625 16.23046875 C71.62890625 15.57046875 71.62890625 14.91046875 71.62890625 14.23046875 C69.73205078 14.26527344 69.73205078 14.26527344 67.796875 14.30078125 C66.13672465 14.31954001 64.47656792 14.3377401 62.81640625 14.35546875 C61.98302734 14.37222656 61.14964844 14.38898437 60.29101562 14.40625 C59.48857422 14.41269531 58.68613281 14.41914063 57.859375 14.42578125 C56.75178833 14.4414917 56.75178833 14.4414917 55.62182617 14.45751953 C53.62890625 14.23046875 53.62890625 14.23046875 50.62890625 12.23046875 C49.92838164 9.56740575 49.85145807 6.99011138 49.62890625 4.23046875 C45.66890625 4.23046875 41.70890625 4.23046875 37.62890625 4.23046875 C37.54640625 5.50921875 37.46390625 6.78796875 37.37890625 8.10546875 C37.23828125 10.28515625 37.23828125 10.28515625 36.62890625 12.23046875 C33.8160238 13.98803584 31.66003509 14.47969572 28.37109375 14.4609375 C27.58089844 14.45900391 26.79070312 14.45707031 25.9765625 14.45507812 C25.16058594 14.44283203 24.34460938 14.43058594 23.50390625 14.41796875 C22.26833984 14.41700195 22.26833984 14.41700195 21.0078125 14.41601562 C14.91018221 14.37110673 14.91018221 14.37110673 12.62890625 13.23046875 C12.25 11.41796875 12.25 11.41796875 12.06640625 9.23046875 C12.00225217 6.44114817 12.00225217 6.44114817 10.62890625 4.23046875 C8.44251172 4.15787929 6.25390236 4.14673092 4.06640625 4.16796875 C2.86886719 4.17699219 1.67132813 4.18601562 0.4375 4.1953125 C-0.95275391 4.21271484 -0.95275391 4.21271484 -2.37109375 4.23046875 C-2.51546875 5.52984375 -2.65984375 6.82921875 -2.80859375 8.16796875 C-3.24609375 12.10546875 -3.24609375 12.10546875 -4.37109375 13.23046875 C-7.04168226 13.37162036 -9.69541613 13.27293982 -12.37109375 13.23046875 C-8.62109375 11.23046875 -8.62109375 11.23046875 -6.37109375 11.23046875 C-6.32210937 10.60398437 -6.273125 9.9775 -6.22265625 9.33203125 C-6.14789063 8.51476563 -6.073125 7.6975 -5.99609375 6.85546875 C-5.92648438 6.04335938 -5.856875 5.23125 -5.78515625 4.39453125 C-5.05482889 0.5775373 -3.76128428 0.25714458 0 0 Z " fill="#D3C4B1" transform="translate(41.37109375,14.76953125)"/>
<path d="M0 0 C1.00836914 -0.02320313 1.00836914 -0.02320313 2.03710938 -0.046875 C5.26983263 -0.02119299 7.00344969 0.09270031 9.40234375 2.34375 C10.4375 4.5 10.4375 4.5 10.4375 7.5 C5.8175 7.5 1.1975 7.5 -3.5625 7.5 C-5.3806525 11.13630501 -5.80916307 12.05910244 -5.72265625 15.79296875 C-5.71169922 16.58767578 -5.70074219 17.38238281 -5.68945312 18.20117188 C-5.65754883 19.4319043 -5.65754883 19.4319043 -5.625 20.6875 C-5.56348012 23.62906152 -5.54183642 26.55691649 -5.5625 29.5 C-6.5625 30.5 -6.5625 30.5 -9.125 30.5625 C-9.929375 30.541875 -10.73375 30.52125 -11.5625 30.5 C-11.67861395 26.25022954 -11.74972349 22.00086663 -11.8125 17.75 C-11.84601563 16.5434375 -11.87953125 15.336875 -11.9140625 14.09375 C-11.92695312 12.93359375 -11.93984375 11.7734375 -11.953125 10.578125 C-11.97407227 9.50981445 -11.99501953 8.44150391 -12.01660156 7.34082031 C-10.91167647 0.42850401 -6.17324136 -0.04827559 0 0 Z " fill="#BB8E0F" transform="translate(79.5625,52.5)"/>
<path d="M0 0 C4.17671166 -0.67897283 7.85342578 -0.95209923 12 0 C14.39971791 2.58330289 15.83535188 5.1741133 17.46484375 8.29296875 C19.48813427 11.86075585 21.49716651 13.03499585 25 15 C25 15.66 25 16.32 25 17 C17.31029499 17.42545499 10.9796655 17.01163876 4.6875 12.25 C1.87248453 8.49664604 0 4.72679797 0 0 Z " fill="#FAF9F8" transform="translate(18,66)"/>
<path d="M0 0 C0.66 0 1.32 0 2 0 C2 -0.66 2 -1.32 2 -2 C11.36809646 -2.0996606 20.70495056 -2.06254346 30.0625 -1.5625 C31.23111572 -1.50364624 31.23111572 -1.50364624 32.42333984 -1.44360352 C37.87533775 -1.12466225 37.87533775 -1.12466225 39 0 C39.04063832 1.66617115 39.042721 3.33388095 39 5 C37.97712891 4.03320312 37.97712891 4.03320312 36.93359375 3.046875 C33.39833921 0.58019939 31.33820976 0.41427487 27.0625 0.25 C25.75023437 0.19585937 24.43796875 0.14171875 23.0859375 0.0859375 C21.72403172 0.05399237 20.36204439 0.02535548 19 0 C18.33000977 -0.01514648 17.66001953 -0.03029297 16.96972656 -0.04589844 C9.78299334 -0.60004234 9.78299334 -0.60004234 3 1 C8.61 1.33 14.22 1.66 20 2 C20 2.33 20 2.66 20 3 C18.81921875 3.02578125 17.6384375 3.0515625 16.421875 3.078125 C14.86454677 3.13441397 13.30725653 3.19176114 11.75 3.25 C10.97269531 3.26417969 10.19539063 3.27835938 9.39453125 3.29296875 C8.64042969 3.32519531 7.88632813 3.35742188 7.109375 3.390625 C6.07248535 3.4220459 6.07248535 3.4220459 5.01464844 3.45410156 C1.82329968 4.31884415 0.85562718 5.21143319 -1 8 C-1.56050108 11.70491714 -1.46406538 15.37007724 -1.390625 19.109375 C-1.38496521 20.19132141 -1.37930542 21.27326782 -1.37347412 22.38800049 C-1.35108999 25.84245107 -1.30088791 29.29586311 -1.25 32.75 C-1.22993772 35.09243293 -1.21168648 37.43488213 -1.1953125 39.77734375 C-1.15121855 45.5185833 -1.08428555 51.25921745 -1 57 C-3.51364395 54.77941913 -3.96545169 54.20728988 -4.546875 50.71875 C-4.63328482 49.31352517 -4.6993896 47.90696911 -4.75 46.5 C-4.78456299 45.73405518 -4.81912598 44.96811035 -4.85473633 44.17895508 C-5.11443355 36.67846038 -4.92686678 29.18631799 -4.6875 21.6875 C-4.65301758 20.51316406 -4.61853516 19.33882812 -4.58300781 18.12890625 C-4.53885742 17.01773438 -4.49470703 15.9065625 -4.44921875 14.76171875 C-4.41143311 13.77131592 -4.37364746 12.78091309 -4.3347168 11.76049805 C-3.98530293 8.87878934 -3.19603627 6.63332277 -2 4 C-3.05838549 2.39273805 -3.05838549 2.39273805 -5 1 C-8.4223884 0.41781668 -8.4223884 0.41781668 -12.1875 0.3125 C-13.45980469 0.24675781 -14.73210938 0.18101563 -16.04296875 0.11328125 C-17.01878906 0.07589844 -17.99460938 0.03851563 -19 0 C-19 -0.33 -19 -0.66 -19 -1 C-5.32786885 -3.27868852 -5.32786885 -3.27868852 0 0 Z " fill="#D9D1C8" transform="translate(68,49)"/>
<path d="M0 0 C0.66 0 1.32 0 2 0 C2.00586624 0.66097183 2.01173248 1.32194366 2.01777649 2.00294495 C2.08183355 8.89783118 2.16628545 15.79225599 2.26245117 22.68676758 C2.29565442 25.25799466 2.32370058 27.82929382 2.34643555 30.40063477 C2.38006514 34.10203698 2.4323877 37.8027814 2.48828125 41.50390625 C2.49467117 42.64896133 2.5010611 43.79401642 2.50764465 44.97377014 C2.60192592 53.45663454 2.60192592 53.45663454 6 61 C10.99875386 64.17508406 16.54039345 64.43755104 22.3046875 64.36328125 C23.45071945 64.36402901 23.45071945 64.36402901 24.61990356 64.36479187 C26.22498189 64.36246745 27.83006499 64.35283632 29.43505859 64.33618164 C31.86199377 64.31262624 34.28782334 64.31562905 36.71484375 64.32226562 C44.73352946 64.30652577 52.17824243 63.98309207 60 62 C57.57981175 64.65068237 55.76015036 65.86642971 52.06062317 66.14717102 C51.32752426 66.15701523 50.59442535 66.16685944 49.83911133 66.17700195 C48.58684502 66.19625481 48.58684502 66.19625481 47.3092804 66.21589661 C46.40928818 66.22328354 45.50929596 66.23067047 44.58203125 66.23828125 C43.65081955 66.246353 42.71960785 66.25442474 41.76017761 66.26274109 C39.78732154 66.27657364 37.81444162 66.2872995 35.84155273 66.29516602 C32.84116486 66.31233596 29.84189141 66.35622442 26.84179688 66.40039062 C24.92188308 66.41052186 23.00195993 66.41903661 21.08203125 66.42578125 C20.19216019 66.44328934 19.30228912 66.46079742 18.38545227 66.47883606 C12.63244488 66.45904919 7.61038735 65.68146882 3 62 C0.26295652 58.33081988 -0.37076324 55.73807343 -0.34057617 51.19995117 C-0.34034958 50.05914597 -0.34012299 48.91834076 -0.33988953 47.7429657 C-0.32440567 46.52196671 -0.30892181 45.30096771 -0.29296875 44.04296875 C-0.28872391 42.78486893 -0.28447906 41.5267691 -0.28010559 40.23054504 C-0.26617619 36.89797865 -0.23925765 33.56603592 -0.20599365 30.23364258 C-0.17521552 26.82834237 -0.1615838 23.42297756 -0.14648438 20.01757812 C-0.11342413 13.3448805 -0.06323059 6.67247624 0 0 Z " fill="#D1BFA9" transform="translate(47,49)"/>
<path d="M0 0 C4.31726929 0.92023427 8.57617338 1.87493641 12.8125 3.125 C16.09198127 4.17647799 16.09198127 4.17647799 20 4 C21 6 21 6 21 12 C14.07 12 7.14 12 0 12 C-1 2 -1 2 0 0 Z " fill="#F6B90B" transform="translate(74,96)"/>
<path d="M0 0 C0 1.65 0 3.3 0 5 C-10.23 5 -20.46 5 -31 5 C-31 0 -31 0 -30 -1 C-25.7420785 -1.41423122 -21.46127555 -1.51727527 -17.1875 -1.6875 C-15.38442383 -1.77741211 -15.38442383 -1.77741211 -13.54492188 -1.86914062 C-12.38927734 -1.91619141 -11.23363281 -1.96324219 -10.04296875 -2.01171875 C-8.45005005 -2.08072388 -8.45005005 -2.08072388 -6.82495117 -2.15112305 C-3.97209629 -1.99850727 -2.40697299 -1.48257945 0 0 Z " fill="#F6B90B" transform="translate(95,123)"/>
<path d="M0 0 C0.57421875 1.8671875 0.57421875 1.8671875 1 4 C0.05184571 5.69669715 -0.96344932 7.35581617 -2 9 C-3.92080275 13.37679101 -5.64201292 17.79179361 -7 22.375 C-8.21599362 25.56698326 -9.28071498 26.92159394 -12 29 C-15.41796875 29.20703125 -15.41796875 29.20703125 -19.1875 28.8125 C-20.43917969 28.69519531 -21.69085938 28.57789062 -22.98046875 28.45703125 C-26 28 -26 28 -27 27 C-27 17.92907602 -23.27166384 8.70332671 -17.14453125 1.95703125 C-11.75636154 -2.00910604 -6.30483447 -1.17056669 0 0 Z M-14 3 C-14.721875 3.226875 -15.44375 3.45375 -16.1875 3.6875 C-22.54938788 8.29438433 -23.99448047 17.90600803 -26 25 C-24.19824298 26.80175702 -21.62265322 26.29844137 -19.1875 26.375 C-17.60001953 26.44847656 -17.60001953 26.44847656 -15.98046875 26.5234375 C-12.86115149 26.25482884 -12.86115149 26.25482884 -10.73828125 23.890625 C-8.26449279 19.77690936 -7.30859002 15.57905214 -6.125 10.9609375 C-4.87011106 7.65813952 -3.7713979 6.99771598 -1 5 C-1 3.68 -1 2.36 -1 1 C-5.73387199 0.76907942 -9.50910936 1.50303645 -14 3 Z " fill="#D6CABC" transform="translate(43,88)"/>
<path d="M0 0 C3.14581423 -0.02888514 6.29159469 -0.04675923 9.4375 -0.0625 C10.33533203 -0.07087891 11.23316406 -0.07925781 12.15820312 -0.08789062 C13.01220703 -0.09111328 13.86621094 -0.09433594 14.74609375 -0.09765625 C15.93223267 -0.10551147 15.93223267 -0.10551147 17.14233398 -0.11352539 C19 0 19 0 20 1 C20.45765667 3.98889359 20.70320951 6.98969648 21 10 C25.95 10 30.9 10 36 10 C36.144375 8.535625 36.28875 7.07125 36.4375 5.5625 C36.875 1.125 36.875 1.125 38 0 C39.41570123 -0.08651611 40.835595 -0.10704904 42.25390625 -0.09765625 C43.53491211 -0.09282227 43.53491211 -0.09282227 44.84179688 -0.08789062 C45.73962891 -0.07951172 46.63746094 -0.07113281 47.5625 -0.0625 C48.46419922 -0.05798828 49.36589844 -0.05347656 50.29492188 -0.04882812 C52.53001314 -0.03700225 54.76497437 -0.0205222 57 0 C57 0.33 57 0.66 57 1 C51.06 1 45.12 1 39 1 C39.495 6.94 39.495 6.94 40 13 C42.475 13.99 42.475 13.99 45 15 C45 15.33 45 15.66 45 16 C35.26475712 16.13500337 25.70178229 15.7609241 16 15 C16.50144531 14.61199219 17.00289062 14.22398438 17.51953125 13.82421875 C19.24891882 12.07024209 19.24891882 12.07024209 19.07421875 9.51953125 C18.94660156 8.62621094 18.81898437 7.73289062 18.6875 6.8125 C18.460625 5.224375 18.23375 3.63625 18 2 C12.06 1.67 6.12 1.34 0 1 C0 0.67 0 0.34 0 0 Z " fill="#C8AB86" transform="translate(57,32)"/>
<path d="M0 0 C1.51400391 0.01740234 1.51400391 0.01740234 3.05859375 0.03515625 C4.07050781 0.04417969 5.08242187 0.05320313 6.125 0.0625 C7.29869141 0.07990234 7.29869141 0.07990234 8.49609375 0.09765625 C9.31519076 4.08301061 9.94276473 8.06625911 10.49609375 12.09765625 C9.08908993 12.68390784 7.66987119 13.24090584 6.24609375 13.78515625 C5.4571875 14.09839844 4.66828125 14.41164063 3.85546875 14.734375 C1.49609375 15.09765625 1.49609375 15.09765625 -0.75 14.03125 C-3.04933195 11.49635174 -3.12440258 9.857279 -3.31640625 6.47265625 C-3.41888672 4.99925781 -3.41888672 4.99925781 -3.5234375 3.49609375 C-3.49646895 0.18435531 -3.3089555 0.12905443 0 0 Z " fill="#F6B90B" transform="translate(66.50390625,32.90234375)"/>
<path d="M0 0 C1.93166016 0.01740234 1.93166016 0.01740234 3.90234375 0.03515625 C5.19269531 0.04417969 6.48304687 0.05320313 7.8125 0.0625 C8.81152344 0.07410156 9.81054688 0.08570313 10.83984375 0.09765625 C14.83984375 6.84765625 14.83984375 6.84765625 14.83984375 9.09765625 C15.49984375 9.09765625 16.15984375 9.09765625 16.83984375 9.09765625 C18.18407714 10.7555441 19.51602858 12.42341942 20.83984375 14.09765625 C22.9658756 15.8608913 22.9658756 15.8608913 24.83984375 17.09765625 C24.50984375 18.08765625 24.17984375 19.07765625 23.83984375 20.09765625 C18.6571336 22.04400155 12.67574339 21.8037715 7.58984375 19.84765625 C1.63934108 16.06097273 -1.7259147 12.76536136 -4.16015625 6.09765625 C-4.47265625 3.16015625 -4.47265625 3.16015625 -4.16015625 1.09765625 C-3.16015625 0.09765625 -3.16015625 0.09765625 0 0 Z M-2.16015625 2.09765625 C-1.18609983 7.42790945 0.18466526 11.48721232 4.15234375 15.34765625 C10.2569026 19.32271783 15.77639612 19.34892514 22.83984375 19.09765625 C22.1560087 15.92578357 22.1560087 15.92578357 19.46875 14.765625 C16.23593021 12.71448971 15.44637008 10.81496996 13.77734375 7.41015625 C12.1393432 4.40346369 12.1393432 4.40346369 9.83984375 2.09765625 C5.69328861 1.14155832 2.01729498 1.41856319 -2.16015625 2.09765625 Z " fill="#D9D0C8" transform="translate(20.16015625,63.90234375)"/>
<path d="M0 0 C0.9590625 0.00644531 1.918125 0.01289062 2.90625 0.01953125 C5.5 0.1875 5.5 0.1875 8.5 1.1875 C9.81640625 3.83984375 9.81640625 3.83984375 11.0625 7.125 C12.66603688 11.55137295 12.66603688 11.55137295 15.5 15.1875 C15.125 17.3125 15.125 17.3125 14.5 19.1875 C1.97488933 19.58866013 1.97488933 19.58866013 -2.5 17.1875 C-6.46929241 12.66691698 -7.52537366 7.95831387 -8.5 2.1875 C-5.13000798 -0.05916134 -3.93894538 -0.0582371 0 0 Z M-5.5 2.1875 C-6.31571335 4.53991204 -6.61686468 5.81396319 -5.86328125 8.22265625 C-5.51652344 8.89167969 -5.16976563 9.56070313 -4.8125 10.25 C-4.47863281 10.92160156 -4.14476562 11.59320313 -3.80078125 12.28515625 C-2.22210782 14.59390688 -0.94584467 15.8093197 1.5 17.1875 C4.5477445 17.54907879 4.5477445 17.54907879 7.75 17.375 C8.82765625 17.34792969 9.9053125 17.32085937 11.015625 17.29296875 C11.83546875 17.25816406 12.6553125 17.22335938 13.5 17.1875 C12.20282983 13.92141083 10.8869827 10.6665691 9.5 7.4375 C9.17 6.65890625 8.84 5.8803125 8.5 5.078125 C7.64458704 3.01748218 7.64458704 3.01748218 5.5 2.1875 C3.62620395 2.11716231 1.74998898 2.1031978 -0.125 2.125 C-1.62933594 2.13853516 -1.62933594 2.13853516 -3.1640625 2.15234375 C-4.32035156 2.16974609 -4.32035156 2.16974609 -5.5 2.1875 Z " fill="#D9D1C9" transform="translate(26.5,41.8125)"/>
<path d="M0 0 C1.134375 0.020625 2.26875 0.04125 3.4375 0.0625 C3.4375 4.0225 3.4375 7.9825 3.4375 12.0625 C0.625 12.6875 0.625 12.6875 -2.5625 13.0625 C-3.5525 12.4025 -4.5425 11.7425 -5.5625 11.0625 C-5.42207123 9.41619672 -5.27500671 7.77045821 -5.125 6.125 C-5.04378906 5.20847656 -4.96257813 4.29195312 -4.87890625 3.34765625 C-4.36077956 -0.39436982 -3.98403999 0.06989544 0 0 Z " fill="#E25D5C" transform="translate(60.5625,32.9375)"/>
<path d="M0 0 C3 1 3 1 4 3 C4.24213841 6.76555753 4.18520111 10.54002766 4.1875 14.3125 C4.19974609 15.35857422 4.21199219 16.40464844 4.22460938 17.48242188 C4.22750977 19.00125977 4.22750977 19.00125977 4.23046875 20.55078125 C4.23457764 21.47544189 4.23868652 22.40010254 4.24291992 23.3527832 C3.97653191 26.25574326 3.27669557 28.38706203 2 31 C-1.15028585 33.31304772 -4.42760641 33.37571346 -8.25 33.625 C-9.32765625 33.69976562 -10.4053125 33.77453125 -11.515625 33.8515625 C-12.33546875 33.90054688 -13.1553125 33.94953125 -14 34 C-11.525 35.98 -11.525 35.98 -9 38 C-12.94120709 37.43697042 -15.7508723 36.3208055 -19 34 C-19 33.34 -19 32.68 -19 32 C-14.41988127 30.63834308 -9.74002482 30.6319877 -4.99609375 30.37890625 C-1.82261631 30.20379872 -1.82261631 30.20379872 1 28 C1.54229575 25.55404053 1.54229575 25.55404053 1.58203125 22.6953125 C1.64874023 21.10783203 1.64874023 21.10783203 1.71679688 19.48828125 C1.74837891 18.37839844 1.77996094 17.26851562 1.8125 16.125 C1.86341797 15.02285156 1.91433594 13.92070313 1.96679688 12.78515625 C2.35406838 6.10177864 2.35406838 6.10177864 0 0 Z " fill="#D9D0C7" transform="translate(89,53)"/>
<path d="M0 0 C0.99 0.33 1.98 0.66 3 1 C3 3.97 3 6.94 3 10 C9.93 10 16.86 10 24 10 C24.33 11.65 24.66 13.3 25 15 C18.07 15 11.14 15 4 15 C4 14.67 4 14.34 4 14 C9.94 14 15.88 14 22 14 C22 13.34 22 12.68 22 12 C20.10314453 12.03480469 20.10314453 12.03480469 18.16796875 12.0703125 C16.5078184 12.08907126 14.84766167 12.10727135 13.1875 12.125 C12.35412109 12.14175781 11.52074219 12.15851562 10.66210938 12.17578125 C9.85966797 12.18222656 9.05722656 12.18867188 8.23046875 12.1953125 C7.12288208 12.21102295 7.12288208 12.21102295 5.99291992 12.22705078 C4 12 4 12 1 10 C0.48828125 7.6171875 0.48828125 7.6171875 0.3125 4.875 C0.24675781 3.96492188 0.18101563 3.05484375 0.11328125 2.1171875 C0.07589844 1.41851563 0.03851563 0.71984375 0 0 Z " fill="#D5C7B7" transform="translate(91,17)"/>
<path d="M0 0 C0.66 0.33 1.32 0.66 2 1 C1.67 4.3 1.34 7.6 1 11 C4.71012455 12.1515258 4.71012455 12.1515258 7.4375 11.8125 C10.93629644 12.0685095 12.46562058 13.6828531 15 16 C13.125 16.625 13.125 16.625 11 17 C10.34 16.34 9.68 15.68 9 15 C3.54600347 14.71789673 -1.60293036 15.22899005 -7 16 C-6.67 14.68 -6.34 13.36 -6 12 C-6.66 12 -7.32 12 -8 12 C-8 11.34 -8 10.68 -8 10 C-4.535 9.505 -4.535 9.505 -1 9 C-0.67 6.03 -0.34 3.06 0 0 Z " fill="#C8AB86" transform="translate(55,33)"/>
<path d="M0 0 C1.51400391 0.01740234 1.51400391 0.01740234 3.05859375 0.03515625 C4.07050781 0.04417969 5.08242187 0.05320313 6.125 0.0625 C7.29869141 0.07990234 7.29869141 0.07990234 8.49609375 0.09765625 C8.87828142 1.75380282 9.21004477 3.42222649 9.49609375 5.09765625 C9.16609375 5.42765625 8.83609375 5.75765625 8.49609375 6.09765625 C6.49858927 6.09765625 4.50054094 6.0940975 2.50390625 6.03515625 C0.28691944 6.00818215 0.28691944 6.00818215 -2.50390625 7.09765625 C-2.88523924 5.10625065 -3.21716207 3.10486548 -3.50390625 1.09765625 C-2.50390625 0.09765625 -2.50390625 0.09765625 0 0 Z " fill="#BB8E0F" transform="translate(66.50390625,32.90234375)"/>
<path d="M0 0 C0.89589844 0.00322266 1.79179688 0.00644531 2.71484375 0.00976562 C4.12056641 0.02233398 4.12056641 0.02233398 5.5546875 0.03515625 C6.49957031 0.03966797 7.44445312 0.04417969 8.41796875 0.04882812 C10.75527137 0.06063268 13.09244811 0.07709866 15.4296875 0.09765625 C15.4296875 0.42765625 15.4296875 0.75765625 15.4296875 1.09765625 C5.0346875 1.59265625 5.0346875 1.59265625 -5.5703125 2.09765625 C-5.5703125 5.06765625 -5.5703125 8.03765625 -5.5703125 11.09765625 C-7.39147253 12.91881628 -9.87703014 12.23000705 -12.296875 12.234375 C-13.04710937 12.23050781 -13.79734375 12.22664063 -14.5703125 12.22265625 C-15.69566406 12.22845703 -15.69566406 12.22845703 -16.84375 12.234375 C-22.44370197 12.22426678 -22.44370197 12.22426678 -23.5703125 11.09765625 C-23.80318258 9.41581677 -23.98295416 7.72641465 -24.1328125 6.03515625 C-24.21660156 5.11605469 -24.30039062 4.19695313 -24.38671875 3.25 C-24.47759766 2.18458984 -24.47759766 2.18458984 -24.5703125 1.09765625 C-23.9103125 1.09765625 -23.2503125 1.09765625 -22.5703125 1.09765625 C-22.375 3.1484375 -22.1796875 5.19921875 -21.984375 7.25 C-21.84773438 7.85972656 -21.71109375 8.46945313 -21.5703125 9.09765625 C-18.80579217 10.47991641 -16.5241762 10.19291012 -13.4453125 10.16015625 C-12.34960938 10.15113281 -11.25390625 10.14210938 -10.125 10.1328125 C-8.86042969 10.11541016 -8.86042969 10.11541016 -7.5703125 10.09765625 C-7.52132812 9.45957031 -7.47234375 8.82148437 -7.421875 8.1640625 C-7.34710938 7.33777344 -7.27234375 6.51148438 -7.1953125 5.66015625 C-7.12570313 4.83644531 -7.05609375 4.01273438 -6.984375 3.1640625 C-6.84773438 2.48214844 -6.71109375 1.80023438 -6.5703125 1.09765625 C-4.16971433 -0.10264283 -2.67670601 -0.01694118 0 0 Z " fill="#DAD2CA" transform="translate(60.5703125,30.90234375)"/>
<path d="M0 0 C0.98572998 0.32452148 1.97145996 0.64904297 2.98706055 0.98339844 C7.05046257 2.13881991 11.00320027 2.289264 15.20703125 2.265625 C15.9724675 2.26753845 16.73790375 2.2694519 17.52653503 2.27142334 C19.13756644 2.2727769 20.74860905 2.26913875 22.35961914 2.26074219 C24.79534071 2.25007515 27.23031734 2.26064264 29.66601562 2.2734375 C37.70836191 2.27961134 45.15454812 1.99904335 53 0 C50.57072291 2.66063681 48.74556838 3.86934956 45.03370667 4.14717102 C44.28854294 4.15701523 43.54337921 4.16685944 42.77563477 4.17700195 C41.92787979 4.18983719 41.08012482 4.20267242 40.2066803 4.21589661 C39.29413986 4.22328354 38.38159943 4.23067047 37.44140625 4.23828125 C36.50070786 4.246353 35.56000946 4.25442474 34.59080505 4.26274109 C32.60116412 4.27656842 30.61149959 4.28729662 28.62182617 4.29516602 C25.57750803 4.31241497 22.53426594 4.35631705 19.49023438 4.40039062 C17.55729965 4.41051469 15.6243557 4.41903168 13.69140625 4.42578125 C12.32563194 4.45204338 12.32563194 4.45204338 10.93226624 4.47883606 C4.5876155 4.45702204 4.5876155 4.45702204 1.39428711 1.97338867 C0.93417236 1.32217041 0.47405762 0.67095215 0 0 Z " fill="#DAD2CA" transform="translate(54,111)"/>
<path d="M0 0 C0.33 0.66 0.66 1.32 1 2 C0.07421875 4.609375 0.07421875 4.609375 -1.3125 7.75 C-2.69357651 10.89996247 -3.98851358 13.96402367 -5.03515625 17.2421875 C-6.1287229 20.36792861 -7.52251574 21.85284698 -10 24 C-10.33 23.34 -10.66 22.68 -11 22 C-10.34 22 -9.68 22 -9 22 C-8.74605469 20.90300781 -8.49210937 19.80601563 -8.23046875 18.67578125 C-7.88325755 17.22124786 -7.53557642 15.76682658 -7.1875 14.3125 C-7.02185547 13.59126953 -6.85621094 12.87003906 -6.68554688 12.12695312 C-5.67723358 7.96052648 -4.5655499 4.52173911 -2 1 C-1.34 0.67 -0.68 0.34 0 0 Z " fill="#CFBAA0" transform="translate(41,93)"/>
<path d="M0 0 C1.89748858 3.21696859 2.25658818 5.60976166 2.265625 9.32421875 C2.26820312 10.35353516 2.27078125 11.38285156 2.2734375 12.44335938 C2.26570313 13.51392578 2.25796875 14.58449219 2.25 15.6875 C2.25773437 16.73873047 2.26546875 17.78996094 2.2734375 18.87304688 C2.25762271 25.22663733 1.62152969 30.85491724 0 37 C-1.32 36.67 -2.64 36.34 -4 36 C-3.2733313 35.4898938 -3.2733313 35.4898938 -2.53198242 34.96948242 C-0.25626814 32.04387492 -0.52050278 29.05009293 -0.48828125 25.48828125 C-0.47033005 24.76005661 -0.45237885 24.03183197 -0.43388367 23.28153992 C-0.37975787 20.95858529 -0.3458792 18.63583634 -0.3125 16.3125 C-0.27932875 14.73629949 -0.24483927 13.16012612 -0.20898438 11.58398438 C-0.1240307 7.72280464 -0.05723124 3.86168613 0 0 Z " fill="#DAD2CA" transform="translate(107,54)"/>
<path d="M0 0 C2.32472205 2.85306797 3.7508258 5.54074837 5 9 C5.66 9 6.32 9 7 9 C8.34423339 10.65788785 9.67618483 12.32576317 11 14 C13.12603185 15.76323505 13.12603185 15.76323505 15 17 C14.67 17.99 14.34 18.98 14 20 C10.58729758 21.51675663 7.55830874 20.72783588 4 20 C4 19.67 4 19.34 4 19 C6.97 19 9.94 19 13 19 C12.15396493 16.80030055 12.15396493 16.80030055 9.8125 15.9375 C4.64850297 12.38007982 1.6813887 6.57881345 -1 1 C-0.67 0.67 -0.34 0.34 0 0 Z " fill="#D2C1AD" transform="translate(30,64)"/>
<path d="M0 0 C0.66 0 1.32 0 2 0 C2.22786458 2.05078125 2.45572917 4.1015625 2.68359375 6.15234375 C2.81886614 8.01140229 2.81886614 8.01140229 4 9 C6.01964199 9.07244053 8.04167124 9.08377188 10.0625 9.0625 C11.16722656 9.05347656 12.27195312 9.04445313 13.41015625 9.03515625 C14.26480469 9.02355469 15.11945313 9.01195312 16 9 C16 6.36 16 3.72 16 1 C16.99 1 17.98 1 19 1 C18.85950482 2.47968324 18.71245174 3.95874516 18.5625 5.4375 C18.48128906 6.26121094 18.40007812 7.08492187 18.31640625 7.93359375 C18 10 18 10 17 11 C14.48863896 11.09975032 12.01096585 11.13882183 9.5 11.125 C8.79746094 11.12886719 8.09492187 11.13273437 7.37109375 11.13671875 C2.12661378 11.12661378 2.12661378 11.12661378 1 10 C0.76712992 8.31816052 0.58735834 6.6287584 0.4375 4.9375 C0.35371094 4.01839844 0.26992187 3.09929688 0.18359375 2.15234375 C0.09271484 1.08693359 0.09271484 1.08693359 0 0 Z " fill="#DAD2CA" transform="translate(76,32)"/>
<path d="M0 0 C1.18613892 0.00785522 1.18613892 0.00785522 2.39624023 0.01586914 C3.67724609 0.02070313 3.67724609 0.02070313 4.98413086 0.02563477 C5.88196289 0.03401367 6.77979492 0.04239258 7.70483398 0.05102539 C8.6065332 0.05553711 9.50823242 0.06004883 10.43725586 0.06469727 C12.67230988 0.07652295 14.90733 0.09445901 17.14233398 0.11352539 C17.14233398 3.74352539 17.14233398 7.37352539 17.14233398 11.11352539 C16.48233398 11.11352539 15.82233398 11.11352539 15.14233398 11.11352539 C14.14233398 8.11352539 14.14233398 8.11352539 14.14233398 2.11352539 C9.19233398 2.11352539 4.24233398 2.11352539 -0.85766602 2.11352539 C-1.18766602 4.75352539 -1.51766602 7.39352539 -1.85766602 10.11352539 C-2.18766602 10.11352539 -2.51766602 10.11352539 -2.85766602 10.11352539 C-2.88455818 8.63445647 -2.90401223 7.15525056 -2.92016602 5.67602539 C-2.93176758 4.85231445 -2.94336914 4.02860352 -2.95532227 3.17993164 C-2.82952105 0.51797786 -2.66450099 0.16283256 0 0 Z " fill="#C8AB86" transform="translate(78.857666015625,15.886474609375)"/>
<path d="M0 0 C1.75570312 0.01353516 1.75570312 0.01353516 3.546875 0.02734375 C4.43890625 0.03894531 5.3309375 0.05054687 6.25 0.0625 C6.25 0.7225 6.25 1.3825 6.25 2.0625 C0.31 2.5575 0.31 2.5575 -5.75 3.0625 C-3.275 5.0425 -3.275 5.0425 -0.75 7.0625 C-4.69120709 6.49947042 -7.5008723 5.3833055 -10.75 3.0625 C-10.75 2.4025 -10.75 1.7425 -10.75 1.0625 C-7.14006828 -0.07230527 -3.7657673 -0.03765767 0 0 Z " fill="#D2C2AE" transform="translate(80.75,83.9375)"/>
<path d="M0 0 C0 3 0 3 -1.08203125 4.67578125 C-3.93273182 6.64398388 -6.27197647 6.28895119 -9.6875 6.1875 C-11.45673828 6.14689453 -11.45673828 6.14689453 -13.26171875 6.10546875 C-14.61716797 6.05326172 -14.61716797 6.05326172 -16 6 C-16.33 5.01 -16.66 4.02 -17 3 C-16.02417969 3.03480469 -15.04835938 3.06960937 -14.04296875 3.10546875 C-12.13451172 3.14607422 -12.13451172 3.14607422 -10.1875 3.1875 C-8.29064453 3.23970703 -8.29064453 3.23970703 -6.35546875 3.29296875 C-3.03403555 3.30827421 -3.03403555 3.30827421 -1.05078125 1.48828125 C-0.70402344 0.99714844 -0.35726562 0.50601563 0 0 Z " fill="#DAD2CA" transform="translate(33,110)"/>
<path d="M0 0 C3.14621682 0.13822199 6.29185566 0.28685084 9.4375 0.4375 C10.33533203 0.47681641 11.23316406 0.51613281 12.15820312 0.55664062 C13.01220703 0.59853516 13.86621094 0.64042969 14.74609375 0.68359375 C15.53685303 0.72025146 16.3276123 0.75690918 17.14233398 0.79467773 C19 1 19 1 20 2 C20.04063832 3.66617115 20.042721 5.33388095 20 7 C19.33613281 6.35546875 18.67226562 5.7109375 17.98828125 5.046875 C14.37414618 2.57131059 11.42730432 2.33925904 7.1875 2.25 C6.49462891 2.22035156 5.80175781 2.19070312 5.08789062 2.16015625 C3.39253787 2.09000372 1.69626688 2.04267338 0 2 C0 1.34 0 0.68 0 0 Z " fill="#D6C9BB" transform="translate(87,47)"/>
<path d="M0 0 C1.32 0.33 2.64 0.66 4 1 C4 3.31 4 5.62 4 8 C3.01 8.33 2.02 8.66 1 9 C0.45627049 5.94152152 0 3.11227195 0 0 Z " fill="#E25D5C" transform="translate(32,33)"/>
<path d="M0 0 C-0.66 2.97 -1.32 5.94 -2 9 C-2.33 9 -2.66 9 -3 9 C-3 7.02 -3 5.04 -3 3 C-4.98 3.99 -4.98 3.99 -7 5 C-5.64703851 0.94111554 -4.27479763 0 0 0 Z " fill="#C8AB86" transform="translate(115,97)"/>
<path d="M0 0 C0.66 0 1.32 0 2 0 C1.85915204 1.79206547 1.71216299 3.58364917 1.5625 5.375 C1.48128906 6.37273437 1.40007812 7.37046875 1.31640625 8.3984375 C1 11 1 11 0 13 C-1.32 12.67 -2.64 12.34 -4 12 C-3.51917969 11.60167969 -3.03835937 11.20335938 -2.54296875 10.79296875 C-0.62608175 8.56549753 -0.52258357 7.21165331 -0.3125 4.3125 C-0.21388672 3.10013672 -0.21388672 3.10013672 -0.11328125 1.86328125 C-0.07589844 1.24839844 -0.03851563 0.63351563 0 0 Z " fill="#D6CABC" transform="translate(107,78)"/>
<path d="M0 0 C0.33 0 0.66 0 1 0 C1.19406478 1.64507218 1.38007935 3.29109594 1.5625 4.9375 C1.66691406 5.85402344 1.77132812 6.77054688 1.87890625 7.71484375 C1.91886719 8.46894531 1.95882812 9.22304688 2 10 C1 11 1 11 -0.84765625 11.09765625 C-2.8984375 11.06510417 -4.94921875 11.03255208 -7 11 C-3.25 9 -3.25 9 -1 9 C-0.67 6.03 -0.34 3.06 0 0 Z " fill="#D0BDA6" transform="translate(36,17)"/>
<path d="M0 0 C4 0 4 0 6.125 1.875 C6.74375 2.57625 7.3625 3.2775 8 4 C8.66 4.66 9.32 5.32 10 6 C6.05879291 5.43697042 3.2491277 4.3208055 0 2 C0 1.34 0 0.68 0 0 Z " fill="#DAD2CA" transform="translate(70,85)"/>
<path d="M0 0 C0.66 0 1.32 0 2 0 C2.36923077 5.53846154 2.36923077 5.53846154 0.5 7.875 C-0.2425 8.431875 -0.2425 8.431875 -1 9 C-0.34 7.02 0.32 5.04 1 3 C0.01 3.33 -0.98 3.66 -2 4 C-1.34 2.68 -0.68 1.36 0 0 Z " fill="#DAD2CA" transform="translate(110,100)"/>
</svg>
