<?xml version="1.0" encoding="UTF-8"?>
<svg version="1.1" xmlns="http://www.w3.org/2000/svg" width="128" height="128">
<path d="M0 0 C42.24 0 84.48 0 128 0 C128 42.24 128 84.48 128 128 C85.76 128 43.52 128 0 128 C0 85.76 0 43.52 0 0 Z " fill="#FEFDFD" transform="translate(0,0)"/>
<path d="M0 0 C3.53421893 1.48516616 5.64122937 3.47004029 8.1875 6.3125 C8.88230469 7.07175781 9.57710937 7.83101562 10.29296875 8.61328125 C12.10994031 11.15371517 12.63575549 12.92838582 13 16 C16.55404883 15.69536724 17.75436217 15.27371072 20.1875 12.5625 C24.95721947 8.2167556 30.60149082 8.27523876 36.8125 7.5625 C41.17617927 8.16143637 42.22508873 9.6007337 45 13 C45.49886719 13.74765625 45.99773437 14.4953125 46.51171875 15.265625 C49.66144058 20.07264674 49.66144058 20.07264674 54.49609375 22.8125 C56.22334391 23.05888338 57.95405795 23.28228559 59.6875 23.48046875 C62.41036087 24.09219256 63.34892486 24.88586511 65.125 27 C67 30 67 30 67 32 C68.175625 32.433125 68.175625 32.433125 69.375 32.875 C72 34 72 34 74 36 C74.5625 38.25 74.5625 38.25 74 41 C72.84810838 41.94117974 71.65428751 42.83187054 70.4375 43.6875 C68.42693651 45.11579296 68.42693651 45.11579296 67 47 C66.92666481 49.64438056 67.37233926 51.98481542 67.828125 54.5859375 C68.02432036 57.34159045 67.71071344 58.39442976 66.125 60.625 C61.98281955 63.77305714 59.02148858 63.59076336 54 63 C54.47565766 65.45906037 54.95536052 67.91720993 55.4375 70.375 C55.57220703 71.07367188 55.70691406 71.77234375 55.84570312 72.4921875 C56.5772422 76.35628734 56.5772422 76.35628734 58 80 C58.039992 81.99960012 58.04346799 84.00047242 58 86 C53.10456739 89.20085978 50.30303163 90.40743527 44.5 89.25 C42.96279297 88.91548828 42.96279297 88.91548828 41.39453125 88.57421875 C37.61309169 87.93455061 34.0010111 87.95303002 30.1875 88.0625 C17.66786146 88.27507786 6.56597938 85.97438165 -4 79 C-5 78 -5 78 -5.375 74.125 C-5.359375 71.9453125 -5.359375 71.9453125 -5 70 C-2.59140121 67.97170628 -1.16955691 67 2 67 C1.95547581 64.67108098 1.95547581 64.67108098 1 62 C-0.95927063 60.2856382 -2.95880212 58.61594832 -5 57 C-5.495 55.515 -5.495 55.515 -6 54 C-4.0625 51.3125 -4.0625 51.3125 -2 49 C-2.99 48.67 -3.98 48.34 -5 48 C-6.33038348 42.55752212 -6.33038348 42.55752212 -5 40.3125 C-0.43818403 37.31880827 3.56447367 35.80387276 9 36 C5.40422246 21.35756362 5.40422246 21.35756362 -0.08203125 7.34765625 C-1 5 -1 5 -1 1 C-0.67 0.67 -0.34 0.34 0 0 Z " fill="#4FBCD0" transform="translate(29,15)"/>
<path d="M0 0 C3.20395207 0.14587099 4.60122984 0.59874271 6.87890625 2.890625 C7.71228516 4.05851562 7.71228516 4.05851562 8.5625 5.25 C9.16191406 6.05824219 9.76132813 6.86648437 10.37890625 7.69921875 C11.62133192 9.46256506 12.82053036 11.25643712 14 13.0625 C15.94739451 15.39863268 15.94739451 15.39863268 19.4375 15 C23 15 23 15 25.9375 16.8125 C28.97852649 21.51226821 29.08129457 25.55598221 28 31 C26.70407121 33.45011536 25.21621382 35.52505013 23.53125 37.72265625 C21.35843728 40.95416088 20.49615126 44.28784231 19.54296875 48.03125 C19 50 19 50 18 51 C17.59586713 57.29639005 19.02364333 62.51931818 20.75390625 68.47851562 C21.25136757 70.29853789 21.63521414 72.14881657 22 74 C21.34 74.66 20.68 75.32 20 76 C15.72154243 75.86978607 13.54283816 72.8034903 10.75 69.875 C6.86214433 65.84472246 2.91074737 62.0729776 -1.44140625 58.53515625 C-3.17439831 56.82822422 -3.94452599 55.17277495 -5 53 C-5.78375 52.401875 -6.5675 51.80375 -7.375 51.1875 C-10.70687684 48.41093597 -12.0650404 45.86991919 -14 42 C-14 41.34 -14 40.68 -14 40 C-14.56203125 39.73445313 -15.1240625 39.46890625 -15.703125 39.1953125 C-18.17930222 37.90668966 -20.43844882 36.43869639 -22.75 34.875 C-23.54921875 34.33617187 -24.3484375 33.79734375 -25.171875 33.2421875 C-25.77515625 32.83226562 -26.3784375 32.42234375 -27 32 C-24 30 -24 30 -21 30 C-22.00531703 26.47462818 -23.01432109 22.95060577 -24.03515625 19.4296875 C-24.37417969 18.25664063 -24.71320312 17.08359375 -25.0625 15.875 C-25.40410156 14.69679688 -25.74570312 13.51859375 -26.09765625 12.3046875 C-26.85186057 9.54253663 -27.48486527 6.81465367 -28 4 C-25 4 -25 4 -23.61328125 5.3125 C-22.40885417 6.875 -21.20442708 8.4375 -20 10 C-18.12946603 9.86965506 -18.12946603 9.86965506 -16 9 C-15.195625 7.7934375 -15.195625 7.7934375 -14.375 6.5625 C-11.24636052 3.18686267 -8.68601241 3.05701354 -4.2421875 2.45703125 C-1.80777128 2.17552616 -1.80777128 2.17552616 0 0 Z " fill="#F3CB0C" transform="translate(64,25)"/>
<path d="M0 0 C3.53421893 1.48516616 5.64122937 3.47004029 8.1875 6.3125 C8.88230469 7.07175781 9.57710937 7.83101562 10.29296875 8.61328125 C12.10994031 11.15371517 12.63575549 12.92838582 13 16 C16.55404883 15.69536724 17.75436217 15.27371072 20.1875 12.5625 C24.95721947 8.2167556 30.60149082 8.27523876 36.8125 7.5625 C41.17617927 8.16143637 42.22508873 9.6007337 45 13 C45.49886719 13.74765625 45.99773437 14.4953125 46.51171875 15.265625 C49.66144058 20.07264674 49.66144058 20.07264674 54.49609375 22.8125 C56.22334391 23.05888338 57.95405795 23.28228559 59.6875 23.48046875 C62.41036087 24.09219256 63.34892486 24.88586511 65.125 27 C67 30 67 30 67 32 C68.175625 32.433125 68.175625 32.433125 69.375 32.875 C72 34 72 34 74 36 C74.5625 38.25 74.5625 38.25 74 41 C72.84810838 41.94117974 71.65428751 42.83187054 70.4375 43.6875 C68.42693651 45.11579296 68.42693651 45.11579296 67 47 C66.92666481 49.64438056 67.37233926 51.98481542 67.828125 54.5859375 C68.02432036 57.34159045 67.71071344 58.39442976 66.125 60.625 C61.98281955 63.77305714 59.02148858 63.59076336 54 63 C54.47565766 65.45906037 54.95536052 67.91720993 55.4375 70.375 C55.57220703 71.07367188 55.70691406 71.77234375 55.84570312 72.4921875 C56.5772422 76.35628734 56.5772422 76.35628734 58 80 C58.039992 81.99960012 58.04346799 84.00047242 58 86 C55.03 86.99 55.03 86.99 52 88 C52 87.34 52 86.68 52 86 C53.98 85.01 53.98 85.01 56 84 C55.71125 82.92621094 55.4225 81.85242188 55.125 80.74609375 C54.74955389 79.31001239 54.37457895 77.87380779 54 76.4375 C53.80921875 75.73302734 53.6184375 75.02855469 53.421875 74.30273438 C51.02231043 65.00442166 51.93291827 57.64694475 56.5 49.23828125 C60.49692982 42.50307018 60.49692982 42.50307018 62 41 C62.4881212 36.15879793 62.92606111 31.59282511 60.4375 27.3125 C57.956326 25.71143366 57.956326 25.71143366 54.5625 26.125 C51 26 51 26 48.5 23.5625 C47.65464552 22.38352736 46.82300343 21.1946824 46 20 C44.73569226 18.3699177 43.46461503 16.74506776 42.1875 15.125 C41.12396768 13.75079832 40.06110696 12.37607531 39 11 C35.70924004 11.37904208 35.70924004 11.37904208 33 13 C31.41873769 13.24304587 29.83490369 13.46945852 28.25 13.6875 C24.42456215 14.39449353 22.35326482 15.08088859 19.875 18.125 C19.25625 19.07375 18.6375 20.0225 18 21 C15.62051228 20.82374165 14.29774151 20.30280227 12.62109375 18.59765625 C11.37884514 17.09350908 10.18623944 15.54870149 9 14 C7.76943658 15.92164198 7.76943658 15.92164198 8.453125 17.84765625 C8.71609375 18.57855469 8.9790625 19.30945313 9.25 20.0625 C9.52972656 20.86429688 9.80945312 21.66609375 10.09765625 22.4921875 C10.68475282 24.12385849 11.27569802 25.75415154 11.87109375 27.3828125 C12.14050781 28.14335938 12.40992187 28.90390625 12.6875 29.6875 C12.93886719 30.37199219 13.19023438 31.05648437 13.44921875 31.76171875 C14 34 14 34 14 40 C9.71 40.99 5.42 41.98 1 43 C1 43.66 1 44.32 1 45 C6.28 46.32 11.56 47.64 17 49 C16.67 50.65 16.34 52.3 16 54 C12.57767028 55.14077657 9.91326783 55.09815117 6.3125 55.0625 C4.54326172 55.04896484 4.54326172 55.04896484 2.73828125 55.03515625 C1.83464844 55.02355469 0.93101563 55.01195312 0 55 C0.40992188 55.45890625 0.81984375 55.9178125 1.2421875 56.390625 C1.78101563 57.00421875 2.31984375 57.6178125 2.875 58.25 C3.40867187 58.85328125 3.94234375 59.4565625 4.4921875 60.078125 C5.9797487 61.97418746 7.00322436 63.81290005 8 66 C7.01 66 6.02 66 5 66 C4.34 65.34 3.68 64.68 3 64 C1.22575781 62.53541328 -0.55540947 61.08015589 -2.34375 59.6328125 C-4.11925301 57.88243453 -5.01525223 56.27476734 -6 54 C-4.02 51.525 -4.02 51.525 -2 49 C-2.99 48.67 -3.98 48.34 -5 48 C-6.33038348 42.55752212 -6.33038348 42.55752212 -5 40.3125 C-0.43818403 37.31880827 3.56447367 35.80387276 9 36 C5.40422246 21.35756362 5.40422246 21.35756362 -0.08203125 7.34765625 C-1 5 -1 5 -1 1 C-0.67 0.67 -0.34 0.34 0 0 Z " fill="#EBE0BE" transform="translate(29,15)"/>
<path d="M0 0 C2.83584669 2.9149866 3.47549491 5.16786496 3.5625 9.1875 C3.43236687 14.63863214 1.78604822 17.47760102 -1.46875 21.72265625 C-3.64156272 24.95416088 -4.50384874 28.28784231 -5.45703125 32.03125 C-6 34 -6 34 -7 35 C-7.40413287 41.29639005 -5.97635667 46.51931818 -4.24609375 52.47851562 C-3.74863243 54.29853789 -3.36478586 56.14881657 -3 58 C-3.66 58.66 -4.32 59.32 -5 60 C-9.27845757 59.86978607 -11.45716184 56.8034903 -14.25 53.875 C-18.13785567 49.84472246 -22.08925263 46.0729776 -26.44140625 42.53515625 C-28.17439831 40.82822422 -28.94452599 39.17277495 -30 37 C-30.78375 36.401875 -31.5675 35.80375 -32.375 35.1875 C-35.70687684 32.41093597 -37.0650404 29.86991919 -39 26 C-39 25.34 -39 24.68 -39 24 C-39.66 24 -40.32 24 -41 24 C-40.67 23.01 -40.34 22.02 -40 21 C-35.80837855 21.95264124 -34.2792209 22.63260408 -31.625 26.125 C-31.08875 27.07375 -30.5525 28.0225 -30 29 C-25.98061389 28.47754947 -23.98051271 27.47423197 -21.0625 24.6875 C-17.85164914 21.73109393 -14.69173555 19.31806651 -11 17 C-10.01 16.34 -9.02 15.68 -8 15 C-8.495 14.01 -8.99 13.02 -9.5 12 C-11.30103581 7.86522766 -11.23515871 4.46801547 -11 0 C-7.15783458 -1.38317955 -3.92585641 -0.9279297 0 0 Z " fill="#ED9514" transform="translate(89,41)"/>
<path d="M0 0 C0.556875 0.391875 1.11375 0.78375 1.6875 1.1875 C1.93805928 7.70204139 1.93805928 7.70204139 0.6875 10.125 C-2.05182137 15.77485033 -0.06016434 21.37533711 1.75 27 C2.13285156 28.09957031 2.51570313 29.19914062 2.91015625 30.33203125 C3.6875 33.1875 3.6875 33.1875 2.6875 36.1875 C0.00786332 35.13478559 -1.27280843 34.23853202 -3.0625 31.9375 C-5.57624909 28.86514 -8.27213806 26.87605456 -11.5078125 24.6171875 C-13.3125 23.1875 -13.3125 23.1875 -15.3125 20.1875 C-15.3125 19.1975 -15.3125 18.2075 -15.3125 17.1875 C-14.85875 16.775 -14.405 16.3625 -13.9375 15.9375 C-11.56928573 13.38711541 -11.22919645 10.51052462 -10.3125 7.1875 C-8.2826197 2.93441747 -5.23581271 -1.83960987 0 0 Z " fill="#DB1326" transform="translate(80.3125,62.8125)"/>
<path d="M0 0 C2.1875 0.8125 2.1875 0.8125 3.1875 1.8125 C3.31285652 3.41298202 3.36324787 5.01965928 3.375 6.625 C3.38917969 7.49769531 3.40335938 8.37039062 3.41796875 9.26953125 C3.1875 11.8125 3.1875 11.8125 2.17578125 13.69921875 C-0.74265027 19.93981738 2.13664827 27.07524978 3.94140625 33.29101562 C4.43886757 35.11103789 4.82271414 36.96131657 5.1875 38.8125 C4.5275 39.4725 3.8675 40.1325 3.1875 40.8125 C-1.09095757 40.68228607 -3.26966184 37.6159903 -6.0625 34.6875 C-9.95035567 30.65722246 -13.90175263 26.8854776 -18.25390625 23.34765625 C-19.98689831 21.64072422 -20.75702599 19.98527495 -21.8125 17.8125 C-22.988125 16.9153125 -22.988125 16.9153125 -24.1875 16 C-27.51937684 13.22343597 -28.8775404 10.68241919 -30.8125 6.8125 C-30.8125 6.1525 -30.8125 5.4925 -30.8125 4.8125 C-31.4725 4.8125 -32.1325 4.8125 -32.8125 4.8125 C-32.4825 3.8225 -32.1525 2.8325 -31.8125 1.8125 C-29.5625 2.25 -29.5625 2.25 -26.8125 3.8125 C-25.67079651 6.10442716 -24.80834778 8.38747663 -24 10.81640625 C-22.94486454 13.02148565 -22.94486454 13.02148565 -20.46484375 13.8828125 C-17.6509989 14.08920452 -17.6509989 14.08920452 -15.56640625 11.86328125 C-14.84324219 10.95964844 -14.12007812 10.05601563 -13.375 9.125 C-5.34515421 -0.35634361 -5.34515421 -0.35634361 0 0 Z M-2.8125 1.8125 C-7.75881859 4.78029116 -10.84047769 7.17258669 -12.36328125 12.875 C-12.53214844 13.596875 -12.70101562 14.31875 -12.875 15.0625 C-13.184375 16.3 -13.49375 17.5375 -13.8125 18.8125 C-14.4725 19.1425 -15.1325 19.4725 -15.8125 19.8125 C-15.3369482 24.0924662 -12.89889827 26.00668339 -9.8125 28.8125 C-8.9875 29.451875 -8.1625 30.09125 -7.3125 30.75 C-4.35569496 33.18936416 -2.19614512 35.81591756 0.1875 38.8125 C1.6725 38.3175 1.6725 38.3175 3.1875 37.8125 C2.98253906 37.14863281 2.77757813 36.48476562 2.56640625 35.80078125 C2.29699219 34.91777344 2.02757813 34.03476563 1.75 33.125 C1.48316406 32.25488281 1.21632813 31.38476562 0.94140625 30.48828125 C-0.98003869 23.66864507 -2.16491387 17.30780187 1.1875 10.8125 C1.2652346 8.48046188 1.27717728 6.14410941 1.1875 3.8125 C-0.1325 3.1525 -1.4525 2.4925 -2.8125 1.8125 Z " fill="#D95817" transform="translate(80.8125,60.1875)"/>
<path d="M0 0 C3.70631122 3.05225629 6.00891761 6.94262175 8.53515625 10.9765625 C10.00597275 13.25581948 10.00597275 13.25581948 13 15 C12.67 15.99 12.34 16.98 12 18 C8.33637419 15.32654333 6.22748343 12.92461366 4 9 C3.34 8.67 2.68 8.34 2 8 C2 8.721875 2 9.44375 2 10.1875 C0.63627163 14.02298605 -1.53476666 15.07431907 -4.89453125 17.1796875 C-7 18 -7 18 -8.99609375 17.91796875 C-11.79758513 16.63463449 -13.27035681 14.78007778 -15.25 12.4375 C-15.95640625 11.61121094 -16.6628125 10.78492187 -17.390625 9.93359375 C-17.92171875 9.29550781 -18.4528125 8.65742187 -19 8 C-18.67 7.34 -18.34 6.68 -18 6 C-17.09636719 6.01160156 -16.19273438 6.02320312 -15.26171875 6.03515625 C-13.49248047 6.04869141 -13.49248047 6.04869141 -11.6875 6.0625 C-10.51574219 6.07410156 -9.34398437 6.08570312 -8.13671875 6.09765625 C-4.96940805 6.14899898 -4.96940805 6.14899898 -2 5 C-1.26676204 2.98491642 -1.26676204 2.98491642 -1 1 C-1.556875 0.96261719 -2.11375 0.92523438 -2.6875 0.88671875 C-8.28625424 0.40439364 -12.81665364 -0.83241879 -18 -3 C-17.67 -3.99 -17.34 -4.98 -17 -6 C-10.21824367 -7.8838212 -5.50709326 -3.72471453 0 0 Z " fill="#65A849" transform="translate(47,63)"/>
<path d="M0 0 C3.75376152 1.25125384 4.24073289 2.5652404 6 6 C6 6.66 6 7.32 6 8 C6.804375 8.268125 7.60875 8.53625 8.4375 8.8125 C9.283125 9.204375 10.12875 9.59625 11 10 C11.33 10.99 11.66 11.98 12 13 C9.84414544 15.23570102 7.74069078 17.19448192 5.25 19.0625 C4.5075 19.701875 3.765 20.34125 3 21 C3 21.99 3 22.98 3 24 C3.99 24.66 4.98 25.32 6 26 C5.52166934 32.33788122 5.52166934 32.33788122 3.375 35.0625 C-0.16790113 36.4610136 -2.52721586 35.2689019 -6 34 C-5.31731067 28.36192775 -4.37594149 24.12032948 -0.875 19.5625 C2.31693803 15.18720934 2.59079252 11.80913388 2.40625 6.48046875 C1.99383503 3.96235814 1.27047209 2.19771181 0 0 Z " fill="#EFD968" transform="translate(89,41)"/>
<path d="M0 0 C2 2 2 2 2 6 C0.02 6.99 -1.96 7.98 -4 9 C-4.67154684 11.28341743 -4.67154684 11.28341743 -4 14 C4.9363031 22.37473214 18.43327541 22.95160366 30 23 C31.04929688 22.82082031 32.09859375 22.64164063 33.1796875 22.45703125 C36.12743902 21.97934852 38.0066116 22.19867269 40.875 22.9375 C41.65617187 23.13214844 42.43734375 23.32679687 43.2421875 23.52734375 C43.82226562 23.68332031 44.40234375 23.83929688 45 24 C44.505 21.525 44.505 21.525 44 19 C46.475 20.98 46.475 20.98 49 23 C48.67 24.32 48.34 25.64 48 27 C44.74811124 28.02880551 43.78720743 27.94680186 40.25 27.0625 C35.91222637 25.98161214 31.8127231 25.95037456 27.375 26.0625 C14.8110296 26.26788538 3.65660821 24.03420384 -7 17 C-8 16 -8 16 -8.375 12.125 C-8.359375 9.9453125 -8.359375 9.9453125 -8 8 C-5.59140121 5.97170628 -4.16955691 5 -1 5 C-0.67 3.35 -0.34 1.7 0 0 Z " fill="#A0DEE1" transform="translate(32,77)"/>
<path d="M0 0 C3.35620271 1.38877354 5.07298728 2.91677965 7 6 C7 6.66 7 7.32 7 8 C8.175625 8.433125 8.175625 8.433125 9.375 8.875 C12 10 12 10 14 12 C14.5625 14.25 14.5625 14.25 14 17 C12.84810838 17.94117974 11.65428751 18.83187054 10.4375 19.6875 C8.42693651 21.11579296 8.42693651 21.11579296 7 23 C6.92666481 25.64438056 7.37233926 27.98481542 7.828125 30.5859375 C8.02432036 33.34159045 7.71071344 34.39442976 6.125 36.625 C1.98281955 39.77305714 -0.97851142 39.59076336 -6 39 C-5.52434234 41.45906037 -5.04463948 43.91720993 -4.5625 46.375 C-4.42779297 47.07367188 -4.29308594 47.77234375 -4.15429688 48.4921875 C-3.4227578 52.35628734 -3.4227578 52.35628734 -2 56 C-1.960008 57.99960012 -1.95653201 60.00047242 -2 62 C-3.98 62.66 -5.96 63.32 -8 64 C-8 63.34 -8 62.68 -8 62 C-6.68 61.34 -5.36 60.68 -4 60 C-4.28875 58.92621094 -4.5775 57.85242188 -4.875 56.74609375 C-5.25044611 55.31001239 -5.62542105 53.87380779 -6 52.4375 C-6.19078125 51.73302734 -6.3815625 51.02855469 -6.578125 50.30273438 C-7.75834086 45.72939791 -8.19856973 41.72223635 -8 37 C-3.42857143 35.85714286 -3.42857143 35.85714286 -0.9375 36.6875 C-0.298125 36.790625 0.34125 36.89375 1 37 C3.79255314 34.98315606 4.86645978 33.80124134 5.4375 30.375 C5.2209375 29.199375 5.2209375 29.199375 5 28 C4.01 27.34 3.02 26.68 2 26 C2.17298401 23.66471585 2.70225369 22.30822418 4.33203125 20.62109375 C8.57211538 17 8.57211538 17 11 17 C10.81171228 14.55519921 10.81171228 14.55519921 10 12 C9.1028125 11.566875 9.1028125 11.566875 8.1875 11.125 C5.64273945 9.81626601 5.21116321 8.9046478 3.875 6.4375 C2.40524759 2.96468026 2.40524759 2.96468026 0 2 C0 1.34 0 0.68 0 0 Z " fill="#EBE1BF" transform="translate(89,39)"/>
<path d="M0 0 C3.17778231 0.15602859 4.6435673 0.67872797 7.01953125 2.8203125 C9.99275498 6.64210335 11.86544952 9.05814666 12.5625 13.9375 C12 17 12 17 10 19 C6.875 19.125 6.875 19.125 4 19 C3.73445313 18.30132812 3.46890625 17.60265625 3.1953125 16.8828125 C2.84210938 15.97273438 2.48890625 15.06265625 2.125 14.125 C1.77695313 13.22007813 1.42890625 12.31515625 1.0703125 11.3828125 C0.11469105 8.87782993 0.11469105 8.87782993 -2 7 C-2.25 4.5 -2.25 4.5 -2 2 C-1.34 1.34 -0.68 0.68 0 0 Z " fill="#ED9515" transform="translate(64,25)"/>
<path d="M0 0 C0 0.66 0 1.32 0 2 C-2.31 2.66 -4.62 3.32 -7 4 C-7 4.66 -7 5.32 -7 6 C0.92 7.98 0.92 7.98 9 10 C8.67 11.65 8.34 13.3 8 15 C4.57767028 16.14077657 1.91326783 16.09815117 -1.6875 16.0625 C-3.45673828 16.04896484 -3.45673828 16.04896484 -5.26171875 16.03515625 C-6.61716797 16.01775391 -6.61716797 16.01775391 -8 16 C-7.59007812 16.45890625 -7.18015625 16.9178125 -6.7578125 17.390625 C-6.21898437 18.00421875 -5.68015625 18.6178125 -5.125 19.25 C-4.59132813 19.85328125 -4.05765625 20.4565625 -3.5078125 21.078125 C-2.0202513 22.97418746 -0.99677564 24.81290005 0 27 C-0.99 27 -1.98 27 -3 27 C-4.36363208 25.02053408 -5.69418644 23.0180755 -7 21 C-7.7425 20.46375 -8.485 19.9275 -9.25 19.375 C-9.8275 18.92125 -10.405 18.4675 -11 18 C-11 16.68 -11 15.36 -11 14 C-6.94131731 13.01607692 -3.16199089 13 1 13 C1.33 12.67 1.66 12.34 2 12 C1.22914062 11.80664062 0.45828125 11.61328125 -0.3359375 11.4140625 C-1.33882812 11.15367188 -2.34171875 10.89328125 -3.375 10.625 C-4.37273438 10.36976562 -5.37046875 10.11453125 -6.3984375 9.8515625 C-9 9 -9 9 -11 7 C-11.0625 4.5625 -11.0625 4.5625 -10 2 C-4 -1.33333333 -4 -1.33333333 0 0 Z " fill="#93C38B" transform="translate(37,54)"/>
<path d="M0 0 C0.625 1.75 0.625 1.75 1 4 C0.5359375 4.8971875 0.5359375 4.8971875 0.0625 5.8125 C-2.95715434 12.0294354 -0.05404706 19.25174477 1.75390625 25.47851562 C2.25136757 27.29853789 2.63521414 29.14881657 3 31 C2.34 31.66 1.68 32.32 1 33 C-3.27845757 32.86978607 -5.45716184 29.8034903 -8.25 26.875 C-12.16909422 22.81212212 -16.15946002 19.0126857 -20.5390625 15.4375 C-22 14 -22 14 -23 11 C-22.01 10.67 -21.02 10.34 -20 10 C-19.34 9.01 -18.68 8.02 -18 7 C-16.68 7 -15.36 7 -14 7 C-14.66 8.65 -15.32 10.3 -16 12 C-16.66 12 -17.32 12 -18 12 C-15.98565144 17.50588606 -12.83514915 19.90228552 -8.15625 23.3203125 C-5.6668873 25.25948997 -3.8985006 27.49397921 -2 30 C-1.34 30 -0.68 30 0 30 C-0.20496094 29.33613281 -0.40992187 28.67226562 -0.62109375 27.98828125 C-0.89050781 27.10527344 -1.15992187 26.22226563 -1.4375 25.3125 C-1.70433594 24.44238281 -1.97117187 23.57226562 -2.24609375 22.67578125 C-3.85670744 16.95935441 -5.55441752 10.5975602 -3.10546875 4.9296875 C-2.14008129 3.24452353 -1.07728299 1.61592448 0 0 Z " fill="#DC6F76" transform="translate(83,68)"/>
<path d="M0 0 C2.31 0.33 4.62 0.66 7 1 C8.09644404 6.94457613 8.41029848 10.67993436 5 16 C4.01 16 3.02 16 2 16 C-0.89725234 11.47304321 -2.75584653 8.54287459 -2 3 C-1.34 2.01 -0.68 1.02 0 0 Z " fill="#D95C2A" transform="translate(82,40)"/>
<path d="M0 0 C-0.33 2.31 -0.66 4.62 -1 7 C1.90546809 8.23262282 4.69111335 9.18429689 7.75 10 C8.8225 10.33 9.895 10.66 11 11 C11.33 11.66 11.66 12.32 12 13 C9.23547967 14.38226016 6.9538637 14.09525387 3.875 14.0625 C2.77929688 14.05347656 1.68359375 14.04445313 0.5546875 14.03515625 C-0.70988281 14.01775391 -0.70988281 14.01775391 -2 14 C-2 15.32 -2 16.64 -2 18 C-1.071875 18.433125 -1.071875 18.433125 -0.125 18.875 C2 20 2 20 4 22 C3.67 22.99 3.34 23.98 3 25 C2.4225 24.2575 1.845 23.515 1.25 22.75 C-0.72253526 20.33912357 -2.76044282 18.15957299 -5 16 C-4.0022242 13.00667261 -3.2477975 12.05233685 -1 10 C-1.99 9.67 -2.98 9.34 -4 9 C-4.6875 6.1875 -4.6875 6.1875 -5 3 C-3.41464922 0.73521317 -2.79754986 0 0 0 Z " fill="#E7E0C0" transform="translate(28,54)"/>
<path d="M0 0 C1.47764492 1.95537974 2.88822148 3.9622307 4.25 6 C6.86163679 9.73638828 8.92837328 12.66349071 13.5625 13.75 C14.696875 13.8325 15.83125 13.915 17 14 C17 14.66 17 15.32 17 16 C13.92571583 16.36168049 11.06611831 16.48248562 8 16 C5.7934292 13.9510414 4.59254747 12.46120972 3 10 C1.82750958 8.40551986 0.63917913 6.82259911 -0.5625 5.25 C-1.12066406 4.49203125 -1.67882812 3.7340625 -2.25390625 2.953125 C-4.05479675 0.93870609 -5.52205499 0.01937344 -8 -1 C-4.54220917 -2.23492529 -3.05921753 -2.01323507 0 0 Z " fill="#ECDD98" transform="translate(72,25)"/>
<path d="M0 0 C3.71323586 0.50178863 5.66276162 1.02533297 8 4 C8.51171875 6.26171875 8.51171875 6.26171875 8.6875 8.6875 C8.75324219 9.49574219 8.81898437 10.30398437 8.88671875 11.13671875 C8.92410156 11.75160156 8.96148437 12.36648437 9 13 C6 13 6 13 4.6484375 11.6796875 C1.90945181 7.79805747 0.35639237 4.87069569 0 0 Z " fill="#D95B23" transform="translate(64,25)"/>
<path d="M0 0 C3.0483248 0.32660623 4.00507689 1.00522194 6.1875 3.25 C7.98276778 5.97385456 8.63365868 7.79451349 9 11 C7.68 10.01 6.36 9.02 5 8 C5.66 11.3 6.32 14.6 7 18 C4.17433131 15.17433131 3.23448278 13.70992211 1.8125 10.125 C1.46832031 9.28195313 1.12414063 8.43890625 0.76953125 7.5703125 C-0.02757207 4.90790649 -0.14355008 2.7621015 0 0 Z " fill="#DC6F76" transform="translate(32,21)"/>
<path d="M0 0 C4.80666514 4.04771801 6.13397678 6.93783744 7 13 C6.125 15.5 6.125 15.5 5 17 C1.50653104 12.17568572 0.40473277 6.68866959 -1 1 C-0.67 0.67 -0.34 0.34 0 0 Z " fill="#ED9515" transform="translate(37,28)"/>
<path d="M0 0 C3 1 3 1 4.1875 3.0625 C4.455625 3.701875 4.72375 4.34125 5 5 C4.01 5 3.02 5 2 5 C1.67 6.32 1.34 7.64 1 9 C-0.65 9.33 -2.3 9.66 -4 10 C-4 9.34 -4 8.68 -4 8 C-5.32 8.33 -6.64 8.66 -8 9 C-6.35491434 7.19040578 -5.13345311 6.05887637 -2.875 5.0625 C-0.79278299 4.15354435 -0.79278299 4.15354435 -0.25 1.875 C-0.1675 1.25625 -0.085 0.6375 0 0 Z " fill="#93C38B" transform="translate(49,71)"/>
<path d="M0 0 C2.0625 0.4375 2.0625 0.4375 4 1 C4.6875 4.3125 4.6875 4.3125 5 8 C3.5625 9.9375 3.5625 9.9375 2 11 C-0.39014869 7.51436649 -1.47274656 5.25471906 -1 1 C-0.67 0.67 -0.34 0.34 0 0 Z " fill="#DC1327" transform="translate(83,43)"/>
<path d="M0 0 C2 1 2 1 2.8515625 2.85546875 C4.3516571 7.37848126 5.37173481 11.16744753 5 16 C3.02 16.33 1.04 16.66 -1 17 C-1.33 16.01 -1.66 15.02 -2 14 C-0.68 13.67 0.64 13.34 2 13 C1.855625 12.39671875 1.71125 11.7934375 1.5625 11.171875 C1.376875 10.37265625 1.19125 9.5734375 1 8.75 C0.814375 7.96109375 0.62875 7.1721875 0.4375 6.359375 C0 4 0 4 0 0 Z " fill="#EFD968" transform="translate(38,39)"/>
<path d="M0 0 C-2.42493406 2.42493406 -3.48256323 2.33063765 -6.8125 2.75 C-10.63215339 3.42438164 -12.65287998 4.09006302 -15.125 7.125 C-15.74375 8.07375 -16.3625 9.0225 -17 10 C-18.875 9.75 -18.875 9.75 -21 9 C-22.25 6.9375 -22.25 6.9375 -23 5 C-22.113125 5.268125 -21.22625 5.53625 -20.3125 5.8125 C-18.6728125 5.9053125 -18.6728125 5.9053125 -17 6 C-16.2575 5.236875 -15.515 4.47375 -14.75 3.6875 C-11.168051 0.18695893 -4.86090029 -2.43045014 0 0 Z " fill="#EFD968" transform="translate(64,26)"/>
<path d="M0 0 C0.99 0.33 1.98 0.66 3 1 C2.34 2.65 1.68 4.3 1 6 C0.01 6 -0.98 6 -2 6 C-1.125 1.125 -1.125 1.125 0 0 Z " fill="#ED9515" transform="translate(90,69)"/>
<path d="M0 0 C0.33 0 0.66 0 1 0 C1.45732667 5.71658336 0.52273754 8.48649253 -3 13 C-4.23593891 9.29218328 -3.5678132 8.32489747 -2.0625 4.8125 C-1.68222656 3.91144531 -1.30195312 3.01039062 -0.91015625 2.08203125 C-0.60980469 1.39496094 -0.30945313 0.70789062 0 0 Z " fill="#F4CC0C" transform="translate(91,49)"/>
<path d="M0 0 C1.5 1.125 1.5 1.125 3 3 C3.1875 6.1875 3.1875 6.1875 3 9 C0.11749016 6.61879622 -0.61038985 4.70129644 -1 1 C-0.67 0.67 -0.34 0.34 0 0 Z " fill="#D94E1A" transform="translate(37,28)"/>
<path d="M0 0 C2.3125 -0.25 2.3125 -0.25 5 0 C6.8125 2 6.8125 2 8 4 C7.236875 3.835 6.47375 3.67 5.6875 3.5 C2.96403764 2.90854604 2.96403764 2.90854604 0 3 C0 2.01 0 1.02 0 0 Z " fill="#ED9515" transform="translate(46,60)"/>
<path d="M0 0 C0.33 0.99 0.66 1.98 1 3 C0.34 3.66 -0.32 4.32 -1 5 C-2.32 5 -3.64 5 -5 5 C-5 4.01 -5 3.02 -5 2 C-3.35 1.34 -1.7 0.68 0 0 Z " fill="#9CDDE3" transform="translate(50,76)"/>
<path d="M0 0 C1.98 0.99 1.98 0.99 4 2 C4 3.98 4 5.96 4 8 C3.34 8 2.68 8 2 8 C1.34 5.36 0.68 2.72 0 0 Z " fill="#D95818" transform="translate(86,42)"/>
</svg>
