<?xml version="1.0" encoding="UTF-8"?>
<svg version="1.1" xmlns="http://www.w3.org/2000/svg" width="128" height="128">
<path d="M0 0 C42.24 0 84.48 0 128 0 C128 42.24 128 84.48 128 128 C85.76 128 43.52 128 0 128 C0 85.76 0 43.52 0 0 Z " fill="#FBFBFB" transform="translate(0,0)"/>
<path d="M0 0 C2.0625 -0.4375 2.0625 -0.4375 5 0 C10.27592506 3.9569438 15.04000117 9.57424269 16.4609375 16.125 C16.94749393 19.91225005 17.01146813 23.62477932 16.9375 27.4375 C16.87639615 32.39564081 17.54605525 37.25224216 19 42 C19.66 42.66 20.32 43.32 21 44 C24.37991574 43.6442194 27.04288438 42.64284201 30 41 C30.66 43.31 31.32 45.62 32 48 C33.32 48.33 34.64 48.66 36 49 C35.7525 47.205625 35.7525 47.205625 35.5 45.375 C35.4765625 43.140625 35.4765625 43.140625 36 41 C37.7109375 39.484375 37.7109375 39.484375 39.875 38.125 C43.19299372 36.06442084 43.19299372 36.06442084 44.66015625 32.58203125 C44.79744141 31.27298828 44.79744141 31.27298828 44.9375 29.9375 C45.51091331 25.45138407 45.51091331 25.45138407 47.82421875 23.31640625 C52.67065058 20.54349025 57.58832416 19.21296183 63 18 C63.99 17.34 64.98 16.68 66 16 C72.32258065 15.5483871 72.32258065 15.5483871 76 18 C76.625 20.3125 76.625 20.3125 76 23 C72.92563476 26.09250308 69.39713954 27.84251363 65.375 29.4375 C58.88019666 32.4443534 56.13108958 38.30778548 52.69140625 44.2890625 C50.85778792 47.22793344 48.77825987 49.85098757 46.625 52.5625 C43.5825901 56.71968605 42.08906414 59.34723926 42.5859375 64.5 C42.79089844 65.7375 42.79089844 65.7375 43 67 C43.23589844 68.60875 43.23589844 68.60875 43.4765625 70.25 C43.82868294 72.64652123 44.18553788 75.0423511 44.546875 77.4375 C45.92371307 88.26229588 45.77027324 98.88207531 39.484375 108.14453125 C35.3817892 113.2727635 31.34622548 116.18679272 25 118 C24.67 118.66 24.34 119.32 24 120 C22.39620659 120.05416188 20.79188594 120.09286638 19.1875 120.125 C18.29417969 120.14820313 17.40085937 120.17140625 16.48046875 120.1953125 C14 120 14 120 11 118 C11 117.34 11 116.68 11 116 C9.68 115.34 8.36 114.68 7 114 C7 113.34 7 112.68 7 112 C6.01 111.67 5.02 111.34 4 111 C3.67 110.34 3.34 109.68 3 109 C2.38125 108.71125 1.7625 108.4225 1.125 108.125 C-1.50596973 106.73213367 -2.47736656 105.5607926 -4 103 C-4.69356423 100.67451993 -5.36149212 98.34119555 -6 96 C-6.66 95.01 -7.32 94.02 -8 93 C-9.87615981 80.38131224 -9.1134433 71.21432193 -1.93359375 60.51171875 C0.212073 57.72451931 2.42783936 55.53017024 5.2265625 53.4140625 C10.29274513 49.54894469 10.29274513 49.54894469 12.55517578 43.82128906 C12.5189209 42.64791992 12.48266602 41.47455078 12.4453125 40.265625 C12.40664063 38.96882813 12.36796875 37.67203125 12.328125 36.3359375 C12.29396484 35.66401367 12.25980469 34.99208984 12.22460938 34.29980469 C12.12595228 32.26959648 12.07952693 30.24304157 12.0390625 28.2109375 C11.70489194 19.77313091 10.78416634 12.44996007 4.34692383 6.46240234 C2.90459855 5.29996923 1.45308685 4.14895239 0 3 C0 2.01 0 1.02 0 0 Z " fill="#2C2C2C" transform="translate(36,8)"/>
<path d="M0 0 C4.11285075 1.78819598 6.65840285 4.27511285 9.015625 8.1015625 C11.18871993 11.86019239 11.18871993 11.86019239 14.86328125 13.8125 C16.86479561 13.98813563 18.86996276 14.12064276 20.875 14.25 C24.98480249 17.48726546 26.49511884 22.50700009 27.19140625 27.53466797 C27.34746321 29.92804147 27.39352433 32.28920135 27.375 34.6875 C27.37072998 35.5235376 27.36645996 36.3595752 27.36206055 37.22094727 C27.14132484 45.20097202 25.0806335 50.0443665 19.4375 55.6875 C14.73761732 58.55328212 10.37826184 59.91039142 4.875 59.25 C-4.12531625 55.90650902 -11.04075381 49.72973605 -15.3125 41.125 C-18.63951597 33.20854303 -19.26803003 24.32383862 -16.125 16.25 C-12.86398606 10.10184633 -7.49216556 0.59937325 0 0 Z " fill="#FBFBFB" transform="translate(49.125,62.75)"/>
<path d="M0 0 C7.34828524 0.83980403 11.8909641 4.35464736 16.45703125 9.8984375 C20.87986566 15.92244994 21.50529527 21.79929786 22 29 C22.60210431 36.20749124 22.60210431 36.20749124 25 43 C25.56847656 42.7834375 26.13695312 42.566875 26.72265625 42.34375 C31.7043435 40.54734859 35.64778166 39.79414545 41 40 C42.67217991 39.69552794 44.34040355 39.36691758 46 39 C45.9071875 38.26394531 45.814375 37.52789062 45.71875 36.76953125 C45.14506388 29.0145242 45.14506388 29.0145242 47.46484375 26.26171875 C51.50166464 23.67975212 55.99297731 22.12372557 60.5703125 20.76953125 C63.09146344 20.01118518 63.09146344 20.01118518 65.8046875 18.82421875 C73.13871023 15.7733448 73.13871023 15.7733448 77.5625 16.9375 C80.2954892 19.25002932 81.25245798 20.51147056 82 24 C82.125 26.5 82.125 26.5 81 29 C77.73914465 31.63143443 74.19931964 33.52585038 70.3125 35.0625 C64.73602155 37.32323451 62.49909358 40.62090144 60.09765625 45.8515625 C58.92476088 48.14726519 57.56451308 50.07819341 56 52.125 C55.23816406 53.12466797 55.23816406 53.12466797 54.4609375 54.14453125 C53.21505133 55.72687331 51.92436898 57.27377358 50.625 58.8125 C47.07546298 65.77505339 49.09471446 74.34050088 49.76953125 81.890625 C50.62668894 93.45498975 51.35027316 104.94396687 43.5703125 114.24609375 C43.05210938 114.82488281 42.53390625 115.40367188 42 116 C41.195625 116.94875 40.39125 117.8975 39.5625 118.875 C36.48220158 121.42939381 33.87710153 122.13842188 30 123 C29.01 123.33 28.02 123.66 27 124 C27.495 122.515 27.495 122.515 28 121 C29.85546875 120.078125 29.85546875 120.078125 32.1875 119.25 C38.40857051 116.65871149 41.39837362 112.65096779 44.8125 107 C48.42818453 97.86563908 47.4492574 87.3303181 46 77.8125 C45.66635361 75.54171264 45.33299016 73.27088368 45 71 C44.79503906 69.7625 44.79503906 69.7625 44.5859375 68.5 C43.97080122 62.12080896 46.98058085 58.63249945 50.84375 53.76953125 C52.86008819 51.17970557 54.50089198 48.59650847 56.125 45.75 C61.14069599 37.31936206 65.42821717 33.33191486 74.48828125 29.1640625 C76.88759866 28.22714312 76.88759866 28.22714312 78 27 C78.04063832 25.33382885 78.042721 23.66611905 78 22 C74.93570224 20.46785112 72.3834358 20.77061452 69 21 C67.30712215 21.95495674 65.64142963 22.9590934 64 24 C62.67729382 24.37327905 61.34211131 24.70398293 60 25 C56.5332978 25.77183181 53.9977539 27.06027689 51 29 C50.34 29 49.68 29 49 29 C49.020625 29.65226562 49.04125 30.30453125 49.0625 30.9765625 C48.89357493 38.13476255 48.89357493 38.13476255 46.15234375 40.7890625 C44.6933857 41.75140873 43.22339686 42.69726745 41.7421875 43.625 C39.62032077 44.97200846 39.62032077 44.97200846 39.5625 48.25 C39.706875 49.1575 39.85125 50.065 40 51 C39.505 51.99 39.505 51.99 39 53 C37.35 52.67 35.7 52.34 34 52 C33.505 49.03 33.505 49.03 33 46 C32.443125 46.309375 31.88625 46.61875 31.3125 46.9375 C28.79092898 48.09605966 26.77283771 48.78670479 24 49 C20.43200473 46.25335018 20.09607953 43.19967335 19.33203125 38.95703125 C18.96761574 35.71158957 18.95104908 32.57714964 19 29.3125 C19.11727689 19.29705363 16.03025016 13.58486748 9.4765625 6.30859375 C7.46945615 4.52980902 5.61211132 4.35298802 3 4 C4.25164172 7.75492515 6.01140221 8.73072744 9.11328125 11.01171875 C15.52951853 17.77334355 15.74390283 25.21252121 15.94873047 34.14624023 C16.0001979 36.1953794 16.09399198 38.23969643 16.19140625 40.28710938 C16.23136719 41.58841797 16.27132812 42.88972656 16.3125 44.23046875 C16.34988281 45.41020264 16.38726562 46.58993652 16.42578125 47.80541992 C15.90882809 51.68405068 14.71983971 53.24235058 12 56 C11.05125 56.598125 10.1025 57.19625 9.125 57.8125 C5.07872157 60.6448949 2.74105338 63.94632951 0 68 C-1.1446875 69.546875 -1.1446875 69.546875 -2.3125 71.125 C-6.44348054 78.67829915 -5.4810539 88.90054836 -3.66796875 97.01171875 C-3.00254092 99.2787696 -3.00254092 99.2787696 -1 102 C-0.29187186 104.32108669 0.38024152 106.65377147 1 109 C-2.37673632 107.87442123 -2.59052027 107.56500561 -4.125 104.5625 C-6.36487462 99.77498172 -6.8206132 95.23483293 -7 90 C-7.02835938 89.23429687 -7.05671875 88.46859375 -7.0859375 87.6796875 C-7.31850439 74.33034792 -3.97857582 67.04329189 5 57 C6.48260695 55.85217526 7.98175619 54.72525484 9.5 53.625 C11.90133867 51.59490547 12.87175076 50.59912052 13.53515625 47.5 C13.5656663 44.29208606 13.30602549 41.19392117 13 38 C12.93051508 36.50557062 12.86980235 35.01071569 12.81640625 33.515625 C12.75391229 31.9686966 12.69011725 30.4218202 12.625 28.875 C12.5947876 28.12814941 12.5645752 27.38129883 12.53344727 26.61181641 C12.41890731 22.34682254 12.41890731 22.34682254 10 19 C9.7525 17.7315625 9.7525 17.7315625 9.5 16.4375 C9.2525 15.2309375 9.2525 15.2309375 9 14 C8.34 13.67 7.68 13.34 7 13 C7 12.34 7 11.68 7 11 C6.05125 10.731875 5.1025 10.46375 4.125 10.1875 C1 9 1 9 -1 6 C-1.1875 3.375 -1.1875 3.375 -1 1 C-0.67 0.67 -0.34 0.34 0 0 Z " fill="#AEAEAE" transform="translate(33,4)"/>
<path d="M0 0 C3 2 3 2 3.625 4.3125 C2.77377887 7.97275086 1.06733558 8.88775375 -1.99609375 10.88671875 C-4 12 -4 12 -7.625 13.4375 C-14.2380483 16.49909644 -16.97016096 22.55134489 -20.53125 28.6015625 C-23.85713083 34.03265514 -27.55911564 37.71016294 -33 41 C-36.07692308 36.56923077 -36.07692308 36.56923077 -35.6875 33.6875 C-35.460625 33.130625 -35.23375 32.57375 -35 32 C-33.906875 31.7525 -32.81375 31.505 -31.6875 31.25 C-27.94133822 29.98011465 -26.81045651 29.40791814 -25 26 C-25 25.34 -25 24.68 -25 24 C-28.77254453 24.50980331 -30.44987123 25.20700182 -33 28 C-33.66 28 -34.32 28 -35 28 C-34 26 -34 26 -33 24 C-32.67 23.278125 -32.34 22.55625 -32 21.8125 C-31 20 -31 20 -29 19 C-28.76348648 17.42324319 -28.58544911 15.83751748 -28.4375 14.25 C-27.86543566 11.09688945 -27.53058353 9.48907911 -25.15234375 7.296875 C-20.31099941 4.53988302 -15.40029462 3.21041086 -10 2 C-6.31282562 -0.45811625 -4.35654296 -0.31118164 0 0 Z " fill="#212121" transform="translate(109,24)"/>
<path d="M0 0 C2.0625 -0.4375 2.0625 -0.4375 5 0 C9.76777383 3.57583037 13.8911016 8.38751309 16 14 C16.41443636 17.50011963 16.28990249 20.92207876 16.125 24.4375 C15.59946484 35.46610817 15.59946484 35.46610817 19.6875 45.5 C22.83949492 47.54453724 25.30621116 47.0671598 29 47 C31.04641221 48.50219437 31.88905044 49.38067082 32.34057617 51.90112305 C32.3170105 52.94586792 32.3170105 52.94586792 32.29296875 54.01171875 C32.2784668 55.14770508 32.2784668 55.14770508 32.26367188 56.30664062 C32.23853516 57.09232422 32.21339844 57.87800781 32.1875 58.6875 C32.16719727 59.88342773 32.16719727 59.88342773 32.14648438 61.10351562 C32.11117089 63.06929967 32.05736447 65.03473582 32 67 C29.6875 67.6875 29.6875 67.6875 27 68 C24.41437848 66.1677647 23.26223069 63.76338557 21.8125 61 C19.01466147 56.33121423 16.15156138 55.39703359 11 54 C11.50603992 51.83125748 11.99983813 50.00032373 13 48 C13.08586809 45.67583704 13.10711043 43.34916693 13.09765625 41.0234375 C13.09553383 39.99556625 13.09553383 39.99556625 13.09336853 38.94692993 C13.08776675 36.75624239 13.07521406 34.5656567 13.0625 32.375 C13.05748522 30.89062648 13.05292228 29.40625135 13.04882812 27.921875 C13.03779677 24.28121685 13.02053099 20.64061836 13 17 C12.34 17 11.68 17 11 17 C10.70867188 16.40832031 10.41734375 15.81664062 10.1171875 15.20703125 C8.05072256 11.22356267 6.28054391 7.89872749 2.6875 5.125 C1.800625 4.42375 0.91375 3.7225 0 3 C0 2.01 0 1.02 0 0 Z " fill="#191919" transform="translate(36,8)"/>
<path d="M0 0 C0.81745992 2.82625678 1.0619144 5.19314759 0.9375 8.125 C0.8786 13.198814 1.51123187 18.13852876 3 23 C3.66 23.66 4.32 24.32 5 25 C8.37991574 24.6442194 11.04288438 23.64284201 14 22 C14.66 24.31 15.32 26.62 16 29 C17.32 29.33 18.64 29.66 20 30 C19.896875 28.741875 19.79375 27.48375 19.6875 26.1875 C19.66796875 23.98046875 19.66796875 23.98046875 20 22 C22.5 20 22.5 20 25 19 C24 21 23 23 22 25 C22.886875 24.154375 23.77375 23.30875 24.6875 22.4375 C27.6008348 19.97396749 27.6008348 19.97396749 30.875 20.1875 C31.57625 20.455625 32.2775 20.72375 33 21 C31.83050421 24.32856495 30.92000675 26.9142809 28 29 C24.8125 29.6875 24.8125 29.6875 22 30 C22.33 31.98 22.66 33.96 23 36 C26.18490007 36.2773501 26.18490007 36.2773501 29 34 C28.67 34.639375 28.34 35.27875 28 35.9375 C25.43214202 43.80156506 27.29999181 52.9124054 28 61 C27.67 61 27.34 61 27 61 C25.35993952 54.33042073 24.48641215 47.84817102 24 41 C23.01 41 22.02 41 21 41 C19.77035429 46.58929869 20.3486782 49.02877163 23 54 C22.6875 56.375 22.6875 56.375 22 58 C21.566875 57.030625 21.13375 56.06125 20.6875 55.0625 C19.2985139 51.72268235 19.2985139 51.72268235 16 51 C14.96875 50.855625 13.9375 50.71125 12.875 50.5625 C11.451875 50.2840625 11.451875 50.2840625 10 50 C9.67 49.34 9.34 48.68 9 48 C10.98 48 12.96 48 15 48 C15.05380578 45.20807795 15.09357669 42.4171859 15.125 39.625 C15.14175781 38.8309375 15.15851563 38.036875 15.17578125 37.21875 C15.19335473 35.14507985 15.10335168 33.07116759 15 31 C14.34 30.34 13.68 29.68 13 29 C11.906875 29.061875 10.81375 29.12375 9.6875 29.1875 C6 29 6 29 3.1875 27 C-1.98539401 19.90574535 -1.497657 11.46016905 -1 3 C-0.67 2.01 -0.34 1.02 0 0 Z " fill="#505050" transform="translate(52,27)"/>
<path d="M0 0 C4.11285075 1.78819598 6.65840285 4.27511285 9.015625 8.1015625 C11.18871993 11.86019239 11.18871993 11.86019239 14.86328125 13.8125 C16.86479561 13.98813563 18.86996276 14.12064276 20.875 14.25 C24.98480249 17.48726546 26.49511884 22.50700009 27.19140625 27.53466797 C27.34746321 29.92804147 27.39352433 32.28920135 27.375 34.6875 C27.37072998 35.5235376 27.36645996 36.3595752 27.36206055 37.22094727 C27.14132484 45.20097202 25.0806335 50.0443665 19.4375 55.6875 C14.73761732 58.55328212 10.37826184 59.91039142 4.875 59.25 C-4.12531625 55.90650902 -11.04075381 49.72973605 -15.3125 41.125 C-18.63951597 33.20854303 -19.26803003 24.32383862 -16.125 16.25 C-12.86398606 10.10184633 -7.49216556 0.59937325 0 0 Z M-2.125 1.25 C-3.37702918 2.73266613 -4.62450421 4.2199612 -5.828125 5.7421875 C-7.125 7.25 -7.125 7.25 -9.25 8.6875 C-12.03500655 11.00833879 -12.83237269 13.92610121 -14.125 17.25 C-14.455 17.58 -14.785 17.91 -15.125 18.25 C-15.25189057 21.05339635 -15.3102093 23.82117843 -15.3125 26.625 C-15.32474609 27.40617187 -15.33699219 28.18734375 -15.34960938 28.9921875 C-15.35971426 32.92635523 -15.35438367 34.90592449 -13.125 38.25 C-13.021875 39.19875 -12.91875 40.1475 -12.8125 41.125 C-11.92714025 45.1493625 -10.17530465 46.56282686 -7.125 49.25 C-6.568125 49.848125 -6.01125 50.44625 -5.4375 51.0625 C-4.17281729 52.47363777 -4.17281729 52.47363777 -2.125 52.25 C-1.465 53.57 -0.805 54.89 -0.125 56.25 C10.86924505 57.12022827 10.86924505 57.12022827 20.32421875 52.24609375 C24.71928491 46.58896829 25.3764549 41.18038519 25.3125 34.25 C25.33248047 33.48171875 25.35246094 32.7134375 25.37304688 31.921875 C25.36823798 26.2666199 24.25089801 22.82648145 20.875 18.25 C18.97456415 17.19452334 18.97456415 17.19452334 16.9375 17.125 C12.57280145 16.36380953 10.72319417 14.73112621 7.875 11.25 C7.194375 10.198125 6.51375 9.14625 5.8125 8.0625 C3.92632707 5.32450704 2.94084306 4.34494395 -0.125 3.25 C-0.125 2.59 -0.125 1.93 -0.125 1.25 C-0.785 1.25 -1.445 1.25 -2.125 1.25 Z " fill="#AAAAAA" transform="translate(49.125,62.75)"/>
<path d="M0 0 C3.38614807 -0.41463038 5.96989247 -0.63042581 8.953125 1.1953125 C15.05797488 6.29978782 16.3853283 10.97875041 17.6875 18.625 C17.82994141 19.40101562 17.97238281 20.17703125 18.11914062 20.9765625 C19.12610099 26.74779802 19.12610099 26.74779802 18 29 C13.02693484 28.50269348 9.36200187 27.44697666 5 25 C5.0721875 24.15695313 5.144375 23.31390625 5.21875 22.4453125 C5.3115625 21.34960938 5.404375 20.25390625 5.5 19.125 C5.5928125 18.03445312 5.685625 16.94390625 5.78125 15.8203125 C5.90562958 14.21670436 6 12.60842449 6 11 C3.525 10.01 3.525 10.01 1 9 C1 7.68 1 6.36 1 5 C0.34 5 -0.32 5 -1 5 C-0.67 3.35 -0.34 1.7 0 0 Z " fill="#B0B0B0" transform="translate(58,3)"/>
<path d="M0 0 C0.99 0 1.98 0 3 0 C4.27137896 2.54275792 4.5105396 4.87520709 4.9375 7.6875 C5.47752605 11.11037189 6.06251153 14.19448032 7.125 17.5 C8.9565975 24.82638999 8.34284321 32.61436237 7 40 C5.515 40.495 5.515 40.495 4 41 C3.97494385 40.39937744 3.9498877 39.79875488 3.92407227 39.17993164 C3.8084472 36.47388563 3.68557064 33.76821717 3.5625 31.0625 C3.50352539 29.64420898 3.50352539 29.64420898 3.44335938 28.19726562 C3.40146484 27.29814453 3.35957031 26.39902344 3.31640625 25.47265625 C3.27974854 24.64000244 3.24309082 23.80734863 3.20532227 22.94946289 C3.20632897 20.99661142 3.20632897 20.99661142 2 20 C1.46563416 17.78619867 1.03715388 15.55863947 0.59765625 13.32421875 C0.08254737 10.97053294 0.08254737 10.97053294 -1.0859375 8.87109375 C-2.35445581 6.27442593 -1.78648145 4.71693593 -1 2 C-0.67 1.34 -0.34 0.68 0 0 Z " fill="#1B1B1B" transform="translate(73,68)"/>
<path d="M0 0 C0.33 0 0.66 0 1 0 C1.24266909 4.17993697 1.45744463 8.36011997 1.64697266 12.54272461 C1.71524598 13.96400706 1.7910029 15.38495123 1.87451172 16.80541992 C1.99356029 18.85291191 2.0852349 20.90013024 2.171875 22.94921875 C2.2347168 24.17987061 2.29755859 25.41052246 2.36230469 26.6784668 C1.92601576 30.67827192 0.81101758 32.18423622 -2 35 C-2.94875 35.598125 -3.8975 36.19625 -4.875 36.8125 C-8.92127843 39.6448949 -11.25894662 42.94632951 -14 47 C-15.1446875 48.546875 -15.1446875 48.546875 -16.3125 50.125 C-20.44348054 57.67829915 -19.4810539 67.90054836 -17.66796875 76.01171875 C-17.00254092 78.2787696 -17.00254092 78.2787696 -15 81 C-14.29187186 83.32108669 -13.61975848 85.65377147 -13 88 C-16.37673632 86.87442123 -16.59052027 86.56500561 -18.125 83.5625 C-20.36487462 78.77498172 -20.8206132 74.23483293 -21 69 C-21.02835938 68.23429687 -21.05671875 67.46859375 -21.0859375 66.6796875 C-21.27079639 56.06878729 -19.99504382 49.61033962 -13.3125 41.125 C-12.68988281 40.32320312 -12.06726562 39.52140625 -11.42578125 38.6953125 C-9 36 -9 36 -6.98193359 34.64526367 C-3.24822806 32.03216951 -1.28669284 30.27440145 -0.26293945 25.72363281 C0.01040526 21.82421946 0.05948191 17.96706234 0 14.0625 C0.00810244 12.69723937 0.01978939 11.33199506 0.03515625 9.96679688 C0.05864606 6.64298814 0.0458013 3.3234568 0 0 Z " fill="#A3A3A3" transform="translate(47,25)"/>
<path d="M0 0 C3.60482889 0.20026827 4.94262587 0.94929728 7.6875 3.375 C11.42006713 7.61196809 12.31047541 10.0499807 12.6875 15.625 C12.77386719 16.79289062 12.86023438 17.96078125 12.94921875 19.1640625 C12.96597656 20.09992187 12.98273438 21.03578125 13 22 C12 23 12 23 9.4375 23.0625 C8.633125 23.041875 7.82875 23.02125 7 23 C6.27788084 20.75340707 5.87399555 19.42001482 6.5625 17.125 C7.22754937 13.89476022 6.35828725 11.96353582 5 9 C3.35704805 7.63755204 1.69175663 6.30135125 0 5 C-0.875 2.8125 -0.875 2.8125 -1 1 C-0.67 0.67 -0.34 0.34 0 0 Z " fill="#2E2E2E" transform="translate(60,5)"/>
<path d="M0 0 C7.56177557 -0.3718906 7.56177557 -0.3718906 9.52416992 1.29345703 C14.17412675 6.67033019 14.55230124 13.66618792 14.5 20.4375 C14.49572998 21.2735376 14.49145996 22.1095752 14.48706055 22.97094727 C14.26632484 30.95097202 12.2056335 35.7943665 6.5625 41.4375 C1.80310687 44.33956898 -2.43253695 45.47382664 -8 45 C-10.875 44 -10.875 44 -13 43 C-13 42.67 -13 42.34 -13 42 C-12.07058594 41.98582031 -11.14117187 41.97164062 -10.18359375 41.95703125 C-1.16508825 41.70041505 -1.16508825 41.70041505 6.66796875 37.7421875 C11.17690781 31.84486545 11.47066289 26.09627286 11.375 18.9375 C11.38660156 18.06544922 11.39820312 17.19339844 11.41015625 16.29492188 C11.38695004 11.18568854 11.03425394 7.32172408 8 3 C4.43793339 2.18129815 4.43793339 2.18129815 1 2 C0.67 1.34 0.34 0.68 0 0 Z " fill="#A4A4A4" transform="translate(62,77)"/>
<path d="M0 0 C0.33 0 0.66 0 1 0 C1.12117188 1.04800781 1.24234375 2.09601562 1.3671875 3.17578125 C1.53603945 4.55473886 1.70533341 5.93364239 1.875 7.3125 C1.95363281 8.00279297 2.03226563 8.69308594 2.11328125 9.40429688 C2.55943847 12.95639471 2.97980193 14.9697029 5 18 C8.29075996 17.62095792 8.29075996 17.62095792 11 16 C13.74293196 15.71437237 16.48608838 15.55160727 19.23828125 15.37890625 C21.93125988 15.00943111 23.67457263 14.36432437 26 13 C25.175 13.70125 24.35 14.4025 23.5 15.125 C20.69998514 17.7690698 20.69998514 17.7690698 20.75 21.1875 C20.87375 22.5796875 20.87375 22.5796875 21 24 C20.67 24.66 20.34 25.32 20 26 C18.35 25.67 16.7 25.34 15 25 C14.67 23.02 14.34 21.04 14 19 C13.1646875 19.4640625 13.1646875 19.4640625 12.3125 19.9375 C9.79092898 21.09605966 7.77283771 21.78670479 5 22 C1.36294694 19.23619978 1.10284103 16.00666862 0.33984375 11.71875 C-0.15351566 7.77187469 -0.12818334 3.97368346 0 0 Z " fill="#959595" transform="translate(52,31)"/>
<path d="M0 0 C0.33 0 0.66 0 1 0 C1.02505615 0.56509277 1.0501123 1.13018555 1.07592773 1.71240234 C1.19179956 4.26683742 1.31456537 6.8208955 1.4375 9.375 C1.47681641 10.26445313 1.51613281 11.15390625 1.55664062 12.0703125 C1.61948242 13.34648438 1.61948242 13.34648438 1.68359375 14.6484375 C1.72025146 15.43395996 1.75690918 16.21948242 1.79467773 17.02880859 C1.890891 19.07523496 1.890891 19.07523496 3 21 C0.92861746 25.36976592 -2.06041328 30.18600949 -6 33 C-8.70230216 33.6091895 -11.2187733 33.81458489 -14 34 C-14 33.01 -14 32.02 -14 31 C-13.278125 30.773125 -12.55625 30.54625 -11.8125 30.3125 C-6.23772198 27.71093692 -3.28089939 23.5840506 -1 18 C-0.52276362 14.87831262 -0.40053068 11.7790134 -0.3125 8.625 C-0.27833984 7.79355469 -0.24417969 6.96210937 -0.20898438 6.10546875 C-0.12712854 4.07076649 -0.06187299 2.03540792 0 0 Z " fill="#4E4E4E" transform="translate(76,89)"/>
<path d="M0 0 C4.455 0.99 4.455 0.99 9 2 C9 1.34 9 0.68 9 0 C12.3 0 15.6 0 19 0 C19 0.66 19 1.32 19 2 C20.98 1.67 22.96 1.34 25 1 C24.67 1.66 24.34 2.32 24 3 C22 3.66666667 20 4.33333333 18 5 C17.67 5.66 17.34 6.32 17 7 C15.39620659 7.05416188 13.79188594 7.09286638 12.1875 7.125 C11.29417969 7.14820313 10.40085937 7.17140625 9.48046875 7.1953125 C7 7 7 7 4 5 C4 4.34 4 3.68 4 3 C2.68 2.34 1.36 1.68 0 1 C0 0.67 0 0.34 0 0 Z " fill="#606060" transform="translate(43,121)"/>
<path d="M0 0 C5.60207124 1.94357574 7.99827969 5.92935091 10.9375 10.8125 C12.36455151 13.17959876 12.36455151 13.17959876 14.0625 15.0625 C17.66715748 15.87564911 17.66715748 15.87564911 21.0625 16.0625 C23.33398825 18.86400218 24.40878248 21.53242539 25.0625 25.0625 C22.8147025 23.01016315 22.0602758 22.05582739 21.0625 19.0625 C19.08661505 18.56852876 17.10903918 18.07966559 15.12109375 17.63671875 C10.26885261 16.28324731 7.94407925 13.04323219 5.4375 8.9375 C5.05335937 8.25429687 4.66921875 7.57109375 4.2734375 6.8671875 C3.02905621 4.76442161 3.02905621 4.76442161 0.0625 3.0625 C0.0625 2.4025 0.0625 1.7425 0.0625 1.0625 C-0.5975 1.0625 -1.2575 1.0625 -1.9375 1.0625 C-2.185 1.660625 -2.4325 2.25875 -2.6875 2.875 C-4.10120012 5.34897521 -5.58805383 6.49620255 -7.9375 8.0625 C-7.55429443 5.38006099 -6.86597619 3.96448589 -5.25 1.75 C-2.9375 0.0625 -2.9375 0.0625 0 0 Z " fill="#BABABA" transform="translate(48.9375,62.9375)"/>
<path d="M0 0 C0.33 0 0.66 0 1 0 C1.21815696 4.30430172 1.41478046 8.60890461 1.59204102 12.91503906 C1.6552277 14.37786734 1.72415529 15.84045992 1.79907227 17.30273438 C1.90613598 19.4123925 1.99209494 21.52205379 2.07421875 23.6328125 C2.13182373 24.90012207 2.18942871 26.16743164 2.2487793 27.47314453 C1.97613008 31.33839531 0.95097641 33.68668464 -1 37 C-0.113125 37.061875 0.77375 37.12375 1.6875 37.1875 C6.77577003 38.43556623 8.95794872 41.50639317 11.875 45.6875 C12.24625 46.450625 12.6175 47.21375 13 48 C12.67 48.66 12.34 49.32 12 50 C11.61328125 49.37351563 11.2265625 48.74703125 10.828125 48.1015625 C10.30734375 47.28429687 9.7865625 46.46703125 9.25 45.625 C8.73953125 44.81289062 8.2290625 44.00078125 7.703125 43.1640625 C5.90797575 40.88307011 4.71259187 39.96375519 2 39 C-1.48883564 39.34037421 -3.02819033 40.01879355 -6 42 C-5.34 40.35 -4.68 38.7 -4 37 C-5.65 37.66 -7.3 38.32 -9 39 C-6.84321151 36.84321151 -4.72073587 34.76455428 -2.38598633 32.79614258 C0.62701886 29.26519523 0.58582246 27.53365565 0.48828125 22.94921875 C0.48120651 22.29041214 0.47413177 21.63160553 0.46684265 20.95283508 C0.43900979 18.86319966 0.37630819 16.77631524 0.3125 14.6875 C0.28740205 13.26501286 0.26459148 11.84248341 0.24414062 10.41992188 C0.18922446 6.94573139 0.10303685 3.4731345 0 0 Z " fill="#4E4E4E" transform="translate(48,25)"/>
<path d="M0 0 C1.80705013 3.08469104 2.18290727 5.13795573 2 8.6875 C1.88045868 13.71570669 2.69123543 18.16224527 4 23 C7.86935495 23.22333978 7.86935495 23.22333978 10.8125 22 C14.37301796 20.88297476 17.28817 20.93126241 21 21 C23.31036915 20.57145005 23.31036915 20.57145005 25 20 C23.6875 21.9375 23.6875 21.9375 21 24 C18.17244081 24.45291742 15.41952798 24.62563402 12.55859375 24.7265625 C9.75931089 24.82596834 9.75931089 24.82596834 7 27 C4.9375 26.8125 4.9375 26.8125 3 26 C-0.66826844 20.49759734 -0.1387234 13.97112875 -0.0625 7.5625 C-0.05798828 6.83095703 -0.05347656 6.09941406 -0.04882812 5.34570312 C-0.03718148 3.56376581 -0.01925191 1.78187137 0 0 Z " fill="#C7C7C7" transform="translate(53,23)"/>
<path d="M0 0 C3.87717796 2.83013257 6.57740737 5.01395052 8.5 9.5 C9.00081272 13.00568903 8.83509388 15.57611508 8 19 C9.65 19 11.3 19 13 19 C13 14.71 13 10.42 13 6 C13.33 6 13.66 6 14 6 C14.33 11.28 14.66 16.56 15 22 C11.7 21.67 8.4 21.34 5 21 C3.875 16.25 3.875 16.25 5 14 C5.0689472 12.62657169 5.08467708 11.24997898 5.0625 9.875 C5.041875 8.59625 5.02125 7.3175 5 6 C2.525 5.01 2.525 5.01 0 4 C0 2.68 0 1.36 0 0 Z " fill="#B0B0B0" transform="translate(59,8)"/>
<path d="M0 0 C0.33 0 0.66 0 1 0 C1.57694177 5.81215415 1.9363553 10.53701416 -1.6875 15.375 C-2.76679586 16.60559901 -3.86979993 17.81598088 -5 19 C-5.804375 19.94875 -6.60875 20.8975 -7.4375 21.875 C-10.51779842 24.42939381 -13.12289847 25.13842188 -17 26 C-17.99 26.33 -18.98 26.66 -20 27 C-19.67 26.01 -19.34 25.02 -19 24 C-17.14453125 23.078125 -17.14453125 23.078125 -14.8125 22.25 C-8.59142949 19.65871149 -5.60162638 15.65096779 -2.1875 10 C-0.86356848 6.65533089 -0.35699487 3.56994867 0 0 Z " fill="#A7A7A7" transform="translate(80,101)"/>
<path d="M0 0 C0.99 0.33 1.98 0.66 3 1 C-0.63533585 3.4992934 -3.84652549 4.52054719 -8.0703125 5.4609375 C-10.67556089 6.18871944 -12.74211328 7.53901447 -15 9 C-15.66 9 -16.32 9 -17 9 C-17.33 12.3 -17.66 15.6 -18 19 C-18.99 19 -19.98 19 -21 19 C-21.26632071 9.49567981 -21.26632071 9.49567981 -18.46875 6.19140625 C-14.18117391 3.32451509 -10.09182478 2.41016756 -4.98046875 2.23828125 C-2.67999987 2.11263189 -2.67999987 2.11263189 0 0 Z " fill="#A2A2A2" transform="translate(99,24)"/>
<path d="M0 0 C0.58007812 0.39832031 1.16015625 0.79664062 1.7578125 1.20703125 C6.0639288 4.12751607 10.274163 6.81884446 15 9 C15 9.99 15 10.98 15 12 C9.21600879 11.43294204 5.76378673 10.0966658 1.1875 6.625 C-0.44175033 4.39549955 -0.08352462 2.69916417 0 0 Z " fill="#282828" transform="translate(37,111)"/>
<path d="M0 0 C3.5 1.875 3.5 1.875 5 4.25 C5.54968183 7.13582959 5.3021503 9.06747395 4.5 11.875 C3.84 11.545 3.18 11.215 2.5 10.875 C2.83 8.895 3.16 6.915 3.5 4.875 C0.42748989 3.98390078 -2.36647393 3.71160276 -5.5625 3.6875 C-6.41972656 3.67332031 -7.27695313 3.65914062 -8.16015625 3.64453125 C-10.77198309 3.71653915 -10.77198309 3.71653915 -13.5 5.875 C-16.1875 6 -16.1875 6 -18.5 5.875 C-15.66090798 4.42952621 -12.79112835 3.0950113 -9.875 1.8125 C-3.32769902 -1.06961754 -3.32769902 -1.06961754 0 0 Z " fill="#BEBEBE" transform="translate(109.5,21.125)"/>
<path d="M0 0 C4.0524142 -0.57891631 7.54504143 -0.98105778 11.05078125 1.3828125 C12.85482365 3.16753967 14.44588368 4.99523206 16 7 C16.639375 7.804375 17.27875 8.60875 17.9375 9.4375 C19.45233297 13.0909207 19.20022478 16.06224599 19 20 C18.67 20 18.34 20 18 20 C17.79375 19.01 17.5875 18.02 17.375 17 C15.72036688 11.14331297 11.51767962 6.00376368 7 2 C4.39388923 1.27802838 4.39388923 1.27802838 2 1 C2.33 2.32 2.66 3.64 3 5 C2.34 5 1.68 5 1 5 C0.505 2.525 0.505 2.525 0 0 Z " fill="#A6A6A6" transform="translate(34,7)"/>
<path d="M0 0 C3.53571429 0.53571429 3.53571429 0.53571429 5 2 C5.1875 4.4375 5.1875 4.4375 5 7 C4.34 7.66 3.68 8.32 3 9 C0.375 8.625 0.375 8.625 -2 8 C-2.125 5.125 -2.125 5.125 -2 2 C-1.34 1.34 -0.68 0.68 0 0 Z " fill="#BEBEBE" transform="translate(45,92)"/>
<path d="M0 0 C0.33 0 0.66 0 1 0 C1 5.94 1 11.88 1 18 C0.67 18 0.34 18 0 18 C-0.495 15.525 -0.495 15.525 -1 13 C-1.33 14.98 -1.66 16.96 -2 19 C-2.33 19 -2.66 19 -3 19 C-3.33 14.71 -3.66 10.42 -4 6 C-3.01 5.67 -2.02 5.34 -1 5 C-0.67 3.35 -0.34 1.7 0 0 Z " fill="#4E4E4E" transform="translate(31,81)"/>
<path d="M0 0 C0.33 0 0.66 0 1 0 C1.02505615 0.56509277 1.0501123 1.13018555 1.07592773 1.71240234 C1.19179956 4.26683742 1.31456537 6.8208955 1.4375 9.375 C1.47681641 10.26445313 1.51613281 11.15390625 1.55664062 12.0703125 C1.59853516 12.92109375 1.64042969 13.771875 1.68359375 14.6484375 C1.72025146 15.43395996 1.75690918 16.21948242 1.79467773 17.02880859 C1.890891 19.07523496 1.890891 19.07523496 3 21 C2.3125 23.0625 2.3125 23.0625 1 25 C-1.125 25.75 -1.125 25.75 -3 26 C-2.47731534 23.23723823 -1.89130413 20.6739124 -1 18 C-0.85507877 16.59335074 -0.75371069 15.1818867 -0.68359375 13.76953125 C-0.64169922 12.96708984 -0.59980469 12.16464844 -0.55664062 11.33789062 C-0.51732422 10.50451172 -0.47800781 9.67113281 -0.4375 8.8125 C-0.39431641 7.96751953 -0.35113281 7.12253906 -0.30664062 6.25195312 C-0.20068482 4.16815567 -0.0998498 2.08409897 0 0 Z " fill="#474747" transform="translate(76,89)"/>
<path d="M0 0 C0.33 0.99 0.66 1.98 1 3 C1.99 2.67 2.98 2.34 4 2 C3.34 3.65 2.68 5.3 2 7 C1.34 7 0.68 7 0 7 C0 8.65 0 10.3 0 12 C-0.99 12 -1.98 12 -3 12 C-3.2954439 6.97745369 -2.98514628 4.10457614 0 0 Z " fill="#4E4E4E" transform="translate(31,74)"/>
<path d="M0 0 C0.66 0 1.32 0 2 0 C2.52879684 2.79037428 3.04834088 5.58192598 3.5625 8.375 C3.71396484 9.1690625 3.86542969 9.963125 4.02148438 10.78125 C5.11328125 16.7734375 5.11328125 16.7734375 4 19 C-2.75 18.25 -2.75 18.25 -5 16 C-2.69 16.33 -0.38 16.66 2 17 C1.34 11.39 0.68 5.78 0 0 Z " fill="#CACACA" transform="translate(72,13)"/>
<path d="M0 0 C3.40667322 0.44824648 5.07914607 1.05276405 8 3 C5.69 3 3.38 3 1 3 C1.33 4.65 1.66 6.3 2 8 C3.32 8 4.64 8 6 8 C5.67 8.99 5.34 9.98 5 11 C2.5625 9.9375 2.5625 9.9375 0 8 C-0.875 4.375 -0.875 4.375 -1 1 C-0.67 0.67 -0.34 0.34 0 0 Z " fill="#C6C6C6" transform="translate(33,4)"/>
<path d="M0 0 C4.29 0 8.58 0 13 0 C13 0.66 13 1.32 13 2 C10.21084611 3.39457694 8.09726736 3.1821922 5 3 C2.125 2 2.125 2 0 1 C0 0.67 0 0.34 0 0 Z " fill="#A6A6A6" transform="translate(49,119)"/>
<path d="M0 0 C0.66 0 1.32 0 2 0 C1.67 3.96 1.34 7.92 1 12 C0.01 12 -0.98 12 -2 12 C-1.85962479 10.18706911 -1.71255111 8.3746557 -1.5625 6.5625 C-1.48128906 5.55316406 -1.40007812 4.54382812 -1.31640625 3.50390625 C-1 1 -1 1 0 0 Z " fill="#ADADAD" transform="translate(80,31)"/>
<path d="M0 0 C2.125 0.9375 2.125 0.9375 4 2 C4 2.99 4 3.98 4 5 C3.67 4.67 3.34 4.34 3 4 C2.34 5.32 1.68 6.64 1 8 C-0.32 6.35 -1.64 4.7 -3 3 C-2 1 -2 1 0 0 Z " fill="#656565" transform="translate(35,108)"/>
<path d="M0 0 C1.98 0.495 1.98 0.495 4 1 C3.67 2.65 3.34 4.3 3 6 C1.68 6 0.36 6 -1 6 C-0.67 4.02 -0.34 2.04 0 0 Z " fill="#8E8E8E" transform="translate(69,62)"/>
<path d="M0 0 C0.33 0 0.66 0 1 0 C1.33 5.28 1.66 10.56 2 16 C-0.31 15.67 -2.62 15.34 -5 15 C-5 14.67 -5 14.34 -5 14 C-3.35 13.67 -1.7 13.34 0 13 C0 8.71 0 4.42 0 0 Z " fill="#8E8E8E" transform="translate(72,14)"/>
<path d="M0 0 C2.97 1.98 2.97 1.98 6 4 C5.01 4.495 5.01 4.495 4 5 C4.66 6.32 5.32 7.64 6 9 C2.96101874 7.98700625 1.87860833 7.5048111 0 5 C-0.1875 2.3125 -0.1875 2.3125 0 0 Z " fill="#393939" transform="translate(37,111)"/>
<path d="M0 0 C0.66 0 1.32 0 2 0 C4.71682385 3.73563279 5.86726461 7.55619192 7 12 C4 11 4 11 2.83203125 9.2578125 C2.49558594 8.55398437 2.15914062 7.85015625 1.8125 7.125 C1.46832031 6.42632812 1.12414062 5.72765625 0.76953125 5.0078125 C0 3 0 3 0 0 Z " fill="#B4B4B4" transform="translate(27,101)"/>
<path d="M0 0 C0 3.10981343 -0.46713709 4.39396369 -1.8125 7.125 C-2.14894531 7.82882813 -2.48539063 8.53265625 -2.83203125 9.2578125 C-4 11 -4 11 -7 12 C-5.45052978 7.60983438 -3.33033996 3.33033996 0 0 Z " fill="#A4A4A4" transform="translate(40,69)"/>
<path d="M0 0 C-4.5 4 -4.5 4 -9 4 C-9 3.01 -9 2.02 -9 1 C-2.25 -1.125 -2.25 -1.125 0 0 Z " fill="#1F1F1F" transform="translate(71,119)"/>
<path d="M0 0 C0.33 0.66 0.66 1.32 1 2 C-0.65 4.31 -2.3 6.62 -4 9 C-5 7 -5 7 -4.25 4.5 C-3 2 -3 2 0 0 Z " fill="#B8B8B8" transform="translate(85,58)"/>
<path d="M0 0 C2.61527381 2.36620011 4.26440562 4.942048 6 8 C4.35 7.67 2.7 7.34 1 7 C0.67 4.69 0.34 2.38 0 0 Z " fill="#A6A6A6" transform="translate(56,69)"/>
<path d="M0 0 C0.66 0 1.32 0 2 0 C1.4140625 6.15234375 1.4140625 6.15234375 1 8 C0.01 8.495 0.01 8.495 -1 9 C-1.125 2.25 -1.125 2.25 0 0 Z " fill="#141414" transform="translate(30,78)"/>
</svg>
