<?xml version="1.0" encoding="UTF-8"?>
<svg version="1.1" xmlns="http://www.w3.org/2000/svg" width="128" height="128">
<path d="M0 0 C42.24 0 84.48 0 128 0 C128 42.24 128 84.48 128 128 C85.76 128 43.52 128 0 128 C0 85.76 0 43.52 0 0 Z " fill="#FDFDFC" transform="translate(0,0)"/>
<path d="M0 0 C5.97926035 1.31252056 9.35283168 4.26811352 13 9 C15.53253381 13.24397268 17.8078595 17.56907771 20 22 C22.93217167 20.90895938 24.95802451 20.03534778 27.375 18 C30 16 30 16 33.625 15.1875 C36.9863369 14.38539553 36.9863369 14.38539553 38.11328125 12.32421875 C39.06125374 10.16828693 39.06125374 10.16828693 40 7 C43.29691259 8.37196362 44.76092009 9.68196293 46.5625 12.75 C47.20058594 13.81734375 47.20058594 13.81734375 47.8515625 14.90625 C49 17 49 17 50.4375 20.25 C52.48363957 23.85120565 54.29706538 25.14853269 58 27 C59.53880302 27.12556205 61.08168588 27.20684812 62.625 27.25 C64.96484375 27.40234375 64.96484375 27.40234375 67 28 C68.42238674 29.9186712 69.17974209 31.79273664 70.05078125 34.01171875 C71.53752295 37.12592257 74.10007464 38.26004479 77 40 C82.84248373 44.64536012 82.84248373 44.64536012 83.3125 48.6875 C81.33353355 52.17425041 78.70182524 52.76605825 75 54 C74.34 54 73.68 54 73 54 C73.78375 54.763125 74.5675 55.52625 75.375 56.3125 C78 59 78 59 80 62 C79.85810457 66.96634015 77.18856381 71.33243669 74 75 C70.81316856 77.30484904 67.49717549 79.20727314 64 81 C64.22623047 82.12535156 64.22623047 82.12535156 64.45703125 83.2734375 C66.30336459 92.54495312 66.30336459 92.54495312 64 96 C63.01 96 62.02 96 61 96 C60.505 97.485 60.505 97.485 60 99 C56.7323937 100.0892021 55.9343003 99.92914219 52.73046875 99.07421875 C51.41816284 98.74611206 51.41816284 98.74611206 50.0793457 98.41137695 C48.64788208 98.05305786 48.64788208 98.05305786 47.1875 97.6875 C36.11009448 95.05687476 25.1826158 94.1457076 13.85424805 93.63354492 C12.6300415 93.57529541 11.40583496 93.5170459 10.14453125 93.45703125 C9.05503174 93.41553955 7.96553223 93.37404785 6.84301758 93.33129883 C4.05534234 93.00644908 2.34539442 92.50831532 0 91 C-0.9375 89.3125 -0.9375 89.3125 -1 87 C0.41019455 82.24059338 1.80603013 79.94280504 5.75 76.9375 C7.58461001 75.5440912 7.58461001 75.5440912 9 74 C9.58228923 70.82703565 9.58228923 70.82703565 8 68 C5.06057006 65.59478763 5.06057006 65.59478763 2 64 C2.66 62.68 3.32 61.36 4 60 C5.85625 60.2784375 5.85625 60.2784375 7.75 60.5625 C11.95452159 61.08682684 11.95452159 61.08682684 16 60 C16.33 59.34 16.66 58.68 17 58 C15.85660156 57.95101562 14.71320312 57.90203125 13.53515625 57.8515625 C12.04424527 57.77654811 10.55336108 57.70099972 9.0625 57.625 C8.30775391 57.5940625 7.55300781 57.563125 6.77539062 57.53125 C4.84492605 57.4273685 2.92057919 57.22104386 1 57 C-0.602327 53.79534601 -0.34639983 50.4839829 0 47 C1 44 1 44 3 42 C5.796276 41.57531903 8.14546425 41.76602166 11 42 C10.74605469 41.46632812 10.49210937 40.93265625 10.23046875 40.3828125 C6.18861449 31.63303063 3.96853466 23.2151758 2.54296875 13.69921875 C1.89423506 10.47421891 0.49176696 7.9124974 -1 5 C-0.6875 2.125 -0.6875 2.125 0 0 Z " fill="#F6BE15" transform="translate(24,7)"/>
<path d="M0 0 C2.22437088 1.82197213 3.38202514 3.54852294 5 6 C5 6.66 5 7.32 5 8 C5.72316406 8.23976563 6.44632813 8.47953125 7.19140625 8.7265625 C10.40130105 10.18195291 12.38873067 11.95105192 14.9375 14.375 C18.94691864 18.11155589 18.94691864 18.11155589 23.375 21.3125 C25.95805883 22.97303782 27.9168244 24.75658013 30 27 C29.505 28.485 29.505 28.485 29 30 C25.7323937 31.0892021 24.9343003 30.92914219 21.73046875 30.07421875 C20.85559814 29.85548096 19.98072754 29.63674316 19.0793457 29.41137695 C18.12503662 29.17249756 17.17072754 28.93361816 16.1875 28.6875 C5.11009448 26.05687476 -5.8173842 25.1457076 -17.14575195 24.63354492 C-18.3699585 24.57529541 -19.59416504 24.5170459 -20.85546875 24.45703125 C-21.94496826 24.41553955 -23.03446777 24.37404785 -24.15698242 24.33129883 C-26.94465766 24.00644908 -28.65460558 23.50831532 -31 22 C-32.5631138 19.18639516 -31.92892888 17.74414398 -31.0625 14.625 C-28.97396689 10.06372251 -25.1029142 7.66055956 -21 5 C-21 5.66 -21 6.32 -21 7 C-18.05908413 6.81584568 -18.05908413 6.81584568 -15 6 C-14.3162955 4.67532254 -13.65035814 3.34136367 -13 2 C-8.67396577 -0.01210894 -4.72439945 -0.68718538 0 0 Z " fill="#478A9E" transform="translate(55,76)"/>
<path d="M0 0 C5.97926035 1.31252056 9.35283168 4.26811352 13 9 C15.53253381 13.24397268 17.8078595 17.56907771 20 22 C22.93217167 20.90895938 24.95802451 20.03534778 27.375 18 C30 16 30 16 33.625 15.1875 C36.9863369 14.38539553 36.9863369 14.38539553 38.11328125 12.32421875 C39.06125374 10.16828693 39.06125374 10.16828693 40 7 C43.29691259 8.37196362 44.76092009 9.68196293 46.5625 12.75 C47.20058594 13.81734375 47.20058594 13.81734375 47.8515625 14.90625 C49 17 49 17 50.4375 20.25 C52.48363957 23.85120565 54.29706538 25.14853269 58 27 C59.53880302 27.12556205 61.08168588 27.20684812 62.625 27.25 C64.96484375 27.40234375 64.96484375 27.40234375 67 28 C68.42238674 29.9186712 69.17974209 31.79273664 70.05078125 34.01171875 C71.53752295 37.12592257 74.10007464 38.26004479 77 40 C82.84248373 44.64536012 82.84248373 44.64536012 83.3125 48.6875 C81.33353355 52.17425041 78.70182524 52.76605825 75 54 C74.34 54 73.68 54 73 54 C73.78375 54.763125 74.5675 55.52625 75.375 56.3125 C78 59 78 59 80 62 C79.85876157 66.94334489 76.89223254 71.14368994 74 75 C73.01 75.495 73.01 75.495 72 76 C73.17020263 73.65959474 74.35762893 71.35351693 75.625 69.0625 C77.0159765 65.96441597 77.71745467 64.31822783 77 61 C74.98341617 58.93849513 74.98341617 58.93849513 72 58 C68.398999 58.2483449 65.41794848 58.86068384 62 60 C62.33 58.35 62.66 56.7 63 55 C67.4693607 53.44813865 71.86917833 51.98992202 76.5 51 C78.2325 50.505 78.2325 50.505 80 50 C80.33 49.01 80.66 48.02 81 47 C77.7 45.02 74.4 43.04 71 41 C70.34 42.32 69.68 43.64 69 45 C67.515 45.495 67.515 45.495 66 46 C66 41.05 66 36.1 66 31 C64.47375 30.9175 62.9475 30.835 61.375 30.75 C56.5994427 30.26366319 53.68385816 29.23460716 50 26 C47.95905088 23.2031438 46.80931104 20.53122298 45.5 17.3125 C44.25637748 13.78876045 44.25637748 13.78876045 41 12 C41 15.63 41 19.26 41 23 C39.35 23.33 37.7 23.66 36 24 C35.34 22.68 34.68 21.36 34 20 C30.0479482 20.58172725 27.77904947 22.55157741 24.75 25.0625 C23.85796875 25.79597656 22.9659375 26.52945313 22.046875 27.28515625 C21.03367187 28.13400391 21.03367187 28.13400391 20 29 C16.65757753 26.08049629 15.47886745 24.08121172 14.625 19.75 C12.89395814 12.74161972 9.64370287 7.58361164 3.625 3.5 C2.75875 3.005 1.8925 2.51 1 2 C1.48919922 3.03833984 1.48919922 3.03833984 1.98828125 4.09765625 C5.16831291 11.21755015 6.87538241 17.97249427 8.24609375 25.6328125 C9.17845315 29.79702909 10.65284559 32.47926838 13 36 C13.33333333 37.33333333 13.66666667 38.66666667 14 40 C14.495 40.433125 14.99 40.86625 15.5 41.3125 C17.79784024 43.89757027 17.6837707 46.64796938 18 50 C14.28400809 50.20086443 13.22791555 50.1519437 10 48 C8.34450469 47.61500109 6.6777567 47.27206865 5 47 C5 48.32 5 49.64 5 51 C7.31 51.66 9.62 52.32 12 53 C11.67 53.66 11.34 54.32 11 55 C14.3 55.66 17.6 56.32 21 57 C20.67 58.32 20.34 59.64 20 61 C14.76984222 63.8162388 9.64268302 62.82521451 4 62 C4.66 63.32 5.32 64.64 6 66 C4.68 65.34 3.36 64.68 2 64 C2.66 62.68 3.32 61.36 4 60 C5.85625 60.2784375 5.85625 60.2784375 7.75 60.5625 C11.95452159 61.08682684 11.95452159 61.08682684 16 60 C16.33 59.34 16.66 58.68 17 58 C15.85660156 57.95101562 14.71320312 57.90203125 13.53515625 57.8515625 C12.04424527 57.77654811 10.55336108 57.70099972 9.0625 57.625 C8.30775391 57.5940625 7.55300781 57.563125 6.77539062 57.53125 C4.84492605 57.4273685 2.92057919 57.22104386 1 57 C-0.602327 53.79534601 -0.34639983 50.4839829 0 47 C1 44 1 44 3 42 C5.796276 41.57531903 8.14546425 41.76602166 11 42 C10.74605469 41.46632812 10.49210937 40.93265625 10.23046875 40.3828125 C6.18861449 31.63303063 3.96853466 23.2151758 2.54296875 13.69921875 C1.89423506 10.47421891 0.49176696 7.9124974 -1 5 C-0.6875 2.125 -0.6875 2.125 0 0 Z " fill="#EDD169" transform="translate(24,7)"/>
<path d="M0 0 C0.33 0.33 0.66 0.66 1 1 C0.63004072 4.20631378 0.17473474 7.31635033 -0.625 10.4453125 C-1.05317515 13.36225574 -0.62692182 14.87660896 0.375 17.625 C2.16498612 23.05217252 2.68660956 28.31574584 3 34 C2.01 34.495 2.01 34.495 1 35 C-4.66433566 31.34965035 -4.66433566 31.34965035 -6.5 29.4375 C-8.03704501 27.78847431 -8.03704501 27.78847431 -10.75 26.875 C-15.38146716 24.20299972 -17.9444516 20.31212008 -21 16 C-19.35 14.02 -17.7 12.04 -16 10 C-15.34 11.32 -14.68 12.64 -14 14 C-13.01 14 -12.02 14 -11 14 C-11 12.68 -11 11.36 -11 10 C-12.32 9.34 -13.64 8.68 -15 8 C-13.3353357 4.3769071 -12.19748788 3.10605831 -8.625 1.1875 C-5.42516491 0.13927816 -3.30895191 -0.38928846 0 0 Z " fill="#D15808" transform="translate(82,62)"/>
<path d="M0 0 C0.99 0.33 1.98 0.66 3 1 C2.5 2.87890625 2.5 2.87890625 1 5 C-2.41321643 6.02617175 -5.73350705 6.71276393 -9.234375 7.33398438 C-11.65412103 7.79021602 -11.65412103 7.79021602 -15 9 C-16.59606536 11.4860933 -16.59606536 11.4860933 -17 14 C-16.319375 13.484375 -15.63875 12.96875 -14.9375 12.4375 C-11.11401601 10.56643336 -9.07944243 10.96159647 -5 12 C-2.5625 13.5625 -2.5625 13.5625 -1 15 C-1.27839864 21.54236799 -3.70232308 26.07478618 -8 31 C-10.28930734 32.71240189 -12.38335211 33.79634197 -15 35 C-14.855625 35.680625 -14.71125 36.36125 -14.5625 37.0625 C-12.73553719 46.60330579 -12.73553719 46.60330579 -15 50 C-18.67420866 49.69381595 -19.78135513 49.24228216 -22.3125 46.4375 C-22.869375 45.633125 -23.42625 44.82875 -24 44 C-20.50512285 44.64719947 -18.00290786 46.14247988 -15 48 C-15.19335938 47.28457031 -15.38671875 46.56914063 -15.5859375 45.83203125 C-18.93796509 33.00471775 -20.93900546 21.42588319 -18.4921875 8.26953125 C-16.71784528 5.57085892 -16.13514791 5.52256976 -13.0859375 4.85546875 C-11.51905816 4.60981394 -9.9482958 4.38799305 -8.375 4.1875 C-7.17230469 4.00670898 -7.17230469 4.00670898 -5.9453125 3.82226562 C-3.96646763 3.52779466 -1.98350918 3.26121159 0 3 C0 2.01 0 1.02 0 0 Z " fill="#F6BF15" transform="translate(103,53)"/>
<path d="M0 0 C1.47906892 -0.02689216 2.95827483 -0.04634621 4.4375 -0.0625 C5.26121094 -0.07410156 6.08492187 -0.08570313 6.93359375 -0.09765625 C9 0 9 0 10 1 C11.64107242 1.20839015 13.28856293 1.36751725 14.9375 1.5 C19.78044597 1.89022298 19.78044597 1.89022298 22 3 C21.67 3.99 21.34 4.98 21 6 C20.34 5.67 19.68 5.34 19 5 C20.90386277 15.15393475 28.70962019 20.85553138 36.38012695 27.05566406 C39.70998965 29.77217034 42.44230685 32.54618079 45 36 C41.03481721 34.65267556 38.53278057 32.92975909 35.5 30.0625 C33.18111117 27.87833535 31.1301071 26.07528453 28.3671875 24.4765625 C25.87920508 22.92465267 25.02777276 21.82799853 23.625 19.3125 C22.44182482 17.45858456 22.44182482 17.45858456 21 16 C15.63759013 15.00696114 11.76322288 16.52678812 7 19 C6.443125 19.556875 5.88625 20.11375 5.3125 20.6875 C4.879375 21.120625 4.44625 21.55375 4 22 C2.68 22 1.36 22 0 22 C-0.37125 20.14375 -0.37125 20.14375 -0.75 18.25 C-1.67839533 14.44223364 -3.00468856 12.59593658 -6 10 C-6 9.34 -6 8.68 -6 8 C-5.02160156 8.03480469 -5.02160156 8.03480469 -4.0234375 8.0703125 C1.00241502 8.17409117 5.3758426 8.25279463 10 6 C10.33 5.01 10.66 4.02 11 3 C10.28972656 2.95101562 9.57945313 2.90203125 8.84765625 2.8515625 C7.92855469 2.77679688 7.00945313 2.70203125 6.0625 2.625 C4.68771484 2.52058594 4.68771484 2.52058594 3.28515625 2.4140625 C2.15400391 2.20910156 2.15400391 2.20910156 1 2 C0.67 1.34 0.34 0.68 0 0 Z " fill="#9EAD49" transform="translate(34,61)"/>
<path d="M0 0 C-12.30068337 11.89066059 -12.30068337 11.89066059 -20 15 C-20 15.99 -20 16.98 -20 18 C-6.72635705 20.02881697 6.61511706 21.01182229 20 22 C20.495 20.515 20.495 20.515 21 19 C22.32 19 23.64 19 25 19 C25 18.34 25 17.68 25 17 C30.67023649 18.35005631 33.17957309 20.8157229 37 25 C36.505 26.485 36.505 26.485 36 28 C32.7323937 29.0892021 31.9343003 28.92914219 28.73046875 28.07421875 C27.85559814 27.85548096 26.98072754 27.63674316 26.0793457 27.41137695 C25.12503662 27.17249756 24.17072754 26.93361816 23.1875 26.6875 C12.11009448 24.05687476 1.1826158 23.1457076 -10.14575195 22.63354492 C-11.3699585 22.57529541 -12.59416504 22.5170459 -13.85546875 22.45703125 C-14.94496826 22.41553955 -16.03446777 22.37404785 -17.15698242 22.33129883 C-19.94465766 22.00644908 -21.65460558 21.50831532 -24 20 C-25.5631138 17.18639516 -24.92892888 15.74414398 -24.0625 12.625 C-21.97396689 8.06372251 -18.1029142 5.66055956 -14 3 C-14 3.66 -14 4.32 -14 5 C-11.05908413 4.81584568 -11.05908413 4.81584568 -8 4 C-6.69934079 2.06616713 -6.69934079 2.06616713 -6 0 C-3.50907189 -1.24546405 -2.58919267 -0.7767578 0 0 Z " fill="#80BCC4" transform="translate(48,78)"/>
<path d="M0 0 C-0.03480469 0.95777344 -0.06960937 1.91554687 -0.10546875 2.90234375 C-0.34283152 12.59363184 0.72993745 21.51777229 2.63623047 31.00390625 C3.24044681 34.31939138 3.61520032 37.65261637 4 41 C-2.79087047 39.72671179 -8.12627174 34.4877817 -12 29 C-9.44756388 30.13441605 -7.60902855 31.32422023 -5.4375 33.125 C-3.11622611 35.30485538 -3.11622611 35.30485538 0 35 C-1.03578866 27.96985994 -2.10620771 21.02039749 -3.828125 14.12109375 C-4.04125015 11.49093562 -3.26484515 10.27203665 -2 8 C-1.83249586 5.33290931 -1.83249586 5.33290931 -2 3 C-6.9430602 3.49430602 -10.74976194 4.36890025 -15 7 C-15.33 7.99 -15.66 8.98 -16 10 C-15.01 10.66 -14.02 11.32 -13 12 C-13 13.32 -13 14.64 -13 16 C-13.99 16 -14.98 16 -16 16 C-16.66 15.01 -17.32 14.02 -18 13 C-19.32 14.65 -20.64 16.3 -22 18 C-21.01 19.65 -20.02 21.3 -19 23 C-24.27125965 20.76119534 -27.72938707 16.59532344 -31 12 C-31.87582594 9.45130017 -32 7.72481306 -32 5 C-31.01 5.33 -30.02 5.66 -29 6 C-28.34 5.34 -27.68 4.68 -27 4 C-27 6.64 -27 9.28 -27 12 C-22.80752093 9.3408347 -22.80752093 9.3408347 -19.1328125 6.03515625 C-16.76495551 3.77571762 -14.58824944 2.56121928 -11.625 1.1875 C-10.70976563 0.74792969 -9.79453125 0.30835938 -8.8515625 -0.14453125 C-5.5122809 -1.14631573 -3.35591294 -0.80680503 0 0 Z " fill="#E38615" transform="translate(84,60)"/>
<path d="M0 0 C6.75 0.75 6.75 0.75 9 3 C7.35 3 5.7 3 4 3 C4.43356364 6.46850913 5.12328037 9.30552092 6.4375 12.5625 C7.84053135 16.09357411 8.39856334 19.42138163 8.875 23.1875 C9.93069116 30.91118916 12.51761964 38.03523927 16 45 C13.03 45 10.06 45 7 45 C5.06604999 48.86790003 4.76710647 50.1500459 4.875 54.25 C4.89304687 55.14203125 4.91109375 56.0340625 4.9296875 56.953125 C4.95289063 57.62859375 4.97609375 58.3040625 5 59 C5.90363281 58.98839844 6.80726562 58.97679687 7.73828125 58.96484375 C8.91777344 58.95582031 10.09726562 58.94679687 11.3125 58.9375 C12.48425781 58.92589844 13.65601563 58.91429687 14.86328125 58.90234375 C18 59 18 59 21 60 C20.67 60.99 20.34 61.98 20 63 C15.66726186 63.92844389 12.33273814 63.92844389 8 63 C8 64.32 8 65.64 8 67 C8.804375 67.45375 9.60875 67.9075 10.4375 68.375 C13 70 13 70 14.25 72.8125 C14 76 14 76 12.59375 77.6171875 C10.78127872 79.16086007 8.90402716 80.57197963 7 82 C5.98296799 82.98267283 4.97712552 83.97763719 4 85 C5.16142685 80.64464931 6.07699505 78.35380297 10 76 C9.89207179 73.0957107 9.89207179 73.0957107 9 70 C8.175 69.525625 7.35 69.05125 6.5 68.5625 C5.675 68.046875 4.85 67.53125 4 67 C3.00533889 62.13043211 2.78281237 57.27375992 2.6875 52.3125 C2.63142578 50.38857422 2.63142578 50.38857422 2.57421875 48.42578125 C3 45 3 45 4.83203125 42.60546875 C7 41 7 41 10 40 C9.59149167 37.07235698 9.19984409 34.4573507 8.01171875 31.73828125 C6.78878333 28.42832862 6.52096502 25.38554382 6.1875 21.875 C5.51034539 15.70940882 3.90514231 10.66876858 1.0234375 5.171875 C0 3 0 3 0 0 Z " fill="#EDEBCE" transform="translate(20,5)"/>
<path d="M0 0 C6.29945357 2.66515343 10.26267933 6.57980069 13.16601562 12.62841797 C14.70052201 16.99205819 14.68042055 21.41408183 14.75 26 C14.77964844 26.96550781 14.80929688 27.93101563 14.83984375 28.92578125 C14.90988791 31.28393466 14.96290292 33.64113746 15 36 C14.01 36 13.02 36 12 36 C7.45436988 29.62866598 5.86165348 23.03000202 4.43261719 15.47314453 C3.53386884 10.84887504 2.20714071 7.20853101 0 3 C0 2.01 0 1.02 0 0 Z " fill="#E48916" transform="translate(25,9)"/>
<path d="M0 0 C4.85179079 2.01726909 6.68528899 5.44889527 9 10 C9.8125 13 9.8125 13 10 15 C9.01 14.67 8.02 14.34 7 14 C5.98470459 11.67328135 4.98511802 9.3396553 4 7 C3.01 6.34 2.02 5.68 1 5 C1 8.63 1 12.26 1 16 C-1.475 16.495 -1.475 16.495 -4 17 C-4.66 15.68 -5.32 14.36 -6 13 C-9.9520518 13.58172725 -12.22095053 15.55157741 -15.25 18.0625 C-16.14203125 18.79597656 -17.0340625 19.52945313 -17.953125 20.28515625 C-18.96632813 21.13400391 -18.96632813 21.13400391 -20 22 C-24.44155535 18.05589885 -24.61703609 15.74445868 -25 10 C-23.45428722 12.31856917 -22.20381448 14.50638429 -21 17 C-18.70808151 17.03252936 -18.70808151 17.03252936 -16 16 C-14.52514588 14.43078451 -14.52514588 14.43078451 -13.125 12.5625 C-10.75487388 9.53094334 -10.24597084 9.06670396 -6.3125 8 C-3.00078929 7.38350418 -3.00078929 7.38350418 -1.890625 5.3359375 C-0.93960915 3.17014052 -0.93960915 3.17014052 0 0 Z " fill="#F0C948" transform="translate(64,14)"/>
<path d="M0 0 C5.67023649 1.35005631 8.17957309 3.8157229 12 8 C11.67 8.99 11.34 9.98 11 11 C7.54483715 12.15172095 6.17779756 11.79718066 2.67578125 11.00390625 C1.64775391 10.77509766 0.61972656 10.54628906 -0.43945312 10.31054688 C-1.51130859 10.06369141 -2.58316406 9.81683594 -3.6875 9.5625 C-4.77095703 9.31951172 -5.85441406 9.07652344 -6.97070312 8.82617188 C-9.64880847 8.22448301 -12.32504042 7.61549703 -15 7 C-15 6.34 -15 5.68 -15 5 C-11.7 5 -8.4 5 -5 5 C-4.67 4.01 -4.34 3.02 -4 2 C-2.68 2 -1.36 2 0 2 C0 1.34 0 0.68 0 0 Z " fill="#80BCC4" transform="translate(73,95)"/>
<path d="M0 0 C0.66 0 1.32 0 2 0 C6 5.29411765 6 5.29411765 6 9 C2.04 8.67 -1.92 8.34 -6 8 C-6 10.97 -6 13.94 -6 17 C-3.40103137 17.86632288 -1.38068779 18.23951897 1.3125 18.5 C4.90427766 18.86974182 8.44421703 19.36178254 12 20 C11.875 21.875 11.875 21.875 11 24 C5.76984222 26.8162388 0.64268302 25.82521451 -5 25 C-4.34 26.32 -3.68 27.64 -3 29 C-4.32 28.34 -5.64 27.68 -7 27 C-6.34 25.68 -5.68 24.36 -5 23 C-3.7625 23.185625 -2.525 23.37125 -1.25 23.5625 C2.95452159 24.08682684 2.95452159 24.08682684 7 23 C7.33 22.34 7.66 21.68 8 21 C6.28490234 20.92652344 6.28490234 20.92652344 4.53515625 20.8515625 C3.04424527 20.77654811 1.55336108 20.70099972 0.0625 20.625 C-0.69224609 20.5940625 -1.44699219 20.563125 -2.22460938 20.53125 C-4.15507395 20.4273685 -6.07942081 20.22104386 -8 20 C-9.602327 16.79534601 -9.34639983 13.4839829 -9 10 C-8 7 -8 7 -6 5 C-3.203724 4.57531903 -0.85453575 4.76602166 2 5 C1.34 3.35 0.68 1.7 0 0 Z " fill="#ECD98A" transform="translate(33,44)"/>
<path d="M0 0 C0.99 0.33 1.98 0.66 3 1 C2.5 2.87890625 2.5 2.87890625 1 5 C-2.41321643 6.02617175 -5.73350705 6.71276393 -9.234375 7.33398438 C-11.65412103 7.79021602 -11.65412103 7.79021602 -15 9 C-16.59606536 11.4860933 -16.59606536 11.4860933 -17 14 C-16.319375 13.484375 -15.63875 12.96875 -14.9375 12.4375 C-11.11401601 10.56643336 -9.07944243 10.96159647 -5 12 C-2.5625 13.5625 -2.5625 13.5625 -1 15 C-1.75 21.75 -1.75 21.75 -4 24 C-3.773125 22.906875 -3.54625 21.81375 -3.3125 20.6875 C-2.67232993 17.17383651 -2.67232993 17.17383651 -4.0625 15.0625 C-6.94746515 13.48042234 -8.76462622 13.47177571 -12 14 C-15.81407854 17.49623866 -16.85299987 21.12524944 -18 26 C-20.37625825 22.43561263 -20.14436846 21.28662511 -19.75 17.125 C-19.66234375 16.09632812 -19.5746875 15.06765625 -19.484375 14.0078125 C-18.57359315 8.35215102 -18.57359315 8.35215102 -17 6 C-14.19136186 4.92840614 -11.34616397 4.56613047 -8.375 4.1875 C-7.57320312 4.06697266 -6.77140625 3.94644531 -5.9453125 3.82226562 C-3.96646763 3.52779466 -1.98350918 3.26121159 0 3 C0 2.01 0 1.02 0 0 Z " fill="#F0C948" transform="translate(103,53)"/>
<path d="M0 0 C3.13487879 3.55286263 4.54383512 6.53442772 6 11 C6.7734375 11.7115625 6.7734375 11.7115625 7.5625 12.4375 C9.85052707 14.92448594 9.69227349 17.738099 10 21 C6.28400809 21.20086443 5.22791555 21.1519437 2 19 C0.34450469 18.61500109 -1.3222433 18.27206865 -3 18 C-3 19.32 -3 20.64 -3 22 C-0.69 22.66 1.62 23.32 4 24 C1.40517871 26.59482129 -0.39883625 26.69990302 -4 27 C-6 25 -6 25 -6.1875 21.5 C-6 18 -6 18 -5 16 C-0.81998005 15.91803882 2.92212105 16.10554296 7 17 C6.4946875 16.02417969 5.989375 15.04835938 5.46875 14.04296875 C4.81218344 12.7579742 4.1559508 11.47280899 3.5 10.1875 C3.16613281 9.54490234 2.83226562 8.90230469 2.48828125 8.24023438 C0.99760916 5.30452301 0 3.33873483 0 0 Z " fill="#F0C948" transform="translate(32,36)"/>
<path d="M0 0 C0.99 0.66 1.98 1.32 3 2 C2.9375 4.3125 2.9375 4.3125 2 7 C-3.68965517 10 -3.68965517 10 -7 10 C-6.21625 10.763125 -5.4325 11.52625 -4.625 12.3125 C-2 15 -2 15 0 18 C-0.14123843 22.94334489 -3.10776746 27.14368994 -6 31 C-6.66 31.33 -7.32 31.66 -8 32 C-6.82979737 29.65959474 -5.64237107 27.35351693 -4.375 25.0625 C-2.9840235 21.96441597 -2.28254533 20.31822783 -3 17 C-5.01658383 14.93849513 -5.01658383 14.93849513 -8 14 C-11.601001 14.2483449 -14.58205152 14.86068384 -18 16 C-17.67 14.35 -17.34 12.7 -17 11 C-12.5306393 9.44813865 -8.13082167 7.98992202 -3.5 7 C-2.345 6.67 -1.19 6.34 0 6 C1.33333333 3 1.33333333 3 0 0 Z " fill="#ECD98A" transform="translate(104,51)"/>
<path d="M0 0 C0.33 1.32 0.66 2.64 1 4 C-0.98 4.99 -0.98 4.99 -3 6 C-2.835 6.680625 -2.67 7.36125 -2.5 8.0625 C-1.90509199 11.55758457 -1.62070037 14.45987015 -2 18 C-4.5439344 21.179918 -7.1121889 23.66356493 -11 25 C-13.75 25.125 -13.75 25.125 -16 25 C-16.33 24.34 -16.66 23.68 -17 23 C-16.030625 22.87625 -15.06125 22.7525 -14.0625 22.625 C-13.051875 22.41875 -12.04125 22.2125 -11 22 C-10.67 21.34 -10.34 20.68 -10 20 C-9.01 19.67 -8.02 19.34 -7 19 C-5.80011955 13.71800407 -5.80011955 13.71800407 -8 9 C-8.0625 6.5625 -8.0625 6.5625 -7 4 C-4.75918347 2.33815042 -2.52436283 1.23923266 0 0 Z " fill="#ECE3B3" transform="translate(95,83)"/>
<path d="M0 0 C0.94875 0.04125 1.8975 0.0825 2.875 0.125 C4.0567827 3.67034811 3.60070094 5.49649532 2.875 9.125 C2.689375 10.07375 2.50375 11.0225 2.3125 12 C2.168125 12.70125 2.02375 13.4025 1.875 14.125 C0.0625 14 0.0625 14 -2.125 13.125 C-4.46502251 9.44782176 -5.7324988 6.49899136 -5.125 2.125 C-3.125 0.125 -3.125 0.125 0 0 Z " fill="#E58916" transform="translate(85.125,37.875)"/>
<path d="M0 0 C2.96584667 1.37700024 5.67664502 2.67664502 8 5 C8.5 8 8.5 8 8 11 C5.67664502 13.32335498 2.96584667 14.62299976 0 16 C0.66 16.515625 1.32 17.03125 2 17.5625 C4 20 4 20 4.5 23.5 C3.93483001 27.45618991 3.09107447 28.58509807 0 31 C0.20238281 30.40832031 0.40476562 29.81664063 0.61328125 29.20703125 C1.3315484 26.74726722 1.87078659 24.56273267 2 22 C-0.18802581 19.06145926 -0.18802581 19.06145926 -3 17 C-3.33 16.01 -3.66 15.02 -4 14 C-1.03 12.68 1.94 11.36 5 10 C4.49701212 5.59885603 2.91227269 3.28804981 0 0 Z " fill="#EDEBCE" transform="translate(101,47)"/>
<path d="M0 0 C5.13900764 1.71300255 7.71622144 4.18500273 10.8125 8.5625 C12 11 12 11 11 14 C10.59007813 13.3503125 10.18015625 12.700625 9.7578125 12.03125 C9.21898438 11.1959375 8.68015625 10.360625 8.125 9.5 C7.32449219 8.24703125 7.32449219 8.24703125 6.5078125 6.96875 C6.01023437 6.3190625 5.51265625 5.669375 5 5 C4.34 5 3.68 5 3 5 C2.67 6.093125 2.34 7.18625 2 8.3125 C0.99858003 10.68907563 0.41514392 11.76025659 -1.83984375 13.0625 C-3.87651434 13.79069507 -5.92084003 14.40595429 -8 15 C-9.3465266 15.63960014 -10.68922893 16.289999 -12 17 C-10.79307362 14.20898276 -9.78299757 12.39535972 -7.01953125 11 C-5.035354 10.26954183 -3.01870458 9.62877684 -1 9 C-1.020625 7.88625 -1.04125 6.7725 -1.0625 5.625 C-1 2 -1 2 0 0 Z " fill="#EDEBCE" transform="translate(61,10)"/>
<path d="M0 0 C0 0.99 0 1.98 0 3 C-2.31 4.32 -4.62 5.64 -7 7 C-6.855625 7.680625 -6.71125 8.36125 -6.5625 9.0625 C-4.73553719 18.60330579 -4.73553719 18.60330579 -7 22 C-10.67420866 21.69381595 -11.78135513 21.24228216 -14.3125 18.4375 C-14.869375 17.633125 -15.42625 16.82875 -16 16 C-12.50512285 16.64719947 -10.00290786 18.14247988 -7 20 C-7.34224609 18.78763672 -7.34224609 18.78763672 -7.69140625 17.55078125 C-7.97886719 16.48214844 -8.26632813 15.41351563 -8.5625 14.3125 C-8.85253906 13.25675781 -9.14257812 12.20101562 -9.44140625 11.11328125 C-10.00124767 7.99304618 -9.84690764 6.02306766 -9 3 C-7.88625 2.87625 -6.7725 2.7525 -5.625 2.625 C-1.96896323 2.3534187 -1.96896323 2.3534187 0 0 Z " fill="#F0C845" transform="translate(95,81)"/>
<path d="M0 0 C-0.54723683 3.37462715 -1.0549 5.08235 -3 8 C-4.32 8 -5.64 8 -7 8 C-7.79953138 4.71303767 -8.09658936 3.28976808 -7 0 C-4.3333581 -1.33332095 -2.83319697 -0.67102033 0 0 Z " fill="#E38414" transform="translate(67,48)"/>
<path d="M0 0 C5.61 0.66 11.22 1.32 17 2 C17.33 4.64 17.66 7.28 18 10 C20.40743101 12.06454002 20.40743101 12.06454002 23 13 C22.67 13.66 22.34 14.32 22 15 C18.27549784 12.89484661 16.3204079 11.75732776 14.625 7.75 C14.41875 6.8425 14.2125 5.935 14 5 C13.11248047 4.94392578 13.11248047 4.94392578 12.20703125 4.88671875 C7.42978922 4.48926468 3.91240961 4.02896228 0 1 C0 0.67 0 0.34 0 0 Z " fill="#EDEBCE" transform="translate(77,31)"/>
<path d="M0 0 C1.32 0.66 2.64 1.32 4 2 C4 2.99 4 3.98 4 5 C2.68 4.34 1.36 3.68 0 3 C-0.33 6.3 -0.66 9.6 -1 13 C-2.32 12.34 -3.64 11.68 -5 11 C-7.55936559 11.32852082 -7.55936559 11.32852082 -10 12 C-10.99 12 -11.98 12 -13 12 C-10.94680552 9.34292479 -9.89427856 8.97734541 -6.5 8.25 C-3.0269009 7.40200106 -3.0269009 7.40200106 -1.87890625 5.3203125 C-0.93987603 3.1666167 -0.93987603 3.1666167 0 0 Z " fill="#ECD98A" transform="translate(64,14)"/>
<path d="M0 0 C1.9375 0.625 1.9375 0.625 4 2 C5.1875 4.75 5.1875 4.75 5 8 C2.94069769 10.38053052 0.50763586 12.1192731 -2 14 C-3.01703201 14.98267283 -4.02287448 15.97763719 -5 17 C-3.83857315 12.64464931 -2.92300495 10.35380297 1 8 C0.67 5.36 0.34 2.72 0 0 Z " fill="#ECE6BE" transform="translate(29,73)"/>
<path d="M0 0 C3.25138408 1.38043678 4.93759252 2.83487662 7 5.6875 C7.51304688 6.39390625 8.02609375 7.1003125 8.5546875 7.828125 C9.87957032 9.81903 11.0147872 11.8219764 12.125 13.9375 C13.65967953 17.11628523 13.65967953 17.11628523 16.25 17.9375 C16.8275 17.958125 17.405 17.97875 18 18 C16.35 18.66 14.7 19.32 13 20 C12.48050781 19.05898438 11.96101563 18.11796875 11.42578125 17.1484375 C10.72167971 15.89044274 10.01723415 14.63264048 9.3125 13.375 C8.97283203 12.75753906 8.63316406 12.14007813 8.28320312 11.50390625 C5.8931743 7.25992984 3.21558646 3.66047496 0 0 Z " fill="#EDEBCE" transform="translate(31,10)"/>
<path d="M0 0 C4 1 4 1 5.75 3.375 C7 6 7 6 7 9 C5.68 9 4.36 9 3 9 C2.01 6.03 1.02 3.06 0 0 Z " fill="#D15808" transform="translate(28,13)"/>
<path d="M0 0 C2.01136276 2.55991624 3.62845496 5.04590299 5 8 C7.31 7.34 9.62 6.68 12 6 C10.68 7.65 9.36 9.3 8 11 C5.6875 10.9375 5.6875 10.9375 3 10 C1.11957103 6.49851158 0 3.9919694 0 0 Z " fill="#ECD98A" transform="translate(39,21)"/>
<path d="M0 0 C0 0.99 0 1.98 0 3 C-1.11375 3.5775 -2.2275 4.155 -3.375 4.75 C-6.33192143 6.42260202 -7.92315721 7.64982242 -9 11 C-9.33 8.69 -9.66 6.38 -10 4 C-8 3 -8 3 -5 2.5625 C-1.89638412 2.27284006 -1.89638412 2.27284006 0 0 Z " fill="#F0C948" transform="translate(95,81)"/>
<path d="M0 0 C1.98 0.99 1.98 0.99 4 2 C4 4.31 4 6.62 4 9 C3.01 9 2.02 9 1 9 C0.67 6.03 0.34 3.06 0 0 Z " fill="#E79015" transform="translate(67,22)"/>
<path d="M0 0 C2.97 0.495 2.97 0.495 6 1 C6.33 1.99 6.66 2.98 7 4 C4.69 3.67 2.38 3.34 0 3 C0 2.01 0 1.02 0 0 Z " fill="#478A9E" transform="translate(72,99)"/>
<path d="M0 0 C3.44216672 2.6598561 3.99504674 5.90288286 5 10 C2 9 2 9 0.8125 6.6875 C0 4 0 4 0 0 Z " fill="#EDD16A" transform="translate(69,19)"/>
<path d="M0 0 C3.34249629 0.59687434 5.46436342 1.73603877 8 4 C8 4.66 8 5.32 8 6 C4.74456771 5.65120368 3.98126893 4.97866739 1.75 2.4375 C1.1725 1.633125 0.595 0.82875 0 0 Z " fill="#9EAE4C" transform="translate(79,97)"/>
<path d="M0 0 C4.42857143 5.14285714 4.42857143 5.14285714 5 9 C4.01 8.67 3.02 8.34 2 8 C0.5522078 5.10441559 0 3.25811062 0 0 Z " fill="#F2C639" transform="translate(32,36)"/>
</svg>
