<?xml version="1.0" encoding="UTF-8"?>
<svg version="1.1" xmlns="http://www.w3.org/2000/svg" width="128" height="128">
<path d="M0 0 C42.24 0 84.48 0 128 0 C128 42.24 128 84.48 128 128 C85.76 128 43.52 128 0 128 C0 85.76 0 43.52 0 0 Z " fill="#9E813F" transform="translate(0,0)"/>
<path d="M0 0 C42.24 0 84.48 0 128 0 C128 42.24 128 84.48 128 128 C85.76 128 43.52 128 0 128 C0 85.76 0 43.52 0 0 Z M79 17 C76.75174913 17.09800068 74.50038076 17.12974764 72.25 17.125 C71.03828125 17.12757812 69.8265625 17.13015625 68.578125 17.1328125 C65 17 65 17 62.2265625 16.53125 C53.63524859 15.11669953 42.16916417 13.52105479 34.1328125 17.375 C31.88180766 19.76610888 30.52212456 22.0825946 29 25 C28.20762533 26.37369946 27.41035306 27.74458041 26.609375 29.11328125 C24.4000585 32.9498139 22.29634579 36.83521723 20.21386719 40.74169922 C18.40417097 44.10849125 16.52229304 47.43200018 14.625 50.75 C14.01914063 51.81734375 13.41328125 52.8846875 12.7890625 53.984375 C11 57 11 57 8.8359375 60.015625 C5.45685843 65.50842588 5.8367507 71.36832249 5.875 77.625 C5.87910889 78.44315186 5.88321777 79.26130371 5.88745117 80.10424805 C5.94253375 86.34279377 6.07748198 92.57815502 6.3125 98.8125 C6.33489746 99.64152832 6.35729492 100.47055664 6.38037109 101.32470703 C6.60153427 106.20730937 7.24439306 109.80528218 10 114 C15.84912335 117.14119587 21.41262003 117.38931072 27.97265625 117.75 C31 118 31 118 34.5 119.0625 C43.76501396 121.54420017 52.60985521 119.77829335 61.75 117.60546875 C66.64814397 116.69295395 71.44569557 116.72284778 76 119 C77.47668337 119.0952699 78.95775457 119.12985959 80.4375 119.125 C81.21996094 119.12757812 82.00242187 119.13015625 82.80859375 119.1328125 C85.17895347 119.08382548 85.17895347 119.08382548 88 118 C88 117.34 88 116.68 88 116 C88.7734375 115.95101562 89.546875 115.90203125 90.34375 115.8515625 C101.43670124 115.41311715 101.43670124 115.41311715 110.9375 110.4375 C111.618125 109.633125 112.29875 108.82875 113 108 C113.33 107.67 113.66 107.34 114 107 C114.15242696 105.41683195 114.23823703 103.82719159 114.29711914 102.23779297 C114.33704987 101.21576782 114.37698059 100.19374268 114.41812134 99.14074707 C114.45674286 98.01922241 114.49536438 96.89769775 114.53515625 95.7421875 C114.60009781 94.00358459 114.60009781 94.00358459 114.66635132 92.2298584 C114.80503553 88.44510727 114.93508235 84.66014651 115.0625 80.875 C115.1272905 78.96186005 115.1272905 78.96186005 115.19338989 77.0100708 C115.44596143 69.45345987 115.68180383 61.89647603 115.90246582 54.33886719 C115.96349601 52.24963346 116.02572029 50.16043388 116.08972168 48.07128906 C116.24909411 42.8390803 116.3636829 37.60912485 116.4375 32.375 C116.47174072 31.16569824 116.50598145 29.95639648 116.54125977 28.71044922 C116.63819434 22.043963 116.63819434 22.043963 113.66015625 16.2890625 C105.82354004 9.54566 87.78471961 12.6076402 79 17 Z " fill="#FAF9F8" transform="translate(0,0)"/>
<path d="M0 0 C3.63992301 5.45988452 3.13636326 11.77624407 3.00927734 18.15087891 C2.99794769 18.93390884 2.98661804 19.71693878 2.97494507 20.5236969 C2.93543117 23.09148704 2.88676267 25.65897256 2.8359375 28.2265625 C2.81919605 29.10753979 2.80245461 29.98851707 2.78520584 30.89619064 C2.69572511 35.55108042 2.598555 40.20574117 2.49560547 44.86035156 C2.3910839 49.66294433 2.31484997 54.46556173 2.24477196 59.26876259 C2.18541628 62.97007082 2.10446919 66.67068352 2.01768875 70.37144089 C1.98001569 72.1422822 1.95058337 73.91331901 1.92960739 75.6844368 C1.89836761 78.16004741 1.83643766 80.63311396 1.76708984 83.10791016 C1.7647937 83.83634628 1.76249756 84.56478241 1.76013184 85.31529236 C1.61820253 89.14366059 1.09420001 90.88123915 -1.31283569 93.91586304 C-4.6843704 96.53079063 -7.8774833 97.33953789 -12 98 C-12.70979004 98.11520996 -13.41958008 98.23041992 -14.15087891 98.34912109 C-16.36845143 98.67329277 -18.58481887 98.94262073 -20.8125 99.1875 C-21.59423584 99.27354492 -22.37597168 99.35958984 -23.18139648 99.44824219 C-29.09599108 100.03671047 -35.18386047 100.50563946 -41 99 C-41.33 98.34 -41.66 97.68 -42 97 C-48.74700309 96.74870079 -54.34896614 97.88697112 -60.8203125 99.66601562 C-65.25686563 100.81132146 -68.44834703 101.12452603 -73 100 C-74.423125 99.7215625 -74.423125 99.7215625 -75.875 99.4375 C-76.57625 99.293125 -77.2775 99.14875 -78 99 C-78 98.34 -78 97.68 -78 97 C-79.485 96.505 -79.485 96.505 -81 96 C-79.48328036 91.44984107 -75.83108947 89.49942736 -72 87 C-72.28875 87.556875 -72.5775 88.11375 -72.875 88.6875 C-74.0413253 91.08494645 -75.0339881 93.51596939 -76 96 C-71.07566539 97.36725318 -65.74441247 98.18579331 -60.9296875 96.10546875 C-59.25851832 95.11605269 -57.62606265 94.06191846 -56 93 C-55.34 93 -54.68 93 -54 93 C-55.15584244 89.87922542 -56.14147252 88.90066823 -58.9375 86.9375 C-63.36376271 83.3785138 -63.99790768 78.37530703 -65 73 C-65.4385221 68.46950796 -65.51019479 63.98692633 -65.5 59.4375 C-65.52835938 58.28314453 -65.55671875 57.12878906 -65.5859375 55.93945312 C-65.60302307 48.40898635 -64.61824622 42.15579015 -60 36 C-56.625 34.375 -56.625 34.375 -53 34 C-51.824375 33.87625 -50.64875 33.7525 -49.4375 33.625 C-43.53792291 34.26859023 -39.92296745 37.77526582 -36 42 C-35.55269531 41.57847656 -35.10539062 41.15695313 -34.64453125 40.72265625 C-28.58224381 35.22911219 -28.58224381 35.22911219 -24 35 C-22.845 34.9175 -21.69 34.835 -20.5 34.75 C-16.55425482 35.03183894 -14.98286794 35.42022232 -12 38 C-6.90771714 46.22995209 -6.72734319 53.61638691 -6.625 63.125 C-6.56892578 65.06632812 -6.56892578 65.06632812 -6.51171875 67.046875 C-6.43987524 74.88580044 -7.0017001 80.74469656 -12 87 C-15.7884084 90.45166098 -18.79763973 91.63781829 -23.984375 91.41015625 C-26.24373645 90.95040247 -27.73751445 90.15412142 -29.6875 88.9375 C-32.74704939 86.77385435 -32.74704939 86.77385435 -35.6875 87 C-38.45622246 88.19728539 -40.03121396 89.73954195 -42 92 C-37.64939516 95.62550403 -34.71221023 97.78876805 -28.94921875 97.4375 C-26.31259262 96.84571217 -24.34779623 95.41853999 -22.12109375 93.9375 C-18.31568886 92.25555309 -14.19182533 92.5615299 -10.0859375 92.56640625 C-5.89844903 91.79781659 -4.62840614 90.31503673 -2 87 C-1.51962341 84.16733177 -1.34303102 81.94317963 -1.40063477 79.12036133 C-1.39669205 78.34255814 -1.39274933 77.56475494 -1.38868713 76.76338196 C-1.38199455 74.20226855 -1.41109338 71.64295269 -1.44140625 69.08203125 C-1.44565746 67.30035243 -1.44798505 65.51866808 -1.44847107 63.73698425 C-1.45463035 60.00872589 -1.47730539 56.28106978 -1.51293945 52.55297852 C-1.55831018 47.76764158 -1.57297081 42.98284833 -1.57667637 38.19731617 C-1.58109784 34.52136344 -1.59638741 30.84552545 -1.6155529 27.16962242 C-1.62444691 25.40452711 -1.63117117 23.63941951 -1.63571358 21.87430763 C-1.64472644 19.41314567 -1.66708807 16.95248267 -1.69360352 14.49145508 C-1.69426819 13.75844177 -1.69493286 13.02542847 -1.69561768 12.27020264 C-1.63840571 8.18387969 -1.63840571 8.18387969 -4 5 C-10.65677916 3.45467627 -17.10721143 5.72994425 -23.375 7.8125 C-24.16003906 8.07289062 -24.94507812 8.33328125 -25.75390625 8.6015625 C-29.69705245 9.97928828 -32.70321787 11.38876369 -36 14 C-39.87053521 14.43005947 -42.22574424 14.4056159 -45.69921875 12.5859375 C-49.59815326 10.71260328 -53.20013868 9.96184673 -57.4375 9.25 C-58.16259766 9.11207031 -58.88769531 8.97414063 -59.63476562 8.83203125 C-64.29850717 8.01912392 -68.36561695 7.69040576 -73 9 C-75.24903346 11.24208362 -75.24903346 11.24208362 -76.875 14.25 C-77.53628906 15.33152344 -78.19757813 16.41304687 -78.87890625 17.52734375 C-79.22066895 18.09694824 -79.56243164 18.66655273 -79.91455078 19.25341797 C-81.74582283 22.20009369 -83.79116318 24.99437753 -85.8125 27.8125 C-88.09954677 31.00626974 -89.94107752 33.8605866 -91.47265625 37.484375 C-93.11558432 41.26605087 -95.12072737 44.17052545 -97.625 47.4375 C-98.42164062 48.48808594 -99.21828125 49.53867188 -100.0390625 50.62109375 C-100.68617187 51.40613281 -101.33328125 52.19117188 -102 53 C-102.33 53 -102.66 53 -103 53 C-103.28543118 48.47851066 -102.90841887 46.21466116 -100.25 42.5625 C-95.61613067 35.74409227 -92.0169666 28.43606845 -88.35253906 21.06079102 C-85.71320757 15.85804569 -83.34384787 11.88943825 -79 8 C-78.30686092 6.34416775 -77.63525576 4.67889021 -77 3 C-73.40700497 0.60466998 -71.83334239 0.73128875 -67.5625 0.75 C-66.59244019 0.75362549 -66.59244019 0.75362549 -65.6027832 0.75732422 C-59.91825612 0.84409051 -54.33024244 1.47192919 -48.6875 2.125 C-41.72940598 2.9130534 -35.75264254 3.21949406 -29 1 C-7.79305219 -5.11047649 -7.79305219 -5.11047649 0 0 Z " fill="#9F915F" transform="translate(112,17)"/>
<path d="M0 0 C3.01700494 3.01700494 2.4711811 6.5261909 2.6328125 10.58984375 C2.67464661 11.46970947 2.71648071 12.3495752 2.75958252 13.25610352 C2.89283229 16.14952701 3.01028423 19.04328576 3.125 21.9375 C3.16602844 22.919534 3.20705688 23.90156799 3.24932861 24.9133606 C3.78457617 37.82860786 4.23550507 50.7504976 4.35247803 63.67703247 C4.36741318 65.176032 4.38870722 66.67498254 4.41656494 68.17379761 C4.4519924 70.250448 4.4606162 72.32542911 4.4609375 74.40234375 C4.46915527 75.56241943 4.47737305 76.72249512 4.48583984 77.91772461 C3.89541548 81.66350734 2.62078595 83.31175613 0 86 C-2.74063828 87.37031914 -5.12943636 87.18933288 -8.1875 87.3125 C-13.82110587 87.68256541 -13.82110587 87.68256541 -18.8125 90.0625 C-22.00398155 92.00242016 -24.18088262 92.70062736 -27.93359375 92.5390625 C-31.95983752 91.48873804 -34.94966985 88.72582694 -38 86 C-35.69912779 83.43617097 -33.79559189 81.35592269 -30.625 79.9375 C-27.37368371 80.01491229 -25.59448973 81.37161728 -22.890625 83.05859375 C-19.40298923 84.79520577 -16.86029502 84.49019619 -13 84 C-8.3462829 81.85213057 -6.03707505 79.2047519 -3.82910156 74.59521484 C-2.06643338 69.07779352 -2.43044996 63.29748052 -2.5 57.5625 C-2.48453125 56.29083984 -2.4690625 55.01917969 -2.453125 53.70898438 C-2.49075076 44.63647326 -3.99683074 38.50475389 -9 31 C-14.84541498 29.05152834 -20.3210925 29.79153597 -26 32 C-28.8979062 34.47859029 -28.8979062 34.47859029 -31 37 C-31.721875 36.236875 -32.44375 35.47375 -33.1875 34.6875 C-36.87995048 31.15915843 -39.21082598 29.16566426 -44.375 28.6875 C-49.86151745 29.14920932 -49.86151745 29.14920932 -55 31 C-59.81697207 37.72248908 -59.57373861 45.44679195 -59.4375 53.375 C-59.44458984 54.53 -59.45167969 55.685 -59.45898438 56.875 C-59.49595755 69.26670379 -59.49595755 69.26670379 -54.16772461 79.97412109 C-52.3501354 81.51653611 -52.3501354 81.51653611 -50.42578125 82.78125 C-49.95527344 83.1834375 -49.48476563 83.585625 -49 84 C-49 84.99 -49 85.98 -49 87 C-54.88801665 90.89750511 -59.84101778 93.30038874 -67 92 C-69.26171875 90.97265625 -69.26171875 90.97265625 -71 90 C-70.61782233 87.24832074 -70.34952609 85.42551002 -68.5625 83.25 C-63.61983437 76.13256149 -64.72895315 65.9929409 -64.8125 57.75 C-64.81894531 56.43563965 -64.82539062 55.1212793 -64.83203125 53.76708984 C-64.90443024 42.82785255 -65.32518971 31.9174664 -66 21 C-68.45737966 21.28184485 -68.45737966 21.28184485 -71 22 C-72.05226728 23.97300116 -73.04788888 25.97676387 -74 28 C-76.4375 30.1875 -76.4375 30.1875 -79 32 C-79.70125 32.5775 -80.4025 33.155 -81.125 33.75 C-83 35 -83 35 -86 35 C-84.02065638 26.65848048 -79.46277896 21.07770803 -74.21289062 14.55273438 C-71.97896975 11.69288398 -70.02215622 8.65762496 -68.05859375 5.609375 C-67 4 -67 4 -66 3 C-60.6934187 2.73017383 -57.01742264 3.15686515 -52 5 C-50.48054755 5.27847616 -48.95958172 5.54877297 -47.4375 5.8125 C-43.01769116 6.78306613 -40.63773363 8.17103183 -38 12 C-37.75 15.6875 -37.75 15.6875 -38 19 C-37.505 19.99 -37.505 19.99 -37 21 C-35.02 20.67 -33.04 20.34 -31 20 C-31.0825 19.13375 -31.165 18.2675 -31.25 17.375 C-30.8734113 12.29105259 -28.51851876 9.43992629 -24.88671875 5.99609375 C-21.24557015 3.47833065 -17.72989006 2.37464531 -13.5 1.1875 C-12.75363281 0.95869141 -12.00726563 0.72988281 -11.23828125 0.49414062 C-7.20509195 -0.67298583 -4.09147142 -1.48850173 0 0 Z " fill="#C48223" transform="translate(107,23)"/>
<path d="M0 0 C3.24044458 2.56535196 4.69560167 4.086805 6 8 C8.31 8 10.62 8 13 8 C13.12375 7.38125 13.2475 6.7625 13.375 6.125 C14 4 14 4 16 2 C21.38568492 1.34131911 27.14796132 1.45845593 32 4 C36.80525702 9.34891749 36.5452367 14.28821489 36.375 21.25 C36.37371094 22.23613281 36.37242188 23.22226563 36.37109375 24.23828125 C36.18080595 40.28588536 36.18080595 40.28588536 32.0625 46.625 C28.1130589 49.68783187 25.49966843 49.74104014 20.60546875 49.45703125 C17.05034934 48.8334196 15.23110679 47.84658453 13 45 C12.6875 42.25 12.6875 42.25 13 40 C16.75 38.875 16.75 38.875 19 40 C22.45786015 40.50007794 22.45786015 40.50007794 26 40 C29.8429109 35.6363208 29.61631384 30.5252428 29.8125 25 C29.86341797 24.11054687 29.91433594 23.22109375 29.96679688 22.3046875 C30.25418812 15.91290046 30.25418812 15.91290046 28 10 C26.22286468 8.74304733 26.22286468 8.74304733 24 9 C21.36375566 10.89229266 21.36375566 10.89229266 19 13 C18.34 13 17.68 13 17 13 C16.80664062 13.81984375 16.61328125 14.6396875 16.4140625 15.484375 C16.15367188 16.56203125 15.89328125 17.6396875 15.625 18.75 C15.24214844 20.35101563 15.24214844 20.35101563 14.8515625 21.984375 C14.12466459 24.55852722 13.2973776 26.67600186 12 29 C10.35 29 8.7 29 7 29 C6.76216797 28.1646875 6.76216797 28.1646875 6.51953125 27.3125 C4.52569559 20.79122535 1.87693971 14.87693971 -3 10 C-5.54713404 10.00922702 -5.54713404 10.00922702 -8 11 C-12.28986963 17.17036043 -10.42376082 27.52451479 -9.3125 34.5625 C-8.29901379 39.0529097 -6.58099512 41.17289859 -3 44 C-5.375 44.625 -5.375 44.625 -8 45 C-10 43 -10 43 -11 40.4375 C-11.74870114 37.85158559 -11.74870114 37.85158559 -14 37 C-12.75543888 40.403634 -11.42241273 43.27991791 -9 46 C-5.30321005 47.09034535 -1.83441772 47.16788169 2 47 C-0.05793625 49.28861937 -0.6548512 49.94631019 -3.8125 50.4375 C-8.0755664 49.85237324 -9.83090248 48.96241725 -13 46 C-17.24969864 37.35220054 -18.21980378 28.62018712 -18.375 19.125 C-18.41238281 18.26519531 -18.44976562 17.40539062 -18.48828125 16.51953125 C-18.5735268 10.27766237 -17.31941959 5.6663494 -13 1 C-8.59907454 -1.61541015 -4.86138082 -1.36049338 0 0 Z " fill="#8AB8CC" transform="translate(67,55)"/>
<path d="M0 0 C3.0023709 2.40189672 3.55298006 5.09557923 4.1875 8.75 C4.34372138 11.81262576 4.20030904 14.81711771 4 17.875 C3.96841797 18.66003906 3.93683594 19.44507812 3.90429688 20.25390625 C3.61384903 25.24624163 2.88277561 29.05472439 -0.8125 32.75 C-4.97714926 32.91017882 -8.75976192 32.73248196 -12.8125 31.75 C-13.1425 33.4 -13.4725 35.05 -13.8125 36.75 C-16.8085014 37.43575143 -19.80899906 38.09792414 -22.8125 38.75 C-24.359375 39.0903125 -24.359375 39.0903125 -25.9375 39.4375 C-29.66166791 39.84230086 -32.20149727 39.86612812 -35.8125 38.75 C-38.29247 35.90862734 -40.8125 32.62592554 -40.8125 28.75 C-37.81925737 29.8475223 -36.96639099 30.42682892 -35.5625 33.375 C-35.315 34.15875 -35.0675 34.9425 -34.8125 35.75 C-32.8325 35.255 -32.8325 35.255 -30.8125 34.75 C-31.988125 34.069375 -31.988125 34.069375 -33.1875 33.375 C-38.43616816 28.12633184 -37.9551027 20.59186606 -38.1875 13.5 C-38.12670949 7.91943121 -37.64480918 4.8218285 -33.8125 0.75 C-30.1087668 0.9616419 -28.88903522 1.67528705 -26.1875 4.3125 C-22.67344143 8.89845693 -21.14415821 14.20142414 -19.8125 19.75 C-18.1625 20.08 -16.5125 20.41 -14.8125 20.75 C-14.61914062 19.93015625 -14.42578125 19.1103125 -14.2265625 18.265625 C-13.96617188 17.18796875 -13.70578125 16.1103125 -13.4375 15 C-13.05464844 13.39898437 -13.05464844 13.39898437 -12.6640625 11.765625 C-11.138171 6.36200922 -9.26355145 3.72888243 -4.625 0.6171875 C-2.8125 -0.25 -2.8125 -0.25 0 0 Z " fill="#8AB8CC" transform="translate(93.8125,63.25)"/>
<path d="M0 0 C0.75 3.625 0.75 3.625 1 7 C0.01 6.34 -0.98 5.68 -2 5 C-12.17384605 3.19131626 -22.76966322 6.8788251 -32 11 C-33.35113205 11.97581759 -34.69116114 12.96814797 -36 14 C-39.87053521 14.43005947 -42.22574424 14.4056159 -45.69921875 12.5859375 C-49.59815326 10.71260328 -53.20013868 9.96184673 -57.4375 9.25 C-58.16259766 9.11207031 -58.88769531 8.97414063 -59.63476562 8.83203125 C-64.29850717 8.01912392 -68.36561695 7.69040576 -73 9 C-75.24903346 11.24208362 -75.24903346 11.24208362 -76.875 14.25 C-77.53628906 15.33152344 -78.19757813 16.41304687 -78.87890625 17.52734375 C-79.22066895 18.09694824 -79.56243164 18.66655273 -79.91455078 19.25341797 C-81.74582283 22.20009369 -83.79116318 24.99437753 -85.8125 27.8125 C-88.09954677 31.00626974 -89.94107752 33.8605866 -91.47265625 37.484375 C-93.11558432 41.26605087 -95.12072737 44.17052545 -97.625 47.4375 C-98.42164062 48.48808594 -99.21828125 49.53867188 -100.0390625 50.62109375 C-100.68617187 51.40613281 -101.33328125 52.19117188 -102 53 C-102.33 53 -102.66 53 -103 53 C-103.28543118 48.47851066 -102.90841887 46.21466116 -100.25 42.5625 C-95.61613067 35.74409227 -92.0169666 28.43606845 -88.35253906 21.06079102 C-85.71320757 15.85804569 -83.34384787 11.88943825 -79 8 C-78.30686092 6.34416775 -77.63525576 4.67889021 -77 3 C-73.40700497 0.60466998 -71.83334239 0.73128875 -67.5625 0.75 C-66.59244019 0.75362549 -66.59244019 0.75362549 -65.6027832 0.75732422 C-59.91825612 0.84409051 -54.33024244 1.47192919 -48.6875 2.125 C-41.72940598 2.9130534 -35.75264254 3.21949406 -29 1 C-7.38129552 -5.22911824 -7.38129552 -5.22911824 0 0 Z " fill="#487A8F" transform="translate(112,17)"/>
<path d="M0 0 C2.80955501 3.08818507 3.37669027 5.05865008 3.36328125 9.203125 C3.36392578 10.30261475 3.36457031 11.40210449 3.36523438 12.53491211 C3.34783203 13.76089111 3.33042969 14.98687012 3.3125 16.25 C3.29993164 18.19048218 3.29993164 18.19048218 3.28710938 20.17016602 C3.06339757 43.78606259 1.93439497 67.40408594 1 91 C0.67 91 0.34 91 0 91 C-0.03021228 84.45834388 -0.04953473 77.91671258 -0.0625 71.375 C-0.064776 70.39180786 -0.067052 69.40861572 -0.06939697 68.39562988 C-0.08855353 57.55830323 -0.04400708 46.73117035 0.29296875 35.8984375 C0.31961105 35.03209686 0.34625336 34.16575623 0.373703 33.27316284 C0.50392967 29.17646407 0.65151867 25.08113462 0.82006836 20.98583984 C0.87239942 19.50619077 0.92457294 18.02653611 0.9765625 16.546875 C1.02893066 15.27682617 1.08129883 14.00677734 1.13525391 12.69824219 C0.98130388 8.48879267 0.14745265 5.04265861 -1 1 C-9.9928017 -1.37744823 -21.74354084 -0.75455028 -30.2890625 3.0078125 C-37.01354608 5.46893473 -43.65762917 5.05817102 -50.625 4.0625 C-64.85694353 1.66925925 -64.85694353 1.66925925 -78 5 C-78.309375 5.78375 -78.61875 6.5675 -78.9375 7.375 C-80 10 -80 10 -81.82421875 11.7265625 C-84.49319434 14.51533053 -86.13468986 17.59626609 -87.875 21 C-88.39380737 21.9909668 -88.39380737 21.9909668 -88.9230957 23.00195312 C-91.58096848 28.10290868 -94.10283939 33.26844416 -96.6171875 38.44140625 C-97.85183872 40.72585978 -99.1347636 42.47694518 -100.8125 44.4375 C-106.50365249 52.01471654 -104.05334505 65.98181367 -103.6875 74.9375 C-103.65205078 76.11634766 -103.61660156 77.29519531 -103.58007812 78.50976562 C-103.53689453 79.64994141 -103.49371094 80.79011719 -103.44921875 81.96484375 C-103.39254028 83.49032837 -103.39254028 83.49032837 -103.3347168 85.04663086 C-102.96677113 88.29319445 -102.25789489 90.9849857 -101 94 C-95.49144803 97.58696407 -89.14315193 97.77579447 -82.71875 98.47265625 C-79 99 -79 99 -75.328125 100.0703125 C-67.90028848 102.14522458 -60.82699874 99.74206862 -53.62890625 97.6328125 C-49.97209539 96.75256977 -46.74302281 96.78813078 -43 97 C-42.67 97.99 -42.34 98.98 -42 100 C-36.39 100 -30.78 100 -25 100 C-25 100.66 -25 101.32 -25 102 C-30.14646789 103.7154893 -35.21593617 103.56164972 -40.375 101.9375 C-46.44355376 100.36804644 -52.43325232 101.1919498 -58.375 103.0625 C-66.41743424 105.14243989 -74.14126794 104.38568652 -82 102 C-84.12320727 101.84755039 -86.24870837 101.72566739 -88.375 101.625 C-93.9854725 101.24967427 -99.44296998 100.54551534 -104 97 C-106.54467389 92.60691479 -106.44364437 87.8234859 -106.625 82.875 C-106.66149658 82.00133789 -106.69799316 81.12767578 -106.7355957 80.22753906 C-106.9716023 74.0703645 -107.12732306 67.91138186 -107.1875 61.75 C-107.20707764 60.60893799 -107.20707764 60.60893799 -107.22705078 59.44482422 C-107.24009444 51.009307 -105.54845448 45.37737654 -100.66748047 38.47265625 C-96.92388537 32.92139254 -94.026223 26.81797577 -90.94335938 20.8828125 C-87.51248443 14.40822018 -83.80469659 8.54744807 -79 3 C-78.53835449 2.43055664 -78.07670898 1.86111328 -77.60107422 1.27441406 C-75.3880761 -0.48707575 -73.90915669 -0.35831976 -71.10546875 -0.328125 C-69.67170898 -0.32039062 -69.67170898 -0.32039062 -68.20898438 -0.3125 C-67.21189453 -0.291875 -66.21480469 -0.27125 -65.1875 -0.25 C-63.70926758 -0.24226562 -63.70926758 -0.24226562 -62.20117188 -0.234375 C-57.34636357 -0.18220782 -52.78310307 0.12161091 -48 1 C-40.29231335 1.47488117 -33.47544483 1.25057829 -26.15234375 -1.265625 C-18.23002201 -3.96870392 -6.95644825 -5.1997694 0 0 Z " fill="#A3C6D2" transform="translate(113,16)"/>
<path d="M0 0 C5.62269893 5.93507109 5.1826241 11.2668246 5.1875 19 C5.19974609 19.99128906 5.21199219 20.98257813 5.22460938 22.00390625 C5.26604063 43.18908628 5.26604063 43.18908628 -1 50 C-6.08666015 52.81000162 -12.15375785 55.02309238 -18 54 C-19.9375 53 -19.9375 53 -21 51 C-20.93459739 48.2367396 -20.49372856 45.73794927 -20 43 C-16.32612505 42.14701624 -12.9552607 41.89210529 -9.1875 41.9375 C-8.21167969 41.94652344 -7.23585938 41.95554688 -6.23046875 41.96484375 C-5.49441406 41.97644531 -4.75835938 41.98804688 -4 42 C-3.90912109 40.09541016 -3.90912109 40.09541016 -3.81640625 38.15234375 C-3.31298259 27.75973463 -2.73908748 17.37867519 -2 7 C-5.9582486 8.3194162 -8.40130273 9.70649314 -11 13 C-12.03107786 15.56240912 -12.90350666 17.99320243 -13.6875 20.625 C-15.96074121 27.92148241 -15.96074121 27.92148241 -17 30 C-17.66 30 -18.32 30 -19 30 C-21.99986761 24.00026478 -19.7850632 16.13422189 -18.046875 10.03125 C-16.75039142 7.51568484 -15.54328733 7.09800557 -13 6 C-12.71125 5.360625 -12.4225 4.72125 -12.125 4.0625 C-9.62037944 -0.52930437 -4.6862081 -1.97314025 0 0 Z " fill="#88A29E" transform="translate(36,57)"/>
<path d="M0 0 C2.04970205 1.6025299 2.90832239 2.47418858 3.36076355 5.06913757 C3.35410172 5.8618959 3.34743988 6.65465424 3.34057617 7.47143555 C3.34034958 8.37214279 3.34012299 9.27285004 3.33988953 10.20085144 C3.32440567 11.16968765 3.30892181 12.13852386 3.29296875 13.13671875 C3.28872391 14.13129593 3.28447906 15.12587311 3.28010559 16.15058899 C3.26330153 19.32983375 3.22564576 22.50844656 3.1875 25.6875 C3.17245541 27.84178773 3.15876662 29.99608538 3.14648438 32.15039062 C3.11339244 37.43380967 3.06317592 42.71685969 3 48 C2.67 48 2.34 48 2 48 C1.98160568 47.45320587 1.96321136 46.90641174 1.94425964 46.3430481 C1.75039986 40.66497287 1.5363032 34.98792011 1.31030273 29.31103516 C1.22857978 27.19078741 1.1520633 25.07033245 1.08081055 22.94970703 C0.97764213 19.90588299 0.85592329 16.86328915 0.73046875 13.8203125 C0.70220505 12.86818878 0.67394135 11.91606506 0.64482117 10.93508911 C0.60500626 10.05432709 0.56519135 9.17356506 0.52416992 8.26611328 C0.49530197 7.48889923 0.46643402 6.71168518 0.43669128 5.91091919 C0.13795351 3.59539578 0.13795351 3.59539578 -3 2 C-6.12234571 2.50360415 -8.96361869 3.16088608 -12 4 C-13.09054688 4.27070313 -14.18109375 4.54140625 -15.3046875 4.8203125 C-22.05359442 6.64144611 -26.34912972 7.87175346 -30 14 C-31.16089524 16.87922826 -31.16089524 16.87922826 -30.875 19.5625 C-30.91625 20.366875 -30.9575 21.17125 -31 22 C-34 24 -34 24 -36.6875 23.625 C-37.450625 23.41875 -38.21375 23.2125 -39 23 C-39.50813086 20.4593457 -40.00846049 17.94077654 -40.375 15.375 C-41.12625954 12.52021376 -41.67884481 11.80850742 -44 10 C-48.90753537 8.25936764 -53.9185389 7.12036394 -59 6 C-59.83144531 5.80019531 -60.66289063 5.60039062 -61.51953125 5.39453125 C-63.77261922 4.96312192 -63.77261922 4.96312192 -67 6 C-69.09384179 8.25878337 -70.66377994 10.60161954 -72.28125 13.22265625 C-73.88352505 15.81178708 -75.6121668 18.04400966 -77.5625 20.375 C-81.5986652 25.46129868 -84.2878449 31.12863126 -87 37 C-86.01 37.33 -85.02 37.66 -84 38 C-85.49739583 39.30208333 -86.99479167 40.60416667 -88.4921875 41.90625 C-93.23059972 48.48601412 -92.17824761 57.12557181 -92 64.8125 C-91.94904878 67.04798476 -91.90695955 69.28369433 -91.875 71.51953125 C-91.85179687 72.50026611 -91.82859375 73.48100098 -91.8046875 74.49145508 C-92 77 -92 77 -94 80 C-95.65 79.67 -97.3 79.34 -99 79 C-99.22753655 75.14671804 -99.42856775 71.29248285 -99.625 67.4375 C-99.68945312 66.35146484 -99.75390625 65.26542969 -99.8203125 64.14648438 C-100.28487762 54.59386414 -98.89152445 48.53651646 -93.0625 41 C-89.59052268 36.47177339 -87.2484528 32.28978106 -85 27 C-83.51690895 24.61594046 -81.86758138 22.37321874 -80.1875 20.125 C-76.70871681 15.41515636 -73.48262964 10.70937336 -70.64453125 5.57421875 C-67.99874184 3.04155098 -65.59252812 3.17817194 -62 3 C-59.10373341 3.23127646 -56.29016936 3.70735889 -53.4375 4.25 C-52.70853516 4.37246094 -51.97957031 4.49492187 -51.22851562 4.62109375 C-46.68471167 5.44723992 -43.11570304 6.83163976 -39 9 C-34.79388012 9.52576498 -32.80555861 9.54662905 -29.265625 7.14453125 C-25.66072602 4.77719926 -22.34404523 3.4926689 -18.25 2.25 C-17.54915283 2.03537109 -16.84830566 1.82074219 -16.1262207 1.59960938 C-10.89776802 0.08394151 -5.41312467 -1.32296326 0 0 Z " fill="#9E803D" transform="translate(108,21)"/>
<path d="M0 0 C6.75534238 7.17755128 4.01382188 22.16405871 3.80078125 31.44140625 C3.78279165 32.27267469 3.76480206 33.10394314 3.74626732 33.96040154 C3.6511054 38.3529297 3.54893184 42.74522688 3.44067383 47.13745117 C3.33062812 51.65492422 3.2439371 56.17252956 3.16264057 60.69059849 C3.09559686 64.18521879 3.01149408 67.6792823 2.92281151 71.17341423 C2.88344505 72.83852433 2.85036175 74.50379604 2.82387733 76.16916084 C2.51981442 94.48018558 2.51981442 94.48018558 -4.4375 101.4375 C-8.91439241 103.4010493 -12.82890194 103.49768367 -17.67578125 103.71875 C-21.65428724 104.05535685 -25.07268686 105.11273203 -28.84375 106.35546875 C-31.6920962 107.20687658 -34.0575022 107.43060943 -37 107 C-37.99 106.01 -38.98 105.02 -40 104 C-35.38 104 -30.76 104 -26 104 C-26 103.34 -26 102.68 -26 102 C-24.75863281 101.81824219 -23.51726562 101.63648437 -22.23828125 101.44921875 C-20.59626661 101.19587935 -18.95434422 100.94194155 -17.3125 100.6875 C-16.08756836 100.51057617 -16.08756836 100.51057617 -14.83789062 100.33007812 C-10.30193712 99.61387494 -6.72107037 98.88151721 -3 96 C-0.85231851 92.77847776 -0.71914952 91.74596849 -0.58935547 88.01074219 C-0.54949524 86.98887314 -0.50963501 85.96700409 -0.46856689 84.91416931 C-0.43511169 83.80296219 -0.40165649 82.69175507 -0.3671875 81.546875 C-0.32535339 80.39059097 -0.28351929 79.23430695 -0.24041748 78.04298401 C-0.10783934 74.27893193 0.00978174 70.51462094 0.125 66.75 C0.16602844 65.47990082 0.20705688 64.20980164 0.24932861 62.9012146 C0.52786467 54.26817087 0.77385403 45.63456355 1 37 C1.02618408 36.03330383 1.05236816 35.06660767 1.0793457 34.07061768 C1.21902765 28.81778457 1.3166472 23.5668742 1.375 18.3125 C1.41391357 16.4857373 1.41391357 16.4857373 1.45361328 14.62207031 C1.49645837 8.42146655 1.49645837 8.42146655 -0.8359375 2.79296875 C-5.73428615 -1.26541037 -11.97467026 -0.39065325 -18 0 C-26.76956853 1.1312528 -26.76956853 1.1312528 -35 4 C-37.24825087 4.09800068 -39.49961924 4.12974764 -41.75 4.125 C-42.96171875 4.12757812 -44.1734375 4.13015625 -45.421875 4.1328125 C-49 4 -49 4 -51.76953125 3.52734375 C-56.48817977 2.7570686 -61.1633707 2.5742672 -65.9375 2.4375 C-66.90107422 2.37498047 -67.86464844 2.31246094 -68.85742188 2.24804688 C-72.84159388 2.15817833 -75.78599398 2.11293506 -79.0769043 4.51757812 C-83.17164292 9.00368896 -86.12506183 14.27187946 -88.9375 19.625 C-89.79226815 21.20610812 -90.647746 22.78683276 -91.50390625 24.3671875 C-91.92172363 25.14545898 -92.33954102 25.92373047 -92.77001953 26.72558594 C-94.59160999 30.09397354 -96.47550426 33.42508777 -98.375 36.75 C-98.98085937 37.81734375 -99.58671875 38.8846875 -100.2109375 39.984375 C-102 43 -102 43 -104.1640625 46.015625 C-107.60102069 51.60251022 -107.13761103 57.75303485 -107.09765625 64.1171875 C-107.0962413 64.97434357 -107.09482635 65.83149963 -107.09336853 66.71463013 C-107.08780022 69.4347899 -107.07525364 72.15486538 -107.0625 74.875 C-107.0574809 76.72656131 -107.05291871 78.57812391 -107.04882812 80.4296875 C-107.03784117 84.95315715 -107.02059852 89.47656432 -107 94 C-107.33 94 -107.66 94 -108 94 C-112.15464923 51.60821334 -112.15464923 51.60821334 -102.80078125 38.703125 C-100.43356276 35.14972978 -98.52002153 31.41540221 -96.5625 27.625 C-83.99766286 3.49883143 -83.99766286 3.49883143 -77 0 C-73.13036534 -0.24405688 -69.25146034 -0.18521165 -65.375 -0.1875 C-63.77205078 -0.20586914 -63.77205078 -0.20586914 -62.13671875 -0.22460938 C-56.0158924 -0.23590241 -50.88270139 0.37245262 -45 2 C-42.52886439 2.11299359 -42.52886439 2.11299359 -40.375 1.75 C-39.68148437 1.66234375 -38.98796875 1.5746875 -38.2734375 1.484375 C-35.87188055 1.01914898 -35.87188055 1.01914898 -33.125 0.0234375 C-22.63947403 -3.41057226 -10.16575246 -5.1139325 0 0 Z " fill="#DDE4E8" transform="translate(114,14)"/>
<path d="M0 0 C7.00019365 0.96554395 10.78683119 3.53106987 15.625 8.5 C17.79846568 9.36119134 17.79846568 9.36119134 19.625 9.5 C19.728125 8.736875 19.83125 7.97375 19.9375 7.1875 C20.68624739 4.26057838 21.14192929 3.18494084 23.625 1.5 C26.3125 1.3125 26.3125 1.3125 28.625 1.5 C29.12 2.49 29.12 2.49 29.625 3.5 C28.34437515 5.2074998 27.00732443 6.87373596 25.625 8.5 C24.965 8.5 24.305 8.5 23.625 8.5 C23.43164062 9.31984375 23.23828125 10.1396875 23.0390625 10.984375 C22.77867188 12.06203125 22.51828125 13.1396875 22.25 14.25 C21.86714844 15.85101563 21.86714844 15.85101563 21.4765625 17.484375 C20.74966459 20.05852722 19.9223776 22.17600186 18.625 24.5 C16.975 24.5 15.325 24.5 13.625 24.5 C13.38716797 23.6646875 13.38716797 23.6646875 13.14453125 22.8125 C11.15069559 16.29122535 8.50193971 10.37693971 3.625 5.5 C1.07786596 5.50922702 1.07786596 5.50922702 -1.375 6.5 C-5.66486963 12.67036043 -3.79876082 23.02451479 -2.6875 30.0625 C-1.67401379 34.5529097 0.04400488 36.67289859 3.625 39.5 C1.25 40.125 1.25 40.125 -1.375 40.5 C-3.63193432 38.24306568 -4.24792007 36.45858483 -5.375 33.5 C-5.71273437 32.86449219 -6.05046875 32.22898437 -6.3984375 31.57421875 C-8.057642 28.0500684 -8.14302786 24.33281233 -8.375 20.5 C-8.45234375 19.26378906 -8.5296875 18.02757812 -8.609375 16.75390625 C-8.6599058 15.41940425 -8.70677027 14.08475846 -8.75 12.75 C-8.79898438 11.49703125 -8.84796875 10.2440625 -8.8984375 8.953125 C-8.07632994 3.52966913 -5.4167393 0.8024799 0 0 Z " fill="#ABCBD4" transform="translate(60.375,59.5)"/>
<path d="M0 0 C1.8125 1.375 1.8125 1.375 3 3 C3 3.66 3 4.32 3 5 C0.39412081 6.30293959 -2.05896107 6.55339032 -4.9375 7 C-8.10415681 7.49250556 -10.95688842 7.98562947 -14 9 C-17.99801063 15.77075719 -17.46215136 24.11647865 -17.375 31.6875 C-17.36629883 32.92741699 -17.35759766 34.16733398 -17.34863281 35.44482422 C-17.33146552 48.01871975 -17.33146552 48.01871975 -14 60 C-12.00110024 61.37672677 -12.00110024 61.37672677 -10 62 C-10 63.32 -10 64.64 -10 66 C-13.06915554 68.63070475 -15.15051324 69.90006038 -19.1875 70.375 C-22 70 -22 70 -25 68 C-24.58054965 65.48329792 -24.17555668 63.34014107 -23 61.0625 C-20.1624224 55.20999621 -20.93155686 48.38619023 -21.04296875 42.0546875 C-21.06534304 39.90495699 -21.08679995 37.75521678 -21.10742188 35.60546875 C-21.14460923 32.23003886 -21.18784766 28.85510453 -21.24682617 25.47998047 C-21.30120224 22.21314202 -21.33037099 18.94686451 -21.35546875 15.6796875 C-21.37925095 14.66921356 -21.40303314 13.65873962 -21.42753601 12.61764526 C-21.45372861 5.63262766 -21.45372861 5.63262766 -19.1027832 2.35473633 C-16.76938349 0.85142331 -15.73183899 0.58306821 -13 0.8125 C-8.50804997 1.05328845 -4.4735634 -0.45882702 0 0 Z " fill="#E27F12" transform="translate(64,44)"/>
<path d="M0 0 C3.63128169 3.31551806 4.11819771 6.2111389 4.34472656 11.00292969 C4.39437561 12.02118835 4.44402466 13.03944702 4.49517822 14.08856201 C4.54317566 15.1885553 4.5911731 16.28854858 4.640625 17.421875 C4.69071716 18.55522278 4.74080933 19.68857056 4.79241943 20.85626221 C4.89581278 23.2569278 4.99650863 25.65771085 5.09472656 28.05859375 C5.24882998 31.72218442 5.42504125 35.38430566 5.6015625 39.046875 C5.6992949 41.38015101 5.79569239 43.7134834 5.890625 46.046875 C5.94671936 47.13877136 6.00281372 48.23066772 6.06060791 49.35565186 C6.27913641 55.43749381 5.98448735 59.6457517 3 65 C2 66 2 66 -0.5625 66.0625 C-1.366875 66.041875 -2.17125 66.02125 -3 66 C-2.53330347 62.91980287 -1.7952703 60.54788858 -0.5 57.6875 C3.74545127 47.25076563 4.83168248 28.62976727 0.765625 18.05859375 C-1.42034858 13.99506365 -3.14484951 11.57010033 -7 9 C-10.23535196 8.90169857 -10.23535196 8.90169857 -13.8125 9.25 C-15.01519531 9.33765625 -16.21789062 9.4253125 -17.45703125 9.515625 C-21.96026668 10.13128232 -25.72649706 10.72649706 -29 14 C-30.32 12.02 -31.64 10.04 -33 8 C-30.16363401 6.10908934 -28.79086771 5.6097423 -25.5625 5 C-23.09706299 4.53277674 -21.23981415 4.13848422 -19.05859375 2.87890625 C-16.22007469 1.66701481 -14.47446864 2.24699835 -11.5 2.9375 C-7.92590309 3.75738212 -5.50694989 4.19931069 -2 3 C-2 2.34 -2 1.68 -2 1 C-1.34 0.67 -0.68 0.34 0 0 Z " fill="#E27F12" transform="translate(104,42)"/>
<path d="M0 0 C2.45541654 1.96433323 4.67479976 3.94786128 6.8125 6.25 C7.25980469 5.82847656 7.70710938 5.40695313 8.16796875 4.97265625 C14.23025619 -0.52088781 14.23025619 -0.52088781 18.8125 -0.75 C19.9675 -0.8325 21.1225 -0.915 22.3125 -1 C26.25824518 -0.71816106 27.82963206 -0.32977768 30.8125 2.25 C33.87479363 6.78339548 35.3675944 10.69905604 34.8125 16.25 C34.544375 15.6725 34.27625 15.095 34 14.5 C32.86196754 12.19252104 32.86196754 12.19252104 31.1875 10.125 C29.8125 8.25 29.8125 8.25 29.8125 6.25 C24.6019147 5.15303467 19.10427204 4.3743153 13.8125 5.25 C11.93198415 7.60589996 11.93198415 7.60589996 10.8125 10.25 C8.4375 11.375 8.4375 11.375 5.8125 11.25 C3 8.9375 3 8.9375 0.8125 6.25 C0.8125 5.59 0.8125 4.93 0.8125 4.25 C-4.31402131 2.01536251 -8.88757846 1.42013478 -14.1875 3.25 C-18.48357717 7.57387001 -19.78298148 12.46445004 -19.7800293 18.40600586 C-19.73422729 19.65909546 -19.73422729 19.65909546 -19.6875 20.9375 C-19.67050049 21.81092041 -19.65350098 22.68434082 -19.63598633 23.58422852 C-19.35019857 32.47312856 -18.5385342 41.83989801 -13.1875 49.25 C-10.13619622 51.39104088 -7.60537472 51.47152302 -3.9375 51.375 C-2.59945312 51.34792969 -2.59945312 51.34792969 -1.234375 51.3203125 C-0.55890625 51.29710937 0.1165625 51.27390625 0.8125 51.25 C-0.88200147 53.30123862 -2.05313148 54.20229261 -4.5859375 55.1015625 C-9.37146595 55.37461067 -12.64233725 52.18487361 -16.1875 49.25 C-22.38963196 41.64738663 -21.55321872 30.93629889 -21.5625 21.6875 C-21.58699219 20.39908203 -21.61148438 19.11066406 -21.63671875 17.78320312 C-21.67388687 5.77170691 -21.67388687 5.77170691 -17.1875 0.25 C-11.38236063 -2.26921142 -5.65546518 -3.10496128 0 0 Z " fill="#9F8241" transform="translate(69.1875,52.75)"/>
<path d="M0 0 C0.98484375 0.00902344 1.9696875 0.01804687 2.984375 0.02734375 C4.10585937 0.04474609 4.10585937 0.04474609 5.25 0.0625 C5.25 0.3925 5.25 0.7225 5.25 1.0625 C4.48558594 1.14886719 3.72117187 1.23523438 2.93359375 1.32421875 C-7.26190013 2.66153383 -18.44372688 4.69131468 -26.75 11.0625 C-30.62053521 11.49255947 -32.97574424 11.4681159 -36.44921875 9.6484375 C-40.34815326 7.77510328 -43.95013868 7.02434673 -48.1875 6.3125 C-48.91259766 6.17457031 -49.63769531 6.03664063 -50.38476562 5.89453125 C-55.04850717 5.08162392 -59.11561695 4.75290576 -63.75 6.0625 C-65.99903346 8.30458362 -65.99903346 8.30458362 -67.625 11.3125 C-68.28628906 12.39402344 -68.94757813 13.47554687 -69.62890625 14.58984375 C-70.14155029 15.44425049 -70.14155029 15.44425049 -70.66455078 16.31591797 C-72.49582283 19.26259369 -74.54116318 22.05687753 -76.5625 24.875 C-78.84954677 28.06876974 -80.69107752 30.9230866 -82.22265625 34.546875 C-83.86558432 38.32855087 -85.87072737 41.23302545 -88.375 44.5 C-89.17164062 45.55058594 -89.96828125 46.60117188 -90.7890625 47.68359375 C-91.43617187 48.46863281 -92.08328125 49.25367188 -92.75 50.0625 C-93.08 50.0625 -93.41 50.0625 -93.75 50.0625 C-94.03543118 45.54101066 -93.65841887 43.27716116 -91 39.625 C-86.3466705 32.7734719 -82.7205723 25.43263485 -79.01464844 18.03540039 C-78.52125977 17.06594482 -78.02787109 16.09648926 -77.51953125 15.09765625 C-76.86368042 13.78873413 -76.86368042 13.78873413 -76.19458008 12.45336914 C-74.65761268 9.90959328 -72.92772009 8.07142714 -70.75 6.0625 C-72.18164111 9.72188172 -73.73934296 13.30238068 -75.375 16.875 C-75.82101563 17.85082031 -76.26703125 18.82664062 -76.7265625 19.83203125 C-77.06429687 20.56808594 -77.40203125 21.30414063 -77.75 22.0625 C-77.09 22.0625 -76.43 22.0625 -75.75 22.0625 C-75.5128125 21.20269531 -75.275625 20.34289062 -75.03125 19.45703125 C-73.59533668 15.6527365 -71.72087699 12.97096465 -69.25 9.75 C-68.4559375 8.70199219 -67.661875 7.65398438 -66.84375 6.57421875 C-64.75 4.0625 -64.75 4.0625 -62.75 3.0625 C-41.93110236 3.47194882 -41.93110236 3.47194882 -34.75 7.0625 C-28.74004494 7.54729791 -24.11869654 6.12669653 -18.5625 4.125 C-16.98608177 3.57306153 -15.40927177 3.02224048 -13.83203125 2.47265625 C-13.14343018 2.22652588 -12.4548291 1.98039551 -11.74536133 1.72680664 C-7.69844944 0.37948653 -4.2804389 -0.05095761 0 0 Z " fill="#7A8468" transform="translate(102.75,19.9375)"/>
<path d="M0 0 C0.33 0 0.66 0 1 0 C1.01981934 1.08941895 1.03963867 2.17883789 1.06005859 3.30126953 C1.13639058 7.36057833 1.22506461 11.41954153 1.31738281 15.47851562 C1.35555888 17.23202671 1.39043124 18.98561308 1.421875 20.73925781 C1.46777359 23.26654886 1.5257257 25.79332678 1.5859375 28.3203125 C1.60326431 29.48785568 1.60326431 29.48785568 1.62094116 30.6789856 C1.74002507 35.11587228 2.16628061 38.87863923 4 43 C9.50855197 46.58696407 15.85684807 46.77579447 22.28125 47.47265625 C26 48 26 48 29.671875 49.0703125 C37.09971152 51.14522458 44.17300126 48.74206862 51.37109375 46.6328125 C55.02790461 45.75256977 58.25697719 45.78813078 62 46 C62.33 46.99 62.66 47.98 63 49 C68.61 49 74.22 49 80 49 C80 49.66 80 50.32 80 51 C74.85353211 52.7154893 69.78406383 52.56164972 64.625 50.9375 C58.55644624 49.36804644 52.56674768 50.1919498 46.625 52.0625 C38.58256576 54.14243989 30.85873206 53.38568652 23 51 C20.87679273 50.84755039 18.75129163 50.72566739 16.625 50.625 C11.17883906 50.2539567 5.25035109 49.76548094 1 46 C-0.47459289 40.74418848 -0.33588064 34.99996578 -0.5625 29.5625 C-0.6042334 28.59272217 -0.6459668 27.62294434 -0.68896484 26.6237793 C-1.57627946 4.72883839 -1.57627946 4.72883839 0 0 Z " fill="#9EBEC5" transform="translate(8,67)"/>
<path d="M0 0 C-0.10995451 3.9172412 -0.24056734 7.83352845 -0.375 11.75 C-0.4059375 12.86117187 -0.436875 13.97234375 -0.46875 15.1171875 C-0.52675781 16.72207031 -0.52675781 16.72207031 -0.5859375 18.359375 C-0.6173584 19.34389648 -0.6487793 20.32841797 -0.68115234 21.34277344 C-1.0045711 24.03809487 -1.54796097 25.72185704 -3 28 C-4.8125 28.9375 -4.8125 28.9375 -7 29 C-11.63076923 26.73846154 -11.63076923 26.73846154 -13 24 C-12.87181758 18.98116511 -12.00520089 14.60016674 -10 10 C-9.6740123 8.62813511 -9.36255848 7.25276854 -9.0625 5.875 C-8.48277105 3.51594914 -8.00355885 2.00559248 -6.6875 -0.0625 C-4.25677179 -1.41290456 -2.62901419 -0.61329369 0 0 Z " fill="#DD7F14" transform="translate(33,69)"/>
<path d="M0 0 C1.0828125 0.37125 1.0828125 0.37125 2.1875 0.75 C2.26865993 3.81303578 2.32807409 6.87390815 2.375 9.9375 C2.40013672 10.80181641 2.42527344 11.66613281 2.45117188 12.55664062 C2.50730951 17.44061497 2.43795095 20.81149739 -0.8125 24.75 C-2.6875 25.6875 -2.6875 25.6875 -4.8125 25.75 C-7.5625 24.8125 -7.5625 24.8125 -9.8125 23.75 C-11.54620748 16.97277986 -10.3651501 10.21615008 -7.8125 3.75 C-3.96446478 -0.35239687 -3.96446478 -0.35239687 0 0 Z " fill="#D98017" transform="translate(92.8125,67.25)"/>
<path d="M0 0 C0 0.66 0 1.32 0 2 C-0.61875 2.53625 -1.2375 3.0725 -1.875 3.625 C-7.29753432 9.68547953 -6.22890604 18.3697987 -6 26 C-5.34 26 -4.68 26 -4 26 C-3.81824219 25.28714844 -3.63648438 24.57429688 -3.44921875 23.83984375 C0.68653238 8.0815715 0.68653238 8.0815715 7 3 C8.32 3 9.64 3 11 3 C12.32129161 9.67728631 11.74737629 15.94094591 11.25 22.6875 C11.17523438 23.92306641 11.10046875 25.15863281 11.0234375 26.43164062 C10.93835938 27.61306641 10.85328125 28.79449219 10.765625 30.01171875 C10.69118164 31.08897217 10.61673828 32.16622559 10.54003906 33.27612305 C9.94890431 36.25771908 9.4914059 37.29888853 7 39 C4.35003674 39.2172101 1.94923442 39.28351554 -0.6875 39.1875 C-1.38939453 39.17396484 -2.09128906 39.16042969 -2.81445312 39.14648438 C-4.54329829 39.11120182 -6.27174765 39.05739583 -8 39 C-8.08789715 34.68763079 -8.1406923 30.3754955 -8.1875 26.0625 C-8.21263672 24.85013672 -8.23777344 23.63777344 -8.26367188 22.38867188 C-8.38894148 6.98051054 -8.38894148 6.98051054 -3.52026367 1.26196289 C-2 0 -2 0 0 0 Z M5 7 C1.36126321 10.76002802 0.35948851 13.88289689 -0.5625 18.86328125 C-1 21 -1 21 -2.125 23.6875 C-3.24656474 26.65163538 -3.33467022 28.85409989 -3 32 C-1.50192413 34.91730564 -0.57760759 35.78339715 2.5 36.9375 C5.03103197 37.25918985 5.03103197 37.25918985 6.75 35.6875 C9.05789235 32.57184533 9.17507858 30.39072432 9.31640625 26.5546875 C9.35830078 25.47832031 9.40019531 24.40195313 9.44335938 23.29296875 C9.50233398 21.60107422 9.50233398 21.60107422 9.5625 19.875 C9.60568359 18.73933594 9.64886719 17.60367188 9.69335938 16.43359375 C9.7996604 13.62252232 9.90169405 10.81136055 10 8 C8.35 7.67 6.7 7.34 5 7 Z " fill="#9F9060" transform="translate(23,61)"/>
<path d="M0 0 C0.66 0.33 1.32 0.66 2 1 C3.03883018 6.06157684 3.10207202 11.02527003 2.97753906 16.16674805 C2.96299683 16.95138428 2.94845459 17.73602051 2.93347168 18.54443359 C2.8838325 21.11703575 2.82539331 23.68933322 2.765625 26.26171875 C2.72645172 28.05816962 2.68737029 29.8546225 2.64837646 31.65107727 C2.56516872 35.40592613 2.47687467 39.16061883 2.38574219 42.9152832 C2.26993164 47.72692619 2.17295547 52.53875318 2.08050919 57.35089397 C2.00621347 61.05629038 1.91889125 64.7612967 1.82793427 68.46631813 C1.78652907 70.24082867 1.74990187 72.01545739 1.71814728 73.79016685 C1.67247716 76.26780704 1.6085362 78.74433581 1.54003906 81.22143555 C1.53055237 81.95346695 1.52106567 82.68549835 1.5112915 83.43971252 C1.37533783 87.54870443 0.89973334 90.00614573 -2 93 C-2.66 92.67 -3.32 92.34 -4 92 C-3.01 91.01 -3.01 91.01 -2 90 C-1.80148152 87.30538957 -1.72727118 84.7135527 -1.74121094 82.01782227 C-1.7377063 81.19329559 -1.73420166 80.36876892 -1.73059082 79.51925659 C-1.72176521 76.7848883 -1.72762608 74.05077732 -1.734375 71.31640625 C-1.73302846 69.42073008 -1.73108802 67.52505425 -1.72857666 65.62937927 C-1.72562417 61.65221882 -1.72992658 57.67514809 -1.73925781 53.69799805 C-1.75064465 48.595473 -1.74409853 43.49315851 -1.73211288 38.39064121 C-1.72489104 34.47448638 -1.72718385 30.55838159 -1.73236847 26.64222527 C-1.73370447 24.76072095 -1.73205898 22.87921213 -1.72740936 20.99771309 C-1.72233969 18.36887686 -1.73006091 15.74038296 -1.74121094 13.11157227 C-1.73716248 12.33068741 -1.73311401 11.54980255 -1.72894287 10.74525452 C-1.75876217 6.95713844 -1.84586707 5.23119939 -4 2 C-2.02 2.99 -2.02 2.99 0 4 C0 2.68 0 1.36 0 0 Z " fill="#919980" transform="translate(112,19)"/>
<path d="M0 0 C16.17 0 32.34 0 49 0 C48.67 0.66 48.34 1.32 48 2 C38.69529783 5.10156739 27.92219173 5.18650188 18.1875 5.1875 C17.05042603 5.18858765 17.05042603 5.18858765 15.89038086 5.18969727 C12.42946932 5.15488082 9.33278683 4.90824214 6 4 C3.99053778 4.27050453 1.98645776 4.59367909 0 5 C0 3.35 0 1.7 0 0 Z " fill="#DCE3E7" transform="translate(0,0)"/>
<path d="M0 0 C0.33 0 0.66 0 1 0 C1.12487892 3.96500171 1.21492849 7.92922091 1.2746582 11.89575195 C1.31176249 13.89770801 1.37534137 15.89911742 1.43945312 17.90039062 C1.53889999 25.79647198 1.05845219 31.70422857 -4 38 C-7.79433748 41.45706303 -10.80717575 42.63635882 -16 42.41015625 C-18.21930072 41.95502622 -19.55913549 41.18539494 -21.4375 39.9375 C-25.12797675 37.49702344 -27.86320183 37.97910123 -32.08203125 38.8359375 C-32.71496094 38.89007813 -33.34789063 38.94421875 -34 39 C-34.66 38.34 -35.32 37.68 -36 37 C-31.50241928 33.62681446 -28.43948065 33.48195422 -23 34 C-22.37222656 34.49242187 -21.74445313 34.98484375 -21.09765625 35.4921875 C-17.21155716 38.28554737 -12.56999052 37.70949624 -8 37 C-3.96369514 34.0466062 -3.18624237 30.03549317 -2.3671875 25.30078125 C-1.78336463 20.05258632 -1.54063202 14.78884068 -1.34106445 9.51318359 C-1.30972412 8.71605957 -1.27838379 7.91893555 -1.24609375 7.09765625 C-1.22216553 6.38101807 -1.1982373 5.66437988 -1.17358398 4.92602539 C-1 3 -1 3 0 0 Z " fill="#9E803E" transform="translate(104,66)"/>
<path d="M0 0 C3.0625 2.5625 3.0625 2.5625 5 5 C4.67 5.66 4.34 6.32 4 7 C2.989375 6.505 1.97875 6.01 0.9375 5.5 C-2.8528542 3.89962823 -5.85980829 3.46330848 -10 4 C-13.00979883 5.34115399 -13.00979883 5.34115399 -15 8 C-17.101344 19.06870735 -16.51516321 34.5100292 -10.7734375 44.41015625 C-7.67202552 47.19049695 -4.25433923 47.1221814 -0.23046875 47.1328125 C0.50558594 47.08898437 1.24164063 47.04515625 2 47 C-0.05793625 49.28861937 -0.6548512 49.94631019 -3.8125 50.4375 C-8.0755664 49.85237324 -9.83090248 48.96241725 -13 46 C-17.24969864 37.35220054 -18.21980378 28.62018712 -18.375 19.125 C-18.41238281 18.26519531 -18.44976562 17.40539062 -18.48828125 16.51953125 C-18.5735268 10.27766237 -17.31941959 5.6663494 -13 1 C-8.61068263 -1.60851162 -4.84801334 -1.38021732 0 0 Z " fill="#6A99AD" transform="translate(67,55)"/>
<path d="M0 0 C3.11496916 4.67245375 2.32850857 9.50585754 2.3125 15 C2.32861328 16.10601562 2.34472656 17.21203125 2.36132812 18.3515625 C2.36197266 19.41117188 2.36261719 20.47078125 2.36328125 21.5625 C2.36626221 22.53316406 2.36924316 23.50382812 2.37231445 24.50390625 C1.9403101 27.40017675 1.3179563 28.27245988 -1 30 C-6.2663407 31.49463765 -10.98694606 31.25587427 -16 29 C-17 28 -17 28 -17.0625 25.4375 C-17.041875 24.633125 -17.02125 23.82875 -17 23 C-13.25 21.875 -13.25 21.875 -11 23 C-7.54213985 23.50007794 -7.54213985 23.50007794 -4 23 C-0.30199895 18.72579878 -0.46101716 14.06382118 -0.3125 8.6875 C-0.27833984 7.85154297 -0.24417969 7.01558594 -0.20898438 6.15429688 C-0.12694539 4.10332228 -0.0617849 2.05168462 0 0 Z " fill="#ADCCD4" transform="translate(97,72)"/>
<path d="M0 0 C2.8992226 0.46761655 3.86675182 0.86675182 6 3 C7.84143808 8.39215361 9.57359583 14.31461108 10 20 C9.34 20.99 8.68 21.98 8 23 C5 23.375 5 23.375 2 23 C-2.07896434 16.88155348 -1.22732745 8.16081474 -1 1 C-0.67 0.67 -0.34 0.34 0 0 Z " fill="#DC7F15" transform="translate(61,68)"/>
<path d="M0 0 C0.33 0 0.66 0 1 0 C1.31123517 9.18143754 1.31123517 9.18143754 -1 13 C-2.78443024 14.65255549 -4.61530994 16.18000503 -6.5390625 17.66796875 C-7.02117188 18.10753906 -7.50328125 18.54710938 -8 19 C-8 19.66 -8 20.32 -8 21 C-7.34 21.66 -6.68 22.32 -6 23 C-22.70784056 22.56489999 -22.70784056 22.56489999 -29 18 C-31.11832004 14.01755832 -31.2641276 11.29803383 -30 7 C-29.67 7.66 -29.34 8.32 -29 9 C-27.35 8.67 -25.7 8.34 -24 8 C-24.06510417 10.01822917 -24.13020833 12.03645833 -24.1953125 14.0546875 C-24.18331689 16.23863645 -24.18331689 16.23863645 -22 18 C-16.18782992 18.22313633 -9.68742459 17.40068058 -5 14 C-2.8833028 9.44426593 -1.38247961 4.82275146 0 0 Z " fill="#7A8467" transform="translate(40,92)"/>
<path d="M0 0 C0.33 0 0.66 0 1 0 C1 2.64 1 5.28 1 8 C1.99 8 2.98 8 4 8 C4.66 7.34 5.32 6.68 6 6 C6.22573595 9.60329889 6.42759125 13.20754699 6.625 16.8125 C6.68945312 17.83666016 6.75390625 18.86082031 6.8203125 19.91601562 C6.871875 20.89892578 6.9234375 21.88183594 6.9765625 22.89453125 C7.02893066 23.80050049 7.08129883 24.70646973 7.13525391 25.63989258 C7 28 7 28 5 31 C3.35 30.67 1.7 30.34 0 30 C-0.1979005 26.12545823 -0.3814709 22.2503638 -0.5625 18.375 C-0.64661133 16.73337891 -0.64661133 16.73337891 -0.73242188 15.05859375 C-0.78076172 13.99511719 -0.82910156 12.93164062 -0.87890625 11.8359375 C-0.9260376 10.86188965 -0.97316895 9.8878418 -1.02172852 8.88427734 C-0.99868166 5.82500193 -0.57784025 3.0000999 0 0 Z " fill="#9F8342" transform="translate(9,70)"/>
<path d="M0 0 C2.6875 0.875 2.6875 0.875 5 2 C5.08732726 5.89569135 5.14050185 9.79112982 5.1875 13.6875 C5.21263672 14.79029297 5.23777344 15.89308594 5.26367188 17.02929688 C5.27333984 18.09599609 5.28300781 19.16269531 5.29296875 20.26171875 C5.3086792 21.24100342 5.32438965 22.22028809 5.34057617 23.22924805 C4.93842298 26.50095885 3.9379993 28.35626374 2 31 C-0.1875 32.0625 -0.1875 32.0625 -3 32 C-10.38139535 29.2372093 -10.38139535 29.2372093 -12 26 C-12.7688662 18.92643096 -10.83918598 11.04104998 -6.7265625 5.1875 C-4.69380595 3.11778424 -2.4114622 1.60764147 0 0 Z M-3.6953125 5.54296875 C-8.02715927 10.16115793 -9.06830026 17.17518541 -8.95703125 23.40625 C-8.70229379 25.4594288 -8.70229379 25.4594288 -8 28 C-4.71295284 29.28485606 -4.71295284 29.28485606 -1 30 C1.44245747 28.96057155 1.44245747 28.96057155 3 27 C3.94137255 24.17588235 4.11725382 22.47081968 4.09765625 19.55078125 C4.09443359 18.70322266 4.09121094 17.85566406 4.08789062 16.98242188 C4.07951172 16.10134766 4.07113281 15.22027344 4.0625 14.3125 C4.05798828 13.41982422 4.05347656 12.52714844 4.04882812 11.60742188 C4.03704983 9.40488013 4.02060164 7.20247401 4 5 C0.62602337 3.84320801 -0.53738921 3.73517208 -3.6953125 5.54296875 Z " fill="#A19D78" transform="translate(91,63)"/>
<path d="M0 0 C0.33 0 0.66 0 1 0 C1.09969463 4.12582397 1.17185233 8.25117097 1.21972656 12.37792969 C1.2397063 13.77844473 1.2669002 15.17887782 1.30175781 16.57910156 C1.49656661 24.61209945 1.60978091 31.13167926 -3 38 C-7.64194777 42.64194777 -12.45308062 42.43493241 -18.67578125 42.71875 C-22.65428724 43.05535685 -26.07268686 44.11273203 -29.84375 45.35546875 C-32.6920962 46.20687658 -35.0575022 46.43060943 -38 46 C-38.99 45.01 -39.98 44.02 -41 43 C-36.38 43 -31.76 43 -27 43 C-27 42.34 -27 41.68 -27 41 C-25.75863281 40.81824219 -24.51726562 40.63648438 -23.23828125 40.44921875 C-21.59626661 40.19587935 -19.95434422 39.94194155 -18.3125 39.6875 C-17.49587891 39.56955078 -16.67925781 39.45160156 -15.83789062 39.33007812 C-11.30193712 38.61387494 -7.72107037 37.88151721 -4 35 C-1.54648416 31.31972624 -1.70729356 29.35297006 -1.62109375 24.9609375 C-1.60409927 24.27947662 -1.5871048 23.59801575 -1.56959534 22.89590454 C-1.51652176 20.72236341 -1.4761813 18.54884119 -1.4375 16.375 C-1.39360401 14.19411286 -1.34695995 12.01337509 -1.29469299 9.83267212 C-1.24811603 7.85912517 -1.21064324 5.8853697 -1.17358398 3.91162109 C-1 1 -1 1 0 0 Z " fill="#DAE2E7" transform="translate(115,75)"/>
<path d="M0 0 C0.33 0 0.66 0 1 0 C1.01981934 1.08941895 1.03963867 2.17883789 1.06005859 3.30126953 C1.13639058 7.36057833 1.22506461 11.41954153 1.31738281 15.47851562 C1.35555888 17.23202671 1.39043124 18.98561308 1.421875 20.73925781 C1.46777359 23.26654886 1.5257257 25.79332678 1.5859375 28.3203125 C1.60326431 29.48785568 1.60326431 29.48785568 1.62094116 30.6789856 C1.74002507 35.11587228 2.16628061 38.87863923 4 43 C9.50855197 46.58696407 15.85684807 46.77579447 22.28125 47.47265625 C26 48 26 48 29.50390625 49.08203125 C33.41773937 50.10968576 36.42297838 50.00733539 40.4375 49.625 C41.67371094 49.51414063 42.90992188 49.40328125 44.18359375 49.2890625 C45.57771484 49.14597656 45.57771484 49.14597656 47 49 C42.17343101 52.21771266 37.74332553 52.44423512 32 52 C30.1043483 51.51805465 28.20896387 51.03294737 26.328125 50.49609375 C23.40089687 49.87233876 20.55095893 49.76747304 17.5625 49.625 C11.97560672 49.24820952 6.53681417 48.52978677 2 45 C-0.79035963 40.36454914 -0.45431148 34.88193838 -0.625 29.625 C-0.66222168 28.65071045 -0.69944336 27.6764209 -0.73779297 26.67260742 C-1.52709367 4.58128102 -1.52709367 4.58128102 0 0 Z " fill="#9CA996" transform="translate(8,67)"/>
<path d="M0 0 C0.33 0 0.66 0 1 0 C1.01458252 0.73001221 1.02916504 1.46002441 1.04418945 2.2121582 C1.11951437 5.57942142 1.21589144 8.94578279 1.3125 12.3125 C1.33505859 13.46041016 1.35761719 14.60832031 1.38085938 15.79101562 C1.5135834 28.27880678 1.5135834 28.27880678 6.91040039 39.0324707 C10.2213754 41.71638893 13.6197437 44 18 44 C19.34882408 43.36525925 20.6846659 42.70151152 22 42 C23.485 42.495 23.485 42.495 25 43 C24.34 43.99 23.68 44.98 23 46 C26.465 48.475 26.465 48.475 30 51 C28.515 51.495 28.515 51.495 27 52 C26.443125 51.54625 25.88625 51.0925 25.3125 50.625 C22.04489935 48.3288482 18.91761467 47.73242212 15 48 C12.50007774 48.88912706 10.22648094 49.946254 7.8828125 51.1875 C7.26148438 51.455625 6.64015625 51.72375 6 52 C5.34 51.67 4.68 51.34 4 51 C8.75 47 8.75 47 11 47 C9.84415756 43.87922542 8.85852748 42.90066823 6.0625 40.9375 C1.63609517 37.36898801 0.9557512 32.39639342 0 27 C-0.32579776 22.26023343 -0.28732058 17.56037615 -0.1875 12.8125 C-0.17396484 11.57435547 -0.16042969 10.33621094 -0.14648438 9.06054688 C-0.11149611 6.0398929 -0.06240724 3.0201906 0 0 Z " fill="#9E803D" transform="translate(47,63)"/>
<path d="M0 0 C4.15871984 0.06525809 7.56240428 0.22316414 11.3125 2.1875 C16.11775702 7.53641749 15.8577367 12.47571489 15.6875 19.4375 C15.68621094 20.42363281 15.68492188 21.40976563 15.68359375 22.42578125 C15.49330595 38.47338536 15.49330595 38.47338536 11.375 44.8125 C6.87962712 48.29870754 2.80381863 47.7068191 -2.6875 47.1875 C-3.0175 46.5275 -3.3475 45.8675 -3.6875 45.1875 C-2.79998047 45.23970703 -2.79998047 45.23970703 -1.89453125 45.29296875 C2.97500475 45.45978809 6.4716104 45.56282722 10.3125 42.1875 C13.20600891 36.31672441 12.89162753 30.10693412 13.125 23.6875 C13.18880859 22.46417969 13.25261719 21.24085937 13.31835938 19.98046875 C13.36412109 18.80097656 13.40988281 17.62148437 13.45703125 16.40625 C13.50190674 15.33310547 13.54678223 14.25996094 13.59301758 13.15429688 C13.26798165 9.71666707 12.38699923 7.92385312 10.3125 5.1875 C5.08265636 2.69143826 -0.12980426 2.31679507 -5.625 4.1875 C-6.6459375 4.6825 -6.6459375 4.6825 -7.6875 5.1875 C-5.50995096 0.68723199 -5.07100396 0.03789988 0 0 Z " fill="#7A9EA5" transform="translate(87.6875,56.8125)"/>
<path d="M0 0 C0.98484375 0.00902344 1.9696875 0.01804687 2.984375 0.02734375 C4.10585937 0.04474609 4.10585937 0.04474609 5.25 0.0625 C5.25 0.3925 5.25 0.7225 5.25 1.0625 C4.48558594 1.14886719 3.72117187 1.23523438 2.93359375 1.32421875 C-7.26190013 2.66153383 -18.44372688 4.69131468 -26.75 11.0625 C-30.62053521 11.49255947 -32.97574424 11.4681159 -36.44921875 9.6484375 C-40.34815326 7.77510328 -43.95013868 7.02434673 -48.1875 6.3125 C-48.91259766 6.17457031 -49.63769531 6.03664063 -50.38476562 5.89453125 C-55.10490105 5.07179426 -58.9874449 5.18906982 -63.75 6.0625 C-64.74 6.0625 -65.73 6.0625 -66.75 6.0625 C-64.414299 3.89483505 -63.20271124 3.08605881 -59.97265625 2.91796875 C-58.92980469 3.02753906 -57.88695312 3.13710938 -56.8125 3.25 C-55.10320313 3.42595703 -55.10320313 3.42595703 -53.359375 3.60546875 C-37.69782609 5.58858696 -37.69782609 5.58858696 -34.75 7.0625 C-28.74004494 7.54729791 -24.11869654 6.12669653 -18.5625 4.125 C-16.98608177 3.57306153 -15.40927177 3.02224048 -13.83203125 2.47265625 C-13.14343018 2.22652588 -12.4548291 1.98039551 -11.74536133 1.72680664 C-7.69844944 0.37948653 -4.2804389 -0.05095761 0 0 Z " fill="#7A8468" transform="translate(102.75,19.9375)"/>
<path d="M0 0 C-0.32007117 2.96065836 -0.51707738 4.54760071 -2.73046875 6.62109375 C-5.31285514 8.19008239 -7.06665095 8.51503145 -10.0625 8.75 C-10.91972656 8.82734375 -11.77695312 8.9046875 -12.66015625 8.984375 C-15 9 -15 9 -18 8 C-19.125 3.25 -19.125 3.25 -18 1 C-15.51220172 0.6853143 -13.12292076 0.48643141 -10.625 0.375 C-9.93921875 0.33632812 -9.2534375 0.29765625 -8.546875 0.2578125 C-5.69448922 0.10242962 -2.85688474 0 0 0 Z " fill="#8AB8CC" transform="translate(35,100)"/>
<path d="M0 0 C1.32129161 6.67728631 0.74737629 12.94094591 0.25 19.6875 C0.17523438 20.92306641 0.10046875 22.15863281 0.0234375 23.43164062 C-0.06164063 24.61306641 -0.14671875 25.79449219 -0.234375 27.01171875 C-0.30881836 28.08897217 -0.38326172 29.16622559 -0.45996094 30.27612305 C-1.04730151 33.23858178 -1.58138461 34.24966665 -4 36 C-6.15625 36.36328125 -6.15625 36.36328125 -8.5 36.3125 C-9.2734375 36.30863281 -10.046875 36.30476563 -10.84375 36.30078125 C-13 36 -13 36 -16 34 C-15.01 34 -14.02 34 -13 34 C-12.67 33.01 -12.34 32.02 -12 31 C-11.05125 31.33 -10.1025 31.66 -9.125 32 C-6.22937548 33.10159191 -6.22937548 33.10159191 -4 33 C-3.05533244 29.75921875 -2.80901172 26.72774345 -2.68359375 23.359375 C-2.64169922 22.28945312 -2.59980469 21.21953125 -2.55664062 20.1171875 C-2.51732422 19.00601563 -2.47800781 17.89484375 -2.4375 16.75 C-2.39431641 15.62335938 -2.35113281 14.49671875 -2.30664062 13.3359375 C-2.20067985 10.55741046 -2.09860858 7.77879609 -2 5 C-5.68297866 5.6208622 -7.57688029 6.06674982 -10 9 C-9.35875684 3.22881158 -5.59674318 0 0 0 Z " fill="#9C8D5B" transform="translate(34,64)"/>
<path d="M0 0 C3.32386077 1.45418909 4.69816875 3.19360838 6.16796875 6.51171875 C9.95316352 17.83829773 9.95316352 17.83829773 9 23.875 C6.5 26.875 6.5 26.875 4 28.875 C0.58283717 27.46100159 -1.07090603 26.03074611 -3 22.875 C-3.73046875 19.6328125 -3.73046875 19.6328125 -4.1875 16 C-4.34605469 14.80632812 -4.50460938 13.61265625 -4.66796875 12.3828125 C-5.49526584 3.64266205 -5.49526584 3.64266205 -3.75 0.9375 C-2 -0.125 -2 -0.125 0 0 Z M-2 1.875 C-3.45679375 3.10368902 -3.45679375 3.10368902 -3.125 6.8125 C-3.28105464 16.31297553 -3.28105464 16.31297553 0 24.875 C3 25.375 3 25.375 6 24.875 C8.27671738 22.12658089 8.27671738 22.12658089 7.8125 19.375 C6.29296388 9.60047919 6.29296388 9.60047919 1 1.875 C0.01 1.875 -0.98 1.875 -2 1.875 Z " fill="#A18F5B" transform="translate(63,66.125)"/>
<path d="M0 0 C0.33 0.66 0.66 1.32 1 2 C1.99 2.33 2.98 2.66 4 3 C2.63875 4.0828125 2.63875 4.0828125 1.25 5.1875 C-2.79469257 9.13679887 -3.76326527 13.92320072 -5.140625 19.26953125 C-5.42421875 20.17058594 -5.7078125 21.07164063 -6 22 C-6.66 22.33 -7.32 22.66 -8 23 C-8.66 22.67 -9.32 22.34 -10 22 C-10.85473137 15.48267329 -10.03992929 12.4190278 -6.125 7.0625 C-4.17067481 4.57231145 -2.23740587 2.23740587 0 0 Z " fill="#9E803D" transform="translate(20,56)"/>
<path d="M0 0 C0.99 0.33 1.98 0.66 3 1 C3 10.24 3 19.48 3 29 C2.01 29.33 1.02 29.66 0 30 C-1.63989995 26.7202001 -1.14526925 23.10141137 -1.125 19.5 C-1.12306641 18.68934082 -1.12113281 17.87868164 -1.11914062 17.04345703 C-1.07783019 11.30474926 -0.73498631 5.69614393 0 0 Z " fill="#A8C9D3" transform="translate(36,64)"/>
<path d="M0 0 C3.05799591 0.85975604 6.03215919 1.86939398 9 3 C9 3.66 9 4.32 9 5 C10.98 5 12.96 5 15 5 C14.67 6.32 14.34 7.64 14 9 C12.989375 8.566875 11.97875 8.13375 10.9375 7.6875 C10.29683594 7.41679688 9.65617187 7.14609375 8.99609375 6.8671875 C7.14313267 6.06218288 5.31979735 5.1899023 3.5 4.3125 C-0.3583732 2.86561005 -2.91760493 2.46081575 -7 3 C-9.32318067 4.52512109 -9.32318067 4.52512109 -11 7 C-11.52350068 10.32394091 -11.52350068 10.32394091 -11.3125 14 C-11.29703125 14.65556885 -11.2815625 15.3111377 -11.265625 15.98657227 C-11.09075713 22.00712729 -10.62462784 28.01026515 -10 34 C-10.66 33.67 -11.32 33.34 -12 33 C-12.42651367 31.17749023 -12.42651367 31.17749023 -12.66796875 28.80859375 C-12.75626953 27.94556641 -12.84457031 27.08253906 -12.93554688 26.19335938 C-13.01869141 25.28392578 -13.10183594 24.37449219 -13.1875 23.4375 C-13.28224609 22.55513672 -13.37699219 21.67277344 -13.47460938 20.76367188 C-14.0030748 15.30555189 -14.08993019 10.39009194 -13 5 C-8.93396198 0.3530994 -6.08613869 -0.82523914 0 0 Z " fill="#8AB8CC" transform="translate(64,58)"/>
<path d="M0 0 C0.99 1.485 0.99 1.485 2 3 C4.52575718 6.15719647 7.16127036 6.90256958 11 8 C13.13985826 8.23105218 15.28768105 8.3967674 17.4375 8.5 C21.0691868 8.72518915 24.0068423 9.00207713 27.5 10.0625 C36.76867421 12.54518059 45.87172848 10.89087525 55.00390625 8.55859375 C57.84855544 8.02823543 59.32806506 8.01353991 62 9 C47.3163251 13.37386061 34.15456483 13.73648947 19 11.6875 C18.12770752 11.57011475 17.25541504 11.45272949 16.35668945 11.33178711 C10.88706358 10.5093225 6.11333394 9.11280118 1 7 C0.67 4.69 0.34 2.38 0 0 Z " fill="#DDE4E8" transform="translate(7,108)"/>
<path d="M0 0 C2.53231934 4.43016064 2.1272651 7.97696136 1.8125 12.9375 C1.78091797 13.73607422 1.74933594 14.53464844 1.71679688 15.35742188 C1.42805831 20.40825439 0.74094047 24.25905953 -3 28 C-7.16464926 28.16017882 -10.94726192 27.98248196 -15 27 C-15.33 28.65 -15.66 30.3 -16 32 C-17.65 32 -19.3 32 -21 32 C-20.01 27.71 -19.02 23.42 -18 19 C-17.01 20.32 -16.02 21.64 -15 23 C-11.5733809 24.84022137 -9.10249973 26.02449999 -5.1875 25.9375 C-2.89567326 25.1988002 -2.89567326 25.1988002 -1.88916016 23.25292969 C-0.8903202 20.72209632 -0.68526353 18.73053659 -0.5859375 16.015625 C-0.54726562 15.08105469 -0.50859375 14.14648438 -0.46875 13.18359375 C-0.42234375 11.73146484 -0.42234375 11.73146484 -0.375 10.25 C-0.33632812 9.26644531 -0.29765625 8.28289062 -0.2578125 7.26953125 C-0.16371574 4.84653963 -0.07807672 2.42355204 0 0 Z " fill="#9CA996" transform="translate(96,68)"/>
<path d="M0 0 C2.31 0.33 4.62 0.66 7 1 C5.89473134 4.31580599 5.45671889 4.54868095 2.75 6.4375 C-2.23950155 10.4805394 -3.92612969 16.09377026 -6 22 C-6.33 22 -6.66 22 -7 22 C-7.54389291 13.1164158 -5.08607398 7.19065632 0 0 Z " fill="#8BB6C7" transform="translate(25,59)"/>
<path d="M0 0 C0.33 0 0.66 0 1 0 C1.03738281 1.29292969 1.07476562 2.58585937 1.11328125 3.91796875 C1.29366295 21.83086068 1.29366295 21.83086068 8 38 C11.05130378 40.14104088 13.58212528 40.22152302 17.25 40.125 C18.58804688 40.09792969 18.58804688 40.09792969 19.953125 40.0703125 C20.62859375 40.04710937 21.3040625 40.02390625 22 40 C20.30549853 42.05123862 19.13436852 42.95229261 16.6015625 43.8515625 C11.81603405 44.12461067 8.54516275 40.93487361 5 38 C-0.95231235 30.70361712 -0.25730422 20.88473745 -0.125 12 C-0.11597656 10.84371094 -0.10695312 9.68742187 -0.09765625 8.49609375 C-0.07424922 5.66384353 -0.04145995 2.83203381 0 0 Z " fill="#768269" transform="translate(48,64)"/>
<path d="M0 0 C0.66 0.33 1.32 0.66 2 1 C1.525625 1.5775 1.05125 2.155 0.5625 2.75 C-2.57845752 7.27297882 -2.08901862 11.65888284 -2 17 C-1.68869141 15.91332031 -1.68869141 15.91332031 -1.37109375 14.8046875 C0.85393171 7.82239003 3.01754199 4.25674897 9 0 C8.04746112 2.12489442 7.3078732 3.73081674 5.5390625 5.27734375 C3.1573829 7.94313233 2.40356786 11.20695607 1.375 14.5625 C-0.93446292 21.86892583 -0.93446292 21.86892583 -2 24 C-2.66 24 -3.32 24 -4 24 C-7.02920704 17.94158593 -4.76229845 10.13016476 -2.8515625 4.03125 C-2 2 -2 2 0 0 Z " fill="#99A897" transform="translate(21,63)"/>
<path d="M0 0 C0.62777344 0.49628906 1.25554687 0.99257812 1.90234375 1.50390625 C4.58801674 3.41938624 6.23303169 3.37083872 9.5 3.3125 C10.4384375 3.30863281 11.376875 3.30476563 12.34375 3.30078125 C15.02087334 2.9976364 16.69965635 2.36176004 19 1 C16.375 4.875 16.375 4.875 13 6 C8.36029784 6.24419485 4.40863371 5.94953286 -0.125 4.9375 C-4.0995417 4.05087147 -6.98172083 4.19634417 -11 5 C-11.66 4.34 -12.32 3.68 -13 3 C-8.50241928 -0.37318554 -5.43948065 -0.51804578 0 0 Z " fill="#98946D" transform="translate(81,100)"/>
<path d="M0 0 C3.30776928 0.66155386 4.49309977 1.82413303 6.5 4.5 C6.5 5.82 6.5 7.14 6.5 8.5 C0.47463002 10.06659619 0.47463002 10.06659619 -2.30078125 8.453125 C-3.76579304 7.20838944 -5.14065712 5.85934288 -6.5 4.5 C-4.41851729 2.03305753 -3.21782589 0.64356518 0 0 Z " fill="#E27F12" transform="translate(78.5,104.5)"/>
<path d="M0 0 C0.33 0 0.66 0 1 0 C1.36585366 4.51219512 1.36585366 4.51219512 -0.1953125 6.59375 C-6.00211096 11.11852802 -15.98692846 10.27382926 -23 10 C-19.12218293 6.34645966 -16.78680863 5.56867618 -11.5 5.5625 C-6.03297544 5.43882378 -6.03297544 5.43882378 -1.75 2.4375 C-0.88375 1.2309375 -0.88375 1.2309375 0 0 Z " fill="#968148" transform="translate(110,104)"/>
<path d="M0 0 C0.66 0.33 1.32 0.66 2 1 C-0.21780691 3.69458182 -1.38772456 4.89297624 -4.8828125 5.50390625 C-5.95273438 5.52324219 -7.02265625 5.54257813 -8.125 5.5625 C-13.43506026 5.80088654 -17.82094339 6.70022566 -22.84375 8.35546875 C-25.6920962 9.20687658 -28.0575022 9.43060943 -31 9 C-31.99 8.01 -32.98 7.02 -34 6 C-29.38 6 -24.76 6 -20 6 C-20 5.34 -20 4.68 -20 4 C-18.72382812 3.79503906 -17.44765625 3.59007813 -16.1328125 3.37890625 C-14.46351379 3.10694185 -12.79424447 2.83479709 -11.125 2.5625 C-10.28324219 2.42779297 -9.44148438 2.29308594 -8.57421875 2.15429688 C-7.76855469 2.02216797 -6.96289062 1.89003906 -6.1328125 1.75390625 C-5.38918457 1.63345947 -4.64555664 1.5130127 -3.87939453 1.38891602 C-1.92115353 1.06752895 -1.92115353 1.06752895 0 0 Z " fill="#CADAE0" transform="translate(108,112)"/>
<path d="M0 0 C1.2684375 -0.00773437 1.2684375 -0.00773437 2.5625 -0.015625 C5.97755067 0.35652796 8.07850282 1.30910288 10.484375 3.765625 C13.36209178 7.70916281 14.61757833 10.1858577 14 15.25 C13.731875 14.6725 13.46375 14.095 13.1875 13.5 C12.04946754 11.19252104 12.04946754 11.19252104 10.375 9.125 C9 7.25 9 7.25 9 5.25 C3.74842433 4.14440512 -1.65100508 3.70681463 -7 4.25 C-7.99 4.91 -8.98 5.57 -10 6.25 C-9.75 4.375 -9.75 4.375 -9 2.25 C-5.98081879 0.30521211 -3.55251677 -0.02166169 0 0 Z " fill="#647D73" transform="translate(90,53.75)"/>
<path d="M0 0 C2.02910711 0.25327449 4.04962145 0.57730068 6.0625 0.9375 C7.16722656 1.13214844 8.27195312 1.32679687 9.41015625 1.52734375 C10.69212891 1.76130859 10.69212891 1.76130859 12 2 C8.48375245 3.94158017 6.0284349 4.18311068 2 4 C2 4.33 2 4.66 2 5 C3.0725 4.979375 4.145 4.95875 5.25 4.9375 C9 5 9 5 11.125 5.6875 C14.05592231 6.17598705 15.654487 4.62882847 18 3 C17.06056494 5.34858765 16.40608105 6.72989179 14.2734375 8.1484375 C11.42145367 9.21670636 9.39448124 9.05927301 6.375 8.75 C4.93253906 8.61851563 4.93253906 8.61851563 3.4609375 8.484375 C1 8 1 8 -1 6 C-1.1875 3.4375 -1.1875 3.4375 -1 1 C-0.67 0.67 -0.34 0.34 0 0 Z " fill="#8AB8CC" transform="translate(81,94)"/>
<path d="M0 0 C0.33 0.66 0.66 1.32 1 2 C0.19897461 3.98022461 0.19897461 3.98022461 -1.09765625 6.40234375 C-1.56679443 7.28792969 -2.03593262 8.17351563 -2.51928711 9.0859375 C-3.02854736 10.02695312 -3.53780762 10.96796875 -4.0625 11.9375 C-4.57111572 12.89011719 -5.07973145 13.84273437 -5.60375977 14.82421875 C-6.6115246 16.70876956 -7.62275754 18.59147049 -8.63769531 20.47216797 C-9.74630153 22.52924839 -10.84314662 24.59138723 -11.9296875 26.66015625 C-14.77850099 32.02566767 -17.67814866 36.67814866 -22 41 C-21.44942326 37.28491981 -20.53079168 34.94960342 -18.32421875 31.92578125 C-14.62924975 26.60012721 -11.73854427 20.96170903 -8.8125 15.1875 C-7.78071005 13.15844095 -6.74567702 11.13102697 -5.70703125 9.10546875 C-5.2581958 8.22012451 -4.80936035 7.33478027 -4.34692383 6.42260742 C-3.0603019 4.10846035 -1.64147182 2.07329545 0 0 Z " fill="#6A99AD" transform="translate(31,26)"/>
<path d="M0 0 C3.45658479 2.04573386 4.7785359 3.66780385 7 7 C10.08365871 7.2502157 10.08365871 7.2502157 13 7 C13 7.99 13 8.98 13 10 C10.8125 10.8125 10.8125 10.8125 8 11 C5.1875 8.6875 5.1875 8.6875 3 6 C3 5.34 3 4.68 3 4 C-1.98980526 1.82495668 -6.84554659 1.00075428 -12 3 C-14.21032189 5.43033078 -15.648307 8.01812449 -17 11 C-18 8 -18 8 -16.8125 4.9375 C-12.97994556 -1.27388134 -6.69347732 -0.82427095 0 0 Z " fill="#7D866A" transform="translate(67,53)"/>
<path d="M0 0 C2.24606427 1.77444972 2.95081002 2.58352485 3.29296875 5.48046875 C3.25816406 6.37378906 3.22335938 7.26710938 3.1875 8.1875 C3.16042969 9.08855469 3.13335937 9.98960938 3.10546875 10.91796875 C3.07066406 11.60503906 3.03585938 12.29210938 3 13 C2.29875 12.154375 1.5975 11.30875 0.875 10.4375 C-1.76988531 7.63780735 -1.76988531 7.63780735 -5.125 8.125 C-7.09158609 8.7235262 -9.04983975 9.34994658 -11 10 C-9.78389183 6.35167549 -8.68563692 5.88114477 -5.5 3.875 C-2.5968522 2.13228203 -2.5968522 2.13228203 0 0 Z " fill="#7A8468" transform="translate(37,49)"/>
<path d="M0 0 C0.66 0 1.32 0 2 0 C1.89035323 4.43801996 1.75966846 8.87517436 1.625 13.3125 C1.5940625 14.57513672 1.563125 15.83777344 1.53125 17.13867188 C1.49257812 18.34716797 1.45390625 19.55566406 1.4140625 20.80078125 C1.3826416 21.91622314 1.3512207 23.03166504 1.31884766 24.1809082 C1 27 1 27 -1 30 C-1.22547184 25.56319547 -1.42745053 21.12562853 -1.625 16.6875 C-1.68945312 15.42486328 -1.75390625 14.16222656 -1.8203125 12.86132812 C-1.871875 11.65283203 -1.9234375 10.44433594 -1.9765625 9.19921875 C-2.02893066 8.08377686 -2.08129883 6.96833496 -2.13525391 5.8190918 C-2 3 -2 3 0 0 Z " fill="#8AB8CC" transform="translate(100,67)"/>
<path d="M0 0 C2.58276535 0.99337129 3.90098085 1.63272127 5.4375 3.9375 C5.125 6.125 5.125 6.125 4.4375 7.9375 C3.7775 7.9375 3.1175 7.9375 2.4375 7.9375 C2.4375 8.5975 2.4375 9.2575 2.4375 9.9375 C1.7775 9.9375 1.1175 9.9375 0.4375 9.9375 C0.4375 9.2775 0.4375 8.6175 0.4375 7.9375 C-0.8825 7.6075 -2.2025 7.2775 -3.5625 6.9375 C-2.9025 5.9475 -2.2425 4.9575 -1.5625 3.9375 C-3.2125 3.9375 -4.8625 3.9375 -6.5625 3.9375 C-3.27554348 -0.0798913 -3.27554348 -0.0798913 0 0 Z " fill="#6A99AD" transform="translate(33.5625,56.0625)"/>
<path d="M0 0 C3.80424756 6.84764561 3.18325792 14.13122858 3.1875 21.75 C3.19974609 22.89210938 3.21199219 24.03421875 3.22460938 25.2109375 C3.23597722 31.8042861 2.71477162 37.62891178 1 44 C0.21329228 41.21945349 -0.12265947 38.76039307 -0.11352539 35.87402344 C-0.11344986 35.07349548 -0.11337433 34.27296753 -0.11329651 33.44818115 C-0.10813522 32.59387512 -0.10297394 31.73956909 -0.09765625 30.859375 C-0.0962413 29.97719299 -0.09482635 29.09501099 -0.09336853 28.18609619 C-0.08778001 25.37402935 -0.07522961 22.5620427 -0.0625 19.75 C-0.05748352 17.84114698 -0.05292087 15.93229272 -0.04882812 14.0234375 C-0.03781434 9.34892753 -0.02055758 4.67447735 0 0 Z " fill="#A38B51" transform="translate(40,60)"/>
<path d="M0 0 C2.375 0.3125 2.375 0.3125 5 1 C5.66 1.99 6.32 2.98 7 4 C6.05125 3.79375 5.1025 3.5875 4.125 3.375 C3.09375 3.25125 2.0625 3.1275 1 3 C-1.26689436 4.79791347 -1.26689436 4.79791347 -1.01171875 7.28515625 C-0.90472656 8.20167969 -0.79773437 9.11820313 -0.6875 10.0625 C-0.5740625 11.04734375 -0.460625 12.0321875 -0.34375 13.046875 C-0.17359375 14.50867188 -0.17359375 14.50867188 0 16 C0.0515625 16.83015625 0.103125 17.6603125 0.15625 18.515625 C0.51804115 23.83395493 1.67297955 26.81439363 5 31 C3.125 30.75 3.125 30.75 1 30 C-1.36085544 26.42729862 -1.91670997 22.26372478 -2.6875 18.125 C-2.82994141 17.43019531 -2.97238281 16.73539063 -3.11914062 16.01953125 C-4.12625289 10.69837094 -4.48701379 6.26026095 -1.4375 1.625 C-0.963125 1.08875 -0.48875 0.5525 0 0 Z " fill="#97A798" transform="translate(60,64)"/>
<path d="M0 0 C1.65 0.33 3.3 0.66 5 1 C5 1.66 5 2.32 5 3 C5.66 3 6.32 3 7 3 C7 3.99 7 4.98 7 6 C3.5980513 8.09350689 0.94727588 8.17942163 -3 8 C-3.33 7.01 -3.66 6.02 -4 5 C-2.0625 2.3125 -2.0625 2.3125 0 0 Z " fill="#E27F12" transform="translate(44,28)"/>
<path d="M0 0 C1.32 0.33 2.64 0.66 4 1 C4 4.96 4 8.92 4 13 C3.01 13 2.02 13 1 13 C0.43983252 11.59054634 -0.09748502 10.1719969 -0.625 8.75 C-0.92664063 7.96109375 -1.22828125 7.1721875 -1.5390625 6.359375 C-2.09752136 3.50082285 -1.53690745 2.41040161 0 0 Z " fill="#E27F12" transform="translate(102,25)"/>
<path d="M0 0 C2.90884271 5.01206513 2.01351537 9.84899098 1.59765625 15.49609375 C1.53191406 16.61822266 1.46617188 17.74035156 1.3984375 18.89648438 C1.23376644 21.66060569 1.04956266 24.42198395 0.84765625 27.18359375 C0.51765625 27.18359375 0.18765625 27.18359375 -0.15234375 27.18359375 C-0.12914063 25.90484375 -0.1059375 24.62609375 -0.08203125 23.30859375 C-0.06325842 21.6002663 -0.04505986 19.89193248 -0.02734375 18.18359375 C-0.01058594 17.34441406 0.00617188 16.50523438 0.0234375 15.640625 C0.06614742 10.13104498 -0.59732368 5.47311083 -2.15234375 0.18359375 C-6.77234375 -0.47640625 -11.39234375 -1.13640625 -16.15234375 -1.81640625 C-16.15234375 -2.14640625 -16.15234375 -2.47640625 -16.15234375 -2.81640625 C-9.63782297 -3.86667757 -5.30159384 -4.47412184 0 0 Z " fill="#96BECE" transform="translate(114.15234375,16.81640625)"/>
<path d="M0 0 C4.15871984 0.06525809 7.56240428 0.22316414 11.3125 2.1875 C13.85793905 5.20183572 15.21850629 7.10657229 15.5625 11.0625 C15.48 11.76375 15.3975 12.465 15.3125 13.1875 C13.3125 10.1875 13.3125 10.1875 12.0625 7.625 C9.76170415 4.42032006 8.13805337 3.99675167 4.3125 3.1875 C-0.27173229 2.86579949 -3.54189856 3.17751142 -7.6875 5.1875 C-5.50995096 0.68723199 -5.07100396 0.03789988 0 0 Z " fill="#6A99AD" transform="translate(87.6875,56.8125)"/>
<path d="M0 0 C2.5 2.0625 2.5 2.0625 4 4 C3.505 3.835 3.01 3.67 2.5 3.5 C-3.92777935 2.21444413 -8.8074619 3.21369093 -15 5 C-17.203125 4.55859375 -17.203125 4.55859375 -19 4 C-7.34633179 -2.19101124 -7.34633179 -2.19101124 0 0 Z " fill="#7A8468" transform="translate(70,111)"/>
<path d="M0 0 C1.11446742 3.34340225 0.85175268 4.68260228 0.125 8.0625 C-0.05804687 8.94035156 -0.24109375 9.81820312 -0.4296875 10.72265625 C-1 13 -1 13 -2 15 C-2.33333333 18.5 -2.33333333 18.5 -2 22 C0.95377498 24.36980013 0.95377498 24.36980013 5 24 C5 24.66 5 25.32 5 26 C3.3125 26.6875 3.3125 26.6875 1 27 C-3.63076923 24.73846154 -3.63076923 24.73846154 -5 22 C-4.87181758 16.98116511 -4.00520089 12.60016674 -2 8 C-1.26677211 5.34641336 -0.63579372 2.67941639 0 0 Z " fill="#C48324" transform="translate(25,71)"/>
<path d="M0 0 C0.33 0 0.66 0 1 0 C1.0580966 3.9166043 1.09362893 7.83309763 1.125 11.75 C1.14175781 12.86117187 1.15851563 13.97234375 1.17578125 15.1171875 C1.18222656 16.18710938 1.18867187 17.25703125 1.1953125 18.359375 C1.20578613 19.34389648 1.21625977 20.32841797 1.22705078 21.34277344 C0.99489618 24.05973111 0.39036273 25.68112513 -1 28 C-2.16597325 22.66610744 -1.95558268 17.7133946 -1.625 12.3125 C-1.58117187 11.45849609 -1.53734375 10.60449219 -1.4921875 9.72460938 C-1.29455907 6.23042898 -1.11380701 3.34142103 0 0 Z " fill="#979168" transform="translate(104,66)"/>
<path d="M0 0 C1.39234117 2.78468235 1.00726701 5.35946467 0.97265625 8.41015625 C0.9364787 15.92706167 0.9364787 15.92706167 3 23 C5.52733235 23.65555119 5.52733235 23.65555119 8 24 C7.67 25.32 7.34 26.64 7 28 C3.58283717 26.58600159 1.92909397 25.15574611 0 22 C-0.73046875 18.7578125 -0.73046875 18.7578125 -1.1875 15.125 C-1.34605469 13.93132812 -1.50460938 12.73765625 -1.66796875 11.5078125 C-1.97290205 8.2862819 -2.21185851 5.22966522 -2 2 C-1.34 1.34 -0.68 0.68 0 0 Z " fill="#A59565" transform="translate(60,67)"/>
<path d="M0 0 C3.63 0.33 7.26 0.66 11 1 C11 1.99 11 2.98 11 4 C9.56496445 4.36402369 8.12683494 4.71586591 6.6875 5.0625 C5.88699219 5.25972656 5.08648437 5.45695312 4.26171875 5.66015625 C2 6 2 6 -1 5 C-0.67 3.35 -0.34 1.7 0 0 Z " fill="#AFCDD5" transform="translate(18,103)"/>
<path d="M0 0 C4.44761405 4.12369818 5.75681169 8.63610503 6.36328125 14.53125 C6.62482754 21.76487318 6.62482754 21.76487318 6 25 C3.59375 26.98046875 3.59375 26.98046875 1 28 C0.34 27.67 -0.32 27.34 -1 27 C-0.175 26.34 0.65 25.68 1.5 25 C4.09333366 21.88799961 4.67918319 20.40605841 4.44140625 16.39453125 C3.68672952 12.30057696 2.29820276 8.44298675 0.875 4.5390625 C0 2 0 2 0 0 Z " fill="#8EA49C" transform="translate(67,68)"/>
<path d="M0 0 C10.55808656 0.77904328 10.55808656 0.77904328 15 3 C15 3.66 15 4.32 15 5 C16.98 5 18.96 5 21 5 C20.67 6.32 20.34 7.64 20 9 C18.989375 8.566875 17.97875 8.13375 16.9375 7.6875 C15.97650391 7.27951172 15.97650391 7.27951172 14.99609375 6.86328125 C13.15028076 6.06499422 11.32403265 5.2218723 9.5 4.375 C5.94895485 2.97994655 2.78314992 2.38603571 -1 2 C-0.67 1.34 -0.34 0.68 0 0 Z " fill="#81AEC0" transform="translate(58,58)"/>
<path d="M0 0 C0.763125 0.20625 1.52625 0.4125 2.3125 0.625 C1.69972388 3.58675123 1.05877478 5.00558783 -0.6875 7.625 C-2.3375 7.295 -3.9875 6.965 -5.6875 6.625 C-5.875 4.25 -5.875 4.25 -5.6875 1.625 C-2.6875 -0.375 -2.6875 -0.375 0 0 Z " fill="#E27F12" transform="translate(89.6875,31.375)"/>
<path d="M0 0 C4 5 4 5 5 7 C4.01 7.495 4.01 7.495 3 8 C2.34444881 10.52733235 2.34444881 10.52733235 2 13 C0.35 13 -1.3 13 -3 13 C-2.01 8.71 -1.02 4.42 0 0 Z " fill="#6A99AD" transform="translate(78,87)"/>
<path d="M0 0 C0.33 0 0.66 0 1 0 C1.08745946 3.3956697 1.14054444 6.79104773 1.1875 10.1875 C1.21263672 11.14720703 1.23777344 12.10691406 1.26367188 13.09570312 C1.3576271 22.14672318 1.3576271 22.14672318 -2 26 C-4.98689164 27.14880448 -6.33874989 27.26807437 -9.3125 26.0625 C-10.1478125 25.5365625 -10.1478125 25.5365625 -11 25 C-10.67 24.34 -10.34 23.68 -10 23 C-8.8553125 23.309375 -8.8553125 23.309375 -7.6875 23.625 C-4.78114056 24.33391203 -4.78114056 24.33391203 -2 22 C-1.09166031 19.27498092 -0.81640015 17.37766029 -0.68359375 14.55078125 C-0.64169922 13.70322266 -0.59980469 12.85566406 -0.55664062 11.98242188 C-0.49766602 10.66081055 -0.49766602 10.66081055 -0.4375 9.3125 C-0.39431641 8.41982422 -0.35113281 7.52714844 -0.30664062 6.60742188 C-0.20064647 4.40509892 -0.09857949 2.20266527 0 0 Z " fill="#A6925D" transform="translate(95,68)"/>
<path d="M0 0 C1.54033121 2.91250399 2.69524517 5.79616641 3.6875 8.9375 C3.95949219 9.77152344 4.23148438 10.60554688 4.51171875 11.46484375 C5.06123094 14.31791104 4.79687172 16.22302278 4 19 C3 20 3 20 -0.0625 20.0625 C-1.031875 20.041875 -2.00125 20.02125 -3 20 C-3 19.01 -3 18.02 -3 17 C-2.34 17.33 -1.68 17.66 -1 18 C-0.01 17.67 0.98 17.34 2 17 C1.855625 16.443125 1.71125 15.88625 1.5625 15.3125 C0.28453328 10.05863683 -0.19646963 5.40291471 0 0 Z " fill="#C48324" transform="translate(66,71)"/>
<path d="M0 0 C0.33 0 0.66 0 1 0 C1.66 4.29 2.32 8.58 3 13 C3.33 13 3.66 13 4 13 C4 14.98 4 16.96 4 19 C3.01 19.33 2.02 19.66 1 20 C-0.1482685 17.703463 -0.11561175 16.41686833 -0.09765625 13.8671875 C-0.09443359 13.06152344 -0.09121094 12.25585938 -0.08789062 11.42578125 C-0.07951172 10.58402344 -0.07113281 9.74226563 -0.0625 8.875 C-0.05798828 8.02550781 -0.05347656 7.17601563 -0.04882812 6.30078125 C-0.03702874 4.20049091 -0.01909306 2.1002367 0 0 Z " fill="#8AB8CC" transform="translate(35,74)"/>
<path d="M0 0 C4.29 0 8.58 0 13 0 C13 1.32 13 2.64 13 4 C7.66404866 4.27131956 4.38616179 4.4266889 0 1 C0 0.67 0 0.34 0 0 Z " fill="#DDE4E8" transform="translate(115,0)"/>
<path d="M0 0 C4.20964159 2.10482079 5.0889792 2.89130528 7 7 C7.1875 9.8125 7.1875 9.8125 7 12 C6.01 12 5.02 12 4 12 C2.68 8.04 1.36 4.08 0 0 Z " fill="#DDE4E8" transform="translate(71,67)"/>
<path d="M0 0 C0.33 0.99 0.66 1.98 1 3 C-0.66442897 5.02185443 -1.52984103 5.92078843 -4.15625 6.36328125 C-4.9296875 6.34652344 -5.703125 6.32976562 -6.5 6.3125 C-7.2734375 6.30863281 -8.046875 6.30476563 -8.84375 6.30078125 C-11 6 -11 6 -14 4 C-13.01 4 -12.02 4 -11 4 C-10.67 3.01 -10.34 2.02 -10 1 C-9.05125 1.33 -8.1025 1.66 -7.125 2 C-4.22937548 3.10159191 -4.22937548 3.10159191 -2 3 C-1.67 2.34 -1.34 1.68 -1 1 C-0.67 0.67 -0.34 0.34 0 0 Z " fill="#918657" transform="translate(32,94)"/>
<path d="M0 0 C2 3 2 3 2 5 C6.62 4.67 11.24 4.34 16 4 C16 4.66 16 5.32 16 6 C11.54695356 7.42497486 7.72944312 8.53743672 3 8 C1.125 6.8125 1.125 6.8125 0 5 C-0.1875 2.3125 -0.1875 2.3125 0 0 Z " fill="#9CA996" transform="translate(15,103)"/>
<path d="M0 0 C0.66 0 1.32 0 2 0 C2.08131463 1.43655854 2.13933559 2.8744483 2.1875 4.3125 C2.22230469 5.11300781 2.25710937 5.91351563 2.29296875 6.73828125 C1.93801608 9.47851584 1.10633718 10.29171079 -1 12 C-2 11 -2 11 -2.1875 7.6875 C-2.01798052 4.35361682 -1.75557129 2.74308013 0 0 Z " fill="#C48324" transform="translate(13,67)"/>
<path d="M0 0 C1.32 0.33 2.64 0.66 4 1 C3.25 3.4375 3.25 3.4375 2 6 C-0.125 6.8125 -0.125 6.8125 -2 7 C-2.33 6.01 -2.66 5.02 -3 4 C-1.5625 1.8125 -1.5625 1.8125 0 0 Z " fill="#E27F12" transform="translate(28,46)"/>
<path d="M0 0 C0 0.33 0 0.66 0 1 C-0.95712891 1.09087891 -0.95712891 1.09087891 -1.93359375 1.18359375 C-2.75988281 1.26738281 -3.58617188 1.35117188 -4.4375 1.4375 C-5.67306641 1.55931641 -5.67306641 1.55931641 -6.93359375 1.68359375 C-8.98662025 1.78930815 -8.98662025 1.78930815 -10 3 C-11.68608966 3.07205511 -13.37500659 3.08386068 -15.0625 3.0625 C-15.98160156 3.05347656 -16.90070313 3.04445313 -17.84765625 3.03515625 C-18.55792969 3.02355469 -19.26820312 3.01195312 -20 3 C-15.33749068 -1.66250932 -6.16413244 -0.10032042 0 0 Z " fill="#A6C8D2" transform="translate(107,13)"/>
<path d="M0 0 C4.75 0.75 4.75 0.75 7 3 C6.625 5.625 6.625 5.625 6 8 C5.34 8 4.68 8 4 8 C3.71125 7.195625 3.4225 6.39125 3.125 5.5625 C2.26737432 2.8673532 2.26737432 2.8673532 0 2 C0 1.34 0 0.68 0 0 Z " fill="#ADCCD4" transform="translate(93,62)"/>
<path d="M0 0 C0.84119973 2.39957614 1.11193544 3.64922558 0.328125 6.10546875 C-0.02765625 6.79253906 -0.3834375 7.47960938 -0.75 8.1875 C-1.26820312 9.22970703 -1.26820312 9.22970703 -1.796875 10.29296875 C-3 12 -3 12 -6 13 C-4.31326082 8.50202887 -2.18326108 4.27113698 0 0 Z " fill="#697E70" transform="translate(23,44)"/>
<path d="M0 0 C0 0.99 0 1.98 0 3 C-1.62324086 3.22162329 -3.248721 3.42689803 -4.875 3.625 C-6.23238281 3.79902344 -6.23238281 3.79902344 -7.6171875 3.9765625 C-8.40351562 3.98429687 -9.18984375 3.99203125 -10 4 C-10.66 3.34 -11.32 2.68 -12 2 C-10.37548581 1.66430703 -8.75037083 1.3315204 -7.125 1 C-6.22007813 0.814375 -5.31515625 0.62875 -4.3828125 0.4375 C-2 0 -2 0 0 0 Z " fill="#928452" transform="translate(51,114)"/>
<path d="M0 0 C4.23364476 1.41121492 5.96085259 4.11139332 8 8 C8.3125 11.4375 8.3125 11.4375 8 14 C7.73445313 13.42507812 7.46890625 12.85015625 7.1953125 12.2578125 C5.55302727 9.15571817 3.41028009 6.55370442 1.2421875 3.8046875 C0 2 0 2 0 0 Z " fill="#7A8468" transform="translate(96,55)"/>
<path d="M0 0 C1.26237731 2.52475462 1.09856404 4.31200466 1.0625 7.125 C1.05347656 8.03507812 1.04445313 8.94515625 1.03515625 9.8828125 C1.02355469 10.58148438 1.01195312 11.28015625 1 12 C-0.9451 9.08235 -1.45276317 7.37462715 -2 4 C-2.99 3.67 -3.98 3.34 -5 3 C-2.25 0 -2.25 0 0 0 Z " fill="#7A8468" transform="translate(39,50)"/>
<path d="M0 0 C0.33 0 0.66 0 1 0 C0.53199289 4.05606165 0.12046792 7.46588679 -2 11 C-2.99 10.67 -3.98 10.34 -5 10 C-4.54857119 8.70590408 -4.08858979 7.41478941 -3.625 6.125 C-3.36976562 5.40570313 -3.11453125 4.68640625 -2.8515625 3.9453125 C-2 2 -2 2 0 0 Z " fill="#978651" transform="translate(104,90)"/>
<path d="M0 0 C0.33 0 0.66 0 1 0 C1.49230769 7.38461538 1.49230769 7.38461538 -1 10.5 C-1.66 10.995 -2.32 11.49 -3 12 C-2.25749403 7.91621717 -1.17076699 3.98060777 0 0 Z " fill="#677E71" transform="translate(40,92)"/>
<path d="M0 0 C0.99 0.99 1.98 1.98 3 3 C2.6875 6.6875 2.6875 6.6875 2 10 C1.34 9.67 0.68 9.34 0 9 C0 6.03 0 3.06 0 0 Z " fill="#7A8468" transform="translate(9,86)"/>
<path d="M0 0 C0.33 0 0.66 0 1 0 C1.10957031 0.60328125 1.21914063 1.2065625 1.33203125 1.828125 C2.50797128 7.93684987 2.50797128 7.93684987 6 13 C3.52592708 12.67012361 2.3362233 12.42027913 0.75 10.4375 C-0.34127575 6.89085382 -0.12349053 3.70471601 0 0 Z " fill="#8DA49C" transform="translate(59,82)"/>
<path d="M0 0 C1.5 1.3125 1.5 1.3125 3 3 C3 3.99 3 4.98 3 6 C0.53199953 4.84826645 -1.04783565 3.95216435 -3 2 C-2.01 1.34 -1.02 0.68 0 0 Z " fill="#3F7287" transform="translate(36,53)"/>
</svg>
