<?xml version="1.0" encoding="UTF-8"?>
<svg version="1.1" xmlns="http://www.w3.org/2000/svg" width="128" height="128">
<path d="M0 0 C42.24 0 84.48 0 128 0 C128 42.24 128 84.48 128 128 C85.76 128 43.52 128 0 128 C0 85.76 0 43.52 0 0 Z " fill="#9017BB" transform="translate(0,0)"/>
<path d="M0 0 C2.11328125 1.0390625 2.11328125 1.0390625 3.55078125 4.5390625 C3.89882812 5.61994141 3.89882812 5.61994141 4.25390625 6.72265625 C8.34488896 17.74971418 17.59751409 24.05714318 26.921875 30.40625 C29.47902869 32.3115802 31.20744123 34.49794247 33.11328125 37.0390625 C35.7318582 38.82869069 35.7318582 38.82869069 38.11328125 40.0390625 C37.39453125 41.96484375 37.39453125 41.96484375 36.11328125 44.0390625 C34.01953125 44.83203125 34.01953125 44.83203125 31.61328125 45.2265625 C28.25360213 45.79179166 28.25360213 45.79179166 25.11328125 47.0390625 C23.15684652 47.26145939 21.194304 47.43122104 19.23046875 47.57421875 C17.48056641 47.70473633 17.48056641 47.70473633 15.6953125 47.83789062 C14.47199219 47.92490234 13.24867187 48.01191406 11.98828125 48.1015625 C10.75722656 48.19244141 9.52617188 48.28332031 8.2578125 48.37695312 C5.2098901 48.60141253 2.16173422 48.82194792 -0.88671875 49.0390625 C-1.54671875 51.0190625 -2.20671875 52.9990625 -2.88671875 55.0390625 C-3.54671875 55.0390625 -4.20671875 55.0390625 -4.88671875 55.0390625 C-5.05171875 54.0284375 -5.21671875 53.0178125 -5.38671875 51.9765625 C-6.61563878 47.52172737 -9.47664603 45.39845795 -13.01171875 42.6171875 C-16.51134116 39.67167197 -17.56602459 36.28415087 -18.88671875 32.0390625 C-19.87671875 32.0390625 -20.86671875 32.0390625 -21.88671875 32.0390625 C-21.67015625 33.616875 -21.67015625 33.616875 -21.44921875 35.2265625 C-21.88671875 39.0390625 -21.88671875 39.0390625 -23.26953125 40.37109375 C-24.50682914 41.1718558 -25.75212605 41.96035307 -27.00390625 42.73828125 C-32.80157087 46.74372174 -34.52086748 52.43744802 -35.88671875 59.0390625 C-36.88671875 60.0390625 -36.88671875 60.0390625 -39.38671875 60.1640625 C-41.88671875 60.0390625 -41.88671875 60.0390625 -42.88671875 59.0390625 C-42.63671875 55.6015625 -42.63671875 55.6015625 -41.88671875 52.0390625 C-40.89671875 51.3790625 -39.90671875 50.7190625 -38.88671875 50.0390625 C-38.90605469 49.09933594 -38.92539062 48.15960938 -38.9453125 47.19140625 C-38.88671875 44.0390625 -38.88671875 44.0390625 -37.171875 41.73046875 C-36.43839844 41.02792969 -35.70492187 40.32539062 -34.94921875 39.6015625 C-31.17394347 35.67314554 -29.88671875 33.46624846 -29.88671875 28.0390625 C-29.22671875 28.0390625 -28.56671875 28.0390625 -27.88671875 28.0390625 C-27.56672507 24.85596743 -27.63231357 23.41527765 -29.453125 20.72265625 C-30.78629639 19.22251232 -32.11963033 17.72251283 -33.453125 16.22265625 C-34.88671875 14.0390625 -34.88671875 14.0390625 -34.6015625 11.76171875 C-34.36566406 11.19324219 -34.12976562 10.62476563 -33.88671875 10.0390625 C-28.99884848 10.45802281 -27.21530565 12.62288121 -23.88671875 16.0390625 C-22.89671875 16.0390625 -21.90671875 16.0390625 -20.88671875 16.0390625 C-20.27957031 14.98332031 -20.27957031 14.98332031 -19.66015625 13.90625 C-17.25656459 10.02026701 -14.16673124 7.83123377 -10.51171875 5.1640625 C-9.85171875 4.65359375 -9.19171875 4.143125 -8.51171875 3.6171875 C-3.67148122 0.04968175 -3.67148122 0.04968175 0 0 Z " fill="#BE76C8" transform="translate(69.88671875,36.9609375)"/>
<path d="M0 0 C4.06243957 -0.05819473 8.12477146 -0.09366215 12.1875 -0.125 C13.33798828 -0.14175781 14.48847656 -0.15851563 15.67382812 -0.17578125 C16.78564453 -0.18222656 17.89746094 -0.18867187 19.04296875 -0.1953125 C20.06414795 -0.20578613 21.08532715 -0.21625977 22.13745117 -0.22705078 C27.4268896 0.19249529 31.21426827 2.32243204 35 6 C35 7.32 35 8.64 35 10 C32.0703125 9.95117188 32.0703125 9.95117188 29.140625 9.90234375 C27.02130544 9.92428698 27.02130544 9.92428698 25.11645508 10.4934082 C21.58532744 11.33861409 18.05330291 11.22558952 14.4375 11.25 C13.28604492 11.2809375 13.28604492 11.2809375 12.11132812 11.3125 C6.48816308 11.35171998 6.48816308 11.35171998 4.11328125 9.640625 C3.74589844 9.09921875 3.37851563 8.5578125 3 8 C2.2575 7.175 1.515 6.35 0.75 5.5 C0.1725 4.675 -0.405 3.85 -1 3 C-0.67 2.01 -0.34 1.02 0 0 Z " fill="#9017BB" transform="translate(61,68)"/>
<path d="M0 0 C0 7.92 0 15.84 0 24 C-7.84486874 21.75860893 -7.84486874 21.75860893 -10.6875 18.0625 C-12.44445801 15.8191288 -13.8584901 14.10039383 -16.19140625 12.4453125 C-16.78824219 11.96835938 -17.38507813 11.49140625 -18 11 C-18.25 7.8125 -18.25 7.8125 -18 5 C-16.730447 4.35165346 -15.45930294 3.70642185 -14.1875 3.0625 C-13.47980469 2.70285156 -12.77210937 2.34320313 -12.04296875 1.97265625 C-7.50982165 -0.18557248 -5.5218877 0 0 0 Z " fill="#BC71C6" transform="translate(128,0)"/>
<path d="M0 0 C2.80953052 1.40476526 3.64529235 3.22284931 5 6 C5 6.66 5 7.32 5 8 C5.61875 8.103125 6.2375 8.20625 6.875 8.3125 C9 9 9 9 11 12 C10.625 14.1875 10.625 14.1875 10 16 C-3.6332574 18.48063781 -3.6332574 18.48063781 -10 17 C-10.671875 15.31640625 -10.671875 15.31640625 -11 13 C-9.890625 10.52734375 -9.890625 10.52734375 -8.25 7.9375 C-7.71890625 7.08027344 -7.1878125 6.22304688 -6.640625 5.33984375 C-2.89649416 0 -2.89649416 0 0 0 Z " fill="#9017BB" transform="translate(67,46)"/>
<path d="M0 0 C6.27 0 12.54 0 19 0 C15.98594239 3.01405761 13.15992347 5.7836828 9.9375 8.5 C6.90353182 11.11115529 4.48004723 13.85224775 2 17 C1.34 17 0.68 17 0 17 C0 11.39 0 5.78 0 0 Z " fill="#ECDAEC" transform="translate(0,0)"/>
<path d="M0 0 C1.9375 1.4375 1.9375 1.4375 3 4 C2.72695868 7.12359267 2.12343418 10.06956059 1 13 C0.01 13.495 0.01 13.495 -1 14 C-2.3218362 12.92807816 -3.63217927 11.84197305 -4.9375 10.75 C-5.66839844 10.14671875 -6.39929688 9.5434375 -7.15234375 8.921875 C-9.10326334 6.89258866 -9.61731779 5.745593 -10 3 C-6.57592924 0.65206576 -4.19424661 -0.77262438 0 0 Z " fill="#ECDAEC" transform="translate(122,4)"/>
<path d="M0 0 C4.02152847 1.34050949 4.70273254 3.51929173 7 7 C8.31558703 8.02323436 9.64377755 9.03126968 11 10 C11 10.66 11 11.32 11 12 C7.37 12 3.74 12 0 12 C0 8.04 0 4.08 0 0 Z " fill="#ECDAEC" transform="translate(0,116)"/>
<path d="M0 0 C0.99 0 1.98 0 3 0 C1.54578942 3.77612693 -0.12295575 4.84545723 -3.6875 6.625 C-8.89263839 9.543488 -11.486879 12.9584864 -14.52734375 18.0234375 C-15.01332031 18.67570312 -15.49929688 19.32796875 -16 20 C-16.99 20 -17.98 20 -19 20 C-19 17 -19 17 -16.9375 14.75 C-16.48117188 14.32332031 -16.02484375 13.89664062 -15.5546875 13.45703125 C-13.82845888 11.83923407 -12.20399308 10.14100504 -10.5625 8.4375 C-7.58873603 5.45072174 -4.57682891 3.21422742 -1 1 C-0.67 0.67 -0.34 0.34 0 0 Z " fill="#BD73C7" transform="translate(19,0)"/>
<path d="M0 0 C3.82440382 1.50244436 5.83472958 3.52010111 8 7 C8.25 10.8125 8.25 10.8125 8 14 C7.01 14.33 6.02 14.66 5 15 C4.97421875 14.30132812 4.9484375 13.60265625 4.921875 12.8828125 C4.86515625 11.97273438 4.8084375 11.06265625 4.75 10.125 C4.70359375 9.22007813 4.6571875 8.31515625 4.609375 7.3828125 C4.24388852 4.82889456 4.24388852 4.82889456 1.953125 3.6796875 C1.30859375 3.45539062 0.6640625 3.23109375 0 3 C0 2.01 0 1.02 0 0 Z " fill="#ECDAEC" transform="translate(40,52)"/>
<path d="M0 0 C1.8125 0.125 1.8125 0.125 4 1 C5 3 6 5 7 7 C8.50443926 8.43001591 8.50443926 8.43001591 10.1875 9.6875 C11.5796875 10.8321875 11.5796875 10.8321875 13 12 C13 12.99 13 13.98 13 15 C11 15 11 15 8.625 12.875 C6.06336487 10.06939961 4.08577619 7.16462595 2 4 C1.34 3.67 0.68 3.34 0 3 C0 2.01 0 1.02 0 0 Z " fill="#BD73C7" transform="translate(0,113)"/>
<path d="M0 0 C-1.66751148 3.94139078 -4.22710649 6.7892812 -7 10 C-7.99 9.67 -8.98 9.34 -10 9 C-8.9789114 5.32408105 -8.08564783 4.0660202 -5 1.6875 C-2 0 -2 0 0 0 Z " fill="#ECDAEC" transform="translate(62,45)"/>
</svg>
