<?xml version="1.0" encoding="UTF-8"?>
<svg version="1.1" xmlns="http://www.w3.org/2000/svg" width="128" height="128">
<path d="M0 0 C42.24 0 84.48 0 128 0 C128 42.24 128 84.48 128 128 C85.76 128 43.52 128 0 128 C0 85.76 0 43.52 0 0 Z " fill="#F7CC1F" transform="translate(0,0)"/>
<path d="M0 0 C42.24 0 84.48 0 128 0 C128 13.53 128 27.06 128 41 C124.19410499 39.0970525 123.01643927 37.77539021 120.47265625 34.5859375 C115.09525901 28.79489432 106.96725586 25.46284652 99.25 24.5625 C95.35650663 25.08662411 94.64325102 26.26864062 92 29 C88.04549161 28.6743346 85.51325511 27.26063519 82.3125 25 C75.4313449 20.18897391 69.22999304 20.25637626 61 21 C52.25268431 23.92386003 46.95171565 30.45566244 42.6875 38.3125 C42.32849609 38.95767578 41.96949219 39.60285156 41.59960938 40.26757812 C40.72554525 41.84089355 39.86169217 43.41987465 39 45 C35.16736572 43.32960249 32.06480994 40.82512185 28.8125 38.25 C19.68660832 30.63310244 19.68660832 30.63310244 9 26 C5.22299688 61.85535541 5.22299688 61.85535541 18.43359375 93.46484375 C23.78065994 98.7052353 29.5452016 100.82981289 36.96484375 101.1953125 C38.27582031 101.17210938 39.58679687 101.14890625 40.9375 101.125 C44.4334375 101.063125 44.4334375 101.063125 48 101 C48.99 107.6 49.98 114.2 51 121 C52.65 121.33 54.3 121.66 56 122 C58.55555453 115.01481761 59.12806403 108.47123552 59.0625 101.0625 C59.05798828 100.37865234 59.05347656 99.69480469 59.04882812 98.99023438 C59.0371956 97.32678396 59.01926694 95.6633795 59 94 C59.66 94 60.32 94 61 94 C61.45375 94.78375 61.9075 95.5675 62.375 96.375 C64.20724336 99.33477773 64.78892423 99.85654375 68 101 C70.73483832 101.22096805 73.32986609 101.33319268 76.0625 101.3125 C76.82111328 101.30758545 77.57972656 101.3026709 78.36132812 101.29760742 C93.00731673 100.99429733 104.3478926 94.80558231 115 85 C119.74021935 79.82556208 123.10484213 74.36934732 126 68 C126.66 68 127.32 68 128 68 C128 87.8 128 107.6 128 128 C85.76 128 43.52 128 0 128 C0 85.76 0 43.52 0 0 Z " fill="#FCFCFC" transform="translate(0,0)"/>
<path d="M0 0 C5.09219146 0.46772722 7.82519967 1.97572665 11.8125 5.125 C12.85148437 5.93453125 13.89046875 6.7440625 14.9609375 7.578125 C15.96382812 8.37734375 16.96671875 9.1765625 18 10 C19.64425361 11.29367701 21.28990664 12.58557911 22.9375 13.875 C23.60652344 14.40867187 24.27554688 14.94234375 24.96484375 15.4921875 C27.01744215 17.08668941 27.01744215 17.08668941 29.55078125 18.3828125 C34.32839121 21.53740663 36.42350954 27.02795589 39 32 C39.37237793 32.71349609 39.74475586 33.42699219 40.12841797 34.16210938 C45.55837178 44.70300441 50.20311388 55.19841741 52 67 C51.67 67.66 51.34 68.32 51 69 C50.97966463 71.18750469 51.0082397 73.37557382 51.0625 75.5625 C51.11463061 82.82354894 50.71930648 89.60830294 47 96 C45 96.875 45 96.875 43 97 C38.9474396 92.9474396 39.16266825 85.14153054 38.875 79.5859375 C38.875 78.05672391 38.9289506 76.52756217 39 75 C38.44699219 75.15984375 37.89398438 75.3196875 37.32421875 75.484375 C29.8861477 77.13450169 21.76319336 76.60383305 15 73 C6.24685625 66.72149301 0.76836203 58.6207649 -1.40625 48.01953125 C-2.90513616 36.92361008 -2.03576556 25.46164991 -1.5625 14.3125 C-1.52334473 13.35577393 -1.48418945 12.39904785 -1.44384766 11.41333008 C-1.40179199 10.50993896 -1.35973633 9.60654785 -1.31640625 8.67578125 C-1.27974854 7.87052002 -1.24309082 7.06525879 -1.20532227 6.2355957 C-1.00592992 4.06456628 -0.58928603 2.09560539 0 0 Z " fill="#34AA49" transform="translate(9,26)"/>
<path d="M0 0 C6.92700925 3.80985509 10.56567201 8.97937291 13.875 16.03125 C14.21917969 16.70414063 14.56335938 17.37703125 14.91796875 18.0703125 C17.38911742 23.48741569 16.84699614 27.50192749 14.875 33.03125 C10.49386921 44.10356237 0.33347022 51.94351346 -10.2265625 57.046875 C-11.85096596 57.72872337 -13.48695523 58.38285728 -15.125 59.03125 C-15.455 59.36125 -15.785 59.69125 -16.125 60.03125 C-17.79117115 60.07188832 -19.45888095 60.073971 -21.125 60.03125 C-21.29773437 59.45761719 -21.47046875 58.88398437 -21.6484375 58.29296875 C-24.71832478 49.01289665 -29.3904209 40.62008081 -34.04345703 32.05493164 C-34.40036621 31.3871167 -34.75727539 30.71930176 -35.125 30.03125 C-35.49222168 29.3498999 -35.85944336 28.6685498 -36.23779297 27.96655273 C-37.70263842 24.77122256 -37.5195432 22.52577551 -37.125 19.03125 C-33.53424969 9.53505082 -27.95171158 3.83239019 -19.125 -0.96875 C-12.85258295 -3.05955568 -6.05486147 -2.63679451 0 0 Z " fill="#F16135" transform="translate(79.125,22.96875)"/>
<path d="M0 0 C5.05296625 1.29261927 7.51959759 3.16263324 11 7 C11.928125 7.928125 12.85625 8.85625 13.8125 9.8125 C14.8953125 10.8953125 14.8953125 10.8953125 16 12 C11.99260849 10.66420283 9.04033457 8.68497171 5.74609375 6.12109375 C3.83691676 4.89529107 2.19677083 4.49948527 0 4 C-3.77700312 39.85535541 -3.77700312 39.85535541 9.43359375 71.46484375 C14.78065994 76.7052353 20.5452016 78.82981289 27.96484375 79.1953125 C29.27582031 79.17210938 30.58679687 79.14890625 31.9375 79.125 C35.4334375 79.063125 35.4334375 79.063125 39 79 C39.99 85.6 40.98 92.2 42 99 C43.65 99.33 45.3 99.66 47 100 C49.55555453 93.01481761 50.12806403 86.47123552 50.0625 79.0625 C50.05798828 78.37865234 50.05347656 77.69480469 50.04882812 76.99023438 C50.0371956 75.32678396 50.01926694 73.6633795 50 72 C50.66 72 51.32 72 52 72 C54.83427081 76.99371524 53.77723221 81.52457828 52.9375 86.9375 C52.77217773 88.25911133 52.77217773 88.25911133 52.60351562 89.60742188 C51.71880936 95.54251162 50.26087885 98.75311418 46 103 C43.6875 102.9375 43.6875 102.9375 41 102 C37.56985896 96.3647683 37.34000493 90.48354238 37 84 C36.12859375 83.99742188 35.2571875 83.99484375 34.359375 83.9921875 C25.4771052 83.70380212 18.36891013 82.1559557 11 77 C9.62562807 75.36700969 8.2863593 73.70318388 7 72 C6.175 71.401875 5.35 70.80375 4.5 70.1875 C-2.15151963 64.36742032 -3.69927756 55.11262432 -4.484375 46.66015625 C-5.14467988 36.74371484 -4.95055413 26.97478717 -4.25 17.0625 C-4.17620117 15.94302979 -4.10240234 14.82355957 -4.02636719 13.67016602 C-3.94032227 12.61498779 -3.85427734 11.55980957 -3.765625 10.47265625 C-3.69118164 9.53687744 -3.61673828 8.60109863 -3.54003906 7.63696289 C-2.91879678 4.60349188 -1.71870843 2.55407933 0 0 Z " fill="#C2DFC6" transform="translate(9,22)"/>
<path d="M0 0 C1.8125 0.0625 1.8125 0.0625 4 1 C8.87952017 8.49354883 7.87323846 18.67751175 6.125 27.125 C5.4278809 29.96880331 4.47612146 32.46325793 3 35 C1 35.875 1 35.875 -1 36 C-4.19472108 32.80527892 -4.1334426 28.79035182 -4.8125 24.4375 C-5.05129883 23.13329102 -5.05129883 23.13329102 -5.29492188 21.80273438 C-6.60975394 13.44638459 -4.74197316 7.00005562 0 0 Z " fill="#19A2C9" transform="translate(53,87)"/>
<path d="M0 0 C4.67804452 1.88865152 8.44175429 4.44175429 12 8 C14.06874034 8.6425235 14.06874034 8.6425235 16 9 C16.28875 8.360625 16.5775 7.72125 16.875 7.0625 C18 5 18 5 20 4 C27.88948405 2.97093686 35.37715253 6.28555197 41.6328125 10.97265625 C43.83597451 12.91769202 45.93689514 14.90777874 48 17 C48.7425 17.67933594 49.485 18.35867187 50.25 19.05859375 C52 21 52 21 52 24 C50.25 23.875 50.25 23.875 48 23 C47.09420694 21.59098857 46.19191935 20.17952747 45.3125 18.75390625 C40.63088647 12.4978215 33.58793813 8.48729096 26 7 C23.59920197 6.8054602 21.41288715 6.84598593 19 7 C19.2475 8.485 19.2475 8.485 19.5 10 C20.08474517 14.02732942 20.07132024 17.93474623 20 22 C17 21 17 21 16.0078125 19.328125 C15.71648437 18.64234375 15.42515625 17.9565625 15.125 17.25 C13.30755343 13.3801518 11.24384958 10.84825817 8 8 C7.195625 7.278125 6.39125 6.55625 5.5625 5.8125 C-0.10584423 1.80318335 -6.22404155 1.02489878 -13 2 C-21.24219988 4.89493813 -26.66180831 9.20120524 -30.75 16.9375 C-32.50326096 20.61440152 -33.6759671 23.89558321 -34 28 C-34.99 26.68 -35.98 25.36 -37 24 C-35.94912082 21.93155482 -34.88374228 19.87047291 -33.8125 17.8125 C-32.92498047 16.08966797 -32.92498047 16.08966797 -32.01953125 14.33203125 C-29.09797037 9.51173835 -25.64009124 6.1260118 -20.8125 3.25 C-19.80123047 2.63898437 -19.80123047 2.63898437 -18.76953125 2.015625 C-13.03156446 -1.27768928 -6.41978358 -0.69627503 0 0 Z " fill="#F0D377" transform="translate(76,20)"/>
<path d="M0 0 C2.16118778 1.55494453 4.03879163 3.18588225 6 5 C6.804375 4.566875 6.804375 4.566875 7.625 4.125 C13.29398714 1.4396903 17.83383371 0.30049127 24 2 C32.66912756 5.59648016 40.56373821 10.17332522 46 18 C46 18.66 46 19.32 46 20 C42.40610305 18.66892705 40.813394 16.52080747 38.47265625 13.5859375 C33.09525901 7.79489432 24.96725586 4.46284652 17.25 3.5625 C13.35650663 4.08662411 12.64325102 5.26864062 10 8 C6.04549161 7.6743346 3.51325511 6.26063519 0.3125 4 C-6.5686551 -0.81102609 -12.77000696 -0.74362374 -21 0 C-29.74731569 2.92386003 -35.04828435 9.45566244 -39.3125 17.3125 C-39.67150391 17.95767578 -40.03050781 18.60285156 -40.40039062 19.26757812 C-41.27445475 20.84089355 -42.13830783 22.41987465 -43 24 C-46.52238047 22.43632643 -49.27123994 20.30504111 -52.25 17.875 C-53.14203125 17.15054688 -54.0340625 16.42609375 -54.953125 15.6796875 C-55.62859375 15.12539063 -56.3040625 14.57109375 -57 14 C-52.79435672 14 -51.10056968 16.0995339 -47.9375 18.6875 C-45.97607493 20.28042407 -45.97607493 20.28042407 -43 20 C-42.57589844 19.13117187 -42.15179688 18.26234375 -41.71484375 17.3671875 C-36.74732812 7.6068381 -32.23884035 1.52672165 -21.6796875 -2.30859375 C-14.27995961 -4.21785299 -6.72588482 -3.75125602 0 0 Z " fill="#E7EBD0" transform="translate(82,21)"/>
<path d="M0 0 C3.1804888 1.44961054 5.71997367 3.24746578 8.4375 5.4375 C10.77425264 7.31909387 12.94511561 8.97002532 15.58203125 10.41015625 C20.34532608 13.54208031 22.43510983 19.05034181 25 24 C25.37237793 24.71349609 25.74475586 25.42699219 26.12841797 26.16210938 C31.64009003 36.86163991 35.66912707 47.18263725 38 59 C37.01 59.495 37.01 59.495 36 60 C33.93726055 56.06204287 32.40292709 52.20878128 31 48 C30.505 47.030625 30.01 46.06125 29.5 45.0625 C28 42 28 42 27.1875 38.75 C25.86857373 34.58496966 23.95443972 31.4297107 21.63671875 27.75390625 C19.89773578 24.82793252 18.49005834 21.83857796 17.0625 18.75 C14.45614262 13.44226179 11.73419724 10.41800878 7 7 C5.67771744 5.90756734 4.3649466 4.80350767 3.0625 3.6875 C2.47597656 3.19636719 1.88945312 2.70523438 1.28515625 2.19921875 C0.86105469 1.80347656 0.43695312 1.40773437 0 1 C0 0.67 0 0.34 0 0 Z " fill="#70B56A" transform="translate(23,34)"/>
<path d="M0 0 C0.99 0 1.98 0 3 0 C3 3 3 3 1.6015625 4.46484375 C1.07304688 4.97144531 0.54453125 5.47804688 0 6 C-0.53625 7.175625 -1.0725 8.35125 -1.625 9.5625 C-7.62545822 21.92708058 -20.15704593 31.09564411 -32.8984375 35.68359375 C-38.10683958 37.13037211 -43.37836226 37.23262435 -48.75 37.3125 C-49.483396 37.33022461 -50.21679199 37.34794922 -50.97241211 37.36621094 C-55.5056248 37.35999609 -58.42153504 36.82963803 -62 34 C-62.66 33.01 -63.32 32.02 -64 31 C-63.67 30.01 -63.34 29.02 -63 28 C-60 31.75 -60 31.75 -60 34 C-56.83341337 34.05880804 -53.66697007 34.09386406 -50.5 34.125 C-49.1696875 34.15013672 -49.1696875 34.15013672 -47.8125 34.17578125 C-33.91648462 34.27795783 -22.30521232 29.0247928 -12.2578125 19.4296875 C-6.8737927 13.63581153 -2.74171212 7.41875045 0 0 Z " fill="#F0D478" transform="translate(125,65)"/>
<path d="M0 0 C0.66 0 1.32 0 2 0 C4.83427081 4.99371524 3.77723221 9.52457828 2.9375 14.9375 C2.77217773 16.25911133 2.77217773 16.25911133 2.60351562 17.60742188 C1.71880936 23.54251162 0.26087885 26.75311418 -4 31 C-6.3125 30.9375 -6.3125 30.9375 -9 30 C-12.86550345 23.92563744 -12.69338905 17.03090618 -13 10 C-13.68964844 10.03480469 -14.37929688 10.06960937 -15.08984375 10.10546875 C-21.68519186 10.2954582 -26.90334573 9.52898251 -33 7 C-29.98968256 6.06576355 -29.13349732 5.95550089 -26 7 C-23.42502932 7.07035439 -20.88550071 7.0934934 -18.3125 7.0625 C-15.899375 7.041875 -13.48625 7.02125 -11 7 C-10.01 13.6 -9.02 20.2 -8 27 C-6.35 27.33 -4.7 27.66 -3 28 C-0.44444547 21.01481761 0.12806403 14.47123552 0.0625 7.0625 C0.05798828 6.37865234 0.05347656 5.69480469 0.04882812 4.99023438 C0.0371956 3.32678396 0.01926694 1.6633795 0 0 Z " fill="#9DD3BC" transform="translate(59,94)"/>
<path d="M0 0 C0.66 0 1.32 0 2 0 C2 0.99 2 1.98 2 3 C1.34 3 0.68 3 0 3 C-0.20625 3.825 -0.4125 4.65 -0.625 5.5 C-5.27383006 17.33338559 -16.54905401 26.80088669 -27.87109375 32.0859375 C-28.57363281 32.38757813 -29.27617188 32.68921875 -30 33 C-30.69222656 33.30164063 -31.38445312 33.60328125 -32.09765625 33.9140625 C-37.78826487 36.00289654 -43.25171613 36.28102565 -49.25 36.3125 C-50.01876465 36.31797852 -50.7875293 36.32345703 -51.57958984 36.32910156 C-56.09204458 36.27226717 -59.75280874 35.69752389 -64 34 C-64 33.01 -64 32.02 -64 31 C-63.17886719 31.32355469 -62.35773437 31.64710937 -61.51171875 31.98046875 C-57.55164172 33.13016853 -53.89877455 33.34416587 -49.8125 33.3125 C-49.06291016 33.30758545 -48.31332031 33.3026709 -47.54101562 33.29760742 C-32.94411602 32.99167498 -21.6110384 26.76777707 -11 17 C-6.25978065 11.82556208 -2.89515787 6.36934732 0 0 Z " fill="#E7EBD0" transform="translate(126,68)"/>
<path d="M0 0 C0.66 0.66 1.32 1.32 2 2 C1.02160156 2.01417969 0.04320312 2.02835938 -0.96484375 2.04296875 C-10.56382598 2.39219426 -17.17458311 3.67770715 -24.47265625 10.21484375 C-27.33829671 13.37280611 -29.28928279 16.5847127 -31.3125 20.3125 C-31.67150391 20.95767578 -32.03050781 21.60285156 -32.40039062 22.26757812 C-33.27445475 23.84089355 -34.13830783 25.41987465 -35 27 C-38.52238047 25.43632643 -41.27123994 23.30504111 -44.25 20.875 C-45.14203125 20.15054688 -46.0340625 19.42609375 -46.953125 18.6796875 C-47.62859375 18.12539063 -48.3040625 17.57109375 -49 17 C-44.79435672 17 -43.10056968 19.0995339 -39.9375 21.6875 C-37.97607493 23.28042407 -37.97607493 23.28042407 -35 23 C-34.57589844 22.13117187 -34.15179688 21.26234375 -33.71484375 20.3671875 C-28.7435986 10.59951022 -24.24193938 4.56681818 -13.703125 0.6875 C-9.18482147 -0.4616639 -4.61535745 -0.68909851 0 0 Z " fill="#D6E5CB" transform="translate(74,18)"/>
</svg>
