<?xml version="1.0" encoding="UTF-8"?>
<svg version="1.1" xmlns="http://www.w3.org/2000/svg" width="128" height="128">
<path d="M0 0 C42.24 0 84.48 0 128 0 C128 42.24 128 84.48 128 128 C85.76 128 43.52 128 0 128 C0 85.76 0 43.52 0 0 Z " fill="#FBFCFB" transform="translate(0,0)"/>
<path d="M0 0 C31.68 0 63.36 0 96 0 C96 42.24 96 84.48 96 128 C73.89 128 51.78 128 29 128 C32.8879596 125.0840303 33.629735 124.70464256 38.0625 124.25 C40.69909336 123.84951517 40.69909336 123.84951517 43 123 C44.80825188 120.17190814 44.80825188 120.17190814 45.35546875 118 C46.11186091 115.65289222 47.25140204 113.91798513 48.625 111.875 C51.93960042 106.68909364 52.46535112 102.16590237 52 96 C51.01 95.34 50.02 94.68 49 94 C46.3576127 85.77135766 49.052304 77.01719033 52.22265625 69.3515625 C53.65341982 65.02332297 54.23934439 60.46968226 54.9609375 55.9765625 C56 53 56 53 58.6015625 51.5859375 C59.39304688 51.39257812 60.18453125 51.19921875 61 51 C61.04125 49.989375 61.0825 48.97875 61.125 47.9375 C61.81497093 43.13685721 64.50013497 40.20148944 68 37 C69.093125 36.34 70.18625 35.68 71.3125 35 C74.38799323 33.1605772 74.38799323 33.1605772 74.875 29.25 C74.91625 28.1775 74.9575 27.105 75 26 C70.12128699 26.65862334 70.12128699 26.65862334 65.3125 27.6875 C62.53819536 28.06240603 61.3326456 27.46870279 59 26 C59 25.34 59 24.68 59 24 C57.5608866 24.28359887 56.12374482 24.57721399 54.6875 24.875 C53.48673828 25.11863281 53.48673828 25.11863281 52.26171875 25.3671875 C49.74698882 25.94478999 49.74698882 25.94478999 47 28 C43.3125 27.625 43.3125 27.625 40 27 C38.77862855 23.33588565 39.01593131 20.29750176 39.16015625 16.47265625 C38.89613267 12.39638975 37.57229997 10.51360254 34.5625 7.8125 C32.06598637 5.86107443 32.06598637 5.86107443 29 5 C30.3089572 8.12197478 30.3089572 8.12197478 33 10 C33 10.66 33 11.32 33 12 C34.32 12.66 35.64 13.32 37 14 C36.7834375 14.60328125 36.566875 15.2065625 36.34375 15.828125 C36.0653125 16.62734375 35.786875 17.4265625 35.5 18.25 C35.2215625 19.03890625 34.943125 19.8278125 34.65625 20.640625 C33.82135139 23.23412738 33.82135139 23.23412738 34 27 C34.70125 27.31710938 35.4025 27.63421875 36.125 27.9609375 C43.42308296 31.55048374 48.99958512 35.76715819 53 43 C53.20703125 45.80859375 53.20703125 45.80859375 53 48 C50.875 48.8125 50.875 48.8125 48 49 C44.8125 46.625 44.8125 46.625 42 44 C39.55028376 42.77514188 37.85765539 42.83277192 35.125 42.8125 C34.26132813 42.79832031 33.39765625 42.78414062 32.5078125 42.76953125 C29.81533979 43.01697033 28.24730032 43.51172164 26 45 C25.525625 45.969375 25.05125 46.93875 24.5625 47.9375 C22.81147308 51.36951277 21.40538973 52.34332392 18 54 C17.505 53.505 17.505 53.505 17 53 C17.05078125 51.07421875 17.05078125 51.07421875 17.3125 48.6875 C17.43044922 47.51767578 17.43044922 47.51767578 17.55078125 46.32421875 C18 44 18 44 19.02734375 42.26171875 C20.58205315 38.6465511 20.28770584 35.01498589 20.25 31.125 C20.25773437 30.33480469 20.26546875 29.54460938 20.2734375 28.73046875 C20.25801127 24.09488682 19.76627829 20.35962339 18 16 C17.34 16 16.68 16 16 16 C14.41152137 13.79428396 13.04182517 11.48782685 11.6328125 9.1640625 C9.88539512 6.84810741 8.59765698 6.16296777 6 5 C5.67 4.34 5.34 3.68 5 3 C3.35636866 2.27840576 1.68949614 1.60648579 0 1 C0 0.67 0 0.34 0 0 Z " fill="#FBFCFB" transform="translate(32,0)"/>
<path d="M0 0 C4.04735532 1.40016617 6.98480422 3.3181237 10.3125 6 C11.19550781 6.70125 12.07851563 7.4025 12.98828125 8.125 C13.98408203 9.053125 13.98408203 9.053125 15 10 C15 10.66 15 11.32 15 12 C15.66 12 16.32 12 17 12 C20.09141873 17.11965112 20.46212431 21.07639304 20.375 26.875 C20.38660156 27.63941406 20.39820312 28.40382813 20.41015625 29.19140625 C20.38173615 34.77121845 19.11798685 38.85234693 17 44 C16.74485464 46.83535452 16.74485464 46.83535452 17 49 C21.60534366 46.75956254 22.79565006 44.50454119 25 40 C29.33246512 37.18437168 34.01268421 37.33921999 39 38 C42.23939656 39.73539102 44.42321134 41.42321134 47 44 C48.32 44 49.64 44 51 44 C50.87820807 38.1539873 49.14007821 35.11671121 45.18359375 30.84765625 C42.10381968 28.24169357 38.77720533 26.76328728 35.0390625 25.30078125 C33 24 33 24 32.12109375 21.65625 C31.98902706 18.75930323 32.42804961 16.89282704 33.4375 14.1875 C33.86869141 13.00220703 33.86869141 13.00220703 34.30859375 11.79296875 C34.53675781 11.20128906 34.76492187 10.60960937 35 10 C34.01 9.34 33.02 8.68 32 8 C32 7.34 32 6.68 32 6 C30.68 5.34 29.36 4.68 28 4 C28 3.01 28 2.02 28 1 C30.475 1.495 30.475 1.495 33 2 C33.495 3.485 33.495 3.485 34 5 C34.99 5.33 35.98 5.66 37 6 C39.44805497 9.40457976 39.20659925 12.67003768 39.125 16.75 C39.10695312 17.92046875 39.08890625 19.0909375 39.0703125 20.296875 C39.04710937 21.18890625 39.02390625 22.0809375 39 23 C43.98706536 23.34334415 43.98706536 23.34334415 48.5 21.5 C51.77674734 19.53395159 54.24912194 19.77936011 58 20 C58 20.66 58 21.32 58 22 C62.58219161 22.8811907 64.92224202 23.17480426 69 21 C71.75 21.375 71.75 21.375 74 22 C74.6875 23.6875 74.6875 23.6875 75 26 C73.04216803 30.60666347 70.09145524 32.32802923 66 35 C62.16134727 38.83865273 61.60127081 41.68877449 61 47 C60.34 47.66 59.68 48.32 59 49 C57.68 49 56.36 49 55 49 C55.0825 49.886875 55.165 50.77375 55.25 51.6875 C55.27751778 58.41559811 52.58546338 65.38582541 49.91015625 71.484375 C48.7960541 74.56369596 48.54127887 77.36208819 48.3125 80.625 C48.22613281 81.75164062 48.13976562 82.87828125 48.05078125 84.0390625 C47.83488422 87.05873461 47.83488422 87.05873461 49 90 C49.99 90.66 50.98 91.32 52 92 C52.73602691 99.65467988 50.29843729 104.76539621 46.23046875 110.96875 C45.04731029 112.92190048 44.19809978 114.81224766 43.375 116.9375 C42.92125 117.948125 42.4675 118.95875 42 120 C37.62382516 121.45872495 33.27315246 121.49472267 28.6875 121.75 C27.74970703 121.81832031 26.81191406 121.88664062 25.84570312 121.95703125 C20.37449988 122.25777392 16.76162701 122.09465876 12 119 C12 118.34 12 117.68 12 117 C11.1028125 116.9071875 11.1028125 116.9071875 10.1875 116.8125 C7.05975268 115.65076528 6.61156898 113.91322085 5 111 C4.00090945 109.83255442 3.00081178 108.66597037 2 107.5 C-2.50558387 101.57869651 -4.42026445 93.93439056 -3.6328125 86.5625 C-3.31957031 84.7990625 -3.31957031 84.7990625 -3 83 C-2.84402344 81.80503906 -2.68804688 80.61007813 -2.52734375 79.37890625 C-1.23213422 70.99864329 0.96462712 64.40520942 5.01245117 56.96044922 C8.11429132 51.14476839 9.7537318 45.41933822 11.2109375 39.01171875 C12 36 12 36 14 33 C15.29191858 24.94930736 13.56056961 17.72083943 9 11 C6.73732077 8.89482476 4.4653754 7.14263271 1.890625 5.4375 C0 4 0 4 -1 1 C-0.67 0.67 -0.34 0.34 0 0 Z " fill="#ACADAD" transform="translate(33,4)"/>
<path d="M0 0 C1.65 0.33 3.3 0.66 5 1 C5.33 1.99 5.66 2.98 6 4 C6.99 4.33 7.98 4.66 9 5 C11.44805497 8.40457976 11.20659925 11.67003768 11.125 15.75 C11.10695313 16.92046875 11.08890625 18.0909375 11.0703125 19.296875 C11.04710938 20.18890625 11.02390625 21.0809375 11 22 C15.98706536 22.34334415 15.98706536 22.34334415 20.5 20.5 C23.77674734 18.53395159 26.24912194 18.77936011 30 19 C30 19.66 30 20.32 30 21 C34.58219161 21.8811907 36.92224202 22.17480426 41 20 C43.75 20.375 43.75 20.375 46 21 C47.08657712 23.66705293 47.10903261 24.73423301 46 27.4375 C43.20296752 31.02119786 39.53708414 34.58896402 34.90234375 35.33984375 C32.77459543 35.83512862 32.77459543 35.83512862 31.875 38.14453125 C31.58625 39.02496094 31.2975 39.90539063 31 40.8125 C29.99057197 43.86331597 29.37843511 45.64965187 27 47.8515625 C24.30275931 50.74898903 23.77539102 53.79991067 23 57.5625 C21.88733936 62.52620277 20.65465017 67.20270064 18.75 71.9375 C16.85305161 76.88151509 16.49748401 80.7235821 17 86 C17.66 86.66 18.32 87.32 19 88 C19.39764263 89.98821313 19.73775349 91.98944339 20 94 C18.1875 93.875 18.1875 93.875 16 93 C15.608125 92.14148438 15.21625 91.28296875 14.8125 90.3984375 C12.48042841 86.02580328 9.38386721 83.13151519 5.8125 79.75 C4.52297632 78.52018826 3.23757981 77.28602939 1.95703125 76.046875 C1.38960205 75.50901367 0.82217285 74.97115234 0.23754883 74.41699219 C-1 73 -1 73 -1 71 C-1.57105469 70.80148438 -2.14210938 70.60296875 -2.73046875 70.3984375 C-5.88769233 68.45302263 -7.44244919 65.72921597 -9.3125 62.625 C-9.68439453 62.0475 -10.05628906 61.47 -10.43945312 60.875 C-11.93186891 58.44044465 -13.00518612 56.60781378 -12.98046875 53.7109375 C-12 52 -12 52 -10.05859375 51.05859375 C-7.79233794 50.15557965 -7.79233794 50.15557965 -6.91015625 47.72265625 C-6.49056641 46.40587891 -6.49056641 46.40587891 -6.0625 45.0625 C-4.89840558 41.9716286 -4.23016881 40.23016881 -1.875 37.875 C2.46956698 36.55274048 6.50536957 36.33119899 11 37 C14.23939656 38.73539102 16.42321134 40.42321134 19 43 C20.32 43 21.64 43 23 43 C22.87820807 37.1539873 21.14007821 34.11671121 17.18359375 29.84765625 C14.10381968 27.24169357 10.77720533 25.76328728 7.0390625 24.30078125 C5 23 5 23 4.12109375 20.65625 C3.98902706 17.75930323 4.42804961 15.89282704 5.4375 13.1875 C5.86869141 12.00220703 5.86869141 12.00220703 6.30859375 10.79296875 C6.53675781 10.20128906 6.76492187 9.60960937 7 9 C6.01 8.34 5.02 7.68 4 7 C4 6.34 4 5.68 4 5 C2.68 4.34 1.36 3.68 0 3 C0 2.01 0 1.02 0 0 Z " fill="#101011" transform="translate(61,5)"/>
<path d="M0 0 C0.99 0 1.98 0 3 0 C3.30292969 0.61488281 3.60585938 1.22976562 3.91796875 1.86328125 C4.33691406 2.67152344 4.75585938 3.47976562 5.1875 4.3125 C5.59355469 5.11300781 5.99960937 5.91351563 6.41796875 6.73828125 C8.30672931 9.4385093 10.14153343 10.39739818 13 12 C14.72227536 13.4170956 16.40941422 14.8777693 18.0625 16.375 C18.89910156 17.12523438 19.73570313 17.87546875 20.59765625 18.6484375 C24.457859 22.42704246 27.29213957 26.19359452 29.625 31.0625 C30.02976563 31.89910156 30.43453125 32.73570313 30.8515625 33.59765625 C31.42003906 34.78681641 31.42003906 34.78681641 32 36 C32.39574219 36.66515625 32.79148438 37.3303125 33.19921875 38.015625 C34.24043992 40.59582186 33.87158948 42.01734428 33.1875 44.6875 C32.99542969 45.47511719 32.80335937 46.26273438 32.60546875 47.07421875 C32 49 32 49 31 50 C29.00041636 50.04080783 26.99954746 50.04254356 25 50 C24.731875 48.906875 24.46375 47.81375 24.1875 46.6875 C23.33463221 43.07795409 23.33463221 43.07795409 21.3125 41.3125 C20.879375 40.879375 20.44625 40.44625 20 40 C20.25146579 37.86254078 20.45925779 36.54074221 22 35 C23.66617115 34.95936168 25.33388095 34.957279 27 35 C27 33.68 27 32.36 27 31 C26.278125 30.938125 25.55625 30.87625 24.8125 30.8125 C21.03862219 29.72226863 19.51902298 27.98305352 17 25 C15.98377342 23.00819591 14.98287008 21.00847365 14 19 C11.78521178 16.17423571 10.49855727 15.15911402 7.0625 14.0625 C3.22103629 13.98410278 1.87231377 14.43820664 -1 17 C-3.94298686 22.13256909 -4.65627677 27.18726289 -4 33 C-2.78719938 36.61155365 -2.78719938 36.61155365 0 39 C3.06336828 39.49562241 5.92624858 39.35466362 9 39 C9 38.34 9 37.68 9 37 C10.66611905 36.957279 12.33382885 36.95936168 14 37 C16.00173267 39.00173267 15.37497643 42.93706892 15.5234375 45.65234375 C15.78734527 48.36744646 15.78734527 48.36744646 19 50 C18.67 51.32 18.34 52.64 18 54 C15.8535247 53.88655624 13.70779408 53.75893655 11.5625 53.625 C10.36753906 53.55539063 9.17257813 53.48578125 7.94140625 53.4140625 C6.97074219 53.27742188 6.00007813 53.14078125 5 53 C4.67 52.34 4.34 51.68 4 51 C3.2575 50.608125 2.515 50.21625 1.75 49.8125 C-2.91930054 46.73500646 -5.76677364 42.56488607 -7.3125 37.1875 C-9.05019481 28.56522386 -8.17149856 19.47152524 -6 11 C-5.34 10.34 -4.68 9.68 -4 9 C-3.4297902 7.66587276 -2.91269425 6.30834833 -2.4375 4.9375 C-1.09722222 1.09722222 -1.09722222 1.09722222 0 0 Z " fill="#FAFBFA" transform="translate(44,65)"/>
<path d="M0 0 C6.96373947 2.25297454 11.50573965 6.71033137 15 13 C18.08527923 19.72776608 19.78696165 24.7330226 18 32 C17.22863214 33.864139 16.45693584 35.72814893 15.6796875 37.58984375 C14.77450079 40.79961501 14.74300814 43.85897637 14.625 47.1875 C14.29570995 53.64981716 14.29570995 53.64981716 11.625 56.8125 C10.75875 57.534375 9.8925 58.25625 9 59 C7.68272961 61.90608337 6.87195572 64.93569847 6 68 C5.4869081 69.56505921 4.966218 71.12765037 4.4375 72.6875 C4.19257812 73.43644531 3.94765625 74.18539062 3.6953125 74.95703125 C3.12974672 76.61877791 2.4826241 78.25259428 1.8125 79.875 C-0.42771685 88.49121865 0.79031793 96.22302241 5 104 C7.84496829 108.29516316 11.76998433 113.13871775 16.90258789 114.50732422 C19.03867724 114.83587641 21.15931796 115.06527661 23.3125 115.25 C24.05306641 115.32734375 24.79363281 115.4046875 25.55664062 115.484375 C27.36958268 115.67151741 29.18464954 115.83787704 31 116 C31 114.02 31 112.04 31 110 C30.01 109.67 29.02 109.34 28 109 C28 106.69 28 104.38 28 102 C28.99 102 29.98 102 31 102 C31.20753906 102.62648438 31.41507813 103.25296875 31.62890625 103.8984375 C33.26499528 108.71019903 33.26499528 108.71019903 36.82421875 112.04296875 C38.94822084 112.66050657 38.94822084 112.66050657 42 113 C41.67 114.65 41.34 116.3 41 118 C33.55413852 120.95266921 26.0470047 122.43395336 18 122 C14.57421875 120.5078125 14.57421875 120.5078125 12 119 C12 118.34 12 117.68 12 117 C11.1028125 116.9071875 11.1028125 116.9071875 10.1875 116.8125 C7.05975268 115.65076528 6.61156898 113.91322085 5 111 C4.00090945 109.83255442 3.00081178 108.66597037 2 107.5 C-2.50558387 101.57869651 -4.42026445 93.93439056 -3.6328125 86.5625 C-3.31957031 84.7990625 -3.31957031 84.7990625 -3 83 C-2.84402344 81.80503906 -2.68804688 80.61007813 -2.52734375 79.37890625 C-1.23213422 70.99864329 0.96462712 64.40520942 5.01245117 56.96044922 C8.11429132 51.14476839 9.7537318 45.41933822 11.2109375 39.01171875 C12 36 12 36 14 33 C15.29191858 24.94930736 13.56056961 17.72083943 9 11 C6.73732077 8.89482476 4.4653754 7.14263271 1.890625 5.4375 C0 4 0 4 -1 1 C-0.67 0.67 -0.34 0.34 0 0 Z " fill="#49494A" transform="translate(33,4)"/>
<path d="M0 0 C4.05107934 3.33180607 7.8137742 8.24174384 10 13 C10.1875 15.8125 10.1875 15.8125 10 18 C7.13099945 19.43450027 4.26527087 19.37911083 1.09375 19.62109375 C-1.21311098 19.83318777 -1.21311098 19.83318777 -3 22 C-6.06434726 21.84285399 -7.55269031 21.41646074 -9.8125 19.3125 C-11.3082321 16.39975854 -11.22022756 14.23000416 -11 11 C-10.34 10.67 -9.68 10.34 -9 10 C-8.649375 10.66 -8.29875 11.32 -7.9375 12 C-6.03442858 14.41103961 -6.03442858 14.41103961 -2.3125 14.25 C-1.219375 14.1675 -0.12625 14.085 1 14 C0.67 13.01 0.34 12.02 0 11 C-2.09719872 9.97718482 -2.09719872 9.97718482 -4.5625 9.3125 C-5.38878906 9.06113281 -6.21507812 8.80976562 -7.06640625 8.55078125 C-7.70449219 8.36902344 -8.34257813 8.18726562 -9 8 C-8.64005447 5.3364031 -8.28838998 3.41816548 -6.75 1.1875 C-4.32986884 -0.45473186 -2.88210311 -0.33552842 0 0 Z " fill="#111212" transform="translate(53,81)"/>
<path d="M0 0 C3.36704285 -0.2295711 5.41370268 -0.33943529 8.375 1.375 C8.91125 1.91125 9.4475 2.4475 10 3 C10 3.66 10 4.32 10 5 C10.639375 5.268125 11.27875 5.53625 11.9375 5.8125 C14 7 14 7 15 10 C15.068991 12.06145107 15.08467727 14.12501401 15.0625 16.1875 C15.05347656 17.27417969 15.04445313 18.36085938 15.03515625 19.48046875 C15.02355469 20.31191406 15.01195313 21.14335937 15 22 C15.89203125 21.72285156 16.7840625 21.44570313 17.703125 21.16015625 C18.87359375 20.79792969 20.0440625 20.43570312 21.25 20.0625 C22.41015625 19.70285156 23.5703125 19.34320312 24.765625 18.97265625 C25.83296875 18.65167969 26.9003125 18.33070312 28 18 C28.75796875 17.75121094 29.5159375 17.50242187 30.296875 17.24609375 C30.85890625 17.16488281 31.4209375 17.08367188 32 17 C33.33333333 18.33333333 34.66666667 19.66666667 36 21 C37.89880915 20.64041272 37.89880915 20.64041272 40 20 C41.58211573 19.93451508 43.16670081 19.91421619 44.75 19.9375 C45.54921875 19.94652344 46.3484375 19.95554687 47.171875 19.96484375 C47.77515625 19.97644531 48.3784375 19.98804687 49 20 C51.13181214 23.74287627 50.95685425 25.78984129 50 30 C49.01 30 48.02 30 47 30 C47.33 27.69 47.66 25.38 48 23 C43.12128699 23.65862334 43.12128699 23.65862334 38.3125 24.6875 C35.53819536 25.06240603 34.3326456 24.46870279 32 23 C32 22.34 32 21.68 32 21 C30.5608866 21.28359887 29.12374482 21.57721399 27.6875 21.875 C26.88699219 22.03742187 26.08648437 22.19984375 25.26171875 22.3671875 C22.74698882 22.94478999 22.74698882 22.94478999 20 25 C16.3125 24.625 16.3125 24.625 13 24 C11.77862855 20.33588565 12.01593131 17.29750176 12.16015625 13.47265625 C11.89613267 9.39638975 10.57229997 7.51360254 7.5625 4.8125 C5.06598637 2.86107443 5.06598637 2.86107443 2 2 C3.3089572 5.12197478 3.3089572 5.12197478 6 7 C6 7.66 6 8.32 6 9 C7.32 9.66 8.64 10.32 10 11 C7 12 7 12 5.0625 11.375 C2.33888415 9.5592561 0.74173077 7.77386752 -1 5 C-0.75 2.1875 -0.75 2.1875 0 0 Z " fill="#B2B3B3" transform="translate(59,3)"/>
<path d="M0 0 C2.36378734 1.72921356 4.48163235 3.47726464 6 6 C5.66015625 8.19921875 5.66015625 8.19921875 5 10 C4.62488281 9.4946875 4.24976562 8.989375 3.86328125 8.46875 C0.80851568 4.36905248 0.80851568 4.36905248 -3.6875 2.375 C-6.38209298 3.10326837 -7.43319728 3.69102757 -9 6 C-9 7.32 -9 8.64 -9 10 C-6.03 10.99 -3.06 11.98 0 13 C0 14.32 0 15.64 0 17 C-6.4 17.49230769 -6.4 17.49230769 -9.4375 15 C-9.953125 14.34 -10.46875 13.68 -11 13 C-11.30495485 17.42664564 -11.30495485 17.42664564 -9.5 21.375 C-9.005 21.91125 -8.51 22.4475 -8 23 C-4.70924004 22.62095792 -4.70924004 22.62095792 -2 21 C-0.15108054 20.76636119 1.70488031 20.58696365 3.5625 20.4375 C5.08037109 20.31181641 5.08037109 20.31181641 6.62890625 20.18359375 C7.80259766 20.09271484 7.80259766 20.09271484 9 20 C8.67 17.69 8.34 15.38 8 13 C8.99 13.66 9.98 14.32 11 15 C11.3125 17.5 11.3125 17.5 11 20 C9 22 9 22 6.6171875 22.1953125 C5.71226563 22.17210938 4.80734375 22.14890625 3.875 22.125 C2.96492188 22.10695313 2.05484375 22.08890625 1.1171875 22.0703125 C0.41851562 22.04710938 -0.28015625 22.02390625 -1 22 C-1 22.99 -1 23.98 -1 25 C-4.22054507 26.61027254 -6.45055279 26.48128098 -10 26 C-13.72578135 22.960059 -14.9037 19.75836251 -15.5 15.0625 C-15.06044481 9.1053704 -13.65239637 4.50551669 -9.1875 0.4375 C-5.35010455 -1.29309011 -3.9351635 -1.47568631 0 0 Z " fill="#A4A5A5" transform="translate(54,79)"/>
<path d="M0 0 C2.475 0.495 2.475 0.495 5 1 C5.33 1.99 5.66 2.98 6 4 C6.99 4.33 7.98 4.66 9 5 C11.44805497 8.40457976 11.20659925 11.67003768 11.125 15.75 C11.10695313 16.92046875 11.08890625 18.0909375 11.0703125 19.296875 C11.04710938 20.18890625 11.02390625 21.0809375 11 22 C15.98706536 22.34334415 15.98706536 22.34334415 20.5 20.5 C23.77674734 18.53395159 26.24912194 18.77936011 30 19 C30 19.66 30 20.32 30 21 C34.58219161 21.8811907 36.92224202 22.17480426 41 20 C43.75 20.375 43.75 20.375 46 21 C47.08657712 23.66705293 47.10903261 24.73423301 46 27.4375 C43.51239811 30.62473993 40.72167758 33.31924238 37 35 C34.77734375 34.6328125 34.77734375 34.6328125 33 34 C35.35328398 31.36432194 37.58001086 29.61129067 40.6875 28 C44.09973441 26.38532219 44.09973441 26.38532219 44.9375 23.75 C44.958125 23.1725 44.97875 22.595 45 22 C44.319375 22.33 43.63875 22.66 42.9375 23 C39.38445726 24.20954646 36.73590914 24.33356332 33 24 C32.154375 23.484375 31.30875 22.96875 30.4375 22.4375 C28.01242913 20.70197112 28.01242913 20.70197112 24.8125 21.1875 C21.89212531 21.78582313 21.89212531 21.78582313 20 24 C13.67741935 24.33870968 13.67741935 24.33870968 11 23 C10.67 23.99 10.34 24.98 10 26 C8.02 24.68 6.04 23.36 4 22 C4.656379 17.51474352 5.70074209 13.33085971 7 9 C6.01 8.34 5.02 7.68 4 7 C4 6.34 4 5.68 4 5 C2.68 4.34 1.36 3.68 0 3 C0 2.01 0 1.02 0 0 Z " fill="#4A4A4B" transform="translate(61,5)"/>
<path d="M0 0 C3.68746328 0.5028359 6.82109196 0.99846531 10 3 C10.33 3.66 10.66 4.32 11 5 C11.66 5.28875 12.32 5.5775 13 5.875 C13.66 6.24625 14.32 6.6175 15 7 C15.33 8.32 15.66 9.64 16 11 C13.03 9.02 10.06 7.04 7 5 C6.01 5.495 6.01 5.495 5 6 C5 6.66 5 7.32 5 8 C5.5878125 8.2784375 6.175625 8.556875 6.78125 8.84375 C13.2080889 12.19294774 16.94458459 16.42110811 19.34375 23.27734375 C21.12266754 30.65773378 20.65459022 36.36759553 17 43 C16.52973792 44.86705244 16.0964036 46.74355665 15.6875 48.625 C14.13158669 55.30037003 11.27923379 61.01460241 8 67 C7.67 67 7.34 67 7 67 C6.66236782 62.16060547 7.52278893 60.0628655 10 56 C12.67187022 49.19196059 14.66209116 42.18608769 16 35 C16.2475 33.72125 16.495 32.4425 16.75 31.125 C17.33775029 27.83573263 17.33775029 27.83573263 15 25 C15.04125 23.80375 15.0825 22.6075 15.125 21.375 C14.82350356 17.87250949 14.09430697 17.07948928 11.33984375 14.7578125 C9.15323494 13.25142407 6.96311348 11.75012188 4.76953125 10.25390625 C1.95375749 7.96236681 1.05094805 6.90419879 0.25 3.4375 C0.1675 2.303125 0.085 1.16875 0 0 Z " fill="#AEAFAF" transform="translate(28,0)"/>
<path d="M0 0 C2.0625 0.4375 2.0625 0.4375 4 1 C3.525625 1.350625 3.05125 1.70125 2.5625 2.0625 C0.33665301 4.82255027 0.44050255 7.53890856 0 11 C-0.66 11.66 -1.32 12.32 -2 13 C-3.32 13 -4.64 13 -6 13 C-5.87625 14.3303125 -5.87625 14.3303125 -5.75 15.6875 C-5.7224134 22.43242479 -8.43786846 29.37946408 -11.08203125 35.5078125 C-13.83661876 42.98622454 -13.72560421 51.01680746 -10.59375 58.29296875 C-10.3978125 58.85628906 -10.201875 59.41960937 -10 60 C-10.33 60.66 -10.66 61.32 -11 62 C-12.65 62 -14.3 62 -16 62 C-16.66 60.35 -17.32 58.7 -18 57 C-16.35 57.66 -14.7 58.32 -13 59 C-14.51865214 54.70111387 -14.51865214 54.70111387 -17 51 C-17.70182892 44.66435926 -16.51691838 39.52677602 -14.1875 33.6875 C-11.88276181 27.62063536 -10.06477065 21.71380674 -8.8359375 15.3203125 C-7.79814351 12.43970675 -6.43316844 11.76957705 -4 10 C-2.92702 7.78766694 -2.92702 7.78766694 -2.3125 5.375 C-1.06378132 1.06378132 -1.06378132 1.06378132 0 0 Z " fill="#B5B6B6" transform="translate(94,40)"/>
<path d="M0 0 C0.99 0 1.98 0 3 0 C3.20753906 0.62648438 3.41507813 1.25296875 3.62890625 1.8984375 C5.26499528 6.71019903 5.26499528 6.71019903 8.82421875 10.04296875 C10.94822084 10.66050657 10.94822084 10.66050657 14 11 C13.67 12.65 13.34 14.3 13 16 C5.50387898 18.97259972 -1.90808117 20.2184194 -10 20 C-10.99 19.34 -11.98 18.68 -13 18 C-9.535 17.505 -9.535 17.505 -6 17 C-8.10540926 14.68377223 -8.10540926 14.68377223 -12 13 C-7.05 13.33 -2.1 13.66 3 14 C3 12.02 3 10.04 3 8 C2.01 7.67 1.02 7.34 0 7 C0 4.69 0 2.38 0 0 Z " fill="#898A8A" transform="translate(61,106)"/>
<path d="M0 0 C1 3 1 3 0.0625 4.9375 C-0.288125 5.618125 -0.63875 6.29875 -1 7 C-1 8.32 -1 9.64 -1 11 C-0.29875 11.31710938 0.4025 11.63421875 1.125 11.9609375 C8.42308296 15.55048374 13.99958512 19.76715819 18 27 C18.20703125 29.80859375 18.20703125 29.80859375 18 32 C15.875 32.8125 15.875 32.8125 13 33 C9.8125 30.625 9.8125 30.625 7 28 C4.55028376 26.77514188 2.85765539 26.83277192 0.125 26.8125 C-0.73867187 26.79832031 -1.60234375 26.78414062 -2.4921875 26.76953125 C-5.19198382 27.01764337 -6.74607163 27.50886398 -9 29 C-10.76727858 32.0334467 -10.76727858 32.0334467 -12 35 C-12.33 35 -12.66 35 -13 35 C-13.3125 32.3125 -13.3125 32.3125 -13 29 C-10.827365 26.42714276 -9.02006162 24.51003081 -6 23 C-4.04550156 22.8518456 -2.0848947 22.77875151 -0.125 22.75 C0.92429687 22.72421875 1.97359375 22.6984375 3.0546875 22.671875 C6.323447 23.03603388 7.68758185 23.69875295 10 26 C10 26.66 10 27.32 10 28 C10.61875 28.309375 11.2375 28.61875 11.875 28.9375 C13.25 29.625 14.625 30.3125 16 31 C14.75587233 27.55472339 13.45185936 24.74608248 11 22 C10.01 21.67 9.02 21.34 8 21 C8 19.68 8 18.36 8 17 C7.29875 16.9175 6.5975 16.835 5.875 16.75 C2.19502369 15.79000618 -0.11529734 14.48218601 -3 12 C-3.93416036 7.2254026 -2.35766146 4.12590755 0 0 Z " fill="#8A8B8B" transform="translate(67,16)"/>
<path d="M0 0 C3.6590004 1.2196668 4.30462251 2.78208733 6.08203125 6.078125 C7.30952655 8.64803004 8.20085609 11.26959164 9 14 C4.57320993 12.52440331 4.08567304 10.09942632 2 6 C2 5.34 2 4.68 2 4 C0.01979579 4.44033992 0.01979579 4.44033992 -2 6 C-3.27913042 8.5756246 -4.10964585 11.27064055 -5 14 C-5.556875 15.2375 -5.556875 15.2375 -6.125 16.5 C-9.41700889 25.9057397 -9.11306566 36.96162463 -5 46 C-3.77476883 48.11919613 -2.44976793 50.01865049 -1 52 C-0.67 52.66 -0.34 53.32 0 54 C-4.84033576 52.20728305 -7.77504478 48.49851976 -9.984375 43.9921875 C-14.44890066 32.24121901 -11.56448491 21.2333041 -6.7265625 10.05859375 C-4.85556476 6.16351665 -3.22344834 2.93380516 0 0 Z " fill="#A1A2A2" transform="translate(45,61)"/>
<path d="M0 0 C0.66 0 1.32 0 2 0 C1.8659375 0.49886719 1.731875 0.99773437 1.59375 1.51171875 C0.77964508 4.92346109 0.14294806 8.36540717 -0.5 11.8125 C-0.63019531 12.49892578 -0.76039062 13.18535156 -0.89453125 13.89257812 C-1.15176519 15.26579165 -1.40245156 16.64024831 -1.64648438 18.01586914 C-1.97555887 19.86282246 -2.33050674 21.70511432 -2.6875 23.546875 C-3.3331243 30.68102356 -1.14300909 38.7763282 2.828125 44.75 C4.47399055 46.62334291 6.1284415 48.35450053 8 50 C7.67 50.66 7.34 51.32 7 52 C-0.11289517 46.69572561 -4.39341096 41.87397839 -6 33 C-7.28558944 18.94123504 -7.28558944 18.94123504 -4 13 C-3.4148328 10.16356452 -2.99243264 7.32459599 -2.5625 4.4609375 C-2 2 -2 2 0 0 Z " fill="#A6A7A7" transform="translate(33,67)"/>
<path d="M0 0 C0.33 0 0.66 0 1 0 C1.13572155 2.39774745 1.23436868 4.78775245 1.3125 7.1875 C1.3753418 8.19780273 1.3753418 8.19780273 1.43945312 9.22851562 C1.53582774 13.17987504 1.25436065 14.71518193 -1.4140625 17.703125 C-2.69410156 18.84007812 -2.69410156 18.84007812 -4 20 C-5.12538168 22.25791313 -5.12538168 22.25791313 -5.6875 24.5625 C-6.53909118 27.57702829 -7.52433596 30.23077515 -9 33 C-9.66 33 -10.32 33 -11 33 C-11.33 34.65 -11.66 36.3 -12 38 C-12.33 38 -12.66 38 -13 38 C-13.35259645 31.50961352 -13.20912547 26.7305812 -10 21 C-8.68733482 19.64631404 -7.35432675 18.31200404 -6 17 C-3.23483239 12.53319078 -2.29980654 8.18044365 -1.4296875 3.07421875 C-1 1 -1 1 0 0 Z " fill="#141515" transform="translate(46,43)"/>
<path d="M0 0 C3.40843742 2.88406243 4.86591384 4.3708265 5.8125 8.8125 C5.874375 9.864375 5.93625 10.91625 6 12 C3.13099945 13.43450027 0.26527087 13.37911083 -2.90625 13.62109375 C-5.21311098 13.83318777 -5.21311098 13.83318777 -7 16 C-10.06434726 15.84285399 -11.55269031 15.41646074 -13.8125 13.3125 C-15.3082321 10.39975854 -15.22022756 8.23000416 -15 5 C-14.34 4.67 -13.68 4.34 -13 4 C-12.649375 4.66 -12.29875 5.32 -11.9375 6 C-10.03442858 8.41103961 -10.03442858 8.41103961 -6.3125 8.25 C-5.219375 8.1675 -4.12625 8.085 -3 8 C-3.33 6.68 -3.66 5.36 -4 4 C-3.01 4.33 -2.02 4.66 -1 5 C-1.33 6.98 -1.66 8.96 -2 11 C-0.35 11 1.3 11 3 11 C3.33 10.01 3.66 9.02 4 8 C2.71488126 5.96868328 1.38123963 3.96722008 0 2 C0 1.34 0 0.68 0 0 Z " fill="#4A4A4B" transform="translate(57,87)"/>
<path d="M0 0 C2 1.375 2 1.375 4 3 C4 3.66 4 4.32 4 5 C4.66 5 5.32 5 6 5 C9.09141873 10.11965112 9.46212431 14.07639304 9.375 19.875 C9.38660156 20.63941406 9.39820313 21.40382813 9.41015625 22.19140625 C9.38173615 27.77121845 8.11798685 31.85234693 6 37 C5.74485464 39.83535452 5.74485464 39.83535452 6 42 C7.32 41.34 8.64 40.68 10 40 C9.34 41.32 8.68 42.64 8 44 C6.68 44 5.36 44 4 44 C3.48167309 30.33152734 3.48167309 30.33152734 5.5625 25.6875 C7.74897362 20.07871984 7.20750426 15.80663152 4.84375 10.3125 C3.97799323 8.58098647 3.08401127 6.86316017 2.15625 5.1640625 C1 3 1 3 0 0 Z " fill="#9E9F9F" transform="translate(44,11)"/>
<path d="M0 0 C0 0.33 0 0.66 0 1 C-0.94875 1.28875 -1.8975 1.5775 -2.875 1.875 C-6.05211578 2.76825109 -6.05211578 2.76825109 -8 5 C-8 6.32 -8 7.64 -8 9 C-5.03 9.99 -2.06 10.98 1 12 C1 13.32 1 14.64 1 16 C-5.4 16.49230769 -5.4 16.49230769 -8.4375 14 C-8.953125 13.34 -9.46875 12.68 -10 12 C-10 14.64 -10 17.28 -10 20 C-10.66 19.67 -11.32 19.34 -12 19 C-13.78993771 13.49249934 -12.33087657 9.07591715 -10 4 C-7.07156139 -0.14020631 -4.96070966 -0.45097361 0 0 Z " fill="#929393" transform="translate(53,80)"/>
<path d="M0 0 C0 0.66 0 1.32 0 2 C4.58219161 2.8811907 6.92224202 3.17480426 11 1 C13.75 1.375 13.75 1.375 16 2 C17.08657712 4.66705293 17.10903261 5.73423301 16 8.4375 C13.51239811 11.62473993 10.72167758 14.31924238 7 16 C4.77734375 15.6328125 4.77734375 15.6328125 3 15 C5.35328398 12.36432194 7.58001086 10.61129067 10.6875 9 C14.09973441 7.38532219 14.09973441 7.38532219 14.9375 4.75 C14.958125 4.1725 14.97875 3.595 15 3 C14.319375 3.33 13.63875 3.66 12.9375 4 C9.38445726 5.20954646 6.73590914 5.33356332 3 5 C2.154375 4.484375 1.30875 3.96875 0.4375 3.4375 C-1.98757087 1.70197112 -1.98757087 1.70197112 -5.1875 2.1875 C-8.10787469 2.78582313 -8.10787469 2.78582313 -10 5 C-12.125 4.625 -12.125 4.625 -14 4 C-9.02495953 0.75099398 -6.11774896 -0.49940808 0 0 Z " fill="#4A4A4B" transform="translate(91,24)"/>
<path d="M0 0 C1.9375 0.875 1.9375 0.875 3.4375 2.5 C3.9325 2.95375 4.4275 3.4075 4.9375 3.875 C6.2774052 3.56915207 7.60988937 3.23044185 8.9375 2.875 C10.51961573 2.80951508 12.10420081 2.78921619 13.6875 2.8125 C14.48671875 2.82152344 15.2859375 2.83054687 16.109375 2.83984375 C16.71265625 2.85144531 17.3159375 2.86304688 17.9375 2.875 C20.06931214 6.61787627 19.89435425 8.66484129 18.9375 12.875 C17.9475 12.875 16.9575 12.875 15.9375 12.875 C16.2675 10.565 16.5975 8.255 16.9375 5.875 C12.02081095 6.53732022 12.02081095 6.53732022 7.1875 7.625 C4.9375 7.875 4.9375 7.875 3.125 6.5625 C1.9375 4.875 1.9375 4.875 1.9375 2.875 C-0.7025 2.875 -3.3425 2.875 -6.0625 2.875 C-2.66181896 -0.16132236 -2.66181896 -0.16132236 0 0 Z " fill="#A3A4A4" transform="translate(90.0625,20.125)"/>
<path d="M0 0 C2.0625 0.4375 2.0625 0.4375 4 1 C3.525625 1.350625 3.05125 1.70125 2.5625 2.0625 C0.33665301 4.82255027 0.44050255 7.53890856 0 11 C-2.1385485 13.1385485 -3.13275314 13.42655063 -6 14 C-6.33773437 15.24136719 -6.67546875 16.48273437 -7.0234375 17.76171875 C-7.4738061 19.4036876 -7.92433539 21.04561237 -8.375 22.6875 C-8.59671875 23.50412109 -8.8184375 24.32074219 -9.046875 25.16210938 C-10.16225346 29.2135576 -11.31689487 33.13829618 -13 37 C-14.2452235 33.16336545 -13.42764297 31.12818289 -11.88671875 27.42578125 C-10.48780028 23.59878402 -9.75313904 19.62390936 -8.94140625 15.63671875 C-7.82669758 12.51460941 -6.63570825 11.8819162 -4 10 C-2.92702 7.78766694 -2.92702 7.78766694 -2.3125 5.375 C-1.06378132 1.06378132 -1.06378132 1.06378132 0 0 Z " fill="#898A8A" transform="translate(94,40)"/>
<path d="M0 0 C3.6590004 1.2196668 4.30462251 2.78208733 6.08203125 6.078125 C7.30952655 8.64803004 8.20085609 11.26959164 9 14 C4.57320993 12.52440331 4.08567304 10.09942632 2 6 C2 5.34 2 4.68 2 4 C0.01979579 4.44033992 0.01979579 4.44033992 -2 6 C-2.93491401 7.92274769 -3.59976995 9.86221941 -4.2734375 11.890625 C-5.2523876 14.73273821 -6.60484849 17.34256854 -8 20 C-8.33 20 -8.66 20 -9 20 C-8.51387057 12.54601536 -5.6435189 5.08246731 0 0 Z " fill="#A9AAAA" transform="translate(45,61)"/>
<path d="M0 0 C3.40843742 2.88406243 4.86591384 4.3708265 5.8125 8.8125 C5.874375 9.864375 5.93625 10.91625 6 12 C3.17999162 13.41000419 0.40642297 13.37608381 -2.7109375 13.62109375 C-5.13589449 14.02249448 -6.8696298 14.79862685 -9 16 C-8.484375 15.401875 -7.96875 14.80375 -7.4375 14.1875 C-6.963125 13.465625 -6.48875 12.74375 -6 12 C-6.33 11.01 -6.66 10.02 -7 9 C-5.68 8.67 -4.36 8.34 -3 8 C-3.33 6.68 -3.66 5.36 -4 4 C-3.01 4.33 -2.02 4.66 -1 5 C-1.33 6.98 -1.66 8.96 -2 11 C-0.35 11 1.3 11 3 11 C3.33 10.01 3.66 9.02 4 8 C2.71488126 5.96868328 1.38123963 3.96722008 0 2 C0 1.34 0 0.68 0 0 Z " fill="#4A4A4B" transform="translate(57,87)"/>
<path d="M0 0 C5.38329097 2.90837538 9.2388671 6.08313972 13.125 10.796875 C16.50290053 14.76590813 20.27927636 18.35520949 24 22 C23.67 22.99 23.34 23.98 23 25 C21.29115995 23.37660195 19.62553283 21.70680947 18 20 C18 19.34 18 18.68 18 18 C17.01 17.67 16.02 17.34 15 17 C13.67578125 15.6171875 13.67578125 15.6171875 12.3125 13.875 C9.40825562 10.32861113 6.18361748 7.46969197 2.63671875 4.578125 C1 3 1 3 0 0 Z " fill="#575758" transform="translate(52,71)"/>
<path d="M0 0 C2.37103751 1.71622982 4.48306887 3.4796514 6 6 C5.66015625 8.19921875 5.66015625 8.19921875 5 10 C3.99406757 8.8803014 2.9954151 7.7540588 2 6.625 C1.443125 5.99851562 0.88625 5.37203125 0.3125 4.7265625 C-1 3 -1 3 -1 1 C-6.78225341 2.22911298 -6.78225341 2.22911298 -11 6 C-12.19027984 8.59915538 -12.19027984 8.59915538 -13 11 C-13.75 9.375 -13.75 9.375 -14 7 C-12.36161919 3.96596146 -10.87534538 1.67109812 -8.125 -0.4375 C-4.95815406 -1.27578275 -3.13412864 -1.00292117 0 0 Z " fill="#C7C8C8" transform="translate(54,79)"/>
<path d="M0 0 C0.33 0 0.66 0 1 0 C1 3.96 1 7.92 1 12 C1.94875 11.525625 2.8975 11.05125 3.875 10.5625 C8.3265736 8.66376759 13.15177295 7.61010762 18 8 C19.796875 9.4921875 19.796875 9.4921875 21 11 C20.01 11.495 20.01 11.495 19 12 C19 11.34 19 10.68 19 10 C17.5608866 10.28359887 16.12374482 10.57721399 14.6875 10.875 C13.48673828 11.11863281 13.48673828 11.11863281 12.26171875 11.3671875 C9.74698882 11.94478999 9.74698882 11.94478999 7 14 C3.3125 13.625 3.3125 13.625 0 13 C-1.06671952 9.79984144 -0.94845472 8.11455706 -0.5625 4.8125 C-0.46066406 3.91144531 -0.35882813 3.01039062 -0.25390625 2.08203125 C-0.17011719 1.39496094 -0.08632812 0.70789062 0 0 Z " fill="#989999" transform="translate(72,14)"/>
<path d="M0 0 C1.57394531 -0.05607422 1.57394531 -0.05607422 3.1796875 -0.11328125 C6.76396444 0.40487019 7.87527959 1.55740761 10.125 4.3125 C9.279375 3.9825 8.43375 3.6525 7.5625 3.3125 C2.96597669 1.97532958 -0.87064948 1.93959758 -5.5625 2.8125 C-9.10133363 5.10795965 -10.2884356 8.50120004 -11.875 12.3125 C-12.205 12.3125 -12.535 12.3125 -12.875 12.3125 C-13.1875 9.625 -13.1875 9.625 -12.875 6.3125 C-8.72160679 1.39400805 -6.30568621 0.14646459 0 0 Z " fill="#C7C8C8" transform="translate(66.875,38.6875)"/>
<path d="M0 0 C4.29 0.33 8.58 0.66 13 1 C11.515 2.485 11.515 2.485 10 4 C11.98 4 13.96 4 16 4 C16 4.66 16 5.32 16 6 C13.73044814 6.22185844 11.45926245 6.42705515 9.1875 6.625 C7.29064453 6.79902344 7.29064453 6.79902344 5.35546875 6.9765625 C2 7 2 7 -1 5 C2.465 4.505 2.465 4.505 6 4 C3.89459074 1.68377223 3.89459074 1.68377223 0 0 Z " fill="#898A8A" transform="translate(49,119)"/>
<path d="M0 0 C2 0.25 2 0.25 4 1 C4.33 1.99 4.66 2.98 5 4 C-2.28571429 7.42857143 -2.28571429 7.42857143 -7 7 C-7 6.01 -7 5.02 -7 4 C-6.030625 3.525625 -5.06125 3.05125 -4.0625 2.5625 C-1.19522563 1.29806053 -1.19522563 1.29806053 0 0 Z " fill="#444445" transform="translate(66,117)"/>
<path d="M0 0 C3 0 3 0 4.5 1.4375 C4.995 1.953125 5.49 2.46875 6 3 C9.56045177 4.18681726 12.43808337 4.09689832 16.1875 4.0625 C17.45980469 4.05347656 18.73210938 4.04445313 20.04296875 4.03515625 C21.01878906 4.02355469 21.99460937 4.01195313 23 4 C19.15342075 7.33370201 16.49921986 7.49572109 11.55078125 7.37109375 C7.65110271 6.8037592 5.2134804 5.23546463 2 3 C2 2.34 2 1.68 2 1 C1.34 0.67 0.68 0.34 0 0 Z " fill="#C5C6C6" transform="translate(42,121)"/>
<path d="M0 0 C0.680625 0.598125 1.36125 1.19625 2.0625 1.8125 C5.31674834 4.23587643 8.23936225 5.5252401 12 7 C11.67 7.66 11.34 8.32 11 9 C8.03 9 5.06 9 2 9 C1.67 8.01 1.34 7.02 1 6 C-1.01508358 5.26676204 -1.01508358 5.26676204 -3 5 C0 4 0 4 2.04296875 4.77734375 C2.75066406 5.16019531 3.45835938 5.54304688 4.1875 5.9375 C4.90292969 6.31777344 5.61835937 6.69804688 6.35546875 7.08984375 C6.89816406 7.39019531 7.44085938 7.69054687 8 8 C8 7.34 8 6.68 8 6 C7.236875 5.896875 6.47375 5.79375 5.6875 5.6875 C2.81583516 4.95288806 1.76957906 4.3283935 0 2 C0 1.34 0 0.68 0 0 Z " fill="#555556" transform="translate(44,115)"/>
<path d="M0 0 C1.9375 0.875 1.9375 0.875 3.4375 2.5 C3.9325 2.95375 4.4275 3.4075 4.9375 3.875 C6.79016073 3.58014846 6.79016073 3.58014846 8.9375 2.875 C11.27050933 2.83611651 13.60459801 2.8301365 15.9375 2.875 C15.9375 3.205 15.9375 3.535 15.9375 3.875 C11.40048506 5.32684478 7.75688524 6.11009196 2.9375 5.875 C2.6075 4.885 2.2775 3.895 1.9375 2.875 C-0.7025 2.875 -3.3425 2.875 -6.0625 2.875 C-2.66181896 -0.16132236 -2.66181896 -0.16132236 0 0 Z " fill="#C7C8C8" transform="translate(90.0625,20.125)"/>
<path d="M0 0 C-1.40372802 1.20276695 -2.82352097 2.38680519 -4.25 3.5625 C-5.43335937 4.55443359 -5.43335937 4.55443359 -6.640625 5.56640625 C-9 7 -9 7 -11.296875 6.71484375 C-11.85890625 6.47894531 -12.4209375 6.24304687 -13 6 C-5.74729569 -1.78994167 -5.74729569 -1.78994167 0 0 Z " fill="#696A6A" transform="translate(107,33)"/>
<path d="M0 0 C0.66 0 1.32 0 2 0 C3.7265625 1.86328125 3.7265625 1.86328125 5.625 4.3125 C6.25664063 5.11300781 6.88828125 5.91351563 7.5390625 6.73828125 C9 9 9 9 9 12 C7.48826565 10.76421715 5.9909084 9.51082994 4.5 8.25 C3.6646875 7.55390625 2.829375 6.8578125 1.96875 6.140625 C0 4 0 4 0 0 Z " fill="#A1A2A2" transform="translate(31,107)"/>
<path d="M0 0 C0.99 0.33 1.98 0.66 3 1 C3.75 2.9375 3.75 2.9375 4 5 C3.67 5.66 3.34 6.32 3 7 C1.35 7 -0.3 7 -2 7 C-2.66 5.35 -3.32 3.7 -4 2 C-1.525 2.99 -1.525 2.99 1 4 C0.67 2.68 0.34 1.36 0 0 Z " fill="#6C6D6D" transform="translate(80,95)"/>
<path d="M0 0 C1.875 0.125 1.875 0.125 4 1 C6.52453645 4.39841445 7.78172689 7.97032739 9 12 C4.57320993 10.52440331 4.08567304 8.09942632 2 4 C2 3.34 2 2.68 2 2 C1.01 1.67 0.02 1.34 -1 1 C-0.67 0.67 -0.34 0.34 0 0 Z " fill="#B6B7B7" transform="translate(45,63)"/>
<path d="M0 0 C2.0625 0.4375 2.0625 0.4375 4 1 C3.525625 1.350625 3.05125 1.70125 2.5625 2.0625 C0.33665301 4.82255027 0.44050255 7.53890856 0 11 C-0.66 11.66 -1.32 12.32 -2 13 C-2.99 12.67 -3.98 12.34 -5 12 C-4.34 11.67 -3.68 11.34 -3 11 C-2.34767859 8.6833206 -2.34767859 8.6833206 -1.9375 6 C-1.09433962 1.09433962 -1.09433962 1.09433962 0 0 Z " fill="#BBBCBC" transform="translate(94,40)"/>
<path d="M0 0 C0.66 0 1.32 0 2 0 C1.67 3.3 1.34 6.6 1 10 C-0.32 9.67 -1.64 9.34 -3 9 C-2.01 6.03 -1.02 3.06 0 0 Z " fill="#090A0A" transform="translate(69,17)"/>
<path d="M0 0 C2.99220268 1.36370299 5.29026529 2.94908083 7.75 5.125 C8.67039062 5.93324219 8.67039062 5.93324219 9.609375 6.7578125 C10.29773438 7.37269531 10.29773438 7.37269531 11 8 C10.67 8.99 10.34 9.98 10 11 C9.278125 10.2575 8.55625 9.515 7.8125 8.75 C5.09288953 5.98732731 5.09288953 5.98732731 2.1875 3.8125 C1.465625 3.214375 0.74375 2.61625 0 2 C0 1.34 0 0.68 0 0 Z " fill="#A2A3A3" transform="translate(33,8)"/>
<path d="M0 0 C2.375 0.1875 2.375 0.1875 5 1 C6.3125 3.5625 6.3125 3.5625 7 6 C2.25 5.25 2.25 5.25 0 3 C0 2.01 0 1.02 0 0 Z " fill="#2D2D2E" transform="translate(61,5)"/>
<path d="M0 0 C4.3514212 0.39558375 7.52110686 1.31628243 11 4 C11.33 5.32 11.66 6.64 12 8 C9.03 6.02 6.06 4.04 3 2 C0.83333333 2.83333333 0.83333333 2.83333333 0 5 C-0.5625 3.0625 -0.5625 3.0625 -1 1 C-0.67 0.67 -0.34 0.34 0 0 Z " fill="#929393" transform="translate(32,3)"/>
<path d="M0 0 C0.33 0.66 0.66 1.32 1 2 C0.67 2.66 0.34 3.32 0 4 C0.78375 4.28875 1.5675 4.5775 2.375 4.875 C5 6 5 6 7 8 C4.36 7.67 1.72 7.34 -1 7 C-1.625 4.625 -1.625 4.625 -2 2 C-1.34 1.34 -0.68 0.68 0 0 Z " fill="#4A4A4B" transform="translate(46,83)"/>
<path d="M0 0 C1.32 0.33 2.64 0.66 4 1 C4 1.66 4 2.32 4 3 C4.90492187 2.96519531 4.90492187 2.96519531 5.828125 2.9296875 C7.02695312 2.90261719 7.02695312 2.90261719 8.25 2.875 C9.03890625 2.85179688 9.8278125 2.82859375 10.640625 2.8046875 C13.20731941 3.0171622 14.7916067 3.71345895 17 5 C14.72843079 4.93998496 12.45760726 4.85120032 10.1875 4.75 C8.92292969 4.70359375 7.65835938 4.6571875 6.35546875 4.609375 C3 4 3 4 1.05078125 1.953125 C0.70402344 1.30859375 0.35726562 0.6640625 0 0 Z " fill="#BDBEBE" transform="translate(45,115)"/>
<path d="M0 0 C0.66 0 1.32 0 2 0 C1.55090939 1.48199902 1.09043436 2.96055236 0.625 4.4375 C0.24214844 5.67306641 0.24214844 5.67306641 -0.1484375 6.93359375 C-1 9 -1 9 -3 10 C-3.2295711 6.63295715 -3.33943529 4.58629732 -1.625 1.625 C-1.08875 1.08875 -0.5525 0.5525 0 0 Z " fill="#B3B4B4" transform="translate(57,41)"/>
<path d="M0 0 C2.31 0.33 4.62 0.66 7 1 C6.01 2.32 5.02 3.64 4 5 C2.68 4.34 1.36 3.68 0 3 C0 2.01 0 1.02 0 0 Z " fill="#090A0A" transform="translate(45,97)"/>
<path d="M0 0 C4.2742558 1.5830577 6.26531794 4.50568404 9 8 C6 8 6 8 4.39453125 6.7578125 C3.87246094 6.21898438 3.35039063 5.68015625 2.8125 5.125 C2.28269531 4.59132813 1.75289062 4.05765625 1.20703125 3.5078125 C0 2 0 2 0 0 Z " fill="#B4B5B5" transform="translate(59,80)"/>
<path d="M0 0 C3.465 2.97 3.465 2.97 7 6 C6.67 7.32 6.34 8.64 6 10 C4.99106869 8.90398831 3.99311775 7.79786082 3 6.6875 C2.1646875 5.76517578 2.1646875 5.76517578 1.3125 4.82421875 C0 3 0 3 0 0 Z " fill="#ADAEAE" transform="translate(53,79)"/>
<path d="M0 0 C3.91020436 1.30340145 6.50108551 2.66811401 9 6 C9.25 9.25 9.25 9.25 9 12 C8.7525 11.443125 8.505 10.88625 8.25 10.3125 C6.12086052 6.37359196 4.32917913 3.44305971 0 2 C0 1.34 0 0.68 0 0 Z " fill="#B4B5B5" transform="translate(75,35)"/>
<path d="M0 0 C2.64 1.65 5.28 3.3 8 5 C7.67 6.32 7.34 7.64 7 9 C5.82737096 7.88121617 4.66204862 6.75476949 3.5 5.625 C2.52546875 4.68527344 2.52546875 4.68527344 1.53125 3.7265625 C0 2 0 2 0 0 Z " fill="#777878" transform="translate(52,71)"/>
<path d="M0 0 C2.46800047 1.15173355 4.04783565 2.04783565 6 4 C8.06874034 4.6425235 8.06874034 4.6425235 10 5 C10 5.66 10 6.32 10 7 C5.61537866 6.49890042 3.1999003 5.01704885 0 2 C0 1.34 0 0.68 0 0 Z " fill="#090A0A" transform="translate(42,116)"/>
<path d="M0 0 C0.99 0.33 1.98 0.66 3 1 C2.67 1.66 2.34 2.32 2 3 C1.34 3 0.68 3 0 3 C-0.99 4.98 -1.98 6.96 -3 9 C-3.66 9 -4.32 9 -5 9 C-3.90931332 5.22454612 -3.0916909 2.52956528 0 0 Z " fill="#A0A1A1" transform="translate(45,61)"/>
<path d="M0 0 C3.40320742 1.01176437 4.75725331 1.64843582 6.8125 4.625 C7.204375 5.40875 7.59625 6.1925 8 7 C4.88801935 5.50163895 1.9465385 3.80066242 -1 2 C-0.67 1.34 -0.34 0.68 0 0 Z " fill="#292A2A" transform="translate(33,4)"/>
<path d="M0 0 C0.66 0 1.32 0 2 0 C1.42415568 2.38564077 0.77772405 4.66682784 0 7 C-0.66 7 -1.32 7 -2 7 C-2.125 4.625 -2.125 4.625 -2 2 C-1.34 1.34 -0.68 0.68 0 0 Z " fill="#ABACAC" transform="translate(33,67)"/>
<path d="M0 0 C0.99 0.33 1.98 0.66 3 1 C3 1.66 3 2.32 3 3 C4.32 3.66 5.64 4.32 7 5 C4 6 4 6 1.8125 5.0625 C1.214375 4.711875 0.61625 4.36125 0 4 C0 2.68 0 1.36 0 0 Z " fill="#9D9E9E" transform="translate(62,9)"/>
<path d="M0 0 C0.33 0 0.66 0 1 0 C1.66 2.97 2.32 5.94 3 9 C2.34 9 1.68 9 1 9 C-1.14809171 5.77786243 -1.29386153 4.72224599 -1 1 C-0.67 0.67 -0.34 0.34 0 0 Z " fill="#BCBDBD" transform="translate(79,86)"/>
</svg>
