<?xml version="1.0" encoding="UTF-8"?>
<svg version="1.1" xmlns="http://www.w3.org/2000/svg" width="128" height="128">
<path d="M0 0 C42.24 0 84.48 0 128 0 C128 42.24 128 84.48 128 128 C85.76 128 43.52 128 0 128 C0 85.76 0 43.52 0 0 Z " fill="#030303" transform="translate(0,0)"/>
<path d="M0 0 C2.47099068 0.90913808 3.4658578 1.98076905 5.1953125 3.94921875 C9.95402111 8.89174014 15.39082349 13.29629413 22.34375 14.17578125 C27.09618841 13.64773254 30.51024894 11.91375326 34.6953125 9.69921875 C42.05164391 5.80885118 42.05164391 5.80885118 45.6875 5.640625 C49.3115524 7.34571195 51.80549154 9.90391233 54.5703125 12.76171875 C55.14910156 13.35476807 55.72789063 13.94781738 56.32421875 14.55883789 C63.49658802 22.0896214 66.59081628 29.65256097 69.76171875 39.52734375 C71.11066408 42.8614534 72.76782898 45.0307567 75.0703125 47.76171875 C75.4003125 48.75171875 75.7303125 49.74171875 76.0703125 50.76171875 C73.43935853 54.86600695 70.34428175 57.45377536 66.0703125 59.76171875 C63.0703125 60.32421875 63.0703125 60.32421875 60.0703125 59.76171875 C57.91354155 58.24515718 56.04674907 56.51855126 54.0703125 54.76171875 C53.0803125 54.76171875 52.0903125 54.76171875 51.0703125 54.76171875 C49.68985293 56.78439212 48.4993113 58.75153316 47.3203125 60.88671875 C44.22759578 66.19813912 41.1817069 70.29148285 36.0703125 73.76171875 C35.1834375 74.40109375 34.2965625 75.04046875 33.3828125 75.69921875 C30.66453959 76.94815495 29.83570337 76.6058907 27.0703125 75.76171875 C27.09351563 74.97667969 27.11671875 74.19164063 27.140625 73.3828125 C27.24316031 67.41379272 27.11611789 62.38768357 25.0703125 56.76171875 C24.4103125 56.76171875 23.7503125 56.76171875 23.0703125 56.76171875 C21.98042507 57.88676384 20.89197161 59.01321632 19.80859375 60.14453125 C16.76006755 62.98068821 13.3141457 65.28550405 9.92578125 67.6953125 C6.53220512 70.15112888 3.28061866 72.75737407 0.04296875 75.4140625 C-1.97827821 76.79491438 -3.53660839 77.33878083 -5.9296875 77.76171875 C-5.45528878 73.207491 -4.49431275 69.49233732 -2.84106445 65.19677734 C-0.97326569 60.20630725 0.66309542 55.1376088 2.3203125 50.07421875 C2.69671875 48.95982422 3.073125 47.84542969 3.4609375 46.69726562 C3.986875 45.08368164 3.986875 45.08368164 4.5234375 43.4375 C4.84473633 42.46723877 5.16603516 41.49697754 5.49707031 40.49731445 C6.13571446 37.44961103 6.0500259 35.70691591 5.0703125 32.76171875 C3.73494081 30.8100522 3.73494081 30.8100522 1.98046875 29.09765625 C1.36107422 28.45054688 0.74167969 27.8034375 0.10351562 27.13671875 C-0.54681641 26.47671875 -1.19714844 25.81671875 -1.8671875 25.13671875 C-3.14886609 23.81287127 -4.42888324 22.48741275 -5.70703125 21.16015625 C-6.56155884 20.28883057 -6.56155884 20.28883057 -7.43334961 19.39990234 C-9.57344667 17.05693427 -10.8383428 15.19814342 -11.4921875 12.07421875 C-10.64609502 7.09167417 -7.5282244 4.17300146 -3.9296875 0.76171875 C-1.9296875 -0.23828125 -1.9296875 -0.23828125 0 0 Z " fill="#F9F9F9" transform="translate(25.9296875,23.23828125)"/>
<path d="M0 0 C2.32712052 1.61524645 3.66177947 3.0516652 5.24609375 5.390625 C9.22288966 11.17183655 9.22288966 11.17183655 15.18359375 14.515625 C20.07186222 20.64599448 22.43465617 27.82723076 24.87890625 35.16796875 C26.43536024 39.16162465 28.49956231 42.29988077 31.14453125 45.6484375 C32.18359375 47.515625 32.18359375 47.515625 31.98046875 49.63671875 C30.7529943 52.53091095 28.71883134 53.6968676 26.18359375 55.515625 C25.65378906 55.97710937 25.12398438 56.43859375 24.578125 56.9140625 C21.42108103 59.5292797 19.24149686 60.92473091 15.05859375 60.578125 C11.31243164 59.83472318 8.93733875 58.18331546 6.18359375 55.515625 C3.38002358 57.91868514 1.73448864 60.21689619 0.18359375 63.515625 C-2.38636659 68.90554183 -5.63490329 71.62362335 -10.81640625 74.515625 C-11.40035156 74.87011719 -11.98429687 75.22460938 -12.5859375 75.58984375 C-17.46223958 78.515625 -17.46223958 78.515625 -20.81640625 78.515625 C-22.46620695 75.21602359 -22.19898986 71.52434616 -22.37890625 67.890625 C-22.42208984 67.08882813 -22.46527344 66.28703125 -22.50976562 65.4609375 C-22.61592082 63.4793739 -22.7166748 61.49752229 -22.81640625 59.515625 C-25.74459998 61.24045144 -28.57928238 63.00151498 -31.31640625 65.015625 C-35.00422888 67.67595493 -38.70812981 69.98457587 -42.81640625 71.953125 C-45.87453814 73.41205577 -45.87453814 73.41205577 -48.37890625 75.640625 C-50.99890665 77.65600992 -52.61710628 77.99394214 -55.81640625 78.515625 C-54.86153141 71.67422764 -53.70734529 65.77932626 -50.81640625 59.515625 C-50.43366204 58.1483043 -50.08011669 56.77252434 -49.75390625 55.390625 C-48.98610221 52.21703496 -48.02011355 49.52489324 -46.81640625 46.515625 C-46.30095555 44.47798395 -45.82638671 42.43642819 -45.37890625 40.3828125 C-44.81640625 38.515625 -44.81640625 38.515625 -42.81640625 35.515625 C-42.15640625 35.515625 -41.49640625 35.515625 -40.81640625 35.515625 C-42.26792902 42.4988216 -44.15477302 49.26374134 -46.25390625 56.078125 C-46.55361328 57.06748047 -46.85332031 58.05683594 -47.16210938 59.07617188 C-48.86368756 64.63859774 -50.70836985 70.09403902 -52.81640625 75.515625 C-49.08290935 73.41553299 -45.73798963 70.99134993 -42.34375 68.3984375 C-40.33401227 66.90122948 -38.3094708 65.44596626 -36.2578125 64.0078125 C-35.6299585 63.56638916 -35.00210449 63.12496582 -34.35522461 62.67016602 C-33.09466984 61.78621787 -31.8312187 60.90638356 -30.56469727 60.03100586 C-27.69425686 58.01256058 -25.78534003 56.46902568 -23.81640625 53.515625 C-22.82640625 53.845625 -21.83640625 54.175625 -20.81640625 54.515625 C-18.21445493 60.67814129 -18.62153139 66.92235901 -18.81640625 73.515625 C-12.46119836 72.54637319 -8.05174538 69.38013281 -4.109375 64.328125 C-2.61606245 62.09004645 -1.20476173 59.81996649 0.18359375 57.515625 C0.96849738 56.32364402 1.75920371 55.13543964 2.55859375 53.953125 C3.09484375 53.14875 3.63109375 52.344375 4.18359375 51.515625 C7.10948493 51.94909036 8.27163437 52.59208133 10.55859375 54.578125 C13.03912054 56.68282433 13.03912054 56.68282433 15.99609375 57.140625 C20.59324988 56.23922184 23.86067058 53.77510334 27.18359375 50.515625 C27.51359375 49.525625 27.84359375 48.535625 28.18359375 47.515625 C27.29141567 46.14304333 26.38683945 44.77730847 25.4296875 43.44921875 C22.13670018 38.33941083 19.96736796 32.44240326 17.68359375 26.828125 C14.64059846 20.10817707 10.83056607 14.8215887 5.74609375 9.453125 C5.29169922 8.95135742 4.83730469 8.44958984 4.36914062 7.93261719 C1.99914851 5.5271259 0.72570725 4.52150157 -2.69921875 4.484375 C-7.07694599 5.93264566 -11.08942776 7.9460385 -15.16210938 10.07617188 C-19.53372178 12.24625285 -22.82925322 13.03837478 -27.81640625 12.515625 C-31.25390625 10.515625 -31.25390625 10.515625 -33.81640625 8.515625 C-30.81640625 8.515625 -30.81640625 8.515625 -28.71484375 8.83203125 C-20.68636915 9.61499394 -15.39338417 6.62402668 -8.74365234 2.54125977 C-3.46504935 -0.59593082 -3.46504935 -0.59593082 0 0 Z " fill="#595959" transform="translate(72.81640625,25.484375)"/>
<path d="M0 0 C8.58 0 17.16 0 26 0 C24.87536288 5.6231856 24.87536288 5.6231856 22.15625 8.41796875 C21.57327148 9.02825928 20.99029297 9.6385498 20.38964844 10.26733398 C19.45427246 11.21781616 19.45427246 11.21781616 18.5 12.1875 C17.22307637 13.51477706 15.94703625 14.84290467 14.671875 16.171875 C14.04603516 16.81962891 13.42019531 17.46738281 12.77539062 18.13476562 C9.63020162 21.43911711 6.65610177 24.89003273 3.671875 28.33984375 C2 30 2 30 0 30 C0 20.1 0 10.2 0 0 Z " fill="#FBFBFB" transform="translate(0,0)"/>
<path d="M0 0 C0.74362793 0.01047363 1.48725586 0.02094727 2.25341797 0.03173828 C3.34227295 0.03923096 3.34227295 0.03923096 4.453125 0.046875 C5.83540283 0.07418701 5.83540283 0.07418701 7.24560547 0.10205078 C10.17435547 0.14330078 13.10310547 0.18455078 16.12060547 0.22705078 C16.12060547 9.13705078 16.12060547 18.04705078 16.12060547 27.22705078 C7.01291316 20.39628155 7.01291316 20.39628155 2.74560547 16.53955078 C1.49650391 15.42 1.49650391 15.42 0.22216797 14.27783203 C-2.75410756 11.37347394 -3.83410319 9.87245243 -4.12939453 5.66455078 C-3.87611403 2.18194394 -3.7401737 0.45185263 0 0 Z " fill="#FBFBFB" transform="translate(111.87939453125,-0.22705078125)"/>
<path d="M0 0 C3.63006125 1.70233265 6.12298646 4.26037499 8.890625 7.12109375 C9.46941406 7.71414307 10.04820313 8.30719238 10.64453125 8.91821289 C17.81690052 16.4489964 20.91112878 24.01193597 24.08203125 33.88671875 C25.43097658 37.2208284 27.08814148 39.3901317 29.390625 42.12109375 C29.720625 43.11109375 30.050625 44.10109375 30.390625 45.12109375 C27.75967103 49.22538195 24.66459425 51.81315036 20.390625 54.12109375 C17.390625 54.68359375 17.390625 54.68359375 14.390625 54.12109375 C12.23385405 52.60453218 10.36706157 50.87792626 8.390625 49.12109375 C7.400625 49.12109375 6.410625 49.12109375 5.390625 49.12109375 C4.0101787 51.14374767 2.81973398 53.11099726 1.640625 55.24609375 C-2.43414173 62.23558823 -6.60797157 67.69642604 -14.609375 70.12109375 C-12.8323887 68.273028 -11.08831416 66.47911263 -9.03125 64.94140625 C-3.88484012 61.02364377 -1.30494623 56.46070173 1.6171875 50.73046875 C3.63363642 47.7635351 4.98991189 47.07282916 8.390625 46.12109375 C9.06158203 46.78818359 9.06158203 46.78818359 9.74609375 47.46875 C13.2914457 50.98545211 13.2914457 50.98545211 17.890625 52.30859375 C21.37407668 50.6539542 24.3580364 48.48948427 27.390625 46.12109375 C26.97804725 42.55598043 26.97804725 42.55598043 24.9765625 39.71875 C21.35448451 36.06990788 19.73781204 30.50984189 18.515625 25.62109375 C15.73060996 16.95660252 8.83317825 8.27188518 1.390625 3.12109375 C-4.259123 3.12884375 -9.05889288 6.12079041 -13.95507812 8.68164062 C-18.29779945 10.83737999 -21.65164634 11.75386457 -26.609375 11.12109375 C-27.269375 10.13109375 -27.929375 9.14109375 -28.609375 8.12109375 C-26.65257812 8.24677734 -26.65257812 8.24677734 -24.65625 8.375 C-19.25645563 8.37605712 -15.53342068 6.59001632 -10.859375 4.05859375 C-3.59003795 0.16660356 -3.59003795 0.16660356 0 0 Z " fill="#BCBCBC" transform="translate(71.609375,28.87890625)"/>
<path d="M0 0 C2.32712052 1.61524645 3.66177947 3.0516652 5.24609375 5.390625 C9.22288966 11.17183655 9.22288966 11.17183655 15.18359375 14.515625 C16.90170401 17.32470262 17.98258145 20.45526773 19.18359375 23.515625 C19.57289062 24.485 19.9621875 25.454375 20.36328125 26.453125 C23.31753333 34.11380626 23.31753333 34.11380626 22.18359375 37.515625 C21.74660156 36.26458984 21.74660156 36.26458984 21.30078125 34.98828125 C16.9693457 23.09726477 10.69283989 12.04331535 0.18359375 4.515625 C-5.44939532 4.46212307 -10.27928746 7.52231108 -15.16210938 10.07617188 C-19.53372178 12.24625285 -22.82925322 13.03837478 -27.81640625 12.515625 C-31.25390625 10.515625 -31.25390625 10.515625 -33.81640625 8.515625 C-30.81640625 8.515625 -30.81640625 8.515625 -28.71484375 8.83203125 C-20.68636915 9.61499394 -15.39338417 6.62402668 -8.74365234 2.54125977 C-3.46504935 -0.59593082 -3.46504935 -0.59593082 0 0 Z " fill="#505050" transform="translate(72.81640625,25.484375)"/>
<path d="M0 0 C3.32611608 0.66522322 4.37946297 1.88467099 6.5 4.5 C7.5 6.16666667 8.5 7.83333333 9.5 9.5 C10.79579647 10.86984198 12.11992749 12.2151049 13.5 13.5 C9.61345597 12.44003345 7.64349861 10.71629935 5 7.8125 C2.45361223 5.06781574 2.45361223 5.06781574 -1.0625 4.125 C-4.68070058 6.16603623 -7.49983268 8.8364633 -9.5 12.5 C-10.0357504 16.22544951 -9.93551653 17.869933 -7.77734375 20.9921875 C-7.00519531 21.77851562 -6.23304687 22.56484375 -5.4375 23.375 C-4.21353516 24.66083984 -4.21353516 24.66083984 -2.96484375 25.97265625 C-1.74474609 27.22369141 -1.74474609 27.22369141 -0.5 28.5 C0.84616187 29.92549369 2.18098149 31.36185387 3.5 32.8125 C4.056875 33.40675781 4.61375 34.00101563 5.1875 34.61328125 C6.76248604 36.87732368 7.12698379 38.79096978 7.5 41.5 C7.17 40.51 6.84 39.52 6.5 38.5 C5.9225 38.396875 5.345 38.29375 4.75 38.1875 C1.15368518 37.08862603 -0.30728668 34.44285209 -2.5 31.5 C-2.80808594 30.83484375 -3.11617187 30.1696875 -3.43359375 29.484375 C-4.64967043 27.22149238 -5.91835168 26.13005386 -7.9375 24.5625 C-10.85741501 22.13634933 -13.02841075 20.0869988 -14.5 16.5 C-14.65896179 13.47972594 -13.96830458 12.04166822 -12.00390625 9.76953125 C-10.212151 7.96236305 -8.36181841 6.2344092 -6.5 4.5 C-5.79875 3.695625 -5.0975 2.89125 -4.375 2.0625 C-2.5 0.5 -2.5 0.5 0 0 Z " fill="#5A5A5A" transform="translate(25.5,19.5)"/>
<path d="M0 0 C5 4 5 4 7.375 6.4375 C9.48777272 8.4999686 11.40143616 10.03808007 13.8125 11.6875 C14.864375 12.450625 15.91625 13.21375 17 14 C17 14.66 17 15.32 17 16 C11.39 16 5.78 16 0 16 C0 10.72 0 5.44 0 0 Z " fill="#FBFBFB" transform="translate(0,112)"/>
<path d="M0 0 C1.32 0 2.64 0 4 0 C2.5453513 4.45434799 0.09152966 7.63691504 -2.9375 11.125 C-3.41823975 11.68904541 -3.89897949 12.25309082 -4.39428711 12.83422852 C-8.582211 17.67878842 -13.09431764 22.1105072 -17.78515625 26.46484375 C-20.20855697 29.23871865 -20.95073885 31.51406602 -22 35 C-24.125 35.875 -24.125 35.875 -26 36 C-26.3125 33.3125 -26.3125 33.3125 -26 30 C-23.9140625 27.71875 -23.9140625 27.71875 -21 25 C-19.88340049 23.91355622 -18.77029354 22.82351483 -17.66015625 21.73046875 C-17.07451904 21.15530518 -16.48888184 20.5801416 -15.88549805 19.98754883 C-6.32071269 11.11767814 -6.32071269 11.11767814 0 0 Z " fill="#565656" transform="translate(26,0)"/>
<path d="M0 0 C0.99 0 1.98 0 3 0 C3.18433594 0.64066406 3.36867187 1.28132813 3.55859375 1.94140625 C5.99420326 9.20493507 9.42297342 13.09593026 16 17 C16.90234375 17.34804687 17.8046875 17.69609375 18.734375 18.0546875 C19.48203125 18.36664063 20.2296875 18.67859375 21 19 C21.8125 21.125 21.8125 21.125 22 23 C19.8125 23.3125 19.8125 23.3125 17 23 C14.625 20.8125 14.625 20.8125 12 18 C10.85066778 17.16315903 9.68293658 16.35112438 8.5 15.5625 C4.90388205 13.03656157 2.43802948 10.69398407 0 7 C-0.3125 3.125 -0.3125 3.125 0 0 Z " fill="#606060" transform="translate(0,105)"/>
<path d="M0 0 C3.94526202 3.2933625 5.31010655 6.94379625 6.875 11.6875 C8.8955734 17.50790863 11.11326181 22.33742081 14.99609375 27.203125 C16 29 16 29 15.8046875 31.08984375 C14.55516751 34.05593731 12.68248629 35.31564815 10 37 C7.6875 36.75 7.6875 36.75 6 36 C6.804375 35.401875 7.60875 34.80375 8.4375 34.1875 C11.22327984 32.19052724 11.22327984 32.19052724 12 29 C11.05660629 27.58490943 10.10567613 26.17413688 9.11328125 24.79296875 C7.05018122 21.47029186 6.12762813 17.71994713 5 14 C4.48452492 12.41491412 3.96379794 10.8315253 3.4375 9.25 C3.19257812 8.51394531 2.94765625 7.77789062 2.6953125 7.01953125 C1.87771132 4.64481321 0.97121667 2.31597821 0 0 Z " fill="#4A4A4A" transform="translate(89,44)"/>
<path d="M0 0 C0.74362793 0.01047363 1.48725586 0.02094727 2.25341797 0.03173828 C3.46191406 0.04140625 3.46191406 0.04140625 4.69482422 0.05126953 C5.95746094 0.07640625 5.95746094 0.07640625 7.24560547 0.10205078 C8.51984375 0.11558594 8.51984375 0.11558594 9.81982422 0.12939453 C11.9202043 0.15299431 14.02043991 0.18886595 16.12060547 0.22705078 C16.12060547 1.54705078 16.12060547 2.86705078 16.12060547 4.22705078 C15.17701172 4.10136719 15.17701172 4.10136719 14.21435547 3.97314453 C8.58916727 3.30388268 3.70826679 3.29577389 -1.87939453 4.22705078 C-1.76699036 8.83562168 -0.49483221 10.95614876 2.68310547 14.10205078 C3.81730285 15.1563751 4.95953341 16.20239711 6.12060547 17.22705078 C5.79060547 17.88705078 5.46060547 18.54705078 5.12060547 19.22705078 C3.80506526 17.93848065 2.4932645 16.64609187 1.18310547 15.35205078 C0.45220703 14.63275391 -0.27869141 13.91345703 -1.03173828 13.17236328 C-3.62384219 10.44325599 -3.86026606 9.58411551 -4.06689453 5.72705078 C-3.78458204 0.45721763 -3.78458204 0.45721763 0 0 Z " fill="#787878" transform="translate(111.87939453125,-0.22705078125)"/>
<path d="M0 0 C1.32 0.66 2.64 1.32 4 2 C3.59519267 9.33589875 2.06950785 15.71572989 -0.375 22.625 C-0.83132812 23.95917969 -0.83132812 23.95917969 -1.296875 25.3203125 C-2.70017718 29.39828464 -4.16393114 33.44143098 -5.7265625 37.4609375 C-7.16928618 40.84360393 -7.16928618 40.84360393 -7 44 C-6.34 44.33 -5.68 44.66 -5 45 C-5.66 45.66 -6.32 46.32 -7 47 C-7.99 47 -8.98 47 -10 47 C-9.52560128 42.44577225 -8.56462525 38.73061857 -6.91137695 34.43505859 C-5.04357819 29.4445885 -3.40721708 24.37589005 -1.75 19.3125 C-1.37359375 18.19810547 -0.9971875 17.08371094 -0.609375 15.93554688 C-0.25875 14.85982422 0.091875 13.78410156 0.453125 12.67578125 C0.77442383 11.70552002 1.09572266 10.73525879 1.42675781 9.7355957 C2.2055154 6.01925041 1.68450241 3.36900482 0 0 Z " fill="#BCBCBC" transform="translate(30,54)"/>
<path d="M0 0 C3.64932128 1.30069604 5.77531404 3.67633624 8.33203125 6.46484375 C11.94840009 10.5064491 11.94840009 10.5064491 16.70703125 12.96484375 C18.42514151 15.77392137 19.50601895 18.90448648 20.70703125 21.96484375 C21.09632812 22.93421875 21.485625 23.90359375 21.88671875 24.90234375 C24.84097083 32.56302501 24.84097083 32.56302501 23.70703125 35.96484375 C23.27003906 34.71380859 23.27003906 34.71380859 22.82421875 33.4375 C18.41608449 21.33592388 12.18726706 10.78437089 1.70703125 2.96484375 C-1.6433176 2.32843526 -3.01570891 2.78997701 -6.29296875 3.96484375 C-3.01123122 -0.04616879 -3.01123122 -0.04616879 0 0 Z " fill="#717171" transform="translate(71.29296875,27.03515625)"/>
<path d="M0 0 C1.32 0.33 2.64 0.66 4 1 C8.00274254 14.39012684 8.00274254 14.39012684 6.375 20.25 C6.25125 20.8275 6.1275 21.405 6 22 C6.66 22.66 7.32 23.32 8 24 C6.68 23.67 5.36 23.34 4 23 C4.03480469 21.82244141 4.03480469 21.82244141 4.0703125 20.62109375 C4.17284781 14.65207397 4.04580539 9.62596482 2 4 C1.34 4 0.68 4 0 4 C-0.78375 4.78375 -1.5675 5.5675 -2.375 6.375 C-4.62061333 8.62061333 -6.12018877 9.82674357 -9 11 C-7.88625 9.948125 -7.88625 9.948125 -6.75 8.875 C-4.02182777 6.02281994 -2.08697046 3.3236937 0 0 Z " fill="#BCBCBC" transform="translate(49,76)"/>
<path d="M0 0 C-0.33 1.32 -0.66 2.64 -1 4 C-1.99 3.34 -2.98 2.68 -4 2 C-7.20379124 1.75753217 -7.20379124 1.75753217 -10.6875 1.875 C-11.86699219 1.89304687 -13.04648438 1.91109375 -14.26171875 1.9296875 C-15.61716797 1.96449219 -15.61716797 1.96449219 -17 2 C-14.97268271 5.50278604 -12.97058312 8.23428468 -10 11 C-10.33 11.66 -10.66 12.32 -11 13 C-12.15498897 11.92643323 -13.29867867 10.84070212 -14.4375 9.75 C-15.07558594 9.14671875 -15.71367188 8.5434375 -16.37109375 7.921875 C-18.10075679 5.88112148 -18.70239435 4.63987234 -19 2 C-17.38497811 -0.56503477 -16.13388134 -0.96727345 -13.1875 -1.6875 C-4.17758985 -2.57082452 -4.17758985 -2.57082452 0 0 Z " fill="#BCBCBC" transform="translate(128,4)"/>
<path d="M0 0 C0.66 0 1.32 0 2 0 C2 5.28 2 10.56 2 16 C-6.30357143 10.10714286 -6.30357143 10.10714286 -8 6 C-5.03 7.98 -5.03 7.98 -2 10 C-2.061875 8.081875 -2.061875 8.081875 -2.125 6.125 C-2.1953125 3.9453125 -2.1953125 3.9453125 -2 2 C-1.34 1.34 -0.68 0.68 0 0 Z " fill="#BCBCBC" transform="translate(126,11)"/>
<path d="M0 0 C0.66 0 1.32 0 2 0 C1.74526859 5.57224968 -1.80748416 8.4353505 -5.5 12.1875 C-6.77692363 13.51477706 -8.05296375 14.84290467 -9.328125 16.171875 C-9.95396484 16.81962891 -10.57980469 17.46738281 -11.22460938 18.13476562 C-14.36979838 21.43911711 -17.34389823 24.89003273 -20.328125 28.33984375 C-22 30 -22 30 -24 30 C-22.4975457 26.4567789 -20.43747735 24.22928476 -17.6875 21.5625 C-16.87925781 20.76972656 -16.07101563 19.97695313 -15.23828125 19.16015625 C-13.62273655 17.60100054 -12.00083902 16.04841812 -10.375 14.5 C-4.09908618 7.93669826 -4.09908618 7.93669826 0 0 Z " fill="#BCBCBC" transform="translate(24,0)"/>
<path d="M0 0 C1.31322788 0.97819024 2.62556152 1.9575811 3.9375 2.9375 C4.66839844 3.48277344 5.39929688 4.02804688 6.15234375 4.58984375 C8 6 8 6 9 7 C9.14115161 9.67058851 9.04247107 12.32432238 9 15 C7.1875 14.4375 7.1875 14.4375 5 13 C3.93097061 10.69747517 2.92824183 8.3627974 2 6 C1.34 5.34 0.68 4.68 0 4 C0 2.68 0 1.36 0 0 Z " fill="#363636" transform="translate(119,20)"/>
<path d="M0 0 C0.66 0 1.32 0 2 0 C1.68950274 1.43793392 1.3765224 2.8753318 1.0625 4.3125 C0.88847656 5.11300781 0.71445312 5.91351563 0.53515625 6.73828125 C0 9 0 9 -1 12 C-1.66 12 -2.32 12 -3 12 C-3.12375 12.86625 -3.2475 13.7325 -3.375 14.625 C-3.98058121 17.89513853 -4.88306035 20.87256899 -6 24 C-6.33 24 -6.66 24 -7 24 C-7.3765493 18.85382627 -6.08952366 15.66124508 -4 11 C-3.61775904 9.59064897 -3.26337911 8.17343995 -2.9375 6.75 C-2 3 -2 3 0 0 Z " fill="#4A4A4A" transform="translate(30,61)"/>
<path d="M0 0 C0.33 5.94 0.66 11.88 1 18 C1.99 18 2.98 18 4 18 C3.67 18.99 3.34 19.98 3 21 C2.01 21 1.02 21 0 21 C-1.6498007 17.70039859 -1.38258361 14.00872116 -1.5625 10.375 C-1.60568359 9.57320312 -1.64886719 8.77140625 -1.69335938 7.9453125 C-1.79951457 5.9637489 -1.90026855 3.98189729 -2 2 C-2.76699219 2.47050781 -3.53398438 2.94101563 -4.32421875 3.42578125 C-6.8333981 4.90198458 -9.27646362 5.98840077 -12 7 C-11.07038578 5.84775972 -10.1309875 4.70340824 -9.1875 3.5625 C-8.66542969 2.92441406 -8.14335938 2.28632812 -7.60546875 1.62890625 C-4.95932601 -1.05586631 -3.53585792 -1.17861931 0 0 Z " fill="#373737" transform="translate(52,83)"/>
<path d="M0 0 C0.99 0.33 1.98 0.66 3 1 C5.31675615 6.48705404 5.08043657 11.53395255 4.77734375 17.42578125 C4.85082031 18.27527344 4.92429687 19.12476562 5 20 C5.99 20.66 6.98 21.32 8 22 C6.0625 22.5625 6.0625 22.5625 4 23 C2.48578999 21.48578999 2.78690144 20.07527232 2.68359375 17.96484375 C2.64169922 17.15595703 2.59980469 16.34707031 2.55664062 15.51367188 C2.51732422 14.66353516 2.47800781 13.81339844 2.4375 12.9375 C2.39431641 12.08349609 2.35113281 11.22949219 2.30664062 10.34960938 C2.20023298 8.23327963 2.09958269 6.11666187 2 4 C0.68 3.67 -0.64 3.34 -2 3 C-1.34 2.01 -0.68 1.02 0 0 Z " fill="#787878" transform="translate(49,79)"/>
<path d="M0 0 C0.66 0.33 1.32 0.66 2 1 C1.236875 1.5775 0.47375 2.155 -0.3125 2.75 C-2.98231511 4.80041339 -2.98231511 4.80041339 -4.5 7.0625 C-7.1995802 10.54945776 -10.71861068 12.20715013 -15 13 C-13.49862009 8.94269953 -11.14323424 7.55135309 -7.5 5.375 C-3.5068664 2.99842954 -3.5068664 2.99842954 0 0 Z " fill="#5C5C5C" transform="translate(44,84)"/>
<path d="M0 0 C5.04340696 3.66793234 11.1105031 8.51613714 12.703125 14.75390625 C12.80109375 15.49511719 12.8990625 16.23632812 13 17 C12.67 16.01 12.34 15.02 12 14 C11.13375 13.8453125 11.13375 13.8453125 10.25 13.6875 C5.92788089 12.36685249 3.57887734 7.87829665 1.1875 4.25 C0 2 0 2 0 0 Z " fill="#5E5E5E" transform="translate(20,44)"/>
<path d="M0 0 C2.62890468 2.02801218 5.05531177 4.05676735 7.375 6.4375 C9.48777272 8.4999686 11.40143616 10.03808007 13.8125 11.6875 C14.864375 12.450625 15.91625 13.21375 17 14 C17 14.66 17 15.32 17 16 C13.83715933 14.5479686 11.23584692 12.77057857 8.5 10.625 C7.37078125 9.74714844 7.37078125 9.74714844 6.21875 8.8515625 C3.99007329 6.99171609 1.91474115 5.18454559 0 3 C0 2.01 0 1.02 0 0 Z " fill="#BCBCBC" transform="translate(0,112)"/>
<path d="M0 0 C1.98 0 3.96 0 6 0 C5.67 0.66 5.34 1.32 5 2 C4.76446052 6.23971058 4.67154114 9.36178302 7 13 C5.109375 12.3515625 5.109375 12.3515625 3 11 C1.953125 8.3984375 1.953125 8.3984375 1.25 5.375 C1.00765625 4.37210937 0.7653125 3.36921875 0.515625 2.3359375 C0.34546875 1.56507812 0.1753125 0.79421875 0 0 Z " fill="#363636" transform="translate(104,0)"/>
<path d="M0 0 C1 2 1 2 1 6 C2.6454378 7.68762851 4.31288577 9.3540349 6 11 C6.8125 13.3125 6.8125 13.3125 7 15 C-0.02155172 9.5387931 -0.02155172 9.5387931 -2 5 C-1.75495152 2.79456367 -1.57580336 1.57580336 0 0 Z " fill="#444444" transform="translate(13,31)"/>
<path d="M0 0 C0.66 0.33 1.32 0.66 2 1 C-5.11389522 7.70387244 -5.11389522 7.70387244 -10 8 C-9.25 3.25 -9.25 3.25 -7 1 C-7 2.32 -7 3.64 -7 5 C-4.37098712 3.47793991 -2.15634036 2.15634036 0 0 Z " fill="#787878" transform="translate(27,96)"/>
<path d="M0 0 C1.32 0 2.64 0 4 0 C2.67367286 5.63689034 -1.46631765 7.93185683 -6 11 C-4.93627051 8.7942579 -3.92200211 6.89704279 -2.4375 4.9375 C-0.81311272 2.95818504 -0.81311272 2.95818504 0 0 Z " fill="#5D5D5D" transform="translate(26,0)"/>
<path d="M0 0 C0.33 0.66 0.66 1.32 1 2 C0.67 2.99 0.34 3.98 0 5 C2.31 4.34 4.62 3.68 7 3 C4.16569547 6.2542015 2.31392226 7.5206753 -2 8 C-2.125 5.125 -2.125 5.125 -2 2 C-1.34 1.34 -0.68 0.68 0 0 Z " fill="#363636" transform="translate(17,99)"/>
<path d="M0 0 C2.31 0.66 4.62 1.32 7 2 C7.33 3.32 7.66 4.64 8 6 C6.35 6 4.7 6 3 6 C2.01 4.02 1.02 2.04 0 0 Z " fill="#494949" transform="translate(14,122)"/>
<path d="M0 0 C7.68490153 5.0940919 7.68490153 5.0940919 9 8.875 C9 9.57625 9 10.2775 9 11 C7.33333333 9.33333333 5.66666667 7.66666667 4 6 C3.236875 5.278125 2.47375 4.55625 1.6875 3.8125 C0 2 0 2 0 0 Z " fill="#787878" transform="translate(119,20)"/>
<path d="M0 0 C0.99 0 1.98 0 3 0 C4.85776765 3.13498292 5.20140476 5.37471432 5 9 C2.5 6.75 2.5 6.75 0 4 C0 2.68 0 1.36 0 0 Z " fill="#363636" transform="translate(0,105)"/>
<path d="M0 0 C0.66 0 1.32 0 2 0 C2 1.65 2 3.3 2 5 C0.35 5 -1.3 5 -3 5 C-1.125 1.125 -1.125 1.125 0 0 Z " fill="#363636" transform="translate(126,123)"/>
<path d="M0 0 C0.598125 0.20625 1.19625 0.4125 1.8125 0.625 C-0.58259338 3.52432357 -2.49995243 4.12668276 -6.1875 4.625 C-5.03076352 1.15479057 -3.91311293 -0.67081936 0 0 Z " fill="#4E4E4E" transform="translate(62.1875,97.375)"/>
<path d="M0 0 C1 3 1 3 0 6 C-2.0625 6.6875 -2.0625 6.6875 -4 7 C-3.67 5.68 -3.34 4.36 -3 3 C-2.34 3 -1.68 3 -1 3 C-0.67 2.01 -0.34 1.02 0 0 Z " fill="#363636" transform="translate(4,29)"/>
</svg>
