<?xml version="1.0" encoding="UTF-8"?>
<svg version="1.1" xmlns="http://www.w3.org/2000/svg" width="128" height="128">
<path d="M0 0 C42.24 0 84.48 0 128 0 C128 42.24 128 84.48 128 128 C85.76 128 43.52 128 0 128 C0 85.76 0 43.52 0 0 Z " fill="#C5BAB5" transform="translate(0,0)"/>
<path d="M0 0 C42.24 0 84.48 0 128 0 C128 42.24 128 84.48 128 128 C114.8 128 101.6 128 88 128 C88.66 124.7 89.32 121.4 90 118 C90.27448521 114.18965666 90.27448521 114.18965666 90.1875 110.5 C90.18250488 109.8385498 90.17750977 109.17709961 90.17236328 108.49560547 C90.12156957 104.66825496 89.94490368 100.85868383 89.69921875 97.0390625 C89.64677002 96.21986328 89.59432129 95.40066406 89.5402832 94.55664062 C89.43163254 92.95817586 89.31199588 91.36041303 89.18041992 89.76367188 C89.04319835 87.84641118 89.01261788 85.92212359 89 84 C91.71912087 81.28087913 94.19425496 81.3242533 97.90625 80.7578125 C100.09908303 80.18937787 100.09908303 80.18937787 101.15625 78.3671875 C102.07490697 75.90600874 102.07490697 75.90600874 102.78515625 72.9140625 C104.20765798 67.7097879 106.89742025 63.1041185 109.4375 58.375 C109.92798828 57.446875 110.41847656 56.51875 110.92382812 55.5625 C113.18340405 51.30559314 115.51998202 47.1325093 118 43 C119.30411562 40.3840292 120.56260898 37.74977051 121.81640625 35.109375 C123 33 123 33 125 32 C126.38597395 28.53397111 126.38597395 28.53397111 126 25 C122.50290915 20.35992058 118.37218365 16.33412117 113 14 C113 13.01 113 12.02 113 11 C109.91530294 11.05197921 106.83338441 11.14707135 103.75 11.25 C102.87730469 11.26417969 102.00460938 11.27835938 101.10546875 11.29296875 C95.881089 11.41383183 95.881089 11.41383183 91.515625 14.046875 C90.76539062 15.01367188 90.76539062 15.01367188 90 16 C89.34 16 88.68 16 88 16 C87.71125 16.94875 87.4225 17.8975 87.125 18.875 C86 22 86 22 84 24 C83.41375001 25.79241026 82.90116581 27.60954004 82.4375 29.4375 C81.69337139 32.33304709 80.94575112 35.16274665 80 38 C79.87224654 39.99863197 79.77167421 41.99905887 79.6875 44 C79.00632594 53.400202 76.63751442 61.17811018 70 68 C67.03 67.34 64.06 66.68 61 66 C60.67 68.31 60.34 70.62 60 73 C59.01 73.33 58.02 73.66 57 74 C56.94600264 72.54207116 56.90720823 71.08357288 56.875 69.625 C56.85179687 68.81289062 56.82859375 68.00078125 56.8046875 67.1640625 C57 65 57 65 59 63 C59.64195313 62.85175781 60.28390625 62.70351563 60.9453125 62.55078125 C64.83906145 61.50701965 66.78841918 58.20054325 69 55 C73.74215074 46.67097885 77.39097641 38.75229017 76 29 C74.65221723 25.46880914 72.87565868 22.27427123 71 19 C70.67773438 18.32453125 70.35546875 17.6490625 70.0234375 16.953125 C67.72538984 12.27709758 64.71113892 9.95462147 60 8 C54.37698367 6.74040182 48.63548611 6.99526692 43 8 C39.63889901 10.44079953 38.45309523 13.17785068 37 17 C36.59652344 17.85078125 36.19304688 18.7015625 35.77734375 19.578125 C33.19242024 25.29124408 31.75769063 30.1961487 33.78857422 36.41455078 C35.22764538 40.06432946 36.76093215 43.66700332 38.33203125 47.26171875 C41.46453627 54.87865201 41.46453627 54.87865201 40.35546875 58.9765625 C38.89894516 62.22540762 37.55818276 64.51490818 35 67 C32.25 67.8125 32.25 67.8125 30 68 C29.01 64.535 29.01 64.535 28 61 C21.43971927 63.51053949 21.43971927 63.51053949 15.125 66.5625 C10.35163374 68.75824848 5.0972968 69.7256758 0 71 C0 47.57 0 24.14 0 0 Z " fill="#FBFBFC" transform="translate(0,0)"/>
<path d="M0 0 C4.63975357 0.62911913 6.33499251 2.31035966 9.62109375 5.5 C11.7074409 7.51930008 13.91087077 9.26368184 16.1875 11.0625 C19.61829922 14.02424464 19.61829922 14.02424464 20.1875 17.9375 C20.0225 18.783125 19.8575 19.62875 19.6875 20.5 C19.08679688 20.72945312 18.48609375 20.95890625 17.8671875 21.1953125 C15.07250153 22.86811737 14.29324791 24.48879644 12.8125 27.375 C12.29945312 28.36242187 11.78640625 29.34984375 11.2578125 30.3671875 C10.73960938 31.40101562 10.22140625 32.43484375 9.6875 33.5 C9.18992188 34.49257813 8.69234375 35.48515625 8.1796875 36.5078125 C7.18541395 38.50156523 6.19322319 40.496358 5.203125 42.4921875 C-1.39103403 55.57853403 -1.39103403 55.57853403 -4.3125 58.5 C-4.83954163 60.37088897 -4.83954163 60.37088897 -5.1875 62.4375 C-5.83526638 65.17805006 -6.20406316 66.37219943 -8.0625 68.5625 C-11.11178045 69.83303352 -13.16266147 69.28745963 -16.3125 68.5 C-17.125 66.4375 -17.125 66.4375 -17.3125 63.5 C-15.66047836 60.18171516 -13.76449015 57.16442153 -10.33203125 55.59375 C-7.60733215 54.11809092 -6.71680675 52.35778167 -5.1875 49.6875 C-4.68992188 48.83542969 -4.19234375 47.98335937 -3.6796875 47.10546875 C-1.00868657 42.38214728 -1.00868657 42.38214728 -0.6875 37.1875 C-0.89375 36.630625 -1.1 36.07375 -1.3125 35.5 C-3.2773239 36.0181036 -3.2773239 36.0181036 -5.3125 37.5 C-6.36297644 39.81104818 -7.36257438 42.14583651 -8.3125 44.5 C-9.875 46.4375 -9.875 46.4375 -11.3125 47.5 C-11.9725 47.5 -12.6325 47.5 -13.3125 47.5 C-13.56 48.5725 -13.8075 49.645 -14.0625 50.75 C-15.31405428 54.50466284 -16.24086198 56.1002828 -19.3125 58.5 C-19.9725 58.5 -20.6325 58.5 -21.3125 58.5 C-21.46788235 62.77301451 -21.41662126 66.51889247 -20.375 70.671875 C-19.24851936 75.52913558 -18.65541303 80.35300665 -18.1875 85.3125 C-18.10330811 86.18398682 -18.01911621 87.05547363 -17.93237305 87.95336914 C-17.17782001 96.19688021 -16.49274798 104.36206897 -18.3125 112.5 C-20.125 113.125 -20.125 113.125 -22.3125 113.5 C-25.3125 111.5 -25.3125 111.5 -25.8125 109.0625 C-25.9775 108.216875 -26.1425 107.37125 -26.3125 106.5 C-26.786875 106.025625 -27.26125 105.55125 -27.75 105.0625 C-29.97213753 102.84036247 -30.36991133 100.49410518 -31.3125 97.5 C-33.18561485 92.77344851 -35.26544664 88.459898 -38.125 84.25 C-39.79357766 81.66755519 -40.3125 80.83830211 -40.3125 77.6875 C-39.25381767 75.37163241 -38.33748373 74.03898764 -36.3125 72.5 C-35.6525 72.5 -34.9925 72.5 -34.3125 72.5 C-34.15394531 71.51 -33.99539062 70.52 -33.83203125 69.5 C-32.66926437 62.75748989 -31.53132786 57.09526954 -27.453125 51.45703125 C-24.6561687 46.65814391 -24.2772725 40.63629654 -24.3671875 35.18359375 C-24.21910096 25.20890774 -21.84975717 14.67140076 -15.04296875 7.16796875 C-9.89577263 2.20667587 -6.92229874 1.04487528 0 0 Z " fill="#B57D60" transform="translate(105.3125,10.5)"/>
<path d="M0 0 C6.66459627 2.22153209 6.66459627 2.22153209 9.8125 4.375 C14.0025272 7.10621696 18.3880137 9.08901493 23 11 C25.0245738 9.06745228 26.42105792 7.36841312 28 5 C31 6 31 6 32.0625 7.7578125 C34.10786514 12.92235949 35.4413352 17.90453569 36.4375 23.375 C37.57271964 29.58717413 39.38886964 34.9739009 42.01171875 40.70703125 C43 43 43 43 43 45 C43.66 45 44.32 45 45 45 C45.33 45.99 45.66 46.98 46 48 C30.82 48 15.64 48 0 48 C0 32.16 0 16.32 0 0 Z " fill="#FBFBFC" transform="translate(0,80)"/>
<path d="M0 0 C5.12640488 6.66150964 5.12640488 6.66150964 4.875 11.3125 C3.85713108 14.43881169 2.47313609 17.23091194 0.9375 20.1328125 C-0.12637293 22.1406578 -0.12637293 22.1406578 -1 25 C-0.01 25.33 0.98 25.66 2 26 C1.9071875 27.3921875 1.9071875 27.3921875 1.8125 28.8125 C2.02948323 32.50121492 2.44434361 32.64093256 5 35 C5.70626239 36.98636298 6.36893571 38.98848259 7 41 C7.556875 41.969375 8.11375 42.93875 8.6875 43.9375 C10.80535782 48.87916825 9.36102955 52.72577805 7.9375 57.75 C6.59845725 62.78876828 6.82878639 67.82554413 7 73 C6.01 73.33 5.02 73.66 4 74 C3.505 75.485 3.505 75.485 3 77 C2.34 77 1.68 77 1 77 C-2.02505588 69.02485269 -4.51925957 61.28722817 -6.30859375 52.93359375 C-7.20843976 49.11560304 -8.50815037 45.62306339 -10 42 C-10.66 42 -11.32 42 -12 42 C-12.474375 42.804375 -12.94875 43.60875 -13.4375 44.4375 C-15 47 -15 47 -18 48 C-20.3125 46.99609375 -20.3125 46.99609375 -23 45.4375 C-23.96550781 44.88707031 -24.93101563 44.33664063 -25.92578125 43.76953125 C-26.94027344 43.18558594 -27.95476563 42.60164063 -29 42 C-31.05967887 40.86984328 -33.12204582 39.74456701 -35.1875 38.625 C-36.79166667 37.75 -38.39583333 36.875 -40 36 C-40 33.03 -40 30.06 -40 27 C-36.22579156 25.31365155 -32.50499031 23.80821742 -28.5625 22.5625 C-24.73760372 21.33540017 -21.32577386 19.72952122 -17.82421875 17.76953125 C-16 17 -16 17 -12 17 C-11.34 18.98 -10.68 20.96 -10 23 C-5.90010361 22.23722858 -3.53035021 20.98027767 -1.0625 17.6875 C2.19008579 12.08352257 0.94704507 6.15110462 0 0 Z " fill="#C9BCB4" transform="translate(40,44)"/>
<path d="M0 0 C0.5775 0.185625 1.155 0.37125 1.75 0.5625 C3.95250963 1.18552631 3.95250963 1.18552631 5.8125 0.375 C10.30639945 -0.39538276 14.38031685 2.5868779 18 5 C17.375 6.9375 17.375 6.9375 16 9 C12.9140625 9.62890625 12.9140625 9.62890625 10 10 C9.75765625 10.75023437 9.5153125 11.50046875 9.265625 12.2734375 C3.46929248 29.97454527 3.46929248 29.97454527 -0.75 36.25 C-2.99845436 39.71607888 -3.60051168 41.79641827 -3 46 C-2.68808504 47.36102061 -2.36828755 48.72024588 -2.04296875 50.078125 C-0.94587728 54.96633744 -0.34516721 59.8291141 0.125 64.8125 C0.20919189 65.68398682 0.29338379 66.55547363 0.38012695 67.45336914 C1.13467999 75.69688021 1.81975202 83.86206897 0 92 C-1.8125 92.625 -1.8125 92.625 -4 93 C-7 91 -7 91 -7.5 88.5625 C-7.665 87.716875 -7.83 86.87125 -8 86 C-8.474375 85.525625 -8.94875 85.05125 -9.4375 84.5625 C-11.65963753 82.34036247 -12.05741133 79.99410518 -13 77 C-14.87311485 72.27344851 -16.95294664 67.959898 -19.8125 63.75 C-21.48107766 61.16755519 -22 60.33830211 -22 57.1875 C-20.94131767 54.87163241 -20.02498373 53.53898764 -18 52 C-17.34 52 -16.68 52 -16 52 C-15.84144531 51.01 -15.68289062 50.02 -15.51953125 49 C-15.28476129 47.66650664 -15.04903227 46.33318189 -14.8125 45 C-14.59207031 43.700625 -14.37164062 42.40125 -14.14453125 41.0625 C-13.4460851 37.96573478 -12.3620343 35.8583198 -10.55078125 33.26171875 C-7.15939777 28.18920547 -6.40349566 22.74083592 -5.375 16.8125 C-4.99581784 14.69241057 -4.60808526 12.57382882 -4.2109375 10.45703125 C-4.04899902 9.52866455 -3.88706055 8.60029785 -3.72021484 7.64379883 C-2.92088445 4.70957887 -1.66817531 2.52856946 0 0 Z " fill="#B8613C" transform="translate(87,31)"/>
<path d="M0 0 C1.11375 0.3403125 1.11375 0.3403125 2.25 0.6875 C2.30399736 2.14542884 2.34279177 3.60392712 2.375 5.0625 C2.39820313 5.87460937 2.42140625 6.68671875 2.4453125 7.5234375 C2.25 9.6875 2.25 9.6875 0.25 11.6875 C0.49466979 13.5887974 0.49466979 13.5887974 1.25 15.6875 C3.86006313 24.08509442 4.67229339 31.99531995 4.78320312 40.74414062 C4.90043805 45.58859038 5.22770745 48.68604634 8.25 52.6875 C9.68968406 55.56686812 9.552823 57.47757619 9.25 60.6875 C8.35849975 62.49076186 7.35769802 64.12140397 6.22265625 65.78125 C3.66593922 70.79200467 3.9731746 77.03633559 3.6875 82.5625 C3.64431641 83.34625 3.60113281 84.13 3.55664062 84.9375 C3.45146649 86.85400649 3.35032075 88.77073333 3.25 90.6875 C0.775 91.6775 0.775 91.6775 -1.75 92.6875 C-3.25 91.5 -3.25 91.5 -4.75 89.6875 C-4.9375 87 -4.9375 87 -4.75 84.6875 C-3.76 84.6875 -2.77 84.6875 -1.75 84.6875 C-1.78480469 84.00945312 -1.81960937 83.33140625 -1.85546875 82.6328125 C-2.00275542 77.56895663 -1.83610767 73.31843061 -0.1875 68.5 C1.42158323 63.70325426 1.43994117 60.61725628 0.25 55.6875 C-0.73028616 54.33960653 -1.72971135 53.00537285 -2.75 51.6875 C-3.4375 47.9375 -3.4375 47.9375 -3.75 44.6875 C-4.74 44.3575 -5.73 44.0275 -6.75 43.6875 C-6.75 41.7075 -6.75 39.7275 -6.75 37.6875 C-7.41 37.3575 -8.07 37.0275 -8.75 36.6875 C-8.38296859 32.92542807 -7.63060276 30.27863744 -5.625 27.125 C-3.50922368 23.95484911 -3.50922368 23.95484911 -3.875 21.0625 C-4.45645459 19.4842661 -5.09234479 17.92500477 -5.78125 16.390625 C-6.82815685 13.46941718 -7.08236862 11.15753789 -7.125 8.0625 C-7.15335938 7.12148438 -7.18171875 6.18046875 -7.2109375 5.2109375 C-6.75 2.6875 -6.75 2.6875 -4.8984375 0.83203125 C-2.75 -0.3125 -2.75 -0.3125 0 0 Z " fill="#C67F5B" transform="translate(47.75,32.3125)"/>
<path d="M0 0 C1.32 0 2.64 0 4 0 C4.495 1.485 4.495 1.485 5 3 C5.680625 3.391875 6.36125 3.78375 7.0625 4.1875 C11.35998366 6.83913885 15.00610194 9.90783783 18 14 C18.25 17.75 18.25 17.75 17 21 C15.66666667 22.33333333 14.33333333 23.66666667 13 25 C12.32459442 26.54138203 11.70576151 28.10802309 11.125 29.6875 C9.80251147 33.22271254 8.36097941 36.16561941 6.1875 39.25 C1.2253527 46.34058103 -2.87084352 54.43526511 -5.6875 62.625 C-7.06946884 66.17863415 -7.94116859 67.76787978 -11 70 C-12.36812069 70.56851475 -13.75132547 71.10154326 -15.14453125 71.60546875 C-16.2269812 72.00028442 -16.2269812 72.00028442 -17.33129883 72.40307617 C-17.88197021 72.60006104 -18.4326416 72.7970459 -19 73 C-18.9278125 74.11375 -18.855625 75.2275 -18.78125 76.375 C-16.88710327 106.81568429 -16.88710327 106.81568429 -21 117 C-23.31 117 -25.62 117 -28 117 C-28.33 115.02 -28.66 113.04 -29 111 C-26.69 111.33 -24.38 111.66 -22 112 C-21.78491894 102.77541231 -21.96246107 93.68772594 -22.875 84.5 C-22.95347168 83.68885742 -23.03194336 82.87771484 -23.11279297 82.04199219 C-23.62319094 77.25541928 -24.43869633 72.63389091 -25.55932617 67.95214844 C-26.19871408 65.11971312 -26.45832227 62.88088283 -26 60 C-24.37897032 58.28891311 -22.70496537 56.62746694 -21 55 C-20.28583635 53.67026992 -19.62055706 52.31340724 -19 50.9375 C-17.27910016 47.20307768 -15.22411896 45.56276123 -12 43 C-11.505 41.80375 -11.01 40.6075 -10.5 39.375 C-9 36 -9 36 -6.3125 34.5625 C-5.549375 34.376875 -4.78625 34.19125 -4 34 C-2.45518799 39.31680699 -4.07419828 41.8769692 -6.6015625 46.5546875 C-7.06304687 47.36164062 -7.52453125 48.16859375 -8 49 C-8.35835937 49.64195313 -8.71671875 50.28390625 -9.0859375 50.9453125 C-11.4338718 54.83349171 -11.4338718 54.83349171 -14.125 55.625 C-14.74375 55.74875 -15.3625 55.8725 -16 56 C-17.21690533 57.76529595 -17.21690533 57.76529595 -18 60 C-18.556875 61.2684375 -18.556875 61.2684375 -19.125 62.5625 C-20.16893238 65.03896506 -20.16893238 65.03896506 -20 68 C-16.54986529 68.31364861 -14.6450855 68.44797604 -11.75 66.4375 C-9.58880964 63.42727057 -8.95421837 60.56241526 -8 57 C-7.03542166 55.64082143 -6.03145371 54.30915279 -5 53 C-3.62623091 50.34720451 -2.30029865 47.68845532 -1 45 C7.63946184 27.21878202 7.63946184 27.21878202 12 21 C12.99 20.67 13.98 20.34 15 20 C15.48708584 17.2166972 15.48708584 17.2166972 15 14 C13.07239866 11.98573131 11.40198623 10.49435902 9.1875 8.875 C5.66757592 6.19670677 2.45909077 3.74472068 0 0 Z " fill="#CABDB5" transform="translate(109,11)"/>
<path d="M0 0 C0.66 0 1.32 0 2 0 C2.5775 1.175625 3.155 2.35125 3.75 3.5625 C5.10647097 6.2850283 6.51966152 8.94146166 8.0625 11.5625 C9.98253324 14.96901059 11.49258932 18.39532228 13 22 C13.515625 23.03125 14.03125 24.0625 14.5625 25.125 C16.95126132 29.90252263 18 32.52593901 18 38 C9.42 38 0.84 38 -8 38 C-7.31506849 12.31506849 -7.31506849 12.31506849 -1 6 C-0.60235737 4.01178687 -0.26224651 2.01055661 0 0 Z " fill="#FCFCFD" transform="translate(61,90)"/>
<path d="M0 0 C4.542612 0.07301227 7.54412187 0.34102454 11.08618164 3.47070312 C11.89055664 4.46070313 12.69493164 5.45070313 13.52368164 6.47070312 C13.19368164 7.79070313 12.86368164 9.11070313 12.52368164 10.47070312 C11.92555664 9.68695313 11.32743164 8.90320312 10.71118164 8.09570312 C8.1613824 5.03594404 6.58922027 3.62190406 2.60571289 3.05664062 C1.52676758 2.98703125 0.44782227 2.91742188 -0.66381836 2.84570312 C-1.75049805 2.7709375 -2.83717773 2.69617188 -3.95678711 2.61914062 C-4.78823242 2.57015625 -5.61967773 2.52117188 -6.47631836 2.47070312 C-6.47631836 3.46070313 -6.47631836 4.45070313 -6.47631836 5.47070312 C-5.22915039 5.63505859 -5.22915039 5.63505859 -3.95678711 5.80273438 C-2.32676758 6.04056641 -2.32676758 6.04056641 -0.66381836 6.28320312 C0.41512695 6.43402344 1.49407227 6.58484375 2.60571289 6.74023438 C5.62608739 7.49633884 6.74300654 7.96813271 8.52368164 10.47070312 C9.21118164 13.65820312 9.21118164 13.65820312 9.52368164 16.47070312 C8.76055664 16.67695313 7.99743164 16.88320313 7.21118164 17.09570312 C3.70139062 18.89141016 2.99768383 20.90206625 1.52368164 24.47070312 C-3.22631836 23.72070312 -3.22631836 23.72070312 -5.47631836 21.47070312 C-5.8767928 19.14795136 -6.21602876 16.81330955 -6.47631836 14.47070312 C-7.46631836 14.14070313 -8.45631836 13.81070312 -9.47631836 13.47070312 C-9.37319336 14.35757812 -9.27006836 15.24445312 -9.16381836 16.15820312 C-9.57568979 20.52404025 -11.33012535 21.54923818 -14.47631836 24.47070312 C-16.07091992 27.37707173 -16.65637288 28.76030618 -15.83178711 32.01367188 C-15.44635742 32.88636719 -15.06092773 33.7590625 -14.66381836 34.65820312 C-12.522362 39.96497714 -11.72330138 44.77774448 -11.47631836 50.47070312 C-12.46631836 50.96570312 -12.46631836 50.96570312 -13.47631836 51.47070312 C-13.5678418 50.66503906 -13.65936523 49.859375 -13.75366211 49.02929688 C-14.81551765 43.80037581 -16.95069452 39.08635475 -19.03686523 34.19140625 C-21.68189816 27.71299228 -22.61630179 22.27212652 -19.85131836 15.59570312 C-15.09640732 4.46682531 -11.97422757 0.16908887 0 0 Z " fill="#CABDB5" transform="translate(53.476318359375,6.529296875)"/>
<path d="M0 0 C0.99 0.33 1.98 0.66 3 1 C2.938125 1.928125 2.87625 2.85625 2.8125 3.8125 C3.02948323 7.50121492 3.44434361 7.64093256 6 10 C6.70626239 11.98636298 7.36893571 13.98848259 8 16 C8.556875 16.969375 9.11375 17.93875 9.6875 18.9375 C11.80535782 23.87916825 10.36102955 27.72577805 8.9375 32.75 C7.59845725 37.78876828 7.82878639 42.82554413 8 48 C6.515 48.495 6.515 48.495 5 49 C4.34 49.99 3.68 50.98 3 52 C1.34339783 47.62657027 0.76211734 43.91198956 0.625 39.25 C0.24796051 32.75806551 -1.23859262 27.82500652 -4 22 C-5.29613919 19.02650421 -6 17.27133275 -6 14 C-6.61875 13.7525 -7.2375 13.505 -7.875 13.25 C-10.41465893 11.75608298 -11.09909878 10.78460378 -12 8 C-11.64827002 5.01029519 -11.17288535 4.17288535 -9 2 C-3.66666667 1.66666667 -3.66666667 1.66666667 -1 3 C-0.67 2.01 -0.34 1.02 0 0 Z " fill="#E6A277" transform="translate(39,69)"/>
<path d="M0 0 C11.82511526 -0.86105208 11.82511526 -0.86105208 15.6875 2.375 C18 5 18 5 19 7 C19.99 7.33 20.98 7.66 22 8 C22 8.99 22 9.98 22 11 C22.99 11.33 23.98 11.66 25 12 C28.00061458 19.04422354 28.20375952 28.29027819 25.625 35.4375 C24 39 24 39 22 42 C21.34 42 20.68 42 20 42 C19.5978125 42.8971875 19.5978125 42.8971875 19.1875 43.8125 C17.99012525 46.01819033 16.95521016 47.43583187 15 49 C14.01 49 13.02 49 12 49 C12.96196332 46.33610156 13.79382465 44.24582445 15.625 42.0625 C17.18423957 39.99570394 17.18423957 39.99570394 17.625 37.125 C16.89996528 33.49982639 16.32102928 33.2039696 13.5 31.0625 C10.05765711 28.42522117 10.05765711 28.42522117 9.5 24.3125 C10 21 10 21 11 18 C12.98 17.67 14.96 17.34 17 17 C16.65707838 12.07021345 16.65707838 12.07021345 14.33984375 7.8359375 C11.45015326 5.56856767 9.43653135 5.28993173 5.8125 4.875 C3.86678321 4.64443138 1.92467485 4.36688204 0 4 C-0.33 3.34 -0.66 2.68 -1 2 C-0.67 1.34 -0.34 0.68 0 0 Z " fill="#8B716A" transform="translate(47,9)"/>
<path d="M0 0 C0.66 0.33 1.32 0.66 2 1 C1.938125 2.216875 1.87625 3.43375 1.8125 4.6875 C1.79848412 8.68202624 2.83712287 10.62591167 5 14 C5.6875 17.8125 5.6875 17.8125 6 21 C6.99 21.33 7.98 21.66 9 22 C10.82925541 25.65851082 10.47735757 29.96526534 10.6875 34 C10.74744141 34.928125 10.80738281 35.85625 10.86914062 36.8125 C10.91619141 37.699375 10.96324219 38.58625 11.01171875 39.5 C11.05772217 40.3146875 11.10372559 41.129375 11.15112305 41.96875 C11 44 11 44 9 46 C8.30251417 47.31747324 7.63040043 48.64914193 7 50 C6.8453125 48.8553125 6.8453125 48.8553125 6.6875 47.6875 C6.2429527 44.99867239 6.2429527 44.99867239 4.5625 43.5625 C2.34036247 41.34036247 1.94258867 38.99410518 1 36 C-0.87311485 31.27344851 -2.95294664 26.959898 -5.8125 22.75 C-7.48107766 20.16755519 -8 19.33830211 -8 16.1875 C-6.94131767 13.87163241 -6.02498373 12.53898764 -4 11 C-3.34 11 -2.68 11 -2 11 C-1.34 7.37 -0.68 3.74 0 0 Z " fill="#E3A076" transform="translate(73,72)"/>
<path d="M0 0 C0.33 0.66 0.66 1.32 1 2 C-0.18219582 4.30169943 -1.40904288 6.48089077 -2.75 8.6875 C-4.91810862 12.29198057 -6.99266363 15.82437292 -8.609375 19.71484375 C-9.73953019 22.38467666 -10.86339004 24.51450487 -12.5 26.875 C-14.40602848 29.79378391 -15.57165284 32.47177487 -16.5625 35.8125 C-17.41038459 38.5398621 -17.93092065 39.91901042 -19.8125 42.125 C-22.81979713 43.32791885 -24.91152179 42.77211955 -28 42 C-28.8125 39.9375 -28.8125 39.9375 -29 37 C-27.34797836 33.68171516 -25.45199015 30.66442153 -22.01953125 29.09375 C-19.29483215 27.61809092 -18.40430675 25.85778167 -16.875 23.1875 C-16.37742187 22.33542969 -15.87984375 21.48335937 -15.3671875 20.60546875 C-12.69618657 15.88214728 -12.69618657 15.88214728 -12.375 10.6875 C-12.58125 10.130625 -12.7875 9.57375 -13 9 C-14.9648239 9.5181036 -14.9648239 9.5181036 -17 11 C-18.01529541 13.32671865 -19.01488198 15.6603447 -20 18 C-22.1875 19.9375 -22.1875 19.9375 -24 21 C-23.71125 20.505 -23.4225 20.01 -23.125 19.5 C-20.99421461 14.76492136 -20 10.1860559 -20 5 C-18.906875 4.690625 -17.81375 4.38125 -16.6875 4.0625 C-14.44592006 3.41662103 -12.2130649 2.7376883 -10 2 C-9.01 2.33 -8.02 2.66 -7 3 C-7 4.32 -7 5.64 -7 7 C-3.17053157 5.54744301 -1.87949705 3.57104439 0 0 Z " fill="#AB9A92" transform="translate(117,37)"/>
<path d="M0 0 C2.57145642 16.3213102 2.57145642 16.3213102 1 23 C0.34 23.66 -0.32 24.32 -1 25 C-6.47172449 24.84139929 -9.73363038 22.49188663 -13.875 19.25 C-14.46796875 18.81945312 -15.0609375 18.38890625 -15.671875 17.9453125 C-18.3620473 15.87499557 -19.87511248 14.67671608 -20.50390625 11.26953125 C-20 9 -20 9 -18.0625 7.4375 C-14.78843976 5.90069621 -11.50443397 4.39792731 -8.18359375 2.96484375 C-6.71655856 2.3166189 -5.27012599 1.61982969 -3.84765625 0.87890625 C-2 0 -2 0 0 0 Z " fill="#B9633F" transform="translate(24,64)"/>
<path d="M0 0 C0.33 0 0.66 0 1 0 C0.76229039 2.13938651 0.52434481 4.27874709 0.28515625 6.41796875 C0.10085961 8.086737 -0.0791293 9.75598913 -0.25390625 11.42578125 C-0.59670842 14.6633573 -0.96035646 17.80971101 -1.625 21 C-1.74875 21.66 -1.8725 22.32 -2 23 C-1.67 23.33 -1.34 23.66 -1 24 C-0.50668876 26.5427952 -0.10021963 29.0940669 0.3046875 31.65234375 C0.83111044 34.34982523 0.83111044 34.34982523 4 36 C3.69230293 34.18667846 3.37870936 32.37435655 3.0625 30.5625 C2.88847656 29.55316406 2.71445313 28.54382813 2.53515625 27.50390625 C2.25248903 25.0712562 2.25248903 25.0712562 1 24 C0.95919217 22.00041636 0.95745644 19.99954746 1 18 C1.66 18 2.32 18 3 18 C9.80422066 29.90026878 10.00382677 52.81653805 7 66 C5.125 66.625 5.125 66.625 3 67 C2.34 66.34 1.68 65.68 1 65 C1.55555556 60.44444444 1.55555556 60.44444444 3 59 C3.14809742 55.74949502 2.94638185 52.49947139 2.8125 49.25 C2.78446289 47.88875 2.78446289 47.88875 2.75585938 46.5 C2.52541374 40.96930469 1.9556806 38.12864763 -2 34 C-3.01171875 31.68359375 -3.01171875 31.68359375 -3.6875 29.4375 C-3.91824219 28.69371094 -4.14898437 27.94992188 -4.38671875 27.18359375 C-4.58910156 26.46300781 -4.79148437 25.74242188 -5 25 C-5.18433594 24.34644531 -5.36867188 23.69289063 -5.55859375 23.01953125 C-6.60929695 18.21233166 -7.02981733 13.21206251 -4.91796875 8.67578125 C-4.04910574 7.32115621 -3.14263348 5.98951976 -2.19140625 4.69140625 C-0.80553123 2.89623714 -0.80553123 2.89623714 0 0 Z " fill="#C9835E" transform="translate(80,57)"/>
<path d="M0 0 C1.32 0 2.64 0 4 0 C4.33 0.99 4.66 1.98 5 3 C5.680625 3.391875 6.36125 3.78375 7.0625 4.1875 C11.35998366 6.83913885 15.00610194 9.90783783 18 14 C18.25 17.75 18.25 17.75 17 21 C15.66666667 22.33333333 14.33333333 23.66666667 13 25 C12.32459442 26.54138203 11.70576151 28.10802309 11.125 29.6875 C9.80251147 33.22271254 8.36097941 36.16561941 6.1875 39.25 C1.2253527 46.34058103 -2.87084352 54.43526511 -5.6875 62.625 C-7.06946884 66.17863415 -7.94116859 67.76787978 -11 70 C-12.36812069 70.56851475 -13.75132547 71.10154326 -15.14453125 71.60546875 C-16.2269812 72.00028442 -16.2269812 72.00028442 -17.33129883 72.40307617 C-17.88197021 72.60006104 -18.4326416 72.7970459 -19 73 C-18.9278125 74.11375 -18.855625 75.2275 -18.78125 76.375 C-16.88710327 106.81568429 -16.88710327 106.81568429 -21 117 C-21.99 117 -22.98 117 -24 117 C-23.69449219 116.4534375 -23.38898438 115.906875 -23.07421875 115.34375 C-18.21782168 104.74797457 -20.06710727 91.59347679 -20.63012695 80.3359375 C-20.689021 79.14613281 -20.74791504 77.95632812 -20.80859375 76.73046875 C-20.86845459 75.65176514 -20.92831543 74.57306152 -20.98999023 73.46166992 C-20.99329346 72.64931885 -20.99659668 71.83696777 -21 71 C-20 70 -20 70 -16.9375 69.9375 C-15.968125 69.958125 -14.99875 69.97875 -14 70 C-14 69.34 -14 68.68 -14 68 C-13.38125 67.443125 -12.7625 66.88625 -12.125 66.3125 C-9.44990291 63.40136493 -9.01329698 60.78297539 -8 57 C-7.03542166 55.64082143 -6.03145371 54.30915279 -5 53 C-3.62623091 50.34720451 -2.30029865 47.68845532 -1 45 C7.63946184 27.21878202 7.63946184 27.21878202 12 21 C12.99 20.67 13.98 20.34 15 20 C15.48708584 17.2166972 15.48708584 17.2166972 15 14 C13.07239866 11.98573131 11.40198623 10.49435902 9.1875 8.875 C5.66757592 6.19670677 2.45909077 3.74472068 0 0 Z " fill="#D8D2CE" transform="translate(109,11)"/>
<path d="M0 0 C1.11375 0.3403125 1.11375 0.3403125 2.25 0.6875 C2.30399736 2.14542884 2.34279177 3.60392712 2.375 5.0625 C2.39820313 5.87460937 2.42140625 6.68671875 2.4453125 7.5234375 C2.25 9.6875 2.25 9.6875 0.25 11.6875 C0.49696153 13.5777857 0.49696153 13.5777857 1.25 15.6875 C3.25336728 22.52507962 4.57263527 29.15018418 5.0625 36.25 C5.11535156 36.94061523 5.16820312 37.63123047 5.22265625 38.34277344 C5.43042665 42.09191615 5.396674 43.46748901 3.25 46.6875 C2.92 46.3575 2.59 46.0275 2.25 45.6875 C2.25915934 42.18863323 2.38345796 38.69968205 2.5078125 35.203125 C2.23076996 31.42527218 1.59243929 29.62916794 -0.75 26.6875 C-1.74 26.3575 -2.73 26.0275 -3.75 25.6875 C-3.87375 24.635625 -3.9975 23.58375 -4.125 22.5 C-4.56781427 18.85337655 -4.56781427 18.85337655 -5.765625 16.30078125 C-6.85359909 13.41246909 -7.08260041 11.14071034 -7.125 8.0625 C-7.15335938 7.12148438 -7.18171875 6.18046875 -7.2109375 5.2109375 C-6.75 2.6875 -6.75 2.6875 -4.8984375 0.83203125 C-2.75 -0.3125 -2.75 -0.3125 0 0 Z " fill="#8B716A" transform="translate(47.75,32.3125)"/>
<path d="M0 0 C2.475 0.495 2.475 0.495 5 1 C5 5.42634397 4.24512402 6.37326119 2 10 C1.28856912 11.98451771 0.61008664 13.98202112 0 16 C-0.66 16 -1.32 16 -2 16 C-2 15.34 -2 14.68 -2 14 C-3.32 14 -4.64 14 -6 14 C-5.67 14.66 -5.34 15.32 -5 16 C-4.76171875 18.1015625 -4.76171875 18.1015625 -4.6875 20.625 C-4.65011719 21.44226563 -4.61273438 22.25953125 -4.57421875 23.1015625 C-4.9879914 25.91825336 -5.58783621 27.23596584 -6.9453125 29.6640625 C-9.54423844 34.55717689 -9.84578686 39.29026877 -10.1875 44.75 C-10.32433157 46.59914437 -10.46356235 48.44811315 -10.60546875 50.296875 C-10.68510864 51.50875488 -10.68510864 51.50875488 -10.76635742 52.74511719 C-10.99105982 54.91371843 -11.41562517 56.90261359 -12 59 C-13.65 59 -15.3 59 -17 59 C-17.495 57.515 -17.495 57.515 -18 56 C-18.66 56 -19.32 56 -20 56 C-20.33 54.68 -20.66 53.36 -21 52 C-20.1646875 52.7734375 -20.1646875 52.7734375 -19.3125 53.5625 C-17.06964894 55.30502474 -17.06964894 55.30502474 -14.35546875 54.58984375 C-13.57816406 54.39519531 -12.80085938 54.20054688 -12 54 C-12.02320313 52.865625 -12.04640625 51.73125 -12.0703125 50.5625 C-12.08908814 49.04167332 -12.1072864 47.52083943 -12.125 46 C-12.14175781 45.25621094 -12.15851562 44.51242188 -12.17578125 43.74609375 C-12.22956691 37.56074277 -11.70438357 31.753235 -8.375 26.375 C-6.56527514 23.24911161 -6.58593162 21.58859263 -7 18 C-7.87031807 14.94888493 -8.89052159 11.97181716 -10 9 C-9.2575 8.5875 -8.515 8.175 -7.75 7.75 C-4.45124122 5.65078987 -1.76747856 3.53495712 0 0 Z " fill="#B2A29A" transform="translate(63,69)"/>
<path d="M0 0 C1.25541557 3.76624671 0.37061958 5.37188934 -1 9 C-2.27875 8.95875 -3.5575 8.9175 -4.875 8.875 C-7.01871492 8.75787127 -7.01871492 8.75787127 -9 9 C-9.66 9.66 -10.32 10.32 -11 11 C-10.98705203 13.99668927 -10.98705203 13.99668927 -10 17 C-9.38125 17.45375 -8.7625 17.9075 -8.125 18.375 C-5.45022278 20.42041787 -4.82472286 22.57941046 -3.7890625 25.71484375 C-3.03367839 28.02507995 -3.03367839 28.02507995 -1.9609375 30.25390625 C0.85797952 36.40887974 1.55711255 41.95678554 1.82421875 48.703125 C1.99319371 51.87234433 2.41906164 54.88276977 3 58 C-2.62797113 52.37202887 -3.62401842 41.53504503 -5.2734375 34.00390625 C-6.2011961 30.16817313 -7.49898342 26.64532599 -9 23 C-9.66 23 -10.32 23 -11 23 C-11.474375 23.804375 -11.94875 24.60875 -12.4375 25.4375 C-14 28 -14 28 -17 29 C-19.6875 27.0625 -19.6875 27.0625 -22 25 C-20.02 25 -18.04 25 -16 25 C-13.85663839 21.5233662 -13.78722374 18.78770805 -13.875 14.75 C-13.90207031 13.13351563 -13.90207031 13.13351563 -13.9296875 11.484375 C-13.95289063 10.66453125 -13.97609375 9.8446875 -14 9 C-11.98776845 7.98486076 -9.97264007 6.98724924 -7.9296875 6.03515625 C-7.25164063 5.71417969 -6.57359375 5.39320312 -5.875 5.0625 C-5.19179688 4.74410156 -4.50859375 4.42570312 -3.8046875 4.09765625 C-1.68186406 2.98064823 -1.68186406 2.98064823 0 0 Z " fill="#AB9A92" transform="translate(39,63)"/>
<path d="M0 0 C4.63975357 0.62911913 6.33499251 2.31035966 9.62109375 5.5 C11.7074409 7.51930008 13.91087077 9.26368184 16.1875 11.0625 C19.61829922 14.02424464 19.61829922 14.02424464 20.1875 17.9375 C20.0225 18.783125 19.8575 19.62875 19.6875 20.5 C19.06875 20.7475 18.45 20.995 17.8125 21.25 C15.33681313 22.70628639 14.73624998 23.87812506 13.6875 26.5 C13.1925 25.51 13.1925 25.51 12.6875 24.5 C14.15919811 20.76415094 14.15919811 20.76415094 16.6875 19.5 C16.6875 17.85 16.6875 16.2 16.6875 14.5 C16.0275 14.29375 15.3675 14.0875 14.6875 13.875 C11.92579347 12.60921784 10.14572479 11.33040805 7.8125 9.4375 C4.10846954 6.6021446 1.47821459 5.4128961 -3.3125 5.5 C-7.94449573 6.99165964 -11.26937053 8.66791104 -14.3125 12.5 C-15.56686187 15.13222962 -15.56686187 15.13222962 -16.3125 17.5 C-17.3025 17.17 -18.2925 16.84 -19.3125 16.5 C-19.39290527 17.05985596 -19.47331055 17.61971191 -19.55615234 18.1965332 C-19.92542486 20.73640115 -20.30632568 23.27439215 -20.6875 25.8125 C-20.81382813 26.69357422 -20.94015625 27.57464844 -21.0703125 28.48242188 C-21.19921875 29.32998047 -21.328125 30.17753906 -21.4609375 31.05078125 C-21.57614746 31.83106689 -21.69135742 32.61135254 -21.81005859 33.4152832 C-22.3125 35.5 -22.3125 35.5 -24.3125 38.5 C-24.67339379 27.49995723 -22.61182825 15.51146632 -15.04296875 7.16796875 C-9.89577263 2.20667587 -6.92229874 1.04487528 0 0 Z " fill="#AA9991" transform="translate(105.3125,10.5)"/>
<path d="M0 0 C3.39854555 0.57084945 4.81112848 1.69641596 7 4.3359375 C8.32459115 7.34433095 9.07058754 10.03597006 9 13.3359375 C6.39180275 17.01809832 4.33131202 18.44365005 0 19.3359375 C-0.14695312 18.43230469 -0.29390625 17.52867188 -0.4453125 16.59765625 C-1.52241562 9.26980463 -1.52241562 9.26980463 -6.1875 4.0234375 C-7.115625 3.7965625 -8.04375 3.5696875 -9 3.3359375 C-6.69600944 -0.12004833 -3.97765819 -0.19010866 0 0 Z " fill="#DBD6D3" transform="translate(109,16.6640625)"/>
<path d="M0 0 C0.94875 0.04125 1.8975 0.0825 2.875 0.125 C2.875 1.445 2.875 2.765 2.875 4.125 C4.195 4.785 5.515 5.445 6.875 6.125 C6.40346905 8.55001634 5.92897926 10.93607261 5.25 13.3125 C4.66153641 15.21403493 4.66153641 15.21403493 5.875 17.125 C6.00915472 19.7973621 5.91818541 22.44750488 5.875 25.125 C5.215 25.125 4.555 25.125 3.875 25.125 C3.20194982 23.52350114 2.53677773 21.91868971 1.875 20.3125 C1.50375 19.41917969 1.1325 18.52585937 0.75 17.60546875 C-0.125 15.125 -0.125 15.125 -0.125 12.125 C-0.74375 11.8775 -1.3625 11.63 -2 11.375 C-4.53965893 9.88108298 -5.22409878 8.90960378 -6.125 6.125 C-5.6299251 1.91686338 -4.41485237 0.17659409 0 0 Z " fill="#BB7E5F" transform="translate(33.125,70.875)"/>
<path d="M0 0 C0.33 0.66 0.66 1.32 1 2 C-0.19949746 4.39010975 -1.44397108 6.64735601 -2.8125 8.9375 C-3.18181641 9.57107422 -3.55113281 10.20464844 -3.93164062 10.85742188 C-5.55228048 13.62443894 -7.22094647 16.33141971 -9 19 C-9 18.01 -9 17.02 -9 16 C-10.98 16.99 -10.98 16.99 -13 18 C-12.67 15.03 -12.34 12.06 -12 9 C-14.45631001 9.49547543 -14.45631001 9.49547543 -17 11 C-18.05047644 13.31104818 -19.05007438 15.64583651 -20 18 C-22.1875 19.9375 -22.1875 19.9375 -24 21 C-23.71125 20.505 -23.4225 20.01 -23.125 19.5 C-20.99421461 14.76492136 -20 10.1860559 -20 5 C-18.906875 4.690625 -17.81375 4.38125 -16.6875 4.0625 C-14.44592006 3.41662103 -12.2130649 2.7376883 -10 2 C-9.01 2.33 -8.02 2.66 -7 3 C-7 4.32 -7 5.64 -7 7 C-3.17053157 5.54744301 -1.87949705 3.57104439 0 0 Z " fill="#AB9A91" transform="translate(117,37)"/>
<path d="M0 0 C0 0.33 0 0.66 0 1 C-1.299375 1.3403125 -1.299375 1.3403125 -2.625 1.6875 C-9.14853913 4.22443188 -12.74184703 8.17799637 -15.8984375 14.27734375 C-18.95888763 21.84164779 -20.26300552 29.79733445 -19.9921875 37.921875 C-20.01305721 43.47321758 -21.26884034 48.19743778 -24.4375 52.75 C-27.51257581 57.23108393 -28.3702838 61.97200367 -29.421875 67.2421875 C-30 70 -30 70 -31 72 C-31.66 71.67 -32.32 71.34 -33 71 C-32.649375 70.505 -32.29875 70.01 -31.9375 69.5 C-30.92609511 66.80292029 -31.03190756 65.66344805 -31.4375 62.875 C-32 59 -32 59 -31 57 C-30.34 57 -29.68 57 -29 57 C-28.731875 56.319375 -28.46375 55.63875 -28.1875 54.9375 C-26.83946694 51.60289191 -25.42463702 48.30256763 -24 45 C-23.34 45 -22.68 45 -22 45 C-22.02320312 43.99839844 -22.04640625 42.99679688 -22.0703125 41.96484375 C-22.08908789 40.62240336 -22.10728618 39.27995482 -22.125 37.9375 C-22.14820312 36.62652344 -22.17140625 35.31554688 -22.1953125 33.96484375 C-21.99932599 29.98631762 -21.15835669 26.79261186 -20 23 C-19.84890857 21.35780956 -19.73960941 19.71080297 -19.6875 18.0625 C-19.09576207 11.34933516 -15.94680738 6.64227523 -11.1875 2 C-7.03076305 -0.60814867 -4.81708118 -0.41526562 0 0 Z " fill="#BEB0A8" transform="translate(102,11)"/>
<path d="M0 0 C1.32 0.33 2.64 0.66 4 1 C4.03738281 1.62648438 4.07476562 2.25296875 4.11328125 2.8984375 C4.21189453 4.12433594 4.21189453 4.12433594 4.3125 5.375 C4.39951172 6.59316406 4.39951172 6.59316406 4.48828125 7.8359375 C4.82990528 10.37921338 4.82990528 10.37921338 8 12 C7.625 14.4375 7.625 14.4375 7 17 C6.34 17.33 5.68 17.66 5 18 C5.33 16.35 5.66 14.7 6 13 C1.65815798 13.18464366 1.65815798 13.18464366 -2 15 C-2.23192865 16.51469448 -2.41215238 18.03754562 -2.5625 19.5625 C-2.68818359 20.80193359 -2.68818359 20.80193359 -2.81640625 22.06640625 C-2.87699219 22.70449219 -2.93757813 23.34257813 -3 24 C-3.66 24 -4.32 24 -5 24 C-8.38762215 16.02605863 -8.38762215 16.02605863 -6.9375 12.1875 C-5 10 -5 10 -2.875 8.0625 C-0.50288496 5.45317345 -0.31398053 3.45378588 0 0 Z " fill="#D7A07E" transform="translate(44,20)"/>
<path d="M0 0 C3.09366678 1.70347475 4.63803707 3.30061379 7 6 C6.67 7.32 6.34 8.64 6 10 C5.401875 9.21625 4.80375 8.4325 4.1875 7.625 C1.63770076 4.56524091 0.06553863 3.15120093 -3.91796875 2.5859375 C-4.99691406 2.51632812 -6.07585938 2.44671875 -7.1875 2.375 C-8.27417969 2.30023438 -9.36085938 2.22546875 -10.48046875 2.1484375 C-11.31191406 2.09945313 -12.14335938 2.05046875 -13 2 C-13 2.99 -13 3.98 -13 5 C-11.75283203 5.14695312 -11.75283203 5.14695312 -10.48046875 5.296875 C-8.85044922 5.52117188 -8.85044922 5.52117188 -7.1875 5.75 C-6.10855469 5.88921875 -5.02960937 6.0284375 -3.91796875 6.171875 C-0.57592898 7.12035215 0.29042423 8.04873235 2 11 C1.505 10.835 1.01 10.67 0.5 10.5 C-5.66985129 9.26602974 -11.84104134 10.12014876 -18 11 C-18.8125 8.875 -18.8125 8.875 -19 6 C-15.2456861 -1.95914547 -7.94945214 -1.42214969 0 0 Z " fill="#D9A07D" transform="translate(60,7)"/>
<path d="M0 0 C0.66 0.33 1.32 0.66 2 1 C2.4140625 2.78515625 2.4140625 2.78515625 2.625 5.0625 C2.70363281 5.8771875 2.78226563 6.691875 2.86328125 7.53125 C2.98579815 9.74355522 2.93084653 11.85336479 2.8125 14.0625 C2.9918775 17.82942752 3.30216879 18.90736331 5.0625 22 C7.52645478 26.3573095 7.03224268 29.1828675 6 34 C5.34 34 4.68 34 4 34 C3.80664062 33.30132812 3.61328125 32.60265625 3.4140625 31.8828125 C3.15367188 30.97273438 2.89328125 30.06265625 2.625 29.125 C2.36976562 28.22007813 2.11453125 27.31515625 1.8515625 26.3828125 C1.1395685 23.85430274 1.1395685 23.85430274 -1 22 C-4.137456 8.27155495 -4.137456 8.27155495 -1.625 2.5625 C-1.08875 1.716875 -0.5525 0.87125 0 0 Z " fill="#B9603B" transform="translate(48,60)"/>
<path d="M0 0 C4.875 1.875 4.875 1.875 6 3 C6.25 5.4375 6.25 5.4375 6 8 C5.01 8.66 4.02 9.32 3 10 C1.6258941 12.33922695 1.6258941 12.33922695 0.4375 15 C-1.80381471 19.80381471 -1.80381471 19.80381471 -4 22 C-4.99 22 -5.98 22 -7 22 C-7 20.68 -7 19.36 -7 18 C-7.99 18 -8.98 18 -10 18 C-10.33 15.69 -10.66 13.38 -11 11 C-9.68 12.32 -8.36 13.64 -7 15 C-4.38904781 12.85784721 -2.00882966 10.72589221 0 8 C0.03178839 4.20665415 0.03178839 4.20665415 -1 1 C-0.67 0.67 -0.34 0.34 0 0 Z " fill="#CA8F6D" transform="translate(117,22)"/>
<path d="M0 0 C-0.92753788 6.12174999 -3.40304541 11.96426358 -7 17 C-9.64417414 18.73523928 -10.78465943 19 -14 19 C-13.58868942 13.65296249 -12.84251239 11.61648225 -9 8 C-8.505 6.80375 -8.01 5.6075 -7.5 4.375 C-6 1 -6 1 -3.9375 -0.5 C-2 -1 -2 -1 0 0 Z " fill="#DBD6D3" transform="translate(106,46)"/>
<path d="M0 0 C1.04449911 3.13349732 0.93423645 3.98968256 0 7 C1.98 6.34 3.96 5.68 6 5 C5.67 5.99 5.34 6.98 5 8 C4.0409375 8.2165625 4.0409375 8.2165625 3.0625 8.4375 C0.85815641 8.79151627 0.85815641 8.79151627 -0.125 10.75 C-0.41375 11.4925 -0.7025 12.235 -1 13 C-1.37125 13.845625 -1.7425 14.69125 -2.125 15.5625 C-3.16893238 18.03896506 -3.16893238 18.03896506 -3 21 C-1.02 21.33 0.96 21.66 3 22 C3 22.33 3 22.66 3 23 C1.02 23.33 -0.96 23.66 -3 24 C-3.33 26.64 -3.66 29.28 -4 32 C-4.33 32 -4.66 32 -5 32 C-5.07347656 30.75283203 -5.07347656 30.75283203 -5.1484375 29.48046875 C-5.22320312 28.39378906 -5.29796875 27.30710937 -5.375 26.1875 C-5.44460937 25.10855469 -5.51421875 24.02960938 -5.5859375 22.91796875 C-5.81195733 19.81373814 -5.81195733 19.81373814 -8 17 C-8.4375 14.0625 -8.4375 14.0625 -8 11 C-6.36395804 9.62926214 -4.69321939 8.29944744 -3 7 C-1.73094754 4.71471412 -0.90160854 2.4675602 0 0 Z " fill="#CDC2BB" transform="translate(92,58)"/>
<path d="M0 0 C0.99 0 1.98 0 3 0 C1.48484848 3.78787879 1.48484848 3.78787879 -1 4.875 C-3.26420349 5.88183115 -3.26420349 5.88183115 -4.125 8.625 C-4.558125 10.295625 -4.558125 10.295625 -5 12 C-5.37125 13.216875 -5.7425 14.43375 -6.125 15.6875 C-8.1599734 24.21810848 -7.33808883 31.95282156 -4 40 C-3.34 40 -2.68 40 -2 40 C-1.67 43.3 -1.34 46.6 -1 50 C-1.99 50.495 -1.99 50.495 -3 51 C-3.09152344 50.19433594 -3.18304688 49.38867188 -3.27734375 48.55859375 C-4.33919929 43.32967268 -6.47437616 38.61565162 -8.56054688 33.72070312 C-11.2055798 27.24228915 -12.13998343 21.8014234 -9.375 15.125 C-7.09885071 9.79766851 -4.13874394 4.13874394 0 0 Z " fill="#E0DCDA" transform="translate(43,7)"/>
<path d="M0 0 C2.31 0.33 4.62 0.66 7 1 C7 1.33 7 1.66 7 2 C4.36 2.66 1.72 3.32 -1 4 C-0.401875 4.2475 0.19625 4.495 0.8125 4.75 C3.38596594 6.22055197 4.41192484 7.50507318 6 10 C6.66015625 12.54296875 6.66015625 12.54296875 7.0625 15.1875 C7.42115656 17.78239347 7.42115656 17.78239347 8 20 C8.66 20.33 9.32 20.66 10 21 C9.01 21.66 8.02 22.32 7 23 C6.731875 22.195625 6.46375 21.39125 6.1875 20.5625 C5.795625 19.716875 5.40375 18.87125 5 18 C4.01 17.67 3.02 17.34 2 17 C1.505 14.525 1.505 14.525 1 12 C1.66 12 2.32 12 3 12 C2.67 11.01 2.34 10.02 2 9 C0.72125 9.185625 -0.5575 9.37125 -1.875 9.5625 C-5.75 10.125 -5.75 10.125 -8 9 C-8 8.01 -8 7.02 -8 6 C-6.68 5.67 -5.36 5.34 -4 5 C-4 4.34 -4 3.68 -4 3 C-2.68 2.67 -1.36 2.34 0 2 C0 1.34 0 0.68 0 0 Z " fill="#C4B6AF" transform="translate(102,15)"/>
<path d="M0 0 C0.8353125 0.3403125 0.8353125 0.3403125 1.6875 0.6875 C0.3675 1.0175 -0.9525 1.3475 -2.3125 1.6875 C-2.3125 2.3475 -2.3125 3.0075 -2.3125 3.6875 C-3.6325 4.0175 -4.9525 4.3475 -6.3125 4.6875 C-6.3125 5.6775 -6.3125 6.6675 -6.3125 7.6875 C-3.0125 7.3575 0.2875 7.0275 3.6875 6.6875 C4.0175 8.0075 4.3475 9.3275 4.6875 10.6875 C-0.29533716 11.82801606 -5.25718132 12.90975866 -10.3125 13.6875 C-11.0625 11.5625 -11.0625 11.5625 -11.3125 8.6875 C-8.93142855 4.10851644 -5.73048954 -0.77439048 0 0 Z " fill="#E6A276" transform="translate(100.3125,16.3125)"/>
<path d="M0 0 C3 1 3 1 4.0625 2.7578125 C6.10786514 7.92235949 7.4413352 12.90453569 8.4375 18.375 C9.57271964 24.58717413 11.38886964 29.9739009 14.01171875 35.70703125 C15 38 15 38 15 40 C15.66 40 16.32 40 17 40 C17.33 40.99 17.66 41.98 18 43 C17.01 43 16.02 43 15 43 C6.4492983 26.21676224 6.4492983 26.21676224 5.36328125 16.73046875 C4.86576256 12.99105408 3.75506698 9.53777918 2.5859375 5.9609375 C2 4 2 4 2 2 C1.34 2 0.68 2 0 2 C-0.226875 2.804375 -0.45375 3.60875 -0.6875 4.4375 C-2 7 -2 7 -4.375 8.0625 C-7 8 -7 8 -9.3125 6.0625 C-9.869375 5.381875 -10.42625 4.70125 -11 4 C-9.02 4.66 -7.04 5.32 -5 6 C-2.9754262 4.06745228 -1.57894208 2.36841312 0 0 Z " fill="#E0DCDA" transform="translate(28,85)"/>
<path d="M0 0 C2 2 2 2 2.15234375 4.71484375 C2.04599609 6.31005859 2.04599609 6.31005859 1.9375 7.9375 C1.88464844 8.99839844 1.83179687 10.05929688 1.77734375 11.15234375 C1 14 1 14 -1.37109375 15.94140625 C-4 17 -4 17 -7 16 C-7.82000582 13.12997964 -8.07215946 11.30306972 -7.375 8.375 C-5.69284609 5.46946142 -3.88375196 4.62673187 -1 3 C-0.67 2.01 -0.34 1.02 0 0 Z " fill="#B9633E" transform="translate(66,23)"/>
<path d="M0 0 C-0.33 1.65 -0.66 3.3 -1 5 C-2.32 5 -3.64 5 -5 5 C-6.78969026 7.42672567 -6.78969026 7.42672567 -8 10 C-9.32 9.67 -10.64 9.34 -12 9 C-12.33 6.03 -12.66 3.06 -13 0 C-8.68632355 -1.07841911 -4.12801588 -2.06400794 0 0 Z " fill="#DFDCD9" transform="translate(62,18)"/>
<path d="M0 0 C2.58391196 16.40036683 2.58391196 16.40036683 1 23 C0.34 23.33 -0.32 23.66 -1 24 C-0.98839844 23.28714844 -0.97679688 22.57429688 -0.96484375 21.83984375 C-0.91393974 16.43674634 -1.05391729 11.32171525 -2 6 C-2.62648438 6.0721875 -3.25296875 6.144375 -3.8984375 6.21875 C-5.12433594 6.35796875 -5.12433594 6.35796875 -6.375 6.5 C-7.59316406 6.63921875 -7.59316406 6.63921875 -8.8359375 6.78125 C-11 7 -11 7 -13 7 C-13 7.66 -13 8.32 -13 9 C-14.98 9 -16.96 9 -19 9 C-17.62166887 6.24333774 -16.16690743 6.12490276 -13.3125 5.0625 C-10.27036206 3.90048165 -7.41951538 2.70975769 -4.5 1.25 C-2 0 -2 0 0 0 Z " fill="#CD8963" transform="translate(24,64)"/>
<path d="M0 0 C0.33 0 0.66 0 1 0 C0.76229039 2.13938651 0.52434481 4.27874709 0.28515625 6.41796875 C0.10085961 8.086737 -0.0791293 9.75598913 -0.25390625 11.42578125 C-0.59670842 14.6633573 -0.96035646 17.80971101 -1.625 21 C-1.74875 21.66 -1.8725 22.32 -2 23 C-1.67 23.33 -1.34 23.66 -1 24 C-0.95907063 26.33297433 -0.95758277 28.66705225 -1 31 C-5.0918234 26.9081766 -6.44467833 23.46169892 -6.5 17.6875 C-6.39526427 12.2474031 -5.49176535 8.89238898 -2.19140625 4.5859375 C-0.78798481 2.89224601 -0.78798481 2.89224601 0 0 Z " fill="#C7825D" transform="translate(80,57)"/>
<path d="M0 0 C3.875 0.875 3.875 0.875 5 2 C5.5 4.75 5.5 4.75 5 8 C2.88375222 10.0421791 0.54136159 11.53482724 -2 13 C-2.66 12.67 -3.32 12.34 -4 12 C-4.625 9.4375 -4.625 9.4375 -5 7 C-5.66 7 -6.32 7 -7 7 C-7 6.01 -7 5.02 -7 4 C-5.35 4 -3.7 4 -2 4 C-1.34 2.68 -0.68 1.36 0 0 Z " fill="#CABEB7" transform="translate(59,43)"/>
<path d="M0 0 C0.99 1.98 1.98 3.96 3 6 C6.465 3.525 6.465 3.525 10 1 C9.02640613 4.27481575 8.30933359 5.76205109 5.5625 7.875 C3 9 3 9 0 8 C-0.33 6.02 -0.66 4.04 -1 2 C-7.56028073 4.51053949 -7.56028073 4.51053949 -13.875 7.5625 C-18.70672966 9.78509564 -23.82918352 10.82025061 -29 12 C-29 11.01 -29 10.02 -29 9 C-28.04738281 8.81824219 -27.09476563 8.63648437 -26.11328125 8.44921875 C-24.23189453 8.07216797 -24.23189453 8.07216797 -22.3125 7.6875 C-20.45044922 7.32205078 -20.45044922 7.32205078 -18.55078125 6.94921875 C-15.16268792 6.04349083 -12.87498815 4.96091554 -10 3 C-6.43501755 0.59363685 -4.33002291 -0.37114482 0 0 Z " fill="#E1DEDC" transform="translate(29,59)"/>
<path d="M0 0 C0.33 0.66 0.66 1.32 1 2 C-0.98 2.66 -2.96 3.32 -5 4 C-4.9278125 5.11375 -4.855625 6.2275 -4.78125 7.375 C-2.88710327 37.81568429 -2.88710327 37.81568429 -7 48 C-7.99 48 -8.98 48 -10 48 C-9.69449219 47.4534375 -9.38898438 46.906875 -9.07421875 46.34375 C-3.08852456 33.28405358 -6.27204887 15.83682603 -7 2 C-4.69 1.34 -2.38 0.68 0 0 Z " fill="#E1DEDC" transform="translate(95,80)"/>
<path d="M0 0 C0.33 0 0.66 0 1 0 C1 1.65 1 3.3 1 5 C1.99 5.33 2.98 5.66 4 6 C3.34 6.66 2.68 7.32 2 8 C1.30251417 9.31747324 0.63040043 10.64914193 0 12 C-0.33 11.34 -0.66 10.68 -1 10 C-1.99 10 -2.98 10 -4 10 C-4.0825 10.99 -4.165 11.98 -4.25 13 C-5.0425194 18.65100788 -7.87667354 23.31501032 -11 28 C-10.36697248 21.54311927 -10.36697248 21.54311927 -8.4375 18.6875 C-6.26537786 14.626576 -6.58378686 10.52231588 -7 6 C-7.33 5.34 -7.66 4.68 -8 4 C-7.34 3.34 -6.68 2.68 -6 2 C-5.01 2.66 -4.02 3.32 -3 4 C-3 4.66 -3 5.32 -3 6 C-2.34 6 -1.68 6 -1 6 C-0.67 4.02 -0.34 2.04 0 0 Z " fill="#CBBEB7" transform="translate(64,79)"/>
<path d="M0 0 C2.0625 0.4375 2.0625 0.4375 4 1 C4 1.66 4 2.32 4 3 C4.99 3.33 5.98 3.66 7 4 C6.67 4.66 6.34 5.32 6 6 C5.01 5.34 4.02 4.68 3 4 C3 3.34 3 2.68 3 2 C2.34 2 1.68 2 1 2 C1.061875 2.9075 1.12375 3.815 1.1875 4.75 C0.97149891 8.49401897 0.26275475 9.15060513 -2 12 C-4.72099209 18.17776265 -5.6568816 23.8015512 -6.1875 30.5 C-6.26935547 31.4178125 -6.35121094 32.335625 -6.43554688 33.28125 C-6.63378407 35.52016424 -6.82171417 37.75942408 -7 40 C-7.66 40 -8.32 40 -9 40 C-7.17885697 13.17885697 -7.17885697 13.17885697 -2 8 C-1.835 6.845 -1.67 5.69 -1.5 4.5 C-1 1 -1 1 0 0 Z " fill="#DFDCD9" transform="translate(60,88)"/>
<path d="M0 0 C-0.44556134 5.04969516 -2.55813601 7.47618687 -6 11 C-6.99 11 -7.98 11 -9 11 C-9.62029355 2.7811104 -9.62029355 2.7811104 -7.3125 -0.125 C-4.46377442 -1.20289616 -2.87657748 -0.87895423 0 0 Z " fill="#B9603B" transform="translate(50,33)"/>
<path d="M0 0 C3.08822359 1.02940786 4.28232788 2.16151924 6.4609375 4.48046875 C8.29682998 6.2930631 10.29528727 7.83014498 12.3125 9.4375 C15.93226711 12.5343364 15.93226711 12.5343364 16.5 16.4375 C16.335 17.283125 16.17 18.12875 16 19 C15.38125 19.2475 14.7625 19.495 14.125 19.75 C11.64931313 21.20628639 11.04874998 22.37812506 10 25 C9.67 24.34 9.34 23.68 9 23 C10.47169811 19.26415094 10.47169811 19.26415094 13 18 C13 16.35 13 14.7 13 13 C12.34 12.79375 11.68 12.5875 11 12.375 C6.88393737 10.48847129 3.5412297 7.79432021 0 5 C0.33 4.01 0.66 3.02 1 2 C0.67 1.34 0.34 0.68 0 0 Z " fill="#AB9A92" transform="translate(109,12)"/>
<path d="M0 0 C3.18292189 -0.2170174 5.34600006 -0.35502854 8.1875 1.1875 C10 3 10 3 10.390625 5.48046875 C10.32101563 6.82044922 10.32101563 6.82044922 10.25 8.1875 C10.21390625 9.08855469 10.1778125 9.98960938 10.140625 10.91796875 C10.07101563 11.94857422 10.07101563 11.94857422 10 13 C8.68 13.33 7.36 13.66 6 14 C6.04125 13.0925 6.0825 12.185 6.125 11.25 C6.00241438 8.06277389 5.8285231 6.55993233 4 4 C1.9664052 2.73195434 1.9664052 2.73195434 0 2 C0 1.34 0 0.68 0 0 Z " fill="#F9F9FA" transform="translate(104,18)"/>
<path d="M0 0 C5.7837828 -0.4819819 10.31076505 0.37600109 15 4 C16.5 7.25 16.5 7.25 17 10 C16.4225 9.38125 15.845 8.7625 15.25 8.125 C11.08984998 5.40490191 7.42323469 5.07497195 2.546875 4.4921875 C1.70640625 4.32976563 0.8659375 4.16734375 0 4 C-0.33 3.34 -0.66 2.68 -1 2 C-0.67 1.34 -0.34 0.68 0 0 Z " fill="#C47B56" transform="translate(47,9)"/>
<path d="M0 0 C0.33 0 0.66 0 1 0 C0.114082 7.59358289 0.114082 7.59358289 -0.5 9.78125 C-1.24119589 13.07030678 -1.36898584 16.39363973 -1.5625 19.75 C-1.60568359 20.44738281 -1.64886719 21.14476563 -1.69335938 21.86328125 C-1.79889596 23.57531922 -1.8998991 25.28763561 -2 27 C-2.66 27 -3.32 27 -4 27 C-4.2475 28.051875 -4.495 29.10375 -4.75 30.1875 C-5.76700786 33.8133541 -7.45373429 36.19910772 -10 39 C-10.495 37.515 -10.495 37.515 -11 36 C-10.4225 35.29875 -9.845 34.5975 -9.25 33.875 C-4.13656939 27.341172 -3.76152235 20.23522374 -3.31640625 12.17578125 C-2.87744088 7.76986955 -1.603538 4.11342357 0 0 Z " fill="#DDD9D6" transform="translate(82,29)"/>
<path d="M0 0 C0.825 0.5775 1.65 1.155 2.5 1.75 C2.125 4.1875 2.125 4.1875 1.5 6.75 C0.51 7.245 0.51 7.245 -0.5 7.75 C-0.17 6.1 0.16 4.45 0.5 2.75 C-3.84184202 2.93464366 -3.84184202 2.93464366 -7.5 4.75 C-7.73192865 6.26469448 -7.91215238 7.78754562 -8.0625 9.3125 C-8.14628906 10.13878906 -8.23007812 10.96507812 -8.31640625 11.81640625 C-8.37699219 12.45449219 -8.43757813 13.09257813 -8.5 13.75 C-11.06616632 9.90075052 -11.05097676 7.3150696 -11.5 2.75 C-4.60284464 -1.64387309 -4.60284464 -1.64387309 0 0 Z " fill="#C7825D" transform="translate(49.5,30.25)"/>
<path d="M0 0 C0.25 2.75 0.25 2.75 0 6 C-2 8.375 -2 8.375 -4 10 C-3.67 7.69 -3.34 5.38 -3 3 C-5.45631001 3.49547543 -5.45631001 3.49547543 -8 5 C-9.05047644 7.31104818 -10.05007438 9.64583651 -11 12 C-13.1875 13.9375 -13.1875 13.9375 -15 15 C-14.70738281 14.43410156 -14.41476563 13.86820313 -14.11328125 13.28515625 C-12.97927363 11.03044264 -12.97927363 11.03044264 -12.10546875 8.74609375 C-10.62787058 5.03009155 -9.58838168 2.50012443 -6.5 -0.125 C-3.78856353 -1.07400277 -2.62850077 -1.07087069 0 0 Z " fill="#CABDB5" transform="translate(108,43)"/>
<path d="M0 0 C0.66 0 1.32 0 2 0 C2 0.99 2 1.98 2 3 C2.99 3.33 3.98 3.66 5 4 C7.99727448 11.03638233 8.18094597 20.27212367 5.6875 27.4375 C4.2431078 30.48677243 3.37416704 31.82534279 1 34 C1.49554652 31.87206494 2.05867205 29.83444025 2.7890625 27.7734375 C5.21364983 20.81691124 5.91265204 14.61195935 3.03125 7.6640625 C2.33618164 6.2888201 1.60876663 4.92910362 0.83984375 3.59375 C0 2 0 2 0 0 Z " fill="#AB9A92" transform="translate(67,17)"/>
<path d="M0 0 C0.66 0.99 1.32 1.98 2 3 C-0.80375686 3.77846974 -3.41344735 4.1322747 -6.3125 4.3125 C-11.06490895 4.7845936 -14.04003979 6.38811135 -18 9 C-16.5019913 5.18688695 -14.37351976 3.27516449 -11 1 C-7.36141217 -0.11956548 -3.79035791 -0.3369207 0 0 Z " fill="#8E7169" transform="translate(109,12)"/>
<path d="M0 0 C0 0.33 0 0.66 0 1 C-1.299375 1.3403125 -1.299375 1.3403125 -2.625 1.6875 C-10.40063517 4.71135812 -13.44917744 9.78837366 -17 17 C-17.66 17 -18.32 17 -19 17 C-18.28320849 11.08647007 -15.50026306 6.15062768 -11.25 2.0625 C-7.04414667 -0.60659923 -4.88279316 -0.42093044 0 0 Z " fill="#D8D1CD" transform="translate(102,11)"/>
<path d="M0 0 C1.04449911 3.13349732 0.93423645 3.98968256 0 7 C1.98 6.34 3.96 5.68 6 5 C5.67 5.99 5.34 6.98 5 8 C4.0409375 8.2165625 4.0409375 8.2165625 3.0625 8.4375 C0.79688294 8.80104993 0.79688294 8.80104993 -0.25 11.0625 C-0.4975 11.701875 -0.745 12.34125 -1 13 C-1.99 13 -2.98 13 -4 13 C-3.67 12.34 -3.34 11.68 -3 11 C-4.65 11.66 -6.3 12.32 -8 13 C-8 12.34 -8 11.68 -8 11 C-6.8553125 10.1646875 -6.8553125 10.1646875 -5.6875 9.3125 C-2.31438066 6.41004848 -1.51014985 4.13304168 0 0 Z " fill="#C8BBB3" transform="translate(92,58)"/>
<path d="M0 0 C0.28875 0.598125 0.5775 1.19625 0.875 1.8125 C2.04742026 4.19327792 2.04742026 4.19327792 4 7 C5.60798274 16.14729806 5.10575402 25.74064771 5 35 C4.67 35 4.34 35 4 35 C3.9498877 34.44127197 3.89977539 33.88254395 3.84814453 33.30688477 C3.61309799 30.72483727 3.36909441 28.14370726 3.125 25.5625 C3.04636719 24.68400391 2.96773438 23.80550781 2.88671875 22.90039062 C2.39762149 17.80249226 1.64848185 12.91696048 0.41015625 7.9453125 C-0.1520911 5.27865365 -0.13908625 2.71218194 0 0 Z " fill="#AB9A92" transform="translate(83,71)"/>
<path d="M0 0 C0.66 0 1.32 0 2 0 C4.52274456 3.94311334 4.66554839 8.20820789 5.125 12.75 C5.25455078 13.93916016 5.25455078 13.93916016 5.38671875 15.15234375 C5.59800054 17.10083141 5.79992467 19.05032976 6 21 C5.34 21 4.68 21 4 21 C3.79503906 20.00097656 3.59007813 19.00195312 3.37890625 17.97265625 C3.10949219 16.68230469 2.84007813 15.39195313 2.5625 14.0625 C2.16224609 12.13083984 2.16224609 12.13083984 1.75390625 10.16015625 C1.32818384 7.15361121 1.32818384 7.15361121 0 6 C-0.04080783 4.00041636 -0.04254356 1.99954746 0 0 Z " fill="#8B716A" transform="translate(81,75)"/>
<path d="M0 0 C0.33 0 0.66 0 1 0 C1.2494783 7.29031024 0.72330907 13.90673679 -1 21 C-2.65 21 -4.3 21 -6 21 C-6.33 20.01 -6.66 19.02 -7 18 C-7.66 18 -8.32 18 -9 18 C-9.33 16.68 -9.66 15.36 -10 14 C-9.1646875 14.7734375 -9.1646875 14.7734375 -8.3125 15.5625 C-5.72324645 17.53765777 -5.72324645 17.53765777 -1 16 C-0.67 10.72 -0.34 5.44 0 0 Z " fill="#CABDB5" transform="translate(52,107)"/>
<path d="M0 0 C3.62123943 5.43185914 5.17368665 11.30699581 6.45703125 17.625 C7.25155083 21.10030865 8.38017471 24.45739368 9.51171875 27.8359375 C10 30 10 30 9 33 C4.88769775 22.15847589 1.84457677 11.47736659 0 0 Z " fill="#CABDB5" transform="translate(32,88)"/>
<path d="M0 0 C0.33 0 0.66 0 1 0 C1.14695312 0.54527344 1.29390625 1.09054688 1.4453125 1.65234375 C3.08106738 7.15186446 5.31809811 11.29385153 8.79296875 15.859375 C10.23606363 18.41865006 10.22758172 20.10718351 10 23 C6.53533159 20.69022106 6.1878944 19.042499 4.8984375 15.22265625 C3.93388387 12.83643443 2.70499463 10.93068279 1.25 8.8125 C-1.02325507 5.37208113 -1.02325507 5.37208113 -0.8125 2 C-0.544375 1.34 -0.27625 0.68 0 0 Z " fill="#AB9A92" transform="translate(66,86)"/>
<path d="M0 0 C-0.74839326 5.23875285 -3.10859173 8.6628876 -6 13 C-6.66 13 -7.32 13 -8 13 C-7.63282337 5.77885953 -7.63282337 5.77885953 -4.5625 2 C-2 0 -2 0 0 0 Z " fill="#AE806A" transform="translate(108,53)"/>
<path d="M0 0 C3.64775386 3.88309282 4.58525633 6.71201818 5 12 C5.99 12.33 6.98 12.66 8 13 C8.33 16.63 8.66 20.26 9 24 C8.34 24 7.68 24 7 24 C6.87882812 23.37351562 6.75765625 22.74703125 6.6328125 22.1015625 C6.46523437 21.28429687 6.29765625 20.46703125 6.125 19.625 C5.96257812 18.81289062 5.80015625 18.00078125 5.6328125 17.1640625 C5.13341068 14.81326077 5.13341068 14.81326077 3 13 C1.80103456 8.6978299 0.82312496 4.38999979 0 0 Z " fill="#D4CCC6" transform="translate(72,104)"/>
<path d="M0 0 C2.82643665 3.67281465 5.1155137 6.68972603 4.875 11.5 C3.79949368 14.57287521 2.1455803 16.57757063 0 19 C-0.33 18.01 -0.66 17.02 -1 16 C-0.34 15.01 0.32 14.02 1 13 C1.02362973 9.78886461 1.02362973 9.78886461 0.625 6.3125 C0.51414063 5.13300781 0.40328125 3.95351563 0.2890625 2.73828125 C0.19367187 1.83464844 0.09828125 0.93101563 0 0 Z " fill="#B6A69E" transform="translate(40,44)"/>
<path d="M0 0 C0.66 0.33 1.32 0.66 2 1 C1.625 3.4375 1.625 3.4375 1 6 C0.01 6.495 0.01 6.495 -1 7 C-2.13350534 9.01669827 -2.13350534 9.01669827 -3 11 C-3.33 11 -3.66 11 -4 11 C-4.33 8.36 -4.66 5.72 -5 3 C-2.625 1.4375 -2.625 1.4375 0 0 Z " fill="#EAE8E8" transform="translate(104,45)"/>
<path d="M0 0 C2 2 2 2 2.5 4.375 C2.335 5.24125 2.17 6.1075 2 7 C0.5459375 7.8971875 0.5459375 7.8971875 -0.9375 8.8125 C-4.10383126 10.60566508 -4.10383126 10.60566508 -4.62109375 13.02734375 C-4.84750821 15.00934109 -4.93354065 17.00621964 -5 19 C-5.66 18.67 -6.32 18.34 -7 18 C-7.125 11.375 -7.125 11.375 -6 8 C-4.02 7.67 -2.04 7.34 0 7 C0 4.69 0 2.38 0 0 Z " fill="#B37C61" transform="translate(64,19)"/>
<path d="M0 0 C0.99 0 1.98 0 3 0 C1.48484848 3.78787879 1.48484848 3.78787879 -1 4.875 C-3.97298316 6.54730303 -4.04569062 8.81896873 -5 12 C-6.625 14.375 -6.625 14.375 -8 16 C-7.68553475 9.86792766 -4.31543778 4.31543778 0 0 Z " fill="#DBD6D3" transform="translate(43,7)"/>
<path d="M0 0 C12.28609865 -0.92017937 12.28609865 -0.92017937 16.48828125 1.3359375 C18.375 3 18.375 3 21 6 C20.67 7.32 20.34 8.64 20 10 C19.401875 9.21625 18.80375 8.4325 18.1875 7.625 C16.08914751 4.85425677 16.08914751 4.85425677 13 3 C13 2.34 13 1.68 13 1 C8.71 1 4.42 1 0 1 C0 0.67 0 0.34 0 0 Z " fill="#C1B2AA" transform="translate(46,7)"/>
<path d="M0 0 C0.66 0 1.32 0 2 0 C0.59522834 3.67916386 -1.02628583 7.14788475 -2.875 10.625 C-3.36742188 11.56601562 -3.85984375 12.50703125 -4.3671875 13.4765625 C-6.00970287 16.01499534 -7.47972847 17.37437031 -10 19 C-8.79618552 16.50638429 -7.54571278 14.31856917 -6 12 C-5.5359375 10.2675 -5.5359375 10.2675 -5.0625 8.5 C-4.05672589 5.18686177 -3.55688544 4.11220971 -1 2 C-0.67 1.34 -0.34 0.68 0 0 Z " fill="#AD9589" transform="translate(95,50)"/>
<path d="M0 0 C0.33 0 0.66 0 1 0 C1.33452052 7.43378943 1.13902852 13.19877155 -2 20 C-2.33 20 -2.66 20 -3 20 C-2.45136137 13.2142064 -1.45732062 6.64990964 0 0 Z " fill="#8B716A" transform="translate(84,36)"/>
<path d="M0 0 C0.66 0 1.32 0 2 0 C1.56629155 4.7707929 -0.64334391 8.63364259 -4 12 C-4.99 12 -5.98 12 -7 12 C-7 10.68 -7 9.36 -7 8 C-5.33720673 6.9935725 -3.67016516 5.99414593 -2 5 C-0.65310085 2.42900598 -0.65310085 2.42900598 0 0 Z " fill="#8E7169" transform="translate(117,32)"/>
<path d="M0 0 C1.32 0.66 2.64 1.32 4 2 C3.67 2.99 3.34 3.98 3 5 C2.67 4.34 2.34 3.68 2 3 C1.34 3 0.68 3 0 3 C-0.474375 3.804375 -0.94875 4.60875 -1.4375 5.4375 C-3 8 -3 8 -6 9 C-8.6875 7.0625 -8.6875 7.0625 -11 5 C-10.071875 5.020625 -9.14375 5.04125 -8.1875 5.0625 C-4.97713989 5.15769604 -4.97713989 5.15769604 -2 4 C-0.79117904 1.99983534 -0.79117904 1.99983534 0 0 Z " fill="#C2B5AD" transform="translate(28,83)"/>
<path d="M0 0 C-1.7015625 0.5259375 -1.7015625 0.5259375 -3.4375 1.0625 C-5.3832737 1.82259817 -5.3832737 1.82259817 -7 3 C-8.37912104 7.56833845 -8.01393543 11.38096082 -7 16 C-10.53664607 10.6950309 -10.10261347 6.12563041 -9 0 C-2.25 -1.125 -2.25 -1.125 0 0 Z " fill="#CABDB5" transform="translate(63,60)"/>
<path d="M0 0 C0.1875 2.875 0.1875 2.875 0 6 C-3 8 -3 8 -6 8 C-5.6875 5.125 -5.6875 5.125 -5 2 C-2 0 -2 0 0 0 Z " fill="#ECEBEA" transform="translate(98,57)"/>
<path d="M0 0 C0.33 0.66 0.66 1.32 1 2 C0.1875 4.3125 0.1875 4.3125 -1 7 C-1.28875 7.845625 -1.5775 8.69125 -1.875 9.5625 C-3.15649157 12.33906508 -4.74151872 13.96736684 -7 16 C-6.66830805 9.69785303 -3.32676012 5.14783064 0 0 Z " fill="#D2C9C3" transform="translate(115,43)"/>
<path d="M0 0 C0.36923077 5.41538462 0.36923077 5.41538462 -1.5 8.375 C-1.995 8.91125 -2.49 9.4475 -3 10 C-4.65 9.67 -6.3 9.34 -8 9 C-7.67 8.34 -7.34 7.68 -7 7 C-5.68 7 -4.36 7 -3 7 C-3.33 5.02 -3.66 3.04 -4 1 C-2 0 -2 0 0 0 Z " fill="#B47C60" transform="translate(98,68)"/>
<path d="M0 0 C1.65 0.33 3.3 0.66 5 1 C5 5.26826873 4.62386487 5.93882432 2 9 C2.33 7.02 2.66 5.04 3 3 C1.68 3.99 0.36 4.98 -1 6 C-1.66 5.67 -2.32 5.34 -3 5 C-2.01 3.35 -1.02 1.7 0 0 Z " fill="#CABDB5" transform="translate(63,69)"/>
<path d="M0 0 C4.875 1.875 4.875 1.875 6 3 C6.04063832 4.66617115 6.042721 6.33388095 6 8 C4.02 8.99 4.02 8.99 2 10 C1.855625 8.906875 1.71125 7.81375 1.5625 6.6875 C1.11711896 3.06877013 1.11711896 3.06877013 0 0 Z " fill="#B2765A" transform="translate(117,22)"/>
<path d="M0 0 C4.29 0 8.58 0 13 0 C13 0.33 13 0.66 13 1 C9.04 1 5.08 1 1 1 C1 1.99 1 2.98 1 4 C1.99 4.66 2.98 5.32 4 6 C1.69 6.66 -0.62 7.32 -3 8 C-2.34099246 4.92463146 -1.46132217 2.92264434 0 0 Z " fill="#B68B75" transform="translate(46,8)"/>
<path d="M0 0 C1.32 0.33 2.64 0.66 4 1 C4.66 3.31 5.32 5.62 6 8 C3.13275314 7.42655063 2.1385485 7.1385485 0 5 C-0.125 2.375 -0.125 2.375 0 0 Z " fill="#B9603B" transform="translate(29,73)"/>
<path d="M0 0 C0.86625 0.2784375 0.86625 0.2784375 1.75 0.5625 C4.20692525 1.04023546 5.64397534 0.75729364 8 0 C7 2 6 4 5 6 C3.68 6 2.36 6 1 6 C0.67 4.02 0.34 2.04 0 0 Z " fill="#BFB0A8" transform="translate(80,122)"/>
<path d="M0 0 C3.40756081 2.27170721 3.8695411 3.17383143 5 7 C5.3125 10.125 5.3125 10.125 5 13 C3.48046875 14.6796875 3.48046875 14.6796875 2 16 C2.02320313 15.34773438 2.04640625 14.69546875 2.0703125 14.0234375 C2.17583753 8.91301097 2.01926302 4.79574967 0 0 Z " fill="#8B716A" transform="translate(52,80)"/>
<path d="M0 0 C5.28089024 -0.30466674 6.577168 -0.317124 11 3 C7.37 3.33 3.74 3.66 0 4 C-0.33 3.34 -0.66 2.68 -1 2 C-0.67 1.34 -0.34 0.68 0 0 Z " fill="#BA6743" transform="translate(47,9)"/>
<path d="M0 0 C0.99 0 1.98 0 3 0 C3.33 1.65 3.66 3.3 4 5 C1.69 5.33 -0.62 5.66 -3 6 C-1.125 1.125 -1.125 1.125 0 0 Z " fill="#E7A377" transform="translate(91,70)"/>
<path d="M0 0 C-3.465 1.485 -3.465 1.485 -7 3 C-7.15149298 6.62885324 -7.15149298 6.62885324 -6 10 C-8.47359354 9.04247992 -9.73064878 8.50503355 -11 6.125 C-11 4 -11 4 -9.25 1.8125 C-5.91469369 -0.87427453 -3.98231411 -1.23589059 0 0 Z " fill="#AB9A92" transform="translate(12,70)"/>
<path d="M0 0 C2 1 2 1 2.8125 3.375 C3 6 3 6 1.875 7.75 C-0.39019086 9.26012724 -2.32142828 9.63803085 -5 10 C-4.67 8.68 -4.34 7.36 -4 6 C-2.68 5.67 -1.36 5.34 0 5 C0 3.35 0 1.7 0 0 Z " fill="#E7A377" transform="translate(62,18)"/>
<path d="M0 0 C1.32 0 2.64 0 4 0 C4.33 0.99 4.66 1.98 5 3 C6.63631892 4.04892238 8.30485863 5.04906703 10 6 C10.66 6.66 11.32 7.32 12 8 C11.67 8.99 11.34 9.98 11 11 C9.72486237 9.92173635 8.45507431 8.83714481 7.1875 7.75 C6.47980469 7.14671875 5.77210937 6.5434375 5.04296875 5.921875 C3.08110329 4.07629602 1.54330375 2.20054668 0 0 Z " fill="#D4CCC7" transform="translate(109,11)"/>
<path d="M0 0 C0.99 0.66 1.98 1.32 3 2 C3.1875 5.125 3.1875 5.125 3 8 C2.38125 8.2475 1.7625 8.495 1.125 8.75 C-1.35068687 10.20628639 -1.95125002 11.37812506 -3 14 C-3.33 13.34 -3.66 12.68 -4 12 C-2.52830189 8.26415094 -2.52830189 8.26415094 0 7 C0 4.69 0 2.38 0 0 Z " fill="#B9AAA2" transform="translate(122,23)"/>
<path d="M0 0 C0 0.33 0 0.66 0 1 C-0.845625 1.226875 -1.69125 1.45375 -2.5625 1.6875 C-6.67404851 3.25736398 -9.50393484 5.34299048 -13 8 C-10.26774007 0.22356789 -7.91760427 -0.38939037 0 0 Z " fill="#D4CBC6" transform="translate(102,11)"/>
<path d="M0 0 C3 1 3 1 4.1875 3.375 C5 6 5 6 5 9 C2 8 2 8 0.8125 6.1875 C0 4 0 4 0 0 Z " fill="#C2805E" transform="translate(67,87)"/>
<path d="M0 0 C0 4.7339375 -2.42180804 8.13271207 -5 12 C-5.66 12 -6.32 12 -7 12 C-4.6892779 3.64989059 -4.6892779 3.64989059 -1.8125 0.9375 C-1.214375 0.628125 -0.61625 0.31875 0 0 Z " fill="#DFDBD9" transform="translate(120,38)"/>
<path d="M0 0 C0.66 0 1.32 0 2 0 C3.125 4.75 3.125 4.75 2 7 C1.34 7 0.68 7 0 7 C-0.66 8.65 -1.32 10.3 -2 12 C-3.40907283 9.18185434 -2.50872691 7.82722796 -1.5625 4.875 C-1.27503906 3.96492188 -0.98757812 3.05484375 -0.69140625 2.1171875 C-0.46324219 1.41851562 -0.23507813 0.71984375 0 0 Z " fill="#C38564" transform="translate(95,43)"/>
<path d="M0 0 C4.29 0 8.58 0 13 0 C13 0.99 13 1.98 13 3 C8.62065881 2.48041715 4.31196609 1.94324258 0 1 C0 0.67 0 0.34 0 0 Z " fill="#E1DEDC" transform="translate(115,0)"/>
<path d="M0 0 C3.63 0 7.26 0 11 0 C10.01 1.485 10.01 1.485 9 3 C2.84765625 2.4140625 2.84765625 2.4140625 1 2 C0.67 1.34 0.34 0.68 0 0 Z " fill="#E1DEDC" transform="translate(61,0)"/>
<path d="M0 0 C4.15414253 1.22736029 6.43688534 2.327664 10 5 C6.7 4.67 3.4 4.34 0 4 C0 2.68 0 1.36 0 0 Z " fill="#E1DEDC" transform="translate(0,80)"/>
<path d="M0 0 C1.32 1.32 2.64 2.64 4 4 C5.65 2.68 7.3 1.36 9 0 C7.79618552 2.49361571 6.54571278 4.68143083 5 7 C3.68 7 2.36 7 1 7 C0.67 4.69 0.34 2.38 0 0 Z " fill="#E7A377" transform="translate(106,33)"/>
<path d="M0 0 C0.86625 0.7734375 0.86625 0.7734375 1.75 1.5625 C3.87827523 3.26505193 3.87827523 3.26505193 6.25 2.6875 C6.8275 2.460625 7.405 2.23375 8 2 C7.67 3.65 7.34 5.3 7 7 C5.68 6.67 4.36 6.34 3 6 C3 5.34 3 4.68 3 4 C2.34 4 1.68 4 1 4 C0.67 2.68 0.34 1.36 0 0 Z " fill="#B0A098" transform="translate(42,121)"/>
<path d="M0 0 C1.32 0 2.64 0 4 0 C4 1.65 4 3.3 4 5 C2.68 5 1.36 5 0 5 C0 3.35 0 1.7 0 0 Z " fill="#B46544" transform="translate(45,119)"/>
<path d="M0 0 C4.04420651 1.77945087 7.46078487 4.39529673 11 7 C10.01 7.33 9.02 7.66 8 8 C4.17275043 5.89110738 1.50139512 4.20390632 0 0 Z " fill="#BDAEA6" transform="translate(6,80)"/>
<path d="M0 0 C0.66 0 1.32 0 2 0 C2 0.99 2 1.98 2 3 C2.99 3.33 3.98 3.66 5 4 C5.33 5.98 5.66 7.96 6 10 C5.34 10 4.68 10 4 10 C3.32845067 8.71086513 2.66291141 7.41859796 2 6.125 C1.62875 5.40570312 1.2575 4.68640625 0.875 3.9453125 C0 2 0 2 0 0 Z " fill="#B9A9A1" transform="translate(67,17)"/>
<path d="M0 0 C1.32 0 2.64 0 4 0 C3.67 1.65 3.34 3.3 3 5 C2.01 5 1.02 5 0 5 C-0.5625 3.0625 -0.5625 3.0625 -1 1 C-0.67 0.67 -0.34 0.34 0 0 Z " fill="#8B716A" transform="translate(60,76)"/>
<path d="M0 0 C-1.32 0.33 -2.64 0.66 -4 1 C-4 1.66 -4 2.32 -4 3 C-5.98 3.33 -7.96 3.66 -10 4 C-4.75 -1.425 -4.75 -1.425 0 0 Z " fill="#BD9C89" transform="translate(102,17)"/>
<path d="M0 0 C0.66 0 1.32 0 2 0 C2.36923077 4.55384615 2.36923077 4.55384615 0.5 6.8125 C0.005 7.204375 -0.49 7.59625 -1 8 C-1.04241723 5.66705225 -1.04092937 3.33297433 -1 1 C-0.67 0.67 -0.34 0.34 0 0 Z " fill="#AB9A92" transform="translate(25,63)"/>
<path d="M0 0 C-1.32 0.33 -2.64 0.66 -4 1 C-4 1.66 -4 2.32 -4 3 C-5.98 3 -7.96 3 -10 3 C-9 1 -9 1 -6.125 -0.1875 C-3 -1 -3 -1 0 0 Z " fill="#C7825D" transform="translate(15,70)"/>
<path d="M0 0 C0.66 0 1.32 0 2 0 C1.67 1.65 1.34 3.3 1 5 C0.01 5.33 -0.98 5.66 -2 6 C-1.125 1.125 -1.125 1.125 0 0 Z " fill="#8B716A" transform="translate(102,60)"/>
<path d="M0 0 C0.33 0.66 0.66 1.32 1 2 C-0.24546405 5.73639216 -1.63404953 6.18756513 -5 8 C-3.8141763 4.62496331 -2.72426311 2.35277269 0 0 Z " fill="#D7D0CB" transform="translate(74,43)"/>
<path d="M0 0 C0 0.66 0 1.32 0 2 C-2.31 2 -4.62 2 -7 2 C-7 1.34 -7 0.68 -7 0 C-4.3333581 -1.33332095 -2.83319697 -0.67102033 0 0 Z " fill="#D7D0CB" transform="translate(109,9)"/>
</svg>
