<?xml version="1.0" encoding="UTF-8"?>
<svg version="1.1" xmlns="http://www.w3.org/2000/svg" width="128" height="128">
<path d="M0 0 C42.24 0 84.48 0 128 0 C128 42.24 128 84.48 128 128 C85.76 128 43.52 128 0 128 C0 85.76 0 43.52 0 0 Z " fill="#FCFCFC" transform="translate(0,0)"/>
<path d="M0 0 C2.3125 0.0625 2.3125 0.0625 5 1 C6.8125 4.5625 6.8125 4.5625 8 8 C11.04467866 8.28275034 11.04467866 8.28275034 13.26171875 6.44921875 C16.87033514 4.5393804 18.85074931 5.05216401 22.8125 5.8125 C23.97394531 6.02519531 25.13539062 6.23789062 26.33203125 6.45703125 C27.21246094 6.63621094 28.09289062 6.81539062 29 7 C29.495 8.98 29.495 8.98 30 11 C32.45224694 10.89386164 32.45224694 10.89386164 35 10 C36.19218842 7.49908038 36.19218842 7.49908038 37 5 C38.91635217 4.94576362 40.83314925 4.90710037 42.75 4.875 C43.81734375 4.85179687 44.8846875 4.82859375 45.984375 4.8046875 C48.97434735 4.99833856 50.58316468 5.26010235 53 7 C56.2241912 16.18894492 55.49133655 23.66153145 52.16796875 32.71484375 C51 35 51 35 48 37 C43.24992302 37.35286286 39.17685744 36.57179241 35.4375 33.5625 C33 31 33 31 33 29 C31.02 28.67 29.04 28.34 27 28 C26.92523438 28.66386719 26.85046875 29.32773437 26.7734375 30.01171875 C25.56433239 38.13168933 25.56433239 38.13168933 22.25 41.125 C18.76098294 43.13789446 16.95108748 43.47036756 13 43 C12.34 40.69 11.68 38.38 11 36 C10.21625 35.87625 9.4325 35.7525 8.625 35.625 C6 35 6 35 4 33 C3.95101562 34.00160156 3.90203125 35.00320312 3.8515625 36.03515625 C3.77645921 37.37762759 3.70091474 38.7200743 3.625 40.0625 C3.55539063 41.37347656 3.48578125 42.68445313 3.4140625 44.03515625 C2.99741162 48.02478492 2.33345995 51.23465447 1 55 C-1.78863007 56.39431504 -3.92078868 56.25660094 -7 56 C-9 53 -9 53 -9.8125 50.125 C-11.23748764 46.37503252 -13.13840433 44.7965594 -16 42 C-19.91356866 36.9752925 -22.38359081 32.27183393 -24.15625 26.18359375 C-25.1074894 23.72182141 -26.34494512 22.04853606 -28 20 C-31.15032972 16.07190807 -33.16375922 11.99865277 -34 7 C-33.56640625 4.734375 -33.56640625 4.734375 -33 3 C-28.26600779 4.34851352 -24.72093813 6.32218745 -20.6875 9.125 C-17.60485814 11.65696909 -17.60485814 11.65696909 -14 13 C-14.061875 11.9275 -14.12375 10.855 -14.1875 9.75 C-13.99456691 5.89133813 -13.60334924 4.71182212 -11 2 C-10.443125 2.309375 -9.88625 2.61875 -9.3125 2.9375 C-6.87459567 4.05761821 -4.63775814 4.56037364 -2 5 C-1.34 3.35 -0.68 1.7 0 0 Z " fill="#3C3B3B" transform="translate(67,29)"/>
<path d="M0 0 C7.50780305 2.78899022 13.50733705 7.21043635 19 13 C22.33155338 16.11427816 24.27193875 17.83011904 28.75 18.875 C29.8225 19.24625 30.895 19.6175 32 20 C33.4375 23.625 33.4375 23.625 34 27 C32.9375 28.5 32.9375 28.5 31 30 C27.3125 30.1875 27.3125 30.1875 24 30 C23.67 31.32 23.34 32.64 23 34 C23.87011719 34.03867188 23.87011719 34.03867188 24.7578125 34.078125 C30.3708394 34.48567151 33.58877555 35.49364211 38 39 C37.77082032 40.60727327 37.51579198 42.21087416 37.25 43.8125 C37.11078125 44.70582031 36.9715625 45.59914062 36.828125 46.51953125 C35.78831198 49.63406553 34.86792722 50.43965315 32 52 C29.0546875 52.765625 29.0546875 52.765625 25.875 53.25 C24.82054688 53.42015625 23.76609375 53.5903125 22.6796875 53.765625 C20 54 20 54 18 53 C19.04874998 50.37812506 19.64931313 49.20628639 22.125 47.75 C22.74375 47.5025 23.3625 47.255 24 47 C22.58746097 44.57850451 21.24032093 42.28385301 19.42578125 40.140625 C17.32595498 36.98800913 17.54158685 34.13670715 17.40625 30.4375 C16.92457203 27.5474322 15.80688111 26.25976863 14 24 C13.3125 20.75 13.3125 20.75 13 18 C12.34 18 11.68 18 11 18 C11.11371497 20.29225435 11.24130964 22.58382388 11.375 24.875 C11.44460937 26.15117188 11.51421875 27.42734375 11.5859375 28.7421875 C11.67241106 32.08061699 11.67241106 32.08061699 14 34 C13.74921817 37.09297584 13.07350966 38.88690822 11.375 41.5 C9.74702943 43.9027113 9.74702943 43.9027113 10.25 46.5625 C10.4975 47.366875 10.745 48.17125 11 49 C11.185625 49.763125 11.37125 50.52625 11.5625 51.3125 C11.706875 51.869375 11.85125 52.42625 12 53 C9.39240571 54.77316412 7.82374719 55.00326394 4.625 55.0625 C-0.20464015 53.64691582 -2.20843858 51.05619494 -5 47 C-6.60363047 43.79273906 -6.63617845 40.46884673 -6 37 C-4.37347684 35.29413425 -2.70993434 33.6222454 -1 32 C-1.31292408 29.62299723 -1.31292408 29.62299723 -2 27 C-2.21549388 22.9603046 -2.18510656 18.91990952 -2.1875 14.875 C-2.19974609 13.77800781 -2.21199219 12.68101563 -2.22460938 11.55078125 C-2.22750977 9.97490234 -2.22750977 9.97490234 -2.23046875 8.3671875 C-2.23457764 7.40925293 -2.23868652 6.45131836 -2.24291992 5.46435547 C-2 3 -2 3 0 0 Z " fill="#B3B53D" transform="translate(6,34)"/>
<path d="M0 0 C3.34570207 0.46147615 5.4966613 1.76487616 8 4 C8 4.66 8 5.32 8 6 C6.02 5.67 4.04 5.34 2 5 C2.70716098 11.89481952 5.35780961 18.0250104 9.5625 23.5 C11.50260243 26.04968144 12.49628857 28.23431455 13.375 31.3125 C15.49931632 38.38950807 19.87501247 44.82693157 26 49 C25.505 49.99 25.505 49.99 25 51 C20.48174224 48.34797914 18.86455921 46.77793298 17 42 C15.1126862 40.13308959 13.12044392 38.61338124 11 37 C12.3089572 40.12197478 12.3089572 40.12197478 15 42 C16.49427939 47.97711757 15.81352341 51.54840757 13.30078125 57.1171875 C11.15026331 60.2299492 8.87666396 60.82997045 5.23950195 61.53540039 C-0.16198209 62.31006496 -5.55123726 62.26719432 -11 62.3125 C-12.74410156 62.35600586 -12.74410156 62.35600586 -14.5234375 62.40039062 C-20.98956098 62.44847964 -25.12634895 62.43732756 -30 58 C-32 56 -32 56 -32.125 53.375 C-32.063125 52.199375 -32.063125 52.199375 -32 51 C-31.401875 51.763125 -30.80375 52.52625 -30.1875 53.3125 C-29.465625 54.199375 -28.74375 55.08625 -28 56 C-27.566875 56.5775 -27.13375 57.155 -26.6875 57.75 C-23.98877944 59.74905227 -21.28357536 59.7654589 -18 60 C-16.515 59.505 -16.515 59.505 -15 59 C-15.144375 58.443125 -15.28875 57.88625 -15.4375 57.3125 C-15.623125 56.549375 -15.80875 55.78625 -16 55 C-16.2475 54.195625 -16.495 53.39125 -16.75 52.5625 C-17.0829132 49.15013966 -15.83830993 47.82816912 -14 45 C-13.11341534 42.40877257 -13.11341534 42.40877257 -13 40 C-13.66 39.34 -14.32 38.68 -15 38 C-15.1953125 34.7421875 -15.1953125 34.7421875 -15.125 30.875 C-15.10695313 29.59367187 -15.08890625 28.31234375 -15.0703125 26.9921875 C-15.04710938 26.00476563 -15.02390625 25.01734375 -15 24 C-14.34 24 -13.68 24 -13 24 C-12.28385417 25.72526042 -11.56770833 27.45052083 -10.8515625 29.17578125 C-9.93193308 31.26533932 -9.93193308 31.26533932 -8 34 C-7.796875 36.19921875 -7.796875 36.19921875 -7.75 38.6875 C-7.3163683 44.47775859 -4.83545154 47.80094296 -1 52 C-3.0586217 55.08793255 -3.8553312 55.47838607 -7 57 C-7.33 57.66 -7.66 58.32 -8 59 C1.11643483 58.8278712 1.11643483 58.8278712 9 55 C10.0895296 51.7048373 10.62520743 48.44421444 11 45 C6.35796103 42.46690767 2.34844008 40.53484401 -3 40 C-2.67 38.35 -2.34 36.7 -2 35 C0.97 35 3.94 35 7 35 C6.505 31.04 6.505 31.04 6 27 C5.43152344 26.87625 4.86304688 26.7525 4.27734375 26.625 C-1.69008612 25.03102875 -4.33737978 22.85681168 -8.109375 18.0625 C-10.87183759 15.04890445 -14.11090299 13.2792045 -17.66796875 11.32421875 C-20 10 -20 10 -22.17578125 8.33203125 C-23.89274117 6.80342899 -23.89274117 6.80342899 -26 7 C-27.28118536 9.56237073 -27.12945614 11.40344001 -27.1328125 14.26953125 C-27.13410156 15.32333984 -27.13539062 16.37714844 -27.13671875 17.46289062 C-27.13285156 18.56826172 -27.12898438 19.67363281 -27.125 20.8125 C-27.12886719 21.90626953 -27.13273437 23.00003906 -27.13671875 24.12695312 C-27.13542969 25.18462891 -27.13414063 26.24230469 -27.1328125 27.33203125 C-27.13112061 28.78186401 -27.13112061 28.78186401 -27.12939453 30.26098633 C-27.0029012 32.93858759 -26.59788579 35.39085493 -26 38 C-28.97 40.475 -28.97 40.475 -32 43 C-32 41.68 -32 40.36 -32 39 C-31.01 38.505 -31.01 38.505 -30 38 C-30.00523682 37.39115967 -30.01047363 36.78231934 -30.01586914 36.1550293 C-30.22131754 8.66395263 -30.22131754 8.66395263 -29 5 C-26.953125 3.734375 -26.953125 3.734375 -25 3 C-24.18208984 3.67095703 -24.18208984 3.67095703 -23.34765625 4.35546875 C-18.75517315 8.03730563 -14.20683691 11.13208058 -9 13.87109375 C-7 15 -7 15 -4.25 17.25 C-1.78251313 19.16915646 -0.07332541 19.64876281 3 20 C2.52219697 18.70782829 2.04270894 17.41627954 1.5625 16.125 C1.29566406 15.40570313 1.02882812 14.68640625 0.75390625 13.9453125 C0.02083146 11.96351155 0.02083146 11.96351155 -1 10 C-1.09472912 8.48154798 -1.1298841 6.95889616 -1.125 5.4375 C-1.12886719 4.22900391 -1.12886719 4.22900391 -1.1328125 2.99609375 C-1 1 -1 1 0 0 Z " fill="#BDB996" transform="translate(32,28)"/>
<path d="M0 0 C0.99 0 1.98 0 3 0 C3.66 4.62 4.32 9.24 5 14 C6.32 14.33 7.64 14.66 9 15 C9.268125 14.46375 9.53625 13.9275 9.8125 13.375 C11.20833333 10.58333333 12.60416667 7.79166667 14 5 C16.475 5.495 16.475 5.495 19 6 C18.7009375 6.55816406 18.401875 7.11632813 18.09375 7.69140625 C16.96173487 10.08076676 16.2206454 12.39565833 15.5 14.9375 C14.498722 18.38634645 13.33367172 21.66582071 12 25 C11.63128912 26.65919896 11.28718326 28.3247643 11 30 C9.1875 29.875 9.1875 29.875 7 29 C5.96708324 27.01679982 4.9662501 25.01652194 4 23 C3.01 22.67 2.02 22.34 1 22 C0.98541748 22.70084717 0.97083496 23.40169434 0.95581055 24.1237793 C0.88114513 27.31223009 0.78454525 30.49965513 0.6875 33.6875 C0.66494141 34.79029297 0.64238281 35.89308594 0.61914062 37.02929688 C0.58369141 38.09599609 0.54824219 39.16269531 0.51171875 40.26171875 C0.48553467 41.24100342 0.45935059 42.22028809 0.43237305 43.22924805 C-0.07290497 46.46719284 -1.03795908 48.38809271 -3 51 C-4.485 51.495 -4.485 51.495 -6 52 C-8.37555161 49.62444839 -8.36834858 48.69703006 -8.6875 45.4375 C-8.77386719 44.63183594 -8.86023437 43.82617188 -8.94921875 42.99609375 C-8.96597656 42.33738281 -8.98273437 41.67867187 -9 41 C-8.505 40.505 -8.505 40.505 -8 40 C-7.86663473 38.14770455 -7.76877145 36.29281121 -7.6875 34.4375 C-7.32501396 29.49716612 -6.43376257 26.14220259 -3.9921875 21.8828125 C-2.31345851 18.69719291 -1.66926686 15.52886163 -1 12 C-1.33 11.34 -1.66 10.68 -2 10 C-4.02463255 9.34786708 -4.02463255 9.34786708 -6 9 C-6.268125 9.969375 -6.53625 10.93875 -6.8125 11.9375 C-7.204375 12.948125 -7.59625 13.95875 -8 15 C-8.99 15.33 -9.98 15.66 -11 16 C-11.33 12.04 -11.66 8.08 -12 4 C-11.34 3.67 -10.68 3.34 -10 3 C-8.66666667 3.66666667 -7.33333333 4.33333333 -6 5 C-4.68 5 -3.36 5 -2 5 C-1.34 3.35 -0.68 1.7 0 0 Z " fill="#0E0E0E" transform="translate(68,32)"/>
<path d="M0 0 C2.05078125 0.03255208 4.1015625 0.06510417 6.15234375 0.09765625 C6.83296875 1.55171875 6.83296875 1.55171875 7.52734375 3.03515625 C8.81020596 6.16845207 8.81020596 6.16845207 11.15234375 7.09765625 C11.70943418 13.50419624 9.90135485 18.33466912 7.15234375 24.09765625 C6.15234375 25.09765625 6.15234375 25.09765625 3.58984375 25.16015625 C2.78546875 25.13953125 1.98109375 25.11890625 1.15234375 25.09765625 C-0.09765625 22.97265625 -0.09765625 22.97265625 -0.84765625 20.09765625 C0.46540808 18.08429095 1.80071867 16.08534019 3.15234375 14.09765625 C3.48759251 10.34635788 3.48759251 10.34635788 3.15234375 7.09765625 C2.16234375 7.09765625 1.17234375 7.09765625 0.15234375 7.09765625 C-1.44996549 9.70140876 -1.84765625 11.1047174 -1.84765625 14.22265625 C-1.84765625 15.17140625 -1.84765625 16.12015625 -1.84765625 17.09765625 C-3.84765625 19.09765625 -3.84765625 19.09765625 -6.08984375 19.22265625 C-7.83985548 19.13956964 -9.58985559 19.05623777 -11.33984375 18.97265625 C-14.08702029 19.10958717 -15.57912847 19.55829812 -17.84765625 21.09765625 C-19.00601298 24.07268747 -19.00601298 24.07268747 -19.84765625 27.09765625 C-20.50765625 27.75765625 -21.16765625 28.41765625 -21.84765625 29.09765625 C-23.16765625 29.09765625 -24.48765625 29.09765625 -25.84765625 29.09765625 C-25.24410217 25.24739746 -24.07993022 22.23664466 -22.28515625 18.78515625 C-21.83011719 17.90214844 -21.37507813 17.01914062 -20.90625 16.109375 C-20.55691406 15.44550781 -20.20757812 14.78164063 -19.84765625 14.09765625 C-19.18765625 14.09765625 -18.52765625 14.09765625 -17.84765625 14.09765625 C-15.93979785 10.92274685 -15.68675215 8.99180414 -16.22265625 5.34765625 C-16.33351563 4.5484375 -16.444375 3.74921875 -16.55859375 2.92578125 C-16.65398437 2.3225 -16.749375 1.71921875 -16.84765625 1.09765625 C-13.4730291 1.64489308 -11.76530625 2.15255625 -8.84765625 4.09765625 C-0.53160102 0.02809731 -0.53160102 0.02809731 0 0 Z " fill="#181818" transform="translate(107.84765625,37.90234375)"/>
<path d="M0 0 C0.99 0.33 1.98 0.66 3 1 C2.01 1.33 1.02 1.66 0 2 C-0.0291544 5.39581516 -0.04685068 8.79159786 -0.0625 12.1875 C-0.07087891 13.14720703 -0.07925781 14.10691406 -0.08789062 15.09570312 C-0.09111328 16.02705078 -0.09433594 16.95839844 -0.09765625 17.91796875 C-0.10289307 18.77156982 -0.10812988 19.6251709 -0.11352539 20.50463867 C0.00420677 23.09246747 0.42892956 25.47661953 1 28 C2.8871875 28.309375 2.8871875 28.309375 4.8125 28.625 C5.52019531 28.74101563 6.22789063 28.85703125 6.95703125 28.9765625 C9.31755824 29.19577848 9.31755824 29.19577848 12 27 C11.95875 27.78375 11.9175 28.5675 11.875 29.375 C11.71271266 32.16116119 11.71271266 32.16116119 14 34 C13.74921817 37.09297584 13.07350966 38.88690822 11.375 41.5 C9.74702943 43.9027113 9.74702943 43.9027113 10.25 46.5625 C10.4975 47.366875 10.745 48.17125 11 49 C11.185625 49.763125 11.37125 50.52625 11.5625 51.3125 C11.706875 51.869375 11.85125 52.42625 12 53 C9.39240571 54.77316412 7.82374719 55.00326394 4.625 55.0625 C-0.20464015 53.64691582 -2.20843858 51.05619494 -5 47 C-6.60363047 43.79273906 -6.63617845 40.46884673 -6 37 C-4.37347684 35.29413425 -2.70993434 33.6222454 -1 32 C-1.31292408 29.62299723 -1.31292408 29.62299723 -2 27 C-2.21549388 22.9603046 -2.18510656 18.91990952 -2.1875 14.875 C-2.19974609 13.77800781 -2.21199219 12.68101563 -2.22460938 11.55078125 C-2.22750977 9.97490234 -2.22750977 9.97490234 -2.23046875 8.3671875 C-2.23457764 7.40925293 -2.23868652 6.45131836 -2.24291992 5.46435547 C-2 3 -2 3 0 0 Z " fill="#BCB88E" transform="translate(6,34)"/>
<path d="M0 0 C1.32 0.33 2.64 0.66 4 1 C4.14695312 2.21236328 4.14695312 2.21236328 4.296875 3.44921875 C5.14146607 9.48513254 5.7202199 13.42506265 10 18 C9 21 9 21 6.9375 22.1875 C6.298125 22.455625 5.65875 22.72375 5 23 C5 23.99 5 24.98 5 26 C10.90661171 27.28404602 16.24167018 26.97313399 22 25 C25.44143077 22.27650943 26.03861076 19.21532206 27 15 C27 13.68 27 12.36 27 11 C24.03 9.35 21.06 7.7 18 6 C18 5.34 18 4.68 18 4 C21.465 2.02 21.465 2.02 25 0 C28.26649474 3.17575878 31.15774261 6.44717827 34 10 C34.9075 10.86625 35.815 11.7325 36.75 12.625 C39 15 39 15 39 18 C34.48174224 15.34797914 32.86455921 13.77793298 31 9 C29.1126862 7.13308959 27.12044392 5.61338124 25 4 C26.3089572 7.12197478 26.3089572 7.12197478 29 9 C30.49427939 14.97711757 29.81352341 18.54840757 27.30078125 24.1171875 C25.15026331 27.2299492 22.87666396 27.82997045 19.23950195 28.53540039 C13.83801791 29.31006496 8.44876274 29.26719432 3 29.3125 C1.83726563 29.34150391 0.67453125 29.37050781 -0.5234375 29.40039062 C-6.98956098 29.44847964 -11.12634895 29.43732756 -16 25 C-18 23 -18 23 -18.125 20.375 C-18.08375 19.59125 -18.0425 18.8075 -18 18 C-17.401875 18.763125 -16.80375 19.52625 -16.1875 20.3125 C-15.465625 21.199375 -14.74375 22.08625 -14 23 C-13.566875 23.5775 -13.13375 24.155 -12.6875 24.75 C-9.98877944 26.74905227 -7.28357536 26.7654589 -4 27 C-3.01 26.67 -2.02 26.34 -1 26 C-1.144375 25.443125 -1.28875 24.88625 -1.4375 24.3125 C-1.623125 23.549375 -1.80875 22.78625 -2 22 C-2.2475 21.195625 -2.495 20.39125 -2.75 19.5625 C-3.0829132 16.15013966 -1.83830993 14.82816912 0 12 C0.88658466 9.40877257 0.88658466 9.40877257 1 7 C0.34 6.34 -0.32 5.68 -1 5 C-0.625 2.375 -0.625 2.375 0 0 Z " fill="#DDDDCC" transform="translate(18,61)"/>
<path d="M0 0 C0.99 0.33 1.98 0.66 3 1 C3.6875 3.1875 3.6875 3.1875 4 6 C3.03567924 7.68756133 2.0268343 9.3497306 1 11 C-0.28969673 13.57626229 -1.48708805 16.19364721 -2.6875 18.8125 C-3.16799805 19.85180664 -3.16799805 19.85180664 -3.65820312 20.91210938 C-4.44131893 22.60691223 -5.22101041 24.30329664 -6 26 C-1.81684597 24.65744698 -1.81684597 24.65744698 0.5625 21 C1.036875 20.01 1.51125 19.02 2 18 C4.08984375 16.8125 4.08984375 16.8125 6 16 C4.89231553 25.8354742 4.89231553 25.8354742 1.25 29.125 C-2.23901706 31.13789446 -4.04891252 31.47036756 -8 31 C-8.66 28.69 -9.32 26.38 -10 24 C-10.78375 23.87625 -11.5675 23.7525 -12.375 23.625 C-15 23 -15 23 -17 21 C-17.04898438 22.00160156 -17.09796875 23.00320312 -17.1484375 24.03515625 C-17.22354079 25.37762759 -17.29908526 26.7200743 -17.375 28.0625 C-17.44460937 29.37347656 -17.51421875 30.68445313 -17.5859375 32.03515625 C-18.00258838 36.02478492 -18.66654005 39.23465447 -20 43 C-22.78863007 44.39431504 -24.92078868 44.25660094 -28 44 C-28.66 43.01 -29.32 42.02 -30 41 C-29.67 40.01 -29.34 39.02 -29 38 C-27.68 39.32 -26.36 40.64 -25 42 C-21.75150023 40.27773504 -21.75150023 40.27773504 -21 37 C-20.86367197 35.32453549 -20.77572605 33.64487958 -20.71875 31.96484375 C-20.68136719 30.99095703 -20.64398438 30.01707031 -20.60546875 29.01367188 C-20.53502248 26.95898896 -20.46471049 24.90430143 -20.39453125 22.84960938 C-20.35714844 21.87701172 -20.31976563 20.90441406 -20.28125 19.90234375 C-20.23581055 18.56417603 -20.23581055 18.56417603 -20.18945312 17.19897461 C-20 15 -20 15 -19 13 C-17.125 13.125 -17.125 13.125 -15 14 C-14.33333333 16 -13.66666667 18 -13 20 C-10.96756452 20.96877057 -10.96756452 20.96877057 -9 21 C-9.0825 20.29875 -9.165 19.5975 -9.25 18.875 C-8.91718971 15.04768167 -7.1385852 13.17732658 -5 10 C-4.13197777 7.63945085 -3.39962061 5.27396177 -2.7109375 2.85546875 C-2 1 -2 1 0 0 Z " fill="#CAC8AC" transform="translate(88,41)"/>
<path d="M0 0 C5.35377999 0.33461125 9.27684986 3.35814135 13 7 C14.30624219 9.27855781 15.08078973 11.51813227 16 14 C18.04044964 16.37791979 18.04044964 16.37791979 20 18 C19.67 18.78375 19.34 19.5675 19 20.375 C17.72589829 24.99361869 17.83076064 29.24249356 18 34 C17.01 33.34 16.02 32.68 15 32 C15 31.34 15 30.68 15 30 C14.34 30 13.68 30 13 30 C13 29.34 13 28.68 13 28 C12.34 28 11.68 28 11 28 C9.27444716 24.3238222 8.05184766 21.69994336 7.75 17.625 C6.79486889 13.00853295 4.59837277 10.6690111 1.49609375 7.2109375 C-0.27995489 4.58628077 -0.29961195 3.1050693 0 0 Z " fill="#0C0C0C" transform="translate(37,37)"/>
<path d="M0 0 C1.91635217 -0.05423638 3.83314925 -0.09289963 5.75 -0.125 C7.35101563 -0.15980469 7.35101563 -0.15980469 8.984375 -0.1953125 C11.97434735 -0.00166144 13.58316468 0.26010235 16 2 C19.2241912 11.18894492 18.49133655 18.66153145 15.16796875 27.71484375 C14 30 14 30 11 32 C6.24992302 32.35286286 2.17685744 31.57179241 -1.5625 28.5625 C-4 26 -4 26 -4 24 C-5.98 23.67 -7.96 23.34 -10 23 C-10 22.67 -10 22.34 -10 22 C-6.7 22 -3.4 22 0 22 C1.21123073 19.85312994 1.21123073 19.85312994 1.4375 16.5625 C2 13 2 13 4 10 C5.32 10.33 6.64 10.66 8 11 C8.46816337 16.85204211 7.26851598 19.25538003 4 24 C4.11443256 26.31026274 4.11443256 26.31026274 5 28 C6.65 28 8.3 28 10 28 C11.32 24.7 12.64 21.4 14 18 C14.66 18 15.32 18 16 18 C15.80083984 17.00419922 15.80083984 17.00419922 15.59765625 15.98828125 C14.73177083 11.65885417 13.86588542 7.32942708 13 3 C6.07 2.505 6.07 2.505 -1 2 C-0.67 1.34 -0.34 0.68 0 0 Z " fill="#CFCEB5" transform="translate(104,34)"/>
<path d="M0 0 C3.34570207 0.46147615 5.4966613 1.76487616 8 4 C8 4.66 8 5.32 8 6 C6.02 5.67 4.04 5.34 2 5 C2.61611835 9.31931387 3.64238578 13.25208775 5.0625 17.375 C5.60583984 18.96441406 5.60583984 18.96441406 6.16015625 20.5859375 C6.43730469 21.38257812 6.71445312 22.17921875 7 23 C3.1645451 24.27848497 0.57989135 23.62992974 -3 22 C-4.78359989 20.64446408 -6.39508579 19.17358012 -8.0390625 17.65234375 C-11.00603339 15.1522866 -14.30764302 13.31547336 -17.66796875 11.39453125 C-20 10 -20 10 -22.17578125 8.32421875 C-23.8940567 6.80418326 -23.8940567 6.80418326 -26 7 C-27.28118536 9.56237073 -27.12945614 11.40344001 -27.1328125 14.26953125 C-27.13410156 15.32333984 -27.13539062 16.37714844 -27.13671875 17.46289062 C-27.13285156 18.56826172 -27.12898438 19.67363281 -27.125 20.8125 C-27.12886719 21.90626953 -27.13273437 23.00003906 -27.13671875 24.12695312 C-27.13542969 25.18462891 -27.13414063 26.24230469 -27.1328125 27.33203125 C-27.13112061 28.78186401 -27.13112061 28.78186401 -27.12939453 30.26098633 C-27.0029012 32.93858759 -26.59788579 35.39085493 -26 38 C-28.97 40.475 -28.97 40.475 -32 43 C-32 41.68 -32 40.36 -32 39 C-31.01 38.505 -31.01 38.505 -30 38 C-30.00523682 37.39115967 -30.01047363 36.78231934 -30.01586914 36.1550293 C-30.22131754 8.66395263 -30.22131754 8.66395263 -29 5 C-26.953125 3.734375 -26.953125 3.734375 -25 3 C-24.18208984 3.67095703 -24.18208984 3.67095703 -23.34765625 4.35546875 C-18.75517315 8.03730563 -14.20683691 11.13208058 -9 13.87109375 C-7 15 -7 15 -4.25 17.25 C-1.78251313 19.16915646 -0.07332541 19.64876281 3 20 C2.52219697 18.70782829 2.04270894 17.41627954 1.5625 16.125 C1.29566406 15.40570313 1.02882812 14.68640625 0.75390625 13.9453125 C0.02083146 11.96351155 0.02083146 11.96351155 -1 10 C-1.09472912 8.48154798 -1.1298841 6.95889616 -1.125 5.4375 C-1.12886719 4.22900391 -1.12886719 4.22900391 -1.1328125 2.99609375 C-1 1 -1 1 0 0 Z " fill="#DBDBC9" transform="translate(32,28)"/>
<path d="M0 0 C1.77706209 2.66559313 2.87548273 5.0280615 4 8 C4.99 7.67 5.98 7.34 7 7 C7.39832031 6.16082031 7.79664062 5.32164063 8.20703125 4.45703125 C8.79871094 3.64621094 9.39039062 2.83539063 10 2 C12.78599571 1.61939949 14.93372751 1.52037095 17.6875 1.6875 C18.38939453 1.71005859 19.09128906 1.73261719 19.81445312 1.75585938 C21.5438833 1.81468353 23.27221438 1.90436611 25 2 C25.33 3.32 25.66 4.64 26 6 C27.65 5.67 29.3 5.34 31 5 C31.33 4.01 31.66 3.02 32 2 C33.93681161 1.91892417 35.8745934 1.86077525 37.8125 1.8125 C38.89144531 1.77769531 39.97039062 1.74289063 41.08203125 1.70703125 C44 2 44 2 45.8125 3.375 C49.27119301 8.10794834 49.19138881 12.35403011 49 18 C48.67 18 48.34 18 48 18 C48 15.69 48 13.38 48 11 C47.01 10.67 46.02 10.34 45 10 C43.8125 7.4375 43.8125 7.4375 43 5 C37.52431179 4.72157518 34.58373078 4.72590659 30 8 C29.01 8.33 28.02 8.66 27 9 C25 7.625 25 7.625 23 6 C22.01 5.67 21.02 5.34 20 5 C20.33 5.556875 20.66 6.11375 21 6.6875 C22.18664572 9.43161823 22.44406789 11.03954738 22 14 C20 16.3125 20 16.3125 18 18 C18.51325981 15.94696077 19.02775465 13.90563418 19.625 11.875 C20.2156101 9.91960301 20.2156101 9.91960301 19 8 C17.68 8 16.36 8 15 8 C14.81824219 8.75925781 14.63648437 9.51851562 14.44921875 10.30078125 C14.19785156 11.29464844 13.94648437 12.28851563 13.6875 13.3125 C13.32205078 14.79169922 13.32205078 14.79169922 12.94921875 16.30078125 C11.99950411 19.00141012 11.18152323 20.20956216 9 22 C9.73991811 18.9844847 10.52799427 15.98728904 11.375 13 C11.60960938 12.154375 11.84421875 11.30875 12.0859375 10.4375 C13.04605185 7.87719506 14.26306774 6.09596294 16 4 C14.35 4 12.7 4 11 4 C10.5875 4.9075 10.175 5.815 9.75 6.75 C8.10949282 9.79665618 6.55281639 11.71126806 4 14 C3.01 13.34 2.02 12.68 1 12 C0.48828125 9.1796875 0.48828125 9.1796875 0.3125 5.875 C0.24675781 4.77929688 0.18101563 3.68359375 0.11328125 2.5546875 C0.05720703 1.29011719 0.05720703 1.29011719 0 0 Z " fill="#454545" transform="translate(71,34)"/>
<path d="M0 0 C3.125 -0.1875 3.125 -0.1875 6 0 C6.66 1.65 7.32 3.3 8 5 C8.99 5 9.98 5 11 5 C11.66 3.35 12.32 1.7 13 0 C15.3125 -0.25 15.3125 -0.25 18 0 C20.19862195 2.27714416 20.99307899 3.97923697 22 7 C22.99 7.33 23.98 7.66 25 8 C25.66 6.35 26.32 4.7 27 3 C28.32 3 29.64 3 31 3 C31.66 3.99 32.32 4.98 33 6 C35.42521494 6.58189266 35.42521494 6.58189266 38.125 6.6875 C39.49011719 6.78611328 39.49011719 6.78611328 40.8828125 6.88671875 C41.58148438 6.92410156 42.28015625 6.96148437 43 7 C43.495 8.98 43.495 8.98 44 11 C43.505 10.01 43.505 10.01 43 9 C42.32453125 9.01160156 41.6490625 9.02320313 40.953125 9.03515625 C40.06109375 9.04417969 39.1690625 9.05320312 38.25 9.0625 C36.92742187 9.07990234 36.92742187 9.07990234 35.578125 9.09765625 C33 9 33 9 30.875 8.375 C28.65536575 7.71313661 28.65536575 7.71313661 25.75 9.9375 C24.38875 10.9584375 24.38875 10.9584375 23 12 C19.9083091 9.47043472 19.09068668 6.77545388 18 3 C16.68 3 15.36 3 14 3 C13.34 4.65 12.68 6.3 12 8 C8.65626525 7.44271087 5.96687001 6.64826111 3 5 C0.94074319 8.08888522 0.7609626 8.70935927 0.875 12.1875 C0.91625 13.445625 0.9575 14.70375 1 16 C-2.62276315 14.6744419 -5.63505348 13.05653045 -8.8125 10.875 C-9.60269531 10.33617187 -10.39289062 9.79734375 -11.20703125 9.2421875 C-11.79871094 8.83226562 -12.39039063 8.42234375 -13 8 C-10 7 -10 7 -7.95703125 7.77734375 C-7.24933594 8.16019531 -6.54164062 8.54304688 -5.8125 8.9375 C-5.09707031 9.31777344 -4.38164063 9.69804688 -3.64453125 10.08984375 C-3.10183594 10.39019531 -2.55914062 10.69054688 -2 11 C-2.061875 9.1128125 -2.061875 9.1128125 -2.125 7.1875 C-2.2390374 3.70935927 -2.05925681 3.08888522 0 0 Z " fill="#D7D6C2" transform="translate(53,27)"/>
<path d="M0 0 C0.7940625 -0.01675781 1.588125 -0.03351563 2.40625 -0.05078125 C3.0971875 0.06910156 3.788125 0.18898438 4.5 0.3125 C5.16 1.3025 5.82 2.2925 6.5 3.3125 C5.7265625 4.488125 5.7265625 4.488125 4.9375 5.6875 C3.02335867 10.5144651 3.67464135 14.28079548 4.5 19.3125 C-1.97630923 19.67908354 -1.97630923 19.67908354 -4.375 18 C-6.59622261 14.66816609 -6.66162078 11.63705848 -6.6875 7.75 C-6.70167969 6.77933594 -6.71585937 5.80867188 -6.73046875 4.80859375 C-6.31217676 0.27827875 -4.01680917 0.01956238 0 0 Z " fill="#DA6A28" transform="translate(10.5,67.6875)"/>
<path d="M0 0 C5.80342274 1.48805711 10.17590879 4.59097555 15 8 C13.125 8.5859375 13.125 8.5859375 11 9 C9 7.625 9 7.625 7 6 C4.85266073 5.29485154 4.85266073 5.29485154 3 5 C3.90774101 9.44793095 4.81073201 12.04544499 8 15.3125 C11.8038311 19.40323807 12.25288381 23.62616427 13 29 C13.31567045 30.33762515 13.6430289 31.67279974 14 33 C14.66 33 15.32 33 16 33 C16 33.66 16 34.32 16 35 C16.66 35 17.32 35 18 35 C18.66 35.99 19.32 36.98 20 38 C20.66 36.68 21.32 35.36 22 34 C22.103125 34.639375 22.20625 35.27875 22.3125 35.9375 C22.539375 36.618125 22.76625 37.29875 23 38 C24.485 38.495 24.485 38.495 26 39 C26 36.36 26 33.72 26 31 C26.33 31 26.66 31 27 31 C27.0272415 32.41655793 27.04650467 33.83327045 27.0625 35.25 C27.07410156 36.03890625 27.08570312 36.8278125 27.09765625 37.640625 C27.00331555 39.91989627 26.62943239 41.81549934 26 44 C25.814375 44.7425 25.62875 45.485 25.4375 46.25 C25.293125 46.8275 25.14875 47.405 25 48 C17.43348151 41.14284262 12.09582685 33.27109079 8.99609375 23.55859375 C7.678972 20.17539867 5.66556299 17.77306755 3.3984375 14.9765625 C1.06614385 11.68008041 -0.33432157 7.97911154 -1 4 C-0.56640625 1.734375 -0.56640625 1.734375 0 0 Z " fill="#5E5D5D" transform="translate(34,32)"/>
<path d="M0 0 C1.8125 0.0625 1.8125 0.0625 4 1 C5.03101947 3.31979381 6.02936517 5.65429915 7 8 C8.99665314 9.68538601 8.99665314 9.68538601 11 11 C12.25 13.1875 12.25 13.1875 13 15 C15.37233611 14.96219702 15.37233611 14.96219702 18 14 C20.72797398 10.57054699 22.5449678 7.12259123 24 3 C25.36385199 7.09155598 24.57884377 9.01856788 23 13 C21.13512707 15.31521377 19.59912758 16.35055365 17 18 C13.625 18.3125 13.625 18.3125 11 18 C10.34 15.69 9.68 13.38 9 11 C8.21625 10.87625 7.4325 10.7525 6.625 10.625 C4 10 4 10 2 8 C1.95101562 9.00160156 1.90203125 10.00320312 1.8515625 11.03515625 C1.77645921 12.37762759 1.70091474 13.7200743 1.625 15.0625 C1.55539063 16.37347656 1.48578125 17.68445313 1.4140625 19.03515625 C0.99741162 23.02478492 0.33345995 26.23465447 -1 30 C-3.78863007 31.39431504 -5.92078868 31.25660094 -9 31 C-9.66 30.01 -10.32 29.02 -11 28 C-10.67 27.01 -10.34 26.02 -10 25 C-8.68 26.32 -7.36 27.64 -6 29 C-2.75150023 27.27773504 -2.75150023 27.27773504 -2 24 C-1.86367197 22.32453549 -1.77572605 20.64487958 -1.71875 18.96484375 C-1.68136719 17.99095703 -1.64398438 17.01707031 -1.60546875 16.01367188 C-1.53502248 13.95898896 -1.46471049 11.90430143 -1.39453125 9.84960938 C-1.35714844 8.87701172 -1.31976563 7.90441406 -1.28125 6.90234375 C-1.23581055 5.56417603 -1.23581055 5.56417603 -1.18945312 4.19897461 C-1 2 -1 2 0 0 Z " fill="#CECCB2" transform="translate(69,54)"/>
<path d="M0 0 C2 2 2 2 2.3125 5.25 C1.97544919 9.29460974 0.82389808 11.42515976 -1 15 C-1.52456874 17.67627199 -1.76517604 20.27604206 -2 23 C-3.32 22.67 -4.64 22.34 -6 22 C-7.25 14.375 -7.25 14.375 -5 11 C-4.69450656 9.04743255 -4.69450656 9.04743255 -4.625 7 C-4.25984252 3.2519685 -4.25984252 3.2519685 -1.9375 1 C-1.298125 0.67 -0.65875 0.34 0 0 Z " fill="#81807A" transform="translate(62,48)"/>
<path d="M0 0 C3.125 -0.1875 3.125 -0.1875 6 0 C6.99 1.98 7.98 3.96 9 6 C10.32 5.67 11.64 5.34 13 5 C12.67 5.99 12.34 6.98 12 8 C8.65626525 7.44271087 5.96687001 6.64826111 3 5 C0.94074319 8.08888522 0.7609626 8.70935927 0.875 12.1875 C0.91625 13.445625 0.9575 14.70375 1 16 C-2.62276315 14.6744419 -5.63505348 13.05653045 -8.8125 10.875 C-9.60269531 10.33617187 -10.39289062 9.79734375 -11.20703125 9.2421875 C-11.79871094 8.83226562 -12.39039063 8.42234375 -13 8 C-10 7 -10 7 -7.95703125 7.77734375 C-7.24933594 8.16019531 -6.54164062 8.54304688 -5.8125 8.9375 C-5.09707031 9.31777344 -4.38164063 9.69804688 -3.64453125 10.08984375 C-3.10183594 10.39019531 -2.55914062 10.69054688 -2 11 C-2.061875 9.1128125 -2.061875 9.1128125 -2.125 7.1875 C-2.2390374 3.70935927 -2.05925681 3.08888522 0 0 Z " fill="#D4D3BE" transform="translate(53,27)"/>
<path d="M0 0 C3.03852705 1.40976705 5.5939595 3.08870228 8.25 5.125 C8.95640625 5.66382813 9.6628125 6.20265625 10.390625 6.7578125 C11.18726563 7.37269531 11.18726563 7.37269531 12 8 C11.01 8.495 11.01 8.495 10 9 C9.51789062 8.6390625 9.03578125 8.278125 8.5390625 7.90625 C7.90742188 7.4421875 7.27578125 6.978125 6.625 6.5 C5.99851562 6.0359375 5.37203125 5.571875 4.7265625 5.09375 C3.05905387 3.82161899 3.05905387 3.82161899 1 4 C-0.28118536 6.56237073 -0.12945614 8.40344001 -0.1328125 11.26953125 C-0.13410156 12.32333984 -0.13539063 13.37714844 -0.13671875 14.46289062 C-0.13285156 15.56826172 -0.12898437 16.67363281 -0.125 17.8125 C-0.12886719 18.90626953 -0.13273438 20.00003906 -0.13671875 21.12695312 C-0.13542969 22.18462891 -0.13414062 23.24230469 -0.1328125 24.33203125 C-0.13112061 25.78186401 -0.13112061 25.78186401 -0.12939453 27.26098633 C-0.0029012 29.93858759 0.40211421 32.39085493 1 35 C-1.97 37.475 -1.97 37.475 -5 40 C-5 38.68 -5 37.36 -5 36 C-4.01 35.505 -4.01 35.505 -3 35 C-3.00523682 34.39115967 -3.01047363 33.78231934 -3.01586914 33.1550293 C-3.20881418 7.33702866 -3.20881418 7.33702866 -2 2 C-1.34 1.34 -0.68 0.68 0 0 Z " fill="#DDDDCC" transform="translate(5,31)"/>
<path d="M0 0 C3.3 0 6.6 0 10 0 C10.33 1.32 10.66 2.64 11 4 C12.65 3.67 14.3 3.34 16 3 C16.33 2.01 16.66 1.02 17 0 C18.93681161 -0.08107583 20.8745934 -0.13922475 22.8125 -0.1875 C23.89144531 -0.22230469 24.97039062 -0.25710937 26.08203125 -0.29296875 C29 0 29 0 30.8125 1.375 C34.27119301 6.10794834 34.19138881 10.35403011 34 16 C33.67 16 33.34 16 33 16 C33 13.69 33 11.38 33 9 C32.01 8.67 31.02 8.34 30 8 C28.8125 5.4375 28.8125 5.4375 28 3 C22.52431179 2.72157518 19.58373078 2.72590659 15 6 C14.01 6.33 13.02 6.66 12 7 C10.5 5.625 10.5 5.625 9 4 C9 3.34 9 2.68 9 2 C6.03 1.67 3.06 1.34 0 1 C0 0.67 0 0.34 0 0 Z " fill="#605F5D" transform="translate(86,36)"/>
<path d="M0 0 C1.32 0.33 2.64 0.66 4 1 C4.4702266 6.87783252 3.22432796 9.21551335 0 14 C0.12245809 16.79561167 0.12245809 16.79561167 1 19 C0.34 19 -0.32 19 -1 19 C-1.33 17.68 -1.66 16.36 -2 15 C-3.65 14.67 -5.3 14.34 -7 14 C-6.0409375 13.2265625 -6.0409375 13.2265625 -5.0625 12.4375 C-2.42993126 9.3262824 -2.43525549 6.98984199 -2 3 C-1.34 2.01 -0.68 1.02 0 0 Z " fill="#757575" transform="translate(108,44)"/>
<path d="M0 0 C4.04055056 2.10690801 6.11263551 4.18025768 8.5625 8 C10.74542431 11.38781786 12.62986219 13.75815778 16 16 C15.67 16.66 15.34 17.32 15 18 C10.48174224 15.34797914 8.86455921 13.77793298 7 9 C5.1126862 7.13308959 3.12044392 5.61338124 1 4 C2.3089572 7.12197478 2.3089572 7.12197478 5 9 C4.67 9.99 4.34 10.98 4 12 C3.0925 11.38125 2.185 10.7625 1.25 10.125 C-1.14948817 8.55610389 -3.40961612 7.19556179 -6 6 C-6 5.34 -6 4.68 -6 4 C-4.03852126 2.61061923 -2.03833424 1.2739589 0 0 Z " fill="#DBDBCA" transform="translate(42,61)"/>
<path d="M0 0 C1.875 0.125 1.875 0.125 4 1 C5.25 4.0625 5.25 4.0625 6 7 C4.5 5.625 4.5 5.625 3 4 C3 3.34 3 2.68 3 2 C2.01 2.495 2.01 2.495 1 3 C0.98541748 3.74161377 0.97083496 4.48322754 0.95581055 5.24731445 C0.88140543 8.60290631 0.78471994 11.95749494 0.6875 15.3125 C0.65366211 17.06336914 0.65366211 17.06336914 0.61914062 18.84960938 C0.58369141 19.96787109 0.54824219 21.08613281 0.51171875 22.23828125 C0.48553467 23.26993408 0.45935059 24.30158691 0.43237305 25.36450195 C0 28 0 28 -1.34057617 29.83666992 C-3.92097394 31.64564379 -5.94974324 31.38939448 -9 31 C-9.66 30.01 -10.32 29.02 -11 28 C-10.67 27.01 -10.34 26.02 -10 25 C-8.68 26.32 -7.36 27.64 -6 29 C-2.75150023 27.27773504 -2.75150023 27.27773504 -2 24 C-1.86367197 22.32453549 -1.77572605 20.64487958 -1.71875 18.96484375 C-1.68136719 17.99095703 -1.64398438 17.01707031 -1.60546875 16.01367188 C-1.53502248 13.95898896 -1.46471049 11.90430143 -1.39453125 9.84960938 C-1.35714844 8.87701172 -1.31976563 7.90441406 -1.28125 6.90234375 C-1.23581055 5.56417603 -1.23581055 5.56417603 -1.18945312 4.19897461 C-1 2 -1 2 0 0 Z " fill="#AFAD9A" transform="translate(69,54)"/>
<path d="M0 0 C2.3125 0.0625 2.3125 0.0625 5 1 C6.8125 4.5625 6.8125 4.5625 8 8 C11.57575896 8 13.05295935 6.91159393 16 5 C16.99 5.66 17.98 6.32 19 7 C18.2575 7.04125 17.515 7.0825 16.75 7.125 C12.90448224 8.34857383 11.95694517 10.59346582 10 14 C9.01 13.67 8.02 13.34 7 13 C6.05078125 10.71484375 6.05078125 10.71484375 5.3125 7.9375 C4.93544922 6.55884766 4.93544922 6.55884766 4.55078125 5.15234375 C4.36902344 4.44207031 4.18726562 3.73179688 4 3 C0.72226496 3.75150023 0.72226496 3.75150023 -1 7 C-3.625 7.1875 -3.625 7.1875 -6 7 C-5.071875 6.6596875 -5.071875 6.6596875 -4.125 6.3125 C-1.38589791 4.62070165 -0.94975528 3.00755839 0 0 Z " fill="#757575" transform="translate(67,29)"/>
<path d="M0 0 C0.99 1.32 1.98 2.64 3 4 C3.66 3.67 4.32 3.34 5 3 C4.34 5.31 3.68 7.62 3 10 C6.77300358 8.9802693 7.80206144 8.34127338 9.8125 4.875 C10.204375 3.92625 10.59625 2.9775 11 2 C11.66 2 12.32 2 13 2 C12.49786665 6.39366678 11.12817658 8.87182342 8 12 C5.25 12.8125 5.25 12.8125 3 13 C2.401875 12.071875 1.80375 11.14375 1.1875 10.1875 C-0.45272845 7.79745282 -1.8718917 5.91529747 -4 4 C-2.68 4.33 -1.36 4.66 0 5 C0 3.35 0 1.7 0 0 Z " fill="#4F4E4E" transform="translate(79,57)"/>
<path d="M0 0 C1 2 1 2 0.22265625 4.8203125 C-0.35162109 6.45613281 -0.35162109 6.45613281 -0.9375 8.125 C-1.31777344 9.22070312 -1.69804688 10.31640625 -2.08984375 11.4453125 C-2.39019531 12.28835937 -2.69054687 13.13140625 -3 14 C-7.80336309 13.88258446 -11.73332047 13.6846128 -15.5625 10.5625 C-18 8 -18 8 -18 6 C-20.97 5.505 -20.97 5.505 -24 5 C-24 4.67 -24 4.34 -24 4 C-15.6 4.98823529 -15.6 4.98823529 -12 7 C-11.1875 9.125 -11.1875 9.125 -11 11 C-7.535 10.505 -7.535 10.505 -4 10 C-2.68 6.7 -1.36 3.4 0 0 Z " fill="#B1AF9E" transform="translate(118,52)"/>
<path d="M0 0 C0.33 0 0.66 0 1 0 C1.0272415 1.41655793 1.04650467 2.83327045 1.0625 4.25 C1.07410156 5.03890625 1.08570313 5.8278125 1.09765625 6.640625 C1.00331555 8.91989627 0.62943239 10.81549934 0 13 C-0.185625 13.7425 -0.37125 14.485 -0.5625 15.25 C-0.706875 15.8275 -0.85125 16.405 -1 17 C-4.92247359 13.30166776 -8.1189547 9.57577783 -11 5 C-10.67 4.01 -10.34 3.02 -10 2 C-10 2.66 -10 3.32 -10 4 C-9.34 4 -8.68 4 -8 4 C-7.01 5.485 -7.01 5.485 -6 7 C-5.34 5.68 -4.68 4.36 -4 3 C-3.896875 3.639375 -3.79375 4.27875 -3.6875 4.9375 C-3.3471875 5.9584375 -3.3471875 5.9584375 -3 7 C-2.01 7.33 -1.02 7.66 0 8 C0 5.36 0 2.72 0 0 Z " fill="#4B4B4B" transform="translate(60,63)"/>
<path d="M0 0 C3.34570207 0.46147615 5.4966613 1.76487616 8 4 C8 4.66 8 5.32 8 6 C5.03 5.505 5.03 5.505 2 5 C2.144375 5.86625 2.28875 6.7325 2.4375 7.625 C2.95833333 10.75 3.47916667 13.875 4 17 C0.81900054 15.40950027 0.28245539 13.26443191 -1 10 C-1.28973188 6.97779672 -1.33062932 4.02017164 -1 1 C-0.67 0.67 -0.34 0.34 0 0 Z " fill="#C5C3A5" transform="translate(32,28)"/>
<path d="M0 0 C1.77706209 2.66559313 2.87548273 5.0280615 4 8 C7.21061378 7.31114204 7.21061378 7.31114204 8.375 4.4375 C9.179375 3.2309375 9.179375 3.2309375 10 2 C12.6875 1.6875 12.6875 1.6875 15 2 C15.33 2.66 15.66 3.32 16 4 C14.35 4 12.7 4 11 4 C10.5875 4.9075 10.175 5.815 9.75 6.75 C8.10949282 9.79665618 6.55281639 11.71126806 4 14 C3.01 13.34 2.02 12.68 1 12 C0.48828125 9.1796875 0.48828125 9.1796875 0.3125 5.875 C0.24675781 4.77929688 0.18101563 3.68359375 0.11328125 2.5546875 C0.05720703 1.29011719 0.05720703 1.29011719 0 0 Z " fill="#3C3B3B" transform="translate(71,34)"/>
<path d="M0 0 C0.99 0.33 1.98 0.66 3 1 C3.95168815 4.02809866 4.29053568 5.43422 2.8125 8.3125 C2.214375 9.199375 1.61625 10.08625 1 11 C0.25368006 12.4286696 -0.47481114 13.86675975 -1.1875 15.3125 C-1.53167969 16.00988281 -1.87585938 16.70726563 -2.23046875 17.42578125 C-2.61138672 18.20501953 -2.61138672 18.20501953 -3 19 C-3.33 19 -3.66 19 -4 19 C-3.50269348 14.02693484 -2.44697666 10.36200187 0 6 C0.66 6 1.32 6 2 6 C1.34 5.01 0.68 4.02 0 3 C-1.32 4.32 -2.64 5.64 -4 7 C-3.39816251 4.97954558 -2.72693904 2.97888961 -2 1 C-1.34 0.67 -0.68 0.34 0 0 Z " fill="#757575" transform="translate(88,41)"/>
<path d="M0 0 C0.66 0 1.32 0 2 0 C2.0814222 2.22855574 2.13938079 4.45797655 2.1875 6.6875 C2.22230469 7.92886719 2.25710937 9.17023438 2.29296875 10.44921875 C1.98107185 14.22940916 1.34485822 16.05389608 -1 19 C-1.99 19.33 -2.98 19.66 -4 20 C-4.66 18.68 -5.32 17.36 -6 16 C-4.68 16 -3.36 16 -2 16 C-0.89485234 12.68455701 -0.67892369 9.79589889 -0.4375 6.3125 C-0.35371094 5.13300781 -0.26992187 3.95351562 -0.18359375 2.73828125 C-0.12300781 1.83464844 -0.06242187 0.93101563 0 0 Z " fill="#555555" transform="translate(66,64)"/>
<path d="M0 0 C3.875 1.75 3.875 1.75 5 4 C4.38125 3.79375 3.7625 3.5875 3.125 3.375 C2.42375 3.25125 1.7225 3.1275 1 3 C0.34 3.66 -0.32 4.32 -1 5 C-0.98358525 7.08716864 -0.98358525 7.08716864 -0.5625 9.375 C-0.05110482 12.59409811 -0.02238253 14.87447847 -1 18 C-1.66 18 -2.32 18 -3 18 C-4.33333333 15.33333333 -5.66666667 12.66666667 -7 10 C-5.68 10.33 -4.36 10.66 -3 11 C-3.061875 9.9275 -3.12375 8.855 -3.1875 7.75 C-2.99456691 3.89133813 -2.60334924 2.71182212 0 0 Z " fill="#757575" transform="translate(56,31)"/>
<path d="M0 0 C0.99 0 1.98 0 3 0 C3.66 1.98 4.32 3.96 5 6 C4.34 6.66 3.68 7.32 3 8 C1.68 8 0.36 8 -1 8 C-1.93065133 5.39417629 -2.14917407 4.35801776 -1.0625 1.75 C-0.711875 1.1725 -0.36125 0.595 0 0 Z " fill="#FDFDFD" transform="translate(19,74)"/>
<path d="M0 0 C4 6 4 6 3.625 8.1875 C3.41875 8.785625 3.2125 9.38375 3 10 C-3.4 11.23076923 -3.4 11.23076923 -6.4375 10.0625 C-6.953125 9.711875 -7.46875 9.36125 -8 9 C-4.93109813 7.46554906 -2.29905734 8.45015711 1 9 C0.76603516 8.15115234 0.76603516 8.15115234 0.52734375 7.28515625 C0.33269531 6.55167969 0.13804688 5.81820312 -0.0625 5.0625 C-0.35833984 3.96615234 -0.35833984 3.96615234 -0.66015625 2.84765625 C-0.77230469 2.23792969 -0.88445313 1.62820312 -1 1 C-0.67 0.67 -0.34 0.34 0 0 Z " fill="#BDB996" transform="translate(14,78)"/>
<path d="M0 0 C0.66 0 1.32 0 2 0 C2.33 1.98 2.66 3.96 3 6 C2.34 6 1.68 6 1 6 C0.67 10.95 0.34 15.9 0 21 C-0.33 21 -0.66 21 -1 21 C-1.02888146 17.68751813 -1.04675799 14.37506833 -1.0625 11.0625 C-1.07087891 10.11697266 -1.07925781 9.17144531 -1.08789062 8.19726562 C-1.09111328 7.29814453 -1.09433594 6.39902344 -1.09765625 5.47265625 C-1.10289307 4.64000244 -1.10812988 3.80734863 -1.11352539 2.94946289 C-1 1 -1 1 0 0 Z " fill="#D3D2BC" transform="translate(70,56)"/>
<path d="M0 0 C0.66 0.66 1.32 1.32 2 2 C1.625 5.125 1.625 5.125 1 8 C-0.32 8 -1.64 8 -3 8 C-3.36923077 3.44615385 -3.36923077 3.44615385 -1.5 1.1875 C-1.005 0.795625 -0.51 0.40375 0 0 Z " fill="#CBC8AD" transform="translate(62,48)"/>
<path d="M0 0 C2.3125 -0.25 2.3125 -0.25 5 0 C6.875 1.8125 6.875 1.8125 8 4 C7.67 4.99 7.34 5.98 7 7 C6.34 5.68 5.68 4.36 5 3 C3.68 3 2.36 3 1 3 C-0.77409808 4.92022703 -0.77409808 4.92022703 -2 7 C-2.99 6.67 -3.98 6.34 -5 6 C-4.01 5.67 -3.02 5.34 -2 5 C-0.78130071 2.49552484 -0.78130071 2.49552484 0 0 Z " fill="#DDDDCC" transform="translate(66,27)"/>
<path d="M0 0 C1.65 0.33 3.3 0.66 5 1 C5.33 2.32 5.66 3.64 6 5 C5.34 5 4.68 5 4 5 C4 4.34 4 3.68 4 3 C0.72226496 3.75150023 0.72226496 3.75150023 -1 7 C-3.625 7.1875 -3.625 7.1875 -6 7 C-5.071875 6.6596875 -5.071875 6.6596875 -4.125 6.3125 C-1.38589791 4.62070165 -0.94975528 3.00755839 0 0 Z " fill="#919082" transform="translate(67,29)"/>
<path d="M0 0 C1.75 0.125 1.75 0.125 4 1 C5.3726682 2.97321053 6.70427617 4.97543152 8 7 C10.10575643 8.83300909 10.10575643 8.83300909 12 10 C11.67 10.66 11.34 11.32 11 12 C6.59507117 9.4144983 4.61188184 7.83564553 3 3 C1.47992158 1.22722741 1.47992158 1.22722741 0 0 Z " fill="#CECCB2" transform="translate(46,67)"/>
<path d="M0 0 C3.3 0 6.6 0 10 0 C10.33 1.32 10.66 2.64 11 4 C12.65 4 14.3 4 16 4 C15.01 4.99 14.02 5.98 13 7 C11 5.625 11 5.625 9 4 C9 3.34 9 2.68 9 2 C6.03 1.67 3.06 1.34 0 1 C0 0.67 0 0.34 0 0 Z " fill="#89887E" transform="translate(86,36)"/>
<path d="M0 0 C-0.99 0.33 -1.98 0.66 -3 1 C-5.0180755 2.30581356 -7.02053408 3.63636792 -9 5 C-10.5 3.625 -10.5 3.625 -12 2 C-12 1.34 -12 0.68 -12 0 C-7.6835078 -0.76173392 -4.25566547 -1.16063604 0 0 Z " fill="#C8C5A9" transform="translate(85,34)"/>
<path d="M0 0 C2.56263679 0.3416849 3.72427047 0.70129301 5.5 2.625 C5.995 3.07875 6.49 3.5325 7 4 C9.16299211 3.77242269 9.16299211 3.77242269 11 3 C10.67 3.99 10.34 4.98 10 6 C6.65626525 5.44271087 3.96687001 4.64826111 1 3 C0.01 3.99 -0.98 4.98 -2 6 C-1.125 1.125 -1.125 1.125 0 0 Z " fill="#BDB996" transform="translate(55,29)"/>
<path d="M0 0 C0.33 1.32 0.66 2.64 1 4 C1.99 3.67 2.98 3.34 4 3 C4 4.98 4 6.96 4 9 C2.68 8.67 1.36 8.34 0 8 C-0.38063221 5.6739143 -0.71269945 3.33944736 -1 1 C-0.67 0.67 -0.34 0.34 0 0 Z " fill="#757575" transform="translate(56,62)"/>
<path d="M0 0 C0.99 1.32 1.98 2.64 3 4 C3.66 3.67 4.32 3.34 5 3 C4.67 3.99 4.34 4.98 4 6 C3.34 6 2.68 6 2 6 C2 7.65 2 9.3 2 11 C-2.875 6.25 -2.875 6.25 -4 4 C-2.68 4.33 -1.36 4.66 0 5 C0 3.35 0 1.7 0 0 Z " fill="#757575" transform="translate(79,57)"/>
<path d="M0 0 C0.33 0 0.66 0 1 0 C0.50269348 4.97306516 -0.55302334 8.63799813 -3 13 C-3.33 13 -3.66 13 -4 13 C-3.50269348 8.02693484 -2.44697666 4.36200187 0 0 Z " fill="#9D9B87" transform="translate(88,47)"/>
<path d="M0 0 C1 2 1 2 0.0625 5.125 C-0.288125 6.07375 -0.63875 7.0225 -1 8 C-1.99 8 -2.98 8 -4 8 C-4.25 5.6875 -4.25 5.6875 -4 3 C-2 1.1875 -2 1.1875 0 0 Z " fill="#D0CEB6" transform="translate(84,53)"/>
<path d="M0 0 C2.92842431 2.82383772 5.68010389 5.64903895 8 9 C7.67 9.99 7.34 10.98 7 12 C0 5 0 5 -0.125 2.375 C-0.08375 1.59125 -0.0425 0.8075 0 0 Z " fill="#494848" transform="translate(37,42)"/>
<path d="M0 0 C0.99 0 1.98 0 3 0 C2.67 2.31 2.34 4.62 2 7 C1.01 7 0.02 7 -1 7 C-0.67 4.69 -0.34 2.38 0 0 Z " fill="#BDB996" transform="translate(108,46)"/>
<path d="M0 0 C2.02045442 0.60183749 4.02111039 1.27306096 6 2 C6.33 2.66 6.66 3.32 7 4 C5.35 3.67 3.7 3.34 2 3 C2 4.98 2 6.96 2 9 C-0.57781906 6.42218094 -0.62129616 4.5598161 -1 1 C-0.67 0.67 -0.34 0.34 0 0 Z " fill="#757575" transform="translate(34,32)"/>
<path d="M0 0 C2 0.3125 2 0.3125 4 1 C4.33 1.66 4.66 2.32 5 3 C3.68 3 2.36 3 1 3 C1 5.64 1 8.28 1 11 C0.34 10.67 -0.32 10.34 -1 10 C-1.02689216 8.52093108 -1.04634621 7.04172517 -1.0625 5.5625 C-1.07410156 4.73878906 -1.08570312 3.91507813 -1.09765625 3.06640625 C-1 1 -1 1 0 0 Z " fill="#DDDDCC" transform="translate(32,28)"/>
<path d="M0 0 C0.66 0.33 1.32 0.66 2 1 C2 3.31 2 5.62 2 8 C1.01 6.68 0.02 5.36 -1 4 C-1.99 4.66 -2.98 5.32 -4 6 C-2.84826645 3.53199953 -1.95216435 1.95216435 0 0 Z " fill="#757575" transform="translate(63,45)"/>
<path d="M0 0 C5.49152542 0.61016949 5.49152542 0.61016949 7.875 2.4375 C9 4 9 4 9 6 C5.88802644 4.50164236 2.91164984 2.86022073 0 1 C0 0.67 0 0.34 0 0 Z " fill="#CECCB3" transform="translate(40,34)"/>
<path d="M0 0 C1.65 0.33 3.3 0.66 5 1 C5.33 2.98 5.66 4.96 6 7 C5.566875 6.360625 5.13375 5.72125 4.6875 5.0625 C3.08760823 2.73253997 3.08760823 2.73253997 0 2 C-0.33 2.66 -0.66 3.32 -1 4 C-0.67 2.68 -0.34 1.36 0 0 Z " fill="#3C3B3B" transform="translate(69,52)"/>
<path d="M0 0 C0.33 0.99 0.66 1.98 1 3 C-1.475 4.485 -1.475 4.485 -4 6 C-4.66 4.68 -5.32 3.36 -6 2 C-4.02 2 -2.04 2 0 2 C0 1.34 0 0.68 0 0 Z " fill="#626161" transform="translate(66,78)"/>
<path d="M0 0 C0.66 0 1.32 0 2 0 C1.50168276 3.68754757 0.89932357 5.60490662 -2 8 C-1.125 2.25 -1.125 2.25 0 0 Z " fill="#5A5959" transform="translate(90,59)"/>
</svg>
