<?xml version="1.0" encoding="UTF-8"?>
<svg version="1.1" xmlns="http://www.w3.org/2000/svg" width="128" height="128">
<path d="M0 0 C42.24 0 84.48 0 128 0 C128 42.24 128 84.48 128 128 C85.76 128 43.52 128 0 128 C0 85.76 0 43.52 0 0 Z " fill="#F46703" transform="translate(0,0)"/>
<path d="M0 0 C4.25203702 1.41734567 5.34260561 4.53584667 7.4375 8.25 C10.03919415 12.80406161 12.71238225 16.89609448 16 21 C16 21.66 16 22.32 16 23 C16.80824219 23.18175781 17.61648437 23.36351563 18.44921875 23.55078125 C19.51785156 23.80214844 20.58648437 24.05351563 21.6875 24.3125 C22.74324219 24.55613281 23.79898438 24.79976562 24.88671875 25.05078125 C28.00132868 26.00040511 30.28782352 27.22400627 33 29 C34.0725 29.61875 35.145 30.2375 36.25 30.875 C39 33 39 33 39.875 35.125 C39.91625 36.07375 39.9575 37.0225 40 38 C40.05607422 39.04994141 40.05607422 39.04994141 40.11328125 40.12109375 C40.61551434 56.64191915 40.61551434 56.64191915 36.33544922 62.13713074 C33.3127374 64.54819448 31.64277432 64.49037823 27.8046875 64.4699707 C26.54817383 64.47289627 25.29166016 64.47582184 23.99707031 64.47883606 C22.62304003 64.46169087 21.24901659 64.44399073 19.875 64.42578125 C18.4488979 64.42084733 17.02278927 64.41755499 15.59667969 64.41581726 C12.59712186 64.40816987 9.59803984 64.38762184 6.59863281 64.35668945 C2.81552268 64.31768108 -0.9672776 64.29925319 -4.75056458 64.28924751 C-17.8587733 64.25365399 -30.96683871 64.16622174 -44.0625 63.54296875 C-44.87750977 63.50496658 -45.69251953 63.46696442 -46.53222656 63.42781067 C-51.87046457 63.12953543 -51.87046457 63.12953543 -53 62 C-53.125 59.5 -53.125 59.5 -53 57 C-52 56 -52 56 -49.71508789 55.90234375 C-48.72758545 55.91394531 -47.74008301 55.92554688 -46.72265625 55.9375 C-45.11680664 55.94910156 -45.11680664 55.94910156 -43.47851562 55.9609375 C-41.20507761 55.9869345 -38.93164011 56.01297602 -36.65820312 56.0390625 C-35.58634766 56.04679687 -34.51449219 56.05453125 -33.41015625 56.0625 C-32.42152588 56.07410156 -31.43289551 56.08570313 -30.41430664 56.09765625 C-27.98782439 56.16503681 -27.98782439 56.16503681 -26 55 C-26 47.74 -26 40.48 -26 33 C-28.08183594 32.93941406 -30.16367187 32.87882812 -32.30859375 32.81640625 C-34.31747502 32.75384593 -36.32635541 32.69125225 -38.33520508 32.62768555 C-39.73489199 32.58428566 -41.13463359 32.54261436 -42.53442383 32.50268555 C-44.54261495 32.44510555 -46.55061149 32.38086 -48.55859375 32.31640625 C-49.76829834 32.27974854 -50.97800293 32.24309082 -52.22436523 32.20532227 C-55 32 -55 32 -56 31 C-56.125 28 -56.125 28 -56 25 C-54.47258294 23.47258294 -53.10479245 23.87037279 -50.9765625 23.8671875 C-49.70546631 23.86452881 -49.70546631 23.86452881 -48.40869141 23.86181641 C-47.49007324 23.86616699 -46.57145508 23.87051758 -45.625 23.875 C-44.6870459 23.8754834 -43.7490918 23.8759668 -42.78271484 23.87646484 C-35.60366098 23.91142581 -28.46148606 24.21847842 -21.30712891 24.81982422 C-16.48810944 25.16228719 -12.5319396 24.96192828 -8 23 C-6.5309828 20.84229044 -6.5309828 20.84229044 -6 18 C-5.67 16.79085937 -5.34 15.58171875 -5 14.3359375 C-4.49186092 12.34307954 -3.9933601 10.34812917 -3.5 8.3515625 C-2.66732307 5.09891824 -1.88397501 2.82596252 0 0 Z " fill="#CAC5B7" transform="translate(68,37)"/>
<path d="M0 0 C1.69514137 0.95093297 3.36368108 1.95107762 5 3 C12.40647765 4.30850568 19.72861697 3.98800105 27.21875 3.69726562 C34.37652477 3.56525748 34.37652477 3.56525748 37.59375 5.80859375 C39.28113172 8.43809693 40.18012566 10.99379408 41 14 C43.28565956 11.87197213 44.96939049 10.05484203 46.5 7.3125 C48 5 48 5 50.09375 4.35546875 C51.03734375 4.17951172 51.03734375 4.17951172 52 4 C54.22309438 12.57479261 54.86240682 19.41277954 52 28 C51.70867187 29.01320313 51.41734375 30.02640625 51.1171875 31.0703125 C50.78976563 32.16085938 50.46234375 33.25140625 50.125 34.375 C49.66480469 35.93347656 49.66480469 35.93347656 49.1953125 37.5234375 C48 40 48 40 46.015625 40.8671875 C42.32206431 41.11056165 39.64747171 40.33915185 36.375 38.625 C32.54866705 36.78269154 28.79048245 35.77718496 24.68359375 34.74609375 C22.0252545 34.00702127 19.54077115 33.07052383 17 32 C16.67 33.65 16.34 35.3 16 37 C15.67 37 15.34 37 15 37 C14.690625 35.39125 14.690625 35.39125 14.375 33.75 C13.15110806 28.80197974 10.86407658 24.54381125 8.51953125 20.04296875 C6.73238082 16.46407367 5.30955121 12.81971091 3.95703125 9.05859375 C2.90905288 6.80437089 1.95265818 5.53252635 0 4 C-3.41499591 3.33292452 -3.41499591 3.33292452 -7 4 C-13.84811027 9.65713457 -13.7874239 15.61055072 -15 24 C-15.19142578 25.16595703 -15.19142578 25.16595703 -15.38671875 26.35546875 C-16.12566555 31.1634213 -15.764746 35.24158047 -15 40 C-17 39 -17 39 -18.125 35.9375 C-18.41375 34.968125 -18.7025 33.99875 -19 33 C-19.87011719 33.19916016 -19.87011719 33.19916016 -20.7578125 33.40234375 C-32.1281032 35.97285501 -41.88867901 37.57895648 -53 33 C-53.66 32.34 -54.32 31.68 -55 31 C-55 26.32609068 -52.2443154 23.41443181 -49.48046875 19.921875 C-47.87804742 17.93393761 -47.87804742 17.93393761 -46.4375 15.25 C-44.67366146 12.48920924 -42.59900189 10.98019191 -40 9 C-39.236875 8.13375 -38.47375 7.2675 -37.6875 6.375 C-31.8538243 1.21965868 -25.11195004 1.91515494 -17.75390625 2.0625 C-11.49358659 1.92042182 -6.51750858 -0.8268481 0 0 Z " fill="#DB6603" transform="translate(71,12)"/>
<path d="M0 0 C0.97018066 0.02682861 0.97018066 0.02682861 1.95996094 0.05419922 C4.07864811 0.12185893 6.19505868 0.2135382 8.3125 0.3125 C9.60800781 0.37050781 10.90351562 0.42851563 12.23828125 0.48828125 C16.45020971 1.06124348 19.23633214 2.06807924 23 4 C24.57756231 7.15512463 23.99202419 10.43665532 23.8125 13.875 C23.79380859 14.59558594 23.77511719 15.31617187 23.75585938 16.05859375 C23.59096021 19.20035678 23.286332 21.5507677 21.58129883 24.22583008 C17.572412 26.98120514 13.79471868 26.4065672 9.0546875 26.20703125 C8.08846466 26.18154709 7.12224182 26.15606293 6.1267395 26.12980652 C3.04191386 26.04313626 -0.04111687 25.9275631 -3.125 25.8125 C-5.20958548 25.75278784 -7.29422185 25.69482444 -9.37890625 25.63867188 C-11.35942216 25.57968779 -13.33989377 25.51919273 -15.3203125 25.45703125 C-16.72967575 25.41314018 -16.72967575 25.41314018 -18.16751099 25.36836243 C-19.03536224 25.33550644 -19.9032135 25.30265045 -20.79736328 25.26879883 C-21.56251251 25.24118973 -22.32766174 25.21358063 -23.11599731 25.18513489 C-25 25 -25 25 -27 24 C-28.09522363 19.42501522 -28.13426382 14.93749245 -28.125 10.25 C-28.12757812 8.93515625 -28.13015625 7.6203125 -28.1328125 6.265625 C-28 3 -28 3 -27 1 C-18.14855617 -0.23943599 -8.91990618 -0.25203666 0 0 Z " fill="#EB710C" transform="translate(76,68)"/>
<path d="M0 0 C4.00021177 4.049521 6.14928538 8.07940892 8.0625 13.4375 C9.5020131 17.37700783 10.96697381 21.07298947 13.12109375 24.68359375 C15.11705682 28.20661381 15.74594332 30.86565749 16.3125 34.7890625 C17.61775915 38.98665727 19.97525283 41.42764474 23.76953125 43.546875 C30.27250072 46.21378708 30.27250072 46.21378708 37.125 47.5625 C38.07375 47.706875 39.0225 47.85125 40 48 C43.06859017 52.53572756 42.45483131 57.75955232 42 63 C41.18980165 67.06035819 40.16463472 71.02776373 39 75 C38.67 75 38.34 75 38 75 C38.0928125 74.04480469 38.185625 73.08960937 38.28125 72.10546875 C38.75039823 63.70268887 38.33453024 58.0012675 32.75390625 51.22265625 C28.96195555 48.16220243 24.96380047 47.03082533 20.36450195 45.75463867 C15.45772228 44.34186599 13.02787635 43.01367517 10.40234375 38.66015625 C9.93957031 37.78230469 9.47679687 36.90445313 9 36 C8.23427919 34.66317478 7.46434554 33.32875834 6.69140625 31.99609375 C4.03673457 27.38384789 1.38043886 22.76087771 -1 18 C-3.02463255 17.34786708 -3.02463255 17.34786708 -5 17 C-5.16435547 18.06927734 -5.16435547 18.06927734 -5.33203125 19.16015625 C-6.27844154 24.87708995 -7.55208712 29.71250819 -10 35 C-11.05645055 37.98207178 -12.03656948 40.9867173 -13 44 C-16.69541586 44.95024979 -19.30458414 44.95024979 -23 44 C-22.1028125 43.6596875 -22.1028125 43.6596875 -21.1875 43.3125 C-18.31026915 41.58616149 -17.43420272 40.02776129 -16 37 C-15.92676594 33.83693346 -15.92676594 33.83693346 -16.4375 30.5625 C-17.08141528 25.64902037 -16.69192529 22.6387472 -15 18 C-14.82266175 16.33808727 -14.69457911 14.66989866 -14.625 13 C-14.23458483 8.37079153 -13.06489717 5.60576137 -10 2 C-6.23500419 -0.5099972 -4.45706394 -0.61476744 0 0 Z " fill="#B76010" transform="translate(71,15)"/>
<path d="M0 0 C15.84 0 31.68 0 48 0 C45.53332663 2.46667337 43.65229337 2.79457605 40.3125 3.75 C34.56305011 5.57215459 31.31842151 7.86933595 27 12 C26.34 12 25.68 12 25 12 C24.34 13.32 23.68 14.64 23 16 C22.34 16 21.68 16 21 16 C20.76667969 16.54011719 20.53335937 17.08023437 20.29296875 17.63671875 C18.9661718 20.06183099 17.37569273 22.08461566 15.62255859 24.21411133 C9.59580649 31.56728801 5.651258 39.25874327 2 48 C1.34 48 0.68 48 0 48 C0 32.16 0 16.32 0 0 Z " fill="#2A2F31" transform="translate(0,0)"/>
<path d="M0 0 C3.97940152 1.49884947 5.43463485 3.74712589 7.625 7.3125 C8.21539062 8.25738281 8.80578125 9.20226563 9.4140625 10.17578125 C13.18099174 16.8838843 13.18099174 16.8838843 12.625 20.3125 C12.41875 20.869375 12.2125 21.42625 12 22 C13.27875 21.938125 14.5575 21.87625 15.875 21.8125 C21.96848019 21.85088413 28.15989845 22.56809118 32.9296875 26.65234375 C37.54254671 31.87215812 38.16424986 35.8709417 37.75 42.75 C37.70939453 43.78640625 37.70939453 43.78640625 37.66796875 44.84375 C37.37760723 49.82672827 36.1853366 53.51183558 34 58 C27.29418301 58.81393169 20.78675538 59.09319158 14.0390625 58.87890625 C13.12724213 58.85529526 12.21542175 58.83168427 11.27597046 58.80735779 C8.39211764 58.73164058 5.50859367 58.64746822 2.625 58.5625 C-0.2450167 58.48293853 -3.11507468 58.40518879 -5.98516846 58.32846069 C-7.82858322 58.27917034 -9.67196826 58.22875427 -11.51531982 58.17715454 C-17.22920262 58.02328321 -22.93109403 57.96711631 -28.64697266 58.07788086 C-31.19063695 57.99369027 -33.52193106 57.56385047 -36 57 C-35.67 56.34 -35.34 55.68 -35 55 C-33.0390625 54.7265625 -33.0390625 54.7265625 -30.625 54.625 C-26.85516193 54.39163033 -26.85516193 54.39163033 -24.0625 51.9375 C-23.5365625 50.9784375 -23.5365625 50.9784375 -23 50 C-22.34 50 -21.68 50 -21 50 C-20.50693359 50.64904297 -20.01386719 51.29808594 -19.50585938 51.96679688 C-15.61742374 55.12179415 -11.77131276 54.57266619 -6.90625 54.53125 C-5.43073669 54.53699036 -5.43073669 54.53699036 -3.92541504 54.54284668 C-1.84756445 54.54556627 0.23032035 54.53820182 2.30810547 54.52148438 C5.48873211 54.50007584 8.66709987 54.52128488 11.84765625 54.546875 C13.86719249 54.54423173 15.88672732 54.53910678 17.90625 54.53125 C19.33294006 54.54339539 19.33294006 54.54339539 20.78845215 54.55578613 C26.01528547 54.51941373 26.01528547 54.51941373 30.58398438 52.21484375 C32.8333757 48.69648545 32.82643253 45.58924966 33 41.5 C33.06316406 40.74074219 33.12632813 39.98148438 33.19140625 39.19921875 C33.38243335 35.68062289 33.36514717 33.52067282 31.3125 30.59375 C25.42742875 26.53782252 19.24556174 26.30278163 12.3125 25.75 C11.20430908 25.66137695 10.09611816 25.57275391 8.9543457 25.48144531 C-7.53203254 24.23989708 -7.53203254 24.23989708 -23 29 C-23.99 28.34 -24.98 27.68 -26 27 C-28.50234322 26.749481 -30.93022061 26.58173298 -33.4375 26.5 C-41.55913956 26.18243834 -41.55913956 26.18243834 -45 24 C-43.04524618 22.04524618 -39.31556629 22.76898574 -36.640625 22.71875 C-35.52853668 22.69113586 -35.52853668 22.69113586 -34.39398193 22.66296387 C-32.01273765 22.60404416 -29.63141875 22.55135264 -27.25 22.5 C-24.13006458 22.43212015 -21.01034532 22.35831761 -17.890625 22.28125 C-17.17585999 22.26767456 -16.46109497 22.25409912 -15.72467041 22.2401123 C-12.04109022 22.14916512 -8.58613206 21.86206775 -5 21 C-4.89042969 20.07058594 -4.78085937 19.14117187 -4.66796875 18.18359375 C-3.82956512 11.64677198 -3.07256965 5.86581479 0 0 Z " fill="#E9EEF1" transform="translate(68,41)"/>
<path d="M0 0 C2.2578125 0.06640625 2.2578125 0.06640625 5 1 C6.53404187 3.33114206 7.70228331 5.43596606 8.875 7.9375 C9.57158823 9.30929571 10.27213651 10.67908749 10.9765625 12.046875 C11.31977539 12.72041016 11.66298828 13.39394531 12.01660156 14.08789062 C15.66234365 21.17663243 18.29263139 25.8713939 26.125 28.4375 C27.61386719 28.80681641 27.61386719 28.80681641 29.1328125 29.18359375 C32.1944195 30.05535923 34.42447917 31.13480965 37 33 C37.33 33.99 37.66 34.98 38 36 C37.14341797 35.54947266 37.14341797 35.54947266 36.26953125 35.08984375 C34.09477113 34.04550972 31.9862564 33.28519962 29.6875 32.5625 C28.90117188 32.29824219 28.11484375 32.03398438 27.3046875 31.76171875 C25.31640333 31.10457398 23.31542683 30.48606242 21.3125 29.875 C16.57804141 27.19511778 14.70022354 23.62241656 12 19 C10.94975517 17.23736202 9.89329468 15.47881931 8.82983398 13.72412109 C7.78689046 11.99853648 6.76031523 10.26309146 5.734375 8.52734375 C5.16203125 7.69332031 4.5896875 6.85929687 4 6 C3.34 6 2.68 6 2 6 C-0.94872062 14.40741969 -0.94872062 14.40741969 -3 23.0625 C-3.58029935 25.82892709 -3.84701576 26.82516087 -5.75 29 C-11.06596665 31.36265184 -16.39157194 31.00012991 -22.0625 30.5625 C-32.37810937 29.8676155 -42.66585098 29.90827678 -53 30 C-53 31.98 -53 33.96 -53 36 C-51.69011108 36.03758423 -51.69011108 36.03758423 -50.35375977 36.07592773 C-47.12397448 36.17087709 -43.89435846 36.27012029 -40.66479492 36.37231445 C-39.26510801 36.41571434 -37.86536641 36.45738564 -36.46557617 36.49731445 C-34.45738505 36.55489445 -32.44938851 36.61914 -30.44140625 36.68359375 C-29.23170166 36.72025146 -28.02199707 36.75690918 -26.77563477 36.79467773 C-24 37 -24 37 -23 38 C-22.72101175 41.63826046 -22.76822707 45.28980798 -22.75 48.9375 C-22.729375 49.96552734 -22.70875 50.99355469 -22.6875 52.05273438 C-22.67976563 53.52516602 -22.67976563 53.52516602 -22.671875 55.02734375 C-22.65785645 56.38460571 -22.65785645 56.38460571 -22.64355469 57.76928711 C-22.76118164 58.50542236 -22.87880859 59.24155762 -23 60 C-26.39897673 62.26598448 -27.56319173 62.23742654 -31.54296875 62.1953125 C-33.15268555 62.18564453 -33.15268555 62.18564453 -34.79492188 62.17578125 C-35.91447266 62.15902344 -37.03402344 62.14226562 -38.1875 62.125 C-39.31865234 62.11597656 -40.44980469 62.10695312 -41.61523438 62.09765625 C-44.41036828 62.07406862 -47.20507845 62.041153 -50 62 C-50 63.65 -50 65.3 -50 67 C-33.49247869 68.09077744 -16.99387022 68.2196859 -0.45776367 68.24023438 C3.35292569 68.24581326 7.16327448 68.27011087 10.97385502 68.29820633 C13.9326228 68.31677079 16.89130515 68.32203402 19.85012627 68.32357025 C21.25716542 68.32658962 22.66420332 68.334594 24.07118416 68.34775543 C26.02012177 68.36475251 27.96920672 68.3611001 29.91821289 68.35644531 C31.57645836 68.36191376 31.57645836 68.36191376 33.26820374 68.36749268 C36.00980748 68.22383702 36.00980748 68.22383702 37.8344574 66.63153076 C42.68057836 59.84791306 41.22936843 47.90046815 41 40 C43.05193511 41.66709197 43.92953415 42.50960394 44.31225586 45.1730957 C44.20657574 47.88820072 44.09403966 50.59975972 43.9375 53.3125 C43.90978516 54.25029297 43.88207031 55.18808594 43.85351562 56.15429688 C43.56375812 61.94536594 42.95966953 65.65419248 39 70 C34.01623178 72.57543841 27.53459274 72.07827485 22.05859375 72.05859375 C21.3443927 72.05608109 20.63019165 72.05356842 19.89434814 72.05097961 C17.26284823 72.03891237 14.63145307 72.01980887 12 72 C10.3534996 71.98894226 10.3534996 71.98894226 8.67373657 71.97766113 C1.58067556 71.92736981 -5.51194958 71.85787877 -12.60456371 71.76427078 C-16.04364643 71.71917836 -19.48259311 71.67990447 -22.921875 71.65356445 C-26.9430104 71.62258409 -30.96351228 71.567917 -34.984375 71.51171875 C-36.21766541 71.50532883 -37.45095581 71.4989389 -38.72161865 71.49235535 C-39.86761536 71.47256119 -41.01361206 71.45276703 -42.19433594 71.43237305 C-43.19785095 71.42126999 -44.20136597 71.41016693 -45.23529053 71.39872742 C-48.75571389 70.89101067 -51.4667363 69.5332637 -54 67 C-54.26293056 62.96839809 -54.29404844 61.44107266 -52 58 C-49.47802734 57.65942383 -49.47802734 57.65942383 -46.3359375 57.70703125 C-45.21445312 57.71669922 -44.09296875 57.72636719 -42.9375 57.73632812 C-41.761875 57.76146484 -40.58625 57.78660156 -39.375 57.8125 C-38.19164063 57.82603516 -37.00828125 57.83957031 -35.7890625 57.85351562 C-32.85892461 57.88896084 -29.92968541 57.93837231 -27 58 C-25.47508871 54.95017742 -25.85638566 51.77877461 -25.875 48.4375 C-25.87113281 47.73947266 -25.86726563 47.04144531 -25.86328125 46.32226562 C-25.56077485 42.87251102 -25.56077485 42.87251102 -27 40 C-28.89254755 39.94913519 -30.7869505 39.96456794 -32.6796875 40.0078125 C-33.83597656 40.02457031 -34.99226563 40.04132813 -36.18359375 40.05859375 C-38.63687466 40.10272685 -41.09002664 40.15476104 -43.54296875 40.21484375 C-44.70183594 40.22902344 -45.86070313 40.24320313 -47.0546875 40.2578125 C-48.12187012 40.2798877 -49.18905273 40.30196289 -50.28857422 40.32470703 C-53 40 -53 40 -54.83959961 38.61157227 C-56.94463141 35.68808922 -56.71126254 32.52259707 -57 29 C-53.84274381 26.89516254 -53.12625389 26.7527941 -49.52856445 26.77294922 C-48.17750359 26.77317581 -48.17750359 26.77317581 -46.79914856 26.77340698 C-45.83031235 26.78372955 -44.86147614 26.79405212 -43.86328125 26.8046875 C-42.37141548 26.80893234 -42.37141548 26.80893234 -40.84941101 26.81326294 C-37.6703187 26.82446511 -34.49150728 26.84956986 -31.3125 26.875 C-29.15820719 26.88502975 -27.00390997 26.89415561 -24.84960938 26.90234375 C-19.56631028 26.92440454 -14.28317521 26.95788244 -9 27 C-8.79617203 26.38557037 -8.59234406 25.77114075 -8.38233948 25.13809204 C-8.11380661 24.33020233 -7.84527374 23.52231262 -7.56860352 22.68994141 C-7.30290054 21.88988678 -7.03719757 21.08983215 -6.76344299 20.26553345 C-5.87066067 17.61618276 -4.91478044 14.99426985 -3.9375 12.375 C-2.43580845 8.2841851 -1.12255828 4.20959356 0 0 Z " fill="#C1925B" transform="translate(66,32)"/>
<path d="M0 0 C1.77360018 0.00935033 3.54721347 0.01645591 5.3208313 0.0214386 C9.94062308 0.04033412 14.55960187 0.0892792 19.17907715 0.1449585 C23.91224171 0.19653249 28.6455404 0.21903326 33.37890625 0.24414062 C42.63056134 0.29741915 51.88161876 0.38251413 61.1328125 0.48828125 C61.1328125 1.80828125 61.1328125 3.12828125 61.1328125 4.48828125 C53.69964283 6.53259873 47.11215584 6.58735755 39.4453125 6.17578125 C38.27009033 6.12309082 37.09486816 6.07040039 35.8840332 6.01611328 C32.2995255 5.85310416 28.71622742 5.67366457 25.1328125 5.48828125 C21.98146487 5.32563406 18.83013889 5.16332119 15.6784668 5.00708008 C13.82279209 4.91371778 11.96743666 4.81368203 10.11254883 4.70581055 C5.56828624 4.46950012 1.62741507 4.68787257 -2.8671875 5.48828125 C-6.82219811 5.75724414 -10.78105895 5.90199502 -14.7421875 6.05078125 C-16.34707031 6.11555664 -16.34707031 6.11555664 -17.984375 6.18164062 C-20.61186504 6.28720942 -23.23944172 6.38931916 -25.8671875 6.48828125 C-25.8671875 7.14828125 -25.8671875 7.80828125 -25.8671875 8.48828125 C-28.5071875 9.14828125 -31.1471875 9.80828125 -33.8671875 10.48828125 C-33.8671875 11.14828125 -33.8671875 11.80828125 -33.8671875 12.48828125 C-34.5271875 12.48828125 -35.1871875 12.48828125 -35.8671875 12.48828125 C-35.8671875 13.14828125 -35.8671875 13.80828125 -35.8671875 14.48828125 C-36.5271875 14.48828125 -37.1871875 14.48828125 -37.8671875 14.48828125 C-38.13917969 15.08125 -38.41117188 15.67421875 -38.69140625 16.28515625 C-39.83909091 18.43563514 -41.03662642 19.95215681 -42.6796875 21.73828125 C-45.51276262 24.93155174 -47.68041738 28.28018841 -49.7890625 31.984375 C-50.14484375 32.48066406 -50.500625 32.97695313 -50.8671875 33.48828125 C-51.5271875 33.48828125 -52.1871875 33.48828125 -52.8671875 33.48828125 C-53.15335938 34.20371094 -53.43953125 34.91914062 -53.734375 35.65625 C-55.4453125 39.93359375 -57.15625 44.2109375 -58.8671875 48.48828125 C-59.8571875 48.15828125 -60.8471875 47.82828125 -61.8671875 47.48828125 C-62.1971875 50.12828125 -62.5271875 52.76828125 -62.8671875 55.48828125 C-64.8471875 55.98328125 -64.8471875 55.98328125 -66.8671875 56.48828125 C-66.8671875 53.84828125 -66.8671875 51.20828125 -66.8671875 48.48828125 C-66.2071875 48.48828125 -65.5471875 48.48828125 -64.8671875 48.48828125 C-64.72023438 47.95460937 -64.57328125 47.4209375 -64.421875 46.87109375 C-61.20633225 36.18957819 -54.94607092 27.9543398 -47.8671875 19.48828125 C-47.36316406 18.84890625 -46.85914062 18.20953125 -46.33984375 17.55078125 C-34.00074513 2.23799404 -18.52786817 -0.29088563 0 0 Z " fill="#E16F0D" transform="translate(66.8671875,-0.48828125)"/>
<path d="M0 0 C0.65226562 0.0721875 1.30453125 0.144375 1.9765625 0.21875 C5.83988154 0.62901397 9.61126428 1 13.5 1 C16 1 16 1 18 2 C18.08222467 6.19345821 17.87610406 9.91151437 17 14 C16.814375 15.9490625 16.814375 15.9490625 16.625 17.9375 C14.29583031 39.36586112 14.29583031 39.36586112 7.41015625 46.69140625 C3.81940915 48.64100152 0.35302612 48.34915956 -3.625 48.25 C-4.54724365 48.23904297 -5.4694873 48.22808594 -6.41967773 48.21679688 C-9.94714698 48.16593453 -13.47317285 48.08455757 -17 48 C-18.60270002 47.96281302 -20.20540196 47.92570856 -21.80810547 47.88867188 C-36.24219645 47.5514172 -36.24219645 47.5514172 -43.33251953 47.35644531 C-45.06672743 47.31038321 -46.80093966 47.2644839 -48.53515625 47.21875 C-49.38456787 47.19504333 -50.23397949 47.17133667 -51.10913086 47.14691162 C-55.70309232 47.03168319 -60.28336246 47.00085669 -64.87841797 47.07421875 C-65.83936874 47.08682739 -66.80031952 47.09943604 -67.79039001 47.11242676 C-69.6387577 47.14104207 -71.48698443 47.18238627 -73.33473206 47.23815918 C-74.164561 47.25044556 -74.99438995 47.26273193 -75.84936523 47.27539062 C-76.58017807 47.29428345 -77.31099091 47.31317627 -78.06394958 47.3326416 C-80.54041395 46.90714903 -81.41652414 45.89262204 -83 44 C-78.83078517 42.97892905 -74.99015249 42.92368278 -70.70629883 43.01000977 C-69.99011383 43.0228299 -69.27392883 43.03565002 -68.53604126 43.04885864 C-66.98641968 43.07712782 -65.43684032 43.10779196 -63.88730812 43.14059639 C-61.42687099 43.19203681 -58.96640586 43.23577194 -56.50578308 43.27732849 C-49.51136525 43.39658748 -42.51720518 43.52765635 -35.52319336 43.66870117 C-31.23816884 43.75457527 -26.95306042 43.82977776 -22.66773033 43.89863396 C-21.04313295 43.92687299 -19.41860008 43.95914702 -17.79416847 43.99569893 C-5.21623803 44.51518977 -5.21623803 44.51518977 7 42 C10.435184 38.38934491 11.15994566 33.21905955 12.1875 28.4375 C12.36112061 27.64408203 12.53474121 26.85066406 12.71362305 26.03320312 C15.0570113 15.35774091 15.0570113 15.35774091 13 5 C10.49730442 4.39450913 7.99096441 4.04237512 5.4453125 3.66015625 C2.76793418 2.93734964 1.73790003 2.11195136 0 0 Z " fill="#D56504" transform="translate(98,59)"/>
<path d="M0 0 C4.14581887 -0.02886751 8.29161216 -0.04675327 12.4375 -0.0625 C13.62150391 -0.07087891 14.80550781 -0.07925781 16.02539062 -0.08789062 C17.15009766 -0.09111328 18.27480469 -0.09433594 19.43359375 -0.09765625 C20.47572021 -0.10289307 21.51784668 -0.10812988 22.59155273 -0.11352539 C25 0 25 0 26 1 C26.2776444 4.30438909 26.23174988 7.62282134 26.25 10.9375 C26.270625 11.87013672 26.29125 12.80277344 26.3125 13.76367188 C26.31765625 14.65505859 26.3228125 15.54644531 26.328125 16.46484375 C26.34214355 17.69642212 26.34214355 17.69642212 26.35644531 18.95288086 C26.18000488 19.96620483 26.18000488 19.96620483 26 21 C22.49714126 23.33523916 21.34370062 23.18495942 17.23828125 22.9765625 C16.12001953 22.925 15.00175781 22.8734375 13.84960938 22.8203125 C12.68236328 22.75585938 11.51511719 22.69140625 10.3125 22.625 C9.13365234 22.56828125 7.95480469 22.5115625 6.74023438 22.453125 C3.82621648 22.31155328 0.91304743 22.16013058 -2 22 C-2 23.98 -2 25.96 -2 28 C1.14394591 29.57197296 4.5358219 29.38274529 7.99609375 29.546875 C8.86181503 29.58850769 9.72753632 29.63014038 10.61949158 29.67303467 C23.58563144 30.22552993 36.5665197 30.22402206 49.54223633 30.24023438 C53.35292569 30.24581326 57.16327448 30.27011087 60.97385502 30.29820633 C63.9326228 30.31677079 66.89130515 30.32203402 69.85012627 30.32357025 C71.25716542 30.32658962 72.66420332 30.334594 74.07118416 30.34775543 C76.02012177 30.36475251 77.96920672 30.3611001 79.91821289 30.35644531 C81.57645836 30.36191376 81.57645836 30.36191376 83.26820374 30.36749268 C86.00980748 30.22383702 86.00980748 30.22383702 87.8344574 28.63153076 C92.68057836 21.84791306 91.22936843 9.90046815 91 2 C93.05193511 3.66709197 93.92953415 4.50960394 94.31225586 7.1730957 C94.20657574 9.88820072 94.09403966 12.59975972 93.9375 15.3125 C93.90978516 16.25029297 93.88207031 17.18808594 93.85351562 18.15429688 C93.56375812 23.94536594 92.95966953 27.65419248 89 32 C84.01623178 34.57543841 77.53459274 34.07827485 72.05859375 34.05859375 C71.3443927 34.05608109 70.63019165 34.05356842 69.89434814 34.05097961 C67.26284823 34.03891237 64.63145307 34.01980887 62 34 C60.3534996 33.98894226 60.3534996 33.98894226 58.67373657 33.97766113 C51.58067556 33.92736981 44.48805042 33.85787877 37.39543629 33.76427078 C33.95635357 33.71917836 30.51740689 33.67990447 27.078125 33.65356445 C23.0569896 33.62258409 19.03648772 33.567917 15.015625 33.51171875 C13.78233459 33.50532883 12.54904419 33.4989389 11.27838135 33.49235535 C10.13238464 33.47256119 8.98638794 33.45276703 7.80566406 33.43237305 C6.30039154 33.41571846 6.30039154 33.41571846 4.76470947 33.39872742 C1.24428611 32.89101067 -1.4667363 31.5332637 -4 29 C-4.26293056 24.96839809 -4.29404844 23.44107266 -2 20 C0.52197266 19.65942383 0.52197266 19.65942383 3.6640625 19.70703125 C4.78554688 19.71669922 5.90703125 19.72636719 7.0625 19.73632812 C8.238125 19.76146484 9.41375 19.78660156 10.625 19.8125 C12.40003906 19.83280273 12.40003906 19.83280273 14.2109375 19.85351562 C17.14107539 19.88896084 20.07031459 19.93837231 23 20 C24.52491129 16.95017742 24.14361434 13.77877461 24.125 10.4375 C24.12886719 9.73947266 24.13273437 9.04144531 24.13671875 8.32226562 C24.43922515 4.87251102 24.43922515 4.87251102 23 2 C19.25843664 1.93940788 15.53002839 1.97968209 11.7890625 2.0390625 C7.71420553 2.07888195 3.97728095 2.03473976 0 1 C0 0.67 0 0.34 0 0 Z " fill="#C58946" transform="translate(16,70)"/>
<path d="M0 0 C1.921539 0.00022659 1.921539 0.00022659 3.88189697 0.00045776 C5.27510738 0.01067027 6.6683162 0.02110225 8.06152344 0.03173828 C9.4907003 0.03547014 10.91987972 0.0383163 12.34906006 0.04031372 C16.10395415 0.04793659 19.85869263 0.06757339 23.61352539 0.08972168 C27.44773249 0.11020919 31.28196483 0.11932164 35.11621094 0.12939453 C42.63451092 0.15082066 50.15268284 0.18494022 57.67089844 0.22705078 C57.67089844 1.54705078 57.67089844 2.86705078 57.67089844 4.22705078 C50.23772876 6.27136826 43.65024178 6.32612708 35.98339844 5.91455078 C34.80817627 5.86186035 33.6329541 5.80916992 32.42211914 5.75488281 C28.83761144 5.59187369 25.25431336 5.41243411 21.67089844 5.22705078 C18.51955081 5.06440359 15.36822483 4.90209072 12.21655273 4.74584961 C10.36087803 4.65248731 8.5055226 4.55245156 6.65063477 4.44458008 C2.10301676 4.20809517 -1.82854139 4.46280471 -6.32910156 5.22705078 C-10.12141931 5.35344912 -13.91021789 5.32137045 -17.70410156 5.28955078 C-18.72632813 5.28503906 -19.74855469 5.28052734 -20.80175781 5.27587891 C-23.31093351 5.26415379 -25.81998646 5.24774254 -28.32910156 5.22705078 C-28.32910156 4.89705078 -28.32910156 4.56705078 -28.32910156 4.22705078 C-26.44964844 4.04529297 -26.44964844 4.04529297 -24.53222656 3.85986328 C-22.88114291 3.69100245 -21.23010347 3.52170895 -19.57910156 3.35205078 C-18.75410156 3.27341797 -17.92910156 3.19478516 -17.07910156 3.11376953 C-15.88027344 2.98808594 -15.88027344 2.98808594 -14.65722656 2.85986328 C-13.92407227 2.78654785 -13.19091797 2.71323242 -12.43554688 2.63769531 C-10.30947005 2.3430357 -10.30947005 2.3430357 -8.59301758 1.21557617 C-5.61773434 -0.08356346 -3.24411829 -0.01277212 0 0 Z " fill="#DB6603" transform="translate(70.3291015625,-0.22705078125)"/>
<path d="M0 0 C5.24639565 1.79145217 7.58728689 8.80975745 9.984375 13.53125 C10.76559555 15.14333389 11.54161106 16.75795014 12.3125 18.375 C12.71082031 19.17808594 13.10914062 19.98117188 13.51953125 20.80859375 C15.96369848 25.92063164 17.17311328 30.21591301 17.5625 35.875 C13.21515836 31.95160125 10.57329423 27.82332091 7.8125 22.6875 C7.41417969 21.96369141 7.01585938 21.23988281 6.60546875 20.49414062 C5.22139255 17.97230687 3.84910214 15.44820429 2.5625 12.875 C0.53786745 12.22286708 0.53786745 12.22286708 -1.4375 11.875 C-1.54707031 12.58785156 -1.65664062 13.30070312 -1.76953125 14.03515625 C-2.71575187 19.75094422 -3.89134524 24.66695618 -6.4375 29.875 C-8.4375 27.875 -8.4375 27.875 -8.703125 25.625 C-8.57501825 3.07821168 -8.57501825 3.07821168 0 0 Z " fill="#174874" transform="translate(67.4375,20.125)"/>
<path d="M0 0 C0.97018066 0.02682861 0.97018066 0.02682861 1.95996094 0.05419922 C4.07864811 0.12185893 6.19505868 0.2135382 8.3125 0.3125 C9.60800781 0.37050781 10.90351562 0.42851563 12.23828125 0.48828125 C16.45020971 1.06124348 19.23633214 2.06807924 23 4 C24.57756231 7.15512463 23.99202419 10.43665532 23.8125 13.875 C23.79380859 14.59558594 23.77511719 15.31617187 23.75585938 16.05859375 C23.59096021 19.20035678 23.286332 21.5507677 21.58129883 24.22583008 C17.572412 26.98120514 13.79471868 26.4065672 9.0546875 26.20703125 C8.08846466 26.18154709 7.12224182 26.15606293 6.1267395 26.12980652 C3.04191386 26.04313626 -0.04111687 25.9275631 -3.125 25.8125 C-5.20958548 25.75278784 -7.29422185 25.69482444 -9.37890625 25.63867188 C-11.35942216 25.57968779 -13.33989377 25.51919273 -15.3203125 25.45703125 C-16.72967575 25.41314018 -16.72967575 25.41314018 -18.16751099 25.36836243 C-19.03536224 25.33550644 -19.9032135 25.30265045 -20.79736328 25.26879883 C-21.56251251 25.24118973 -22.32766174 25.21358063 -23.11599731 25.18513489 C-25 25 -25 25 -27 24 C-28.09522363 19.42501522 -28.13426382 14.93749245 -28.125 10.25 C-28.12757812 8.93515625 -28.13015625 7.6203125 -28.1328125 6.265625 C-28 3 -28 3 -27 1 C-18.14855617 -0.23943599 -8.91990618 -0.25203666 0 0 Z M-19.0625 2.4375 C-20.16722656 2.51871094 -21.27195312 2.59992188 -22.41015625 2.68359375 C-24.92647727 2.72109827 -24.92647727 2.72109827 -26 4 C-26.15322744 6.82586751 -26.23162755 9.61043882 -26.25 12.4375 C-26.270625 13.22705078 -26.29125 14.01660156 -26.3125 14.83007812 C-26.36473586 17.38938608 -26.36473586 17.38938608 -26 21 C-22.5442014 23.30386573 -21.31823289 23.2263622 -17.2578125 23.16015625 C-16.10796875 23.14919922 -14.958125 23.13824219 -13.7734375 23.12695312 C-12.56945312 23.10568359 -11.36546875 23.08441406 -10.125 23.0625 C-1.87895269 22.93935659 6.15543158 23.05847165 14.35986328 23.97436523 C17.23475854 24.24992672 17.23475854 24.24992672 20 22 C20.54501065 19.24288731 20.92549765 16.65847454 21.1875 13.875 C21.26935547 13.12089844 21.35121094 12.36679688 21.43554688 11.58984375 C21.6358897 9.72783393 21.81954036 7.86404189 22 6 C18.97694388 3.98462925 17.92919752 3.68450627 14.46484375 3.3671875 C13.12583008 3.24150391 13.12583008 3.24150391 11.75976562 3.11328125 C10.82841797 3.03464844 9.89707031 2.95601563 8.9375 2.875 C7.58108398 2.74544922 7.58108398 2.74544922 6.19726562 2.61328125 C-2.26013103 1.85157147 -10.59312028 1.7813502 -19.0625 2.4375 Z " fill="#C38C4D" transform="translate(76,68)"/>
<path d="M0 0 C0.33 0 0.66 0 1 0 C1 22.11 1 44.22 1 67 C-6.92 67 -14.84 67 -23 67 C-22 65 -22 65 -20.2578125 64.37890625 C-17.75267969 63.95849469 -15.41424609 63.90339072 -12.875 63.9375 C-11.57175781 63.95103516 -11.57175781 63.95103516 -10.2421875 63.96484375 C-9.13230469 63.98224609 -9.13230469 63.98224609 -8 64 C-7.34 64 -6.68 64 -6 64 C-1.62199547 59.62199547 -2.97856382 51.10240765 -2.97363281 45.20898438 C-3.00404173 38.76864762 -3.06699104 32.32823716 -3.17138672 25.88867188 C-3.21390846 23.10803633 -3.23719554 20.32774783 -3.2578125 17.546875 C-3.27643341 16.70711121 -3.29505432 15.86734741 -3.3142395 15.00213623 C-3.33866531 9.33435287 -2.26794459 5.20157084 0 0 Z " fill="#E97410" transform="translate(127,61)"/>
<path d="M0 0 C4.25203702 1.41734567 5.34260561 4.53584667 7.4375 8.25 C10.03919415 12.80406161 12.71238225 16.89609448 16 21 C16 21.66 16 22.32 16 23 C16.80824219 23.18175781 17.61648437 23.36351563 18.44921875 23.55078125 C19.51785156 23.80214844 20.58648437 24.05351563 21.6875 24.3125 C22.74324219 24.55613281 23.79898438 24.79976562 24.88671875 25.05078125 C29.13884471 26.34722618 32.32646345 28.55097563 36 31 C35.67 31.99 35.34 32.98 35 34 C34.175 33.21625 33.35 32.4325 32.5 31.625 C26.69794219 26.81486308 19.25731528 26.63837496 12 26 C12.06574219 25.29875 12.13148437 24.5975 12.19921875 23.875 C11.74526405 17.32381065 6.64480962 10.33230962 2.0625 5.75 C1.0415625 4.88375 1.0415625 4.88375 0 4 C-1.8849413 11.00629124 -3.39700836 17.76410027 -4 25 C-8.71101402 26.83671545 -13.01872132 27.33295234 -18.0234375 27.4140625 C-18.76961334 27.43342865 -19.51578918 27.4527948 -20.28457642 27.4727478 C-22.64793777 27.53212065 -25.01134897 27.5787578 -27.375 27.625 C-28.98569732 27.66321884 -30.59637506 27.7022728 -32.20703125 27.7421875 C-36.13786016 27.83778676 -40.06878463 27.921972 -44 28 C-40.43913342 29.18695553 -37.02668976 29.35095418 -33.3125 29.5625 C-32.61060547 29.60568359 -31.90871094 29.64886719 -31.18554688 29.69335938 C-29.45724794 29.7991736 -27.7286489 29.90006581 -26 30 C-26 30.33 -26 30.66 -26 31 C-35.24 31 -44.48 31 -54 31 C-54.495 28.525 -54.495 28.525 -55 26 C-54 25 -54 25 -50.41748047 24.91821289 C-48.81733927 24.93199713 -47.21723472 24.95050355 -45.6171875 24.97265625 C-43.87500207 24.98531378 -42.13281445 24.99767389 -40.390625 25.00976562 C-37.63892862 25.03449172 -34.88734507 25.06234926 -32.13574219 25.09594727 C-29.48371702 25.12633406 -26.83183236 25.14399055 -24.1796875 25.16015625 C-22.95897049 25.18034569 -22.95897049 25.18034569 -21.71359253 25.20094299 C-16.75918584 25.22248557 -12.66091337 24.74188493 -8 23 C-6.5309828 20.84229044 -6.5309828 20.84229044 -6 18 C-5.67 16.79085937 -5.34 15.58171875 -5 14.3359375 C-4.49186092 12.34307954 -3.9933601 10.34812917 -3.5 8.3515625 C-2.66732307 5.09891824 -1.88397501 2.82596252 0 0 Z " fill="#CCD1D0" transform="translate(68,37)"/>
<path d="M0 0 C2.86984314 1.53757892 3.46543728 2.44343605 4.76953125 5.37890625 C5.37861328 6.70921875 5.37861328 6.70921875 6 8.06640625 C6.48082031 9.13890625 6.96164063 10.21140625 7.45703125 11.31640625 C8.11602073 12.69321751 8.77905649 14.06809664 9.4453125 15.44140625 C12.91873817 22.63242674 16.12206297 29.66289911 18.45703125 37.31640625 C19.74100844 40.46981476 19.74100844 40.46981476 22.45703125 42.31640625 C19.48703125 41.82140625 19.48703125 41.82140625 16.45703125 41.31640625 C16.23015625 40.42953125 16.00328125 39.54265625 15.76953125 38.62890625 C12.19675911 26.36891419 6.57918056 15.45364954 0.45703125 4.31640625 C-1.19296875 4.31640625 -2.84296875 4.31640625 -4.54296875 4.31640625 C-5.20204293 5.49660885 -5.84446355 6.68611359 -6.48046875 7.87890625 C-6.84011719 8.54019531 -7.19976562 9.20148437 -7.5703125 9.8828125 C-10.23578443 16.55184467 -9.59386426 23.78399916 -9.328125 30.8203125 C-9.24057372 35.54012232 -9.55333703 38.41892825 -12.54296875 42.31640625 C-13.86296875 41.98640625 -15.18296875 41.65640625 -16.54296875 41.31640625 C-16.04667969 40.59839844 -15.55039062 39.88039062 -15.0390625 39.140625 C-13.36982209 35.98955237 -13.32816393 34.62294699 -13.60546875 31.12890625 C-13.7523015 25.50031757 -12.98265288 20.4128388 -11.79296875 14.94140625 C-11.55719116 13.80022339 -11.55719116 13.80022339 -11.31665039 12.63598633 C-10.21638693 7.83257759 -8.70531429 4.21502308 -5.54296875 0.31640625 C-2.54296875 -0.68359375 -2.54296875 -0.68359375 0 0 Z " fill="#775121" transform="translate(69.54296875,17.68359375)"/>
<path d="M0 0 C5.35483871 5.35483871 5.35483871 5.35483871 7.75 8.4375 C10.74150789 12.0148123 14.18638029 14.31830621 18.14453125 16.73828125 C20 18 20 18 21 20 C14.07 20 7.14 20 0 20 C0 13.4 0 6.8 0 0 Z " fill="#E9EEF1" transform="translate(0,108)"/>
<path d="M0 0 C2.2578125 0.06640625 2.2578125 0.06640625 5 1 C6.53404187 3.33114206 7.70228331 5.43596606 8.875 7.9375 C9.57158823 9.30929571 10.27213651 10.67908749 10.9765625 12.046875 C11.49138184 13.05717773 11.49138184 13.05717773 12.01660156 14.08789062 C15.66234365 21.17663243 18.29263139 25.8713939 26.125 28.4375 C27.11757812 28.68371094 28.11015625 28.92992188 29.1328125 29.18359375 C32.1944195 30.05535923 34.42447917 31.13480965 37 33 C37.33 33.99 37.66 34.98 38 36 C37.42894531 35.69964844 36.85789063 35.39929688 36.26953125 35.08984375 C34.09477113 34.04550972 31.9862564 33.28519962 29.6875 32.5625 C28.50800781 32.16611328 28.50800781 32.16611328 27.3046875 31.76171875 C25.31640333 31.10457398 23.31542683 30.48606242 21.3125 29.875 C16.57804141 27.19511778 14.70022354 23.62241656 12 19 C10.94975517 17.23736202 9.89329468 15.47881931 8.82983398 13.72412109 C7.78689046 11.99853648 6.76031523 10.26309146 5.734375 8.52734375 C5.16203125 7.69332031 4.5896875 6.85929687 4 6 C3.34 6 2.68 6 2 6 C-0.94872062 14.40741969 -0.94872062 14.40741969 -3 23.0625 C-3.58029935 25.82892709 -3.84701576 26.82516087 -5.75 29 C-8.54366288 30.24162795 -10.9484791 30.80098777 -14 31 C-14.66 30.34 -15.32 29.68 -16 29 C-14.741875 28.71125 -13.48375 28.4225 -12.1875 28.125 C-9.59925524 27.13056912 -8.32619167 26.59386804 -6.9765625 24.13671875 C-6.20739359 21.44462757 -5.61663622 18.7312963 -5 16 C-4.14959564 13.11043159 -3.23042702 10.24372038 -2.3125 7.375 C-1.87026509 5.96640573 -1.42879409 4.55757127 -0.98828125 3.1484375 C-0.66214844 2.10945313 -0.33601563 1.07046875 0 0 Z " fill="#718EA7" transform="translate(66,32)"/>
<path d="M0 0 C0 14.19 0 28.38 0 43 C-3.80397874 37.92802835 -4.0769319 35.76264635 -3.9375 29.6875 C-3.60113268 16.74749093 -3.60113268 16.74749093 -8 5 C-10.55183404 3.79549696 -10.55183404 3.79549696 -13 3 C-8.37004973 0.5196695 -5.34042024 0 0 0 Z " fill="#EB740F" transform="translate(128,4)"/>
<path d="M0 0 C0.66 0 1.32 0 2 0 C2.66 2.64 3.32 5.28 4 8 C7.3 8 10.6 8 14 8 C14 8.66 14 9.32 14 10 C13.36578125 10.20367187 12.7315625 10.40734375 12.078125 10.6171875 C9.70935435 11.87221871 9.70935435 11.87221871 9.171875 14.8203125 C9.03265625 15.91085938 8.8934375 17.00140625 8.75 18.125 C8.60046875 19.22070312 8.4509375 20.31640625 8.296875 21.4453125 C8.14992188 22.70988281 8.14992188 22.70988281 8 24 C9.32 24.66 10.64 25.32 12 26 C12 26.33 12 26.66 12 27 C10.35 27.33 8.7 27.66 7 28 C6.34 30.31 5.68 32.62 5 35 C4.34 35 3.68 35 3 35 C1.8210546 28.31017029 1.96638928 21.80412507 2.12695312 15.03125 C2.13791016 14.17015625 2.14886719 13.3090625 2.16015625 12.421875 C2.17699463 11.64424805 2.19383301 10.86662109 2.21118164 10.06542969 C2.13082111 7.69010831 2.13082111 7.69010831 0 5 C-0.125 2.3125 -0.125 2.3125 0 0 Z " fill="#D46405" transform="translate(7,63)"/>
<path d="M0 0 C1.12704346 0.01885254 1.12704346 0.01885254 2.27685547 0.03808594 C4.56096519 0.08534005 6.84209329 0.16287566 9.125 0.25 C9.82326904 0.26401855 10.52153809 0.27803711 11.2409668 0.29248047 C16.20895859 0.53423482 19.15433355 1.89073776 23 5 C24.63658853 8.27317706 23.94572013 11.80459036 23.75 15.375 C23.70939453 16.52742188 23.70939453 16.52742188 23.66796875 17.703125 C23.62800781 18.44820312 23.58804688 19.19328125 23.546875 19.9609375 C23.49805176 20.97873291 23.49805176 20.97873291 23.44824219 22.01708984 C22.85289516 24.65075465 21.8205872 26.01381238 20 28 C17.95777893 28.49447632 17.95777893 28.49447632 15.59204102 28.48583984 C14.70424454 28.4919931 13.81644806 28.49814636 12.90174866 28.50448608 C11.94546066 28.49011505 10.98917267 28.47574402 10.00390625 28.4609375 C9.01881577 28.46002106 8.03372528 28.45910461 7.01878357 28.4581604 C4.93491806 28.45211701 2.85106154 28.436349 0.76733398 28.41162109 C-2.42171267 28.3751804 -5.6095953 28.37060124 -8.79882812 28.37109375 C-10.8229267 28.36126011 -12.84701741 28.34960203 -14.87109375 28.3359375 C-15.82535751 28.33371185 -16.77962128 28.33148621 -17.76280212 28.32919312 C-19.09922508 28.31005356 -19.09922508 28.31005356 -20.46264648 28.29052734 C-21.63488014 28.27909195 -21.63488014 28.27909195 -22.83079529 28.26742554 C-25.24940012 27.96925327 -26.89693352 27.20301827 -29 26 C-26.64378951 24.82189475 -25.39871283 24.92695668 -22.78149414 25.02587891 C-21.91041519 25.05565826 -21.03933624 25.08543762 -20.14186096 25.11611938 C-18.72779213 25.17078873 -18.72779213 25.17078873 -17.28515625 25.2265625 C-15.30014899 25.28965607 -13.31512218 25.35213717 -11.33007812 25.4140625 C-8.19150349 25.51737791 -5.05331232 25.62534781 -1.9152832 25.74414062 C1.10698238 25.85617309 4.12935321 25.94904938 7.15234375 26.0390625 C8.09303207 26.07955719 9.0337204 26.12005188 10.00291443 26.16177368 C10.87714554 26.18524872 11.75137665 26.20872375 12.65209961 26.23291016 C13.42106064 26.26035309 14.19002167 26.28779602 14.98228455 26.31607056 C17.56449777 25.9115727 18.41415931 25.03397283 20 23 C20.4994461 20.98207174 20.4994461 20.98207174 20.51171875 18.76953125 C20.54716797 17.96708984 20.58261719 17.16464844 20.61914062 16.33789062 C20.64169922 15.50451172 20.66425781 14.67113281 20.6875 13.8125 C20.72166016 12.96751953 20.75582031 12.12253906 20.79101562 11.25195312 C20.87341471 9.16843351 20.93838645 7.08423784 21 5 C5.50494567 0.15656497 -11.95610758 1.8806258 -28 2 C-28 1.67 -28 1.34 -28 1 C-18.65762833 0.0091424 -9.3833756 -0.19978195 0 0 Z " fill="#C8BBA4" transform="translate(78,67)"/>
<path d="M0 0 C8.94911502 0.58795851 17.84760543 0.66463171 26.8125 0.5625 C24.8125 3.5625 24.8125 3.5625 22.92816162 4.24290466 C19.40887371 4.7745341 15.878106 4.68338792 12.328125 4.66015625 C11.51253113 4.6587413 10.69693726 4.65732635 9.85662842 4.65586853 C7.25854788 4.65028303 4.66055437 4.63773321 2.0625 4.625 C0.29817833 4.61998312 -1.46614469 4.61542054 -3.23046875 4.61132812 C-7.54951256 4.60031835 -11.86849154 4.58306369 -16.1875 4.5625 C-10.87421443 -0.91950485 -7.43746235 -0.54954671 0 0 Z " fill="#D36405" transform="translate(27.1875,54.4375)"/>
<path d="M0 0 C4.14581887 -0.02886751 8.29161216 -0.04675327 12.4375 -0.0625 C13.62150391 -0.07087891 14.80550781 -0.07925781 16.02539062 -0.08789062 C17.15009766 -0.09111328 18.27480469 -0.09433594 19.43359375 -0.09765625 C20.47572021 -0.10289307 21.51784668 -0.10812988 22.59155273 -0.11352539 C25 0 25 0 26 1 C26.2776444 4.30438909 26.23174988 7.62282134 26.25 10.9375 C26.270625 11.87013672 26.29125 12.80277344 26.3125 13.76367188 C26.31765625 14.65505859 26.3228125 15.54644531 26.328125 16.46484375 C26.34214355 17.69642212 26.34214355 17.69642212 26.35644531 18.95288086 C26.18000488 19.96620483 26.18000488 19.96620483 26 21 C22.49714126 23.33523916 21.34370062 23.18495942 17.23828125 22.9765625 C16.12001953 22.925 15.00175781 22.8734375 13.84960938 22.8203125 C12.68236328 22.75585938 11.51511719 22.69140625 10.3125 22.625 C9.13365234 22.56828125 7.95480469 22.5115625 6.74023438 22.453125 C3.82621648 22.31155328 0.91304743 22.16013058 -2 22 C-2 23.98 -2 25.96 -2 28 C0.34938888 29.17469444 1.95073205 29.20034889 4.5703125 29.31640625 C5.46621094 29.35830078 6.36210937 29.40019531 7.28515625 29.44335938 C8.22230469 29.48267578 9.15945312 29.52199219 10.125 29.5625 C11.06988281 29.60568359 12.01476562 29.64886719 12.98828125 29.69335938 C15.32537092 29.79959072 17.6625683 29.90163176 20 30 C20 30.33 20 30.66 20 31 C16.5638936 31.25477428 13.12642199 31.47439003 9.6875 31.6875 C8.71103516 31.76033203 7.73457031 31.83316406 6.72851562 31.90820312 C5.32182617 31.99038086 5.32182617 31.99038086 3.88671875 32.07421875 C3.02264404 32.13182373 2.15856934 32.18942871 1.26831055 32.2487793 C-1 32 -1 32 -2.78588867 30.68286133 C-4.63989641 28.11304927 -4.32064805 26.07822125 -4 23 C-3.01 21.515 -3.01 21.515 -2 20 C0.52197266 19.65942383 0.52197266 19.65942383 3.6640625 19.70703125 C4.78554688 19.71669922 5.90703125 19.72636719 7.0625 19.73632812 C8.238125 19.76146484 9.41375 19.78660156 10.625 19.8125 C12.40003906 19.83280273 12.40003906 19.83280273 14.2109375 19.85351562 C17.14107539 19.88896084 20.07031459 19.93837231 23 20 C24.52491129 16.95017742 24.14361434 13.77877461 24.125 10.4375 C24.12886719 9.73947266 24.13273437 9.04144531 24.13671875 8.32226562 C24.43922515 4.87251102 24.43922515 4.87251102 23 2 C19.25843664 1.93940788 15.53002839 1.97968209 11.7890625 2.0390625 C7.71420553 2.07888195 3.97728095 2.03473976 0 1 C0 0.67 0 0.34 0 0 Z " fill="#C88134" transform="translate(16,70)"/>
<path d="M0 0 C0.66 0 1.32 0 2 0 C2 0.66 2 1.32 2 2 C3.26457031 1.84402344 4.52914062 1.68804687 5.83203125 1.52734375 C7.49214622 1.33038096 9.15230481 1.13378547 10.8125 0.9375 C12.06256836 0.7818457 12.06256836 0.7818457 13.33789062 0.62304688 C14.54155273 0.48286133 14.54155273 0.48286133 15.76953125 0.33984375 C16.50792236 0.25081787 17.24631348 0.16179199 18.00708008 0.07006836 C20 0 20 0 23 1 C22.25 3.9375 22.25 3.9375 21 7 C17.30742932 8.66527697 13.18119934 7.88576497 9.25 7.5625 C8.55261719 7.51029297 7.85523438 7.45808594 7.13671875 7.40429688 C5.42403797 7.27525928 3.71194934 7.13840386 2 7 C2 8.32 2 9.64 2 11 C1.34 11 0.68 11 0 11 C-0.19406478 9.35492782 -0.38007935 7.70890406 -0.5625 6.0625 C-0.66691406 5.14597656 -0.77132812 4.22945313 -0.87890625 3.28515625 C-0.91886719 2.53105469 -0.95882812 1.77695313 -1 1 C-0.67 0.67 -0.34 0.34 0 0 Z " fill="#F16703" transform="translate(51,71)"/>
<path d="M0 0 C5.24639565 1.79145217 7.58728689 8.80975745 9.984375 13.53125 C10.76559555 15.14333389 11.54161106 16.75795014 12.3125 18.375 C12.71082031 19.17808594 13.10914062 19.98117188 13.51953125 20.80859375 C15.96369848 25.92063164 17.17311328 30.21591301 17.5625 35.875 C15.50620067 32.79055101 14.27085868 29.86787051 12.875 26.4375 C8.41633057 14.21959532 8.41633057 14.21959532 -0.15234375 5.546875 C-0.90644531 5.32515625 -1.66054687 5.1034375 -2.4375 4.875 C-4.6827987 12.47907828 -6.27425515 20.03336122 -7.4375 27.875 C-7.7675 27.875 -8.0975 27.875 -8.4375 27.875 C-9.27743066 3.33035972 -9.27743066 3.33035972 0 0 Z " fill="#292F31" transform="translate(67.4375,20.125)"/>
<path d="M0 0 C-2.46667337 2.46667337 -4.34770663 2.79457605 -7.6875 3.75 C-13.43694989 5.57215459 -16.68157849 7.86933595 -21 12 C-21.66 12 -22.32 12 -23 12 C-23.66 13.32 -24.32 14.64 -25 16 C-25.66 16 -26.32 16 -27 16 C-27.23332031 16.54011719 -27.46664063 17.08023437 -27.70703125 17.63671875 C-29.0338282 20.06183099 -30.62430727 22.08461566 -32.37744141 24.21411133 C-38.40419351 31.56728801 -42.348742 39.25874327 -46 48 C-46.66 48 -47.32 48 -48 48 C-45.3922619 31.59176024 -27.82939554 12.81708814 -15 3 C-14.278125 2.4225 -13.55625 1.845 -12.8125 1.25 C-8.60473637 -0.62011717 -4.53661915 -0.23784217 0 0 Z " fill="#775121" transform="translate(48,0)"/>
<path d="M0 0 C0.61875 0.28875 1.2375 0.5775 1.875 0.875 C5.48412499 2.174285 9.00313452 2.70808792 12.79296875 3.2421875 C15 4 15 4 16.28125 5.7578125 C18.94574257 14.06987083 16.36808333 22.92314436 14 31 C13.67 31 13.34 31 13 31 C13.0928125 30.04480469 13.185625 29.08960937 13.28125 28.10546875 C13.77653281 19.23459987 13.01396642 14.35069273 7.23828125 7.171875 C4.9805337 4.98111124 2.68844389 3.60082473 0 2 C0 1.34 0 0.68 0 0 Z " fill="#B76010" transform="translate(96,59)"/>
<path d="M0 0 C5.61 0.33 11.22 0.66 17 1 C17.89840477 5.49202386 17.90338924 7.68380697 17 12 C16.34 11.67 15.68 11.34 15 11 C15 9.35 15 7.7 15 6 C11.58343976 5.83322718 11.58343976 5.83322718 8 6 C7.34 6.66 6.68 7.32 6 8 C6.33 8.99 6.66 9.98 7 11 C6.01 11.33 5.02 11.66 4 12 C3.525625 11.030625 3.05125 10.06125 2.5625 9.0625 C1.29806053 6.19522563 1.29806053 6.19522563 0 5 C0 3.35 0 1.7 0 0 Z " fill="#F36603" transform="translate(80,72)"/>
<path d="M0 0 C12.87 0 25.74 0 39 0 C39 0.99 39 1.98 39 3 C25.78964184 5.45774105 13.04980425 3.31506559 0 1 C0 0.67 0 0.34 0 0 Z " fill="#B76010" transform="translate(89,0)"/>
<path d="M0 0 C-0.33 0.66 -0.66 1.32 -1 2 C-3.484375 2.5625 -3.484375 2.5625 -6.75 3 C-7.92175781 3.16757812 -9.09351563 3.33515625 -10.30078125 3.5078125 C-12.71306472 3.82877102 -15.12712884 4.13669699 -17.54296875 4.4296875 C-24.96582577 5.40345701 -29.39281239 6.39281239 -34.75 11.75 C-35.1625 12.1625 -35.575 12.575 -36 13 C-36.66 13 -37.32 13 -38 13 C-38.268125 13.639375 -38.53625 14.27875 -38.8125 14.9375 C-40 17 -40 17 -43 18 C-43 16 -43 16 -41.42578125 14.4140625 C-40.72839844 13.82367188 -40.03101563 13.23328125 -39.3125 12.625 C-38.62800781 12.03976562 -37.94351563 11.45453125 -37.23828125 10.8515625 C-36.49964844 10.24054687 -35.76101562 9.62953125 -35 9 C-34.21625 8.32195313 -33.4325 7.64390625 -32.625 6.9453125 C-22.77773035 -0.35221768 -11.68160332 -0.6826911 0 0 Z " fill="#B8600F" transform="translate(64,0)"/>
<path d="M0 0 C3 1 3 1 4.2109375 3.328125 C4.78714844 4.77445312 4.78714844 4.77445312 5.375 6.25 C9.02385566 14.56724453 13.68435402 17.61926603 21.671875 21.5703125 C24 23 24 23 25 26 C17.56894185 25.07111773 10.7835388 19.46009782 6.0625 13.8125 C5.381875 12.884375 4.70125 11.95625 4 11 C3.236875 10.175 2.47375 9.35 1.6875 8.5 C-0.37119388 5.45008314 -0.3354927 3.60654656 0 0 Z " fill="#C38D50" transform="translate(0,102)"/>
<path d="M0 0 C1.33333333 0.66666667 2.66666667 1.33333333 4 2 C4.639375 2.26039062 5.27875 2.52078125 5.9375 2.7890625 C8.5309796 4.31174938 9.63047086 5.98073244 11.25 8.5 C11.77078125 9.2940625 12.2915625 10.088125 12.828125 10.90625 C14 13 14 13 14 15 C8.46833083 13.04764618 2.90001842 10.31670044 0 5 C-0.1875 2.25 -0.1875 2.25 0 0 Z " fill="#DB6603" transform="translate(6,108)"/>
<path d="M0 0 C1.32 0.66 2.64 1.32 4 2 C3.67 4.97 3.34 7.94 3 11 C4.32 11.66 5.64 12.32 7 13 C7 13.33 7 13.66 7 14 C5.35 14.33 3.7 14.66 2 15 C1.34 16.98 0.68 18.96 0 21 C-0.33 21 -0.66 21 -1 21 C-1.02888146 17.68751813 -1.04675799 14.37506833 -1.0625 11.0625 C-1.07087891 10.11697266 -1.07925781 9.17144531 -1.08789062 8.19726562 C-1.09111328 7.29814453 -1.09433594 6.39902344 -1.09765625 5.47265625 C-1.10289307 4.64000244 -1.10812988 3.80734863 -1.11352539 2.94946289 C-1 1 -1 1 0 0 Z " fill="#B76010" transform="translate(12,76)"/>
<path d="M0 0 C2.05193511 1.66709197 2.92953415 2.50960394 3.31225586 5.1730957 C3.20657574 7.88820072 3.09403966 10.59975972 2.9375 13.3125 C2.90978516 14.25029297 2.88207031 15.18808594 2.85351562 16.15429688 C2.56132324 21.99402914 1.76348787 25.47927111 -2 30 C-2.99 29.67 -3.98 29.34 -5 29 C-4.52949219 28.45214844 -4.05898437 27.90429688 -3.57421875 27.33984375 C1.42275952 19.91257332 0.24872953 8.56735032 0 0 Z " fill="#C38C4E" transform="translate(107,72)"/>
<path d="M0 0 C2.78444954 2.70255396 5.33413827 5.40080229 7.75 8.4375 C10.74150789 12.0148123 14.18638029 14.31830621 18.14453125 16.73828125 C20 18 20 18 21 20 C19.68 20 18.36 20 17 20 C17 19.34 17 18.68 17 18 C15.9790625 17.690625 15.9790625 17.690625 14.9375 17.375 C11.00129977 15.5325233 8.17748922 12.92415864 5 10 C4.030625 9.154375 3.06125 8.30875 2.0625 7.4375 C0 5 0 5 -0.3125 2.1875 C-0.209375 1.465625 -0.10625 0.74375 0 0 Z " fill="#C9C1B0" transform="translate(0,108)"/>
<path d="M0 0 C2.06298828 -0.2487793 2.06298828 -0.2487793 4.5703125 -0.07421875 C5.46621094 -0.01943359 6.36210937 0.03535156 7.28515625 0.09179688 C8.22230469 0.16462891 9.15945312 0.23746094 10.125 0.3125 C11.06988281 0.37373047 12.01476563 0.43496094 12.98828125 0.49804688 C15.32681186 0.65158676 17.66342389 0.81946076 20 1 C20 1.33 20 1.66 20 2 C13.4 2 6.8 2 0 2 C0 3.98 0 5.96 0 8 C2.34938888 9.17469444 3.95073205 9.20034889 6.5703125 9.31640625 C7.91416016 9.37924805 7.91416016 9.37924805 9.28515625 9.44335938 C10.22230469 9.48267578 11.15945312 9.52199219 12.125 9.5625 C13.54232422 9.62727539 13.54232422 9.62727539 14.98828125 9.69335938 C17.32537092 9.79959072 19.6625683 9.90163176 22 10 C22 10.33 22 10.66 22 11 C18.5638936 11.25477428 15.12642199 11.47439003 11.6875 11.6875 C10.22280273 11.79674805 10.22280273 11.79674805 8.72851562 11.90820312 C7.79072266 11.96298828 6.85292969 12.01777344 5.88671875 12.07421875 C5.02264404 12.13182373 4.15856934 12.18942871 3.26831055 12.2487793 C1 12 1 12 -0.78588867 10.68286133 C-2.63989641 8.11304927 -2.32064805 6.07822125 -2 3 C-1.34 2.01 -0.68 1.02 0 0 Z " fill="#C58845" transform="translate(14,90)"/>
<path d="M0 0 C0.33 0 0.66 0 1 0 C1.09765625 6.15234375 1.09765625 6.15234375 1 8 C0 9 0 9 -2.625 9.1328125 C-9.16975718 9.1176626 -15.51329994 8.87955255 -22 8 C-21.67 7.34 -21.34 6.68 -21 6 C-19.79601562 6.08378906 -18.59203125 6.16757813 -17.3515625 6.25390625 C-15.77606084 6.3570641 -14.20053891 6.45991266 -12.625 6.5625 C-11.8309375 6.61857422 -11.036875 6.67464844 -10.21875 6.73242188 C-5.98409115 7.15352804 -5.98409115 7.15352804 -2 6 C-1.27306096 4.02111039 -0.60183749 2.02045442 0 0 Z " fill="#C78339" transform="translate(97,84)"/>
<path d="M0 0 C1.32 0.33 2.64 0.66 4 1 C3.67 5.95 3.34 10.9 3 16 C2.01 16.33 1.02 16.66 0 17 C0 11.39 0 5.78 0 0 Z " fill="#D5DADB" transform="translate(44,69)"/>
<path d="M0 0 C2.912575 0.08566397 4.56798024 0.57910955 6.66796875 2.625 C8.16091772 4.38391375 9.60436262 6.16313019 11 8 C10.67 8.66 10.34 9.32 10 10 C8.7010161 9.09373216 7.41106833 8.17450463 6.125 7.25 C5.40570312 6.73953125 4.68640625 6.2290625 3.9453125 5.703125 C1.91429435 3.92496453 1.02144988 2.47298393 0 0 Z " fill="#B76010" transform="translate(6,112)"/>
<path d="M0 0 C3 0 3 0 4.4375 1.375 C4.953125 1.91125 5.46875 2.4475 6 3 C8.09989652 4.17574711 8.09989652 4.17574711 10 5 C8 7 8 7 4.875 7.125 C3.92625 7.08375 2.9775 7.0425 2 7 C1.34 4.69 0.68 2.38 0 0 Z " fill="#EB740F" transform="translate(12,107)"/>
<path d="M0 0 C0.66 0.165 1.32 0.33 2 0.5 C5.73099794 1.12183299 9.21873378 1.06408926 13 1 C12.67 1.99 12.34 2.98 12 4 C7.71 4 3.42 4 -1 4 C-0.67 2.68 -0.34 1.36 0 0 Z " fill="#F56703" transform="translate(19,73)"/>
<path d="M0 0 C1.98 0.495 1.98 0.495 4 1 C3.67 4.3 3.34 7.6 3 11 C2.34 11 1.68 11 1 11 C0.63890458 9.35567294 0.28629924 7.7094792 -0.0625 6.0625 C-0.25972656 5.14597656 -0.45695312 4.22945313 -0.66015625 3.28515625 C-0.82837891 2.15400391 -0.82837891 2.15400391 -1 1 C-0.67 0.67 -0.34 0.34 0 0 Z " fill="#F56703" transform="translate(35,73)"/>
<path d="M0 0 C3 2 3 2 3.6875 4 C4.13911843 8.33553694 4.07609968 12.64540722 4 17 C1.63699651 14.63699651 1.48566556 13.4201502 0.875 10.1875 C0.70742187 9.33542969 0.53984375 8.48335937 0.3671875 7.60546875 C0.004448 5.03156189 -0.06523407 2.59538412 0 0 Z " fill="#C8BCA7" transform="translate(104,68)"/>
<path d="M0 0 C2.3125 0.1875 2.3125 0.1875 5 1 C7.68448204 4.33246046 8.36325349 6.76204266 8 11 C5.0843836 7.45960866 2.49872182 3.8373228 0 0 Z " fill="#775121" transform="translate(102,64)"/>
<path d="M0 0 C1.60294922 0.01353516 1.60294922 0.01353516 3.23828125 0.02734375 C4.04652344 0.03894531 4.85476562 0.05054687 5.6875 0.0625 C5.6875 0.3925 5.6875 0.7225 5.6875 1.0625 C2.70898438 1.35546875 2.70898438 1.35546875 -0.26953125 1.6484375 C-2.61238142 1.98915391 -2.61238142 1.98915391 -5.3125 4.0625 C-7.9375 3.8125 -7.9375 3.8125 -10.3125 3.0625 C-10.6425 2.4025 -10.9725 1.7425 -11.3125 1.0625 C-7.47525828 0.15836327 -3.93747726 -0.04326898 0 0 Z " fill="#CA6308" transform="translate(26.3125,101.9375)"/>
<path d="M0 0 C3.70344028 1.23448009 5.30250982 3.23334341 8 6 C8.66 6.33 9.32 6.66 10 7 C10 7.66 10 8.32 10 9 C10.66 9 11.32 9 12 9 C11.67 9.66 11.34 10.32 11 11 C8.525 10.01 8.525 10.01 6 9 C6 8.34 6 7.68 6 7 C5.34 7 4.68 7 4 7 C2.02 3.535 2.02 3.535 0 0 Z " fill="#A35B15" transform="translate(86,52)"/>
<path d="M0 0 C1.1615882 3.48476459 0.77669581 4.67248371 -0.25 8.125 C-0.50265625 9.01445313 -0.7553125 9.90390625 -1.015625 10.8203125 C-1.50289063 11.89925781 -1.50289063 11.89925781 -2 13 C-2.99 13.33 -3.98 13.66 -5 14 C-5 12.35 -5 10.7 -5 9 C-4.34 9 -3.68 9 -3 9 C-2.01 6.03 -1.02 3.06 0 0 Z " fill="#B76010" transform="translate(5,39)"/>
<path d="M0 0 C0.66 0.33 1.32 0.66 2 1 C2 3.64 2 6.28 2 9 C2.99 9 3.98 9 5 9 C5 9.66 5 10.32 5 11 C2.5625 10.625 2.5625 10.625 0 10 C-1.36952673 7.26094655 -1.12621361 5.02912668 -1 2 C-0.67 1.34 -0.34 0.68 0 0 Z " fill="#C48B4B" transform="translate(11,61)"/>
<path d="M0 0 C2.39763185 2.39763185 2.34280586 3.33273498 2.625 6.625 C2.69976563 7.44226563 2.77453125 8.25953125 2.8515625 9.1015625 C2.90054687 9.72804688 2.94953125 10.35453125 3 11 C1 8 1 8 0 5.875 C-0.85860158 3.82955462 -0.85860158 3.82955462 -3 3 C-3 2.34 -3 1.68 -3 1 C-2.01 0.67 -1.02 0.34 0 0 Z " fill="#EB740F" transform="translate(3,99)"/>
<path d="M0 0 C0.99 0.33 1.98 0.66 3 1 C2.67 4.3 2.34 7.6 2 11 C1.34 10.67 0.68 10.34 0 10 C0 6.7 0 3.4 0 0 Z " fill="#D36405" transform="translate(95,73)"/>
<path d="M0 0 C0.66 0 1.32 0 2 0 C2.66 2.31 3.32 4.62 4 7 C2.68 7.33 1.36 7.66 0 8 C0 5.36 0 2.72 0 0 Z " fill="#DB6603" transform="translate(0,92)"/>
<path d="M0 0 C0.33 0 0.66 0 1 0 C1.28571429 7.42857143 1.28571429 7.42857143 -1 11 C-1.99 11 -2.98 11 -4 11 C-3.67 9.68 -3.34 8.36 -3 7 C-2.34 7 -1.68 7 -1 7 C-0.67 4.69 -0.34 2.38 0 0 Z " fill="#DB6603" transform="translate(4,45)"/>
<path d="M0 0 C3.375 0.25 3.375 0.25 7 1 C8.4375 3.0625 8.4375 3.0625 9 5 C7.35 4.67 5.7 4.34 4 4 C4 3.34 4 2.68 4 2 C2.68 1.34 1.36 0.68 0 0 Z " fill="#EB740F" transform="translate(20,123)"/>
<path d="M0 0 C1.65 0.33 3.3 0.66 5 1 C5.33 1.99 5.66 2.98 6 4 C4.02 4 2.04 4 0 4 C0 2.68 0 1.36 0 0 Z " fill="#DB6603" transform="translate(117,9)"/>
<path d="M0 0 C5.49152542 0.61016949 5.49152542 0.61016949 7.875 2.4375 C9 4 9 4 9 6 C5.88802644 4.50164236 2.91164984 2.86022073 0 1 C0 0.67 0 0.34 0 0 Z " fill="#9F917D" transform="translate(95,62)"/>
<path d="M0 0 C0.66 0.33 1.32 0.66 2 1 C2 2.98 2 4.96 2 7 C1.01 6.67 0.02 6.34 -1 6 C-1.042721 4.33388095 -1.04063832 2.66617115 -1 1 C-0.67 0.67 -0.34 0.34 0 0 Z " fill="#C88134" transform="translate(77,78)"/>
<path d="M0 0 C3 1 3 1 4.25 2.875 C5 5 5 5 4 8 C0 3.375 0 3.375 0 0 Z " fill="#C88134" transform="translate(0,102)"/>
</svg>
