<?xml version="1.0" encoding="UTF-8"?>
<svg version="1.1" xmlns="http://www.w3.org/2000/svg" width="128" height="128">
<path d="M0 0 C42.24 0 84.48 0 128 0 C128 42.24 128 84.48 128 128 C85.76 128 43.52 128 0 128 C0 85.76 0 43.52 0 0 Z " fill="#C1BAB7" transform="translate(0,0)"/>
<path d="M0 0 C2.4375 0.625 2.4375 0.625 5 2 C6.12611814 6.52996958 6.16140959 11.09050176 6.2109375 15.734375 C6.23896887 17.20964722 6.26763298 18.68490753 6.296875 20.16015625 C6.33833536 22.46663541 6.37525899 24.77288254 6.40136719 27.07958984 C6.42885794 29.31913837 6.47467487 31.55770249 6.5234375 33.796875 C6.52669037 34.48956482 6.52994324 35.18225464 6.53329468 35.89593506 C6.55490744 38.04894437 6.55490744 38.04894437 7 41 C7.99 41.66 8.98 42.32 10 43 C10 37.39 10 31.78 10 26 C11.32 26 12.64 26 14 26 C14.33 31.28 14.66 36.56 15 42 C16.32 42 17.64 42 19 42 C18.49656013 34.97326485 17.95812032 27.98059091 17 21 C14.69 21.33 12.38 21.66 10 22 C10 20.68 10 19.36 10 18 C12.64 18 15.28 18 18 18 C17.94779297 17.03900391 17.94779297 17.03900391 17.89453125 16.05859375 C17.71012429 10.16635234 18.2695542 6.23335445 21 1 C22.32 1 23.64 1 25 1 C27.54262326 4.77042993 27.00435127 8.31385306 26.5625 12.625 C25.86323748 17.43849482 25.86323748 17.43849482 27 22 C27.90492187 22.27457031 28.80984375 22.54914063 29.7421875 22.83203125 C34.45795446 24.5226959 37.14471641 27.70568949 40.6328125 31.19921875 C42.79670217 33.21181907 42.79670217 33.21181907 45.203125 33.046875 C47.15570006 32.12763363 47.15570006 32.12763363 47.9765625 30.06640625 C48.19054687 29.24011719 48.40453125 28.41382812 48.625 27.5625 C48.86605469 26.66660156 49.10710937 25.77070312 49.35546875 24.84765625 C50.1660298 21.26645014 50.77666083 17.66839486 51.27734375 14.03125 C52 12 52 12 56 10 C56.495 14.455 56.495 14.455 57 19 C57.763125 18.9175 58.52625 18.835 59.3125 18.75 C62 19 62 19 63.8125 20.875 C65 23 65 23 65 25 C68.43230448 24.73606499 68.43230448 24.73606499 72 24 C74.47275608 20.29086588 74.35785843 17.72642364 74.55859375 13.375 C75.0731108 10.6066251 75.75776767 9.65969158 78 8 C80.0625 8.125 80.0625 8.125 82 9 C84 12 84 12 85 15.125 C85.6686673 18.12511062 85.6686673 18.12511062 88 19 C88 19.66 88 20.32 88 21 C92.62 21 97.24 21 102 21 C101.95875 19.47375 101.9175 17.9475 101.875 16.375 C101.86312689 12.19566663 102.35984208 8.89537505 104 5 C106.97 4.505 106.97 4.505 110 4 C110 29.41 110 54.82 110 81 C67.76 81 25.52 81 -18 81 C-18 69.45 -18 57.9 -18 46 C-15 49 -15 49 -13.875 51.1875 C-11.50924605 53.47439549 -10.53077682 53.25503643 -7.3125 53.25 C-5.8740202 53.18576167 -4.43583001 53.10836453 -3 53 C-0.77326184 46.75105101 -0.73303407 40.96648949 -0.8125 34.375 C-0.81314453 33.35148437 -0.81378906 32.32796875 -0.81445312 31.2734375 C-0.81481905 25.74893423 -0.81481905 25.74893423 -1.57299805 20.29541016 C-2 18 -2 18 -1 16 C-0.95406453 13.47067838 -0.95306269 10.96507389 -1 8.4375 C-1.0459067 5.95165223 -1.04698655 3.48735051 -1 1 C-0.67 0.67 -0.34 0.34 0 0 Z " fill="#FCFCFC" transform="translate(18,47)"/>
<path d="M0 0 C42.24 0 84.48 0 128 0 C128 7.26 128 14.52 128 22 C126.35 21.67 124.7 21.34 123 21 C122.01 17.535 122.01 17.535 121 14 C119.19747131 13.29805007 119.19747131 13.29805007 117 13 C116.34 13.350625 115.68 13.70125 115 14.0625 C114.01 14.5265625 114.01 14.5265625 113 15 C111.65812182 14.3507041 110.32520503 13.68268138 109 13 C107.32298367 13.27659556 105.65315995 13.60509359 104 14 C101.71387222 21.15775723 100.55967929 27.48193151 101 35 C100.01 35 99.02 35 98 35 C96.57485018 30.44620096 96.97499538 25.91118644 97.0625 21.19140625 C97.0876945 17.67199823 97.0876945 17.67199823 96 13 C92.7 13.99 89.4 14.98 86 16 C85.01 15.01 85.01 15.01 84 14 C81.39719432 14.32041397 81.39719432 14.32041397 79 15 C78.71125 16.010625 78.4225 17.02125 78.125 18.0625 C77.08333333 21.70833333 76.04166667 25.35416667 75 29 C72.22957891 26.22957891 72.60203894 24.23466195 72.375 20.375 C72.26285156 18.59222656 72.26285156 18.59222656 72.1484375 16.7734375 C72.09945312 15.85820312 72.05046875 14.94296875 72 14 C68.18186553 14.27540704 68.18186553 14.27540704 65 16 C64.76196012 18.24521564 64.58473916 20.49700713 64.4375 22.75 C64.31181641 24.59851562 64.31181641 24.59851562 64.18359375 26.484375 C64.03478522 29.33390009 63.96190221 32.1481082 64 35 C62.35 34.67 60.7 34.34 59 34 C58.93941406 33.32453125 58.87882812 32.6490625 58.81640625 31.953125 C58.73261719 31.06109375 58.64882813 30.1690625 58.5625 29.25 C58.48128906 28.36828125 58.40007813 27.4865625 58.31640625 26.578125 C58.03761535 24.30649548 57.61209423 22.20148177 57 20 C56.01 20.33 55.02 20.66 54 21 C53.13852726 27.97761838 53.13852726 27.97761838 53 35 C51.35 35.66 49.7 36.32 48 37 C46.4375 35.75 46.4375 35.75 45 34 C45.25 32.125 45.25 32.125 46 30 C46.34060811 28.33480481 46.67558396 26.66842534 47 25 C42.0477321 21.48548729 36.74527671 20.64954984 30.8828125 19.6328125 C27.66602343 18.55165103 26.08867684 15.57067919 24 13 C23.01 12.67 22.02 12.34 21 12 C21.12375 13.5778125 21.12375 13.5778125 21.25 15.1875 C20.95919394 19.62229238 19.88272579 20.76785291 17 24 C16.22166466 26.18214568 16.22166466 26.18214568 16 28 C20.1205746 29.99785435 23.45194365 30.17835515 28 30 C28 29.34 28 28.68 28 28 C28.99 28 29.98 28 31 28 C31.18433594 28.60328125 31.36867188 29.2065625 31.55859375 29.828125 C33.39264254 34.90689582 33.39264254 34.90689582 37.26953125 38.48828125 C39.49123381 39.4504359 41.68534217 40.29274344 44 41 C41.39859561 44.90210659 39.41986224 44.78072766 35 46 C33.63634717 46.95824253 32.29205831 47.94721175 31 49 C30.34 49 29.68 49 29 49 C28.731875 48.38125 28.46375 47.7625 28.1875 47.125 C27.04443152 44.7004767 27.04443152 44.7004767 24 43 C23.67 42.01 23.34 41.02 23 40 C21.96939453 39.90912109 21.96939453 39.90912109 20.91796875 39.81640625 C20.01691406 39.73261719 19.11585937 39.64882813 18.1875 39.5625 C17.29417969 39.48128906 16.40085937 39.40007813 15.48046875 39.31640625 C13 39 13 39 10 38 C8.83203125 36.15234375 8.83203125 36.15234375 7.8125 33.9375 C7.46832031 33.20402344 7.12414062 32.47054687 6.76953125 31.71484375 C6.51558594 31.14894531 6.26164063 30.58304688 6 30 C4.47469129 32.76408891 3.69493739 35.01710996 3.3671875 38.15234375 C3.28339844 38.92900391 3.19960938 39.70566406 3.11328125 40.50585938 C2.99533203 41.70952148 2.99533203 41.70952148 2.875 42.9375 C2.78863281 43.73607422 2.70226562 44.53464844 2.61328125 45.35742188 C1.48964294 52.73903161 1.48964294 52.73903161 3.5625 59.5625 C5 62 5 62 4.9375 64.1875 C4 66 4 66 0 68 C0 45.56 0 23.12 0 0 Z " fill="#FCFCFC" transform="translate(0,0)"/>
<path d="M0 0 C2.6855594 2.6855594 3.06049974 5.37621328 4 9 C4.59167969 8.97679687 5.18335938 8.95359375 5.79296875 8.9296875 C14.19016122 8.73790823 14.19016122 8.73790823 18 11 C18.33 11.99 18.66 12.98 19 14 C19.680625 14.680625 20.36125 15.36125 21.0625 16.0625 C21.701875 16.701875 22.34125 17.34125 23 18 C23 18.66 23 19.32 23 20 C26.3 19.01 29.6 18.02 33 17 C32.34 18.32 31.68 19.64 31 21 C30.86041143 23.62426505 30.81068631 26.13292747 30.875 28.75 C30.88402344 29.44738281 30.89304688 30.14476563 30.90234375 30.86328125 C30.92580112 32.57566958 30.96166896 34.28788004 31 36 C27.52176885 37.15941038 25.54104422 36.70820884 22 36 C22 37.32 22 38.64 22 40 C24.31 39.34 26.62 38.68 29 38 C30.96458862 39.96458862 30.7181502 43.49647006 31.0625 46.1875 C31.15337891 46.84814453 31.24425781 47.50878906 31.33789062 48.18945312 C31.85836141 52.15364041 32.09322295 56.00384268 32 60 C30.34385343 60.38218767 28.67542976 60.71395102 27 61 C24.94077598 58.94077598 25.58572421 54.78291876 25.4375 51.9375 C25.39431641 51.17888672 25.35113281 50.42027344 25.30664062 49.63867188 C25.20026367 47.75934562 25.09960066 45.87969756 25 44 C24.34 44 23.68 44 23 44 C22.67 49.61 22.34 55.22 22 61 C20.68 60.34 19.36 59.68 18 59 C17.97494385 58.03175293 17.9498877 57.06350586 17.92407227 56.06591797 C17.82949294 52.45398015 17.72939817 48.84221215 17.62768555 45.23046875 C17.58452692 43.67093901 17.54283944 42.11136781 17.50268555 40.55175781 C17.44451787 38.30260758 17.38096077 36.05366241 17.31640625 33.8046875 C17.29969376 33.1138205 17.28298126 32.42295349 17.26576233 31.71115112 C17.14538407 27.72636037 16.74845781 23.91541988 16 20 C14.68 19.67 13.36 19.34 12 19 C12.01160156 20.02480469 12.02320312 21.04960938 12.03515625 22.10546875 C12.04454022 23.466144 12.05363977 24.82682124 12.0625 26.1875 C12.07087891 26.86103516 12.07925781 27.53457031 12.08789062 28.22851562 C12.10615867 31.97346575 11.74194899 35.34372883 11 39 C11.33 39.66 11.66 40.32 12 41 C12.24286211 44.72374963 12.18520696 48.45672048 12.1875 52.1875 C12.19974609 53.21681641 12.21199219 54.24613281 12.22460938 55.30664062 C12.23541709 60.93025315 11.9680295 65.71046345 10 71 C8.43081508 72.56918492 6.85914841 72.28258943 4.6875 72.375 C1.00479837 72.34577221 0.35019342 72.33223479 -2.4375 69.6875 C-3.2109375 68.3571875 -3.2109375 68.3571875 -4 67 C-4.66 66.01 -5.32 65.02 -6 64 C-6.46609217 59.84825461 -6.37033509 55.67509374 -6.375 51.5 C-6.39949219 50.34628906 -6.42398437 49.19257812 -6.44921875 48.00390625 C-6.45308594 46.89917969 -6.45695313 45.79445312 -6.4609375 44.65625 C-6.46915527 43.64369141 -6.47737305 42.63113281 -6.48583984 41.58789062 C-6 39 -6 39 -3.97119141 37.14648438 C-2.99545166 36.57897461 -2.99545166 36.57897461 -2 36 C-2.54723683 32.62537285 -3.0549 30.91765 -5 28 C-5.01171875 25.46875 -5.01171875 25.46875 -4.6875 22.5 C-4.51927734 20.90478516 -4.51927734 20.90478516 -4.34765625 19.27734375 C-4.23292969 18.19582031 -4.11820312 17.11429688 -4 16 C-3.93683594 14.99066406 -3.87367187 13.98132813 -3.80859375 12.94140625 C-3.24415015 4.09045019 -3.24415015 4.09045019 0 0 Z " fill="#787677" transform="translate(6,29)"/>
<path d="M0 0 C1.32 0.33 2.64 0.66 4 1 C4.05607422 2.2684375 4.05607422 2.2684375 4.11328125 3.5625 C4.5022694 10.2744524 5.02253815 15.93055853 8 22 C8.99 22.66 9.98 23.32 11 24 C11 25.32 11 26.64 11 28 C9.02 28.66 7.04 29.32 5 30 C4.34 34.95 3.68 39.9 3 45 C0.17283905 45.94238698 -1.63176123 46.13465647 -4.5625 46.125 C-5.74005859 46.12886719 -5.74005859 46.12886719 -6.94140625 46.1328125 C-9 46 -9 46 -11 45 C-11 44.34 -11 43.68 -11 43 C-11.928125 42.7215625 -11.928125 42.7215625 -12.875 42.4375 C-16.05602866 40.28562767 -16.19451947 37.62466237 -17 34 C-19.07553648 33.4465236 -20.84365964 33 -23 33 C-23.05607422 34.22976562 -23.05607422 34.22976562 -23.11328125 35.484375 C-23.17902344 36.56203125 -23.24476562 37.6396875 -23.3125 38.75 C-23.39951172 40.35101563 -23.39951172 40.35101563 -23.48828125 41.984375 C-24.03948993 45.23271925 -24.66190431 46.70550516 -27 49 C-30.5 49.5625 -30.5 49.5625 -34 49 C-35.625 46.5625 -35.625 46.5625 -37 44 C-39.56282742 43.27034634 -39.56282742 43.27034634 -42 43 C-43.4783226 40.04335481 -43.06032783 37.25770263 -43 34 C-47.27241216 37.36189809 -47.8390182 40.86109923 -48.5 46 C-49.1609818 51.13890077 -49.72758784 54.63810191 -54 58 C-55.875 57.375 -55.875 57.375 -58 56 C-58.33 54.989375 -58.66 53.97875 -59 52.9375 C-59.33 51.968125 -59.66 50.99875 -60 50 C-61.97080157 49.25723969 -61.97080157 49.25723969 -64 49 C-64.66 48.01 -65.32 47.02 -66 46 C-69.05429073 44.78715124 -69.05429073 44.78715124 -72 44 C-71 39 -71 39 -70.375 36.5625 C-69.77004804 32.42866163 -70.10544399 29.20421002 -72.625 25.8125 C-73.07875 25.214375 -73.5325 24.61625 -74 24 C-73.67 23.01 -73.34 22.02 -73 21 C-70.87465341 21.14069196 -68.74972471 21.28770921 -66.625 21.4375 C-65.44164062 21.51871094 -64.25828125 21.59992187 -63.0390625 21.68359375 C-60 22 -60 22 -58 23 C-58.31160461 25.20845985 -58.62432346 27.41676251 -58.9375 29.625 C-59.11152344 30.85476562 -59.28554688 32.08453125 -59.46484375 33.3515625 C-59.80598577 35.67730442 -60.17902069 37.998747 -60.59375 40.3125 C-60.99236315 42.94947928 -60.86291851 44.50712432 -60 47 C-58.68 47.33 -57.36 47.66 -56 48 C-55.70996094 46.44539063 -55.70996094 46.44539063 -55.4140625 44.859375 C-55.15135133 43.48952391 -54.88831329 42.11973548 -54.625 40.75 C-54.43550781 39.72712891 -54.43550781 39.72712891 -54.2421875 38.68359375 C-53.55264041 35.13242622 -52.65527185 32.19638701 -51 29 C-50.9222654 26.66796188 -50.91032272 24.33160941 -51 22 C-48.07013861 20.53506931 -45.2555884 20.60849507 -42 20.375 C-40.741875 20.27960937 -39.48375 20.18421875 -38.1875 20.0859375 C-35 20 -35 20 -33 21 C-32.875 27.625 -32.875 27.625 -34 31 C-34.06665376 32.39439664 -34.08538199 33.79169875 -34.0625 35.1875 C-34.041875 36.445625 -34.02125 37.70375 -34 39 C-29.90434062 36.95217031 -28.56350579 31.09316465 -27 27 C-26.13687626 23.68770788 -25.49215245 20.38630266 -25 17 C-23.68 16.67 -22.36 16.34 -21 16 C-20.34 16.99 -19.68 17.98 -19 19 C-15.27698497 19.47730962 -14.20808915 19.1387261 -11 17 C-11 23.6 -11 30.2 -11 37 C-10.34 37 -9.68 37 -9 37 C-9 37.99 -9 38.98 -9 40 C-7.68 39.67 -6.36 39.34 -5 39 C-3.83446926 35.19174572 -3.6821864 31.34017456 -3.46484375 27.390625 C-3.42186661 26.66381531 -3.37888947 25.93700562 -3.33460999 25.18817139 C-3.1986838 22.87563878 -3.06802109 20.56284334 -2.9375 18.25 C-2.8460506 16.67836516 -2.75425762 15.10675027 -2.66210938 13.53515625 C-2.4374245 9.69032398 -2.21745843 5.84524749 -2 2 C-1.34 2 -0.68 2 0 2 C0 1.34 0 0.68 0 0 Z " fill="#7D7B7B" transform="translate(117,23)"/>
<path d="M0 0 C1.84904262 0.50848672 3.68072387 1.08107462 5.5 1.6875 C6.49 1.0275 7.48 0.3675 8.5 -0.3125 C10.5625 -0.125 10.5625 -0.125 12.5 0.6875 C14.4451 3.60515 14.95276317 5.31287285 15.5 8.6875 C16.82 9.0175 18.14 9.3475 19.5 9.6875 C19.5 17.9375 19.5 26.1875 19.5 34.6875 C14.5 31.6875 14.5 31.6875 13.25 28.8125 C11.97056286 23.22401515 11.82608199 17.39393475 11.5 11.6875 C10.51 11.3575 9.52 11.0275 8.5 10.6875 C8.5 11.3475 8.5 12.0075 8.5 12.6875 C7.84 12.6875 7.18 12.6875 6.5 12.6875 C6.5 16.6475 6.5 20.6075 6.5 24.6875 C4.80875 24.501875 3.1175 24.31625 1.375 24.125 C-2.83437511 23.72410713 -6.33327528 23.93962633 -10.5 24.6875 C-13.16363908 22.02386092 -12.8201312 20.45979395 -13 16.75 C-13.21104199 11.91247103 -13.21104199 11.91247103 -15.5 7.6875 C-17.5085299 11.83009293 -17.66617399 15.11771527 -17.5 19.6875 C-17.5 21.0075 -17.5 22.3275 -17.5 23.6875 C-20.375 23.875 -20.375 23.875 -23.5 23.6875 C-25.95391569 20.00662647 -25.72802759 17.24394412 -25.625 13 C-25.61597656 12.29810547 -25.60695313 11.59621094 -25.59765625 10.87304688 C-25.57413704 9.14438475 -25.53826713 7.41589855 -25.5 5.6875 C-27.7477975 7.73983685 -28.5022242 8.69417261 -29.5 11.6875 C-30.16 11.6875 -30.82 11.6875 -31.5 11.6875 C-31.5 14.9875 -31.5 18.2875 -31.5 21.6875 C-32.82 21.6875 -34.14 21.6875 -35.5 21.6875 C-37.32926546 18.02896907 -36.96878116 13.6914612 -37.21875 9.65625 C-37.31288062 6.7610199 -37.31288062 6.7610199 -38.5 4.6875 C-39.82 5.0175 -41.14 5.3475 -42.5 5.6875 C-42.83 10.9675 -43.16 16.2475 -43.5 21.6875 C-45.69340939 17.30068122 -45.68764679 15.42059838 -45.375 10.625 C-45.27832031 8.78228516 -45.27832031 8.78228516 -45.1796875 6.90234375 C-44.5 3.6875 -44.5 3.6875 -42.58203125 1.7421875 C-40.5 0.6875 -40.5 0.6875 -38.3125 0.875 C-36.5 1.6875 -36.5 1.6875 -35.5 3.6875 C-35.18744353 6.53957778 -34.98962518 9.39246854 -34.78125 12.25390625 C-34.76165078 14.63293305 -34.76165078 14.63293305 -33.5 15.6875 C-33.39042969 14.85605469 -33.28085938 14.02460938 -33.16796875 13.16796875 C-32.93013672 11.53794922 -32.93013672 11.53794922 -32.6875 9.875 C-32.53667969 8.79605469 -32.38585937 7.71710937 -32.23046875 6.60546875 C-31.48318314 3.6203225 -31.00483291 2.4254211 -28.5 0.6875 C-25.62631508 0.97486849 -23.24209856 1.77346715 -20.5 2.6875 C-19.15812182 2.0382041 -17.82520503 1.37018138 -16.5 0.6875 C-15.18 0.6875 -13.86 0.6875 -12.5 0.6875 C-10.14417935 5.31566733 -10.26478531 9.44284135 -10.375 14.5 C-10.38402344 15.28826172 -10.39304688 16.07652344 -10.40234375 16.88867188 C-10.42577496 18.82174666 -10.46164162 20.7546638 -10.5 22.6875 C-9.51 22.6875 -8.52 22.6875 -7.5 22.6875 C-7.60699219 22.09324219 -7.71398437 21.49898437 -7.82421875 20.88671875 C-8.80978345 14.07254559 -8.28604286 8.05559797 -5.5 1.6875 C-2.5 -0.3125 -2.5 -0.3125 0 0 Z " fill="#E0DDDC" transform="translate(108.5,12.3125)"/>
<path d="M0 0 C3.05507993 1.52753997 5.44341223 2.80863905 8 5 C8 5.66 8 6.32 8 7 C8.99 7.33 9.98 7.66 11 8 C11.99 9.485 11.99 9.485 13 11 C13.88042969 10.90460937 14.76085937 10.80921875 15.66796875 10.7109375 C16.82941406 10.60007812 17.99085937 10.48921875 19.1875 10.375 C20.33605469 10.25898438 21.48460937 10.14296875 22.66796875 10.0234375 C26.07807601 9.99945081 27.90254592 10.74100081 31 12 C33.35416349 11.05007438 35.68895182 10.05047644 38 9 C40.4375 9.3125 40.4375 9.3125 42 10 C43.86783046 15.48675196 44.2358396 20.22192976 44 26 C43.34 26 42.68 26 42 26 C41.34 22.37 40.68 18.74 40 15 C39.01 15.33 38.02 15.66 37 16 C36.13852726 22.97761838 36.13852726 22.97761838 36 30 C34.35 30.66 32.7 31.32 31 32 C29.4375 30.75 29.4375 30.75 28 29 C28.25 27.125 28.25 27.125 29 25 C29.34060811 23.33480481 29.67558396 21.66842534 30 20 C25.0477321 16.48548729 19.74527671 15.64954984 13.8828125 14.6328125 C10.66602343 13.55165103 9.08867684 10.57067919 7 8 C6.01 7.67 5.02 7.34 4 7 C4.12375 8.5778125 4.12375 8.5778125 4.25 10.1875 C3.95919394 14.62229238 2.88272579 15.76785291 0 19 C-0.77833534 21.18214568 -0.77833534 21.18214568 -1 23 C3.1205746 24.99785435 6.45194365 25.17835515 11 25 C11 24.34 11 23.68 11 23 C11.99 23 12.98 23 14 23 C14.18433594 23.60328125 14.36867188 24.2065625 14.55859375 24.828125 C16.39264254 29.90689582 16.39264254 29.90689582 20.26953125 33.48828125 C22.49123381 34.4504359 24.68534217 35.29274344 27 36 C24.39859561 39.90210659 22.41986224 39.78072766 18 41 C16.63634717 41.95824253 15.29205831 42.94721175 14 44 C13.34 44 12.68 44 12 44 C11.731875 43.38125 11.46375 42.7625 11.1875 42.125 C10.04443152 39.7004767 10.04443152 39.7004767 7 38 C6.67 37.01 6.34 36.02 6 35 C4.96939453 34.90912109 4.96939453 34.90912109 3.91796875 34.81640625 C3.01691406 34.73261719 2.11585937 34.64882813 1.1875 34.5625 C0.29417969 34.48128906 -0.59914063 34.40007813 -1.51953125 34.31640625 C-4 34 -4 34 -7 33 C-8.16796875 31.15234375 -8.16796875 31.15234375 -9.1875 28.9375 C-9.53167969 28.20402344 -9.87585938 27.47054687 -10.23046875 26.71484375 C-10.48441406 26.14894531 -10.73835937 25.58304688 -11 25 C-12.52530871 27.76408891 -13.30506261 30.01710996 -13.6328125 33.15234375 C-13.71660156 33.92900391 -13.80039063 34.70566406 -13.88671875 35.50585938 C-14.00466797 36.70952148 -14.00466797 36.70952148 -14.125 37.9375 C-14.21136719 38.73607422 -14.29773438 39.53464844 -14.38671875 40.35742188 C-15.51035706 47.73903161 -15.51035706 47.73903161 -13.4375 54.5625 C-12 57 -12 57 -12.0625 59.1875 C-13.27879179 61.53899746 -14.64300885 61.92346682 -17 63 C-17.02886984 59.02084841 -17.04675406 55.04172347 -17.0625 51.0625 C-17.07087891 49.92619141 -17.07925781 48.78988281 -17.08789062 47.61914062 C-17.09111328 46.53955078 -17.09433594 45.45996094 -17.09765625 44.34765625 C-17.10289307 43.34742432 -17.10812988 42.34719238 -17.11352539 41.31665039 C-17 39 -17 39 -16 38 C-15.45692928 34.51339468 -15.03351345 31.01713326 -14.59765625 27.515625 C-14.06576858 24.386874 -13.31039566 21.87300136 -12 19 C-9.36 19 -6.72 19 -4 19 C-3.731875 18.05125 -3.46375 17.1025 -3.1875 16.125 C-2 13 -2 13 1 11 C0.67 7.37 0.34 3.74 0 0 Z " fill="#E2DFDE" transform="translate(17,5)"/>
<path d="M0 0 C1.6875 0.125 1.6875 0.125 4 1 C4.763125 1.99 5.52625 2.98 6.3125 4 C8.38397756 6.65073573 8.7468532 6.94644971 12.25 7.6875 C14.10625 7.8421875 14.10625 7.8421875 16 8 C24.21123596 10.21123596 24.21123596 10.21123596 27 13 C26.6875 15.375 26.6875 15.375 26 18 C25.22817341 20.96533958 25.22817341 20.96533958 25 24 C26.98 23.67 28.96 23.34 31 23 C30.97679687 22.25234375 30.95359375 21.5046875 30.9296875 20.734375 C30.91164062 19.74953125 30.89359375 18.7646875 30.875 17.75 C30.85179687 16.77546875 30.82859375 15.8009375 30.8046875 14.796875 C31.00137219 11.9803502 31.55431084 10.39050964 33 8 C33.99 8 34.98 8 36 8 C38.02558881 11.34939881 38.21738987 13.86962551 38.125 17.75 C38.10695312 18.73484375 38.08890625 19.7196875 38.0703125 20.734375 C38.04710937 21.48203125 38.02390625 22.2296875 38 23 C42.06732175 23.8512999 44.96685703 23.89625399 49 23 C49.66 23.33 50.32 23.66 51 24 C51 24.99 51 25.98 51 27 C44.01843289 27.97986907 37.19461271 28.05016397 30.16015625 27.9375 C27.09857527 27.771779 27.09857527 27.771779 25 29 C31.93 30.485 31.93 30.485 39 32 C39 33.65 39 35.3 39 37 C38.67 36.01 38.34 35.02 38 34 C33.05 33.67 28.1 33.34 23 33 C24.72531936 37.81115706 24.72531936 37.81115706 27 41 C27.265625 42.9375 27.265625 42.9375 27.25 45 C27.25773437 46.0209375 27.25773437 46.0209375 27.265625 47.0625 C27 49 27 49 25 52 C25 52.99 25 53.98 25 55 C25.969375 55.268125 26.93875 55.53625 27.9375 55.8125 C29.4534375 56.4003125 29.4534375 56.4003125 31 57 C31.33 57.99 31.66 58.98 32 60 C34.01508358 60.73323796 34.01508358 60.73323796 36 61 C36.495 62.98 36.495 62.98 37 65 C36.49210937 64.59007813 35.98421875 64.18015625 35.4609375 63.7578125 C31.4359113 60.60713656 28.04815754 58.26203939 23 57 C21.78506778 52.00527866 22.22352965 47.61817987 22.84375 42.5859375 C22.99369684 40.10431733 22.7505224 38.35090106 22 36 C20.03243548 36.03122943 20.03243548 36.03122943 18 37 C16.6954344 39.99615946 16.6954344 39.99615946 16 43 C15.67 43 15.34 43 15 43 C15.33 40.69 15.66 38.38 16 36 C15.34 36 14.68 36 14 36 C13.34 35.67 12.68 35.34 12 35 C14.6598561 31.55783328 17.90288286 31.00495326 22 30 C21.07767578 29.61521484 21.07767578 29.61521484 20.13671875 29.22265625 C13.61378167 26.13284395 13.61378167 26.13284395 11.734375 22.6640625 C11.02183433 20.44959788 10.43304069 18.28466293 10 16 C9.01 16 8.02 16 7 16 C7 16.66 7 17.32 7 18 C0.72307692 19.35384615 0.72307692 19.35384615 -2.9375 17.5625 C-3.618125 17.046875 -4.29875 16.53125 -5 16 C-4.60804405 13.17791717 -4.30181534 11.37726918 -2.5 9.125 C-0.4418235 6.20924996 -0.33659116 3.50054802 0 0 Z " fill="#949392" transform="translate(21,12)"/>
<path d="M0 0 C1.32 0.33 2.64 0.66 4 1 C4.05607422 2.2684375 4.05607422 2.2684375 4.11328125 3.5625 C4.5022694 10.2744524 5.02253815 15.93055853 8 22 C8.99 22.66 9.98 23.32 11 24 C11 25.32 11 26.64 11 28 C9.02 28.66 7.04 29.32 5 30 C4.34 34.95 3.68 39.9 3 45 C0.17283905 45.94238698 -1.63176123 46.13465647 -4.5625 46.125 C-5.34753906 46.12757812 -6.13257812 46.13015625 -6.94140625 46.1328125 C-9 46 -9 46 -11 45 C-11 44.34 -11 43.68 -11 43 C-11.61875 42.814375 -12.2375 42.62875 -12.875 42.4375 C-16.05602866 40.28562767 -16.19451947 37.62466237 -17 34 C-19.07553648 33.4465236 -20.84365964 33 -23 33 C-23.15855469 33.91523437 -23.31710938 34.83046875 -23.48046875 35.7734375 C-23.71378906 36.96195313 -23.94710937 38.15046875 -24.1875 39.375 C-24.40792969 40.55835938 -24.62835938 41.74171875 -24.85546875 42.9609375 C-26 46 -26 46 -28.61328125 47.4140625 C-29.79470703 47.70410156 -29.79470703 47.70410156 -31 48 C-31.66 47.34 -32.32 46.68 -33 46 C-32.43877268 39.82649945 -29.64396144 33.60301539 -27.375 27.875 C-25.98484802 24.25041526 -25.40161304 20.85548518 -25 17 C-23.68 16.67 -22.36 16.34 -21 16 C-20.34 16.99 -19.68 17.98 -19 19 C-15.27698497 19.47730962 -14.20808915 19.1387261 -11 17 C-11 23.6 -11 30.2 -11 37 C-10.34 37 -9.68 37 -9 37 C-9 37.99 -9 38.98 -9 40 C-7.02 39.505 -7.02 39.505 -5 39 C-3.83446926 35.19174572 -3.6821864 31.34017456 -3.46484375 27.390625 C-3.40037804 26.30041046 -3.40037804 26.30041046 -3.33460999 25.18817139 C-3.1986838 22.87563878 -3.06802109 20.56284334 -2.9375 18.25 C-2.8460506 16.67836516 -2.75425762 15.10675027 -2.66210938 13.53515625 C-2.4374245 9.69032398 -2.21745843 5.84524749 -2 2 C-1.34 2 -0.68 2 0 2 C0 1.34 0 0.68 0 0 Z " fill="#555454" transform="translate(117,23)"/>
<path d="M0 0 C3 1 3 1 4.1875 3.0625 C4.455625 3.701875 4.72375 4.34125 5 5 C6.3921875 4.9690625 6.3921875 4.9690625 7.8125 4.9375 C11 5 11 5 14 6 C14.78375 5.896875 15.5675 5.79375 16.375 5.6875 C19.46226109 6.05503108 19.85785642 6.58812238 21.8125 8.875 C24 12 24 12 24 14 C28.95 12.515 28.95 12.515 34 11 C33.34 12.32 32.68 13.64 32 15 C31.86041143 17.62426505 31.81068631 20.13292747 31.875 22.75 C31.88402344 23.44738281 31.89304688 24.14476563 31.90234375 24.86328125 C31.92580112 26.57566958 31.96166896 28.28788004 32 30 C28.52176885 31.15941038 26.54104422 30.70820884 23 30 C23 31.32 23 32.64 23 34 C25.31 33.34 27.62 32.68 30 32 C31.96458862 33.96458862 31.7181502 37.49647006 32.0625 40.1875 C32.15337891 40.84814453 32.24425781 41.50878906 32.33789062 42.18945312 C32.85836141 46.15364041 33.09322295 50.00384268 33 54 C31.34385343 54.38218767 29.67542976 54.71395102 28 55 C25.94077598 52.94077598 26.58572421 48.78291876 26.4375 45.9375 C26.39431641 45.17888672 26.35113281 44.42027344 26.30664062 43.63867188 C26.20026367 41.75934562 26.09960066 39.87969756 26 38 C25.34 38 24.68 38 24 38 C23.67 43.61 23.34 49.22 23 55 C21.68 54.34 20.36 53.68 19 53 C18.98018066 52.03698975 18.96036133 51.07397949 18.93994141 50.08178711 C18.86342821 46.48274151 18.77478439 42.88407631 18.68261719 39.28540039 C18.64451516 37.73274284 18.60963072 36.18000267 18.578125 34.62719727 C18.53206315 32.38528053 18.47414122 30.14392355 18.4140625 27.90234375 C18.40251129 27.21663803 18.39096008 26.53093231 18.37905884 25.82444763 C18.18913377 19.5143245 17.25841626 13.83910939 13 9 C10.08167457 13.06727245 9.66209564 15.84915617 9.8125 20.8125 C9.83957031 21.97394531 9.86664063 23.13539062 9.89453125 24.33203125 C9.92933594 25.21246094 9.96414063 26.09289062 10 27 C9.34 27.33 8.68 27.66 8 28 C7.34 27.67 6.68 27.34 6 27 C6 21.06 6 15.12 6 9 C5.01 9.66 4.02 10.32 3 11 C2.96761981 13.00757207 2.94345314 15.01735762 3.02734375 17.0234375 C2.99394744 19.43751338 2.33252122 21.00121817 1 23 C-1.63770529 15.74631046 -2.22644967 7.4630593 0 0 Z " fill="#777576" transform="translate(5,35)"/>
<path d="M0 0 C2.4375 0.625 2.4375 0.625 5 2 C6.12611814 6.52996958 6.16140959 11.09050176 6.2109375 15.734375 C6.23896887 17.20964722 6.26763298 18.68490753 6.296875 20.16015625 C6.33833536 22.46663541 6.37525899 24.77288254 6.40136719 27.07958984 C6.42885794 29.31913837 6.47467487 31.55770249 6.5234375 33.796875 C6.52669037 34.48956482 6.52994324 35.18225464 6.53329468 35.89593506 C6.55490744 38.04894437 6.55490744 38.04894437 7 41 C7.99 41.66 8.98 42.32 10 43 C10 37.39 10 31.78 10 26 C11.32 26 12.64 26 14 26 C14.33 31.28 14.66 36.56 15 42 C16.32 42 17.64 42 19 42 C18.49656013 34.97326485 17.95812032 27.98059091 17 21 C14.69 21.33 12.38 21.66 10 22 C10 20.68 10 19.36 10 18 C12.64 18 15.28 18 18 18 C17.94779297 17.03900391 17.94779297 17.03900391 17.89453125 16.05859375 C17.71012429 10.16635234 18.2695542 6.23335445 21 1 C22.32 1.33 23.64 1.66 25 2 C24.01 2.33 23.02 2.66 22 3 C21.97072084 6.99998437 21.95310781 10.99994076 21.9375 15 C21.92493164 16.68802734 21.92493164 16.68802734 21.91210938 18.41015625 C21.89462949 24.38827734 22.15512837 30.08589856 23 36 C23.05915294 37.6657469 23.08854052 39.33340656 23.0625 41 C23.05347656 41.763125 23.04445312 42.52625 23.03515625 43.3125 C23.02355469 43.869375 23.01195312 44.42625 23 45 C20.703463 46.1482685 19.41686833 46.11561175 16.8671875 46.09765625 C16.06152344 46.09443359 15.25585938 46.09121094 14.42578125 46.08789062 C13.16314453 46.07532227 13.16314453 46.07532227 11.875 46.0625 C10.60076172 46.05573242 10.60076172 46.05573242 9.30078125 46.04882812 C7.20049091 46.03702874 5.1002367 46.01909306 3 46 C1.02 50.95 1.02 50.95 -1 56 C-7.25323049 57.20676378 -10.35191493 56.93700423 -16 54 C-16.66 53.67 -17.32 53.34 -18 53 C-18 50.69 -18 48.38 -18 46 C-16.23395111 47.68195132 -15.00119031 48.9976855 -13.875 51.1875 C-11.50924605 53.47439549 -10.53077682 53.25503643 -7.3125 53.25 C-5.8740202 53.18576167 -4.43583001 53.10836453 -3 53 C-0.77326184 46.75105101 -0.73303407 40.96648949 -0.8125 34.375 C-0.81314453 33.35148437 -0.81378906 32.32796875 -0.81445312 31.2734375 C-0.81481905 25.74893423 -0.81481905 25.74893423 -1.57299805 20.29541016 C-2 18 -2 18 -1 16 C-0.95406453 13.47067838 -0.95306269 10.96507389 -1 8.4375 C-1.0459067 5.95165223 -1.04698655 3.48735051 -1 1 C-0.67 0.67 -0.34 0.34 0 0 Z " fill="#DCD8D7" transform="translate(18,47)"/>
<path d="M0 0 C1.84904262 0.50848672 3.68072387 1.08107462 5.5 1.6875 C6.49 1.0275 7.48 0.3675 8.5 -0.3125 C10.5625 -0.125 10.5625 -0.125 12.5 0.6875 C14.4451 3.60515 14.95276317 5.31287285 15.5 8.6875 C16.82 9.0175 18.14 9.3475 19.5 9.6875 C19.5 17.9375 19.5 26.1875 19.5 34.6875 C14.5 31.6875 14.5 31.6875 13.25 28.8125 C11.97056286 23.22401515 11.82608199 17.39393475 11.5 11.6875 C10.51 11.3575 9.52 11.0275 8.5 10.6875 C8.5 11.3475 8.5 12.0075 8.5 12.6875 C7.84 12.6875 7.18 12.6875 6.5 12.6875 C6.005 10.2125 6.005 10.2125 5.5 7.6875 C5.17 7.6875 4.84 7.6875 4.5 7.6875 C4.31824219 8.37457031 4.13648437 9.06164063 3.94921875 9.76953125 C3.69785156 10.67058594 3.44648437 11.57164063 3.1875 12.5 C2.94386719 13.39332031 2.70023438 14.28664063 2.44921875 15.20703125 C1.46808252 17.77090575 0.69703305 19.06169554 -1.5 20.6875 C-4.1875 20.375 -4.1875 20.375 -6.5 19.6875 C-6.5 19.0275 -6.5 18.3675 -6.5 17.6875 C-7.16 17.6875 -7.82 17.6875 -8.5 17.6875 C-7.91081973 12.18848415 -7.14230388 6.97936804 -5.5 1.6875 C-2.5 -0.3125 -2.5 -0.3125 0 0 Z " fill="#E0DDDC" transform="translate(108.5,12.3125)"/>
<path d="M0 0 C3.37992169 0.53771481 6.68737889 1.14303932 10 2 C10.05830787 5.39576062 10.09369946 8.7913915 10.125 12.1875 C10.14175781 13.14720703 10.15851563 14.10691406 10.17578125 15.09570312 C10.18544922 16.49272461 10.18544922 16.49272461 10.1953125 17.91796875 C10.21102295 19.19837036 10.21102295 19.19837036 10.22705078 20.50463867 C9.97204194 23.30726815 9.15541422 25.44729419 8 28 C6.68 28 5.36 28 4 28 C4 27.01 4 26.02 4 25 C3.34 25 2.68 25 2 25 C0.34502644 21.69005287 0.89915665 18.00877 0.9375 14.375 C0.94201172 13.57320312 0.94652344 12.77140625 0.95117188 11.9453125 C0.96296832 9.96350994 0.98090395 7.98174567 1 6 C0.34 6.66 -0.32 7.32 -1 8 C-3.625 8.125 -3.625 8.125 -6 8 C-6.66 6.68 -7.32 5.36 -8 4 C-8.99 4.33 -9.98 4.66 -11 5 C-11.07476562 5.58265625 -11.14953125 6.1653125 -11.2265625 6.765625 C-12.43072757 14.27394835 -15.37267327 20.36130768 -19 27 C-19.99 27 -20.98 27 -22 27 C-22.125 19.375 -22.125 19.375 -21 16 C-20.77820215 14.10787263 -20.59385985 12.21115528 -20.4375 10.3125 C-20.31181641 8.82169922 -20.31181641 8.82169922 -20.18359375 7.30078125 C-20.09271484 6.16189453 -20.09271484 6.16189453 -20 5 C-19.21238281 5.04125 -18.42476563 5.0825 -17.61328125 5.125 C-16.75089844 5.08375 -15.88851562 5.0425 -15 5 C-13.15684329 3.0995533 -13.15684329 3.0995533 -12 1 C-8.04179141 1.56545837 -5.3340947 2.80902348 -2 5 C-1.34 3.35 -0.68 1.7 0 0 Z " fill="#B4AFAD" transform="translate(104,35)"/>
<path d="M0 0 C0.78246094 0.13019531 1.56492187 0.26039062 2.37109375 0.39453125 C3.15613281 0.51183594 3.94117188 0.62914063 4.75 0.75 C6.80859375 1.20703125 6.80859375 1.20703125 8.80859375 2.20703125 C9.03777792 5.51842543 9.23802624 8.8309953 9.43359375 12.14453125 C9.49804688 13.07072266 9.5625 13.99691406 9.62890625 14.95117188 C9.97523038 21.12007038 9.4131895 26.23573026 7.80859375 32.20703125 C5.10547701 32.98935877 3.61821221 33.18371922 0.74609375 32.83203125 C-2.19140625 31.20703125 -2.19140625 31.20703125 -4.06640625 27.70703125 C-5.40849126 22.8259959 -5.50301298 17.92574309 -5.56640625 12.89453125 C-5.5804248 12.105625 -5.59444336 11.31671875 -5.60888672 10.50390625 C-5.58052441 7.10042886 -5.45224145 4.74515812 -3.953125 1.65234375 C-2.19140625 0.20703125 -2.19140625 0.20703125 0 0 Z " fill="#C6252C" transform="translate(7.19140625,66.79296875)"/>
<path d="M0 0 C1.6875 0.125 1.6875 0.125 4 1 C4.763125 1.99 5.52625 2.98 6.3125 4 C8.38397756 6.65073573 8.7468532 6.94644971 12.25 7.6875 C14.10625 7.8421875 14.10625 7.8421875 16 8 C24.21123596 10.21123596 24.21123596 10.21123596 27 13 C26.6875 15.3125 26.6875 15.3125 26 18 C25.814375 18.928125 25.62875 19.85625 25.4375 20.8125 C25.293125 21.534375 25.14875 22.25625 25 23 C23.906875 22.835 22.81375 22.67 21.6875 22.5 C18.12474127 21.93281816 18.12474127 21.93281816 15 22 C14.67 23.32 14.34 24.64 14 26 C13.32845067 24.71086513 12.66291141 23.41859796 12 22.125 C11.62875 21.40570313 11.2575 20.68640625 10.875 19.9453125 C10 18 10 18 10 16 C9.01 16 8.02 16 7 16 C7 16.66 7 17.32 7 18 C0.72307692 19.35384615 0.72307692 19.35384615 -2.9375 17.5625 C-3.618125 17.046875 -4.29875 16.53125 -5 16 C-4.60804405 13.17791717 -4.30181534 11.37726918 -2.5 9.125 C-0.4418235 6.20924996 -0.33659116 3.50054802 0 0 Z " fill="#C4BDBA" transform="translate(21,12)"/>
<path d="M0 0 C1.485 0.495 1.485 0.495 3 1 C3 2.32 3 3.64 3 5 C-0.63 5 -4.26 5 -8 5 C-8 5.66 -8 6.32 -8 7 C-8.66 7 -9.32 7 -10 7 C-9.6596875 8.4540625 -9.6596875 8.4540625 -9.3125 9.9375 C-8.72306911 13.99802392 -9.74847811 16.93344163 -11.16796875 20.71875 C-11.97938678 22.943483 -12.57856605 25.13496916 -13.125 27.4375 C-14 31 -14 31 -15 33 C-16.65 32.67 -18.3 32.34 -20 32 C-20.97853169 27.45189496 -20.89506287 23.82818197 -20.125 19.25 C-19.85042969 17.55617188 -19.85042969 17.55617188 -19.5703125 15.828125 C-19 13 -19 13 -18 11 C-17.34 11 -16.68 11 -16 11 C-16 9.35 -16 7.7 -16 6 C-16.74765625 5.95101562 -17.4953125 5.90203125 -18.265625 5.8515625 C-19.25046875 5.77679688 -20.2353125 5.70203125 -21.25 5.625 C-22.22453125 5.55539063 -23.1990625 5.48578125 -24.203125 5.4140625 C-26.89633189 5.01534751 -28.66963279 4.36492937 -31 3 C-27.23017052 0.48678035 -24.61343698 0.98005629 -20.3125 1.375 C-9.82918602 2.67892625 -9.82918602 2.67892625 0 0 Z " fill="#B1ACAA" transform="translate(76,38)"/>
<path d="M0 0 C0.99 0.495 0.99 0.495 2 1 C3.07829379 5.54552895 3.16135827 10.08568919 3.2109375 14.734375 C3.23896887 16.20964722 3.26763298 17.68490753 3.296875 19.16015625 C3.33833536 21.46663541 3.37525899 23.77288254 3.40136719 26.07958984 C3.42885794 28.31913837 3.47467487 30.55770249 3.5234375 32.796875 C3.52669037 33.48956482 3.52994324 34.18225464 3.53329468 34.89593506 C3.55490744 37.04894437 3.55490744 37.04894437 4 40 C4.99 40.66 5.98 41.32 7 42 C7 36.39 7 30.78 7 25 C8.32 25 9.64 25 11 25 C11.33 30.28 11.66 35.56 12 41 C13.32 41 14.64 41 16 41 C15.49656013 33.97326485 14.95812032 26.98059091 14 20 C11.69 20.33 9.38 20.66 7 21 C7 19.68 7 18.36 7 17 C9.64 17 12.28 17 15 17 C14.96519531 16.35933594 14.93039063 15.71867187 14.89453125 15.05859375 C14.71012429 9.16635234 15.2695542 5.23335445 18 0 C19.32 0.33 20.64 0.66 22 1 C21.01 1.33 20.02 1.66 19 2 C19.02320312 2.58265625 19.04640625 3.1653125 19.0703125 3.765625 C19.17754424 8.63700957 18.86719783 13.03595789 17.875 17.8125 C16.80660128 23.55514314 17.37607453 28.38919078 18.4921875 34.08984375 C18.96508431 36.79990625 19.09091807 39.25730485 19 42 C14.05601526 43.9775939 10.24801962 44.34413243 5 44 C2 42 2 42 1 39 C0.92919868 37.27085475 0.91582223 35.53905213 0.9375 33.80859375 C0.94523437 32.78056641 0.95296875 31.75253906 0.9609375 30.69335938 C0.98665115 28.55012625 1.01268435 26.40689693 1.0390625 24.26367188 C1.08186494 18.52457779 0.91672459 12.93804529 0.21875 7.23852539 C-0.01825429 4.81319915 -0.0343346 2.4353426 0 0 Z " fill="#C7C0BD" transform="translate(21,48)"/>
<path d="M0 0 C2.0625 0.25 2.0625 0.25 4 1 C5.35119149 3.70238298 5.13237128 5.86014446 5.125 8.875 C5.12757812 9.92429687 5.13015625 10.97359375 5.1328125 12.0546875 C5.01998664 14.55676685 4.72508762 16.61756923 4 19 C8.60226133 19.90704666 8.60226133 19.90704666 13.1875 19.4375 C15.68750018 18.83405168 16.86307942 19.70258393 19 21 C18.01 24.465 18.01 24.465 17 28 C11.72 28 6.44 28 1 28 C1 27.67 1 27.34 1 27 C4.63 27 8.26 27 12 27 C11.67 25.68 11.34 24.36 11 23 C10.15179688 23.32742187 9.30359375 23.65484375 8.4296875 23.9921875 C4.79809989 25.05932828 1.89663699 25.20197218 -1.875 25.125 C-3.60363281 25.09792969 -3.60363281 25.09792969 -5.3671875 25.0703125 C-6.23601563 25.04710938 -7.10484375 25.02390625 -8 25 C-4.93753253 23.21590198 -2.77920727 22.77119979 0.75 22.875 C1.54921875 22.89304687 2.3484375 22.91109375 3.171875 22.9296875 C3.77515625 22.95289062 4.3784375 22.97609375 5 23 C5 22.01 5 21.02 5 20 C4.24074219 20.09539063 3.48148438 20.19078125 2.69921875 20.2890625 C1.70535156 20.39992188 0.71148437 20.51078125 -0.3125 20.625 C-1.29863281 20.74101563 -2.28476563 20.85703125 -3.30078125 20.9765625 C-6 21 -6 21 -9 19 C-8.67 17.68 -8.34 16.36 -8 15 C-7.67 15.99 -7.34 16.98 -7 18 C-5.68 18 -4.36 18 -3 18 C-2.95101562 16.86820313 -2.90203125 15.73640625 -2.8515625 14.5703125 C-2.77653486 13.08851661 -2.70098703 11.606747 -2.625 10.125 C-2.5940625 9.37863281 -2.563125 8.63226563 -2.53125 7.86328125 C-2.2265625 2.2265625 -2.2265625 2.2265625 0 0 Z " fill="#999897" transform="translate(67,16)"/>
<path d="M0 0 C5.28 0 10.56 0 16 0 C15.34 5.94 14.68 11.88 14 18 C13.01 18 12.02 18 11 18 C9.41727399 16.41727399 9.65264253 14.61965997 9.4375 12.4375 C9.35371094 11.61121094 9.26992187 10.78492188 9.18359375 9.93359375 C9.12300781 9.29550781 9.06242187 8.65742187 9 8 C7.02 8 5.04 8 3 8 C2.67 12.62 2.34 17.24 2 22 C1.34 22 0.68 22 0 22 C-0.66 24.97 -1.32 27.94 -2 31 C-3.32 31 -4.64 31 -6 31 C-6 29.68 -6 28.36 -6 27 C-5.34 27 -4.68 27 -4 27 C-3.87882812 25.89140625 -3.75765625 24.7828125 -3.6328125 23.640625 C-3.46393704 22.17703766 -3.29464428 20.71349843 -3.125 19.25 C-3.04636719 18.52039063 -2.96773437 17.79078125 -2.88671875 17.0390625 C-2.22453335 11.43595526 -2.22453335 11.43595526 -0.9296875 8.921875 C0.50804282 6.30558174 0.50804282 6.30558174 0 0 Z " fill="#1B1A1A" transform="translate(66,45)"/>
<path d="M0 0 C1.3303125 0.7425 1.3303125 0.7425 2.6875 1.5 C6.15307897 3.34375629 6.15307897 3.34375629 11 3 C10.67 8.28 10.34 13.56 10 19 C8.68 17.35 7.36 15.7 6 14 C3.46650198 12.94154191 3.46650198 12.94154191 1 13 C-2.24601636 16.24601636 -1.72714009 20.59217228 -2.14453125 25.03125 C-2.42683594 26.0109375 -2.70914063 26.990625 -3 28 C-5.57421875 29.40625 -5.57421875 29.40625 -8 30 C-8.66 29.34 -9.32 28.68 -10 28 C-9.48321729 22.31539018 -7.51716133 15.82951808 -3.875 11.4375 C-1.23529023 8.0058773 -1.35652266 5.27827193 -1 1 C-0.67 0.67 -0.34 0.34 0 0 Z " fill="#1C1B1B" transform="translate(94,41)"/>
<path d="M0 0 C2.12534659 0.14069196 4.25027529 0.28770921 6.375 0.4375 C8.15003906 0.55931641 8.15003906 0.55931641 9.9609375 0.68359375 C13 1 13 1 15 2 C14.67 3.65 14.34 5.3 14 7 C13.34 7 12.68 7 12 7 C11.34 12.94 10.68 18.88 10 25 C5.545 24.01 5.545 24.01 1 23 C2 18 2 18 2.625 15.5625 C3.22995196 11.42866163 2.89455601 8.20421002 0.375 4.8125 C-0.07875 4.214375 -0.5325 3.61625 -1 3 C-0.67 2.01 -0.34 1.02 0 0 Z " fill="#1D1C1C" transform="translate(44,44)"/>
<path d="M0 0 C2.33672984 0.3086247 4.66993089 0.64456573 7 1 C8.32 1 9.64 1 11 1 C11.3383344 3.37438249 11.67079002 5.74934959 12 8.125 C12.09539063 8.79015625 12.19078125 9.4553125 12.2890625 10.140625 C12.83611453 14.12628981 13.10022182 17.97859938 13 22 C11.34385343 22.38218767 9.67542976 22.71395102 8 23 C5.94077598 20.94077598 6.58572421 16.78291876 6.4375 13.9375 C6.39431641 13.17888672 6.35113281 12.42027344 6.30664062 11.63867188 C6.20026367 9.75934562 6.09960066 7.87969756 6 6 C5.34 6 4.68 6 4 6 C3.67 11.61 3.34 17.22 3 23 C1.68 22.34 0.36 21.68 -1 21 C-1.02888146 17.68751813 -1.04675799 14.37506833 -1.0625 11.0625 C-1.07087891 10.11697266 -1.07925781 9.17144531 -1.08789062 8.19726562 C-1.09111328 7.29814453 -1.09433594 6.39902344 -1.09765625 5.47265625 C-1.10289307 4.64000244 -1.10812988 3.80734863 -1.11352539 2.94946289 C-1 1 -1 1 0 0 Z " fill="#CA8166" transform="translate(25,67)"/>
<path d="M0 0 C1.32 0.33 2.64 0.66 4 1 C4.03738281 1.845625 4.07476562 2.69125 4.11328125 3.5625 C4.5022694 10.2744524 5.02253815 15.93055853 8 22 C8.99 22.66 9.98 23.32 11 24 C11 25.32 11 26.64 11 28 C9.02 28.66 7.04 29.32 5 30 C4.34 34.95 3.68 39.9 3 45 C2.34 44.67 1.68 44.34 1 44 C1.14058476 41.54126232 1.28722999 39.08314825 1.4375 36.625 C1.47681641 35.92632812 1.51613281 35.22765625 1.55664062 34.5078125 C1.88671875 29.2265625 1.88671875 29.2265625 3 27 C3.18760359 22.21610858 2.77057552 17.71977508 2 13 C1.34 13 0.68 13 0 13 C-0.04898438 13.92683594 -0.09796875 14.85367188 -0.1484375 15.80859375 C-0.22320312 17.00613281 -0.29796875 18.20367187 -0.375 19.4375 C-0.47941406 21.22994141 -0.47941406 21.22994141 -0.5859375 23.05859375 C-0.72257812 24.02925781 -0.85921875 24.99992187 -1 26 C-1.66 26.33 -2.32 26.66 -3 27 C-3.12190678 18.60197746 -2.84327749 10.35748222 -2 2 C-1.34 2 -0.68 2 0 2 C0 1.34 0 0.68 0 0 Z " fill="#5B5959" transform="translate(117,23)"/>
<path d="M0 0 C3.875 1.75 3.875 1.75 5 4 C6.175625 3.9071875 6.175625 3.9071875 7.375 3.8125 C12.20013103 4.06207574 16.43656733 5.4848682 21 7 C21.33 8.65 21.66 10.3 22 12 C15.81776545 13.49872353 10.20711652 13.05653047 4 12 C2.4221875 12.0309375 2.4221875 12.0309375 0.8125 12.0625 C-2 12 -2 12 -5 10 C-5 9.01 -5 8.02 -5 7 C-4.01 6.34 -3.02 5.68 -2 5 C-0.79549696 2.44816596 -0.79549696 2.44816596 0 0 Z " fill="#9E9D9C" transform="translate(24,17)"/>
<path d="M0 0 C0.99 0 1.98 0 3 0 C3.20625 0.639375 3.4125 1.27875 3.625 1.9375 C4.07875 2.618125 4.5325 3.29875 5 4 C6.99285937 4.37366113 8.99363529 4.70740515 11 5 C13.1852669 8.27790034 13.2561264 9.27461501 13.265625 13.078125 C13.26949219 14.57279297 13.26949219 14.57279297 13.2734375 16.09765625 C13.26570313 17.13792969 13.25796875 18.17820312 13.25 19.25 C13.25773437 20.27480469 13.26546875 21.29960938 13.2734375 22.35546875 C13.23893145 35.76106855 13.23893145 35.76106855 10 39 C6.9478747 39.43336465 4.04638377 39.4863525 1 39 C-1.4375 36.6875 -1.4375 36.6875 -3 34 C-3.66 33.01 -4.32 32.02 -5 31 C-5.46609217 26.84825461 -5.37033509 22.67509374 -5.375 18.5 C-5.39949219 17.34628906 -5.42398437 16.19257812 -5.44921875 15.00390625 C-5.45308594 13.89917969 -5.45695313 12.79445313 -5.4609375 11.65625 C-5.46915527 10.64369141 -5.47737305 9.63113281 -5.48583984 8.58789062 C-5 6 -5 6 -3.03369141 4.33398438 C-2.36257324 3.89376953 -1.69145508 3.45355469 -1 3 C-0.67 2.01 -0.34 1.02 0 0 Z M-1.66015625 6.4609375 C-3.61366704 10.16292587 -3.48834615 13.4971399 -3.4375 17.625 C-3.43427734 18.42663574 -3.43105469 19.22827148 -3.42773438 20.05419922 C-3.28097944 26.31026091 -2.0980832 31.49537003 1 37 C4.35458155 37.76522801 4.35458155 37.76522801 8 38 C10.03089875 36.52204689 10.85627196 35.52025691 11.52709961 33.09204102 C12.03112657 27.31834333 11.95257718 21.71691931 11.5625 15.9375 C11.51029297 15.07189453 11.45808594 14.20628906 11.40429688 13.31445312 C11.2763539 11.20920968 11.13916029 9.10453172 11 7 C9.741875 6.67 8.48375 6.34 7.1875 6 C6.47980469 5.814375 5.77210937 5.62875 5.04296875 5.4375 C1.39771765 4.63907962 1.39771765 4.63907962 -1.66015625 6.4609375 Z " fill="#CA8166" transform="translate(5,62)"/>
<path d="M0 0 C2.0625 0.4375 2.0625 0.4375 4 1 C4.66 3.31 5.32 5.62 6 8 C7.65 8.33 9.3 8.66 11 9 C11 16.59 11 24.18 11 32 C6 29 6 29 4.75 26.125 C3.47056286 20.53651515 3.32608199 14.70643475 3 9 C2.01 8.67 1.02 8.34 0 8 C-0.33 8.66 -0.66 9.32 -1 10 C-1.02689216 8.52093108 -1.04634621 7.04172517 -1.0625 5.5625 C-1.07410156 4.73878906 -1.08570312 3.91507813 -1.09765625 3.06640625 C-1 1 -1 1 0 0 Z " fill="#BCB6B4" transform="translate(117,15)"/>
<path d="M0 0 C2.76276177 0.52268466 5.3260876 1.10869587 8 2 C8.33 2.99 8.66 3.98 9 5 C13.47883696 4.55296014 13.47883696 4.55296014 17 2 C18.32 2 19.64 2 21 2 C21.17015625 2.54269531 21.3403125 3.08539063 21.515625 3.64453125 C23.42025405 9.30533471 23.42025405 9.30533471 28 13 C25.69 14.32 23.38 15.64 21 17 C20.67 16.34 20.34 15.68 20 15 C20.99 14.01 21.98 13.02 23 12 C22.01 11.34 21.02 10.68 20 10 C19.01 11.485 19.01 11.485 18 13 C17.43152344 12.7834375 16.86304687 12.566875 16.27734375 12.34375 C11.30552855 10.55090846 7.3478891 9.78171881 2 10 C1.34 9.67 0.68 9.34 0 9 C-1.28571429 2.57142857 -1.28571429 2.57142857 0 0 Z " fill="#F9F8F8" transform="translate(10,29)"/>
<path d="M0 0 C3 1 3 1 4.1875 3.0625 C4.455625 3.701875 4.72375 4.34125 5 5 C6.65 5 8.3 5 10 5 C11.3729863 7.7459726 11.12412634 9.9589047 11 13 C10.67 13.99 10.34 14.98 10 16 C9.9314505 17.89470816 9.91519628 19.7916834 9.9375 21.6875 C9.94652344 22.68136719 9.95554687 23.67523438 9.96484375 24.69921875 C9.97644531 25.45847656 9.98804688 26.21773437 10 27 C9.34 27.33 8.68 27.66 8 28 C7.34 27.67 6.68 27.34 6 27 C6 21.06 6 15.12 6 9 C5.01 9.66 4.02 10.32 3 11 C2.96761981 13.00757207 2.94345314 15.01735762 3.02734375 17.0234375 C2.99394744 19.43751338 2.33252122 21.00121817 1 23 C-1.63770529 15.74631046 -2.22644967 7.4630593 0 0 Z " fill="#6C6B6B" transform="translate(5,35)"/>
<path d="M0 0 C0.99 0 1.98 0 3 0 C5.35582065 4.62816733 5.23521469 8.75534135 5.125 13.8125 C5.11597656 14.60076172 5.10695313 15.38902344 5.09765625 16.20117188 C5.07422504 18.13424666 5.03835838 20.0671638 5 22 C5.99 22 6.98 22 8 22 C7.505 19.525 7.505 19.525 7 17 C7.66 17 8.32 17 9 17 C9.33 17.66 9.66 18.32 10 19 C12.41585574 18.96906827 12.41585574 18.96906827 15 18 C17.36188714 14.23847603 18.69083239 10.22961842 20 6 C20.66 6.33 21.32 6.66 22 7 C22 12.61 22 18.22 22 24 C20.30875 23.814375 18.6175 23.62875 16.875 23.4375 C12.66562489 23.03660713 9.16672472 23.25212633 5 24 C3 22 3 22 2.83984375 19.171875 C2.87207031 18.04265625 2.90429688 16.9134375 2.9375 15.75 C3.05441271 11.33781592 2.84763456 7.33673498 2 3 C0.68 2.67 -0.64 2.34 -2 2 C-1.34 1.34 -0.68 0.68 0 0 Z " fill="#DCD8D7" transform="translate(93,13)"/>
<path d="M0 0 C2.31 0.33 4.62 0.66 7 1 C8.92518893 7.09643161 6.69253323 11.54430973 4 17 C2.76126831 19.11043177 1.45411888 21.02655295 0 23 C-0.66 22.67 -1.32 22.34 -2 22 C-2.125 14.375 -2.125 14.375 -1 11 C-0.77820215 9.10787263 -0.59385985 7.21115528 -0.4375 5.3125 C-0.35371094 4.31863281 -0.26992187 3.32476562 -0.18359375 2.30078125 C-0.12300781 1.54152344 -0.06242187 0.78226563 0 0 Z " fill="#CFCAC8" transform="translate(84,40)"/>
<path d="M0 0 C0.66 0 1.32 0 2 0 C4.72327327 8.34002439 4.02152137 14.69772245 1.75390625 23.1328125 C1.06718688 25.74448099 0.50043681 28.34719903 0 31 C-2.875 31.125 -2.875 31.125 -6 31 C-6.66 30.34 -7.32 29.68 -8 29 C-7.360625 28.71125 -6.72125 28.4225 -6.0625 28.125 C-3.84793921 27.17176549 -3.84793921 27.17176549 -3 25 C-2.79099675 23.28588303 -2.6321697 21.56549635 -2.5 19.84375 C-2.4175 18.82152344 -2.335 17.79929687 -2.25 16.74609375 C-2.1675 15.67488281 -2.085 14.60367188 -2 13.5 C-1.83712127 11.38512152 -1.6706344 9.27051686 -1.5 7.15625 C-1.4278125 6.21587891 -1.355625 5.27550781 -1.28125 4.30664062 C-1 2 -1 2 0 0 Z " fill="#131212" transform="translate(117,36)"/>
<path d="M0 0 C0.99 0 1.98 0 3 0 C3.18433594 0.60328125 3.36867188 1.2065625 3.55859375 1.828125 C5.39264254 6.90689582 5.39264254 6.90689582 9.26953125 10.48828125 C11.49123381 11.4504359 13.68534217 12.29274344 16 13 C13.39859561 16.90210659 11.41986224 16.78072766 7 18 C5.63634717 18.95824253 4.29205831 19.94721175 3 21 C2.34 21 1.68 21 1 21 C0.731875 20.38125 0.46375 19.7625 0.1875 19.125 C-0.95556848 16.7004767 -0.95556848 16.7004767 -4 15 C-4 14.34 -4 13.68 -4 13 C-2.68 13 -1.36 13 0 13 C0.66 12.01 1.32 11.02 2 10 C3.32 11.32 4.64 12.64 6 14 C5.01 15.485 5.01 15.485 4 17 C5.32 15.68 6.64 14.36 8 13 C7.360625 12.46375 6.72125 11.9275 6.0625 11.375 C3.61470596 8.55632807 3.33285388 6.66139268 3 3 C2.01 2.67 1.02 2.34 0 2 C0 1.34 0 0.68 0 0 Z " fill="#D2CECC" transform="translate(28,28)"/>
<path d="M0 0 C0 0.66 0 1.32 0 2 C-1.65 2.33 -3.3 2.66 -5 3 C-5.04898438 3.97582031 -5.09796875 4.95164062 -5.1484375 5.95703125 C-5.22320312 7.22933594 -5.29796875 8.50164063 -5.375 9.8125 C-5.44460937 11.07707031 -5.51421875 12.34164062 -5.5859375 13.64453125 C-6 17 -6 17 -8 20 C-14.41917564 22.00599239 -19.17898263 20.02206128 -25 17 C-28.50292815 14.52231911 -28.89636842 13.51815788 -29.75 9.25 C-29.87375 7.64125 -29.87375 7.64125 -30 6 C-31.32 6.33 -32.64 6.66 -34 7 C-34 6.34 -34 5.68 -34 5 C-32.35 4.67 -30.7 4.34 -29 4 C-26.33961103 7.14409606 -25.2916209 10.12513731 -24 14 C-23.34 14.33 -22.68 14.66 -22 15 C-22 15.66 -22 16.32 -22 17 C-17.38 17 -12.76 17 -8 17 C-8.04125 15.47375 -8.0825 13.9475 -8.125 12.375 C-8.125 8.20442486 -7.77411641 4.84391888 -6 1 C-4 0 -4 0 0 0 Z " fill="#CAC6C4" transform="translate(128,51)"/>
<path d="M0 0 C0.33 0 0.66 0 1 0 C1.08365966 4.18298315 1.13980425 8.17670832 0.4375 12.3125 C0.00598226 14.96325185 0.13169541 16.49156451 1 19 C2.32 19.33 3.64 19.66 5 20 C5.66 16.7 6.32 13.4 7 10 C7.33 10 7.66 10 8 10 C8.28571429 17.42857143 8.28571429 17.42857143 6 21 C5.34 21 4.68 21 4 21 C4.33 22.32 4.66 23.64 5 25 C5.66 25 6.32 25 7 25 C7.99 22.03 8.98 19.06 10 16 C11.01527342 20.06109369 11.05430484 20.66966838 9.5625 24.25 C9.27503906 24.95640625 8.98757812 25.6628125 8.69140625 26.390625 C8.46324219 26.92171875 8.23507813 27.4528125 8 28 C4.76513406 27.29822123 3.10818805 26.63523506 1 24 C1 23.34 1 22.68 1 22 C0.38125 21.896875 -0.2375 21.79375 -0.875 21.6875 C-3 21 -3 21 -5 18 C-7.56282742 17.27034634 -7.56282742 17.27034634 -10 17 C-10 16.67 -10 16.34 -10 16 C-8.00045254 15.95745644 -5.99958364 15.95919217 -4 16 C-3.67 16.33 -3.34 16.66 -3 17 C-2.86722656 15.94039062 -2.73445313 14.88078125 -2.59765625 13.7890625 C-2.41946125 12.40101721 -2.2410654 11.01299769 -2.0625 9.625 C-1.97548828 8.92632812 -1.88847656 8.22765625 -1.79882812 7.5078125 C-1.11328125 2.2265625 -1.11328125 2.2265625 0 0 Z " fill="#5B595A" transform="translate(56,51)"/>
<path d="M0 0 C2.6855594 2.6855594 3.06049974 5.37621328 4 9 C4.59167969 8.97679687 5.18335938 8.95359375 5.79296875 8.9296875 C10.33801959 8.82588536 13.85940059 8.86291643 18 11 C18 11.33 18 11.66 18 12 C12.48570928 13.18163372 8.32489431 12.77496477 3 11 C2.30062468 9.68352881 1.63270867 8.34977849 1 7 C0.34 6.67 -0.32 6.34 -1 6 C-1.22745015 9.37399376 -1.42851745 12.74907252 -1.625 16.125 C-1.68945312 17.07632813 -1.75390625 18.02765625 -1.8203125 19.0078125 C-2.10594477 24.14919328 -2.12666217 28.17848347 0 33 C-0.66 33 -1.32 33 -2 33 C-4.82938587 29.29485184 -5.31693753 26.94747442 -4.75 22.375 C-4.62882813 21.32957031 -4.50765625 20.28414062 -4.3828125 19.20703125 C-4.25648437 18.14871094 -4.13015625 17.09039062 -4 16 C-3.87329971 14.02094145 -3.74820277 12.04177936 -3.625 10.0625 C-3.26884228 6.02215343 -2.58505698 3.25941967 0 0 Z " fill="#B4B0AE" transform="translate(6,29)"/>
<path d="M0 0 C1.32 0.33 2.64 0.66 4 1 C2.68 7.27 1.36 13.54 0 20 C-1.32 20.33 -2.64 20.66 -4 21 C-4.27166506 13.52921098 -3.57770698 6.67437773 0 0 Z " fill="#ECEAE9" transform="translate(61,48)"/>
<path d="M0 0 C0.66 0 1.32 0 2 0 C3.30434839 7.69565547 2.42924436 14.35767685 1 22 C0.34 22 -0.32 22 -1 22 C-3.48681694 18.26020991 -3.10546321 14.72372501 -2.75 10.4375 C-2.71003906 9.76525391 -2.67007813 9.09300781 -2.62890625 8.40039062 C-2.36608886 4.82394322 -2.03049014 3.0457352 0 0 Z " fill="#F0EFEE" transform="translate(110,39)"/>
<path d="M0 0 C0.66 0.33 1.32 0.66 2 1 C3.16999325 4.97797705 3.30521116 8.87964929 3 13 C1.8125 15 1.8125 15 0 16 C-2.6875 15.6875 -2.6875 15.6875 -5 15 C-5 13.35 -5 11.7 -5 10 C-4.34 10 -3.68 10 -3 10 C-3.061875 9.0925 -3.12375 8.185 -3.1875 7.25 C-2.98327924 3.71017358 -2.35448165 2.55068845 0 0 Z " fill="#A6A3A2" transform="translate(107,17)"/>
<path d="M0 0 C2.0625 0.25 2.0625 0.25 4 1 C5.4783226 3.95664519 5.06032783 6.74229737 5 10 C4.34 10 3.68 10 3 10 C2.34 9.34 1.68 8.68 1 8 C0.86722656 8.77085938 0.73445313 9.54171875 0.59765625 10.3359375 C0.33275391 11.84027344 0.33275391 11.84027344 0.0625 13.375 C-0.11152344 14.37273438 -0.28554687 15.37046875 -0.46484375 16.3984375 C-1 19 -1 19 -2 21 C-3.98 20.67 -5.96 20.34 -8 20 C-8.495 17.525 -8.495 17.525 -9 15 C-8.01 16.485 -8.01 16.485 -7 18 C-5.68 18 -4.36 18 -3 18 C-2.95101562 16.86820313 -2.90203125 15.73640625 -2.8515625 14.5703125 C-2.77653486 13.08851661 -2.70098703 11.606747 -2.625 10.125 C-2.5940625 9.37863281 -2.563125 8.63226563 -2.53125 7.86328125 C-2.2265625 2.2265625 -2.2265625 2.2265625 0 0 Z " fill="#A8A5A4" transform="translate(67,16)"/>
<path d="M0 0 C5.809861 0.5529385 10.43650239 1.42014983 15.64453125 4.08203125 C15.64453125 4.41203125 15.64453125 4.74203125 15.64453125 5.08203125 C9.2830252 5.73689217 3.04082104 6.20271596 -3.35546875 6.08203125 C-3.98046875 4.20703125 -3.98046875 4.20703125 -4.35546875 2.08203125 C-2.35546875 0.08203125 -2.35546875 0.08203125 0 0 Z " fill="#767475" transform="translate(27.35546875,21.91796875)"/>
<path d="M0 0 C0.99 0.33 1.98 0.66 3 1 C3.25 8.625 3.25 8.625 1 12 C1 12.99 1 13.98 1 15 C1.969375 15.268125 2.93875 15.53625 3.9375 15.8125 C4.948125 16.204375 5.95875 16.59625 7 17 C7.33 17.99 7.66 18.98 8 20 C10.01508358 20.73323796 10.01508358 20.73323796 12 21 C12.33 22.32 12.66 23.64 13 25 C12.49210937 24.59007813 11.98421875 24.18015625 11.4609375 23.7578125 C7.4359113 20.60713656 4.04815754 18.26203939 -1 17 C-2.59854133 11.0853971 -1.25890714 5.84715547 0 0 Z " fill="#A9A5A3" transform="translate(45,52)"/>
<path d="M0 0 C0.66 0 1.32 0 2 0 C2.92867074 2.78601223 3.16342217 4.61066089 3.1875 7.5 C3.20167969 8.2734375 3.21585937 9.046875 3.23046875 9.84375 C3 12 3 12 1 15 C-0.32 14.67 -1.64 14.34 -3 14 C-3.29341888 8.32723489 -3.00559652 5.00932754 0 0 Z " fill="#9E9D9C" transform="translate(81,18)"/>
<path d="M0 0 C0.33 2.97 0.66 5.94 1 9 C2.65 9 4.3 9 6 9 C6 9.99 6 10.98 6 12 C3.97954558 11.39816251 1.97888961 10.72693904 0 10 C-1.4783226 7.04335481 -1.06032783 4.25770263 -1 1 C-5.27241216 4.36189809 -5.8390182 7.86109923 -6.5 13 C-7.1609818 18.13890077 -7.72758784 21.63810191 -12 25 C-15.875 23.25 -15.875 23.25 -17 21 C-15.02 21.33 -13.04 21.66 -11 22 C-8.88829237 14.7216477 -7.22951674 7.47835477 -6 0 C-3 -1 -3 -1 0 0 Z " fill="#AAA7A5" transform="translate(75,56)"/>
<path d="M0 0 C0.99 0.33 1.98 0.66 3 1 C4.52814822 6.73055582 4.88136486 13.35590541 3 19 C1.68 18.67 0.36 18.34 -1 18 C-1.02684312 15.18743719 -1.04676188 12.37512759 -1.0625 9.5625 C-1.07506836 8.35883789 -1.07506836 8.35883789 -1.08789062 7.13085938 C-1.0965143 5.08704779 -1.0522815 3.04316098 -1 1 C-0.67 0.67 -0.34 0.34 0 0 Z " fill="#E8E6E5" transform="translate(18,47)"/>
<path d="M0 0 C0.99 0.99 1.98 1.98 3 3 C2.67 3.66 2.34 4.32 2 5 C1.34 5 0.68 5 0 5 C0.02320313 6.03640625 0.04640625 7.0728125 0.0703125 8.140625 C0.08907667 9.51040944 0.10727618 10.8802017 0.125 12.25 C0.15013672 13.27287109 0.15013672 13.27287109 0.17578125 14.31640625 C0.21213482 18.0608235 0.07944349 20.82352727 -2 24 C-4.875 24.125 -4.875 24.125 -8 24 C-8.66 23.34 -9.32 22.68 -10 22 C-10 21.01 -10 20.02 -10 19 C-7.69 19.33 -5.38 19.66 -3 20 C-2.95101563 18.72382812 -2.90203125 17.44765625 -2.8515625 16.1328125 C-2.77653809 14.46351928 -2.70099012 12.79424954 -2.625 11.125 C-2.5940625 10.28324219 -2.563125 9.44148438 -2.53125 8.57421875 C-2.47324219 7.36572266 -2.47324219 7.36572266 -2.4140625 6.1328125 C-2.3826416 5.38918457 -2.3512207 4.64555664 -2.31884766 3.87939453 C-2 2 -2 2 0 0 Z " fill="#B0ACAA" transform="translate(18,43)"/>
<path d="M0 0 C0.99 0.495 0.99 0.495 2 1 C3.10042896 5.57795812 3.13263137 10.1230716 3.09765625 14.8046875 C3.09553383 15.8906572 3.09553383 15.8906572 3.09336853 16.99856567 C3.08781075 19.29075407 3.07526633 21.58284157 3.0625 23.875 C3.05747953 25.43749858 3.05291759 26.99999871 3.04882812 28.5625 C3.03785519 32.37503835 3.0206201 36.18750212 3 40 C2.34 39.67 1.68 39.34 1 39 C1.00523682 38.32533691 1.01047363 37.65067383 1.01586914 36.95556641 C1.03688746 33.8453874 1.04973824 30.73522342 1.0625 27.625 C1.07087891 26.56410156 1.07925781 25.50320312 1.08789062 24.41015625 C1.10563629 18.62506953 0.91736497 12.97675773 0.21655273 7.23193359 C-0.01852382 4.80908145 -0.03401841 2.43271782 0 0 Z " fill="#C4BDBA" transform="translate(21,48)"/>
<path d="M0 0 C0.33 0 0.66 0 1 0 C0.89300781 1.16917969 0.78601563 2.33835938 0.67578125 3.54296875 C0.55380909 5.09107688 0.43276408 6.63925825 0.3125 8.1875 C0.23966797 8.95642578 0.16683594 9.72535156 0.09179688 10.51757812 C-0.26149834 15.3598008 0.04791064 17.93707289 3 22 C2.9375 24.1875 2.9375 24.1875 2 26 C0.68875163 26.70911913 -0.64402925 27.38067332 -2 28 C-2.0580966 24.0833957 -2.09362893 20.16690237 -2.125 16.25 C-2.14175781 15.13882813 -2.15851563 14.02765625 -2.17578125 12.8828125 C-2.18222656 11.81289063 -2.18867187 10.74296875 -2.1953125 9.640625 C-2.20578613 8.65610352 -2.21625977 7.67158203 -2.22705078 6.65722656 C-1.99489618 3.94026889 -1.39036273 2.31887487 0 0 Z " fill="#CBC6C4" transform="translate(2,40)"/>
<path d="M0 0 C1.65 0.33 3.3 0.66 5 1 C5.60302137 7.75383934 4.2964649 11.70337441 0 17 C-0.33 17 -0.66 17 -1 17 C-0.67 11.39 -0.34 5.78 0 0 Z " fill="#F7F6F6" transform="translate(85,40)"/>
<path d="M0 0 C2 3 2 3 2.9375 5.5625 C3.87138318 8.30504053 3.87138318 8.30504053 7 10 C7 11.32 7 12.64 7 14 C5.02 14.66 3.04 15.32 1 16 C0.34 20.95 -0.32 25.9 -1 31 C-1.66 30.67 -2.32 30.34 -3 30 C-2.91299202 27.56077639 -2.80613998 25.12521586 -2.6875 22.6875 C-2.66494141 21.99720703 -2.64238281 21.30691406 -2.61914062 20.59570312 C-2.39750548 16.4249327 -1.90473593 14.8415895 1 12 C1.14531394 9.01660601 1.14531394 9.01660601 0.6875 5.8125 C0.56761719 4.72582031 0.44773437 3.63914063 0.32421875 2.51953125 C0.21722656 1.68808594 0.11023438 0.85664062 0 0 Z " fill="#7C7A7B" transform="translate(121,37)"/>
<path d="M0 0 C0.99 0.33 1.98 0.66 3 1 C3 5.62 3 10.24 3 15 C-0.3 14.67 -3.6 14.34 -7 14 C-7 13.01 -7 12.02 -7 11 C-5.02 10.67 -3.04 10.34 -1 10 C-1.01740234 9.04287109 -1.01740234 9.04287109 -1.03515625 8.06640625 C-1.04417969 7.24011719 -1.05320312 6.41382813 -1.0625 5.5625 C-1.07410156 4.73878906 -1.08570313 3.91507813 -1.09765625 3.06640625 C-1 1 -1 1 0 0 Z " fill="#444343" transform="translate(33,49)"/>
<path d="M0 0 C0.53625 0.144375 1.0725 0.28875 1.625 0.4375 C6.48096796 1.58759767 10.10383875 2.08803583 15 1 C15.66 1.33 16.32 1.66 17 2 C17 2.99 17 3.98 17 5 C14.75135275 5.22245975 12.50097377 5.42746557 10.25 5.625 C8.37054688 5.79902344 8.37054688 5.79902344 6.453125 5.9765625 C3.16413097 5.99888599 1.68979224 5.77961002 -1 4 C-0.67 2.68 -0.34 1.36 0 0 Z " fill="#787677" transform="translate(55,34)"/>
<path d="M0 0 C0.66 0 1.32 0 2 0 C2 2.64 2 5.28 2 8 C2.66 8 3.32 8 4 8 C4.66 9.65 5.32 11.3 6 13 C5 14 5 14 2.0625 14.25 C1.051875 14.1675 0.04125 14.085 -1 14 C-3 11 -3 11 -2.5390625 8.30078125 C-2.23742187 7.31464844 -1.93578125 6.32851563 -1.625 5.3125 C-1.32851562 4.31863281 -1.03203125 3.32476563 -0.7265625 2.30078125 C-0.48679687 1.54152344 -0.24703125 0.78226563 0 0 Z " fill="#F4F3F2" transform="translate(86,22)"/>
<path d="M0 0 C1.76604889 1.68195132 2.99880969 2.9976855 4.125 5.1875 C6.8605428 7.83185804 9.26475791 7.39630939 12.94140625 7.3359375 C15.21943362 7.16989352 15.21943362 7.16989352 17 5 C17.33 6.32 17.66 7.64 18 9 C13.50267988 11.64128325 9.95547129 11.04929019 5 10 C1.9375 8.875 1.9375 8.875 0 7 C-0.3125 3.3125 -0.3125 3.3125 0 0 Z " fill="#D3CECC" transform="translate(0,93)"/>
<path d="M0 0 C0.99 0 1.98 0 3 0 C3.66 0.99 4.32 1.98 5 3 C8.72301503 3.47730962 9.79191085 3.1387261 13 1 C13.11269443 7.1105424 12.89604368 12.95170514 12 19 C11.67 19 11.34 19 11 19 C10.81548975 9.58997722 10.81548975 9.58997722 12 5 C10.6696875 5.3403125 10.6696875 5.3403125 9.3125 5.6875 C5.42209376 6.05451946 4.08559304 5.26881841 1 3 C0.87882812 3.71027344 0.75765625 4.42054687 0.6328125 5.15234375 C0.46523437 6.07144531 0.29765625 6.99054687 0.125 7.9375 C-0.03742188 8.85402344 -0.19984375 9.77054688 -0.3671875 10.71484375 C-0.57601562 11.46894531 -0.78484375 12.22304688 -1 13 C-1.99 13.495 -1.99 13.495 -3 14 C-2.69249629 11.85344499 -2.3788634 9.70776715 -2.0625 7.5625 C-1.88847656 6.36753906 -1.71445313 5.17257813 -1.53515625 3.94140625 C-1 1 -1 1 0 0 Z " fill="#4D4C4C" transform="translate(93,39)"/>
<path d="M0 0 C0.33 0 0.66 0 1 0 C1.33 2.64 1.66 5.28 2 8 C2.99 8 3.98 8 5 8 C5.66 7.34 6.32 6.68 7 6 C7.144375 6.78375 7.28875 7.5675 7.4375 8.375 C7.87798925 10.96421018 7.87798925 10.96421018 9 13 C8.113125 12.814375 7.22625 12.62875 6.3125 12.4375 C3.10093668 11.8247319 3.10093668 11.8247319 0.375 12.5625 C-2.48107843 13.08861971 -3.58857883 12.51830222 -6 11 C-5.67 8.69 -5.34 6.38 -5 4 C-4.7834375 4.928125 -4.7834375 4.928125 -4.5625 5.875 C-4.06847775 8.03258322 -4.06847775 8.03258322 -3 10 C-2.34 10 -1.68 10 -1 10 C-0.67 6.7 -0.34 3.4 0 0 Z " fill="#C4BDBA" transform="translate(77,24)"/>
<path d="M0 0 C0.99 0.33 1.98 0.66 3 1 C2.67 8.26 2.34 15.52 2 23 C0 21 0 21 -0.1953125 17.0859375 C-0.18200376 15.51550649 -0.15813602 13.94513779 -0.125 12.375 C-0.11597656 11.57320312 -0.10695313 10.77140625 -0.09765625 9.9453125 C-0.07406223 7.96341477 -0.03819065 5.98167019 0 4 C-0.66 4.66 -1.32 5.32 -2 6 C-4.625 6.125 -4.625 6.125 -7 6 C-7.66 4.68 -8.32 3.36 -9 2 C-7.515 2.99 -7.515 2.99 -6 4 C-5.01 4 -4.02 4 -3 4 C-1.29467677 2.05990478 -1.29467677 2.05990478 0 0 Z " fill="#7D7B7C" transform="translate(105,37)"/>
<path d="M0 0 C2 1.5625 2 1.5625 4 4 C4.25 7.75 4.25 7.75 4 11 C2.34385343 11.38218767 0.67542976 11.71395102 -1 12 C-1.33 11.67 -1.66 11.34 -2 11 C-1.62206515 7.09467317 -1.23947487 3.7184246 0 0 Z " fill="#9E9D9C" transform="translate(92,19)"/>
<path d="M0 0 C1.67542976 0.28604898 3.34385343 0.61781233 5 1 C5.33 2.98 5.66 4.96 6 7 C5.34 5.68 4.68 4.36 4 3 C3.01 3.33 2.02 3.66 1 4 C0.13852726 10.97761838 0.13852726 10.97761838 0 18 C-1.65 18.66 -3.3 19.32 -5 20 C-5.66 19.34 -6.32 18.68 -7 18 C-5.68 17.67 -4.36 17.34 -3 17 C-2.86722656 15.85660156 -2.73445313 14.71320312 -2.59765625 13.53515625 C-2.4194969 12.0442438 -2.24109918 10.55335982 -2.0625 9.0625 C-1.93198242 7.93038086 -1.93198242 7.93038086 -1.79882812 6.77539062 C-1.11328125 1.11328125 -1.11328125 1.11328125 0 0 Z " fill="#C4BDBA" transform="translate(53,17)"/>
<path d="M0 0 C0.66 0.33 1.32 0.66 2 1 C1.85930804 3.12534659 1.71229079 5.25027529 1.5625 7.375 C1.48128906 8.55835938 1.40007812 9.74171875 1.31640625 10.9609375 C1 14 1 14 0 16 C-1.32 15.67 -2.64 15.34 -4 15 C-3.5253725 12.6865641 -3.04517721 10.37426981 -2.5625 8.0625 C-2.29566406 6.77472656 -2.02882813 5.48695312 -1.75390625 4.16015625 C-1 1 -1 1 0 0 Z " fill="#EDEBEB" transform="translate(113,19)"/>
<path d="M0 0 C0 3.96 0 7.92 0 12 C-1.65 11.01 -3.3 10.02 -5 9 C-5.8125 5.3125 -5.8125 5.3125 -6 2 C-1.125 0 -1.125 0 0 0 Z " fill="#9E9D9C" transform="translate(128,35)"/>
<path d="M0 0 C1.49080078 0.16628906 1.49080078 0.16628906 3.01171875 0.3359375 C3.77097656 0.43132813 4.53023437 0.52671875 5.3125 0.625 C5.6425 1.615 5.9725 2.605 6.3125 3.625 C5.9825 3.955 5.6525 4.285 5.3125 4.625 C3.16796875 4.57421875 3.16796875 4.57421875 0.5 4.3125 C-0.37269531 4.23386719 -1.24539062 4.15523437 -2.14453125 4.07421875 C-4.67363225 3.62744976 -6.46963548 2.89161261 -8.6875 1.625 C-5.1388865 -0.74074234 -4.1110475 -0.48365265 0 0 Z " fill="#C9C3C0" transform="translate(53.6875,39.375)"/>
<path d="M0 0 C0.66 0 1.32 0 2 0 C2.25465752 17.79773077 2.25465752 17.79773077 1 24 C0.34 24.33 -0.32 24.66 -1 25 C-1.12190678 16.60197746 -0.84327749 8.35748222 0 0 Z " fill="#727171" transform="translate(115,25)"/>
<path d="M0 0 C0.33 0 0.66 0 1 0 C1.05411124 2.41696872 1.09372278 4.83271787 1.125 7.25 C1.14175781 7.93191406 1.15851562 8.61382812 1.17578125 9.31640625 C1.21213482 13.0608235 1.07944349 15.82352727 -1 19 C-1.33 18.34 -1.66 17.68 -2 17 C-4.31 17.33 -6.62 17.66 -9 18 C-9 16.68 -9 15.36 -9 14 C-6.36 14 -3.72 14 -1 14 C-1.01160156 13.32453125 -1.02320313 12.6490625 -1.03515625 11.953125 C-1.04417969 11.06109375 -1.05320312 10.1690625 -1.0625 9.25 C-1.07410156 8.36828125 -1.08570313 7.4865625 -1.09765625 6.578125 C-1.00826198 4.2181162 -0.66912821 2.25501476 0 0 Z " fill="#A9A6A5" transform="translate(37,51)"/>
<path d="M0 0 C1.65 0.33 3.3 0.66 5 1 C5 4.96 5 8.92 5 13 C4.67 13 4.34 13 4 13 C3.01 8.05 3.01 8.05 2 3 C-1.31012244 6.31012244 -1.50351065 7.53159589 -2 12 C-2.66 12 -3.32 12 -4 12 C-3.28571429 3.42857143 -3.28571429 3.42857143 0 0 Z " fill="#C1BAB8" transform="translate(106,15)"/>
<path d="M0 0 C2 3 2 3 1.75 5.703125 C0.90741167 9.40700285 -0.00616857 13.0843464 -1 16.75 C-1.17789063 17.42160156 -1.35578125 18.09320313 -1.5390625 18.78515625 C-2.8691829 23.7383658 -2.8691829 23.7383658 -4 26 C-5.32 25.67 -6.64 25.34 -8 25 C-7.01 25 -6.02 25 -5 25 C-4.80664062 23.865625 -4.61328125 22.73125 -4.4140625 21.5625 C-4.15119775 20.04163968 -3.88816808 18.52080786 -3.625 17 C-3.49867187 16.25621094 -3.37234375 15.51242188 -3.2421875 14.74609375 C-2.37537888 9.76194421 -1.27933907 4.89486253 0 0 Z " fill="#8F8D8D" transform="translate(65,45)"/>
<path d="M0 0 C3.97132519 0.32199934 6.70665213 1.83579997 10 4 C10.66 2.68 11.32 1.36 12 0 C12.99 0.33 13.98 0.66 15 1 C12.75 3.5625 12.75 3.5625 10 6 C8 5.875 8 5.875 6 5 C4.33480481 4.65939189 2.66842534 4.32441604 1 4 C0.34 4.99 -0.32 5.98 -1 7 C-1.625 4.625 -1.625 4.625 -2 2 C-1.34 1.34 -0.68 0.68 0 0 Z " fill="#949392" transform="translate(92,36)"/>
<path d="M0 0 C1.97094808 4.92737019 2.1799928 8.78020872 2 14 C1.67 14 1.34 14 1 14 C0.86722656 13.36191406 0.73445313 12.72382813 0.59765625 12.06640625 C0.42105469 11.24011719 0.24445313 10.41382813 0.0625 9.5625 C-0.11152344 8.73878906 -0.28554687 7.91507813 -0.46484375 7.06640625 C-0.80752994 5.02338796 -0.80752994 5.02338796 -2 4 C-2.66 5.65 -3.32 7.3 -4 9 C-5.76462683 5.91190305 -6 4.76687864 -6 1 C-4 0 -4 0 0 0 Z " fill="#C4BDBA" transform="translate(95,16)"/>
<path d="M0 0 C0.66 0.33 1.32 0.66 2 1 C2 4.63 2 8.26 2 12 C1.01 12.495 1.01 12.495 0 13 C-0.66 12.67 -1.32 12.34 -2 12 C-1.85904936 10.3745692 -1.71207913 8.74965949 -1.5625 7.125 C-1.48128906 6.22007813 -1.40007813 5.31515625 -1.31640625 4.3828125 C-1 2 -1 2 0 0 Z " fill="#4A4949" transform="translate(13,50)"/>
<path d="M0 0 C1.65 0.99 3.3 1.98 5 3 C4.01 4.32 3.02 5.64 2 7 C2.33 7.66 2.66 8.32 3 9 C0.0280615 7.87548273 -2.33440687 6.77706209 -5 5 C-5 4.34 -5 3.68 -5 3 C-3.68 3 -2.36 3 -1 3 C-0.67 2.01 -0.34 1.02 0 0 Z " fill="#DEDAD9" transform="translate(29,38)"/>
<path d="M0 0 C0.66 0 1.32 0 2 0 C2.96891192 5.37305699 2.96891192 5.37305699 3 8 C1.5625 10 1.5625 10 0 11 C-2.46977731 4.60763521 -2.46977731 4.60763521 -1 1 C-0.67 0.67 -0.34 0.34 0 0 Z " fill="#A8A5A3" transform="translate(9,44)"/>
<path d="M0 0 C2.86095641 1.2824977 5.11365918 2.45343989 7 5 C7.1875 7.6875 7.1875 7.6875 7 10 C6.01 10.33 5.02 10.66 4 11 C0.71428571 3.57142857 0.71428571 3.57142857 0 0 Z " fill="#4A4949" transform="translate(21,43)"/>
<path d="M0 0 C0.33 0 0.66 0 1 0 C0.97679687 1.08539063 0.95359375 2.17078125 0.9296875 3.2890625 C0.9109173 4.73436807 0.89271844 6.17968115 0.875 7.625 C0.85824219 8.33785156 0.84148437 9.05070312 0.82421875 9.78515625 C0.78315398 14.2612164 1.30913433 17.77949278 3 22 C2.34 22 1.68 22 1 22 C-1.93639189 18.19667337 -2.30226201 15.70623275 -1.75 11 C-1.64171875 9.989375 -1.5334375 8.97875 -1.421875 7.9375 C-1.03808246 5.26516679 -0.56289911 2.63980274 0 0 Z " fill="#9E9D9C" transform="translate(3,40)"/>
<path d="M0 0 C0.99 0 1.98 0 3 0 C4.89849757 4.01547304 5.27018226 7.2625401 5.25 11.6875 C5.25773437 13.39486328 5.25773437 13.39486328 5.265625 15.13671875 C5 18 5 18 3 20 C3.01160156 19.27554688 3.02320312 18.55109375 3.03515625 17.8046875 C3.08231311 12.75216677 3.07377564 7.96621233 2 3 C0.68 2.67 -0.64 2.34 -2 2 C-1.34 1.34 -0.68 0.68 0 0 Z " fill="#E2DFDE" transform="translate(93,13)"/>
<path d="M0 0 C7.82152466 0.03408072 7.82152466 0.03408072 10.7109375 2.40234375 C12.0625 4.0625 12.0625 4.0625 14 7 C10.09161134 7 8.88405893 5.49432124 6 3 C5.67 3.99 5.34 4.98 5 6 C4.34 5.34 3.68 4.68 3 4 C2.01 4.495 2.01 4.495 1 5 C0.505 2.525 0.505 2.525 0 0 Z " fill="#817F80" transform="translate(15,40)"/>
<path d="M0 0 C0.99 0 1.98 0 3 0 C4.125 6.75 4.125 6.75 3 9 C2.01 8.67 1.02 8.34 0 8 C-1.125 2.25 -1.125 2.25 0 0 Z " fill="#787677" transform="translate(54,23)"/>
<path d="M0 0 C2.31 0.33 4.62 0.66 7 1 C7.33 1.99 7.66 2.98 8 4 C5.1875 4.6875 5.1875 4.6875 2 5 C0.125 3.5625 0.125 3.5625 -1 2 C-0.67 1.34 -0.34 0.68 0 0 Z " fill="#6C6B6B" transform="translate(38,35)"/>
<path d="M0 0 C1.65 0.33 3.3 0.66 5 1 C5 4.96 5 8.92 5 13 C4.67 13 4.34 13 4 13 C3.67 9.37 3.34 5.74 3 2 C-0.03268602 4.83656989 -0.03268602 4.83656989 -2 8 C-1.125 1.125 -1.125 1.125 0 0 Z " fill="#C4BDBA" transform="translate(80,16)"/>
<path d="M0 0 C2.0625 0.25 2.0625 0.25 4 1 C5.4783226 3.95664519 5.06032783 6.74229737 5 10 C4.71125 9.401875 4.4225 8.80375 4.125 8.1875 C2.95257974 5.80672208 2.95257974 5.80672208 1 3 C0.34 5.31 -0.32 7.62 -1 10 C-1.33 10 -1.66 10 -2 10 C-2.1953125 3.9453125 -2.1953125 3.9453125 -2 2 C-1.34 1.34 -0.68 0.68 0 0 Z " fill="#C4BDBA" transform="translate(67,16)"/>
<path d="M0 0 C1.01527342 4.06109369 1.05430484 4.66966838 -0.4375 8.25 C-0.72496094 8.95640625 -1.01242188 9.6628125 -1.30859375 10.390625 C-1.53675781 10.92171875 -1.76492187 11.4528125 -2 12 C-4.16874252 11.49396008 -5.99967627 11.00016187 -8 10 C-7.67 8.35 -7.34 6.7 -7 5 C-6.34 6.32 -5.68 7.64 -5 9 C-4.34 9 -3.68 9 -3 9 C-2.01 6.03 -1.02 3.06 0 0 Z " fill="#585657" transform="translate(66,67)"/>
<path d="M0 0 C1.5625 1.125 1.5625 1.125 3 3 C2.6875 6.1875 2.6875 6.1875 2 9 C1.01 9 0.02 9 -1 9 C-1.80967438 6.08517222 -2.21845993 4.53886783 -1.0625 1.6875 C-0.711875 1.130625 -0.36125 0.57375 0 0 Z " fill="#787677" transform="translate(68,23)"/>
<path d="M0 0 C0.66 0 1.32 0 2 0 C2.625 2.3125 2.625 2.3125 3 5 C2.01 6.485 2.01 6.485 1 8 C-0.32 7.67 -1.64 7.34 -3 7 C-1.125 1.125 -1.125 1.125 0 0 Z " fill="#787677" transform="translate(106,22)"/>
<path d="M0 0 C0.99 0 1.98 0 3 0 C5.32590854 3.63423209 5.16265833 6.77088331 5 11 C4.34 10.67 3.68 10.34 3 10 C3 7.69 3 5.38 3 3 C2.01 3 1.02 3 0 3 C0 5.64 0 8.28 0 11 C-0.66 10.67 -1.32 10.34 -2 10 C-1.85950482 8.52031676 -1.71245174 7.04125484 -1.5625 5.5625 C-1.48128906 4.73878906 -1.40007813 3.91507813 -1.31640625 3.06640625 C-1 1 -1 1 0 0 Z " fill="#9E9D9C" transform="translate(54,20)"/>
<path d="M0 0 C0.33 0 0.66 0 1 0 C1.17835515 4.54805635 0.99785435 7.8794254 -1 12 C-2.32 12 -3.64 12 -5 12 C-5.33 10.02 -5.66 8.04 -6 6 C-5.34 7.32 -4.68 8.64 -4 10 C-3.34 10 -2.68 10 -2 10 C-1.34 6.7 -0.68 3.4 0 0 Z " fill="#9B9897" transform="translate(113,51)"/>
<path d="M0 0 C2.62799102 1.86502588 3.86365751 3.30410791 4.48828125 6.4921875 C4.72593573 8.9964272 4.9040664 11.48653979 5 14 C3.02 14.99 3.02 14.99 1 16 C1.185625 14.96875 1.37125 13.9375 1.5625 12.875 C2.101013 8.10531343 1.5063443 4.51903291 0 0 Z " fill="#4A4949" transform="translate(45,48)"/>
<path d="M0 0 C0.99 0.495 0.99 0.495 2 1 C3.14242743 5.68395246 3.08252495 10.21355271 3 15 C2.34 15 1.68 15 1 15 C0.83013455 13.43784452 0.66426036 11.8752548 0.5 10.3125 C0.4071875 9.44238281 0.314375 8.57226562 0.21875 7.67578125 C0.00840136 5.10276661 -0.03719144 2.58015636 0 0 Z " fill="#B2AEAC" transform="translate(21,48)"/>
<path d="M0 0 C0.66 0.66 1.32 1.32 2 2 C1.76893348 7.77666304 -0.24195617 12.06117734 -3 17 C-3.5859375 15.140625 -3.5859375 15.140625 -4 13 C-3.319375 11.88625 -3.319375 11.88625 -2.625 10.75 C-0.46731427 7.09853184 -0.35643847 4.205974 0 0 Z " fill="#B3AFAD" transform="translate(90,41)"/>
<path d="M0 0 C0.99 0.33 1.98 0.66 3 1 C3 2.32 3 3.64 3 5 C0.03 4.67 -2.94 4.34 -6 4 C-4.03617993 2.49440461 -2.21736634 1.10868317 0 0 Z " fill="#C8C1BE" transform="translate(76,38)"/>
<path d="M0 0 C2 2 2 2 2.125 5.125 C2.08375 6.07375 2.0425 7.0225 2 8 C0.68 8.33 -0.64 8.66 -2 9 C-2.25 3.375 -2.25 3.375 0 0 Z " fill="#787677" transform="translate(81,22)"/>
<path d="M0 0 C0 0.99 0 1.98 0 3 C-2.31 3 -4.62 3 -7 3 C-7.495 4.98 -7.495 4.98 -8 7 C-7.74438677 4.6568787 -7.40729228 2.32156597 -7 0 C-4.3333581 -1.33332095 -2.83319697 -0.67102033 0 0 Z " fill="#565555" transform="translate(76,53)"/>
<path d="M0 0 C0.33 0 0.66 0 1 0 C0.85786703 1.89611434 0.71113093 3.79188394 0.5625 5.6875 C0.48128906 6.74324219 0.40007812 7.79898438 0.31640625 8.88671875 C0.03548319 11.65086297 -0.40156852 14.28945741 -1 17 C-1.33 17 -1.66 17 -2 17 C-2.05418326 14.91695462 -2.09287551 12.83350232 -2.125 10.75 C-2.14820313 9.58984375 -2.17140625 8.4296875 -2.1953125 7.234375 C-2.0103949 4.17213954 -1.60823023 2.55797249 0 0 Z " fill="#C4BDBA" transform="translate(2,40)"/>
<path d="M0 0 C0.33 0 0.66 0 1 0 C1.05406122 1.93719378 1.09282025 3.87481921 1.125 5.8125 C1.14820312 6.89144531 1.17140625 7.97039062 1.1953125 9.08203125 C1 12 1 12 -1 15 C-4.625 15.1875 -4.625 15.1875 -8 15 C-8 14.67 -8 14.34 -8 14 C-7.030625 13.71125 -6.06125 13.4225 -5.0625 13.125 C-1.89335797 12.35785318 -1.89335797 12.35785318 -1 10 C-0.77377919 8.29636178 -0.59111527 6.58671299 -0.4375 4.875 C-0.35371094 3.96492188 -0.26992187 3.05484375 -0.18359375 2.1171875 C-0.12300781 1.41851562 -0.06242187 0.71984375 0 0 Z " fill="#CCC7C5" transform="translate(93,58)"/>
<path d="M0 0 C0.66 0.66 1.32 1.32 2 2 C1.9765625 4.6015625 1.9765625 4.6015625 1.625 7.625 C1.51414063 8.62789062 1.40328125 9.63078125 1.2890625 10.6640625 C1.19367187 11.43492188 1.09828125 12.20578125 1 13 C-1.12508244 9.81237635 -1.5020163 7.73487777 -2 4 C-1.34 4 -0.68 4 0 4 C0 2.68 0 1.36 0 0 Z " fill="#E2DFDE" transform="translate(43,50)"/>
<path d="M0 0 C0.99 0.33 1.98 0.66 3 1 C2.625 3.9375 2.625 3.9375 2 7 C1.01 7.495 1.01 7.495 0 8 C-0.38063221 5.6739143 -0.71269945 3.33944736 -1 1 C-0.67 0.67 -0.34 0.34 0 0 Z " fill="#4A4949" transform="translate(13,41)"/>
<path d="M0 0 C1.9375 0.3125 1.9375 0.3125 4 1 C4.33 1.99 4.66 2.98 5 4 C3.35 4.33 1.7 4.66 0 5 C-0.33 4.01 -0.66 3.02 -1 2 C-0.67 1.34 -0.34 0.68 0 0 Z " fill="#696768" transform="translate(55,34)"/>
<path d="M0 0 C0.99 0.33 1.98 0.66 3 1 C3 2.65 3 4.3 3 6 C2.01 6.33 1.02 6.66 0 7 C-0.93423645 3.98968256 -1.04449911 3.13349732 0 0 Z " fill="#787677" transform="translate(92,24)"/>
<path d="M0 0 C1.10740461 3.32221382 0.97233311 5.64103108 0 9 C-0.66 9.66 -1.32 10.32 -2 11 C-2 8.36 -2 5.72 -2 3 C-1.34 3 -0.68 3 0 3 C0 2.01 0 1.02 0 0 Z " fill="#848282" transform="translate(47,53)"/>
<path d="M0 0 C0.99 0.33 1.98 0.66 3 1 C2.67 2.65 2.34 4.3 2 6 C1.01 5.67 0.02 5.34 -1 5 C-0.67 3.35 -0.34 1.7 0 0 Z " fill="#131212" transform="translate(33,49)"/>
<path d="M0 0 C0.99 0.33 1.98 0.66 3 1 C2.67 2.65 2.34 4.3 2 6 C1.01 5.67 0.02 5.34 -1 5 C-0.67 3.35 -0.34 1.7 0 0 Z " fill="#EEEDEC" transform="translate(18,47)"/>
<path d="M0 0 C0.66 0 1.32 0 2 0 C3.125 3.75 3.125 3.75 2 6 C0.68 5.67 -0.64 5.34 -2 5 C-1.34 3.35 -0.68 1.7 0 0 Z " fill="#FDFDFD" transform="translate(111,29)"/>
<path d="M0 0 C2.475 0.495 2.475 0.495 5 1 C4.67 1.99 4.34 2.98 4 4 C2.68 4 1.36 4 0 4 C0 2.68 0 1.36 0 0 Z " fill="#C8C2C0" transform="translate(28,65)"/>
<path d="M0 0 C0.66 0.33 1.32 0.66 2 1 C2 2.65 2 4.3 2 6 C1.01 6 0.02 6 -1 6 C-1.33 5.01 -1.66 4.02 -2 3 C-1.34 2.01 -0.68 1.02 0 0 Z " fill="#9E9D9C" transform="translate(29,53)"/>
<path d="M0 0 C0.99 0 1.98 0 3 0 C3 1.65 3 3.3 3 5 C1.68 4.67 0.36 4.34 -1 4 C-0.67 2.68 -0.34 1.36 0 0 Z " fill="#E2DFDE" transform="translate(122,30)"/>
</svg>
