<?xml version="1.0" encoding="UTF-8"?>
<svg version="1.1" xmlns="http://www.w3.org/2000/svg" width="128" height="128">
<path d="M0 0 C42.24 0 84.48 0 128 0 C128 42.24 128 84.48 128 128 C85.76 128 43.52 128 0 128 C0 85.76 0 43.52 0 0 Z " fill="#2D3DCC" transform="translate(0,0)"/>
<path d="M0 0 C2.1875 0.015625 2.1875 0.015625 5 1 C7.03410067 3.35917056 8.47722627 6.04196283 10 8.75 C10.95704378 10.38617165 11.91543601 12.02155511 12.875 13.65625 C13.37773438 14.5225 13.88046875 15.38875 14.3984375 16.28125 C17.7066557 21.89715212 21.21020047 27.39489339 24.671875 32.91699219 C27.33461485 37.19616013 29.85330635 41.43827598 32 46 C29.8125 48.0625 29.8125 48.0625 27 50 C24.50341797 49.87646484 24.50341797 49.87646484 22 49 C20.44189453 47.22509766 20.44189453 47.22509766 19.1328125 44.9140625 C18.64264648 44.07004883 18.15248047 43.22603516 17.64746094 42.35644531 C16.89384277 41.00437988 16.89384277 41.00437988 16.125 39.625 C15.07138332 37.79886092 14.01670162 35.9733359 12.9609375 34.1484375 C12.45530273 33.26381836 11.94966797 32.37919922 11.42871094 31.46777344 C8.77298164 26.88060465 5.89260229 22.44075562 3 18 C0.63141278 18.01792788 0.63141278 18.01792788 -2 19 C-3.61471991 21.09381263 -4.85953549 22.96416094 -6.125 25.25 C-6.78757812 26.38953125 -7.45015625 27.5290625 -8.1328125 28.703125 C-8.74898437 29.79109375 -9.36515625 30.8790625 -10 32 C-10.57105469 32.89589844 -11.14210938 33.79179688 -11.73046875 34.71484375 C-13.3376312 37.60773616 -13.22719622 39.7435209 -13 43 C-11.515 43.495 -11.515 43.495 -10 44 C-8.140625 45.890625 -8.140625 45.890625 -6.25 48.25 C-5.61578125 49.01828125 -4.9815625 49.7865625 -4.328125 50.578125 C-3 53 -3 53 -3.21875 55.6796875 C-4.09908155 58.29427221 -4.6703395 59.50236111 -7 61 C-9.4375 60.9375 -9.4375 60.9375 -12 60 C-12.639375 59.319375 -13.27875 58.63875 -13.9375 57.9375 C-15.92571357 55.66421123 -15.92571357 55.66421123 -19.25 55.75 C-20.1575 55.8325 -21.065 55.915 -22 56 C-22.33 56.99 -22.66 57.98 -23 59 C-25.0625 59.6875 -25.0625 59.6875 -27 60 C-30.89576544 54.15635184 -29.52290409 46.27562062 -28.453125 39.57421875 C-26.52237346 31.96960772 -23.20802153 27.35812955 -17.73046875 21.83203125 C-14.78432946 18.77630738 -12.23330155 15.57545619 -9.6875 12.1875 C-6.55876876 8.02447744 -3.3588456 3.97711098 0 0 Z " fill="#F2F3F8" transform="translate(66,29)"/>
<path d="M0 0 C1.08155503 1.95709957 2.05631317 3.97282088 3 6 C4.0290269 7.68535186 5.08266195 9.35577919 6.15234375 11.015625 C7.08953247 12.47524658 7.08953247 12.47524658 8.0456543 13.96435547 C9.01305542 15.46699951 9.01305542 15.46699951 10 17 C11.21454403 18.90300647 12.42810089 20.80664338 13.640625 22.7109375 C14.23617187 23.64550781 14.83171875 24.58007812 15.4453125 25.54296875 C16.04085937 26.47753906 16.63640625 27.41210938 17.25 28.375 C17.86101562 29.33277344 18.47203125 30.29054688 19.1015625 31.27734375 C19.69195312 32.20417969 20.28234375 33.13101563 20.890625 34.0859375 C21.41688477 34.9114209 21.94314453 35.7369043 22.48535156 36.58740234 C23.55608824 38.29291812 24.60269792 40.01369389 25.63183594 41.74462891 C26.8113673 43.89064092 26.8113673 43.89064092 28 45 C28.04080783 46.99958364 28.04254356 49.00045254 28 51 C26.75823305 51.70226141 25.50614401 52.38629109 24.25 53.0625 C23.55390625 53.44535156 22.8578125 53.82820313 22.140625 54.22265625 C19.5407956 55.16675488 18.56364674 54.96105821 16 54 C14.66308594 52.53222656 14.66308594 52.53222656 13.484375 50.640625 C13.04134033 49.94267822 12.59830566 49.24473145 12.1418457 48.52563477 C11.68253662 47.77467529 11.22322754 47.02371582 10.75 46.25 C10.27199951 45.4880835 9.79399902 44.72616699 9.30151367 43.94116211 C8.32697623 42.38388807 7.35780886 40.82324057 6.39404297 39.25927734 C5.11137379 37.18049965 3.81173074 35.1137911 2.50390625 33.05078125 C-3 24.30256725 -3 24.30256725 -3 22 C-4.87152035 22.03882354 -4.87152035 22.03882354 -7 23 C-8.58778897 25.03260555 -9.88422457 26.9243473 -11.1875 29.125 C-11.88230469 30.24132812 -12.57710937 31.35765625 -13.29296875 32.5078125 C-15.11723989 36.23984546 -15.97614581 38.84459998 -16 43 C-14.46169348 45.88737705 -14.46169348 45.88737705 -12.125 48.3125 C-11.38507812 49.15425781 -10.64515625 49.99601562 -9.8828125 50.86328125 C-9.26148437 51.56839844 -8.64015625 52.27351563 -8 53 C-6.56264754 55.87470493 -6.61827351 57.81894588 -7 61 C-9.59158961 63.89648251 -11.2226093 64.87307907 -15.0625 65.5 C-18.65841567 64.88792925 -19.48648193 63.51351807 -22 61 C-25.12026346 61.07800659 -26.57840598 61.65745486 -29 63.625 C-31 65 -31 65 -33.75 64.6875 C-34.4925 64.460625 -35.235 64.23375 -36 64 C-38.98169793 55.05490622 -37.85709595 42.51566639 -34 34 C-31.34418947 29.18019571 -27.67751224 25.34048314 -24.00390625 21.28125 C-21.72353726 18.68527439 -19.68593231 15.97279943 -17.640625 13.19140625 C-15.58095026 10.44026928 -13.45941037 7.74613796 -11.3125 5.0625 C-10.56613281 4.12535156 -9.81976563 3.18820313 -9.05078125 2.22265625 C-6.22509244 -0.83985219 -3.81335379 -1.78750959 0 0 Z M-8.4453125 4.38671875 C-9.35119759 5.47658274 -10.24365983 6.57769333 -11.125 7.6875 C-11.60074463 8.26749756 -12.07648926 8.84749512 -12.56665039 9.44506836 C-16.77093349 14.60743019 -20.81323453 19.89770467 -24.80859375 25.22265625 C-27 28 -27 28 -29.14453125 30.00390625 C-35.34501541 36.67432184 -35.43237082 47.51899736 -35.3359375 56.1015625 C-35.2005686 59.19229747 -35.2005686 59.19229747 -33 62 C-31.35 61.34 -29.7 60.68 -28 60 C-28 59.34 -28 58.68 -28 58 C-22.85070892 57.38698916 -22.85070892 57.38698916 -20.40625 59.1484375 C-19.9009375 59.61507812 -19.395625 60.08171875 -18.875 60.5625 C-16.35011512 63.23577066 -16.35011512 63.23577066 -13.8125 63 C-11.68499099 61.82620193 -10.37563258 61.02724801 -9 59 C-9.38068947 54.83356521 -10.8580458 52.42120245 -13.4375 49.1875 C-14.05496094 48.39730469 -14.67242187 47.60710937 -15.30859375 46.79296875 C-15.86675781 46.20128906 -16.42492187 45.60960937 -17 45 C-17.66 45 -18.32 45 -19 45 C-19.61745695 39.21917114 -17.6945888 36.0558018 -14.6875 31.375 C-14.28337891 30.72015625 -13.87925781 30.0653125 -13.46289062 29.390625 C-11.44437815 26.14787651 -9.35957082 23.00864369 -7 20 C-4.69140625 20.1953125 -4.69140625 20.1953125 -2 21 C-0.40234375 23.0546875 -0.40234375 23.0546875 1.0625 25.875 C4.30127031 31.81994283 7.80019807 37.53980413 11.4375 43.25 C11.98220947 44.10835449 12.52691895 44.96670898 13.08813477 45.85107422 C14.3901919 47.90193344 15.6941373 49.95156267 17 52 C19.89802603 51.80946422 19.89802603 51.80946422 23 51 C24.70326225 49.02122479 24.70326225 49.02122479 26 47 C20.71308559 38.22448573 15.39935062 29.46581016 10.05419922 20.72564697 C9.09381659 19.15357089 8.13658079 17.5795735 7.1796875 16.00537109 C5.69764598 13.57691719 4.19735635 11.16122321 2.6875 8.75 C2.26299561 8.04883057 1.83849121 7.34766113 1.40112305 6.62524414 C0.11952203 4.53178882 0.11952203 4.53178882 -2 2 C-6.09241646 1.53434602 -6.09241646 1.53434602 -8.4453125 4.38671875 Z " fill="#8F9BD8" transform="translate(72,27)"/>
</svg>
