<?xml version="1.0" encoding="UTF-8"?>
<svg version="1.1" xmlns="http://www.w3.org/2000/svg" width="128" height="128">
<path d="M0 0 C42.24 0 84.48 0 128 0 C128 42.24 128 84.48 128 128 C85.76 128 43.52 128 0 128 C0 85.76 0 43.52 0 0 Z " fill="#FDFDFD" transform="translate(0,0)"/>
<path d="M0 0 C2.3125 -0.3125 2.3125 -0.3125 5 0 C7.26359741 2.76661905 8.02130222 5.08673047 8.875 8.5625 C10.17867207 12.54594242 11.4134885 13.90057864 15 16 C15.99 15.67 16.98 15.34 18 15 C18.2475 14.0925 18.495 13.185 18.75 12.25 C20.43032984 7.88114242 22.85900019 6.05393591 27 4 C29.40487384 3.36615728 31.49928592 3.15310494 34 3 C34.75 5.25 34.75 5.25 35 8 C33.1875 10.3125 33.1875 10.3125 31 12 C30.34 12 29.68 12 29 12 C29.350625 12.86625 29.70125 13.7325 30.0625 14.625 C31.52321674 19.88358026 30.35521583 24.17180755 28 29 C26.824375 30.485 26.824375 30.485 25.625 32 C20.21897782 39.43727903 18.7528841 48.58437289 18.125 57.5625 C18.07569336 58.24111084 18.02638672 58.91972168 17.97558594 59.61889648 C17.79734967 63.36045091 18.07766263 65.78873911 20 69 C20.1875 71.6875 20.1875 71.6875 20 74 C19.67 74.33 19.34 74.66 19 75 C15.38007635 74.84901257 11.78165769 74.59355169 8.16992188 74.31640625 C3.96156958 73.86300037 3.96156958 73.86300037 0 75 C-3.51513755 75.24271868 -7.03992475 75.18521113 -10.5625 75.1875 C-11.52736328 75.19974609 -12.49222656 75.21199219 -13.48632812 75.22460938 C-20.12221398 75.23805141 -26.95266154 75.02366923 -33 72 C-33.1546875 70.576875 -33.1546875 70.576875 -33.3125 69.125 C-33.67425124 65.82258932 -33.67425124 65.82258932 -36.4375 64.25 C-37.7059375 63.63125 -37.7059375 63.63125 -39 63 C-39.66 62.34 -40.32 61.68 -41 61 C-40.64700993 57.55834679 -39.95418308 55.93127462 -38 53 C-35.6875 52.5 -35.6875 52.5 -33 53 C-30.3125 55.5 -30.3125 55.5 -28 58 C-27.34 58 -26.68 58 -26 58 C-25.67 57.01 -25.34 56.02 -25 55 C-23.4375 53.3125 -23.4375 53.3125 -22 52 C-22.65226562 52.04382813 -23.30453125 52.08765625 -23.9765625 52.1328125 C-26.91987866 52.12413015 -29.19629777 51.92622306 -32 51 C-35.42109742 47.37844766 -37.68161205 43.34417505 -38.35546875 38.3828125 C-37.90567502 35.36771166 -37.02340794 34.53048184 -34.6875 32.625 C-34.07261719 32.10164063 -33.45773438 31.57828125 -32.82421875 31.0390625 C-32.22222656 30.69617188 -31.62023437 30.35328125 -31 30 C-30.01 30.33 -29.02 30.66 -28 31 C-28.495 31.886875 -28.99 32.77375 -29.5 33.6875 C-31.34375629 37.15307897 -31.34375629 37.15307897 -31 42 C-26.38 42 -21.76 42 -17 42 C-18.59210836 38.81578328 -20.20966742 35.63963412 -22 32.5625 C-25.98298034 24.61185848 -28.01747279 13.8180975 -27 5 C-25.75 2.9375 -25.75 2.9375 -24 2 C-21.890625 2.44140625 -21.890625 2.44140625 -20 3 C-19.66179834 4.5823006 -19.32964061 6.16589375 -19 7.75 C-18.814375 8.63171875 -18.62875 9.5134375 -18.4375 10.421875 C-18 13 -18 13 -18 17 C-17.34 17 -16.68 17 -16 17 C-14.71223847 14.22174544 -14.71223847 14.22174544 -14 11 C-15.24348469 8.61694804 -15.24348469 8.61694804 -17 7 C-15.68 5.02 -14.36 3.04 -13 1 C-8.94393835 1.46800711 -5.53411321 1.87953208 -2 4 C-1.34 2.68 -0.68 1.36 0 0 Z " fill="#D8A8A8" transform="translate(64,27)"/>
<path d="M0 0 C0.66 0 1.32 0 2 0 C3.68252622 2.57327539 4.0150238 3.82347033 3.75 6.9375 C2.65528861 11.4075715 1.51448929 14.35011879 -1.375 18 C-6.78102218 25.43727903 -8.2471159 34.58437289 -8.875 43.5625 C-8.92430664 44.24111084 -8.97361328 44.91972168 -9.02441406 45.61889648 C-9.20265033 49.36045091 -8.92233737 51.78873911 -7 55 C-6.8125 57.6875 -6.8125 57.6875 -7 60 C-7.33 60.33 -7.66 60.66 -8 61 C-11.61992365 60.84901257 -15.21834231 60.59355169 -18.83007812 60.31640625 C-23.03843042 59.86300037 -23.03843042 59.86300037 -27 61 C-30.51513755 61.24271868 -34.03992475 61.18521113 -37.5625 61.1875 C-38.52736328 61.19974609 -39.49222656 61.21199219 -40.48632812 61.22460938 C-47.12221398 61.23805141 -53.95266154 61.02366923 -60 58 C-60.103125 57.05125 -60.20625 56.1025 -60.3125 55.125 C-60.67425124 51.82258932 -60.67425124 51.82258932 -63.4375 50.25 C-64.7059375 49.63125 -64.7059375 49.63125 -66 49 C-66.66 48.34 -67.32 47.68 -68 47 C-67.64700993 43.55834679 -66.95418308 41.93127462 -65 39 C-62.6875 38.5 -62.6875 38.5 -60 39 C-57.3125 41.5 -57.3125 41.5 -55 44 C-54.34 44 -53.68 44 -53 44 C-52.67 43.01 -52.34 42.02 -52 41 C-51.01 40.01 -50.02 39.02 -49 38 C-52.3 37.67 -55.6 37.34 -59 37 C-59 36.67 -59 36.34 -59 36 C-57.75283203 35.94392578 -57.75283203 35.94392578 -56.48046875 35.88671875 C-54.85044922 35.78810547 -54.85044922 35.78810547 -53.1875 35.6875 C-52.10855469 35.62949219 -51.02960937 35.57148437 -49.91796875 35.51171875 C-46.66553153 34.94134489 -46.20231288 34.23964022 -44 32 C-42.01171875 32.14453125 -42.01171875 32.14453125 -39.6875 32.8125 C-35.27340645 33.84766353 -31.0986203 34.26699714 -26.5625 34.375 C-24.80099609 34.41753906 -24.80099609 34.41753906 -23.00390625 34.4609375 C-19.88929341 34.29797843 -19.88929341 34.29797843 -18.08984375 31.9765625 C-17.55037109 30.99816406 -17.55037109 30.99816406 -17 30 C-15.84824387 34.03114644 -15.75144501 35.52952092 -17.75 39.3125 C-20 42 -20 42 -23 43 C-21.25714937 47.5485224 -21.25714937 47.5485224 -17.375 50.125 C-16.59125 50.41375 -15.8075 50.7025 -15 51 C-13.67715102 53.92916561 -13.95940868 54.87822605 -15 58 C-14.01 58 -13.02 58 -12 58 C-12 58.66 -12 59.32 -12 60 C-11.01 59.67 -10.02 59.34 -9 59 C-9.47404328 56.4401663 -10.00646236 54.99137823 -11.58984375 52.87890625 C-13.50520276 48.96860267 -12.9031433 45.77608855 -12.25 41.625 C-12.14945313 40.89539063 -12.04890625 40.16578125 -11.9453125 39.4140625 C-11.64711829 37.27318096 -11.32537526 35.13689702 -11 33 C-10.8058148 31.65385805 -10.61298527 30.30751944 -10.421875 28.9609375 C-10.28265625 27.98382813 -10.1434375 27.00671875 -10 26 C-9.01 25.67 -8.02 25.34 -7 25 C-5.77479736 21.99152582 -5.77479736 21.99152582 -5 19 C-4.34 19 -3.68 19 -3 19 C-2.855625 18.195625 -2.71125 17.39125 -2.5625 16.5625 C-2 14 -2 14 -1 13 C-0.92765321 10.47690571 -1.00364978 7.96851553 -1.0625 5.4453125 C-1 3 -1 3 0 0 Z " fill="#E4DDD8" transform="translate(91,41)"/>
<path d="M0 0 C2.3125 -0.3125 2.3125 -0.3125 5 0 C7.26359741 2.76661905 8.02130222 5.08673047 8.875 8.5625 C10.17867207 12.54594242 11.4134885 13.90057864 15 16 C15.99 15.67 16.98 15.34 18 15 C18.67939174 13.00428677 19.34561559 11.00405227 20 9 C20.99 8.34 21.98 7.68 23 7 C22.69320312 7.70511719 22.38640625 8.41023438 22.0703125 9.13671875 C20.98405502 12.04265573 20.3902942 14.75754152 19.875 17.8125 C19.70742187 18.78832031 19.53984375 19.76414062 19.3671875 20.76953125 C19.18542969 21.87361328 19.18542969 21.87361328 19 23 C19.99 23.66 20.98 24.32 22 25 C20.51470389 29.45588832 16.9357399 31.76642609 13 34 C12.28585938 34.15082031 11.57171875 34.30164062 10.8359375 34.45703125 C10.23007813 34.63621094 9.62421875 34.81539062 9 35 C8.67 35.99 8.34 36.98 8 38 C7.071875 37.67 6.14375 37.34 5.1875 37 C1.91568689 35.97354883 0.10978188 35.44510906 -3 37 C-7.59555214 36.84932616 -10.01313475 36.71772018 -13.75 34 C-20.77499344 24.63334208 -20.75537767 15.33824487 -21 4 C-22.98 4.99 -22.98 4.99 -25 6 C-24.67 11.94 -24.34 17.88 -24 24 C-24.33 24 -24.66 24 -25 24 C-28.42700329 7.35455543 -28.42700329 7.35455543 -25.75 2.9375 C-23.44916861 1.70491176 -22.43053871 2.28188629 -20 3 C-19.66179834 4.5823006 -19.32964061 6.16589375 -19 7.75 C-18.814375 8.63171875 -18.62875 9.5134375 -18.4375 10.421875 C-18 13 -18 13 -18 17 C-17.34 17 -16.68 17 -16 17 C-14.71223847 14.22174544 -14.71223847 14.22174544 -14 11 C-15.24348469 8.61694804 -15.24348469 8.61694804 -17 7 C-15.68 5.02 -14.36 3.04 -13 1 C-8.94393835 1.46800711 -5.53411321 1.87953208 -2 4 C-1.34 2.68 -0.68 1.36 0 0 Z " fill="#E2CB84" transform="translate(64,27)"/>
<path d="M0 0 C4.29 0 8.58 0 13 0 C11.86150546 5.6924727 10.84374786 6.96875225 7 11 C6.34 11 5.68 11 5 11 C4.67 12.32 4.34 13.64 4 15 C7.29999881 12.92790772 9.85660492 11.15038996 12.5625 8.3125 C15 6 15 6 17.5 4.875 C20 5 20 5 22.625 7.25 C23.40875 8.1575 24.1925 9.065 25 10 C26.73205624 11.87062074 27.78039475 12.90311533 30.125 13.9375 C30.74375 14.288125 31.3625 14.63875 32 15 C32.144375 15.598125 32.28875 16.19625 32.4375 16.8125 C33.28708366 20.11643647 35.54812874 21.73673422 38 24 C32.39065021 25.17843483 26.8914493 25.18366412 21.1875 25.1875 C20.24068359 25.19974609 19.29386719 25.21199219 18.31835938 25.22460938 C11.75009631 25.23817083 4.98311324 24.99155662 -1 22 C-1.103125 21.05125 -1.20625 20.1025 -1.3125 19.125 C-1.67425124 15.82258932 -1.67425124 15.82258932 -4.4375 14.25 C-5.283125 13.8375 -6.12875 13.425 -7 13 C-7.66 12.34 -8.32 11.68 -9 11 C-8.64700993 7.55834679 -7.95418308 5.93127462 -6 3 C-3.6875 2.5 -3.6875 2.5 -1 3 C1.6875 5.5 1.6875 5.5 4 8 C4.66 8 5.32 8 6 8 C6.33 7.01 6.66 6.02 7 5 C7.99 4.01 8.98 3.02 10 2 C6.7 1.67 3.4 1.34 0 1 C0 0.67 0 0.34 0 0 Z " fill="#A7CDD4" transform="translate(32,77)"/>
<path d="M0 0 C0.66 0.33 1.32 0.66 2 1 C1.67 3.31 1.34 5.62 1 8 C0.34 8 -0.32 8 -1 8 C-0.97679688 8.91523437 -0.95359375 9.83046875 -0.9296875 10.7734375 C-0.90261719 12.55621094 -0.90261719 12.55621094 -0.875 14.375 C-0.85179688 15.55835938 -0.82859375 16.74171875 -0.8046875 17.9609375 C-1 21 -1 21 -3 23 C-3.165 23.680625 -3.33 24.36125 -3.5 25.0625 C-3.665 25.701875 -3.83 26.34125 -4 27 C-4.66 27.33 -5.32 27.66 -6 28 C-6.495 29.2375 -6.495 29.2375 -7 30.5 C-8 33 -8 33 -10 34 C-10.88329769 37.15998398 -11.22517069 40.44208491 -11.6875 43.6875 C-11.82994141 44.58662109 -11.97238281 45.48574219 -12.11914062 46.41210938 C-12.81992958 51.16422551 -13.29478216 55.28699293 -12 60 C-11.195625 61.051875 -11.195625 61.051875 -10.375 62.125 C-9 64 -9 64 -9.3125 66.25 C-9.539375 66.8275 -9.76625 67.405 -10 68 C-10.99 68 -11.98 68 -13 68 C-13 67.34 -13 66.68 -13 66 C-13.99 66 -14.98 66 -16 66 C-16.061875 64.948125 -16.12375 63.89625 -16.1875 62.8125 C-17.13408616 58.3708265 -18.59156258 56.88406243 -22 54 C-21.67 53.01 -21.34 52.02 -21 51 C-20.01 50.505 -20.01 50.505 -19 50 C-18.67 49.01 -18.34 48.02 -18 47 C-17.34 47 -16.68 47 -16 47 C-15.97236643 45.64595503 -15.95332578 44.29173445 -15.9375 42.9375 C-15.92589844 42.18339844 -15.91429688 41.42929688 -15.90234375 40.65234375 C-15.91906867 37.82736725 -15.91906867 37.82736725 -16.84375 34.48046875 C-16.92109375 32.75763672 -16.92109375 32.75763672 -17 31 C-14.69140625 28.5234375 -14.69140625 28.5234375 -11.5625 26.375 C-8.45947213 24.32304147 -8.45947213 24.32304147 -6 22 C-5.45126721 19.35563882 -5.45126721 19.35563882 -6 17 C-6.33 16.67 -6.66 16.34 -7 16 C-7.06421237 9.89982509 -5.87055422 5.69158087 -2 1 C-1.34 0.67 -0.68 0.34 0 0 Z " fill="#C93459" transform="translate(92,33)"/>
<path d="M0 0 C-0.35049575 3.24208567 -0.56221181 4.61527704 -3.0625 6.8125 C-3.701875 7.204375 -4.34125 7.59625 -5 8 C-5.495 5.525 -5.495 5.525 -6 3 C-7.98020421 3.44033992 -7.98020421 3.44033992 -10 5 C-12.19438318 9.08577621 -13.56554037 13.33429195 -13 18 C-12.67 18.33 -12.34 18.66 -12 19 C-11.6328125 21.26171875 -11.6328125 21.26171875 -12 24 C-14.1171875 26.45703125 -14.1171875 26.45703125 -16.875 28.8125 C-17.77992187 29.60269531 -18.68484375 30.39289062 -19.6171875 31.20703125 C-22 33 -22 33 -24 33 C-23.67 34.010625 -23.34 35.02125 -23 36.0625 C-21.77848365 40.32481238 -20.95455469 44.90910939 -23 49 C-23.66 49 -24.32 49 -25 49 C-25.12375 49.639375 -25.2475 50.27875 -25.375 50.9375 C-25.684375 51.9584375 -25.684375 51.9584375 -26 53 C-26.99 53.495 -26.99 53.495 -28 54 C-27.34 55.98 -26.68 57.96 -26 60 C-27.9375 59.3125 -27.9375 59.3125 -30 58 C-31.0625 55.6875 -31.0625 55.6875 -31 53 C-29.37660195 51.29115995 -27.70680947 49.62553283 -26 48 C-25.12761142 45.32209104 -25.12761142 45.32209104 -25 43 C-25.99 43.66 -26.98 44.32 -28 45 C-31.21484375 45.3359375 -31.21484375 45.3359375 -34.9375 45.375 C-36.16339844 45.40335938 -37.38929687 45.43171875 -38.65234375 45.4609375 C-42.50870319 44.92995685 -43.63245809 44.00244663 -46 41 C-45 38 -45 38 -42 36 C-39.6953125 36.09375 -39.6953125 36.09375 -37.125 36.5 C-31.78998206 37.17637223 -31.78998206 37.17637223 -27 35 C-26.87625 34.195625 -26.7525 33.39125 -26.625 32.5625 C-26.41875 31.716875 -26.2125 30.87125 -26 30 C-22.75 28.4375 -22.75 28.4375 -20.85546875 27.75 C-18.12587327 26.64666877 -16.13039366 25.00127889 -14 23 C-14 22.34 -14 21.68 -14 21 C-14.99 20.34 -15.98 19.68 -17 19 C-16.11483179 11.6940594 -15.03877312 6.50749621 -10 1 C-6.34429998 -1.19342001 -4.05663425 -1.15903836 0 0 Z " fill="#D17277" transform="translate(99,31)"/>
<path d="M0 0 C2.3125 -0.3125 2.3125 -0.3125 5 0 C7.26359741 2.76661905 8.02130222 5.08673047 8.875 8.5625 C10.17867207 12.54594242 11.4134885 13.90057864 15 16 C15.99 15.67 16.98 15.34 18 15 C18.67939174 13.00428677 19.34561559 11.00405227 20 9 C20.99 8.34 21.98 7.68 23 7 C22.57405412 8.44096586 22.13373367 9.87768712 21.6875 11.3125 C21.44386719 12.11300781 21.20023438 12.91351563 20.94921875 13.73828125 C19.93338368 16.15872778 19.09242971 17.42559901 17 19 C13.5625 19.0625 13.5625 19.0625 10 18 C5.94176195 13.61271562 4.96612002 8.72044751 4 3 C2.68 3 1.36 3 0 3 C-0.92844389 7.33273814 -0.92844389 10.66726186 0 15 C-0.75925781 14.97679687 -1.51851562 14.95359375 -2.30078125 14.9296875 C-3.79158203 14.90261719 -3.79158203 14.90261719 -5.3125 14.875 C-6.29863281 14.85179687 -7.28476562 14.82859375 -8.30078125 14.8046875 C-11.22406527 14.79317361 -11.22406527 14.79317361 -14 17 C-14.33343551 19.54207971 -14.33343551 19.54207971 -14 22 C-13.67 22.33 -13.34 22.66 -13 23 C-12.95919217 24.99958364 -12.95745644 27.00045254 -13 29 C-13.66 29 -14.32 29 -15 29 C-18.32575612 23.4174808 -19.46450943 19.50313209 -19 13 C-18.67 14.32 -18.34 15.64 -18 17 C-17.34 17 -16.68 17 -16 17 C-14.71223847 14.22174544 -14.71223847 14.22174544 -14 11 C-15.24348469 8.61694804 -15.24348469 8.61694804 -17 7 C-15.68 5.02 -14.36 3.04 -13 1 C-8.94393835 1.46800711 -5.53411321 1.87953208 -2 4 C-1.34 2.68 -0.68 1.36 0 0 Z " fill="#E4DDD8" transform="translate(64,27)"/>
<path d="M0 0 C1.9609375 0.20703125 1.9609375 0.20703125 4.375 0.8125 C10.22058569 2.13715758 16.02847892 2.61010687 22 3 C21.34 3.99 20.68 4.98 20 6 C16.1831068 6.51579638 13.45792689 5.58076658 10 4 C11.26820097 9.07280388 12.92548916 10.86576089 17 14 C17.625 16.125 17.625 16.125 18 18 C18.99 18.66 19.98 19.32 21 20 C21 21.32 21 22.64 21 24 C19.68 23.67 18.36 23.34 17 23 C16.938125 22.401875 16.87625 21.80375 16.8125 21.1875 C15.67331318 18.12045856 13.78922519 17.62164255 11 16 C10.360625 15.13375 9.72125 14.2675 9.0625 13.375 C7.14583333 10.79166667 7.14583333 10.79166667 4.0625 9.875 C0.82746053 9.69123044 0.82746053 9.69123044 -1.5625 12.1875 C-2.7690625 13.5796875 -2.7690625 13.5796875 -4 15 C-8.64864865 19 -8.64864865 19 -11 19 C-10.52584717 14.73262454 -8.00349628 12.85698427 -5 10 C-2.87371256 7.22774618 -2.87371256 7.22774618 -2.5 4.4375 C-2 2 -2 2 0 0 Z " fill="#5A9BB1" transform="translate(47,73)"/>
<path d="M0 0 C0.99 0 1.98 0 3 0 C4.23982389 2.47964778 4.12346239 4.62846792 4.18896484 7.35839844 C4.47236905 17.30248523 6.88056423 24.05546935 13 32 C12.34 32.99 11.68 33.98 11 35 C8.375 35.1875 8.375 35.1875 6 35 C3.0703125 29.921875 3.0703125 29.921875 2 28 C1.649375 27.43667969 1.29875 26.87335937 0.9375 26.29296875 C-0.47732967 22.83253119 -0.74086111 19.24960361 -1.125 15.5625 C-1.21136719 14.81162109 -1.29773437 14.06074219 -1.38671875 13.28710938 C-2.27853724 5.2395092 -2.27853724 5.2395092 -2 2 C-1.34 1.34 -0.68 0.68 0 0 Z " fill="#D27B7F" transform="translate(40,31)"/>
<path d="M0 0 C2 3 2 3 1.875 5.375 C0.80877598 8.57367205 -0.6964121 10.55680071 -3 13 C-3.66 13 -4.32 13 -5 13 C-3.20578369 17.0369867 -1.79448125 19.64480474 2 22 C1.67 22.99 1.34 23.98 1 25 C-2.33333333 23.33333333 -5.66666667 21.66666667 -9 20 C-9 18.68 -9 17.36 -9 16 C-9.598125 15.731875 -10.19625 15.46375 -10.8125 15.1875 C-13.07100952 13.96145198 -14.47062652 13.06465419 -16 11 C-16.04995256 9.33408208 -16.05434846 7.6657803 -16 6 C-15.33613281 6.11859375 -14.67226563 6.2371875 -13.98828125 6.359375 C-8.2379049 7.27792065 -8.2379049 7.27792065 -2.9375 5.25 C-0.81258298 3.07009937 -0.81258298 3.07009937 0 0 Z " fill="#A6CDD4" transform="translate(73,71)"/>
<path d="M0 0 C3.88552487 0.5298443 5.1634214 2.52313129 7.75 5.375 C8.513125 5.931875 9.27625 6.48875 10.0625 7.0625 C10.619375 7.495625 11.17625 7.92875 11.75 8.375 C11.75 9.035 11.75 9.695 11.75 10.375 C1.355 10.87 1.355 10.87 -9.25 11.375 C-9.25 10.055 -9.25 8.735 -9.25 7.375 C-8.63125 7.1275 -8.0125 6.88 -7.375 6.625 C-4.87985717 5.15726892 -4.34872287 3.99503145 -3.25 1.375 C-2.25 0.375 -2.25 0.375 0 0 Z " fill="#FEFEFE" transform="translate(50.25,84.625)"/>
<path d="M0 0 C0.309375 0.639375 0.61875 1.27875 0.9375 1.9375 C1.8345163 3.93610821 1.8345163 3.93610821 3 5 C5.33297433 5.04092937 7.66705225 5.04241723 10 5 C9.34 4.67 8.68 4.34 8 4 C8.33 2.68 8.66 1.36 9 0 C9.33 0.66 9.66 1.32 10 2 C16.93 2 23.86 2 31 2 C31 2.33 31 2.66 31 3 C29.95199219 3.04898438 28.90398438 3.09796875 27.82421875 3.1484375 C26.44528646 3.22348143 25.0663815 3.29902857 23.6875 3.375 C22.65206055 3.42140625 22.65206055 3.42140625 21.59570312 3.46875 C17.93009211 3.68124919 16.12099208 3.91933861 13 6 C16.0621826 6.19533059 19.12446321 6.38153284 22.1875 6.5625 C23.05181641 6.61857422 23.91613281 6.67464844 24.80664062 6.73242188 C28.36653246 6.93701336 31.47665527 7.10466895 34.98828125 6.40234375 C35.65214844 6.26957031 36.31601563 6.13679688 37 6 C37.66 6.66 38.32 7.32 39 8 C33.39065021 9.17843483 27.8914493 9.18366412 22.1875 9.1875 C21.24068359 9.19974609 20.29386719 9.21199219 19.31835938 9.22460938 C12.75009631 9.23817083 5.98311324 8.99155662 0 6 C0 4.02 0 2.04 0 0 Z " fill="#E4DDD8" transform="translate(31,93)"/>
<path d="M0 0 C1.9296875 0.73046875 1.9296875 0.73046875 4 2 C4.7578125 3.98828125 4.7578125 3.98828125 5.125 6.3125 C5.74800752 9.76129164 6.54867492 12.7863516 8 16 C4.87709365 15.51421457 2.00419641 15.0013988 -1 14 C-3.01341923 9.67114865 -3.25329294 6.59540744 -2 2 C-1.34 1.34 -0.68 0.68 0 0 Z " fill="#D8A8A8" transform="translate(65,28)"/>
<path d="M0 0 C1.32 0.33 2.64 0.66 4 1 C4.12375 1.639375 4.2475 2.27875 4.375 2.9375 C4.58125 3.618125 4.7875 4.29875 5 5 C5.66 5.33 6.32 5.66 7 6 C7 6.66 7 7.32 7 8 C3.95879308 9.77504706 1.95325346 10.21305767 -1.546875 9.9765625 C-2.81337891 9.89921875 -2.81337891 9.89921875 -4.10546875 9.8203125 C-4.97816406 9.75585938 -5.85085937 9.69140625 -6.75 9.625 C-7.63816406 9.56828125 -8.52632812 9.5115625 -9.44140625 9.453125 C-11.62846332 9.31202454 -13.8143069 9.1606567 -16 9 C-16 8.01 -16 7.02 -16 6 C-12.38132441 4.7937748 -9.07493749 4.89183082 -5.3125 4.9375 C-4.61060547 4.94201172 -3.90871094 4.94652344 -3.18554688 4.95117188 C-1.45699462 4.96293073 0.27151365 4.98086546 2 5 C2 4.01 2 3.02 2 2 C1.34 2 0.68 2 0 2 C0 1.34 0 0.68 0 0 Z " fill="#99C9D2" transform="translate(60,91)"/>
<path d="M0 0 C0.33 0.66 0.66 1.32 1 2 C7.435 1.505 7.435 1.505 14 1 C14.33 2.65 14.66 4.3 15 6 C12.32528957 8.67471043 10.85194382 8.32943834 7.125 8.375 C5.55105469 8.41753906 5.55105469 8.41753906 3.9453125 8.4609375 C0.37886899 7.90279382 -0.75349034 6.74573403 -3 4 C-2.67 3.01 -2.34 2.02 -2 1 C-1.34 0.67 -0.68 0.34 0 0 Z " fill="#CF6973" transform="translate(56,68)"/>
<path d="M0 0 C1.65 0.33 3.3 0.66 5 1 C5.75 2.6875 5.75 2.6875 6 5 C4.71274093 6.70250393 3.37868281 8.37064759 2 10 C2 10.99 2 11.98 2 13 C7.445 12.505 7.445 12.505 13 12 C12.34 10.35 11.68 8.7 11 7 C13 8.8125 13 8.8125 15 11 C15 11.99 15 12.98 15 14 C12.68802845 14.19390729 10.3753971 14.37996367 8.0625 14.5625 C6.77472656 14.66691406 5.48695312 14.77132812 4.16015625 14.87890625 C3.11730469 14.91886719 2.07445312 14.95882812 1 15 C0.67 14.67 0.34 14.34 0 14 C0.38422612 9.92720311 0.87944471 6.53425882 3 3 C0.04590299 4.37154504 -2.44008376 5.98863724 -5 8 C-4.53411505 13.70709064 -3.06242216 17.15939723 0 22 C-3.83104101 20.76859396 -5.46676292 18.37408475 -7.29296875 14.8671875 C-8.45852245 11.78909541 -8.1898366 10.04069352 -7 7 C-5.12872077 5.08643197 -3.15511307 3.6163348 -1 2 C-0.67 1.34 -0.34 0.68 0 0 Z " fill="#E4DDD8" transform="translate(32,55)"/>
<path d="M0 0 C0.33 1.65 0.66 3.3 1 5 C1.66 5 2.32 5 3 5 C3.125 11.75 3.125 11.75 2 14 C1.34 14 0.68 14 0 14 C-0.12375 14.639375 -0.2475 15.27875 -0.375 15.9375 C-0.684375 16.9584375 -0.684375 16.9584375 -1 18 C-1.66 18.33 -2.32 18.66 -3 19 C-2.34 20.98 -1.68 22.96 -1 25 C-2.9375 24.3125 -2.9375 24.3125 -5 23 C-6.0625 20.6875 -6.0625 20.6875 -6 18 C-4.37660195 16.29115995 -2.70680947 14.62553283 -1 13 C-0.12761142 10.32209104 -0.12761142 10.32209104 0 8 C-1.65 8.66 -3.3 9.32 -5 10 C-4.67 8.02 -4.34 6.04 -4 4 C-8.29 4 -12.58 4 -17 4 C-17 3.01 -17 2.02 -17 1 C-16.33613281 1.09539062 -15.67226563 1.19078125 -14.98828125 1.2890625 C-9.24733026 2.00982423 -5.22738377 0 0 0 Z " fill="#D4A7A8" transform="translate(74,66)"/>
<path d="M0 0 C-0.57344937 2.86724686 -0.8614515 3.8614515 -3 6 C-5.78515625 6.23046875 -5.78515625 6.23046875 -9.0625 6.1875 C-10.68865234 6.17783203 -10.68865234 6.17783203 -12.34765625 6.16796875 C-15 6 -15 6 -16 5 C-16.04063832 3.33382885 -16.042721 1.66611905 -16 0 C-10.39436958 -0.82622671 -5.57710648 -1.06795656 0 0 Z " fill="#D27F83" transform="translate(47,71)"/>
<path d="M0 0 C0.99 0.33 1.98 0.66 3 1 C4.17755913 3.94389782 4.03348696 4.89953913 3 8 C3.99 8 4.98 8 6 8 C6 8.66 6 9.32 6 10 C6.99 9.67 7.98 9.34 9 9 C8.835 8.401875 8.67 7.80375 8.5 7.1875 C8 5 8 5 8 2 C9.5 3.1875 9.5 3.1875 11 5 C11.25 7.625 11.25 7.625 11 10 C10.67 10.33 10.34 10.66 10 11 C7.87278943 10.96190945 5.74675773 10.84440703 3.625 10.6875 C2.46226563 10.60886719 1.29953125 10.53023437 0.1015625 10.44921875 C-3 10 -3 10 -6 8 C-5.67 5.69 -5.34 3.38 -5 1 C-3.02 1.99 -1.04 2.98 1 4 C0.67 2.68 0.34 1.36 0 0 Z " fill="#D59193" transform="translate(73,91)"/>
<path d="M0 0 C2.97 1.32 5.94 2.64 9 4 C7 7 7 7 3.25 7.8125 C-0.61380933 8.14909319 -3.46267612 7.72753027 -7 6 C-8.875 3.875 -8.875 3.875 -10 2 C-7 1 -7 1 -4.4375 1.5625 C-3.633125 1.706875 -2.82875 1.85125 -2 2 C-1.34 1.34 -0.68 0.68 0 0 Z " fill="#D8A8A8" transform="translate(64,61)"/>
<path d="M0 0 C0.33 0 0.66 0 1 0 C1.07908142 4.34947795 0.97117364 8.33438107 0.25 12.625 C-0.35509106 17.25076194 1.23001357 19.27783073 4 23 C3.75 25.375 3.75 25.375 3 27 C2.01 27 1.02 27 0 27 C0 26.34 0 25.68 0 25 C-0.99 25 -1.98 25 -3 25 C-3.185625 23.329375 -3.185625 23.329375 -3.375 21.625 C-3.6465813 17.96896323 -3.6465813 17.96896323 -6 16 C-5.01 15.67 -4.02 15.34 -3 15 C-2.01 10.05 -1.02 5.1 0 0 Z " fill="#D17277" transform="translate(79,74)"/>
<path d="M0 0 C-0.35049575 3.24208567 -0.56221181 4.61527704 -3.0625 6.8125 C-3.701875 7.204375 -4.34125 7.59625 -5 8 C-5.495 5.525 -5.495 5.525 -6 3 C-10.66154042 4.49835228 -11.86610751 7.88463591 -14 12 C-14.84406458 9.63453507 -15.21729813 8.49047293 -14.1796875 6.1484375 C-10.15729301 0.68087133 -7.02791346 -2.00797528 0 0 Z " fill="#D48D8F" transform="translate(99,31)"/>
<path d="M0 0 C0.99 0.33 1.98 0.66 3 1 C3.433125 2.6396875 3.433125 2.6396875 3.875 4.3125 C5.15119499 8.49558356 6.26743965 9.81508662 10 12 C10.99 11.67 11.98 11.34 13 11 C13.67939174 9.00428677 14.34561559 7.00405227 15 5 C15.99 4.34 16.98 3.68 18 3 C17.57405412 4.44096586 17.13373367 5.87768712 16.6875 7.3125 C16.32205078 8.51326172 16.32205078 8.51326172 15.94921875 9.73828125 C14.93338368 12.15872778 14.09242971 13.42559901 12 15 C8.5625 15.0625 8.5625 15.0625 5 14 C0.94307364 9.62278998 0.39473582 5.72366945 0 0 Z " fill="#E4DDD8" transform="translate(69,31)"/>
<path d="M0 0 C0.66 0 1.32 0 2 0 C3.68252622 2.57327539 4.0150238 3.82347033 3.75 6.9375 C2.480944 12.11947868 0.49137789 15.98419738 -2.625 20.3125 C-3.25664063 21.19550781 -3.88828125 22.07851563 -4.5390625 22.98828125 C-5.26222656 23.98408203 -5.26222656 23.98408203 -6 25 C-6.33 24.34 -6.66 23.68 -7 23 C-6.0625 20.875 -6.0625 20.875 -5 19 C-4.34 19 -3.68 19 -3 19 C-2.855625 18.195625 -2.71125 17.39125 -2.5625 16.5625 C-2 14 -2 14 -1 13 C-0.92765321 10.47690571 -1.00364978 7.96851553 -1.0625 5.4453125 C-1 3 -1 3 0 0 Z " fill="#D48D8F" transform="translate(91,41)"/>
<path d="M0 0 C0.99 0.33 1.98 0.66 3 1 C1.35 4.63 -0.3 8.26 -2 12 C-4.475 11.01 -4.475 11.01 -7 10 C-6.84819155 7.34335221 -6.47988575 5.54782138 -4.703125 3.51953125 C-3.125 2.125 -3.125 2.125 0 0 Z " fill="#D8A8A8" transform="translate(33,57)"/>
<path d="M0 0 C2.9375 0.8125 2.9375 0.8125 4.9375 2.8125 C4.6075 4.1325 4.2775 5.4525 3.9375 6.8125 C0.9675 6.4825 -2.0025 6.1525 -5.0625 5.8125 C-5.3925 4.8225 -5.7225 3.8325 -6.0625 2.8125 C-4.08959835 0.07235882 -3.46862789 -0.21236497 0 0 Z " fill="#D69A9B" transform="translate(55.0625,30.1875)"/>
<path d="M0 0 C0.99 0.33 1.98 0.66 3 1 C3 6.94 3 12.88 3 19 C2.01 18.67 1.02 18.34 0 18 C-0.19384179 15.18780295 -0.38036603 12.37545804 -0.5625 9.5625 C-0.61857422 8.76005859 -0.67464844 7.95761719 -0.73242188 7.13085938 C-0.8616295 5.08937889 -0.9351273 3.04453631 -1 1 C-0.67 0.67 -0.34 0.34 0 0 Z " fill="#CA395B" transform="translate(40,33)"/>
<path d="M0 0 C1.31611677 0.95336021 2.62778961 1.91285774 3.9375 2.875 C4.66839844 3.40867188 5.39929687 3.94234375 6.15234375 4.4921875 C8 6 8 6 9 8 C8.01 9.485 8.01 9.485 7 11 C3.64189605 9.61043975 1.81413448 8.17473533 0 5 C-0.04936105 3.33406445 -0.05506634 1.66575673 0 0 Z " fill="#CA3D5D" transform="translate(44,55)"/>
<path d="M0 0 C2.475 0.99 2.475 0.99 5 2 C4.60196439 4.88575819 4.20990931 5.82189513 1.9375 7.75 C0.9784375 8.36875 0.9784375 8.36875 0 9 C-1.32 7.68 -2.64 6.36 -4 5 C-3.67 4.01 -3.34 3.02 -3 2 C-2.34 2 -1.68 2 -1 2 C-0.67 1.34 -0.34 0.68 0 0 Z " fill="#5A9BB1" transform="translate(52,63)"/>
<path d="M0 0 C0 0.66 0 1.32 0 2 C-4.29 2 -8.58 2 -13 2 C-13.33 1.01 -13.66 0.02 -14 -1 C-12.41870971 -1.22331199 -10.83478911 -1.42804644 -9.25 -1.625 C-8.36828125 -1.74101563 -7.4865625 -1.85703125 -6.578125 -1.9765625 C-3.77140122 -2.00207817 -2.36615134 -1.44843844 0 0 Z " fill="#C93258" transform="translate(46,73)"/>
<path d="M0 0 C-0.33 1.65 -0.66 3.3 -1 5 C-1.99 5.33 -2.98 5.66 -4 6 C-4.66 5.67 -5.32 5.34 -6 5 C-6 4.01 -6 3.02 -6 2 C-6.99 2.33 -7.98 2.66 -9 3 C-8.67 2.01 -8.34 1.02 -8 0 C-5.13822943 -1.43088528 -3.06624227 -0.59991697 0 0 Z " fill="#D8A8A8" transform="translate(68,50)"/>
<path d="M0 0 C0.66 0 1.32 0 2 0 C1.79503906 1.11117187 1.59007813 2.22234375 1.37890625 3.3671875 C-0.0529577 11.23580612 -1.36653846 19.01838463 -2 27 C-2.66 26.34 -3.32 25.68 -4 25 C-3.84274463 22.21390966 -3.57635816 19.567106 -3.1875 16.8125 C-3.09146484 16.06935547 -2.99542969 15.32621094 -2.89648438 14.56054688 C-2.70374032 13.08456726 -2.50444236 11.60942752 -2.29833984 10.13525391 C-2.10234381 8.73248685 -1.91489726 7.32849359 -1.73681641 5.92333984 C-1.1111733 1.1111733 -1.1111733 1.1111733 0 0 Z " fill="#D7A1A1" transform="translate(82,66)"/>
<path d="M0 0 C0.33 0 0.66 0 1 0 C1.125 6.75 1.125 6.75 0 9 C-0.66 9 -1.32 9 -2 9 C-2.12375 9.639375 -2.2475 10.27875 -2.375 10.9375 C-2.58125 11.618125 -2.7875 12.29875 -3 13 C-3.99 13.495 -3.99 13.495 -5 14 C-4.34 15.98 -3.68 17.96 -3 20 C-4.9375 19.3125 -4.9375 19.3125 -7 18 C-8.0625 15.6875 -8.0625 15.6875 -8 13 C-5.625 10.3125 -5.625 10.3125 -3 8 C-2.67 7.34 -2.34 6.68 -2 6 C-1.34 6 -0.68 6 0 6 C0 4.02 0 2.04 0 0 Z " fill="#D18B8E" transform="translate(76,71)"/>
<path d="M0 0 C2 2 2 2 2.125 4.625 C2.08375 5.40875 2.0425 6.1925 2 7 C0.02 7.99 0.02 7.99 -2 9 C-1.67 7.02 -1.34 5.04 -1 3 C-5.05606165 3.46800711 -8.46588679 3.87953208 -12 6 C-11 3 -11 3 -8.25 1.3125 C-5.12376843 0.0499834 -3.30818941 -0.45947075 0 0 Z " fill="#E4DDD8" transform="translate(99,28)"/>
<path d="M0 0 C0.99 0.33 1.98 0.66 3 1 C4.125 6.75 4.125 6.75 3 9 C1.68 8.67 0.36 8.34 -1 8 C-1.04241723 5.66705225 -1.04092937 3.33297433 -1 1 C-0.67 0.67 -0.34 0.34 0 0 Z " fill="#CF6972" transform="translate(65,30)"/>
<path d="M0 0 C2.4375 0.75 2.4375 0.75 5 2 C5.8125 4.125 5.8125 4.125 6 6 C4.68 6.33 3.36 6.66 2 7 C2 6.34 2 5.68 2 5 C1.01 5 0.02 5 -1 5 C-0.67 3.35 -0.34 1.7 0 0 Z " fill="#CB4662" transform="translate(77,94)"/>
<path d="M0 0 C2.625 -0.1875 2.625 -0.1875 5 0 C3.35 1.65 1.7 3.3 0 5 C1.07401108 7.91517292 1.77810176 9.77810176 4 12 C1.68001641 11.60000283 0.13676576 11.09432121 -1.8125 9.75 C-3 8 -3 8 -2.8125 5.5 C-2 3 -2 3 0 0 Z " fill="#E4DDD8" transform="translate(26,80)"/>
<path d="M0 0 C1.33332095 2.6666419 0.67102033 4.16680303 0 7 C0.99 7.66 1.98 8.32 3 9 C2.34 10.32 1.68 11.64 1 13 C0.01 13 -0.98 13 -2 13 C-1.34 12.01 -0.68 11.02 0 10 C-0.99 9.67 -1.98 9.34 -3 9 C-2.25 2.25 -2.25 2.25 0 0 Z " fill="#D8A8A8" transform="translate(83,43)"/>
<path d="M0 0 C0.66 0 1.32 0 2 0 C1.8125 1.875 1.8125 1.875 1 4 C-2.29826907 5.78284814 -4.1774751 6 -8 6 C-8.33 5.01 -8.66 4.02 -9 3 C-7.88625 2.87625 -6.7725 2.7525 -5.625 2.625 C-1.96896323 2.3534187 -1.96896323 2.3534187 0 0 Z " fill="#FEFEFE" transform="translate(70,78)"/>
<path d="M0 0 C10.55808656 0.96355353 10.55808656 0.96355353 15 2 C14.67 2.99 14.34 3.98 14 5 C13.67 4.34 13.34 3.68 13 3 C8.71 3 4.42 3 0 3 C0 2.01 0 1.02 0 0 Z " fill="#E3CF7A" transform="translate(57,67)"/>
<path d="M0 0 C3.35595828 0.59927826 5.37801226 1.84622436 8 4 C7.67 4.99 7.34 5.98 7 7 C3.42895561 5.12050295 1.45255699 3.82946843 0 0 Z " fill="#E4DED9" transform="translate(67,89)"/>
<path d="M0 0 C0.99 0 1.98 0 3 0 C3.1875 2.375 3.1875 2.375 3 5 C2.01 5.66 1.02 6.32 0 7 C-0.66 6.67 -1.32 6.34 -2 6 C-1.125 1.125 -1.125 1.125 0 0 Z " fill="#D17277" transform="translate(61,57)"/>
<path d="M0 0 C2.0625 0.6875 2.0625 0.6875 5.0625 2.6875 C4.0625 3.6875 4.0625 3.6875 2.21484375 3.78515625 C0.1640625 3.75260417 -1.88671875 3.72005208 -3.9375 3.6875 C-3.9375 2.6975 -3.9375 1.7075 -3.9375 0.6875 C-1.9375 -0.3125 -1.9375 -0.3125 0 0 Z " fill="#A6CCD3" transform="translate(67.9375,63.3125)"/>
<path d="M0 0 C1.86952933 2.27375188 3.21257332 4.11267996 4.3125 6.8125 C-1.5625 3.0625 -1.5625 3.0625 -2.6875 0.8125 C-5.21483235 0.15694881 -5.21483235 0.15694881 -7.6875 -0.1875 C-7.6875 -0.5175 -7.6875 -0.8475 -7.6875 -1.1875 C-3.98427536 -2.56298344 -3.15207631 -2.56564351 0 0 Z " fill="#BED3D5" transform="translate(55.6875,85.1875)"/>
<path d="M0 0 C0.763125 0.20625 1.52625 0.4125 2.3125 0.625 C1.96200425 3.86708567 1.75028819 5.24027704 -0.75 7.4375 C-1.389375 7.829375 -2.02875 8.22125 -2.6875 8.625 C-2.2234375 7.7278125 -2.2234375 7.7278125 -1.75 6.8125 C-0.58540296 4.53543228 -0.58540296 4.53543228 0.3125 1.625 C-1.6675 1.625 -3.6475 1.625 -5.6875 1.625 C-2.6875 -0.375 -2.6875 -0.375 0 0 Z " fill="#D8A8A8" transform="translate(96.6875,30.375)"/>
<path d="M0 0 C2 3 2 3 1.8125 5.5 C0.95559826 8.13662075 0.11007147 9.25689748 -2 11 C-1.67 9.68 -1.34 8.36 -1 7 C-1.66 6.67 -2.32 6.34 -3 6 C-2.01 4.02 -1.02 2.04 0 0 Z " fill="#E4DDD8" transform="translate(73,71)"/>
<path d="M0 0 C0.66 0 1.32 0 2 0 C2 2.31 2 4.62 2 7 C0.68 6.34 -0.64 5.68 -2 5 C-1.34 3.35 -0.68 1.7 0 0 Z " fill="#D17277" transform="translate(29,62)"/>
<path d="M0 0 C2.475 0.99 2.475 0.99 5 2 C5 2.99 5 3.98 5 5 C3.02 4.34 1.04 3.68 -1 3 C-0.67 2.01 -0.34 1.02 0 0 Z " fill="#9BCBD4" transform="translate(49,70)"/>
<path d="M0 0 C1.4540625 0.0309375 1.4540625 0.0309375 2.9375 0.0625 C2.5625 2 2.5625 2 1.9375 4.0625 C0.9475 4.5575 0.9475 4.5575 -0.0625 5.0625 C-0.7225 4.0725 -1.3825 3.0825 -2.0625 2.0625 C-2.7225 1.7325 -3.3825 1.4025 -4.0625 1.0625 C-3.0625 0.0625 -3.0625 0.0625 0 0 Z " fill="#D17277" transform="translate(94.0625,31.9375)"/>
<path d="M0 0 C2.475 0.99 2.475 0.99 5 2 C5 2.99 5 3.98 5 5 C4.01 5 3.02 5 2 5 C0.3125 3 0.3125 3 -1 1 C-0.67 0.67 -0.34 0.34 0 0 Z " fill="#9BCBD4" transform="translate(55,62)"/>
<path d="M0 0 C0.66 0 1.32 0 2 0 C1.67 1.65 1.34 3.3 1 5 C0.01 5.33 -0.98 5.66 -2 6 C-1.125 1.125 -1.125 1.125 0 0 Z " fill="#D17277" transform="translate(66,50)"/>
</svg>
