<?xml version="1.0" encoding="UTF-8"?>
<svg version="1.1" xmlns="http://www.w3.org/2000/svg" width="128" height="128">
<path d="M0 0 C42.24 0 84.48 0 128 0 C128 42.24 128 84.48 128 128 C85.76 128 43.52 128 0 128 C0 85.76 0 43.52 0 0 Z " fill="#888889" transform="translate(0,0)"/>
<path d="M0 0 C42.24 0 84.48 0 128 0 C128 42.24 128 84.48 128 128 C106.88 128 85.76 128 64 128 C64.495 126.515 64.495 126.515 65 125 C65.69867188 124.87882812 66.39734375 124.75765625 67.1171875 124.6328125 C68.02726562 124.46523437 68.93734375 124.29765625 69.875 124.125 C70.77992187 123.96257812 71.68484375 123.80015625 72.6171875 123.6328125 C75.16505988 123.16955297 75.16505988 123.16955297 77 121 C77.86625 120.7525 78.7325 120.505 79.625 120.25 C83.44481314 118.83525439 86.02314585 116.87679161 89.16796875 114.33984375 C91 113 91 113 94 112 C95.01652398 110.28461579 96.03069397 108.56489098 96.9375 106.7890625 C98.08616651 104.8549108 99.3913575 103.56429396 101 102 C108.98514989 92.16229534 112.26464892 80.55615712 111 68 C110.62770191 65.17467117 110.18130598 62.3690439 109.6875 59.5625 C109.51142212 58.55062622 109.51142212 58.55062622 109.33178711 57.51831055 C108.47080075 53.12546695 107.23128349 49.23128349 104 46 C103.51243342 42.51738159 103.35527368 40.0256108 105.26953125 36.98046875 C106.77277406 35.18462394 108.21700291 33.51970477 110 32 C110.66 32 111.32 32 112 32 C112.020625 30.72125 112.04125 29.4425 112.0625 28.125 C112.07410156 27.40570312 112.08570312 26.68640625 112.09765625 25.9453125 C112.12649242 23.91814596 112.12649242 23.91814596 111 22 C107.95207485 20.95924507 105.86820239 20.66799442 102.82421875 21.83203125 C100.84130567 22.82877086 98.91002397 23.87046806 97 25 C94.58149677 22.754247 92.76531628 20.6444186 90.9375 17.875 C89.1449461 14.82218972 89.1449461 14.82218972 86 13 C83.37752425 13.21124068 82.2593351 13.75767048 80.33203125 15.55859375 C79.83058594 16.17863281 79.32914062 16.79867188 78.8125 17.4375 C78.30332031 18.05496094 77.79414062 18.67242188 77.26953125 19.30859375 C75.93391424 20.98279746 75.93391424 20.98279746 75 23 C73.35 23 71.7 23 70 23 C70.144375 22.484375 70.28875 21.96875 70.4375 21.4375 C71.16581703 18.28145952 71.70649399 15.22856615 72 12 C70.36221601 8.7882039 70.36221601 8.7882039 67.6171875 8.48828125 C66.71226563 8.43027344 65.80734375 8.37226563 64.875 8.3125 C63.96492188 8.24675781 63.05484375 8.18101563 62.1171875 8.11328125 C61.06917969 8.05720703 61.06917969 8.05720703 60 8 C58.68 10.64 57.36 13.28 56 16 C53.06610821 15.59251503 51.32906695 15.26736689 49 13.375 C47.06092573 11.77398216 47.06092573 11.77398216 44.5 11.9375 C40.96254774 13.44091721 39.99183882 15.76326191 38 19 C36.35353315 20.68662458 34.68816933 22.35511706 33 24 C32.443125 24.763125 31.88625 25.52625 31.3125 26.3125 C30.879375 26.869375 30.44625 27.42625 30 28 C29.34 28 28.68 28 28 28 C27.7525 28.53109375 27.505 29.0621875 27.25 29.609375 C25.67891031 32.61408402 23.83683234 35.40020866 22 38.25 C18.93444454 43.10158066 16.96314414 47.32815115 16 53 C15.67 53.66 15.34 54.32 15 55 C14.87428492 58.83430999 14.77738009 62.0892822 15.6875 65.8125 C16 68 16 68 14.6875 69.8125 C13 71 13 71 11 71 C12.27033478 75.05558626 12.27033478 75.05558626 14.015625 78.91796875 C15.08032559 81.16989499 15.47875065 83.10818006 15.875 85.5625 C18.4952888 99.26862604 24.37690001 110.8749602 36 119 C41.18623385 121.96007349 46.58089048 124.49989549 52 127 C52 127.33 52 127.66 52 128 C34.84 128 17.68 128 0 128 C0 85.76 0 43.52 0 0 Z " fill="#F9F9F9" transform="translate(0,0)"/>
<path d="M0 0 C0.87785156 0.07992188 1.75570312 0.15984375 2.66015625 0.2421875 C3.53542969 0.30664062 4.41070312 0.37109375 5.3125 0.4375 C7.72265625 1.1171875 7.72265625 1.1171875 9.55078125 2.953125 C11.32804282 6.23513469 10.54692477 8.56649235 9.72265625 12.1171875 C8.66015625 14.5546875 8.66015625 14.5546875 7.72265625 16.1171875 C9.37265625 16.1171875 11.02265625 16.1171875 12.72265625 16.1171875 C12.92890625 15.4159375 13.13515625 14.7146875 13.34765625 13.9921875 C15.13529531 10.25439675 17.32775786 7.52050666 20.72265625 5.1171875 C23.28515625 4.8671875 23.28515625 4.8671875 25.72265625 6.1171875 C28.97322111 9.52254117 31.42182873 12.9999172 33.72265625 17.1171875 C37.29252598 15.73293839 37.29252598 15.73293839 40.66015625 13.9296875 C43.65296509 12.7507022 45.67377443 13.25554699 48.72265625 14.1171875 C51.08351747 17.65847934 51.29535203 18.94468968 50.72265625 23.1171875 C47.43751393 28.09467586 43.99235241 30.43067573 38.72265625 33.1171875 C38.25930819 37.07250038 38.25930819 37.07250038 40.53515625 38.9921875 C41.61796875 40.0440625 41.61796875 40.0440625 42.72265625 41.1171875 C45.30162993 45.48693997 46.13243544 48.88332592 46.34765625 53.9296875 C46.53280082 57.87532401 46.78150086 61.61944347 47.53515625 65.4921875 C48.07191904 69.93725434 47.06728109 74.0633577 46.03515625 78.3671875 C45.87442627 79.05345215 45.71369629 79.7397168 45.5480957 80.44677734 C44.38666397 84.87091889 42.72945536 87.7134909 39.72265625 91.1171875 C39.20703125 92.1484375 38.69140625 93.1796875 38.16015625 94.2421875 C36.83629846 96.88990308 35.8466027 98.16315676 33.72265625 100.1171875 C33.10390625 100.9421875 32.48515625 101.7671875 31.84765625 102.6171875 C29.64517628 105.2083404 27.78621495 106.66602812 24.72265625 108.1171875 C24.06265625 107.7871875 23.40265625 107.4571875 22.72265625 107.1171875 C23.62892409 105.8182036 24.54815162 104.52825583 25.47265625 103.2421875 C26.23835938 102.16324219 26.23835938 102.16324219 27.01953125 101.0625 C28.79769172 99.03148185 30.24967232 98.13863738 32.72265625 97.1171875 C32.72265625 95.1371875 32.72265625 93.1571875 32.72265625 91.1171875 C34.37265625 90.7871875 36.02265625 90.4571875 37.72265625 90.1171875 C37.77873047 89.21226563 37.77873047 89.21226563 37.8359375 88.2890625 C37.90167969 87.48984375 37.96742187 86.690625 38.03515625 85.8671875 C38.09316406 85.07828125 38.15117188 84.289375 38.2109375 83.4765625 C38.72265625 81.1171875 38.72265625 81.1171875 40.21875 79.3046875 C42.37064125 76.17466387 42.33367228 73.04792508 42.47265625 69.3671875 C42.50866943 68.65143555 42.54468262 67.93568359 42.58178711 67.19824219 C42.7856389 62.34778491 42.54796294 57.88562615 41.72265625 53.1171875 C41.72265625 51.7971875 41.72265625 50.4771875 41.72265625 49.1171875 C40.07265625 48.4571875 38.42265625 47.7971875 36.72265625 47.1171875 C37.71265625 51.0771875 37.71265625 51.0771875 38.72265625 55.1171875 C35.43272523 55.48273539 34.0916574 55.37937253 31.34765625 53.4296875 C29.72265625 51.1171875 29.72265625 51.1171875 29.84765625 48.4921875 C30.72265625 46.1171875 30.72265625 46.1171875 32.72265625 44.1171875 C29.05218013 37.94594743 25.7053317 34.0657533 19.72265625 30.1171875 C19.72265625 29.4571875 19.72265625 28.7971875 19.72265625 28.1171875 C19.14386719 27.99601562 18.56507812 27.87484375 17.96875 27.75 C15.6536549 27.09774712 13.88797927 26.14652029 11.78515625 24.9921875 C5.73883773 22.24295536 0.13198491 23.14511916 -6.27734375 24.1171875 C-7.18871094 24.24480469 -8.10007813 24.37242188 -9.0390625 24.50390625 C-11.72844245 24.9226747 -11.72844245 24.9226747 -15.27734375 26.1171875 C-15.98457106 27.42945719 -16.64929166 28.76523602 -17.27734375 30.1171875 C-18.86328125 31.50390625 -18.86328125 31.50390625 -20.65234375 32.8046875 C-27.87728319 38.81547737 -29.38688109 48.30321222 -31.27734375 57.1171875 C-31.43460938 57.83648437 -31.591875 58.55578125 -31.75390625 59.296875 C-32.44872091 63.06180095 -31.9880567 64.80268116 -30.27734375 68.1171875 C-30.65234375 71.3671875 -30.65234375 71.3671875 -31.27734375 74.1171875 C-30.61734375 74.1171875 -29.95734375 74.1171875 -29.27734375 74.1171875 C-29.00470703 75.49390625 -29.00470703 75.49390625 -28.7265625 76.8984375 C-26.91863587 88.3719841 -26.91863587 88.3719841 -21.27734375 98.1171875 C-21.65234375 100.2421875 -21.65234375 100.2421875 -22.27734375 102.1171875 C-24.14916992 101.83178711 -24.14916992 101.83178711 -26.27734375 101.1171875 C-29.68560869 95.4107782 -31.65850007 89.42556784 -33.46484375 83.0546875 C-33.72458984 82.14017822 -33.98433594 81.22566895 -34.25195312 80.28344727 C-39.53661346 60.76809791 -39.53661346 60.76809791 -35.27734375 53.1171875 C-34.94000752 51.54295176 -34.65057732 49.95790872 -34.40234375 48.3671875 C-32.75779768 39.80550493 -28.7959729 32.97847589 -22.27734375 27.1171875 C-19.95253201 26.09753323 -17.61939676 25.09659148 -15.27734375 24.1171875 C-13.81371699 22.45646215 -13.81371699 22.45646215 -12.46484375 20.5546875 C-9.34586605 16.52636208 -6.15780902 15.99571877 -1.25390625 15.30859375 C-0.60164063 15.24542969 0.050625 15.18226562 0.72265625 15.1171875 C1.38265625 12.4771875 2.04265625 9.8371875 2.72265625 7.1171875 C1.40265625 7.1171875 0.08265625 7.1171875 -1.27734375 7.1171875 C-1.50421875 7.6946875 -1.73109375 8.2721875 -1.96484375 8.8671875 C-3.66438922 11.78069402 -5.45641573 13.28030414 -8.27734375 15.1171875 C-11.90990359 15.64878162 -14.14559951 14.97303594 -17.27734375 13.1171875 C-19.26434814 14.90549145 -20.57964291 16.59222903 -22.02734375 18.8671875 C-23.84328625 21.49021555 -25.36822815 23.23400465 -27.65234375 25.3671875 C-34.70905024 32.25767607 -38.34617464 40.84454675 -41.27734375 50.1171875 C-41.68984375 51.3546875 -42.10234375 52.5921875 -42.52734375 53.8671875 C-44.4367023 62.26836514 -44.88878558 71.82367194 -40.28515625 79.30859375 C-39.14396235 81.35655025 -38.72147029 83.13234205 -38.27734375 85.4296875 C-36.281874 95.83011436 -36.281874 95.83011436 -30.27734375 104.1171875 C-29.49359375 104.4059375 -28.70984375 104.6946875 -27.90234375 104.9921875 C-25.27734375 106.1171875 -25.27734375 106.1171875 -23.21484375 108.6171875 C-18.7959779 112.37792439 -13.92102639 112.51411455 -8.27734375 113.1171875 C-8.27734375 114.4371875 -8.27734375 115.7571875 -8.27734375 117.1171875 C-15.55487679 117.61057957 -15.55487679 117.61057957 -18.83984375 115.3671875 C-19.64421875 114.6246875 -20.44859375 113.8821875 -21.27734375 113.1171875 C-23.02087104 112.13447212 -24.76451126 111.15193848 -26.51171875 110.17578125 C-32.58009654 106.5374397 -37.02429015 101.87634831 -39.27734375 95.1171875 C-40.23253906 94.70146484 -40.23253906 94.70146484 -41.20703125 94.27734375 C-44.18883072 92.60641084 -44.42402119 90.77328651 -45.40234375 87.5546875 C-45.73234375 86.4821875 -46.06234375 85.4096875 -46.40234375 84.3046875 C-47.34348415 80.87624748 -48.14695764 77.45409916 -48.78515625 73.95703125 C-49.25656515 71.8007877 -49.25656515 71.8007877 -51.27734375 69.1171875 C-51.65234375 66.6171875 -51.65234375 66.6171875 -51.27734375 64.1171875 C-49.27734375 62.3046875 -49.27734375 62.3046875 -47.27734375 61.1171875 C-47.44234375 60.4571875 -47.60734375 59.7971875 -47.77734375 59.1171875 C-48.66670996 53.78099023 -49.07615137 48.93735618 -46.27734375 44.1171875 C-46.05046875 43.1271875 -45.82359375 42.1371875 -45.58984375 41.1171875 C-43.40017485 33.08840155 -38.32408454 25.69879439 -32.27734375 20.1171875 C-30.70638294 18.10030292 -29.20420324 16.04013544 -27.6953125 13.9765625 C-26.05820106 11.82982684 -24.21854964 9.98906461 -22.27734375 8.1171875 C-21.61734375 7.1271875 -20.95734375 6.1371875 -20.27734375 5.1171875 C-17.96484375 4.1796875 -17.96484375 4.1796875 -15.27734375 4.1171875 C-12.71484375 5.9921875 -12.71484375 5.9921875 -10.27734375 8.1171875 C-8.09519807 8.89552284 -8.09519807 8.89552284 -6.27734375 9.1171875 C-5.98859375 8.0034375 -5.69984375 6.8896875 -5.40234375 5.7421875 C-3.67903877 0.18931589 -3.67903877 0.18931589 0 0 Z " fill="#7A7A7B" transform="translate(62.27734375,6.8828125)"/>
<path d="M0 0 C0.95777344 0.45503906 1.91554687 0.91007812 2.90234375 1.37890625 C3.97162109 1.90291016 3.97162109 1.90291016 5.0625 2.4375 C5.0625 3.0975 5.0625 3.7575 5.0625 4.4375 C5.619375 4.685 6.17625 4.9325 6.75 5.1875 C12.76423401 8.4384373 15.75315857 12.63559078 19.0625 18.4375 C18.57136719 18.86675781 18.08023438 19.29601562 17.57421875 19.73828125 C15.73103545 21.45669312 15.73103545 21.45669312 15.875 24.625 C15.9678125 26.0171875 15.9678125 26.0171875 16.0625 27.4375 C18.3725 27.7675 20.6825 28.0975 23.0625 28.4375 C22.0725 24.4775 22.0725 24.4775 21.0625 20.4375 C25.0625 21.4375 25.0625 21.4375 28.0625 23.4375 C28.3203125 25.35546875 28.3203125 25.35546875 28.1875 27.625 C28.08155633 30.52693523 28.13416675 32.85953755 28.625 35.75 C29.47901541 42.94812988 29.56889286 49.60986106 25.0625 55.4375 C24.5314536 57.75368057 24.5314536 57.75368057 24.4375 60.125 C24.14685852 64.35314148 24.14685852 64.35314148 23.0625 65.4375 C21.39632885 65.47813832 19.72861905 65.480221 18.0625 65.4375 C18.0625 67.4175 18.0625 69.3975 18.0625 71.4375 C16.3046875 72.34895833 14.546875 73.26041667 12.7890625 74.171875 C10.91633306 75.30786229 10.91633306 75.30786229 10.3125 77.3515625 C8.30814784 80.69632517 4.90808566 81.638993 1.4375 83.0625 C0.75042969 83.3615625 0.06335938 83.660625 -0.64453125 83.96875 C-6.80688103 86.5816788 -13.14948104 88.86175118 -19.9375 88.4375 C-20.6875 86.6875 -20.6875 86.6875 -20.9375 84.4375 C-19.625 82.1875 -19.625 82.1875 -16.9375 80.4375 C-14.47176367 80.23423141 -12.08129684 80.31848946 -9.609375 80.40625 C-5.54442523 80.45379327 -1.67068057 80.13440026 2.0625 78.4375 C4.14882697 75.51908143 4.14882697 75.51908143 5.0625 72.4375 C5.3925 72.1075 5.7225 71.7775 6.0625 71.4375 C6.10330783 69.43791636 6.10504356 67.43704746 6.0625 65.4375 C7.5187545 64.76630451 8.97757867 64.10068193 10.4375 63.4375 C11.24960938 63.06625 12.06171875 62.695 12.8984375 62.3125 C15.0625 61.4375 15.0625 61.4375 17.0625 61.4375 C18.0525 58.4675 18.0525 58.4675 19.0625 55.4375 C18.38703125 55.581875 17.7115625 55.72625 17.015625 55.875 C15.67757812 56.1534375 15.67757812 56.1534375 14.3125 56.4375 C13.43078125 56.623125 12.5490625 56.80875 11.640625 57 C9.0625 57.4375 9.0625 57.4375 5.0625 57.4375 C4.794375 58.38625 4.52625 59.335 4.25 60.3125 C3.0625 63.4375 3.0625 63.4375 0.0625 65.4375 C1.0525 66.0975 2.0425 66.7575 3.0625 67.4375 C3.25 70.0625 3.25 70.0625 3.0625 72.4375 C-0.90649539 75.07993089 -5.14769703 74.84671452 -9.75 75 C-14.18213498 75.17173153 -18.49394584 75.37125205 -22.88671875 76.02734375 C-25.9375 76.4375 -25.9375 76.4375 -27.9375 75.4375 C-28.1875 73.125 -28.1875 73.125 -27.9375 70.4375 C-25.11453654 67.82364494 -22.3600583 66.76478585 -18.6875 65.75 C-17.79546875 65.49863281 -16.9034375 65.24726562 -15.984375 64.98828125 C-15.30890625 64.80652344 -14.6334375 64.62476562 -13.9375 64.4375 C-14.5975 63.7775 -15.2575 63.1175 -15.9375 62.4375 C-15.9375 61.1175 -15.9375 59.7975 -15.9375 58.4375 C-15.2775 58.4375 -14.6175 58.4375 -13.9375 58.4375 C-13.6075 57.1175 -13.2775 55.7975 -12.9375 54.4375 C-9.3075 54.4375 -5.6775 54.4375 -1.9375 54.4375 C-1.380625 53.220625 -0.82375 52.00375 -0.25 50.75 C1.10225278 47.79507727 2.16823755 46.34643945 4.6796875 44.18359375 C7.79581821 40.59238082 7.71342158 37.71462452 7.5 33.1875 C7.47897217 32.43114258 7.45794434 31.67478516 7.4362793 30.89550781 C7.18207227 21.14983946 7.18207227 21.14983946 2.8125 12.6875 C1.45125 11.57375 1.45125 11.57375 0.0625 10.4375 C-0.46214844 9.98375 -0.98679688 9.53 -1.52734375 9.0625 C-6.35618952 4.90662295 -8.95374682 4.06879138 -15.2109375 4.16796875 C-21.64649681 4.80414868 -26.35490409 7.44001479 -30.75 12.125 C-35.97045813 18.67782563 -38.31911403 24.91507065 -38.6640625 33.2734375 C-38.9375 35.4375 -38.9375 35.4375 -40.9375 38.4375 C-42.2575 38.4375 -43.5775 38.4375 -44.9375 38.4375 C-46.63511435 33.33071802 -44.75066112 28.99948426 -43.3125 24 C-42.93931641 22.58750977 -42.93931641 22.58750977 -42.55859375 21.14648438 C-40.98222233 15.58997118 -39.58923639 11.9827554 -34.9375 8.4375 C-34.2775 8.4375 -33.6175 8.4375 -32.9375 8.4375 C-32.69 7.86 -32.4425 7.2825 -32.1875 6.6875 C-30.03530724 2.81355303 -27.86648984 0.814301 -23.73046875 -0.86328125 C-22.54066406 -1.19714844 -21.35085937 -1.53101563 -20.125 -1.875 C-18.94292969 -2.22175781 -17.76085937 -2.56851562 -16.54296875 -2.92578125 C-10.32210133 -4.02437431 -5.6083474 -2.70031541 0 0 Z " fill="#ACACAC" transform="translate(76.9375,32.5625)"/>
<path d="M0 0 C7.45409155 5.30387284 10.51794072 10.30781755 12.25 19.3125 C12.91343805 32.43816648 12.91343805 32.43816648 8.78515625 37.08984375 C7.94855469 37.82332031 7.11195312 38.55679688 6.25 39.3125 C5.22695052 40.96511839 4.22383946 42.63041365 3.25 44.3125 C1.8125 46.1875 1.8125 46.1875 0.25 47.3125 C-1.73046875 47.1953125 -1.73046875 47.1953125 -3.75 46.3125 C-4.8046875 44.0625 -4.8046875 44.0625 -5.625 41.3125 C-6.52324736 38.60501871 -6.52324736 38.60501871 -7.75 36.3125 C-10.86095637 35.01139182 -10.86095637 35.01139182 -13.75 35.3125 C-15.47021339 38.14493469 -15.47021339 38.14493469 -15.4375 41.375 C-15.0971875 42.3340625 -15.0971875 42.3340625 -14.75 43.3125 C-14.42 44.3025 -14.09 45.2925 -13.75 46.3125 C-13.09 46.3125 -12.43 46.3125 -11.75 46.3125 C-11.66913853 48.10343191 -11.61087298 49.89539628 -11.5625 51.6875 C-11.51029297 53.18410156 -11.51029297 53.18410156 -11.45703125 54.7109375 C-11.55371094 55.56945312 -11.65039062 56.42796875 -11.75 57.3125 C-14.75 59.3125 -14.75 59.3125 -18.3125 60.25 C-21.99149406 60.99100977 -21.99149406 60.99100977 -23.75 64.3125 C-23.77749478 66.38160593 -23.77749478 66.38160593 -23.375 68.5 C-23.16875 69.758125 -22.9625 71.01625 -22.75 72.3125 C-25.75 72.3125 -25.75 72.3125 -28 70.75 C-29.75 68.3125 -29.75 68.3125 -29.5 64.5625 C-29.2525 63.49 -29.005 62.4175 -28.75 61.3125 C-29.74 60.6525 -30.73 59.9925 -31.75 59.3125 C-31.49309819 57.24821843 -31.21886954 55.18608906 -30.9375 53.125 C-30.78667969 51.97644531 -30.63585938 50.82789063 -30.48046875 49.64453125 C-29.74597495 46.29413973 -28.67950074 44.1195271 -26.75 41.3125 C-29.52280706 38.23160327 -31.81326356 36.62474548 -35.75 35.3125 C-35.17655063 32.44525314 -34.8885485 31.4510485 -32.75 29.3125 C-32.43668101 27.15408029 -32.19831372 24.98450739 -32 22.8125 C-30.80379451 13.83175723 -27.80358248 7.41518729 -20.625 1.75 C-14.70534212 -2.44606271 -6.51924792 -3.53779756 0 0 Z " fill="#131414" transform="translate(71.75,39.6875)"/>
<path d="M0 0 C0.95777344 0.45503906 1.91554687 0.91007812 2.90234375 1.37890625 C3.97162109 1.90291016 3.97162109 1.90291016 5.0625 2.4375 C5.0625 3.0975 5.0625 3.7575 5.0625 4.4375 C5.619375 4.685 6.17625 4.9325 6.75 5.1875 C12.76423401 8.4384373 15.75315857 12.63559078 19.0625 18.4375 C18.57136719 18.86675781 18.08023438 19.29601562 17.57421875 19.73828125 C15.73103545 21.45669312 15.73103545 21.45669312 15.875 24.625 C15.9678125 26.0171875 15.9678125 26.0171875 16.0625 27.4375 C18.3725 27.7675 20.6825 28.0975 23.0625 28.4375 C22.0725 24.4775 22.0725 24.4775 21.0625 20.4375 C25.0625 21.4375 25.0625 21.4375 28.0625 23.4375 C28.0625 24.7575 28.0625 26.0775 28.0625 27.4375 C27.4025 27.7675 26.7425 28.0975 26.0625 28.4375 C25.59598793 30.56326782 25.59598793 30.56326782 25.4375 33 C25.36273438 33.82628906 25.28796875 34.65257812 25.2109375 35.50390625 C25.13746094 36.46103516 25.13746094 36.46103516 25.0625 37.4375 C23.4125 37.7675 21.7625 38.0975 20.0625 38.4375 C20.0625 39.7575 20.0625 41.0775 20.0625 42.4375 C20.866875 42.64375 21.67125 42.85 22.5 43.0625 C23.7684375 43.743125 23.7684375 43.743125 25.0625 44.4375 C25.875 47.5625 25.875 47.5625 26.0625 50.4375 C25.50820312 50.64246094 24.95390625 50.84742188 24.3828125 51.05859375 C23.65835938 51.32800781 22.93390625 51.59742188 22.1875 51.875 C21.46820313 52.14183594 20.74890625 52.40867188 20.0078125 52.68359375 C18.02601155 53.41666854 18.02601155 53.41666854 16.0625 54.4375 C14.0390625 54.38671875 14.0390625 54.38671875 11.6875 54.125 C10.91664062 54.04636719 10.14578125 53.96773437 9.3515625 53.88671875 C6.96489122 53.41834469 5.17652254 52.62000119 3.0625 51.4375 C3.1875 49.75 3.1875 49.75 4.0625 47.4375 C5.073125 46.756875 6.08375 46.07625 7.125 45.375 C9.41739535 43.60658073 10.00054384 42.86580565 10.421875 39.953125 C10.39030488 38.0483942 10.31783881 36.14395452 10.20703125 34.2421875 C10.01527272 30.52103545 10.50764524 27.11341275 11.0625 23.4375 C10.0725 23.1075 9.0825 22.7775 8.0625 22.4375 C7.0703125 20.765625 7.0703125 20.765625 6.1875 18.6875 C3.30467399 12.54916325 -1.83655742 7.48797129 -7.9375 4.4375 C-14.98959883 3.62430902 -20.96539859 4.49680111 -26.9375 8.4375 C-33.78416787 14.43171713 -37.77272016 21.75635789 -38.5625 30.8125 C-38.59601562 31.62460938 -38.62953125 32.43671875 -38.6640625 33.2734375 C-38.9375 35.4375 -38.9375 35.4375 -40.9375 38.4375 C-42.2575 38.4375 -43.5775 38.4375 -44.9375 38.4375 C-46.63511435 33.33071802 -44.75066112 28.99948426 -43.3125 24 C-42.93931641 22.58750977 -42.93931641 22.58750977 -42.55859375 21.14648438 C-40.98222233 15.58997118 -39.58923639 11.9827554 -34.9375 8.4375 C-34.2775 8.4375 -33.6175 8.4375 -32.9375 8.4375 C-32.69 7.86 -32.4425 7.2825 -32.1875 6.6875 C-30.03530724 2.81355303 -27.86648984 0.814301 -23.73046875 -0.86328125 C-22.54066406 -1.19714844 -21.35085937 -1.53101563 -20.125 -1.875 C-18.94292969 -2.22175781 -17.76085937 -2.56851562 -16.54296875 -2.92578125 C-10.32210133 -4.02437431 -5.6083474 -2.70031541 0 0 Z " fill="#F3F3F3" transform="translate(76.9375,32.5625)"/>
<path d="M0 0 C0.87785156 0.07992188 1.75570312 0.15984375 2.66015625 0.2421875 C3.53542969 0.30664062 4.41070312 0.37109375 5.3125 0.4375 C7.72265625 1.1171875 7.72265625 1.1171875 9.55078125 2.94140625 C11.31572614 6.2183206 10.58553632 8.59929182 9.72265625 12.1171875 C9.06265625 12.4471875 8.40265625 12.7771875 7.72265625 13.1171875 C7.72265625 10.1471875 7.72265625 7.1771875 7.72265625 4.1171875 C5.08265625 3.4571875 2.44265625 2.7971875 -0.27734375 2.1171875 C-0.60734375 2.7771875 -0.93734375 3.4371875 -1.27734375 4.1171875 C0.70265625 4.7771875 2.68265625 5.4371875 4.72265625 6.1171875 C3.97265625 13.7421875 3.97265625 13.7421875 1.72265625 17.1171875 C-2.36373985 18.58212195 -5.93752108 19.38020706 -10.27734375 19.1171875 C-9.94734375 18.4571875 -9.61734375 17.7971875 -9.27734375 17.1171875 C-6.9921875 16.484375 -6.9921875 16.484375 -4.21484375 15.9921875 C-3.29574219 15.82460938 -2.37664063 15.65703125 -1.4296875 15.484375 C-0.71941406 15.36320312 -0.00914063 15.24203125 0.72265625 15.1171875 C1.38265625 12.4771875 2.04265625 9.8371875 2.72265625 7.1171875 C1.40265625 7.1171875 0.08265625 7.1171875 -1.27734375 7.1171875 C-1.50421875 7.6946875 -1.73109375 8.2721875 -1.96484375 8.8671875 C-3.66438922 11.78069402 -5.45641573 13.28030414 -8.27734375 15.1171875 C-11.90990359 15.64878162 -14.14559951 14.97303594 -17.27734375 13.1171875 C-19.26434814 14.90549145 -20.57964291 16.59222903 -22.02734375 18.8671875 C-23.84328625 21.49021555 -25.36822815 23.23400465 -27.65234375 25.3671875 C-34.70905024 32.25767607 -38.34617464 40.84454675 -41.27734375 50.1171875 C-41.68984375 51.3546875 -42.10234375 52.5921875 -42.52734375 53.8671875 C-44.4367023 62.26836514 -44.88878558 71.82367194 -40.28515625 79.30859375 C-39.14396235 81.35655025 -38.72147029 83.13234205 -38.27734375 85.4296875 C-36.281874 95.83011436 -36.281874 95.83011436 -30.27734375 104.1171875 C-29.49359375 104.4059375 -28.70984375 104.6946875 -27.90234375 104.9921875 C-25.27734375 106.1171875 -25.27734375 106.1171875 -23.21484375 108.6171875 C-18.7959779 112.37792439 -13.92102639 112.51411455 -8.27734375 113.1171875 C-8.27734375 114.4371875 -8.27734375 115.7571875 -8.27734375 117.1171875 C-15.55487679 117.61057957 -15.55487679 117.61057957 -18.83984375 115.3671875 C-19.64421875 114.6246875 -20.44859375 113.8821875 -21.27734375 113.1171875 C-23.02087104 112.13447212 -24.76451126 111.15193848 -26.51171875 110.17578125 C-32.58009654 106.5374397 -37.02429015 101.87634831 -39.27734375 95.1171875 C-40.23253906 94.70146484 -40.23253906 94.70146484 -41.20703125 94.27734375 C-44.18883072 92.60641084 -44.42402119 90.77328651 -45.40234375 87.5546875 C-45.73234375 86.4821875 -46.06234375 85.4096875 -46.40234375 84.3046875 C-47.34348415 80.87624748 -48.14695764 77.45409916 -48.78515625 73.95703125 C-49.25656515 71.8007877 -49.25656515 71.8007877 -51.27734375 69.1171875 C-51.65234375 66.6171875 -51.65234375 66.6171875 -51.27734375 64.1171875 C-49.27734375 62.3046875 -49.27734375 62.3046875 -47.27734375 61.1171875 C-47.44234375 60.4571875 -47.60734375 59.7971875 -47.77734375 59.1171875 C-48.66670996 53.78099023 -49.07615137 48.93735618 -46.27734375 44.1171875 C-46.05046875 43.1271875 -45.82359375 42.1371875 -45.58984375 41.1171875 C-43.40017485 33.08840155 -38.32408454 25.69879439 -32.27734375 20.1171875 C-30.70638294 18.10030292 -29.20420324 16.04013544 -27.6953125 13.9765625 C-26.05820106 11.82982684 -24.21854964 9.98906461 -22.27734375 8.1171875 C-21.61734375 7.1271875 -20.95734375 6.1371875 -20.27734375 5.1171875 C-17.96484375 4.1796875 -17.96484375 4.1796875 -15.27734375 4.1171875 C-12.71484375 5.9921875 -12.71484375 5.9921875 -10.27734375 8.1171875 C-8.09519807 8.89552284 -8.09519807 8.89552284 -6.27734375 9.1171875 C-5.98859375 8.0034375 -5.69984375 6.8896875 -5.40234375 5.7421875 C-3.67903877 0.18931589 -3.67903877 0.18931589 0 0 Z " fill="#7F7F80" transform="translate(62.27734375,6.8828125)"/>
<path d="M0 0 C1.32 0.33 2.64 0.66 4 1 C3.51315789 8.54605263 3.51315789 8.54605263 1.375 10.4375 C-1 11 -1 11 -4.375 11.375 C-8.49415197 12.08519862 -10.73731013 13.43645796 -14 16 C-14.33 16.66 -14.66 17.32 -15 18 C-16.010625 18.33 -17.02125 18.66 -18.0625 19 C-24.63204502 21.65490892 -28.6298064 28.40135696 -31.8125 34.4375 C-37.70597805 52.11793414 -37.19523285 65.49929788 -31.61669922 83.05126953 C-30.77463296 85.71214557 -29.98074402 88.38672471 -29.1875 91.0625 C-28.79217515 92.37515324 -28.39658386 93.68772658 -28 95 C-30.51859849 94.0220056 -31.76443457 93.39816109 -33.16015625 91.0390625 C-35.29786069 85.32000907 -36.95237605 79.62411148 -38.2890625 73.6640625 C-38.883084 71.04641134 -38.883084 71.04641134 -40.0390625 69.015625 C-44.00176563 60.70361355 -42.19984926 48.58224453 -40 40 C-36.78189541 31.49435812 -32.45959993 24.82608323 -26.14453125 18.328125 C-23.41566885 15.36564414 -21.35871535 12.15821355 -19.2890625 8.71484375 C-18 7 -18 7 -15 6 C-14.01 6.66 -13.02 7.32 -12 8 C-9.5 8.41666667 -9.5 8.41666667 -7 8 C-5.31201173 6.56249809 -5.31201173 6.56249809 -4 5 C-3.34 5 -2.68 5 -2 5 C-1.34 3.35 -0.68 1.7 0 0 Z " fill="#EAEAEA" transform="translate(61,13)"/>
<path d="M0 0 C5.58549223 1.65025907 5.58549223 1.65025907 8 3.6875 C10.02871857 5.29653655 10.02871857 5.29653655 13.0625 4.875 C15.99173926 4.25608292 15.99173926 4.25608292 17.5625 2.4375 C19 1 19 1 21.6875 0.8125 C22.450625 0.874375 23.21375 0.93625 24 1 C22.75023244 4.65316671 22.32901247 5.78065836 19 8 C18.53665194 11.95531288 18.53665194 11.95531288 20.8125 13.875 C21.534375 14.57625 22.25625 15.2775 23 16 C25.57897368 20.36975247 26.40977919 23.76613842 26.625 28.8125 C26.81014457 32.75813651 27.05884461 36.50225597 27.8125 40.375 C28.34926279 44.82006684 27.34462484 48.9461702 26.3125 53.25 C26.15177002 53.93626465 25.99104004 54.6225293 25.82543945 55.32958984 C24.66400772 59.75373139 23.00679911 62.5963034 20 66 C19.484375 67.03125 18.96875 68.0625 18.4375 69.125 C17.11364221 71.77271558 16.12394645 73.04596926 14 75 C13.38125 75.825 12.7625 76.65 12.125 77.5 C9.92252003 80.0911529 8.0635587 81.54884062 5 83 C4.34 82.67 3.68 82.34 3 82 C3.90626784 80.7010161 4.82549537 79.41106833 5.75 78.125 C6.51570313 77.04605469 6.51570313 77.04605469 7.296875 75.9453125 C9.07503547 73.91429435 10.52701607 73.02144988 13 72 C13 70.02 13 68.04 13 66 C15.475 65.505 15.475 65.505 18 65 C18.03738281 64.39671875 18.07476562 63.7934375 18.11328125 63.171875 C18.17902344 62.37265625 18.24476562 61.5734375 18.3125 60.75 C18.37050781 59.96109375 18.42851563 59.1721875 18.48828125 58.359375 C19 56 19 56 20.49609375 54.1875 C22.64786405 51.05765229 22.61149246 47.9306466 22.75 44.25 C22.78528809 43.53207275 22.82057617 42.81414551 22.85693359 42.07446289 C23.05697798 37.21095293 22.86828051 32.77554282 22 28 C21.938125 26.7625 21.87625 25.525 21.8125 24.25 C20.7074827 19.8299308 18.83349732 19.34269281 15 17 C12.48132665 14.48636399 10.10227902 11.87352931 8 9 C8 8.34 8 7.68 8 7 C7.4225 6.731875 6.845 6.46375 6.25 6.1875 C3.94449957 4.97070811 1.97943808 3.69666121 0 2 C0 1.34 0 0.68 0 0 Z " fill="#414142" transform="translate(82,32)"/>
<path d="M0 0 C2.75 0.25 2.75 0.25 5 1 C1.61878453 4.88213628 1.61878453 4.88213628 -1.625 5.5 C-2.40875 5.665 -3.1925 5.83 -4 6 C-4.67001464 7.33165409 -5.33626319 8.66520576 -6 10 C-7.5859375 11.38671875 -7.5859375 11.38671875 -9.375 12.6875 C-16.59993944 18.69828987 -18.10953734 28.18602472 -20 37 C-20.15726563 37.71929687 -20.31453125 38.43859375 -20.4765625 39.1796875 C-21.17137716 42.94461345 -20.71071295 44.68549366 -19 48 C-19.375 51.25 -19.375 51.25 -20 54 C-19.34 54 -18.68 54 -18 54 C-17.81824219 54.9178125 -17.63648438 55.835625 -17.44921875 56.78125 C-15.64129212 68.2547966 -15.64129212 68.2547966 -10 78 C-10.375 80.125 -10.375 80.125 -11 82 C-12.87182617 81.71459961 -12.87182617 81.71459961 -15 81 C-18.40826494 75.2935907 -20.38115632 69.30838034 -22.1875 62.9375 C-22.44724609 62.02299072 -22.70699219 61.10848145 -22.97460938 60.16625977 C-28.25926971 40.65091041 -28.25926971 40.65091041 -24 33 C-23.66266377 31.42576426 -23.37323357 29.84072122 -23.125 28.25 C-21.4789642 19.6805617 -17.51401939 12.87351958 -11 7 C-8.71600548 5.74332519 -6.45258029 4.925502 -4 4 C-3.29875 3.2575 -2.5975 2.515 -1.875 1.75 C-1.25625 1.1725 -0.6375 0.595 0 0 Z " fill="#444445" transform="translate(51,27)"/>
<path d="M0 0 C0.02705729 1.77074917 0.04642195 3.54161711 0.0625 5.3125 C0.07410156 6.29863281 0.08570313 7.28476562 0.09765625 8.30078125 C0 11 0 11 -1 14 C-1.81670069 25.05949588 -1.81670069 25.05949588 1.9921875 35.19140625 C3.1333814 37.23936275 3.55587346 39.01515455 4 41.3125 C5.99546975 51.71292686 5.99546975 51.71292686 12 60 C12.78375 60.28875 13.5675 60.5775 14.375 60.875 C17 62 17 62 19.0625 64.5 C23.48136585 68.26073689 28.35631736 68.39692705 34 69 C34 70.32 34 71.64 34 73 C26.72246696 73.49339207 26.72246696 73.49339207 23.4375 71.25 C22.633125 70.5075 21.82875 69.765 21 69 C19.25647271 68.01728462 17.51283249 67.03475098 15.765625 66.05859375 C9.69724721 62.4202522 5.2530536 57.75916081 3 51 C2.36320312 50.72285156 1.72640625 50.44570312 1.0703125 50.16015625 C-1.91148697 48.48922334 -2.14667744 46.65609901 -3.125 43.4375 C-3.455 42.365 -3.785 41.2925 -4.125 40.1875 C-5.0661404 36.75905998 -5.86961389 33.33691166 -6.5078125 29.83984375 C-6.9792214 27.6836002 -6.9792214 27.6836002 -9 25 C-9.375 22.5 -9.375 22.5 -9 20 C-8.32066406 19.56300781 -7.64132812 19.12601563 -6.94140625 18.67578125 C-6.30074219 18.12277344 -5.66007813 17.56976563 -5 17 C-4.92419326 14.43873046 -4.92419326 14.43873046 -5.5625 11.6875 C-6.2648188 6.54625367 -6.2648188 6.54625367 -5.00390625 3.9453125 C-1.67209928 0 -1.67209928 0 0 0 Z " fill="#858586" transform="translate(20,51)"/>
<path d="M0 0 C0.66 0.33 1.32 0.66 2 1 C1.93489583 2.98567708 1.86979167 4.97135417 1.8046875 6.95703125 C1.86745538 9.31359719 1.86745538 9.31359719 4 12 C2.62714844 12.32871094 2.62714844 12.32871094 1.2265625 12.6640625 C0.03804687 12.98117188 -1.15046875 13.29828125 -2.375 13.625 C-3.55835938 13.92664063 -4.74171875 14.22828125 -5.9609375 14.5390625 C-9.2881888 15.7365622 -9.2881888 15.7365622 -10.4140625 19.1484375 C-10.70410156 20.55996094 -10.70410156 20.55996094 -11 22 C-6.34947128 22.26932521 -6.34947128 22.26932521 -2 21 C-0.66142274 20.86155725 0.68280098 20.77496573 2.02734375 20.71875 C3.21553711 20.66267578 3.21553711 20.66267578 4.42773438 20.60546875 C5.67006836 20.55326172 5.67006836 20.55326172 6.9375 20.5 C8.57178464 20.43099971 10.20591575 20.35823442 11.83984375 20.28125 C12.92833618 20.23581055 12.92833618 20.23581055 14.03881836 20.18945312 C16.21307065 20.05316695 16.21307065 20.05316695 19 19 C19.34900558 15.28263359 19.34900558 15.28263359 17.5 12.1875 C17.005 11.795625 16.51 11.40375 16 11 C17.32 10.67 18.64 10.34 20 10 C20.33 8.02 20.66 6.04 21 4 C25.94261817 2.84672243 30.95661339 2.46027023 36 2 C35.625 4.6875 35.625 4.6875 34 8 C30.82090857 10.03693441 27.48021554 11.54884001 24 13 C24.02835938 13.76957031 24.05671875 14.53914063 24.0859375 15.33203125 C23.95037806 19.54053583 21.90769429 22.09230571 19 25 C18.34 25 17.68 25 17 25 C14.22618546 25.05796896 11.45942813 25.14347645 8.6875 25.25 C7.92759766 25.26417969 7.16769531 25.27835938 6.38476562 25.29296875 C1.2728077 25.51503469 -1.12349067 26.43160509 -5 30 C-8.60897872 29.81955106 -11.69593234 28.416029 -15 27 C-15 26.01 -15 25.02 -15 24 C-13.515 24.99 -13.515 24.99 -12 26 C-12.268125 24.783125 -12.53625 23.56625 -12.8125 22.3125 C-13.24707504 18.75402326 -13.1699468 18.24429852 -11 15.125 C-7.56061052 12.68876579 -5.08310161 11.88066898 -1 11 C-0.67 7.37 -0.34 3.74 0 0 Z " fill="#767677" transform="translate(60,86)"/>
<path d="M0 0 C0.886875 0.7425 1.77375 1.485 2.6875 2.25 C3.574375 2.91 4.46125 3.57 5.375 4.25 C10.90062183 9.02891618 12.30826405 14.06372639 12.83349609 21.24658203 C12.95222586 23.49843983 13.01754957 25.74550737 13.0625 28 C13.10153442 29.0996106 13.10153442 29.0996106 13.14135742 30.22143555 C13.15372663 33.95651104 12.83721227 36.02238866 10.765625 39.171875 C9.55190452 40.38559548 8.32376069 41.58575936 7.0625 42.75 C5.26960486 44.70588561 4.59762827 46.77965184 3.6875 49.25 C3.3575 49.58 3.0275 49.91 2.6875 50.25 C-0.12893589 50.24095847 -2.9325401 50.11690826 -5.74609375 49.9921875 C-6.59300781 50.07726562 -7.43992187 50.16234375 -8.3125 50.25 C-8.9725 51.24 -9.6325 52.23 -10.3125 53.25 C-10.415625 52.610625 -10.51875 51.97125 -10.625 51.3125 C-10.851875 50.631875 -11.07875 49.95125 -11.3125 49.25 C-12.7975 48.755 -12.7975 48.755 -14.3125 48.25 C-16.0625 46.4375 -16.0625 46.4375 -17.3125 44.25 C-17.03367131 41.18288436 -16.07002863 39.88629294 -14.3125 37.25 C-12.375 36.4375 -12.375 36.4375 -10.3125 36.25 C-6.89546941 38.5280204 -6.51598811 39.63372165 -5.125 43.375 C-4.78082031 44.28507812 -4.43664062 45.19515625 -4.08203125 46.1328125 C-3.70111328 47.18082031 -3.70111328 47.18082031 -3.3125 48.25 C-1.6625 48.25 -0.0125 48.25 1.6875 48.25 C1.935 47.363125 2.1825 46.47625 2.4375 45.5625 C3.94403404 41.5701848 5.76874663 38.20937668 9.6875 36.25 C11.55770445 26.18062107 11.36811093 17.13115026 5.6875 8.25 C2.29237962 4.38786524 -1.0448895 1.57929408 -6.328125 1.046875 C-12.86479684 0.90974202 -17.32845307 2.40273285 -22.9375 5.875 C-27.15397576 10.09147576 -30.08847793 15.3959814 -31.3125 21.25 C-31.9725 21.25 -32.6325 21.25 -33.3125 21.25 C-33.3125 24.22 -33.3125 27.19 -33.3125 30.25 C-33.6425 30.25 -33.9725 30.25 -34.3125 30.25 C-35.44442998 20.77532684 -32.33780701 13.56077801 -26.63671875 6.0390625 C-19.87778823 -1.3258411 -9.25170568 -4.88769357 0 0 Z " fill="#5B5B5C" transform="translate(72.3125,37.75)"/>
<path d="M0 0 C1.32 0.33 2.64 0.66 4 1 C3.67 2.32 3.34 3.64 3 5 C2.34 5 1.68 5 1 5 C1 5.66 1 6.32 1 7 C0.34 7 -0.32 7 -1 7 C-1 8.98 -1 10.96 -1 13 C-2.7578125 13.91145833 -4.515625 14.82291667 -6.2734375 15.734375 C-8.14616694 16.87036229 -8.14616694 16.87036229 -8.75 18.9140625 C-10.75435216 22.25882517 -14.15441434 23.201493 -17.625 24.625 C-18.31207031 24.9240625 -18.99914062 25.223125 -19.70703125 25.53125 C-25.86938103 28.1441788 -32.21198104 30.42425118 -39 30 C-39.75 28.25 -39.75 28.25 -40 26 C-38.6875 23.75 -38.6875 23.75 -36 22 C-33.53426367 21.79673141 -31.14379684 21.88098946 -28.671875 21.96875 C-24.60692523 22.01629327 -20.73318057 21.69690026 -17 20 C-14.91367303 17.08158143 -14.91367303 17.08158143 -14 14 C-13.67 13.67 -13.34 13.34 -13 13 C-12.95919217 11.00041636 -12.95745644 8.99954746 -13 7 C-11.71802734 6.49339844 -11.71802734 6.49339844 -10.41015625 5.9765625 C-8.75306641 5.30753906 -8.75306641 5.30753906 -7.0625 4.625 C-5.40927734 3.96371094 -5.40927734 3.96371094 -3.72265625 3.2890625 C-0.88769814 2.28958568 -0.88769814 2.28958568 0 0 Z " fill="#CFCFCF" transform="translate(96,91)"/>
<path d="M0 0 C-0.65226562 0.13535156 -1.30453125 0.27070313 -1.9765625 0.41015625 C-7.8672409 1.86110506 -11.13461018 3.36685194 -14.6484375 8.37890625 C-16 10 -16 10 -18.0390625 10.9921875 C-21.86209994 12.95701551 -22.70692411 17.11082558 -24 21 C-26.82330903 30.38507462 -26.82330903 30.38507462 -28 40 C-26.02463255 39.65213292 -26.02463255 39.65213292 -24 39 C-23.67 38.34 -23.34 37.68 -23 37 C-22.34 37 -21.68 37 -21 37 C-21 34.03 -21 31.06 -21 28 C-20.67 28 -20.34 28 -20 28 C-19.91878076 29.60332791 -19.86070866 31.20784026 -19.8125 32.8125 C-19.77769531 33.70582031 -19.74289063 34.59914062 -19.70703125 35.51953125 C-20.0571666 38.48401053 -20.81809344 39.08190078 -23 41 C-23.33 41.99 -23.66 42.98 -24 44 C-22.906875 44.226875 -21.81375 44.45375 -20.6875 44.6875 C-17 46 -17 46 -15.0625 48.625 C-14.711875 49.40875 -14.36125 50.1925 -14 51 C-14.474375 51.495 -14.94875 51.99 -15.4375 52.5 C-17.62167907 55.99468651 -17.65913911 58.90966936 -18 63 C-19.98 63.495 -19.98 63.495 -22 64 C-23.8174142 61.27387869 -24.32926871 60.05853447 -24.9375 57 C-25.58735031 53.86785905 -25.58735031 53.86785905 -27.625 51.5 C-29.43317197 49.52744876 -29.13301012 48.56517731 -29.0625 45.9375 C-29.041875 44.638125 -29.02125 43.33875 -29 42 C-29.66 41.34 -30.32 40.68 -31 40 C-30.05557064 28.48360024 -26.85258838 15.04320859 -17.9375 7.1875 C-17.26589844 6.64480469 -16.59429687 6.10210937 -15.90234375 5.54296875 C-13.99167764 4.0626544 -13.99167764 4.0626544 -12.46875 2.37890625 C-8.95160082 -0.92309817 -4.42091653 -1.36028201 0 0 Z " fill="#8B8B8C" transform="translate(60,31)"/>
<path d="M0 0 C2.36086122 3.54129184 2.57269578 4.82750218 2 9 C0.520959 11.27267276 -1.11514343 13.0209006 -3 15 C-3.33 13.68 -3.66 12.36 -4 11 C-6.97 11 -9.94 11 -13 11 C-13.66 12.32 -14.32 13.64 -15 15 C-21.48235119 13.12352992 -29.59387511 10.38207437 -34 5 C-34 4.34 -34 3.68 -34 3 C-30.95995539 1.2325322 -28.80719026 0 -25.25 0 C-23 1 -23 1 -21.6875 3.3125 C-21 6 -21 6 -21 10 C-18.69 10 -16.38 10 -14 10 C-13.67 9.01 -13.34 8.02 -13 7 C-15.475 6.505 -15.475 6.505 -18 6 C-17.67 5.01 -17.34 4.02 -17 3 C-14.525 3.495 -14.525 3.495 -12 4 C-11.3503125 3.0409375 -11.3503125 3.0409375 -10.6875 2.0625 C-7.55901113 -1.76120862 -4.44356825 -1.13452806 0 0 Z " fill="#737374" transform="translate(111,21)"/>
<path d="M0 0 C1.485 0.495 1.485 0.495 3 1 C0.20546492 4.14385197 -1.98683795 6.1160642 -5.875 7.75 C-12.20876072 10.7193245 -16.25639108 16.6097277 -18.8125 23 C-25.18542398 42.66613963 -21.74144377 60.24188625 -14 79 C-13.34 79.99 -12.68 80.98 -12 82 C-12 82.99 -12 83.98 -12 85 C-15.34528458 84.44245257 -18.13961748 83.85553756 -21 82 C-22.16015625 79.78515625 -22.16015625 79.78515625 -23.0625 77.0625 C-23.3925 76.08023438 -23.7225 75.09796875 -24.0625 74.0859375 C-25.21715869 70.28518597 -26.25139004 66.46478996 -27.19140625 62.60546875 C-27.94228586 59.87926491 -27.94228586 59.87926491 -29.5703125 57.140625 C-31.2796441 53.38569984 -31.367191 50.67273899 -31.3125 46.5625 C-31.30863281 45.30566406 -31.30476563 44.04882812 -31.30078125 42.75390625 C-30.98732075 38.84175641 -30.20321538 35.71510723 -29 32 C-28.67 32 -28.34 32 -28 32 C-28.08378906 32.66644531 -28.16757812 33.33289062 -28.25390625 34.01953125 C-29.51912634 45.47057385 -28.23760645 54.32692405 -24 65 C-23.44572044 66.59985238 -22.90313983 68.20382919 -22.375 69.8125 C-22.02115234 70.88757813 -22.02115234 70.88757813 -21.66015625 71.984375 C-21.44230469 72.64953125 -21.22445313 73.3146875 -21 74 C-20.608125 75.175625 -20.21625 76.35125 -19.8125 77.5625 C-19.544375 78.366875 -19.27625 79.17125 -19 80 C-18.34 80 -17.68 80 -17 80 C-17.48919922 78.67548828 -17.48919922 78.67548828 -17.98828125 77.32421875 C-19.35881131 73.56031465 -20.69287962 69.78628188 -22 66 C-22.31839844 65.0821875 -22.63679688 64.164375 -22.96484375 63.21875 C-26.24438454 52.64590207 -27.98330884 40.14459299 -23 30 C-22.49878277 28.29800565 -22.02076388 26.58905883 -21.5625 24.875 C-20.30327412 20.63883498 -18.75198886 17.51643021 -16 14 C-15.20722656 12.95779297 -15.20722656 12.95779297 -14.3984375 11.89453125 C-9.80916031 6.18320611 -9.80916031 6.18320611 -5.6875 5.25 C-4.3571875 5.12625 -4.3571875 5.12625 -3 5 C-1.6237206 3.08235826 -1.6237206 3.08235826 -1 1 C-0.67 0.67 -0.34 0.34 0 0 Z " fill="#8D8E8E" transform="translate(49,26)"/>
<path d="M0 0 C0.6875 1.8125 0.6875 1.8125 1 4 C-0.50037734 5.9578675 -1.44985176 6.87823652 -3.88183594 7.41650391 C-4.57567383 7.43632324 -5.26951172 7.45614258 -5.984375 7.4765625 C-6.75523438 7.5075 -7.52609375 7.5384375 -8.3203125 7.5703125 C-9.12210938 7.58835937 -9.92390625 7.60640625 -10.75 7.625 C-12.32822422 7.67674506 -13.90635612 7.73139404 -15.484375 7.7890625 C-16.24298828 7.81645508 -17.00160156 7.84384766 -17.78320312 7.87207031 C-20.89735183 8.0517855 -23.92245581 8.49804761 -27 9 C-27.625 6.625 -27.625 6.625 -28 4 C-21.6948745 -2.3051255 -8.30450378 -0.18546038 0 0 Z " fill="#ECECEC" transform="translate(78,100)"/>
<path d="M0 0 C0.33 0 0.66 0 1 0 C2.94348664 5.48749168 3.12560642 10.46635575 2.8125 16.25 C2.7822876 16.94738281 2.7520752 17.64476563 2.72094727 18.36328125 C2.43177546 22.58346166 1.65260907 24.7779827 -1 28 C-1.56689282 30.34852226 -1.56689282 30.34852226 -1.6875 32.75 C-1.75324219 33.54921875 -1.81898437 34.3484375 -1.88671875 35.171875 C-1.92410156 35.77515625 -1.96148437 36.3784375 -2 37 C-3.98 37.495 -3.98 37.495 -6 38 C-6 37.34 -6 36.68 -6 36 C-5.01 35.505 -5.01 35.505 -4 35 C-4 34.01 -4 33.02 -4 32 C-4.99 31.67 -5.98 31.34 -7 31 C-7.33 31.99 -7.66 32.98 -8 34 C-8.33 33.34 -8.66 32.68 -9 32 C-8.0625 29.875 -8.0625 29.875 -7 28 C-8.01320313 28.2165625 -8.01320313 28.2165625 -9.046875 28.4375 C-9.93890625 28.623125 -10.8309375 28.80875 -11.75 29 C-12.63171875 29.185625 -13.5134375 29.37125 -14.421875 29.5625 C-17 30 -17 30 -21 30 C-21.66 30.99 -22.32 31.98 -23 33 C-23.495 30.525 -23.495 30.525 -24 28 C-23.02417969 27.87882812 -22.04835938 27.75765625 -21.04296875 27.6328125 C-19.77066406 27.46523437 -18.49835938 27.29765625 -17.1875 27.125 C-15.92292969 26.96257812 -14.65835938 26.80015625 -13.35546875 26.6328125 C-9.88300683 26.20431547 -9.88300683 26.20431547 -7 24 C-5.0103005 23.60986284 -3.00980131 23.26797351 -1 23 C-1.18415432 20.05908413 -1.18415432 20.05908413 -2 17 C-3.95163118 15.56362302 -3.95163118 15.56362302 -6 15 C-6 13.68 -6 12.36 -6 11 C-4.35 10.67 -2.7 10.34 -1 10 C-1.01160156 9.36191406 -1.02320312 8.72382812 -1.03515625 8.06640625 C-1.04417969 7.24011719 -1.05320312 6.41382812 -1.0625 5.5625 C-1.07410156 4.73878906 -1.08570312 3.91507813 -1.09765625 3.06640625 C-1 1 -1 1 0 0 Z " fill="#A0A1A1" transform="translate(103,60)"/>
<path d="M0 0 C0.66 0.33 1.32 0.66 2 1 C1.34 1.66 0.68 2.32 0 3 C-0.41673207 6.45800359 -0.41673207 6.45800359 0 10 C0.46792969 10.46148437 0.93585938 10.92296875 1.41796875 11.3984375 C5.98778524 16.02467148 6.60008059 25.76125727 7 32 C7.07605469 32.86882812 7.15210937 33.73765625 7.23046875 34.6328125 C7.86513769 47.49772339 3.26002585 59.21323951 -5 69 C-5.52980469 69.52722656 -6.05960937 70.05445312 -6.60546875 70.59765625 C-8.49524708 72.49802157 -9.6829377 74.67946165 -11 77 C-11.33 76.01 -11.66 75.02 -12 74 C-10.39037783 71.2406477 -8.81530873 68.78133754 -6.5 66.5625 C-0.3558285 60.16232136 2.94092992 49.65155841 4 41 C3.93031657 38.81931852 3.67717341 36.74572919 3.34375 34.58984375 C2.91421749 31.35370674 2.82553694 28.13612263 2.6875 24.875 C2.31121723 19.06770259 1.32347347 15.71718815 -2 11 C-2 10.34 -2 9.68 -2 9 C-2.99 8.67 -3.98 8.34 -5 8 C-4.64950425 4.75791433 -4.43778819 3.38472296 -1.9375 1.1875 C-1.298125 0.795625 -0.65875 0.40375 0 0 Z " fill="#8B8C8C" transform="translate(105,36)"/>
<path d="M0 0 C1.09898702 3.29696105 0.87124444 4.40494903 0.0625 7.6875 C-0.13214844 8.49574219 -0.32679687 9.30398437 -0.52734375 10.13671875 C-0.68332031 10.75160156 -0.83929687 11.36648437 -1 12 C-0.01 11.67 0.98 11.34 2 11 C1.814375 12.2375 1.62875 13.475 1.4375 14.75 C0.24480445 26.21411842 2.94950707 36.247382 6.38330078 47.05126953 C7.22536704 49.71214557 8.01925598 52.38672471 8.8125 55.0625 C9.20782485 56.37515324 9.60341614 57.68772658 10 59 C7.48140151 58.0220056 6.23556543 57.39816109 4.83984375 55.0390625 C2.70213931 49.32000907 1.04762395 43.62411148 -0.2890625 37.6640625 C-0.883084 35.04641134 -0.883084 35.04641134 -2.0390625 33.015625 C-6.05145556 24.5993859 -3.94592936 12.72823284 -2 4 C-0.92578125 1.59765625 -0.92578125 1.59765625 0 0 Z " fill="#CFCFCF" transform="translate(23,49)"/>
<path d="M0 0 C0.66 0.33 1.32 0.66 2 1 C-0.32328587 5.14285047 -2.34412796 8.46459425 -6.0625 11.5 C-9.71277397 14.60661615 -11.15677985 17.65819255 -13 22 C-13.30035156 22.68320312 -13.60070313 23.36640625 -13.91015625 24.0703125 C-14.6224041 25.70682616 -15.31354246 27.35250189 -16 29 C-15.34 29 -14.68 29 -14 29 C-13.62875 27.700625 -13.62875 27.700625 -13.25 26.375 C-10.37765121 18.61965828 -4.75672188 12.75672188 1 7 C1.66 6.01 2.32 5.02 3 4 C3.66 4 4.32 4 5 4 C3.70108783 7.8503468 2.26697994 9.99209738 -0.75 12.6875 C-8.38367994 20.07270573 -12.20421926 29.22502481 -16 39 C-17 37 -17 37 -17 33 C-19.475 35.475 -19.475 35.475 -22 38 C-19.92026863 25.976553 -14.72086542 16.51223228 -6 8 C-4.86376226 6.58771318 -3.75510735 5.15235659 -2.6875 3.6875 C-1.91986328 2.64142578 -1.91986328 2.64142578 -1.13671875 1.57421875 C-0.76160156 1.05472656 -0.38648437 0.53523438 0 0 Z " fill="#8C8C8D" transform="translate(36,19)"/>
<path d="M0 0 C2.52588702 2.36292656 3.88820837 3.66462511 5 7 C4.01 7.66 3.02 8.32 2 9 C1.7497843 12.08365871 1.7497843 12.08365871 2 15 C4.31 15.33 6.62 15.66 9 16 C8.34 13.36 7.68 10.72 7 8 C11 9 11 9 14 11 C14 12.32 14 13.64 14 15 C13.01 15.495 13.01 15.495 12 16 C11.53348793 18.12576782 11.53348793 18.12576782 11.375 20.5625 C11.30023438 21.38878906 11.22546875 22.21507813 11.1484375 23.06640625 C11.09945312 23.70449219 11.05046875 24.34257813 11 25 C9.35 25.33 7.7 25.66 6 26 C6 27.32 6 28.64 6 30 C7.2065625 30.309375 7.2065625 30.309375 8.4375 30.625 C9.283125 31.07875 10.12875 31.5325 11 32 C11.8125 35.125 11.8125 35.125 12 38 C7.29593201 39.86540627 3.05255964 41.36843005 -2 42 C-1.01 41.34 -0.02 40.68 1 40 C1.61875 39.46375 2.2375 38.9275 2.875 38.375 C5.44256756 36.71363276 6.99975884 36.7499799 10 37 C9.505 35.515 9.505 35.515 9 34 C8.34 33.731875 7.68 33.46375 7 33.1875 C5 32 5 32 4.0625 29.0625 C4 26 4 26 5.3125 24.125 C7 23 7 23 9 23 C8.2575 22.2575 7.515 21.515 6.75 20.75 C5.8425 19.8425 4.935 18.935 4 18 C3.236875 17.38125 2.47375 16.7625 1.6875 16.125 C-0.74637107 13.06012532 -0.34035092 10.81193032 0 7 C0.5 5 0.5 5 1 3 C0.67 2.01 0.34 1.02 0 0 Z " fill="#CFCFCF" transform="translate(91,45)"/>
<path d="M0 0 C5.58549223 1.65025907 5.58549223 1.65025907 8 3.6875 C10.02871857 5.29653655 10.02871857 5.29653655 13.0625 4.875 C15.99173926 4.25608292 15.99173926 4.25608292 17.5625 2.4375 C19 1 19 1 21.6875 0.8125 C22.450625 0.874375 23.21375 0.93625 24 1 C22.75023244 4.65316671 22.32901247 5.78065836 19 8 C19.53725895 11.37705625 20.11064623 14.696686 21 18 C17.60381181 18 15.57893712 17.52578122 13.04296875 15.22265625 C8 9.54289715 8 9.54289715 8 7 C7.4225 6.731875 6.845 6.46375 6.25 6.1875 C3.94449957 4.97070811 1.97943808 3.69666121 0 2 C0 1.34 0 0.68 0 0 Z " fill="#1E1F1F" transform="translate(82,32)"/>
<path d="M0 0 C0.66 0.33 1.32 0.66 2 1 C1.93489583 2.98567708 1.86979167 4.97135417 1.8046875 6.95703125 C1.86745538 9.31359719 1.86745538 9.31359719 4 12 C3.07316406 12.27714844 2.14632812 12.55429688 1.19140625 12.83984375 C-0.60490234 13.38318359 -0.60490234 13.38318359 -2.4375 13.9375 C-3.63246094 14.29714844 -4.82742187 14.65679687 -6.05859375 15.02734375 C-8.85867545 15.70889142 -8.85867545 15.70889142 -10 17 C-9.71269945 19.33944736 -9.38063221 21.6739143 -9 24 C-7.00045254 24.04254356 -4.99958364 24.04080783 -3 24 C-2.67 23.67 -2.34 23.34 -2 23 C0.04111798 22.95266973 2.08367225 22.96280041 4.125 23 C8.89093522 23.04194442 13.32046388 22.87061137 18 22 C17.505 23.485 17.505 23.485 17 25 C15.83082031 25.02578125 14.66164063 25.0515625 13.45703125 25.078125 C11.90881774 25.13442367 10.3606421 25.19177062 8.8125 25.25 C7.65911133 25.27126953 7.65911133 25.27126953 6.48242188 25.29296875 C1.33208184 25.51401339 -1.09882108 26.39557124 -5 30 C-8.60897872 29.81955106 -11.69593234 28.416029 -15 27 C-15 26.01 -15 25.02 -15 24 C-13.515 24.99 -13.515 24.99 -12 26 C-12.268125 24.783125 -12.53625 23.56625 -12.8125 22.3125 C-13.24707504 18.75402326 -13.1699468 18.24429852 -11 15.125 C-7.56061052 12.68876579 -5.08310161 11.88066898 -1 11 C-0.67 7.37 -0.34 3.74 0 0 Z " fill="#484849" transform="translate(60,86)"/>
<path d="M0 0 C11.78085478 1.20212804 21.1411981 7.08090449 28.68359375 15.98828125 C31.9065536 19.77959101 34.57661577 22.58724497 39 25 C39 25.66 39 26.32 39 27 C37.35 26.67 35.7 26.34 34 26 C34.66 28.64 35.32 31.28 36 34 C32.71006898 34.36554789 31.36900115 34.26218503 28.625 32.3125 C27 30 27 30 27.125 27.375 C28 25 28 25 30 23 C26.32952388 16.82875993 22.98267545 12.9485658 17 9 C17 8.34 17 7.68 17 7 C16.47921875 6.88785156 15.9584375 6.77570312 15.421875 6.66015625 C12.27142197 5.80140373 9.29170481 4.62376488 6.25 3.4375 C5.07953125 2.98246094 3.9090625 2.52742188 2.703125 2.05859375 C1.81109375 1.70925781 0.9190625 1.35992188 0 1 C0 0.67 0 0.34 0 0 Z " fill="#929293" transform="translate(65,28)"/>
<path d="M0 0 C0.87785156 0.07992188 1.75570312 0.15984375 2.66015625 0.2421875 C3.53542969 0.30664062 4.41070312 0.37109375 5.3125 0.4375 C7.72265625 1.1171875 7.72265625 1.1171875 9.55078125 2.94140625 C11.31572614 6.2183206 10.58553632 8.59929182 9.72265625 12.1171875 C8.73265625 12.6121875 8.73265625 12.6121875 7.72265625 13.1171875 C7.72265625 10.1471875 7.72265625 7.1771875 7.72265625 4.1171875 C5.08265625 3.4571875 2.44265625 2.7971875 -0.27734375 2.1171875 C-0.60734375 2.7771875 -0.93734375 3.4371875 -1.27734375 4.1171875 C0.70265625 4.7771875 2.68265625 5.4371875 4.72265625 6.1171875 C3.97265625 13.7421875 3.97265625 13.7421875 1.72265625 17.1171875 C-2.36373985 18.58212195 -5.93752108 19.38020706 -10.27734375 19.1171875 C-9.94734375 18.4571875 -9.61734375 17.7971875 -9.27734375 17.1171875 C-6.9921875 16.484375 -6.9921875 16.484375 -4.21484375 15.9921875 C-3.29574219 15.82460938 -2.37664063 15.65703125 -1.4296875 15.484375 C-0.71941406 15.36320312 -0.00914063 15.24203125 0.72265625 15.1171875 C1.38265625 12.4771875 2.04265625 9.8371875 2.72265625 7.1171875 C1.40265625 7.1171875 0.08265625 7.1171875 -1.27734375 7.1171875 C-1.50421875 7.6946875 -1.73109375 8.2721875 -1.96484375 8.8671875 C-3.66438922 11.78069402 -5.45641573 13.28030414 -8.27734375 15.1171875 C-11.08984375 15.3671875 -11.08984375 15.3671875 -13.27734375 15.1171875 C-13.60734375 14.4571875 -13.93734375 13.7971875 -14.27734375 13.1171875 C-12.62734375 13.1171875 -10.97734375 13.1171875 -9.27734375 13.1171875 C-8.94734375 12.1271875 -8.61734375 11.1371875 -8.27734375 10.1171875 C-8.93734375 9.7871875 -9.59734375 9.4571875 -10.27734375 9.1171875 C-8.95734375 9.1171875 -7.63734375 9.1171875 -6.27734375 9.1171875 C-5.98859375 8.0034375 -5.69984375 6.8896875 -5.40234375 5.7421875 C-3.67903877 0.18931589 -3.67903877 0.18931589 0 0 Z " fill="#898A8A" transform="translate(62.27734375,6.8828125)"/>
<path d="M0 0 C0.66 0.33 1.32 0.66 2 1 C0.35 3.31 -1.3 5.62 -3 8 C-0.69 7.01 1.62 6.02 4 5 C4 5.66 4 6.32 4 7 C1.84765625 8.69140625 1.84765625 8.69140625 -0.9375 10.5625 C-4.11802331 12.59502041 -4.11802331 12.59502041 -7 15 C-10.5 15.5 -10.5 15.5 -14 16 C-14.33 16.33 -14.66 16.66 -15 17 C-16.68608966 17.07205511 -18.37500659 17.08386068 -20.0625 17.0625 C-20.98160156 17.05347656 -21.90070313 17.04445313 -22.84765625 17.03515625 C-23.55792969 17.02355469 -24.26820312 17.01195313 -25 17 C-25 16.34 -25 15.68 -25 15 C-23.02 14.67 -21.04 14.34 -19 14 C-19 13.34 -19 12.68 -19 12 C-17.77023438 11.49339844 -17.77023438 11.49339844 -16.515625 10.9765625 C-15.43796875 10.53054687 -14.3603125 10.08453125 -13.25 9.625 C-12.18265625 9.18414062 -11.1153125 8.74328125 -10.015625 8.2890625 C-4.89642817 6.10080479 -2.661939 5.05768411 0 0 Z " fill="#878788" transform="translate(89,106)"/>
<path d="M0 0 C0 3.49952123 -1.21769145 5.09585682 -2.98046875 8.0234375 C-4.62819394 11.2178779 -5.22860972 14.49907488 -6 18 C-6.33 18.66 -6.66 19.32 -7 20 C-7.12571508 23.83430999 -7.22261991 27.0892822 -6.3125 30.8125 C-6 33 -6 33 -7.3125 34.8125 C-9 36 -9 36 -11 36 C-9.73531155 40.04475362 -9.73531155 40.04475362 -7.9921875 43.89453125 C-6.88148493 46.25149458 -6.44246652 48.37356455 -6 50.9375 C-5.47233085 53.81224151 -4.93343664 56.16115341 -3.8125 58.875 C-2.84325854 61.4099392 -3.25046819 62.45903399 -4 65 C-6.95121066 57.71208664 -9.4577699 50.71115049 -11 43 C-11.33 42.67 -11.66 42.34 -12 42 C-12.19185722 37.20356958 -11.68895409 32.73655939 -11 28 C-11.04125 26.96875 -11.0825 25.9375 -11.125 24.875 C-10.97360214 21.39284923 -9.8190535 19.93847104 -8 17 C-7.731875 15.7625 -7.46375 14.525 -7.1875 13.25 C-6.05475524 8.08862389 -3.08993611 4.19764906 0 0 Z " fill="#CFCFCF" transform="translate(22,35)"/>
<path d="M0 0 C0.886875 0.7425 1.77375 1.485 2.6875 2.25 C3.574375 2.91 4.46125 3.57 5.375 4.25 C7.52563596 6.11000948 9.09678785 7.90579262 10.6875 10.25 C10.3575 10.91 10.0275 11.57 9.6875 12.25 C8.635625 11.1671875 8.635625 11.1671875 7.5625 10.0625 C0.6706403 3.18926539 0.6706403 3.18926539 -8.5625 1 C-15.19245486 1.08610331 -20.63032032 3.56782032 -25.3125 8.25 C-28.00529443 12.37286604 -30.29839546 16.39993479 -31.3125 21.25 C-31.9725 21.25 -32.6325 21.25 -33.3125 21.25 C-33.3125 24.22 -33.3125 27.19 -33.3125 30.25 C-33.6425 30.25 -33.9725 30.25 -34.3125 30.25 C-35.44442998 20.77532684 -32.33780701 13.56077801 -26.63671875 6.0390625 C-19.87778823 -1.3258411 -9.25170568 -4.88769357 0 0 Z " fill="#8A8A8B" transform="translate(72.3125,37.75)"/>
<path d="M0 0 C2.74187131 2.33059062 4.23090358 5.10901475 5.96875 8.22265625 C8.7388639 12.99690558 10.94091933 15.02572462 16 17 C16.680625 17.825 17.36125 18.65 18.0625 19.5 C22.48136585 23.26073689 27.35631736 23.39692705 33 24 C33 25.32 33 26.64 33 28 C25.72246696 28.49339207 25.72246696 28.49339207 22.4375 26.25 C21.633125 25.5075 20.82875 24.765 20 24 C18.25647271 23.01728462 16.51283249 22.03475098 14.765625 21.05859375 C7.49044095 16.69670243 3.38875553 10.62469995 0 3 C0 2.01 0 1.02 0 0 Z " fill="#3D3D3E" transform="translate(21,96)"/>
<path d="M0 0 C4.55737263 0.43820891 7.57653445 0.85041169 11 4 C10.67 5.32 10.34 6.64 10 8 C9.34 8 8.68 8 8 8 C7.95101562 8.62648438 7.90203125 9.25296875 7.8515625 9.8984375 C7.77679688 10.71570313 7.70203125 11.53296875 7.625 12.375 C7.55539063 13.18710938 7.48578125 13.99921875 7.4140625 14.8359375 C7 17 7 17 5 19 C3.00391934 16.00587901 2.31056387 13.53658945 1.51171875 10.06640625 C0.97442455 7.75587172 0.97442455 7.75587172 -0.1875 4.625 C-1 2 -1 2 0 0 Z " fill="#F1F1F1" transform="translate(33,76)"/>
<path d="M0 0 C0.66 0 1.32 0 2 0 C2.18175781 0.9178125 2.36351562 1.835625 2.55078125 2.78125 C4.35870788 14.2547966 4.35870788 14.2547966 10 24 C9.625 26.125 9.625 26.125 9 28 C7.125 27.703125 7.125 27.703125 5 27 C1.07026236 20.61417634 -1.37107935 13.30515948 -3 6 C-2.67 5.01 -2.34 4.02 -2 3 C-1.01 4.32 -0.02 5.64 1 7 C0.67 4.69 0.34 2.38 0 0 Z " fill="#3A3A3B" transform="translate(31,81)"/>
<path d="M0 0 C0.29599372 8.2056037 -0.56205146 15.92437827 -2 24 C-3.32 24 -4.64 24 -6 24 C-6.66 24.66 -7.32 25.32 -8 26 C-9 25 -9 25 -9.3125 22.625 C-9.209375 21.75875 -9.10625 20.8925 -9 20 C-8.32195313 19.56042969 -7.64390625 19.12085937 -6.9453125 18.66796875 C-5.98238281 17.84232422 -5.98238281 17.84232422 -5 17 C-4.92419326 14.43873046 -4.92419326 14.43873046 -5.5625 11.6875 C-6.2648188 6.54625367 -6.2648188 6.54625367 -5.00390625 3.9453125 C-1.67209928 0 -1.67209928 0 0 0 Z " fill="#6C6C6D" transform="translate(20,51)"/>
<path d="M0 0 C-0.66 0.66 -1.32 1.32 -2 2 C-3.32 2 -4.64 2 -6 2 C-6 2.66 -6 3.32 -6 4 C-5.31292969 3.9278125 -4.62585938 3.855625 -3.91796875 3.78125 C-2.56638672 3.64203125 -2.56638672 3.64203125 -1.1875 3.5 C-0.29417969 3.4071875 0.59914063 3.314375 1.51953125 3.21875 C4 3 4 3 7 3 C4.1256616 5.8743384 1.13547122 5.8074996 -2.78515625 6.4375 C-3.51605469 6.623125 -4.24695313 6.80875 -5 7 C-5.33 7.66 -5.66 8.32 -6 9 C-7.91595968 9.08133791 -9.83291932 9.13934367 -11.75 9.1875 C-12.81734375 9.22230469 -13.8846875 9.25710937 -14.984375 9.29296875 C-18.30027855 8.97082786 -19.59016673 8.22851086 -22 6 C-19.36 5.67 -16.72 5.34 -14 5 C-13.67 4.01 -13.34 3.02 -13 2 C-8.56204759 0.5946484 -4.67869431 -0.29241839 0 0 Z " fill="#8A8A8B" transform="translate(70,119)"/>
<path d="M0 0 C0.33 0 0.66 0 1 0 C0.87431641 0.99966797 0.87431641 0.99966797 0.74609375 2.01953125 C-0.51912634 13.47057385 0.76239355 22.32692405 5 33 C5.55427956 34.59985238 6.09686017 36.20382919 6.625 37.8125 C6.86992187 38.53179687 7.11484375 39.25109375 7.3671875 39.9921875 C8 42 8 42 8.75 45.4375 C9.83899695 48.41222937 9.83899695 48.41222937 13.625 49.375 C14.73875 49.58125 15.8525 49.7875 17 50 C17 50.99 17 51.98 17 53 C13.65471542 52.44245257 10.86038252 51.85553756 8 50 C6.83984375 47.78515625 6.83984375 47.78515625 5.9375 45.0625 C5.6075 44.08023438 5.2775 43.09796875 4.9375 42.0859375 C3.78284131 38.28518597 2.74860996 34.46478996 1.80859375 30.60546875 C1.05771414 27.87926491 1.05771414 27.87926491 -0.5703125 25.140625 C-2.2796441 21.38569984 -2.367191 18.67273899 -2.3125 14.5625 C-2.30863281 13.30566406 -2.30476563 12.04882812 -2.30078125 10.75390625 C-1.98732075 6.84175641 -1.20321538 3.71510723 0 0 Z " fill="#A0A1A1" transform="translate(20,58)"/>
<path d="M0 0 C3.20878901 3.90329402 3.94276458 7.12045189 5 12 C5.99 12 6.98 12 8 12 C7.938125 12.78375 7.87625 13.5675 7.8125 14.375 C7.874375 15.24125 7.93625 16.1075 8 17 C8.99 17.66 9.98 18.32 11 19 C10.67 21.97 10.34 24.94 10 28 C8.68 28.33 7.36 28.66 6 29 C6.33 30.65 6.66 32.3 7 34 C6.01 33.67 5.02 33.34 4 33 C4 32.34 4 31.68 4 31 C2.02 30.34 0.04 29.68 -2 29 C-1.67 28.34 -1.34 27.68 -1 27 C1.475 27.99 1.475 27.99 4 29 C4 28.34 4 27.68 4 27 C4.99 26.67 5.98 26.34 7 26 C6.42655063 23.13275314 6.1385485 22.1385485 4 20 C1.39777076 13.52555403 0.42721076 6.92376066 0 0 Z " fill="#7E7E7F" transform="translate(33,82)"/>
<path d="M0 0 C1.62071879 1.41812894 3.2372374 2.84145378 4.828125 4.29296875 C8.7268969 7.35729127 13.28497844 9.49089278 18 11 C18.99 10.67 19.98 10.34 21 10 C21.33 9.34 21.66 8.68 22 8 C24.97 8 27.94 8 31 8 C31 9.32 31 10.64 31 12 C30.34 11.67 29.68 11.34 29 11 C29.33 10.34 29.66 9.68 30 9 C27.69 9.33 25.38 9.66 23 10 C22.67 10.99 22.34 11.98 22 13 C18.92776747 13.99847557 16.86300563 14.41392307 13.890625 12.98828125 C11.8850108 11.71098316 9.94102328 10.37270566 8 9 C7.34 8.67 6.68 8.34 6 8 C6 8.66 6 9.32 6 10 C2.00499382 8.6302836 -0.80009492 6.74277578 -4 4 C-3.67 3.01 -3.34 2.02 -3 1 C-2.01 0.67 -1.02 0.34 0 0 Z " fill="#3D3D3E" transform="translate(76,24)"/>
<path d="M0 0 C7.15291751 2.06639839 7.15291751 2.06639839 9 5 C8.57894737 9.42105263 8.57894737 9.42105263 7 11 C6.938125 12.11375 6.87625 13.2275 6.8125 14.375 C6 18 6 18 3.25 20 C-0.10420156 21.03206202 -1.70868339 21.06483773 -5 20 C-2.63707344 17.47411298 -1.33537489 16.11179163 2 15 C3.52160014 11.3962102 4 8.94779314 4 5 C2.02 4.34 0.04 3.68 -2 3 C-1.34 2.01 -0.68 1.02 0 0 Z " fill="#434344" transform="translate(62,8)"/>
<path d="M0 0 C2.75 0.25 2.75 0.25 5 1 C1.61878453 4.88213628 1.61878453 4.88213628 -1.625 5.5 C-2.40875 5.665 -3.1925 5.83 -4 6 C-4.6734491 7.3299205 -5.33912827 8.6637849 -6 10 C-7.65625 11.6328125 -7.65625 11.6328125 -9.5 13.125 C-11.4295694 14.70299531 -13.23458294 16.23458294 -15 18 C-15.33 17.34 -15.66 16.68 -16 16 C-16.99 16.66 -17.98 17.32 -19 18 C-15.58717138 10.70968534 -11.52676102 6.92707373 -4 4 C-3.29875 3.2575 -2.5975 2.515 -1.875 1.75 C-1.25625 1.1725 -0.6375 0.595 0 0 Z " fill="#474748" transform="translate(51,27)"/>
<path d="M0 0 C0 6.33999723 -5.02447312 11.42814409 -9 16 C-9.99 17.3303125 -9.99 17.3303125 -11 18.6875 C-13.14563014 21.16838485 -15.04150923 22.59860964 -18 24 C-18.66 23.67 -19.32 23.34 -20 23 C-19.09373216 21.7010161 -18.17450463 20.41106833 -17.25 19.125 C-16.73953125 18.40570313 -16.2290625 17.68640625 -15.703125 16.9453125 C-13.92496453 14.91429435 -12.47298393 14.02144988 -10 13 C-10 11.02 -10 9.04 -10 7 C-8.35 6.67 -6.7 6.34 -5 6 C-4.67 4.35 -4.34 2.7 -4 1 C-2.68 0.67 -1.36 0.34 0 0 Z " fill="#4E4E4F" transform="translate(105,91)"/>
<path d="M0 0 C0.36703621 4.77147075 -0.61450072 8.33993688 -2.21484375 12.75390625 C-3.12601153 15.24180476 -3.12601153 15.24180476 -3.9375 18.875 C-5.12072832 22.35508329 -6.05565177 23.01330847 -9 25 C-8.22766323 6.03780069 -8.22766323 6.03780069 -2.875 1 C-1 0 -1 0 0 0 Z " fill="#303031" transform="translate(36,42)"/>
<path d="M0 0 C0 0.66 0 1.32 0 2 C2.33294775 2.04241723 4.66702567 2.04092937 7 2 C7.33 1.67 7.66 1.34 8 1 C9.66617115 0.95936168 11.33388095 0.957279 13 1 C12.67 1.99 12.34 2.98 12 4 C9.234375 5.16796875 9.234375 5.16796875 5.75 6.1875 C4.61046875 6.53167969 3.4709375 6.87585938 2.296875 7.23046875 C-0.62909513 7.91342623 -3.0176081 8.16257399 -6 8 C-6.75 6.25 -6.75 6.25 -7 4 C-4.66754091 1.00112403 -3.88153854 0 0 0 Z " fill="#F4F4F4" transform="translate(63,113)"/>
<path d="M0 0 C1.93559313 -0.13504138 3.873872 -0.23201129 5.8125 -0.3125 C6.89144531 -0.37050781 7.97039062 -0.42851563 9.08203125 -0.48828125 C12 0 12 0 13.88671875 2.51953125 C14.25410156 3.33808594 14.62148437 4.15664062 15 5 C13 7 13 7 10.9765625 7.265625 C9.81253906 7.25789063 9.81253906 7.25789063 8.625 7.25 C7.85414062 7.25515625 7.08328125 7.2603125 6.2890625 7.265625 C3.8007639 6.97688045 2.15765802 6.24139229 0 5 C0 3.35 0 1.7 0 0 Z " fill="#E8E8E8" transform="translate(64,89)"/>
<path d="M0 0 C0 0.99 0 1.98 0 3 C-0.33 3.33 -0.66 3.66 -1 4 C-1.23192865 5.51469448 -1.41215238 7.03754562 -1.5625 8.5625 C-1.64628906 9.38878906 -1.73007813 10.21507813 -1.81640625 11.06640625 C-1.90728516 12.02353516 -1.90728516 12.02353516 -2 13 C-3.32 13.33 -4.64 13.66 -6 14 C-6 13.34 -6 12.68 -6 12 C-5.34 11.67 -4.68 11.34 -4 11 C-4 10.01 -4 9.02 -4 8 C-4.99 7.67 -5.98 7.34 -7 7 C-7.33 7.99 -7.66 8.98 -8 10 C-8.33 9.34 -8.66 8.68 -9 8 C-8.0625 5.875 -8.0625 5.875 -7 4 C-8.01320313 4.2165625 -8.01320313 4.2165625 -9.046875 4.4375 C-9.93890625 4.623125 -10.8309375 4.80875 -11.75 5 C-13.07257813 5.2784375 -13.07257813 5.2784375 -14.421875 5.5625 C-17 6 -17 6 -21 6 C-21.66 6.99 -22.32 7.98 -23 9 C-23.495 6.525 -23.495 6.525 -24 4 C-10 2 -10 2 -6.22265625 1.49609375 C-2.99463847 1.09166098 -2.99463847 1.09166098 0 0 Z " fill="#7F8080" transform="translate(103,84)"/>
<path d="M0 0 C0.33 0 0.66 0 1 0 C1 1.65 1 3.3 1 5 C1.71027344 5.04898438 2.42054687 5.09796875 3.15234375 5.1484375 C4.07144531 5.22320312 4.99054687 5.29796875 5.9375 5.375 C7.31228516 5.47941406 7.31228516 5.47941406 8.71484375 5.5859375 C9.84599609 5.79089844 9.84599609 5.79089844 11 6 C11.33 6.66 11.66 7.32 12 8 C6.24742268 11.67525773 6.24742268 11.67525773 3 12 C2.01 11.34 1.02 10.68 0 10 C0.75216797 10.56654297 0.75216797 10.56654297 1.51953125 11.14453125 C3 13 3 13 3.07421875 15.69921875 C2.94660156 16.68535156 2.81898437 17.67148438 2.6875 18.6875 C2.56761719 19.68136719 2.44773437 20.67523438 2.32421875 21.69921875 C2.21722656 22.45847656 2.11023437 23.21773437 2 24 C1.34 23.34 0.68 22.68 0 22 C0.375 18.375 0.375 18.375 1 15 C0.01 14.34 -0.98 13.68 -2 13 C-1.34 8.71 -0.68 4.42 0 0 Z " fill="#464647" transform="translate(42,86)"/>
<path d="M0 0 C0.33 1.32 0.66 2.64 1 4 C2.32 3.01 3.64 2.02 5 1 C4.71800273 3.4389764 4.42484385 5.87570933 4.125 8.3125 C4.04636719 9.00279297 3.96773437 9.69308594 3.88671875 10.40429688 C3.44056153 13.95639471 3.02019807 15.9697029 1 19 C-0.32 19 -1.64 19 -3 19 C-4.67641098 14.90913548 -3.2409319 11.28488982 -2.0625 7.25 C-1.86720703 6.55261719 -1.67191406 5.85523438 -1.47070312 5.13671875 C-0.9891754 3.42201027 -0.49574843 1.71065123 0 0 Z " fill="#E2E2E2" transform="translate(35,52)"/>
<path d="M0 0 C1.32 0.33 2.64 0.66 4 1 C3.51315789 8.54605263 3.51315789 8.54605263 1.375 10.4375 C-1.73183496 11.17332933 -4.83278012 11.60409751 -8 12 C-9.33917261 12.30903983 -10.67653254 12.62942911 -12 13 C-12 11.68 -12 10.36 -12 9 C-11.0925 8.71125 -10.185 8.4225 -9.25 8.125 C-5.45568514 6.88578054 -5.45568514 6.88578054 -2 5 C-0.71745356 2.46229997 -0.71745356 2.46229997 0 0 Z " fill="#CFCFCF" transform="translate(61,13)"/>
<path d="M0 0 C0.99 0 1.98 0 3 0 C1.57939484 4.52010733 -0.64542871 6.71997473 -4 10 C-8.56252735 15.3297685 -12.09730901 20.61407983 -15 27 C-15.66 27 -16.32 27 -17 27 C-16.50860597 22.6757325 -15.72123293 20.34920977 -13 17 C-12.3503125 15.5459375 -12.3503125 15.5459375 -11.6875 14.0625 C-9.67408135 10.40851801 -7.21470642 8.62425014 -4 6 C-3.278125 4.906875 -2.55625 3.81375 -1.8125 2.6875 C-1.214375 1.800625 -0.61625 0.91375 0 0 Z " fill="#464647" transform="translate(37,21)"/>
<path d="M0 0 C3 1 3 1 5 4 C6.2684375 4.4640625 6.2684375 4.4640625 7.5625 4.9375 C8.366875 5.288125 9.17125 5.63875 10 6 C10.65234375 8.06640625 10.65234375 8.06640625 11 10 C1.93033319 10.7788836 1.93033319 10.7788836 -1.6875 7.75 C-3 5 -3 5 -2.875 2.75 C-2 1 -2 1 0 0 Z " fill="#828383" transform="translate(41,109)"/>
<path d="M0 0 C1.32 0.33 2.64 0.66 4 1 C3.67 2.32 3.34 3.64 3 5 C2.34 5 1.68 5 1 5 C1 5.66 1 6.32 1 7 C0.34 7 -0.32 7 -1 7 C-1 8.98 -1 10.96 -1 13 C-2.98 13.99 -2.98 13.99 -5 15 C-4.67 14.4225 -4.34 13.845 -4 13.25 C-2.72924102 10.80116138 -2.72924102 10.80116138 -3 7 C-5.91630113 6.94250443 -5.91630113 6.94250443 -9 8 C-10.4926041 10.27444434 -11.14242011 12.37961699 -12 15 C-12.99 15 -13.98 15 -15 15 C-14.34 14.34 -13.68 13.68 -13 13 C-12.83318891 9.91652174 -12.83318891 9.91652174 -13 7 C-11.71802734 6.49339844 -11.71802734 6.49339844 -10.41015625 5.9765625 C-9.30542969 5.53054687 -8.20070313 5.08453125 -7.0625 4.625 C-5.96035156 4.18414062 -4.85820313 3.74328125 -3.72265625 3.2890625 C-0.88769814 2.28958568 -0.88769814 2.28958568 0 0 Z " fill="#9B9C9C" transform="translate(96,91)"/>
<path d="M0 0 C0.42765417 6.41481258 -1.14256832 11.88595404 -3 18 C-4.32 18.33 -5.64 18.66 -7 19 C-7.39047172 13.01276694 -6.45092514 7.51710308 -4 2 C-1 0 -1 0 0 0 Z " fill="#F1F1F1" transform="translate(29,42)"/>
<path d="M0 0 C-0.375 2.3125 -0.375 2.3125 -2 5 C-5.24589962 6.37574553 -8.56698276 7.22092044 -12 8 C-13.51953125 6.63671875 -13.51953125 6.63671875 -15 5 C-14.6875 2.8125 -14.6875 2.8125 -14 1 C-12.906875 1.020625 -11.81375 1.04125 -10.6875 1.0625 C-6.85544593 0.99754993 -3.85400436 0 0 0 Z " fill="#3E3E3F" transform="translate(96,88)"/>
<path d="M0 0 C2.4375 0.1875 2.4375 0.1875 3.4375 1.1875 C3.57865161 3.85808851 3.47997107 6.51182238 3.4375 9.1875 C-2.00056647 9.55003776 -2.00056647 9.55003776 -4.5 7.9375 C-5.5625 6.1875 -5.5625 6.1875 -5.375 4.125 C-4.1244343 1.14288179 -3.26118233 0.2386231 0 0 Z " fill="#8C8C8D" transform="translate(60.5625,75.8125)"/>
<path d="M0 0 C-0.33 0.99 -0.66 1.98 -1 3 C-2.18078125 3.03738281 -3.3615625 3.07476562 -4.578125 3.11328125 C-6.13544788 3.17895149 -7.69273814 3.24539847 -9.25 3.3125 C-10.02730469 3.33505859 -10.80460937 3.35761719 -11.60546875 3.38085938 C-16.11958989 3.59306165 -18.47776172 3.98670899 -22 7 C-23.32 7 -24.64 7 -26 7 C-25.8125 5.125 -25.8125 5.125 -25 3 C-21.06077647 0.9187649 -17.77564961 0.81104455 -13.375 0.9375 C-8.66429002 1.06146605 -4.6351509 0 0 0 Z " fill="#3E3E3F" transform="translate(78,108)"/>
<path d="M0 0 C3.05146958 1.01715653 4.03502174 1.56743485 6 4 C6.66015625 6.05078125 6.66015625 6.05078125 7.0625 8.3125 C7.77900403 11.99737787 8.72890063 15.45908033 10 19 C9.360625 18.34 8.72125 17.68 8.0625 17 C6.35917681 14.88397569 6.35917681 14.88397569 5 15 C4.67 15.66 4.34 16.32 4 17 C0 5.45283019 0 5.45283019 0 0 Z " fill="#747475" transform="translate(17,84)"/>
<path d="M0 0 C1.9375 0.5625 1.9375 0.5625 4 2 C4.75 5.625 4.75 5.625 5 9 C6.65 9.33 8.3 9.66 10 10 C9.67 11.32 9.34 12.64 9 14 C6.69 13.67 4.38 13.34 2 13 C-0.28571429 4.57142857 -0.28571429 4.57142857 0 0 Z " fill="#464647" transform="translate(88,18)"/>
<path d="M0 0 C0 0.99 0 1.98 0 3 C-6.27087737 6.71607548 -10.75460274 7.53449652 -18 7 C-18 6.34 -18 5.68 -18 5 C-16.02 4.67 -14.04 4.34 -12 4 C-12 3.34 -12 2.68 -12 2 C-10.56342755 1.66269158 -9.12569907 1.33030409 -7.6875 1 C-6.88699219 0.814375 -6.08648437 0.62875 -5.26171875 0.4375 C-3 0 -3 0 0 0 Z " fill="#616162" transform="translate(82,116)"/>
<path d="M0 0 C2.56695636 0.39491636 4.67123994 0.83561997 7 2 C7.35338623 4.96844435 7.5417682 7.15598218 5.88671875 9.734375 C4.64496832 11.20348819 3.32662082 12.60704814 2 14 C-0.83022097 10.00439392 0.23789554 6.57262677 1 2 C0.34 1.67 -0.32 1.34 -1 1 C-0.67 0.67 -0.34 0.34 0 0 Z " fill="#7F7F80" transform="translate(106,22)"/>
<path d="M0 0 C1 2 1 2 1 6 C1.99 6 2.98 6 4 6 C4.33 7.98 4.66 9.96 5 12 C4.36191406 11.91621094 3.72382812 11.83242188 3.06640625 11.74609375 C2.24011719 11.64425781 1.41382812 11.54242188 0.5625 11.4375 C-0.26121094 11.33308594 -1.08492187 11.22867187 -1.93359375 11.12109375 C-2.61550781 11.08113281 -3.29742187 11.04117187 -4 11 C-4.33 11.33 -4.66 11.66 -5 12 C-6.68183948 12.23287008 -8.3712416 12.41264166 -10.0625 12.5625 C-10.98160156 12.64628906 -11.90070312 12.73007812 -12.84765625 12.81640625 C-13.55792969 12.87699219 -14.26820312 12.93757813 -15 13 C-15 12.01 -15 11.02 -15 10 C-15.66 9.34 -16.32 8.68 -17 8 C-13.535 7.505 -13.535 7.505 -10 7 C-10.33 7.99 -10.66 8.98 -11 10 C-7.97580475 9.41196203 -4.98241547 8.77321882 -2 8 C-1.855625 6.865625 -1.71125 5.73125 -1.5625 4.5625 C-1 1 -1 1 0 0 Z " fill="#747475" transform="translate(69,18)"/>
<path d="M0 0 C0 3.49952123 -1.21769145 5.09585682 -2.98046875 8.0234375 C-4.62819394 11.2178779 -5.22860972 14.49907488 -6 18 C-6.33 18.66 -6.66 19.32 -7 20 C-7.14856188 24.53113746 -7.10529324 28.57882704 -6 33 C-7.32 33.99 -8.64 34.98 -10 36 C-9.814375 35.030625 -9.62875 34.06125 -9.4375 33.0625 C-8.86031925 29.23282774 -9.29715648 25.81470614 -9.94140625 22.015625 C-10 20 -10 20 -8 17 C-7.7525 15.80375 -7.505 14.6075 -7.25 13.375 C-6.06917591 8.16775933 -3.12448056 4.24457736 0 0 Z " fill="#CFCFCF" transform="translate(22,35)"/>
<path d="M0 0 C-0.845625 0.350625 -1.69125 0.70125 -2.5625 1.0625 C-8.93074155 4.65187251 -13.14256502 9.24828935 -16 16 C-16.77782482 19.64647897 -16.77782482 19.64647897 -17.1875 23.375 C-17.34605469 24.62023437 -17.50460938 25.86546875 -17.66796875 27.1484375 C-17.77753906 28.08945313 -17.88710938 29.03046875 -18 30 C-18.99 30 -19.98 30 -21 30 C-20.67 29.67 -20.34 29.34 -20 29 C-19.75252391 26.85620112 -19.52746143 24.70980288 -19.3125 22.5625 C-18.05393659 13.53207789 -14.99432947 7.11687869 -7.875 1.3125 C-4.89210418 -0.90969749 -3.52392724 -1.29210666 0 0 Z " fill="#464647" transform="translate(59,40)"/>
<path d="M0 0 C0.66 0 1.32 0 2 0 C2.99 5.28 3.98 10.56 5 16 C4.34 15.67 3.68 15.34 3 15 C3 16.65 3 18.3 3 20 C1 19 1 19 -0.10546875 16.1640625 C-0.46253906 14.99617188 -0.81960937 13.82828125 -1.1875 12.625 C-1.55230469 11.46226563 -1.91710937 10.29953125 -2.29296875 9.1015625 C-3 6 -3 6 -2 3 C-1.01 4.32 -0.02 5.64 1 7 C0.67 4.69 0.34 2.38 0 0 Z " fill="#474748" transform="translate(31,81)"/>
<path d="M0 0 C0.99 0.33 1.98 0.66 3 1 C4.989359 6.19518415 5.42234587 11.15949657 5.5 16.6875 C5.54125 17.43322266 5.5825 18.17894531 5.625 18.94726562 C5.65625 21.13671875 5.65625 21.13671875 5 25 C1.96875 27.51953125 1.96875 27.51953125 -1 29 C-0.67 28.01 -0.34 27.02 0 26 C0.66 25.67 1.32 25.34 2 25 C2.40206225 22.46065949 2.66141672 20.05723504 2.8125 17.5 C2.85818115 16.77619141 2.9038623 16.05238281 2.95092773 15.30664062 C3.20288015 9.57776833 2.3569751 5.27962423 0 0 Z " fill="#585859" transform="translate(80,49)"/>
<path d="M0 0 C0.77923828 0.00451172 1.55847656 0.00902344 2.36132812 0.01367188 C4.26175268 0.02533092 6.16213706 0.04326123 8.0625 0.0625 C7.7325 0.7225 7.4025 1.3825 7.0625 2.0625 C2.43456945 3.24914886 -2.12504798 3.11332097 -6.86328125 3 C-8.92853536 2.82503895 -8.92853536 2.82503895 -9.9375 4.0625 C-11.93708364 4.10330783 -13.93795254 4.10504356 -15.9375 4.0625 C-15.9375 3.0725 -15.9375 2.0825 -15.9375 1.0625 C-10.57260405 0.15766363 -5.43432543 -0.06053662 0 0 Z " fill="#888989" transform="translate(66.9375,106.9375)"/>
<path d="M0 0 C4 1 4 1 7 3 C7 4.32 7 5.64 7 7 C6.01 7.495 6.01 7.495 5 8 C5 9.98 5 11.96 5 14 C3.02 12.68 1.04 11.36 -1 10 C-0.01 9.34 0.98 8.68 2 8 C1.34 5.36 0.68 2.72 0 0 Z " fill="#9A9B9B" transform="translate(98,53)"/>
<path d="M0 0 C0.33 0.99 0.66 1.98 1 3 C-4.72901269 4.54987783 -9.80372854 5.16915802 -15.73828125 4.77734375 C-18.58476156 5.0575672 -19.88060047 6.14249423 -22 8 C-21.6875 6.125 -21.6875 6.125 -21 4 C-17.17000107 1.44666738 -13.82620763 1.58807716 -9.375 1.4375 C-4.283313 1.70314836 -4.283313 1.70314836 0 0 Z " fill="#89898A" transform="translate(78,109)"/>
<path d="M0 0 C0.391875 0.61875 0.78375 1.2375 1.1875 1.875 C3.27717491 4.32496368 4.97463327 5.01879998 8 6 C8 6.66 8 7.32 8 8 C5.69 8 3.38 8 1 8 C1 8.66 1 9.32 1 10 C0.30132812 10.08636719 -0.39734375 10.17273438 -1.1171875 10.26171875 C-3.83968863 10.68204824 -6.38196209 11.13743453 -9 12 C-10.75568004 14.45748398 -10.75568004 14.45748398 -11 17 C-11.33 17 -11.66 17 -12 17 C-12.25 14.6875 -12.25 14.6875 -12 12 C-9.17703654 9.38614494 -6.4225583 8.32728585 -2.75 7.3125 C-1.85796875 7.06113281 -0.9659375 6.80976562 -0.046875 6.55078125 C0.62859375 6.36902344 1.3040625 6.18726562 2 6 C1.34 5.34 0.68 4.68 0 4 C0 2.68 0 1.36 0 0 Z " fill="#808081" transform="translate(61,91)"/>
<path d="M0 0 C0.33 0 0.66 0 1 0 C1 3.63 1 7.26 1 11 C-3 12 -3 12 -5 11 C-5.3888868 8.35556973 -5.39540909 6.61173798 -3.921875 4.33203125 C-2.68085526 2.83068266 -1.34417351 1.40974295 0 0 Z " fill="#646465" transform="translate(19,51)"/>
<path d="M0 0 C1.65 0 3.3 0 5 0 C4.34 2.31 3.68 4.62 3 7 C-4.38461538 7.36923077 -4.38461538 7.36923077 -7.5 5.5 C-7.995 5.005 -8.49 4.51 -9 4 C-6.36 3.67 -3.72 3.34 -1 3 C-0.67 2.01 -0.34 1.02 0 0 Z " fill="#A0A1A1" transform="translate(57,121)"/>
<path d="M0 0 C2.25 1.0625 2.25 1.0625 4.25 4.0625 C3.198125 3.77375 2.14625 3.485 1.0625 3.1875 C-0.8246875 3.125625 -0.8246875 3.125625 -2.75 3.0625 C-5.85699118 6.03140268 -8.07486372 9.10308698 -9.75 13.0625 C-11.73 13.0625 -13.71 13.0625 -15.75 13.0625 C-16.245 10.5875 -16.245 10.5875 -16.75 8.0625 C-16.42 9.0525 -16.09 10.0425 -15.75 11.0625 C-14.1 11.0625 -12.45 11.0625 -10.75 11.0625 C-10.54375 10.36125 -10.3375 9.66 -10.125 8.9375 C-8.01939753 4.53487665 -5.20406218 0.11827414 0 0 Z " fill="#959696" transform="translate(85.75,11.9375)"/>
<path d="M0 0 C0.9075 0.309375 1.815 0.61875 2.75 0.9375 C5.16563338 1.7272263 7.52780285 2.42949297 10 3 C10.66 2.01 11.32 1.02 12 0 C14.1640625 -0.29296875 14.1640625 -0.29296875 16.625 -0.1875 C17.44226563 -0.16042969 18.25953125 -0.13335938 19.1015625 -0.10546875 C20.04128906 -0.05326172 20.04128906 -0.05326172 21 0 C21 1.32 21 2.64 21 4 C20.34 3.67 19.68 3.34 19 3 C19.33 2.34 19.66 1.68 20 1 C17.69 1.33 15.38 1.66 13 2 C12.67 2.99 12.34 3.98 12 5 C7.90854474 6.16898722 6.45635697 6.24508059 2.625 4.1875 C1.75875 3.465625 0.8925 2.74375 0 2 C0 1.34 0 0.68 0 0 Z " fill="#474748" transform="translate(86,32)"/>
<path d="M0 0 C0.99386719 0.00902344 1.98773438 0.01804688 3.01171875 0.02734375 C4.15060547 0.04474609 4.15060547 0.04474609 5.3125 0.0625 C5.9725 1.3825 6.6325 2.7025 7.3125 4.0625 C2.0325 3.7325 -3.2475 3.4025 -8.6875 3.0625 C-8.6875 2.4025 -8.6875 1.7425 -8.6875 1.0625 C-5.53819107 0.01273036 -3.29935544 -0.03881595 0 0 Z " fill="#464647" transform="translate(64.6875,44.9375)"/>
<path d="M0 0 C6.61095807 -0.47034484 10.70264621 -0.43499387 16 4 C16.886875 4.66 17.77375 5.32 18.6875 6 C20.83813596 7.86000948 22.40928785 9.65579262 24 12 C23.67 12.66 23.34 13.32 23 14 C22.29875 13.278125 21.5975 12.55625 20.875 11.8125 C15.5773488 6.43568564 15.5773488 6.43568564 9 3 C9 2.34 9 1.68 9 1 C6.03 1 3.06 1 0 1 C0 0.67 0 0.34 0 0 Z " fill="#929293" transform="translate(59,36)"/>
<path d="M0 0 C0.12375 0.639375 0.2475 1.27875 0.375 1.9375 C0.58125 2.618125 0.7875 3.29875 1 4 C1.66 4.33 2.32 4.66 3 5 C1.50468364 8.80625982 -0.58980056 10.77940501 -4 13 C-6.8125 13.25 -6.8125 13.25 -9 13 C-9.33 12.34 -9.66 11.68 -10 11 C-8.35 11 -6.7 11 -5 11 C-4.67 10.01 -4.34 9.02 -4 8 C-4.66 7.67 -5.32 7.34 -6 7 C-4.68 7 -3.36 7 -2 7 C-1.34 4.69 -0.68 2.38 0 0 Z " fill="#A0A1A1" transform="translate(58,9)"/>
<path d="M0 0 C-0.34302035 5.98511371 -0.82307843 10.75117306 -4 16 C-4.97792207 12.81434478 -5.04657813 10.18678911 -4.75 6.875 C-4.64945313 5.57175781 -4.64945313 5.57175781 -4.546875 4.2421875 C-3.94388316 1.76992096 -2.97206969 0 0 0 Z " fill="#1A1B1B" transform="translate(32,51)"/>
<path d="M0 0 C0.33 0.99 0.66 1.98 1 3 C1.66 3.33 2.32 3.66 3 4 C-1.58691281 6.73030525 -3.83882757 7.09812179 -9 6 C-9.886875 6.185625 -10.77375 6.37125 -11.6875 6.5625 C-14 7 -14 7 -17 5 C-16.02417969 4.89042969 -15.04835938 4.78085938 -14.04296875 4.66796875 C-12.77066406 4.50941406 -11.49835938 4.35085937 -10.1875 4.1875 C-8.92292969 4.03667969 -7.65835938 3.88585937 -6.35546875 3.73046875 C-3.08474189 3.01844789 -1.941158 2.63391327 0 0 Z " fill="#CFCFCF" transform="translate(80,109)"/>
<path d="M0 0 C0.33 0 0.66 0 1 0 C3.82635836 7.98030597 2.7431678 15.72472614 2 24 C1.67 24 1.34 24 1 24 C0.93941406 23.17757812 0.87882812 22.35515625 0.81640625 21.5078125 C0.34782769 15.26490435 -0.17205037 9.04498336 -0.9140625 2.828125 C-0.94242187 2.22484375 -0.97078125 1.6215625 -1 1 C-0.67 0.67 -0.34 0.34 0 0 Z " fill="#747475" transform="translate(103,60)"/>
<path d="M0 0 C1.32 0.33 2.64 0.66 4 1 C4 3.31 4 5.62 4 8 C2.35 7.67 0.7 7.34 -1 7 C-1.625 5.1875 -1.625 5.1875 -2 3 C-1.34 2.01 -0.68 1.02 0 0 Z " fill="#DDDDDD" transform="translate(83,21)"/>
<path d="M0 0 C0.19412181 1.47831221 0.38012131 2.95769316 0.5625 4.4375 C0.66691406 5.26121094 0.77132812 6.08492188 0.87890625 6.93359375 C0.91886719 7.61550781 0.95882812 8.29742187 1 9 C0 10 0 10 -1.84765625 10.09765625 C-3.8984375 10.06510417 -5.94921875 10.03255208 -8 10 C-8 9.67 -8 9.34 -8 9 C-6.02 8.67 -4.04 8.34 -2 8 C-2 7.34 -2 6.68 -2 6 C-3.65 5.67 -5.3 5.34 -7 5 C-6.01 4.67 -5.02 4.34 -4 4 C-4.33 3.01 -4.66 2.02 -5 1 C-1.125 0 -1.125 0 0 0 Z " fill="#7A7A7B" transform="translate(56,115)"/>
<path d="M0 0 C0.99 0.33 1.98 0.66 3 1 C4.1875 4.5625 4.1875 4.5625 5 8 C-0.75 7.25 -0.75 7.25 -3 5 C-2.75 2.9375 -2.75 2.9375 -2 1 C-1.34 0.67 -0.68 0.34 0 0 Z " fill="#ABABAB" transform="translate(41,109)"/>
<path d="M0 0 C3.69322446 3.69322446 4.25387759 6.60169482 4.2734375 11.84375 C4.26570313 12.5553125 4.25796875 13.266875 4.25 14 C4.25773437 14.7115625 4.26546875 15.423125 4.2734375 16.15625 C4.25937762 19.92429832 4.09678961 22.80489203 2 26 C1.34 25.67 0.68 25.34 0 25 C0.33 24.67 0.66 24.34 1 24 C1.10113109 21.28135829 1.13863787 18.59348291 1.125 15.875 C1.12886719 15.12734375 1.13273437 14.3796875 1.13671875 13.609375 C1.12863808 8.97107162 0.76455296 4.57518202 0 0 Z " fill="#959696" transform="translate(83,50)"/>
<path d="M0 0 C1.00016187 2.00032373 1.49396008 3.83125748 2 6 C3.32 6.33 4.64 6.66 6 7 C6 4.69 6 2.38 6 0 C6.33 0 6.66 0 7 0 C7 2.64 7 5.28 7 8 C4.875 8.8125 4.875 8.8125 2 9 C-0.41454116 7.58633421 -1.98775553 6.01224447 -4 4 C-4 3.34 -4 2.68 -4 2 C-2.68 1.34 -1.36 0.68 0 0 Z " fill="#8D8E8E" transform="translate(81,22)"/>
<path d="M0 0 C0 3.14845104 -0.36642485 3.97386017 -1.9375 6.5625 C-2.29714844 7.16191406 -2.65679687 7.76132813 -3.02734375 8.37890625 C-3.34832031 8.91386719 -3.66929688 9.44882813 -4 10 C-4.33 10.66 -4.66 11.32 -5 12 C-6.32 12 -7.64 12 -9 12 C-8.67 10.35 -8.34 8.7 -8 7 C-7.01 6.67 -6.02 6.34 -5 6 C-4.67 4.35 -4.34 2.7 -4 1 C-2.68 0.67 -1.36 0.34 0 0 Z " fill="#363737" transform="translate(105,91)"/>
<path d="M0 0 C0.66 0.33 1.32 0.66 2 1 C2 1.66 2 2.32 2 3 C2.66 3 3.32 3 4 3 C4.66 4.65 5.32 6.3 6 8 C2.28400809 8.20086443 1.22791555 8.1519437 -2 6 C-2.1875 3.375 -2.1875 3.375 -2 1 C-1.34 0.67 -0.68 0.34 0 0 Z " fill="#6D6D6E" transform="translate(95,54)"/>
<path d="M0 0 C-0.50603992 2.16874252 -0.99983813 3.99967627 -2 6 C-3.65 5.67 -5.3 5.34 -7 5 C-6.625 2.5625 -6.625 2.5625 -6 0 C-3.50907189 -1.24546405 -2.58919267 -0.7767578 0 0 Z " fill="#F5F5F5" transform="translate(93,100)"/>
<path d="M0 0 C0.66 0.33 1.32 0.66 2 1 C1.21625 1.721875 0.4325 2.44375 -0.375 3.1875 C-2.86255962 5.85274245 -3.87002149 7.61006448 -5 11 C-6 12 -6 12 -7.84765625 12.09765625 C-9.8984375 12.06510417 -11.94921875 12.03255208 -14 12 C-14 11.67 -14 11.34 -14 11 C-10.535 10.505 -10.535 10.505 -7 10 C-6.773125 9.0925 -6.54625 8.185 -6.3125 7.25 C-4.81872023 3.55111676 -3.24599423 2.22094342 0 0 Z " fill="#656566" transform="translate(81,76)"/>
<path d="M0 0 C0.99 0.33 1.98 0.66 3 1 C3.2475 1.969375 3.495 2.93875 3.75 3.9375 C4.1625 4.948125 4.575 5.95875 5 7 C8.52451159 8.46022435 8.52451159 8.46022435 12 9 C12 9.99 12 10.98 12 12 C8.65775544 11.44295924 5.86270867 10.84690882 3 9 C1.953125 6.8359375 1.953125 6.8359375 1.25 4.375 C1.00765625 3.55773437 0.7653125 2.74046875 0.515625 1.8984375 C0.26039062 0.95871094 0.26039062 0.95871094 0 0 Z " fill="#8C8D8D" transform="translate(25,99)"/>
<path d="M0 0 C2.23193136 3.34789704 3.34597201 6.7096309 4.5625 10.5 C4.78357422 11.17675781 5.00464844 11.85351562 5.23242188 12.55078125 C5.82499252 14.36608831 6.41273866 16.1829684 7 18 C7.33 18.99 7.66 19.98 8 21 C7.01 21 6.02 21 5 21 C3.46005026 17.36437952 2.33347451 13.76655724 1.375 9.9375 C1.11460938 8.91527344 0.85421875 7.89304687 0.5859375 6.83984375 C0 4 0 4 0 0 Z " fill="#808081" transform="translate(28,87)"/>
<path d="M0 0 C0.66 0.33 1.32 0.66 2 1 C1.34 1.66 0.68 2.32 0 3 C-0.34216235 7.65194714 -0.34216235 7.65194714 1 12 C0.01 11.67 -0.98 11.34 -2 11 C-2 10.34 -2 9.68 -2 9 C-2.99 8.67 -3.98 8.34 -5 8 C-4.64950425 4.75791433 -4.43778819 3.38472296 -1.9375 1.1875 C-1.298125 0.795625 -0.65875 0.40375 0 0 Z " fill="#A3A4A4" transform="translate(105,36)"/>
<path d="M0 0 C0 2.31 0 4.62 0 7 C-1.98 7 -3.96 7 -6 7 C-5.37162381 3.35541809 -4.14650034 0 0 0 Z " fill="#ADADAD" transform="translate(107,24)"/>
<path d="M0 0 C0.66 0 1.32 0 2 0 C2 2.64 2 5.28 2 8 C0.02 8 -1.96 8 -4 8 C-4 7.01 -4 6.02 -4 5 C-3.01 4.34 -2.02 3.68 -1 3 C-0.67 2.01 -0.34 1.02 0 0 Z " fill="#F9F9F9" transform="translate(61,15)"/>
<path d="M0 0 C3.34249629 0.59687434 5.46436342 1.73603877 8 4 C8 4.66 8 5.32 8 6 C3.545 5.01 3.545 5.01 -1 4 C-0.67 2.68 -0.34 1.36 0 0 Z " fill="#464647" transform="translate(44,13)"/>
<path d="M0 0 C2.73625437 1.47336774 3.38708421 2.44772966 4.4375 5.3125 C3.715625 4.8175 2.99375 4.3225 2.25 3.8125 C-0.71098659 2.23330715 -2.27503029 2.03071688 -5.5625 2.3125 C-6.2225 3.9625 -6.8825 5.6125 -7.5625 7.3125 C-8.2225 6.9825 -8.8825 6.6525 -9.5625 6.3125 C-4.86258905 -1.30459706 -4.86258905 -1.30459706 0 0 Z " fill="#8E8F8F" transform="translate(47.5625,11.6875)"/>
<path d="M0 0 C1.48828125 1.30078125 1.48828125 1.30078125 3 3 C3.1875 6.1875 3.1875 6.1875 3 9 C3.66 9 4.32 9 5 9 C5 7.02 5 5.04 5 3 C5.66 2.67 6.32 2.34 7 2 C6.88590407 3.45922693 6.75834456 4.91740598 6.625 6.375 C6.55539063 7.18710938 6.48578125 7.99921875 6.4140625 8.8359375 C6 11 6 11 4 13 C1.99706653 9.99559979 1.50728374 8.29006055 0.875 4.8125 C0.70742188 3.91144531 0.53984375 3.01039062 0.3671875 2.08203125 C0.24601562 1.39496094 0.12484375 0.70789063 0 0 Z " fill="#CFCFCF" transform="translate(34,82)"/>
<path d="M0 0 C0.7425 0.0825 1.485 0.165 2.25 0.25 C1.25 3.25 1.25 3.25 -1.75 5.25 C-4.4375 4.875 -4.4375 4.875 -6.75 4.25 C-3.42692308 0.31153846 -3.42692308 0.31153846 0 0 Z " fill="#2C2D2D" transform="translate(63.75,23.75)"/>
<path d="M0 0 C0.99 0.33 1.98 0.66 3 1 C1.35 2.32 -0.3 3.64 -2 5 C0.31 5.33 2.62 5.66 5 6 C1.77208445 8.1519437 0.71599191 8.20086443 -3 8 C-3.75 6.25 -3.75 6.25 -4 4 C-2.0625 1.75 -2.0625 1.75 0 0 Z " fill="#D5D5D5" transform="translate(60,113)"/>
<path d="M0 0 C0.66 0 1.32 0 2 0 C2.99 2.97 3.98 5.94 5 9 C4.01 9 3.02 9 2 9 C0.14223235 5.86501708 -0.20140476 3.62528568 0 0 Z " fill="#121313" transform="translate(28,79)"/>
<path d="M0 0 C0 3 0 3 -1 6 C-3.4375 7.75 -3.4375 7.75 -6 9 C-6.66 8.67 -7.32 8.34 -8 8 C-4 1.42857143 -4 1.42857143 0 0 Z " fill="#2C2C2D" transform="translate(93,106)"/>
<path d="M0 0 C1.98 0.495 1.98 0.495 4 1 C4 2.65 4 4.3 4 6 C2.35 5.67 0.7 5.34 -1 5 C-0.67 3.35 -0.34 1.7 0 0 Z " fill="#DEDEDE" transform="translate(59,78)"/>
<path d="M0 0 C0.86044922 0.33064453 0.86044922 0.33064453 1.73828125 0.66796875 C0.89265625 1.03921875 0.04703125 1.41046875 -0.82421875 1.79296875 C-4.80855753 3.96624445 -7.92808059 6.6203528 -11.26171875 9.66796875 C-10.71920725 5.95136014 -9.42104494 4.5774464 -6.44921875 2.35546875 C-5.41861328 1.55689453 -5.41861328 1.55689453 -4.3671875 0.7421875 C-2.26171875 -0.33203125 -2.26171875 -0.33203125 0 0 Z " fill="#363637" transform="translate(57.26171875,39.33203125)"/>
<path d="M0 0 C-0.33 1.65 -0.66 3.3 -1 5 C-2.65 5 -4.3 5 -6 5 C-5.625 3.0625 -5.625 3.0625 -5 1 C-3 0 -3 0 0 0 Z " fill="#F3F3F3" transform="translate(87,107)"/>
<path d="M0 0 C1.32 0.33 2.64 0.66 4 1 C3.67 2.32 3.34 3.64 3 5 C1.68 5.33 0.36 5.66 -1 6 C-1 2 -1 2 0 0 Z " fill="#DDDDDD" transform="translate(96,91)"/>
<path d="M0 0 C0.33 0 0.66 0 1 0 C1 0.763125 1 1.52625 1 2.3125 C1.70180149 5.1006883 1.70180149 5.1006883 3.84765625 6 C5.88309495 6.74668651 7.91262742 7.41515529 10 8 C6.59068103 9.13643966 5.99664544 8.86747764 2.8125 7.5625 C2.09707031 7.27503906 1.38164063 6.98757812 0.64453125 6.69140625 C-0.16951172 6.34916016 -0.16951172 6.34916016 -1 6 C-1.042721 4.33388095 -1.04063832 2.66617115 -1 1 C-0.67 0.67 -0.34 0.34 0 0 Z " fill="#C7C7C7" transform="translate(79,79)"/>
<path d="M0 0 C0 0.99 0 1.98 0 3 C-0.70125 2.814375 -1.4025 2.62875 -2.125 2.4375 C-5.33888698 1.94843024 -7.83560336 2.33768442 -11 3 C-7.79596591 -1.80605113 -5.23274949 -1.0465499 0 0 Z " fill="#A0A1A1" transform="translate(111,21)"/>
<path d="M0 0 C0.33 0 0.66 0 1 0 C1.66 3.63 2.32 7.26 3 11 C1.68 11.99 0.36 12.98 -1 14 C-0.835 12.989375 -0.67 11.97875 -0.5 10.9375 C-0.03014231 7.23737067 0.07599849 3.72392609 0 0 Z " fill="#A0A1A1" transform="translate(13,57)"/>
<path d="M0 0 C-0.99 1.485 -0.99 1.485 -2 3 C-4.625 3.1875 -4.625 3.1875 -7 3 C-7 2.01 -7 1.02 -7 0 C-4.3333581 -1.33332095 -2.83319697 -0.67102033 0 0 Z " fill="#2F3030" transform="translate(56,28)"/>
<path d="M0 0 C1.65 0 3.3 0 5 0 C5 1.32 5 2.64 5 4 C2.36 4 -0.28 4 -3 4 C-3 3.67 -3 3.34 -3 3 C-1.35 2.67 0.3 2.34 2 2 C1.34 1.34 0.68 0.68 0 0 Z " fill="#464647" transform="translate(49,120)"/>
<path d="M0 0 C4.83256305 0.41421969 6.82679218 2.46413986 10 6 C6.62537285 5.45276317 4.91765 4.9451 2 3 C2 2.34 2 1.68 2 1 C1.34 0.67 0.68 0.34 0 0 Z " fill="#6A6A6B" transform="translate(80,34)"/>
<path d="M0 0 C0.99 0 1.98 0 3 0 C1.71480435 2.86697492 0.42870746 4.97607712 -2 7 C-2.66 7 -3.32 7 -4 7 C-2.79618552 4.50638429 -1.54571278 2.31856917 0 0 Z " fill="#171818" transform="translate(42,33)"/>
<path d="M0 0 C1.32 0.33 2.64 0.66 4 1 C4.33 2.65 4.66 4.3 5 6 C3.0625 5.25 3.0625 5.25 1 4 C0.25 1.875 0.25 1.875 0 0 Z " fill="#D1D1D1" transform="translate(98,53)"/>
<path d="M0 0 C-0.33 0.99 -0.66 1.98 -1 3 C-3.31 3 -5.62 3 -8 3 C-6.23110084 -0.53779831 -3.70375662 0 0 0 Z " fill="#464647" transform="translate(78,108)"/>
<path d="M0 0 C0.99 0.33 1.98 0.66 3 1 C2.34 1.66 1.68 2.32 1 3 C1.35355436 5.26274788 1.97544426 6.95088852 3 9 C1.68 8.67 0.36 8.34 -1 8 C-1.04241723 5.66705225 -1.04092937 3.33297433 -1 1 C-0.67 0.67 -0.34 0.34 0 0 Z " fill="#464647" transform="translate(55,76)"/>
<path d="M0 0 C0.99 0.33 1.98 0.66 3 1 C3.73046875 3.06640625 3.73046875 3.06640625 4.1875 5.5625 C4.34605469 6.38878906 4.50460938 7.21507812 4.66796875 8.06640625 C4.77753906 8.70449219 4.88710937 9.34257813 5 10 C3 9 3 9 2.1484375 6.93359375 C1.89320312 6.10988281 1.63796875 5.28617188 1.375 4.4375 C1.11460938 3.61121094 0.85421875 2.78492188 0.5859375 1.93359375 C0.39257812 1.29550781 0.19921875 0.65742187 0 0 Z " fill="#505051" transform="translate(80,49)"/>
<path d="M0 0 C2.31 0.33 4.62 0.66 7 1 C7 1.99 7 2.98 7 4 C4.625 3.6875 4.625 3.6875 2 3 C1.34 2.01 0.68 1.02 0 0 Z " fill="#A5A6A6" transform="translate(30,107)"/>
<path d="M0 0 C0.99 0.33 1.98 0.66 3 1 C3.33 2.98 3.66 4.96 4 7 C2 5.1875 2 5.1875 0 3 C0 2.01 0 1.02 0 0 Z " fill="#464647" transform="translate(17,84)"/>
<path d="M0 0 C0.66 0.33 1.32 0.66 2 1 C2 2.65 2 4.3 2 6 C1.01 6 0.02 6 -1 6 C-1.042721 4.33388095 -1.04063832 2.66617115 -1 1 C-0.67 0.67 -0.34 0.34 0 0 Z " fill="#464647" transform="translate(109,24)"/>
</svg>
