<?xml version="1.0" encoding="UTF-8"?>
<svg version="1.1" xmlns="http://www.w3.org/2000/svg" width="128" height="128">
<path d="M0 0 C42.24 0 84.48 0 128 0 C128 42.24 128 84.48 128 128 C85.76 128 43.52 128 0 128 C0 85.76 0 43.52 0 0 Z " fill="#FDFEFD" transform="translate(0,0)"/>
<path d="M0 0 C4.26712736 1.94295713 8.36585501 4.26621202 11.6015625 7.69921875 C13.04779112 9.34053922 13.04779112 9.34053922 16 9 C16.70125 8.175 17.4025 7.35 18.125 6.5 C21.61471566 3.46546465 23.26998844 3.36430504 27.73828125 3.65234375 C34.90818177 4.75445281 40.16041213 8.82039424 45 14 C46.5 16.9375 46.5 16.9375 47 19 C47.66 19 48.32 19 49 19 C49.78745899 29.97192855 49.78745899 29.97192855 46.75 33.9375 C45.8425 34.618125 44.935 35.29875 44 36 C43.38125 36.825 42.7625 37.65 42.125 38.5 C39.40496491 41.70004129 36.58938119 43.84497192 33 46 C32.34902344 46.39703125 31.69804688 46.7940625 31.02734375 47.203125 C25.09808988 50.17298055 19.32122626 50.38725554 12.8125 50.4375 C11.529198 50.4526062 11.529198 50.4526062 10.2199707 50.46801758 C4.77354667 50.39340903 0.77790441 49.68365234 -4 47 C-5.4375 43.8125 -5.4375 43.8125 -6 41 C-6.556875 40.98582031 -7.11375 40.97164062 -7.6875 40.95703125 C-13.21234132 40.61172867 -16.60683741 39.3518973 -21.13671875 36.2109375 C-23.60952323 34.60387379 -26.17010916 33.77821998 -29 33 C-29.14695312 34.03447266 -29.14695312 34.03447266 -29.296875 35.08984375 C-31.82503727 50.97803595 -31.82503727 50.97803595 -38.375 55.9375 C-43.52304504 59.09627923 -47.78912769 60.54032404 -53.9140625 59.54296875 C-61.20510547 57.645113 -66.07767271 53.996569 -70.125 47.6875 C-73.99770473 41.07829729 -74.22938349 34.93009465 -73.375 27.5625 C-73.30410156 26.75490234 -73.23320313 25.94730469 -73.16015625 25.11523438 C-72.45863532 18.61831296 -70.71435358 12.71435358 -66 8 C-57.05765264 6.33332594 -50.60175825 9.68578375 -43 14 C-39.09962137 16.18271189 -36.82747195 17.16549439 -32.25 16.25 C-31.59515625 16.04117188 -30.9403125 15.83234375 -30.265625 15.6171875 C-25.94861681 14.44117493 -21.44974235 14.31082759 -17 14 C-17.12375 13.154375 -17.2475 12.30875 -17.375 11.4375 C-16.85410732 6.66265043 -14.42773923 4.2234957 -11 1 C-7.44464406 -0.77767797 -3.87368207 -0.63196022 0 0 Z " fill="#6DB45E" transform="translate(79,35)"/>
<path d="M0 0 C5.31028189 2.01790712 10.42648159 5.35362813 13.375 10.3125 C13.58125 10.869375 13.7875 11.42625 14 12 C14.66 12 15.32 12 16 12 C16.61875 10.329375 16.61875 10.329375 17.25 8.625 C18.14162812 6.21760407 18.68448699 5.21280345 20.8359375 3.76171875 C25.62060081 2.07758636 30.62754251 3.49852515 35.25 5.1875 C39.93474555 8.2751732 43.71136272 12.4588597 45 18 C45.36443439 23.41445384 44.38886696 27.07284129 40.875 31.25 C33.08221745 39.21701143 25.53258374 43.10875131 14.25 43.3125 C9.98864123 43.29706029 6.87337643 42.80040275 3 41 C3.51035831 36.6109185 4.52214277 33.66291938 7 30 C3.53058454 30.45822468 0.32604951 30.89131683 -3 32 C-12.04884467 33.40443758 -19.02579178 29.75829594 -27 26 C-28.37285156 25.4740625 -28.37285156 25.4740625 -29.7734375 24.9375 C-32.49771756 23.79043471 -34.03897315 22.17891872 -36 20 C-34.25 16.125 -34.25 16.125 -32 15 C-30.18963178 14.77866002 -28.37287901 14.60838518 -26.5546875 14.46484375 C-25.47832031 14.37783203 -24.40195312 14.29082031 -23.29296875 14.20117188 C-22.16503906 14.11416016 -21.03710938 14.02714844 -19.875 13.9375 C-18.17150391 13.80118164 -18.17150391 13.80118164 -16.43359375 13.66210938 C-13.62266799 13.43770774 -10.81149234 13.21716834 -8 13 C-8.69378511 9.73988358 -9.45893991 8.20961747 -12 6 C-9.66248425 -0.51165102 -6.65811608 -0.68576102 0 0 Z " fill="#F5B919" transform="translate(79,39)"/>
<path d="M0 0 C4.26712736 1.94295713 8.36585501 4.26621202 11.6015625 7.69921875 C13.04779112 9.34053922 13.04779112 9.34053922 16 9 C16.70125 8.175 17.4025 7.35 18.125 6.5 C21.61471566 3.46546465 23.26998844 3.36430504 27.73828125 3.65234375 C34.90818177 4.75445281 40.16041213 8.82039424 45 14 C46.5 16.9375 46.5 16.9375 47 19 C47.66 19 48.32 19 49 19 C49.78745899 29.97192855 49.78745899 29.97192855 46.75 33.9375 C45.8425 34.618125 44.935 35.29875 44 36 C43.38125 36.825 42.7625 37.65 42.125 38.5 C39.40496491 41.70004129 36.58938119 43.84497192 33 46 C32.34902344 46.39703125 31.69804688 46.7940625 31.02734375 47.203125 C25.09808988 50.17298055 19.32122626 50.38725554 12.8125 50.4375 C11.529198 50.4526062 11.529198 50.4526062 10.2199707 50.46801758 C4.77354667 50.39340903 0.77790441 49.68365234 -4 47 C-5.4375 43.8125 -5.4375 43.8125 -6 41 C-6.556875 40.98582031 -7.11375 40.97164062 -7.6875 40.95703125 C-13.21234132 40.61172867 -16.60683741 39.3518973 -21.13671875 36.2109375 C-23.60952323 34.60387379 -26.17010916 33.77821998 -29 33 C-29.14695312 34.03447266 -29.14695312 34.03447266 -29.296875 35.08984375 C-31.82503727 50.97803595 -31.82503727 50.97803595 -38.375 55.9375 C-43.52304504 59.09627923 -47.78912769 60.54032404 -53.9140625 59.54296875 C-61.20510547 57.645113 -66.07767271 53.996569 -70.125 47.6875 C-73.99770473 41.07829729 -74.22938349 34.93009465 -73.375 27.5625 C-73.30410156 26.75490234 -73.23320313 25.94730469 -73.16015625 25.11523438 C-72.45863532 18.61831296 -70.71435358 12.71435358 -66 8 C-57.05765264 6.33332594 -50.60175825 9.68578375 -43 14 C-39.09962137 16.18271189 -36.82747195 17.16549439 -32.25 16.25 C-31.59515625 16.04117188 -30.9403125 15.83234375 -30.265625 15.6171875 C-25.94861681 14.44117493 -21.44974235 14.31082759 -17 14 C-17.12375 13.154375 -17.2475 12.30875 -17.375 11.4375 C-16.85410732 6.66265043 -14.42773923 4.2234957 -11 1 C-7.44464406 -0.77767797 -3.87368207 -0.63196022 0 0 Z M-10.5 6 C-10.995 6.66 -11.49 7.32 -12 8 C-10.84826645 10.46800047 -9.95216435 12.04783565 -8 14 C-8 14.99 -8 15.98 -8 17 C-8.70084717 17.0501123 -9.40169434 17.10022461 -10.1237793 17.15185547 C-13.31235796 17.38456762 -16.49986939 17.62965681 -19.6875 17.875 C-20.79029297 17.95363281 -21.89308594 18.03226563 -23.02929688 18.11328125 C-24.09599609 18.19707031 -25.16269531 18.28085937 -26.26171875 18.3671875 C-27.24100342 18.44050293 -28.22028809 18.51381836 -29.22924805 18.58935547 C-32.07818812 19.01158802 -34.38022015 19.82496706 -37 21 C-38.02673828 20.12408203 -38.02673828 20.12408203 -39.07421875 19.23046875 C-45.84889189 14.06579804 -55.24179007 8.51343278 -64 9 C-68.26825683 11.69574115 -68.7970948 15.29381313 -70 20 C-72.49124352 32.77056003 -72.49124352 32.77056003 -69 45 C-68.443125 46.051875 -67.88625 47.10375 -67.3125 48.1875 C-63.40630279 52.93828039 -60.09560348 56.46113569 -53.8359375 57.55078125 C-48.15904506 57.77916198 -42.85890053 57.75419823 -38.42578125 53.87109375 C-33.23669361 47.06130476 -31.23374295 38.32316139 -30 30 C-26.07092835 30.62263977 -22.9054627 31.87874846 -19.3125 33.5625 C-12.7902427 36.34168846 -6.9821153 37.41586322 -0.1875 35 C0.8953125 34.505 0.8953125 34.505 2 34 C4.8125 33.875 4.8125 33.875 7 34 C5.95833333 35.69270833 4.91666667 37.38541667 3.875 39.078125 C2.72375977 41.25479385 2.72375977 41.25479385 3 45 C10.42169962 48.42329318 18.89635105 47.9791287 26.625 45.625 C33.63637751 42.75249732 40.7896121 37.26335945 44.31640625 30.4609375 C45.786454 25.1687656 44.77837526 20.47335317 42.25 15.6875 C37.82116682 10.39750482 33.81816462 7.85561281 27 7 C23.8021039 7.18101299 21.85730679 7.38763801 19.25 9.25 C17.72738891 11.38165552 16.86577157 13.5358809 16 16 C15.34 16 14.68 16 14 16 C13.401875 15.0925 12.80375 14.185 12.1875 13.25 C9.03456496 8.56563938 5.4795227 5.52916912 0 4 C-4.13758559 3.4538387 -7.09890802 3.27912642 -10.5 6 Z " fill="#F1CF68" transform="translate(79,35)"/>
<path d="M0 0 C4.2380401 1.92971278 8.38876032 4.22109324 11.5390625 7.69921875 C13.17188695 9.44332224 13.17188695 9.44332224 17 9 C16.67 10.32 16.34 11.64 16 13 C13.28755109 11.85242546 11.50741425 10.57458503 9.25 8.625 C4.65309284 4.73441862 0.38395483 2 -5.75 2 C-9.32169664 3.09898358 -10.78624411 4.01994399 -13 7 C-13.96877057 9.03243548 -13.96877057 9.03243548 -14 11 C-13.34 11.66 -12.68 12.32 -12 13 C-12 13.99 -12 14.98 -12 16 C-12.58491211 16.0501123 -13.16982422 16.10022461 -13.77246094 16.15185547 C-16.43245181 16.38451235 -19.09115349 16.62962436 -21.75 16.875 C-22.67039063 16.95363281 -23.59078125 17.03226563 -24.5390625 17.11328125 C-25.42851563 17.19707031 -26.31796875 17.28085937 -27.234375 17.3671875 C-28.45979004 17.47716064 -28.45979004 17.47716064 -29.70996094 17.58935547 C-32.04005084 17.88465621 -32.04005084 17.88465621 -34.04785156 19.10205078 C-36 20 -36 20 -38.02441406 19.73828125 C-39.98323441 19.00626534 -41.7702865 18.18181602 -43.609375 17.1875 C-44.28226563 16.83429687 -44.95515625 16.48109375 -45.6484375 16.1171875 C-47.03731195 15.37886391 -48.42282058 14.6341698 -49.8046875 13.8828125 C-54.61506835 11.37702476 -58.56362086 10.28302191 -64 10 C-66.83623388 11.51265807 -67.02059034 13.06527055 -67.98828125 16.1328125 C-71.06729791 27.90202676 -72.12164896 37.34550908 -66.25 48.25 C-62.56337449 52.75587563 -59.81857796 55.59583982 -53.8671875 56.44921875 C-49.0493224 56.60835097 -45.05418833 56.37649583 -40.5 54.75 C-34.63178723 48.29496596 -32.54107741 39.40587677 -31 31 C-26.83412905 31.32888455 -24.0888785 32.47846329 -20.5625 34.5625 C-13.96956131 38.0760416 -7.25282698 37.43516962 0 37 C0 40.11257569 -0.17361624 42.10765685 -1 45 C6.60661544 49.45265294 15.86845273 49.24771829 24.27734375 47.203125 C28.72235613 45.65184551 32.31573541 43.95588124 36 41 C36.66 41.33 37.32 41.66 38 42 C30.50718869 48.99329055 22.7284 50.36894652 12.8125 50.4375 C11.95712646 50.44749023 11.10175293 50.45748047 10.22045898 50.46777344 C4.77384048 50.39370577 0.77801633 49.68371521 -4 47 C-5.4375 43.8125 -5.4375 43.8125 -6 41 C-6.556875 40.98582031 -7.11375 40.97164062 -7.6875 40.95703125 C-13.21234132 40.61172867 -16.60683741 39.3518973 -21.13671875 36.2109375 C-23.60952323 34.60387379 -26.17010916 33.77821998 -29 33 C-29.14695312 34.03447266 -29.14695312 34.03447266 -29.296875 35.08984375 C-31.82503727 50.97803595 -31.82503727 50.97803595 -38.375 55.9375 C-43.52304504 59.09627923 -47.78912769 60.54032404 -53.9140625 59.54296875 C-61.20510547 57.645113 -66.07767271 53.996569 -70.125 47.6875 C-73.99770473 41.07829729 -74.22938349 34.93009465 -73.375 27.5625 C-73.30410156 26.75490234 -73.23320313 25.94730469 -73.16015625 25.11523438 C-72.45863532 18.61831296 -70.71435358 12.71435358 -66 8 C-57.05765264 6.33332594 -50.60175825 9.68578375 -43 14 C-39.09962137 16.18271189 -36.82747195 17.16549439 -32.25 16.25 C-31.59515625 16.04117188 -30.9403125 15.83234375 -30.265625 15.6171875 C-25.94861681 14.44117493 -21.44974235 14.31082759 -17 14 C-17.12375 13.154375 -17.2475 12.30875 -17.375 11.4375 C-16.85410732 6.66265043 -14.42773923 4.2234957 -11 1 C-7.44464406 -0.77767797 -3.87368207 -0.63196022 0 0 Z " fill="#D7E1B7" transform="translate(79,35)"/>
<path d="M0 0 C2.97 0.495 2.97 0.495 6 1 C6.07476562 1.6290625 6.14953125 2.258125 6.2265625 2.90625 C7.15632091 8.95879491 8.76091796 12.38102141 12.66796875 17.0390625 C14.85488496 20.258511 14.86314359 23.16802059 15 27 C11.77659223 28.61170388 8.48558081 28.59542551 5 28 C1.21892369 25.12309411 -0.55646116 22.46475065 -2 18 C-2.265625 14.84375 -2.265625 14.84375 -2.25 11.5 C-2.25515625 10.3965625 -2.2603125 9.293125 -2.265625 8.15625 C-2.00303615 5.03607666 -1.32438782 2.81695186 0 0 Z " fill="#D7E1B7" transform="translate(18,53)"/>
<path d="M0 0 C4.36545087 0.56182578 7.78387184 1.68126894 11.75 3.5625 C18.24834495 6.35557746 24.03521261 7.40970218 30.8125 5 C31.534375 4.67 32.25625 4.34 33 4 C35.8125 3.875 35.8125 3.875 38 4 C38.495 4.99 38.495 4.99 39 6 C38.0409375 7.36125 38.0409375 7.36125 37.0625 8.75 C35.38571047 11.39221381 34.46310002 12.9898499 34 16 C37.88877867 16.91415319 41.50909382 17.13432455 45.5 17.125 C47.15515625 17.12886719 47.15515625 17.12886719 48.84375 17.1328125 C51.68492244 17.01325821 54.23807642 16.64925815 57 16 C56.505 17.485 56.505 17.485 56 19 C49.84507331 21.57578441 38.8393887 21.13715557 32.625 18.75 C30 17 30 17 28.9375 15.0625 C29.01236535 12.5919433 29.85061836 11.15903454 31 9 C30.05640625 9.06960937 29.1128125 9.13921875 28.140625 9.2109375 C18.48045504 9.61829406 12.42967461 8.10809168 4 3 C2.67339966 2.320034 1.34263287 1.64773389 0 1 C0 0.67 0 0.34 0 0 Z " fill="#F1CF68" transform="translate(48,64)"/>
<path d="M0 0 C5.29301161 2.98333382 10.13201277 6.38092083 12.9375 11.875 C13.185 12.8959375 13.185 12.8959375 13.4375 13.9375 C14.0975 13.9375 14.7575 13.9375 15.4375 13.9375 C16.22495899 24.90942855 16.22495899 24.90942855 13.1875 28.875 C12.28 29.555625 11.3725 30.23625 10.4375 30.9375 C9.81875 31.80375 9.2 32.67 8.5625 33.5625 C5.85805848 36.58511111 3.20409088 37.52502842 -0.5625 38.9375 C-1.305 39.35 -2.0475 39.7625 -2.8125 40.1875 C-4.5625 40.9375 -4.5625 40.9375 -7.5625 39.9375 C-6.92183594 39.5971875 -6.28117187 39.256875 -5.62109375 38.90625 C0.98559864 35.20413921 7.58393353 31.17703691 10.2265625 23.70703125 C11.25658747 17.83992821 9.64432941 13.80409415 6.4375 8.9375 C6.08558594 8.35613281 5.73367187 7.77476563 5.37109375 7.17578125 C3.04606109 3.83000255 0.82840118 2.46994728 -3 1.5 C-8.27062635 0.63179366 -12.0486603 0.92827353 -16.5625 3.9375 C-13.39682989 -3.0721981 -6.63318963 -1.97831971 0 0 Z " fill="#F1CF68" transform="translate(112.5625,40.0625)"/>
<path d="M0 0 C3.26462738 2.37427446 3.58338319 5.14570882 4.390625 8.9453125 C4.98108964 11.323216 4.98108964 11.323216 7.1875 14.1875 C9 17 9 17 8.75 19.875 C8.37875 20.926875 8.37875 20.926875 8 22 C6.68 22 5.36 22 4 22 C-0.36983161 17.42692041 -2.14088291 14.26533659 -2.1875 8 C-2.20167969 7.13375 -2.21585938 6.2675 -2.23046875 5.375 C-2 3 -2 3 0 0 Z " fill="#FDFEFD" transform="translate(20,56)"/>
<path d="M0 0 C5.29301161 2.98333382 10.13201277 6.38092083 12.9375 11.875 C13.185 12.8959375 13.185 12.8959375 13.4375 13.9375 C14.0975 13.9375 14.7575 13.9375 15.4375 13.9375 C15.1075 15.2575 14.7775 16.5775 14.4375 17.9375 C14.025 17.28523438 13.6125 16.63296875 13.1875 15.9609375 C8.91374584 9.49306848 4.72123052 3.37926213 -3.08203125 1.25 C-8.42120395 0.48154336 -11.92953699 0.88949802 -16.5625 3.9375 C-13.39682989 -3.0721981 -6.63318963 -1.97831971 0 0 Z " fill="#D7E1B7" transform="translate(112.5625,40.0625)"/>
<path d="M0 0 C0.8125 1.6875 0.8125 1.6875 1 4 C-1.1613627 6.51185394 -3.01962439 8.50981219 -6 10 C-4.34832443 6.4213696 -2.21713508 3.25179812 0 0 Z " fill="#D7E1B7" transform="translate(127,62)"/>
<path d="M0 0 C0.33 0.99 0.66 1.98 1 3 C0.01 4.485 0.01 4.485 -1 6 C-2.32 5.67 -3.64 5.34 -5 5 C-3.35 3.35 -1.7 1.7 0 0 Z " fill="#E7D583" transform="translate(120,70)"/>
</svg>
