<?xml version="1.0" encoding="UTF-8"?>
<svg version="1.1" xmlns="http://www.w3.org/2000/svg" width="128" height="128">
<path d="M0 0 C42.24 0 84.48 0 128 0 C128 42.24 128 84.48 128 128 C85.76 128 43.52 128 0 128 C0 85.76 0 43.52 0 0 Z " fill="#FDFCFC" transform="translate(0,0)"/>
<path d="M0 0 C1.98 0 3.96 0 6 0 C6 0.66 6 1.32 6 2 C6.99 2.33 7.98 2.66 9 3 C9.6875 5.0625 9.6875 5.0625 10 7 C12.01822917 6.90234375 14.03645833 6.8046875 16.0546875 6.70703125 C16.69664063 6.80371094 17.33859375 6.90039062 18 7 C18.99 8.485 18.99 8.485 20 10 C23.05429073 11.21284876 23.05429073 11.21284876 26 12 C25.67 13.32 25.34 14.64 25 16 C20.6258362 16.16823707 17.81940818 16.09451417 14 14 C12.00889599 13.61709538 10.00899487 13.27395385 8 13 C8.2165625 13.57105469 8.433125 14.14210938 8.65625 14.73046875 C11.0392659 21.6698993 12.42001796 28.69990768 11 36 C9.42114873 37.90670016 7.9956382 38.80596149 5.82421875 39.96875 C2.81812817 41.66812455 1.53779644 43.98591898 0 47 C-0.33594133 50.25177852 -0.33594133 50.25177852 0 53 C5.71642118 53.23332331 10.63636982 53.12310361 16 51 C16.33 50.01 16.66 49.02 17 48 C15.515 47.505 15.515 47.505 14 47 C12.8125 43.9375 12.8125 43.9375 12 41 C15.87493656 39.92362873 17.52452927 40.05433049 21 42 C20.69964844 41.50371094 20.39929688 41.00742187 20.08984375 40.49609375 C17.26043964 35.44153116 16.59086174 32.63655304 18 27 C23.09268752 25.9244244 27.78140611 25.96712458 32.9375 26.25 C33.7948877 26.29592285 34.65227539 26.3418457 35.53564453 26.38916016 C42.51066877 26.81390117 49.44035689 27.51976252 56.375 28.375 C57.34300537 28.48875977 58.31101074 28.60251953 59.30834961 28.71972656 C64.4326886 29.39534478 68.48632435 30.29783297 73 33 C73 33.66 73 34.32 73 35 C68.25 34.125 68.25 34.125 66 33 C62.07359357 32.55381745 60.22447489 32.88140949 56.6875 34.75 C53.90321869 36.7138397 53.90321869 36.7138397 53.125 39.25 C53.08375 39.8275 53.0425 40.405 53 41 C54.98 41 56.96 41 59 41 C59 39.35 59 37.7 59 36 C60.485 36.495 60.485 36.495 62 37 C62.6875 39.0625 62.6875 39.0625 63 41 C62.071875 41.0928125 62.071875 41.0928125 61.125 41.1875 C60.42375 41.455625 59.7225 41.72375 59 42 C58.27544365 43.64232772 57.62225605 45.31624835 57 47 C56.17190404 48.18531383 55.31545748 49.35112992 54.4375 50.5 C52.34290097 53.35851161 51.27053282 55.39289573 51 59 C50.896875 60.051875 50.79375 61.10375 50.6875 62.1875 C51.30975564 69.77901881 55.13879958 79.40508926 60.8125 84.6875 C61.204375 85.120625 61.59625 85.55375 62 86 C61.8125 88.125 61.8125 88.125 61 90 C59 91 59 91 57.125 90.5 C55.00418502 89.82265993 55.00418502 89.82265993 52.9375 90.5625 C51.9784375 90.7790625 51.9784375 90.7790625 51 91 C50.01 90.34 49.02 89.68 48 89 C48 88.34 48 87.68 48 87 C46.35 86.67 44.7 86.34 43 86 C42.67 84.35 42.34 82.7 42 81 C40.02 81 38.04 81 36 81 C35.79375 80.2575 35.5875 79.515 35.375 78.75 C32.87608163 73.75216325 28.06870629 71.81953559 23 70 C21.33333333 69.33333333 19.66666667 68.66666667 18 68 C17.401875 68.598125 16.80375 69.19625 16.1875 69.8125 C15.1046875 70.8953125 15.1046875 70.8953125 14 72 C13.525625 72.515625 13.05125 73.03125 12.5625 73.5625 C11 75 11 75 8.375 76.5625 C5.88809625 77.77912906 5.88809625 77.77912906 5 80 C6.31355469 79.97679688 7.62710938 79.95359375 8.98046875 79.9296875 C10.71614013 79.91092349 12.45181768 79.89272396 14.1875 79.875 C15.05181641 79.85824219 15.91613281 79.84148437 16.80664062 79.82421875 C21.32208103 79.78961767 24.90081483 79.84432084 29 82 C24.50180201 84.99879866 21.11406419 85.32026089 15.8125 85.625 C15.06935547 85.6765625 14.32621094 85.728125 13.56054688 85.78125 C8.88194844 86.06007971 4.64754527 85.7501499 0 85 C-1.43755474 84.98336714 -2.87637375 84.9963058 -4.3125 85.0625 C-8 85 -8 85 -10 83 C-10.0621192 80.50044174 -9.99939048 78.16912175 -9.8125 75.6875 C-9.73644531 74.37136719 -9.66039063 73.05523437 -9.58203125 71.69921875 C-9.00548539 68.03486351 -8.13976278 65.98182576 -6 63 C-4.68 63.66 -3.36 64.32 -2 65 C-2.33 67.97 -2.66 70.94 -3 74 C-1.68 74 -0.36 74 1 74 C1.103125 73.360625 1.20625 72.72125 1.3125 72.0625 C1.539375 71.381875 1.76625 70.70125 2 70 C3.485 69.505 3.485 69.505 5 69 C5.495 68.01 5.495 68.01 6 67 C7.485 66.505 7.485 66.505 9 66 C9.66 65.01 10.32 64.02 11 63 C7.7 62.67 4.4 62.34 1 62 C1 61.34 1 60.68 1 60 C-0.32 60 -1.64 60 -3 60 C-6.56325661 54.65511509 -7.73892095 51.43916825 -7 45 C-5.625 42.8125 -5.625 42.8125 -4 41 C-3.71125 40.154375 -3.4225 39.30875 -3.125 38.4375 C-1.69176511 35.33215773 -0.0041608 34.5020804 3 33 C2.50243908 30.24358584 2.50243908 30.24358584 1 28 C0.62652327 25.8816867 0.30090371 23.75483405 0 21.625 C-0.47744002 18.26053982 -0.92498099 15.22505703 -2 12 C-2.06802967 10.27204648 -2.08495645 8.54164635 -2.0625 6.8125 C-2.05347656 5.91144531 -2.04445313 5.01039062 -2.03515625 4.08203125 C-2.02355469 3.39496094 -2.01195312 2.70789063 -2 2 C-1.34 2 -0.68 2 0 2 C0 1.34 0 0.68 0 0 Z " fill="#A3A594" transform="translate(30,16)"/>
<path d="M0 0 C3.27727881 1.55670743 4.94204376 2.92548483 7.1875 5.8125 C9.70455639 8.26420768 9.70455639 8.26420768 12.2578125 7.875 C13.99521043 7.49245367 15.72590427 7.07839787 17.44921875 6.63671875 C23.75980307 5.06148867 28.55639262 5.81790265 34.23828125 8.9296875 C35.85233667 9.9102888 37.42860218 10.95240146 39 12 C38.9375 15.3125 38.9375 15.3125 38 19 C34.15011044 21.22109013 30.38024518 22.33632649 26 23 C25.67 24.32 25.34 25.64 25 27 C27.64 27 30.28 27 33 27 C33.495 28.485 33.495 28.485 34 30 C35.32407669 30.68486725 36.65909241 31.34870203 38 32 C41.20284578 34.40213434 41.91739642 35.48602215 42.5625 39.5 C42 43 42 43 39.5 45.4375 C38.2625 46.2109375 38.2625 46.2109375 37 47 C37.639375 47.53625 38.27875 48.0725 38.9375 48.625 C41.46366448 51.53391668 41.92177859 53.16715068 42 57 C39.22022 63.33172111 34.0806759 67.52805166 27.9296875 70.40625 C26 71 26 71 23.125 70.4375 C21 69 21 69 19 66 C17.89652787 60.12188882 18.66941306 55.83945977 22 50.875 C22.97794023 49.56655219 23.97060359 48.26836344 25 47 C21.04 48.98 21.04 48.98 17 51 C21.38596491 42.22807018 21.38596491 42.22807018 24.1875 41.1875 C24.785625 41.125625 25.38375 41.06375 26 41 C24.6910428 37.87802522 24.6910428 37.87802522 22 36 C22 37.65 22 39.3 22 41 C19.03 41.495 19.03 41.495 16 42 C15.67 41.01 15.34 40.02 15 39 C21.66845999 32.15131137 21.66845999 32.15131137 25.75 31.6875 C29.73531347 32.07070322 32.40220389 33.27305787 36 35 C35.1661281 32.85003857 35.1661281 32.85003857 33.07421875 31.97265625 C28.71191109 30.5924598 24.34306033 30.01871438 19.8125 29.4375 C18.8217749 29.30819092 17.8310498 29.17888184 16.81030273 29.0456543 C4.91504339 27.59934622 -7.02901819 27.26165291 -19 27 C-19.14488905 32.1435613 -18.86005204 34.70992194 -16 39 C-16 39.99 -16 40.98 -16 42 C-18.64 41.67 -21.28 41.34 -24 41 C-23.39816251 43.02045442 -22.72693904 45.02111039 -22 47 C-21.34 47.33 -20.68 47.66 -20 48 C-20.33 49.32 -20.66 50.64 -21 52 C-26.39009729 53.83492674 -31.29759979 54.52618714 -37 54 C-38 53 -38 53 -38.5 50.5 C-37.74812051 45.23684354 -34.67869689 41.7385131 -31 38 C-28.765625 36.734375 -28.765625 36.734375 -27 36 C-26.945652 33.9377952 -26.90705039 31.87517184 -26.875 29.8125 C-26.84019531 28.08966797 -26.84019531 28.08966797 -26.8046875 26.33203125 C-26.99680738 23.05446612 -27.6819273 20.96566356 -29 18 C-29.125 15.1875 -29.125 15.1875 -29 13 C-24.9072224 12.81396465 -22.58856779 13.15134386 -19 15 C-16.67504723 15.38749213 -14.34148732 15.72982839 -12 16 C-12 14.68 -12 13.36 -12 12 C-12.969375 11.731875 -13.93875 11.46375 -14.9375 11.1875 C-15.948125 10.795625 -16.95875 10.40375 -18 10 C-18.33 9.01 -18.66 8.02 -19 7 C-21.01508358 6.26676204 -21.01508358 6.26676204 -23 6 C-19.05272412 5.82057837 -16.4019487 5.90649311 -13 8 C-12.79375 7.4225 -12.5875 6.845 -12.375 6.25 C-9.60810914 1.72236041 -5.31433393 -0.95385481 0 0 Z " fill="#E9E5D8" transform="translate(67,16)"/>
<path d="M0 0 C1.42832153 0.17063965 1.42832153 0.17063965 2.88549805 0.34472656 C7.93553589 1.02563054 11.92012099 1.97575301 16.375 4.625 C16.375 5.285 16.375 5.945 16.375 6.625 C11.625 5.75 11.625 5.75 9.375 4.625 C5.44859357 4.17881745 3.59947489 4.50640949 0.0625 6.375 C-2.72178131 8.3388397 -2.72178131 8.3388397 -3.5 10.875 C-3.54125 11.4525 -3.5825 12.03 -3.625 12.625 C-1.645 12.625 0.335 12.625 2.375 12.625 C2.375 10.975 2.375 9.325 2.375 7.625 C3.365 7.955 4.355 8.285 5.375 8.625 C6.0625 10.6875 6.0625 10.6875 6.375 12.625 C5.75625 12.686875 5.1375 12.74875 4.5 12.8125 C3.79875 13.080625 3.0975 13.34875 2.375 13.625 C1.65044365 15.26732772 0.99725605 16.94124835 0.375 18.625 C-0.45309596 19.81031383 -1.30954252 20.97612992 -2.1875 22.125 C-4.28209903 24.98351161 -5.35446718 27.01789573 -5.625 30.625 C-5.728125 31.676875 -5.83125 32.72875 -5.9375 33.8125 C-5.38832657 40.51241584 -2.8230286 46.39250017 1.375 51.625 C0.88 52.615 0.88 52.615 0.375 53.625 C-5.48762168 46.49119498 -9.49178716 40.15965876 -8.625 30.625 C-7.48149921 24.80354141 -5.19249159 21.22518653 -1.625 16.625 C-2.43195313 16.95242187 -3.23890625 17.27984375 -4.0703125 17.6171875 C-8.34458047 18.82901292 -12.09108628 18.84714556 -16.5 18.75 C-17.675625 18.73646484 -17.675625 18.73646484 -18.875 18.72265625 C-20.79180055 18.69928063 -22.70844191 18.66341653 -24.625 18.625 C-24.625 20.275 -24.625 21.925 -24.625 23.625 C-22.975 23.955 -21.325 24.285 -19.625 24.625 C-18.48856034 28.03431897 -18.75752236 28.62835456 -20.0625 31.8125 C-20.49369141 32.88564453 -20.49369141 32.88564453 -20.93359375 33.98046875 C-21.16175781 34.52316406 -21.38992187 35.06585938 -21.625 35.625 C-23.275 35.295 -24.925 34.965 -26.625 34.625 C-26.728125 33.985625 -26.83125 33.34625 -26.9375 32.6875 C-27.164375 32.006875 -27.39125 31.32625 -27.625 30.625 C-29.11 30.13 -29.11 30.13 -30.625 29.625 C-30.955 28.965 -31.285 28.305 -31.625 27.625 C-32.78 27.191875 -33.935 26.75875 -35.125 26.3125 C-36.28 25.755625 -37.435 25.19875 -38.625 24.625 C-39.5625 21.9375 -39.5625 21.9375 -39.625 19.625 C-40.615 19.295 -41.605 18.965 -42.625 18.625 C-43.8125 15.5625 -43.8125 15.5625 -44.625 12.625 C-40.75006344 11.54862873 -39.10047073 11.67933049 -35.625 13.625 C-35.92535156 13.12871094 -36.22570313 12.63242187 -36.53515625 12.12109375 C-38.67230199 8.30320966 -39.64232008 6.17058246 -39.5 1.6875 C-39.066875 0.1715625 -39.066875 0.1715625 -38.625 -1.375 C-29.24445175 -6.06527413 -10.1612948 -1.26985263 0 0 Z " fill="#E5C748" transform="translate(86.625,44.375)"/>
<path d="M0 0 C1.98 0 3.96 0 6 0 C6 0.66 6 1.32 6 2 C6.99 2.33 7.98 2.66 9 3 C9.6875 5.0625 9.6875 5.0625 10 7 C12.01822917 6.90234375 14.03645833 6.8046875 16.0546875 6.70703125 C16.69664063 6.80371094 17.33859375 6.90039062 18 7 C18.99 8.485 18.99 8.485 20 10 C23.05429073 11.21284876 23.05429073 11.21284876 26 12 C25.67 13.32 25.34 14.64 25 16 C20.6258362 16.16823707 17.81940818 16.09451417 14 14 C12.00889599 13.61709538 10.00899487 13.27395385 8 13 C8.2165625 13.57105469 8.433125 14.14210938 8.65625 14.73046875 C11.0392659 21.6698993 12.42001796 28.69990768 11 36 C9.42114873 37.90670016 7.9956382 38.80596149 5.82421875 39.96875 C2.81812817 41.66812455 1.53779644 43.98591898 0 47 C-0.33594133 50.25177852 -0.33594133 50.25177852 0 53 C4.64925044 53.19371877 8.77721767 53.20384259 13.25 51.8125 C17 51 17 51 19.75 52.25 C20.86375 53.11625 20.86375 53.11625 22 54 C22.7425 54.33 23.485 54.66 24.25 55 C26 56 26 56 27 59 C26.5625 61.1875 26.5625 61.1875 26 63 C24.125 62.75 24.125 62.75 22 62 C20.75 59.9375 20.75 59.9375 20 58 C17.525 58.495 17.525 58.495 15 59 C14.87625 60.0828125 14.87625 60.0828125 14.75 61.1875 C13.80815144 64.71943208 12.58625943 66.41374057 10 69 C7.69855891 70.07136051 5.3659787 71.07989717 3 72 C2.01 72.99 2.01 72.99 1 74 C1.3125 72.0625 1.3125 72.0625 2 70 C3.485 69.505 3.485 69.505 5 69 C5.495 68.01 5.495 68.01 6 67 C7.485 66.505 7.485 66.505 9 66 C9.66 65.01 10.32 64.02 11 63 C7.7 62.67 4.4 62.34 1 62 C1 61.34 1 60.68 1 60 C-0.32 60 -1.64 60 -3 60 C-6.56325661 54.65511509 -7.73892095 51.43916825 -7 45 C-5.625 42.8125 -5.625 42.8125 -4 41 C-3.71125 40.154375 -3.4225 39.30875 -3.125 38.4375 C-1.69176511 35.33215773 -0.0041608 34.5020804 3 33 C2.50243908 30.24358584 2.50243908 30.24358584 1 28 C0.62652327 25.8816867 0.30090371 23.75483405 0 21.625 C-0.47744002 18.26053982 -0.92498099 15.22505703 -2 12 C-2.06802967 10.27204648 -2.08495645 8.54164635 -2.0625 6.8125 C-2.05347656 5.91144531 -2.04445313 5.01039062 -2.03515625 4.08203125 C-2.02355469 3.39496094 -2.01195312 2.70789063 -2 2 C-1.34 2 -0.68 2 0 2 C0 1.34 0 0.68 0 0 Z " fill="#E4E1D4" transform="translate(30,16)"/>
<path d="M0 0 C-0.95232762 2.63721495 -1.82815196 4.78003451 -3.5625 7 C-6.52824589 11.12625516 -6.40309181 16.08227991 -6 21 C-3.83679724 28.67627952 -0.12697867 34.20584219 5.6953125 39.55859375 C6.12585938 40.03425781 6.55640625 40.50992188 7 41 C6.8125 43.125 6.8125 43.125 6 45 C4 46 4 46 2.125 45.5 C0.00418502 44.82265993 0.00418502 44.82265993 -2.0625 45.5625 C-2.701875 45.706875 -3.34125 45.85125 -4 46 C-4.99 45.34 -5.98 44.68 -7 44 C-7 43.34 -7 42.68 -7 42 C-8.65 41.67 -10.3 41.34 -12 41 C-12.33 39.35 -12.66 37.7 -13 36 C-14.98 36 -16.96 36 -19 36 C-19.22429687 35.25105469 -19.44859375 34.50210938 -19.6796875 33.73046875 C-21.30300923 30.37336256 -23.00030871 29.2932516 -26.125 27.3125 C-27.78065361 26.25485159 -29.41505423 25.16092891 -31 24 C-31 23.34 -31 22.68 -31 22 C-28.09500018 22.63689034 -25.59921222 23.5518367 -22.9375 24.875 C-22.26589844 25.20242187 -21.59429687 25.52984375 -20.90234375 25.8671875 C-19 27 -19 27 -17.453125 28.55859375 C-15.31194398 30.68250719 -12.8496761 31.17676024 -10 32 C-10.57944932 30.00136244 -10.57944932 30.00136244 -12 28 C-15.04199472 26.70768358 -15.04199472 26.70768358 -18 26 C-17 23 -17 23 -14 21 C-13.41810734 18.57478506 -13.41810734 18.57478506 -13.3125 15.875 C-13.24675781 14.96492188 -13.18101563 14.05484375 -13.11328125 13.1171875 C-13.07589844 12.41851562 -13.03851563 11.71984375 -13 11 C-14.32 11.99 -15.64 12.98 -17 14 C-17.2475 13.030625 -17.495 12.06125 -17.75 11.0625 C-18.36875 9.5465625 -18.36875 9.5465625 -19 8 C-21.03243548 7.03122943 -21.03243548 7.03122943 -23 7 C-23 5.35 -23 3.7 -23 2 C-21.19402344 1.90912109 -21.19402344 1.90912109 -19.3515625 1.81640625 C-17.77602923 1.73200268 -16.20050904 1.64735459 -14.625 1.5625 C-13.8309375 1.52318359 -13.036875 1.48386719 -12.21875 1.44335938 C-7.91264648 1.20615876 -4.22609198 0 0 0 Z " fill="#A5A798" transform="translate(85,61)"/>
<path d="M0 0 C1.02488847 3.07466542 0.95950614 4.05890078 0.4375 7.125 C-0.20525285 12.1124367 0.66147833 16.20515868 2 21 C2.33604047 22.33265363 2.67019516 23.6657895 3 25 C3.78375 25.12375 4.5675 25.2475 5.375 25.375 C8 26 8 26 10 28 C10.484375 30.2421875 10.484375 30.2421875 10.75 32.875 C10.89695312 34.17050781 10.89695312 34.17050781 11.046875 35.4921875 C11 38 11 38 9 42 C4.71 42 0.42 42 -4 42 C-4.66 40.68 -5.32 39.36 -6 38 C-8.16606939 37.20617243 -8.16606939 37.20617243 -10.71875 37.0234375 C-11.65074219 36.91 -12.58273438 36.7965625 -13.54296875 36.6796875 C-14.51878906 36.57914063 -15.49460938 36.47859375 -16.5 36.375 C-18.42792157 36.16106947 -20.35507412 35.94005386 -22.28125 35.7109375 C-23.13783203 35.62118652 -23.99441406 35.53143555 -24.87695312 35.43896484 C-27 35 -27 35 -29 33 C-27.68 32.34 -26.36 31.68 -25 31 C-27.88167681 30.19347492 -30.56031547 29.82484994 -33.546875 29.68359375 C-34.39121094 29.64169922 -35.23554687 29.59980469 -36.10546875 29.55664062 C-36.97816406 29.51732422 -37.85085937 29.47800781 -38.75 29.4375 C-40.08224609 29.37272461 -40.08224609 29.37272461 -41.44140625 29.30664062 C-43.62745963 29.20086385 -45.81362089 29.09877454 -48 29 C-47.1875 27.05859375 -47.1875 27.05859375 -46 25 C-44.515 24.5359375 -44.515 24.5359375 -43 24.0625 C-42.01 23.711875 -41.02 23.36125 -40 23 C-39.29788106 21.34795544 -38.63028587 19.68076231 -38 18 C-35.75 16.4375 -35.75 16.4375 -33 16 C-29.9375 17.8125 -29.9375 17.8125 -27 20 C-26.01 20.2165625 -26.01 20.2165625 -25 20.4375 C-21.5824762 21.39867857 -19.49340418 23.5632641 -17 26 C-17 27.32 -17 28.64 -17 30 C-15.02 30 -13.04 30 -11 30 C-10.7525 30.804375 -10.505 31.60875 -10.25 32.4375 C-9.8375 33.283125 -9.425 34.12875 -9 35 C-7.06381575 35.67156616 -7.06381575 35.67156616 -5 36 C-4.54625 36.53625 -4.0925 37.0725 -3.625 37.625 C-3.08875 38.07875 -2.5525 38.5325 -2 39 C1.01349195 38.6644218 1.01349195 38.6644218 4 38 C4.99 38.33 5.98 38.66 7 39 C7.5534764 36.92446352 8 35.15634036 8 33 C7.01 32.67 6.02 32.34 5 32 C0.034086 24.58271879 -3.63477258 17.04550924 -3 8 C-1.40425532 1.40425532 -1.40425532 1.40425532 0 0 Z " fill="#B5B6AB" transform="translate(83,67)"/>
<path d="M0 0 C1.84276141 0.55282842 3.67482878 1.14160959 5.5 1.75 C5.995 3.235 5.995 3.235 6.5 4.75 C4.19 4.75 1.88 4.75 -0.5 4.75 C-1.49 7.72 -2.48 10.69 -3.5 13.75 C-8.65171623 13.84038099 -13.41913204 13.59681133 -18.5 12.75 C-19.49 18.195 -19.49 18.195 -20.5 23.75 C-19.84 23.75 -19.18 23.75 -18.5 23.75 C-18.5 25.4 -18.5 27.05 -18.5 28.75 C-20.15 28.75 -21.8 28.75 -23.5 28.75 C-23.5 31.06 -23.5 33.37 -23.5 35.75 C-22.88125 36.059375 -22.2625 36.36875 -21.625 36.6875 C-20.25 37.375 -18.875 38.0625 -17.5 38.75 C-17.83 40.07 -18.16 41.39 -18.5 42.75 C-23.89009729 44.58492674 -28.79759979 45.27618714 -34.5 44.75 C-35.5 43.75 -35.5 43.75 -36 41.25 C-35.24812051 35.98684354 -32.17869689 32.4885131 -28.5 28.75 C-26.265625 27.484375 -26.265625 27.484375 -24.5 26.75 C-24.445652 24.6877952 -24.40705039 22.62517184 -24.375 20.5625 C-24.34019531 18.83966797 -24.34019531 18.83966797 -24.3046875 17.08203125 C-24.49680738 13.80446612 -25.1819273 11.71566356 -26.5 8.75 C-26.625 5.9375 -26.625 5.9375 -26.5 3.75 C-21.26824163 3.36718841 -18.12197306 4.53145293 -13.5 6.75 C-13.5 7.41 -13.5 8.07 -13.5 8.75 C-11.85 8.75 -10.2 8.75 -8.5 8.75 C-7.8503125 7.3578125 -7.8503125 7.3578125 -7.1875 5.9375 C-3.84078212 -0.38407821 -3.84078212 -0.38407821 0 0 Z " fill="#FDFCFB" transform="translate(64.5,25.25)"/>
<path d="M0 0 C0.8559375 0.16628906 1.711875 0.33257812 2.59375 0.50390625 C7.03010442 1.15002668 11.31054189 0.97290054 15.78125 0.83984375 C19.1848389 1.00919708 21.8316722 1.78324761 25 3 C24.67 4.32 24.34 5.64 24 7 C21.69 7.66 19.38 8.32 17 9 C17.33 10.32 17.66 11.64 18 13 C16.68 13.33 15.36 13.66 14 14 C14 15.32 14 16.64 14 18 C11.525 18.495 11.525 18.495 9 19 C8.34 20.98 7.68 22.96 7 25 C9.97 24.67 12.94 24.34 16 24 C18 28 18 28 17.5390625 30.140625 C17.23742187 30.83671875 16.93578125 31.5328125 16.625 32.25 C16.32851562 32.95640625 16.03203125 33.6628125 15.7265625 34.390625 C15.48679687 34.92171875 15.24703125 35.4528125 15 36 C13.35 35.67 11.7 35.34 10 35 C9.896875 34.360625 9.79375 33.72125 9.6875 33.0625 C9.460625 32.381875 9.23375 31.70125 9 31 C8.01 30.67 7.02 30.34 6 30 C5.67 29.34 5.34 28.68 5 28 C3.865625 27.608125 2.73125 27.21625 1.5625 26.8125 C-2 25 -2 25 -3.4375 21.3125 C-3.623125 20.219375 -3.80875 19.12625 -4 18 C-0.04 17.505 -0.04 17.505 4 17 C4.33 15.68 4.66 14.36 5 13 C7.31 12.34 9.62 11.68 12 11 C11.505 8.525 11.505 8.525 11 6 C10.01 6.33 9.02 6.66 8 7 C7.01 6.67 6.02 6.34 5 6 C4.34 6.66 3.68 7.32 3 8 C0.875 7.625 0.875 7.625 -1 7 C-1.625 5.1875 -1.625 5.1875 -2 3 C-1.34 2.01 -0.68 1.02 0 0 Z " fill="#DCB414" transform="translate(50,44)"/>
<path d="M0 0 C1.175625 1.299375 1.175625 1.299375 2.375 2.625 C3.24125 3.40875 4.1075 4.1925 5 5 C7.3423729 4.68247073 7.3423729 4.68247073 10 4 C18.31653008 3.47770584 25.27271869 3.80250429 33 7 C33 8.98 33 10.96 33 13 C31.68 13.33 30.36 13.66 29 14 C28.7525 13.195625 28.505 12.39125 28.25 11.5625 C27.8375 10.716875 27.425 9.87125 27 9 C24.96971804 8.30464127 24.96971804 8.30464127 23 8 C22.96261719 8.61488281 22.92523438 9.22976562 22.88671875 9.86328125 C22.82097656 10.67152344 22.75523438 11.47976562 22.6875 12.3125 C22.60048828 13.51326172 22.60048828 13.51326172 22.51171875 14.73828125 C21.90324968 17.42762166 21.28938222 18.46501375 19 20 C17.68 19.67 16.36 19.34 15 19 C15.33 15.7 15.66 12.4 16 9 C15.34 8.67 14.68 8.34 14 8 C10.26360784 9.24546405 9.81243487 10.63404953 8 14 C5.75 13.9375 5.75 13.9375 3 13 C1.9748818 11.23807809 0.9534045 9.47209358 0.01953125 7.66015625 C-0.96799558 5.78522984 -0.96799558 5.78522984 -3.3125 4.5 C-6.74751172 3.86092805 -9.59185641 4.33173655 -13 5 C-11.125 1.125 -11.125 1.125 -10 0 C-3.57142857 -1.19047619 -3.57142857 -1.19047619 0 0 Z " fill="#B2B4A9" transform="translate(71,20)"/>
<path d="M0 0 C1.32 0.66 2.64 1.32 4 2 C3.67 4.97 3.34 7.94 3 11 C4.32 11 5.64 11 7 11 C7 11.66 7 12.32 7 13 C3.04 14.98 3.04 14.98 -1 17 C-1 17.99 -1 18.98 -1 20 C1.83073436 20.50169415 1.83073436 20.50169415 5 20 C7.12821884 17.18288354 7.12821884 17.18288354 9 14 C11.5625 12.0625 11.5625 12.0625 14 11 C14.99 11.33 15.98 11.66 17 12 C16.195625 12.45375 15.39125 12.9075 14.5625 13.375 C11.91143428 14.74725665 11.91143428 14.74725665 11 17 C12.31355469 16.97679688 13.62710938 16.95359375 14.98046875 16.9296875 C16.71614013 16.91092349 18.45181768 16.89272396 20.1875 16.875 C21.05181641 16.85824219 21.91613281 16.84148437 22.80664062 16.82421875 C27.32208103 16.78961767 30.90081483 16.84432084 35 19 C30.50180201 21.99879866 27.11406419 22.32026089 21.8125 22.625 C20.6977832 22.70234375 20.6977832 22.70234375 19.56054688 22.78125 C14.88194844 23.06007971 10.64754527 22.7501499 6 22 C4.56244526 21.98336714 3.12362625 21.9963058 1.6875 22.0625 C-2 22 -2 22 -4 20 C-4.0621192 17.50044174 -3.99939048 15.16912175 -3.8125 12.6875 C-3.73644531 11.37136719 -3.66039063 10.05523437 -3.58203125 8.69921875 C-3.00548539 5.03486351 -2.13976278 2.98182576 0 0 Z " fill="#B7B8AD" transform="translate(24,79)"/>
<path d="M0 0 C4.63714903 1.46436285 4.63714903 1.46436285 6.3125 3.9375 C7 6 7 6 7 9 C8.32 9.66 9.64 10.32 11 11 C11 11.66 11 12.32 11 13 C11.92280762 13.01401855 11.92280762 13.01401855 12.86425781 13.02832031 C15.66031086 13.08211085 18.4547062 13.16573819 21.25 13.25 C22.21808594 13.26417969 23.18617187 13.27835938 24.18359375 13.29296875 C31.4019949 13.54187913 31.4019949 13.54187913 34.671875 16.046875 C35.11015625 16.69140625 35.5484375 17.3359375 36 18 C35.22398438 17.87882812 34.44796875 17.75765625 33.6484375 17.6328125 C31.34063641 17.2748004 29.03195112 16.92246536 26.72265625 16.57421875 C24.45600658 16.22458863 22.19191976 15.85691318 19.93359375 15.45703125 C7.72195287 13.42430505 -4.64792513 13.34272619 -17 13 C-17.14488905 18.1435613 -16.86005204 20.70992194 -14 25 C-14 25.99 -14 26.98 -14 28 C-16.64 27.67 -19.28 27.34 -22 27 C-21.67 28.65 -21.34 30.3 -21 32 C-21.99 31.67 -22.98 31.34 -24 31 C-25.125 26.25 -25.125 26.25 -24 24 C-22.35 24 -20.7 24 -19 24 C-19.11859375 23.40832031 -19.2371875 22.81664063 -19.359375 22.20703125 C-19.48828125 21.41683594 -19.6171875 20.62664063 -19.75 19.8125 C-19.88921875 19.03519531 -20.0284375 18.25789063 -20.171875 17.45703125 C-19.91535332 13.7899372 -18.74255705 12.39973742 -16 10 C-13.15077376 9.79085467 -11.02178887 9.82334248 -8.25 10.1875 C-7.55261719 10.25775391 -6.85523437 10.32800781 -6.13671875 10.40039062 C-4.42187992 10.5765727 -2.71042238 10.78513351 -1 11 C-1.20625 9.741875 -1.4125 8.48375 -1.625 7.1875 C-2.21335669 3.5985242 -2.16617415 3.24926122 0 0 Z " fill="#E8D88E" transform="translate(65,30)"/>
<path d="M0 0 C0.66 0.33 1.32 0.66 2 1 C2 4 2 4 0 6.0625 C-0.66 6.701875 -1.32 7.34125 -2 8 C-2 8.66 -2 9.32 -2 10 C-0.02 10 1.96 10 4 10 C4 8.35 4 6.7 4 5 C4.99 5.33 5.98 5.66 7 6 C7.6875 8.0625 7.6875 8.0625 8 10 C7.38125 10.061875 6.7625 10.12375 6.125 10.1875 C5.42375 10.455625 4.7225 10.72375 4 11 C3.27544365 12.64232772 2.62225605 14.31624835 2 16 C1.17190404 17.18531383 0.31545748 18.35112992 -0.5625 19.5 C-2.65709903 22.35851161 -3.72946718 24.39289573 -4 28 C-4.103125 29.051875 -4.20625 30.10375 -4.3125 31.1875 C-3.76332657 37.88741584 -1.1980286 43.76750017 3 49 C2.67 49.66 2.34 50.32 2 51 C-3.86262168 43.86619498 -7.86678716 37.53465876 -7 28 C-5.85649921 22.17854141 -3.56749159 18.60018653 0 14 C-0.84820312 14.32742187 -1.69640625 14.65484375 -2.5703125 14.9921875 C-6.20190011 16.05932828 -9.10336301 16.20197218 -12.875 16.125 C-14.02742188 16.10695313 -15.17984375 16.08890625 -16.3671875 16.0703125 C-17.23601562 16.04710938 -18.10484375 16.02390625 -19 16 C-18.34 14.35 -17.68 12.7 -17 11 C-14.69 11 -12.38 11 -10 11 C-10 9.35 -10 7.7 -10 6 C-8.3603125 5.62875 -8.3603125 5.62875 -6.6875 5.25 C-2.94091591 3.97997149 -1.89404734 3.34243648 0 0 Z " fill="#B6AB54" transform="translate(85,47)"/>
<path d="M0 0 C-0.95232762 2.63721495 -1.82815196 4.78003451 -3.5625 7 C-6.52824589 11.12625516 -6.40309181 16.08227991 -6 21 C-4.52701411 26.04337561 -2.70339161 30.48948763 0.8125 34.4375 C1.534375 35.283125 2.25625 36.12875 3 37 C2.67 37.99 2.34 38.98 2 40 C-6.92711753 32.48128693 -6.92711753 32.48128693 -10 28 C-10 27.34 -10 26.68 -10 26 C-11.65 26 -13.3 26 -15 26 C-14.67 25.01 -14.34 24.02 -14 23 C-13.34 23 -12.68 23 -12 23 C-11.74965874 20.9399629 -11.52556654 18.87672534 -11.3125 16.8125 C-11.18488281 15.66394531 -11.05726562 14.51539062 -10.92578125 13.33203125 C-11.00933062 9.58110449 -11.93723897 8.05116736 -14 5 C-13.6875 2.6875 -13.6875 2.6875 -13 1 C-11.88625 1.020625 -10.7725 1.04125 -9.625 1.0625 C-5.88377953 0.9979962 -3.79326366 0 0 0 Z " fill="#707520" transform="translate(85,61)"/>
<path d="M0 0 C0.99 0.66 1.98 1.32 3 2 C3.804375 1.938125 4.60875 1.87625 5.4375 1.8125 C8 2 8 2 10.3125 4.5 C10.869375 5.325 11.42625 6.15 12 7 C10.125 10.875 10.125 10.875 9 12 C7.04693206 12.23611717 5.08669993 12.41431403 3.125 12.5625 C2.05507812 12.64628906 0.98515625 12.73007812 -0.1171875 12.81640625 C-2.0751132 12.94109799 -4.03810778 13 -6 13 C-7.45034604 14.30456502 -7.45034604 14.30456502 -8.6875 16 C-9.450625 16.99 -10.21375 17.98 -11 19 C-11 14.92253115 -9.47931949 13.16801935 -7 10 C-4.75 9.125 -4.75 9.125 -3 9 C-4.3089572 5.87802522 -4.3089572 5.87802522 -7 4 C-7 5.65 -7 7.3 -7 9 C-8.98 9.33 -10.96 9.66 -13 10 C-13.33 9.01 -13.66 8.02 -14 7 C-6.64503043 -0.55375254 -6.64503043 -0.55375254 0 0 Z " fill="#E7D892" transform="translate(96,48)"/>
<path d="M0 0 C2.52282655 2.52282655 5 5.30389793 5 9 C6.32 9 7.64 9 9 9 C9 9.66 9 10.32 9 11 C12.63 11 16.26 11 20 11 C18.6875 13.5 18.6875 13.5 17 16 C16.01 16 15.02 16 14 16 C13.67 16.99 13.34 17.98 13 19 C12.01 19.33 11.02 19.66 10 20 C9.67 20.99 9.34 21.98 9 23 C7.68 23 6.36 23 5 23 C5 20.03 5 17.06 5 14 C3.68 14 2.36 14 1 14 C0.66191314 16.06172613 0.32972639 18.1244203 0 20.1875 C-0.185625 21.33605469 -0.37125 22.48460938 -0.5625 23.66796875 C-0.93608948 26.51325294 -1.1673778 29.13888573 -1 32 C0.09025722 33.32361769 0.09025722 33.32361769 2.765625 33.02734375 C5.07820081 32.96771455 7.3907051 32.90524024 9.703125 32.83984375 C12.95290573 32.99771225 15.08939113 33.60487733 18 35 C14.09797689 37.76393303 10.41772029 36.74040005 6 36 C4.72125 35.855625 3.4425 35.71125 2.125 35.5625 C-1 35 -1 35 -3 33 C-3.22753708 30.39071116 -3.32426284 27.92149808 -3.3125 25.3125 C-3.32861328 24.61705078 -3.34472656 23.92160156 -3.36132812 23.20507812 C-3.36610371 18.09043083 -2.35253564 14.55052515 0 10 C0.66 9.34 1.32 8.68 2 8 C1.67 7.236875 1.34 6.47375 1 5.6875 C0 3 0 3 0 0 Z " fill="#E8E4D8" transform="translate(22,67)"/>
<path d="M0 0 C0.33 0 0.66 0 1 0 C1.33 1.98 1.66 3.96 2 6 C2.99 6 3.98 6 5 6 C5 7.65 5 9.3 5 11 C3.35 11 1.7 11 0 11 C0 13.31 0 15.62 0 18 C0.61875 18.309375 1.2375 18.61875 1.875 18.9375 C3.25 19.625 4.625 20.3125 6 21 C5.67 22.32 5.34 23.64 5 25 C-0.39009729 26.83492674 -5.29759979 27.52618714 -11 27 C-12 26 -12 26 -12.5 23.5 C-11.74812051 18.23684354 -8.67869689 14.7385131 -5 11 C-4.278125 10.67773438 -3.55625 10.35546875 -2.8125 10.0234375 C-0.7677485 9.14969115 -0.7677485 9.14969115 -0.390625 6.8359375 C-0.32101563 5.61777344 -0.32101563 5.61777344 -0.25 4.375 C-0.19328125 3.55773438 -0.1365625 2.74046875 -0.078125 1.8984375 C-0.05234375 1.27195313 -0.0265625 0.64546875 0 0 Z " fill="#E9E5D7" transform="translate(41,43)"/>
<path d="M0 0 C1.21236328 0.01353516 1.21236328 0.01353516 2.44921875 0.02734375 C3.37154297 0.04474609 3.37154297 0.04474609 4.3125 0.0625 C5.19392743 3.50807997 5.61511231 5.39356752 4.125 8.6875 C-0.49962121 14.74734848 -0.49962121 14.74734848 -4.75 15.875 C-7.6875 16.0625 -7.6875 16.0625 -10.6875 15.0625 C-12.28495879 11.86758241 -12.19566842 8.53040611 -11.6875 5.0625 C-8.44225288 0.69820215 -5.25211503 -0.07611761 0 0 Z " fill="#DDB618" transform="translate(98.6875,67.9375)"/>
<path d="M0 0 C0.7734375 -0.01417969 1.546875 -0.02835938 2.34375 -0.04296875 C4.5 0.1875 4.5 0.1875 7.5 2.1875 C6.84 2.1875 6.18 2.1875 5.5 2.1875 C4.84 4.1675 4.18 6.1475 3.5 8.1875 C7.955 7.6925 7.955 7.6925 12.5 7.1875 C14.5 11.1875 14.5 11.1875 14.0390625 13.328125 C13.73742187 14.02421875 13.43578125 14.7203125 13.125 15.4375 C12.82851562 16.14390625 12.53203125 16.8503125 12.2265625 17.578125 C11.86691406 18.37476563 11.86691406 18.37476563 11.5 19.1875 C9.85 18.8575 8.2 18.5275 6.5 18.1875 C6.3453125 17.2284375 6.3453125 17.2284375 6.1875 16.25 C5.960625 15.569375 5.73375 14.88875 5.5 14.1875 C4.51 13.8575 3.52 13.5275 2.5 13.1875 C2.17 12.5275 1.84 11.8675 1.5 11.1875 C-0.2015625 10.5996875 -0.2015625 10.5996875 -1.9375 10 C-5.5 8.1875 -5.5 8.1875 -6.9375 4.5 C-7.123125 3.406875 -7.30875 2.31375 -7.5 1.1875 C-4.71398777 0.25882926 -2.88933911 0.02407783 0 0 Z " fill="#DDB514" transform="translate(53.5,60.8125)"/>
<path d="M0 0 C3.27727881 1.55670743 4.94204376 2.92548483 7.1875 5.8125 C9.70455639 8.26420768 9.70455639 8.26420768 12.2578125 7.875 C13.99521043 7.49245367 15.72590427 7.07839787 17.44921875 6.63671875 C24.60666059 4.85009851 29.77463555 6.29127224 36 10 C33 11 33 11 30.75 10.07421875 C27.35407668 8.7476862 24.63657447 8.76939405 21 8.8125 C19.205625 8.82216797 19.205625 8.82216797 17.375 8.83203125 C14.07796256 8.89914564 14.07796256 8.89914564 11.23828125 9.625 C9 10 9 10 6.1875 8.1875 C5.465625 7.465625 4.74375 6.74375 4 6 C4 5.34 4 4.68 4 4 C2.37399059 4.0870005 0.74910322 4.1951781 -0.875 4.3125 C-1.77992187 4.37050781 -2.68484375 4.42851562 -3.6171875 4.48828125 C-6.36221601 4.7882039 -6.36221601 4.7882039 -8 8 C-6.02 7.67 -4.04 7.34 -2 7 C-2.99 7.33 -3.98 7.66 -5 8 C-6.02651373 9.71519747 -6.02651373 9.71519747 -7 12 C-8.30586659 14.34955148 -9.6566511 16.67152857 -11 19 C-12.65 18.67 -14.3 18.34 -16 18 C-16 17.34 -16 16.68 -16 16 C-14.68 16 -13.36 16 -12 16 C-12 14.68 -12 13.36 -12 12 C-12.969375 11.731875 -13.93875 11.46375 -14.9375 11.1875 C-15.948125 10.795625 -16.95875 10.40375 -18 10 C-18.33 9.01 -18.66 8.02 -19 7 C-21.01508358 6.26676204 -21.01508358 6.26676204 -23 6 C-19.05272412 5.82057837 -16.4019487 5.90649311 -13 8 C-12.79375 7.4225 -12.5875 6.845 -12.375 6.25 C-9.60810914 1.72236041 -5.31433393 -0.95385481 0 0 Z " fill="#E3E0D3" transform="translate(67,16)"/>
<path d="M0 0 C0.33 2.31 0.66 4.62 1 7 C0.48050781 7.23074219 -0.03898437 7.46148437 -0.57421875 7.69921875 C-5.25347157 9.88748301 -8.45440949 12.15894362 -12 16 C-15.62068966 19 -15.62068966 19 -18 19 C-18.28875 19.78375 -18.5775 20.5675 -18.875 21.375 C-20 24 -20 24 -22 26 C-25.125 26.125 -25.125 26.125 -28 26 C-28.33 24.68 -28.66 23.36 -29 22 C-22.25 18 -22.25 18 -20 18 C-19.814375 17.236875 -19.62875 16.47375 -19.4375 15.6875 C-17.42963165 11.93365918 -14.86176139 11.59797023 -11 10 C-8.43965247 7.71924815 -8.43965247 7.71924815 -7 5 C-7.12563582 2.73575649 -7.12563582 2.73575649 -8 1 C-4.93251126 -0.86240388 -3.40254489 -1.2151946 0 0 Z " fill="#81877B" transform="translate(51,74)"/>
<path d="M0 0 C4.27096492 0.5777905 7.18835792 2.07534358 10.8125 4.375 C11.78832031 4.98085937 12.76414062 5.58671875 13.76953125 6.2109375 C14.50558594 6.80132812 15.24164063 7.39171875 16 8 C16 8.99 16 9.98 16 11 C6.76 11 -2.48 11 -12 11 C-9.73197503 6.46395007 -8.52310498 5.88462708 -4 4 C-3.34 4 -2.68 4 -2 4 C-1.34 2.68 -0.68 1.36 0 0 Z " fill="#F4F2EC" transform="translate(47,85)"/>
<path d="M0 0 C1.65 0.33 3.3 0.66 5 1 C5.82668822 4.53568191 6.03375826 7.6303116 5.875 11.25 C5.81077001 16.01586526 6.64071076 19.62793848 8.33203125 24.05078125 C9.14660017 26.42779816 9.24127817 28.5067922 9 31 C7.02 31.99 7.02 31.99 5 33 C4.87882812 32.21753906 4.75765625 31.43507813 4.6328125 30.62890625 C4.46523438 29.61699219 4.29765625 28.60507812 4.125 27.5625 C3.96257813 26.55316406 3.80015625 25.54382813 3.6328125 24.50390625 C3.42398438 23.67761719 3.21515625 22.85132812 3 22 C2.34 21.67 1.68 21.34 1 21 C0.49137649 18.39441989 0.11121565 15.88055026 -0.1875 13.25 C-0.32961914 12.17492187 -0.32961914 12.17492187 -0.47460938 11.078125 C-0.94693565 7.15529305 -1.06050222 3.82081652 0 0 Z " fill="#A39F59" transform="translate(31,19)"/>
<path d="M0 0 C1.02488847 3.07466542 0.95950614 4.05890078 0.4375 7.125 C-0.20525285 12.1124367 0.66147833 16.20515868 2 21 C2.33604047 22.33265363 2.67019516 23.6657895 3 25 C3.78375 25.12375 4.5675 25.2475 5.375 25.375 C8 26 8 26 10 28 C10.484375 30.2421875 10.484375 30.2421875 10.75 32.875 C10.89695312 34.17050781 10.89695312 34.17050781 11.046875 35.4921875 C10.99583479 38.22283899 10.39884193 39.68653065 9 42 C6.87561661 42.08078641 4.7503677 42.13909141 2.625 42.1875 C1.44164063 42.22230469 0.25828125 42.25710937 -0.9609375 42.29296875 C-2.46527344 42.14794922 -2.46527344 42.14794922 -4 42 C-4.66 41.01 -5.32 40.02 -6 39 C-4.906875 39.020625 -3.81375 39.04125 -2.6875 39.0625 C0.94384191 39.18544452 0.94384191 39.18544452 4 38 C4.99 38.33 5.98 38.66 7 39 C7.5534764 36.92446352 8 35.15634036 8 33 C7.01 32.67 6.02 32.34 5 32 C0.034086 24.58271879 -3.63477258 17.04550924 -3 8 C-1.40425532 1.40425532 -1.40425532 1.40425532 0 0 Z " fill="#DDD9C6" transform="translate(83,67)"/>
<path d="M0 0 C1.875 1.625 1.875 1.625 3 4 C3.105513 9.48667603 1.21957491 13.08585206 -2.1015625 17.265625 C-5.2622525 20.15316895 -8.87982648 21.12102965 -13 22 C-16.02350897 19.73236827 -17.72392828 18.39176655 -18.47265625 14.6171875 C-18.61152152 10.57198183 -18.35404465 7.72348255 -16.5625 4.0625 C-12.07136194 0.44768156 -5.63948958 -2.48801011 0 0 Z M-16 6 C-17.12256131 8.24512262 -17.13413762 9.51456649 -17.125 12 C-17.12757812 12.70125 -17.13015625 13.4025 -17.1328125 14.125 C-17.11377236 16.09153775 -17.11377236 16.09153775 -16 18 C-11.79368308 19.4421658 -8.98352855 18.86463039 -5 17 C-1.14462896 13.3530274 -0.29686267 10.24457381 0 5 C-0.33 4.34 -0.66 3.68 -1 3 C-6.78450072 2.65292996 -10.96563531 2.72766295 -16 6 Z " fill="#E8CF67" transform="translate(104,65)"/>
<path d="M0 0 C1.65 0.33 3.3 0.66 5 1 C5.33 2.32 5.66 3.64 6 5 C7.32 5 8.64 5 10 5 C10 3.35 10 1.7 10 0 C10.66 0 11.32 0 12 0 C11.9375 3.3125 11.9375 3.3125 11 7 C8.52944367 8.38351154 6.63650289 9.16659253 4 10 C2.824375 10.556875 1.64875 11.11375 0.4375 11.6875 C-3.00724961 13.00276803 -5.35562859 13.26666132 -9 13 C-9.495 10.525 -9.495 10.525 -10 8 C-8.68 7.34 -7.36 6.68 -6 6 C-6.33 7.65 -6.66 9.3 -7 11 C-4.24358584 10.50243908 -4.24358584 10.50243908 -2 9 C-1.60851239 7.48834346 -1.26027543 5.96530368 -0.9375 4.4375 C-0.76089844 3.61121094 -0.58429688 2.78492188 -0.40234375 1.93359375 C-0.26957031 1.29550781 -0.13679688 0.65742188 0 0 Z " fill="#D2D0C6" transform="translate(94,28)"/>
<path d="M0 0 C0.99 0.66 1.98 1.32 3 2 C3.1875 4.625 3.1875 4.625 3 7 C1.35 7.33 -0.3 7.66 -2 8 C-2 10.31 -2 12.62 -2 15 C-6.38000076 14.49942848 -8.84169815 13.06806466 -12 10 C-12 9.01 -12 8.02 -12 7 C-10.88625 6.7525 -9.7725 6.505 -8.625 6.25 C-4.95123876 5.41550456 -4.95123876 5.41550456 -3.75 2.9375 C-3.5025 2.298125 -3.255 1.65875 -3 1 C-2.01 0.67 -1.02 0.34 0 0 Z " fill="#F9F7F4" transform="translate(85,27)"/>
<path d="M0 0 C0.7734375 -0.01417969 1.546875 -0.02835938 2.34375 -0.04296875 C4.5 0.1875 4.5 0.1875 7.5 2.1875 C6.84 2.1875 6.18 2.1875 5.5 2.1875 C5.273125 3.13625 5.04625 4.085 4.8125 5.0625 C3.5 8.1875 3.5 8.1875 1.1875 9.75 C-1.5 10.1875 -1.5 10.1875 -4.25 9.1875 C-7.10919479 6.64599352 -7.25068619 4.92720715 -7.5 1.1875 C-4.71398777 0.25882926 -2.88933911 0.02407783 0 0 Z " fill="#A29F58" transform="translate(53.5,60.8125)"/>
<path d="M0 0 C1.32 0.66 2.64 1.32 4 2 C3.67 4.97 3.34 7.94 3 11 C4.32 11 5.64 11 7 11 C7 11.66 7 12.32 7 13 C5.329375 13.4640625 5.329375 13.4640625 3.625 13.9375 C0.2054845 14.82326483 0.2054845 14.82326483 -2 16 C-3.13350534 18.01669827 -3.13350534 18.01669827 -4 20 C-3.91254425 17.60250616 -3.80562925 15.20851779 -3.6875 12.8125 C-3.66494141 12.13896484 -3.64238281 11.46542969 -3.61914062 10.77148438 C-3.38404446 6.39014677 -2.57557314 3.55608624 0 0 Z " fill="#C5C5BC" transform="translate(24,79)"/>
<path d="M0 0 C6.93 0.495 6.93 0.495 14 1 C13.01 2.65 12.02 4.3 11 6 C10.01 6 9.02 6 8 6 C7.67 6.99 7.34 7.98 7 9 C6.01 9.33 5.02 9.66 4 10 C3.67 10.99 3.34 11.98 3 13 C2.01 13 1.02 13 0 13 C0.29296875 11.07942708 0.5859375 9.15885417 0.87890625 7.23828125 C1.11917756 4.51774191 1.11917756 4.51774191 0 0 Z " fill="#FCFBFB" transform="translate(28,77)"/>
<path d="M0 0 C0.99 0 1.98 0 3 0 C2.67 0.5775 2.34 1.155 2 1.75 C0.72924102 4.19883862 0.72924102 4.19883862 1 8 C2.65 7.34 4.3 6.68 6 6 C7.5 7.375 7.5 7.375 9 9 C9 9.66 9 10.32 9 11 C4.46298506 12.45184478 0.81938524 13.23509196 -4 13 C-4.66 11.68 -5.32 10.36 -6 9 C-5.07544441 7.491987 -4.1349253 5.99375083 -3.1875 4.5 C-2.66542969 3.6646875 -2.14335938 2.829375 -1.60546875 1.96875 C-1.07566406 1.3190625 -0.54585937 0.669375 0 0 Z " fill="#FEFDFD" transform="translate(36,56)"/>
<path d="M0 0 C4.63714903 1.46436285 4.63714903 1.46436285 6.3125 3.9375 C7 6 7 6 7 9 C8.32 9.66 9.64 10.32 11 11 C6.91556885 12.53166168 3.20544343 11.63081652 -1 11 C-2.25 3.375 -2.25 3.375 0 0 Z " fill="#C6C6BD" transform="translate(65,30)"/>
<path d="M0 0 C0.33 0.66 0.66 1.32 1 2 C-0.11375 2.103125 -1.2275 2.20625 -2.375 2.3125 C-3.57125 2.539375 -4.7675 2.76625 -6 3 C-6.99 4.485 -6.99 4.485 -8 6 C-6.02 5.67 -4.04 5.34 -2 5 C-2.99 5.33 -3.98 5.66 -5 6 C-6.02651373 7.71519747 -6.02651373 7.71519747 -7 10 C-8.30586659 12.34955148 -9.6566511 14.67152857 -11 17 C-12.65 16.67 -14.3 16.34 -16 16 C-16 15.34 -16 14.68 -16 14 C-14.68 14 -13.36 14 -12 14 C-12 12.68 -12 11.36 -12 10 C-12.969375 9.71125 -13.93875 9.4225 -14.9375 9.125 C-18 8 -18 8 -19 6 C-16.03 6.495 -16.03 6.495 -13 7 C-12.4225 6.21625 -11.845 5.4325 -11.25 4.625 C-7.74674144 0.53786501 -5.33325582 -0.29629199 0 0 Z " fill="#C6C6BD" transform="translate(67,18)"/>
<path d="M0 0 C0.33 0.99 0.66 1.98 1 3 C-4.74619251 5.99801348 -9.54551003 6.58677182 -16 6 C-16.99 5.67 -17.98 5.34 -19 5 C-18.67 3.68 -18.34 2.36 -18 1 C-16.9275 1.020625 -15.855 1.04125 -14.75 1.0625 C-11.26287885 1.14588008 -11.26287885 1.14588008 -9 0.5 C-6.0055669 -0.24860828 -3.07009479 -0.05904028 0 0 Z " fill="#E8C949" transform="translate(48,70)"/>
<path d="M0 0 C2.375 0.3125 2.375 0.3125 5 1 C7 4 7 4 7 7 C5.68 7.33 4.36 7.66 3 8 C3 9.32 3 10.64 3 12 C-0.3 11.67 -3.6 11.34 -7 11 C-6.67 9.68 -6.34 8.36 -6 7 C-3.69 6.34 -1.38 5.68 1 5 C0.505 2.525 0.505 2.525 0 0 Z " fill="#DBB415" transform="translate(61,50)"/>
<path d="M0 0 C2.0390625 1.45703125 2.0390625 1.45703125 3.0390625 4.45703125 C2.6015625 6.64453125 2.6015625 6.64453125 2.0390625 8.45703125 C0.2890625 8.39453125 0.2890625 8.39453125 -1.9609375 7.45703125 C-3.55595287 5.21538803 -4.70636768 2.92136482 -5.9609375 0.45703125 C-10.75556724 0.35918166 -15.22381683 0.7552356 -19.9609375 1.45703125 C-21.62722705 1.49248422 -23.29503553 1.50751313 -24.9609375 1.45703125 C-25.2909375 0.13703125 -25.6209375 -1.18296875 -25.9609375 -2.54296875 C-24.9709375 -2.04796875 -24.9709375 -2.04796875 -23.9609375 -1.54296875 C-19.47779217 -1.15035113 -15.75283265 -1.24060878 -11.5234375 -2.85546875 C-6.70660523 -3.78503287 -4.23727813 -2.22105062 0 0 Z " fill="#E8D581" transform="translate(53.9609375,70.54296875)"/>
<path d="M0 0 C1.98 0 3.96 0 6 0 C6 0.66 6 1.32 6 2 C6.99 2.33 7.98 2.66 9 3 C9.04254356 4.99954746 9.04080783 7.00041636 9 9 C8.67 9.33 8.34 9.66 8 10 C7.76712992 11.68183948 7.58735834 13.3712416 7.4375 15.0625 C7.35371094 15.98160156 7.26992188 16.90070312 7.18359375 17.84765625 C7.12300781 18.55792969 7.06242187 19.26820312 7 20 C6.67 20 6.34 20 6 20 C6 15.05 6 10.1 6 5 C3.525 4.01 3.525 4.01 1 3 C1 7.95 1 12.9 1 18 C-1.6331038 14.05034431 -2.12274339 11.45124115 -2.0625 6.8125 C-2.05347656 5.91144531 -2.04445313 5.01039062 -2.03515625 4.08203125 C-2.02355469 3.39496094 -2.01195313 2.70789063 -2 2 C-1.34 2 -0.68 2 0 2 C0 1.34 0 0.68 0 0 Z " fill="#A4A79C" transform="translate(30,16)"/>
<path d="M0 0 C2.90499982 0.63689034 5.40078778 1.5518367 8.0625 2.875 C8.73410156 3.20242187 9.40570313 3.52984375 10.09765625 3.8671875 C12 5 12 5 13.546875 6.55859375 C15.68805602 8.68250719 18.1503239 9.17676024 21 10 C20.67 10.99 20.34 11.98 20 13 C17.36 13.33 14.72 13.66 12 14 C11.77570313 13.25105469 11.55140625 12.50210938 11.3203125 11.73046875 C9.69699077 8.37336256 7.99969129 7.2932516 4.875 5.3125 C3.21934639 4.25485159 1.58494577 3.16092891 0 2 C0 1.34 0 0.68 0 0 Z " fill="#80877C" transform="translate(54,83)"/>
<path d="M0 0 C5.93002267 -0.37851209 10.47239641 0.89424625 16 3 C16 4.98 16 6.96 16 9 C14.68 9.33 13.36 9.66 12 10 C11.34 8.35 10.68 6.7 10 5 C7.03 5 4.06 5 1 5 C1 4.34 1 3.68 1 3 C0.34 3 -0.32 3 -1 3 C-0.67 2.01 -0.34 1.02 0 0 Z " fill="#999D91" transform="translate(88,24)"/>
<path d="M0 0 C3.0625 0.1875 3.0625 0.1875 5.0625 2.1875 C7.04606483 2.90158334 9.04565437 3.57367742 11.0625 4.1875 C10.7325 5.5075 10.4025 6.8275 10.0625 8.1875 C4.86386436 8.49941814 1.44647423 8.11014949 -2.9375 5.1875 C-3.875 3.0625 -3.875 3.0625 -3.9375 1.1875 C-2.9375 0.1875 -2.9375 0.1875 0 0 Z " fill="#A2A599" transform="translate(44.9375,23.8125)"/>
<path d="M0 0 C1.65 0.33 3.3 0.66 5 1 C6.125 5.75 6.125 5.75 5 8 C4.77141886 10.0374763 4.58975722 12.08040303 4.4375 14.125 C4.35371094 15.22070312 4.26992188 16.31640625 4.18359375 17.4453125 C4.12300781 18.28835937 4.06242187 19.13140625 4 20 C3.34 19.67 2.68 19.34 2 19 C1.11328125 16.015625 1.11328125 16.015625 0.3125 12.25 C-0.09548828 10.40148437 -0.09548828 10.40148437 -0.51171875 8.515625 C-0.96515396 5.25089146 -0.89155218 3.13539156 0 0 Z " fill="#707520" transform="translate(31,19)"/>
<path d="M0 0 C2.39614126 -0.05425226 4.79103853 -0.09379027 7.1875 -0.125 C8.19780273 -0.15013672 8.19780273 -0.15013672 9.22851562 -0.17578125 C13.28807807 -0.21538674 16.34998815 0.19979998 20 2 C16.24986585 4.50008943 13.27488094 4.29601996 8.9375 4.25 C8.20466797 4.25773437 7.47183594 4.26546875 6.71679688 4.2734375 C1.25336982 4.25336982 1.25336982 4.25336982 -1 2 C-0.67 1.34 -0.34 0.68 0 0 Z " fill="#A6A89B" transform="translate(39,96)"/>
<path d="M0 0 C0.103125 0.639375 0.20625 1.27875 0.3125 1.9375 C0.539375 2.618125 0.76625 3.29875 1 4 C1.99 4.33 2.98 4.66 4 5 C5.47666292 8.49029418 5.07164685 12.27436386 5 16 C4.01 16 3.02 16 2 16 C-2.1716037 20.1716037 -6.61731407 24.87702516 -7 31 C-7.33 31 -7.66 31 -8 31 C-8.31245735 26.41729218 -7.92744156 24.49041109 -5 21 C-4.71125 20.154375 -4.4225 19.30875 -4.125 18.4375 C-2.69176511 15.33215773 -1.0041608 14.5020804 2 13 C1.50243908 10.24358584 1.50243908 10.24358584 0 8 C-0.14115161 5.32941149 -0.04247107 2.67567762 0 0 Z " fill="#D8D4BD" transform="translate(31,36)"/>
<path d="M0 0 C0.33 0.99 0.66 1.98 1 3 C-0.74873134 6.29568598 -2.11513857 8.4877118 -5.375 10.375 C-8.33154419 11.07893909 -10.97121241 11.14087384 -14 11 C-13.34 9.35 -12.68 7.7 -12 6 C-9.69 6 -7.38 6 -5 6 C-5 4.35 -5 2.7 -5 1 C-3.35 0.67 -1.7 0.34 0 0 Z " fill="#DDB514" transform="translate(80,52)"/>
<path d="M0 0 C2.97 0 5.94 0 9 0 C13 7.5 13 7.5 13 12 C12.34 12 11.68 12 11 12 C10.855625 11.21625 10.71125 10.4325 10.5625 9.625 C9.28463143 6.84843237 9.28463143 6.84843237 6.86328125 6.22265625 C4.58025309 5.73164391 2.31304073 5.31887599 0 5 C0 3.35 0 1.7 0 0 Z " fill="#A7A24D" transform="translate(62,63)"/>
<path d="M0 0 C2.99969504 0.86833277 4.6146705 1.42200576 6.375 4.0625 C7.24381349 8.1459234 6.8337535 11.92387179 6 16 C4.12274106 17.87725894 1.07149693 17.21702304 -1.4375 17.25 C-2.61183594 17.27578125 -3.78617187 17.3015625 -4.99609375 17.328125 C-5.98738281 17.21984375 -6.97867188 17.1115625 -8 17 C-8.66 16.01 -9.32 15.02 -10 14 C-8.906875 14.020625 -7.81375 14.04125 -6.6875 14.0625 C-3.05615809 14.18544452 -3.05615809 14.18544452 0 13 C0.99 13.33 1.98 13.66 3 14 C4.78353347 9.76714833 4.78353347 9.76714833 4.3125 5.3125 C3.07241486 3.12758809 1.89231395 1.63427114 0 0 Z " fill="#DDDACE" transform="translate(87,92)"/>
<path d="M0 0 C1.84499398 1.87617698 3.3683599 3.92737609 5 6 C4.01 6 3.02 6 2 6 C1.67 7.32 1.34 8.64 1 10 C0.773125 9.38125 0.54625 8.7625 0.3125 8.125 C-1.4628632 5.25060243 -2.73488994 4.79813802 -6 4 C-9.72471396 4.30514002 -9.72471396 4.30514002 -13 5 C-11.125 1.125 -11.125 1.125 -10 0 C-3.57142857 -1.19047619 -3.57142857 -1.19047619 0 0 Z " fill="#C6C6BD" transform="translate(71,20)"/>
<path d="M0 0 C2.10388569 -0.05402274 4.20816714 -0.09280256 6.3125 -0.125 C8.07013672 -0.15980469 8.07013672 -0.15980469 9.86328125 -0.1953125 C13 0 13 0 16 2 C14.08896626 6.69071918 10.9584633 10.1346325 6.3125 12.1875 C5.549375 12.455625 4.78625 12.72375 4 13 C3.34 13.66 2.68 14.32 2 15 C2.3125 13.0625 2.3125 13.0625 3 11 C3.99 10.67 4.98 10.34 6 10 C6.33 9.34 6.66 8.68 7 8 C7.99 7.67 8.98 7.34 10 7 C10.66 6.01 11.32 5.02 12 4 C8.7 3.67 5.4 3.34 2 3 C2 2.34 2 1.68 2 1 C1.34 0.67 0.68 0.34 0 0 Z " fill="#E0D8B5" transform="translate(29,75)"/>
<path d="M0 0 C1.32 0 2.64 0 4 0 C4.2475 0.804375 4.495 1.60875 4.75 2.4375 C5.1625 3.283125 5.575 4.12875 6 5 C8.02463255 5.65213292 8.02463255 5.65213292 10 6 C10.33 6.99 10.66 7.98 11 9 C10.19304687 8.69320312 9.38609375 8.38640625 8.5546875 8.0703125 C4.40761731 6.82163422 0.41928678 6.31898558 -3.875 5.875 C-5.050625 5.74544922 -5.050625 5.74544922 -6.25 5.61328125 C-8.16603159 5.4029851 -10.0829366 5.20067256 -12 5 C-9 3 -9 3 -5.4375 3.0625 C-3.7359375 3.0315625 -3.7359375 3.0315625 -2 3 C-1.34 2.01 -0.68 1.02 0 0 Z " fill="#C4C5BB" transform="translate(68,97)"/>
<path d="M0 0 C0.33 1.32 0.66 2.64 1 4 C1.66 4 2.32 4 3 4 C3 7.96 3 11.92 3 16 C2.34 16 1.68 16 1 16 C-3.03315964 10.01136902 -3.03315964 10.01136902 -2.875 5.1875 C-2 2 -2 2 0 0 Z " fill="#B5B6AB" transform="translate(26,60)"/>
<path d="M0 0 C0 0.66 0 1.32 0 2 C-2.64 2.33 -5.28 2.66 -8 3 C-8.33 3.99 -8.66 4.98 -9 6 C-9.66 6 -10.32 6 -11 6 C-11.05416188 7.60379341 -11.09286638 9.20811406 -11.125 10.8125 C-11.14820312 11.70582031 -11.17140625 12.59914063 -11.1953125 13.51953125 C-11.18285827 16.25402714 -11.18285827 16.25402714 -9 19 C-7.02252878 19.36297936 -7.02252878 19.36297936 -4.875 19.1875 C-3.59625 19.125625 -2.3175 19.06375 -1 19 C-3.4443896 21.4443896 -4.55383944 21.91985673 -8 22 C-10.8125 20.1875 -10.8125 20.1875 -13 17 C-13.92520628 12.12671518 -13.76389534 8.30953487 -11.25 4 C-7.46724727 0.63755313 -5.08232489 -0.28235138 0 0 Z " fill="#E8D78A" transform="translate(99,65)"/>
<path d="M0 0 C0.66 0.66 1.32 1.32 2 2 C0.44033782 2.508783 -1.12289241 3.00663469 -2.6875 3.5 C-3.99267578 3.91765625 -3.99267578 3.91765625 -5.32421875 4.34375 C-7.99391677 4.99850805 -10.26396684 5.11831495 -13 5 C-12.4375 3.125 -12.4375 3.125 -11 1 C-7.15391594 -0.49569935 -3.91701403 -1.74089512 0 0 Z " fill="#F9F7F4" transform="translate(48,91)"/>
<path d="M0 0 C4.40114397 0.50298788 6.71195019 2.08772731 10 5 C4.61526763 5.97904225 -0.54139262 6 -6 6 C-5.38125 5.7525 -4.7625 5.505 -4.125 5.25 C-1.64931313 3.79371361 -1.04874998 2.62187494 0 0 Z " fill="#EAE6D9" transform="translate(47,85)"/>
<path d="M0 0 C0.66 0 1.32 0 2 0 C2 3.3 2 6.6 2 10 C0.35 10.33 -1.3 10.66 -3 11 C-2.25 3.375 -2.25 3.375 0 0 Z " fill="#DFDBC8" transform="translate(70,72)"/>
<path d="M0 0 C2.375 0.1875 2.375 0.1875 5 1 C7.3749472 4.84515262 7.25038007 8.57661871 7 13 C6.67 13.66 6.34 14.32 6 15 C5.34 15 4.68 15 4 15 C4.33 11.04 4.66 7.08 5 3 C3.68 3.99 2.36 4.98 1 6 C0.67 4.02 0.34 2.04 0 0 Z " fill="#A7A46F" transform="translate(67,69)"/>
<path d="M0 0 C0.99 0.33 1.98 0.66 3 1 C3.6875 3.0625 3.6875 3.0625 4 5 C3.071875 5.12375 3.071875 5.12375 2.125 5.25 C-0.18437567 5.81258459 -0.18437567 5.81258459 -1.25 8.0625 C-1.4975 8.701875 -1.745 9.34125 -2 10 C-3.32 9.67 -4.64 9.34 -6 9 C-5.34 7.68 -4.68 6.36 -4 5 C-2.68 5 -1.36 5 0 5 C0 3.35 0 1.7 0 0 Z " fill="#E5C53F" transform="translate(89,52)"/>
<path d="M0 0 C0.33 0.66 0.66 1.32 1 2 C0.67 2.66 0.34 3.32 0 4 C1.11375 3.814375 1.11375 3.814375 2.25 3.625 C5 4 5 4 7.1875 6.8125 C7.785625 7.864375 8.38375 8.91625 9 10 C9.99 11.485 9.99 11.485 11 13 C7.70479406 12.02034418 6.31333986 11.54493889 4.5625 8.5 C2.52131033 5.23409653 0.65117248 4.89250883 -3 4 C-2.67 3.01 -2.34 2.02 -2 1 C-1.34 0.67 -0.68 0.34 0 0 Z " fill="#A8A24B" transform="translate(70,83)"/>
<path d="M0 0 C2.0625 0.4375 2.0625 0.4375 4 1 C3.42655063 3.86724686 3.1385485 4.8614515 1 7 C-1.125 6.625 -1.125 6.625 -3 6 C-1.125 1.125 -1.125 1.125 0 0 Z " fill="#7C8266" transform="translate(89,33)"/>
<path d="M0 0 C2.93880371 1.4478383 5.58537261 2.75189863 8 5 C8.75 7.6875 8.75 7.6875 9 10 C8.01 10.495 8.01 10.495 7 11 C7 10.34 7 9.68 7 9 C6.01 8.67 5.02 8.34 4 8 C2.83203125 6.15234375 2.83203125 6.15234375 1.8125 3.9375 C1.46832031 3.20402344 1.12414062 2.47054687 0.76953125 1.71484375 C0.51558594 1.14894531 0.26164062 0.58304687 0 0 Z " fill="#E6CF6C" transform="translate(84,91)"/>
<path d="M0 0 C0 0.99 0 1.98 0 3 C-3.15506142 3.93619813 -5.96586502 4.1057123 -9.25 4.0625 C-10.14203125 4.05347656 -11.0340625 4.04445313 -11.953125 4.03515625 C-12.62859375 4.02355469 -13.3040625 4.01195313 -14 4 C-14.33 3.34 -14.66 2.68 -15 2 C-13.2508503 1.66223316 -11.50063855 1.32996329 -9.75 1 C-8.77546875 0.814375 -7.8009375 0.62875 -6.796875 0.4375 C-4 0 -4 0 0 0 Z " fill="#DDB514" transform="translate(47,71)"/>
<path d="M0 0 C0.66 0 1.32 0 2 0 C1.9375 3.3125 1.9375 3.3125 1 7 C-2.52574734 8.99570604 -6.0330328 10.20660656 -10 11 C-9.4375 9.0625 -9.4375 9.0625 -8 7 C-4.375 6.25 -4.375 6.25 -1 6 C-0.67 4.02 -0.34 2.04 0 0 Z " fill="#E4E1D4" transform="translate(104,28)"/>
<path d="M0 0 C1.98 0 3.96 0 6 0 C6.33 1.98 6.66 3.96 7 6 C4.625 5.8125 4.625 5.8125 2 5 C0.6875 2.4375 0.6875 2.4375 0 0 Z " fill="#707520" transform="translate(48,63)"/>
<path d="M0 0 C0.66 0.33 1.32 0.66 2 1 C2 1.66 2 2.32 2 3 C2.86625 3.37125 2.86625 3.37125 3.75 3.75 C6.3002997 5.16683317 8.01785701 6.87627537 10 9 C9.67 9.99 9.34 10.98 9 12 C8.29875 11.278125 7.5975 10.55625 6.875 9.8125 C4.07229255 7.00176187 1.07737208 4.50483774 -2 2 C-1.34 1.34 -0.68 0.68 0 0 Z " fill="#DBD8CB" transform="translate(99,43)"/>
<path d="M0 0 C0.66 0.66 1.32 1.32 2 2 C2.66 1.67 3.32 1.34 4 1 C3.62403791 3.78211944 3.32681541 5.5879284 1.5625 7.8125 C0 9 0 9 -2 9 C-1.125 1.125 -1.125 1.125 0 0 Z " fill="#E8D88E" transform="translate(29,55)"/>
<path d="M0 0 C1.32 1.32 2.64 2.64 4 4 C1.02819057 5.89865603 -1.51460083 7.35455571 -5 8 C-3.375 2.25 -3.375 2.25 0 0 Z " fill="#BBBCB2" transform="translate(34,50)"/>
<path d="M0 0 C0.66 0.33 1.32 0.66 2 1 C1.67 2.32 1.34 3.64 1 5 C3.88575819 4.60196439 4.82189513 4.20990931 6.75 1.9375 C7.1625 1.298125 7.575 0.65875 8 0 C8.1875 2.375 8.1875 2.375 8 5 C4.5647952 7.29013653 3.014669 7.17842973 -1 7 C-1.625 4.625 -1.625 4.625 -2 2 C-1.34 1.34 -0.68 0.68 0 0 Z " fill="#B8B9AE" transform="translate(86,34)"/>
<path d="M0 0 C1.175625 0.0825 2.35125 0.165 3.5625 0.25 C4.2225 1.24 4.8825 2.23 5.5625 3.25 C4.64017578 3.34087891 4.64017578 3.34087891 3.69921875 3.43359375 C2.89097656 3.51738281 2.08273438 3.60117187 1.25 3.6875 C0.44949219 3.76871094 -0.35101563 3.84992187 -1.17578125 3.93359375 C-3.59837179 4.20265693 -3.59837179 4.20265693 -6.4375 5.25 C-4.03932371 0.293769 -4.03932371 0.293769 0 0 Z " fill="#A6A89B" transform="translate(64.4375,19.75)"/>
<path d="M0 0 C0.66 0.66 1.32 1.32 2 2 C-1.61328125 6.6875 -1.61328125 6.6875 -3 8 C-6 8 -6 8 -8 7 C-5.78972846 3.62642766 -3.53600465 1.91135386 0 0 Z " fill="#F6F3EE" transform="translate(91,62)"/>
<path d="M0 0 C0.66 0 1.32 0 2 0 C2 1.32 2 2.64 2 4 C1.01 4.495 1.01 4.495 0 5 C-2.39561694 8.49360803 -3.77759242 11.95665186 -5 16 C-5.33 16 -5.66 16 -6 16 C-6.31245735 11.41729218 -5.92744156 9.49041109 -3 6 C-2.30686092 4.34416775 -1.63525576 2.67889021 -1 1 C-0.67 0.67 -0.34 0.34 0 0 Z " fill="#E6E2D3" transform="translate(29,51)"/>
<path d="M0 0 C0.61875 0.350625 1.2375 0.70125 1.875 1.0625 C2.57625 1.371875 3.2775 1.68125 4 2 C4.66 1.67 5.32 1.34 6 1 C7.5 2.3125 7.5 2.3125 9 4 C9 4.99 9 5.98 9 7 C5 7 5 7 2.25 4.625 C0 2 0 2 0 0 Z " fill="#9E9C5F" transform="translate(83,98)"/>
<path d="M0 0 C0.66 0.33 1.32 0.66 2 1 C1.38125 1.7425 0.7625 2.485 0.125 3.25 C-1.60437281 5.48801188 -2.86106661 7.43739987 -4 10 C-5.65 9.67 -7.3 9.34 -9 9 C-9 8.34 -9 7.68 -9 7 C-7.68 7 -6.36 7 -5 7 C-5 6.34 -5 5.68 -5 5 C-4.34 5 -3.68 5 -3 5 C-2.690625 4.360625 -2.38125 3.72125 -2.0625 3.0625 C-1 1 -1 1 0 0 Z " fill="#E1DED2" transform="translate(60,25)"/>
<path d="M0 0 C-0.33 0.99 -0.66 1.98 -1 3 C-1.99 2.67 -2.98 2.34 -4 2 C-4.2475 2.78375 -4.495 3.5675 -4.75 4.375 C-6.15389099 7.32317108 -7.00675737 7.9024777 -10 9 C-9.484375 8.4225 -8.96875 7.845 -8.4375 7.25 C-6.73494807 5.12172477 -6.73494807 5.12172477 -7.3125 2.75 C-7.539375 2.1725 -7.76625 1.595 -8 1 C-4.93251126 -0.86240388 -3.40254489 -1.2151946 0 0 Z " fill="#A6A57E" transform="translate(51,74)"/>
<path d="M0 0 C2.31 0 4.62 0 7 0 C6.67 1.65 6.34 3.3 6 5 C4.35 4.67 2.7 4.34 1 4 C0.67 2.68 0.34 1.36 0 0 Z " fill="#707520" transform="translate(59,75)"/>
<path d="M0 0 C2.2477975 2.05233685 3.0022242 3.00667261 4 6 C4.06740865 7.56118428 4.08514456 9.1250252 4.0625 10.6875 C4.05347656 11.49574219 4.04445313 12.30398437 4.03515625 13.13671875 C4.02355469 13.75160156 4.01195312 14.36648437 4 15 C2.35 15.33 0.7 15.66 -1 16 C-0.484375 15.67 0.03125 15.34 0.5625 15 C2.40414426 12.88413272 2.40414426 12.88413272 1.75 9.125 C1.51859615 7.74674848 1.26946149 6.37131889 1 5 C0.814375 4.01 0.62875 3.02 0.4375 2 C0.293125 1.34 0.14875 0.68 0 0 Z " fill="#E8D88E" transform="translate(37,37)"/>
<path d="M0 0 C2.0625 0.4375 2.0625 0.4375 4 1 C4.33 2.32 4.66 3.64 5 5 C3.68 5.33 2.36 5.66 1 6 C0.34 4.35 -0.32 2.7 -1 1 C-0.67 0.67 -0.34 0.34 0 0 Z " fill="#A3A598" transform="translate(65,32)"/>
<path d="M0 0 C2.4375 0.375 2.4375 0.375 5 1 C5.33 1.66 5.66 2.32 6 3 C5.01 3.99 4.02 4.98 3 6 C2.01 5.34 1.02 4.68 0 4 C0 2.68 0 1.36 0 0 Z " fill="#707520" transform="translate(61,50)"/>
<path d="M0 0 C0.99 0 1.98 0 3 0 C3.33 0.66 3.66 1.32 4 2 C7.3 2 10.6 2 14 2 C13.67 2.66 13.34 3.32 13 4 C11.39592672 4.02708567 9.7917215 4.04643483 8.1875 4.0625 C6.84751953 4.07990234 6.84751953 4.07990234 5.48046875 4.09765625 C3 4 3 4 0 3 C0 2.01 0 1.02 0 0 Z " fill="#CAB749" transform="translate(29,72)"/>
<path d="M0 0 C0.99 0.495 0.99 0.495 2 1 C4.04055005 1.07065617 6.08334257 1.08421976 8.125 1.0625 C9.22070312 1.05347656 10.31640625 1.04445313 11.4453125 1.03515625 C12.28835937 1.02355469 13.13140625 1.01195313 14 1 C13.67 1.66 13.34 2.32 13 3 C8.973409 3.77434442 5.09613971 4.12412545 1 4 C0.67 2.68 0.34 1.36 0 0 Z " fill="#E8D88E" transform="translate(28,68)"/>
<path d="M0 0 C0.33 0.66 0.66 1.32 1 2 C3.64 2 6.28 2 9 2 C9 2.33 9 2.66 9 3 C7.02 3.33 5.04 3.66 3 4 C3 4.99 3 5.98 3 7 C1.35 7 -0.3 7 -2 7 C-1.34 4.69 -0.68 2.38 0 0 Z " fill="#C6C6BD" transform="translate(39,21)"/>
<path d="M0 0 C2.4375 0.8125 2.4375 0.8125 5 2 C5.33 2.99 5.66 3.98 6 5 C3.03 4.505 3.03 4.505 0 4 C0 2.68 0 1.36 0 0 Z " fill="#80877C" transform="translate(76,99)"/>
<path d="M0 0 C-3 2 -3 2 -6.1875 1.625 C-7.115625 1.41875 -8.04375 1.2125 -9 1 C-9 0.34 -9 -0.32 -9 -1 C-5.23375329 -2.25541557 -3.62811066 -1.37061958 0 0 Z " fill="#80877C" transform="translate(59,98)"/>
<path d="M0 0 C1.65 0 3.3 0 5 0 C2.40266726 2.87561839 0.78654518 4.24269096 -3 5 C-3.66 5.66 -4.32 6.32 -5 7 C-4.6875 5.0625 -4.6875 5.0625 -4 3 C-3.01 2.67 -2.02 2.34 -1 2 C-0.67 1.34 -0.34 0.68 0 0 Z " fill="#C5C5B9" transform="translate(36,83)"/>
<path d="M0 0 C-0.33 1.32 -0.66 2.64 -1 4 C-2.65 4.33 -4.3 4.66 -6 5 C-3.74193548 0 -3.74193548 0 0 0 Z " fill="#707520" transform="translate(30,94)"/>
<path d="M0 0 C2.5 1.3125 2.5 1.3125 5 3 C5 3.99 5 4.98 5 6 C3.68 5.67 2.36 5.34 1 5 C0.505 2.525 0.505 2.525 0 0 Z " fill="#CBCAC1" transform="translate(51,73)"/>
<path d="M0 0 C0.66 0.33 1.32 0.66 2 1 C2 1.99 2 2.98 2 4 C-1.33333333 7 -1.33333333 7 -4 7 C-2.92598892 4.08482708 -2.22189824 2.22189824 0 0 Z " fill="#A7A253" transform="translate(85,47)"/>
<path d="M0 0 C1.134375 0.020625 2.26875 0.04125 3.4375 0.0625 C3.7675 0.7225 4.0975 1.3825 4.4375 2.0625 C1.0625 2.6875 1.0625 2.6875 -2.5625 3.0625 C-3.2225 2.4025 -3.8825 1.7425 -4.5625 1.0625 C-3.5625 0.0625 -3.5625 0.0625 0 0 Z " fill="#80877C" transform="translate(42.5625,96.9375)"/>
<path d="M0 0 C0.66 0 1.32 0 2 0 C2 2.64 2 5.28 2 8 C1.34 6.68 0.68 5.36 0 4 C-0.66 4.99 -1.32 5.98 -2 7 C-1.125 1.125 -1.125 1.125 0 0 Z " fill="#C6C6BD" transform="translate(70,72)"/>
<path d="M0 0 C2.475 0.495 2.475 0.495 5 1 C5 1.66 5 2.32 5 3 C3 4.625 3 4.625 1 6 C0.67 4.02 0.34 2.04 0 0 Z " fill="#E8D275" transform="translate(67,69)"/>
<path d="M0 0 C-1.6875 1.5625 -1.6875 1.5625 -4 3 C-6.75 2.6875 -6.75 2.6875 -9 2 C-5.5647952 -0.29013653 -4.014669 -0.17842973 0 0 Z " fill="#A8A24B" transform="translate(83,60)"/>
<path d="M0 0 C0.66 0 1.32 0 2 0 C2.66 1.98 3.32 3.96 4 6 C2.68 6 1.36 6 0 6 C-1.125 2.25 -1.125 2.25 0 0 Z " fill="#A8A24B" transform="translate(59,50)"/>
</svg>
