<?xml version="1.0" encoding="UTF-8"?>
<svg version="1.1" xmlns="http://www.w3.org/2000/svg" width="128" height="128">
<path d="M0 0 C42.24 0 84.48 0 128 0 C128 42.24 128 84.48 128 128 C85.76 128 43.52 128 0 128 C0 85.76 0 43.52 0 0 Z " fill="#030203" transform="translate(0,0)"/>
<path d="M0 0 C10.03287069 -0.40626061 18.86434661 3.20918705 26.84375 9.16015625 C35.70955866 17.49125661 41.63168283 27.88180883 42.34375 40.16015625 C42.06126001 48.33952563 37.49569749 54.88427062 32.2734375 60.8828125 C30.84375 62.16015625 30.84375 62.16015625 27.84375 63.16015625 C25.16679235 59.19429306 23.88845843 55.26213366 22.78125 50.66015625 C21.72346922 46.36955953 20.60376388 42.22774387 18.84375 38.16015625 C17.52375 38.16015625 16.20375 38.16015625 14.84375 38.16015625 C14.80507812 39.17722656 14.80507812 39.17722656 14.765625 40.21484375 C13.93129134 53.90550058 8.75358851 62.05659301 -1.37890625 71.15625 C-5.15702998 74.21405856 -5.15702998 74.21405856 -7.15625 75.16015625 C-9.38671875 74.8046875 -9.38671875 74.8046875 -11.15625 74.16015625 C-11.011875 73.56074219 -10.8675 72.96132812 -10.71875 72.34375 C-8.47235126 61.37695616 -8.97217272 50.30107976 -9.15625 39.16015625 C-11.23178648 38.60667985 -12.99990964 38.16015625 -15.15625 38.16015625 C-15.23101562 39.21074219 -15.30578125 40.26132813 -15.3828125 41.34375 C-16.54574613 54.74783801 -20.64126927 61.22325096 -30.59375 70.41015625 C-33.52094561 72.40921666 -35.64236336 72.92057307 -39.15625 73.16015625 C-41.80304364 70.51336261 -40.40431884 63.0586679 -40.41601562 59.50927734 C-40.3487415 51.41180202 -39.49749076 43.56190066 -38.22363281 35.5715332 C-36.34514677 25.91017366 -36.34514677 25.91017366 -39.28125 17.03515625 C-41.15625 14.16015625 -41.15625 14.16015625 -40.59375 10.97265625 C-38.31887136 6.52180674 -38.31887136 6.52180674 -36.15625 5.16015625 C-33.46875 5.47265625 -33.46875 5.47265625 -31.15625 6.16015625 C-30.49625 8.14015625 -29.83625 10.12015625 -29.15625 12.16015625 C-25.75166294 10.2909712 -22.65454891 8.57125285 -19.65625 6.09765625 C-13.64105988 1.43588391 -7.33256024 0.54462857 0 0 Z " fill="#F8F8F8" transform="translate(61.15625,26.83984375)"/>
<path d="M0 0 C0.80759766 -0.01611328 1.61519531 -0.03222656 2.44726562 -0.04882812 C10.66863015 -0.05545292 16.91705248 2.36376248 23.5625 7.3125 C24.37654297 7.90804687 24.37654297 7.90804687 25.20703125 8.515625 C35.02098046 16.22500271 40.6927623 26.50457765 43.0078125 38.6484375 C43.67530108 46.68732176 39.20051858 53.96533664 34.3828125 60.078125 C32.49395013 62.21569879 30.57411871 64.29067003 28.5625 66.3125 C26.75 66.125 26.75 66.125 24.5625 65.3125 C21.65202848 61.57636279 20.86053438 57.84771224 20 53.25 C18.99249162 47.5224441 18.99249162 47.5224441 16.5625 42.3125 C15.5725 41.8175 15.5725 41.8175 14.5625 41.3125 C14.62050781 42.00214844 14.67851563 42.69179687 14.73828125 43.40234375 C15.22654533 53.572187 11.7967014 58.9280484 5.25 66.4375 C3.70407818 68.07827938 2.14193898 69.70395913 0.5625 71.3125 C-0.13488281 72.034375 -0.83226562 72.75625 -1.55078125 73.5 C-6.97397138 78.72311127 -6.97397138 78.72311127 -11.4375 78.75 C-12.4275 78.605625 -13.4175 78.46125 -14.4375 78.3125 C-14.68862388 71.78327922 -14.68862388 71.78327922 -13.45556641 69.47167969 C-12.09868217 66.59391369 -12.11326362 64.18948116 -12.0234375 61.015625 C-11.98476563 59.81035156 -11.94609375 58.60507813 -11.90625 57.36328125 C-11.85984375 55.48189453 -11.85984375 55.48189453 -11.8125 53.5625 C-11.77382813 52.29277344 -11.73515625 51.02304688 -11.6953125 49.71484375 C-11.60105778 46.5808743 -11.51544834 43.44691051 -11.4375 40.3125 C-14.55535113 40.95894661 -14.55535113 40.95894661 -15.4375 43.3125 C-15.48648438 44.32054687 -15.53546875 45.32859375 -15.5859375 46.3671875 C-16.16687512 56.16299775 -18.55131696 60.85844656 -25.515625 67.7265625 C-26.96195313 69.00660156 -26.96195313 69.00660156 -28.4375 70.3125 C-28.9526416 70.77970459 -29.4677832 71.24690918 -29.99853516 71.72827148 C-33.78247456 75.05806692 -36.38777562 76.00951654 -41.4375 76.3125 C-43.47131774 73.26177338 -43.69237271 72.64046896 -43.703125 69.20703125 C-43.70715332 68.39621094 -43.71118164 67.58539063 -43.71533203 66.75 C-43.70614746 65.88375 -43.69696289 65.0175 -43.6875 64.125 C-43.68218262 63.23167969 -43.67686523 62.33835938 -43.67138672 61.41796875 C-43.5115045 50.05216416 -41.938259 38.98842304 -39.609375 27.86328125 C-39.33421716 23.77968879 -40.8844033 21.13190251 -43.125 17.8125 C-44.4375 15.3125 -44.4375 15.3125 -44.25390625 12.8984375 C-43.27948441 9.8119913 -42.10793249 8.55765327 -39.6875 6.4375 C-39.01203125 5.82132813 -38.3365625 5.20515625 -37.640625 4.5703125 C-35.4375 3.3125 -35.4375 3.3125 -32.671875 3.6171875 C-31.93453125 3.84664062 -31.1971875 4.07609375 -30.4375 4.3125 C-30.1075 5.9625 -29.7775 7.6125 -29.4375 9.3125 C-24.72500402 9.017969 -22.14984677 6.72656932 -18.6953125 3.78515625 C-12.94348346 0.03353074 -6.62852248 -0.02632455 0 0 Z M-25.25 10.5625 C-27.4375 12.3125 -27.4375 12.3125 -30.4375 13.3125 C-31.0975 11.3325 -31.7575 9.3525 -32.4375 7.3125 C-34.0875 6.9825 -35.7375 6.6525 -37.4375 6.3125 C-41.14326315 10.29752949 -41.14326315 10.29752949 -42.4375 15.3125 C-41.798125 16.22 -41.15875 17.1275 -40.5 18.0625 C-36.4536855 24.43851072 -38.80321958 32.3272955 -39.9375 39.4375 C-41.63395109 50.76075331 -41.76314223 61.8866325 -41.4375 73.3125 C-38.46320886 74.22565956 -37.04308663 74.62813261 -34.2265625 73.16015625 C-24.90373776 65.46966725 -18.63731749 59.35506886 -17.3125 47.0625 C-17.22613281 46.31742188 -17.13976562 45.57234375 -17.05078125 44.8046875 C-16.83963133 42.97472154 -16.63765455 41.14370121 -16.4375 39.3125 C-14.77138095 39.269779 -13.10367115 39.27186168 -11.4375 39.3125 C-9.4185052 41.3314948 -10.26771826 45.26871382 -10.24804688 47.97241211 C-10.24869141 49.01276611 -10.24933594 50.05312012 -10.25 51.125 C-10.24935547 52.16986572 -10.24871094 53.21473145 -10.24804688 54.29125977 C-10.29736636 61.49582757 -10.74502655 68.28571293 -12.4375 75.3125 C-10.71469442 76.1802245 -10.71469442 76.1802245 -8.4375 76.3125 C0.34634908 70.95879106 8.79290911 62.45239508 12.07421875 52.5078125 C13.04071287 48.16245492 13.32598095 43.74927107 13.5625 39.3125 C14.8825 39.3125 16.2025 39.3125 17.5625 39.3125 C19.92004516 44.66858186 21.20721484 50.32135668 22.61914062 55.98242188 C22.82603516 56.76552734 23.03292969 57.54863281 23.24609375 58.35546875 C23.42712646 59.06727295 23.60815918 59.77907715 23.79467773 60.51245117 C24.52689197 62.68431807 24.52689197 62.68431807 27.5625 64.3125 C33.9519803 59.7485855 38.15408643 53.79125793 40.5625 46.3125 C42.01458045 36.14793686 38.58069913 26.81369334 32.875 18.5 C26.27669206 10.01995239 18.33160961 4.64323288 8.0625 1.5625 C-4.89667919 0.26658208 -15.05169065 2.40385252 -25.25 10.5625 Z " fill="#515151" transform="translate(62.4375,25.6875)"/>
<path d="M0 0 C10.03287069 -0.40626061 18.86434661 3.20918705 26.84375 9.16015625 C35.70955866 17.49125661 41.63168283 27.88180883 42.34375 40.16015625 C42.06126001 48.33952563 37.49569749 54.88427062 32.2734375 60.8828125 C30.84375 62.16015625 30.84375 62.16015625 27.84375 63.16015625 C25.16679235 59.19429306 23.88845843 55.26213366 22.78125 50.66015625 C21.72346922 46.36955953 20.60376388 42.22774387 18.84375 38.16015625 C17.52375 38.16015625 16.20375 38.16015625 14.84375 38.16015625 C14.80507812 39.17722656 14.80507812 39.17722656 14.765625 40.21484375 C13.93129134 53.90550058 8.75358851 62.05659301 -1.37890625 71.15625 C-5.15702998 74.21405856 -5.15702998 74.21405856 -7.15625 75.16015625 C-9.38671875 74.8046875 -9.38671875 74.8046875 -11.15625 74.16015625 C-11.011875 73.56074219 -10.8675 72.96132812 -10.71875 72.34375 C-8.47235126 61.37695616 -8.97217272 50.30107976 -9.15625 39.16015625 C-11.23178648 38.60667985 -12.99990964 38.16015625 -15.15625 38.16015625 C-15.23101562 39.21074219 -15.30578125 40.26132813 -15.3828125 41.34375 C-16.54574613 54.74783801 -20.64126927 61.22325096 -30.59375 70.41015625 C-33.52094561 72.40921666 -35.64236336 72.92057307 -39.15625 73.16015625 C-41.80304364 70.51336261 -40.40431884 63.0586679 -40.41601562 59.50927734 C-40.3487415 51.41180202 -39.49749076 43.56190066 -38.22363281 35.5715332 C-36.34514677 25.91017366 -36.34514677 25.91017366 -39.28125 17.03515625 C-41.15625 14.16015625 -41.15625 14.16015625 -40.59375 10.97265625 C-38.31887136 6.52180674 -38.31887136 6.52180674 -36.15625 5.16015625 C-33.46875 5.47265625 -33.46875 5.47265625 -31.15625 6.16015625 C-30.49625 8.14015625 -29.83625 10.12015625 -29.15625 12.16015625 C-25.75166294 10.2909712 -22.65454891 8.57125285 -19.65625 6.09765625 C-13.64105988 1.43588391 -7.33256024 0.54462857 0 0 Z M-32.15625 17.16015625 C-31.97191406 16.21914063 -31.78757812 15.278125 -31.59765625 14.30859375 C-31.1317041 10.98507666 -31.36471555 9.90015011 -33.15625 7.16015625 C-35.85003161 8.14787617 -37.03402009 8.98903438 -38.71875 11.34765625 C-39.47516226 14.07817481 -39.47516226 14.07817481 -38.08984375 15.69140625 C-37.61675781 16.23796875 -37.14367187 16.78453125 -36.65625 17.34765625 C-34.11346586 20.5784299 -34.11346586 20.5784299 -34.29248047 23.01245117 C-34.49244629 23.71474854 -34.69241211 24.4170459 -34.8984375 25.140625 C-36.10507946 30.30863274 -36.60982657 35.38938717 -37.0078125 40.66796875 C-37.07252747 41.5245961 -37.13724243 42.38122345 -37.20391846 43.2638092 C-37.40101277 45.93727568 -37.59128449 48.61117473 -37.78125 51.28515625 C-37.91609515 53.11853171 -38.05150697 54.95186558 -38.1875 56.78515625 C-38.5169568 61.24303661 -38.83872268 65.70141095 -39.15625 70.16015625 C-38.16625 70.82015625 -37.17625 71.48015625 -36.15625 72.16015625 C-28.75136925 66.74636566 -21.3486475 61.06526507 -18.15625 52.16015625 C-17.88345714 49.08917001 -17.71898533 46.04748729 -17.66015625 42.96484375 C-17.03498096 39.48518595 -15.94645098 38.27193542 -13.15625 36.16015625 C-10.40625 36.41015625 -10.40625 36.41015625 -8.15625 37.16015625 C-6.8375598 41.11622685 -6.96554442 44.91077749 -6.96875 49.03515625 C-6.96810547 49.88053955 -6.96746094 50.72592285 -6.96679688 51.59692383 C-7.02531301 58.61021528 -7.77174775 65.2747299 -9.15625 72.16015625 C-3.34872887 72.16015625 -0.76885539 68.78849892 3.21484375 64.92578125 C10.65923062 57.09424201 12.16997069 48.48859933 13.84375 38.16015625 C16.31875 37.66515625 16.31875 37.66515625 18.84375 37.16015625 C22.33304445 41.79312341 23.75363864 45.76597866 24.90625 51.41015625 C25.85127859 57.16114471 25.85127859 57.16114471 29.84375 61.16015625 C30.66875 60.21140625 31.49375 59.26265625 32.34375 58.28515625 C32.8078125 57.75148437 33.271875 57.2178125 33.75 56.66796875 C35.03947458 55.20079204 35.03947458 55.20079204 34.84375 53.16015625 C35.50375 53.16015625 36.16375 53.16015625 36.84375 53.16015625 C39.07173609 47.43104917 40.46997236 42.36439633 39.84375 36.16015625 C39.73933594 34.98646484 39.73933594 34.98646484 39.6328125 33.7890625 C38.32283099 24.45908305 32.74108392 17.35007131 25.84375 11.16015625 C24.956875 10.31453125 24.07 9.46890625 23.15625 8.59765625 C14.4418483 1.69602483 4.6342955 1.06906283 -6.08691406 1.90283203 C-16.32871003 3.17641072 -24.44778259 10.84877197 -32.15625 17.16015625 Z " fill="#ABAAAA" transform="translate(61.15625,26.83984375)"/>
<path d="M0 0 C1.98 0 3.96 0 6 0 C5.34 1.65 4.68 3.3 4 5 C2.68 5 1.36 5 0 5 C0 3.35 0 1.7 0 0 Z " fill="#515151" transform="translate(0,0)"/>
</svg>
