<?xml version="1.0" encoding="UTF-8"?>
<svg version="1.1" xmlns="http://www.w3.org/2000/svg" width="128" height="128">
<path d="M0 0 C42.24 0 84.48 0 128 0 C128 42.24 128 84.48 128 128 C85.76 128 43.52 128 0 128 C0 85.76 0 43.52 0 0 Z " fill="#CD9FA2" transform="translate(0,0)"/>
<path d="M0 0 C20.79 0 41.58 0 63 0 C63 42.24 63 84.48 63 128 C47.82 128 32.64 128 17 128 C18.14722984 124.55831047 19.28124636 124.03140325 22.2421875 122.171875 C26.46832494 119.35445004 30.18112331 116.22831503 33 112 C32.65358161 108.53581611 31.96713413 106.95070119 30 104 C30.375 101.3125 30.375 101.3125 31 99 C32.99954746 98.95745644 35.00041636 98.95919217 37 99 C38.96822886 100.96822886 38.66248381 104.34808709 39 107 C42.84258126 106.45105982 44.48280064 104.88737573 47 102 C48.25160651 99.4544007 48.25160651 99.4544007 49.125 96.6875 C49.455 95.72199219 49.785 94.75648437 50.125 93.76171875 C50.83652504 91.51596784 51.50488982 89.27212245 52.125 87 C53 84 53 84 55 81 C55.28085768 77.96666607 55.28085768 77.96666607 55.1875 74.625 C55.18105469 73.50351563 55.17460938 72.38203125 55.16796875 71.2265625 C55.01927314 68.37022363 54.65049095 65.77889734 54 63 C50.43476181 63.61118369 47.33726069 64.62022499 44 66 C44.37511719 65.09121094 44.75023438 64.18242188 45.13671875 63.24609375 C48.8059719 54.27010938 52.08483692 45.25023478 55 36 C55.33386719 34.98679688 55.66773437 33.97359375 56.01171875 32.9296875 C58.77974894 23.93672063 58.07559332 16.48313541 54 8 C52.56348718 4.91125677 52.56348718 4.91125677 50 3 C46.69515626 2.63279514 44.25500434 2.64456849 41 3 C39.8759375 3.11859375 38.751875 3.2371875 37.59375 3.359375 C32.75458346 3.96238554 32.75458346 3.96238554 28 5 C27.34 5.99 26.68 6.98 26 8 C25.01 8 24.02 8 23 8 C23.14433868 9.35432679 23.29056661 10.70845225 23.4375 12.0625 C23.52257812 12.8875 23.60765625 13.7125 23.6953125 14.5625 C23.98449983 17.20513203 23.98449983 17.20513203 24.8125 20.5625 C25.03762734 24.68983458 23.96450884 26.61796503 22 30.14453125 C20.76494212 32.43614255 20.14870213 34.39771264 20 37 C21.70892499 40.31460705 21.70892499 40.31460705 25.125 40.6875 C26.548125 40.8421875 26.548125 40.8421875 28 41 C27.9175 39.7625 27.835 38.525 27.75 37.25 C27.7262052 33.89493302 27.80358323 33.24552096 30 30.5 C30.66 30.005 31.32 29.51 32 29 C33.485 29.495 33.485 29.495 35 30 C34.71926927 32.14729141 34.42511501 34.29283193 34.125 36.4375 C33.96257812 37.63246094 33.80015625 38.82742187 33.6328125 40.05859375 C33.42398438 41.02925781 33.21515625 41.99992187 33 43 C32.01 43.495 32.01 43.495 31 44 C29.45853571 47.88717082 28.06880815 51.80340529 26.6875 55.75 C23.97152178 60.98077287 19.40725564 63.14850622 14.09048462 65.3848877 C9.9749357 66.59586278 5.7911427 66.26371449 1.54296875 66.109375 C0.55879471 66.08530579 -0.42537933 66.06123657 -1.43937683 66.03643799 C-3.50788415 65.98300999 -5.57620951 65.92206355 -7.64428711 65.85400391 C-10.81925914 65.74977812 -13.99420639 65.66780851 -17.16992188 65.58984375 C-19.18232699 65.53513833 -21.19469884 65.47919255 -23.20703125 65.421875 C-24.15906937 65.39575134 -25.11110748 65.36962769 -26.09199524 65.3427124 C-26.97018417 65.31308411 -27.84837311 65.28345581 -28.75317383 65.25292969 C-29.52703934 65.22833679 -30.30090485 65.2037439 -31.09822083 65.17840576 C-33 65 -33 65 -35 64 C-35.08167446 62.58430936 -35.13949698 61.16723195 -35.1875 59.75 C-35.22230469 58.96109375 -35.25710937 58.1721875 -35.29296875 57.359375 C-34.92162729 54.36883843 -34.1411251 53.10840048 -32 51 C-29.73046875 50.34765625 -29.73046875 50.34765625 -27.1875 50.0625 C-21.97233702 49.21987541 -19.78451429 47.60429932 -16 44 C-13.45382823 42.43944311 -11.37245164 41.83485569 -8.4375 41.0625 C-5.16108191 40.04978895 -4.14294583 39.4813057 -2 37 C-1.34 37 -0.68 37 0 37 C0.04898438 36.24074219 0.09796875 35.48148438 0.1484375 34.69921875 C0.22320312 33.70535156 0.29796875 32.71148437 0.375 31.6875 C0.44460937 30.70136719 0.51421875 29.71523438 0.5859375 28.69921875 C1 26 1 26 3 23 C4.72915266 15.56464358 4.88908011 9.68921778 1 3 C0.505 1.515 0.505 1.515 0 0 Z " fill="#F9F8F8" transform="translate(65,0)"/>
<path d="M0 0 C0 2.64 0 5.28 0 8 C-0.639375 8.226875 -1.27875 8.45375 -1.9375 8.6875 C-4.27193661 9.85250896 -4.27193661 9.85250896 -4.75 12.625 C-4.8325 13.40875 -4.915 14.1925 -5 15 C-3.7934375 15.433125 -3.7934375 15.433125 -2.5625 15.875 C0 17 0 17 1 19 C0.67 19.99 0.34 20.98 0 22 C1.67725048 24.87528654 3.30350456 27.35325423 5.75 29.625 C7 31 7 31 7 35 C7.99 35.33 8.98 35.66 10 36 C10.20625 35.236875 10.4125 34.47375 10.625 33.6875 C12.47906633 30.06364309 14.19359805 29.31760067 18 28 C21.06191921 28.23553225 23.26195058 28.63097529 26 30 C26.625 33.0625 26.625 33.0625 27 36 C35.43449924 36.53255558 35.43449924 36.53255558 42.75 33.41015625 C43.91642762 31.28964516 43.91642762 31.28964516 45 28 C48.17878694 26.41060653 50.4956772 26.58423289 54 27 C56.23882525 28.80999553 57.38019991 30.54575744 59 33 C59 33.66 59 34.32 59 35 C59.804375 35.226875 60.60875 35.45375 61.4375 35.6875 C64 37 64 37 64.8125 39.5 C65 42 65 42 65 44 C65.61875 44.268125 66.2375 44.53625 66.875 44.8125 C69 46 69 46 71 49 C70.81192818 54.098836 69.1208372 56.5862752 65.6875 60.25 C64.90761719 61.10078125 64.12773438 61.9515625 63.32421875 62.828125 C61.2259228 64.78888559 59.55846094 65.80266287 57 67 C56.67 67.66 56.34 68.32 56 69 C28.94 69 1.88 69 -26 69 C-26.103125 59.3475 -26.20625 49.695 -26.3125 39.75 C-26.35802002 36.70620117 -26.40354004 33.66240234 -26.45043945 30.52636719 C-26.46504107 28.11654768 -26.4777825 25.70671587 -26.48828125 23.296875 C-26.51386108 22.04342285 -26.53944092 20.7899707 -26.5657959 19.49853516 C-26.56640015 18.30115723 -26.56700439 17.1037793 -26.56762695 15.87011719 C-26.57873001 14.83087097 -26.58983307 13.79162476 -26.60127258 12.72088623 C-25.79199011 9.05871104 -24.0523315 8.02262908 -21 6 C-18.5625 6.625 -18.5625 6.625 -16 8 C-15.1875 11.125 -15.1875 11.125 -15 14 C-15.99 14.495 -15.99 14.495 -17 15 C-17.68729254 17.11846285 -17.68729254 17.11846285 -18.125 19.5625 C-18.29257812 20.38878906 -18.46015625 21.21507813 -18.6328125 22.06640625 C-18.75398438 22.70449219 -18.87515625 23.34257813 -19 24 C-17.32511472 25.73647948 -17.32511472 25.73647948 -15 27 C-12.27102833 26.50845917 -12.27102833 26.50845917 -10 25 C-8.77906313 22.16408762 -8.77906313 22.16408762 -9.4375 19.8125 C-10.7257465 13.37126748 -10.63009649 8.57479104 -7 3 C-4.39070749 0.55378827 -3.62968776 0 0 0 Z " fill="#C2797C" transform="translate(26,59)"/>
<path d="M0 0 C14.52 0 29.04 0 44 0 C38.82233503 9.31979695 38.82233503 9.31979695 34 13 C33.525625 14.03125 33.05125 15.0625 32.5625 16.125 C30.535431 19.85480695 28.89942992 19.70019003 25 21 C23.31668061 23.86656967 23.31668061 23.86656967 22 27 C20.68671343 28.35308313 19.35500919 29.68870078 18 31 C16.23536495 33.69339034 15.97602571 35.27330686 15.6875 38.5625 C15.460625 39.696875 15.23375 40.83125 15 42 C12.5 43.5 12.5 43.5 10 45 C9.58565749 47.32031805 9.25110098 49.65639085 9 52 C8.52820312 52.46277344 8.05640625 52.92554688 7.5703125 53.40234375 C5.01742531 55.9996842 4.69694079 59.26418643 3.84375 62.72265625 C3 65 3 65 0 67 C0 44.89 0 22.78 0 0 Z " fill="#FAF9F9" transform="translate(0,0)"/>
<path d="M0 0 C0.99 0 1.98 0 3 0 C7.24345082 5.61633197 8.53658456 10.0244007 8 17 C7.22783995 20.19159486 6.46718978 23.06562044 5 26 C4.89841313 27.43632545 4.81768573 28.87417829 4.75 30.3125 C4.38298872 34.05481178 4.09076775 34.89061322 1.5625 37.9375 C0.716875 38.618125 -0.12875 39.29875 -1 40 C-1.66 40.66 -2.32 41.32 -3 42 C-4.093125 42.309375 -5.18625 42.61875 -6.3125 42.9375 C-10.90089363 44.25957952 -14.02477235 46.26316133 -17.8125 49.125 C-20.80188488 50.88346169 -21.96704076 51.27160488 -25.25 51.5625 C-26.4875 51.706875 -27.725 51.85125 -29 52 C-31.02350324 55.03525486 -31.32124018 56.19426202 -31.625 59.6875 C-31.69976563 60.49574219 -31.77453125 61.30398437 -31.8515625 62.13671875 C-31.90054687 62.75160156 -31.94953125 63.36648437 -32 64 C-25.52750899 64.29764044 -19.05444712 64.54413656 -12.57861328 64.75683594 C-10.3805842 64.83486484 -8.18292279 64.92416377 -5.98583984 65.02539062 C11.56306006 66.28554995 11.56306006 66.28554995 27 59 C29.16033874 55.76480146 29.16033874 55.76480146 30 52 C30.70622998 50.34419488 31.43623345 48.69836368 32.1875 47.0625 C32.70376953 45.90427734 32.70376953 45.90427734 33.23046875 44.72265625 C33.48441406 44.15417969 33.73835938 43.58570313 34 43 C34.66 43 35.32 43 36 43 C36.33 38.71 36.66 34.42 37 30 C35.68 30.33 34.36 30.66 33 31 C32.01 35.95 32.01 35.95 31 41 C28.1875 41.25 28.1875 41.25 25 41 C23.2265625 39.30078125 23.2265625 39.30078125 22 37 C22.29296875 34.52734375 22.29296875 34.52734375 23.1875 31.9375 C23.61095703 30.65166016 23.61095703 30.65166016 24.04296875 29.33984375 C25 27 25 27 27 24 C26.67211441 20.52441273 26.03388072 17.17617975 25.375 13.75 C25 11 25 11 26 8 C26.99 7.67 27.98 7.34 29 7 C29.66 6.01 30.32 5.02 31 4 C35.25817777 2.85756206 39.62245012 2.47297665 44 2 C44.87398438 1.87882813 45.74796875 1.75765625 46.6484375 1.6328125 C49.89805978 1.35554097 52.03663199 1.34152209 54.77734375 3.21484375 C59.62024575 8.24719913 61.81434161 14.89289169 62.1262207 21.79223633 C61.99621062 25.09630314 61.40011319 27.69902289 60.42578125 30.8515625 C60.08740234 31.95113281 59.74902344 33.05070312 59.40039062 34.18359375 C59.04138672 35.31925781 58.68238281 36.45492187 58.3125 37.625 C57.97283203 38.73746094 57.63316406 39.84992187 57.28320312 40.99609375 C55.1883277 47.72318905 52.77111944 54.19637373 49.94213867 60.64990234 C48.87596485 62.88741129 48.87596485 62.88741129 49 65 C49.556875 64.484375 50.11375 63.96875 50.6875 63.4375 C53 62 53 62 55.75 62.3125 C56.4925 62.539375 57.235 62.76625 58 63 C58.90153011 66.8896662 59.19451372 70.57211187 59.25 74.5625 C59.27578125 75.67753906 59.3015625 76.79257813 59.328125 77.94140625 C58.96109808 81.36262144 58.11961167 82.39743884 56 85 C55.36290323 87.3055133 55.36290323 87.3055133 55.0625 89.75 C53.74045488 97.10793965 51.05309337 103.30885264 45 108 C42.6875 107.8125 42.6875 107.8125 41 107 C40.505 103.535 40.505 103.535 40 100 C38.02 100 36.04 100 34 100 C34.44703986 104.47883696 34.44703986 104.47883696 37 108 C36.82194873 111.38297413 36.21162756 112.76272061 33.9375 115.3125 C33.298125 115.869375 32.65875 116.42625 32 117 C32.350625 116.278125 32.70125 115.55625 33.0625 114.8125 C34.12422955 111.62731135 33.99939075 110.16473738 33 107 C32.34 106.01 31.68 105.02 31 104 C31 101 31 101 32 98 C34 97 36 96 38 95 C39.40019701 92.7143843 40.12994667 90.56182369 41 88 C42.65 88 44.3 88 46 88 C46.75 90.75 46.75 90.75 47 94 C45.68799596 95.35432675 44.35368596 96.68733482 43 98 C42.66551741 101.167832 42.66551741 101.167832 43 104 C45.86724686 103.42655063 46.8614515 103.1385485 49 101 C50.87109052 96.57487091 52.05528245 91.94996983 53 87.25 C53.57727982 84.38333697 53.98746694 83.0181033 55.6875 80.5625 C57.7766619 76.4836601 56.84127973 72.40113933 56 68 C55.67 67.34 55.34 66.68 55 66 C54.195625 66.2165625 54.195625 66.2165625 53.375 66.4375 C50.60084173 67.09453748 47.81474612 67.55219948 45 68 C45.62387596 65.12435244 46.38965622 63.25872341 47.80078125 60.57421875 C50.70079217 54.91703523 52.37414778 48.88535876 54.1875 42.8125 C54.72020508 41.06936523 54.72020508 41.06936523 55.26367188 39.29101562 C58.50038409 28.61047949 60.88771407 19.60062663 56 9 C54.4607536 6.78249092 54.4607536 6.78249092 52 6 C49.14792474 5.74072043 46.82556753 5.75237593 44 6 C42.89785156 6.0928125 41.79570313 6.185625 40.66015625 6.28125 C39.49355469 6.4153125 38.32695313 6.549375 37.125 6.6875 C36.01382813 6.81511719 34.90265625 6.94273437 33.7578125 7.07421875 C30.80165351 7.73245264 30.80165351 7.73245264 29.5625 10.42578125 C28.85434657 13.66656676 29.65894548 15.01987884 31 18 C31.125 20.8125 31.125 20.8125 31 23 C30.34 23 29.68 23 29 23 C28.26010787 25.90624297 27.58349094 28.82150775 26.9375 31.75 C26.76089844 32.54921875 26.58429688 33.3484375 26.40234375 34.171875 C26.26957031 34.77515625 26.13679688 35.3784375 26 36 C26.99 36 27.98 36 29 36 C29.33 33.69 29.66 31.38 30 29 C36.45 26.76730769 36.45 26.76730769 39.234375 27.9453125 C39.81703125 28.29335938 40.3996875 28.64140625 41 29 C38.69711048 36.76841397 36.40231887 44.32949968 32.98828125 51.69140625 C32.05156614 53.87954312 31.40895738 56.02953155 30.75 58.3125 C29.55875292 61.58680209 28.27998246 62.78474811 25.1875 64.375 C23.81060159 64.96313625 22.41152551 65.50065122 21 66 C20.16645996 66.3407959 19.33291992 66.6815918 18.47412109 67.03271484 C13.97484498 68.28542967 9.83096023 68.2866724 5.18359375 68.265625 C4.24951187 68.26753845 3.31542999 68.2694519 2.3530426 68.27142334 C0.38550547 68.27277986 -1.58204078 68.26912078 -3.54956055 68.26074219 C-6.55603155 68.25002306 -9.56190669 68.26066186 -12.56835938 68.2734375 C-14.48437631 68.27211605 -16.40039288 68.26955395 -18.31640625 68.265625 C-19.66032188 68.27169769 -19.66032188 68.27169769 -21.03138733 68.27789307 C-30.79528635 68.20471365 -30.79528635 68.20471365 -34 65 C-34.60993855 59.42844593 -34.40273093 54.65039894 -31 50 C-29.00827818 49.30899447 -27.00838196 48.64097297 -25 48 C-23.56076801 45.49004504 -23.56076801 45.49004504 -23 43 C-21.35 43 -19.7 43 -18 43 C-17.7525 42.0925 -17.505 41.185 -17.25 40.25 C-15.92685858 36.80983232 -14.89683512 35.23470138 -12 33 C-7.61461198 31.34066399 -4.33693772 32.55435409 0 34 C0.19335938 33.32453125 0.38671875 32.6490625 0.5859375 31.953125 C0.97652344 30.61507813 0.97652344 30.61507813 1.375 29.25 C1.75785156 27.92742188 1.75785156 27.92742188 2.1484375 26.578125 C3 24 3 24 4.07421875 22.0703125 C6.1441627 17.44132393 5.63016435 11.93118901 5 7 C3.60798203 4.33236975 2.27038547 3.04334692 0 1 C0 0.67 0 0.34 0 0 Z " fill="#E1D0D0" transform="translate(62,0)"/>
<path d="M0 0 C5.62203791 3.37322275 5.62203791 3.37322275 7.625 6.875 C8.04265625 7.58011719 8.4603125 8.28523438 8.890625 9.01171875 C9.75058119 10.55297825 10.57111353 12.11626735 11.375 13.6875 C13.61477985 16.87487902 16.42565264 19.38577861 20 21 C23.0614527 20.65793825 23.83780501 20.17233218 26 17.875 C26.66 17.25625 27.32 16.6375 28 16 C30.25 16.25 30.25 16.25 32 17 C33.14057508 23.46325879 33.14057508 23.46325879 32.3125 26.625 C31.75052613 29.1059339 31.75052613 29.1059339 33.3125 31.4375 C36.52805252 34.50349194 39.96257294 36.46142312 43.85546875 38.5703125 C46 40 46 40 47 43 C31.49 43 15.98 43 0 43 C0 28.81 0 14.62 0 0 Z " fill="#F9F7F7" transform="translate(0,85)"/>
<path d="M0 0 C4.03123924 0.54321664 6.86046605 1.47765355 9.75390625 4.37109375 C9.65579876 9.37457561 8.41529299 13.11301481 5.4296875 17.05859375 C2.64808004 19.2371954 -0.05393483 18.88890091 -3.453125 18.6171875 C-4.34064453 18.49537109 -4.34064453 18.49537109 -5.24609375 18.37109375 C-5.57609375 19.31984375 -5.90609375 20.26859375 -6.24609375 21.24609375 C-8.4189329 24.64115492 -8.76499797 24.86303353 -12.43359375 25.74609375 C-13.69171875 25.95234375 -14.94984375 26.15859375 -16.24609375 26.37109375 C-16.20484375 27.15484375 -16.16359375 27.93859375 -16.12109375 28.74609375 C-16.24609375 31.37109375 -16.24609375 31.37109375 -18.24609375 33.37109375 C-19.05046875 33.61859375 -19.85484375 33.86609375 -20.68359375 34.12109375 C-24.13388338 35.80416186 -24.59603837 37.99924146 -26.24609375 41.37109375 C-28.43359375 42.24609375 -28.43359375 42.24609375 -30.24609375 42.37109375 C-30.14296875 43.25796875 -30.03984375 44.14484375 -29.93359375 45.05859375 C-30.34452918 49.41450929 -31.99469903 50.58418399 -35.24609375 53.37109375 C-37.89262725 56.01762725 -38.84551372 58.93330639 -40.24609375 62.37109375 C-44.9429182 60.08289723 -44.9429182 60.08289723 -46.14453125 57.26171875 C-46.29564649 52.96074655 -44.44831203 50.02781142 -42.43359375 46.30859375 C-42.06427734 45.60154297 -41.69496094 44.89449219 -41.31445312 44.16601562 C-40.62382444 42.84551373 -39.92745868 41.52798404 -39.22338867 40.21459961 C-38.53803259 38.92178827 -37.90396352 37.6011 -37.30981445 36.26391602 C-36.24609375 34.37109375 -36.24609375 34.37109375 -33.24609375 32.37109375 C-32.93671875 31.23671875 -32.62734375 30.10234375 -32.30859375 28.93359375 C-31.1235815 24.96031738 -30.46910744 24.61743662 -27.24609375 22.37109375 C-26.77171875 21.36046875 -26.29734375 20.34984375 -25.80859375 19.30859375 C-23.92997345 15.77678758 -22.8269042 15.74832854 -19.24609375 14.37109375 C-18.54951012 12.71670762 -17.88512492 11.04855057 -17.24609375 9.37109375 C-15.61348661 7.99626668 -13.94384313 6.66461708 -12.24609375 5.37109375 C-11.70984375 4.46359375 -11.17359375 3.55609375 -10.62109375 2.62109375 C-7.24308889 -0.57912138 -4.50315052 -0.10647227 0 0 Z " fill="#FAF9F9" transform="translate(54.24609375,7.62890625)"/>
<path d="M0 0 C10.08175303 0.00494689 10.08175303 0.00494689 13.375 3.25 C16.52859883 8.59181026 16.26086421 14.62691271 15.25 20.5625 C13.71931026 25.43641052 11.54578907 30.00508538 9.25 34.5625 C8.65832031 34.47871094 8.06664062 34.39492188 7.45703125 34.30859375 C1.25443063 33.33473206 1.25443063 33.33473206 -4.75 34.5625 C-6.02587495 36.8765387 -6.02587495 36.8765387 -6.75 39.5625 C-7.5625 41.8125 -7.5625 41.8125 -8.75 43.5625 C-10.41666667 43.89583333 -12.08333333 44.22916667 -13.75 44.5625 C-14.44937532 45.87897119 -15.11729133 47.21272151 -15.75 48.5625 C-17.6875 49.5 -17.6875 49.5 -19.75 49.5625 C-21.5625 48.375 -21.5625 48.375 -22.75 46.5625 C-22.8125 44.5625 -22.8125 44.5625 -21.75 42.5625 C-20.76 42.088125 -19.77 41.61375 -18.75 41.125 C-17.76 40.609375 -16.77 40.09375 -15.75 39.5625 C-15.564375 38.325 -15.564375 38.325 -15.375 37.0625 C-15.16875 36.2375 -14.9625 35.4125 -14.75 34.5625 C-12.75263006 33.63721504 -10.72585131 33.03557701 -8.625 32.3828125 C-6.4568508 31.66174589 -6.4568508 31.66174589 -5.3125 28.9375 C-5.0340625 27.761875 -5.0340625 27.761875 -4.75 26.5625 C-4.255 26.0675 -4.255 26.0675 -3.75 25.5625 C-2.33251465 25.70014837 -0.91597727 25.84761834 0.5 26 C3.49828965 26.04781961 4.74090236 26.0401431 6.95703125 23.9609375 C9.31500438 20.33224109 11.16020028 16.98347279 10.25 12.5625 C7.02236196 9.33486196 3.31877191 9.31145081 -1.125 9.0625 C-5.23331742 9.0679309 -5.23331742 9.0679309 -8.6953125 11.0546875 C-10.26539333 12.89452655 -10.26539333 12.89452655 -11.53125 14.8359375 C-12.75 16.5625 -12.75 16.5625 -15.75 18.5625 C-16.183125 19.8 -16.183125 19.8 -16.625 21.0625 C-17.75 23.5625 -17.75 23.5625 -20.1875 24.5 C-23.7587202 25.98074984 -24.14593409 28.1451422 -25.75 31.5625 C-26.430625 32.036875 -27.11125 32.51125 -27.8125 33 C-30.66408364 35.29966423 -30.80726286 38.10579714 -31.75 41.5625 C-32.74 42.2225 -33.73 42.8825 -34.75 43.5625 C-35.80208717 45.4005065 -35.80208717 45.4005065 -36.625 47.5625 C-38.43987632 51.92383069 -40.54502334 56.05212133 -42.796875 60.203125 C-43.85624651 62.82550365 -43.92884172 64.76064646 -43.75 67.5625 C-44.348125 67.335625 -44.94625 67.10875 -45.5625 66.875 C-46.284375 66.771875 -47.00625 66.66875 -47.75 66.5625 C-49.39594139 67.95838754 -49.39594139 67.95838754 -50.75 69.5625 C-51.41 69.5625 -52.07 69.5625 -52.75 69.5625 C-52.29947266 68.72912109 -52.29947266 68.72912109 -51.83984375 67.87890625 C-50.32689742 64.66321745 -49.53119053 61.33102403 -48.62890625 57.90234375 C-47.68853435 55.39886477 -46.61497105 54.40703301 -44.75 52.5625 C-44.62625 51.4075 -44.5025 50.2525 -44.375 49.0625 C-44.065625 47.33 -44.065625 47.33 -43.75 45.5625 C-42.945625 45.10875 -42.14125 44.655 -41.3125 44.1875 C-38.61341508 42.85396554 -38.61341508 42.85396554 -38.08203125 40.5625 C-37.77557668 38.96998393 -37.48274288 37.37479036 -37.203125 35.77734375 C-36.19127765 30.83150369 -33.19514954 28.00764954 -29.75 24.5625 C-29.46125 23.86125 -29.1725 23.16 -28.875 22.4375 C-27.75 20.5625 -27.75 20.5625 -24.8125 19.6875 C-21.49774255 18.85221645 -21.49774255 18.85221645 -20.1875 15.6875 C-19.713125 14.65625 -19.23875 13.625 -18.75 12.5625 C-17.08333333 11.22916667 -15.41666667 9.89583333 -13.75 8.5625 C-12.68753473 6.59497172 -11.67862192 4.59662421 -10.75 2.5625 C-7.69345939 -0.49404061 -4.10623479 0.04656054 0 0 Z " fill="#CD9C9F" transform="translate(52.75,-0.5625)"/>
<path d="M0 0 C3.7952247 -0.27213821 5.66196537 0.34265193 8.953125 2.29296875 C13.6853338 7.70120737 13.89604333 13.26263842 13.578125 20.29296875 C13.03439177 23.32001031 12.26625282 26.26564216 11.453125 29.23046875 C11.23084229 30.05442139 11.00855957 30.87837402 10.77954102 31.72729492 C9.24232904 37.26796238 7.5044476 42.71061181 5.515625 48.10546875 C5.28278809 48.74411865 5.04995117 49.38276855 4.81005859 50.04077148 C2.87607266 55.07543412 0.40496154 59.46613221 -3.421875 63.29296875 C-6.546875 63.41796875 -6.546875 63.41796875 -9.421875 63.29296875 C-9.916875 61.80796875 -9.916875 61.80796875 -10.421875 60.29296875 C-8.9453125 58.015625 -8.9453125 58.015625 -6.796875 55.35546875 C-1.04451515 47.75592877 2.02218455 39.4657672 4.8125 30.4296875 C5.6400515 28.12014326 6.74102332 26.08305191 7.890625 23.91796875 C10.32949321 18.63065141 9.54285249 13.66733543 7.578125 8.29296875 C6.27933759 6.45657691 6.27933759 6.45657691 4.578125 5.29296875 C1.53601069 4.87621355 1.53601069 4.87621355 -1.421875 5.29296875 C-2.081875 5.95296875 -2.741875 6.61296875 -3.421875 7.29296875 C-5.48231354 7.86180148 -7.54373841 8.24152559 -9.64453125 8.6328125 C-10.23105469 8.85066406 -10.81757812 9.06851562 -11.421875 9.29296875 C-12.55831466 12.70228772 -12.28935264 13.29632331 -10.984375 16.48046875 C-10.69691406 17.19589844 -10.40945312 17.91132813 -10.11328125 18.6484375 C-9.88511719 19.19113281 -9.65695313 19.73382812 -9.421875 20.29296875 C-11.47421185 22.54076625 -12.42854761 23.29519295 -15.421875 24.29296875 C-16.65157378 27.80487684 -16.65157378 27.80487684 -17.421875 31.29296875 C-18.411875 31.29296875 -19.401875 31.29296875 -20.421875 31.29296875 C-20.73750682 26.03243838 -20.08778437 22.84723059 -17.421875 18.29296875 C-16.761875 18.29296875 -16.101875 18.29296875 -15.421875 18.29296875 C-15.73237226 16.85503483 -16.0453526 15.41763695 -16.359375 13.98046875 C-16.53339844 13.17996094 -16.70742187 12.37945312 -16.88671875 11.5546875 C-17.42073659 9.14756775 -17.42073659 9.14756775 -18.421875 6.29296875 C-17.37109375 4.18359375 -17.37109375 4.18359375 -15.421875 2.29296875 C-10.40358482 0.83759595 -5.17336782 0.62581062 0 0 Z " fill="#C88D90" transform="translate(108.421875,4.70703125)"/>
<path d="M0 0 C3.65316671 1.24976756 4.78065836 1.67098753 7 5 C9.42870986 15.83578247 3.73709158 25.42680956 -0.375 35.3125 C-0.84421875 36.47845703 -1.3134375 37.64441406 -1.796875 38.84570312 C-2.49683594 40.5250293 -2.49683594 40.5250293 -3.2109375 42.23828125 C-3.62649902 43.24930908 -4.04206055 44.26033691 -4.47021484 45.30200195 C-6.23022904 48.40604231 -8.04875698 50.02515448 -11 52 C-11.66 52 -12.32 52 -13 52 C-12.39941538 44.59278964 -8.48877653 38.0878328 -5.3125 31.5 C-2.73721885 24.63258361 -1.96599245 17.24494336 -1 10 C-4.11332248 10.66868314 -4.11332248 10.66868314 -5.1875 13.0625 C-5.455625 13.701875 -5.72375 14.34125 -6 15 C-6.99 15 -7.98 15 -9 15 C-9.99 12.03 -10.98 9.06 -12 6 C-11.01 5.01 -10.02 4.02 -9 3 C-6.12631508 3.28736849 -3.74209856 4.08596715 -1 5 C-0.67 3.35 -0.34 1.7 0 0 Z " fill="#E1D0D0" transform="translate(109,10)"/>
<path d="M0 0 C4.03123924 0.54321664 6.86046605 1.47765355 9.75390625 4.37109375 C9.65579876 9.37457561 8.41529299 13.11301481 5.4296875 17.05859375 C2.64808004 19.2371954 -0.05393483 18.88890091 -3.453125 18.6171875 C-4.34064453 18.49537109 -4.34064453 18.49537109 -5.24609375 18.37109375 C-5.57609375 19.31984375 -5.90609375 20.26859375 -6.24609375 21.24609375 C-8.4189329 24.64115492 -8.76499797 24.86303353 -12.43359375 25.74609375 C-13.69171875 25.95234375 -14.94984375 26.15859375 -16.24609375 26.37109375 C-16.20484375 27.15484375 -16.16359375 27.93859375 -16.12109375 28.74609375 C-16.24609375 31.37109375 -16.24609375 31.37109375 -18.24609375 33.37109375 C-19.05046875 33.61859375 -19.85484375 33.86609375 -20.68359375 34.12109375 C-24.13388338 35.80416186 -24.59603837 37.99924146 -26.24609375 41.37109375 C-28.43359375 42.24609375 -28.43359375 42.24609375 -30.24609375 42.37109375 C-30.14296875 43.25796875 -30.03984375 44.14484375 -29.93359375 45.05859375 C-30.34452918 49.41450929 -31.99469903 50.58418399 -35.24609375 53.37109375 C-37.89262725 56.01762725 -38.84551372 58.93330639 -40.24609375 62.37109375 C-44.9429182 60.08289723 -44.9429182 60.08289723 -46.14453125 57.26171875 C-46.29564649 52.96074655 -44.44831203 50.02781142 -42.43359375 46.30859375 C-42.06427734 45.60154297 -41.69496094 44.89449219 -41.31445312 44.16601562 C-40.62382444 42.84551373 -39.92745868 41.52798404 -39.22338867 40.21459961 C-38.53803259 38.92178827 -37.90396352 37.6011 -37.30981445 36.26391602 C-36.24609375 34.37109375 -36.24609375 34.37109375 -33.24609375 32.37109375 C-32.93671875 31.23671875 -32.62734375 30.10234375 -32.30859375 28.93359375 C-31.1235815 24.96031738 -30.46910744 24.61743662 -27.24609375 22.37109375 C-26.77171875 21.36046875 -26.29734375 20.34984375 -25.80859375 19.30859375 C-23.92997345 15.77678758 -22.8269042 15.74832854 -19.24609375 14.37109375 C-18.54951012 12.71670762 -17.88512492 11.04855057 -17.24609375 9.37109375 C-15.61348661 7.99626668 -13.94384313 6.66461708 -12.24609375 5.37109375 C-11.70984375 4.46359375 -11.17359375 3.55609375 -10.62109375 2.62109375 C-7.24308889 -0.57912138 -4.50315052 -0.10647227 0 0 Z M-7.24609375 1.37109375 C-7.90609375 2.36109375 -8.56609375 3.35109375 -9.24609375 4.37109375 C-8.25609375 5.85609375 -8.25609375 5.85609375 -7.24609375 7.37109375 C-8.35984375 7.61859375 -9.47359375 7.86609375 -10.62109375 8.12109375 C-14.22519895 9.00251794 -14.22519895 9.00251794 -15.74609375 11.24609375 C-16.3158576 13.66759013 -16.07555197 15.04861073 -15.24609375 17.37109375 C-16.35984375 17.35046875 -17.47359375 17.32984375 -18.62109375 17.30859375 C-22.07825296 17.10728657 -22.07825296 17.10728657 -24.24609375 18.37109375 C-24.24609375 20.35109375 -24.24609375 22.33109375 -24.24609375 24.37109375 C-25.19484375 24.55671875 -26.14359375 24.74234375 -27.12109375 24.93359375 C-28.15234375 25.40796875 -29.18359375 25.88234375 -30.24609375 26.37109375 C-31.43960687 29.71438844 -31.43960687 29.71438844 -32.24609375 33.37109375 C-33.547445 35.06285038 -34.88364579 36.7281418 -36.24609375 38.37109375 C-39.39997591 43.17158694 -39.39997591 43.17158694 -39.8515625 48.6171875 C-39.65175781 49.19597656 -39.45195313 49.77476563 -39.24609375 50.37109375 C-35.78109375 49.87609375 -35.78109375 49.87609375 -32.24609375 49.37109375 C-32.24609375 46.73109375 -32.24609375 44.09109375 -32.24609375 41.37109375 C-31.46234375 41.16484375 -30.67859375 40.95859375 -29.87109375 40.74609375 C-29.00484375 40.29234375 -28.13859375 39.83859375 -27.24609375 39.37109375 C-26.95734375 38.38109375 -26.66859375 37.39109375 -26.37109375 36.37109375 C-25.99984375 35.38109375 -25.62859375 34.39109375 -25.24609375 33.37109375 C-21.62109375 31.99609375 -21.62109375 31.99609375 -18.24609375 31.37109375 C-18.24609375 29.06109375 -18.24609375 26.75109375 -18.24609375 24.37109375 C-15.27609375 24.04109375 -12.30609375 23.71109375 -9.24609375 23.37109375 C-7.90095951 20.2304835 -7.90095951 20.2304835 -9.24609375 16.37109375 C-4.95609375 16.37109375 -0.66609375 16.37109375 3.75390625 16.37109375 C4.41390625 14.39109375 5.07390625 12.41109375 5.75390625 10.37109375 C6.74390625 9.71109375 7.73390625 9.05109375 8.75390625 8.37109375 C8.55919514 6.42110246 8.55919514 6.42110246 7.75390625 4.37109375 C4.59587766 2.32422337 1.71149917 2.01092182 -1.99609375 1.74609375 C-2.9809375 1.67132813 -3.96578125 1.5965625 -4.98046875 1.51953125 C-5.728125 1.47054688 -6.47578125 1.4215625 -7.24609375 1.37109375 Z " fill="#E1D0D0" transform="translate(54.24609375,7.62890625)"/>
<path d="M0 0 C1.32 0.33 2.64 0.66 4 1 C3.566875 1.556875 3.13375 2.11375 2.6875 2.6875 C0.95947553 4.96121251 0.95947553 4.96121251 -0.375 7.4375 C-2.2456271 10.38733504 -4.53595386 12.53595386 -7 15 C-7.309375 15.721875 -7.61875 16.44375 -7.9375 17.1875 C-9 19 -9 19 -11.9375 19.875 C-15.24908942 20.71640861 -15.24908942 20.71640861 -16.625 23.875 C-17.07875 24.90625 -17.5325 25.9375 -18 27 C-19.31328657 28.35308313 -20.64499081 29.68870078 -22 31 C-23.76463505 33.69339034 -24.02397429 35.27330686 -24.3125 38.5625 C-24.539375 39.696875 -24.76625 40.83125 -25 42 C-27.5 43.5 -27.5 43.5 -30 45 C-30.41434251 47.32031805 -30.74889902 49.65639085 -31 52 C-31.47179688 52.46277344 -31.94359375 52.92554688 -32.4296875 53.40234375 C-34.98257469 55.9996842 -35.30305921 59.26418643 -36.15625 62.72265625 C-37 65 -37 65 -40 67 C-40.14616325 63.14623733 -40.23435912 59.29319449 -40.3125 55.4375 C-40.35439453 54.35146484 -40.39628906 53.26542969 -40.43945312 52.14648438 C-40.53066564 46.14470113 -40.36839156 41.9742306 -36.36108398 37.31762695 C-34.62931342 35.64114879 -32.89282312 34.19647632 -30.875 32.875 C-28.20030728 31.01021423 -27.02894898 30.04824831 -25.3125 27.1875 C-24 25 -24 25 -21.3125 24.1875 C-20.549375 24.125625 -19.78625 24.06375 -19 24 C-18.87625 23.030625 -18.7525 22.06125 -18.625 21.0625 C-18.315625 19.5465625 -18.315625 19.5465625 -18 18 C-15.29120665 16.64560332 -12.99066732 16.93498549 -10 17 C-9.690625 15.63875 -9.690625 15.63875 -9.375 14.25 C-8 11 -8 11 -5 9.0625 C-1.20306787 6.45210916 -0.85030869 4.42160517 0 0 Z " fill="#E2D2D3" transform="translate(40,0)"/>
<path d="M0 0 C3.2473017 -0.26644527 5.38653589 -0.28194161 8.125 1.58984375 C12.967902 6.62219913 15.16199786 13.26789169 15.47387695 20.16723633 C15.34386687 23.47130314 14.74776944 26.07402289 13.7734375 29.2265625 C13.43505859 30.32613281 13.09667969 31.42570312 12.74804688 32.55859375 C12.38904297 33.69425781 12.03003906 34.82992187 11.66015625 36 C11.32048828 37.11246094 10.98082031 38.22492187 10.63085938 39.37109375 C8.53598395 46.09818905 6.11877569 52.57137373 3.28979492 59.02490234 C2.2236211 61.26241129 2.2236211 61.26241129 2.34765625 63.375 C2.90453125 62.859375 3.46140625 62.34375 4.03515625 61.8125 C6.34765625 60.375 6.34765625 60.375 9.09765625 60.6875 C9.84015625 60.914375 10.58265625 61.14125 11.34765625 61.375 C12.24918636 65.2646662 12.54216997 68.94711187 12.59765625 72.9375 C12.6234375 74.05253906 12.64921875 75.16757813 12.67578125 76.31640625 C12.30875433 79.73762144 11.46726792 80.77243884 9.34765625 83.375 C8.71055948 85.6805133 8.71055948 85.6805133 8.41015625 88.125 C7.08811113 95.48293965 4.40074962 101.68385264 -1.65234375 106.375 C-3.96484375 106.1875 -3.96484375 106.1875 -5.65234375 105.375 C-5.98234375 103.065 -6.31234375 100.755 -6.65234375 98.375 C-8.63234375 98.375 -10.61234375 98.375 -12.65234375 98.375 C-12.20530389 102.85383696 -12.20530389 102.85383696 -9.65234375 106.375 C-9.83039502 109.75797413 -10.44071619 111.13772061 -12.71484375 113.6875 C-13.35421875 114.244375 -13.99359375 114.80125 -14.65234375 115.375 C-14.12640625 114.2921875 -14.12640625 114.2921875 -13.58984375 113.1875 C-12.5281142 110.00231135 -12.652953 108.53973738 -13.65234375 105.375 C-14.31234375 104.385 -14.97234375 103.395 -15.65234375 102.375 C-15.65234375 99.375 -15.65234375 99.375 -14.65234375 96.375 C-12.65234375 95.375 -10.65234375 94.375 -8.65234375 93.375 C-7.25214674 91.0893843 -6.52239708 88.93682369 -5.65234375 86.375 C-4.00234375 86.375 -2.35234375 86.375 -0.65234375 86.375 C0.09765625 89.125 0.09765625 89.125 0.34765625 92.375 C-0.96434779 93.72932675 -2.29865779 95.06233482 -3.65234375 96.375 C-3.98682634 99.542832 -3.98682634 99.542832 -3.65234375 102.375 C-0.78509689 101.80155063 0.20910775 101.5135485 2.34765625 99.375 C4.21874677 94.94987091 5.4029387 90.32496983 6.34765625 85.625 C6.92493607 82.75833697 7.33512319 81.3931033 9.03515625 78.9375 C11.12431815 74.8586601 10.18893598 70.77613933 9.34765625 66.375 C8.85265625 65.385 8.85265625 65.385 8.34765625 64.375 C7.54328125 64.5915625 7.54328125 64.5915625 6.72265625 64.8125 C3.94849798 65.46953748 1.16240237 65.92719948 -1.65234375 66.375 C-1.02846779 63.49935244 -0.26268753 61.63372341 1.1484375 58.94921875 C4.04844842 53.29203523 5.72180403 47.26035876 7.53515625 41.1875 C7.89029297 40.02541016 8.24542969 38.86332031 8.61132812 37.66601562 C11.864344 26.93168051 14.13896695 18.04207445 9.34765625 7.375 C8.16222208 5.07886326 8.16222208 5.07886326 6.34765625 3.375 C3.91763696 2.85210578 3.91763696 2.85210578 1.22265625 3.0625 C-0.23527344 3.11277344 -0.23527344 3.11277344 -1.72265625 3.1640625 C-5.09489464 3.40686366 -8.43327868 3.7559848 -11.77734375 4.25390625 C-13.65234375 4.375 -13.65234375 4.375 -16.65234375 3.375 C-13.36268107 0.08533732 -4.50119319 0.63639845 0 0 Z " fill="#E1D0D0" transform="translate(108.65234375,1.625)"/>
<path d="M0 0 C2.07414774 1.84243097 3.38379364 3.69113378 5 6 C5 6.66 5 7.32 5 8 C5.804375 8.226875 6.60875 8.45375 7.4375 8.6875 C8.283125 9.120625 9.12875 9.55375 10 10 C10.6875 12.3125 10.6875 12.3125 11 15 C11.33 15.78375 11.66 16.5675 12 17.375 C13.26703773 20.70097404 13.87475176 23.43042506 14 27 C11.78615543 31.34254127 9.08691667 34.34350417 5 37 C3.68 37 2.36 37 1 37 C1.33 36.01 1.66 35.02 2 34 C2.61875 33.71125 3.2375 33.4225 3.875 33.125 C6.7360203 31.6103422 7.56856067 29.86287866 9 27 C9.69579454 24.80869466 9.69579454 24.80869466 10 23 C9.360625 22.731875 8.72125 22.46375 8.0625 22.1875 C6 21 6 21 5 18 C3.37051936 16.77554716 3.37051936 16.77554716 1.4375 15.8125 C0.303125 15.214375 -0.83125 14.61625 -2 14 C-2.2475 14.61875 -2.495 15.2375 -2.75 15.875 C-4.20628639 18.35068687 -5.37812506 18.95125002 -8 20 C-11.26837061 12.76038339 -11.26837061 12.76038339 -10.25 9.875 C-9.8375 9.25625 -9.425 8.6375 -9 8 C-8.855625 6.96875 -8.71125 5.9375 -8.5625 4.875 C-8.376875 3.92625 -8.19125 2.9775 -8 2 C-4.73201451 -0.178657 -3.79094962 -0.72208564 0 0 Z " fill="#A8494F" transform="translate(80,86)"/>
<path d="M0 0 C0.99 0 1.98 0 3 0 C7.24345082 5.61633197 8.53658456 10.0244007 8 17 C7.22783995 20.19159486 6.46718978 23.06562044 5 26 C4.89841313 27.43632545 4.81768573 28.87417829 4.75 30.3125 C4.38298872 34.05481178 4.09076775 34.89061322 1.5625 37.9375 C0.716875 38.618125 -0.12875 39.29875 -1 40 C-1.66 40.66 -2.32 41.32 -3 42 C-4.093125 42.309375 -5.18625 42.61875 -6.3125 42.9375 C-10.90089363 44.25957952 -14.02477235 46.26316133 -17.8125 49.125 C-20.80456648 50.88503911 -21.85813455 51.24543906 -25.125 51.5 C-29.33354053 52.04303749 -30.46133909 52.72089632 -33 56 C-32.8125 53.6875 -32.8125 53.6875 -32 51 C-27.96551724 48 -27.96551724 48 -25 48 C-24.34 46.35 -23.68 44.7 -23 43 C-21.35 43 -19.7 43 -18 43 C-17.7525 42.0925 -17.505 41.185 -17.25 40.25 C-15.92685858 36.80983232 -14.89683512 35.23470138 -12 33 C-7.61461198 31.34066399 -4.33693772 32.55435409 0 34 C0.19335938 33.32453125 0.38671875 32.6490625 0.5859375 31.953125 C0.97652344 30.61507813 0.97652344 30.61507813 1.375 29.25 C1.75785156 27.92742188 1.75785156 27.92742188 2.1484375 26.578125 C3 24 3 24 4.07421875 22.0703125 C6.1441627 17.44132393 5.63016435 11.93118901 5 7 C3.60798203 4.33236975 2.27038547 3.04334692 0 1 C0 0.67 0 0.34 0 0 Z " fill="#E1D0D0" transform="translate(62,0)"/>
<path d="M0 0 C0.17835515 4.54805635 -0.00214565 7.8794254 -2 12 C-2.59167969 11.91621094 -3.18335937 11.83242188 -3.79296875 11.74609375 C-9.99556937 10.77223206 -9.99556937 10.77223206 -16 12 C-17.27587495 14.3140387 -17.27587495 14.3140387 -18 17 C-18.8125 19.25 -18.8125 19.25 -20 21 C-21.66666667 21.33333333 -23.33333333 21.66666667 -25 22 C-25.69937532 23.31647119 -26.36729133 24.65022151 -27 26 C-28.9375 26.9375 -28.9375 26.9375 -31 27 C-32.8125 25.8125 -32.8125 25.8125 -34 24 C-34.0625 22 -34.0625 22 -33 20 C-32.01 19.525625 -31.02 19.05125 -30 18.5625 C-28.515 17.7890625 -28.515 17.7890625 -27 17 C-26.814375 15.7625 -26.814375 15.7625 -26.625 14.5 C-26.315625 13.2625 -26.315625 13.2625 -26 12 C-24.00263006 11.07471504 -21.97585131 10.47307701 -19.875 9.8203125 C-17.7068508 9.09924589 -17.7068508 9.09924589 -16.5625 6.375 C-16.376875 5.59125 -16.19125 4.8075 -16 4 C-15.67 3.67 -15.34 3.34 -15 3 C-13.5619081 3.00583404 -12.12387338 3.0544743 -10.6875 3.125 C-6.14978929 3.19702715 -3.82626436 0 0 0 Z " fill="#CEA0A3" transform="translate(64,22)"/>
<path d="M0 0 C0.66 0 1.32 0 2 0 C0.99806563 3.79303725 0.18975773 6.71536341 -2 10 C-1.01 10 -0.02 10 1 10 C1.66 8.35 2.32 6.7 3 5 C3.33 5.66 3.66 6.32 4 7 C2.31525278 10.36949443 1.1808342 11.87944386 -2 14 C-2.33 15.155 -2.66 16.31 -3 17.5 C-4 21 -4 21 -7 23 C-8.05208717 24.8380065 -8.05208717 24.8380065 -8.875 27 C-10.68987632 31.36133069 -12.79502334 35.48962133 -15.046875 39.640625 C-16.10624651 42.26300365 -16.17884172 44.19814646 -16 47 C-16.598125 46.773125 -17.19625 46.54625 -17.8125 46.3125 C-18.534375 46.209375 -19.25625 46.10625 -20 46 C-21.64594139 47.39588754 -21.64594139 47.39588754 -23 49 C-23.66 49 -24.32 49 -25 49 C-24.54947266 48.16662109 -24.54947266 48.16662109 -24.08984375 47.31640625 C-22.57689742 44.10071745 -21.78119053 40.76852403 -20.87890625 37.33984375 C-19.93853435 34.83636477 -18.86497105 33.84453301 -17 32 C-16.87625 30.845 -16.7525 29.69 -16.625 28.5 C-16.315625 26.7675 -16.315625 26.7675 -16 25 C-15.195625 24.54625 -14.39125 24.0925 -13.5625 23.625 C-10.86341508 22.29146554 -10.86341508 22.29146554 -10.33203125 20 C-10.02557668 18.40748393 -9.73274288 16.81229036 -9.453125 15.21484375 C-8.44127765 10.26900369 -5.44514954 7.44514954 -2 4 C-0.76487921 1.86690808 -0.76487921 1.86690808 0 0 Z " fill="#CD9C9F" transform="translate(25,20)"/>
<path d="M0 0 C2.04296875 -0.19921875 2.04296875 -0.19921875 5.54296875 0.36328125 C9.45331944 3.9404191 11.40033555 8.23676146 11.640625 13.50390625 C11.60807292 15.45703125 11.57552083 17.41015625 11.54296875 19.36328125 C9.36391549 16.09470136 8.44923064 13.14541977 7.32421875 9.421875 C6.63519846 7.18203883 6.63519846 7.18203883 4.54296875 5.36328125 C1.54296875 5.02994792 1.54296875 5.02994792 -1.45703125 5.36328125 C-2.11703125 6.02328125 -2.77703125 6.68328125 -3.45703125 7.36328125 C-5.51746979 7.93211398 -7.57889466 8.31183809 -9.6796875 8.703125 C-10.26621094 8.92097656 -10.85273437 9.13882812 -11.45703125 9.36328125 C-12.59347091 12.77260022 -12.32450889 13.36663581 -11.01953125 16.55078125 C-10.73207031 17.26621094 -10.44460937 17.98164063 -10.1484375 18.71875 C-9.92027344 19.26144531 -9.69210938 19.80414062 -9.45703125 20.36328125 C-11.5093681 22.61107875 -12.46370386 23.36550545 -15.45703125 24.36328125 C-16.68673003 27.87518934 -16.68673003 27.87518934 -17.45703125 31.36328125 C-18.44703125 31.36328125 -19.43703125 31.36328125 -20.45703125 31.36328125 C-20.77266307 26.10275088 -20.12294062 22.91754309 -17.45703125 18.36328125 C-16.79703125 18.36328125 -16.13703125 18.36328125 -15.45703125 18.36328125 C-15.76752851 16.92534733 -16.08050885 15.48794945 -16.39453125 14.05078125 C-16.56855469 13.25027344 -16.74257812 12.44976562 -16.921875 11.625 C-17.45589284 9.21788025 -17.45589284 9.21788025 -18.45703125 6.36328125 C-17.40625 4.25390625 -17.40625 4.25390625 -15.45703125 2.36328125 C-10.41644479 0.90144222 -5.17625338 0.7653284 0 0 Z " fill="#C37B7E" transform="translate(108.45703125,4.63671875)"/>
<path d="M0 0 C1.67542976 0.28604898 3.34385343 0.61781233 5 1 C5.268125 1.94875 5.53625 2.8975 5.8125 3.875 C6.74986588 7.25267273 6.74986588 7.25267273 10 9 C10.1171875 10.953125 10.1171875 10.953125 9.875 13.25 C9.69706065 16.67011428 9.69706065 16.67011428 11.1015625 19.6796875 C11.56304687 20.15664062 12.02453125 20.63359375 12.5 21.125 C15 24 15 24 15.3125 27.875 C15.209375 28.90625 15.10625 29.9375 15 31 C12.42786866 32.61949011 11.32330841 33.04408751 8.25 32.625 C7.5075 32.41875 6.765 32.2125 6 32 C6.33 31.34 6.66 30.68 7 30 C9.5625 29.375 9.5625 29.375 12 29 C11.47599609 28.29423828 11.47599609 28.29423828 10.94140625 27.57421875 C10.48636719 26.95160156 10.03132813 26.32898438 9.5625 25.6875 C9.11003906 25.07261719 8.65757813 24.45773438 8.19140625 23.82421875 C7 22 7 22 6 19 C5.38125 18.401875 4.7625 17.80375 4.125 17.1875 C1.68859857 14.67943971 0.47070585 12.15151254 -1 9 C-1.33 8.67 -1.66 8.34 -2 8 C-1.28 1.28 -1.28 1.28 0 0 Z " fill="#A8494F" transform="translate(44,90)"/>
<path d="M0 0 C2.5 0.1875 2.5 0.1875 5 1 C7.62166417 4.93249626 6.9111715 6.44414248 6 11 C5.02500772 14.89996914 4.23429055 17.64856417 2 21 C-1.50020422 20.6999825 -2.94904191 20.04266259 -5.6875 17.75 C-8.77105262 14.08307257 -9.97399548 10.61702036 -11 6 C-9.68 6 -8.36 6 -7 6 C-6.32845067 7.28913487 -5.66291141 8.58140204 -5 9.875 C-4.62875 10.59429687 -4.2575 11.31359375 -3.875 12.0546875 C-3 14 -3 14 -3 16 C-2.01 15.67 -1.02 15.34 0 15 C-0.57452746 11.06924356 -0.57452746 11.06924356 -3 8 C-2.54545455 2.54545455 -2.54545455 2.54545455 0 0 Z " fill="#A8494F" transform="translate(20,83)"/>
<path d="M0 0 C0 0.99 0 1.98 0 3 C-0.33 2.67 -0.66 2.34 -1 2 C-6.02193059 1.71027324 -10.87990454 2.10049322 -15.875 2.6875 C-16.98617187 2.81511719 -18.09734375 2.94273438 -19.2421875 3.07421875 C-22.19834649 3.73245264 -22.19834649 3.73245264 -23.4375 6.42578125 C-24.14565343 9.66656676 -23.34105452 11.01987884 -22 14 C-21.875 16.8125 -21.875 16.8125 -22 19 C-22.66 19 -23.32 19 -24 19 C-24.73989213 21.90624297 -25.41650906 24.82150775 -26.0625 27.75 C-26.23910156 28.54921875 -26.41570312 29.3484375 -26.59765625 30.171875 C-26.73042969 30.77515625 -26.86320312 31.3784375 -27 32 C-26.01 32 -25.02 32 -24 32 C-23.67 29.69 -23.34 27.38 -23 25 C-21.68 24.67 -20.36 24.34 -19 24 C-19.66 24.66 -20.32 25.32 -21 26 C-21.46290221 28.66242821 -21.46290221 28.66242821 -21.625 31.625 C-21.69976562 32.62789062 -21.77453125 33.63078125 -21.8515625 34.6640625 C-21.90054688 35.43492188 -21.94953125 36.20578125 -22 37 C-24.8125 37.25 -24.8125 37.25 -28 37 C-29.7734375 35.30078125 -29.7734375 35.30078125 -31 33 C-30.70703125 30.52734375 -30.70703125 30.52734375 -29.8125 27.9375 C-29.53019531 27.08027344 -29.24789062 26.22304688 -28.95703125 25.33984375 C-28 23 -28 23 -26 20 C-26.32788559 16.52441273 -26.96611928 13.17617975 -27.625 9.75 C-28 7 -28 7 -27 4 C-18.59318097 -0.2214499 -9.17282258 -0.14928644 0 0 Z " fill="#DABEBF" transform="translate(115,4)"/>
<path d="M0 0 C0.66 0 1.32 0 2 0 C0.77269705 10.26711497 -2.21184854 23.62372193 -10 31 C-12.6875 31.7265625 -12.6875 31.7265625 -15 32 C-15.33 31.01 -15.66 30.02 -16 29 C-14.5234375 26.72265625 -14.5234375 26.72265625 -12.375 24.0625 C-8.04616827 18.36627116 -5.54875261 12.63254942 -3 6 C-2.05533437 3.96211246 -1.0485496 1.98672556 0 0 Z " fill="#A8494F" transform="translate(114,36)"/>
<path d="M0 0 C0.66 0.33 1.32 0.66 2 1 C5.3964816 11.18944481 -0.57264771 21.04592456 -4.4375 30.3125 C-4.92798828 31.51712891 -5.41847656 32.72175781 -5.92382812 33.96289062 C-6.64022461 35.67702148 -6.64022461 35.67702148 -7.37109375 37.42578125 C-7.80349365 38.47161377 -8.23589355 39.51744629 -8.68139648 40.5949707 C-10 43 -10 43 -13 44 C-11.66184893 39.14413363 -10.30558105 34.45912583 -8.0625 29.9375 C-4.35222921 21.9604178 -2.6556522 12.71511586 -1.44921875 4.0390625 C-1 1 -1 1 0 0 Z " fill="#FAF9F9" transform="translate(112,14)"/>
<path d="M0 0 C0.99 0.33 1.98 0.66 3 1 C2.35401634 5.87310005 1.49028264 10.63131839 0.4375 15.4375 C0.16808594 16.67371094 -0.10132812 17.90992188 -0.37890625 19.18359375 C-0.58386719 20.11300781 -0.78882812 21.04242188 -1 22 C-1.66 22 -2.32 22 -3 22 C-3.33 22.99 -3.66 23.98 -4 25 C-4.66 24.67 -5.32 24.34 -6 24 C-6.3690205 14.58997722 -6.3690205 14.58997722 -4 10 C-4.99 9.67 -5.98 9.34 -7 9 C-7.99 8.67 -8.98 8.34 -10 8 C-9.34 7.01 -8.68 6.02 -8 5 C-7.67 4.01 -7.34 3.02 -7 2 C-6.67 3.32 -6.34 4.64 -6 6 C-5.01 6 -4.02 6 -3 6 C-2.690625 5.195625 -2.38125 4.39125 -2.0625 3.5625 C-1 1 -1 1 0 0 Z " fill="#CEA0A3" transform="translate(106,19)"/>
<path d="M0 0 C0.639375 0.28875 1.27875 0.5775 1.9375 0.875 C9.45421613 3.63624266 14.29455731 4.27373719 22 2 C26.15035018 1.50195798 27.62316721 1.78669842 31.3125 3.875 C34 6 34 6 35 8 C26.42 8 17.84 8 9 8 C8.67 7.01 8.34 6.02 8 5 C6.00428677 4.32060826 4.00405227 3.65438441 2 3 C1.34 2.01 0.68 1.02 0 0 Z " fill="#CEA0A3" transform="translate(38,120)"/>
<path d="M0 0 C11.55 0 23.1 0 35 0 C34.67 0.99 34.34 1.98 34 3 C26.24575135 3.84903327 18.60953932 4.12751701 10.8125 4.0625 C9.24145508 4.05573242 9.24145508 4.05573242 7.63867188 4.04882812 C5.09238464 4.03720124 2.5462254 4.02086281 0 4 C0 2.68 0 1.36 0 0 Z " fill="#E1D0D0" transform="translate(0,0)"/>
<path d="M0 0 C1.65 0 3.3 0 5 0 C5.75 2.75 5.75 2.75 6 6 C4.71034824 7.37562854 3.37310707 8.70766393 2 10 C1.19684346 13.14481791 1.19684346 13.14481791 1 16 C0.34 14.68 -0.32 13.36 -1 12 C-2.98 12 -4.96 12 -7 12 C-6.55296014 16.47883696 -6.55296014 16.47883696 -4 20 C-4.17805127 23.38297413 -4.78837244 24.76272061 -7.0625 27.3125 C-7.701875 27.869375 -8.34125 28.42625 -9 29 C-8.649375 28.278125 -8.29875 27.55625 -7.9375 26.8125 C-6.87577045 23.62731135 -7.00060925 22.16473738 -8 19 C-8.66 18.01 -9.32 17.02 -10 16 C-10 13 -10 13 -9 10 C-7 9 -5 8 -3 7 C-1.59980299 4.7143843 -0.87005333 2.56182369 0 0 Z " fill="#E1D0D0" transform="translate(103,88)"/>
<path d="M0 0 C0.36567164 6.460199 0.36567164 6.460199 -1.3125 8.9375 C-3 10 -3 10 -6 10 C-6.2475 10.639375 -6.495 11.27875 -6.75 11.9375 C-8 14 -8 14 -9.9375 14.9375 C-12 15 -12 15 -13.8125 13.8125 C-15 12 -15 12 -15.0625 10 C-13.48700003 7.034353 -10.95875221 6.44918475 -8 5 C-6.73195434 2.9664052 -6.73195434 2.9664052 -6 1 C-4 0 -4 0 0 0 Z " fill="#CEA0A3" transform="translate(45,34)"/>
<path d="M0 0 C0.9075 0.00257812 1.815 0.00515625 2.75 0.0078125 C4.11125 0.00394531 4.11125 0.00394531 5.5 0 C7.75 0.1328125 7.75 0.1328125 8.75 1.1328125 C9.21167861 3.82593772 9.17697209 5.49683309 7.6328125 7.796875 C6.38593427 9.28326657 5.07142331 10.71228244 3.75 12.1328125 C0.39189605 10.74325225 -1.43586552 9.30754783 -3.25 6.1328125 C-3.5 3.4453125 -3.5 3.4453125 -3.25 1.1328125 C-2.25 0.1328125 -2.25 0.1328125 0 0 Z " fill="#F9F8F8" transform="translate(59.25,101.8671875)"/>
<path d="M0 0 C0.66 1.32 1.32 2.64 2 4 C3.65 4 5.3 4 7 4 C5 8 3 12 1 16 C-1.87231715 14.600666 -3.64129886 13.69747444 -5.125 10.8125 C-4.93084818 6.44408411 -2.49685584 3.48177476 0 0 Z " fill="#E1D0D0" transform="translate(13,54)"/>
<path d="M0 0 C1.22396484 -0.03673828 1.22396484 -0.03673828 2.47265625 -0.07421875 C8.46772683 -0.10355841 8.46772683 -0.10355841 11.7109375 2.2578125 C13.125 4.375 13.125 4.375 12.875 6.625 C12.6275 7.2025 12.38 7.78 12.125 8.375 C11.155625 7.900625 10.18625 7.42625 9.1875 6.9375 C4.93313367 5.13757578 0.76092165 4.19799208 -3.875 4.375 C-7.24378771 5.68219263 -7.24378771 5.68219263 -9.875 7.375 C-10.535 7.375 -11.195 7.375 -11.875 7.375 C-10.62501467 -0.54157373 -7.02973759 0.01100115 0 0 Z " fill="#C3797C" transform="translate(52.875,2.625)"/>
<path d="M0 0 C2.93422269 0.14671113 3.92843695 0.92731878 6 3.03125 C7.33333333 4.67708333 8.66666667 6.32291667 10 7.96875 C12.07339175 10.0745385 13.11875937 10.63984492 16 11 C16.33 9.35 16.66 7.7 17 6 C17.99 5.67 18.98 5.34 20 5 C20.66 5.33 21.32 5.66 22 6 C21.75 8.375 21.75 8.375 21 11 C20.360625 11.28875 19.72125 11.5775 19.0625 11.875 C16.56660199 12.93585211 16.56660199 12.93585211 15.75 16.625 C15.5025 17.73875 15.255 18.8525 15 20 C14.34 19.67 13.68 19.34 13 19 C13.103125 18.071875 13.20625 17.14375 13.3125 16.1875 C13.209375 15.135625 13.10625 14.08375 13 13 C10.74572728 11.47987963 10.74572728 11.47987963 8 10 C6.73046875 8.30078125 6.73046875 8.30078125 5.5 6.375 C3.54120106 3.40919767 3.54120106 3.40919767 0.1875 2.0625 C-0.534375 2.041875 -1.25625 2.02125 -2 2 C-1.34 1.34 -0.68 0.68 0 0 Z " fill="#C3797C" transform="translate(77,84)"/>
<path d="M0 0 C1.3125 2.5625 1.3125 2.5625 2 5 C1.34 5.66 0.68 6.32 0 7 C-0.495 4.525 -0.495 4.525 -1 2 C-4.3 2 -7.6 2 -11 2 C-11 7.40242057 -10.58790894 8.30656433 -7 12 C-4.75637427 12.2284549 -4.75637427 12.2284549 -2.875 10 C-1.946875 9.01 -1.946875 9.01 -1 8 C-2.1858237 11.37503669 -3.27573689 13.64722731 -6 16 C-14.58278146 9.56291391 -14.58278146 9.56291391 -15.4375 4.3125 C-15.293125 3.549375 -15.14875 2.78625 -15 2 C-10.55529389 -0.96313741 -5.09083869 -2.03633548 0 0 Z " fill="#CB9598" transform="translate(68,101)"/>
<path d="M0 0 C0.639375 0.2475 1.27875 0.495 1.9375 0.75 C3.36153528 5.02210584 2.80275691 9.05759282 2.58203125 13.5234375 C3.00955824 17.40406713 4.28312432 18.96525223 6.9375 21.75 C4.35245894 20.76946718 2.96265675 19.77862665 1.125 17.6875 C-0.35912015 14.01625541 0.05310913 11.57561339 0.7109375 7.73828125 C1.12884997 5.6780317 1.12884997 5.6780317 -0.0625 3.75 C-2.99743396 4.16927628 -3.95239537 4.62924008 -6 6.875 C-8.0625 8.75 -8.0625 8.75 -10.75 8.625 C-13.0625 7.75 -13.0625 7.75 -14.0625 5.75 C-11.5875 6.245 -11.5875 6.245 -9.0625 6.75 C-7.886875 5.2959375 -7.886875 5.2959375 -6.6875 3.8125 C-3.28328685 -0.39797416 -3.28328685 -0.39797416 0 0 Z " fill="#CEA0A3" transform="translate(31.0625,98.25)"/>
<path d="M0 0 C0 0.99 0 1.98 0 3 C-0.33 2.67 -0.66 2.34 -1 2 C-6.02193059 1.71027324 -10.87990454 2.10049322 -15.875 2.6875 C-16.98617187 2.81511719 -18.09734375 2.94273438 -19.2421875 3.07421875 C-22.19834649 3.73245264 -22.19834649 3.73245264 -23.4375 6.42578125 C-24.14565343 9.66656676 -23.34105452 11.01987884 -22 14 C-21.875 16.8125 -21.875 16.8125 -22 19 C-24.73367185 14.89949222 -26.02374945 12.37746794 -25.9375 7.375 C-25 4 -25 4 -23 2.125 C-15.66560318 -0.62539881 -7.72814097 -0.13000611 0 0 Z " fill="#CEA0A3" transform="translate(115,4)"/>
<path d="M0 0 C-0.47241991 4.25177923 -2.84964071 6.29969203 -6 9 C-6.99 9 -7.98 9 -9 9 C-9.125 5.625 -9.125 5.625 -9 2 C-6.32750728 -0.67249272 -3.5165484 -1.7582742 0 0 Z " fill="#C07477" transform="translate(116,69)"/>
<path d="M0 0 C3 1 3 1 5 4 C4.82307825 9.16611496 3.03954174 11.66986432 -0.4375 15.375 C-1.64212891 16.68597656 -1.64212891 16.68597656 -2.87109375 18.0234375 C-5 20 -5 20 -7 20 C-5.54821438 16.61250022 -3.63059397 14.54838791 -1 12 C1.23551759 8.64672361 1.17283528 8.09256343 0.625 4.3125 C0.51414062 3.50425781 0.40328125 2.69601563 0.2890625 1.86328125 C0.19367188 1.24839844 0.09828125 0.63351563 0 0 Z " fill="#C7898C" transform="translate(92,104)"/>
<path d="M0 0 C0.66 0 1.32 0 2 0 C0.70758929 12.49330357 0.70758929 12.49330357 -3.125 15.875 C-3.74375 16.24625 -4.3625 16.6175 -5 17 C-5.89674777 14.48910624 -6.13172674 13.35464891 -5.1875 10.8125 C-4 9 -4 9 -2 8 C-2.061875 6.576875 -2.061875 6.576875 -2.125 5.125 C-2 2 -2 2 0 0 Z " fill="#C2787B" transform="translate(111,87)"/>
<path d="M0 0 C2 1.4375 2 1.4375 3 3 C3 3.33 3 3.66 3 4 C-2.61 4 -8.22 4 -14 4 C-9.73508974 -0.26491026 -5.79989952 -0.71290432 0 0 Z " fill="#E8DBDB" transform="translate(66,124)"/>
<path d="M0 0 C0.9075 0.00257812 1.815 0.00515625 2.75 0.0078125 C4.11125 0.00394531 4.11125 0.00394531 5.5 0 C7.75 0.1328125 7.75 0.1328125 8.75 1.1328125 C9.21167861 3.82593772 9.17697209 5.49683309 7.6328125 7.796875 C6.38593427 9.28326657 5.07142331 10.71228244 3.75 12.1328125 C2.43 11.4728125 1.11 10.8128125 -0.25 10.1328125 C-0.25 9.1428125 -0.25 8.1528125 -0.25 7.1328125 C0.348125 7.3596875 0.94625 7.5865625 1.5625 7.8203125 C2.284375 7.9234375 3.00625 8.0265625 3.75 8.1328125 C5.52190909 6.77836949 5.52190909 6.77836949 6.75 5.1328125 C6.42 4.1428125 6.09 3.1528125 5.75 2.1328125 C4.88375 2.41125 4.88375 2.41125 4 2.6953125 C1.54307475 3.17304796 0.10602466 2.89010614 -2.25 2.1328125 C-2.745 4.1128125 -2.745 4.1128125 -3.25 6.1328125 C-3.292721 4.46669345 -3.29063832 2.79898365 -3.25 1.1328125 C-2.25 0.1328125 -2.25 0.1328125 0 0 Z " fill="#E1D0D0" transform="translate(59.25,101.8671875)"/>
<path d="M0 0 C0.66 0 1.32 0 2 0 C1.31929385 4.27872439 -0.08116514 8.00855993 -1.75 12 C-2.23984375 13.19625 -2.7296875 14.3925 -3.234375 15.625 C-5.06983396 19.13348792 -7.06928394 21.3683366 -10 24 C-9.731875 23.33097656 -9.46375 22.66195312 -9.1875 21.97265625 C-8.30900479 19.77352844 -7.43463192 17.57275286 -6.5625 15.37109375 C-6.04169825 14.05988329 -5.5208643 12.74868562 -5 11.4375 C-4.60941406 10.4484668 -4.60941406 10.4484668 -4.2109375 9.43945312 C-2.93019382 6.22142291 -1.62101896 3.06279063 0 0 Z " fill="#C88C8F" transform="translate(111,37)"/>
<path d="M0 0 C0.99 0.33 1.98 0.66 3 1 C2.67 2.65 2.34 4.3 2 6 C1.01 6.33 0.02 6.66 -1 7 C-2.22969878 10.51190809 -2.22969878 10.51190809 -3 14 C-3.99 14 -4.98 14 -6 14 C-6.36539443 9.71422781 -5.48423598 7.65507938 -3 4.1875 C-2.1646875 3.00220703 -2.1646875 3.00220703 -1.3125 1.79296875 C-0.879375 1.20128906 -0.44625 0.60960938 0 0 Z " fill="#B56165" transform="translate(94,22)"/>
<path d="M0 0 C2.125 0.375 2.125 0.375 4 1 C5.14057508 7.46325879 5.14057508 7.46325879 4.3125 10.625 C3.7099444 13.18912409 3.7099444 13.18912409 5.75 15.625 C8.32829713 18.35919564 8.32829713 18.35919564 11 21 C7.04708871 19.6823629 4.61089255 18.2746788 2 15 C1.609375 11.984375 1.609375 11.984375 1.75 8.75 C1.78609375 7.67234375 1.8221875 6.5946875 1.859375 5.484375 C1.90578125 4.66453125 1.9521875 3.8446875 2 3 C0.68 2.67 -0.64 2.34 -2 2 C-1.34 1.34 -0.68 0.68 0 0 Z " fill="#E1D0D0" transform="translate(28,101)"/>
<path d="M0 0 C1.4540625 0.0309375 1.4540625 0.0309375 2.9375 0.0625 C2.6075 2.0425 2.2775 4.0225 1.9375 6.0625 C0.2875 6.3925 -1.3625 6.7225 -3.0625 7.0625 C-3.44383299 5.0710944 -3.77575582 3.06970923 -4.0625 1.0625 C-3.0625 0.0625 -3.0625 0.0625 0 0 Z " fill="#A8494F" transform="translate(39.0625,99.9375)"/>
<path d="M0 0 C0.99 0.33 1.98 0.66 3 1 C3 2.65 3 4.3 3 6 C2.360625 6.28875 1.72125 6.5775 1.0625 6.875 C-1.15206079 7.82823451 -1.15206079 7.82823451 -2 10 C-2.66 10 -3.32 10 -4 10 C-3.43454163 6.04179141 -2.19097652 3.3340947 0 0 Z " fill="#E1D0D0" transform="translate(113,75)"/>
<path d="M0 0 C0.99 0.66 1.98 1.32 3 2 C3 2.66 3 3.32 3 4 C2.34 4 1.68 4 1 4 C0.34 5.65 -0.32 7.3 -1 9 C-1.66 8.67 -2.32 8.34 -3 8 C-2.67 6.68 -2.34 5.36 -2 4 C-3.98 4.33 -5.96 4.66 -8 5 C-8.33 5.99 -8.66 6.98 -9 8 C-9 6.68 -9 5.36 -9 4 C-7.57086153 3.27494442 -6.13129342 2.57041565 -4.6875 1.875 C-3.88699219 1.48054688 -3.08648437 1.08609375 -2.26171875 0.6796875 C-1.51535156 0.45539062 -0.76898438 0.23109375 0 0 Z " fill="#CEA0A3" transform="translate(47,30)"/>
<path d="M0 0 C-0.33 1.98 -0.66 3.96 -1 6 C-2.65 6.33 -4.3 6.66 -6 7 C-6 5.02 -6 3.04 -6 1 C-4 0 -4 0 0 0 Z " fill="#BB6B6F" transform="translate(45,34)"/>
<path d="M0 0 C0.66 0 1.32 0 2 0 C2.37254569 3.35291118 2.31050198 4.6038423 0.1875 7.3125 C-2 9 -2 9 -5 9 C-5 8.01 -5 7.02 -5 6 C-4.34 6 -3.68 6 -3 6 C-2.690625 5.195625 -2.38125 4.39125 -2.0625 3.5625 C-1 1 -1 1 0 0 Z " fill="#C3797C" transform="translate(62,22)"/>
<path d="M0 0 C0.33 0 0.66 0 1 0 C1 2.64 1 5.28 1 8 C-1.8125 8.3125 -1.8125 8.3125 -5 8 C-6.875 5.5 -6.875 5.5 -8 3 C-7.01 3 -6.02 3 -5 3 C-5 3.66 -5 4.32 -5 5 C-3.68 4.67 -2.36 4.34 -1 4 C-0.67 2.68 -0.34 1.36 0 0 Z " fill="#E1D0D0" transform="translate(92,33)"/>
<path d="M0 0 C3.41266885 2.27511257 3.54170632 3.3542658 5 7 C5.99 7.66 6.98 8.32 8 9 C8 9.66 8 10.32 8 11 C8.66 11.33 9.32 11.66 10 12 C5.72238937 11.52470993 3.65838373 9.2331694 1 6 C0.1875 2.6875 0.1875 2.6875 0 0 Z " fill="#C78A8D" transform="translate(9,92)"/>
<path d="M0 0 C2.0625 0.4375 2.0625 0.4375 4 1 C3.67 2.98 3.34 4.96 3 7 C2.01 7 1.02 7 0 7 C-0.38133299 5.0085944 -0.71325582 3.00720923 -1 1 C-0.67 0.67 -0.34 0.34 0 0 Z " fill="#FAF9F9" transform="translate(100,15)"/>
<path d="M0 0 C0.66 0 1.32 0 2 0 C2.36923077 6.52307692 2.36923077 6.52307692 0.5 8.9375 C0.005 9.288125 -0.49 9.63875 -1 10 C-2.15837626 5.94568308 -1.83691257 3.78187881 0 0 Z " fill="#C3797C" transform="translate(102,34)"/>
<path d="M0 0 C0.99 0.33 1.98 0.66 3 1 C3 2.32 3 3.64 3 5 C2.34 5 1.68 5 1 5 C1 5.66 1 6.32 1 7 C0.01 7 -0.98 7 -2 7 C-2.33 6.01 -2.66 5.02 -3 4 C-1.5625 1.8125 -1.5625 1.8125 0 0 Z " fill="#C88D90" transform="translate(106,19)"/>
<path d="M0 0 C1.32 0 2.64 0 4 0 C6 5.625 6 5.625 6 9 C1.3125 5.484375 1.3125 5.484375 0 4 C0 2.68 0 1.36 0 0 Z " fill="#CEA0A3" transform="translate(0,81)"/>
<path d="M0 0 C0.99 0.33 1.98 0.66 3 1 C3 2.65 3 4.3 3 6 C1.68 6 0.36 6 -1 6 C-1.042721 4.33388095 -1.04063832 2.66617115 -1 1 C-0.67 0.67 -0.34 0.34 0 0 Z " fill="#FAF9F9" transform="translate(104,89)"/>
<path d="M0 0 C-2 3 -2 3 -5.125 3.6875 C-6.07375 3.790625 -7.0225 3.89375 -8 4 C-5.97675095 -0.48005146 -4.79569304 -1.43870791 0 0 Z " fill="#E1D0D0" transform="translate(80,80)"/>
<path d="M0 0 C1.65 0 3.3 0 5 0 C4.34 1.32 3.68 2.64 3 4 C1.68 4 0.36 4 -1 4 C-0.67 2.68 -0.34 1.36 0 0 Z " fill="#C3797C" transform="translate(49,27)"/>
<path d="M0 0 C0.66 0.33 1.32 0.66 2 1 C1.67 2.32 1.34 3.64 1 5 C-0.32 5 -1.64 5 -3 5 C-2.625 3.0625 -2.625 3.0625 -2 1 C-1.34 0.67 -0.68 0.34 0 0 Z " fill="#C3797C" transform="translate(34,42)"/>
<path d="M0 0 C0 0.99 0 1.98 0 3 C-2.64 3 -5.28 3 -8 3 C-8 2.34 -8 1.68 -8 1 C-5.10765685 0.17361624 -3.11257569 0 0 0 Z " fill="#C3797C" transform="translate(80,69)"/>
<path d="M0 0 C0.99 0.33 1.98 0.66 3 1 C2.67 2.65 2.34 4.3 2 6 C1.01 5.67 0.02 5.34 -1 5 C-0.67 3.35 -0.34 1.7 0 0 Z " fill="#E1D0D0" transform="translate(85,19)"/>
<path d="M0 0 C1.65 0.33 3.3 0.66 5 1 C4.01 2.485 4.01 2.485 3 4 C0.375 4.1875 0.375 4.1875 -2 4 C-1.34 2.68 -0.68 1.36 0 0 Z " fill="#A8494F" transform="translate(94,8)"/>
<path d="M0 0 C0 3.57575896 -1.08840607 5.05295935 -3 8 C-4.32 7.01 -5.64 6.02 -7 5 C-6.67 4.34 -6.34 3.68 -6 3 C-5.01 3.33 -4.02 3.66 -3 4 C-2.01 2.68 -1.02 1.36 0 0 Z " fill="#CEA0A3" transform="translate(66,109)"/>
<path d="M0 0 C1.485 0.99 1.485 0.99 3 2 C3 3.32 3 4.64 3 6 C1.68 5.67 0.36 5.34 -1 5 C-0.67 3.35 -0.34 1.7 0 0 Z " fill="#FAF9F9" transform="translate(11,61)"/>
<path d="M0 0 C0.33 0.66 0.66 1.32 1 2 C0.67 2.99 0.34 3.98 0 5 C-2.375 5.1875 -2.375 5.1875 -5 5 C-5.66 4.01 -6.32 3.02 -7 2 C-6.21625 2.04125 -5.4325 2.0825 -4.625 2.125 C-1.83883881 2.28728734 -1.83883881 2.28728734 0 0 Z " fill="#E1D0D0" transform="translate(25,104)"/>
<path d="M0 0 C1.04449911 3.13349732 0.93423645 3.98968256 0 7 C-0.99 7 -1.98 7 -3 7 C-2.25 2.25 -2.25 2.25 0 0 Z " fill="#C3797C" transform="translate(91,29)"/>
<path d="M0 0 C0.99 0.33 1.98 0.66 3 1 C1.71034824 2.37562854 0.37310707 3.70766393 -1 5 C-1.66 5 -2.32 5 -3 5 C-2.625 3.0625 -2.625 3.0625 -2 1 C-1.34 0.67 -0.68 0.34 0 0 Z " fill="#C3797C" transform="translate(38,11)"/>
<path d="M0 0 C2.62901288 1.52206009 4.84365964 2.84365964 7 5 C6.67 5.99 6.34 6.98 6 8 C5.38125 7.360625 4.7625 6.72125 4.125 6.0625 C2.17402388 3.96116416 2.17402388 3.96116416 0 3 C0 2.01 0 1.02 0 0 Z " fill="#E1D0D0" transform="translate(0,85)"/>
<path d="M0 0 C0.99 0.33 1.98 0.66 3 1 C2.67 2.32 2.34 3.64 2 5 C0.68 4.67 -0.64 4.34 -2 4 C-1.34 2.68 -0.68 1.36 0 0 Z " fill="#C3797C" transform="translate(18,35)"/>
</svg>
