<?xml version="1.0" encoding="UTF-8"?>
<svg version="1.1" xmlns="http://www.w3.org/2000/svg" width="128" height="128">
<path d="M0 0 C42.24 0 84.48 0 128 0 C128 42.24 128 84.48 128 128 C85.76 128 43.52 128 0 128 C0 85.76 0 43.52 0 0 Z " fill="#FBFBFB" transform="translate(0,0)"/>
<path d="M0 0 C2.85877978 0.10293479 4.18261362 0.3183564 6.39453125 2.1640625 C8.53418943 5.12303883 9.61148895 7.46957518 9.65234375 11.15234375 C9.24774903 13.57598397 8.74991778 15.50247452 7.625 17.6875 C5.0625 19.0625 5.0625 19.0625 2.625 19.6875 C2.13 21.1725 2.13 21.1725 1.625 22.6875 C-0.35446592 24.05113208 -2.3569245 25.38168644 -4.375 26.6875 C-6.70699755 28.40692573 -8.16196209 29.67231315 -8.77026367 32.57104492 C-8.95731316 34.82405979 -9.03405398 37.05198934 -9.0625 39.3125 C-9.28723638 47.51197276 -9.28723638 47.51197276 -10.375 49.6875 C-11.035 49.6875 -11.695 49.6875 -12.375 49.6875 C-12.375 50.3475 -12.375 51.0075 -12.375 51.6875 C-16.34693147 54.81690055 -19.41730204 54.97912929 -24.375 54.6875 C-24.705 55.6775 -25.035 56.6675 -25.375 57.6875 C-26.6434375 58.2753125 -26.6434375 58.2753125 -27.9375 58.875 C-28.741875 59.473125 -29.54625 60.07125 -30.375 60.6875 C-30.66514126 62.78442999 -30.56664811 64.64617542 -30.35546875 66.75 C-30.375 68.6875 -30.375 68.6875 -32.375 71.6875 C-33.65247007 83.03541597 -30.57601313 90.06171044 -23.62109375 98.921875 C-18.24529128 105.36021378 -13.35696932 109.20034969 -5 110.625 C1.56505142 111.10122135 7.11187683 108.73844242 13.0625 106.25 C17.14896452 102.16353548 17.85856018 97.29577602 18.625 91.6875 C18.55498193 87.34637948 18.10602907 85.40128507 15.6875 81.8125 C13.40345014 78.3518184 12.78835858 75.66765148 12.1171875 71.640625 C11.74718148 69.46776047 11.74718148 69.46776047 9.625 67.6875 C10 65.0625 10 65.0625 10.625 62.6875 C14.17971496 61.43289472 15.43283687 61.60048273 18.9375 63.1875 C19.824375 64.0125 20.71125 64.8375 21.625 65.6875 C21.6875 68.6875 21.6875 68.6875 21.50390625 70.51953125 C21.6712836 73.51612567 22.84801978 75.66893388 24.125 78.375 C27.29011866 85.62764333 28.06126727 91.96110507 25.73828125 99.60546875 C22.59404975 107.17878382 17.69127602 114.29323875 10.625 118.6875 C-1.92073385 121.75423494 -11.52520066 121.27889206 -22.6875 114.75 C-27.01060425 111.43226883 -30.08631702 109.02632947 -31.375 103.6875 C-31.973125 103.39875 -32.57125 103.11 -33.1875 102.8125 C-39.26180934 99.68856948 -41.30501286 91.35965717 -43.40234375 85.32421875 C-44.76243187 80.23890934 -44.72867785 75.92193216 -44.375 70.6875 C-48.665 70.6875 -52.955 70.6875 -57.375 70.6875 C-58.035 69.3675 -58.695 68.0475 -59.375 66.6875 C-57.71651823 65.67398336 -56.04834039 64.67629205 -54.375 63.6875 C-53.446875 63.06875 -53.446875 63.06875 -52.5 62.4375 C-49.31269069 61.3125673 -46.63352452 62.06086067 -43.375 62.6875 C-43.2821875 61.6665625 -43.2821875 61.6665625 -43.1875 60.625 C-41.91609146 56.02836912 -39.35628829 52.09357556 -35.4375 49.3125 C-30.05384308 47.68108881 -24.94622074 47.59144447 -19.375 47.6875 C-19.72247353 37.94060875 -19.72247353 37.94060875 -21.9375 28.5 C-23.87521668 22.60934128 -25.04553858 16.34303148 -22.37890625 10.5078125 C-19.51847597 6.60206918 -16.91932926 5.30350096 -12.1875 4.4375 C-11.34832031 4.34984375 -10.50914063 4.2621875 -9.64453125 4.171875 C-5.60961556 3.3107226 -4.53409036 0.22438331 0 0 Z " fill="#949494" transform="translate(62.375,6.3125)"/>
<path d="M0 0 C3.5625 1 3.5625 1 6 3 C7.79202477 6.44068756 8.43579575 8.85510636 8.28125 12.71875 C6.82062043 17.35466126 2.52071293 19.55755757 -1.4375 22 C-2.448125 22.639375 -3.45875 23.27875 -4.5 23.9375 C-5.139375 24.288125 -5.77875 24.63875 -6.4375 25 C-6.26089844 25.58265625 -6.08429688 26.1653125 -5.90234375 26.765625 C-4.91566553 31.41397571 -4.89491374 34.03283132 -7.26953125 38.265625 C-10.233136 42.39847169 -13.17821886 46.16047924 -17.4375 49 C-23.77083333 49.33333333 -23.77083333 49.33333333 -26.4375 48 C-27.82901392 47.96318746 -29.22243348 47.98632385 -30.61328125 48.04296875 C-31.85561523 48.07487305 -31.85561523 48.07487305 -33.12304688 48.10742188 C-34.86303981 48.16046255 -36.60271376 48.22541267 -38.34179688 48.30273438 C-42.67900849 48.39344291 -44.80767747 48.40799824 -48.54296875 45.98828125 C-49.16816406 45.33214844 -49.79335938 44.67601562 -50.4375 44 C-50.0505131 41.75547595 -49.51785336 40.12945819 -48.3125 38.1875 C-45.29494495 36.2763818 -42.81337379 37.28928973 -39.4375 38 C-38.1029342 38.32836417 -36.76926936 38.66047199 -35.4375 39 C-34.85742188 38.32453125 -34.27734375 37.6490625 -33.6796875 36.953125 C-26.51364458 28.77011889 -26.51364458 28.77011889 -22.875 26.5625 C-22.070625 26.046875 -21.26625 25.53125 -20.4375 25 C-20.4375 24.01 -20.4375 23.02 -20.4375 22 C-22.64663987 20.32640919 -24.98200818 18.99970177 -27.37109375 17.59765625 C-29.4375 16 -29.4375 16 -30.28515625 13.87109375 C-30.36056641 12.94490234 -30.36056641 12.94490234 -30.4375 12 C-30.1075 11.67 -29.7775 11.34 -29.4375 11 C-23.31449674 11.24011777 -20.70849904 12.93734237 -16.4375 17 C-13.7469472 15.77992056 -13.7469472 15.77992056 -11.4375 14 C-11.23590891 11.71082119 -11.11857063 9.42437937 -11.01171875 7.12890625 C-10.4375 5 -10.4375 5 -8.4765625 3.8203125 C-7.80367187 3.54960937 -7.13078125 3.27890625 -6.4375 3 C-6.004375 2.443125 -5.57125 1.88625 -5.125 1.3125 C-3.4375 0 -3.4375 0 0 0 Z " fill="#222222" transform="translate(109.4375,15)"/>
<path d="M0 0 C0 0.99 0 1.98 0 3 C-0.67546875 3.23074219 -1.3509375 3.46148437 -2.046875 3.69921875 C-9.29354956 6.22815918 -9.29354956 6.22815918 -14 12 C-14.73711248 14.9997273 -14.87538536 17.92023812 -15 21 C-15.09796875 22.05703125 -15.1959375 23.1140625 -15.296875 24.203125 C-15.93101773 35.0811118 -12.62735438 43.29916446 -5.77734375 51.73828125 C0.4356331 58.2496515 6.4938634 62.51700556 15.5625 63.3125 C22.02009737 63.21557546 28.46188198 61.03049441 33.5 57 C36.87212436 50.25575129 39.22004003 42.40013342 37 35 C36.360625 34.05125 35.72125 33.1025 35.0625 32.125 C32.77845014 28.6643184 32.16335858 25.98015148 31.4921875 21.953125 C31.12218148 19.78026047 31.12218148 19.78026047 29 18 C29.375 15.375 29.375 15.375 30 13 C32.475 12.505 32.475 12.505 35 12 C37.55869932 14.96591937 38.33082541 16.7907398 38.4375 20.6875 C38.69759969 24.45617853 39.35548622 27.22398047 41 30.625 C44.83946443 38.72739919 44.25437593 44.39699767 41.43359375 52.80078125 C38.66185365 58.98621761 34.54963144 63.36823588 28.875 67 C25.8047297 68.06792011 23.24462752 68.69390306 20 69 C19.20722656 69.08765625 18.41445313 69.1753125 17.59765625 69.265625 C8.63019947 69.83171983 1.67902917 66.73683558 -5.2890625 61.171875 C-7.3515798 59.21288173 -9.18432371 57.18902964 -11 55 C-11.61617187 54.27167969 -12.23234375 53.54335937 -12.8671875 52.79296875 C-19.56461528 44.12655469 -23.88262365 33.03279561 -23 22 C-24.56305491 20.43694509 -26.27678218 20.69360032 -28.4375 20.5 C-32.78082192 20.10958904 -32.78082192 20.10958904 -35 19 C-34.67 18.01 -34.34 17.02 -34 16 C-29.61414671 15.29826347 -25.44209357 14.89165625 -21 15 C-20.95875 14.154375 -20.9175 13.30875 -20.875 12.4375 C-19.51904706 7.11054201 -16.34125928 3.45537739 -11.6875 0.5625 C-7.78434761 -0.25443887 -3.97154505 -0.15574686 0 0 Z " fill="#2A2A2A" transform="translate(43,56)"/>
<path d="M0 0 C0 0.66 0 1.32 0 2 C-0.9075 2.391875 -1.815 2.78375 -2.75 3.1875 C-7.37430064 5.76643689 -9.38901085 8.38087876 -11.25 13.3125 C-11.4975 14.199375 -11.745 15.08625 -12 16 C-15.27050067 16.55837816 -18.5148965 17.05908648 -21.8125 17.4375 C-22.864375 17.623125 -23.91625 17.80875 -25 18 C-25.33 18.66 -25.66 19.32 -26 20 C-25.22914062 20.04898438 -24.45828125 20.09796875 -23.6640625 20.1484375 C-22.66117188 20.22320312 -21.65828125 20.29796875 -20.625 20.375 C-19.12839844 20.47941406 -19.12839844 20.47941406 -17.6015625 20.5859375 C-15 21 -15 21 -13 23 C-13.0928125 24.5778125 -13.0928125 24.5778125 -13.1875 26.1875 C-13.43883437 38.75421857 -6.37358582 50.25451481 1.94140625 59.0546875 C8.10714343 64.85919967 14.98700755 69.24634111 23.625 69.4375 C31.80744641 69.0104894 38.69055915 67.45695228 44.59765625 61.34765625 C49.62549798 55.30683412 52.5712407 47.82844583 51.9375 39.875 C51.18062183 36.74657023 50.38429107 34.5794301 49 31.75 C46.39053995 26.35144316 46.20030989 20.91915714 46 15 C47.32 15.66 48.64 16.32 50 17 C49.896875 17.9075 49.79375 18.815 49.6875 19.75 C49.64908817 23.56813593 50.89790438 26.25314854 52.5 29.6875 C55.66511866 36.94014333 56.43626727 43.27360507 54.11328125 50.91796875 C50.96904975 58.49128382 46.06627602 65.60573875 39 70 C26.45426615 73.06673494 16.84979934 72.59139206 5.6875 66.0625 C1.36439575 62.74476883 -1.71131702 60.33882947 -3 55 C-3.8971875 54.566875 -3.8971875 54.566875 -4.8125 54.125 C-10.88680934 51.00106948 -12.93001286 42.67215717 -15.02734375 36.63671875 C-16.38743187 31.55140934 -16.35367785 27.23443216 -16 22 C-20.29 22 -24.58 22 -29 22 C-29.66 20.68 -30.32 19.36 -31 18 C-29.34151823 16.98648336 -27.67334039 15.98879205 -26 15 C-25.38125 14.5875 -24.7625 14.175 -24.125 13.75 C-20.93769069 12.6250673 -18.25852452 13.37336067 -15 14 C-14.938125 13.319375 -14.87625 12.63875 -14.8125 11.9375 C-13.52739732 7.29135954 -10.93635549 3.39175551 -7 0.5625 C-4.59676893 -0.11340874 -2.48401462 -0.13800081 0 0 Z " fill="#A8A8A8" transform="translate(34,55)"/>
<path d="M0 0 C3.08931906 1.54465953 4.29803105 2.97427742 6 6 C6.93309413 9.49384116 6.62845634 11.76791135 5 15 C1.79111723 18.27535892 -1.9481752 20.87917266 -5.6796875 23.51953125 C-9.44418354 26.21287181 -9.44418354 26.21287181 -12 30 C-12.33820356 32.92997019 -12.28270691 35.80590947 -12.1875 38.75 C-12.17396484 39.54277344 -12.16042969 40.33554687 -12.14648438 41.15234375 C-12.11125223 43.10185564 -12.05744821 45.05101626 -12 47 C-13.98 47.495 -13.98 47.495 -16 48 C-18.65112038 44.05488039 -18.29626525 40.00619381 -18.25 35.4375 C-18.25773437 34.66986328 -18.26546875 33.90222656 -18.2734375 33.11132812 C-18.25989467 29.22792179 -18.19983549 27.29975323 -16 24 C-15.38125 23.87625 -14.7625 23.7525 -14.125 23.625 C-11.01008132 22.70884745 -10.0042449 20.51962216 -8 18 C-6.79122689 17.13735135 -5.56051006 16.30483914 -4.3125 15.5 C-1.66997452 13.72137708 -1.11129856 13.33389568 -0.0625 10.1875 C-0.041875 9.465625 -0.02125 8.74375 0 8 C-4.45233164 8 -5.33064776 8.7813219 -9 11 C-10.19625 11.28875 -11.3925 11.5775 -12.625 11.875 C-16.61382532 13.20460844 -17.17750638 14.35501276 -19 18 C-19.66 18 -20.32 18 -21 18 C-22.1640991 14.70171923 -22.09162805 13.23630391 -20.8125 9.9375 C-17.93574878 5.97307253 -13.39925223 5.1955453 -8.875 3.95703125 C-5.65532352 2.88526395 -3.28731751 0 0 0 Z " fill="#323232" transform="translate(63,8)"/>
<path d="M0 0 C0 3 0 3 -2.25 5.625 C-4.85730848 7.87676642 -5.80056111 8.38472329 -9 9 C-8.95359375 9.71285156 -8.9071875 10.42570312 -8.859375 11.16015625 C-8.47071814 21.47344372 -11.75865883 25.87114689 -18.4140625 33.3984375 C-20.72481285 35.73195387 -21.70074794 35.99038393 -25.0390625 36.09765625 C-26.22242188 36.08605469 -27.40578125 36.07445312 -28.625 36.0625 C-29.81351563 36.05347656 -31.00203125 36.04445312 -32.2265625 36.03515625 C-33.14179687 36.02355469 -34.05703125 36.01195312 -35 36 C-35.33 37.32 -35.66 38.64 -36 40 C-37.65 39.67 -39.3 39.34 -41 39 C-41.77802187 41.3015411 -41.77802187 41.3015411 -42 44 C-41.01439389 45.34400833 -40.01241685 46.67607028 -39 48 C-38.62599214 50.32716 -38.29235267 52.66117862 -38 55 C-37.04415562 57.33588323 -37.04415562 57.33588323 -36 59 C-37.65 59 -39.3 59 -41 59 C-42.125 57.5 -42.125 57.5 -43 55 C-42.57598348 52.2226918 -41.81108065 49.70360217 -41 47 C-42.65 46.67 -44.3 46.34 -46 46 C-46.6875 44.3125 -46.6875 44.3125 -47 42 C-45.5625 39.3125 -45.5625 39.3125 -44 37 C-44 36.67 -44 36.34 -44 36 C-44.65226562 35.91363281 -45.30453125 35.82726562 -45.9765625 35.73828125 C-52.14617438 34.74641149 -55.57066275 33.42933725 -60 29 C-55.78470255 19.86685552 -55.78470255 19.86685552 -51.8125 17.9375 C-47.5845153 18.03145522 -43.91807449 19.48910853 -40 21 C-39.34 19.68 -38.68 18.36 -38 17 C-37.01 17.33 -36.02 17.66 -35 18 C-37.97 21.465 -37.97 21.465 -41 25 C-41.886875 24.67 -42.77375 24.34 -43.6875 24 C-46.7668654 23.07038026 -48.8324366 22.57195089 -52 23 C-53.87640419 24.20918882 -53.87640419 24.20918882 -55 26 C-55.31991637 28.98001454 -55.31991637 28.98001454 -53.6015625 30.6796875 C-49.60614422 32.70739227 -45.78153447 32.27626909 -41.375 32.125 C-39.65374686 32.08171405 -37.9323863 32.04245466 -36.2109375 32.0078125 C-35.45087402 31.98348145 -34.69081055 31.95915039 -33.90771484 31.93408203 C-32 32 -32 32 -30 33 C-25.84305914 33.47059708 -23.79415282 33.61982659 -20.4375 31 C-19.633125 30.01 -18.82875 29.02 -18 28 C-17.44699219 27.41863281 -16.89398438 26.83726563 -16.32421875 26.23828125 C-13.76124895 23.33358214 -12.02589289 21.34244693 -11.94921875 17.3671875 C-12.27215618 14.7066472 -12.27215618 14.7066472 -12.86328125 12.19921875 C-13 10 -13 10 -11.7265625 8.296875 C-10 7 -10 7 -7.0625 5.5625 C-4.05809849 4.02964209 -2.23332091 2.49101178 0 0 Z " fill="#969696" transform="translate(115,30)"/>
<path d="M0 0 C1.32 0.66 2.64 1.32 4 2 C4.47382902 5.60377004 4.03756602 6.94019794 2.06640625 10.078125 C1.24389761 11.14487778 0.40882731 12.20204388 -0.4375 13.25 C-0.85837891 13.79140625 -1.27925781 14.3328125 -1.71289062 14.890625 C-4.64955357 18.64955357 -4.64955357 18.64955357 -6 20 C-10.31427905 20.22315236 -13.40498346 20.17746107 -17.5625 18.9375 C-21.49782027 17.86423084 -24.01997246 18.27635863 -28 19 C-32.7167161 19.37733729 -35.12341959 18.7364097 -39 16 C-38.42655063 13.13275314 -38.1385485 12.1385485 -36 10 C-33.75 10.3125 -33.75 10.3125 -31 11 C-26.75104073 12.02370636 -26.75104073 12.02370636 -22.625 11.0625 C-22.08875 10.711875 -21.5525 10.36125 -21 10 C-21 10.99 -21 11.98 -21 13 C-20.236875 13.12375 -19.47375 13.2475 -18.6875 13.375 C-16 14 -16 14 -13 16 C-10.26029827 15.79452237 -8.56484595 15.43449688 -6.375 13.75 C-2.98014553 9.42927613 -1.35754728 5.3257624 0 0 Z " fill="#232323" transform="translate(100,43)"/>
<path d="M0 0 C1.65 0 3.3 0 5 0 C1.9315153 2.97550031 0.53763669 3.96474513 -3.8125 4.25 C-5.3903125 4.12625 -5.3903125 4.12625 -7 4 C-7.33 4.99 -7.66 5.98 -8 7 C-8.845625 7.391875 -9.69125 7.78375 -10.5625 8.1875 C-11.7690625 9.0846875 -11.7690625 9.0846875 -13 10 C-13.29014126 12.09692999 -13.19164811 13.95867542 -12.98046875 16.0625 C-13 18 -13 18 -15 21 C-16.27747007 32.34791597 -13.20101313 39.37421044 -6.24609375 48.234375 C-0.87029128 54.67271378 4.01803068 58.51284969 12.375 59.9375 C19.02507708 60.4446116 25.1878855 58.0457076 31 55 C29.98261449 57.78319256 29.32281974 58.82391651 26.6796875 60.265625 C19.33729158 62.8426219 13.96159661 64.3660678 6.375 61.75 C-5.59222809 55.54477062 -13.59432066 46.8275115 -18 34 C-18.60370845 29.23573417 -18.4369035 24.77098622 -18 20 C-17.97550781 19.11957031 -17.95101563 18.23914063 -17.92578125 17.33203125 C-17.64972876 11.64915756 -16.12246751 8.93072483 -12 5 C-9.33296426 3.13307498 -7.61955273 2.94841393 -4.3125 2.5 C-3.219375 2.335 -2.12625 2.17 -1 2 C-0.67 1.34 -0.34 0.68 0 0 Z " fill="#AEAEAE" transform="translate(45,57)"/>
<path d="M0 0 C1.32 0.66 2.64 1.32 4 2 C3.896875 2.9075 3.79375 3.815 3.6875 4.75 C3.64908817 8.56813593 4.89790438 11.25314854 6.5 14.6875 C9.66511866 21.94014333 10.43626727 28.27360507 8.11328125 35.91796875 C4.96904975 43.49128382 0.06627602 50.60573875 -7 55 C-17.22161221 57.49861632 -25.79146706 58.35769189 -35 53 C-34.01 52.505 -34.01 52.505 -33 52 C-32.24332031 52.30421875 -31.48664062 52.6084375 -30.70703125 52.921875 C-23.89811676 55.63365047 -15.77226843 54.29568421 -9 52 C-2.71792233 48.73331961 1.45154203 43.85431386 4.078125 37.31640625 C6.41416641 29.66056144 6.57006708 24.04706019 3 16.75 C0.39053995 11.35144316 0.20030989 5.91915714 0 0 Z " fill="#9B9B9B" transform="translate(80,70)"/>
<path d="M0 0 C0.875 2.5 0.875 2.5 1 6 C-1.14531345 9.77351552 -3.94090633 12.94090633 -7 16 C-10.97132519 15.67800066 -13.70665213 14.16420003 -17 12 C-16.48389962 7.97079529 -14.58326142 6.38860534 -11.5625 3.8125 C-10.75941406 3.11769531 -9.95632812 2.42289063 -9.12890625 1.70703125 C-5.62710054 -1.10083865 -4.29817651 -1.01798917 0 0 Z " fill="#ACACAC" transform="translate(98,44)"/>
<path d="M0 0 C3.5625 1 3.5625 1 6 3 C8.12174321 7.07374696 7.91557679 10.49827091 7.5625 15 C7.2325 15 6.9025 15 6.5625 15 C6.10677083 12.98177083 5.65104167 10.96354167 5.1953125 8.9453125 C4.65775572 6.79280036 4.65775572 6.79280036 2.5625 5 C2.5625 4.01 2.5625 3.02 2.5625 2 C0.2525 2 -2.0575 2 -4.4375 2 C-4.4375 3.32 -4.4375 4.64 -4.4375 6 C-2.1275 6 0.1825 6 2.5625 6 C3.44559258 9.45208918 3.74581708 11.47296338 2.5625 14.875 C0.5625 17 0.5625 17 -3.125 17.3125 C-4.218125 17.209375 -5.31125 17.10625 -6.4375 17 C-7.59691038 13.52176885 -7.14570884 11.54104422 -6.4375 8 C-7.7575 8.99 -9.0775 9.98 -10.4375 11 C-10.4375 9.02 -10.4375 7.04 -10.4375 5 C-9.839375 4.731875 -9.24125 4.46375 -8.625 4.1875 C-6.37904725 3.15746454 -6.37904725 3.15746454 -5.125 1.3125 C-3.4375 0 -3.4375 0 0 0 Z " fill="#606060" transform="translate(109.4375,15)"/>
<path d="M0 0 C2.71411773 1.38023444 3.94283058 2.66483471 6 5 C6 5.66 6 6.32 6 7 C8.02045442 6.39816251 10.02111039 5.72693904 12 5 C12.33 4.34 12.66 3.68 13 3 C12.43628586 6.26954202 11.50037734 7.82575883 9 10 C6.44385911 8.82024267 4.36113159 7.53783987 2.0625 5.875 C-1.07291096 3.95536063 -2.42559616 3.5794819 -6 4 C-6 5.32 -6 6.64 -6 8 C-5.46375 8.2475 -4.9275 8.495 -4.375 8.75 C-1.43575748 10.29696975 1.25754408 12.13014369 4 14 C3.75 15.875 3.75 15.875 3 18 C0.9375 19.25 0.9375 19.25 -1 20 C-1 19.34 -1 18.68 -1 18 C-0.34 18 0.32 18 1 18 C1 16.68 1 15.36 1 14 C0.41347656 13.88398437 -0.17304687 13.76796875 -0.77734375 13.6484375 C-3.13335688 12.96109448 -4.59714994 12.07592958 -6.5625 10.625 C-7.14128906 10.20476563 -7.72007813 9.78453125 -8.31640625 9.3515625 C-11.62809066 6.69299451 -11.62809066 6.69299451 -13 5 C-13 3.68 -13 2.36 -13 1 C-9.03679778 -0.98160111 -4.30827463 -0.55747013 0 0 Z " fill="#C5C5C5" transform="translate(86,23)"/>
<path d="M0 0 C-0.32742187 0.97066406 -0.65484375 1.94132812 -0.9921875 2.94140625 C-2.23781217 7.3010926 -2.2253404 11.43375972 -2.125 15.9375 C-2.11597656 16.71673828 -2.10695313 17.49597656 -2.09765625 18.29882812 C-2.07433691 20.19935447 -2.03847586 22.09972008 -2 24 C-3.32 24.33 -4.64 24.66 -6 25 C-8.65112038 21.05488039 -8.29626525 17.00619381 -8.25 12.4375 C-8.25773437 11.66986328 -8.26546875 10.90222656 -8.2734375 10.11132812 C-8.25989467 6.22792179 -8.19983549 4.29975323 -6 1 C-3.88864324 0.27422112 -2.22998296 0 0 0 Z " fill="#2E2E2E" transform="translate(53,31)"/>
<path d="M0 0 C6.57692308 0.57692308 6.57692308 0.57692308 8 2 C8.14115161 4.67058851 8.04247107 7.32432238 8 10 C4.82606237 10.99752325 3.34445615 11.13012788 0.1875 9.9375 C-2 8 -2 8 -2.4375 4.9375 C-2 2 -2 2 0 0 Z " fill="#B4B4B4" transform="translate(41,92)"/>
<path d="M0 0 C0.66 0.33 1.32 0.66 2 1 C0.576875 2.36125 0.576875 2.36125 -0.875 3.75 C-2.78918545 5.63302429 -3.92567171 6.82811584 -5 9.3125 C-6 11 -6 11 -8.875 11.875 C-12.16294175 12.00651767 -13.20105544 11.49277043 -16 10 C-18.1477633 9.99521963 -18.1477633 9.99521963 -20 11 C-21.28436734 12.9837767 -21.28436734 12.9837767 -22 15 C-16.71062564 17.16999974 -10.68601034 18.17768795 -5.1171875 16.3984375 C-2.06524148 15.82408603 0.27373029 16.62873106 3.25 17.4375 C4.86648437 17.86869141 4.86648437 17.86869141 6.515625 18.30859375 C7.33546875 18.53675781 8.1553125 18.76492187 9 19 C9 19.33 9 19.66 9 20 C2.25 20.125 2.25 20.125 0 19 C-1.39151392 18.96318746 -2.78493348 18.98632385 -4.17578125 19.04296875 C-5.00400391 19.06423828 -5.83222656 19.08550781 -6.68554688 19.10742188 C-8.42553981 19.16046255 -10.16521376 19.22541267 -11.90429688 19.30273438 C-16.24150849 19.39344291 -18.37017747 19.40799824 -22.10546875 16.98828125 C-22.73066406 16.33214844 -23.35585938 15.67601562 -24 15 C-23.6130131 12.75547595 -23.08035336 11.12945819 -21.875 9.1875 C-18.85744495 7.2763818 -16.37587379 8.28928973 -13 9 C-11.68 9.33 -10.36 9.66 -9 10 C-6.03 6.7 -3.06 3.4 0 0 Z " fill="#4D4D4D" transform="translate(83,44)"/>
<path d="M0 0 C-0.88076651 3.60313574 -1.41688734 5.5396479 -4.375 7.875 C-7 9 -7 9 -11 9 C-11.33 9.99 -11.66 10.98 -12 12 C-12.66 12 -13.32 12 -14 12 C-14.09765625 5.84765625 -14.09765625 5.84765625 -14 4 C-13 3 -13 3 -9.9375 2.9375 C-8.4834375 2.9684375 -8.4834375 2.9684375 -7 3 C-6.67 2.01 -6.34 1.02 -6 0 C-3 -1 -3 -1 0 0 Z " fill="#EFEFEF" transform="translate(62,18)"/>
<path d="M0 0 C-0.07089622 3.07431787 -0.26263832 6.00811519 -1 9 C-3.87144347 11.49362196 -5.2061153 12 -9 12 C-10.75 10.75 -10.75 10.75 -12 9 C-11.72252843 6.49771092 -11.30696547 5.30615978 -9.51171875 3.515625 C-8.60873047 2.88914063 -8.60873047 2.88914063 -7.6875 2.25 C-6.79611328 1.60804687 -6.79611328 1.60804687 -5.88671875 0.953125 C-4 0 -4 0 0 0 Z " fill="#FBFBFB" transform="translate(96,46)"/>
<path d="M0 0 C0 3.45136652 -0.79838594 4.61776234 -2.5 7.5625 C-5.26103423 12.84346406 -5.56117558 17.13883278 -5 23 C-5.33 23 -5.66 23 -6 23 C-6.66 21.02 -7.32 19.04 -8 17 C-8.93972656 16.90912109 -8.93972656 16.90912109 -9.8984375 16.81640625 C-10.71570312 16.73261719 -11.53296875 16.64882812 -12.375 16.5625 C-13.59316406 16.44068359 -13.59316406 16.44068359 -14.8359375 16.31640625 C-17 16 -17 16 -19 15 C-18.67 14.01 -18.34 13.02 -18 12 C-13.61414671 11.29826347 -9.44209357 10.89165625 -5 11 C-4.9175 10.113125 -4.835 9.22625 -4.75 8.3125 C-3.9065914 4.58744536 -2.54447236 2.79071162 0 0 Z " fill="#4D4D4D" transform="translate(27,60)"/>
<path d="M0 0 C2.3125 0.8125 2.3125 0.8125 4 2 C3.625 4.4375 3.625 4.4375 3 7 C2.01 7.495 2.01 7.495 1 8 C1 6.68 1 5.36 1 4 C-1.47266765 4.34444881 -1.47266765 4.34444881 -4 5 C-4.33 5.66 -4.66 6.32 -5 7 C-8.0625 7.625 -8.0625 7.625 -11 8 C-11.33 10.64 -11.66 13.28 -12 16 C-11.01 15.01 -10.02 14.02 -9 13 C-8.01 13.33 -7.02 13.66 -6 14 C-6.99 15.485 -6.99 15.485 -8 17 C-10.5625 17.25 -10.5625 17.25 -13 17 C-14.58867866 15.41132134 -14.20794039 13.75310484 -14.25 11.5625 C-14.27578125 10.75941406 -14.3015625 9.95632812 -14.328125 9.12890625 C-14.21984375 8.42636719 -14.1115625 7.72382813 -14 7 C-11 5 -11 5 -8.125 4.0625 C-4.9599007 3.13588904 -4.9599007 3.13588904 -2.375 1.25 C-1.59125 0.8375 -0.8075 0.425 0 0 Z " fill="#BDBDBD" transform="translate(60,14)"/>
<path d="M0 0 C1.98 0.99 1.98 0.99 4 2 C3.896875 2.9075 3.79375 3.815 3.6875 4.75 C3.64908817 8.56813593 4.89790438 11.25314854 6.5 14.6875 C9.18685975 20.75583381 10.19105643 26.40948774 9 33 C7.46875 35.34375 7.46875 35.34375 6 37 C6.165 36.195625 6.33 35.39125 6.5 34.5625 C7.28740503 28.95223918 7.56429074 23.48743259 6 18 C5.34 18 4.68 18 4 18 C0.38247261 12.33778322 0.30959957 6.59767367 0 0 Z " fill="#B6B6B6" transform="translate(80,70)"/>
<path d="M0 0 C0 3 0 3 -2.25 5.625 C-4.85730848 7.87676642 -5.80056111 8.38472329 -9 9 C-8.95359375 9.71285156 -8.9071875 10.42570312 -8.859375 11.16015625 C-8.61059643 17.76167338 -8.92375333 21.71189621 -13 27 C-15.75 28.9375 -15.75 28.9375 -18 30 C-16.81503761 27.43258148 -15.64511605 25.57413926 -13.8125 23.375 C-11.54799639 19.1583381 -12.0411638 16.84411311 -12.93359375 12.26953125 C-13 10 -13 10 -11.71875 8.2890625 C-10 7 -10 7 -7.0625 5.5625 C-4.05809849 4.02964209 -2.23332091 2.49101178 0 0 Z " fill="#ACACAC" transform="translate(115,30)"/>
<path d="M0 0 C0 0.66 0 1.32 0 2 C-1.30798466 2.86106507 -2.62152007 3.71370451 -3.9375 4.5625 C-7.13200262 7.19459019 -8.24988596 9.14745865 -8.71875 13.171875 C-8.92156518 16.22708293 -8.96178487 19.270773 -8.96484375 22.33203125 C-9 26 -9 26 -10 28 C-10.66 27.67 -11.32 27.34 -12 27 C-12.1358035 24.28996573 -12.23444624 21.58681059 -12.3125 18.875 C-12.35439453 18.11445312 -12.39628906 17.35390625 -12.43945312 16.5703125 C-12.52826532 12.44942646 -12.31813535 9.84472495 -9.6484375 6.59375 C-2.91566265 0 -2.91566265 0 0 0 Z " fill="#A0A0A0" transform="translate(62,28)"/>
<path d="M0 0 C1 2 1 2 0.875 5.25 C0.69737118 8.95074942 0.69737118 8.95074942 2.49609375 11.5234375 C4.64553804 16.49228274 4.32204829 21.02756804 4.1875 26.375 C4.17396484 27.39722656 4.16042969 28.41945313 4.14648438 29.47265625 C4.11130217 31.98232049 4.06207539 34.4908809 4 37 C1.03 37 -1.94 37 -5 37 C-5 36.67 -5 36.34 -5 36 C-2.36 36 0.28 36 3 36 C2.65252647 26.25310875 2.65252647 26.25310875 0.4375 16.8125 C-1.34416484 11.5804891 -1.51786163 6.4873415 -1 1 C-0.67 0.67 -0.34 0.34 0 0 Z " fill="#C7C7C7" transform="translate(40,18)"/>
<path d="M0 0 C1.65 0 3.3 0 5 0 C1.9315153 2.97550031 0.53763669 3.96474513 -3.8125 4.25 C-5.3903125 4.12625 -5.3903125 4.12625 -7 4 C-7.33 4.99 -7.66 5.98 -8 7 C-8.78375 7.350625 -9.5675 7.70125 -10.375 8.0625 C-14.43157929 11.05664185 -14.90103745 15.23782895 -16 20 C-17.12776375 16.61670875 -17.41746278 14.54843366 -17 11 C-14.50019681 7.38917317 -12.25711326 4.37730135 -8 3 C-6.783125 2.835 -5.56625 2.67 -4.3125 2.5 C-3.219375 2.335 -2.12625 2.17 -1 2 C-0.67 1.34 -0.34 0.68 0 0 Z " fill="#9B9B9B" transform="translate(45,57)"/>
<path d="M0 0 C-1.27057182 0.47985967 -2.54146848 0.9588593 -3.8125 1.4375 C-4.87404297 1.83775391 -4.87404297 1.83775391 -5.95703125 2.24609375 C-7.62672396 2.86225186 -9.31157704 3.43719235 -11 4 C-11 4.66 -11 5.32 -11 6 C-10.071875 5.649375 -9.14375 5.29875 -8.1875 4.9375 C-5 4 -5 4 -2 5 C-2.93972656 5.36351562 -2.93972656 5.36351562 -3.8984375 5.734375 C-4.71570312 6.06953125 -5.53296875 6.4046875 -6.375 6.75 C-7.18710937 7.07484375 -7.99921875 7.3996875 -8.8359375 7.734375 C-11.33315139 9.19483944 -11.98244259 10.33869601 -13 13 C-13.66 13 -14.32 13 -15 13 C-16.195641 9.61235049 -16.09882857 8.23530611 -14.6875 4.875 C-11.31476943 1.26696265 -4.9368623 -2.46843115 0 0 Z " fill="#4D4D4D" transform="translate(57,13)"/>
<path d="M0 0 C0 3 0 3 -1.07421875 4.60546875 C-5.19381169 8.64526328 -8.14649204 9.39396618 -13.9375 9.375 C-15.95992967 9.2792367 -17.98194689 9.16387198 -20 9 C-20.33 9.66 -20.66 10.32 -21 11 C-22.32 10.34 -23.64 9.68 -25 9 C-23.91796875 7.48828125 -23.91796875 7.48828125 -22 6 C-18.92578125 5.91796875 -18.92578125 5.91796875 -15.3125 6.1875 C-9.03973901 6.3630073 -5.89248269 5.5011559 -1.2578125 1.3125 C-0.63519531 0.6628125 -0.63519531 0.6628125 0 0 Z " fill="#B9B9B9" transform="translate(100,57)"/>
<path d="M0 0 C2.79489786 4.19234679 3.4403651 8.38005004 2.61328125 13.30078125 C2.13362212 15.21601593 1.57352257 17.11074919 1 19 C0.67 19 0.34 19 0 19 C0.33 16.03 0.66 13.06 1 10 C0.34 10 -0.32 10 -1 10 C-1.33 11.65 -1.66 13.3 -2 15 C-2.33 15 -2.66 15 -3 15 C-3 11.04 -3 7.08 -3 3 C-2.01 3.495 -2.01 3.495 -1 4 C-0.67 2.68 -0.34 1.36 0 0 Z " fill="#4D4D4D" transform="translate(84,88)"/>
<path d="M0 0 C0.99 0.33 1.98 0.66 3 1 C1.4375 3.5625 1.4375 3.5625 -1 6 C-4.44445765 5.87474699 -7.28836044 5.22564181 -10.5625 4.1875 C-14.26221315 3.90290668 -16.15212965 5.81442508 -19 8 C-17.75023244 4.34683329 -17.32901247 3.21934164 -14 1 C-9.89788153 1.45579094 -5.95234259 2.8375463 -2 4 C-1.34 2.68 -0.68 1.36 0 0 Z " fill="#BDBDBD" transform="translate(77,47)"/>
<path d="M0 0 C2.21402653 2.21402653 2.66532557 3.65371045 3.03515625 6.72265625 C2.96004674 11.58808329 1.73238757 16.46966902 0 21 C-0.99 21.66 -1.98 22.32 -3 23 C-2.47731534 20.23723823 -1.89130413 17.6739124 -1 15 C-0.77281504 12.43365139 -0.58391816 9.88321893 -0.4375 7.3125 C-0.39431641 6.61060547 -0.35113281 5.90871094 -0.30664062 5.18554688 C-0.2008264 3.45724794 -0.09993419 1.7286489 0 0 Z " fill="#A4A4A4" transform="translate(79,89)"/>
<path d="M0 0 C0.33 0 0.66 0 1 0 C0.67 2.97 0.34 5.94 0 9 C1.32 9.66 2.64 10.32 4 11 C-6 11 -6 11 -8 10 C-7.566875 9.608125 -7.13375 9.21625 -6.6875 8.8125 C-4.73627342 6.71673811 -3.45154524 4.46131585 -2 2 C-1.34 1.34 -0.68 0.68 0 0 Z " fill="#3C3C3C" transform="translate(103,22)"/>
<path d="M0 0 C2.73594881 2.24488107 3.87511145 3.77773012 4.23828125 7.33203125 C4.24885617 9.57038993 4.17497555 11.76906176 4 14 C3.67 14 3.34 14 3 14 C2.31640625 10.97265625 2.31640625 10.97265625 1.6328125 7.9453125 C1.09525572 5.79280036 1.09525572 5.79280036 -1 4 C-1 3.01 -1 2.02 -1 1 C-3.64 1.33 -6.28 1.66 -9 2 C-9 1.34 -9 0.68 -9 0 C-5.77839187 -1.61080407 -3.42436421 -0.82657067 0 0 Z " fill="#757575" transform="translate(113,16)"/>
<path d="M0 0 C6.14689273 0.36881356 8.69027374 1.90050429 13 6 C9.80389448 6 8.58282374 5.45328458 5.8125 4 C5.09707031 3.62875 4.38164063 3.2575 3.64453125 2.875 C3.10183594 2.58625 2.55914062 2.2975 2 2 C3.32 3.98 4.64 5.96 6 8 C3.11562221 6.70700306 1.12780579 5.34058637 -1 3 C-0.67 2.01 -0.34 1.02 0 0 Z " fill="#4D4D4D" transform="translate(80,26)"/>
<path d="M0 0 C1.32 0.33 2.64 0.66 4 1 C3.25 5.75 3.25 5.75 1 8 C-0.32 8 -1.64 8 -3 8 C-3 6.68 -3 5.36 -3 4 C-2.34 4 -1.68 4 -1 4 C-0.67 2.68 -0.34 1.36 0 0 Z " fill="#E4E4E4" transform="translate(107,23)"/>
<path d="M0 0 C0.66 0 1.32 0 2 0 C2.12375 1.0725 2.2475 2.145 2.375 3.25 C2.89643936 6.37863615 3.40088254 8.33480424 5 11 C3.35 11 1.7 11 0 11 C-1.125 9.4375 -1.125 9.4375 -2 7 C-1.125 3.25 -1.125 3.25 0 0 Z " fill="#AFAFAF" transform="translate(74,78)"/>
<path d="M0 0 C-0.66 0.66 -1.32 1.32 -2 2 C-2.16687448 4.58354218 -2.16687448 4.58354218 -2 7 C-2.99 6.67 -3.98 6.34 -5 6 C-5.99 7.485 -5.99 7.485 -7 9 C-7 8.01 -7 7.02 -7 6 C-8.65 5.67 -10.3 5.34 -12 5 C-12 4.67 -12 4.34 -12 4 C-10.02 4 -8.04 4 -6 4 C-6 2.68 -6 1.36 -6 0 C-2.25 -1.125 -2.25 -1.125 0 0 Z " fill="#4D4D4D" transform="translate(105,38)"/>
<path d="M0 0 C3.5786304 1.65167557 6.74820188 3.78286492 10 6 C9.75 7.875 9.75 7.875 9 10 C6.9375 11.25 6.9375 11.25 5 12 C5 11.34 5 10.68 5 10 C5.66 10 6.32 10 7 10 C7 8.68 7 7.36 7 6 C6.401875 5.938125 5.80375 5.87625 5.1875 5.8125 C2.12856542 4.6763243 1.44958901 2.82669858 0 0 Z " fill="#A9A9A9" transform="translate(80,31)"/>
<path d="M0 0 C2.3125 0.8125 2.3125 0.8125 4 2 C3.625 4.4375 3.625 4.4375 3 7 C2.01 7.495 2.01 7.495 1 8 C1 6.68 1 5.36 1 4 C0.13375 4.33 -0.7325 4.66 -1.625 5 C-4.95718275 5.98731341 -7.55159538 6.16420974 -11 6 C-11 5.67 -11 5.34 -11 5 C-10.113125 4.731875 -9.22625 4.46375 -8.3125 4.1875 C-4.99302143 3.14788408 -4.99302143 3.14788408 -2.375 1.25 C-1.59125 0.8375 -0.8075 0.425 0 0 Z " fill="#9C9C9C" transform="translate(60,14)"/>
<path d="M0 0 C0 3 0 3 -2.1875 5.5625 C-5 8 -5 8 -7.75 9 C-8.4925 9.33 -9.235 9.66 -10 10 C-10.89386164 12.54775306 -10.89386164 12.54775306 -11 15 C-11.66 14.34 -12.32 13.68 -13 13 C-12.9375 11.0625 -12.9375 11.0625 -12 9 C-10.36816893 7.94410931 -8.69207001 6.9563874 -7 6 C-4.60399231 4.07029608 -2.29731448 2.04573537 0 0 Z " fill="#969696" transform="translate(115,30)"/>
<path d="M0 0 C0.33 0 0.66 0 1 0 C2.20798319 6.28151261 2.20798319 6.28151261 1.3125 9.375 C-0.33223772 11.41134194 -1.50878453 11.43746748 -4 12 C-4.33 12.99 -4.66 13.98 -5 15 C-5.66 15 -6.32 15 -7 15 C-6.25 13.125 -6.25 13.125 -5 11 C-4.3296875 10.7215625 -3.659375 10.443125 -2.96875 10.15625 C-0.78003974 9.17652635 -0.78003974 9.17652635 -0.390625 6.8359375 C-0.34421875 6.02382813 -0.2978125 5.21171875 -0.25 4.375 C-0.19328125 3.55773437 -0.1365625 2.74046875 -0.078125 1.8984375 C-0.05234375 1.27195312 -0.0265625 0.64546875 0 0 Z " fill="#AAAAAA" transform="translate(69,14)"/>
<path d="M0 0 C-0.33 0.99 -0.66 1.98 -1 3 C-3.28515625 3.94921875 -3.28515625 3.94921875 -6.0625 4.6875 C-7.44115234 5.06455078 -7.44115234 5.06455078 -8.84765625 5.44921875 C-9.55792969 5.63097656 -10.26820312 5.81273437 -11 6 C-10.67578125 4.078125 -10.67578125 4.078125 -10 2 C-6.40349908 0.40155515 -3.96602757 0 0 0 Z " fill="#181818" transform="translate(56,14)"/>
<path d="M0 0 C2.25 0.0625 2.25 0.0625 5 1 C6.81289982 3.13944699 8.04525277 5.36581789 9 8 C8.75 10.4375 8.75 10.4375 8 12 C7.67 12 7.34 12 7 12 C7 10.35 7 8.7 7 7 C6.34 7 5.68 7 5 7 C3.7109375 5.46875 3.7109375 5.46875 2.375 3.5 C1.70597656 2.52546875 1.70597656 2.52546875 1.0234375 1.53125 C0.68570313 1.0259375 0.34796875 0.520625 0 0 Z " fill="#B5B5B5" transform="translate(63,7)"/>
<path d="M0 0 C0.33 1.32 0.66 2.64 1 4 C-1.97 4 -4.94 4 -8 4 C-7.67 3.01 -7.34 2.02 -7 1 C-4.53721199 -0.231394 -2.7204945 -0.07159196 0 0 Z " fill="#2B2B2B" transform="translate(16,71)"/>
<path d="M0 0 C3.51449145 0.01678897 4.38059167 0.07296179 7.25 2.3125 C7.724375 2.9725 8.19875 3.6325 8.6875 4.3125 C7.965625 3.9825 7.24375 3.6525 6.5 3.3125 C3.67052573 2.30646471 1.65854534 2.14272598 -1.3125 2.3125 C-1.3125 3.6325 -1.3125 4.9525 -1.3125 6.3125 C-1.9725 6.3125 -2.6325 6.3125 -3.3125 6.3125 C-3.9725 4.6625 -4.6325 3.0125 -5.3125 1.3125 C-3.74308802 -0.25691198 -2.17115006 0.0675153 0 0 Z " fill="#8B8B8B" transform="translate(81.3125,24.6875)"/>
<path d="M0 0 C1.65 0 3.3 0 5 0 C1.9315153 2.97550031 0.53763669 3.96474513 -3.8125 4.25 C-4.864375 4.1675 -5.91625 4.085 -7 4 C-7.33 4.99 -7.66 5.98 -8 7 C-10.0625 7.6875 -10.0625 7.6875 -12 8 C-11.28515625 6.0703125 -11.28515625 6.0703125 -10 4 C-7.87109375 3.2421875 -7.87109375 3.2421875 -5.4375 2.875 C-3.05747874 2.53771341 -3.05747874 2.53771341 -1 2 C-0.67 1.34 -0.34 0.68 0 0 Z " fill="#B5B5B5" transform="translate(45,57)"/>
<path d="M0 0 C0.66 0.33 1.32 0.66 2 1 C0.576875 2.36125 0.576875 2.36125 -0.875 3.75 C-2.78918545 5.63302429 -3.92567171 6.82811584 -5 9.3125 C-5.495 10.1478125 -5.495 10.1478125 -6 11 C-9.125 11.75 -9.125 11.75 -12 12 C-11 10 -11 10 -9.171875 9.1328125 C-6.54966969 7.76511549 -5.14414977 6.13340934 -3.25 3.875 C-2.63640625 3.15054688 -2.0228125 2.42609375 -1.390625 1.6796875 C-0.70226562 0.84824219 -0.70226562 0.84824219 0 0 Z " fill="#454545" transform="translate(83,44)"/>
<path d="M0 0 C2.475 0.495 2.475 0.495 5 1 C5.75 3.6875 5.75 3.6875 6 7 C4.0625 9.875 4.0625 9.875 2 12 C1.82057837 8.05272412 1.90649311 5.4019487 4 2 C2.68 1.34 1.36 0.68 0 0 Z " fill="#9F9F9F" transform="translate(93,43)"/>
<path d="M0 0 C4.00653305 0.6163897 6.80463901 2.58572726 10 5 C10.33 5.99 10.66 6.98 11 8 C2.65454545 3.98181818 2.65454545 3.98181818 0 0 Z " fill="#B3B3B3" transform="translate(35,116)"/>
<path d="M0 0 C0.66 0 1.32 0 2 0 C0.9280096 3.4541913 -0.09716431 4.05218083 -3.375 5.8125 C-6.941828 6.98094365 -7.67475827 7.07667519 -11 6 C-10.28972656 5.65066406 -9.57945313 5.30132812 -8.84765625 4.94140625 C-7.92855469 4.48636719 -7.00945312 4.03132813 -6.0625 3.5625 C-4.68771484 2.88380859 -4.68771484 2.88380859 -3.28515625 2.19140625 C-1.09471096 1.19474606 -1.09471096 1.19474606 0 0 Z " fill="#A3A3A3" transform="translate(74,112)"/>
<path d="M0 0 C0.33 0 0.66 0 1 0 C0.125 6.875 0.125 6.875 -1 8 C-3.33297433 8.04092937 -5.66705225 8.04241723 -8 8 C-8.33 7.01 -8.66 6.02 -9 5 C-8.34 4.34 -7.68 3.68 -7 3 C-7 4.32 -7 5.64 -7 7 C-4.52372901 6.36078035 -4.52372901 6.36078035 -2 5 C-0.63921965 2.47627099 -0.63921965 2.47627099 0 0 Z " fill="#797979" transform="translate(111,24)"/>
<path d="M0 0 C0.061875 0.61875 0.12375 1.2375 0.1875 1.875 C0.828919 4.27761141 0.828919 4.27761141 3.5625 5.25 C4.366875 5.4975 5.17125 5.745 6 6 C6 6.99 6 7.98 6 9 C3.04590299 7.62845496 0.55991624 6.01136276 -2 4 C-1.34 2.68 -0.68 1.36 0 0 Z " fill="#B8B8B8" transform="translate(57,55)"/>
<path d="M0 0 C1.98 0.495 1.98 0.495 4 1 C4 2.32 4 3.64 4 5 C2.35 4.67 0.7 4.34 -1 4 C-0.67 2.68 -0.34 1.36 0 0 Z " fill="#404040" transform="translate(43,95)"/>
<path d="M0 0 C1.485 0.99 1.485 0.99 3 2 C2.625 4.4375 2.625 4.4375 2 7 C1.01 7.495 1.01 7.495 0 8 C-0.38063221 5.6739143 -0.71269945 3.33944736 -1 1 C-0.67 0.67 -0.34 0.34 0 0 Z " fill="#181818" transform="translate(100,43)"/>
<path d="M0 0 C0.99 0.33 1.98 0.66 3 1 C2.67 1.99 2.34 2.98 2 4 C2.99 4.66 3.98 5.32 5 6 C3.35 6 1.7 6 0 6 C-0.66 4.68 -1.32 3.36 -2 2 C-1.34 1.34 -0.68 0.68 0 0 Z " fill="#C7C7C7" transform="translate(5,71)"/>
<path d="M0 0 C0.33 0.99 0.66 1.98 1 3 C-0.32 4.32 -1.64 5.64 -3 7 C-3.99 6.67 -4.98 6.34 -6 6 C-6 5.34 -6 4.68 -6 4 C-4.02 3.34 -2.04 2.68 0 2 C0 1.34 0 0.68 0 0 Z " fill="#A7A7A7" transform="translate(98,26)"/>
<path d="M0 0 C0.12375 0.598125 0.2475 1.19625 0.375 1.8125 C0.95475985 4.26231348 0.95475985 4.26231348 3 7 C1.68 6.67 0.36 6.34 -1 6 C-1.625 4.125 -1.625 4.125 -2 2 C-1.34 1.34 -0.68 0.68 0 0 Z " fill="#C7C7C7" transform="translate(70,70)"/>
<path d="M0 0 C0 3.90838866 -1.50567876 5.11594107 -4 8 C-4 6.02 -4 4.04 -4 2 C-2.68 1.34 -1.36 0.68 0 0 Z " fill="#A0A0A0" transform="translate(103,18)"/>
<path d="M0 0 C1.2065625 0.0309375 1.2065625 0.0309375 2.4375 0.0625 C-0.25091859 2.31495881 -2.20891875 3.94463958 -5.5625 5.0625 C-3.15007962 0.07683121 -3.15007962 0.07683121 0 0 Z " fill="#AAAAAA" transform="translate(60.5625,6.9375)"/>
</svg>
