<?xml version="1.0" encoding="iso-8859-1"?>
<svg height="128" version="1.1" width="128" xmlns="http://www.w3.org/2000/svg">
	

	<path d="M0 0 C42.24 0 84.48 0 128 0 C128 42.24 128 84.48 128 128 C85.76 128 43.52 128 0 128 C0 85.76 0 43.52 0 0 Z " fill="#FCFCFC" transform="translate(0,0)"/>
	

	<path d="M0 0 C2.64 0.33 5.28 0.66 8 1 C8.33 2.65 8.66 4.3 9 6 C9.73992188 6.06445312 10.47984375 6.12890625 11.2421875 6.1953125 C14.86740589 7.25309577 15.90182823 8.86717937 18.125 11.875 C20.75770445 15.43904527 20.75770445 15.43904527 23.7421875 18.6953125 C25 20 25 20 25 22 C28.42734817 20.68037931 31.67765678 19.18914467 34.9375 17.5 C38.56606258 15.66684803 42.07880925 14.12034022 46 13 C46.61875 12.72800781 47.2375 12.45601562 47.875 12.17578125 C50 12 50 12 52.2265625 13.80859375 C53.01804688 14.67613281 53.80953125 15.54367188 54.625 16.4375 C58.063316 20.03325736 61.50667611 23.47900273 65.3125 26.6875 C66.09238281 27.35136719 66.87226562 28.01523437 67.67578125 28.69921875 C69.95205835 30.25351983 69.95205835 30.25351983 72.70703125 29.80078125 C75.04664785 29.18658009 75.04664785 29.18658009 76.375 27.5 C79.17874669 24.91192613 81.24417612 24.87685823 85 25 C88.10762756 26.91097726 90.49519666 29.36724993 93 32 C93.64582031 32.63808594 94.29164062 33.27617188 94.95703125 33.93359375 C99.18318464 38.35548477 102.07607406 42.8558925 103 49 C102.78125 51.12109375 102.78125 51.12109375 102 53 C100.46875 54.23828125 100.46875 54.23828125 98.5 55.3125 C93.65307933 58.13914783 89.35319636 61.47038133 85 65 C84.35675781 65.51820312 83.71351562 66.03640625 83.05078125 66.5703125 C78.32339972 70.48757876 74.44544281 74.53739373 71.3125 79.875 C70.879375 80.57625 70.44625 81.2775 70 82 C69.34 82 68.68 82 68 82 C67.505 83.98 67.505 83.98 67 86 C66.34 86 65.68 86 65 86 C64.79117188 86.74894531 64.58234375 87.49789062 64.3671875 88.26953125 C62.5761329 91.84652316 60.6113525 92.79089014 57.125 94.6875 C56.07570312 95.26886719 55.02640625 95.85023437 53.9453125 96.44921875 C51.64260341 97.66165311 49.33644852 98.85435012 47 100 C47 100.66 47 101.32 47 102 C43.47121544 105.5366263 39.91900149 108.76971982 34.875 109.375 C31.48270411 107.75259762 29.52889238 105.77511154 26.98828125 103.04296875 C21.70021009 97.60944966 15.83863031 93.2483494 9 90 C6.54188375 86.31282562 6.68881836 84.35654296 7 80 C7.66 79.01 8.32 78.02 9 77 C9.03314606 74.44084368 9.03314606 74.44084368 8 72 C5.78370146 70.34203821 3.48981669 69.18226333 1.03125 67.91796875 C-2.02454238 65.03259556 -1.87657592 61.9872188 -2 58 C-2.03206543 56.99251709 -2.06413086 55.98503418 -2.09716797 54.94702148 C-2.17000399 51.50539375 -2.18559393 48.06736091 -2.1875 44.625 C-2.19974609 43.43777344 -2.21199219 42.25054687 -2.22460938 41.02734375 C-2.22654297 39.89683594 -2.22847656 38.76632813 -2.23046875 37.6015625 C-2.23663208 36.05976318 -2.23663208 36.05976318 -2.24291992 34.48681641 C-2 32 -2 32 0 30 C0.99 30 1.98 30 3 30 C2.84080078 29.43394043 2.68160156 28.86788086 2.51757812 28.28466797 C1.99026174 25.95701386 1.81143464 23.82799787 1.71875 21.4453125 C1.68136719 20.58292969 1.64398437 19.72054688 1.60546875 18.83203125 C1.55326172 17.49205078 1.55326172 17.49205078 1.5 16.125 C1.28574476 10.67339439 1.06302315 5.36826692 0 0 Z " fill="#67217E" transform="translate(17,5)"/>
	

	<path d="M0 0 C2.64 0.33 5.28 0.66 8 1 C8.33 2.65 8.66 4.3 9 6 C9.73992188 6.06445312 10.47984375 6.12890625 11.2421875 6.1953125 C14.86740589 7.25309577 15.90182823 8.86717937 18.125 11.875 C20.75770445 15.43904527 20.75770445 15.43904527 23.7421875 18.6953125 C25 20 25 20 25 22 C29.3668787 20.3312285 33.39297846 18.24379602 37.5 16.0234375 C40.20005182 14.91810379 42.11217159 14.80404021 45 15 C41.49636743 18.01970542 38.21359553 19.99847667 33.9375 21.75 C32.91527344 22.17796875 31.89304688 22.6059375 30.83984375 23.046875 C28 24 28 24 24 24 C23.05248361 22.61256529 22.11682121 21.21501308 21.25390625 19.7734375 C19.28123651 16.98343108 16.70184738 14.99416724 14.09765625 12.80859375 C11.39239453 10.47612414 8.92304581 7.95274054 6.4453125 5.3828125 C5.02890223 3.89145515 5.02890223 3.89145515 3 3 C3.165 4.216875 3.33 5.43375 3.5 6.6875 C4.11441484 11.84858462 3.91078117 16.8994456 3.64453125 22.08203125 C4.08574979 25.70390214 5.31642777 26.65385139 8 29 C8 29.66 8 30.32 8 31 C9.32 31 10.64 31 12 31 C13.81371473 32.60643305 15.3679522 34.21995794 17 36 C18.49454551 37.50543473 19.99501665 39.00499996 21.5 40.5 C22.66982422 41.67175781 22.66982422 41.67175781 23.86328125 42.8671875 C25.4617853 44.46276924 27.0717795 46.0468544 28.6875 47.625 C37 56.16216216 37 56.16216216 37 59 C42.1367921 59.19756893 46.32774216 58.58463057 51.25 57.125 C52.45140625 56.77695312 53.6528125 56.42890625 54.890625 56.0703125 C58.11218118 55.10842759 58.11218118 55.10842759 61 53 C63.5 52.6875 63.5 52.6875 66 53 C67.8125 54.5 67.8125 54.5 69 56 C67.59830413 59.5005703 66.3302124 60.62577525 62.9375 62.1875 C57.3650008 65.09567624 52.92767282 69.0991761 49 74 C48.62674747 75.32271366 48.28254099 76.65498718 48 78 C45.56408279 79.21795861 44.32412883 78.94217098 41.625 78.75 C34.42156391 78.68736143 27.55467449 81.16819774 21.90625 85.66796875 C20.08518112 87.42583007 20.08518112 87.42583007 18 90 C19.6032131 94.11556534 22.57108522 96.76057237 25.75 99.6875 C26.26304688 100.18572266 26.77609375 100.68394531 27.3046875 101.19726562 C30.72189773 104.36119017 33.27172725 106.13943968 38 106 C40.61006417 104.38153989 40.61006417 104.38153989 42.875 101.9375 C54.18847656 91 54.18847656 91 58 91 C58 90.34 58 89.68 58 89 C60.15572455 86.64830049 62.30075517 84.54319019 64.8203125 82.5859375 C69.32420679 79.06197 71.12032066 76.71791573 72 71 C71.67 70.34 71.34 69.68 71 69 C69.90229192 57.50542823 69.90229192 57.50542823 73.1875 53 C74.115625 52.34 75.04375 51.68 76 51 C78.8971941 48.68726558 78.8971941 48.68726558 81 46 C81.17385747 41.82742062 80.33493632 40.37787687 77.5625 37.25 C76.2940625 36.13625 76.2940625 36.13625 75 35 C74.34 34.34 73.68 33.68 73 33 C70.68351201 31.96157435 68.35096976 30.9578025 66 30 C66.33 29.34 66.66 28.68 67 28 C67.99 28.66 68.98 29.32 70 30 C72.82226903 29.78832982 74.42810554 29.62388486 76.375 27.5 C79.17874669 24.91192613 81.24417612 24.87685823 85 25 C88.10762756 26.91097726 90.49519666 29.36724993 93 32 C93.64582031 32.63808594 94.29164062 33.27617188 94.95703125 33.93359375 C99.18318464 38.35548477 102.07607406 42.8558925 103 49 C102.78125 51.12109375 102.78125 51.12109375 102 53 C100.46875 54.23828125 100.46875 54.23828125 98.5 55.3125 C93.65307933 58.13914783 89.35319636 61.47038133 85 65 C84.35675781 65.51820312 83.71351562 66.03640625 83.05078125 66.5703125 C78.32339972 70.48757876 74.44544281 74.53739373 71.3125 79.875 C70.879375 80.57625 70.44625 81.2775 70 82 C69.34 82 68.68 82 68 82 C67.505 83.98 67.505 83.98 67 86 C66.34 86 65.68 86 65 86 C64.79117188 86.74894531 64.58234375 87.49789062 64.3671875 88.26953125 C62.5761329 91.84652316 60.6113525 92.79089014 57.125 94.6875 C56.07570312 95.26886719 55.02640625 95.85023437 53.9453125 96.44921875 C51.64260341 97.66165311 49.33644852 98.85435012 47 100 C47 100.66 47 101.32 47 102 C43.47121544 105.5366263 39.91900149 108.76971982 34.875 109.375 C31.48270411 107.75259762 29.52889238 105.77511154 26.98828125 103.04296875 C21.70021009 97.60944966 15.83863031 93.2483494 9 90 C6.54188375 86.31282562 6.68881836 84.35654296 7 80 C7.66 79.01 8.32 78.02 9 77 C9.03314606 74.44084368 9.03314606 74.44084368 8 72 C5.78370146 70.34203821 3.48981669 69.18226333 1.03125 67.91796875 C-2.02454238 65.03259556 -1.87657592 61.9872188 -2 58 C-2.03206543 56.99251709 -2.06413086 55.98503418 -2.09716797 54.94702148 C-2.17000399 51.50539375 -2.18559393 48.06736091 -2.1875 44.625 C-2.19974609 43.43777344 -2.21199219 42.25054687 -2.22460938 41.02734375 C-2.22654297 39.89683594 -2.22847656 38.76632813 -2.23046875 37.6015625 C-2.23663208 36.05976318 -2.23663208 36.05976318 -2.24291992 34.48681641 C-2 32 -2 32 0 30 C0.99 30 1.98 30 3 30 C2.84080078 29.43394043 2.68160156 28.86788086 2.51757812 28.28466797 C1.99026174 25.95701386 1.81143464 23.82799787 1.71875 21.4453125 C1.68136719 20.58292969 1.64398437 19.72054688 1.60546875 18.83203125 C1.55326172 17.49205078 1.55326172 17.49205078 1.5 16.125 C1.28574476 10.67339439 1.06302315 5.36826692 0 0 Z " fill="#CFD783" transform="translate(17,5)"/>
	

	<path d="M0 0 C3.8927186 1.79393201 6.50440999 4.3087711 9.4375 7.375 C12.10294617 10.14026176 14.70873773 12.78022567 17.78515625 15.1015625 C20 17 20 17 21 21 C24.3 20.01 27.6 19.02 31 18 C30.0022242 20.99332739 29.2477975 21.94766315 27 24 C28.134375 23.62875 29.26875 23.2575 30.4375 22.875 C32.6484375 22.58984375 32.6484375 22.58984375 35 23 C38.5296503 25.89720443 41.19915654 29.41189243 44 33 C45.23912695 34.46758322 46.48809434 35.92695642 47.75 37.375 C48.30816406 38.01824219 48.86632812 38.66148438 49.44140625 39.32421875 C51.43832917 41.47128625 53.69562458 43.19386792 56 45 C57.37368345 46.63356951 58.71937515 48.2925002 60 50 C51.9063806 54.4285842 43.30736186 58.45261563 34 56 C31.34765625 53.56640625 31.34765625 53.56640625 29.0625 50.5625 C28.29035156 49.57378906 27.51820312 48.58507813 26.72265625 47.56640625 C25 45 25 45 25 43 C24.4225 42.75121094 23.845 42.50242188 23.25 42.24609375 C20.68215183 40.82396951 19.02250956 39.18376491 17 37.0625 C14.98488732 34.95686468 13.11337977 33.08208223 10.75 31.37109375 C10.1725 30.91863281 9.595 30.46617188 9 30 C9 29.34 9 28.68 9 28 C7.68 28 6.36 28 5 28 C1.78061781 25.30106157 0.25232146 23.62565784 -0.39697266 19.44238281 C-0.49193668 16.48783379 -0.43634928 13.57832901 -0.3125 10.625 C-0.28994141 9.60277344 -0.26738281 8.58054687 -0.24414062 7.52734375 C-0.18548082 5.01670419 -0.10345928 2.50912621 0 0 Z " fill="#E44E86" transform="translate(20,8)"/>
	

	<path d="M0 0 C6.16754366 1.31580771 10.34210306 5.95710677 15 10 C15.54946289 10.47421387 16.09892578 10.94842773 16.66503906 11.43701172 C18.32962828 12.88328625 19.97959737 14.34445508 21.625 15.8125 C22.14578125 16.26802246 22.6665625 16.72354492 23.203125 17.19287109 C26.15913078 19.87718516 26.99490426 20.97961705 28 25 C16.12 25.99 16.12 25.99 4 27 C9.46083791 29.87540777 9.46083791 29.87540777 14.890625 30.4765625 C16.20160156 30.52296875 16.20160156 30.52296875 17.5390625 30.5703125 C18.88097656 30.59738281 18.88097656 30.59738281 20.25 30.625 C22.0469861 30.67590612 23.84387489 30.73041487 25.640625 30.7890625 C26.42985352 30.80662598 27.21908203 30.82418945 28.03222656 30.84228516 C30 31 30 31 32 32 C31.64031174 35.23719431 31.3970086 36.63908309 28.9375 38.875 C27.9784375 39.926875 27.9784375 39.926875 27 41 C27.05542969 42.08539063 27.11085938 43.17078125 27.16796875 44.2890625 C26.95532185 48.98707533 25.68770319 50.25570071 22.375 53.5 C21.51648438 54.3765625 20.65796875 55.253125 19.7734375 56.15625 C17 58 17 58 13.78515625 57.921875 C11 57 11 57 9.0625 54.75 C7.78292044 51.43814701 8.0027623 50.37526607 9 47 C9.36209289 45.39760384 9.71571226 43.793278 10.0625 42.1875 C10.37448212 40.79155082 10.68680856 39.39567835 11 38 C10.29875 37.7525 9.5975 37.505 8.875 37.25 C5.62997541 35.83911974 2.89683263 34.02104602 0 32 C0.185625 31.21625 0.37125 30.4325 0.5625 29.625 C1.25962266 27.02910225 1.25962266 27.02910225 0 25 C-0.084915 23.1136088 -0.107193 21.22421485 -0.09765625 19.3359375 C-0.09443359 18.21445312 -0.09121094 17.09296875 -0.08789062 15.9375 C-0.07951172 14.761875 -0.07113281 13.58625 -0.0625 12.375 C-0.05798828 11.19164062 -0.05347656 10.00828125 -0.04882812 8.7890625 C-0.03701467 5.85932493 -0.02054258 2.92968728 0 0 Z " fill="#A0C23E" transform="translate(17,38)"/>
	

	<path d="M0 0 C2.37157527 1.74870778 4.18724187 3.27976932 6.1875 5.375 C6.70852295 5.90867187 7.2295459 6.44234375 7.76635742 6.9921875 C12.09740912 11.65523379 15.04278036 16.60451053 16 23 C15.79296875 25.16796875 15.79296875 25.16796875 15 27 C13.46875 28.23828125 13.46875 28.23828125 11.5 29.3125 C4.28866624 33.52340382 -1.91654076 38.88728777 -8.13671875 44.421875 C-10.627778 46.53170296 -13.23390585 48.27119116 -16 50 C-15.814375 49.21625 -15.62875 48.4325 -15.4375 47.625 C-14.74037734 45.02910225 -14.74037734 45.02910225 -16 43 C-17.09770808 31.50542823 -17.09770808 31.50542823 -13.8125 27 C-12.884375 26.34 -11.95625 25.68 -11 25 C-8.1028059 22.68726558 -8.1028059 22.68726558 -6 20 C-5.82614253 15.82742062 -6.66506368 14.37787687 -9.4375 11.25 C-10.283125 10.5075 -11.12875 9.765 -12 9 C-12.66 8.34 -13.32 7.68 -14 7 C-16.31648799 5.96157435 -18.64903024 4.9578025 -21 4 C-20.67 3.34 -20.34 2.68 -20 2 C-18.515 2.99 -18.515 2.99 -17 4 C-13.21297701 3.71597328 -11.47065572 2.82360654 -9 0 C-5.75639139 -1.6218043 -3.46602295 -0.82781441 0 0 Z " fill="#E76CA4" transform="translate(104,31)"/>
	

	<path d="M0 0 C2.9375 2.125 2.9375 2.125 5 5 C5.9332678 6.06621936 6.87079148 7.12872827 7.8125 8.1875 C10 11 10 11 10 13 C8.21675916 14.45928542 6.37079334 15.84228846 4.5 17.1875 C0.64983172 19.96546952 -2.95729624 22.82033313 -6.375 26.125 C-8.90630975 28.35881562 -9.61866141 28.95330548 -13.0625 29.375 C-16.52801135 27.75284575 -18.54245172 25.77459915 -21.12109375 22.98828125 C-24.18849716 19.74231797 -27.60787919 16.89872142 -31 14 C-28.08064787 7.75769868 -24.19890823 4.19836526 -17.875 1.625 C-11.95078204 -0.29308696 -6.17395154 -1.06767583 0 0 Z " fill="#1F83AB" transform="translate(65,83)"/>
	

	<path d="M0 0 C1.75725494 6.12786339 3.16529145 13.99544414 0.01416016 19.82324219 C-2.62546937 23.5615955 -5.72940391 26.81116882 -9 30 C-13.27889914 29.18237596 -15.04548341 27.1817871 -18 24 C-18.598125 23.525625 -19.19625 23.05125 -19.8125 22.5625 C-21.72958228 20.04002331 -21.33665598 18.0822725 -21 15 C-16.71797447 9.05522552 -7.98530811 0 0 0 Z " fill="#69227F" transform="translate(86,64)"/>
	

	<path d="M0 0 C4.11762216 1.88546953 6.93067632 4.67016448 10.0625 7.875 C10.59166016 8.40480469 11.12082031 8.93460938 11.66601562 9.48046875 C18.75818069 16.652721 18.75818069 16.652721 19.4375 20.4375 C18.65901317 24.99720859 15.25518839 27.90757103 12 31 C6.743206 29.14466094 2.63783496 27.22678539 0 22 C-0.59491464 18.1850962 -0.47390554 14.47390138 -0.3125 10.625 C-0.28994141 9.60277344 -0.26738281 8.58054687 -0.24414062 7.52734375 C-0.18548082 5.01670419 -0.10345928 2.50912621 0 0 Z " fill="#57126E" transform="translate(20,8)"/>
	

	<path d="M0 0 C2.125 0.9375 2.125 0.9375 4 2 C3 5 3 5 1.21484375 6.140625 C0.46332031 6.50671875 -0.28820312 6.8728125 -1.0625 7.25 C-6.32615544 10.03317883 -12.40708025 13.60665371 -15.01953125 19.171875 C-15.34308594 19.77515625 -15.66664062 20.3784375 -16 21 C-19.25 21.6875 -19.25 21.6875 -23 22 C-27.20345659 22.6004938 -30.99890432 23.57103726 -35 25 C-35.375 22.8125 -35.375 22.8125 -35 20 C-33.54308074 18.73733664 -32.07709078 17.48021388 -30.53125 16.328125 C-28.18719404 14.29501523 -27.18970828 11.81773014 -26 9 C-25.67 8.34 -25.34 7.68 -25 7 C-23.84242187 7.06058594 -22.68484375 7.12117188 -21.4921875 7.18359375 C-16.85866094 7.1825727 -13.32161247 5.91120933 -9.125 4.0625 C-8.46242188 3.78470703 -7.79984375 3.50691406 -7.1171875 3.22070312 C-4.71317827 2.20681712 -2.33399883 1.16699942 0 0 Z " fill="#E4D4DB" transform="translate(80,59)"/>
	

	<path d="M0 0 C2.875 2 2.875 2 5 4 C5 4.66 5 5.32 5 6 C5.58523437 6.25394531 6.17046875 6.50789063 6.7734375 6.76953125 C11.82428246 9.56078768 15.31109568 14.29271538 17.4375 19.5625 C18.92842105 28.67368421 18.92842105 28.67368421 16.25 32.5 C12.53694963 35.74087055 8.03690869 37.98464633 3.7421875 40.3515625 C1.37931658 41.77197778 -0.13397277 43.03179837 -2 45 C-4.2730505 46.55924177 -6.52762693 47.74133735 -9 49 C-9.66 48.67 -10.32 48.34 -11 48 C-4.99350377 42.35715385 1.01813201 37.37530394 8 33 C9.19013603 32.21230172 10.37799585 31.42114213 11.5625 30.625 C12.366875 30.08875 13.17125 29.5525 14 29 C13.73988711 27.62293175 13.46626234 26.24841445 13.1875 24.875 C13.03667969 24.10929687 12.88585937 23.34359375 12.73046875 22.5546875 C11.10843257 16.88189787 8.34625006 12.87915961 4.25 8.6875 C3.43015625 7.82511719 2.6103125 6.96273437 1.765625 6.07421875 C-2.06647329 3.20014503 -5.59854983 2.80528782 -10.3125 3.1875 C-12.61719775 4.29716929 -13.09754647 5.66866171 -14 8 C-17.23238414 7.92303847 -19.33227795 7.62561345 -21.734375 5.375 C-23.21851673 3.62229929 -24.63844334 1.84920638 -26 0 C-22.34683329 1.24976756 -21.21934164 1.67098753 -19 5 C-16.19511388 4.59930198 -15.10334587 4.10334587 -13.0625 2.0625 C-8.70676656 -2.29323344 -5.53058379 -2.5348509 0 0 Z " fill="#E6DEE0" transform="translate(105,28)"/>
	

	<path d="M0 0 C2 0 2 0 4.0625 1.9375 C5.04216093 2.95785901 6.0212345 3.97878202 7 5 C8.49728015 6.50271493 9.99750209 8.00250208 11.5 9.5 C12.27988281 10.28117187 13.05976562 11.06234375 13.86328125 11.8671875 C15.4617853 13.46276924 17.0717795 15.0468544 18.6875 16.625 C27 25.16216216 27 25.16216216 27 28 C32.1367921 28.19756893 36.32774216 27.58463057 41.25 26.125 C42.45140625 25.77695312 43.6528125 25.42890625 44.890625 25.0703125 C48.11218118 24.10842759 48.11218118 24.10842759 51 22 C53.5 21.6875 53.5 21.6875 56 22 C57.8125 23.5 57.8125 23.5 59 25 C57.59830413 28.5005703 56.3302124 29.62577525 52.9375 31.1875 C47.3650008 34.09567624 42.92767282 38.0991761 39 43 C38.62674747 44.32271366 38.28254099 45.65498718 38 47 C35.56884514 48.21557743 34.20209683 48.00326409 31.5 47.875 C25.92425931 47.79372098 21.21525071 49.13582528 16 51 C17 48 17 48 18.93359375 46.83203125 C25.1550884 44.29878616 30.30264872 43.48701139 37 44 C37.22171875 43.27039063 37.4434375 42.54078125 37.671875 41.7890625 C39.31633907 38.33568795 41.26549035 36.74792981 44.25 34.375 C45.18328125 33.61960938 46.1165625 32.86421875 47.078125 32.0859375 C49.94914643 30.03630455 52.80561255 28.48378352 56 27 C55.505 25.515 55.505 25.515 55 24 C50.78160619 25.35545987 46.71735393 26.93058711 42.625 28.625 C37.36710467 30.64312156 33.58596668 31.89774465 28 31 C24.96439304 29.17863582 23.39399909 27.68054389 21.625 24.625 C20.09994184 22.16144452 18.94466897 20.98712856 16.75 19.1875 C12.67788114 15.8440761 9.3860251 12.01993847 6 8 C5.41476563 7.3296875 4.82953125 6.659375 4.2265625 5.96875 C0 1.12705399 0 1.12705399 0 0 Z " fill="#E276AA" transform="translate(27,36)"/>
	

	<path d="M0 0 C2.64 0.33 5.28 0.66 8 1 C8.33 2.65 8.66 4.3 9 6 C9.73992188 6.06445312 10.47984375 6.12890625 11.2421875 6.1953125 C14.86740589 7.25309577 15.90182823 8.86717937 18.125 11.875 C20.75770445 15.43904527 20.75770445 15.43904527 23.7421875 18.6953125 C25 20 25 20 25 22 C29.3668787 20.3312285 33.39297846 18.24379602 37.5 16.0234375 C40.20005182 14.91810379 42.11217159 14.80404021 45 15 C41.49636743 18.01970542 38.21359553 19.99847667 33.9375 21.75 C32.91527344 22.17796875 31.89304687 22.6059375 30.83984375 23.046875 C28 24 28 24 24 24 C23.05248361 22.61256529 22.11682121 21.21501308 21.25390625 19.7734375 C19.28123651 16.98343108 16.70184738 14.99416724 14.09765625 12.80859375 C11.39239453 10.47612414 8.92304581 7.95274054 6.4453125 5.3828125 C5.02890223 3.89145515 5.02890223 3.89145515 3 3 C3.165 4.216875 3.33 5.43375 3.5 6.6875 C4.10971946 11.81727305 3.91203714 16.83333128 3.64453125 21.984375 C4.08465203 25.71814692 5.45915298 27.30440591 8 30 C5.53199953 28.84826645 3.95216435 27.95216435 2 26 C1.69702148 24.03222656 1.69702148 24.03222656 1.62109375 21.640625 C1.56985352 20.33738281 1.56985352 20.33738281 1.51757812 19.0078125 C1.49115234 18.09773438 1.46472656 17.18765625 1.4375 16.25 C1.16770691 8.08227008 1.16770691 8.08227008 0 0 Z " fill="#E1C5D4" transform="translate(17,5)"/>
	

	<path d="M0 0 C0.66 0.33 1.32 0.66 2 1 C1.401875 1.556875 0.80375 2.11375 0.1875 2.6875 C-2.09594756 4.93000022 -2.09594756 4.93000022 -3.625 7.75 C-4.07875 8.4925 -4.5325 9.235 -5 10 C-5.66 10 -6.32 10 -7 10 C-7.33 11.32 -7.66 12.64 -8 14 C-8.66 14 -9.32 14 -10 14 C-10.20882812 14.74894531 -10.41765625 15.49789062 -10.6328125 16.26953125 C-12.4238671 19.84652316 -14.3886475 20.79089014 -17.875 22.6875 C-18.92429688 23.26886719 -19.97359375 23.85023437 -21.0546875 24.44921875 C-23.35739659 25.66165311 -25.66355148 26.85435012 -28 28 C-28 28.66 -28 29.32 -28 30 C-31.52878456 33.5366263 -35.08099851 36.76971982 -40.125 37.375 C-43.51366818 35.75433261 -45.46539043 33.79087311 -47.98828125 31.046875 C-51.06785843 27.91347996 -54.56364135 25.35038234 -58.05859375 22.69921875 C-59.01958984 21.85810547 -59.01958984 21.85810547 -60 21 C-60 20.34 -60 19.68 -60 19 C-55.04908794 20.91998785 -51.62392606 25.05189797 -47.953125 28.74414062 C-45.30129732 31.29948161 -43.39736752 32.85622884 -39.890625 34.125 C-35.99452544 33.95652002 -34.8431081 32.67788768 -32.125 29.9375 C-20.81152344 19 -20.81152344 19 -17 19 C-17 18.34 -17 17.68 -17 17 C-14.3448818 14.10350742 -11.51524651 11.57630508 -8.5 9.0625 C-5.23559582 6.3124002 -2.63461098 3.35314125 0 0 Z " fill="#80B8C6" transform="translate(92,77)"/>
	

	<path d="M0 0 C3.73639216 1.24546405 4.18756513 2.63404953 6 6 C3.03 5.505 3.03 5.505 0 5 C0.31710938 5.73476562 0.63421875 6.46953125 0.9609375 7.2265625 C2.43682294 12.58635701 2.46849617 17.83867692 2.625 23.375 C2.66367187 24.49261719 2.70234375 25.61023438 2.7421875 26.76171875 C2.83606555 29.50765161 2.92174911 32.25358476 3 35 C1.68 35.66 0.36 36.32 -1 37 C-1.02926019 41.16665169 -1.04688594 45.33327659 -1.0625 49.5 C-1.07087891 50.67304687 -1.07925781 51.84609375 -1.08789062 53.0546875 C-1.11736801 62.07391785 -1.11736801 62.07391785 0 71 C0.66 71.66 1.32 72.32 2 73 C0.68 72.67 -0.64 72.34 -2 72 C-3.12907358 65.32289248 -3.44176862 58.63353684 -3.75 51.875 C-3.81832031 50.70839844 -3.88664063 49.54179688 -3.95703125 48.33984375 C-4.00730469 47.21449219 -4.05757812 46.08914062 -4.109375 44.9296875 C-4.16061523 43.91116699 -4.21185547 42.89264648 -4.26464844 41.84326172 C-3.95325534 38.49779678 -2.77368169 36.8115615 -1 34 C-0.47819755 31.6670526 -0.47819755 31.6670526 -0.41796875 29.27734375 C-0.37349609 28.40916016 -0.32902344 27.54097656 -0.28320312 26.64648438 C-0.25162109 25.75251953 -0.22003906 24.85855469 -0.1875 23.9375 C-0.13658203 23.03966797 -0.08566406 22.14183594 -0.03320312 21.21679688 C0.16305994 16.74266435 0.18559415 13.98133697 -2 10 C-2.3554485 7.22959257 -2.18195905 4.82036535 -2 2 C-1.34 1.34 -0.68 0.68 0 0 Z " fill="#E6DEE0" transform="translate(17,0)"/>
	

	<path d="M0 0 C3.56559773 1.18853258 4.79674487 3.0079266 7.1328125 5.84375 C9.28970139 8.33455056 11.59001208 10.62568819 13.9375 12.9375 C19.70970202 18.648942 24.9526557 24.64408495 30 31 C30.66 31.66 31.32 32.32 32 33 C29.625 32.75 29.625 32.75 27 32 C25.9375 30.0625 25.9375 30.0625 25 28 C24.39929688 27.70222656 23.79859375 27.40445313 23.1796875 27.09765625 C15.61399023 23.28769042 8.64788521 13.97182782 4 7 C2.02252878 6.63702064 2.02252878 6.63702064 -0.125 6.8125 C-1.40375 6.874375 -2.6825 6.93625 -4 7 C-3.67 6.01 -3.34 5.02 -3 4 C-2.34 3.67 -1.68 3.34 -1 3 C-0.67 2.01 -0.34 1.02 0 0 Z " fill="#A72B7C" transform="translate(51,25)"/>
	

	<path d="M0 0 C4.11596568 0.8877573 5.61389784 2.6982699 8.38671875 5.75390625 C10.12980315 7.62554785 11.93722553 9.16241374 13.9375 10.75 C19.21659964 15.18870485 20.9051056 20.52468271 21.5 27.1875 C21.12120839 31.42996605 20.35749837 31.99828472 17.1875 34.6875 C15.27954149 35.84196291 13.33897363 36.94363934 11.375 38 C6.7212574 40.62446142 3.16816363 43.26204172 -0.3125 47.3046875 C-2.08917072 48.94255582 -3.4572892 49.29158094 -5.8125 49.6875 C0.91775367 42.73290454 7.58249228 35.93338228 16.47265625 31.85546875 C18.32012124 30.815039 18.32012124 30.815039 19.01171875 28.8671875 C19.50751876 22.71926734 16.4127534 17.23793913 12.71484375 12.55859375 C7.90977942 7.34976358 4.57389095 4.06382087 -2.8125 3.6875 C-5.13408065 4.03409295 -5.13408065 4.03409295 -6.8125 4.6875 C-4.66053093 2.03892268 -3.35321322 0.81967434 0 0 Z " fill="#DCA7C6" transform="translate(99.8125,27.3125)"/>
	

	<path d="M0 0 C1.32 0.66 2.64 1.32 4 2 C4 3.32 4 4.64 4 6 C1.875 7.640625 1.875 7.640625 -1 9.25 C-10.10313189 14.60311704 -10.10313189 14.60311704 -15.5859375 23.17578125 C-15.72257812 23.77777344 -15.85921875 24.37976563 -16 25 C-18.43115486 26.21557743 -19.79790317 26.00326409 -22.5 25.875 C-28.07574069 25.79372098 -32.78474929 27.13582528 -38 29 C-37 26 -37 26 -35.06640625 24.83203125 C-28.8449116 22.29878616 -23.69735128 21.48701139 -17 22 C-16.77828125 21.27039063 -16.5565625 20.54078125 -16.328125 19.7890625 C-14.68366093 16.33568795 -12.73450965 14.74792981 -9.75 12.375 C-8.81671875 11.61960937 -7.8834375 10.86421875 -6.921875 10.0859375 C-4.05085357 8.03630455 -1.19438745 6.48378352 2 5 C1.34 3.35 0.68 1.7 0 0 Z " fill="#9C70A3" transform="translate(81,58)"/>
	

	<path d="M0 0 C1.98 0.99 1.98 0.99 4 2 C4.33 1.34 4.66 0.68 5 0 C8.37810112 0.60323234 10.32255812 1.90192055 13 4 C9.14729638 9.3345127 5.7858359 13.75428718 0 17 C0.185625 16.21625 0.37125 15.4325 0.5625 14.625 C1.25962266 12.02910225 1.25962266 12.02910225 0 10 C-0.06996014 8.29297265 -0.08440154 6.58331997 -0.0625 4.875 C-0.05347656 3.96492188 -0.04445313 3.05484375 -0.03515625 2.1171875 C-0.02355469 1.41851562 -0.01195313 0.71984375 0 0 Z " fill="#E35189" transform="translate(88,64)"/>
	

	<path d="M0 0 C-1.36983503 3.16115776 -1.9890638 3.9927092 -5 6 C-5.30292969 6.68707031 -5.60585938 7.37414062 -5.91796875 8.08203125 C-7 10 -7 10 -8.98828125 10.57421875 C-9.75527344 10.61160156 -10.52226563 10.64898437 -11.3125 10.6875 C-12.51132812 10.76871094 -12.51132812 10.76871094 -13.734375 10.8515625 C-14.48203125 10.90054688 -15.2296875 10.94953125 -16 11 C-17.67170873 11.30704854 -19.3420691 11.62562851 -21 12 C-19.47667131 7.88701254 -16.67463523 5.24519464 -13 3 C-8.72214255 1.32345245 -4.61280343 0 0 0 Z " fill="#FDFDFD" transform="translate(68,69)"/>
	

	<path d="M0 0 C4.92980953 2.00844092 8.09403383 5.64105074 11 10 C10.83806378 13.18305886 10.3707781 14.60125373 8.1875 16.94921875 C7.465625 17.52285156 6.74375 18.09648438 6 18.6875 C3.03807329 20.96879293 3.03807329 20.96879293 1 24 C0.9027114 26.12318064 0.87022381 28.24959691 0.875 30.375 C0.87242188 31.51710938 0.86984375 32.65921875 0.8671875 33.8359375 C0.88127432 36.87181939 0.88127432 36.87181939 1.5859375 39.21875 C2.31029244 42.33484293 0.58725717 44.39236322 -1 47 C-1.99 47.66 -2.98 48.32 -4 49 C-3.67386719 48.50242188 -3.34773438 48.00484375 -3.01171875 47.4921875 C-1.61517271 44.05204706 -1.74887912 40.77482967 -1.8125 37.125 C-1.81314453 36.43019531 -1.81378906 35.73539063 -1.81445312 35.01953125 C-1.84922474 30.91648064 -2.21140045 27.02501211 -3 23 C-2.28972656 22.46890625 -1.57945313 21.9378125 -0.84765625 21.390625 C0.07144531 20.68421875 0.99054688 19.9778125 1.9375 19.25 C2.85402344 18.55390625 3.77054687 17.8578125 4.71484375 17.140625 C7.04153585 14.96109121 7.77267331 14.11942732 8 11 C7.42079493 7.84569108 7.42079493 7.84569108 6 5 C4.04978917 3.77472052 4.04978917 3.77472052 2 3 C1.34 2.01 0.68 1.02 0 0 Z " fill="#A82B7C" transform="translate(88,37)"/>
	

	<path d="M0 0 C0 0.99 0 1.98 0 3 C-1.4609375 4.38671875 -1.4609375 4.38671875 -3.375 5.6875 C-4.31472656 6.34298828 -4.31472656 6.34298828 -5.2734375 7.01171875 C-7 8 -7 8 -9 8 C-9.37125 8.804375 -9.37125 8.804375 -9.75 9.625 C-11.29696975 12.56424252 -13.13014369 15.25754408 -15 18 C-14.01 18.33 -13.02 18.66 -12 19 C-13.32 19.33 -14.64 19.66 -16 20 C-18 17 -18 17 -18.0625 14.75 C-15.64919529 8.50379957 -6.83226963 0 0 0 Z " fill="#510D69" transform="translate(85,66)"/>
	

	<path d="M0 0 C2.125 0.9375 2.125 0.9375 4 2 C2.88424427 5.34726719 2.48655378 5.62079748 -0.4375 7.25 C-1.613125 7.8275 -2.78875 8.405 -4 9 C-4.66 8.67 -5.32 8.34 -6 8 C-5.34 7.01 -4.68 6.02 -4 5 C-5.39412109 5.54140625 -5.39412109 5.54140625 -6.81640625 6.09375 C-8.06487858 6.5631005 -9.31358949 7.03181673 -10.5625 7.5 C-12.38974609 8.19609375 -12.38974609 8.19609375 -14.25390625 8.90625 C-18.0418919 10.01223121 -21.07903233 10.20185162 -25 10 C-25 9.01 -25 8.02 -25 7 C-23.84242187 7.06058594 -22.68484375 7.12117188 -21.4921875 7.18359375 C-16.85866094 7.1825727 -13.32161247 5.91120933 -9.125 4.0625 C-8.46242188 3.78470703 -7.79984375 3.50691406 -7.1171875 3.22070312 C-4.71317827 2.20681712 -2.33399883 1.16699942 0 0 Z " fill="#DCA7C6" transform="translate(80,59)"/>
	

	<path d="M0 0 C3.73639216 1.24546405 4.18756513 2.63404953 6 6 C3.03 5.505 3.03 5.505 0 5 C0.31710938 5.75539063 0.63421875 6.51078125 0.9609375 7.2890625 C2.36900636 12.31787984 2.46398366 17.17551401 2.625 22.375 C2.66367187 23.39722656 2.70234375 24.41945313 2.7421875 25.47265625 C2.83597964 27.98159597 2.92167879 30.49053764 3 33 C2.34 32.67 1.68 32.34 1 32 C0.95101563 30.74703125 0.90203125 29.4940625 0.8515625 28.203125 C0.77651417 26.55206179 0.70096723 24.90102119 0.625 23.25 C0.57859375 22.0125 0.57859375 22.0125 0.53125 20.75 C0.49257813 19.95078125 0.45390625 19.1515625 0.4140625 18.328125 C0.3826416 17.5949707 0.3512207 16.86181641 0.31884766 16.10644531 C-0.03863707 13.74474682 -0.88286653 12.09607054 -2 10 C-2.3554485 7.22959257 -2.18195905 4.82036535 -2 2 C-1.34 1.34 -0.68 0.68 0 0 Z " fill="#DEB3CB" transform="translate(17,0)"/>
	

	<path d="M0 0 C0.33 0.66 0.66 1.32 1 2 C0.328125 3.83984375 0.328125 3.83984375 -0.75 5.9375 C-1.09546875 6.62714844 -1.4409375 7.31679687 -1.796875 8.02734375 C-3.03157433 10.0517696 -4.15303265 11.51216519 -6 13 C-6.99 13 -7.98 13 -9 13 C-9 10.69 -9 8.38 -9 6 C-8.01 5.67 -7.02 5.34 -6 5 C-5.26676204 2.98491642 -5.26676204 2.98491642 -5 1 C-3.35 0.67 -1.7 0.34 0 0 Z " fill="#55106C" transform="translate(83,81)"/>
	

	<path d="M0 0 C5.66153846 1.47692308 5.66153846 1.47692308 7.375 4.125 C7.684375 5.053125 7.684375 5.053125 8 6 C6.35 5.01 4.7 4.02 3 3 C3.165 4.216875 3.33 5.43375 3.5 6.6875 C4.10971946 11.81727305 3.91203714 16.83333128 3.64453125 21.984375 C4.08465203 25.71814692 5.45915298 27.30440591 8 30 C5.53199953 28.84826645 3.95216435 27.95216435 2 26 C1.69702148 24.03222656 1.69702148 24.03222656 1.62109375 21.640625 C1.56985352 20.33738281 1.56985352 20.33738281 1.51757812 19.0078125 C1.49115234 18.09773438 1.46472656 17.18765625 1.4375 16.25 C1.16770691 8.08227008 1.16770691 8.08227008 0 0 Z " fill="#9A71A3" transform="translate(17,5)"/>
	

	<path d="M0 0 C0 1.32 0 2.64 0 4 C-0.60585938 3.96519531 -1.21171875 3.93039063 -1.8359375 3.89453125 C-8.42183303 3.68175616 -13.81117204 4.7878232 -20 7 C-19 4 -19 4 -17.03125 2.83203125 C-11.03889266 0.41844288 -6.45440733 -0.41641338 0 0 Z " fill="#80B8C6" transform="translate(63,80)"/>
	

	<path d="M0 0 C1.32 0 2.64 0 4 0 C4.33 1.65 4.66 3.3 5 5 C5.70125 5 6.4025 5 7.125 5 C11.58795558 6.55233238 13.45782663 10.16489997 16 14 C15.34 14.66 14.68 15.32 14 16 C12.36884105 14.42301238 10.74528667 12.83815634 9.125 11.25 C8.22007813 10.36828125 7.31515625 9.4865625 6.3828125 8.578125 C4.32432212 6.3509059 3.21452552 4.71204729 2 2 C1.34 1.34 0.68 0.68 0 0 Z " fill="#C6A4C1" transform="translate(21,6)"/>
	

	<path d="M0 0 C2.5625 2.125 2.5625 2.125 5 5 C5 8.125 5 8.125 4 11 C3.484375 11.495 2.96875 11.99 2.4375 12.5 C0.65212332 14.03855073 0.65212332 14.03855073 0.8125 17.1875 C0.874375 18.115625 0.93625 19.04375 1 20 C-2.79588866 19.45773019 -4.47211993 17.79872437 -7 15 C-5.68 15.33 -4.36 15.66 -3 16 C-2.0409375 14.5459375 -2.0409375 14.5459375 -1.0625 13.0625 C1 10 1 10 2 9 C2.29356154 5.37940768 1.85064319 3.12296038 0 0 Z " fill="#A2478B" transform="translate(36,22)"/>
	

	<path d="M0 0 C0.66 0.33 1.32 0.66 2 1 C1.401875 1.556875 0.80375 2.11375 0.1875 2.6875 C-2.09594756 4.93000022 -2.09594756 4.93000022 -3.625 7.75 C-4.07875 8.4925 -4.5325 9.235 -5 10 C-5.66 10 -6.32 10 -7 10 C-7.33 11.32 -7.66 12.64 -8 14 C-8.66 14 -9.32 14 -10 14 C-10.226875 14.78375 -10.45375 15.5675 -10.6875 16.375 C-12 19 -12 19 -14.625 20.3125 C-15.40875 20.539375 -16.1925 20.76625 -17 21 C-11.69408348 13.68643939 -5.87441175 6.8569646 0 0 Z " fill="#E2C9D6" transform="translate(92,77)"/>
	

	<path d="M0 0 C0 4.79152182 -3.3232941 7.08002753 -6.46484375 10.48046875 C-9.72482559 13.72035825 -13.18755632 16.44452004 -17 19 C-17.66 18.67 -18.32 18.34 -19 18 C-17.54712339 16.66072279 -16.08752741 15.32873153 -14.625 14 C-13.81289062 13.2575 -13.00078125 12.515 -12.1640625 11.75 C-10 10 -10 10 -8 10 C-8 9.34 -8 8.68 -8 8 C-6.3777546 6.29006566 -4.70586575 4.62652316 -3 3 C-2.401875 2.401875 -1.80375 1.80375 -1.1875 1.1875 C-0.795625 0.795625 -0.40375 0.40375 0 0 Z " fill="#8A9CB8" transform="translate(83,86)"/>
	

	<path d="M0 0 C4.67600673 1.97168026 7.79099261 5.50058054 11.3671875 9.00390625 C14.82249139 11.62358026 17.74235869 12 22 12 C21.67 12.99 21.34 13.98 21 15 C17.14705842 15 14.99082348 14.81395863 11.96484375 12.328125 C10.60067643 10.92978779 9.25702969 9.51116577 7.93359375 8.07421875 C6.20968308 6.22493276 4.46805018 4.64157085 2.5 3.0625 C1.675 2.381875 0.85 1.70125 0 1 C0 0.67 0 0.34 0 0 Z " fill="#E6DEE0" transform="translate(35,101)"/>
	

	<path d="M0 0 C-3.93423169 2.06078803 -7.78341425 3.62502638 -12 5 C-13.34721283 5.63815344 -14.68747118 6.29325371 -16 7 C-15.01 4.69 -14.02 2.38 -13 0 C-11.58456585 -0.19658808 -10.16755969 -0.38187546 -8.75 -0.5625 C-7.96109375 -0.66691406 -7.1721875 -0.77132812 -6.359375 -0.87890625 C-3.99467126 -1.00027349 -2.2488963 -0.69633257 0 0 Z " fill="#E6DEE0" transform="translate(66,69)"/>
	

	<path d="M0 0 C3.65316671 1.24976756 4.78065836 1.67098753 7 5 C10.79588866 4.45773019 12.47211993 2.79872437 15 0 C15 3.57575896 13.91159393 5.05295935 12 8 C8.76761586 7.92303847 6.66772205 7.62561345 4.265625 5.375 C2.78148327 3.62229929 1.36155666 1.84920638 0 0 Z " fill="#E1C3D3" transform="translate(79,28)"/>
	

	<path d="M0 0 C3.30949515 1.43411456 5.39664885 3.20973364 7.875 5.8125 C11.09720225 9.12521355 14.39330023 12.11464018 18 15 C14.24516697 15 13.35425517 13.66308446 10.76367188 11.13867188 C9.72069581 10.09569581 8.68155944 9.04886453 7.64648438 7.99804688 C4.20243227 4.65875681 1.80965089 3.28038324 -3 3 C-2.01 2.01 -1.02 1.02 0 0 Z " fill="#9A71A3" transform="translate(65,17)"/>
	

	<path d="M0 0 C2.1875 0.125 2.1875 0.125 5 1 C6.28448423 2.44504475 7.56510538 3.89868713 8.73046875 5.44140625 C10.11749316 7.25613734 10.11749316 7.25613734 12.8125 9.25 C13.534375 9.8275 14.25625 10.405 15 11 C15 11.66 15 12.32 15 13 C10.6825833 11.15931565 8.14147191 8.17037884 5 4.77734375 C2.93070247 2.93841723 1.70151144 2.39196037 -1 2 C-0.67 1.34 -0.34 0.68 0 0 Z " fill="#E1C4D4" transform="translate(64,15)"/>
	

	

	<path d="M0 0 C0.99 0.33 1.98 0.66 3 1 C3.33 1.99 3.66 2.98 4 4 C2.25 6.6875 2.25 6.6875 0 9 C-0.99 9 -1.98 9 -3 9 C-2.01 6.03 -1.02 3.06 0 0 Z " fill="#510D69" transform="translate(92,45)"/>
	

	<path d="M0 0 C1.32 0.66 2.64 1.32 4 2 C4.375 4.125 4.375 4.125 4 7 C2.20659643 9.23913252 0.16547337 11.12454539 -2 13 C-2.66 12.67 -3.32 12.34 -4 12 C-3.154375 11.319375 -2.30875 10.63875 -1.4375 9.9375 C1.4375 7.14583333 1.4375 7.14583333 0.8125 3.1875 C0.544375 2.135625 0.27625 1.08375 0 0 Z " fill="#E44E86" transform="translate(97,44)"/>
	

	<path d="M0 0 C-4.23513217 3.96189783 -8.547001 5.43181728 -14 7 C-9.82547171 2.51624739 -6.36062509 -0.54519644 0 0 Z " fill="#BC8DB5" transform="translate(62,20)"/>
	

	

	<path d="M0 0 C3.73639216 1.24546405 4.18756513 2.63404953 6 6 C4.02 5.34 2.04 4.68 0 4 C-0.33 5.65 -0.66 7.3 -1 9 C-1.33 9 -1.66 9 -2 9 C-2.125 5.625 -2.125 5.625 -2 2 C-1.34 1.34 -0.68 0.68 0 0 Z " fill="#E6DEE0" transform="translate(17,0)"/>
	

	

	

	

	

	<path d="M0 0 C2.125 0.9375 2.125 0.9375 4 2 C3.67 2.99 3.34 3.98 3 5 C1.0625 4.6875 1.0625 4.6875 -1 4 C-1.33 3.01 -1.66 2.02 -2 1 C-1.34 0.67 -0.68 0.34 0 0 Z " fill="#E3CDD8" transform="translate(24,35)"/>
	

</svg>
