<?xml version="1.0" encoding="iso-8859-1"?>
<svg height="128" version="1.1" width="128" xmlns="http://www.w3.org/2000/svg">
	

	<path d="M0 0 C42.24 0 84.48 0 128 0 C128 42.24 128 84.48 128 128 C85.76 128 43.52 128 0 128 C0 85.76 0 43.52 0 0 Z " fill="#FBFBFB" transform="translate(0,0)"/>
	

	

	<path d="M0 0 C2.6875 0 2.6875 0 6 1 C11.23202009 7.04865815 12.45405776 13.16082638 12 21 C11.83113281 22.0621875 11.66226563 23.124375 11.48828125 24.21875 C10.85011524 29.16070762 10.98516864 33.97621559 11.12695312 38.94726562 C11.18540635 42.80174003 11.19552011 45.73685442 9 49 C11.475 48.505 11.475 48.505 14 48 C14.48108275 46.58398286 14.95978141 45.16715563 15.4375 43.75 C15.70433594 42.96109375 15.97117188 42.1721875 16.24609375 41.359375 C17.27304009 38.21673367 17.27304009 38.21673367 18 35 C16.64555699 33.22809091 16.64555699 33.22809091 15 32 C15.34289062 31.43410156 15.68578125 30.86820313 16.0390625 30.28515625 C17.17915522 27.57396014 16.94348762 26.28475579 16.375 23.4375 C15.79765725 19.27238447 15.79765725 19.27238447 17.625 16.8125 C20 16 20 16 22.75 16.8125 C23.4925 17.204375 24.235 17.59625 25 18 C24.835 18.71800781 24.67 19.43601562 24.5 20.17578125 C24.01029058 22.9418743 23.933769 25.3851009 24 28.1875 C24.02545334 31.95459465 23.97097625 35.68005012 23.6875 39.4375 C23.60048828 40.61119141 23.60048828 40.61119141 23.51171875 41.80859375 C23 44 23 44 21.45703125 46.03515625 C19.60290163 48.12780897 19.60290163 48.12780897 20 52 C25.19930808 49.82354545 27.97775707 47.67073908 31 43 C31 39.5332973 30.66330581 37.78064738 28.41015625 35.12890625 C26.61103766 32.41278539 26.88749194 31.22139583 27.4375 28.0625 C28.01480941 23.97322504 27.72545721 21.79600585 26 18 C26.99 16.515 26.99 16.515 28 15 C31 14.625 31 14.625 34 15 C34.99 16.485 34.99 16.485 36 18 C39.16115776 16.63016497 39.9927092 16.0109362 42 13 C49.761079 9.04624277 49.761079 9.04624277 54 10 C55.82592309 11.45037862 57.51318267 13.00803757 59.21875 14.59765625 C61.6771035 16.53307052 63.92212961 16.84985998 67 17 C67 18.98 67 20.96 67 23 C63.37 23.33 59.74 23.66 56 24 C55.814375 26.0728125 55.814375 26.0728125 55.625 28.1875 C55.22461757 31.80222024 54.49146794 34.66613048 53 38 C52.773125 39.216875 52.54625 40.43375 52.3125 41.6875 C51.879375 42.780625 51.44625 43.87375 51 45 C48.49101547 46.04541022 46.62436235 46.52982174 44 47 C36.09238284 48.87266234 36.09238284 48.87266234 30 54 C29.34 54 28.68 54 28 54 C27.71125 54.61875 27.4225 55.2375 27.125 55.875 C26 58 26 58 24 60 C23.81456682 63.03800411 23.74739602 65.99280686 23.76171875 69.03125 C23.74628363 70.89323633 23.7299789 72.75521561 23.71289062 74.6171875 C23.69651777 77.54866084 23.68745043 80.47961807 23.69458008 83.41113281 C23.71564091 105.98068751 23.71564091 105.98068751 14.9375 115.5625 C9.59667813 119.99424581 3.92252043 119.18311018 -2.75 119.1875 C-3.71421875 119.19974609 -4.6784375 119.21199219 -5.671875 119.22460938 C-14.63848983 119.24288373 -22.19845982 118.27968288 -29 112 C-31.1875 109.1875 -31.1875 109.1875 -33 106 C-33.54140625 105.05253906 -33.54140625 105.05253906 -34.09375 104.0859375 C-40.59255381 92.06315046 -39.63857383 71.52325329 -36.3359375 58.3515625 C-35.27386161 55.37989561 -34.24433578 53.24433578 -32 51 C-29.8359375 50.3671875 -29.8359375 50.3671875 -27.375 49.875 C-26.14910156 49.62363281 -26.14910156 49.62363281 -24.8984375 49.3671875 C-24.27195312 49.24601562 -23.64546875 49.12484375 -23 49 C-22.01 50.65 -21.02 52.3 -20 54 C-22 56 -22 56 -25.625 56.125 C-26.73875 56.08375 -27.8525 56.0425 -29 56 C-32.46692356 70.09882247 -35.32807179 88.956609 -29.41015625 102.72265625 C-26.42609368 107.54179331 -22.3879 111.20403333 -17 113 C-14.86205475 113.0833804 -12.72157991 113.10733747 -10.58203125 113.09765625 C-9.32841797 113.09443359 -8.07480469 113.09121094 -6.78320312 113.08789062 C-5.47287109 113.07951172 -4.16253906 113.07113281 -2.8125 113.0625 C-1.47721519 113.05748317 -0.14192859 113.05292059 1.19335938 113.04882812 C4.46228473 113.03702695 7.73111991 113.02056297 11 113 C11.97902167 111.3120316 12.95473978 109.62203445 13.91113281 107.92114258 C14.82421726 106.31014224 15.77498352 104.720579 16.734375 103.13671875 C18.43180345 98.92982046 18.36796663 95.30057379 18.25 90.8125 C18.23831787 89.97187012 18.22663574 89.13124023 18.21459961 88.26513672 C18.08527714 81.23568167 17.9120497 74.16085417 16.40234375 67.2734375 C16.26957031 66.52320312 16.13679688 65.77296875 16 65 C16.33 64.67 16.66 64.34 17 64 C17.04092937 61.66702567 17.04241723 59.33294775 17 57 C15.741875 56.79375 14.48375 56.5875 13.1875 56.375 C12.47980469 56.25898437 11.77210937 56.14296875 11.04296875 56.0234375 C8.68244176 55.80422152 8.68244176 55.80422152 6 58 C0.8056326 58.44207382 0.8056326 58.44207382 -1.84375 56.98828125 C-4.56639626 55.74040172 -6.58279335 55.83614943 -9.5625 55.9375 C-12.82893668 56.03943764 -14.87231661 56.04256113 -18 55 C-17 50 -17 50 -16.4140625 47.73046875 C-15.74140254 43.29472052 -16.70564915 39.16694487 -17.41015625 34.76953125 C-17.78742855 32.35848644 -18.11293521 29.93840901 -18.37109375 27.51171875 C-19.14525556 20.71984556 -20.49440811 16.21043948 -24.7578125 10.8046875 C-26 9 -26 9 -26 6 C-23.375 5.5625 -23.375 5.5625 -20 6 C-16.50960566 8.97420926 -13.70385248 12.73621305 -12 17 C-12.23530998 19.05055843 -12.47804348 21.1006483 -12.765625 23.14453125 C-13.06453372 26.7862358 -12.91221567 30.36098638 -12.6875 34 C-12.60886719 35.299375 -12.53023437 36.59875 -12.44921875 37.9375 C-12.22685547 39.4534375 -12.22685547 39.4534375 -12 41 C-11.34 41.33 -10.68 41.66 -10 42 C-9.375 45.0625 -9.375 45.0625 -9 48 C-8.01 48 -7.02 48 -6 48 C-5.97305149 46.04174127 -5.95362782 44.08337774 -5.9375 42.125 C-5.92589844 41.03445312 -5.91429687 39.94390625 -5.90234375 38.8203125 C-5.80255697 36.04822454 -5.80255697 36.04822454 -7 34 C-7.03070201 31.23681915 -6.9328895 28.48816031 -6.83984375 25.7265625 C-6.81039172 23.00369662 -6.81039172 23.00369662 -8.12109375 20.8828125 C-9 19 -9 19 -8.3203125 17.078125 C-7.21354167 15.38541667 -6.10677083 13.69270833 -5 12 C-4.01 12 -3.02 12 -2 12 C0.22996692 16.45993384 -0.54502902 22.46916267 -0.375 27.375 C-0.3234375 28.60089844 -0.271875 29.82679687 -0.21875 31.08984375 C0.05969389 38.812567 -0.15589419 46.31774855 -1 54 C-0.01 53.67 0.98 53.34 2 53 C4.43201366 46.40987769 4.59430999 39.71298874 4.8527832 32.77661133 C4.93694522 30.70118085 5.05889118 28.63009769 5.18164062 26.55664062 C5.52391535 19.11570632 5.17905036 13.52681679 1.09594727 7.12426758 C-0.2120433 4.58899784 -0.19755694 2.81418469 0 0 Z " fill="#5C5D5D" transform="translate(61,6)"/>
	

	<path d="M0 0 C0.72445312 0.19464844 1.44890625 0.38929687 2.1953125 0.58984375 C3.02675781 0.82380859 3.02675781 0.82380859 3.875 1.0625 C5 7.6875 5 7.6875 3.875 11.0625 C4.37 12.5475 4.37 12.5475 4.875 14.0625 C6.80394543 26.44585338 8.54951153 42.00784027 1.875 53.0625 C0.555 53.0625 -0.765 53.0625 -2.125 53.0625 C-2.455 54.0525 -2.785 55.0425 -3.125 56.0625 C-7.64549121 56.20835125 -12.165373 56.29676251 -16.6875 56.375 C-18.60272461 56.4378418 -18.60272461 56.4378418 -20.55664062 56.50195312 C-31.19519065 56.64011611 -31.19519065 56.64011611 -35.52734375 53.66796875 C-38.125 51.0625 -38.125 51.0625 -38.125 49.0625 C-38.785 49.0625 -39.445 49.0625 -40.125 49.0625 C-47.06596363 34.99465407 -44.87234407 18.79946452 -41.125 4.0625 C-38.75832666 1.69582666 -33.00669302 2.58105924 -29.8125 2.4375 C-28.84892578 2.3859375 -27.88535156 2.334375 -26.89257812 2.28125 C-25.96251953 2.23742187 -25.03246094 2.19359375 -24.07421875 2.1484375 C-23.22174561 2.1076709 -22.36927246 2.0669043 -21.4909668 2.02490234 C-18.28550606 2.07584043 -15.65554911 2.89007154 -12.625 3.875 C-9.96340566 4.37033763 -9.96340566 4.37033763 -7.9375 2.1875 C-7.339375 1.48625 -6.74125 0.785 -6.125 0.0625 C-3.57797384 -1.21101308 -2.6967055 -0.73941925 0 0 Z " fill="#FBFBFB" transform="translate(74.125,61.9375)"/>
	

	

	<path d="M0 0 C3.84742996 0.17488318 5.67278186 0.73365965 8.6875 3.1875 C13.15263442 8.61806889 14.41030595 13.15954903 15 20 C15.721875 19.360625 16.44375 18.72125 17.1875 18.0625 C22.0777545 14.74747171 28.27265704 14.96176674 34 15 C34.99 15.33 35.98 15.66 37 16 C37 16.66 37 17.32 37 18 C38.98 17.67 40.96 17.34 43 17 C41.68 18.65 40.36 20.3 39 22 C38.01 21.67 37.02 21.34 36 21 C35.505 20.01 35.505 20.01 35 19 C33.02 19 31.04 19 29 19 C28.67 19.99 28.34 20.98 28 22 C28.32226562 22.62261719 28.64453125 23.24523437 28.9765625 23.88671875 C30.27169548 26.56102005 29.91170272 27.92431166 29.375 30.8125 C28.64970866 36.28442019 30.08953694 38.45240146 33 43 C32.51683355 47.67370626 29.3612114 50.94435327 26 54 C23.125 54.9375 23.125 54.9375 21 55 C20.3125 53.25 20.3125 53.25 20 51 C20.474375 50.43410156 20.94875 49.86820313 21.4375 49.28515625 C23.53482931 46.21781213 23.50767646 43.87588069 23.6875 40.1875 C23.75324219 39.00542969 23.81898437 37.82335938 23.88671875 36.60546875 C23.96388616 34.14941625 23.9959283 31.69162757 23.98828125 29.234375 C23.99885404 26.3162863 24.31503121 23.82549626 25 21 C23.15274948 20.30840599 23.15274948 20.30840599 21 20 C20.01 20.66 19.02 21.32 18 22 C18.09539062 22.60328125 18.19078125 23.2065625 18.2890625 23.828125 C18.45535156 25.02695312 18.45535156 25.02695312 18.625 26.25 C18.79902344 27.43335938 18.79902344 27.43335938 18.9765625 28.640625 C19.00339416 31.34167893 18.30166242 32.67489308 17 35 C17 35.66 17 36.32 17 37 C18.485 37.495 18.485 37.495 20 38 C19.2684363 41.13840829 18.34275566 44.15555089 17.25 47.1875 C16.94578125 48.06792969 16.6415625 48.94835938 16.328125 49.85546875 C15 52 15 52 12.359375 52.80078125 C11.58078125 52.86652344 10.8021875 52.93226562 10 53 C9.67 52.34 9.34 51.68 9 51 C9.66 50.01 10.32 49.02 11 48 C11.25795595 46.06886976 11.25795595 46.06886976 11.16015625 43.98046875 C11.14919922 43.20509766 11.13824219 42.42972656 11.12695312 41.63085938 C11.10568359 40.82455078 11.08441406 40.01824219 11.0625 39.1875 C10.94820049 33.9678223 10.99824058 29.1519056 12 24 C12.37991611 18.01632129 11.73662827 14.47325653 9 9 C8.731875 8.236875 8.46375 7.47375 8.1875 6.6875 C6.35833642 4.08816229 3.97876368 3.77706879 1 3 C1.33 5.31 1.66 7.62 2 10 C1.01 9.67 0.02 9.34 -1 9 C-1.09765625 2.84765625 -1.09765625 2.84765625 -1 1 C-0.67 0.67 -0.34 0.34 0 0 Z " fill="#BDBABA" transform="translate(60,3)"/>
	

	<path d="M0 0 C2.625 -0.4375 2.625 -0.4375 6 0 C9.49039434 2.97420926 12.29614752 6.73621305 14 11 C13.76469002 13.05055843 13.52195652 15.1006483 13.234375 17.14453125 C12.93546628 20.7862358 13.08778433 24.36098638 13.3125 28 C13.39113281 29.299375 13.46976563 30.59875 13.55078125 31.9375 C13.69902344 32.948125 13.84726562 33.95875 14 35 C14.66 35.33 15.32 35.66 16 36 C16.625 39.0625 16.625 39.0625 17 42 C17.99 42 18.98 42 20 42 C20.02694851 40.04174127 20.04637218 38.08337774 20.0625 36.125 C20.07410156 35.03445312 20.08570312 33.94390625 20.09765625 32.8203125 C20.19744303 30.04822454 20.19744303 30.04822454 19 28 C18.96929799 25.23681915 19.0671105 22.48816031 19.16015625 19.7265625 C19.18960828 17.00369662 19.18960828 17.00369662 17.87890625 14.8828125 C17 13 17 13 17.6796875 11.078125 C18.78645833 9.38541667 19.89322917 7.69270833 21 6 C21.99 6 22.98 6 24 6 C26.2347254 10.46945079 25.49959179 16.45932123 25.6875 21.375 C25.74744141 22.60089844 25.80738281 23.82679687 25.86914062 25.08984375 C26.17498915 32.99162901 25.64397854 40.26247226 24 48 C23.34 48 22.68 48 22 48 C22 48.66 22 49.32 22 50 C20.22925083 50.02705729 18.45838289 50.04642195 16.6875 50.0625 C15.20830078 50.07990234 15.20830078 50.07990234 13.69921875 50.09765625 C11 50 11 50 8 49 C9 44 9 44 9.5859375 41.73046875 C10.25859746 37.29472052 9.29435085 33.16694487 8.58984375 28.76953125 C8.21257145 26.35848644 7.88706479 23.93840901 7.62890625 21.51171875 C6.85474444 14.71984556 5.50559189 10.21043948 1.2421875 4.8046875 C0 3 0 3 0 0 Z " fill="#545555" transform="translate(35,12)"/>
	

	<path d="M0 0 C6.05133462 5.44620116 6.41179743 11.14578516 7.0625 18.875 C7.21866687 20.62252018 7.37619426 22.36991936 7.53515625 24.1171875 C7.64174561 25.37354004 7.64174561 25.37354004 7.75048828 26.65527344 C7.98870878 29.23956479 7.98870878 29.23956479 8.74609375 32.6953125 C9.07815296 37.01719087 7.95129424 39.17546329 6 43 C7.13179687 42.97679687 8.26359375 42.95359375 9.4296875 42.9296875 C10.91145175 42.91093099 12.39322312 42.89273066 13.875 42.875 C14.62136719 42.85824219 15.36773437 42.84148438 16.13671875 42.82421875 C18.09194461 42.8066041 20.04742021 42.89679811 22 43 C22.66 43.66 23.32 44.32 24 45 C26.06874034 45.6425235 26.06874034 45.6425235 28 46 C27.67 46.99 27.34 47.98 27 49 C22.28552158 48.08329586 22.28552158 48.08329586 20.13964844 47.45727539 C17.66580161 46.92857673 15.54051665 46.98253262 13.015625 47.12109375 C11.61376953 47.19360352 11.61376953 47.19360352 10.18359375 47.26757812 C8.73146484 47.35168945 8.73146484 47.35168945 7.25 47.4375 C5.77466797 47.51581055 5.77466797 47.51581055 4.26953125 47.59570312 C1.84601151 47.72511437 -0.57706864 47.86006905 -3 48 C-6.22585106 62.09389687 -8.87271557 77.296997 -3 91 C-3 91.66 -3 92.32 -3 93 C-2.34 93 -1.68 93 -1 93 C-0.34 93.99 0.32 94.98 1 96 C4.91878762 98.95758372 7.75841404 99.35947378 12.61328125 99.29296875 C13.86044922 99.28330078 15.10761719 99.27363281 16.39257812 99.26367188 C17.68615234 99.23853516 18.97972656 99.21339844 20.3125 99.1875 C21.62541016 99.17396484 22.93832031 99.16042969 24.29101562 99.14648438 C27.52776077 99.11117443 30.76367105 99.0618528 34 99 C34.33 98.34 34.66 97.68 35 97 C35.99 97.33 36.98 97.66 38 98 C36.88574219 99.96679688 36.88574219 99.96679688 35 102 C32.20019531 102.51757812 32.20019531 102.51757812 28.828125 102.53125 C27.60609375 102.53640625 26.3840625 102.5415625 25.125 102.546875 C23.84625 102.53140625 22.5675 102.5159375 21.25 102.5 C19.98671875 102.51546875 18.7234375 102.5309375 17.421875 102.546875 C8.54675935 102.5095846 4.2956091 101.29663024 -2.6875 95.9375 C-11.30803221 84.98709422 -9.88292565 70.73157974 -8.37353516 57.63769531 C-7.75574633 52.79005569 -7.00100436 48.48124087 -5 44 C-3.865625 43.87625 -2.73125 43.7525 -1.5625 43.625 C-0.386875 43.41875 0.78875 43.2125 2 43 C2.33 42.34 2.66 41.68 3 41 C2.34 40.01 1.68 39.02 1 38 C-5.23291002 38.72496726 -5.23291002 38.72496726 -10 42.375 C-11.8177858 47.14668773 -12.26958188 51.6695513 -12.5625 56.75 C-12.60568359 57.44738281 -12.64886719 58.14476562 -12.69335938 58.86328125 C-12.79889596 60.57531922 -12.8998991 62.28763561 -13 64 C-13.33 64 -13.66 64 -14 64 C-14.0871747 60.25014675 -14.14045003 56.50055445 -14.1875 52.75 C-14.21263672 51.68652344 -14.23777344 50.62304688 -14.26367188 49.52734375 C-14.27333984 48.50253906 -14.28300781 47.47773437 -14.29296875 46.421875 C-14.3086792 45.47924805 -14.32438965 44.53662109 -14.34057617 43.56542969 C-13.93854642 40.53709373 -13.0810628 39.20238741 -11 37 C-8.84375 36.20703125 -8.84375 36.20703125 -6.5 35.8125 C-3.86631517 35.3428262 -1.55213769 34.85071256 1 34 C1.66 34.33 2.32 34.66 3 35 C3 35.66 3 36.32 3 37 C3.99 37 4.98 37 6 37 C5.71722382 34.10304831 5.42412587 31.2077705 5.125 28.3125 C5.04636719 27.49587891 4.96773437 26.67925781 4.88671875 25.83789062 C4.43218077 21.51977982 3.73255318 18.01222841 2 14 C1.62109375 11.46484375 1.62109375 11.46484375 1.4375 8.9375 C1.20378994 5.84203408 0.83635769 2.99291634 0 0 Z " fill="#A7A3A3" transform="translate(37,18)"/>
	

	<path d="M0 0 C5.41953088 0.64518225 10.02244502 1.61751709 13.640625 5.9765625 C14.68887532 7.41663455 15.71141062 8.87589488 16.703125 10.35546875 C17.13109375 10.89816406 17.5590625 11.44085938 18 12 C18.66 12 19.32 12 20 12 C21.6446674 9.53673288 21.6446674 9.53673288 23 7 C27.875 7.875 27.875 7.875 29 9 C29.14459705 10.4515606 29.22697111 11.90945286 29.28125 13.3671875 C29.31863281 14.25277344 29.35601562 15.13835938 29.39453125 16.05078125 C29.44673828 17.44876953 29.44673828 17.44876953 29.5 18.875 C29.56894539 20.70588303 29.64170176 22.53662756 29.71875 24.3671875 C29.74904297 25.18300293 29.77933594 25.99881836 29.81054688 26.83935547 C29.9317238 29.18209314 29.9317238 29.18209314 31 32 C31.22644569 28.75099666 31.42797517 25.50090961 31.625 22.25 C31.68945312 21.32960938 31.75390625 20.40921875 31.8203125 19.4609375 C31.871875 18.57148438 31.9234375 17.68203125 31.9765625 16.765625 C32.02893066 15.94868164 32.08129883 15.13173828 32.13525391 14.29003906 C32.14853428 11.9485999 32.14853428 11.9485999 30.93896484 9.88964844 C30 8 30 8 31 5 C35.59109451 11.94481352 35.44069389 18.33729684 35.03930664 26.40869141 C34.93774256 28.49501737 34.87360987 30.58005476 34.81445312 32.66796875 C34.56460635 39.63747723 34.01964045 45.64975341 31 52 C30.01 52 29.02 52 28 52 C28.01160156 51.23042969 28.02320312 50.46085937 28.03515625 49.66796875 C28.13913525 36.43292751 27.54171994 23.22171249 27 10 C23.64364144 10.73758123 23.64364144 10.73758123 22.1875 14.375 C21.795625 15.57125 21.40375 16.7675 21 18 C21.66 18.99 22.32 19.98 23 21 C23.16015625 23.62890625 23.16015625 23.62890625 23.0625 26.5625 C22.83191303 30.43090293 22.83191303 30.43090293 24 34 C24.07065617 36.04055005 24.08421976 38.08334257 24.0625 40.125 C24.05347656 41.22070312 24.04445313 42.31640625 24.03515625 43.4453125 C24.02355469 44.28835937 24.01195313 45.13140625 24 46 C22.0625 46.5625 22.0625 46.5625 20 47 C19 46 19 46 18.9375 42.9375 C18.958125 41.968125 18.97875 40.99875 19 40 C17.515 39.505 17.515 39.505 16 39 C15.80413816 36.1253509 15.61806201 33.25061717 15.4375 30.375 C15.38142578 29.56675781 15.32535156 28.75851563 15.26757812 27.92578125 C15.0482085 24.32811937 14.94790783 21.27243235 15.62890625 17.7109375 C16.21592244 13.42262975 14.25539425 11.30506943 11.8359375 7.92578125 C9.07563166 5.03039661 6.90719402 4.54700716 3 4 C3.66 5.98 4.32 7.96 5 10 C3.125 9.375 3.125 9.375 1 8 C-0.3125 5 -0.3125 5 -1 2 C-0.67 1.34 -0.34 0.68 0 0 Z " fill="#BAB6B6" transform="translate(32,8)"/>
	

	<path d="M0 0 C1.625 1.3125 1.625 1.3125 2.625 4.3125 C0.625 6.3125 0.625 6.3125 -3 6.4375 C-4.11375 6.39625 -5.2275 6.355 -6.375 6.3125 C-9.84192356 20.41132247 -12.70307179 39.269109 -6.78515625 53.03515625 C-3.80109368 57.85429331 0.2371 61.51653333 5.625 63.3125 C7.54265594 63.46189774 9.46446522 63.56060283 11.38671875 63.62890625 C12.50498047 63.67080078 13.62324219 63.71269531 14.77539062 63.75585938 C15.94263672 63.79517578 17.10988281 63.83449219 18.3125 63.875 C19.49134766 63.91818359 20.67019531 63.96136719 21.88476562 64.00585938 C24.79805883 64.11201176 27.71143757 64.21406242 30.625 64.3125 C30.625 64.6425 30.625 64.9725 30.625 65.3125 C18.25 65.8075 18.25 65.8075 5.625 66.3125 C6.285 66.9725 6.945 67.6325 7.625 68.3125 C1.68183288 67.94863263 -1.98551896 66.37276997 -6.375 62.3125 C-8.5625 59.5 -8.5625 59.5 -10.375 56.3125 C-10.7359375 55.68085937 -11.096875 55.04921875 -11.46875 54.3984375 C-17.96755381 42.37565046 -17.01357383 21.83575329 -13.7109375 8.6640625 C-12.64886161 5.69239561 -11.61933578 3.55683578 -9.375 1.3125 C-3.27307976 -0.94747046 -3.27307976 -0.94747046 0 0 Z " fill="#575858" transform="translate(38.375,55.6875)"/>
	

	<path d="M0 0 C0.32726438 7.27641026 0.6202472 14.55337561 0.87988281 21.83251953 C0.98155162 24.51351766 1.1077829 27.19161736 1.2421875 29.87109375 C1.60912457 39.11747881 0.33070386 45.60600311 -5.52734375 52.90234375 C-8.99868153 56.65633499 -11.45432473 57.81304553 -16.41015625 58.17700195 C-19.27353835 58.24315704 -22.13598374 58.2847479 -25 58.3125 C-25.99773438 58.34150391 -26.99546875 58.37050781 -28.0234375 58.40039062 C-28.98507813 58.40876953 -29.94671875 58.41714844 -30.9375 58.42578125 C-32.25041016 58.44765503 -32.25041016 58.44765503 -33.58984375 58.4699707 C-36.74765666 57.85420998 -37.949753 56.40315349 -40 54 C-38.84999512 53.970271 -38.84999512 53.970271 -37.67675781 53.93994141 C-34.20082781 53.84464554 -30.72549494 53.73498402 -27.25 53.625 C-25.44015625 53.57859375 -25.44015625 53.57859375 -23.59375 53.53125 C-22.43359375 53.49257812 -21.2734375 53.45390625 -20.078125 53.4140625 C-19.00981445 53.3826416 -17.94150391 53.3512207 -16.84082031 53.31884766 C-14.03010851 53.00337932 -12.3623355 52.51687861 -10 51 C-2.56937709 41.60946509 -3.27223097 31.31095574 -4 20 C-4.10441406 18.27330078 -4.10441406 18.27330078 -4.2109375 16.51171875 C-4.48249624 13.05168588 -4.82864644 9.73889402 -5.61328125 6.35546875 C-6 4 -6 4 -4.75 1.6875 C-3 0 -3 0 0 0 Z " fill="#515152" transform="translate(83,67)"/>
	

	<path d="M0 0 C0.495 1.98 0.495 1.98 1 4 C-1.31 4 -3.62 4 -6 4 C-6 4.66 -6 5.32 -6 6 C-9.00218387 7.36462903 -11.38037198 8.04512888 -14.6875 8.4375 C-15.780625 8.623125 -16.87375 8.80875 -18 9 C-18.66 9.99 -19.32 10.98 -20 12 C-20.66 12 -21.32 12 -22 12 C-22.309375 12.804375 -22.61875 13.60875 -22.9375 14.4375 C-24 17 -24 17 -25 18 C-25.12338298 20.94629384 -25.18619187 23.8727149 -25.2109375 26.8203125 C-25.23902494 28.65365447 -25.26768951 30.48698768 -25.296875 32.3203125 C-25.3380154 35.21679261 -25.37489135 38.11311235 -25.40136719 41.00976562 C-25.42910863 43.80112875 -25.47500196 46.59174171 -25.5234375 49.3828125 C-25.52669037 50.2403714 -25.52994324 51.0979303 -25.53329468 51.98147583 C-25.72060837 61.22019703 -29.32962202 67.75008865 -35.375 74.75 C-40.96142728 79.53836624 -47.23075084 79.38678976 -54.25 79.375 C-55.18714844 79.37411377 -56.12429687 79.37322754 -57.08984375 79.37231445 C-63.74816424 79.25797614 -69.20008534 78.47248109 -75 75 C-76.546875 74.13375 -76.546875 74.13375 -78.125 73.25 C-78.74375 72.8375 -79.3625 72.425 -80 72 C-79.67 71.01 -79.34 70.02 -79 69 C-78.23816406 69.52400391 -78.23816406 69.52400391 -77.4609375 70.05859375 C-76.77257812 70.51363281 -76.08421875 70.96867187 -75.375 71.4375 C-74.70210937 71.88996094 -74.02921875 72.34242187 -73.3359375 72.80859375 C-67.40421712 75.83396953 -60.43775831 75.1832094 -53.9375 75.1875 C-52.95716797 75.19974609 -51.97683594 75.21199219 -50.96679688 75.22460938 C-50.01740234 75.22654297 -49.06800781 75.22847656 -48.08984375 75.23046875 C-46.80388306 75.23663208 -46.80388306 75.23663208 -45.49194336 75.24291992 C-40.94852842 74.8000182 -37.79321034 73.29681125 -34.875 69.8125 C-34.15957031 68.98685547 -34.15957031 68.98685547 -33.4296875 68.14453125 C-29.24995213 61.87492819 -28.58482721 56.70258753 -28.6640625 49.33984375 C-28.65155654 47.47590793 -28.63851972 45.61197561 -28.625 43.74804688 C-28.62106521 40.83605607 -28.62506556 37.92440955 -28.63964844 35.01245117 C-28.64823021 32.18356554 -28.62652866 29.35610392 -28.6015625 26.52734375 C-28.61490631 25.66157211 -28.62825012 24.79580048 -28.64199829 23.90379333 C-28.56800624 17.82825276 -27.35625378 15.25502059 -23 11 C-22.07832031 10.09636719 -21.15664062 9.19273438 -20.20703125 8.26171875 C-16.39774284 5.57526566 -13.19441928 4.70240126 -8.6875 3.8125 C-6.09540375 3.27295826 -3.56287452 2.67692995 -1 2 C-0.67 1.34 -0.34 0.68 0 0 Z " fill="#C6C3C3" transform="translate(112,49)"/>
	

	<path d="M0 0 C0.7425 0.391875 1.485 0.78375 2.25 1.1875 C2.085 1.90550781 1.92 2.62351562 1.75 3.36328125 C1.26029058 6.1293743 1.183769 8.5726009 1.25 11.375 C1.27545334 15.14209465 1.22097625 18.86755012 0.9375 22.625 C0.87949219 23.40746094 0.82148437 24.18992187 0.76171875 24.99609375 C0.14440449 27.63970674 -1.10806491 29.05383956 -2.75 31.1875 C-3.47481084 34.84024469 -3.47481084 34.84024469 -3.75 38.1875 C-5.4 38.1875 -7.05 38.1875 -8.75 38.1875 C-9.41 36.8675 -10.07 35.5475 -10.75 34.1875 C-10.09 33.1975 -9.43 32.2075 -8.75 31.1875 C-8.18669351 29.72398123 -7.66827493 28.2426677 -7.1875 26.75 C-6.93871094 25.98816406 -6.68992187 25.22632812 -6.43359375 24.44140625 C-6.09521484 23.32572266 -6.09521484 23.32572266 -5.75 22.1875 C-5.52570313 21.46949219 -5.30140625 20.75148438 -5.0703125 20.01171875 C-4.91175781 19.10873047 -4.91175781 19.10873047 -4.75 18.1875 C-6.10444301 16.41559091 -6.10444301 16.41559091 -7.75 15.1875 C-7.40710938 14.62160156 -7.06421875 14.05570313 -6.7109375 13.47265625 C-5.57084478 10.76146014 -5.80651238 9.47225579 -6.375 6.625 C-6.95234275 2.45988447 -6.95234275 2.45988447 -5.125 0 C-2.75 -0.8125 -2.75 -0.8125 0 0 Z " fill="#666667" transform="translate(83.75,22.8125)"/>
	

	<path d="M0 0 C0.99346436 0.01345459 1.98692871 0.02690918 3.01049805 0.04077148 C4.64728516 0.05140625 4.64728516 0.05140625 6.31713867 0.06225586 C7.45731445 0.09512695 8.59749023 0.12799805 9.7722168 0.16186523 C11.46507812 0.17056641 11.46507812 0.17056641 13.19213867 0.17944336 C18.74343751 0.26112816 23.21343499 0.6494931 28.4597168 2.59936523 C28.1297168 3.25936523 27.7997168 3.91936523 27.4597168 4.59936523 C22.74523838 3.6826611 22.74523838 3.6826611 20.59936523 3.05664062 C18.12551841 2.52794196 16.00023345 2.58189786 13.4753418 2.72045898 C12.07348633 2.79296875 12.07348633 2.79296875 10.64331055 2.86694336 C9.67522461 2.92301758 8.70713867 2.9790918 7.7097168 3.03686523 C6.23438477 3.11517578 6.23438477 3.11517578 4.72924805 3.19506836 C2.30572831 3.32447961 -0.11735185 3.45943429 -2.5402832 3.59936523 C-5.76613426 17.69326211 -8.41299877 32.89636223 -2.5402832 46.59936523 C-2.5402832 47.25936523 -2.5402832 47.91936523 -2.5402832 48.59936523 C-1.8802832 48.59936523 -1.2202832 48.59936523 -0.5402832 48.59936523 C0.1197168 49.58936523 0.7797168 50.57936523 1.4597168 51.59936523 C5.37850441 54.55694896 8.21813084 54.95883901 13.07299805 54.89233398 C14.32016602 54.88266602 15.56733398 54.87299805 16.85229492 54.86303711 C18.14586914 54.83790039 19.43944336 54.81276367 20.7722168 54.78686523 C22.08512695 54.77333008 23.39803711 54.75979492 24.75073242 54.74584961 C27.98747757 54.71053966 31.22338785 54.66121804 34.4597168 54.59936523 C34.9547168 53.60936523 34.9547168 53.60936523 35.4597168 52.59936523 C36.4497168 52.92936523 37.4397168 53.25936523 38.4597168 53.59936523 C37.34545898 55.56616211 37.34545898 55.56616211 35.4597168 57.59936523 C32.65991211 58.11694336 32.65991211 58.11694336 29.2878418 58.13061523 C28.06581055 58.13577148 26.8437793 58.14092773 25.5847168 58.14624023 C24.3059668 58.13077148 23.0272168 58.11530273 21.7097168 58.09936523 C20.44643555 58.11483398 19.1831543 58.13030273 17.8815918 58.14624023 C9.00647614 58.10894983 4.75532589 56.89599547 -2.2277832 51.53686523 C-9.6462571 42.11339839 -9.28656643 31.02606248 -8.5402832 19.59936523 C-8.2102832 19.26936523 -7.8802832 18.93936523 -7.5402832 18.59936523 C-7.03888224 15.37216629 -6.63886643 12.13707045 -6.2355957 8.89624023 C-5.33924413 4.64612378 -4.57016672 1.07830459 0 0 Z " fill="#CCC9C9" transform="translate(36.540283203125,62.400634765625)"/>
	

	

	<path d="M0 0 C2 0.3125 2 0.3125 4 1 C5.30148702 3.60297403 5.09720133 5.53415498 5.0625 8.4375 C5.05347656 9.40558594 5.04445313 10.37367187 5.03515625 11.37109375 C5.02355469 12.23863281 5.01195313 13.10617188 5 14 C5 14.99 5 15.98 5 17 C5 18.66666667 5 20.33333333 5 22 C5.99 22.33 6.98 22.66 8 23 C8 22.34 8 21.68 8 21 C8.66 21 9.32 21 10 21 C10.33 20.34 10.66 19.68 11 19 C11.66 21.97 12.32 24.94 13 28 C11.73542969 28.48919922 11.73542969 28.48919922 10.4453125 28.98828125 C8.80175781 29.64376953 8.80175781 29.64376953 7.125 30.3125 C6.03445312 30.74175781 4.94390625 31.17101562 3.8203125 31.61328125 C0.75128691 32.82932375 0.75128691 32.82932375 -1 36 C-1.66 36 -2.32 36 -3 36 C-3.66 37.32 -4.32 38.64 -5 40 C-5.66 40 -6.32 40 -7 40 C-6.44707277 36.11195614 -4.67431401 34.40500668 -1.9375 31.6875 C1.65532928 27.89076832 1.65532928 27.89076832 2.5 22.9375 C2.2525 21.4834375 2.2525 21.4834375 2 20 C1.01 19.67 0.02 19.34 -1 19 C-3 16 -3 16 -2.7578125 13.6953125 C-2.54898438 12.84710938 -2.34015625 11.99890625 -2.125 11.125 C-1.28136249 7.63298143 -0.98750617 4.58572819 -1 1 C-0.67 0.67 -0.34 0.34 0 0 Z " fill="#494A4A" transform="translate(91,23)"/>
	

	<path d="M0 0 C3.375 0.6875 3.375 0.6875 4.375 1.6875 C4.52681257 3.45378086 4.59682672 5.22743085 4.625 7 C4.66367187 8.44826172 4.66367187 8.44826172 4.703125 9.92578125 C4.32560478 13.10324312 3.62930567 14.44370391 1.375 16.6875 C-1.6875 17.0625 -1.6875 17.0625 -4.625 16.6875 C-7.41279879 13.89970121 -6.92461733 12.06947673 -6.9375 8.1875 C-6.95425781 7.0221875 -6.97101562 5.856875 -6.98828125 4.65625 C-6.86839844 3.6765625 -6.74851562 2.696875 -6.625 1.6875 C-3.625 -0.3125 -3.625 -0.3125 0 0 Z " fill="#C14751" transform="translate(11.625,67.3125)"/>
	

	<path d="M0 0 C0.77601562 0.16886719 1.55203125 0.33773437 2.3515625 0.51171875 C4.375 1.3125 4.375 1.3125 6.375 4.3125 C6.45703125 7.0546875 6.45703125 7.0546875 6.1875 10.1875 C6.11144531 11.21617188 6.03539063 12.24484375 5.95703125 13.3046875 C5.26679449 16.87168284 3.97263158 19.71486842 1.375 22.3125 C-5.55373051 21.97174276 -5.55373051 21.97174276 -9.0625 19.8125 C-11.69001809 15.60847106 -12.26303855 11.08430682 -11.1484375 6.2421875 C-10.13981402 3.59316539 -9.17584974 1.68523773 -6.80078125 0.078125 C-4.15449726 -0.8530629 -2.71348566 -0.6398018 0 0 Z M-7.625 4.3125 C-8.06694203 7.36706365 -8.06694203 7.36706365 -7.9375 10.8125 C-7.93363281 11.9778125 -7.92976562 13.143125 -7.92578125 14.34375 C-7.92914419 17.42984188 -7.92914419 17.42984188 -5.625 19.3125 C-2.66730823 19.81260524 -2.66730823 19.81260524 0.375 19.3125 C2.58929248 17.09302182 3.31776357 15.70417672 3.7734375 12.5859375 C3.76570313 11.62945312 3.75796875 10.67296875 3.75 9.6875 C3.75773437 8.72585937 3.76546875 7.76421875 3.7734375 6.7734375 C3.64195313 5.96132812 3.51046875 5.14921875 3.375 4.3125 C-0.95265982 1.42739345 -3.29734018 1.42739345 -7.625 4.3125 Z " fill="#C5C2C2" transform="translate(12.625,64.6875)"/>
	

	<path d="M0 0 C0.61491335 13.67200967 1.18359241 27.3121658 1 41 C-0.98 41.495 -0.98 41.495 -3 42 C-2.99476318 41.44014404 -2.98952637 40.88028809 -2.98413086 40.3034668 C-2.96333309 37.76482263 -2.95033096 35.22619641 -2.9375 32.6875 C-2.92912109 31.80642578 -2.92074219 30.92535156 -2.91210938 30.01757812 C-2.90727539 28.74624023 -2.90727539 28.74624023 -2.90234375 27.44921875 C-2.89710693 26.66893311 -2.89187012 25.88864746 -2.88647461 25.0847168 C-2.91862137 22.8038445 -2.91862137 22.8038445 -4 20 C-4.19931837 18.21167134 -4.36236806 16.41913062 -4.5 14.625 C-4.7202842 11.76917267 -4.97984664 9.08952741 -5.609375 6.29296875 C-6 4 -6 4 -4.75 1.6875 C-3 0 -3 0 0 0 Z " fill="#4F4F50" transform="translate(83,67)"/>
	

	<path d="M0 0 C2.76804544 2.3905847 3.88821056 4.52584577 5 8 C5.18286133 11.28637695 5.18286133 11.28637695 5.08203125 14.98828125 C5.06412033 15.65031052 5.04620941 16.31233978 5.02775574 16.99443054 C4.98671878 18.39058074 4.94017158 19.78657865 4.88842773 21.18237305 C4.81311276 23.29530931 4.76384532 25.40775271 4.71679688 27.52148438 C4.51130828 34.55518117 4.07365732 40.59585685 1 47 C0.01 47 -0.98 47 -2 47 C-2 43.04 -2 39.08 -2 35 C-1.34 35 -0.68 35 0 35 C-0.165 34.484375 -0.33 33.96875 -0.5 33.4375 C-1.15049 30.26636124 -1.0620734 27.22781666 -1 24 C-0.34 24.99 0.32 25.98 1 27 C1.22644569 23.75099666 1.42797517 20.50090961 1.625 17.25 C1.68945312 16.32960938 1.75390625 15.40921875 1.8203125 14.4609375 C1.871875 13.57148438 1.9234375 12.68203125 1.9765625 11.765625 C2.02893066 10.94868164 2.08129883 10.13173828 2.13525391 9.29003906 C1.98303382 6.71273876 1.19624573 5.25717746 0 3 C0 2.01 0 1.02 0 0 Z " fill="#C9C6C6" transform="translate(62,13)"/>
	

	<path d="M0 0 C0.9964415 1.95807282 1.96103698 3.90877853 2.82421875 5.9296875 C5.17462373 11.22607518 8.17109648 14.76205773 13 18 C16.11143567 19.03714522 18.49468096 19.20031861 21.76171875 19.31640625 C23.43911133 19.37924805 23.43911133 19.37924805 25.15039062 19.44335938 C26.31763672 19.48267578 27.48488281 19.52199219 28.6875 19.5625 C29.86634766 19.60568359 31.04519531 19.64886719 32.25976562 19.69335938 C35.17305883 19.79951176 38.08643757 19.90156242 41 20 C41 20.33 41 20.66 41 21 C28.625 21.495 28.625 21.495 16 22 C16.66 22.66 17.32 23.32 18 24 C12.06227044 23.63646554 8.3812958 22.06444398 4 18 C1.14009828 14.26623942 -1.13433049 10.3204978 -3 6 C-2.67 5.34 -2.34 4.68 -2 4 C-1.34 4.33 -0.68 4.66 0 5 C0 3.35 0 1.7 0 0 Z " fill="#5F6060" transform="translate(28,100)"/>
	

	<path d="M0 0 C1.32 0 2.64 0 4 0 C4 3.63 4 7.26 4 11 C4.66 11 5.32 11 6 11 C7.38226016 13.76452033 7.09525387 16.0461363 7.0625 19.125 C7.05347656 20.22070312 7.04445313 21.31640625 7.03515625 22.4453125 C7.02355469 23.28835937 7.01195312 24.13140625 7 25 C5.0625 25.5625 5.0625 25.5625 3 26 C0.99249062 23.99249062 1.27059894 20.2562547 0.9375 17.5 C0.80335693 16.41428711 0.80335693 16.41428711 0.66650391 15.30664062 C0.06284451 10.16921166 -0.18485885 5.17604773 0 0 Z " fill="#D8D7D7" transform="translate(49,29)"/>
	

	<path d="M0 0 C2.375 0.3125 2.375 0.3125 5 1 C7 4 7 4 7 8 C6.01 8.66 5.02 9.32 4 10 C2.92863949 12.30144109 1.92010283 14.6340213 1 17 C-2.73274596 15.55506608 -2.73274596 15.55506608 -3.8125 13.3125 C-4.16476865 8.96785336 -3.81148522 5.26591694 -1.4375 1.5625 C-0.963125 1.046875 -0.48875 0.53125 0 0 Z " fill="#B9B6B6" transform="translate(109,21)"/>
	

	<path d="M0 0 C0.99 0 1.98 0 3 0 C2.814375 0.763125 2.62875 1.52625 2.4375 2.3125 C1.77180827 5.08967375 1.77180827 5.08967375 3 8 C4.92894543 20.38335338 6.67451153 35.94534027 0 47 C-0.33 47 -0.66 47 -1 47 C-1.25 40.375 -1.25 40.375 1 37 C1.17149478 34.08749551 1.23482923 31.2841308 1.1875 28.375 C1.18032959 27.56482422 1.17315918 26.75464844 1.16577148 25.91992188 C1.35896677 16.69620886 1.35896677 16.69620886 -1 8 C-1.23076923 2.46153846 -1.23076923 2.46153846 0 0 Z " fill="#BFBCBC" transform="translate(76,68)"/>
	

	<path d="M0 0 C1.625 1.3125 1.625 1.3125 2.625 4.3125 C0.625 6.3125 0.625 6.3125 -3 6.4375 C-4.11375 6.39625 -5.2275 6.355 -6.375 6.3125 C-8.01506048 12.98207927 -8.88858785 19.46432898 -9.375 26.3125 C-9.705 26.3125 -10.035 26.3125 -10.375 26.3125 C-10.55951025 13.64279613 -10.55951025 13.64279613 -9.375 8.3125 C-10.035 8.3125 -10.695 8.3125 -11.375 8.3125 C-12.035 9.3025 -12.695 10.2925 -13.375 11.3125 C-12.90252244 7.15469745 -12.49742531 4.22676362 -9.375 1.3125 C-3.53530534 -1.02337786 -3.53530534 -1.02337786 0 0 Z " fill="#737374" transform="translate(38.375,55.6875)"/>
	

	<path d="M0 0 C0.6875 3.25 0.6875 3.25 1 7 C-0.375 9 -0.375 9 -2 11 C-2.72481084 14.65274469 -2.72481084 14.65274469 -3 18 C-4.65 18 -6.3 18 -8 18 C-8.66 16.68 -9.32 15.36 -10 14 C-9.34 13.01 -8.68 12.02 -8 11 C-7.21826194 8.70390026 -6.54872528 6.38956399 -5.87890625 4.05859375 C-4.66853855 1.22364364 -3.13996704 0 0 0 Z " fill="#545555" transform="translate(83,43)"/>
	

	<path d="M0 0 C6.05133462 5.44620116 6.41179743 11.14578516 7.0625 18.875 C7.21866687 20.62252018 7.37619426 22.36991936 7.53515625 24.1171875 C7.60822998 24.94822998 7.68130371 25.77927246 7.7565918 26.63549805 C7.97752784 28.78170224 8.29107187 30.88485681 8.6484375 33.01171875 C9 36 9 36 7.5625 37.9375 C7.046875 38.288125 6.53125 38.63875 6 39 C5.01 38.67 4.02 38.34 3 38 C4.485 37.505 4.485 37.505 6 37 C5.71722382 34.10304831 5.42412587 31.2077705 5.125 28.3125 C5.04636719 27.49587891 4.96773437 26.67925781 4.88671875 25.83789062 C4.43218077 21.51977982 3.73255318 18.01222841 2 14 C1.62109375 11.46484375 1.62109375 11.46484375 1.4375 8.9375 C1.20378994 5.84203408 0.83635769 2.99291634 0 0 Z " fill="#C3C1C1" transform="translate(37,18)"/>
	

	<path d="M0 0 C1.18722656 0.29970703 1.18722656 0.29970703 2.3984375 0.60546875 C3.59339844 0.89357422 3.59339844 0.89357422 4.8125 1.1875 C6.7734375 1.79296875 6.7734375 1.79296875 7.7734375 2.79296875 C7.81407582 4.4591399 7.8161585 6.1268497 7.7734375 7.79296875 C3.71585351 8.56584189 -0.09355981 8.98520143 -4.2265625 8.79296875 C-5.2265625 7.79296875 -5.2265625 7.79296875 -5.4765625 4.85546875 C-5.3528125 3.33953125 -5.3528125 3.33953125 -5.2265625 1.79296875 C-2.2265625 -0.20703125 -2.2265625 -0.20703125 0 0 Z " fill="#D5D3D3" transform="translate(9.2265625,53.20703125)"/>
	

	<path d="M0 0 C2.6875 0 2.6875 0 6 1 C11.26204199 7.083366 12.39226905 13.12444439 12 21 C11.71325582 23.00720923 11.39764263 25.01178687 11 27 C10.67 27 10.34 27 10 27 C9.96261719 25.91460938 9.92523438 24.82921875 9.88671875 23.7109375 C9.82102125 22.26559261 9.75457524 20.82028161 9.6875 19.375 C9.66494141 18.66214844 9.64238281 17.94929688 9.61914062 17.21484375 C9.37839558 12.44371475 8.374315 9.23939353 6 5 C6 4.34 6 3.68 6 3 C4.68 2.67 3.36 2.34 2 2 C2.3609375 2.68964844 2.721875 3.37929687 3.09375 4.08984375 C6.23630405 10.45351571 7.58094503 14.91247058 7 22 C6.67 22 6.34 22 6 22 C5.90203125 21.35933594 5.8040625 20.71867187 5.703125 20.05859375 C4.95043782 15.70468772 4.23384586 11.96834514 1.875 8.1875 C0.0028566 5.00485622 -0.4354491 3.59245505 0 0 Z " fill="#616162" transform="translate(61,6)"/>
	

	<path d="M0 0 C0.33 0.66 0.66 1.32 1 2 C0.67 2.99 0.34 3.98 0 5 C0.99 6.485 0.99 6.485 2 8 C1.9765625 10.69921875 1.9765625 10.69921875 1.625 13.6875 C1.51414062 14.68136719 1.40328125 15.67523438 1.2890625 16.69921875 C1.19367187 17.45847656 1.09828125 18.21773437 1 19 C0.67 19 0.34 19 0 19 C-1.28571429 11.57142857 -1.28571429 11.57142857 0 8 C-1.32 8 -2.64 8 -4 8 C-3.34 14.27 -2.68 20.54 -2 27 C-2.99 26.67 -3.98 26.34 -5 26 C-5.22297226 23.12546578 -5.42878171 20.2513818 -5.625 17.375 C-5.68945312 16.56675781 -5.75390625 15.75851563 -5.8203125 14.92578125 C-6.13273892 10.12222508 -5.92020113 6.52932939 -4 2 C-3.01 2.33 -2.02 2.66 -1 3 C-0.67 2.01 -0.34 1.02 0 0 Z " fill="#B4B0B0" transform="translate(53,21)"/>
	

	

	<path d="M0 0 C0.33 0 0.66 0 1 0 C1.02690104 2.79173055 1.04679053 5.58320348 1.0625 8.375 C1.07087891 9.1690625 1.07925781 9.963125 1.08789062 10.78125 C1.11328125 16.7734375 1.11328125 16.7734375 0 19 C0.99 18.67 1.98 18.34 3 18 C1.47549821 23.80054339 0.34673609 27.67635324 -5 31 C-5 30.34 -5 29.68 -5 29 C-5.66 28.67 -6.32 28.34 -7 28 C-6.36771484 26.9790625 -6.36771484 26.9790625 -5.72265625 25.9375 C-0.77992205 17.19176795 -0.02488539 9.80484325 0 0 Z " fill="#626263" transform="translate(80,90)"/>
	

	<path d="M0 0 C0.99 0.33 1.98 0.66 3 1 C2.67 1.66 2.34 2.32 2 3 C1.01 2.67 0.02 2.34 -1 2 C-1 2.66 -1 3.32 -1 4 C-2.258125 4.33 -3.51625 4.66 -4.8125 5 C-8.33046712 6.36740771 -8.89553703 6.82477179 -10.9375 10.25 C-12.79246354 16.5759013 -12.75249631 23.44541955 -13 30 C-13.33 30 -13.66 30 -14 30 C-14.0871747 26.25014675 -14.14045003 22.50055445 -14.1875 18.75 C-14.21263672 17.68652344 -14.23777344 16.62304688 -14.26367188 15.52734375 C-14.27333984 14.50253906 -14.28300781 13.47773437 -14.29296875 12.421875 C-14.3086792 11.47924805 -14.32438965 10.53662109 -14.34057617 9.56542969 C-13.93845507 6.53640562 -13.08320485 5.2016616 -11 3 C-8.80859375 2.20703125 -8.80859375 2.20703125 -6.4375 1.8125 C-3.11043472 1.24229542 -3.11043472 1.24229542 0 0 Z " fill="#BDBABA" transform="translate(37,52)"/>
	

	<path d="M0 0 C0.33 0 0.66 0 1 0 C1 2.64 1 5.28 1 8 C4.11332248 7.33131686 4.11332248 7.33131686 5.1875 4.9375 C5.455625 4.298125 5.72375 3.65875 6 3 C6 4.65 6 6.3 6 8 C6.66 8 7.32 8 8 8 C8.12375 6.865625 8.2475 5.73125 8.375 4.5625 C8.58125 3.386875 8.7875 2.21125 9 1 C9.66 0.67 10.32 0.34 11 0 C11 0.99 11 1.98 11 3 C12.65 3 14.3 3 16 3 C15.814375 3.61875 15.62875 4.2375 15.4375 4.875 C14.76313824 7.04160178 14.76313824 7.04160178 16 9 C15.0925 8.7525 14.185 8.505 13.25 8.25 C12.1775 8.1675 11.105 8.085 10 8 C8.64631404 9.31266518 7.31200404 10.64567325 6 12 C2.92901621 11.92509796 1.51439964 11.44344796 -0.8125 9.4375 C-1.204375 8.963125 -1.59625 8.48875 -2 8 C-1.34 8 -0.68 8 0 8 C0 5.36 0 2.72 0 0 Z " fill="#6A6A6B" transform="translate(59,52)"/>
	

	

	<path d="M0 0 C0.99 0.33 1.98 0.66 3 1 C3 4.3 3 7.6 3 11 C3.99 11.33 4.98 11.66 6 12 C5.67 13.32 5.34 14.64 5 16 C3.35 16.33 1.7 16.66 0 17 C-1.07957377 13.76127868 -1.13326784 11.33971795 -1.125 7.9375 C-1.12886719 6.34228516 -1.12886719 6.34228516 -1.1328125 4.71484375 C-1 2 -1 2 0 0 Z " fill="#C5C3C3" transform="translate(74,29)"/>
	

	<path d="M0 0 C0.99 0 1.98 0 3 0 C3.33 1.32 3.66 2.64 4 4 C4.99 4 5.98 4 7 4 C6.42357516 7.89086767 4.71831813 10.20617303 2 13 C-0.75 13.8125 -0.75 13.8125 -3 14 C-2.125 10.125 -2.125 10.125 -1 9 C-0.76807135 7.48530552 -0.58784762 5.96245438 -0.4375 4.4375 C-0.35371094 3.61121094 -0.26992187 2.78492188 -0.18359375 1.93359375 C-0.12300781 1.29550781 -0.06242187 0.65742187 0 0 Z " fill="#F9F9F9" transform="translate(86,42)"/>
	

	<path d="M0 0 C0.99 0.66 1.98 1.32 3 2 C3.28056176 4.80561762 3.26710868 6.46578263 2 9 C2.165 10.155 2.33 11.31 2.5 12.5 C3 16 3 16 2 18 C0.68 17.67 -0.64 17.34 -2 17 C-2 4 -2 4 0 0 Z " fill="#818080" transform="translate(97,28)"/>
	

	<path d="M0 0 C0.58007812 0.34933594 1.16015625 0.69867188 1.7578125 1.05859375 C2.53898437 1.51363281 3.32015625 1.96867187 4.125 2.4375 C5.27355469 3.11619141 5.27355469 3.11619141 6.4453125 3.80859375 C11.20358042 6.02766365 16.09014888 6.12331609 21.2734375 6.09765625 C22.42714844 6.09443359 23.58085938 6.09121094 24.76953125 6.08789062 C26.55423828 6.07532227 26.55423828 6.07532227 28.375 6.0625 C29.58800781 6.05798828 30.80101563 6.05347656 32.05078125 6.04882812 C35.03390507 6.03708354 38.01692679 6.0206584 41 6 C32.42999923 11.71333385 18.21898797 9.49313219 8.61328125 7.69921875 C4.97058937 6.72456726 2.77893283 5.54735509 0 3 C0 2.01 0 1.02 0 0 Z " fill="#A7A3A3" transform="translate(32,118)"/>
	

	<path d="M0 0 C-1.60875 0.2165625 -1.60875 0.2165625 -3.25 0.4375 C-6.76019922 0.89844989 -6.76019922 0.89844989 -9.1875 1.5625 C-11 2 -11 2 -15 2 C-17.23551759 5.35327639 -17.17283528 5.90743657 -16.625 9.6875 C-16.51414062 10.49574219 -16.40328125 11.30398437 -16.2890625 12.13671875 C-16.19367188 12.75160156 -16.09828125 13.36648437 -16 14 C-16.66 14.33 -17.32 14.66 -18 15 C-18.12375 14.195625 -18.2475 13.39125 -18.375 12.5625 C-18.684375 11.2940625 -18.684375 11.2940625 -19 10 C-19.66 9.67 -20.32 9.34 -21 9 C-21.33 9.66 -21.66 10.32 -22 11 C-21.67 7.7 -21.34 4.4 -21 1 C-20.67 1.66 -20.34 2.32 -20 3 C-19.2575 2.360625 -18.515 1.72125 -17.75 1.0625 C-13.16546617 -2.03426444 -4.144218 -4.144218 0 0 Z " fill="#C5C2C2" transform="translate(95,20)"/>
	

	<path d="M0 0 C0.99 0 1.98 0 3 0 C4.39560045 2.79120091 4.21808288 5.20205692 4.31640625 8.3203125 C4.35830078 9.57714844 4.40019531 10.83398438 4.44335938 12.12890625 C4.48267578 13.44761719 4.52199219 14.76632813 4.5625 16.125 C4.60569512 17.46485751 4.64930973 18.80470156 4.69335938 20.14453125 C4.79970981 23.42957815 4.90173808 26.71470281 5 30 C0.38960827 25.38960827 1.94561263 14.93422356 1.9375 8.6875 C1.95310332 7.12493902 1.97182072 5.56238478 2 4 C1.34 3.67 0.68 3.34 0 3 C0 6.96 0 10.92 0 15 C-0.66 13.68 -1.32 12.36 -2 11 C-2.45375 10.401875 -2.9075 9.80375 -3.375 9.1875 C-4 7 -4 7 -3.234375 5.19140625 C-2.22282623 3.4211959 -1.11575484 1.70644858 0 0 Z " fill="#656666" transform="translate(56,18)"/>
	

	<path d="M0 0 C2.69082872 0.17635452 5.32851446 0.61835921 8 1 C8 1.33 8 1.66 8 2 C5.69 2.66 3.38 3.32 1 4 C0.97306425 6.12493141 0.95363372 8.24995912 0.9375 10.375 C0.92589844 11.55835937 0.91429687 12.74171875 0.90234375 13.9609375 C0.78533407 16.91921521 0.78533407 16.91921521 2 19 C1.01 18.67 0.02 18.34 -1 18 C-1 16.68 -1 15.36 -1 14 C-1.66 14 -2.32 14 -3 14 C-4.47022475 8.5200714 -3.48569348 5.87578336 -1 1 C-0.67 0.67 -0.34 0.34 0 0 Z " fill="#BBB8B8" transform="translate(5,65)"/>
	

	<path d="M0 0 C2.625 -0.4375 2.625 -0.4375 6 0 C8.38998754 2.05086769 10.3067937 4.34610927 12 7 C12 7.66 12 8.32 12 9 C11.34 9 10.68 9 10 9 C9.360625 8.030625 8.72125 7.06125 8.0625 6.0625 C6.28938993 2.75744775 6.28938993 2.75744775 3 2 C3.34933594 2.53109375 3.69867188 3.0621875 4.05859375 3.609375 C4.51363281 4.31578125 4.96867187 5.0221875 5.4375 5.75 C5.88996094 6.44609375 6.34242187 7.1421875 6.80859375 7.859375 C9.0166568 11.82664894 9.11604143 15.25251968 9.0625 19.75 C9.05347656 20.73484375 9.04445313 21.7196875 9.03515625 22.734375 C9.02355469 23.48203125 9.01195312 24.2296875 9 25 C8.67 25 8.34 25 8 25 C7.92523438 24.16597656 7.85046875 23.33195312 7.7734375 22.47265625 C6.94192421 15.35588073 5.70844862 10.46765016 1.2421875 4.8046875 C0 3 0 3 0 0 Z " fill="#646565" transform="translate(35,12)"/>
	

	<path d="M0 0 C2.41188306 0.36988963 3.66124143 0.59955391 5.265625 2.49609375 C8.10421348 8.09442102 8.45891141 12.77920087 8 19 C7.34 19.33 6.68 19.66 6 20 C5.81824219 19.19175781 5.63648437 18.38351563 5.44921875 17.55078125 C5.07216797 15.94783203 5.07216797 15.94783203 4.6875 14.3125 C4.44386719 13.25675781 4.20023437 12.20101563 3.94921875 11.11328125 C3.00579139 8.0189948 1.6700818 5.74604486 0 3 C0 2.01 0 1.02 0 0 Z " fill="#1D1D1E" transform="translate(63,8)"/>
	

	<path d="M0 0 C0.66 0 1.32 0 2 0 C2.0501123 0.60996826 2.10022461 1.21993652 2.15185547 1.84838867 C2.38485813 4.62883426 2.62981295 7.40810346 2.875 10.1875 C2.95363281 11.14720703 3.03226563 12.10691406 3.11328125 13.09570312 C3.19707031 14.02705078 3.28085937 14.95839844 3.3671875 15.91796875 C3.47716064 17.19837036 3.47716064 17.19837036 3.58935547 18.50463867 C4.03588207 21.2180444 4.89508377 23.48936295 6 26 C4.68 25.67 3.36 25.34 2 25 C1.49078672 22.81462633 0.99305563 20.62657569 0.5 18.4375 C0.2215625 17.21933594 -0.056875 16.00117187 -0.34375 14.74609375 C-1.22371552 9.72295725 -1.57111048 4.90972024 0 0 Z " fill="#C2BFBF" transform="translate(21,83)"/>
	

	<path d="M0 0 C0.33 1.32 0.66 2.64 1 4 C-1.31 4 -3.62 4 -6 4 C-6 4.66 -6 5.32 -6 6 C-9.00218387 7.36462903 -11.38037198 8.04512888 -14.6875 8.4375 C-15.780625 8.623125 -16.87375 8.80875 -18 9 C-18.99 10.485 -18.99 10.485 -20 12 C-20.66 12 -21.32 12 -22 12 C-22.33 13.32 -22.66 14.64 -23 16 C-23.99 15.67 -24.98 15.34 -26 15 C-19.34611292 6.24597981 -13.61965965 4.22910574 -3.00390625 2.52734375 C-2.34261719 2.35332031 -1.68132812 2.17929687 -1 2 C-0.67 1.34 -0.34 0.68 0 0 Z " fill="#BDBABA" transform="translate(112,49)"/>
	

	<path d="M0 0 C0.99 0 1.98 0 3 0 C2.68417969 0.5671875 2.36835937 1.134375 2.04296875 1.71875 C0.96394552 4.07886074 0.58093527 5.93006229 0.3125 8.5 C0.22613281 9.2528125 0.13976562 10.005625 0.05078125 10.78125 C-0.10853721 13.01706079 -0.10853721 13.01706079 0.60546875 15.15625 C0.73566406 15.7646875 0.86585937 16.373125 1 17 C0.34 17.66 -0.32 18.32 -1 19 C-3.125 18.625 -3.125 18.625 -5 18 C-4.66871094 17.443125 -4.33742188 16.88625 -3.99609375 16.3125 C-2.55106916 12.95777625 -2.99841911 10.02529425 -3.22265625 6.4375 C-2.9467246 3.41677458 -2.12766766 2.13260424 0 0 Z " fill="#1D1D1E" transform="translate(104,21)"/>
	

	<path d="M0 0 C2 2 2 2 2.40234375 4.3046875 C1.84772179 8.02011619 0.16755649 9.46711085 -2.4375 12.125 C-5.93719906 15.61744578 -5.93719906 15.61744578 -8 20 C-7.05125 19.236875 -6.1025 18.47375 -5.125 17.6875 C-4.59132813 17.25824219 -4.05765625 16.82898438 -3.5078125 16.38671875 C-1.74707893 14.87729455 -1.74707893 14.87729455 0 12 C0.99 12.33 1.98 12.66 3 13 C1.71034824 14.37562854 0.37310707 15.70766393 -1 17 C-1.66 17 -2.32 17 -3 17 C-3.2475 17.639375 -3.495 18.27875 -3.75 18.9375 C-5 21 -5 21 -7.125 21.75 C-8.053125 21.87375 -8.053125 21.87375 -9 22 C-9.8212254 19.70056887 -10.13426962 18.41623583 -9.375 16.0625 C-7.15700766 12.73551149 -4.31352354 10.04176005 -1.1875 7.5625 C0.64443328 5.15206148 0.19479285 2.92189274 0 0 Z " fill="#545555" transform="translate(92,43)"/>
	

	<path d="M0 0 C0.33 0 0.66 0 1 0 C0.40546697 12.66970387 0.40546697 12.66970387 -3 18 C-3.99 18 -4.98 18 -6 18 C-5.71812064 16.20676747 -5.4241719 14.41542874 -5.125 12.625 C-4.96257812 11.62726562 -4.80015625 10.62953125 -4.6328125 9.6015625 C-4 7 -4 7 -2 5 C-1.29289322 3.35008418 -0.62056011 1.68437744 0 0 Z " fill="#404141" transform="translate(114,32)"/>
	

	<path d="M0 0 C0.99 0.33 1.98 0.66 3 1 C3.05382106 3.62527189 3.09358313 6.24944713 3.125 8.875 C3.14175781 9.62136719 3.15851562 10.36773437 3.17578125 11.13671875 C3.1933959 13.09194461 3.10320189 15.04742021 3 17 C2.34 17.66 1.68 18.32 1 19 C-1.05155781 16.94844219 -0.45882524 12.88991475 -0.625 10.0625 C-0.6765625 9.32064453 -0.728125 8.57878906 -0.78125 7.81445312 C-1.12437576 2.24875151 -1.12437576 2.24875151 0 0 Z " fill="#1D1D1E" transform="translate(56,21)"/>
	

	<path d="M0 0 C0 0.66 0 1.32 0 2 C1.98 1.67 3.96 1.34 6 1 C4.68 2.65 3.36 4.3 2 6 C1.01 5.67 0.02 5.34 -1 5 C-1.33 4.34 -1.66 3.68 -2 3 C-3.98 3 -5.96 3 -8 3 C-8.33 4.65 -8.66 6.3 -9 8 C-9.99 8.33 -10.98 8.66 -12 9 C-12 7.68 -12 6.36 -12 5 C-14.97 4.505 -14.97 4.505 -18 4 C-17.67 3.34 -17.34 2.68 -17 2 C-15.865625 2.020625 -14.73125 2.04125 -13.5625 2.0625 C-10.18424326 2.41577477 -10.18424326 2.41577477 -9 1 C-2.88888889 0 -2.88888889 0 0 0 Z " fill="#A7A3A3" transform="translate(97,19)"/>
	

	<path d="M0 0 C0.99 0.33 1.98 0.66 3 1 C2.34 5.62 1.68 10.24 1 15 C0.01 15.33 -0.98 15.66 -2 16 C-2.05423638 14.08364783 -2.09289963 12.16685075 -2.125 10.25 C-2.14820312 9.18265625 -2.17140625 8.1153125 -2.1953125 7.015625 C-2.00487687 4.07529894 -1.52670104 2.47638122 0 0 Z " fill="#424343" transform="translate(27,63)"/>
	

	<path d="M0 0 C0.33 0.99 0.66 1.98 1 3 C2.32 2.67 3.64 2.34 5 2 C4.74445946 3.46109063 4.46999628 4.91888096 4.1875 6.375 C4.03667969 7.18710937 3.88585937 7.99921875 3.73046875 8.8359375 C3 11 3 11 0 13 C-2.1875 12.625 -2.1875 12.625 -4 12 C-3.34 10.68 -2.68 9.36 -2 8 C-1.34 8 -0.68 8 0 8 C0 5.36 0 2.72 0 0 Z " fill="#C5C2C2" transform="translate(73,43)"/>
	

	<path d="M0 0 C0.99 0.66 1.98 1.32 3 2 C2.01 4.97 1.02 7.94 0 11 C-1.32 11 -2.64 11 -4 11 C-4.35233161 5.62694301 -4.35233161 5.62694301 -4 3 C-2 1 -2 1 0 0 Z " fill="#F5F5F5" transform="translate(111,23)"/>
	

	<path d="M0 0 C0.99 0 1.98 0 3 0 C4.89147345 5.04392921 3.46651688 10.97194214 2 16 C0.68 15.34 -0.64 14.68 -2 14 C-1.66097656 13.43667969 -1.32195312 12.87335937 -0.97265625 12.29296875 C0.17007895 9.59905082 0.02105279 8.17254575 -0.4375 5.3125 C-0.66022373 3.88003477 -0.85662094 2.44256887 -1 1 C-0.67 0.67 -0.34 0.34 0 0 Z " fill="#1D1D1E" transform="translate(80,24)"/>
	

	<path d="M0 0 C0.99 0 1.98 0 3 0 C4.125 6.75 4.125 6.75 3 9 C1.35 9 -0.3 9 -2 9 C-2.125 5.625 -2.125 5.625 -2 2 C-1.34 1.34 -0.68 0.68 0 0 Z " fill="#D4D2D2" transform="translate(86,27)"/>
	

	<path d="M0 0 C0.33 0.66 0.66 1.32 1 2 C0.67 2.66 0.34 3.32 0 4 C0.99 4 1.98 4 3 4 C3.33 2.68 3.66 1.36 4 0 C4.33 0.99 4.66 1.98 5 3 C3 6 3 6 -0.6953125 6.94921875 C-2.16966453 7.20822654 -3.64641921 7.45383827 -5.125 7.6875 C-5.87910156 7.81705078 -6.63320312 7.94660156 -7.41015625 8.08007812 C-9.27151866 8.39815904 -11.13554435 8.70058286 -13 9 C-10.21466571 5.88009102 -8.15654359 5.46183818 -4 5 C-4 4.34 -4 3.68 -4 3 C-3.01 3 -2.02 3 -1 3 C-0.67 2.01 -0.34 1.02 0 0 Z " fill="#5F5F60" transform="translate(108,46)"/>
	

	<path d="M0 0 C0.99 0.4021875 0.99 0.4021875 2 0.8125 C5.64939067 2.25705047 9.32245433 3.62871178 13 5 C13 5.66 13 6.32 13 7 C9.7 7.33 6.4 7.66 3 8 C2.01 5.36 1.02 2.72 0 0 Z " fill="#1D1D1E" transform="translate(115,20)"/>
	

	<path d="M0 0 C0.99 0.33 1.98 0.66 3 1 C2.53851563 1.37125 2.07703125 1.7425 1.6015625 2.125 C-0.52374939 4.61317001 -0.91592758 6.82086212 -1.625 10 C-2.323636 13.06498374 -3.0055272 16.01658161 -4 19 C-4.66 19 -5.32 19 -6 19 C-5.54283122 14.42831221 -5.1650567 11.05948132 -3 7 C-2.835 5.948125 -2.67 4.89625 -2.5 3.8125 C-2.335 2.884375 -2.17 1.95625 -2 1 C-1.34 0.67 -0.68 0.34 0 0 Z " fill="#BFBCBC" transform="translate(119,29)"/>
	

	<path d="M0 0 C0.99 0.33 1.98 0.66 3 1 C1.90112305 2.97558594 1.90112305 2.97558594 0 5 C-2.91088867 5.45410156 -2.91088867 5.45410156 -6.41796875 5.390625 C-7.67158203 5.37773438 -8.92519531 5.36484375 -10.21679688 5.3515625 C-11.52712891 5.31804687 -12.83746094 5.28453125 -14.1875 5.25 C-15.5227601 5.22993307 -16.85804883 5.21168262 -18.19335938 5.1953125 C-21.46296146 5.14809803 -24.73112192 5.08225184 -28 5 C-28 4.67 -28 4.34 -28 4 C-27.22285645 3.98541748 -26.44571289 3.97083496 -25.64501953 3.95581055 C-22.13783312 3.88153022 -18.6316199 3.78480411 -15.125 3.6875 C-13.90167969 3.66494141 -12.67835937 3.64238281 -11.41796875 3.61914062 C-10.25136719 3.58369141 -9.08476563 3.54824219 -7.8828125 3.51171875 C-6.80402832 3.48553467 -5.72524414 3.45935059 -4.61376953 3.43237305 C-3.75122559 3.28968994 -2.88868164 3.14700684 -2 3 C-1.34 2.01 -0.68 1.02 0 0 Z " fill="#A19E9E" transform="translate(72,115)"/>
	

	<path d="M0 0 C0.66 0 1.32 0 2 0 C1.4445017 5.92531524 -1.87444438 11.16168162 -6.3125 15 C-6.869375 15.33 -7.42625 15.66 -8 16 C-8.66 15.67 -9.32 15.34 -10 15 C-9.52949219 14.50371094 -9.05898437 14.00742188 -8.57421875 13.49609375 C-4.62393472 9.18594947 -1.95387647 5.51682767 0 0 Z " fill="#BEBBBB" transform="translate(83,108)"/>
	

	<path d="M0 0 C1.75 0.125 1.75 0.125 4 1 C6.93355173 4.66693966 8 6.23130534 8 11 C7.34 11 6.68 11 6 11 C4.4921875 9.1015625 4.4921875 9.1015625 2.875 6.625 C2.33617187 5.81289063 1.79734375 5.00078125 1.2421875 4.1640625 C0 2 0 2 0 0 Z " fill="#1D1D1E" transform="translate(38,14)"/>
	

	<path d="M0 0 C0.99 0.33 1.98 0.66 3 1 C4.56118428 1.06740865 6.1250252 1.08514456 7.6875 1.0625 C8.49574219 1.05347656 9.30398437 1.04445313 10.13671875 1.03515625 C10.75160156 1.02355469 11.36648437 1.01195313 12 1 C12 1.66 12 2.32 12 3 C8.37 3.33 4.74 3.66 1 4 C1 5.98 1 7.96 1 10 C0.67 10 0.34 10 0 10 C0 8.35 0 6.7 0 5 C-0.99 4.67 -1.98 4.34 -3 4 C-2.01 3.67 -1.02 3.34 0 3 C0 2.01 0 1.02 0 0 Z " fill="#666667" transform="translate(116,26)"/>
	

	<path d="M0 0 C0.33 0 0.66 0 1 0 C1.41612253 2.76916073 1.80847753 5.53823496 2.1875 8.3125 C2.36829102 9.49102539 2.36829102 9.49102539 2.55273438 10.69335938 C2.65263672 11.45068359 2.75253906 12.20800781 2.85546875 12.98828125 C2.95496826 13.68477783 3.05446777 14.38127441 3.15698242 15.09887695 C3 17 3 17 1.5090332 18.75073242 C1.01105225 19.16299072 0.51307129 19.57524902 0 20 C-0.99 19.67 -1.98 19.34 -3 19 C-2.01 18.67 -1.02 18.34 0 18 C0 12.06 0 6.12 0 0 Z " fill="#BBB8B8" transform="translate(43,37)"/>
	

	<path d="M0 0 C0.99 0 1.98 0 3 0 C7 6.625 7 6.625 7 10 C6.34 10 5.68 10 5 10 C4.34 8.35 3.68 6.7 3 5 C2.34 5 1.68 5 1 5 C0.67 7.97 0.34 10.94 0 14 C-0.33 14 -0.66 14 -1 14 C-1.027193 12.41676312 -1.04648306 10.83338938 -1.0625 9.25 C-1.07410156 8.36828125 -1.08570312 7.4865625 -1.09765625 6.578125 C-1.00826198 4.2181162 -0.66912821 2.25501476 0 0 Z " fill="#ADA9A9" transform="translate(85,36)"/>
	

	<path d="M0 0 C2.84550012 0.66010476 5.52325999 1.51724966 8.25 2.5625 C8.95640625 2.83191406 9.6628125 3.10132813 10.390625 3.37890625 C10.92171875 3.58386719 11.4528125 3.78882813 12 4 C11.67 5.65 11.34 7.3 11 9 C9 6 9 6 9 4 C2.31468008 2.82712428 2.31468008 2.82712428 -4 5 C-2.68 3.35 -1.36 1.7 0 0 Z " fill="#B6B3B3" transform="translate(69,59)"/>
	

	<path d="M0 0 C0.99 0.33 1.98 0.66 3 1 C1.38405168 3.04119788 -0.2856382 5.04072937 -2 7 C-2.66 7 -3.32 7 -4 7 C-4.66 8.32 -5.32 9.64 -6 11 C-6.66 11 -7.32 11 -8 11 C-7.43040847 7.37386801 -6.07625466 5.74482259 -3.4375 3.25 C-2.79683594 2.63640625 -2.15617187 2.0228125 -1.49609375 1.390625 C-1.00238281 0.93171875 -0.50867188 0.4728125 0 0 Z " fill="#1D1D1E" transform="translate(92,52)"/>
	

	<path d="M0 0 C3.125 -0.1875 3.125 -0.1875 6 0 C6.33 1.65 6.66 3.3 7 5 C6.34 4.34 5.68 3.68 5 3 C4.01 3.33 3.02 3.66 2 4 C2 5.32 2 6.64 2 8 C1.34 8 0.68 8 0 8 C-1.125 5.6875 -1.125 5.6875 -2 3 C-1.34 2.01 -0.68 1.02 0 0 Z " fill="#5E5F5F" transform="translate(89,21)"/>
	

	<path d="M0 0 C3.73487777 0.4979837 5.81237635 0.87491756 9 3 C7.02 3 5.04 3 3 3 C2.67 4.32 2.34 5.64 2 7 C2.99 7.33 3.98 7.66 5 8 C4.67 8.66 4.34 9.32 4 10 C1.24049934 7.50754779 -0.62030099 5.79699009 -1 2 C-0.67 1.34 -0.34 0.68 0 0 Z " fill="#CFCDCD" transform="translate(32,8)"/>
	

	<path d="M0 0 C2.0625 -0.375 2.0625 -0.375 5 0 C6.84823348 1.43130639 8.50918945 3.00431582 10.21875 4.59765625 C12.6771035 6.53307052 14.92212961 6.84985998 18 7 C18 7.66 18 8.32 18 9 C11.86230717 8.62422289 8.73036356 6.9580593 4 3 C4 2.34 4 1.68 4 1 C2.68 0.67 1.36 0.34 0 0 Z " fill="#5E5F5F" transform="translate(110,16)"/>
	

	<path d="M0 0 C0.99 0.33 1.98 0.66 3 1 C3 2.98 3 4.96 3 7 C1.35 6.67 -0.3 6.34 -2 6 C-1.125 1.125 -1.125 1.125 0 0 Z " fill="#D3D2D2" transform="translate(105,40)"/>
	

	<path d="M0 0 C2.64 0 5.28 0 8 0 C8 1.32 8 2.64 8 4 C5.36 3.67 2.72 3.34 0 3 C0 2.01 0 1.02 0 0 Z " fill="#A7A3A3" transform="translate(6,56)"/>
	

	<path d="M0 0 C0.33 0.99 0.66 1.98 1 3 C0.01 3.495 0.01 3.495 -1 4 C-1.73075648 6.3140622 -2.40138258 8.64828869 -3 11 C-3.66 11 -4.32 11 -5 11 C-5.17615457 7.12459955 -5.28341107 4.24484731 -3 1 C-2.01 0.67 -1.02 0.34 0 0 Z " fill="#3A3B3B" transform="translate(70,49)"/>
	

	<path d="M0 0 C1.65 1.65 3.3 3.3 5 5 C4.01 6.485 4.01 6.485 3 8 C1.68 7.34 0.36 6.68 -1 6 C-1.042721 4.33388095 -1.04063832 2.66617115 -1 1 C-0.67 0.67 -0.34 0.34 0 0 Z " fill="#1D1D1E" transform="translate(92,34)"/>
	

	<path d="M0 0 C-1.60875 0.2165625 -1.60875 0.2165625 -3.25 0.4375 C-6.72666832 0.897688 -6.72666832 0.897688 -9 1.5 C-11.965204 2.241301 -14.97366701 2.59260902 -18 3 C-15.76985368 0.31736022 -14.50238962 -0.88406393 -11.0546875 -1.6796875 C-10.00539063 -1.74414062 -8.95609375 -1.80859375 -7.875 -1.875 C-6.82054688 -1.95492188 -5.76609375 -2.03484375 -4.6796875 -2.1171875 C-2 -2 -2 -2 0 0 Z " fill="#D5D3D3" transform="translate(95,20)"/>
	

	

	<path d="M0 0 C0.33 0 0.66 0 1 0 C0.67 3.63 0.34 7.26 0 11 C-1.32 11.33 -2.64 11.66 -4 12 C-4 9 -4 9 -2 7 C-1.28072705 4.68234271 -0.6090107 2.34904126 0 0 Z " fill="#1D1D1E" transform="translate(58,48)"/>
	

	<path d="M0 0 C2 2 2 2 2.1953125 4.8203125 C2.17210937 5.91085938 2.14890625 7.00140625 2.125 8.125 C2.10695313 9.22070312 2.08890625 10.31640625 2.0703125 11.4453125 C2.04710937 12.28835937 2.02390625 13.13140625 2 14 C0.0625 14.5625 0.0625 14.5625 -2 15 C-3 14 -3 14 -3.0625 10.9375 C-3.041875 9.968125 -3.02125 8.99875 -3 8 C-2.67 8 -2.34 8 -2 8 C-2 9.65 -2 11.3 -2 13 C-1.34 12.67 -0.68 12.34 0 12 C0 8.04 0 4.08 0 0 Z " fill="#ADA9A9" transform="translate(54,40)"/>
	

	<path d="M0 0 C2 2 2 2 2.34375 4.35546875 C1.91040149 7.68929764 0.7931712 8.89648034 -1.5 11.3125 C-2.1496875 12.00988281 -2.799375 12.70726562 -3.46875 13.42578125 C-3.9740625 13.94527344 -4.479375 14.46476562 -5 15 C-5.99 14.67 -6.98 14.34 -8 14 C-3 9 -3 9 -1.1875 7.5625 C0.64443328 5.15206148 0.19479285 2.92189274 0 0 Z " fill="#676868" transform="translate(92,43)"/>
	

	<path d="M0 0 C0.66 0 1.32 0 2 0 C2.125 6.625 2.125 6.625 1 10 C0.01 10 -0.98 10 -2 10 C-1.34 6.7 -0.68 3.4 0 0 Z " fill="#1D1D1E" transform="translate(110,40)"/>
	

	<path d="M0 0 C0.66 0.33 1.32 0.66 2 1 C1.125 5.75 1.125 5.75 0 8 C1.32 8.33 2.64 8.66 4 9 C4 9.66 4 10.32 4 11 C1.03 10.505 1.03 10.505 -2 10 C-3.39195915 5.82412255 -1.82323219 3.86525224 0 0 Z " fill="#5B5B5C" transform="translate(79,30)"/>
	

	<path d="M0 0 C2 0.25 2 0.25 4 1 C4.33 1.99 4.66 2.98 5 4 C4.01 5.485 4.01 5.485 3 7 C2.01 6.67 1.02 6.34 0 6 C-0.38218767 4.34385343 -0.71395102 2.67542976 -1 1 C-0.67 0.67 -0.34 0.34 0 0 Z " fill="#1D1D1E" transform="translate(91,23)"/>
	

	<path d="M0 0 C3.3 0 6.6 0 10 0 C10.66 1.32 11.32 2.64 12 4 C11.484375 3.649375 10.96875 3.29875 10.4375 2.9375 C6.19391567 1.30535218 2.190398 2.60320067 -2 4 C-1.34 2.68 -0.68 1.36 0 0 Z " fill="#BDBABA" transform="translate(107,15)"/>
	

	

	<path d="M0 0 C0.66 0 1.32 0 2 0 C2 0.66 2 1.32 2 2 C3.98 1.67 5.96 1.34 8 1 C6.68 2.65 5.36 4.3 4 6 C3.01 5.67 2.02 5.34 1 5 C0.505 2.525 0.505 2.525 0 0 Z " fill="#BCB9B9" transform="translate(95,19)"/>
	

	<path d="M0 0 C0.66 0 1.32 0 2 0 C2.33 3.3 2.66 6.6 3 10 C2.01 9.67 1.02 9.34 0 9 C0 6.03 0 3.06 0 0 Z " fill="#8B898A" transform="translate(48,38)"/>
	

	<path d="M0 0 C2.97 0.495 2.97 0.495 6 1 C4.68 1.33 3.36 1.66 2 2 C2.33 4.31 2.66 6.62 3 9 C2.01 8.67 1.02 8.34 0 8 C0 5.36 0 2.72 0 0 Z " fill="#BDB9B9" transform="translate(59,4)"/>
	

	<path d="M0 0 C1.485 0.99 1.485 0.99 3 2 C3.1875 4.625 3.1875 4.625 3 7 C1.68 6.67 0.36 6.34 -1 6 C-0.67 4.02 -0.34 2.04 0 0 Z " fill="#C1BFBF" transform="translate(97,28)"/>
	

	<path d="M0 0 C0.66 0.33 1.32 0.66 2 1 C1.1875 3.4375 1.1875 3.4375 0 6 C-0.99 6.33 -1.98 6.66 -3 7 C-2.25 2.25 -2.25 2.25 0 0 Z " fill="#1D1D1E" transform="translate(81,45)"/>
	

	<path d="M0 0 C0.99 0.33 1.98 0.66 3 1 C3 2.65 3 4.3 3 6 C1.68 6 0.36 6 -1 6 C-0.67 4.02 -0.34 2.04 0 0 Z " fill="#FAFAFA" transform="translate(74,29)"/>
	

	<path d="M0 0 C2.97 0.33 5.94 0.66 9 1 C9 1.99 9 2.98 9 4 C6.1875 4.25 6.1875 4.25 3 4 C1.125 2 1.125 2 0 0 Z " fill="#C1BEBE" transform="translate(119,19)"/>
	

	<path d="M0 0 C2.97 1.65 5.94 3.3 9 5 C9 5.66 9 6.32 9 7 C5.51375944 6.3543999 2.87501211 5.07639763 0 3 C0 2.01 0 1.02 0 0 Z " fill="#C0BDBD" transform="translate(32,118)"/>
	

	

	<path d="M0 0 C0.33 0 0.66 0 1 0 C1 1.65 1 3.3 1 5 C1.66 5 2.32 5 3 5 C3.33 4.34 3.66 3.68 4 3 C3.67 4.32 3.34 5.64 3 7 C1.35 7.33 -0.3 7.66 -2 8 C-1.34 5.36 -0.68 2.72 0 0 Z " fill="#545555" transform="translate(64,55)"/>
	

	<path d="M0 0 C0 0.99 0 1.98 0 3 C-4.455 3.495 -4.455 3.495 -9 4 C-9 3.34 -9 2.68 -9 2 C-5.62902617 0.50178941 -3.79557881 0 0 0 Z " fill="#484949" transform="translate(39,57)"/>
	

	<path d="M0 0 C1.65 0.33 3.3 0.66 5 1 C4.67 1.99 4.34 2.98 4 4 C2.35 3.67 0.7 3.34 -1 3 C-0.67 2.01 -0.34 1.02 0 0 Z " fill="#1D1D1E" transform="translate(74,56)"/>
	

	<path d="M0 0 C0.99 0.33 1.98 0.66 3 1 C3.33 3.97 3.66 6.94 4 10 C1.7448078 7.7448078 1.02276532 5.9952413 0 3 C0 2.01 0 1.02 0 0 Z " fill="#C2BFBF" transform="translate(70,11)"/>
	

	<path d="M0 0 C0.33 0 0.66 0 1 0 C1.33730842 1.43657245 1.66969591 2.87430093 2 4.3125 C2.185625 5.11300781 2.37125 5.91351563 2.5625 6.73828125 C3 9 3 9 3 12 C2.01 11.67 1.02 11.34 0 11 C0 7.37 0 3.74 0 0 Z " fill="#B7B4B4" transform="translate(23,97)"/>
	

	<path d="M0 0 C0.99 0.33 1.98 0.66 3 1 C3.6875 3.0625 3.6875 3.0625 4 5 C2.35 4.67 0.7 4.34 -1 4 C-0.67 2.68 -0.34 1.36 0 0 Z " fill="#1D1D1E" transform="translate(100,46)"/>
	

	<path d="M0 0 C1.32 0 2.64 0 4 0 C4 1.32 4 2.64 4 4 C2.68 4.33 1.36 4.66 0 5 C-0.5625 3.0625 -0.5625 3.0625 -1 1 C-0.67 0.67 -0.34 0.34 0 0 Z " fill="#F9F9F9" transform="translate(74,41)"/>
	

	<path d="M0 0 C1.32 0 2.64 0 4 0 C3.67 1.98 3.34 3.96 3 6 C2.34 6 1.68 6 1 6 C0.67 4.02 0.34 2.04 0 0 Z " fill="#FCFCFC" transform="translate(49,29)"/>
	

	<path d="M0 0 C0.99 1.485 0.99 1.485 2 3 C2.53625 3.680625 3.0725 4.36125 3.625 5.0625 C5 7 5 7 5 9 C1.125 7.125 1.125 7.125 0 6 C-0.04080783 4.00041636 -0.04254356 1.99954746 0 0 Z " fill="#BEBBBB" transform="translate(27,109)"/>
	

	<path d="M0 0 C0.33 0.99 0.66 1.98 1 3 C-0.40445835 5.2636564 -2.1967913 7.0208685 -4 9 C-4.33 8.01 -4.66 7.02 -5 6 C-3.6875 3.8125 -3.6875 3.8125 -2 2 C-1.34 2 -0.68 2 0 2 C0 1.34 0 0.68 0 0 Z " fill="#BBB8B8" transform="translate(92,46)"/>
	

	<path d="M0 0 C1.32 0.99 2.64 1.98 4 3 C3.67 5.31 3.34 7.62 3 10 C2.67 10 2.34 10 2 10 C1.87625 9.21625 1.7525 8.4325 1.625 7.625 C1.20882007 4.85942178 1.20882007 4.85942178 -1 3 C-0.67 2.01 -0.34 1.02 0 0 Z " fill="#737374" transform="translate(106,36)"/>
	

</svg>
