<?xml version="1.0" encoding="iso-8859-1"?>
<svg height="128" version="1.1" width="128" xmlns="http://www.w3.org/2000/svg">
	

	<path d="M0 0 C42.24 0 84.48 0 128 0 C128 42.24 128 84.48 128 128 C85.76 128 43.52 128 0 128 C0 85.76 0 43.52 0 0 Z " fill="#060606" transform="translate(0,0)"/>
	

	<path d="M0 0 C15.51 0 31.02 0 47 0 C45.55781777 4.3265467 42.28047777 5.16344886 38.4375 7.125 C31.00758846 11.09146136 23.79453836 15.61638492 21 24 C22.093125 24.61875 23.18625 25.2375 24.3125 25.875 C29.04103447 29.17731658 29.89203918 33.56571599 31 39 C32.98665057 38.67926475 32.98665057 38.67926475 35 38 C35.268125 37.236875 35.53625 36.47375 35.8125 35.6875 C37.49425193 31.88142984 40.36329105 30.63575821 44 29 C45.98356483 28.28591666 47.98315437 27.61382258 50 27 C50.804375 26.649375 51.60875 26.29875 52.4375 25.9375 C62.50179877 22.25543947 75.50457247 22.80195092 85.34375 27 C90.10474887 29.41223943 93.39511737 32.10410994 96.65625 36.31640625 C98.11339018 38.24054624 98.11339018 38.24054624 100.75 40.4375 C103.7665041 43.872963 104.12274031 46.54059656 105 51 C105.33 51.66 105.66 52.32 106 53 C107.00000338 65.19676255 105.0565631 73.8655855 97.26953125 83.30859375 C95.79507856 85.08713399 95.79507856 85.08713399 95 88 C91.9375 89.1875 91.9375 89.1875 89 90 C86.95301586 87.95301586 87.29954307 83.69588759 87 81 C81.91962216 82.99586272 79.61690041 86.65184691 77.3984375 91.5 C75.70318528 94.49021478 74.35659837 95.60507395 71.1015625 96.70703125 C69.61651268 97.10330784 68.12366503 97.47130908 66.625 97.8125 C65.1378452 98.19332523 63.65086265 98.57482379 62.1640625 98.95703125 C61.45282227 99.12928223 60.74158203 99.3015332 60.00878906 99.47900391 C58.21766732 99.94354618 56.45981963 100.53229512 54.7109375 101.13671875 C52 102 52 102 48 102 C48.02320313 101.32453125 48.04640625 100.6490625 48.0703125 99.953125 C48.08835938 99.06109375 48.10640625 98.1690625 48.125 97.25 C48.14820313 96.36828125 48.17140625 95.4865625 48.1953125 94.578125 C47.99139502 91.8864142 47.36551721 90.30095026 46 88 C41.22687739 87.28253689 37.50195688 86.97008671 33.40234375 89.78125 C31.83369316 91.23001998 30.30098668 92.71898513 28.8125 94.25 C27 96 27 96 25 96 C24.51490207 94.62708132 24.03724487 93.25153297 23.5625 91.875 C23.29566406 91.10929687 23.02882813 90.34359375 22.75390625 89.5546875 C21.13395744 84.06532729 20.81785212 78.69465122 20.8125 73 C20.80025391 72.31421875 20.78800781 71.6284375 20.77539062 70.921875 C20.76291211 66.56271404 21.34608462 63.0333401 23 59 C23.33 58.67 23.66 58.34 24 58 C24.07179964 56.48071962 24.08392007 54.95832518 24.0625 53.4375 C24.05347656 52.61121094 24.04445313 51.78492188 24.03515625 50.93359375 C24.02355469 50.29550781 24.01195313 49.65742187 24 49 C23.236875 48.979375 22.47375 48.95875 21.6875 48.9375 C19 48 19 48 17.4375 44.875 C17.21320312 44.25238281 16.98890625 43.62976562 16.7578125 42.98828125 C15.53483432 39.77953952 13.74622827 36.95052363 12 34 C11.01 34 10.02 34 9 34 C8.7215625 34.85980469 8.443125 35.71960937 8.15625 36.60546875 C7.03687139 39.89175259 5.81264278 43.09892636 4.5 46.3125 C4.0771875 47.36050781 3.654375 48.40851562 3.21875 49.48828125 C2 52 2 52 0 53 C0 35.51 0 18.02 0 0 Z " fill="#FBFBFB" transform="translate(0,0)"/>
	

	<path d="M0 0 C1.65 0 3.3 0 5 0 C4.0621478 2.32779726 3.50527972 3.70862588 1.29296875 4.984375 C0.59816406 5.23703125 -0.09664062 5.4896875 -0.8125 5.75 C-5.05558921 7.48863167 -8.96427001 9.61884134 -12.875 12 C-13.96554688 12.66 -15.05609375 13.32 -16.1796875 14 C-18.79181298 15.85236599 -20.47447106 17.19754683 -22 20 C-21.67 20.99 -21.34 21.98 -21 23 C-20.52433594 22.62488281 -20.04867188 22.24976562 -19.55859375 21.86328125 C-9.64741254 14.61698486 2.74660808 10.75973741 15 11 C15.495 12.485 15.495 12.485 16 14 C15.40832031 14.10957031 14.81664062 14.21914062 14.20703125 14.33203125 C13.02173828 14.56986328 13.02173828 14.56986328 11.8125 14.8125 C11.03519531 14.96332031 10.25789063 15.11414062 9.45703125 15.26953125 C4.50381645 16.74210862 0.51206402 19.99122617 -3.625 23 C-4.56601562 23.680625 -5.50703125 24.36125 -6.4765625 25.0625 C-8.95135087 26.86192672 -8.95135087 26.86192672 -10.66796875 28.73828125 C-12 30 -12 30 -14.6875 30.1875 C-15.8321875 30.0946875 -15.8321875 30.0946875 -17 30 C-16.67 32.31 -16.34 34.62 -16 37 C-14.515 36.505 -14.515 36.505 -13 36 C-12.71125 35.195625 -12.4225 34.39125 -12.125 33.5625 C-11 31 -11 31 -8.5625 29.75 C-7.716875 29.5025 -6.87125 29.255 -6 29 C-5.01 28.67 -4.02 28.34 -3 28 C-2.61908203 27.06414063 -2.61908203 27.06414063 -2.23046875 26.109375 C0.17582748 21.98429574 5.40097003 21.28157167 9.765625 19.984375 C18.94984944 17.62271729 28.41394286 17.79458426 37 22 C37 22.99 37 23.98 37 25 C37.70511719 25.2371875 38.41023438 25.474375 39.13671875 25.71875 C42.50286868 27.22502173 44.96983173 29.15584517 47.8125 31.5 C48.78832031 32.2940625 49.76414062 33.088125 50.76953125 33.90625 C51.50558594 34.5971875 52.24164063 35.288125 53 36 C53 36.66 53 37.32 53 38 C53.66 38 54.32 38 55 38 C61.60016569 46.8958755 61.93354007 57.3769578 61 68 C59.0074802 77.19817318 52.72638952 86.80336242 45 92.1875 C42.16681081 93.75102123 40.15745433 94.19899132 36.9375 94.0625 C32.87544338 93.99802291 31.54388999 94.6558734 28.234375 96.78125 C20.04245051 101.24957245 10.28373422 103.75971511 1 104 C1 104.66 1 105.32 1 106 C-2.75 107.125 -2.75 107.125 -5 106 C-4.67 104.35 -4.34 102.7 -4 101 C-3.34 101 -2.68 101 -2 101 C-0.70550505 97.11651516 -0.86796688 94.09302664 -1 90 C-1.33 89.67 -1.66 89.34 -2 89 C-10.66440026 89.5096706 -15.29607292 94.02445734 -21 100 C-22.921875 99.29296875 -22.921875 99.29296875 -25 98 C-25.828125 95.86328125 -25.828125 95.86328125 -26.25 93.3125 C-26.39695312 92.42433594 -26.54390625 91.53617187 -26.6953125 90.62109375 C-27.07414983 87.36212133 -27.14243556 84.27601777 -27 81 C-27.66 81 -28.32 81 -29 81 C-31.23366929 73.35191636 -30.26544416 65.50428379 -28 58 C-31.12058715 59.56029357 -31.77120618 62.19567672 -33.109375 65.31640625 C-35.03822804 71.128345 -35.59734865 77.08254932 -34 83 C-33.96111651 85.33300933 -33.9551365 87.66709801 -34 90 C-39.17045223 86.06060783 -39.115054 78.0320809 -40 72 C-40.79771906 63.89517437 -39.81691554 55.66243071 -37 48 C-35.69252554 46.64129986 -34.36232338 45.3036988 -33 44 C-32.66551741 40.832168 -32.66551741 40.832168 -33 38 C-30.08772731 41.28804981 -28.50298788 43.59885603 -28 48 C-27.195625 47.979375 -26.39125 47.95875 -25.5625 47.9375 C-23 48 -23 48 -22 49 C-21.83203125 50.99609375 -21.83203125 50.99609375 -21.8125 53.4375 C-21.79832031 54.24058594 -21.78414062 55.04367188 -21.76953125 55.87109375 C-22 58 -22 58 -24 60 C-27.27263613 71.62205394 -24.76353838 84.55105528 -22 96 C-18.74987844 93.92205343 -16.20675967 92.25270627 -13.75 89.25 C-10.18128119 86.33013916 -7.7667606 86.26222739 -3.25390625 86.53125 C-1 87 -1 87 1.1875 88.875 C2.01424366 92.0547833 1.92028915 93.97194572 1.55078125 97.1953125 C1.45063721 98.09523926 1.35049316 98.99516602 1.24731445 99.92236328 C1.16570068 100.6079834 1.08408691 101.29360352 1 102 C4.37563258 101.04388558 7.75038834 100.08471099 11.125 99.125 C12.07632813 98.85558594 13.02765625 98.58617188 14.0078125 98.30859375 C15.85577878 97.78243668 17.70196762 97.24998859 19.54614258 96.71069336 C21.5291479 96.13636956 23.52294901 95.59940187 25.51953125 95.07421875 C28.57050262 93.75293194 29.20230332 92.67390969 30.5625 89.6875 C32.58086417 85.62455914 34.61599648 82.99726026 38 80 C39.485 80.495 39.485 80.495 41 81 C41.495 84.96 41.495 84.96 42 89 C43.98 88.67 45.96 88.34 48 88 C48.10570313 87.41605469 48.21140625 86.83210938 48.3203125 86.23046875 C49.09546592 83.68671816 50.16853274 82.33733802 51.875 80.3125 C58.22030323 71.99954264 58.98814713 63.30496293 58 53 C57.07880061 50.85491311 57.07880061 50.85491311 56 49 C55.71951667 47.69367487 55.46922982 46.38048882 55.25 45.0625 C54.18022282 40.35372668 51.79532961 38.80524362 48 36 C48 35.34 48 34.68 48 34 C46.515 33.505 46.515 33.505 45 33 C44.67 32.34 44.34 31.68 44 31 C32.13872888 23.70599994 19.54457264 23.92664326 6.1796875 26.3671875 C3.81477389 26.86394694 3.81477389 26.86394694 2 29 C0.3603125 29.4640625 0.3603125 29.4640625 -1.3125 29.9375 C-4.77284105 30.93454742 -7.16206483 31.81073573 -10 34 C-10.67349161 35.66392045 -11.3409159 37.33032028 -12 39 C-14.05859375 39.6484375 -14.05859375 39.6484375 -16 40 C-16.15855469 39.40832031 -16.31710938 38.81664062 -16.48046875 38.20703125 C-18.05800039 32.86434124 -19.64923763 29.69814802 -24 26 C-25.00710032 25.0071511 -26.00868258 24.00860784 -27 23 C-20.53515965 13.66979086 -13.76789826 8.60927884 -3.6953125 3.515625 C-0.90563835 2.27829617 -0.90563835 2.27829617 0 0 Z " fill="#BBBBBB" transform="translate(47,0)"/>
	

	

	<path d="M0 0 C0.33 0 0.66 0 1 0 C1 18.48 1 36.96 1 56 C-16.16 56 -33.32 56 -51 56 C-48.47969848 52.21954772 -46.85570195 52.06169254 -42.5625 50.8125 C-41.40878906 50.46832031 -40.25507812 50.12414062 -39.06640625 49.76953125 C-36 49 -36 49 -33 49 C-33 48.34 -33 47.68 -33 47 C-32.175 46.79375 -31.35 46.5875 -30.5 46.375 C-24.53444841 44.03139045 -19.19039856 39.86086233 -15 35 C-14.67 34.01 -14.34 33.02 -14 32 C-13.34 32 -12.68 32 -12 32 C-11.814375 31.1028125 -11.814375 31.1028125 -11.625 30.1875 C-11 28 -11 28 -9 25 C-8.404665 22.85852173 -8.404665 22.85852173 -8 20.5625 C-7.39799867 17.38586799 -6.55386173 14.84227209 -5 12 C-4.34 12 -3.68 12 -3 12 C-2.814375 10.14375 -2.814375 10.14375 -2.625 8.25 C-2.24253695 5.1237803 -1.69450477 2.71120763 0 0 Z " fill="#FBFBFB" transform="translate(127,72)"/>
	

	<path d="M0 0 C12.21 0 24.42 0 37 0 C37 20.13 37 40.26 37 61 C33.91273453 56.88364604 33.00758844 53.69247282 32 48.8125 C29.214957 35.67795401 24.75959929 19.68855601 14.2265625 10.609375 C11.64676467 9.04919358 11.64676467 9.04919358 9.12890625 7.97265625 C6.82523409 6.92015282 5.6869418 5.86688225 4 4 C2.68 2.68 1.36 1.36 0 0 Z " fill="#FCFCFC" transform="translate(91,0)"/>
	

	<path d="M0 0 C-1.44218223 4.3265467 -4.71952223 5.16344886 -8.5625 7.125 C-15.99241154 11.09146136 -23.20546164 15.61638492 -26 24 C-24.906875 24.61875 -23.81375 25.2375 -22.6875 25.875 C-17.95896553 29.17731658 -17.10796082 33.56571599 -16 39 C-14.01827171 38.68313319 -14.01827171 38.68313319 -12 38 C-11.690625 37.21625 -11.38125 36.4325 -11.0625 35.625 C-9.70978437 32.28299667 -8.23692913 31.45661811 -5 30 C-4.34 30.33 -3.68 30.66 -3 31 C-3.928125 31.721875 -4.85625 32.44375 -5.8125 33.1875 C-8.62086401 35.51686734 -10.17580679 37.82749006 -12 41 C-12.825 41.78375 -13.65 42.5675 -14.5 43.375 C-16.71903772 45.70498961 -17.54009537 46.8960494 -18.6875 49.75 C-20 53 -20 53 -22 54 C-22.33 52.35 -22.66 50.7 -23 49 C-23.763125 48.979375 -24.52625 48.95875 -25.3125 48.9375 C-28 48 -28 48 -29.5625 44.875 C-29.78679688 44.25238281 -30.01109375 43.62976562 -30.2421875 42.98828125 C-31.46516568 39.77953952 -33.25377173 36.95052363 -35 34 C-35.99 34 -36.98 34 -38 34 C-38.2784375 34.85980469 -38.556875 35.71960937 -38.84375 36.60546875 C-39.96312861 39.89175259 -41.18735722 43.09892636 -42.5 46.3125 C-42.9228125 47.36050781 -43.345625 48.40851562 -43.78125 49.48828125 C-45 52 -45 52 -47 53 C-46.49228528 47.03435204 -44.61407872 42.36190101 -42 37 C-41.34 37 -40.68 37 -40 37 C-39.89816406 36.26394531 -39.79632813 35.52789062 -39.69140625 34.76953125 C-37.8932901 27.56690779 -31.01758912 21.78484321 -25.82421875 16.76953125 C-24.3910666 15.37934297 -23.02517414 13.91978756 -21.6875 12.4375 C-18.27621586 9.34354461 -14.5403631 7.05109638 -10.62109375 4.6484375 C-8.01825716 3.08726288 -8.01825716 3.08726288 -5.91015625 1.2890625 C-4 -0 -4 -0 0 0 Z " fill="#CBCBCB" transform="translate(47,0)"/>
	

	<path d="M0 0 C1.98 0.99 1.98 0.99 4 2 C4 3.98 4 5.96 4 8 C4.99 8.33 5.98 8.66 7 9 C7.72651783 10.71722396 8.44935096 12.43625674 9.140625 14.16796875 C12.88254985 22.14507218 23.29237562 26.96892767 31.0546875 30.140625 C33 31 33 31 36 33 C36 33.66 36 34.32 36 35 C24.12 35 12.24 35 0 35 C0 23.45 0 11.9 0 0 Z " fill="#FAFAFA" transform="translate(0,93)"/>
	

	<path d="M0 0 C1.65 0 3.3 0 5 0 C4.0621478 2.32779726 3.50527972 3.70862588 1.29296875 4.984375 C0.59816406 5.23703125 -0.09664062 5.4896875 -0.8125 5.75 C-5.05558921 7.48863167 -8.96427001 9.61884134 -12.875 12 C-13.96554688 12.66 -15.05609375 13.32 -16.1796875 14 C-18.79181298 15.85236599 -20.47447106 17.19754683 -22 20 C-21.67 20.99 -21.34 21.98 -21 23 C-20.52433594 22.62488281 -20.04867188 22.24976562 -19.55859375 21.86328125 C-9.64741254 14.61698486 2.74660808 10.75973741 15 11 C15.495 12.485 15.495 12.485 16 14 C15.40832031 14.10957031 14.81664062 14.21914062 14.20703125 14.33203125 C13.02173828 14.56986328 13.02173828 14.56986328 11.8125 14.8125 C11.03519531 14.96332031 10.25789063 15.11414062 9.45703125 15.26953125 C4.50381645 16.74210862 0.51206402 19.99122617 -3.625 23 C-4.56601562 23.680625 -5.50703125 24.36125 -6.4765625 25.0625 C-8.95135087 26.86192672 -8.95135087 26.86192672 -10.66796875 28.73828125 C-12 30 -12 30 -14.6875 30.1875 C-15.8321875 30.0946875 -15.8321875 30.0946875 -17 30 C-16.67 32.31 -16.34 34.62 -16 37 C-14.515 36.505 -14.515 36.505 -13 36 C-12.71125 35.195625 -12.4225 34.39125 -12.125 33.5625 C-11 31 -11 31 -8.5625 29.75 C-7.716875 29.5025 -6.87125 29.255 -6 29 C-5.01 28.67 -4.02 28.34 -3 28 C-2.61908203 27.06414063 -2.61908203 27.06414063 -2.23046875 26.109375 C0.17582748 21.98429574 5.40097003 21.28157167 9.765625 19.984375 C18.94984944 17.62271729 28.41394286 17.79458426 37 22 C37 22.66 37 23.32 37 24 C36.12601563 23.7834375 36.12601563 23.7834375 35.234375 23.5625 C23.60174703 20.92869744 13.07793407 21.18221391 2 26 C0.30276794 27.29420203 -1.36746318 28.62508942 -3 30 C-4.21193591 30.67761547 -5.43947297 31.32891154 -6.6875 31.9375 C-10.32599207 34.2029762 -10.64650144 35.14773486 -12 39 C-14.05078125 39.64453125 -14.05078125 39.64453125 -16 40 C-16.15855469 39.40832031 -16.31710938 38.81664062 -16.48046875 38.20703125 C-18.05800039 32.86434124 -19.64923763 29.69814802 -24 26 C-25.00710032 25.0071511 -26.00868258 24.00860784 -27 23 C-20.53515965 13.66979086 -13.76789826 8.60927884 -3.6953125 3.515625 C-0.90563835 2.27829617 -0.90563835 2.27829617 0 0 Z " fill="#5B5B5B" transform="translate(47,0)"/>
	

	<path d="M0 0 C2.91227269 3.28804981 4.49701212 5.59885603 5 10 C5.804375 9.979375 6.60875 9.95875 7.4375 9.9375 C10 10 10 10 11 11 C10.39655172 18.60344828 10.39655172 18.60344828 8 21 C5.68631536 28.16956599 5.76957735 35.54966777 6 43 C5.34 43 4.68 43 4 43 C1.76633071 35.35191636 2.73455584 27.50428379 5 20 C1.87941285 21.56029357 1.22879382 24.19567672 -0.109375 27.31640625 C-2.03822804 33.128345 -2.59734865 39.08254932 -1 45 C-0.96111651 47.33300933 -0.9551365 49.66709801 -1 52 C-6.17045223 48.06060783 -6.115054 40.0320809 -7 34 C-7.79771906 25.89517437 -6.81691554 17.66243071 -4 10 C-2.69252554 8.64129986 -1.36232338 7.3036988 0 6 C0.33448259 2.832168 0.33448259 2.832168 0 0 Z " fill="#6E6E6E" transform="translate(14,38)"/>
	

	<path d="M0 0 C2.24721945 2.03492452 2.85298061 2.99919425 3.875 5.9375 C3.875 6.63875 3.875 7.34 3.875 8.0625 C0.15231425 9.30339525 -1.01807516 8.62198888 -4.625 7.25 C-5.5840625 6.89292969 -6.543125 6.53585938 -7.53125 6.16796875 C-10.125 5.0625 -10.125 5.0625 -13.125 3.0625 C-24.62477058 0.88995811 -33.93604227 3.23078729 -44.25 8.29296875 C-46.125 9.0625 -46.125 9.0625 -49.125 9.0625 C-42.71298845 3.74969043 -38.39541448 1.58503163 -30.125 1.0625 C-30.62 0.0725 -30.62 0.0725 -31.125 -0.9375 C-42.43932042 -1.34004253 -55.64885751 2.74507167 -65.125 9.0625 C-64.07113545 5.86577754 -63.08047604 5.03532987 -60.1484375 3.24609375 C-58.93901355 2.65022064 -57.72240382 2.06877058 -56.5 1.5 C-55.86481445 1.19553955 -55.22962891 0.8910791 -54.57519531 0.57739258 C-38.21089588 -7.17620816 -16.06742805 -11.32621977 0 0 Z " fill="#2A2B2B" transform="translate(93.125,12.9375)"/>
	

	<path d="M0 0 C1.94385053 1.35224385 2.87012525 2.57520133 3.5625 4.83984375 C4.2871137 8.89315161 4.2871137 8.89315161 4 11 C3.37738281 11.61875 2.75476562 12.2375 2.11328125 12.875 C-2.75244188 17.76770496 -3.15524581 26.71245259 -3.375 33.375 C-3.17455234 40.51726672 -2.19638832 49.60722336 1 56 C0.85691406 54.76636719 0.85691406 54.76636719 0.7109375 53.5078125 C-0.37775436 42.54493864 0.64647377 34.63634722 6 25 C6.66 25 7.32 25 8 25 C8.125 30.75 8.125 30.75 7 33 C6.9283265 35.55157655 6.90691558 38.07472971 6.9375 40.625 C6.94201172 41.33140625 6.94652344 42.0378125 6.95117188 42.765625 C6.96296125 44.51045275 6.98089676 46.255237 7 48 C7.66 48 8.32 48 9 48 C9.99 53.61 10.98 59.22 12 65 C15.85904273 65.4267896 15.85904273 65.4267896 17.7109375 63.57421875 C18.26007812 62.95160156 18.80921875 62.32898438 19.375 61.6875 C23.06393005 57.79362939 26.34357027 55.17324542 31.875 54.8125 C32.926875 54.9053125 32.926875 54.9053125 34 55 C34.66 56.32 35.32 57.64 36 59 C35.360625 58.7525 34.72125 58.505 34.0625 58.25 C29.51212205 57.87854058 25.89605982 59.72193196 22 62 C21.505 62.99 21.505 62.99 21 64 C20.34 64 19.68 64 19 64 C19 64.66 19 65.32 19 66 C18.34 66 17.68 66 17 66 C16.67 66.99 16.34 67.98 16 69 C12.535 68.505 12.535 68.505 9 68 C7.31098697 57.33669775 5.62869046 46.67271277 4 36 C3.67 36 3.34 36 3 36 C2.73677166 42.60995603 3.32026841 48.66012173 4.66015625 55.140625 C5.03697996 58.3111417 4.65800062 60.88945163 4 64 C2.68 64 1.36 64 0 64 C-2.72484219 56.62391556 -4.74472832 49.87087683 -5 42 C-5.02578125 41.36900391 -5.0515625 40.73800781 -5.078125 40.08789062 C-5.85909289 19.06033014 -5.85909289 19.06033014 -0.40625 11.91015625 C1.54535891 9.25922082 1.21842889 7.20362369 1 4 C0.34 4 -0.32 4 -1 4 C-1.66 5.98 -2.32 7.96 -3 10 C-3.66 10 -4.32 10 -5 10 C-5.03738281 10.73605469 -5.07476563 11.47210938 -5.11328125 12.23046875 C-5.79009515 22.27651037 -5.79009515 22.27651037 -9 26 C-9.66 26 -10.32 26 -11 26 C-11.33763119 21.16061961 -10.49367956 19.05741211 -8 15 C-6.69515865 11.93680537 -5.48833795 8.84502256 -4.28125 5.7421875 C-3.09697517 3.20755051 -2.11291153 1.78123355 0 0 Z " fill="#2B2C2C" transform="translate(11,33)"/>
	

	<path d="M0 0 C4.95 0 9.9 0 15 0 C15.33 0.99 15.66 1.98 16 3 C16.9590625 3.2165625 16.9590625 3.2165625 17.9375 3.4375 C20 4 20 4 21.08203125 5.7890625 C21.95774509 7.89822859 22.3880686 9.69266357 22.75 11.9375 C23.5888777 15.98657112 25.0215146 19.40103293 26.8125 23.125 C30.23538933 30.24695311 32.62188716 37.4779257 35 45 C35.37382813 46.02480469 35.74765625 47.04960938 36.1328125 48.10546875 C37.01136641 51.03793924 37.20731859 53.32921227 37.125 56.375 C37.10695312 57.24898437 37.08890625 58.12296875 37.0703125 59.0234375 C37.04710937 59.67570312 37.02390625 60.32796875 37 61 C33.6990733 57.42712195 32.95439422 53.43484148 32 48.8125 C29.214957 35.67795401 24.75959929 19.68855601 14.2265625 10.609375 C11.64676467 9.04919358 11.64676467 9.04919358 9.12890625 7.97265625 C6.82523409 6.92015282 5.6869418 5.86688225 4 4 C2.68 2.68 1.36 1.36 0 0 Z " fill="#C9C9C9" transform="translate(91,0)"/>
	

	<path d="M0 0 C-1.44218223 4.3265467 -4.71952223 5.16344886 -8.5625 7.125 C-15.99241154 11.09146136 -23.20546164 15.61638492 -26 24 C-25.50628906 24.30292969 -25.01257813 24.60585938 -24.50390625 24.91796875 C-19.2058319 28.38250429 -19.2058319 28.38250429 -18.0625 31.8125 C-18.041875 32.534375 -18.02125 33.25625 -18 34 C-18.515625 33.195625 -19.03125 32.39125 -19.5625 31.5625 C-22.63205757 28.33552922 -24.64868459 28.25103743 -29 28 C-31.32623648 31.48935471 -31.25072494 32.90482598 -31 37 C-30.56058477 39.26566343 -30.56058477 39.26566343 -30 41 C-31.73100679 39.35142211 -33.16812576 37.76462394 -34.5625 35.8125 C-35.036875 35.214375 -35.51125 34.61625 -36 34 C-36.66 34 -37.32 34 -38 34 C-38.2784375 34.85980469 -38.556875 35.71960937 -38.84375 36.60546875 C-39.96312861 39.89175259 -41.18735722 43.09892636 -42.5 46.3125 C-42.9228125 47.36050781 -43.345625 48.40851562 -43.78125 49.48828125 C-45 52 -45 52 -47 53 C-46.49228528 47.03435204 -44.61407872 42.36190101 -42 37 C-41.34 37 -40.68 37 -40 37 C-39.89816406 36.26394531 -39.79632813 35.52789062 -39.69140625 34.76953125 C-37.8932901 27.56690779 -31.01758912 21.78484321 -25.82421875 16.76953125 C-24.3910666 15.37934297 -23.02517414 13.91978756 -21.6875 12.4375 C-18.27621586 9.34354461 -14.5403631 7.05109638 -10.62109375 4.6484375 C-8.01825716 3.08726288 -8.01825716 3.08726288 -5.91015625 1.2890625 C-4 -0 -4 -0 0 0 Z " fill="#ADADAD" transform="translate(47,0)"/>
	

	<path d="M0 0 C3 1 3 1 4 3 C6.39022204 28.95729177 6.39022204 28.95729177 -1.078125 38.1171875 C-1.71234375 38.73851562 -2.3465625 39.35984375 -3 40 C-5.97661038 42.93686327 -5.97661038 42.93686327 -8.5 46.25 C-8.995 46.8275 -9.49 47.405 -10 48 C-11.32 48 -12.64 48 -14 48 C-14.33 48.99 -14.66 49.98 -15 51 C-17.08984375 51.73828125 -17.08984375 51.73828125 -19.9375 52.3125 C-24.66882913 53.36140014 -29.12704347 54.71087019 -33.67456055 56.35180664 C-41.62837561 59.21016979 -48.4343808 60.90694791 -57 60 C-57 59.67 -57 59.34 -57 59 C-55.98421875 58.75765625 -54.9684375 58.5153125 -53.921875 58.265625 C-39.63449352 55.53296502 -39.63449352 55.53296502 -26.90625 49.37109375 C-25 48 -25 48 -21.25 48.125 C-16.0771221 48.27855482 -12.81328083 46.40062118 -9 43 C-0.38436361 33.08587666 2.46268236 23.74733281 2.3359375 10.83203125 C1.99145902 6.90257325 1.21035509 3.73273511 0 0 Z " fill="#444545" transform="translate(105,45)"/>
	

	<path d="M0 0 C1.97202779 1.45090258 3.82807287 2.97360077 5.6796875 4.57421875 C6.28039062 5.04472656 6.88109375 5.51523437 7.5 6 C8.93959965 7.13494019 10.31709808 8.34788827 11.6796875 9.57421875 C11.6796875 10.23421875 11.6796875 10.89421875 11.6796875 11.57421875 C12.3396875 11.57421875 12.9996875 11.57421875 13.6796875 11.57421875 C16.94326209 15.78966927 17.73166532 20.45489896 18.6796875 25.57421875 C16.57865369 23.05297817 15.16390403 20.5357637 13.8046875 17.57421875 C12.04328269 13.90121183 10.00516215 11.97595044 6.6796875 9.57421875 C6.6796875 8.91421875 6.6796875 8.25421875 6.6796875 7.57421875 C5.6896875 7.24421875 4.6996875 6.91421875 3.6796875 6.57421875 C3.1846875 5.58421875 3.1846875 5.58421875 2.6796875 4.57421875 C-9.18158362 -2.71978131 -21.77573986 -2.49913799 -35.140625 -0.05859375 C-37.50553861 0.43816569 -37.50553861 0.43816569 -39.3203125 2.57421875 C-40.3103125 2.57421875 -41.3003125 2.57421875 -42.3203125 2.57421875 C-41.9903125 1.58421875 -41.6603125 0.59421875 -41.3203125 -0.42578125 C-38.64165044 -1.58037697 -36.08358622 -2.5379424 -33.3203125 -3.42578125 C-32.2478125 -3.81765625 -31.1753125 -4.20953125 -30.0703125 -4.61328125 C-19.59254861 -6.88346343 -9.23394568 -5.67405753 0 0 Z " fill="#B1B1B1" transform="translate(88.3203125,26.42578125)"/>
	

	<path d="M0 0 C2.91227269 3.28804981 4.49701212 5.59885603 5 10 C3.02 10 1.04 10 -1 10 C-4.79236417 16.32060696 -4.12884604 23.88483508 -4 31 C-3.01 30.01 -2.02 29.02 -1 28 C-1.08378906 28.89203125 -1.16757813 29.7840625 -1.25390625 30.703125 C-1.35574219 31.87359375 -1.45757813 33.0440625 -1.5625 34.25 C-1.66691406 35.41015625 -1.77132813 36.5703125 -1.87890625 37.765625 C-1.98412278 40.5759245 -1.7739355 42.35951417 -1 45 C-0.96111651 47.33300933 -0.9551365 49.66709801 -1 52 C-6.17045223 48.06060783 -6.115054 40.0320809 -7 34 C-7.79771906 25.89517437 -6.81691554 17.66243071 -4 10 C-2.69252554 8.64129986 -1.36232338 7.3036988 0 6 C0.33448259 2.832168 0.33448259 2.832168 0 0 Z " fill="#5B5B5B" transform="translate(14,38)"/>
	

	<path d="M0 0 C2.79261449 1.19683478 4.49565872 2.23003898 6.171875 4.7890625 C7.19768374 7.52777828 7.00466089 9.36457723 6.625 12.25 C6.45871094 13.58804688 6.45871094 13.58804688 6.2890625 14.953125 C6.14597656 15.96632813 6.14597656 15.96632813 6 17 C4.35 17.33 2.7 17.66 1 18 C0.731875 17.030625 0.46375 16.06125 0.1875 15.0625 C-0.204375 14.051875 -0.59625 13.04125 -1 12 C-1.99 11.67 -2.98 11.34 -4 11 C-4 8.03 -4 5.06 -4 2 C-2.68 1.34 -1.36 0.68 0 0 Z " fill="#FCFCFC" transform="translate(21,28)"/>
	

	<path d="M0 0 C0.33 0 0.66 0 1 0 C1.90677642 7.59005451 0.21225408 12.51915937 -3.4921875 19.140625 C-5.02184007 22.04141693 -5.9676456 24.89461135 -7 28 C-10.37533315 34.25619075 -15.10958864 40.9220229 -21 45 C-23.2421875 44.7109375 -23.2421875 44.7109375 -25 44 C-23.93458984 43.07767578 -23.93458984 43.07767578 -22.84765625 42.13671875 C-21.92855469 41.32847656 -21.00945312 40.52023438 -20.0625 39.6875 C-19.14597656 38.88699219 -18.22945313 38.08648437 -17.28515625 37.26171875 C-14.79486024 35.13761078 -14.79486024 35.13761078 -14 32 C-13.34 32 -12.68 32 -12 32 C-11.87625 31.401875 -11.7525 30.80375 -11.625 30.1875 C-11 28 -11 28 -9 25 C-8.404665 22.85852173 -8.404665 22.85852173 -8 20.5625 C-7.39799867 17.38586799 -6.55386173 14.84227209 -5 12 C-4.34 12 -3.68 12 -3 12 C-2.87625 10.7625 -2.7525 9.525 -2.625 8.25 C-2.24253695 5.1237803 -1.69450477 2.71120763 0 0 Z " fill="#A3A3A3" transform="translate(127,72)"/>
	

	<path d="M0 0 C3.125 0.375 3.125 0.375 6 1 C6.44349138 5.5457866 5.63728993 8.1369838 3.22265625 11.98828125 C0.8791103 15.84427539 -1.01269302 19.95208374 -3 24 C-3.33 24 -3.66 24 -4 24 C-4.23042265 16.54966777 -4.31368464 9.16956599 -2 2 C-1.34 1.34 -0.68 0.68 0 0 Z " fill="#939393" transform="translate(13,47)"/>
	

	<path d="M0 0 C0.625 1.875 0.625 1.875 1 4 C0.34 4.66 -0.32 5.32 -1 6 C-4.27263613 17.62205394 -1.76353838 30.55105528 1 42 C4.23777906 39.91283664 6.95467058 38.04748796 9.625 35.25 C12 33 12 33 16 33 C16 33.66 16 34.32 16 35 C14.4609375 36.078125 14.4609375 36.078125 12.375 37.25 C8.25311649 39.70699462 5.26128093 42.494123 2 46 C-1.75490838 44.53002573 -1.75490838 44.53002573 -2.79296875 42.28515625 C-5.05501265 29.54156237 -7.55804584 13.76547277 -1.375 1.875 C-0.694375 0.946875 -0.694375 0.946875 0 0 Z " fill="#BBBBBB" transform="translate(24,54)"/>
	

	<path d="M0 0 C3.67087742 -0.55619355 5.62194895 0.177672 8.5625 2.25 C10.55064839 3.76783371 12.25365157 5.26157818 14 7.0625 C16.03024866 9.2330559 16.03024866 9.2330559 19.375 10.625 C24.23875098 13.23584468 26.85932657 18.04537683 29 23 C28.67 23.66 28.34 24.32 28 25 C26.9171875 23.824375 26.9171875 23.824375 25.8125 22.625 C23.29523609 19.9105783 23.29523609 19.9105783 20.5625 19.1875 C16.47606124 17.29378448 14.56149466 13.59897155 12 10 C9.61778289 7.15670861 7.70026216 5.78709631 4.3125 4.4375 C3.219375 3.963125 2.12625 3.48875 1 3 C0.67 2.01 0.34 1.02 0 0 Z " fill="#353636" transform="translate(86,0)"/>
	

	<path d="M0 0 C2.8125 -0.3125 2.8125 -0.3125 6 0 C7.9375 1.875 7.9375 1.875 9 5 C8.93803487 8.38226345 8.53784037 11.6627977 8 15 C9.21816406 14.6390625 10.43632813 14.278125 11.69140625 13.90625 C13.31496371 13.43701374 14.93866962 12.96829091 16.5625 12.5 C17.36236328 12.26152344 18.16222656 12.02304688 18.98632812 11.77734375 C23.83294329 10.39259656 27.960647 9.72943071 33 10 C30.85785764 12.14214236 29.88402574 12.4947885 27.04296875 13.2890625 C26.25986328 13.50820312 25.47675781 13.72734375 24.66992188 13.953125 C23.85072266 14.17484375 23.03152344 14.3965625 22.1875 14.625 C21.37990234 14.85445312 20.57230469 15.08390625 19.74023438 15.3203125 C15.74781591 16.41896328 12.18255979 17.32238798 8 17 C8 17.66 8 18.32 8 19 C4.25 20.125 4.25 20.125 2 19 C2.33 17.35 2.66 15.7 3 14 C3.66 14 4.32 14 5 14 C5.91692961 11.24921116 6.10886083 9.64051087 6.0625 6.8125 C6.041875 5.554375 6.02125 4.29625 6 3 C4.02 2.34 2.04 1.68 0 1 C0 0.67 0 0.34 0 0 Z " fill="#A3A3A3" transform="translate(40,87)"/>
	

	<path d="M0 0 C2.13992159 3.69017589 2.98276087 7.63731411 3.9375 11.75 C4.96329351 16.07098615 5.95379433 20.23485775 7.75 24.3125 C10.46525883 32.32251355 9.44877907 39.43921511 6 47 C5.33803227 48.33567247 4.67250815 49.66960344 4 51 C4.0721875 50.26136719 4.144375 49.52273437 4.21875 48.76171875 C5.40619351 35.78230147 5.94892342 22.66075908 0.90625 10.32421875 C-0.47239072 6.7884807 -0.12771253 3.7675195 0 0 Z " fill="#5B5B5B" transform="translate(119,33)"/>
	

	<path d="M0 0 C0.99 0.495 0.99 0.495 2 1 C2.6328125 3.28515625 2.6328125 3.28515625 3.125 6.0625 C3.29257812 6.98160156 3.46015625 7.90070313 3.6328125 8.84765625 C3.75398438 9.55792969 3.87515625 10.26820312 4 11 C7.85904273 11.4267896 7.85904273 11.4267896 9.7109375 9.57421875 C10.53464844 8.64029297 10.53464844 8.64029297 11.375 7.6875 C15.06393005 3.79362939 18.34357027 1.17324542 23.875 0.8125 C24.926875 0.9053125 24.926875 0.9053125 26 1 C26.66 2.32 27.32 3.64 28 5 C27.360625 4.7525 26.72125 4.505 26.0625 4.25 C21.51212205 3.87854058 17.89605982 5.72193196 14 8 C13.67 8.66 13.34 9.32 13 10 C12.34 10 11.68 10 11 10 C11 10.66 11 11.32 11 12 C10.34 12 9.68 12 9 12 C8.67 12.99 8.34 13.98 8 15 C5.69 14.67 3.38 14.34 1 14 C0.04738513 9.23692563 -0.08333357 4.8333472 0 0 Z " fill="#434444" transform="translate(19,87)"/>
	

	<path d="M0 0 C1.65 0 3.3 0 5 0 C4.0621478 2.32779726 3.50527972 3.70862588 1.29296875 4.984375 C0.59816406 5.23703125 -0.09664062 5.4896875 -0.8125 5.75 C-5.05558921 7.48863167 -8.96427001 9.61884134 -12.875 12 C-13.96554688 12.66 -15.05609375 13.32 -16.1796875 14 C-18.79181298 15.85236599 -20.47447106 17.19754683 -22 20 C-21.67 20.99 -21.34 21.98 -21 23 C-20.34 22.67 -19.68 22.34 -19 22 C-19.33 23.32 -19.66 24.64 -20 26 C-23.875 24.25 -23.875 24.25 -25 22 C-22.88195452 14.78207964 -16.82463994 10.63784332 -10.55078125 7 C-8.26148959 5.76853629 -5.95340465 4.604125 -3.625 3.4453125 C-0.89688835 2.26695561 -0.89688835 2.26695561 0 0 Z " fill="#3C3D3D" transform="translate(47,0)"/>
	

	<path d="M0 0 C0 0.66 0 1.32 0 2 C-0.87398437 1.7834375 -0.87398437 1.7834375 -1.765625 1.5625 C-15.78285283 -1.61121196 -26.83324385 0.61690633 -40 6 C-39.41796875 4.171875 -39.41796875 4.171875 -38 2 C-26.30379167 -3.88683333 -12.03450547 -5.89445166 0 0 Z " fill="#414141" transform="translate(84,22)"/>
	

	<path d="M0 0 C0 3 0 3 -1 6 C-0.50628906 6.30292969 -0.01257812 6.60585938 0.49609375 6.91796875 C5.7941681 10.38250429 5.7941681 10.38250429 6.9375 13.8125 C6.958125 14.534375 6.97875 15.25625 7 16 C6.484375 15.195625 5.96875 14.39125 5.4375 13.5625 C2.36794243 10.33552922 0.35131541 10.25103743 -4 10 C-6.32623648 13.48935471 -6.25072494 14.90482598 -6 19 C-5.56058477 21.26566343 -5.56058477 21.26566343 -5 23 C-6.70880502 21.37256665 -8.16079849 19.78131406 -9.5625 17.875 C-10.87454862 15.88034058 -10.87454862 15.88034058 -13 15 C-11.20942753 12.87406947 -9.41759447 10.74922444 -7.625 8.625 C-7.11710938 8.02171875 -6.60921875 7.4184375 -6.0859375 6.796875 C-5.59609375 6.21679688 -5.10625 5.63671875 -4.6015625 5.0390625 C-4.15119629 4.50490723 -3.70083008 3.97075195 -3.23681641 3.42041016 C-2.20600388 2.23658322 -1.10995961 1.10995961 0 0 Z " fill="#939393" transform="translate(22,18)"/>
	

	<path d="M0 0 C0.66 0.33 1.32 0.66 2 1 C-0.87869723 2.91913149 -1.82989029 3.27109486 -5.0625 3.75 C-9.40980474 4.52653174 -13.3888447 5.79683508 -17.52954102 7.28369141 C-25.54417024 10.15851313 -32.3666105 11.91412359 -41 11 C-41 10.67 -41 10.34 -41 10 C-40.04222656 9.76925781 -39.08445313 9.53851563 -38.09765625 9.30078125 C-29.90357461 7.30060197 -21.79963571 5.14136551 -13.76196289 2.57543945 C-9.69738306 1.32309883 -6.23726651 0.87426509 -2 1 C-1.34 0.67 -0.68 0.34 0 0 Z " fill="#353636" transform="translate(89,94)"/>
	

	<path d="M0 0 C4.31096885 2.4489972 5.28989199 5.79333504 6.625 10.3125 C6.82867187 10.96412109 7.03234375 11.61574219 7.2421875 12.28710938 C7.83614627 14.18891965 8.41823541 16.09442415 9 18 C9.37640625 19.03769531 9.7528125 20.07539062 10.140625 21.14453125 C11.01789432 24.05945796 11.20687659 26.34556619 11.125 29.375 C11.10695312 30.24898437 11.08890625 31.12296875 11.0703125 32.0234375 C11.03550781 33.00183594 11.03550781 33.00183594 11 34 C7.69778187 30.42572412 6.95874908 26.43448418 6 21.8125 C4.65821709 15.71730417 3.09561541 9.88768138 1 4 C0.65298448 2.670162 0.31593637 1.33756237 0 0 Z " fill="#B7B7B7" transform="translate(117,27)"/>
	

	<path d="M0 0 C-1.26682552 3.90604537 -2.43283565 5.90166803 -6 8 C-6.70125 8.12375 -7.4025 8.2475 -8.125 8.375 C-8.74375 8.58125 -9.3625 8.7875 -10 9 C-11.29660434 11.49034386 -11.29660434 11.49034386 -12 14 C-12.99 14 -13.98 14 -15 14 C-15.33 11.69 -15.66 9.38 -16 7 C-14.700625 6.6596875 -14.700625 6.6596875 -13.375 6.3125 C-10.40229011 5.15644616 -9.13992784 4.41459063 -6.875 2.375 C-4 0 -4 0 0 0 Z " fill="#0F0E0E" transform="translate(46,23)"/>
	

	<path d="M0 0 C1.5 1.375 1.5 1.375 3 3 C3 3.66 3 4.32 3 5 C1.68 4.67 0.36 4.34 -1 4 C-1.66 5.98 -2.32 7.96 -3 10 C-3.66 10 -4.32 10 -5 10 C-5.03738281 10.73605469 -5.07476563 11.47210938 -5.11328125 12.23046875 C-5.79009515 22.27651037 -5.79009515 22.27651037 -9 26 C-9.66 26 -10.32 26 -11 26 C-11.33763119 21.16061961 -10.49367956 19.05741211 -8 15 C-6.69515865 11.93680537 -5.48833795 8.84502256 -4.28125 5.7421875 C-3.09697517 3.20755051 -2.11291153 1.78123355 0 0 Z " fill="#474747" transform="translate(11,33)"/>
	

	<path d="M0 0 C0.66 0 1.32 0 2 0 C2.66 1.98 3.32 3.96 4 6 C4.66 6 5.32 6 6 6 C6 6.66 6 7.32 6 8 C6.5775 8.10957031 7.155 8.21914062 7.75 8.33203125 C10.27550499 9.08179054 11.86754531 10.14874008 14 11.6875 C19.37450606 15.39312772 25.11857162 18.19363316 31 21 C31 21.99 31 22.98 31 24 C30.34 24 29.68 24 29 24 C28.54882812 23.54238281 28.09765625 23.08476563 27.6328125 22.61328125 C25.79098081 20.79348104 24.27386735 20.12899095 21.875 19.1875 C16.81132069 17.03502394 12.45869388 14.20089113 8 11 C7.05125 10.319375 6.1025 9.63875 5.125 8.9375 C2.79565812 6.81368828 1.40640579 4.81281158 0 2 C0 1.34 0 0.68 0 0 Z " fill="#535353" transform="translate(7,104)"/>
	

	<path d="M0 0 C0.78310547 0.54527344 0.78310547 0.54527344 1.58203125 1.1015625 C9.35601785 6.41129065 17.5398179 10.88423574 26 15 C26 15.66 26 16.32 26 17 C19.5517789 16.19397236 13.29968731 12.64353503 8 9 C8 8.34 8 7.68 8 7 C7.4225 6.9175 6.845 6.835 6.25 6.75 C3.3460664 5.78202213 1.96259396 4.31305716 0 2 C0 1.34 0 0.68 0 0 Z " fill="#B6B6B6" transform="translate(10,111)"/>
	

	<path d="M0 0 C0.33 0 0.66 0 1 0 C1.5511156 6.46412668 -2.12347478 10.16711922 -6 15 C-11.19917819 21.07696152 -11.19917819 21.07696152 -14 23 C-16.23828125 22.70703125 -16.23828125 22.70703125 -18 22 C-16.93458984 21.07767578 -16.93458984 21.07767578 -15.84765625 20.13671875 C-14.92855469 19.32847656 -14.00945312 18.52023438 -13.0625 17.6875 C-12.14597656 16.88699219 -11.22945313 16.08648437 -10.28515625 15.26171875 C-7.79486024 13.13761078 -7.79486024 13.13761078 -7 10 C-6.34 10 -5.68 10 -5 10 C-4.87625 9.401875 -4.7525 8.80375 -4.625 8.1875 C-4 6 -4 6 -2 3 C-1.34 3 -0.68 3 0 3 C0 2.01 0 1.02 0 0 Z " fill="#ADADAD" transform="translate(120,94)"/>
	

	<path d="M0 0 C4.30515286 1.44816842 7.31997533 3.61995288 10.8125 6.5 C11.78832031 7.2940625 12.76414062 8.088125 13.76953125 8.90625 C14.50558594 9.5971875 15.24164063 10.288125 16 11 C16 11.66 16 12.32 16 13 C16.66 13 17.32 13 18 13 C21.26357459 17.21545052 22.05197782 21.88068021 23 27 C20.89896619 24.47875942 19.48421653 21.96154495 18.125 19 C16.36359519 15.32699308 14.32547465 13.40173169 11 11 C11 10.34 11 9.68 11 9 C10.01 8.67 9.02 8.34 8 8 C7.67 7.34 7.34 6.68 7 6 C5.7934375 5.566875 5.7934375 5.566875 4.5625 5.125 C2 4 2 4 0.6875 1.875 C0.460625 1.25625 0.23375 0.6375 0 0 Z " fill="#999999" transform="translate(84,25)"/>
	

	<path d="M0 0 C-0.33 0.99 -0.66 1.98 -1 3 C-2.33333333 3.66666667 -3.66666667 4.33333333 -5 5 C-6.73425773 7.03317007 -6.73425773 7.03317007 -8 9 C-9.65 8.67 -11.3 8.34 -13 8 C-13.33 7.01 -13.66 6.02 -14 5 C-10.54947588 0.53461585 -5.33682569 0 0 0 Z " fill="#939393" transform="translate(43,19)"/>
	

	<path d="M0 0 C0.99 0 1.98 0 3 0 C3.66 1.65 4.32 3.3 5 5 C6.65 5 8.3 5 10 5 C8.13822442 6.86177558 6.72351818 7.93885762 4.05859375 8.1640625 C2.03866469 8.12686307 0.01925431 8.06410331 -2 8 C-2.99 8.33 -3.98 8.66 -5 9 C-3.76067171 5.56801397 -2.49698489 2.69674368 0 0 Z " fill="#939393" transform="translate(82,86)"/>
	

	<path d="M0 0 C-2.81389291 4.22083936 -6.2691779 5.41572469 -11 7 C-13.36592977 7.38627425 -15.66121912 7.61503888 -18.0546875 7.7265625 C-20.32265703 7.90203295 -20.32265703 7.90203295 -23 10 C-23.99 9.67 -24.98 9.34 -26 9 C-20.84248985 5.3897429 -14.3225656 3 -8 3 C-8 2.34 -8 1.68 -8 1 C-2.25 -1.125 -2.25 -1.125 0 0 Z " fill="#A7A7A7" transform="translate(102,118)"/>
	

	<path d="M0 0 C2.8125 -0.3125 2.8125 -0.3125 6 0 C8.34181675 2.65405898 8.93744778 4.49958223 9.375 8 C8.95541352 11.35669186 7.93515649 13.25852831 6 16 C6.66 16.33 7.32 16.66 8 17 C8 17.66 8 18.32 8 19 C4.25 20.125 4.25 20.125 2 19 C2.33 17.35 2.66 15.7 3 14 C3.66 14 4.32 14 5 14 C5.91692961 11.24921116 6.10886083 9.64051087 6.0625 6.8125 C6.041875 5.554375 6.02125 4.29625 6 3 C4.02 2.34 2.04 1.68 0 1 C0 0.67 0 0.34 0 0 Z " fill="#7A7A7A" transform="translate(40,87)"/>
	

	<path d="M0 0 C4.32573602 -0.0344955 8.0053273 0.27243375 12 2 C14.67434146 6.06521383 16.07803787 10.23339305 17 15 C16.67 15.66 16.34 16.32 16 17 C15.68289062 16.34773438 15.36578125 15.69546875 15.0390625 15.0234375 C11.63754687 8.65264302 8.38551509 5.3954083 1.9765625 2.05859375 C1.32429688 1.70925781 0.67203125 1.35992187 0 1 C0 0.67 0 0.34 0 0 Z " fill="#939393" transform="translate(98,6)"/>
	

	<path d="M0 0 C-2.68501157 1.79000771 -4.60080152 2.6217477 -7.625 3.5625 C-10.57168552 4.338786 -10.57168552 4.338786 -13 6 C-14.66617115 6.04063832 -16.33388095 6.042721 -18 6 C-17.67 4.68 -17.34 3.36 -17 2 C-11.23918159 0.7017874 -5.91260345 -0.25706972 0 0 Z " fill="#404141" transform="translate(89,122)"/>
	

	

	<path d="M0 0 C0.33 0.66 0.66 1.32 1 2 C0.109375 4.64453125 0.109375 4.64453125 -1.25 7.8125 C-1.68828125 8.85019531 -2.1265625 9.88789062 -2.578125 10.95703125 C-3.89570875 13.77680526 -5.28953153 16.40066449 -7 19 C-7.33 19 -7.66 19 -8 19 C-7.49228528 13.03435204 -5.61407872 8.36190101 -3 3 C-2.34 3 -1.68 3 -1 3 C-0.67 2.01 -0.34 1.02 0 0 Z " fill="#ABABAB" transform="translate(8,34)"/>
	

	<path d="M0 0 C0 0.66 0 1.32 0 2 C-6.80122845 5.13902852 -12.56621057 5.33452052 -20 5 C-20 4.67 -20 4.34 -20 4 C-17.41806023 3.32749476 -14.83467929 2.66182099 -12.25 2 C-11.15558594 1.71382813 -11.15558594 1.71382813 -10.0390625 1.421875 C-6.55428354 0.53484036 -3.61876278 0 0 0 Z " fill="#424343" transform="translate(68,100)"/>
	

	<path d="M0 0 C8.33585185 0.98068845 12.98308027 6.8847014 18 13 C17.01 13.495 17.01 13.495 16 14 C15.29875 13.278125 14.5975 12.55625 13.875 11.8125 C9.56898244 7.50648244 4.7633005 3.78262099 0 0 Z " fill="#3B3B3B" transform="translate(84,24)"/>
	

	<path d="M0 0 C0.33 0.99 0.66 1.98 1 3 C0.01 3.78375 -0.98 4.5675 -2 5.375 C-6.02031338 8.78940057 -9.11624018 12.74020566 -12.30078125 16.92578125 C-14 19 -14 19 -16 20 C-12.24502783 12.06893729 -6.28669887 5.99948928 0 0 Z " fill="#C9C9C9" transform="translate(23,15)"/>
	

	

	<path d="M0 0 C2.0625 0.4375 2.0625 0.4375 4 1 C3.37351562 1.30292969 2.74703125 1.60585938 2.1015625 1.91796875 C-3.05016476 4.34803131 -3.05016476 4.34803131 -6.3125 8.75 C-6.539375 9.4925 -6.76625 10.235 -7 11 C-9.125 11.8125 -9.125 11.8125 -11 12 C-11.33 10.68 -11.66 9.36 -12 8 C-10.68 8 -9.36 8 -8 8 C-7.773125 7.21625 -7.54625 6.4325 -7.3125 5.625 C-6 3 -6 3 -3.4375 1.75 C-2.633125 1.5025 -1.82875 1.255 -1 1 C-0.67 0.67 -0.34 0.34 0 0 Z " fill="#6B6B6B" transform="translate(42,28)"/>
	

	<path d="M0 0 C0.66 0 1.32 0 2 0 C1.93993922 1.45947705 1.8511311 2.91779272 1.75 4.375 C1.70359375 5.18710937 1.6571875 5.99921875 1.609375 6.8359375 C1 9 1 9 -1.046875 10.2890625 C-2.01367188 10.64097656 -2.01367188 10.64097656 -3 11 C-3.3227506 6.37390802 -2.84450614 3.71973879 0 0 Z " fill="#3C3C3C" transform="translate(3,48)"/>
	

	<path d="M0 0 C0.66 0.33 1.32 0.66 2 1 C-3.90244471 5.06612857 -8.89945397 5.74319906 -16 6 C-14.5 4 -14.5 4 -12 2 C-9.92650851 1.7875521 -7.97772792 1.87628334 -5.8984375 1.99609375 C-3.51802894 2.00099171 -2.03490194 1.17398189 0 0 Z " fill="#5B5B5B" transform="translate(92,91)"/>
	

	<path d="M0 0 C1.2077558 3.62326739 0.54311128 4.64146369 -1 8 C-1.99 8 -2.98 8 -4 8 C-4.33 5.69 -4.66 3.38 -5 1 C-3.35 0.67 -1.7 0.34 0 0 Z " fill="#1F1F1F" transform="translate(35,29)"/>
	

	<path d="M0 0 C3.84814487 -0.58305225 5.76308635 0.2997117 8.8125 2.5 C9.88364055 3.32219744 10.9491359 4.15204049 12 5 C9.30439815 6.34780093 8.257383 5.67336458 5.4375 4.75 C4.22900391 4.37101563 4.22900391 4.37101563 2.99609375 3.984375 C2.33738281 3.65953125 1.67867188 3.3346875 1 3 C0.67 2.01 0.34 1.02 0 0 Z " fill="#787878" transform="translate(86,0)"/>
	

	

	<path d="M0 0 C-2.90600261 1.25664978 -4.79604584 2 -8 2 C-8 2.66 -8 3.32 -8 4 C-10.31 4 -12.62 4 -15 4 C-15 3.01 -15 2.02 -15 1 C-14.34 0.67 -13.68 0.34 -13 0 C-13 0.66 -13 1.32 -13 2 C-11.96939453 1.65775391 -11.96939453 1.65775391 -10.91796875 1.30859375 C-10.01691406 1.02113281 -9.11585937 0.73367187 -8.1875 0.4375 C-7.29417969 0.14746094 -6.40085937 -0.14257812 -5.48046875 -0.44140625 C-3 -1 -3 -1 0 0 Z " fill="#C1C1C1" transform="translate(61,100)"/>
	

	<path d="M0 0 C3.44852763 6.40440846 4.28673875 11.83153129 4 19 C3.67 19 3.34 19 3 19 C2.51171875 17.01432292 2.0234375 15.02864583 1.53515625 13.04296875 C1.08989295 11.34316798 0.55566015 9.66698046 0 8 C-0.12781786 5.32605036 -0.04391871 2.67904143 0 0 Z " fill="#404141" transform="translate(119,33)"/>
	

	<path d="M0 0 C1.258125 -0.04125 2.51625 -0.0825 3.8125 -0.125 C4.52019531 -0.14820312 5.22789063 -0.17140625 5.95703125 -0.1953125 C8 0 8 0 11 2 C11 2.66 11 3.32 11 4 C6.35108046 4.32434322 3.77593392 3.776422 0 1 C0 0.67 0 0.34 0 0 Z " fill="#FCFCFC" transform="translate(94,0)"/>
	

	<path d="M0 0 C9.23295455 3.42938312 9.23295455 3.42938312 11.3125 7.6875 C11.6528125 8.8321875 11.6528125 8.8321875 12 10 C6.9415863 7.76488697 2.54752405 5.09504809 0 0 Z " fill="#5B5B5B" transform="translate(99,8)"/>
	

	<path d="M0 0 C0.66 0 1.32 0 2 0 C2 0.66 2 1.32 2 2 C1.01 2.495 1.01 2.495 0 3 C-0.65213292 5.02463255 -0.65213292 5.02463255 -1 7 C0.98 7 2.96 7 5 7 C4.67 7.66 4.34 8.32 4 9 C1.69 9 -0.62 9 -3 9 C-2.25 2.25 -2.25 2.25 0 0 Z " fill="#2B2C2C" transform="translate(43,99)"/>
	

	<path d="M0 0 C3 1 3 1 4.1875 3.125 C5.14531259 6.51418301 5.13746202 9.49471861 5 13 C4.67 13 4.34 13 4 13 C4 11.02 4 9.04 4 7 C2.68 6.34 1.36 5.68 0 5 C0 3.35 0 1.7 0 0 Z " fill="#717171" transform="translate(0,88)"/>
	

	<path d="M0 0 C2.4375 0.9375 2.4375 0.9375 3.75 3.0625 C4.55590308 6.43264017 4.57291723 9.48436063 4.4375 12.9375 C4.1075 12.9375 3.7775 12.9375 3.4375 12.9375 C2.7775 9.9675 2.1175 6.9975 1.4375 3.9375 C-0.8725 3.2775 -3.1825 2.6175 -5.5625 1.9375 C-2.5625 -0.0625 -2.5625 -0.0625 0 0 Z " fill="#CBCBCB" transform="translate(45.5625,85.0625)"/>
	

	<path d="M0 0 C0.66 0 1.32 0 2 0 C0.34908222 4.29238623 -2.73754566 6.8793915 -6 10 C-6.66 9.67 -7.32 9.34 -8 9 C-7.34 8.01 -6.68 7.02 -6 6 C-5.34 6 -4.68 6 -4 6 C-3.71125 5.38125 -3.4225 4.7625 -3.125 4.125 C-2 2 -2 2 0 0 Z " fill="#434343" transform="translate(111,105)"/>
	

	<path d="M0 0 C0 0.66 0 1.32 0 2 C-1.6796875 3.25390625 -1.6796875 3.25390625 -3.875 4.5625 C-4.95394531 5.21412109 -4.95394531 5.21412109 -6.0546875 5.87890625 C-7.34834796 6.62444953 -8.66451742 7.33225871 -10 8 C-8.14082741 2.26755117 -6.18031831 0 0 0 Z " fill="#ABABAB" transform="translate(40,87)"/>
	

	<path d="M0 0 C3 2 3 2 4 5 C7.00847418 6.22520264 7.00847418 6.22520264 10 7 C9.67 8.32 9.34 9.64 9 11 C8.34 10.01 7.68 9.02 7 8 C4.43717258 7.27034634 4.43717258 7.27034634 2 7 C1.34 4.69 0.68 2.38 0 0 Z " fill="#939393" transform="translate(17,41)"/>
	

	<path d="M0 0 C1.98 0.99 1.98 0.99 4 2 C4 3.98 4 5.96 4 8 C4.99 8.33 5.98 8.66 7 9 C7 9.66 7 10.32 7 11 C6.01 11 5.02 11 4 11 C3.34 8.36 2.68 5.72 2 3 C1.34 3 0.68 3 0 3 C0 2.01 0 1.02 0 0 Z " fill="#B9B9B9" transform="translate(0,93)"/>
	

	<path d="M0 0 C0 4.5 0 4.5 -2 7 C-4.69913905 7.67203054 -7.20291781 7.81954308 -10 8 C-8.37364841 6.12969567 -7.46261123 5.10119621 -5 4.5625 C-2.27496515 3.79608395 -1.49741117 2.32098732 0 0 Z " fill="#BEBEBE" transform="translate(78,90)"/>
	

	<path d="M0 0 C0.33 0 0.66 0 1 0 C4.44419134 9.41002278 4.44419134 9.41002278 4 14 C1.3184721 10.92307254 0.57912193 8.80265337 0.3125 4.75 C0.24675781 3.85796875 0.18101563 2.9659375 0.11328125 2.046875 C0.07589844 1.37140625 0.03851563 0.6959375 0 0 Z " fill="#939393" transform="translate(124,47)"/>
	

	<path d="M0 0 C0 0.66 0 1.32 0 2 C-2.97411124 3.23921302 -5.85262818 4.30058404 -9 5 C-8 2 -8 2 -6.1875 0.8125 C-4 0 -4 0 0 0 Z " fill="#B0B0B0" transform="translate(55,24)"/>
	

	<path d="M0 0 C0.33 0 0.66 0 1 0 C1.34833144 4.87664009 0.41685712 7.77050005 -2 12 C-3.12377697 8.69564916 -2.89554742 6.9493138 -1.5625 3.75 C-1.27503906 3.04359375 -0.98757812 2.3371875 -0.69140625 1.609375 C-0.46324219 1.07828125 -0.23507813 0.5471875 0 0 Z " fill="#939393" transform="translate(127,72)"/>
	

	<path d="M0 0 C1.9375 0.5625 1.9375 0.5625 4 2 C4.75 5.625 4.75 5.625 5 9 C3 6 3 6 3 4 C2.01 3.67 1.02 3.34 0 3 C0 2.01 0 1.02 0 0 Z " fill="#2A2B2B" transform="translate(0,85)"/>
	

	<path d="M0 0 C0.66 0 1.32 0 2 0 C1.67 1.65 1.34 3.3 1 5 C0.34 5 -0.32 5 -1 5 C-1.33 5.66 -1.66 6.32 -2 7 C-2.125 4.625 -2.125 4.625 -2 2 C-1.34 1.34 -0.68 0.68 0 0 Z " fill="#CBCBCB" transform="translate(15,50)"/>
	

	

	

	<path d="M0 0 C0.99 0 1.98 0 3 0 C3 1.32 3 2.64 3 4 C1.68 4.33 0.36 4.66 -1 5 C-0.67 3.35 -0.34 1.7 0 0 Z " fill="#2F3030" transform="translate(21,50)"/>
	

	<path d="M0 0 C0.99 0.33 1.98 0.66 3 1 C3.33 3.31 3.66 5.62 4 8 C3.34 7.67 2.68 7.34 2 7 C1.26924352 4.6859378 0.59861742 2.35171131 0 0 Z " fill="#3E3E3E" transform="translate(105,45)"/>
	

	<path d="M0 0 C0.66 0.33 1.32 0.66 2 1 C-0.64 2.98 -3.28 4.96 -6 7 C-5 3 -5 3 -2.5625 1.1875 C-1.716875 0.795625 -0.87125 0.40375 0 0 Z " fill="#B7B7B7" transform="translate(42,30)"/>
	

</svg>
