<?xml version="1.0" encoding="iso-8859-1"?>
<svg height="128" version="1.1" width="128" xmlns="http://www.w3.org/2000/svg">
	

	<path d="M0 0 C42.24 0 84.48 0 128 0 C128 42.24 128 84.48 128 128 C85.76 128 43.52 128 0 128 C0 85.76 0 43.52 0 0 Z " fill="#83BA40" transform="translate(0,0)"/>
	

	<path d="M0 0 C34.65 0 69.3 0 105 0 C105 42.24 105 84.48 105 128 C81.57 128 58.14 128 34 128 C34.64954064 124.7522968 35.23466924 122.10330745 36.3125 119.0625 C37.28407127 116.28195557 38.10786497 113.55649696 38.8046875 110.69140625 C40.97215981 101.93520173 44.28092226 95.92865681 50 89 C51.63385157 86.8817595 53.05942284 84.89465951 54.375 82.5625 C56.25742531 79.59406008 58.48701675 77.45315032 61 75 C61.825 74.01 62.65 73.02 63.5 72 C66 69 66 69 68.375 66.6875 C75.38548953 59.98692462 75.38548953 59.98692462 78.1875 51.1875 C76.89453318 47.71690486 75.81631242 46.34692701 73 44 C72.29875 43.2575 71.5975 42.515 70.875 41.75 C62.73692291 33.96575234 53.60763637 26.39473334 42.25 24.3125 C37.81733834 25.25017843 34.14174054 26.63442044 31 30 C30.29535401 32.95514328 30.58308082 34.92522106 31 38 C21.59786005 36.1503987 16.66187134 32.13905936 11.16015625 24.41796875 C9.35386453 21.65517244 7.66048221 18.85262329 6 16 C5.41605469 15.01902344 4.83210938 14.03804687 4.23046875 13.02734375 C0 5.66612998 0 5.66612998 0 0 Z " fill="#FCFCFA" transform="translate(23,0)"/>
	

	<path d="M0 0 C2.97 0 5.94 0 9 0 C9.33 1.19625 9.66 2.3925 10 3.625 C13.95100495 15.31262394 21.80137262 29.50867544 32.859375 35.56640625 C35.22452998 36.52516258 37.53545845 37.34453682 40 38 C39.67 37.34 39.34 36.68 39 36 C38.375 33.25 38.375 33.25 39 30 C42.57942752 26.49200229 46.4379145 24.35367974 51.3125 23.25 C61.4244607 25.30666997 69.32242862 31.42682797 77 38 C77.8971875 38.69867188 78.794375 39.39734375 79.71875 40.1171875 C82.06136434 42.0506466 82.74117028 43.31449659 84 46 C84.721875 46.598125 85.44375 47.19625 86.1875 47.8125 C88 50 88 50 87.91015625 53.25390625 C86.84058469 57.65613426 85.23227878 59.74567227 82.25 63.125 C81.38890625 64.11757812 80.5278125 65.11015625 79.640625 66.1328125 C77.15812877 68.82830397 74.60866427 71.42713215 72 74 C71.443125 74.598125 70.88625 75.19625 70.3125 75.8125 C69 77 69 77 67 77 C66.71640625 77.58265625 66.4328125 78.1653125 66.140625 78.765625 C63.17354725 84.5778458 59.48078076 89.84312478 55.4296875 94.9453125 C51.61565039 100.42668824 50.04113859 106.10676057 48.5 112.5 C47.16532649 118.03674238 45.80331873 122.98010366 43 128 C40.75 128.375 40.75 128.375 38 128 C32.06250064 121.0446436 31.48011724 113.58916866 31.62109375 104.7734375 C32.60020176 95.02273297 36.10047317 86.89952683 43 80 C43.33 79.34 43.66 78.68 44 78 C43.01 77.505 43.01 77.505 42 77 C41.56519689 75.57944465 41.20314331 74.1364145 40.875 72.6875 C38.04751118 62.77715168 31.32523266 55.10715841 24.42578125 47.6953125 C0.49618321 21.10687023 0.49618321 21.10687023 1 7 C0.70307988 4.66175408 0.37979153 2.32622311 0 0 Z " fill="#3DA19C" transform="translate(14,0)"/>
	

	

	<path d="M0 0 C3.96 0 7.92 0 12 0 C13.29243536 4.1196377 14.26252625 7.66831683 14 12 C12.2984375 12.4640625 12.2984375 12.4640625 10.5625 12.9375 C7.21224901 13.62924531 7.21224901 13.62924531 6 15 C5.78270091 19.4281977 5.78270091 19.4281977 6.49731445 23.76977539 C7.21575614 26.95722796 7.16266678 30.12040801 7.16796875 33.37109375 C7.17129715 34.08926773 7.17462555 34.80744171 7.17805481 35.54737854 C7.18311142 37.06958377 7.18546353 38.59180005 7.18530273 40.11401367 C7.18746309 42.39847188 7.20555852 44.68242572 7.22460938 46.96679688 C7.25436644 54.90026858 6.83443642 62.42248729 5.46069336 70.26342773 C4.03956111 78.70511897 3.95108225 87.32101806 8 95 C12.55665297 101.17352983 20.77888931 104.97110427 28.125 106.76171875 C31.05680221 107.00470779 32.4360701 106.77594297 35.0625 105.5625 C38.19316874 104.13481262 40.55479327 103.85072761 44 104 C44.02578125 104.76183594 44.0515625 105.52367188 44.078125 106.30859375 C44.42429453 112.61045273 45.2226648 117.546516 48.16015625 123.16015625 C49 125 49 125 49 128 C32.83 128 16.66 128 0 128 C0 85.76 0 43.52 0 0 Z " fill="#FCFCFB" transform="translate(0,0)"/>
	

	<path d="M0 0 C1.17949219 0.48210938 2.35898438 0.96421875 3.57421875 1.4609375 C4.44014648 1.76177246 5.30607422 2.06260742 6.19824219 2.37255859 C9.33638109 3.75474136 11.28063751 4.89307289 13.57421875 7.4609375 C14.83500806 12.96095269 14.52114785 18.23680085 14.19921875 23.8359375 C14.14901611 25.350114 14.10339589 26.86444981 14.0625 28.37890625 C13.95270161 32.07624426 13.78042764 35.76757768 13.57421875 39.4609375 C13.04094971 39.72068359 12.50768066 39.98042969 11.95825195 40.24804688 C8.42248162 41.98917943 5.00688098 43.71136368 1.76171875 45.9609375 C-3.02807933 48.99385983 -8.04787471 50.73255415 -13.42578125 52.4609375 C-14.09947754 52.68346191 -14.77317383 52.90598633 -15.46728516 53.13525391 C-17.69795502 53.86658043 -19.93521529 54.5730636 -22.17578125 55.2734375 C-22.88468506 55.50482422 -23.59358887 55.73621094 -24.32397461 55.97460938 C-29.12143212 57.42535604 -32.51621732 57.50839682 -37.42578125 56.4609375 C-35.85884199 52.61481386 -33.37013222 50.33681519 -30.42578125 47.4609375 C-29.60078125 46.4709375 -28.77578125 45.4809375 -27.92578125 44.4609375 C-25.42578125 41.4609375 -25.42578125 41.4609375 -23.05078125 39.1484375 C-16.05598798 32.50404642 -16.05598798 32.50404642 -13.30078125 23.7734375 C-14.69574358 19.66604843 -16.33601984 16.10696518 -18.734375 12.484375 C-20.66758814 9.55991092 -22.25796402 7.13220641 -23.11328125 3.7109375 C-22.42578125 1.4609375 -22.42578125 1.4609375 -19.86328125 -0.8515625 C-12.89928613 -4.27025102 -7.09226394 -2.08229581 0 0 Z " fill="#F5D52D" transform="translate(114.42578125,27.5390625)"/>
	

	<path d="M0 0 C0.66 0 1.32 0 2 0 C2.33 1.19625 2.66 2.3925 3 3.625 C6.95100495 15.31262394 14.80137262 29.50867544 25.859375 35.56640625 C28.22452998 36.52516258 30.53545845 37.34453682 33 38 C32.67 37.34 32.34 36.68 32 36 C31.375 33.25 31.375 33.25 32 30 C35.57942752 26.49200229 39.4379145 24.35367974 44.3125 23.25 C54.4244607 25.30666997 62.32242862 31.42682797 70 38 C70.8971875 38.69867188 71.794375 39.39734375 72.71875 40.1171875 C75.06136434 42.0506466 75.74117028 43.31449659 77 46 C77.721875 46.598125 78.44375 47.19625 79.1875 47.8125 C81 50 81 50 80.91015625 53.25390625 C79.84058469 57.65613426 78.23227878 59.74567227 75.25 63.125 C74.38890625 64.11757812 73.5278125 65.11015625 72.640625 66.1328125 C70.15812877 68.82830397 67.60866427 71.42713215 65 74 C64.443125 74.598125 63.88625 75.19625 63.3125 75.8125 C62 77 62 77 60 77 C59.57460937 77.87398437 59.57460937 77.87398437 59.140625 78.765625 C56.17354725 84.5778458 52.48078076 89.84312478 48.4296875 94.9453125 C44.61565039 100.42668824 43.04113859 106.10676057 41.5 112.5 C40.16532649 118.03674238 38.80331873 122.98010366 36 128 C35.34 128 34.68 128 34 128 C34.45248556 125.01359532 35.15756248 122.64790507 36.3984375 119.875 C37.89847686 116.4474303 38.84095705 113.01652253 39.73608398 109.39038086 C41.65208696 101.65252047 43.63152395 96.00887801 49 90 C50.04268251 88.47302587 51.06302259 86.9305969 52.0625 85.375 C55.07857202 80.8116202 58.04133001 76.54631841 62.375 73.125 C68.49304898 68.17229368 74.65842432 61.16821881 78 54 C77.51446534 47.93673791 71.90935634 42.81388852 67.734375 38.84765625 C60.89067389 33.09673967 53.11212613 27.74208282 44.125 26.4375 C40.64436276 27.0640147 38.04329292 28.21856024 35 30 C35 36.42602144 37.52308463 39.10158529 41.859375 43.65625 C45.70880749 47.8709571 49.18664292 52.55992877 51 58 C50.01 58.66 49.02 59.32 48 60 C43.29804482 57.22157194 40.83815521 54.79550363 38 50 C37.46375 49.13375 36.9275 48.2675 36.375 47.375 C35 45 35 45 34.125 42.8125 C32.52396301 40.23305151 30.85797863 40.03373695 28 39 C19.01047285 35.48235894 14.24711475 28.69506304 9 21 C8.60296875 20.42556152 8.2059375 19.85112305 7.796875 19.25927734 C3.57717665 13.07917747 0 7.69209638 0 0 Z " fill="#8CC4C0" transform="translate(21,0)"/>
	

	<path d="M0 0 C0.13277344 0.71027344 0.26554687 1.42054687 0.40234375 2.15234375 C0.57894531 3.07144531 0.75554688 3.99054688 0.9375 4.9375 C1.11152344 5.85402344 1.28554688 6.77054687 1.46484375 7.71484375 C1.77714988 9.95289844 1.77714988 9.95289844 3 11 C3.10707999 22.02923924 -0.36143851 33.09034591 -5 43 C-5.67276716 44.6642135 -6.34206835 46.32986582 -7 48 C-8.8125 47.8125 -8.8125 47.8125 -11 47 C-15.50733219 40.82328552 -15.55253696 34.40991536 -15 27 C-14.29088007 23.54304034 -13.21603606 20.30887064 -12 17 C-11.70996094 16.14148438 -11.41992188 15.28296875 -11.12109375 14.3984375 C-5.92286631 0 -5.92286631 0 0 0 Z " fill="#0D98C1" transform="translate(62,80)"/>
	

	<path d="M0 0 C4.77412221 1.65199784 8.39604042 4.99956758 10.8984375 9.3515625 C11.93944244 13.97825113 12.02833994 16.7385808 9.8359375 21.0390625 C7.197751 24.16323073 5.3131809 25.51506989 1.4609375 26.8515625 C-2.20081953 26.8515625 -3.3960168 25.97132169 -6.2265625 23.6015625 C-10.00409084 19.10936663 -11.22878551 14.98337279 -11.12109375 9.1484375 C-10.15633017 5.34118255 -7.69481898 3.44118664 -4.77734375 0.96875 C-2.5390625 -0.1484375 -2.5390625 -0.1484375 0 0 Z " fill="#FDFDFC" transform="translate(22.5390625,66.1484375)"/>
	

	<path d="M0 0 C0.66 0 1.32 0 2 0 C3.5912689 4.873261 4.21192221 8.80790596 4 14 C0.8035914 15.06546953 -1.65747276 15.07427838 -5 15 C-4.54177532 18.46941546 -4.10868317 21.67395049 -3 25 C-2.90497584 26.33384084 -2.86198069 27.67183146 -2.85473633 29.0090332 C-2.84835648 29.81029129 -2.84197662 30.61154938 -2.83540344 31.43708801 C-2.83429062 32.29960678 -2.8331778 33.16212555 -2.83203125 34.05078125 C-2.82870285 34.94234421 -2.82537445 35.83390717 -2.82194519 36.75248718 C-2.81688211 38.63959233 -2.81453667 40.52670643 -2.81469727 42.41381836 C-2.81251629 45.29100453 -2.7943693 48.16780382 -2.77539062 51.04492188 C-2.77245542 52.88020703 -2.77047147 54.71549399 -2.76953125 56.55078125 C-2.76234573 57.40722733 -2.75516022 58.2636734 -2.74775696 59.14607239 C-2.76568111 63.8692188 -3.30136072 67.53278057 -5 72 C-6.05673906 83.63413146 -6.05673906 83.63413146 -2.390625 94.39453125 C2.14264865 99.62817021 8.17379839 103.5819296 15 105 C18.35817665 104.89055736 18.35817665 104.89055736 22 104 C24.14461314 103.63851804 26.2905507 103.28483764 28.4375 102.9375 C30.29180056 102.62579549 32.14601302 102.3135643 34 102 C34.99242183 104.97726548 35.01977794 106.6133817 34.875 109.6875 C34.81602716 114.74442118 35.9286425 118.44301349 38 123 C38.391875 123.99 38.78375 124.98 39.1875 126 C39.455625 126.66 39.72375 127.32 40 128 C39.01 128 38.02 128 37 128 C32.91412989 119.7698902 31.26695722 113.18746945 32 104 C30.69675781 104.45052734 30.69675781 104.45052734 29.3671875 104.91015625 C28.21476562 105.29042969 27.06234375 105.67070313 25.875 106.0625 C24.73804688 106.44535156 23.60109375 106.82820313 22.4296875 107.22265625 C14.38308793 109.04642996 7.81069344 104.95058482 1 101 C-3.58140585 97.16657878 -6.85680472 92.93225658 -8 87 C-8.12016328 84.85662235 -8.17531664 82.70920876 -8.1875 80.5625 C-8.20167969 79.45003906 -8.21585938 78.33757812 -8.23046875 77.19140625 C-8.14194489 73.76143043 -7.59310444 70.50212877 -7 67.125 C-5.78987782 59.63086695 -5.73106601 52.28172106 -5.79418945 44.71264648 C-5.8127275 42.40923231 -5.81469644 40.10621626 -5.81445312 37.80273438 C-5.81936029 36.32551736 -5.82518508 34.84830305 -5.83203125 33.37109375 C-5.83314407 32.6888121 -5.8342569 32.00653046 -5.83540344 31.30357361 C-5.86802403 28.03917178 -6.09443822 25.1345033 -7 22 C-7.3125 18.4375 -7.3125 18.4375 -7 15 C-5.3125 13.0625 -5.3125 13.0625 -3 12 C-0.25 11.8125 -0.25 11.8125 2 12 C1.67 10.7625 1.34 9.525 1 8.25 C0.20108841 5.25408155 0 3.19892281 0 0 Z " fill="#ACCC7F" transform="translate(12,0)"/>
	

	<path d="M0 0 C2.39073445 3.82517513 2.55966552 7.59665524 3 12 C1.2984375 12.4640625 1.2984375 12.4640625 -0.4375 12.9375 C-3.78775099 13.62924531 -3.78775099 13.62924531 -5 15 C-5.21729909 19.4281977 -5.21729909 19.4281977 -4.50268555 23.76977539 C-3.78424386 26.95722796 -3.83733322 30.12040801 -3.83203125 33.37109375 C-3.82870285 34.08926773 -3.82537445 34.80744171 -3.82194519 35.54737854 C-3.81688858 37.06958377 -3.81453647 38.59180005 -3.81469727 40.11401367 C-3.81253691 42.39847188 -3.79444148 44.68242572 -3.77539062 46.96679688 C-3.74563356 54.90026858 -4.16556358 62.42248729 -5.53930664 70.26342773 C-6.96043889 78.70511897 -7.04891775 87.32101806 -3 95 C1.55665297 101.17352983 9.77888931 104.97110427 17.125 106.76171875 C20.05680221 107.00470779 21.4360701 106.77594297 24.0625 105.5625 C27.1936607 104.24032082 29.55110078 103.6766657 33 104 C32.67 104.66 32.34 105.32 32 106 C30.33871537 106.35919668 28.67099977 106.68911632 27 107 C26.36707031 107.33 25.73414063 107.66 25.08203125 108 C21.37677093 109.77963723 18.01021816 109.68322235 14 109 C4.68815954 105.42587895 -2.95166907 100.78783532 -8 92 C-10.66848241 84.0823318 -9.24858979 74.04005077 -8 65.9375 C-6.85086974 57.73874087 -6.80364912 49.57639396 -6.8125 41.3125 C-6.8117749 40.64330536 -6.8110498 39.97411072 -6.81030273 39.28463745 C-6.75674981 30.58055636 -6.75674981 30.58055636 -8 22 C-8.65454545 15.12727273 -8.65454545 15.12727273 -6.875 12.0625 C-4.31897331 10.61408488 -1.89659753 10.32184417 1 10 C0.67 9.01 0.34 8.02 0 7 C-0.03954234 4.66700175 -0.04401732 2.33291811 0 0 Z " fill="#DCE9CC" transform="translate(11,0)"/>
	

	<path d="M0 0 C2.45972372 3.68958558 4.79740524 7.45135728 7.1484375 11.2109375 C8.9715818 14.05663182 8.9715818 14.05663182 11.2265625 16.7265625 C13 19 13 19 13 21 C13.99 21.33 14.98 21.66 16 22 C17.46484375 23.671875 17.46484375 23.671875 18.9375 25.75 C19.46085937 26.47316406 19.98421875 27.19632813 20.5234375 27.94140625 C21.25433594 28.96041016 21.25433594 28.96041016 22 30 C25.51509544 34.58027588 29.44826603 38.52215813 33.625 42.5 C38.29785139 47.41879094 41.09681421 53.51468755 43 60 C42.75 63.625 42.75 63.625 42 66 C41.34 66 40.68 66 40 66 C39.87625 65.41734375 39.7525 64.8346875 39.625 64.234375 C36.84295691 53.17575373 30.06704462 44.90406176 22.42578125 36.6953125 C2.92882562 15.03202847 2.92882562 15.03202847 -1 3 C-0.67 2.01 -0.34 1.02 0 0 Z " fill="#54AF74" transform="translate(16,11)"/>
	

	<path d="M0 0 C1.5625 1.0625 1.5625 1.0625 3 3 C2.79451093 8.87415302 1.09157238 11.77197567 -2.75 16.125 C-3.61109375 17.11757812 -4.4721875 18.11015625 -5.359375 19.1328125 C-7.84187123 21.82830397 -10.39133573 24.42713215 -13 27 C-13.556875 27.598125 -14.11375 28.19625 -14.6875 28.8125 C-16 30 -16 30 -18 30 C-18.28359375 30.58265625 -18.5671875 31.1653125 -18.859375 31.765625 C-21.82645275 37.5778458 -25.51921924 42.84312478 -29.5703125 47.9453125 C-33.38434961 53.42668824 -34.95886141 59.10676057 -36.5 65.5 C-37.83467351 71.03674238 -39.19668127 75.98010366 -42 81 C-42.66 81 -43.32 81 -44 81 C-43.54751444 78.01359532 -42.84243752 75.64790507 -41.6015625 72.875 C-40.10152314 69.4474303 -39.15904295 66.01652253 -38.26391602 62.39038086 C-36.34791304 54.65252047 -34.36847605 49.00887801 -29 43 C-27.95731749 41.47302587 -26.93697741 39.9305969 -25.9375 38.375 C-22.92142798 33.8116202 -19.95866999 29.54631841 -15.625 26.125 C-9.56674772 21.22070054 -1.01447028 12.8091772 0.37109375 4.875 C0.4168867 2.7642622 0.4168867 2.7642622 0 0 Z " fill="#AFCD7E" transform="translate(99,47)"/>
	

	<path d="M0 0 C5.22690763 3.17913646 8.60473626 7.44298812 11 13 C11.94894947 17.52989088 11.42695267 20.89697013 8.9375 24.8125 C6.05148429 28.38527299 3.40130506 29.74248427 -1 31 C-4.68487796 31 -5.80407439 30.16793624 -8.625 27.75 C-12.84438525 22.86439603 -14.75733583 19.03947789 -15.26953125 12.57421875 C-14.79628458 8.05437009 -12.18007375 5.0892145 -9 2 C-5.42529543 -0.38313638 -4.21446465 -0.64837918 0 0 Z M-11.30859375 6.875 C-13.69790508 9.87681377 -13.8927498 11.97243624 -13.52734375 15.72265625 C-12.35744501 20.7748856 -10.56692064 24.63925312 -6.625 28.0625 C-3.22336822 29.27736849 -1.44093861 29.07529331 2 28 C5.45373442 25.72367504 7.45950327 23.8232328 9 20 C9.45009908 14.92700833 8.43549023 10.99297932 5.1875 7.0625 C3.01519879 4.70033185 0.98120035 3.21239385 -2 2 C-6.33600163 2 -8.18843946 4.02491431 -11.30859375 6.875 Z " fill="#ACCC7F" transform="translate(25,64)"/>
	

	<path d="M0 0 C0.495 1.98 0.495 1.98 1 4 C-0.7325 4.8353125 -0.7325 4.8353125 -2.5 5.6875 C-5.41189089 7.13069636 -8.11256238 8.69445165 -10.8125 10.5 C-15.60229808 13.53292233 -20.62209346 15.27161665 -26 17 C-26.67369629 17.22252441 -27.34739258 17.44504883 -28.04150391 17.67431641 C-30.27217377 18.40564293 -32.50943404 19.1121261 -34.75 19.8125 C-35.45890381 20.04388672 -36.16780762 20.27527344 -36.89819336 20.51367188 C-41.69565087 21.96441854 -45.09043607 22.04745932 -50 21 C-48.24277009 16.68679932 -45.1937832 13.0968916 -41 11 C-41.66 13.31 -42.32 15.62 -43 18 C-27.22135931 15.2403612 -12.78886983 9.66270165 0 0 Z " fill="#F0E678" transform="translate(127,63)"/>
	

	<path d="M0 0 C4.75958025 1.84096972 9.29392223 4.10630143 13.3125 7.28125 C13.3125 7.94125 13.3125 8.60125 13.3125 9.28125 C9.7205943 8.94450884 7.38691007 7.79472164 4.4375 5.84375 C-2.12591846 1.60691644 -8.94778964 0.36114457 -16.6875 1.28125 C-17.6775 1.94125 -18.6675 2.60125 -19.6875 3.28125 C-18.65721429 7.02774348 -17.31886395 9.92976702 -15.125 13.09375 C-12.32202301 17.35592384 -11.81557013 21.25158674 -11.6875 26.28125 C-12.66539242 24.33408095 -13.63738323 22.38542284 -14.58203125 20.421875 C-16.3363766 16.80867011 -18.20662262 13.43690619 -20.4375 10.09375 C-21.89147027 7.77917427 -22.70468173 6.21252308 -23.375 3.53125 C-22.6875 1.28125 -22.6875 1.28125 -20.125 -1.03125 C-13.11101182 -4.47448056 -7.09900352 -2.30060299 0 0 Z " fill="#F0E678" transform="translate(114.6875,27.71875)"/>
	

	<path d="M0 0 C0.66 0 1.32 0 2 0 C2.495 1.19625 2.99 2.3925 3.5 3.625 C6.62106911 9.83416919 11.78758836 13.23258663 18.0625 15.9375 C22.02631995 17.24088374 24.89024011 16.89044798 29 16 C31.14461314 15.63851804 33.2905507 15.28483764 35.4375 14.9375 C37.29180056 14.62579549 39.14601302 14.3135643 41 14 C41.99242183 16.97726548 42.01977794 18.6133817 41.875 21.6875 C41.81602716 26.74442118 42.9286425 30.44301349 45 35 C45.391875 35.99 45.78375 36.98 46.1875 38 C46.455625 38.66 46.72375 39.32 47 40 C46.01 40 45.02 40 44 40 C39.91412989 31.7698902 38.26695722 25.18746945 39 16 C38.13117187 16.30035156 37.26234375 16.60070312 36.3671875 16.91015625 C35.21476562 17.29042969 34.06234375 17.67070313 32.875 18.0625 C31.16957031 18.63677734 31.16957031 18.63677734 29.4296875 19.22265625 C21.38308793 21.04642996 14.81069344 16.95058482 8 13 C4.48749956 10.06096902 2.05068672 7.10137344 0 3 C0 2.01 0 1.02 0 0 Z " fill="#ACCC7F" transform="translate(5,88)"/>
	

	<path d="M0 0 C4.77412221 1.65199784 8.39604042 4.99956758 10.8984375 9.3515625 C11.93944244 13.97825113 12.02833994 16.7385808 9.8359375 21.0390625 C7.197751 24.16323073 5.3131809 25.51506989 1.4609375 26.8515625 C-2.20081953 26.8515625 -3.3960168 25.97132169 -6.2265625 23.6015625 C-10.00409084 19.10936663 -11.22878551 14.98337279 -11.12109375 9.1484375 C-10.15633017 5.34118255 -7.69481898 3.44118664 -4.77734375 0.96875 C-2.5390625 -0.1484375 -2.5390625 -0.1484375 0 0 Z M-8.8203125 6.875 C-10.32618287 11.01614351 -9.06279869 14.87184645 -7.5390625 18.8515625 C-6.09428783 21.70236309 -5.10744895 22.73977809 -2.5390625 24.8515625 C1.41630555 24.99034734 3.50743792 24.59488207 6.640625 22.15234375 C9.53548683 18.49338749 9.07298648 15.22311462 8.90234375 10.71484375 C8.61709458 7.63419794 8.61709458 7.63419794 6.4609375 4.6015625 C3.18217328 2.68895004 1.16038905 2.03805754 -2.59375 2.31640625 C-5.37132448 3.08051811 -7.17423303 4.52822454 -8.8203125 6.875 Z " fill="#DCE9CC" transform="translate(22.5390625,66.1484375)"/>
	

	<path d="M0 0 C2.81859643 1.52403371 5.35985303 3.17220594 8 5 C7.67 5.66 7.34 6.32 7 7 C6.33355469 6.60167969 5.66710937 6.20335937 4.98046875 5.79296875 C-3.29721905 1.03474541 -12.20552401 -3.17533712 -22 -2 C-24.87146994 -0.63002843 -24.87146994 -0.63002843 -27 1 C-26.67367095 6.33004121 -25.54580032 9.19566764 -22.15625 13.32421875 C-20.86472669 15.1960549 -20.42536052 16.78135818 -20 19 C-23 18 -23 18 -23.98388672 16.11230469 C-24.48686279 15.06671387 -24.48686279 15.06671387 -25 14 C-26.49643295 12.49441903 -26.49643295 12.49441903 -28.2578125 11.203125 C-28.88300781 10.71972656 -29.50820312 10.23632812 -30.15234375 9.73828125 C-30.80332031 9.24714844 -31.45429687 8.75601563 -32.125 8.25 C-32.78371094 7.74339844 -33.44242187 7.23679687 -34.12109375 6.71484375 C-35.74214112 5.46969142 -37.37038213 4.23391431 -39 3 C-38.34 2.67 -37.68 2.34 -37 2 C-35.0546875 2.99609375 -35.0546875 2.99609375 -32.875 4.4375 C-32.15054688 4.91058594 -31.42609375 5.38367187 -30.6796875 5.87109375 C-30.12539062 6.24363281 -29.57109375 6.61617187 -29 7 C-29.33 4.69 -29.66 2.38 -30 0 C-19.72993122 -7.07493627 -11.03095539 -4.53776785 0 0 Z " fill="#DCE9CC" transform="translate(120,28)"/>
	

	

	<path d="M0 0 C4.07173519 3.07363127 5.76448199 5.43581739 8 10 C10.47906969 12.7295585 10.47906969 12.7295585 13 15 C13.66 15.66 14.32 16.32 15 17 C14.67 17.33 14.34 17.66 14 18 C12.0390625 17.984375 12.0390625 17.984375 9.625 17.75 C8.83351563 17.68296875 8.04203125 17.6159375 7.2265625 17.546875 C4.46372742 16.86828393 3.59723497 16.36429614 2 14 C1.26953125 10.64453125 1.26953125 10.64453125 0.8125 6.8125 C0.65394531 5.54019531 0.49539062 4.26789062 0.33203125 2.95703125 C0.16767578 1.49330078 0.16767578 1.49330078 0 0 Z " fill="#54AF74" transform="translate(54,43)"/>
	

	<path d="M0 0 C0.33 0.66 0.66 1.32 1 2 C0.52949219 2.53109375 0.05898437 3.0621875 -0.42578125 3.609375 C-1.04839844 4.31578125 -1.67101562 5.0221875 -2.3125 5.75 C-2.92738281 6.44609375 -3.54226562 7.1421875 -4.17578125 7.859375 C-6.02916165 9.96978683 -6.02916165 9.96978683 -7.60546875 12.265625 C-8.06566406 12.83796875 -8.52585937 13.4103125 -9 14 C-9.66 14 -10.32 14 -11 14 C-11.33 14.99 -11.66 15.98 -12 17 C-13.66666667 18.66666667 -15.33333333 20.33333333 -17 22 C-20.6067052 26.47601364 -23.86894519 31.1829926 -27 36 C-28 33 -28 33 -27.03125 30.80078125 C-21.55159764 21.89634616 -15.06329042 14.1332983 -6.9375 7.5 C-4.2114227 5.17993421 -2.1276709 2.86417237 0 0 Z " fill="#57AF70" transform="translate(95,58)"/>
	

	<path d="M0 0 C0.66 0.33 1.32 0.66 2 1 C-4.0622766 5.86924276 -11.18124101 7.95692182 -18.7109375 9.43359375 C-22.1172407 10.27645034 -25.24679261 11.67070714 -28.4453125 13.09765625 C-31 14 -31 14 -34.49609375 14.2734375 C-39.03911457 15.21546857 -40.1987699 16.8968151 -42.9375 20.5625 C-43.70964844 21.57441406 -44.48179688 22.58632812 -45.27734375 23.62890625 C-45.84582031 24.41136719 -46.41429688 25.19382812 -47 26 C-47.33 25.34 -47.66 24.68 -48 24 C-46.50529459 21.81057236 -44.98369786 19.65259384 -43.4375 17.5 C-43.01919922 16.87996094 -42.60089844 16.25992188 -42.16992188 15.62109375 C-40.87967646 13.85549476 -39.69313691 12.38662074 -38 11 C-34.83984375 10.796875 -34.83984375 10.796875 -31 11 C-27.29928602 10.1527034 -23.72568953 8.94697277 -20.125 7.75 C-19.18269531 7.44964844 -18.24039063 7.14929688 -17.26953125 6.83984375 C-11.91641169 5.09989479 -6.82878464 3.1247787 -1.77294922 0.64550781 C-1.18787598 0.43249023 -0.60280273 0.21947266 0 0 Z " fill="#DCE9CC" transform="translate(115,73)"/>
	

	

	<path d="M0 0 C0.804375 0.495 1.60875 0.99 2.4375 1.5 C1.4475 1.83 0.4575 2.16 -0.5625 2.5 C-1.14 2.190625 -1.7175 1.88125 -2.3125 1.5625 C-5.64809286 -0.01264107 -7.89907283 0.07260016 -11.5625 0.5 C-14.7157552 1.68730275 -17.24993054 3.02266732 -19.5625 5.5 C-20.26714599 8.45514328 -19.97941918 10.42522106 -19.5625 13.5 C-21.1911551 13.07630928 -22.81537378 12.6355377 -24.4375 12.1875 C-25.34242187 11.94386719 -26.24734375 11.70023438 -27.1796875 11.44921875 C-29.5625 10.5 -29.5625 10.5 -31.5625 7.5 C-28.5925 8.49 -25.6225 9.48 -22.5625 10.5 C-22.583125 9.448125 -22.60375 8.39625 -22.625 7.3125 C-21.45714414 3.12195837 -21.08960993 2.69716827 -17.5625 0.5625 C-11.39509449 -2.40844415 -6.29630734 -2.65107677 0 0 Z " fill="#DCE9CC" transform="translate(73.5625,24.5)"/>
	

	<path d="M0 0 C0.66 0.33 1.32 0.66 2 1 C1.39285156 2.12148437 0.78570312 3.24296875 0.16015625 4.3984375 C-2.14212988 9.00300977 -3.38580949 13.63297965 -4.5625 18.625 C-5.87327986 24.12767979 -7.215503 29.01211842 -10 34 C-10.66 34 -11.32 34 -12 34 C-11.54895315 31.02309082 -10.84643612 28.65567084 -9.61328125 25.890625 C-7.43268743 20.9042596 -6.2201858 15.67233459 -4.89453125 10.40820312 C-3.82496761 6.35135506 -2.92739271 3.157159 0 0 Z " fill="#8CC4C0" transform="translate(67,94)"/>
	

	<path d="M0 0 C2 2 2 2 2.08984375 4.1015625 C2.03957031 4.93429688 1.98929688 5.76703125 1.9375 6.625 C1.82689027 11.73516937 2.90748145 15.39645918 5 20 C5.391875 20.99 5.78375 21.98 6.1875 23 C6.455625 23.66 6.72375 24.32 7 25 C6.01 25 5.02 25 4 25 C-0.01152766 16.91963714 -2.07834657 10.07351611 -1 1 C-0.67 0.67 -0.34 0.34 0 0 Z " fill="#8CC4C0" transform="translate(45,103)"/>
	

	

	

	<path d="M0 0 C2.125 0.375 2.125 0.375 4 1 C2.1875 4 2.1875 4 0 7 C-0.99 7 -1.98 7 -3 7 C-2.25 2.25 -2.25 2.25 0 0 Z " fill="#9FC897" transform="translate(55,77)"/>
	

	<path d="M0 0 C0.66 0 1.32 0 2 0 C7 5.35714286 7 5.35714286 7 9 C5.1875 8.875 5.1875 8.875 3 8 C0 2.96428571 0 2.96428571 0 0 Z " fill="#DCE9CC" transform="translate(61,47)"/>
	

	

	

	

</svg>
