<?xml version="1.0" encoding="iso-8859-1"?>
<svg height="128" version="1.1" width="128" xmlns="http://www.w3.org/2000/svg">
	

	<path d="M0 0 C42.24 0 84.48 0 128 0 C128 42.24 128 84.48 128 128 C85.76 128 43.52 128 0 128 C0 85.76 0 43.52 0 0 Z " fill="#AAAAAA" transform="translate(0,0)"/>
	

	<path d="M0 0 C0 31.35 0 62.7 0 95 C-42.24 95 -84.48 95 -128 95 C-128 79.49 -128 63.98 -128 48 C-124.24625 47.979375 -120.4925 47.95875 -116.625 47.9375 C-115.46307129 47.928396 -114.30114258 47.91929199 -113.10400391 47.90991211 C-98.30741696 47.87099355 -98.30741696 47.87099355 -94 49 C-92.1875 51.9375 -92.1875 51.9375 -91 55 C-87.66985472 56.92797885 -84.80885384 57.46449437 -81 57 C-77.74941676 55.58376759 -77.74941676 55.58376759 -75 54 C-75.495 51.525 -75.495 51.525 -76 49 C-74.1875 48.375 -74.1875 48.375 -72 48 C-71.01 48.66 -70.02 49.32 -69 50 C-66.9507906 50.45139459 -66.9507906 50.45139459 -64.8125 50.625 C-63.554375 50.74875 -62.29625 50.8725 -61 51 C-60.505 52.98 -60.505 52.98 -60 55 C-51.74796042 55.42337318 -51.74796042 55.42337318 -44 53 C-42.82465585 50.47360837 -42.82465585 50.47360837 -42 48 C-40.73542969 47.95101562 -39.47085938 47.90203125 -38.16796875 47.8515625 C-36.50779053 47.7765262 -34.84763536 47.70097873 -33.1875 47.625 C-32.35412109 47.5940625 -31.52074219 47.563125 -30.66210938 47.53125 C-29.85966797 47.49257812 -29.05722656 47.45390625 -28.23046875 47.4140625 C-27.49207764 47.3826416 -26.75368652 47.3512207 -25.99291992 47.31884766 C-23.68650412 47.09165386 -23.68650412 47.09165386 -21 45 C-18.9921875 44.83984375 -18.9921875 44.83984375 -16.875 44.9375 C-15.59625 44.958125 -14.3175 44.97875 -13 45 C-11.73527935 43.94570314 -11.73527935 43.94570314 -11.75 41.5625 C-11.8325 40.716875 -11.915 39.87125 -12 39 C-13.485 38.01 -13.485 38.01 -15 37 C-14.39227752 30.74914016 -13.0527461 25.00915366 -11.25 19 C-11.01023437 18.14921875 -10.77046875 17.2984375 -10.5234375 16.421875 C-8.83668626 10.75299969 -6.67873776 5.68480985 -3 1 C-1 0 -1 0 0 0 Z " fill="#FDFDFC" transform="translate(128,33)"/>
	

	<path d="M0 0 C42.24 0 84.48 0 128 0 C128 6.93 128 13.86 128 21 C123 20 123 20 119.76171875 18.90234375 C115.18903926 17.80547048 111.44399195 18.02560331 106.8125 18.5625 C105.97968506 18.65329834 105.14687012 18.74409668 104.28881836 18.83764648 C98.18233922 19.60871134 92.91115921 21.18120769 87.34765625 23.87890625 C82.09687764 26.38634961 82.09687764 26.38634961 79.0703125 25.3203125 C74.10295999 22.26808385 71.53212262 19.08587452 68.4921875 14.15625 C65.40704078 9.69813222 61.72648643 7.54352351 56.625 5.9375 C52.42128926 6.00997777 49.81530987 7.11158326 46.11328125 8.9921875 C44.0772093 9.9631793 42.20011345 10.53315877 40 11 C39.9071875 12.299375 39.9071875 12.299375 39.8125 13.625 C38.94455428 17.23031299 37.60957915 18.67268945 35.14453125 21.34375 C33.07829359 24.3338004 33.1842198 27.43841711 33 31 C33.66 31 34.32 31 35 31 C35.20625 30.175 35.4125 29.35 35.625 28.5 C37.51270948 23.69492133 40.05091233 18.41435837 44.9140625 16.08203125 C46.8125 15.5625 46.8125 15.5625 50 15 C50.33 14.67 50.66 14.34 51 14 C55.10785491 13.21338949 57.01309527 13.41425242 60.65234375 15.57421875 C67.67472706 20.86367534 67.67472706 20.86367534 68.89453125 25.125 C69 28 69 28 67.3125 30.375 C65 32 65 32 61 32 C60.505 31.01 60.505 31.01 60 30 C58.68 30 57.36 30 56 30 C56.14020868 32.85090977 56.27924906 35.26873329 57 38 C60.32110347 41.00975002 64.78139 42.0291404 69.01171875 43.3515625 C71 44 71 44 73 45 C73 45.66 73 46.32 73 47 C71.3603125 47.7734375 71.3603125 47.7734375 69.6875 48.5625 C65.55798721 50.89621264 64.69840466 53.59958793 63 58 C60.3125 60.9375 60.3125 60.9375 58 63 C61.37823416 63.22267708 61.37823416 63.22267708 65 62 C66.27026171 59.74127525 67.07858761 57.45584614 67.96484375 55.0234375 C68.47724609 54.02183594 68.47724609 54.02183594 69 53 C72.125 52.125 72.125 52.125 75 52 C75.66 51.01 76.32 50.02 77 49 C78.485 49.495 78.485 49.495 80 50 C80.1953125 52.05078125 80.390625 54.1015625 80.5859375 56.15234375 C80.79089844 57.06693359 80.79089844 57.06693359 81 58 C81.66 58.33 82.32 58.66 83 59 C83 60.65 83 62.3 83 64 C80.69 63.67 78.38 63.34 76 63 C75.814375 64.4540625 75.814375 64.4540625 75.625 65.9375 C75.41875 66.948125 75.2125 67.95875 75 69 C72.29120665 70.35439668 69.99066732 70.06501451 67 70 C67.33 71.32 67.66 72.64 68 74 C63.93239015 75.72873419 60.26290119 76.64912951 55.88671875 76.015625 C52.32935828 74.10068976 51.47648384 70.21068323 50.203125 66.56640625 C48.81534838 63.60611652 47.96699112 63.14926929 45 62 C43.125 60.1875 43.125 60.1875 42 58 C42.75 55.5 42.75 55.5 44 53 C44.90363366 50.37124755 45.04313163 49.19648855 44.4375 46.4375 C44 44 44 44 46 41 C46.66 41 47.32 41 48 41 C49.07525194 38.34771188 50.09456151 35.71631546 51 33 C46.24164084 33.76133747 43.74772023 34.76178203 40.6875 38.5625 C36.31773321 44.99479671 35.84750236 51.37511779 36 59 C35.67 59.99 35.34 60.98 35 62 C35.721875 62.20625 36.44375 62.4125 37.1875 62.625 C40.97218384 64.47528988 42.52258653 66.60240438 45 70 C45 70.66 45 71.32 45 72 C40.25 70.125 40.25 70.125 38 69 C35.28737884 68.7677354 32.59226874 68.58063765 29.875 68.4375 C29.12089844 68.39431641 28.36679687 68.35113281 27.58984375 68.30664062 C25.72678112 68.2005168 23.86341476 68.09974999 22 68 C21.92439214 63.7892236 22.00691271 60.77637593 24 57 C24.99 56.34 25.98 55.68 27 55 C27 54.01 27 53.02 27 52 C26.01 52 25.02 52 24 52 C23.67 52.99 23.34 53.98 23 55 C21.515 54.505 21.515 54.505 20 54 C20.66 52.68 21.32 51.36 22 50 C22.66 50 23.32 50 24 50 C24.185625 49.4225 24.37125 48.845 24.5625 48.25 C26.70551122 44.89572157 29.48822563 43.82092004 33 42 C33 39.03 33 36.06 33 33 C32.01 32.505 32.01 32.505 31 32 C31 33.65 31 35.3 31 37 C22.7403599 40.70694087 22.7403599 40.70694087 19 42.1875 C17.03603962 42.83430303 17.03603962 42.83430303 16 44 C13.32941149 44.14115161 10.67567762 44.04247107 8 44 C7.67 44.66 7.34 45.32 7 46 C7.89363605 48.60931266 7.89363605 48.60931266 9 51 C8.33871094 51.37125 7.67742188 51.7425 6.99609375 52.125 C4.69211232 53.86675584 4.69211232 53.86675584 4.78515625 56.8125 C4.97007179 58.93772646 5.15757262 61.06272955 5.34765625 63.1875 C5.17556641 64.5796875 5.17556641 64.5796875 5 66 C3.35 66.99 1.7 67.98 0 69 C0 46.23 0 23.46 0 0 Z " fill="#FDFDFC" transform="translate(0,0)"/>
	

	<path d="M0 0 C0.495 0.99 0.495 0.99 1 2 C0.57847656 2.4846875 0.15695313 2.969375 -0.27734375 3.46875 C-4.29937137 8.38981909 -5.77284549 11.6396736 -6 18 C-5.34 18 -4.68 18 -4 18 C-3.79375 17.175 -3.5875 16.35 -3.375 15.5 C-1.48729052 10.69492133 1.05091233 5.41435837 5.9140625 3.08203125 C7.8125 2.5625 7.8125 2.5625 11 2 C11.33 1.67 11.66 1.34 12 1 C16.10785491 0.21338949 18.01309527 0.41425242 21.65234375 2.57421875 C28.67472706 7.86367534 28.67472706 7.86367534 29.89453125 12.125 C30 15 30 15 28.3125 17.375 C26 19 26 19 22 19 C21.505 18.01 21.505 18.01 21 17 C19.68 17 18.36 17 17 17 C17.14020868 19.85090977 17.27924906 22.26873329 18 25 C21.32110347 28.00975002 25.78139 29.0291404 30.01171875 30.3515625 C32 31 32 31 34 32 C34 32.66 34 33.32 34 34 C32.3603125 34.7734375 32.3603125 34.7734375 30.6875 35.5625 C26.55798721 37.89621264 25.69840466 40.59958793 24 45 C21.3125 47.9375 21.3125 47.9375 19 50 C22.37823416 50.22267708 22.37823416 50.22267708 26 49 C27.27026171 46.74127525 28.07858761 44.45584614 28.96484375 42.0234375 C29.47724609 41.02183594 29.47724609 41.02183594 30 40 C33.125 39.125 33.125 39.125 36 39 C36.66 38.01 37.32 37.02 38 36 C39.485 36.495 39.485 36.495 41 37 C41.1953125 39.05078125 41.390625 41.1015625 41.5859375 43.15234375 C41.79089844 44.06693359 41.79089844 44.06693359 42 45 C42.66 45.33 43.32 45.66 44 46 C44 47.65 44 49.3 44 51 C41.69 50.67 39.38 50.34 37 50 C36.814375 51.4540625 36.814375 51.4540625 36.625 52.9375 C36.315625 54.4534375 36.315625 54.4534375 36 56 C33.29120665 57.35439668 30.99066732 57.06501451 28 57 C28.495 58.98 28.495 58.98 29 61 C24.93239015 62.72873419 21.26290119 63.64912951 16.88671875 63.015625 C13.32935828 61.10068976 12.47648384 57.21068323 11.203125 53.56640625 C9.81534838 50.60611652 8.96699112 50.14926929 6 49 C4.125 47.1875 4.125 47.1875 3 45 C3.75 42.5 3.75 42.5 5 40 C5.90363366 37.37124755 6.04313163 36.19648855 5.4375 33.4375 C5 31 5 31 7 28 C7.66 28 8.32 28 9 28 C10.07525194 25.34771188 11.09456151 22.71631546 12 20 C7.24164084 20.76133747 4.74772023 21.76178203 1.6875 25.5625 C-2.68226679 31.99479671 -3.15249764 38.37511779 -3 46 C-3.33 46.99 -3.66 47.98 -4 49 C-3.278125 49.20625 -2.55625 49.4125 -1.8125 49.625 C1.97218384 51.47528988 3.52258653 53.60240438 6 57 C6 57.66 6 58.32 6 59 C1.25 57.125 1.25 57.125 -1 56 C-3.71262116 55.7677354 -6.40773126 55.58063765 -9.125 55.4375 C-9.87910156 55.39431641 -10.63320313 55.35113281 -11.41015625 55.30664062 C-13.27321888 55.2005168 -15.13658524 55.09974999 -17 55 C-17.07560786 50.7892236 -16.99308729 47.77637593 -15 44 C-14.01 43.34 -13.02 42.68 -12 42 C-12 41.01 -12 40.02 -12 39 C-12.99 39 -13.98 39 -15 39 C-15.33 39.99 -15.66 40.98 -16 42 C-17.485 41.505 -17.485 41.505 -19 41 C-18.34 39.68 -17.68 38.36 -17 37 C-16.34 37 -15.68 37 -15 37 C-14.814375 36.4225 -14.62875 35.845 -14.4375 35.25 C-12.29448878 31.89572157 -9.51177437 30.82092004 -6 29 C-6 26.03 -6 23.06 -6 20 C-6.66 19.67 -7.32 19.34 -8 19 C-8 20.65 -8 22.3 -8 24 C-16.2596401 27.70694087 -16.2596401 27.70694087 -20 29.1875 C-21.96396038 29.83430303 -21.96396038 29.83430303 -23 31 C-25.67058851 31.14115161 -28.32432238 31.04247107 -31 31 C-31.33 31.66 -31.66 32.32 -32 33 C-31.10636395 35.60931266 -31.10636395 35.60931266 -30 38 C-30.66128906 38.37125 -31.32257812 38.7425 -32.00390625 39.125 C-34.30788768 40.86675584 -34.30788768 40.86675584 -34.21484375 43.8125 C-34.02992821 45.93772646 -33.84242738 48.06272955 -33.65234375 50.1875 C-33.76707031 51.115625 -33.88179687 52.04375 -34 53 C-36.50390625 54.875 -36.50390625 54.875 -39 56 C-39 55.34 -39 54.68 -39 54 C-38.01 53.505 -38.01 53.505 -37 53 C-37.33 48.71 -37.66 44.42 -38 40 C-36.68 39.34 -35.36 38.68 -34 38 C-34.33 35.69 -34.66 33.38 -35 31 C-31.7162062 28.51227742 -30.38801417 27.96819556 -26.1875 28.3125 C-24.6096875 28.6528125 -24.6096875 28.6528125 -23 29 C-22.67 28.01 -22.34 27.02 -22 26 C-20.88625 25.71125 -19.7725 25.4225 -18.625 25.125 C-14.92011485 24.36117256 -14.92011485 24.36117256 -13.25 21.6875 C-12.8375 20.800625 -12.425 19.91375 -12 19 C-11.2575 17.824375 -11.2575 17.824375 -10.5 16.625 C-8.87590828 13.90505103 -8.87590828 13.90505103 -7.5 10.4375 C-6.22956158 7.52607863 -5.13807774 5.32399755 -3 3 C-2.34 3 -1.68 3 -1 3 C-0.67 2.01 -0.34 1.02 0 0 Z " fill="#D3D3D3" transform="translate(39,13)"/>
	

	<path d="M0 0 C1.485 0.495 1.485 0.495 3 1 C3.2289001 4.03292632 3.3399579 6.97275586 3 10 C1.3125 11.875 1.3125 11.875 -1 13 C-4.96135478 15.17874513 -7.32521395 17.33455245 -10 21 C-9.34 21.66 -8.68 22.32 -8 23 C-7.67 21.68 -7.34 20.36 -7 19 C-5.68 19.33 -4.36 19.66 -3 20 C-3.3125 21.9375 -3.3125 21.9375 -4 24 C-4.99 24.33 -5.98 24.66 -7 25 C-7.75245158 28.65476484 -8.39320873 32.31845972 -9 36 C-7.92621094 35.95359375 -6.85242188 35.9071875 -5.74609375 35.859375 C8.29726351 35.4378108 8.29726351 35.4378108 14 40 C13.175 39.05125 12.35 38.1025 11.5 37.125 C9 34.25 9 34.25 9 32 C6.525 31.01 6.525 31.01 4 30 C3.61172484 19.66756658 4.25809164 12.00678655 11.046875 3.8203125 C13.91742922 1.14495596 16.15651543 0.54906922 20 0 C20 4.34827524 19.40092905 5.53199138 17 9 C16.4225 9.45375 15.845 9.9075 15.25 10.375 C14.63125 11.179375 14.63125 11.179375 14 12 C14.2475 13.670625 14.2475 13.670625 14.5 15.375 C15.08952139 19.6490301 14.18312704 20.48801302 12 24 C12.6501992 26.21734114 12.6501992 26.21734114 14 28 C14.495 28.99 14.495 28.99 15 30 C15.63421875 30.2784375 16.2684375 30.556875 16.921875 30.84375 C19.6026029 32.33528281 20.10166931 33.69296941 21.25 36.5 C21.58515625 37.2940625 21.9203125 38.088125 22.265625 38.90625 C23 41 23 41 23 43 C24.8253125 42.938125 24.8253125 42.938125 26.6875 42.875 C30.21894127 42.86245492 32.80003566 43.40001783 36 45 C36 45.99 36 46.98 36 48 C25.44191344 49.33257403 25.44191344 49.33257403 21 48 C19.78918149 51.10540926 19.78918149 51.10540926 20 55 C16.19826452 56.90086774 11.54485065 56.47533866 7.5625 55.25 C5.57192345 53.65753876 5.51027838 52.43744624 5 50 C-3.58523803 49.01197819 -12.14828197 48.67201951 -20.78125 48.39453125 C-22.328125 48.33845703 -22.328125 48.33845703 -23.90625 48.28125 C-24.83759766 48.25095703 -25.76894531 48.22066406 -26.72851562 48.18945312 C-29 48 -29 48 -31 47 C-31.10824843 45.3973218 -31.18570645 43.79254252 -31.25 42.1875 C-31.29640625 41.29417969 -31.3428125 40.40085938 -31.390625 39.48046875 C-31.26171875 38.66191406 -31.1328125 37.84335938 -31 37 C-30.33484375 36.52175781 -29.6696875 36.04351562 -28.984375 35.55078125 C-28.32953125 35.03902344 -27.6746875 34.52726562 -27 34 C-26.66602213 31.12586875 -26.66602213 31.12586875 -27 28 C-27.25 24.8125 -27.25 24.8125 -27 22 C-25 20.125 -25 20.125 -23 19 C-23.66 17.02 -24.32 15.04 -25 13 C-24.34 12.34 -23.68 11.68 -23 11 C-20.33333333 11 -17.66666667 11 -15 11 C-14.34 10.34 -13.68 9.68 -13 9 C-10.97955123 8.23323689 -8.93374458 7.53204614 -6.875 6.875 C-5.77929688 6.52179687 -4.68359375 6.16859375 -3.5546875 5.8046875 C-2.71164063 5.53914063 -1.86859375 5.27359375 -1 5 C-0.67 3.35 -0.34 1.7 0 0 Z " fill="#AEAEAE" transform="translate(31,32)"/>
	

	<path d="M0 0 C0.78730317 9.01024744 0.78730317 9.01024744 -2.1875 12.75 C-3.5796875 13.86375 -3.5796875 13.86375 -5 15 C-13.41080037 23.00051743 -14.4659441 35.97901947 -16 47 C-14.68 47.99 -13.36 48.98 -12 50 C-12.33 51.32 -12.66 52.64 -13 54 C-13.61488281 54.04898438 -14.22976562 54.09796875 -14.86328125 54.1484375 C-15.67152344 54.22320312 -16.47976562 54.29796875 -17.3125 54.375 C-18.11300781 54.44460937 -18.91351563 54.51421875 -19.73828125 54.5859375 C-22.27224441 54.89564426 -22.27224441 54.89564426 -25 57 C-28.03125 57.265625 -28.03125 57.265625 -31.5 57.25 C-32.6446875 57.25515625 -33.789375 57.2603125 -34.96875 57.265625 C-38 57 -38 57 -41 55 C-40.34 53.68 -39.68 52.36 -39 51 C-36.36 51.33 -33.72 51.66 -31 52 C-30.67 51.01 -30.34 50.02 -30 49 C-32.475 49.495 -32.475 49.495 -35 50 C-35.5625 48.0625 -35.5625 48.0625 -36 46 C-35 45 -35 45 -32.4375 44.9375 C-31.633125 44.958125 -30.82875 44.97875 -30 45 C-30.33 44.2575 -30.66 43.515 -31 42.75 C-32 40 -32 40 -32 36 C-30.68 35.34 -29.36 34.68 -28 34 C-27.67 35.98 -27.34 37.96 -27 40 C-25.35 40 -23.7 40 -22 40 C-21.79503906 39.37351563 -21.59007813 38.74703125 -21.37890625 38.1015625 C-21.10949219 37.28429688 -20.84007813 36.46703125 -20.5625 35.625 C-20.29566406 34.81289063 -20.02882813 34.00078125 -19.75390625 33.1640625 C-19 31 -19 31 -18 29 C-17.92274432 27.64659497 -17.86267331 26.29217939 -17.8125 24.9375 C-17.25606503 19.30017527 -14.62096166 15.26048473 -11 11 C-10.01 10.34 -9.02 9.68 -8 9 C-7.26393501 5.43230448 -7.26393501 5.43230448 -7 2 C-9.95857409 1.94620774 -12.91617721 1.90642907 -15.875 1.875 C-16.71675781 1.85824219 -17.55851562 1.84148438 -18.42578125 1.82421875 C-19.23144531 1.81777344 -20.03710938 1.81132812 -20.8671875 1.8046875 C-21.61081543 1.79421387 -22.35444336 1.78374023 -23.12060547 1.77294922 C-25.24490235 1.8334403 -25.24490235 1.8334403 -27 4 C-24.69 4.66 -22.38 5.32 -20 6 C-20 9.63 -20 13.26 -20 17 C-23.61610429 18.80805214 -25.97814535 19.31588262 -29.9140625 19.7109375 C-32.30076366 19.98578164 -32.30076366 19.98578164 -35.6875 21.125 C-39.09303264 22.02457466 -40.76017964 22.34992515 -44 21 C-45.875 18.75 -45.875 18.75 -47 16 C-46.38523164 9.93294172 -42.96431179 5.45306256 -39 1 C-36.44422056 -0.85133909 -34.08638577 -1.43971714 -31 -2 C-29.83597656 -2.21140625 -28.67195313 -2.4228125 -27.47265625 -2.640625 C-17.23618952 -4.23591852 -9.35029087 -4.57567425 0 0 Z " fill="#ACACAC" transform="translate(128,23)"/>
	

	<path d="M0 0 C0.495 0.99 0.495 0.99 1 2 C0.57847656 2.4846875 0.15695313 2.969375 -0.27734375 3.46875 C-4.29937137 8.38981909 -5.77284549 11.6396736 -6 18 C-5.34 18 -4.68 18 -4 18 C-3.79375 17.175 -3.5875 16.35 -3.375 15.5 C-1.48729052 10.69492133 1.05091233 5.41435837 5.9140625 3.08203125 C7.8125 2.5625 7.8125 2.5625 11 2 C11.33 1.67 11.66 1.34 12 1 C15.6070568 0.41109277 18.04156922 0.41306717 21.20703125 2.3515625 C24.58159141 5.11201352 26.68197916 7.08127314 28.125 11.25 C28 14 28 14 26 17 C25.505 16.67 25.01 16.34 24.5 16 C20.90909106 14.56363642 17.85543873 14.87148538 14 15 C14 15.66 14 16.32 14 17 C12.948125 17.556875 11.89625 18.11375 10.8125 18.6875 C7.30572968 20.70247891 4.6907439 22.94564205 2 26 C1.2575 26.804375 0.515 27.60875 -0.25 28.4375 C-2.59932492 33.2200543 -2.62754778 37.5790676 -2.82421875 42.85546875 C-3 46 -3 46 -4 49 C-3.278125 49.20625 -2.55625 49.4125 -1.8125 49.625 C1.97218384 51.47528988 3.52258653 53.60240438 6 57 C6 57.66 6 58.32 6 59 C1.25 57.125 1.25 57.125 -1 56 C-3.71262116 55.7677354 -6.40773126 55.58063765 -9.125 55.4375 C-9.87910156 55.39431641 -10.63320313 55.35113281 -11.41015625 55.30664062 C-13.27321888 55.2005168 -15.13658524 55.09974999 -17 55 C-17.07560786 50.7892236 -16.99308729 47.77637593 -15 44 C-14.01 43.34 -13.02 42.68 -12 42 C-12 41.01 -12 40.02 -12 39 C-12.99 39 -13.98 39 -15 39 C-15.33 39.99 -15.66 40.98 -16 42 C-17.485 41.505 -17.485 41.505 -19 41 C-18.34 39.68 -17.68 38.36 -17 37 C-16.34 37 -15.68 37 -15 37 C-14.814375 36.4225 -14.62875 35.845 -14.4375 35.25 C-12.29448878 31.89572157 -9.51177437 30.82092004 -6 29 C-6 26.03 -6 23.06 -6 20 C-6.66 19.67 -7.32 19.34 -8 19 C-8 20.65 -8 22.3 -8 24 C-16.2596401 27.70694087 -16.2596401 27.70694087 -20 29.1875 C-21.96396038 29.83430303 -21.96396038 29.83430303 -23 31 C-25.67058851 31.14115161 -28.32432238 31.04247107 -31 31 C-31.33 31.66 -31.66 32.32 -32 33 C-31.10636395 35.60931266 -31.10636395 35.60931266 -30 38 C-30.66128906 38.37125 -31.32257812 38.7425 -32.00390625 39.125 C-34.30788768 40.86675584 -34.30788768 40.86675584 -34.21484375 43.8125 C-34.02992821 45.93772646 -33.84242738 48.06272955 -33.65234375 50.1875 C-33.76707031 51.115625 -33.88179687 52.04375 -34 53 C-36.50390625 54.875 -36.50390625 54.875 -39 56 C-39 55.34 -39 54.68 -39 54 C-38.01 53.505 -38.01 53.505 -37 53 C-37.33 48.71 -37.66 44.42 -38 40 C-36.68 39.34 -35.36 38.68 -34 38 C-34.33 35.69 -34.66 33.38 -35 31 C-31.7162062 28.51227742 -30.38801417 27.96819556 -26.1875 28.3125 C-24.6096875 28.6528125 -24.6096875 28.6528125 -23 29 C-22.67 28.01 -22.34 27.02 -22 26 C-20.88625 25.71125 -19.7725 25.4225 -18.625 25.125 C-14.92011485 24.36117256 -14.92011485 24.36117256 -13.25 21.6875 C-12.8375 20.800625 -12.425 19.91375 -12 19 C-11.2575 17.824375 -11.2575 17.824375 -10.5 16.625 C-8.87590828 13.90505103 -8.87590828 13.90505103 -7.5 10.4375 C-6.22956158 7.52607863 -5.13807774 5.32399755 -3 3 C-2.34 3 -1.68 3 -1 3 C-0.67 2.01 -0.34 1.02 0 0 Z " fill="#D3D3D3" transform="translate(39,13)"/>
	

	<path d="M0 0 C-0.66666667 1.33333333 -1.33333333 2.66666667 -2 4 C-2.309375 4.680625 -2.61875 5.36125 -2.9375 6.0625 C-4 8 -4 8 -5.6875 9.3125 C-6.120625 9.869375 -6.55375 10.42625 -7 11 C-6.7525 12.670625 -6.7525 12.670625 -6.5 14.375 C-5.91047861 18.6490301 -6.81687296 19.48801302 -9 23 C-8.3498008 25.21734114 -8.3498008 25.21734114 -7 27 C-6.505 27.99 -6.505 27.99 -6 29 C-5.36578125 29.2784375 -4.7315625 29.556875 -4.078125 29.84375 C-1.3973971 31.33528281 -0.89833069 32.69296941 0.25 35.5 C0.58515625 36.2940625 0.9203125 37.088125 1.265625 37.90625 C2 40 2 40 2 42 C3.8253125 41.938125 3.8253125 41.938125 5.6875 41.875 C9.21894127 41.86245492 11.80003566 42.40001783 15 44 C15 44.99 15 45.98 15 47 C4.44191344 48.33257403 4.44191344 48.33257403 0 47 C-1.21081851 50.10540926 -1.21081851 50.10540926 -1 54 C-4.80173548 55.90086774 -9.45514935 55.47533866 -13.4375 54.25 C-15.42807655 52.65753876 -15.48972162 51.43744624 -16 49 C-24.58593095 48.00110608 -33.14455225 47.69319843 -41.78125 47.48242188 C-42.8125 47.44826172 -43.84375 47.41410156 -44.90625 47.37890625 C-46.30327148 47.34132202 -46.30327148 47.34132202 -47.72851562 47.30297852 C-50 47 -50 47 -52 45 C-48.65905748 41.65905748 -37.65083843 42.24169432 -33 42 C-27.31320885 42.01765399 -21.65901207 42.46991532 -16 43 C-16 41.68 -16 40.36 -16 39 C-18.64 38.67 -21.28 38.34 -24 38 C-23.67 37.34 -23.34 36.68 -23 36 C-19.26319312 34.86131636 -15.53092843 34.40818919 -11.84765625 35.83203125 C-9.9375 36.9375 -9.9375 36.9375 -7 39 C-7.825 38.05125 -8.65 37.1025 -9.5 36.125 C-12 33.25 -12 33.25 -12 31 C-14.475 30.01 -14.475 30.01 -17 29 C-17.39548745 18.47563945 -16.57420529 11.28893123 -9.94921875 2.84765625 C-6.69404719 -0.23790717 -4.3194796 -1.43982653 0 0 Z " fill="#ACACAC" transform="translate(52,33)"/>
	

	<path d="M0 0 C1.40680227 2.81360454 0.54257361 4.08319657 -0.3984375 7.05078125 C-0.87023437 8.56381836 -0.87023437 8.56381836 -1.3515625 10.10742188 C-1.68929687 11.16509766 -2.02703125 12.22277344 -2.375 13.3125 C-3.03077531 15.39125651 -3.68449379 17.47066323 -4.3359375 19.55078125 C-4.77752197 20.93777222 -4.77752197 20.93777222 -5.22802734 22.3527832 C-5.96763292 24.88900814 -6.52371689 27.40275949 -7 30 C-5.68 30.66 -4.36 31.32 -3 32 C-2.875 34.375 -2.875 34.375 -3 37 C-3.99 37.99 -3.99 37.99 -5 39 C-7.0095466 39 -9.02138222 38.99498275 -11.02734375 38.875 C-13.32561553 38.8552643 -13.32561553 38.8552643 -16 41 C-17.99291992 41.31884766 -17.99291992 41.31884766 -20.23046875 41.4140625 C-21.03291016 41.45273438 -21.83535156 41.49140625 -22.66210938 41.53125 C-23.49548828 41.5621875 -24.32886719 41.593125 -25.1875 41.625 C-26.4549707 41.68300781 -26.4549707 41.68300781 -27.74804688 41.7421875 C-29.83167524 41.83636279 -31.91580753 41.91926675 -34 42 C-34.27585937 42.79792969 -34.55171875 43.59585938 -34.8359375 44.41796875 C-36 47 -36 47 -38.625 48.3125 C-42.98726868 49.20111029 -47.88674146 50.05662927 -52 48 C-52.33 47.01 -52.66 46.02 -53 45 C-53.67546875 44.86722656 -54.3509375 44.73445313 -55.046875 44.59765625 C-55.93890625 44.42105469 -56.8309375 44.24445313 -57.75 44.0625 C-58.63171875 43.88847656 -59.5134375 43.71445313 -60.421875 43.53515625 C-62.63235053 43.07631512 -64.81512068 42.56663926 -67 42 C-66.505 44.475 -66.505 44.475 -66 47 C-73.62616822 51.78504673 -73.62616822 51.78504673 -78 51 C-81.73192273 49.60967585 -83.53702433 48.90490699 -85.375 45.3125 C-85.58125 44.549375 -85.7875 43.78625 -86 43 C-93.53541349 42.14010613 -101.04782423 41.71830664 -108.625 41.4375 C-109.72457031 41.39431641 -110.82414062 41.35113281 -111.95703125 41.30664062 C-114.63792882 41.20173594 -117.31890001 41.09957274 -120 41 C-120 40.34 -120 39.68 -120 39 C-115.87480376 39.14058032 -111.74989764 39.28843412 -107.625 39.4375 C-106.46871094 39.47681641 -105.31242187 39.51613281 -104.12109375 39.55664062 C-97.37909185 39.80422827 -90.70209838 40.21946125 -84 41 C-83.731875 41.804375 -83.46375 42.60875 -83.1875 43.4375 C-82.5996875 44.7059375 -82.5996875 44.7059375 -82 46 C-78.98509443 47.00496852 -76.95818308 47.10335303 -73.8125 47.0625 C-72.91144531 47.05347656 -72.01039062 47.04445312 -71.08203125 47.03515625 C-70.39496094 47.02355469 -69.70789063 47.01195312 -69 47 C-69.20625 46.05125 -69.4125 45.1025 -69.625 44.125 C-69.74875 43.09375 -69.8725 42.0625 -70 41 C-69.34 40.34 -68.68 39.68 -68 39 C-65.38419521 39.3269756 -63.35921863 39.82039068 -61 41 C-56.91471603 41.71729187 -56.91471603 41.71729187 -53 41 C-49.64989284 37.8289062 -47.06109423 34.12218846 -45 30 C-43.125 30.3125 -43.125 30.3125 -41 31 C-40.01 32.485 -40.01 32.485 -39 34 C-39.90477737 35.46573934 -40.82434141 36.92235756 -41.75 38.375 C-42.51570313 39.59316406 -42.51570313 39.59316406 -43.296875 40.8359375 C-45.0673335 43.08555679 -46.36907419 43.95906848 -49 45 C-49 45.66 -49 46.32 -49 47 C-41.65825635 46.25753931 -41.65825635 46.25753931 -36.1875 41.8125 C-34.69201898 38.96732236 -34.69201898 38.96732236 -35.5625 35.5625 C-36.13518955 30.89917078 -34.58078606 29.8295535 -32 26 C-30.67730411 22.34778 -29.55703893 18.6692901 -28.44140625 14.94921875 C-27 12 -27 12 -24.46484375 10.95703125 C-22 11 -22 11 -20 13 C-20 14.32 -20 15.64 -20 17 C-22 18.75 -22 18.75 -24 20 C-23.505 20.86625 -23.505 20.86625 -23 21.75 C-22 24 -22 24 -22 28 C-23.65 28.33 -25.3 28.66 -27 29 C-27 29.99 -27 30.98 -27 32 C-25.35 32 -23.7 32 -22 32 C-22.33 33.32 -22.66 34.64 -23 36 C-25.64 35.67 -28.28 35.34 -31 35 C-31.33 35.99 -31.66 36.98 -32 38 C-22.63114147 39.78856553 -22.63114147 39.78856553 -14 37 C-11.73828125 36.8046875 -11.73828125 36.8046875 -9.3125 36.875 C-8.50425781 36.89304688 -7.69601563 36.91109375 -6.86328125 36.9296875 C-6.24839844 36.95289063 -5.63351563 36.97609375 -5 37 C-5.27034634 34.56282742 -5.27034634 34.56282742 -6 32 C-6.99 31.34 -7.98 30.68 -9 30 C-4.30964467 4.30964467 -4.30964467 4.30964467 0 0 Z " fill="#D3D3D3" transform="translate(120,40)"/>
	

	<path d="M0 0 C4.32297456 1.02123555 7.35861027 4.2388285 10.19921875 7.51953125 C10.8937113 8.83858482 11.56556806 10.17019474 12.19921875 11.51953125 C12.73546875 12.03515625 13.27171875 12.55078125 13.82421875 13.08203125 C15.19921875 14.51953125 15.19921875 14.51953125 15.19921875 17.51953125 C16.14796875 17.78765625 17.09671875 18.05578125 18.07421875 18.33203125 C21.19921875 19.51953125 21.19921875 19.51953125 23.19921875 22.51953125 C18.44921875 23.64453125 18.44921875 23.64453125 16.19921875 22.51953125 C16.42738281 23.36257812 16.65554687 24.205625 16.890625 25.07421875 C17.17808594 26.16992188 17.46554688 27.265625 17.76171875 28.39453125 C18.19677734 30.03035156 18.19677734 30.03035156 18.640625 31.69921875 C19.19921875 34.51953125 19.19921875 34.51953125 18.19921875 36.51953125 C15.76171875 35.70703125 15.76171875 35.70703125 13.19921875 34.51953125 C12.86921875 33.52953125 12.53921875 32.53953125 12.19921875 31.51953125 C10.92046875 31.72578125 9.64171875 31.93203125 8.32421875 32.14453125 C6.14453125 32.49609375 6.14453125 32.49609375 4.19921875 32.51953125 C3.53921875 31.85953125 2.87921875 31.19953125 2.19921875 30.51953125 C2.33203125 28.49609375 2.33203125 28.49609375 3.19921875 26.51953125 C4.94140625 25.54296875 4.94140625 25.54296875 7.07421875 24.89453125 C9.93958222 23.99580101 11.62526954 23.23549739 14.19921875 21.51953125 C13.62337443 19.13389048 12.9769428 16.85270341 12.19921875 14.51953125 C11.47734375 14.23078125 10.75546875 13.94203125 10.01171875 13.64453125 C7.19921875 12.51953125 7.19921875 12.51953125 4.32421875 9.89453125 C0.57615266 7.04600102 -1.19951628 6.91181701 -5.80078125 7.51953125 C-6.79078125 8.17953125 -7.78078125 8.83953125 -8.80078125 9.51953125 C-9.7753125 9.76445312 -10.74984375 10.009375 -11.75390625 10.26171875 C-15.77386535 11.92124033 -16.58440718 13.82904395 -18.55078125 17.64453125 C-19.58696471 19.6282158 -20.65887141 21.59476569 -21.80078125 23.51953125 C-22.46078125 23.51953125 -23.12078125 23.51953125 -23.80078125 23.51953125 C-25.14073905 20.4741726 -24.72741331 19.30715038 -23.61328125 16.08203125 C-21.9426874 12.79845023 -20.19266805 10.29720624 -17.80078125 7.51953125 C-17.14078125 6.52953125 -16.48078125 5.53953125 -15.80078125 4.51953125 C-13.48230251 3.80291055 -11.14758422 3.13711098 -8.80078125 2.51953125 C-5.68451082 0.44201763 -3.72657784 -0.07577145 0 0 Z " fill="#ACACAC" transform="translate(56.80078125,7.48046875)"/>
	

	<path d="M0 0 C1.10601562 -0.00580078 1.10601562 -0.00580078 2.234375 -0.01171875 C7.7466804 -0.0016598 7.7466804 -0.0016598 10 1.125 C10.3125 4.375 10.3125 4.375 10 8.125 C7.75 10.125 7.75 10.125 5 12.125 C1.6579852 16.85952096 0.53573917 20.33873821 0.2734375 26.109375 C0 28.125 0 28.125 -2 31.125 C-2.66158043 33.17084079 -2.66158043 33.17084079 -3.125 35.3125 C-3.41375 36.570625 -3.7025 37.82875 -4 39.125 C-5.88671875 39.6953125 -5.88671875 39.6953125 -8 40.125 C-9.8125 39 -9.8125 39 -11 37.125 C-10.8125 34.5 -10.8125 34.5 -10 32.125 C-9.34 31.795 -8.68 31.465 -8 31.125 C-8.11341534 28.71622743 -8.11341534 28.71622743 -9 26.125 C-11.46115547 24.28065651 -11.46115547 24.28065651 -14 23.125 C-13 20.125 -13 20.125 -10.93359375 18.95703125 C-10.10988281 18.62058594 -9.28617187 18.28414062 -8.4375 17.9375 C-7.61121094 17.59332031 -6.78492187 17.24914062 -5.93359375 16.89453125 C-5.29550781 16.64058594 -4.65742187 16.38664062 -4 16.125 C-4.020625 14.866875 -4.04125 13.60875 -4.0625 12.3125 C-4.10886083 9.48448913 -3.91692961 7.87578884 -3 5.125 C-5.31 4.795 -7.62 4.465 -10 4.125 C-10 3.135 -10 2.145 -10 1.125 C-6.84150315 -0.45424842 -3.4634872 -0.01816514 0 0 Z " fill="#D5D5D5" transform="translate(111,23.875)"/>
	

	<path d="M0 0 C4.5236783 2.70506824 7.28738641 6.27320014 10.0625 10.6875 C12.51238301 14.56158166 14.46779262 16.62063254 19 18 C22.32965615 17.47646916 25.04944866 16.02350475 28.0625 14.5625 C38.34675837 10.25746161 50.4553032 8.30606828 61.1875 11.875 C62.80822692 12.54457528 64.42096961 13.23727474 66 14 C66 14.66 66 15.32 66 16 C63.39572552 15.55355295 61.16569546 15.07792321 58.765625 13.94921875 C50.19432259 11.00737343 37.2371987 13.84088417 29 17 C24.63261288 20.38695328 21.71148435 24.39122404 20.25 29.75 C20.1675 30.4925 20.085 31.235 20 32 C20.33 32.33 20.66 32.66 21 33 C21.04063832 34.66617115 21.042721 36.33388095 21 38 C19.35 38 17.7 38 16 38 C15.505 36.02 15.505 36.02 15 34 C14.34 34 13.68 34 13 34 C12.34 30.37 11.68 26.74 11 23 C12.98 23 14.96 23 17 23 C15.31835184 19.81868482 15.31835184 19.81868482 12.4375 19.125 C11.633125 18.75375 10.82875 18.3825 10 18 C9.1875 15.375 9.1875 15.375 9 13 C8.01 12.67 7.02 12.34 6 12 C4.66666667 10 3.33333333 8 2 6 C-0.8995326 2.93938226 -2.91034509 1.73967915 -7.0625 1.5625 C-11.1608045 2.01786717 -11.96013939 2.54849951 -15 5 C-18.75 5.6875 -18.75 5.6875 -22 6 C-22 5.34 -22 4.68 -22 4 C-20.3970947 3.18501438 -18.79262722 2.37310073 -17.1875 1.5625 C-16.29417969 1.11003906 -15.40085937 0.65757812 -14.48046875 0.19140625 C-9.05630281 -2.4139018 -5.56223842 -2.00574875 0 0 Z " fill="#B6B6B6" transform="translate(62,7)"/>
	

	<path d="M0 0 C4.32273157 2.69880736 7.44035544 5.38324906 9.125 10.25 C9 13 9 13 7 16 C6.505 15.67 6.01 15.34 5.5 15 C1.90909106 13.56363642 -1.14456127 13.87148538 -5 14 C-5 14.66 -5 15.32 -5 16 C-8.52994613 17.17664871 -11.29455413 17.19850603 -15 17 C-15.99 16.34 -16.98 15.68 -18 15 C-17.48972699 10.61165213 -16.75967595 7.49558954 -14 4 C-9.3050976 0.65939637 -5.88436167 -1.13557857 0 0 Z " fill="#FDFDFC" transform="translate(58,14)"/>
	

	<path d="M0 0 C0.6875 2.25 0.6875 2.25 1 5 C-0.4375 7.3125 -0.4375 7.3125 -2 9 C0.2147732 10.30545686 0.2147732 10.30545686 3.9375 9.875 C7.74128766 9.80596574 7.74128766 9.80596574 10 11.5 C10.33 11.995 10.66 12.49 11 13 C10.48828125 14.85546875 10.48828125 14.85546875 9 17 C6.33446404 17.98515369 3.93590256 18.69820878 1.1875 19.3125 C0.11918945 19.58416992 0.11918945 19.58416992 -0.97070312 19.86132812 C-4.92243684 20.80082448 -8.12165964 21.3743284 -12 20 C-14.07089396 17.51492725 -14.97463716 15.93842493 -15.0625 12.6875 C-13.07739335 7.66634788 -10.07392373 3.15753883 -5.3125 0.5 C-3 0 -3 0 0 0 Z " fill="#828282" transform="translate(96,24)"/>
	

	<path d="M0 0 C6.17455123 -0.55129922 9.05639688 0.2906907 14.1015625 3.8203125 C16.64680152 5.40192193 19.04044782 5.77803359 22 6 C21.61094382 8.72339328 20.93262433 10.08903214 19.25 12.3125 C17 14 17 14 14.625 13.875 C12.83384921 13.27794974 11.05599834 12.63982915 9.29199219 11.96679688 C5.63293044 10.8921985 2.51300589 10.71301165 -1.296875 10.65625 C-1.97171936 10.6416272 -2.64656372 10.62700439 -3.34185791 10.61193848 C-6.205748 10.55006047 -9.069837 10.50988388 -11.93408203 10.46826172 C-14.03441209 10.43460714 -16.13427966 10.38951525 -18.234375 10.34375 C-19.48444336 10.32505859 -20.73451172 10.30636719 -22.02246094 10.28710938 C-25 10 -25 10 -27 8 C-15.43571927 6.24871343 -4.64666849 5.92133483 7 7 C7 5.68 7 4.36 7 3 C4.36 2.67 1.72 2.34 -1 2 C-0.67 1.34 -0.34 0.68 0 0 Z " fill="#828282" transform="translate(29,69)"/>
	

	<path d="M0 0 C0.66 0 1.32 0 2 0 C2.33 1.98 2.66 3.96 3 6 C6.71599191 6.20086443 7.77208445 6.1519437 11 4 C10.375 5.9375 10.375 5.9375 9 8 C5.875 8.75 5.875 8.75 3 9 C3 12.96 3 16.92 3 21 C3.99 21 4.98 21 6 21 C6 20.34 6 19.68 6 19 C9.153368 18.29925156 11.72724974 18 15 18 C15 17.34 15 16.68 15 16 C14.01 15.34 13.02 14.68 12 14 C12.33 12.35 12.66 10.7 13 9 C13.12375 9.8971875 13.12375 9.8971875 13.25 10.8125 C14.20455872 13.5966296 15.57132271 14.43311142 18 16 C17.67 17.32 17.34 18.64 17 20 C16.07767578 20.07347656 16.07767578 20.07347656 15.13671875 20.1484375 C14.32847656 20.22320312 13.52023438 20.29796875 12.6875 20.375 C11.88699219 20.44460937 11.08648437 20.51421875 10.26171875 20.5859375 C7.72775559 20.89564426 7.72775559 20.89564426 5 23 C1.96875 23.265625 1.96875 23.265625 -1.5 23.25 C-2.6446875 23.25515625 -3.789375 23.2603125 -4.96875 23.265625 C-8 23 -8 23 -11 21 C-10.34 19.68 -9.68 18.36 -9 17 C-6.36 17.33 -3.72 17.66 -1 18 C-0.67 17.01 -0.34 16.02 0 15 C-1.65 15.33 -3.3 15.66 -5 16 C-5.5625 14.0625 -5.5625 14.0625 -6 12 C-5 11 -5 11 -2.4375 10.9375 C-1.633125 10.958125 -0.82875 10.97875 0 11 C-0.33 10.2575 -0.66 9.515 -1 8.75 C-2 6 -2 6 -2 2 C-1.34 1.34 -0.68 0.68 0 0 Z " fill="#ABABAB" transform="translate(98,57)"/>
	

	<path d="M0 0 C0.99 0.33 1.98 0.66 3 1 C3.33 2.65 3.66 4.3 4 6 C4.94875 6.268125 5.8975 6.53625 6.875 6.8125 C10 8 10 8 12 11 C7.25 12.125 7.25 12.125 5 11 C5.22816406 11.84304687 5.45632812 12.68609375 5.69140625 13.5546875 C5.97886719 14.65039062 6.26632813 15.74609375 6.5625 16.875 C6.99755859 18.51082031 6.99755859 18.51082031 7.44140625 20.1796875 C8 23 8 23 7 25 C4.5625 24.1875 4.5625 24.1875 2 23 C1.67 22.01 1.34 21.02 1 20 C-0.27875 20.20625 -1.5575 20.4125 -2.875 20.625 C-5.0546875 20.9765625 -5.0546875 20.9765625 -7 21 C-7.66 20.34 -8.32 19.68 -9 19 C-8.8671875 16.9765625 -8.8671875 16.9765625 -8 15 C-6.2578125 14.0234375 -6.2578125 14.0234375 -4.125 13.375 C-1.25963653 12.47626976 0.42605079 11.71596614 3 10 C2.38722388 7.03824877 1.74627478 5.61941217 0 3 C0 2.01 0 1.02 0 0 Z " fill="#828282" transform="translate(68,19)"/>
	

	<path d="M0 0 C0.66 0 1.32 0 2 0 C1.37321829 3.66172475 0.35548154 6.8818995 -1.0625 10.3125 C-1.42472656 11.19550781 -1.78695312 12.07851562 -2.16015625 12.98828125 C-2.57587891 13.98408203 -2.57587891 13.98408203 -3 15 C-10.03905044 15.93854006 -16.90272572 16.10808032 -24 16 C-24.33 14.02 -24.66 12.04 -25 10 C-22.83125748 10.50603992 -21.00032373 10.99983813 -19 12 C-15.31870948 12.16005611 -12.61313663 11.90328416 -9 11 C-8.34 8.36 -7.68 5.72 -7 3 C-6.21625 3.061875 -5.4325 3.12375 -4.625 3.1875 C-3.75875 3.125625 -2.8925 3.06375 -2 3 C-1.34 2.01 -0.68 1.02 0 0 Z " fill="#FDFDFC" transform="translate(77,52)"/>
	

	<path d="M0 0 C0.33 0 0.66 0 1 0 C0.96519531 0.84304687 0.93039063 1.68609375 0.89453125 2.5546875 C0.86746094 3.65039062 0.84039062 4.74609375 0.8125 5.875 C0.77769531 6.96554688 0.74289063 8.05609375 0.70703125 9.1796875 C0.80371094 10.11039063 0.90039062 11.04109375 1 12 C1.99 12.66 2.98 13.32 4 14 C3.67 14.99 3.34 15.98 3 17 C0.03 17 -2.94 17 -6 17 C-6 17.66 -6 18.32 -6 19 C-6.99 19.33 -7.98 19.66 -9 20 C-9.8723412 17.00519083 -10.10829766 14.36424089 -10.0625 11.25 C-10.05347656 10.45078125 -10.04445313 9.6515625 -10.03515625 8.828125 C-10.02355469 8.22484375 -10.01195313 7.6215625 -10 7 C-9.44570312 6.82984375 -8.89140625 6.6596875 -8.3203125 6.484375 C-3.74877023 5.09174014 -3.74877023 5.09174014 -0.5 1.8125 C-0.335 1.214375 -0.17 0.61625 0 0 Z " fill="#828282" transform="translate(110,59)"/>
	

	<path d="M0 0 C-0.44828218 2.61497941 -0.96776444 4.92344056 -2 7.375 C-3.12867636 10.03889782 -3.12867636 10.03889782 -3.43359375 13.19921875 C-4.01248293 17.08376475 -4.95114287 20.67322586 -6.0625 24.4375 C-6.42472656 25.67371094 -6.78695312 26.90992188 -7.16015625 28.18359375 C-7.43730469 29.11300781 -7.71445313 30.04242188 -8 31 C-8.33 31 -8.66 31 -9 31 C-9.33 29.02 -9.66 27.04 -10 25 C-10.66 25.33 -11.32 25.66 -12 26 C-12.25 20.375 -12.25 20.375 -10 17 C-9.8038757 14.98424441 -9.8038757 14.98424441 -9.8125 12.8125 C-9.39426652 7.90629962 -5.67033608 0 0 0 Z " fill="#AAAAAA" transform="translate(120,35)"/>
	

	<path d="M0 0 C0.09796875 1.10859375 0.1959375 2.2171875 0.296875 3.359375 C0.4469916 4.82301184 0.59808465 6.28654876 0.75 7.75 C0.811875 8.47960938 0.87375 9.20921875 0.9375 9.9609375 C1.50709824 15.18225472 2.04667883 16.04667883 6 20 C1.05 19.67 -3.9 19.34 -9 19 C-6.125 10.125 -6.125 10.125 -5 9 C-4.72046781 6.9412232 -4.55265649 4.88271568 -4.37890625 2.8125 C-4.19134766 1.9153125 -4.19134766 1.9153125 -4 1 C-2 0 -2 0 0 0 Z " fill="#FBFBFA" transform="translate(33,47)"/>
	

	<path d="M0 0 C1.67542976 0.28604898 3.34385343 0.61781233 5 1 C5.33 2.65 5.66 4.3 6 6 C4.68 6.99 3.36 7.98 2 9 C2.33 9.5775 2.66 10.155 3 10.75 C4 13 4 13 4 17 C1.36 17 -1.28 17 -4 17 C-5.91235111 10.94422147 -3.64370135 6.44110626 -1 1 C-0.67 0.67 -0.34 0.34 0 0 Z " fill="#D3D3D3" transform="translate(94,51)"/>
	

	<path d="M0 0 C0 0.66 0 1.32 0 2 C-2.60427448 1.55355295 -4.83430454 1.07792321 -7.234375 -0.05078125 C-17.38739891 -3.53550556 -32.56819098 0.62877954 -42 5 C-42.99 5.99 -43.98 6.98 -45 8 C-47.97 6.35 -50.94 4.7 -54 3 C-54 2.01 -54 1.02 -54 0 C-51.4609375 1.61132812 -51.4609375 1.61132812 -48.921875 3.22265625 C-46.43877381 4.22700002 -45.49560559 3.92016742 -43 3 C-41.22363739 2.1996608 -39.453422 1.38561994 -37.6875 0.5625 C-24.88862654 -4.84216505 -12.71468217 -5.22210161 0 0 Z " fill="#D3D3D3" transform="translate(128,21)"/>
	

	

	<path d="M0 0 C4.30474289 1.01512554 7.4644597 4.15937333 10.203125 7.51953125 C10.92578125 9.75390625 10.92578125 9.75390625 11.203125 11.51953125 C8.66278213 10.39048998 7.10267811 9.41604051 5.140625 7.39453125 C0.79461576 4.6204828 -3.76145178 4.65431147 -8.796875 5.51953125 C-9.81551518 6.50053695 -10.81737445 7.49944367 -11.796875 8.51953125 C-13.116875 8.51953125 -14.436875 8.51953125 -15.796875 8.51953125 C-15.109375 6.64453125 -15.109375 6.64453125 -13.796875 4.51953125 C-11.359375 3.39453125 -11.359375 3.39453125 -8.796875 2.51953125 C-5.68198016 0.44293469 -3.72516265 -0.07588294 0 0 Z " fill="#828282" transform="translate(56.796875,7.48046875)"/>
	

	<path d="M0 0 C2.00720923 0.28674418 4.0085944 0.61866701 6 1 C6.8125 2.6875 6.8125 2.6875 7 5 C4.6875 7.5 4.6875 7.5 2 10 C1.62875 10.7425 1.2575 11.485 0.875 12.25 C0.58625 12.8275 0.2975 13.405 0 14 C-0.99 14.33 -1.98 14.66 -3 15 C-4.32963547 9.07707836 -3.71156055 6.21453952 -1 1 C-0.67 0.67 -0.34 0.34 0 0 Z " fill="#FDFDFC" transform="translate(113,25)"/>
	

	<path d="M0 0 C2.625 -0.1875 2.625 -0.1875 5 0 C5.04254356 1.99954746 5.04080783 4.00041636 5 6 C2.64072311 8.35927689 -2.49909392 7.98835102 -5.6875 8.0625 C-8.12582948 8.0625 -10.56209857 8.04414711 -13 8 C-11.2265625 4.09375 -11.2265625 4.09375 -9.1875 3.25 C-7 3 -7 3 -4.375 3.125 C-3.59125 3.08375 -2.8075 3.0425 -2 3 C-1.34 2.01 -0.68 1.02 0 0 Z " fill="#828282" transform="translate(15,64)"/>
	

	

	<path d="M0 0 C-0.50740462 4.39750672 -3.08293314 6.86948922 -6 10 C-6.66 10 -7.32 10 -8 10 C-8.3403125 9.0409375 -8.3403125 9.0409375 -8.6875 8.0625 C-9.85250896 5.72806339 -9.85250896 5.72806339 -12.625 5.25 C-13.40875 5.1675 -14.1925 5.085 -15 5 C-15.33 4.01 -15.66 3.02 -16 2 C-14.01432292 2.06510417 -12.02864583 2.13020833 -10.04296875 2.1953125 C-6.18219327 1.82621351 -4.2363191 -0.22899022 0 0 Z " fill="#828282" transform="translate(24,43)"/>
	

	<path d="M0 0 C-1.07307179 3.04037008 -2.19241365 5.26032435 -4.125 7.875 C-6.34971986 11.58286643 -6.16018211 13.75517399 -6 18 C-6.66 18.99 -7.32 19.98 -8 21 C-8.99 20.67 -9.98 20.34 -11 20 C-10.15503146 12.31961428 -9.20508479 6.85572039 -4 1 C-2 0 -2 0 0 0 Z " fill="#828282" transform="translate(48,35)"/>
	

	<path d="M0 0 C1.65 0 3.3 0 5 0 C6.29243536 4.1196377 7.26252625 7.66831683 7 12 C5.35 12 3.7 12 2 12 C-0.60018816 8.09971775 -0.15085514 4.52565431 0 0 Z " fill="#D3D3D3" transform="translate(76,33)"/>
	

	<path d="M0 0 C6.71764341 0 10.31761674 2.96791546 15 7.5 C14.67 8.49 14.34 9.48 14 10.5 C13.43152344 9.9946875 12.86304687 9.489375 12.27734375 8.96875 C7.29803045 4.72653727 7.29803045 4.72653727 1.125 2.9375 C-2.15109658 3.31290638 -2.15109658 3.31290638 -5 5.5 C-5.99 5.5 -6.98 5.5 -8 5.5 C-5.78402658 0.92032159 -5.1811829 0.28784349 0 0 Z " fill="#C2C2C2" transform="translate(53,11.5)"/>
	

	<path d="M0 0 C-0.66666667 1.33333333 -1.33333333 2.66666667 -2 4 C-2.268125 4.66 -2.53625 5.32 -2.8125 6 C-4.40105645 8.6754635 -6.51650636 10.17005731 -9 12 C-7.66511872 8.40608886 -6.03977277 5.24509304 -4 2 C-5.94999129 2.19471111 -5.94999129 2.19471111 -8 3 C-9.18330183 4.86644906 -9.18330183 4.86644906 -10 7 C-10.99 8.485 -10.99 8.485 -12 10 C-12.66 10 -13.32 10 -14 10 C-12.0431531 5.59709448 -9.75581308 1.9421436 -5.4375 -0.375 C-3 -1 -3 -1 0 0 Z " fill="#ACACAC" transform="translate(52,33)"/>
	

	<path d="M0 0 C3.96790076 1.67872725 6.86931494 4.08277074 10 7 C10 7.99 10 8.98 10 10 C4.97307937 9.54300722 1.85103739 7.00758252 -2 4 C-1.34 2.68 -0.68 1.36 0 0 Z " fill="#828282" transform="translate(38,58)"/>
	

	<path d="M0 0 C0.66 0 1.32 0 2 0 C1.42365861 4.75481646 -0.55068521 7.97048212 -3 12 C-3.66 11.67 -4.32 11.34 -5 11 C-5.38613383 8.37428995 -5.38493778 6.6156121 -3.95703125 4.33203125 C-2.625 2.6875 -2.625 2.6875 0 0 Z " fill="#828282" transform="translate(118,35)"/>
	

	<path d="M0 0 C0 0.33 0 0.66 0 1 C-0.69867188 1.12117187 -1.39734375 1.24234375 -2.1171875 1.3671875 C-3.48230469 1.61855469 -3.48230469 1.61855469 -4.875 1.875 C-5.77992187 2.03742187 -6.68484375 2.19984375 -7.6171875 2.3671875 C-10.16505988 2.83044703 -10.16505988 2.83044703 -12 5 C-14.32275177 5.40047444 -16.65739357 5.7397104 -19 6 C-19 5.34 -19 4.68 -19 4 C-12.76335625 -0.53574091 -7.56198897 -0.44701413 0 0 Z " fill="#BCBCBC" transform="translate(59,7)"/>
	

	<path d="M0 0 C5.625 -0.25 5.625 -0.25 9 2 C9 2.99 9 3.98 9 5 C5.625 4.75 5.625 4.75 2 4 C0.5625 1.9375 0.5625 1.9375 0 0 Z " fill="#D3D3D3" transform="translate(10,57)"/>
	

	<path d="M0 0 C1.46726798 3.81489674 0.43336419 6.29011622 -1 10 C-1.66 10 -2.32 10 -3 10 C-3.75 7.25 -3.75 7.25 -4 4 C-2.0625 1.625 -2.0625 1.625 0 0 Z " fill="#FDFDFC" transform="translate(109,41)"/>
	

	<path d="M0 0 C3.3 0 6.6 0 10 0 C10 0.99 10 1.98 10 3 C7.03 3 4.06 3 1 3 C0.67 2.01 0.34 1.02 0 0 Z " fill="#828282" transform="translate(57,77)"/>
	

	

	<path d="M0 0 C0.66 0 1.32 0 2 0 C0.63029745 2.95012857 -0.82609125 5.5652222 -3 8 C-3.99 8 -4.98 8 -6 8 C-5.6875 6.0625 -5.6875 6.0625 -5 4 C-4.01 3.67 -3.02 3.34 -2 3 C-1.34 2.01 -0.68 1.02 0 0 Z " fill="#FDFDFC" transform="translate(76,74)"/>
	

	<path d="M0 0 C0.66 0.66 1.32 1.32 2 2 C1 5 1 5 -2 7 C-2.99 7 -3.98 7 -5 7 C-5 6.01 -5 5.02 -5 4 C-2.5 1.8125 -2.5 1.8125 0 0 Z " fill="#FDFDFC" transform="translate(61,52)"/>
	

	<path d="M0 0 C0.99 0.33 1.98 0.66 3 1 C2.67 2.32 2.34 3.64 2 5 C0.68 5.33 -0.64 5.66 -2 6 C-1.125 1.125 -1.125 1.125 0 0 Z " fill="#828282" transform="translate(81,76)"/>
	

	<path d="M0 0 C0.99 0 1.98 0 3 0 C3 1.65 3 3.3 3 5 C1.35 5 -0.3 5 -2 5 C-1.125 1.125 -1.125 1.125 0 0 Z " fill="#828282" transform="translate(125,25)"/>
	

	<path d="M0 0 C3.43595166 1.52708963 6.11912454 3.59927045 9 6 C8.67 6.99 8.34 7.98 8 9 C4.36905358 6.35039045 2.10148204 3.98175544 0 0 Z " fill="#B8B8B8" transform="translate(59,13)"/>
	

	<path d="M0 0 C1.9375 0.75 1.9375 0.75 4 2 C4.75 4.125 4.75 4.125 5 6 C3.35 5.67 1.7 5.34 0 5 C0 3.35 0 1.7 0 0 Z " fill="#828282" transform="translate(77,64)"/>
	

	<path d="M0 0 C0.66 0 1.32 0 2 0 C1.67 2.31 1.34 4.62 1 7 C3.475 7.99 3.475 7.99 6 9 C4.125 9.625 4.125 9.625 2 10 C0 8 0 8 -0.1953125 6.0546875 C-0.09765625 3.02734375 -0.09765625 3.02734375 0 0 Z " fill="#CBCBCB" transform="translate(34,55)"/>
	

	<path d="M0 0 C-0.66 1.65 -1.32 3.3 -2 5 C-3.32 4.67 -4.64 4.34 -6 4 C-5.67 3.01 -5.34 2.02 -5 1 C-3 0 -3 0 0 0 Z " fill="#ACACAC" transform="translate(61,48)"/>
	

	<path d="M0 0 C0.99 0 1.98 0 3 0 C2.67 1.32 2.34 2.64 2 4 C0.35 4.33 -1.3 4.66 -3 5 C-1.125 1.125 -1.125 1.125 0 0 Z " fill="#FDFDFC" transform="translate(57,42)"/>
	

	<path d="M0 0 C0.33 0 0.66 0 1 0 C3 6.625 3 6.625 3 10 C-0.91941982 6.69298952 -0.91941982 6.69298952 -1.3125 3.3125 C-1 1 -1 1 0 0 Z " fill="#FDFDFC" transform="translate(78,34)"/>
	

	<path d="M0 0 C-0.8125 1.9375 -0.8125 1.9375 -2 4 C-2.99 4.33 -3.98 4.66 -5 5 C-5.33 4.01 -5.66 3.02 -6 2 C-3 0 -3 0 0 0 Z " fill="#ACACAC" transform="translate(55,40)"/>
	

	<path d="M0 0 C2.125 0.375 2.125 0.375 4 1 C1.66666667 3.33333333 -0.66666667 5.66666667 -3 8 C-2.25 2.25 -2.25 2.25 0 0 Z " fill="#D3D3D3" transform="translate(124,32)"/>
	

	<path d="M0 0 C1.65 0.33 3.3 0.66 5 1 C5 1.66 5 2.32 5 3 C3.02 3.33 1.04 3.66 -1 4 C-0.67 2.68 -0.34 1.36 0 0 Z " fill="#FDFDFC" transform="translate(91,64)"/>
	

	<path d="M0 0 C1.98 0.495 1.98 0.495 4 1 C3.67 1.99 3.34 2.98 3 4 C0.9375 4.6875 0.9375 4.6875 -1 5 C-0.67 3.35 -0.34 1.7 0 0 Z " fill="#FDFDFC" transform="translate(94,53)"/>
	

</svg>
