<?xml version="1.0" encoding="iso-8859-1"?>
<svg height="128" version="1.1" width="128" xmlns="http://www.w3.org/2000/svg">
	

	<path d="M0 0 C42.24 0 84.48 0 128 0 C128 42.24 128 84.48 128 128 C85.76 128 43.52 128 0 128 C0 85.76 0 43.52 0 0 Z " fill="#FCFCFC" transform="translate(0,0)"/>
	

	<path d="M0 0 C7.64633991 1.84566825 7.64633991 1.84566825 10.16601562 5.86035156 C12.06878341 10.7420427 11.68838266 16.20474484 11.75 21.375 C11.77964844 22.58800781 11.80929688 23.80101563 11.83984375 25.05078125 C11.9103116 28.03392021 11.9631248 31.01628795 12 34 C13.24118727 32.08650942 13.24118727 32.08650942 12.484375 30.2578125 C11.82201361 27.17035376 12.4859817 24.92358282 13.25 21.875 C13.50265625 20.82054688 13.7553125 19.76609375 14.015625 18.6796875 C15 16 15 16 18 14 C23.90974671 12.24334135 29.6883661 11.82459863 35.8203125 12.015625 C38.12018119 12.10177816 38.12018119 12.10177816 40.6875 11.1875 C44.58078014 10.87182864 47.11552538 13.59765659 50 16 C47.76216331 22.34053728 45.17180157 26.44572672 39.3125 29.8125 C35.96910792 31.80868611 35.96910792 31.80868611 34.3359375 35.16796875 C34.2370959 36.72082234 34.17319633 38.27629919 34.14453125 39.83203125 C33.90684216 43.39736761 32.26101051 45.32248755 30 48 C29.37609375 48.35191406 28.7521875 48.70382813 28.109375 49.06640625 C25.61395495 50.55481624 24.43731669 51.43460749 23 54 C22.53556809 60.74782271 24.04344798 67.79064623 25.53393555 74.34960938 C26.52290105 79.97360598 26.27060554 85.74264659 26.3125 91.4375 C26.35600586 93.40299805 26.35600586 93.40299805 26.40039062 95.40820312 C26.40876953 96.67470703 26.41714844 97.94121094 26.42578125 99.24609375 C26.44036377 100.39779053 26.45494629 101.5494873 26.4699707 102.73608398 C25.89731195 106.71316184 24.51874356 108.90571109 22 112 C21.34 112 20.68 112 20 112 C19.690625 112.639375 19.38125 113.27875 19.0625 113.9375 C18 116 18 116 17 117 C14.0995201 117.05426458 11.22699771 117.04419138 8.328125 116.984375 C7.45355652 116.96787903 6.57898804 116.95138306 5.67791748 116.93438721 C3.82167598 116.89680678 1.96549276 116.85625069 0.109375 116.81298828 C-2.72388945 116.75057518 -5.55698055 116.70894305 -8.390625 116.66796875 C-10.19273673 116.6288926 -11.99482191 116.58856796 -13.796875 116.546875 C-14.64288269 116.53734802 -15.48889038 116.52782104 -16.36053467 116.51800537 C-22.18811949 116.34971934 -25.60826271 115.24794547 -29.94921875 111.16796875 C-36.94386252 103.19879035 -38.41659874 95.21239133 -37.80078125 84.765625 C-37.65194026 82.92590416 -37.48879537 81.08729321 -37.3125 79.25 C-37.22145996 78.29005127 -37.13041992 77.33010254 -37.03662109 76.34106445 C-35.44263995 61.24400384 -35.44263995 61.24400384 -32 55 C-29.93359375 54.2890625 -29.93359375 54.2890625 -28 54 C-26.87483915 52.16715557 -26.87483915 52.16715557 -26 50 C-23.5948231 46.17358221 -23.5948231 46.17358221 -20.8984375 45.38671875 C-20.27195312 45.25910156 -19.64546875 45.13148437 -19 45 C-18.0819494 38.39271614 -17.95729537 32.26466481 -18.5625 25.625 C-18.6454834 24.70614014 -18.7284668 23.78728027 -18.81396484 22.84057617 C-19.55389439 16.19473835 -21.02206067 11.466909 -24.7578125 5.86328125 C-26 4 -26 4 -26 2 C-22.1716483 2.54690739 -20.52624349 4.14778961 -18 7 C-17.48824219 7.56460937 -16.97648437 8.12921875 -16.44921875 8.7109375 C-14.53182916 11.73948278 -14.29128555 14.25893513 -13.875 17.8125 C-13.79789795 18.46468506 -13.7207959 19.11687012 -13.64135742 19.78881836 C-11.43360666 39.26225246 -11.43360666 39.26225246 -13 47 C-10.525 46.505 -10.525 46.505 -8 46 C-7.02281083 37.4909374 -7.03352911 29.43657148 -7.76928711 20.91845703 C-7.9203662 18.94992859 -7.96853241 16.97406659 -8 15 C-7.34 14.34 -6.68 13.68 -6 13 C-5.01 13 -4.02 13 -3 13 C-2.16251899 17.57065908 -1.67168104 22.11678488 -1.375 26.75 C-1.32996338 27.45084717 -1.28492676 28.15169434 -1.23852539 28.8737793 C-0.97233754 33.68452982 -1.09552471 38.29746654 -1.74609375 43.08203125 C-2.06561895 45.17322509 -2.06561895 45.17322509 -2 48 C1.40536492 45.72975672 1.84956024 44.81334341 3 41 C3.27240222 38.1995973 3.27240222 38.1995973 3.1953125 35.26171875 C3.18564453 33.66166992 3.18564453 33.66166992 3.17578125 32.02929688 C3.15902344 30.92650391 3.14226562 29.82371094 3.125 28.6875 C3.11597656 27.56537109 3.10695312 26.44324219 3.09765625 25.28710938 C3.07414486 22.52452091 3.04128155 19.76237068 3 17 C3.66 17 4.32 17 5 17 C4.45859375 15.78763672 4.45859375 15.78763672 3.90625 14.55078125 C3.4421875 13.48214844 2.978125 12.41351563 2.5 11.3125 C2.0359375 10.25675781 1.571875 9.20101563 1.09375 8.11328125 C0.05049199 5.14372184 -0.23065301 3.10804937 0 0 Z " fill="#4B4B4B" transform="translate(63,9)"/>
	

	<path d="M0 0 C2.01684563 -0.61382258 4.01643517 -1.28591666 6 -2 C8.69391294 -2.17568997 11.29619199 -2.09323476 14 -2 C14.20302734 -0.92878906 14.20302734 -0.92878906 14.41015625 0.1640625 C14.78406293 1.96178599 15.20347719 3.75112149 15.68359375 5.5234375 C17.63378906 12.89982389 18.53401759 20.15894481 19.1875 27.75 C19.31306274 29.2047876 19.31306274 29.2047876 19.44116211 30.68896484 C20.82901271 48.17677879 20.82901271 48.17677879 16 54 C15.34 54.66 14.68 55.32 14 56 C11.90472291 55.79089903 9.80998362 55.56887181 7.72363281 55.28417969 C4.75460467 54.97439583 1.88281944 54.96041185 -1.1015625 55.0078125 C-2.70257813 55.03294922 -2.70257813 55.03294922 -4.3359375 55.05859375 C-6.53662612 55.10302571 -8.73717206 55.15516504 -10.9375 55.21484375 C-18.49120462 55.31543788 -23.57445306 55.04308296 -29.4140625 49.85546875 C-31.59970672 45.92023248 -31.52193965 42.73813849 -31.375 38.3125 C-31.35566406 37.11681396 -31.35566406 37.11681396 -31.3359375 35.89697266 C-31.1855811 30.12117262 -30.56989548 24.57873573 -29 19 C-28.01 19 -27.02 19 -26 19 C-26.03480469 18.26394531 -26.06960937 17.52789062 -26.10546875 16.76953125 C-26.3770387 6.98008132 -26.3770387 6.98008132 -23 3 C-22.43539062 2.31550781 -21.87078125 1.63101563 -21.2890625 0.92578125 C-18.33980545 -1.55541965 -16.44029961 -1.65266319 -12.625 -1.875 C-11.52414063 -1.95492187 -10.42328125 -2.03484375 -9.2890625 -2.1171875 C-5.8276577 -1.99385954 -3.25241713 -1.12088952 0 0 Z " fill="#B7B8B8" transform="translate(63,63)"/>
	

	

	<path d="M0 0 C0.33 0.99 0.66 1.98 1 3 C3.51083114 1.74458443 3.87125446 0.49936512 5 -2 C8.875 -1.125 8.875 -1.125 10 0 C11.46560542 9.93354785 11.09476088 19.98450404 11 30 C7.62537285 29.45276317 5.91765 28.9451 3 27 C2.56762695 24.84521484 2.56762695 24.84521484 2.48828125 22.2109375 C2.45516846 21.36321777 2.42205566 20.51549805 2.38793945 19.64208984 C2.36304443 18.5639502 2.33814941 17.48581055 2.3125 16.375 C2.209375 12.95125 2.10625 9.5275 2 6 C1.67 16.23 1.34 26.46 1 37 C-0.32 37.66 -1.64 38.32 -3 39 C-3.99 35.535 -3.99 35.535 -5 32 C-6.051875 31.855625 -7.10375 31.71125 -8.1875 31.5625 C-11.15460549 31.12473034 -14.06794366 30.62195134 -17 30 C-17.33 29.01 -17.66 28.02 -18 27 C-18.804375 26.855625 -19.60875 26.71125 -20.4375 26.5625 C-23 26 -23 26 -24 25 C-25.12990937 8.54984894 -25.12990937 8.54984894 -21.5 2.5 C-17.84153925 0.30492355 -14.17456673 -0.31714507 -10 -1 C-8.72125 -1.2475 -7.4425 -1.495 -6.125 -1.75 C-3 -2 -3 -2 0 0 Z " fill="#4B4C4C" transform="translate(64,73)"/>
	

	<path d="M0 0 C0.66 0 1.32 0 2 0 C7.31975039 5.53974007 6.66274644 12.05363287 6.75 19.375 C6.77964844 20.58800781 6.80929688 21.80101563 6.83984375 23.05078125 C6.9103116 26.03392021 6.9631248 29.01628795 7 32 C8.24118727 30.08650942 8.24118727 30.08650942 7.484375 28.2578125 C6.82201361 25.17035376 7.4859817 22.92358282 8.25 19.875 C8.50265625 18.82054688 8.7553125 17.76609375 9.015625 16.6796875 C10 14 10 14 13 12 C18.90974671 10.24334135 24.6883661 9.82459863 30.8203125 10.015625 C33.12018119 10.10177816 33.12018119 10.10177816 35.6875 9.1875 C39.58078014 8.87182864 42.11552538 11.59765659 45 14 C42.76216331 20.34053728 40.17180157 24.44572672 34.3125 27.8125 C30.96910792 29.80868611 30.96910792 29.80868611 29.3359375 33.16796875 C29.2370959 34.72082234 29.17319633 36.27629919 29.14453125 37.83203125 C28.90684216 41.39736761 27.26101051 43.32248755 25 46 C24.37609375 46.35191406 23.7521875 46.70382813 23.109375 47.06640625 C20.61395495 48.55481624 19.43731669 49.43460749 18 52 C17.53556809 58.74782271 19.04344798 65.79064623 20.53393555 72.34960938 C21.52290105 77.97360598 21.27060554 83.74264659 21.3125 89.4375 C21.35600586 91.40299805 21.35600586 91.40299805 21.40039062 93.40820312 C21.40876953 94.67470703 21.41714844 95.94121094 21.42578125 97.24609375 C21.44036377 98.39779053 21.45494629 99.5494873 21.4699707 100.73608398 C20.89731195 104.71316184 19.51874356 106.90571109 17 110 C16.34 110 15.68 110 15 110 C14.690625 110.639375 14.38125 111.27875 14.0625 111.9375 C13 114 13 114 12 115 C9.0995201 115.05426458 6.22699771 115.04419138 3.328125 114.984375 C2.45355652 114.96787903 1.57898804 114.95138306 0.67791748 114.93438721 C-1.17832402 114.89680678 -3.03450724 114.85625069 -4.890625 114.81298828 C-7.72388945 114.75057518 -10.55698055 114.70894305 -13.390625 114.66796875 C-15.19273673 114.6288926 -16.99482191 114.58856796 -18.796875 114.546875 C-19.64288269 114.53734802 -20.48889038 114.52782104 -21.36053467 114.51800537 C-27.18811949 114.34971934 -30.60826271 113.24794547 -34.94921875 109.16796875 C-41.94386252 101.19879035 -43.41659874 93.21239133 -42.80078125 82.765625 C-42.65194026 80.92590416 -42.48879537 79.08729321 -42.3125 77.25 C-42.22145996 76.29005127 -42.13041992 75.33010254 -42.03662109 74.34106445 C-40.44263995 59.24400384 -40.44263995 59.24400384 -37 53 C-34.93359375 52.2890625 -34.93359375 52.2890625 -33 52 C-31.87483915 50.16715557 -31.87483915 50.16715557 -31 48 C-30.02418241 46.64886795 -29.02970259 45.31053056 -28 44 C-27.01 44.33 -26.02 44.66 -25 45 C-25.39832031 45.45890625 -25.79664062 45.9178125 -26.20703125 46.390625 C-29.60015709 50.31674827 -29.60015709 50.31674827 -32.75 54.4375 C-33.1625 54.953125 -33.575 55.46875 -34 56 C-34.66 56 -35.32 56 -36 56 C-36.04898438 56.61746094 -36.09796875 57.23492187 -36.1484375 57.87109375 C-36.22320312 58.71800781 -36.29796875 59.56492188 -36.375 60.4375 C-36.44460937 61.26121094 -36.51421875 62.08492187 -36.5859375 62.93359375 C-36.92249429 65.42601901 -37.40642012 67.69425817 -38.01171875 70.125 C-39.26001617 75.60142 -39.40453929 80.96284235 -39.4375 86.5625 C-39.47037109 87.55185547 -39.50324219 88.54121094 -39.53710938 89.56054688 C-39.59376203 97.32196098 -37.6500562 101.91605896 -32.52124023 107.65454102 C-25.92375061 113.4896823 -10.22336896 111.28409412 -2.0625 111.375 C-0.1124707 111.43107422 -0.1124707 111.43107422 1.87695312 111.48828125 C3.12283203 111.49988281 4.36871094 111.51148437 5.65234375 111.5234375 C7.33831665 111.5531665 7.33831665 111.5531665 9.05834961 111.58349609 C12.20185117 111.25206221 12.20185117 111.25206221 14.31958008 108.58154297 C14.87411865 107.72963379 15.42865723 106.87772461 16 106 C16.40734375 105.39671875 16.8146875 104.7934375 17.234375 104.171875 C18.38729075 100.90135889 18.29317833 97.67381007 18.25 94.25 C18.24419922 93.1216272 18.24419922 93.1216272 18.23828125 91.97045898 C18.16225637 86.92377946 17.70166783 82.05937731 17 77.0625 C13.98066702 54.56287792 13.98066702 54.56287792 17.42578125 48.484375 C19.18782191 46.74874609 20.9504025 45.37666098 23 44 C26.20401868 40.79598132 27.15340602 38.91438345 27.4375 34.5 C27.69283274 30.91346569 27.85289314 30.17979727 30.25 27.25 C31.1575 26.5075 32.065 25.765 33 25 C36.41176733 21.82626295 38.59168351 19.48100701 40 15 C36.38991151 13.19495576 32.16202835 13.81530094 28.1875 13.8125 C27.28451172 13.80025391 26.38152344 13.78800781 25.45117188 13.77539062 C18.93457906 13.64376198 18.93457906 13.64376198 13 16 C10.63184867 20.81331571 10.87442463 25.87237885 12 31 C11.67 31.66 11.34 32.32 11 33 C10.34 33 9.68 33 9 33 C8.9175 34.0725 8.835 35.145 8.75 36.25 C7.94523098 40.2738451 7.12270126 41.48169253 4 44 C3.01 43.67 2.02 43.34 1 43 C1.4844458 42.49243164 1.9688916 41.98486328 2.46801758 41.46191406 C4.55925486 38.10127075 4.43350041 35.55157957 4.51171875 31.609375 C4.52966995 30.90476135 4.54762115 30.20014771 4.56611633 29.47418213 C4.62011858 27.23284821 4.65408088 24.99172595 4.6875 22.75 C4.72068218 21.22653311 4.75517269 19.70309411 4.79101562 18.1796875 C4.87583738 14.4533284 4.94269724 10.72689537 5 7 C4.34 7 3.68 7 3 7 C0 2.61538462 0 2.61538462 0 0 Z " fill="#B8B9B9" transform="translate(68,11)"/>
	

	<path d="M0 0 C2.01684563 -0.61382258 4.01643517 -1.28591666 6 -2 C8.69391294 -2.17568997 11.29619199 -2.09323476 14 -2 C14.625 0.3125 14.625 0.3125 15 3 C14.34 3.99 13.68 4.98 13 6 C10.69 5.67 8.38 5.34 6 5 C5.01 6.65 4.02 8.3 3 10 C2.01 9.34 1.02 8.68 0 8 C-1.54334441 8.20577925 -3.08588621 8.42529833 -4.6171875 8.70703125 C-10.03197461 9.37278376 -15.55302998 9.06799269 -21 9 C-24.27065173 18.10730258 -24.16688937 27.41313312 -24 37 C-22.88625 37.474375 -21.7725 37.94875 -20.625 38.4375 C-18.73289006 39.25306463 -16.84287291 40.07856355 -15 41 C-13.329375 40.9690625 -13.329375 40.9690625 -11.625 40.9375 C-6.1317716 41.03221083 -6.1317716 41.03221083 -4 43 C-3.27648272 45.7402505 -3.13663709 48.1306211 -3 51 C-4.58413359 52.58413359 -6.20977785 52.12979629 -8.40234375 52.1328125 C-9.29244141 52.13410156 -10.18253906 52.13539062 -11.09960938 52.13671875 C-12.03611328 52.13285156 -12.97261719 52.12898438 -13.9375 52.125 C-14.87013672 52.12886719 -15.80277344 52.13273437 -16.76367188 52.13671875 C-17.65505859 52.13542969 -18.54644531 52.13414063 -19.46484375 52.1328125 C-20.285896 52.13168457 -21.10694824 52.13055664 -21.95288086 52.12939453 C-24 52 -24 52 -26 51 C-30.0750075 46.25241844 -29.3736626 40.90488922 -29.25 35 C-29.24484375 34.01515625 -29.2396875 33.0303125 -29.234375 32.015625 C-29.1858566 27.52767312 -28.98220341 23.39334271 -28 19 C-27.34 19 -26.68 19 -26 19 C-26.03480469 18.26394531 -26.06960937 17.52789062 -26.10546875 16.76953125 C-26.3770387 6.98008132 -26.3770387 6.98008132 -23 3 C-22.43539062 2.31550781 -21.87078125 1.63101563 -21.2890625 0.92578125 C-18.33980545 -1.55541965 -16.44029961 -1.65266319 -12.625 -1.875 C-11.52414063 -1.95492187 -10.42328125 -2.03484375 -9.2890625 -2.1171875 C-5.8276577 -1.99385954 -3.25241713 -1.12088952 0 0 Z " fill="#FAFAFA" transform="translate(63,63)"/>
	

	<path d="M0 0 C4 0 4 0 6.25 2 C6.8275 2.66 7.405 3.32 8 4 C7.67 4.99 7.34 5.98 7 7 C5.68 6.34 4.36 5.68 3 5 C3.45363171 6.58468677 3.91311452 8.16769924 4.375 9.75 C4.63023438 10.63171875 4.88546875 11.5134375 5.1484375 12.421875 C5.91878431 14.97862332 5.91878431 14.97862332 7.1015625 17.140625 C8 19 8 19 8 22 C7.34 22 6.68 22 6 22 C6.06900513 23.04341553 6.06900513 23.04341553 6.1394043 24.10791016 C6.33937598 27.2794558 6.51365763 30.45191928 6.6875 33.625 C6.76033203 34.71941406 6.83316406 35.81382813 6.90820312 36.94140625 C7.4459063 47.37917371 7.4459063 47.37917371 4 52 C2.515 52.495 2.515 52.495 1 53 C-0.13245033 45.82781457 -0.13245033 45.82781457 0.5 41.875 C1.13527259 36.95163744 0.68446513 32.33469547 0.25390625 27.40234375 C0.01878874 24.25176915 -0.0432551 21.15762254 0 18 C-1.98 18.99 -1.98 18.99 -4 20 C-3.94670532 21.0355603 -3.94670532 21.0355603 -3.89233398 22.09204102 C-3.73380686 25.24855684 -3.58557114 28.40547711 -3.4375 31.5625 C-3.38142578 32.64853516 -3.32535156 33.73457031 -3.26757812 34.85351562 C-3.01547516 40.38297392 -2.84979734 45.5689106 -4 51 C-5 52 -5 52 -7.5625 52.0625 C-8.366875 52.041875 -9.17125 52.02125 -10 52 C-9.98477295 51.11405151 -9.98477295 51.11405151 -9.96923828 50.21020508 C-9.90659033 43.65582294 -10.27736321 37.21244497 -10.875 30.6875 C-10.99294922 29.24407227 -10.99294922 29.24407227 -11.11328125 27.77148438 C-11.52505931 23.19441283 -11.89869858 19.16187994 -14 15 C-14.4125 14.13375 -14.825 13.2675 -15.25 12.375 C-17.43062668 9.41557807 -19.65224262 8.41349756 -23 7 C-22.66226563 7.60328125 -22.32453125 8.2065625 -21.9765625 8.828125 C-21.53054687 9.62734375 -21.08453125 10.4265625 -20.625 11.25 C-20.18414062 12.03890625 -19.74328125 12.8278125 -19.2890625 13.640625 C-18.86367188 14.41921875 -18.43828125 15.1978125 -18 16 C-17.65791504 16.59216309 -17.31583008 17.18432617 -16.96337891 17.79443359 C-14.98388128 22.32630931 -15.12794132 27.49511058 -14.75 32.375 C-14.646875 33.4990625 -14.54375 34.623125 -14.4375 35.78125 C-13.61851095 45.9704373 -13.61851095 45.9704373 -16 51 C-16.33 51 -16.66 51 -17 51 C-17.02916504 50.07251953 -17.05833008 49.14503906 -17.08837891 48.18945312 C-17.21126563 44.71388643 -17.35966705 41.24129184 -17.52490234 37.76757812 C-17.5909837 36.2705937 -17.64717605 34.77313596 -17.69287109 33.27539062 C-17.90284038 21.95552787 -17.90284038 21.95552787 -23.63818359 12.49951172 C-25.72686492 10.19964067 -26 8.03267963 -26 5 C-25.34 4.34 -24.68 3.68 -24 3 C-20.10061182 3.26892332 -17.72349509 5.34293162 -15 8 C-10 15.55464481 -10 15.55464481 -10 20 C-6.83884224 18.63016497 -6.0072908 18.0109362 -4 15 C-0.875 14.8125 -0.875 14.8125 2 15 C1.1395861 10.66770285 1.1395861 10.66770285 -1 7 C-1.125 4 -1.125 4 -1 1 C-0.67 0.67 -0.34 0.34 0 0 Z " fill="#B7B8B8" transform="translate(60,4)"/>
	

	<path d="M0 0 C0.33 0 0.66 0 1 0 C1.05534912 0.75095947 1.11069824 1.50191895 1.16772461 2.27563477 C1.42186246 5.70477678 1.67964937 9.13363525 1.9375 12.5625 C2.06801758 14.33463867 2.06801758 14.33463867 2.20117188 16.14257812 C2.62935998 21.80417637 3.19405322 27.37903787 4 33 C5.36832745 50.13246857 5.36832745 50.13246857 0.2890625 56.65234375 C-2.90490363 59.99149016 -2.90490363 59.99149016 -5.71459961 60.24291992 C-6.84905518 60.23881104 -7.98351074 60.23470215 -9.15234375 60.23046875 C-10.40466797 60.22853516 -11.65699219 60.22660156 -12.94726562 60.22460938 C-14.92243164 60.20624023 -14.92243164 60.20624023 -16.9375 60.1875 C-18.21947266 60.18685547 -19.50144531 60.18621094 -20.82226562 60.18554688 C-43.21328845 60.08278338 -43.21328845 60.08278338 -50.125 54.1875 C-55.30124525 48.14854721 -55.47907602 42.61799296 -55.375 35 C-55.36919922 33.98284912 -55.36339844 32.96569824 -55.35742188 31.91772461 C-55.22115368 23.96433074 -54.23057763 16.66097199 -52 9 C-51.67 9 -51.34 9 -51 9 C-50.83663591 12.92073811 -50.92889822 15.74669991 -52 19.5625 C-53.34316824 24.70157848 -53.21966671 29.7205103 -53.125 35 C-53.11597656 35.96550781 -53.10695313 36.93101563 -53.09765625 37.92578125 C-53.07430791 40.28396326 -53.03844539 42.6420158 -53 45 C-52.67 40.05 -52.34 35.1 -52 30 C-51.67 30 -51.34 30 -51 30 C-50.96132813 31.75376953 -50.96132813 31.75376953 -50.921875 33.54296875 C-50.86557633 35.09118226 -50.80822938 36.6393579 -50.75 38.1875 C-50.73582031 38.95642578 -50.72164062 39.72535156 -50.70703125 40.51757812 C-50.54475207 44.29868307 -50.2357141 46.58750032 -48.328125 49.92578125 C-42.38608571 55.21977934 -35.19083027 54.20738584 -27.6875 54.0625 C-15.37453009 53.86590024 -15.37453009 53.86590024 -9.86328125 54.640625 C-8.58839844 54.75921875 -7.31351563 54.8778125 -6 55 C-2.45864179 51.72424365 -1.05035894 49.14474472 -0.83984375 44.359375 C-0.92540679 36.58713998 -1.9527503 28.84784991 -2.79370117 21.12744141 C-3.01603527 19.06995742 -3.22919362 17.01167394 -3.44140625 14.953125 C-3.57232666 13.73786133 -3.70324707 12.52259766 -3.83813477 11.27050781 C-3.98706301 8.26139346 -3.75124773 5.90075571 -3 3 C-1.98617037 6.6208201 -1.50102309 10.27811418 -1 14 C-0.67 9.38 -0.34 4.76 0 0 Z " fill="#5E5F5F" transform="translate(83,63)"/>
	

	<path d="M0 0 C1.75 0.125 1.75 0.125 4 1 C8 6.22222222 8 6.22222222 8 9 C8.66 9 9.32 9 10 9 C10.07427649 13.48401485 10.12866111 17.96770174 10.16479492 22.45214844 C10.17986151 23.9769515 10.20031876 25.50171136 10.22631836 27.02636719 C10.26279706 29.22081166 10.27974714 31.41468216 10.29296875 33.609375 C10.3086792 34.92905273 10.32438965 36.24873047 10.34057617 37.60839844 C9.9866721 41.13272487 9.41890223 42.48902883 7 45 C8.98020421 44.55966008 8.98020421 44.55966008 11 43 C12.26152609 40.4136076 13.15643045 37.74799171 14 35 C15.29893162 38.89679485 14.61411215 40.25819455 13 44 C11.4465011 46.14091568 9.77985996 48.03278636 8 50 C9.299375 50.144375 10.59875 50.28875 11.9375 50.4375 C15.875 50.875 15.875 50.875 17 52 C17.07258946 54.18639453 17.08373783 56.37500389 17.0625 58.5625 C17.05347656 59.76003906 17.04445312 60.95757812 17.03515625 62.19140625 C17.02355469 63.11824219 17.01195312 64.04507813 17 65 C14.50494038 62.50494038 14.64051624 61.32671112 14.375 57.875 C14.30023438 56.96492188 14.22546875 56.05484375 14.1484375 55.1171875 C14.09945312 54.41851562 14.05046875 53.71984375 14 53 C9.63793552 52.84694511 6.51704779 52.84225661 2.3125 54.125 C-1 55 -1 55 -3.2890625 54.04296875 C-6.65375102 52.74848484 -9.1073882 52.90582644 -12.6875 53.1875 C-13.82574219 53.26355469 -14.96398437 53.33960938 -16.13671875 53.41796875 C-19.31875788 53.71451843 -19.31875788 53.71451843 -21 57 C-21.66 57 -22.32 57 -23 57 C-24.64800856 60.66447432 -25.33580973 63.81203466 -25.625 67.8125 C-25.69976562 68.78832031 -25.77453125 69.76414062 -25.8515625 70.76953125 C-25.90054688 71.50558594 -25.94953125 72.24164063 -26 73 C-26.66 73 -27.32 73 -28 73 C-28.13373829 60.46681189 -28.13373829 60.46681189 -23.875 55.3125 C-18.95500655 50.57214119 -14.19701279 49.93106631 -7.5625 49.875 C-6.04142704 49.90673625 -4.52040718 49.94493495 -3 50 C-3 48.35 -3 46.7 -3 45 C-2.67 45.99 -2.34 46.98 -2 48 C1.40536492 45.72975672 1.84956024 44.81334341 3 41 C3.27240222 38.1995973 3.27240222 38.1995973 3.1953125 35.26171875 C3.18886719 34.19501953 3.18242188 33.12832031 3.17578125 32.02929688 C3.15902344 30.92650391 3.14226562 29.82371094 3.125 28.6875 C3.11597656 27.56537109 3.10695313 26.44324219 3.09765625 25.28710938 C3.07414486 22.52452091 3.04128155 19.76237068 3 17 C3.66 17 4.32 17 5 17 C4.45859375 15.78763672 4.45859375 15.78763672 3.90625 14.55078125 C3.4421875 13.48214844 2.978125 12.41351563 2.5 11.3125 C2.0359375 10.25675781 1.571875 9.20101563 1.09375 8.11328125 C0.05049199 5.14372184 -0.23065301 3.10804937 0 0 Z " fill="#9C9D9D" transform="translate(63,9)"/>
	

	<path d="M0 0 C3.875 0.875 3.875 0.875 5 2 C6.46560542 11.93354785 6.09476088 21.98450404 6 32 C2.62537285 31.45276317 0.91765 30.9451 -2 29 C-2.43237305 26.84521484 -2.43237305 26.84521484 -2.51171875 24.2109375 C-2.54483154 23.36321777 -2.57794434 22.51549805 -2.61206055 21.64208984 C-2.63695557 20.5639502 -2.66185059 19.48581055 -2.6875 18.375 C-2.790625 14.95125 -2.89375 11.5275 -3 8 C-3.33 18.23 -3.66 28.46 -4 39 C-5.32 39.66 -6.64 40.32 -8 41 C-8.99 37.535 -8.99 37.535 -10 34 C-11.051875 33.855625 -12.10375 33.71125 -13.1875 33.5625 C-19.76131687 32.59259259 -19.76131687 32.59259259 -22 32 C-22.33 31.34 -22.66 30.68 -23 30 C-17.87416389 29.89748328 -13.05002222 29.96409801 -8 31 C-6.79483714 26.10845663 -6.66538566 21.19724878 -6.4375 16.1875 C-6.39431641 15.30384766 -6.35113281 14.42019531 -6.30664062 13.50976562 C-6.20108464 11.34000377 -6.10008929 9.1700209 -6 7 C-5.34 7 -4.68 7 -4 7 C-4 6.34 -4 5.68 -4 5 C-3.34 4.67 -2.68 4.34 -2 4 C-0.86649466 1.98330173 -0.86649466 1.98330173 0 0 Z " fill="#C0C1C1" transform="translate(69,71)"/>
	

	<path d="M0 0 C3 2 3 2 3.43237305 3.90087891 C3.45855713 4.66835449 3.48474121 5.43583008 3.51171875 6.2265625 C3.54740967 7.08644775 3.58310059 7.94633301 3.61987305 8.83227539 C3.64218994 9.75387451 3.66450684 10.67547363 3.6875 11.625 C3.71948486 12.56400146 3.75146973 13.50300293 3.78442383 14.47045898 C3.87392423 17.31348399 3.93982476 20.15621848 4 23 C4.02191406 23.82226074 4.04382813 24.64452148 4.06640625 25.49169922 C4.3883839 38.2232322 4.3883839 38.2232322 2 43 C-2.29 43 -6.58 43 -11 43 C-12.20061105 39.39816685 -12.02185426 36.22311412 -11.87890625 32.48828125 C-11.85529526 31.76005661 -11.83168427 31.03183197 -11.80735779 30.28153992 C-11.7308565 27.9583216 -11.6467744 25.63544807 -11.5625 23.3125 C-11.50926573 21.73634493 -11.45652542 20.16017309 -11.40429688 18.58398438 C-11.27525978 14.7224384 -11.13942375 10.86118434 -11 7 C-10.34 6.67 -9.68 6.34 -9 6 C-8.98541748 6.65597168 -8.97083496 7.31194336 -8.95581055 7.98779297 C-8.88148586 10.95080031 -8.78477631 13.91266117 -8.6875 16.875 C-8.66494141 17.90753906 -8.64238281 18.94007812 -8.61914062 20.00390625 C-8.58369141 20.99003906 -8.54824219 21.97617188 -8.51171875 22.9921875 C-8.48553467 23.90339355 -8.45935059 24.81459961 -8.43237305 25.75341797 C-8.28968994 26.49479004 -8.14700684 27.23616211 -8 28 C-7.01 28.66 -6.02 29.32 -5 30 C-3.8125 32.625 -3.8125 32.625 -3 35 C-2.01 34.34 -1.02 33.68 0 33 C0.26711404 30.44604513 0.34849029 28.13725626 0.29296875 25.5859375 C0.28872391 24.85629791 0.28447906 24.12665833 0.28010559 23.37490845 C0.26329353 21.04123241 0.22563868 18.7084156 0.1875 16.375 C0.17245634 14.79428329 0.15876738 13.21355307 0.14648438 11.6328125 C0.11338201 7.75487656 0.06158404 3.87758402 0 0 Z " fill="#FCFCFC" transform="translate(76,72)"/>
	

	<path d="M0 0 C1.77503906 0.03480469 1.77503906 0.03480469 3.5859375 0.0703125 C5.36871094 0.09738281 5.36871094 0.09738281 7.1875 0.125 C8.10273437 0.14820312 9.01796875 0.17140625 9.9609375 0.1953125 C10.2909375 1.1853125 10.6209375 2.1753125 10.9609375 3.1953125 C10.39503906 3.57042969 9.82914063 3.94554687 9.24609375 4.33203125 C4.80405623 7.26377497 4.80405623 7.26377497 1.9609375 11.5703125 C1.9609375 12.4365625 1.9609375 13.3028125 1.9609375 14.1953125 C1.94933594 14.88496094 1.93773438 15.57460938 1.92578125 16.28515625 C1.90154651 18.25509412 1.92755099 20.22550848 1.9609375 22.1953125 C0.9709375 22.5253125 -0.0190625 22.8553125 -1.0390625 23.1953125 C-1.3690625 24.1853125 -1.6990625 25.1753125 -2.0390625 26.1953125 C-2.6990625 26.1953125 -3.3590625 26.1953125 -4.0390625 26.1953125 C-4.3071875 26.8346875 -4.5753125 27.4740625 -4.8515625 28.1328125 C-6.0390625 30.1953125 -6.0390625 30.1953125 -9.0390625 31.1953125 C-10.09234847 25.92888266 -10.09234847 25.92888266 -10.0390625 23.1953125 C-9.4203125 22.5971875 -8.8015625 21.9990625 -8.1640625 21.3828125 C-4.64145776 17.75660174 -5.17311016 13.07041407 -5.0390625 8.1953125 C-5.0596875 7.0196875 -5.0803125 5.8440625 -5.1015625 4.6328125 C-5.00213962 0.75532027 -3.72695368 0.23952144 0 0 Z " fill="#B9BABA" transform="translate(89.0390625,27.8046875)"/>
	

	<path d="M0 0 C2 2 2 2 2.265625 4.390625 C2.21058755 14.46247818 2.21058755 14.46247818 0 19 C-3.18032265 21.1202151 -3.54567399 21.2495865 -7.0625 20.75 C-7.75472656 20.66234375 -8.44695313 20.5746875 -9.16015625 20.484375 C-11 20 -11 20 -13 18 C-13.32535033 11.36285323 -12.37489336 6.03775599 -8 1 C-5.23749964 -0.38125018 -3.05268901 -0.19079306 0 0 Z " fill="#B1B2B2" transform="translate(57,76)"/>
	

	

	<path d="M0 0 C2.2906086 0.38574167 3.7063849 0.74263609 5.47119141 2.28955078 C10.33358479 9.18692483 9.59060442 16.81102622 9.375 24.875 C9.35846598 26.31508048 9.3441249 27.75518789 9.33203125 29.1953125 C9.19784816 39.60430368 9.19784816 39.60430368 8 42 C7.01 42 6.02 42 5 42 C4.29458023 36.16769014 3.97657096 30.46786272 4.1328125 24.6003418 C4.29518522 17.99307708 4.15566312 12.659037 0.890625 6.73828125 C-0.28403671 4.4456301 -0.32648208 2.53023616 0 0 Z " fill="#454545" transform="translate(63,9)"/>
	

	

	<path d="M0 0 C3.875 0.875 3.875 0.875 5 2 C6.46560542 11.93354785 6.09476088 21.98450404 6 32 C4.125 31.75 4.125 31.75 2 31 C-0.00910682 28.12053355 -0.27585509 25.5747987 -0.37890625 22.12109375 C-0.41306641 21.20005859 -0.44722656 20.27902344 -0.48242188 19.33007812 C-0.50884766 18.37552734 -0.53527344 17.42097656 -0.5625 16.4375 C-0.62246721 14.54023949 -0.68610889 12.64309059 -0.75390625 10.74609375 C-0.77783447 9.90747803 -0.8017627 9.0688623 -0.82641602 8.20483398 C-0.9248012 5.82427314 -0.9248012 5.82427314 -2 3 C-1.34 2.01 -0.68 1.02 0 0 Z " fill="#676868" transform="translate(69,71)"/>
	

	<path d="M0 0 C0.33 0 0.66 0 1 0 C2.15559181 5.38671473 2.5923401 10.76828381 3.0625 16.25 C3.15337891 17.24902344 3.24425781 18.24804688 3.33789062 19.27734375 C4.88770243 37.10600589 4.88770243 37.10600589 0 43 C-0.66 43.66 -1.32 44.32 -2 45 C-4.08797647 44.79269834 -6.1754006 44.57213017 -8.25439453 44.28857422 C-14.58646787 43.62304775 -21.01958594 44.00782018 -27.37695312 44.12695312 C-28.45783203 44.13791016 -29.53871094 44.14886719 -30.65234375 44.16015625 C-32.12175415 44.18541382 -32.12175415 44.18541382 -33.62084961 44.21118164 C-36 44 -36 44 -38 42 C-37.37657715 41.97494385 -36.7531543 41.9498877 -36.11083984 41.92407227 C-24.39270443 41.44796229 -12.69083871 40.95228669 -1 40 C0.27385127 36.1784462 0.12353188 32.5931553 0.09765625 28.61328125 C0.09553383 27.38776802 0.09553383 27.38776802 0.09336853 26.13749695 C0.08777294 23.52912732 0.07522129 20.92084366 0.0625 18.3125 C0.05748443 16.54362103 0.05292162 14.77474072 0.04882812 13.00585938 C0.03780496 8.67053981 0.02054338 4.33528448 0 0 Z " fill="#ABACAC" transform="translate(79,74)"/>
	

	<path d="M0 0 C3.8283517 0.54690739 5.47375651 2.14778961 8 5 C8.52223145 5.58031982 9.04446289 6.16063965 9.58251953 6.75854492 C12.44549565 11.28575535 11.72103503 17.09693669 11.875 22.3125 C11.93429688 23.52357422 11.99359375 24.73464844 12.0546875 25.98242188 C12.28210565 32.47449938 12.24977287 37.30026882 9 43 C8.67 43 8.34 43 8 43 C8.01933594 41.09347656 8.01933594 41.09347656 8.0390625 39.1484375 C8.11617513 20.62361091 8.11617513 20.62361091 1.2421875 3.86328125 C0 2 0 2 0 0 Z " fill="#4C4D4D" transform="translate(37,11)"/>
	

	

	

	

	<path d="M0 0 C0.33 0 0.66 0 1 0 C0.98952637 0.80743652 0.97905273 1.61487305 0.96826172 2.44677734 C0.92680169 6.08948682 0.90070562 9.73214675 0.875 13.375 C0.85824219 14.64601563 0.84148438 15.91703125 0.82421875 17.2265625 C0.81777344 18.43828125 0.81132813 19.65 0.8046875 20.8984375 C0.79421387 22.01911621 0.78374023 23.13979492 0.77294922 24.29443359 C0.71944677 27.14977843 0.71944677 27.14977843 3 29 C3 29.99 3 30.98 3 32 C10.26 32 17.52 32 25 32 C24.67 29.36 24.34 26.72 24 24 C21.48744345 23.22690568 19.72227184 23.01772733 17.0625 23.1875 C13.21075913 22.95167913 11.75865105 21.59637745 9 19 C9.8353125 19.2165625 9.8353125 19.2165625 10.6875 19.4375 C15.42338958 20.58947314 20.17178953 21.33730444 25 22 C25.66 24.31 26.32 26.62 27 29 C28.32 28.67 29.64 28.34 31 28 C31 29.32 31 30.64 31 32 C33.97 32.495 33.97 32.495 37 33 C37 33.33 37 33.66 37 34 C32.24956897 34.14870119 27.50050144 34.25737512 22.74829102 34.32958984 C21.13314204 34.35970087 19.51815577 34.40060063 17.90356445 34.45263672 C15.57722837 34.52571534 13.25305852 34.5595088 10.92578125 34.5859375 C10.20787918 34.61690521 9.48997711 34.64787292 8.75032043 34.67977905 C5.9382886 34.68165223 3.68370223 34.53071049 1.41670227 32.77099609 C-1.06044579 29.98855826 -2.63518053 27.57950143 -2.55859375 23.828125 C-2.55279297 23.08546387 -2.54699219 22.34280273 -2.54101562 21.57763672 C-2.50685547 20.8095166 -2.47269531 20.04139648 -2.4375 19.25 C-2.42009766 18.4573877 -2.40269531 17.66477539 -2.38476562 16.84814453 C-2.2013657 11.10043776 -1.56206379 5.55090527 0 0 Z " fill="#CFD0D0" transform="translate(34,82)"/>
	

	

	<path d="M0 0 C0.78890625 0.03738281 1.5778125 0.07476562 2.390625 0.11328125 C2.25040695 2.75952409 2.10372724 5.40512703 1.953125 8.05078125 C1.91380859 8.80552734 1.87449219 9.56027344 1.83398438 10.33789062 C1.50390625 16 1.50390625 16 0.390625 17.11328125 C-1.94882236 16.8259807 -4.2832893 16.49391346 -6.609375 16.11328125 C-5.80380886 0.25196176 -5.80380886 0.25196176 0 0 Z " fill="#FDFDFD" transform="translate(53.609375,77.88671875)"/>
	

	<path d="M0 0 C1.11375 0.185625 2.2275 0.37125 3.375 0.5625 C6.82568861 1.31680657 6.82568861 1.31680657 9 0 C9.33 2.31 9.66 4.62 10 7 C9.34 6.67 8.68 6.34 8 6 C8.02094727 6.95366455 8.04189453 7.9073291 8.06347656 8.88989258 C8.13588768 12.42880228 8.18180271 15.96764656 8.21972656 19.50708008 C8.2398398 21.03876762 8.2671345 22.57037839 8.30175781 24.10180664 C8.35029315 26.30374073 8.37296996 28.50465982 8.390625 30.70703125 C8.41127014 31.39150833 8.43191528 32.07598541 8.45318604 32.78120422 C8.45410156 34.72192383 8.45410156 34.72192383 8 38 C5.97558594 39.95581055 5.97558594 39.95581055 4 41 C3.34 40.34 2.68 39.68 2 39 C2.375 36.875 2.375 36.875 3 35 C3.99 35.33 4.98 35.66 6 36 C5.86040799 32.77053202 5.71221895 29.54151309 5.5625 26.3125 C5.50352539 24.94448242 5.50352539 24.94448242 5.44335938 23.54882812 C5.38051758 22.21948242 5.38051758 22.21948242 5.31640625 20.86328125 C5.27974854 20.05157471 5.24309082 19.23986816 5.20532227 18.40356445 C5.04212873 15.95957692 5.04212873 15.95957692 4.48413086 13.43432617 C3.85424737 10.26712078 3.93686586 7.21984128 4 4 C0.95086772 2.98888907 0.95086772 2.98888907 -2 4 C-1.34 2.68 -0.68 1.36 0 0 Z " fill="#B7B8B8" transform="translate(69,67)"/>
	

	<path d="M0 0 C0.33 0.99 0.66 1.98 1 3 C1.99 2.67 2.98 2.34 4 2 C4 3.32 4 4.64 4 6 C6.64 6 9.28 6 12 6 C8.62923316 8.24717789 5.96143076 9.18039364 2 10 C1.23816406 9.68160156 0.47632812 9.36320312 -0.30859375 9.03515625 C-3.66207288 7.74535658 -6.11945687 7.90677597 -9.6875 8.1875 C-10.82574219 8.26355469 -11.96398437 8.33960938 -13.13671875 8.41796875 C-16.31875788 8.71451843 -16.31875788 8.71451843 -18 12 C-18.66 12 -19.32 12 -20 12 C-21.64800856 15.66447432 -22.33580973 18.81203466 -22.625 22.8125 C-22.69976562 23.78832031 -22.77453125 24.76414062 -22.8515625 25.76953125 C-22.90054688 26.50558594 -22.94953125 27.24164063 -23 28 C-23.66 28 -24.32 28 -25 28 C-25.13373829 15.46681189 -25.13373829 15.46681189 -20.875 10.3125 C-15.95500655 5.57214119 -11.19701279 4.93106631 -4.5625 4.875 C-3.04142704 4.90673625 -1.52040718 4.94493495 0 5 C0 3.35 0 1.7 0 0 Z " fill="#B3B4B4" transform="translate(60,54)"/>
	

	<path d="M0 0 C0.66 0 1.32 0 2 0 C7.31975039 5.53974007 6.66274644 12.05363287 6.75 19.375 C6.77964844 20.58800781 6.80929688 21.80101563 6.83984375 23.05078125 C6.9103116 26.03392021 6.9631248 29.01628795 7 32 C7.33 31.34 7.66 30.68 8 30 C7.67 29.01 7.34 28.02 7 27 C7.66 26.67 8.32 26.34 9 26 C10.31480314 31.7373228 9.85583935 35.78695992 7 41 C5.390625 42.734375 5.390625 42.734375 4 44 C3.01 43.67 2.02 43.34 1 43 C1.7266687 42.23864746 1.7266687 42.23864746 2.46801758 41.46191406 C4.55925486 38.10127075 4.43350041 35.55157957 4.51171875 31.609375 C4.52966995 30.90476135 4.54762115 30.20014771 4.56611633 29.47418213 C4.62011858 27.23284821 4.65408088 24.99172595 4.6875 22.75 C4.72068218 21.22653311 4.75517269 19.70309411 4.79101562 18.1796875 C4.87583738 14.4533284 4.94269724 10.72689537 5 7 C4.34 7 3.68 7 3 7 C0 2.61538462 0 2.61538462 0 0 Z " fill="#CFD0D0" transform="translate(68,11)"/>
	

	<path d="M0 0 C4 4 4 4 4.45410156 6.56542969 C4.4331543 7.50805664 4.41220703 8.45068359 4.390625 9.421875 C4.37773438 10.44667969 4.36484375 11.47148438 4.3515625 12.52734375 C4.31804688 13.59082031 4.28453125 14.65429688 4.25 15.75 C4.23195313 16.82894531 4.21390625 17.90789063 4.1953125 19.01953125 C4.14821415 21.68058788 4.082456 24.33984254 4 27 C2.68 27.33 1.36 27.66 0 28 C0 18.76 0 9.52 0 0 Z " fill="#E9EAEA" transform="translate(51,27)"/>
	

	<path d="M0 0 C0.99 0.33 1.98 0.66 3 1 C2.67 3.97 2.34 6.94 2 10 C1.01 10.33 0.02 10.66 -1 11 C-1.33 11.66 -1.66 12.32 -2 13 C-2.33 13.66 -2.66 14.32 -3 15 C-3.99 15.33 -4.98 15.66 -6 16 C-7.04255319 10.78723404 -7.04255319 10.78723404 -7 8 C-5.25 5.5 -5.25 5.5 -3 4 C-2.01 4 -1.02 4 0 4 C0 2.68 0 1.36 0 0 Z " fill="#EFEFEF" transform="translate(86,43)"/>
	

	<path d="M0 0 C0.7421875 1.78125 0.7421875 1.78125 1 4 C-0.6171875 5.71875 -0.6171875 5.71875 -2.875 7.5 C-6.42895298 10.83724853 -7.60812638 12.9393619 -8 17.8125 C-8.03940364 19.87462357 -8.03871345 21.93786336 -8 24 C-8.01160156 25.06089844 -8.02320312 26.12179688 -8.03515625 27.21484375 C-8.05855306 29.8118895 -8.04600253 32.40341282 -8 35 C-8.33 35 -8.66 35 -9 35 C-9.33745928 31.77125066 -9.66923369 28.5419413 -10 25.3125 C-10.09539062 24.40048828 -10.19078125 23.48847656 -10.2890625 22.54882812 C-10.37929687 21.66259766 -10.46953125 20.77636719 -10.5625 19.86328125 C-10.64628906 19.05157471 -10.73007813 18.23986816 -10.81640625 17.40356445 C-11.0079569 14.89583025 -11.17320336 12.51184057 -11 10 C-8.84765625 7.578125 -8.84765625 7.578125 -6.0625 5.25 C-4.68771484 4.08210938 -4.68771484 4.08210938 -3.28515625 2.890625 C-2.53105469 2.26671875 -1.77695313 1.6428125 -1 1 C-0.67 0.67 -0.34 0.34 0 0 Z " fill="#404040" transform="translate(91,51)"/>
	

	<path d="M0 0 C0.66 0.33 1.32 0.66 2 1 C2.48264029 3.58301933 2.84340248 6.08156882 3.125 8.6875 C3.21136719 9.39583984 3.29773438 10.10417969 3.38671875 10.83398438 C3.86104392 14.91092211 4.09064702 18.88851005 4 23 C2.0625 22.625 2.0625 22.625 0 22 C-1.16581918 19.66836164 -1.12905609 18.27846518 -1.1328125 15.68359375 C-1.13410156 14.83732422 -1.13539062 13.99105469 -1.13671875 13.11914062 C-1.13285156 12.23419922 -1.12898438 11.34925781 -1.125 10.4375 C-1.12886719 9.54869141 -1.13273437 8.65988281 -1.13671875 7.74414062 C-1.13542969 6.89916016 -1.13414063 6.05417969 -1.1328125 5.18359375 C-1.13168457 4.40556396 -1.13055664 3.62753418 -1.12939453 2.82592773 C-1 1 -1 1 0 0 Z " fill="#424242" transform="translate(71,80)"/>
	

	<path d="M0 0 C0.33 0 0.66 0 1 0 C1 10.89 1 21.78 1 33 C-0.32 33 -1.64 33 -3 33 C-3.33 31.02 -3.66 29.04 -4 27 C-5.051875 26.855625 -6.10375 26.71125 -7.1875 26.5625 C-13.76131687 25.59259259 -13.76131687 25.59259259 -16 25 C-16.33 24.34 -16.66 23.68 -17 23 C-11.87416389 22.89748328 -7.05002222 22.96409801 -2 24 C-0.79483714 19.10845663 -0.66538566 14.19724878 -0.4375 9.1875 C-0.39431641 8.30384766 -0.35113281 7.42019531 -0.30664062 6.50976562 C-0.20108464 4.34000377 -0.10008929 2.1700209 0 0 Z " fill="#9C9D9D" transform="translate(63,78)"/>
	

	

	<path d="M0 0 C0.33 0 0.66 0 1 0 C1.16336409 3.92073811 1.07110178 6.74669991 0 10.5625 C-1.34316824 15.70157848 -1.21966671 20.7205103 -1.125 26 C-1.11597656 26.96550781 -1.10695313 27.93101563 -1.09765625 28.92578125 C-1.07430791 31.28396326 -1.03844539 33.6420158 -1 36 C-0.67 31.05 -0.34 26.1 0 21 C0.33 21 0.66 21 1 21 C1.04898438 22.19238281 1.09796875 23.38476562 1.1484375 24.61328125 C1.22347604 26.17971068 1.2990234 27.74611579 1.375 29.3125 C1.4059375 30.09818359 1.436875 30.88386719 1.46875 31.69335938 C1.50742187 32.45068359 1.54609375 33.20800781 1.5859375 33.98828125 C1.6173584 34.68477783 1.6487793 35.38127441 1.68115234 36.09887695 C1.92118253 38.32532739 1.92118253 38.32532739 4 41 C3.01 41.495 3.01 41.495 2 42 C1.67 42.66 1.34 43.32 1 44 C-3.24427386 37.95716257 -3.59986826 33.21601558 -3.4375 25.9375 C-3.4271875 24.92486084 -3.416875 23.91222168 -3.40625 22.86889648 C-3.23465095 14.95073591 -2.22037912 7.62594494 0 0 Z " fill="#676868" transform="translate(31,72)"/>
	

	

	

	<path d="M0 0 C0.33 0 0.66 0 1 0 C0.98952637 0.80743652 0.97905273 1.61487305 0.96826172 2.44677734 C0.92680169 6.08948682 0.90070562 9.73214675 0.875 13.375 C0.85824219 14.64601563 0.84148438 15.91703125 0.82421875 17.2265625 C0.81777344 18.43828125 0.81132813 19.65 0.8046875 20.8984375 C0.79421387 22.01911621 0.78374023 23.13979492 0.77294922 24.29443359 C0.71944677 27.14977843 0.71944677 27.14977843 3 29 C3 29.99 3 30.98 3 32 C3.99 32.33 4.98 32.66 6 33 C4.515 33.495 4.515 33.495 3 34 C-0.30690832 30.7192126 -2.30756233 28.57294212 -2.55859375 23.828125 C-2.54667033 22.30159616 -2.50532346 20.77506801 -2.4375 19.25 C-2.42009766 18.4573877 -2.40269531 17.66477539 -2.38476562 16.84814453 C-2.2013657 11.10043776 -1.56206379 5.55090527 0 0 Z " fill="#B1B2B2" transform="translate(34,82)"/>
	

	<path d="M0 0 C0.33 0 0.66 0 1 0 C1.36622895 4.20737439 1.71584777 8.41597104 2.0625 12.625 C2.16626953 13.81480469 2.27003906 15.00460938 2.37695312 16.23046875 C2.47041016 17.38417969 2.56386719 18.53789063 2.66015625 19.7265625 C2.74918213 20.78439941 2.83820801 21.84223633 2.92993164 22.93212891 C3.00207844 26.09100228 2.61805241 28.90771154 2 32 C3.32 32.33 4.64 32.66 6 33 C5.34 33 4.68 33 4 33 C4 33.66 4 34.32 4 35 C4.66 35.33 5.32 35.66 6 36 C3.36 36 0.72 36 -2 36 C-1.34 35.34 -0.68 34.68 0 34 C0.17502995 31.41896694 0.23162279 28.94691837 0.1953125 26.3671875 C0.1924826 25.61535187 0.18965271 24.86351624 0.18673706 24.08889771 C0.17552874 21.68410422 0.15042352 19.27968119 0.125 16.875 C0.11497102 15.24609912 0.10584503 13.61719242 0.09765625 11.98828125 C0.07558735 7.99204444 0.04105351 3.99608506 0 0 Z " fill="#676868" transform="translate(48,24)"/>
	

	

	<path d="M0 0 C0.33 0 0.66 0 1 0 C1.33 3.63 1.66 7.26 2 11 C2.12375 9.865625 2.2475 8.73125 2.375 7.5625 C2.58125 6.386875 2.7875 5.21125 3 4 C3.66 3.67 4.32 3.34 5 3 C4.91621094 3.91523437 4.83242188 4.83046875 4.74609375 5.7734375 C4.64425781 6.96195312 4.54242188 8.15046875 4.4375 9.375 C4.33308594 10.55835937 4.22867188 11.74171875 4.12109375 12.9609375 C3.75846404 15.91898631 3.75846404 15.91898631 5 18 C3.68 18 2.36 18 1 18 C1.33 18.99 1.66 19.98 2 21 C1.01 20.67 0.02 20.34 -1 20 C-1.12910853 13.25766581 -0.797837 6.69613196 0 0 Z " fill="#676868" transform="translate(41,78)"/>
	

	

	<path d="M0 0 C1.05859375 1.859375 1.05859375 1.859375 1 4 C-0.21484375 6.140625 -0.21484375 6.140625 -1.9375 8.25 C-2.50339844 8.95640625 -3.06929687 9.6628125 -3.65234375 10.390625 C-4.09707031 10.92171875 -4.54179688 11.4528125 -5 12 C-5.66 11.67 -6.32 11.34 -7 11 C-6.6390625 10.51789062 -6.278125 10.03578125 -5.90625 9.5390625 C-5.4421875 8.90742187 -4.978125 8.27578125 -4.5 7.625 C-4.0359375 6.99851562 -3.571875 6.37203125 -3.09375 5.7265625 C-1.82161899 4.05905387 -1.82161899 4.05905387 -2 2 C-4.76608955 0.61695522 -7.30507355 0.99175992 -10.3359375 1.03125 C-14.91295752 0.97756062 -19.45048293 0.47621113 -24 0 C-24 -0.33 -24 -0.66 -24 -1 C-21.12546578 -1.22297226 -18.2513818 -1.42878171 -15.375 -1.625 C-14.56675781 -1.68945312 -13.75851563 -1.75390625 -12.92578125 -1.8203125 C-8.21693536 -2.1265789 -4.3180957 -2.22034574 0 0 Z " fill="#9C9D9D" transform="translate(110,24)"/>
	

	<path d="M0 0 C0.66 0.66 1.32 1.32 2 2 C0.68 2.33 -0.64 2.66 -2 3 C-2.33 4.32 -2.66 5.64 -3 7 C-3.33 6.67 -3.66 6.34 -4 6 C-6.67058851 5.85884839 -9.32432238 5.95752893 -12 6 C-12 5.34 -12 4.68 -12 4 C-13.98 4.33 -15.96 4.66 -18 5 C-14.92090575 1.92090575 -11.18361236 1.78613631 -7 1 C-6.31421875 0.86207031 -5.6284375 0.72414063 -4.921875 0.58203125 C-3.0625 0.25 -3.0625 0.25 0 0 Z " fill="#676868" transform="translate(61,71)"/>
	

	<path d="M0 0 C1.65 0.66 3.3 1.32 5 2 C4.67 2.66 4.34 3.32 4 4 C2.68 3.67 1.36 3.34 0 3 C-0.33 4.65 -0.66 6.3 -1 8 C-1.99 7.67 -2.98 7.34 -4 7 C-4.33 7.66 -4.66 8.32 -5 9 C-5.66 7.02 -6.32 5.04 -7 3 C-8.258125 3.20625 -9.51625 3.4125 -10.8125 3.625 C-14.4014758 4.21335669 -14.75073878 4.16617415 -18 2 C-16.06403108 1.77788884 -14.12610672 1.57277008 -12.1875 1.375 C-11.10855469 1.25898437 -10.02960937 1.14296875 -8.91796875 1.0234375 C-6 1 -6 1 -3 3 C-2.01 2.01 -1.02 1.02 0 0 Z " fill="#9C9D9D" transform="translate(69,69)"/>
	

	

	<path d="M0 0 C0.33 0 0.66 0 1 0 C1.05421223 3.04190863 1.09377548 6.08283999 1.125 9.125 C1.14175781 9.9809375 1.15851562 10.836875 1.17578125 11.71875 C1.18222656 12.55664062 1.18867187 13.39453125 1.1953125 14.2578125 C1.20578613 15.0223877 1.21625977 15.78696289 1.22705078 16.57470703 C1 19 1 19 -1 25 C-5.29 24.67 -9.58 24.34 -14 24 C-10 22 -10 22 -2 22 C-1.34 14.74 -0.68 7.48 0 0 Z " fill="#676868" transform="translate(62,78)"/>
	

	<path d="M0 0 C0.66 0 1.32 0 2 0 C1.88658363 2.31309705 1.75896193 4.62550185 1.625 6.9375 C1.55539063 8.22527344 1.48578125 9.51304688 1.4140625 10.83984375 C1.27742188 11.88269531 1.14078125 12.92554688 1 14 C0.01 14.495 0.01 14.495 -1 15 C-3.49491849 10.30368284 -2.99613805 7.06370175 -2 2 C-1.34 1.34 -0.68 0.68 0 0 Z " fill="#3C3C3C" transform="translate(82,27)"/>
	

	<path d="M0 0 C1.32 0 2.64 0 4 0 C4.33 0.66 4.66 1.32 5 2 C7.02463255 2.65213292 7.02463255 2.65213292 9 3 C9.33 4.32 9.66 5.64 10 7 C7.75 7.75 7.75 7.75 5 8 C2.48113531 6.11085148 1.24840861 4.74522583 0.25 1.75 C0.1675 1.1725 0.085 0.595 0 0 Z " fill="#484848" transform="translate(32,113)"/>
	

	

	

	

	

	

	<path d="M0 0 C0 3.20395416 -0.74335022 5.09399739 -2 8 C-0.68 8.33 0.64 8.66 2 9 C0.625 10.5 0.625 10.5 -1 12 C-1.66 12 -2.32 12 -3 12 C-4.05699482 6.71502591 -4.05699482 6.71502591 -4 4 C-2.0625 1.5 -2.0625 1.5 0 0 Z " fill="#ADAEAE" transform="translate(83,47)"/>
	

	

	

	<path d="M0 0 C0.66 0 1.32 0 2 0 C3.07310858 3.27185553 2.89263102 5.42947592 2.0625 8.75 C1.77052734 9.94882812 1.77052734 9.94882812 1.47265625 11.171875 C1.31667969 11.77515625 1.16070312 12.3784375 1 13 C0.34 12.67 -0.32 12.34 -1 12 C-0.67 8.04 -0.34 4.08 0 0 Z " fill="#FDFDFD" transform="translate(63,21)"/>
	

	<path d="M0 0 C1.32 1.32 2.64 2.64 4 4 C3.01 5.485 3.01 5.485 2 7 C0.68 7 -0.64 7 -2 7 C-2.125 4.625 -2.125 4.625 -2 2 C-1.34 1.34 -0.68 0.68 0 0 Z " fill="#565757" transform="translate(66,53)"/>
	

	

	

	<path d="M0 0 C2.97 0.495 2.97 0.495 6 1 C5.67 1.66 5.34 2.32 5 3 C4.34 3 3.68 3 3 3 C2.34 4.32 1.68 5.64 1 7 C0.34 6.34 -0.32 5.68 -1 5 C-0.625 2.375 -0.625 2.375 0 0 Z " fill="#FDFDFD" transform="translate(87,30)"/>
	

	

	

	

	

	

	

	

	

	

	

	

	

	

</svg>
