<?xml version="1.0" encoding="iso-8859-1"?>
<svg height="128" version="1.1" width="128" xmlns="http://www.w3.org/2000/svg">
	

	<path d="M0 0 C42.24 0 84.48 0 128 0 C128 42.24 128 84.48 128 128 C85.76 128 43.52 128 0 128 C0 85.76 0 43.52 0 0 Z " fill="#060606" transform="translate(0,0)"/>
	

	<path d="M0 0 C2.52830336 0.96563537 3.74692729 1.4728527 4.94140625 3.9609375 C5.14636719 4.75757813 5.35132812 5.55421875 5.5625 6.375 C5.7996875 7.26316406 6.036875 8.15132812 6.28125 9.06640625 C6.5184375 10.03449219 6.755625 11.00257812 7 12 C7.2578125 13.04027344 7.515625 14.08054687 7.78125 15.15234375 C8.28216301 17.17853687 8.77389225 19.20703558 9.25390625 21.23828125 C9.99224588 23.97129759 10.7399669 26.46212415 12 29 C15.02982306 30.37189827 15.02982306 30.37189827 18 31 C17.74538827 36.21954051 15.97655319 38.60141847 12.47265625 42.19140625 C10.73810554 44.32163697 9.91178429 46.42321832 9 49 C16.12647031 47.29977612 23.0834212 45.42080258 30 43 C29.38722388 40.03824877 28.74627478 38.61941217 27 36 C26.74325172 33.51669694 26.68632236 31.06575544 26.63671875 28.5703125 C26.18651021 25.73835706 26.18651021 25.73835706 23.44921875 23.66015625 C21 21 21 21 20.6953125 17.30078125 C20.81126044 15.96869753 20.95519316 14.63879431 21.125 13.3125 C21.2178125 12.29833008 21.2178125 12.29833008 21.3125 11.26367188 C21.57492325 8.62631826 21.8054506 6.38909879 23 4 C24.9375 4.375 24.9375 4.375 27 5 C28.1817523 7.36350461 28.0666957 8.86797722 28.125 11.5 C28.59618015 17.1872271 31.03823098 20.56169412 34.50390625 24.96875 C36 27 36 27 36 29 C36.804375 29.309375 37.60875 29.61875 38.4375 29.9375 C41 31 41 31 42 32 C42.23363881 33.84891946 42.41303635 35.70488031 42.5625 37.5625 C42.64628906 38.57441406 42.73007812 39.58632812 42.81640625 40.62890625 C42.87699219 41.41136719 42.93757813 42.19382813 43 43 C45.64 43 48.28 43 51 43 C52.27041977 33.95960217 53.34915606 25.15564771 53 16 C54.32 15.34 55.64 14.68 57 14 C57.5775 14.61875 58.155 15.2375 58.75 15.875 C60.80150042 18.0665937 60.80150042 18.0665937 63.125 18.875 C65.96901815 20.58141089 66.19306709 22.90675716 67 26 C72.09550563 26.52963184 72.09550563 26.52963184 76.375 24.0625 C78.49410553 20.06880111 78.80535041 16.46720803 79 12 C80.32 12 81.64 12 83 12 C83.99 14.97 83.99 14.97 85 18 C85.66 18 86.32 18 87 18 C87.495 19.485 87.495 19.485 88 21 C91.57486897 23.15004052 95.17180562 24 99.3125 24 C102.1133098 23.20720391 102.1133098 23.20720391 103.75 20.9375 C105.03969357 17.90672011 105.74622958 15.00523802 106.46484375 11.8046875 C107.13374637 9.54897209 108.07101267 8.34190423 110 7 C110.33 7 110.66 7 111 7 C111 31.75 111 56.5 111 82 C68.76 82 26.52 82 -17 82 C-17 71.77 -17 61.54 -17 51 C-15.35 52.65 -13.7 54.3 -12 56 C-8.5310005 57.5513378 -8.5310005 57.5513378 -5 58 C-2.81816801 57.09977979 -2.81816801 57.09977979 -1 56 C-1.5179383 48.45132474 -2.05675459 40.9211658 -2.9140625 33.40234375 C-3.00779398 30.78212284 -2.60739265 28.54289012 -2 26 C-1.34 26 -0.68 26 0 26 C-0.05329468 24.92516357 -0.05329468 24.92516357 -0.10766602 23.82861328 C-0.26489226 20.59431985 -0.41379944 17.35969614 -0.5625 14.125 C-0.61857422 12.99707031 -0.67464844 11.86914062 -0.73242188 10.70703125 C-0.78076172 9.63066406 -0.82910156 8.55429687 -0.87890625 7.4453125 C-0.9260376 6.45031738 -0.97316895 5.45532227 -1.02172852 4.43017578 C-1 2 -1 2 0 0 Z " fill="#FCFCFC" transform="translate(17,46)"/>
	

	<path d="M0 0 C4.95 0 9.9 0 15 0 C15.9765625 2.96223958 16.953125 5.92447917 17.9296875 8.88671875 C18.59039557 10.80855938 19.28772544 12.71877478 20.04296875 14.60546875 C21.26167008 17.65470921 22.18198797 20.76939971 23.12109375 23.9140625 C24.52138152 27.23741213 26.27767926 28.65689765 29.5 30.1875 C32.68711873 32.49816108 33.18365438 34.56022917 34.2265625 38.2578125 C34.48179688 38.83273438 34.73703125 39.40765625 35 40 C35.99 40.33 36.98 40.66 38 41 C38.66666667 42.66666667 39.33333333 44.33333333 40 46 C40.99 46.33 41.98 46.66 43 47 C45.89806638 50.40948986 47.1714285 52.98101921 47.4375 57.375 C47.73054424 61.93260917 49.31954688 64.69454874 51.94140625 68.37109375 C53 70 53 70 53 72 C53.99 72 54.98 72 56 72 C55.89300781 71.32195312 55.78601562 70.64390625 55.67578125 69.9453125 C54.81721742 63.27990301 54.712564 57.064548 58 51 C60.11328125 49.72265625 60.11328125 49.72265625 62 49 C62.66 49.66 63.32 50.32 64 51 C63.79120599 53.4011311 63.4401661 55.63614502 63 58 C62.6651638 60.04142073 62.33193362 62.0831053 62 64.125 C61.53078873 66.94759903 61.06787083 69.72638237 60.37890625 72.50390625 C59.92241363 75.51111018 60.32870301 77.84013823 60.9375 80.8125 C61.13214844 81.78832031 61.32679687 82.76414062 61.52734375 83.76953125 C61.68332031 84.50558594 61.83929688 85.24164063 62 86 C63.98 85.505 63.98 85.505 66 85 C67.72556374 80.36254746 68.09229301 76.5232494 68 71.5625 C67.90243095 66.2815753 68.42324461 62.02590779 70 57 C71.32 56.67 72.64 56.34 74 56 C74.99 57.98 75.98 59.96 77 62 C77.99 62 78.98 62 80 62 C80.09796875 61.31035156 80.1959375 60.62070312 80.296875 59.91015625 C81.33323747 53.39715419 83.01054885 47.87731902 86 42 C86.66 42.33 87.32 42.66 88 43 C90.21829254 49.65487762 89.07156179 55.42679034 86.66796875 61.84765625 C85.68723717 65.00779136 85.79036357 67.71569593 86 71 C88.40877257 70.88658466 88.40877257 70.88658466 91 70 C94.04833319 66.29845255 94.53992345 62.6927808 95 58 C95.33 58 95.66 58 96 58 C96.46425354 62.64253544 96.80175799 66.65924647 93.9375 70.5625 C91 73 91 73 87.1875 73.375 C86.135625 73.25125 85.08375 73.1275 84 73 C83.62875 71.906875 83.2575 70.81375 82.875 69.6875 C81.19287868 65.6682005 78.97244976 64.72715207 75 63 C74.67 62.01 74.34 61.02 74 60 C73.01 60.66 72.02 61.32 71 62 C70.74843983 65.18151561 70.74843983 65.18151561 71 68.875 C71.20832124 75.86815761 70.55955901 82.40150383 68 89 C65.26752652 90.36623674 63.01801098 90.128426 60 90 C58.30077807 88.30077807 58.83529573 85.94626231 58.75 83.625 C58.56529907 80.64972411 58.56529907 80.64972411 58 78 C55.75 76.08333333 55.75 76.08333333 53 75 C50.9375 72.1875 50.9375 72.1875 49 69 C48.278125 68.0925 47.55625 67.185 46.8125 66.25 C44.67890186 62.42423781 44.40459728 59.48669166 44.17578125 55.171875 C44.13234687 52.95335934 44.13234687 52.95335934 43 51 C42.01 50.67 41.02 50.34 40 50 C39.69610033 52.72907918 39.4312175 55.45294492 39.1875 58.1875 C39.09791016 58.95642578 39.00832031 59.72535156 38.91601562 60.51757812 C38.73154322 62.77979233 38.64266385 64.75644733 39 67 C41.37116519 69.75162852 41.37116519 69.75162852 44 72 C44.6015625 74.53515625 44.6015625 74.53515625 44.625 77.0625 C44.66141222 80.86750298 44.66141222 80.86750298 46.5859375 84.05859375 C48 86 48 86 48.13671875 88.078125 C46.28174918 91.21436221 43.12543544 91.75140903 39.8125 92.75 C39.15185547 92.97042969 38.49121094 93.19085938 37.81054688 93.41796875 C33.76588554 94.70363603 30.23316349 95.23700449 26 95 C26.65934816 89.73450131 29.13014672 87.10041317 32.50390625 83.18359375 C34.37680856 80.89119599 34.37680856 80.89119599 34 77 C32.88625 76.7215625 32.88625 76.7215625 31.75 76.4375 C28.03102072 74.4934881 26.64206922 71.72344866 25 68 C23.90719475 64.19170076 23.26219468 60.3067669 22.578125 56.40820312 C22.42859375 55.64056641 22.2790625 54.87292969 22.125 54.08203125 C22.00382812 53.39343018 21.88265625 52.7048291 21.7578125 51.99536133 C20.91680521 49.37015905 20.91680521 49.37015905 17 46 C17 54.58 17 63.16 17 72 C16.34 72 15.68 72 15 72 C14.68959152 79.32908907 15.48326629 86.34966645 16.5625 93.58203125 C16.93217228 96.47009593 17.25539376 99.10206261 17 102 C14.9375 103.9375 14.9375 103.9375 12 105 C7.00086353 104.37510794 4.16106392 102.83693758 1.0282383 98.8698082 C-0.96264972 95.24946188 -0.6495976 91.45212166 -0.56762695 87.41455078 C-0.56835709 86.46757828 -0.56908722 85.52060577 -0.56983948 84.54493713 C-0.56636756 81.4278045 -0.52752428 78.31218274 -0.48828125 75.1953125 C-0.47895174 73.02913225 -0.47183628 70.86294142 -0.46684265 68.69674683 C-0.44778392 63.00503229 -0.39869202 57.31395925 -0.34332275 51.62249756 C-0.29210647 45.81091998 -0.26932348 39.99923838 -0.24414062 34.1875 C-0.19057285 22.79138536 -0.10527303 11.3957461 0 0 Z " fill="#A98E21" transform="translate(0,0)"/>
	

	<path d="M0 0 C35.64 0 71.28 0 108 0 C108 8.91 108 17.82 108 27 C102.40411246 23.64246748 102.40411246 23.64246748 100.8125 19.375 C99.72093338 15.97661326 99.72093338 15.97661326 97 14 C96.96261719 14.6290625 96.92523438 15.258125 96.88671875 15.90625 C96.43322879 21.81051149 95.32023086 26.55250146 93 32 C92.01 32 91.02 32 90 32 C89.01 23.585 89.01 23.585 88 15 C87.01 15.33 86.02 15.66 85 16 C82.95884418 21.37146269 82.10603881 26.69234359 83.625 32.3125 C83.74875 32.869375 83.8725 33.42625 84 34 C82 36 82 36 79.375 36.125 C78.59125 36.08375 77.8075 36.0425 77 36 C75.21590198 32.93753253 74.77119979 30.77920727 74.875 27.25 C74.89304687 26.45078125 74.91109375 25.6515625 74.9296875 24.828125 C74.95289062 24.22484375 74.97609375 23.6215625 75 23 C74.01 23 73.02 23 72 23 C71.93941406 23.78246094 71.87882812 24.56492187 71.81640625 25.37109375 C71.69072266 26.88896484 71.69072266 26.88896484 71.5625 28.4375 C71.44068359 29.95150391 71.44068359 29.95150391 71.31640625 31.49609375 C71 34 71 34 70 35 C68.33382885 35.04063832 66.66611905 35.042721 65 35 C62.87953208 31.46588679 62.46800711 28.05606165 62 24 C61.34 24 60.68 24 60 24 C59.81824219 24.63808594 59.63648438 25.27617187 59.44921875 25.93359375 C59.19785156 26.75988281 58.94648437 27.58617188 58.6875 28.4375 C58.44386719 29.26121094 58.20023438 30.08492187 57.94921875 30.93359375 C57.63597656 31.61550781 57.32273438 32.29742187 57 33 C56.01 33.33 55.02 33.66 54 34 C53.01 33.505 53.01 33.505 52 33 C51.3671875 30.27734375 51.3671875 30.27734375 50.875 26.9375 C50.62363281 25.28041016 50.62363281 25.28041016 50.3671875 23.58984375 C50.24601562 22.73519531 50.12484375 21.88054688 50 21 C49.01 21 48.02 21 47 21 C46.34 24.3 45.68 27.6 45 31 C43.35 31.33 41.7 31.66 40 32 C40 31.34 40 30.68 40 30 C39.34 30 38.68 30 38 30 C37.34 28.02 36.68 26.04 36 24 C34.35 24.33 32.7 24.66 31 25 C31.09539063 25.62648438 31.19078125 26.25296875 31.2890625 26.8984375 C31.39992188 27.71570313 31.51078125 28.53296875 31.625 29.375 C31.79902344 30.59316406 31.79902344 30.59316406 31.9765625 31.8359375 C31.98429687 32.55007812 31.99203125 33.26421875 32 34 C31.34 34.66 30.68 35.32 30 36 C27.5390625 35.90234375 27.5390625 35.90234375 25 35 C23.5859375 33.06640625 23.5859375 33.06640625 22.375 30.5625 C19.96141524 26.17813286 17.34970709 23.2691213 13.5625 20 C6.96449042 14.28412539 1.7401155 8.70057748 0 0 Z " fill="#FCFCFC" transform="translate(20,0)"/>
	

	<path d="M0 0 C1.65 0 3.3 0 5 0 C5.495 1.11375 5.99 2.2275 6.5 3.375 C10.73236889 11.78033612 16.92017278 18.07505645 24.01171875 24.11328125 C26.85718929 26.81340359 28.36585968 29.44752103 30 33 C30 33.66 30 34.32 30 35 C31.65 35 33.3 35 35 35 C35.73790757 32.13035945 36.0506599 30.24204175 35.4375 27.3125 C35.293125 26.549375 35.14875 25.78625 35 25 C35.66 24.34 36.32 23.68 37 23 C41.55555556 23.55555556 41.55555556 23.55555556 43 25 C43.04063832 26.66617115 43.042721 28.33388095 43 30 C43.66 30 44.32 30 45 30 C45 30.66 45 31.32 45 32 C46.65 31.67 48.3 31.34 50 31 C49.95875 30.21625 49.9175 29.4325 49.875 28.625 C50 26 50 26 52 24 C52.99 24 53.98 24 55 24 C55.07622858 27.96388638 54.9681648 31.1273408 54 35 C58.29 35 62.58 35 67 35 C69.29440063 39.58880126 69.00624982 40.39609097 67.6875 45.125 C67.26017578 46.70667969 67.26017578 46.70667969 66.82421875 48.3203125 C66 51 66 51 65 53 C64.77532169 54.53668865 64.59203195 56.07968054 64.4375 57.625 C64.31181641 58.85089844 64.31181641 58.85089844 64.18359375 60.1015625 C64.12300781 60.72804687 64.06242187 61.35453125 64 62 C63.01 62 62.02 62 61 62 C60.34 60.35 59.68 58.7 59 57 C58.01 57 57.02 57 56 57 C54.42324461 62.02590779 53.90243095 66.2815753 54 71.5625 C54.08072828 76.53305534 53.84642262 80.38394344 52 85 C51.34 85.66 50.68 86.32 50 87 C47.875 86.625 47.875 86.625 46 86 C44.48547444 77.8099118 43.42277129 70.99403875 46 63 C47.89273037 56.56297935 47.89273037 56.56297935 47 50 C43.90010275 50.64046198 43.90010275 50.64046198 43.05078125 52.8984375 C41.11505708 59.39181911 40.65312032 65.24226988 41 72 C40.01 72 39.02 72 38 72 C33.65137257 66.81842652 31.51780179 61.60215837 31.2109375 54.91015625 C30.92332329 52.30564975 29.74311146 50.89468637 28 49 C28 48.34 28 47.68 28 47 C26.68 46.67 25.36 46.34 24 46 C23.67 44.35 23.34 42.7 23 41 C22.36707031 40.91363281 21.73414062 40.82726563 21.08203125 40.73828125 C20.39496094 40.49464844 19.70789063 40.25101563 19 40 C18.19921875 38.29296875 18.19921875 38.29296875 17.6875 36.1875 C16.68606769 33.03039714 16.68606769 33.03039714 14.36328125 30.79296875 C13.74839844 30.49003906 13.13351563 30.18710937 12.5 29.875 C8.33772677 27.64521077 7.57157768 26.38387458 6 22 C5.49326768 19.7986219 5.04343786 17.59104884 4.60546875 15.375 C3.7580278 12.05084452 2.33243821 9.1040459 0.8046875 6.04296875 C0 4 0 4 0 0 Z " fill="#090909" transform="translate(15,0)"/>
	

	<path d="M0 0 C4.95 0 9.9 0 15 0 C15.9765625 2.96223958 16.953125 5.92447917 17.9296875 8.88671875 C18.5773575 10.77063479 19.26463981 12.64240808 20.0234375 14.484375 C21.17881767 17.46063433 21.93470598 20.4765406 22.75 23.5625 C24.43103331 29.17224038 25.80007884 31.12344787 31 34 C33.01818578 37.82759372 34.63821992 41.65863906 35 46 C34.34 46.99 33.68 47.98 33 49 C31.203125 48.8203125 31.203125 48.8203125 29 48 C27.359375 45.7421875 27.359375 45.7421875 25.75 42.875 C22.89939992 38.11782974 20.01334655 34.86528668 15.6015625 31.53515625 C13.71563158 29.72742247 13.53368594 28.50099879 13 26 C12.34 25.690625 11.68 25.38125 11 25.0625 C10.01 24.5365625 10.01 24.5365625 9 24 C8.25 21.375 8.25 21.375 8 19 C7.01 19.33 6.02 19.66 5 20 C5.01047363 21.05912598 5.02094727 22.11825195 5.03173828 23.20947266 C5.06806788 27.1567036 5.09094748 31.10391989 5.10986328 35.05126953 C5.1198914 36.75637298 5.13351726 38.46145936 5.15087891 40.16650391 C5.17526803 42.62406642 5.18651512 45.08140061 5.1953125 47.5390625 C5.20563507 48.29555084 5.21595764 49.05203918 5.22659302 49.83145142 C5.22752066 54.25461954 4.87270065 57.96284019 3 62 C1.515 62.495 1.515 62.495 0 63 C0 42.21 0 21.42 0 0 Z " fill="#E4E2DD" transform="translate(0,0)"/>
	

	<path d="M0 0 C7.24799862 2.61685461 7.24799862 2.61685461 9.09375 6.01171875 C9.75082175 8.00078921 10.37704372 9.99998248 11 12 C11.99 12.33 12.98 12.66 14 13 C15 15.5 15 15.5 16 18 C16.99 18.33 17.98 18.66 19 19 C21.89806638 22.40948986 23.1714285 24.98101921 23.4375 29.375 C23.73054424 33.93260917 25.31954688 36.69454874 27.94140625 40.37109375 C29 42 29 42 29 44 C29.99 44 30.98 44 32 44 C31.89300781 43.32195312 31.78601563 42.64390625 31.67578125 41.9453125 C30.81721742 35.27990301 30.712564 29.064548 34 23 C36.11328125 21.72265625 36.11328125 21.72265625 38 21 C38.66 21.66 39.32 22.32 40 23 C39.79120599 25.4011311 39.4401661 27.63614502 39 30 C38.6651638 32.04142073 38.33193362 34.0831053 38 36.125 C37.53078873 38.94759903 37.06787083 41.72638237 36.37890625 44.50390625 C35.92241363 47.51111018 36.32870301 49.84013823 36.9375 52.8125 C37.13214844 53.78832031 37.32679687 54.76414063 37.52734375 55.76953125 C37.68332031 56.50558594 37.83929688 57.24164063 38 58 C39.98 57.505 39.98 57.505 42 57 C43.72556374 52.36254746 44.09229301 48.5232494 44 43.5625 C43.90243095 38.2815753 44.42324461 34.02590779 46 29 C47.32 28.67 48.64 28.34 50 28 C50.99 29.98 51.98 31.96 53 34 C53.99 34 54.98 34 56 34 C56.14695312 32.96552734 56.14695312 32.96552734 56.296875 31.91015625 C57.33323747 25.39715419 59.01054885 19.87731902 62 14 C62.66 14.33 63.32 14.66 64 15 C66.21829254 21.65487762 65.07156179 27.42679034 62.66796875 33.84765625 C61.68723717 37.00779136 61.79036357 39.71569593 62 43 C64.40877257 42.88658466 64.40877257 42.88658466 67 42 C70.04833319 38.29845255 70.53992345 34.6927808 71 30 C71.33 30 71.66 30 72 30 C72.46425354 34.64253544 72.80175799 38.65924647 69.9375 42.5625 C67 45 67 45 63.1875 45.375 C61.6096875 45.189375 61.6096875 45.189375 60 45 C59.62875 43.906875 59.2575 42.81375 58.875 41.6875 C57.19287868 37.6682005 54.97244976 36.72715207 51 35 C50.67 34.01 50.34 33.02 50 32 C49.01 32.66 48.02 33.32 47 34 C46.74843983 37.18151561 46.74843983 37.18151561 47 40.875 C47.20832124 47.86815761 46.55955901 54.40150383 44 61 C41.26752652 62.36623674 39.01801098 62.128426 36 62 C34.30077807 60.30077807 34.83529573 57.94626231 34.75 55.625 C34.56529907 52.64972411 34.56529907 52.64972411 34 50 C31.75 48.08333333 31.75 48.08333333 29 47 C26.9375 44.1875 26.9375 44.1875 25 41 C24.278125 40.0925 23.55625 39.185 22.8125 38.25 C20.67890186 34.42423781 20.40459728 31.48669166 20.17578125 27.171875 C20.13234687 24.95335934 20.13234687 24.95335934 19 23 C18.01 22.67 17.02 22.34 16 22 C15.67 23.98 15.34 25.96 15 28 C12 27 12 27 10.25 24.375 C8.77807682 20.40080743 9.38900415 18.12422197 10 14 C8.74504313 11.82671802 8.74504313 11.82671802 7 10 C6.71125 9.154375 6.4225 8.30875 6.125 7.4375 C4.69135461 4.33126833 2.93319499 3.62097618 0 2 C0 1.34 0 0.68 0 0 Z " fill="#989390" transform="translate(24,28)"/>
	

	<path d="M0 0 C0.66 0 1.32 0 2 0 C4.31211402 4.76873516 4.43200455 8.91986367 3.69921875 14.14453125 C2.77657606 20.847586 3.48898522 26.94616379 4.52734375 33.58203125 C4.92805644 36.47974699 5.26173244 39.08953524 5 42 C2.9375 43.9375 2.9375 43.9375 0 45 C-4.71017483 44.41122815 -7.96697571 43.00134831 -10.96142578 39.22729492 C-13.17523552 34.47962538 -12.77100937 29.09605057 -12.70678711 23.94970703 C-12.68746888 21.87165208 -12.72706691 19.80021592 -12.77148438 17.72265625 C-12.76826172 16.40910156 -12.76503906 15.09554687 -12.76171875 13.7421875 C-12.76131592 12.5444873 -12.76091309 11.34678711 -12.76049805 10.11279297 C-12 7 -12 7 -9.12817383 4.61767578 C-6.28397648 3.14685305 -4.11225307 2.5335291 -1 2 C-0.67 1.34 -0.34 0.68 0 0 Z " fill="#B11A20" transform="translate(12,60)"/>
	

	<path d="M0 0 C2.52830336 0.96563537 3.74692729 1.4728527 4.94140625 3.9609375 C5.14636719 4.75757813 5.35132812 5.55421875 5.5625 6.375 C5.7996875 7.26316406 6.036875 8.15132812 6.28125 9.06640625 C6.5184375 10.03449219 6.755625 11.00257812 7 12 C7.2578125 13.04027344 7.515625 14.08054687 7.78125 15.15234375 C8.28216301 17.17853687 8.77389225 19.20703558 9.25390625 21.23828125 C9.99224588 23.97129759 10.7399669 26.46212415 12 29 C15.02982306 30.37189827 15.02982306 30.37189827 18 31 C17.74538827 36.21954051 15.97655319 38.60141847 12.47265625 42.19140625 C10.73810554 44.32163697 9.91178429 46.42321832 9 49 C16.12647031 47.29977612 23.0834212 45.42080258 30 43 C29.38722388 40.03824877 28.74627478 38.61941217 27 36 C26.74325172 33.51669694 26.68632236 31.06575544 26.63671875 28.5703125 C26.18651021 25.73835706 26.18651021 25.73835706 23.44921875 23.66015625 C21 21 21 21 20.6953125 17.30078125 C20.81126044 15.96869753 20.95519316 14.63879431 21.125 13.3125 C21.2178125 12.29833008 21.2178125 12.29833008 21.3125 11.26367188 C21.57492325 8.62631826 21.8054506 6.38909879 23 4 C24.9375 4.375 24.9375 4.375 27 5 C28.35091528 7.70183055 28.33858058 10.11808206 28.5625 13.125 C28.64628906 14.22070312 28.73007812 15.31640625 28.81640625 16.4453125 C28.87699219 17.28835937 28.93757813 18.13140625 29 19 C28.01 19 27.02 19 26 19 C26.495 20.98 26.495 20.98 27 23 C27.66 23 28.32 23 29 23 C30.92200557 30.43175487 30.92200557 30.43175487 31.4375 34.1875 C31.84929573 37.09809839 31.84929573 37.09809839 33.625 39.625 C35 42 35 42 34.75 44.25 C34 46 34 46 33 47 C31.42393803 47.34731736 29.83862922 47.65314477 28.25 47.9375 C25.43684835 48.46595928 23.11531025 48.94811039 20.5 50.125 C16.43552651 51.54756572 12.26476599 51.14905978 8 51 C7.04227363 48.43633001 6.86796257 47.33414736 7.890625 44.74609375 C8.33921875 43.98425781 8.7878125 43.22242188 9.25 42.4375 C9.68828125 41.67308594 10.1265625 40.90867188 10.578125 40.12109375 C12 38 12 38 13.671875 36.41015625 C15.34280813 34.95887274 15.34280813 34.95887274 15 32 C14.13375 31.690625 14.13375 31.690625 13.25 31.375 C9.44521396 29.04985298 7.53928929 25.8315414 6.30371094 21.63525391 C5.71992721 18.97318008 5.21727497 16.309916 4.75 13.625 C4.57726562 12.69816406 4.40453125 11.77132812 4.2265625 10.81640625 C3.80529393 8.54623673 3.39684868 6.27454268 3 4 C2.34 4 1.68 4 1 4 C1.16628906 5.01191406 1.33257813 6.02382813 1.50390625 7.06640625 C2.49207697 14.95961529 2.00103034 22.99669396 1.87304688 30.93554688 C1.81299232 37.99725618 2.13986202 44.18417365 4 51 C4.625 54.75 4.625 54.75 4 58 C0.7816006 61.14670238 -2.66541746 62.75487259 -7.0625 63.5625 C-11.01688293 62.80527774 -13.613116 61.16760576 -17 59 C-17 56.36 -17 53.72 -17 51 C-16.319375 51.78375 -15.63875 52.5675 -14.9375 53.375 C-11.60799365 56.35030354 -9.38169698 57.28299504 -5 58 C-2.81816801 57.09977979 -2.81816801 57.09977979 -1 56 C-1.5179383 48.45132474 -2.05675459 40.9211658 -2.9140625 33.40234375 C-3.00779398 30.78212284 -2.60739265 28.54289012 -2 26 C-1.34 26 -0.68 26 0 26 C-0.05329468 24.92516357 -0.05329468 24.92516357 -0.10766602 23.82861328 C-0.26489226 20.59431985 -0.41379944 17.35969614 -0.5625 14.125 C-0.61857422 12.99707031 -0.67464844 11.86914062 -0.73242188 10.70703125 C-0.78076172 9.63066406 -0.82910156 8.55429687 -0.87890625 7.4453125 C-0.9260376 6.45031738 -0.97316895 5.45532227 -1.02172852 4.43017578 C-1 2 -1 2 0 0 Z " fill="#CAC6B7" transform="translate(17,46)"/>
	

	<path d="M0 0 C0.99 0 1.98 0 3 0 C6.98608496 7.12138499 9.31444194 14.02443261 11 22 C11.66 21.01 12.32 20.02 13 19 C15.92879371 19.62759865 18.36095629 20.58622659 21 22 C21 19.69 21 17.38 21 15 C21.66 15 22.32 15 23 15 C22.94199219 15.73605469 22.88398437 16.47210938 22.82421875 17.23046875 C22.68592009 20.22167128 22.64397903 23.02468191 23 26 C24.62449243 27.70779973 26.29220027 29.37550757 28 31 C28.4848028 33.56313135 28.62390213 35.99124831 28.6640625 38.59765625 C28.81324859 41.10866933 28.81324859 41.10866933 30.5859375 43.05859375 C32 45 32 45 32.13671875 47.078125 C30.28174918 50.21436221 27.12543544 50.75140903 23.8125 51.75 C23.15185547 51.97042969 22.49121094 52.19085938 21.81054688 52.41796875 C17.76588554 53.70363603 14.23316349 54.23700449 10 54 C10.65934816 48.73450131 13.13014672 46.10041317 16.50390625 42.18359375 C18.37680856 39.89119599 18.37680856 39.89119599 18 36 C16.88625 35.7215625 16.88625 35.7215625 15.75 35.4375 C12.03102072 33.4934881 10.64206922 30.72344866 9 27 C7.90719475 23.19170076 7.26219468 19.3067669 6.578125 15.40820312 C6.42859375 14.64056641 6.2790625 13.87292969 6.125 13.08203125 C6.00382812 12.39343018 5.88265625 11.7048291 5.7578125 10.99536133 C4.91680521 8.37015905 4.91680521 8.37015905 1 5 C1 13.58 1 22.16 1 31 C0.67 31 0.34 31 0 31 C-1.12465313 24.69837216 -1.14890212 18.51483337 -1.125 12.125 C-1.12886719 11.06796875 -1.13273438 10.0109375 -1.13671875 8.921875 C-1.13542969 7.91898438 -1.13414063 6.91609375 -1.1328125 5.8828125 C-1.13168457 4.96902832 -1.13055664 4.05524414 -1.12939453 3.11376953 C-1 1 -1 1 0 0 Z " fill="#BCA85E" transform="translate(16,41)"/>
	

	<path d="M0 0 C1.65 0 3.3 0 5 0 C5.99 4.29 6.98 8.58 8 13 C8.99 13 9.98 13 11 13 C11.04898438 12.39671875 11.09796875 11.7934375 11.1484375 11.171875 C11.22320312 10.37265625 11.29796875 9.5734375 11.375 8.75 C11.44460937 7.96109375 11.51421875 7.1721875 11.5859375 6.359375 C12.01507113 3.914123 12.78600638 2.15163097 14 0 C15.32 0 16.64 0 18 0 C19.28614943 3.85844829 19.37171328 7.55841538 19.62109375 11.6015625 C19.74613281 12.39304687 19.87117188 13.18453125 20 14 C20.66 14.33 21.32 14.66 22 15 C22.29003906 13.86111328 22.29003906 13.86111328 22.5859375 12.69921875 C22.84632812 11.70535156 23.10671875 10.71148437 23.375 9.6875 C23.75785156 8.20830078 23.75785156 8.20830078 24.1484375 6.69921875 C25 4 25 4 27 1 C27.66 1 28.32 1 29 1 C30.52370112 5.77426351 31.31706112 10.17665151 31.65625 15.1796875 C31.7696875 15.78039063 31.883125 16.38109375 32 17 C32.66 17.33 33.32 17.66 34 18 C34 16.68 34 15.36 34 14 C34.99 14.33 35.98 14.66 37 15 C37.8125 16.9375 37.8125 16.9375 38 19 C36 21 36 21 33.375 21.125 C32.59125 21.08375 31.8075 21.0425 31 21 C29.21590198 17.93753253 28.77119979 15.77920727 28.875 12.25 C28.89304688 11.45078125 28.91109375 10.6515625 28.9296875 9.828125 C28.95289063 9.22484375 28.97609375 8.6215625 29 8 C28.01 8 27.02 8 26 8 C25.90912109 9.17369141 25.90912109 9.17369141 25.81640625 10.37109375 C25.73261719 11.38300781 25.64882812 12.39492188 25.5625 13.4375 C25.48128906 14.44683594 25.40007812 15.45617187 25.31640625 16.49609375 C25 19 25 19 24 20 C22.33382885 20.04063832 20.66611905 20.042721 19 20 C16.87953208 16.46588679 16.46800711 13.05606165 16 9 C15.34 9 14.68 9 14 9 C13.81824219 9.63808594 13.63648438 10.27617187 13.44921875 10.93359375 C13.07216797 12.17302734 13.07216797 12.17302734 12.6875 13.4375 C12.44386719 14.26121094 12.20023438 15.08492187 11.94921875 15.93359375 C11.63597656 16.61550781 11.32273438 17.29742187 11 18 C10.01 18.33 9.02 18.66 8 19 C7.34 18.67 6.68 18.34 6 18 C5.3671875 15.27734375 5.3671875 15.27734375 4.875 11.9375 C4.62363281 10.28041016 4.62363281 10.28041016 4.3671875 8.58984375 C4.24601562 7.73519531 4.12484375 6.88054688 4 6 C3.01 6 2.02 6 1 6 C0.34 9.3 -0.32 12.6 -1 16 C-3.475 16.495 -3.475 16.495 -6 17 C-6 16.34 -6 15.68 -6 15 C-6.66 15 -7.32 15 -8 15 C-8.66 13.02 -9.32 11.04 -10 9 C-11.65 9.33 -13.3 9.66 -15 10 C-14.90460937 10.62648438 -14.80921875 11.25296875 -14.7109375 11.8984375 C-14.60007812 12.71570312 -14.48921875 13.53296875 -14.375 14.375 C-14.25898437 15.18710937 -14.14296875 15.99921875 -14.0234375 16.8359375 C-14.01570313 17.55007812 -14.00796875 18.26421875 -14 19 C-14.66 19.66 -15.32 20.32 -16 21 C-18.4296875 20.92578125 -18.4296875 20.92578125 -21 20 C-22.6953125 17.85546875 -22.6953125 17.85546875 -24.125 15.1875 C-25.90683637 11.92722101 -27.69798494 8.92178834 -30 6 C-24.17464789 6.92676056 -24.17464789 6.92676056 -22.0625 7.8125 C-19.00265009 8.09066817 -17.19175662 6.55805836 -14.68359375 4.91015625 C-13 4 -13 4 -10 4 C-9.66226563 4.63808594 -9.32453125 5.27617187 -8.9765625 5.93359375 C-8.53054687 6.75988281 -8.08453125 7.58617187 -7.625 8.4375 C-7.18414062 9.26121094 -6.74328125 10.08492187 -6.2890625 10.93359375 C-5.16581441 13.13466578 -5.16581441 13.13466578 -3 14 C-2.86722656 13.07316406 -2.73445313 12.14632813 -2.59765625 11.19140625 C-2.42105469 9.99386719 -2.24445312 8.79632813 -2.0625 7.5625 C-1.80146484 5.77005859 -1.80146484 5.77005859 -1.53515625 3.94140625 C-1 1 -1 1 0 0 Z " fill="#B8B3AA" transform="translate(66,15)"/>
	

	<path d="M0 0 C3.7442725 1.48082908 3.7442725 1.48082908 4.90625 3.83984375 C5.20015625 4.87818359 5.20015625 4.87818359 5.5 5.9375 C6.29888327 8.74935888 6.62068413 9.73904209 9.078125 11.4296875 C11 13 11 13 11.390625 15.48046875 C11.34421875 16.37378906 11.2978125 17.26710938 11.25 18.1875 C11.21390625 19.08855469 11.1778125 19.98960938 11.140625 20.91796875 C11.09421875 21.60503906 11.0478125 22.29210937 11 23 C4.25 24.125 4.25 24.125 2 23 C1.91840426 18.83861737 2.01751476 15.0527516 3 11 C2.01 11 1.02 11 0 11 C0 14.3 0 17.6 0 21 C-4.69044459 22.83696979 -8.60139382 23.24287041 -13.625 23.1875 C-15.56246094 23.17783203 -15.56246094 23.17783203 -17.5390625 23.16796875 C-20.27743821 23.0350679 -22.39178855 22.68296282 -25 22 C-26.010625 22.185625 -27.02125 22.37125 -28.0625 22.5625 C-31 23 -31 23 -34 21 C-33.67 19.68 -33.34 18.36 -33 17 C-32.67 17.99 -32.34 18.98 -32 20 C-30.35 20 -28.7 20 -27 20 C-26.93941406 19.37351562 -26.87882812 18.74703125 -26.81640625 18.1015625 C-26.73261719 17.28429687 -26.64882812 16.46703125 -26.5625 15.625 C-26.48128906 14.81289063 -26.40007812 14.00078125 -26.31640625 13.1640625 C-26 11 -26 11 -25 9 C-24.01 9 -23.02 9 -22 9 C-21.93941406 9.61488281 -21.87882812 10.22976562 -21.81640625 10.86328125 C-21.73261719 11.67152344 -21.64882812 12.47976562 -21.5625 13.3125 C-21.48128906 14.11300781 -21.40007812 14.91351563 -21.31640625 15.73828125 C-21.04734307 18.16087179 -21.04734307 18.16087179 -20 21 C-18.35 21 -16.7 21 -15 21 C-14.67 20.34 -14.34 19.68 -14 19 C-14.33 18.01 -14.66 17.02 -15 16 C-15.45745235 10.1674826 -14.2249419 6.284237 -12 1 C-11.01 1 -10.02 1 -9 1 C-7.30167391 6.83799592 -6.74712807 11.93107371 -7 18 C-6.01 17.67 -5.02 17.34 -4 17 C-2.01515095 11.51247616 -1.08260662 5.72399459 0 0 Z " fill="#484848" transform="translate(117,14)"/>
	

	

	<path d="M0 0 C3 2 3 2 3.6875 3.625 C4.14471421 7.099828 4.05840231 10.49586168 4 14 C5.65 14 7.3 14 9 14 C9.66 11.03 10.32 8.06 11 5 C12.32 5 13.64 5 15 5 C15.33 8.63 15.66 12.26 16 16 C20.46818791 16.89363758 21.88012052 16.89078475 26 16 C26.66 16.33 27.32 16.66 28 17 C29.37548156 17.08308638 30.75485796 17.10736016 32.1328125 17.09765625 C32.93847656 17.09443359 33.74414062 17.09121094 34.57421875 17.08789062 C35.41597656 17.07951172 36.25773437 17.07113281 37.125 17.0625 C37.97449219 17.05798828 38.82398438 17.05347656 39.69921875 17.04882812 C41.79950909 17.03702874 43.8997633 17.01909306 46 17 C42.24528933 20.16492205 39.90567888 20.28301994 35 20 C35 21.32 35 22.64 35 24 C33.68 24 32.36 24 31 24 C31 22.68 31 21.36 31 20 C28.03 19.67 25.06 19.34 22 19 C22.33 20.32 22.66 21.64 23 23 C23.60528451 30.64347653 22.81682157 38.56448948 21 46 C20.01 46.495 20.01 46.495 19 47 C18.34786708 49.02463255 18.34786708 49.02463255 18 51 C19.65 51 21.3 51 23 51 C22.67 51.66 22.34 52.32 22 53 C20.35 52.67 18.7 52.34 17 52 C16.72744822 47.73002214 16.99514883 44.64500147 18.5 40.625 C20.13501021 36.09966368 20.74003307 31.78618793 20 27 C19.34 26.01 18.68 25.02 18 24 C15.48590969 30.36123316 13.51621228 36.16018724 13 43 C11.02 43.495 11.02 43.495 9 44 C9.99 43.505 9.99 43.505 11 43 C10.96519531 42.09507813 10.96519531 42.09507813 10.9296875 41.171875 C10.90261719 39.97304687 10.90261719 39.97304687 10.875 38.75 C10.85179688 37.96109375 10.82859375 37.1721875 10.8046875 36.359375 C11.02156796 33.73945904 11.81944882 32.32638026 13 30 C13.43473339 27.92830754 13.80654223 25.84272249 14.125 23.75 C14.29257813 22.67234375 14.46015625 21.5946875 14.6328125 20.484375 C14.75398438 19.66453125 14.87515625 18.8446875 15 18 C12.19574621 17.19519174 9.78641599 16.91143982 6.875 17 C3 17 3 17 1 16 C1.33 12.37 1.66 8.74 2 5 C0.68 5.33 -0.64 5.66 -2 6 C-1.125 1.125 -1.125 1.125 0 0 Z " fill="#282828" transform="translate(68,19)"/>
	

	<path d="M0 0 C1.32 0 2.64 0 4 0 C4.26554688 0.80824219 4.53109375 1.61648437 4.8046875 2.44921875 C5.15789063 3.51785156 5.51109375 4.58648437 5.875 5.6875 C6.22304688 6.74324219 6.57109375 7.79898437 6.9296875 8.88671875 C7.5773575 10.77063479 8.26463981 12.64240808 9.0234375 14.484375 C10.17881767 17.46063433 10.93470598 20.4765406 11.75 23.5625 C13.43103331 29.17224038 14.80007884 31.12344787 20 34 C22.01818578 37.82759372 23.63821992 41.65863906 24 46 C23.34 46.99 22.68 47.98 22 49 C20.203125 48.8203125 20.203125 48.8203125 18 48 C16.359375 45.7421875 16.359375 45.7421875 14.75 42.875 C11.89939992 38.11782974 9.01334655 34.86528668 4.6015625 31.53515625 C2.71275647 29.72466657 2.53435085 28.50574231 2 26 C0.0162233 24.71563266 0.0162233 24.71563266 -2 24 C-1.67 23.34 -1.34 22.68 -1 22 C-0.34 22.33 0.32 22.66 1 23 C1.33 22.01 1.66 21.02 2 20 C2.66 20 3.32 20 4 20 C4.99 20.99 5.98 21.98 7 23 C7 19.7 7 16.4 7 13 C6.34 13 5.68 13 5 13 C0.59225513 4.738041 0.59225513 4.738041 0 0 Z " fill="#C8C3B4" transform="translate(11,0)"/>
	

	

	<path d="M0 0 C2.25 -0.0625 2.25 -0.0625 5 1 C6.24955682 3.19764713 7.13505533 5.40231845 8.0078125 7.7734375 C9.04038609 10.0906302 10.22211055 11.24248751 12 13 C11.6875 15.1875 11.6875 15.1875 11 17 C7.98046652 14.30690258 5.81016907 11.99417267 4.3125 8.25 C3.3829432 4.91568604 3.3829432 4.91568604 1 4 C0.96261719 4.6290625 0.92523438 5.258125 0.88671875 5.90625 C0.43322879 11.81051149 -0.67976914 16.55250146 -3 22 C-3.99 22 -4.98 22 -6 22 C-6.66 16.39 -7.32 10.78 -8 5 C-8.99 5.33 -9.98 5.66 -11 6 C-12.03547047 9.02282643 -12.03547047 9.02282643 -12.6875 12.5625 C-12.93886719 13.76003906 -13.19023438 14.95757812 -13.44921875 16.19140625 C-13.63097656 17.11824219 -13.81273438 18.04507812 -14 19 C-14.66 19 -15.32 19 -16 19 C-16 20.32 -16 21.64 -16 23 C-16.99 22.67 -17.98 22.34 -19 22 C-19.66 16.72 -20.32 11.44 -21 6 C-23.90092502 8.90092502 -24.55461795 9.96517325 -25.6875 13.6875 C-25.93886719 14.49574219 -26.19023438 15.30398437 -26.44921875 16.13671875 C-26.63097656 16.75160156 -26.81273438 17.36648437 -27 18 C-28.4775961 13.35612655 -27.42842307 9.55257646 -26 5 C-24.5625 2.4375 -24.5625 2.4375 -23 1 C-22.01 1 -21.02 1 -20 1 C-18.19682779 4.96697886 -17.50797009 8.6822542 -17 13 C-15.19830227 10.29745341 -14.60635866 8.92139827 -13.9375 5.875 C-13 2 -13 2 -12 1 C-9.5625 0.8125 -9.5625 0.8125 -7 1 C-5 3 -5 3 -4.8046875 5.3828125 C-4.82789062 6.28773437 -4.85109375 7.19265625 -4.875 8.125 C-4.89304687 9.03507812 -4.91109375 9.94515625 -4.9296875 10.8828125 C-4.95289062 11.58148438 -4.97609375 12.28015625 -5 13 C-4.01 13 -3.02 13 -2 13 C-2.02320312 12.31292969 -2.04640625 11.62585937 -2.0703125 10.91796875 C-2.08835937 10.01691406 -2.10640625 9.11585937 -2.125 8.1875 C-2.14820312 7.29417969 -2.17140625 6.40085937 -2.1953125 5.48046875 C-2 3 -2 3 0 0 Z " fill="#D4D0C6" transform="translate(116,10)"/>
	

	<path d="M0 0 C3.63 0 7.26 0 11 0 C12.27319944 3.18299861 13.44894459 6.25543764 14.5 9.5 C15.55834265 12.71800633 16.68911476 15.87404289 18 19 C13.99245833 17.66415278 12.62523764 15.23106172 10 12 C9.34 11.67 8.68 11.34 8 11 C7.9175 11.598125 7.835 12.19625 7.75 12.8125 C7 15 7 15 4.99609375 16.06640625 C2.22084923 18.75475466 2.47063789 20.82675417 2.34179688 24.578125 C2.33212891 25.41859375 2.32246094 26.2590625 2.3125 27.125 C2.26959716 28.77350915 2.22403233 30.42195122 2.17578125 32.0703125 C2.15467285 32.88016602 2.13356445 33.69001953 2.11181641 34.52441406 C1.93779145 38.37728094 1.47352876 42.17327162 1 46 C0.67 46 0.34 46 0 46 C0 30.82 0 15.64 0 0 Z " fill="#FDFDFD" transform="translate(0,0)"/>
	

	<path d="M0 0 C1.32 0.33 2.64 0.66 4 1 C5.00196305 4.36142444 5.19748608 7.49907205 5.25 11 C5.27578125 12.03125 5.3015625 13.0625 5.328125 14.125 C4.96247126 17.32882325 4.14583332 18.65087721 2 21 C4.97 21 7.94 21 11 21 C11.99 16.05 12.98 11.1 14 6 C15.65 5.67 17.3 5.34 19 5 C18.67 5.99 18.34 6.98 18 8 C17.34 8 16.68 8 16 8 C15.76216797 9.33804688 15.76216797 9.33804688 15.51953125 10.703125 C15.28621094 11.87359375 15.05289063 13.0440625 14.8125 14.25 C14.59207031 15.41015625 14.37164062 16.5703125 14.14453125 17.765625 C12.78908441 21.59603449 11.44651324 22.91449724 8 25 C2.98415154 24.90880276 -0.65968616 23.4348102 -5 21 C-5 20.01 -5 19.02 -5 18 C-5.66 18 -6.32 18 -7 18 C-7.66 16.02 -8.32 14.04 -9 12 C-10.32 12 -11.64 12 -13 12 C-13 11.34 -13 10.68 -13 10 C-10.625 10.1875 -10.625 10.1875 -8 11 C-6.6875 13.5625 -6.6875 13.5625 -6 16 C-5.34 16 -4.68 16 -4 16 C-3.96261719 15.34773438 -3.92523438 14.69546875 -3.88671875 14.0234375 C-3.48506238 8.68377043 -2.83238391 4.6795908 0 0 Z " fill="#6A6867" transform="translate(109,46)"/>
	

	<path d="M0 0 C0.66 0 1.32 0 2 0 C3.80236292 4.86637988 5.1561574 9.54894055 5.9375 14.6875 C6.74823385 19.47149974 7.80597483 22.33626525 11 26 C13.10039331 27.38868516 13.10039331 27.38868516 15 28 C14.42042915 31.91210326 12.44583996 33.97866829 10 37 C7.825495 40.80538375 7 42.55505389 7 47 C8.32 47.33 9.64 47.66 11 48 C10.01 48.66 9.02 49.32 8 50 C6.5 49 6.5 49 5 47 C4.57627856 43.54667028 4.41487617 40.17024765 6 37 C5.34 37 4.68 37 4 37 C3.28038418 28.31320899 2.85631316 19.71700174 3 11 C2.67 11 2.34 11 2 11 C2 14.3 2 17.6 2 21 C1.34 21 0.68 21 0 21 C0 14.07 0 7.14 0 0 Z " fill="#E5E3DF" transform="translate(18,50)"/>
	

	<path d="M0 0 C0.33 0 0.66 0 1 0 C1.04898437 1.07121094 1.09796875 2.14242187 1.1484375 3.24609375 C1.22345294 4.64325639 1.2990013 6.0403905 1.375 7.4375 C1.4059375 8.14455078 1.436875 8.85160156 1.46875 9.58007812 C1.57280629 11.39239188 1.77919892 13.19817988 2 15 C2.66 15.33 3.32 15.66 4 16 C5.71842058 20.94311104 6.98212586 26.89294555 6 32 C2.7816006 35.14670238 -0.66541746 36.75487259 -5.0625 37.5625 C-9.01688293 36.80527774 -11.613116 35.16760576 -15 33 C-15 30.36 -15 27.72 -15 25 C-14.319375 25.78375 -13.63875 26.5675 -12.9375 27.375 C-9.60799365 30.35030354 -7.38169698 31.28299504 -3 32 C-0.81816801 31.09977979 -0.81816801 31.09977979 1 30 C0.4820617 22.45132474 -0.05675459 14.9211658 -0.9140625 7.40234375 C-1.00779398 4.78212284 -0.60739265 2.54289012 0 0 Z " fill="#CBC5B4" transform="translate(15,72)"/>
	

	<path d="M0 0 C4.55555556 0.55555556 4.55555556 0.55555556 6 2 C6.04063832 3.66617115 6.042721 5.33388095 6 7 C6.66 7 7.32 7 8 7 C8 7.66 8 8.32 8 9 C9.65 8.67 11.3 8.34 13 8 C13 6.35 13 4.7 13 3 C14.64826111 5.96687001 15.44271087 8.65626525 16 12 C10.95531271 14.21474076 8.14089313 13.85072153 3 12 C2.649375 12.515625 2.29875 13.03125 1.9375 13.5625 C0 15 0 15 -3.6875 14.6875 C-4.780625 14.460625 -5.87375 14.23375 -7 14 C-7 13.34 -7 12.68 -7 12 C-5.35 12 -3.7 12 -2 12 C-1.26209243 9.13035945 -0.9493401 7.24204175 -1.5625 4.3125 C-1.706875 3.549375 -1.85125 2.78625 -2 2 C-1.34 1.34 -0.68 0.68 0 0 Z " fill="#2A2A2A" transform="translate(52,23)"/>
	

	<path d="M0 0 C5.06189551 0.4745527 9.16832351 2.75845156 13 6 C15.35389189 9.51878719 16.64975884 13.79710613 17 18 C16.34 18.99 15.68 19.98 15 21 C12.43737294 20.6465342 11.22529498 20.22529498 9.375 18.375 C8 16 8 16 7.1875 12.625 C6.03057595 9.0933371 5.44100652 8.16577195 2.875 5.75 C1.92625 4.8425 0.9775 3.935 0 3 C0 2.01 0 1.02 0 0 Z " fill="#DCD9D1" transform="translate(18,28)"/>
	

	<path d="M0 0 C1.9375 0.375 1.9375 0.375 4 1 C5.35091528 3.70183055 5.33858058 6.11808206 5.5625 9.125 C5.68818359 10.76855469 5.68818359 10.76855469 5.81640625 12.4453125 C5.87699219 13.28835937 5.93757813 14.13140625 6 15 C5.01 15 4.02 15 3 15 C3.33 16.32 3.66 17.64 4 19 C4.66 19 5.32 19 6 19 C7.92200557 26.43175487 7.92200557 26.43175487 8.4375 30.1875 C8.84929573 33.09809839 8.84929573 33.09809839 10.625 35.625 C12 38 12 38 11.75 40.25 C11 42 11 42 10 43 C8.42393803 43.34731736 6.83862922 43.65314477 5.25 43.9375 C2.38669045 44.47843774 -0.04602941 45.01883021 -2.75 46.125 C-5.58379506 47.22703141 -7.98781792 47.14010149 -11 47 C-7.4473651 45.01837953 -3.78019093 43.97562792 0.125 42.875 C1.36507812 42.52179688 2.60515625 42.16859375 3.8828125 41.8046875 C7 41 7 41 9 41 C8.59484351 36.74206327 8.59484351 36.74206327 6.4375 33.1875 C4.43499943 30.14021652 4.89963618 27.67741137 5.1875 24.12109375 C4.94504748 21.37834962 3.92154452 20.88816782 2 19 C0.12906745 12.8069131 -0.24256893 6.42807668 0 0 Z " fill="#E5E3DF" transform="translate(40,50)"/>
	

	<path d="M0 0 C0.495 1.485 0.495 1.485 1 3 C0.34 3.33 -0.32 3.66 -1 4 C-1.31520039 5.7394392 -1.55272078 7.49327552 -1.75 9.25 C-2.379879 13.00486008 -2.82922276 15.57183516 -5.6875 18.1875 C-9.65874429 20.36044499 -11.53282245 20.69318272 -16 20 C-19.96456941 18.80244714 -23.01742417 17.44221214 -25.39453125 13.953125 C-26.37714054 11.99485066 -27.241991 10.05460333 -28 8 C-28.226875 9.216875 -28.45375 10.43375 -28.6875 11.6875 C-29.77903038 15.98492381 -31.34007688 18.33823773 -35 21 C-38.3125 21.3125 -38.3125 21.3125 -41 21 C-41 20.67 -41 20.34 -41 20 C-40.071875 19.7525 -39.14375 19.505 -38.1875 19.25 C-34.65342972 17.86409008 -33.64286793 17.37220258 -32 14 C-31.47296888 11.00832334 -31.18778904 8.03052658 -31 5 C-29.68 5 -28.36 5 -27 5 C-26.34 6.98 -25.68 8.96 -25 11 C-24.34 11 -23.68 11 -23 11 C-22.67 11.99 -22.34 12.98 -22 14 C-18.42513103 16.15004052 -14.82819438 17 -10.6875 17 C-7.8866902 16.20720391 -7.8866902 16.20720391 -6.25 13.9375 C-4.96019848 10.90646644 -4.25201803 8.0069454 -3.5390625 4.8046875 C-2.87143446 2.56958494 -1.88037984 1.36754897 0 0 Z " fill="#D7D4CB" transform="translate(127,53)"/>
	

	<path d="M0 0 C5.73913043 0.91304348 5.73913043 0.91304348 8.0625 1.6875 C10.79585931 2.1283644 12.54515402 1.15923283 15 0 C14.979375 1.03125 14.95875 2.0625 14.9375 3.125 C14.88930236 6.92703318 14.88930236 6.92703318 15.625 10.3125 C15.74875 11.199375 15.8725 12.08625 16 13 C15.34 13.66 14.68 14.32 14 15 C11.5703125 14.92578125 11.5703125 14.92578125 9 14 C7.3046875 11.85546875 7.3046875 11.85546875 5.875 9.1875 C4.09316363 5.92722101 2.30201506 2.92178834 0 0 Z " fill="#D6D3CA" transform="translate(36,21)"/>
	

	<path d="M0 0 C0.8971875 0.5259375 0.8971875 0.5259375 1.8125 1.0625 C2.00426824 6.06978169 2.00677 10.73858543 0.8125 15.625 C-0.86292644 22.97563854 -0.34392445 30.57150677 -0.1875 38.0625 C0.8025 38.3925 1.7925 38.7225 2.8125 39.0625 C0.875 39.625 0.875 39.625 -1.1875 40.0625 C-4.24653643 37.00346357 -3.86543587 29.18315613 -4.1875 25.0625 C-3.89394463 21.90328509 -3.15860358 19.0746656 -2.1875 16.0625 C-0.29476963 9.62547935 -0.29476963 9.62547935 -1.1875 3.0625 C-2.1775 3.3925 -3.1675 3.7225 -4.1875 4.0625 C-5.21450444 6.39141096 -5.21450444 6.39141096 -5.875 9.125 C-6.12636719 10.04410156 -6.37773438 10.96320312 -6.63671875 11.91015625 C-6.81847656 12.62042969 -7.00023437 13.33070312 -7.1875 14.0625 C-7.5175 14.0625 -7.8475 14.0625 -8.1875 14.0625 C-8.26903933 12.48003293 -8.32693557 10.89633727 -8.375 9.3125 C-8.40980469 8.43078125 -8.44460937 7.5490625 -8.48046875 6.640625 C-8.13012147 3.55756897 -7.32751467 2.27734036 -5.1875 0.0625 C-2.1875 -0.9375 -2.1875 -0.9375 0 0 Z " fill="#383838" transform="translate(63.1875,46.9375)"/>
	

	<path d="M0 0 C0.99 0 1.98 0 3 0 C2.67 0.99 2.34 1.98 2 3 C1.34 2.67 0.68 2.34 0 2 C0.144375 2.78117187 0.28875 3.56234375 0.4375 4.3671875 C1.83923248 13.108547 2.30472073 21.77427819 2.4375 30.625 C2.47166016 31.76308105 2.50582031 32.90116211 2.54101562 34.07373047 C2.5896335 43.13961348 2.5896335 43.13961348 -0.40234375 46.2734375 C-3 48 -3 48 -5 48 C-5 46.68 -5 45.36 -5 44 C-4.01 43.34 -3.02 42.68 -2 42 C-0.59822919 37.68454844 -0.88836817 33.16278646 -0.9375 28.671875 C-0.94317993 27.48745819 -0.94317993 27.48745819 -0.94897461 26.27911377 C-0.96114676 23.76935252 -0.97979146 21.25970862 -1 18.75 C-1.02649118 15.43229509 -1.04651198 12.11464521 -1.0625 8.796875 C-1.07079834 8.0302655 -1.07909668 7.26365601 -1.08764648 6.47381592 C-1.0962022 4.64899679 -1.05335066 2.82405915 -1 1 C-0.67 0.67 -0.34 0.34 0 0 Z " fill="#BCA85D" transform="translate(5,19)"/>
	

	<path d="M0 0 C0.99 0 1.98 0 3 0 C4.69832609 5.83799592 5.25287193 10.93107371 5 17 C5.99 16.67 6.98 16.34 8 16 C9.22969878 12.48809191 9.22969878 12.48809191 10 9 C10.33 9 10.66 9 11 9 C10.88590407 10.45922693 10.75834456 11.91740598 10.625 13.375 C10.55539063 14.18710937 10.48578125 14.99921875 10.4140625 15.8359375 C10 18 10 18 8 20 C6.02 20 4.04 20 2 20 C2 16.04 2 12.08 2 8 C1.34 8 0.68 8 0 8 C-0.66 9.98 -1.32 11.96 -2 14 C-2.33 14 -2.66 14 -3 14 C-2.58846263 9.02906176 -2.20399168 4.55491614 0 0 Z " fill="#83807F" transform="translate(105,15)"/>
	

	<path d="M0 0 C0.66 0 1.32 0 2 0 C3.52370112 4.77426351 4.31706112 9.17665151 4.65625 14.1796875 C4.82640625 15.08074219 4.82640625 15.08074219 5 16 C5.66 16.33 6.32 16.66 7 17 C7 15.68 7 14.36 7 13 C7.99 13.33 8.98 13.66 10 14 C10.8125 15.9375 10.8125 15.9375 11 18 C9 20 9 20 6.375 20.125 C5.59125 20.08375 4.8075 20.0425 4 20 C2.21590198 16.93753253 1.77119979 14.77920727 1.875 11.25 C1.89304687 10.45078125 1.91109375 9.6515625 1.9296875 8.828125 C1.95289062 8.22484375 1.97609375 7.6215625 2 7 C1.01 7 0.02 7 -1 7 C-1.06058594 7.78246094 -1.12117188 8.56492187 -1.18359375 9.37109375 C-1.26738281 10.38300781 -1.35117188 11.39492188 -1.4375 12.4375 C-1.51871094 13.44683594 -1.59992188 14.45617187 -1.68359375 15.49609375 C-2 18 -2 18 -3 19 C-4.66617115 19.04063832 -6.33388095 19.042721 -8 19 C-8.33 17.68 -8.66 16.36 -9 15 C-8.34 15.66 -7.68 16.32 -7 17 C-6.01 17 -5.02 17 -4 17 C-3.87882812 16.02417969 -3.75765625 15.04835938 -3.6328125 14.04296875 C-3.38144531 12.13451172 -3.38144531 12.13451172 -3.125 10.1875 C-2.96257812 8.92292969 -2.80015625 7.65835937 -2.6328125 6.35546875 C-2 3 -2 3 0 0 Z " fill="#888483" transform="translate(93,16)"/>
	

	<path d="M0 0 C11.30935252 3.86330935 11.30935252 3.86330935 14 9 C14.31033868 12.16545451 14.42662219 14.14675563 13 17 C12.01 17 11.02 17 10 17 C9.79375 15.72125 9.5875 14.4425 9.375 13.125 C8.90765968 10.91475823 8.90765968 10.91475823 8 9 C5.06201446 7.60380471 5.06201446 7.60380471 2 7 C0 4 0 4 0 0 Z " fill="#A98E21" transform="translate(28,66)"/>
	

	<path d="M0 0 C7.24799862 2.61685461 7.24799862 2.61685461 9.09375 6.01171875 C9.75082175 8.00078921 10.37704372 9.99998248 11 12 C11.99 12.33 12.98 12.66 14 13 C15 15.5 15 15.5 16 18 C16.99 18.33 17.98 18.66 19 19 C19 19.66 19 20.32 19 21 C17.68 21.33 16.36 21.66 15 22 C14.67 23.98 14.34 25.96 14 28 C10.75196681 25.17106787 9.31769017 23.34176559 9 19 C9.20625 18.154375 9.4125 17.30875 9.625 16.4375 C10.28613941 13.9495754 10.28613941 13.9495754 8.6875 12 C7.8521875 11.01 7.8521875 11.01 7 10 C6.71125 9.154375 6.4225 8.30875 6.125 7.4375 C4.69135461 4.33126833 2.93319499 3.62097618 0 2 C0 1.34 0 0.68 0 0 Z " fill="#666463" transform="translate(24,28)"/>
	

	<path d="M0 0 C1.8125 0.5 1.8125 0.5 4 2 C4.87759196 4.00160136 5.53070011 6.0318053 6.20703125 8.109375 C7.24346472 10.58047746 8.87020556 11.45773506 11 13 C11.25 15.6875 11.25 15.6875 11 18 C9.02 18.66 7.04 19.32 5 20 C4.20439236 17.08500057 3.74677501 14.25438581 3.4375 11.25 C3.35371094 10.45078125 3.26992187 9.6515625 3.18359375 8.828125 C3.12300781 8.22484375 3.06242187 7.6215625 3 7 C1.68 7.99 0.36 8.98 -1 10 C-1.125 2.25 -1.125 2.25 0 0 Z " fill="#8C8887" transform="translate(117,14)"/>
	

	

	

	<path d="M0 0 C2.125 0.375 2.125 0.375 4 1 C3.67 2.32 3.34 3.64 3 5 C3 4.01 3 3.02 3 2 C2.01 2.33 1.02 2.66 0 3 C0.01047363 4.05912598 0.02094727 5.11825195 0.03173828 6.20947266 C0.06806788 10.1567036 0.09094748 14.10391989 0.10986328 18.05126953 C0.1198914 19.75637298 0.13351726 21.46145936 0.15087891 23.16650391 C0.17526803 25.62406642 0.18651512 28.08140061 0.1953125 30.5390625 C0.20563507 31.29555084 0.21595764 32.05203918 0.22659302 32.83145142 C0.22752066 37.25461954 -0.12729935 40.96284019 -2 45 C-3.485 45.495 -3.485 45.495 -5 46 C-4.52433594 44.50533203 -4.52433594 44.50533203 -4.0390625 42.98046875 C-2.93364905 39.09202584 -2.58889726 35.35674266 -2.375 31.3125 C-2.33560303 30.59570068 -2.29620605 29.87890137 -2.25561523 29.14038086 C-1.91942634 22.2370559 -1.9620822 15.33341919 -2.12451172 8.42504883 C-2.15564277 6.28319 -2.08628732 4.14034644 -2 2 C-1.34 1.34 -0.68 0.68 0 0 Z " fill="#C9C4B5" transform="translate(5,17)"/>
	

	<path d="M0 0 C0.66 0 1.32 0 2 0 C4.60018816 3.90028225 4.15085514 7.47434569 4 12 C5.98 11.67 7.96 11.34 10 11 C10 12.65 10 14.3 10 16 C3.25 17.125 3.25 17.125 1 16 C0.91840426 11.83861737 1.01751476 8.0527516 2 4 C1.01 4 0.02 4 -1 4 C-1 7.3 -1 10.6 -1 14 C-1.99 14 -2.98 14 -4 14 C-3.67 13.67 -3.34 13.34 -3 13 C-2.71606022 10.48510484 -2.5518876 7.97010418 -2.37890625 5.4453125 C-2 3 -2 3 0 0 Z " fill="#303030" transform="translate(118,21)"/>
	

	<path d="M0 0 C2.25 -0.3125 2.25 -0.3125 5 0 C7.84702966 2.76450706 8.924271 4.35403163 9.390625 8.33203125 C9.32101563 10.05486328 9.32101563 10.05486328 9.25 11.8125 C9.21390625 12.97394531 9.1778125 14.13539062 9.140625 15.33203125 C9.07101563 16.65267578 9.07101563 16.65267578 9 18 C8.34 18 7.68 18 7 18 C6.34 14.37 5.68 10.74 5 7 C4.01 7 3.02 7 2 7 C1.34 8.65 0.68 10.3 0 12 C-1.21724428 8.04395608 -1.89679663 3.79359325 0 0 Z " fill="#232323" transform="translate(107,40)"/>
	

	<path d="M0 0 C0.66 0 1.32 0 2 0 C2.17015625 0.60585937 2.3403125 1.21171875 2.515625 1.8359375 C3.83605163 6.40124235 5.28047852 10.80507852 7.125 15.1875 C8.77965005 19.18518504 9.62590005 22.69785054 10 27 C12.64 27.33 15.28 27.66 18 28 C19.09658936 31.28976808 18.79953138 32.71303767 18 36 C17.814375 35.4225 17.62875 34.845 17.4375 34.25 C15.66189317 31.47078931 13.52414252 30.64173322 10.6796875 29.11328125 C6.70579104 26.47941964 5.96439094 22.07466442 5.0625 17.6875 C4.91167969 16.924375 4.76085937 16.16125 4.60546875 15.375 C3.7580278 12.05084452 2.33243821 9.1040459 0.8046875 6.04296875 C0 4 0 4 0 0 Z " fill="#333333" transform="translate(15,0)"/>
	

	<path d="M0 0 C1.36736512 3.00820327 2.0591255 5.44344128 2.5 8.75 C2.665 9.8225 2.83 10.895 3 12 C3.66 12.33 4.32 12.66 5 13 C4.34 14.65 3.68 16.3 3 18 C2.67 18 2.34 18 2 18 C1.49487756 16.39743892 0.99608373 14.79288208 0.5 13.1875 C0.2215625 12.29417969 -0.056875 11.40085937 -0.34375 10.48046875 C-1 8 -1 8 -1 5 C-3.67901932 7.31881505 -4.66204403 9.31814468 -5.6875 12.6875 C-5.93886719 13.49574219 -6.19023438 14.30398437 -6.44921875 15.13671875 C-6.63097656 15.75160156 -6.81273438 16.36648437 -7 17 C-8.4775961 12.35612655 -7.42842307 8.55257646 -6 4 C-3.75609756 0 -3.75609756 0 0 0 Z " fill="#DBD8D0" transform="translate(96,11)"/>
	

	<path d="M0 0 C1.32 0.33 2.64 0.66 4 1 C3.67 1.99 3.34 2.98 3 4 C2.01 4 1.02 4 0 4 C-0.66 7.3 -1.32 10.6 -2 14 C-3.65 14.33 -5.3 14.66 -7 15 C-7 14.34 -7 13.68 -7 13 C-7.66 13 -8.32 13 -9 13 C-9.66 11.02 -10.32 9.04 -11 7 C-12.65 7 -14.3 7 -16 7 C-15.6875 5.125 -15.6875 5.125 -15 3 C-14.01 2.34 -13.02 1.68 -12 1 C-8.22641509 6.53459119 -8.22641509 6.53459119 -6.875 9.3125 C-6.11181389 11.1891646 -6.11181389 11.1891646 -4 12 C-3.81824219 11.07767578 -3.81824219 11.07767578 -3.6328125 10.13671875 C-3.46523438 9.32847656 -3.29765625 8.52023438 -3.125 7.6875 C-2.96257812 6.88699219 -2.80015625 6.08648437 -2.6328125 5.26171875 C-2 3 -2 3 0 0 Z " fill="#938E8E" transform="translate(67,17)"/>
	

	<path d="M0 0 C1.32 0 2.64 0 4 0 C4.26554688 0.80824219 4.53109375 1.61648437 4.8046875 2.44921875 C5.15789063 3.51785156 5.51109375 4.58648437 5.875 5.6875 C6.39707031 7.27111328 6.39707031 7.27111328 6.9296875 8.88671875 C7.58241281 10.78533945 8.27375559 12.67194553 9.03125 14.53125 C10.10062018 17.25641916 10.8751405 19.9834846 11.625 22.8125 C11.88539062 23.78832031 12.14578125 24.76414062 12.4140625 25.76953125 C12.60742188 26.50558594 12.80078125 27.24164062 13 28 C10.55078125 26.88671875 10.55078125 26.88671875 8 25 C7.29296875 22.08203125 7.29296875 22.08203125 7.1875 18.8125 C7.13980469 17.72582031 7.09210937 16.63914062 7.04296875 15.51953125 C7.02878906 14.68808594 7.01460937 13.85664063 7 13 C6.34 13 5.68 13 5 13 C0.59225513 4.738041 0.59225513 4.738041 0 0 Z " fill="#898585" transform="translate(11,0)"/>
	

	

	<path d="M0 0 C3 2 3 2 3.6875 3.625 C4.14471421 7.099828 4.05840231 10.49586168 4 14 C5.65 14 7.3 14 9 14 C9.33 11.69 9.66 9.38 10 7 C10.33 7 10.66 7 11 7 C11.35807422 13.32597793 11.35807422 13.32597793 9.9375 16 C6.86664787 17.58495594 4.27813225 16.68036707 1 16 C1.33 12.37 1.66 8.74 2 5 C0.68 5.33 -0.64 5.66 -2 6 C-1.125 1.125 -1.125 1.125 0 0 Z " fill="#403F3F" transform="translate(68,19)"/>
	

	<path d="M0 0 C1.8125 0.125 1.8125 0.125 4 1 C7.06366425 5.4252928 7.43031351 9.60627021 7.69140625 14.828125 C7.80778537 17.20818818 7.80778537 17.20818818 10 19 C10.33 17.02 10.66 15.04 11 13 C11.33 13 11.66 13 12 13 C12.33 16.63 12.66 20.26 13 24 C12.01 24 11.02 24 10 24 C5.67588386 18.84763276 3.51782697 13.64151586 3.2109375 6.984375 C2.91090862 4.16188109 1.66708755 2.2469441 0 0 Z " fill="#393939" transform="translate(43,48)"/>
	

	<path d="M0 0 C2.25 -0.0625 2.25 -0.0625 5 1 C6.24955682 3.19764713 7.13505533 5.40231845 8.0078125 7.7734375 C9.04038609 10.0906302 10.22211055 11.24248751 12 13 C11.6875 15.1875 11.6875 15.1875 11 17 C5.64466943 12.77210744 4.8622489 8.62773407 4 2 C3.01 2.33 2.02 2.66 1 3 C0.34 6.3 -0.32 9.6 -1 13 C-1.33 13 -1.66 13 -2 13 C-2.05416188 11.39620659 -2.09286638 9.79188594 -2.125 8.1875 C-2.14820312 7.29417969 -2.17140625 6.40085937 -2.1953125 5.48046875 C-2 3 -2 3 0 0 Z " fill="#E0DED8" transform="translate(116,10)"/>
	

	<path d="M0 0 C1.9375 0.375 1.9375 0.375 4 1 C5.35091528 3.70183055 5.33858058 6.11808206 5.5625 9.125 C5.64628906 10.22070312 5.73007812 11.31640625 5.81640625 12.4453125 C5.87699219 13.28835937 5.93757813 14.13140625 6 15 C4.68 15 3.36 15 2 15 C0.2520497 9.75614911 -0.19392201 5.52677733 0 0 Z " fill="#DDDAD3" transform="translate(40,50)"/>
	

	<path d="M0 0 C1.670625 0.061875 1.670625 0.061875 3.375 0.125 C4.95755197 4.45064205 5.82644652 8.553721 6.375 13.125 C3.80504926 11.84002463 3.47065537 10.62587627 2.25 8.0625 C1.89679687 7.32902344 1.54359375 6.59554688 1.1796875 5.83984375 C0.91414063 5.27394531 0.64859375 4.70804688 0.375 4.125 C-1.605 5.115 -3.585 6.105 -5.625 7.125 C-5.75 4.75 -5.75 4.75 -5.625 2.125 C-3.625 0.125 -3.625 0.125 0 0 Z " fill="#E1DFDA" transform="translate(54.625,14.875)"/>
	

	

	<path d="M0 0 C4.47789483 1.75917297 7.06264443 4.89094996 9 9.25 C9.33 9.8275 9.66 10.405 10 11 C11.32 11.33 12.64 11.66 14 12 C13.34 9.36 12.68 6.72 12 4 C12.99 4 13.98 4 15 4 C15.22174933 5.45635371 15.42698698 6.91522956 15.625 8.375 C15.74101563 9.18710937 15.85703125 9.99921875 15.9765625 10.8359375 C15.98429687 11.55007812 15.99203125 12.26421875 16 13 C15.34 13.66 14.68 14.32 14 15 C11.5703125 14.92578125 11.5703125 14.92578125 9 14 C7.3046875 11.85546875 7.3046875 11.85546875 5.875 9.1875 C4.09316363 5.92722101 2.30201506 2.92178834 0 0 Z " fill="#8A8685" transform="translate(36,21)"/>
	

	<path d="M0 0 C2.5 0.3125 2.5 0.3125 5 1 C6.35439668 3.70879335 6.06501451 6.00933268 6 9 C4 6 4 6 4 3 C2.68 3 1.36 3 0 3 C-0.18175781 3.92683594 -0.36351563 4.85367187 -0.55078125 5.80859375 C-0.80214844 7.00613281 -1.05351563 8.20367187 -1.3125 9.4375 C-1.55613281 10.63246094 -1.79976563 11.82742187 -2.05078125 13.05859375 C-2.36402344 14.02925781 -2.67726563 14.99992187 -3 16 C-3.99 16.33 -4.98 16.66 -6 17 C-6.495 14.525 -6.495 14.525 -7 12 C-6.01 12.495 -6.01 12.495 -5 13 C-4.72285156 12.14535156 -4.44570312 11.29070313 -4.16015625 10.41015625 C-3.79792969 9.30542969 -3.43570313 8.20070313 -3.0625 7.0625 C-2.70285156 5.96035156 -2.34320313 4.85820312 -1.97265625 3.72265625 C-1 1 -1 1 0 0 Z " fill="#E5E3DF" transform="translate(80,12)"/>
	

	<path d="M0 0 C1.32 0 2.64 0 4 0 C4.1959375 0.68964844 4.391875 1.37929688 4.59375 2.08984375 C6.98449054 9.6021276 10.39969272 14.49484357 16 20 C13 20 13 20 11.1328125 18.34765625 C0 5.6770428 0 5.6770428 0 0 Z " fill="#A09C99" transform="translate(20,0)"/>
	

	

	<path d="M0 0 C4.76797762 3.51324667 4.76797762 3.51324667 5.91796875 5.92578125 C7.22332365 8.42810418 8.7480991 9.67211715 10.9375 11.4375 C13.99029612 14.02405089 16.39147487 16.24677469 18 20 C17.67 20.66 17.34 21.32 17 22 C16.67128906 21.50371094 16.34257812 21.00742187 16.00390625 20.49609375 C12.5420517 15.55192749 8.89429039 12.10280211 3.953125 8.640625 C1.84166529 6.86699884 0.95134787 5.57066339 0 3 C0 2.01 0 1.02 0 0 Z " fill="#BDA95E" transform="translate(8,22)"/>
	

	<path d="M0 0 C0.33 0 0.66 0 1 0 C1 3.63 1 7.26 1 11 C-2 10 -2 10 -3.4375 7.5 C-4.88752433 4.53643956 -4.88752433 4.53643956 -9 4 C-9.33 6.97 -9.66 9.94 -10 13 C-10.33 13 -10.66 13 -11 13 C-11.0270043 11.54176788 -11.04639787 10.08339325 -11.0625 8.625 C-11.07410156 7.81289063 -11.08570312 7.00078125 -11.09765625 6.1640625 C-11 4 -11 4 -10 2 C-7.1875 1.75 -7.1875 1.75 -4 2 C-2.125 4 -2.125 4 -1 6 C-0.67 4.02 -0.34 2.04 0 0 Z " fill="#333333" transform="translate(105,52)"/>
	

	<path d="M0 0 C0.99 0 1.98 0 3 0 C3 3.96 3 7.92 3 12 C1.68 12.33 0.36 12.66 -1 13 C-1.02696365 11.20841511 -1.04637917 9.41671527 -1.0625 7.625 C-1.07410156 6.62726562 -1.08570312 5.62953125 -1.09765625 4.6015625 C-1 2 -1 2 0 0 Z " fill="#C4C0B7" transform="translate(109,48)"/>
	

	<path d="M0 0 C1.84228293 0.20113532 3.67580379 0.48574321 5.5 0.8125 C6.5003125 0.98394531 7.500625 1.15539063 8.53125 1.33203125 C9.75328125 1.66267578 9.75328125 1.66267578 11 2 C11.33 2.66 11.66 3.32 12 4 C10.23103898 4.36340286 8.45973374 4.71540883 6.6875 5.0625 C5.70136719 5.25972656 4.71523438 5.45695312 3.69921875 5.66015625 C1 6 1 6 -2 5 C-1.125 1.125 -1.125 1.125 0 0 Z " fill="#222222" transform="translate(51,39)"/>
	

	<path d="M0 0 C0.33 0 0.66 0 1 0 C1.46425354 4.64253544 1.80175799 8.65924647 -1.0625 12.5625 C-4 15 -4 15 -7.75 15.4375 C-11 15 -11 15 -12 14 C-12.37086093 8.1589404 -12.37086093 8.1589404 -12 6 C-11.01 5.34 -10.02 4.68 -9 4 C-9 6.97 -9 9.94 -9 13 C-6.59122743 12.88658466 -6.59122743 12.88658466 -4 12 C-0.95166681 8.29845255 -0.46007655 4.6927808 0 0 Z " fill="#84817F" transform="translate(95,58)"/>
	

	<path d="M0 0 C0.99 0.33 1.98 0.66 3 1 C3.3125 4.1875 3.3125 4.1875 3 8 C0.5 10.9375 0.5 10.9375 -2 13 C-2.19294408 8.17639811 -1.75747614 4.50353262 0 0 Z " fill="#C3BEB1" transform="translate(85,48)"/>
	

	<path d="M0 0 C0.66 0 1.32 0 2 0 C2 0.66 2 1.32 2 2 C1.34 2 0.68 2 0 2 C0.08378906 3.13179687 0.16757813 4.26359375 0.25390625 5.4296875 C0.35706608 6.91143781 0.45991453 8.39320982 0.5625 9.875 C0.61857422 10.62136719 0.67464844 11.36773437 0.73242188 12.13671875 C1.11328125 17.7734375 1.11328125 17.7734375 0 20 C-0.66 20 -1.32 20 -2 20 C-2.05379226 17.04142591 -2.09357093 14.08382279 -2.125 11.125 C-2.14175781 10.28324219 -2.15851563 9.44148438 -2.17578125 8.57421875 C-2.18222656 7.76855469 -2.18867187 6.96289062 -2.1953125 6.1328125 C-2.20578613 5.38918457 -2.21625977 4.64555664 -2.22705078 3.87939453 C-2 2 -2 2 0 0 Z " fill="#D9D6CD" transform="translate(72,60)"/>
	

	<path d="M0 0 C1.98 0.495 1.98 0.495 4 1 C5.29767833 4.89303499 5.48158553 8.94665514 5 13 C3.5 16 3.5 16 2 18 C1.01 17.67 0.02 17.34 -1 17 C-1 16.34 -1 15.68 -1 15 C-0.01 14.67 0.98 14.34 2 14 C2.33 10.04 2.66 6.08 3 2 C2.01 2 1.02 2 0 2 C-0.33 2.66 -0.66 3.32 -1 4 C-0.67 2.68 -0.34 1.36 0 0 Z " fill="#827E7E" transform="translate(109,46)"/>
	

	<path d="M0 0 C2.3125 0.875 2.3125 0.875 3.3125 2.875 C3.35272391 5.2079866 3.35570247 7.54206666 3.3125 9.875 C2.9825 9.875 2.6525 9.875 2.3125 9.875 C1.9825 7.565 1.6525 5.255 1.3125 2.875 C-0.3375 3.205 -1.9875 3.535 -3.6875 3.875 C-4.3475 7.175 -5.0075 10.475 -5.6875 13.875 C-6.0175 13.875 -6.3475 13.875 -6.6875 13.875 C-7.30676606 4.86123853 -7.30676606 4.86123853 -5 1.1875 C-2.6875 -0.125 -2.6875 -0.125 0 0 Z " fill="#E5E3DF" transform="translate(69.6875,12.125)"/>
	

	<path d="M0 0 C7.18688892 2.59479125 7.18688892 2.59479125 9.1640625 6.01171875 C9.86335632 7.9789241 10.4395129 9.98884039 11 12 C11.33 12.33 11.66 12.66 12 13 C12.1875 16.4375 12.1875 16.4375 12 20 C11.34 20.66 10.68 21.32 10 22 C10 20.68 10 19.36 10 18 C9.47193551 13.24741961 7.62458312 8.97140866 5 5 C2.39975951 3.13689678 2.39975951 3.13689678 0 2 C0 1.34 0 0.68 0 0 Z " fill="#908B8B" transform="translate(24,28)"/>
	

	<path d="M0 0 C1.65 0 3.3 0 5 0 C5.99 4.29 6.98 8.58 8 13 C8.66 13 9.32 13 10 13 C10 13.66 10 14.32 10 15 C8.68 15 7.36 15 6 15 C5.34 11.04 4.68 7.08 4 3 C3.01 3 2.02 3 1 3 C0.34 4.98 -0.32 6.96 -1 9 C-1.33 9 -1.66 9 -2 9 C-1.125 1.125 -1.125 1.125 0 0 Z " fill="#C1BCB0" transform="translate(66,15)"/>
	

	<path d="M0 0 C0.99 0.33 1.98 0.66 3 1 C3 3.64 3 6.28 3 9 C1.35 9 -0.3 9 -2 9 C-2.33 8.34 -2.66 7.68 -3 7 C-2.06421005 4.64018187 -1.06652192 2.30368736 0 0 Z " fill="#484848" transform="translate(105,22)"/>
	

	<path d="M0 0 C13.55482096 9.392046 13.55482096 9.392046 15 17 C14.01 16.67 13.02 16.34 12 16 C11.31867549 14.33927151 10.65257873 12.672233 10 11 C9.01 10.34 8.02 9.68 7 9 C7 8.34 7 7.68 7 7 C6.21625 6.773125 5.4325 6.54625 4.625 6.3125 C2 5 2 5 0.6875 2.375 C0.460625 1.59125 0.23375 0.8075 0 0 Z " fill="#333333" transform="translate(28,15)"/>
	

	<path d="M0 0 C1.32 0 2.64 0 4 0 C5.75747614 4.50353262 6.19294408 8.17639811 6 13 C0 5.28571429 0 5.28571429 0 0 Z " fill="#B6B3AD" transform="translate(11,0)"/>
	

	<path d="M0 0 C1.98 0 3.96 0 6 0 C6.33 1.32 6.66 2.64 7 4 C1.25 5.125 1.25 5.125 -1 4 C-0.67 2.68 -0.34 1.36 0 0 Z " fill="#222222" transform="translate(72,40)"/>
	

	<path d="M0 0 C4.875 0.875 4.875 0.875 6 2 C6.04080783 3.99958364 6.04254356 6.00045254 6 8 C3.5625 7.375 3.5625 7.375 1 6 C0.1875 2.875 0.1875 2.875 0 0 Z " fill="#FBFBFB" transform="translate(24,33)"/>
	

	<path d="M0 0 C0.66 0 1.32 0 2 0 C3.38226016 2.76452033 3.09525387 5.0461363 3.0625 8.125 C3.05347656 9.22070312 3.04445313 10.31640625 3.03515625 11.4453125 C3.02355469 12.28835937 3.01195313 13.13140625 3 14 C2.67 14 2.34 14 2 14 C1.67 11.69 1.34 9.38 1 7 C0.01 7 -0.98 7 -2 7 C-1.125 1.125 -1.125 1.125 0 0 Z " fill="#898584" transform="translate(81,17)"/>
	

	<path d="M0 0 C0.680625 0.78375 1.36125 1.5675 2.0625 2.375 C5.36512873 5.32628525 7.72587578 6.05019462 12 7 C12.99 7.33 13.98 7.66 15 8 C12.15697309 9.42151345 10.16974528 9.23922606 7 9 C4.5570559 8.15794312 2.33716233 7.12183792 0 6 C0 4.02 0 2.04 0 0 Z " fill="#978F7D" transform="translate(0,97)"/>
	

	<path d="M0 0 C-0.33 0.66 -0.66 1.32 -1 2 C-3.31470912 2.72870472 -5.6505947 3.39239518 -8 4 C-8.99 4.33 -9.98 4.66 -11 5 C-11 3.68 -11 2.36 -11 1 C-6.8204355 -1.78637633 -4.85331323 -0.79562512 0 0 Z " fill="#A98E21" transform="translate(41,88)"/>
	

	<path d="M0 0 C0.5775 0.639375 1.155 1.27875 1.75 1.9375 C3.98062401 3.98223868 5.07436391 4.58205199 8 5 C7.49396008 7.16874252 7.00016187 8.99967627 6 11 C5.34 11 4.68 11 4 11 C3.32880451 9.5437455 2.66318193 8.08492133 2 6.625 C1.62875 5.81289063 1.2575 5.00078125 0.875 4.1640625 C0 2 0 2 0 0 Z " fill="#BDA95E" transform="translate(26,44)"/>
	

	<path d="M0 0 C0.33 0 0.66 0 1 0 C1.25 5.625 1.25 5.625 -1 9 C-4.125 9.1875 -4.125 9.1875 -7 9 C-7 7.35 -7 5.7 -7 4 C-6.34 4 -5.68 4 -5 4 C-5 4.66 -5 5.32 -5 6 C-3.35 5.67 -1.7 5.34 0 5 C0 3.35 0 1.7 0 0 Z " fill="#575655" transform="translate(65,26)"/>
	

	<path d="M0 0 C4.97631579 4.81578947 4.97631579 4.81578947 5.0625 9.125 C5.041875 10.07375 5.02125 11.0225 5 12 C4.67 12 4.34 12 4 12 C3.34 10.02 2.68 8.04 2 6 C0.35 6 -1.3 6 -3 6 C-2.42655063 3.13275314 -2.1385485 2.1385485 0 0 Z " fill="#8A8685" transform="translate(54,18)"/>
	

	

	<path d="M0 0 C0.66 0.99 1.32 1.98 2 3 C4.05925139 3.72382467 4.05925139 3.72382467 6 4 C6 4.99 6 5.98 6 7 C4.02 7.66 2.04 8.32 0 9 C-1.10844919 5.67465243 -0.84454356 3.37817425 0 0 Z " fill="#747170" transform="translate(122,25)"/>
	

	<path d="M0 0 C2.4375 0.25 2.4375 0.25 5 1 C7.1519437 4.22791555 7.20086443 5.28400809 7 9 C5 6 5 6 4 4 C3.01 4 2.02 4 1 4 C0.34 4.66 -0.32 5.32 -1 6 C-1.042721 4.33388095 -1.04063832 2.66617115 -1 1 C-0.67 0.67 -0.34 0.34 0 0 Z " fill="#323232" transform="translate(70,53)"/>
	

	<path d="M0 0 C2.72657838 2.64867614 5.29129572 5.29753401 7.6875 8.25 C9.7042322 11.01742194 9.7042322 11.01742194 12 12 C12 12.66 12 13.32 12 14 C8.66950878 12.57369692 6.68261063 10.84985604 4.3125 8.125 C3.71050781 7.44695313 3.10851562 6.76890625 2.48828125 6.0703125 C0.99233806 3.98934166 0.4210244 2.50369174 0 0 Z " fill="#D7D4CC" transform="translate(26,7)"/>
	

	<path d="M0 0 C1.98 1.65 3.96 3.3 6 5 C4.69593116 7.01920337 3.36176581 9.01924973 2 11 C1.67 11 1.34 11 1 11 C0.67 7.37 0.34 3.74 0 0 Z " fill="#FDFDFD" transform="translate(24,74)"/>
	

	<path d="M0 0 C1.875 0.125 1.875 0.125 4 1 C6.28258584 5.67930096 6.17523261 9.91825435 6 15 C5.67 15 5.34 15 5 15 C4.34 11.37 3.68 7.74 3 4 C1.68 4 0.36 4 -1 4 C-0.67 2.68 -0.34 1.36 0 0 Z " fill="#484848" transform="translate(109,43)"/>
	

	

	<path d="M0 0 C0.66 0 1.32 0 2 0 C1.745504 1.48206495 1.47088238 2.96068615 1.1875 4.4375 C1.03667969 5.26121094 0.88585937 6.08492187 0.73046875 6.93359375 C0.36888672 7.95646484 0.36888672 7.95646484 0 9 C-0.99 9.33 -1.98 9.66 -3 10 C-3.66 9.67 -4.32 9.34 -5 9 C-5 8.01 -5 7.02 -5 6 C-3.68 6 -2.36 6 -1 6 C-0.67 4.02 -0.34 2.04 0 0 Z " fill="#868282" transform="translate(77,24)"/>
	

	<path d="M0 0 C-0.33 0.99 -0.66 1.98 -1 3 C-1.66 3 -2.32 3 -3 3 C-3.66 6.3 -4.32 9.6 -5 13 C-5.33 13 -5.66 13 -6 13 C-6.152 3.88 -6.152 3.88 -5 1 C-3 0 -3 0 0 0 Z " fill="#7B7878" transform="translate(128,51)"/>
	

	<path d="M0 0 C2.125 0.9375 2.125 0.9375 4 2 C3.67 3.98 3.34 5.96 3 8 C1.5 6.625 1.5 6.625 0 5 C0 4.34 0 3.68 0 3 C-0.66 3 -1.32 3 -2 3 C-2 2.34 -2 1.68 -2 1 C-1.34 0.67 -0.68 0.34 0 0 Z " fill="#070707" transform="translate(53,25)"/>
	

	

	

	<path d="M0 0 C0.33 0 0.66 0 1 0 C1 2.97 1 5.94 1 9 C-0.65 9.66 -2.3 10.32 -4 11 C-4 9.68 -4 8.36 -4 7 C-3.01 6.34 -2.02 5.68 -1 5 C-0.27034634 2.43717258 -0.27034634 2.43717258 0 0 Z " fill="#908B8B" transform="translate(4,56)"/>
	

	

	<path d="M0 0 C1.29312675 2.5862535 0.84290464 3.76416975 0.25 6.5625 C0.09015625 7.36816406 -0.0696875 8.17382812 -0.234375 9.00390625 C-0.48703125 9.66261719 -0.7396875 10.32132813 -1 11 C-1.99 11.33 -2.98 11.66 -4 12 C-4.495 9.525 -4.495 9.525 -5 7 C-4.01 7.495 -4.01 7.495 -3 8 C-2.01 5.36 -1.02 2.72 0 0 Z " fill="#DFDCD6" transform="translate(78,17)"/>
	

	<path d="M0 0 C2.0625 0.4375 2.0625 0.4375 4 1 C4 2.65 4 4.3 4 6 C3.67 5.34 3.34 4.68 3 4 C1.02 4.99 1.02 4.99 -1 6 C-1.042721 4.33388095 -1.04063832 2.66617115 -1 1 C-0.67 0.67 -0.34 0.34 0 0 Z " fill="#989490" transform="translate(71,56)"/>
	

	

	

	<path d="M0 0 C0.66 0 1.32 0 2 0 C2.36923077 5.53846154 2.36923077 5.53846154 0.5 7.875 C-0.2425 8.431875 -0.2425 8.431875 -1 9 C-1.09765625 2.84765625 -1.09765625 2.84765625 -1 1 C-0.67 0.67 -0.34 0.34 0 0 Z " fill="#DEDBD5" transform="translate(85,48)"/>
	

	<path d="M0 0 C0.66 0.33 1.32 0.66 2 1 C2.96070434 3.88211302 3.10581883 5.69850044 3.0625 8.6875 C3.05347656 9.49574219 3.04445313 10.30398437 3.03515625 11.13671875 C3.02355469 11.75160156 3.01195313 12.36648437 3 13 C2.67 13 2.34 13 2 13 C1.67 10.36 1.34 7.72 1 5 C0.01 5 -0.98 5 -2 5 C-1.34 3.35 -0.68 1.7 0 0 Z " fill="#747170" transform="translate(86,42)"/>
	

	<path d="M0 0 C0.99 1.485 0.99 1.485 2 3 C3.98 2.67 5.96 2.34 8 2 C7.67 2.99 7.34 3.98 7 5 C5.0085944 5.38133299 3.00720923 5.71325582 1 6 C0 5 0 5 -0.0625 2.4375 C-0.041875 1.633125 -0.02125 0.82875 0 0 Z " fill="#484848" transform="translate(120,30)"/>
	

	<path d="M0 0 C2.84048268 1.09995912 5.49568941 2.25280657 8 4 C9 7.25 9 7.25 9 10 C8.1646875 8.8553125 8.1646875 8.8553125 7.3125 7.6875 C5.02757355 5.03204493 2.9864388 3.7420893 0 2 C0 1.34 0 0.68 0 0 Z " fill="#DBD8D1" transform="translate(74,62)"/>
	

	

	<path d="M0 0 C1.67542976 0.28604898 3.34385343 0.61781233 5 1 C5.33 2.32 5.66 3.64 6 5 C5.21625 4.67 4.4325 4.34 3.625 4 C1.15667503 2.88133489 1.15667503 2.88133489 -1 3 C-1.33 3.66 -1.66 4.32 -2 5 C-1.125 1.125 -1.125 1.125 0 0 Z " fill="#393939" transform="translate(52,23)"/>
	

	<path d="M0 0 C4.04648443 1.34882814 4.95502599 3.34826069 7 7 C6.67 7.99 6.34 8.98 6 10 C4.99421411 8.71283353 3.99553202 7.42011342 3 6.125 C2.443125 5.40570313 1.88625 4.68640625 1.3125 3.9453125 C0 2 0 2 0 0 Z " fill="#9A9592" transform="translate(46,63)"/>
	

	

	<path d="M0 0 C0.99 0.66 1.98 1.32 3 2 C3 2.99 3 3.98 3 5 C1.35 5.33 -0.3 5.66 -2 6 C-1.125 1.125 -1.125 1.125 0 0 Z " fill="#626060" transform="translate(68,19)"/>
	

	

	

	<path d="M0 0 C0.66 0.33 1.32 0.66 2 1 C1.67 3.31 1.34 5.62 1 8 C0.34 7.67 -0.32 7.34 -1 7 C-1.04254356 5.00045254 -1.04080783 2.99958364 -1 1 C-0.67 0.67 -0.34 0.34 0 0 Z " fill="#1D1D1D" transform="translate(93,25)"/>
	

	<path d="M0 0 C0.66 0 1.32 0 2 0 C2 2.31 2 4.62 2 7 C1.01 7 0.02 7 -1 7 C-0.67 4.69 -0.34 2.38 0 0 Z " fill="#1E1E1E" transform="translate(105,24)"/>
	

	

	<path d="M0 0 C0.2475 0.61875 0.495 1.2375 0.75 1.875 C2.20628639 4.35068687 3.37812506 4.95125002 6 6 C4.02 6.33 2.04 6.66 0 7 C-1.04449911 3.86650268 -0.93423645 3.01031744 0 0 Z " fill="#E5E3DF" transform="translate(58,85)"/>
	

	

</svg>
