<?xml version="1.0" encoding="iso-8859-1"?>
<svg height="128" version="1.1" width="128" xmlns="http://www.w3.org/2000/svg">
	

	<path d="M0 0 C42.24 0 84.48 0 128 0 C128 42.24 128 84.48 128 128 C85.76 128 43.52 128 0 128 C0 85.76 0 43.52 0 0 Z " fill="#FCFDFC" transform="translate(0,0)"/>
	

	<path d="M0 0 C3.69821454 1.19648118 6.28053226 2.88979195 9.19140625 5.4453125 C12.23918425 8.0652167 15.4528918 10.48073884 18.6328125 12.9375 C21.10628548 15.09260517 22.96804724 17.4344462 25 20 C27.60748144 21.78716497 27.60748144 21.78716497 31 22 C33.68903648 21.16518212 36.17692564 20.12990546 38.73046875 18.9453125 C41 18 41 18 44 18 C44 17.34 44 16.68 44 16 C51.47791107 14.83676939 56.12589521 18.73693661 62 23 C64.30891501 24.80666276 66.59300664 26.62697079 68.83203125 28.51953125 C71.43907468 30.29983658 74.00074121 31.03992997 77 32 C83.99845512 35.55390299 89.87081028 40.41896743 95.625 45.6875 C96.24117188 46.24606689 96.85734375 46.80463379 97.4921875 47.38012695 C98.06453125 47.91855225 98.636875 48.45697754 99.2265625 49.01171875 C99.73783691 49.49084717 100.24911133 49.96997559 100.77587891 50.46362305 C102.24335466 52.30543096 102.70349016 53.67207611 103 56 C101.734375 58.0859375 101.734375 58.0859375 99.75 60.375 C98.64591797 61.68404297 98.64591797 61.68404297 97.51953125 63.01953125 C96.68808594 64.00308594 95.85664062 64.98664063 95 66 C93.12610286 68.33881339 91.28185209 70.70035702 89.4375 73.0625 C88.96715332 73.66030273 88.49680664 74.25810547 88.01220703 74.87402344 C85.95835321 77.48489102 83.92140699 80.10395511 81.91796875 82.75390625 C78.88472057 86.76519524 76.07024506 89.97638939 72 93 C71.34 93.99 70.68 94.98 70 96 C68.35 95.67 66.7 95.34 65 95 C64.71125 95.804375 64.4225 96.60875 64.125 97.4375 C63 100 63 100 61 101 C59.55673739 101.10950236 58.10867575 101.15900427 56.66137695 101.17700195 C55.76316727 101.18983719 54.86495758 101.20267242 53.93952942 101.21589661 C52.96561752 101.22328354 51.99170563 101.23067047 50.98828125 101.23828125 C49.98669479 101.246353 48.98510834 101.25442474 47.95317078 101.26274109 C45.82890558 101.27658967 43.70461807 101.28730835 41.58032227 101.29516602 C38.34282719 101.31233913 35.10636374 101.35621414 31.86914062 101.40039062 C29.80469501 101.41052102 27.7402407 101.41903603 25.67578125 101.42578125 C24.71199051 101.44328934 23.74819977 101.46079742 22.75520325 101.47883606 C15.71874563 101.45631276 11.21878177 100.17960796 6.07421875 95.09765625 C2.27768825 89.5258467 1.09333465 84.60858459 0.421875 77.91796875 C0.21170196 75.1001061 0.21170196 75.1001061 -1.01196289 73.35717773 C-2.51152967 69.77963456 -2.26456123 66.18320386 -2.23046875 62.3671875 C-2.23001053 61.53414093 -2.22955231 60.70109436 -2.2290802 59.84280396 C-2.22606472 58.08610607 -2.2181995 56.32941069 -2.20581055 54.57275391 C-2.18751923 51.87783388 -2.18530121 49.18325697 -2.18554688 46.48828125 C-2.18063269 44.78124702 -2.1748048 43.07421512 -2.16796875 41.3671875 C-2.16685593 40.55885468 -2.1657431 39.75052185 -2.16459656 38.91769409 C-2.1160858 33.23217159 -2.1160858 33.23217159 -1 31 C-0.92623243 28.76023219 -0.91653402 26.51822793 -0.9375 24.27734375 C-0.94128662 23.61666397 -0.94507324 22.95598419 -0.94897461 22.27528381 C-0.96120591 20.16262353 -0.97984116 18.05009865 -1 15.9375 C-1.02648544 13.15495177 -1.04652852 10.37246992 -1.0625 7.58984375 C-1.07410156 6.35097412 -1.08570313 5.11210449 -1.09765625 3.83569336 C-1 1 -1 1 0 0 Z " fill="#E2D77B" transform="translate(17,4)"/>
	

	<path d="M0 0 C1.49609225 0.00502697 2.99218613 0.00958775 4.48828125 0.01367188 C8.11722219 0.02457815 11.74610027 0.04177618 15.375 0.0625 C14.60443902 4.98581932 12.46911405 7.95541291 9.375 11.75 C6.07325171 15.70600475 6.07325171 15.70600475 3.375 20.0625 C2.715 20.0625 2.055 20.0625 1.375 20.0625 C1.106875 20.805 0.83875 21.5475 0.5625 22.3125 C-0.57776751 24.95311949 -1.71880306 26.91802844 -3.625 29.0625 C-4.285 29.0625 -4.945 29.0625 -5.625 29.0625 C-5.810625 29.9596875 -5.810625 29.9596875 -6 30.875 C-6.625 33.0625 -6.625 33.0625 -8.625 36.0625 C-10.275 35.7325 -11.925 35.4025 -13.625 35.0625 C-14.058125 36.2690625 -14.058125 36.2690625 -14.5 37.5 C-15.625 40.0625 -15.625 40.0625 -17.625 41.0625 C-20.26798477 41.17381705 -22.88372592 41.22662064 -25.52734375 41.23046875 C-26.31967911 41.23379715 -27.11201447 41.23712555 -27.92835999 41.24055481 C-29.6121462 41.24562586 -31.29594249 41.24796308 -32.97973633 41.24780273 C-35.52117274 41.24996484 -38.06215749 41.26804981 -40.60351562 41.28710938 C-59.95117016 41.35974912 -59.95117016 41.35974912 -65.625 39.0625 C-67.46850586 37.17260742 -67.46850586 37.17260742 -68.625 35.0625 C-67.46247024 31.57491071 -66.95201175 31.43310229 -63.875 29.75 C-60.94164497 28.02881852 -58.89074316 26.44472507 -56.8125 23.75 C-55.7296875 22.4196875 -55.7296875 22.4196875 -54.625 21.0625 C-53.635 21.0625 -52.645 21.0625 -51.625 21.0625 C-51.36460938 20.47855469 -51.10421875 19.89460938 -50.8359375 19.29296875 C-49.54716506 16.91913306 -48.1499146 15.28735946 -46.25 13.375 C-45.66476563 12.77300781 -45.07953125 12.17101562 -44.4765625 11.55078125 C-42.49891086 9.96114987 -41.1035821 9.4719574 -38.625 9.0625 C-38.955 8.0725 -39.285 7.0825 -39.625 6.0625 C-38.625 4.0625 -38.625 4.0625 -36.25390625 3.24609375 C-34.73603516 2.87677734 -34.73603516 2.87677734 -33.1875 2.5 C-32.19878906 2.25121094 -31.21007812 2.00242187 -30.19140625 1.74609375 C-20.1730325 -0.17418599 -10.1573862 -0.05977587 0 0 Z " fill="#DFBD27" transform="translate(95.625,63.9375)"/>
	

	<path d="M0 0 C3.69821454 1.19648118 6.28053226 2.88979195 9.19140625 5.4453125 C12.23918425 8.0652167 15.4528918 10.48073884 18.6328125 12.9375 C21 15 21 15 23.1015625 17.66796875 C25.4517416 20.55491715 27.44581922 21.1114548 31 22 C31.495 21.505 31.495 21.505 32 21 C34.21608679 20.40708671 36.44875729 19.87561749 38.6875 19.375 C39.90824219 19.09398438 41.12898438 18.81296875 42.38671875 18.5234375 C51.36259442 17.22314848 57.44232477 21.62256966 64.3984375 26.77734375 C65.90065734 27.94887014 67.39575059 29.12960456 68.8828125 30.3203125 C71.84121589 32.6673853 74.9098888 34.83034745 78 37 C77.6875 38.875 77.6875 38.875 77 41 C76.01 41.66 75.02 42.32 74 43 C72.2971587 45.94722533 71.1062381 48.46880951 70.4375 51.8125 C70.2209375 52.8953125 70.2209375 52.8953125 70 54 C66.78652055 55.60673973 63.22371474 55.58337366 59.6875 55.9375 C52.07997714 56.73596166 44.54761077 57.74650987 37 59 C37 57.68 37 56.36 37 55 C37.66 54.67 38.32 54.34 39 54 C37.6337746 50.4732321 36.08685812 47.08960885 34.4375 43.6875 C32.27712887 38.99822384 31.29072599 35.13615923 31 30 C27.54791082 29.11690742 25.52703662 28.81668292 22.125 30 C19.59192587 31.93810162 19.59192587 31.93810162 19.6875 35.6875 C19.790625 36.780625 19.89375 37.87375 20 39 C16.21388773 38.45912682 14.44599233 36.88277668 12 34 C12 33.34 12 32.68 12 32 C11.278125 31.71125 10.55625 31.4225 9.8125 31.125 C5.90625 29.5625 5.90625 29.5625 2 28 C1.15111147 22.66412921 0.67731694 17.33902068 0.2578125 11.953125 C0.03401145 9.38958571 -0.2676128 6.8600293 -0.625 4.3125 C-0.74875 3.219375 -0.8725 2.12625 -1 1 C-0.67 0.67 -0.34 0.34 0 0 Z " fill="#BDB414" transform="translate(17,4)"/>
	

	<path d="M0 0 C7.51420777 -1.16887676 12.06608268 2.78316508 18 7 C18.94746094 7.66 19.89492187 8.32 20.87109375 9 C25.82332155 12.51669991 30.45665345 16.20865918 34.9609375 20.27734375 C37.27134807 22.22924233 39.69019861 23.91961572 42.1875 25.625 C47.66990738 29.39205293 51.79416472 33.09451396 55 39 C51.17512889 41.60091236 48.41459572 40.65147875 44 40 C39.72974421 39.91265735 35.47238291 40.04668518 31.20385742 40.18701172 C29.20335426 40.24950473 27.20222726 40.29085324 25.20117188 40.33203125 C17.61064628 40.56721995 11.14817152 41.48703081 4 44 C-0.42998164 45.16871375 -3.60504562 45.46676269 -8 44 C-12.80732911 40.27113628 -16.5988347 35.42346465 -20.47558594 30.77294922 C-23.32320647 27.46106256 -26.63923305 24.76555552 -30 22 C-31.44024118 20.7322741 -32.87772752 19.46141191 -34.3125 18.1875 C-36.49997956 16.24849682 -38.55412328 14.63058448 -41 13 C-40.67 12.34 -40.34 11.68 -40 11 C-35.86009635 13.32163331 -32.15457938 15.48199122 -29.1875 19.25 C-27.22750131 22.22726696 -27.22750131 22.22726696 -24 23 C-24.33 20.69 -24.66 18.38 -25 16 C-19.848 11.952 -19.848 11.952 -15.6875 12.1875 C-13 13 -13 13 -12 14 C-11.75158662 15.62216927 -11.5268247 17.24797594 -11.3125 18.875 C-10.3587201 24.58277659 -8.1761745 28.80279144 -5.14453125 33.6875 C-4 36 -4 36 -5 39 C-5.99 39.495 -5.99 39.495 -7 40 C-7 40.66 -7 41.32 -7 42 C-5.90558594 41.81824219 -5.90558594 41.81824219 -4.7890625 41.6328125 C0.4023146 40.79962852 5.57000553 40.02370685 10.80078125 39.4921875 C11.61047363 39.40952637 12.42016602 39.32686523 13.25439453 39.24169922 C14.86269332 39.08193444 16.47176813 38.92977897 18.08154297 38.78564453 C22.50275373 38.4834766 22.50275373 38.4834766 26 36 C26.144375 35.4225 26.28875 34.845 26.4375 34.25 C27.57500088 29.69999649 29.08216634 26.61188911 33 24 C33.495 22.515 33.495 22.515 34 21 C33.44699219 20.74734375 32.89398438 20.4946875 32.32421875 20.234375 C29.61477118 18.79540789 27.27322051 17.08222479 24.8125 15.25 C21.28233329 12.65775475 17.74678363 10.08805554 14.125 7.625 C13.44695312 7.16351562 12.76890625 6.70203125 12.0703125 6.2265625 C8.80522575 4.29215261 6.32610881 2.85492492 2.46484375 3.27734375 C1.63082031 3.49519531 0.79679687 3.71304687 -0.0625 3.9375 C-3.84469412 4.91073023 -5.01418842 4.9964529 -9 4 C-6.03 3.34 -3.06 2.68 0 2 C0 1.34 0 0.68 0 0 Z " fill="#D1C24B" transform="translate(61,20)"/>
	

	<path d="M0 0 C0.8666339 1.35194889 1.72662987 2.7084752 2.55859375 4.08203125 C5.12873747 7.50192438 8.50440502 10.10016448 11.7578125 12.8515625 C13.88481697 14.88963299 14.77283756 16.38949081 16 19 C17.65261839 20.02304948 19.31791365 21.02616054 21 22 C21 22.66 21 23.32 21 24 C8.33393146 27.75062287 -11.19997172 26.5148389 -24 23 C-25.87890625 21.42578125 -25.87890625 21.42578125 -27 20 C-26.443125 19.57589844 -25.88625 19.15179688 -25.3125 18.71484375 C-20.57623065 15.07463674 -16.0275034 11.32831121 -11.62890625 7.28515625 C-10 6 -10 6 -8 6 C-7.67 5.01 -7.34 4.02 -7 3 C-4.41927097 0.67734388 -3.54823932 0 0 0 Z " fill="#2B444A" transform="translate(56,78)"/>
	

	<path d="M0 0 C2.33342837 1.72916923 4.6158297 3.50511275 6.8828125 5.3203125 C9.84121589 7.6673853 12.9098888 9.83034745 16 12 C15.65234375 13.94140625 15.65234375 13.94140625 15 16 C13.7934375 16.4640625 13.7934375 16.4640625 12.5625 16.9375 C9.7626291 17.74789838 9.7626291 17.74789838 8.9375 20.5 C8.628125 21.325 8.31875 22.15 8 23 C5.875 24.3125 5.875 24.3125 4 25 C4 25.99 4 26.98 4 28 C0.27569643 28.69289369 -3.21083746 29.11144596 -7 29 C-7.33 28.34 -7.66 27.68 -8 27 C-5.23735711 26.40267181 -2.83967231 26 0 26 C-1.03965651 22.88103046 -2.16844852 21.85246228 -4.47265625 19.6484375 C-8.61453166 15.1781781 -11.89393734 9.80992072 -15.0625 4.625 C-17.4075739 1.4478031 -19.6216683 -0.00371309 -23 -2 C-22.67 -2.66 -22.34 -3.32 -22 -4 C-21.34 -4 -20.68 -4 -20 -4 C-20 -4.66 -20 -5.32 -20 -6 C-12.26379488 -8.67791716 -6.2100486 -4.19318992 0 0 Z " fill="#879611" transform="translate(79,29)"/>
	

	<path d="M0 0 C4.73967765 9.68542824 4.13601345 19.37583832 4 30 C3.01 30.33 2.02 30.66 1 31 C-0.55078125 30.0234375 -0.55078125 30.0234375 -2.3125 28.375 C-3.0034375 27.735625 -3.694375 27.09625 -4.40625 26.4375 C-5.69015625 25.2309375 -5.69015625 25.2309375 -7 24 C-8.17552859 22.93578012 -9.35273596 21.87341285 -10.53125 20.8125 C-11.79222801 19.66728444 -13.05264144 18.52144695 -14.3125 17.375 C-14.92327393 16.82505371 -15.53404785 16.27510742 -16.16333008 15.70849609 C-19.40018754 12.72856055 -22.04738854 10.01800914 -24 6 C-24 5.34 -24 4.68 -24 4 C-7.77663934 -0.23565574 -7.77663934 -0.23565574 0 0 Z " fill="#3A580C" transform="translate(83,66)"/>
	

	<path d="M0 0 C1.02787125 0.00212242 1.02787125 0.00212242 2.07650757 0.00428772 C4.26719511 0.0098895 6.4577808 0.02244219 8.6484375 0.03515625 C10.13281102 0.04017103 11.61718615 0.04473397 13.1015625 0.04882812 C16.74222065 0.05985948 20.38281914 0.07712526 24.0234375 0.09765625 C24.0234375 1.41765625 24.0234375 2.73765625 24.0234375 4.09765625 C22.10662683 5.97841405 20.25596716 7.58388891 18.1484375 9.22265625 C12.6812079 13.6144267 7.87016665 18.19872302 3.14453125 23.39453125 C1.0234375 25.09765625 1.0234375 25.09765625 -1.12890625 25.11328125 C-3.59395322 23.75828714 -4.04754245 22.74625669 -4.9765625 20.09765625 C-5.56888282 17.03322126 -5.98610084 13.96625875 -6.4140625 10.875 C-6.83386825 7.90165719 -6.83386825 7.90165719 -8.9765625 5.09765625 C-8.9765625 3.77765625 -8.9765625 2.45765625 -8.9765625 1.09765625 C-6.00296801 -0.389141 -3.31357071 -0.0134698 0 0 Z " fill="#BDB414" transform="translate(25.9765625,67.90234375)"/>
	

	<path d="M0 0 C4.68632067 0.50825904 7.32367957 2.44740844 11 5.3125 C12.010625 6.09238281 13.02125 6.87226562 14.0625 7.67578125 C15.5165625 8.82626953 15.5165625 8.82626953 17 10 C17.90492187 10.70253906 18.80984375 11.40507813 19.7421875 12.12890625 C22.22418349 14.18578528 24.00768284 16.47639826 26 19 C26.99 19.66 27.98 20.32 29 21 C28.67 22.32 28.34 23.64 28 25 C24.03047101 24.88201056 20.06119219 24.75778201 16.09204102 24.62768555 C14.74085853 24.58428777 13.38961947 24.5426163 12.03833008 24.50268555 C10.09963299 24.44510048 8.16113724 24.38085702 6.22265625 24.31640625 C5.05484619 24.27974854 3.88703613 24.24309082 2.68383789 24.20532227 C0 24 0 24 -1 23 C-1.09902107 21.46218409 -1.13079567 19.91990556 -1.1328125 18.37890625 C-1.13410156 17.44369141 -1.13539062 16.50847656 -1.13671875 15.54492188 C-1.13285156 14.56072266 -1.12898438 13.57652344 -1.125 12.5625 C-1.12886719 11.58216797 -1.13273437 10.60183594 -1.13671875 9.59179688 C-1.13542969 8.65529297 -1.13414063 7.71878906 -1.1328125 6.75390625 C-1.13168457 5.89095947 -1.13055664 5.0280127 -1.12939453 4.13891602 C-1 2 -1 2 0 0 Z " fill="#E1BB1E" transform="translate(18,39)"/>
	

	<path d="M0 0 C2.84185571 1.11157456 4.05892833 2.73336889 5.9921875 5.078125 C9.83146844 9.56559623 13.47922864 13.34829442 18.6796875 16.265625 C21.01129549 17.76024551 21.99457697 18.85214429 23.6171875 21.015625 C25.80969922 24.09868496 25.80969922 24.09868496 28.9296875 24.203125 C29.6515625 24.079375 30.3734375 23.955625 31.1171875 23.828125 C30.6221875 25.313125 30.6221875 25.313125 30.1171875 26.828125 C28.4671875 26.498125 26.8171875 26.168125 25.1171875 25.828125 C24.6840625 27.0346875 24.6840625 27.0346875 24.2421875 28.265625 C23.1171875 30.828125 23.1171875 30.828125 21.1171875 31.828125 C18.47420273 31.93944205 15.85846158 31.99224564 13.21484375 31.99609375 C12.42250839 31.99942215 11.63017303 32.00275055 10.81382751 32.00617981 C9.1300413 32.01125086 7.44624501 32.01358808 5.76245117 32.01342773 C3.22101476 32.01558984 0.68003001 32.03367481 -1.86132812 32.05273438 C-21.20898266 32.12537412 -21.20898266 32.12537412 -26.8828125 29.828125 C-28.72631836 27.93823242 -28.72631836 27.93823242 -29.8828125 25.828125 C-28.72028274 22.34053571 -28.20982425 22.19872729 -25.1328125 20.515625 C-22.19945747 18.79444352 -20.14855566 17.21035007 -18.0703125 14.515625 C-16.9875 13.1853125 -16.9875 13.1853125 -15.8828125 11.828125 C-14.8928125 11.828125 -13.9028125 11.828125 -12.8828125 11.828125 C-12.625 11.24417969 -12.3671875 10.66023438 -12.1015625 10.05859375 C-10.78582886 7.65063251 -9.34122658 6.05339807 -7.3828125 4.140625 C-6.47015625 3.23763672 -6.47015625 3.23763672 -5.5390625 2.31640625 C-3.60734731 0.58059614 -2.63109218 -0.24018269 0 0 Z M-8.8828125 8.828125 C-8.8828125 9.488125 -8.8828125 10.148125 -8.8828125 10.828125 C-9.429375 11.06789063 -9.9759375 11.30765625 -10.5390625 11.5546875 C-13.45233402 13.13756503 -15.82825853 15.09070537 -18.3828125 17.203125 C-19.32125 17.97398438 -20.2596875 18.74484375 -21.2265625 19.5390625 C-23.55866446 21.54878566 -25.74275264 23.61740278 -27.8828125 25.828125 C-19.46773862 31.43817425 -5.89844557 30.0089244 3.8046875 30.015625 C5.52473999 30.0168335 5.52473999 30.0168335 7.27954102 30.01806641 C13.77535201 30.04156405 13.77535201 30.04156405 20.1171875 28.828125 C19.6221875 27.343125 19.6221875 27.343125 19.1171875 25.828125 C18.1890625 25.395 18.1890625 25.395 17.2421875 24.953125 C15.1171875 23.828125 15.1171875 23.828125 13.83203125 21.57421875 C11.80360117 18.32595828 9.45150391 16.26128441 6.5546875 13.765625 C0.60357643 8.63644693 0.60357643 8.63644693 -0.8828125 4.828125 C-4.81450355 4.828125 -6.04708478 6.22232115 -8.8828125 8.828125 Z " fill="#A7B198" transform="translate(56.8828125,73.171875)"/>
	

	<path d="M0 0 C0.33 0 0.66 0 1 0 C1.06058594 0.73863281 1.12117188 1.47726562 1.18359375 2.23828125 C1.26738281 3.25277344 1.35117187 4.26726563 1.4375 5.3125 C1.52386719 6.40046875 1.61023438 7.4884375 1.69921875 8.609375 C1.89267873 10.79019659 2.12164128 12.96831272 2.39453125 15.140625 C2.51183594 16.10484375 2.62914062 17.0690625 2.75 18.0625 C2.92789062 19.37927734 2.92789062 19.37927734 3.109375 20.72265625 C3.07328125 21.47417969 3.0371875 22.22570312 3 23 C2.50878662 23.42764648 2.01757324 23.85529297 1.51147461 24.29589844 C-0.62718263 26.7071127 -0.34348304 28.3605682 -0.29296875 31.54296875 C-0.28330078 32.61611328 -0.27363281 33.68925781 -0.26367188 34.79492188 C-0.23853516 35.91447266 -0.21339844 37.03402344 -0.1875 38.1875 C-0.17396484 39.31865234 -0.16042969 40.44980469 -0.14648438 41.61523438 C-0.11109958 44.41063317 -0.06172948 47.20507892 0 50 C1.12027588 50.03758423 1.12027588 50.03758423 2.26318359 50.07592773 C5.63397267 50.19168213 9.00446783 50.31450128 12.375 50.4375 C14.1384375 50.49647461 14.1384375 50.49647461 15.9375 50.55664062 C17.61972656 50.61948242 17.61972656 50.61948242 19.3359375 50.68359375 C20.37282715 50.72025146 21.4097168 50.75690918 22.47802734 50.79467773 C25 51 25 51 27 52 C27 52.66 27 53.32 27 54 C23.8815675 55.0394775 21.72524414 55.11494838 18.45703125 55.09765625 C17.38388672 55.09443359 16.31074219 55.09121094 15.20507812 55.08789062 C14.08552734 55.07951172 12.96597656 55.07113281 11.8125 55.0625 C10.68134766 55.05798828 9.55019531 55.05347656 8.38476562 55.04882812 C5.58979073 55.03703498 2.7949218 55.0205765 0 55 C-0.23428313 59.7897321 -0.23428313 59.7897321 2 64 C2.125 66.6875 2.125 66.6875 2 69 C2.66 69 3.32 69 4 69 C4.66 71.97 5.32 74.94 6 78 C7.32 78.33 8.64 78.66 10 79 C12.07408191 77.4587474 12.07408191 77.4587474 13.9375 75.25 C16.81433101 72.18773789 19.30361926 70.0330094 23 68 C24.32347276 67.03571609 25.63491982 66.05482479 26.9375 65.0625 C30.21444628 62.56903613 33.54805482 60.24376437 37 58 C37.33 58.99 37.66 59.98 38 61 C37.18595703 61.68835938 37.18595703 61.68835938 36.35546875 62.390625 C35.64003906 63.00421875 34.92460938 63.6178125 34.1875 64.25 C33.47980469 64.85328125 32.77210937 65.4565625 32.04296875 66.078125 C30.07968956 67.92503391 28.61002395 69.85027788 27 72 C26.21625 72.45375 25.4325 72.9075 24.625 73.375 C21.77669774 74.93975033 21.77669774 74.93975033 19.5625 78 C16.89273094 81.12558329 14.75182652 82.42946797 11 84 C11.58075706 86.51746723 11.58075706 86.51746723 13 89 C15.62366283 90.03770677 15.62366283 90.03770677 18.625 90.3125 C19.62789062 90.45300781 20.63078125 90.59351562 21.6640625 90.73828125 C22.82035156 90.86783203 22.82035156 90.86783203 24 91 C24 91.33 24 91.66 24 92 C18.71203528 92.43167059 14.23064072 92.51697565 9.6328125 89.4375 C3.10383161 83.68949769 1.2717947 77.38681143 0.421875 68.91796875 C0.21170196 66.1001061 0.21170196 66.1001061 -1.01196289 64.35717773 C-2.51152967 60.77963456 -2.26456123 57.18320386 -2.23046875 53.3671875 C-2.23001053 52.53414093 -2.22955231 51.70109436 -2.2290802 50.84280396 C-2.22606472 49.08610607 -2.2181995 47.32941069 -2.20581055 45.57275391 C-2.18751923 42.87783388 -2.18530121 40.18325697 -2.18554688 37.48828125 C-2.18063269 35.78124702 -2.1748048 34.07421512 -2.16796875 32.3671875 C-2.16685593 31.55885468 -2.1657431 30.75052185 -2.16459656 29.91769409 C-2.1160858 24.23217159 -2.1160858 24.23217159 -1 22 C-0.84777027 20.33434251 -0.75082785 18.66343504 -0.68359375 16.9921875 C-0.64169922 16.00605469 -0.59980469 15.01992188 -0.55664062 14.00390625 C-0.51732422 12.97136719 -0.47800781 11.93882813 -0.4375 10.875 C-0.39431641 9.83472656 -0.35113281 8.79445313 -0.30664062 7.72265625 C-0.2003712 5.14857472 -0.09833417 2.57439492 0 0 Z " fill="#E5E2C1" transform="translate(17,13)"/>
	

	<path d="M0 0 C8.87033206 1.71683846 16.16485537 8.76639183 22.625 14.6875 C23.54901611 15.52522949 23.54901611 15.52522949 24.49169922 16.37988281 C25.0642041 16.91838867 25.63670898 17.45689453 26.2265625 18.01171875 C26.99347412 18.73041138 26.99347412 18.73041138 27.77587891 19.46362305 C29.24335466 21.30543096 29.70349016 22.67207611 30 25 C28.734375 27.0859375 28.734375 27.0859375 26.75 29.375 C25.64591797 30.68404297 25.64591797 30.68404297 24.51953125 32.01953125 C23.68808594 33.00308594 22.85664062 33.98664063 22 35 C20.12610315 37.33881303 18.28180866 39.70032344 16.4375 42.0625 C15.73306763 42.95811646 15.73306763 42.95811646 15.0144043 43.87182617 C11.80421788 47.95369347 8.64468165 52.0711803 5.53515625 56.23046875 C3.86626648 58.15415086 2.08374041 59.54633229 0 61 C0 58 0 58 1.8125 56.125 C2.534375 55.42375 3.25625 54.7225 4 54 C4.53625 53.0925 5.0725 52.185 5.625 51.25 C6.07875 50.5075 6.5325 49.765 7 49 C7.66 49 8.32 49 9 49 C9.2475 48.278125 9.495 47.55625 9.75 46.8125 C11.53865682 42.78802215 14.29050564 39.83469924 17.125 36.5 C18.97140265 34.03812981 19.92320281 31.85875359 21 29 C19.82195801 29.00785522 19.82195801 29.00785522 18.62011719 29.01586914 C14.99675322 29.03689807 11.37340217 29.04974154 7.75 29.0625 C6.51507813 29.07087891 5.28015625 29.07925781 4.0078125 29.08789062 C-3.71691504 29.10821886 -11.31501847 28.79005315 -19 28 C-19 27.34 -19 26.68 -19 26 C-15.09897146 24.76163848 -11.14758993 24.75830657 -7.09375 24.6484375 C-6.33203491 24.62528473 -5.57031982 24.60213196 -4.78552246 24.57827759 C-3.17853081 24.53076256 -1.57147076 24.48551389 0.03564453 24.44238281 C2.49149025 24.37523268 4.94684376 24.29743616 7.40234375 24.21875 C8.96612744 24.17383417 10.52992921 24.12954237 12.09375 24.0859375 C13.19233337 24.05009048 13.19233337 24.05009048 14.31311035 24.01351929 C17.70289761 23.93034864 20.76270036 23.91355216 24 25 C24.33 24.34 24.66 23.68 25 23 C24.21625 22.2575 23.4325 21.515 22.625 20.75 C20 18 20 18 18.9375 15.8125 C17.6932976 13.40704203 16.42696284 13.19697147 14 12 C12.08101811 10.72158349 10.18645935 9.40604629 8.3125 8.0625 C7.33925781 7.37285156 6.36601563 6.68320312 5.36328125 5.97265625 C3 4 3 4 2 1 C1.34 0.67 0.68 0.34 0 0 Z " fill="#E3D87D" transform="translate(90,35)"/>
	

	<path d="M0 0 C6.01708075 2.9626585 9.90806685 5.70455709 14 11 C14.99 11.33 15.98 11.66 17 12 C16.67 9.69 16.34 7.38 16 5 C21.152 0.952 21.152 0.952 25.3125 1.1875 C28 2 28 2 29 3 C29.24841338 4.62216927 29.4731753 6.24797594 29.6875 7.875 C30.6412799 13.58277659 32.8238255 17.80279144 35.85546875 22.6875 C37 25 37 25 36 28 C33.9375 29.1875 33.9375 29.1875 32 30 C31.154375 29.21496094 30.30875 28.42992188 29.4375 27.62109375 C21.22712639 20.0114745 21.22712639 20.0114745 12.84375 12.59375 C10.12856916 10.24672928 7.44743431 7.86111317 4.76171875 5.48046875 C2.85906562 3.82613837 2.85906562 3.82613837 0 2 C0 1.34 0 0.68 0 0 Z " fill="#E0BB20" transform="translate(20,31)"/>
	

	<path d="M0 0 C4.20294724 1.27362038 6.88934534 3.40822471 10.08984375 6.28515625 C11.43104744 7.48922255 12.8013051 8.66132667 14.19140625 9.80859375 C14.91199219 10.40800781 15.63257813 11.00742187 16.375 11.625 C17.04273437 12.17414062 17.71046875 12.72328125 18.3984375 13.2890625 C20.17953355 15.19179437 20.61097756 16.45468174 21 19 C17.3791799 20.01382963 13.72188582 20.49897691 10 21 C10 21.99 10 22.98 10 24 C3.125 23.125 3.125 23.125 2 22 C1.7868384 19.43317904 1.62298984 16.88389866 1.5 14.3125 C1.26187702 9.46625629 0.90343572 4.78068068 0 0 Z " fill="#39570D" transform="translate(19,8)"/>
	

	<path d="M0 0 C5.28 0 10.56 0 16 0 C14.96402444 5.17987779 14.15794917 6.12023388 11 10 C10.00835843 12.05468134 9.09008537 14.120397 8.22265625 16.23046875 C6.55601599 18.64257111 4.73577591 19.12112635 2 20 C1.93941406 19.14277344 1.87882812 18.28554687 1.81640625 17.40234375 C1.73261719 16.25894531 1.64882812 15.11554688 1.5625 13.9375 C1.48128906 12.81214844 1.40007812 11.68679687 1.31640625 10.52734375 C1.00045232 7.00504258 0.50012863 3.50090042 0 0 Z " fill="#BFB416" transform="translate(92,66)"/>
	

	

	<path d="M0 0 C8.87033206 1.71683846 16.16485537 8.76639183 22.625 14.6875 C23.24101074 15.24598633 23.85702148 15.80447266 24.49169922 16.37988281 C25.0642041 16.91838867 25.63670898 17.45689453 26.2265625 18.01171875 C26.99347412 18.73041138 26.99347412 18.73041138 27.77587891 19.46362305 C29.24335466 21.30543096 29.70349016 22.67207611 30 25 C28.734375 27.0859375 28.734375 27.0859375 26.75 29.375 C26.01394531 30.24769531 25.27789062 31.12039062 24.51953125 32.01953125 C23.68808594 33.00308594 22.85664062 33.98664063 22 35 C20.12610315 37.33881303 18.28180866 39.70032344 16.4375 42.0625 C15.96787842 42.65957764 15.49825684 43.25665527 15.0144043 43.87182617 C11.80421788 47.95369347 8.64468165 52.0711803 5.53515625 56.23046875 C3.86626648 58.15415086 2.08374041 59.54633229 0 61 C0 58 0 58 1.8125 56.125 C2.534375 55.42375 3.25625 54.7225 4 54 C4.53625 53.0925 5.0725 52.185 5.625 51.25 C6.07875 50.5075 6.5325 49.765 7 49 C7.66 49 8.32 49 9 49 C9.25007813 48.27941406 9.50015625 47.55882812 9.7578125 46.81640625 C11.11359912 43.74243721 12.74910787 41.53269285 14.875 38.9375 C15.55304688 38.10089844 16.23109375 37.26429687 16.9296875 36.40234375 C18.86499079 34.15666163 20.88260225 32.07272691 23 30 C24.98025244 27.80757766 25.89657318 26.4481829 26.5625 23.5625 C25.69778582 19.62324652 23.15009728 18.42819999 20 16 C20 15.34 20 14.68 20 14 C19.31550781 13.93683594 18.63101563 13.87367187 17.92578125 13.80859375 C13.96551641 12.71410133 11.37029555 10.59241441 8.1875 8.0625 C7.59001953 7.60681641 6.99253906 7.15113281 6.37695312 6.68164062 C4.87410116 5.50855732 3.4312663 4.25943053 2 3 C2 2.34 2 1.68 2 1 C1.34 0.67 0.68 0.34 0 0 Z " fill="#E4DEA7" transform="translate(90,35)"/>
	

	<path d="M0 0 C2.65439818 0.20377198 3.76522228 0.77069496 5.67578125 2.63671875 C6.21589844 3.31347656 6.75601563 3.99023438 7.3125 4.6875 C9.58282776 7.41383376 11.81706202 9.8151282 14.5625 12.0625 C17.68483862 14.62225508 20.20845507 17.44227438 22.73828125 20.58203125 C23.96479293 22.1369442 23.96479293 22.1369442 26 23 C26 24.32 26 25.64 26 27 C23.04204179 28.47897911 20.03241045 28.16278108 16.7890625 28.16796875 C16.06568695 28.17129715 15.3423114 28.17462555 14.59701538 28.17805481 C13.05866125 28.18312585 11.52029608 28.18546308 9.98193359 28.18530273 C7.66874954 28.18745921 5.35606643 28.20552768 3.04296875 28.22460938 C-19.7461146 28.31589357 -19.7461146 28.31589357 -26 23 C-24.8433323 19.52999689 -24.14273284 19.15298541 -21.125 17.3125 C-20.42632812 16.87550781 -19.72765625 16.43851563 -19.0078125 15.98828125 C-17 15 -17 15 -14 15 C-15.46484375 16.20442708 -16.9296875 17.40885417 -18.39453125 18.61328125 C-20.00903269 20.00780196 -21.50995992 21.47416317 -23 23 C-21.47969758 23.31507274 -19.958724 23.62690732 -18.4375 23.9375 C-17.16712891 24.19853516 -17.16712891 24.19853516 -15.87109375 24.46484375 C-10.11985908 25.53684259 -4.60891175 26.12278503 1.24609375 26.09765625 C1.90207047 26.0962413 2.55804718 26.09482635 3.23390198 26.09336853 C5.30181702 26.08783031 7.36961842 26.07529002 9.4375 26.0625 C10.85090988 26.05747699 12.26432148 26.0529155 13.67773438 26.04882812 C17.11852568 26.03788126 20.55925172 26.02066038 24 26 C22.06745228 23.9754262 20.36841312 22.57894208 18 21 C17.55914062 20.23816406 17.11828125 19.47632812 16.6640625 18.69140625 C14.03215629 14.43463775 10.18014343 11.62324552 6.3984375 8.40234375 C4.11209001 6.11227257 3.30552915 5.14986003 3 2 C2.21625 2.515625 1.4325 3.03125 0.625 3.5625 C-0.674375 4.2740625 -0.674375 4.2740625 -2 5 C-2.66 4.67 -3.32 4.34 -4 4 C-2.25 1.9375 -2.25 1.9375 0 0 Z " fill="#6F7F6D" transform="translate(53,76)"/>
	

	<path d="M0 0 C3.72799133 5.78481413 3.72635094 12.26994342 4 19 C4.04125 19.94230469 4.0825 20.88460937 4.125 21.85546875 C4.22851702 26.2355328 4.22636945 29.12805313 2 33 C0.35 32.67 -1.3 32.34 -3 32 C-1.02 31.505 -1.02 31.505 1 31 C1.26258186 21.13859233 1.14871156 11.44613469 -2 2 C-10.10036134 2.54576903 -18.01348818 3.54147036 -26 5 C-21.73735386 12.32967201 -16.4828363 17.58055384 -10 23 C-14.20678298 23 -16.01519624 20.66047488 -18.9375 17.9375 C-19.72543945 17.23850586 -19.72543945 17.23850586 -20.52929688 16.52539062 C-24.29891694 13.0577176 -26.78150374 9.63159746 -29 5 C-28 3 -28 3 -25.62890625 2.18359375 C-6.39600804 -2.49600314 -6.39600804 -2.49600314 0 0 Z " fill="#718162" transform="translate(85,65)"/>
	

	<path d="M0 0 C3.69712759 1.19612951 6.28033518 2.8864018 9.1875 5.4453125 C12.25800191 8.07906199 15.51325935 10.48629284 18.73046875 12.9375 C21.10910197 15.09914947 22.49540489 17.1770463 24 20 C20.84283173 18.66427496 18.44318334 16.78980317 15.8515625 14.5703125 C13.51615953 12.58965429 11.13645877 10.66879538 8.75 8.75 C7.89921875 8.06421875 7.0484375 7.3784375 6.171875 6.671875 C4.11326587 4.97696175 4.11326587 4.97696175 2 4 C2.32742187 4.80695312 2.65484375 5.61390625 2.9921875 6.4453125 C4.20401292 10.71958047 4.22214556 14.46608628 4.125 18.875 C4.11597656 19.65875 4.10695313 20.4425 4.09765625 21.25 C4.07428063 23.16680055 4.03841653 25.08344191 4 27 C3.34 27.33 2.68 27.66 2 28 C1.15111147 22.66412921 0.67731694 17.33902068 0.2578125 11.953125 C0.03401145 9.38958571 -0.2676128 6.8600293 -0.625 4.3125 C-0.74875 3.219375 -0.8725 2.12625 -1 1 C-0.67 0.67 -0.34 0.34 0 0 Z " fill="#99A48E" transform="translate(17,4)"/>
	

	<path d="M0 0 C0 1.32 0 2.64 0 4 C-1.91681067 5.8807578 -3.76747034 7.48623266 -5.875 9.125 C-11.3422296 13.51677045 -16.15327085 18.10106677 -20.87890625 23.296875 C-23 25 -23 25 -25.15234375 25.015625 C-27.61588655 23.66145771 -28.06371341 22.64389499 -29 20 C-29.43672551 17.99160183 -29.80793445 15.96822938 -30.125 13.9375 C-30.29257812 12.89464844 -30.46015625 11.85179688 -30.6328125 10.77734375 C-31 8 -31 8 -31 5 C-28.215707 7.784293 -28.05089931 10.886863 -27.375 14.625 C-27.2409375 15.33140625 -27.106875 16.0378125 -26.96875 16.765625 C-26.63889975 18.50911918 -26.31853944 20.25440389 -26 22 C-22.47647551 21.42370456 -20.89797662 20.23074599 -18.46875 17.65625 C-17.82292969 16.98722656 -17.17710938 16.31820312 -16.51171875 15.62890625 C-15.84785156 14.92636719 -15.18398438 14.22382812 -14.5 13.5 C-13.1843353 12.10769463 -11.86166663 10.72196603 -10.53125 9.34375 C-9.94923828 8.72693359 -9.36722656 8.11011719 -8.76757812 7.47460938 C-6.83546548 5.86273639 -5.45854871 5.4021117 -3 5 C-3 4.01 -3 3.02 -3 2 C-3.969375 2.165 -4.93875 2.33 -5.9375 2.5 C-13.67231944 3.58722362 -21.27779791 2.90280442 -29 2 C-29 1.67 -29 1.34 -29 1 C-25.10423907 0.83161213 -21.20838071 0.66559171 -17.3125 0.5 C-16.20970703 0.45230469 -15.10691406 0.40460938 -13.97070312 0.35546875 C-12.90400391 0.31035156 -11.83730469 0.26523438 -10.73828125 0.21875 C-9.26935425 0.1559082 -9.26935425 0.1559082 -7.77075195 0.09179688 C-5.1778941 0.00589375 -2.59402311 -0.016562 0 0 Z " fill="#D1C24B" transform="translate(50,68)"/>
	

	<path d="M0 0 C3.875 1.875 3.875 1.875 5 3 C9.52602509 3.31213966 12.14727808 3.38613823 16.3125 1.5 C22.11665137 -0.86101073 27.73663661 -1.37558816 33.61328125 1.1015625 C39.4562596 4.50012223 44.77138603 8.73122821 50 13 C49.67 13.66 49.34 14.32 49 15 C48.04738281 14.31292969 47.09476563 13.62585937 46.11328125 12.91796875 C44.84642729 12.00771072 43.57949612 11.09756015 42.3125 10.1875 C41.68666016 9.73568359 41.06082031 9.28386719 40.41601562 8.81835938 C34.6179447 4.65953363 30.29903438 1.71559161 23 1 C23 1.66 23 2.32 23 3 C18 4.66666667 13 6.33333333 8 8 C4.17275043 5.89110738 1.50139512 4.20390632 0 0 Z " fill="#E2DFB8" transform="translate(38,19)"/>
	

	<path d="M0 0 C1.32 0.33 2.64 0.66 4 1 C4 2.32 4 3.64 4 5 C2.9275 5.5775 1.855 6.155 0.75 6.75 C-1.72520481 8.13671113 -3.16907165 9.18398974 -5.125 11.3125 C-7 13 -7 13 -9.375 13 C-12.60995236 11.7676372 -15.19958173 10.01890619 -18 8 C-17.67 7.34 -17.34 6.68 -17 6 C-14.69 6.66 -12.38 7.32 -10 8 C-10 7.01 -10 6.02 -10 5 C-6.3558226 2.5705484 -4.28758728 2.83820425 0 3 C0 2.01 0 1.02 0 0 Z " fill="#859511" transform="translate(39,24)"/>
	

	<path d="M0 0 C1.90845703 0.15275391 1.90845703 0.15275391 3.85546875 0.30859375 C4.83128906 0.39238281 5.80710938 0.47617187 6.8125 0.5625 C3.3898112 2.56745741 0.22063648 3.09166486 -3.6875 3.625 C-8.06047744 4.21006384 -8.06047744 4.21006384 -12.37109375 5.1171875 C-15.29204631 5.833292 -18.19548154 5.61690034 -21.1875 5.5625 C-22.1775 5.5625 -23.1675 5.5625 -24.1875 5.5625 C-26.375 4.5625 -26.375 4.5625 -28.1875 3.5625 C-27.8575 2.5725 -27.5275 1.5825 -27.1875 0.5625 C-26.48882812 0.73523437 -25.79015625 0.90796875 -25.0703125 1.0859375 C-21.91761397 1.60711531 -19.2402436 1.48217798 -16.0625 1.1875 C-15.02867188 1.09726562 -13.99484375 1.00703125 -12.9296875 0.9140625 C-3.52790179 -0.29129464 -3.52790179 -0.29129464 0 0 Z " fill="#E3D87D" transform="translate(76.1875,62.4375)"/>
	

	<path d="M0 0 C9.24 0 18.48 0 28 0 C27.03302499 4.83487504 26.40457204 6.19806678 23.4375 9.8125 C22.47650391 10.99779297 22.47650391 10.99779297 21.49609375 12.20703125 C21.00238281 12.79871094 20.50867188 13.39039062 20 14 C19.67 13.34 19.34 12.68 19 12 C19.34933594 11.52949219 19.69867188 11.05898437 20.05859375 10.57421875 C20.74115234 9.64029297 20.74115234 9.64029297 21.4375 8.6875 C21.88996094 8.07261719 22.34242187 7.45773438 22.80859375 6.82421875 C24.17336308 4.90322899 24.17336308 4.90322899 25 2 C24.38479492 2.04600342 23.76958984 2.09200684 23.13574219 2.1394043 C20.3413999 2.33888724 17.54603586 2.51343486 14.75 2.6875 C13.29787109 2.79674805 13.29787109 2.79674805 11.81640625 2.90820312 C10.41455078 2.99038086 10.41455078 2.99038086 8.984375 3.07421875 C8.12553711 3.13182373 7.26669922 3.18942871 6.38183594 3.2487793 C4 3 4 3 0 0 Z " fill="#D1C24B" transform="translate(83,64)"/>
	

	<path d="M0 0 C7.51125433 -1.16841734 12.07099173 2.78082589 18 7 C19.01707031 7.71800781 20.03414062 8.43601562 21.08203125 9.17578125 C28.47800926 14.47800926 28.47800926 14.47800926 31 17 C25.87091395 16.55693107 23.47233234 15.11347416 19.6875 11.6875 C13.0573031 6.00506288 13.0573031 6.00506288 5 3 C2.29581861 3.25601717 -0.13220377 3.75994989 -2.73828125 4.51953125 C-5 5 -5 5 -9 4 C-6.03 3.34 -3.06 2.68 0 2 C0 1.34 0 0.68 0 0 Z " fill="#D0C565" transform="translate(61,20)"/>
	

	<path d="M0 0 C0.66 0.33 1.32 0.66 2 1 C2 1.66 2 2.32 2 3 C0.35546875 4.5859375 0.35546875 4.5859375 -1.8125 6.375 C-4.02020388 8.20067862 -5.84033649 9.77464161 -7.5 12.1171875 C-9.25995133 14.32629307 -10.53145555 14.87916575 -13.1875 15.75 C-14.26064453 16.11351562 -14.26064453 16.11351562 -15.35546875 16.484375 C-15.89816406 16.65453125 -16.44085938 16.8246875 -17 17 C-16.22257509 11.29038752 -11.23345797 8.40775873 -7 5 C-5.03686762 3.57925884 -3.05645463 2.28528415 -1 1 C-0.67 0.67 -0.34 0.34 0 0 Z " fill="#E4E2C1" transform="translate(53,71)"/>
	

	<path d="M0 0 C0.495 1.485 0.495 1.485 1 3 C0.0925 3.433125 -0.815 3.86625 -1.75 4.3125 C-4.89168309 5.79529456 -4.89168309 5.79529456 -6.86621094 7.56079102 C-13.93482097 12.32846334 -26.62103367 9.96251135 -34.75 9.5625 C-35.9359375 9.51029297 -37.121875 9.45808594 -38.34375 9.40429688 C-41.22954543 9.27629788 -44.11483734 9.14143583 -47 9 C-47 8.67 -47 8.34 -47 8 C-45.88963379 7.97494385 -44.77926758 7.9498877 -43.63525391 7.92407227 C-39.52396681 7.83005085 -35.41285077 7.72981743 -31.30175781 7.62768555 C-29.52087397 7.5843167 -27.73994802 7.54264306 -25.95898438 7.50268555 C-23.40221452 7.4450301 -20.84565702 7.3813223 -18.2890625 7.31640625 C-17.49005524 7.29969376 -16.69104797 7.28298126 -15.86782837 7.26576233 C-11.80193632 7.24607009 -11.80193632 7.24607009 -8 6 C-7.34444881 3.47266765 -7.34444881 3.47266765 -7 1 C-5.02 1.33 -3.04 1.66 -1 2 C-0.67 1.34 -0.34 0.68 0 0 Z " fill="#E6E3C2" transform="translate(88,97)"/>
	

	<path d="M0 0 C1.65 0 3.3 0 5 0 C8.2564009 6.2296365 8.7168007 12.03506725 9 19 C9.04125 19.94230469 9.0825 20.88460937 9.125 21.85546875 C9.22851702 26.2355328 9.22636945 29.12805313 7 33 C5.35 32.67 3.7 32.34 2 32 C3.32 31.67 4.64 31.34 6 31 C6.26258186 21.13859233 6.14871156 11.44613469 3 2 C2.01 1.34 1.02 0.68 0 0 Z " fill="#83931C" transform="translate(80,65)"/>
	

	<path d="M0 0 C0.33 0 0.66 0 1 0 C1.33 2.31 1.66 4.62 2 7 C5.79152334 7.0867982 9.58279296 7.14032207 13.375 7.1875 C14.45523437 7.21263672 15.53546875 7.23777344 16.6484375 7.26367188 C18.1953125 7.27817383 18.1953125 7.27817383 19.7734375 7.29296875 C20.72653809 7.3086792 21.67963867 7.32438965 22.66162109 7.34057617 C23.81911865 7.17199097 23.81911865 7.17199097 25 7 C25.66 6.01 26.32 5.02 27 4 C27.99 4.66 28.98 5.32 30 6 C29.67 7.32 29.34 8.64 29 10 C25.03047101 9.88201056 21.06119219 9.75778201 17.09204102 9.62768555 C15.74085853 9.58428777 14.38961947 9.5426163 13.03833008 9.50268555 C11.09963299 9.44510048 9.16113724 9.38085702 7.22265625 9.31640625 C6.05484619 9.27974854 4.88703613 9.24309082 3.68383789 9.20532227 C1 9 1 9 0 8 C-0.14115161 5.32941149 -0.04247107 2.67567762 0 0 Z " fill="#D1C24B" transform="translate(17,54)"/>
	

	<path d="M0 0 C0 0.66 0 1.32 0 2 C3.3 2 6.6 2 10 2 C10 3.98 10 5.96 10 8 C7.875 8.875 7.875 8.875 5 9 C2.70485976 7.2531134 0.85561893 5.19996058 -1 3 C-1.33 3.99 -1.66 4.98 -2 6 C-2.66 5.67 -3.32 5.34 -4 5 C-4 3.68 -4 2.36 -4 1 C-2 0 -2 0 0 0 Z " fill="#E1BB1E" transform="translate(21,68)"/>
	

	

	

	<path d="M0 0 C-3.4226888 2.00495741 -6.59186352 2.52916486 -10.5 3.0625 C-14.05971431 3.55645118 -17.53370767 4.03997296 -21 5 C-21.33 4.34 -21.66 3.68 -22 3 C-14.63858312 -1.85853514 -8.55143693 -1.10496095 0 0 Z " fill="#A9B39B" transform="translate(83,63)"/>
	

	<path d="M0 0 C1.98 0.99 1.98 0.99 4 2 C3.98839844 2.57105469 3.97679688 3.14210938 3.96484375 3.73046875 C3.88547172 10.86261249 4.37660007 17.8976936 5 25 C4.34 25.33 3.68 25.66 3 26 C2.91697632 25.13834229 2.91697632 25.13834229 2.83227539 24.25927734 C2.5778124 21.63097381 2.32018189 19.00298982 2.0625 16.375 C1.97548828 15.47136719 1.88847656 14.56773438 1.79882812 13.63671875 C1.34748614 9.05643346 0.8352958 4.5301628 0 0 Z " fill="#BDB414" transform="translate(86,66)"/>
	

	<path d="M0 0 C0 3.9385036 -1.50528189 6.11137903 -4 9 C-6.49882163 11.26251455 -9.01133659 13.42282033 -12 15 C-12.99 14.67 -13.98 14.34 -15 14 C-13.1875 12 -13.1875 12 -11 10 C-10.01 10 -9.02 10 -8 10 C-7.79375 9.46375 -7.5875 8.9275 -7.375 8.375 C-5.42003056 4.9982346 -2.81776305 2.69525161 0 0 Z " fill="#94A08A" transform="translate(52,75)"/>
	

	<path d="M0 0 C0.33 0 0.66 0 1 0 C1.66 2.97 2.32 5.94 3 9 C4.32 9.33 5.64 9.66 7 10 C9.75256794 8.14835964 9.75256794 8.14835964 12 6 C11.690625 6.598125 11.38125 7.19625 11.0625 7.8125 C9.89790296 10.08956772 9.89790296 10.08956772 9 13 C7.35 13.33 5.7 13.66 4 14 C0.26321694 9.28840397 -0.11284843 5.98096662 0 0 Z " fill="#E3D87D" transform="translate(20,82)"/>
	

	<path d="M0 0 C1.32 0.33 2.64 0.66 4 1 C3.01 1.495 3.01 1.495 2 2 C2.32742187 2.80695312 2.65484375 3.61390625 2.9921875 4.4453125 C4.20401292 8.71958047 4.22214556 12.46608628 4.125 16.875 C4.11597656 17.65875 4.10695313 18.4425 4.09765625 19.25 C4.07428063 21.16680055 4.03841653 23.08344191 4 25 C3.67 25 3.34 25 3 25 C2.92652344 23.42412109 2.92652344 23.42412109 2.8515625 21.81640625 C2.46623574 14.34124509 1.94572447 7.26403803 0 0 Z " fill="#6F7F6A" transform="translate(17,6)"/>
	

	<path d="M0 0 C2.64 0 5.28 0 8 0 C5 2 5 2 2 2 C2.99 3.98 3.98 5.96 5 8 C2.4636387 6.98545548 1.20648539 6.3146444 -0.3125 4 C-0.6528125 3.01 -0.6528125 3.01 -1 2 C-0.67 1.34 -0.34 0.68 0 0 Z " fill="#869611" transform="translate(57,68)"/>
	

	

	<path d="M0 0 C2.475 0.99 2.475 0.99 5 2 C5 3.32 5 4.64 5 6 C3.02 5.01 1.04 4.02 -1 3 C-0.67 2.01 -0.34 1.02 0 0 Z " fill="#E6E3C2" transform="translate(49,63)"/>
	

	

	

</svg>
