<?xml version="1.0" encoding="iso-8859-1"?>
<svg height="128" version="1.1" width="128" xmlns="http://www.w3.org/2000/svg">
	

	<path d="M0 0 C42.24 0 84.48 0 128 0 C128 42.24 128 84.48 128 128 C85.76 128 43.52 128 0 128 C0 85.76 0 43.52 0 0 Z " fill="#7C7D7E" transform="translate(0,0)"/>
	

	<path d="M0 0 C5.21240786 0.04307775 8.68707616 0.86181238 13.375 3.25 C14.86732932 3.77244922 16.36805939 4.27132475 17.875 4.75 C18.63941406 5.00523438 19.40382813 5.26046875 20.19140625 5.5234375 C22.06323699 6.1462649 23.93762292 6.76140386 25.8125 7.375 C33.29164908 10.67974029 40.90008283 18.42732699 45.375 25.25 C46.625 28.9375 46.625 28.9375 47.375 32.25 C47.725625 32.85070313 48.07625 33.45140625 48.4375 34.0703125 C49.70862607 37.02568062 49.41978899 39.25300311 49.125 42.4375 C49.03734375 43.50355469 48.9496875 44.56960937 48.859375 45.66796875 C48.69953125 46.52003906 48.5396875 47.37210938 48.375 48.25 C47.385 48.745 47.385 48.745 46.375 49.25 C45.385 44.795 45.385 44.795 44.375 40.25 C43.715 40.25 43.055 40.25 42.375 40.25 C41.03717952 47.51245404 40.18048963 54.85860591 40.375 62.25 C39.055 62.58 37.735 62.91 36.375 63.25 C35.88 61.27 35.88 61.27 35.375 59.25 C34.7975 59.1675 34.22 59.085 33.625 59 C30.7590696 58.04468987 29.3759236 56.46530827 27.375 54.25 C29.99302919 59.19644949 29.99302919 59.19644949 33.625 63.375 C35.375 65.25 35.375 65.25 35.625 68 C35.5425 68.7425 35.46 69.485 35.375 70.25 C34.43527344 70.66572266 34.43527344 70.66572266 33.4765625 71.08984375 C32.65929687 71.45207031 31.84203125 71.81429687 31 72.1875 C30.18789062 72.54714844 29.37578125 72.90679687 28.5390625 73.27734375 C27.13816215 73.9069903 25.74874716 74.56312642 24.375 75.25 C22.33468675 75.24582331 20.29407988 75.23560128 18.25439453 75.18481445 C6.00128046 74.75250164 6.00128046 74.75250164 -4.8125 80 C-6.625 81.25 -6.625 81.25 -9.5625 81 C-11.3587801 80.56009467 -13.15219386 80.10751517 -14.9375 79.625 C-18.92050133 79.06923237 -22.66290853 79.68977242 -26.625 80.25 C-27.68267578 80.39501953 -27.68267578 80.39501953 -28.76171875 80.54296875 C-30.38404197 80.77002819 -32.00473605 81.00868409 -33.625 81.25 C-33.27181664 73.74485355 -31.55525759 66.8467921 -29.46484375 59.66796875 C-28.72981211 56.67656092 -28.44473343 54.3029016 -28.625 51.25 C-29.285 51.25 -29.945 51.25 -30.625 51.25 C-32.38671875 49.0546875 -32.38671875 49.0546875 -34.3125 46.125 C-34.95574219 45.17367187 -35.59898438 44.22234375 -36.26171875 43.2421875 C-37.89686926 39.65328982 -37.72815326 37.989327 -36.625 34.25 C-35.965 33.26 -35.305 32.27 -34.625 31.25 C-38.34927161 32.92999918 -38.34927161 32.92999918 -41.625 35.25 C-42.6815109 38.88147485 -42.6815109 38.88147485 -42.625 42.25 C-41.635 42.58 -40.645 42.91 -39.625 43.25 C-39.295 44.9 -38.965 46.55 -38.625 48.25 C-37.635 48.58 -36.645 48.91 -35.625 49.25 C-34.27491683 51.95016634 -34.67607581 53.81977836 -34.9375 56.8125 C-35.01613281 57.80378906 -35.09476563 58.79507813 -35.17578125 59.81640625 C-35.32402344 60.61949219 -35.47226562 61.42257813 -35.625 62.25 C-36.615 62.745 -36.615 62.745 -37.625 63.25 C-37.80675781 62.43015625 -37.98851562 61.6103125 -38.17578125 60.765625 C-38.42714844 59.68796875 -38.67851563 58.6103125 -38.9375 57.5 C-39.18113281 56.43265625 -39.42476562 55.3653125 -39.67578125 54.265625 C-40.61161149 51.29253469 -41.68850199 49.63817449 -43.625 47.25 C-44.12 45.765 -44.12 45.765 -44.625 44.25 C-45.615 43.92 -46.605 43.59 -47.625 43.25 C-48.615 45.56 -49.605 47.87 -50.625 50.25 C-50.955 50.25 -51.285 50.25 -51.625 50.25 C-52.06495881 41.65858218 -52.08809065 34.78146548 -47.625 27.25 C-46.965 27.25 -46.305 27.25 -45.625 27.25 C-45.3775 25.9815625 -45.3775 25.9815625 -45.125 24.6875 C-42.56984718 18.83194145 -37.44906138 15.36452182 -32.1875 11.9375 C-29.54244289 10.502416 -29.54244289 10.502416 -28.625 8.25 C-23.08054453 5.95574256 -17.45731925 4.29031022 -11.66796875 2.71875 C-1.95771109 0.02914706 -1.95771109 0.02914706 0 0 Z " fill="#979798" transform="translate(65.625,8.75)"/>
	

	<path d="M0 0 C42.24 0 84.48 0 128 0 C128 42.24 128 84.48 128 128 C106.88 128 85.76 128 64 128 C66 125 66 125 68.328125 124.296875 C69.29234375 124.11640625 70.2565625 123.9359375 71.25 123.75 C83.02968206 121.02400643 96.2975799 114.76125111 103.64453125 104.76171875 C104.09183594 104.18035156 104.53914063 103.59898438 105 103 C105.66 103 106.32 103 107 103 C107.40605469 101.89011719 107.40605469 101.89011719 107.8203125 100.7578125 C108.94284951 98.13360345 110.19402661 96.16565286 111.875 93.875 C120.82590981 80.68878165 122.59712287 64.01197454 120.53515625 48.50390625 C117.78071401 34.66650117 109.16589384 22.86644915 97.8203125 14.56640625 C84.7757906 6.04210836 70.29150089 3.8047431 55.08203125 6.76171875 C43.5510834 9.88854598 32.7571959 15.0563987 24.30078125 23.74609375 C23 25 23 25 21 25 C20.72800781 25.58652344 20.45601562 26.17304688 20.17578125 26.77734375 C19.02280864 28.95688333 17.74557711 30.65909709 16.1875 32.5625 C12.54811909 37.31416114 10.27218146 42.49242973 8 48 C7.63648438 48.87398437 7.27296875 49.74796875 6.8984375 50.6484375 C4.07968831 58.02620713 4.83100587 66.24405875 5 74 C4.99355469 74.7734375 4.98710938 75.546875 4.98046875 76.34375 C5.51505158 89.58103924 14.39365673 102.53578971 23 112 C29.55119124 117.86385315 38.57609193 122.58843969 47.25 124.25 C51 125 51 125 53 128 C35.51 128 18.02 128 0 128 C0 85.76 0 43.52 0 0 Z " fill="#FCFCFC" transform="translate(0,0)"/>
	

	<path d="M0 0 C2.5679975 1.06873269 2.96916239 2.0268366 4.16796875 4.51171875 C6.34618302 8.72740114 8.76826987 12.7251125 11.35546875 16.69921875 C11.74404053 17.29694092 12.1326123 17.89466309 12.53295898 18.51049805 C13.31108261 19.70737483 14.08948105 20.90407301 14.86816406 22.10058594 C16.51788824 24.65700663 18.11986379 27.24303089 19.73046875 29.82421875 C21.64015009 32.86275378 23.56957458 35.60576116 25.98046875 38.26171875 C27.98046875 40.82421875 27.98046875 40.82421875 27.859375 42.83984375 C26.37674752 46.18728713 23.69394778 46.82216574 20.44140625 48.140625 C17.51242681 48.9542304 15.04758093 48.76121587 12.0703125 48.20703125 C3.46223269 46.63022411 -2.61063886 48.25914364 -10.01953125 52.82421875 C-10.34953125 53.15421875 -10.67953125 53.48421875 -11.01953125 53.82421875 C-14.22135097 54.04252464 -16.43072318 54.10973139 -19.34765625 52.6953125 C-22.90633019 51.53510155 -24.57327821 52.35412509 -28.01953125 53.69921875 C-31.89514823 55.19212223 -34.85122541 56.08473787 -39.01953125 55.82421875 C-38.66527972 48.29637365 -36.919804 41.4234022 -34.76171875 34.2421875 C-33.26197498 27.33547278 -36.32406768 23.31078571 -39.83984375 17.54296875 C-41.21020521 14.38478472 -41.1519906 13.03468602 -40.01953125 9.82421875 C-38.01953125 7.82421875 -38.01953125 7.82421875 -35.01953125 6.82421875 C-31.66842414 7.48532151 -27.50131526 8.34243474 -25.01953125 10.82421875 C-20.46858393 11.37584873 -17.9182004 9.92430436 -14.08203125 7.57421875 C-13.03144531 6.94 -11.98085938 6.30578125 -10.8984375 5.65234375 C-8.71414814 4.26530519 -6.61066818 2.84310082 -4.51953125 1.32421875 C-2.01953125 -0.17578125 -2.01953125 -0.17578125 0 0 Z " fill="#FCFCFC" transform="translate(71.01953125,34.17578125)"/>
	

	

	<path d="M0 0 C1.71849091 1.37890887 3.40760487 2.79537881 5.0625 4.25 C6.24585937 5.28640625 6.24585937 5.28640625 7.453125 6.34375 C18.31900364 16.54437076 24.98106926 28.15407004 26.4375 43.09765625 C26.83086262 55.57462683 24.91877356 69.57530948 18.0625 80.25 C17.42699219 81.27351563 16.79148437 82.29703125 16.13671875 83.3515625 C10.53883375 92.09122208 10.53883375 92.09122208 7.0625 93.25 C7.0625 92.59 7.0625 91.93 7.0625 91.25 C7.7225 91.25 8.3825 91.25 9.0625 91.25 C9.46855469 90.14011719 9.46855469 90.14011719 9.8828125 89.0078125 C11.00534951 86.38360345 12.25652661 84.41565286 13.9375 82.125 C22.88840981 68.93878165 24.65962287 52.26197454 22.59765625 36.75390625 C19.84321401 22.91650117 11.22839384 11.11644915 -0.1171875 2.81640625 C-13.1617094 -5.70789164 -27.64599911 -7.9452569 -42.85546875 -4.98828125 C-54.3864166 -1.86145402 -65.1803041 3.3063987 -73.63671875 11.99609375 C-74.9375 13.25 -74.9375 13.25 -76.9375 13.25 C-77.20949219 13.83652344 -77.48148438 14.42304688 -77.76171875 15.02734375 C-78.91469136 17.20688333 -80.19192289 18.90909709 -81.75 20.8125 C-85.38938091 25.56416114 -87.66531854 30.74242973 -89.9375 36.25 C-90.30101563 37.12398437 -90.66453125 37.99796875 -91.0390625 38.8984375 C-93.85781169 46.27620713 -93.10649413 54.49405875 -92.9375 62.25 C-92.94394531 63.0234375 -92.95039062 63.796875 -92.95703125 64.59375 C-92.40954734 78.15049443 -83.37281014 90.33808628 -74.9375 100.25 C-75.9275 100.25 -76.9175 100.25 -77.9375 100.25 C-79.71927375 98.28548022 -81.32794434 96.3444218 -82.9375 94.25 C-83.9584375 93.074375 -83.9584375 93.074375 -85 91.875 C-93.80657665 79.94350905 -98.19384245 64.00985911 -96.25097656 49.35766602 C-95.01257153 41.59190145 -93.11511064 34.98846236 -88.9375 28.25 C-88.46054688 27.40050781 -87.98359375 26.55101562 -87.4921875 25.67578125 C-77.89528471 8.86863997 -62.53216805 -2.39836383 -43.9375 -7.75 C-29.05712948 -11.43251594 -12.575326 -8.74501113 0 0 Z " fill="#CBCCCC" transform="translate(97.9375,11.75)"/>
	

	<path d="M0 0 C2.5679975 1.06873269 2.96916239 2.0268366 4.16796875 4.51171875 C6.34618302 8.72740114 8.76826987 12.7251125 11.35546875 16.69921875 C11.74404053 17.29694092 12.1326123 17.89466309 12.53295898 18.51049805 C13.31108261 19.70737483 14.08948105 20.90407301 14.86816406 22.10058594 C16.51788824 24.65700663 18.11986379 27.24303089 19.73046875 29.82421875 C21.64015009 32.86275378 23.56957458 35.60576116 25.98046875 38.26171875 C27.98046875 40.82421875 27.98046875 40.82421875 27.859375 42.83984375 C26.37674752 46.18728713 23.69394778 46.82216574 20.44140625 48.140625 C17.51242681 48.9542304 15.04758093 48.76121587 12.0703125 48.20703125 C3.46223269 46.63022411 -2.61063886 48.25914364 -10.01953125 52.82421875 C-10.34953125 53.15421875 -10.67953125 53.48421875 -11.01953125 53.82421875 C-14.22135097 54.04252464 -16.43072318 54.10973139 -19.34765625 52.6953125 C-22.90633019 51.53510155 -24.57327821 52.35412509 -28.01953125 53.69921875 C-31.89514823 55.19212223 -34.85122541 56.08473787 -39.01953125 55.82421875 C-38.66527972 48.29637365 -36.919804 41.4234022 -34.76171875 34.2421875 C-33.26197498 27.33547278 -36.32406768 23.31078571 -39.83984375 17.54296875 C-41.21020521 14.38478472 -41.1519906 13.03468602 -40.01953125 9.82421875 C-38.01953125 7.82421875 -38.01953125 7.82421875 -35.01953125 6.82421875 C-31.66842414 7.48532151 -27.50131526 8.34243474 -25.01953125 10.82421875 C-20.46858393 11.37584873 -17.9182004 9.92430436 -14.08203125 7.57421875 C-13.03144531 6.94 -11.98085938 6.30578125 -10.8984375 5.65234375 C-8.71414814 4.26530519 -6.61066818 2.84310082 -4.51953125 1.32421875 C-2.01953125 -0.17578125 -2.01953125 -0.17578125 0 0 Z M-8.89453125 6.07421875 C-9.76335938 6.7084375 -10.6321875 7.34265625 -11.52734375 7.99609375 C-12.34976563 8.599375 -13.1721875 9.20265625 -14.01953125 9.82421875 C-17.38487742 12.17336235 -19.90030171 13.84660334 -24.14453125 13.76171875 C-27.01953125 12.82421875 -27.01953125 12.82421875 -29.51953125 11.19921875 C-32.75214878 9.42127911 -34.52387581 9.92998131 -38.01953125 10.82421875 C-38.86256221 12.52827827 -38.86256221 12.52827827 -39.01953125 14.82421875 C-37.37548888 17.92428801 -35.44610724 20.74586636 -33.48828125 23.65625 C-30.52165472 30.05501094 -33.77155913 36.93285118 -35.64648438 43.39453125 C-36.64547209 46.9660038 -37.23991492 50.11324205 -37.01953125 53.82421875 C-35.49795814 53.53643631 -33.97731072 53.24375874 -32.45703125 52.94921875 C-31.544375 52.77261719 -30.63171875 52.59601563 -29.69140625 52.4140625 C-27.43661198 51.91629359 -25.37585003 51.28424049 -23.20703125 50.51171875 C-19.19752001 49.64692221 -18.36075496 50.7139722 -15.01953125 52.82421875 C-11.5385514 51.72920853 -8.54868792 50.00310099 -5.39453125 48.19921875 C1.03952144 44.93417708 7.14461224 44.98033032 14.10546875 46.51171875 C18.43805143 46.98265165 21.98247616 45.3967625 25.98046875 43.82421875 C25.36525939 40.08097306 23.69355358 37.81676867 21.41796875 34.82421875 C15.04777697 26.25465844 9.17982378 17.56098069 4.20703125 8.1015625 C2.93465183 5.65385421 2.93465183 5.65385421 0.98046875 2.82421875 C-3.35692332 2.09401806 -5.49569857 3.48980285 -8.89453125 6.07421875 Z " fill="#CBCCCC" transform="translate(71.01953125,34.17578125)"/>
	

	<path d="M0 0 C1.09272217 0.00132935 1.09272217 0.00132935 2.20751953 0.00268555 C9.61124803 0.16125638 19.00618347 1.01185866 24.7578125 6.01171875 C25.12648438 6.46160156 25.49515625 6.91148438 25.875 7.375 C23.24044917 6.87800598 20.66037029 6.31730705 18.0703125 5.62109375 C2.32902035 1.47548627 -14.73176966 2.1538667 -29.125 10.375 C-35.59202018 14.49956259 -41.03304228 18.86444251 -45.78515625 24.90625 C-46.22730469 25.3909375 -46.66945313 25.875625 -47.125 26.375 C-47.785 26.375 -48.445 26.375 -49.125 26.375 C-49.393125 27.096875 -49.66125 27.81875 -49.9375 28.5625 C-51.12167612 31.36712764 -52.55097444 33.77180388 -54.125 36.375 C-58.98666411 45.42257568 -60.48838499 52.78902663 -60.5 63.0625 C-60.52449219 64.18333984 -60.54898438 65.30417969 -60.57421875 66.45898438 C-60.60367881 74.91893301 -59.10863898 82.07705781 -54.93115234 89.49487305 C-54.125 91.375 -54.125 91.375 -55.125 94.375 C-55.91811367 92.64649655 -56.7094259 90.91716646 -57.5 89.1875 C-57.94085938 88.22457031 -58.38171875 87.26164062 -58.8359375 86.26953125 C-64.1910012 74.24497913 -65.36550243 59.02543742 -61.125 46.375 C-59.91918674 43.30659009 -58.57628222 40.3343762 -57.125 37.375 C-56.42310547 35.91900391 -56.42310547 35.91900391 -55.70703125 34.43359375 C-48.38578972 20.27919346 -35.9689311 10.10354509 -21.1875 4.25 C-20.41535156 3.93804687 -19.64320312 3.62609375 -18.84765625 3.3046875 C-12.49416212 1.1352017 -6.68607346 -0.0148649 0 0 Z " fill="#989899" transform="translate(67.125,4.625)"/>
	

	

	

	

	

	

	

	

</svg>
