<?xml version="1.0" encoding="iso-8859-1"?>
<svg height="128" version="1.1" width="128" xmlns="http://www.w3.org/2000/svg">
	

	<path d="M0 0 C42.24 0 84.48 0 128 0 C128 42.24 128 84.48 128 128 C85.76 128 43.52 128 0 128 C0 85.76 0 43.52 0 0 Z " fill="#F9F9F7" transform="translate(0,0)"/>
	

	<path d="M0 0 C5.13405622 4.26645438 6.89020381 8.99985284 9.125 15.1875 C9.7854529 16.99673293 10.45435827 18.80290899 11.1328125 20.60546875 C11.42043457 21.40106201 11.70805664 22.19665527 12.00439453 23.01635742 C12.9617755 25.33188288 12.9617755 25.33188288 16 27 C18.5785021 26.90056643 18.5785021 26.90056643 21.42578125 26.29296875 C23.03187256 25.99205322 23.03187256 25.99205322 24.67041016 25.68505859 C30.88712025 24.40597893 37.08405947 23.03959178 43.26367188 21.59179688 C49.57065296 20.20515564 54.63477925 19.73975026 61 21 C61.99 21.99 61.99 21.99 63 23 C62.63160946 28.56836476 60.96073553 33.59333759 59.25 38.875 C56.34746999 48.08081822 54.39481202 57.35620312 52.73730469 66.86083984 C52.55200195 67.87742676 52.36669922 68.89401367 52.17578125 69.94140625 C52.02020752 70.84576416 51.86463379 71.75012207 51.7043457 72.68188477 C50.89028481 75.36109036 50.32729002 76.43819901 48 78 C45.37475586 78.32470703 45.37475586 78.32470703 42.21484375 78.2578125 C41.05202881 78.24274658 39.88921387 78.22768066 38.69116211 78.2121582 C37.45245361 78.183396 36.21374512 78.15463379 34.9375 78.125 C32.39586908 78.09682661 29.85419774 78.07209084 27.3125 78.05078125 C26.06726563 78.03869629 24.82203125 78.02661133 23.5390625 78.01416016 C18.8306808 77.99532143 14.14041866 78.09269562 9.4375 78.3125 C8.35166626 78.34657959 8.35166626 78.34657959 7.24389648 78.38134766 C4.44267341 78.53128481 2.47134426 78.65104341 0.1796875 80.34765625 C-0.20960937 80.89292969 -0.59890625 81.43820313 -1 82 C-5.19036145 87.6626506 -5.19036145 87.6626506 -9 89.25 C-12 89 -12 89 -14.8125 86.25 C-17 83 -17 83 -18 80 C-19.28632324 79.98598145 -19.28632324 79.98598145 -20.59863281 79.97167969 C-23.78972679 79.92758709 -26.97986756 79.86593944 -30.17041016 79.79248047 C-31.54951651 79.76430901 -32.92878318 79.74307528 -34.30810547 79.72900391 C-36.29422949 79.70752455 -38.27999909 79.65876868 -40.265625 79.609375 C-41.45961914 79.58842773 -42.65361328 79.56748047 -43.88378906 79.54589844 C-47.58820671 78.89695783 -48.79730216 78.00762609 -51 75 C-51.37307106 72.15349716 -51.51645498 69.76714443 -51.4375 66.9375 C-51.44813477 65.85758789 -51.44813477 65.85758789 -51.45898438 64.75585938 C-51.42491955 61.93371927 -51.31853428 59.59139194 -49.96484375 57.078125 C-47.49147367 55.72096766 -45.07818592 55.41651663 -42.30102539 55.07910156 C-35.82897904 54.3950092 -35.82897904 54.3950092 -30.15234375 51.55859375 C-28.87739824 49.44282396 -27.97267028 47.27183129 -27 45 C-25.96711335 43.29067385 -24.93206842 41.58244496 -23.87036133 39.89086914 C-19.80033787 33.38471193 -16.26338231 26.68996527 -12.890625 19.80224609 C-4.69109352 3.12739568 -4.69109352 3.12739568 0 0 Z " fill="#F7DCB1" transform="translate(57,10)"/>
	

	<path d="M0 0 C0.66 -0.33 1.32 -0.66 2 -1 C4.20919874 -1.09821132 6.42143275 -1.13078185 8.6328125 -1.1328125 C9.29759613 -1.13431305 9.96237976 -1.1358136 10.64730835 -1.13735962 C12.80660006 -1.13971662 14.96572493 -1.13346915 17.125 -1.125 C17.85452881 -1.12278442 18.58405762 -1.12056885 19.33569336 -1.11828613 C50.24681226 -1.00726708 50.24681226 -1.00726708 58 4 C57.88628503 6.29225435 57.75869036 8.58382388 57.625 10.875 C57.55539063 12.15117188 57.48578125 13.42734375 57.4140625 14.7421875 C57 18 57 18 55 20 C52.04174805 20.30297852 52.04174805 20.30297852 48.26171875 20.37890625 C47.24680107 20.40439796 47.24680107 20.40439796 46.21138 20.43040466 C44.03684976 20.48357437 41.86233031 20.52371107 39.6875 20.5625 C19.37191516 19.48933134 19.37191516 19.48933134 2 27 C-1.4375 26.8125 -1.4375 26.8125 -5 26 C-5.42853271 25.49734619 -5.85706543 24.99469238 -6.29858398 24.47680664 C-8.94050243 22.1836563 -11.3482185 22.59623844 -14.78515625 22.55859375 C-15.44204941 22.54538589 -16.09894257 22.53217804 -16.77574158 22.51856995 C-18.87137122 22.47771052 -20.96656234 22.45600983 -23.0625 22.4375 C-25.16187538 22.41372261 -27.26083705 22.38563665 -29.35997009 22.34571838 C-31.26202713 22.31019307 -33.16435758 22.29034683 -35.06665039 22.27124023 C-38 22 -38 22 -40 20 C-40.25223659 17.46883514 -40.37023663 15.09423357 -40.375 12.5625 C-40.39949219 11.88123047 -40.42398438 11.19996094 -40.44921875 10.49804688 C-40.46689441 7.49023877 -40.39639131 5.50667341 -38.51171875 3.09765625 C-34.88557312 1.51297985 -31.35554671 1.21224959 -27.4375 0.875 C-7.34049774 -1.04864253 -7.34049774 -1.04864253 0 0 Z " fill="#F6BC6C" transform="translate(48,65)"/>
	

	<path d="M0 0 C1.07386208 -0.00074776 1.07386208 -0.00074776 2.16941833 -0.00151062 C3.67636911 0.00082086 5.18332445 0.01049464 6.69018555 0.02709961 C8.99237971 0.05074311 11.2934179 0.04764762 13.59570312 0.04101562 C15.06380896 0.04659153 16.53190994 0.05370087 18 0.0625 C18.6855043 0.06158859 19.37100861 0.06067719 20.07728577 0.05973816 C23.69163978 0.11321488 26.35579096 0.39640426 29.43359375 2.36328125 C29.29326264 4.34284566 29.14618145 6.32193266 28.99609375 8.30078125 C28.91488281 9.40292969 28.83367187 10.50507812 28.75 11.640625 C28.43359375 14.36328125 28.43359375 14.36328125 27.43359375 15.36328125 C24.731709 15.54827138 22.05328995 15.67174552 19.34765625 15.75 C18.53493256 15.77552444 17.72220886 15.80104889 16.88485718 15.8273468 C15.16159629 15.87945067 13.43825237 15.92886591 11.71484375 15.97583008 C9.07634972 16.05028023 6.43873309 16.14095644 3.80078125 16.23242188 C2.12893498 16.2809481 0.45706027 16.32850598 -1.21484375 16.375 C-2.00555267 16.4040593 -2.7962616 16.43311859 -3.6109314 16.46305847 C-7.4978896 16.55238424 -9.24877112 16.575038 -12.56640625 14.36328125 C-13.03515625 11.8671875 -13.03515625 11.8671875 -13.06640625 8.92578125 C-13.09734375 7.95769531 -13.12828125 6.98960938 -13.16015625 5.9921875 C-12.56640625 3.36328125 -12.56640625 3.36328125 -10.50219727 1.72167969 C-6.93034802 0.06897539 -3.8551072 -0.05194674 0 0 Z " fill="#F39120" transform="translate(67.56640625,67.63671875)"/>
	

	<path d="M0 0 C1.66385742 -0.00386719 1.66385742 -0.00386719 3.36132812 -0.0078125 C4.51955078 -0.00007813 5.67777344 0.00765625 6.87109375 0.015625 C8.03318359 0.00789063 9.19527344 0.00015625 10.39257812 -0.0078125 C11.50052734 -0.00523438 12.60847656 -0.00265625 13.75 0 C14.76779541 0.00225586 15.78559082 0.00451172 16.83422852 0.00683594 C19.30859375 0.265625 19.30859375 0.265625 21.30859375 2.265625 C21.5390625 5.48828125 21.5390625 5.48828125 21.49609375 9.328125 C21.48964844 10.59785156 21.48320313 11.86757812 21.4765625 13.17578125 C21.30859375 16.265625 21.30859375 16.265625 20.30859375 17.265625 C16.02971902 17.67920128 11.72818567 17.78270469 7.43359375 17.953125 C6.22316406 18.01306641 5.01273438 18.07300781 3.765625 18.13476562 C2.02732422 18.2053418 2.02732422 18.2053418 0.25390625 18.27734375 C-0.81327637 18.32334717 -1.88045898 18.36935059 -2.97998047 18.41674805 C-5.69140625 18.265625 -5.69140625 18.265625 -8.69140625 16.265625 C-9.08984375 13.078125 -9.08984375 13.078125 -9.06640625 9.265625 C-9.07414063 8.0075 -9.081875 6.749375 -9.08984375 5.453125 C-8.95835938 4.40125 -8.826875 3.349375 -8.69140625 2.265625 C-5.27842977 -0.00969266 -4.0100972 0.00887821 0 0 Z " fill="#F39120" transform="translate(18.69140625,67.734375)"/>
	

</svg>
