<?xml version='1.0' encoding='ASCII' standalone='yes'?>
<svg xmlns="http://www.w3.org/2000/svg" xmlns:xlink="http://www.w3.org/1999/xlink" version="1.1">
  <g>
    <g transform="translate(0, 0) scale(1 1) ">
      <path d="m 9.708000183105469 4.618666648864746 l 4.51200008392334 0.0 l 4.104000091552734 18.04800033569336 l -3.624000072479248 0.0 l -0.8880000710487366 -4.535999774932861 l -3.863999843597412 0.0 l -0.8640000224113464 4.535999774932861 l -3.431999683380127 0.0 l 4.055999517440796 -18.04800033569336 m 2.1840007305145264 3.240000009536743 l -1.4159998893737793 7.559999942779541 l 2.8559999465942383 0.0 l -1.440000057220459 -7.559999942779541" fill="currentColor"/>
    </g>
  </g>
  <g>
    <g transform="translate(12, 0) scale(1 1) ">
      <path d="m 13.272000312805176 8.74666690826416 c 2.7839999198913574 0.0 3.5759999752044678 2.135999917984009 3.5759999752044678 7.079999923706055 c 0.0 4.992000102996826 -0.6959999799728394 7.199999809265137 -3.503999710083008 7.199999809265137 c -1.2719999551773071 0.0 -2.135999917984009 -0.47999998927116394 -2.6640000343322754 -1.5119998455047607 l 0.0 5.711999893188477 l -3.1440000534057617 0.0 l 0.0 -18.1200008392334 l 2.9760000705718994 0.0 l 0.0 1.4159998893737793 c 0.5040000081062317 -1.1759999990463257 1.4399998188018799 -1.775998830795288 2.7599997520446777 -1.775998830795288 m -1.055999755859375 2.591998815536499 c -1.4880000352859497 0.0 -1.6319999694824219 1.1759999990463257 -1.6319999694824219 3.9839999675750732 c 0.0 3.503999948501587 0.09600000083446503 5.064000129699707 1.6319999694824219 5.064000129699707 c 1.3919999599456787 0.0 1.440000057220459 -1.440000057220459 1.440000057220459 -4.535999774932861 c 0.0 -3.1440000534057617 -0.09600000083446503 -4.512000322341919 -1.440000057220459 -4.512000322341919" fill="currentColor"/>
    </g>
  </g>
  <g>
    <g transform="translate(24, 0) scale(1 1) ">
      <path d="m 13.272000312805176 8.74666690826416 c 2.7839999198913574 0.0 3.5759999752044678 2.135999917984009 3.5759999752044678 7.079999923706055 c 0.0 4.992000102996826 -0.6959999799728394 7.199999809265137 -3.503999710083008 7.199999809265137 c -1.2719999551773071 0.0 -2.135999917984009 -0.47999998927116394 -2.6640000343322754 -1.5119998455047607 l 0.0 5.711999893188477 l -3.1440000534057617 0.0 l 0.0 -18.1200008392334 l 2.9760000705718994 0.0 l 0.0 1.4159998893737793 c 0.5040000081062317 -1.1759999990463257 1.4399998188018799 -1.775998830795288 2.7599997520446777 -1.775998830795288 m -1.055999755859375 2.591998815536499 c -1.4880000352859497 0.0 -1.6319999694824219 1.1759999990463257 -1.6319999694824219 3.9839999675750732 c 0.0 3.503999948501587 0.09600000083446503 5.064000129699707 1.6319999694824219 5.064000129699707 c 1.3919999599456787 0.0 1.440000057220459 -1.440000057220459 1.440000057220459 -4.535999774932861 c 0.0 -3.1440000534057617 -0.09600000083446503 -4.512000322341919 -1.440000057220459 -4.512000322341919" fill="currentColor"/>
    </g>
  </g>
  <g>
    <g transform="translate(36, 0) scale(1 1) ">
      <path d="m 10.4399995803833 4.618666648864746 l 3.119999885559082 0.0 l 0.0 18.04800033569336 l -3.119999885559082 0.0 l 0.0 -18.04800033569336" fill="currentColor"/>
    </g>
  </g>
  <g>
    <g transform="translate(48, 0) scale(1 1) ">
      <path d="m 12.071999549865723 8.74666690826416 c 1.6799999475479126 0.0 2.885724159322484 0.4996322534023321 3.6720001697540283 1.5360000133514404 c 0.8703628778424805 1.1472002376842296 0.9359999895095825 2.759999990463257 0.9359999895095825 5.015999794006348 l 0.0 1.031999945640564 l -6.168000221252441 0.0 c -0.024000000208616257 0.2639999985694885 -0.02399999405835196 0.5519999861717224 -0.02399998903274536 0.8640000224113464 c 4.778281756251725e-08 2.424000024795532 0.36000001430511475 3.4800000190734863 1.559999942779541 3.4800000190734863 c 1.1519999504089355 0.0 1.5839999914169312 -0.8399999737739563 1.5839999914169312 -2.6640002727508545 l 2.9519999027252197 0.0 c 0.0 0.19200000166893005 0.023999994752593068 0.36000001430511475 0.02399998903274536 0.527999997138977 c -1.0132613142990997e-07 3.119999647140501 -1.440000057220459 4.48799991607666 -4.607999801635742 4.48799991607666 c -1.656000018119812 0.0 -2.780006120189748 -0.3872727197448995 -3.5279998779296875 -1.2960000038146973 c -1.169776666734134 -1.4211455140233133 -1.2000001671549914 -3.4080002307891775 -1.200000286102295 -6.288000583648682 c -1.0055497961233946e-07 -2.42400002479553 0.07484721749091428 -4.125633049433594 1.031999945640564 -5.28000020980835 c 0.7943678261908895 -0.9580416007231837 2.0640002489089966 -1.4159987568855286 3.7680002450942993 -1.415998637676239 m -0.07200032472610474 2.3999988436698914 c -1.1759999990463257 0.0 -1.5360000133514404 0.7440000176429749 -1.5360000133514404 2.447999954223633 c 0.0 0.07199999690055847 0.024000000208616257 0.2639999985694885 0.02399998903274536 0.5759999752044678 l 3.0480000972747803 0.0 l 0.0 -0.5760000348091125 c 0.0 -1.7279999256134033 -0.3120000660419464 -2.447999894618988 -1.5360000729560852 -2.447999894618988" fill="currentColor"/>
    </g>
  </g>
</svg>
