<?xml version='1.0' encoding='ASCII' standalone='yes'?>
<svg xmlns="http://www.w3.org/2000/svg" xmlns:xlink="http://www.w3.org/1999/xlink" version="1.1">
  <g>
    <g transform="translate(0, 0) scale(1 1) ">
      <path d="m 9.03600025177002 8.578666687011719 l 7.271999835968018 0.0 l 0.0 1.4880001544952393 l -5.400000095367432 0.0 l 0.0 4.584000110626221 l 3.936000347137451 0.0 l 0.0 1.4880001544952393 l -3.935999870300293 0.0 l 0.0 6.5279998779296875 l -1.871999979019165 0.0 l -2.384185791015625e-07 -14.088000297546387" fill="currentColor"/>
    </g>
  </g>
  <g>
    <g transform="translate(12, 0) scale(1 1) ">
      <path d="m 10.704000473022461 8.458666801452637 l 2.7839999198913574 0.0 l 3.5759999752044678 14.208001136779785 l -1.9199998378753662 0.0 l -0.9360000491142273 -3.9599997997283936 l -4.48799991607666 0.0 l -0.984000027179718 3.9600000381469727 l -1.7999999523162842 0.0 l 3.7679998874664307 -14.208001375198364 m 1.3680000305175781 1.248001217842102 l -0.16799992322921753 0.0 l -0.09600001573562622 0.3840000033378601 l -1.7279999256134033 7.056000232696533 l 3.7200000286102295 0.0 l -1.6319999694824219 -7.056000232696533 l -0.09600019454956055 -0.3840000033378601" fill="currentColor"/>
    </g>
  </g>
  <g>
    <g transform="translate(24, 0) scale(1 1) ">
      <path d="m 12.87600040435791 8.338666915893555 l 1.031999945640564 0.0 c 0.671999990940094 0.0 1.7999999523162842 0.09599999338388443 2.4240000247955322 0.5519999861717224 l 0.0 1.0080000162124634 l -3.7199997901916504 0.0 c -1.8480000495910645 0.0 -2.2079999446868896 0.5519999861717224 -2.2079999446868896 2.496000051498413 l 0.0 6.552000045776367 c 0.0 1.9199999570846558 0.5519999861717224 2.4000000953674316 2.2079999446868896 2.4000000953674316 l 3.7200000286102295 0.0 l 0.0 1.0080000162124634 c -0.527999997138977 0.5040000081062317 -1.7760000228881836 0.5519999861717224 -2.4240000247955322 0.5519999861717224 l -1.0319998264312744 0.0 c -3.2880001068115234 0.0 -4.343999862670898 -1.2239999771118164 -4.343999862670898 -4.271999835968018 l 0.0 -5.999999523162842 c 0.0 -3.119999647140503 1.0559996366500854 -4.296000838279724 4.34399950504303 -4.296000838279724" fill="currentColor"/>
    </g>
  </g>
  <g>
    <g transform="translate(36, 0) scale(1 1) ">
      <path d="m 8.831999778747559 8.578666687011719 l 7.271999835968018 0.0 l 0.0 1.4880001544952393 l -5.423999786376953 0.0 l 0.0 4.584000110626221 l 3.936000347137451 0.0 l 0.0 1.5120000839233398 l -3.935999870300293 0.0 l 0.0 5.015999794006348 l 5.423999786376953 0.0 l 0.0 1.4880001544952393 l -7.271999835968018 0.0 l -4.76837158203125e-07 -14.088000297546387" fill="currentColor"/>
    </g>
  </g>
  <g>
    <g transform="translate(48, 0) scale(1 1) ">
      <path d="m 8.052000045776367 8.578666687011719 l 5.039999961853027 0.0 c 2.2079999446868896 0.0 3.119999885559082 1.2719999551773071 3.119999885559082 2.5920000076293945 l 0.0 1.3919999599456787 c 0.0 1.7039999961853027 -0.4560000002384186 2.5439999103546143 -1.944000005722046 2.9519999027252197 l 0.0 0.12000000476837158 c 1.4880000352859497 0.2639999985694885 2.1600000858306885 1.128000020980835 2.1600000858306885 2.375999927520752 l 0.0 1.5840001106262207 c 0.0 2.4719998836517334 -1.656000018119812 3.072000026702881 -3.624000072479248 3.072000026702881 l -4.751999855041504 0.0 l 0.0 -14.087999939918518 m 4.48799991607666 1.4640005826950073 l -2.5920000076293945 0.0 l 0.0 4.751999855041504 l 2.640000104904175 0.0 c 1.2000000476837158 0.0 1.8480000495910645 -0.4320000112056732 1.8480000495910645 -1.9199998378753662 l 0.0 -1.2239999771118164 c 0.0 -1.128000020980835 -0.4320002496242523 -1.6080001592636108 -1.8960001468658447 -1.6080000400543213 m 0.024000227451324463 6.311999797821045 l -2.615999937057495 0.0 l 0.0 4.823999881744385 l 2.7360000610351562 0.0 c 1.343999981880188 0.0 1.871999979019165 -0.335999995470047 1.871999979019165 -1.6080000400543213 l 0.0 -1.3919999599456787 c 0.0 -1.3919999599456787 -0.6000002026557922 -1.8240000009536743 -1.9920001029968262 -1.8239998817443848" fill="currentColor"/>
    </g>
  </g>
  <g>
    <g transform="translate(60, 0) scale(1 1) ">
      <path d="m 11.34000015258789 8.338666915893555 l 1.2719999551773071 0.0 c 2.7360000610351562 0.0 4.127999782562256 1.1039999723434448 4.127999782562256 3.888000011444092 l 0.0 6.76800012588501 c 0.0 2.7839999198913574 -1.3919999599456787 3.9119999408721924 -4.127999782562256 3.9119997024536133 l -1.2719998359680176 0.0 c -2.7119998931884766 0.0 -4.079999923706055 -1.128000020980835 -4.080000400543213 -3.8879997730255127 l 0.0 -6.791999816894531 c 0.0 -2.759999990463257 1.3680003881454468 -3.88800048828125 4.080000281333923 -3.888000249862671 m 1.5839996337890625 1.4880006313323975 l -1.8239998817443848 0.0 c -1.656000018119812 0.0 -1.968000054359436 0.887999951839447 -1.9679999351501465 2.375999927520752 l 0.0 6.840000152587891 c 0.0 1.4880000352859497 0.31200000643730164 2.4000000953674316 1.9680001735687256 2.4000000953674316 l 1.8240001201629639 0.0 c 1.6080000400543213 0.0 1.944000005722046 -0.9359999299049377 1.944000005722046 -2.4000000953674316 l 0.0 -6.840000152587891 c 0.0 -1.4639999866485596 -0.3360004723072052 -2.375999927520752 -1.944000482559204 -2.375999927520752" fill="currentColor"/>
    </g>
  </g>
  <g>
    <g transform="translate(72, 0) scale(1 1) ">
      <path d="m 11.34000015258789 8.338666915893555 l 1.2719999551773071 0.0 c 2.7360000610351562 0.0 4.127999782562256 1.1039999723434448 4.127999782562256 3.888000011444092 l 0.0 6.76800012588501 c 0.0 2.7839999198913574 -1.3919999599456787 3.9119999408721924 -4.127999782562256 3.9119997024536133 l -1.2719998359680176 0.0 c -2.7119998931884766 0.0 -4.079999923706055 -1.128000020980835 -4.080000400543213 -3.8879997730255127 l 0.0 -6.791999816894531 c 0.0 -2.759999990463257 1.3680003881454468 -3.88800048828125 4.080000281333923 -3.888000249862671 m 1.5839996337890625 1.4880006313323975 l -1.8239998817443848 0.0 c -1.656000018119812 0.0 -1.968000054359436 0.887999951839447 -1.9679999351501465 2.375999927520752 l 0.0 6.840000152587891 c 0.0 1.4880000352859497 0.31200000643730164 2.4000000953674316 1.9680001735687256 2.4000000953674316 l 1.8240001201629639 0.0 c 1.6080000400543213 0.0 1.944000005722046 -0.9359999299049377 1.944000005722046 -2.4000000953674316 l 0.0 -6.840000152587891 c 0.0 -1.4639999866485596 -0.3360004723072052 -2.375999927520752 -1.944000482559204 -2.375999927520752" fill="currentColor"/>
    </g>
  </g>
  <g>
    <g transform="translate(84, 0) scale(1 1) ">
      <path d="m 16.93199920654297 8.578666687011719 l -3.815999984741211 5.736000061035156 l 3.5999999046325684 8.35200023651123 l -1.991999864578247 0.0 l -2.7839999198913574 -6.696000099182129 l -1.3680000305175781 2.0399997234344482 l 0.0 4.656000137329102 l -1.8480000495910645 0.0 l 0.0 -14.08799934387207 l 1.8480000495910645 0.0 l 0.0 6.815999984741211 l 4.392000198364258 -6.815999984741211 l 1.9679996967315674 -7.152557373046875e-07" fill="currentColor"/>
    </g>
  </g>
</svg>
