<?xml version="1.0" encoding="UTF-8"?>
<svg version="1.1" xmlns="http://www.w3.org/2000/svg" width="128" height="128">
<path d="M0 0 C42.24 0 84.48 0 128 0 C128 42.24 128 84.48 128 128 C85.76 128 43.52 128 0 128 C0 85.76 0 43.52 0 0 Z " fill="#FAFAFA" transform="translate(0,0)"/>
<path d="M0 0 C3.39461728 0.28288477 4.74132059 0.74132059 7.1875 3.1875 C9.71973033 7.11682293 11.03780191 10.22331001 10.9375 14.9375 C9.73933563 18.8515036 7.82667829 22.02362223 5 25 C4.34 25 3.68 25 3 25 C2.505 26.485 2.505 26.485 2 28 C-0.5625 29.6875 -0.5625 29.6875 -3 31 C-1.9790625 31.7734375 -1.9790625 31.7734375 -0.9375 32.5625 C1 35 1 35 0.75 38.75 C0.5025 39.8225 0.255 40.895 0 42 C-0.99 42.33 -1.98 42.66 -3 43 C-3.33 44.65 -3.66 46.3 -4 48 C-4.9590625 48.1546875 -4.9590625 48.1546875 -5.9375 48.3125 C-6.618125 48.539375 -7.29875 48.76625 -8 49 C-8.33 49.99 -8.66 50.98 -9 52 C-11.58068433 51.48386313 -14.13694286 50.96496811 -16.6875 50.3125 C-17.450625 50.209375 -18.21375 50.10625 -19 50 C-19.66 50.66 -20.32 51.32 -21 52 C-21.99 52 -22.98 52 -24 52 C-24 53.65 -24 55.3 -24 57 C-28 57 -28 57 -31 55 C-31 54.01 -31 53.02 -31 52 C-37.1105424 51.88730557 -42.95170514 52.10395632 -49 53 C-49 53.66 -49 54.32 -49 55 C-43.61509359 55.91657981 -38.45769811 56.11138159 -33 56 C-33 57.98 -33 59.96 -33 62 C-33.99 62 -34.98 62 -36 62 C-35.67 63.32 -35.34 64.64 -35 66 C-35.66 66 -36.32 66 -37 66 C-37 66.66 -37 67.32 -37 68 C-38.45736087 68.19491452 -39.91594593 68.38069358 -41.375 68.5625 C-42.59316406 68.71912109 -42.59316406 68.71912109 -43.8359375 68.87890625 C-46 69 -46 69 -48 68 C-48 66.68 -48 65.36 -48 64 C-49.98 64 -51.96 64 -54 64 C-57.89785009 57.91590189 -59.65532373 53.23820173 -60 46 C-59.01 46 -58.02 46 -57 46 C-56.67 45.34 -56.34 44.68 -56 44 C-57.32 43.67 -58.64 43.34 -60 43 C-59.855625 42.443125 -59.71125 41.88625 -59.5625 41.3125 C-58.90731628 39.00252202 -58.90731628 39.00252202 -58.98046875 36.56640625 C-58 34 -58 34 -56.40649414 33.01782227 C-54.21402059 32.10344182 -52.01304819 31.34693107 -49.75 30.625 C-48.98558594 30.35300781 -48.22117187 30.08101562 -47.43359375 29.80078125 C-43.348354 28.4249233 -40.20215648 27.40444434 -36 29 C-35.34 29.66 -34.68 30.32 -34 31 C-29.45956112 32.74774531 -25.4955465 33.60635491 -20.9375 31.625 C-19.4834375 30.820625 -19.4834375 30.820625 -18 30 C-18.39832031 29.54109375 -18.79664063 29.0821875 -19.20703125 28.609375 C-21.91142062 25.47728415 -24.57991771 22.36122541 -27 19 C-24.45144327 13.53022023 -21.00029557 9.30631547 -15.9375 6 C-12.72490993 4.90635232 -11.1631121 4.82512979 -8 6 C-7.505 6.99 -7.505 6.99 -7 8 C-4.50995496 7.43923199 -4.50995496 7.43923199 -2 6 C-0.62810173 2.97017694 -0.62810173 2.97017694 0 0 Z " fill="#B0B0B0" transform="translate(104,12)"/>
<path d="M0 0 C2.91212894 1.22615955 3.90336866 2.21164588 5.375 5 C5.8125 7.4375 5.8125 7.4375 5.375 10 C4.715 10.78375 4.055 11.5675 3.375 12.375 C0.75282222 15.81660833 0.92060343 17.75896531 1.375 22 C2.2724827 24.83378132 2.2724827 24.83378132 3.375 27 C2.735625 27.28875 2.09625 27.5775 1.4375 27.875 C-0.77706079 28.82823451 -0.77706079 28.82823451 -1.625 31 C-2.06349044 35.82339481 -1.27516506 38.93010366 1.375 43 C4.71695749 44.67097874 8.70317465 44.07061203 12.375 44 C12.375 45.98 12.375 47.96 12.375 50 C18.58990248 51.31533407 18.58990248 51.31533407 24.375 49.25 C26.56648855 47.08206652 26.56648855 47.08206652 27.375 44 C26.715 44 26.055 44 25.375 44 C23.75 42 23.75 42 22.375 40 C20.7353125 40.2475 20.7353125 40.2475 19.0625 40.5 C15.375 41 15.375 41 12.375 41 C11.715 40.01 11.055 39.02 10.375 38 C11.3340625 37.4121875 11.3340625 37.4121875 12.3125 36.8125 C14.81278819 34.61527704 15.02450425 33.24208567 15.375 30 C17.355 30 19.335 30 21.375 30 C21.4575 30.61875 21.54 31.2375 21.625 31.875 C22.16071015 34.1304373 22.16071015 34.1304373 24.125 35 C24.8675 35.33 25.61 35.66 26.375 36 C28.06389872 37.3050581 29.7353279 38.63360658 31.375 40 C31.849375 39.360625 32.32375 38.72125 32.8125 38.0625 C36.01976942 35.48103925 38.24028732 35.41267276 42.25390625 35.17578125 C44.56372163 35.06864604 44.56372163 35.06864604 47.375 34 C48.60020264 30.99152582 48.60020264 30.99152582 49.375 28 C50.365 28 51.355 28 52.375 28 C51.715 30.31 51.055 32.62 50.375 35 C51.179375 35.5775 51.98375 36.155 52.8125 36.75 C55.35366739 38.98126893 56.02620368 39.74456771 56.375 43 C52.96937148 43.77842938 49.86734244 44.09978121 46.375 44 C47.86 44.99 47.86 44.99 49.375 46 C51.5625 47.6875 51.5625 47.6875 53.375 50 C53.86442795 54.48642288 53.61609101 58.05141108 51.375 62 C48.9375 64.375 48.9375 64.375 46.375 66 C44.89 65.505 44.89 65.505 43.375 65 C45.25 60.125 45.25 60.125 46.375 59 C46.41580783 57.00041636 46.41754356 54.99954746 46.375 53 C44.395 52.34 42.415 51.68 40.375 51 C41.125 46.25 41.125 46.25 43.375 44 C41.725 43.67 40.075 43.34 38.375 43 C38.5296875 44.11375 38.5296875 44.11375 38.6875 45.25 C38.375 48 38.375 48 36.375 50.25 C33.49473872 51.93015241 32.46790143 52.21927598 29.3125 52.4375 C25.3516198 52.65452418 25.3516198 52.65452418 22.875 55.0625 C20.84884893 59.03037919 21.16350487 61.5586023 21.375 66 C21.08304338 67.34300045 20.75993603 68.68063912 20.375 70 C33.46582829 71.49647059 33.46582829 71.49647059 46.375 70 C48.03785398 68.63405115 48.03785398 68.63405115 49.375 67 C50.66855827 65.62804426 51.99798702 64.28817344 53.375 63 C54.035 63 54.695 63 55.375 63 C56.19851864 56.61773055 56.49586218 50.43255401 56.375 44 C59.375 45 59.375 45 60.375 47 C61.86180266 61.11696134 61.86180266 61.11696134 58.8359375 66.984375 C56.82560602 69.29742049 54.81632754 71.15274328 52.375 73 C51.82457031 73.44601563 51.27414063 73.89203125 50.70703125 74.3515625 C43.68504607 79.17159183 32.53724843 79.99895824 24.375 78.67578125 C19.07667356 77.34173834 15.04244921 74.55971472 10.8125 71.1875 C10.00679565 70.56609131 10.00679565 70.56609131 9.18481445 69.93212891 C6.3540204 67.5483508 5.41742902 66.41502409 5.03515625 62.67578125 C5.14730469 61.79277344 5.25945313 60.90976563 5.375 60 C8.25 60.6875 8.25 60.6875 11.375 62 C12.75 64.625 12.75 64.625 13.375 67 C14.365 67 15.355 67 16.375 67 C16.87 65.02 16.87 65.02 17.375 63 C16.385 62.67 15.395 62.34 14.375 62 C14.375 59.69 14.375 57.38 14.375 55 C13.653125 54.938125 12.93125 54.87625 12.1875 54.8125 C8.52842375 53.75543353 6.88288398 51.79449929 4.375 49 C4.375 52.3 4.375 55.6 4.375 59 C0.90614057 58.06247042 -0.38278752 57.37196917 -2.375 54.3125 C-3.625 51 -3.625 51 -4.0625 47.25 C-4.248125 46.1775 -4.43375 45.105 -4.625 44 C-6.40765886 42.6501992 -6.40765886 42.6501992 -8.625 42 C-9.97613205 41.02418241 -11.31446944 40.02970259 -12.625 39 C-12.295 37.35 -11.965 35.7 -11.625 34 C-12.22828125 33.90203125 -12.8315625 33.8040625 -13.453125 33.703125 C-17.18156222 33.00554642 -20.02542234 32.40946767 -23.1875 30.25 C-25.13265494 27.20540966 -25.28966628 25.54488684 -24.625 22 C-22.40038218 19.83392475 -20.39122478 18.38311239 -17.625 17 C-17.233125 16.319375 -16.84125 15.63875 -16.4375 14.9375 C-13.08109701 9.4978124 -6.8994622 0 0 0 Z " fill="#909090" transform="translate(27.625,48)"/>
<path d="M0 0 C3.375 1 3.375 1 5.3125 2.5 C6.92032609 6.28312021 6.60881522 9.94720285 6.375 14 C5.055 14.33 3.735 14.66 2.375 15 C2.045 17.31 1.715 19.62 1.375 22 C2.365 21.34 3.355 20.68 4.375 20 C6.85546875 19.5859375 6.85546875 19.5859375 9.5625 19.375 C10.46355469 19.30023438 11.36460938 19.22546875 12.29296875 19.1484375 C12.98003906 19.09945312 13.66710937 19.05046875 14.375 19 C14.375 16.77073598 14.36432934 14.54116143 14.3125 12.3125 C14.375 10 14.375 10 15.375 9 C17.04117115 8.95936168 18.70888095 8.957279 20.375 9 C20.045 10.32 19.715 11.64 19.375 13 C18.715 12.34 18.055 11.68 17.375 11 C17.65124832 17.21558717 18.59382241 20.87711424 22.375 26 C22.375 26.99 22.375 27.98 22.375 29 C24.355 29 26.335 29 28.375 29 C28.375 30.32 28.375 31.64 28.375 33 C32.005 33 35.635 33 39.375 33 C39.375 32.34 39.375 31.68 39.375 31 C40.035 31 40.695 31 41.375 31 C40.88 29.02 40.88 29.02 40.375 27 C41.365 27 42.355 27 43.375 27 C43.375 25.02 43.375 23.04 43.375 21 C42.80652344 21.08378906 42.23804688 21.16757813 41.65234375 21.25390625 C36.60864455 21.91910197 32.37205931 21.9568837 27.375 21 C27.375 19.68 27.375 18.36 27.375 17 C29.9996601 16.80569145 32.62446765 16.61926762 35.25 16.4375 C35.99636719 16.38142578 36.74273437 16.32535156 37.51171875 16.26757812 C43.1484375 15.88671875 43.1484375 15.88671875 45.375 17 C45.87 18.485 45.87 18.485 46.375 20 C48.87947516 21.21869929 48.87947516 21.21869929 51.375 22 C51.705 20.35 52.035 18.7 52.375 17 C52.705 17 53.035 17 53.375 17 C53.87 20.465 53.87 20.465 54.375 24 C56.025 24.33 57.675 24.66 59.375 25 C59.375 25.99 59.375 26.98 59.375 28 C58.570625 28.45375 57.76625 28.9075 56.9375 29.375 C54.20002312 30.74891082 54.20002312 30.74891082 53.50390625 33.33984375 C53.11358004 36.05646365 53.11358004 36.05646365 54.7734375 38.16796875 C55.42570312 38.83441406 56.07796875 39.50085938 56.75 40.1875 C61.39642644 45.02829886 61.50746237 47.99471993 61.4375 54.625 C61.43298828 55.42679688 61.42847656 56.22859375 61.42382812 57.0546875 C61.41203168 59.03649006 61.39409605 61.01825433 61.375 63 C61.045 63 60.715 63 60.375 63 C60.32601562 61.94039062 60.27703125 60.88078125 60.2265625 59.7890625 C60.15153291 58.40101503 60.07598515 57.01299549 60 55.625 C59.9690625 54.92632812 59.938125 54.22765625 59.90625 53.5078125 C59.78000502 49.29814173 59.78000502 49.29814173 57.375 46 C57.41625 47.299375 57.4575 48.59875 57.5 49.9375 C57.42690613 61.54115159 57.42690613 61.54115159 53.9765625 65.67578125 C50.13732394 69 50.13732394 69 47.375 69 C46.88 70.485 46.88 70.485 46.375 72 C37.53467082 72.77546747 29.20723535 73.19354532 20.375 72 C19.12646201 68.25438602 19.70834833 65.86657968 20.375 62 C20.478125 61.113125 20.58125 60.22625 20.6875 59.3125 C21.63110411 56.13855892 22.67775545 54.93648327 25.375 53 C27.40872728 52.61162908 29.41023423 52.43454741 31.47265625 52.26171875 C34.18734812 51.88823958 35.55908848 51.0338209 37.375 49 C38.1792208 46.40144267 38.1792208 46.40144267 38.375 44 C40.025 44 41.675 44 43.375 44 C43.705 44.66 44.035 45.32 44.375 46 C43.385 46.66 42.395 47.32 41.375 48 C41.375 49.32 41.375 50.64 41.375 52 C43.355 52.66 45.335 53.32 47.375 54 C47.70113618 58.67461851 47.08082788 61.16674383 44.375 65 C47.9345477 65 48.82049506 64.38420461 51.375 62 C52.86769402 58.5170473 52.6459857 54.72605342 52.375 51 C50.56725634 48.37877169 48.24731652 47.28759017 45.375 46 C45.87 45.01 45.87 45.01 46.375 44 C49.675 44 52.975 44 56.375 44 C55.88 42.02 55.88 42.02 55.375 40 C54.05032254 39.3162955 52.71636367 38.65035814 51.375 38 C49.9375 36.1875 49.9375 36.1875 49.375 34 C50.75 31.25 50.75 31.25 52.375 29 C51.385 29.33 50.395 29.66 49.375 30 C48.69367549 31.66072849 48.02757873 33.327767 47.375 35 C44.30262756 37.0482483 43.48708769 37.2202828 40 37.375 C35.7120743 37.7457342 33.47791099 38.89708901 30.375 42 C29.05613228 40.90344712 27.74509943 39.79746577 26.4375 38.6875 C25.70660156 38.07261719 24.97570313 37.45773438 24.22265625 36.82421875 C22.375 35 22.375 35 21.375 32 C19.395 31.67 17.415 31.34 15.375 31 C15.49875 32.11375 15.49875 32.11375 15.625 33.25 C15.30394816 36.78157027 14.02234383 37.76630364 11.375 40 C12.365 40.66 13.355 41.32 14.375 42 C15.365 41.34 16.355 40.68 17.375 40 C20.35624653 39.62734418 21.76244598 39.53530385 24.1875 41.375 C25.375 43 25.375 43 25.375 45 C26.035 45 26.695 45 27.375 45 C27.05215014 48.01326538 26.34134616 49.03461538 24.1875 51.25 C20.88710466 53.30357932 19.19453295 53.49819995 15.375 53 C14.385 52.34 13.395 51.68 12.375 51 C12.1875 47.875 12.1875 47.875 12.375 45 C11.68792969 45.10699219 11.00085938 45.21398437 10.29296875 45.32421875 C9.39191406 45.44410156 8.49085937 45.56398437 7.5625 45.6875 C6.66917969 45.81511719 5.77585937 45.94273438 4.85546875 46.07421875 C2.375 46 2.375 46 0.625 44.6640625 C-2.37286368 40.67315647 -3.05349607 36.92770485 -2.625 32 C-0.625 29 -0.625 29 2.375 28 C2.045 27.319375 1.715 26.63875 1.375 25.9375 C0.15543634 22.35503176 -0.02845105 19.76554318 0.375 16 C1.055625 15.175 1.73625 14.35 2.4375 13.5 C4.76046386 11.04122782 4.76046386 11.04122782 4.3125 7.3125 C3.68875865 3.74005552 3.68875865 3.74005552 0.375 2 C-3.27625811 2.289429 -5.24241442 4.14929655 -7.875 6.5625 C-8.58140625 7.20316406 -9.2878125 7.84382813 -10.015625 8.50390625 C-10.54671875 8.99761719 -11.0778125 9.49132813 -11.625 10 C-11.955 9.34 -12.285 8.68 -12.625 8 C-11.31612542 6.64264858 -9.97647138 5.31494512 -8.625 4 C-7.861875 3.236875 -7.09875 2.47375 -6.3125 1.6875 C-3.625 0 -3.625 0 0 0 Z " fill="#9E9E9E" transform="translate(27.625,47)"/>
<path d="M0 0 C0.66 0.66 1.32 1.32 2 2 C6.70535319 3.58077681 11.17228219 4.55732833 16 3 C15.01 4.65 14.02 6.3 13 8 C14.299375 7.835 15.59875 7.67 16.9375 7.5 C21.65419287 6.9684362 26.25638935 6.92470459 31 7 C31.375 9.1875 31.375 9.1875 31 12 C29.16038352 13.99022836 27.20813852 15.38989899 25 17 C24.505 16.484375 24.01 15.96875 23.5 15.4375 C19.75285548 13.2828919 17.19155387 14.23154846 13 15 C12.34 16.65 11.68 18.3 11 20 C9.35 19.67 7.7 19.34 6 19 C5.9175 18.38125 5.835 17.7625 5.75 17.125 C5.20721701 14.84645565 5.20721701 14.84645565 3.125 13.9375 C2.42375 13.628125 1.7225 13.31875 1 13 C0 12 -1 11 -2 10 C-2.66 10 -3.32 10 -4 10 C-3.65772428 12.97065509 -3.65772428 12.97065509 -3 16 C-2.34 16.33 -1.68 16.66 -1 17 C-0.67 17.99 -0.34 18.98 0 20 C2.01508358 20.73323796 2.01508358 20.73323796 4 21 C3.67 21.66 3.34 22.32 3 23 C0.28553021 23.31241455 -2.33909361 23.51336592 -5.0625 23.625 C-6.20041992 23.68300781 -6.20041992 23.68300781 -7.36132812 23.7421875 C-9.24047195 23.83673562 -11.12020336 23.91946756 -13 24 C-13 24.66 -13 25.32 -13 26 C-7.61509359 26.91657981 -2.45769811 27.11138159 3 27 C3 28.98 3 30.96 3 33 C2.01 33 1.02 33 0 33 C0.33 34.32 0.66 35.64 1 37 C0.34 37 -0.32 37 -1 37 C-1 37.66 -1 38.32 -1 39 C-2.45736087 39.19491452 -3.91594593 39.38069358 -5.375 39.5625 C-6.59316406 39.71912109 -6.59316406 39.71912109 -7.8359375 39.87890625 C-10 40 -10 40 -12 39 C-12 37.68 -12 36.36 -12 35 C-13.98 35 -15.96 35 -18 35 C-21.89785009 28.91590189 -23.65532373 24.23820173 -24 17 C-23.01 17 -22.02 17 -21 17 C-20.67 16.34 -20.34 15.68 -20 15 C-21.32 14.67 -22.64 14.34 -24 14 C-23.855625 13.443125 -23.71125 12.88625 -23.5625 12.3125 C-22.90731628 10.00252202 -22.90731628 10.00252202 -22.98046875 7.56640625 C-22 5 -22 5 -20.40649414 4.01782227 C-18.21402059 3.10344182 -16.01304819 2.34693107 -13.75 1.625 C-12.98558594 1.35300781 -12.22117187 1.08101562 -11.43359375 0.80078125 C-7.348354 -0.5750767 -4.20215648 -1.59555566 0 0 Z " fill="#B0B0B0" transform="translate(68,41)"/>
<path d="M0 0 C3.66749849 0.09912158 4.9391412 0.94480249 7.6875 3.4375 C8.450625 4.283125 9.21375 5.12875 10 6 C10.66 6.66 11.32 7.32 12 8 C12.57613169 15.25925926 12.57613169 15.25925926 10.6875 17.6875 C10.130625 18.120625 9.57375 18.55375 9 19 C8.505 19.825 8.01 20.65 7.5 21.5 C6.10428623 23.82618961 5.11485782 25.33521489 3 27 C0.73046875 27.1875 0.73046875 27.1875 -1.8125 27 C-8.17933456 26.8053806 -12.10898314 29.0495633 -17 33 C-20.90357811 31.51933244 -22.21646529 29.73856314 -24 26 C-24.58999686 23.00795078 -24.78193797 20.04210193 -24.9375 17 C-25.00517578 16.2059375 -25.07285156 15.411875 -25.14257812 14.59375 C-25.37295292 10.58723181 -25.33033033 8.55986944 -23.24609375 5.02734375 C-20.04478867 2.13781795 -17.26716236 1.28062576 -13 1 C-9.8125 1.9375 -9.8125 1.9375 -7 3 C-3.588865 2.68989682 -2.44323037 2.44323037 0 0 Z " fill="#A8A8A8" transform="translate(60,9)"/>
<path d="M0 0 C2.91212894 1.22615955 3.90336866 2.21164588 5.375 5 C5.8125 7.4375 5.8125 7.4375 5.375 10 C4.715 10.78375 4.055 11.5675 3.375 12.375 C0.75282222 15.81660833 0.92060343 17.75896531 1.375 22 C2.2724827 24.83378132 2.2724827 24.83378132 3.375 27 C2.735625 27.28875 2.09625 27.5775 1.4375 27.875 C-0.77706079 28.82823451 -0.77706079 28.82823451 -1.625 31 C-1.91154775 35.29821623 -1.22260884 38.05923154 0.375 42 C0.045 42.99 -0.285 43.98 -0.625 45 C-5.05357143 38.71428571 -5.05357143 38.71428571 -5.625 35 C-8.1 35.495 -8.1 35.495 -10.625 36 C-10.295 36.99 -9.965 37.98 -9.625 39 C-8.29423011 39.34342449 -6.96068021 39.67619874 -5.625 40 C-4.965 40.99 -4.305 41.98 -3.625 43 C-3.955 43.99 -4.285 44.98 -4.625 46 C-4.625 45.34 -4.625 44.68 -4.625 44 C-5.2025 43.731875 -5.78 43.46375 -6.375 43.1875 C-8.6575868 41.98280141 -10.5987942 40.59201885 -12.625 39 C-12.295 37.35 -11.965 35.7 -11.625 34 C-12.22828125 33.90203125 -12.8315625 33.8040625 -13.453125 33.703125 C-17.18156222 33.00554642 -20.02542234 32.40946767 -23.1875 30.25 C-25.13265494 27.20540966 -25.28966628 25.54488684 -24.625 22 C-22.40038218 19.83392475 -20.39122478 18.38311239 -17.625 17 C-17.233125 16.319375 -16.84125 15.63875 -16.4375 14.9375 C-13.08109701 9.4978124 -6.8994622 0 0 0 Z " fill="#929292" transform="translate(27.625,48)"/>
<path d="M0 0 C1.65 0 3.3 0 5 0 C5.33 0.66 5.66 1.32 6 2 C5.01 2.66 4.02 3.32 3 4 C3 5.32 3 6.64 3 8 C4.98 8.66 6.96 9.32 9 10 C9.32613618 14.67461851 8.70582788 17.16674383 6 21 C9.5595477 21 10.44549506 20.38420461 13 18 C14.49269402 14.5170473 14.2709857 10.72605342 14 7 C12.19225634 4.37877169 9.87231652 3.28759017 7 2 C7.33 1.34 7.66 0.68 8 0 C14.40263078 0.60402177 14.40263078 0.60402177 16.71484375 2.13671875 C18.62648684 4.9083107 18.32486744 7.17588545 18.25 10.5 C18.23453125 11.6446875 18.2190625 12.789375 18.203125 13.96875 C17.90715643 18.38551179 17.39372861 19.63978021 14.0625 22.6875 C11 25 11 25 9 25 C8.67 25.99 8.34 26.98 8 28 C-0.84032918 28.77546747 -9.16776465 29.19354532 -18 28 C-19.24853799 24.25438602 -18.66665167 21.86657968 -18 18 C-17.896875 17.113125 -17.79375 16.22625 -17.6875 15.3125 C-16.74389589 12.13855892 -15.69724455 10.93648327 -13 9 C-10.96627272 8.61162908 -8.96476577 8.43454741 -6.90234375 8.26171875 C-4.18765188 7.88823958 -2.81591152 7.0338209 -1 5 C-0.1957792 2.40144267 -0.1957792 2.40144267 0 0 Z " fill="#F7F7F7" transform="translate(66,91)"/>
<path d="M0 0 C-0.66 0.99 -1.32 1.98 -2 3 C-0.9790625 3.7734375 -0.9790625 3.7734375 0.0625 4.5625 C2 7 2 7 1.75 10.75 C1.5025 11.8225 1.255 12.895 1 14 C0.01 14.33 -0.98 14.66 -2 15 C-2.495 17.475 -2.495 17.475 -3 20 C-3.639375 20.103125 -4.27875 20.20625 -4.9375 20.3125 C-5.618125 20.539375 -6.29875 20.76625 -7 21 C-7.33 21.99 -7.66 22.98 -8 24 C-10.58068433 23.48386313 -13.13694286 22.96496811 -15.6875 22.3125 C-16.450625 22.209375 -17.21375 22.10625 -18 22 C-18.66 22.66 -19.32 23.32 -20 24 C-20.99 24 -21.98 24 -23 24 C-23 25.65 -23 27.3 -23 29 C-27 29 -27 29 -30 27 C-30.6875 24.375 -30.6875 24.375 -31 22 C-32.65 21.67 -34.3 21.34 -36 21 C-36 20.01 -36 19.02 -36 18 C-36.99 17.67 -37.98 17.34 -39 17 C-39 15.02 -39 13.04 -39 11 C-38.01 10.67 -37.02 10.34 -36 10 C-35.1028125 11.1446875 -35.1028125 11.1446875 -34.1875 12.3125 C-32.1572945 14.90009674 -32.1572945 14.90009674 -30.3125 16.6875 C-29 18 -29 18 -28 20 C-25.97536745 20.65213292 -25.97536745 20.65213292 -24 21 C-23.34 19.02 -22.68 17.04 -22 15 C-14.73846154 13.64615385 -14.73846154 13.64615385 -11 15.4375 C-10.34 15.953125 -9.68 16.46875 -9 17 C-5.7457985 14.16569547 -4.4793247 12.31392226 -4 8 C-5.299375 8.165 -6.59875 8.33 -7.9375 8.5 C-12.65419287 9.0315638 -17.25638935 9.07529541 -22 9 C-21.16033059 5.14882395 -20.27986517 3.37790225 -17 1 C-11.46759302 -0.31775836 -5.65220738 -0.10276741 0 0 Z " fill="#8D8D8D" transform="translate(103,40)"/>
<path d="M0 0 C3 1 3 1 4 3 C5.48680266 17.11696134 5.48680266 17.11696134 2.4609375 22.984375 C0.45060602 25.29742049 -1.55867246 27.15274328 -4 29 C-4.55042969 29.44601563 -5.10085937 29.89203125 -5.66796875 30.3515625 C-12.68995393 35.17159183 -23.83775157 35.99895824 -32 34.67578125 C-37.29832644 33.34173834 -41.33255079 30.55971472 -45.5625 27.1875 C-46.09963623 26.77322754 -46.63677246 26.35895508 -47.19018555 25.93212891 C-50.0209796 23.5483508 -50.95757098 22.41502409 -51.33984375 18.67578125 C-51.17162109 17.35126953 -51.17162109 17.35126953 -51 16 C-45.62911322 17.07417736 -45.62911322 17.07417736 -43.8984375 19.62109375 C-43.0625 21.5 -43.0625 21.5 -42 25 C-42.33 25.66 -42.66 26.32 -43 27 C-41.68 27.33 -40.36 27.66 -39 28 C-38.34 26.02 -37.68 24.04 -37 22 C-36.67 23.32 -36.34 24.64 -36 26 C-22.90917171 27.49647059 -22.90917171 27.49647059 -10 26 C-8.33714602 24.63405115 -8.33714602 24.63405115 -7 23 C-5.70644173 21.62804426 -4.37701298 20.28817344 -3 19 C-2.34 19 -1.68 19 -1 19 C-0.17648136 12.61773055 0.12086218 6.43255401 0 0 Z " fill="#8A8A8A" transform="translate(84,92)"/>
<path d="M0 0 C3.375 1 3.375 1 5.3125 2.5 C6.92032609 6.28312021 6.60881522 9.94720285 6.375 14 C5.055 14.33 3.735 14.66 2.375 15 C2.045 17.31 1.715 19.62 1.375 22 C2.365 21.34 3.355 20.68 4.375 20 C7.29296875 19.5859375 7.29296875 19.5859375 10.5625 19.375 C11.64917969 19.30023438 12.73585938 19.22546875 13.85546875 19.1484375 C14.68691406 19.09945312 15.51835938 19.05046875 16.375 19 C16.375 19.99 16.375 20.98 16.375 22 C14.725 22 13.075 22 11.375 22 C11.395625 22.969375 11.41625 23.93875 11.4375 24.9375 C11.375 28 11.375 28 10.375 29 C8.37541636 29.04080783 6.37454746 29.04254356 4.375 29 C4.375 30.32 4.375 31.64 4.375 33 C7.015 33 9.655 33 12.375 33 C12.375 33.99 12.375 34.98 12.375 36 C11.385 36.66 10.395 37.32 9.375 38 C9.705 39.98 10.035 41.96 10.375 44 C5.99069689 46.07036536 5.99069689 46.07036536 3.1875 45.75 C0.54145508 44.65508486 -0.4844962 43.2810076 -1.75 40.75 C-2.74145139 37.63400993 -2.90782241 35.25245773 -2.625 32 C-0.625 29 -0.625 29 2.375 28 C2.045 27.319375 1.715 26.63875 1.375 25.9375 C0.15543634 22.35503176 -0.02845105 19.76554318 0.375 16 C1.055625 15.175 1.73625 14.35 2.4375 13.5 C4.76046386 11.04122782 4.76046386 11.04122782 4.3125 7.3125 C3.68875865 3.74005552 3.68875865 3.74005552 0.375 2 C-3.27625811 2.289429 -5.24241442 4.14929655 -7.875 6.5625 C-8.58140625 7.20316406 -9.2878125 7.84382813 -10.015625 8.50390625 C-10.54671875 8.99761719 -11.0778125 9.49132813 -11.625 10 C-11.955 9.34 -12.285 8.68 -12.625 8 C-11.31612542 6.64264858 -9.97647138 5.31494512 -8.625 4 C-7.861875 3.236875 -7.09875 2.47375 -6.3125 1.6875 C-3.625 0 -3.625 0 0 0 Z " fill="#B0B0B0" transform="translate(27.625,47)"/>
<path d="M0 0 C1.2065625 0.0309375 1.2065625 0.0309375 2.4375 0.0625 C2.1075 1.3825 1.7775 2.7025 1.4375 4.0625 C0.7775 3.4025 0.1175 2.7425 -0.5625 2.0625 C-0.44740339 3.48000563 -0.31996342 4.89651169 -0.1875 6.3125 C-0.11789063 7.10140625 -0.04828125 7.8903125 0.0234375 8.703125 C0.45257113 11.148377 1.22350638 12.91086903 2.4375 15.0625 C1.4475 15.3925 0.4575 15.7225 -0.5625 16.0625 C-0.5625 17.7125 -0.5625 19.3625 -0.5625 21.0625 C1.0875 21.0625 2.7375 21.0625 4.4375 21.0625 C4.7675 22.7125 5.0975 24.3625 5.4375 26.0625 C4.7775 25.0725 4.1175 24.0825 3.4375 23.0625 C0.37193402 22.32906572 0.37193402 22.32906572 -2.5625 22.0625 C-2.43875 23.17625 -2.43875 23.17625 -2.3125 24.3125 C-2.63355184 27.84407027 -3.91515617 28.82880364 -6.5625 31.0625 C-5.5725 31.7225 -4.5825 32.3825 -3.5625 33.0625 C-2.5725 32.4025 -1.5825 31.7425 -0.5625 31.0625 C2.41874653 30.68984418 3.82494598 30.59780385 6.25 32.4375 C7.4375 34.0625 7.4375 34.0625 7.4375 36.0625 C8.0975 36.0625 8.7575 36.0625 9.4375 36.0625 C9.11465014 39.07576538 8.40384616 40.09711538 6.25 42.3125 C2.94960466 44.36607932 1.25703295 44.56069995 -2.5625 44.0625 C-3.5525 43.4025 -4.5425 42.7425 -5.5625 42.0625 C-5.75 38.9375 -5.75 38.9375 -5.5625 36.0625 C-6.8825 35.7325 -8.2025 35.4025 -9.5625 35.0625 C-8.9025 35.0625 -8.2425 35.0625 -7.5625 35.0625 C-8.2225 33.0825 -8.8825 31.1025 -9.5625 29.0625 C-8.2425 27.7425 -6.9225 26.4225 -5.5625 25.0625 C-8.2025 24.7325 -10.8425 24.4025 -13.5625 24.0625 C-13.5625 22.7425 -13.5625 21.4225 -13.5625 20.0625 C-11.5825 19.7325 -9.6025 19.4025 -7.5625 19.0625 C-7.2325 17.0825 -6.9025 15.1025 -6.5625 13.0625 C-4.9125 13.0625 -3.2625 13.0625 -1.5625 13.0625 C-2.0575 11.4846875 -2.0575 11.4846875 -2.5625 9.875 C-3.4031332 6.67008594 -3.85044711 4.3259006 -3.5625 1.0625 C-2.5625 0.0625 -2.5625 0.0625 0 0 Z " fill="#8C8C8C" transform="translate(45.5625,55.9375)"/>
<path d="M0 0 C3.3125 -0.1875 3.3125 -0.1875 7 0 C8 1 9 2 10 3 C13.62535976 3.2503577 13.62535976 3.2503577 17 3 C17.33 2.01 17.66 1.02 18 0 C20.375 -0.1875 20.375 -0.1875 23 0 C25 3 25 3 24.875 4.875 C23.18737661 8.97351395 20.6483711 11.5677526 17 14 C16.071875 13.814375 15.14375 13.62875 14.1875 13.4375 C10.16858794 12.88588462 8.54309958 14.19075766 5 16 C2.25 15.875 2.25 15.875 0 15 C-2.46934085 11.29598872 -2.44928433 8.29412135 -2 4 C-1 1.5 -1 1.5 0 0 Z " fill="#F3F3F3" transform="translate(42,17)"/>
<path d="M0 0 C1.05771739 1.63064764 2.05273046 3.30280873 3 5 C4.69056798 7.15163197 5.61895635 7.88357 8.25 8.6875 C11.51792963 9.05885564 14.71390211 9.06443329 18 9 C18.66 11.64 19.32 14.28 20 17 C22.64 17.33 25.28 17.66 28 18 C27.835 19.216875 27.67 20.43375 27.5 21.6875 C27.10545459 24.81607836 26.90130275 27.84168804 27 31 C26.34 31.33 25.68 31.66 25 32 C24.27840576 33.64363134 23.60648579 35.31050386 23 37 C21.68 36.67 20.36 36.34 19 36 C19.33 35.01 19.66 34.02 20 33 C20.99 32.505 20.99 32.505 22 32 C22.65213292 29.97536745 22.65213292 29.97536745 23 28 C22.01 27.67 21.02 27.34 20 27 C20 24.69 20 22.38 20 20 C19.278125 19.938125 18.55625 19.87625 17.8125 19.8125 C14.15342375 18.75543353 12.50788398 16.79449929 10 14 C10 17.3 10 20.6 10 24 C6.57462852 23.07422392 5.2475088 22.3712632 3.25 19.375 C1.8021832 15.46589464 1.40750732 12.14299109 1 8 C0.67 7.01 0.34 6.02 0 5 C-1.65 4.67 -3.3 4.34 -5 4 C-5 3.01 -5 2.02 -5 1 C-3 0 -3 0 0 0 Z " fill="#8D8D8D" transform="translate(22,83)"/>
<path d="M0 0 C2.875 2.4375 2.875 2.4375 5 5 C5 5.66 5 6.32 5 7 C7.31 7 9.62 7 12 7 C12.0825 6.37609375 12.165 5.7521875 12.25 5.109375 C13 3 13 3 14.75 1.953125 C20.37416123 0.19557461 25.10805523 -0.2805688 31 0 C31.375 2.1875 31.375 2.1875 31 5 C29.16038352 6.99022836 27.20813852 8.38989899 25 10 C24.505 9.484375 24.01 8.96875 23.5 8.4375 C19.75285548 6.2828919 17.19155387 7.23154846 13 8 C12.34 9.65 11.68 11.3 11 13 C8.525 12.505 8.525 12.505 6 12 C5.9175 11.38125 5.835 10.7625 5.75 10.125 C5.20721701 7.84645565 5.20721701 7.84645565 3.125 6.9375 C2.073125 6.4734375 2.073125 6.4734375 1 6 C0 5 -1 4 -2 3 C-2.66 3 -3.32 3 -4 3 C-4.33 4.65 -4.66 6.3 -5 8 C-6.98 8.33 -8.96 8.66 -11 9 C-12.25664978 6.09399739 -13 4.20395416 -13 1 C-8.26632049 -0.60945103 -4.83018483 -1.57506027 0 0 Z " fill="#DADADA" transform="translate(68,48)"/>
<path d="M0 0 C0 0.66 0 1.32 0 2 C-2.31 2 -4.62 2 -7 2 C-6.01 2.66 -5.02 3.32 -4 4 C-1.8125 5.6875 -1.8125 5.6875 0 8 C0.48942795 12.48642288 0.24109101 16.05141108 -2 20 C-4.4375 22.375 -4.4375 22.375 -7 24 C-7.99 23.67 -8.98 23.34 -10 23 C-8.125 18.125 -8.125 18.125 -7 17 C-6.95919217 15.00041636 -6.95745644 12.99954746 -7 11 C-8.98 10.34 -10.96 9.68 -13 9 C-12.25 4.25 -12.25 4.25 -10 2 C-11.65 1.67 -13.3 1.34 -15 1 C-14.896875 1.7425 -14.79375 2.485 -14.6875 3.25 C-15 6 -15 6 -17.25 8.375 C-20 10 -20 10 -22.3125 9.75 C-22.869375 9.5025 -23.42625 9.255 -24 9 C-23.01 9 -22.02 9 -21 9 C-21 8.34 -21 7.68 -21 7 C-19.68 6.34 -18.36 5.68 -17 5 C-17 3.02 -17 1.04 -17 -1 C-4.15714286 -2.77142857 -4.15714286 -2.77142857 0 0 Z " fill="#AAAAAA" transform="translate(81,90)"/>
<path d="M0 0 C3 1 3 1 4 3 C5.48680266 17.11696134 5.48680266 17.11696134 2.4609375 22.984375 C0.45060602 25.29742049 -1.55867246 27.15274328 -4 29 C-4.55042969 29.44601563 -5.10085937 29.89203125 -5.66796875 30.3515625 C-12.27022777 34.8834835 -22.24532117 35.6082101 -30 35 C-32.39381394 34.45122052 -34.66068663 33.76385743 -37 33 C-37 32.67 -37 32.34 -37 32 C-35.865625 32.01160156 -34.73125 32.02320313 -33.5625 32.03515625 C-32.04166833 32.0445441 -30.52083486 32.05364322 -29 32.0625 C-28.25621094 32.07087891 -27.51242188 32.07925781 -26.74609375 32.08789062 C-21.74084996 32.10965255 -16.93574889 31.87587508 -12 31 C-11.67 30.34 -11.34 29.68 -11 29 C-13.97 28.67 -16.94 28.34 -20 28 C-20 27.67 -20 27.34 -20 27 C-19.31292969 26.96261719 -18.62585938 26.92523438 -17.91796875 26.88671875 C-17.01691406 26.82097656 -16.11585937 26.75523438 -15.1875 26.6875 C-14.29417969 26.62949219 -13.40085937 26.57148437 -12.48046875 26.51171875 C-9.63577095 25.92485983 -8.80824705 25.20887663 -7 23 C-5.70644173 21.62804426 -4.37701298 20.28817344 -3 19 C-2.34 19 -1.68 19 -1 19 C-0.17648136 12.61773055 0.12086218 6.43255401 0 0 Z " fill="#9A9A9A" transform="translate(84,92)"/>
<path d="M0 0 C1.5 1.375 1.5 1.375 3 3 C3 3.66 3 4.32 3 5 C3.99 5.33 4.98 5.66 6 6 C6.33 7.98 6.66 9.96 7 12 C8.65 12.33 10.3 12.66 12 13 C12.33 14.65 12.66 16.3 13 18 C15.91652174 18.16681109 15.91652174 18.16681109 19 18 C21.28728734 16.16116119 21.28728734 16.16116119 21.125 13.375 C21.08375 12.59125 21.0425 11.8075 21 11 C22.65 11 24.3 11 26 11 C26 12.98 26 14.96 26 17 C25.01 17 24.02 17 23 17 C23.33 18.32 23.66 19.64 24 21 C23.34 21 22.68 21 22 21 C22 21.66 22 22.32 22 23 C20.54263913 23.19491452 19.08405407 23.38069358 17.625 23.5625 C16.81289063 23.66691406 16.00078125 23.77132812 15.1640625 23.87890625 C13 24 13 24 11 23 C11 21.68 11 20.36 11 19 C9.02 19 7.04 19 5 19 C1.2786441 13.19138913 -1.21981925 8.03421594 -1 1 C-0.67 0.67 -0.34 0.34 0 0 Z " fill="#8C8C8C" transform="translate(45,57)"/>
<path d="M0 0 C1.13199353 0.9080162 2.25532363 1.82683826 3.375 2.75 C4.00148438 3.26046875 4.62796875 3.7709375 5.2734375 4.296875 C7.08701533 6.08583413 7.88761878 7.73687959 9 10 C11.05000871 10.80528889 11.05000871 10.80528889 13 11 C13 10.34 13 9.68 13 9 C13.66 9 14.32 9 15 9 C15.33 8.01 15.66 7.02 16 6 C18.31 6 20.62 6 23 6 C22.67 6.99 22.34 7.98 22 9 C21.34 9 20.68 9 20 9 C19.525625 9.825 19.05125 10.65 18.5625 11.5 C18.046875 12.325 17.53125 13.15 17 14 C16.01 14 15.02 14 14 14 C14 15.65 14 17.3 14 19 C10 19 10 19 7 17 C6.3125 14.375 6.3125 14.375 6 12 C4.35 11.67 2.7 11.34 1 11 C1 10.01 1 9.02 1 8 C0.01 7.67 -0.98 7.34 -2 7 C-2 5.02 -2 3.04 -2 1 C-1.34 0.67 -0.68 0.34 0 0 Z " fill="#888888" transform="translate(66,50)"/>
<path d="M0 0 C0 1.32 0 2.64 0 4 C-1.98 4 -3.96 4 -6 4 C-6 5.32 -6 6.64 -6 8 C-9.3125 8.6875 -9.3125 8.6875 -13 9 C-13.474375 8.5153125 -13.94875 8.030625 -14.4375 7.53125 C-15.9098745 5.78079477 -15.9098745 5.78079477 -18.26171875 5.70703125 C-19.46248047 5.75923828 -19.46248047 5.75923828 -20.6875 5.8125 C-21.49574219 5.83957031 -22.30398437 5.86664062 -23.13671875 5.89453125 C-23.75160156 5.92933594 -24.36648437 5.96414062 -25 6 C-25.33 7.98 -25.66 9.96 -26 12 C-26.66 12 -27.32 12 -28 12 C-28.8125 9.3125 -28.8125 9.3125 -29 6 C-27.3125 3.1875 -27.3125 3.1875 -24 1 C-18.93351713 0.0376513 -13.88982951 -0.02949314 -8.74609375 0.05078125 C-0.34836981 -0.10451094 -0.34836981 -0.10451094 0 0 Z " fill="#909090" transform="translate(65,12)"/>
<path d="M0 0 C0.99 0.33 1.98 0.66 3 1 C3.28718788 4.254796 3.08906111 5.83672129 1.5 8.75 C-0.23461846 12.50834 -0.17901016 14.99338535 0.08984375 19.046875 C0 21 0 21 -2 23 C-6.23963281 23.31404687 -9.36534398 23.32617985 -13 21 C-12.401875 20.484375 -11.80375 19.96875 -11.1875 19.4375 C-9.05642789 17.06287679 -8.07346165 15.02496591 -6.92578125 12.08203125 C-5.0374977 7.83538512 -2.45010639 3.940786 0 0 Z " fill="#F4F4F4" transform="translate(24,53)"/>
<path d="M0 0 C0.99 0 1.98 0 3 0 C4 3 4 3 2.8125 6 C1.00755859 8.98748923 -0.03872602 10.2629983 -3 12 C-5.54296875 12.109375 -5.54296875 12.109375 -8.1875 11.75 C-9.06792969 11.64171875 -9.94835937 11.5334375 -10.85546875 11.421875 C-13 11 -13 11 -14 10 C-14.04063832 8.33382885 -14.042721 6.66611905 -14 5 C-15.32 5.33 -16.64 5.66 -18 6 C-18 7.32 -18 8.64 -18 10 C-19.65 10 -21.3 10 -23 10 C-24.2077558 6.37673261 -23.54311128 5.35853631 -22 2 C-16.97035748 1.70413868 -14.0661504 1.9503872 -10 5 C-9.484375 5.5775 -8.96875 6.155 -8.4375 6.75 C-7.05783441 8.21604833 -7.05783441 8.21604833 -4.9375 8.0625 C-2.66404408 7.0838677 -2.66404408 7.0838677 -1.8125 4 C-1.544375 3.01 -1.27625 2.02 -1 1 C-0.67 0.67 -0.34 0.34 0 0 Z " fill="#B1B1B1" transform="translate(106,23)"/>
<path d="M0 0 C1.32 0.33 2.64 0.66 4 1 C4 1.66 4 2.32 4 3 C6.64 3 9.28 3 12 3 C12 3.99 12 4.98 12 6 C11.01 6.66 10.02 7.32 9 8 C9.33 9.98 9.66 11.96 10 14 C5.56923077 16.09230769 5.56923077 16.09230769 2.6875 15.625 C2.130625 15.41875 1.57375 15.2125 1 15 C0.87625 14.29875 0.7525 13.5975 0.625 12.875 C0.06098465 9.92224078 0.06098465 9.92224078 -1.1875 6.9375 C-2 4 -2 4 -1.125 1.625 C-0.75375 1.08875 -0.3825 0.5525 0 0 Z " fill="#F2F2F2" transform="translate(28,77)"/>
<path d="M0 0 C0.33 1.65 0.66 3.3 1 5 C2.65 5 4.3 5 6 5 C6.33 5.99 6.66 6.98 7 8 C8.98 8 10.96 8 13 8 C12.4609375 9.94140625 12.4609375 9.94140625 11 12 C8.40259095 12.55658765 6.24373679 12.83086583 3.625 12.9375 C2.95210937 12.99228516 2.27921875 13.04707031 1.5859375 13.10351562 C-1.6782853 13.28664623 -3.64793078 13.21268535 -6.4765625 11.50390625 C-6.97929688 11.00761719 -7.48203125 10.51132812 -8 10 C-7.67 8.68 -7.34 7.36 -7 6 C-6.01 6 -5.02 6 -4 6 C-4 4.35 -4 2.7 -4 1 C-2 0 -2 0 0 0 Z " fill="#5F5F5F" transform="translate(92,28)"/>
<path d="M0 0 C1.32 0.66 2.64 1.32 4 2 C4.33 2.99 4.66 3.98 5 5 C6.65 5.33 8.3 5.66 10 6 C10.12375 7.134375 10.2475 8.26875 10.375 9.4375 C10.58125 10.613125 10.7875 11.78875 11 13 C11.66 13.33 12.32 13.66 13 14 C12.67 15.65 12.34 17.3 12 19 C10.125 18.8125 10.125 18.8125 8 18 C7.690625 17.195625 7.38125 16.39125 7.0625 15.5625 C6.22618194 12.75492583 6.22618194 12.75492583 3.375 11.6875 C2.59125 11.460625 1.8075 11.23375 1 11 C0.67 12.32 0.34 13.64 0 15 C-0.103125 14.360625 -0.20625 13.72125 -0.3125 13.0625 C-0.539375 12.381875 -0.76625 11.70125 -1 11 C-1.99 10.67 -2.98 10.34 -4 10 C-3.67 9.34 -3.34 8.68 -3 8 C-1.515 8.99 -1.515 8.99 0 10 C0 6.7 0 3.4 0 0 Z " fill="#B1B1B1" transform="translate(32,97)"/>
<path d="M0 0 C2.99547834 1.03000667 3.88046745 2.02125575 5.3515625 4.80859375 C5.7890625 7.24609375 5.7890625 7.24609375 5.3515625 9.80859375 C4.6915625 10.57171875 4.0315625 11.33484375 3.3515625 12.12109375 C0.55211862 15.88284647 1.03941301 18.20438883 1.3515625 22.80859375 C0.6915625 22.80859375 0.0315625 22.80859375 -0.6484375 22.80859375 C-0.9784375 20.16859375 -1.3084375 17.52859375 -1.6484375 14.80859375 C-2.3084375 15.46859375 -2.9684375 16.12859375 -3.6484375 16.80859375 C-2.7734375 11.93359375 -2.7734375 11.93359375 -1.6484375 10.80859375 C-1.60779918 9.1424226 -1.6057165 7.4747128 -1.6484375 5.80859375 C-2.3084375 5.47859375 -2.9684375 5.14859375 -3.6484375 4.80859375 C-3.9371875 5.59234375 -4.2259375 6.37609375 -4.5234375 7.18359375 C-5.6484375 9.80859375 -5.6484375 9.80859375 -7.6484375 11.80859375 C-7.3184375 10.15859375 -6.9884375 8.50859375 -6.6484375 6.80859375 C-8.6284375 8.12859375 -10.6084375 9.44859375 -12.6484375 10.80859375 C-11.2208786 7.50690623 -9.49327693 5.40954734 -6.8359375 2.99609375 C-6.16949219 2.37089844 -5.50304687 1.74570312 -4.81640625 1.1015625 C-2.6484375 -0.19140625 -2.6484375 -0.19140625 0 0 Z " fill="#AEAEAE" transform="translate(27.6484375,48.19140625)"/>
<path d="M0 0 C2.0625 0.4375 2.0625 0.4375 4 1 C4.33 2.32 4.66 3.64 5 5 C6.98 5 8.96 5 11 5 C11 6.32 11 7.64 11 9 C12.670625 8.9690625 12.670625 8.9690625 14.375 8.9375 C18 9 18 9 20 10 C18.50902342 13.7952131 16.24299151 15.61042731 13 18 C11.84501103 16.92643323 10.70132133 15.84070212 9.5625 14.75 C8.60537109 13.84507813 8.60537109 13.84507813 7.62890625 12.921875 C5.91483694 10.89951984 5.40641122 9.58729395 5 7 C3.35 6.67 1.7 6.34 0 6 C-0.38218767 4.34385343 -0.71395102 2.67542976 -1 1 C-0.67 0.67 -0.34 0.34 0 0 Z " fill="#EBEBEB" transform="translate(45,71)"/>
<path d="M0 0 C-0.44990994 4.67906334 -0.99971015 7.39965218 -4 11 C-4.28875 11.886875 -4.5775 12.77375 -4.875 13.6875 C-5.24625 14.450625 -5.6175 15.21375 -6 16 C-8.625 16.8125 -8.625 16.8125 -11 17 C-10.34 16.01 -9.68 15.02 -9 14 C-10.65 14.33 -12.3 14.66 -14 15 C-15.06351675 18.38391693 -15.21442982 19.5804634 -13.5625 22.8125 C-12.7890625 23.8953125 -12.7890625 23.8953125 -12 25 C-14.46800047 23.84826645 -16.04783565 22.95216435 -18 21 C-18.4375 18.125 -18.4375 18.125 -18 15 C-15.77538218 12.83392475 -13.76622478 11.38311239 -11 10 C-10.5875 9.2575 -10.175 8.515 -9.75 7.75 C-7.60541432 4.3799368 -4.30275257 0 0 0 Z " fill="#949494" transform="translate(21,55)"/>
<path d="M0 0 C6.40263078 0.60402177 6.40263078 0.60402177 8.71484375 2.13671875 C10.62648684 4.9083107 10.32486744 7.17588545 10.25 10.5 C10.23453125 11.6446875 10.2190625 12.789375 10.203125 13.96875 C9.90715643 18.38551179 9.39372861 19.63978021 6.0625 22.6875 C3 25 3 25 1 25 C0.67 25.66 0.34 26.32 0 27 C-0.33 26.34 -0.66 25.68 -1 25 C-3.01669827 23.86649466 -3.01669827 23.86649466 -5 23 C-4.34 21.02 -3.68 19.04 -3 17 C-2.01 17 -1.02 17 0 17 C-0.99 19.475 -0.99 19.475 -2 22 C2.66720731 20.03543103 2.66720731 20.03543103 5.6875 16.3125 C6.63725575 10.49150752 6.63725575 10.49150752 4.75 5.1875 C2.89667355 3.92988563 1.0431838 2.91590998 -1 2 C-0.67 1.34 -0.34 0.68 0 0 Z " fill="#E2E2E2" transform="translate(74,91)"/>
<path d="M0 0 C0.33 0 0.66 0 1 0 C1.33 1.65 1.66 3.3 2 5 C2.99 4.34 3.98 3.68 5 3 C4.67 4.32 4.34 5.64 4 7 C3.34 7 2.68 7 2 7 C1.67 8.65 1.34 10.3 1 12 C0.360625 12.103125 -0.27875 12.20625 -0.9375 12.3125 C-1.618125 12.539375 -2.29875 12.76625 -3 13 C-3.33 13.99 -3.66 14.98 -4 16 C-7.55780196 15.39009109 -10.6828589 14.4216319 -14 13 C-13.67 12.01 -13.34 11.02 -13 10 C-12.34 10 -11.68 10 -11 10 C-10.67 9.34 -10.34 8.68 -10 8 C-15.01535052 8.32960216 -15.01535052 8.32960216 -19 11 C-18.67 9.68 -18.34 8.36 -18 7 C-10.73846154 5.64615385 -10.73846154 5.64615385 -7 7.4375 C-6.34 7.953125 -5.68 8.46875 -5 9 C-1.7457985 6.16569547 -0.4793247 4.31392226 0 0 Z " fill="#A2A2A2" transform="translate(99,48)"/>
<path d="M0 0 C0.66 0.66 1.32 1.32 2 2 C2.4125 1.484375 2.825 0.96875 3.25 0.4375 C3.8275 -0.036875 4.405 -0.51125 5 -1 C7.109375 -0.58984375 7.109375 -0.58984375 9 0 C8.60246179 1.46366342 8.18118616 2.9208935 7.75 4.375 C7.51796875 5.18710937 7.2859375 5.99921875 7.046875 6.8359375 C5.7785108 9.45785454 4.67576692 9.99382318 2 11 C1.54625 10.21625 1.0925 9.4325 0.625 8.625 C-3.09558679 4.90441321 -6.91344923 4.65037958 -12 4 C-8.05642184 -0.21554907 -5.70914747 -1.61027236 0 0 Z " fill="#858585" transform="translate(96,21)"/>
<path d="M0 0 C2.42088829 1.21044415 4.71933853 2.54291073 7 4 C6.67715014 7.01326538 5.96634616 8.03461538 3.8125 10.25 C0.53022411 12.292305 -1.20196452 12.50640473 -5 12 C-7 10 -7 10 -7.4375 7.6875 C-6.79708799 3.7535405 -4.32638724 0 0 0 Z " fill="#EEEEEE" transform="translate(48,88)"/>
<path d="M0 0 C0.66 0.66 1.32 1.32 2 2 C6.70535319 3.58077681 11.17228219 4.55732833 16 3 C15.01 4.65 14.02 6.3 13 8 C14.98 8 16.96 8 19 8 C19 8.33 19 8.66 19 9 C18.030625 9.268125 17.06125 9.53625 16.0625 9.8125 C15.051875 10.204375 14.04125 10.59625 13 11 C12.67 11.99 12.34 12.98 12 14 C8.6875 14.3125 8.6875 14.3125 5 14 C3.375 11.625 3.375 11.625 2 9 C-1.68250477 6.90992972 -4.81863255 6.80551779 -9 7 C-7.375 5.4375 -7.375 5.4375 -5 4 C-1.34441156 4.07615809 0.42838843 4.52365702 3.25 6.875 C5 9 5 9 7 12 C7.99 12 8.98 12 10 12 C9.87822312 10.08533633 9.87822312 10.08533633 9 8 C5.87371659 5.74212865 2.57706741 4.39108177 -1 3 C-1.33 2.67 -1.66 2.34 -2 2 C-3.69141656 2.08963062 -5.37959602 2.24577676 -7.0625 2.4375 C-7.98160156 2.53933594 -8.90070312 2.64117187 -9.84765625 2.74609375 C-10.91306641 2.87177734 -10.91306641 2.87177734 -12 3 C-7.82031663 -0.3149213 -5.25849075 -1.48316406 0 0 Z " fill="#B0B0B0" transform="translate(68,41)"/>
<path d="M0 0 C0.99 0 1.98 0 3 0 C2.34 2.31 1.68 4.62 1 7 C1.804375 7.5775 2.60875 8.155 3.4375 8.75 C5.97866739 10.98126893 6.65120368 11.74456771 7 15 C2.125 14.125 2.125 14.125 1 13 C-1.49113048 12.96823695 -3.96759961 13.06822746 -6.45703125 13.16015625 C-9.14754243 12.99070777 -10.70358908 12.3649995 -13 11 C-11 8 -11 8 -8.90625 7.48046875 C-8.1121875 7.38378906 -7.318125 7.28710938 -6.5 7.1875 C-4.0951661 6.81066279 -4.0951661 6.81066279 -2 6 C-0.30834699 3.01716843 -0.30834699 3.01716843 0 0 Z " fill="#5F5F5F" transform="translate(77,76)"/>
<path d="M0 0 C0.66 0.99 1.32 1.98 2 3 C3.79191032 5.29215045 3.79191032 5.29215045 6 7 C7.96756452 6.96877057 7.96756452 6.96877057 10 6 C11.0725 5.649375 12.145 5.29875 13.25 4.9375 C14.1575 4.628125 15.065 4.31875 16 4 C15.34 5.32 14.68 6.64 14 8 C13.34 8 12.68 8 12 8 C12 8.66 12 9.32 12 10 C10.46875 11.2890625 10.46875 11.2890625 8.5 12.625 C7.8503125 13.07101563 7.200625 13.51703125 6.53125 13.9765625 C5.77328125 14.48316406 5.77328125 14.48316406 5 15 C2.71216703 14.08486681 1.26550272 13.34515354 -0.25 11.375 C-1.37145262 7.82373337 -1.18294561 4.71989413 -1 1 C-0.67 0.67 -0.34 0.34 0 0 Z " fill="#8B8B8B" transform="translate(38,27)"/>
<path d="M0 0 C0.66 0.66 1.32 1.32 2 2 C3.98343396 2.80432248 5.9934905 3.45581465 8.02734375 4.12109375 C10.24049243 5.10715009 11.49318058 6.10927755 13 8 C12.6875 10.1875 12.6875 10.1875 12 12 C9.20171644 11.61402985 8.1794116 11.19863427 6.25 9.0625 C5 7 5 7 5 5 C-1.25783407 3.86112511 -1.25783407 3.86112511 -7 6 C-9.75 5.625 -9.75 5.625 -12 5 C-9.00079075 0.50118612 -5.32993784 -0.5762095 0 0 Z " fill="#898989" transform="translate(66,42)"/>
<path d="M0 0 C-0.33 0.66 -0.66 1.32 -1 2 C-2.99760305 2.34740923 -4.99787771 2.67966043 -7 3 C-10.12455058 4.64179359 -10.12455058 4.64179359 -10.73046875 7.1640625 C-10.88128906 7.97617187 -11.03210938 8.78828125 -11.1875 9.625 C-11.34605469 10.44226562 -11.50460938 11.25953125 -11.66796875 12.1015625 C-11.77753906 12.72804688 -11.88710937 13.35453125 -12 14 C-10.35 14 -8.7 14 -7 14 C-7.99 14.66 -8.98 15.32 -10 16 C-9.42655063 18.86724686 -9.1385485 19.8614515 -7 22 C-9.9008605 21.64701919 -10.89516676 21.11271704 -12.921875 18.93359375 C-13.52515625 18.10988281 -14.1284375 17.28617188 -14.75 16.4375 C-15.36359375 15.61121094 -15.9771875 14.78492188 -16.609375 13.93359375 C-17.06828125 13.29550781 -17.5271875 12.65742188 -18 12 C-15.32610977 6.30072223 -12.24517313 1.91329077 -6.3125 -0.5 C-3 -1 -3 -1 0 0 Z " fill="#939393" transform="translate(95,19)"/>
<path d="M0 0 C0.598125 0.20625 1.19625 0.4125 1.8125 0.625 C1.1525 1.285 0.4925 1.945 -0.1875 2.625 C1.05796405 6.36139216 2.44654953 6.81256513 5.8125 8.625 C5.4825 9.615 5.1525 10.605 4.8125 11.625 C1.5625 11.9375 1.5625 11.9375 -2.1875 11.625 C-4.6875 9.4375 -4.6875 9.4375 -6.1875 6.625 C-6.125 3.9375 -6.125 3.9375 -5.1875 1.625 C-2.1875 -0.375 -2.1875 -0.375 0 0 Z " fill="#848484" transform="translate(11.1875,68.375)"/>
<path d="M0 0 C0.33 1.32 0.66 2.64 1 4 C-8.96309963 6.4797048 -8.96309963 6.4797048 -14 6 C-14.99 5.34 -15.98 4.68 -17 4 C-16.67 3.01 -16.34 2.02 -16 1 C-10.59255982 0.22750855 -5.46137814 -0.09752461 0 0 Z " fill="#E7E7E7" transform="translate(71,63)"/>
<path d="M0 0 C2.31 0 4.62 0 7 0 C6.67 0.99 6.34 1.98 6 3 C5.34 3 4.68 3 4 3 C3.525625 3.825 3.05125 4.65 2.5625 5.5 C2.046875 6.325 1.53125 7.15 1 8 C0.01 8 -0.98 8 -2 8 C-2 9.65 -2 11.3 -2 13 C-3.32 13 -4.64 13 -6 13 C-8 10 -8 10 -8 7 C-7.360625 6.896875 -6.72125 6.79375 -6.0625 6.6875 C-5.381875 6.460625 -4.70125 6.23375 -4 6 C-3.67 5.01 -3.34 4.02 -3 3 C-2.34 3 -1.68 3 -1 3 C-0.67 2.01 -0.34 1.02 0 0 Z " fill="#929292" transform="translate(82,56)"/>
<path d="M0 0 C3.375 1 3.375 1 5.3125 2.5 C6.92032609 6.28312021 6.60881522 9.94720285 6.375 14 C5.055 14.33 3.735 14.66 2.375 15 C2.045 17.31 1.715 19.62 1.375 22 C2.365 21.34 3.355 20.68 4.375 20 C7.07421875 19.5859375 7.07421875 19.5859375 10.0625 19.375 C11.05636719 19.30023438 12.05023438 19.22546875 13.07421875 19.1484375 C13.83347656 19.09945312 14.59273437 19.05046875 15.375 19 C15.375 19.66 15.375 20.32 15.375 21 C14.30958984 21.07347656 14.30958984 21.07347656 13.22265625 21.1484375 C12.30355469 21.22320312 11.38445313 21.29796875 10.4375 21.375 C9.06271484 21.47941406 9.06271484 21.47941406 7.66015625 21.5859375 C6.90605469 21.72257812 6.15195312 21.85921875 5.375 22 C5.045 22.66 4.715 23.32 4.375 24 C3.055 23.67 1.735 23.34 0.375 23 C-0.12635648 16.60770483 -0.12635648 16.60770483 2.4375 13.5 C4.76046386 11.04122782 4.76046386 11.04122782 4.3125 7.3125 C3.68875865 3.74005552 3.68875865 3.74005552 0.375 2 C-3.27625811 2.289429 -5.24241442 4.14929655 -7.875 6.5625 C-8.58140625 7.20316406 -9.2878125 7.84382813 -10.015625 8.50390625 C-10.54671875 8.99761719 -11.0778125 9.49132813 -11.625 10 C-11.955 9.34 -12.285 8.68 -12.625 8 C-11.31612542 6.64264858 -9.97647138 5.31494512 -8.625 4 C-7.861875 3.236875 -7.09875 2.47375 -6.3125 1.6875 C-3.625 0 -3.625 0 0 0 Z " fill="#D7D7D7" transform="translate(27.625,47)"/>
<path d="M0 0 C1.98 0 3.96 0 6 0 C7.76462683 3.08809695 8 4.23312136 8 8 C7.0925 7.9175 6.185 7.835 5.25 7.75 C1.89958592 7.68975201 1.89958592 7.68975201 -0.375 10 C-0.91125 10.66 -1.4475 11.32 -2 12 C-2.99 10.68 -3.98 9.36 -5 8 C-4.360625 7.608125 -3.72125 7.21625 -3.0625 6.8125 C-0.56221181 4.61527704 -0.35049575 3.24208567 0 0 Z " fill="#5F5F5F" transform="translate(43,78)"/>
<path d="M0 0 C1.5 1.375 1.5 1.375 3 3 C3 3.66 3 4.32 3 5 C3.99 5.33 4.98 5.66 6 6 C6.0825 6.94875 6.165 7.8975 6.25 8.875 C6.65074923 12.10461791 6.65074923 12.10461791 9.0625 13.375 C9.701875 13.58125 10.34125 13.7875 11 14 C10.67 14.99 10.34 15.98 10 17 C8.68 17 7.36 17 6 17 C5.7525 16.401875 5.505 15.80375 5.25 15.1875 C4.16710688 12.86512694 4.16710688 12.86512694 1.9375 11.8125 C-0.85898944 9.19642923 -0.70198702 6.66362302 -1.01953125 2.9609375 C-1 1 -1 1 0 0 Z " fill="#5F5F5F" transform="translate(45,57)"/>
<path d="M0 0 C5.37088678 1.07417736 5.37088678 1.07417736 7.1015625 3.62109375 C7.9375 5.5 7.9375 5.5 9 9 C8.67 9.66 8.34 10.32 8 11 C10.475 11.99 10.475 11.99 13 13 C12.67 13.99 12.34 14.98 12 16 C9.98049283 14.47935919 7.98713862 12.93696257 6 11.375 C5.42765625 10.94832031 4.8553125 10.52164063 4.265625 10.08203125 C2.625 8.7734375 2.625 8.7734375 0 6 C-0.375 2.6640625 -0.375 2.6640625 0 0 Z " fill="#989898" transform="translate(33,108)"/>
<path d="M0 0 C2.97 0.33 5.94 0.66 9 1 C9.6875 3.3125 9.6875 3.3125 10 6 C8.5625 7.8125 8.5625 7.8125 7 9 C7.99 9.66 8.98 10.32 10 11 C10.99 10.34 11.98 9.68 13 9 C15.5 8.625 15.5 8.625 18 9 C19.8125 11 19.8125 11 21 13 C20.4225 12.649375 19.845 12.29875 19.25 11.9375 C17.08596543 10.83046311 17.08596543 10.83046311 14.9375 11.1875 C12.62200436 12.1585143 11.50990984 12.98678688 10 15 C9.27802838 17.60611077 9.27802838 17.60611077 9 20 C8.67 20 8.34 20 8 20 C8 18.02 8 16.04 8 14 C6.68 13.67 5.36 13.34 4 13 C4.66 13 5.32 13 6 13 C5.34 11.02 4.68 9.04 4 7 C5.32 5.68 6.64 4.36 8 3 C5.36 2.67 2.72 2.34 0 2 C0 1.34 0 0.68 0 0 Z " fill="#A7A7A7" transform="translate(32,78)"/>
<path d="M0 0 C1.65 0 3.3 0 5 0 C5.33 0.66 5.66 1.32 6 2 C5.01 2.66 4.02 3.32 3 4 C3 5.32 3 6.64 3 8 C4.98 8.66 6.96 9.32 9 10 C8.67 10.99 8.34 11.98 8 13 C8 12.34 8 11.68 8 11 C7.071875 11.04125 6.14375 11.0825 5.1875 11.125 C2 11 2 11 -1 9 C-1.99 9.33 -2.98 9.66 -4 10 C-5.56118428 10.06740865 -7.1250252 10.08514456 -8.6875 10.0625 C-9.89986328 10.04896484 -9.89986328 10.04896484 -11.13671875 10.03515625 C-12.05904297 10.01775391 -12.05904297 10.01775391 -13 10 C-13 9.67 -13 9.34 -13 9 C-11.7625 8.896875 -10.525 8.79375 -9.25 8.6875 C-5.72754713 8.23238662 -3.45039472 7.74444209 -1 5 C-0.1957792 2.40144267 -0.1957792 2.40144267 0 0 Z " fill="#D7D7D7" transform="translate(66,91)"/>
<path d="M0 0 C0.33 0 0.66 0 1 0 C1 2.97 1 5.94 1 9 C2.32 9.66 3.64 10.32 5 11 C4.67 11.99 4.34 12.98 4 14 C3.01 14.33 2.02 14.66 1 15 C-0.0209375 16.0209375 -0.0209375 16.0209375 -1.0625 17.0625 C-1.701875 17.701875 -2.34125 18.34125 -3 19 C-3.66 19 -4.32 19 -5 19 C-3.125 14.125 -3.125 14.125 -2 13 C-1.96834118 10.47633967 -2.06824712 7.96729895 -2.16015625 5.4453125 C-2 3 -2 3 0 0 Z " fill="#858585" transform="translate(26,62)"/>
<path d="M0 0 C0.33 0.99 0.66 1.98 1 3 C-1.94414048 4.96276032 -2.80204933 5.25476379 -6.125 5.5 C-8.043125 5.7475 -8.043125 5.7475 -10 6 C-10.33 6.66 -10.66 7.32 -11 8 C-10.67 8.99 -10.34 9.98 -10 11 C-10.66 11 -11.32 11 -12 11 C-12.433125 9.5459375 -12.433125 9.5459375 -12.875 8.0625 C-13.64214682 4.89335797 -13.64214682 4.89335797 -16 4 C-15.67 3.34 -15.34 2.68 -15 2 C-13.01354224 1.59367909 -11.00946222 1.27050453 -9 1 C-8.13375 0.814375 -7.2675 0.62875 -6.375 0.4375 C-4 0 -4 0 0 0 Z " fill="#8A8A8A" transform="translate(64,58)"/>
<path d="M0 0 C6.625 -0.125 6.625 -0.125 10 1 C10.33 2.65 10.66 4.3 11 6 C7.5647952 8.29013653 6.014669 8.17842973 2 8 C0 2.25 0 2.25 0 0 Z " fill="#B0B0B0" transform="translate(56,68)"/>
<path d="M0 0 C0.2295711 3.36704285 0.33943529 5.41370268 -1.375 8.375 C-1.91125 8.91125 -2.4475 9.4475 -3 10 C-3.66 10 -4.32 10 -5 10 C-5.33 10.99 -5.66 11.98 -6 13 C-6.99 13.33 -7.98 13.66 -9 14 C-8.34 12.35 -7.68 10.7 -7 9 C-8.98 9 -10.96 9 -13 9 C-12.42636719 8.74476562 -11.85273437 8.48953125 -11.26171875 8.2265625 C-8.76401775 6.87202344 -6.90946008 5.28704991 -4.8125 3.375 C-1.1 0 -1.1 0 0 0 Z " fill="#989898" transform="translate(112,27)"/>
<path d="M0 0 C3.25696479 0.41755959 4.63443291 0.63443291 7 3 C6.625 5.125 6.625 5.125 6 7 C-2.57142857 7.28571429 -2.57142857 7.28571429 -6 5 C-5.195625 4.360625 -4.39125 3.72125 -3.5625 3.0625 C-1.7249496 1.59396498 -1.7249496 1.59396498 0 0 Z " fill="#D7D7D7" transform="translate(60,109)"/>
<path d="M0 0 C3 1 3 1 4 3 C4.14848642 5.33009456 4.22129535 7.6653555 4.25 10 C4.28867188 11.8871875 4.28867188 11.8871875 4.328125 13.8125 C4.21984375 14.864375 4.1115625 15.91625 4 17 C3.01 17.66 2.02 18.32 1 19 C0 18 0 18 -0.11352539 16.23413086 C-0.10828857 15.48526611 -0.10305176 14.73640137 -0.09765625 13.96484375 C-0.09443359 13.15595703 -0.09121094 12.34707031 -0.08789062 11.51367188 C-0.07951172 10.66353516 -0.07113281 9.81339844 -0.0625 8.9375 C-0.05798828 8.08349609 -0.05347656 7.22949219 -0.04882812 6.34960938 C-0.03700373 4.23304337 -0.01906769 2.11651315 0 0 Z " fill="#747474" transform="translate(84,92)"/>
<path d="M0 0 C0.99 0.33 1.98 0.66 3 1 C3.82421875 2.80078125 3.82421875 2.80078125 4 5 C3.14453125 7.10546875 3.14453125 7.10546875 1.8125 9.1875 C1.17248047 10.22970703 1.17248047 10.22970703 0.51953125 11.29296875 C-1.25705243 13.28877098 -2.39611102 13.62642278 -5 14 C-5 10.79778402 -4.389271 9.30351423 -3.0625 6.4375 C-2.70285156 5.65246094 -2.34320313 4.86742188 -1.97265625 4.05859375 C-1.33006035 2.69856146 -0.67269864 1.34539729 0 0 Z " fill="#D7D7D7" transform="translate(73,69)"/>
<path d="M0 0 C0.3125 2.25 0.3125 2.25 0 5 C-2.5 7.3125 -2.5 7.3125 -5 9 C-6.65 7.35 -8.3 5.7 -10 4 C-9.67 3.01 -9.34 2.02 -9 1 C-6.04335481 -0.4783226 -3.25770263 -0.06032783 0 0 Z " fill="#F4F4F4" transform="translate(98,49)"/>
<path d="M0 0 C0.99 0.33 1.98 0.66 3 1 C3.12375 2.093125 3.2475 3.18625 3.375 4.3125 C3.75464801 8.07381802 3.75464801 8.07381802 6 11 C7.32 10.67 8.64 10.34 10 10 C9.649375 10.94875 9.29875 11.8975 8.9375 12.875 C7.64973223 15.87060172 7.64973223 15.87060172 9 18 C6.625 17.8125 6.625 17.8125 4 17 C2.6875 14.4375 2.6875 14.4375 2 12 C1.01 12.33 0.02 12.66 -1 13 C-0.67 12.01 -0.34 11.02 0 10 C0.66 10 1.32 10 2 10 C1.855625 8.72125 1.71125 7.4425 1.5625 6.125 C1.48128906 5.40570312 1.40007812 4.68640625 1.31640625 3.9453125 C1.08707039 1.92595684 1.08707039 1.92595684 0 0 Z " fill="#D7D7D7" transform="translate(70,15)"/>
<path d="M0 0 C-3.96 1.32 -7.92 2.64 -12 4 C-11.938125 5.093125 -11.87625 6.18625 -11.8125 7.3125 C-12 11 -12 11 -13.4375 12.625 C-13.953125 13.07875 -14.46875 13.5325 -15 14 C-15.72197162 16.60611077 -15.72197162 16.60611077 -16 19 C-18 17.625 -18 17.625 -20 16 C-20 15.34 -20 14.68 -20 14 C-19.175 13.62875 -18.35 13.2575 -17.5 12.875 C-16.675 12.25625 -15.85 11.6375 -15 11 C-14.62711145 8.28960114 -14.8690865 5.74918354 -15 3 C-12.74829688 0.74829688 -11.67012422 0.48526 -8.625 -0.1875 C-7.85414062 -0.36667969 -7.08328125 -0.54585937 -6.2890625 -0.73046875 C-4 -1 -4 -1 0 0 Z " fill="#D7D7D7" transform="translate(58,43)"/>
<path d="M0 0 C0.99 0 1.98 0 3 0 C4 3 4 3 2.8125 6 C1.07153177 8.88160259 -0.04740277 10.43143272 -3 12 C-3.99 11.67 -4.98 11.34 -6 11 C-4.18690997 7.22272911 -2.0926741 3.62730178 0 0 Z " fill="#E8E8E8" transform="translate(106,23)"/>
<path d="M0 0 C2.6635969 0.35994553 4.58183452 0.71161002 6.8125 2.25 C8.39364795 4.58011277 8.22337696 6.24501755 8 9 C6.68 9.33 5.36 9.66 4 10 C0 4.5 0 4.5 0 0 Z " fill="#7B7B7B" transform="translate(104,12)"/>
<path d="M0 0 C2.64 0 5.28 0 8 0 C8 2.31 8 4.62 8 7 C6.02 7.33 4.04 7.66 2 8 C0.74335022 5.09399739 0 3.20395416 0 0 Z " fill="#EEEEEE" transform="translate(55,49)"/>
<path d="M0 0 C1.98 0 3.96 0 6 0 C5.34 0.66 4.68 1.32 4 2 C2.40124678 5.37514568 2 7.16558757 2 11 C2.928125 11.1546875 2.928125 11.1546875 3.875 11.3125 C6 12 6 12 8 15 C7.67 15.99 7.34 16.98 7 18 C7 17.34 7 16.68 7 16 C6.4225 15.731875 5.845 15.46375 5.25 15.1875 C2.9674132 13.98280141 1.0262058 12.59201885 -1 11 C-0.67 9.35 -0.34 7.7 0 6 C-2.97 5.505 -2.97 5.505 -6 5 C-6 4.67 -6 4.34 -6 4 C-4.02 3.67 -2.04 3.34 0 3 C0 2.01 0 1.02 0 0 Z " fill="#B0B0B0" transform="translate(16,76)"/>
<path d="M0 0 C2.75 -0.25 2.75 -0.25 6 0 C8.375 2 8.375 2 10 4 C9.67 4.99 9.34 5.98 9 7 C8.4225 6.175 7.845 5.35 7.25 4.5 C6.5075 3.675 5.765 2.85 5 2 C3.68 2 2.36 2 1 2 C0.773125 2.94875 0.54625 3.8975 0.3125 4.875 C-1 8 -1 8 -3.625 9.375 C-4.40875 9.58125 -5.1925 9.7875 -6 10 C-6.66 9.01 -7.32 8.02 -8 7 C-11.08365871 6.7497843 -11.08365871 6.7497843 -14 7 C-12.75 5.4375 -12.75 5.4375 -11 4 C-7.9582904 4.28516028 -6.60954198 5.26030535 -4 7 C-2.68 4.69 -1.36 2.38 0 0 Z " fill="#D7D7D7" transform="translate(103,11)"/>
<path d="M0 0 C1.98 0 3.96 0 6 0 C7.4783226 2.95664519 7.06032783 5.74229737 7 9 C6.01 9.33 5.02 9.66 4 10 C3.67 10.66 3.34 11.32 3 12 C2.67 9.03 2.34 6.06 2 3 C1.34 3 0.68 3 0 3 C0 2.01 0 1.02 0 0 Z " fill="#979797" transform="translate(74,96)"/>
<path d="M0 0 C1.65 0 3.3 0 5 0 C5 1.98 5 3.96 5 6 C4.01 6 3.02 6 2 6 C2.33 7.32 2.66 8.64 3 10 C1.02 10.33 -0.96 10.66 -3 11 C-2.42655063 8.13275314 -2.1385485 7.1385485 0 5 C0.16687448 2.41645782 0.16687448 2.41645782 0 0 Z " fill="#787878" transform="translate(66,68)"/>
<path d="M0 0 C1.2065625 0.0309375 1.2065625 0.0309375 2.4375 0.0625 C2.1075 1.3825 1.7775 2.7025 1.4375 4.0625 C0.7775 3.4025 0.1175 2.7425 -0.5625 2.0625 C-0.44740339 3.48000563 -0.31996342 4.89651169 -0.1875 6.3125 C-0.11789063 7.10140625 -0.04828125 7.8903125 0.0234375 8.703125 C0.45257113 11.148377 1.22350638 12.91086903 2.4375 15.0625 C1.4475 15.3925 0.4575 15.7225 -0.5625 16.0625 C-1.2225 17.0525 -1.8825 18.0425 -2.5625 19.0625 C-2.8925 17.0825 -3.2225 15.1025 -3.5625 13.0625 C-2.9025 13.0625 -2.2425 13.0625 -1.5625 13.0625 C-2.0575 11.4846875 -2.0575 11.4846875 -2.5625 9.875 C-3.4031332 6.67008594 -3.85044711 4.3259006 -3.5625 1.0625 C-2.5625 0.0625 -2.5625 0.0625 0 0 Z " fill="#949494" transform="translate(45.5625,55.9375)"/>
<path d="M0 0 C1.2065625 0.0309375 1.2065625 0.0309375 2.4375 0.0625 C3.0975 2.7025 3.7575 5.3425 4.4375 8.0625 C3.4475 8.5575 3.4475 8.5575 2.4375 9.0625 C0.40605359 8.12803465 -1.59783587 7.13025224 -3.5625 6.0625 C-3.605221 4.39638095 -3.60313832 2.72867115 -3.5625 1.0625 C-2.5625 0.0625 -2.5625 0.0625 0 0 Z " fill="#838383" transform="translate(50.5625,46.9375)"/>
<path d="M0 0 C0.53625 0.185625 1.0725 0.37125 1.625 0.5625 C4.61990614 1.11419324 7.03745829 0.60597444 10 0 C10.625 1.8125 10.625 1.8125 11 4 C8.17446016 8.23830976 5.87819112 7.97715348 1 9 C2.375 7.5 2.375 7.5 4 6 C4.66 6 5.32 6 6 6 C6 5.01 6 4.02 6 3 C4.35 3 2.7 3 1 3 C0.67 2.01 0.34 1.02 0 0 Z " fill="#D7D7D7" transform="translate(81,69)"/>
<path d="M0 0 C0.36190476 5.42857143 0.36190476 5.42857143 -1.1875 7.875 C-3.56036279 9.34781139 -5.25913944 9.22223194 -8 9 C-8 5.06368636 -6.57142871 3.87394974 -4 1 C-2 0 -2 0 0 0 Z " fill="#848484" transform="translate(67,26)"/>
<path d="M0 0 C1.5 2.1875 1.5 2.1875 3 5 C3.5775 5.86625 4.155 6.7325 4.75 7.625 C5.1625 8.40875 5.575 9.1925 6 10 C5.67 10.99 5.34 11.98 5 13 C0 7.25 0 7.25 0 5 C-1.65 4.67 -3.3 4.34 -5 4 C-5 3.01 -5 2.02 -5 1 C-3 0 -3 0 0 0 Z " fill="#5F5F5F" transform="translate(22,83)"/>
<path d="M0 0 C0.556875 0.474375 1.11375 0.94875 1.6875 1.4375 C4.18346074 3.12395996 6.0446237 3.58953107 9 4 C8.01 4.495 8.01 4.495 7 5 C6.67 5.99 6.34 6.98 6 8 C2.44219804 7.39009109 -0.6828589 6.4216319 -4 5 C-3.67 4.01 -3.34 3.02 -3 2 C-2.34 2 -1.68 2 -1 2 C-0.67 1.34 -0.34 0.68 0 0 Z " fill="#989898" transform="translate(89,56)"/>
<path d="M0 0 C2.0625 0.4375 2.0625 0.4375 4 1 C4.33 2.32 4.66 3.64 5 5 C6.98 5 8.96 5 11 5 C11 5.66 11 6.32 11 7 C10.01 7 9.02 7 8 7 C7.34 8.32 6.68 9.64 6 11 C5.67 9.68 5.34 8.36 5 7 C3.35 6.67 1.7 6.34 0 6 C-0.38218767 4.34385343 -0.71395102 2.67542976 -1 1 C-0.67 0.67 -0.34 0.34 0 0 Z " fill="#B0B0B0" transform="translate(45,71)"/>
<path d="M0 0 C2 1 2 1 4 3 C4.54240188 5.74055686 4.48944747 8.25333597 4 11 C2.625 12.8125 2.625 12.8125 1 14 C0.01 15.485 0.01 15.485 -1 17 C-1 15.35 -1 13.7 -1 12 C-1.99 12.33 -2.98 12.66 -4 13 C-3.67 12.443125 -3.34 11.88625 -3 11.3125 C-1.8690399 8.69715478 -1.84337026 6.8193354 -2 4 C-1.34 4.33 -0.68 4.66 0 5 C0 6.32 0 7.64 0 9 C0.99 9 1.98 9 3 9 C2.690625 8.071875 2.38125 7.14375 2.0625 6.1875 C1.375 4.125 0.6875 2.0625 0 0 Z " fill="#B0B0B0" transform="translate(68,14)"/>
<path d="M0 0 C-0.66 0.66 -1.32 1.32 -2 2 C-3.32 2 -4.64 2 -6 2 C-6 2.99 -6 3.98 -6 5 C-6.66 5 -7.32 5 -8 5 C-8.33 6.98 -8.66 8.96 -9 11 C-9.66 11 -10.32 11 -11 11 C-11.8125 8.3125 -11.8125 8.3125 -12 5 C-8.55194572 0.04342198 -5.87829674 -0.5763036 0 0 Z " fill="#7C7C7C" transform="translate(48,13)"/>
<path d="M0 0 C0.33 0 0.66 0 1 0 C1.33 1.65 1.66 3.3 2 5 C2.66 5 3.32 5 4 5 C3.66354211 8.14027363 2.94763914 9.05098295 0.625 11.3125 C-0.674375 12.1478125 -0.674375 12.1478125 -2 13 C-2.99 12.67 -3.98 12.34 -5 12 C-4.1875 9.5625 -4.1875 9.5625 -3 7 C-2.01 6.67 -1.02 6.34 0 6 C0 4.02 0 2.04 0 0 Z " fill="#999999" transform="translate(76,101)"/>
<path d="M0 0 C1.32 0.33 2.64 0.66 4 1 C3.67 1.66 3.34 2.32 3 3 C2.34 2.67 1.68 2.34 1 2 C1.144375 2.5775 1.28875 3.155 1.4375 3.75 C1.623125 4.4925 1.80875 5.235 2 6 C2.20625 6.680625 2.4125 7.36125 2.625 8.0625 C3 10 3 10 2 13 C4.97 13.495 4.97 13.495 8 14 C5 16 5 16 2.8125 15.625 C2.214375 15.41875 1.61625 15.2125 1 15 C0.87625 14.29875 0.7525 13.5975 0.625 12.875 C0.06098465 9.92224078 0.06098465 9.92224078 -1.1875 6.9375 C-2 4 -2 4 -1.125 1.625 C-0.75375 1.08875 -0.3825 0.5525 0 0 Z " fill="#D7D7D7" transform="translate(28,77)"/>
<path d="M0 0 C0.33 0 0.66 0 1 0 C1.25 2.1875 1.25 2.1875 1 5 C0.34 5.763125 -0.32 6.52625 -1 7.3125 C-3.79944388 11.07425272 -3.31214949 13.39579508 -3 18 C-3.66 18 -4.32 18 -5 18 C-5.33 15.36 -5.66 12.72 -6 10 C-6.66 10.66 -7.32 11.32 -8 12 C-7.45276317 8.62537285 -6.9451 6.91765 -5 4 C-3.68 4 -2.36 4 -1 4 C-0.67 2.68 -0.34 1.36 0 0 Z " fill="#B0B0B0" transform="translate(32,53)"/>
<path d="M0 0 C2.95409701 1.37154504 5.44008376 2.98863724 8 5 C7.67 6.32 7.34 7.64 7 9 C4.69 8.01 2.38 7.02 0 6 C0 4.02 0 2.04 0 0 Z " fill="#DBDBDB" transform="translate(33,100)"/>
<path d="M0 0 C0 0.99 0 1.98 0 3 C-1.43294498 3.84114171 -2.87154405 4.67265687 -4.3125 5.5 C-5.51326172 6.19609375 -5.51326172 6.19609375 -6.73828125 6.90625 C-9 8 -9 8 -12 8 C-12.33 6.68 -12.66 5.36 -13 4 C-11.96875 3.896875 -10.9375 3.79375 -9.875 3.6875 C-6.04916055 3.00872203 -3.36629975 1.88841205 0 0 Z " fill="#797979" transform="translate(53,31)"/>
<path d="M0 0 C0.66 0.66 1.32 1.32 2 2 C1.73419422 5.8541838 -0.5011489 8.20716642 -3 11 C-7.1795645 13.78637633 -9.14668677 12.79562512 -14 12 C-13.34 11.01 -12.68 10.02 -12 9 C-11.071875 9.20625 -10.14375 9.4125 -9.1875 9.625 C-5.84826598 10.36692966 -5.84826598 10.36692966 -3 8 C-1.99831469 6.05167065 -1.99831469 6.05167065 -1.3125 3.875 C-1.06113281 3.15054687 -0.80976562 2.42609375 -0.55078125 1.6796875 C-0.36902344 1.12539063 -0.18726562 0.57109375 0 0 Z " fill="#D7D7D7" transform="translate(65,18)"/>
<path d="M0 0 C8.58 0 17.16 0 26 0 C26 0.33 26 0.66 26 1 C16.77465895 2.69661445 9.03734193 3.95096879 0 1 C0 0.67 0 0.34 0 0 Z " fill="#B0B0B0" transform="translate(47,124)"/>
<path d="M0 0 C6.75 0.875 6.75 0.875 9 2 C9 3.65 9 5.3 9 7 C6 7 6 7 4.5625 5.625 C4.046875 5.08875 3.53125 4.5525 3 4 C0.90010348 2.82425289 0.90010348 2.82425289 -1 2 C-0.67 1.34 -0.34 0.68 0 0 Z " fill="#F4F4F4" transform="translate(74,91)"/>
<path d="M0 0 C2.0625 0.4375 2.0625 0.4375 4 1 C3.67 2.65 3.34 4.3 3 6 C0.69 6.33 -1.62 6.66 -4 7 C-1.125 1.125 -1.125 1.125 0 0 Z " fill="#5F5F5F" transform="translate(59,91)"/>
<path d="M0 0 C1 2 1 2 0.51171875 3.91015625 C0.23972656 4.62042969 -0.03226563 5.33070312 -0.3125 6.0625 C-0.70888672 7.13177734 -0.70888672 7.13177734 -1.11328125 8.22265625 C-2 10 -2 10 -4 11 C-1.69 11.66 0.62 12.32 3 13 C3 13.33 3 13.66 3 14 C-4.42857143 14.28571429 -4.42857143 14.28571429 -8 12 C-7.401875 11.484375 -6.80375 10.96875 -6.1875 10.4375 C-3.4931108 7.4351806 -2.4811458 4.73812989 -1 1 C-0.67 0.67 -0.34 0.34 0 0 Z " fill="#D7D7D7" transform="translate(19,62)"/>
<path d="M0 0 C4.25672542 -0.35472712 5.68165071 0.48609902 9 3 C13.34867778 4.06301012 17.53783146 4.08924337 22 4 C19.00435433 5.66424759 16.43745931 6.76017726 13 7 C9.5625 5.75 9.5625 5.75 6 4 C4.865625 3.443125 3.73125 2.88625 2.5625 2.3125 C1.716875 1.879375 0.87125 1.44625 0 1 C0 0.67 0 0.34 0 0 Z " fill="#D7D7D7" transform="translate(63,39)"/>
<path d="M0 0 C1.48831242 0.00667405 2.97660807 0.01863442 4.46484375 0.03515625 C5.22345703 0.03966797 5.98207031 0.04417969 6.76367188 0.04882812 C8.64326246 0.06064945 10.52281274 0.07858547 12.40234375 0.09765625 C12.07234375 0.75765625 11.74234375 1.41765625 11.40234375 2.09765625 C8.3125 2.58203125 8.3125 2.58203125 4.46484375 2.84765625 C2.56412109 2.99460937 2.56412109 2.99460937 0.625 3.14453125 C-2.59765625 3.09765625 -2.59765625 3.09765625 -4.59765625 1.09765625 C-3.59765625 0.09765625 -3.59765625 0.09765625 0 0 Z " fill="#5F5F5F" transform="translate(61.59765625,120.90234375)"/>
<path d="M0 0 C2.9375 0.75 2.9375 0.75 6 2 C6.875 4.125 6.875 4.125 7 6 C5.02 6.99 5.02 6.99 3 8 C2.505 5.525 2.505 5.525 2 3 C0.68 2.67 -0.64 2.34 -2 2 C-1.34 1.34 -0.68 0.68 0 0 Z " fill="#BEBEBE" transform="translate(46,53)"/>
<path d="M0 0 C2.9375 0.75 2.9375 0.75 6 2 C6.875 4.125 6.875 4.125 7 6 C5.68 6.33 4.36 6.66 3 7 C3 6.34 3 5.68 3 5 C2.01 4.67 1.02 4.34 0 4 C0 2.68 0 1.36 0 0 Z " fill="#767676" transform="translate(33,108)"/>
<path d="M0 0 C0.99 0.33 1.98 0.66 3 1 C2.67 1.66 2.34 2.32 2 3 C2.99 3.66 3.98 4.32 5 5 C3.68 5 2.36 5 1 5 C1.33 6.98 1.66 8.96 2 11 C1.01 11.495 1.01 11.495 0 12 C-0.1546875 11.071875 -0.1546875 11.071875 -0.3125 10.125 C-0.87525373 7.63473516 -0.87525373 7.63473516 -4 6 C-3.34 5.67 -2.68 5.34 -2 5 C-1.27840576 3.35636866 -0.60648579 1.68949614 0 0 Z " fill="#8C8C8C" transform="translate(63,84)"/>
<path d="M0 0 C0.33 0 0.66 0 1 0 C1.33 2.31 1.66 4.62 2 7 C3.65 7.33 5.3 7.66 7 8 C7 8.99 7 9.98 7 11 C5.02 11.99 3.04 12.98 1 14 C-0.20568053 9.32798795 -0.09382426 4.78503708 0 0 Z " fill="#B0B0B0" transform="translate(80,64)"/>
<path d="M0 0 C4 4.625 4 4.625 4 8 C0.125 7.125 0.125 7.125 -1 6 C-2.99958364 5.95919217 -5.00045254 5.95745644 -7 6 C-6.67 5.01 -6.34 4.02 -6 3 C-3.03 3.495 -3.03 3.495 0 4 C0 2.68 0 1.36 0 0 Z " fill="#838383" transform="translate(51,82)"/>
<path d="M0 0 C0.598125 0.20625 1.19625 0.4125 1.8125 0.625 C0.8534375 1.5221875 0.8534375 1.5221875 -0.125 2.4375 C-2.39060389 4.53310337 -2.39060389 4.53310337 -3.1875 7.625 C-4.1775 7.295 -5.1675 6.965 -6.1875 6.625 C-5.875 4.25 -5.875 4.25 -5.1875 1.625 C-2.1875 -0.375 -2.1875 -0.375 0 0 Z " fill="#5F5F5F" transform="translate(11.1875,68.375)"/>
<path d="M0 0 C0.66 0 1.32 0 2 0 C2 3.63 2 7.26 2 11 C1.34 11 0.68 11 0 11 C-1.62651522 7.74696956 -1.11453156 4.60774398 -1 1 C-0.67 0.67 -0.34 0.34 0 0 Z " fill="#5F5F5F" transform="translate(45,102)"/>
<path d="M0 0 C0.66 0.33 1.32 0.66 2 1 C1.60196439 3.88575819 1.20990931 4.82189513 -1.0625 6.75 C-1.701875 7.1625 -2.34125 7.575 -3 8 C-3 7.34 -3 6.68 -3 6 C-5.31 5.67 -7.62 5.34 -10 5 C-10 4.01 -10 3.02 -10 2 C-9.67 2.33 -9.34 2.66 -9 3 C-4.73919411 3.44979055 -4.73919411 3.44979055 -1.125 1.5 C-0.75375 1.005 -0.3825 0.51 0 0 Z " fill="#B0B0B0" transform="translate(52,96)"/>
<path d="M0 0 C0.66 0.33 1.32 0.66 2 1 C1.34 2.65 0.68 4.3 0 6 C1.32 5.67 2.64 5.34 4 5 C4.33 6.32 4.66 7.64 5 9 C4.34 9 3.68 9 3 9 C2.67 9.66 2.34 10.32 2 11 C1.67 10.34 1.34 9.68 1 9 C-1.01669827 7.86649466 -1.01669827 7.86649466 -3 7 C-1.125 1.125 -1.125 1.125 0 0 Z " fill="#D7D7D7" transform="translate(72,107)"/>
<path d="M0 0 C2.86724686 0.57344937 3.8614515 0.8614515 6 3 C5.625 5.625 5.625 5.625 5 8 C4.01 7.67 3.02 7.34 2 7 C0.8125 3.4375 0.8125 3.4375 0 0 Z " fill="#8A8A8A" transform="translate(26,50)"/>
<path d="M0 0 C3 1 3 1 5 3 C5.598125 2.484375 6.19625 1.96875 6.8125 1.4375 C7.534375 0.963125 8.25625 0.48875 9 0 C9.99 0.33 10.98 0.66 12 1 C9.69 2.65 7.38 4.3 5 6 C3.0625 5.25 3.0625 5.25 1 4 C0.25 1.875 0.25 1.875 0 0 Z " fill="#A1A1A1" transform="translate(38,36)"/>
<path d="M0 0 C2.475 0.495 2.475 0.495 5 1 C5 2.98 5 4.96 5 7 C3.0625 6.3125 3.0625 6.3125 1 5 C0.25 2.375 0.25 2.375 0 0 Z " fill="#5F5F5F" transform="translate(74,63)"/>
<path d="M0 0 C0.99 0.33 1.98 0.66 3 1 C3.36923077 5.55384615 3.36923077 5.55384615 1.5 7.8125 C1.005 8.204375 0.51 8.59625 0 9 C0 7.68 0 6.36 0 5 C-0.99 5.66 -1.98 6.32 -3 7 C-1.125 2.25 -1.125 2.25 0 0 Z " fill="#D7D7D7" transform="translate(24,53)"/>
<path d="M0 0 C1.65 0.33 3.3 0.66 5 1 C4.67 2.32 4.34 3.64 4 5 C2.35 4.67 0.7 4.34 -1 4 C-0.67 2.68 -0.34 1.36 0 0 Z " fill="#9F9F9F" transform="translate(60,111)"/>
<path d="M0 0 C2.31 0 4.62 0 7 0 C6.34 1.32 5.68 2.64 5 4 C3.02 4 1.04 4 -1 4 C-0.67 2.68 -0.34 1.36 0 0 Z " fill="#747474" transform="translate(82,45)"/>
<path d="M0 0 C0.33 1.65 0.66 3.3 1 5 C2.65 5 4.3 5 6 5 C6.33 5.66 6.66 6.32 7 7 C4.69 7 2.38 7 0 7 C-0.33 6.01 -0.66 5.02 -1 4 C-1.99 4.33 -2.98 4.66 -4 5 C-4 3.68 -4 2.36 -4 1 C-2 0 -2 0 0 0 Z " fill="#8C8C8C" transform="translate(92,28)"/>
<path d="M0 0 C0.99 0 1.98 0 3 0 C3.05399736 1.45792884 3.09279177 2.91642712 3.125 4.375 C3.14820312 5.18710938 3.17140625 5.99921875 3.1953125 6.8359375 C3 9 3 9 1 11 C0.63890458 9.35567294 0.28629924 7.7094792 -0.0625 6.0625 C-0.25972656 5.14597656 -0.45695312 4.22945313 -0.66015625 3.28515625 C-0.82837891 2.15400391 -0.82837891 2.15400391 -1 1 C-0.67 0.67 -0.34 0.34 0 0 Z " fill="#5F5F5F" transform="translate(76,97)"/>
<path d="M0 0 C7.66742597 5.96583144 7.66742597 5.96583144 9 11 C8.34 11 7.68 11 7 11 C6.9175 10.38125 6.835 9.7625 6.75 9.125 C6.18741541 6.81562433 6.18741541 6.81562433 3.9375 5.75 C3.298125 5.5025 2.65875 5.255 2 5 C2 4.34 2 3.68 2 3 C0.68 3 -0.64 3 -2 3 C-2 2.34 -2 1.68 -2 1 C-1.34 0.67 -0.68 0.34 0 0 Z " fill="#ACACAC" transform="translate(66,50)"/>
<path d="M0 0 C0.33 0.99 0.66 1.98 1 3 C2.32 2.34 3.64 1.68 5 1 C3.86525052 4.40424844 3.03188696 5.21653709 0 7 C-0.99 6.67 -1.98 6.34 -3 6 C-2 4 -1 2 0 0 Z " fill="#D8D8D8" transform="translate(103,28)"/>
<path d="M0 0 C-2.42130331 2.42130331 -3.80111377 2.52840504 -7.125 3.125 C-8.03507812 3.29257813 -8.94515625 3.46015625 -9.8828125 3.6328125 C-10.58148438 3.75398437 -11.28015625 3.87515625 -12 4 C-11.67 3.01 -11.34 2.02 -11 1 C-6.95637513 -0.8380113 -4.26550147 -1.25455926 0 0 Z " fill="#9E9E9E" transform="translate(50,11)"/>
<path d="M0 0 C0.66 0.99 1.32 1.98 2 3 C0.71372289 4.17260611 -0.57919783 5.3379283 -1.875 6.5 C-2.59429687 7.1496875 -3.31359375 7.799375 -4.0546875 8.46875 C-6 10 -6 10 -8 10 C-8 9.34 -8 8.68 -8 8 C-7.38125 7.731875 -6.7625 7.46375 -6.125 7.1875 C-3.7004767 6.04443152 -3.7004767 6.04443152 -2 3 C-1.34 3 -0.68 3 0 3 C0 2.01 0 1.02 0 0 Z " fill="#9F9F9F" transform="translate(83,108)"/>
<path d="M0 0 C0 3.20395416 -0.74335022 5.09399739 -2 8 C-3.32 7.67 -4.64 7.34 -6 7 C-4.77065985 3.31197956 -3.06140622 2.27643027 0 0 Z " fill="#777777" transform="translate(47,112)"/>
<path d="M0 0 C0.33 0 0.66 0 1 0 C1.99 3.63 2.98 7.26 4 11 C2.02 9.35 0.04 7.7 -2 6 C-1.49396008 3.83125748 -1.00016187 2.00032373 0 0 Z " fill="#D7D7D7" transform="translate(23,94)"/>
<path d="M0 0 C0.66 0.99 1.32 1.98 2 3 C2.66 3.165 3.32 3.33 4 3.5 C6 4 6 4 8 7 C7.67 7.99 7.34 8.98 7 10 C7 9.34 7 8.68 7 8 C6.4225 7.731875 5.845 7.46375 5.25 7.1875 C2.9674132 5.98280141 1.0262058 4.59201885 -1 3 C-0.67 2.01 -0.34 1.02 0 0 Z " fill="#9F9F9F" transform="translate(16,84)"/>
<path d="M0 0 C1.65 1.65 3.3 3.3 5 5 C4.67 5.99 4.34 6.98 4 8 C3.01 7.01 2.02 6.02 1 5 C0.34 6.32 -0.32 7.64 -1 9 C-1 7.35 -1 5.7 -1 4 C-1.66 3.67 -2.32 3.34 -3 3 C-2.01 3 -1.02 3 0 3 C0 2.01 0 1.02 0 0 Z " fill="#A9A9A9" transform="translate(72,64)"/>
<path d="M0 0 C1.98 0 3.96 0 6 0 C5.67 0.66 5.34 1.32 5 2 C5.99 2.66 6.98 3.32 8 4 C7.67 4.66 7.34 5.32 7 6 C4.36 4.68 1.72 3.36 -1 2 C-0.67 1.34 -0.34 0.68 0 0 Z " fill="#B0B0B0" transform="translate(96,41)"/>
<path d="M0 0 C0.33 1.32 0.66 2.64 1 4 C4.63 4.33 8.26 4.66 12 5 C12 5.33 12 5.66 12 6 C7.38 6 2.76 6 -2 6 C-1.34 4.02 -0.68 2.04 0 0 Z " fill="#A7A7A7" transform="translate(47,114)"/>
<path d="M0 0 C0.33 0 0.66 0 1 0 C1.45572917 1.98567708 1.91145833 3.97135417 2.3671875 5.95703125 C2.98007723 8.27742974 2.98007723 8.27742974 5 11 C2.53199953 9.84826645 0.95216435 8.95216435 -1 7 C-1.1875 3.9375 -1.1875 3.9375 -1 1 C-0.67 0.67 -0.34 0.34 0 0 Z " fill="#A7A7A7" transform="translate(4,69)"/>
<path d="M0 0 C0.99 0.33 1.98 0.66 3 1 C2.6875 3.375 2.6875 3.375 2 6 C1.01 6.66 0.02 7.32 -1 8 C-1.125 2.25 -1.125 2.25 0 0 Z " fill="#EEEEEE" transform="translate(73,69)"/>
<path d="M0 0 C0.99 0.33 1.98 0.66 3 1 C2.34 2.65 1.68 4.3 1 6 C0.01 6 -0.98 6 -2 6 C-1.125 1.125 -1.125 1.125 0 0 Z " fill="#E1E1E1" transform="translate(86,26)"/>
<path d="M0 0 C3.37462715 0.54723683 5.08235 1.0549 8 3 C7.67 3.66 7.34 4.32 7 5 C6.01 4.34 5.02 3.68 4 3 C0.36060068 3.31730524 0.36060068 3.31730524 -3 4 C-2.01 2.68 -1.02 1.36 0 0 Z " fill="#A5A5A5" transform="translate(60,9)"/>
<path d="M0 0 C-0.33 0.99 -0.66 1.98 -1 3 C-1.66 3 -2.32 3 -3 3 C-3.66 4.32 -4.32 5.64 -5 7 C-5.99 7 -6.98 7 -8 7 C-6.76759083 3.3027725 -4.20634615 0 0 0 Z " fill="#5F5F5F" transform="translate(84,113)"/>
<path d="M0 0 C0.99 0 1.98 0 3 0 C4 3 4 3 3 6 C1.68 5.34 0.36 4.68 -1 4 C-0.67 2.68 -0.34 1.36 0 0 Z " fill="#5F5F5F" transform="translate(36,93)"/>
<path d="M0 0 C2.31 1.65 4.62 3.3 7 5 C7.99 4.34 8.98 3.68 10 3 C9.67 4.32 9.34 5.64 9 7 C4.71193127 6.52354792 2.73352513 5.34097516 0 2 C0 1.34 0 0.68 0 0 Z " fill="#B0B0B0" transform="translate(52,83)"/>
<path d="M0 0 C1.98 0.495 1.98 0.495 4 1 C3.67 2.32 3.34 3.64 3 5 C1.68 4.67 0.36 4.34 -1 4 C-0.67 2.68 -0.34 1.36 0 0 Z " fill="#E5E5E5" transform="translate(45,71)"/>
<path d="M0 0 C0.33 0 0.66 0 1 0 C1.33 1.65 1.66 3.3 2 5 C2.99 4.34 3.98 3.68 5 3 C4.67 4.32 4.34 5.64 4 7 C3.34 7 2.68 7 2 7 C1.67 7.99 1.34 8.98 1 10 C1 9.01 1 8.02 1 7 C0.01 6.67 -0.98 6.34 -2 6 C-1.34 4.02 -0.68 2.04 0 0 Z " fill="#B0B0B0" transform="translate(99,48)"/>
<path d="M0 0 C0.66 0.33 1.32 0.66 2 1 C1.67 1.99 1.34 2.98 1 4 C1.27571139 6.00875442 1.60235737 8.01178687 2 10 C1.34 9.01 0.68 8.02 0 7 C-1.32381517 5.32576317 -2.65576661 3.65788785 -4 2 C-2.125 0.9375 -2.125 0.9375 0 0 Z " fill="#D7D7D7" transform="translate(104,40)"/>
<path d="M0 0 C1.9375 0.3125 1.9375 0.3125 4 1 C4.33 1.99 4.66 2.98 5 4 C3.02 4 1.04 4 -1 4 C-0.67 2.68 -0.34 1.36 0 0 Z " fill="#5F5F5F" transform="translate(61,11)"/>
<path d="M0 0 C2.31 0.33 4.62 0.66 7 1 C6.01 2.485 6.01 2.485 5 4 C3.02 3.34 1.04 2.68 -1 2 C-0.67 1.34 -0.34 0.68 0 0 Z " fill="#D7D7D7" transform="translate(74,91)"/>
<path d="M0 0 C0 1.32 0 2.64 0 4 C-2.31 3.67 -4.62 3.34 -7 3 C-5.40442685 -0.19114631 -3.35905282 0 0 0 Z " fill="#5F5F5F" transform="translate(94,20)"/>
<path d="M0 0 C1.98 0 3.96 0 6 0 C6 0.99 6 1.98 6 3 C4.35 3 2.7 3 1 3 C0.67 2.01 0.34 1.02 0 0 Z " fill="#DBDBDB" transform="translate(58,72)"/>
<path d="M0 0 C-0.33 0.99 -0.66 1.98 -1 3 C-1.66 3 -2.32 3 -3 3 C-3.33 3.66 -3.66 4.32 -4 5 C-4.99 4.67 -5.98 4.34 -7 4 C-7 3.34 -7 2.68 -7 2 C-4.35261084 0.5393715 -3.10551666 0 0 0 Z " fill="#727272" transform="translate(89,56)"/>
<path d="M0 0 C2.3431213 0.25561323 4.67843403 0.59270772 7 1 C7.33 1.66 7.66 2.32 8 3 C5.69 3 3.38 3 1 3 C0.67 2.01 0.34 1.02 0 0 Z " fill="#5F5F5F" transform="translate(45,120)"/>
<path d="M0 0 C1.65 0 3.3 0 5 0 C4.67 1.32 4.34 2.64 4 4 C2.68 3.67 1.36 3.34 0 3 C0 2.01 0 1.02 0 0 Z " fill="#D9D9D9" transform="translate(34,72)"/>
<path d="M0 0 C1.65 0 3.3 0 5 0 C5.33 0.66 5.66 1.32 6 2 C5.01 2.33 4.02 2.66 3 3 C2.34 3.99 1.68 4.98 1 6 C0.67 4.02 0.34 2.04 0 0 Z " fill="#A2A2A2" transform="translate(42,69)"/>
<path d="M0 0 C1.485 0.99 1.485 0.99 3 2 C2.34 3.65 1.68 5.3 1 7 C0.34 6.67 -0.32 6.34 -1 6 C-0.67 4.02 -0.34 2.04 0 0 Z " fill="#7D7D7D" transform="translate(101,47)"/>
<path d="M0 0 C0.33 0 0.66 0 1 0 C1.66 2.97 2.32 5.94 3 9 C1.35 7.35 -0.3 5.7 -2 4 C-1.34 2.68 -0.68 1.36 0 0 Z " fill="#B0B0B0" transform="translate(79,27)"/>
<path d="M0 0 C2.78211944 0.37596209 4.5879284 0.67318459 6.8125 2.4375 C8 4 8 4 8 6 C6.0625 5.1875 6.0625 5.1875 4 4 C3.67 3.01 3.34 2.02 3 1 C2.01 0.67 1.02 0.34 0 0 Z " fill="#9E9E9E" transform="translate(104,12)"/>
</svg>
