<?xml version="1.0" encoding="UTF-8"?>
<svg version="1.1" xmlns="http://www.w3.org/2000/svg" width="128" height="128">
<path d="M0 0 C42.24 0 84.48 0 128 0 C128 42.24 128 84.48 128 128 C85.76 128 43.52 128 0 128 C0 85.76 0 43.52 0 0 Z " fill="#C61067" transform="translate(0,0)"/>
<path d="M0 0 C1.7243832 1.60687838 3.38072107 3.2872562 5 5 C5.46688232 5.48992432 5.93376465 5.97984863 6.41479492 6.48461914 C12.64444117 13.05145586 18.62301945 19.70587875 24 27 C24.83337891 28.04994141 24.83337891 28.04994141 25.68359375 29.12109375 C27 31 27 31 27 33 C25 33 25 33 23.5625 31.625 C23.046875 31.08875 22.53125 30.5525 22 30 C21.01 29.34 20.02 28.68 19 28 C18.34 29.98 17.68 31.96 17 34 C16.34 34 15.68 34 15 34 C14.34 31.69 13.68 29.38 13 27 C9.69432511 26.14612895 9.69432511 26.14612895 6 26 C3.09655752 28.0162795 2.10223396 29.76632237 0.6875 33 C-1.95698109 37.70129971 -5.90460852 39.27116818 -10.875 41 C-13.13235683 41.78134877 -13.13235683 41.78134877 -13.80078125 43.7734375 C-14.07603144 46.8497631 -13.04936353 48.11012254 -11.3125 50.625 C-10.53326172 51.78902344 -10.53326172 51.78902344 -9.73828125 52.9765625 C-6.93146554 56.24382213 -3.85275685 57.16769007 0.25 58.125 C1.4875 58.41375 2.725 58.7025 4 59 C-0.318602 61.879068 -3.93410728 61.21079554 -9 61 C-10.61068359 60.95552734 -10.61068359 60.95552734 -12.25390625 60.91015625 C-13.32511719 60.85730469 -14.39632812 60.80445313 -15.5 60.75 C-16.5003125 60.70359375 -17.500625 60.6571875 -18.53125 60.609375 C-21 60 -21 60 -22.34375 57.953125 C-22.5603125 57.30859375 -22.776875 56.6640625 -23 56 C-25.64 56.66 -28.28 57.32 -31 58 C-32.54322992 53.55549782 -34.00995284 49.15160563 -35.0625 44.5625 C-35.68583042 40.97825557 -35.68583042 40.97825557 -38 39 C-37.63830836 35.56392938 -36.52432316 33.04864633 -35 30 C-34.5978125 28.2984375 -34.5978125 28.2984375 -34.1875 26.5625 C-32.83293344 22.49880033 -31.31377256 20.66718279 -28 18 C-27.01 18 -26.02 18 -25 18 C-24.34 16.68 -23.68 15.36 -23 14 C-22.34 14 -21.68 14 -21 14 C-20.773125 13.4225 -20.54625 12.845 -20.3125 12.25 C-18.63494741 9.37419557 -16.72899086 7.88430321 -14 6 C-12 5.5 -12 5.5 -10 5 C-9.67 4.01 -9.34 3.02 -9 2 C-6.02413102 -0.01933967 -3.54548092 -0.60532601 0 0 Z " fill="#F4DA70" transform="translate(71,35)"/>
<path d="M0 0 C9.75833417 3.56088281 18.39587199 17.29378588 23.515625 25.91796875 C24.65646435 27.4788444 25.82323873 29.02110732 27.015625 30.54296875 C27.89734375 31.67605469 27.89734375 31.67605469 28.796875 32.83203125 C31.3887511 35.97762634 33.37958346 38.09048059 37.203125 39.60546875 C38.29625 40.03859375 39.389375 40.47171875 40.515625 40.91796875 C40.515625 41.57796875 40.515625 42.23796875 40.515625 42.91796875 C38.906875 42.85609375 38.906875 42.85609375 37.265625 42.79296875 C33.85850335 42.90653947 32.25335733 43.0226156 29.515625 44.91796875 C29.020625 45.90796875 29.020625 45.90796875 28.515625 46.91796875 C27.896875 47.20671875 27.278125 47.49546875 26.640625 47.79296875 C24.14759221 49.11280964 23.16239357 50.67237525 21.515625 52.91796875 C20.855625 52.91796875 20.195625 52.91796875 19.515625 52.91796875 C19.26425781 53.48257813 19.01289062 54.0471875 18.75390625 54.62890625 C17.33478993 57.25225693 15.66614899 59.29844037 13.703125 61.54296875 C13.03667969 62.31898437 12.37023437 63.095 11.68359375 63.89453125 C9.373262 66.05084088 7.42985631 66.79937491 4.515625 67.91796875 C3.15484465 70.44169776 3.15484465 70.44169776 2.515625 72.91796875 C-13.3096762 74.70110128 -13.3096762 74.70110128 -17.484375 71.91796875 C-18.51450777 70.26975631 -19.51552128 68.60293173 -20.484375 66.91796875 C-21.144375 66.25796875 -21.804375 65.59796875 -22.484375 64.91796875 C-25.16250899 64.89589387 -25.16250899 64.89589387 -28.109375 65.29296875 C-29.11226562 65.40382813 -30.11515625 65.5146875 -31.1484375 65.62890625 C-31.91929688 65.72429687 -32.69015625 65.8196875 -33.484375 65.91796875 C-34.21960472 63.29621937 -34.47533899 61.44809626 -34.421875 58.66796875 C-34.49305355 54.39725598 -35.33358875 51.01764476 -36.484375 46.91796875 C-42.919375 45.43296875 -42.919375 45.43296875 -49.484375 43.91796875 C-49.814375 42.59796875 -50.144375 41.27796875 -50.484375 39.91796875 C-46.60753413 38.72509464 -43.56815577 37.91796875 -39.484375 37.91796875 C-36.90003784 34.80156217 -35.5789539 32.27736858 -34.546875 28.35546875 C-33.28410584 24.27003912 -31.77731199 22.5982663 -28.484375 19.91796875 C-27.63875 19.60859375 -26.793125 19.29921875 -25.921875 18.98046875 C-22.46655106 17.4743019 -21.44113617 15.07403516 -19.484375 11.91796875 C-17.47204902 9.58107407 -16.11413406 8.16287505 -13.234375 7.04296875 C-9.78267589 5.63091002 -7.35884113 3.48328536 -4.546875 1.0625 C-2.484375 -0.08203125 -2.484375 -0.08203125 0 0 Z M-8.484375 6.91796875 C-8.484375 7.57796875 -8.484375 8.23796875 -8.484375 8.91796875 C-9.8146875 9.25828125 -9.8146875 9.25828125 -11.171875 9.60546875 C-14.9484997 11.10186721 -16.87055476 12.84288612 -19.484375 15.91796875 C-19.484375 16.57796875 -19.484375 17.23796875 -19.484375 17.91796875 C-21.464375 18.90796875 -21.464375 18.90796875 -23.484375 19.91796875 C-23.484375 20.57796875 -23.484375 21.23796875 -23.484375 21.91796875 C-24.04125 21.97984375 -24.598125 22.04171875 -25.171875 22.10546875 C-28.66291131 23.33204908 -30.18950152 25.0191812 -32.484375 27.91796875 C-33.19816186 30.25289864 -33.65838171 32.51724338 -34.02734375 34.9296875 C-34.484375 36.91796875 -34.484375 36.91796875 -36.484375 38.91796875 C-36.13138493 42.35962196 -35.43855808 43.98669413 -33.484375 46.91796875 C-32.921875 48.96875 -32.921875 48.96875 -32.484375 51.23046875 C-31.72854748 54.90163099 -30.75294852 58.38408537 -29.484375 61.91796875 C-26.844375 61.25796875 -24.204375 60.59796875 -21.484375 59.91796875 C-21.2678125 60.5625 -21.05125 61.20703125 -20.828125 61.87109375 C-19.64799029 64.17445747 -19.64799029 64.17445747 -17.015625 64.52734375 C-16.0153125 64.57375 -15.015 64.62015625 -13.984375 64.66796875 C-12.91316406 64.72082031 -11.84195313 64.77367187 -10.73828125 64.828125 C-9.12759766 64.87259766 -9.12759766 64.87259766 -7.484375 64.91796875 C-6.52402344 64.95792969 -5.56367187 64.99789062 -4.57421875 65.0390625 C0.78263954 65.27641791 0.78263954 65.27641791 5.515625 62.91796875 C4.79117188 62.79421875 4.06671875 62.67046875 3.3203125 62.54296875 C-3.24771187 61.14179022 -6.70472498 59.58744378 -10.4609375 53.953125 C-11.5044482 51.8780522 -12.21367647 50.22824072 -12.484375 47.91796875 C-9.68517075 43.71916238 -6.00103338 42.89246429 -1.40625 41.11328125 C1.09164191 39.55971433 1.68786561 38.01262868 2.890625 35.35546875 C5.12533943 31.05847155 5.12533943 31.05847155 8.640625 29.79296875 C11.515625 29.91796875 11.515625 29.91796875 14.515625 30.91796875 C15.703125 34.48046875 15.703125 34.48046875 16.515625 37.91796875 C17.505625 37.58796875 18.495625 37.25796875 19.515625 36.91796875 C19.845625 35.26796875 20.175625 33.61796875 20.515625 31.91796875 C25.390625 34.66796875 25.390625 34.66796875 26.515625 36.91796875 C27.175625 36.91796875 27.835625 36.91796875 28.515625 36.91796875 C25.38186089 30.1281465 20.91352386 25.05143028 15.89453125 19.5859375 C12.87386837 16.19823184 10.09820853 12.64951914 7.33984375 9.046875 C4.88032042 6.17655334 2.87575038 4.12721881 -0.921875 3.54296875 C-4.05226487 4.00107458 -5.95608601 5.03981121 -8.484375 6.91796875 Z " fill="#C7586F" transform="translate(69.484375,31.08203125)"/>
<path d="M0 0 C-0.29296875 2.01822917 -0.5859375 4.03645833 -0.87890625 6.0546875 C-1.1684297 8.08140667 -1.1684297 8.08140667 0 10 C0.46764343 14.06080245 0.55239986 17.94538505 0 22 C-2.69097675 25.20008046 -4.58871293 25.75119532 -8.63671875 26.46484375 C-12.60662699 26.77355421 -15.67951983 26.90388509 -19.04296875 24.6015625 C-21.48608446 21.94373116 -22.81003817 19.75984731 -23.6875 16.25 C-23 14 -23 14 -20.875 12.375 C-18.94758224 11.4531915 -16.98654007 10.59883878 -15 9.8125 C-11.38328393 7.62740071 -10.07786224 5.38170928 -8.078125 1.7421875 C-5.87494425 -1.81802487 -3.64576228 -0.86347001 0 0 Z " fill="#C61067" transform="translate(83,65)"/>
<path d="M0 0 C0.66 0 1.32 0 2 0 C3.72291722 2.07163803 5.34210558 4.14617078 6.9375 6.3125 C11.7725813 13.23585052 11.7725813 13.23585052 18.6875 17.6875 C20.3271875 18.3371875 20.3271875 18.3371875 22 19 C22 19.66 22 20.32 22 21 C20.39125 20.938125 20.39125 20.938125 18.75 20.875 C15.34287835 20.98857072 13.73773233 21.10464685 11 23 C10.67 23.66 10.34 24.32 10 25 C9.4225 25.268125 8.845 25.53625 8.25 25.8125 C5.76842276 26.97499094 5.76842276 26.97499094 3.5 29.5625 C1.13972998 31.86376327 0.18403225 32.64621864 -3 33 C-3.73099001 30.15726106 -4.05864524 28.27367777 -3.4375 25.375 C-2.66787181 22.74391286 -2.66787181 22.74391286 -5 20 C-5.1953125 17.73828125 -5.1953125 17.73828125 -5.125 15.3125 C-5.10695313 14.50425781 -5.08890625 13.69601563 -5.0703125 12.86328125 C-5.04710938 12.24839844 -5.02390625 11.63351563 -5 11 C-7.29294488 10.14025199 -7.29294488 10.14025199 -10 10 C-12.16641665 11.66545339 -12.16641665 11.66545339 -14 14 C-15.33333333 15.33333333 -16.66666667 16.66666667 -18 18 C-16.73544097 13.05672379 -15.16043294 10.05098416 -11 7 C-7.3125 6.9375 -7.3125 6.9375 -4 8 C-1.76107141 10.82299691 -2 12.2791079 -2 16 C-1.34 15.67 -0.68 15.34 0 15 C0.65772428 11.97065509 0.65772428 11.97065509 1 9 C3.31 10.32 5.62 11.64 8 13 C8 13.66 8 14.32 8 15 C8.66 15 9.32 15 10 15 C8.89966185 13.39320484 7.79457336 11.78966207 6.6875 10.1875 C6.07261719 9.29417969 5.45773438 8.40085937 4.82421875 7.48046875 C3.12668058 5.03391727 3.12668058 5.03391727 1.26953125 3.30078125 C0 2 0 2 0 0 Z " fill="#DD9983" transform="translate(88,53)"/>
<path d="M0 0 C2.375 0.1328125 2.375 0.1328125 5 1 C6.625 3.1796875 6.625 3.1796875 8 5.875 C10.51007078 10.76678567 12.97272051 13.01203968 18.23828125 14.73046875 C18.92277344 14.88128906 19.60726562 15.03210938 20.3125 15.1875 C21.529375 15.455625 22.74625 15.72375 24 16 C19.681398 18.879068 16.06589272 18.21079554 11 18 C9.38931641 17.95552734 9.38931641 17.95552734 7.74609375 17.91015625 C6.13927734 17.83087891 6.13927734 17.83087891 4.5 17.75 C3.4996875 17.70359375 2.499375 17.6571875 1.46875 17.609375 C-1 17 -1 17 -2.34375 14.953125 C-2.5603125 14.30859375 -2.776875 13.6640625 -3 13 C-5.64 13.66 -8.28 14.32 -11 15 C-10.91621094 14.39671875 -10.83242188 13.7934375 -10.74609375 13.171875 C-10.59333984 11.97304687 -10.59333984 11.97304687 -10.4375 10.75 C-10.33308594 9.96109375 -10.22867188 9.1721875 -10.12109375 8.359375 C-9.99972651 5.99467126 -10.30366743 4.2488963 -11 2 C-10.28972656 1.93941406 -9.57945313 1.87882812 -8.84765625 1.81640625 C-7.46900391 1.69072266 -7.46900391 1.69072266 -6.0625 1.5625 C-5.14597656 1.48128906 -4.22945312 1.40007812 -3.28515625 1.31640625 C-1.03840268 1.23955024 -1.03840268 1.23955024 0 0 Z " fill="#F3E0B6" transform="translate(51,78)"/>
<path d="M0 0 C8.55648115 3.12231843 15.06039235 14.01832461 20.515625 20.91796875 C19.525625 21.24796875 18.535625 21.57796875 17.515625 21.91796875 C15.50953448 19.79843858 13.51068897 17.67283434 11.515625 15.54296875 C10.94328125 14.9396875 10.3709375 14.33640625 9.78125 13.71484375 C9.23984375 13.13476562 8.6984375 12.5546875 8.140625 11.95703125 C7.63789062 11.42287598 7.13515625 10.8887207 6.6171875 10.33837891 C5.515625 8.91796875 5.515625 8.91796875 5.515625 6.91796875 C2.81523233 5.08170174 1.40497139 4.92199252 -1.921875 5.04296875 C-5.8593667 6.01007197 -7.50061223 7.24023293 -10.484375 9.91796875 C-11.474375 10.55734375 -12.464375 11.19671875 -13.484375 11.85546875 C-17.61675908 14.6964828 -20.70524002 17.74926628 -23.484375 21.91796875 C-25.13970123 22.93663104 -26.80697638 23.93607688 -28.484375 24.91796875 C-31.13850318 26.90856489 -31.45005692 27.75885767 -32.171875 31.10546875 C-32.275 32.03359375 -32.378125 32.96171875 -32.484375 33.91796875 C-32.814375 33.91796875 -33.144375 33.91796875 -33.484375 33.91796875 C-34.11444099 31.05843847 -34.60239066 28.80398814 -34.484375 25.91796875 C-32.09810654 22.66396631 -30.06279624 21.1894726 -26.421875 19.48046875 C-22.78483619 17.54587364 -21.61302841 15.39476932 -19.484375 11.91796875 C-17.47204902 9.58107407 -16.11413406 8.16287505 -13.234375 7.04296875 C-9.78267589 5.63091002 -7.35884113 3.48328536 -4.546875 1.0625 C-2.484375 -0.08203125 -2.484375 -0.08203125 0 0 Z " fill="#CE6E76" transform="translate(69.484375,31.08203125)"/>
<path d="M0 0 C0.33 0.99 0.66 1.98 1 3 C0.34 3.66 -0.32 4.32 -1 5 C-0.64700993 8.44165321 0.04581692 10.06872538 2 13 C2.41007897 14.52774519 2.76152541 16.0720723 3.0625 17.625 C3.47094016 20.59769652 3.47094016 20.59769652 5 23 C5.04063832 24.66617115 5.042721 26.33388095 5 28 C5.5775 27.67 6.155 27.34 6.75 27 C9 26 9 26 13 26 C13.66 26.99 14.32 27.98 15 29 C17.54477444 29.59010357 17.54477444 29.59010357 20.5 29.6875 C22.10294922 29.78224609 22.10294922 29.78224609 23.73828125 29.87890625 C30.37061938 30.17842094 30.37061938 30.17842094 37 30 C37.495 29.505 37.495 29.505 38 29 C36.02 28.67 34.04 28.34 32 28 C32 27.67 32 27.34 32 27 C36.29 27 40.58 27 45 27 C43 31 43 31 40.1875 32.3125 C35.52531185 33.4486635 30.89711767 32.728963 26.18359375 32.19140625 C22.9716316 31.87225421 22.9716316 31.87225421 19.73828125 32.58984375 C18.38283203 32.79287109 18.38283203 32.79287109 17 33 C16.2575 32.34 15.515 31.68 14.75 31 C10.96907257 28.2502346 8.48695202 28.98730627 4.01171875 29.640625 C3.34785156 29.75921875 2.68398438 29.8778125 2 30 C2.061875 29.071875 2.12375 28.14375 2.1875 27.1875 C2.17690557 22.01741647 1.09878946 16.72227629 -1 12 C-3.00190667 10.63757753 -3.00190667 10.63757753 -5 10 C-4.38545304 6.00544473 -2.29353263 3.25533664 0 0 Z " fill="#DD9983" transform="translate(35,65)"/>
<path d="M0 0 C0.33 0 0.66 0 1 0 C0.57962478 5.35978411 -0.44585504 8.00158692 -4 12 C-4.33 12.99 -4.66 13.98 -5 15 C-4.21367187 15.22300781 -3.42734375 15.44601563 -2.6171875 15.67578125 C0 17 0 17 1.1796875 19.35546875 C2.56171667 24.98452016 3.38602364 29.32990328 2 35 C5.465 34.505 5.465 34.505 9 34 C9 34.66 9 35.32 9 36 C6.29120665 37.35439668 3.99066732 37.06501451 1 37 C0.17797215 34.43116298 0.00998275 32.48089711 0.0625 29.75 C-0.00867855 25.47928723 -0.84921375 22.09967601 -2 18 C-6.29 17.01 -10.58 16.02 -15 15 C-15.33 13.68 -15.66 12.36 -16 11 C-12.12315913 9.80712589 -9.08378077 9 -5 9 C-2.71117081 6.05721961 -1.17960932 3.53882795 0 0 Z " fill="#C7576F" transform="translate(35,60)"/>
<path d="M0 0 C0.39832031 0.48082031 0.79664062 0.96164063 1.20703125 1.45703125 C3.43450247 3.37391825 4.78834669 3.47741643 7.6875 3.6875 C8.49574219 3.75324219 9.30398437 3.81898437 10.13671875 3.88671875 C10.75160156 3.92410156 11.36648437 3.96148437 12 4 C15.03605313 10.31499051 15.03605313 10.31499051 14.875 13.375 C14 15 14 15 11 16 C8.48301368 14.92745123 6.33194455 13.45196548 4 12 C3.05125 12.825 2.1025 13.65 1.125 14.5 C-1.75 17 -1.75 17 -4 17 C-4.33 17.99 -4.66 18.98 -5 20 C-5.99 19.67 -6.98 19.34 -8 19 C-6.1875 16.5 -6.1875 16.5 -4 14 C-3.01 14 -2.02 14 -1 14 C-0.690625 13.0409375 -0.690625 13.0409375 -0.375 12.0625 C1 10 1 10 3.875 9.1875 C6.61800014 9.02291999 8.43512912 9.11216008 11 10 C10.2066198 7.84899265 10.2066198 7.84899265 8.22265625 7.32421875 C7.50980469 7.11410156 6.79695313 6.90398437 6.0625 6.6875 C2.19217275 5.3443095 2.19217275 5.3443095 0.5 2.3125 C0.335 1.549375 0.17 0.78625 0 0 Z " fill="#C7576F" transform="translate(99,64)"/>
<path d="M0 0 C0.33 0.66 0.66 1.32 1 2 C-2.88244124 7.51056176 -6.72253573 9.67501323 -13 12 C-12.5988758 17.21461466 -11.94972654 19.55991559 -8 23 C-8 23.66 -8 24.32 -8 25 C-11.5342767 23.55696563 -13.22023292 21.81454002 -15.375 18.6875 C-15.91898438 17.92824219 -16.46296875 17.16898438 -17.0234375 16.38671875 C-18 14 -18 14 -17.6015625 11.4375 C-15.40456195 8.09377234 -12.54784569 6.87625929 -9 5.3125 C-4.15029479 3.20219282 -4.15029479 3.20219282 0 0 Z " fill="#C7576F" transform="translate(74,67)"/>
<path d="M0 0 C0 0.99 0 1.98 0 3 C-1.42787782 4.22863906 -2.86408259 5.44970384 -4.3515625 6.60546875 C-5.99903449 7.9991832 -7.23897963 9.4263417 -8.5625 11.125 C-10.92907007 13.91633906 -12.84228574 15.25494738 -16 17 C-18.65412818 18.99059614 -18.96568192 19.84088892 -19.6875 23.1875 C-19.790625 24.115625 -19.89375 25.04375 -20 26 C-20.33 26 -20.66 26 -21 26 C-21.63006599 23.14046972 -22.11801566 20.88601939 -22 18 C-19.61373154 14.74599756 -17.57842124 13.27150385 -13.9375 11.5625 C-10.30046119 9.62790489 -9.12865341 7.47680057 -7 4 C-3.52631579 0 -3.52631579 0 0 0 Z " fill="#CC6874" transform="translate(57,39)"/>
<path d="M0 0 C2.9375 1.3125 2.9375 1.3125 4.0625 3.1875 C3.9375 5.3125 3.9375 5.3125 2.25 7.5625 C-0.0625 9.3125 -0.0625 9.3125 -4.0625 9.3125 C-6.1875 3.6875 -6.1875 3.6875 -5.0625 0.3125 C-3.0625 -0.6875 -3.0625 -0.6875 0 0 Z " fill="#DD9983" transform="translate(64.0625,46.6875)"/>
<path d="M0 0 C1.32 0.66 2.64 1.32 4 2 C3.67 3.65 3.34 5.3 3 7 C1.35 7.33 -0.3 7.66 -2 8 C-2.66 6.68 -3.32 5.36 -4 4 C-2.68 2.68 -1.36 1.36 0 0 Z " fill="#D88A7E" transform="translate(49,60)"/>
<path d="M0 0 C5.87874404 4.03113877 10.50891698 8.47035403 15 14 C14.01 14.33 13.02 14.66 12 15 C9.99390948 12.88046983 7.99506397 10.75486559 6 8.625 C5.42765625 8.02171875 4.8553125 7.4184375 4.265625 6.796875 C3.72421875 6.21679688 3.1828125 5.63671875 2.625 5.0390625 C2.12226562 4.50490723 1.61953125 3.97075195 1.1015625 3.42041016 C0 2 0 2 0 0 Z " fill="#D37B7A" transform="translate(75,38)"/>
<path d="M0 0 C4.62 0 9.24 0 14 0 C14.33 0.66 14.66 1.32 15 2 C12.11584117 3.44207941 9.58278472 3.09394887 6.375 3.0625 C5.18648437 3.05347656 3.99796875 3.04445313 2.7734375 3.03515625 C1.85820313 3.02355469 0.94296875 3.01195313 0 3 C0 2.01 0 1.02 0 0 Z " fill="#DD9983" transform="translate(55,100)"/>
<path d="M0 0 C0.66 0.33 1.32 0.66 2 1 C-3.7628866 4.88659794 -3.7628866 4.88659794 -6.875 6.375 C-7.57625 6.91125 -8.2775 7.4475 -9 8 C-9.41746608 11.12635209 -9.41746608 11.12635209 -9 14 C-10.625 12.3125 -10.625 12.3125 -12 10 C-11.20031619 6.72337347 -10.47456099 5.33187204 -7.6875 3.3828125 C-6.800625 2.96773438 -5.91375 2.55265625 -5 2.125 C-4.113125 1.69445312 -3.22625 1.26390625 -2.3125 0.8203125 C-1.549375 0.54960938 -0.78625 0.27890625 0 0 Z " fill="#DD9983" transform="translate(68,71)"/>
<path d="M0 0 C1.67542976 0.28604898 3.34385343 0.61781233 5 1 C4.67 2.32 4.34 3.64 4 5 C2.68 5.33 1.36 5.66 0 6 C-0.38218767 4.34385343 -0.71395102 2.67542976 -1 1 C-0.67 0.67 -0.34 0.34 0 0 Z " fill="#C7576F" transform="translate(61,48)"/>
<path d="M0 0 C0.66 0 1.32 0 2 0 C7 5.47619048 7 5.47619048 7 8 C3.64379729 6.61122646 1.92701272 5.08322035 0 2 C0 1.34 0 0.68 0 0 Z " fill="#CF7177" transform="translate(59,84)"/>
<path d="M0 0 C1.32 0.33 2.64 0.66 4 1 C3.67 1.99 3.34 2.98 3 4 C0.9375 4.6875 0.9375 4.6875 -1 5 C-1.33 4.34 -1.66 3.68 -2 3 C-1.34 2.01 -0.68 1.02 0 0 Z " fill="#F3E0B6" transform="translate(87,79)"/>
<path d="M0 0 C0.66 0 1.32 0 2 0 C6 5.41176471 6 5.41176471 6 8 C5.34 8 4.68 8 4 8 C0 3.64705882 0 3.64705882 0 0 Z " fill="#F3DFB2" transform="translate(92,60)"/>
</svg>
