<?xml version="1.0" encoding="UTF-8"?>
<svg version="1.1" xmlns="http://www.w3.org/2000/svg" width="128" height="128">
<path d="M0 0 C42.24 0 84.48 0 128 0 C128 42.24 128 84.48 128 128 C85.76 128 43.52 128 0 128 C0 85.76 0 43.52 0 0 Z " fill="#F6A54A" transform="translate(0,0)"/>
<path d="M0 0 C42.24 0 84.48 0 128 0 C128 16.83 128 33.66 128 51 C124.52404523 48.68269682 123.99794078 47.24757034 122.3125 43.5 C117.4168308 33.44403084 110.59600781 24.95667908 101 19 C98.46029531 18.17154018 96.69554609 18 94 18 C93.67 19.98 93.34 21.96 93 24 C91.5459375 22.700625 91.5459375 22.700625 90.0625 21.375 C80.66997379 13.36763422 72.57612876 9.12405073 60 10 C56.69056596 10.15863268 56.69056596 10.15863268 54 12 C48.98613185 18.84585844 45.86030926 26.66662853 42.75 34.5 C41.89511306 36.63721736 41.03595023 38.77273091 40.171875 40.90625 C39.6164502 42.30327148 39.6164502 42.30327148 39.04980469 43.72851562 C38 46 38 46 36 48 C32.55834679 47.64700993 30.93127462 46.95418308 28 45 C22.53831796 44.21245409 18.52960839 44.70573936 14 48 C13.34 48 12.68 48 12 48 C11.7215625 48.72832031 11.443125 49.45664062 11.15625 50.20703125 C10.07786343 52.81191774 8.84239695 55.21143245 7.5 57.6875 C2.54037863 67.87483037 2.64174926 74.33656482 6.22021484 85.02441406 C9.99423841 95.3462151 14.86052649 101.27793532 24.625 106.25 C25.25849365 106.54350342 25.8919873 106.83700684 26.54467773 107.1394043 C30.71005942 109.09180797 33.54522675 111.29284001 36.6953125 114.64453125 C40.11558627 118.19792945 44.08632801 119.84326597 48.95703125 120.2421875 C51.65114856 120.24910436 54.31226415 120.17786487 57 120 C57.22267708 116.62176584 57.22267708 116.62176584 56 113 C51.11523268 109.49107326 44.78808413 108.26285472 39 107 C40.05585148 102.0134048 42.5255401 97.79510975 44.875 93.3125 C45.32230469 92.43271484 45.76960938 91.55292969 46.23046875 90.64648438 C46.88595703 89.39254883 46.88595703 89.39254883 47.5546875 88.11328125 C47.95155762 87.34798096 48.34842773 86.58268066 48.75732422 85.79418945 C50 84 50 84 53 83 C56.89384102 86.075904 57.97928218 90.78297286 59.57421875 95.28710938 C61.59757677 100.69174751 64.08516243 105.25316472 69.203125 108.3203125 C69.87859375 108.58585937 70.5540625 108.85140625 71.25 109.125 C73.328125 109.9453125 73.328125 109.9453125 75 111 C75.82421875 112.9453125 75.82421875 112.9453125 76 115 C74.5625 117.75 74.5625 117.75 73 120 C74.60320974 120.19551338 76.20762986 120.38111983 77.8125 120.5625 C79.15248047 120.71912109 79.15248047 120.71912109 80.51953125 120.87890625 C83.13375572 121.15658709 83.13375572 121.15658709 86 120 C86.40863281 119.071875 86.81726563 118.14375 87.23828125 117.1875 C89.45961002 113.16842177 92.18590406 111.87282716 96.1875 110 C97.54908724 109.31296057 98.9084909 108.62157579 100.265625 107.92578125 C100.91466797 107.59529785 101.56371094 107.26481445 102.23242188 106.92431641 C114.29887211 100.61442958 120.49475336 89.34732438 125.125 77 C126 75 126 75 128 74 C128 91.82 128 109.64 128 128 C85.76 128 43.52 128 0 128 C0 85.76 0 43.52 0 0 Z " fill="#FDFDFB" transform="translate(0,0)"/>
<path d="M0 0 C4.79883546 3.20438368 8.97097593 6.88043606 13 11 C13.66 9.02 14.32 7.04 15 5 C24.5427794 5.70202492 30.57940919 12.07532213 36.59765625 18.98046875 C41.85054205 25.75923457 46.2782447 32.83473411 49 41 C45.83106647 39.95514556 45.03942109 39.0713608 43.39453125 36.09375 C42.87246094 34.9078125 42.35039063 33.721875 41.8125 32.5 C37.07347082 22.38184812 29.63599777 13.84351672 20 8 C19.01 8 18.02 8 17 8 C17 11.63 17 15.26 17 19 C16.01 19 15.02 19 14 19 C12.640625 17.2421875 12.640625 17.2421875 11.25 14.875 C7.21597005 8.52439839 2.16922609 3.61952492 -5 1 C-11.11564153 -0.11362213 -17.39829916 -1.01630045 -23 2 C-30.58811148 10.26498528 -34.0549816 22.32633012 -38.05786133 32.58740234 C-38.72165687 34.28722808 -39.39400994 35.98372433 -40.07250977 37.67773438 C-41.90943047 41.75517625 -41.90943047 41.75517625 -41.1796875 45.9296875 C-36.11384822 53.59111045 -36.11384822 53.59111045 -29.5 59.875 C-23.92594749 64.61294463 -20.96376899 71.35144598 -19.125 78.3125 C-18.02032589 81.93337626 -16.59019785 84.98390253 -14.8046875 88.30078125 C-14 90 -14 90 -14 92 C-10.6578074 93.73599325 -7.22999945 95.18760892 -3.75 96.625 C-2.67234375 97.07101563 -1.5946875 97.51703125 -0.484375 97.9765625 C0.33546875 98.31429687 1.1553125 98.65203125 2 99 C0.69791667 100.49739583 -0.60416667 101.99479167 -1.90625 103.4921875 C-3.19572458 104.95936421 -3.19572458 104.95936421 -3 107 C-0.14221967 107.68493373 -0.14221967 107.68493373 3 108 C3.99 107.34 4.98 106.68 6 106 C6.04165365 104.33385392 6.04165365 102.66614608 6 101 C8.618407 98.381593 11.03536007 97.92733495 14.5625 96.8125 C27.72257461 92.37411439 35.73749416 83.1444174 42 71 C43.11553979 68.07264391 44.12325131 65.14667495 45.04296875 62.15234375 C45.35878906 61.44207031 45.67460938 60.73179688 46 60 C46.99 59.67 47.98 59.34 49 59 C46.9749077 68.16735333 42.60040957 76.53756167 37 84 C36.38253906 84.82757813 35.76507813 85.65515625 35.12890625 86.5078125 C29.13638241 93.52291381 20.90988003 97.83291925 12.53125 101.3828125 C9.33242404 103.42650686 8.66276021 105.65635686 7 109 C4.87890625 109.875 4.87890625 109.875 2.5625 110 C1.80066406 110.061875 1.03882812 110.12375 0.25390625 110.1875 C-2.25795936 109.97854064 -3.83799153 109.2607612 -6 108 C-5.33333333 105.33333333 -4.66666667 102.66666667 -4 100 C-4.58007812 99.731875 -5.16015625 99.46375 -5.7578125 99.1875 C-15.89737583 94.10098638 -19.270989 87.18367133 -23.1171875 76.7578125 C-24 74 -24 74 -24 72 C-25.32 72 -26.64 72 -28 72 C-29.62568217 75.08297412 -31.25042584 78.16644189 -32.875 81.25 C-33.33519531 82.12269531 -33.79539063 82.99539062 -34.26953125 83.89453125 C-34.71425781 84.73886719 -35.15898438 85.58320312 -35.6171875 86.453125 C-36.02565918 87.22817383 -36.43413086 88.00322266 -36.85498047 88.80175781 C-37.92567749 90.85731347 -38.97013947 92.923735 -40 95 C-38.91332031 95.16435547 -38.91332031 95.16435547 -37.8046875 95.33203125 C-27.04369561 97.09683392 -27.04369561 97.09683392 -23 100 C-21.625 103.1875 -21.625 103.1875 -21 106 C-22.57768219 107.86543554 -23.53654406 108.88832387 -25.9453125 109.46875 C-34.27623201 109.58818971 -39.82758353 106.12698846 -45.8125 100.5625 C-48.99915458 97.60528455 -52.11242232 95.87049575 -56.0625 94.0625 C-65.98865473 89.34350841 -70.5268455 81.73471387 -74.19921875 71.734375 C-77.71165456 60.95201392 -76.92692442 54.79416869 -72.1875 44.6875 C-69.11023588 38.85492397 -66.23082147 34.63611678 -60 32 C-55.90490727 31.44485539 -52.20977643 31.15987748 -48.75 33.5625 C-48.1725 34.036875 -47.595 34.51125 -47 35 C-44.48441629 35.00056018 -44.48441629 35.00056018 -42 34 C-40.47379129 31.93622908 -40.47379129 31.93622908 -39.5 29.25 C-39.08492187 28.25484375 -38.66984375 27.2596875 -38.2421875 26.234375 C-37.41671098 24.08502105 -36.60924542 21.92865962 -35.8203125 19.765625 C-33.13374839 12.42586163 -30.31745407 4.87380741 -25 -1 C-16.89680932 -4.55327078 -7.86143258 -3.93071629 0 0 Z " fill="#F7D663" transform="translate(79,12)"/>
<path d="M0 0 C6.78483609 0.95583141 12.39544058 8.00138705 16.75 12.9375 C20.66847044 18.27097365 24.22965638 23.83608852 26.6875 30 C27.78676422 33.24781009 27.78676422 33.24781009 31 35 C31.29296875 37.8203125 31.29296875 37.8203125 31.1875 41.125 C31.14689453 42.76855469 31.14689453 42.76855469 31.10546875 44.4453125 C31.07066406 45.28835937 31.03585938 46.13140625 31 47 C29.515 47.495 29.515 47.495 28 48 C26.99402649 50.38570099 26.99402649 50.38570099 26.25 53.3125 C21.88372061 67.31125836 13.79217302 78.71257525 1 86 C-6.76489707 89.55466208 -15.94185255 87.79542673 -24 86 C-28.20515519 84.23184813 -30.44817139 81.85444429 -32.9375 78 C-33.98309424 75.0477339 -34.08855414 73.0837678 -34 70 C-33.32453125 69.67386719 -32.6490625 69.34773438 -31.953125 69.01171875 C-31.06109375 68.57472656 -30.1690625 68.13773437 -29.25 67.6875 C-27.92742187 67.04361328 -27.92742187 67.04361328 -26.578125 66.38671875 C-21.96665842 63.95616357 -21.96665842 63.95616357 -19 59.875 C-18.505 58.946875 -18.505 58.946875 -18 58 C-16.0625 57.4375 -16.0625 57.4375 -14 57 C-11.81081732 55.31601333 -11.03406038 54.08515096 -10 51.5 C-8.96958612 48.92396531 -7.91716617 47.91716617 -6 46 C-5.64830932 44.67139075 -5.31229724 43.33841672 -5 42 C-4.01 41.505 -4.01 41.505 -3 41 C-1.91623076 38.33573395 -0.92291847 35.71799489 0 33 C0.35578125 32.08734375 0.7115625 31.1746875 1.078125 30.234375 C2.16457353 26.42259797 2.29399819 22.86433869 2.25 18.9375 C2.25773437 18.24333984 2.26546875 17.54917969 2.2734375 16.83398438 C2.25787727 12.73775302 1.66768215 9.7161736 0 6 C-0.125 2.6875 -0.125 2.6875 0 0 Z " fill="#F9C51E" transform="translate(97,21)"/>
<path d="M0 0 C4.79883546 3.20438368 8.97097593 6.88043606 13 11 C13.66 9.02 14.32 7.04 15 5 C24.5427794 5.70202492 30.57940919 12.07532213 36.59765625 18.98046875 C41.85054205 25.75923457 46.2782447 32.83473411 49 41 C45.83106647 39.95514556 45.03942109 39.0713608 43.39453125 36.09375 C42.87246094 34.9078125 42.35039063 33.721875 41.8125 32.5 C37.07347082 22.38184812 29.63599777 13.84351672 20 8 C19.01 8 18.02 8 17 8 C17 11.63 17 15.26 17 19 C16.01 19 15.02 19 14 19 C12.640625 17.2421875 12.640625 17.2421875 11.25 14.875 C7.21597005 8.52439839 2.16922609 3.61952492 -5 1 C-11.11564153 -0.11362213 -17.39829916 -1.01630045 -23 2 C-29.43388256 9.00779696 -32.5104985 18.66400961 -35.89208984 27.38183594 C-36.25254395 28.30641602 -36.61299805 29.23099609 -36.984375 30.18359375 C-37.30116211 31.01431396 -37.61794922 31.84503418 -37.94433594 32.70092773 C-39.03909138 35.08513495 -40.35437836 36.96519528 -42 39 C-45.73487777 38.5020163 -47.81237635 38.12508244 -51 36 C-55.36512291 35.28495129 -59.07803034 35.63844327 -63.1875 37.25 C-69.02009 42.95297688 -72.86369701 51.08900528 -73.234375 59.296875 C-72.30311712 70.03738261 -68.53276878 80.09149165 -60.5 87.375 C-56.01388702 90.92530017 -51.87260574 92.76770059 -45.9765625 92.546875 C-42.64190366 91.62424212 -41.35341103 89.51083111 -39.51171875 86.6953125 C-36.44919135 81.23499233 -33.69839029 75.64714669 -31 70 C-30.33678085 68.66494847 -29.67193151 67.33068789 -29 66 C-24.1386333 68.09396531 -21.60158961 71.47616762 -19 76 C-18.28818645 78.31627977 -17.83295668 80.5651817 -17.43359375 82.953125 C-16.85571283 85.68113941 -15.53392091 87.69911863 -14 90 C-14 90.66 -14 91.32 -14 92 C-10.6578074 93.73599325 -7.22999945 95.18760892 -3.75 96.625 C-2.67234375 97.07101563 -1.5946875 97.51703125 -0.484375 97.9765625 C0.33546875 98.31429687 1.1553125 98.65203125 2 99 C0.69791667 100.49739583 -0.60416667 101.99479167 -1.90625 103.4921875 C-3.19572458 104.95936421 -3.19572458 104.95936421 -3 107 C-0.14221967 107.68493373 -0.14221967 107.68493373 3 108 C3.99 107.34 4.98 106.68 6 106 C6.04165365 104.33385392 6.04165365 102.66614608 6 101 C8.618407 98.381593 11.03536007 97.92733495 14.5625 96.8125 C27.72257461 92.37411439 35.73749416 83.1444174 42 71 C43.11553979 68.07264391 44.12325131 65.14667495 45.04296875 62.15234375 C45.35878906 61.44207031 45.67460938 60.73179688 46 60 C46.99 59.67 47.98 59.34 49 59 C46.9749077 68.16735333 42.60040957 76.53756167 37 84 C36.38253906 84.82757813 35.76507813 85.65515625 35.12890625 86.5078125 C29.13638241 93.52291381 20.90988003 97.83291925 12.53125 101.3828125 C9.33242404 103.42650686 8.66276021 105.65635686 7 109 C4.87890625 109.875 4.87890625 109.875 2.5625 110 C1.80066406 110.061875 1.03882812 110.12375 0.25390625 110.1875 C-2.25795936 109.97854064 -3.83799153 109.2607612 -6 108 C-5.33333333 105.33333333 -4.66666667 102.66666667 -4 100 C-4.58007812 99.731875 -5.16015625 99.46375 -5.7578125 99.1875 C-15.89737583 94.10098638 -19.270989 87.18367133 -23.1171875 76.7578125 C-24 74 -24 74 -24 72 C-25.32 72 -26.64 72 -28 72 C-29.62568217 75.08297412 -31.25042584 78.16644189 -32.875 81.25 C-33.33519531 82.12269531 -33.79539063 82.99539062 -34.26953125 83.89453125 C-34.71425781 84.73886719 -35.15898438 85.58320312 -35.6171875 86.453125 C-36.02565918 87.22817383 -36.43413086 88.00322266 -36.85498047 88.80175781 C-37.92567749 90.85731347 -38.97013947 92.923735 -40 95 C-38.91332031 95.16435547 -38.91332031 95.16435547 -37.8046875 95.33203125 C-27.04369561 97.09683392 -27.04369561 97.09683392 -23 100 C-21.625 103.1875 -21.625 103.1875 -21 106 C-22.57768219 107.86543554 -23.53654406 108.88832387 -25.9453125 109.46875 C-34.27623201 109.58818971 -39.82758353 106.12698846 -45.8125 100.5625 C-48.99915458 97.60528455 -52.11242232 95.87049575 -56.0625 94.0625 C-65.98865473 89.34350841 -70.5268455 81.73471387 -74.19921875 71.734375 C-77.71165456 60.95201392 -76.92692442 54.79416869 -72.1875 44.6875 C-69.11023588 38.85492397 -66.23082147 34.63611678 -60 32 C-55.90490727 31.44485539 -52.20977643 31.15987748 -48.75 33.5625 C-48.1725 34.036875 -47.595 34.51125 -47 35 C-44.48441629 35.00056018 -44.48441629 35.00056018 -42 34 C-40.47379129 31.93622908 -40.47379129 31.93622908 -39.5 29.25 C-39.08492187 28.25484375 -38.66984375 27.2596875 -38.2421875 26.234375 C-37.41671098 24.08502105 -36.60924542 21.92865962 -35.8203125 19.765625 C-33.13374839 12.42586163 -30.31745407 4.87380741 -25 -1 C-16.89680932 -4.55327078 -7.86143258 -3.93071629 0 0 Z " fill="#F3E5AE" transform="translate(79,12)"/>
<path d="M0 0 C4.79883546 3.20438368 8.97097593 6.88043606 13 11 C13.66 9.02 14.32 7.04 15 5 C24.5427794 5.70202492 30.57940919 12.07532213 36.59765625 18.98046875 C41.85054205 25.75923457 46.2782447 32.83473411 49 41 C45.83106647 39.95514556 45.03942109 39.0713608 43.39453125 36.09375 C42.87246094 34.9078125 42.35039063 33.721875 41.8125 32.5 C37.07347082 22.38184812 29.63599777 13.84351672 20 8 C19.01 8 18.02 8 17 8 C17 11.63 17 15.26 17 19 C16.01 19 15.02 19 14 19 C12.640625 17.2421875 12.640625 17.2421875 11.25 14.875 C7.21597005 8.52439839 2.16922609 3.61952492 -5 1 C-11.11564153 -0.11362213 -17.39829916 -1.01630045 -23 2 C-29.43388256 9.00779696 -32.5104985 18.66400961 -35.89208984 27.38183594 C-36.25254395 28.30641602 -36.61299805 29.23099609 -36.984375 30.18359375 C-37.30116211 31.01431396 -37.61794922 31.84503418 -37.94433594 32.70092773 C-39.03909138 35.08513495 -40.35437836 36.96519528 -42 39 C-45.73487777 38.5020163 -47.81237635 38.12508244 -51 36 C-55.4681174 35.26807982 -59.11135776 35.6069467 -63.25 37.4375 C-66.87125476 40.81185102 -68.86392549 44.57662446 -71 49 C-71.66 49 -72.32 49 -73 49 C-71.41953068 42.41471116 -69.43471433 37.81410088 -63.8125 33.625 C-59.67408201 31.49335798 -55.55988419 31.21779764 -51 32 C-48.75 33.5625 -48.75 33.5625 -47 35 C-44.48441629 35.00056018 -44.48441629 35.00056018 -42 34 C-40.47379129 31.93622908 -40.47379129 31.93622908 -39.5 29.25 C-39.08492187 28.25484375 -38.66984375 27.2596875 -38.2421875 26.234375 C-37.41671098 24.08502105 -36.60924542 21.92865962 -35.8203125 19.765625 C-33.13374839 12.42586163 -30.31745407 4.87380741 -25 -1 C-16.89680932 -4.55327078 -7.86143258 -3.93071629 0 0 Z " fill="#F3E5AE" transform="translate(79,12)"/>
<path d="M0 0 C0.99 0 1.98 0 3 0 C3 0.99 3 1.98 3 3 C2.54109375 3.45375 2.0821875 3.9075 1.609375 4.375 C-0.43338402 6.43759163 -0.89815783 8.23553106 -1.75 11 C-5.79586273 22.62993242 -13.05873377 32.50684311 -23.671875 38.87890625 C-27.48311231 40.71418328 -31.49558166 41.85857504 -35.55859375 43.0078125 C-36.76708984 43.49894531 -36.76708984 43.49894531 -38 44 C-39.01620453 46.81291133 -39.01620453 46.81291133 -39.375 49.0625 C-40 51 -40 51 -43 53 C-46.1875 52.625 -46.1875 52.625 -49 52 C-49 47.31908701 -48.00354129 46.37898396 -45 43 C-45.73605469 42.76925781 -46.47210938 42.53851563 -47.23046875 42.30078125 C-54.80351161 39.76976428 -59.34862454 37.32984598 -63.1875 30.125 C-65.32013324 25.55753853 -67 21.0967117 -67 16 C-60.34448534 14.71865793 -53.74609618 13.66355044 -47 13 C-48.42289267 17.268678 -51.22023607 18.75672547 -55 21 C-58.4375 22.3125 -58.4375 22.3125 -61 23 C-61.49963459 27.12198537 -60.34233427 29.75180352 -58.36328125 33.3515625 C-53.71438799 38.97286037 -46.68985179 39.11067374 -39.9375 39.7578125 C-30.40785091 40.34396155 -25.28356813 37.50668825 -17.80078125 31.5546875 C-8.94564431 23.47761699 -3.98654629 12.44842745 -1 1 C-0.67 0.67 -0.34 0.34 0 0 Z " fill="#F7D160" transform="translate(125,68)"/>
<path d="M0 0 C4.82872777 0.27494535 7.53204372 2.79896673 10.875 6 C11.4023877 6.49765869 11.92977539 6.99531738 12.47314453 7.50805664 C19.6775324 14.43024498 24.54522461 21.49539147 28.73828125 30.59375 C29.76804206 33.12754485 29.76804206 33.12754485 32 34 C31.67 34.99 31.34 35.98 31 37 C26.84242384 34.77272706 25.84625039 31.65569108 24.11328125 27.52734375 C19.26237214 16.51492903 11.92865326 7.34806436 1 2 C1.309375 3.258125 1.61875 4.51625 1.9375 5.8125 C2.11152344 6.52019531 2.28554687 7.22789063 2.46484375 7.95703125 C2.91010705 9.65683202 3.44433985 11.33301954 4 13 C4.12271523 15.61697371 4.18512754 18.19567761 4.1875 20.8125 C4.19974609 21.51181641 4.21199219 22.21113281 4.22460938 22.93164062 C4.24247304 29.29706073 2.46992038 34.16617516 -0.125 39.875 C-0.65480469 41.04675781 -0.65480469 41.04675781 -1.1953125 42.2421875 C-1.46085937 42.82226562 -1.72640625 43.40234375 -2 44 C-2.66 44 -3.32 44 -4 44 C-3.23800872 37.39607558 -3.23800872 37.39607558 -1.9765625 35.296875 C-0.48414423 31.78670723 -0.71181004 28.24898059 -0.75 24.5 C-0.73839844 23.36111328 -0.73839844 23.36111328 -0.7265625 22.19921875 C-0.74010765 18.33207722 -0.80700588 15.27208646 -3 12 C-2.01 12 -1.02 12 0 12 C-0.08378906 11.21753906 -0.16757813 10.43507813 -0.25390625 9.62890625 C-0.35574219 8.61699219 -0.45757812 7.60507812 -0.5625 6.5625 C-0.66691406 5.55316406 -0.77132812 4.54382813 -0.87890625 3.50390625 C-0.91886719 2.67761719 -0.95882812 1.85132812 -1 1 C-0.67 0.67 -0.34 0.34 0 0 Z " fill="#F8D663" transform="translate(96,19)"/>
<path d="M0 0 C-1.42289267 4.268678 -4.22023607 5.75672547 -8 8 C-11.4375 9.3125 -11.4375 9.3125 -14 10 C-14.57948275 14.78073267 -12.89451616 18.29852782 -10 22 C-8.07130988 23.60880981 -6.1979 24.75119318 -4 26 C-7 27 -7 27 -9.875 25.6875 C-15.9013231 21.3701342 -18.43626149 12.96574427 -20 6 C-20 5.01 -20 4.02 -20 3 C-18.89591797 2.80083984 -18.89591797 2.80083984 -17.76953125 2.59765625 C-16.30580078 2.33275391 -16.30580078 2.33275391 -14.8125 2.0625 C-13.36810547 1.80146484 -13.36810547 1.80146484 -11.89453125 1.53515625 C-10.05343728 1.19476506 -8.21652887 0.83018937 -6.38671875 0.43359375 C-4 0 -4 0 0 0 Z " fill="#F7D769" transform="translate(78,81)"/>
<path d="M0 0 C4.96384914 0.07147943 8.51539479 0.95998123 12.9375 3.25 C13.9375 5.9375 13.9375 5.9375 13.9375 8.25 C10.56835621 10.49609586 8.99939321 10.46547992 5.07421875 9.86328125 C1.49486509 8.83593477 -1.440162 6.87993898 -4.0625 4.25 C-4.3925 3.26 -4.7225 2.27 -5.0625 1.25 C-3.53040284 -0.28209716 -2.13059947 0.04385453 0 0 Z " fill="#F7CF5F" transform="translate(42.0625,109.75)"/>
<path d="M0 0 C2.625 0.375 2.625 0.375 4.4375 2.375 C6.0040045 6.33248504 5.90777537 9.13336948 5.625 13.375 C4.625 14.375 4.625 14.375 2.0625 14.4375 C1.258125 14.416875 0.45375 14.39625 -0.375 14.375 C-4.42313665 8.24145963 -4.42313665 8.24145963 -4.1875 4 C-3.1009552 0.48962451 -3.1009552 0.48962451 0 0 Z " fill="#8E7D84" transform="translate(21.375,59.625)"/>
<path d="M0 0 C0.99 0 1.98 0 3 0 C3 0.99 3 1.98 3 3 C2.54109375 3.45375 2.0821875 3.9075 1.609375 4.375 C-0.43338402 6.43759163 -0.89815783 8.23553106 -1.75 11 C-6.07183313 23.42321614 -14.10775896 34.05387948 -26 40 C-29 40.8125 -29 40.8125 -31 41 C-29.69910519 38.39821038 -28.38122436 38.00843531 -25.8125 36.6875 C-13.55698172 29.98859111 -6.54121635 18.97196543 -2.28515625 5.78515625 C-1.83960052 4.194815 -1.41689409 2.59809403 -1 1 C-0.67 0.67 -0.34 0.34 0 0 Z " fill="#F8D663" transform="translate(125,68)"/>
<path d="M0 0 C0.7425 0.515625 1.485 1.03125 2.25 1.5625 C4.80557583 3.24107962 4.80557583 3.24107962 7.125 2.6875 C7.74375 2.460625 8.3625 2.23375 9 2 C9.99 2 10.98 2 12 2 C11.773125 2.9075 11.54625 3.815 11.3125 4.75 C10.67394455 7.99503501 10.67394455 7.99503501 12.4375 10.375 C12.953125 10.91125 13.46875 11.4475 14 12 C8.89225835 12 3.737338 10.53294529 -0.125 7.125 C-1.25285889 4.38591412 -0.85245181 2.78984228 0 0 Z " fill="#F8D663" transform="translate(68,52)"/>
<path d="M0 0 C1.19045931 2.38091861 2.29696114 4.72119135 3.3125 7.1875 C4.7225624 10.23469412 4.7225624 10.23469412 7.6875 10.875 C8.8321875 10.936875 8.8321875 10.936875 10 11 C9.67 12.98 9.34 14.96 9 17 C6.8125 17 6.8125 17 4 16 C0.50601133 11.94465027 -1.87085307 7.42417121 -2 2 C-1.34 1.34 -0.68 0.68 0 0 Z " fill="#F3E5AE" transform="translate(16,63)"/>
<path d="M0 0 C5.65394631 -0.34615998 9.03006806 0.56574762 14 3 C13.67 3.99 13.34 4.98 13 6 C7.36529617 6.5497272 4.61012242 4.95047835 0 2 C0 1.34 0 0.68 0 0 Z " fill="#F9C51E" transform="translate(40,112)"/>
<path d="M0 0 C1.32 0.66 2.64 1.32 4 2 C4 3.98 4 5.96 4 8 C2.125 9.0625 2.125 9.0625 0 10 C-2 9 -2 9 -2.8125 6.6875 C-3 4 -3 4 -1.5625 1.6875 C-1.046875 1.130625 -0.53125 0.57375 0 0 Z " fill="#F7EECC" transform="translate(53,41)"/>
<path d="M0 0 C0.33 0.66 0.66 1.32 1 2 C-0.61000397 5.13950774 -2.38499232 7.63404067 -5 10 C-5.99 9.67 -6.98 9.34 -8 9 C-6.85459775 7.68712379 -5.70866567 6.37470979 -4.5625 5.0625 C-3.92441406 4.33160156 -3.28632812 3.60070312 -2.62890625 2.84765625 C-1.77458541 1.87860647 -0.91348825 0.91348825 0 0 Z " fill="#F8D663" transform="translate(87,70)"/>
<path d="M0 0 C0.928125 0.5259375 0.928125 0.5259375 1.875 1.0625 C2.57625 1.371875 3.2775 1.68125 4 2 C4.66 1.67 5.32 1.34 6 1 C5.6875 2.9375 5.6875 2.9375 5 5 C4.01 5.33 3.02 5.66 2 6 C0 5 0 5 -0.6875 3 C-0.790625 2.34 -0.89375 1.68 -1 1 C-0.67 0.67 -0.34 0.34 0 0 Z " fill="#F3E5AE" transform="translate(51,45)"/>
<path d="M0 0 C-0.99 1.485 -0.99 1.485 -2 3 C-3.32 3 -4.64 3 -6 3 C-6 2.01 -6 1.02 -6 0 C-3.50907189 -1.24546405 -2.58919267 -0.7767578 0 0 Z " fill="#F9C51E" transform="translate(84,116)"/>
</svg>
