<?xml version="1.0" encoding="UTF-8"?>
<svg version="1.1" xmlns="http://www.w3.org/2000/svg" width="128" height="128">
<path d="M0 0 C42.24 0 84.48 0 128 0 C128 42.24 128 84.48 128 128 C85.76 128 43.52 128 0 128 C0 85.76 0 43.52 0 0 Z " fill="#FCFCFC" transform="translate(0,0)"/>
<path d="M0 0 C4.70576907 1.96535061 8.85592031 1.4938278 13.8828125 1.26171875 C22.81440703 1.07981705 30.66241244 1.18220502 38.3203125 6.38671875 C40.33900123 8.66015596 41.83786282 10.81891811 43.26953125 13.49609375 C44.17891586 15.55124507 44.17891586 15.55124507 46.3203125 16.38671875 C46.45570531 19.28412497 46.55458079 22.17517496 46.6328125 25.07421875 C46.67470703 25.89083984 46.71660156 26.70746094 46.75976562 27.54882812 C46.85034058 32.02323089 46.83262865 33.76503174 43.88671875 37.33984375 C43.03980469 38.0153125 42.19289063 38.69078125 41.3203125 39.38671875 C40.6396875 40.40765625 40.6396875 40.40765625 39.9453125 41.44921875 C37.04896483 44.90255635 33.44370854 47.03236887 29.01904297 47.77075195 C26.48967683 47.93139883 23.97967336 47.99642849 21.4453125 48.01171875 C14.77058097 48.11331284 8.80860894 48.74826005 2.3203125 50.38671875 C2.3203125 51.04671875 2.3203125 51.70671875 2.3203125 52.38671875 C-3.01995152 56.32434904 -8.03512466 55.93757816 -14.4296875 55.94921875 C-15.47640625 55.98595703 -16.523125 56.02269531 -17.6015625 56.06054688 C-25.26860152 56.10367397 -29.81575064 54.31521806 -35.6796875 49.38671875 C-35.97625244 50.1662793 -36.27281738 50.94583984 -36.57836914 51.74902344 C-37.75201331 54.55994155 -39.10270139 56.36663117 -41.1171875 58.63671875 C-41.71402344 59.3225 -42.31085937 60.00828125 -42.92578125 60.71484375 C-46.84426322 64.45005596 -52.34202742 63.71822583 -57.4296875 63.82421875 C-58.75226562 63.89286133 -58.75226562 63.89286133 -60.1015625 63.96289062 C-64.87395364 64.04456101 -67.87398361 63.74653736 -71.6015625 60.6171875 C-72.65523986 59.5673908 -73.68487886 58.49246052 -74.6796875 57.38671875 C-75.35 56.66226563 -76.0203125 55.9378125 -76.7109375 55.19140625 C-77.43796875 54.23621094 -77.43796875 54.23621094 -78.1796875 53.26171875 C-78.685 52.61976562 -79.1903125 51.9778125 -79.7109375 51.31640625 C-80.6796875 49.38671875 -80.6796875 49.38671875 -80.41015625 47.28125 C-79.45992052 44.81673487 -78.56002244 43.26705369 -76.6796875 41.38671875 C-73.4921875 40.63671875 -73.4921875 40.63671875 -70.6796875 40.38671875 C-71.453125 39.86078125 -71.453125 39.86078125 -72.2421875 39.32421875 C-73.6796875 37.38671875 -73.6796875 37.38671875 -73.4921875 34.32421875 C-73.23368629 33.00923431 -72.96115108 31.69698025 -72.6796875 30.38671875 C-72.53015625 29.525625 -72.380625 28.66453125 -72.2265625 27.77734375 C-70.95081426 20.65784551 -70.95081426 20.65784551 -68.6796875 18.38671875 C-62.21198934 17.70590842 -57.27277043 19.03331673 -51.6796875 22.38671875 C-51.3496875 23.04671875 -51.0196875 23.70671875 -50.6796875 24.38671875 C-49.3596875 24.05671875 -48.0396875 23.72671875 -46.6796875 23.38671875 C-46.7209375 22.16984375 -46.7621875 20.95296875 -46.8046875 19.69921875 C-47.04595791 12.58174169 -43.3736293 8.4608728 -38.75 3.47265625 C-28.74373025 -6.60913252 -12.02700226 -7.24074626 0 0 Z " fill="#DAC9C5" transform="translate(81.6796875,25.61328125)"/>
<path d="M0 0 C0.495 0.495 0.495 0.495 1 1 C3.06171841 0.99575778 5.1237069 0.98420132 7.18481445 0.93383789 C28.44118568 0.4462786 28.44118568 0.4462786 34.984375 5.546875 C36.53968975 7.28697963 37.77834245 9.01428172 39 11 C39.74942149 12.12538546 40.49937477 13.25041707 41.25 14.375 C42.11625 15.674375 42.11625 15.674375 43 17 C43.66 17.33 44.32 17.66 45 18 C45.390625 23.859375 45.390625 23.859375 45 26 C43.1796875 27.984375 43.1796875 27.984375 41 30 C39.94499736 31.49065049 38.90345467 32.99091073 37.875 34.5 C33.94843892 39.52599818 30.23606436 41.70556889 24 43 C20.70215889 43.24441202 17.42442241 43.40258922 14.12011719 43.49584961 C8.12413919 43.75737631 3.24736042 45.45915504 -2.23046875 47.94140625 C-5.05025854 49.01921024 -7.01361336 49.21292336 -10 49 C-12.15422477 37.95959803 -12.15422477 37.95959803 -9.953125 34.22265625 C-8.625 32.5625 -8.625 32.5625 -6 30 C-5.34 30 -4.68 30 -4 30 C-4 27.69 -4 25.38 -4 23 C-5.19625 23.04125 -6.3925 23.0825 -7.625 23.125 C-11.42329953 23.13851708 -14.44975618 22.42009753 -18 21 C-18 21.66 -18 22.32 -18 23 C-19.32 23 -20.64 23 -22 23 C-22.19335938 22.44570313 -22.38671875 21.89140625 -22.5859375 21.3203125 C-22.97652344 20.23363281 -22.97652344 20.23363281 -23.375 19.125 C-23.75785156 18.04605469 -23.75785156 18.04605469 -24.1484375 16.9453125 C-24.93877783 14.81842006 -24.93877783 14.81842006 -27 13 C-29.82491198 12.08044397 -29.82491198 12.08044397 -33 13 C-35.38747778 15.78178972 -37.21323266 18.80662859 -39 22 C-40.9375 21.625 -40.9375 21.625 -43 21 C-44.73914362 17.52171276 -44.4504589 13.80316012 -44 10 C-40.91353877 3.7036191 -34.78678542 -2.05500808 -28.125 -4.5234375 C-17.96938819 -6.8009828 -9.19826354 -4.41111695 0 0 Z " fill="#2B1919" transform="translate(83,29)"/>
<path d="M0 0 C0.495 0.495 0.495 0.495 1 1 C3.06171841 0.99575778 5.1237069 0.98420132 7.18481445 0.93383789 C28.44118568 0.4462786 28.44118568 0.4462786 34.984375 5.546875 C36.53968975 7.28697963 37.77834245 9.01428172 39 11 C39.74942149 12.12538546 40.49937477 13.25041707 41.25 14.375 C42.11625 15.674375 42.11625 15.674375 43 17 C43.66 17.33 44.32 17.66 45 18 C45.390625 23.859375 45.390625 23.859375 45 26 C43.1796875 27.984375 43.1796875 27.984375 41 30 C39.94499736 31.49065049 38.90345467 32.99091073 37.875 34.5 C33.94843892 39.52599818 30.23606436 41.70556889 24 43 C20.70215889 43.24441202 17.42442241 43.40258922 14.12011719 43.49584961 C8.12413919 43.75737631 3.24736042 45.45915504 -2.23046875 47.94140625 C-5.05025854 49.01921024 -7.01361336 49.21292336 -10 49 C-12.15422477 37.95959803 -12.15422477 37.95959803 -9.953125 34.22265625 C-8.625 32.5625 -8.625 32.5625 -6 30 C-5.34 30 -4.68 30 -4 30 C-4 27.69 -4 25.38 -4 23 C-5.19625 23.04125 -6.3925 23.0825 -7.625 23.125 C-11.42329953 23.13851708 -14.44975618 22.42009753 -18 21 C-18 21.66 -18 22.32 -18 23 C-19.32 23 -20.64 23 -22 23 C-22.19335938 22.44570313 -22.38671875 21.89140625 -22.5859375 21.3203125 C-22.97652344 20.23363281 -22.97652344 20.23363281 -23.375 19.125 C-23.75785156 18.04605469 -23.75785156 18.04605469 -24.1484375 16.9453125 C-24.93877783 14.81842006 -24.93877783 14.81842006 -27 13 C-29.82491198 12.08044397 -29.82491198 12.08044397 -33 13 C-35.38747778 15.78178972 -37.21323266 18.80662859 -39 22 C-40.9375 21.625 -40.9375 21.625 -43 21 C-44.73914362 17.52171276 -44.4504589 13.80316012 -44 10 C-40.91353877 3.7036191 -34.78678542 -2.05500808 -28.125 -4.5234375 C-17.96938819 -6.8009828 -9.19826354 -4.41111695 0 0 Z M-39.7578125 5.2578125 C-41.35396551 7.4964422 -42 9.2438453 -42 12 C-41.67 12.66 -41.34 13.32 -41 14 C-38.01410534 14.33852827 -38.01410534 14.33852827 -36.4375 12.5625 C-35.7259375 11.7890625 -35.7259375 11.7890625 -35 11 C-31.755326 9.377663 -28.50638872 9.42660325 -25 10 C-21.70677498 11.70261383 -19.01689397 14.14823267 -16.20117188 16.53320312 C-12.75980969 19.26229237 -11.66825531 20.03251689 -7.06640625 19.80859375 C-6.05449219 19.54175781 -5.04257813 19.27492188 -4 19 C-1.20091258 22.98475984 -0.55665618 25.97820759 -0.3125 30.8125 C-0.24675781 31.97394531 -0.18101563 33.13539062 -0.11328125 34.33203125 C-0.05720703 35.65267578 -0.05720703 35.65267578 0 37 C-0.99 35.68 -1.98 34.36 -3 33 C-6.0170845 34.14262789 -6.0170845 34.14262789 -7.8125 36.6875 C-8.07224656 39.89104088 -7.54609881 42.84476244 -7 46 C-3.46697478 46.25235894 -1.37816676 46.19328523 1.8125 44.5625 C7.00452811 42.01738818 12.29035953 41.90889807 18 42.125 C23.81488271 42.19463931 28.91744266 40.29581346 33.8125 37.25 C38.23094562 32.70531308 40.97734219 27.2495755 42 21 C40.97485312 17.61417598 40.97485312 17.61417598 39 15 C37.515 14.505 37.515 14.505 36 14 C36.56739868 18.12973628 36.56739868 18.12973628 38 22 C23.94845361 22.29896907 23.94845361 22.29896907 19 19 C18.29508733 16.67793475 17.62787571 14.34406932 17 12 C16.34 11.34 15.68 10.68 15 10 C14.60235737 8.01178687 14.26224651 6.01055661 14 4 C11.06587055 3.28869589 8.72485661 3.01557415 5.6875 3.1875 C1.63195633 2.98128591 -0.35029204 1.98377991 -3.828125 0.08984375 C-16.25312436 -6.14500305 -30.09858241 -5.51061148 -39.7578125 5.2578125 Z " fill="#61434C" transform="translate(83,29)"/>
<path d="M0 0 C0.66 0.33 1.32 0.66 2 1 C1.50628906 1.55429687 1.01257812 2.10859375 0.50390625 2.6796875 C-0.45708984 3.76636719 -0.45708984 3.76636719 -1.4375 4.875 C-2.07558594 5.59429687 -2.71367188 6.31359375 -3.37109375 7.0546875 C-5.84244296 10.00608296 -6.13726149 11.72345995 -6.125 15.5 C-6.12757812 16.2940625 -6.13015625 17.088125 -6.1328125 17.90625 C-6.13277996 20.05918534 -6.13277996 20.05918534 -5 22 C-4.01 22 -3.02 22 -2 22 C-0.56506893 20.26560179 -0.56506893 20.26560179 0.625 18.0625 C2.97468354 14.02531646 2.97468354 14.02531646 4 13 C7.50079361 12.61102293 9.35448244 12.56383949 12.3125 14.5625 C14.46797134 17.67595861 14.7128051 20.26646636 15 24 C16.32 24 17.64 24 19 24 C19 23.34 19 22.68 19 22 C23.62 22.66 28.24 23.32 33 24 C33.495 26.475 33.495 26.475 34 29 C32.56640625 30.78125 32.56640625 30.78125 30.5625 32.5 C26.92644851 36.2514817 26.51740271 38.81381177 26.5625 44 C26.6739866 46.00220831 26.8082989 48.00387424 27 50 C29.64 49.67 32.28 49.34 35 49 C33.7890625 50.5234375 33.7890625 50.5234375 32 52 C29.8359375 52.0390625 29.8359375 52.0390625 27.375 51.625 C23.84208531 51.12834388 21.00478043 51.0451648 17.5 51.6875 C12.20888808 52.43392472 7.5163646 50.76000059 3 48 C2.505 46.515 2.505 46.515 2 45 C1.443125 44.731875 0.88625 44.46375 0.3125 44.1875 C-2.01597248 42.99179791 -3.16610481 41.88553147 -4.9375 40 C-7.41224625 37.41820365 -9.50909326 36.02673728 -13 35 C-13 34.34 -13 33.68 -13 33 C-7.01757463 30.28071574 -2.45578514 29.30647057 4 31 C4.99 31.66 5.98 32.32 7 33 C9.43717258 32.72965366 9.43717258 32.72965366 12 32 C15.41633299 31.16674805 17.63652064 30.87884021 21 32 C18.89495606 29.86286698 16.74300438 27.80464205 14.5 25.8125 C13.9121875 25.28269531 13.324375 24.75289062 12.71875 24.20703125 C10.94086212 22.71264503 10.94086212 22.71264503 8 23 C7.34 23.99 6.68 24.98 6 26 C3.390625 26.765625 3.390625 26.765625 0.25 27.25 C-0.77609375 27.42015625 -1.8021875 27.5903125 -2.859375 27.765625 C-6.10658822 28.00795434 -8.8233093 27.6657735 -12 27 C-12 26.34 -12 25.68 -12 25 C-11.01 24.34 -10.02 23.68 -9 23 C-8.78734616 20.56442794 -8.78734616 20.56442794 -9.0625 17.8125 C-9.22828983 11.47103904 -7.91381638 8.24399387 -3.62109375 3.46484375 C-2.45320138 2.27033275 -1.23147311 1.12885035 0 0 Z " fill="#B1898D" transform="translate(46,28)"/>
<path d="M0 0 C0.495 0.495 0.495 0.495 1 1 C2.34747084 1.23075082 3.70377565 1.41153063 5.0625 1.5625 C6.361875 1.706875 7.66125 1.85125 9 2 C9 2.66 9 3.32 9 4 C3.69884341 4.44176305 0.80196741 3.61127004 -3.828125 1.08984375 C-11.99737852 -3.00947591 -19.72095354 -4.1874632 -28.5 -1.5 C-34.01326314 0.63686475 -38.13297203 3.7454129 -41 9 C-41.23558414 11.67012084 -41.23558414 11.67012084 -41 14 C-40.01 14 -39.02 14 -38 14 C-37.67 13.01 -37.34 12.02 -37 11 C-34.01062302 8.7280735 -30.81732898 8.61737897 -27.13745117 8.65454102 C-22.66121399 9.37799911 -19.55974627 12.68842639 -16.20117188 15.53320312 C-12.75980969 18.26229237 -11.66825531 19.03251689 -7.06640625 18.80859375 C-6.05449219 18.54175781 -5.04257813 18.27492188 -4 18 C1.00191477 23.64732312 0.78317615 29.6930361 1 37 C0.01 37.495 0.01 37.495 -1 38 C-1.66 36.35 -2.32 34.7 -3 33 C-5.08915199 34.14878746 -5.08915199 34.14878746 -7 36 C-7.48261667 38.50880616 -7.48261667 38.50880616 -7.25 41.1875 C-7.19585937 42.53908203 -7.19585937 42.53908203 -7.140625 43.91796875 C-7.09421875 44.60503906 -7.0478125 45.29210937 -7 46 C-5.7625 45.690625 -4.525 45.38125 -3.25 45.0625 C-0.5 44.375 2.25 43.6875 5 43 C5 43.66 5 44.32 5 45 C3.44219668 45.67756882 1.87849904 46.34159457 0.3125 47 C-0.55761719 47.37125 -1.42773438 47.7425 -2.32421875 48.125 C-5.0572002 49.01870488 -7.14700934 49.16449676 -10 49 C-12.15422477 37.95959803 -12.15422477 37.95959803 -9.953125 34.22265625 C-8.625 32.5625 -8.625 32.5625 -6 30 C-5.34 30 -4.68 30 -4 30 C-4 27.69 -4 25.38 -4 23 C-5.19625 23.04125 -6.3925 23.0825 -7.625 23.125 C-11.42329953 23.13851708 -14.44975618 22.42009753 -18 21 C-18 21.66 -18 22.32 -18 23 C-19.32 23 -20.64 23 -22 23 C-22.19335938 22.44570313 -22.38671875 21.89140625 -22.5859375 21.3203125 C-22.97652344 20.23363281 -22.97652344 20.23363281 -23.375 19.125 C-23.75785156 18.04605469 -23.75785156 18.04605469 -24.1484375 16.9453125 C-24.93877783 14.81842006 -24.93877783 14.81842006 -27 13 C-29.82491198 12.08044397 -29.82491198 12.08044397 -33 13 C-35.38747778 15.78178972 -37.21323266 18.80662859 -39 22 C-40.9375 21.625 -40.9375 21.625 -43 21 C-44.73914362 17.52171276 -44.4504589 13.80316012 -44 10 C-40.91353877 3.7036191 -34.78678542 -2.05500808 -28.125 -4.5234375 C-17.96938819 -6.8009828 -9.19826354 -4.41111695 0 0 Z " fill="#61434C" transform="translate(83,29)"/>
<path d="M0 0 C4.70576907 1.96535061 8.85592031 1.4938278 13.8828125 1.26171875 C22.81440703 1.07981705 30.66241244 1.18220502 38.3203125 6.38671875 C40.33900123 8.66015596 41.83786282 10.81891811 43.26953125 13.49609375 C44.17891586 15.55124507 44.17891586 15.55124507 46.3203125 16.38671875 C46.3203125 18.03671875 46.3203125 19.68671875 46.3203125 21.38671875 C42.69567659 19.9446593 41.35120589 18.26986024 39.3828125 14.94921875 C36.0215722 9.74471765 33.17559341 7.73050175 27.1953125 6.19921875 C22.03181429 5.22234071 17.04209168 5.43439038 11.8203125 5.57421875 C5.04017589 5.73485117 0.11293128 5.32539242 -5.76953125 1.578125 C-11.27811804 -1.85770112 -18.45940116 -1.21257794 -24.6796875 -0.61328125 C-32.39027158 1.41677808 -38.40630044 4.51548128 -42.6796875 11.38671875 C-43.36588781 12.71010507 -44.03786625 14.04124943 -44.6796875 15.38671875 C-45.43359375 13.69921875 -45.43359375 13.69921875 -45.6796875 11.38671875 C-40.73121666 4.12119921 -34.42436114 -1.92809797 -25.7421875 -3.86328125 C-16.81752816 -5.33744373 -7.92371571 -4.77040027 0 0 Z " fill="#D1BCB9" transform="translate(81.6796875,25.61328125)"/>
<path d="M0 0 C2.99807566 1.58231771 4.89571722 2.86638769 7 5.5625 C9.19159106 8.23350161 10.74207599 9.00452322 14 10 C14.33 8.68 14.66 7.36 15 6 C17.375 5.8125 17.375 5.8125 20 6 C20.99 7.485 20.99 7.485 22 9 C21.34 9.66 20.68 10.32 20 11 C19.29289322 12.64991582 18.62056011 14.31562256 18 16 C11.42150508 16.95494281 5.58183362 16.8931507 -1 16 C-1 12 -1 12 0 11 C0.07226502 9.14712498 0.0838122 7.29166122 0.0625 5.4375 C0.05347656 4.42558594 0.04445313 3.41367188 0.03515625 2.37109375 C0.02355469 1.58863281 0.01195312 0.80617188 0 0 Z " fill="#FDFDFD" transform="translate(16,67)"/>
<path d="M0 0 C0.66 0 1.32 0 2 0 C2.3125 2.1875 2.3125 2.1875 2 5 C-0.3125 7.5625 -0.3125 7.5625 -3 10 C-3.45375 10.680625 -3.9075 11.36125 -4.375 12.0625 C-7.27133436 15.51582173 -10.86886365 17.65928045 -15.30126953 18.36791992 C-17.83062115 18.50883299 -20.34176261 18.56058956 -22.875 18.5625 C-29.13959821 18.59587305 -34.24265572 19.09607708 -40.09423828 21.45678711 C-42 22 -42 22 -45 21 C-39.05200352 17.92591528 -33.66863072 16.71137947 -27 16.5 C-19.59253255 16.21117276 -12.56018738 15.6968257 -7.16796875 10.09765625 C-5.65465948 8.12041275 -4.32180616 6.10830141 -3 4 C-1.46484375 1.75 -1.46484375 1.75 0 0 Z " fill="#C1A2A3" transform="translate(126,55)"/>
<path d="M0 0 C8.40091813 0.55087988 8.40091813 0.55087988 12 4 C11.79375 4.928125 11.5875 5.85625 11.375 6.8125 C10.63307034 10.15173402 10.63307034 10.15173402 13 13 C9.17056034 12.42164069 7.15061338 10.68633869 4.3125 8.125 C3.52488281 7.42632812 2.73726562 6.72765625 1.92578125 6.0078125 C0 4 0 4 -1 1 C-0.67 0.67 -0.34 0.34 0 0 Z " fill="#593C44" transform="translate(40,61)"/>
<path d="M0 0 C0.60328125 0.08378906 1.2065625 0.16757812 1.828125 0.25390625 C3.02695313 0.40666016 3.02695313 0.40666016 4.25 0.5625 C5.03890625 0.66691406 5.8278125 0.77132813 6.640625 0.87890625 C9.03323474 1.00170576 10.71407378 0.65445741 13 0 C21.02970975 -0.75751979 31.63866608 0.70799489 38.23046875 5.68359375 C40.26784971 8.02280893 41.67005192 10.2722133 42.94921875 13.09375 C43.98824274 15.32503275 43.98824274 15.32503275 47 17 C47 17.66 47 18.32 47 19 C43.37536409 17.55794055 42.03089339 15.88314149 40.0625 12.5625 C36.7012597 7.3579989 33.85528091 5.343783 27.875 3.8125 C21.79801535 2.66903096 15.66736033 2.92268307 9.51318359 3.16137695 C8.71605957 3.18159912 7.91893555 3.20182129 7.09765625 3.22265625 C6.38101807 3.25109619 5.66437988 3.27953613 4.92602539 3.30883789 C2.44435724 2.91090276 1.58287746 1.89106478 0 0 Z " fill="#B1898D" transform="translate(81,28)"/>
<path d="M0 0 C4.90094703 -0.288291 8.21612143 -0.33871638 12 3 C12.8125 6.1875 12.8125 6.1875 13 9 C9.13700588 8.4481437 7.69346579 6.69346579 5 4 C2.36777038 2.74563813 2.36777038 2.74563813 0 2 C0 1.34 0 0.68 0 0 Z " fill="#2B1919" transform="translate(106,34)"/>
<path d="M0 0 C0.99 0.33 1.98 0.66 3 1 C4.1875 3.5625 4.1875 3.5625 5 6 C7.31 6.33 9.62 6.66 12 7 C11.67 7.66 11.34 8.32 11 9 C7.94906643 9.28782392 5.04087532 9.4359485 2 9 C-0.125 6.75 -0.125 6.75 -1 4 C-0.6875 1.6875 -0.6875 1.6875 0 0 Z " fill="#FDFDFD" transform="translate(26,59)"/>
<path d="M0 0 C-0.35233161 5.4611399 -0.35233161 5.4611399 -1 8 C-3.0625 9.5 -3.0625 9.5 -5 10 C-6 9 -6 9 -6.25 6.125 C-6 3 -6 3 -4.6875 1.125 C-3 0 -3 0 0 0 Z " fill="#FDFDFD" transform="translate(22,49)"/>
<path d="M0 0 C2.475 0.495 2.475 0.495 5 1 C5.33 2.65 5.66 4.3 6 6 C4.125 6.625 4.125 6.625 2 7 C0 5 0 5 -0.125 2.375 C-0.08375 1.59125 -0.0425 0.8075 0 0 Z " fill="#B1898D" transform="translate(19,62)"/>
<path d="M0 0 C2.64 0 5.28 0 8 0 C8 0.99 8 1.98 8 3 C3.545 3.495 3.545 3.495 -1 4 C-0.67 2.68 -0.34 1.36 0 0 Z " fill="#B1898D" transform="translate(6,69)"/>
<path d="M0 0 C2.31 0.66 4.62 1.32 7 2 C6.67 2.99 6.34 3.98 6 5 C3.5625 4.1875 3.5625 4.1875 1 3 C0.67 2.01 0.34 1.02 0 0 Z " fill="#DAC9C5" transform="translate(55,69)"/>
<path d="M0 0 C0.66 0 1.32 0 2 0 C0.33248852 3.94139078 -2.22710649 6.7892812 -5 10 C-5 6.65580848 -4.52480606 5.93159679 -2.625 3.3125 C-2.18414062 2.68988281 -1.74328125 2.06726562 -1.2890625 1.42578125 C-0.86367187 0.95527344 -0.43828125 0.48476563 0 0 Z " fill="#B1898D" transform="translate(126,55)"/>
</svg>
