<?xml version="1.0" encoding="UTF-8"?>
<svg version="1.1" xmlns="http://www.w3.org/2000/svg" width="128" height="128">
<path d="M0 0 C42.24 0 84.48 0 128 0 C128 42.24 128 84.48 128 128 C85.76 128 43.52 128 0 128 C0 85.76 0 43.52 0 0 Z " fill="#E96923" transform="translate(0,0)"/>
<path d="M0 0 C0.99 0 1.98 0 3 0 C5.4687113 3.84549261 7.37435051 7.13352002 6.4453125 11.765625 C5.37883914 14.55246779 4.20686065 17.27144548 3 20 C1.35213703 24.90133601 0.72373938 28.8949575 2 34 C4.04787429 31.08060468 4.04787429 31.08060468 5.4375 28 C8.21812571 22.66119864 8.21812571 22.66119864 11.86328125 21.30859375 C15.84107236 20.15234368 15.84107236 20.15234368 18 20 C18.99 20.66 19.98 21.32 21 22 C21.18175781 21.38511719 21.36351563 20.77023438 21.55078125 20.13671875 C21.80214844 19.32847656 22.05351563 18.52023438 22.3125 17.6875 C22.55613281 16.88699219 22.79976563 16.08648437 23.05078125 15.26171875 C24.05666922 12.86497333 24.94727871 11.58101008 27 10 C29.54664219 10.26119407 31.75183018 10.92200377 34.1875 11.6875 C34.785625 11.790625 35.38375 11.89375 36 12 C38.5654594 9.4345406 38.54046087 7.52313332 39 4 C43.875 6.75 43.875 6.75 45 9 C47.75641416 8.50243908 47.75641416 8.50243908 50 7 C52.3125 6.75 52.3125 6.75 55 7 C55.59941406 7.49886719 56.19882813 7.99773438 56.81640625 8.51171875 C59.62364858 10.42506281 61.27130877 10.24781178 64.625 10.0625 C67.5390625 9.91015625 67.5390625 9.91015625 70 10 C72.3917684 12.3917684 72.25593488 12.90610562 72.265625 16.1640625 C72.26965332 17.02781494 72.27368164 17.89156738 72.27783203 18.78149414 C72.26864746 19.71985107 72.25946289 20.65820801 72.25 21.625 C72.24468262 22.59107178 72.23936523 23.55714355 72.23388672 24.55249023 C72.13856511 32.07746775 71.72157171 39.56158965 71.125 47.0625 C71.00753418 48.58641357 71.00753418 48.58641357 70.88769531 50.14111328 C70.80358398 51.09614746 70.71947266 52.05118164 70.6328125 53.03515625 C70.52283936 54.29404663 70.52283936 54.29404663 70.41064453 55.57836914 C69.82123299 59.05421523 68.70985226 61.98592534 66.6875 64.875 C65 66 65 66 62.4375 65.8125 C60 65 60 65 58 63 C53.95004581 62.48222744 53.95004581 62.48222744 50.46118164 64.22875977 C48.90547218 65.98024229 48.90547218 65.98024229 47.87670898 68.24194336 C46.20913508 71.29138903 44.84494105 72.9599691 42 75 C35.55101712 76.56429287 28.63115186 75.84098608 22.0625 75.5625 C20.21559199 75.51731917 18.36857823 75.47626086 16.52148438 75.43945312 C12.01170071 75.34062972 7.50701426 75.18555868 3 75 C4.32 73.35 5.64 71.7 7 70 C5.19823976 68.10341027 3.39827714 66.53821269 1.3125 64.9375 C0.549375 64.298125 -0.21375 63.65875 -1 63 C-1 62.34 -1 61.68 -1 61 C-2.216875 61.4125 -3.43375 61.825 -4.6875 62.25 C-11.26495969 63.67355763 -17.09026993 62.02693491 -23 59 C-25.85876025 56.27224676 -28.00192891 53.40035371 -30 50 C-29.34 48.68 -28.68 47.36 -28 46 C-29.76529595 44.78309467 -29.76529595 44.78309467 -32 44 C-34.23470405 44.78309467 -34.23470405 44.78309467 -36 46 C-36.495 43.525 -36.495 43.525 -37 41 C-34 40 -34 40 -31.9375 40.5625 C-31.298125 40.706875 -30.65875 40.85125 -30 41 C-27.8614515 38.8614515 -27.57344937 37.86724686 -27 35 C-30.70175871 34.9244539 -34.14312381 35.02111663 -37.8125 35.5625 C-41 36 -41 36 -43 35 C-42.67 34.01 -42.34 33.02 -42 32 C-42 32.66 -42 33.32 -42 34 C-41.01 34 -40.02 34 -39 34 C-38.87882812 33.28972656 -38.75765625 32.57945313 -38.6328125 31.84765625 C-38.46523438 30.92855469 -38.29765625 30.00945312 -38.125 29.0625 C-37.96257813 28.14597656 -37.80015625 27.22945312 -37.6328125 26.28515625 C-37.42398438 25.53105469 -37.21515625 24.77695313 -37 24 C-34.17116253 22.58558126 -32.12623255 22.68099668 -29 23 C-25.71485442 25.93316569 -25.04109274 29.83562902 -24 34 C-23.01 34 -22.02 34 -21 34 C-18.79857668 31.5609294 -18.79857668 31.5609294 -17 29 C-14.61435923 29.57584432 -12.33317216 30.22227595 -10 31 C-9.35996933 26.31700329 -8.85469923 21.73034735 -9 17 C-11.16799208 13.82718148 -11.16799208 13.82718148 -14 12 C-14.875 9.75 -14.875 9.75 -15 8 C-14.67 7.67 -14.34 7.34 -14 7 C-8.70602769 7.30542148 -5.86602713 8.36827755 -2 12 C0.48772258 8.7162062 1.03180444 7.38801417 0.6875 3.1875 C0.460625 2.135625 0.23375 1.08375 0 0 Z " fill="#D93019" transform="translate(48,53)"/>
<path d="M0 0 C42.24 0 84.48 0 128 0 C128 5.28 128 10.56 128 16 C121.70535714 20.41964286 121.70535714 20.41964286 116.96484375 19.671875 C111.48428047 18.91843079 106.0217208 18.51038643 100.5 18.1875 C99.02853516 18.07245117 99.02853516 18.07245117 97.52734375 17.95507812 C91.4499271 17.61924219 87.34908538 18.27820059 81.92089844 21.04516602 C79.57531324 22.21110192 77.47801199 22.65440576 74.875 22.875 C74.10929687 22.95492188 73.34359375 23.03484375 72.5546875 23.1171875 C70 23 70 23 66.734375 22.04296875 C59.92150603 20.14021141 52.99249244 20.06672497 46 21 C42.33731804 23.37507245 41.48607476 26.43209732 40.23828125 30.45703125 C38.6223509 33.77555067 36.54978413 35.27308661 33.625 37.5 C29.82895861 40.40586457 26.87448997 43.18111908 24 47 C23.32839844 47.81339844 22.65679688 48.62679687 21.96484375 49.46484375 C17.67856091 54.66201435 17.67856091 54.66201435 14.375 60.5 C12.51378652 63.88402452 10.57073986 63.86040217 7 65 C1.17475553 75.92485295 3.6878771 92.56675711 7.13085938 103.92480469 C9.2360238 108.95118043 13.36066988 111.53705012 18 114 C21 116 21 116 21.6875 118.125 C21.790625 118.74375 21.89375 119.3625 22 120 C14.60166594 118.29269214 6.81303139 116.4065157 0 113 C0 75.71 0 38.42 0 0 Z " fill="#050303" transform="translate(0,0)"/>
<path d="M0 0 C0 36.96 0 73.92 0 112 C-12.54 112 -25.08 112 -38 112 C-36.23048403 108.46096807 -34.53673099 105.9843894 -32 103 C-31.38125 102.236875 -30.7625 101.47375 -30.125 100.6875 C-28 99 -28 99 -24.9375 98.5625 C-21.60133797 99.0593752 -21.25973738 99.74026262 -19 102 C-15.65807308 101.75546876 -14.39456443 101.39456443 -12 99 C-11.54765979 96.52247651 -11.20357953 94.1231592 -10.9375 91.625 C-10.85516113 90.89748535 -10.77282227 90.1699707 -10.68798828 89.42041016 C-10.52454315 87.95069861 -10.36563418 86.48047501 -10.21142578 85.00976562 C-10.03725535 83.35414094 -9.84698336 81.70021824 -9.65234375 80.046875 C-8.58298854 69.74491772 -8.91026121 59.34343156 -9 49 C-12.06609184 47.46695408 -15.11913327 48.08664258 -18.4921875 48.2578125 C-21.51234214 47.94732931 -22.69000146 46.89400304 -25 45 C-27.58462162 44.58282721 -27.58462162 44.58282721 -30 45 C-30.66 45.66 -31.32 46.32 -32 47 C-35.78903708 46.74739753 -37.54186593 44.72150557 -40 42 C-40.2475 42.94875 -40.495 43.8975 -40.75 44.875 C-42 48 -42 48 -43.75 49.5625 C-47.15314439 50.22422252 -49.10644853 48.70982587 -52 47 C-51.67 46.34 -51.34 45.68 -51 45 C-49.02 45.66 -47.04 46.32 -45 47 C-45.061875 45.906875 -45.12375 44.81375 -45.1875 43.6875 C-45 40 -45 40 -43.5 38.0625 C-43.005 37.711875 -42.51 37.36125 -42 37 C-39.69 37.66 -37.38 38.32 -35 39 C-34.95875 38.401875 -34.9175 37.80375 -34.875 37.1875 C-34 35 -34 35 -31.0625 33.25 C-28 32 -28 32 -26 32 C-26.185625 31.0925 -26.37125 30.185 -26.5625 29.25 C-26.95734621 26.31685676 -26.94691572 24.7355343 -26 22 C-30.41062136 20.9742741 -32.92630576 20.96315288 -37 23 C-36.34 23.99 -35.68 24.98 -35 26 C-37.91708924 27.98362069 -39.12380904 27.9876191 -42.75 27.625 C-44.35875 27.315625 -44.35875 27.315625 -46 27 C-46 25.68 -46 24.36 -46 23 C-47.98 22.01 -49.96 21.02 -52 20 C-51.67 19.34 -51.34 18.68 -51 18 C-42.42 18 -33.84 18 -25 18 C-24.67 16.35 -24.34 14.7 -24 13 C-28.50353262 11.24252386 -32.17639811 10.80705592 -37 11 C-37.99 12.98 -38.98 14.96 -40 17 C-41.65 17 -43.3 17 -45 17 C-46.2611726 12.71201317 -45.85335785 10.05973624 -44 6 C-41.52774678 3.44781762 -40.28167908 3.01575842 -36.68774414 2.81469727 C-35.39989014 2.89776123 -34.11203613 2.9808252 -32.78515625 3.06640625 C-31.36264091 3.14018055 -29.9401145 3.21374168 -28.51757812 3.28710938 C-26.28768956 3.42145777 -24.05843898 3.56276772 -21.8293457 3.7097168 C-19.66938144 3.84642944 -17.5091716 3.95744166 -15.34765625 4.06640625 C-14.05867432 4.14834229 -12.76969238 4.23027832 -11.44165039 4.31469727 C-6.47442918 3.86050502 -4.76699222 0 0 0 Z " fill="#E4451F" transform="translate(128,16)"/>
<path d="M0 0 C3.69579051 0.4394018 7.36442893 0.25430697 11.078125 0.125 C13.3984375 0.28515625 13.3984375 0.28515625 15.3984375 2.28515625 C15.65722656 4.15087891 15.65722656 4.15087891 15.6640625 6.44921875 C15.66809082 7.31297119 15.67211914 8.17672363 15.67626953 9.06665039 C15.66708496 10.00500732 15.65790039 10.94336426 15.6484375 11.91015625 C15.64312012 12.87622803 15.63780273 13.8422998 15.63232422 14.83764648 C15.53700261 22.362624 15.12000921 29.8467459 14.5234375 37.34765625 C14.40597168 38.87156982 14.40597168 38.87156982 14.28613281 40.42626953 C14.20202148 41.38130371 14.11791016 42.33633789 14.03125 43.3203125 C13.92127686 44.57920288 13.92127686 44.57920288 13.80908203 45.86352539 C13.21967049 49.33937148 12.10828976 52.27108159 10.0859375 55.16015625 C8.3984375 56.28515625 8.3984375 56.28515625 5.8359375 56.09765625 C3.3984375 55.28515625 3.3984375 55.28515625 1.3984375 53.28515625 C-2.65151669 52.76738369 -2.65151669 52.76738369 -6.14038086 54.51391602 C-7.69609032 56.26539854 -7.69609032 56.26539854 -8.72485352 58.52709961 C-10.39242742 61.57654528 -11.75662145 63.24512535 -14.6015625 65.28515625 C-21.05054538 66.84944912 -27.97041064 66.12614233 -34.5390625 65.84765625 C-36.38597051 65.80247542 -38.23298427 65.76141711 -40.08007812 65.72460938 C-44.58986179 65.62578597 -49.09454824 65.47071493 -53.6015625 65.28515625 C-52.2815625 63.63515625 -50.9615625 61.98515625 -49.6015625 60.28515625 C-51.40332274 58.38856652 -53.20328536 56.82336894 -55.2890625 55.22265625 C-56.0521875 54.58328125 -56.8153125 53.94390625 -57.6015625 53.28515625 C-57.6015625 52.62515625 -57.6015625 51.96515625 -57.6015625 51.28515625 C-59.426875 51.90390625 -59.426875 51.90390625 -61.2890625 52.53515625 C-67.8784492 53.96129524 -73.67407121 52.29449798 -79.6015625 49.28515625 C-82.56265931 46.62972105 -84.93067173 43.914331 -86.6015625 40.28515625 C-86.2715625 39.29515625 -85.9415625 38.30515625 -85.6015625 37.28515625 C-83.6640625 36.47265625 -83.6640625 36.47265625 -81.6015625 36.28515625 C-80.9415625 36.94515625 -80.2815625 37.60515625 -79.6015625 38.28515625 C-77.39083273 38.52769438 -77.39083273 38.52769438 -74.9765625 38.41015625 C-74.15929687 38.39210937 -73.34203125 38.3740625 -72.5 38.35546875 C-71.87351562 38.33226562 -71.24703125 38.3090625 -70.6015625 38.28515625 C-69.9415625 39.93515625 -69.2815625 41.58515625 -68.6015625 43.28515625 C-67.9415625 43.28515625 -67.2815625 43.28515625 -66.6015625 43.28515625 C-66.3334375 42.35703125 -66.0653125 41.42890625 -65.7890625 40.47265625 C-64.0900969 35.91227489 -64.0900969 35.91227489 -61.6015625 34.28515625 C-60.2815625 34.61515625 -58.9615625 34.94515625 -57.6015625 35.28515625 C-56.9415625 38.58515625 -56.2815625 41.88515625 -55.6015625 45.28515625 C-53.6215625 45.94515625 -51.6415625 46.60515625 -49.6015625 47.28515625 C-49.6015625 45.30515625 -49.6015625 43.32515625 -49.6015625 41.28515625 C-45.75049979 39.35962489 -40.50286837 40.69752613 -36.25390625 41.05664062 C-35.46371094 41.11271484 -34.67351562 41.16878906 -33.859375 41.2265625 C-33.1389502 41.28529541 -32.41852539 41.34402832 -31.67626953 41.40454102 C-29.17376724 41.26053965 -27.71395887 40.61725011 -25.6015625 39.28515625 C-25.0446875 38.46015625 -24.4878125 37.63515625 -23.9140625 36.78515625 C-21.32626847 33.98754108 -20.63221974 33.91163077 -17.0390625 33.34765625 C-14.68935609 33.01754393 -14.68935609 33.01754393 -12.6015625 32.28515625 C-10.45490533 29.33281178 -10.45490533 29.33281178 -9.6015625 26.28515625 C-8.1165625 26.78015625 -8.1165625 26.78015625 -6.6015625 27.28515625 C-6.37893947 34.01331895 -6.65134714 39.82506788 -8.6015625 46.28515625 C-7.9415625 46.28515625 -7.2815625 46.28515625 -6.6015625 46.28515625 C-6.6634375 45.54265625 -6.7253125 44.80015625 -6.7890625 44.03515625 C-6.6015625 41.28515625 -6.6015625 41.28515625 -5.15625 39.48828125 C-3.21413641 36.73614038 -2.9669964 34.6089147 -2.5390625 31.28515625 C-2.03733645 27.4624816 -1.36987062 24.68469435 0.3984375 21.28515625 C0.80419713 19.63029344 1.15681265 17.96167642 1.4609375 16.28515625 C2.02235823 13.24142074 2.64629286 10.29373482 3.3984375 7.28515625 C-2.5415625 5.80015625 -2.5415625 5.80015625 -8.6015625 4.28515625 C-8.6015625 3.29515625 -8.6015625 2.30515625 -8.6015625 1.28515625 C-5.11708567 -1.0378283 -3.96348545 -0.64093538 0 0 Z " fill="#BF2414" transform="translate(104.6015625,62.71484375)"/>
<path d="M0 0 C0.98935547 0.04898437 1.97871094 0.09796875 2.99804688 0.1484375 C8.7145749 0.48224936 13.93531482 1.29173149 19.4375 2.875 C15.88472272 4.01557149 12.76767472 3.8662331 9.0625 3.6484375 C7.83015625 3.5865625 6.5978125 3.5246875 5.328125 3.4609375 C2.73394098 3.32028897 0.14016775 3.17184745 -2.453125 3.015625 C-4.30164063 2.92667969 -4.30164063 2.92667969 -6.1875 2.8359375 C-7.87746094 2.73998291 -7.87746094 2.73998291 -9.6015625 2.64208984 C-12.93805593 2.90454159 -14.21808843 3.53163567 -16.5625 5.875 C-17.2546369 8.13800895 -17.2546369 8.13800895 -17.3125 10.5625 C-17.39757812 11.77486328 -17.39757812 11.77486328 -17.484375 13.01171875 C-17.51015625 13.62660156 -17.5359375 14.24148437 -17.5625 14.875 C-15.9125 14.875 -14.2625 14.875 -12.5625 14.875 C-11.5725 12.895 -10.5825 10.915 -9.5625 8.875 C-3.90855369 8.52884002 -0.53243194 9.44074762 4.4375 11.875 C4.1075 13.525 3.7775 15.175 3.4375 16.875 C0.39614664 17.88878445 -1.67759013 18.00401562 -4.859375 18.0078125 C-5.9009375 18.00910156 -6.9425 18.01039062 -8.015625 18.01171875 C-9.10359375 18.00785156 -10.1915625 18.00398438 -11.3125 18 C-12.385 18.00386719 -13.4575 18.00773437 -14.5625 18.01171875 C-23.38362855 18.00085529 -23.38362855 18.00085529 -27.58984375 17.27734375 C-30.57149738 16.87378222 -31.7710371 16.9403884 -34.375 18.3125 C-37.5625 19.875 -37.5625 19.875 -39.5625 19.875 C-39.5625 19.215 -39.5625 18.555 -39.5625 17.875 C-43.50724912 16.92826021 -45.76905367 16.50359959 -49.5 18.25 C-53.04035833 20.94560795 -55.80979479 24.43899892 -58.6328125 27.8515625 C-60.55179927 29.8637794 -62.10894027 30.66892528 -64.5625 31.875 C-65.57941264 33.86645391 -66.57892648 35.86687074 -67.5625 37.875 C-68.26375 38.32875 -68.965 38.7825 -69.6875 39.25 C-71.98462983 41.24084585 -71.95130763 42.11620227 -72.3125 45.0625 C-72.395 46.320625 -72.4775 47.57875 -72.5625 48.875 C-75.2025 49.205 -77.8425 49.535 -80.5625 49.875 C-82.60454204 44.58971471 -82.60454204 44.58971471 -82.4375 41.75 C-81.27163678 39.25172167 -79.59271891 37.70874612 -77.5625 35.875 C-78.2225 35.875 -78.8825 35.875 -79.5625 35.875 C-83.66665132 40.70341331 -83.97983821 43.82359592 -83.5625 49.875 C-87.1925 49.545 -90.8225 49.215 -94.5625 48.875 C-94.2325 48.215 -93.9025 47.555 -93.5625 46.875 C-90.5 46.25 -90.5 46.25 -87.5625 45.875 C-87.30855469 44.98554687 -87.05460937 44.09609375 -86.79296875 43.1796875 C-85.53842169 39.81033254 -84.16458417 37.74390244 -81.875 35 C-81.15828125 34.14019531 -80.4415625 33.28039063 -79.703125 32.39453125 C-78.99671875 31.56308594 -78.2903125 30.73164062 -77.5625 29.875 C-76.97984375 29.15699219 -76.3971875 28.43898438 -75.796875 27.69921875 C-72.1184009 23.27301744 -68.21176157 19.89505579 -63.48046875 16.61328125 C-61.17915611 14.5275702 -60.52875191 12.8008469 -59.5625 9.875 C-58.46290398 6.66318564 -57.46003762 4.75391329 -54.5625 2.875 C-46.14033651 1.75090942 -38.69194408 2.49256722 -30.5625 4.875 C-28.04332731 5.05425269 -28.04332731 5.05425269 -25.6875 4.75 C-24.54667969 4.65332031 -24.54667969 4.65332031 -23.3828125 4.5546875 C-20.73139288 3.91570272 -18.87558361 3.04042419 -16.46484375 1.8125 C-10.92168611 -0.73500839 -5.98259228 -0.43822782 0 0 Z " fill="#AC2012" transform="translate(100.5625,17.125)"/>
<path d="M0 0 C0.99 0 1.98 0 3 0 C5.4687113 3.84549261 7.37435051 7.13352002 6.4453125 11.765625 C5.37883914 14.55246779 4.20686065 17.27144548 3 20 C1.35213703 24.90133601 0.72373938 28.8949575 2 34 C4.04787429 31.08060468 4.04787429 31.08060468 5.4375 28 C8.21812571 22.66119864 8.21812571 22.66119864 11.86328125 21.30859375 C15.84107236 20.15234368 15.84107236 20.15234368 18 20 C18.99 20.66 19.98 21.32 21 22 C21.19335938 21.36191406 21.38671875 20.72382812 21.5859375 20.06640625 C21.97652344 18.82697266 21.97652344 18.82697266 22.375 17.5625 C22.75785156 16.32693359 22.75785156 16.32693359 23.1484375 15.06640625 C24 13 24 13 26 12 C25.86722656 12.55945313 25.73445313 13.11890625 25.59765625 13.6953125 C24.19624856 20.05790799 23.60286132 26.29887428 23.24609375 32.80078125 C23.02930441 35.61904267 22.62480936 38.24774059 22 41 C19.8750734 41.16759984 17.75005624 41.33405201 15.625 41.5 C14.44164062 41.5928125 13.25828125 41.685625 12.0390625 41.78125 C10.36213157 41.90195454 8.68126944 42 7 42 C5.68 44.97 4.36 47.94 3 51 C0.29567328 48.29567328 0.43216653 46.25780287 -0.0625 42.5 C-0.54504561 38.10241884 -0.54504561 38.10241884 -2 34 C-2.99 34 -3.98 34 -5 34 C-5.185625 35.36125 -5.185625 35.36125 -5.375 36.75 C-5.93015248 39.63679292 -6.31993358 41.6125372 -8 44 C-9.875 45 -9.875 45 -12 45 C-14.3125 43.375 -14.3125 43.375 -16 41 C-15.75 38.25 -15.75 38.25 -15 36 C-15.99 36 -16.98 36 -18 36 C-17.814375 36.94875 -17.62875 37.8975 -17.4375 38.875 C-17 42 -17 42 -18 44 C-18.66 44 -19.32 44 -20 44 C-20 44.66 -20 45.32 -20 46 C-24.89641553 46.16321385 -27.63773718 46.18113141 -32 44 C-34.23470405 44.78309467 -34.23470405 44.78309467 -36 46 C-36.495 43.525 -36.495 43.525 -37 41 C-34 40 -34 40 -31.9375 40.5625 C-31.298125 40.706875 -30.65875 40.85125 -30 41 C-27.8614515 38.8614515 -27.57344937 37.86724686 -27 35 C-30.70175871 34.9244539 -34.14312381 35.02111663 -37.8125 35.5625 C-41 36 -41 36 -43 35 C-42.67 34.01 -42.34 33.02 -42 32 C-42 32.66 -42 33.32 -42 34 C-41.01 34 -40.02 34 -39 34 C-38.87882812 33.28972656 -38.75765625 32.57945313 -38.6328125 31.84765625 C-38.46523438 30.92855469 -38.29765625 30.00945312 -38.125 29.0625 C-37.96257813 28.14597656 -37.80015625 27.22945312 -37.6328125 26.28515625 C-37.42398438 25.53105469 -37.21515625 24.77695313 -37 24 C-34.17116253 22.58558126 -32.12623255 22.68099668 -29 23 C-25.71485442 25.93316569 -25.04109274 29.83562902 -24 34 C-23.01 34 -22.02 34 -21 34 C-18.79857668 31.5609294 -18.79857668 31.5609294 -17 29 C-14.61435923 29.57584432 -12.33317216 30.22227595 -10 31 C-9.35996933 26.31700329 -8.85469923 21.73034735 -9 17 C-11.16799208 13.82718148 -11.16799208 13.82718148 -14 12 C-14.875 9.75 -14.875 9.75 -15 8 C-14.67 7.67 -14.34 7.34 -14 7 C-8.70602769 7.30542148 -5.86602713 8.36827755 -2 12 C0.48772258 8.7162062 1.03180444 7.38801417 0.6875 3.1875 C0.460625 2.135625 0.23375 1.08375 0 0 Z " fill="#E6431E" transform="translate(48,53)"/>
<path d="M0 0 C0.33 0 0.66 0 1 0 C1.33 2.64 1.66 5.28 2 8 C2.98742187 7.91621094 3.97484375 7.83242187 4.9921875 7.74609375 C6.27351562 7.64425781 7.55484375 7.54242188 8.875 7.4375 C10.78925781 7.28087891 10.78925781 7.28087891 12.7421875 7.12109375 C16 7 16 7 18 8 C17.75 10.375 17.75 10.375 17 13 C15.1875 14.375 15.1875 14.375 13 15 C10.75 14.625 10.75 14.625 9 14 C9 15.65 9 17.3 9 19 C10.32 18.01 11.64 17.02 13 16 C16.875 17.75 16.875 17.75 18 20 C17.34 20.33 16.68 20.66 16 21 C17.38182567 25.03032488 19.08808039 27.88114194 22 31 C28.74124557 34.23074419 34.84029029 35.38077417 42.13671875 34.046875 C44 34 44 34 46.8125 36.1875 C47.534375 37.115625 48.25625 38.04375 49 39 C49.763125 39.763125 50.52625 40.52625 51.3125 41.3125 C51.869375 41.869375 52.42625 42.42625 53 43 C50.77647536 46.09835401 49.39754349 47.74260819 45.57333374 48.44692993 C42.48998439 48.57877678 39.440846 48.56134581 36.35546875 48.48828125 C34.66808342 48.47766914 34.66808342 48.47766914 32.9466095 48.46684265 C29.35955851 48.43889144 25.77407788 48.37614717 22.1875 48.3125 C19.75327778 48.28741827 17.31903105 48.26460489 14.88476562 48.24414062 C8.92257356 48.18906162 2.96155287 48.10277994 -3 48 C-3 43.05 -3 38.1 -3 33 C4.03535095 34.89413295 11.03277358 36.86902619 18 39 C16.69841744 35.09525233 14.91016149 34.26649727 11.5625 31.9375 C3.91333979 26.58209057 3.91333979 26.58209057 2.9296875 21.640625 C2.75566406 20.77179688 2.58164063 19.90296875 2.40234375 19.0078125 C2.22832031 18.09773438 2.05429688 17.18765625 1.875 16.25 C1.69324219 15.35539062 1.51148438 14.46078125 1.32421875 13.5390625 C0.426285 8.96162577 -0.23293258 4.68970936 0 0 Z " fill="#BE2414" transform="translate(3,80)"/>
<path d="M0 0 C3.69579051 0.4394018 7.36442893 0.25430697 11.078125 0.125 C13.3984375 0.28515625 13.3984375 0.28515625 15.3984375 2.28515625 C15.65722656 4.15087891 15.65722656 4.15087891 15.6640625 6.44921875 C15.66809082 7.31297119 15.67211914 8.17672363 15.67626953 9.06665039 C15.66708496 10.00500732 15.65790039 10.94336426 15.6484375 11.91015625 C15.64312012 12.87622803 15.63780273 13.8422998 15.63232422 14.83764648 C15.53700261 22.362624 15.12000921 29.8467459 14.5234375 37.34765625 C14.44512695 38.36359863 14.36681641 39.37954102 14.28613281 40.42626953 C14.20202148 41.38130371 14.11791016 42.33633789 14.03125 43.3203125 C13.95793457 44.15957275 13.88461914 44.99883301 13.80908203 45.86352539 C13.21967049 49.33937148 12.10828976 52.27108159 10.0859375 55.16015625 C8.3984375 56.28515625 8.3984375 56.28515625 5.8359375 56.09765625 C3.3984375 55.28515625 3.3984375 55.28515625 1.3984375 53.28515625 C-2.50244604 52.94594899 -5.32213741 53.05983208 -8.6015625 55.28515625 C-9.2615625 56.27515625 -9.9215625 57.26515625 -10.6015625 58.28515625 C-11.9215625 57.95515625 -13.2415625 57.62515625 -14.6015625 57.28515625 C-14.2715625 55.63515625 -13.9415625 53.98515625 -13.6015625 52.28515625 C-12.6425 52.13046875 -12.6425 52.13046875 -11.6640625 51.97265625 C-10.643125 51.63234375 -10.643125 51.63234375 -9.6015625 51.28515625 C-9.2715625 50.29515625 -8.9415625 49.30515625 -8.6015625 48.28515625 C-7.7971875 47.50140625 -6.9928125 46.71765625 -6.1640625 45.91015625 C-2.78183111 42.44543141 -1.66664706 39.94684634 -1.4765625 35.09375 C-1.5178125 33.98128906 -1.5590625 32.86882812 -1.6015625 31.72265625 C-1.75844834 27.48183599 -1.66049368 24.97313187 0.3984375 21.28515625 C0.80419713 19.63029344 1.15681265 17.96167642 1.4609375 16.28515625 C2.02235823 13.24142074 2.64629286 10.29373482 3.3984375 7.28515625 C-2.5415625 5.80015625 -2.5415625 5.80015625 -8.6015625 4.28515625 C-8.6015625 3.29515625 -8.6015625 2.30515625 -8.6015625 1.28515625 C-5.11708567 -1.0378283 -3.96348545 -0.64093538 0 0 Z " fill="#BF2414" transform="translate(104.6015625,62.71484375)"/>
<path d="M0 0 C0 35.31 0 70.62 0 107 C-10.23 107 -20.46 107 -31 107 C-29.875 98 -29.875 98 -27 95 C-24.02286831 95.41349051 -22.33041425 95.72121297 -20 97.6875 C-18.04735811 99.2968897 -18.04735811 99.2968897 -15.5625 98.5625 C-12.27848572 96.56005227 -9.91280279 94.3203947 -8 91 C-7.3091504 87.91279991 -7.30487282 84.90460161 -7.3125 81.75 C-7.27315191 79.96863446 -7.22876979 78.18737391 -7.1796875 76.40625 C-7.15745117 75.50777344 -7.13521484 74.60929687 -7.11230469 73.68359375 C-6.90745451 68.78856522 -6.28429617 63.94520606 -5.65942383 59.08886719 C-4.88423265 52.8372779 -4.42180231 46.96479118 -5.98046875 40.81640625 C-7.41769872 34.8908507 -7.32982959 29.00632319 -7.3125 22.9375 C-7.32861328 21.80505859 -7.34472656 20.67261719 -7.36132812 19.50585938 C-7.36513231 12.97406667 -6.95482742 7.87505499 -4 2 C-1 0 -1 0 0 0 Z " fill="#F7F5F3" transform="translate(128,21)"/>
<path d="M0 0 C0.25 2.3125 0.25 2.3125 0 5 C-0.61875 5.45375 -1.2375 5.9075 -1.875 6.375 C-4.91846139 8.70235283 -5.38785131 11.36483775 -6 15 C-6.28340127 19.29495722 -6.27917208 23.57211846 -6.25 27.875 C-6.25773437 29.00808594 -6.26546875 30.14117187 -6.2734375 31.30859375 C-6.26003551 37.0915544 -5.84900041 42.22756049 -4.41845703 47.81933594 C-3.62848696 51.93602945 -4.01981658 56.03013658 -4.3125 60.1875 C-4.38500977 61.48204102 -4.38500977 61.48204102 -4.45898438 62.80273438 C-4.66734616 66.24993501 -4.92747323 69.59395598 -5.53515625 72.99609375 C-5.94422055 75.6395429 -6.06006678 78.0144869 -6.0703125 80.6796875 C-6.17368172 96.36034947 -6.17368172 96.36034947 -10.3125 101.1875 C-12.69848948 103.39751629 -14.73289368 104.6487695 -18 105 C-19.7074998 103.71937515 -21.37373596 102.38232443 -23 101 C-25.18214568 100.22166466 -25.18214568 100.22166466 -27 100 C-29.21399303 103.79541663 -30.00980198 107.75629421 -31 112 C-33.31 112 -35.62 112 -38 112 C-36.46656353 108.54976794 -34.44101212 105.87177896 -32 103 C-31.38125 102.236875 -30.7625 101.47375 -30.125 100.6875 C-28 99 -28 99 -24.9375 98.5625 C-21.60133797 99.0593752 -21.25973738 99.74026262 -19 102 C-15.65807308 101.75546876 -14.39456443 101.39456443 -12 99 C-11.54765979 96.52247651 -11.20357953 94.1231592 -10.9375 91.625 C-10.85516113 90.89748535 -10.77282227 90.1699707 -10.68798828 89.42041016 C-10.52454315 87.95069861 -10.36563418 86.48047501 -10.21142578 85.00976562 C-10.03725535 83.35414094 -9.84698336 81.70021824 -9.65234375 80.046875 C-8.9487087 73.26819367 -8.89845101 66.49610861 -8.875 59.6875 C-8.87032715 58.74374512 -8.8656543 57.79999023 -8.86083984 56.82763672 C-8.86293457 55.91900879 -8.8650293 55.01038086 -8.8671875 54.07421875 C-8.86887939 52.86125122 -8.86887939 52.86125122 -8.87060547 51.6237793 C-8.96426387 48.8718116 -8.96426387 48.8718116 -9.48852539 45.66308594 C-10.02003491 41.85651373 -10.20842176 38.15756868 -10.31640625 34.31640625 C-10.33718735 33.61603745 -10.35796844 32.91566864 -10.37937927 32.19407654 C-10.44412465 29.98363894 -10.50340608 27.77309515 -10.5625 25.5625 C-10.60575681 24.05272393 -10.64937323 22.54295812 -10.69335938 21.03320312 C-10.79972748 17.35557804 -10.90120002 13.67783709 -11 10 C-13.04159095 9.9727384 -15.08328963 9.95348655 -17.125 9.9375 C-18.83042969 9.92009766 -18.83042969 9.92009766 -20.5703125 9.90234375 C-23.81854173 9.99483319 -26.80695416 10.43234741 -30 11 C-32.33302989 11.03762951 -34.66713319 11.04665734 -37 11 C-37.99 12.98 -38.98 14.96 -40 17 C-41.65 17 -43.3 17 -45 17 C-46.2611726 12.71201317 -45.85335785 10.05973624 -44 6 C-41.52774678 3.44781762 -40.28167908 3.01575842 -36.68774414 2.81469727 C-35.39989014 2.89776123 -34.11203613 2.9808252 -32.78515625 3.06640625 C-31.36264091 3.14018055 -29.9401145 3.21374168 -28.51757812 3.28710938 C-26.28768956 3.42145777 -24.05843898 3.56276772 -21.8293457 3.7097168 C-19.66938144 3.84642944 -17.5091716 3.95744166 -15.34765625 4.06640625 C-14.05867432 4.14834229 -12.76969238 4.23027832 -11.44165039 4.31469727 C-6.47442918 3.86050502 -4.76699222 0 0 0 Z " fill="#D32D17" transform="translate(128,16)"/>
<path d="M0 0 C3.31840485 0.98655279 4.42965742 2.86323613 6.3125 5.6875 C6.6425 6.3475 6.9725 7.0075 7.3125 7.6875 C9.18214831 8.10582195 9.18214831 8.10582195 11.42578125 8.21484375 C12.26173828 8.28509766 13.09769531 8.35535156 13.95898438 8.42773438 C15.72438831 8.55836133 17.49001558 8.68600704 19.25585938 8.81054688 C27.19944573 9.48724533 27.19944573 9.48724533 30.3125 12.6875 C29.61632117 17.84394321 26.0212301 20.47719915 22.28515625 23.76171875 C17.43411297 26.90437885 12.92217797 26.6875 7.3125 26.6875 C5.06355353 27.13090618 5.06355353 27.13090618 3.3125 27.6875 C2.796875 26.49125 2.28125 25.295 1.75 24.0625 C-1.21575319 18.10988505 -5.73051565 14.48310231 -11.6875 11.6875 C-10.16255485 5.92659608 -5.77722509 1.47789479 0 0 Z " fill="#EE9831" transform="translate(54.6875,35.3125)"/>
<path d="M0 0 C2.91517292 1.07401108 4.77810176 1.77810176 7 4 C8.98356483 4.71408334 10.98315437 5.38617742 13 6 C13 7.32 13 8.64 13 10 C14.98 10 16.96 10 19 10 C19.38091797 9.15115234 19.38091797 9.15115234 19.76953125 8.28515625 C20.11371094 7.55167969 20.45789063 6.81820312 20.8125 6.0625 C21.31716797 4.96615234 21.31716797 4.96615234 21.83203125 3.84765625 C23 2 23 2 26 1 C26.66 4.3 27.32 7.6 28 11 C32.03426569 12.67274431 34.5975133 12.96801625 38.85717773 12.27319336 C43.2998456 11.70678737 47.77766016 11.77360074 52.25 11.75 C53.24257812 11.729375 54.23515625 11.70875 55.2578125 11.6875 C56.68480469 11.67976563 56.68480469 11.67976563 58.140625 11.671875 C59.43274902 11.65785645 59.43274902 11.65785645 60.75097656 11.64355469 C63.44709752 12.07086001 64.3118632 12.91222265 66 15 C65.34773438 15.37511719 64.69546875 15.75023438 64.0234375 16.13671875 C58.12017191 19.56647062 58.12017191 19.56647062 52.75 23.75 C46.43988149 28.91282424 39.78258588 28.22667726 32 28 C33.32 26.35 34.64 24.7 36 23 C34.19823976 21.10341027 32.39827714 19.53821269 30.3125 17.9375 C29.549375 17.298125 28.78625 16.65875 28 16 C28 15.34 28 14.68 28 14 C26.783125 14.4125 25.56625 14.825 24.3125 15.25 C17.7231133 16.67613899 11.92749129 15.00934173 6 12 C3.03890319 9.3445648 0.67089077 6.62917475 -1 3 C-0.67 2.01 -0.34 1.02 0 0 Z " fill="#991D10" transform="translate(19,100)"/>
<path d="M0 0 C1.2375 0.28875 2.475 0.5775 3.75 0.875 C6.14156225 1.11106035 8.53415242 1.30526299 10.9296875 1.49609375 C11.53039063 1.62113281 12.13109375 1.74617188 12.75 1.875 C13.245 2.865 13.245 2.865 13.75 3.875 C8.8 3.875 3.85 3.875 -1.25 3.875 C-1.25 4.535 -1.25 5.195 -1.25 5.875 C-1.91 5.875 -2.57 5.875 -3.25 5.875 C-3.270625 6.761875 -3.29125 7.64875 -3.3125 8.5625 C-4.49626448 12.74513449 -6.06553868 13.4138031 -9.59375 15.640625 C-11.87261692 17.33902581 -12.55400244 19.16834283 -13.25 21.875 C-11.93 22.205 -10.61 22.535 -9.25 22.875 C-10.178125 23.41125 -11.10625 23.9475 -12.0625 24.5 C-15.54972469 27.09832428 -16.44224744 29.01298316 -18.25 32.875 C-18.95125 33.32875 -19.6525 33.7825 -20.375 34.25 C-22.67212983 36.24084585 -22.63880763 37.11620227 -23 40.0625 C-23.0825 41.320625 -23.165 42.57875 -23.25 43.875 C-25.89 44.205 -28.53 44.535 -31.25 44.875 C-33.29204204 39.58971471 -33.29204204 39.58971471 -33.125 36.75 C-31.95913678 34.25172167 -30.28021891 32.70874612 -28.25 30.875 C-28.91 30.875 -29.57 30.875 -30.25 30.875 C-34.35415132 35.70341331 -34.66733821 38.82359592 -34.25 44.875 C-37.88 44.545 -41.51 44.215 -45.25 43.875 C-44.92 43.215 -44.59 42.555 -44.25 41.875 C-41.1875 41.25 -41.1875 41.25 -38.25 40.875 C-37.99605469 39.98554687 -37.74210937 39.09609375 -37.48046875 38.1796875 C-36.22592169 34.81033254 -34.85208417 32.74390244 -32.5625 30 C-31.48742187 28.71029297 -31.48742187 28.71029297 -30.390625 27.39453125 C-29.68421875 26.56308594 -28.9778125 25.73164062 -28.25 24.875 C-27.66734375 24.15699219 -27.0846875 23.43898438 -26.484375 22.69921875 C-22.81362196 18.28230796 -18.85042786 14.89473551 -14.25390625 11.46484375 C-11.82231106 9.53568343 -10.08658858 7.36751307 -8.25 4.875 C-4.19890511 -0.16149635 -4.19890511 -0.16149635 0 0 Z " fill="#DB3319" transform="translate(51.25,22.125)"/>
<path d="M0 0 C0 0.99 0 1.98 0 3 C-6.29464286 7.41964286 -6.29464286 7.41964286 -11.03515625 6.671875 C-16.51571953 5.91843079 -21.9782792 5.51038643 -27.5 5.1875 C-28.97146484 5.07245117 -28.97146484 5.07245117 -30.47265625 4.95507812 C-36.5500729 4.61924219 -40.65091462 5.27820059 -46.07910156 8.04516602 C-48.42468676 9.21110192 -50.52198801 9.65440576 -53.125 9.875 C-53.89070313 9.95492188 -54.65640625 10.03484375 -55.4453125 10.1171875 C-58 10 -58 10 -61.265625 9.04296875 C-68.07849397 7.14021141 -75.00750756 7.06672497 -82 8 C-85.66268196 10.37507245 -86.51392524 13.43209732 -87.76171875 17.45703125 C-89.3776491 20.77555067 -91.45021587 22.27308661 -94.375 24.5 C-98.17104139 27.40586457 -101.12551003 30.18111908 -104 34 C-104.67160156 34.81339844 -105.34320313 35.62679687 -106.03515625 36.46484375 C-110.32143909 41.66201435 -110.32143909 41.66201435 -113.625 47.5 C-115.48621348 50.88402452 -117.42926014 50.86040217 -121 52 C-126.82524447 62.92485295 -124.3121229 79.56675711 -120.86914062 90.92480469 C-118.7639762 95.95118043 -114.63933012 98.53705012 -110 101 C-107 103 -107 103 -106 107 C-108.64 106.34 -111.28 105.68 -114 105 C-113.01 104.01 -113.01 104.01 -112 103 C-113.13888672 102.23429687 -113.13888672 102.23429687 -114.30078125 101.453125 C-120.79276745 96.70412342 -124.28350873 93.26097105 -125.6484375 85.234375 C-125.76445313 84.16703125 -125.88046875 83.0996875 -126 82 C-126.20496094 80.30617187 -126.20496094 80.30617187 -126.4140625 78.578125 C-126.75190263 75.04258872 -126.92136375 71.55042658 -127 68 C-127.02578125 66.84628906 -127.0515625 65.69257812 -127.078125 64.50390625 C-126.92060637 57.69122548 -126.01544155 53.69733096 -121.09765625 48.890625 C-120.40542969 48.26671875 -119.71320313 47.6428125 -119 47 C-117.4724372 45.50685369 -115.95179107 44.00660432 -114.4375 42.5 C-113.67824219 41.75234375 -112.91898438 41.0046875 -112.13671875 40.234375 C-109.59243273 37.57380535 -107.46297686 34.74078528 -105.31640625 31.7578125 C-103.44365696 29.2571087 -101.23366577 27.18172005 -99 25 C-91.5558456 17.64823756 -91.5558456 17.64823756 -86.1875 8.875 C-84.34371657 5.963763 -82.30364744 5.81942321 -79 5 C-76.02140488 4.88359595 -73.09470724 5.08196346 -70.125 5.3125 C-69.36058594 5.36083984 -68.59617188 5.40917969 -67.80859375 5.45898438 C-64.0931427 5.70815299 -60.44019166 6.07151622 -56.7578125 6.625 C-53.17668737 6.982368 -51.10609717 6.82965565 -47.75 5.6875 C-46.94046875 5.42324219 -46.1309375 5.15898437 -45.296875 4.88671875 C-43.03780577 4.10060024 -43.03780577 4.10060024 -41.32324219 2.93652344 C-38.0458194 1.61535973 -34.98784057 1.92006004 -31.53125 2.12890625 C-30.05860401 2.19489083 -28.5859474 2.26063883 -27.11328125 2.32617188 C-24.80225604 2.44199363 -22.49163139 2.56295729 -20.18115234 2.68920898 C-17.94410183 2.80751225 -15.70679809 2.90661142 -13.46875 3.00390625 C-12.43578796 3.06935387 -12.43578796 3.06935387 -11.38195801 3.13612366 C-6.4878744 3.33796312 -4.06169335 0 0 0 Z " fill="#49110D" transform="translate(128,13)"/>
<path d="M0 0 C0.33 0 0.66 0 1 0 C1.26711287 9.25991265 0.86043751 18.39225884 0.125 27.625 C0.04652832 28.66785156 -0.03194336 29.71070313 -0.11279297 30.78515625 C-0.19674316 31.77644531 -0.28069336 32.76773438 -0.3671875 33.7890625 C-0.47716064 35.11478271 -0.47716064 35.11478271 -0.58935547 36.46728516 C-1.16203193 39.99935745 -2.25966593 42.94237989 -4.3125 45.875 C-6 47 -6 47 -8.5625 46.8125 C-11 46 -11 46 -13 44 C-14.98821313 43.60235737 -16.98944339 43.26224651 -19 43 C-18.34 42.34 -17.68 41.68 -17 41 C-15.68 41 -14.36 41 -13 41 C-12.86335938 40.14535156 -12.72671875 39.29070312 -12.5859375 38.41015625 C-11.797846 33.82346374 -10.81278818 29.29067228 -9.8125 24.74609375 C-9.28345691 22.3068999 -8.7819657 19.86151407 -8.3125 17.41015625 C-6.9913293 10.85684932 -5.82261188 6.69570104 -1 2 C-0.67 1.34 -0.34 0.68 0 0 Z " fill="#D8331B" transform="translate(119,72)"/>
<path d="M0 0 C1.18851563 0.00902344 2.37703125 0.01804687 3.6015625 0.02734375 C4.51679687 0.03894531 5.43203125 0.05054687 6.375 0.0625 C7.40492723 4.36180476 7.58899703 8.58918984 7.69140625 12.98828125 C7.71218735 13.73587204 7.73296844 14.48346283 7.75437927 15.25370789 C7.81944189 17.62738396 7.8785571 20.00116487 7.9375 22.375 C7.98072646 23.99024495 8.02434204 25.60547953 8.06835938 27.22070312 C8.17507851 31.16786299 8.27646619 35.11512767 8.375 39.0625 C4.415 39.0625 0.455 39.0625 -3.625 39.0625 C-0.39708445 36.9105563 0.65900809 36.86163557 4.375 37.0625 C3.88 35.5775 3.88 35.5775 3.375 34.0625 C0.87052484 32.84380071 0.87052484 32.84380071 -1.625 32.0625 C-0.875 25.4375 -0.875 25.4375 1.375 22.0625 C1.83272063 19.32377045 1.83272063 19.32377045 2 16.375 C2.07476562 15.38113281 2.14953125 14.38726562 2.2265625 13.36328125 C2.27554688 12.60402344 2.32453125 11.84476563 2.375 11.0625 C1.055 11.0625 -0.265 11.0625 -1.625 11.0625 C-1.41875 12.155625 -1.2125 13.24875 -1 14.375 C-0.625 18.0625 -0.625 18.0625 -2.625 21.0625 C-3.615 20.7325 -4.605 20.4025 -5.625 20.0625 C-5.728125 18.969375 -5.83125 17.87625 -5.9375 16.75 C-6.59807727 13.20690371 -6.8277092 12.13006277 -9.625 10.0625 C-8.635 9.4025 -7.645 8.7425 -6.625 8.0625 C-6.625 6.7425 -6.625 5.4225 -6.625 4.0625 C-7.285 3.7325 -7.945 3.4025 -8.625 3.0625 C-8.625 2.4025 -8.625 1.7425 -8.625 1.0625 C-5.74084117 -0.37957941 -3.20778472 -0.03144887 0 0 Z " fill="#D93019" transform="translate(110.625,24.9375)"/>
<path d="M0 0 C5.65394631 -0.34615998 9.03006806 0.56574762 14 3 C13.67 4.65 13.34 6.3 13 8 C9.95864664 9.01378445 7.88490987 9.12901562 4.703125 9.1328125 C3.6615625 9.13410156 2.62 9.13539062 1.546875 9.13671875 C0.45890625 9.13285156 -0.6290625 9.12898438 -1.75 9.125 C-2.8225 9.12886719 -3.895 9.13273437 -5 9.13671875 C-13.82112855 9.12585529 -13.82112855 9.12585529 -18.02734375 8.40234375 C-21.00899738 7.99878222 -22.2085371 8.0653884 -24.8125 9.4375 C-28 11 -28 11 -30 11 C-30 10.34 -30 9.68 -30 9 C-34.04141194 8.36605303 -37.9065307 7.87595548 -42 8 C-41.125 3.125 -41.125 3.125 -40 2 C-36.65187522 1.87122597 -33.59877492 1.87467502 -30.3125 2.5625 C-28.09057802 3.15913734 -28.09057802 3.15913734 -26.30859375 2.53125 C-23.0987812 1.79261293 -20.03858815 1.90705011 -16.75 1.9375 C-14.85507813 1.95103516 -14.85507813 1.95103516 -12.921875 1.96484375 C-11.95765625 1.97644531 -10.9934375 1.98804687 -10 2 C-9.34 3.32 -8.68 4.64 -8 6 C-6.35 6 -4.7 6 -3 6 C-2.01 4.02 -1.02 2.04 0 0 Z " fill="#961C0F" transform="translate(91,26)"/>
<path d="M0 0 C-1 3 -1 3 -4 5 C-6.66457715 11.41274901 -6.29643792 18.02540628 -6.25 24.875 C-6.25773437 26.00808594 -6.26546875 27.14117187 -6.2734375 28.30859375 C-6.26003551 34.0915544 -5.84900041 39.22756049 -4.41845703 44.81933594 C-3.62848696 48.93602945 -4.01981658 53.03013658 -4.3125 57.1875 C-4.38500977 58.48204102 -4.38500977 58.48204102 -4.45898438 59.80273438 C-4.66734616 63.24993501 -4.92747323 66.59395598 -5.53515625 69.99609375 C-5.94422055 72.6395429 -6.06006678 75.0144869 -6.0703125 77.6796875 C-6.17368172 93.36034947 -6.17368172 93.36034947 -10.3125 98.1875 C-12.69848948 100.39751629 -14.73289368 101.6487695 -18 102 C-19.7074998 100.71937515 -21.37373596 99.38232443 -23 98 C-25.18214568 97.22166466 -25.18214568 97.22166466 -27 97 C-29.21399303 100.79541663 -30.00980198 104.75629421 -31 109 C-33.31 109 -35.62 109 -38 109 C-36.46656353 105.54976794 -34.44101212 102.87177896 -32 100 C-31.071875 98.8553125 -31.071875 98.8553125 -30.125 97.6875 C-28 96 -28 96 -24.9375 95.5625 C-21.60133797 96.0593752 -21.25973738 96.74026262 -19 99 C-15.59873293 99 -14.33204626 98.32682176 -11.90527344 95.93823242 C-9.55839813 92.3189802 -9.21139027 89.18173776 -8.953125 84.98828125 C-8.86173248 83.83588203 -8.86173248 83.83588203 -8.76849365 82.66020203 C-8.57892969 80.21189499 -8.41457871 77.76259924 -8.25 75.3125 C-8.1252518 73.68542699 -7.99896404 72.05847125 -7.87109375 70.43164062 C-6.45486138 56.48117892 -6.45486138 56.48117892 -7.984375 42.6875 C-9.44086312 36.8306679 -9.29131056 31.00380105 -9.25 25 C-9.25773437 23.8759375 -9.26546875 22.751875 -9.2734375 21.59375 C-9.25825781 15.09684184 -8.86562176 9.24216596 -7 3 C-4.53299655 0.96472215 -3.20000682 0 0 0 Z " fill="#D8877C" transform="translate(128,19)"/>
<path d="M0 0 C7.10511925 0.3690971 12.81503071 1.39737631 19.41796875 4.0234375 C21.77963431 4.91665443 24.03668739 5.53110898 26.5 6.0625 C29.7254049 6.92644774 31.1240588 7.30333452 33 10 C33 10.33 33 10.66 33 11 C22.11 11 11.22 11 0 11 C0 7.37 0 3.74 0 0 Z " fill="#F8F6F4" transform="translate(0,117)"/>
<path d="M0 0 C-0.41029334 2.46176006 -0.7914427 4.59753612 -1.9453125 6.82421875 C-4.88856455 12.89603872 -5.88260074 20.07622102 -7 26.6875 C-8.89240546 37.37493739 -8.89240546 37.37493739 -11 41 C-13.1015625 41.7421875 -13.1015625 41.7421875 -15 42 C-15 42.66 -15 43.32 -15 44 C-15.61875 44.268125 -16.2375 44.53625 -16.875 44.8125 C-19.2995233 45.95556848 -19.2995233 45.95556848 -21 49 C-22.32 48.67 -23.64 48.34 -25 48 C-24.67 46.35 -24.34 44.7 -24 43 C-23.0409375 42.8453125 -23.0409375 42.8453125 -22.0625 42.6875 C-21.0415625 42.3471875 -21.0415625 42.3471875 -20 42 C-19.67 41.01 -19.34 40.02 -19 39 C-18.195625 38.21625 -17.39125 37.4325 -16.5625 36.625 C-11.62648784 31.5685973 -11.4295643 25.72713573 -10.5625 18.9609375 C-10 16 -10 16 -8 13 C-7.66925814 10.45454367 -7.55965821 7.93839723 -7.44140625 5.375 C-6.55233331 0.59131551 -4.70845825 0 0 0 Z " fill="#991D10" transform="translate(115,72)"/>
<path d="M0 0 C1.15918945 0.06900513 1.15918945 0.06900513 2.34179688 0.1394043 C3.18355469 0.18645508 4.0253125 0.23350586 4.89257812 0.28198242 C6.21322266 0.37189453 6.21322266 0.37189453 7.56054688 0.46362305 C8.44097656 0.51196289 9.32140625 0.56030273 10.22851562 0.61010742 C16.76989193 1.00579558 16.76989193 1.00579558 19.06054688 2.15112305 C18.73054688 3.80112305 18.40054688 5.45112305 18.06054688 7.15112305 C15.95645048 7.17813712 13.8522551 7.19752528 11.74804688 7.21362305 C10.57628906 7.22522461 9.40453125 7.23682617 8.19726562 7.2487793 C5.06054688 7.15112305 5.06054688 7.15112305 2.06054688 6.15112305 C2.18429688 7.97643555 2.18429688 7.97643555 2.31054688 9.83862305 C2.32586721 14.19725838 0.97534288 15.89340986 -1.93945312 19.15112305 C-3.19502199 22.33034092 -3.19502199 22.33034092 -3.93945312 25.15112305 C-5.25945312 25.15112305 -6.57945313 25.15112305 -7.93945312 25.15112305 C-7.82475175 23.40041788 -7.69726285 21.65054769 -7.56445312 19.90112305 C-7.49484375 18.9265918 -7.42523438 17.95206055 -7.35351562 16.94799805 C-6.94861403 14.21300234 -6.20220968 12.56726355 -4.93945312 10.15112305 C-4.56597218 8.09078125 -4.56597218 8.09078125 -4.43945312 6.02612305 C-3.69908034 0.28823398 -3.69908034 0.28823398 0 0 Z " fill="#E7441E" transform="translate(87.939453125,67.848876953125)"/>
<path d="M0 0 C0.99 0 1.98 0 3 0 C7.20826849 7.9817985 7.20826849 7.9817985 6.4375 11.75 C5.963125 12.4925 5.48875 13.235 5 14 C2.87283572 17.40346284 1.57126796 20.00112425 1 24 C0.34 24 -0.32 24 -1 24 C-1 24.99 -1 25.98 -1 27 C-1.99 27.33 -2.98 27.66 -4 28 C-4.66 27.67 -5.32 27.34 -6 27 C-5.95875 25.9275 -5.9175 24.855 -5.875 23.75 C-5.95861468 19.48155231 -5.95861468 19.48155231 -8 16 C-9.010625 15.34 -10.02125 14.68 -11.0625 14 C-14 12 -14 12 -14.9375 9.8125 C-14.958125 9.214375 -14.97875 8.61625 -15 8 C-14.67 7.67 -14.34 7.34 -14 7 C-8.70602769 7.30542148 -5.86602713 8.36827755 -2 12 C0.48772258 8.7162062 1.03180444 7.38801417 0.6875 3.1875 C0.460625 2.135625 0.23375 1.08375 0 0 Z " fill="#D93019" transform="translate(48,53)"/>
<path d="M0 0 C0.6875 1.8125 0.6875 1.8125 1 4 C0 5 -1 6 -2 7 C-3.40136867 12.70824172 -3.22032457 18.59514987 -3.25 24.4375 C-3.270625 25.44876953 -3.29125 26.46003906 -3.3125 27.50195312 C-3.33640468 32.08268703 -3.29851747 35.31767434 -1.44140625 39.5625 C0.59812747 44.42642866 -0.06752095 48.4124165 -0.6875 53.5625 C-0.78981934 54.53614502 -0.89213867 55.50979004 -0.99755859 56.51293945 C-1.70132707 63.01983401 -2.62123871 69.48034796 -3.63671875 75.9453125 C-4.0038744 79.03257832 -4.02397871 81.95750245 -3.9375 85.0625 C-3.86927034 89.30514414 -4.14500143 91.66916833 -7 95 C-7.43699219 95.53625 -7.87398437 96.0725 -8.32421875 96.625 C-11.01897687 99.68047377 -12.20219619 100.91135513 -16.375 101.375 C-17.24125 101.25125 -18.1075 101.1275 -19 101 C-19.66 99.68 -20.32 98.36 -21 97 C-20.154375 97.45375 -19.30875 97.9075 -18.4375 98.375 C-15.13583256 99.36220032 -15.13583256 99.36220032 -13.078125 97.8671875 C-9.53641233 94.8414732 -9.53641233 94.8414732 -7 91 C-6.81231463 87.99703402 -6.67177177 85.00595173 -6.5625 82 C-6.24023664 74.3130097 -5.63933387 66.7212124 -4.66040039 59.08984375 C-3.88265386 52.83843926 -3.42182528 46.9647006 -4.98046875 40.81640625 C-6.41769872 34.8908507 -6.32982959 29.00632319 -6.3125 22.9375 C-6.32861328 21.80505859 -6.34472656 20.67261719 -6.36132812 19.50585938 C-6.36513231 12.97406667 -5.95482742 7.87505499 -3 2 C-2.01 1.34 -1.02 0.68 0 0 Z " fill="#E5C5BF" transform="translate(127,21)"/>
<path d="M0 0 C1.2375 0.28875 2.475 0.5775 3.75 0.875 C6.14156225 1.11106035 8.53415242 1.30526299 10.9296875 1.49609375 C11.53039063 1.62113281 12.13109375 1.74617188 12.75 1.875 C13.245 2.865 13.245 2.865 13.75 3.875 C8.8 3.875 3.85 3.875 -1.25 3.875 C-1.25 4.535 -1.25 5.195 -1.25 5.875 C-1.91 5.875 -2.57 5.875 -3.25 5.875 C-3.270625 6.761875 -3.29125 7.64875 -3.3125 8.5625 C-4.47451264 12.66827798 -5.95775443 13.53022668 -9.4609375 15.69921875 C-11.30066568 16.82021315 -11.30066568 16.82021315 -12.77734375 18.4140625 C-14.9380635 20.55758819 -17.51483692 21.59859056 -20.25 22.875 C-20.25 19.48744725 -19.81978799 17.87186799 -18.25 14.875 C-16.77884887 13.59573815 -15.30281831 12.3190723 -13.76171875 11.125 C-11.57297474 9.31518583 -9.98497691 7.11367988 -8.25 4.875 C-4.19890511 -0.16149635 -4.19890511 -0.16149635 0 0 Z " fill="#E14721" transform="translate(51.25,22.125)"/>
<path d="M0 0 C0.33 0 0.66 0 1 0 C1.18175781 1.10859375 1.36351562 2.2171875 1.55078125 3.359375 C1.80410404 4.82301777 2.0580427 6.28655404 2.3125 7.75 C2.43044922 8.47960937 2.54839844 9.20921875 2.66992188 9.9609375 C3.41341744 14.15501506 4.26322763 16.6509578 7 20 C7.56330258 22.32461488 7.87253818 24.60599978 8.1796875 26.9765625 C8.81542082 29.22087977 8.81542082 29.22087977 11.17578125 29.953125 C12.10777344 30.29859375 13.03976563 30.6440625 14 31 C16.17625033 32.66563702 18.24796122 34.33389346 20.3125 36.125 C20.86228516 36.59292969 21.41207031 37.06085938 21.97851562 37.54296875 C23.32396409 38.68952483 24.662679 39.84397451 26 41 C23 43 23 43 20.25 42.75 C15.58381465 41.673188 11.02500931 40.30570453 6.4375 38.9375 C3.29394733 38.08016745 0.22122037 37.4713981 -3 37 C-3 35.68 -3 34.36 -3 33 C4.03645577 34.88619822 11.03359344 36.86927695 18 39 C16.69841744 35.09525233 14.91016149 34.26649727 11.5625 31.9375 C3.91333979 26.58209057 3.91333979 26.58209057 2.9296875 21.640625 C2.75566406 20.77179688 2.58164063 19.90296875 2.40234375 19.0078125 C2.22832031 18.09773438 2.05429688 17.18765625 1.875 16.25 C1.69324219 15.35539062 1.51148438 14.46078125 1.32421875 13.5390625 C0.426285 8.96162577 -0.23293258 4.68970936 0 0 Z " fill="#991D10" transform="translate(3,80)"/>
<path d="M0 0 C0.99 0 1.98 0 3 0 C3 0.99 3 1.98 3 3 C2.05125 3.309375 1.1025 3.61875 0.125 3.9375 C-3.37135711 5.77051942 -3.37135711 5.77051942 -4.1796875 9.81640625 C-5.33595142 15.85326381 -5.29215469 21.87351809 -5.25 28 C-5.25773437 29.1240625 -5.26546875 30.248125 -5.2734375 31.40625 C-5.25998941 37.16203426 -4.83247957 42.28859307 -3.44189453 47.86157227 C-1.57948216 56.87420762 -3.41871619 66.98357604 -4.171875 76.08032227 C-4.37703557 78.58737459 -4.56755545 81.09529349 -4.7578125 83.60351562 C-4.88713071 85.19538506 -5.01730694 86.78718508 -5.1484375 88.37890625 C-5.20373627 89.12983047 -5.25903503 89.8807547 -5.31600952 90.6544342 C-5.47176052 92.44405214 -5.7263275 94.22458622 -6 96 C-6.99 96.495 -6.99 96.495 -8 97 C-7.90912109 95.99138916 -7.90912109 95.99138916 -7.81640625 94.96240234 C-6.75313932 82.91681486 -5.80415727 70.91153723 -5.8125 58.8125 C-5.81185547 57.9241748 -5.81121094 57.03584961 -5.81054688 56.12060547 C-5.84053232 52.57755284 -5.96259942 49.24138245 -6.5065918 45.73046875 C-7.03902702 41.70493179 -7.10896547 37.77981603 -7.0625 33.73046875 C-7.05871338 32.96825516 -7.05492676 32.20604156 -7.05102539 31.42073059 C-7.03890454 29.00959347 -7.02025916 26.5985816 -7 24.1875 C-6.97345438 20.99349312 -6.95346815 17.79954398 -6.9375 14.60546875 C-6.92920166 13.87216843 -6.92090332 13.1388681 -6.91235352 12.38334656 C-6.82387906 8.56576599 -6.82387906 8.56576599 -8 5 C-6.20963542 3.99088542 -4.41927083 2.98177083 -2.62890625 1.97265625 C-1.02121854 1.1027487 -1.02121854 1.1027487 0 0 Z " fill="#C85432" transform="translate(125,16)"/>
<path d="M0 0 C2.0625 0.4375 2.0625 0.4375 4 1 C3.33333333 4.33333333 2.66666667 7.66666667 2 11 C2.66 11 3.32 11 4 11 C3.50130596 16.36891879 2.97772468 21.69235173 2 27 C0.35 26.67 -1.3 26.34 -3 26 C-4.19624097 17.06422409 -3.9847885 9.57018481 -1 1 C-0.67 0.67 -0.34 0.34 0 0 Z " fill="#BF2414" transform="translate(76,65)"/>
<path d="M0 0 C5.65394631 -0.34615998 9.03006806 0.56574762 14 3 C13.67 4.65 13.34 6.3 13 8 C9.8815675 9.0394775 7.72524414 9.11494838 4.45703125 9.09765625 C3.38388672 9.09443359 2.31074219 9.09121094 1.20507812 9.08789062 C0.08552734 9.07951172 -1.03402344 9.07113281 -2.1875 9.0625 C-3.31865234 9.05798828 -4.44980469 9.05347656 -5.61523438 9.04882812 C-8.41020927 9.03703498 -11.2050782 9.0205765 -14 9 C-10.11595442 6.41063628 -7.5725325 5.87641804 -3 6 C-2.01 4.02 -1.02 2.04 0 0 Z " fill="#BF2414" transform="translate(91,26)"/>
<path d="M0 0 C3.20988047 0.02295987 6.41626764 0.10047597 9.625 0.1875 C10.52863281 0.19330078 11.43226562 0.19910156 12.36328125 0.20507812 C18.65105721 0.41161091 21.6168669 1.4348431 26 6 C24.84375 7.49609375 24.84375 7.49609375 23 9 C14.18600468 9.99293466 7.23180386 6.65511784 0 2 C0 1.34 0 0.68 0 0 Z " fill="#DA3219" transform="translate(26,116)"/>
<path d="M0 0 C0.66 0 1.32 0 2 0 C1.95359375 0.70640625 1.9071875 1.4128125 1.859375 2.140625 C1.48323785 12.8336669 1.45756609 27.31266458 8.38671875 35.98828125 C10.84802197 37.95373068 13.22312095 39.5257971 16 41 C19 43 19 43 20 47 C17.36 46.34 14.72 45.68 12 45 C12.66 44.34 13.32 43.68 14 43 C12.86111328 42.23429687 12.86111328 42.23429687 11.69921875 41.453125 C5.2151231 36.7098955 1.72323854 33.26899835 0.3515625 25.25390625 C0.17753906 23.64322266 0.17753906 23.64322266 0 22 C-0.13664063 20.81277344 -0.27328125 19.62554687 -0.4140625 18.40234375 C-0.99416414 12.09542475 -1.122537 6.23631664 0 0 Z " fill="#48110D" transform="translate(2,73)"/>
<path d="M0 0 C1.32 0 2.64 0 4 0 C4 0.66 4 1.32 4 2 C6.475 2.99 6.475 2.99 9 4 C9 5.65 9 7.3 9 9 C6.18933542 9.93688819 4.8531845 10.03711276 2 9.875 C-1.20219971 9.74908942 -1.20219971 9.74908942 -3.8125 11.5 C-4.204375 11.995 -4.59625 12.49 -5 13 C-5.99 13 -6.98 13 -8 13 C-8.6875 11.1875 -8.6875 11.1875 -9 9 C-7.6875 7.25 -7.6875 7.25 -6 6 C-5.34 6 -4.68 6 -4 6 C-4 5.34 -4 4.68 -4 4 C-3.01 4 -2.02 4 -1 4 C-0.67 2.68 -0.34 1.36 0 0 Z " fill="#EA6923" transform="translate(37,49)"/>
<path d="M0 0 C-1 3 -1 3 -4 5 C-6.66457715 11.41274901 -6.29643792 18.02540628 -6.25 24.875 C-6.25773437 26.00808594 -6.26546875 27.14117187 -6.2734375 28.30859375 C-6.25999479 34.10912364 -5.97504311 39.44793258 -4.453125 45.05932617 C-3.6617871 48.44852067 -3.75673685 51.53350009 -4 55 C-4.66 55.66 -5.32 56.32 -6 57 C-6.13277344 56.04738281 -6.26554687 55.09476563 -6.40234375 54.11328125 C-6.66724609 52.23189453 -6.66724609 52.23189453 -6.9375 50.3125 C-7.19853516 48.45044922 -7.19853516 48.45044922 -7.46484375 46.55078125 C-7.76293355 44.57294454 -8.08947913 42.59692616 -8.52294922 40.64428711 C-9.43897565 35.5667629 -9.1846352 30.39517432 -9.1875 25.25 C-9.19974609 24.10789062 -9.21199219 22.96578125 -9.22460938 21.7890625 C-9.2359438 15.21509796 -8.90141535 9.31425643 -7 3 C-4.53299655 0.96472215 -3.20000682 0 0 0 Z " fill="#D9887D" transform="translate(128,19)"/>
<path d="M0 0 C0.99 0.33 1.98 0.66 3 1 C2.154375 1.66 1.30875 2.32 0.4375 3 C-2.18910206 5.6303496 -2.18910206 5.6303496 -2.109375 8.11328125 C-1.84225031 10.09211284 -1.42966217 12.04999475 -1 14 C1.64 14 4.28 14 7 14 C7 12.68 7 11.36 7 10 C9.1875 9.625 9.1875 9.625 12 10 C13.87812232 11.85165102 15.37201048 13.91507896 17 16 C16.0713916 15.99476318 15.1427832 15.98952637 14.18603516 15.98413086 C10.74576195 15.96710407 7.30553341 15.95455727 3.86523438 15.94506836 C2.37531834 15.94003486 0.88540726 15.93320758 -0.60449219 15.92456055 C-2.74415304 15.91245195 -4.88374868 15.90676193 -7.0234375 15.90234375 C-8.95582275 15.89448853 -8.95582275 15.89448853 -10.92724609 15.88647461 C-13.91405228 15.78457369 -13.91405228 15.78457369 -16 17 C-15.67 16.01 -15.34 15.02 -15 14 C-11.21072879 12.10536439 -7.80605364 13.75571323 -4 15 C-4.4021875 13.2365625 -4.4021875 13.2365625 -4.8125 11.4375 C-5.31258399 7.74609054 -4.74935349 6.00385213 -2.5625 3 C-1.716875 2.01 -0.87125 1.02 0 0 Z " fill="#C95330" transform="translate(21,52)"/>
<path d="M0 0 C0.33 0.66 0.66 1.32 1 2 C-4.8102182 10.66375732 -4.8102182 10.66375732 -8.875 11.8125 C-13.16328545 10.69754578 -17.04063955 8.97088164 -21 7 C-18.61553955 4.04326904 -17.22632646 3.06062316 -13.5 2.0625 C-10 2 -10 2 -7.5625 3.4375 C-7.046875 3.953125 -6.53125 4.46875 -6 5 C-2.83884224 3.63016497 -2.0072908 3.0109362 0 0 Z " fill="#D93019" transform="translate(96,117)"/>
<path d="M0 0 C4.05298907 4.2914002 7.3717836 9.03194423 8 15 C7.67 15.99 7.34 16.98 7 18 C6.01 18.33 5.02 18.66 4 19 C3.34 18.67 2.68 18.34 2 18 C2.04125 16.9275 2.0825 15.855 2.125 14.75 C2.04138532 10.48155231 2.04138532 10.48155231 0 7 C-1.99371825 5.65729179 -3.9934562 4.32346506 -6 3 C-6.33 2.01 -6.66 1.02 -7 0 C-4.20824656 -1.39587672 -2.93876905 -0.97958968 0 0 Z " fill="#BA2313" transform="translate(40,62)"/>
<path d="M0 0 C4.55384615 -0.36923077 4.55384615 -0.36923077 6.8125 1.5 C7.204375 1.995 7.59625 2.49 8 3 C7.34 3 6.68 3 6 3 C6.4125 4.03125 6.825 5.0625 7.25 6.125 C8 10 8 10 6.125 13.4375 C5.42375 14.283125 4.7225 15.12875 4 16 C3.55269531 15.6390625 3.10539062 15.278125 2.64453125 14.90625 C-1.19802404 11.90763317 -1.19802404 11.90763317 -5.8125 10.625 C-8.0364696 10.89754403 -8.0364696 10.89754403 -10 12 C-9.67 11.01 -9.34 10.02 -9 9 C-6.47524538 7.73762269 -4.68799534 7.90143596 -1.875 7.9375 C-0.96492188 7.94652344 -0.05484375 7.95554687 0.8828125 7.96484375 C1.58148438 7.97644531 2.28015625 7.98804688 3 8 C3.28957615 4.28106121 3.28957615 4.28106121 1.5 1.1875 C1.005 0.795625 0.51 0.40375 0 0 Z " fill="#E6441E" transform="translate(42,50)"/>
<path d="M0 0 C7.35678392 -0.36180905 7.35678392 -0.36180905 10 1.125 C11.42098605 3.78934884 11.19767261 6.03491085 11 9 C10.01 9.495 10.01 9.495 9 10 C9 8.68 9 7.36 9 6 C7.89140625 6.02320313 6.7828125 6.04640625 5.640625 6.0703125 C4.17709008 6.08907577 2.71354786 6.10727537 1.25 6.125 C0.52039063 6.14175781 -0.20921875 6.15851562 -0.9609375 6.17578125 C-4.8044624 6.21072239 -7.74606772 6.17499684 -11 4 C-11 3.34 -11 2.68 -11 2 C-7.37 2 -3.74 2 0 2 C0 1.34 0 0.68 0 0 Z " fill="#E23F1C" transform="translate(108,20)"/>
<path d="M0 0 C0.33 1.32 0.66 2.64 1 4 C0.01 4.763125 -0.98 5.52625 -2 6.3125 C-7.13995157 10.75871578 -13.11629595 16.63628309 -14.50390625 23.48828125 C-14.55371492 25.88340485 -14.55371492 25.88340485 -14 29 C-17.63 28.67 -21.26 28.34 -25 28 C-24.67 27.34 -24.34 26.68 -24 26 C-20.9375 25.375 -20.9375 25.375 -18 25 C-17.74605469 24.11054687 -17.49210937 23.22109375 -17.23046875 22.3046875 C-15.97592169 18.93533254 -14.60208417 16.86890244 -12.3125 14.125 C-11.25289062 12.84689453 -11.25289062 12.84689453 -10.171875 11.54296875 C-2.14736842 2.14736842 -2.14736842 2.14736842 0 0 Z " fill="#9E1E10" transform="translate(31,38)"/>
<path d="M0 0 C0 3.91912822 -1.5724614 5.04143734 -4 8 C-4 8.66 -4 9.32 -4 10 C-2.6696875 10.495 -2.6696875 10.495 -1.3125 11 C3.51401763 13.91412385 5.53029217 18.06058435 8 23 C8.25 26 8.25 26 8 29 C7.01 29.66 6.02 30.32 5 31 C5.2475 30.01 5.495 29.02 5.75 28 C6.43343178 23.33937497 4.66688554 19.76654289 2 16 C-1.4352048 13.70986347 -2.985331 13.82157027 -7 14 C-7 13.34 -7 12.68 -7 12 C-8.32 12 -9.64 12 -11 12 C-11.33 13.32 -11.66 14.64 -12 16 C-12.66 15.67 -13.32 15.34 -14 15 C-11.49411765 10.23882353 -11.49411765 10.23882353 -9.125 9.09375 C-6.51875888 7.75230236 -5.12709063 6.1130696 -3.25 3.875 C-2.63640625 3.15054688 -2.0228125 2.42609375 -1.390625 1.6796875 C-0.70226562 0.84824219 -0.70226562 0.84824219 0 0 Z " fill="#D85E2B" transform="translate(48,37)"/>
<path d="M0 0 C5.21709323 0.02661782 9.51000545 0.33416874 14.375 2.1875 C14.375 2.8475 14.375 3.5075 14.375 4.1875 C15.365 4.1875 16.355 4.1875 17.375 4.1875 C17.375 4.8475 17.375 5.5075 17.375 6.1875 C10.15694245 6.9813642 3.56672157 7.26625823 -3.625 6.1875 C-3.625 5.8575 -3.625 5.5275 -3.625 5.1875 C0.995 4.8575 5.615 4.5275 10.375 4.1875 C8.19305145 3.95252093 6.0109678 3.71870892 3.828125 3.4921875 C1.375 3.1875 1.375 3.1875 -2.4375 2.375 C-5.72646568 1.8258873 -5.72646568 1.8258873 -8.0625 4.125 C-8.578125 4.805625 -9.09375 5.48625 -9.625 6.1875 C-7.25876976 0.03530137 -6.68518284 0.03518517 0 0 Z " fill="#D22D17" transform="translate(53.625,20.8125)"/>
<path d="M0 0 C7.01920032 0.2715358 12.89015372 1.42725355 19.41796875 4.0234375 C21.77963431 4.91665443 24.03668739 5.53110898 26.5 6.0625 C29.7254049 6.92644774 31.1240588 7.30333452 33 10 C33 10.33 33 10.66 33 11 C28.96552954 11.27279338 26.64440421 10.5702298 23.125 8.625 C15.24654057 4.52912934 8.78272292 3.71412475 0 4 C0 2.68 0 1.36 0 0 Z " fill="#E2B7B0" transform="translate(0,117)"/>
<path d="M0 0 C1.34084736 0.30169066 2.6806062 0.61517681 4 1 C4 1.66 4 2.32 4 3 C4.66 3 5.32 3 6 3 C6 3.66 6 4.32 6 5 C-0.27467799 6.0748291 -4.90660831 5.88341198 -11 4 C-11 3.01 -11 2.02 -11 1 C-7.09505171 -1.60329886 -4.37202275 -0.80930803 0 0 Z " fill="#BF2414" transform="translate(107,63)"/>
<path d="M0 0 C0.33 0.66 0.66 1.32 1 2 C3.31 1.34 5.62 0.68 8 0 C8 0.66 8 1.32 8 2 C6.57421875 3.18359375 6.57421875 3.18359375 4.6875 4.4375 C2.76997896 5.71986732 1.08992267 6.90870097 -0.53125 8.5546875 C-2.69449542 10.68341304 -5.27222129 11.7270366 -8 13 C-8 9.61244725 -7.56978799 7.99686799 -6 5 C-4.10088381 3.14634137 -2.12000619 1.61304819 0 0 Z " fill="#E13D1C" transform="translate(39,32)"/>
<path d="M0 0 C3.5625 0.1875 3.5625 0.1875 5.5625 2.1875 C4.3559375 2.80625 4.3559375 2.80625 3.125 3.4375 C0.42140282 4.92202331 0.42140282 4.92202331 -0.25 7.375 C-0.311875 7.973125 -0.37375 8.57125 -0.4375 9.1875 C-1.0975 9.1875 -1.7575 9.1875 -2.4375 9.1875 C-2.4375 9.8475 -2.4375 10.5075 -2.4375 11.1875 C-3.4275 11.5175 -4.4175 11.8475 -5.4375 12.1875 C-6.69948237 7.89675993 -6.11788993 5.29511984 -4.4375 1.1875 C-3.4375 0.1875 -3.4375 0.1875 0 0 Z " fill="#E5411D" transform="translate(88.4375,20.8125)"/>
<path d="M0 0 C5.1448792 2.42111962 7.96360404 6.34627973 11 11 C11 11.33 11 11.66 11 12 C7.36116918 12.551338 5.21012523 11.79793028 2.1875 9.875 C-0.60364563 7.75590896 -0.93994668 7.39034656 -1.5 3.75 C-1 1 -1 1 0 0 Z " fill="#D42D18" transform="translate(13,102)"/>
<path d="M0 0 C21.23404255 5.23404255 21.23404255 5.23404255 26 10 C20.3007863 9.16596873 14.94744067 7.58081564 9.4375 5.9375 C6.29394733 5.08016745 3.22122037 4.4713981 0 4 C0 2.68 0 1.36 0 0 Z " fill="#746564" transform="translate(0,113)"/>
<path d="M0 0 C-0.6875 2.875 -0.6875 2.875 -2 6 C-4.91667555 7.64530416 -6.64720982 8 -10 8 C-9.37315423 5.07471973 -8.51695295 2.58774327 -7 0 C-4.3333581 -1.33332095 -2.83319697 -0.67102033 0 0 Z " fill="#BF2414" transform="translate(36,47)"/>
<path d="M0 0 C0.99 0 1.98 0 3 0 C3 0.99 3 1.98 3 3 C1.6078125 3.3403125 1.6078125 3.3403125 0.1875 3.6875 C-4.94008761 7.40751454 -5.02221876 12.98750306 -6 19 C-6.33 19 -6.66 19 -7 19 C-6.98839844 18.15695313 -6.97679688 17.31390625 -6.96484375 16.4453125 C-6.95582031 15.34960938 -6.94679688 14.25390625 -6.9375 13.125 C-6.92009766 11.48917969 -6.92009766 11.48917969 -6.90234375 9.8203125 C-6.80255697 7.04822454 -6.80255697 7.04822454 -8 5 C-6.20963542 3.99088542 -4.41927083 2.98177083 -2.62890625 1.97265625 C-1.02121854 1.1027487 -1.02121854 1.1027487 0 0 Z " fill="#C85432" transform="translate(125,16)"/>
<path d="M0 0 C0.66 0.33 1.32 0.66 2 1 C1.2884375 2.0828125 1.2884375 2.0828125 0.5625 3.1875 C-0.94152903 5.89475226 -1.56599182 7.96194275 -2 11 C-4.31 11 -6.62 11 -9 11 C-6.92623208 6.33402219 -4.25832657 2.83888438 0 0 Z " fill="#E4C0BA" transform="translate(99,117)"/>
<path d="M0 0 C2.475 0.99 2.475 0.99 5 2 C5 3.32 5 4.64 5 6 C2.36 6.33 -0.28 6.66 -3 7 C-3 3 -3 3 -1.5 1.25 C-1.005 0.8375 -0.51 0.425 0 0 Z " fill="#A11E10" transform="translate(23,60)"/>
<path d="M0 0 C-1.50717926 3.80626627 -3.71589037 5.60726446 -6.9375 8.0625 C-9.79373746 10.25410488 -12.52608382 12.3791185 -15 15 C-15.66 14.67 -16.32 14.34 -17 14 C-14.13637353 10.17956942 -11.0773188 7.19625773 -7.375 4.1875 C-6.41335937 3.39730469 -5.45171875 2.60710938 -4.4609375 1.79296875 C-2 0 -2 0 0 0 Z " fill="#6B160E" transform="translate(40,30)"/>
<path d="M0 0 C0.33 0 0.66 0 1 0 C1.07115235 2.56148445 1.0822487 4.71212955 0.375 7.1875 C0.25125 7.785625 0.1275 8.38375 0 9 C0.66 9.66 1.32 10.32 2 11 C1.4225 10.835 0.845 10.67 0.25 10.5 C-3.16429157 9.74126854 -5.69431461 9.89810487 -9 11 C-9.495 8.525 -9.495 8.525 -10 6 C-7 5 -7 5 -4.9375 5.5625 C-3.9784375 5.7790625 -3.9784375 5.7790625 -3 6 C-0.8614515 3.8614515 -0.57344937 2.86724686 0 0 Z " fill="#D93019" transform="translate(21,88)"/>
<path d="M0 0 C3.125 -0.1875 3.125 -0.1875 6 0 C6.33 0.99 6.66 1.98 7 3 C6.01 4.485 6.01 4.485 5 6 C2.5 6.375 2.5 6.375 0 6 C-0.66 5.01 -1.32 4.02 -2 3 C-1.34 2.01 -0.68 1.02 0 0 Z " fill="#D22C17" transform="translate(98,51)"/>
<path d="M0 0 C0.99 0.33 1.98 0.66 3 1 C1.25 6.75 1.25 6.75 -1 9 C-1.99 9 -2.98 9 -4 9 C-3.38461538 3.46153846 -3.38461538 3.46153846 -1.4375 1.125 C-0.963125 0.75375 -0.48875 0.3825 0 0 Z " fill="#BF2414" transform="translate(52,60)"/>
<path d="M0 0 C1.0625 1.8125 1.0625 1.8125 2 4 C1 7 1 7 -2.0625 8.6875 C-3.031875 9.120625 -4.00125 9.55375 -5 10 C-5 6.73204297 -4.42149484 4.9178052 -3 2 C-2.01 1.34 -1.02 0.68 0 0 Z " fill="#DC5226" transform="translate(36,35)"/>
<path d="M0 0 C8.25 0 16.5 0 25 0 C25 0.33 25 0.66 25 1 C16.44635078 3.11222766 8.72750567 2.94282543 0 2 C0 1.34 0 0.68 0 0 Z " fill="#DA3119" transform="translate(76,34)"/>
<path d="M0 0 C1.79206547 0.14084796 3.58364917 0.28783701 5.375 0.4375 C6.87160156 0.55931641 6.87160156 0.55931641 8.3984375 0.68359375 C11 1 11 1 13 2 C13 2.66 13 3.32 13 4 C8.07872966 4.16682272 4.49656104 4.24828052 0 2 C0 1.34 0 0.68 0 0 Z " fill="#991D10" transform="translate(100,64)"/>
<path d="M0 0 C6.0546875 -0.1953125 6.0546875 -0.1953125 8 0 C8.66 0.66 9.32 1.32 10 2 C7.08291076 3.98362069 5.87619096 3.9876191 2.25 3.625 C1.1775 3.41875 0.105 3.2125 -1 3 C-0.67 2.01 -0.34 1.02 0 0 Z " fill="#C85432" transform="translate(83,40)"/>
<path d="M0 0 C3.87540045 -0.17615457 6.75515269 -0.28341107 10 2 C10.33 2.99 10.66 3.98 11 5 C6.55129785 5.39253254 3.85756507 4.15305957 0 2 C0 1.34 0 0.68 0 0 Z " fill="#DFA79F" transform="translate(22,123)"/>
<path d="M0 0 C0.66 1.32 1.32 2.64 2 4 C-0.97 6.475 -0.97 6.475 -4 9 C-4.8125 7.3125 -4.8125 7.3125 -5 5 C-2.5625 2.25 -2.5625 2.25 0 0 Z " fill="#E7461E" transform="translate(23,53)"/>
<path d="M0 0 C0.33 0 0.66 0 1 0 C1.08090971 1.62418745 1.13914995 3.24951745 1.1875 4.875 C1.22230469 5.77992187 1.25710937 6.68484375 1.29296875 7.6171875 C1.19628906 8.40351562 1.09960938 9.18984375 1 10 C0.01 10.66 -0.98 11.32 -2 12 C-3.15957207 8.52128379 -2.77456651 7.65780355 -1.5625 4.3125 C-1.13130859 3.10013672 -1.13130859 3.10013672 -0.69140625 1.86328125 C-0.46324219 1.24839844 -0.23507813 0.63351563 0 0 Z " fill="#E7441E" transform="translate(111,100)"/>
<path d="M0 0 C1.32 0 2.64 0 4 0 C4.66 1.98 5.32 3.96 6 6 C4.35 5.67 2.7 5.34 1 5 C0.505 2.525 0.505 2.525 0 0 Z " fill="#EE9731" transform="translate(37,49)"/>
<path d="M0 0 C0.33 0.66 0.66 1.32 1 2 C-1.31 4.97 -3.62 7.94 -6 11 C-7.32 10.67 -8.64 10.34 -10 10 C-8.23806673 8.1453334 -6.4615685 6.57976078 -4.4375 5 C-1.82693563 3.05606552 -1.82693563 3.05606552 0 0 Z " fill="#C85432" transform="translate(96,117)"/>
<path d="M0 0 C0.99 0.33 1.98 0.66 3 1 C2.67 1.66 2.34 2.32 2 3 C1.34 3 0.68 3 0 3 C0 3.99 0 4.98 0 6 C-1.32 6 -2.64 6 -4 6 C-3.6875 4.125 -3.6875 4.125 -3 2 C-2.01 1.34 -1.02 0.68 0 0 Z " fill="#D63C20" transform="translate(29,44)"/>
<path d="M0 0 C-0.66 1.32 -1.32 2.64 -2 4 C-3.65 4 -5.3 4 -7 4 C-7.33 3.01 -7.66 2.02 -8 1 C-5.29120665 -0.35439668 -2.99066732 -0.06501451 0 0 Z " fill="#EF9932" transform="translate(72,37)"/>
<path d="M0 0 C0.99 0 1.98 0 3 0 C2.67 1.98 2.34 3.96 2 6 C1.01 6.33 0.02 6.66 -1 7 C-1.625 4.625 -1.625 4.625 -2 2 C-1.34 1.34 -0.68 0.68 0 0 Z " fill="#C85432" transform="translate(84,26)"/>
<path d="M0 0 C0 3 0 3 -1 5 C-0.34 5.33 0.32 5.66 1 6 C-0.65 6.33 -2.3 6.66 -4 7 C-3.6875 4.625 -3.6875 4.625 -3 2 C-2.01 1.34 -1.02 0.68 0 0 Z " fill="#BF2414" transform="translate(42,37)"/>
<path d="M0 0 C2.08954032 4.17908064 2.16552619 4.80410573 1 9 C2.65 9 4.3 9 6 9 C5.01 10.485 5.01 10.485 4 12 C2.68 11.34 1.36 10.68 0 10 C0 6.7 0 3.4 0 0 Z " fill="#D93019" transform="translate(41,71)"/>
<path d="M0 0 C0.66 0 1.32 0 2 0 C1.67 1.65 1.34 3.3 1 5 C-0.65 5.33 -2.3 5.66 -4 6 C-2.84826645 3.53199953 -1.95216435 1.95216435 0 0 Z " fill="#E37848" transform="translate(44,28)"/>
<path d="M0 0 C2.375 -0.1875 2.375 -0.1875 5 0 C5.66 0.99 6.32 1.98 7 3 C4.39417629 3.93065133 3.35801776 4.14917407 0.75 3.0625 C0.1725 2.711875 -0.405 2.36125 -1 2 C-0.67 1.34 -0.34 0.68 0 0 Z " fill="#991D10" transform="translate(96,29)"/>
<path d="M0 0 C0 0.99 0 1.98 0 3 C-2.35438733 4.42944945 -3.48032433 5.08661261 -6.25 4.625 C-6.8275 4.41875 -7.405 4.2125 -8 4 C-3.375 0 -3.375 0 0 0 Z " fill="#746564" transform="translate(128,16)"/>
<path d="M0 0 C2.31 0.33 4.62 0.66 7 1 C7.33 2.32 7.66 3.64 8 5 C6.68 4.67 5.36 4.34 4 4 C4 3.34 4 2.68 4 2 C2.68 1.34 1.36 0.68 0 0 Z " fill="#C85432" transform="translate(28,123)"/>
<path d="M0 0 C1.32 1.32 2.64 2.64 4 4 C0.37 4 -3.26 4 -7 4 C-4.77810176 1.77810176 -2.91517292 1.07401108 0 0 Z " fill="#D93019" transform="translate(17,84)"/>
<path d="M0 0 C2.475 0.99 2.475 0.99 5 2 C4.67 3.32 4.34 4.64 4 6 C4 5.01 4 4.02 4 3 C1.69 3.33 -0.62 3.66 -3 4 C-2.01 2.68 -1.02 1.36 0 0 Z " fill="#BF2414" transform="translate(23,60)"/>
<path d="M0 0 C1.32 0 2.64 0 4 0 C4 1.32 4 2.64 4 4 C2.35 4 0.7 4 -1 4 C-0.67 2.68 -0.34 1.36 0 0 Z " fill="#9B1D10" transform="translate(31,48)"/>
<path d="M0 0 C0.75 1.75 0.75 1.75 1 4 C-0.9375 6.25 -0.9375 6.25 -3 8 C-3.66 7.67 -4.32 7.34 -5 7 C-1.125 1.125 -1.125 1.125 0 0 Z " fill="#BC2614" transform="translate(31,38)"/>
<path d="M0 0 C0.33 0.66 0.66 1.32 1 2 C-0.25 4.625 -0.25 4.625 -2 7 C-2.99 7 -3.98 7 -5 7 C-3.70700306 4.11562221 -2.34058637 2.12780579 0 0 Z " fill="#D9887D" transform="translate(95,121)"/>
<path d="M0 0 C1.32 0 2.64 0 4 0 C3.67 1.65 3.34 3.3 3 5 C2.01 5 1.02 5 0 5 C0 3.35 0 1.7 0 0 Z " fill="#E7441E" transform="translate(100,81)"/>
<path d="M0 0 C1.98 0.495 1.98 0.495 4 1 C4 1.99 4 2.98 4 4 C2.35 3.67 0.7 3.34 -1 3 C-0.67 2.01 -0.34 1.02 0 0 Z " fill="#DC4925" transform="translate(14,106)"/>
<path d="M0 0 C0.99 0 1.98 0 3 0 C2.67 2.31 2.34 4.62 2 7 C1.34 6.67 0.68 6.34 0 6 C0 4.02 0 2.04 0 0 Z " fill="#EF9932" transform="translate(6,69)"/>
<path d="M0 0 C2.97 0 5.94 0 9 0 C8.67 0.66 8.34 1.32 8 2 C4.9375 2.625 4.9375 2.625 2 3 C2 2.34 2 1.68 2 1 C1.34 0.67 0.68 0.34 0 0 Z " fill="#CE2E17" transform="translate(59,34)"/>
</svg>
