<?xml version="1.0" encoding="UTF-8"?>
<svg version="1.1" xmlns="http://www.w3.org/2000/svg" width="128" height="128">
<path d="M0 0 C42.24 0 84.48 0 128 0 C128 42.24 128 84.48 128 128 C85.76 128 43.52 128 0 128 C0 85.76 0 43.52 0 0 Z " fill="#020101" transform="translate(0,0)"/>
<path d="M0 0 C3.58924108 1.05073638 4.30940213 1.88815181 6.265625 5.0078125 C7.14154297 6.36519531 7.14154297 6.36519531 8.03515625 7.75 C8.68871094 8.78382812 9.34226563 9.81765625 10.015625 10.8828125 C10.80664717 12.05516674 11.60244714 13.22430774 12.40234375 14.390625 C17.43932754 21.75940167 22.07809686 29.25724969 26.421875 37.0546875 C28.01052858 39.95615436 28.01052858 39.95615436 30.015625 42.8828125 C29.76267007 50.55577877 24.25485451 54.8600184 19.015625 59.8828125 C12.60251287 65.52501046 6.43059943 67.05697745 -1.984375 67.8828125 C-2.479375 69.3678125 -2.479375 69.3678125 -2.984375 70.8828125 C-5.09375 72.41796875 -5.09375 72.41796875 -7.734375 73.9453125 C-8.59546875 74.45191406 -9.4565625 74.95851563 -10.34375 75.48046875 C-12.84431677 76.80843247 -15.33627201 77.88739249 -17.984375 78.8828125 C-19.964375 76.5728125 -21.944375 74.2628125 -23.984375 71.8828125 C-27.91513144 72.45733996 -27.91513144 72.45733996 -30.984375 74.8828125 C-33.90976635 74.78529945 -34.94240262 73.92351299 -37.046875 71.8828125 C-43.37366465 62.08649304 -44.2209449 49.47697329 -42.59375 38.16796875 C-38.33281611 20.8784101 -20.15137213 10.63579075 -5.984375 1.8828125 C-2.984375 -0.1171875 -2.984375 -0.1171875 0 0 Z " fill="#DBDBDB" transform="translate(70.984375,25.1171875)"/>
<path d="M0 0 C3.27465012 1.46939429 4.54367968 4.26816941 6.2578125 7.26953125 C6.60457031 7.85154297 6.95132813 8.43355469 7.30859375 9.03320312 C12.42549205 17.6887993 12.42549205 17.6887993 12.1328125 22.95703125 C10.8632595 23.60537779 9.59211544 24.2506094 8.3203125 24.89453125 C7.61261719 25.25417969 6.90492187 25.61382812 6.17578125 25.984375 C0.69997388 28.59140375 -3.85645664 28.59376269 -9.6171875 26.76953125 C-13.17245456 24.78678616 -14.38347457 23.70995218 -15.8671875 19.95703125 C-16.42472489 16.2135659 -16.09370158 14.40062133 -14.3671875 11.01953125 C-5.27260197 -0.12133603 -5.27260197 -0.12133603 0 0 Z " fill="#020101" transform="translate(65.8671875,51.04296875)"/>
<path d="M0 0 C8.52361171 7.20158214 14.25642537 19.58517333 20 29 C20.43505859 29.70398926 20.87011719 30.40797852 21.31835938 31.13330078 C22.47817762 33.01731396 23.6180271 34.91165949 24.75 36.8125 C25.38421875 37.87082031 26.0184375 38.92914063 26.671875 40.01953125 C28.17175632 43.3854414 28.51258894 45.35817763 28 49 C23.5872505 56.95306428 15.13588613 64.93205693 7 69 C5.56433053 69.12692559 4.12628212 69.22786576 2.6875 69.3125 C-1.75169642 69.77829803 -3.67811373 70.9272552 -7 74 C-9.34481517 75.61711391 -11.72560399 77.17154566 -14.109375 78.73046875 C-15.92729527 79.86301208 -15.92729527 79.86301208 -17 81 C-19.3125 81.375 -19.3125 81.375 -22 81 C-24.3125 78.5 -24.3125 78.5 -26 76 C-25.67 75.34 -25.34 74.68 -25 74 C-23.68 75.65 -22.36 77.3 -21 79 C-17.39827553 77.650967 -14.1705113 76.04283018 -10.875 74.0625 C-10.02679688 73.55847656 -9.17859375 73.05445312 -8.3046875 72.53515625 C-6.00189479 71.13155638 -6.00189479 71.13155638 -4.4765625 69.3515625 C-2.51453991 67.55563706 -1.12288649 67.57223389 1.5 67.3125 C11.52733756 65.51459545 18.45339516 58.03430896 24.734375 50.4921875 C26.43557185 47.14229988 26.07158598 45.56892617 25 42 C23.48682287 38.98885056 23.48682287 38.98885056 21.5 36 C20.96922852 35.16577515 20.96922852 35.16577515 20.42773438 34.31469727 C19.67634464 33.13678529 18.92038162 31.96177965 18.16015625 30.78955078 C17.01348765 29.02080481 15.88012334 27.24419735 14.75 25.46484375 C13.2574697 23.11823463 11.75 20.7823311 10.23046875 18.453125 C8.73251797 16.15379334 7.28333348 13.8325445 5.86328125 11.484375 C5.18652344 10.39640625 4.50976562 9.3084375 3.8125 8.1875 C3.22082031 7.21167969 2.62914062 6.23585938 2.01953125 5.23046875 C0.13173615 2.80590571 0.13173615 2.80590571 -2.81640625 1.9296875 C-6.9655109 2.02132417 -9.46060927 3.62525585 -12.75 5.9375 C-13.35980713 6.34846924 -13.96961426 6.75943848 -14.59790039 7.18286133 C-19.95803897 10.84521208 -25.03094576 14.82492391 -30 19 C-30.64582031 19.50015625 -31.29164062 20.0003125 -31.95703125 20.515625 C-38.11102252 25.39591437 -43.21489206 31.83108196 -44.7578125 39.703125 C-45.60518191 47.73946712 -45.44154924 55.28984452 -43 63 C-42.77054688 63.78503906 -42.54109375 64.57007812 -42.3046875 65.37890625 C-40.71216556 70.83254287 -40.71216556 70.83254287 -37 75 C-34.02602384 74.72963853 -33.14553974 74.14553974 -31 72 C-28.875 72.375 -28.875 72.375 -27 73 C-27.639375 73.28875 -28.27875 73.5775 -28.9375 73.875 C-31.15206079 74.82823451 -31.15206079 74.82823451 -32 77 C-35.25 77.375 -35.25 77.375 -39 77 C-40.99424532 74.89179781 -41.81932426 73.5640426 -43 71 C-43.37253906 70.32710938 -43.74507812 69.65421875 -44.12890625 68.9609375 C-47.24401325 62.29656225 -47.45463274 55.60841765 -47.5625 48.375 C-47.58924805 47.39732666 -47.61599609 46.41965332 -47.64355469 45.41235352 C-47.5944471 35.7275181 -43.79669936 29.47214073 -37.3125 22.4375 C-36.54550781 21.59058594 -35.77851562 20.74367188 -34.98828125 19.87109375 C-33 18 -33 18 -31 18 C-31 17.34 -31 16.68 -31 16 C-28.9292222 14.34640079 -26.86274667 12.81794355 -24.6875 11.3125 C-24.05392578 10.87059326 -23.42035156 10.42868652 -22.76757812 9.97338867 C-21.47058691 9.07347881 -20.17092788 8.17740196 -18.86865234 7.28515625 C-17.17861351 6.12284054 -15.50431766 4.93771513 -13.83203125 3.75 C-12.89746094 3.110625 -11.96289062 2.47125 -11 1.8125 C-10.175 1.24144531 -9.35 0.67039062 -8.5 0.08203125 C-5.18589385 -1.35235532 -3.41923223 -1.07710399 0 0 Z " fill="#414141" transform="translate(74,24)"/>
<path d="M0 0 C3.58924108 1.05073638 4.30940213 1.88815181 6.265625 5.0078125 C7.14154297 6.36519531 7.14154297 6.36519531 8.03515625 7.75 C8.68871094 8.78382812 9.34226563 9.81765625 10.015625 10.8828125 C10.80664717 12.05516674 11.60244714 13.22430774 12.40234375 14.390625 C17.43932754 21.75940167 22.07809686 29.25724969 26.421875 37.0546875 C28.01052858 39.95615436 28.01052858 39.95615436 30.015625 42.8828125 C29.76267007 50.55577877 24.25485451 54.8600184 19.015625 59.8828125 C12.60251287 65.52501046 6.43059943 67.05697745 -1.984375 67.8828125 C-2.479375 69.3678125 -2.479375 69.3678125 -2.984375 70.8828125 C-5.09375 72.41796875 -5.09375 72.41796875 -7.734375 73.9453125 C-8.59546875 74.45191406 -9.4565625 74.95851563 -10.34375 75.48046875 C-12.84431677 76.80843247 -15.33627201 77.88739249 -17.984375 78.8828125 C-19.964375 76.5728125 -21.944375 74.2628125 -23.984375 71.8828125 C-27.91513144 72.45733996 -27.91513144 72.45733996 -30.984375 74.8828125 C-33.90976635 74.78529945 -34.94240262 73.92351299 -37.046875 71.8828125 C-43.37366465 62.08649304 -44.2209449 49.47697329 -42.59375 38.16796875 C-38.33281611 20.8784101 -20.15137213 10.63579075 -5.984375 1.8828125 C-2.984375 -0.1171875 -2.984375 -0.1171875 0 0 Z M-8.171875 4.8203125 C-9.12191406 5.47 -10.07195313 6.1196875 -11.05078125 6.7890625 C-12.01886719 7.48 -12.98695312 8.1709375 -13.984375 8.8828125 C-14.92152344 9.5325 -15.85867187 10.1821875 -16.82421875 10.8515625 C-33.13066592 22.31560225 -33.13066592 22.31560225 -40.984375 39.8828125 C-41.94770996 50.25897464 -41.43647685 62.36935561 -35.34765625 71.27734375 C-34.89777344 71.80714844 -34.44789062 72.33695312 -33.984375 72.8828125 C-31.22796084 72.38525158 -31.22796084 72.38525158 -28.984375 70.8828125 C-26.234375 70.4453125 -26.234375 70.4453125 -22.984375 70.8828125 C-20.92611188 72.71178724 -19.59346596 74.61115468 -17.984375 76.8828125 C-14.19736157 76.2245935 -11.45411664 74.49385183 -8.234375 72.4453125 C-7.24953125 71.82785156 -6.2646875 71.21039063 -5.25 70.57421875 C-4.12851563 69.73697266 -4.12851563 69.73697266 -2.984375 68.8828125 C-2.984375 68.2228125 -2.984375 67.5628125 -2.984375 66.8828125 C0.27705534 65.36081168 3.23772884 64.69537255 6.765625 64.1953125 C17.06494786 62.19351533 23.07842784 53.92310402 29.015625 45.8828125 C25.12898285 35.5739569 18.50031241 26.45718943 12.36767578 17.37817383 C11.63266846 16.2899231 11.63266846 16.2899231 10.8828125 15.1796875 C10.3990918 14.47134766 9.91537109 13.76300781 9.41699219 13.03320312 C8.015625 10.8828125 8.015625 10.8828125 6.74707031 8.59179688 C4.33149073 4.14005628 4.33149073 4.14005628 0.02734375 1.69921875 C-3.57849317 1.91902982 -5.21099065 2.77322604 -8.171875 4.8203125 Z " fill="#8F8F8E" transform="translate(70.984375,25.1171875)"/>
<path d="M0 0 C1.57739258 1.76245117 1.57739258 1.76245117 2.89453125 4.04296875 C3.37470703 4.86990234 3.85488281 5.69683594 4.34960938 6.54882812 C4.83236328 7.41958984 5.31511719 8.29035156 5.8125 9.1875 C6.31458984 10.03892578 6.81667969 10.89035156 7.33398438 11.76757812 C9.90760783 16.29505448 11.72931821 19.63116354 11 25 C3.33578218 29.94465666 -3.92973699 31.59223745 -13 30 C-16.65595528 28.05370666 -19.14736093 25.70527813 -21 22 C-21.64317251 17.40591066 -21.15851295 14.70318607 -18.5 11 C-7.52833865 -2.40110065 -7.52833865 -2.40110065 0 0 Z M-14 8 C-17.75229049 11.9854796 -17.75229049 11.9854796 -18.984375 17.05859375 C-18.90703125 17.84363281 -18.8296875 18.62867187 -18.75 19.4375 C-18.68296875 20.21996094 -18.6159375 21.00242187 -18.546875 21.80859375 C-17.8967802 24.41361647 -17.08420206 25.34666663 -15 27 C-8.42973883 29.83715823 -3.20230318 29.63907888 3.375 27.0625 C6.42320791 25.89283019 6.42320791 25.89283019 9 24 C8.64773834 18.28473422 6.95710422 14.45719298 4.0625 9.6875 C3.70220703 9.06810547 3.34191406 8.44871094 2.97070312 7.81054688 C1.47897494 5.28037807 0.08452624 3.08452624 -2 1 C-7.04513645 1 -10.31608604 4.78906595 -14 8 Z " fill="#8F8F8E" transform="translate(69,50)"/>
<path d="M0 0 C3.27465012 1.46939429 4.54367968 4.26816941 6.2578125 7.26953125 C6.60457031 7.85154297 6.95132813 8.43355469 7.30859375 9.03320312 C12.42549205 17.6887993 12.42549205 17.6887993 12.1328125 22.95703125 C10.8632595 23.60537779 9.59211544 24.2506094 8.3203125 24.89453125 C7.61261719 25.25417969 6.90492187 25.61382812 6.17578125 25.984375 C0.69997388 28.59140375 -3.85645664 28.59376269 -9.6171875 26.76953125 C-13.17245456 24.78678616 -14.38347457 23.70995218 -15.8671875 19.95703125 C-16.42472489 16.2135659 -16.09370158 14.40062133 -14.3671875 11.01953125 C-5.27260197 -0.12133603 -5.27260197 -0.12133603 0 0 Z M-8.0546875 6.33203125 C-8.93511719 7.14414062 -9.81554688 7.95625 -10.72265625 8.79296875 C-13.67651285 11.7737275 -13.83241101 12.52580274 -14.1796875 16.83203125 C-14.11242029 19.68312615 -13.92679543 20.85136264 -12.4921875 23.39453125 C-7.62230337 26.2932718 -2.4809887 26.51814618 3.0078125 25.33984375 C5.41871028 24.6206839 7.778822 23.84353406 10.1328125 22.95703125 C9.70473136 16.85687494 8.47718517 13.02676932 5.1328125 7.95703125 C4.4728125 6.82265625 3.8128125 5.68828125 3.1328125 4.51953125 C2.4728125 3.67390625 1.8128125 2.82828125 1.1328125 1.95703125 C-3.79753407 1.95703125 -4.54601129 3.0462104 -8.0546875 6.33203125 Z " fill="#414141" transform="translate(65.8671875,51.04296875)"/>
</svg>
