<?xml version="1.0" encoding="UTF-8"?>
<svg version="1.1" xmlns="http://www.w3.org/2000/svg" width="128" height="128">
<path d="M0 0 C42.24 0 84.48 0 128 0 C128 42.24 128 84.48 128 128 C85.76 128 43.52 128 0 128 C0 85.76 0 43.52 0 0 Z " fill="#81221F" transform="translate(0,0)"/>
<path d="M0 0 C0.96808594 0.05800781 1.93617187 0.11601563 2.93359375 0.17578125 C5.86782431 0.74693163 7.34213013 1.7295852 9.5625 3.6875 C8.9375 5.5390625 8.9375 5.5390625 7.5625 7.6875 C4.875 8.9609375 4.875 8.9609375 1.5625 10.0625 C-8.93224493 13.56556377 -8.93224493 13.56556377 -16.70703125 20.87109375 C-16.94808594 21.47050781 -17.18914062 22.06992187 -17.4375 22.6875 C-14.41320423 24.19964789 -11.26468425 23.86481574 -7.9453125 23.8984375 C-6.4205622 23.92650699 -4.89582275 23.95517146 -3.37109375 23.984375 C-0.96598626 24.02563067 1.43891869 24.06251554 3.84423828 24.08886719 C6.16481451 24.11649877 8.48446761 24.1623687 10.8046875 24.2109375 C11.87987137 24.2158168 11.87987137 24.2158168 12.97677612 24.22079468 C17.10733348 24.32232883 19.55619097 24.77032421 22.5625 27.6875 C22.13080207 31.14108345 21.45359645 33.95265647 20.125 37.1875 C17.14242209 44.834011 16.41366042 53.34817073 16.5625 61.5 C16.64220882 66.41296166 16.43694581 71.08745696 14.5625 75.6875 C9.54228206 80.83644147 4.46704797 80.91283532 -2.3828125 81.22265625 C-3.70948441 81.28712196 -3.70948441 81.28712196 -5.06295776 81.35289001 C-6.93738362 81.44308896 -8.8119102 81.53121484 -10.68652344 81.61743164 C-13.53085421 81.74854128 -16.37479451 81.88640218 -19.21875 82.02539062 C-21.04425165 82.11238276 -22.86977199 82.1989835 -24.6953125 82.28515625 C-25.53627472 82.32576675 -26.37723694 82.36637726 -27.24368286 82.40821838 C-41.25116961 83.04446346 -41.25116961 83.04446346 -47.5625 82.1875 C-51.40617368 81.60751791 -51.40617368 81.60751791 -55.1875 81.6875 C-58.4375 81.6875 -58.4375 81.6875 -60.37670898 81.20068359 C-62.53047648 80.66434675 -64.44423073 80.53106682 -66.66015625 80.4765625 C-67.44583984 80.44820313 -68.23152344 80.41984375 -69.04101562 80.390625 C-70.68401202 80.33842496 -72.32728024 80.29418866 -73.97070312 80.2578125 C-74.75509766 80.226875 -75.53949219 80.1959375 -76.34765625 80.1640625 C-77.06058838 80.14424316 -77.77352051 80.12442383 -78.50805664 80.10400391 C-80.97536724 79.571392 -81.87706599 78.63604575 -83.4375 76.6875 C-85.56740051 69.92686075 -85.72289869 62.57415773 -86.15234375 55.546875 C-86.6680101 48.56771944 -87.5717203 41.63054884 -88.4375 34.6875 C-88.7675 34.6875 -89.0975 34.6875 -89.4375 34.6875 C-89.75042645 37.02077683 -90.06284946 39.35411934 -90.375 41.6875 C-90.54902344 42.986875 -90.72304687 44.28625 -90.90234375 45.625 C-90.99008057 46.30288574 -91.07781738 46.98077148 -91.16821289 47.67919922 C-91.41802223 49.54223789 -91.70361532 51.40038312 -91.9921875 53.2578125 C-92.78315835 59.65755689 -92.62182576 66.12514299 -92.625 72.5625 C-92.63715992 73.90625192 -92.64952808 75.25000196 -92.66210938 76.59375 C-92.66404297 77.85960938 -92.66597656 79.12546875 -92.66796875 80.4296875 C-92.67207764 81.5832373 -92.67618652 82.73678711 -92.68041992 83.92529297 C-92.72298777 86.83030642 -92.72298777 86.83030642 -90.4375 88.6875 C-90.4375 90.0075 -90.4375 91.3275 -90.4375 92.6875 C-91.7575 92.6875 -93.0775 92.6875 -94.4375 92.6875 C-94.46279479 85.88819165 -94.48034349 79.08889537 -94.49243164 72.28955078 C-94.49746943 69.97509304 -94.50429981 67.6606385 -94.51293945 65.34619141 C-94.52502924 62.0250571 -94.53073375 58.70396475 -94.53515625 55.3828125 C-94.54031754 54.34319366 -94.54547882 53.30357483 -94.55079651 52.23245239 C-94.55087204 51.27160736 -94.55094757 50.31076233 -94.55102539 49.32080078 C-94.553246 48.47252716 -94.55546661 47.62425354 -94.55775452 46.75027466 C-94.4375 44.6875 -94.4375 44.6875 -93.4375 42.6875 C-93.20514056 40.41984399 -93.05648297 38.15388586 -92.9140625 35.87890625 C-92.35067453 33.28824516 -91.44604143 32.35770423 -89.4375 30.6875 C-88.1175 31.3475 -86.7975 32.0075 -85.4375 32.6875 C-83.91649977 31.16649977 -82.71726768 29.41240426 -81.4375 27.6875 C-81.7675 27.0275 -82.0975 26.3675 -82.4375 25.6875 C-80.04513239 24.49131619 -78.50751797 24.5377858 -75.8359375 24.49804688 C-74.88154785 24.48132935 -73.9271582 24.46461182 -72.94384766 24.4473877 C-71.39383057 24.42702454 -71.39383057 24.42702454 -69.8125 24.40625 C-68.75466309 24.38784058 -67.69682617 24.36943115 -66.60693359 24.35046387 C-62.06683697 24.27160321 -57.52658752 24.20398732 -52.98632812 24.13525391 C-49.67830919 24.08359573 -46.3704205 24.02631739 -43.0625 23.96875 C-41.51248291 23.94838684 -41.51248291 23.94838684 -39.93115234 23.9276123 C-38.9767627 23.91089478 -38.02237305 23.89417725 -37.0390625 23.87695312 C-36.19682129 23.86442505 -35.35458008 23.85189697 -34.48681641 23.83898926 C-32.37216368 23.81318971 -32.37216368 23.81318971 -30.4375 22.6875 C-31.7955976 19.44701396 -33.04071731 17.98419683 -36.0625 16.21484375 C-36.76890625 15.79009766 -37.4753125 15.36535156 -38.203125 14.92773438 C-38.94046875 14.49783203 -39.6778125 14.06792969 -40.4375 13.625 C-41.89932731 12.76502641 -43.35782115 11.8993547 -44.8125 11.02734375 C-45.45960937 10.64956787 -46.10671875 10.27179199 -46.7734375 9.88256836 C-48.4375 8.6875 -48.4375 8.6875 -50.4375 5.6875 C-46.39466545 1.36584927 -43.67368576 0.58405303 -37.84375 0.37109375 C-36.173125 0.30825195 -36.173125 0.30825195 -34.46875 0.24414062 C-33.3034375 0.20482422 -32.138125 0.16550781 -30.9375 0.125 C-29.803125 0.08181641 -28.66875 0.03863281 -27.5 -0.00585938 C-18.34083474 -0.33672372 -9.15215239 -0.63332398 0 0 Z " fill="#104B84" transform="translate(94.4375,35.3125)"/>
<path d="M0 0 C0.66 0 1.32 0 2 0 C2 39.6 2 79.2 2 120 C-38.92 120 -79.84 120 -122 120 C-122.33 118.68 -122.66 117.36 -123 116 C-123.66 115.34 -124.32 114.68 -125 114 C-125.25878906 111.30126953 -125.25878906 111.30126953 -125.265625 107.8828125 C-125.26820312 106.635 -125.27078125 105.3871875 -125.2734375 104.1015625 C-125.26570313 102.78929688 -125.25796875 101.47703125 -125.25 100.125 C-125.25773437 98.85140625 -125.26546875 97.5778125 -125.2734375 96.265625 C-125.25896268 89.18743589 -124.78458722 82.49367757 -123.4765625 75.53662109 C-122.92779534 72.61567296 -122.60883075 69.71185616 -122.375 66.75 C-122.30023438 65.83734375 -122.22546875 64.9246875 -122.1484375 63.984375 C-122.07496094 63.00210938 -122.07496094 63.00210938 -122 62 C-121.01 62 -120.02 62 -119 62 C-118.48943383 65.79032017 -117.99352367 69.58242622 -117.5 73.375 C-117.35691406 74.43589844 -117.21382812 75.49679688 -117.06640625 76.58984375 C-116.31803947 82.39859541 -115.91067708 88.00635858 -116.00976562 93.86083984 C-115.99753232 96.54054631 -115.5962889 99.01623608 -115 101.625 C-114.66666667 103.08333333 -114.33333333 104.54166667 -114 106 C-113.12263184 106.03758423 -113.12263184 106.03758423 -112.22753906 106.07592773 C-109.56815529 106.19222962 -106.90909597 106.31480067 -104.25 106.4375 C-103.32960938 106.47681641 -102.40921875 106.51613281 -101.4609375 106.55664062 C-100.57148437 106.59853516 -99.68203125 106.64042969 -98.765625 106.68359375 C-97.94868164 106.72025146 -97.13173828 106.75690918 -96.29003906 106.79467773 C-94.09288712 106.99167185 -92.12995334 107.44802699 -90 108 C-88.16717395 108.04312532 -86.33289071 108.04028331 -84.5 108 C-79.3849003 107.88758023 -79.3849003 107.88758023 -77.25634766 108.50927734 C-74.19768743 109.17449126 -71.3697574 109.0198621 -68.2421875 108.9140625 C-67.58561157 108.89327637 -66.92903564 108.87249023 -66.25256348 108.85107422 C-64.12644627 108.78191182 -62.000768 108.70413029 -59.875 108.625 C-58.417484 108.57330521 -56.95996446 108.52171039 -55.50244141 108.47021484 C-52.63556224 108.36729753 -49.76891207 108.25966303 -46.90234375 108.1484375 C-43.63301802 108.02407876 -40.36380127 107.91512643 -37.09375 107.8125 C-35.52077488 107.75148876 -33.94785028 107.68914896 -32.375 107.625 C-31.06273438 107.57601562 -29.75046875 107.52703125 -28.3984375 107.4765625 C-24.68876379 106.95635538 -22.18300031 105.95439065 -19 104 C-16.09745788 98.74778093 -15.87797062 93.08090873 -15.9375 87.1875 C-15.94652344 86.02605469 -15.95554687 84.86460938 -15.96484375 83.66796875 C-15.97644531 82.78753906 -15.98804687 81.90710938 -16 81 C-15.67 81 -15.34 81 -15 81 C-14.85304688 80.24976562 -14.70609375 79.49953125 -14.5546875 78.7265625 C-13.31817944 73.08410619 -11.95834167 68.52985754 -8.75 63.6875 C-6.67661818 60.52635876 -5.56146539 58.67505097 -6.125 54.875 C-6.41375 53.92625 -6.7025 52.9775 -7 52 C-10.82985898 49.96538742 -13.28202791 50.1450923 -17.4765625 50.73999023 C-22.7956614 51.28805915 -28.15891114 51.10065063 -33.5 51.0625 C-35.30597656 51.05573242 -35.30597656 51.05573242 -37.1484375 51.04882812 C-40.09901073 51.0371195 -43.04947859 51.02071995 -46 51 C-45.4046921 47.64526488 -45.18864743 47.14477593 -42.3125 44.9375 C-37.66793884 42.49098219 -32.62950403 41.72006522 -27.51953125 40.71875 C-21.41775157 39.47265959 -15.52456925 37.91227293 -10 35 C-10.08378906 34.32453125 -10.16757813 33.6490625 -10.25390625 32.953125 C-10.40666016 31.61507812 -10.40666016 31.61507812 -10.5625 30.25 C-10.71912109 28.92742188 -10.71912109 28.92742188 -10.87890625 27.578125 C-10.99456676 25.11567549 -10.73638695 23.33461936 -10 21 C-10.99 20.6596875 -10.99 20.6596875 -12 20.3125 C-15.92734533 18.59428642 -19.41260178 16.33225393 -23 14 C-22.67 13.01 -22.34 12.02 -22 11 C-18.71550502 9.83767872 -15.44971948 8.93140318 -12.078125 8.0703125 C-7.13902543 6.69026997 -4.42327845 5.01124612 -1 1 C-0.67 0.67 -0.34 0.34 0 0 Z " fill="#C82E0F" transform="translate(126,8)"/>
<path d="M0 0 C42.24 0 84.48 0 128 0 C125.32432432 5.35135135 125.32432432 5.35135135 123.875 7.6875 C123.52179688 8.28949219 123.16859375 8.89148438 122.8046875 9.51171875 C118.20174657 13.30765056 109.39871797 12.10722526 103.6640625 12.02734375 C101.85807496 12.01467978 100.05208526 12.00232017 98.24609375 11.99023438 C95.45158843 11.96566997 92.65720189 11.93788993 89.86279297 11.90405273 C66.27071226 11.63725004 39.61783041 11.53023092 21.3984375 28.48828125 C17.73264977 32.32720879 14.88702309 36.56608391 12 41 C11.21302734 41.97453125 11.21302734 41.97453125 10.41015625 42.96875 C8.77450398 45.32481421 8.11766154 47.42496229 7.375 50.1875 C6.08853119 54.91146881 6.08853119 54.91146881 5 56 C4.95919217 57.99958364 4.95745644 60.00045254 5 62 C8.47823115 63.15941038 10.45895578 62.70820884 14 62 C13.2884375 63.11375 13.2884375 63.11375 12.5625 64.25 C11.22130673 66.61050015 10.487688 68.36648477 10 71 C9.01 69.68 8.02 68.36 7 67 C4.95694496 67.67168288 4.95694496 67.67168288 3 69 C2.37374244 71.12226476 2.37374244 71.12226476 2.375 73.5 C2.19322034 77.80677966 2.19322034 77.80677966 0 80 C0 53.6 0 27.2 0 0 Z " fill="#06090D" transform="translate(0,0)"/>
<path d="M0 0 C0.96808594 0.05800781 1.93617187 0.11601563 2.93359375 0.17578125 C5.86782431 0.74693163 7.34213013 1.7295852 9.5625 3.6875 C8.9375 5.5390625 8.9375 5.5390625 7.5625 7.6875 C4.875 8.9609375 4.875 8.9609375 1.5625 10.0625 C-8.93224493 13.56556377 -8.93224493 13.56556377 -16.70703125 20.87109375 C-16.94808594 21.47050781 -17.18914062 22.06992187 -17.4375 22.6875 C-14.41320423 24.19964789 -11.26468425 23.86481574 -7.9453125 23.8984375 C-6.4205622 23.92650699 -4.89582275 23.95517146 -3.37109375 23.984375 C-0.96598626 24.02563067 1.43891869 24.06251554 3.84423828 24.08886719 C6.16481451 24.11649877 8.48446761 24.1623687 10.8046875 24.2109375 C11.87987137 24.2158168 11.87987137 24.2158168 12.97677612 24.22079468 C17.10733348 24.32232883 19.55619097 24.77032421 22.5625 27.6875 C22.13080207 31.14108345 21.45359645 33.95265647 20.125 37.1875 C17.14242209 44.834011 16.41366042 53.34817073 16.5625 61.5 C16.64220882 66.41296166 16.43694581 71.08745696 14.5625 75.6875 C9.54228206 80.83644147 4.46704797 80.91283532 -2.3828125 81.22265625 C-3.70948441 81.28712196 -3.70948441 81.28712196 -5.06295776 81.35289001 C-6.93738362 81.44308896 -8.8119102 81.53121484 -10.68652344 81.61743164 C-13.53085421 81.74854128 -16.37479451 81.88640218 -19.21875 82.02539062 C-21.04425165 82.11238276 -22.86977199 82.1989835 -24.6953125 82.28515625 C-25.53627472 82.32576675 -26.37723694 82.36637726 -27.24368286 82.40821838 C-41.25116961 83.04446346 -41.25116961 83.04446346 -47.5625 82.1875 C-51.40617368 81.60751791 -51.40617368 81.60751791 -55.1875 81.6875 C-58.4375 81.6875 -58.4375 81.6875 -60.37670898 81.20068359 C-62.53047648 80.66434675 -64.44423073 80.53106682 -66.66015625 80.4765625 C-67.44583984 80.44820313 -68.23152344 80.41984375 -69.04101562 80.390625 C-70.68401202 80.33842496 -72.32728024 80.29418866 -73.97070312 80.2578125 C-74.75509766 80.226875 -75.53949219 80.1959375 -76.34765625 80.1640625 C-77.06058838 80.14424316 -77.77352051 80.12442383 -78.50805664 80.10400391 C-80.97536724 79.571392 -81.87706599 78.63604575 -83.4375 76.6875 C-85.56740051 69.92686075 -85.72289869 62.57415773 -86.15234375 55.546875 C-86.6680101 48.56771944 -87.5717203 41.63054884 -88.4375 34.6875 C-88.7675 34.6875 -89.0975 34.6875 -89.4375 34.6875 C-89.75042645 37.02077683 -90.06284946 39.35411934 -90.375 41.6875 C-90.54902344 42.986875 -90.72304687 44.28625 -90.90234375 45.625 C-90.99008057 46.30288574 -91.07781738 46.98077148 -91.16821289 47.67919922 C-91.41802223 49.54223789 -91.70361532 51.40038312 -91.9921875 53.2578125 C-92.78315835 59.65755689 -92.62182576 66.12514299 -92.625 72.5625 C-92.63715992 73.90625192 -92.64952808 75.25000196 -92.66210938 76.59375 C-92.66404297 77.85960938 -92.66597656 79.12546875 -92.66796875 80.4296875 C-92.67207764 81.5832373 -92.67618652 82.73678711 -92.68041992 83.92529297 C-92.72298777 86.83030642 -92.72298777 86.83030642 -90.4375 88.6875 C-90.4375 90.0075 -90.4375 91.3275 -90.4375 92.6875 C-91.7575 92.6875 -93.0775 92.6875 -94.4375 92.6875 C-94.46279479 85.88819165 -94.48034349 79.08889537 -94.49243164 72.28955078 C-94.49746943 69.97509304 -94.50429981 67.6606385 -94.51293945 65.34619141 C-94.52502924 62.0250571 -94.53073375 58.70396475 -94.53515625 55.3828125 C-94.54031754 54.34319366 -94.54547882 53.30357483 -94.55079651 52.23245239 C-94.55087204 51.27160736 -94.55094757 50.31076233 -94.55102539 49.32080078 C-94.553246 48.47252716 -94.55546661 47.62425354 -94.55775452 46.75027466 C-94.4375 44.6875 -94.4375 44.6875 -93.4375 42.6875 C-93.20514056 40.41984399 -93.05648297 38.15388586 -92.9140625 35.87890625 C-92.35067453 33.28824516 -91.44604143 32.35770423 -89.4375 30.6875 C-86.27634224 32.05733503 -85.4447908 32.6765638 -83.4375 35.6875 C-83.4375 37.83342222 -83.44452398 39.97969752 -83.49609375 42.125 C-83.4357457 44.76422144 -83.0391872 47.10569852 -82.5 49.6875 C-81.33499079 55.42292997 -81.04916194 61.10186772 -80.86743164 66.9375 C-80.71563635 70.68035052 -80.56358357 72.49837465 -78.4375 75.6875 C-75.06245989 76.20121378 -75.06245989 76.20121378 -71.1875 76.25 C-67.26556264 76.37788926 -63.99819323 76.50014135 -60.26953125 77.74609375 C-57.21959643 78.75993415 -55.50878783 78.70400386 -52.375 78.1875 C-49.45651274 77.7080013 -47.930595 77.46923074 -45.19824219 78.67871094 C-41.86827218 79.8954987 -39.33988315 79.85552146 -35.80078125 79.734375 C-34.50889893 79.693125 -33.2170166 79.651875 -31.88598633 79.609375 C-30.50729149 79.55287633 -29.12862952 79.49557048 -27.75 79.4375 C-26.3459506 79.38532683 -24.94189785 79.3332438 -23.5378418 79.28125 C-6.33387046 78.6984969 -6.33387046 78.6984969 10.5625 75.6875 C12.06922714 70.14199389 12.97720795 64.83863952 13.5 59.125 C14.58625058 48.40829214 16.51361473 38.03005478 19.5625 27.6875 C11.73515036 26.76821036 3.93681244 26.42399214 -3.9375 26.1875 C-11.14623592 25.97099736 -18.27428818 25.717824 -25.43164062 24.79101562 C-27.64626959 24.55447831 -27.64626959 24.55447831 -30.4375 25.6875 C-32.13964111 25.80284189 -33.84571409 25.86391041 -35.55151367 25.89282227 C-37.11279243 25.9227401 -37.11279243 25.9227401 -38.70561218 25.95326233 C-39.82756485 25.96997482 -40.94951752 25.98668732 -42.10546875 26.00390625 C-43.25541824 26.02468735 -44.40536774 26.04546844 -45.59016418 26.06687927 C-49.26838125 26.13233342 -52.94667048 26.19124074 -56.625 26.25 C-59.11654396 26.29318913 -61.60808059 26.33680355 -64.09960938 26.38085938 C-70.21216301 26.48801061 -76.32478864 26.58978483 -82.4375 26.6875 C-79.96868175 24.21868175 -79.23632496 24.4261359 -75.8359375 24.38452148 C-74.40435303 24.35955849 -74.40435303 24.35955849 -72.94384766 24.33409119 C-71.91050293 24.32567703 -70.8771582 24.31726288 -69.8125 24.30859375 C-68.22574463 24.28310204 -68.22574463 24.28310204 -66.60693359 24.25709534 C-63.21718353 24.20382578 -59.82744633 24.16360932 -56.4375 24.125 C-53.04761717 24.08111569 -49.65783102 24.03443145 -46.26806641 23.98219299 C-44.15583516 23.95016969 -42.04351855 23.92330046 -39.93115234 23.90196228 C-38.9767627 23.88847244 -38.02237305 23.8749826 -37.0390625 23.86108398 C-35.77570068 23.84681618 -35.77570068 23.84681618 -34.48681641 23.83226013 C-32.3720036 23.81436775 -32.3720036 23.81436775 -30.4375 22.6875 C-31.7955976 19.44701396 -33.04071731 17.98419683 -36.0625 16.21484375 C-36.76890625 15.79009766 -37.4753125 15.36535156 -38.203125 14.92773438 C-38.94046875 14.49783203 -39.6778125 14.06792969 -40.4375 13.625 C-41.89932731 12.76502641 -43.35782115 11.8993547 -44.8125 11.02734375 C-45.45960937 10.64956787 -46.10671875 10.27179199 -46.7734375 9.88256836 C-48.4375 8.6875 -48.4375 8.6875 -50.4375 5.6875 C-46.39466545 1.36584927 -43.67368576 0.58405303 -37.84375 0.37109375 C-36.173125 0.30825195 -36.173125 0.30825195 -34.46875 0.24414062 C-33.3034375 0.20482422 -32.138125 0.16550781 -30.9375 0.125 C-29.803125 0.08181641 -28.66875 0.03863281 -27.5 -0.00585938 C-18.34083474 -0.33672372 -9.15215239 -0.63332398 0 0 Z " fill="#353A63" transform="translate(94.4375,35.3125)"/>
<path d="M0 0 C0.33 0 0.66 0 1 0 C1 36.96 1 73.92 1 112 C-16.53125 112.0825 -34.0625 112.165 -52.125 112.25 C-60.42229248 112.30462402 -60.42229248 112.30462402 -68.88720703 112.36035156 C-75.65209961 112.37841797 -75.65209961 112.37841797 -78.8210144 112.3817749 C-81.02995019 112.38790937 -83.23887274 112.40196151 -85.44772339 112.42230225 C-88.79757894 112.45160291 -92.14661743 112.45562338 -95.49658203 112.45410156 C-96.47740816 112.468494 -97.45823429 112.48288643 -98.46878242 112.497715 C-104.34965608 112.46197687 -107.43786913 111.75252681 -112 108 C-113.3191582 107.30570621 -114.64649406 106.62469505 -116 106 C-116 105.34 -116 104.68 -116 104 C-110.61672479 102.20083405 -105.96811948 101.71497888 -100.3125 101.8125 C-99.52738037 101.81967041 -98.74226074 101.82684082 -97.93334961 101.83422852 C-81.8301219 102.05662603 -81.8301219 102.05662603 -76 104 C-70.7203151 104.36168601 -65.50483241 103.90722802 -60.26367188 103.2890625 C-48.838353 101.94169422 -37.5244528 101.8588962 -26.04223633 102.07421875 C-24.19601685 102.09935547 -24.19601685 102.09935547 -22.3125 102.125 C-21.21550781 102.14820312 -20.11851563 102.17140625 -18.98828125 102.1953125 C-15.85717921 101.99066531 -13.76746251 101.46370171 -11 100 C-8.77279879 96.65919819 -8.59458041 94.97996347 -8.21875 91.0390625 C-8.09886719 89.84410156 -7.97898437 88.64914063 -7.85546875 87.41796875 C-7.73816406 86.16628906 -7.62085937 84.91460937 -7.5 83.625 C-5.02717391 58.05434783 -5.02717391 58.05434783 -3 54 C-2.92499658 52.41715102 -2.91359882 50.83107464 -2.93408203 49.24658203 C-2.94384064 48.25860626 -2.95359924 47.27063049 -2.96365356 46.25271606 C-2.97822601 45.18189789 -2.99279846 44.11107971 -3.0078125 43.0078125 C-3.02533046 40.75391077 -3.04223858 38.50000422 -3.05859375 36.24609375 C-3.08956881 32.68199493 -3.1250892 29.11813382 -3.17138672 25.55419922 C-3.21367693 22.12203984 -3.23715559 18.69016102 -3.2578125 15.2578125 C-3.28574387 13.65765793 -3.28574387 13.65765793 -3.3142395 12.025177 C-3.31942093 10.53375687 -3.31942093 10.53375687 -3.32470703 9.01220703 C-3.33922409 7.70221237 -3.33922409 7.70221237 -3.35403442 6.36575317 C-2.92573648 3.50375118 -1.93466518 2.11597664 0 0 Z " fill="#F13604" transform="translate(127,16)"/>
<path d="M0 0 C1.67449219 -0.01160156 1.67449219 -0.01160156 3.3828125 -0.0234375 C22.02000584 0.02000584 22.02000584 0.02000584 25.25 3.25 C25.76627576 8.86900127 25.23048241 14.54167529 24.5625 20.125 C24.37107422 21.72988281 24.37107422 21.72988281 24.17578125 23.3671875 C22.99317363 27.04973781 21.47747604 28.197875 18.25 30.25 C16.2578125 31.04296875 16.2578125 31.04296875 14.375 31.4375 C13.75882813 31.57542969 13.14265625 31.71335937 12.5078125 31.85546875 C11.76273438 31.98566406 11.01765625 32.11585937 10.25 32.25 C9.24324219 32.42789063 8.23648438 32.60578125 7.19921875 32.7890625 C2.09813829 33.38444083 -2.93135176 33.43413089 -8.0625 33.4375 C-9.06345703 33.44974609 -10.06441406 33.46199219 -11.09570312 33.47460938 C-12.05025391 33.47654297 -13.00480469 33.47847656 -13.98828125 33.48046875 C-15.2882605 33.48663208 -15.2882605 33.48663208 -16.61450195 33.49291992 C-18.75 33.25 -18.75 33.25 -20.75 31.25 C-21.24081128 27.16545191 -20.8731293 23.05034044 -20.25 19 C-19.50648476 13.42363566 -19.6739761 7.86732178 -19.75 2.25 C-13.19508358 -0.13705049 -6.92175382 -0.04730128 0 0 Z " fill="#407244" transform="translate(75.75,70.75)"/>
<path d="M0 0 C3.19824079 0.01846986 6.39619332 0.02050731 9.59448242 0.02026367 C11.66284427 0.02517379 13.73120419 0.03099989 15.79956055 0.0378418 C17.20764732 0.03951103 17.20764732 0.03951103 18.6441803 0.04121399 C24.68413295 0.08408125 30.60976027 0.4994648 36.6081543 1.20581055 C36.2781543 2.85581055 35.9481543 4.50581055 35.6081543 6.20581055 C30.13656271 7.13869154 24.91249813 7.30987853 19.36987305 7.2331543 C17.56063031 7.22048791 15.7513854 7.20812849 13.94213867 7.19604492 C11.1366469 7.17149292 8.33127408 7.14374068 5.52587891 7.10986328 C-18.08202255 6.8434747 -44.75987001 6.72287548 -62.9934082 23.6940918 C-66.65919593 27.53301933 -69.50482262 31.77189445 -72.3918457 36.20581055 C-73.17881836 37.1803418 -73.17881836 37.1803418 -73.98168945 38.17456055 C-75.61734172 40.53062476 -76.27418416 42.63077284 -77.0168457 45.39331055 C-78.30331452 50.11727936 -78.30331452 50.11727936 -79.3918457 51.20581055 C-79.43265353 53.20539418 -79.43438927 55.20626309 -79.3918457 57.20581055 C-75.91361455 58.36522093 -73.93288992 57.91401939 -70.3918457 57.20581055 C-71.1034082 58.31956055 -71.1034082 58.31956055 -71.8293457 59.45581055 C-73.17053897 61.81631069 -73.9041577 63.57229532 -74.3918457 66.20581055 C-75.3818457 64.88581055 -76.3718457 63.56581055 -77.3918457 62.20581055 C-79.43490075 62.87749343 -79.43490075 62.87749343 -81.3918457 64.20581055 C-82.01810326 66.32807531 -82.01810326 66.32807531 -82.0168457 68.70581055 C-82.19862536 73.01259021 -82.19862536 73.01259021 -84.3918457 75.20581055 C-84.47862873 71.24761444 -84.53216303 67.2896612 -84.5793457 63.33081055 C-84.60448242 62.20288086 -84.62961914 61.07495117 -84.65551758 59.9128418 C-84.66518555 58.83647461 -84.67485352 57.76010742 -84.68481445 56.65112305 C-84.7005249 55.65612793 -84.71623535 54.66113281 -84.73242188 53.63598633 C-84.62003174 52.83402832 -84.5076416 52.03207031 -84.3918457 51.20581055 C-83.4018457 50.54581055 -82.4118457 49.88581055 -81.3918457 49.20581055 C-80.6985114 47.09255151 -80.6985114 47.09255151 -80.3918457 44.64331055 C-78.01748311 31.63996538 -72.27257617 19.93350006 -61.2043457 12.08081055 C-59.61615332 11.09623022 -58.0132495 10.13468255 -56.3918457 9.20581055 C-55.77567383 8.81135742 -55.15950195 8.4169043 -54.5246582 8.01049805 C-47.57589304 3.68753355 -39.92708407 1.78958267 -31.86450195 1.0300293 C-31.05900406 0.95024338 -30.25350616 0.87045746 -29.42359924 0.78825378 C-19.6306038 -0.08317623 -9.82400826 -0.05867127 0 0 Z " fill="#0A1D35" transform="translate(84.391845703125,4.794189453125)"/>
<path d="M0 0 C0.99 0 1.98 0 3 0 C3.21642519 6.32442509 2.92433172 12.02138083 1.5 18.18359375 C0.65563953 22.93971796 0.59624618 27.76201413 0.44140625 32.58203125 C-0.02736641 36.21190805 -0.80236991 38.10619394 -3 41 C-6.64795002 43.43196668 -9.88198947 43.63372477 -14.125 44.0625 C-18.95296266 44.1592999 -18.95296266 44.1592999 -23 46 C-27.34016376 46.35726509 -31.6934586 46.46988584 -36.04541016 46.61254883 C-38.22747947 46.68673435 -40.40844593 46.77752883 -42.58984375 46.86914062 C-43.98173537 46.91769428 -45.37366216 46.96525182 -46.765625 47.01171875 C-48.66489746 47.08072388 -48.66489746 47.08072388 -50.60253906 47.15112305 C-53.93423946 47.00292511 -55.99814923 46.35431099 -59 45 C-61.47651085 45.04297355 -61.47651085 45.04297355 -63.9375 45.5 C-68.16420093 46.04966066 -71.03300915 45.77470643 -75 44 C-75 43.34 -75 42.68 -75 42 C-76.35544922 42.05220703 -76.35544922 42.05220703 -77.73828125 42.10546875 C-78.91777344 42.13253906 -80.09726563 42.15960938 -81.3125 42.1875 C-82.48425781 42.22230469 -83.65601563 42.25710937 -84.86328125 42.29296875 C-88 42 -88 42 -89.90625 40.75 C-91.86697193 37.61284491 -91.17776593 34.61457401 -91 31 C-89 30 -89 30 -85.953125 30.99609375 C-83.49430106 31.95316762 -81.0359631 32.911491 -78.578125 33.87109375 C-74.50184717 35.15716831 -70.93897588 35.96948794 -67 34 C-66.34227572 30.97065509 -66.34227572 30.97065509 -66 28 C-65.34 28 -64.68 28 -64 28 C-63.67 26.68 -63.34 25.36 -63 24 C-61.09391902 27.21182149 -60.77733753 29.53882603 -60.875 33.25 C-60.89304687 34.14203125 -60.91109375 35.0340625 -60.9296875 35.953125 C-60.95289062 36.62859375 -60.97609375 37.3040625 -61 38 C-59.14375 37.7525 -59.14375 37.7525 -57.25 37.5 C-52.83876961 37.03958949 -48.52980122 37.00370522 -44.10473633 37.08276367 C-36.13432862 37.21518281 -28.44874914 36.91118851 -20.5625 35.6875 C-19.77625244 35.56971191 -18.99000488 35.45192383 -18.17993164 35.33056641 C-13.88331955 34.59861002 -10.5492724 33.68683238 -7 31 C-6.01 29.515 -6.01 29.515 -5 28 C-4.34 28 -3.68 28 -3 28 C-2.01 18.76 -1.02 9.52 0 0 Z " fill="#06559F" transform="translate(106,69)"/>
<path d="M0 0 C0.66 0 1.32 0 2 0 C0.88438119 2.51014232 -0.24421627 4.28121873 -2.0625 6.375 C-6.56096614 12.46969606 -5.18612845 21.23166759 -5.18530273 28.52026367 C-5.18747628 30.66410574 -5.20562941 32.80742145 -5.22460938 34.95117188 C-5.24647394 41.14266088 -5.14893771 47.00552986 -3.7578125 53.08203125 C-2.88140963 57.26694295 -3.11397284 59.54778118 -5.5168457 63.28588867 C-6.09631958 64.13437378 -6.09631958 64.13437378 -6.6875 65 C-11.72880287 73.45358053 -12.3665525 82.09772393 -13.07495117 91.77148438 C-13.1597876 92.89232422 -13.24462402 94.01316406 -13.33203125 95.16796875 C-13.39108643 96.17110107 -13.4501416 97.1742334 -13.51098633 98.20776367 C-14.23235527 102.32673348 -15.87021076 104.91153368 -18.86230469 107.79418945 C-21.4992464 109.2816101 -23.18785467 109.34556067 -26.203125 109.29296875 C-27.67265625 109.2784668 -27.67265625 109.2784668 -29.171875 109.26367188 C-30.18765625 109.23853516 -31.2034375 109.21339844 -32.25 109.1875 C-33.28125 109.17396484 -34.3125 109.16042969 -35.375 109.14648438 C-37.91719792 109.11117607 -40.45833223 109.06186036 -43 109 C-43 108.67 -43 108.34 -43 108 C-41.77023438 107.96261719 -40.54046875 107.92523438 -39.2734375 107.88671875 C-37.64059599 107.82102972 -36.00778482 107.75458341 -34.375 107.6875 C-33.56675781 107.66494141 -32.75851563 107.64238281 -31.92578125 107.61914062 C-26.94433859 107.39639319 -23.30471458 106.76876008 -19 104 C-16.09745788 98.74778093 -15.87797062 93.08090873 -15.9375 87.1875 C-15.94652344 86.02605469 -15.95554687 84.86460938 -15.96484375 83.66796875 C-15.97644531 82.78753906 -15.98804687 81.90710938 -16 81 C-15.67 81 -15.34 81 -15 81 C-14.85304688 80.24976562 -14.70609375 79.49953125 -14.5546875 78.7265625 C-13.31817944 73.08410619 -11.95834167 68.52985754 -8.75 63.6875 C-6.67661818 60.52635876 -5.56146539 58.67505097 -6.125 54.875 C-6.41375 53.92625 -6.7025 52.9775 -7 52 C-10.82985898 49.96538742 -13.28202791 50.1450923 -17.4765625 50.73999023 C-22.7956614 51.28805915 -28.15891114 51.10065063 -33.5 51.0625 C-35.30597656 51.05573242 -35.30597656 51.05573242 -37.1484375 51.04882812 C-40.09901073 51.0371195 -43.04947859 51.02071995 -46 51 C-45.4046921 47.64526488 -45.18864743 47.14477593 -42.3125 44.9375 C-37.66793884 42.49098219 -32.62950403 41.72006522 -27.51953125 40.71875 C-21.41775157 39.47265959 -15.52456925 37.91227293 -10 35 C-10.08378906 34.32453125 -10.16757813 33.6490625 -10.25390625 32.953125 C-10.40666016 31.61507812 -10.40666016 31.61507812 -10.5625 30.25 C-10.71912109 28.92742188 -10.71912109 28.92742188 -10.87890625 27.578125 C-10.99456676 25.11567549 -10.73638695 23.33461936 -10 21 C-10.66 20.773125 -11.32 20.54625 -12 20.3125 C-15.92734533 18.59428642 -19.41260178 16.33225393 -23 14 C-22.67 13.01 -22.34 12.02 -22 11 C-18.71550502 9.83767872 -15.44971948 8.93140318 -12.078125 8.0703125 C-7.13902543 6.69026997 -4.42327845 5.01124612 -1 1 C-0.67 0.67 -0.34 0.34 0 0 Z " fill="#A1271B" transform="translate(126,8)"/>
<path d="M0 0 C-2.75474321 2.958327 -5.41168082 4.97629704 -8.9375 6.9375 C-14.79925523 10.36331289 -18.9959115 14.51291576 -23 20 C-23 20.66 -23 21.32 -23 22 C-21.0399719 23.63676257 -21.0399719 23.63676257 -19 25 C-20.98 25.99 -20.98 25.99 -23 27 C-22.17918938 29.18578973 -22.17918938 29.18578973 -19.9609375 29.8515625 C-13.51643879 31.77907118 -8.25543636 32.71027702 -1.5625 31.25 C3.18934174 30.91653742 6.01197685 32.58646911 10 35 C9.505 35.99 9.505 35.99 9 37 C4.23218437 37.95715245 -0.33934989 38.08038384 -5.1875 38 C-17.7991905 37.87129436 -30.40107747 38.49727318 -43 39 C-43 37.68 -43 36.36 -43 35 C-42.34 35 -41.68 35 -41 35 C-40.49440092 33.56445975 -39.9957251 32.1264798 -39.5 30.6875 C-39.2215625 29.88699219 -38.943125 29.08648437 -38.65625 28.26171875 C-37.86066893 25.91230578 -37.86066893 25.91230578 -38 23 C-36.68794898 18.46746011 -34.41262074 16.19005852 -31 13 C-30.39800781 12.35546875 -29.79601562 11.7109375 -29.17578125 11.046875 C-21.51860906 2.92335244 -11.493053 -2.83753884 0 0 Z " fill="#A0271B" transform="translate(50,21)"/>
<path d="M0 0 C1.84271484 0.14501953 1.84271484 0.14501953 3.72265625 0.29296875 C6.9375 0.8125 6.9375 0.8125 9.9375 2.8125 C10.44921875 5.8671875 10.44921875 5.8671875 10.625 9.6875 C10.65698486 10.35426758 10.68896973 11.02103516 10.72192383 11.70800781 C10.81182894 13.74262603 10.87771424 15.77679476 10.9375 17.8125 C10.97875 18.98554687 11.02 20.15859375 11.0625 21.3671875 C11.21941805 29.38962292 11.21941805 29.38962292 8.9375 32.8125 C3.63009565 33.69706739 -0.71683887 31.73897 -5.0625 28.8125 C-7.16519827 25.6584526 -7.51988627 23.99452171 -8.0625 20.3125 C-8.71742576 16.05028471 -9.40736798 11.80378111 -10.1875 7.5625 C-10.35507812 6.64984375 -10.52265625 5.7371875 -10.6953125 4.796875 C-10.81648438 4.14203125 -10.93765625 3.4871875 -11.0625 2.8125 C-7.4811911 -0.66110036 -4.83414138 -0.43207362 0 0 Z " fill="#637430" transform="translate(28.0625,70.1875)"/>
<path d="M0 0 C0.93972656 0.185625 1.87945312 0.37125 2.84765625 0.5625 C3.53730469 0.706875 4.22695312 0.85125 4.9375 1 C4.9375 1.99 4.9375 2.98 4.9375 4 C3.9475 4.50789063 2.9575 5.01578125 1.9375 5.5390625 C0.60329202 6.23269519 -0.72998118 6.92812782 -2.0625 7.625 C-3.09600586 8.16435181 -3.09600586 8.16435181 -4.15039062 8.71459961 C-7.924329 10.72496126 -11.27923025 12.79386975 -14.5625 15.5625 C-17.31920568 17.7357129 -17.90861175 17.98920082 -21.625 18.25 C-25.31227183 16.90917388 -27.27344746 15.41116358 -30.0859375 12.765625 C-33.78372521 9.46246285 -37.96819491 6.78445699 -42.0625 4 C-41.7325 3.01 -41.4025 2.02 -41.0625 1 C-38.17272412 -0.09817105 -35.24399408 -0.18305666 -32.17578125 -0.31640625 C-31.23669922 -0.35830078 -30.29761719 -0.40019531 -29.33007812 -0.44335938 C-27.86731445 -0.50233398 -27.86731445 -0.50233398 -26.375 -0.5625 C-25.41916016 -0.60568359 -24.46332031 -0.64886719 -23.47851562 -0.69335938 C-6.93198602 -1.40394654 -6.93198602 -1.40394654 0 0 Z " fill="#0557A2" transform="translate(91.0625,38)"/>
<path d="M0 0 C3.16115776 1.36983503 3.9927092 1.9890638 6 5 C6 7.14592222 5.99297602 9.29219752 5.94140625 11.4375 C6.0017543 14.07672144 6.3983128 16.41819852 6.9375 19 C8.10250921 24.73542997 8.38833806 30.41436772 8.57006836 36.25 C8.72186365 39.99285052 8.87391643 41.81087465 11 45 C14.37504011 45.51371378 14.37504011 45.51371378 18.25 45.5625 C22.17193736 45.69038926 25.43930677 45.81264135 29.16796875 47.05859375 C32.21790357 48.07243415 33.92871217 48.01650386 37.0625 47.5 C41.5115581 46.76903311 41.5115581 46.76903311 44.10083008 47.9934082 C48.09232096 49.37925384 51.66440059 49.16108092 55.8515625 49.01171875 C57.13358047 48.97773735 57.13358047 48.97773735 58.4414978 48.94306946 C60.24874027 48.89320846 62.0558486 48.83825959 63.86279297 48.77856445 C66.59452719 48.68850463 69.3263374 48.61330668 72.05859375 48.54101562 C76.31162188 48.42275975 80.5622609 48.27239301 84.81311035 48.09222412 C86.73673128 48.0111024 88.66082711 47.94141185 90.58496094 47.87353516 C94.45858919 47.65404243 97.1942271 47.46392985 100.578125 45.515625 C102.70365398 41.75507373 103.18620596 37.99503748 103.75 33.75 C103.87503906 32.90953125 104.00007813 32.0690625 104.12890625 31.203125 C104.43404863 29.13754579 104.71902401 27.06900503 105 25 C105.33 25 105.66 25 106 25 C106.46903575 38.94078472 106.46903575 38.94078472 104 45 C98.97978206 50.14894147 93.90454797 50.22533532 87.0546875 50.53515625 C86.17023956 50.57813339 85.28579163 50.62111053 84.37454224 50.66539001 C82.50011638 50.75558896 80.6255898 50.84371484 78.75097656 50.92993164 C75.90664579 51.06104128 73.06270549 51.19890218 70.21875 51.33789062 C68.39324835 51.42488276 66.56772801 51.5114835 64.7421875 51.59765625 C63.90122528 51.63826675 63.06026306 51.67887726 62.19381714 51.72071838 C48.18633039 52.35696346 48.18633039 52.35696346 41.875 51.5 C38.03132632 50.92001791 38.03132632 50.92001791 34.25 51 C31 51 31 51 29.06079102 50.51318359 C26.90702352 49.97684675 24.99326927 49.84356682 22.77734375 49.7890625 C21.59881836 49.74652344 21.59881836 49.74652344 20.39648438 49.703125 C18.75348798 49.65092496 17.11021976 49.60668866 15.46679688 49.5703125 C14.68240234 49.539375 13.89800781 49.5084375 13.08984375 49.4765625 C12.37691162 49.45674316 11.66397949 49.43692383 10.92944336 49.41650391 C8.46213276 48.883892 7.56043401 47.94854575 6 46 C3.87009949 39.23936075 3.71460131 31.88665773 3.28515625 24.859375 C2.7694899 17.88021944 1.8657797 10.94304884 1 4 C0.67 4 0.34 4 0 4 C-0.31292645 6.33327683 -0.62534946 8.66661934 -0.9375 11 C-1.11152344 12.299375 -1.28554688 13.59875 -1.46484375 14.9375 C-1.59644897 15.95432861 -1.59644897 15.95432861 -1.73071289 16.99169922 C-1.98052223 18.85473789 -2.26611532 20.71288312 -2.5546875 22.5703125 C-3.34565835 28.97005689 -3.18432576 35.43764299 -3.1875 41.875 C-3.19965992 43.21875192 -3.21202808 44.56250196 -3.22460938 45.90625 C-3.22654297 47.17210937 -3.22847656 48.43796875 -3.23046875 49.7421875 C-3.23457764 50.8957373 -3.23868652 52.04928711 -3.24291992 53.23779297 C-3.28548777 56.14280642 -3.28548777 56.14280642 -1 58 C-1 59.32 -1 60.64 -1 62 C-2.32 62 -3.64 62 -5 62 C-5.02529479 55.20069165 -5.04284349 48.40139537 -5.05493164 41.60205078 C-5.05996943 39.28759304 -5.06679981 36.9731385 -5.07543945 34.65869141 C-5.08752924 31.3375571 -5.09323375 28.01646475 -5.09765625 24.6953125 C-5.10281754 23.65569366 -5.10797882 22.61607483 -5.11329651 21.54495239 C-5.11337204 20.58410736 -5.11344757 19.62326233 -5.11352539 18.63330078 C-5.115746 17.78502716 -5.11796661 16.93675354 -5.12025452 16.06277466 C-5 14 -5 14 -4 12 C-3.76764056 9.73234399 -3.61898297 7.46638586 -3.4765625 5.19140625 C-2.91317453 2.60074516 -2.00854143 1.67020423 0 0 Z " fill="#613A4A" transform="translate(5,66)"/>
<path d="M0 0 C2.07134374 3.06558873 3.75200932 5.58404431 3.3359375 9.37890625 C2.95308594 10.33603516 2.95308594 10.33603516 2.5625 11.3125 C-1.125 12.75 -1.125 12.75 -3.5546875 13.4609375 C-7.00041028 14.47877973 -10.36637098 15.66706563 -13.75 16.875 C-14.92175781 17.28878906 -16.09351562 17.70257813 -17.30078125 18.12890625 C-19.78742386 19.06720352 -22.09953437 20.05981224 -24.4375 21.3125 C-23.4375 18.3125 -23.4375 18.3125 -20.7421875 16.8125 C-19.61039062 16.3175 -18.47859375 15.8225 -17.3125 15.3125 C-16.14074219 14.79429688 -14.96898438 14.27609375 -13.76171875 13.7421875 C-12.66472656 13.27039062 -11.56773438 12.79859375 -10.4375 12.3125 C-9.24060547 11.79042969 -9.24060547 11.79042969 -8.01953125 11.2578125 C-6.49684766 10.5985062 -4.968099 9.95321586 -3.4375 9.3125 C-3.9325 7.8275 -3.9325 7.8275 -4.4375 6.3125 C-12.74524779 2.1586261 -25.73919324 4.28864875 -34.8762207 4.55444336 C-37.39454537 4.62555189 -39.91287588 4.67947487 -42.43164062 4.73242188 C-44.0469025 4.77501113 -45.66213853 4.81859472 -47.27734375 4.86328125 C-48.39616188 4.88531364 -48.39616188 4.88531364 -49.5375824 4.90779114 C-53.54285653 5.03963794 -56.91178522 5.32087165 -60.4375 7.3125 C-60.7675 8.3025 -61.0975 9.2925 -61.4375 10.3125 C-60.90382813 10.66441406 -60.37015625 11.01632813 -59.8203125 11.37890625 C-58.24496717 12.42277694 -56.67365318 13.47274595 -55.10546875 14.52734375 C-53.28595371 15.74479378 -51.45458371 16.94466608 -49.61328125 18.12890625 C-48.70964844 18.72574219 -47.80601563 19.32257812 -46.875 19.9375 C-46.02808594 20.48664062 -45.18117187 21.03578125 -44.30859375 21.6015625 C-43.38240234 22.44847656 -43.38240234 22.44847656 -42.4375 23.3125 C-42.4375 24.6325 -42.4375 25.9525 -42.4375 27.3125 C-44.85524581 28.52137291 -46.37081064 28.43309343 -49.07080078 28.42602539 C-50.03164581 28.42594986 -50.99249084 28.42587433 -51.98245239 28.42579651 C-53.02207123 28.42063522 -54.06169006 28.41547394 -55.1328125 28.41015625 C-56.19539276 28.4087413 -57.25797302 28.40732635 -58.35275269 28.40586853 C-61.75603009 28.40025834 -65.15924238 28.38770409 -68.5625 28.375 C-70.86588447 28.36998631 -73.16926997 28.36542318 -75.47265625 28.36132812 C-81.12762649 28.3502856 -86.78255859 28.33353752 -92.4375 28.3125 C-92.4375 27.9825 -92.4375 27.6525 -92.4375 27.3125 C-91.62297363 27.28744385 -90.80844727 27.2623877 -89.96923828 27.23657227 C-74.78154781 26.76416632 -59.60358514 26.27836179 -44.4375 25.3125 C-51.26334052 19.693951 -56.70646088 17.77794658 -65.4375 18.3125 C-66.71003436 14.66456816 -67.76579194 11.1188457 -68.4375 7.3125 C-67.2608992 6.48429528 -66.07045447 5.67575034 -64.875 4.875 C-63.88306641 4.19630859 -63.88306641 4.19630859 -62.87109375 3.50390625 C-57.07956973 0.66856945 -50.65176299 1.28253363 -44.375 1.4375 C-35.77421043 1.56031071 -27.52505768 0.73438899 -19.03686523 -0.62060547 C-4.25450154 -2.94542414 -4.25450154 -2.94542414 0 0 Z " fill="#572431" transform="translate(106.4375,31.6875)"/>
<path d="M0 0 C1.77049689 -0.05410687 3.54146849 -0.09284119 5.3125 -0.125 C6.29863281 -0.14820312 7.28476563 -0.17140625 8.30078125 -0.1953125 C11 0 11 0 14 2 C14.52555442 6.65491053 14.19313531 11.32513498 14 16 C13.98066406 16.969375 13.96132812 17.93875 13.94140625 18.9375 C13.89886719 19.783125 13.85632813 20.62875 13.8125 21.5 C13.77769531 22.2321875 13.74289063 22.964375 13.70703125 23.71875 C12.62956486 27.19521613 10.78319218 29.72202191 8 32 C5.17945081 32.90129235 2.93934794 33.44654998 0.0625 33.8125 C-0.62779297 33.92013672 -1.31808594 34.02777344 -2.02929688 34.13867188 C-4.01655467 34.44570791 -6.00827415 34.72342668 -8 35 C-8.94875 35.185625 -9.8975 35.37125 -10.875 35.5625 C-15.27617431 36.1786644 -19.6237987 36.18425296 -24.0625 36.1875 C-24.94744141 36.19974609 -25.83238281 36.21199219 -26.74414062 36.22460938 C-27.60330078 36.22654297 -28.46246094 36.22847656 -29.34765625 36.23046875 C-30.12117432 36.23457764 -30.89469238 36.23868652 -31.69165039 36.24291992 C-34 36 -34 36 -39 34 C-39 24.76 -39 15.52 -39 6 C-40.32 6 -41.64 6 -43 6 C-43 4.35 -43 2.7 -43 1 C-39.37 1 -35.74 1 -32 1 C-31.97311136 4.12505696 -31.95321538 7.24988425 -31.9375 10.375 C-31.92912109 11.26445313 -31.92074219 12.15390625 -31.91210938 13.0703125 C-31.90888672 13.92109375 -31.90566406 14.771875 -31.90234375 15.6484375 C-31.89710693 16.43395996 -31.89187012 17.21948242 -31.88647461 18.02880859 C-32 20 -32 20 -33 22 C-33.09472912 23.51845202 -33.1298841 25.04110384 -33.125 26.5625 C-33.12757812 27.36816406 -33.13015625 28.17382812 -33.1328125 29.00390625 C-33.22011391 30.99942021 -33.22011391 30.99942021 -32 32 C-19.3232628 32.95573475 -5.37831534 32.98211224 6.6875 28.6875 C12.31975984 22.14190073 11.2455969 11.22749624 11 3 C7.37 2.34 3.74 1.68 0 1 C0 0.67 0 0.34 0 0 Z " fill="#1A6866" transform="translate(89,71)"/>
<path d="M0 0 C0.495 1.485 0.495 1.485 1 3 C-0.22265625 5.0078125 -0.22265625 5.0078125 -2.0625 7.125 C-2.65160156 7.82882813 -3.24070312 8.53265625 -3.84765625 9.2578125 C-8.48249615 13.0094252 -15.32186299 12.16118602 -21.04296875 12.2109375 C-22.84498199 12.23660546 -24.6469838 12.26308571 -26.44897461 12.2902832 C-27.38659637 12.30354645 -28.32421814 12.31680969 -29.29025269 12.33047485 C-43.04362293 12.54183783 -56.75396405 12.81743409 -70.4375 14.3125 C-71.45674561 14.41804199 -72.47599121 14.52358398 -73.52612305 14.63232422 C-87.46329277 16.33862982 -99.43146025 20.97357993 -108.48828125 31.97265625 C-110.66400234 34.89048376 -112.4223797 37.71329104 -114 41 C-113.67 41.66 -113.34 42.32 -113 43 C-113.99609375 45.6015625 -113.99609375 45.6015625 -115.4375 48.625 C-115.91058594 49.62789062 -116.38367188 50.63078125 -116.87109375 51.6640625 C-117.24363281 52.43492188 -117.61617187 53.20578125 -118 54 C-118.66 54 -119.32 54 -120 54 C-120 55.32 -120 56.64 -120 58 C-117.69 58 -115.38 58 -113 58 C-115.57089417 60.11180592 -117.63060567 61.66306057 -121 62 C-123 60 -123 60 -123.3125 57.25 C-122.95369896 53.51846921 -121.77618431 51.27910949 -120 48 C-119.70996094 47.06800781 -119.41992188 46.13601562 -119.12109375 45.17578125 C-115.19846896 34.06395562 -105.44953106 22.53210468 -95 17 C-73.97779643 8.486335 -52.26373717 8.85636737 -30.01953125 9.09594727 C-27.01561904 9.12616723 -24.01182818 9.14391127 -21.0078125 9.16015625 C-20.0921048 9.17361588 -19.17639709 9.1870755 -18.23294067 9.20094299 C-13.45446849 9.21967849 -9.41467826 9.07042335 -5 7 C-2.66585353 4.04150073 -2.66585353 4.04150073 -1 1 C-0.67 0.67 -0.34 0.34 0 0 Z " fill="#54202E" transform="translate(127,2)"/>
<path d="M0 0 C0.66 0.33 1.32 0.66 2 1 C2.50244141 3.15795898 2.50244141 3.15795898 2.8515625 5.99609375 C2.98046875 7.03056641 3.109375 8.06503906 3.2421875 9.13085938 C3.36851563 10.22205078 3.49484375 11.31324219 3.625 12.4375 C3.82609375 14.02208008 3.82609375 14.02208008 4.03125 15.63867188 C4.72959054 21.42135912 5.07609735 27.03703322 4.98583984 32.85864258 C5.00355839 35.53811476 5.40372215 38.01628442 6 40.625 C6.33 42.06875 6.66 43.5125 7 45 C13.6 45.33 20.2 45.66 27 46 C27 46.33 27 46.66 27 47 C21.67981083 47.72138158 16.43233536 48.13067033 11.0625 48.25 C9.40927734 48.28867188 9.40927734 48.28867188 7.72265625 48.328125 C6.82417969 48.21984375 5.92570313 48.1115625 5 48 C2.73376481 44.60064721 2.66425728 43.01408632 2.4375 39 C2.3653125 37.85144531 2.293125 36.70289063 2.21875 35.51953125 C2.1465625 34.35808594 2.074375 33.19664063 2 32 C1.82064954 29.89512304 1.63392203 27.79085256 1.4375 25.6875 C1.29166069 24.12500056 1.14582632 22.56250065 1 21 C-0.06695383 40.41288713 -0.06695383 40.41288713 4 59 C2.35 59 0.7 59 -1 59 C-1.12375 58.38125 -1.2475 57.7625 -1.375 57.125 C-1.87197356 54.80879168 -1.87197356 54.80879168 -4 53 C-4.25878906 50.30126953 -4.25878906 50.30126953 -4.265625 46.8828125 C-4.26820313 45.635 -4.27078125 44.3871875 -4.2734375 43.1015625 C-4.26570312 41.78929687 -4.25796875 40.47703125 -4.25 39.125 C-4.25773438 37.85140625 -4.26546875 36.5778125 -4.2734375 35.265625 C-4.25895717 28.18474519 -3.78158085 21.49162171 -2.47216797 14.53222656 C-1.93131538 11.63164587 -1.64176516 8.75478747 -1.4375 5.8125 C-1.10769231 1.10769231 -1.10769231 1.10769231 0 0 Z " fill="#9C261B" transform="translate(5,69)"/>
<path d="M0 0 C0.93972656 0.185625 1.87945312 0.37125 2.84765625 0.5625 C3.53730469 0.706875 4.22695312 0.85125 4.9375 1 C4.9375 1.99 4.9375 2.98 4.9375 4 C3.9475 4.50789063 2.9575 5.01578125 1.9375 5.5390625 C0.60329202 6.23269519 -0.72998118 6.92812782 -2.0625 7.625 C-3.09600586 8.16435181 -3.09600586 8.16435181 -4.15039062 8.71459961 C-7.924329 10.72496126 -11.27923025 12.79386975 -14.5625 15.5625 C-17.31920568 17.7357129 -17.90861175 17.98920082 -21.625 18.25 C-25.31227183 16.90917388 -27.27344746 15.41116358 -30.0859375 12.765625 C-33.78372521 9.46246285 -37.96819491 6.78445699 -42.0625 4 C-41.7325 3.01 -41.4025 2.02 -41.0625 1 C-38.17272412 -0.09817105 -35.24399408 -0.18305666 -32.17578125 -0.31640625 C-31.23669922 -0.35830078 -30.29761719 -0.40019531 -29.33007812 -0.44335938 C-27.86731445 -0.50233398 -27.86731445 -0.50233398 -26.375 -0.5625 C-25.41916016 -0.60568359 -24.46332031 -0.64886719 -23.47851562 -0.69335938 C-6.93198602 -1.40394654 -6.93198602 -1.40394654 0 0 Z M-35.0625 4 C-33.41806924 5.694262 -31.75066402 7.3501067 -30.0625 9 C-29.51980469 9.56203125 -28.97710937 10.1240625 -28.41796875 10.703125 C-27.84691406 11.25484375 -27.27585937 11.8065625 -26.6875 12.375 C-26.16414063 12.89835937 -25.64078125 13.42171875 -25.1015625 13.9609375 C-21.8113912 15.6375382 -19.58346811 14.88300141 -16.0625 14 C-13.4292789 12.75329797 -11.04405857 11.24282541 -8.625 9.625 C-7.98884766 9.22539063 -7.35269531 8.82578125 -6.69726562 8.4140625 C-4.66185408 7.12385887 -4.66185408 7.12385887 -2.0625 5 C-2.0625 4.01 -2.0625 3.02 -2.0625 2 C-11.64677719 -0.78895826 -26.04053449 -0.09484044 -35.0625 4 Z " fill="#104B85" transform="translate(91.0625,38)"/>
<path d="M0 0 C1.93896484 0.46557617 1.93896484 0.46557617 4 2 C4.55194626 4.94879895 4.83736091 7.5760219 4.9765625 10.55078125 C5.0327475 11.40173874 5.0889325 12.25269623 5.14682007 13.12944031 C5.32431073 15.85634934 5.47609264 18.58389275 5.625 21.3125 C5.78475195 24.02996726 5.95003706 26.74686815 6.12460327 29.46342468 C6.23209821 31.15458998 6.33048975 32.84636504 6.41860962 34.53865051 C6.6712979 38.69977739 6.98020325 42.25566373 9 46 C11.79470022 47.39735011 14.07273679 47.01993907 17.1875 46.9375 C22.26086878 46.8868788 26.2605143 47.23647044 31 49 C26.5676987 50.27901593 22.50215359 49.98929082 17.9375 49.75 C17.12216797 49.72292969 16.30683594 49.69585937 15.46679688 49.66796875 C14.68240234 49.62800781 13.89800781 49.58804688 13.08984375 49.546875 C12.02044556 49.49805176 12.02044556 49.49805176 10.92944336 49.44824219 C8.48024105 48.87925124 7.55821151 47.94045334 6 46 C3.87009949 39.23936075 3.71460131 31.88665773 3.28515625 24.859375 C2.7694899 17.88021944 1.8657797 10.94304884 1 4 C0.67 4 0.34 4 0 4 C-0.31292645 6.33327683 -0.62534946 8.66661934 -0.9375 11 C-1.11152344 12.299375 -1.28554688 13.59875 -1.46484375 14.9375 C-1.59644897 15.95432861 -1.59644897 15.95432861 -1.73071289 16.99169922 C-1.98052223 18.85473789 -2.26611532 20.71288312 -2.5546875 22.5703125 C-3.34565835 28.97005689 -3.18432576 35.43764299 -3.1875 41.875 C-3.19965992 43.21875192 -3.21202808 44.56250196 -3.22460938 45.90625 C-3.22654297 47.17210937 -3.22847656 48.43796875 -3.23046875 49.7421875 C-3.23457764 50.8957373 -3.23868652 52.04928711 -3.24291992 53.23779297 C-3.28548777 56.14280642 -3.28548777 56.14280642 -1 58 C-1 59.32 -1 60.64 -1 62 C-2.32 62 -3.64 62 -5 62 C-5.02529479 55.20069165 -5.04284349 48.40139537 -5.05493164 41.60205078 C-5.05996943 39.28759304 -5.06679981 36.9731385 -5.07543945 34.65869141 C-5.08752924 31.3375571 -5.09323375 28.01646475 -5.09765625 24.6953125 C-5.10281754 23.65569366 -5.10797882 22.61607483 -5.11329651 21.54495239 C-5.11337204 20.58410736 -5.11344757 19.62326233 -5.11352539 18.63330078 C-5.115746 17.78502716 -5.11796661 16.93675354 -5.12025452 16.06277466 C-5 14 -5 14 -4 12 C-3.76764056 9.73234399 -3.61898297 7.46638586 -3.4765625 5.19140625 C-2.91317453 2.60074516 -2.00854143 1.67020423 0 0 Z " fill="#5E2C38" transform="translate(5,66)"/>
<path d="M0 0 C0 0.33 0 0.66 0 1 C-13.13827528 2.40377837 -26.26892044 3.25291854 -39.47253418 3.67288208 C-41.06323862 3.72394288 -42.65382608 3.7788012 -44.2442627 3.83761597 C-52.41957588 4.13277724 -60.06559672 4.34959551 -68 2 C-67.67 1.34 -67.34 0.68 -67 0 C-62.22010316 -1.53570983 -57.08524705 -1.067426 -52.125 -1 C-44.45449276 -0.94171951 -36.92308973 -1.19705185 -29.2734375 -1.76953125 C-19.25716887 -2.47473393 -9.8935914 -1.49538763 0 0 Z " fill="#0557A2" transform="translate(90,63)"/>
<path d="M0 0 C1.84271484 0.14501953 1.84271484 0.14501953 3.72265625 0.29296875 C6.9375 0.8125 6.9375 0.8125 9.9375 2.8125 C10.44921875 5.8671875 10.44921875 5.8671875 10.625 9.6875 C10.65698486 10.35426758 10.68896973 11.02103516 10.72192383 11.70800781 C10.81182894 13.74262603 10.87771424 15.77679476 10.9375 17.8125 C10.97875 18.98554687 11.02 20.15859375 11.0625 21.3671875 C11.21941805 29.38962292 11.21941805 29.38962292 8.9375 32.8125 C3.63009565 33.69706739 -0.71683887 31.73897 -5.0625 28.8125 C-7.16519827 25.6584526 -7.51988627 23.99452171 -8.0625 20.3125 C-8.71742576 16.05028471 -9.40736798 11.80378111 -10.1875 7.5625 C-10.35507812 6.64984375 -10.52265625 5.7371875 -10.6953125 4.796875 C-10.81648438 4.14203125 -10.93765625 3.4871875 -11.0625 2.8125 C-7.4811911 -0.66110036 -4.83414138 -0.43207362 0 0 Z M-8.0625 2.8125 C-7.48905063 5.67974686 -7.2010485 6.6739515 -5.0625 8.8125 C-5.31 9.7096875 -5.31 9.7096875 -5.5625 10.625 C-6.29686331 12.86331852 -6.29686331 12.86331852 -5.125 15.0625 C-4.05579345 17.82985814 -4.04804571 19.01043786 -4.25 21.875 C-4.46156727 25.84252606 -4.46156727 25.84252606 -2 28.25 C1.36629968 30.04058494 4.15615556 30.51592397 7.9375 30.8125 C10.44708665 27.04812003 10.0255331 24.3704567 9.6875 20.0625 C9.64753906 19.3715625 9.60757813 18.680625 9.56640625 17.96875 C9.24427493 13.337024 8.34982815 9.23470782 6.9375 4.8125 C1.86273206 3.54944665 -2.79046354 2.54213916 -8.0625 2.8125 Z " fill="#406947" transform="translate(28.0625,70.1875)"/>
<path d="M0 0 C2.15234375 0.32421875 2.15234375 0.32421875 4.0625 1.0625 C6.38862487 4.84245292 8.0233797 8.61843141 7.0625 13.0625 C4.44927659 15.90630195 2.83837857 16.9516602 -1 17.5 C-4.23694711 17.01790149 -5.44794651 16.08091218 -7.9375 14.0625 C-7.65581703 12.10270573 -7.36183283 10.14467622 -7.0625 8.1875 C-6.90007812 7.09695312 -6.73765625 6.00640625 -6.5703125 4.8828125 C-5.55334841 0.35041697 -4.66237436 0.07400594 0 0 Z " fill="#1A6967" transform="translate(76.9375,75.9375)"/>
<path d="M0 0 C2.125 0.375 2.125 0.375 4 1 C3.01 1.66 2.02 2.32 1 3 C1.12117188 3.65484375 1.24234375 4.3096875 1.3671875 4.984375 C1.53476562 5.89703125 1.70234375 6.8096875 1.875 7.75 C2.060625 8.74644531 2.24625 9.74289063 2.4375 10.76953125 C2.81310618 12.92665842 3.14641415 15.09156976 3.4375 17.26171875 C3.581875 18.30972656 3.72625 19.35773438 3.875 20.4375 C3.99617188 21.40558594 4.11734375 22.37367187 4.2421875 23.37109375 C5.16480986 26.57173729 6.4642779 27.88848705 9 30 C12.75607554 31.97688186 15.78792342 32.19591054 20 32 C23.29440496 25.41119007 20.78684187 14.69140137 20.0234375 7.6171875 C20.01570313 6.75351563 20.00796875 5.88984375 20 5 C20.66 4.34 21.32 3.68 22 3 C24.94955322 26.52329635 24.94955322 26.52329635 23 33 C19.25987027 35.49341982 17.70467384 35.13471013 13.421875 34.546875 C8.15802695 33.35826415 4.01608667 31.52413 1 27 C0.49755859 24.90283203 0.49755859 24.90283203 0.1484375 22.5078125 C0.01953125 21.63769531 -0.109375 20.76757812 -0.2421875 19.87109375 C-0.36851563 18.96488281 -0.49484375 18.05867188 -0.625 17.125 C-0.82609375 15.77728516 -0.82609375 15.77728516 -1.03125 14.40234375 C-2.26795247 5.85900121 -2.26795247 5.85900121 -2 2 C-1.34 1.34 -0.68 0.68 0 0 Z " fill="#1A6967" transform="translate(17,70)"/>
<path d="M0 0 C-1.45664847 4.12717066 -3.56257615 7.38079489 -6 11 C-8.26678131 15.02983345 -9.45289171 18.40429033 -10 23 C-8.35 23.33 -6.7 23.66 -5 24 C-7.88628401 25.57554035 -10.53342384 26.46276373 -13.75 27.125 C-14.54921875 27.29257812 -15.3484375 27.46015625 -16.171875 27.6328125 C-16.77515625 27.75398438 -17.3784375 27.87515625 -18 28 C-19.17562989 24.47311033 -18.53729472 23.43608852 -16.95410156 20.21386719 C-16.48182129 19.30362793 -16.48182129 19.30362793 -16 18.375 C-15.68256836 17.75270508 -15.36513672 17.13041016 -15.03808594 16.48925781 C-6.37973277 0 -6.37973277 0 0 0 Z " fill="#CB2F0F" transform="translate(27,31)"/>
<path d="M0 0 C2 1.625 2 1.625 3 4 C2.8303821 8.74930114 2.01490991 11.40529972 -1 15 C-4.26847407 20.36029748 -5.07557097 25.88789276 -6 32 C-6.33 32 -6.66 32 -7 32 C-7.4154099 24.66109179 -6.29596455 17.43939999 -2.8828125 10.83984375 C-1.64139759 8.25264719 -2.13312904 6.67285213 -3 4 C-6.04022205 2.47988897 -9.22427301 2.80182969 -12.5625 2.75390625 C-14.09636011 2.72097904 -15.63021414 2.68776721 -17.1640625 2.65429688 C-19.58687298 2.60679561 -22.0096568 2.56234396 -24.43261719 2.52319336 C-26.76783611 2.48357719 -29.10255466 2.4320204 -31.4375 2.37890625 C-32.16461182 2.3704921 -32.89172363 2.36207794 -33.64086914 2.35340881 C-38.7732994 2.2267006 -38.7732994 2.2267006 -41 0 C-40.14768799 0.00523682 -39.29537598 0.01047363 -38.41723633 0.01586914 C-35.23966727 0.03296332 -32.06212175 0.04547562 -28.88452148 0.05493164 C-27.51211778 0.05994454 -26.13971938 0.06675658 -24.76733398 0.07543945 C-22.78892349 0.08763857 -20.8104732 0.09272248 -18.83203125 0.09765625 C-17.04889526 0.10551147 -17.04889526 0.10551147 -15.22973633 0.11352539 C-1.52886796 -0.36806081 -1.52886796 -0.36806081 0 0 Z " fill="#753034" transform="translate(118,58)"/>
<path d="M0 0 C2 2 2 2 2 5.9375 C1.98066406 6.75089844 1.96132812 7.56429687 1.94140625 8.40234375 C2.00125924 11.05582638 2.3946722 13.40472842 2.9375 16 C4.10250921 21.73542997 4.38833806 27.41436772 4.57006836 33.25 C4.72186365 36.99285052 4.87391643 38.81087465 7 42 C10.37504011 42.51371378 10.37504011 42.51371378 14.25 42.5625 C18.16821749 42.69026796 21.43245477 42.80964758 25.15625 44.05859375 C28.25185856 45.08337625 30.06345327 45.00828353 33.25 44.5 C35.828125 44.09375 35.828125 44.09375 38 44 C38.66 44.66 39.32 45.32 40 46 C38.865625 46.144375 37.73125 46.28875 36.5625 46.4375 C33.19222799 46.61171478 33.19222799 46.61171478 32 48 C30.33382885 48.04063832 28.66611905 48.042721 27 48 C27 47.34 27 46.68 27 46 C21.65226013 45.44023657 16.44111069 44.92753382 11.0625 45.1875 C7.84623959 45.23352877 7.22773375 45.16510697 4.5 43.1875 C1.13456462 38.27957341 1.40756595 32.44340962 0.9375 26.6875 C0.84807129 25.60984375 0.75864258 24.5321875 0.66650391 23.421875 C0.04952438 15.59034815 -0.24899008 7.85702043 0 0 Z " fill="#373A61" transform="translate(9,69)"/>
<path d="M0 0 C2.45840605 -0.02691685 4.91651882 -0.04679802 7.375 -0.0625 C8.07367188 -0.07087891 8.77234375 -0.07925781 9.4921875 -0.08789062 C14.7734375 -0.11328125 14.7734375 -0.11328125 17 1 C17.49230769 8.38461538 17.49230769 8.38461538 15 11.5 C14.34 11.995 13.68 12.49 13 13 C11.125 12.3125 11.125 12.3125 9 11 C8.71125 10.195625 8.4225 9.39125 8.125 8.5625 C6.5778933 5.03853474 4.39539564 4.58933413 1 3 C0.67 2.01 0.34 1.02 0 0 Z " fill="#637430" transform="translate(81,73)"/>
<path d="M0 0 C0.6875 2.3125 0.6875 2.3125 1 5 C-0.73790237 7.57209551 -1.99472306 7.99866716 -5.03125 8.765625 C-6.1759375 8.92546875 -7.320625 9.0853125 -8.5 9.25 C-9.6446875 9.42015625 -10.789375 9.5903125 -11.96875 9.765625 C-15 10 -15 10 -18 9 C-16.60802671 5.61743279 -15.1974504 4.16311318 -12.0625 2.3125 C-11.37285156 1.89613281 -10.68320313 1.47976562 -9.97265625 1.05078125 C-6.19957259 -0.95903955 -4.07164649 -0.9904005 0 0 Z " fill="#637530" transform="translate(95,91)"/>
<path d="M0 0 C0.66 0.33 1.32 0.66 2 1 C2 4.3 2 7.6 2 11 C1.34 11 0.68 11 0 11 C-1.0268737 25.42362601 -0.86610318 39.56887489 0 54 C-0.99 54.495 -0.99 54.495 -2 55 C-4.73865647 52.26134353 -4.257967 50.71236174 -4.265625 46.8828125 C-4.26820313 45.635 -4.27078125 44.3871875 -4.2734375 43.1015625 C-4.26570312 41.78929687 -4.25796875 40.47703125 -4.25 39.125 C-4.25773438 37.85140625 -4.26546875 36.5778125 -4.2734375 35.265625 C-4.25895717 28.18474519 -3.78158085 21.49162171 -2.47216797 14.53222656 C-1.93131538 11.63164587 -1.64176516 8.75478747 -1.4375 5.8125 C-1.10769231 1.10769231 -1.10769231 1.10769231 0 0 Z " fill="#81221F" transform="translate(5,69)"/>
<path d="M0 0 C4.70270446 2.12741392 8.16393369 4.62060825 12 8 C9.33527956 10.66472044 7.64895482 10.41765644 3.9375 10.6875 C2.85339844 10.77386719 1.76929688 10.86023438 0.65234375 10.94921875 C-0.22292969 10.96597656 -1.09820312 10.98273438 -2 11 C-3.89128342 9.10871658 -3.2366852 6.42932274 -3.328125 3.91015625 C-3.16570313 2.96462891 -3.16570313 2.96462891 -3 2 C-2.01 1.34 -1.02 0.68 0 0 Z " fill="#637530" transform="translate(61,91)"/>
<path d="M0 0 C1.81274414 0.01353516 1.81274414 0.01353516 3.66210938 0.02734375 C6.62911278 0.05079832 9.59570143 0.08362206 12.5625 0.125 C12.5625 0.455 12.5625 0.785 12.5625 1.125 C9.9225 1.455 7.2825 1.785 4.5625 2.125 C4.2325 3.445 3.9025 4.765 3.5625 6.125 C1.2525 5.465 -1.0575 4.805 -3.4375 4.125 C-3.4375 3.465 -3.4375 2.805 -3.4375 2.125 C-4.19675781 2.3415625 -4.95601562 2.558125 -5.73828125 2.78125 C-6.73214844 3.0596875 -7.72601563 3.338125 -8.75 3.625 C-10.22919922 4.04265625 -10.22919922 4.04265625 -11.73828125 4.46875 C-14.4375 5.125 -14.4375 5.125 -17.4375 5.125 C-17.4375 4.465 -17.4375 3.805 -17.4375 3.125 C-18.4275 2.795 -19.4175 2.465 -20.4375 2.125 C-13.69161569 -0.39108607 -7.1282732 -0.10111026 0 0 Z " fill="#37485B" transform="translate(76.4375,70.875)"/>
<path d="M0 0 C-1 3 -1 3 -4 5 C-5.07136051 7.30144109 -6.07989717 9.6340213 -7 12 C-8.32 12 -9.64 12 -11 12 C-11.20086443 8.28400809 -11.1519437 7.22791555 -9 4 C-9 3.01 -9 2.02 -9 1 C-6.04335481 -0.4783226 -3.25770263 -0.06032783 0 0 Z " fill="#637530" transform="translate(71,74)"/>
<path d="M0 0 C0.33 0.66 0.66 1.32 1 2 C0.00390625 4.6015625 0.00390625 4.6015625 -1.4375 7.625 C-1.91058594 8.62789062 -2.38367188 9.63078125 -2.87109375 10.6640625 C-3.24363281 11.43492188 -3.61617187 12.20578125 -4 13 C-4.66 13 -5.32 13 -6 13 C-6 14.32 -6 15.64 -6 17 C-3.69 17 -1.38 17 1 17 C-1.57089417 19.11180592 -3.63060567 20.66306057 -7 21 C-9 19 -9 19 -9.3125 16 C-9.209375 15.01 -9.10625 14.02 -9 13 C-8.01 12.34 -7.02 11.68 -6 11 C-5.0998674 8.88366155 -5.0998674 8.88366155 -4.5 6.5 C-3.33333333 2.22222222 -3.33333333 2.22222222 0 0 Z " fill="#8F241D" transform="translate(13,43)"/>
<path d="M0 0 C3 2 3 2 3.51171875 4.1640625 C3.56972656 4.97617188 3.62773438 5.78828125 3.6875 6.625 C3.75324219 7.44226563 3.81898437 8.25953125 3.88671875 9.1015625 C3.92410156 9.72804688 3.96148437 10.35453125 4 11 C2.34385343 11.38218767 0.67542976 11.71395102 -1 12 C-2.87643761 10.12356239 -2.17984987 7.50194299 -2.23046875 5.0078125 C-2 3 -2 3 0 0 Z " fill="#104B85" transform="translate(76,77)"/>
<path d="M0 0 C3 1 3 1 5 2 C5 2.33 5 2.66 5 3 C-0.08086796 3.84681133 -4.84828377 4.09038099 -10 4 C-10 3.01 -10 2.02 -10 1 C-6.82587823 -0.58706088 -3.46361333 -0.28477127 0 0 Z " fill="#CB2F0F" transform="translate(93,54)"/>
<path d="M0 0 C0.66 0 1.32 0 2 0 C1.97679688 0.77085938 1.95359375 1.54171875 1.9296875 2.3359375 C1.91164062 3.33882813 1.89359375 4.34171875 1.875 5.375 C1.85179688 6.37273437 1.82859375 7.37046875 1.8046875 8.3984375 C1.72783152 11.16262173 1.72783152 11.16262173 4 13 C4 14.32 4 15.64 4 17 C2.68 17 1.36 17 0 17 C0 11.39 0 5.78 0 0 Z " fill="#5C3B32" transform="translate(0,111)"/>
<path d="M0 0 C0 0.33 0 0.66 0 1 C-2.64 1.33 -5.28 1.66 -8 2 C-8.33 3.32 -8.66 4.64 -9 6 C-11.31 5.34 -13.62 4.68 -16 4 C-16 3.01 -16 2.02 -16 1 C-10.63904667 -0.12862175 -5.44693314 -0.09688221 0 0 Z " fill="#353A63" transform="translate(89,71)"/>
<path d="M0 0 C0 0.66 0 1.32 0 2 C-1.79036458 2.9765625 -3.58072917 3.953125 -5.37109375 4.9296875 C-7.16618315 5.91410024 -7.16618315 5.91410024 -8 8 C-9.32 8 -10.64 8 -12 8 C-10.61482883 4.5659298 -9.34555636 3.29977978 -6 1.75 C-5.29875 1.41484375 -4.5975 1.0796875 -3.875 0.734375 C-2 0 -2 0 0 0 Z " fill="#6F2124" transform="translate(88,50)"/>
<path d="M0 0 C0.99 0 1.98 0 3 0 C3 4.29 3 8.58 3 13 C2.34 13 1.68 13 1 13 C0.67 8.71 0.34 4.42 0 0 Z " fill="#0557A2" transform="translate(40,68)"/>
<path d="M0 0 C0.5534764 2.07553648 1 3.84365964 1 6 C3.64 5.67 6.28 5.34 9 5 C6.42910583 7.11180592 4.36939433 8.66306057 1 9 C-1 7 -1 7 -1.1875 3.9375 C-1 1 -1 1 0 0 Z " fill="#54202E" transform="translate(5,55)"/>
<path d="M0 0 C2.5 1.125 2.5 1.125 5 3 C5.3125 6.1875 5.3125 6.1875 5 9 C3.02 9.99 3.02 9.99 1 11 C1.3403125 9.3603125 1.3403125 9.3603125 1.6875 7.6875 C2.40146383 4.09468727 2.40146383 4.09468727 0.5625 2.0625 C0.046875 1.711875 -0.46875 1.36125 -1 1 C-0.67 0.67 -0.34 0.34 0 0 Z " fill="#562330" transform="translate(114,59)"/>
<path d="M0 0 C3.3 0 6.6 0 10 0 C10 0.33 10 0.66 10 1 C6.37 1.66 2.74 2.32 -1 3 C-0.67 2.01 -0.34 1.02 0 0 Z " fill="#6C3B45" transform="translate(60,73)"/>
<path d="M0 0 C1.32 0.33 2.64 0.66 4 1 C3.67 2.32 3.34 3.64 3 5 C2.01 5 1.02 5 0 5 C0 3.35 0 1.7 0 0 Z " fill="#353A63" transform="translate(46,72)"/>
</svg>
