<?xml version="1.0" encoding="UTF-8"?>
<svg version="1.1" xmlns="http://www.w3.org/2000/svg" width="128" height="128">
<path d="M0 0 C42.24 0 84.48 0 128 0 C128 42.24 128 84.48 128 128 C85.76 128 43.52 128 0 128 C0 85.76 0 43.52 0 0 Z " fill="#FEFDFD" transform="translate(0,0)"/>
<path d="M0 0 C3.01103701 3.01103701 2.84755511 6.08986334 3.16796875 10.22265625 C2.98890064 13.18352661 2.57730067 14.39925862 0.75 16.6875 C-2 19 -2 19 -5 19 C-4.88590407 20.45922693 -4.75834456 21.91740598 -4.625 23.375 C-4.52058594 24.59316406 -4.52058594 24.59316406 -4.4140625 25.8359375 C-4.17107412 28.20334191 -4.17107412 28.20334191 -2 30 C-1.71904008 32.52574281 -1.53455009 34.96722947 -1.4375 37.5 C-1.39826405 42.39954284 -1.39826405 42.39954284 0 47 C0.17724777 49.80690726 0.27750799 52.56630797 0.3125 55.375 C0.35600586 56.52742188 0.35600586 56.52742188 0.40039062 57.703125 C0.46475618 63.42670795 0.46475618 63.42670795 -1.95703125 66.4140625 C-2.96830078 67.19910156 -2.96830078 67.19910156 -4 68 C-4.33 68.66 -4.66 69.32 -5 70 C-7.22909871 70.02714735 -9.45829367 70.04646254 -11.6875 70.0625 C-12.92886719 70.07410156 -14.17023438 70.08570312 -15.44921875 70.09765625 C-18.46235454 70.01478673 -21.08275339 69.70839449 -24 69 C-24.495 70.98 -24.495 70.98 -25 73 C-23.576875 73.185625 -23.576875 73.185625 -22.125 73.375 C-19 74 -19 74 -17 76 C-14.67724823 76.40047444 -12.34260643 76.7397104 -10 77 C-10.33 78.65 -10.66 80.3 -11 82 C-11.66 82 -12.32 82 -13 82 C-12.896875 82.721875 -12.79375 83.44375 -12.6875 84.1875 C-13.12880903 88.15928126 -15.0674577 89.40845099 -18 92 C-18.44859375 92.53238281 -18.8971875 93.06476563 -19.359375 93.61328125 C-21.55779875 95.47147275 -23.09146761 95.42982781 -25.9375 95.5625 C-29.52430893 95.70551562 -29.52430893 95.70551562 -32.80859375 96.98046875 C-36.11956214 98.52086581 -39.53082671 98.5627135 -43.125 98.75 C-44.26026123 98.81247925 -44.26026123 98.81247925 -45.41845703 98.8762207 C-52.43878517 99.17254787 -59.01800909 98.98799394 -65 95 C-65.94875 94.896875 -66.8975 94.79375 -67.875 94.6875 C-71.8993625 93.80214025 -73.31282686 92.05030465 -76 89 C-78.40862266 86.39065878 -80.94215048 84.80334715 -84 83 C-86.5654594 80.4345406 -86.54046087 78.52313332 -87 75 C-87.99 75 -88.98 75 -90 75 C-90.05418326 72.91695462 -90.09287551 70.83350232 -90.125 68.75 C-90.14820312 67.58984375 -90.17140625 66.4296875 -90.1953125 65.234375 C-90.0103949 62.17213954 -89.60823023 60.55797249 -88 58 C-86.35 58 -84.7 58 -83 58 C-83 56.68 -83 55.36 -83 54 C-83.9590625 53.814375 -83.9590625 53.814375 -84.9375 53.625 C-85.618125 53.41875 -86.29875 53.2125 -87 53 C-88.75846409 49.48307181 -88.80800541 45.81667597 -88 42 C-86.03780386 39.54034569 -83.92722746 38.13097425 -81 37 C-78.0625 37.1875 -78.0625 37.1875 -76 38 C-76 40.64 -76 43.28 -76 46 C-75.34 46 -74.68 46 -74 46 C-73.24758891 42.34543185 -72.59950296 38.68266103 -72 35 C-70.68 35 -69.36 35 -68 35 C-68 35.66 -68 36.32 -68 37 C-66.02 37.33 -64.04 37.66 -62 38 C-62 37.01 -62 36.02 -62 35 C-62.721875 34.896875 -63.44375 34.79375 -64.1875 34.6875 C-67.26019548 33.93639666 -69.30203026 32.61878185 -72 31 C-74.69254991 30.29329272 -74.69254991 30.29329272 -77 30 C-76.75739294 24.17743046 -75.0457363 21.19057639 -71.375 16.69921875 C-69.92849328 15.03613969 -69.92849328 15.03613969 -69 13 C-67.0282696 11.94535351 -65.02237052 10.95394836 -63 10 C-59.84388287 8.45288376 -56.92707492 6.95138328 -54 5 C-46.07688186 3.01922047 -37.66941269 3.27309771 -30 6 C-30 6.66 -30 7.32 -30 8 C-29.13375 7.71125 -28.2675 7.4225 -27.375 7.125 C-25.704375 6.568125 -25.704375 6.568125 -24 6 C-23.01 5.608125 -22.02 5.21625 -21 4.8125 C-16.56090189 3.61024426 -13.27936321 4.5735456 -9 6 C-8.896875 5.38125 -8.79375 4.7625 -8.6875 4.125 C-7.28257451 -0.21749698 -4.00686496 -0.41096051 0 0 Z " fill="#98BB60" transform="translate(105,18)"/>
<path d="M0 0 C0.99 1.485 0.99 1.485 2 3 C1.071875 2.79375 0.14375 2.5875 -0.8125 2.375 C-4.15173402 1.63307034 -4.15173402 1.63307034 -7 4 C-7.57993699 6.19454681 -7.57993699 6.19454681 -7.6875 8.625 C-7.75324219 9.44226562 -7.81898437 10.25953125 -7.88671875 11.1015625 C-7.92410156 11.72804688 -7.96148437 12.35453125 -8 13 C-9.65 13 -11.3 13 -13 13 C-13.495 9.535 -13.495 9.535 -14 6 C-17.47548841 6.53977565 -17.47548841 6.53977565 -21 8 C-22.31685277 10.9502491 -22.31685277 10.9502491 -23 14 C-23.99 14.66 -24.98 15.32 -26 16 C-26.20625 15.195625 -26.4125 14.39125 -26.625 13.5625 C-27.305625 12.2940625 -27.305625 12.2940625 -28 11 C-31.05272465 10.10169161 -31.05272465 10.10169161 -34 10 C-34 9.01 -34 8.02 -34 7 C-37.96 7 -41.92 7 -46 7 C-46.66 8.65 -47.32 10.3 -48 12 C-49.73643601 13.73643601 -52.26025751 13.20981267 -54.625 13.3125 C-61.58325584 13.84965752 -65.36857576 15.36857576 -70.375 20.375 C-72.19055091 23.30781301 -72.68266877 25.58868923 -73 29 C-70.69 29.66 -68.38 30.32 -66 31 C-66 31.66 -66 32.32 -66 33 C-65.21625 33.0825 -64.4325 33.165 -63.625 33.25 C-61 34 -61 34 -59.875 36 C-59.58625 36.66 -59.2975 37.32 -59 38 C-58.01 38.33 -57.02 38.66 -56 39 C-56 39.33 -56 39.66 -56 40 C-58.31 40.66 -60.62 41.32 -63 42 C-63 42.99 -63 43.98 -63 45 C-62.34 45.33 -61.68 45.66 -61 46 C-61.33 47.65 -61.66 49.3 -62 51 C-64.29141286 51.05384521 -66.58318188 51.09272087 -68.875 51.125 C-70.15117188 51.14820313 -71.42734375 51.17140625 -72.7421875 51.1953125 C-76 51 -76 51 -78 49 C-78.1953125 46.8359375 -78.1953125 46.8359375 -78.125 44.375 C-78.10695313 43.55773438 -78.08890625 42.74046875 -78.0703125 41.8984375 C-78.03550781 40.95871094 -78.03550781 40.95871094 -78 40 C-78.78375 40.495 -79.5675 40.99 -80.375 41.5 C-83 43 -83 43 -85 43 C-84.52194083 48.76683995 -84.52194083 48.76683995 -81 53 C-80.525625 53.804375 -80.05125 54.60875 -79.5625 55.4375 C-77.29493651 59.19160637 -77.29493651 59.19160637 -74 62 C-70.89986695 62.13286285 -67.99297044 61.8204668 -65 61 C-62.53721199 58.53721199 -62.00228745 56.29323018 -61 53 C-58.09415955 53.43049488 -56.99933437 54.0006276 -54.8125 56.0625 C-51.3698351 58.4341136 -49.24732739 58.5697768 -45.15234375 58.40625 C-42.01938214 57.8149106 -40.24837961 56.18024689 -38 54 C-37.34 54 -36.68 54 -36 54 C-35.67 53.01 -35.34 52.02 -35 51 C-32.625 51.3125 -32.625 51.3125 -30 52 C-29.34 52.99 -28.68 53.98 -28 55 C-25.94074861 55.72382467 -25.94074861 55.72382467 -24 56 C-24 56.66 -24 57.32 -24 58 C-22.515 58.495 -22.515 58.495 -21 59 C-20.2265625 60.8125 -20.2265625 60.8125 -19.625 63 C-18.58744436 66.3042642 -18.58744436 66.3042642 -15.75 68.125 C-11.83848607 67.94720391 -9.5595381 67.81212849 -6 66 C-2.69171875 60.13848067 -1.50114556 53.64017871 -1 47 C-0.67 47 -0.34 47 0 47 C0.10812003 49.75105422 0.18734945 52.49785087 0.25 55.25 C0.28351563 56.02730469 0.31703125 56.80460937 0.3515625 57.60546875 C0.45130461 63.44038228 0.45130461 63.44038228 -1.953125 66.421875 C-2.62859375 66.94265625 -3.3040625 67.4634375 -4 68 C-4.33 68.66 -4.66 69.32 -5 70 C-7.22909871 70.02714735 -9.45829367 70.04646254 -11.6875 70.0625 C-12.92886719 70.07410156 -14.17023438 70.08570312 -15.44921875 70.09765625 C-18.46235454 70.01478673 -21.08275339 69.70839449 -24 69 C-24.495 70.98 -24.495 70.98 -25 73 C-23.576875 73.185625 -23.576875 73.185625 -22.125 73.375 C-19 74 -19 74 -17 76 C-14.67724823 76.40047444 -12.34260643 76.7397104 -10 77 C-10.33 78.65 -10.66 80.3 -11 82 C-11.66 82 -12.32 82 -13 82 C-12.896875 82.721875 -12.79375 83.44375 -12.6875 84.1875 C-13.12880903 88.15928126 -15.0674577 89.40845099 -18 92 C-18.44859375 92.53238281 -18.8971875 93.06476563 -19.359375 93.61328125 C-21.55779875 95.47147275 -23.09146761 95.42982781 -25.9375 95.5625 C-29.52430893 95.70551562 -29.52430893 95.70551562 -32.80859375 96.98046875 C-36.11956214 98.52086581 -39.53082671 98.5627135 -43.125 98.75 C-44.26026123 98.81247925 -44.26026123 98.81247925 -45.41845703 98.8762207 C-52.43878517 99.17254787 -59.01800909 98.98799394 -65 95 C-65.94875 94.896875 -66.8975 94.79375 -67.875 94.6875 C-71.8993625 93.80214025 -73.31282686 92.05030465 -76 89 C-78.40862266 86.39065878 -80.94215048 84.80334715 -84 83 C-86.5654594 80.4345406 -86.54046087 78.52313332 -87 75 C-87.99 75 -88.98 75 -90 75 C-90.05418326 72.91695462 -90.09287551 70.83350232 -90.125 68.75 C-90.14820312 67.58984375 -90.17140625 66.4296875 -90.1953125 65.234375 C-90.0103949 62.17213954 -89.60823023 60.55797249 -88 58 C-86.35 58 -84.7 58 -83 58 C-83 56.68 -83 55.36 -83 54 C-83.9590625 53.814375 -83.9590625 53.814375 -84.9375 53.625 C-85.618125 53.41875 -86.29875 53.2125 -87 53 C-88.75846409 49.48307181 -88.80800541 45.81667597 -88 42 C-86.03780386 39.54034569 -83.92722746 38.13097425 -81 37 C-78.0625 37.1875 -78.0625 37.1875 -76 38 C-76 40.64 -76 43.28 -76 46 C-75.34 46 -74.68 46 -74 46 C-73.24758891 42.34543185 -72.59950296 38.68266103 -72 35 C-70.68 35 -69.36 35 -68 35 C-68 35.66 -68 36.32 -68 37 C-66.02 37.33 -64.04 37.66 -62 38 C-62 37.01 -62 36.02 -62 35 C-62.721875 34.896875 -63.44375 34.79375 -64.1875 34.6875 C-67.26019548 33.93639666 -69.30203026 32.61878185 -72 31 C-74.69254991 30.29329272 -74.69254991 30.29329272 -77 30 C-76.75739294 24.17743046 -75.0457363 21.19057639 -71.375 16.69921875 C-69.92849328 15.03613969 -69.92849328 15.03613969 -69 13 C-67.0282696 11.94535351 -65.02237052 10.95394836 -63 10 C-59.84388287 8.45288376 -56.92707492 6.95138328 -54 5 C-46.07688186 3.01922047 -37.66941269 3.27309771 -30 6 C-30 6.66 -30 7.32 -30 8 C-29.13375 7.71125 -28.2675 7.4225 -27.375 7.125 C-25.704375 6.568125 -25.704375 6.568125 -24 6 C-23.01 5.608125 -22.02 5.21625 -21 4.8125 C-16.56090189 3.61024426 -13.27936321 4.5735456 -9 6 C-8.896875 5.38125 -8.79375 4.7625 -8.6875 4.125 C-7.29656076 -0.17426675 -3.99287257 -0.51190674 0 0 Z " fill="#83C1CA" transform="translate(105,18)"/>
<path d="M0 0 C0.99 1.485 0.99 1.485 2 3 C1.071875 2.79375 0.14375 2.5875 -0.8125 2.375 C-4.15173402 1.63307034 -4.15173402 1.63307034 -7 4 C-7.57993699 6.19454681 -7.57993699 6.19454681 -7.6875 8.625 C-7.75324219 9.44226562 -7.81898437 10.25953125 -7.88671875 11.1015625 C-7.92410156 11.72804688 -7.96148437 12.35453125 -8 13 C-9.65 13 -11.3 13 -13 13 C-13.495 9.535 -13.495 9.535 -14 6 C-17.47548841 6.53977565 -17.47548841 6.53977565 -21 8 C-22.31685277 10.9502491 -22.31685277 10.9502491 -23 14 C-23.99 14.66 -24.98 15.32 -26 16 C-26.20625 15.195625 -26.4125 14.39125 -26.625 13.5625 C-27.305625 12.2940625 -27.305625 12.2940625 -28 11 C-31.05272465 10.10169161 -31.05272465 10.10169161 -34 10 C-34 9.01 -34 8.02 -34 7 C-37.96 7 -41.92 7 -46 7 C-46.66 8.65 -47.32 10.3 -48 12 C-49.73643601 13.73643601 -52.26025751 13.20981267 -54.625 13.3125 C-61.58325584 13.84965752 -65.36857576 15.36857576 -70.375 20.375 C-72.19055091 23.30781301 -72.68266877 25.58868923 -73 29 C-70.69 29.66 -68.38 30.32 -66 31 C-66 31.66 -66 32.32 -66 33 C-65.21625 33.0825 -64.4325 33.165 -63.625 33.25 C-61 34 -61 34 -59.875 36 C-59.58625 36.66 -59.2975 37.32 -59 38 C-58.01 38.33 -57.02 38.66 -56 39 C-56 39.33 -56 39.66 -56 40 C-58.31 40.66 -60.62 41.32 -63 42 C-63 42.99 -63 43.98 -63 45 C-62.34 45.33 -61.68 45.66 -61 46 C-61.33 47.65 -61.66 49.3 -62 51 C-64.29141286 51.05384521 -66.58318188 51.09272087 -68.875 51.125 C-70.15117188 51.14820313 -71.42734375 51.17140625 -72.7421875 51.1953125 C-76 51 -76 51 -78 49 C-78.1953125 46.8359375 -78.1953125 46.8359375 -78.125 44.375 C-78.10695313 43.55773438 -78.08890625 42.74046875 -78.0703125 41.8984375 C-78.03550781 40.95871094 -78.03550781 40.95871094 -78 40 C-78.78375 40.495 -79.5675 40.99 -80.375 41.5 C-83 43 -83 43 -85 43 C-84.56496368 47.61138498 -84.29542394 49.83476565 -81 53 C-79.91296473 54.98224078 -78.99769576 57.00506932 -78.0625 59.0625 C-77.08481213 61.07417692 -77.08481213 61.07417692 -75.375 62.5625 C-74 64 -74 64 -74 67 C-76.25 66.8125 -76.25 66.8125 -79 66 C-80.33827304 64.33729713 -81.67189785 62.67083819 -83 61 C-84.32 61 -85.64 61 -87 61 C-87.08107583 62.93681161 -87.13922475 64.8745934 -87.1875 66.8125 C-87.22230469 67.89144531 -87.25710937 68.97039062 -87.29296875 70.08203125 C-86.96489802 73.34961576 -86.43664333 73.97266159 -84 76 C-84 76.66 -84 77.32 -84 78 C-83.4225 78.2475 -82.845 78.495 -82.25 78.75 C-80 80 -80 80 -78.0625 82.1875 C-77.381875 82.785625 -76.70125 83.38375 -76 84 C-73.39719432 83.67958603 -73.39719432 83.67958603 -71 83 C-68.3144406 85.6855594 -67.93950026 88.37621328 -67 92 C-66.14535156 92.13277344 -65.29070312 92.26554687 -64.41015625 92.40234375 C-63.30542969 92.57894531 -62.20070313 92.75554687 -61.0625 92.9375 C-59.40927734 93.19853516 -59.40927734 93.19853516 -57.72265625 93.46484375 C-55 94 -55 94 -54 95 C-43.773948 95.66606469 -36.07604901 94.61216232 -28 88 C-27.01 86.515 -27.01 86.515 -26 85 C-24.68 85 -23.36 85 -22 85 C-22.99 81.535 -22.99 81.535 -24 78 C-27.63 78 -31.26 78 -35 78 C-35.66 76.68 -36.32 75.36 -37 74 C-38.32594105 73.63837971 -39.65938457 73.30271961 -41 73 C-41.33 72.01 -41.66 71.02 -42 70 C-41.67 69.34 -41.34 68.68 -41 68 C-36.125 68.875 -36.125 68.875 -35 70 C-31.97883667 69.8229564 -29.00401768 69.38079097 -26 69 C-25.34 66.03 -24.68 63.06 -24 60 C-22.02 60.495 -22.02 60.495 -20 61 C-18.75 64.0625 -18.75 64.0625 -18 67 C-13.41942343 68.38805351 -10.28245585 68.18015934 -6 66 C-2.69171875 60.13848067 -1.50114556 53.64017871 -1 47 C-0.67 47 -0.34 47 0 47 C0.10812003 49.75105422 0.18734945 52.49785087 0.25 55.25 C0.28351563 56.02730469 0.31703125 56.80460937 0.3515625 57.60546875 C0.45130461 63.44038228 0.45130461 63.44038228 -1.953125 66.421875 C-2.62859375 66.94265625 -3.3040625 67.4634375 -4 68 C-4.33 68.66 -4.66 69.32 -5 70 C-7.22909871 70.02714735 -9.45829367 70.04646254 -11.6875 70.0625 C-12.92886719 70.07410156 -14.17023438 70.08570312 -15.44921875 70.09765625 C-18.46235454 70.01478673 -21.08275339 69.70839449 -24 69 C-24.495 70.98 -24.495 70.98 -25 73 C-23.576875 73.185625 -23.576875 73.185625 -22.125 73.375 C-19 74 -19 74 -17 76 C-14.67724823 76.40047444 -12.34260643 76.7397104 -10 77 C-10.33 78.65 -10.66 80.3 -11 82 C-11.66 82 -12.32 82 -13 82 C-12.896875 82.721875 -12.79375 83.44375 -12.6875 84.1875 C-13.12880903 88.15928126 -15.0674577 89.40845099 -18 92 C-18.44859375 92.53238281 -18.8971875 93.06476563 -19.359375 93.61328125 C-21.55779875 95.47147275 -23.09146761 95.42982781 -25.9375 95.5625 C-29.52430893 95.70551562 -29.52430893 95.70551562 -32.80859375 96.98046875 C-36.11956214 98.52086581 -39.53082671 98.5627135 -43.125 98.75 C-44.26026123 98.81247925 -44.26026123 98.81247925 -45.41845703 98.8762207 C-52.43878517 99.17254787 -59.01800909 98.98799394 -65 95 C-65.94875 94.896875 -66.8975 94.79375 -67.875 94.6875 C-71.8993625 93.80214025 -73.31282686 92.05030465 -76 89 C-78.40862266 86.39065878 -80.94215048 84.80334715 -84 83 C-86.5654594 80.4345406 -86.54046087 78.52313332 -87 75 C-87.99 75 -88.98 75 -90 75 C-90.05418326 72.91695462 -90.09287551 70.83350232 -90.125 68.75 C-90.14820312 67.58984375 -90.17140625 66.4296875 -90.1953125 65.234375 C-90.0103949 62.17213954 -89.60823023 60.55797249 -88 58 C-86.35 58 -84.7 58 -83 58 C-83 56.68 -83 55.36 -83 54 C-83.9590625 53.814375 -83.9590625 53.814375 -84.9375 53.625 C-85.618125 53.41875 -86.29875 53.2125 -87 53 C-88.75846409 49.48307181 -88.80800541 45.81667597 -88 42 C-86.03780386 39.54034569 -83.92722746 38.13097425 -81 37 C-78.0625 37.1875 -78.0625 37.1875 -76 38 C-76 40.64 -76 43.28 -76 46 C-75.34 46 -74.68 46 -74 46 C-73.24758891 42.34543185 -72.59950296 38.68266103 -72 35 C-70.68 35 -69.36 35 -68 35 C-68 35.66 -68 36.32 -68 37 C-66.02 37.33 -64.04 37.66 -62 38 C-62 37.01 -62 36.02 -62 35 C-62.721875 34.896875 -63.44375 34.79375 -64.1875 34.6875 C-67.26019548 33.93639666 -69.30203026 32.61878185 -72 31 C-74.69254991 30.29329272 -74.69254991 30.29329272 -77 30 C-76.75739294 24.17743046 -75.0457363 21.19057639 -71.375 16.69921875 C-69.92849328 15.03613969 -69.92849328 15.03613969 -69 13 C-67.0282696 11.94535351 -65.02237052 10.95394836 -63 10 C-59.84388287 8.45288376 -56.92707492 6.95138328 -54 5 C-46.07688186 3.01922047 -37.66941269 3.27309771 -30 6 C-30 6.66 -30 7.32 -30 8 C-29.13375 7.71125 -28.2675 7.4225 -27.375 7.125 C-25.704375 6.568125 -25.704375 6.568125 -24 6 C-23.01 5.608125 -22.02 5.21625 -21 4.8125 C-16.56090189 3.61024426 -13.27936321 4.5735456 -9 6 C-8.896875 5.38125 -8.79375 4.7625 -8.6875 4.125 C-7.29656076 -0.17426675 -3.99287257 -0.51190674 0 0 Z " fill="#D3DACB" transform="translate(105,18)"/>
<path d="M0 0 C0.6875 2.1875 0.6875 2.1875 1 5 C0.525625 5.763125 0.05125 6.52625 -0.4375 7.3125 C-2.61891648 11.06453635 -2.21844171 13.70397979 -2 18 C-1.34 18 -0.68 18 0 18 C0.66 16.35 1.32 14.7 2 13 C7.75579793 12.01845192 13.35427972 11.81678598 19.1875 11.8125 C20.07630859 11.80025391 20.96511719 11.78800781 21.88085938 11.77539062 C23.16766602 11.77249023 23.16766602 11.77249023 24.48046875 11.76953125 C25.25285889 11.76542236 26.02524902 11.76131348 26.82104492 11.75708008 C29.25860758 12.02883076 30.88586349 12.7868132 33 14 C32.67 15.65 32.34 17.3 32 19 C31.01 19.33 30.02 19.66 29 20 C29 21.32 29 22.64 29 24 C29.66 24 30.32 24 31 24 C31 24.66 31 25.32 31 26 C27.65626525 25.44271087 24.96687001 24.64826111 22 23 C22 23.99 22 24.98 22 26 C22.66 26.33 23.32 26.66 24 27 C24 27.66 24 28.32 24 29 C24.99 29.33 25.98 29.66 27 30 C24.77057252 29.85820962 22.54146372 29.71140302 20.3125 29.5625 C19.07113281 29.48128906 17.82976562 29.40007813 16.55078125 29.31640625 C13 29 13 29 10.1875 28.40625 C7.46062069 27.89982956 6.3031095 28.54989402 4 30 C4.04125 31.11375 4.0825 32.2275 4.125 33.375 C4 37 4 37 2 39 C-0.65537372 39.56520003 -3.29144713 39.73788198 -6 40 C-6.020625 40.928125 -6.04125 41.85625 -6.0625 42.8125 C-7 46 -7 46 -10.25 47.9375 C-15.56911582 49.44458281 -15.56911582 49.44458281 -19 48 C-22.46667672 45.02856281 -24.79216248 41.97410754 -27 38 C-27.33 37.67 -27.66 37.34 -28 37 C-28.375 33.625 -28.375 33.625 -28 30 C-25.60259082 28.04421883 -24.12413392 27 -21 27 C-20.90912109 27.95712891 -20.90912109 27.95712891 -20.81640625 28.93359375 C-20.73261719 29.75988281 -20.64882813 30.58617188 -20.5625 31.4375 C-20.48128906 32.26121094 -20.40007813 33.08492187 -20.31640625 33.93359375 C-20.21069185 35.98662025 -20.21069185 35.98662025 -19 37 C-16.64686445 37.07271741 -14.29166332 37.08370868 -11.9375 37.0625 C-10.64714844 37.05347656 -9.35679688 37.04445312 -8.02734375 37.03515625 C-6.52880859 37.01775391 -6.52880859 37.01775391 -5 37 C-4.67 35.68 -4.34 34.36 -4 33 C-5.485 32.505 -5.485 32.505 -7 32 C-6.875 30.125 -6.875 30.125 -6 28 C-2.9375 26.75 -2.9375 26.75 0 26 C-0.928125 25.195625 -1.85625 24.39125 -2.8125 23.5625 C-3.33457031 23.11003906 -3.85664062 22.65757813 -4.39453125 22.19140625 C-6.10712971 20.79128769 -6.10712971 20.79128769 -9 20 C-9 19.34 -9 18.68 -9 18 C-9.78375 17.855625 -10.5675 17.71125 -11.375 17.5625 C-14 17 -14 17 -16 16 C-16.4802189 11.96616127 -16.20997377 10.31814207 -13.9375 6.875 C-10.01437264 2.63980569 -5.89475697 0 0 0 Z " fill="#89A46B" transform="translate(48,31)"/>
<path d="M0 0 C0.66 0.33 1.32 0.66 2 1 C3.12747016 4.96481227 3.86326608 9.18465446 2.05078125 12.99609375 C0.75 14.625 0.75 14.625 -2 17 C-2.99 17 -3.98 17 -5 17 C-4.88590407 18.45922693 -4.75834456 19.91740598 -4.625 21.375 C-4.55539063 22.18710937 -4.48578125 22.99921875 -4.4140625 23.8359375 C-4.17107412 26.20334191 -4.17107412 26.20334191 -2 28 C-1.69324768 30.89967757 -1.48826629 33.71783178 -1.375 36.625 C-1.33632812 37.42679688 -1.29765625 38.22859375 -1.2578125 39.0546875 C-1.16346069 41.03607556 -1.08063785 43.01800645 -1 45 C-4.39905348 46.20080522 -7.52792255 47.20873867 -11.125 47.5 C-14.3794672 47.91993125 -16.27755002 48.29846876 -19 50 C-19 50.66 -19 51.32 -19 52 C-19.99 51.67 -20.98 51.34 -22 51 C-22 48.36 -22 45.72 -22 43 C-22.99 42.67 -23.98 42.34 -25 42 C-25 41.34 -25 40.68 -25 40 C-23.35 40 -21.7 40 -20 40 C-20 38.02 -20 36.04 -20 34 C-17.69 34 -15.38 34 -13 34 C-13 33.01 -13 32.02 -13 31 C-13.99 30.67 -14.98 30.34 -16 30 C-16 28.02 -16 26.04 -16 24 C-13.69 24 -11.38 24 -9 24 C-9 22.68 -9 21.36 -9 20 C-10.32 19.34 -11.64 18.68 -13 18 C-13.99 18.66 -14.98 19.32 -16 20 C-19.3539295 19.91615176 -20.61650064 19.38349936 -23 17 C-24.49249597 12.5225121 -22.90253787 9.18558331 -21 5 C-20 4 -20 4 -16.9375 3.9375 C-15.4834375 3.9684375 -15.4834375 3.9684375 -14 4 C-13.67 6.31 -13.34 8.62 -13 11 C-11.35 11 -9.7 11 -8 11 C-8.04640625 10.38511719 -8.0928125 9.77023438 -8.140625 9.13671875 C-8.43570348 2.52906851 -8.43570348 2.52906851 -6.25 -0.125 C-3.61406251 -1.1500868 -2.59259403 -1.03703761 0 0 Z " fill="#A7C658" transform="translate(105,20)"/>
<path d="M0 0 C0.80824219 0.10183594 1.61648437 0.20367188 2.44921875 0.30859375 C3.06410156 0.39238281 3.67898437 0.47617187 4.3125 0.5625 C4.3125 1.5525 4.3125 2.5425 4.3125 3.5625 C5.7046875 3.4078125 5.7046875 3.4078125 7.125 3.25 C8.176875 3.353125 9.22875 3.45625 10.3125 3.5625 C11.9375 5.875 11.9375 5.875 13.3125 8.5625 C14.63642972 9.57491685 15.96849167 10.57689389 17.3125 11.5625 C17.8075 13.0475 17.8075 13.0475 18.3125 14.5625 C21.07526177 14.03981534 23.6385876 13.45380413 26.3125 12.5625 C25.6525 14.2125 24.9925 15.8625 24.3125 17.5625 C22.6625 17.5625 21.0125 17.5625 19.3125 17.5625 C19.9725 20.8625 20.6325 24.1625 21.3125 27.5625 C19.3325 28.5525 19.3325 28.5525 17.3125 29.5625 C16.04445434 31.5960948 16.04445434 31.5960948 15.3125 33.5625 C14.3225 33.5625 13.3325 33.5625 12.3125 33.5625 C12.3125 32.5725 12.3125 31.5825 12.3125 30.5625 C11.6525 30.5625 10.9925 30.5625 10.3125 30.5625 C10.3125 29.2425 10.3125 27.9225 10.3125 26.5625 C11.3025 25.9025 12.2925 25.2425 13.3125 24.5625 C14.03632467 22.50324861 14.03632467 22.50324861 14.3125 20.5625 C11.15560707 19.63297041 8.31663633 19.43372786 5.03125 19.4296875 C4.02449219 19.42839844 3.01773438 19.42710938 1.98046875 19.42578125 C0.93503906 19.42964844 -0.11039063 19.43351562 -1.1875 19.4375 C-2.23292969 19.43363281 -3.27835938 19.42976563 -4.35546875 19.42578125 C-5.86560547 19.42771484 -5.86560547 19.42771484 -7.40625 19.4296875 C-8.32341797 19.43081543 -9.24058594 19.43194336 -10.18554688 19.43310547 C-12.52982487 19.55434545 -14.47693609 19.77768806 -16.6875 20.5625 C-17.97186734 22.5462767 -17.97186734 22.5462767 -18.6875 24.5625 C-19.3475 24.5625 -20.0075 24.5625 -20.6875 24.5625 C-22.09750664 21.74248673 -21.93298451 19.69242745 -21.6875 16.5625 C-20.70560813 14.88510138 -19.70616229 13.21782623 -18.6875 11.5625 C-18.43553871 8.85296449 -18.43553871 8.85296449 -18.6875 6.5625 C-17.429375 6.500625 -16.17125 6.43875 -14.875 6.375 C-12.67645924 6.17368596 -12.67645924 6.17368596 -10.6875 5.5625 C-8.8250562 3.15391286 -8.8250562 3.15391286 -7.6875 0.5625 C-4.59271121 -0.46909626 -3.16118607 -0.41232862 0 0 Z " fill="#699A6D" transform="translate(66.6875,24.4375)"/>
<path d="M0 0 C0.99 1.485 0.99 1.485 2 3 C1.071875 2.79375 0.14375 2.5875 -0.8125 2.375 C-4.15173402 1.63307034 -4.15173402 1.63307034 -7 4 C-7.57993699 6.19454681 -7.57993699 6.19454681 -7.6875 8.625 C-7.75324219 9.44226562 -7.81898437 10.25953125 -7.88671875 11.1015625 C-7.92410156 11.72804688 -7.96148437 12.35453125 -8 13 C-9.65 13 -11.3 13 -13 13 C-13.495 9.535 -13.495 9.535 -14 6 C-17.47548841 6.53977565 -17.47548841 6.53977565 -21 8 C-22.31685277 10.9502491 -22.31685277 10.9502491 -23 14 C-23.99 14.66 -24.98 15.32 -26 16 C-26.20625 15.195625 -26.4125 14.39125 -26.625 13.5625 C-27.305625 12.2940625 -27.305625 12.2940625 -28 11 C-31.05272465 10.10169161 -31.05272465 10.10169161 -34 10 C-34 9.01 -34 8.02 -34 7 C-37.96 7 -41.92 7 -46 7 C-46.66 8.65 -47.32 10.3 -48 12 C-49.73643601 13.73643601 -52.26025751 13.20981267 -54.625 13.3125 C-61.58325584 13.84965752 -65.36857576 15.36857576 -70.375 20.375 C-72.19055091 23.30781301 -72.68266877 25.58868923 -73 29 C-70.69 29.66 -68.38 30.32 -66 31 C-66 31.66 -66 32.32 -66 33 C-65.21625 33.0825 -64.4325 33.165 -63.625 33.25 C-61 34 -61 34 -59.875 36 C-59.58625 36.66 -59.2975 37.32 -59 38 C-57.515 38.495 -57.515 38.495 -56 39 C-56 39.33 -56 39.66 -56 40 C-58.31 40.66 -60.62 41.32 -63 42 C-63 42.99 -63 43.98 -63 45 C-62.34 45.33 -61.68 45.66 -61 46 C-61.33 47.65 -61.66 49.3 -62 51 C-64.29141286 51.05384521 -66.58318188 51.09272087 -68.875 51.125 C-70.15117188 51.14820313 -71.42734375 51.17140625 -72.7421875 51.1953125 C-76 51 -76 51 -78 49 C-78.1953125 46.8359375 -78.1953125 46.8359375 -78.125 44.375 C-78.10695313 43.55773438 -78.08890625 42.74046875 -78.0703125 41.8984375 C-78.03550781 40.95871094 -78.03550781 40.95871094 -78 40 C-78.78375 40.495 -79.5675 40.99 -80.375 41.5 C-83 43 -83 43 -85 43 C-85 45.31 -85 47.62 -85 50 C-85.33 50 -85.66 50 -86 50 C-86.43338684 44.71268058 -86.43338684 44.71268058 -86 42 C-82.80434964 39.15942191 -81.3252957 39 -77 39 C-76.67 41.64 -76.34 44.28 -76 47 C-75.01 47.33 -74.02 47.66 -73 48 C-73.0825 47.236875 -73.165 46.47375 -73.25 45.6875 C-73 43 -73 43 -71.4375 41.25 C-68.32386342 39.65326329 -65.46114647 39.33280254 -62 39 C-62 38.01 -62 37.02 -62 36 C-63.55851755 35.17988688 -65.12201716 34.36923787 -66.6875 33.5625 C-67.55761719 33.11003906 -68.42773438 32.65757813 -69.32421875 32.19140625 C-71.90998264 31.04008072 -74.21356528 30.43679247 -77 30 C-76.75739294 24.17743046 -75.0457363 21.19057639 -71.375 16.69921875 C-69.92849328 15.03613969 -69.92849328 15.03613969 -69 13 C-67.0282696 11.94535351 -65.02237052 10.95394836 -63 10 C-59.84388287 8.45288376 -56.92707492 6.95138328 -54 5 C-46.07688186 3.01922047 -37.66941269 3.27309771 -30 6 C-30 6.66 -30 7.32 -30 8 C-29.13375 7.71125 -28.2675 7.4225 -27.375 7.125 C-26.26125 6.75375 -25.1475 6.3825 -24 6 C-23.01 5.608125 -22.02 5.21625 -21 4.8125 C-16.56090189 3.61024426 -13.27936321 4.5735456 -9 6 C-8.896875 5.38125 -8.79375 4.7625 -8.6875 4.125 C-7.29656076 -0.17426675 -3.99287257 -0.51190674 0 0 Z " fill="#E5D6D7" transform="translate(105,18)"/>
<path d="M0 0 C0.89783203 0.11859375 1.79566406 0.2371875 2.72070312 0.359375 C6.65493882 0.95609179 9.29846893 1.40554689 12.54296875 3.7890625 C14.40740922 6.57788942 14.23578259 8.59389149 13.9375 11.875 C14.9275 12.205 15.9175 12.535 16.9375 12.875 C16.9375 14.195 16.9375 15.515 16.9375 16.875 C16.2775 16.875 15.6175 16.875 14.9375 16.875 C14.9375 16.215 14.9375 15.555 14.9375 14.875 C14.15375 14.771875 13.37 14.66875 12.5625 14.5625 C9.9375 13.875 9.9375 13.875 7.9375 10.875 C3.84414416 10.42182356 3.84414416 10.42182356 1.375 13.25 C0.570625 14.11625 -0.23375 14.9825 -1.0625 15.875 C-5.07401209 18.54934139 -8.344536 18.70568426 -13.0625 17.875 C-15.38941882 16.4388157 -17.06385796 14.77846861 -19.0625 12.875 C-20.0525 12.875 -21.0425 12.875 -22.0625 12.875 C-22.289375 13.803125 -22.51625 14.73125 -22.75 15.6875 C-24.0625 18.875 -24.0625 18.875 -26.3125 20.75 C-29.42805885 22.0245468 -31.72712503 22.10770058 -35.0625 21.875 C-32.07603231 19.88402154 -29.46562738 18.93375074 -26.0625 17.875 C-25.7325 15.565 -25.4025 13.255 -25.0625 10.875 C-24.42441406 10.81441406 -23.78632812 10.75382812 -23.12890625 10.69140625 C-22.30261719 10.60761719 -21.47632813 10.52382812 -20.625 10.4375 C-19.80128906 10.35628906 -18.97757813 10.27507812 -18.12890625 10.19140625 C-16.07587975 10.08569185 -16.07587975 10.08569185 -15.0625 8.875 C-14.99101801 7.52256083 -14.97850546 6.16665633 -15 4.8125 C-15.020625 3.513125 -15.04125 2.21375 -15.0625 0.875 C-10.0451909 -1.9950265 -5.43781652 -0.86252317 0 0 Z " fill="#449858" transform="translate(66.0625,59.125)"/>
<path d="M0 0 C1.32 0 2.64 0 4 0 C4 0.66 4 1.32 4 2 C6.97 2.495 6.97 2.495 10 3 C10.33 2.34 10.66 1.68 11 1 C10.67 2.32 10.34 3.64 10 5 C9.37351562 5.07476562 8.74703125 5.14953125 8.1015625 5.2265625 C5.59401809 5.62998447 3.36502817 6.06609491 1 7 C-0.69165301 9.98283157 -0.69165301 9.98283157 -1 13 C-2.32 12.67 -3.64 12.34 -5 12 C-5 9.36 -5 6.72 -5 4 C-9.455 5.485 -9.455 5.485 -14 7 C-14 9.64 -14 12.28 -14 15 C-13.39285156 15.23847656 -12.78570312 15.47695312 -12.16015625 15.72265625 C-9.50396606 17.29331483 -8.80088275 18.69723567 -7.4375 21.4375 C-5.75904713 24.78265243 -5.75904713 24.78265243 -3.34765625 27.59765625 C-2 29 -2 29 -2 32 C-4.25 31.8125 -4.25 31.8125 -7 31 C-8.33827304 29.33729713 -9.67189785 27.67083819 -11 26 C-12.32 26 -13.64 26 -15 26 C-15.08107583 27.93681161 -15.13922475 29.8745934 -15.1875 31.8125 C-15.22230469 32.89144531 -15.25710937 33.97039062 -15.29296875 35.08203125 C-14.96489802 38.34961576 -14.43664333 38.97266159 -12 41 C-12 41.66 -12 42.32 -12 43 C-11.4225 43.2475 -10.845 43.495 -10.25 43.75 C-8 45 -8 45 -6.0625 47.1875 C-5.381875 47.785625 -4.70125 48.38375 -4 49 C-1.39719432 48.67958603 -1.39719432 48.67958603 1 48 C3.6855594 50.6855594 4.06049974 53.37621328 5 57 C6.24716797 57.18175781 6.24716797 57.18175781 7.51953125 57.3671875 C8.60621094 57.53476563 9.69289063 57.70234375 10.8125 57.875 C11.89144531 58.03742188 12.97039063 58.19984375 14.08203125 58.3671875 C17 59 17 59 20 61 C27.91776986 61.7155731 34.8869172 61.70473062 42 58 C43.7015625 57.8453125 43.7015625 57.8453125 45.4375 57.6875 C50.31735806 56.74577301 53.27198765 54.16638971 57 51 C57.66 51.33 58.32 51.66 59 52 C57.33333333 53.66666667 55.66666667 55.33333333 54 57 C53.55140625 57.53882813 53.1028125 58.07765625 52.640625 58.6328125 C50.44071418 60.46607152 48.89475665 60.43046999 46.0625 60.5625 C42.47569107 60.70551562 42.47569107 60.70551562 39.19140625 61.98046875 C35.88043786 63.52086581 32.46917329 63.5627135 28.875 63.75 C28.11815918 63.79165283 27.36131836 63.83330566 26.58154297 63.8762207 C19.56121483 64.17254787 12.98199091 63.98799394 7 60 C6.05125 59.896875 5.1025 59.79375 4.125 59.6875 C0.1006375 58.80214025 -1.31282686 57.05030465 -4 54 C-6.40862266 51.39065878 -8.94215048 49.80334715 -12 48 C-14.5654594 45.4345406 -14.54046087 43.52313332 -15 40 C-15.99 40 -16.98 40 -18 40 C-18.05418326 37.91695462 -18.09287551 35.83350232 -18.125 33.75 C-18.14820313 32.58984375 -18.17140625 31.4296875 -18.1953125 30.234375 C-18.0103949 27.17213954 -17.60823023 25.55797249 -16 23 C-14.35 23 -12.7 23 -11 23 C-11 21.68 -11 20.36 -11 19 C-11.639375 18.87625 -12.27875 18.7525 -12.9375 18.625 C-13.9584375 18.315625 -13.9584375 18.315625 -15 18 C-16.75846409 14.48307181 -16.80800541 10.81667597 -16 7 C-14.03780386 4.54034569 -11.92722746 3.13097425 -9 2 C-6.0625 2.1875 -6.0625 2.1875 -4 3 C-4 5.64 -4 8.28 -4 11 C-3.34 11 -2.68 11 -2 11 C-1.24758891 7.34543185 -0.59950296 3.68266103 0 0 Z " fill="#9ED5D8" transform="translate(33,53)"/>
<path d="M0 0 C2.375 0.3125 2.375 0.3125 5 1 C5.66 1.99 6.32 2.98 7 4 C9.05925139 4.72382467 9.05925139 4.72382467 11 5 C11 5.66 11 6.32 11 7 C11.99 7.33 12.98 7.66 14 8 C13.01 8.33 12.02 8.66 11 9 C10.67 11.97 10.34 14.94 10 18 C6.53030166 19.58614781 3.8262394 20.50345255 0 20 C-0.4228125 19.49210937 -0.845625 18.98421875 -1.28125 18.4609375 C-2.97227718 16.70560838 -2.97227718 16.70560838 -5.7421875 16.98828125 C-6.77601562 17.09527344 -7.80984375 17.20226562 -8.875 17.3125 C-14.4545718 17.50839296 -14.4545718 17.50839296 -16.8984375 15.23046875 C-18.25 13 -18.25 13 -20 9 C-24.455 9.495 -24.455 9.495 -29 10 C-28.01 7.36 -27.02 4.72 -26 2 C-22 3 -22 3 -19.8125 5.0625 C-16.3698351 7.4341136 -14.24732739 7.5697768 -10.15234375 7.40625 C-7.01938214 6.8149106 -5.24837961 5.18024689 -3 3 C-2.34 3 -1.68 3 -1 3 C-0.67 2.01 -0.34 1.02 0 0 Z " fill="#45B8B5" transform="translate(70,69)"/>
<path d="M0 0 C2.3125 0.125 2.3125 0.125 5 1 C6.35827971 2.64639965 7.69254251 4.31295807 9 6 C11.12946603 6.86965506 11.12946603 6.86965506 13 7 C13.33 6.34 13.66 5.68 14 5 C14.33 6.32 14.66 7.64 15 9 C15.804375 8.979375 16.60875 8.95875 17.4375 8.9375 C20 9 20 9 21 10 C22.51469448 10.23192865 24.03754562 10.41215238 25.5625 10.5625 C26.38878906 10.64628906 27.21507813 10.73007813 28.06640625 10.81640625 C28.70449219 10.87699219 29.34257813 10.93757813 30 11 C30 12.66666667 30 14.33333333 30 16 C29.01 16.33 28.02 16.66 27 17 C26.67 19.31 26.34 21.62 26 24 C25.01 24 24.02 24 23 24 C22.67 21.03 22.34 18.06 22 15 C19.36 15 16.72 15 14 15 C14.33 16.65 14.66 18.3 15 20 C15.99 20.33 16.98 20.66 18 21 C17.67 22.32 17.34 23.64 17 25 C15.35 24.34 13.7 23.68 12 23 C11.67 23.66 11.34 24.32 11 25 C-1 13 -1 13 -1.23046875 10.21484375 C-1.21628906 9.13332031 -1.20210937 8.05179688 -1.1875 6.9375 C-1.18105469 5.85339844 -1.17460937 4.76929687 -1.16796875 3.65234375 C-1 1 -1 1 0 0 Z " fill="#8CCDD8" transform="translate(18,78)"/>
<path d="M0 0 C0.06058594 0.63808594 0.12117188 1.27617188 0.18359375 1.93359375 C0.26738281 2.75988281 0.35117187 3.58617187 0.4375 4.4375 C0.51871094 5.26121094 0.59992187 6.08492188 0.68359375 6.93359375 C0.78930815 8.98662025 0.78930815 8.98662025 2 10 C4.35313555 10.07271741 6.70833668 10.08370868 9.0625 10.0625 C10.35285156 10.05347656 11.64320312 10.04445313 12.97265625 10.03515625 C13.97167969 10.02355469 14.97070312 10.01195313 16 10 C16.33 8.68 16.66 7.36 17 6 C16.01 5.67 15.02 5.34 14 5 C14.33 3.68 14.66 2.36 15 1 C20.25490196 -0.31372549 20.25490196 -0.31372549 23.375 1 C25 3 25 3 25.375 6.5625 C25 10 25 10 23 12 C20.34462628 12.56520003 17.70855287 12.73788198 15 13 C14.979375 13.928125 14.95875 14.85625 14.9375 15.8125 C14 19 14 19 10.75 20.9375 C5.43088418 22.44458281 5.43088418 22.44458281 2 21 C-1.46667672 18.02856281 -3.79216248 14.97410754 -6 11 C-6.33 10.67 -6.66 10.34 -7 10 C-7.375 6.625 -7.375 6.625 -7 3 C-4.60259082 1.04421883 -3.12413392 0 0 0 Z " fill="#B5634F" transform="translate(27,58)"/>
<path d="M0 0 C0.66 0.33 1.32 0.66 2 1 C3.18876447 5.52065363 3.5412758 9.63256639 1.8125 14 C-2.01591247 16.72242665 -5.60954593 17.02406512 -10.22265625 17.54296875 C-13.20262242 17.83735537 -13.20262242 17.83735537 -16 20 C-19.3539295 19.91615176 -20.61650064 19.38349936 -23 17 C-24.49249597 12.5225121 -22.90253787 9.18558331 -21 5 C-20 4 -20 4 -16.9375 3.9375 C-15.4834375 3.9684375 -15.4834375 3.9684375 -14 4 C-13.67 6.31 -13.34 8.62 -13 11 C-11.35 11 -9.7 11 -8 11 C-8.04640625 10.38511719 -8.0928125 9.77023438 -8.140625 9.13671875 C-8.43570348 2.52906851 -8.43570348 2.52906851 -6.25 -0.125 C-3.61406251 -1.1500868 -2.59259403 -1.03703761 0 0 Z " fill="#D46569" transform="translate(105,20)"/>
<path d="M0 0 C3.3 0.33 6.6 0.66 10 1 C9.69972554 4.30301909 9.41350975 6.45925649 7.375 9.125 C-0.34289954 15.21807859 -7.31366969 16.49252527 -17 16 C-17.66 15.34 -18.32 14.68 -19 14 C-19 12.68 -19 11.36 -19 10 C-15.535 9.505 -15.535 9.505 -12 9 C-12 6.69 -12 4.38 -12 2 C-10.02 2 -8.04 2 -6 2 C-5.7525 2.804375 -5.505 3.60875 -5.25 4.4375 C-4.27761141 7.171081 -4.27761141 7.171081 -1.875 7.8125 C-1.25625 7.874375 -0.6375 7.93625 0 8 C0 5.36 0 2.72 0 0 Z " fill="#78B4C1" transform="translate(70,98)"/>
<path d="M0 0 C0.80824219 0.10183594 1.61648437 0.20367188 2.44921875 0.30859375 C3.06410156 0.39238281 3.67898437 0.47617187 4.3125 0.5625 C4.3125 1.5525 4.3125 2.5425 4.3125 3.5625 C6.2925 3.5625 8.2725 3.5625 10.3125 3.5625 C11.875 6.375 11.875 6.375 13.3125 9.5625 C12.9825 10.5525 12.6525 11.5425 12.3125 12.5625 C8.8750177 12.59151394 5.43756688 12.60930335 2 12.625 C0.53530273 12.63756836 0.53530273 12.63756836 -0.95898438 12.65039062 C-1.89677734 12.65361328 -2.83457031 12.65683594 -3.80078125 12.66015625 C-5.09689331 12.66801147 -5.09689331 12.66801147 -6.41918945 12.67602539 C-8.6875 12.5625 -8.6875 12.5625 -11.6875 11.5625 C-11.6875 10.9025 -11.6875 10.2425 -11.6875 9.5625 C-13.0075 9.5625 -14.3275 9.5625 -15.6875 9.5625 C-16.0175 8.5725 -16.3475 7.5825 -16.6875 6.5625 C-15.759375 6.500625 -14.83125 6.43875 -13.875 6.375 C-10.50709514 5.89273575 -10.50709514 5.89273575 -9 3.0625 C-8.3503125 1.825 -8.3503125 1.825 -7.6875 0.5625 C-4.59271121 -0.46909626 -3.16118607 -0.41232862 0 0 Z " fill="#96A76D" transform="translate(66.6875,24.4375)"/>
<path d="M0 0 C0.66677162 7.20113346 -1.33436983 11.83453023 -5 18 C-6 19 -6 19 -8.28515625 19.09765625 C-9.65994141 19.08025391 -9.65994141 19.08025391 -11.0625 19.0625 C-11.98160156 19.05347656 -12.90070313 19.04445313 -13.84765625 19.03515625 C-14.55792969 19.02355469 -15.26820312 19.01195313 -16 19 C-18.01363791 14.97272418 -17.11314664 10.22995723 -16 6 C-15.265625 3.9296875 -15.265625 3.9296875 -14 2 C-11.7578125 1.171875 -11.7578125 1.171875 -9.125 0.75 C-8.26132813 0.60046875 -7.39765625 0.4509375 -6.5078125 0.296875 C-4 0 -4 0 0 0 Z " fill="#8D4A34" transform="translate(104,65)"/>
<path d="M0 0 C3 0.125 3 0.125 4 1.125 C6.67058851 1.26615161 9.32432238 1.16747107 12 1.125 C11.67 2.775 11.34 4.425 11 6.125 C10.34 6.125 9.68 6.125 9 6.125 C9 7.445 9 8.765 9 10.125 C3.97714034 15.1906074 -1.76594438 17.8594914 -8.7734375 18.73828125 C-11.01491579 18.99693313 -11.01491579 18.99693313 -12.8046875 20.16015625 C-16.05420308 21.58832413 -19.26997361 21.3355205 -22.75 21.25 C-23.44738281 21.24097656 -24.14476562 21.23195313 -24.86328125 21.22265625 C-26.57566958 21.19919888 -28.28788004 21.16333104 -30 21.125 C-30 20.795 -30 20.465 -30 20.125 C-29.02160156 20.05023438 -28.04320312 19.97546875 -27.03515625 19.8984375 C-18.74088189 19.06656338 -12.33204687 18.0641275 -6 12.125 C-5.34 11.135 -4.68 10.145 -4 9.125 C-2.68 9.125 -1.36 9.125 0 9.125 C-0.59861742 6.77328869 -1.26924352 4.4390622 -2 2.125 C-2.66 1.795 -3.32 1.465 -4 1.125 C-3 0.125 -3 0.125 0 0 Z " fill="#B6C09C" transform="translate(83,93.875)"/>
<path d="M0 0 C0 0.99 0 1.98 0 3 C-0.66 3.66 -1.32 4.32 -2 5 C-2.39764263 6.98821313 -2.73775349 8.98944339 -3 11 C-0.69 11.66 1.62 12.32 4 13 C4 13.66 4 14.32 4 15 C4.78375 15.0825 5.5675 15.165 6.375 15.25 C9 16 9 16 10.125 18 C10.41375 18.66 10.7025 19.32 11 20 C11.99 20.33 12.98 20.66 14 21 C14 21.33 14 21.66 14 22 C11.69 22.66 9.38 23.32 7 24 C7 24.99 7 25.98 7 27 C7.66 27.33 8.32 27.66 9 28 C8.67 29.65 8.34 31.3 8 33 C5.70858714 33.05384521 3.41681812 33.09272087 1.125 33.125 C-0.15117188 33.14820313 -1.42734375 33.17140625 -2.7421875 33.1953125 C-6 33 -6 33 -8 31 C-8.1953125 28.8359375 -8.1953125 28.8359375 -8.125 26.375 C-8.10695313 25.55773437 -8.08890625 24.74046875 -8.0703125 23.8984375 C-8.04710937 23.27195312 -8.02390625 22.64546875 -8 22 C-8.78375 22.495 -9.5675 22.99 -10.375 23.5 C-13 25 -13 25 -15 25 C-15 27.31 -15 29.62 -15 32 C-15.33 32 -15.66 32 -16 32 C-16.43338684 26.71268058 -16.43338684 26.71268058 -16 24 C-12.80434964 21.15942191 -11.3252957 21 -7 21 C-6.67 23.64 -6.34 26.28 -6 29 C-5.01 29.33 -4.02 29.66 -3 30 C-3.12375 28.8553125 -3.12375 28.8553125 -3.25 27.6875 C-3 25 -3 25 -1.4375 23.25 C1.67613658 21.65326329 4.53885353 21.33280254 8 21 C8 20.01 8 19.02 8 18 C3.71 16.02 -0.58 14.04 -5 12 C-4.50769231 4.61538462 -4.50769231 4.61538462 -1.9375 1.5 C-1.298125 1.005 -0.65875 0.51 0 0 Z " fill="#CEC186" transform="translate(35,36)"/>
<path d="M0 0 C0.6875 2.1875 0.6875 2.1875 1 5 C0.02065076 6.67888441 -0.98343919 8.34338239 -2 10 C-2.83142855 12.97010319 -3.43857298 15.96829408 -4 19 C-5.43836751 18.88541307 -6.87570966 18.75790884 -8.3125 18.625 C-9.11300781 18.55539063 -9.91351563 18.48578125 -10.73828125 18.4140625 C-13 18 -13 18 -16 16 C-16.73815948 11.94012286 -16.22323697 10.33823783 -13.9375 6.875 C-10.01437264 2.63980569 -5.89475697 0 0 0 Z " fill="#C24242" transform="translate(48,31)"/>
<path d="M0 0 C3.875 2.625 3.875 2.625 5 6 C7.76276177 5.47731534 10.3260876 4.89130413 13 4 C12.34 5.65 11.68 7.3 11 9 C9.35 9 7.7 9 6 9 C6.66 12.3 7.32 15.6 8 19 C6.02 19.99 6.02 19.99 4 21 C2.73195434 23.0335948 2.73195434 23.0335948 2 25 C1.01 25 0.02 25 -1 25 C-1 24.01 -1 23.02 -1 22 C-1.66 22 -2.32 22 -3 22 C-3 20.68 -3 19.36 -3 18 C-2.01 17.34 -1.02 16.68 0 16 C-0.52268466 13.23723823 -1.10869587 10.6739124 -2 8 C-2.66 8 -3.32 8 -4 8 C-4.33 6.68 -4.66 5.36 -5 4 C-4.0409375 3.8453125 -4.0409375 3.8453125 -3.0625 3.6875 C-2.381875 3.460625 -1.70125 3.23375 -1 3 C-0.67 2.01 -0.34 1.02 0 0 Z " fill="#769E53" transform="translate(80,33)"/>
<path d="M0 0 C-0.99 0 -1.98 0 -3 0 C-2.88590407 1.45922693 -2.75834456 2.91740598 -2.625 4.375 C-2.55539063 5.18710937 -2.48578125 5.99921875 -2.4140625 6.8359375 C-2.17107412 9.20334191 -2.17107412 9.20334191 0 11 C0.30675232 13.89967757 0.51173371 16.71783178 0.625 19.625 C0.66367188 20.42679688 0.70234375 21.22859375 0.7421875 22.0546875 C0.83653931 24.03607556 0.91936215 26.01800645 1 28 C-3.8828125 25.2734375 -3.8828125 25.2734375 -4.9375 22.8125 C-5.02397562 18.92109718 -4.07741182 15.7392528 -3 12 C-6.3 12 -9.6 12 -13 12 C-13.495 9.525 -13.495 9.525 -14 7 C-11.69 7 -9.38 7 -7 7 C-7 5.68 -7 4.36 -7 3 C-7.99 2.67 -8.98 2.34 -10 2 C-10 1.34 -10 0.68 -10 0 C-6.33694766 -0.74926071 -3.57644848 -1.2380014 0 0 Z " fill="#E1D85F" transform="translate(103,37)"/>
<path d="M0 0 C4 1 4 1 6.1875 3.0625 C10.10353737 5.76021464 13.37236285 5.84434081 18 5 C20.34784148 3.88836893 21.97032223 2.66537664 24 1 C23.625 3.4375 23.625 3.4375 23 6 C22.01 6.495 22.01 6.495 21 7 C20.855625 7.639375 20.71125 8.27875 20.5625 8.9375 C20 11 20 11 17 13 C14.6875 13.5 14.6875 13.5 12 13 C10.66015625 11.62109375 10.66015625 11.62109375 9.25 9.9375 C7.30734852 7.76600214 6.56843008 7.04193337 3.6171875 6.82421875 C0.8365386 7.1223939 0.8365386 7.1223939 -3 8 C-2.01 5.36 -1.02 2.72 0 0 Z " fill="#3C999B" transform="translate(44,71)"/>
<path d="M0 0 C0.8146875 0.00257812 1.629375 0.00515625 2.46875 0.0078125 C3.2834375 0.00523438 4.098125 0.00265625 4.9375 0 C6.96875 0.1328125 6.96875 0.1328125 7.96875 1.1328125 C9.48344448 1.36474115 11.00629562 1.54496488 12.53125 1.6953125 C13.35753906 1.77910156 14.18382813 1.86289063 15.03515625 1.94921875 C15.67324219 2.00980469 16.31132813 2.07039063 16.96875 2.1328125 C16.96875 3.79947917 16.96875 5.46614583 16.96875 7.1328125 C15.97875 7.4628125 14.98875 7.7928125 13.96875 8.1328125 C13.63875 10.4428125 13.30875 12.7528125 12.96875 15.1328125 C11.97875 15.1328125 10.98875 15.1328125 9.96875 15.1328125 C9.63875 12.1628125 9.30875 9.1928125 8.96875 6.1328125 C4.67875 6.1328125 0.38875 6.1328125 -4.03125 6.1328125 C-2.84185016 0.18581328 -2.84185016 0.18581328 0 0 Z " fill="#91D4D5" transform="translate(31.03125,86.8671875)"/>
<path d="M0 0 C1.65 0 3.3 0 5 0 C5.33 0.66 5.66 1.32 6 2 C6.99 2.33 7.98 2.66 9 3 C9 4.98 9 6.96 9 9 C7.35 9.33 5.7 9.66 4 10 C3.87625 10.5775 3.7525 11.155 3.625 11.75 C2.99351176 14.02335767 2.11141809 15.9253529 1 18 C0.01 17.67 -0.98 17.34 -2 17 C-2 14.36 -2 11.72 -2 9 C-2.99 8.67 -3.98 8.34 -5 8 C-5 7.34 -5 6.68 -5 6 C-3.35 6 -1.7 6 0 6 C0 4.02 0 2.04 0 0 Z " fill="#99CA6C" transform="translate(85,54)"/>
<path d="M0 0 C1.32 0 2.64 0 4 0 C4 0.66 4 1.32 4 2 C6.97 2.495 6.97 2.495 10 3 C10.33 2.34 10.66 1.68 11 1 C10.67 2.32 10.34 3.64 10 5 C9.37351562 5.07476562 8.74703125 5.14953125 8.1015625 5.2265625 C5.59401809 5.62998447 3.36502817 6.06609491 1 7 C-0.69165301 9.98283157 -0.69165301 9.98283157 -1 13 C-2.32 12.67 -3.64 12.34 -5 12 C-5 9.36 -5 6.72 -5 4 C-9.455 5.485 -9.455 5.485 -14 7 C-14 9.64 -14 12.28 -14 15 C-13.401875 15.20625 -12.80375 15.4125 -12.1875 15.625 C-9.18981233 17.50926082 -8.38638224 19.81132084 -7 23 C-8.32 22.34 -9.64 21.68 -11 21 C-11 20.34 -11 19.68 -11 19 C-11.639375 18.87625 -12.27875 18.7525 -12.9375 18.625 C-13.9584375 18.315625 -13.9584375 18.315625 -15 18 C-16.75846409 14.48307181 -16.80800541 10.81667597 -16 7 C-14.03780386 4.54034569 -11.92722746 3.13097425 -9 2 C-6.0625 2.1875 -6.0625 2.1875 -4 3 C-4 5.64 -4 8.28 -4 11 C-3.34 11 -2.68 11 -2 11 C-1.24758891 7.34543185 -0.59950296 3.68266103 0 0 Z " fill="#DECCC3" transform="translate(33,53)"/>
<path d="M0 0 C1.32 0.33 2.64 0.66 4 1 C4 1.66 4 2.32 4 3 C5.32 3 6.64 3 8 3 C7.47731534 5.76276177 6.89130413 8.3260876 6 11 C8.97 11.33 11.94 11.66 15 12 C9.63292157 13.34176961 5.23252144 12.24995291 -0.17578125 11.375 C-4.14556714 10.9857258 -7.11257215 11.27582198 -11 12 C-8 10 -8 10 -5 10 C-4.8453125 8.824375 -4.8453125 8.824375 -4.6875 7.625 C-4 5 -4 5 -1 3 C-0.67 2.01 -0.34 1.02 0 0 Z " fill="#82A360" transform="translate(60,48)"/>
<path d="M0 0 C0.66 0.33 1.32 0.66 2 1 C2.625 3.0625 2.625 3.0625 3 5 C0.73485647 7.33821268 -1.01038241 8.87062724 -4.30078125 9.30078125 C-6.56652115 9.31162211 -8.75164878 9.28336658 -11 9 C-12 8 -12 8 -12.0625 4.4375 C-12.041875 3.303125 -12.02125 2.16875 -12 1 C-7.99071724 -1.83990862 -4.58821702 -0.8140385 0 0 Z " fill="#759936" transform="translate(64,68)"/>
<path d="M0 0 C1.32 0 2.64 0 4 0 C4 0.99 4 1.98 4 3 C5.98 3 7.96 3 10 3 C11.5625 5.8125 11.5625 5.8125 13 9 C12.67 9.99 12.34 10.98 12 12 C7.38 12 2.76 12 -2 12 C-1.44687265 7.97007218 -0.8441938 3.97977076 0 0 Z " fill="#7DA977" transform="translate(67,25)"/>
<path d="M0 0 C4.29926263 1.59231949 6.35005733 4.39313359 9 8 C9 8.99 9 9.98 9 11 C6.75 10.8125 6.75 10.8125 4 10 C2.66172696 8.33729713 1.32810215 6.67083819 0 5 C-1.32 5 -2.64 5 -4 5 C-4.08107583 6.93681161 -4.13922475 8.8745934 -4.1875 10.8125 C-4.22230469 11.89144531 -4.25710937 12.97039062 -4.29296875 14.08203125 C-4.27017785 16.98979574 -4.27017785 16.98979574 -2.59765625 18.734375 C-1.80681641 19.36085938 -1.80681641 19.36085938 -1 20 C2.09341998 24.30869212 2.09341998 24.30869212 1.6875 27.3125 C1.460625 27.869375 1.23375 28.42625 1 29 C-2.67230705 25.92000054 -3.56802365 23.7517398 -4 19 C-4.99 19 -5.98 19 -7 19 C-7.05418326 16.91695462 -7.09287551 14.83350232 -7.125 12.75 C-7.14820313 11.58984375 -7.17140625 10.4296875 -7.1953125 9.234375 C-7.0103949 6.17213954 -6.60823023 4.55797249 -5 2 C-3.35 2 -1.7 2 0 2 C0 1.34 0 0.68 0 0 Z " fill="#ACE4E6" transform="translate(22,74)"/>
<path d="M0 0 C2.31 0.33 4.62 0.66 7 1 C7.33 3.31 7.66 5.62 8 8 C6.68 8.33 5.36 8.66 4 9 C3.67 10.65 3.34 12.3 3 14 C0.03 14 -2.94 14 -6 14 C-6 13.01 -6 12.02 -6 11 C-5.195625 10.4225 -4.39125 9.845 -3.5625 9.25 C-0.63980321 7.13352047 -0.63980321 7.13352047 -0.1875 3.25 C-0.125625 2.1775 -0.06375 1.105 0 0 Z " fill="#6FB6C0" transform="translate(45,96)"/>
<path d="M0 0 C1.98 0 3.96 0 6 0 C6.1953125 2.05078125 6.390625 4.1015625 6.5859375 6.15234375 C6.72257812 6.76207031 6.85921875 7.37179688 7 8 C7.66 8.33 8.32 8.66 9 9 C9 8.34 9 7.68 9 7 C9.99 7.33 10.98 7.66 12 8 C11.9278125 8.77085938 11.855625 9.54171875 11.78125 10.3359375 C11.6884375 11.33882812 11.595625 12.34171875 11.5 13.375 C11.4071875 14.37273437 11.314375 15.37046875 11.21875 16.3984375 C10.97207053 18.89703736 10.97207053 18.89703736 11 21 C12.6254308 20.85904936 14.25034051 20.71207913 15.875 20.5625 C16.77992187 20.48128906 17.68484375 20.40007812 18.6171875 20.31640625 C21.01110861 20.13010715 21.01110861 20.13010715 23 19 C22.30859375 20.94140625 22.30859375 20.94140625 21 23 C18.72265625 23.71484375 18.72265625 23.71484375 16.0625 23.9375 C15.18722656 24.02902344 14.31195313 24.12054688 13.41015625 24.21484375 C11 24 11 24 9.28125 22.88671875 C7.53945106 20.3218136 7.07524414 17.89972933 6.4375 14.875 C6.01894449 12.90282318 5.55271931 10.9388583 5 9 C4.34 8.67 3.68 8.34 3 8 C3 6.02 3 4.04 3 2 C2.01 1.67 1.02 1.34 0 1 C0 0.67 0 0.34 0 0 Z " fill="#ADAD48" transform="translate(77,63)"/>
<path d="M0 0 C1.4540625 0.0309375 1.4540625 0.0309375 2.9375 0.0625 C3.01892927 1.8117214 3.07688541 3.56204542 3.125 5.3125 C3.15980469 6.28703125 3.19460937 7.2615625 3.23046875 8.265625 C2.89825202 11.43718742 2.05077721 12.73290307 -0.0625 15.0625 C-2.58809333 14.7141423 -3.97031423 14.13386963 -6 12.5625 C-7.55075326 8.9136688 -6.26571929 6.58954818 -4.921875 2.98828125 C-3.55745954 -0.06924975 -3.57703906 0.0730008 0 0 Z " fill="#CD0A18" transform="translate(88.0625,23.9375)"/>
<path d="M0 0 C4.875 0.875 4.875 0.875 6 2 C7.51928038 2.07179964 9.04167482 2.08392007 10.5625 2.0625 C11.38878906 2.05347656 12.21507813 2.04445313 13.06640625 2.03515625 C14.02353516 2.01775391 14.02353516 2.01775391 15 2 C15 3.32 15 4.64 15 6 C17.97 6.495 17.97 6.495 21 7 C21 7.33 21 7.66 21 8 C15.87080814 10.10428384 11.4389165 10.21755666 6 10 C5.71253906 9.35160156 5.42507812 8.70320313 5.12890625 8.03515625 C4.75636719 7.36355469 4.38382812 6.69195312 4 6 C2.67405895 5.63837971 1.34061543 5.30271961 0 5 C-0.33 4.01 -0.66 3.02 -1 2 C-0.67 1.34 -0.34 0.68 0 0 Z " fill="#ABD6CA" transform="translate(64,86)"/>
<path d="M0 0 C3.3 0.33 6.6 0.66 10 1 C9.875 3.3125 9.875 3.3125 9 6 C6.25 7.5625 6.25 7.5625 3 9 C2.154375 9.721875 1.30875 10.44375 0.4375 11.1875 C-2.33883091 13.25195119 -3.62574368 13.38562929 -7 13 C-7 12.34 -7 11.68 -7 11 C-7.66 11 -8.32 11 -9 11 C-9.33 8.36 -9.66 5.72 -10 3 C-8.125 3.125 -8.125 3.125 -6 4 C-4.75 7.0625 -4.75 7.0625 -4 10 C-2.35 9.34 -0.7 8.68 1 8 C0.67 5.36 0.34 2.72 0 0 Z " fill="#76B3B0" transform="translate(70,98)"/>
<path d="M0 0 C2.5 1.3125 2.5 1.3125 5 3 C5 3.99 5 4.98 5 6 C5.66 6 6.32 6 7 6 C9.08997373 9.39620731 9.2632246 12.05163095 9 16 C8.67 16.33 8.34 16.66 8 17 C7.60006314 19.68862664 7.24865457 22.36352217 6.9375 25.0625 C6.84662109 25.82111328 6.75574219 26.57972656 6.66210938 27.36132812 C6.4375626 29.2404301 6.21829022 31.12016095 6 33 C5.67 33 5.34 33 5 33 C4.93941406 32.15695313 4.87882812 31.31390625 4.81640625 30.4453125 C4.73261719 29.34960938 4.64882812 28.25390625 4.5625 27.125 C4.48128906 26.03445312 4.40007812 24.94390625 4.31640625 23.8203125 C4.16998297 21.05271029 4.16998297 21.05271029 3 19 C2.7684679 15.86145371 2.60590119 12.73014249 2.48242188 9.5859375 C2.29194383 5.93450926 1.97652381 3.12082706 0 0 Z " fill="#EEEEE5" transform="translate(100,44)"/>
<path d="M0 0 C2.375 0.0625 2.375 0.0625 5 1 C7.31732369 4.32149729 8.06223709 6.19091783 7.75 10.25 C7 13 7 13 6 15 C2.71945456 14.43438872 1.05259094 13.64569087 -1 11 C-1.328125 8.5546875 -1.328125 8.5546875 -1.25 5.875 C-1.23453125 4.98554687 -1.2190625 4.09609375 -1.203125 3.1796875 C-1 1 -1 1 0 0 Z " fill="#75B4C6" transform="translate(18,78)"/>
<path d="M0 0 C3.9492568 0.55105909 7.34920174 1.38935371 11 3 C11 3.66 11 4.32 11 5 C11.99 5.33 12.98 5.66 14 6 C13.01 6.33 12.02 6.66 11 7 C10.67 9.97 10.34 12.94 10 16 C9.01 16 8.02 16 7 16 C7.33 15.67 7.66 15.34 8 15 C8.04080783 13.00041636 8.04254356 10.99954746 8 9 C5.03 9 2.06 9 -1 9 C-0.67 6.03 -0.34 3.06 0 0 Z " fill="#76A6C3" transform="translate(70,71)"/>
<path d="M0 0 C0.99 0 1.98 0 3 0 C3.46060581 6.44848131 2.41348898 10.50277478 -1 16 C-2 17 -2 17 -5.0625 17.0625 C-6.031875 17.041875 -7.00125 17.02125 -8 17 C-8.495 14.525 -8.495 14.525 -9 12 C-3.25 7.125 -3.25 7.125 -1 6 C-0.34227572 2.97065509 -0.34227572 2.97065509 0 0 Z " fill="#6A2F1C" transform="translate(99,66)"/>
<path d="M0 0 C0.66 0.33 1.32 0.66 2 1 C1.67 2.32 1.34 3.64 1 5 C1.71542969 4.9484375 2.43085938 4.896875 3.16796875 4.84375 C6.47174781 5.02602747 8.40676078 5.95027242 11.3125 7.5 C12.19550781 7.9640625 13.07851563 8.428125 13.98828125 8.90625 C14.98408203 9.44765625 14.98408203 9.44765625 16 10 C16 10.99 16 11.98 16 13 C13.03 12.505 13.03 12.505 10 12 C10 11.34 10 10.68 10 10 C8.68 10 7.36 10 6 10 C6.04125 10.886875 6.0825 11.77375 6.125 12.6875 C6.00102754 15.97277013 5.38612096 18.05449295 4 21 C3.34 21 2.68 21 2 21 C1.67 18.36 1.34 15.72 1 13 C-0.65 13 -2.3 13 -4 13 C-4 12.34 -4 11.68 -4 11 C-2.865625 10.71125 -1.73125 10.4225 -0.5625 10.125 C0.613125 9.75375 1.78875 9.3825 3 9 C3.33 8.34 3.66 7.68 4 7 C2.68 6.67 1.36 6.34 0 6 C0 4.02 0 2.04 0 0 Z " fill="#EEEDE3" transform="translate(27,43)"/>
<path d="M0 0 C5.94 0.33 11.88 0.66 18 1 C18 1.33 18 1.66 18 2 C12.06 2.495 12.06 2.495 6 3 C6.33 3.66 6.66 4.32 7 5 C9.97 5 12.94 5 16 5 C16 5.66 16 6.32 16 7 C16.66 7.33 17.32 7.66 18 8 C17.34 9.98 16.68 11.96 16 14 C15.01 14 14.02 14 13 14 C12.67 14.99 12.34 15.98 12 17 C11.67 15.68 11.34 14.36 11 13 C11.66 12.67 12.32 12.34 13 12 C13.65213292 9.97536745 13.65213292 9.97536745 14 8 C12.39125 8.0928125 12.39125 8.0928125 10.75 8.1875 C6.74485691 7.98724285 5.90595766 7.50513592 3 5 C0.85266073 4.29485154 0.85266073 4.29485154 -1 4 C-0.67 2.68 -0.34 1.36 0 0 Z " fill="#E2E0DB" transform="translate(81,87)"/>
<path d="M0 0 C0.66 0.33 1.32 0.66 2 1 C0.33333333 2.66666667 -1.33333333 4.33333333 -3 6 C-3.67289063 6.80824219 -3.67289063 6.80824219 -4.359375 7.6328125 C-6.55928582 9.46607152 -8.10524335 9.43046999 -10.9375 9.5625 C-14.52430893 9.70551562 -14.52430893 9.70551562 -17.80859375 10.98046875 C-21.11957269 12.52087072 -24.53082033 12.56267224 -28.125 12.75 C-29.25808594 12.81247925 -29.25808594 12.81247925 -30.4140625 12.8762207 C-36.03074306 13.11365529 -41.69376916 13.10038304 -47 11 C-47.33 10.34 -47.66 9.68 -48 9 C-47.37996094 9.0721875 -46.75992188 9.144375 -46.12109375 9.21875 C-30.11688529 11.16506925 -30.11688529 11.16506925 -15 7 C-13.865625 6.896875 -12.73125 6.79375 -11.5625 6.6875 C-6.68264194 5.74577301 -3.72801235 3.16638971 0 0 Z " fill="#DADFD7" transform="translate(90,104)"/>
<path d="M0 0 C0.33 2.64 0.66 5.28 1 8 C1.99 8.33 2.98 8.66 4 9 C4 7.35 4 5.7 4 4 C5.32 4 6.64 4 8 4 C8.2475 4.969375 8.495 5.93875 8.75 6.9375 C9.1625 7.948125 9.575 8.95875 10 10 C12.03243548 10.96877057 12.03243548 10.96877057 14 11 C13.67 9.35 13.34 7.7 13 6 C13.99 6.33 14.98 6.66 16 7 C15.67 8.65 15.34 10.3 15 12 C12.70858714 12.05384521 10.41681812 12.09272087 8.125 12.125 C6.21074219 12.15980469 6.21074219 12.15980469 4.2578125 12.1953125 C1 12 1 12 -1 10 C-1.1953125 7.8359375 -1.1953125 7.8359375 -1.125 5.375 C-1.10695313 4.55773438 -1.08890625 3.74046875 -1.0703125 2.8984375 C-1.04710937 2.27195313 -1.02390625 1.64546875 -1 1 C-1.78375 1.495 -2.5675 1.99 -3.375 2.5 C-6 4 -6 4 -8 4 C-8 6.31 -8 8.62 -8 11 C-8.33 11 -8.66 11 -9 11 C-9.43338684 5.71268058 -9.43338684 5.71268058 -9 3 C-5.80434964 0.15942191 -4.3252957 0 0 0 Z " fill="#B8A77F" transform="translate(28,57)"/>
<path d="M0 0 C0.66 0.99 1.32 1.98 2 3 C1.071875 2.79375 0.14375 2.5875 -0.8125 2.375 C-4.15173402 1.63307034 -4.15173402 1.63307034 -7 4 C-7.57993699 6.19454681 -7.57993699 6.19454681 -7.6875 8.625 C-7.75324219 9.44226562 -7.81898437 10.25953125 -7.88671875 11.1015625 C-7.92410156 11.72804688 -7.96148437 12.35453125 -8 13 C-9.65 13 -11.3 13 -13 13 C-13.33 10.69 -13.66 8.38 -14 6 C-17.47548841 6.53977565 -17.47548841 6.53977565 -21 8 C-22.31685277 10.9502491 -22.31685277 10.9502491 -23 14 C-23.99 14.66 -24.98 15.32 -26 16 C-26.33 14.68 -26.66 13.36 -27 12 C-26.34 11.67 -25.68 11.34 -25 11 C-24.54625 10.195625 -24.0925 9.39125 -23.625 8.5625 C-21.86776149 5.79147003 -21.12198323 4.89199521 -18 4 C-14.7887064 4.32768302 -12.06155231 4.97948256 -9 6 C-8.896875 5.38125 -8.79375 4.7625 -8.6875 4.125 C-7.29656076 -0.17426675 -3.99287257 -0.51190674 0 0 Z " fill="#DBA1A3" transform="translate(105,18)"/>
<path d="M0 0 C0.66 0.66 1.32 1.32 2 2 C1.67 2.99 1.34 3.98 1 5 C0.34 5 -0.32 5 -1 5 C-1.5775 5.639375 -2.155 6.27875 -2.75 6.9375 C-5.48382274 9.44350418 -7.36785602 9.66980509 -11 10 C-10.63519313 2.58226037 -10.63519313 2.58226037 -7.75 -0.0625 C-4.60756764 -1.13378376 -3.11002718 -1.09271225 0 0 Z " fill="#3EC4C1" transform="translate(51,78)"/>
<path d="M0 0 C1.3602832 0.17789063 1.3602832 0.17789063 2.74804688 0.359375 C6.71286351 0.95453511 9.4034778 1.3923081 12.67578125 3.7890625 C14.53001542 6.57824855 14.36034875 8.59866376 14.0625 11.875 C15.0525 12.205 16.0425 12.535 17.0625 12.875 C17.0625 14.195 17.0625 15.515 17.0625 16.875 C16.4025 16.875 15.7425 16.875 15.0625 16.875 C15.0625 16.215 15.0625 15.555 15.0625 14.875 C14.258125 14.730625 13.45375 14.58625 12.625 14.4375 C10.0625 13.875 10.0625 13.875 9.0625 12.875 C8.99044489 11.18891034 8.97863932 9.49999341 9 7.8125 C9.00902344 6.89339844 9.01804687 5.97429687 9.02734375 5.02734375 C9.03894531 4.31707031 9.05054687 3.60679688 9.0625 2.875 C7.97710937 2.81441406 6.89171875 2.75382812 5.7734375 2.69140625 C4.32811514 2.60693936 2.88280318 2.52229449 1.4375 2.4375 C0.36822266 2.37852539 0.36822266 2.37852539 -0.72265625 2.31835938 C-4.85553682 2.07190319 -8.86019024 1.64029947 -12.9375 0.875 C-8.51478542 -2.07347639 -5.07644908 -0.79038839 0 0 Z " fill="#6C9D52" transform="translate(65.9375,59.125)"/>
<path d="M0 0 C0.99 0.33 1.98 0.66 3 1 C3 1.66 3 2.32 3 3 C4.32 3 5.64 3 7 3 C5.85993252 6.94638742 4.85598116 9.14401884 2 12 C0.79950593 15.10007201 0.79950593 15.10007201 0 18 C-0.66 18 -1.32 18 -2 18 C-3.41000664 15.17998673 -3.24548451 13.12992745 -3 10 C-2.01810813 8.32260138 -1.01866229 6.65532623 0 5 C0.25196129 2.29046449 0.25196129 2.29046449 0 0 Z " fill="#699A5D" transform="translate(48,31)"/>
<path d="M0 0 C1.65 0 3.3 0 5 0 C5.37125 1.2065625 5.37125 1.2065625 5.75 2.4375 C6.72238859 5.171081 6.72238859 5.171081 9.125 5.8125 C10.053125 5.9053125 10.053125 5.9053125 11 6 C11 4.02 11 2.04 11 0 C12.65 0 14.3 0 16 0 C15.9375 2.8125 15.9375 2.8125 15 6 C11.62725179 8.01067682 9.19113676 9 5.25 9 C2.17609806 7.63382136 1.36670101 6.02112854 0 3 C0 2.01 0 1.02 0 0 Z " fill="#7B4737" transform="translate(26,71)"/>
<path d="M0 0 C3.40059486 0.49592008 4.60903147 1.00094097 7 3.4375 C7.53125 6.46875 7.53125 6.46875 7.5 9.9375 C7.5103125 11.0821875 7.520625 12.226875 7.53125 13.40625 C7 16.4375 7 16.4375 4.96875 18.34375 C4.3190625 18.7046875 3.669375 19.065625 3 19.4375 C3.33644531 18.89480469 3.67289063 18.35210937 4.01953125 17.79296875 C5.24458838 14.84990322 5.03678586 12.90198925 4.6875 9.75 C4.58824219 8.77675781 4.48898438 7.80351562 4.38671875 6.80078125 C4.2441564 4.48711105 4.2441564 4.48711105 3 3.4375 C-0.72224599 3.14363847 -1.77786243 3.28940829 -5 5.4375 C-5.33 6.4275 -5.66 7.4175 -6 8.4375 C-7.43791516 8.29581863 -8.8753237 8.14898957 -10.3125 8 C-11.11300781 7.91878906 -11.91351563 7.83757813 -12.73828125 7.75390625 C-15 7.4375 -15 7.4375 -18 6.4375 C-16.4375 4.875 -16.4375 4.875 -14 3.4375 C-12.845 3.623125 -11.69 3.80875 -10.5 4 C-9.345 4.144375 -8.19 4.28875 -7 4.4375 C-2.69451074 0.39294948 -2.69451074 0.39294948 0 0 Z " fill="#E6C8C6" transform="translate(102,15.5625)"/>
<path d="M0 0 C0.66 0.33 1.32 0.66 2 1 C1.67 1.33 1.34 1.66 1 2 C0.92728259 4.35313555 0.91629132 6.70833668 0.9375 9.0625 C0.94652344 10.35285156 0.95554687 11.64320312 0.96484375 12.97265625 C0.97644531 13.97167969 0.98804687 14.97070312 1 16 C-8.41002278 18.11161731 -8.41002278 18.11161731 -13 19 C-13.33 18.34 -13.66 17.68 -14 17 C-13.195625 16.87625 -12.39125 16.7525 -11.5625 16.625 C-10.716875 16.41875 -9.87125 16.2125 -9 16 C-7.85185003 13.70370006 -7.69230191 11.92301914 -7.4375 9.375 C-7.35371094 8.55773438 -7.26992187 7.74046875 -7.18359375 6.8984375 C-7.12300781 6.27195312 -7.06242187 5.64546875 -7 5 C-6.67 5 -6.34 5 -6 5 C-6 6.65 -6 8.3 -6 10 C-4.35 10 -2.7 10 -1 10 C-1.01160156 9.36191406 -1.02320312 8.72382813 -1.03515625 8.06640625 C-1.04417969 7.24011719 -1.05320312 6.41382813 -1.0625 5.5625 C-1.07410156 4.73878906 -1.08570312 3.91507813 -1.09765625 3.06640625 C-1 1 -1 1 0 0 Z " fill="#BC725D" transform="translate(98,21)"/>
<path d="M0 0 C1.32 0.66 2.64 1.32 4 2 C4.125 4.375 4.125 4.375 4 7 C3.34 7.66 2.68 8.32 2 9 C1.60235737 10.98821313 1.26224651 12.98944339 1 15 C0.4225 14.690625 -0.155 14.38125 -0.75 14.0625 C-2.84294184 13.07416636 -4.74535275 12.4831387 -7 12 C-7.226875 12.928125 -7.45375 13.85625 -7.6875 14.8125 C-9 18 -9 18 -11.25 19.875 C-14.36555885 21.1495468 -16.66462503 21.23270058 -20 21 C-17.01353231 19.00902154 -14.40312738 18.05875074 -11 17 C-10.67 14.69 -10.34 12.38 -10 10 C-9.36191406 9.93941406 -8.72382812 9.87882812 -8.06640625 9.81640625 C-7.24011719 9.73261719 -6.41382813 9.64882812 -5.5625 9.5625 C-4.73878906 9.48128906 -3.91507813 9.40007812 -3.06640625 9.31640625 C-1.01337975 9.21069185 -1.01337975 9.21069185 0 8 C0.07148199 6.64756083 0.08399454 5.29165633 0.0625 3.9375 C0.041875 2.638125 0.02125 1.33875 0 0 Z " fill="#4E725C" transform="translate(51,60)"/>
<path d="M0 0 C3.375 -0.1875 3.375 -0.1875 7 0 C7.66 0.99 8.32 1.98 9 3 C11.6556728 3.58348752 11.6556728 3.58348752 14.625 3.6875 C15.62789062 3.75324219 16.63078125 3.81898437 17.6640625 3.88671875 C18.43492188 3.92410156 19.20578125 3.96148437 20 4 C20.12375 4.639375 20.2475 5.27875 20.375 5.9375 C20.58125 6.618125 20.7875 7.29875 21 8 C21.66 8.33 22.32 8.66 23 9 C22.67 9.66 22.34 10.32 22 11 C20.68 10.67 19.36 10.34 18 10 C18.33 9.01 18.66 8.02 19 7 C15.7 6.67 12.4 6.34 9 6 C8.67 6.99 8.34 7.98 8 9 C7.505 6.525 7.505 6.525 7 4 C5.02 4 3.04 4 1 4 C1.66 3.67 2.32 3.34 3 3 C3 2.34 3 1.68 3 1 C2.01 0.67 1.02 0.34 0 0 Z " fill="#81B4BA" transform="translate(61,92)"/>
<path d="M0 0 C-0.99 0 -1.98 0 -3 0 C-3 2.31 -3 4.62 -3 7 C-3.99 6.67 -4.98 6.34 -6 6 C-6.33 7.65 -6.66 9.3 -7 11 C-6.34 11.33 -5.68 11.66 -5 12 C-7.64 12 -10.28 12 -13 12 C-13.495 9.525 -13.495 9.525 -14 7 C-11.69 7 -9.38 7 -7 7 C-7 5.68 -7 4.36 -7 3 C-7.99 2.67 -8.98 2.34 -10 2 C-10 1.34 -10 0.68 -10 0 C-6.33694766 -0.74926071 -3.57644848 -1.2380014 0 0 Z " fill="#B6D764" transform="translate(103,37)"/>
<path d="M0 0 C0.125 2.875 0.125 2.875 0 6 C-2 8 -2 8 -5 8.25 C-8 8 -8 8 -10 6 C-9.625 2.875 -9.625 2.875 -9 0 C-5.67465243 -1.10844919 -3.37817425 -0.84454356 0 0 Z " fill="#616D98" transform="translate(79,80)"/>
<path d="M0 0 C1.32 0 2.64 0 4 0 C4 0.99 4 1.98 4 3 C3.01 3.495 3.01 3.495 2 4 C1.80568235 6.04033535 1.61142512 8.08067656 1.41796875 10.12109375 C1 12 1 12 -1.0625 13.5 C-1.701875 13.665 -2.34125 13.83 -3 14 C-4.5 12.6875 -4.5 12.6875 -6 11 C-6 10.01 -6 9.02 -6 8 C-5.34 8 -4.68 8 -4 8 C-4 6.35 -4 4.7 -4 3 C-3.01 3 -2.02 3 -1 3 C-0.67 2.01 -0.34 1.02 0 0 Z " fill="#C7292C" transform="translate(41,34)"/>
<path d="M0 0 C0.598125 0.680625 1.19625 1.36125 1.8125 2.0625 C6.55070036 4.94258257 10.68733401 3.85598121 16 3 C15.34 5.97 14.68 8.94 14 12 C15.32 12.33 16.64 12.66 18 13 C13.90061825 13.2411401 10.74901467 12.7115067 7 11 C5.375 8.625 5.375 8.625 4 6 C3.278125 5.278125 2.55625 4.55625 1.8125 3.8125 C1.214375 3.214375 0.61625 2.61625 0 2 C0 1.34 0 0.68 0 0 Z " fill="#81AEB4" transform="translate(26,76)"/>
<path d="M0 0 C0.7425 0.2475 1.485 0.495 2.25 0.75 C1.92 3.06 1.59 5.37 1.25 7.75 C0.26 8.08 -0.73 8.41 -1.75 8.75 C-2.08 9.74 -2.41 10.73 -2.75 11.75 C-3.74 11.42 -4.73 11.09 -5.75 10.75 C-6.5 7.5 -6.5 7.5 -6.75 3.75 C-4.68515231 0.57331125 -3.83637359 -0.34876124 0 0 Z " fill="#8FA075" transform="translate(56.75,43.25)"/>
<path d="M0 0 C0.33 0 0.66 0 1 0 C1.10812003 2.75105422 1.18734945 5.49785087 1.25 8.25 C1.28351563 9.02730469 1.31703125 9.80460937 1.3515625 10.60546875 C1.45130461 16.44038228 1.45130461 16.44038228 -0.953125 19.421875 C-1.62859375 19.94265625 -2.3040625 20.4634375 -3 21 C-3.33 21.66 -3.66 22.32 -4 23 C-8.62 23 -13.24 23 -18 23 C-18 22.67 -18 22.34 -18 22 C-17.19175781 21.99484375 -16.38351563 21.9896875 -15.55078125 21.984375 C-12.03522901 21.72993214 -9.27698164 21.32273998 -6 20 C-1.7302493 14.25362719 -0.40566118 7.03146038 0 0 Z " fill="#D7D5CE" transform="translate(104,65)"/>
<path d="M0 0 C2.0625 0.4375 2.0625 0.4375 4 1 C3.01 1 2.02 1 1 1 C0.690625 1.804375 0.38125 2.60875 0.0625 3.4375 C-1 6 -1 6 -2 7 C-3.85229545 7.13336527 -5.70718879 7.23122855 -7.5625 7.3125 C-13.3385127 7.72655109 -17.05552466 9.05233201 -22 12 C-21.77734375 10.11791992 -21.77734375 10.11791992 -21 8 C-19.06640625 6.91918945 -19.06640625 6.91918945 -16.5625 6.11328125 C-15.66789062 5.81486328 -14.77328125 5.51644531 -13.8515625 5.20898438 C-12.91054688 4.91314453 -11.96953125 4.61730469 -11 4.3125 C-9.14515504 3.70649928 -7.29095123 3.0985314 -5.4375 2.48828125 C-4.19806641 2.09443237 -4.19806641 2.09443237 -2.93359375 1.69262695 C-1.02015897 1.16257013 -1.02015897 1.16257013 0 0 Z " fill="#C8D6AB" transform="translate(58,24)"/>
<path d="M0 0 C5.19209404 -0.21192221 9.126739 0.4087311 14 2 C14 2.66 14 3.32 14 4 C14.928125 3.67 15.85625 3.34 16.8125 3 C20 2 20 2 23 2 C21.47793991 4.62901288 20.15634036 6.84365964 18 9 C17.34 8.34 16.68 7.68 16 7 C14.01178687 6.60235737 12.01055661 6.26224651 10 6 C10 5.01 10 4.02 10 3 C6.37 2.67 2.74 2.34 -1 2 C-0.67 1.34 -0.34 0.68 0 0 Z " fill="#D8CFBC" transform="translate(61,22)"/>
<path d="M0 0 C0.6875 2.1875 0.6875 2.1875 1 5 C0.02065076 6.67888441 -0.98343919 8.34338239 -2 10 C-2.83142855 12.97010319 -3.43857298 15.96829408 -4 19 C-5.65 18.67 -7.3 18.34 -9 18 C-8.54625 17.29875 -8.0925 16.5975 -7.625 15.875 C-5.98313057 12.97015409 -4.96322901 10.1860652 -4 7 C-3.34 7 -2.68 7 -2 7 C-2 5.35 -2 3.7 -2 2 C-3.65 2 -5.3 2 -7 2 C-4 0 -4 0 0 0 Z " fill="#B06351" transform="translate(48,31)"/>
<path d="M0 0 C3.875 2.625 3.875 2.625 5 6 C7.76276177 5.47731534 10.3260876 4.89130413 13 4 C12.34 5.65 11.68 7.3 11 9 C9.35 9 7.7 9 6 9 C6 10.65 6 12.3 6 14 C4.68 13.67 3.36 13.34 2 13 C2.226875 12.443125 2.45375 11.88625 2.6875 11.3125 C3.12380682 8.08382952 1.69120954 6.70593526 0 4 C0 2.68 0 1.36 0 0 Z " fill="#80A74C" transform="translate(80,33)"/>
<path d="M0 0 C0.125 3.375 0.125 3.375 0 7 C-0.66 7.66 -1.32 8.32 -2 9 C-4.625 8.625 -4.625 8.625 -7 8 C-7 5.69 -7 3.38 -7 1 C-3.375 -1.125 -3.375 -1.125 0 0 Z " fill="#5A2F3B" transform="translate(52,61)"/>
<path d="M0 0 C1.65 0.33 3.3 0.66 5 1 C5.36190476 8.23809524 5.36190476 8.23809524 3.8125 11.5 C2 13 2 13 -0.6875 13.25 C-1.450625 13.1675 -2.21375 13.085 -3 13 C-3 12.01 -3 11.02 -3 10 C-1.68 9.34 -0.36 8.68 1 8 C0.67 5.36 0.34 2.72 0 0 Z " fill="#D22634" transform="translate(101,22)"/>
<path d="M0 0 C5.71428571 0.71428571 5.71428571 0.71428571 7 2 C7.14115161 4.67058851 7.04247107 7.32432238 7 10 C6.01 9.67 5.02 9.34 4 9 C4 8.34 4 7.68 4 7 C2.68 6.67 1.36 6.34 0 6 C-0.38218767 4.34385343 -0.71395102 2.67542976 -1 1 C-0.67 0.67 -0.34 0.34 0 0 Z " fill="#53A3A9" transform="translate(32,92)"/>
<path d="M0 0 C1.23556641 0.01740234 1.23556641 0.01740234 2.49609375 0.03515625 C3.32238281 0.04417969 4.14867187 0.05320312 5 0.0625 C5.63808594 0.07410156 6.27617188 0.08570312 6.93359375 0.09765625 C7.49609375 2.03515625 7.49609375 2.03515625 7.93359375 4.09765625 C6.19402717 5.83722283 3.73993155 5.46956011 1.37109375 5.66015625 C-0.14677734 5.78583984 -0.14677734 5.78583984 -1.6953125 5.9140625 C-2.47777344 5.97464844 -3.26023437 6.03523438 -4.06640625 6.09765625 C-2.99738005 0.14165312 -2.99738005 0.14165312 0 0 Z " fill="#A1D3D8" transform="translate(31.06640625,86.90234375)"/>
<path d="M0 0 C2.475 0.495 2.475 0.495 5 1 C5 4.3 5 7.6 5 11 C5.99 11.33 6.98 11.66 8 12 C5.6875 14.0625 5.6875 14.0625 3 16 C2.01 15.67 1.02 15.34 0 15 C0 13.02 0 11.04 0 9 C0.99 9.33 1.98 9.66 3 10 C2.87625 8.72125 2.7525 7.4425 2.625 6.125 C2.55539063 5.40570313 2.48578125 4.68640625 2.4140625 3.9453125 C2.13625251 1.77331755 2.13625251 1.77331755 0 0 Z " fill="#79C5CE" transform="translate(36,92)"/>
<path d="M0 0 C4.67105319 1.1677633 5.20449215 2.30271543 8 6 C8.99 6.66 9.98 7.32 11 8 C10.67 8.99 10.34 9.98 10 11 C9.525625 10.319375 9.05125 9.63875 8.5625 8.9375 C5.55312362 6.66211786 4.85716698 6.82395666 1.25 7.25 C-0.17020201 7.47906484 -1.58845901 7.72251758 -3 8 C-2.01 5.36 -1.02 2.72 0 0 Z " fill="#2CA79F" transform="translate(44,71)"/>
<path d="M0 0 C1.32 0 2.64 0 4 0 C4 0.66 4 1.32 4 2 C6.97 2.495 6.97 2.495 10 3 C10.33 2.34 10.66 1.68 11 1 C10.67 2.32 10.34 3.64 10 5 C9.37351562 5.07476562 8.74703125 5.14953125 8.1015625 5.2265625 C5.59401809 5.62998447 3.36502817 6.06609491 1 7 C-0.69165301 9.98283157 -0.69165301 9.98283157 -1 13 C-1.99 13 -2.98 13 -4 13 C-4 12.34 -4 11.68 -4 11 C-3.34 11 -2.68 11 -2 11 C-1.24758891 7.34543185 -0.59950296 3.68266103 0 0 Z " fill="#DBEBAB" transform="translate(33,53)"/>
<path d="M0 0 C0.66 0 1.32 0 2 0 C2 0.66 2 1.32 2 2 C2.66 2 3.32 2 4 2 C4 3.65 4 5.3 4 7 C4.99 7.33 5.98 7.66 7 8 C7.6875 10.0625 7.6875 10.0625 8 12 C6.25 11.8125 6.25 11.8125 4 11 C3.360625 10.195625 2.72125 9.39125 2.0625 8.5625 C-0.16812308 5.79111981 -1.6529109 5.02272167 -5 4 C-5 3.34 -5 2.68 -5 2 C-2.525 2.495 -2.525 2.495 0 3 C0 2.01 0 1.02 0 0 Z " fill="#7CAF58" transform="translate(44,47)"/>
<path d="M0 0 C0.99 0 1.98 0 3 0 C3 1.32 3 2.64 3 4 C2.01 4.495 2.01 4.495 1 5 C1 6.98 1 8.96 1 11 C-4.94 11.495 -4.94 11.495 -11 12 C-8 10 -8 10 -5 10 C-4.8453125 8.824375 -4.8453125 8.824375 -4.6875 7.625 C-4 5 -4 5 -1 3 C-0.67 2.01 -0.34 1.02 0 0 Z " fill="#7A9E59" transform="translate(60,48)"/>
<path d="M0 0 C3 0.125 3 0.125 4 1.125 C6.67058851 1.26615161 9.32432238 1.16747107 12 1.125 C11.67 2.775 11.34 4.425 11 6.125 C10.67 5.135 10.34 4.145 10 3.125 C7.69 3.125 5.38 3.125 3 3.125 C3 4.115 3 5.105 3 6.125 C1.68 6.125 0.36 6.125 -1 6.125 C-1.12375 5.485625 -1.2475 4.84625 -1.375 4.1875 C-1.58125 3.506875 -1.7875 2.82625 -2 2.125 C-2.66 1.795 -3.32 1.465 -4 1.125 C-3 0.125 -3 0.125 0 0 Z " fill="#AAC09C" transform="translate(83,93.875)"/>
<path d="M0 0 C1.65 0.33 3.3 0.66 5 1 C4.67 3.97 4.34 6.94 4 10 C3.01 10 2.02 10 1 10 C-1.56687367 6.1496895 -0.83288724 4.41430237 0 0 Z " fill="#5A94BE" transform="translate(19,80)"/>
<path d="M0 0 C2.97 0.33 5.94 0.66 9 1 C8.67 2.65 8.34 4.3 8 6 C2.375 6.25 2.375 6.25 -1 4 C-0.67 2.68 -0.34 1.36 0 0 Z " fill="#B5AB49" transform="translate(54,70)"/>
<path d="M0 0 C0.66 0 1.32 0 2 0 C2 0.99 2 1.98 2 3 C3.98 3 5.96 3 8 3 C9.4606285 5.64738916 10 6.89448334 10 10 C6.33118845 9.29445932 3.29549466 7.72264494 0 6 C0 4.02 0 2.04 0 0 Z " fill="#9DC596" transform="translate(69,25)"/>
<path d="M0 0 C1.65 0.33 3.3 0.66 5 1 C5 4 5 4 3.4375 5.6875 C0.19368832 7.43416783 -2.37343285 7.20922503 -6 7 C-4.02 4.69 -2.04 2.38 0 0 Z " fill="#C3C58A" transform="translate(81,104)"/>
<path d="M0 0 C2.3125 -0.25 2.3125 -0.25 5 0 C7.40311451 2.23738248 7.96341425 3.46340904 8.1875 6.75 C8.125625 7.4925 8.06375 8.235 8 9 C5.625 8.8125 5.625 8.8125 3 8 C1.75 5.625 1.75 5.625 1 3 C0.67 2.01 0.34 1.02 0 0 Z " fill="#96C2CE" transform="translate(62,97)"/>
<path d="M0 0 C0.33 0 0.66 0 1 0 C1.02578125 0.59167969 1.0515625 1.18335937 1.078125 1.79296875 C1.46365654 7.16412406 2.19700662 9.97330113 6 14 C9.08607199 18.36306729 9.08607199 18.36306729 8.6875 21.3125 C8.460625 21.869375 8.23375 22.42625 8 23 C4.32769295 19.92000054 3.43197635 17.7517398 3 13 C2.01 13 1.02 13 0 13 C0 8.71 0 4.42 0 0 Z " fill="#D5E7EB" transform="translate(15,80)"/>
<path d="M0 0 C0 0.99 0 1.98 0 3 C-2.31 3 -4.62 3 -7 3 C-6.95875 3.94875 -6.9175 4.8975 -6.875 5.875 C-7 9 -7 9 -9 11 C-8.67673447 14.59679066 -8.67673447 14.59679066 -8 18 C-8.66 18 -9.32 18 -10 18 C-12.01363791 13.97272418 -11.11314664 9.22995723 -10 5 C-9.814375 4.2575 -9.62875 3.515 -9.4375 2.75 C-7.61215937 0.52784619 -6.67172425 0.60513959 -3.875 0.25 C-2.59625 0.1675 -1.3175 0.085 0 0 Z " fill="#A47727" transform="translate(98,66)"/>
<path d="M0 0 C1.65 0 3.3 0 5 0 C4.67 1.65 4.34 3.3 4 5 C3.01 5.33 2.02 5.66 1 6 C0.26676204 8.01508358 0.26676204 8.01508358 0 10 C-1.65 10 -3.3 10 -5 10 C-3.84826645 7.53199953 -2.95216435 5.95216435 -1 4 C-0.3574765 1.93125966 -0.3574765 1.93125966 0 0 Z " fill="#58A7B6" transform="translate(47,99)"/>
<path d="M0 0 C5.94 0.33 11.88 0.66 18 1 C18 1.33 18 1.66 18 2 C12.06 2.495 12.06 2.495 6 3 C6 3.66 6 4.32 6 5 C3.69 4.67 1.38 4.34 -1 4 C-0.67 2.68 -0.34 1.36 0 0 Z " fill="#ECE9E9" transform="translate(81,87)"/>
<path d="M0 0 C2.4375 1.0625 2.4375 1.0625 5 3 C6.73142698 8.93632108 5.7131163 14.93302591 5 21 C2.19151163 18.19151163 2.62128603 15.39200125 2.5 11.625 C2.35373861 5.53679931 2.35373861 5.53679931 0 0 Z " fill="#F0EBA0" transform="translate(100,44)"/>
<path d="M0 0 C1.98 0 3.96 0 6 0 C6.33 1.65 6.66 3.3 7 5 C8.49853516 5.07347656 8.49853516 5.07347656 10.02734375 5.1484375 C11.96287109 5.26058594 11.96287109 5.26058594 13.9375 5.375 C15.86916016 5.47941406 15.86916016 5.47941406 17.83984375 5.5859375 C19.40412109 5.79089844 19.40412109 5.79089844 21 6 C21.33 6.66 21.66 7.32 22 8 C8.10290237 8.60422164 8.10290237 8.60422164 3.25 4.53125 C1.875 2.875 1.875 2.875 0 0 Z " fill="#BCD6D5" transform="translate(29,106)"/>
<path d="M0 0 C1.98 0 3.96 0 6 0 C6.22786458 2.05078125 6.45572917 4.1015625 6.68359375 6.15234375 C6.81886614 8.01140229 6.81886614 8.01140229 8 9 C8.04092937 11.33297433 8.04241723 13.66705225 8 16 C6 14 6 14 5.5 11.4375 C5.335 10.633125 5.17 9.82875 5 9 C4.34 8.67 3.68 8.34 3 8 C3 6.02 3 4.04 3 2 C2.01 1.67 1.02 1.34 0 1 C0 0.67 0 0.34 0 0 Z " fill="#90B76E" transform="translate(77,63)"/>
<path d="M0 0 C2.35723489 2.53184488 3 3.47190093 3 7 C0.125 7.125 0.125 7.125 -3 7 C-3.66 6.34 -4.32 5.68 -5 5 C-5 3.68 -5 2.36 -5 1 C-3 0 -3 0 0 0 Z " fill="#79ACAC" transform="translate(56,107)"/>
<path d="M0 0 C0.66 0.33 1.32 0.66 2 1 C-3.32301737 6.96177946 -8.48092221 9.34918293 -16.27734375 9.921875 C-16.84582031 9.94765625 -17.41429687 9.9734375 -18 10 C-17.67 9.01 -17.34 8.02 -17 7 C-16.32453125 6.90203125 -15.6490625 6.8040625 -14.953125 6.703125 C-8.0900173 5.56249455 -8.0900173 5.56249455 -3 1 C-2.01 0.67 -1.02 0.34 0 0 Z " fill="#8DB9AC" transform="translate(77,104)"/>
<path d="M0 0 C1.32 0.33 2.64 0.66 4 1 C4 2.32 4 3.64 4 5 C1.69 5 -0.62 5 -3 5 C-3.33 6.32 -3.66 7.64 -4 9 C-4.66 8.67 -5.32 8.34 -6 8 C-6 6.35 -6 4.7 -6 3 C-4.35 3 -2.7 3 -1 3 C-0.67 2.01 -0.34 1.02 0 0 Z " fill="#8BC257" transform="translate(92,39)"/>
<path d="M0 0 C1.4540625 0.0309375 1.4540625 0.0309375 2.9375 0.0625 C2.6075 0.7225 2.2775 1.3825 1.9375 2.0625 C0.9475 2.3925 -0.0425 2.7225 -1.0625 3.0625 C-2.08531518 5.15969872 -2.08531518 5.15969872 -2.75 7.625 C-3.00136719 8.45128906 -3.25273438 9.27757812 -3.51171875 10.12890625 C-3.69347656 10.76699219 -3.87523438 11.40507813 -4.0625 12.0625 C-5.0525 11.4025 -6.0425 10.7425 -7.0625 10.0625 C-6.58699439 8.58215236 -6.10698784 7.10324979 -5.625 5.625 C-5.35816406 4.80128906 -5.09132813 3.97757813 -4.81640625 3.12890625 C-3.64372032 -0.0853469 -3.61643303 0.07380476 0 0 Z " fill="#D74F58" transform="translate(88.0625,23.9375)"/>
<path d="M0 0 C2.31 0.33 4.62 0.66 7 1 C7 2.98 7 4.96 7 7 C4.69 6.34 2.38 5.68 0 5 C0 3.35 0 1.7 0 0 Z " fill="#BAD272" transform="translate(87,56)"/>
<path d="M0 0 C3.34373475 0.55728913 6.03312999 1.35173889 9 3 C8.67 3.66 8.34 4.32 8 5 C6.68 5 5.36 5 4 5 C3.67 5.66 3.34 6.32 3 7 C2.01 7 1.02 7 0 7 C0 6.01 0 5.02 0 4 C-0.66 4 -1.32 4 -2 4 C-2 3.34 -2 2.68 -2 2 C-1.34 2 -0.68 2 0 2 C0 1.34 0 0.68 0 0 Z " fill="#4EB06E" transform="translate(66,65)"/>
<path d="M0 0 C0.33 0.66 0.66 1.32 1 2 C3.475 2.99 3.475 2.99 6 4 C5.67 8.62 5.34 13.24 5 18 C4.01 17.01 3.02 16.02 2 15 C2.14453125 12.30078125 2.14453125 12.30078125 2.8125 9.3125 C3.02519531 8.31863281 3.23789063 7.32476562 3.45703125 6.30078125 C3.72580078 5.16189453 3.72580078 5.16189453 4 4 C2.68 3.67 1.36 3.34 0 3 C0 2.01 0 1.02 0 0 Z " fill="#CDD046" transform="translate(96,45)"/>
<path d="M0 0 C1.04808041 1.97522846 2.0520411 3.97481509 3 6 C1.35 6.33 -0.3 6.66 -2 7 C-2.33 6.01 -2.66 5.02 -3 4 C-3.66 4 -4.32 4 -5 4 C-5.33 2.68 -5.66 1.36 -6 0 C-2.25 -1.125 -2.25 -1.125 0 0 Z " fill="#59A05B" transform="translate(81,37)"/>
<path d="M0 0 C0.66 0 1.32 0 2 0 C2 1.98 2 3.96 2 6 C5.16115776 4.63016497 5.9927092 4.0109362 8 1 C9.32 1 10.64 1 12 1 C11.67 1.66 11.34 2.32 11 3 C10.34 3 9.68 3 9 3 C8.4225 3.639375 7.845 4.27875 7.25 4.9375 C4.51617726 7.44350418 2.63214398 7.66980509 -1 8 C-0.67 5.36 -0.34 2.72 0 0 Z " fill="#57C0C5" transform="translate(41,80)"/>
<path d="M0 0 C2.625 0.375 2.625 0.375 5 1 C4.125 4.875 4.125 4.875 3 6 C1.33382885 6.04063832 -0.33388095 6.042721 -2 6 C-2 2 -2 2 0 0 Z " fill="#9E8556" transform="translate(63,25)"/>
<path d="M0 0 C-3.07692746 2.6815279 -5.19734663 3.42087807 -9.25 3.6875 C-10.14203125 3.75324219 -11.0340625 3.81898437 -11.953125 3.88671875 C-12.62859375 3.92410156 -13.3040625 3.96148438 -14 4 C-11.75443175 1.3225917 -10.41718023 0.11298631 -7 -0.8125 C-4.3159514 -0.98025304 -2.51525694 -0.87066586 0 0 Z " fill="#E9EEDE" transform="translate(61,23)"/>
<path d="M0 0 C0.99 0.33 1.98 0.66 3 1 C3.66 2.98 4.32 4.96 5 7 C0.05 6.01 -4.9 5.02 -10 4 C-10 3.01 -10 2.02 -10 1 C-9.67 1.33 -9.34 1.66 -9 2 C-7.48530552 2.23192865 -5.96245438 2.41215238 -4.4375 2.5625 C-3.61121094 2.64628906 -2.78492188 2.73007813 -1.93359375 2.81640625 C-1.29550781 2.87699219 -0.65742187 2.93757813 0 3 C0 2.01 0 1.02 0 0 Z " fill="#8FC1C1" transform="translate(48,107)"/>
<path d="M0 0 C0 0.99 0 1.98 0 3 C1.32 3.33 2.64 3.66 4 4 C0.68885166 5.12880057 -2.58978257 6.21302675 -6 7 C-6 5.02 -6 3.04 -6 1 C-3 0 -3 0 0 0 Z " fill="#94AC6D" transform="translate(70,44)"/>
<path d="M0 0 C1.32 0 2.64 0 4 0 C4 2.31 4 4.62 4 7 C2.35 6.67 0.7 6.34 -1 6 C-1.625 4.125 -1.625 4.125 -2 2 C-1.34 1.34 -0.68 0.68 0 0 Z " fill="#247BAC" transform="translate(71,81)"/>
<path d="M0 0 C1.32 0 2.64 0 4 0 C4 2.31 4 4.62 4 7 C2.68 7.33 1.36 7.66 0 8 C-1.125 2.25 -1.125 2.25 0 0 Z " fill="#D91A26" transform="translate(22,60)"/>
<path d="M0 0 C0.56847656 0.08378906 1.13695312 0.16757812 1.72265625 0.25390625 C5.67459453 0.77511347 8.89211347 1.01566095 12.875 0.4375 C16 0 16 0 19 2 C12.03220597 3.32719886 5.07011089 3.08825381 -2 3 C-1.34 2.01 -0.68 1.02 0 0 Z " fill="#7A9975" transform="translate(54,41)"/>
<path d="M0 0 C0.99 0 1.98 0 3 0 C2.34 1.32 1.68 2.64 1 4 C-0.43791516 3.85831863 -1.8753237 3.71148957 -3.3125 3.5625 C-4.11300781 3.48128906 -4.91351563 3.40007813 -5.73828125 3.31640625 C-8 3 -8 3 -11 2 C-7.3518945 -1.6481055 -4.84781184 -0.96956237 0 0 Z " fill="#EDDEE0" transform="translate(95,20)"/>
<path d="M0 0 C1.4540625 0.0309375 1.4540625 0.0309375 2.9375 0.0625 C-2.23397799 3.51015199 -5.5693286 4.34092387 -11.8125 4.1875 C-12.50988281 4.17847656 -13.20726562 4.16945313 -13.92578125 4.16015625 C-15.63816958 4.13669888 -17.35038004 4.10083104 -19.0625 4.0625 C-19.0625 3.7325 -19.0625 3.4025 -19.0625 3.0625 C-17.45568359 2.86333984 -17.45568359 2.86333984 -15.81640625 2.66015625 C-14.41924231 2.4819944 -13.02210841 2.30359681 -11.625 2.125 C-10.91794922 2.03798828 -10.21089844 1.95097656 -9.48242188 1.86132812 C-6.00184477 1.41168419 -3.31766932 0.06770754 0 0 Z " fill="#B3C7BF" transform="translate(72.0625,110.9375)"/>
<path d="M0 0 C2.97 0 5.94 0 9 0 C9.33 1.32 9.66 2.64 10 4 C10.66 4.33 11.32 4.66 12 5 C11.67 5.66 11.34 6.32 11 7 C9.68 6.67 8.36 6.34 7 6 C7.33 5.01 7.66 4.02 8 3 C7.236875 2.87625 6.47375 2.7525 5.6875 2.625 C3 2 3 2 0 0 Z " fill="#8BC3B6" transform="translate(72,96)"/>
<path d="M0 0 C0 1.32 0 2.64 0 4 C-1.65 4 -3.3 4 -5 4 C-5.66 8.29 -6.32 12.58 -7 17 C-7.33 17 -7.66 17 -8 17 C-8.62757528 7.0459588 -8.62757528 7.0459588 -6.125 2.875 C-2.86666667 0 -2.86666667 0 0 0 Z " fill="#E7F4F5" transform="translate(22,72)"/>
<path d="M0 0 C1.32 0 2.64 0 4 0 C3.125 6.75 3.125 6.75 2 9 C1.01 8.67 0.02 8.34 -1 8 C-0.67 5.36 -0.34 2.72 0 0 Z " fill="#A2D87C" transform="translate(84,63)"/>
<path d="M0 0 C0.66 0 1.32 0 2 0 C4.09230769 4.43076923 4.09230769 4.43076923 3.625 7.3125 C3.41875 7.869375 3.2125 8.42625 3 9 C1.68 9.33 0.36 9.66 -1 10 C-1.02689216 8.52093108 -1.04634621 7.04172517 -1.0625 5.5625 C-1.07410156 4.73878906 -1.08570312 3.91507813 -1.09765625 3.06640625 C-1 1 -1 1 0 0 Z " fill="#CE4C5B" transform="translate(99,22)"/>
<path d="M0 0 C1.32 0.33 2.64 0.66 4 1 C4.66 3.31 5.32 5.62 6 8 C5.01 8.33 4.02 8.66 3 9 C2.34 8.67 1.68 8.34 1 8 C0.40644386 5.35139573 0.25790731 2.70802678 0 0 Z " fill="#64A5BA" transform="translate(60,101)"/>
<path d="M0 0 C2.475 0.495 2.475 0.495 5 1 C5 1.66 5 2.32 5 3 C5.99 3.33 6.98 3.66 8 4 C8 5.32 8 6.64 8 8 C7.34 8 6.68 8 6 8 C6 7.34 6 6.68 6 6 C4.35 5.67 2.7 5.34 1 5 C0.505 2.525 0.505 2.525 0 0 Z " fill="#596D8F" transform="translate(75,68)"/>
<path d="M0 0 C-1.98 0.99 -3.96 1.98 -6 3 C-6 3.99 -6 4.98 -6 6 C-2.04 6.99 -2.04 6.99 2 8 C2 8.33 2 8.66 2 9 C0.52093108 9.02689216 -0.95827483 9.04634621 -2.4375 9.0625 C-3.67306641 9.07990234 -3.67306641 9.07990234 -4.93359375 9.09765625 C-7 9 -7 9 -8 8 C-8.04092937 5.66702567 -8.04241723 3.33294775 -8 1 C-4.93251126 -0.86240388 -3.40254489 -1.2151946 0 0 Z " fill="#70A265" transform="translate(60,68)"/>
<path d="M0 0 C0.33 0.66 0.66 1.32 1 2 C2.32 2 3.64 2 5 2 C3.06382979 8.70212766 3.06382979 8.70212766 0 11 C-0.66 11 -1.32 11 -2 11 C-1.34 7.37 -0.68 3.74 0 0 Z " fill="#53AE66" transform="translate(50,32)"/>
<path d="M0 0 C0.33 0 0.66 0 1 0 C1.10832169 2.08218362 1.18573541 4.16599129 1.25 6.25 C1.29640625 7.41015625 1.3428125 8.5703125 1.390625 9.765625 C1 13 1 13 -0.8125 15.40625 C-3.66371577 17.48356435 -5.55344261 17.3133234 -9 17 C-5 14 -5 14 -2.90625 12.75 C-0.31357022 10.36983496 -0.4127541 8.77102454 -0.25 5.3125 C-0.19328125 4.31863281 -0.1365625 3.32476563 -0.078125 2.30078125 C-0.05234375 1.54152344 -0.0265625 0.78226563 0 0 Z " fill="#EFE6E1" transform="translate(109,21)"/>
<path d="M0 0 C2.4375 0.375 2.4375 0.375 5 1 C5.33 1.66 5.66 2.32 6 3 C4.68 3.33 3.36 3.66 2 4 C2.61875 4.2475 3.2375 4.495 3.875 4.75 C6.35068687 6.20628639 6.95125002 7.37812506 8 10 C6.68 9.34 5.36 8.68 4 8 C4 7.34 4 6.68 4 6 C3.360625 5.896875 2.72125 5.79375 2.0625 5.6875 C1.381875 5.460625 0.70125 5.23375 0 5 C-0.33 4.01 -0.66 3.02 -1 2 C-0.67 1.34 -0.34 0.68 0 0 Z " fill="#9DCFCD" transform="translate(64,86)"/>
<path d="M0 0 C1.485 0.99 1.485 0.99 3 2 C5.4582293 2.16671852 5.4582293 2.16671852 8 2 C9.32 2 10.64 2 12 2 C12.66 2.66 13.32 3.32 14 4 C10.0186217 5.3271261 6.14954773 5.06915913 2 5 C1.34 3.35 0.68 1.7 0 0 Z " fill="#55ACB5" transform="translate(53,81)"/>
<path d="M0 0 C1.98 0 3.96 0 6 0 C6 1.98 6 3.96 6 6 C4.35 5.67 2.7 5.34 1 5 C0.505 2.525 0.505 2.525 0 0 Z " fill="#C3594C" transform="translate(31,71)"/>
<path d="M0 0 C-0.99 0 -1.98 0 -3 0 C-3 2.31 -3 4.62 -3 7 C-3.4125 6.54625 -3.825 6.0925 -4.25 5.625 C-6.06408095 3.94049626 -7.75285627 3.00734029 -10 2 C-10 1.34 -10 0.68 -10 0 C-6.33694766 -0.74926071 -3.57644848 -1.2380014 0 0 Z " fill="#CCDEA1" transform="translate(103,37)"/>
<path d="M0 0 C5.75 0.875 5.75 0.875 8 2 C7.67 2.99 7.34 3.98 7 5 C4.9375 5.6875 4.9375 5.6875 3 6 C2.67 5.01 2.34 4.02 2 3 C1.34 3 0.68 3 0 3 C0 2.01 0 1.02 0 0 Z " fill="#68A6AB" transform="translate(70,98)"/>
<path d="M0 0 C0 0.99 0 1.98 0 3 C-7.62857143 5.54285714 -7.62857143 5.54285714 -12 4 C-12.33 3.34 -12.66 2.68 -13 2 C-12.14535156 1.93941406 -11.29070312 1.87882812 -10.41015625 1.81640625 C-8.75306641 1.69072266 -8.75306641 1.69072266 -7.0625 1.5625 C-5.96035156 1.48128906 -4.85820313 1.40007812 -3.72265625 1.31640625 C-1.08890097 1.29581916 -1.08890097 1.29581916 0 0 Z " fill="#A2957D" transform="translate(99,82)"/>
<path d="M0 0 C2.475 0.495 2.475 0.495 5 1 C5 2.98 5 4.96 5 7 C1.125 6.125 1.125 6.125 0 5 C-0.04063832 3.33382885 -0.042721 1.66611905 0 0 Z " fill="#97CEA8" transform="translate(70,71)"/>
<path d="M0 0 C2.25 -0.3125 2.25 -0.3125 5 0 C7.3125 2.5 7.3125 2.5 9 5 C8.401875 4.690625 7.80375 4.38125 7.1875 4.0625 C4.91043228 2.89790296 4.91043228 2.89790296 2 2 C2 2.99 2 3.98 2 5 C2.66 5.66 3.32 6.32 4 7 C2.02 7 0.04 7 -2 7 C-1.42415568 4.61435923 -0.77772405 2.33317216 0 0 Z " fill="#91AB67" transform="translate(68,52)"/>
<path d="M0 0 C1.65 0 3.3 0 5 0 C5.042721 1.66611905 5.04063832 3.33382885 5 5 C4 6 4 6 1.4375 6.0625 C0.2309375 6.0315625 0.2309375 6.0315625 -1 6 C-0.67 4.02 -0.34 2.04 0 0 Z " fill="#9EA480" transform="translate(52,45)"/>
<path d="M0 0 C6.9066264 -0.3002881 13.44015632 0.81338544 20 3 C18 5 18 5 15.375 5.125 C14.59125 5.08375 13.8075 5.0425 13 5 C13 4.34 13 3.68 13 3 C11.96875 2.855625 10.9375 2.71125 9.875 2.5625 C6.57450187 2.08339543 3.28731659 1.56124917 0 1 C0 0.67 0 0.34 0 0 Z " fill="#F1EFE8" transform="translate(62,21)"/>
<path d="M0 0 C2.31 0 4.62 0 7 0 C6.67 1.65 6.34 3.3 6 5 C4.35 4.67 2.7 4.34 1 4 C0.67 2.68 0.34 1.36 0 0 Z " fill="#B2A773" transform="translate(86,97)"/>
<path d="M0 0 C0.33 1.32 0.66 2.64 1 4 C0.01 4.66 -0.98 5.32 -2 6 C-2.72382467 8.05925139 -2.72382467 8.05925139 -3 10 C-4.65 9.67 -6.3 9.34 -8 9 C-7.67 8.01 -7.34 7.02 -7 6 C-6.01 5.67 -5.02 5.34 -4 5 C-2.61423077 3.37667033 -1.27358732 1.71275535 0 0 Z " fill="#289989" transform="translate(67,72)"/>
<path d="M0 0 C0.33 0 0.66 0 1 0 C1.10832169 2.08218362 1.18573541 4.16599129 1.25 6.25 C1.29640625 7.41015625 1.3428125 8.5703125 1.390625 9.765625 C0.93035506 13.57666013 -0.05148444 14.65511755 -3 17 C-3.33 16.34 -3.66 15.68 -4 15 C-3.26740357 13.33500811 -2.5311519 11.67144818 -1.76953125 10.01953125 C-0.51617568 6.73026814 -0.3065511 3.49468254 0 0 Z " fill="#B9979A" transform="translate(104,65)"/>
<path d="M0 0 C0.66 0.33 1.32 0.66 2 1 C1.42655063 3.86724686 1.1385485 4.8614515 -1 7 C-3.0625 6.8125 -3.0625 6.8125 -5 6 C-5.33 5.01 -5.66 4.02 -6 3 C-4.35 3 -2.7 3 -1 3 C-0.67 2.01 -0.34 1.02 0 0 Z " fill="#BFE6DD" transform="translate(77,88)"/>
<path d="M0 0 C0.33 0 0.66 0 1 0 C1 1.65 1 3.3 1 5 C-1.97851562 5.29296875 -1.97851562 5.29296875 -4.95703125 5.5859375 C-7.29988142 5.92665391 -7.29988142 5.92665391 -10 8 C-9.34 6.02 -8.68 4.04 -8 2 C-4.28400809 1.79913557 -3.22791555 1.8480563 0 4 C0 2.68 0 1.36 0 0 Z " fill="#8CBC54" transform="translate(97,62)"/>
<path d="M0 0 C2.49361571 1.20381448 4.68143083 2.45428722 7 4 C7 4.66 7 5.32 7 6 C4.69 5.67 2.38 5.34 0 5 C-0.5625 3.0625 -0.5625 3.0625 -1 1 C-0.67 0.67 -0.34 0.34 0 0 Z " fill="#A1B570" transform="translate(70,53)"/>
<path d="M0 0 C1.31625194 2.63250388 0.74813658 3.80179056 0.0625 6.625 C-0.13214844 7.44226562 -0.32679687 8.25953125 -0.52734375 9.1015625 C-0.76130859 10.04128906 -0.76130859 10.04128906 -1 11 C-2.65 10.67 -4.3 10.34 -6 10 C-4.02 6.7 -2.04 3.4 0 0 Z " fill="#837642" transform="translate(45,39)"/>
<path d="M0 0 C5.19209404 -0.21192221 9.126739 0.4087311 14 2 C14 2.66 14 3.32 14 4 C8.99109914 3.38487182 3.99367864 2.7282448 -1 2 C-0.67 1.34 -0.34 0.68 0 0 Z " fill="#E8D7C0" transform="translate(61,22)"/>
<path d="M0 0 C1.98 0.66 3.96 1.32 6 2 C6.33 1.34 6.66 0.68 7 0 C7.33 1.32 7.66 2.64 8 4 C7.236875 4.28875 6.47375 4.5775 5.6875 4.875 C2.84970692 5.96269013 2.84970692 5.96269013 0 8 C0 5.36 0 2.72 0 0 Z " fill="#80D2D5" transform="translate(25,83)"/>
<path d="M0 0 C0.33 1.32 0.66 2.64 1 4 C0.01 4.66 -0.98 5.32 -2 6 C-4.5 4.625 -4.5 4.625 -7 3 C-7 2.34 -7 1.68 -7 1 C-3.535 0.505 -3.535 0.505 0 0 Z " fill="#6F6211" transform="translate(98,68)"/>
<path d="M0 0 C2.0625 0.4375 2.0625 0.4375 4 1 C4.33 2.65 4.66 4.3 5 6 C3.35 5.67 1.7 5.34 0 5 C-0.5625 3.0625 -0.5625 3.0625 -1 1 C-0.67 0.67 -0.34 0.34 0 0 Z " fill="#C8DD9A" transform="translate(37,62)"/>
<path d="M0 0 C1.32 0 2.64 0 4 0 C5.31626692 3.61973402 6 6.09567131 6 10 C3.97954558 9.39816251 1.97888961 8.72693904 0 8 C-0.33 7.34 -0.66 6.68 -1 6 C0.32 6.33 1.64 6.66 3 7 C3 5.02 3 3.04 3 1 C2.01 0.67 1.02 0.34 0 0 Z " fill="#A7CF5D" transform="translate(91,56)"/>
<path d="M0 0 C2.5 1.8125 2.5 1.8125 5 4 C5 4.99 5 5.98 5 7 C3.329375 7.2165625 3.329375 7.2165625 1.625 7.4375 C-1.82142047 7.78372035 -1.82142047 7.78372035 -4 9 C-3.34 7.68 -2.68 6.36 -2 5 C-1.01 5 -0.02 5 1 5 C0.505 2.525 0.505 2.525 0 0 Z " fill="#8EAF5C" transform="translate(87,47)"/>
<path d="M0 0 C0.66 0.33 1.32 0.66 2 1 C0.33333333 2.66666667 -1.33333333 4.33333333 -3 6 C-3.6496875 6.8971875 -3.6496875 6.8971875 -4.3125 7.8125 C-7.24525858 9.87629308 -10.50817233 9.17172923 -14 9 C-14 8.67 -14 8.34 -14 8 C-12.39125 7.9071875 -12.39125 7.9071875 -10.75 7.8125 C-6.28257941 6.84455887 -5.50790798 5.67229383 -3 2 C-2.01 1.34 -1.02 0.68 0 0 Z " fill="#E9E7D9" transform="translate(90,104)"/>
<path d="M0 0 C2 3 2 3 1.6875 6.0625 C1 9 1 9 0 11 C-1.32 10.67 -2.64 10.34 -4 10 C-4 9.34 -4 8.68 -4 8 C-3.01 8 -2.02 8 -1 8 C-0.67 5.36 -0.34 2.72 0 0 Z " fill="#69B0C8" transform="translate(24,82)"/>
<path d="M0 0 C5.75 0.75 5.75 0.75 8 3 C4.7 3.33 1.4 3.66 -2 4 C-1.34 2.68 -0.68 1.36 0 0 Z " fill="#B0E1E5" transform="translate(29,87)"/>
<path d="M0 0 C0 0.66 0 1.32 0 2 C-0.59167969 2.10957031 -1.18335938 2.21914063 -1.79296875 2.33203125 C-6.41345763 3.25914403 -10.0876779 4.22351335 -14 7 C-13.734375 5.109375 -13.734375 5.109375 -13 3 C-9.11421304 0.56684368 -4.54771913 -0.42634867 0 0 Z " fill="#D19896" transform="translate(50,29)"/>
<path d="M0 0 C1.485 0.99 1.485 0.99 3 2 C3.66 1.34 4.32 0.68 5 0 C6.5 1.3125 6.5 1.3125 8 3 C8 3.99 8 4.98 8 6 C5.21788056 5.62403791 3.4120716 5.32681541 1.1875 3.5625 C0 2 0 2 0 0 Z " fill="#A0DEDE" transform="translate(23,79)"/>
<path d="M0 0 C1.65 0 3.3 0 5 0 C5.33 1.98 5.66 3.96 6 6 C3.13275314 5.42655063 2.1385485 5.1385485 0 3 C0 2.01 0 1.02 0 0 Z " fill="#AA221B" transform="translate(26,71)"/>
<path d="M0 0 C2.97 0.99 5.94 1.98 9 3 C9 3.99 9 4.98 9 6 C6.03 5.505 6.03 5.505 3 5 C3 4.34 3 3.68 3 3 C2.34 3 1.68 3 1 3 C0.67 2.01 0.34 1.02 0 0 Z " fill="#F0FBC5" transform="translate(34,50)"/>
<path d="M0 0 C1.051875 0.474375 2.10375 0.94875 3.1875 1.4375 C6.10175851 2.69323741 8.84746914 3.52234381 12 4 C12 4.66 12 5.32 12 6 C10.02 6 8.04 6 6 6 C6 5.34 6 4.68 6 4 C3.69 4 1.38 4 -1 4 C-0.67 2.68 -0.34 1.36 0 0 Z " fill="#74B583" transform="translate(68,30)"/>
<path d="M0 0 C-1.1875 2 -1.1875 2 -3 4 C-5.6875 4.25 -5.6875 4.25 -8 4 C-8 3.01 -8 2.02 -8 1 C-4.93251126 -0.86240388 -3.40254489 -1.2151946 0 0 Z " fill="#C92F35" transform="translate(106,31)"/>
<path d="M0 0 C0.66 0.33 1.32 0.66 2 1 C2 3.64 2 6.28 2 9 C1.01 8.67 0.02 8.34 -1 8 C-1 7.34 -1 6.68 -1 6 C-2.32 5.67 -3.64 5.34 -5 5 C-4.34 4.67 -3.68 4.34 -3 4 C-2.01 4.33 -1.02 4.66 0 5 C0 3.35 0 1.7 0 0 Z " fill="#5CB2C2" transform="translate(37,93)"/>
<path d="M0 0 C0.99 0 1.98 0 3 0 C3.33 1.65 3.66 3.3 4 5 C2.68 5.33 1.36 5.66 0 6 C-0.38218767 4.34385343 -0.71395102 2.67542976 -1 1 C-0.67 0.67 -0.34 0.34 0 0 Z " fill="#A2042C" transform="translate(46,61)"/>
<path d="M0 0 C0.99 0 1.98 0 3 0 C3 0.66 3 1.32 3 2 C2.01 2.495 2.01 2.495 1 3 C0.27306096 4.97888961 -0.39816251 6.97954558 -1 9 C-1.66 9 -2.32 9 -3 9 C-3 7.02 -3 5.04 -3 3 C-2.34 3 -1.68 3 -1 3 C-0.67 2.01 -0.34 1.02 0 0 Z " fill="#CD2325" transform="translate(41,34)"/>
<path d="M0 0 C1.32 0.66 2.64 1.32 4 2 C1.11912454 4.40072955 -1.56404834 6.47291037 -5 8 C-3.8141763 4.62496331 -2.72426311 2.35277269 0 0 Z " fill="#5D9467" transform="translate(54,37)"/>
<path d="M0 0 C3.35915158 1.43963639 5.71624938 3.12416589 8 6 C7.75 8.25 7.75 8.25 7 10 C3.48888594 7.77629443 2.30542837 5.91628511 1 2 C0.67 1.34 0.34 0.68 0 0 Z " fill="#B2D9DB" transform="translate(21,96)"/>
<path d="M0 0 C0 2.62113708 -0.31292445 4.50935112 -1 7 C0.65 7.99 2.3 8.98 4 10 C2.1875 10.625 2.1875 10.625 0 11 C-0.99 10.34 -1.98 9.68 -3 9 C-3.375 6.0625 -3.375 6.0625 -3 3 C-1.5 1.125 -1.5 1.125 0 0 Z " fill="#CF7E6F" transform="translate(35,38)"/>
<path d="M0 0 C1.125 3.75 1.125 3.75 0 6 C-1.98 6 -3.96 6 -6 6 C-6.33 5.01 -6.66 4.02 -7 3 C-5.5459375 2.814375 -5.5459375 2.814375 -4.0625 2.625 C-2.5465625 2.315625 -2.5465625 2.315625 -1 2 C-0.67 1.34 -0.34 0.68 0 0 Z " fill="#7BC486" transform="translate(57,28)"/>
<path d="M0 0 C0 0.99 0 1.98 0 3 C-3.3 3.66 -6.6 4.32 -10 5 C-9.34 3.68 -8.68 2.36 -8 1 C-5.32209537 0.16113831 -2.8262059 0.18233586 0 0 Z " fill="#7A942F" transform="translate(98,66)"/>
<path d="M0 0 C1.98 0.495 1.98 0.495 4 1 C3.67 2.65 3.34 4.3 3 6 C1.68 5.34 0.36 4.68 -1 4 C-0.67 2.68 -0.34 1.36 0 0 Z " fill="#6B4260" transform="translate(76,64)"/>
<path d="M0 0 C0.33 1.32 0.66 2.64 1 4 C1.99 4 2.98 4 4 4 C4 3.34 4 2.68 4 2 C4.66 2.33 5.32 2.66 6 3 C5.01 4.32 4.02 5.64 3 7 C1.68 6.67 0.36 6.34 -1 6 C-1.042721 4.33388095 -1.04063832 2.66617115 -1 1 C-0.67 0.67 -0.34 0.34 0 0 Z " fill="#D32534" transform="translate(85,32)"/>
<path d="M0 0 C4.875 4.75 4.875 4.75 6 7 C4.35 7.33 2.7 7.66 1 8 C1 6.68 1 5.36 1 4 C0.34 4 -0.32 4 -1 4 C-0.67 2.68 -0.34 1.36 0 0 Z " fill="#ACA33E" transform="translate(97,58)"/>
<path d="M0 0 C3.875 2.625 3.875 2.625 5 6 C7.00016466 7.20882096 7.00016466 7.20882096 9 8 C5.68847126 8.36794764 4.39390748 8.29809215 1.6875 6.25 C0 4 0 4 0 0 Z " fill="#94774A" transform="translate(80,33)"/>
<path d="M0 0 C0 1.32 0 2.64 0 4 C-1.65 4 -3.3 4 -5 4 C-5.33 3.01 -5.66 2.02 -6 1 C-4 0 -4 0 0 0 Z " fill="#5A1509" transform="translate(97,78)"/>
<path d="M0 0 C0.99 0 1.98 0 3 0 C2 4 2 4 1 8 C0.34 8 -0.32 8 -1 8 C-1.125 2.25 -1.125 2.25 0 0 Z " fill="#EEF8D2" transform="translate(30,56)"/>
<path d="M0 0 C2 1 2 1 3.0625 3.9375 C3.371875 4.948125 3.68125 5.95875 4 7 C4.33 7.66 4.66 8.32 5 9 C3.35 8.67 1.7 8.34 0 8 C0 5.36 0 2.72 0 0 Z " fill="#C0D699" transform="translate(83,78)"/>
<path d="M0 0 C0.66 0 1.32 0 2 0 C2 2.31 2 4.62 2 7 C1.01 7.33 0.02 7.66 -1 8 C-1.125 2.25 -1.125 2.25 0 0 Z " fill="#B1C9C0" transform="translate(81,78)"/>
<path d="M0 0 C-0.33 1.32 -0.66 2.64 -1 4 C-3.64 3.67 -6.28 3.34 -9 3 C-9 2.67 -9 2.34 -9 2 C-3.375 0 -3.375 0 0 0 Z " fill="#83BAC2" transform="translate(41,81)"/>
<path d="M0 0 C2.475 0.495 2.475 0.495 5 1 C5 3.31 5 5.62 5 8 C4.34 8 3.68 8 3 8 C3 6.02 3 4.04 3 2 C2.01 1.67 1.02 1.34 0 1 C0 0.67 0 0.34 0 0 Z " fill="#908664" transform="translate(77,63)"/>
<path d="M0 0 C1.32 0 2.64 0 4 0 C3.67 1.65 3.34 3.3 3 5 C1.68 4.67 0.36 4.34 -1 4 C-0.67 2.68 -0.34 1.36 0 0 Z " fill="#39884F" transform="translate(61,63)"/>
<path d="M0 0 C2.97 0.33 5.94 0.66 9 1 C8.67 1.66 8.34 2.32 8 3 C5.625 3.75 5.625 3.75 3 4 C2.01 3.34 1.02 2.68 0 2 C0 1.34 0 0.68 0 0 Z " fill="#A3C164" transform="translate(89,48)"/>
<path d="M0 0 C0.99 0 1.98 0 3 0 C3.33 1.65 3.66 3.3 4 5 C2.35 4.67 0.7 4.34 -1 4 C-0.67 2.68 -0.34 1.36 0 0 Z " fill="#5EA0AA" transform="translate(53,107)"/>
<path d="M0 0 C1.32 0.33 2.64 0.66 4 1 C4 2.32 4 3.64 4 5 C2.68 5 1.36 5 0 5 C0 3.35 0 1.7 0 0 Z " fill="#3481B1" transform="translate(19,80)"/>
<path d="M0 0 C1.98 0.99 1.98 0.99 4 2 C4 3.65 4 5.3 4 7 C3.01 7 2.02 7 1 7 C0.67 4.69 0.34 2.38 0 0 Z " fill="#1E5936" transform="translate(51,60)"/>
<path d="M0 0 C2.475 0.495 2.475 0.495 5 1 C5.33 2.32 5.66 3.64 6 5 C4.125 4.75 4.125 4.75 2 4 C0.75 1.9375 0.75 1.9375 0 0 Z " fill="#94AC58" transform="translate(46,54)"/>
<path d="M0 0 C0.66 0.33 1.32 0.66 2 1 C0.8125 3.5 0.8125 3.5 -1 6 C-3.6875 6.3125 -3.6875 6.3125 -6 6 C-4 4 -2 2 0 0 Z " fill="#6EC9CB" transform="translate(50,82)"/>
<path d="M0 0 C0.433125 0.45375 0.86625 0.9075 1.3125 1.375 C3.10798342 3.20024334 3.10798342 3.20024334 6 5 C5 6 5 6 2.4375 6.0625 C1.2309375 6.0315625 1.2309375 6.0315625 0 6 C0 4.02 0 2.04 0 0 Z " fill="#7CAB9D" transform="translate(69,74)"/>
<path d="M0 0 C1.98 0 3.96 0 6 0 C6 0.99 6 1.98 6 3 C4.02 3 2.04 3 0 3 C0 2.01 0 1.02 0 0 Z " fill="#C6B86C" transform="translate(56,73)"/>
<path d="M0 0 C0.99 0 1.98 0 3 0 C2.67 1.98 2.34 3.96 2 6 C1.34 6 0.68 6 0 6 C-1.125 2.25 -1.125 2.25 0 0 Z " fill="#69BA5E" transform="translate(46,43)"/>
<path d="M0 0 C-0.33 0.99 -0.66 1.98 -1 3 C-2.98 3 -4.96 3 -7 3 C-7 2.34 -7 1.68 -7 1 C-4.53721199 -0.231394 -2.7204945 -0.07159196 0 0 Z " fill="#96D1A1" transform="translate(57,28)"/>
<path d="M0 0 C1.32 0 2.64 0 4 0 C3.67 1.32 3.34 2.64 3 4 C1.68 4 0.36 4 -1 4 C-0.67 2.68 -0.34 1.36 0 0 Z " fill="#C87344" transform="translate(63,25)"/>
<path d="M0 0 C1.2065625 0.0309375 1.2065625 0.0309375 2.4375 0.0625 C1.4475 0.7225 0.4575 1.3825 -0.5625 2.0625 C-0.8127157 5.14615871 -0.8127157 5.14615871 -0.5625 8.0625 C-1.2225 7.7325 -1.8825 7.4025 -2.5625 7.0625 C-3.25 4.0625 -3.25 4.0625 -3.5625 1.0625 C-2.5625 0.0625 -2.5625 0.0625 0 0 Z " fill="#BF363B" transform="translate(46.5625,59.9375)"/>
<path d="M0 0 C1.65 0 3.3 0 5 0 C5 0.66 5 1.32 5 2 C4.01 2 3.02 2 2 2 C1.67 3.32 1.34 4.64 1 6 C0 5 0 5 -0.0625 2.4375 C-0.041875 1.633125 -0.02125 0.82875 0 0 Z " fill="#A5BD6B" transform="translate(85,54)"/>
<path d="M0 0 C0.66 0.33 1.32 0.66 2 1 C0.6875 3.5 0.6875 3.5 -1 6 C-1.99 6 -2.98 6 -4 6 C-4 5.01 -4 4.02 -4 3 C-2 1.3125 -2 1.3125 0 0 Z " fill="#84A751" transform="translate(83,52)"/>
<path d="M0 0 C0.33 1.32 0.66 2.64 1 4 C-0.32 4.99 -1.64 5.98 -3 7 C-3.33 5.68 -3.66 4.36 -4 3 C-2.68 2.01 -1.36 1.02 0 0 Z " fill="#D29992" transform="translate(82,27)"/>
</svg>
