<?xml version="1.0" encoding="iso-8859-1"?>
<svg height="128" version="1.1" width="128" xmlns="http://www.w3.org/2000/svg">
	

	<path d="M0 0 C42.24 0 84.48 0 128 0 C128 42.24 128 84.48 128 128 C85.76 128 43.52 128 0 128 C0 85.76 0 43.52 0 0 Z " fill="#A9A6B8" transform="translate(0,0)"/>
	

	<path d="M0 0 C22.77 0 45.54 0 69 0 C69 42.24 69 84.48 69 128 C52.5 128 36 128 19 128 C25 121 25 121 28 118 C30.71854825 112.96565139 31.04827725 109.3056065 30.69555664 103.71728516 C30.12749993 93.98423266 30.12749993 93.98423266 33.07421875 90.66015625 C35.75 89 35.75 89 38.5078125 87.55859375 C42.51720214 85.05115415 43.66768587 81.38470546 45 77 C45.66 77 46.32 77 47 77 C46.76990234 75.92685547 46.76990234 75.92685547 46.53515625 74.83203125 C45.24383233 66.58249907 46.96844622 62.10304183 51.22265625 55.03515625 C53.13130531 51.77577093 54.25309336 48.70779406 55.32421875 45.11328125 C56.06398408 42.79991105 56.9946267 40.64781507 58 38.4375 C62.27884107 30.03869284 62.27884107 30.03869284 63 21 C60.35897708 16.83531001 57.13982636 14.58739148 53 12 C52.319375 11.4225 51.63875 10.845 50.9375 10.25 C48.33101027 8.56839373 47.0916263 8.65743753 44 9 C41.52508959 10.16799895 39.27251234 11.35344967 36.9375 12.75 C36.32583984 13.09804687 35.71417969 13.44609375 35.08398438 13.8046875 C31.60394112 15.83628032 28.46809771 17.78658565 26 21 C25.55615117 23.519302 25.55615117 23.519302 25.8125 26.125 C26.07219251 30.85561497 26.07219251 30.85561497 25 33 C24.9071225 34.40396228 24.86828008 35.81174715 24.859375 37.21875 C24.49067987 57.0658923 24.49067987 57.0658923 19 63 C13.55292495 66.81812381 8.0706273 66.38237853 1.6875 66.25 C0.67365234 66.24484375 -0.34019531 66.2396875 -1.38476562 66.234375 C-8.84558015 66.15441985 -8.84558015 66.15441985 -10 65 C-10.28481753 61.29737215 -10.23529732 58.60131537 -8.875 55.125 C-6.41582392 52.33793378 -4.58626567 52.53412467 -1 52 C-0.289999 50.68922893 0.36972977 49.35091882 1 48 C2.71602341 45.96424581 4.522094 44.03895492 6.34375 42.09765625 C9.91739171 37.57160532 10.63373114 32.39348406 11.53515625 26.8359375 C11.82272612 25.08151964 12.1553314 23.33305259 12.55859375 21.6015625 C13.48394395 16.93386679 13.03099222 14.32920554 10.5 10.25 C7.4949769 6.21508635 4.21339295 3.69657149 0 1 C0 0.67 0 0.34 0 0 Z " fill="#FBFBFB" transform="translate(59,0)"/>
	

	<path d="M0 0 C3.62819568 -0.33750657 5.47303665 -0.34702464 8.5625 1.6875 C11.08790073 4.083393 13.57237842 6.50494449 16 9 C16.495 9.495 16.495 9.495 17 10 C16.94948207 15.88533858 15.55499465 20.70075183 13 26 C12.34849045 27.43493632 11.70300746 28.87261905 11.0625 30.3125 C10.55396484 31.44945312 10.55396484 31.44945312 10.03515625 32.609375 C8.60653913 35.90867189 7.31165797 39.25614683 6.015625 42.609375 C5.07679212 44.81924317 3.97743603 46.75524806 2.75 48.8125 C0.8362716 52.44198489 0.89592234 55.3057458 1.0625 59.375 C1.24463725 65.92435191 0.20143987 70.83932728 -4 76 C-5.57306786 76.9101697 -7.17981929 77.76418609 -8.8125 78.5625 C-11.2865817 79.80645437 -11.2865817 79.80645437 -13 82 C-13.41665198 85.64570482 -13.38768036 88.95476297 -13.18579102 92.60083008 C-12.7856056 100.13233591 -14.69447626 104.65327199 -18.9375 110.8125 C-24.73413063 116.96044158 -24.73413063 116.96044158 -28 117.0625 C-32.07412997 114.89811845 -34.4696595 112.21220685 -36.3125 108 C-37.41826656 103.43619982 -37.00394563 98.73956628 -36.77734375 94.0859375 C-37.03090565 90.57165847 -37.86116331 88.77275696 -40 86 C-40.66 86 -41.32 86 -42 86 C-44.81095168 91.36142908 -44.02573651 96.72941107 -43.65820312 102.58203125 C-43.58619031 104.81627497 -43.56470934 106.80647079 -44 109 C-47.59877187 112.10997433 -51.26219909 113.08168622 -56 113 C-59.48275878 110.98221119 -62.4604941 108.71247659 -63.6953125 104.79296875 C-63.79585937 104.20128906 -63.89640625 103.60960938 -64 103 C-62.0625 103.8125 -62.0625 103.8125 -60 105 C-59.67 105.99 -59.34 106.98 -59 108 C-56.69 107.67 -54.38 107.34 -52 107 C-50.80634533 103.419036 -51.24659116 101.45158629 -51.875 97.75 C-52.06578125 96.59628906 -52.2565625 95.44257812 -52.453125 94.25390625 C-52.63359375 93.18011719 -52.8140625 92.10632813 -53 91 C-53.34766676 88.66836533 -53.67421383 86.33480092 -54 84 C-56.31 83.34 -58.62 82.68 -61 82 C-63.01481734 84.01481734 -62.7214027 87.79076863 -63.0625 90.5625 C-63.15337891 91.27341797 -63.24425781 91.98433594 -63.33789062 92.71679688 C-63.56239503 94.47738403 -63.78168397 96.23863478 -64 98 C-64.66 98 -65.32 98 -66 98 C-66.34933594 96.92878906 -66.69867188 95.85757813 -67.05859375 94.75390625 C-67.51807145 93.35671896 -67.97771546 91.95958635 -68.4375 90.5625 C-68.66759766 89.85544922 -68.89769531 89.14839844 -69.13476562 88.41992188 C-70.07421147 84.93693205 -70.07421147 84.93693205 -72 82 C-74.1656224 81.89290878 -76.33270088 81.81483373 -78.5 81.75 C-85.85499394 81.27766094 -91.50982036 79.69596854 -96.65625 74.24609375 C-98.40607325 71.32124384 -98.81523365 68.7381907 -99.3125 65.375 C-99.49425781 64.22773437 -99.67601563 63.08046875 -99.86328125 61.8984375 C-99.93095703 60.46371094 -99.93095703 60.46371094 -100 59 C-98 57 -98 57 -95.6875 56.8125 C-93.04363818 56.99695548 -90.59533911 57.48093218 -88 58 C-87.154375 58 -86.30875 58 -85.4375 58 C-83.09468753 58 -81.2538395 58.43654013 -79 59 C-78.67 58.67 -78.34 58.34 -78 58 C-75.65921527 57.94911338 -73.3400359 57.96025861 -71 58 C-61.45019943 58.08957391 -51.91853117 57.80442863 -42.375 57.5 C-41.61751465 57.47599121 -40.8600293 57.45198242 -40.07958984 57.42724609 C-35.71960265 57.28848919 -31.35975591 57.14586832 -27 57 C-27 57.99 -27 58.98 -27 60 C-27.33 60.33 -27.66 60.66 -28 61 C-28.23363881 62.84891946 -28.41303635 64.70488031 -28.5625 66.5625 C-28.68818359 68.08037109 -28.68818359 68.08037109 -28.81640625 69.62890625 C-28.87699219 70.41136719 -28.93757813 71.19382812 -29 72 C-27.02 72 -25.04 72 -23 72 C-23.04640625 71.09636719 -23.0928125 70.19273438 -23.140625 69.26171875 C-23.17671875 68.08222656 -23.2128125 66.90273437 -23.25 65.6875 C-23.29640625 64.51574219 -23.3428125 63.34398437 -23.390625 62.13671875 C-23 59 -23 59 -21.25390625 57.09375 C-18.80775009 55.90670715 -17.37816366 55.75992931 -14.6875 55.8125 C-10.66809615 55.47534606 -8.90974281 54.47451962 -6.1875 51.5 C-2.93459552 47.2846536 -0.97212465 42.90790113 1 38 C2.00844073 35.74441848 3.0300019 33.49467111 4.0625 31.25 C4.54847656 30.18265625 5.03445312 29.1153125 5.53515625 28.015625 C8.88916877 21.11083123 8.88916877 21.11083123 11 19 C11.23192865 17.48530552 11.41215238 15.96245438 11.5625 14.4375 C11.68818359 13.19806641 11.68818359 13.19806641 11.81640625 11.93359375 C11.87699219 11.29550781 11.93757813 10.65742188 12 10 C11.38125 9.896875 10.7625 9.79375 10.125 9.6875 C8 9 8 9 6 6 C3.69855891 4.92863949 1.3659787 3.92010283 -1 3 C-0.67 2.01 -0.34 1.02 0 0 Z " fill="#867E9A" transform="translate(104,11)"/>
	

	

	<path d="M0 0 C16.17 0 32.34 0 49 0 C44.87096774 9.29032258 44.87096774 9.29032258 41 12 C40.690625 12.94875 40.38125 13.8975 40.0625 14.875 C39 18 39 18 36.66015625 20.265625 C33.72155079 23.28621798 32.19137612 26.08466261 30.375 29.875 C29.80523438 31.04804688 29.23546875 32.22109375 28.6484375 33.4296875 C27.50434221 35.90765693 26.44564614 38.36104766 25.42578125 40.88671875 C24 44 24 44 21.8125 44.9375 C21.214375 44.958125 20.61625 44.97875 20 45 C19.773125 46.010625 19.54625 47.02125 19.3125 48.0625 C18.26973384 51.80285686 16.44111531 54.33956721 14.07421875 57.37109375 C12.78246291 59.05173421 12.78246291 59.05173421 12.75 61.6875 C12 64 12 64 10.0546875 65.16015625 C6.75615639 66.63972245 3.42858621 67.85713793 0 69 C0 46.23 0 23.46 0 0 Z " fill="#FBFBFB" transform="translate(0,0)"/>
	

	<path d="M0 0 C4 4 4 4 5.5 6.875 C8.744456 11.84983254 14.53102143 14.23390728 20 16 C23.0907677 16.08023006 25.78906544 15.81426574 28.8203125 15.234375 C29.53960938 15.15703125 30.25890625 15.0796875 31 15 C33.27304453 17.27304453 33.41617937 18.17696334 34.0078125 21.25390625 C36.72633426 35.41612019 36.72633426 35.41612019 46 46 C48.74581613 47.46155252 50.17031597 48.17954768 53.23828125 47.515625 C55.93711261 45.86888044 57.31792484 44.72100393 59 42 C59.59588995 38.20968737 59.41491361 34.44120114 59.14379883 30.62597656 C58.80105849 25.52737771 59.19631718 22.49742437 62 18 C64.32224872 18.92889949 65.72202056 19.5873295 67.13671875 21.6875 C68.25395784 24.68028526 68.08463818 27.06577897 67.9375 30.25 C67.81208138 38.85564667 69.51068785 43.13835982 75 50 C50.25 50 25.5 50 0 50 C0 33.5 0 17 0 0 Z " fill="#FBFBFB" transform="translate(0,78)"/>
	

	<path d="M0 0 C2.64386182 0.18445548 5.09216089 0.66843218 7.6875 1.1875 C8.533125 1.1875 9.37875 1.1875 10.25 1.1875 C12.59281247 1.1875 14.4336605 1.62404013 16.6875 2.1875 C17.0175 1.8575 17.3475 1.5275 17.6875 1.1875 C20.02828473 1.13661338 22.3474641 1.14775861 24.6875 1.1875 C34.23730057 1.27707391 43.76896883 0.99192863 53.3125 0.6875 C54.06998535 0.66349121 54.8274707 0.63948242 55.60791016 0.61474609 C59.96789735 0.47598919 64.32774409 0.33336832 68.6875 0.1875 C68.6875 3.1875 68.6875 3.1875 66.6875 6.1875 C66.01491333 8.51913378 65.34902556 10.8527039 64.6875 13.1875 C62.55288462 19.59134615 62.55288462 19.59134615 58.875 22.125 C55.572247 23.22591767 53.14121585 23.42298063 49.6875 23.1875 C49.0275 23.1875 48.3675 23.1875 47.6875 23.1875 C48.2134375 24.0228125 48.2134375 24.0228125 48.75 24.875 C49.90595993 27.72636783 49.49717438 29.27267222 48.6875 32.1875 C48.0275 32.1875 47.3675 32.1875 46.6875 32.1875 C45.95650519 30.89871798 45.27731061 29.58033957 44.625 28.25 C43.05421223 25.56735945 42.35453489 24.40350291 39.359375 23.43359375 C37.11021842 23.21079994 34.94527329 23.10879766 32.6875 23.1875 C31.6975 25.1675 30.7075 27.1475 29.6875 29.1875 C29.01203125 28.3625 28.3365625 27.5375 27.640625 26.6875 C23.88244837 23.50597481 22.25786474 23.79076216 17.4375 24.1875 C10.75475716 24.5165868 5.87059268 23.62348022 0.6875 19.1875 C-2.3866358 15.91714276 -2.97577121 12.95346723 -3.625 8.5625 C-3.89763672 6.84160156 -3.89763672 6.84160156 -4.17578125 5.0859375 C-4.22089844 4.12945312 -4.26601562 3.17296875 -4.3125 2.1875 C-2.3125 0.1875 -2.3125 0.1875 0 0 Z " fill="#55456E" transform="translate(8.3125,67.8125)"/>
	

	<path d="M0 0 C3.0603333 1.7655769 5.50587755 3.50587755 8 6 C7.828125 8.27734375 7.828125 8.27734375 7.25 10.9375 C7.06953125 11.81277344 6.8890625 12.68804687 6.703125 13.58984375 C6 16 6 16 4 19 C0.875 20.1875 0.875 20.1875 -2 21 C-1.505 24.465 -1.505 24.465 -1 28 C-1.99 28.33 -2.98 28.66 -4 29 C-4.66 28.01 -5.32 27.02 -6 26 C-9.08365871 25.7497843 -9.08365871 25.7497843 -12 26 C-12.226875 26.928125 -12.45375 27.85625 -12.6875 28.8125 C-14 32 -14 32 -16.625 33.4375 C-17.40875 33.953125 -18.1925 34.46875 -19 35 C-19.58342353 38.54230809 -19.58342353 38.54230809 -19 42 C-18.34 42.66 -17.68 43.32 -17 44 C-16.55078125 47.00390625 -16.55078125 47.00390625 -16.3125 50.5625 C-16.22613281 51.73941406 -16.13976562 52.91632812 -16.05078125 54.12890625 C-16.03402344 55.07636719 -16.01726563 56.02382812 -16 57 C-17 58 -17 58 -19.72265625 58.09765625 C-20.82480469 58.08605469 -21.92695312 58.07445312 -23.0625 58.0625 C-24.16722656 58.05347656 -25.27195312 58.04445312 -26.41015625 58.03515625 C-27.26480469 58.02355469 -28.11945312 58.01195312 -29 58 C-28.62828371 50.68957968 -28.62828371 50.68957968 -25.4375 47.1875 C-24.633125 46.465625 -23.82875 45.74375 -23 45 C-23 44.01 -23 43.02 -23 42 C-25.42267086 41.94832473 -25.42267086 41.94832473 -28 43 C-29.08301035 45.29598193 -30.07796291 47.63477442 -31 50 C-32.875 52.125 -32.875 52.125 -35 54 C-35.804375 54.928125 -36.60875 55.85625 -37.4375 56.8125 C-40 59 -40 59 -42.8125 58.8125 C-43.534375 58.544375 -44.25625 58.27625 -45 58 C-43.5014118 54.9024397 -41.83068882 51.95148057 -40.0625 49 C-39.30646484 47.7315625 -39.30646484 47.7315625 -38.53515625 46.4375 C-37.12312425 44.195495 -35.58974878 42.11663695 -34 40 C-33.690625 39.29875 -33.38125 38.5975 -33.0625 37.875 C-32 36 -32 36 -30 35.25 C-27.58106801 34.06551334 -27.58106801 34.06551334 -27.1875 30.5 C-27.04699219 29.79101562 -26.90648438 29.08203125 -26.76171875 28.3515625 C-25.5108114 24.48978699 -23.00677487 21.55487082 -20.6015625 18.328125 C-18.81288355 15.95829777 -18.81288355 15.95829777 -17.875 12.625 C-16.72761399 9.18284197 -14.85291656 8.15708325 -12 6 C-10.99431758 4.33675599 -9.99335201 2.67063747 -9 1 C-5.64870516 -0.11709828 -3.51689744 -0.34479387 0 0 Z " fill="#D3D3DB" transform="translate(58,8)"/>
	

	<path d="M0 0 C5.36800981 -0.59400109 9.70500855 -0.75984864 14.25 2.4375 C18.66658158 6.26940173 23.52452979 11.03279545 24.25 17.0859375 C24.03739025 19.46893845 23.55407069 21.6715004 23 24 C22.79632813 25.1446875 22.59265625 26.289375 22.3828125 27.46875 C20.21031124 39.08797022 20.21031124 39.08797022 16 44 C15.48308594 44.66644531 14.96617188 45.33289062 14.43359375 46.01953125 C10.61799094 50.75702468 7.63353683 52.85925601 2 55 C0.8422494 58.47325181 0.93133348 61.36067448 1 65 C4.54150893 65.08761663 8.08273633 65.14059739 11.625 65.1875 C12.62402344 65.21263672 13.62304688 65.23777344 14.65234375 65.26367188 C22.34064495 65.42974437 22.34064495 65.42974437 29 62 C33.01132639 55.95291945 33.6078759 49.7740448 33.6875 42.6875 C33.7297153 40.94132185 33.77516637 39.19521822 33.82421875 37.44921875 C33.83541748 36.68955811 33.84661621 35.92989746 33.8581543 35.1472168 C34 33 34 33 34.52661133 30.96801758 C35.16871736 28.29859174 34.82674872 25.80489632 34.546875 23.09765625 C35.38521265 19.2167311 38.49334228 17.0512138 41.64355469 14.85327148 C43.4027212 13.74424251 45.18801722 12.70770825 47 11.6875 C47.90492187 11.14899414 47.90492187 11.14899414 48.828125 10.59960938 C52.3320302 8.60009825 54.95834995 7.30363462 59 8 C61.0625 9.13671875 61.0625 9.13671875 63 10.6875 C63.68320313 11.23277344 64.36640625 11.77804687 65.0703125 12.33984375 C67.51343752 14.44172257 69.78753791 16.65739308 72 19 C72.99 19.99 72.99 19.99 74 21 C73.67972896 29.96758901 69.63982147 37.66351971 66 45.7109375 C64.5683696 48.98802896 63.30758925 52.32845414 62.01953125 55.6640625 C61.07989131 57.81695401 60.00714506 59.56814847 58.6875 61.5 C56.62131285 65.78542521 57.00893328 68.28672398 57.8359375 72.86328125 C57.89007813 73.56839844 57.94421875 74.27351563 58 75 C57.34 75.66 56.68 76.32 56 77 C54.12317404 67.50546869 55.59327985 61.35802287 60.22265625 53.15234375 C62.28882516 49.48773208 63.61265686 45.96383753 65 42 C65.68000129 40.26787072 66.36791142 38.53883146 67.0625 36.8125 C67.38347656 36.01457031 67.70445313 35.21664062 68.03515625 34.39453125 C68.7096806 32.72050927 69.3969433 31.05158905 70.09375 29.38671875 C71.26290574 26.307606 71.47680108 24.26949315 71 21 C67.29884835 16.22432045 62.05143094 13.20254119 57 10 C46.60238139 14.72824784 46.60238139 14.72824784 38 22 C37.2127322 24.1381966 37.2127322 24.1381966 37 26 C38.65 25.34 40.3 24.68 42 24 C42 25.32 42 26.64 42 28 C41.38125 28.226875 40.7625 28.45375 40.125 28.6875 C37.21398667 30.48547882 36.84627373 31.6854279 36 35 C35.74175816 38.70808789 35.57065556 42.37803212 36.52734375 45.9921875 C37.0760277 48.32296065 36.99144661 50.18425094 36.75 52.5625 C36.68296875 53.32691406 36.6159375 54.09132812 36.546875 54.87890625 C35.89680294 57.40025717 34.90976316 58.28865379 33 60 C32.731875 60.66 32.46375 61.32 32.1875 62 C30.31109941 65.16025363 28.46090694 65.69488909 25 67 C20.76561856 67.46236432 16.56855167 67.46423705 12.3125 67.4375 C11.17232422 67.45748047 10.03214844 67.47746094 8.85742188 67.49804688 C7.76623047 67.49740234 6.67503906 67.49675781 5.55078125 67.49609375 C4.06058472 67.49887329 4.06058472 67.49887329 2.5402832 67.50170898 C-0 67 -0 67 -1.84448242 65.15527344 C-3.4469178 62.16640812 -3.05490413 60.14222912 -2.625 56.8125 C-2.38646383 54.87848616 -2.17033309 52.94120985 -2 51 C-2.33 50.67 -2.66 50.34 -3 50 C-3.04063832 48.33382885 -3.042721 46.66611905 -3 45 C-1.68 44.34 -0.36 43.68 1 43 C1 44.32 1 45.64 1 47 C7.01019629 44.87138881 11.83959581 41.91594929 16 37 C16.86346704 34.96525592 17.28773579 33.15455254 17.63671875 30.9765625 C18 29 18 29 19.625 25.375 C21.34691796 21.14847409 21.80897892 18.35380871 20.30859375 13.98828125 C17.68255256 8.04397882 14.20549375 5.68288422 8.5 2.6875 C4.71272232 1.64599864 1.48856286 2.25571857 -2 4 C-1.34 2.68 -0.68 1.36 0 0 Z " fill="#D3D3DB" transform="translate(49,0)"/>
	

	<path d="M0 0 C5.81214211 2.40616091 9.76535831 4.57644409 12.6875 10.3125 C14.68633083 15.92826281 14.51105814 19.15606654 12.0625 24.5 C11.70285156 25.2115625 11.34320313 25.923125 10.97265625 26.65625 C9.85575984 29.04144389 9.85575984 29.04144389 9.6640625 31.98046875 C8.8081291 35.87244825 7.28194372 37.20702397 4.3125 39.8125 C3.03826172 40.96685547 3.03826172 40.96685547 1.73828125 42.14453125 C-1.2683603 44.18184186 -3.41590282 44.67989762 -7 45 C-7 43.68 -7 42.36 -7 41 C-9.66250834 41.84397306 -9.66250834 41.84397306 -12 44 C-12.45787911 47.03816258 -12.28780586 49.94925785 -12 53 C-16.0042343 49.50912907 -17.62671065 47.35048061 -18 42 C-15 40 -15 40 -12 40 C-11.67 37.36 -11.34 34.72 -11 32 C-8.03 31.505 -8.03 31.505 -5 31 C-4.34 32.32 -3.68 33.64 -3 35 C-2.01 34.505 -2.01 34.505 -1 34 C-1.309375 32.329375 -1.309375 32.329375 -1.625 30.625 C-1.74875 29.42875 -1.8725 28.2325 -2 27 C0.35953094 24.64046906 1.77895617 24.50858587 5 24 C5.53394179 22.5882217 6.05165104 21.17029756 6.5625 19.75 C6.85253906 18.96109375 7.14257812 18.1721875 7.44140625 17.359375 C8.05951295 14.74863064 8.00476183 13.4700395 7 11 C2.16468047 6.75435359 -0.9109483 6.80357898 -7 7 C-9.5 6 -9.5 6 -11 5 C-7.78482274 -0.69963241 -6.47709648 -1.55930101 0 0 Z " fill="#A9A5B8" transform="translate(57,2)"/>
	

	<path d="M0 0 C0.66 0 1.32 0 2 0 C4.30192527 8.3444791 4.88801122 13.86169576 0.77734375 21.78515625 C-2.3982489 25.74243324 -6.14344838 26.0934437 -11 27 C-11.33 30.3 -11.66 33.6 -12 37 C-12.66 37 -13.32 37 -14 37 C-14.5878125 35.3603125 -14.5878125 35.3603125 -15.1875 33.6875 C-16.7025523 30.08925078 -18.39846838 28.65475777 -22 27 C-21.67 25.68 -21.34 24.36 -21 23 C-19.02 22.67 -17.04 22.34 -15 22 C-15.2165625 21.33613281 -15.433125 20.67226562 -15.65625 19.98828125 C-15.9346875 19.10527344 -16.213125 18.22226563 -16.5 17.3125 C-16.7784375 16.44238281 -17.056875 15.57226562 -17.34375 14.67578125 C-17.99850805 12.00608323 -18.11831495 9.73603316 -18 7 C-16.60432165 6.68680856 -15.20844918 6.37448212 -13.8125 6.0625 C-12.57886719 5.78212891 -12.57886719 5.78212891 -11.3203125 5.49609375 C-9 5 -9 5 -6.1875 4.625 C-3.30294667 3.80084191 -2.01895372 2.15819191 0 0 Z " fill="#55456E" transform="translate(99,63)"/>
	

	<path d="M0 0 C2.9375 1.5 2.9375 1.5 5 4 C5.22244129 7.12530016 4.87632556 9.99379708 4 13 C2 15 2 15 -1 15.875 C-4.11860192 16.64192166 -4.11860192 16.64192166 -4.90625 18.984375 C-6 21 -6 21 -8.09375 21.8359375 C-8.8878125 22.01382813 -9.681875 22.19171875 -10.5 22.375 C-12.91118023 23.0058911 -12.91118023 23.0058911 -15 24 C-16.68036511 27.02884844 -16.68036511 27.02884844 -17 30 C-18.65 30.33 -20.3 30.66 -22 31 C-22.495 33.97 -22.495 33.97 -23 37 C-26.75 38.125 -26.75 38.125 -29 37 C-28.34 35.68 -27.68 34.36 -27 33 C-26.34 33 -25.68 33 -25 33 C-25.33 30.36 -25.66 27.72 -26 25 C-23.50935112 24.31292445 -21.62113708 24 -19 24 C-19.99 23.67 -20.98 23.34 -22 23 C-21.46463328 18.44938284 -19.62240102 15.7022132 -17 12 C-16.484375 11.113125 -15.96875 10.22625 -15.4375 9.3125 C-14.11357442 7.18270667 -12.75607063 5.75607063 -11 4 C-10.67 3.29875 -10.34 2.5975 -10 1.875 C-7.81942345 -2.21358104 -3.81115747 -0.99090094 0 0 Z " fill="#FCFCFC" transform="translate(59,10)"/>
	

	<path d="M0 0 C3.62819568 -0.33750657 5.47303665 -0.34702464 8.5625 1.6875 C11.08790073 4.083393 13.57237842 6.50494449 16 9 C16.495 9.495 16.495 9.495 17 10 C16.94948207 15.88533858 15.55499465 20.70075183 13 26 C12.34849045 27.43493632 11.70300746 28.87261905 11.0625 30.3125 C10.72347656 31.07046875 10.38445312 31.8284375 10.03515625 32.609375 C8.60653913 35.90867189 7.31165797 39.25614683 6.015625 42.609375 C5.07679212 44.81924317 3.97743603 46.75524806 2.75 48.8125 C0.8362716 52.44198489 0.89592234 55.3057458 1.0625 59.375 C1.24463725 65.92435191 0.20143987 70.83932728 -4 76 C-5.57306786 76.9101697 -7.17981929 77.76418609 -8.8125 78.5625 C-11.2865817 79.80645437 -11.2865817 79.80645437 -13 82 C-13.41646967 85.64410959 -13.38947552 88.94997503 -13.18359375 92.59423828 C-12.86775045 98.44116007 -13.38101719 103.1464478 -17 108 C-18.485 108.99 -18.485 108.99 -20 110 C-19.71125 109.484375 -19.4225 108.96875 -19.125 108.4375 C-15.79810649 101.22923072 -15.68749943 94.57462089 -15.87304688 86.76367188 C-15.8324707 84.32716942 -15.73756156 82.32516993 -15 80 C-12.78137205 77.96060924 -10.83980793 77.19702112 -8 76 C-4.58357533 73.4376815 -3.4087287 69.95785684 -2 66 C-1.66963024 61.83664081 -1.66963024 61.83664081 -3 58 C-3.039992 56.00039988 -3.04346799 53.99952758 -3 52 C-4.94999129 52.19471111 -4.94999129 52.19471111 -7 53 C-7.309375 53.66 -7.61875 54.32 -7.9375 55 C-9 57 -9 57 -11.25 57.75 C-14.18405528 58.0167323 -17.05540397 58.06847898 -20 58 C-19.67 57.34 -19.34 56.68 -19 56 C-17.1796875 55.8671875 -17.1796875 55.8671875 -14.875 55.875 C-10.79097985 55.49841309 -8.95036945 54.53256387 -6.1875 51.5 C-2.93459552 47.2846536 -0.97212465 42.90790113 1 38 C2.00844073 35.74441848 3.0300019 33.49467111 4.0625 31.25 C4.54847656 30.18265625 5.03445312 29.1153125 5.53515625 28.015625 C8.88916877 21.11083123 8.88916877 21.11083123 11 19 C11.23192865 17.48530552 11.41215238 15.96245438 11.5625 14.4375 C11.64628906 13.61121094 11.73007813 12.78492188 11.81640625 11.93359375 C11.90728516 10.97646484 11.90728516 10.97646484 12 10 C11.38125 9.896875 10.7625 9.79375 10.125 9.6875 C8 9 8 9 6 6 C3.69855891 4.92863949 1.3659787 3.92010283 -1 3 C-0.67 2.01 -0.34 1.02 0 0 Z " fill="#9590A7" transform="translate(104,11)"/>
	

	<path d="M0 0 C5.70709064 0.46588495 9.15939723 1.93757784 14 5 C14.08131463 6.43655854 14.13933559 7.8744483 14.1875 9.3125 C14.23970703 10.51326172 14.23970703 10.51326172 14.29296875 11.73828125 C13.92604118 14.5709621 13.02972926 15.06692452 11 17 C10.11868986 18.8648412 9.31281325 20.76620608 8.5625 22.6875 C6.83741487 26.98208129 5.03233592 31.14828569 2.8984375 35.25390625 C2.04463249 36.91325773 1.26979152 38.61254372 0.5 40.3125 C-1.06944924 43.12442989 -2.14200554 44.52769982 -5 46 C-7.25 45.6875 -7.25 45.6875 -9 45 C-9.42230626 40.35463118 -8.03128194 37.14069011 -6 33 C-5.34 32.34 -4.68 31.68 -4 31 C-3.690625 30.195625 -3.38125 29.39125 -3.0625 28.5625 C-2 26 -2 26 -0.46875 24.65625 C1.50723851 22.42800763 1.42832129 20.87644654 1.5625 17.9375 C1.79166667 13.20833333 1.79166667 13.20833333 4 11 C4 9.68 4 8.36 4 7 C0.99740483 6.66781808 0.99740483 6.66781808 -0.6875 8.5 C-1.120625 8.995 -1.55375 9.49 -2 10 C-4.475 9.01 -4.475 9.01 -7 8 C-7 7.34 -7 6.68 -7 6 C-6.401875 5.7525 -5.80375 5.505 -5.1875 5.25 C-2.71352479 3.83629988 -1.56629745 2.34944617 0 0 Z " fill="#D3D3DB" transform="translate(102,16)"/>
	

	<path d="M0 0 C2.63989492 3.54370131 3.70222647 7.04298138 4.6875 11.3125 C4.93886719 12.38113281 5.19023438 13.44976562 5.44921875 14.55078125 C5.63097656 15.35902344 5.81273438 16.16726562 6 17 C6.66 17 7.32 17 8 17 C8.02578125 15.94039062 8.0515625 14.88078125 8.078125 13.7890625 C8.1343978 12.40099999 8.19174533 11.01298075 8.25 9.625 C8.27126953 8.57699219 8.27126953 8.57699219 8.29296875 7.5078125 C8.390625 5.4765625 8.390625 5.4765625 9 2 C10.8828125 0.484375 10.8828125 0.484375 13 0 C15.93016124 0.69765744 17.49870482 1.19265093 19.11328125 3.79296875 C20.07212805 6.17952576 20.36875555 8.12759995 20.5625 10.6875 C20.76625352 13.33629581 20.98759074 15.92508485 21.421875 18.546875 C21.78101145 20.7447901 22.07044653 22.77388956 22 25 C19.96326781 27.58508316 18.6240173 27.87824053 15.4375 28.5 C13 28 13 28 11.3125 25.5625 C10.879375 24.716875 10.44625 23.87125 10 23 C9.34 22.67 8.68 22.34 8 22 C11.15017231 27.4024721 11.15017231 27.4024721 16 31 C19.0520937 30.93652491 21.99706494 30.53257182 25 30 C22.64722731 32.72426311 20.37503669 33.8141763 17 35 C15.38561551 33.63701122 13.78390308 32.2590061 12.1875 30.875 C11.29417969 30.10929687 10.40085937 29.34359375 9.48046875 28.5546875 C4.59097141 23.51889024 3.2604249 17.77305984 1.8125 11.125 C1.63525391 10.34125 1.45800781 9.5575 1.27539062 8.75 C0.84332211 6.83488549 0.42068646 4.91764692 0 3 C-3.31129111 2.21919642 -5.2412663 2.03680333 -8.6875 2.5625 C-10.3271875 2.7790625 -10.3271875 2.7790625 -12 3 C-12.66 2.34 -13.32 1.68 -14 1 C-13.05125 1.020625 -12.1025 1.04125 -11.125 1.0625 C-7.07228448 0.98144569 -4.21703154 -0.51637121 0 0 Z " fill="#ABA8BA" transform="translate(32,92)"/>
	

	

	<path d="M0 0 C0.99 0.66 1.98 1.32 3 2 C1.68 2 0.36 2 -1 2 C-1 2.99 -1 3.98 -1 5 C0.134375 5.45375 1.26875 5.9075 2.4375 6.375 C6 8 6 8 7 10 C6.00419922 9.69642578 6.00419922 9.69642578 4.98828125 9.38671875 C2.2712654 8.67672483 -0.19135498 8.12473309 -3 8 C-6.04475302 10.20913543 -6.04475302 10.20913543 -8 13 C-8.66 13 -9.32 13 -10 13 C-10 13.66 -10 14.32 -10 15 C-7.03 15.495 -7.03 15.495 -4 16 C-3.34 15.01 -2.68 14.02 -2 13 C-0.68 13.33 0.64 13.66 2 14 C1.125 18.875 1.125 18.875 0 20 C-0.23075082 21.34747084 -0.41153063 22.70377565 -0.5625 24.0625 C-0.706875 25.361875 -0.85125 26.66125 -1 28 C-1.33 27.34 -1.66 26.68 -2 26 C-2.66 26 -3.32 26 -4 26 C-4.28875 26.5775 -4.5775 27.155 -4.875 27.75 C-5.24625 28.4925 -5.6175 29.235 -6 30 C-6.37125 31.0828125 -6.37125 31.0828125 -6.75 32.1875 C-8 34 -8 34 -11.078125 34.61328125 C-12.52445312 34.80470703 -12.52445312 34.80470703 -14 35 C-13.91291962 32.89505699 -13.80474307 30.79097858 -13.6875 28.6875 C-13.62949219 27.51574219 -13.57148437 26.34398437 -13.51171875 25.13671875 C-12.98395232 21.9016314 -12.57619276 20.91315119 -10 19 C-11.423125 19.99 -11.423125 19.99 -12.875 21 C-16 23 -16 23 -18 23 C-18 22.34 -18 21.68 -18 21 C-16 19.375 -16 19.375 -14 18 C-14.33 17.34 -14.66 16.68 -15 16 C-16.32 16.33 -17.64 16.66 -19 17 C-18.7454269 12.67225729 -17.00592588 10.35591445 -13.88671875 7.41796875 C-11.14869411 5.36019868 -8.22509829 4.10936513 -5.05078125 2.859375 C-2.75412204 1.97331941 -2.75412204 1.97331941 0 0 Z " fill="#ABA8BA" transform="translate(105,9)"/>
	

	<path d="M0 0 C3.4375 0.25 3.4375 0.25 7 1 C10.70716361 6.56074542 10.57063414 13.47997655 10 20 C8.875 23.5625 8.875 23.5625 7 26 C4 27 4 27 1 27 C0.01 26.34 -0.98 25.68 -2 25 C-2.328125 23.109375 -2.328125 23.109375 -2.25 20.75 C-2.22292969 19.86957031 -2.19585937 18.98914063 -2.16796875 18.08203125 C-2.08482422 16.55642578 -2.08482422 16.55642578 -2 15 C-1.93425781 13.76636719 -1.86851563 12.53273438 -1.80078125 11.26171875 C-1.17211329 1.17211329 -1.17211329 1.17211329 0 0 Z " fill="#ABA8BA" transform="translate(74,93)"/>
	

	<path d="M0 0 C0.99 0 1.98 0 3 0 C2.67 2.31 2.34 4.62 2 7 C4.41674224 7.02705308 6.8331794 7.04686438 9.25 7.0625 C10.27287109 7.07506836 10.27287109 7.07506836 11.31640625 7.08789062 C14.73094335 7.10446605 17.70993485 6.86951722 21 6 C21.66 6.33 22.32 6.66 23 7 C25.10528933 7.08543895 27.21331157 7.10714725 29.3203125 7.09765625 C31.20556641 7.09282227 31.20556641 7.09282227 33.12890625 7.08789062 C34.44761719 7.07951172 35.76632813 7.07113281 37.125 7.0625 C38.46484211 7.05748489 39.804686 7.05292201 41.14453125 7.04882812 C44.42973206 7.03701086 47.71484397 7.02053617 51 7 C51 7.66 51 8.32 51 9 C46.45094217 9.14564422 41.90179317 9.28786711 37.35253906 9.42724609 C35.8127979 9.47486366 34.27308277 9.52333276 32.73339844 9.57275391 C23.23406875 9.8769808 13.7621012 10.03992552 4.2578125 9.91992188 C1.58110642 9.98571621 -0.45221236 10.31382048 -3 11 C-3.33 10.67 -3.66 10.34 -4 10 C-5.49929044 9.95386799 -7.00048046 9.96203748 -8.5 10 C-9.99951954 10.03796252 -11.50070956 10.04613201 -13 10 C-13.33 9.67 -13.66 9.34 -14 9 C-15.66617115 8.95936168 -17.33388095 8.957279 -19 9 C-20.55324682 13.8735933 -19.56650928 18.22292219 -18 23 C-14.59097128 27.45067639 -10.42382295 30.36228976 -4.83984375 31.40234375 C-2.89908051 31.65221274 -0.9495514 31.83193522 1 32 C0.34 32.66 -0.32 33.32 -1 34 C-8.62576443 33.8972961 -14.69485476 31.41316856 -20 26 C-24.22789362 21.10183056 -25.55735989 17.14163022 -25.17578125 10.6875 C-25.11777344 10.130625 -25.05976563 9.57375 -25 9 C-19.23225582 5.72287263 -15.26459815 5.99084318 -8.76953125 7.06640625 C-5.88394638 7.27645897 -5.88394638 7.27645897 -3.76171875 5.21484375 C-1.8875597 2.9221635 -1.8875597 2.9221635 0 0 Z " fill="#87809B" transform="translate(25,60)"/>
	

	<path d="M0 0 C3.62819568 -0.33750657 5.47303665 -0.34702464 8.5625 1.6875 C11.08790073 4.083393 13.57237842 6.50494449 16 9 C16.33 9.33 16.66 9.66 17 10 C16.94948207 15.88533858 15.55499465 20.70075183 13 26 C12.34849045 27.43493632 11.70300746 28.87261905 11.0625 30.3125 C10.72863281 31.06015625 10.39476563 31.8078125 10.05078125 32.578125 C8.27108182 36.68003446 6.63347493 40.83811442 5 45 C3.56589847 41.21180727 4.48990503 38.93478721 5.9375 35.25 C6.31777344 34.26515625 6.69804688 33.2803125 7.08984375 32.265625 C7.54037109 31.14414062 7.54037109 31.14414062 8 30 C7.34 30 6.68 30 6 30 C5.7525 31.2375 5.505 32.475 5.25 33.75 C4.3289242 37.51439673 3.08652634 39.53077893 0 42 C0.75009053 38.25869478 2.27145559 35.01291273 3.875 31.5625 C4.38804688 30.45003906 4.90109375 29.33757813 5.4296875 28.19140625 C8.9373494 21.0626506 8.9373494 21.0626506 11 19 C11.23192865 17.48530552 11.41215238 15.96245438 11.5625 14.4375 C11.64628906 13.61121094 11.73007813 12.78492188 11.81640625 11.93359375 C11.87699219 11.29550781 11.93757813 10.65742188 12 10 C11.071875 9.8453125 11.071875 9.8453125 10.125 9.6875 C8 9 8 9 6 6 C3.69855891 4.92863949 1.3659787 3.92010283 -1 3 C-0.67 2.01 -0.34 1.02 0 0 Z " fill="#A7A3B6" transform="translate(104,11)"/>
	

	<path d="M0 0 C1.65 0 3.3 0 5 0 C6.86666954 6.53334339 3.39381721 11.38966995 0.625 17.25 C-1.38585837 21.51445125 -3.35201727 25.78126797 -5.1875 30.125 C-6.69243315 33.52717794 -8.33926992 36.33926992 -11 39 C-11.99 39 -12.98 39 -14 39 C-12.81717125 32.29730377 -10.88900509 26.44911833 -6.46875 21.171875 C-4.7834155 18.67973144 -4.39203892 16.83170946 -3.9375 13.875 C-3.21089631 9.21089631 -3.21089631 9.21089631 -1 7 C-0.59952556 4.67724823 -0.2602896 2.34260643 0 0 Z " fill="#FCFCFC" transform="translate(109,21)"/>
	

	<path d="M0 0 C3.0603333 1.7655769 5.50587755 3.50587755 8 6 C7.828125 8.27734375 7.828125 8.27734375 7.25 10.9375 C7.06953125 11.81277344 6.8890625 12.68804687 6.703125 13.58984375 C6 16 6 16 4 19 C0.875 20.1875 0.875 20.1875 -2 21 C-1.67 23.31 -1.34 25.62 -1 28 C-1.99 28.33 -2.98 28.66 -4 29 C-4.66 28.01 -5.32 27.02 -6 26 C-9.08365871 25.7497843 -9.08365871 25.7497843 -12 26 C-12.2475 26.969375 -12.495 27.93875 -12.75 28.9375 C-13.1625 29.948125 -13.575 30.95875 -14 32 C-16.125 32.875 -16.125 32.875 -18 33 C-17.34 32.34 -16.68 31.68 -16 31 C-15.71125 30.01 -15.4225 29.02 -15.125 28 C-14 25 -14 25 -12.1875 23.625 C-9.69940916 22.9141169 -7.57533152 22.85692603 -5 23 C-4.814375 22.236875 -4.62875 21.47375 -4.4375 20.6875 C-2.36554378 16.81384272 -0.07713462 16.43454737 4 15 C4.33 12.03 4.66 9.06 5 6 C1.59221789 3.25715099 -0.24937262 2.0127225 -4.6875 1.9375 C-8.12425946 2.68341196 -8.12425946 2.68341196 -9.75 5.375 C-10.1625 6.24125 -10.575 7.1075 -11 8 C-11.47824219 8.46535156 -11.95648438 8.93070313 -12.44921875 9.41015625 C-14.17863993 11.18313968 -15.02773878 12.82121557 -16.0625 15.0625 C-17.22899298 17.57818969 -18.01051026 19.01051026 -20 21 C-20.6425235 23.06874034 -20.6425235 23.06874034 -21 25 C-19.68 25.33 -18.36 25.66 -17 26 C-17.99 26.66 -18.98 27.32 -20 28 C-22.0625 27.5625 -22.0625 27.5625 -24 27 C-24.66 27.33 -25.32 27.66 -26 28 C-24.6716729 25.23265187 -23.18745917 22.68705692 -21.5 20.125 C-19.868885 17.574012 -18.90306333 15.68495581 -18 12.75 C-16.73260879 9.26467416 -14.91967436 8.20755866 -12 6 C-10.99431758 4.33675599 -9.99335201 2.67063747 -9 1 C-5.64870516 -0.11709828 -3.51689744 -0.34479387 0 0 Z " fill="#D3D3DB" transform="translate(58,8)"/>
	

	<path d="M0 0 C4.875 1.875 4.875 1.875 6 3 C6.36760731 5.32817964 6.70241581 7.6618385 7 10 C8.93784265 9.85879286 10.87526955 9.71187127 12.8125 9.5625 C13.89144531 9.48128906 14.97039063 9.40007812 16.08203125 9.31640625 C19.05989905 9.09787539 19.05989905 9.09787539 22 8 C22.33 9.65 22.66 11.3 23 13 C21.60974609 13.07347656 21.60974609 13.07347656 20.19140625 13.1484375 C18.99386719 13.22320312 17.79632813 13.29796875 16.5625 13.375 C14.77005859 13.47941406 14.77005859 13.47941406 12.94140625 13.5859375 C11.97074219 13.72257812 11.00007813 13.85921875 10 14 C9.67 14.66 9.34 15.32 9 16 C4.71 15.34 0.42 14.68 -4 14 C-3.67 12.68 -3.34 11.36 -3 10 C-2.34 10 -1.68 10 -1 10 C-1.20625 8.906875 -1.4125 7.81375 -1.625 6.6875 C-2 3 -2 3 0 0 Z " fill="#88809B" transform="translate(44,70)"/>
	

	<path d="M0 0 C2.5625 1.0625 2.5625 1.0625 4.1875 4.3125 C5.04585975 6.92510316 5.63490593 9.45948424 6.12890625 12.16796875 C7.64386352 20.29538101 9.98351748 25.7969041 16.5625 31.0625 C19.31341832 32.55240082 20.71867383 33.24510811 23.80078125 32.578125 C26.49961261 30.93138044 27.88042484 29.78350393 29.5625 27.0625 C30.15838995 23.27218737 29.97741361 19.50370114 29.70629883 15.68847656 C29.36355849 10.58987771 29.75881718 7.55992437 32.5625 3.0625 C33.8825 3.7225 35.2025 4.3825 36.5625 5.0625 C36.5625 5.7225 36.5625 6.3825 36.5625 7.0625 C35.2425 7.0625 33.9225 7.0625 32.5625 7.0625 C32.5531543 7.67770508 32.54380859 8.29291016 32.53417969 8.92675781 C32.48038915 11.72281086 32.39676181 14.5172062 32.3125 17.3125 C32.29832031 18.28058594 32.28414062 19.24867187 32.26953125 20.24609375 C32.02099488 27.4536485 32.02099488 27.4536485 29.6328125 30.625 C28.94960938 31.099375 28.26640625 31.57375 27.5625 32.0625 C26.94375 32.64 26.325 33.2175 25.6875 33.8125 C22.75763432 35.5359504 20.92619165 35.42838982 17.5625 35.0625 C15.11328125 33.234375 15.11328125 33.234375 12.875 30.8125 C12.12863281 30.02359375 11.38226563 29.2346875 10.61328125 28.421875 C7.42132629 24.74960681 5.29739419 22.15365496 4.39453125 17.296875 C4.22373047 16.40742187 4.05292969 15.51796875 3.87695312 14.6015625 C3.71130859 13.68117188 3.54566406 12.76078125 3.375 11.8125 C3.19775391 10.87664062 3.02050781 9.94078125 2.83789062 8.9765625 C2.40312784 6.67349479 1.97837612 4.36903981 1.5625 2.0625 C0.81613281 2.22621094 0.06976563 2.38992187 -0.69921875 2.55859375 C-3.98131541 3.16257445 -7.10760069 3.12779214 -10.4375 3.0625 C-10.7675 2.4025 -11.0975 1.7425 -11.4375 1.0625 C-10.32375 1.083125 -9.21 1.10375 -8.0625 1.125 C-4.85704789 1.06973358 -3.05468437 0.07832524 0 0 Z " fill="#D3D3DB" transform="translate(29.4375,92.9375)"/>
	

	<path d="M0 0 C0.33 0 0.66 0 1 0 C1.3125 2.25 1.3125 2.25 1 5 C0.25363281 5.55558594 -0.49273437 6.11117188 -1.26171875 6.68359375 C-4.75795013 9.64117608 -6.21243989 12.71901661 -8.125 16.8125 C-8.45886719 17.49892578 -8.79273437 18.18535156 -9.13671875 18.89257812 C-10.73671521 22.20864922 -12.22663984 25.53935882 -13.60546875 28.953125 C-15 32 -15 32 -17.1875 32.9375 C-17.785625 32.958125 -18.38375 32.97875 -19 33 C-19.226875 34.010625 -19.45375 35.02125 -19.6875 36.0625 C-20.73026616 39.80285686 -22.55888469 42.33956721 -24.92578125 45.37109375 C-26.21753709 47.05173421 -26.21753709 47.05173421 -26.25 49.6875 C-27 52 -27 52 -28.9453125 53.16015625 C-32.24384361 54.63972245 -35.57141379 55.85713793 -39 57 C-39 56.34 -39 55.68 -39 55 C-36.52552307 53.44317965 -33.96402218 52.1019662 -31.3828125 50.73046875 C-28.55766261 48.67876153 -28.06569957 47.2671447 -27 44 C-26.22284974 42.64575796 -25.41083587 41.31082427 -24.5625 40 C-23.08893526 37.70730662 -21.67115315 35.42756289 -20.3125 33.0625 C-19 31 -19 31 -17 30 C-16.31228349 28.41825203 -15.63177184 26.83304882 -14.984375 25.234375 C-11.45624333 17.22607614 -7.18950117 9.18950117 -1 3 C-0.67 2.01 -0.34 1.02 0 0 Z " fill="#D3D3DB" transform="translate(39,12)"/>
	

	<path d="M0 0 C2.96175123 0.61277612 4.38058783 1.25372522 7 3 C6.01 3.33 5.02 3.66 4 4 C4.165 4.66 4.33 5.32 4.5 6 C5.12605686 9.75634115 5.12696208 13.19113754 5 17 C4 18 4 18 0.4375 18.0625 C-0.696875 18.041875 -1.83125 18.02125 -3 18 C-2.8858134 16.06183265 -2.75826577 14.12444901 -2.625 12.1875 C-2.52058594 10.56908203 -2.52058594 10.56908203 -2.4140625 8.91796875 C-2 6 -2 6 0 3 C0 2.01 0 1.02 0 0 Z " fill="#938DA5" transform="translate(77,66)"/>
	

	<path d="M0 0 C3.03266506 6.46089513 3.44970742 12.30958168 3.69140625 19.4140625 C3.99598083 22.9532962 4.62516874 25.73235529 6 29 C8.1308114 30.76936553 8.1308114 30.76936553 11 31 C13.53492889 30.24793603 15.62418684 29.21119887 18 28 C16.75006004 31.74981988 15.2769294 32.86618551 12 35 C8.89895298 35.09690772 7.7988619 33.83717392 5.375 31.875 C0.28007755 25.7074623 0.84885793 19.7624786 1.22265625 12.0859375 C0.96909435 8.57165847 0.13883669 6.77275696 -2 4 C-2.66 4 -3.32 4 -4 4 C-4.66 4.66 -5.32 5.32 -6 6 C-5.625 3.5625 -5.625 3.5625 -5 1 C-3 0 -3 0 0 0 Z " fill="#ABA8BA" transform="translate(66,93)"/>
	

	<path d="M0 0 C-1.09090909 7.81818182 -1.09090909 7.81818182 -3 11 C-6.125 11.8125 -6.125 11.8125 -9 12 C-8.85831863 10.56208484 -8.71148957 9.1246763 -8.5625 7.6875 C-8.48128906 6.88699219 -8.40007812 6.08648437 -8.31640625 5.26171875 C-8 3 -8 3 -7 0 C-3.86650268 -1.04449911 -3.01031744 -0.93423645 0 0 Z " fill="#D3D3DB" transform="translate(100,32)"/>
	

	

	<path d="M0 0 C0.66 0.66 1.32 1.32 2 2 C1.01 2.66 0.02 3.32 -1 4 C-1.88597363 6.53379899 -2.45446885 9.07342494 -3.05859375 11.6875 C-4 14 -4 14 -6.09765625 15.3125 C-6.72542969 15.539375 -7.35320312 15.76625 -8 16 C-9 15 -9 15 -9.08984375 12.8203125 C-8.93569341 10.09303717 -8.71808351 7.63874061 -8 5 C-5.0625 3 -5.0625 3 -2 2 C-1.34 1.34 -0.68 0.68 0 0 Z " fill="#736889" transform="translate(94,27)"/>
	

	

	<path d="M0 0 C0 3.63 0 7.26 0 11 C-2.64 11.33 -5.28 11.66 -8 12 C-7.75988734 5.8771271 -7.75988734 5.8771271 -5.6328125 3.421875 C-1.52262931 0 -1.52262931 0 0 0 Z " fill="#FCFCFC" transform="translate(39,53)"/>
	

	<path d="M0 0 C1.18536802 3.55610407 0.49493448 4.85146982 -1.046875 8.15234375 C-4.8680576 15.55980018 -4.8680576 15.55980018 -8.25 16.875 C-8.8275 16.91625 -9.405 16.9575 -10 17 C-8.54301636 12.8718797 -6.49073764 9.58959248 -4 6 C-3.24763945 4.87657728 -2.49755125 3.75162866 -1.75 2.625 C-0.88375 1.325625 -0.88375 1.325625 0 0 Z " fill="#FCFCFC" transform="translate(27,47)"/>
	

	<path d="M0 0 C0.99 0.33 1.98 0.66 3 1 C3.625 4.375 3.625 4.375 4 8 C2 10 2 10 -0.625 10.125 C-1.40875 10.08375 -2.1925 10.0425 -3 10 C-2.69201674 8.51988629 -2.378482 7.04092675 -2.0625 5.5625 C-1.80146484 4.32693359 -1.80146484 4.32693359 -1.53515625 3.06640625 C-1 1 -1 1 0 0 Z " fill="#E2E2E7" transform="translate(77,74)"/>
	

	

	<path d="M0 0 C0 4.29 0 8.58 0 13 C-4.0042343 9.50912907 -5.62671065 7.35048061 -6 2 C-3 0 -3 0 0 0 Z " fill="#827A97" transform="translate(45,42)"/>
	

	<path d="M0 0 C4.42576775 0.50580203 6.66763686 2.1179562 10 5 C10.66 5.33 11.32 5.66 12 6 C12 6.66 12 7.32 12 8 C7.14036821 7.39254603 3.2594482 5.27241033 -1 3 C-0.67 2.01 -0.34 1.02 0 0 Z " fill="#857D99" transform="translate(104,11)"/>
	

	<path d="M0 0 C0.99 0.33 1.98 0.66 3 1 C2.67 2.65 2.34 4.3 2 6 C0.02 6.66 -1.96 7.32 -4 8 C-3.6875 5.125 -3.6875 5.125 -3 2 C-2.01 1.34 -1.02 0.68 0 0 Z " fill="#857D99" transform="translate(49,34)"/>
	

	<path d="M0 0 C1.67542976 0.28604898 3.34385343 0.61781233 5 1 C3.68 3.64 2.36 6.28 1 9 C0.34 9 -0.32 9 -1 9 C-1.09765625 2.84765625 -1.09765625 2.84765625 -1 1 C-0.67 0.67 -0.34 0.34 0 0 Z " fill="#FCFCFC" transform="translate(94,33)"/>
	

	

	<path d="M0 0 C0.66 0.33 1.32 0.66 2 1 C1.443125 1.474375 0.88625 1.94875 0.3125 2.4375 C-1.27764444 4.8622631 -1.27764444 4.8622631 -0.49609375 7.1640625 C0.07949398 8.74886459 0.68986648 10.32150741 1.3359375 11.87890625 C2 14 2 14 1 17 C-2.61523208 12.5939359 -3.44324953 9.63072502 -3.43359375 3.953125 C-3 2 -3 2 0 0 Z " fill="#ABA8BA" transform="translate(3,67)"/>
	

	

	<path d="M0 0 C5.49152542 0.61016949 5.49152542 0.61016949 7.875 2.4375 C9 4 9 4 9 6 C5.06326356 4.68775452 2.77280706 3.08089673 0 0 Z " fill="#857D99" transform="translate(57,5)"/>
	

	<path d="M0 0 C2.64 0.33 5.28 0.66 8 1 C7.67 1.66 7.34 2.32 7 3 C4.69 3 2.38 3 0 3 C0 2.01 0 1.02 0 0 Z " fill="#857D99" transform="translate(53,73)"/>
	

	<path d="M0 0 C0.33 0.66 0.66 1.32 1 2 C3.01669827 3.13350534 3.01669827 3.13350534 5 4 C3.02 4.99 1.04 5.98 -1 7 C-1.625 5.1875 -1.625 5.1875 -2 3 C-1.34 2.01 -0.68 1.02 0 0 Z " fill="#ABA8BA" transform="translate(74,81)"/>
	

	<path d="M0 0 C3.67033927 3.27708863 5.69281189 6.71522208 8 11 C3.78926767 9.49616703 2.16762883 6.79335044 0 3 C0 2.01 0 1.02 0 0 Z " fill="#D3D3DB" transform="translate(0,78)"/>
	

	<path d="M0 0 C1.32 0 2.64 0 4 0 C3.67 1.32 3.34 2.64 3 4 C1.35 4 -0.3 4 -2 4 C-1.34 2.68 -0.68 1.36 0 0 Z " fill="#857D99" transform="translate(94,16)"/>
	

	<path d="M0 0 C0.66 0.33 1.32 0.66 2 1 C1.39816251 3.02045442 0.72693904 5.02111039 0 7 C-0.99 7.495 -0.99 7.495 -2 8 C-1.125 1.125 -1.125 1.125 0 0 Z " fill="#857D99" transform="translate(67,19)"/>
	

	<path d="M0 0 C1.65 0.33 3.3 0.66 5 1 C3.75 2.5625 3.75 2.5625 2 4 C-0.1875 3.6875 -0.1875 3.6875 -2 3 C-1.34 2.01 -0.68 1.02 0 0 Z " fill="#857D99" transform="translate(49,4)"/>
	

	<path d="M0 0 C0.66 0 1.32 0 2 0 C2.33 1.98 2.66 3.96 3 6 C1.68 5.67 0.36 5.34 -1 5 C-0.67 3.35 -0.34 1.7 0 0 Z " fill="#857D99" transform="translate(88,57)"/>
	

	<path d="M0 0 C-0.33 1.65 -0.66 3.3 -1 5 C-2.32 5 -3.64 5 -5 5 C-4.625 3.0625 -4.625 3.0625 -4 1 C-2 0 -2 0 0 0 Z " fill="#877F9A" transform="translate(46,11)"/>
	

</svg>
