<?xml version="1.0" encoding="iso-8859-1"?>
<svg height="128" version="1.1" width="128" xmlns="http://www.w3.org/2000/svg">
	

	<path d="M0 0 C42.24 0 84.48 0 128 0 C128 42.24 128 84.48 128 128 C85.76 128 43.52 128 0 128 C0 85.76 0 43.52 0 0 Z " fill="#FDFDFC" transform="translate(0,0)"/>
	

	<path d="M0 0 C2.625 1.3125 2.625 1.3125 5 3 C5 3.66 5 4.32 5 5 C5.66 5 6.32 5 7 5 C7.33 5.66 7.66 6.32 8 7 C8.99 7.33 9.98 7.66 11 8 C11.268125 7.05125 11.53625 6.1025 11.8125 5.125 C13 2 13 2 16 0 C21.32751485 -0.63422796 26.23894707 0.63577851 31 3 C32.33004125 4.18753683 33.62192287 5.41901619 34.875 6.6875 C37.28876097 9.00935424 38.40448618 9.93280521 41.76953125 10.3125 C43.68337073 10.23051491 45.59643713 10.12707205 47.5078125 10 C50 10 50 10 53.0625 11.6875 C56.06788945 15.27457774 56.87729677 17.85476984 57.375 22.5 C56.93021225 26.65135238 55.82765832 28.01076121 53 31 C52.46375 31.763125 51.9275 32.52625 51.375 33.3125 C50.92125 33.869375 50.4675 34.42625 50 35 C49.34 35 48.68 35 48 35 C44.4991945 43.07991818 43.3627809 51.36739018 45 60 C46.08108108 65.83783784 46.08108108 65.83783784 45 68 C40.36121498 70.00457681 36.01881893 70.29403915 31.0390625 70.265625 C30.289664 70.26753845 29.5402655 70.2694519 28.76815796 70.27142334 C27.18983625 70.27277825 25.61150313 70.26913054 24.03320312 70.26074219 C21.63906326 70.25006273 19.24567882 70.26064526 16.8515625 70.2734375 C15.3098942 70.27211519 13.76822637 70.26955133 12.2265625 70.265625 C11.52109283 70.26967346 10.81562317 70.27372192 10.08877563 70.27789307 C2.05989068 70.20353944 -4.22300714 68.77699286 -10 63 C-11.85862653 60.49489467 -12 59.32266922 -12 56.1875 C-10.6448975 51.86811077 -8.10794482 49.21249342 -5 46 C-5.62519531 45.69449219 -6.25039063 45.38898438 -6.89453125 45.07421875 C-9.21993983 43.8877858 -10.4647765 43.12007055 -12 41 C-13.23807995 35.73816021 -13.1517904 31.22735641 -12 26 C-9.07618501 23.96518281 -6.44704984 23.67793439 -2.9375 23.625 C-2.08027344 23.59664062 -1.22304688 23.56828125 -0.33984375 23.5390625 C2 24 2 24 3.87109375 25.8359375 C4.24363281 26.55007812 4.61617187 27.26421875 5 28 C4.67 28.99 4.34 29.98 4 31 C0.04 31.495 0.04 31.495 -4 32 C-4 32.99 -4 33.98 -4 35 C-0.3427281 35.59710562 3.1010339 36 6.8125 36 C10 36 10 36 12 37 C11.57847656 36.59910156 11.15695313 36.19820312 10.72265625 35.78515625 C6.70174655 31.61287112 5.53833392 28.93584564 5.265625 23.19921875 C4.81981054 19.50813726 2.99669411 17.11249376 1 14 C-1.68153287 9.4030865 -2.31965335 6.32755588 -2 1 C-1.34 0.67 -0.68 0.34 0 0 Z " fill="#F4DEC5" transform="translate(37,31)"/>
	

	<path d="M0 0 C0.63679688 0.02707031 1.27359375 0.05414063 1.9296875 0.08203125 C6.0607138 0.29247976 7.71375017 0.77216851 11.0625 3.4375 C13.67779998 7.07083621 13.19999012 10.38912552 12.53125 14.65234375 C11.94398494 17.24753716 11.19162116 19.61675768 10 22 C12.62901288 20.47793991 14.84365964 19.15634036 17 17 C19.125 17.375 19.125 17.375 21 18 C21.495 20.475 21.495 20.475 22 23 C23.98 22.34 25.96 21.68 28 21 C27.484375 20.278125 26.96875 19.55625 26.4375 18.8125 C24.78557018 15.5804634 24.93648325 14.38391693 26 11 C26.99 11.33 27.98 11.66 29 12 C29 12.66 29 13.32 29 14 C29.99 14.33 30.98 14.66 32 15 C32.36637589 21.35051546 32.36637589 21.35051546 30.625 24.4375 C29 26 29 26 27 26 C26.80664062 26.61488281 26.61328125 27.22976562 26.4140625 27.86328125 C26.15367188 28.67152344 25.89328125 29.47976562 25.625 30.3125 C25.24214844 31.51326172 25.24214844 31.51326172 24.8515625 32.73828125 C24 35 24 35 22 38 C20.07089327 45.52351625 20.32198819 54.44894683 22 62 C18.25 63.125 18.25 63.125 16 62 C13.79373829 58.85336445 12.11042219 55.68483383 11 52 C12.5625 48.6875 12.5625 48.6875 13.81640625 47.05859375 C15.9454352 43.35562921 15.92265703 39.08143696 16.3125 34.890625 C17.12944599 31.45573847 18.10680865 30.84324288 21 29 C21 28.34 21 27.68 21 27 C20.11248047 27.19916016 20.11248047 27.19916016 19.20703125 27.40234375 C18.41683594 27.57894531 17.62664062 27.75554688 16.8125 27.9375 C15.99265625 28.123125 15.1728125 28.30875 14.328125 28.5 C12.58506017 28.87434949 10.82586015 29.17487189 9.0625 29.4375 C6.61789145 29.86165035 6.61789145 29.86165035 5 33 C7.31 33.33 9.62 33.66 12 34 C12.24213848 36.90566174 12.16185671 38.66729453 10.875 41.3125 C9 43 9 43 6.4375 43.5625 C0.8716378 42.65172255 -5.00292714 40.76307341 -8.42578125 36.02734375 C-9.4375 33.9375 -9.4375 33.9375 -10.18359375 31.96484375 C-10.93691855 29.89799458 -10.93691855 29.89799458 -12.53515625 28.0703125 C-14.69286333 25.02075317 -14.85036034 21.97406643 -15.375 18.33984375 C-16.09631935 15.63940442 -17.0136572 14.89292569 -19 13 C-20.203125 10.625 -20.203125 10.625 -21.25 8 C-21.60578125 7.13375 -21.9615625 6.2675 -22.328125 5.375 C-23 3 -23 3 -22 0 C-19.08432196 1.14544495 -17.91643239 2.10635878 -15.9375 4.625 C-15.298125 5.40875 -14.65875 6.1925 -14 7 C-13.01 7 -12.02 7 -11 7 C-10.38125 5.865625 -9.7625 4.73125 -9.125 3.5625 C-6.56802039 -1.12529595 -5.0861543 -1.10568572 0 0 Z " fill="#F0B946" transform="translate(59,34)"/>
	

	<path d="M0 0 C3.81334889 1.40491801 5.1979867 3.63898226 7.625 6.875 C10.34657259 10.21138567 13.40890504 11.24606814 17.375 12.875 C20.57696975 15.58971348 22.89800119 17.58201074 23.375 21.875 C24.035 21.875 24.695 21.875 25.375 21.875 C25.87 23.855 25.87 23.855 26.375 25.875 C23.32771295 27.39864352 20.14807294 27.03787318 16.8046875 27.04296875 C15.67210007 27.04796135 15.67210007 27.04796135 14.51663208 27.05305481 C12.91441456 27.05812362 11.31218647 27.06046315 9.70996094 27.06030273 C7.28041639 27.06247283 4.85133817 27.08058286 2.421875 27.09960938 C0.86198071 27.10254675 -0.69791573 27.10452924 -2.2578125 27.10546875 C-3.33483932 27.11624702 -3.33483932 27.11624702 -4.43362427 27.12724304 C-12.50795175 27.09143086 -18.81289075 25.68710925 -24.625 19.875 C-26.53416925 17.30177188 -26.63126354 16.16938653 -26.5625 12.9375 C-25.36418792 9.02301388 -23.80797487 7.42137989 -20.625 4.875 C-17.3125 3.5625 -17.3125 3.5625 -14.625 2.875 C-14.955 4.525 -15.285 6.175 -15.625 7.875 C-11.76729986 7.32389998 -10.28139353 5.61189031 -7.625 2.875 C-4.85555578 0.81566968 -3.47726426 -0.16558401 0 0 Z " fill="#42B0CB" transform="translate(51.625,74.125)"/>
	

	

	<path d="M0 0 C0.99 0.33 1.98 0.66 3 1 C3 1.66 3 2.32 3 3 C3.99 3.33 4.98 3.66 6 4 C6.36637589 10.35051546 6.36637589 10.35051546 4.625 13.4375 C3 15 3 15 1 15 C0.80664062 15.61488281 0.61328125 16.22976562 0.4140625 16.86328125 C0.15367188 17.67152344 -0.10671875 18.47976562 -0.375 19.3125 C-0.75785156 20.51326172 -0.75785156 20.51326172 -1.1484375 21.73828125 C-2 24 -2 24 -4 27 C-5.92910673 34.52351625 -5.67801181 43.44894683 -4 51 C-7.75 52.125 -7.75 52.125 -10 51 C-12.20626171 47.85336445 -13.88957781 44.68483383 -15 41 C-13.4375 37.6875 -13.4375 37.6875 -12.18359375 36.05859375 C-10.0545648 32.35562921 -10.07734297 28.08143696 -9.6875 23.890625 C-8.86068069 20.41422563 -7.89744787 19.90562918 -5 18 C-4.505 16.80375 -4.01 15.6075 -3.5 14.375 C-2 11 -2 11 0.1875 10.0625 C0.785625 10.041875 1.38375 10.02125 2 10 C1.2265625 8.9171875 1.2265625 8.9171875 0.4375 7.8125 C-1.21442982 4.5804634 -1.06351675 3.38391693 0 0 Z " fill="#C9286D" transform="translate(85,45)"/>
	

	

	

	<path d="M0 0 C2.3125 1.0625 2.3125 1.0625 4 2 C3.67 2.66 3.34 3.32 3 4 C2.2575 3.649375 1.515 3.29875 0.75 2.9375 C-2.1322726 1.95490707 -3.21176345 1.9673198 -6 3 C-6.07268303 7.14293276 -6.06553641 10.67231794 -5.25 14.75 C-5 18 -5 18 -6.8125 20.4375 C-9 22 -9 22 -11 22 C-11 24.31 -11 26.62 -11 29 C-14.66310993 25.97395267 -14.73098001 22.8831399 -15.375 18.375 C-16.09382747 15.64345562 -16.99246145 14.90815546 -19 13 C-20.203125 10.625 -20.203125 10.625 -21.25 8 C-21.60578125 7.13375 -21.9615625 6.2675 -22.328125 5.375 C-23 3 -23 3 -22 0 C-19.08432196 1.14544495 -17.91643239 2.10635878 -15.9375 4.625 C-15.298125 5.40875 -14.65875 6.1925 -14 7 C-13.01 7 -12.02 7 -11 7 C-10.38125 5.865625 -9.7625 4.73125 -9.125 3.5625 C-6.63180804 -1.00835193 -5.0245536 -1.31595451 0 0 Z " fill="#F3DA80" transform="translate(59,34)"/>
	

	<path d="M0 0 C0.99 0.33 1.98 0.66 3 1 C-4.35265064 8.77280211 -4.35265064 8.77280211 -9.09375 9.1796875 C-11.06339869 9.18662288 -13.03288041 9.10002303 -15 9 C-15.66 10.65 -16.32 12.3 -17 14 C-14.18986416 18.72613756 -11.25099859 20.11806113 -6.14453125 21.44140625 C6.34856373 23.66067654 19.36032034 23.13304926 32 23 C29.51159407 25.48840593 28.03914746 25.24615586 24.64230347 25.27789307 C23.54705856 25.27182037 23.54705856 25.27182037 22.4296875 25.265625 C21.29710007 25.26849518 21.29710007 25.26849518 20.14163208 25.27142334 C18.53940499 25.27278604 16.93716689 25.26908367 15.33496094 25.26074219 C12.90533929 25.25013249 10.4764722 25.26058772 8.046875 25.2734375 C6.48697755 25.27211418 4.92708057 25.26954822 3.3671875 25.265625 C2.64916962 25.26967346 1.93115173 25.27372192 1.19137573 25.27789307 C-6.87834569 25.2045522 -13.18925953 23.81074047 -19 18 C-20.90916925 15.42677188 -21.00626354 14.29438653 -20.9375 11.0625 C-19.73918792 7.14801388 -18.18297487 5.54637989 -15 3 C-11.6875 1.6875 -11.6875 1.6875 -9 1 C-9.33 2.65 -9.66 4.3 -10 6 C-6.17716957 5.45388137 -4.58920048 3.76181385 -2 1 C-1.34 0.67 -0.68 0.34 0 0 Z " fill="#9BDBE9" transform="translate(46,76)"/>
	

	

	<path d="M0 0 C0.33 0.99 0.66 1.98 1 3 C0.360625 3.36738281 -0.27875 3.73476563 -0.9375 4.11328125 C-3.73901666 6.67603229 -3.64992371 8.45481153 -4 12.1875 C-4.70935702 18.01854483 -6.20591933 21.89357671 -9 27 C-8.67 27.66 -8.34 28.32 -8 29 C-9.32 28.34 -10.64 27.68 -12 27 C-12 26.01 -12 25.02 -12 24 C-11.319375 23.3503125 -11.319375 23.3503125 -10.625 22.6875 C-8.4243481 20.40220764 -7.86929801 18.00910851 -7 15 C-8.65 15.33 -10.3 15.66 -12 16 C-11.34 15.01 -10.68 14.02 -10 13 C-10 11.68 -10 10.36 -10 9 C-12.31 8.67 -14.62 8.34 -17 8 C-15.8125 5.5625 -15.8125 5.5625 -14 3 C-11.875 2.3125 -11.875 2.3125 -9 2 C-7.39284289 1.65966085 -5.78877674 1.30451162 -4.1875 0.9375 C-3.39730469 0.76089844 -2.60710937 0.58429687 -1.79296875 0.40234375 C-1.20128906 0.26957031 -0.60960938 0.13679688 0 0 Z " fill="#E18FA2" transform="translate(80,60)"/>
	

	

	<path d="M0 0 C3.07777878 1.02592626 3.84450474 1.75469244 6 4 C6.99 4.66 7.98 5.32 9 6 C9 7.98 9 9.96 9 12 C13.29 11.34 17.58 10.68 22 10 C21 14 21 14 19 17 C13.8735401 18.02529198 9.73757435 15.98606877 5.28515625 13.62890625 C1.82205269 11.160335 -0.09810611 8.1619507 -1 4 C-0.58203125 1.75390625 -0.58203125 1.75390625 0 0 Z " fill="#E3805E" transform="translate(49,60)"/>
	

	<path d="M0 0 C2.38310394 1.07239677 3.13280861 2.12124227 4.515625 4.31640625 C6.25455799 7.04738625 7.13208519 7.99821305 9.953125 9.87890625 C9.953125 10.53890625 9.953125 11.19890625 9.953125 11.87890625 C4.17552616 11.99927289 -1.32647489 11.71096445 -7.046875 10.87890625 C-7.921875 8.75390625 -7.921875 8.75390625 -8.046875 5.87890625 C-6.05120734 2.8681412 -3.8440606 -0.2274158 0 0 Z " fill="#A1DDEA" transform="translate(52.046875,83.12109375)"/>
	

	

	<path d="M0 0 C3.82612703 1.50312133 5.70091967 3.62801551 8 7 C8.72351427 8.98014432 9.40265389 10.97821315 10 13 C10.33 13.33 10.66 13.66 11 14 C11.04080783 15.99958364 11.04254356 18.00045254 11 20 C10.34 20 9.68 20 9 20 C9 19.34 9 18.68 9 18 C8.34 18 7.68 18 7 18 C2.88952411 13.88952411 0.53529306 8.55719575 -1 3 C-0.67 2.01 -0.34 1.02 0 0 Z " fill="#E18FA2" transform="translate(37,34)"/>
	

	<path d="M0 0 C1.423125 0.495 1.423125 0.495 2.875 1 C7.55447256 2.3644458 12.16823759 2.17499341 17 2 C17.66 3.32 18.32 4.64 19 6 C16.4896272 8.5103728 10.76803881 7.90886489 7.4140625 8.14453125 C4.04860077 8.00205747 2.906027 7.9302327 0.625 5.5625 C0.08875 4.716875 -0.4475 3.87125 -1 3 C-0.67 2.01 -0.34 1.02 0 0 Z " fill="#EEAF45" transform="translate(29,68)"/>
	

	<path d="M0 0 C0.33 0.99 0.66 1.98 1 3 C-0.14453125 5.05859375 -0.14453125 5.05859375 -1.8125 7.4375 C-6.84379378 15.45246799 -7.74050342 23.82280013 -6 33 C-4.91891892 38.83783784 -4.91891892 38.83783784 -6 41 C-8.0625 41.625 -8.0625 41.625 -10 42 C-10.495 40.515 -10.495 40.515 -11 39 C-9.515 38.505 -9.515 38.505 -8 38 C-8.165 37.2575 -8.33 36.515 -8.5 35.75 C-10.24088365 22.69337262 -8.14366418 13.44316077 -2 2 C-1.34 2 -0.68 2 0 2 C0 1.34 0 0.68 0 0 Z " fill="#E18FA2" transform="translate(88,58)"/>
	

	

	

	<path d="M0 0 C3.43511911 0.07156498 5.29640735 0.36676661 7.875 2.6875 C9.28983481 5.59577155 9.21776233 7.80615246 9 11 C8.67 11 8.34 11 8 11 C7.87625 10.195625 7.7525 9.39125 7.625 8.5625 C7.41875 7.716875 7.2125 6.87125 7 6 C6.34 5.67 5.68 5.34 5 5 C5 4.34 5 3.68 5 3 C4.01 3 3.02 3 2 3 C2.58803797 6.02419525 3.22678118 9.01758453 4 12 C2.68 12.33 1.36 12.66 0 13 C-0.99 9.7 -1.98 6.4 -3 3 C-2.01 2.01 -1.02 1.02 0 0 Z " fill="#E18D9A" transform="translate(83,43)"/>
	

	

	

	

	

	<path d="M0 0 C2.5625 -0.0625 2.5625 -0.0625 6 1 C7.94167968 3.18013157 9.5680743 5.44582803 11.19140625 7.87109375 C13.27376655 10.3222522 14.96525349 11.05066904 18 12 C18 12.66 18 13.32 18 14 C14.80961017 13.92403834 12.68285912 13.61211245 10.265625 11.4453125 C6 6.55 6 6.55 6 4 C3.69 3.34 1.38 2.68 -1 2 C-0.67 1.34 -0.34 0.68 0 0 Z " fill="#9CDBE8" transform="translate(50,72)"/>
	

	

	

	

	

	

	

	

	

	

	

</svg>
