<?xml version="1.0" encoding="iso-8859-1"?>
<svg height="128" version="1.1" width="128" xmlns="http://www.w3.org/2000/svg">
	

	<path d="M0 0 C42.24 0 84.48 0 128 0 C128 42.24 128 84.48 128 128 C85.76 128 43.52 128 0 128 C0 85.76 0 43.52 0 0 Z " fill="#F35903" transform="translate(0,0)"/>
	

	<path d="M0 0 C42.24 0 84.48 0 128 0 C128 42.24 128 84.48 128 128 C85.76 128 43.52 128 0 128 C0 85.76 0 43.52 0 0 Z M27 21 C27 21.66 27 22.32 27 23 C26.11054687 23.40992188 26.11054687 23.40992188 25.203125 23.828125 C15.66363121 28.90232383 9.84891189 40.80509929 6 50.5 C2.32039914 63.59364461 4.48380084 84.28273797 10.75 96.3125 C11.78006644 97.91061779 12.86135758 99.47733431 14 101 C14.5259375 101.72058594 15.051875 102.44117187 15.59375 103.18359375 C24.55441445 114.36329068 37.09502607 119.96503666 51 122 C54.94225714 122.28642064 58.86087176 122.3339471 62.8125 122.3125 C63.86767822 122.30831055 64.92285645 122.30412109 66.01000977 122.29980469 C81.40022079 122.07694713 95.49104513 118.3991517 106.69140625 107.328125 C111.67289199 101.48517932 113.49139277 94.40058898 115 87 C115.17877686 86.15276367 115.35755371 85.30552734 115.54174805 84.43261719 C117.35698206 74.5260483 117.33808766 64.6480363 117.31567383 54.60498047 C117.31248401 51.60999095 117.33615499 48.61596394 117.36132812 45.62109375 C117.36359892 43.6979179 117.36430564 41.77473942 117.36328125 39.8515625 C117.372491 38.96602692 117.38170074 38.08049133 117.39118958 37.16812134 C117.34149931 30.47957924 116.27452037 25.66443814 111.8125 20.4375 C110.884375 19.633125 109.95625 18.82875 109 18 C108.43410156 17.505 107.86820312 17.01 107.28515625 16.5 C99.26752486 9.94161032 90.22604338 7.39457402 80 7 C78.92105469 6.92265625 78.92105469 6.92265625 77.8203125 6.84375 C60.51029946 6.12499513 40.97089516 10.52182863 27 21 Z " fill="#FAF9F7" transform="translate(0,0)"/>
	

	

	

	

	

	<path d="M0 0 C5.14788561 2.85993645 10.43290313 6.28222672 14 11 C14.71729245 16.02104714 13.96856976 18.91821657 11 23 C9.35303396 22.5247412 7.70745272 22.04468109 6.0625 21.5625 C5.14597656 21.29566406 4.22945312 21.02882813 3.28515625 20.75390625 C1 20 1 20 0 19 C-2.03842702 18.94902989 -4.07858058 18.96463258 -6.1171875 19.0078125 C-7.36371094 19.02457031 -8.61023438 19.04132813 -9.89453125 19.05859375 C-12.54050897 19.10273666 -15.18636718 19.15477438 -17.83203125 19.21484375 C-19.08113281 19.22902344 -20.33023438 19.24320313 -21.6171875 19.2578125 C-22.76815918 19.2798877 -23.91913086 19.30196289 -25.10498047 19.32470703 C-28 19 -28 19 -29.86254883 17.64379883 C-31.47238152 15.31733317 -31.58814629 13.36502007 -31.8125 10.5625 C-31.90144531 9.61503906 -31.99039063 8.66757813 -32.08203125 7.69140625 C-31.99399959 4.80312954 -31.70966424 3.3236613 -30 1 C-27.28415326 0.10402439 -24.84158993 -0.1116132 -21.99609375 -0.0625 C-20.88524414 -0.05089844 -20.88524414 -0.05089844 -19.75195312 -0.0390625 C-18.98818359 -0.02617188 -18.22441406 -0.01328125 -17.4375 0 C-11.41509521 0.1011319 -5.77889109 -1.60524753 0 0 Z " fill="#F45903" transform="translate(79,68)"/>
	

	

	

	

	

	

	

	

	

	

	

	

	

	

	

	

	

	

	

	

</svg>
