<?xml version="1.0" encoding="iso-8859-1"?>
<svg height="128" version="1.1" width="128" xmlns="http://www.w3.org/2000/svg">
	

	<path d="M0 0 C42.24 0 84.48 0 128 0 C128 42.24 128 84.48 128 128 C85.76 128 43.52 128 0 128 C0 85.76 0 43.52 0 0 Z " fill="#FBFBFB" transform="translate(0,0)"/>
	

	

	<path d="M0 0 C3.64710338 0.42081962 4.31644067 1.21096436 6.63671875 3.87890625 C9.53915654 6.57051321 13.16117165 8.12838498 16.64453125 9.95703125 C19.47438191 11.49711489 21.92794714 13.13301792 24.25 15.375 C24.25 16.035 24.25 16.695 24.25 17.375 C24.8275 17.66375 25.405 17.9525 26 18.25 C29.125 19.8125 29.125 19.8125 32.25 21.375 C34.07163071 17.82079608 35.61738936 14.18122717 37.15234375 10.49609375 C38.28770237 8.30214452 39.32703716 6.91830094 41.25 5.375 C44.77376672 5.375 46.0257069 6.16841425 48.625 8.5625 C50.25 11.375 50.25 11.375 50.5 14.375 C48.91312754 18.18349391 47.12681229 19.46930752 43.59375 21.47265625 C39.8053666 22.93118386 36.23952489 22.79057551 32.25 22.375 C32.930625 24.0146875 32.930625 24.0146875 33.625 25.6875 C33.88023438 26.30238281 34.13546875 26.91726562 34.3984375 27.55078125 C35.31806692 29.64033932 35.31806692 29.64033932 37.25 32.375 C37.01181502 37.2114783 35.50732436 39.96226174 32.5 43.6875 C31.82453125 44.54988281 31.1490625 45.41226563 30.453125 46.30078125 C27.93735814 48.66934898 26.6861028 49.288963 23.25 49.375 C21.08203125 48.44921875 21.08203125 48.44921875 19.0625 47.0625 C18.38832031 46.61261719 17.71414062 46.16273437 17.01953125 45.69921875 C15.25 44.375 15.25 44.375 13.25 42.375 C13.37355879 36.93841316 15.57394556 34.22203371 19.25 30.375 C21.5625 28.5 21.5625 28.5 23.25 27.375 C22.82450999 22.55277994 20.85668922 19.4569455 17.25 16.375 C8.96601152 10.69974654 8.96601152 10.69974654 -0.6875 9.125 C-5.08208618 10.07189978 -7.64629987 12.19370737 -10.75 15.375 C-12.26663393 18.40826785 -11.92097474 21.253846 -11.9375 24.625 C-11.95167969 25.92953125 -11.96585938 27.2340625 -11.98046875 28.578125 C-11.75606088 32.2751495 -11.25263936 35.00030164 -9.75 38.375 C-6.53734609 40.51676927 -4.80685895 40.73238805 -1.0625 41.3125 C5.52445677 42.8815816 8.06634646 45.8592488 11.6328125 51.453125 C13.78584733 55.34314928 15.65908405 59.22515045 17.25 63.375 C17.8378125 64.7053125 17.8378125 64.7053125 18.4375 66.0625 C21.35872191 74.37674697 21.63725342 85.21479859 18.25 93.375 C14.51575728 100.76514468 9.7513417 104.90903354 2.25 108.375 C-5.3111916 110.83994846 -14.06722557 110.17014161 -21.23828125 106.890625 C-30.09172394 101.54826767 -38.63318713 93.25785531 -41.38671875 83.00390625 C-42.98995785 71.40197172 -42.51461381 60.10798278 -35.5078125 50.4609375 C-31.9757465 46.26955251 -28.63460361 42.75824019 -23.015625 42.01171875 C-20.56107658 42.00131812 -18.18840518 42.10517648 -15.75 42.375 C-15.90855469 41.27414063 -16.06710938 40.17328125 -16.23046875 39.0390625 C-16.86214616 33.94300782 -17.0078384 28.88090183 -17.0625 23.75 C-17.09150391 22.83476563 -17.12050781 21.91953125 -17.15039062 20.9765625 C-17.20571739 15.0863899 -16.61014286 11.88806665 -12.75 7.375 C-9.99310298 4.97383163 -6.88740104 3.2404817 -3.75 1.375 C-2.75 0.375 -2.75 0.375 0 0 Z M-30.1875 52.3125 C-35.34403649 59.29250737 -37.64212815 69.02621256 -37.25390625 77.6171875 C-35.652086 86.38373866 -30.89139323 93.29109877 -24.04296875 98.8203125 C-17.01503701 103.58541784 -9.0515797 105.0264845 -0.6875 103.875 C5.97698284 102.36780157 9.35249246 98.09476081 13.125 92.6875 C17.46314367 83.77020468 15.35341394 73.80488159 12.50390625 64.75 C9.4992206 56.6626218 6.35878789 51.15319857 -1.50390625 47.21484375 C-11.02088023 43.65632305 -22.80887286 44.78405301 -30.1875 52.3125 Z " fill="#2C2C2D" transform="translate(64.75,13.625)"/>
	

	<path d="M0 0 C2.3125 2.125 2.3125 2.125 5 5 C9.09071718 7.7135769 13.38905897 10.08183479 17.65234375 12.51171875 C20 14 20 14 22.5625 16.6875 C24.9236558 19.45884029 24.9236558 19.45884029 29 19 C29.4125 17.783125 29.825 16.56625 30.25 15.3125 C31.65084618 11.62055027 33.12406918 8.79134462 36 6 C38.375 4.9375 38.375 4.9375 41 5 C44.6551814 7.00676626 46.6785875 8.51788125 49 12 C49.74536465 17.05191595 49.74536465 17.05191595 49 20 C46.22780406 23.45412649 43.18562448 25.60479184 39 27 C36.66700175 27.03954234 34.33291811 27.04401732 32 27 C33.61268692 29.71224618 35.24901874 32.37352812 37 35 C37 40.99902756 33.68722889 44.63094776 30 49 C29.195625 49.99 28.39125 50.98 27.5625 52 C25 54 25 54 21.4375 54.5 C17.81615657 53.97325914 16.68869805 53.33020498 14 51 C12.35202764 50.28837557 10.68834592 49.60968047 9 49 C10.03080872 53.05965914 10.03080872 53.05965914 12.44140625 56.33984375 C19.2751196 63.61886173 19.31811345 77.42869604 19.2109375 86.78515625 C18.59698654 96.14222361 14.26737147 102.95146809 7.5625 109.3125 C1.38031914 113.38369227 -3.54336109 114.47011359 -10.8125 114.3125 C-11.57498047 114.31572266 -12.33746094 114.31894531 -13.12304688 114.32226562 C-18.73228934 114.26771066 -18.73228934 114.26771066 -21 112 C-22.7634375 111.443125 -22.7634375 111.443125 -24.5625 110.875 C-30.08144153 108.94083884 -33.87756376 105.0174668 -38 101 C-37.67 100.01 -37.34 99.02 -37 98 C-36.39414062 98.60328125 -35.78828125 99.2065625 -35.1640625 99.828125 C-27.71943318 106.92915604 -21.44042446 111.05941943 -11 111.5 C-3.25201086 111.22079318 4.5697796 108.74051871 10 103 C16.3066304 93.44123256 17.48448648 83.56402928 15.25 72.3125 C13.4183216 65.19217271 10.2507427 58.97760692 6 53 C5.16662109 51.49566406 5.16662109 51.49566406 4.31640625 49.9609375 C1.41479862 46.25196855 -0.52550868 45.82867156 -5.0625 44.8125 C-13.01718935 42.98450738 -13.01718935 42.98450738 -15 40 C-16.94025055 33.45595967 -17.77481369 23.87511223 -14.87109375 17.53515625 C-11.88180157 13.84341944 -8.75391556 11.77614948 -4 11 C3.98267609 10.84034648 11.25761131 15.77662872 17.140625 20.84375 C19.57970815 23.44239933 20.93011216 25.02157029 21.1875 28.625 C19.32108116 32.35783768 16.44178945 34.81567295 13.25 37.4375 C11.31603711 39.85495361 11.12681403 41.95646339 11 45 C13.02040377 48.20887658 16.56371267 49.62548507 20 51 C23.55042916 50.85683753 24.74340379 50.25880064 27.2734375 47.70703125 C28.31371094 46.27423828 28.31371094 46.27423828 29.375 44.8125 C30.43847656 43.39904297 30.43847656 43.39904297 31.5234375 41.95703125 C33.30430871 38.39057752 33.12177126 36.7693641 32 33 C31.01268258 31.65724831 30.01405257 30.32267727 29 29 C29 27.68 29 26.36 29 25 C29.56847656 24.97421875 30.13695313 24.9484375 30.72265625 24.921875 C36.48656366 24.4984828 40.37696949 23.56358602 45 20 C46.49381107 17.12157781 46.49381107 17.12157781 46 14 C44 11 44 11 41 9 C38.28836222 8.58013054 38.28836222 8.58013054 36 9 C35.82984375 9.58007812 35.6596875 10.16015625 35.484375 10.7578125 C33.91902489 15.80356871 32.15315509 19.75955006 29 24 C24.70128024 23.52236447 22.96284998 20.96284998 20 18 C15.10910439 14.43020837 9.91887454 11.28475821 4.7265625 8.17578125 C3 7 3 7 1.4609375 5.37890625 C-0.03421125 3.69566072 -0.03421125 3.69566072 -3 3.625 C-6.43595924 4.0544949 -6.79618631 4.5207096 -9 7 C-9.969375 7.433125 -10.93875 7.86625 -11.9375 8.3125 C-15.71103765 10.39179626 -16.92946238 12.2411524 -19 16 C-19.54451484 19.37341488 -19.54451484 19.37341488 -19.390625 22.9296875 C-19.37773438 24.21875 -19.36484375 25.5078125 -19.3515625 26.8359375 C-19.31814906 28.18230268 -19.28428937 29.52865685 -19.25 30.875 C-19.22991356 32.24476569 -19.21166655 33.61455966 -19.1953125 34.984375 C-19.1482806 38.32363986 -19.08255864 41.66145562 -19 45 C-19.66386719 45.03230713 -20.32773437 45.06461426 -21.01171875 45.09790039 C-26.29650465 45.46773897 -29.89426637 45.80724655 -34 49.4375 C-35.0828125 50.36369141 -35.0828125 50.36369141 -36.1875 51.30859375 C-37.48076947 52.51545944 -38.74918612 53.74918612 -40 55 C-39.88951334 51.24345361 -38.6954829 49.32804939 -36.0625 46.8125 C-32.32161479 43.77934983 -28.74295898 42.98503804 -24.0390625 42.32421875 C-22.01054654 42.20631199 -22.01054654 42.20631199 -21 41 C-21.4640625 39.2984375 -21.4640625 39.2984375 -21.9375 37.5625 C-24.30179639 28.42919067 -23.33677519 18.8001571 -20 10 C-17.98677199 7.37161899 -15.78573577 5.74779567 -13 4 C-12.01 3.21625 -11.02 2.4325 -10 1.625 C-6.27308486 -0.3937457 -4.17966523 -0.68394522 0 0 Z " fill="#B0B0B0" transform="translate(68,11)"/>
	

	<path d="M0 0 C2.1640625 1.453125 2.1640625 1.453125 4 3 C5.093125 3.433125 6.18625 3.86625 7.3125 4.3125 C11.57864281 6.03003801 14.67979492 8.88163109 18 12 C17.58286812 16.8665386 15.54534674 18.79230533 12 22 C11.46375 22.5775 10.9275 23.155 10.375 23.75 C9 25 9 25 6 26 C4.30117552 28.49759982 4.30117552 28.49759982 3 31 C0.39225124 30.40883026 -2.2104334 29.802778 -4.8125 29.1875 C-5.55048828 29.02185547 -6.28847656 28.85621094 -7.04882812 28.68554688 C-13.94591428 27.03149454 -13.94591428 27.03149454 -16 24 C-18.02231364 17.93305907 -18.15694679 9.86082244 -16.3046875 3.6796875 C-12.7922041 -1.70612038 -5.59921726 -0.99353374 0 0 Z " fill="#FBFBFB" transform="translate(71,25)"/>
	

	<path d="M0 0 C3.4529266 1.34748355 4.71482305 2.80209758 6.5625 6 C6.8125 9 6.8125 9 5.5625 12 C1.71224403 15.71413581 -2.10237373 17.30405834 -7.4375 17.3125 C-8.77256492 17.2335688 -10.10730117 17.13856238 -11.4375 17 C-10.756875 18.6396875 -10.756875 18.6396875 -10.0625 20.3125 C-9.80726562 20.92738281 -9.55203125 21.54226562 -9.2890625 22.17578125 C-8.36943308 24.26533932 -8.36943308 24.26533932 -6.4375 27 C-6.67568498 31.8364783 -8.18017564 34.58726174 -11.1875 38.3125 C-11.86296875 39.17488281 -12.5384375 40.03726563 -13.234375 40.92578125 C-15.75014186 43.29434898 -17.0013972 43.913963 -20.4375 44 C-22.60546875 43.07421875 -22.60546875 43.07421875 -24.625 41.6875 C-25.29917969 41.23761719 -25.97335938 40.78773437 -26.66796875 40.32421875 C-28.4375 39 -28.4375 39 -30.4375 37 C-30.31394121 31.56341316 -28.11355444 28.84703371 -24.4375 25 C-22.125 23.125 -22.125 23.125 -20.4375 22 C-20.85666097 17.24950902 -22.92833624 14.09825465 -26.4375 11 C-28.7451383 9.65686683 -31.09997116 8.45030545 -33.4765625 7.234375 C-35.4375 6 -35.4375 6 -37 3.1875 C-37.144375 2.465625 -37.28875 1.74375 -37.4375 1 C-30.46247447 2.6294117 -24.58605626 4.8370623 -19.4375 10 C-19.4375 10.66 -19.4375 11.32 -19.4375 12 C-18.86 12.28875 -18.2825 12.5775 -17.6875 12.875 C-15.60416667 13.91666667 -13.52083333 14.95833333 -11.4375 16 C-9.61586929 12.44579608 -8.07011064 8.80622717 -6.53515625 5.12109375 C-4.88453814 1.93146516 -3.72951441 0 0 0 Z " fill="#252526" transform="translate(108.4375,19)"/>
	

	

	<path d="M0 0 C7.91019072 6.83152835 10.95858089 18.40171831 12.1015625 28.47265625 C12.36956303 37.32885567 9.52988673 43.26191268 3.56640625 49.7109375 C1.05599373 52.01079929 -0.90281804 52.77250725 -4.25 53.375 C-4.91773438 53.51679687 -5.58546875 53.65859375 -6.2734375 53.8046875 C-13.27326337 55.00816633 -19.37957944 53.67559963 -25.484375 50.046875 C-32.55401293 44.99713362 -37.76766156 38.77778199 -40.25 30.375 C-41.6119632 21.33651695 -39.36723044 12.11832167 -35.03515625 4.13671875 C-26.38800458 -7.56826627 -11.46735343 -5.73367671 0 0 Z M-32.8125 4.5625 C-35.36252531 7.94787843 -36.26213636 11.31103468 -36.92578125 15.45703125 C-37.25 17.375 -37.25 17.375 -38.25 19.375 C-38.8358207 26.16826699 -38.39825527 31.33034988 -35.25 37.375 C-34.92 38.365 -34.59 39.355 -34.25 40.375 C-32.61739286 41.74982707 -30.94774938 43.08147667 -29.25 44.375 C-28.755 44.890625 -28.26 45.40625 -27.75 45.9375 C-22.52936351 50.94060997 -17.2682045 51.53591947 -10.3125 51.625 C-9.10722656 51.65078125 -7.90195312 51.6765625 -6.66015625 51.703125 C-0.67847763 51.12756829 2.91111578 47.82002383 6.75 43.375 C10.11423299 37.57459829 10.50378958 32.01226414 9.75 25.375 C9.12084458 23.6938142 8.45456762 22.02600173 7.75 20.375 C7.3603619 18.84191413 7.00437559 17.29976127 6.6875 15.75 C6.16003732 13.1955113 5.57788708 10.85866124 4.75 8.375 C4.09 8.375 3.43 8.375 2.75 8.375 C2.62625 7.59125 2.5025 6.8075 2.375 6 C1.95882007 3.23442178 1.95882007 3.23442178 -0.25 1.375 C-2.24117408 0.68241771 -4.2421136 0.01752365 -6.25 -0.625 C-6.86875 -0.99625 -7.4875 -1.3675 -8.125 -1.75 C-16.12474531 -5.04401277 -27.0375746 -1.50893747 -32.8125 4.5625 Z " fill="#ADADAD" transform="translate(68.25,63.625)"/>
	

	<path d="M0 0 C3.4529266 1.34748355 4.71482305 2.80209758 6.5625 6 C6.8125 9 6.8125 9 5.5625 12 C1.71224403 15.71413581 -2.10237373 17.30405834 -7.4375 17.3125 C-8.77256492 17.2335688 -10.10730117 17.13856238 -11.4375 17 C-10.9425 18.093125 -10.4475 19.18625 -9.9375 20.3125 C-8.4375 24 -8.4375 24 -8.4375 27 C-11.34661638 23.46750154 -13.91893279 19.81847287 -16.4375 16 C-17.42616506 14.65824027 -18.4213154 13.32103998 -19.4375 12 C-16.77083333 13.33333333 -14.10416667 14.66666667 -11.4375 16 C-9.61586929 12.44579608 -8.07011064 8.80622717 -6.53515625 5.12109375 C-4.88453814 1.93146516 -3.72951441 0 0 0 Z " fill="#545454" transform="translate(108.4375,19)"/>
	

	

	

	<path d="M0 0 C0.33 0 0.66 0 1 0 C1.33 8.25 1.66 16.5 2 25 C-2.95 25.495 -2.95 25.495 -8 26 C-10.88228502 27.42286633 -10.88228502 27.42286633 -13 29.4375 C-13.721875 30.05496094 -14.44375 30.67242187 -15.1875 31.30859375 C-16.48076947 32.51545944 -17.74918612 33.74918612 -19 35 C-18.88951334 31.24345361 -17.6954829 29.32804939 -15.0625 26.8125 C-11.32161479 23.77934983 -7.74295898 22.98503804 -3.0390625 22.32421875 C-1.01054654 22.20631199 -1.01054654 22.20631199 0 21 C-0.4640625 19.2984375 -0.4640625 19.2984375 -0.9375 17.5625 C-2.21207049 12.75901667 -2.59726814 7.94502886 -2 3 C-1.34 2.01 -0.68 1.02 0 0 Z " fill="#676767" transform="translate(47,31)"/>
	

	<path d="M0 0 C-0.28875 0.639375 -0.5775 1.27875 -0.875 1.9375 C-4.63783689 12.18077819 -6.2932469 24.69620744 -2 35 C-0.76537961 37.10639433 0.55444296 39.02440537 2 41 C1.67 41.66 1.34 42.32 1 43 C-5.15654584 38.21157546 -7.19251812 31.25760422 -8.3515625 23.7109375 C-8.63570687 16.81397877 -7.78319927 6.59833151 -3.51953125 1.0859375 C-2 0 -2 0 0 0 Z " fill="#AFAFAF" transform="translate(28,66)"/>
	

	

	<path d="M0 0 C1.43735246 2.87470493 1.38172649 4.81894588 1 8 C-1.1875 10.4375 -1.1875 10.4375 -4 12 C-6.6875 11.9375 -6.6875 11.9375 -9 11 C-9.66 10.01 -10.32 9.02 -11 8 C-8.90751135 2.67366525 -5.73537573 0 0 0 Z " fill="#EFEFEF" transform="translate(95,45)"/>
	

	

	<path d="M0 0 C0.99 0.33 1.98 0.66 3 1 C-0.75 7.875 -0.75 7.875 -3 9 C-5.6723621 9.13415472 -8.32250488 9.04318541 -11 9 C-11 6 -11 6 -9.75 4.25 C-9.1725 3.8375 -8.595 3.425 -8 3 C-7.360625 3.185625 -6.72125 3.37125 -6.0625 3.5625 C-5.381875 3.706875 -4.70125 3.85125 -4 4 C-1.72855926 2.14567913 -1.72855926 2.14567913 0 0 Z " fill="#1C1C1D" transform="translate(111,26)"/>
	

	<path d="M0 0 C-0.33 0.99 -0.66 1.98 -1 3 C-1.64066406 3.07476562 -2.28132813 3.14953125 -2.94140625 3.2265625 C-9.59973005 4.2387071 -13.36391785 6.15318684 -18 11 C-18.66 11.66 -19.32 12.32 -20 13 C-19.88951334 9.24345361 -18.6954829 7.32804939 -16.0625 4.8125 C-11.42653783 1.07102845 -5.88302884 0 0 0 Z " fill="#AEAEAE" transform="translate(48,53)"/>
	

	

	

	

	

	

	

	

	

	

	

	

	

	

</svg>
