<?xml version="1.0" encoding="iso-8859-1"?>
<svg height="128" version="1.1" width="128" xmlns="http://www.w3.org/2000/svg">
	

	<path d="M0 0 C42.24 0 84.48 0 128 0 C128 42.24 128 84.48 128 128 C85.76 128 43.52 128 0 128 C0 85.76 0 43.52 0 0 Z " fill="#FEFEFD" transform="translate(0,0)"/>
	

	<path d="M0 0 C3.37991574 0.3557806 6.04288438 1.35715799 9 3 C8.34 5.31 7.68 7.62 7 10 C7.99 10 8.98 10 10 10 C10.061875 10.7425 10.12375 11.485 10.1875 12.25 C11.26106088 15.88359068 12.99714377 16.74785783 16 19 C17.76333636 20.93536917 19.36854927 22.94903337 21 25 C22.2182074 20.96799835 23.10543327 17.22787425 23 13 C20.44704387 9.24639618 17.01734403 7.00867202 13 5 C13 4.01 13 3.02 13 2 C21.83799881 1.05978736 30.17107293 1.02230002 39 2 C39.6919043 2.07653809 40.38380859 2.15307617 41.09667969 2.23193359 C43.29473087 2.47934802 45.49129602 2.73671167 47.6875 3 C48.38335205 3.08290283 49.0792041 3.16580566 49.79614258 3.2512207 C54.75862584 3.87931292 54.75862584 3.87931292 57 5 C56.75 7.875 56.75 7.875 56 11 C53.9375 12.375 53.9375 12.375 52 13 C52.66 15.31 53.32 17.62 54 20 C54.845625 20.103125 55.69125 20.20625 56.5625 20.3125 C60.36572147 21.07314429 63.46356184 22.41470014 67 24 C68.31144069 24.44066518 69.62397543 24.87808581 70.9375 25.3125 C75.41443084 26.98587337 79.84266292 29.35562688 83 33 C83.3125 35.58203125 83.3125 35.58203125 83 38 C81.5 39.8125 81.5 39.8125 80 41 C80.495 41.37125 80.99 41.7425 81.5 42.125 C83 44 83 44 83.5 46.625 C82.79346921 51.3940828 80.52156037 54.94749225 78 59 C77.34 59 76.68 59 76 59 C75.5978125 60.0828125 75.5978125 60.0828125 75.1875 61.1875 C74.00524866 63.98756896 72.58049288 66.40799167 71 69 C68.69086632 73.24880598 67.27835012 77.34315315 66 82 C63.50125634 84.49874366 56.73095756 83.18554203 53.375 83.1875 C51.75271484 83.20586914 51.75271484 83.20586914 50.09765625 83.22460938 C44.33317704 83.23516703 39.43470079 82.96988438 34 81 C34 80.01 34 79.02 34 78 C32.47076904 78.00785522 32.47076904 78.00785522 30.91064453 78.01586914 C27.13493729 78.03394376 23.35923388 78.04544105 19.58349609 78.05493164 C17.94807289 78.05996621 16.3126542 78.06679427 14.67724609 78.07543945 C12.32909025 78.08754335 9.98099381 78.093237 7.6328125 78.09765625 C6.53273361 78.10539818 6.53273361 78.10539818 5.41043091 78.11329651 C0.22774341 78.11387171 0.22774341 78.11387171 -2 77 C-1.875 75.125 -1.875 75.125 -1 73 C-0.030625 72.690625 0.93875 72.38125 1.9375 72.0625 C2.948125 71.711875 3.95875 71.36125 5 71 C5.28746094 70.26007813 5.57492188 69.52015625 5.87109375 68.7578125 C7.31064083 65.24113347 9.36962475 63.40694878 12.125 60.8125 C13.78481059 59.24437867 15.4192709 57.64780801 17 56 C17 55.34 17 54.68 17 54 C15.741875 54.061875 14.48375 54.12375 13.1875 54.1875 C10.37934854 54.32560581 9.40974822 54.35160213 7.23828125 52.48828125 C6.82964844 51.99714844 6.42101563 51.50601563 6 51 C7.88842514 50.12957757 9.78611902 49.27924526 11.6875 48.4375 C12.74324219 47.96183594 13.79898438 47.48617187 14.88671875 46.99609375 C18.16633893 45.94677989 19.75895539 45.99581735 23 47 C21.32991107 41.47585969 19.48132549 37.48132549 15.375 33.375 C13 31 13 31 12 28 C11.34 28 10.68 28 10 28 C9.5875 26.96875 9.175 25.9375 8.75 24.875 C6.66254821 20.02068994 4.46599895 15.97733263 0 13 C0 12.34 0 11.68 0 11 C-0.66 11 -1.32 11 -2 11 C-2.05399736 9.54207116 -2.09279177 8.08357288 -2.125 6.625 C-2.15980469 5.40683594 -2.15980469 5.40683594 -2.1953125 4.1640625 C-2 2 -2 2 0 0 Z " fill="#EAEA9C" transform="translate(26,22)"/>
	

	<path d="M0 0 C0.1875 2.875 0.1875 2.875 0 6 C-0.99 6.66 -1.98 7.32 -3 8 C-3.73343428 11.06556598 -3.73343428 11.06556598 -4 14 C-3.505 13.690625 -3.01 13.38125 -2.5 13.0625 C0.97986781 11.58355618 4.24028509 11.37597149 8 11 C8 11.66 8 12.32 8 13 C8.721875 12.855625 9.44375 12.71125 10.1875 12.5625 C12.0625 12.1875 13.9375 11.8125 15.8125 11.4375 C16.534375 11.293125 17.25625 11.14875 18 11 C19 14 19 14 18.0625 17 C15.85915578 24.13823163 16.31042935 30.97968429 19.25390625 37.75390625 C20.8554444 42.57529075 21.31808639 47.94519235 21 53 C20.015625 54.8671875 20.015625 54.8671875 18 56 C15.2024405 56.27502435 12.66571292 56.37729566 9.875 56.3125 C8.73236694 56.29993164 8.73236694 56.29993164 7.56665039 56.28710938 C2.14842838 56.17154529 -2.77914172 55.51879514 -8 54 C-8 53.34 -8 52.68 -8 52 C-9.52923096 52.00785522 -9.52923096 52.00785522 -11.08935547 52.01586914 C-14.86506271 52.03394376 -18.64076612 52.04544105 -22.41650391 52.05493164 C-24.05192711 52.05996621 -25.6873458 52.06679427 -27.32275391 52.07543945 C-29.67090975 52.08754335 -32.01900619 52.093237 -34.3671875 52.09765625 C-35.46726639 52.10539818 -35.46726639 52.10539818 -36.58956909 52.11329651 C-41.77225659 52.11387171 -41.77225659 52.11387171 -44 51 C-43.875 49.125 -43.875 49.125 -43 47 C-42.030625 46.690625 -41.06125 46.38125 -40.0625 46.0625 C-39.051875 45.711875 -38.04125 45.36125 -37 45 C-36.70738281 44.2575 -36.41476563 43.515 -36.11328125 42.75 C-34.72023269 39.30892565 -32.79446047 37.50002362 -30.125 34.9375 C-29.26132812 34.10089844 -28.39765625 33.26429687 -27.5078125 32.40234375 C-26.68023437 31.60957031 -25.85265625 30.81679687 -25 30 C-24.28070313 29.24976562 -23.56140625 28.49953125 -22.8203125 27.7265625 C-21 26 -21 26 -18.75 25.4375 C-14.58863126 26.28868906 -11.45365497 28.60043824 -8 31 C-10.31779067 27.19220105 -11.84255748 24.72032104 -16 23 C-17.4783226 20.04335481 -17.06032783 17.25770263 -17 14 C-15.783125 13.505 -14.56625 13.01 -13.3125 12.5 C-9.051876 10.40732602 -7.27222522 7.95046702 -5.10546875 3.8046875 C-3.90747175 1.84894682 -2.55958896 0 0 0 Z " fill="#A4BA3B" transform="translate(68,48)"/>
	

	<path d="M0 0 C5.625 -0.25 5.625 -0.25 9 2 C12.19806665 2.4603764 12.19806665 2.4603764 15.6875 2.625 C17.45673828 2.73714844 17.45673828 2.73714844 19.26171875 2.8515625 C20.61716797 2.92503906 20.61716797 2.92503906 22 3 C22 3.33 22 3.66 22 4 C19.69 4 17.38 4 15 4 C15 4.99 15 5.98 15 7 C15.70125 7.20625 16.4025 7.4125 17.125 7.625 C20.98122157 9.46927988 24.08663722 11.0350467 26 15 C25.90949982 19.47709698 25.06864992 23.66102382 24 28 C20.11454239 24.83741823 16.49811114 21.59805717 13 18 C12.67 17.67 12.34 17.34 12 17 C11.95936168 15.33382885 11.957279 13.66611905 12 12 C11.01 12 10.02 12 9 12 C9.33 9.69 9.66 7.38 10 5 C6.19495213 3.20317184 5.29399165 2.92650209 1 4 C0.67 6.97 0.34 9.94 0 13 C0.66 13 1.32 13 2 13 C7.46065437 17.88584865 11.2914045 22.55974721 12 30 C12.66 30 13.32 30 14 30 C17.85668708 33.33551315 20.38774008 36.95657507 22.984375 41.328125 C23.89183482 42.97090689 23.89183482 42.97090689 25 44 C25.04063832 45.66617115 25.042721 47.33388095 25 49 C24.030625 49.0825 23.06125 49.165 22.0625 49.25 C17.32880899 49.8999125 13.26015593 51.92305323 9 54 C12.40562852 54.77842938 15.50765756 55.09978121 19 55 C19 59 19 59 16.8828125 61.4375 C15.51769531 62.7059375 15.51769531 62.7059375 14.125 64 C11.00574217 66.91486202 8.85754314 69.19328603 7 73 C5.00819591 74.01622658 3.00847365 75.01712992 1 76 C0.67 76.99 0.34 77.98 0 79 C11.88 79.33 23.76 79.66 36 80 C36 80.33 36 80.66 36 81 C30.90967159 81.02468084 25.81937785 81.04285082 20.72900391 81.05493164 C18.99657586 81.05996682 17.26415208 81.06679532 15.53173828 81.07543945 C13.04458567 81.08754065 10.55748913 81.09323638 8.0703125 81.09765625 C7.29317902 81.10281754 6.51604553 81.10797882 5.71536255 81.11329651 C0.22774341 81.11387171 0.22774341 81.11387171 -2 80 C-1.76337646 78.92322998 -1.76337646 78.92322998 -1.52197266 77.82470703 C-0.66853549 73.20624677 -0.58160307 68.5600285 -0.375 63.875 C-0.3234375 62.87339844 -0.271875 61.87179688 -0.21875 60.83984375 C-0.17492187 59.87949219 -0.13109375 58.91914062 -0.0859375 57.9296875 C-0.0451709 57.05554199 -0.0044043 56.18139648 0.03759766 55.28076172 C0.11153601 52.83369441 0.11153601 52.83369441 -1 50 C-1.0723951 47.60517008 -1.08378575 45.20832936 -1.0625 42.8125 C-1.05871338 42.11358643 -1.05492676 41.41467285 -1.05102539 40.69458008 C-1.03468403 37.7074469 -1.00651851 34.72045094 -0.97949219 31.73339844 C-0.96142803 29.5514387 -0.94932179 27.36950103 -0.9375 25.1875 C-0.92589844 23.88167969 -0.91429688 22.57585938 -0.90234375 21.23046875 C-0.84558677 17.98420967 -0.84558677 17.98420967 -2 15 C-2.11880354 13.1903182 -2.1751965 11.37603553 -2.1875 9.5625 C-2.20167969 8.61503906 -2.21585938 7.66757812 -2.23046875 6.69140625 C-1.99614518 3.95498356 -1.39701383 2.33571877 0 0 Z " fill="#EEF1CA" transform="translate(24,20)"/>
	

	<path d="M0 0 C3.37991574 0.3557806 6.04288438 1.35715799 9 3 C8.34 5.31 7.68 7.62 7 10 C7.99 10 8.98 10 10 10 C10.061875 10.7425 10.12375 11.485 10.1875 12.25 C10.76778674 15.18751321 10.76778674 15.18751321 13.375 16.875 C16.65564089 19.53075691 17.45074865 22.12687164 19 26 C20.58245275 27.75149165 20.58245275 27.75149165 22 29 C22 29.66 22 30.32 22 31 C22.99 31 23.98 31 25 31 C25 28.36 25 25.72 25 23 C29.73914909 19.85644382 34.84181743 21.23915676 40.1484375 22.09765625 C46.67909087 23.62765719 52.57954738 26.8661199 57 32 C57 32.66 57 33.32 57 34 C58.91466367 33.87822312 58.91466367 33.87822312 61 33 C62.77148372 30.52066803 62.77148372 30.52066803 64 28 C69.6143991 29.56448671 74.86810338 31.16395187 80 34 C80 34.99 80 35.98 80 37 C76.53426264 38.73286868 72.33832613 38.32795825 68.49804688 38.4296875 C64.46487514 38.6028684 64.46487514 38.6028684 61.02734375 40.5390625 C60.68832031 41.02117188 60.34929687 41.50328125 60 42 C60 40.68 60 39.36 60 38 C59.278125 38.144375 58.55625 38.28875 57.8125 38.4375 C55.20833333 38.95833333 52.60416667 39.47916667 50 40 C49.67 39.34 49.34 38.68 49 38 C43.98464948 38.32960216 43.98464948 38.32960216 40 41 C39.01 40.67 38.02 40.34 37 40 C37.8125 36.5625 37.8125 36.5625 39 33 C39.99 32.67 40.98 32.34 42 32 C41.505 29.525 41.505 29.525 41 27 C38.24211176 29.60467222 36.0411291 31.93233599 34.0625 35.1875 C31.63002836 38.50450678 29.94216717 39.10405292 26 40 C26 42.97 26 45.94 26 49 C26.7425 49.226875 27.485 49.45375 28.25 49.6875 C31.51139591 51.24407532 32.92894975 53.08518854 35 56 C34.505 56.99 34.505 56.99 34 58 C33.48050781 57.6390625 32.96101563 57.278125 32.42578125 56.90625 C28.10479002 54.0040653 28.10479002 54.0040653 23.1875 52.5 C20.60907088 53.08935523 19.62396239 53.94867908 18 56 C17.67 55.34 17.34 54.68 17 54 C15.741875 54.061875 14.48375 54.12375 13.1875 54.1875 C10.37934854 54.32560581 9.40974822 54.35160213 7.23828125 52.48828125 C6.82964844 51.99714844 6.42101563 51.50601563 6 51 C7.88842514 50.12957757 9.78611902 49.27924526 11.6875 48.4375 C12.74324219 47.96183594 13.79898438 47.48617187 14.88671875 46.99609375 C18.16633893 45.94677989 19.75895539 45.99581735 23 47 C21.32991107 41.47585969 19.48132549 37.48132549 15.375 33.375 C13 31 13 31 12 28 C11.34 28 10.68 28 10 28 C9.5875 26.96875 9.175 25.9375 8.75 24.875 C6.66254821 20.02068994 4.46599895 15.97733263 0 13 C0 12.34 0 11.68 0 11 C-0.66 11 -1.32 11 -2 11 C-2.05399736 9.54207116 -2.09279177 8.08357288 -2.125 6.625 C-2.15980469 5.40683594 -2.15980469 5.40683594 -2.1953125 4.1640625 C-2 2 -2 2 0 0 Z " fill="#EAE05D" transform="translate(26,22)"/>
	

	<path d="M0 0 C3.28623941 1.0968698 4.31901411 2.00282662 6.375 4.73046875 C8.56736953 7.45286168 10.48998452 9.53868036 13.4375 11.41796875 C17.94124187 14.37961306 20.83203702 18.64792313 23.9375 22.98046875 C21.04170758 23.81759058 18.54490846 24.08184133 15.53613281 24.00219727 C14.6755426 23.98210098 13.81495239 23.9620047 12.92828369 23.94129944 C12.00835632 23.91426437 11.08842896 23.88722931 10.140625 23.859375 C9.19185486 23.83576401 8.24308472 23.81215302 7.26556396 23.78782654 C4.23938479 23.71133881 1.21347116 23.62725028 -1.8125 23.54296875 C-3.86587248 23.48973317 -5.91925787 23.43699287 -7.97265625 23.38476562 C-13.00277188 23.25574377 -18.03266273 23.1199054 -23.0625 22.98046875 C-23.0625 21.66046875 -23.0625 20.34046875 -23.0625 18.98046875 C-22.46824219 18.72394531 -21.87398437 18.46742187 -21.26171875 18.203125 C-18.85187747 16.8633731 -17.61378012 15.54314445 -15.875 13.41796875 C-13.1262852 10.20916864 -10.37462813 7.01521118 -7.5 3.91796875 C-6.79746094 3.14324219 -6.09492187 2.36851563 -5.37109375 1.5703125 C-3.0625 -0.01953125 -3.0625 -0.01953125 0 0 Z " fill="#205850" transform="translate(51.0625,76.01953125)"/>
	

	

	<path d="M0 0 C2 2 2 2 2 6 C2.79664062 5.44119141 2.79664062 5.44119141 3.609375 4.87109375 C4.31578125 4.39800781 5.0221875 3.92492187 5.75 3.4375 C6.44609375 2.96183594 7.1421875 2.48617187 7.859375 1.99609375 C10 1 10 1 12.265625 1.34765625 C12.83796875 1.56292969 13.4103125 1.77820312 14 2 C13.4740625 3.4540625 13.4740625 3.4540625 12.9375 4.9375 C10.66614574 13.24933985 13.80759815 21.25186566 16.35961914 29.14794922 C18.10447144 34.68658567 18.10447144 34.68658567 17 38 C13.82613059 36.59957012 11.71139186 34.94785382 9.28515625 32.48046875 C8.59873047 31.78759766 7.91230469 31.09472656 7.20507812 30.38085938 C6.49802734 29.65705078 5.79097656 28.93324219 5.0625 28.1875 C4.00772461 27.11918945 4.00772461 27.11918945 2.93164062 26.02929688 C1.56626227 24.64600353 0.20430924 23.2593189 -1.15380859 21.86889648 C-2.73283058 20.27045516 -4.34461321 18.71970318 -5.97265625 17.171875 C-8 15 -8 15 -8.5 12.0625 C-7.91187601 8.46024054 -6.97954145 6.07170226 -5 3 C-2.3125 1.125 -2.3125 1.125 0 0 Z " fill="#5D9C17" transform="translate(70,62)"/>
	

	<path d="M0 0 C0.99 0.66 1.98 1.32 3 2 C3.6602561 6.8104373 2.55044151 9.42553872 -0.125 13.375 C-0.76050781 14.32890625 -1.39601563 15.2828125 -2.05078125 16.265625 C-3.733464 18.6261018 -5.48901008 20.87377788 -7.3125 23.125 C-10.40421104 27.09887925 -11.33806232 31.06970556 -12 36 C-12.99 36 -13.98 36 -15 36 C-15.03738281 35.154375 -15.07476562 34.30875 -15.11328125 33.4375 C-15.48923401 25.82899536 -15.48923401 25.82899536 -17.5625 18.5625 C-18.98439107 15.038683 -19.28108544 12.74780591 -19 9 C-18.34 9 -17.68 9 -17 9 C-16.773125 8.0925 -16.54625 7.185 -16.3125 6.25 C-13.08239597 -1.74835283 -7.59446875 -1.82782129 0 0 Z " fill="#EFD31B" transform="translate(103,65)"/>
	

	<path d="M0 0 C31.61137441 1.3056872 31.61137441 1.3056872 37 4 C36.75 6.875 36.75 6.875 36 10 C33.9375 11.375 33.9375 11.375 32 12 C32.66 14.31 33.32 16.62 34 19 C34.845625 19.103125 35.69125 19.20625 36.5625 19.3125 C40.36572147 20.07314429 43.46356184 21.41470014 47 23 C48.35281085 23.46231982 49.70701215 23.92058884 51.0625 24.375 C55.14560612 25.86338371 57.82389639 28.06210416 61 31 C58 31 58 31 55.5 29.125 C51.20585056 26.05152248 46.11877148 25.69221821 41 25 C41 26.98 41 28.96 41 31 C40.01 31 39.02 31 38 31 C37.79375 30.4225 37.5875 29.845 37.375 29.25 C35.48948804 26.1646168 33.04945808 24.89066401 30 23 C29.38125 22.443125 28.7625 21.88625 28.125 21.3125 C25.85487914 19.68699512 25.85487914 19.68699512 22.0625 19.6875 C19.50787452 19.47739996 18.34022366 19.29045473 16.37109375 17.609375 C15 15.9375 15 15.9375 13 13 C13.33 12.34 13.66 11.68 14 11 C15.134375 11.0825 16.26875 11.165 17.4375 11.25 C22.56486617 11.28668956 26.52078524 9.3225558 31 7 C24.38404797 5.17107095 17.8067579 4.20987143 11 3.375 C9.93910156 3.2409375 8.87820312 3.106875 7.78515625 2.96875 C5.1906138 2.64151041 2.59560256 2.31870218 0 2 C0 1.34 0 0.68 0 0 Z " fill="#EFF2CE" transform="translate(46,23)"/>
	

	

	<path d="M0 0 C0.1875 2.875 0.1875 2.875 0 6 C-0.99 6.66 -1.98 7.32 -3 8 C-3.73343428 11.06556598 -3.73343428 11.06556598 -4 14 C-3.505 13.690625 -3.01 13.38125 -2.5 13.0625 C0.97986781 11.58355618 4.24028509 11.37597149 8 11 C7.34 12.65 6.68 14.3 6 16 C7.32 16.33 8.64 16.66 10 17 C6.25 20 6.25 20 4 20 C3.34 18.35 2.68 16.7 2 15 C-0.49004504 15.56076801 -0.49004504 15.56076801 -3 17 C-4.89305643 20.96640396 -5.64877448 24.64394277 -5 29 C-2.81331378 31.60416349 -2.81331378 31.60416349 0 34 C1.7216385 35.95894543 3.35321984 37.97681295 5 40 C-0.87086465 37.21493503 -6.0827766 33.68839012 -9.75 28.25 C-11.86775162 25.19102543 -12.69479183 24.29847464 -16 23 C-17.4783226 20.04335481 -17.06032783 17.25770263 -17 14 C-15.783125 13.505 -14.56625 13.01 -13.3125 12.5 C-9.051876 10.40732602 -7.27222522 7.95046702 -5.10546875 3.8046875 C-3.90747175 1.84894682 -2.55958896 0 0 0 Z " fill="#A4BA34" transform="translate(68,48)"/>
	

	

	<path d="M0 0 C4.19745751 1.80022248 6.37138814 4.47525119 9.25390625 7.921875 C10.30622695 9.17430142 11.38970171 10.40265855 12.52734375 11.578125 C16.3393063 15.60002172 16.72419123 18.66769711 17 24 C17.7425 24.226875 18.485 24.45375 19.25 24.6875 C22.51139591 26.24407532 23.92894975 28.08518854 26 31 C25.67 31.66 25.34 32.32 25 33 C24.48050781 32.6390625 23.96101563 32.278125 23.42578125 31.90625 C19.10479002 29.0040653 19.10479002 29.0040653 14.1875 27.5 C11.60907088 28.08935523 10.62396239 28.94867908 9 31 C8.67 30.34 8.34 29.68 8 29 C6.741875 29.061875 5.48375 29.12375 4.1875 29.1875 C1.37934854 29.32560581 0.40974822 29.35160213 -1.76171875 27.48828125 C-2.17035156 26.99714844 -2.57898437 26.50601563 -3 26 C-1.11157486 25.12957757 0.78611902 24.27924526 2.6875 23.4375 C3.74324219 22.96183594 4.79898438 22.48617187 5.88671875 21.99609375 C9.16633893 20.94677989 10.75895539 20.99581735 14 22 C12.32991107 16.47585969 10.48132549 12.48132549 6.375 8.375 C4 6 4 6 3 3 C2.34 3 1.68 3 1 3 C0.67 2.01 0.34 1.02 0 0 Z " fill="#EBE892" transform="translate(35,47)"/>
	

	<path d="M0 0 C0.66 0 1.32 0 2 0 C2.36923077 4.55384615 2.36923077 4.55384615 0.5 6.8125 C0.005 7.204375 -0.49 7.59625 -1 8 C-0.505 8.37125 -0.01 8.7425 0.5 9.125 C2 11 2 11 2.5 13.625 C1.79346921 18.3940828 -0.47843963 21.94749225 -3 26 C-3.66 26 -4.32 26 -5 26 C-5.268125 26.721875 -5.53625 27.44375 -5.8125 28.1875 C-6.99475134 30.98756896 -8.41950712 33.40799167 -10 36 C-12.30913368 40.24880598 -13.72164988 44.34315315 -15 49 C-17.49874366 51.49874366 -24.26904244 50.18554203 -27.625 50.1875 C-29.24728516 50.20586914 -29.24728516 50.20586914 -30.90234375 50.22460938 C-36.66682296 50.23516703 -41.56529921 49.96988438 -47 48 C-47 47.67 -47 47.34 -47 47 C-45.865625 47.165 -44.73125 47.33 -43.5625 47.5 C-38.77023513 48.02822089 -34.00392574 48.14650478 -29.1875 48.1875 C-28.44636963 48.20039062 -27.70523926 48.21328125 -26.94165039 48.2265625 C-21.58777465 48.34053006 -21.58777465 48.34053006 -17 46 C-16.1531681 43.69953072 -16.1531681 43.69953072 -15.75 41 C-14.37618298 35.20112597 -11.80256967 31.75604718 -7.94140625 27.3046875 C-5.47818936 24.38054673 -3.76371285 21.38044963 -2 18 C-1.34 18 -0.68 18 0 18 C-0.495 14.535 -0.495 14.535 -1 11 C-4.3 10.01 -7.6 9.02 -11 8 C-10.67 7.34 -10.34 6.68 -10 6 C-7.71484375 5.3671875 -7.71484375 5.3671875 -4.9375 4.875 C-4.01839844 4.70742188 -3.09929687 4.53984375 -2.15234375 4.3671875 C-1.44207031 4.24601562 -0.73179688 4.12484375 0 4 C0 2.68 0 1.36 0 0 Z " fill="#EDEFBC" transform="translate(107,55)"/>
	

	<path d="M0 0 C0.33 0 0.66 0 1 0 C2.56344612 8.59895368 2.56344612 17.40104632 1 26 C2.32 26.33 3.64 26.66 5 27 C4.030625 27.433125 3.06125 27.86625 2.0625 28.3125 C-1.27731765 29.7014861 -1.27731765 29.7014861 -2 33 C9.88 33.33 21.76 33.66 34 34 C34 34.33 34 34.66 34 35 C28.90967159 35.02468084 23.81937785 35.04285082 18.72900391 35.05493164 C16.99657586 35.05996682 15.26415208 35.06679532 13.53173828 35.07543945 C11.04458567 35.08754065 8.55748913 35.09323638 6.0703125 35.09765625 C5.29317902 35.10281754 4.51604553 35.10797882 3.71536255 35.11329651 C-1.77225659 35.11387171 -1.77225659 35.11387171 -4 34 C-3.76011353 32.95815552 -3.76011353 32.95815552 -3.51538086 31.89526367 C-2.96120388 28.78205437 -2.823153 25.8366505 -2.75390625 22.67578125 C-2.72103516 21.48275391 -2.68816406 20.28972656 -2.65429688 19.06054688 C-2.59281437 16.55022935 -2.53556118 14.03980487 -2.48242188 11.52929688 C-2.44826172 10.34013672 -2.41410156 9.15097656 -2.37890625 7.92578125 C-2.3538501 6.83692627 -2.32879395 5.74807129 -2.30297852 4.6262207 C-2 2 -2 2 0 0 Z " fill="#ACC38C" transform="translate(26,66)"/>
	

	<path d="M0 0 C3.91086359 1.65459614 6.76482202 4.29301434 10 7 C11.66324401 8.00568242 13.32936253 9.00664799 15 10 C18.51349009 12.97295315 20.55553342 16.66660027 22 21 C23.65 21.33 25.3 21.66 27 22 C24.43891297 24.56108703 22.72876445 24.25845597 19.23413086 24.27734375 C18.47624268 24.26832031 17.71835449 24.25929688 16.9375 24.25 C15.78809937 24.24419922 15.78809937 24.24419922 14.61547852 24.23828125 C9.16535277 24.15508204 4.25308011 23.52816876 -1 22 C-1 21.67 -1 21.34 -1 21 C5.86515862 20.73595544 12.25846717 21.74158054 19 23 C16.3353623 17.6391281 12.06124412 13.91281638 7.8125 9.8125 C6.33534739 8.38615229 4.86244332 6.95538701 3.39453125 5.51953125 C2.74331299 4.89151611 2.09209473 4.26350098 1.42114258 3.61645508 C0 2 0 2 0 0 Z " fill="#ACC38A" transform="translate(61,80)"/>
	

	<path d="M0 0 C0.33 0 0.66 0 1 0 C1.06058594 1.10859375 1.12117188 2.2171875 1.18359375 3.359375 C1.26802951 4.8229282 1.35267599 6.28646925 1.4375 7.75 C1.47681641 8.47960938 1.51613281 9.20921875 1.55664062 9.9609375 C1.765575 13.99156568 1.765575 13.99156568 2.52294922 17.94262695 C3.47003079 22.02709799 2.89445613 26.27853221 2.6875 30.4375 C2.65205078 31.37916016 2.61660156 32.32082031 2.58007812 33.29101562 C2.51530273 34.6609668 2.51530273 34.6609668 2.44921875 36.05859375 C2.41143311 36.88673584 2.37364746 37.71487793 2.3347168 38.56811523 C2 41 2 41 0 46 C18.81 46.495 18.81 46.495 38 47 C38 47.33 38 47.66 38 48 C32.46411467 48.02464775 26.928261 48.04283496 21.39233398 48.05493164 C19.5075627 48.05997244 17.62279535 48.06680498 15.73803711 48.07543945 C13.03498364 48.08751617 10.33198169 48.09323068 7.62890625 48.09765625 C6.78099014 48.10281754 5.93307404 48.10797882 5.0594635 48.11329651 C3.03928932 48.11349195 1.01922066 48.06206211 -1 48 C-1.33 47.67 -1.66 47.34 -2 47 C-1.93371434 44.38171631 -1.80500431 41.7985363 -1.625 39.1875 C-1.57609619 38.41140381 -1.52719238 37.63530762 -1.47680664 36.83569336 C-1.20086605 32.56943113 -0.85104643 28.31783286 -0.4375 24.0625 C0.27869354 16.06127527 0.08024924 8.0249242 0 0 Z " fill="#EEF1CA" transform="translate(22,54)"/>
	

	

	<path d="M0 0 C2.625 0.375 2.625 0.375 5 1 C5.12117188 1.69867187 5.24234375 2.39734375 5.3671875 3.1171875 C5.53476562 4.02726562 5.70234375 4.93734375 5.875 5.875 C6.03742187 6.77992187 6.19984375 7.68484375 6.3671875 8.6171875 C6.83044703 11.16505988 6.83044703 11.16505988 9 13 C9.125 16.625 9.125 16.625 9 20 C7.68103535 19.07161713 6.37001311 18.13194268 5.0625 17.1875 C4.33160156 16.66542969 3.60070312 16.14335938 2.84765625 15.60546875 C1 14 1 14 0 11 C-0.66 11 -1.32 11 -2 11 C-2.05399736 9.54207116 -2.09279177 8.08357288 -2.125 6.625 C-2.15980469 5.40683594 -2.15980469 5.40683594 -2.1953125 4.1640625 C-2 2 -2 2 0 0 Z " fill="#A4BA34" transform="translate(26,22)"/>
	

	<path d="M0 0 C5.2584002 0.67415387 10.02638346 2.24265549 15 4 C15 4.99 15 5.98 15 7 C14.38511719 7.12117188 13.77023438 7.24234375 13.13671875 7.3671875 C12.32847656 7.53476563 11.52023438 7.70234375 10.6875 7.875 C9.48673828 8.11863281 9.48673828 8.11863281 8.26171875 8.3671875 C5.74698882 8.94478999 5.74698882 8.94478999 3 11 C0.8125 10.625 0.8125 10.625 -1 10 C-2.15837626 5.94568308 -1.83691257 3.78187881 0 0 Z " fill="#FEFEFD" transform="translate(32,60)"/>
	

	<path d="M0 0 C1.51400391 0.01740234 1.51400391 0.01740234 3.05859375 0.03515625 C4.07050781 0.04417969 5.08242188 0.05320312 6.125 0.0625 C7.29869141 0.07990234 7.29869141 0.07990234 8.49609375 0.09765625 C7.99499667 4.38315814 6.77727547 6.31774725 3.68359375 9.28515625 C2.99652344 9.95933594 2.30945312 10.63351563 1.6015625 11.328125 C-0.37038609 12.98543986 -2.1552283 14.06846029 -4.50390625 15.09765625 C-4.83390625 14.10765625 -5.16390625 13.11765625 -5.50390625 12.09765625 C-5.17390625 11.43765625 -4.84390625 10.77765625 -4.50390625 10.09765625 C-4.19598756 7.76688282 -3.99495351 5.43523729 -3.78515625 3.09375 C-3.36427263 0.10664542 -3.05770382 0.11925522 0 0 Z " fill="#FCFCF7" transform="translate(33.50390625,75.90234375)"/>
	

	<path d="M0 0 C5.14121248 2.51814489 8.27484317 5.17059455 11.890625 9.57421875 C15.06806723 13.22827731 18.57286443 16.54794763 22.08862305 19.875 C23.44794734 21.19512759 24.73067826 22.5931163 26 24 C26 24.99 26 25.98 26 27 C20.80790596 27.21192221 16.873261 26.5912689 12 25 C12.33 24.34 12.66 23.68 13 23 C15.31 23 17.62 23 20 23 C19.505 22.38125 19.01 21.7625 18.5 21.125 C17 19 17 19 17 17 C16.01 16.67 15.02 16.34 14 16 C12.28891311 14.37897032 10.62746694 12.70496537 9 11 C8.154375 10.154375 7.30875 9.30875 6.4375 8.4375 C5.633125 7.633125 4.82875 6.82875 4 6 C3.236875 5.278125 2.47375 4.55625 1.6875 3.8125 C0 2 0 2 0 0 Z " fill="#5F9269" transform="translate(54,76)"/>
	

	

	<path d="M0 0 C0.66 0 1.32 0 2 0 C7 5.47619048 7 5.47619048 7 8 C7.66 8 8.32 8 9 8 C10.2890625 9.42578125 10.2890625 9.42578125 11.625 11.3125 C12.07101563 11.92738281 12.51703125 12.54226562 12.9765625 13.17578125 C14 15 14 15 14 18 C13.42507812 17.70996094 12.85015625 17.41992188 12.2578125 17.12109375 C10.83139166 16.41281904 9.38963033 15.73397096 7.9296875 15.09765625 C4.34774297 13.29306443 2.38946939 12.12407832 1.0390625 8.2265625 C0.55150058 5.47784383 0.19501763 2.78387673 0 0 Z " fill="#FEFEFD" transform="translate(29,42)"/>
	

	<path d="M0 0 C-0.875 3.875 -0.875 3.875 -2 5 C-4.54100092 5.53329649 -7.09334021 5.96418343 -9.65234375 6.40234375 C-12.17133483 6.83080005 -12.17133483 6.83080005 -14 9 C-14.99 8.67 -15.98 8.34 -17 8 C-16.1875 4.5625 -16.1875 4.5625 -15 1 C-14.01 0.67 -13.02 0.34 -12 0 C-12 0.66 -12 1.32 -12 2 C-11.20335938 1.65775391 -11.20335938 1.65775391 -10.390625 1.30859375 C-9.68421875 1.02113281 -8.9778125 0.73367187 -8.25 0.4375 C-7.55390625 0.14746094 -6.8578125 -0.14257812 -6.140625 -0.44140625 C-3.69987216 -1.07831803 -2.3596345 -0.80248831 0 0 Z " fill="#F0D31A" transform="translate(80,54)"/>
	

	<path d="M0 0 C0.99 0.66 1.98 1.32 3 2 C3.1875 5.125 3.1875 5.125 3 8 C2.01 8.495 2.01 8.495 1 9 C1.061875 8.21625 1.12375 7.4325 1.1875 6.625 C1.125625 5.75875 1.06375 4.8925 1 4 C-2.21436529 1.85708981 -4.17426609 1.69974209 -7.96484375 1.5390625 C-11.00222967 2.22699252 -12.13854699 3.53978639 -14 6 C-14.62102301 8.96793439 -14.62102301 8.96793439 -14.625 12.125 C-14.80555556 17.80555556 -14.80555556 17.80555556 -17 20 C-18.80230168 16.17010894 -19.19622241 13.21878192 -19 9 C-18.34 9 -17.68 9 -17 9 C-16.773125 8.0925 -16.54625 7.185 -16.3125 6.25 C-13.08239597 -1.74835283 -7.59446875 -1.82782129 0 0 Z " fill="#EAE05D" transform="translate(103,65)"/>
	

	<path d="M0 0 C4.09456316 6.14184474 3.83880766 16.73507268 3 24 C2.34 24.66 1.68 25.32 1 26 C0.67 24.02 0.34 22.04 0 20 C-0.66 20.33 -1.32 20.66 -2 21 C-2.10130722 14.24618538 -2.13298734 7.67203653 -1 1 C-0.67 0.67 -0.34 0.34 0 0 Z " fill="#EAE05D" transform="translate(26,47)"/>
	

	<path d="M0 0 C0.33 0 0.66 0 1 0 C1.33 2.64 1.66 5.28 2 8 C2.7425 8.226875 3.485 8.45375 4.25 8.6875 C7.51139591 10.24407532 8.92894975 12.08518854 11 15 C10.67 15.66 10.34 16.32 10 17 C9.48050781 16.6390625 8.96101563 16.278125 8.42578125 15.90625 C4.10479002 13.0040653 4.10479002 13.0040653 -0.8125 11.5 C-3.39092912 12.08935523 -4.37603761 12.94867908 -6 15 C-5.4409112 11.75728494 -4.5867822 10.06942576 -2 8 C-1.34 8 -0.68 8 0 8 C0 5.36 0 2.72 0 0 Z " fill="#ADC491" transform="translate(50,63)"/>
	

	

	

	

	<path d="M0 0 C3.58806317 3.38872633 6.45684799 6.76141332 9 11 C9 11.66 9 12.32 9 13 C5.76138697 11.55575365 3.38030837 9.74227753 0.75 7.375 C0.04359375 6.74335937 -0.6628125 6.11171875 -1.390625 5.4609375 C-1.92171875 4.97882812 -2.4528125 4.49671875 -3 4 C-2.67 3.34 -2.34 2.68 -2 2 C-1.67 2.33 -1.34 2.66 -1 3 C-0.67 2.01 -0.34 1.02 0 0 Z " fill="#EFD422" transform="translate(35,38)"/>
	

	<path d="M0 0 C0.495 0.309375 0.99 0.61875 1.5 0.9375 C3.90679685 1.96038866 5.6157925 2.2460612 8.1875 2.5 C10.0746875 2.7475 10.0746875 2.7475 12 3 C12.33 3.66 12.66 4.32 13 5 C12.02417969 5.06058594 11.04835938 5.12117188 10.04296875 5.18359375 C8.13451172 5.30927734 8.13451172 5.30927734 6.1875 5.4375 C4.92292969 5.51871094 3.65835938 5.59992187 2.35546875 5.68359375 C-0.99181893 5.87184547 -0.99181893 5.87184547 -4 7 C-4.66 6.34 -5.32 5.68 -6 5 C-5.38125 4.731875 -4.7625 4.46375 -4.125 4.1875 C-1.7004767 3.04443152 -1.7004767 3.04443152 0 0 Z " fill="#F0D31A" transform="translate(90,53)"/>
	

	

	<path d="M0 0 C0 3.95706883 -1.4255105 5.06531739 -3.875 8.125 C-7.65089278 13.13506268 -9.18928482 16.81829675 -10 23 C-10.99 23 -11.98 23 -13 23 C-12.67 22.67 -12.34 22.34 -12 22 C-11.89453246 20.41798689 -11.81561636 18.83416646 -11.75 17.25 C-11.40505073 13.50862715 -11.24936204 12.30635908 -8.8125 9.3125 C-7.884375 8.549375 -6.95625 7.78625 -6 7 C-4.87466804 5.74787007 -3.77080099 4.47616611 -2.6875 3.1875 C-2.17574219 2.58292969 -1.66398437 1.97835937 -1.13671875 1.35546875 C-0.76160156 0.90816406 -0.38648437 0.46085937 0 0 Z " fill="#EAE05D" transform="translate(101,78)"/>
	

	<path d="M0 0 C-0.33 2.31 -0.66 4.62 -1 7 C-2.65 7.33 -4.3 7.66 -6 8 C-6.6875 5.6875 -6.6875 5.6875 -7 3 C-4.87164172 -0.24854684 -4.06968429 0 0 0 Z " fill="#5D9A23" transform="translate(58,63)"/>
	

	

	

	

	

	

	

	

	

	

	

	

</svg>
