<?xml version="1.0" encoding="iso-8859-1"?>
<svg height="128" version="1.1" width="128" xmlns="http://www.w3.org/2000/svg">
	

	<path d="M0 0 C42.24 0 84.48 0 128 0 C128 42.24 128 84.48 128 128 C85.76 128 43.52 128 0 128 C0 85.76 0 43.52 0 0 Z " fill="#1885DF" transform="translate(0,0)"/>
	

	<path d="M0 0 C5.78558483 5.20425812 9.76220373 13.13952977 13.92749023 19.6784668 C17.06190378 24.59774715 20.33682071 29.36370891 23.85546875 34.01953125 C25 36 25 36 25 40 C23.64453125 41.5546875 23.64453125 41.5546875 21.8125 42.875 C21.22082031 43.32617188 20.62914062 43.77734375 20.01953125 44.2421875 C18 45 18 45 15.57763672 44.296875 C12.70549403 42.85182651 11.57467888 41.61569023 9.73828125 39.0078125 C9.17689453 38.22019531 8.61550781 37.43257812 8.03710938 36.62109375 C7.46798828 35.79738281 6.89886719 34.97367188 6.3125 34.125 C5.73177734 33.30902344 5.15105469 32.49304688 4.55273438 31.65234375 C2.10790789 28.18719083 -0.18146985 24.84038096 -2 21 C-5.1330645 20.68231164 -6.57970791 20.70639169 -9.203125 22.5390625 C-12.21082849 25.60416491 -14.63141483 28.19872788 -16.4375 32.125 C-15.82311341 36.16239762 -13.72300926 37.48928843 -10.56640625 39.8984375 C-10.04949219 40.26195312 -9.53257813 40.62546875 -9 41 C-9.1875 43.3125 -9.1875 43.3125 -10 46 C-12.3125 47.875 -12.3125 47.875 -15 49 C-17 48.75 -17 48.75 -19 48 C-21.32859537 47.06709284 -21.32859537 47.06709284 -24 47 C-25.78050783 47.88973065 -25.78050783 47.88973065 -27.5625 49.0625 C-31 51 -31 51 -33.375 50.5625 C-36.01215538 48.02677368 -35.94104039 44.92004408 -36.16796875 41.37890625 C-36.18969516 38.24595849 -36.11848606 35.13090445 -36 32 C-35.96777344 30.7728125 -35.93554688 29.545625 -35.90234375 28.28125 C-35.21471328 19.06119076 -35.21471328 19.06119076 -32.23828125 16.4609375 C-29.9375 15.4375 -29.9375 15.4375 -27.27734375 14.48046875 C-22.66082295 12.3950559 -18.96264159 9.37479971 -15 6.25 C-13.52103575 5.08828393 -12.04188163 3.92680952 -10.5625 2.765625 C-9.92441406 2.25805664 -9.28632812 1.75048828 -8.62890625 1.22753906 C-5.42164337 -1.18944501 -3.82930173 -1.1639215 0 0 Z " fill="#F2F8F8" transform="translate(72,36)"/>
	

	

	

	

	

	

	

	

</svg>
