<?xml version="1.0" encoding="iso-8859-1"?>
<svg height="128" version="1.1" width="128" xmlns="http://www.w3.org/2000/svg">
	

	<path d="M0 0 C42.24 0 84.48 0 128 0 C128 42.24 128 84.48 128 128 C85.76 128 43.52 128 0 128 C0 85.76 0 43.52 0 0 Z " fill="#B1ADA6" transform="translate(0,0)"/>
	

	<path d="M0 0 C2.475 0.99 2.475 0.99 5 2 C5.10957031 3.04800781 5.21914063 4.09601562 5.33203125 5.17578125 C5.49150574 6.55476651 5.65169966 7.93366871 5.8125 9.3125 C5.88275391 10.00279297 5.95300781 10.69308594 6.02539062 11.40429688 C6.49491019 15.29191891 6.90549529 17.51591813 10 20 C10 20.66 10 21.32 10 22 C11.32 22.33 12.64 22.66 14 23 C14 23.66 14 24.32 14 25 C14.99 25 15.98 25 17 25 C19.93952555 27.58958203 21.75122171 29.25366514 23 33 C25.475 32.505 25.475 32.505 28 32 C28.07516846 31.07719238 28.07516846 31.07719238 28.15185547 30.13574219 C28.38441837 27.33971386 28.62957387 24.54492737 28.875 21.75 C28.95363281 20.78191406 29.03226562 19.81382813 29.11328125 18.81640625 C29.23896484 17.41455078 29.23896484 17.41455078 29.3671875 15.984375 C29.44050293 15.12553711 29.51381836 14.26669922 29.58935547 13.38183594 C30.01943526 10.88727084 30.65872178 9.14147602 32 7 C34.0625 6.1875 34.0625 6.1875 36 6 C37.66342837 7.66342837 37.36048097 9.7825709 37.5625 12.0625 C37.64628906 12.98160156 37.73007813 13.90070312 37.81640625 14.84765625 C37.87699219 15.55792969 37.93757813 16.26820312 38 17 C40.31 17 42.62 17 45 17 C45.495 19.475 45.495 19.475 46 22 C48.31 22 50.62 22 53 22 C53.18175781 20.75283203 53.18175781 20.75283203 53.3671875 19.48046875 C53.53476563 18.39378906 53.70234375 17.30710937 53.875 16.1875 C54.03742188 15.10855469 54.19984375 14.02960937 54.3671875 12.91796875 C55 10 55 10 57 7 C59.3125 7 59.3125 7 62 8 C62.71875 9.7421875 62.71875 9.7421875 63.3125 11.875 C64.14205573 14.59789469 64.49620294 15.69290458 66.9609375 17.1953125 C69.42362852 18.12316478 69.42362852 18.12316478 73 19 C73 19.66 73 20.32 73 21 C76.96 20.505 76.96 20.505 81 20 C81.20496094 19.00097656 81.40992187 18.00195312 81.62109375 16.97265625 C81.89050781 15.68230469 82.15992187 14.39195313 82.4375 13.0625 C82.70433594 11.77472656 82.97117187 10.48695312 83.24609375 9.16015625 C84 6 84 6 85 5 C86.65 5 88.3 5 90 5 C90 30.08 90 55.16 90 81 C47.76 81 5.52 81 -38 81 C-38 72.75 -38 64.5 -38 56 C-36.35 56.66 -34.7 57.32 -33 58 C-30.43809157 58.34829109 -30.43809157 58.34829109 -27.875 58.3125 C-26.60269531 58.33763672 -26.60269531 58.33763672 -25.3046875 58.36328125 C-22.97929548 58.16292 -22.97929548 58.16292 -21.26953125 56.8359375 C-19.573369 54.38302593 -19.2615878 52.24884332 -18.8125 49.3125 C-18.65394531 48.31863281 -18.49539062 47.32476562 -18.33203125 46.30078125 C-18.16767578 45.16189453 -18.16767578 45.16189453 -18 44 C-16.515 44.495 -16.515 44.495 -15 45 C-15 45.66 -15 46.32 -15 47 C-7.98475852 46.44210432 -0.99017804 45.81552077 6 45 C5.80301514 44.44924805 5.60603027 43.89849609 5.40307617 43.33105469 C2.88631924 35.72916996 2.04930813 28.1978647 1.3125 20.25 C1.18294922 18.96222656 1.05339844 17.67445312 0.91992188 16.34765625 C0.38380367 10.87300998 -0.073199 5.50498024 0 0 Z " fill="#FCFCFC" transform="translate(38,47)"/>
	

	<path d="M0 0 C42.24 0 84.48 0 128 0 C128 7.92 128 15.84 128 24 C123.74934715 22.93733679 122.82975136 22.1127265 120 19 C119.01 18.01 119.01 18.01 118 17 C115.80209146 21.57897612 114.50567614 24.80959948 115 30 C115.33 30.33 115.66 30.66 116 31 C116.125 33.5 116.125 33.5 116 36 C115.67 36.33 115.34 36.66 115 37 C114.71491101 38.60586451 114.48551807 40.22171176 114.28125 41.83984375 C114.15363281 42.82017578 114.02601562 43.80050781 113.89453125 44.81054688 C113.76433594 45.84244141 113.63414063 46.87433594 113.5 47.9375 C113.24286275 49.96786593 112.98259893 51.9978391 112.71875 54.02734375 C112.60466797 54.93218506 112.49058594 55.83702637 112.37304688 56.76928711 C112 59 112 59 111 61 C110.34 61 109.68 61 109 61 C107.32442477 57.64884954 107.57246017 53.87826288 107.375 50.1875 C107.29765625 48.97610352 107.29765625 48.97610352 107.21875 47.74023438 C106.98881486 43.61154601 107.02099446 40.04851917 108 36 C107.979375 34.824375 107.95875 33.64875 107.9375 32.4375 C108 29 108 29 109.05859375 27.11328125 C110.3116461 24.30041269 109.82670312 22.7127465 109.125 19.75 C108.81949219 18.41195313 108.81949219 18.41195313 108.5078125 17.046875 C108.34023437 16.37140625 108.17265625 15.6959375 108 15 C106.35 15.33 104.7 15.66 103 16 C103 17.98 103 19.96 103 22 C101.35 22.33 99.7 22.66 98 23 C97.505 19.535 97.505 19.535 97 16 C95.35 16 93.7 16 92 16 C91.34 18.64 90.68 21.28 90 24 C88.68 24.33 87.36 24.66 86 25 C84.34623289 23.34623289 84.36528792 21.19051636 83.9375 18.9375 C83.67259766 17.55884766 83.67259766 17.55884766 83.40234375 16.15234375 C83.26957031 15.44207031 83.13679688 14.73179688 83 14 C82.01 14 81.02 14 80 14 C79.01 16.97 78.02 19.94 77 23 C75.68 23 74.36 23 73 23 C72.608125 21.865625 72.21625 20.73125 71.8125 19.5625 C71.214375 18.386875 70.61625 17.21125 70 16 C67.44961446 15.22276902 67.44961446 15.22276902 65 15 C65.19078125 16.25296875 65.3815625 17.5059375 65.578125 18.796875 C65.80324549 20.44775861 66.02713996 22.09880973 66.25 23.75 C66.37890625 24.575 66.5078125 25.4 66.640625 26.25 C67.43713823 32.42297754 67.43713823 32.42297754 65.046875 35.578125 C64.37140625 36.04734375 63.6959375 36.5165625 63 37 C61.35 36.34 59.7 35.68 58 35 C58.02320313 34.04738281 58.04640625 33.09476563 58.0703125 32.11328125 C58.08835938 30.85902344 58.10640625 29.60476562 58.125 28.3125 C58.14820313 27.07113281 58.17140625 25.82976563 58.1953125 24.55078125 C58.01032021 21.18762143 57.45767895 19.0014413 56 16 C55.34 16 54.68 16 54 16 C53.34 18.64 52.68 21.28 52 24 C47.25 25.125 47.25 25.125 45 24 C43.94647157 21.69034152 42.94280904 19.3570226 42 17 C38.04 17.66 34.08 18.32 30 19 C29.34 17.68 28.68 16.36 28 15 C27.484375 14.525625 26.96875 14.05125 26.4375 13.5625 C24.54736879 11.50800956 24.3675753 9.72005723 24 7 C21.03 6.505 21.03 6.505 18 6 C18.33773438 6.90621094 18.67546875 7.81242188 19.0234375 8.74609375 C21.47490464 15.44157482 23.66822473 21.97791219 25 29 C25.58652344 28.66355469 26.17304688 28.32710937 26.77734375 27.98046875 C30.83763224 26.18937488 34.9428821 27.64762737 39 29 C39 30.98 39 32.96 39 35 C37.35 35 35.7 35 34 35 C35.45255699 38.82946843 37.42895561 40.12050295 41 42 C40.67 42.99 40.34 43.98 40 45 C37.71484375 45.94921875 37.71484375 45.94921875 34.9375 46.6875 C33.55884766 47.06455078 33.55884766 47.06455078 32.15234375 47.44921875 C31.44207031 47.63097656 30.73179688 47.81273437 30 48 C27.35247996 45.42215154 25.05567935 43.08351902 23 40 C20.41619823 39.74969023 20.41619823 39.74969023 18 40 C17.7525 38.824375 17.7525 38.824375 17.5 37.625 C16.29603101 34.8906529 16.29603101 34.8906529 14.0859375 34.22265625 C12.07483301 33.73586948 10.037362 33.36146745 8 33 C7.67 29.04 7.34 25.08 7 21 C6.34 21 5.68 21 5 21 C5 21.99 5 22.98 5 24 C4.34 24 3.68 24 3 24 C3.01571045 25.17095215 3.0314209 26.3419043 3.04760742 27.54833984 C3.10181196 31.88306834 3.13631537 36.21776676 3.16479492 40.55273438 C3.17990325 42.43071526 3.20039094 44.30866076 3.22631836 46.18652344 C3.26261246 48.88225019 3.27970545 51.57751146 3.29296875 54.2734375 C3.30845261 55.11619232 3.32393646 55.95894714 3.33988953 56.82723999 C3.34057617 59.19287109 3.34057617 59.19287109 3 63 C1.515 63.99 1.515 63.99 0 65 C0 43.55 0 22.1 0 0 Z " fill="#FCFCFC" transform="translate(0,0)"/>
	

	<path d="M0 0 C0.66 0 1.32 0 2 0 C3.26237731 2.52475462 3.09856404 4.31200466 3.0625 7.125 C3.05347656 8.03507812 3.04445313 8.94515625 3.03515625 9.8828125 C3.02355469 10.58148438 3.01195312 11.28015625 3 12 C5.64 12.33 8.28 12.66 11 13 C11.66 14.98 12.32 16.96 13 19 C14.65 18.67 16.3 18.34 18 18 C18.5775 18.94875 19.155 19.8975 19.75 20.875 C22.26848769 24.37842794 22.26848769 24.37842794 26 26 C28.4037892 25.60036423 28.4037892 25.60036423 30.75 24.625 C31.54921875 24.32851563 32.3484375 24.03203125 33.171875 23.7265625 C33.77515625 23.48679687 34.3784375 23.24703125 35 23 C35 22.01 35 21.02 35 20 C36.32 20.33 37.64 20.66 39 21 C38.67 23.31 38.34 25.62 38 28 C36.68 27.67 35.36 27.34 34 27 C34.56397623 41.83840896 36.5096056 56.3689329 39 71 C25.45983859 74.2758455 25.45983859 74.2758455 20 74 C16.875 72.0625 16.875 72.0625 15 70 C15.061875 71.19625 15.12375 72.3925 15.1875 73.625 C15.19481625 77.7440472 14.23250847 80.47950587 12 84 C9.57465731 85.21267134 7.89373446 85.20131212 5.1875 85.25 C4.33542969 85.27578125 3.48335937 85.3015625 2.60546875 85.328125 C-0.79109946 84.90037128 -2.37125298 84.23075537 -5 82 C-5.47900512 78.96539036 -5.63174162 76.49619038 -5.55859375 73.46484375 C-5.55626236 72.63038223 -5.55393097 71.79592072 -5.55152893 70.93617249 C-5.54179013 69.17340869 -5.51999965 67.41067628 -5.48706055 65.64819336 C-5.43761939 62.94402989 -5.42557947 60.2416841 -5.41992188 57.53710938 C-5.40583724 55.8255014 -5.38963332 54.11390927 -5.37109375 52.40234375 C-5.36573105 51.59087387 -5.36036835 50.77940399 -5.35484314 49.94334412 C-5.23327908 44.23327908 -5.23327908 44.23327908 -3 42 C-2.87655001 38.99203557 -2.86561655 36.06700369 -2.9375 33.0625 C-3.06990487 23.00340753 -2.63579856 13.03653449 -2 3 C-1.34 3 -0.68 3 0 3 C0 2.01 0 1.02 0 0 Z " fill="#E1E0DD" transform="translate(5,21)"/>
	

	<path d="M0 0 C2.97 0.495 2.97 0.495 6 1 C6.268125 2.134375 6.53625 3.26875 6.8125 4.4375 C7.204375 5.613125 7.59625 6.78875 8 8 C8.99 8.33 9.98 8.66 11 9 C11.33 9.99 11.66 10.98 12 12 C15.96 11.34 19.92 10.68 24 10 C27 15 27 15 27 18 C29.31 18 31.62 18 34 18 C34.33 15.36 34.66 12.72 35 10 C36.32 10 37.64 10 39 10 C41.04898287 14.21896866 41.21207997 17.65372146 41.125 22.3125 C41.10695312 23.56675781 41.08890625 24.82101563 41.0703125 26.11328125 C41.04710937 27.06589844 41.02390625 28.01851562 41 29 C42.9094686 29.6037997 42.9094686 29.6037997 45 30 C46.95625978 29.04451019 46.95625978 29.04451019 48 27 C47.74216322 24.98887313 47.38419998 22.99085446 47 21 C46.89779681 16.99874513 46.9417205 13.00185897 47 9 C48.32 8.67 49.64 8.34 51 8 C55 12.5 55 12.5 55 17 C56.32 17 57.64 17 59 17 C59.66 14.03 60.32 11.06 61 8 C62.32 7.67 63.64 7.34 65 7 C67.56616632 10.84924948 67.55097676 13.4349304 68 18 C69.32 18 70.64 18 72 18 C71.95875 17.071875 71.9175 16.14375 71.875 15.1875 C72 12 72 12 74 9 C75.65 9.33 77.3 9.66 79 10 C79.495 13.465 79.495 13.465 80 17 C81.32 16.67 82.64 16.34 84 16 C84.33 14.02 84.66 12.04 85 10 C87.475 9.505 87.475 9.505 90 9 C93.42038278 18.42281922 93.42038278 18.42281922 92.44921875 22.06640625 C91.4375 23.6875 91.4375 23.6875 89 26 C87.68 26 86.36 26 85 26 C85 25.34 85 24.68 85 24 C83.35 24 81.7 24 80 24 C79.06576355 27.01031744 78.95550089 27.86650268 80 31 C82.97 30.67 85.94 30.34 89 30 C88.67 31.32 88.34 32.64 88 34 C85.70839681 34.02692484 83.41670454 34.04636124 81.125 34.0625 C79.84882812 34.07410156 78.57265625 34.08570313 77.2578125 34.09765625 C74 34 74 34 72 33 C72.556875 31.6696875 72.556875 31.6696875 73.125 30.3125 C74.10784228 26.59173995 73.76062164 25.32561865 72 22 C69.56282742 22.27034634 69.56282742 22.27034634 67 23 C64.5705484 26.6441774 64.83820425 28.71241272 65 33 C62.58548991 34.20725505 60.934913 34.17163994 58.23828125 34.24609375 C57.28373047 34.27896484 56.32917969 34.31183594 55.34570312 34.34570312 C53.34319646 34.406307 51.34058858 34.46366439 49.33789062 34.51757812 C43.88117936 34.71154573 39.16919038 35.21427969 34 37 C35.26457031 37.09087891 35.26457031 37.09087891 36.5546875 37.18359375 C37.65039062 37.26738281 38.74609375 37.35117187 39.875 37.4375 C40.96554688 37.51871094 42.05609375 37.59992187 43.1796875 37.68359375 C46 38 46 38 48 39 C47.34 39.66 46.68 40.32 46 41 C45.814375 42.7325 45.814375 42.7325 45.625 44.5 C45.41875 45.655 45.2125 46.81 45 48 C42.9375 49.4375 42.9375 49.4375 41 50 C41 49.01 41 48.02 41 47 C40.01 46.505 40.01 46.505 39 46 C38.34 51.61 37.68 57.22 37 63 C33.70074781 62.56966276 31.06114764 62.18531116 28 61 C23.56535754 55.04094919 24.03378942 46.19714701 24 39 C24.33 38.01 24.66 37.02 25 36 C24.43410156 35.82984375 23.86820313 35.6596875 23.28515625 35.484375 C22.55167969 35.24203125 21.81820312 34.9996875 21.0625 34.75 C19.96615234 34.40195313 19.96615234 34.40195313 18.84765625 34.046875 C17 33 17 33 16.24609375 30.890625 C16.16488281 30.26671875 16.08367188 29.6428125 16 29 C17.65 29 19.3 29 21 29 C21 27.02 21 25.04 21 23 C19.41773035 22.80372609 17.83410729 22.61834462 16.25 22.4375 C15.36828125 22.33308594 14.4865625 22.22867187 13.578125 22.12109375 C11.11567549 22.00543324 9.33461936 22.26361305 7 23 C4.92689415 19.89034122 4.32753538 17.73197485 3.5 14.125 C2.79440848 11.06488025 2.08783359 8.21644707 0.90625 5.3046875 C0 3 0 3 0 0 Z " fill="#929089" transform="translate(18,6)"/>
	

	<path d="M0 0 C0.66 0 1.32 0 2 0 C3.26237731 2.52475462 3.09856404 4.31200466 3.0625 7.125 C3.05347656 8.03507812 3.04445313 8.94515625 3.03515625 9.8828125 C3.02355469 10.58148438 3.01195312 11.28015625 3 12 C4.299375 12.144375 5.59875 12.28875 6.9375 12.4375 C10.875 12.875 10.875 12.875 12 14 C12.09919077 15.60163916 12.12969898 17.20779918 12.125 18.8125 C12.12886719 20.12154297 12.12886719 20.12154297 12.1328125 21.45703125 C12 24 12 24 11.50219727 25.91088867 C10.66504101 29.39340988 10.81552395 32.93778515 10.8125 36.5 C10.80025391 37.25925781 10.78800781 38.01851562 10.77539062 38.80078125 C10.66463217 42.96212855 10.66463217 42.96212855 12.01147461 46.80639648 C13.43226997 49.95923579 13.15527097 52.62439348 13.046875 56.06640625 C13.02659241 56.74170883 13.00630981 57.41701141 12.9854126 58.11277771 C12.93996379 59.53589096 12.88921436 60.95884361 12.83349609 62.3815918 C12.75016395 64.55821769 12.68837238 66.73471514 12.62890625 68.91210938 C12.58201682 70.2969192 12.53388205 71.68168753 12.484375 73.06640625 C12.44022461 74.32396729 12.39607422 75.58152832 12.35058594 76.87719727 C12 80 12 80 10 83 C7.94140625 83.3984375 7.94140625 83.3984375 5.5625 83.375 C4.38880859 83.38660156 4.38880859 83.38660156 3.19140625 83.3984375 C0.40788914 82.89234348 -0.29778935 82.24748704 -2 80 C-4.65939607 75.45703791 -5.37617474 72.1670863 -5.36328125 66.921875 C-5.36377975 66.26922668 -5.36427826 65.61657837 -5.36479187 64.94415283 C-5.3624665 63.57601854 -5.35282951 62.20787872 -5.33618164 60.83984375 C-5.3124071 58.7418022 -5.31565383 56.64501871 -5.32226562 54.546875 C-5.27935978 44.27935978 -5.27935978 44.27935978 -3 42 C-2.87655001 38.99203557 -2.86561655 36.06700369 -2.9375 33.0625 C-3.06990487 23.00340753 -2.63579856 13.03653449 -2 3 C-1.34 3 -0.68 3 0 3 C0 2.01 0 1.02 0 0 Z " fill="#BF9266" transform="translate(5,21)"/>
	

	<path d="M0 0 C1.5 1.375 1.5 1.375 3 3 C3 3.66 3 4.32 3 5 C5.33214148 6.20628008 7.49642139 7.1654738 10 8 C10 17.24 10 26.48 10 36 C7.525 36.495 7.525 36.495 5 37 C4.79503906 37.99902344 4.59007812 38.99804688 4.37890625 40.02734375 C4.10949219 41.31769531 3.84007812 42.60804687 3.5625 43.9375 C3.29566406 45.22527344 3.02882812 46.51304688 2.75390625 47.83984375 C2 51 2 51 1 52 C-1.67058851 52.14115161 -4.32432238 52.04247107 -7 52 C-7.33 51.34 -7.66 50.68 -8 50 C-9.11375 49.731875 -10.2275 49.46375 -11.375 49.1875 C-15 48 -15 48 -16.875 45.625 C-17.82947123 43.39790045 -18.55980222 41.37706802 -19 39 C-20.32 38.67 -21.64 38.34 -23 38 C-23.99 42.62 -24.98 47.24 -26 52 C-28.475 52.495 -28.475 52.495 -31 53 C-33.17975966 49.73036051 -33.36904422 48.78270322 -33 45 C-32.54753906 44.12408203 -32.54753906 44.12408203 -32.0859375 43.23046875 C-30.74039924 40.46679124 -30.08932075 37.73715949 -29.375 34.75 C-29.11460938 33.67234375 -28.85421875 32.5946875 -28.5859375 31.484375 C-28.39257812 30.66453125 -28.19921875 29.8446875 -28 29 C-22.74201496 28.10502382 -17.3283621 27.35972838 -12 28 C-9.15385976 30.84614024 -9.54420924 33.80369142 -9.375 37.625 C-9.33632812 38.33140625 -9.29765625 39.0378125 -9.2578125 39.765625 C-9.16352276 41.50998524 -9.08067109 43.25495691 -9 45 C-8.34 45 -7.68 45 -7 45 C-6.91435791 44.27820557 -6.82871582 43.55641113 -6.74047852 42.81274414 C-6.35226913 39.5621131 -5.95747476 36.31231562 -5.5625 33.0625 C-5.42779297 31.92619141 -5.29308594 30.78988281 -5.15429688 29.61914062 C-5.02216797 28.53955078 -4.89003906 27.45996094 -4.75390625 26.34765625 C-4.63345947 25.34742432 -4.5130127 24.34719238 -4.38891602 23.31665039 C-4 21 -4 21 -3 20 C-2.83333333 17.5 -2.83333333 17.5 -3 15 C-3.33 14.67 -3.66 14.34 -4 14 C-4.6837704 8.39308276 -2.68743693 4.7270096 0 0 Z " fill="#817F79" transform="translate(118,16)"/>
	

	<path d="M0 0 C3 1 3 1 5 4 C5.99 4.33 6.98 4.66 8 5 C8.33 6.65 8.66 8.3 9 10 C9.99 10 10.98 10 12 10 C12 10.66 12 11.32 12 12 C15.465 11.505 15.465 11.505 19 11 C19 11.66 19 12.32 19 13 C22.465 12.505 22.465 12.505 26 12 C26.99 14.97 27.98 17.94 29 21 C30.65 21 32.3 21 34 21 C34.33 18.03 34.66 15.06 35 12 C36.32 11.67 37.64 11.34 39 11 C44.38924732 17.12414468 44.27952878 24.28189975 44 32 C44.66 32 45.32 32 46 32 C46.02712351 29.60408962 46.0468982 27.20849043 46.0625 24.8125 C46.07506836 23.80219727 46.07506836 23.80219727 46.08789062 22.77148438 C46.10616035 19.02619007 45.74188296 15.65642318 45 12 C45.9375 9.6875 45.9375 9.6875 47 8 C50.3125 7.6875 50.3125 7.6875 54 8 C55.95578117 10.39740918 57 11.87586608 57 15 C59.78633754 13.60683123 59.93492694 11.84019484 61 9 C62 8 62 8 64.4375 7.8125 C67 8 67 8 69 10 C71.44963177 10.02253443 71.44963177 10.02253443 74.125 9.625 C75.03507812 9.51414062 75.94515625 9.40328125 76.8828125 9.2890625 C77.58148438 9.19367187 78.28015625 9.09828125 79 9 C81.15305957 12.85756507 82.39253254 15.55129785 82 20 C82.66 20 83.32 20 84 20 C84.03738281 19.38511719 84.07476562 18.77023438 84.11328125 18.13671875 C84.17902344 17.32847656 84.24476562 16.52023438 84.3125 15.6875 C84.37050781 14.88699219 84.42851563 14.08648437 84.48828125 13.26171875 C85.08798604 10.61111513 85.85781438 9.63315141 88 8 C91.00350106 8.09688713 92.02015684 9.01847711 94.25 11.0625 C94.8275 11.701875 95.405 12.34125 96 13 C96.99 11.68 97.98 10.36 99 9 C101.33203125 9.21875 101.33203125 9.21875 104 10 C105.51171875 12.03125 105.51171875 12.03125 106.6875 14.5 C108.15361193 17.91419023 108.15361193 17.91419023 111 20 C111 20.99 111 21.98 111 23 C107.18246909 22.45463844 105.54966023 20.80462625 103 18 C102.01 17.01 102.01 17.01 101 16 C98.80209146 20.57897612 97.50567614 23.80959948 98 29 C98.33 29.33 98.66 29.66 99 30 C99.125 32.5 99.125 32.5 99 35 C98.67 35.33 98.34 35.66 98 36 C97.71491101 37.60586451 97.48551807 39.22171176 97.28125 40.83984375 C97.15363281 41.82017578 97.02601562 42.80050781 96.89453125 43.81054688 C96.76433594 44.84244141 96.63414063 45.87433594 96.5 46.9375 C96.24286275 48.96786593 95.98259893 50.9978391 95.71875 53.02734375 C95.60466797 53.93218506 95.49058594 54.83702637 95.37304688 55.76928711 C95 58 95 58 94 60 C93.34 60 92.68 60 92 60 C90.32442477 56.64884954 90.57246017 52.87826288 90.375 49.1875 C90.29765625 47.97610352 90.29765625 47.97610352 90.21875 46.74023438 C89.98881486 42.61154601 90.02099446 39.04851917 91 35 C90.979375 33.824375 90.95875 32.64875 90.9375 31.4375 C91 28 91 28 92.05859375 26.11328125 C93.3116461 23.30041269 92.82670312 21.7127465 92.125 18.75 C91.81949219 17.41195313 91.81949219 17.41195313 91.5078125 16.046875 C91.34023437 15.37140625 91.17265625 14.6959375 91 14 C89.35 14.33 87.7 14.66 86 15 C86 16.98 86 18.96 86 21 C84.35 21.33 82.7 21.66 81 22 C80.505 18.535 80.505 18.535 80 15 C78.35 15 76.7 15 75 15 C74.34 17.64 73.68 20.28 73 23 C71.68 23.33 70.36 23.66 69 24 C67.34623289 22.34623289 67.36528792 20.19051636 66.9375 17.9375 C66.67259766 16.55884766 66.67259766 16.55884766 66.40234375 15.15234375 C66.26957031 14.44207031 66.13679688 13.73179688 66 13 C65.01 13 64.02 13 63 13 C62.01 15.97 61.02 18.94 60 22 C58.68 22 57.36 22 56 22 C55.608125 20.865625 55.21625 19.73125 54.8125 18.5625 C54.214375 17.386875 53.61625 16.21125 53 15 C50.44961446 14.22276902 50.44961446 14.22276902 48 14 C48.19078125 15.25296875 48.3815625 16.5059375 48.578125 17.796875 C48.80324549 19.44775861 49.02713996 21.09880973 49.25 22.75 C49.37890625 23.575 49.5078125 24.4 49.640625 25.25 C50.43713823 31.42297754 50.43713823 31.42297754 48.046875 34.578125 C47.37140625 35.04734375 46.6959375 35.5165625 46 36 C44.35 35.34 42.7 34.68 41 34 C41.02320313 33.04738281 41.04640625 32.09476563 41.0703125 31.11328125 C41.08835938 29.85902344 41.10640625 28.60476562 41.125 27.3125 C41.14820313 26.07113281 41.17140625 24.82976563 41.1953125 23.55078125 C41.01032021 20.18762143 40.45767895 18.0014413 39 15 C38.34 15 37.68 15 37 15 C36.34 17.64 35.68 20.28 35 23 C30.25 24.125 30.25 24.125 28 23 C26.94647157 20.69034152 25.94280904 18.3570226 25 16 C21.04 16.66 17.08 17.32 13 18 C12.34 16.68 11.68 15.36 11 14 C10.484375 13.525625 9.96875 13.05125 9.4375 12.5625 C7.54736879 10.50800956 7.3675753 8.72005723 7 6 C4.03 5.505 4.03 5.505 1 5 C1.33 6.65 1.66 8.3 2 10 C0.5 8.875 0.5 8.875 -1 7 C-1.25 3.875 -1.25 3.875 -1 1 C-0.67 0.67 -0.34 0.34 0 0 Z " fill="#E1DFDC" transform="translate(17,1)"/>
	

	<path d="M0 0 C2.95929119 2.75520215 5.03681826 5.46627288 7 9 C7 6.03 7 3.06 7 0 C7.66 0.33 8.32 0.66 9 1 C9.81640625 3.6171875 9.81640625 3.6171875 10.5625 6.875 C11.28372947 9.9766604 11.9927143 12.9781429 13 16 C13.515625 15.649375 14.03125 15.29875 14.5625 14.9375 C18.80608433 13.30535218 22.809602 14.60320067 27 16 C27 17.98 27 19.96 27 22 C25.35 22 23.7 22 22 22 C23.45255699 25.82946843 25.42895561 27.12050295 29 29 C28.505 30.485 28.505 30.485 28 32 C25.71484375 32.94921875 25.71484375 32.94921875 22.9375 33.6875 C21.55884766 34.06455078 21.55884766 34.06455078 20.15234375 34.44921875 C19.44207031 34.63097656 18.73179688 34.81273437 18 35 C15.35247996 32.42215154 13.05567935 30.08351902 11 27 C8.41619823 26.74969023 8.41619823 26.74969023 6 27 C5.835 26.21625 5.67 25.4325 5.5 24.625 C4.29603101 21.8906529 4.29603101 21.8906529 2.0859375 21.22265625 C0.07483301 20.73586948 -1.962638 20.36146745 -4 20 C-4.33 16.04 -4.66 12.08 -5 8 C-5.66 8 -6.32 8 -7 8 C-7 8.99 -7 9.98 -7 11 C-7.66 11 -8.32 11 -9 11 C-8.98428955 12.17095215 -8.9685791 13.3419043 -8.95239258 14.54833984 C-8.89818804 18.88306834 -8.86368463 23.21776676 -8.83520508 27.55273438 C-8.82009675 29.43071526 -8.79960906 31.30866076 -8.77368164 33.18652344 C-8.73738754 35.88225019 -8.72029455 38.57751146 -8.70703125 41.2734375 C-8.69154739 42.11619232 -8.67606354 42.95894714 -8.66011047 43.82723999 C-8.65942383 46.19287109 -8.65942383 46.19287109 -9 50 C-9.99 50.66 -10.98 51.32 -12 52 C-12.32026867 39.63434451 -12.24639318 27.41897388 -10.75 15.125 C-10.58600708 13.64664673 -10.58600708 13.64664673 -10.41870117 12.13842773 C-10.29599854 11.22907471 -10.1732959 10.31972168 -10.046875 9.3828125 C-9.94213867 8.58246582 -9.83740234 7.78211914 -9.72949219 6.95751953 C-9 5 -9 5 -6.93457031 3.72607422 C-5.97695801 3.36666748 -5.97695801 3.36666748 -5 3 C-3 6 -3 6 -3 10 C-2.34 10 -1.68 10 -1 10 C-1.01160156 9.36191406 -1.02320313 8.72382813 -1.03515625 8.06640625 C-1.04417969 7.24011719 -1.05320312 6.41382813 -1.0625 5.5625 C-1.07410156 4.73878906 -1.08570313 3.91507813 -1.09765625 3.06640625 C-1 1 -1 1 0 0 Z " fill="#E1DFDC" transform="translate(12,13)"/>
	

	<path d="M0 0 C3 1 3 1 5.25 3.5625 C7.86669295 6.37285623 7.86669295 6.37285623 11.8125 6.3125 C12.864375 6.209375 13.91625 6.10625 15 6 C16.29196584 9.87589753 16.06693932 13.52940571 16 17.5625 C15.65485376 22.93989951 15.65485376 22.93989951 17 28 C17.51028951 31.33757997 17.79529641 34.702774 18.125 38.0625 C18.22425781 38.99900391 18.32351562 39.93550781 18.42578125 40.90039062 C18.51472656 41.79048828 18.60367188 42.68058594 18.6953125 43.59765625 C18.77797363 44.41758057 18.86063477 45.23750488 18.94580078 46.08227539 C18.96368652 46.71512451 18.98157227 47.34797363 19 48 C17.12175109 49.87824891 13.96064724 49.39102397 11.4375 49.5625 C10.23996094 49.64628906 9.04242188 49.73007813 7.80859375 49.81640625 C6.88175781 49.87699219 5.95492188 49.93757813 5 50 C2.73510227 46.60265341 2.78031271 45.54739039 2.875 41.58203125 C2.89183838 40.49946045 2.90867676 39.41688965 2.92602539 38.30151367 C2.95043701 37.15013916 2.97484863 35.99876465 3 34.8125 C3.13698422 22.89979486 2.43273045 11.68148946 0 0 Z " fill="#C49365" transform="translate(21,42)"/>
	

	<path d="M0 0 C2.97 0.495 2.97 0.495 6 1 C6.268125 2.134375 6.53625 3.26875 6.8125 4.4375 C7.204375 5.613125 7.59625 6.78875 8 8 C8.99 8.33 9.98 8.66 11 9 C11.33 9.99 11.66 10.98 12 12 C15.96 11.34 19.92 10.68 24 10 C27 15 27 15 27 18 C29.31 18 31.62 18 34 18 C34.33 15.36 34.66 12.72 35 10 C36.32 10 37.64 10 39 10 C40.99475484 14.11418186 41.34358086 17.44755354 41 22 C40.34 22.66 39.68 23.32 39 24 C36.90625 23.94140625 36.90625 23.94140625 34.5 23.5625 C31.1319707 22.93725052 31.1319707 22.93725052 28 24 C28 25.98 28 27.96 28 30 C31.83225427 30.08912219 35.26562152 29.87867729 39 29 C39.66 29.99 40.32 30.98 41 32 C40.505 32.99 40.505 32.99 40 34 C34.06 34 28.12 34 22 34 C21.0318352 30.1273408 20.92377142 26.96388638 21 23 C19.41773035 22.80372609 17.83410729 22.61834462 16.25 22.4375 C15.36828125 22.33308594 14.4865625 22.22867187 13.578125 22.12109375 C11.11567549 22.00543324 9.33461936 22.26361305 7 23 C4.92689415 19.89034122 4.32753538 17.73197485 3.5 14.125 C2.79440848 11.06488025 2.08783359 8.21644707 0.90625 5.3046875 C0 3 0 3 0 0 Z " fill="#383637" transform="translate(18,6)"/>
	

	<path d="M0 0 C1.32 0.33 2.64 0.66 4 1 C4.66 4.3 5.32 7.6 6 11 C7.32 11 8.64 11 10 11 C9.95875 10.071875 9.9175 9.14375 9.875 8.1875 C10 5 10 5 12 2 C14.475 2.495 14.475 2.495 17 3 C17.33 5.31 17.66 7.62 18 10 C19.32 9.67 20.64 9.34 22 9 C22.33 7.02 22.66 5.04 23 3 C24.65 2.67 26.3 2.34 28 2 C31.42038278 11.42281922 31.42038278 11.42281922 30.44921875 15.06640625 C29.4375 16.6875 29.4375 16.6875 27 19 C25.68 19 24.36 19 23 19 C23 18.34 23 17.68 23 17 C21.35 17 19.7 17 18 17 C17.06576355 20.01031744 16.95550089 20.86650268 18 24 C20.97 23.67 23.94 23.34 27 23 C26.67 24.32 26.34 25.64 26 27 C23.70839681 27.02692484 21.41670454 27.04636124 19.125 27.0625 C17.84882812 27.07410156 16.57265625 27.08570312 15.2578125 27.09765625 C12 27 12 27 10 26 C10.37125 25.113125 10.7425 24.22625 11.125 23.3125 C12.10784228 19.59173995 11.76062164 18.32561865 10 15 C8.02 15.33 6.04 15.66 4 16 C3.67 11.71 3.34 7.42 3 3 C0.07175348 5.92824652 -1.27239967 8.2979993 -3 12 C-3.66 12 -4.32 12 -5 12 C-4.484375 12.9075 -3.96875 13.815 -3.4375 14.75 C-2 18 -2 18 -2.25 20.3125 C-3 22 -3 22 -4 23 C-5.66617115 23.04063832 -7.33388095 23.042721 -9 23 C-10.3357457 19.22628488 -9.72408671 16.14168653 -9.0625 12.25 C-8.86785156 11.07953125 -8.67320313 9.9090625 -8.47265625 8.703125 C-8.31667969 7.81109375 -8.16070312 6.9190625 -8 6 C-7.67 7.32 -7.34 8.64 -7 10 C-5.68 10 -4.36 10 -3 10 C-2.86722656 9.36191406 -2.73445313 8.72382813 -2.59765625 8.06640625 C-2.42105469 7.24011719 -2.24445313 6.41382813 -2.0625 5.5625 C-1.88847656 4.73878906 -1.71445313 3.91507813 -1.53515625 3.06640625 C-1 1 -1 1 0 0 Z " fill="#77766E" transform="translate(80,13)"/>
	

	<path d="M0 0 C3.17395616 0.42736356 4.11909465 0.55659465 6.4375 2.875 C6.69628906 5.90014648 6.69628906 5.90014648 6.703125 9.74609375 C6.70503845 10.42422623 6.7069519 11.1023587 6.70892334 11.80104065 C6.71028481 13.23593517 6.70659099 14.67084201 6.69824219 16.10571289 C6.68755805 18.30057542 6.69812956 20.4946164 6.7109375 22.68945312 C6.70961557 24.08333514 6.70705249 25.47721664 6.703125 26.87109375 C6.70086914 28.14138428 6.69861328 29.4116748 6.69628906 30.72045898 C6.4375 33.875 6.4375 33.875 4.4375 36.875 C-1.56588983 37.6390678 -1.56588983 37.6390678 -4.4375 35.4375 C-7.55702994 28.33190402 -6.62524771 19.93692348 -6.5 12.328125 C-6.55421031 9.33300548 -6.97130109 6.78950689 -7.5625 3.875 C-6.02719711 -0.29225069 -4.06260026 -0.36635365 0 0 Z " fill="#C71A20" transform="translate(9.5625,66.125)"/>
	

	<path d="M0 0 C0.09765625 6.15234375 0.09765625 6.15234375 0 8 C-0.33 8.33 -0.66 8.66 -1 9 C-1.23075082 10.34747084 -1.41153063 11.70377565 -1.5625 13.0625 C-1.706875 14.361875 -1.85125 15.66125 -2 17 C-3.66611905 17.042721 -5.33382885 17.04063832 -7 17 C-9.04698414 14.95301586 -8.70045693 10.69588759 -9 8 C-10.32 8 -11.64 8 -13 8 C-14.59350336 19.59633261 -14.59350336 19.59633261 -15.75390625 31.2421875 C-16 33 -16 33 -17 34 C-18.66617115 34.04063832 -20.33388095 34.042721 -22 34 C-23.32 31.03 -24.64 28.06 -26 25 C-24.68 24.34 -23.36 23.68 -22 23 C-21.33179202 20.15322468 -21.33179202 20.15322468 -21.3125 16.9375 C-21.06823821 11.06823821 -21.06823821 11.06823821 -20 10 C-19.47071924 7.68717649 -19.03666285 5.36278087 -18.59765625 3.03125 C-18.40042969 2.3609375 -18.20320313 1.690625 -18 1 C-15.09224941 -0.45387529 -12.39561107 -0.02196009 -9.19140625 0.0625 C-0.58915291 -0.18284056 -0.58915291 -0.18284056 0 0 Z " fill="#434140" transform="translate(83,46)"/>
	

	<path d="M0 0 C0.33 0.66 0.66 1.32 1 2 C2.65 1.67 4.3 1.34 6 1 C6.5775 1.94875 7.155 2.8975 7.75 3.875 C10.26848769 7.37842794 10.26848769 7.37842794 14 9 C16.4037892 8.60036423 16.4037892 8.60036423 18.75 7.625 C19.54921875 7.32851563 20.3484375 7.03203125 21.171875 6.7265625 C21.77515625 6.48679687 22.3784375 6.24703125 23 6 C23 5.01 23 4.02 23 3 C24.32 3.33 25.64 3.66 27 4 C26.67 6.31 26.34 8.62 26 11 C24.68 10.67 23.36 10.34 22 10 C21.74932357 23.34562729 21.92923833 36.16095725 24.69140625 49.28515625 C24.79324219 50.18105469 24.89507812 51.07695313 25 52 C22.1803374 54.8196626 19.28889295 54.53045667 15.5 54.75 C14.81035156 54.80542969 14.12070312 54.86085937 13.41015625 54.91796875 C11.61028366 55.03375003 9.80342195 55.02481773 8 55 C5.25718763 52.25718763 5.70493505 50.61598111 5.62109375 46.77734375 C5.58693359 45.51599609 5.55277344 44.25464844 5.51757812 42.95507812 C5.49030124 41.61589719 5.46361262 40.27670415 5.4375 38.9375 C5.24994606 30.89662359 5.01228111 22.9820855 4 15 C3.96599348 13.3336803 3.94626451 11.66580019 4 10 C3.01 9.67 2.02 9.34 1 9 C0.97104775 12.29164829 0.9532177 15.58326399 0.9375 18.875 C0.92912109 19.81214844 0.92074219 20.74929687 0.91210938 21.71484375 C0.90727539 23.05869141 0.90727539 23.05869141 0.90234375 24.4296875 C0.89710693 25.25710449 0.89187012 26.08452148 0.88647461 26.93701172 C0.86647862 29.06411757 0.86647862 29.06411757 2 31 C2.09632771 32.63448131 2.13075095 34.27284018 2.1328125 35.91015625 C2.13474609 37.39612305 2.13474609 37.39612305 2.13671875 38.91210938 C2.13285156 39.95173828 2.12898438 40.99136719 2.125 42.0625 C2.12886719 43.07505859 2.13273437 44.08761719 2.13671875 45.13085938 C2.128932 51.16948427 1.78507085 57.01227712 1 63 C0.67 63 0.34 63 0 63 C0.01047363 62.08710205 0.02094727 61.1742041 0.03173828 60.23364258 C0.06591281 56.83241225 0.09094384 53.43136558 0.10986328 50.0300293 C0.11989352 48.56059888 0.13352101 47.09118829 0.15087891 45.62182617 C0.17525898 43.50434463 0.18651286 41.38712801 0.1953125 39.26953125 C0.20578613 37.99698486 0.21625977 36.72443848 0.22705078 35.41333008 C0.00673982 32.10132201 -0.68185398 30.00091289 -2 27 C-2.19107409 24.22661571 -2.28427704 21.58128882 -2.25 18.8125 C-2.24613281 18.06234619 -2.24226562 17.31219238 -2.23828125 16.53930664 C-2.15021861 10.86354689 -1.51029528 5.48830515 0 0 Z M4 4 C4.14308594 4.65226562 4.28617188 5.30453125 4.43359375 5.9765625 C5.14230003 9.75958775 5.63240946 13.55232668 6.0625 17.375 C6.154104 18.18775391 6.24570801 19.00050781 6.34008789 19.83789062 C7.13715554 27.73860969 7.09900303 35.58983163 6.83813477 43.52099609 C6.81807373 44.45250488 6.7980127 45.38401367 6.77734375 46.34375 C6.74890381 47.17068359 6.72046387 47.99761719 6.69116211 48.84960938 C6.83640235 51.0772659 6.83640235 51.0772659 8.33154297 52.78637695 C10.93752367 54.68194764 13.06526361 54.05679678 16.1875 53.6875 C17.27417969 53.56761719 18.36085938 53.44773438 19.48046875 53.32421875 C20.31191406 53.21722656 21.14335938 53.11023438 22 53 C23.23970338 48.53008358 22.76670747 44.51695387 22.125 40 C22.03347656 39.30132812 21.94195312 38.60265625 21.84765625 37.8828125 C21.46741569 35.04439709 21.05384073 32.24117696 20.4296875 29.4453125 C19.86388847 26.22540165 19.94452582 23.14104223 20 19.875 C20.11292924 14.84515855 20.11292924 14.84515855 19 10 C17.948125 10.103125 16.89625 10.20625 15.8125 10.3125 C11.06434992 9.92330737 10.06235346 8.48768033 7 5 C6.01 4.67 5.02 4.34 4 4 Z " fill="#C2BDB5" transform="translate(17,38)"/>
	

	<path d="M0 0 C1.91423658 0.81210037 3.52072017 1.52072017 5 3 C5.38235426 9.39881105 4.95477011 15.67464804 4 22 C5.98 21.34 7.96 20.68 10 20 C9.30204605 16.3911416 9.30204605 16.3911416 8.25 12.875 C8.1675 12.25625 8.085 11.6375 8 11 C9.25 9.625 9.25 9.625 11 8 C12.04622875 6.02379014 13.05439935 4.0262871 14 2 C14.66 2 15.32 2 16 2 C17.29885066 8.49425328 17.4425234 14.50864468 16 21 C16 22.32 16 23.64 16 25 C12.93466836 26.53266582 9.73245728 26.10276471 6.375 26.0625 C5.66859375 26.05798828 4.9621875 26.05347656 4.234375 26.04882812 C2.48954725 26.03703875 0.744763 26.01910324 -1 26 C-1.79953138 22.71303767 -2.09658936 21.28976808 -1 18 C-1.3158066 16.32992363 -1.65190657 14.66364655 -2 13 C-2.0659735 10.89676466 -2.08562245 8.79164276 -2.0625 6.6875 C-2.05347656 5.61886719 -2.04445313 4.55023438 -2.03515625 3.44921875 C-2.02355469 2.64097656 -2.01195313 1.83273437 -2 1 C-1.34 0.67 -0.68 0.34 0 0 Z " fill="#464442" transform="translate(67,14)"/>
	

	<path d="M0 0 C1.70840281 1.63412443 2.93453047 2.86906094 4 5 C5.32 5 6.64 5 8 5 C8.48082031 4.49855469 8.96164063 3.99710938 9.45703125 3.48046875 C11 2 11 2 13.26171875 1.92578125 C14.06222656 2.05339844 14.86273438 2.18101563 15.6875 2.3125 C16.89986328 2.49232422 16.89986328 2.49232422 18.13671875 2.67578125 C18.75160156 2.78277344 19.36648437 2.88976562 20 3 C20 4.98 20 6.96 20 9 C18.35 9 16.7 9 15 9 C16.45255699 12.82946843 18.42895561 14.12050295 22 16 C21.67 16.99 21.34 17.98 21 19 C18.71484375 19.94921875 18.71484375 19.94921875 15.9375 20.6875 C15.01839844 20.93886719 14.09929688 21.19023438 13.15234375 21.44921875 C12.44207031 21.63097656 11.73179688 21.81273438 11 22 C5.42857143 16.85714286 5.42857143 16.85714286 5 13 C4.236875 12.938125 3.47375 12.87625 2.6875 12.8125 C0 12 0 12 -1.9375 9.75 C-3 7 -3 7 -2.25 4.3125 C-1.8375 3.549375 -1.425 2.78625 -1 2 C-0.67 1.34 -0.34 0.68 0 0 Z " fill="#DDDBD7" transform="translate(19,26)"/>
	

	<path d="M0 0 C0.78890625 0.00515625 1.5778125 0.0103125 2.390625 0.015625 C8.22076437 0.09576437 8.22076437 0.09576437 9.375 1.25 C9.44744053 3.26964199 9.45877188 5.29167124 9.4375 7.3125 C9.42847656 8.41722656 9.41945312 9.52195312 9.41015625 10.66015625 C9.39855469 11.51480469 9.38695312 12.36945312 9.375 13.25 C10.035 13.25 10.695 13.25 11.375 13.25 C11.313125 12.38375 11.25125 11.5175 11.1875 10.625 C11.39955502 6.80800967 12.49544307 4.53922464 14.375 1.25 C15.60572344 4.94217033 14.97950995 6.64567314 14 10.375 C13.72414062 11.45007813 13.44828125 12.52515625 13.1640625 13.6328125 C12.375 16.25 12.375 16.25 11.375 17.25 C11.66230055 19.58944736 11.99436779 21.9239143 12.375 24.25 C14.025 24.25 15.675 24.25 17.375 24.25 C17.045 24.91 16.715 25.57 16.375 26.25 C14.04205225 26.29241723 11.70797433 26.29092937 9.375 26.25 C8.375 25.25 8.375 25.25 8.3125 22.6875 C8.333125 21.883125 8.35375 21.07875 8.375 20.25 C6.065 20.58 3.755 20.91 1.375 21.25 C1.375 20.26 1.375 19.27 1.375 18.25 C3.025 18.58 4.675 18.91 6.375 19.25 C6.354375 17.950625 6.33375 16.65125 6.3125 15.3125 C6.29100546 13.95834367 6.30351801 12.60243917 6.375 11.25 C6.705 10.92 7.035 10.59 7.375 10.25 C7.44648199 8.89756083 7.45899454 7.54165633 7.4375 6.1875 C7.416875 4.888125 7.39625 3.58875 7.375 2.25 C6.5396875 2.35828125 6.5396875 2.35828125 5.6875 2.46875 C0.5390555 3.09491217 -4.43963038 3.34427945 -9.625 3.25 C-9.67398438 3.81847656 -9.72296875 4.38695312 -9.7734375 4.97265625 C-10.25544501 9.95063032 -11.17470965 14.44591321 -12.625 19.25 C-12.769375 20.3225 -12.91375 21.395 -13.0625 22.5 C-13.69008584 25.56819743 -14.50389056 26.12889056 -16.625 28.25 C-16.39742269 30.41299211 -16.39742269 30.41299211 -15.625 32.25 C-16.945 31.59 -18.265 30.93 -19.625 30.25 C-19.625 29.59 -19.625 28.93 -19.625 28.25 C-20.615 28.25 -21.605 28.25 -22.625 28.25 C-22.955 27.59 -23.285 26.93 -23.625 26.25 C-24.615 25.92 -25.605 25.59 -26.625 25.25 C-26.295 24.59 -25.965 23.93 -25.625 23.25 C-23.645 23.91 -21.665 24.57 -19.625 25.25 C-19.64820313 24.693125 -19.67140625 24.13625 -19.6953125 23.5625 C-19.82511024 18.07390985 -19.15828434 13.5206649 -17.625 8.25 C-16.635 8.58 -15.645 8.91 -14.625 9.25 C-14.955 10.24 -15.285 11.23 -15.625 12.25 C-14.635 11.59 -13.645 10.93 -12.625 10.25 C-12.28573053 7.91752239 -11.95259934 5.58414529 -11.625 3.25 C-8.56041527 -0.81667011 -4.69374703 -0.12392731 0 0 Z " fill="#82807A" transform="translate(74.625,43.75)"/>
	

	<path d="M0 0 C0.33 0 0.66 0 1 0 C1.66 4.62 2.32 9.24 3 14 C5.11167047 14.0714691 5.11167047 14.0714691 7.5625 13.4375 C8.7690625 13.2209375 8.7690625 13.2209375 10 13 C11 14 11 14 11.125 17.375 C11 21 11 21 10 24 C9.77548542 26.22574335 9.59217122 28.45581519 9.4375 30.6875 C9.35371094 31.86699219 9.26992187 33.04648437 9.18359375 34.26171875 C9.12300781 35.16535156 9.06242188 36.06898437 9 37 C5.06329512 38.31223496 2.87511856 37.24296256 -1 36 C-1.02465098 31.03377651 -1.04283649 26.06758834 -1.05493164 21.10131836 C-1.0599719 19.41055684 -1.06680405 17.71979971 -1.07543945 16.02905273 C-1.08751857 13.60399293 -1.09323123 11.17899056 -1.09765625 8.75390625 C-1.10281754 7.99348526 -1.10797882 7.23306427 -1.11329651 6.44960022 C-1.11349238 4.6326743 -1.06197277 2.81586873 -1 1 C-0.67 0.67 -0.34 0.34 0 0 Z " fill="#848076" transform="translate(6,24)"/>
	

	<path d="M0 0 C3 1 3 1 5 4 C5.99 4.33 6.98 4.66 8 5 C8.33 6.65 8.66 8.3 9 10 C9.99 10 10.98 10 12 10 C12 10.66 12 11.32 12 12 C15.465 11.505 15.465 11.505 19 11 C19 11.66 19 12.32 19 13 C22.465 12.505 22.465 12.505 26 12 C26.99 14.97 27.98 17.94 29 21 C30.65 21 32.3 21 34 21 C34.33 18.03 34.66 15.06 35 12 C36.32 11.67 37.64 11.34 39 11 C44.38924732 17.12414468 44.27952878 24.28189975 44 32 C44.66 32 45.32 32 46 32 C45.98839844 31.24976562 45.97679687 30.49953125 45.96484375 29.7265625 C45.9062171 23.07662583 46.18230692 16.59995127 47 10 C48.65 10 50.3 10 52 10 C52 10.66 52 11.32 52 12 C52.66 12 53.32 12 54 12 C54.495 13.98 54.495 13.98 55 16 C54.21625 15.67 53.4325 15.34 52.625 15 C50.15667503 13.88133489 50.15667503 13.88133489 48 14 C48.19078125 15.25296875 48.3815625 16.5059375 48.578125 17.796875 C48.80324549 19.44775861 49.02713996 21.09880973 49.25 22.75 C49.37890625 23.575 49.5078125 24.4 49.640625 25.25 C50.43713823 31.42297754 50.43713823 31.42297754 48.046875 34.578125 C47.37140625 35.04734375 46.6959375 35.5165625 46 36 C44.35 35.34 42.7 34.68 41 34 C41.02320313 33.04738281 41.04640625 32.09476563 41.0703125 31.11328125 C41.08835938 29.85902344 41.10640625 28.60476562 41.125 27.3125 C41.14820313 26.07113281 41.17140625 24.82976563 41.1953125 23.55078125 C41.01032021 20.18762143 40.45767895 18.0014413 39 15 C38.34 15 37.68 15 37 15 C36.34 17.64 35.68 20.28 35 23 C30.25 24.125 30.25 24.125 28 23 C26.94647157 20.69034152 25.94280904 18.3570226 25 16 C21.04 16.66 17.08 17.32 13 18 C12.34 16.68 11.68 15.36 11 14 C10.484375 13.525625 9.96875 13.05125 9.4375 12.5625 C7.54736879 10.50800956 7.3675753 8.72005723 7 6 C4.03 5.505 4.03 5.505 1 5 C1.33 6.65 1.66 8.3 2 10 C0.5 8.875 0.5 8.875 -1 7 C-1.25 3.875 -1.25 3.875 -1 1 C-0.67 0.67 -0.34 0.34 0 0 Z " fill="#9B9A94" transform="translate(17,1)"/>
	

	<path d="M0 0 C3 1 3 1 5.25 3.5625 C7.86669295 6.37285623 7.86669295 6.37285623 11.8125 6.3125 C12.864375 6.209375 13.91625 6.10625 15 6 C16.82512693 11.47538078 16.7393839 17.30877901 16 23 C14.18005057 25.59272796 13.0710286 25.8944297 10 27 C8 27 8 27 5.453125 24.50390625 C2.52366161 20.83992615 2.07498484 17.51722054 1.75 12.9375 C1.15665087 6.42897365 1.15665087 6.42897365 0 0 Z " fill="#9A9993" transform="translate(21,42)"/>
	

	<path d="M0 0 C5.35122481 0.57628575 10.67669928 1.20716798 16 2 C17.125 5.75 17.125 5.75 16 8 C15.01 8 14.02 8 13 8 C12.34 13.61 11.68 19.22 11 25 C8.69 24.34 6.38 23.68 4 23 C2.79431947 18.32798795 2.90617574 13.78503708 3 9 C2.34 9 1.68 9 1 9 C0.67 6.03 0.34 3.06 0 0 Z " fill="#0B0A0B" transform="translate(44,44)"/>
	

	<path d="M0 0 C3 1 3 1 4.1875 3.0625 C4.455625 3.701875 4.72375 4.34125 5 5 C4.34 5.66 3.68 6.32 3 7 C2.3574765 9.06874034 2.3574765 9.06874034 2 11 C2.66 11 3.32 11 4 11 C4.39803945 15.5111138 3.02510766 18.03078899 1 22 C0.29241674 25.2366963 0.29241674 25.2366963 0 28 C-0.66 28 -1.32 28 -2 28 C-2.495 22.06 -2.495 22.06 -3 16 C-4.70027344 16.02320312 -6.40054688 16.04640625 -8.15234375 16.0703125 C-10.41405808 16.08908191 -12.6757772 16.10728085 -14.9375 16.125 C-16.05447266 16.14175781 -17.17144531 16.15851562 -18.32226562 16.17578125 C-24.88977896 16.21430039 -30.65339322 15.70947839 -37 14 C-27.121279 8.76267648 -12.9826219 10.88906443 -2 11 C-1.28715011 8.43262656 -1 6.52430463 -1 3.8125 C-1 1 -1 1 0 0 Z " fill="#D8D5D0" transform="translate(86,29)"/>
	

	<path d="M0 0 C1.38294718 0.01329757 2.76582404 0.03715018 4.1484375 0.0703125 C4.85484375 0.07933594 5.56125 0.08835938 6.2890625 0.09765625 C8.03399848 0.12123647 9.77876045 0.15710789 11.5234375 0.1953125 C12.68650193 3.74481284 12.44708799 6.75355198 12.0859375 10.4453125 C11.98410156 11.52296875 11.88226563 12.600625 11.77734375 13.7109375 C11.69355469 14.53078125 11.60976562 15.350625 11.5234375 16.1953125 C10.2034375 15.8653125 8.8834375 15.5353125 7.5234375 15.1953125 C6.8634375 12.2253125 6.2034375 9.2553125 5.5234375 6.1953125 C3.10758176 6.22624423 3.10758176 6.22624423 0.5234375 7.1953125 C-1.53165249 10.39211916 -2.51868979 13.34647513 -3.5390625 17.0078125 C-4.003125 18.585625 -4.003125 18.585625 -4.4765625 20.1953125 C-5.1365625 20.5253125 -5.7965625 20.8553125 -6.4765625 21.1953125 C-7.4665625 20.8653125 -8.4565625 20.5353125 -9.4765625 20.1953125 C-9.72666585 15.69345223 -9.72666585 15.69345223 -8.53125 13.3125 C-7.07049708 10.38017377 -6.63466969 7.42013866 -6.0390625 4.21875 C-5.00057909 0.48309439 -3.79603727 0.21326052 0 0 Z " fill="#141314" transform="translate(94.4765625,45.8046875)"/>
	

	<path d="M0 0 C2.14809171 3.22213757 2.29386153 4.27775401 2 8 C1.67 8.33 1.34 8.66 1 9 C0.71491101 10.60586451 0.48551807 12.22171176 0.28125 13.83984375 C0.08982422 15.3103418 0.08982422 15.3103418 -0.10546875 16.81054688 C-0.23566406 17.84244141 -0.36585937 18.87433594 -0.5 19.9375 C-0.75713725 21.96786593 -1.01740107 23.9978391 -1.28125 26.02734375 C-1.39533203 26.93218506 -1.50941406 27.83702637 -1.62695312 28.76928711 C-2 31 -2 31 -3 33 C-3.66 33 -4.32 33 -5 33 C-6.67557523 29.64884954 -6.42753983 25.87826288 -6.625 22.1875 C-6.6765625 21.37990234 -6.728125 20.57230469 -6.78125 19.74023438 C-7.01110407 15.6130018 -6.98589362 12.04581531 -6 8 C-5.96175377 5.66698014 -5.95425716 3.33288492 -6 1 C-4 0 -4 0 0 0 Z " fill="#D0CDC8" transform="translate(114,28)"/>
	

	<path d="M0 0 C-1.20381448 2.49361571 -2.45428722 4.68143083 -4 7 C-4.43658015 8.95695582 -4.43658015 8.95695582 -4.59765625 11.08984375 C-4.71657227 12.26643555 -4.71657227 12.26643555 -4.83789062 13.46679688 C-4.91201172 14.28212891 -4.98613281 15.09746094 -5.0625 15.9375 C-5.21757236 17.55102149 -5.37504425 19.16431455 -5.53515625 20.77734375 C-5.600979 21.49140381 -5.66680176 22.20546387 -5.73461914 22.94116211 C-6.00257269 25.01995904 -6.45168598 26.97871384 -7 29 C-8.65 29 -10.3 29 -12 29 C-12.99 26.69 -13.98 24.38 -15 22 C-14.35417969 21.79503906 -13.70835938 21.59007813 -13.04296875 21.37890625 C-10.69010333 20.13718109 -10.69010333 20.13718109 -10.42578125 17.21484375 C-10.38839844 16.13332031 -10.35101563 15.05179688 -10.3125 13.9375 C-10.06823821 8.06823821 -10.06823821 8.06823821 -9 7 C-8.8453125 5.2984375 -8.8453125 5.2984375 -8.6875 3.5625 C-8 0 -8 0 -6.1875 -1.5625 C-3.4306531 -2.11386938 -2.32303176 -1.49337756 0 0 Z " fill="#0E0D0E" transform="translate(72,49)"/>
	

	<path d="M0 0 C3.75757576 1.45454545 3.75757576 1.45454545 4.75 3.6875 C5.09045725 6.83672953 5.1757999 9.83560181 5 13 C4.34 13.66 3.68 14.32 3 15 C0.54772518 14.6617552 -1.22886822 13.88263168 -3.4375 12.75 C-6.08671866 11.65598266 -6.08671866 11.65598266 -8.6875 13.375 C-9.450625 13.91125 -10.21375 14.4475 -11 15 C-11.66 15 -12.32 15 -13 15 C-14 14 -15 13 -16 12 C-18.09989652 10.82425289 -18.09989652 10.82425289 -20 10 C-20 9.01 -20 8.02 -20 7 C-15.56923077 4.90769231 -15.56923077 4.90769231 -12.6875 5.375 C-12.130625 5.58125 -11.57375 5.7875 -11 6 C-11 6.66 -11 7.32 -11 8 C-8.03 8.33 -5.06 8.66 -2 9 C-1.855625 7.700625 -1.71125 6.40125 -1.5625 5.0625 C-1.125 1.125 -1.125 1.125 0 0 Z " fill="#3E3C3B" transform="translate(54,15)"/>
	

	<path d="M0 0 C1.32 0 2.64 0 4 0 C5.52647178 10.57495512 4.19449435 19.64744191 2 30 C0.33388095 30.042721 -1.33382885 30.04063832 -3 30 C-4 29 -4 29 -4.125 26.0625 C-4 23 -4 23 -3 21 C-2.77049681 18.795636 -2.58924067 16.58607827 -2.4375 14.375 C-2.35371094 13.18648437 -2.26992187 11.99796875 -2.18359375 10.7734375 C-2.12300781 9.85820313 -2.06242187 8.94296875 -2 8 C-1.34 8 -0.68 8 0 8 C0 5.36 0 2.72 0 0 Z " fill="#151314" transform="translate(116,37)"/>
	

	<path d="M0 0 C0.66 0 1.32 0 2 0 C3.26237731 2.52475462 3.09856404 4.31200466 3.0625 7.125 C3.05347656 8.03507812 3.04445313 8.94515625 3.03515625 9.8828125 C3.02355469 10.58148438 3.01195312 11.28015625 3 12 C5.64 12.33 8.28 12.66 11 13 C11.33 14.32 11.66 15.64 12 17 C11.236875 16.95875 10.47375 16.9175 9.6875 16.875 C6.77281584 16.77919176 6.77281584 16.77919176 4 19 C2.41455281 14.66644435 1.60281536 10.56727672 1 6 C1.02094727 6.99854004 1.04189453 7.99708008 1.06347656 9.02587891 C1.136167 12.74936443 1.1819042 16.4727879 1.21972656 20.19677734 C1.23977627 21.80495774 1.26702364 23.41306583 1.30175781 25.02099609 C1.35057264 27.3397002 1.37303428 29.65743625 1.390625 31.9765625 C1.41127014 32.68930328 1.43191528 33.40204407 1.45318604 34.13638306 C1.45544747 39.22815903 0.20961855 42.08683187 -3 46 C-3.99 46.495 -3.99 46.495 -5 47 C-4.855625 46.443125 -4.71125 45.88625 -4.5625 45.3125 C-4.376875 44.549375 -4.19125 43.78625 -4 43 C-3.82339844 42.27425781 -3.64679687 41.54851563 -3.46484375 40.80078125 C-2.90704367 37.43991859 -2.94403095 34.28211604 -3 30.875 C-3.09713151 21.55920506 -2.56581271 12.29549448 -2 3 C-1.34 3 -0.68 3 0 3 C0 2.01 0 1.02 0 0 Z " fill="#A89C8E" transform="translate(5,21)"/>
	

	<path d="M0 0 C1.5 1.375 1.5 1.375 3 3 C3 3.66 3 4.32 3 5 C5.33214148 6.20628008 7.49642139 7.1654738 10 8 C10 9.98 10 11.96 10 14 C7.03 13.505 7.03 13.505 4 13 C3.01 15.64 2.02 18.28 1 21 C0.01 21 -0.98 21 -2 21 C-1.814375 21.763125 -1.62875 22.52625 -1.4375 23.3125 C-1 26 -1 26 -2 29 C-2.66 29 -3.32 29 -4 29 C-4.09765625 22.84765625 -4.09765625 22.84765625 -4 21 C-3.67 20.67 -3.34 20.34 -3 20 C-2.83333333 17.5 -2.83333333 17.5 -3 15 C-3.33 14.67 -3.66 14.34 -4 14 C-4.6837704 8.39308276 -2.68743693 4.7270096 0 0 Z " fill="#74726B" transform="translate(118,16)"/>
	

	<path d="M0 0 C0.69609375 0.34804688 1.3921875 0.69609375 2.109375 1.0546875 C2.439375 2.0446875 2.769375 3.0346875 3.109375 4.0546875 C4.181875 3.3534375 5.254375 2.6521875 6.359375 1.9296875 C8.28515625 0.8125 8.28515625 0.8125 10.109375 0.0546875 C12.546875 0.8046875 12.546875 0.8046875 14.109375 2.0546875 C12.129375 2.7146875 10.149375 3.3746875 8.109375 4.0546875 C8.109375 6.0346875 8.109375 8.0146875 8.109375 10.0546875 C11.94162927 10.14380969 15.37499652 9.93336479 19.109375 9.0546875 C19.769375 10.0446875 20.429375 11.0346875 21.109375 12.0546875 C20.779375 12.7146875 20.449375 13.3746875 20.109375 14.0546875 C14.169375 14.0546875 8.229375 14.0546875 2.109375 14.0546875 C1.1412102 10.1820283 1.03314642 7.01857388 1.109375 3.0546875 C-0.47289465 2.85841359 -2.05651771 2.67303212 -3.640625 2.4921875 C-4.52234375 2.38777344 -5.4040625 2.28335937 -6.3125 2.17578125 C-8.77494951 2.06012074 -10.55600564 2.31830055 -12.890625 3.0546875 C-12.890625 2.3946875 -12.890625 1.7346875 -12.890625 1.0546875 C-8.61637245 -3.07708997 -5.12867452 -1.59322729 0 0 Z " fill="#555350" transform="translate(37.890625,25.9453125)"/>
	

	<path d="M0 0 C4.875 0.875 4.875 0.875 6 2 C6.07319621 4.69654854 6.09242537 7.36691458 6.0625 10.0625 C6.05798828 10.82111328 6.05347656 11.57972656 6.04882812 12.36132812 C6.0370068 14.24091871 6.01907078 16.12046899 6 18 C3.6875 18.6875 3.6875 18.6875 1 19 C-1.47426595 17.44946001 -1.92500125 16.30664045 -2.6171875 13.4765625 C-3.31950784 5.7084739 -3.31950784 5.7084739 -1.5625 1.8125 C-1.046875 1.214375 -0.53125 0.61625 0 0 Z " fill="#9B9993" transform="translate(122,28)"/>
	

	<path d="M0 0 C1.70840281 1.63412443 2.93453047 2.86906094 4 5 C7.87797662 5.43386092 7.87797662 5.43386092 9.75 3.5 C10.1625 3.005 10.575 2.51 11 2 C11.66 2.66 12.32 3.32 13 4 C12.96712417 6.72869407 12.43602229 9.2966618 12 12 C11.34 12 10.68 12 10 12 C9.67 13.32 9.34 14.64 9 16 C8.01 15.67 7.02 15.34 6 15 C5.67 14.34 5.34 13.68 5 13 C3.824375 12.8453125 3.824375 12.8453125 2.625 12.6875 C0 12 0 12 -1.9375 9.75 C-3 7 -3 7 -2.25 4.3125 C-1.8375 3.549375 -1.425 2.78625 -1 2 C-0.67 1.34 -0.34 0.68 0 0 Z " fill="#FCFCFC" transform="translate(19,26)"/>
	

	<path d="M0 0 C2.32158065 -0.34659295 2.32158065 -0.34659295 4 -1 C4.309375 0.093125 4.61875 1.18625 4.9375 2.3125 C5.58337897 4.55407994 6.2623117 6.7869351 7 9 C7.66 9.33 8.32 9.66 9 10 C9.103125 8.741875 9.20625 7.48375 9.3125 6.1875 C9.64065065 3.68202542 9.88788577 2.18882396 11.1875 0 C13.81240112 -1.44822131 16.06170416 -1.19588639 19 -1 C20.33583899 3.84241633 21.25328119 7.93437617 21 13 C18.82145293 9.7321794 17.50239966 6.61941735 16 3 C14.68 3 13.36 3 12 3 C11.67 5.97 11.34 8.94 11 12 C9.35 12 7.7 12 6 12 C4.515 7.545 4.515 7.545 3 3 C0.69 3.33 -1.62 3.66 -4 4 C-4 3.34 -4 2.68 -4 2 C-6.31 2.33 -8.62 2.66 -11 3 C-11 2.34 -11 1.68 -11 1 C-7.19794706 -1.585396 -4.37270758 -0.70275658 0 0 Z " fill="#D6D2CD" transform="translate(40,10)"/>
	

	

	<path d="M0 0 C0.66 0 1.32 0 2 0 C2 7.59 2 15.18 2 23 C-1.79557881 23 -3.62902617 22.49821059 -7 21 C-7 18.36 -7 15.72 -7 13 C-6.34 12.67 -5.68 12.34 -5 12 C-4.34 12.66 -3.68 13.32 -3 14 C-2.93941406 13.39671875 -2.87882813 12.7934375 -2.81640625 12.171875 C-2.69072266 10.97304688 -2.69072266 10.97304688 -2.5625 9.75 C-2.48128906 8.96109375 -2.40007813 8.1721875 -2.31640625 7.359375 C-1.53537285 1.53537285 -1.53537285 1.53537285 0 0 Z " fill="#575551" transform="translate(13,38)"/>
	

	<path d="M0 0 C0.721875 0.185625 1.44375 0.37125 2.1875 0.5625 C4.08432232 1.22642103 4.08432232 1.22642103 6 0 C6 2.31 6 4.62 6 7 C8.97 7.495 8.97 7.495 12 8 C12.33 8.99 12.66 9.98 13 11 C10.36 11 7.72 11 5 11 C4.67 10.01 4.34 9.02 4 8 C2.82630859 8.12568359 2.82630859 8.12568359 1.62890625 8.25390625 C0.61699219 8.35574219 -0.39492188 8.45757812 -1.4375 8.5625 C-2.95150391 8.71912109 -2.95150391 8.71912109 -4.49609375 8.87890625 C-5.32238281 8.91886719 -6.14867187 8.95882812 -7 9 C-8 8 -8 8 -8.25 5.0625 C-8.12625 3.5465625 -8.12625 3.5465625 -8 2 C-4.71570724 -0.18952851 -3.79033543 -0.27734162 0 0 Z " fill="#75746D" transform="translate(53,28)"/>
	

	<path d="M0 0 C1.875 0.125 1.875 0.125 4 1 C5.25 4.0625 5.25 4.0625 6 7 C9.34373475 6.44271087 12.03312999 5.64826111 15 4 C16.33554084 10.43487859 16.33554084 10.43487859 14.8125 13 C13 14 13 14 10.875 13.8125 C9 13 9 13 8 11 C5.97536745 10.34786708 5.97536745 10.34786708 4 10 C4 10.66 4 11.32 4 12 C3.01 12.33 2.02 12.66 1 13 C-1.70238949 8.94641576 -1.22937614 6.81689896 -1 2 C-0.67 1.34 -0.34 0.68 0 0 Z " fill="#444240" transform="translate(92,17)"/>
	

	<path d="M0 0 C0.99 0.33 1.98 0.66 3 1 C3 3.64 3 6.28 3 9 C2.34 9 1.68 9 1 9 C0.34 8.34 -0.32 7.68 -1 7 C-1.01981934 7.58491211 -1.03963867 8.16982422 -1.06005859 8.77246094 C-1.15553481 11.43208025 -1.26512142 14.09093838 -1.375 16.75 C-1.4059375 17.67039062 -1.436875 18.59078125 -1.46875 19.5390625 C-1.52675781 20.87324219 -1.52675781 20.87324219 -1.5859375 22.234375 C-1.6173584 23.05131836 -1.6487793 23.86826172 -1.68115234 24.70996094 C-2.02343693 27.16832958 -2.7739277 28.85759999 -4 31 C-5.32 31 -6.64 31 -8 31 C-8 30.34 -8 29.68 -8 29 C-8.66 29 -9.32 29 -10 29 C-10 28.34 -10 27.68 -10 27 C-8.68 26.67 -7.36 26.34 -6 26 C-5.9498877 25.38479492 -5.89977539 24.76958984 -5.84814453 24.13574219 C-5.61558163 21.33971386 -5.37042613 18.54492737 -5.125 15.75 C-5.04636719 14.78191406 -4.96773438 13.81382813 -4.88671875 12.81640625 C-4.80292969 11.88183594 -4.71914062 10.94726562 -4.6328125 9.984375 C-4.55949707 9.12553711 -4.48618164 8.26669922 -4.41064453 7.38183594 C-3.98069092 4.88800275 -3.33047925 3.14624318 -2 1 C-1.34 0.67 -0.68 0.34 0 0 Z " fill="#D8D5D0" transform="translate(72,53)"/>
	

	<path d="M0 0 C1.23072344 3.69217033 0.60450995 5.39567314 -0.375 9.125 C-0.65085937 10.20007813 -0.92671875 11.27515625 -1.2109375 12.3828125 C-2 15 -2 15 -3 16 C-2.71269945 18.33944736 -2.38063221 20.6739143 -2 23 C-0.35 23 1.3 23 3 23 C2.67 23.66 2.34 24.32 2 25 C-0.33294775 25.04241723 -2.66702567 25.04092937 -5 25 C-6 24 -6 24 -6.0625 21.4375 C-6.041875 20.633125 -6.02125 19.82875 -6 19 C-8.31 19.33 -10.62 19.66 -13 20 C-13 19.01 -13 18.02 -13 17 C-11.35 17.33 -9.7 17.66 -8 18 C-8.04125 16.783125 -8.0825 15.56625 -8.125 14.3125 C-8.13754508 10.78105873 -7.59998217 8.19996434 -6 5 C-5.67 5 -5.34 5 -5 5 C-5 7.31 -5 9.62 -5 12 C-4.34 12 -3.68 12 -3 12 C-3.061875 11.13375 -3.12375 10.2675 -3.1875 9.375 C-2.97544498 5.55800967 -1.87955693 3.28922464 0 0 Z " fill="#ABA8A2" transform="translate(89,45)"/>
	

	

	<path d="M0 0 C3.85558774 1.28519591 4.85899804 2.56073089 7 6 C7.33952681 8.88597788 7.47344586 11.32479802 7.375 14.1875 C7.37371094 14.91130859 7.37242188 15.63511719 7.37109375 16.38085938 C7.28172304 21.71827696 7.28172304 21.71827696 5 24 C2.6077134 20.41157009 2.36970401 17.29670827 1.9375 13.125 C1.45108558 8.71109066 0.96194258 4.34151075 0 0 Z " fill="#807F76" transform="translate(21,42)"/>
	

	<path d="M0 0 C1.65 0 3.3 0 5 0 C5 0.66 5 1.32 5 2 C5.66 2 6.32 2 7 2 C7.33 3.32 7.66 4.64 8 6 C6.824375 5.505 6.824375 5.505 5.625 5 C3.15667503 3.88133489 3.15667503 3.88133489 1 4 C1.28617187 5.87945312 1.28617187 5.87945312 1.578125 7.796875 C1.80324549 9.44775861 2.02713996 11.09880973 2.25 12.75 C2.37890625 13.575 2.5078125 14.4 2.640625 15.25 C3.43713823 21.42297754 3.43713823 21.42297754 1.046875 24.578125 C0.03367187 25.28195313 0.03367187 25.28195313 -1 26 C-3.475 25.01 -3.475 25.01 -6 24 C-5.34 20.04 -4.68 16.08 -4 12 C-3.67 12 -3.34 12 -3 12 C-3 15.3 -3 18.6 -3 22 C-2.34 22 -1.68 22 -1 22 C-1.01160156 21.24976562 -1.02320313 20.49953125 -1.03515625 19.7265625 C-1.0937829 13.07662583 -0.81769308 6.59995127 0 0 Z " fill="#C0BCB6" transform="translate(64,11)"/>
	

	<path d="M0 0 C2.3125 0 2.3125 0 5 1 C5.71875 2.7421875 5.71875 2.7421875 6.3125 4.875 C7.14205573 7.59789469 7.49620294 8.69290458 9.9609375 10.1953125 C12.42362852 11.12316478 12.42362852 11.12316478 16 12 C16 12.66 16 13.32 16 14 C18.64 13.67 21.28 13.34 24 13 C24.66 9.37 25.32 5.74 26 2 C26.33 2 26.66 2 27 2 C27.02696365 3.79158489 27.04637917 5.58328473 27.0625 7.375 C27.07410156 8.37273438 27.08570312 9.37046875 27.09765625 10.3984375 C27 13 27 13 26 15 C14.47835991 15.3690205 14.47835991 15.3690205 9 13 C9 12.34 9 11.68 9 11 C8.38125 10.773125 7.7625 10.54625 7.125 10.3125 C4.3780195 8.61583557 4.13364727 6.94748289 3 4 C2.01 3.67 1.02 3.34 0 3 C-0.04898438 3.63808594 -0.09796875 4.27617188 -0.1484375 4.93359375 C-0.22320312 5.75988281 -0.29796875 6.58617187 -0.375 7.4375 C-0.47941406 8.67306641 -0.47941406 8.67306641 -0.5859375 9.93359375 C-0.72257812 10.61550781 -0.85921875 11.29742187 -1 12 C-1.99 12.495 -1.99 12.495 -3 13 C-2.88557539 11.39504433 -2.75805306 9.79101881 -2.625 8.1875 C-2.55539063 7.29417969 -2.48578125 6.40085937 -2.4140625 5.48046875 C-2 3 -2 3 0 0 Z " fill="#C3C0BA" transform="translate(95,54)"/>
	

	<path d="M0 0 C1.32 0 2.64 0 4 0 C4 2.31 4 4.62 4 7 C3.01 7.495 3.01 7.495 2 8 C2.01160156 8.9178125 2.02320312 9.835625 2.03515625 10.78125 C2.08301493 17.29003027 2.02900697 23.56870645 1 30 C0.34 30 -0.32 30 -1 30 C-1.02465746 25.8882744 -1.04283959 21.77657722 -1.05493164 17.66479492 C-1.0599708 16.26504772 -1.06680216 14.8653058 -1.07543945 13.46557617 C-1.0875232 11.45754223 -1.09269807 9.44947043 -1.09765625 7.44140625 C-1.10289307 6.23170166 -1.10812988 5.02199707 -1.11352539 3.77563477 C-1 1 -1 1 0 0 Z " fill="#FDFDFD" transform="translate(110,28)"/>
	

	<path d="M0 0 C2.97 0.495 2.97 0.495 6 1 C6.86524753 3.43407005 7.71742865 5.87143184 8.5625 8.3125 C8.80935547 9.00279297 9.05621094 9.69308594 9.31054688 10.40429688 C11.11328125 15.66015625 11.11328125 15.66015625 10 19 C9.01 18.67 8.02 18.34 7 18 C6.67 15.69 6.34 13.38 6 11 C5.34 11 4.68 11 4 11 C0.72962401 7.72962401 0.43143987 4.4869746 0 0 Z " fill="#0C0B0C" transform="translate(18,6)"/>
	

	<path d="M0 0 C1.2065625 0.0309375 1.2065625 0.0309375 2.4375 0.0625 C3.0975 1.3825 3.7575 2.7025 4.4375 4.0625 C5.18 3.7325 5.9225 3.4025 6.6875 3.0625 C9.4375 2.0625 9.4375 2.0625 13.4375 2.0625 C13.1075 3.0525 12.7775 4.0425 12.4375 5.0625 C11.7775 5.0625 11.1175 5.0625 10.4375 5.0625 C9.7775 7.7025 9.1175 10.3425 8.4375 13.0625 C7.1175 13.3925 5.7975 13.7225 4.4375 14.0625 C2.78373289 12.40873289 2.80278792 10.25301636 2.375 8 C2.19839844 7.08089844 2.02179688 6.16179688 1.83984375 5.21484375 C1.70707031 4.50457031 1.57429688 3.79429688 1.4375 3.0625 C0.4475 3.0625 -0.5425 3.0625 -1.5625 3.0625 C-2.2225 4.0525 -2.8825 5.0425 -3.5625 6.0625 C-3.605221 4.39638095 -3.60313832 2.72867115 -3.5625 1.0625 C-2.5625 0.0625 -2.5625 0.0625 0 0 Z " fill="#BFBAB2" transform="translate(81.5625,10.9375)"/>
	

	<path d="M0 0 C0.33 0 0.66 0 1 0 C1.33 4.29 1.66 8.58 2 13 C0.02 13 -1.96 13 -4 13 C-4.25523438 12.15115234 -4.25523438 12.15115234 -4.515625 11.28515625 C-4.75796875 10.55167969 -5.0003125 9.81820312 -5.25 9.0625 C-5.59804687 7.96615234 -5.59804687 7.96615234 -5.953125 6.84765625 C-6.29859375 6.23792969 -6.6440625 5.62820312 -7 5 C-8.32 4.67 -9.64 4.34 -11 4 C-11.99 8.62 -12.98 13.24 -14 18 C-15.65 18.33 -17.3 18.66 -19 19 C-19.33 18.01 -19.66 17.02 -20 16 C-18.68 15.67 -17.36 15.34 -16 15 C-15.90203125 14.40832031 -15.8040625 13.81664062 -15.703125 13.20703125 C-14.74230199 8.12957861 -13.7014799 4.82486256 -10 1 C-8.35 1.33 -6.7 1.66 -5 2 C-4.67 4.97 -4.34 7.94 -4 11 C-2.68 11.33 -1.36 11.66 0 12 C-0.185625 11.13375 -0.37125 10.2675 -0.5625 9.375 C-1.00667933 5.94847372 -0.71954492 3.35787629 0 0 Z " fill="#514F4C" transform="translate(106,50)"/>
	

	

	<path d="M0 0 C1.8125 0.1875 1.8125 0.1875 4 1 C5.875 3.3125 5.875 3.3125 7 6 C6.13609919 8.74877531 5.04480351 9.95519649 3 12 C3.309375 10.6078125 3.309375 10.6078125 3.625 9.1875 C4.36692966 5.84826598 4.36692966 5.84826598 2 3 C1.34 3 0.68 3 0 3 C0.02320312 3.62648438 0.04640625 4.25296875 0.0703125 4.8984375 C0.09738281 6.12433594 0.09738281 6.12433594 0.125 7.375 C0.14820312 8.18710937 0.17140625 8.99921875 0.1953125 9.8359375 C0 12 0 12 -2 14 C-3.87939453 14.22705078 -3.87939453 14.22705078 -6.1328125 14.1953125 C-7.34130859 14.18564453 -7.34130859 14.18564453 -8.57421875 14.17578125 C-9.41597656 14.15902344 -10.25773437 14.14226563 -11.125 14.125 C-12.39923828 14.11146484 -12.39923828 14.11146484 -13.69921875 14.09765625 C-15.79959884 14.07405647 -17.89983444 14.03818483 -20 14 C-20 13.67 -20 13.34 -20 13 C-11.585 12.505 -11.585 12.505 -3 12 C-3.33 9.69 -3.66 7.38 -4 5 C-2.0625 2.0625 -2.0625 2.0625 0 0 Z " fill="#A6A39D" transform="translate(86,27)"/>
	

	<path d="M0 0 C0.33 1.32 0.66 2.64 1 4 C2.32 4 3.64 4 5 4 C5 4.66 5 5.32 5 6 C4.34 6 3.68 6 3 6 C3.7734375 7.36125 3.7734375 7.36125 4.5625 8.75 C6 12 6 12 5.75 14.3125 C5 16 5 16 4 17 C2.33382885 17.04063832 0.66611905 17.042721 -1 17 C-2.3357457 13.22628488 -1.72408671 10.14168653 -1.0625 6.25 C-0.86785156 5.07953125 -0.67320313 3.9090625 -0.47265625 2.703125 C-0.31667969 1.81109375 -0.16070312 0.9190625 0 0 Z " fill="#817F78" transform="translate(72,19)"/>
	

	<path d="M0 0 C0.99 0.33 1.98 0.66 3 1 C4.61729417 4.67566856 4.06546005 9.07239675 4 13 C0.25 14.125 0.25 14.125 -2 13 C-2 9.04 -2 5.08 -2 1 C-1.34 0.67 -0.68 0.34 0 0 Z " fill="#181617" transform="translate(67,14)"/>
	

	<path d="M0 0 C0.33 0 0.66 0 1 0 C1.31416607 5.23610116 0.77647622 8.51492303 -2 13 C-6.52017268 15.26008634 -12.45509745 14.49436882 -17.125 13 C-19.3339602 10.64377579 -19.28483861 9.93823726 -19.3125 6.8125 C-19.1578125 4.9253125 -19.1578125 4.9253125 -19 3 C-16.67210485 5.83395931 -15.92622107 7.29511572 -15 11 C-11.37 11 -7.74 11 -4 11 C-3.67 10.34 -3.34 9.68 -3 9 C-2.34 9 -1.68 9 -1 9 C-1.020625 7.700625 -1.04125 6.40125 -1.0625 5.0625 C-1.08399454 3.70834367 -1.07148199 2.35243917 -1 1 C-0.67 0.67 -0.34 0.34 0 0 Z " fill="#D4D1CC" transform="translate(19,92)"/>
	

	<path d="M0 0 C0.33 0 0.66 0 1 0 C1 11.88 1 23.76 1 36 C1.66 36.33 2.32 36.66 3 37 C-0.75 42.875 -0.75 42.875 -3 44 C-2.855625 43.443125 -2.71125 42.88625 -2.5625 42.3125 C-2.376875 41.549375 -2.19125 40.78625 -2 40 C-1.82339844 39.27425781 -1.64679687 38.54851563 -1.46484375 37.80078125 C-0.90704367 34.43991859 -0.94403095 31.28211604 -1 27.875 C-1.09713151 18.55920506 -0.56581271 9.29549448 0 0 Z " fill="#C3BEB6" transform="translate(3,24)"/>
	

	<path d="M0 0 C0.66 0.33 1.32 0.66 2 1 C5.83588262 1.17048367 9.2651627 0.87878525 13 0 C13.66 0.99 14.32 1.98 15 3 C14.67 3.66 14.34 4.32 14 5 C8.06 5 2.12 5 -4 5 C-2 1 -2 1 0 0 Z " fill="#474543" transform="translate(44,35)"/>
	

	<path d="M0 0 C1.8125 1 1.8125 1 3.1875 3.875 C3.39375 4.90625 3.6 5.9375 3.8125 7 C2.8225 8.485 2.8225 8.485 1.8125 10 C1.1525 10 0.4925 10 -0.1875 10 C-1.1875 9 -2.1875 8 -3.1875 7 C-5.28739652 5.82425289 -5.28739652 5.82425289 -7.1875 5 C-7.1875 4.01 -7.1875 3.02 -7.1875 2 C-4.70410864 0.82728741 -2.76682125 0 0 0 Z " fill="#090809" transform="translate(41.1875,20)"/>
	

	<path d="M0 0 C-0.144375 0.804375 -0.28875 1.60875 -0.4375 2.4375 C-1.09688339 6.61359481 -1.56091353 10.79598059 -2 15 C-2.99 15.33 -3.98 15.66 -5 16 C-5.94324258 11.68803391 -6.48041715 7.37934119 -7 3 C-3.375 0 -3.375 0 0 0 Z " fill="#090809" transform="translate(82,47)"/>
	

	

	<path d="M0 0 C5.3503559 0.57021934 10.67787852 1.20734361 16 2 C17.125 5.75 17.125 5.75 16 8 C15.01 8 14.02 8 13 8 C12.67 10.64 12.34 13.28 12 16 C11.67 16 11.34 16 11 16 C10.82164485 11.45194365 11.00214565 8.1205746 13 4 C11.948125 4.04125 10.89625 4.0825 9.8125 4.125 C6.25989827 4.00852125 4.15133359 3.52791932 1 2 C0.67 2.99 0.34 3.98 0 5 C0 3.35 0 1.7 0 0 Z " fill="#494745" transform="translate(44,44)"/>
	

	<path d="M0 0 C2.72106694 2.72106694 2.60655572 4.84776311 3.125 8.625 C3.29257812 9.81351563 3.46015625 11.00203125 3.6328125 12.2265625 C3.75398438 13.14179687 3.87515625 14.05703125 4 15 C2.02 15.99 2.02 15.99 0 17 C-2.23465229 13.64802157 -2.27108649 12.42208754 -2.25 8.5 C-2.25515625 7.5409375 -2.2603125 6.581875 -2.265625 5.59375 C-2 3 -2 3 0 0 Z " fill="#C2BCB5" transform="translate(30,72)"/>
	

	<path d="M0 0 C2.3125 -0.3125 2.3125 -0.3125 5 0 C6.875 2.375 6.875 2.375 8 5 C7.67 5.66 7.34 6.32 7 7 C6.38125 6.195625 5.7625 5.39125 5.125 4.5625 C3.25835959 1.96125481 3.25835959 1.96125481 1 1 C1.30421875 1.62777344 1.6084375 2.25554688 1.921875 2.90234375 C3.37582872 7.07982671 3.79585623 11.17800905 4.25 15.5625 C4.353125 16.41263672 4.45625 17.26277344 4.5625 18.13867188 C4.65015625 18.96044922 4.7378125 19.78222656 4.828125 20.62890625 C4.9504248 21.7437439 4.9504248 21.7437439 5.07519531 22.88110352 C4.98674848 25.37340893 4.24858303 26.86685319 3 29 C2.66304138 26.27123692 2.33031571 23.54206837 2 20.8125 C1.85691406 19.65911133 1.85691406 19.65911133 1.7109375 18.48242188 C1.33254765 15.33367777 0.99960403 12.29222247 1.00390625 9.1171875 C0.99893386 6.42215018 0.00355377 4.47543263 -1 2 C-0.67 1.34 -0.34 0.68 0 0 Z " fill="#B2ABA2" transform="translate(20,41)"/>
	

	<path d="M0 0 C3.375 -0.125 3.375 -0.125 7 0 C9.49505962 2.49505962 9.35948376 3.67328888 9.625 7.125 C9.69976562 8.03507812 9.77453125 8.94515625 9.8515625 9.8828125 C9.90054688 10.58148438 9.94953125 11.28015625 10 12 C10.66 12 11.32 12 12 12 C12.33 10.68 12.66 9.36 13 8 C14.125 11.75 14.125 11.75 13 14 C11.68 14 10.36 14 9 14 C8.01 9.05 8.01 9.05 7 4 C6.34 4 5.68 4 5 4 C5 3.34 5 2.68 5 2 C3.35 2 1.7 2 0 2 C0 4.31 0 6.62 0 9 C-0.66 8.01 -1.32 7.02 -2 6 C-1.125 2.8125 -1.125 2.8125 0 0 Z " fill="#C7C4BE" transform="translate(64,9)"/>
	

	<path d="M0 0 C3 1 3 1 5 4 C5.99 4.33 6.98 4.66 8 5 C8.33 6.65 8.66 8.3 9 10 C9.99 10 10.98 10 12 10 C12 10.66 12 11.32 12 12 C15.465 11.505 15.465 11.505 19 11 C17.375 12.5625 17.375 12.5625 15 14 C11.875 13.9375 11.875 13.9375 9 13 C7.13209062 10.45285085 7 9.19131 7 6 C4.03 5.505 4.03 5.505 1 5 C1.33 6.65 1.66 8.3 2 10 C0.5 8.875 0.5 8.875 -1 7 C-1.25 3.875 -1.25 3.875 -1 1 C-0.67 0.67 -0.34 0.34 0 0 Z " fill="#B8B4AD" transform="translate(17,1)"/>
	

	<path d="M0 0 C0.66 0 1.32 0 2 0 C2.02694851 1.95825873 2.04637218 3.91662226 2.0625 5.875 C2.07410156 6.96554688 2.08570312 8.05609375 2.09765625 9.1796875 C2 12 2 12 1 14 C-0.9375 13.25 -0.9375 13.25 -3 12 C-4.02231108 9.52941488 -4.14313863 8.39417069 -3.22265625 5.859375 C-2.83980469 5.16328125 -2.45695312 4.4671875 -2.0625 3.75 C-1.68222656 3.04359375 -1.30195312 2.3371875 -0.91015625 1.609375 C-0.60980469 1.07828125 -0.30945313 0.5471875 0 0 Z " fill="#0A090A" transform="translate(81,16)"/>
	

	<path d="M0 0 C1.32 0 2.64 0 4 0 C4 4.62 4 9.24 4 14 C2.68 14 1.36 14 0 14 C0.33 12.02 0.66 10.04 1 8 C0.34 8 -0.32 8 -1 8 C-1.04241723 5.66705225 -1.04092937 3.33297433 -1 1 C-0.67 0.67 -0.34 0.34 0 0 Z " fill="#5B5A55" transform="translate(32,48)"/>
	

	

	

	<path d="M0 0 C2.39453125 0.15625 2.39453125 0.15625 5 1 C6.51171875 3.03125 6.51171875 3.03125 7.6875 5.5 C9.15361193 8.91419023 9.15361193 8.91419023 12 11 C12 11.99 12 12.98 12 14 C10.68 13.67 9.36 13.34 8 13 C7.34 10.69 6.68 8.38 6 6 C5.34 6 4.68 6 4 6 C4 5.34 4 4.68 4 4 C3.01 4.33 2.02 4.66 1 5 C0.67 6.65 0.34 8.3 0 10 C-0.33 10 -0.66 10 -1 10 C-1.02689216 8.52093108 -1.04634621 7.04172517 -1.0625 5.5625 C-1.07410156 4.73878906 -1.08570312 3.91507813 -1.09765625 3.06640625 C-1 1 -1 1 0 0 Z " fill="#D4D0CB" transform="translate(116,10)"/>
	

	<path d="M0 0 C2.0625 0.4375 2.0625 0.4375 4 1 C3.91621094 1.61488281 3.83242187 2.22976562 3.74609375 2.86328125 C3.64425781 3.67152344 3.54242188 4.47976562 3.4375 5.3125 C3.33308594 6.11300781 3.22867188 6.91351563 3.12109375 7.73828125 C2.85244822 10.16817116 2.85244822 10.16817116 4 13 C2.02 13.99 2.02 13.99 0 15 C-1.37252731 12.25494537 -1.13229255 9.99672588 -1.125 6.9375 C-1.12757812 5.85339844 -1.13015625 4.76929688 -1.1328125 3.65234375 C-1 1 -1 1 0 0 Z " fill="#CEC9C3" transform="translate(122,30)"/>
	

	<path d="M0 0 C0.99 0.33 1.98 0.66 3 1 C3.25 7.625 3.25 7.625 1 11 C1.30840599 13.15274948 1.30840599 13.15274948 2 15 C0.68 14.34 -0.64 13.68 -2 13 C-2 12.34 -2 11.68 -2 11 C-2.99 11 -3.98 11 -5 11 C-5 10.34 -5 9.68 -5 9 C-3.68 9.33 -2.36 9.66 -1 10 C-1.020625 8.72125 -1.04125 7.4425 -1.0625 6.125 C-1.125 2.25 -1.125 2.25 0 0 Z " fill="#95938C" transform="translate(57,61)"/>
	

	<path d="M0 0 C0.33 0.99 0.66 1.98 1 3 C4.96 3.33 8.92 3.66 13 4 C12.34 5.32 11.68 6.64 11 8 C8.8359375 8.609375 8.8359375 8.609375 6.375 8.75 C5.55773437 8.80671875 4.74046875 8.8634375 3.8984375 8.921875 C3.27195312 8.94765625 2.64546875 8.9734375 2 9 C2 7.35 2 5.7 2 4 C1.34 4 0.68 4 0 4 C0 2.68 0 1.36 0 0 Z " fill="#BFBBB5" transform="translate(88,36)"/>
	

	<path d="M0 0 C0.66 0.33 1.32 0.66 2 1 C2.09945415 7.11090483 2.0712828 12.97403427 1 19 C-0.98 19.33 -2.96 19.66 -5 20 C-4.67 17.03 -4.34 14.06 -4 11 C-2.68 11 -1.36 11 0 11 C0 7.37 0 3.74 0 0 Z " fill="#3B3939" transform="translate(70,16)"/>
	

	<path d="M0 0 C0.99 0 1.98 0 3 0 C3 0.66 3 1.32 3 2 C3.66 2 4.32 2 5 2 C5.33 3.65 5.66 5.3 6 7 C5.34 7 4.68 7 4 7 C2.375 5 2.375 5 1 3 C0.76925781 3.78246094 0.53851563 4.56492187 0.30078125 5.37109375 C-0.02535156 6.38300781 -0.35148437 7.39492188 -0.6875 8.4375 C-1.00074219 9.44683594 -1.31398438 10.45617187 -1.63671875 11.49609375 C-3 14 -3 14 -5.64453125 14.84765625 C-6.42183594 14.89792969 -7.19914062 14.94820312 -8 15 C-7.67 13.02 -7.34 11.04 -7 9 C-5.68 9 -4.36 9 -3 9 C-2.01 6.03 -1.02 3.06 0 0 Z " fill="#A5A39D" transform="translate(117,14)"/>
	

	<path d="M0 0 C2.92249481 2.10054314 3.22587214 3.95392463 4 7.4375 C4.14529282 10.13026019 4.09313079 12.73670701 4 15.4375 C3.67 15.4375 3.34 15.4375 3 15.4375 C2.34 11.8075 1.68 8.1775 1 4.4375 C0.01 4.1075 -0.98 3.7775 -2 3.4375 C-2.66 6.0775 -3.32 8.7175 -4 11.4375 C-6.375 12.0625 -6.375 12.0625 -9 12.4375 C-9.66 11.7775 -10.32 11.1175 -11 10.4375 C-9.02 10.4375 -7.04 10.4375 -5 10.4375 C-5.020625 9.344375 -5.04125 8.25125 -5.0625 7.125 C-5 3.4375 -5 3.4375 -4 0.4375 C-2 -0.5625 -2 -0.5625 0 0 Z " fill="#87867F" transform="translate(56,12.5625)"/>
	

	<path d="M0 0 C0.99 0.33 1.98 0.66 3 1 C2.34 1 1.68 1 1 1 C-0.59350336 12.59633261 -0.59350336 12.59633261 -1.75390625 24.2421875 C-2 26 -2 26 -3 27 C-4.66617115 27.04063832 -6.33388095 27.042721 -8 27 C-8 26.34 -8 25.68 -8 25 C-6.68 24.67 -5.36 24.34 -4 24 C-3.95101562 23.17757812 -3.90203125 22.35515625 -3.8515625 21.5078125 C-2.58415842 2.58415842 -2.58415842 2.58415842 0 0 Z " fill="#464442" transform="translate(69,53)"/>
	

	<path d="M0 0 C1.33554084 6.43487859 1.33554084 6.43487859 -0.1875 9 C-2 10 -2 10 -4.1875 9.6875 C-4.785625 9.460625 -5.38375 9.23375 -6 9 C-6.25 6.75 -6.25 6.75 -6 4 C-2.75675676 0 -2.75675676 0 0 0 Z " fill="#393737" transform="translate(107,21)"/>
	

	<path d="M0 0 C0.66 0 1.32 0 2 0 C4.31332486 3.46998729 4.33957563 4.92509248 4 9 C3.01 10.485 3.01 10.485 2 12 C1.34 12 0.68 12 0 12 C-1.12256131 9.75487738 -1.13413762 8.48543351 -1.125 6 C-1.12886719 4.948125 -1.12886719 4.948125 -1.1328125 3.875 C-1 2 -1 2 0 0 Z " fill="#BEB9B2" transform="translate(13,18)"/>
	

	

	<path d="M0 0 C0.33 0.66 0.66 1.32 1 2 C2.65 1.67 4.3 1.34 6 1 C6.33 1.66 6.66 2.32 7 3 C5.68 3 4.36 3 3 3 C3 4.98 3 6.96 3 9 C2.34 9 1.68 9 1 9 C0.67 13.95 0.34 18.9 0 24 C-0.33 24 -0.66 24 -1 24 C-1.89405005 15.61526036 -2.27904619 8.17443013 0 0 Z " fill="#BBB6AF" transform="translate(17,38)"/>
	

	<path d="M0 0 C1.98 0.495 1.98 0.495 4 1 C4.6875 3.25 4.6875 3.25 5 6 C3.5625 8.3125 3.5625 8.3125 2 10 C1.01 9.67 0.02 9.34 -1 9 C-1.125 2.25 -1.125 2.25 0 0 Z " fill="#222122" transform="translate(117,21)"/>
	

	<path d="M0 0 C1.2065625 0.0309375 1.2065625 0.0309375 2.4375 0.0625 C1.71741594 4.67103797 0.12454061 8.73487409 -1.5625 13.0625 C-1.8925 13.0625 -2.2225 13.0625 -2.5625 13.0625 C-2.75647476 11.08395742 -2.94251321 9.1046352 -3.125 7.125 C-3.22941406 6.02285156 -3.33382812 4.92070313 -3.44140625 3.78515625 C-3.48136719 2.88667969 -3.52132812 1.98820312 -3.5625 1.0625 C-2.5625 0.0625 -2.5625 0.0625 0 0 Z " fill="#F9F9F9" transform="translate(87.5625,40.9375)"/>
	

	<path d="M0 0 C0.99 0.33 1.98 0.66 3 1 C3 1.66 3 2.32 3 3 C3.66 3 4.32 3 5 3 C5.33 5.31 5.66 7.62 6 10 C6.66 10 7.32 10 8 10 C8 8.35 8 6.7 8 5 C8.66 5 9.32 5 10 5 C10 6.98 10 8.96 10 11 C8.35 11.33 6.7 11.66 5 12 C4.67 9.69 4.34 7.38 4 5 C3.34 5 2.68 5 2 5 C2 4.01 2 3.02 2 2 C0.68 1.67 -0.64 1.34 -2 1 C-1.34 0.67 -0.68 0.34 0 0 Z " fill="#CCC8C2" transform="translate(93,11)"/>
	

	<path d="M0 0 C1.65 0 3.3 0 5 0 C5 0.66 5 1.32 5 2 C5.66 2 6.32 2 7 2 C7.33 3.32 7.66 4.64 8 6 C7.21625 5.67 6.4325 5.34 5.625 5 C3.15667503 3.88133489 3.15667503 3.88133489 1 4 C1.33 8.62 1.66 13.24 2 18 C1.34 18 0.68 18 0 18 C0 12.06 0 6.12 0 0 Z " fill="#8A8881" transform="translate(64,11)"/>
	

	<path d="M0 0 C1.48828125 1.05078125 1.48828125 1.05078125 3 3 C3.29296875 6.35546875 3.29296875 6.35546875 3.1875 10.1875 C3.14689453 12.09595703 3.14689453 12.09595703 3.10546875 14.04296875 C3.05326172 15.50669922 3.05326172 15.50669922 3 17 C2.67 17 2.34 17 2 17 C1.67 13.04 1.34 9.08 1 5 C0.34 5 -0.32 5 -1 5 C-1.33 5.99 -1.66 6.98 -2 8 C-2.33 6.02 -2.66 4.04 -3 2 C-2.01 1.34 -1.02 0.68 0 0 Z " fill="#D2CEC8" transform="translate(6,16)"/>
	

	

	<path d="M0 0 C2.52259061 1.97420135 2.9929808 2.96745642 3.6875 6.1875 C3.790625 7.115625 3.89375 8.04375 4 9 C1.625 9.1875 1.625 9.1875 -1 9 C-1.66 8.01 -2.32 7.02 -3 6 C-2.01 4.02 -1.02 2.04 0 0 Z " fill="#0B0A0B" transform="translate(55,19)"/>
	

	<path d="M0 0 C0.99 0.495 0.99 0.495 2 1 C2.81640625 3.6171875 2.81640625 3.6171875 3.5625 6.875 C4.28372947 9.9766604 4.9927143 12.9781429 6 16 C6.5775 15.649375 7.155 15.29875 7.75 14.9375 C10 14 10 14 14 15 C9.545 16.485 9.545 16.485 5 18 C2.68622795 14.52934193 2.11015527 11.32959845 1.375 7.3125 C1.2409375 6.61060547 1.106875 5.90871094 0.96875 5.18554688 C0.6397283 3.45818294 0.31904688 1.72923409 0 0 Z " fill="#B1ADA7" transform="translate(19,13)"/>
	

	<path d="M0 0 C-0.66 0.66 -1.32 1.32 -2 2 C-2.185625 3.7325 -2.185625 3.7325 -2.375 5.5 C-2.58125 6.655 -2.7875 7.81 -3 9 C-4.98 9.99 -4.98 9.99 -7 11 C-6.67 7.7 -6.34 4.4 -6 1 C-6.66 0.67 -7.32 0.34 -8 0 C-2.25 -1.125 -2.25 -1.125 0 0 Z " fill="#B2AFA8" transform="translate(66,45)"/>
	

	<path d="M0 0 C0.33 0 0.66 0 1 0 C1.09909001 7.74003104 1.1692368 15.33500323 0 23 C-1 24 -1 24 -3.5625 24.0625 C-4.366875 24.041875 -5.17125 24.02125 -6 24 C-6 23.34 -6 22.68 -6 22 C-4.68 21.67 -3.36 21.34 -2 21 C-1.01 10.605 -1.01 10.605 0 0 Z " fill="#93928B" transform="translate(68,58)"/>
	

	<path d="M0 0 C3.08636325 2.38944252 4.28846349 4.20427609 4.8125 8 C5.04770562 10.86523206 5.02464201 13.2676213 4 16 C5.32 16.66 6.64 17.32 8 18 C6.35 17.67 4.7 17.34 3 17 C1.79431947 12.32798795 1.90617574 7.78503708 2 3 C1.34 3 0.68 3 0 3 C0 2.01 0 1.02 0 0 Z " fill="#3A3838" transform="translate(45,50)"/>
	

	<path d="M0 0 C1.32 0 2.64 0 4 0 C4.33 4.29 4.66 8.58 5 13 C3 9 3 9 3 7 C2.01 7.33 1.02 7.66 0 8 C0 5.36 0 2.72 0 0 Z " fill="#3E3C3B" transform="translate(116,37)"/>
	

	<path d="M0 0 C0.99 0.33 1.98 0.66 3 1 C2.67 1.66 2.34 2.32 2 3 C1.34 2.67 0.68 2.34 0 2 C-0.05395478 3.62463842 -0.09277195 5.24978541 -0.125 6.875 C-0.14820312 7.77992187 -0.17140625 8.68484375 -0.1953125 9.6171875 C-0.24324836 12.18806994 -0.24324836 12.18806994 2 14 C2.66 14 3.32 14 4 14 C3.67 14.99 3.34 15.98 3 17 C-0.875 16.125 -0.875 16.125 -2 15 C-2.12548989 13.04469236 -2.17575363 11.08429521 -2.1875 9.125 C-2.20167969 8.05507813 -2.21585937 6.98515625 -2.23046875 5.8828125 C-2 3 -2 3 0 0 Z " fill="#53514D" transform="translate(92,15)"/>
	

	<path d="M0 0 C3 1 3 1 4.25 2.625 C5.30061312 5.95194155 4.64998375 8.62008449 4 12 C3.67 12 3.34 12 3 12 C2.67 9.36 2.34 6.72 2 4 C0.35 4.33 -1.3 4.66 -3 5 C-2.625 3.0625 -2.625 3.0625 -2 1 C-1.34 0.67 -0.68 0.34 0 0 Z " fill="#B4B0A9" transform="translate(106,11)"/>
	

	<path d="M0 0 C0.5625 1.9375 0.5625 1.9375 1 4 C0 5 0 5 -3.0625 5.0625 C-4.5165625 5.0315625 -4.5165625 5.0315625 -6 5 C-6 3.35 -6 1.7 -6 0 C-3.50907189 -1.24546405 -2.58919267 -0.7767578 0 0 Z " fill="#C2BFB9" transform="translate(52,29)"/>
	

	

	<path d="M0 0 C1.32 0 2.64 0 4 0 C3.67 0.99 3.34 1.98 3 3 C2.34 3 1.68 3 1 3 C0.34 5.64 -0.32 8.28 -1 11 C-2.32 11.33 -3.64 11.66 -5 12 C-5 11.01 -5 10.02 -5 9 C-4.34 9 -3.68 9 -3 9 C-2.87625 7.88625 -2.7525 6.7725 -2.625 5.625 C-2 2 -2 2 0 0 Z " fill="#96958F" transform="translate(91,13)"/>
	

	<path d="M0 0 C1.65 0.33 3.3 0.66 5 1 C4.67 1.66 4.34 2.32 4 3 C3.34 3 2.68 3 2 3 C0.98888907 6.04913228 0.98888907 6.04913228 2 9 C0.02 9 -1.96 9 -4 9 C-4 7.68 -4 6.36 -4 5 C-3.01 4.67 -2.02 4.34 -1 4 C-0.26676204 1.98491642 -0.26676204 1.98491642 0 0 Z " fill="#8B8A83" transform="translate(96,27)"/>
	

	<path d="M0 0 C2.97 0.495 2.97 0.495 6 1 C6.66 3.31 7.32 5.62 8 8 C6.35 6.68 4.7 5.36 3 4 C2.67 5.32 2.34 6.64 2 8 C0.74335022 5.09399739 0 3.20395416 0 0 Z " fill="#54524F" transform="translate(18,6)"/>
	

	<path d="M0 0 C2.35448165 2.55068845 2.98327924 3.71017358 3.1875 7.25 C3.125625 8.1575 3.06375 9.065 3 10 C1.35 10.33 -0.3 10.66 -2 11 C-2.33 10.34 -2.66 9.68 -3 9 C-2.484375 8.608125 -1.96875 8.21625 -1.4375 7.8125 C-0.963125 7.214375 -0.48875 6.61625 0 6 C-0.32041397 3.39719432 -0.32041397 3.39719432 -1 1 C-0.67 0.67 -0.34 0.34 0 0 Z " fill="#A09F9A" transform="translate(125,36)"/>
	

	<path d="M0 0 C1.2065625 0.0309375 1.2065625 0.0309375 2.4375 0.0625 C3.77333899 4.90491633 4.69078119 8.99687617 4.4375 14.0625 C2.5877853 11.28792794 2.13347866 10.11707736 1.5625 7 C0.87186844 3.70832467 0.87186844 3.70832467 -1.6875 1.5625 C-2.30625 1.3975 -2.925 1.2325 -3.5625 1.0625 C-2.5625 0.0625 -2.5625 0.0625 0 0 Z " fill="#DCD9D6" transform="translate(56.5625,8.9375)"/>
	

	<path d="M0 0 C0.33 0 0.66 0 1 0 C1 4.62 1 9.24 1 14 C-0.32 14.33 -1.64 14.66 -3 15 C-3.33 13.68 -3.66 12.36 -4 11 C-3.01 11 -2.02 11 -1 11 C-0.67 7.37 -0.34 3.74 0 0 Z " fill="#8E8D86" transform="translate(36,51)"/>
	

	<path d="M0 0 C1.485 0.99 1.485 0.99 3 2 C3.29296875 5.0390625 3.29296875 5.0390625 3.1875 8.625 C3.16042969 9.81351563 3.13335938 11.00203125 3.10546875 12.2265625 C3.07066406 13.14179687 3.03585938 14.05703125 3 15 C0.33421206 9.76595295 -0.11424589 5.94078624 0 0 Z " fill="#5D5B56" transform="translate(24,47)"/>
	

	<path d="M0 0 C-0.33 0.66 -0.66 1.32 -1 2 C-2.99319761 2.26140296 -4.98774473 2.51730424 -6.98828125 2.71484375 C-9.29528168 3.04185546 -11.02738757 3.76711723 -13 5 C-13.33 3.68 -13.66 2.36 -14 1 C-12.23103898 0.63659714 -10.45973374 0.28459117 -8.6875 -0.0625 C-7.70136719 -0.25972656 -6.71523438 -0.45695312 -5.69921875 -0.66015625 C-3 -1 -3 -1 0 0 Z " fill="#5D5B56" transform="translate(43,17)"/>
	

	<path d="M0 0 C0.33 0 0.66 0 1 0 C0.67 4.95 0.34 9.9 0 15 C-2 14 -2 14 -3.125 10.9375 C-3.41375 9.968125 -3.7025 8.99875 -4 8 C-2.68 7.34 -1.36 6.68 0 6 C0 4.02 0 2.04 0 0 Z " fill="#444241" transform="translate(61,63)"/>
	

	<path d="M0 0 C0.33 0 0.66 0 1 0 C1.125 7.75 1.125 7.75 0 10 C-3.34019306 9.40353695 -5.50470633 8.31705841 -8 6 C-8 5.01 -8 4.02 -8 3 C-6 3 -6 3 -3.375 5.5 C-2.59125 6.325 -1.8075 7.15 -1 8 C-0.67 5.36 -0.34 2.72 0 0 Z " fill="#403E3D" transform="translate(83,22)"/>
	

	<path d="M0 0 C2 2 2 2 2.125 5.625 C2.08375 6.73875 2.0425 7.8525 2 9 C1.01 9 0.02 9 -1 9 C-1.80967438 6.08517222 -2.21845993 4.53886783 -1.0625 1.6875 C-0.711875 1.130625 -0.36125 0.57375 0 0 Z " fill="#090809" transform="translate(93,20)"/>
	

	<path d="M0 0 C0 0.66 0 1.32 0 2 C-3.96 2 -7.92 2 -12 2 C-12 1.34 -12 0.68 -12 0 C-7.66726186 -0.92844389 -4.33273814 -0.92844389 0 0 Z " fill="#E6E4E1" transform="translate(72,42)"/>
	

	<path d="M0 0 C2.00720923 0.28674418 4.0085944 0.61866701 6 1 C4.02579865 3.52259061 3.03254358 3.9929808 -0.1875 4.6875 C-1.5796875 4.8421875 -1.5796875 4.8421875 -3 5 C-1.125 1.125 -1.125 1.125 0 0 Z " fill="#FDFDFD" transform="translate(33,41)"/>
	

	<path d="M0 0 C0.99 0.33 1.98 0.66 3 1 C3.6875 3.0625 3.6875 3.0625 4 5 C2.35 5.33 0.7 5.66 -1 6 C-1.33 5.01 -1.66 4.02 -2 3 C-1.34 2.01 -0.68 1.02 0 0 Z " fill="#DAD7D3" transform="translate(98,29)"/>
	

	<path d="M0 0 C0.33 0 0.66 0 1 0 C1 2.31 1 4.62 1 7 C2.32 6.67 3.64 6.34 5 6 C5 6.99 5 7.98 5 9 C3.33388095 9.042721 1.66617115 9.04063832 0 9 C-1 8 -1 8 -1.125 5.0625 C-1 2 -1 2 0 0 Z " fill="#464443" transform="translate(113,58)"/>
	

	<path d="M0 0 C1.65 0.33 3.3 0.66 5 1 C5 2.65 5 4.3 5 6 C3.02 6.33 1.04 6.66 -1 7 C-0.67 4.69 -0.34 2.38 0 0 Z " fill="#62615B" transform="translate(66,29)"/>
	

	<path d="M0 0 C3 1 3 1 4.1875 3.0625 C4.455625 3.701875 4.72375 4.34125 5 5 C3.35 5.33 1.7 5.66 0 6 C-0.38218767 4.34385343 -0.71395102 2.67542976 -1 1 C-0.67 0.67 -0.34 0.34 0 0 Z " fill="#F4F4F3" transform="translate(86,29)"/>
	

	

	<path d="M0 0 C0.99 0.33 1.98 0.66 3 1 C2.67 2.98 2.34 4.96 2 7 C1.01 7 0.02 7 -1 7 C-0.67 4.69 -0.34 2.38 0 0 Z " fill="#CAC5BF" transform="translate(57,61)"/>
	

	<path d="M0 0 C0.99 0.33 1.98 0.66 3 1 C3 3.64 3 6.28 3 9 C1 5.25 1 5.25 1 3 C-0.98 3.99 -0.98 3.99 -3 5 C-2.625 3.0625 -2.625 3.0625 -2 1 C-1.34 0.67 -0.68 0.34 0 0 Z " fill="#908F88" transform="translate(72,53)"/>
	

	<path d="M0 0 C0.33 0.66 0.66 1.32 1 2 C1.66 2 2.32 2 3 2 C4.60725635 5.21451269 4.05748185 8.43612536 4 12 C3.34 11.67 2.68 11.34 2 11 C1.3671875 8.49609375 1.3671875 8.49609375 0.875 5.4375 C0.70742188 4.42558594 0.53984375 3.41367187 0.3671875 2.37109375 C0.24601562 1.58863281 0.12484375 0.80617188 0 0 Z " fill="#5C5B56" transform="translate(21,15)"/>
	

	

	<path d="M0 0 C2.31 0.66 4.62 1.32 7 2 C3.36576791 4.32590854 0.22911669 4.16265833 -4 4 C-2.68 2.68 -1.36 1.36 0 0 Z " fill="#282627" transform="translate(44,35)"/>
	

	<path d="M0 0 C1.21236328 0.01353516 1.21236328 0.01353516 2.44921875 0.02734375 C3.37154297 0.04474609 3.37154297 0.04474609 4.3125 0.0625 C1.89119669 2.48380331 0.51138623 2.59090504 -2.8125 3.1875 C-4.17761719 3.43886719 -4.17761719 3.43886719 -5.5703125 3.6953125 C-6.26898437 3.81648438 -6.96765625 3.93765625 -7.6875 4.0625 C-7.6875 3.0725 -7.6875 2.0825 -7.6875 1.0625 C-4.80538698 0.10179566 -2.98899956 -0.04331883 0 0 Z " fill="#807F76" transform="translate(37.6875,14.9375)"/>
	

	<path d="M0 0 C1.98 0.495 1.98 0.495 4 1 C3.6875 2.9375 3.6875 2.9375 3 5 C2.01 5.33 1.02 5.66 0 6 C-1.125 2.25 -1.125 2.25 0 0 Z " fill="#C3BDB5" transform="translate(29,63)"/>
	

	<path d="M0 0 C0.66 0 1.32 0 2 0 C2.625 2.8125 2.625 2.8125 3 6 C2.01 7.485 2.01 7.485 1 9 C-1 6 -1 6 -0.625 2.8125 C-0.41875 1.884375 -0.2125 0.95625 0 0 Z " fill="#FDFDFD" transform="translate(19,59)"/>
	

	

	<path d="M0 0 C0.721875 0.391875 1.44375 0.78375 2.1875 1.1875 C2.1875 1.8475 2.1875 2.5075 2.1875 3.1875 C0.82625 3.1565625 0.82625 3.1565625 -0.5625 3.125 C-3.23922588 3.1764755 -5.28238052 3.4090017 -7.8125 4.1875 C-7.8125 3.5275 -7.8125 2.8675 -7.8125 2.1875 C-4.86429158 -0.17106674 -3.72198415 -1.07523986 0 0 Z " fill="#6C6A63" transform="translate(32.8125,24.8125)"/>
	

	<path d="M0 0 C0.33 0 0.66 0 1 0 C1 3.63 1 7.26 1 11 C-0.65 11.33 -2.3 11.66 -4 12 C-4 11.34 -4 10.68 -4 10 C-3.01 9.67 -2.02 9.34 -1 9 C-0.67 6.03 -0.34 3.06 0 0 Z " fill="#D0CBC5" transform="translate(68,72)"/>
	

	<path d="M0 0 C0.99 0 1.98 0 3 0 C2.67 1.65 2.34 3.3 2 5 C0.68 4.67 -0.64 4.34 -2 4 C-1.34 2.68 -0.68 1.36 0 0 Z " fill="#090809" transform="translate(104,24)"/>
	

	<path d="M0 0 C2.89932357 2.39509338 3.50168276 4.31245243 4 8 C2.35 7.01 0.7 6.02 -1 5 C-0.67 3.35 -0.34 1.7 0 0 Z " fill="#6F6D66" transform="translate(118,16)"/>
	

	

	

	<path d="M0 0 C2.31 0.33 4.62 0.66 7 1 C7.33 2.32 7.66 3.64 8 5 C7.4225 4.67 6.845 4.34 6.25 4 C3.80116138 2.72924102 3.80116138 2.72924102 0 3 C0 2.01 0 1.02 0 0 Z " fill="#BEB9B2" transform="translate(9,33)"/>
	

	<path d="M0 0 C2.475 0.495 2.475 0.495 5 1 C4.67 1.99 4.34 2.98 4 4 C2.68 4 1.36 4 0 4 C0 2.68 0 1.36 0 0 Z " fill="#BCB7B0" transform="translate(72,30)"/>
	

	<path d="M0 0 C1.65 0 3.3 0 5 0 C5 1.32 5 2.64 5 4 C3.02 4.33 1.04 4.66 -1 5 C-0.67 3.35 -0.34 1.7 0 0 Z " fill="#78776E" transform="translate(85,24)"/>
	

	<path d="M0 0 C0.33 0 0.66 0 1 0 C1.04254356 1.99954746 1.04080783 4.00041636 1 6 C0 7 0 7 -2.5625 7.0625 C-3.7690625 7.0315625 -3.7690625 7.0315625 -5 7 C-5 6.34 -5 5.68 -5 5 C-3.68 4.67 -2.36 4.34 -1 4 C-0.67 2.68 -0.34 1.36 0 0 Z " fill="#504E4B" transform="translate(66,73)"/>
	

	<path d="M0 0 C0.33 0 0.66 0 1 0 C1.1875 2.375 1.1875 2.375 1 5 C0.01 5.66 -0.98 6.32 -2 7 C-2.33 7.66 -2.66 8.32 -3 9 C-3.66 7.35 -4.32 5.7 -5 4 C-3.35 4 -1.7 4 0 4 C0 2.68 0 1.36 0 0 Z " fill="#B6B1AA" transform="translate(39,31)"/>
	

	

	<path d="M0 0 C0.66 0 1.32 0 2 0 C2 1.65 2 3.3 2 5 C1.34 4.67 0.68 4.34 0 4 C-0.66 5.32 -1.32 6.64 -2 8 C-2.33 7.34 -2.66 6.68 -3 6 C-2.06553465 3.96855359 -1.06775224 1.96466413 0 0 Z " fill="#343233" transform="translate(81,16)"/>
	

	<path d="M0 0 C0.66 0 1.32 0 2 0 C2.33 0.99 2.66 1.98 3 3 C2.34 3 1.68 3 1 3 C1.33 4.65 1.66 6.3 2 8 C0.4375 6.8125 0.4375 6.8125 -1 5 C-0.6875 2.3125 -0.6875 2.3125 0 0 Z " fill="#92918B" transform="translate(17,3)"/>
	

</svg>
