<?xml version="1.0" encoding="iso-8859-1"?>
<svg height="128" version="1.1" width="128" xmlns="http://www.w3.org/2000/svg">
	

	<path d="M0 0 C42.24 0 84.48 0 128 0 C128 42.24 128 84.48 128 128 C85.76 128 43.52 128 0 128 C0 85.76 0 43.52 0 0 Z " fill="#131213" transform="translate(0,0)"/>
	

	<path d="M0 0 C7.74484564 8.68933901 8.79974725 18.08076683 8.68359375 29.34765625 C8.07450478 38.46184205 3.73664749 45.73666879 -2.09375 52.5625 C-4.53125 54.5625 -4.53125 54.5625 -8.53125 54.5625 C-8.4590625 53.90765625 -8.386875 53.2528125 -8.3125 52.578125 C-7.04205018 40.08536847 -6.70779771 29.9055723 -12.53125 18.5625 C-15.99625 19.0575 -15.99625 19.0575 -19.53125 19.5625 C-21.1538425 23.83647769 -21.93592669 27.88903541 -22.51708984 32.38916016 C-24.81764889 49.89610501 -24.81764889 49.89610501 -32.640625 56.125 C-35.83956392 58.51005555 -38.99414549 60.70528681 -42.53125 62.5625 C-43.52125 62.2325 -44.51125 61.9025 -45.53125 61.5625 C-45.00936277 58.17023299 -44.35698253 54.86763099 -43.51953125 51.54296875 C-42.3127589 46.12848787 -42.12748027 40.84426437 -42.09375 35.3125 C-42.06087891 34.34570312 -42.02800781 33.37890625 -41.99414062 32.3828125 C-41.95795703 27.60657779 -41.97191546 25.3153791 -44.890625 21.38671875 C-47.36511171 19.29540475 -47.36511171 19.29540475 -50.21875 19.625 C-52.6740442 20.44553421 -52.6740442 20.44553421 -54.53125 22.5625 C-54.9130067 24.85273059 -54.9130067 24.85273059 -54.98828125 27.5078125 C-55.08012695 29.00054687 -55.08012695 29.00054687 -55.17382812 30.5234375 C-55.28582201 32.60884095 -55.38762947 34.69482006 -55.47851562 36.78125 C-55.91663659 43.53091556 -57.03846395 48.37351279 -61.53125 53.5625 C-63.91796875 55.5859375 -63.91796875 55.5859375 -66.21875 56.9375 C-68.64375639 58.39657948 -70.52216426 59.55341426 -72.53125 61.5625 C-74.65625 61.1875 -74.65625 61.1875 -76.53125 60.5625 C-78.82299484 21.80745779 -78.82299484 21.80745779 -73.53125 10.5625 C-73.13360737 8.57428687 -72.77669834 6.57517638 -72.53125 4.5625 C-73.85125 4.2325 -75.17125 3.9025 -76.53125 3.5625 C-76.90048077 -1.97596154 -76.90048077 -1.97596154 -75.03125 -4.3125 C-74.53625 -4.68375 -74.04125 -5.055 -73.53125 -5.4375 C-72.54125 -5.1075 -71.55125 -4.7775 -70.53125 -4.4375 C-70.53125 -1.7975 -70.53125 0.8425 -70.53125 3.5625 C-67.15564002 1.87469501 -64.94432165 0.01514878 -62.59375 -2.875 C-57.84174718 -8.60642325 -52.82154125 -11.12551809 -45.53125 -12.4375 C-44.88800781 -12.57285156 -44.24476562 -12.70820313 -43.58203125 -12.84765625 C-28.34983036 -15.37184954 -11.26793065 -10.57805735 0 0 Z " fill="#F8F8F8" transform="translate(96.53125,38.4375)"/>
	

	

	

	

	

	

	

</svg>
