<?xml version="1.0" encoding="iso-8859-1"?>
<svg height="128" version="1.1" width="128" xmlns="http://www.w3.org/2000/svg">
	

	<path d="M0 0 C42.24 0 84.48 0 128 0 C128 42.24 128 84.48 128 128 C85.76 128 43.52 128 0 128 C0 85.76 0 43.52 0 0 Z " fill="#FBFBFB" transform="translate(0,0)"/>
	

	<path d="M0 0 C2.25 -0.25 2.25 -0.25 5 0 C5.556875 0.61875 6.11375 1.2375 6.6875 1.875 C9.32618599 4.29973847 10.30251129 4.3440626 13.75 4.8125 C19.74312334 5.81870922 22.96042224 8.60797585 27 13 C27.48339844 13.50273437 27.96679688 14.00546875 28.46484375 14.5234375 C32.9838112 19.93521006 34.79364158 27.1770248 36 34 C35.6015625 37.43359375 35.6015625 37.43359375 35 40 C33.68 40.33 32.36 40.66 31 41 C30.63648437 39.865625 30.27296875 38.73125 29.8984375 37.5625 C25.84390287 25.25560222 22.26966161 17.05383755 10.6640625 10.234375 C7.94668545 8.79218628 7.94668545 8.79218628 4.4375 8.6875 C-4.8228128 12.2232558 -10.99336522 16.64064593 -15.3125 25.625 C-17.63367416 30.93260696 -19.71217566 36.32868727 -21.75 41.75 C-22.05591064 42.5538916 -22.36182129 43.3577832 -22.67700195 44.18603516 C-26.78311668 55.33005126 -27.17280613 64.95555791 -23 76 C-22.690625 77.134375 -22.38125 78.26875 -22.0625 79.4375 C-21.25610582 82.07028033 -21.25610582 82.07028033 -19.25 83.125 C-18.5075 83.41375 -17.765 83.7025 -17 84 C-15.5459375 85.051875 -15.5459375 85.051875 -14.0625 86.125 C-10.89679877 88.06318443 -9.60578887 88.58472252 -6 88 C-4.515 87.01 -4.515 87.01 -3 86 C0.32500236 86.17051294 1.74385867 86.7853951 4.3125 88.9375 C6 91 6 91 6 93 C10.07655174 93.47401764 11.58343751 93.31020611 14.9375 90.8125 C17.19687921 88.2691806 17.19687921 88.2691806 17.125 85.6875 C15.81475875 82.55747922 14.11015311 79.87656666 12.2734375 77.03125 C7.49293816 69.40591363 6.05420297 61.63233121 7.9375 52.875 C8.12828125 52.05773437 8.3190625 51.24046875 8.515625 50.3984375 C9.33606295 46.33594638 9.89407522 41.78815044 8 38 C5.20780218 37.87571136 5.20780218 37.87571136 2 39 C-2.19413288 43.38696658 -5.15871366 47.48955815 -5.02734375 53.61328125 C-5.01509766 54.53173828 -5.00285156 55.45019531 -4.99023438 56.39648438 C-4.95528863 58.32885488 -4.91627582 60.26115643 -4.87304688 62.19335938 C-4.76963882 70.89788473 -4.76963882 70.89788473 -7 75 C-10 74 -10 74 -11.62890625 71.33984375 C-16.13000163 60.37563705 -13.43757544 49.83982122 -10 39 C-9.67515625 37.78054687 -9.3503125 36.56109375 -9.015625 35.3046875 C-8.70109375 34.15226562 -8.3865625 32.99984375 -8.0625 31.8125 C-7.78535156 30.78769531 -7.50820313 29.76289062 -7.22265625 28.70703125 C-5.46530809 24.81616137 -2.76422583 22.88211291 1 21 C4.71554927 20.57777849 6.72873183 20.86979128 10.125 22.5 C15.38224429 27.07151677 17.05027267 32.22521137 18 39 C18.08709668 41.27616036 18.13119894 43.55422464 18.140625 45.83203125 C18.15996094 47.12560547 18.17929688 48.41917969 18.19921875 49.75195312 C18.22808018 51.77934602 18.24999834 53.80564068 18.25048828 55.83325195 C18.26528352 64.51065757 18.51755439 72.51755439 25 79 C25.87295429 84.9859723 24.16181224 88.15708909 20.63671875 92.98046875 C17.49317404 96.8592578 14.9204442 99.04171124 10 100 C6 100 6 100 3.1875 98.25 C2.465625 97.5075 1.74375 96.765 1 96 C0.401875 95.4225 -0.19625 94.845 -0.8125 94.25 C-1.204375 93.8375 -1.59625 93.425 -2 93 C-5.73639216 94.24546405 -6.18756513 95.63404953 -8 99 C-16.52775266 98.78285815 -21.74719511 96.18052034 -27.8125 90.25 C-34.47249794 80.35514591 -35.51828721 67.31621029 -33.63378906 55.75292969 C-31.72959666 46.46157924 -28.65816466 37.57391323 -25.0625 28.8125 C-24.75119141 28.04711914 -24.43988281 27.28173828 -24.11914062 26.49316406 C-22.06817413 21.7375116 -19.57221583 17.809113 -16.32226562 13.77587891 C-14.77685991 11.83116385 -14.77685991 11.83116385 -13.4375 8.5625 C-12 6 -12 6 -9.625 5.125 C-7.07502875 5.0035728 -4.55210945 4.92708259 -2 5 C-1.34 3.35 -0.68 1.7 0 0 Z " fill="#181818" transform="translate(62,17)"/>
	

	

	

	

	

	

	

	

	

	

	

	

	

	

	

	

	

	

	

	

	

	

	

	

	

	

	

	

	

</svg>
