<?xml version="1.0" encoding="iso-8859-1"?>
<svg height="128" version="1.1" width="128" xmlns="http://www.w3.org/2000/svg">
	

	<path d="M0 0 C42.24 0 84.48 0 128 0 C128 42.24 128 84.48 128 128 C85.76 128 43.52 128 0 128 C0 85.76 0 43.52 0 0 Z " fill="#FDFEFD" transform="translate(0,0)"/>
	

	<path d="M0 0 C3.9352234 0.55425682 6.3170966 1.64552351 9.5 4 C10.36753906 4.62003906 11.23507813 5.24007813 12.12890625 5.87890625 C14.16376218 7.38220798 16.1615645 8.90607755 18.15234375 10.46484375 C24.17000164 15.05890189 28.5051601 17.85918942 36.36328125 17.125 C42.40624332 16.83851884 48.52707018 19.62839708 54 22 C53.319375 20.948125 52.63875 19.89625 51.9375 18.8125 C50.50156159 16.27909437 50.00366364 15.16486399 49.9375 12.1875 C51 10 51 10 53.0625 8.6875 C60.10611692 7.03899391 66.55706916 7.72393347 73 11 C78.62999767 15.01884078 83.46786179 19.48878745 86 26 C85.12092407 32.8860948 79.66226155 38.91722102 74.375 43.125 C70.11279577 46.15297521 65.47633761 48.33338923 60.734375 50.5078125 C57.9495446 52.02753423 56.1135572 53.65495796 54 56 C53.01 55.67 52.02 55.34 51 55 C50.34 51.7 49.68 48.4 49 45 C48.01 44.67 47.02 44.34 46 44 C45.855625 45.19625 45.71125 46.3925 45.5625 47.625 C45.459375 48.43710938 45.35625 49.24921875 45.25 50.0859375 C44.94096688 53.10039153 44.94096688 53.10039153 45.0625 56.5390625 C45.0625 60.24211926 44.94967484 63.41632134 44 67 C41.01111189 69.78663252 37.87528666 70.85637565 34 72 C32.989375 72.433125 31.97875 72.86625 30.9375 73.3125 C25.19983723 74.65535724 20.19849045 75.05992088 14.9375 72.0625 C6.61505038 66.09890835 1.55265594 59.26853307 -0.65167236 49.19769287 C-1.81375624 41.86579271 -1.46249661 34.3018925 -1.35668945 26.90307617 C-1.31204852 23.78092394 -1.29515339 20.65954348 -1.28320312 17.53710938 C-1.26979942 15.55207211 -1.25488214 13.56704435 -1.23828125 11.58203125 C-1.23089432 10.64881546 -1.22350739 9.71559967 -1.21589661 8.75410461 C-1.20306137 7.89528183 -1.19022614 7.03645905 -1.17700195 6.15161133 C-1.16715775 5.39584305 -1.15731354 4.64007477 -1.14717102 3.86140442 C-1 2 -1 2 0 0 Z " fill="#72BA40" transform="translate(9,26)"/>
	

	

	<path d="M0 0 C5.65523565 1.07534577 9.85019103 3.92393848 13.3359375 8.4765625 C15.3060811 11.9259948 15.86222916 14.15086496 15.79296875 18.16796875 C13.65839562 25.85243203 10.43358002 29.32399037 3.85546875 33.54296875 C-1.69184615 36.6366636 -5.87813179 37.69125624 -12.20703125 37.73046875 C-13.77130859 37.75173828 -13.77130859 37.75173828 -15.3671875 37.7734375 C-18.14453125 37.54296875 -18.14453125 37.54296875 -21.14453125 35.54296875 C-20.85873137 31.06543733 -20.12323957 28.27533712 -17.70703125 24.48046875 C-14.66796855 19.44999744 -14.30609572 14.56496905 -13.89453125 8.77734375 C-12.10966133 1.08009224 -7.08672962 -0.35385829 0 0 Z " fill="#F8CD1E" transform="translate(110.14453125,39.45703125)"/>
	

	

	

	

	

	

	

</svg>
